<svg id="Слой_1" data-name="Слой 1" xmlns="http://www.w3.org/2000/svg" viewBox="0 0 923 1000"><defs><style>.cls-1{fill:#ffc800;}.cls-2{fill:#ececec;}.cls-3{fill:#4a148c;}.cls-4{fill:#306;}.cls-5,.cls-6{fill:#a8a8a8;}.cls-10,.cls-13,.cls-6{opacity:0.1;}.cls-7{fill:#c8c8c8;}.cls-8{fill:#dcdcdc;}.cls-9{fill:#ac645a;}.cls-11{fill:none;stroke:#f4a79e;stroke-linecap:round;stroke-linejoin:round;stroke-width:0;}.cls-12{fill:#f196b8;}.cls-14{fill:#fff;}</style></defs><circle class="cls-1" cx="260.14" cy="194" r="87.5"/><path class="cls-2" d="M168.61,47.23h335.8V530.39H168.61Zm327,8.86H177.46V521.53h318.1Z"/><rect class="cls-2" x="335.53" y="58.4" width="8.85" height="467.56"/><rect class="cls-2" x="160.58" y="65.13" width="351.86" height="12.33" transform="translate(673.02 142.59) rotate(-180)"/><rect class="cls-3" x="160.58" y="79" width="351.86" height="12.33" transform="translate(673.02 170.34) rotate(-180)"/><rect class="cls-3" x="160.58" y="92.87" width="351.86" height="12.33" transform="translate(673.02 198.08) rotate(-180)"/><rect class="cls-3" x="160.58" y="106.75" width="351.86" height="12.33" transform="translate(673.02 225.82) rotate(-180)"/><rect class="cls-3" x="160.58" y="120.62" width="351.86" height="12.33" transform="translate(673.02 253.57) rotate(-180)"/><rect class="cls-3" x="160.58" y="134.49" width="351.86" height="12.33" transform="translate(673.02 281.31) rotate(-180)"/><rect class="cls-3" x="160.58" y="148.36" width="351.86" height="12.33" transform="translate(673.02 309.05) rotate(-180)"/><rect class="cls-3" x="160.58" y="162.23" width="351.86" height="12.33" transform="translate(673.02 336.8) rotate(-180)"/><rect class="cls-3" x="160.58" y="176.11" width="351.86" height="12.33" transform="translate(673.02 364.54) rotate(-180)"/><rect class="cls-4" x="186.88" y="62.63" width="2.21" height="239.94"/><polygon class="cls-4" points="184.05 312.88 191.91 312.88 189.94 301.59 186.02 301.59 184.05 312.88"/><rect class="cls-4" x="178.9" y="62.63" width="2.21" height="366.88"/><polygon class="cls-4" points="176.08 437.81 183.94 437.81 181.97 426.52 178.05 426.52 176.08 437.81"/><rect class="cls-3" x="146.84" y="45.5" width="379.34" height="25.8" transform="translate(673.02 116.8) rotate(-180)"/><path class="cls-1" d="M157.81,746.7s-37.47-8.49-58-27.42-32-52.83-32-52.83a322.2,322.2,0,0,1,42,11c3.35,3.59,9.74,11,12.71,18a85.05,85.05,0,0,0,.1-12.85,56.8,56.8,0,0,1,13.35,8.1C153,705.62,157.81,746.7,157.81,746.7Z"/><path class="cls-3" d="M91.18,682.93c-5.11-3.53-10.31-6.94-15.39-10.51a.29.29,0,0,1,.31-.5c9.65,5.77,19.17,11.93,28.38,18.39,3.21,2.25,6.37,4.59,9.48,7-.21-.37-.43-.74-.65-1.11-1.12-1.88-2.31-3.73-3.5-5.57a79.2,79.2,0,0,0-8-10.62c-.11-.12.08-.3.18-.18,2.92,3.37,5.83,6.7,8.5,10.27,1.27,1.69,2.44,3.45,3.56,5.25.58.93,1.14,1.87,1.68,2.83.18.32.38.64.56,1,4.85,3.81,9.57,7.78,14.07,12,2.78,2.59,5.46,5.28,8.05,8-1.45-4.53-2.71-9.12-4.39-13.58-.06-.15.19-.22.24-.06,1.63,4.68,3.42,9.39,4.68,14.2,2.87,3.1,5.62,6.31,8.2,9.66,0-.21-.08-.41-.13-.61-.43-1.77-.87-3.53-1.34-5.29-.91-3.39-1.91-6.75-3.05-10.07-2.35-6.81-5.39-13.48-10.07-19-.1-.12.08-.3.19-.17,7.32,8.66,11.61,19,14.35,30,.4,1.6.78,3.2,1.14,4.81.19.85.42,1.71.56,2.59,1.13,1.53,2.25,3.08,3.31,4.66A162.3,162.3,0,0,1,168,767.3a360.79,360.79,0,0,1,12,37.44.2.2,0,0,1-.39.1c-7.33-21.93-14.81-44.17-27.36-63.77a146.77,146.77,0,0,0-8.55-12,71.23,71.23,0,0,1-18.23-3.63,81,81,0,0,1-18.26-8.82,113,113,0,0,1-9.36-7.07.13.13,0,1,1,.16-.2,74.75,74.75,0,0,0,17.17,10.39,93.44,93.44,0,0,0,18.91,6.34c2.77.61,5.57,1,8.38,1.43a162.05,162.05,0,0,0-11.05-12.24c-1.27-1.26-2.58-2.47-3.88-3.69a88.73,88.73,0,0,0-13.85-7.93c-6.14-3-12.18-6.12-18.26-9.21-3.43-1.74-6.83-3.53-10.29-5.21-.15-.08,0-.29.13-.22,6.16,3,12.42,5.75,18.63,8.6,5.85,2.68,11.77,5.37,17.39,8.53.24.13.47.28.71.42-5.08-4.42-10.33-8.63-15.71-12.69C101.34,690.15,96.3,686.47,91.18,682.93Z"/><path class="cls-5" d="M93.31,702.25c3,1.34,6.15,2.52,9.17,3.93s6,3.15,9,4.89c.13.08,0,.26-.12.2-3-1.43-6-2.77-9-4.26s-6-3.15-9.13-4.51C93.09,702.43,93.16,702.19,93.31,702.25Z"/><path class="cls-1" d="M279.54,557.85A53.57,53.57,0,0,0,268.34,589c-.12,3.36.41,8,.8,13.55-14,7.46-24.45,20.9-24.45,20.9,7.93-4.77,18.83-6.7,24.71-5.92a74.49,74.49,0,0,1-1.43,11.2c-2.6-.15-7.61.2-15.9,3.14,0,0,8.14-.2,14.33,2.85C259.72,656,239.87,677.79,185,687.06c0,0-10.58-37.23,9.71-77.16C211.18,577.58,279.54,557.85,279.54,557.85Z"/><path class="cls-3" d="M166.06,778q1.42-13.62,3.55-27.15a541.55,541.55,0,0,1,11.06-53.67,218,218,0,0,1,7.91-24.46,37.94,37.94,0,0,1-.2-4.39c0-1.75,0-3.51,0-5.27,0-3.51.21-7,.51-10.52A125.29,125.29,0,0,1,192.23,632c1-3.91,2.16-7.75,3.31-11.62a.13.13,0,0,1,.24.07,152.21,152.21,0,0,0-4,20.52,191.84,191.84,0,0,0-1.85,20.58c-.06,1.88-.1,3.77-.1,5.65,0,.8,0,1.61.06,2.43a177,177,0,0,1,9.24-19.13,233.37,233.37,0,0,1,18.77-28.07,11.81,11.81,0,0,1,.45-3.07c.26-1.22.52-2.45.8-3.67.56-2.5,1.19-5,1.87-7.47,1.36-5,3.16-9.77,4.71-14.67a.13.13,0,0,1,.25.07c-1.45,4.86-2.41,9.89-3.53,14.83-.55,2.44-1.08,4.89-1.62,7.34-.27,1.22-.53,2.45-.78,3.67,0,.09,0,.19,0,.28q3.31-4.2,6.79-8.27c10.47-12.28,21.95-23.6,33.5-34.85,1.42-1.38,2.88-2.73,4.32-4.09a.12.12,0,0,1,.17.18c-11,11.52-21.91,23.17-32.21,35.37q-3.66,4.35-7.22,8.8c1.25-.84,2.5-1.66,3.74-2.48,3.19-2.08,6.42-4.12,9.75-6s6.68-3.69,10.1-5.38,7.27-3.16,10.66-5.13c.15-.09.28.16.13.22a78.77,78.77,0,0,0-10,5.54c-3.34,2-6.67,4-9.94,6.05s-6.47,4.06-9.67,6.14c-2.66,1.73-5.29,3.63-8,5.23a258.91,258.91,0,0,0-17.57,25.56,188.75,188.75,0,0,0-9.08,17.22l2-.85,5-2.23c3.22-1.43,6.46-2.83,9.7-4.23,6.14-2.68,12.39-5.13,18.42-8.07a83.51,83.51,0,0,0,9.84-5.46c.14-.1.26.13.13.22-11.24,7.75-23.85,13.21-36.29,18.71l-5.39,2.39c-1.49.66-3,1.39-4.5,2A192.18,192.18,0,0,0,185,691.7a517.62,517.62,0,0,0-11.93,53c-3.15,17.91-5.27,35.94-6.92,54-.2,2.26-.4,4.52-.66,6.78a.72.72,0,0,1-1.43,0C164.16,796.33,165.1,787.12,166.06,778Z"/><path class="cls-5" d="M199.42,626.57c1-5.57,2.49-11,4-16.48,0-.16.29-.08.24.08-1.38,5.35-2.37,10.81-3.38,16.25s-1.94,11.11-2.72,16.69c0,.09-.15.1-.15,0A145.86,145.86,0,0,1,199.42,626.57Z"/><path class="cls-5" d="M223.05,641.69A99.51,99.51,0,0,1,235,635c2-1,4-2,6.05-3s4.25-1.86,6.32-2.9c.15-.07.27.15.13.22-2,1-3.91,2.23-5.88,3.3s-4.05,2.24-6.09,3.33c-4,2.15-7.95,4.54-12.16,6.29A.31.31,0,0,1,223.05,641.69Z"/><path class="cls-6" d="M157.13,681.79s-34.68-8.28-50.6-31.55C91.33,628,86.41,590.16,86,586.83c.63,3,7.78,36.15,31.39,51.57C135.48,650.21,153,659.92,157.13,681.79Z"/><path class="cls-5" d="M125.12,621.88c6.11,5.87,10.68,12.78,12.79,21,0,.07-.09.11-.11,0-2.61-7.7-6.91-15.29-12.85-20.9C124.83,622,125,621.76,125.12,621.88Z"/><path class="cls-1" d="M157.13,681.79s-34.68-8.28-50.6-31.55C91.33,628,86.41,590.16,86,586.83c0-.16,0-.23,0-.23s16.63,23.64,34.11,29.66S162.14,643.15,157.13,681.79Z"/><path class="cls-3" d="M92.13,599.64A140.62,140.62,0,0,0,102.85,618a73.43,73.43,0,0,0,14.26,14.67c4.71,3.74,9.69,7.13,14.46,10.8,0-.05-.07-.12-.11-.17-.89-1.33-1.85-2.62-2.84-3.88-2-2.54-4.15-4.93-6.34-7.3-4.31-4.68-8.7-9.26-12.57-14.32a53.11,53.11,0,0,1-5.56-9c-.07-.15.17-.23.24-.08,5.63,11.72,16.86,19.22,24.88,29.11a52.92,52.92,0,0,1,3.2,4.39,17.61,17.61,0,0,1,2,3.52,73.14,73.14,0,0,1,11.83,12,48.67,48.67,0,0,0-1.39-6.73,34.26,34.26,0,0,0-3.68-8.78c-.09-.14.13-.29.21-.14a41.37,41.37,0,0,1,4.05,8.72,31,31,0,0,1,1.26,7.49l0,0a67.88,67.88,0,0,1,4.68,7.29c-.14-.74-.28-1.49-.43-2.23-.69-3.45-1.45-6.9-2.35-10.3-1.81-6.91-4.27-13.61-8.34-19.54a.13.13,0,0,1,.22-.14,74.67,74.67,0,0,1,9.24,19.11c1.1,3.4,2,6.87,2.77,10.36.38,1.7.72,3.41,1.05,5.13.17.89.36,1.8.5,2.71a124.39,124.39,0,0,1,8,23.51A344.07,344.07,0,0,1,169.5,738a363.94,363.94,0,0,1,2.4,46.55c0,2-.15,3.9-.26,5.85,0,.5-.78.57-.8.05-.34-7.7-.54-15.4-1-23.09s-1.12-15.37-2-23a409,409,0,0,0-7.22-44.83c-2.81-12.68-6.46-25.44-13.39-36.55a68.58,68.58,0,0,0-12.51-14.88c-4.86-4.36-10.18-8.19-15.3-12.23a83.46,83.46,0,0,1-14-13.5,109.88,109.88,0,0,1-11-17.89c-.82-1.58-1.66-3.14-2.49-4.7C91.84,599.63,92.05,599.49,92.13,599.64Z"/><path class="cls-5" d="M98.11,604.72a117.23,117.23,0,0,0,7.73,13.51.09.09,0,0,1-.16.1,93.72,93.72,0,0,1-7.81-13.53C97.8,604.65,98,604.57,98.11,604.72Z"/><path class="cls-1" d="M284.38,666.45s.55,49.28-28.92,63.51-45.26,2.37-65.28,7.14l0,0c.78-1.17,15.07-21.71,37.8-27.37C251.38,703.87,277.29,687,284.38,666.45Z"/><path class="cls-6" d="M284.38,666.45s.55,49.28-28.92,63.51-45.26,2.37-65.28,7.14l0,0a111.8,111.8,0,0,1,33.5-9.88C242.29,725,277.79,712.85,284.38,666.45Z"/><path class="cls-3" d="M188.24,738A49.57,49.57,0,0,1,200,730c.63-.3,1.28-.55,1.92-.82a13.34,13.34,0,0,1,1-1.13,36.45,36.45,0,0,1,2.78-2.64,40.61,40.61,0,0,1,5.92-4.27c4.88-2.87,10.23-4.88,15.22-7.55a.13.13,0,0,1,.13.23c-2.47,1.28-4.86,2.69-7.26,4.09s-4.72,2.66-7,4.13a49.77,49.77,0,0,0-5.83,4.37c-.52.45-1,.95-1.52,1.45a79.4,79.4,0,0,1,10-2.65c5.39-1.09,10.85-1.86,16.23-3a74.49,74.49,0,0,0,7.82-2.11c2.45-2,4.89-3.92,7.2-6.06a59.24,59.24,0,0,0,7.62-8.44c.09-.13.31,0,.21.13a89.21,89.21,0,0,1-12.08,13.33c1.27-.48,2.53-1,3.77-1.56a60.82,60.82,0,0,0,25.11-20.89c.09-.13.31,0,.22.14a68.78,68.78,0,0,1-20.32,19.49,60.78,60.78,0,0,1-12.83,6.08,119.24,119.24,0,0,1-15.95,3.77,112.48,112.48,0,0,0-15.61,3.71,47.33,47.33,0,0,0-13.1,6.89,61.25,61.25,0,0,0-17.65,21.9c-5.58,11.18-8.25,23.69-9.73,36-.06.52-.88.52-.84,0C166.74,773.91,172.27,752.36,188.24,738Z"/><path class="cls-5" d="M222.43,721.91a16.92,16.92,0,0,1,6.06-5.49,22.23,22.23,0,0,0,7.2-6c.1-.13.32,0,.22.14a24.54,24.54,0,0,1-6.36,5.7c-2.57,1.61-5.17,3.19-6.93,5.73C222.54,722.13,222.36,722,222.43,721.91Z"/><polygon class="cls-3" points="206.8 774.34 205.46 801.44 201.35 884.23 139.54 884.23 135.43 801.44 134.09 774.34 206.8 774.34"/><polygon class="cls-4" points="206.8 774.34 205.46 801.44 135.43 801.44 134.09 774.34 206.8 774.34"/><rect class="cls-3" x="129.76" y="763.03" width="81.38" height="25.85"/><polygon class="cls-7" points="481.89 671.82 476.17 706.15 437.38 915.59 431.13 915.59 459.33 706.15 463.5 671.82 481.89 671.82"/><polygon class="cls-5" points="463.5 671.82 481.89 671.82 476.17 706.15 459.33 706.15 463.5 671.82"/><polygon class="cls-7" points="603.68 915.59 597.42 915.59 558.64 706.15 552.92 671.82 571.31 671.82 575.48 706.15 603.68 915.59"/><polygon class="cls-5" points="571.31 671.82 575.48 706.15 558.64 706.15 552.92 671.82 571.31 671.82"/><polygon class="cls-7" points="720 915.59 713.75 915.59 674.97 706.15 669.24 671.82 687.63 671.82 691.8 706.15 720 915.59"/><polygon class="cls-5" points="691.8 706.15 674.97 706.15 669.24 671.82 687.63 671.82 691.8 706.15"/><polygon class="cls-7" points="710.09 687.96 425.91 687.96 425.91 658.01 532.29 658.01 568.04 405.72 699.25 405.72 710.09 687.96"/><polygon class="cls-8" points="693.53 658.01 425.91 658.01 425.91 687.96 694.59 687.96 693.53 658.01"/><polygon class="cls-8" points="710.09 687.96 694.59 687.96 684.5 405.72 699.25 405.72 710.09 687.96"/><path class="cls-9" d="M440.5,955.49c5.53.53,156-35.31,160.74-40.19.58-.54-2.38-14.22-6.72-32.87l-.09-.36c-2.71-11.83-46.54-107.45-46.54-107.45l-97.53,27.19,44.31,88.72s-18.36,13.25-34.09,25.83c0,0,0,0,0,.06-9.72,7.72-18.1,14.66-19.87,16.91C436.06,939.2,435,955,440.5,955.49Z"/><path class="cls-2" d="M440.51,955.48c5.51.53,156-35.31,160.74-40.18.57-.55-2.39-14.21-6.73-32.87l-.09-.35c-1-4.41-7.75-20.48-15.78-38.9-16,4.32-73.59,19.86-94.49,26.32l10.5,21s-18.35,13.26-34.09,25.84c0,0,0,0,0,0-9.71,7.73-18.1,14.68-19.87,16.91C436.06,939.21,435,955,440.51,955.48Z"/><path class="cls-1" d="M440,956.21c5.68.49,156.26-35.76,161.13-40.77,1.85-1.89-1.48-25.65-9.72-50.83l-97,23.49s-49.56,39.23-54.31,45.3S434.33,955.71,440,956.21Z"/><path class="cls-4" d="M440.72,949.66c25.09-6.69,126.93-31.33,152.24-36,.2,0,.24.1,0,.16-24.73,7.18-126.76,31-152.18,36.31C440.28,950.19,440.19,949.8,440.72,949.66Z"/><path class="cls-4" d="M448.44,925.65A20.86,20.86,0,0,1,465,928.18c4,2.67,7.8,6.84,8.89,12.12,0,.15-.25.22-.31.07-3.82-9.53-14.89-16-25.09-14.4A.16.16,0,0,1,448.44,925.65Z"/><path class="cls-4" d="M487.06,892.54c10.07-2.58,22.64-1.83,30.91,4.92.32.26-.06.71-.39.63a143.44,143.44,0,0,0-30.39-4.27A.65.65,0,0,1,487.06,892.54Z"/><path class="cls-4" d="M480,897.45c10.07-2.57,22.64-1.82,30.9,4.93.32.26,0,.71-.39.63a143.44,143.44,0,0,0-30.39-4.27A.66.66,0,0,1,480,897.45Z"/><path class="cls-4" d="M472.93,902.37c10.07-2.57,22.64-1.82,30.91,4.93.32.26-.06.71-.4.63a143.35,143.35,0,0,0-30.39-4.27A.66.66,0,0,1,472.93,902.37Z"/><path class="cls-4" d="M465.86,907.29c10.07-2.57,22.64-1.83,30.91,4.92.32.27-.06.72-.39.63A144.17,144.17,0,0,0,466,908.58.66.66,0,0,1,465.86,907.29Z"/><path class="cls-4" d="M580.76,891.19c11.34-2.7,15.55,14.92,4.19,17.63S569.39,893.89,580.76,891.19Z"/><path class="cls-4" d="M474,882.82c7.14,5.72,16.51,8.15,24.91,11.39.87.34,1.57-.47,1.62-1.25a.27.27,0,0,0,.24-.36A54.43,54.43,0,0,0,485.4,869c-4.21-3.64-11.65-6.24-15.74-.76C465.78,873.38,469.86,879.48,474,882.82Zm-2.49-8.26c-1.64-11.23,10.31-5.17,13.31-2.36a57.56,57.56,0,0,1,5.33,5.92c3.48,4.29,6.28,9,9.3,13.6-4-1.85-8.17-3.33-12.26-5C482.35,884.67,472.45,880.76,471.54,874.56Z"/><path class="cls-4" d="M535.13,877.52c-2.38-6.41-10.25-6-15.32-3.72a54.44,54.44,0,0,0-21.45,18.31.27.27,0,0,0,.13.42,1.27,1.27,0,0,0,1.2,1.66c9-.74,18.64-.42,27.11-3.89C531.75,888.27,537.38,883.57,535.13,877.52Zm-22.08,12.77c-4.4.47-8.79.72-13.18,1.35,4.2-3.56,8.22-7.28,12.76-10.41a57.83,57.83,0,0,1,6.79-4.18c3.67-1.85,16.85-4.28,12.1,6C528.9,888.76,518.3,889.72,513.05,890.29Z"/><path class="cls-3" d="M486,879,589.6,851.24S498.6,662.51,506,652.12c3.67-5.19,100.73-9.57,130.83-36.68,39.1-35.23,10.64-86.43,10.64-86.43H538.89s2,22.64-2.15,26.19c-2.72,2.36-131.61,17.07-144.5,61.1C376.43,670.28,486,879,486,879Z"/><path class="cls-4" d="M484.23,863.78a64.5,64.5,0,0,1,8.5-3.21c3-1,6-2.09,9-3.08,6-2,11.92-3.81,17.94-5.54,12.11-3.5,24.24-6.92,36.44-10.09,6.36-1.65,20-5.26,20.84-5.13.41.06.5.74.14.87-11.79,4.29-23.76,8-35.72,11.69s-23.93,7.38-36,10.5c-3.36.87-6.74,1.64-10.1,2.46-3.53.87-7.09,2-10.73,2.36C484.19,864.64,483.85,864,484.23,863.78Z"/><path class="cls-4" d="M487.13,643.69c2.13-1.93,5.39-2.26,8.11-2.8q23.37-4.62,46.72-9.27c14.58-2.89,29.24-5.52,43.73-8.77,12-2.69,24.19-6.2,34.44-13.06a50.5,50.5,0,0,0,20.49-28.56c3.31-11.62,3.2-24,1.7-35.87-.37-2.91-1-5.8-1.62-8.66-.05-.22.3-.31.35-.09,4.63,22.12,5.75,47.92-10.38,66.14-7.86,8.88-18.87,14.29-30.15,17.92-12.73,4.09-26.1,6.24-39.21,8.84q-23.35,4.63-46.73,9.24c-7.49,1.48-15.12,2.69-22.54,4.47a7.76,7.76,0,0,0-4,1.93c-1.37,1.54-.92,3.65-.49,5.45.86,3.67,2,7.29,3.13,10.88,9.41,28.94,75.45,166,77.23,169.18.19.33-.33.61-.52.28-15.13-25.19-64.34-131-74.64-158.35a174.18,174.18,0,0,1-6.8-21.31C485.3,648.66,484.9,645.71,487.13,643.69Z"/><path class="cls-4" d="M453.31,812.5l68.54-110.25c-11-26.54-18.18-46.91-15.9-50.12,1.79-2.52,25.61-4.87,53.09-9.71L629.54,529H538.89s2,22.64-2.15,26.19c-2.72,2.37-131.6,17.06-144.51,61.09C382.23,650.45,422.43,746.51,453.31,812.5Z"/><path class="cls-9" d="M285.58,966.68c5.31,1.61,159.9-3.55,165.52-7.39.68-.41.5-14.4,0-33.54v-.38c-.31-12.13.33-115.85.33-115.85L354.6,811.6l-3,102.2S331,923.13,313,932.33c0,0,0,0,0,0C301.94,938,292.34,943.14,290.15,945,284.47,949.83,280.27,965.1,285.58,966.68Z"/><path class="cls-2" d="M285.58,966.67c5.31,1.61,159.9-3.54,165.53-7.39.67-.4.49-14.4-.05-33.53v-.37c0-.85,0-1.71,0-2.57,0-.62,0-1.24,0-1.86,0-.91,0-1.84,0-2.77,0-8.06,0-21.15,0-35.5L352.43,885l-.84,28.83S331,923.14,313,932.33c0,0-.05,0-.05,0C301.94,938,292.33,943.14,290.16,945,284.48,949.83,280.26,965.1,285.58,966.67Z"/><path class="cls-1" d="M285,967.28c5.47,1.61,160.24-3.93,166-7.87,2.2-1.49,3.66-25.43.6-51.75l-99.78,3.7s-56.38,28.58-62.25,33.58S279.48,965.66,285,967.28Z"/><path class="cls-4" d="M287,961c25.93-1.57,130.63-5.44,156.37-5,.21,0,.21.15,0,.16-25.66,2.12-130.39,5.14-156.36,5.28C286.42,961.44,286.41,961,287,961Z"/><path class="cls-4" d="M299.3,939a20.81,20.81,0,0,1,15.75,5.78c3.35,3.4,6.28,8.25,6.29,13.64,0,.15-.28.17-.31,0-1.85-10.1-11.4-18.69-21.72-19.11A.16.16,0,0,1,299.3,939Z"/><path class="cls-4" d="M343.74,914.25c10.38-.52,22.55,2.72,29.31,11,.26.32-.2.69-.51.54a143.37,143.37,0,0,0-28.93-10.23A.66.66,0,0,1,343.74,914.25Z"/><path class="cls-4" d="M335.84,917.66c10.38-.51,22.55,2.72,29.31,11,.26.32-.2.69-.51.54A143.8,143.8,0,0,0,335.71,919,.66.66,0,0,1,335.84,917.66Z"/><path class="cls-4" d="M327.93,921.08c10.38-.52,22.55,2.71,29.31,11,.26.32-.2.68-.51.53a144,144,0,0,0-28.93-10.23A.65.65,0,0,1,327.93,921.08Z"/><path class="cls-4" d="M320,924.49c10.38-.52,22.55,2.72,29.31,11,.26.32-.2.69-.51.54a143.62,143.62,0,0,0-28.93-10.24A.65.65,0,0,1,320,924.49Z"/><path class="cls-4" d="M435.83,931.58c11.65-.38,12.27,17.73.59,18.11S424.16,932,435.83,931.58Z"/><path class="cls-4" d="M332.9,902.13c5.86,7,14.57,11.28,22.14,16.13a1.27,1.27,0,0,0,1.84-.91.27.27,0,0,0,.31-.31,54.49,54.49,0,0,0-10.38-26.21c-3.41-4.41-10.18-8.43-15.28-3.89C326.7,891.24,329.48,898,332.9,902.13Zm-.79-8.58c.63-11.34,11.13-3,13.51.33a58.38,58.38,0,0,1,4.05,6.87c2.55,4.9,4.36,10.07,6.4,15.17-3.57-2.61-7.34-4.89-11-7.36C340.69,905.61,331.77,899.8,332.11,893.55Z"/><path class="cls-4" d="M393.83,909.1c-1.05-6.75-8.84-7.94-14.27-6.69a54.49,54.49,0,0,0-24.66,13.67.28.28,0,0,0,0,.44,1.27,1.27,0,0,0,.85,1.86c8.93,1.06,18.35,3.3,27.34,1.59C388.38,919,394.83,915.49,393.83,909.1Zm-24.17,8.12c-4.41-.42-8.77-1-13.19-1.29a160.64,160.64,0,0,1,14.58-7.67,57.39,57.39,0,0,1,7.49-2.74c4-1.08,17.36-.85,10.65,8.31C385.49,918.89,374.91,917.71,369.66,917.22Z"/><path class="cls-3" d="M345.78,899.34l109.14-3.21s-6.91-186,1.31-197.2C467.2,684,626.77,679.6,659.58,631c29.47-43.63,1.73-103.3,1.73-103.3H540.37a249.55,249.55,0,0,0,12.33,37.72s-144.76,31.19-184.21,77C341.86,673.44,345.78,899.34,345.78,899.34Z"/><path class="cls-4" d="M531.2,557.79a57.59,57.59,0,0,1,10.34,3c3.51,1.22,7,2.62,10.36,4.15a203.23,203.23,0,0,1,19.43,10.24c.2.12,0,.39-.18.3-6.63-3.21-13.48-6.06-20.33-8.77l-9.88-3.92a106.42,106.42,0,0,1-10-4.07C530.52,558.48,530.72,557.72,531.2,557.79Z"/><path class="cls-4" d="M537.56,527.75c1.55,5.47,2.93,11,4.67,16.41.79,2.49,1.58,5,2.6,7.42.86,2,2.15,4.34,4.54,4.73,2.75.45,3.46-1.92,3.17-4.18-.32-2.51-1-5-1.61-7.49-.66-2.85-1.33-5.69-1.93-8.55-.31-1.43-.62-2.86-.91-4.29-.07-.36-.42-3.11-.64-3.89,0,.06-.06.13-.15.12h-.09a.21.21,0,0,1-.18-.14.37.37,0,0,1,.13-.42.23.23,0,0,1,.25,0c.53.27.59,1,.78,1.51.48,1.38,1,2.76,1.43,4.16.84,2.61,1.66,5.23,2.41,7.86s1.48,5.28,2.21,7.92c.55,2,1.19,4.05.71,6.11a4.68,4.68,0,0,1-4.22,3.66,5.54,5.54,0,0,1,.3.53c.26.53.46,1.11.68,1.66s.43,1.13.61,1.71a4.86,4.86,0,0,1,.19.84c0,.32,0,.64,0,1,.07.49-.59.81-.85.33-.15-.28-.37-.49-.54-.76a4.41,4.41,0,0,1-.42-.91c-.21-.54-.38-1.09-.54-1.65s-.34-1.11-.46-1.67a8.89,8.89,0,0,1-.13-1,6.33,6.33,0,0,1-3.22-1.11,10.77,10.77,0,0,1-3.45-4.94c-.9-2.27-1.61-4.63-2.33-7a104,104,0,0,1-4-17.67A.51.51,0,0,1,537.56,527.75Z"/><path class="cls-4" d="M609.82,539.11c.58,2.72,1,5.48,1.69,8.17s1.5,5.27,2.45,7.83a28.09,28.09,0,0,0,3.57,7,26.94,26.94,0,0,0,5.52,5.3,45.87,45.87,0,0,0,13.17,6.83,60,60,0,0,0,7.26,1.89c1.28.25,2.57.43,3.86.56a8,8,0,0,1,3.12.62.63.63,0,0,1,0,1.08c-1.63.86-4,.48-5.73.35a42.59,42.59,0,0,1-6.15-.89,44.39,44.39,0,0,1-11.71-4.54,36.49,36.49,0,0,1-9.91-7.62,27.6,27.6,0,0,1-5.51-11.18,56.21,56.21,0,0,1-2.14-15.35A.27.27,0,0,1,609.82,539.11Z"/><path class="cls-4" d="M435.48,770.92q.84-25.78,2.75-51.52c.31-4.23.61-8.46,1-12.69a39.74,39.74,0,0,1,1.84-9.67c2.32-6.51,7.58-9.91,14-11.74,7.58-2.16,15.45-3.54,23.17-5,7.91-1.53,15.83-2.92,23.77-4.26,16.06-2.73,32.16-5.29,48.15-8.47a385.87,385.87,0,0,0,47.13-12.09c14.15-4.74,28.63-10.5,39.76-20.75,24-22.05,23.79-57.8,19.9-87.6-.55-4.2-1.19-8.4-1.83-12.59,0-.22.31-.31.34-.09,2.45,16.77,5.21,33.64,4,50.65-1,13.9-4.59,27.93-12.27,39.69-8,12.19-20.08,20.27-33.23,26-14.37,6.31-29.63,10.73-44.87,14.4-31.69,7.62-64.14,11.42-96.07,17.87q-5.91,1.18-11.78,2.51c-3.59.82-7.28,1.57-10.61,3.19-7.19,3.47-9,10.63-9.67,18-1.59,17.08-2.5,34.26-3.23,51.4-1.45,34.55-1.74,69.25-.65,103.82.13,4.26.29,8.53.45,12.79,0,.38-.56.36-.58,0C434.91,840.17,434.34,805.55,435.48,770.92Z"/><path class="cls-4" d="M350.49,886.07a65.37,65.37,0,0,1,9-1c3.17-.27,6.34-.55,9.52-.77,6.24-.43,12.49-.78,18.75-1,12.6-.42,25.2-.77,37.81-.85,6.57,0,20.66-.21,21.46.12.38.16.3.84-.08.88-12.48,1.27-25,1.91-37.5,2.59s-25,1.3-37.52,1.36c-3.46,0-6.92-.06-10.39-.08-3.63,0-7.36.21-11-.34C350.25,886.89,350.08,886.16,350.49,886.07Z"/><path class="cls-9" d="M543,425.76c-10.92,46.67-13.78,80.47-27,89.17-10.69,7-25.7,12-41.13,15.4-18.11,4-36.88,6.06-50,7.15-5.17.43-9.49.7-12.54.92-7.57.48-20-49.5-14.61-55.59,1.24-1.39,6.23-2.47,13.22-3.36,23.56-3,69.94-3.65,72.71-6.28s22.17-34.53,39.1-64.34C538.92,380.3,550,396.1,543,425.76Z"/><path class="cls-9" d="M427.48,533.36c-1,.43-14.31,6.23-22.51,8.29-6.12,1.53-23.86,5.47-26.22-1.1-1.61-4.48,8.55-8,15.68-10.69,3.75-1.41,8.45-5.11,7.45-7.53-1.75-4.23-11.43-.4-17.82,3-12.37,6.59-29,18.66-36.13,12.25-2.71-2.43.69-6.54,5.6-10.51-7.89,4.55-16.25,8.21-19.37,5.63-1.78-1.46-1.8-3.39-.69-5.54-2.41.68-4.51.46-5.92-1.15-2.4-2.71-1-6.53,1.85-10.4a3,3,0,0,1-2.22-1.58c-5-8.28,22.39-30.52,31.65-32.35,27.25-5.43,55.9-2,55.9-2C425,488.52,427.5,533.34,427.48,533.36Z"/><path class="cls-4" d="M388.69,506.71A44.13,44.13,0,0,0,370.41,513c-6.46,4.1-11.69,9.83-17.69,14.51-.16.12,0,.38.21.24,2.83-2.43,5.92-4.58,8.85-6.9s5.67-4.63,8.68-6.69a43.75,43.75,0,0,1,18.25-7.32C388.78,506.81,388.76,506.7,388.69,506.71Z"/><path class="cls-4" d="M384.08,495.06c-7.17,1.68-14.52,3.38-21.23,6.49-7.35,3.41-13.21,9.19-19,14.75q-5.19,5-10.16,10.25c-.14.14.06.39.21.24q8.77-8.61,18.06-16.7a57.94,57.94,0,0,1,19.56-11.35c4.12-1.39,8.34-2.47,12.55-3.55A.07.07,0,0,0,384.08,495.06Z"/><path class="cls-4" d="M376.86,484.76c-6.95,1.16-13,2.15-19.25,5.62-8.27,4.6-16.38,12.55-19.23,15.38-3.14,3.11-6.18,6.33-9.17,9.6-.12.13.11.35.24.22a226.37,226.37,0,0,1,21.81-20.07,45.73,45.73,0,0,1,12-7.21,82.15,82.15,0,0,1,13.57-3.49A0,0,0,0,0,376.86,484.76Z"/><path class="cls-1" d="M437.12,539.39l-21.86-61.72s63.18-2.65,67.24-5.28,24.94-41,40.77-66.73c12.43-20.24,27.85-18.78,20.8,22-7.43,43-13.64,76.77-24.4,86.64C501.52,530.92,437.12,539.39,437.12,539.39Z"/><g class="cls-10"><path d="M534.26,393.93l6.73-.13C539.11,392.56,536.79,392.67,534.26,393.93Z"/><path d="M521.36,408.78l24.46-.44a38.23,38.23,0,0,0-.73-6.95l-19.17.33c-.91,1.2-1.79,2.52-2.66,3.94Z"/><path d="M512.57,423.57,544.8,423c.36-2.5.6-4.82.78-7l-28.87.53Z"/><path d="M503.94,438.36l38.38-.71c.4-2.3.82-4.63,1.24-7l-35.51.65C506.66,433.69,505.29,436,503.94,438.36Z"/><path d="M495.28,453.12l44.41-.82c.42-2.28.84-4.62,1.28-7l-41.55.77C498,448.54,496.61,450.89,495.28,453.12Z"/><path d="M486.14,467.91l50.69-.93c.47-2.28.93-4.6,1.4-7l-47.6.87C488.93,463.64,487.4,466,486.14,467.91Z"/><path d="M415.25,477.67l2.17,6.11,116.11-2.12q.84-3.39,1.66-7l-93.9,1.71h0C427.34,477.16,415.25,477.67,415.25,477.67Z"/><path d="M420.13,491.4l2.43,6.9,106.79-1.94c.73-2.17,1.46-4.52,2.17-7Z"/><path d="M425.26,505.92l2.46,6.93,94.7-1.73a41.24,41.24,0,0,0,3.92-7.06Z"/><path d="M430.42,520.44l2.43,6.93,63.49-1.17a97.84,97.84,0,0,0,16.78-7.29Z"/><path d="M435.55,535l1.58,4.43s12.66-1.68,28.35-5Z"/></g><path class="cls-4" d="M438.33,507.21q-2.62-7.26-5.07-14.58c-1.68-5-3-10.22-4.81-15.2-.07-.21.27-.29.34-.08,1.75,5,4,9.79,5.95,14.71s3.63,9.6,5.37,14.44C443.6,516.24,447.17,526,450,536c.08.29-.39.49-.52.2C445.32,526.74,441.83,516.92,438.33,507.21Z"/><path class="cls-4" d="M487.44,529c13.29-3.83,25.73-8.77,32.24-14.72,10.75-9.88,17-43.68,24.39-86.65,5.65-32.61-3.12-40.05-13.22-31.35Z"/><path class="cls-1" d="M527.32,555.15c3.74,2.77,147.36-1.25,147.94-2.3C676.8,550,632.7,420.42,569.9,382.07c-11.07-6.76-27.3-1.15-34.2,4.71-3.45,2.93-13,24.58-13.73,42S525,553.37,527.32,555.15Z"/><g class="cls-10"><path d="M531.3,394l53.41-1c-2.81-2.46-5.69-4.74-8.58-6.82l-40.58.73C534.51,387.93,533,390.47,531.3,394Z"/><path d="M525.7,408.72l73.49-1.35q-3.15-3.56-6.46-6.85l-64.66,1.18C527.22,403.91,526.43,406.28,525.7,408.72Z"/><path d="M522.44,423.39l88.6-1.61q-2.67-3.52-5.41-6.89l-82,1.51C523.17,418.72,522.75,421.07,522.44,423.39Z"/><path d="M521.89,438l99.33-1.79c-1.53-2.32-3.1-4.63-4.69-6.88L521.89,431C521.87,432.89,521.87,435.24,521.89,438Z"/><path d="M522,445.66q0,3.29.11,7l108.23-2c-1.38-2.33-2.77-4.63-4.21-6.91Z"/><path d="M522.27,460.27c.06,2.26.13,4.59.19,7l116.11-2.13c-1.26-2.3-2.52-4.6-3.85-6.91Z"/><path d="M522.71,474.88c0,2.31.13,4.63.2,7l123.21-2.24q-1.7-3.42-3.5-6.91Z"/><path d="M523.17,489.49l.27,7,129.68-2.37c-1.06-2.26-2.15-4.58-3.26-6.91Z"/><path d="M523.75,504.1c.09,2.37.18,4.7.29,7l135.54-2.48c-1-2.26-2-4.56-3-6.91Z"/><path d="M524.39,518.71c.11,2.4.22,4.72.35,7l140.77-2.55c-.86-2.21-1.79-4.54-2.76-6.93Z"/><path d="M525.17,533.33c.13,2.47.28,4.82.44,7l145.31-2.68c-.76-2.13-1.6-4.45-2.51-6.93Z"/><path d="M526.18,547.94a39.54,39.54,0,0,0,1,6.95l148.12-2.73a59.35,59.35,0,0,0-1.84-6.93Z"/></g><path class="cls-1" d="M523,337.47c0,8.63-6.13,15.62-13.7,15.62s-13.7-7-13.7-15.62,6.13-15.62,13.7-15.62S523,328.84,523,337.47Z"/><ellipse class="cls-7" cx="512.15" cy="338.01" rx="15.24" ry="17.38"/><path class="cls-9" d="M538.65,407.78c8.31,1.46,21.66-11.87,26.64-22.34.34-.71-4.15-28.39-4.47-34-.06-1.15-34.48,10.5-34.48,10.5s4.11,11.49,4.6,21.21C531,384,530.62,406.35,538.65,407.78Z"/><path class="cls-4" d="M530.83,385.49c0,.11,0,.24,0,.37H531a19.62,19.62,0,0,0,3.43,0c19-1.52,24.07-25.25,25.33-34.35-5.87,1.15-33.41,10.47-33.41,10.47s4.12,11.49,4.61,21.21c0,.26,0,.53,0,.77A9.47,9.47,0,0,1,530.83,385.49Z"/><path class="cls-9" d="M555.74,307.54c6.41,11.29,7.86,47.73,1,57.47-10,14.12-30.17,19.79-43.15,6.93-12.59-12.47-13.64-60-5.6-69.26C519.82,289.06,546.26,290.86,555.74,307.54Z"/><path class="cls-11" d="M557.53,364.48s0,0,0,0"/><path class="cls-4" d="M525.72,336.53c0-.09.2.11.2.21,0,2.46.48,5.27,2.74,6,.07,0,.07.15,0,.14C525.92,342.6,525.36,338.87,525.72,336.53Z"/><path class="cls-4" d="M527.8,333.87c3.93-.48,4.6,7.43,1,7.87S524.5,334.27,527.8,333.87Z"/><path class="cls-4" d="M512.23,338c0-.1-.18.13-.17.23.29,2.44.2,5.28-1.95,6.28-.06,0-.05.15,0,.14C512.81,344.08,512.89,340.3,512.23,338Z"/><path class="cls-4" d="M509.83,335.66c-4,0-3.61,8,.07,7.93S513.15,335.63,509.83,335.66Z"/><path class="cls-4" d="M530.61,330a29.22,29.22,0,0,1-3.15-.83c-1.2-.32-2.2-.46-3.05-1.45a1.67,1.67,0,0,1,.1-2c1.1-1.15,2.67-1.11,4.14-.78a6.12,6.12,0,0,1,3.73,2.34A1.8,1.8,0,0,1,530.61,330Z"/><path class="cls-4" d="M506.44,331.94a30.19,30.19,0,0,0,3.07-1.08c1.18-.43,2.16-.65,2.93-1.7a1.68,1.68,0,0,0-.27-2c-1.19-1.05-2.76-.89-4.19-.43a6,6,0,0,0-3.52,2.64A1.79,1.79,0,0,0,506.44,331.94Z"/><path class="cls-4" d="M530.54,359c-.54.62-1.06,1.46-1.94,1.61a6.51,6.51,0,0,1-2.68-.4.09.09,0,0,0-.1.14,3.31,3.31,0,0,0,3.22,1.06,2.62,2.62,0,0,0,1.75-2.32C530.81,358.92,530.62,358.89,530.54,359Z"/><path class="cls-4" d="M527.35,351.86A8.38,8.38,0,0,1,522.1,356a10.36,10.36,0,0,1-3,.39,3.58,3.58,0,0,1-.57,0,5.28,5.28,0,0,1-.55,0,.59.59,0,0,1-.53-.5v0a1,1,0,0,1,0-.25v-.24c-.21-1.88-.27-4.76-.27-4.76-.66.4-4,2.28-4.06,1.29-.2-8.2-.42-17.31,1.11-25.5a.23.23,0,0,1,.46,0c.5,7.87-.39,15.77,0,23.68a14.66,14.66,0,0,1,3.83-1.52c.28.05,0,5.57.18,6.41a.32.32,0,0,0,0,.09c3.2.13,5.51-1,8.41-3.41C527.28,351.51,527.48,351.66,527.35,351.86Z"/><path class="cls-4" d="M520.15,355.38a10,10,0,0,0,4.21,2.74,4.52,4.52,0,0,0,2.72-.06c1.91-.68,1.81-2.48,1.32-4a11,11,0,0,0-1.07-2.28A12.87,12.87,0,0,1,520.15,355.38Z"/><path class="cls-12" d="M524.36,358.12a4.52,4.52,0,0,0,2.72-.06c1.91-.68,1.81-2.48,1.32-4C526.32,354.47,524.37,356.06,524.36,358.12Z"/><path class="cls-4" d="M558.16,334.43c-8.45.06-10.25-15.27-10.25-15.27s-14.54-2.23-16.77-13.14c0,0-13.69,8.94-24.56,5.12s-9.51-17.31-8.31-19.93c2.77-6,11.85,1.58,11.85,1.58s13.57-8.4,29.08-7c12.62,1.12,19.07,12.94,19.07,12.94s6.79,1.37,9,6.09S563.55,334.4,558.16,334.43Z"/><path class="cls-4" d="M551.33,319.23c-11.22,1.6-18.74-5.78-20.48-16.52a.11.11,0,1,0-.21,0c.42,10,9.89,21.09,20.8,17A.25.25,0,0,0,551.33,319.23Z"/><path class="cls-4" d="M558,298.51a.12.12,0,0,0-.08.22c3.16,1.42,6.77,2.48,9,5.32,2.7,3.43,2.18,8,1.22,11.92-1.48,6.11-4.54,14.06-10,17.69-.31.21,0,.67.33.47,6.5-3.91,10.19-14.22,11-21.4C570.45,304.68,565.41,300.16,558,298.51Z"/><path class="cls-4" d="M518.86,309.06c-4.9,3.26-12.24,3.42-17.15-.25-6-4.48-4.85-11.9-2.4-18.08.13-.31-.28-.63-.47-.34-3.41,5.45-3.56,13.71,1.35,18.37,5.08,4.81,13.75,4.62,19.15,1C519.79,309.5,519.31,308.76,518.86,309.06Z"/><path class="cls-3" d="M529.75,347.58a10.53,10.53,0,0,1-10.09-10.92h0a10.52,10.52,0,1,1,12.69,10.7A10.16,10.16,0,0,1,529.75,347.58Zm-8.68-10.87a9.11,9.11,0,1,0,9.46-8.73,8.39,8.39,0,0,0-2.25.19A9.11,9.11,0,0,0,521.07,336.71Z"/><path class="cls-3" d="M507.63,349.57c-4.29.39-8.23-4-8.76-9.75a12.58,12.58,0,0,1,1.53-7.53,6.56,6.56,0,0,1,11.17-1,12.58,12.58,0,0,1,2.89,7.12c.5,5.46-2.21,10.25-6.15,11.08A5.07,5.07,0,0,1,507.63,349.57Zm-6-16.56a11.19,11.19,0,0,0-1.34,6.68c.46,5,3.71,8.8,7.23,8.48s6-4.66,5.56-9.67a11.11,11.11,0,0,0-2.55-6.31,5.58,5.58,0,0,0-4.69-2.16,3.23,3.23,0,0,0-.53.08A5.8,5.8,0,0,0,501.61,333Z"/><path class="cls-3" d="M520.13,337.84l.8-1.16c-1.71-1.19-5.55-2.64-7.86.33l1.12.86C516.24,335.21,520,337.73,520.13,337.84Z"/><path class="cls-3" d="M567,336.21l1.18-.76c-.35-.55-3.54-5.4-6.72-5.62-3-.19-21.56,3.3-22.35,3.45l.26,1.38c5.33-1,19.71-3.58,22-3.42C563.49,331.38,566.17,334.87,567,336.21Z"/><path class="cls-9" d="M554.65,337.75s5.64-13,11.38-11.2,3.1,19.48-2.5,23a6.28,6.28,0,0,1-8.92-1.64Z"/><path class="cls-4" d="M565.15,331.6c.09,0,.14.11.06.16-3.9,2.58-5.33,7-6.07,11.38,1-1.83,2.49-3,4.9-2,.13.06.06.25-.07.25a3.87,3.87,0,0,0-3.9,2.17,19.21,19.21,0,0,0-1.31,3.78c-.12.42-.85.36-.79-.11,0,0,0-.07,0-.1C556.78,341.76,559.44,333.33,565.15,331.6Z"/><path class="cls-7" d="M562.88,328.32s1.07-18.85-4.55-29.18c-6.26-11.5-30.94-18.95-48.21-6.35,0,0,27.41-8.65,40.77,7.26,5.63,6.7,5.71,28.83,5.71,28.83Z"/><ellipse class="cls-7" cx="560.58" cy="338.01" rx="15.24" ry="17.38"/><path class="cls-1" d="M549.78,337.47c0,8.63,6.13,15.62,13.7,15.62s13.7-7,13.7-15.62-6.13-15.62-13.7-15.62S549.78,328.84,549.78,337.47Z"/><path class="cls-4" d="M325.39,455.43c-1.18,1.44-2.11,3-1.46,3.57l0,0c.69.53,2-.68,3.23-2.12Z"/><path class="cls-3" d="M325.92,439.89c-1.23,1.5-1.42,12.13-.91,16a1.94,1.94,0,0,0,1.76,1.49c3.85-.24,14.32-2.47,15.56-4,.84-1,2.75-5.59,5.06-10.08,3-5.87,53.48-70.46,53.67-71.47s-1.46-2.67-2.45-3.49-3-2.12-3.92-1.75S340,428.94,334.84,433C330.88,436.11,326.76,438.87,325.92,439.89Z"/><path class="cls-5" d="M325.91,439.9a1.46,1.46,0,0,0-.26.56,50.9,50.9,0,0,0,8,8.44,33.1,33.1,0,0,0,7.94,5,1.69,1.69,0,0,0,.7-.47,5.42,5.42,0,0,0,.48-.73c-2.7-1.06-9.32-4.38-16.18-13.44A4.85,4.85,0,0,0,325.91,439.9Z"/><rect class="cls-4" x="346.21" y="415.92" width="4.38" height="26.79" rx="0.73" transform="translate(344.47 982.2) rotate(-140.53)"/><rect class="cls-5" x="344.76" y="423.68" width="2.55" height="17.01" rx="0.43" transform="translate(338.41 985.77) rotate(-140.53)"/><rect class="cls-4" x="344.06" y="432.85" width="0.75" height="2.55" transform="translate(-209.64 424.13) rotate(-50.54)"/><path class="cls-9" d="M584.9,416.48c-13.7,38.36-41.42,77.38-64.48,81.18-22.87,3.76-82.36-21.84-100.51-30.47-7-3.32,16.46-63.4,23.91-59.78,12.65,6.13,67.49,37.58,71.91,36.38,2.77-.75,27-19.09,47.32-38.25C589.52,380.62,589.15,404.57,584.9,416.48Z"/><path class="cls-9" d="M344.28,396.75c-1,7.67,18.13,8.48,18.13,8.48a14.28,14.28,0,0,0-6.71,7c-2.12,5.48,5.55,11.2,5.55,11.2a17.61,17.61,0,0,0-5.9,8.52c-1.5,5.45,5.41,12.34,5.41,12.34a15.43,15.43,0,0,0-.47,10.75c3.43,9.3,18.24,12.38,27.64,14.44s38-.92,43.47-.93l13.71-60.18s-39.51-21.21-50.9-22.06C384.62,385.61,345.77,385,344.28,396.75Z"/><path class="cls-4" d="M362.6,405c10.38-1.69,21.15-.89,31.53,0a.18.18,0,0,1,0,.36c-10.31-1-21.14.73-31.48.14A.25.25,0,0,1,362.6,405Z"/><path class="cls-4" d="M361.62,422.7a27.29,27.29,0,0,1,7.15.48c2.52.34,5,.73,7.54,1.15q7.53,1.28,15,2.93c.22.05.2.4,0,.36-5-.84-10-1.61-15-2.23-2.52-.32-5-.61-7.56-.89a32,32,0,0,1-7.1-1.11A.36.36,0,0,1,361.62,422.7Z"/><path class="cls-4" d="M361,444.33c2-.36,4.41.38,6.42.77,2.28.43,4.56.86,6.84,1.27,4.56.82,9.13,1.63,13.72,2.29.22,0,.19.39,0,.36-4.67-.64-9.34-1.23-14-1.92q-3.44-.51-6.86-1.05c-1.94-.31-4.41-.47-6.13-1.5C360.82,444.5,360.87,444.34,361,444.33Z"/><path class="cls-1" d="M461.5,413.61l-27.19,65.52s68.18,26.68,89.24,20.42,50.09-48.71,59.53-74,7-46.64-25.21-18.16-41,34.54-43.06,34.18S461.5,413.61,461.5,413.61Z"/><g class="cls-10"><path d="M557,408.14l30.66-.55a26,26,0,0,0,0-7l-21.94.4c-2.39,1.75-5,3.88-7.86,6.4Z"/><path d="M548.14,416c-3,2.62-5.75,5-8.25,7.11l44.38-.8c.8-2.41,1.48-4.76,2.06-7Z"/><path d="M456.94,424.59l24.22-.44-12.62-6.76-8.68.16Z"/><path d="M530.57,430.87c-3.9,3.19-6.89,5.52-9.17,7.15l56.67-1c1.2-2.43,2.31-4.78,3.26-7Z"/><path d="M450.83,439.31l57.11-1c-3.49-1.79-8-4.19-12.88-6.75l-41.31.75Z"/><path d="M444.72,454.05l125.16-2.28c1.46-2.37,2.84-4.74,4.14-7.06L447.64,447Z"/><path d="M438.61,468.77,560,466.56c1.7-2.3,3.34-4.67,4.94-7.06l-123.42,2.26Z"/><path d="M434.31,479.13s4.34,1.71,11.18,4.14l102.45-1.86c2.06-2.23,4.1-4.6,6.11-7.08l-118.63,2.15Z"/><path d="M467.19,490.51c7.72,2.39,16,4.74,24,6.55l39.42-.73a63,63,0,0,0,9.5-7.15Z"/></g><path class="cls-4" d="M435,479.1c10.3,3.79,20.6,7.45,31.14,10.54s37.47,9.84,48.54,10.23c5.15.19,10.16-1.65,14.6-4.21a59.09,59.09,0,0,0,12-9.72c3.76-3.77,7.32-7.73,10.85-11.71,4-4.54,7.9-9.19,11.77-13.87,4-4.9,8.15-9.83,11.87-15,.13-.18.43,0,.3.18-3.25,4.6-6.35,9.28-9.7,13.82-1.37,1.86-2.79,3.69-4.22,5.52.76-.56,1.51-1.14,2.28-1.67,2.89-2,5.85-3.89,8.62-6a.17.17,0,1,1,.2.28c-2.81,2-5.43,4.28-8.08,6.5-1.29,1.09-2.59,2.16-3.94,3.17-.63.48-1.26,1-1.9,1.43l-.25.19c-1,1.23-2,2.46-3,3.67-3.55,4.3-7.17,8.55-10.91,12.69a70.79,70.79,0,0,1-11.58,10.57c-4.17,2.91-8.88,5.48-14,6.06-10.35,1.19-38.21-5.68-49.09-8.8a280.12,280.12,0,0,1-35.94-12.67C434,480,434.28,478.82,435,479.1Z"/><path class="cls-4" d="M505.22,436.68c1.53.71,6.91,4,8.73,4.16s3.36-.84,4.76-1.92,2.94-2.34,4.42-3.48c1.84-1.42,3.7-2.82,5.55-4.22l.27-.39c.27-.39.55-.78.84-1.16.59-.77,1.19-1.52,1.8-2.27,1.18-1.47,2.44-2.88,3.66-4.32.14-.17.38.08.24.25-1.24,1.49-2.36,3.05-3.48,4.63-.37.51-.73,1-1.09,1.55l.89-.67c1.46-1.09,6.08-4.45,8.92-6.75a.18.18,0,1,1,.21.28c-2.6,2-8.34,7-9.93,8.38-3.09,2.65-6.22,5.26-9.4,7.8-2.41,1.93-5,4.45-8.35,3.62-1.62-.41-6.93-3.87-8.38-5.08C504.63,436.88,505,436.56,505.22,436.68Z"/><path class="cls-4" d="M458.36,451.14q2.83-7.17,5.85-14.28c2.08-4.88,4.55-9.63,6.48-14.57.08-.2.38,0,.3.16-2,4.89-3.45,10-5.29,15s-3.64,9.6-5.54,14.36c-3.83,9.61-7.65,19.32-12.13,28.64-.14.28-.62.11-.52-.19C450.66,470.4,454.54,460.74,458.36,451.14Z"/><rect class="cls-3" x="57.72" y="529.63" width="793.7" height="28.23" transform="translate(909.14 1087.48) rotate(-180)"/><rect class="cls-3" x="57.72" y="546.84" width="793.7" height="11.02" transform="translate(909.14 1104.69) rotate(-180)"/><polygon class="cls-3" points="822.95 953.89 834.36 953.89 801.15 557.85 772.03 557.85 822.95 953.89"/><polygon class="cls-4" points="772.04 557.86 775.45 584.36 803.37 584.36 801.15 557.86 772.04 557.86"/><polygon class="cls-3" points="86.19 953.89 74.78 953.89 107.99 557.85 137.1 557.85 86.19 953.89"/><polygon class="cls-4" points="137.1 557.86 133.69 584.36 105.78 584.36 107.99 557.86 137.1 557.86"/><polygon class="cls-4" points="187.14 529.63 384.28 529.63 336.4 398.07 139.26 398.07 187.14 529.63"/><polygon class="cls-3" points="180.16 529.63 377.3 529.63 329.41 398.07 132.27 398.07 180.16 529.63"/><polygon class="cls-4" points="132.26 398.08 180.16 529.64 259.9 529.64 150.72 398.08 132.26 398.08"/><polygon class="cls-3" points="145.03 529.63 169.02 529.63 190.56 492.33 166.56 492.33 145.03 529.63"/><polygon class="cls-3" points="190.56 492.33 190.56 529.64 169.02 529.64 190.56 492.33"/><polygon class="cls-3" points="279.61 529.63 303.61 529.63 325.14 492.33 301.15 492.33 279.61 529.63"/><polygon class="cls-4" points="325.14 492.33 325.14 529.64 303.61 529.64 325.14 492.33"/><polygon class="cls-4" points="797.1 516.03 801.09 515.5 780.58 359.49 706.12 318.63 704.19 322.15 776.86 362.03 797.1 516.03"/><path class="cls-1" d="M784.38,360.76a5.67,5.67,0,1,1-5.66-5.67A5.65,5.65,0,0,1,784.38,360.76Z"/><path class="cls-1" d="M711.62,320.39a5.67,5.67,0,1,1-5.67-5.67A5.67,5.67,0,0,1,711.62,320.39Z"/><polygon class="cls-1" points="667.86 325.57 694.49 355.3 706.78 340.12 714.27 330.86 694.3 308.6 684.29 315.03 667.86 325.57"/><polygon class="cls-13" points="667.86 325.57 694.49 355.3 706.78 340.12 684.29 315.03 667.86 325.57"/><polygon class="cls-1" points="629.25 340.24 675.69 392.07 706.53 352.73 671.73 313.89 629.25 340.24"/><polygon class="cls-1" points="762.63 529.64 831.34 529.64 827.13 508.05 766.85 508.05 762.63 529.64"/><polygon class="cls-1" points="371.35 470.07 376.25 531.64 410.12 531.64 415.02 470.07 371.35 470.07"/><rect class="cls-3" x="368.44" y="464.51" width="49.79" height="8.98" transform="translate(786.66 938) rotate(-180)"/><polygon class="cls-3" points="371.85 464.51 414.81 464.51 412.3 454.43 374.36 454.43 371.85 464.51"/><path class="cls-14" d="M381.43,501.39c0,8,5.26,14.48,11.76,14.48S405,509.39,405,501.39s-5.27-14.47-11.76-14.47S381.43,493.4,381.43,501.39Z"/></svg>