<svg id="Слой_1" data-name="Слой 1" xmlns="http://www.w3.org/2000/svg" viewBox="0 0 923 1000"><defs><style>.cls-1{fill:#4a148c;}.cls-2{fill:#ed776a;}.cls-3{fill:#ffc800;}.cls-4{fill:#fff;}.cls-5,.cls-9{opacity:0.1;}.cls-6{fill:#306;}.cls-7{fill:none;stroke:#f3a59e;stroke-linecap:round;stroke-linejoin:round;stroke-width:0;}.cls-8{fill:#ececec;}.cls-10{fill:#ffaba1;}.cls-11{opacity:0.06;}</style></defs><path class="cls-1" d="M269.62,215l-3.94,28.16a20.92,20.92,0,0,1-24.19,18.24,21.45,21.45,0,0,1-18.24-24.18l6.3-45c.06-.42.5-.36.56-.8-.38-.48-.38-.48-.32-.92,1.58-11.27,12.94-19.84,24.18-18.26,27.3,3.82,52.42-14.74,56.18-41.59,3.81-27.28-15.31-51.6-42.6-55.42a48.35,48.35,0,0,0-44.91,18,21.55,21.55,0,0,1-30.53,3.67,21.28,21.28,0,0,1-3.29-30,91.67,91.67,0,0,1,84.67-34.08c50.25,7,85.69,53.5,78.66,103.73A91.84,91.84,0,0,1,269.62,215Zm-13.27,94.84-1.09,7.8a20.93,20.93,0,0,1-24.2,18.25,21.45,21.45,0,0,1-18.24-24.19l1.09-7.8a21.75,21.75,0,0,1,24.18-18.24A21.18,21.18,0,0,1,256.35,309.79Z"/><path class="cls-1" d="M59.82,349.74l6.32,22.95A17.53,17.53,0,0,1,53.6,394.75a18,18,0,0,1-22-12.53L21.44,345.5c-.09-.34.27-.44.17-.8-.46-.25-.46-.25-.56-.61-2.53-9.18,3.36-19.53,12.53-22.06C55.82,315.91,69,293.3,62.94,271.42,56.82,249.19,34.05,236.84,11.8,243a40.46,40.46,0,0,0-28.53,28.74,18,18,0,0,1-22.25,13,17.81,17.81,0,0,1-12.5-22A76.72,76.72,0,0,1,2.28,208.38C43.23,197.1,85.9,221.05,97.17,262A76.88,76.88,0,0,1,59.82,349.74ZM81.1,427l1.75,6.35a17.52,17.52,0,0,1-12.53,22.07,18,18,0,0,1-22-12.54l-1.75-6.36a18.18,18.18,0,0,1,12.52-22A17.73,17.73,0,0,1,81.1,427Z"/><path class="cls-1" d="M171.85,453l-.93,17.62a13,13,0,0,1-14,12.57,13.32,13.32,0,0,1-12.58-14l1.5-28.19c0-.27.29-.25.3-.53-.26-.28-.26-.28-.25-.55a13.7,13.7,0,0,1,14-12.59c17.08.91,31.62-11.91,32.51-28.71.9-17.07-12.22-31.09-29.3-32a30,30,0,0,0-26.81,13.53,13.37,13.37,0,0,1-18.68,3.9A13.21,13.21,0,0,1,114,365.74,57,57,0,1,1,171.85,453Zm-3.14,59.35-.25,4.87a13,13,0,0,1-14,12.59,13.33,13.33,0,0,1-12.57-14l.26-4.88a13.49,13.49,0,0,1,14-12.57A13.14,13.14,0,0,1,168.71,512.39Z"/><path class="cls-2" d="M455.24,481.47C564.52,595.65,700.57,834.4,673.82,882c-29.79,53-182-107-181.23-116.25.56-7-51.64-151.52-91.31-256.69S428.21,453.24,455.24,481.47Z"/><path class="cls-3" d="M491.55,765.9c-4.49-15.44-75.6-206.11-95.85-266.37s-.36-78.51,59.22-22.7,189.17,241.22,217.91,339c27.69,94.2-20.59,93.48-83.64,49.29C537.58,829,491.55,765.9,491.55,765.9Z"/><path class="cls-4" d="M390.92,452.15c-.41-.15-.82-.31-1.25-.5a8.07,8.07,0,0,1,.67-1.54c.82.33,1.67.63,2.51.91,6.82,2.19,15.18,2.88,21.16-1.82a13.65,13.65,0,0,0,1.86-1.77l1.65.82C411.41,455.57,399.67,455.35,390.92,452.15Zm47.1,10c-.56-.46-1.12-.89-1.66-1.32-1,.45-1.91.89-2.86,1.3-13.64,6-30.49,12-42.29,22.17.17.67.34,1.37.51,2.06,6.09-5.54,13.56-9.77,20.88-13.21C420.94,469.19,429.67,466,438,462.11Zm15.19,40.63a111.51,111.51,0,0,1,13.34-14.3c-.44-.47-.89-.93-1.33-1.38-12.45,10.85-21.37,27.37-33.22,37.87-6.15,5.48-14.31,11-22.86,13.1.19.57.39,1.13.6,1.69a53.87,53.87,0,0,0,16.48-7.94C437.4,524.07,444.78,513.13,453.21,502.74Zm61.52,42.87c-18,24.45-50.7,30.32-79.37,34.65-3.46.52-6.93,1.09-10.39,1.78.23.63.45,1.28.69,1.93,12.1-2.47,24.56-3.51,36.6-6.26,20.07-4.59,41.1-14.1,53.73-30.47v0C515.55,546.67,515.14,546.15,514.73,545.61Zm24.54,210.78c-12.39-3.1-23.65,1-34.55,6.78-3.57,1.9-7.19,3.92-10.87,5.8.37.48.78,1,1.24,1.6,14.68-7.55,28.82-17,45.73-11.47,5.53,1.79,10.81,5.32,13,10.91,2.81,7.17-.35,14.64-5.35,19.94-7,7.39-16.55,10.33-25.79,13.82l1.6,1.8,8-3.12c11-4.35,24-12.39,24.77-25.64C557.65,766.05,549,758.79,539.27,756.39Zm-43.1-132.12c8.75-12.33,16.78-25.12,25.51-37.47,3.77-5.35,7.73-10.83,12.06-16-.41-.56-.82-1.1-1.23-1.67-2.32,2.73-4.51,5.53-6.63,8.34-8.79,11.67-16.67,24-24.86,36.08-12.34,18.21-26.83,38.72-45.84,51.35.23.67.47,1.32.73,2C472.18,656.14,485.28,639.58,496.17,624.27Zm4.42,32.55c-1.58,10.37,3.48,21.8,12.13,27.74,10.09,6.93,21.37,2.66,28.54-6.22,4.24-5.24,7.3-11.26,11.09-16.8a70.54,70.54,0,0,1,15.87-17,48,48,0,0,1,12-6.56L579,636.05a45.57,45.57,0,0,0-7.71,3.79c-12.24,7.45-19.69,18.95-27.18,30.75-3.86,6-8.49,12.43-15.62,14.7-6.25,2-12.64-.3-17.3-4.65-10.39-9.7-11.07-24.63-3.23-36,8.32-12.08,22.68-18.58,36.21-22.87,6.93-2.18,14.08-4,21.07-6.26-.39-.58-.8-1.16-1.19-1.75-14.07,4.53-29.08,7.69-41.14,14.83C512.56,634.68,502.49,644.36,500.59,656.82ZM615.28,694.3c-5.7,7.17-13.1,13.17-20.58,18-12.64,8.19-27.35,13.79-42.44,14.9-15.25,1.12-29.78-2.9-41.75-12.5-10.29-8.27-19.47-18.53-33.14-20.79a40.51,40.51,0,0,0-11.69-.23c.28.75.54,1.49.82,2.23a37.58,37.58,0,0,1,15.9,1.64c7.19,2.41,13.12,7.32,18.75,12.19,5.44,4.72,10.81,9.55,17.15,13a57.46,57.46,0,0,0,19.41,6.3c13.57,1.86,27.52-.58,40.17-5.61,13.71-5.41,28.67-14.72,38.63-27.07C616.1,695.71,615.69,695,615.28,694.3Zm.11,187.09c2,1.08,4,2.1,6,3,6.78,1.36,13,4.16,19.06,7.4a63.35,63.35,0,0,0,7.64,1.65c-6.75-3.92-13.58-7.69-21-9.88A57.11,57.11,0,0,0,615.39,881.39Zm10.89-167.9c-.33-.56-.63-1.13-.95-1.69-18.28,3.92-35.35,17-42.15,33.65-5.37,13.15-2.23,26,3.51,38.46,3.27,7.11,7,14,9.38,21.53a77.3,77.3,0,0,1,3.53,20.9,71.14,71.14,0,0,1-10.05,39c.56.41,1.13.8,1.69,1.17a70.74,70.74,0,0,0,9.92-29.26,78.8,78.8,0,0,0-5.44-38.63c-5.91-14.38-16-28.54-12.93-44.87C586.45,734.15,605.79,717.75,626.28,713.49ZM674.05,820.1a109.61,109.61,0,0,1-18.13,4.18c-7.36.91-16.24.58-20.57-6.45-3.12-5.11-2.55-11.68-.86-17.18,3.7-12,13.4-18.88,22.56-26.48-.24-.61-.52-1.21-.8-1.82-4.61,3.79-9.46,7.36-13.62,11.35-7.45,7.14-13,18.49-11.24,29,2.16,13.21,15.59,15,26.74,13.31a122.65,122.65,0,0,0,16.38-4.2C674.38,821.27,674.22,820.68,674.05,820.1Z"/><path class="cls-5" d="M589.2,865.15c-51.61-36.18-97.64-99.26-97.64-99.26-4.49-15.42-75.62-206.09-95.85-266.37-7.48-22.27-9.49-38.79-6-47.95Z"/><path class="cls-3" d="M488,902.32H66S152.36,566.89,295,428.07c19.14-18.63,93.61-15.49,110.77,12.55C470.07,545.81,489.22,900.83,488,902.32Z"/><path class="cls-4" d="M434.39,714.4c-16.59,23.56,1.45,55.65,27.89,61.2a35.43,35.43,0,0,0,16.39-.54c.07.73.13,1.45.2,2.16a37.06,37.06,0,0,1-15.18.91c-23.52-3.66-43.27-28.71-37-52.58,4.85-18.6,23.73-31.55,42.62-32.14.08.78.19,1.54.3,2.32a35.35,35.35,0,0,0-4.83.39A45.56,45.56,0,0,0,434.39,714.4ZM84.17,842.62c-.22-.17-.43-.37-.65-.54-.24.71-.45,1.43-.67,2.14,16.48,13.63,19.88,38.16,25.16,58.11h2.19C104.55,881.47,101.47,857.37,84.17,842.62Zm70.47-121.23c12.88-.82,26-5.13,33.82-15.94,6.07-8.33,9.23-20.07,4.75-29.82-5.2-11.28-17.89-14.27-29.24-14-4.91.11-9.77.59-14.59,1.13-.31.69-.61,1.41-.91,2.12,8-1,16-1.88,23.86-.8,7,.95,13.84,4,17.74,10.12,3.33,5.26,3.76,11.75,2.38,17.71-3.29,14.18-14.86,23.13-28.63,26.12-12.19,2.64-24.6,1.21-36.88-.55-.26.68-.52,1.33-.78,2C135.91,720.81,145.54,722,154.64,721.39Zm18.17,157.85c-12.3-2.25-32.05,9.57-38.68-6.5-5-12,2.14-25.48,9.79-34.54,9.29-11,21.29-19.18,33.13-27.17,21.87-14.79,74.87-60.08,49.57-79.26C203,713.9,172.74,766,155,782.38c-15.68,14.42-38.64,27.48-61.07,27.15-.22.65-.44,1.28-.65,1.93,22.67.39,45.08-12.52,61.93-26.49,22.18-18.36,44-66.11,69.65-51.47,21.26,12.15-18.39,54.74-40.35,69.88C173.46,811,162,818.19,151.87,827.16c-8.93,7.93-17.68,17.71-20.38,29.67-2,8.83-1,20.18,8,24.82,5.72,3,12.19,1.84,18.23.69,7.61-1.47,14.73-2.36,21.79,1.47a29.36,29.36,0,0,1,14.29,18.52h2.32c0-.05,0-.07,0-.11C193.23,891.26,184.22,881.34,172.81,879.24Zm154.38-267.3a32,32,0,0,0-34.56,1.72c-10.89,7.66-17.48,20.05-22.57,32-5.67,13.36-10.76,28.09-21.87,38.05-6,5.39-15.4,10.12-22.74,4.38-4.78-3.77-6.6-10.42-6.78-16.29-.41-12.56,7.09-24.43,14.58-33.91,7.75-9.85,16.8-18.58,24.62-28.39,7.26-9.1,13.62-19.47,15.33-31.19.85-5.78.07-12-4.74-15.91-3.88-3.12-9.2-3.88-14-3.42-12.3,1.19-22.81,10.13-30.21,19.44a106.82,106.82,0,0,0-10.85,17c-3.36,6.39-5.85,13.21-9.25,19.53-3.94,7.36-10.72,10.94-18.91,8.43a26.44,26.44,0,0,1-13.31-9.88c-.31.63-.61,1.26-.89,1.88,6,7.39,15,13.15,24.62,10,6.09-2,9.36-7.49,11.87-13,2.9-6.41,5.72-12.85,9.14-19,6.86-12.36,16.41-25,30-30.51,5.69-2.29,13-3.23,18.64-.26,7.86,4.14,6.87,13.8,4.81,21.09-6.89,24.19-29.65,39.48-43.22,59.6-6.24,9.23-11.42,20.36-9.94,31.77,1.34,10.26,8.62,19.81,20,17.32,13.36-2.9,22.07-17,27.5-28.39,6.19-12.9,10.35-26.87,19.17-38.39s22.34-19.23,37-14.23c15.7,5.35,24.68,20.85,25.27,36.86,1.08,29.17-19.43,53.31-40.45,70.92-20.19,16.91-43,30.69-61.66,49.42a137.26,137.26,0,0,0-38.39,76.81c-2.62,17.82-2.6,39.26,4.61,57h2.73A80.87,80.87,0,0,1,208,886.06c-5.55-29.75,1.21-62,16.11-88.07,14.36-25.14,36.92-42.36,59.77-59.32C304,723.75,325,708.2,337.72,686.09,351.16,662.73,354.39,627.06,327.19,611.94Zm70.32,137.71c-.83-13.34-6.93-26-18.26-33.48a30.36,30.36,0,0,0-33.59-.49c-10.41,6.67-17.15,18.47-19.73,30.36-3.74,17.21-.62,34.88-.28,52.25a173.84,173.84,0,0,1-25.83,94.33c-2.06,3.32-4.27,6.57-6.67,9.71h2.94a150.27,150.27,0,0,0,17.5-31.1,176.31,176.31,0,0,0,12.8-46.06c2.27-16.72,1.21-33.11.32-49.88-.84-16.06-.32-32.89,9.06-46.62,8.25-12.08,22.67-19.56,37-13.47,14.51,6.13,22.22,21.22,22.63,36.42.87,31.34-21.63,57.65-37.09,82.88-7.36,12-14,24.69-17.07,38.5a79.32,79.32,0,0,0-1,29.33h2.21a78,78,0,0,1,1.91-33.16c7.94-28.17,28.67-50.26,41.9-75.88C393.2,779.89,398.46,764.94,397.51,749.65ZM460.42,845c-8.06-9.61-19.73-16-32.53-14.75-11.69,1.15-22,8.62-24.47,20.47-2.88,13.64,4.31,27.81,11.8,38.74,2.9,4.25,6.19,8.51,9.33,12.89H427c-5.89-8.45-12.49-16.46-17-25.8-6.49-13.51-8.59-32,6.5-40.73,12.8-7.38,28.56-3.1,38.76,6.61,11.05,10.52,16.22,25.55,19.3,40.12,1.36,6.43,2.4,13.08,3.44,19.8h2.06C477,881.84,474,861.12,460.42,845ZM327.3,416.91q-1.79.16-3.51.39a83.6,83.6,0,0,1-16.93,15.05,92.61,92.61,0,0,1-28.42,12.91c-.86,1-1.75,2-2.64,3a73,73,0,0,0,7.26-1.88C298.93,441.34,316.3,431.05,327.3,416.91Zm3,60a24.33,24.33,0,0,1-1.88-16.76c2.42-11,11.21-21.61,22.74-23.49,14.92-2.43,26.7,10.69,39.73,15.44,6.63,2.42,14.95,3.14,21.27.17-.24-.52-.5-1-.74-1.49-5.65,2.85-12.71,2.08-18.6.19-13.25-4.24-23.91-16.52-38.57-16.35-19.6.26-34.43,25.06-25.9,42.53,3,6.07,8.56,10.18,13.54,14.51a44.31,44.31,0,0,1,11.93,15.55c4.89,11.18,5.33,24.65.37,35.86s-15.12,19-27.51,19.32c-11.15.3-22.89-4.79-29.79-13.66a25.66,25.66,0,0,1-5.61-15.1c-.2-7.41,2.6-14.59,4.44-21.65,2.75-10.51,3.16-24.28-8.86-29.09-9.64-3.87-21.05.95-28.59,7.08-10.07,8.17-14.14,21.05-19.77,32.27-6,12-14.81,23.35-29.12,24.64-.91.09-1.8.13-2.69.13-.39.7-.78,1.41-1.19,2.11a5.24,5.24,0,0,0,.56,0c11.57.1,21.22-5.92,27.92-15.12,7.88-10.87,11.26-24.25,18.88-35.3,6.48-9.37,20.42-18,32.16-14.33,17.09,5.39,8.51,26.52,5.69,38.35-2.55,10.67-1.36,20.74,6.2,29.1,13.92,15.36,40.21,17.39,53.81.65,13.95-17.19,11-44.82-4.87-59.79C340.57,487.73,333.86,483.61,330.33,477Zm62.22,62.35c11.5,4.31,24.19-1,33.67-7.53a70.13,70.13,0,0,0,11.09-9.68c-.17-.63-.35-1.26-.52-1.87-1.54,1.65-3.14,3.23-4.79,4.7-10,8.86-25.18,17.76-38.87,12.56-14.1-5.35-17.08-21.8-12.62-34.73,5-14.58,18.82-23.41,32.09-29.65q3.7-1.73,7.47-3.31c-.19-.57-.43-1.11-.67-1.67-20.31,8.81-41.58,20.23-42.81,44.57C376,524,381.52,535.18,392.55,539.31ZM464.34,658c-8.84,7.51-18.74,13.47-30,16.56-15.48,4.29-31.18.57-41-12.62a64.13,64.13,0,0,1-9.44-19.47c-2.67-8.6-4.59-18-2.23-26.9,3.94-14.94,18.27-24.29,32.22-28.67,12-3.77,24.51-5,36.9-7-.15-.69-.28-1.38-.41-2.07-5.07.91-10.11,1.71-15,2.44-14.62,2.21-29.62,5.2-41.53,14.51-11.09,8.69-16.72,21.09-14.93,35.19,1.72,13.39,7.06,28.07,16.66,37.81s23,12.41,36.1,9.64c12.41-2.64,23.32-8.92,33-17C464.55,659.59,464.44,658.81,464.34,658Z"/><path class="cls-2" d="M669.9,879.66c-30.26,31.39-90.83,34.19-263.57,40.53-23.91.88-75.49-166.14-50-168.39,32.09-2.83,157.24-6.88,166.43-6C600.26,753,690.42,858.36,669.9,879.66Z"/><path class="cls-2" d="M411.9,755.83s-68.06-15.13-106.27-12C254.45,748,212,772.66,194.82,784.08,159,807.9,88.79,890.29,109,914.64c18.29,22.05,85.78-65.79,85.78-65.79s-83.59,78.21-56.69,100.7,99.44-83.92,99.44-83.92-84.08,82.28-52.67,101.09c23.73,14.21,94.87-78.47,94.87-78.47s-71.78,71.22-48,86.89C258,992.46,329,911,329,911c67.15,29.66,111.26,16.31,141.51,3.08C477.86,910.9,411.9,755.83,411.9,755.83Z"/><path class="cls-6" d="M222,820c-10.16,8.83-20.49,17.7-29.82,27.41s-18.34,19.74-26.72,30.26c-20.57,25.83-29.41,45.21-28.74,44.08,16-26.92,48.87-62.17,58.21-71.88S213,830,222.33,820.3C222.56,820.05,222.19,819.74,222,820Z"/><path class="cls-6" d="M257.59,853c-12.47,11.84-25.29,23.13-37.24,35.53s-22.11,25.07-33.12,38.19c-.85,1,0,1.13.86.15,11.53-12.67,23.17-23.49,34.85-36s22.88-25.52,35-37.57C258.09,853.1,257.78,852.83,257.59,853Z"/><path class="cls-6" d="M293.29,875.89c-20,17.11-36.8,37.89-52.8,58.67-.79,1,.28,1.08,1.16.07,17.18-19.84,30.52-35.52,52.24-58C294.23,876.23,293.71,875.52,293.29,875.89Z"/><path class="cls-3" d="M376.23,747.11l121,186.68S646.6,920,674.49,885.4c18.35-22.78-73.1-138.46-159.35-140Z"/><path class="cls-4" d="M397.51,749.65a69.3,69.3,0,0,1-3.4,25l-1.45-2.25a69,69,0,0,0,2.72-20.82,41.68,41.68,0,0,0-.39-4.74l2.26,0C397.36,747.79,397.44,748.72,397.51,749.65ZM430,830.1l1.3,2a36.46,36.46,0,0,1,24,10.31c11.05,10.52,16.22,25.55,19.3,40.12,1.54,7.21,2.64,14.69,3.79,22.2l2.68,4.16c-3.48-22.55-5.65-46-20.63-63.91C452.82,835.91,442,829.69,430,830.1Zm165.71-31.44c-4.24-10.37-10.67-20.62-12.8-31.66-.67-.41-1.34-.8-2-1.19a67.12,67.12,0,0,0,5.78,18.1c3.27,7.11,7,14,9.38,21.53a77.3,77.3,0,0,1,3.53,20.9c.86,28.52-14.75,56.47-43.21,64.49-25.59,7.21-54.63-3.86-61.8-31-3-11.37-2-24.08,3.59-34.5,7.26-13.45,20.69-17.58,34.07-22.89,11-4.35,24-12.39,24.77-25.64.63-10.76-8.07-18-17.75-20.42-12.39-3.1-23.65,1-34.55,6.78-13.23,7-26.81,15.72-42.44,12.43-15.18-3.19-27.59-15.1-32.27-29.13l-2.62,0c5.07,15.9,19.75,29.06,36.3,31.64,28.24,4.4,48.83-28.24,77.13-19,5.53,1.79,10.81,5.32,13,10.91,2.81,7.17-.35,14.64-5.35,19.94-11,11.57-28.16,12.22-40.72,21.25-17.82,12.82-21,38.87-12,57.86,10.67,22.42,37.44,30,60.27,24,25.83-6.85,42.29-29.8,45.15-55.77A78.8,78.8,0,0,0,595.72,798.66Zm55.35,27.91c-.52-.64-1.06-1.29-1.58-1.94-5.56-.16-11-1.74-14.14-6.8a17.77,17.77,0,0,1-2.1-11.2l-1.88-1.88a26,26,0,0,0,0,8C633.1,823.22,641.93,826.51,651.07,826.57Zm-24.06,57c-10.22-3-22.21-3.57-32.09,1-10.52,4.85-15,15.2-13.53,26.46a85.55,85.55,0,0,0,2.05,9.92c.61-.11,1.22-.24,1.82-.34-2.21-8.88-4-17.74.87-25.82,6.24-10.39,20.14-12.34,31.16-11.06,13.82,1.6,25.27,9.35,37.14,16,.8-.39,1.58-.81,2.36-1.19C647.07,893.08,637.69,886.73,627,883.59Z"/><path class="cls-6" d="M611.91,787.5C568.5,752.13,553.82,746,485.47,745.16c-.55,0-.67.71-.1.74,75,3.39,109.55,31.09,126,42.15C611.85,788.34,612.3,787.82,611.91,787.5Z"/><path class="cls-6" d="M541.67,912.76c-12.2-21.24-25.52-41.8-38.91-62.33S476,809.31,462.12,789.1c-7.86-11.41-15.65-22.88-23.9-34-.21-.29-.76,0-.57.33,12.18,21.21,25.43,41.85,38.66,62.43S503,859,516.71,879.34c7.72,11.51,15.65,22.88,23.89,34C541,913.92,542,913.38,541.67,912.76Z"/><path class="cls-5" d="M528.79,746.59l0,0-99.55,82.26-53-81.75,138.92-1.69c1.64,0,3.28.11,4.93.22l7.78.84Z"/><path class="cls-2" d="M244,543.45c-17.74,200.23,10,359.73,94,371.21,55.84,7.62,41.86-161.68,41.73-165.3-.44-12.38-6.88-115.7-46.46-228.08C289.8,397.64,252,454,244,543.45Z"/><path class="cls-3" d="M244,543.45c-17.74,200.23,10,359.73,94,371.21,55.84,7.62,63.65-135.15,63.52-138.76-.44-12.39-28.67-142.24-68.25-254.62C289.8,397.64,252,454,244,543.45Z"/><path class="cls-6" d="M338.19,535.52c12.23,37.71,23.37,75.76,34.17,113.91,10.3,38.26,21.27,76.49,27.73,115.63-14.66-67.23-43.64-162.22-61.9-229.54Z"/><path class="cls-6" d="M348.54,544.88c2.78,10.73,4.86,22.37,2.3,33.32.33-11-1.72-22.36-2.3-33.32Z"/><path class="cls-4" d="M252.89,498.77c-1,1.41-1.86,2.84-2.73,4.31.46-2,.93-4,1.43-5.91A38.44,38.44,0,0,1,258.3,490c7.54-6.13,18.95-10.95,28.59-7.08,12,4.81,11.61,18.58,8.86,29.09-1.84,7.06-4.64,14.24-4.44,21.65a25.66,25.66,0,0,0,5.61,15.1c6.9,8.87,18.64,14,29.79,13.66a29.56,29.56,0,0,0,18.2-6.89c.23.67.45,1.35.67,2-14.32,11-36.32,7.88-48.64-5.7-7.56-8.36-8.75-18.43-6.2-29.1,2.82-11.83,11.4-33-5.69-38.35C273.31,480.73,259.37,489.4,252.89,498.77Zm20.31,79.54c.85-5.78.07-12-4.74-15.91-3.88-3.12-9.2-3.88-14-3.42a32.26,32.26,0,0,0-11.94,3.65c-.06.76-.13,1.52-.17,2.28a36.7,36.7,0,0,1,4.29-2.06c5.69-2.29,13-3.23,18.64-.26,7.86,4.14,6.87,13.8,4.81,21.09-5,17.72-18.6,30.67-30.81,44.23,0,1-.07,1.94-.07,2.9,6.22-7.13,12.82-13.91,18.71-21.31C265.13,600.4,271.49,590,273.2,578.31Zm64.52,107.78c13.44-23.36,16.67-59-10.53-74.15a32,32,0,0,0-34.56,1.72c-10.89,7.66-17.48,20.05-22.57,32-5.67,13.36-10.76,28.09-21.87,38.05a30.24,30.24,0,0,1-8.6,5.57c0,.78.07,1.54.11,2.29,11.8-4.11,19.67-17,24.71-27.59,6.19-12.9,10.35-26.87,19.17-38.39s22.34-19.23,37-14.23c15.7,5.35,24.68,20.85,25.27,36.86,1.08,29.17-19.43,53.31-40.45,70.92-19.21,16.09-40.78,29.34-58.91,46.73.15,1,.3,2,.48,3,11.26-11.07,24-20.71,36.88-30.24C304,723.75,325,708.2,337.72,686.09Zm48.57,107.2c6.41-12.45,11.41-26.23,11.33-40.37,0-1.1-.05-2.16-.11-3.27a46.89,46.89,0,0,0-4.29-17.08,39.42,39.42,0,0,0-14-16.4,30.36,30.36,0,0,0-33.59-.49c-10.41,6.67-17.15,18.47-19.73,30.36-3.74,17.21-.62,34.88-.28,52.25a173.84,173.84,0,0,1-25.83,94.33c-.48.78-1,1.54-1.47,2.32.58.56,1.19,1.11,1.79,1.65a159.57,159.57,0,0,0,13.45-25.36,176.31,176.31,0,0,0,12.8-46.06c2.27-16.72,1.21-33.11.32-49.88-.84-16.06-.32-32.89,9.06-46.62,8.25-12.08,22.67-19.56,37-13.47,14.51,6.13,22.22,21.22,22.63,36.42.87,31.34-21.63,57.65-37.09,82.88-7.36,12-14,24.69-17.07,38.5a79.81,79.81,0,0,0,1.32,39.61c.22.78.48,1.56.72,2.34.74,0,1.47-.06,2.19-.15a79,79,0,0,1-1.06-45.63C352.33,841,373.06,818.91,386.29,793.29Z"/><path class="cls-6" d="M240.21,570.9c-.24,48.88,1,97.82,5.08,146.52,5.14,60.9,19.45,189.33,97.41,195.38,12.22.75,23.47-1.64,33.34-9.28,14.79-10.59,27.16-24.2,39-38,23.55-27.82,44.9-58.67,64.7-88.66L475,772.05l4.91,4.66.07.06c-6.24,10.56-12.84,20.9-19.57,31.16-19.81,29.56-65.53,97.5-99.13,107.17-41.14,9.11-72.06-19.14-88.69-54C235.83,783.28,238,657.14,240.21,570.9Z"/><path class="cls-6" d="M236.19,583c1.05,9.26,2.55,18.21,3.56,27.48-3.19-8.72-4.75-18.23-3.56-27.48Z"/><path class="cls-3" d="M383.12,535.13s-72-65.92-117.2-62.85L228.7,507.62s-12.46,4.55-16.62-3.3c-10.29-19.42-13.81-67.1,26.21-99.46,36.66-29.63,114-26.41,165.86-14.59,49.77,11.35,77.92,39.48,63.86,72.17S383.12,535.13,383.12,535.13Z"/><path class="cls-5" d="M387.56,519.84s55.24-42.28,60.28-66.47-43.69-45.44-75-53.37c-48.41-12.28-80.95-8.11-107,18.38S387.56,519.84,387.56,519.84Z"/><path class="cls-2" d="M395.54,511.78c-25.82,3.25-64.91-39.86-78.63-72.88-.93-2.27,4.77-24.45,10.41-51.73,3.36-16.57,6.71-35.1,8.55-52.23.36-3.52,104.63,37.63,104.63,37.63s-14.41,34.77-17.44,64.65a39.27,39.27,0,0,0,0,7.11c0,.33.05.73,0,1.18C423.82,459.1,420.49,508.62,395.54,511.78Z"/><path class="cls-6" d="M412,444.9a64.47,64.47,0,0,0,11.08.6c0-.46,0-.84,0-1.19a36.71,36.71,0,0,1,0-7.1c3-29.85,17.41-64.63,17.41-64.63s-84.63-33.41-101.66-37.46C340,355.27,348.78,436.7,412,444.9Z"/><path class="cls-2" d="M301.7,248.74c-2.71,40,42.07,143.17,74.2,161,46.58,25.9,110.34,14.58,129.19-38.56,18.27-51.5-42.47-185-77.19-199.92C376.75,149.27,305.7,189.71,301.7,248.74Z"/><path class="cls-7" d="M385.31,420.14s0,0,0,0"/><path class="cls-6" d="M422.1,291.84c-.16-.24-.4.56-.27.84,3.2,6.88,5.71,15.29.4,20.3-.16.15,0,.49.23.36C429.69,309,426.24,297.84,422.1,291.84Z"/><path class="cls-6" d="M412.77,287.23c-11.57,3.94-2.83,26.79,7.89,23.13C431.21,306.77,422.47,283.92,412.77,287.23Z"/><path class="cls-6" d="M465.15,274.28c0-.29.68.12.78.42,2.49,7.16,6.54,14.94,13.84,14.85.23,0,.34.36.09.41C471.63,291.85,466.35,281.46,465.15,274.28Z"/><path class="cls-6" d="M468.64,264.47c11.06-5.22,20.68,17.27,10.44,22.1C469,291.34,459.38,268.84,468.64,264.47Z"/><path class="cls-6" d="M402.94,288.13a93,93,0,0,0,9.28-3.86c3.54-1.51,6.52-2.36,8.71-5.73,1.18-1.81.48-4.9-1.17-6.21-3.85-3-8.65-2.26-13-.6a18.82,18.82,0,0,0-10.39,8.73C393.94,284.69,398.62,289.47,402.94,288.13Z"/><path class="cls-6" d="M469.22,245.53a92.88,92.88,0,0,1-10,1.12c-3.84.39-6.85,1.09-10.4-.8a5.18,5.18,0,0,1-2-6c1.89-4.52,6.46-6.16,11.06-6.82a18.84,18.84,0,0,1,13.33,2.62C475.43,238.16,473.66,244.61,469.22,245.53Z"/><path class="cls-6" d="M440.34,357.51c2.33,1,4.89,2.64,7.54,1.88s5-2.95,6.93-4.69a.26.26,0,0,1,.44.24,10.2,10.2,0,0,1-7.51,7.28c-3.42.67-6.06-1.49-8-4.13C439.51,357.72,440,357.37,440.34,357.51Z"/><path class="cls-6" d="M444.71,346.36c7.59-7,19.57-10.37,27.22-12.3.77-.43.89-2.33.73-3.15l0-.06-6.27-14.77c2.35.22,14.13.83,12.88-1.92-10.43-22.74-22-48-37.22-68.47a.7.7,0,0,0-1.21.68c9.16,22.25,22.18,42.75,31.74,65-3.67,0-9.77-.2-12.56.95-.68.52,7.43,15.31,8.11,17.82,0,0-15.94,1.27-24.71,13.22C441.12,346.42,441.08,349.71,444.71,346.36Z"/><path class="cls-6" d="M324.73,346.69c17.44-1.6,22.45-30.2,22.75-41.58s-15.68-53.79-13.61-71.45,18.48-29.31,32.93-30.4,37.72,9.62,47,5.1,3.68-26.14,10.35-28.68c14.69-5.58,34.69,24.67,43.45,39.77,0,0-18.95-73.53-96.87-52.08-71.06,19.57-75.18,75.43-73.31,98.38C301,309.73,324.73,346.69,324.73,346.69Z"/><path class="cls-8" d="M429,338.56a32.22,32.22,0,1,1,18.88-47.25h0A32.26,32.26,0,0,1,429,338.56Zm-16.66-57.79a27.91,27.91,0,1,0,31.82,12.71A27.79,27.79,0,0,0,412.38,280.77Z"/><path class="cls-8" d="M497.07,309.58C485.22,313,471,304,464.47,288.45c-3.29-7.82-4.16-16.13-2.45-23.4,1.77-7.52,6.06-13.06,12.09-15.59s13-1.72,19.6,2.28c6.39,3.88,11.71,10.32,15,18.14,6.87,16.38,2.55,33.87-9.64,39A18.92,18.92,0,0,1,497.07,309.58Zm-19.75-56.69a14.82,14.82,0,0,0-1.54.54c-4.72,2-8.12,6.46-9.57,12.6a34.28,34.28,0,0,0,2.22,20.75c6,14.19,18.92,22.35,29,18.12s13.29-19.16,7.34-33.35a34.14,34.14,0,0,0-13.26-16.12C486.65,252.5,481.69,251.63,477.32,252.89Z"/><path class="cls-8" d="M448.36,295.16l-3.83-2c2.92-5.67,11.2-15.13,21.71-10.42l-1.76,3.93C455.07,282.46,448.63,294.65,448.36,295.16Z"/><path class="cls-8" d="M319.2,358.38l-4.29-.34c.16-2,1.8-19.72,10.06-24.88,7.74-4.8,63.07-22.16,65.42-22.9l1.29,4.11c-15.87,5-58.46,18.72-64.42,22.44C321.8,340.22,319.59,353.54,319.2,358.38Z"/><path class="cls-2" d="M352.26,333.19s-33.06-28.53-46.61-15.88,17.46,58.29,37.69,60.48S366,361.3,366,361.3Z"/><path class="cls-6" d="M314.86,330.17c-.3.05-.25.48,0,.52,14.29,2,24.16,12.24,32.1,23.49-5.07-3.82-11-5.11-16.24,1.1-.28.33.18.78.53.6,5-2.48,9.08-2.53,13.74.81,3.3,2.36,6,5.73,8.71,8.74.9,1,2.83-.14,2-1.36l-.18-.28C351.73,347.19,333,327.33,314.86,330.17Z"/><path class="cls-3" d="M387.56,519.84S328.46,427,258.29,420l7.63,52.28s41.68-1.29,117.2,62.85Z"/><path class="cls-6" d="M247.12,473.87c12.74-2,25.54.39,37.66,3.77s23.79,8.76,34.87,14.87,21.68,13.15,32,20.55l15,11.77,14.48,12.46,1.63,1.39,1.73-1a321.16,321.16,0,0,0,36.89-24,182.92,182.92,0,0,0,16.92-14A112.64,112.64,0,0,0,453,483.42c-10,10.65-21.84,19.07-33.82,27.17-6,4-12.21,7.77-18.47,11.41s-12.55,7.26-18.91,10.53l3.35.44-14.52-12.88c-5-4.1-10.12-8.09-15.25-12.05-5.35-3.67-10.62-7.45-16.11-10.92-5.61-3.28-11.1-6.76-17-9.53a152.33,152.33,0,0,0-36.56-13.41c-3.15-.79-6.4-1.23-9.6-1.76-3.24-.29-6.47-.67-9.73-.71A57,57,0,0,0,247.12,473.87Z"/><path class="cls-6" d="M228.7,507.62a189.46,189.46,0,0,0,19.69-16.53,187.07,187.07,0,0,0,17.53-18.81,210.47,210.47,0,0,0-37.22,35.34Z"/><path class="cls-3" d="M360.82,501.35s-3.46,27.44-.9,66.48c1,15.46,11.75,70.28,28.72,66.79s-14.05-36.78-21.49-65.53c-7.54-29.2-1.49-50.81-2-68.37Z"/><g class="cls-9"><path d="M360.82,501.35s-3.46,27.44-.9,66.48c1,15.46,11.75,70.28,28.72,66.79s-14.05-36.78-21.49-65.53c-7.54-29.2-1.49-50.81-2-68.37Z"/></g><path class="cls-3" d="M418.73,504.1s10,23,17.85,57.59c3.09,13.7,7.83,64.13-7.82,65.46s2.78-35.59,1.86-62.51c-.94-27.33-11.76-44.57-15.86-60Z"/><g class="cls-9"><path d="M418.73,504.1s10,23,17.85,57.59c3.09,13.7,7.83,64.13-7.82,65.46s2.78-35.59,1.86-62.51c-.94-27.33-11.76-44.57-15.86-60Z"/></g><path class="cls-2" d="M353.73,902.53c46.07-7.09,121.58-110.91,169.45-229.6C532.29,650.34,356.92,559,350,584.13c-22.25,80.59-65.84,186-64.44,251C286.63,885.71,321.87,907.43,353.73,902.53Z"/><path class="cls-10" d="M435.75,498.66c-11.18-13.69-12.88-52-22.91-74.53s-39.35-33.16-44.6-24.86,2.51,16.65,4.9,53.73c1.54,23.84-16.71,71.48-8.91,114.75C368.14,589.49,446.94,512.36,435.75,498.66Z"/><path class="cls-2" d="M435.75,498.66c-11.18-13.69-12.88-52-22.91-74.53s-39.35-33.16-44.6-24.86,2.51,16.65,4.9,53.73c1.54,23.84-16.71,71.48-8.91,114.75C368.14,589.49,446.94,512.36,435.75,498.66Z"/><path class="cls-11" d="M435.75,498.66c-11.18-13.69-12.88-52-22.91-74.53s-39.35-33.16-44.6-24.86,2.51,16.65,4.9,53.73c1.54,23.84-16.71,71.48-8.91,114.75C368.14,589.49,446.94,512.36,435.75,498.66Z"/><path class="cls-2" d="M522.92,382.21c15.65,14.61-23.63,50.13-23.63,50.13s14.28-3.84,26.68,3.08c14.21,7.92,8,33.68,8,33.68s15.26-.9,27.63,7.72c12.84,9,10.29,35.83,10.29,35.83s14.67,7,20,22.1c9.13,25.86-19.45,56.9-33.35,79.62-14.89,24.33-33.55,54.52-44.26,69.48L346.6,598.54s28.73-128.28,51.49-150.23C417.27,429.82,499,359.89,522.92,382.21Z"/><path class="cls-6" d="M498.54,432.25C473.44,447,451.91,467.77,431.36,488c-.45.45.26,1.16.71.7,20.21-20.38,46.34-35.84,67.32-55.37A.7.7,0,0,0,498.54,432.25Z"/><path class="cls-6" d="M531.88,468.17c-5.58,3.51-10,8.85-14.41,13.67q-7.14,7.77-14,15.78-13.77,16-26.73,32.74c-.39.49.27,1.2.7.7,9.17-10.63,18.5-21.13,28.11-31.37q7.21-7.68,14.55-15.25c4.55-4.7,9.73-9.28,13.15-14.91A1,1,0,0,0,531.88,468.17Z"/><path class="cls-6" d="M571.5,513.09c-5,2.86-8.71,8.63-12.31,13q-6.12,7.42-12.33,14.8c-8.27,9.82-16.55,19.63-25.16,29.15-.43.48.27,1.18.71.71,8.8-9.64,17.72-19.15,26.44-28.86q6.4-7.14,12.75-14.37c3.59-4.09,8.55-8.8,10.41-14C572.12,513.2,571.75,513,571.5,513.09Z"/><path class="cls-6" d="M504.2,377.86c-28.48,11.8-62.61,36.86-82.6,52.37a268.88,268.88,0,0,0-21.47,18.51c-6.63,6.64-10.95,15.12-15.17,23.49-2.86,5.65-5.32,11.51-7.73,17.4,4.32-15.16,9.52-31.26,20.3-43.37,6.61-7,14.05-13.17,21.52-19.22,20.15-15.48,40.8-31.17,64.24-41.28Z"/><path class="cls-3" d="M313.85,631l166,145.8S393.05,917.07,352.58,914.32s-84.38-29-81.16-126.24C272.22,763.71,313.85,631,313.85,631Z"/><path class="cls-4" d="M283.86,738.67c-.7.52-1.39,1-2.08,1.56.3-1.17.63-2.34.93-3.53,7.69-5.69,15.38-11.41,22.7-17.56,18.47-15.46,36.55-36,39.91-60.53l1.64,1.45a77.88,77.88,0,0,1-9.24,26C325,708.2,304,723.75,283.86,738.67Zm95.39-22.5a30.36,30.36,0,0,0-33.59-.49c-10.41,6.67-17.15,18.47-19.73,30.36-3.74,17.21-.62,34.88-.28,52.25a173.62,173.62,0,0,1-25.36,93.53c.59.61,1.2,1.19,1.8,1.76a169.14,169.14,0,0,0,11.5-22.35,176.31,176.31,0,0,0,12.8-46.06c2.27-16.72,1.21-33.11.32-49.88-.84-16.06-.32-32.89,9.06-46.62,8.25-12.08,22.67-19.56,37-13.47,14.51,6.13,22.22,21.22,22.63,36.42.87,31.34-21.63,57.65-37.09,82.88-7.36,12-14,24.69-17.07,38.5a79.81,79.81,0,0,0,1.32,39.61,4.88,4.88,0,0,0,.18.54c.76.13,1.54.26,2.32.37a78.89,78.89,0,0,1-.65-44.35c7.94-28.17,28.67-50.26,41.9-75.88,6.91-13.4,12.17-28.35,11.22-43.64C396.68,736.31,390.58,723.67,379.25,716.17Zm48.64,114.06c-11.69,1.15-22,8.62-24.47,20.47-1.78,8.44.3,17.11,3.92,25,.5-.58,1-1.16,1.56-1.75-5.57-13.21-6.54-30.06,7.62-38.2,7.71-4.44,16.5-4.66,24.49-2,.44-.59.85-1.17,1.3-1.76A33.06,33.06,0,0,0,427.89,830.23Zm50.15-55a35.53,35.53,0,0,1-15.76.39c-20.44-4.29-35.86-24.43-34.15-44.22l-2.23-2c-3.36,22.63,15.52,45.26,37.79,48.72a37.45,37.45,0,0,0,16-1.15l.11-.19Z"/><path class="cls-6" d="M312,691.29c8.12,6.77,15.71,14.27,23.42,21.51s15.36,14.57,22.91,22q22.65,22.28,44.94,44.89c4.06,4.14,8.1,8.28,12.08,12.49,4.27,4.51,8,9.55,12.26,14,.34.34-.18.85-.53.52-3.78-3.57-8.06-6.63-11.92-10.13s-7.9-7.35-11.78-11.1q-11.44-11-22.79-22.13c-15.11-14.82-30.17-29.73-44.79-45-8.25-8.65-16.84-17.14-24.58-26.26A.54.54,0,0,1,312,691.29Z"/><path class="cls-6" d="M332.65,647.5l-19.18-16.08.93-.25c-9.13,34.4-19.2,68.53-28.64,102.81-4,14.89-8.3,29.82-10.79,45a244.77,244.77,0,0,0-.18,59.57,186.39,186.39,0,0,1-4.56-60.1c4.7-33.24,15.37-65.31,25.29-97.25,5.64-17.22,11.62-34.32,18.09-51.25l.62.57,18.42,17Z"/><path class="cls-3" d="M808.55,696c-28.4,38.46-58,83.09-65.22,131.32a.64.64,0,0,0,1.25.24A287.2,287.2,0,0,1,757.14,789c18.67-5.14,37-9.36,46.8-27.89,10-19.05,8.73-43.89,6.83-64.64C810.63,695.34,809.13,695.29,808.55,696Z"/><path class="cls-6" d="M757.42,788.61c12.76-28.62,29.14-57.37,50-80.91.14-.16.36.07.23.23-13.63,16.77-24,35-34.1,53.6,9.41-9.54,19.71-18.09,28.62-28.21.17-.2.45.08.28.28-8.84,10.61-18.5,22.15-30,30q-4.65,8.55-9.37,17.14c.77-.44,1.57-.82,2.37-1.22.14-.06.26.14.12.21-.88.45-1.75.92-2.65,1.3-1.5,2.71-3,5.41-4.52,8.11C758,789.75,757.15,789.22,757.42,788.61Z"/><path class="cls-6" d="M766.91,778.63a168.47,168.47,0,0,0,21.8-14.56c.19-.15.45.11.27.27a115.21,115.21,0,0,1-21.75,14.82C766.87,779.34,766.56,778.83,766.91,778.63Z"/><path class="cls-3" d="M740,820.18c.06.58,1.06.57,1,0,.15-15.88,0-31.84.26-47.79,4.06-8.21,12.8-12.76,18.87-19.34a84.35,84.35,0,0,0,11.33-15.77c7.51-13.44,11.58-28.55,13.14-43.82,1.68-17-4.77-73-11.93-71.1-3.72,1-15.73,28.78-18.92,38a263.89,263.89,0,0,0-11.3,46.54C736.72,744.19,737.2,782.57,740,820.18Z"/><path class="cls-6" d="M739.93,751.66l.07-.06c.87-20.1,5.4-40.39,9.64-59.88,4.56-21,9.9-40.77,20.71-59.5.2-.35.71,0,.53.31a221,221,0,0,0-16.63,45.67c.72-1.13,1.6-2.2,2.35-3.27.3-.42,1,0,.7.41a29.63,29.63,0,0,1-3.37,4.76.37.37,0,0,1-.14.07c-3.72,15-6.39,30.36-8.68,45.67l.51-.59c.12-.13.31,0,.23.18-.28.51-.6,1-.91,1.52-1.15,7.77-2.22,15.53-3.29,23.22,13.84-11.83,25.66-25.77,32.33-42.95,0-.08.16-.05.13,0-6.53,17.82-16.83,33.66-32.68,44.48l-.87,6.2c-.06.43-.75.32-.74-.1,0-1.83.09-3.66.16-5.5A.43.43,0,0,1,739.93,751.66Z"/><path class="cls-6" d="M746.45,722.54c10.58-15.78,20.46-31.11,28.2-48.56.08-.19.42-.05.34.15-6.52,17.33-15.65,34.9-28,48.82C746.73,723.24,746.24,722.86,746.45,722.54Z"/><path class="cls-6" d="M760.51,670.08c4.38-7.75,9-15.29,13.12-23.2.12-.22.42,0,.33.19a120.75,120.75,0,0,1-12.78,23.41A.39.39,0,0,1,760.51,670.08Z"/><path class="cls-6" d="M758.79,673.45a.07.07,0,0,1,0,.14C758.71,673.59,758.71,673.45,758.79,673.45Z"/><path class="cls-3" d="M729.3,774.25a161.92,161.92,0,0,1-3.72,31.29c.17,1.13.33,2.26.5,3.42a149.16,149.16,0,0,0,5.59-34.88,1.06,1.06,0,0,0,.05-1.08v0a230.74,230.74,0,0,0-3.51-47.26c-4.91-29.19-15.66-57.2-36-79.08a1.46,1.46,0,0,0-2.25.47c-8.21,20.88-5.34,45.81,1.65,66.64a122,122,0,0,0,16.15,31.66C714.72,755.22,723.62,763.52,729.3,774.25Z"/><path class="cls-6" d="M694.6,656.41c19.29,31.31,32.72,68.43,34.36,105.42,0,.65-1.08.83-1.17.16-.45-3.33-1-6.62-1.49-9.9h0c-8-7.65-16.17-15.71-21.89-25.27a.18.18,0,0,1,.28-.21c6.94,7.94,13.42,16.07,21.26,23.15q-2.07-12.27-5-24.16c-.51-.59-1-1.2-1.52-1.79-.34-.4.22-1,.57-.58.15.18.31.35.46.52a279.89,279.89,0,0,0-10.08-32c-4.92-5.86-10.41-10.92-14-18a.15.15,0,0,1,.25-.15c2.88,4,5.66,8.1,8.93,11.85,1.3,1.49,2.72,2.88,4.07,4.34a247.85,247.85,0,0,0-15.79-32.93A.43.43,0,0,1,694.6,656.41Z"/><path class="cls-6" d="M698.5,695c6.24,8.39,13.34,16.4,19.14,25.08.17.25-.2.5-.4.31-7.45-7-13.75-16.53-19.16-25.14C697.91,695,698.32,694.79,698.5,695Z"/><path class="cls-6" d="M718.51,722.05l.27.27a.2.2,0,0,1-.29.28l-.26-.26A.2.2,0,0,1,718.51,722.05Z"/><path class="cls-3" d="M664.37,716.6c1.55,16.11,10,35.35,20.36,47.76a50.86,50.86,0,0,0,16.51,12.89c7.15,3.53,14.64,7.61,22,10.51a145.63,145.63,0,0,1,7.8,27.71c.23-.8.47-1.64.71-2.45-4.75-40.79-31.14-75.65-64.9-98A1.64,1.64,0,0,0,664.37,716.6Z"/><path class="cls-6" d="M676,728.65c-.24-.21.08-.64.34-.45,17.89,13.26,34,32.58,43,53,.24.56-.52,1-.84.49q-2.35-4.12-4.8-8.05h0c-7.71-1.45-15-6.87-20.72-12-.16-.14.07-.37.23-.23a47.52,47.52,0,0,0,9.74,6.85c3.15,1.59,6.53,2.6,9.8,3.88-2.86-4.54-5.84-8.88-8.94-13.1-8.3-2.82-16.19-7.92-23.16-13-.22-.16,0-.52.22-.37a230.88,230.88,0,0,0,21.52,11.51,193.71,193.71,0,0,0-15.19-17.72c-2.62-1.38-5.28-2.77-7.82-4.25-.2-.12-.07-.48.17-.4a28.45,28.45,0,0,1,6,3C682.54,734.66,679.4,731.62,676,728.65Z"/><path class="cls-6" d="M676.76,742.73a10.83,10.83,0,0,1,1.29.93c.13.11,0,.27-.16.21a9,9,0,0,1-1.35-.77A.22.22,0,0,1,676.76,742.73Z"/><polygon class="cls-1" points="784.47 903.79 691.97 903.79 699.44 819.55 701.08 800.98 775.37 800.98 777.01 819.55 784.47 903.79"/><polygon class="cls-6" points="777.01 819.55 699.44 819.55 701.08 800.98 775.37 800.98 777.01 819.55"/><rect class="cls-1" x="696.65" y="787.99" width="83.14" height="18.39"/><path class="cls-4" d="M602.82,244.24a22.7,22.7,0,1,1-24.57-20.66A22.71,22.71,0,0,1,602.82,244.24Z"/><path class="cls-6" d="M602.82,244.24c1.95,20.2-22.07,33-37.82,20-10-7.86-11.4-23.82-2.88-33.29,13.29-15.44,39.16-7,40.7,13.25Zm0,0c-1.76-19.75-26.88-27.43-39.28-12.05-7.54,8.84-6.3,23.26,2.65,30.68,14.86,13,38.29,1.13,36.63-18.63Z"/><path class="cls-4" d="M542.67,267.81A12.63,12.63,0,1,1,529,256.31,12.63,12.63,0,0,1,542.67,267.81Z"/><path class="cls-6" d="M542.67,267.81c1.16,11.26-12.44,18.68-21.31,11.47a13.32,13.32,0,0,1-1.66-19.11c7.5-8.63,22.19-3.65,23,7.64Zm0,0c-1.91-15.95-25-13.83-24.1,2.09,1.84,15.84,25,14,24.1-2.09Z"/><path class="cls-4" d="M801.08,146.9A66.31,66.31,0,0,1,709.51,216a55.62,55.62,0,0,1-88.47-.2,43.46,43.46,0,0,1-7.44,1.55,45.09,45.09,0,0,1-42.36-70.67,66.28,66.28,0,0,1,89.24-95.91A55.65,55.65,0,0,1,756,65.93a35.53,35.53,0,0,1,7.13-1.61A36.39,36.39,0,0,1,794.39,125,64.38,64.38,0,0,1,801.08,146.9Z"/><path class="cls-6" d="M801.08,146.9a66.55,66.55,0,0,1-91.72,69.45l.45-.12a56.15,56.15,0,0,1-89.3,0l.72.23a41.48,41.48,0,0,1-10.43,1.81c-38.13,2.38-62.25-40.8-40.36-72.13l0,1.17c-32.69-41-6.77-102.57,45.28-108.29a66.78,66.78,0,0,1,45.11,11.23l-.89.13c27-33.76,81.18-25.08,96.32,15.45l-.42-.19a32.66,32.66,0,0,1,8.86-1.72,36.63,36.63,0,0,1,33.4,16.6c9,13.48,7.42,32.7-3.69,44.49a63.29,63.29,0,0,1,6.64,21.91Zm0,0a64.62,64.62,0,0,0-6.76-22c11-11.77,12.52-30.9,3.47-44.22-8.63-13.64-26.83-19.87-42-14.37C740.9,26.45,687.53,17.74,661,51.19l-.38.47-.51-.34a65.32,65.32,0,0,0-44.18-10.75c-50.59,5.85-75.3,65.51-43.92,105.5l.45.58-.42.59C550.82,177.33,574,219,610.72,216.86A41.25,41.25,0,0,0,621.29,215a55.12,55.12,0,0,0,87.91.73l.19-.24.27.12c21.16,9.22,47.07,6,65.38-8,18.78-13.87,28.79-37.6,26-60.73Z"/><path class="cls-1" d="M694.09,147.87l-4.16,11.2a8.79,8.79,0,0,1-11.57,5.31,9,9,0,0,1-5.31-11.58l6.65-17.92c.06-.17.24-.1.3-.28-.11-.23-.11-.23,0-.41a9.26,9.26,0,0,1,11.57-5.31,20.59,20.59,0,1,0,14.32-38.6,20.3,20.3,0,0,0-20.05,3.34,9.06,9.06,0,0,1-12.87-1.25,8.94,8.94,0,0,1,1.36-12.62,38.62,38.62,0,1,1,19.8,68.12Zm-14,37.73-1.15,3.1A8.8,8.8,0,0,1,667.35,194a9,9,0,0,1-5.3-11.57l1.15-3.1A9.13,9.13,0,0,1,674.77,174,8.9,8.9,0,0,1,680.09,185.6Z"/></svg>