<svg id="Слой_1" data-name="Слой 1" xmlns="http://www.w3.org/2000/svg" viewBox="0 0 923 1000"><defs><style>.cls-1{fill:#ffc800;}.cls-2{fill:#472681;}.cls-3{fill:#fff;}.cls-4{fill:#33245e;}.cls-5{fill:#dcdcdc;}.cls-6{fill:#c8c8c8;}.cls-7,.cls-9{opacity:0.1;}.cls-8{fill:#c36358;}</style></defs><circle class="cls-1" cx="755.41" cy="193.31" r="103.81" transform="translate(84.56 590.78) rotate(-45)"/><circle class="cls-2" cx="750.66" cy="195.62" r="99.05" transform="translate(81.54 588.09) rotate(-45)"/><circle class="cls-3" cx="750.66" cy="195.62" r="92.8" transform="translate(81.54 588.09) rotate(-45)"/><path class="cls-1" d="M660,175.93c42.26,25.6,111.71,67.6,150.53,90.63a92.87,92.87,0,0,0,25.36-34.1l-128.39-119A92.94,92.94,0,0,0,660,175.93Z"/><path class="cls-1" d="M657.93,198.86A91.86,91.86,0,0,0,664.06,229L779.8,283.75a91.59,91.59,0,0,0,14.62-6.28C759.46,257.27,695.57,220.51,657.93,198.86Z"/><rect class="cls-2" x="749.76" y="109.56" width="1.79" height="14.07"/><rect class="cls-2" x="783.14" y="126.28" width="14.07" height="1.79" transform="translate(284.98 747.93) rotate(-60)"/><rect class="cls-2" x="812.07" y="155.21" width="14.07" height="1.79" transform="translate(31.7 430.5) rotate(-30)"/><rect class="cls-2" x="822.66" y="194.73" width="14.06" height="1.79"/><rect class="cls-2" x="818.2" y="228.1" width="1.79" height="14.07" transform="translate(205.79 826.8) rotate(-59.99)"/><rect class="cls-2" x="789.28" y="257.03" width="1.79" height="14.07" transform="translate(-26.24 430.11) rotate(-29.98)"/><rect class="cls-2" x="749.76" y="267.62" width="1.79" height="14.07"/><rect class="cls-2" x="704.11" y="263.17" width="14.07" height="1.8" transform="translate(126.89 747.91) rotate(-60)"/><rect class="cls-2" x="675.18" y="234.24" width="14.07" height="1.79" transform="translate(-26.15 372.68) rotate(-30.01)"/><rect class="cls-2" x="664.6" y="194.73" width="14.07" height="1.79"/><rect class="cls-2" x="681.32" y="149.07" width="1.79" height="14.07" transform="translate(205.76 668.72) rotate(-59.98)"/><rect class="cls-2" x="710.25" y="120.15" width="1.8" height="14.07" transform="translate(31.56 372.26) rotate(-29.97)"/><polygon class="cls-2" points="749.31 115.93 746.26 201.88 755.06 201.78 751.7 115.9 749.31 115.93"/><polygon class="cls-2" points="695.77 165.65 753.6 202.56 757.8 194.82 696.91 163.54 695.77 165.65"/><path class="cls-2" d="M747.65,195.62a3,3,0,1,0,3-3A3,3,0,0,0,747.65,195.62Z"/><path class="cls-4" d="M43.88,306.41a179.79,179.79,0,0,0-.85-22,177.79,177.79,0,0,0-3.25-21.82,177.9,177.9,0,0,0,.86,22A179.71,179.71,0,0,0,43.88,306.41Z"/><path class="cls-4" d="M56.85,308.93a179.77,179.77,0,0,0,10.28-19.51,178.14,178.14,0,0,0,8.1-20.52A176.32,176.32,0,0,0,65,288.41,178.86,178.86,0,0,0,56.85,308.93Z"/><path class="cls-4" d="M66.82,317.6a178,178,0,0,0,18.66-11.76,177,177,0,0,0,17.27-13.72,177,177,0,0,0-18.66,11.76A180.1,180.1,0,0,0,66.82,317.6Z"/><path class="cls-4" d="M71.11,330.1a180,180,0,0,0,22-.86A178.36,178.36,0,0,0,115,326a178.06,178.06,0,0,0-22,.86A178.36,178.36,0,0,0,71.11,330.1Z"/><path class="cls-4" d="M24.49,346.13A181.39,181.39,0,0,0,5.83,357.89a178.55,178.55,0,0,0-17.27,13.72A177,177,0,0,0,7.22,359.85,178.55,178.55,0,0,0,24.49,346.13Z"/><path class="cls-4" d="M20.2,333.64a180,180,0,0,0-22,.85,178.36,178.36,0,0,0-21.82,3.25,178.06,178.06,0,0,0,22.05-.86A180,180,0,0,0,20.2,333.64Z"/><path class="cls-4" d="M22.72,320.67A180.7,180.7,0,0,0,3.21,310.39a178.29,178.29,0,0,0-20.53-8.1A176.46,176.46,0,0,0,2.2,312.57,178.86,178.86,0,0,0,22.72,320.67Z"/><path class="cls-4" d="M31.39,310.71A177.14,177.14,0,0,0,19.63,292,177,177,0,0,0,5.91,274.77a177,177,0,0,0,11.76,18.66A179.9,179.9,0,0,0,31.39,310.71Z"/><path class="cls-2" d="M578.74,853.47c2.67,3.39,227.12,13.46,237.81,10.39a7.1,7.1,0,0,0,1.49-.63c13.21-6.19,70-49,79-67.1,7.27-14.52-35.55-93.38-50.47-106.89-9.93-9-28.35-12.51-28.35-12.51s-52-150-84-181.42c-8-7.88-147.23-11-172.1.38-10.64,4.86-36.55,31.32-37.25,36.06v0C524.16,538.72,576.06,850,578.74,853.47Z"/><path class="cls-4" d="M577.14,853.47c2.67,3.39,227.12,13.46,237.81,10.39a7.1,7.1,0,0,0,1.49-.63c-21.5-58.15-122.61-331-125.48-332.77s-135.89-1-167.73,1.34C522.56,538.72,574.46,850,577.14,853.47Z"/><path class="cls-2" d="M659.57,506.38c2.25-2.12,3.73-32.62-.39-38.68-4.62-6.81-58-3.45-61.15,2.36s-4.65,36.27-3,37.37,10.51,2.15,11.7.2,1.13-27.16,2.07-28.48,38.32-3.77,39.61-1.85-1.85,27.41-.35,28.53S657.39,508.43,659.57,506.38Z"/><rect class="cls-5" x="773.4" y="640.05" width="18.2" height="20.93" transform="translate(1767.12 907.44) rotate(154.89)"/><rect class="cls-6" x="774.3" y="652.72" width="29.67" height="23.9" transform="translate(1785.77 931.59) rotate(154.89)"/><path class="cls-1" d="M774.83,717.24l46.42,99,63.86-29.93s-37.23-79.43-46.41-99-28.6-29-48.2-19.77S765.65,697.64,774.83,717.24Z"/><path class="cls-7" d="M774.83,717.24l46.42,99,63.86-29.93s-37.23-79.43-46.41-99-28.6-29-48.2-19.77S765.65,697.64,774.83,717.24Z"/><path class="cls-3" d="M797.41,673.33a2.75,2.75,0,1,0,1.32-3.66A2.75,2.75,0,0,0,797.41,673.33Z"/><path class="cls-3" d="M776.18,710.58a2.75,2.75,0,1,0,1.33-3.66A2.76,2.76,0,0,0,776.18,710.58Z"/><path class="cls-3" d="M805.61,699.82a2.75,2.75,0,1,0,1.33-3.66A2.76,2.76,0,0,0,805.61,699.82Z"/><path class="cls-3" d="M814.27,724.77a2.75,2.75,0,1,0,1.33-3.65A2.75,2.75,0,0,0,814.27,724.77Z"/><path class="cls-3" d="M851.63,737.56a2.75,2.75,0,1,0,1.32-3.65A2.75,2.75,0,0,0,851.63,737.56Z"/><path class="cls-3" d="M843.76,714.29a2.74,2.74,0,1,0,1.32-3.66A2.75,2.75,0,0,0,843.76,714.29Z"/><path class="cls-3" d="M832.15,691.14a2.75,2.75,0,1,0,1.32-3.66A2.75,2.75,0,0,0,832.15,691.14Z"/><path class="cls-3" d="M814.64,681.86A2.75,2.75,0,1,0,816,678.2,2.75,2.75,0,0,0,814.64,681.86Z"/><path class="cls-3" d="M823.72,707.7A2.75,2.75,0,1,0,825,704,2.75,2.75,0,0,0,823.72,707.7Z"/><path class="cls-3" d="M786.79,692.26a2.74,2.74,0,1,0,1.32-3.65A2.75,2.75,0,0,0,786.79,692.26Z"/><path class="cls-3" d="M795.1,717.83a2.74,2.74,0,1,0,1.32-3.65A2.74,2.74,0,0,0,795.1,717.83Z"/><path class="cls-3" d="M833.23,731.47a2.75,2.75,0,1,0,1.32-3.65A2.73,2.73,0,0,0,833.23,731.47Z"/><path class="cls-3" d="M815.64,763.68A2.74,2.74,0,1,0,817,760,2.74,2.74,0,0,0,815.64,763.68Z"/><path class="cls-3" d="M824.78,782.22a2.75,2.75,0,1,0,1.33-3.65A2.76,2.76,0,0,0,824.78,782.22Z"/><path class="cls-3" d="M841.15,752.26a2.75,2.75,0,1,0,1.32-3.66A2.76,2.76,0,0,0,841.15,752.26Z"/><path class="cls-3" d="M867,775.74a2.74,2.74,0,1,0,1.32-3.65A2.75,2.75,0,0,0,867,775.74Z"/><path class="cls-3" d="M823,747.1a2.75,2.75,0,1,0,1.33-3.66A2.76,2.76,0,0,0,823,747.1Z"/><path class="cls-3" d="M832.2,767.45a2.74,2.74,0,1,0,1.32-3.65A2.73,2.73,0,0,0,832.2,767.45Z"/><path class="cls-3" d="M841.64,787.6A2.74,2.74,0,1,0,843,784,2.73,2.73,0,0,0,841.64,787.6Z"/><path class="cls-3" d="M833.36,802.86a2.74,2.74,0,1,0,1.32-3.65A2.74,2.74,0,0,0,833.36,802.86Z"/><path class="cls-3" d="M858.37,756.63a2.75,2.75,0,1,0,1.32-3.66A2.75,2.75,0,0,0,858.37,756.63Z"/><path class="cls-3" d="M850.13,771.41a2.74,2.74,0,1,0,1.32-3.65A2.74,2.74,0,0,0,850.13,771.41Z"/><path class="cls-3" d="M817.14,799.09a2.75,2.75,0,1,0,1.32-3.66A2.75,2.75,0,0,0,817.14,799.09Z"/><path class="cls-3" d="M858.73,791.21a2.74,2.74,0,1,0,1.32-3.65A2.73,2.73,0,0,0,858.73,791.21Z"/><path class="cls-3" d="M798.17,759.59a2.75,2.75,0,1,0,1.32-3.66A2.75,2.75,0,0,0,798.17,759.59Z"/><path class="cls-3" d="M807.32,779.11a2.75,2.75,0,1,0,1.32-3.65A2.74,2.74,0,0,0,807.32,779.11Z"/><path class="cls-3" d="M805.55,743.54a2.75,2.75,0,1,0,1.32-3.66A2.75,2.75,0,0,0,805.55,743.54Z"/><path class="cls-3" d="M786.27,737.44a2.74,2.74,0,1,0,1.32-3.65A2.74,2.74,0,0,0,786.27,737.44Z"/><path class="cls-2" d="M892.59,787.73c-5.4,26.46-64.16,55-68.16,54.85s-43-96.65-43-96.65,47.53-15.62,69-43.37C850.42,702.56,894.28,779.48,892.59,787.73Z"/><path class="cls-2" d="M439,1006.88H666.43c13.85-52.84,26.57-99.55,34.68-129,5.09-18.53,8.36-30.29,9-32.5l.11-.38H473.73s-2.69,12.36-7.21,33.16c-2.86,13.39-6.51,30.32-10.67,49.67-.36,1.69-.74,3.41-1.09,5.18C450,955.13,444.63,980.26,439,1006.88Z"/><path class="cls-4" d="M632,1006.88h4.27q17.43-64.3,34-128.84l.93-3.62a.81.81,0,0,0-1.55-.46c-.41,1.36-.82,2.72-1.2,4.08C655.92,920.86,643.86,963.84,632,1006.88Z"/><path class="cls-2" d="M492.19,845.35c.92,7.35,3.81,19.25,8.08,33.16,2.64,8.6,5.83,17.91,9.45,27.49.76,2.18,1.63,4.3,2.47,6.48,11.46,29.21,26.55,59,41.92,73.09l.06,0h.05a38.37,38.37,0,0,0,5.94,4.66l13.17,8.14a.44.44,0,0,0,.06.19v0l1.36,8.27H796.52c5.66-51.39-6.15-99.49-16.47-129.63a267.59,267.59,0,0,0-12.88-31.9Z"/><path class="cls-4" d="M518.54,973.05c13.85,7.94,28.42,14.26,43,20.57,3.92,1.69,7.84,3.35,11.82,5h0a7.65,7.65,0,0,0,.74.3c3.43,1.41,6.86,2.77,10.32,4.11s6.69,2.64,10.1,3.89h7.51c-5.17-2.61-10.59-4.82-15.84-7.16q-11-4.89-22-9.72c-3.35-1.44-6.7-2.91-10-4.41l-.11,0c-11.46-5.09-22.89-10.18-34.67-14.48A1.09,1.09,0,0,0,518.54,973.05Z"/><path class="cls-4" d="M573.33,998.74c0,1.74.14,4.6.47,8.14h2.47c-.76-3.32-1.47-6-2.12-8a1,1,0,0,0-.08-.22.36.36,0,0,0-.66-.08h0v0A.13.13,0,0,0,573.33,998.74Z"/><path class="cls-4" d="M745.7,859.18c3,6,5.71,12.09,8.24,18.32C769,915,775.2,956.17,770.69,996.4c-.41,3.51-.9,7-1.45,10.48h3.92a245.79,245.79,0,0,0,2.64-30.65,233.72,233.72,0,0,0-19.38-98.79c-2.83-6.47-6-12.82-9.42-19C746.54,857.6,745.26,858.34,745.7,859.18Z"/><path class="cls-4" d="M578.9,936.86c-.22-8.54-.82-17.08-1.24-25.61-1-20.15-1.78-40.41-3.65-60.5a.63.63,0,0,0-1.25,0c-.26,15.59.35,31.22.66,46.8.16,7.8.39,15.6.6,23.4.2,7.41.7,14.93.15,22.34-.42,5.62-1.65,16.54-9,17.22-6.91.63-12.38-6.82-14.11-12.29-4.38-13.87-5.94-28.86-7.36-43.28-.83-8.55-1.82-43.33-1.35-52,0-.56-.84-.53-.87,0-.48,8.8-1.68,17.55-2,26.4s-.32,17.59.25,26.36c.55,8.42,1.25,16.87,2.52,25.21,1.14,7.5,2.4,15.28,5.42,22.3,2.54,5.9,6.91,11.34,13.54,12.63a14.09,14.09,0,0,0,2.46.26c.08,1.8.33,3.62.45,5.41.2,2.82.55,5.63.93,8.44a63.32,63.32,0,0,0,1.73,8.16,30.16,30.16,0,0,0,2.86,7.8.43.43,0,0,0,.8-.23,38.23,38.23,0,0,0-.67-8c-.37-2.74-.76-5.52-1.32-8.23s-1-5.34-1.6-8c-.37-1.79-.62-3.63-1-5.45a13.1,13.1,0,0,0,9.79-7.7C578.83,951.75,579.08,944,578.9,936.86Z"/><path class="cls-8" d="M583,550.35c-28.69,35.93-141.15,163.51-203.65,175.36-42.1,8-177.33-60.77-207-85.67C160.26,629.85,228,529,244.42,533c17.88,4.41,115.22,69.09,127.86,68.36s112.33-56.77,172.81-81.65C581.33,504.81,599.15,530.13,583,550.35Z"/><path class="cls-8" d="M209.53,664.05c-26-10-104.89-65.35-118-79.7s-47.81-58.41-37.83-69.56,21.17.93,21.17.93S61.75,493,74.25,484.49c10-6.79,26.62,9.39,26.62,9.39s-13.09-25.65.38-32.51c12.29-6.25,25.83,15.72,25.83,15.72s-8.78-22.57,4.21-26.31c15.63-4.5,30.84,34.57,46.49,49.33C181.34,503.47,286.33,555,286.33,555Z"/><path class="cls-4" d="M127.65,475.94C142,504,148.8,515.25,173.26,533.22c.48.35.06,1.14-.47.82-25.55-15.42-34.54-28.14-46.55-57.63C125.66,475,127,474.63,127.65,475.94Z"/><path class="cls-4" d="M101.17,493.86c14.3,28.79,25.23,39.67,49.46,60.38.34.3-.12.91-.49.64-25.47-18.33-39.49-30.14-50-60.78C99.66,492.71,100.52,492.54,101.17,493.86Z"/><path class="cls-4" d="M76.1,516.75c15.85,26.88,27,40.1,53.05,57.18a.58.58,0,0,1-.57,1C100.27,560.1,86.3,543.7,75.33,517.32,74.58,515.52,75.1,515.06,76.1,516.75Z"/><path class="cls-3" d="M-28.65,596.12c69,20.15,136.94,40.31,203.14,60.46,39.59-89,45.45-177.93,72.55-266.9-69.11-20.16-137.13-40.32-203.41-60.48C4.15,418.17-1.61,507.15-28.65,596.12Z"/><path class="cls-4" d="M2.21,462.73C11.89,418.14,23.13,373.55,42.85,329l.36-.81.78.23c66.29,20.05,134.3,40.1,203.4,60.15l1.15.33c-.11.39-.23.77-.35,1.16-27.2,88.92-33.23,177.84-73,266.77l-.33.72-.68-.21Q124.52,642,73.63,626.75,23,611.43-28.65,596.12C-15.34,551.66-7.34,507.19,2.21,462.73ZM74.33,626q50.79,15,100.48,29.91l-1,.51c39.4-89,45.07-178,72.09-267l.79,1.48C177.58,370.56,109.55,350.29,43.27,330l1.14-.58c-19.76,44.38-31.14,88.77-41,133.15s-18.37,89-32.09,133.53Q23.27,611,74.33,626Z"/><path class="cls-5" d="M214.38,428.57Q155.87,411.76,98.09,395c-.68,2.28-1.34,4.57-2,6.85Q154,418.62,212.7,435.42,213.53,432,214.38,428.57Z"/><path class="cls-5" d="M210.24,445.86q-58.8-16.8-117-33.61c-.62,2.28-1.22,4.57-1.81,6.85q58.32,16.81,117.26,33.62C209.19,450.43,209.71,448.15,210.24,445.86Z"/><path class="cls-5" d="M206.34,463.16q-59-16.8-117.58-33.61c-.56,2.28-1.12,4.57-1.67,6.85Q145.76,453.22,204.84,470Z"/><path class="cls-5" d="M202.6,480.46Q116,455.83,30,431.21c-.56,2.28-1.11,4.57-1.65,6.85,57.31,16.42,115,32.84,172.76,49.25Q201.86,483.89,202.6,480.46Z"/><path class="cls-5" d="M198.92,497.76q-86.61-24.63-173-49.25c-.53,2.28-1.05,4.57-1.56,6.85Q110.69,480,197.46,504.61C198,502.33,198.43,500,198.92,497.76Z"/><path class="cls-5" d="M195.21,515.06Q108.7,490.43,22.07,465.81c-.5,2.28-1,4.57-1.49,6.85q86.52,24.63,173.14,49.25C194.22,519.63,194.72,517.34,195.21,515.06Z"/><path class="cls-5" d="M191.39,532.36q-86.28-24.63-173-49.25c-.49,2.28-1,4.56-1.46,6.85q86.61,24.63,173,49.25C190.35,536.93,190.88,534.64,191.39,532.36Z"/><path class="cls-5" d="M187.37,549.66Q101.44,525,14.66,500.4c-.48,2.29-1,4.57-1.46,6.86,57.71,16.41,115.33,32.83,172.49,49.25Q186.55,553.08,187.37,549.66Z"/><path class="cls-5" d="M183.05,567Q97.6,542.33,10.94,517.7c-.49,2.29-1,4.57-1.5,6.86q86.4,24.62,171.79,49.25C181.85,571.52,182.45,569.24,183.05,567Z"/><path class="cls-5" d="M178.34,584.25Q93.52,559.64,7.1,535q-.78,3.43-1.58,6.85,86.1,24.63,170.83,49.26C177,588.82,177.69,586.54,178.34,584.25Z"/><path class="cls-5" d="M173.16,601.55Q89.07,576.92,3,552.3c-.55,2.28-1.11,4.57-1.69,6.85Q87,583.78,171,608.4,172.09,605,173.16,601.55Z"/><path class="cls-5" d="M167.41,618.85Q84.19,594.22-1.34,569.6c-.6,2.28-1.21,4.57-1.84,6.85Q81.95,601.08,165,625.7C165.8,623.42,166.62,621.13,167.41,618.85Z"/><path class="cls-8" d="M286.33,555s-25.55-26.16-37.06-39.18-38.94-54.28-53.84-53.29c-16.72,1.12-4.65,44.58,15.7,68,0,0-27,43.13-8.56,66.52,4,5.06,33.15,21.06,40.4,19.58Z"/><path class="cls-4" d="M212.35,533.58C201.23,550,193.49,575,201.46,593.05a.46.46,0,0,1-.8.44c-11.18-18.25-2.49-47.22,8.34-61.29C211.08,529.5,215.23,529.33,212.35,533.58Z"/><path class="cls-1" d="M286.33,555l-76.8,109.08a34,34,0,0,0,21.1,32.52c22.9,10,117.67,44.22,155.19,31.55s144.6-104.9,190.78-166.26-22.09-49.13-35.07-43.31S375.84,596.36,370.4,596.23s-40.94-27.06-57.65-35.43S286.33,555,286.33,555Z"/><path class="cls-7" d="M331.1,727.29c21.61,4,41.65,5.27,54.7.84,37.55-12.7,144.62-104.93,190.8-166.29,2.92-3.88,5.38-7.47,7.44-10.76Z"/><g class="cls-9"><path d="M264.07,709.18c2.78.94,5.69,1.9,8.67,2.86a65,65,0,0,0,.65-9.59c0-6.08-.48-12-.41-17.81a86.66,86.66,0,0,1,1.69-17.27,59.71,59.71,0,0,1,5.79-16c.65-1.25,1.4-2.47,2.09-3.6s1.49-2.22,2.29-3.32c1.7-2.19,3.48-4.45,5.33-6.66l11.06-13.44c3.75-4.52,7.45-9.06,11.11-13.7s7.19-9.45,10.5-14.48A103.24,103.24,0,0,0,331.67,580a59.25,59.25,0,0,0,2.16-6.34c-3.1-2-6.15-4-9-5.85a71.59,71.59,0,0,1-3.29,7.6,145.61,145.61,0,0,1-8.78,14.09c-6.44,9.37-13.22,18.82-20,28.37-3.39,4.78-6.88,9.52-10.05,14.59-1.59,2.52-3.17,5.07-4.59,7.84-.7,1.39-1.4,2.76-2,4.3s-1.08,2.93-1.52,4.42c-3.56,11.83-4.08,23.76-5.45,35.41A141,141,0,0,1,264.07,709.18Z"/><path d="M294.4,718.58c2.34.67,4.67,1.32,7.05,1.95,2.88-9.95,3.05-19.76,3.27-29.45l.12-15c0-2.48.09-4.93.19-7.36a45.48,45.48,0,0,1,.7-7,7.13,7.13,0,0,1,.41-1.54l.6-1.63.72-1.59c.26-.53.58-1,.84-1.56a31.74,31.74,0,0,1,4.33-5.75,53.34,53.34,0,0,1,11.66-9c2.14-1.3,4.35-2.43,6.58-3.59l6.76-3.43c4.49-2.38,9.16-5,12.86-9.28a23.22,23.22,0,0,0,2.5-3.49c.36-.63.67-1.3,1-2l.74-1.92a47.48,47.48,0,0,0,1.95-7.79,78.45,78.45,0,0,0,.91-15.48c-.05-1.52-.14-3-.26-4.55q-2.31-1.47-4.88-3.17c0,2.57-.07,5.12-.22,7.67a99.75,99.75,0,0,1-1.63,14.4,49.31,49.31,0,0,1-1.88,6.73l-.62,1.59c-.24.45-.41.94-.68,1.42a22.08,22.08,0,0,1-1.7,2.71,51.74,51.74,0,0,1-10.2,9.76c-3.91,3-8.17,5.73-12.38,8.49a100.64,100.64,0,0,0-12.38,8.89,41.18,41.18,0,0,0-5.46,5.65,37.72,37.72,0,0,0-2.28,3.3l-1,1.75a15.78,15.78,0,0,0-.85,2,41.36,41.36,0,0,0-1.75,7.79c-.41,2.55-.63,5.09-.84,7.62-.41,5.05-.65,10.05-1,15s-.7,9.9-1.18,14.76A95.81,95.81,0,0,1,294.4,718.58Z"/></g><path class="cls-1" d="M791.53,893.06c-.23.31-328.32-15-330.45-17-1-.94-5.24-19.61-.22-45.54C476,752.68,521.11,593.84,561,526.61c9.94-16.78,54.8-41.55,87.35-9.77,66,64.43,117.82,228.41,138.23,318.43C796.51,879.29,792.9,891.18,791.53,893.06Z"/><g class="cls-9"><path d="M462.33,823c1,0,2,.07,2.93.14,8.85.67,18.37,2.48,27.74,4.38,18.88,3.84,38.08,8.17,57.44,12.47,9.69,2.14,19.37,4.4,29.35,6,5,.79,10,1.58,15.24,2,2.65.17,5.24.36,8.08.31s5.24-.26,7.86-.58c20.8-2.23,39.72-9.27,58.83-14.83s38.82-9.35,56.37-9.28c4.33,0,9,.36,13.68.8s9.38,1.13,14.11,1.82c9.45,1.52,19,3.42,28.52,5.48,1.15.24,2.28.51,3.43.77-1.15-5-2.42-10.33-3.77-15.79A237,237,0,0,0,757,809.93c-5-1.08-10.07-1.94-15.24-2.59-2.59-.31-5.19-.58-7.81-.72a61.8,61.8,0,0,0-8.18-.07c-11,.48-21.3,3.75-30.72,7.74s-18.32,8.6-27.45,12.38a144.4,144.4,0,0,1-28,8.75,101.55,101.55,0,0,1-28.73,1.51c-2.34-.17-4.76-.53-7-.84s-4.4-.89-6.66-1.42c-4.57-1.22-9.23-2.5-13.87-3.89L555,822.39c-9.47-2.86-19-5.65-28.68-8.27s-19.44-5-29.47-6.81c-9.86-1.68-19.79-3.07-30.46-3C464.9,810.87,463.55,817.15,462.33,823Z"/><path d="M476.63,762.05a163.47,163.47,0,0,1,20.44-5.82,80.1,80.1,0,0,1,11.73-1.54l2.86-.07c.89.07,1.75,0,2.64.12a43.38,43.38,0,0,1,5.39.86c7.21,1.76,14.69,5.34,21.92,9.45S555.94,774,563,778.78s14.16,9.64,22,13.41A70.63,70.63,0,0,0,597.44,797a61.44,61.44,0,0,0,6.63,1.4l3.42.36a28.09,28.09,0,0,0,3.67,0,68.87,68.87,0,0,0,13.3-2.38c4.23-1.06,8.34-2.38,12.4-3.73,8.15-2.69,16.11-5.6,24.07-8.36s15.89-5.46,23.77-7.91a158,158,0,0,1,23.47-5.77,43.49,43.49,0,0,1,11.22-.24,81.65,81.65,0,0,1,11.66,2.18,193.08,193.08,0,0,1,23.42,7.89q10.32,4.18,20.53,8.94c-.75-2.76-1.51-5.55-2.31-8.39q-7.17-4.4-14.64-8.32a168.51,168.51,0,0,0-24-10.43A89.9,89.9,0,0,0,721,758.9a52.3,52.3,0,0,0-14.12-.53c-18.27,1.82-34.35,8.27-50.17,14.59l-23.46,9.69c-3.87,1.61-7.77,3.12-11.61,4.59a81.44,81.44,0,0,1-11.37,3.53,21.16,21.16,0,0,1-2.7.39l-2.93.12-3-.07c-1-.07-2-.19-3-.29a54.19,54.19,0,0,1-11.8-2.93,92.87,92.87,0,0,1-21.71-12.26c-3.39-2.48-6.61-5.22-9.91-7.89l-9.8-8.29c-6.66-5.44-13.83-11-23-13.9a36.84,36.84,0,0,0-7.07-1.59c-1.23-.16-2.48-.19-3.7-.26l-3.49.1A78.76,78.76,0,0,0,494.81,746a110.13,110.13,0,0,0-15.24,4.76C478.58,754.57,477.59,758.34,476.63,762.05Z"/></g><path class="cls-1" d="M682.75,524.58C789.86,570,873,609.52,861,650.68c-4.75,16.16-32.7,59.75-68.62,59.69-28.23,0-78.55-45.29-135.87-124.5C626.84,544.94,615.13,495.91,682.75,524.58Z"/><path class="cls-4" d="M663.76,607.65c4.57,3.79,9.12,7.64,13.57,11.59-1-1.11-1.92-2.2-2.86-3.32-7.67-9.08-15.24-18.24-22.81-27.39-.16-.19.15-.44.32-.26,14.42,15.34,29,30.54,43.45,45.82s52.65,54,61.9,61.63c.19.16-.05.48-.25.32-8.36-6.53-31.85-26.19-39.34-33.53q-17-16.62-32.66-34.32a271.4,271.4,0,0,1-21.82-20C663,607.88,663.46,607.4,663.76,607.65Z"/><path class="cls-8" d="M822.64,685.51c46.84-19.2,77.18-161.26,88.67-256.87,2.18-18.2-141.68-35.74-141.79-16.14C768.9,524.33,771.35,706.55,822.64,685.51Z"/><path class="cls-8" d="M929.4,354.11c-.86,30.51-27,106.88-39,119.34S787.08,442.31,782,425.28s-9.37-116.87,10.77-140.62S930.28,322.51,929.4,354.11Z"/><path class="cls-8" d="M769.11,327.41c8,14.07,20-3.38,20-3.38s-11.24,29.28,2.59,40.6c13.36,10.87,27.13-10.72,28.13-12.25-.58,1.55-10.2,28.73,4.87,38.68,15.67,10.32,25.77-13.73,26.41-15.29-.08,1.64-.88,23.34,12.29,28.3,22.63,8.49,26.18-46.94,41.41-59.24,0,0,23.77,11,24.6,11.58,0,0,4.47-40.29-13.26-59.9-9.35-10.34-20.83-3.67-20.83-3.67s3.32-16.82-8.3-25c-6-4.2-18,1.63-18,1.63s2.09-13.58-8.7-20.23c-8.59-5.34-19.32,1.33-19.32,1.33s-4-14-14.59-16.57C805.14,228.69,752.06,297.28,769.11,327.41Z"/><path class="cls-4" d="M839.13,251.35a.23.23,0,0,0-.3-.35c-23,18.3-42.58,45.44-50.48,73.9-.26.93,1.14,1.76,1.62.79C803.73,297.92,818.16,274.37,839.13,251.35Z"/><path class="cls-4" d="M869.13,269c.23-.25-.18-.63-.46-.4-23.56,19-44.81,50.16-50.06,84-.18,1.16.82,2.39,1.13,1.07C824.94,331.44,850.15,289.63,869.13,269Z"/><path class="cls-4" d="M851.55,378.26c6.29-32.28,22.3-59.3,42.74-84.69.26-.33-.23-.67-.53-.46-13.38,9.7-24.72,27.24-32.38,41.63-7.35,13.79-11.2,27.71-11,43.3C850.43,378.65,851.42,379,851.55,378.26Z"/><path class="cls-4" d="M789.1,324a98.7,98.7,0,0,0-3.29,17.77c-.44,5.91-.23,12.15,2.29,17.13a10.85,10.85,0,0,0,5.69,5.34,15.83,15.83,0,0,0,8,.94c5.28-.77,9.86-4.91,12.64-9.39l7-11.27-2.63,13a54.29,54.29,0,0,0-.81,17.56c.75,5.7,3,11.18,7.36,14.05,4.49,3.09,9.86,3.16,13.94-.33,4.18-3.28,7.34-8.69,9.39-13.92l5.74-14.62-.64,15.62a51,51,0,0,0,1.12,13c1,4.17,2.62,8.22,5.45,10.82s7,3.63,10.29,2.22c3.51-1.44,6.42-5,8.83-8.64,4.85-7.49,8.14-16.13,11.84-24.52,1.82-4.22,3.64-8.46,5.67-12.62s4.23-8.4,7.88-11.31c-3.31,3.25-4.92,7.67-6.72,11.83s-3.17,8.59-4.66,12.94c-3,8.7-6.09,17.42-10.79,25.68-2.47,4-5.29,8.26-10.26,10.69-5.16,2.47-11.36.91-15.3-2.68s-6-8.57-7.13-13.25a55.74,55.74,0,0,1-1.46-14.41l5.1,1c-2.37,6.2-5.47,12-10.93,16.56a16,16,0,0,1-10.2,3.76,18.08,18.08,0,0,1-10.18-3.4c-6.09-4.23-8.59-11.42-9.32-17.79a59,59,0,0,1,1.19-19.3l4.34,1.75c-3.72,5.57-9.32,10-16.23,10.78a19.47,19.47,0,0,1-9.79-1.67,14,14,0,0,1-7-7.12c-2.66-6.12-2.11-12.58-1.27-18.59A81,81,0,0,1,789.1,324Z"/><path class="cls-8" d="M779.14,431.82S705,296,774.22,294.19c16.74-.44,83.66,26.68,78.83,40.23-6.24,17.49-36.17,12.13-54.42,5.78,0,0,22,38.67-.41,62C784.19,416.81,779.14,431.82,779.14,431.82Z"/><path class="cls-4" d="M769.52,294.12c6.59-.53,13.19.72,19.62,2.11a147.37,147.37,0,0,1,19,5.75c12.37,4.72,24.45,9.76,36,16.67a37.16,37.16,0,0,1,8.28,6.5,13.86,13.86,0,0,1,3.09,5.16,9.94,9.94,0,0,1,.52,3.28,10.47,10.47,0,0,1-.62,3.22,16.63,16.63,0,0,1-7.57,8.73,31.17,31.17,0,0,1-10.28,3.32,59.79,59.79,0,0,1-20.42-1,135.09,135.09,0,0,1-19.26-5.46L800.6,339a80.76,80.76,0,0,1,5.71,14.07,74.52,74.52,0,0,1,2.94,14.79,50.67,50.67,0,0,1-.92,15,38.88,38.88,0,0,1-5.73,13.68,43.83,43.83,0,0,0,4.16-13.95,53,53,0,0,0-.39-14.4,70.63,70.63,0,0,0-3.61-13.93,76.52,76.52,0,0,0-6.1-12.92l-3-5,5.75,1.7a143.58,143.58,0,0,0,18.7,4.67c6.26,1,12.66,1.73,18.67.74,5.83-.89,11.84-3.62,13.49-8.41,1.81-4.08-3.73-8.68-8.89-12a189,189,0,0,0-16.9-9.42c-5.81-3-11.65-5.86-17.62-8.44C794.85,300.26,782.63,295.15,769.52,294.12Z"/><path class="cls-1" d="M763.74,440.12l149.61,32.71s9.85,28.36,1.16,57.79C898,586.5,848.74,706.44,809,703.66c-43-3-53.47-152.94-52.75-226.34C756.48,452.55,763.74,440.12,763.74,440.12Z"/><g class="cls-9"><path d="M756.32,498.46c0,3.15.12,6.4.22,9.69,3.6,1.81,7.31,3.51,11.1,5,2.82,1.11,5.7,2.12,8.63,3,1.49.43,3,.87,4.5,1.2a41,41,0,0,0,4.74.84,53.17,53.17,0,0,0,18.68-1.53c5.89-1.37,11.51-3.25,17.21-4.55a85.06,85.06,0,0,1,17.16-2.35,59.88,59.88,0,0,1,16.9,1.9c1.35.33,2.72.76,4,1.17s2.48.94,3.76,1.47c2.52,1.15,5.12,2.36,7.71,3.63l15.65,7.64c5.24,2.58,10.56,5.15,15.92,7.6,3.24,1.54,6.56,3,9.93,4.33.74-2.38,1.44-4.64,2.09-6.83.5-1.66.94-3.32,1.27-5-8.2-3.22-16.49-6.58-24.81-10-5.46-2.17-10.86-4.45-16.54-6.37-2.83-.94-5.67-1.9-8.68-2.62-1.51-.36-3-.72-4.68-1s-3.08-.37-4.62-.44c-12.36-.72-24.06,1.54-35.72,2.91s-23.56,1.66-33.78-.07c-2.53-.43-5.19-1.08-7.89-1.8s-5.36-1.57-8-2.46C766.11,502.24,761.22,500.41,756.32,498.46Z"/><path d="M757.14,524.72c.07,1.73.14,3.46.24,5.21,2,1.66,4,3.27,6,4.84a103.68,103.68,0,0,0,12.94,8.41,56.16,56.16,0,0,0,7.33,3.2,32.11,32.11,0,0,0,8.17,1.68c10.84.7,20.82-1.49,30.68-3.63l14.62-3.37c2.4-.55,4.8-1,7.21-1.53a49,49,0,0,1,7-1,12,12,0,0,1,1.59.05l1.73.22,1.73.34c.55.12,1.13.31,1.7.45a32.15,32.15,0,0,1,6.59,2.86,53.12,53.12,0,0,1,11.44,9.26c1.76,1.78,3.37,3.68,5,5.55l4.9,5.8c3.35,3.82,7,7.74,12,10.33a10,10,0,0,0,1.52.7c.74-2,1.47-3.87,2.19-5.79-.36-.15-.75-.27-1.11-.44a52.34,52.34,0,0,1-11.85-7.64c-3.85-3.13-7.48-6.61-11.13-10.07a99.9,99.9,0,0,0-11.57-10,41,41,0,0,0-6.73-4c-1.22-.55-2.47-1-3.75-1.44l-1.94-.56c-.68-.14-1.47-.29-2.14-.36a41.63,41.63,0,0,0-8,.1c-2.57.22-5.09.58-7.59,1-5,.79-9.93,1.71-14.84,2.55s-9.78,1.63-14.61,2.28a92.17,92.17,0,0,1-14.23,1.08,25.91,25.91,0,0,1-6.59-1,47.68,47.68,0,0,1-6.56-2.4,110.4,110.4,0,0,1-12.89-6.88Q761.63,527.78,757.14,524.72Z"/></g><path class="cls-4" d="M765.66,480.39c74,20.77,127.5,30.4,137.8,32a.22.22,0,0,0,.12-.42c-51.43-15.77-132.8-32.08-137.79-32.49C765.24,479.45,765.18,480.26,765.66,480.39Z"/><path class="cls-4" d="M758.36,569.33c1.75,14,5.74,36.26,9,50,.2.86.41,1.73.62,2.6a81.21,81.21,0,0,0-1.38,14.95c0,5.85.52,11.65,1.11,17.47a.2.2,0,0,0,.39,0,115.64,115.64,0,0,1,.15-17.36c.26-3.45.54-6.91.84-10.36,3.14,13.13,6.46,26.23,10.55,39.1.08.24.42.1.37-.13-3.1-14-6.39-27.91-9-42s-8.44-47.06-10.9-61C758.18,551.51,757.82,565,758.36,569.33Z"/><path class="cls-8" d="M622,510.94c-1.74,5.13-30.09,36.73-54,33.27-7.77-1.14-3.44-43.82-3.44-43.82l-.4-3.23L558.63,452l63.06-31.92S622.7,508.76,622,510.94Z"/><path class="cls-4" d="M558.64,452l5.59,45.11.38,3.25s-.77,7.73-1.08,16.68c33.14-1.67,50.5-24.75,58.67-41.05-.14-25.6-.51-55.91-.51-55.91Z"/><path class="cls-8" d="M488.31,375.08c-23,94.68,31.09,119.16,51.51,124.09,18.54,4.49,82.24,17.41,114.91-74.39s-4.07-132.43-45.93-144.93S511.32,280.4,488.31,375.08Z"/><path class="cls-4" d="M515.51,377.81a65.53,65.53,0,0,0,6.72-.26c2.58-.13,4.65,0,6.81-1.58a3.47,3.47,0,0,0,.7-4.17c-1.71-2.81-4.9-3.44-8-3.41a12.64,12.64,0,0,0-8.56,3.08C510.65,373.55,512.47,377.65,515.51,377.81Z"/><path class="cls-4" d="M582.86,392.23a66.14,66.14,0,0,1-6.26-2.47c-2.39-1-4.39-1.51-5.9-3.74a3.46,3.46,0,0,1,.72-4.17c2.54-2.09,5.76-1.62,8.69-.56a12.59,12.59,0,0,1,7.06,5.73C588.85,389.82,585.78,393.08,582.86,392.23Z"/><path class="cls-4" d="M554.36,457.61c-1.75,1.38-3.55,3.33-6,3.28s-4.89-1.38-6.91-2.43a.23.23,0,0,0-.32.31,8.91,8.91,0,0,0,8,4.48c3.05-.19,4.8-2.62,5.82-5.27C555.1,457.61,554.61,457.41,554.36,457.61Z"/><path class="cls-3" d="M530.47,441.86s2.71,7.23,8.14,11.11a12.24,12.24,0,0,0,7,2.5c5.56.12,7-4.59,7.26-8.91a29.34,29.34,0,0,0-.53-6.88A35.21,35.21,0,0,1,530.47,441.86Z"/><path class="cls-5" d="M533.79,448c.26.36.54.77.85,1.14a23.23,23.23,0,0,0,5.27-.06C537.84,448.76,535.78,448.39,533.79,448Z"/><path class="cls-5" d="M545.47,448.69a17.75,17.75,0,0,0,4-.45,18.28,18.28,0,0,0,3.32-1.19c0-.14,0-.33,0-.48s0-.49,0-.74A63.63,63.63,0,0,1,545.47,448.69Z"/><path class="cls-4" d="M530.92,429.41s-3,9.55-3.74,14.16c-.07.43,1,.82,2.57,1.18.07,0,.1.07.17,0,7.93,2.62,16.6,1.18,22.65-4.65a.48.48,0,0,0-.58-.75c-6.82,3.45-13.73,3.49-21,2.41-.11-1.33,5.67-16.37,4.92-16.36-3.15,0-8.78.47-10.86.63,1.79-6.25,7.75-23.74,11-35.12.2-.72-.88-1.13-1.16-.5-7.43,16.63-11,25.4-15.22,38.77C519.37,430.26,529,429.89,530.92,429.41Z"/><path class="cls-4" d="M577.6,410a9.32,9.32,0,0,0-1.42-4.73,6.68,6.68,0,0,0-4.56-2.81,6,6,0,0,0-5.1,1.84,10.54,10.54,0,0,0-2.37,4.26,20.4,20.4,0,0,0-.58,2.88,13.14,13.14,0,0,0,.53,6,19.85,19.85,0,0,1,.8-4.33,25.53,25.53,0,0,1,1.39-3.74c1.16-2.46,2.94-4.4,5-4,2.17.23,3.53,2.19,4,4.89a43.91,43.91,0,0,1,.53,8.47A19.3,19.3,0,0,0,577.6,410Z"/><path class="cls-4" d="M512.12,397.29a9.38,9.38,0,0,1,3.09-3.85,6.72,6.72,0,0,1,5.29-.88,6,6,0,0,1,4,3.63,10.67,10.67,0,0,1,.59,4.84,20,20,0,0,1-.55,2.88,13.08,13.08,0,0,1-2.76,5.38,19.42,19.42,0,0,0,.89-4.32,26.78,26.78,0,0,0,.13-4c-.15-2.72-1.07-5.19-3.11-5.59-2.1-.59-4.1.71-5.59,3a43.61,43.61,0,0,0-3.68,7.64A19.24,19.24,0,0,1,512.12,397.29Z"/><path class="cls-4" d="M664.09,433.31c-29,.32-42-35-33.6-62.25,0,0-77.31,5.65-77.35-56.15,0,0-16.65,25.84-51.49,24.7l-9.92,22.19c-7.73-2.74-14.79-25.6,5.5-42,0,0,3.14-30.62,26.86-47.7s45.48-3.65,45.48-3.65,18.88-14,46.93-8.67,38.15,31.74,38.15,31.74S692.22,301,697.1,328.4,687,373.05,687,373.05s8.91,11.17,2.71,33.91C685.67,421.59,672.79,433.21,664.09,433.31Z"/><path class="cls-4" d="M555.16,309.54a72.44,72.44,0,0,0-1,15A60.86,60.86,0,0,0,556,339.28c2.54,9.5,8.2,18,16.45,23.15,8,5.8,18.15,7.24,27.86,8.77,5,.15,10,.64,15,.51s10-.54,15.14-.65c-5,.91-10,1.59-15,2.39-5.06.49-10.19.3-15.31.48-10.1-1-20.75-2.49-29.61-8.53a40.7,40.7,0,0,1-17.15-25.48A61.46,61.46,0,0,1,555.16,309.54Z"/><path class="cls-4" d="M654.65,291.52a71.28,71.28,0,0,1,27.91,7.81c8.72,4.47,16.39,11.79,20.26,21.21a47.09,47.09,0,0,1,2.79,14.64A43.32,43.32,0,0,1,704,349.9a39.66,39.66,0,0,1-17,23.15,43.7,43.7,0,0,0,14.4-23.82,48.75,48.75,0,0,0-1.83-27.38,36.65,36.65,0,0,0-7.32-11.55,55.54,55.54,0,0,0-11-8.6A90.36,90.36,0,0,0,654.65,291.52Z"/><path class="cls-4" d="M569.57,268.45a72.65,72.65,0,0,0-22.28-5.69,44.1,44.1,0,0,0-21.93,3.52c-6.75,3.11-12.39,8.32-16.89,14.43a78.68,78.68,0,0,0-10.4,20.55,57.82,57.82,0,0,1,8.13-22.08,39.57,39.57,0,0,1,41.4-19.13A54.82,54.82,0,0,1,569.57,268.45Z"/><path class="cls-4" d="M513.52,342.8c8.72-2.61,16.93-6.06,24-11.16a48.38,48.38,0,0,0,9.53-8.83c3-3.29,4.91-7.26,7.14-11.27a33,33,0,0,1-4.92,12.88,35.89,35.89,0,0,1-9.68,10.12,44.37,44.37,0,0,1-12.49,6.17A41.22,41.22,0,0,1,513.52,342.8Z"/><path class="cls-1" d="M566.16,444.32a34.09,34.09,0,0,1-21.63-43h0A34,34,0,1,1,574.46,446,34.87,34.87,0,0,1,566.16,444.32Zm-17.31-41.57A29.49,29.49,0,1,0,586.1,384a29.93,29.93,0,0,0-7.19-1.42A29.54,29.54,0,0,0,548.85,402.75Z"/><path class="cls-1" d="M498.54,431c-13.72-2.6-22.05-19.71-18.57-38.15,1.66-8.8,5.74-16.62,11.48-22,5.94-5.59,12.92-8,19.73-6.68s12.45,6.05,15.93,13.43c3.37,7.13,4.31,15.91,2.65,24.71-3.3,17.45-16,29.92-29,29A18.54,18.54,0,0,1,498.54,431Zm-4-56.88c-5.05,4.76-8.65,11.72-10.14,19.58-3,16,3.68,30.7,14.94,32.83s22.89-9.13,25.91-25.11c1.48-7.86.67-15.65-2.29-21.92-2.85-6-7.35-9.9-12.66-10.9a14.19,14.19,0,0,0-1.72-.22C503.83,368,498.9,370,494.58,374.08Z"/><path class="cls-1" d="M544.6,405.33l3-2.43c-3.59-4.39-12.57-11.09-20.84-5L529,401C536.39,395.52,544.26,404.94,544.6,405.33Z"/><path class="cls-1" d="M679.27,438.36l3.67-1.09c-.51-1.72-5.23-16.83-13.39-19.79-7.63-2.74-59-7.56-61.23-7.76l-.35,3.82c14.74,1.36,54.38,5.41,60.27,7.55C673.63,423,678,434.22,679.27,438.36Z"/><path class="cls-8" d="M634.62,429.14s25.62-26.85,38.12-17.26-10,50.74-26.92,54.25S625.34,454,625.34,454Z"/><path class="cls-4" d="M666,423.52c.26,0,.26.38,0,.44-11.93,2.83-19.43,12.33-25.23,22.5,4-3.65,8.88-5.23,13.84-.4.26.25-.1.67-.4.55-4.45-1.69-7.89-1.4-11.56,1.81-2.6,2.27-4.61,5.34-6.65,8.11-.68.92-2.41.11-1.85-1l.13-.24C636.21,440.93,650.41,422.6,666,423.52Z"/><path class="cls-2" d="M661.35,517.47c3.92-4.88-21.42-19.26-28-13.81s-39.92,90-29.1,181.78S792.73,876,799.25,862.29c2.75-5.76-.76-21.85-5.08-27-6.1-7.26-134.34-86.84-147-143.74C635.89,641,651.33,529.9,661.35,517.47Z"/><path class="cls-2" d="M561.35,515.49c5.33-10.12-22.13-2-25.15,3.47s-39.75,93.13-46.07,150.45c-2.54,23-11.44,84.77-11.44,84.77s26.85-83,48.95-152.35C541.77,557.51,559.16,519.66,561.35,515.49Z"/><path class="cls-4" d="M45.46,895.52S13.92,781.71-11.27,743.05s-72.15-81.11-72.15-81.11S-82.32,837.42,45.46,895.52Z"/><path class="cls-3" d="M43.21,893.58c-10.81-17.67-20-36.29-28.76-55.15-3.88-20.2-8.6-40.53-15.67-59.85-.13-.36-.64-.16-.55.2,4.18,18,9.05,35.8,13.47,53.73-12.73-27.7-24.83-55.75-40-81.94-3.06-12.69-8.87-24.9-14.62-36.41-.17-.34-.72-.16-.56.19,4,8.92,7,18.1,9.84,27.32a273.35,273.35,0,0,0-24-33.28c-.56-.65-1.66.07-1.12.77,20.28,26,34.28,55.61,47.61,85.58A453.86,453.86,0,0,1-50.69,745a.17.17,0,0,0-.28.19C-38.51,765.12-24.16,783-8.58,800.44c9.71,21.95,19.25,44,30.83,64.88-23.13-19.65-40.92-45.08-58.53-69.61a.53.53,0,0,0-.87.6C-19.54,823.23-1.3,848.58,24,868.52A283.69,283.69,0,0,0,41,895.11,1.35,1.35,0,0,0,43.21,893.58Z"/><path class="cls-4" d="M55.24,905.77S-1.46,800.83,15,699.08s34.11-138,34.11-138S138.25,719.36,55.24,905.77Z"/><path class="cls-3" d="M78.52,740.79C74,770.17,66.06,797.68,56.63,825.53c-.16-37.34-.87-74.68-1.86-112A289.91,289.91,0,0,0,65.47,644c0-.69-1-.65-1,0a399.11,399.11,0,0,1-9.93,59.84q-1.31-46.2-3-92.39a.4.4,0,0,0-.8,0c.05,48.11,0,96.24.33,144.36-7.32-18.53-11.91-37.61-16.35-57.17a.17.17,0,0,0-.33.06c1.7,22.47,8.5,44.19,16.73,65,.22,30.76.56,61.51,1.24,92.26-9.59-32.7-19.84-64.36-22.61-98.92a.36.36,0,0,0-.72,0c.75,38.1,10.52,76.78,23,112.62a2,2,0,0,0,.64.9q.42,16.86,1,33.72a1.25,1.25,0,0,0,2.49-.05q.67-34.49.56-69C69.4,805.75,76.18,772.79,79,740.85,79,740.56,78.56,740.51,78.52,740.79Z"/><path class="cls-4" d="M74.63,724.56a198.12,198.12,0,0,0-4,27.72.28.28,0,0,0,.54.07c2.35-8.9,3.63-18.5,4.67-27.64C76,724,74.77,723.86,74.63,724.56Z"/><path class="cls-4" d="M41.48,647.85c0-.32-.53-.22-.54.08a71.58,71.58,0,0,0,2.84,19.12c.14.51.87.27.77-.23C43.32,660.52,42.55,654.17,41.48,647.85Z"/><path class="cls-4" d="M75.92,913.81s-2.31-109.55,29-164S188,667.61,188,667.61,167.08,860.72,75.92,913.81Z"/><path class="cls-3" d="M132.89,820.12c-13.14,19-26.2,37.36-42.3,53.91q9.36-33.6,21.64-66.07c17.52-15.45,34.91-31.46,45.66-52.59a.3.3,0,0,0-.51-.3c-11.56,18.72-27,33.7-43.29,48.11a848.49,848.49,0,0,1,43.52-95.27.7.7,0,0,0-1.2-.7,521.14,521.14,0,0,0-27.28,50c2.93-11.71,5.27-23.69,8.27-35.31a.26.26,0,0,0-.5-.14c-5.54,14.64-11.06,30.82-12.83,46.46a560.69,560.69,0,0,0-27.53,75c.81-16.42,1.83-32.77,3.52-49.15,0-.31-.49-.38-.55-.07a267.43,267.43,0,0,0-4.73,55.18Q88,873.63,83.44,898.63c-.08.45.57.65.68.19,1.7-7,3.54-13.89,5.43-20.79.12-.06.24,0,.35-.15,16.77-16.88,32.69-36.13,43.16-57.66A.1.1,0,0,0,132.89,820.12Z"/><path class="cls-4" d="M169.12,731c-3.49,3.78-6.68,7.75-10.05,11.65-3,3.44-6.6,6.69-9,10.57a.18.18,0,0,0,.25.24c4-2.57,7.26-6.73,10.39-10.31a88.25,88.25,0,0,0,8.9-11.77C169.8,731.07,169.36,730.72,169.12,731Z"/><path class="cls-2" d="M-17,900.43-13,935.55l11.88,106.18H102.42L114.3,935.55l3.94-35.12H-17Z"/><path class="cls-2" d="M-17,900.43-13,935.55H114.3l3.94-35.12H-17Z"/><rect class="cls-2" x="-26.16" y="874.97" width="153.6" height="39.78"/><path class="cls-3" d="M290.39,216.07a85.86,85.86,0,0,0,137.07,69l42.08,10.75L452,256.59a85.89,85.89,0,1,0-161.63-40.52Z"/><path class="cls-4" d="M323.38,148.27a85.58,85.58,0,0,1,73.94-16.07,86.32,86.32,0,0,1,34.84,17.51,87.9,87.9,0,0,1,23.6,31.18c5.56,12,7.76,25.29,7.51,38.43A85.14,85.14,0,0,1,453,257.14l0-1,17.42,39.22.89,2-2.11-.55-42-10.94.72-.14a86,86,0,0,1-44.24,16.5,74.12,74.12,0,0,1-11.92,0A82.73,82.73,0,0,1,360,300.81c-2-.29-3.85-.95-5.78-1.41a41.49,41.49,0,0,1-5.69-1.73l-5.58-2.08c-1.8-.83-3.57-1.73-5.35-2.59-.89-.45-1.8-.85-2.66-1.34l-2.53-1.56c-1.66-1.07-3.42-2-5-3.19l-4.74-3.58a57.1,57.1,0,0,1-4.47-3.91c-3.05-2.54-5.52-5.67-8.22-8.56-2.31-3.21-4.92-6.22-6.82-9.71-8.46-13.42-12.58-29.29-12.75-45.08C290.33,190.06,302.65,164.19,323.38,148.27ZM303.33,261c1.92,3.46,4.53,6.46,6.84,9.64,2.71,2.87,5.19,6,8.23,8.5,1.51,1.27,2.85,2.74,4.48,3.86l4.75,3.52c1.59,1.17,3.36,2.07,5,3.12l2.54,1.52c.86.48,1.77.86,2.65,1.29,1.79.84,3.55,1.71,5.35,2.51l5.56,2a42.21,42.21,0,0,0,5.66,1.65c1.92.43,3.79,1.06,5.74,1.33a84,84,0,0,0,11.71,1.27,73.41,73.41,0,0,0,11.77-.17,85.43,85.43,0,0,0,22.85-5.34A86.94,86.94,0,0,0,427,284.35l.32-.25.4.1,42.13,10.55-1.23,1.46L451,257.07l-.23-.52L451,256a85.63,85.63,0,0,0,10-36.8c.3-12.8-1.77-25.79-7.14-37.49A88.44,88.44,0,0,0,431,151.08a84.77,84.77,0,0,0-34-17.6,86,86,0,0,0-38.4-1,86.89,86.89,0,0,0-35,16.11c-20.72,15.75-33.15,41.5-33.22,67.51C290.63,231.86,294.83,247.69,303.33,261Z"/><polygon class="cls-1" points="369.72 267.19 331.23 228.22 344.16 215.44 366.65 238.2 413.37 164.96 428.69 174.74 369.72 267.19"/></svg>