<svg id="Слой_1" data-name="Слой 1" xmlns="http://www.w3.org/2000/svg" xmlns:xlink="http://www.w3.org/1999/xlink" viewBox="0 0 382 170"><defs><style>.cls-1,.cls-18{fill:none;}.cls-10,.cls-15,.cls-16,.cls-17,.cls-2{fill:#fff;}.cls-3{clip-path:url(#clip-path);}.cls-4{fill:#ececec;}.cls-5{fill:#dcdcdc;}.cls-6{fill:#a8a8a8;}.cls-7{fill:#c8c8c8;}.cls-8,.cls-9{fill:#4a148c;}.cls-16,.cls-8{opacity:0.6;}.cls-10{opacity:0.2;}.cls-11{fill:#306;}.cls-12{fill:#375a64;}.cls-13{opacity:0.1;}.cls-14{fill:#ffc800;}.cls-15{opacity:0.3;}.cls-17{opacity:0.8;}.cls-18{stroke:#1a2e35;stroke-miterlimit:10;stroke-width:2px;}</style><clipPath id="clip-path"><rect class="cls-1" x="-15.56" y="-21.22" width="421" height="212"/></clipPath></defs><rect class="cls-2" x="-27.56" y="-911.22" width="1706" height="1114"/><g class="cls-3"><rect class="cls-4" x="29.93" y="110.88" width="249.2" height="12.54"/><polygon class="cls-4" points="72.39 172.78 61.02 172.78 56.45 123.42 72.39 123.42 72.39 172.78"/><polygon class="cls-4" points="236.67 172.78 248.04 172.78 252.61 123.42 236.67 123.42 236.67 172.78"/><polygon class="cls-5" points="56.45 123.42 72.39 123.42 72.39 140.42 58.02 140.42 56.45 123.42"/><polygon class="cls-5" points="252.6 123.42 251.03 140.42 236.67 140.42 236.67 123.42 252.6 123.42"/><path class="cls-4" d="M121.59,35.65c-13,17.55-26.47,37.92-29.76,59.93a.29.29,0,0,0,.57.11,131.81,131.81,0,0,1,5.73-17.62c8.52-2.35,16.89-4.27,21.36-12.73,4.56-8.69,4-20,3.12-29.5C122.55,35.34,121.86,35.31,121.59,35.65Z"/><path class="cls-6" d="M98.26,77.9c5.82-13.06,13.3-26.18,22.8-36.92.06-.08.16,0,.1.1-6.22,7.65-10.94,16-15.56,24.46,4.29-4.35,9-8.26,13.06-12.87.08-.09.2,0,.13.13-4,4.84-8.45,10.1-13.7,13.69q-2.11,3.9-4.28,7.82c.36-.2.72-.38,1.08-.56.07,0,.12.07.06.1-.4.2-.8.42-1.21.59-.69,1.24-1.36,2.47-2.06,3.7C98.52,78.42,98.14,78.18,98.26,77.9Z"/><path class="cls-6" d="M102.59,73.34a75.55,75.55,0,0,0,10-6.64c.09-.07.21,0,.12.12a52.7,52.7,0,0,1-9.92,6.77C102.57,73.67,102.43,73.43,102.59,73.34Z"/><path class="cls-4" d="M90.41,95.38c0,.26.48.26.48,0,.06-7.24,0-14.53.11-21.81,1.86-3.74,5.84-5.82,8.62-8.82a39.37,39.37,0,0,0,5.17-7.2,51.75,51.75,0,0,0,6-20c.77-7.76-2.17-33.34-5.44-32.45-1.7.46-7.18,13.13-8.64,17.32a121,121,0,0,0-5.16,21.24C88.9,60.7,89.12,78.21,90.41,95.38Z"/><path class="cls-6" d="M90.36,64.11l0,0c.4-9.17,2.47-18.43,4.4-27.33,2.08-9.58,4.52-18.6,9.45-27.15.09-.16.33,0,.25.14a100.71,100.71,0,0,0-7.6,20.84c.33-.51.74-1,1.08-1.49.13-.19.45,0,.32.19a13.31,13.31,0,0,1-1.54,2.17s0,0-.07,0c-1.69,6.85-2.91,13.86-4,20.84.08-.08.16-.18.24-.27s.14,0,.1.09c-.13.23-.27.46-.41.69-.53,3.55-1,7.09-1.5,10.6,6.31-5.4,11.71-11.76,14.75-19.61,0,0,.07,0,.06,0C103,52,98.28,59.2,91.05,64.14c-.14.94-.27,1.89-.4,2.83,0,.19-.34.14-.34,0,0-.83,0-1.67.07-2.51A.19.19,0,0,1,90.36,64.11Z"/><path class="cls-6" d="M93.34,50.82c4.82-7.2,9.33-14.2,12.86-22.16,0-.09.2,0,.16.06-3,7.92-7.14,15.93-12.78,22.29A.15.15,0,0,1,93.34,50.82Z"/><path class="cls-6" d="M99.75,26.88c2-3.54,4.11-7,6-10.59.05-.1.19,0,.15.09a55.58,55.58,0,0,1-5.83,10.68C99.93,27.24,99.63,27.08,99.75,26.88Z"/><path class="cls-6" d="M99,28.42a0,0,0,1,1,0,.06A0,0,0,0,1,99,28.42Z"/><path class="cls-4" d="M86.87,76.8a74.29,74.29,0,0,1-1.7,14.28c.08.52.15,1,.23,1.57A68.41,68.41,0,0,0,88,76.73a.48.48,0,0,0,0-.49v0a104.86,104.86,0,0,0-1.6-21.57c-2.24-13.32-7.15-26.1-16.44-36.09a.66.66,0,0,0-1,.22c-3.75,9.53-2.44,20.9.75,30.41A55.85,55.85,0,0,0,77,63.64C80.21,68.12,84.28,71.91,86.87,76.8Z"/><path class="cls-6" d="M71,23C79.84,37.31,86,54.26,86.71,71.14c0,.29-.49.37-.53.07-.21-1.52-.44-3-.68-4.52h0c-3.64-3.49-7.38-7.17-10-11.53,0-.08.07-.17.13-.1a121.24,121.24,0,0,0,9.7,10.56q-.94-5.6-2.26-11c-.24-.27-.47-.55-.7-.82s.1-.44.26-.26l.22.23a126.34,126.34,0,0,0-4.61-14.61c-2.24-2.68-4.74-5-6.38-8.21a.07.07,0,0,1,.12-.07A67,67,0,0,0,76,36.27c.59.68,1.25,1.32,1.86,2a111.56,111.56,0,0,0-7.21-15A.2.2,0,0,1,71,23Z"/><path class="cls-6" d="M72.81,40.65c2.85,3.83,6.09,7.49,8.74,11.45.07.11-.09.23-.19.14-3.4-3.19-6.27-7.55-8.74-11.48C72.54,40.64,72.73,40.54,72.81,40.65Z"/><path class="cls-6" d="M82,53l.12.12c.08.09,0,.22-.13.13l-.12-.12C81.73,53,81.86,52.9,82,53Z"/><path class="cls-4" d="M55.88,46.88a43.79,43.79,0,0,0,9.29,21.8,23.19,23.19,0,0,0,7.53,5.88C76,76.18,79.38,78,82.76,79.36A65.58,65.58,0,0,1,86.32,92c.11-.37.22-.76.33-1.12C84.48,72.27,72.43,56.36,57,46.15A.75.75,0,0,0,55.88,46.88Z"/><path class="cls-6" d="M61.2,52.38c-.11-.09,0-.29.16-.2A63.12,63.12,0,0,1,81,76.37c.11.26-.24.48-.38.23-.72-1.26-1.45-2.48-2.19-3.68,0,0,0,0,0,0-3.52-.66-6.85-3.13-9.46-5.48-.07-.07,0-.17.11-.11a21.45,21.45,0,0,0,4.44,3.13c1.44.73,3,1.19,4.47,1.77-1.3-2.07-2.66-4-4.08-6a41,41,0,0,1-10.56-5.94c-.1-.07,0-.24.09-.17a105.59,105.59,0,0,0,9.83,5.25,88.13,88.13,0,0,0-6.94-8.08c-1.19-.63-2.4-1.27-3.56-1.94-.1-.06,0-.22.07-.18a12.4,12.4,0,0,1,2.74,1.34C64.17,55.13,62.74,53.74,61.2,52.38Z"/><path class="cls-6" d="M61.53,58.81a5.19,5.19,0,0,1,.59.42c.06.05,0,.13-.07.1a4.71,4.71,0,0,1-.62-.35C61.32,58.91,61.42,58.74,61.53,58.81Z"/><polygon class="cls-5" points="105.58 110.88 73.86 110.88 75.42 90.08 76.02 83.3 103.14 83.3 103.74 90.08 105.58 110.88"/><polygon class="cls-7" points="103.74 90.08 75.42 90.08 76.02 83.3 103.14 83.3 103.74 90.08"/><rect class="cls-5" x="73.86" y="77.74" width="31.44" height="6.95"/><rect class="cls-7" x="106.66" y="63.57" width="75.5" height="19.01" transform="translate(217.49 -71.33) rotate(90)"/><rect class="cls-5" x="140.26" y="25.93" width="8.3" height="19.01" transform="translate(179.85 -108.97) rotate(90)"/><rect class="cls-5" x="142.87" y="42.25" width="3.08" height="19.01" transform="translate(196.17 -92.66) rotate(90)"/><rect class="cls-5" x="140.26" y="87.27" width="8.3" height="19.01" transform="translate(241.19 -47.63) rotate(90)"/><rect class="cls-5" x="116.52" y="60.15" width="88.08" height="13.29" transform="translate(227.35 -93.77) rotate(90)"/><rect class="cls-4" x="143.57" y="43.98" width="33.88" height="7.97" transform="translate(208.48 -112.53) rotate(90)"/><rect class="cls-7" x="181.83" y="68.4" width="88.08" height="13.29" transform="translate(117.98 -137.11) rotate(44.67)"/><rect class="cls-5" x="213.54" y="75.55" width="33.88" height="7.97" transform="translate(122.47 -139.05) rotate(44.67)"/><rect class="cls-6" x="145.03" y="66.11" width="66.9" height="22.57" transform="translate(255.87 -101.09) rotate(90)"/><rect class="cls-7" x="175.36" y="89.35" width="6.24" height="22.57" transform="translate(279.11 -77.85) rotate(90)"/><rect class="cls-7" x="177.27" y="80.93" width="2.42" height="22.57" transform="translate(270.7 -86.27) rotate(90)"/><path class="cls-8" d="M291.42,66.4s-38.49-17.72-38.49-41.49,49.91-39.06,49.91-57.63-21.76-29.5-21.76-29.5S315.45-50.48,315.45-27s-32.9,39.41-36,54.36C275,48.13,291.42,66.4,291.42,66.4Z"/><path class="cls-8" d="M289.51,66.4S328,52.46,328,33.78,278.09,3.07,278.09-11.53s21.76-23.2,21.76-23.2S265.48-25.49,265.48-7,303.26,24.14,306,39.15C308.61,53.86,289.51,66.4,289.51,66.4Z"/><path class="cls-9" d="M349,125a22.4,22.4,0,0,1-21.65,9.82,24.18,24.18,0,0,1-4.06-.94,30,30,0,0,1-5.73-2.55l4.59-7.22a18.82,18.82,0,0,0,3,1.48c9.62,3.67,15.14-3.56,16.21-5.2,5-7.38,5.94-23.86.1-30-.39-.45-2-1.13-8.28.38-1.16.3-2.47.63-3.95,1.08a16.61,16.61,0,0,1-3.56.87l-.41-4.21-.68-4.19c.4-.09,1-.28,1.85-.54a59.4,59.4,0,0,1,8.85-2.1c4.64-.63,9.57-.29,12.78,3.09C357.61,94.76,355.24,115.73,349,125Z"/><rect class="cls-9" x="253.93" y="63.4" width="73.07" height="95.58"/><rect class="cls-10" x="253.93" y="63.4" width="10.09" height="95.58"/><polygon class="cls-11" points="327 158.97 253.93 158.97 312.74 146.79 316.91 63.4 327 63.4 327 158.97"/><polygon class="cls-12" points="337.15 168.58 243.78 168.58 225.25 158.97 355.68 158.97 337.15 168.58"/><rect class="cls-12" x="243.73" y="168.58" width="93.41" height="3.08"/><polygon class="cls-13" points="243.73 168.58 243.73 169.77 337.13 170.61 337.13 168.58 243.73 168.58"/><polygon class="cls-14" points="265.79 144.62 265.79 168.99 323.79 168.99 323.79 160.97 265.79 144.62"/><polygon class="cls-15" points="265.79 144.62 265.79 168.99 323.79 168.99 323.79 160.97 265.79 144.62"/><rect class="cls-14" x="323.79" y="160.97" width="37.65" height="8.01"/><rect class="cls-16" x="323.79" y="160.97" width="37.65" height="8.01"/><polygon class="cls-14" points="361.44 160.97 323.79 160.97 265.79 144.62 303.44 144.62 361.44 160.97"/><polygon class="cls-17" points="361.44 160.97 323.79 160.97 265.79 144.62 303.44 144.62 361.44 160.97"/><polygon class="cls-14" points="300.79 143.2 300.79 148.28 310.52 150.61 310.52 148.51 300.79 143.2"/><polygon class="cls-15" points="300.79 143.2 300.79 148.28 310.52 150.61 310.52 148.51 300.79 143.2"/><rect class="cls-14" x="310.52" y="148.51" width="11.67" height="2.1"/><rect class="cls-16" x="310.52" y="148.51" width="11.67" height="2.1"/><polygon class="cls-14" points="322.19 148.51 310.52 148.51 300.79 143.2 312.46 143.2 322.19 148.51"/><polygon class="cls-17" points="322.19 148.51 310.52 148.51 300.79 143.2 312.46 143.2 322.19 148.51"/><polygon class="cls-14" points="281.9 143.2 281.9 147.85 291.63 150.61 291.63 148.51 281.9 143.2"/><polygon class="cls-15" points="281.9 143.2 281.9 147.85 291.63 150.61 291.63 148.51 281.9 143.2"/><rect class="cls-14" x="291.63" y="148.51" width="11.67" height="2.1"/><rect class="cls-16" x="291.63" y="148.51" width="11.67" height="2.1"/><polygon class="cls-14" points="303.3 148.51 291.63 148.51 281.9 143.2 293.57 143.2 303.3 148.51"/><polygon class="cls-17" points="303.3 148.51 291.63 148.51 281.9 143.2 293.57 143.2 303.3 148.51"/><rect class="cls-14" x="265.79" y="169.41" width="58" height="2.25"/><rect class="cls-15" x="265.79" y="169.41" width="58" height="2.25"/><rect class="cls-14" x="323.79" y="169.41" width="37.65" height="2.25" transform="translate(685.23 341.07) rotate(180)"/><rect class="cls-16" x="323.79" y="169.41" width="37.65" height="2.25" transform="translate(685.23 341.07) rotate(180)"/><polygon class="cls-14" points="72.04 132.84 72.04 159.23 164.42 171.66 164.42 158.9 72.04 132.84"/><polygon class="cls-15" points="72.04 132.84 72.04 159.23 164.42 171.66 164.42 158.9 72.04 132.84"/><rect class="cls-14" x="164.42" y="158.9" width="160.54" height="12.76"/><rect class="cls-16" x="164.42" y="158.9" width="160.54" height="12.76"/><polygon class="cls-14" points="324.96 158.9 164.42 158.9 72.04 132.84 232.58 132.84 324.96 158.9"/><polygon class="cls-17" points="324.96 158.9 164.42 158.9 72.04 132.84 232.58 132.84 324.96 158.9"/><polygon class="cls-14" points="94.7 127.1 94.7 134.73 101.9 136.45 101.9 130.72 94.7 127.1"/><polygon class="cls-15" points="94.7 127.1 94.7 134.73 101.9 136.45 101.9 130.72 94.7 127.1"/><rect class="cls-14" x="101.9" y="130.72" width="8.63" height="5.74"/><rect class="cls-16" x="101.9" y="130.72" width="8.63" height="5.74"/><polygon class="cls-14" points="110.53 130.72 101.9 130.72 94.7 127.1 103.33 127.1 110.53 130.72"/><polygon class="cls-17" points="110.53 130.72 101.9 130.72 94.7 127.1 103.33 127.1 110.53 130.72"/><polygon class="cls-14" points="113.71 127.1 113.71 134.73 120.91 136.45 120.91 130.72 113.71 127.1"/><polygon class="cls-15" points="113.71 127.1 113.71 134.73 120.91 136.45 120.91 130.72 113.71 127.1"/><rect class="cls-14" x="120.91" y="130.72" width="8.63" height="5.74"/><rect class="cls-16" x="120.91" y="130.72" width="8.63" height="5.74"/><polygon class="cls-14" points="129.54 130.72 120.91 130.72 113.71 127.1 122.34 127.1 129.54 130.72"/><polygon class="cls-17" points="129.54 130.72 120.91 130.72 113.71 127.1 122.34 127.1 129.54 130.72"/><polygon class="cls-14" points="132.72 127.1 132.72 134.73 139.92 136.45 139.92 130.72 132.72 127.1"/><polygon class="cls-15" points="132.72 127.1 132.72 134.73 139.92 136.45 139.92 130.72 132.72 127.1"/><rect class="cls-14" x="139.92" y="130.72" width="8.63" height="5.74"/><rect class="cls-16" x="139.92" y="130.72" width="8.63" height="5.74"/><polygon class="cls-14" points="148.55 130.72 139.92 130.72 132.72 127.1 141.35 127.1 148.55 130.72"/><polygon class="cls-17" points="148.55 130.72 139.92 130.72 132.72 127.1 141.35 127.1 148.55 130.72"/><polygon class="cls-14" points="151.73 127.1 151.73 134.73 158.93 136.45 158.93 130.72 151.73 127.1"/><polygon class="cls-15" points="151.73 127.1 151.73 134.73 158.93 136.45 158.93 130.72 151.73 127.1"/><rect class="cls-14" x="158.93" y="130.72" width="8.63" height="5.74"/><rect class="cls-16" x="158.93" y="130.72" width="8.63" height="5.74"/><polygon class="cls-14" points="167.56 130.72 158.93 130.72 151.73 127.1 160.37 127.1 167.56 130.72"/><polygon class="cls-17" points="167.56 130.72 158.93 130.72 151.73 127.1 160.37 127.1 167.56 130.72"/><polygon class="cls-14" points="170.75 127.1 170.75 134.73 177.94 136.45 177.94 130.72 170.75 127.1"/><polygon class="cls-15" points="170.75 127.1 170.75 134.73 177.94 136.45 177.94 130.72 170.75 127.1"/><rect class="cls-14" x="177.94" y="130.72" width="8.63" height="5.74"/><rect class="cls-16" x="177.94" y="130.72" width="8.63" height="5.74"/><polygon class="cls-14" points="186.58 130.72 177.94 130.72 170.75 127.1 179.38 127.1 186.58 130.72"/><polygon class="cls-17" points="186.58 130.72 177.94 130.72 170.75 127.1 179.38 127.1 186.58 130.72"/><polygon class="cls-14" points="189.76 127.1 189.76 134.73 196.95 136.45 196.95 130.72 189.76 127.1"/><polygon class="cls-15" points="189.76 127.1 189.76 134.73 196.95 136.45 196.95 130.72 189.76 127.1"/><rect class="cls-14" x="196.95" y="130.72" width="8.63" height="5.74"/><rect class="cls-16" x="196.95" y="130.72" width="8.63" height="5.74"/><polygon class="cls-14" points="205.59 130.72 196.95 130.72 189.76 127.1 198.39 127.1 205.59 130.72"/><polygon class="cls-17" points="205.59 130.72 196.95 130.72 189.76 127.1 198.39 127.1 205.59 130.72"/><polygon class="cls-14" points="208.77 127.1 208.77 134.73 215.97 136.45 215.97 130.72 208.77 127.1"/><polygon class="cls-15" points="208.77 127.1 208.77 134.73 215.97 136.45 215.97 130.72 208.77 127.1"/><rect class="cls-14" x="215.97" y="130.72" width="8.63" height="5.74"/><rect class="cls-16" x="215.97" y="130.72" width="8.63" height="5.74"/><polygon class="cls-14" points="224.6 130.72 215.97 130.72 208.77 127.1 217.4 127.1 224.6 130.72"/><polygon class="cls-17" points="224.6 130.72 215.97 130.72 208.77 127.1 217.4 127.1 224.6 130.72"/><polygon class="cls-14" points="117.52 133.72 117.52 141.34 124.72 143.07 124.72 137.33 117.52 133.72"/><polygon class="cls-15" points="117.52 133.72 117.52 141.34 124.72 143.07 124.72 137.33 117.52 133.72"/><rect class="cls-14" x="124.72" y="137.33" width="8.63" height="5.74"/><rect class="cls-16" x="124.72" y="137.33" width="8.63" height="5.74"/><polygon class="cls-14" points="133.35 137.33 124.72 137.33 117.52 133.72 126.16 133.72 133.35 137.33"/><polygon class="cls-17" points="133.35 137.33 124.72 137.33 117.52 133.72 126.16 133.72 133.35 137.33"/><polygon class="cls-14" points="136.53 133.72 136.53 141.34 143.73 143.07 143.73 137.33 136.53 133.72"/><polygon class="cls-15" points="136.53 133.72 136.53 141.34 143.73 143.07 143.73 137.33 136.53 133.72"/><rect class="cls-14" x="143.73" y="137.33" width="8.63" height="5.74"/><rect class="cls-16" x="143.73" y="137.33" width="8.63" height="5.74"/><polygon class="cls-14" points="152.37 137.33 143.73 137.33 136.53 133.72 145.17 133.72 152.37 137.33"/><polygon class="cls-17" points="152.37 137.33 143.73 137.33 136.53 133.72 145.17 133.72 152.37 137.33"/><polygon class="cls-14" points="155.55 133.72 155.55 141.34 162.74 143.07 162.74 137.33 155.55 133.72"/><polygon class="cls-15" points="155.55 133.72 155.55 141.34 162.74 143.07 162.74 137.33 155.55 133.72"/><rect class="cls-14" x="162.74" y="137.33" width="8.63" height="5.74"/><rect class="cls-16" x="162.74" y="137.33" width="8.63" height="5.74"/><polygon class="cls-14" points="171.38 137.33 162.74 137.33 155.55 133.72 164.18 133.72 171.38 137.33"/><polygon class="cls-17" points="171.38 137.33 162.74 137.33 155.55 133.72 164.18 133.72 171.38 137.33"/><polygon class="cls-14" points="174.56 133.72 174.56 141.34 181.75 143.07 181.75 137.33 174.56 133.72"/><polygon class="cls-15" points="174.56 133.72 174.56 141.34 181.75 143.07 181.75 137.33 174.56 133.72"/><rect class="cls-14" x="181.76" y="137.33" width="8.63" height="5.74"/><rect class="cls-16" x="181.76" y="137.33" width="8.63" height="5.74"/><polygon class="cls-14" points="190.39 137.33 181.75 137.33 174.56 133.72 183.19 133.72 190.39 137.33"/><polygon class="cls-17" points="190.39 137.33 181.75 137.33 174.56 133.72 183.19 133.72 190.39 137.33"/><polygon class="cls-14" points="193.57 133.72 193.57 141.34 200.77 143.07 200.77 137.33 193.57 133.72"/><polygon class="cls-15" points="193.57 133.72 193.57 141.34 200.77 143.07 200.77 137.33 193.57 133.72"/><rect class="cls-14" x="200.77" y="137.33" width="8.63" height="5.74"/><rect class="cls-16" x="200.77" y="137.33" width="8.63" height="5.74"/><polygon class="cls-14" points="209.4 137.33 200.77 137.33 193.57 133.72 202.2 133.72 209.4 137.33"/><polygon class="cls-17" points="209.4 137.33 200.77 137.33 193.57 133.72 202.2 133.72 209.4 137.33"/><polygon class="cls-14" points="212.58 133.72 212.58 141.34 219.78 143.07 219.78 137.33 212.58 133.72"/><polygon class="cls-15" points="212.58 133.72 212.58 141.34 219.78 143.07 219.78 137.33 212.58 133.72"/><rect class="cls-14" x="219.78" y="137.33" width="8.63" height="5.74"/><rect class="cls-16" x="219.78" y="137.33" width="8.63" height="5.74"/><polygon class="cls-14" points="228.41 137.33 219.78 137.33 212.58 133.72 221.21 133.72 228.41 137.33"/><polygon class="cls-17" points="228.41 137.33 219.78 137.33 212.58 133.72 221.21 133.72 228.41 137.33"/><polygon class="cls-14" points="231.59 133.72 231.59 141.34 238.79 143.07 238.79 137.33 231.59 133.72"/><polygon class="cls-15" points="231.59 133.72 231.59 141.34 238.79 143.07 238.79 137.33 231.59 133.72"/><rect class="cls-14" x="238.79" y="137.33" width="8.63" height="5.74"/><rect class="cls-16" x="238.79" y="137.33" width="8.63" height="5.74"/><polygon class="cls-14" points="247.42 137.33 238.79 137.33 231.59 133.72 240.22 133.72 247.42 137.33"/><polygon class="cls-17" points="247.42 137.33 238.79 137.33 231.59 133.72 240.22 133.72 247.42 137.33"/><polygon class="cls-14" points="140.35 140.33 140.35 147.96 147.54 149.68 147.54 143.94 140.35 140.33"/><polygon class="cls-15" points="140.35 140.33 140.35 147.96 147.54 149.68 147.54 143.94 140.35 140.33"/><rect class="cls-14" x="147.55" y="143.94" width="27.64" height="5.74"/><rect class="cls-16" x="147.55" y="143.94" width="27.64" height="5.74"/><polygon class="cls-14" points="175.19 143.94 147.54 143.94 140.35 140.33 167.99 140.33 175.19 143.94"/><polygon class="cls-17" points="175.19 143.94 147.54 143.94 140.35 140.33 167.99 140.33 175.19 143.94"/><polygon class="cls-14" points="178.37 140.33 178.37 147.96 185.57 149.68 185.57 143.94 178.37 140.33"/><polygon class="cls-15" points="178.37 140.33 178.37 147.96 185.57 149.68 185.57 143.94 178.37 140.33"/><rect class="cls-14" x="185.57" y="143.94" width="8.63" height="5.74"/><rect class="cls-16" x="185.57" y="143.94" width="8.63" height="5.74"/><polygon class="cls-14" points="194.2 143.94 185.57 143.94 178.37 140.33 187 140.33 194.2 143.94"/><polygon class="cls-17" points="194.2 143.94 185.57 143.94 178.37 140.33 187 140.33 194.2 143.94"/><polygon class="cls-14" points="197.38 140.33 197.38 147.96 204.58 149.68 204.58 143.94 197.38 140.33"/><polygon class="cls-15" points="197.38 140.33 197.38 147.96 204.58 149.68 204.58 143.94 197.38 140.33"/><rect class="cls-14" x="204.58" y="143.94" width="8.63" height="5.74"/><rect class="cls-16" x="204.58" y="143.94" width="8.63" height="5.74"/><polygon class="cls-14" points="213.21 143.94 204.58 143.94 197.38 140.33 206.01 140.33 213.21 143.94"/><polygon class="cls-17" points="213.21 143.94 204.58 143.94 197.38 140.33 206.01 140.33 213.21 143.94"/><polygon class="cls-14" points="216.39 140.33 216.39 147.96 223.59 149.68 223.59 143.94 216.39 140.33"/><polygon class="cls-15" points="216.39 140.33 216.39 147.96 223.59 149.68 223.59 143.94 216.39 140.33"/><rect class="cls-14" x="223.59" y="143.94" width="8.63" height="5.74"/><rect class="cls-16" x="223.59" y="143.94" width="8.63" height="5.74"/><polygon class="cls-14" points="232.22 143.94 223.59 143.94 216.39 140.33 225.03 140.33 232.22 143.94"/><polygon class="cls-17" points="232.22 143.94 223.59 143.94 216.39 140.33 225.03 140.33 232.22 143.94"/><polygon class="cls-14" points="235.4 140.33 235.4 147.96 242.6 149.68 242.6 143.94 235.4 140.33"/><polygon class="cls-15" points="235.4 140.33 235.4 147.96 242.6 149.68 242.6 143.94 235.4 140.33"/><rect class="cls-14" x="242.6" y="143.94" width="8.63" height="5.74"/><rect class="cls-16" x="242.6" y="143.94" width="8.63" height="5.74"/><polygon class="cls-14" points="251.24 143.94 242.6 143.94 235.4 140.33 244.04 140.33 251.24 143.94"/><polygon class="cls-17" points="251.24 143.94 242.6 143.94 235.4 140.33 244.04 140.33 251.24 143.94"/><polygon class="cls-14" points="254.41 140.33 254.41 147.96 261.61 149.68 261.61 143.94 254.41 140.33"/><polygon class="cls-15" points="254.41 140.33 254.41 147.96 261.61 149.68 261.61 143.94 254.41 140.33"/><rect class="cls-14" x="261.61" y="143.94" width="8.63" height="5.74"/><rect class="cls-16" x="261.61" y="143.94" width="8.63" height="5.74"/><polygon class="cls-14" points="270.25 143.94 261.61 143.94 254.41 140.33 263.05 140.33 270.25 143.94"/><polygon class="cls-17" points="270.25 143.94 261.61 143.94 254.41 140.33 263.05 140.33 270.25 143.94"/><polygon class="cls-14" points="163.17 146.94 163.17 154.57 170.37 156.29 170.37 150.56 163.17 146.94"/><polygon class="cls-15" points="163.17 146.94 163.17 154.57 170.37 156.29 170.37 150.56 163.17 146.94"/><rect class="cls-14" x="170.37" y="150.56" width="8.63" height="5.74"/><rect class="cls-16" x="170.37" y="150.56" width="8.63" height="5.74"/><polygon class="cls-14" points="179 150.56 170.37 150.56 163.17 146.94 171.81 146.94 179 150.56"/><polygon class="cls-17" points="179 150.56 170.37 150.56 163.17 146.94 171.81 146.94 179 150.56"/><polygon class="cls-14" points="182.18 146.94 182.18 154.57 189.38 156.29 189.38 150.56 182.18 146.94"/><polygon class="cls-15" points="182.18 146.94 182.18 154.57 189.38 156.29 189.38 150.56 182.18 146.94"/><rect class="cls-14" x="189.38" y="150.56" width="8.63" height="5.74"/><rect class="cls-16" x="189.38" y="150.56" width="8.63" height="5.74"/><polygon class="cls-14" points="198.01 150.56 189.38 150.56 182.18 146.94 190.82 146.94 198.01 150.56"/><polygon class="cls-17" points="198.01 150.56 189.38 150.56 182.18 146.94 190.82 146.94 198.01 150.56"/><polygon class="cls-14" points="201.19 146.94 201.19 154.57 208.39 156.29 208.39 150.56 201.19 146.94"/><polygon class="cls-15" points="201.19 146.94 201.19 154.57 208.39 156.29 208.39 150.56 201.19 146.94"/><rect class="cls-14" x="208.39" y="150.56" width="46.66" height="5.74"/><rect class="cls-16" x="208.39" y="150.56" width="46.66" height="5.74"/><polygon class="cls-14" points="255.05 150.56 208.39 150.56 201.19 146.94 247.85 146.94 255.05 150.56"/><polygon class="cls-17" points="255.05 150.56 208.39 150.56 201.19 146.94 247.85 146.94 255.05 150.56"/><polygon class="cls-14" points="258.23 146.94 258.23 154.57 265.43 156.29 265.43 150.56 258.23 146.94"/><polygon class="cls-15" points="258.23 146.94 258.23 154.57 265.43 156.29 265.43 150.56 258.23 146.94"/><rect class="cls-14" x="265.43" y="150.56" width="8.63" height="5.74"/><rect class="cls-16" x="265.43" y="150.56" width="8.63" height="5.74"/><polygon class="cls-14" points="274.06 150.56 265.43 150.56 258.23 146.94 266.86 146.94 274.06 150.56"/><polygon class="cls-17" points="274.06 150.56 265.43 150.56 258.23 146.94 266.86 146.94 274.06 150.56"/><polygon class="cls-14" points="277.24 146.94 277.24 154.57 284.44 156.29 284.44 150.56 277.24 146.94"/><polygon class="cls-15" points="277.24 146.94 277.24 154.57 284.44 156.29 284.44 150.56 277.24 146.94"/><rect class="cls-14" x="284.44" y="150.56" width="8.63" height="5.74"/><rect class="cls-16" x="284.44" y="150.56" width="8.63" height="5.74"/><polygon class="cls-14" points="293.07 150.56 284.44 150.56 277.24 146.94 285.87 146.94 293.07 150.56"/><polygon class="cls-17" points="293.07 150.56 284.44 150.56 277.24 146.94 285.87 146.94 293.07 150.56"/><polygon class="cls-14" points="80.31 160.34 80.31 171.66 164.42 171.66 80.31 160.34"/><path class="cls-18" d="M-55.43,163.28h-2.93A3.64,3.64,0,0,0-62,166.93h0a3.65,3.65,0,0,0,3.65,3.66H67.87a3.19,3.19,0,0,0,3.19-3.19h0a3.19,3.19,0,0,1,3.19-3.2h6.06"/></g></svg>