<svg id="Слой_1" data-name="Слой 1" xmlns="http://www.w3.org/2000/svg" viewBox="0 0 382 170"><defs><style>.cls-1{fill:#fff;}.cls-2{fill:#306;}.cls-10,.cls-3{fill:none;stroke:#306;stroke-miterlimit:10;}.cls-3{stroke-width:3px;}.cls-4{fill:#ffc800;}.cls-5,.cls-9{opacity:0.2;}.cls-6,.cls-8{opacity:0.1;}.cls-7{opacity:0.4;}.cls-10{stroke-width:4px;}</style></defs><rect class="cls-1" x="-27.56" y="-39.22" width="1706" height="1114"/><path class="cls-2" d="M176,169.8a88.34,88.34,0,1,1,88.33-88.33A88.44,88.44,0,0,1,176,169.8ZM176-6.07a87.54,87.54,0,1,0,87.54,87.54A87.64,87.64,0,0,0,176-6.07Z"/><path class="cls-2" d="M176,160.22A78.76,78.76,0,1,1,254.8,81.47,78.85,78.85,0,0,1,176,160.22ZM176,3.5a78,78,0,1,0,78,78A78.05,78.05,0,0,0,176,3.5Z"/><rect class="cls-2" x="48.52" y="20.22" width="0.79" height="14.57" transform="translate(4.49 61.79) rotate(-67)"/><rect class="cls-2" x="72.23" y="25.55" width="0.79" height="24.03" transform="translate(9.67 89.75) rotate(-67)"/><rect class="cls-2" x="40.71" y="132.8" width="14.57" height="0.79" transform="translate(-46.4 27.68) rotate(-22)"/><rect class="cls-2" x="59.86" y="123.15" width="24.03" height="0.79" transform="translate(-41.05 35.92) rotate(-22)"/><rect class="cls-2" x="302.77" y="128.14" width="0.79" height="14.57" transform="translate(60.05 361.58) rotate(-67)"/><rect class="cls-2" x="279.06" y="113.35" width="0.79" height="24.03" transform="translate(54.87 333.62) rotate(-67)"/><rect class="cls-2" x="296.8" y="29.34" width="14.57" height="0.79" transform="translate(11 116.08) rotate(-22)"/><rect class="cls-2" x="268.19" y="38.98" width="24.03" height="0.79" transform="translate(5.65 107.84) rotate(-22)"/><rect class="cls-2" x="100.3" y="-0.1" width="0.79" height="12.44" transform="translate(25.16 73) rotate(-45)"/><rect class="cls-2" x="19.35" y="81.07" width="35.84" height="0.79"/><rect class="cls-2" x="63.27" y="81.07" width="12.44" height="0.79"/><rect class="cls-2" x="60" y="179.19" width="35.84" height="0.79" transform="translate(-104.17 107.7) rotate(-45)"/><rect class="cls-2" x="94.48" y="156.41" width="12.44" height="0.79" transform="translate(-81.39 117.13) rotate(-45)"/><rect class="cls-2" x="273.77" y="161.67" width="0.79" height="35.84" transform="translate(-46.69 246.47) rotate(-45)"/><rect class="cls-2" x="250.99" y="150.59" width="0.79" height="12.44" transform="translate(-37.25 223.69) rotate(-45)"/><rect class="cls-2" x="296.89" y="81.07" width="35.84" height="0.79"/><rect class="cls-2" x="276.37" y="81.07" width="12.44" height="0.79"/><rect class="cls-2" x="245.16" y="5.73" width="12.44" height="0.79" transform="translate(69.3 179.55) rotate(-45)"/><path class="cls-3" d="M317,99.85s52.85,13,61.67,24c4.57,5.67-4.18,31.23-12.28,43.49"/><path class="cls-3" d="M368.24,166.28a17.6,17.6,0,0,1,.5,8.44c-.89,4.55-6.31,13.52-6.31,13.52"/><path class="cls-3" d="M366.84,165.87a42.53,42.53,0,0,0-8.41,2.33c-3.19,1.46-9.82,11.41-9.82,11.41"/><path class="cls-3" d="M367.68,166.05s-2.08,9.07-3.59,11.62-7,11.74-7,11.74"/><path class="cls-3" d="M367.25,165.87s-8.51,7.31-9.88,9.69-6.37,8.73-6.37,8.73"/><polygon class="cls-4" points="306.44 125.75 235.43 74.82 323.06 72.17 393.38 121.27 306.44 125.75"/><polygon class="cls-5" points="306.44 125.75 235.43 74.82 323.06 72.17 393.38 121.27 306.44 125.75"/><path class="cls-4" d="M261.87,120l4.83-25.64s28.73-3.78,48.24,2.27,40.31,23.08,40.31,23.08l-9.89,26.18s-24.42-13.57-40.27-18.14S261.87,120,261.87,120Z"/><path class="cls-4" d="M261.87,120H262c1.68.21,27.8,3.34,43.14,7.76,15.6,4.49,39.51,17.71,40.25,18.13h0l9.89-26.18s-20.8-17-40.32-23.08-48.24-2.27-48.24-2.27Z"/><path class="cls-6" d="M261.87,120H262c1.68.21,27.8,3.34,43.14,7.76,15.6,4.49,39.51,17.71,40.25,18.13h0l9.89-26.18s-20.8-17-40.32-23.08-48.24-2.27-48.24-2.27Z"/><path class="cls-2" d="M308,96.07l.09,0C308,96.13,308,96.12,308,96.07Z"/><path class="cls-4" d="M330.11,137.54a34.56,34.56,0,0,1,4.41,2.6l0,.06-.09-.06c-4.18-2.09-9.15-4.5-14.21-6.7-3.84-1.68-7.72-3.24-11.33-4.48-1.3-.44-2.55-.84-3.76-1.19-1.78-.51-3.7-1-5.72-1.48l-.12,0,.59-2.28c4.83,1,9.6,2.15,14.34,3.5-.45-.2-.9-.38-1.35-.56-2.07-.66-4.15-1.29-6.22-1.9-2.87-.84-5.76-1.66-8.64-2.42l-.1,0,.75-3.4.1,0c1.32.29,2.64.55,3.94.88l.15-2.32c1.54,0,2.94.13,4.4.26l.12,0,.5-3.54,2,.25q-3.6-1.08-7.26-1.84l.8-4h0l.37.08c2,.4,4,.84,5.95,1.3l.53-2.36-1.91-.41.55-3.37h.07l.21,0a102.89,102.89,0,0,1,14.16,3.43,53.33,53.33,0,0,0-15.23-5.82h0a2.09,2.09,0,0,0,.06-.25v-.08l0-.19,0-.11a2.07,2.07,0,0,1,0-.22l0-.11h0l.07-.37c.08-.38.15-.75.2-1l0-.15a1.32,1.32,0,0,1,0-.18h0c1.34.26,2.66.58,4,.94,4.07,1,8.12,2.13,12.09,3.48a134.33,134.33,0,0,0-16.61-7.4h0l-.13,0h0l-.13,0,0,0-.1-.05c-.73.18-.39-.56,0-1.07.38.07.78.14,1.15.23.91.17,1.82.37,2.7.59l.33.09q2.63,1,5.19,2c4.18,1.63,8.35,3.28,12.48,5,2.55,1.32,5,2.73,7.36,4.13-2.22-.94-4.48-1.85-6.77-2.75a85.6,85.6,0,0,1,7.46,4.84,1.1,1.1,0,0,1,.14.09L336.52,111a74.51,74.51,0,0,0-7.58-3.39c.89.64,1.76,1.3,2.6,2,2.09,1.56,6.45,6.63,8.3,8.56l-3.32-1.61-1.75,2.4h0L333,122l-.85-.38-.68,1q2.69,1.4,5.25,3l-2,3.56a96.13,96.13,0,0,0-12.46-4.33c3.87,2,7.63,4.08,11.35,6.36h0l-2,3.23s0,0,0,0c-.53-.32-1.09-.62-1.66-.91,3.78,3.29,8,7.5,10.35,9.6l-12-7a44.88,44.88,0,0,0-6.3-2.94q4,2,7.88,4.27Z"/><path class="cls-4" d="M261.87,120s22.62,11.7,39.54,16.33c16.67,4.57,43.11,9.41,43.93,9.56-.74-.42-24.65-13.64-40.25-18.13-15.34-4.42-41.46-7.55-43.14-7.76Z"/><path class="cls-7" d="M261.87,120s22.62,11.7,39.54,16.33c16.67,4.57,43.11,9.41,43.93,9.56-.74-.42-24.65-13.64-40.25-18.13-15.34-4.42-41.46-7.55-43.14-7.76Z"/><path class="cls-4" d="M98.57-10.42,94.72,35S127.3,59.26,161,66.47s69.17,1.25,69.17,1.25L246.83,25s-44.59-.46-74.34-7.41C145.38,11.26,98.57-10.42,98.57-10.42Z"/><g class="cls-8"><path d="M98.57-10.42,94.72,35S127.3,59.26,161,66.47s69.17,1.25,69.17,1.25L246.83,25s-44.59-.46-74.34-7.41C145.38,11.26,98.57-10.42,98.57-10.42Z"/></g><path class="cls-1" d="M162,64.59l-.14,0C161.88,64.51,161.93,64.52,162,64.59Z"/><path class="cls-4" d="M180.54,19.25l0,.09h0c-6.49-1.27-13-2.59-19.44-4.08,3.76,1.16,7.56,2.16,11.38,3.09l-.76,3.91c-7.31-1.09-14.51-2.39-21.7-4l2,.72q4.74,1.21,9.5,2.31c4.4,1,8.84,2,13.24,2.89l-.82,5.15-.16,0h0c-2-.32-3.94-.59-5.91-1l0,3.48c-2.31.09-4.4.05-6.59,0H161l-.45,5.31-.32,0-2.63-.17c3.63.87,7.3,1.57,11,2.12l-.84,6.08h0l-.33-.05c-3.1-.44-6.17-.93-9.23-1.46l-.59,3.57,2.77.43h0l.09,0-.54,5.06h-.18a154.43,154.43,0,0,1-21.63-3.94,79.19,79.19,0,0,0,23.19,7.38h0l-.58,4-.24,0q-2.72-.39-5.42-1l-.2,0c-6.21-1.16-12.38-2.5-18.46-4.19a200.15,200.15,0,0,0,25.4,9.63l0,0,.17,0v0l.2.06h0l.13.07c1.27-.37.43,1.23-.21,2L161,66.48l-.44-.1c-1.32-.29-2.64-.6-4-.94-.38-.09-.78-.2-1.16-.31q-3.49-1.06-6.95-2.28c-2.4-.78-4.8-1.56-7.21-2.36-5.69-2.2-11.16-4.68-16.21-7.21l3,1a128.7,128.7,0,0,1-11.51-6.57l-.22-.14,1.68-2.88a108.83,108.83,0,0,0,11.66,4.45c-1.4-.87-2.79-1.79-4.13-2.77-3.24-2.16-10.19-9.34-13.11-12.06l5.09,2.11L120,32.69s0,0,0,0L122.31,28l1.29.5,1-1.57c-2.76-1.23-5.47-2.58-8.1-4.07l2.63-5.48a143.42,143.42,0,0,0,19,5.4c-5.94-2.59-11.7-5.42-17.44-8.49l-.05,0a.09.09,0,0,0-.06,0l2.64-5,.06,0c.83.42,1.69.83,2.56,1.22C119.86,6,113.16,0,109.5-2.88l18.43,9.39a66.23,66.23,0,0,0,9.62,3.82c-4.07-1.78-8.1-3.68-12.09-5.67,0,0,0,0,0,0a51.77,51.77,0,0,1-6.68-3.43l-.06,0-.13-.08,1.33-2.17A.67.67,0,0,0,120-1c1,.43,2,.87,3.1,1.3,1.23.52,2.49,1,3.78,1.56q2.82,1.34,5.65,2.61,3.77,1.38,7.59,2.63l.09,0c11.28,4.31,22.93,8.29,32.25,10.47,1.86.43,3.77.85,5.74,1.23h0l2.27.42Z"/><polygon class="cls-4" points="167.93 38.49 308.01 27.36 186.98 -45.52 54.16 -34.88 167.93 38.49"/><g class="cls-9"><polygon class="cls-1" points="167.93 38.49 308.01 27.36 186.98 -45.52 54.16 -34.88 167.93 38.49"/></g><path class="cls-10" d="M177.39-9.13s47.3,18.2,66.75,29.67c14,8.27-7.69,86.37,18.19,94.1"/><path class="cls-10" d="M261.41,115.76a23.92,23.92,0,0,0,4.83,10.44c4,4.88,16.25,12.14,16.25,12.14"/><path class="cls-10" d="M262.82,114.38s6.82-2.31,11.58-2.61,19.1,7.35,19.1,7.35"/><path class="cls-10" d="M261.94,115.13s8.32,9.52,11.76,11.62,16,9.54,16,9.54"/><path class="cls-10" d="M262.33,114.64s14.89,3.28,18.08,5.25,13.23,6.37,13.23,6.37"/><path class="cls-3" d="M84.91,97.79s-55.53,15.53-64.36,26.48c-4.56,5.67.33,31.2-3.37,46.14"/><path class="cls-3" d="M16.55,168.82a17.52,17.52,0,0,0-6.81,5c-2.94,3.59-6.39,13.49-6.39,13.49"/><path class="cls-3" d="M17.76,169.64a42.31,42.31,0,0,1,3.57,8c.92,3.38-2.51,14.84-2.51,14.84"/><path class="cls-3" d="M17.08,169.11s-5.64,7.39-6.65,10.18-4.55,12.9-4.55,12.9"/><path class="cls-3" d="M17.5,169.32s-.2,11.22-1.15,13.8-2.66,10.47-2.66,10.47"/><polygon class="cls-4" points="95.47 123.69 171.1 76.82 78.85 70.11 8.62 126.82 95.47 123.69"/><polygon class="cls-5" points="95.47 123.69 171.1 76.82 78.85 70.11 8.62 126.82 95.47 123.69"/><path class="cls-4" d="M140,118l-4.83-25.64S106.48,88.53,87,94.58s-40.31,23.08-40.31,23.08l9.89,26.18S81,130.27,96.82,125.7,140,118,140,118Z"/><path class="cls-4" d="M140,118H140c-1.68.2-27.8,3.34-43.14,7.76-15.6,4.49-39.51,17.71-40.25,18.12h0l-9.89-26.18s20.8-17,40.32-23.08,48.24-2.27,48.24-2.27Z"/><path class="cls-6" d="M140,118H140c-1.68.2-27.8,3.34-43.14,7.76-15.6,4.49-39.51,17.71-40.25,18.12h0l-9.89-26.18s20.8-17,40.32-23.08,48.24-2.27,48.24-2.27Z"/><path class="cls-2" d="M89.21,94.62h.1S89.24,94.66,89.21,94.62Z"/><path class="cls-4" d="M132.79,118.87c-2,.29-4.35.62-6.89,1l-1,.15-2.13.33c-1.14.07-2.3.19-3.46.33l1.57,0c-7,1.14-14.77,2.6-21.22,4.26-1.27.23-2.54.47-3.8.72l-.64-2.59c4.75-1.4,9.5-2.65,14.34-3.68-.51,0-1,.08-1.5.14q-3.19.58-6.38,1.25c-3,.62-5.92,1.28-8.85,2l-.95-3.36a.38.38,0,0,0,.1,0l.08,0c1.27-.36,2.53-.74,3.81-1.06l-1-2.12.19-.1c1.3-.66,2.52-1.2,3.8-1.74l.11,0-1.21-3.36.19-.07,1.64-.63c-2.44.49-4.85,1.1-7.23,1.79h0l-1.2-3.93h.09c2-.62,4.09-1.21,6.15-1.75L96.77,104l-1.88.55-1.1-3.24h.06a103.22,103.22,0,0,1,14.32-3.73,53.07,53.07,0,0,0-16,2l-.23.06h0L91.2,97h0c1.43-.43,2.87-.81,4.33-1.12,3.93-1,7.9-1.88,11.9-2.54a131.23,131.23,0,0,0-18.12,1.3,0,0,0,0,1,0,0l-.12,0h0l-.14,0h-.14c-.43.38-.56,0-.55-.47l1.14-.31A92.57,92.57,0,0,1,108,91.3h0c2.23-.11,4.42-.15,6.53-.16l-1.87.22a84.93,84.93,0,0,1,9,.76l-.21,2.22a74,74,0,0,0-8.29.59c1.09.13,2.17.31,3.25.52,2.57.39,8.8,2.8,11.35,3.63l-3.68.15-.43,3h0l-.07,3.47-.92.07-.13,1.21q3,0,6,.19l-.05,4.08a93.94,93.94,0,0,0-13,2c4.29-.09,8.56,0,12.87.25h.18l-.21,3.76h-.19c-.58,0-1.17,0-1.77,0C128.44,117.71,130.67,118.3,132.79,118.87Z"/><path class="cls-4" d="M140,118s-22.62,11.7-39.54,16.33c-16.67,4.57-43.11,9.41-43.93,9.55.74-.41,24.65-13.63,40.25-18.12,15.34-4.42,41.46-7.56,43.14-7.76Z"/><path class="cls-7" d="M140,118s-22.62,11.7-39.54,16.33c-16.67,4.57-43.11,9.41-43.93,9.55.74-.41,24.65-13.63,40.25-18.12,15.34-4.42,41.46-7.56,43.14-7.76Z"/></svg>