<svg id="Слой_1" data-name="Слой 1" xmlns="http://www.w3.org/2000/svg" xmlns:xlink="http://www.w3.org/1999/xlink" viewBox="0 0 382 170"><defs><style>.cls-1,.cls-10,.cls-6,.cls-7,.cls-8{fill:none;}.cls-2{fill:#306;}.cls-3{fill:#4a148c;}.cls-4{fill:#fff;}.cls-5{fill:#ffc800;}.cls-10,.cls-6,.cls-7,.cls-8{stroke:#1a2e35;stroke-miterlimit:10;}.cls-7{stroke-dasharray:3.88 2.91;}.cls-8{stroke-dasharray:3.96 2.97;}.cls-9{fill:#1a2e35;}.cls-10{stroke-dasharray:3.78 2.84;}.cls-11{clip-path:url(#clip-path);}.cls-12{fill:#ececec;}.cls-13{fill:#dcdcdc;}.cls-14{fill:#a8a8a8;}.cls-15{fill:#ff9581;}.cls-16{fill:#ff99bc;}.cls-17{fill:#c36358;}.cls-18{opacity:0.1;}.cls-19{fill:#4c1b93;}</style><clipPath id="clip-path"><rect class="cls-1" x="48.24" y="143.78" width="66" height="27"/></clipPath></defs><rect class="cls-2" x="196.4" y="123.84" width="116.24" height="174.23"/><rect class="cls-3" x="177.21" y="142.69" width="135.43" height="28.13" transform="translate(489.85 313.51) rotate(180)"/><rect class="cls-3" x="224.57" y="147.34" width="82.94" height="2.37" transform="translate(532.08 297.05) rotate(180)"/><rect class="cls-3" x="224.57" y="151.45" width="82.94" height="2.37" transform="translate(532.08 305.28) rotate(180)"/><rect class="cls-3" x="224.57" y="155.57" width="82.94" height="2.37" transform="translate(532.08 313.51) rotate(180)"/><rect class="cls-3" x="224.57" y="159.69" width="82.94" height="2.37" transform="translate(532.08 321.75) rotate(180)"/><rect class="cls-3" x="224.57" y="163.8" width="82.94" height="2.37" transform="translate(532.08 329.98) rotate(180)"/><path class="cls-4" d="M211.92,149.69a2.36,2.36,0,1,0,2.36-2.35A2.36,2.36,0,0,0,211.92,149.69Z"/><path class="cls-4" d="M204.16,149.69a2.36,2.36,0,1,0,2.36-2.35A2.36,2.36,0,0,0,204.16,149.69Z"/><path class="cls-4" d="M196.4,149.69a2.36,2.36,0,1,0,2.35-2.35A2.36,2.36,0,0,0,196.4,149.69Z"/><path class="cls-2" d="M188.63,149.69a2.36,2.36,0,1,0,2.36-2.35A2.36,2.36,0,0,0,188.63,149.69Z"/><path class="cls-4" d="M180.87,149.69a2.36,2.36,0,1,0,2.36-2.35A2.36,2.36,0,0,0,180.87,149.69Z"/><path class="cls-2" d="M211.92,156.76a2.36,2.36,0,1,0,2.36-2.36A2.36,2.36,0,0,0,211.92,156.76Z"/><path class="cls-4" d="M204.16,156.76a2.36,2.36,0,1,0,2.36-2.36A2.36,2.36,0,0,0,204.16,156.76Z"/><path class="cls-2" d="M196.4,156.76a2.36,2.36,0,1,0,2.35-2.36A2.35,2.35,0,0,0,196.4,156.76Z"/><path class="cls-4" d="M188.63,156.76A2.36,2.36,0,1,0,191,154.4,2.36,2.36,0,0,0,188.63,156.76Z"/><path class="cls-4" d="M180.87,156.76a2.36,2.36,0,1,0,2.36-2.36A2.35,2.35,0,0,0,180.87,156.76Z"/><path class="cls-4" d="M211.92,163.82a2.36,2.36,0,1,0,2.36-2.35A2.36,2.36,0,0,0,211.92,163.82Z"/><path class="cls-2" d="M204.16,163.82a2.36,2.36,0,1,0,2.36-2.35A2.36,2.36,0,0,0,204.16,163.82Z"/><path class="cls-4" d="M196.4,163.82a2.36,2.36,0,1,0,2.35-2.35A2.36,2.36,0,0,0,196.4,163.82Z"/><path class="cls-4" d="M188.63,163.82a2.36,2.36,0,1,0,2.36-2.35A2.36,2.36,0,0,0,188.63,163.82Z"/><path class="cls-2" d="M180.87,163.82a2.36,2.36,0,1,0,2.36-2.35A2.36,2.36,0,0,0,180.87,163.82Z"/><rect class="cls-2" x="219.75" y="147.34" width="1.36" height="18.84" transform="translate(440.85 313.51) rotate(180)"/><rect class="cls-2" x="312.64" y="142.69" width="24.62" height="28.13"/><rect class="cls-3" x="177.21" y="108.78" width="135.43" height="28.13" transform="translate(489.85 245.7) rotate(180)"/><rect class="cls-3" x="224.57" y="113.43" width="82.94" height="2.37" transform="translate(532.08 229.23) rotate(180)"/><rect class="cls-3" x="224.57" y="117.54" width="82.94" height="2.37" transform="translate(532.08 237.46) rotate(180)"/><rect class="cls-3" x="224.57" y="121.66" width="82.94" height="2.37" transform="translate(532.08 245.7) rotate(180)"/><rect class="cls-3" x="224.57" y="125.78" width="82.94" height="2.37" transform="translate(532.08 253.93) rotate(180)"/><rect class="cls-3" x="224.57" y="129.89" width="82.94" height="2.37" transform="translate(532.08 262.16) rotate(180)"/><path class="cls-2" d="M211.92,115.78a2.36,2.36,0,1,0,2.36-2.35A2.36,2.36,0,0,0,211.92,115.78Z"/><path class="cls-2" d="M204.16,115.78a2.36,2.36,0,1,0,2.36-2.35A2.36,2.36,0,0,0,204.16,115.78Z"/><path class="cls-4" d="M196.4,115.78a2.36,2.36,0,1,0,2.35-2.35A2.36,2.36,0,0,0,196.4,115.78Z"/><path class="cls-2" d="M188.63,115.78a2.36,2.36,0,1,0,2.36-2.35A2.36,2.36,0,0,0,188.63,115.78Z"/><path class="cls-4" d="M180.87,115.78a2.36,2.36,0,1,0,2.36-2.35A2.36,2.36,0,0,0,180.87,115.78Z"/><path class="cls-4" d="M211.92,122.85a2.36,2.36,0,1,0,2.36-2.36A2.36,2.36,0,0,0,211.92,122.85Z"/><path class="cls-4" d="M204.16,122.85a2.36,2.36,0,1,0,2.36-2.36A2.36,2.36,0,0,0,204.16,122.85Z"/><path class="cls-2" d="M196.4,122.85a2.36,2.36,0,1,0,2.35-2.36A2.35,2.35,0,0,0,196.4,122.85Z"/><path class="cls-4" d="M188.63,122.85a2.36,2.36,0,1,0,2.36-2.36A2.36,2.36,0,0,0,188.63,122.85Z"/><path class="cls-2" d="M180.87,122.85a2.36,2.36,0,1,0,2.36-2.36A2.35,2.35,0,0,0,180.87,122.85Z"/><path class="cls-4" d="M211.92,129.91a2.36,2.36,0,1,0,2.36-2.35A2.36,2.36,0,0,0,211.92,129.91Z"/><path class="cls-2" d="M204.16,129.91a2.36,2.36,0,1,0,2.36-2.35A2.36,2.36,0,0,0,204.16,129.91Z"/><path class="cls-4" d="M196.4,129.91a2.36,2.36,0,1,0,2.35-2.35A2.36,2.36,0,0,0,196.4,129.91Z"/><path class="cls-4" d="M188.63,129.91a2.36,2.36,0,1,0,2.36-2.35A2.36,2.36,0,0,0,188.63,129.91Z"/><path class="cls-4" d="M180.87,129.91a2.36,2.36,0,1,0,2.36-2.35A2.36,2.36,0,0,0,180.87,129.91Z"/><rect class="cls-2" x="219.75" y="113.43" width="1.36" height="18.84" transform="translate(440.85 245.7) rotate(180)"/><rect class="cls-2" x="312.64" y="108.78" width="24.62" height="28.13"/><path class="cls-3" d="M116.73,41.39a13.31,13.31,0,0,0,12.32,13.27v0h75.34a15.64,15.64,0,0,0,1.46-31.21,26.34,26.34,0,0,0-51-8.24,15.64,15.64,0,0,0-22.6,13,12.76,12.76,0,0,0-2.16-.18A13.31,13.31,0,0,0,116.73,41.39Z"/><rect class="cls-5" x="161.58" y="31.95" width="13.6" height="11.67"/><polygon class="cls-5" points="156.91 31.95 179.85 31.95 168.38 20.51 156.91 31.95"/><line class="cls-6" x1="234.82" y1="43.34" x2="236.82" y2="43.34"/><line class="cls-7" x1="239.74" y1="43.34" x2="251.87" y2="43.34"/><polyline class="cls-6" points="253.33 43.34 255.33 43.34 255.33 45.34"/><line class="cls-8" x1="255.33" y1="48.31" x2="255.33" y2="102.26"/><line class="cls-6" x1="255.33" y1="103.75" x2="255.33" y2="105.75"/><circle class="cls-9" cx="234.92" cy="43.34" r="1.88"/><path class="cls-9" d="M253.45,105.65a1.88,1.88,0,1,0,1.88-1.88A1.88,1.88,0,0,0,253.45,105.65Z"/><line class="cls-6" x1="101.94" y1="43.34" x2="99.94" y2="43.34"/><line class="cls-7" x1="97.02" y1="43.34" x2="84.89" y2="43.34"/><polyline class="cls-6" points="83.43 43.34 81.43 43.34 81.43 45.34"/><line class="cls-10" x1="81.43" y1="48.17" x2="81.43" y2="86.45"/><line class="cls-6" x1="81.43" y1="87.87" x2="81.43" y2="89.87"/><circle class="cls-9" cx="101.84" cy="43.34" r="1.88"/><path class="cls-9" d="M79.55,89.77a1.88,1.88,0,1,0,1.88-1.88A1.88,1.88,0,0,0,79.55,89.77Z"/><rect class="cls-4" x="-27.56" y="-574.22" width="1706" height="1114"/><rect class="cls-2" x="196.4" y="123.84" width="116.24" height="174.23"/><rect class="cls-3" x="177.21" y="142.69" width="135.43" height="28.13" transform="translate(489.85 313.51) rotate(180)"/><rect class="cls-3" x="224.57" y="147.34" width="82.94" height="2.37" transform="translate(532.08 297.05) rotate(180)"/><rect class="cls-3" x="224.57" y="151.45" width="82.94" height="2.37" transform="translate(532.08 305.28) rotate(180)"/><rect class="cls-3" x="224.57" y="155.57" width="82.94" height="2.37" transform="translate(532.08 313.51) rotate(180)"/><rect class="cls-3" x="224.57" y="159.69" width="82.94" height="2.37" transform="translate(532.08 321.75) rotate(180)"/><rect class="cls-3" x="224.57" y="163.8" width="82.94" height="2.37" transform="translate(532.08 329.98) rotate(180)"/><path class="cls-4" d="M211.92,149.69a2.36,2.36,0,1,0,2.36-2.35A2.36,2.36,0,0,0,211.92,149.69Z"/><path class="cls-4" d="M204.16,149.69a2.36,2.36,0,1,0,2.36-2.35A2.36,2.36,0,0,0,204.16,149.69Z"/><path class="cls-4" d="M196.4,149.69a2.36,2.36,0,1,0,2.35-2.35A2.36,2.36,0,0,0,196.4,149.69Z"/><path class="cls-2" d="M188.63,149.69a2.36,2.36,0,1,0,2.36-2.35A2.36,2.36,0,0,0,188.63,149.69Z"/><path class="cls-4" d="M180.87,149.69a2.36,2.36,0,1,0,2.36-2.35A2.36,2.36,0,0,0,180.87,149.69Z"/><path class="cls-2" d="M211.92,156.76a2.36,2.36,0,1,0,2.36-2.36A2.36,2.36,0,0,0,211.92,156.76Z"/><path class="cls-4" d="M204.16,156.76a2.36,2.36,0,1,0,2.36-2.36A2.36,2.36,0,0,0,204.16,156.76Z"/><path class="cls-2" d="M196.4,156.76a2.36,2.36,0,1,0,2.35-2.36A2.35,2.35,0,0,0,196.4,156.76Z"/><path class="cls-4" d="M188.63,156.76A2.36,2.36,0,1,0,191,154.4,2.36,2.36,0,0,0,188.63,156.76Z"/><path class="cls-4" d="M180.87,156.76a2.36,2.36,0,1,0,2.36-2.36A2.35,2.35,0,0,0,180.87,156.76Z"/><path class="cls-4" d="M211.92,163.82a2.36,2.36,0,1,0,2.36-2.35A2.36,2.36,0,0,0,211.92,163.82Z"/><path class="cls-2" d="M204.16,163.82a2.36,2.36,0,1,0,2.36-2.35A2.36,2.36,0,0,0,204.16,163.82Z"/><path class="cls-4" d="M196.4,163.82a2.36,2.36,0,1,0,2.35-2.35A2.36,2.36,0,0,0,196.4,163.82Z"/><path class="cls-4" d="M188.63,163.82a2.36,2.36,0,1,0,2.36-2.35A2.36,2.36,0,0,0,188.63,163.82Z"/><path class="cls-2" d="M180.87,163.82a2.36,2.36,0,1,0,2.36-2.35A2.36,2.36,0,0,0,180.87,163.82Z"/><rect class="cls-2" x="219.75" y="147.34" width="1.36" height="18.84" transform="translate(440.85 313.51) rotate(180)"/><rect class="cls-2" x="312.64" y="142.69" width="24.62" height="28.13"/><rect class="cls-3" x="177.21" y="108.78" width="135.43" height="28.13" transform="translate(489.85 245.7) rotate(180)"/><rect class="cls-3" x="224.57" y="113.43" width="82.94" height="2.37" transform="translate(532.08 229.23) rotate(180)"/><rect class="cls-3" x="224.57" y="117.54" width="82.94" height="2.37" transform="translate(532.08 237.46) rotate(180)"/><rect class="cls-3" x="224.57" y="121.66" width="82.94" height="2.37" transform="translate(532.08 245.7) rotate(180)"/><rect class="cls-3" x="224.57" y="125.78" width="82.94" height="2.37" transform="translate(532.08 253.93) rotate(180)"/><rect class="cls-3" x="224.57" y="129.89" width="82.94" height="2.37" transform="translate(532.08 262.16) rotate(180)"/><path class="cls-2" d="M211.92,115.78a2.36,2.36,0,1,0,2.36-2.35A2.36,2.36,0,0,0,211.92,115.78Z"/><path class="cls-2" d="M204.16,115.78a2.36,2.36,0,1,0,2.36-2.35A2.36,2.36,0,0,0,204.16,115.78Z"/><path class="cls-4" d="M196.4,115.78a2.36,2.36,0,1,0,2.35-2.35A2.36,2.36,0,0,0,196.4,115.78Z"/><path class="cls-2" d="M188.63,115.78a2.36,2.36,0,1,0,2.36-2.35A2.36,2.36,0,0,0,188.63,115.78Z"/><path class="cls-4" d="M180.87,115.78a2.36,2.36,0,1,0,2.36-2.35A2.36,2.36,0,0,0,180.87,115.78Z"/><path class="cls-4" d="M211.92,122.85a2.36,2.36,0,1,0,2.36-2.36A2.36,2.36,0,0,0,211.92,122.85Z"/><path class="cls-4" d="M204.16,122.85a2.36,2.36,0,1,0,2.36-2.36A2.36,2.36,0,0,0,204.16,122.85Z"/><path class="cls-2" d="M196.4,122.85a2.36,2.36,0,1,0,2.35-2.36A2.35,2.35,0,0,0,196.4,122.85Z"/><path class="cls-4" d="M188.63,122.85a2.36,2.36,0,1,0,2.36-2.36A2.36,2.36,0,0,0,188.63,122.85Z"/><path class="cls-2" d="M180.87,122.85a2.36,2.36,0,1,0,2.36-2.36A2.35,2.35,0,0,0,180.87,122.85Z"/><path class="cls-4" d="M211.92,129.91a2.36,2.36,0,1,0,2.36-2.35A2.36,2.36,0,0,0,211.92,129.91Z"/><path class="cls-2" d="M204.16,129.91a2.36,2.36,0,1,0,2.36-2.35A2.36,2.36,0,0,0,204.16,129.91Z"/><path class="cls-4" d="M196.4,129.91a2.36,2.36,0,1,0,2.35-2.35A2.36,2.36,0,0,0,196.4,129.91Z"/><path class="cls-4" d="M188.63,129.91a2.36,2.36,0,1,0,2.36-2.35A2.36,2.36,0,0,0,188.63,129.91Z"/><path class="cls-4" d="M180.87,129.91a2.36,2.36,0,1,0,2.36-2.35A2.36,2.36,0,0,0,180.87,129.91Z"/><rect class="cls-2" x="219.75" y="113.43" width="1.36" height="18.84" transform="translate(440.85 245.7) rotate(180)"/><rect class="cls-2" x="312.64" y="108.78" width="24.62" height="28.13"/><path class="cls-3" d="M116.73,41.39a13.31,13.31,0,0,0,12.32,13.27v0h75.34a15.64,15.64,0,0,0,1.46-31.21,26.34,26.34,0,0,0-51-8.24,15.64,15.64,0,0,0-22.6,13,12.76,12.76,0,0,0-2.16-.18A13.31,13.31,0,0,0,116.73,41.39Z"/><rect class="cls-5" x="161.58" y="31.95" width="13.6" height="11.67"/><polygon class="cls-5" points="156.91 31.95 179.85 31.95 168.38 20.51 156.91 31.95"/><line class="cls-6" x1="234.82" y1="43.34" x2="236.82" y2="43.34"/><line class="cls-7" x1="239.74" y1="43.34" x2="251.87" y2="43.34"/><polyline class="cls-6" points="253.33 43.34 255.33 43.34 255.33 45.34"/><line class="cls-8" x1="255.33" y1="48.31" x2="255.33" y2="102.26"/><line class="cls-6" x1="255.33" y1="103.75" x2="255.33" y2="105.75"/><circle class="cls-9" cx="234.92" cy="43.34" r="1.88"/><path class="cls-9" d="M253.45,105.65a1.88,1.88,0,1,0,1.88-1.88A1.88,1.88,0,0,0,253.45,105.65Z"/><line class="cls-6" x1="101.94" y1="43.34" x2="99.94" y2="43.34"/><line class="cls-7" x1="97.02" y1="43.34" x2="84.89" y2="43.34"/><polyline class="cls-6" points="83.43 43.34 81.43 43.34 81.43 45.34"/><line class="cls-10" x1="81.43" y1="48.17" x2="81.43" y2="86.45"/><line class="cls-6" x1="81.43" y1="87.87" x2="81.43" y2="89.87"/><circle class="cls-9" cx="101.84" cy="43.34" r="1.88"/><path class="cls-9" d="M79.55,89.77a1.88,1.88,0,1,0,1.88-1.88A1.88,1.88,0,0,0,79.55,89.77Z"/><path class="cls-4" d="M114.37,105.38V222.54a5.78,5.78,0,0,1-5.54,6H54.15a5.78,5.78,0,0,1-5.55-6V105.38c0-6.75,2.48-7.08,5.55-7.08H65.1c.64,0,1.16.72,1.16,1.62v.39c0,2.1,1.15,2.1,2.56,2.1H94.15c1.42,0,2.57,0,2.57-2.1v-.39c0-.9.51-1.62,1.16-1.62h11C111.89,98.3,114.37,99.2,114.37,105.38Z"/><g class="cls-11"><path class="cls-12" d="M71.63,148.2c-.82.09-1.85.27-2.84.39-.07-.56-.2-1.49-.28-2l.58.08,2.54.35.16,0s-.15,1.13-.16,1.2Zm0,0c0-.4-.1-.75-.15-1.07l.15.15-2.54.35.5-.5-.15,1.07-.35-.35c.76.11,1.6.27,2.54.35Z"/><path class="cls-12" d="M70.21,149.55c-.82.09-1.85.27-2.83.39-.08-.56-.21-1.49-.28-2l.58.08,2.53.35.17,0s-.16,1.13-.17,1.2Zm0,0c0-.4-.1-.75-.15-1.07l.15.15-2.53.35.5-.5L68,149.55l-.35-.35c.75.11,1.6.27,2.53.35Z"/><path class="cls-12" d="M73,149.55c-.82.09-1.85.27-2.83.39-.08-.56-.21-1.49-.28-2l.58.08,2.53.35.17,0s-.16,1.13-.17,1.2Zm0,0c0-.4-.1-.75-.15-1.07l.15.15-2.53.35.5-.5-.15,1.07-.35-.35c.75.11,1.6.27,2.53.35Z"/><path class="cls-12" d="M49.41,155.83c-.82.09-1.84.27-2.83.39-.08-.56-.2-1.49-.28-2l.58.08,2.53.35.17,0s-.16,1.13-.17,1.2Zm0,0c0-.4-.1-.75-.14-1.07l.14.15-2.53.35.5-.5-.15,1.07-.35-.35c.75.11,1.6.27,2.53.35Z"/><path class="cls-13" d="M45.64,169.87l11.73-.59L55,155.66H46.24Z"/><path class="cls-14" d="M45.6,169.66l1,0q.3-7,.59-14h-1Q45.93,162.67,45.6,169.66Z"/><path class="cls-2" d="M52.59,149.72a6.12,6.12,0,0,0-1.41,2.87s-1,1.8-.75,2.77a1.77,1.77,0,0,0,1.13,1.2l-.1-.54A2.24,2.24,0,0,0,53,157a5.9,5.9,0,0,0,3.53-.49,3.14,3.14,0,0,0,1.18-1l-.3.78A2.33,2.33,0,0,0,59.2,155c.67-1.2-1.26-2.94-1.43-3.32s-.37-3.1-3.24-2.63A2.77,2.77,0,0,0,52.59,149.72Z"/><path class="cls-2" d="M51.15,156.49a2.48,2.48,0,0,1-.76-.79,1.69,1.69,0,0,1-.18-1.08,3.66,3.66,0,0,1,.54-1.21c.23-.39.49-.77.72-1.16,0,0,0,0,0,0a9.36,9.36,0,0,0-.72.94,4.82,4.82,0,0,0-.56,1,1.72,1.72,0,0,0-.13,1,1.67,1.67,0,0,0,.36.76,4,4,0,0,0,.74.63S51.16,156.51,51.15,156.49Z"/><path class="cls-2" d="M59.44,153.76c-.34-1-1.25-1.64-1.8-2.52a8.08,8.08,0,0,0-.91-1.41s0,0,0,0a6.72,6.72,0,0,1,.73,1.24,7.65,7.65,0,0,0,.86,1.19,3.32,3.32,0,0,1,1.11,2.44,1.24,1.24,0,0,1-.77,1.06s0,0,0,0a1.4,1.4,0,0,0,.79-.79A1.82,1.82,0,0,0,59.44,153.76Z"/><path class="cls-2" d="M59.48,154a1.82,1.82,0,0,0-.25-1.09,2.59,2.59,0,0,0-.82-.76,2.81,2.81,0,0,1-1-.85s0,0,0,0c.36.62,1,.91,1.52,1.44A1.9,1.9,0,0,1,59.1,155a3,3,0,0,1-1,1s0,0,0,0A2.66,2.66,0,0,0,59.48,154Z"/><path class="cls-15" d="M55.14,158.61c2.91,1.59,6.39,3.59,8.52,3.12.94-.21,5.19-5.77,5.37-6.41s-3.69-2.78-4.12-2.34c-.73.73-2.69,4.84-3,4.91s-2.72-.43-5.27-.88S53.13,157.5,55.14,158.61Z"/><path class="cls-15" d="M68.61,156a22.75,22.75,0,0,0,1.94-3.12c.24-.66.82-2.59.34-2.83s-.69.31-.69.31.11-.85-.4-1.05S69,150,69,150s.06-.89-.46-1.05-.68.77-.68.77.08-.81-.4-.77-.58,1.57-.9,2.27c-.08.16-1.75,3.12-1.75,3.12Z"/><path class="cls-2" d="M67.86,149.63a3.92,3.92,0,0,1-.77,2.52s0,0,0,0a2.9,2.9,0,0,0,.8-2.55C67.91,149.57,67.86,149.57,67.86,149.63Z"/><path class="cls-2" d="M69,149.9a5.9,5.9,0,0,1-.84,2.7,0,0,0,0,0,0,0,4,4,0,0,0,.87-2.69C69.05,149.86,69,149.85,69,149.9Z"/><path class="cls-2" d="M70.17,150.42a5.39,5.39,0,0,1-1,2.62s0,0,0,0a3.73,3.73,0,0,0,1-2.63C70.2,150.36,70.18,150.35,70.17,150.42Z"/><path class="cls-15" d="M64,154.66a13.6,13.6,0,0,1,0-2c.1-.62,1.32-2.78,1.8-2.55s.17,1.7-.15,2.35c0,0,1.45.7,1.34,1.77S64,154.66,64,154.66Z"/><path class="cls-2" d="M65.94,150.24c.37.69-.09,1.52-.35,2.17a.06.06,0,0,0,.06.09A2.6,2.6,0,0,1,67,154.19a0,0,0,1,0,0,0,2.1,2.1,0,0,0-1.29-1.79c.27-.66.7-1.51.19-2.16Z"/><path class="cls-5" d="M61.25,157.66l-3.5,2.93A26.53,26.53,0,0,1,54,158.21c-1.58-1.28.17-1.9,2.88-1.45S61.25,157.66,61.25,157.66Z"/><path class="cls-4" d="M57.11,158.25a2.37,2.37,0,0,0-.34-.37,1.7,1.7,0,0,0,.26.43,2,2,0,0,0,.34.37A2.05,2.05,0,0,0,57.11,158.25Zm-3.07,0,.05,0,.08-.09Zm5.86,0a2.1,2.1,0,0,0-.5,0,1.69,1.69,0,0,0,.48.12,2.1,2.1,0,0,0,.5,0A2.11,2.11,0,0,0,59.9,158.23Zm-1.17-1.14a1.2,1.2,0,0,0,0,.19.49.49,0,0,0,.06-.17Z"/><path class="cls-2" d="M57,160c.71-.69,1.47-1.32,2.24-1.94l.67-.51h0c-.36.33-.74.65-1.11,1s-.76.65-1.14,1L57,160S57,160,57,160Z"/><path class="cls-2" d="M59.24,159.35l-1.49,1.24A26.53,26.53,0,0,1,54,158.21c-.56-.46-.7-.83-.53-1.1Z"/><path class="cls-5" d="M58.87,169.62l-11.56.12C50,162.59,52,157.37,52,157.29l.15-.18,0,0a2.47,2.47,0,0,1,.6-.46l.12-.06a2.26,2.26,0,0,1,2.43.5c.21.17,2.57,3.25,2.78,4.42a3.59,3.59,0,0,1-.52,2.15Q58.26,166.62,58.87,169.62Z"/><path class="cls-2" d="M56,163.23a9.66,9.66,0,0,0-1.41.24c-.23.06-.45.13-.68.21l-.33.1a1.53,1.53,0,0,1-.37.08s0,0,0,0a2.08,2.08,0,0,0,.35,0l.33-.06.69-.2c.47-.12.94-.24,1.42-.34C56,163.26,56,163.22,56,163.23Z"/><path class="cls-2" d="M57.14,163.64a9.32,9.32,0,0,0-1.18,0,5.85,5.85,0,0,0-.59,0l-.28,0c-.1,0-.2.05-.3.06s0,0,0,0h.58l.59,0,1.18,0A0,0,0,1,0,57.14,163.64Z"/><path class="cls-4" d="M51,159.48l-.17-.19,0,.08.12.18a2,2,0,0,0,.35.36A2.73,2.73,0,0,0,51,159.48ZM52.27,157a3.38,3.38,0,0,0,0,.45,1.67,1.67,0,0,0,.12-.49.17.17,0,0,0,0-.07Zm3.38,3.12a2.59,2.59,0,0,0-.12.48,2.09,2.09,0,0,0,0,.5,2.81,2.81,0,0,0,.12-.48A2.09,2.09,0,0,0,55.65,160.15Zm-2.13,5.39a2.81,2.81,0,0,0-.12.48,2.09,2.09,0,0,0,0,.5,2.81,2.81,0,0,0,.12-.48A2.09,2.09,0,0,0,53.52,165.54Zm-3.62-4.08a2.7,2.7,0,0,0-.12.49,2.08,2.08,0,0,0,0,.5,2.7,2.7,0,0,0,.12-.49A2.08,2.08,0,0,0,49.9,161.46Zm3-.68a2.75,2.75,0,0,0-.5,0,2.11,2.11,0,0,0,1,.14A2.19,2.19,0,0,0,52.9,160.78Zm4,4.6a2.1,2.1,0,0,0-.5,0,2.43,2.43,0,0,0,1,.14A1.61,1.61,0,0,0,56.91,165.38Zm-7.49-.44a2,2,0,0,0-.49,0h0a1.69,1.69,0,0,0,.48.12,2.07,2.07,0,0,0,.5,0A1.67,1.67,0,0,0,49.42,164.94Zm4.21,3.95a2.79,2.79,0,0,0-.5,0,1.61,1.61,0,0,0,.48.12,2.1,2.1,0,0,0,.5,0A2.81,2.81,0,0,0,53.63,168.89Zm-4.53-.48a2.07,2.07,0,0,0-.5,0,2.07,2.07,0,0,0,.49.12,2.75,2.75,0,0,0,.5,0A1.67,1.67,0,0,0,49.1,168.41Zm4.64-10a2.37,2.37,0,0,0-.37.34,2.05,2.05,0,0,0,.43-.26,2.37,2.37,0,0,0,.37-.34A1.7,1.7,0,0,0,53.74,158.41Zm1.19,5.12a1.94,1.94,0,0,0-.36.34,2.73,2.73,0,0,0,.43-.26,1.92,1.92,0,0,0,.36-.34A2.34,2.34,0,0,0,54.93,163.53Zm-4.18,3.13a2,2,0,0,0-.37.35,2.58,2.58,0,0,0,.43-.26,2,2,0,0,0,.37-.35A2.05,2.05,0,0,0,50.75,166.66Zm7-4.5a2.44,2.44,0,0,0-.35-.37,2.05,2.05,0,0,0,.26.43,1.94,1.94,0,0,0,.34.36A1.79,1.79,0,0,0,57.7,162.16ZM56.27,168a2.31,2.31,0,0,0-.34-.36,1.9,1.9,0,0,0,.26.43,1.92,1.92,0,0,0,.34.36A2.34,2.34,0,0,0,56.27,168Zm-4.2-4.56a1.94,1.94,0,0,0-.34-.36,2.73,2.73,0,0,0,.26.43,2.31,2.31,0,0,0,.34.36A2.34,2.34,0,0,0,52.07,163.39Z"/><path class="cls-15" d="M51.81,157.36c-2.14,1.73-7.63,8.57-6.39,10.16s9.46.86,11.85.11c.71-.22-1.23-4.73-2-4.94s-4.18.88-4.25.67.87-1.51,2.09-4.29C54.51,155.87,52.76,156.6,51.81,157.36Z"/><path class="cls-15" d="M59.15,162.32c1.63.18,2,.48,3.49-.09,1-.38,1.62.08.92.89a5,5,0,0,1-4.09,1.38Z"/><path class="cls-15" d="M54.55,162.75a16.64,16.64,0,0,1,3.8-.5A6.41,6.41,0,0,1,64,165.78c.43.75.5,2.13-.64,1.15-.81-.69-1.12-1.37-1.66-1.69,0,0-.11,1.76-.88,2.16a15.63,15.63,0,0,1-2.09.89,2.89,2.89,0,0,1-.2-.37,2.9,2.9,0,0,1-1.92-.12Z"/><path class="cls-15" d="M59.51,162.46a9.51,9.51,0,0,1,2,2.39c.61,1.16,1.47,3.54.61,4-.63.33-1-.56-1-.56s.15,1.07-.48,1.23-.85-.54-.85-.54,0,.66-.61.7-.54-1.35-1.29-1.91A50.93,50.93,0,0,1,59.51,162.46Z"/><path class="cls-2" d="M60.2,165.29a5.21,5.21,0,0,1,.92,3s0,0,0,0a12.89,12.89,0,0,0-.9-3A0,0,0,0,1,60.2,165.29Z"/><path class="cls-2" d="M59.05,165.94a5.81,5.81,0,0,1,.74,3s0,0,0,0a13.24,13.24,0,0,0-.72-3Z"/><path class="cls-2" d="M61.72,165.23a4,4,0,0,1,1.1,1,7.81,7.81,0,0,0,.56.59c.18.17.44.42.71.3a.45.45,0,0,0,.21-.4,1.19,1.19,0,0,0-.07-.49s0,0,0,0a1.3,1.3,0,0,1,.11.43.68.68,0,0,1,0,.42c-.15.26-.5.21-.71.07a2,2,0,0,1-.36-.3c-.11-.1-.21-.21-.31-.32s-.39-.47-.59-.71a7.25,7.25,0,0,0-.62-.62S61.71,165.22,61.72,165.23Z"/><path class="cls-2" d="M62.33,167.32a16.9,16.9,0,0,0-.62-2.08s0,0,0,0a8.5,8.5,0,0,1,.75,2,2.89,2.89,0,0,1,0,1.17.62.62,0,0,1-.66.54.72.72,0,0,1-.44-.2,1.57,1.57,0,0,1-.31-.49s0,0,0,0a1,1,0,0,0,.69.59.52.52,0,0,0,.38-.1.69.69,0,0,0,.2-.41A3,3,0,0,0,62.33,167.32Z"/><path class="cls-2" d="M59.79,169c.06.08.16.35.39.46a.58.58,0,0,0,.53,0A.71.71,0,0,0,61,169a3.88,3.88,0,0,0,.07-.71h0a2.46,2.46,0,0,1,0,.77.77.77,0,0,1-.35.48.55.55,0,0,1-.59,0,1.15,1.15,0,0,1-.38-.54S59.79,169,59.79,169Z"/><path class="cls-2" d="M58,167.67a1.6,1.6,0,0,1,.18.25c0,.09.11.18.16.28a3.22,3.22,0,0,1,.24.61,1.64,1.64,0,0,0,.25.61.53.53,0,0,0,.59.17.56.56,0,0,0,.25-.23.92.92,0,0,0,.13-.36s0,0,0,0a1.43,1.43,0,0,1-.06.34.53.53,0,0,1-.17.25.59.59,0,0,1-.61.07.91.91,0,0,1-.41-.53c-.08-.24-.14-.49-.23-.72s-.1-.25-.16-.37-.14-.24-.19-.37S57.94,167.66,58,167.67Z"/><path class="cls-2" d="M57.2,168a4.65,4.65,0,0,0,.91,0s0,0,0,0a2.75,2.75,0,0,1-.47,0,1.71,1.71,0,0,1-.45-.09S57.19,168,57.2,168Z"/><path class="cls-2" d="M47.8,164.39a11.31,11.31,0,0,1,1.58-.63,11.79,11.79,0,0,1,1.64-.38l1-.13s0,0,0,0a15.89,15.89,0,0,0-1.66.37c-.54.15-1.07.3-1.61.47-.3.09-.6.2-.9.31C47.8,164.41,47.79,164.39,47.8,164.39Z"/><path class="cls-5" d="M47.33,161.52l4.54.49a25.78,25.78,0,0,0,1.76-4c.6-1.94-1.11-1.56-3.11.32S47.33,161.52,47.33,161.52Z"/><path class="cls-5" d="M47.33,161.52l4.54.49a25.78,25.78,0,0,0,1.76-4c.6-1.94-1.11-1.56-3.11.32S47.33,161.52,47.33,161.52Z"/><path class="cls-4" d="M52.28,157h0a2.1,2.1,0,0,0,0,.5,1.67,1.67,0,0,0,.12-.49.19.19,0,0,0,0-.08Zm-2.38,4.49a2,2,0,0,0-.09.33h.1A1.3,1.3,0,0,0,49.9,161.46Zm-1.57-1h0l0,0h.16Zm4.07.31.08,0,0,0ZM51,159.48a2.31,2.31,0,0,0-.34-.36,2.3,2.3,0,0,0,.25.43,2,2,0,0,0,.35.36A2.73,2.73,0,0,0,51,159.48Z"/><path class="cls-2" d="M51.68,162h.19c0-.06.41-1,.51-1.15.2-.39.42-.78.63-1.16,0,0,0,0,0,0l-.45,1,.11-.14.22-.29s0,0,0,0a1.39,1.39,0,0,1-.25.38l-.14.15a.2.2,0,0,0,0,.08c-.1.19-.57,1.16-.59,1.15l-.22,0S51.67,162,51.68,162Z"/><path class="cls-2" d="M48.19,160.75c1,.06,2,.2,2.94.35.27,0,.55.09.82.15,0,0,0,0,0,0-.49,0-1-.1-1.47-.16L49,160.9l-.82-.14S48.17,160.74,48.19,160.75Z"/><path class="cls-15" d="M53.4,156.69c0,.2.76,1.58,1.65,1.67.29,0,.5-1.55.5-1.55l.05-.11.59-1.57-1.73-1.5-.25-.2s-.14.44-.3,1c0,0,0,.05,0,.08l0,.09-.07.25-.06.19c0,.07,0,.14,0,.2A10.16,10.16,0,0,0,53.4,156.69Z"/><path class="cls-2" d="M53.91,154.42a3.36,3.36,0,0,0,1.69,2.28l.59-1.57-1.73-1.5-.25-.2S54.07,153.87,53.91,154.42Z"/><path class="cls-15" d="M58.32,151.88c.8,2.84-.81,3.64-1.42,3.81s-2.47.62-3.56-2.12,0-4,1.22-4.44S57.51,149,58.32,151.88Z"/><path class="cls-2" d="M57.33,151.52h-.21a.34.34,0,0,1-.2,0,.1.1,0,0,1,0-.12.28.28,0,0,1,.24-.13.35.35,0,0,1,.26.07A.11.11,0,0,1,57.33,151.52Z"/><path class="cls-2" d="M55.45,152.18l.19-.08a.27.27,0,0,0,.18-.1.1.1,0,0,0,0-.13.26.26,0,0,0-.27,0,.35.35,0,0,0-.21.17C55.27,152.1,55.36,152.2,55.45,152.18Z"/><path class="cls-2" d="M56,152.68s0,0,0,0c.06.19.1.42-.06.54h0C56.17,153.16,56.12,152.85,56,152.68Z"/><path class="cls-2" d="M55.8,152.53c-.32.06-.17.69.13.63S56.07,152.47,55.8,152.53Z"/><path class="cls-2" d="M55.68,152.59s-.08.13-.15.15-.15,0-.21-.08h0c0,.12.1.24.24.22s.18-.14.18-.27S55.7,152.57,55.68,152.59Z"/><path class="cls-2" d="M57.15,152.34h0c0,.2.12.42.31.44,0,0,0,0,0,0C57.26,152.82,57.16,152.53,57.15,152.34Z"/><path class="cls-2" d="M57.28,152.09c.31-.1.48.53.19.62S57,152.17,57.28,152.09Z"/><path class="cls-2" d="M57.42,152.1c.06,0,.12.06.18.05s.1-.1.13-.17h0a.24.24,0,0,1-.08.31c-.09.05-.2,0-.26-.14S57.39,152.09,57.42,152.1Z"/><path class="cls-2" d="M56.47,154.26c.06,0,.12.09.19.08a.61.61,0,0,0,.2-.09s0,0,0,0a.26.26,0,0,1-.23.15.19.19,0,0,1-.18-.14S56.46,154.25,56.47,154.26Z"/><path class="cls-2" d="M57.11,153.28a3.32,3.32,0,0,1,.15.42.71.71,0,0,1-.77,0s0,0,0,0a1,1,0,0,0,.63,0s-.21-.48-.19-.48a.91.91,0,0,1,.33,0c-.22-.59-.53-1.15-.74-1.74,0,0,0,0,0,0a10,10,0,0,1,.88,1.84C57.48,153.32,57.18,153.29,57.11,153.28Z"/><path class="cls-2" d="M57.14,153.72a.84.84,0,0,1-.24.33.35.35,0,0,1-.2.07c-.17,0-.21-.13-.21-.26a.72.72,0,0,1,0-.2A1,1,0,0,0,57.14,153.72Z"/><path class="cls-16" d="M56.9,154.05a.35.35,0,0,1-.2.07c-.17,0-.21-.13-.21-.26A.36.36,0,0,1,56.9,154.05Z"/><path class="cls-2" d="M53.47,153.48c.55,0,.62-1.23.62-1.23s2.29-.53,2.38-2.43a3.19,3.19,0,0,0,1.72,1.65s-.21-2.07-1.88-2.37a2.84,2.84,0,0,0-3.13,1.07C52.13,151.86,53.1,153.45,53.47,153.48Z"/><path class="cls-2" d="M56.47,149.68a2.15,2.15,0,0,1-.06.87,2.09,2.09,0,0,1-.39.79c0,.06-.1.11-.14.16l-.08.08-.09.08-.17.13-.19.12-.09.06-.1,0-.2.09-.42.13c.13-.07.27-.12.39-.19l.19-.1.09-.05.09-.07.17-.12a1.07,1.07,0,0,0,.16-.14l.08-.07.07-.08a1.07,1.07,0,0,0,.14-.16,2.47,2.47,0,0,0,.4-.73,3.2,3.2,0,0,0,.1-.42A3,3,0,0,0,56.47,149.68Z"/><path class="cls-15" d="M53.88,153.45s-.8-.79-1.17-.48.36,1.52.88,1.61a.49.49,0,0,0,.6-.39Z"/><path class="cls-2" d="M52.93,153.31s0,0,0,0a1.32,1.32,0,0,1,.79.66.27.27,0,0,0-.42,0s0,0,0,0a.3.3,0,0,1,.35,0,1.21,1.21,0,0,1,.21.24,0,0,0,0,0,.06,0h0C53.85,153.8,53.4,153.27,52.93,153.31Z"/><path class="cls-12" d="M55.59,156.71,55.06,158l-1.65-1.67-.47.54s1.63,2.66,1.64,2.54l.54-1.15.79.8-.07-2Z"/><path class="cls-2" d="M55.93,158.11c0-.33,0-.67-.07-1,0,0,0,0,0,0-.06.32,0,1.58,0,1.88h0s-.73-.7-.74-.69a12,12,0,0,0-.54,1.1c-.26-.43-1.35-2.09-1.65-2.49,0,0,0,0,0,0,.22.45,1.63,2.64,1.65,2.64s.51-1,.57-1.21a8.26,8.26,0,0,0,.83.84C56,158.86,56,158.44,55.93,158.11Z"/><rect class="cls-2" x="59.58" y="169.05" width="0.64" height="0.42"/><rect class="cls-2" x="60.41" y="169.02" width="0.64" height="0.42"/><rect class="cls-2" x="61.24" y="168.99" width="0.64" height="0.42"/><rect class="cls-2" x="62.08" y="168.96" width="0.64" height="0.42"/><rect class="cls-2" x="62.91" y="168.94" width="0.64" height="0.42"/><rect class="cls-2" x="63.74" y="168.91" width="0.64" height="0.42"/><rect class="cls-2" x="64.57" y="168.88" width="0.64" height="0.42"/><rect class="cls-2" x="65.4" y="168.85" width="0.64" height="0.42"/><rect class="cls-2" x="66.23" y="168.82" width="0.64" height="0.42"/><polygon class="cls-3" points="67.03 169.71 59.43 169.71 59.43 169.2 67.03 168.98 67.03 169.71"/><polygon class="cls-2" points="75.99 167.16 63.44 167.16 65.44 157.82 77.98 157.82 75.99 167.16"/><polygon class="cls-3" points="76.45 167.16 63.91 167.16 65.9 157.82 78.45 157.82 76.45 167.16"/><path class="cls-2" d="M72.26,161.94a1,1,0,0,1-.9.78.64.64,0,0,1-.65-.78,1,1,0,0,1,.9-.77A.64.64,0,0,1,72.26,161.94Z"/><polygon class="cls-2" points="72.9 169.59 66.73 169.59 66.73 169.12 72.9 168.92 72.9 169.59"/><polygon class="cls-2" points="74.58 169.59 71.27 169.59 69.27 164.36 72.58 164.36 74.58 169.59"/><polygon class="cls-2" points="75.13 169.59 71.81 169.59 69.82 164.36 73.13 164.36 75.13 169.59"/><path class="cls-14" d="M119.24,169.59l-1,0q-.28-6.88-.58-13.78h1Z"/><path class="cls-12" d="M87.74,161.56c.91-.08,1.74-.24,2.48-.35l-.35.35-.15-1.05.5.5-2.48-.35.15-.15c0,.31-.12.66-.15,1.05Zm0,0c0-.08-.16-1.13-.17-1.17l.17,0,2.48-.35.58-.08-.29,2c-1-.12-2-.3-2.77-.39Z"/><path class="cls-12" d="M89.12,162.88c.92-.08,1.74-.23,2.48-.35l-.35.35-.15-1,.5.5L89.12,162l.15-.15c0,.31-.12.66-.15,1Zm0,0c0-.08-.16-1.13-.17-1.17l.17,0,2.48-.35.58-.08c-.07.55-.2,1.47-.28,2-1-.11-2-.3-2.78-.39Z"/><path class="cls-12" d="M86.35,162.88c.92-.08,1.75-.23,2.48-.35l-.35.35-.15-1,.5.5L86.35,162l.15-.15c0,.31-.11.66-.15,1Zm0,0c0-.08-.16-1.13-.16-1.17l.16,0,2.48-.35.59-.08-.29,2c-1-.11-2-.3-2.78-.39Z"/><path class="cls-12" d="M102.21,149.08c.92-.08,1.74-.23,2.48-.35l-.35.35-.15-1,.5.49-2.48-.35.15-.14c0,.31-.11.66-.15,1Zm0,0c0-.07-.16-1.12-.16-1.17l.16,0,2.48-.35.59-.09-.29,2c-1-.11-2-.3-2.78-.39Z"/><rect class="cls-13" x="89.17" y="146.33" width="10.84" height="6.07" transform="translate(189.18 298.73) rotate(-180)"/><polygon class="cls-13" points="101.09 156.45 99.06 156.45 99.06 154.34 101.09 156.45"/><rect class="cls-4" x="91.48" y="149.5" width="7.25" height="0.13" transform="translate(190.21 299.13) rotate(-180)"/><rect class="cls-4" x="92.97" y="150.21" width="5.76" height="0.13" transform="translate(191.7 300.54) rotate(-180)"/><rect class="cls-4" x="92.54" y="148.09" width="6.2" height="0.13" transform="translate(191.27 296.31) rotate(-180)"/><rect class="cls-4" x="90.64" y="147.38" width="8.09" height="0.13" transform="translate(189.37 294.9) rotate(-180)"/><rect class="cls-4" x="92.37" y="150.91" width="6.36" height="0.13" transform="translate(191.1 301.95) rotate(-180)"/><path class="cls-13" d="M118.32,169.63l-11.53-.45,2.29-13.33h8.59Q118,162.75,118.32,169.63Z"/><path class="cls-17" d="M108.3,158.47c-1.3,2.9-4.45,7.72-5.85,6.53-2.11-1.79-3.53-5.74-4.09-7.33-.32-.9,4.24-2.4,4.52-1.58.4,1.15,1,3.56,1.38,3.9.19.18,1.68-1.91,2.81-2.91C108.7,155.65,108.71,157.54,108.3,158.47Z"/><path class="cls-17" d="M97.22,156.32A8.15,8.15,0,0,0,99.71,159c.52.23,3.26-2.25,3.2-2.83s-1.69-3.63-2.6-4.1S96.8,155.37,97.22,156.32Z"/><path class="cls-17" d="M102.69,155.53a8.29,8.29,0,0,1,.27-2.39c.27-.93.79-2.27.29-2.43-1-.35-2.28,3-2.28,3s-.33,1.57.64,2A1.05,1.05,0,0,0,102.69,155.53Z"/><path class="cls-17" d="M101.56,153.07c-.07.52-.65.15-.65.15s.71.74.43,1.26-1,0-1,0,.67.74.34,1.23-1-.1-1-.13.32.69,0,1c-.58.54-1.38-1.1-2-1.28,0,0-.43,1-.45,1s-.79-1.54-.5-2.35a.55.55,0,0,1,.59-.37.88.88,0,0,1-.06-.87c.12-.2.56-.17.56-.17a.7.7,0,0,1,0-.72.66.66,0,0,1,.6-.2.83.83,0,0,1,.24-.69C99.24,150.53,101.7,151.94,101.56,153.07Z"/><path class="cls-2" d="M98.49,151.64a0,0,0,0,1,0,0,4.92,4.92,0,0,1,2.45,1.61s0,.07,0,.05A10.13,10.13,0,0,0,98.49,151.64Z"/><path class="cls-2" d="M97.8,152.55s0,0,0,0a4.6,4.6,0,0,1,2.56,1.92s0,.08,0,.05A8.14,8.14,0,0,0,97.8,152.55Z"/><path class="cls-2" d="M99.7,155.64a6.51,6.51,0,0,0-2.35-2s0,0,0,0a4.34,4.34,0,0,1,1.5.86,2.91,2.91,0,0,1,.87,1.18S99.71,155.66,99.7,155.64Z"/><path class="cls-2" d="M100.93,153.21s-.05,0,0,.07.59,1,.36,1.21-.59.11-.73,0l-.35-.25.24.36a1.53,1.53,0,0,1,.24.52.66.66,0,0,1,0,.52.36.36,0,0,1-.43.16,1.05,1.05,0,0,1-.46-.3l-.35-.37.21.46a2,2,0,0,1,.13.41.72.72,0,0,1,0,.39.32.32,0,0,1-.29.2.73.73,0,0,1-.37-.15,5.34,5.34,0,0,1-.66-.6l-.33-.31a1.11,1.11,0,0,0-.38-.24,1.31,1.31,0,0,1,.35.27l.3.34a4.92,4.92,0,0,0,.65.64.89.89,0,0,0,.44.2.46.46,0,0,0,.43-.28.83.83,0,0,0,0-.49,1.78,1.78,0,0,0-.13-.45l-.15.09a1.28,1.28,0,0,0,.54.37.56.56,0,0,0,.36,0,.53.53,0,0,0,.26-.23.79.79,0,0,0,.06-.65,2,2,0,0,0-.27-.57l-.11.11a.8.8,0,0,0,1,0C101.77,154.19,101.07,153.36,100.93,153.21Z"/><path class="cls-2" d="M100.91,153.22a1,1,0,0,0,.32.07.24.24,0,0,0,.22-.1.5.5,0,0,0,.06-.28c0-.11,0-.22,0-.34a.94.94,0,0,1,.15.32.51.51,0,0,1,0,.38.37.37,0,0,1-.17.13.34.34,0,0,1-.2,0A.58.58,0,0,1,100.91,153.22Z"/><path class="cls-5" d="M103.16,156.17l-4.75,3.31s2.84,5.87,4.59,5.85,4.28-4.41,5.15-6.31.36-3.51-1.41-1.78-2.4,2.45-2.45,2.42S103.16,156.17,103.16,156.17Z"/><path class="cls-5" d="M98.41,159.48s2,4.07,3.64,5.42a1.58,1.58,0,0,0,1,.43c1.75,0,4.28-4.41,5.15-6.31.55-1.18.55-2.24.06-2.47-.3-.14-.8,0-1.47.69-1.77,1.74-2.4,2.45-2.45,2.42s-1.13-3.49-1.13-3.49Z"/><path class="cls-4" d="M101.88,164.53l.17.09.17.07.17.07.18.06a3.44,3.44,0,0,0,.72.17,4.26,4.26,0,0,0,.62,0l-.11.07a3.83,3.83,0,0,1-2.28-.67l-.17-.19A4.15,4.15,0,0,0,101.88,164.53Zm3-5.44.09,0,.17.08a5.41,5.41,0,0,1,1.2.87,9.27,9.27,0,0,1,.77.89l0-.06a9.1,9.1,0,0,0-.76-.87,5,5,0,0,0-1.46-1A.12.12,0,0,0,104.9,159.09Zm-6,1.35,0,.05a17.75,17.75,0,0,1,1.95-1.1,7.07,7.07,0,0,1,1.39-.52l.22-.05.1,0a3.77,3.77,0,0,1,1.16,0l.21,0s0,0,0-.07l-.18,0a4.36,4.36,0,0,0-1.25.07l-.1,0-.15,0a7.68,7.68,0,0,0-1.41.52A20.67,20.67,0,0,0,98.91,160.44Zm1.36-2.26h0a3.05,3.05,0,0,1,.74.08l.18,0,.18,0,.18.05.17.06a5.29,5.29,0,0,1,.68.32l.08,0a5.07,5.07,0,0,1,.54.36,12,12,0,0,1,2,2.17c.31.4.61.8.93,1.18l.08.1,0,0-.07-.08c-.32-.39-.62-.79-.92-1.19a11.51,11.51,0,0,0-2.06-2.18,4.07,4.07,0,0,0-.48-.33l-.08,0a4.64,4.64,0,0,0-2.15-.64Zm5.86-.33a4.7,4.7,0,0,0,2.31.41v-.06a2.9,2.9,0,0,1-.51,0h-.19l-.18,0-.19,0-.18,0a5.25,5.25,0,0,1-1-.32S106.15,157.83,106.13,157.85Zm1.34-1.18a11,11,0,0,0,1.1.66v-.08a9.2,9.2,0,0,1-1-.62Z"/><path class="cls-2" d="M99.53,160l.38-.31.78-.61c.51-.4,1-.79,1.57-1.17.3-.22.6-.45.91-.65a0,0,0,1,1,0,0c-.24.22-.51.42-.76.63l-.77.61c-.52.41-1,.8-1.57,1.18-.14.11-.29.23-.44.33l-.23.16-.24.15s0,0,0,0Z"/><path class="cls-2" d="M104.25,159.55a11.65,11.65,0,0,1,.44,1.5c.06.25.11.51.16.76a5,5,0,0,1,.1.76s0,0,0,0c-.08-.24-.14-.5-.2-.75s-.12-.5-.17-.75c-.12-.5-.25-1-.35-1.51C104.22,159.54,104.24,159.54,104.25,159.55Z"/><path class="cls-18" d="M102.05,164.9a1.58,1.58,0,0,0,1,.43c1.75,0,4.28-4.41,5.15-6.31.55-1.18.55-2.24.06-2.47Z"/><path class="cls-5" d="M104.8,169.59l11.35,0c0-.54-.86-12.27-5.58-13.38a3.68,3.68,0,0,0-2.78.38c-1.39.94-1.32,2.88-1.7,6.07A55.64,55.64,0,0,1,104.8,169.59Z"/><path class="cls-4" d="M105.37,164.69c.27-.1.53-.21.79-.33s.74-.38,1.1-.59l0,0c.38-.22.76-.46,1.14-.7l0,0,.25-.16a25.65,25.65,0,0,1,2.58-1.52,5.56,5.56,0,0,1,1.42-.49,3.15,3.15,0,0,1,.75,0l.19,0,.1,0s0,0,0,0l-.12,0-.19,0a3.64,3.64,0,0,0-.74,0,5.49,5.49,0,0,0-1.41.49,23.84,23.84,0,0,0-2.57,1.53l-.25.16,0,0-1.12.7,0,0c-.37.21-.74.41-1.12.6a7.81,7.81,0,0,1-.84.35Zm1-4.62h0a11.65,11.65,0,0,1,1.76,2.41l.33.55,0,0c.13.23.27.47.42.69s.24.38.38.56l0,0a7.3,7.3,0,0,0,.49.59,4.53,4.53,0,0,0,.57.5l.08.05.08,0,.17.09a2.07,2.07,0,0,0,.34.15,5,5,0,0,0,1.49.24,7.48,7.48,0,0,0,1.49-.17c.47-.1.92-.24,1.38-.37,0,0,0,0,0,0-.46.14-.92.27-1.38.37a7.46,7.46,0,0,1-1.48.17,4.87,4.87,0,0,1-1.47-.24,3.49,3.49,0,0,1-.34-.15l-.16-.09-.08-.05-.07-.05a3.78,3.78,0,0,1-.57-.49,6,6,0,0,1-.45-.55.1.1,0,0,1,0,0c-.14-.19-.28-.39-.4-.59s-.28-.46-.42-.69l0-.05-.32-.54a11.4,11.4,0,0,0-1.77-2.42l0,0A.19.19,0,0,0,106.35,160.07Zm-.54,2.23.19.23a7.66,7.66,0,0,0,1,1.08,1.66,1.66,0,0,0,.21.16.1.1,0,0,0,0,0,2.16,2.16,0,0,0,.36.22l.09.05.08,0,.18.07.36.11a4.18,4.18,0,0,0,.93.08h.08a4,4,0,0,0,.49,0,7.23,7.23,0,0,0,1.46-.35c.47-.17.93-.37,1.39-.57a13.88,13.88,0,0,1,1.4-.53,3.34,3.34,0,0,1,.43-.1v0a3,3,0,0,0-.43.1,13.2,13.2,0,0,0-1.41.53c-.46.2-.91.4-1.39.56a7.13,7.13,0,0,1-1.45.35,4.53,4.53,0,0,1-.52,0h-.07a4.41,4.41,0,0,1-.89-.09,3.57,3.57,0,0,1-.35-.1l-.17-.07-.09,0-.08-.05a3.79,3.79,0,0,1-.34-.2l0,0-.23-.17a8,8,0,0,1-1-1.07c-.08-.09-.15-.19-.22-.28S105.82,162.28,105.81,162.3Zm1.17-4.16a4.29,4.29,0,0,0,1.71.09,4.11,4.11,0,0,0,1.18-.4l.09-.05.14-.07a8,8,0,0,0,1.21-.89l0,0a7.34,7.34,0,0,1-1.2.87l-.2.11-.09.05a3.94,3.94,0,0,1-1.1.36,3,3,0,0,1-.74,0h-.19l-.18,0-.19,0-.18,0-.2,0A.14.14,0,0,1,107,158.14Zm.66-1.36a8.67,8.67,0,0,0,1.59.85,5.05,5.05,0,0,0,.55.18l.09,0a4.63,4.63,0,0,0,2.28,0l0-.06a3.76,3.76,0,0,1-.67.12h-.74a4.57,4.57,0,0,1-.74-.12l-.09,0a4.35,4.35,0,0,1-.61-.2,8.06,8.06,0,0,1-1.59-.84Zm-2.78,11.46h.33a3.91,3.91,0,0,1,1.39.4,6.54,6.54,0,0,1,.84.52h.06a7.21,7.21,0,0,0-.88-.55,3.88,3.88,0,0,0-1.37-.41h-.36Zm0,.48.38-.46,0,0v0a5.51,5.51,0,0,1,1.11-1,2.78,2.78,0,0,1,.67-.33l.17,0,.19,0a2.21,2.21,0,0,1,.37,0,4.06,4.06,0,0,1,1.46.23,6.67,6.67,0,0,1,1.33.68c.74.47,1.42,1,2.15,1.52h0c-.73-.5-1.41-1.07-2.16-1.55a6.49,6.49,0,0,0-1.34-.68,3.9,3.9,0,0,0-1.48-.24,2.33,2.33,0,0,0-.37,0l-.19,0-.18.05a2.78,2.78,0,0,0-.67.33,5.35,5.35,0,0,0-1.12,1l0,.05,0,0-.32.38S104.81,168.7,104.81,168.72Z"/><path class="cls-17" d="M112.08,157.39c2.32,2.68,5.45,7.42,4.17,8.47-2.1,1.72-8.23,2.71-9.64,2.88-.61.07-1.82-3.89-1.42-4.41s6.89-.87,6.94-1.27c0-.23-1-2.19-1.59-4.6C109.81,155.68,111.43,156.63,112.08,157.39Z"/><path class="cls-17" d="M106.26,164s-1.86,0-3.08,0a7.8,7.8,0,0,0-2.33.42c-.73.37-3.56,2.39-3.09,3.09s2.64-1.41,2.64-1.41S98,168,98.65,168.66s2.84-2,2.84-2-2.43,2-1.65,2.55c.6.43,2.72-1.85,2.72-1.85s-2.09,1.71-1.49,2.19,2.74-1.46,2.74-1.46a4.31,4.31,0,0,0,3.74.44C107.75,168.49,106.26,164,106.26,164Z"/><path class="cls-2" d="M101.19,165.44c-.29.21-.58.42-.85.65a9.22,9.22,0,0,0-.79.74,6.14,6.14,0,0,0-.87,1.09,13.85,13.85,0,0,1,1.72-1.76l.8-.71S101.2,165.43,101.19,165.44Z"/><path class="cls-2" d="M102.06,166.4c-.36.29-.73.55-1.08.85s-.82.73-1.14,1.05c0,0,0,.07,0,0,.34-.31.84-.73,1.18-1s.67-.62,1-.91C102.07,166.41,102.06,166.4,102.06,166.4Z"/><path class="cls-2" d="M103,167.1a9.94,9.94,0,0,0-1.55,1.42s0,0,0,0c.51-.49.9-.87,1.53-1.41C103,167.11,103,167.09,103,167.1Z"/><path class="cls-2" d="M106.52,164c-.85,0-3.34,0-4.19.05a4,4,0,0,0-2,.63,9.71,9.71,0,0,0-2.43,2.26c-.13.18-.32.49-.15.69s1,0,1.82-.74c0,0,0,0,0,0-1.16.93-1.62.83-1.74.67s0-.29.07-.43a2.41,2.41,0,0,1,.41-.54A11.16,11.16,0,0,1,100,165a4.45,4.45,0,0,1,2.35-.88c.86-.07,3.26-.05,4.13-.13A0,0,0,1,0,106.52,164Z"/><path class="cls-2" d="M98.51,168.29a1.78,1.78,0,0,1,.35-.63,3.92,3.92,0,0,1,.55-.67s0,0,0,0a7.12,7.12,0,0,0-.48.64c-.08.13-.15.25-.22.39a.66.66,0,0,0-.1.41c.06.28.41.27.62.2a2.69,2.69,0,0,0,.38-.19,3.34,3.34,0,0,0,.48-.36s0,0,0,0c-.31.29-.89.91-1.37.68A.44.44,0,0,1,98.51,168.29Z"/><path class="cls-5" d="M106.23,163.76l2.23,5.06s7.79-1.75,8.24-3.23-2-5.44-4.19-7.91-2.49-.78-2,1.1,1.42,4,1.32,4.2S106.23,163.76,106.23,163.76Z"/><path class="cls-4" d="M112.75,160.83a3.15,3.15,0,0,1,.75,0l.19,0,.19,0,.36.11a3.74,3.74,0,0,1,1.16.71l.06.1a3.8,3.8,0,0,0-1.24-.77l-.35-.11-.18,0-.19,0a3.64,3.64,0,0,0-.74,0,5.55,5.55,0,0,0-1.37.47v-.05A6,6,0,0,1,112.75,160.83Zm-6.32,3.39,0,.06.86-.47,0,0,.29-.18-.13,0-.21.12,0,0C107,163.93,106.71,164.08,106.43,164.22Zm2.28-.75c.06.1.12.2.19.3s.24.38.38.56l0,0a7.3,7.3,0,0,0,.49.59,4.53,4.53,0,0,0,.57.5l.08.05.08,0,.17.09a2.07,2.07,0,0,0,.34.15,5,5,0,0,0,1.49.24,7.48,7.48,0,0,0,1.49-.17c.49-.11,1-.25,1.45-.39a11.45,11.45,0,0,1,1.28-.33v0c-.44.09-.87.21-1.29.33s-1,.28-1.45.39a7.46,7.46,0,0,1-1.48.17,4.87,4.87,0,0,1-1.47-.24,3.49,3.49,0,0,1-.34-.15l-.16-.09-.08-.05-.07-.05a3.78,3.78,0,0,1-.57-.49,6,6,0,0,1-.45-.55.1.1,0,0,1,0,0c-.14-.19-.28-.39-.4-.59a2.61,2.61,0,0,1-.17-.28Zm-1.6.19.15.11a.1.1,0,0,0,0,0,2.16,2.16,0,0,0,.36.22l.09.05.08,0,.18.07.36.11a4.18,4.18,0,0,0,.93.08h.08a4,4,0,0,0,.49,0,7.23,7.23,0,0,0,1.46-.35c.47-.17.93-.37,1.39-.57a13.88,13.88,0,0,1,1.4-.53,3.19,3.19,0,0,1,1.47-.12,1.7,1.7,0,0,1,.49.18l0-.06a1.72,1.72,0,0,0-.45-.16,3.27,3.27,0,0,0-1.49.12,13.2,13.2,0,0,0-1.41.53c-.46.2-.91.4-1.39.56a7.13,7.13,0,0,1-1.45.35,4.53,4.53,0,0,1-.52,0h-.07a4.41,4.41,0,0,1-.89-.09,3.57,3.57,0,0,1-.35-.1l-.17-.07-.09,0-.08-.05a3.79,3.79,0,0,1-.34-.2l0,0-.12-.09Zm3.22-6.17v.07a7.87,7.87,0,0,0,1-.74l.13-.12,0,0-.12.1A8.08,8.08,0,0,1,110.33,157.49Zm0,.37v.07a4.46,4.46,0,0,0,1.82-.1l.34-.12,0,0,0,0-.31.11a3.48,3.48,0,0,1-.73.13h-.74Zm-2.83,8.87,0,0,.2,0a4.06,4.06,0,0,1,1.46.23,6.67,6.67,0,0,1,1.33.68c.23.14.45.3.67.45h0l-.69-.47a6.49,6.49,0,0,0-1.34-.68,3.9,3.9,0,0,0-1.48-.24Z"/><path class="cls-2" d="M109.35,168l-.22-.44-.44-.88c-.29-.59-.56-1.18-.83-1.78-.15-.34-.31-.67-.45-1,0,0,0,0,0,0,.16.28.3.58.45.88s.31.58.45.88c.29.58.56,1.17.83,1.77.08.17.16.33.23.5s.08.17.11.26.06.18.1.27,0,0,0,0S109.43,168.14,109.35,168Z"/><path class="cls-9" d="M108.29,168.48a3.85,3.85,0,0,1,.34.26l-.21-.1a17.47,17.47,0,0,1,7.23-2.69,2.8,2.8,0,0,0,1-.36,1.77,1.77,0,0,1-.55,1.16,9,9,0,0,1-7.86,2.22,4,4,0,0,1,0-.49Z"/><path class="cls-9" d="M106.32,164l-.26-.21a12.77,12.77,0,0,1,5.22-1.61l.21,0s0,0-.11,0a.86.86,0,0,0-.44.9v0l-.15-1.07c-.29-2.91-.05-3,1.48-.48a3.09,3.09,0,0,1,.54,1.73,1.15,1.15,0,0,1-.72.74,10,10,0,0,1-3.43.37,8.71,8.71,0,0,1-2.42-.44l.09-.15V164Z"/><path class="cls-9" d="M110.69,160c.59-.06.72.15.49.69-.54.13-.77-.22-.49-.69Z"/><path class="cls-17" d="M108.42,158.24c.66.19,1.85-.78,2.34-1.59,0-.05-.1-2.33-.08-2.79,0-.09-2.88.57-2.88.57a7.14,7.14,0,0,1,.2,1.75C108,156.25,107.78,158.06,108.42,158.24Z"/><path class="cls-2" d="M110.72,155.29a3.35,3.35,0,0,1-2.72.57,7.68,7.68,0,0,0-.2-1.43s2.89-.66,2.88-.57S110.7,154.69,110.72,155.29Z"/><path class="cls-17" d="M111.08,150.44c.31,1-.2,3.94-.92,4.59a2.32,2.32,0,0,1-3.55-.2c-.79-1.21,0-5,.75-5.6A2.53,2.53,0,0,1,111.08,150.44Z"/><path class="cls-2" d="M108.65,152.28s0,0,0,0c0,.19-.06.42.11.52,0,0,0,0,0,0C108.55,152.76,108.58,152.46,108.65,152.28Z"/><path class="cls-2" d="M108.86,152.11c.32,0,.23.67-.07.64S108.6,152.08,108.86,152.11Z"/><path class="cls-2" d="M107.51,152.12l0,0c0,.2-.08.42-.27.46,0,0,0,0,0,0C107.44,152.61,107.52,152.32,107.51,152.12Z"/><path class="cls-2" d="M107.37,151.89c-.32-.07-.44.56-.15.63S107.63,152,107.37,151.89Z"/><path class="cls-2" d="M109.16,151.85a2.53,2.53,0,0,1-.23-.12.47.47,0,0,1-.22-.17.16.16,0,0,1,.05-.17.35.35,0,0,1,.34,0,.49.49,0,0,1,.25.26C109.41,151.78,109.27,151.9,109.16,151.85Z"/><path class="cls-2" d="M107.17,151.53a2.3,2.3,0,0,0,.26,0,.5.5,0,0,0,.27-.07.15.15,0,0,0,0-.17.32.32,0,0,0-.32-.11.52.52,0,0,0-.33.14A.14.14,0,0,0,107.17,151.53Z"/><path class="cls-2" d="M108.54,154.13c-.05,0-.11.1-.18.09a.54.54,0,0,1-.21-.08,0,0,0,0,0,0,0,.26.26,0,0,0,.24.14c.09,0,.14-.07.18-.15Z"/><path class="cls-2" d="M108.42,153.51a.69.69,0,0,1-.49.23,1.07,1.07,0,0,1-.25,0h-.08a.05.05,0,0,1,0-.05h0v0h0v0c0-.16.07-.38.07-.38s-.36.1-.35,0a10.84,10.84,0,0,1,.57-2,0,0,0,0,1,0,0c-.11.64-.33,1.24-.45,1.88a1.39,1.39,0,0,1,.33,0s-.1.44-.1.51h0a1,1,0,0,0,.73-.11S108.44,153.49,108.42,153.51Z"/><path class="cls-2" d="M107.79,153.65a.79.79,0,0,0,.28.3.36.36,0,0,0,.21,0c.17,0,.19-.16.18-.29a.62.62,0,0,0,0-.2A1,1,0,0,1,107.79,153.65Z"/><path class="cls-16" d="M108.07,154a.36.36,0,0,0,.21,0c.17,0,.19-.16.18-.29A.36.36,0,0,0,108.07,154Z"/><path class="cls-2" d="M110.6,151.48c.11.29.35,1,.49,1a4.7,4.7,0,0,0-.11-2.34,1.94,1.94,0,0,0-.4-.58A8.65,8.65,0,0,0,110.6,151.48Z"/><path class="cls-2" d="M108.07,150.12a.94.94,0,0,0,1.61,0h0a1,1,0,0,1-.84.51,1,1,0,0,1-.8-.53S108.06,150.11,108.07,150.12Z"/><path class="cls-2" d="M106.11,148.62a1.19,1.19,0,0,1,.62-.55,1.64,1.64,0,0,1,1.09.06s0,0,0,0a1.77,1.77,0,0,0-.94-.06,1.16,1.16,0,0,0-.64.47,1.15,1.15,0,0,0,.21,1.49,1.22,1.22,0,0,0,.9.26s0,0,0,0a1.18,1.18,0,0,1-1.33-.84A1.19,1.19,0,0,1,106.11,148.62Z"/><path class="cls-2" d="M111.17,151s.67-.87.34-1.5c-.18-.35-1-.45-1-.45a1.59,1.59,0,0,0-.82-.68,3.08,3.08,0,0,0-1.5-.11A1.35,1.35,0,0,0,107,148a1.26,1.26,0,0,0-.27,2.17,1.73,1.73,0,0,0,1.43,0,1.18,1.18,0,0,0,1.49,0s.41.51.9.29A.7.7,0,0,0,111.17,151Z"/><path class="cls-17" d="M110.47,152.83s.67-.94,1.1-.7-.09,1.61-.6,1.79a.51.51,0,0,1-.68-.29Z"/><path class="cls-2" d="M111.41,152.52s0,0,0,0a1.32,1.32,0,0,0-.68.8.29.29,0,0,1,.43-.07s0,0,0,0a.33.33,0,0,0-.35.1,2.09,2.09,0,0,0-.17.28s-.07,0-.06,0h0C110.57,153.18,110.93,152.56,111.41,152.52Z"/><rect class="cls-2" x="104.01" y="168.95" width="0.63" height="0.41" transform="translate(208.65 338.32) rotate(-180)"/><rect class="cls-2" x="103.2" y="168.93" width="0.63" height="0.41" transform="translate(207.02 338.26) rotate(-180)"/><rect class="cls-2" x="102.38" y="168.9" width="0.63" height="0.41" transform="translate(205.4 338.21) rotate(-180)"/><rect class="cls-2" x="101.57" y="168.87" width="0.63" height="0.41" transform="translate(203.77 338.16) rotate(-180)"/><rect class="cls-2" x="100.76" y="168.85" width="0.63" height="0.41" transform="translate(202.15 338.1) rotate(-180)"/><rect class="cls-2" x="99.95" y="168.82" width="0.63" height="0.41" transform="translate(200.52 338.05) rotate(-180)"/><rect class="cls-2" x="99.13" y="168.79" width="0.63" height="0.41" transform="translate(198.89 337.99) rotate(-180)"/><rect class="cls-2" x="98.32" y="168.77" width="0.63" height="0.41" transform="translate(197.27 337.94) rotate(-180)"/><rect class="cls-2" x="97.51" y="168.74" width="0.63" height="0.41" transform="translate(195.64 337.89) rotate(-180)"/><polygon class="cls-3" points="97.35 169.6 104.79 169.6 104.79 169.1 97.35 168.89 97.35 169.6"/><polygon class="cls-2" points="90.1 167.64 102.37 167.64 100.42 158.5 88.14 158.5 90.1 167.64"/><polygon class="cls-3" points="89.64 167.64 101.92 167.64 99.97 158.5 87.69 158.5 89.64 167.64"/><path class="cls-2" d="M93.74,162.54a.93.93,0,0,0,.88.76.63.63,0,0,0,.64-.76.93.93,0,0,0-.88-.76A.64.64,0,0,0,93.74,162.54Z"/><polygon class="cls-2" points="93.11 170.02 99.15 170.02 99.15 169.55 93.11 169.36 93.11 170.02"/><polygon class="cls-2" points="91.47 170.02 94.71 170.02 96.67 164.9 93.42 164.9 91.47 170.02"/><polygon class="cls-2" points="90.94 170.02 94.18 170.02 96.13 164.9 92.89 164.9 90.94 170.02"/><path class="cls-5" d="M82.3,162.36c-1.06-2.18-2.91-3.3-5-2.68s-2.41,3.53-.85,4.27,3.12-1.41,3.94-1.86S82.3,162.36,82.3,162.36Z"/><path class="cls-2" d="M83.33,168.15l0-.78c0-.53,0-1.05,0-1.57a7.41,7.41,0,0,0-.54-2.79A4.26,4.26,0,0,0,81,161.08a3.64,3.64,0,0,0-.88-.39,2.13,2.13,0,0,0-1-.56,4.27,4.27,0,0,0-1.47,0,0,0,0,1,0,0,0,3.44,3.44,0,0,1,1.39.1,2.41,2.41,0,0,1,.56.22l.32.2a3,3,0,0,0-1.27,0,3.39,3.39,0,0,0-.45.15,1.31,1.31,0,0,0-.34,0,2.32,2.32,0,0,0-.46.06,3.47,3.47,0,0,0-.86.38s0,0,0,0a3,3,0,0,1,.84-.31,3,3,0,0,1,.43-.07h.24a2.75,2.75,0,0,0-1.35,1.34s0,0,0,0a2.5,2.5,0,0,1,1.72-1.38l.14,0c0,.07,0,.14,0,.21s0,.21,0,.32-.1.42-.17.63a4.78,4.78,0,0,1-.26.62,3,3,0,0,1-.35.6,0,0,0,1,0,0,0c.13-.19.27-.37.39-.58a4.22,4.22,0,0,0,.28-.61,3.72,3.72,0,0,0,.19-.65c0-.12,0-.23.05-.35a.82.82,0,0,0,0-.22,2.62,2.62,0,0,1,.74,0,4,4,0,0,1-.48,1.51,0,0,0,1,0,0,0,6.32,6.32,0,0,0,.36-.74,3,3,0,0,0,.18-.78,3.28,3.28,0,0,1,1.22.42A4,4,0,0,1,82.38,163a6.66,6.66,0,0,1,.6,2.56c.07,1.11.09,2.23.2,3.34,0,.08.12.1.13,0A3.76,3.76,0,0,0,83.33,168.15Z"/><path class="cls-2" d="M80.88,160.9a1.26,1.26,0,0,0-.24-.22l-.27-.21a1.81,1.81,0,0,0-.6-.27s0,0,0,0a1.67,1.67,0,0,1,.6.29l.25.21a1.64,1.64,0,0,0,.25.21S80.89,160.92,80.88,160.9Z"/><path class="cls-2" d="M77.5,161.69c-.17.21-.34.42-.49.64a4.84,4.84,0,0,0-.36.72h0a8.19,8.19,0,0,1,.85-1.34S77.51,161.68,77.5,161.69Z"/><path class="cls-2" d="M79.78,161.47a1.42,1.42,0,0,1-.12.4,4,4,0,0,1-.2.35h0a1.47,1.47,0,0,0,.34-.75S79.78,161.46,79.78,161.47Z"/><path class="cls-5" d="M83.18,162.41a4.37,4.37,0,0,1,4.4-1.21c2.75.63,4,5.68,1.24,6.28s-2.29-4.07-3.31-4.86A2.42,2.42,0,0,0,83.18,162.41Z"/><path class="cls-2" d="M89.81,164a6.65,6.65,0,0,0-.59-.46,2.91,2.91,0,0,0-.64-.31,3.57,3.57,0,0,0-.38-.49,3.88,3.88,0,0,0-.87-.7h.08a3.53,3.53,0,0,1,.46,0,2.6,2.6,0,0,1,.9.23s0,0,0,0a4.14,4.14,0,0,0-.89-.27,3.42,3.42,0,0,0-.46,0l-.24,0h0a4.24,4.24,0,0,0-.84-.31l.08,0,.43-.07a3.62,3.62,0,0,1,.87,0s0,0,0,0a5.07,5.07,0,0,0-.87,0,3.57,3.57,0,0,0-.73.1,2.39,2.39,0,0,0-.53-.06,3.23,3.23,0,0,0-2.73,1.16,5.91,5.91,0,0,0-.85,2.94,22,22,0,0,0-.12,4.21.07.07,0,0,0,.13,0c0-1.19.08-2.38.19-3.57.06-.55.12-1.1.21-1.64a4.63,4.63,0,0,1,.4-1.36,2.46,2.46,0,0,1,1-1.05,3.36,3.36,0,0,1,1.39-.42,3.79,3.79,0,0,1,1.3.12.75.75,0,0,0,0,.26,1.7,1.7,0,0,0,.06.31,1.39,1.39,0,0,0,.12.28l.18.29s0,0,0,0a1.35,1.35,0,0,1-.23-.57,1.53,1.53,0,0,1,0-.3,1.62,1.62,0,0,1,0-.22,3.93,3.93,0,0,1,1.26.67,1.12,1.12,0,0,1,.2.18,1.76,1.76,0,0,0-.24.3,2.28,2.28,0,0,0-.26.46,4.22,4.22,0,0,0-.27,1s0,0,0,0a3,3,0,0,1,.33-1,3.66,3.66,0,0,1,.26-.42l.15-.21.09-.11a4.35,4.35,0,0,1,.82,1.16h0a2.14,2.14,0,0,0-.34.49,5.14,5.14,0,0,0-.27.58,8,8,0,0,0-.34,1.18s0,0,0,0a5.34,5.34,0,0,1,.41-1.16c.09-.18.18-.36.28-.54A4.82,4.82,0,0,0,89,164a3.67,3.67,0,0,1,.33,1.34s0,0,0,0a4.7,4.7,0,0,0-.65-2.06c.17.07.35.15.52.24a2.81,2.81,0,0,1,.6.42S89.83,164,89.81,164Z"/><path class="cls-2" d="M87.69,164.06c-.09.28-.2.56-.28.85a3.49,3.49,0,0,0-.12.85s0,0,0,0a8.87,8.87,0,0,1,.41-1.69S87.69,164,87.69,164.06Z"/><path class="cls-2" d="M89.52,163.35a1.78,1.78,0,0,0-.38-.28,2.28,2.28,0,0,0-.44-.15s0,0,0,0a2.3,2.3,0,0,1,.43.18,3.14,3.14,0,0,1,.39.24S89.53,163.36,89.52,163.35Z"/><path class="cls-5" d="M84.61,159.89s.27-3.38,2.79-4.48c2.1-.92,3.31,1.45,1.82,2.89C88,159.47,86.09,158.94,84.61,159.89Z"/><path class="cls-2" d="M88.76,156.07a8.83,8.83,0,0,0-1.12.53,6.52,6.52,0,0,0-.87.57c0-.08.07-.17.12-.26a3.59,3.59,0,0,1,.21-.38,3.74,3.74,0,0,1,.56-.7s0,0,0,0a5.43,5.43,0,0,0-.59.68c-.08.12-.17.25-.24.38a1.92,1.92,0,0,0-.17.39l0,0a8,8,0,0,0-1.21,1.18l0-.1a4.58,4.58,0,0,1,.15-.49,4.2,4.2,0,0,1,.45-1,0,0,0,1,0,0,0,8.1,8.1,0,0,0-.53,1,3.28,3.28,0,0,0-.17.5,2.09,2.09,0,0,0-.08.34c-.11.14-.22.28-.32.43a10.42,10.42,0,0,0-1.76,5.26c0,.56,0,1.11,0,1.67a10.47,10.47,0,0,0,.15,1.67s.06,0,.06,0c0-.49-.06-1-.07-1.46a14.34,14.34,0,0,1,0-1.47,13.53,13.53,0,0,1,.55-2.89,10.13,10.13,0,0,1,1.28-2.7l.31-.08.38-.1a3.46,3.46,0,0,0,.7-.26,0,0,0,1,0,0,0,2.26,2.26,0,0,1-.72.24l-.59.11c.18-.26.37-.52.58-.77a4.28,4.28,0,0,0,1.43-.1A6.34,6.34,0,0,0,88,158c.25-.1.49-.22.74-.33,0,0,0,0,0,0a4.17,4.17,0,0,1-1.46.47,8.81,8.81,0,0,1-1.36.12,8.08,8.08,0,0,1,.57-.6,6.56,6.56,0,0,1,2.31-1.51S88.77,156.06,88.76,156.07Z"/><path class="cls-2" d="M86.71,156.08a2.77,2.77,0,0,0-.31.45,2.14,2.14,0,0,0-.22.52s0,0,0,0c.08-.17.15-.34.24-.51a2.21,2.21,0,0,1,.3-.45S86.72,156.06,86.71,156.08Z"/><path class="cls-2" d="M89.05,157.2a2.62,2.62,0,0,1-.52.22,3.34,3.34,0,0,1-.52.14s0,0,0,0a3.25,3.25,0,0,0,.54-.12c.18-.07.35-.15.51-.23S89.06,157.19,89.05,157.2Z"/><path class="cls-5" d="M82.65,159.29a6.14,6.14,0,0,0-2.51-2.46c-1.93-1.11-4.24-4-2.35-5.81C79.32,149.55,83.36,152.75,82.65,159.29Z"/><path class="cls-2" d="M84.11,167.17a38.35,38.35,0,0,0-.33-4.28,19.39,19.39,0,0,0-.9-3.83q-.24-.67-.54-1.32a2.88,2.88,0,0,0,0-.51c0-.21,0-.43,0-.65l-.06-.64a4.81,4.81,0,0,1-.08-.65s0,0,0,0a4,4,0,0,1,.07.69c0,.21,0,.42,0,.63s0,.42,0,.63v.23c-.2-.42-.42-.84-.65-1.24a7.5,7.5,0,0,0-.22-2.67s0,0,0,0a7.84,7.84,0,0,1,.14,1.36c0,.37,0,.73,0,1.09l-.15-.26c-.28-.45-.57-.89-.89-1.32a1.91,1.91,0,0,0,0-.63,4.26,4.26,0,0,0-.15-.69q-.1-.33-.24-.66c-.09-.22-.21-.44-.3-.66,0,0,0,0,0,0a3.24,3.24,0,0,1,.27.67,5.33,5.33,0,0,1,.17.66c0,.23.09.45.12.68s0,.3.06.45a17.62,17.62,0,0,0-1.49-1.73s0,0,0,0a19.32,19.32,0,0,1,2.16,2.94l.07.12-.36-.19-.62-.34-.61-.33a3.07,3.07,0,0,0-.31-.17,2.53,2.53,0,0,1-.36-.2s0,0,0,0c.2.11.38.28.58.4l.61.37c.38.21.79.36,1.16.58.26.45.5.92.72,1.39-.23-.15-.46-.28-.69-.41l-.46-.25a2.34,2.34,0,0,1-.43-.26s0,0,0,0a4.29,4.29,0,0,0,.82.57c.27.16.55.31.83.45.23.5.44,1,.62,1.52a28.38,28.38,0,0,1,1.38,7.91c0,.8.07,1.59.08,2.39s0,1.6,0,2.39c0,0,0,0,0,0,.09-.71.11-1.43.14-2.14S84.13,167.9,84.11,167.17Z"/><path class="cls-2" d="M80.25,155.69a9.32,9.32,0,0,1-1.13-.59,12.21,12.21,0,0,1-1.08-.68h0a9.18,9.18,0,0,0,1,.72,10.3,10.3,0,0,0,1.16.56S80.26,155.69,80.25,155.69Z"/><path class="cls-2" d="M80.86,152.82c0-.13-.07-.25-.11-.37h0l-.09-.21v-.06h0a.64.64,0,0,0,0,.07.08.08,0,0,1,0,0,10.13,10.13,0,0,1,.32,1.45s0,0,0,0A4,4,0,0,0,80.86,152.82Z"/><polygon class="cls-3" points="86.36 167.69 86.21 169.49 85.75 174.98 80.77 174.98 80.3 169.49 80.15 167.69 86.36 167.69"/><polygon class="cls-2" points="86.36 167.69 86.21 169.49 80.3 169.49 80.15 167.69 86.36 167.69"/><rect class="cls-19" x="79.66" y="166.96" width="7.19" height="1.73"/></g><path class="cls-2" d="M112.05,94.31H50.92a6.24,6.24,0,0,0-6.18,6.3V226.43a6.25,6.25,0,0,0,6.18,6.3h61.13a6.26,6.26,0,0,0,6.19-6.3V100.61A6.24,6.24,0,0,0,112.05,94.31Zm2.32,128.23a5.78,5.78,0,0,1-5.54,6H54.15a5.78,5.78,0,0,1-5.55-6V105.38c0-6.75,2.48-7.08,5.55-7.08H65.1c.64,0,1.16.72,1.16,1.62v.39c0,2.1,1.15,2.1,2.56,2.1H94.15c1.42,0,2.57,0,2.57-2.1v-.39c0-.9.51-1.62,1.16-1.62h11c3.06,0,5.54.9,5.54,7.08Z"/><g id="u5Zjqx"><path class="cls-3" d="M63.21,100.93l-.1.11-.06.06a1.43,1.43,0,0,0-1-.43,1.4,1.4,0,0,0-1,.43L61,101l-.11-.11h0l.13-.12a2,2,0,0,1,.31-.19,1.53,1.53,0,0,1,.41-.14l.21,0h.32a1.25,1.25,0,0,1,.37.09,1.51,1.51,0,0,1,.26.12,1.77,1.77,0,0,1,.24.17l.11.1Z"/><path class="cls-3" d="M61.34,101.43l-.17-.17a1.26,1.26,0,0,1,.68-.34,1.22,1.22,0,0,1,1,.34l-.17.17a1,1,0,0,0-1.37,0Z"/><path class="cls-3" d="M62.54,101.6l-.16.16a.52.52,0,0,0-.35-.14.52.52,0,0,0-.36.14l-.16-.16A.72.72,0,0,1,62.54,101.6Z"/><path class="cls-3" d="M62.18,101.91a.15.15,0,0,1-.15.15.14.14,0,0,1-.15-.15.15.15,0,0,1,.15-.15A.15.15,0,0,1,62.18,101.91Z"/></g><path class="cls-3" d="M52.89,101.25a.44.44,0,0,1,.44-.43.43.43,0,0,1,.43.43.44.44,0,0,1-.43.44A.44.44,0,0,1,52.89,101.25Z"/><path class="cls-3" d="M54.26,101.25a.44.44,0,0,1,.88,0,.44.44,0,0,1-.88,0Z"/><path class="cls-3" d="M55.64,101.25a.43.43,0,0,1,.43-.43.44.44,0,0,1,.44.43.44.44,0,0,1-.44.44A.44.44,0,0,1,55.64,101.25Z"/><path class="cls-3" d="M57,101.25a.44.44,0,0,1,.87,0,.44.44,0,1,1-.87,0Z"/><path class="cls-3" d="M58.38,101.25a.44.44,0,0,1,.44-.43.43.43,0,0,1,.43.43.44.44,0,0,1-.43.44A.44.44,0,0,1,58.38,101.25Z"/><path class="cls-3" d="M109.43,102.2h-3.54v-1.64h3.54Zm-3.36-.18h3.18v-1.28h-3.18Z"/><rect class="cls-3" x="106.18" y="100.84" width="2.29" height="1.09"/><rect class="cls-3" x="109.44" y="100.94" width="0.32" height="0.88"/><path class="cls-4" d="M84.94,99.79H78a.42.42,0,0,1-.42-.43h0a.42.42,0,0,1,.42-.42h6.91a.42.42,0,0,1,.43.42h0A.43.43,0,0,1,84.94,99.79Z"/><rect class="cls-3" x="52.58" y="115.95" width="58.65" height="22.65" rx="2.07"/><path class="cls-5" d="M68.82,133.67a.46.46,0,0,1-.36-.14,4,4,0,0,1-.46-.38,2,2,0,0,1-.36-.44q-.14-.21,0-.3a20.63,20.63,0,0,1,2.08-.89,24.1,24.1,0,0,1,2.32-.75c-.23-.19-.32-.36-.29-.48a25.69,25.69,0,0,1,1.64-2.68c.56-.81,1.15-1.58,1.76-2.32s1.26-1.49,1.93-2.23,1.38-1.55,2.12-2.42a15.11,15.11,0,0,0-3.45,1.74,32.08,32.08,0,0,0-3.56,2.78.69.69,0,0,1-.46-.06,5.22,5.22,0,0,1-.69-.32,3.89,3.89,0,0,1-.6-.41c-.17-.14-.23-.24-.17-.31a28.14,28.14,0,0,1,3.52-2.69,21.63,21.63,0,0,1,3.67-1.89,19.24,19.24,0,0,1,3.92-1.07,20.52,20.52,0,0,1,4.27-.23c.07,0,.14.12.19.29a2.33,2.33,0,0,1,.11.55,2.44,2.44,0,0,1,0,.55c0,.17-.09.26-.18.28a22.59,22.59,0,0,0-3.35.09,15.48,15.48,0,0,0-2.88.61,1.19,1.19,0,0,1,.32.18,2.34,2.34,0,0,1,.32.31,1.94,1.94,0,0,1,.23.32c.06.1.08.19,0,.25l-1.89,2.24c-.59.7-1.14,1.39-1.65,2.08s-1,1.39-1.47,2.11-.91,1.48-1.35,2.31l.43,0,.42,0q.15,0,.27.27a2.82,2.82,0,0,1,.21.62,2.62,2.62,0,0,1,.08.65c0,.2,0,.31-.14.33a21.2,21.2,0,0,0-3.29.43A13.09,13.09,0,0,0,68.82,133.67Z"/><path class="cls-5" d="M87.86,119.42c.06-.06.16,0,.28.08a2.36,2.36,0,0,1,.36.4c1.19-.22,2.44-.41,3.75-.55a34.06,34.06,0,0,1,4.25-.16c.08,0,.18.14.32.34a7,7,0,0,1,.37.66,4.19,4.19,0,0,1,.27.66c.06.21.05.32,0,.33-1.11,0-2.11,0-3,0s-1.72.06-2.48.11-1.47.14-2.13.25-1.3.22-1.92.36c-.81.91-1.62,1.86-2.44,2.83s-1.58,2-2.3,3a32.18,32.18,0,0,0-2,3.2,17.84,17.84,0,0,0-1.37,3.36c0,.08-.16.08-.34,0a2.9,2.9,0,0,1-.58-.42,3.74,3.74,0,0,1-.51-.55c-.15-.2-.2-.34-.17-.44a16.68,16.68,0,0,1,1.18-2.68A25.33,25.33,0,0,1,81,127.58c.59-.84,1.21-1.67,1.87-2.48s1.34-1.6,2-2.38c-.71.22-1.46.46-2.26.74l-2.66.88a.59.59,0,0,1-.39,0,2.94,2.94,0,0,1-.6-.26,7.29,7.29,0,0,1-.67-.42,4.26,4.26,0,0,1-.59-.49,1.7,1.7,0,0,1-.35-.48.34.34,0,0,1,0-.4,15.12,15.12,0,0,0,2.16-.26q1.11-.21,2.31-.51l2.52-.65c.87-.24,1.79-.46,2.76-.67Z"/><path class="cls-5" d="M86.67,125.82c0-.07.14-.06.26,0a1.4,1.4,0,0,1,.38.33,4,4,0,0,1,.35.46.89.89,0,0,1,.15.43,1.32,1.32,0,0,1-.18.36l-.46.69c-.17.27-.36.55-.57.86l-.56.86c-.16.27-.3.5-.4.7s-.14.31-.1.35.11,0,.25-.09a6.66,6.66,0,0,0,.5-.48l.67-.73.75-.87.73-.87.63-.75c.14-.1.26-.12.36,0s.12.2,0,.37l-.62.84q-.36.5-.78,1c-.28.35-.57.69-.88,1s-.6.65-.89.91a5.75,5.75,0,0,1-.8.63,1.12,1.12,0,0,1-.66.2.89.89,0,0,1-.33-.1,1.68,1.68,0,0,1-.34-.2,1.27,1.27,0,0,1-.25-.27.58.58,0,0,1-.08-.33,3.71,3.71,0,0,1,.24-.94,11.34,11.34,0,0,1,.49-1.1c.19-.37.4-.75.63-1.12s.44-.72.64-1,.37-.56.53-.77A4.05,4.05,0,0,1,86.67,125.82Zm1.54-2.69a.32.32,0,0,1,.37,0,1.24,1.24,0,0,1,.46.26,1.08,1.08,0,0,1,.31.4.3.3,0,0,1,0,.37l-.3.41-.34.49-.31.52a3.23,3.23,0,0,0-.24.5s-.09.06-.2,0a.94.94,0,0,1-.33-.22,1.31,1.31,0,0,1-.27-.45,1.12,1.12,0,0,1,0-.61l.14-.33a2.81,2.81,0,0,1,.21-.43c.08-.15.16-.3.26-.46A4.63,4.63,0,0,1,88.21,123.13Z"/><path class="cls-5" d="M94.31,126.87a2.69,2.69,0,0,1-.26,1,7.17,7.17,0,0,1-.53.93c-.21.31-.42.61-.66.91s-.44.59-.63.88a.77.77,0,0,0-.15.3s.12,0,.25-.09a5.16,5.16,0,0,0,.5-.48l.67-.73.75-.87c.25-.29.5-.58.73-.87l.63-.75c.14-.1.27-.12.37,0s.13.2,0,.37l-.63.84c-.24.33-.51.67-.79,1l-.88,1c-.3.34-.6.65-.88.91a6.44,6.44,0,0,1-.81.63,1.1,1.1,0,0,1-.65.2A1.13,1.13,0,0,1,91,132a2.74,2.74,0,0,1-.36-.23,1.28,1.28,0,0,1-.28-.29.49.49,0,0,1-.1-.34,2,2,0,0,1,.17-.66,6.52,6.52,0,0,1,.38-.74,9.87,9.87,0,0,1,.68-1,10,10,0,0,0,.64-1,4.52,4.52,0,0,0,.25-.46c.06-.12.08-.2.06-.23s-.12,0-.27.09a5.17,5.17,0,0,0-.54.46l-.71.71-.8.85-.78.86c-.26.27-.47.52-.66.74s-.38.66-.51.91a2.3,2.3,0,0,1-.28.46c0,.06-.14.06-.25,0a1.48,1.48,0,0,1-.36-.32,2.39,2.39,0,0,1-.31-.45.86.86,0,0,1-.14-.43,1.28,1.28,0,0,1,.15-.41q.15-.3.39-.72c.15-.28.33-.58.51-.9s.38-.63.55-.93.34-.56.47-.79l.3-.51.27-.51a2.52,2.52,0,0,1,.16-.29h0q.09-.1.27,0a1.76,1.76,0,0,1,.37.32,2.59,2.59,0,0,1,.32.47.75.75,0,0,1,.12.44.28.28,0,0,1-.06.13l-.14.16-.14.16-.09.09c-.09.14-.16.27-.22.38s-.11.21-.17.3c.27-.32.55-.64.83-1s.56-.58.82-.82a5.18,5.18,0,0,1,.75-.56,1,1,0,0,1,.6-.17,2.59,2.59,0,0,1,.4.13,2.84,2.84,0,0,1,.46.24,1.77,1.77,0,0,1,.38.33A.51.51,0,0,1,94.31,126.87Z"/><path class="cls-5" d="M101.37,129.09a17.46,17.46,0,0,1-1.77,1.71c-.57.48-1.16.95-1.76,1.39l-.6,1-.69,1.2-.46.81q-.18.31-.33.54c-.1.14-.19.27-.28.38l-.33.35a2.23,2.23,0,0,1-.88.42,1.09,1.09,0,0,1-.64-.06.91.91,0,0,1-.4-.42,1.56,1.56,0,0,1-.17-.64,2.26,2.26,0,0,1,.07-.72,2,2,0,0,1,.31-.66,5,5,0,0,1,1.16-1.21,16.64,16.64,0,0,1,1.45-.93l.31-.56c.11-.19.2-.37.3-.56l-.33.3-.38.32-.38.25a1,1,0,0,1-.34.12.79.79,0,0,1-.37,0,1.24,1.24,0,0,1-.33-.15,2.61,2.61,0,0,1-.69-.56,1.17,1.17,0,0,1-.31-.78,3,3,0,0,1,.23-1,6.12,6.12,0,0,1,.55-1.08,7.11,7.11,0,0,1,.79-1.06,6.57,6.57,0,0,1,1-.89,4.47,4.47,0,0,1,1-.62,2.33,2.33,0,0,1,1-.19,1.53,1.53,0,0,1,.6.16,2.73,2.73,0,0,1,.54.37,1.38,1.38,0,0,1,.26.39l.31-.35c0-.07.13-.06.26,0a2.18,2.18,0,0,1,.38.33,3.21,3.21,0,0,1,.34.48.89.89,0,0,1,.15.43,1.83,1.83,0,0,1-.21.31l-.41.54c-.16.21-.33.43-.5.68s-.35.47-.5.7l-.14.22a2.29,2.29,0,0,0-.16.23l0,.08a19.56,19.56,0,0,0,2-1.71c.46-.46.93-1,1.4-1.55.14-.1.26-.12.37,0s.11.2,0,.37-.35.47-.6.76S101.65,128.78,101.37,129.09Zm-7.79,7c.07,0,.16,0,.29-.18s.31-.4.53-.73l.5-.83-.38.32a4.2,4.2,0,0,0-.44.35,3,3,0,0,0-.39.41,1,1,0,0,0-.22.38A.23.23,0,0,0,93.58,136.06Zm1.74-4.89a.76.76,0,0,0,.36-.17c.17-.11.37-.26.6-.43L97,130l.74-.65.47-.79a1,1,0,0,1-.35,0c-.08,0-.08-.07,0-.13a2.89,2.89,0,0,0,.34-.35,3.9,3.9,0,0,0,.4-.51,1.57,1.57,0,0,0,.24-.46c0-.14,0-.22-.1-.25a1.19,1.19,0,0,0-.71.3,7.1,7.1,0,0,0-1,.83,10.38,10.38,0,0,0-.94,1,4,4,0,0,0-.62.93c-.06.11-.12.24-.19.39a3.22,3.22,0,0,0-.16.42.78.78,0,0,0,0,.32C95.14,131.15,95.2,131.18,95.32,131.17Z"/><path class="cls-5" d="M108.16,127.83l-.41.46c-.24.28-.5.55-.77.82a5.21,5.21,0,0,1-.9.71l-.37.23a.83.83,0,0,1-.41.15.26.26,0,0,1-.15,0l-.15,0a6.76,6.76,0,0,1-.52.55,4.34,4.34,0,0,1-.58.48l-.35.24a5.11,5.11,0,0,1-.46.28,4,4,0,0,1-.51.25,1.55,1.55,0,0,1-.47.12,1.08,1.08,0,0,1-.71-.18,2.46,2.46,0,0,1-.69-.56,1.06,1.06,0,0,1-.29-.78,3.55,3.55,0,0,1,.45-1.52,7.73,7.73,0,0,1,1.1-1.6,6.54,6.54,0,0,1,1.46-1.24,2.78,2.78,0,0,1,1.57-.46,1.53,1.53,0,0,1,.61.16,3,3,0,0,1,.53.37,1.39,1.39,0,0,1,.32.49,2.56,2.56,0,0,0,.09.92,1.42,1.42,0,0,1-.31.67c-.15.2-.28.36-.39.49l-.23.31q-.08.1,0,.12s.09,0,.21-.08a2.62,2.62,0,0,0,.44-.28c.16-.12.33-.27.51-.43s.35-.33.52-.51l.48-.5.36-.41c.14-.1.26-.12.37,0s.12.2,0,.37Zm-6,3.34a.63.63,0,0,0,.43,0,2.2,2.2,0,0,0,.57-.23,5.19,5.19,0,0,0,.65-.43,6.64,6.64,0,0,0,.64-.55,1.13,1.13,0,0,1-.36-.72,1.42,1.42,0,0,1,.18-.89,1.73,1.73,0,0,1,.25-.34,2.83,2.83,0,0,1,.35-.34c.13-.1.26-.2.4-.29a2.12,2.12,0,0,1,.41-.19c.08-.2.06-.32-.07-.36a1.23,1.23,0,0,0-.72.3,7.69,7.69,0,0,0-1,.83,10.38,10.38,0,0,0-.94,1,4,4,0,0,0-.62.93q-.09.16-.18.36a2,2,0,0,0-.16.37.89.89,0,0,0,0,.32A.22.22,0,0,0,102.19,131.17Z"/><path class="cls-5" d="M64.56,129.93h-2.3v-3.45c0-.35-.14-.53-.43-.53s-.43.18-.43.53v3.45H59.1v-3.41a2.83,2.83,0,0,1,.79-2,2.62,2.62,0,0,1,1.94-.81,2.59,2.59,0,0,1,2.1,1,3.1,3.1,0,0,1,.62,2.07v3.22Z"/><path class="cls-5" d="M61.93,119.37a3,3,0,0,1,2.23.93,3.08,3.08,0,0,1,.93,2.25,3,3,0,0,1-.94,2.25,3.25,3.25,0,0,1-4.55,0,3.19,3.19,0,0,1,0-4.52A3.22,3.22,0,0,1,61.93,119.37Zm-.06,2.26a.8.8,0,0,0-.62.26,1,1,0,0,0,0,1.31.81.81,0,0,0,.62.27.85.85,0,0,0,.63-.27,1,1,0,0,0,0-1.31A.86.86,0,0,0,61.87,121.63Z"/><path class="cls-5" d="M65.8,125.08a1.09,1.09,0,0,1,.33-.8,1,1,0,0,1,.78-.34,1,1,0,0,1,.78.32,1.12,1.12,0,0,1,.31.82,1.16,1.16,0,0,1-.31.83,1,1,0,0,1-.78.32,1.08,1.08,0,0,1-.78-.34A1.18,1.18,0,0,1,65.8,125.08Z"/><path class="cls-5" d="M55.61,125.08a1.09,1.09,0,0,1,.33-.8,1.09,1.09,0,0,1,1.56,0,1.12,1.12,0,0,1,.31.82,1.16,1.16,0,0,1-.31.83,1.09,1.09,0,0,1-1.56,0A1.13,1.13,0,0,1,55.61,125.08Z"/><path class="cls-5" d="M65.61,132.67H58.05v-2.25h7.56Z"/></svg>