<svg id="Слой_1" data-name="Слой 1" xmlns="http://www.w3.org/2000/svg" viewBox="0 0 382 170"><defs><style>.cls-1,.cls-11,.cls-12,.cls-23,.cls-29,.cls-7,.cls-9{fill:#fff;}.cls-2{fill:#c8c8c8;}.cls-3{fill:#dcdcdc;}.cls-4{fill:#a8a8a8;}.cls-5{fill:#ececec;}.cls-11,.cls-24,.cls-6{opacity:0.1;}.cls-7{opacity:0.6;}.cls-8{fill:#ffc800;}.cls-16,.cls-20,.cls-9{opacity:0.2;}.cls-10,.cls-12,.cls-18{opacity:0.4;}.cls-13{opacity:0.9;}.cls-14{fill:#fdf7ea;}.cls-15,.cls-28{opacity:0.7;}.cls-17{fill:#2b454e;}.cls-19,.cls-29{opacity:0.3;}.cls-21{fill:#1a2e35;}.cls-22{fill:#375a64;}.cls-23,.cls-25{opacity:0.5;}.cls-26{isolation:isolate;}.cls-27{fill:#ffc700;}</style></defs><rect class="cls-1" x="-660.56" y="-39.22" width="1706" height="1114"/><rect class="cls-2" x="21.26" y="1.66" width="44.36" height="8.88"/><rect class="cls-3" x="26" y="-7.22" width="34.89" height="8.88"/><path class="cls-4" d="M23,10a12,12,0,0,1-.33-2L22.55,6.1l.14-1.95.14-1,.24-1,.22,1,.11,1,.08,1.95L23.34,8A11.19,11.19,0,0,1,23,10Z"/><path class="cls-4" d="M26.36,10A11,11,0,0,1,26,8L26,6.1l.13-1.95.15-1,.24-1,.21,1,.12,1,.07,1.95L26.75,8A12.24,12.24,0,0,1,26.36,10Z"/><path class="cls-4" d="M29.77,10a12,12,0,0,1-.33-2L29.36,6.1l.14-1.95.14-1,.24-1,.22,1,.11,1,.08,1.95L30.15,8A11.19,11.19,0,0,1,29.77,10Z"/><path class="cls-4" d="M33.17,10a12,12,0,0,1-.33-2L32.77,6.1l.13-1.95.14-1,.25-1,.21,1,.12,1,.07,1.95L33.56,8A12.24,12.24,0,0,1,33.17,10Z"/><path class="cls-4" d="M36.58,10a10.2,10.2,0,0,1-.33-2L36.17,6.1l.14-1.95.14-1,.24-1,.21,1,.12,1L37.1,6.1,37,8A11.19,11.19,0,0,1,36.58,10Z"/><path class="cls-4" d="M40,10a12,12,0,0,1-.33-2L39.57,6.1l.14-1.95.14-1,.25-1,.21,1,.11,1L40.5,6.1,40.36,8A11.19,11.19,0,0,1,40,10Z"/><path class="cls-4" d="M43.38,10a11,11,0,0,1-.32-2L43,6.1l.13-1.95.15-1,.24-1,.21,1,.12,1,.08,1.95L43.77,8A10.36,10.36,0,0,1,43.38,10Z"/><path class="cls-4" d="M46.79,10A11.74,11.74,0,0,1,46.46,8L46.38,6.1l.14-1.95.14-1,.24-1,.22,1,.11,1,.08,1.95L47.17,8A10.91,10.91,0,0,1,46.79,10Z"/><path class="cls-4" d="M50.19,10A10.76,10.76,0,0,1,49.87,8L49.79,6.1l.13-1.95.15-1,.24-1,.21,1,.12,1,.07,1.95L50.58,8A11.91,11.91,0,0,1,50.19,10Z"/><path class="cls-4" d="M53.6,10A11.74,11.74,0,0,1,53.27,8L53.19,6.1l.14-1.95.14-1,.24-1,.22,1,.11,1,.08,1.95L54,8A10.91,10.91,0,0,1,53.6,10Z"/><path class="cls-4" d="M57,10A11.74,11.74,0,0,1,56.67,8L56.6,6.1l.13-1.95.15-1,.24-1,.21,1,.12,1,.07,1.95L57.39,8A11.91,11.91,0,0,1,57,10Z"/><path class="cls-4" d="M60.41,10A10,10,0,0,1,60.08,8L60,6.1l.14-1.95.14-1,.24-1,.21,1,.12,1,.08,1.95L60.79,8A10.91,10.91,0,0,1,60.41,10Z"/><path class="cls-4" d="M63.81,10A11.74,11.74,0,0,1,63.48,8L63.4,6.1l.14-1.95.14-1,.25-1,.21,1,.11,1,.08,1.95L64.2,8A11.91,11.91,0,0,1,63.81,10Z"/><rect class="cls-5" x="12.03" y="10.53" width="62.83" height="165.9"/><polygon class="cls-6" points="74.86 176.43 12.03 176.43 58.76 161.77 74.86 10.53 74.86 176.43"/><rect class="cls-7" x="17.29" y="10.53" width="11.45" height="165.9"/><rect class="cls-2" x="95.47" y="1.66" width="44.36" height="8.88"/><rect class="cls-3" x="100.21" y="-7.22" width="34.89" height="8.88"/><path class="cls-4" d="M97.17,10a12,12,0,0,1-.33-2L96.76,6.1l.14-1.95.14-1,.24-1,.22,1,.11,1,.08,1.95L97.55,8A11.19,11.19,0,0,1,97.17,10Z"/><path class="cls-4" d="M100.57,10a11,11,0,0,1-.32-2l-.08-1.94.13-1.95.15-1,.24-1,.21,1,.12,1,.07,1.95L101,8A12.24,12.24,0,0,1,100.57,10Z"/><path class="cls-4" d="M104,10a12,12,0,0,1-.33-2l-.08-1.94.14-1.95.14-1,.24-1,.22,1,.11,1,.08,1.95L104.36,8A11.19,11.19,0,0,1,104,10Z"/><path class="cls-4" d="M107.38,10a12,12,0,0,1-.33-2L107,6.1l.13-1.95.14-1,.25-1,.21,1,.12,1,.07,1.95L107.77,8A12.24,12.24,0,0,1,107.38,10Z"/><path class="cls-4" d="M110.79,10a10.2,10.2,0,0,1-.33-2l-.08-1.94.14-1.95.14-1,.24-1,.21,1,.12,1,.08,1.95L111.17,8A11.19,11.19,0,0,1,110.79,10Z"/><path class="cls-4" d="M114.19,10a12,12,0,0,1-.33-2l-.08-1.94.14-1.95.14-1,.25-1,.21,1,.11,1,.08,1.95L114.57,8A11.19,11.19,0,0,1,114.19,10Z"/><path class="cls-4" d="M117.59,10a11,11,0,0,1-.32-2l-.08-1.94.13-1.95.15-1,.24-1,.21,1,.12,1,.08,1.95L118,8A10.36,10.36,0,0,1,117.59,10Z"/><path class="cls-4" d="M121,10A11.74,11.74,0,0,1,120.67,8l-.08-1.94.14-1.95.14-1,.24-1,.22,1,.11,1,.08,1.95L121.38,8A10.91,10.91,0,0,1,121,10Z"/><path class="cls-4" d="M124.4,10A10.76,10.76,0,0,1,124.08,8L124,6.1l.13-1.95.15-1,.24-1,.21,1,.12,1,.07,1.95L124.79,8A11.91,11.91,0,0,1,124.4,10Z"/><path class="cls-4" d="M127.81,10A11.74,11.74,0,0,1,127.48,8L127.4,6.1l.14-1.95.14-1,.24-1,.22,1,.11,1,.08,1.95L128.19,8A10.91,10.91,0,0,1,127.81,10Z"/><path class="cls-4" d="M131.21,10A10.76,10.76,0,0,1,130.89,8l-.08-1.94.13-1.95.15-1,.24-1,.21,1,.12,1,.07,1.95L131.6,8A11.91,11.91,0,0,1,131.21,10Z"/><path class="cls-4" d="M134.62,10A10,10,0,0,1,134.29,8l-.08-1.94.14-1.95.14-1,.24-1,.21,1,.12,1,.08,1.95L135,8A10.91,10.91,0,0,1,134.62,10Z"/><path class="cls-4" d="M138,10A11.74,11.74,0,0,1,137.69,8l-.08-1.94.14-1.95.14-1,.25-1,.21,1,.11,1,.08,1.95L138.41,8A11.91,11.91,0,0,1,138,10Z"/><rect class="cls-3" x="86.24" y="10.53" width="62.83" height="165.9"/><polygon class="cls-6" points="149.07 176.43 86.24 176.43 132.97 161.77 149.07 10.53 149.07 176.43"/><rect class="cls-7" x="91.5" y="10.53" width="11.45" height="165.9"/><polygon class="cls-5" points="343.23 176.43 290.74 176.43 286.11 139.43 347.87 139.43 343.23 176.43"/><path class="cls-5" d="M347.85,135.81H286.13a1.81,1.81,0,0,0-1.81,1.81h0a1.81,1.81,0,0,0,1.81,1.81h61.72a1.81,1.81,0,0,0,1.81-1.81h0A1.81,1.81,0,0,0,347.85,135.81Z"/><polygon class="cls-6" points="286.11 139.43 286.58 143.55 347.56 141.89 347.87 139.43 286.11 139.43"/><polygon class="cls-3" points="346.07 153.84 346.03 154.14 287.95 154.14 287.91 153.84 346.07 153.84"/><polygon class="cls-3" points="345.73 156.46 345.7 156.77 288.28 156.77 288.24 156.46 345.73 156.46"/><polygon class="cls-3" points="345.41 159.09 345.37 159.39 288.6 159.39 288.57 159.09 345.41 159.09"/><polygon class="cls-3" points="345.08 161.71 345.04 162.02 288.94 162.02 288.9 161.71 345.08 161.71"/><polygon class="cls-6" points="290.75 176.43 336.98 172.52 347.48 143.55 343.23 176.43 290.75 176.43"/><rect class="cls-8" x="268.04" y="-58.33" width="10.96" height="226.27" transform="translate(547.03 109.6) rotate(180)"/><polygon class="cls-1" points="268.36 0.4 278.67 7.04 278.67 15.58 268.36 8.94 268.36 0.4"/><polygon class="cls-1" points="268.36 19.13 278.67 25.77 278.67 34.3 268.36 27.66 268.36 19.13"/><polygon class="cls-1" points="268.36 37.85 278.67 44.49 278.67 53.03 268.36 46.39 268.36 37.85"/><polygon class="cls-1" points="268.36 56.58 278.67 63.22 278.67 71.75 268.36 65.11 268.36 56.58"/><polygon class="cls-1" points="268.36 75.3 278.67 81.94 278.67 90.48 268.36 83.83 268.36 75.3"/><polygon class="cls-1" points="268.36 94.03 278.67 100.67 278.67 109.2 268.36 102.56 268.36 94.03"/><polygon class="cls-1" points="268.36 112.75 278.67 119.39 278.67 127.92 268.36 121.28 268.36 112.75"/><polygon class="cls-1" points="268.36 131.47 278.67 138.11 278.67 146.65 268.36 140.01 268.36 131.47"/><polygon class="cls-1" points="268.36 150.2 278.67 156.84 278.67 165.37 268.36 158.73 268.36 150.2"/><rect class="cls-9" x="274.71" y="-58.33" width="4.29" height="226.27" transform="translate(553.7 109.6) rotate(180)"/><polygon class="cls-8" points="326.44 22.43 325.41 22.43 323.98 52.18 322.73 52.18 316.89 133.21 315.72 133.21 312.95 170.73 234.07 170.73 231.31 133.21 230.13 133.21 224.3 52.18 223.05 52.18 221.62 22.43 220.58 22.43 220.04 10.16 326.99 10.16 326.44 22.43"/><polygon class="cls-8" points="326.99 10.16 326.44 22.43 325.41 22.43 323.98 52.18 322.73 52.18 316.89 133.21 315.72 133.21 312.95 170.73 234.07 170.73 231.31 133.21 230.13 133.21 224.3 52.18 223.05 52.18 221.62 22.43 220.58 22.43 220.04 10.16 220.26 10.16 222.27 22.25 223.29 22.25 224.7 51.55 225.93 51.55 231.68 131.94 232.83 131.94 236.54 168.49 310.49 168.49 314.19 131.94 315.35 131.94 321.1 51.55 322.33 51.55 323.74 22.25 324.76 22.25 326.77 10.16 326.99 10.16"/><g class="cls-10"><path class="cls-1" d="M223.29,22.25q50.19-2.05,100.45,0-50.21,2.07-100.45,0Z"/><path class="cls-1" d="M225.93,51.56q47.55-2.06,95.17,0-47.57,2.07-95.17,0Z"/><path class="cls-1" d="M232.93,131.92a801.1,801.1,0,0,1,81.27,0,807,807,0,0,1-81.27,0Z"/></g><polygon class="cls-11" points="258.94 170.73 240.57 170.73 237.8 133.21 236.63 133.21 230.79 52.18 229.54 52.18 228.11 22.43 227.08 22.43 226.54 10.17 244.91 10.17 245.45 22.43 246.48 22.43 247.91 52.18 249.16 52.18 255 133.21 256.17 133.21 258.94 170.73"/><polygon class="cls-11" points="293.92 170.73 307.35 170.73 310.11 133.21 311.29 133.21 317.12 52.18 318.38 52.18 319.8 22.43 320.84 22.43 321.38 10.17 307.95 10.17 307.4 22.43 306.37 22.43 304.94 52.18 303.69 52.18 297.86 133.21 296.68 133.21 293.92 170.73"/><polygon class="cls-11" points="288.34 170.73 290.42 170.73 293.18 133.21 294.36 133.21 300.19 52.18 301.44 52.18 302.87 22.43 303.9 22.43 304.45 10.17 302.37 10.17 301.82 22.43 300.79 22.43 299.37 52.18 298.11 52.18 292.28 133.21 291.1 133.21 288.34 170.73"/><path class="cls-5" d="M329.07,6.31H218c.32,1.29.66,2.57,1,3.86H328.07C328.42,8.88,328.75,7.6,329.07,6.31Z"/><path class="cls-6" d="M220.63,6.73a3.14,3.14,0,0,1,.75,3,3,3,0,0,1-.75-3Z"/><path class="cls-6" d="M223.83,6.73a3.11,3.11,0,0,1,.7,3,3,3,0,0,1-.7-3Z"/><path class="cls-6" d="M227,6.73a3.1,3.1,0,0,1,.65,3,3,3,0,0,1-.65-3Z"/><path class="cls-6" d="M230.24,6.73a3.05,3.05,0,0,1,.6,3,3,3,0,0,1-.6-3Z"/><path class="cls-6" d="M233.44,6.73a3,3,0,0,1,.55,3,3,3,0,0,1-.55-3Z"/><path class="cls-6" d="M236.64,6.73a3,3,0,0,1,.5,3,3,3,0,0,1-.5-3Z"/><path class="cls-6" d="M239.85,6.73a3,3,0,0,1,.45,3,2.9,2.9,0,0,1-.45-3Z"/><path class="cls-6" d="M243.05,6.73a3,3,0,0,1,.4,3,2.9,2.9,0,0,1-.4-3Z"/><path class="cls-6" d="M246.25,6.73a2.93,2.93,0,0,1,.35,3,2.91,2.91,0,0,1-.35-3Z"/><path class="cls-6" d="M249.45,6.73a2.92,2.92,0,0,1,.3,3,2.9,2.9,0,0,1-.3-3Z"/><path class="cls-6" d="M252.66,6.73a2.93,2.93,0,0,1,.25,3,2.86,2.86,0,0,1-.25-3Z"/><path class="cls-6" d="M255.86,6.73a2.9,2.9,0,0,1,.2,3,2.88,2.88,0,0,1-.2-3Z"/><path class="cls-6" d="M259.06,6.73a2.89,2.89,0,0,1,.15,3,2.87,2.87,0,0,1-.15-3Z"/><path class="cls-6" d="M262.26,6.73a2.89,2.89,0,0,1,.11,3,2.86,2.86,0,0,1-.11-3Z"/><path class="cls-6" d="M265.55,6.73a2.9,2.9,0,0,1,.2,3,2.88,2.88,0,0,1-.2-3Z"/><path class="cls-6" d="M268.75,6.73a2.87,2.87,0,0,1,.15,3,2.87,2.87,0,0,1-.15-3Z"/><path class="cls-6" d="M272,6.73a2.86,2.86,0,0,1,.1,3,2.88,2.88,0,0,1-.1-3Z"/><path class="cls-6" d="M275.16,6.73a2.86,2.86,0,0,1,0,3,2.88,2.88,0,0,1,0-3Z"/><path class="cls-6" d="M278.36,6.73a2.86,2.86,0,0,1,0,3,2.86,2.86,0,0,1,0-3Z"/><path class="cls-6" d="M281.56,6.73a2.86,2.86,0,0,1-.05,3,2.88,2.88,0,0,1,.05-3Z"/><path class="cls-6" d="M284.76,6.73a2.84,2.84,0,0,1-.1,3,2.91,2.91,0,0,1,.1-3Z"/><path class="cls-6" d="M288,6.73a2.87,2.87,0,0,1-.15,3,2.87,2.87,0,0,1,.15-3Z"/><path class="cls-6" d="M291.17,6.73a2.88,2.88,0,0,1-.2,3,2.9,2.9,0,0,1,.2-3Z"/><path class="cls-6" d="M294.37,6.73a2.86,2.86,0,0,1-.25,3,2.93,2.93,0,0,1,.25-3Z"/><path class="cls-6" d="M297.57,6.73a2.85,2.85,0,0,1-.3,3,2.94,2.94,0,0,1,.3-3Z"/><path class="cls-6" d="M300.78,6.73a2.91,2.91,0,0,1-.35,3,2.93,2.93,0,0,1,.35-3Z"/><path class="cls-6" d="M304,6.73a2.9,2.9,0,0,1-.4,3,3,3,0,0,1,.4-3Z"/><path class="cls-6" d="M307.18,6.73a2.9,2.9,0,0,1-.45,3,3,3,0,0,1,.45-3Z"/><path class="cls-6" d="M310.38,6.73a2.92,2.92,0,0,1-.5,3,3,3,0,0,1,.5-3Z"/><path class="cls-6" d="M313.59,6.73a3,3,0,0,1-.55,3,3,3,0,0,1,.55-3Z"/><path class="cls-6" d="M316.79,6.73a3,3,0,0,1-.6,3,3,3,0,0,1,.6-3Z"/><path class="cls-6" d="M320,6.73a3,3,0,0,1-.65,3,3.08,3.08,0,0,1,.65-3Z"/><path class="cls-6" d="M323.19,6.73a3,3,0,0,1-.69,3,3.1,3.1,0,0,1,.69-3Z"/><path class="cls-6" d="M326.4,6.73a3.07,3.07,0,0,1-.75,3,3.11,3.11,0,0,1,.75-3Z"/><text/><path class="cls-8" d="M272,68c-19.23,16-19.36,46.29,7.08,78,23.84,28.59,48.57,37.38,70.08,24.82a48.2,48.2,0,0,0,4.22-2.75h0c.74-.55,1.48-1.12,2.22-1.72l.49-.4a39.24,39.24,0,0,0,3.79-3.57c18.33-19.71,10.77-52.24-6.29-72.7-18.24-21.85-47.87-42.47-75.18-26.21q-1.83,1.09-3.65,2.4C273.84,66.54,272.93,67.25,272,68Zm30,24.12c1.9-1.57,9.89,2.71,21.94,17.34,5.61,6.82,15.46,22,12.5,24.47-2.64,2.18-12-5.64-21.52-17.11C306.16,106.31,300.06,93.74,302,92.13Z"/><path class="cls-12" d="M272,68c-19.23,16-19.36,46.29,7.08,78,23.84,28.59,48.57,37.38,70.08,24.82a48.2,48.2,0,0,0,4.22-2.75h0c.74-.55,1.48-1.12,2.22-1.72l.49-.4a39.24,39.24,0,0,0,3.79-3.57c18.33-19.71,10.77-52.24-6.29-72.7-18.24-21.85-47.87-42.47-75.18-26.21q-1.83,1.09-3.65,2.4C273.84,66.54,272.93,67.25,272,68Zm30,24.12c1.9-1.57,9.89,2.71,21.94,17.34,5.61,6.82,15.46,22,12.5,24.47-2.64,2.18-12-5.64-21.52-17.11C306.16,106.31,300.06,93.74,302,92.13Z"/><g class="cls-13"><path class="cls-6" d="M332.51,176.26c-17.16,1.5-35.54-8.82-53.43-30.26-26.43-31.7-26.31-62-7.07-78,.28-.23.56-.47.84-.69-9.6,12.77-14.87,41.05,7,72.3C296.83,163.8,316.78,176.5,332.51,176.26Z"/><path class="cls-14" d="M321.39,166.09c-13.29-6.72-24.33-17.23-34-30.41-17.24-23.57-20.08-44.7-18.16-53.23.05-.24-.32-.29-.41,0-2.83,7.22-2.7,29.39,15.55,54.28,12.2,16.63,28.27,26.76,36.36,30.22C321.25,167.11,321.89,166.34,321.39,166.09Z"/><path class="cls-14" d="M330.3,169.93a12.51,12.51,0,0,0-2.65-1.21,7.6,7.6,0,0,0-2.83-.75c-.24,0-.42.32-.28.44a8.33,8.33,0,0,0,5.51,2C330.34,170.44,330.51,170.08,330.3,169.93Z"/><path class="cls-14" d="M323.4,167.26c-.32-.39-1.1.25-.77.64S323.73,167.65,323.4,167.26Z"/><path class="cls-14" d="M326.81,129.84c-6.87-3.65-12.65-9.22-17.75-16.14-9.12-12.38-10.87-23.3-10-27.67,0-.12-.16-.15-.21,0-1.34,3.67-1,15.09,8.7,28.16,6.45,8.74,14.79,14.18,19,16.08C326.75,130.36,327.07,130,326.81,129.84Z"/></g><path class="cls-8" d="M275,67.62c-1.33,2.81-3.87,2.26-4.89,5.24s-.25,2.8-1.21,6-1.89,5.86-1.17,8.84,2.61,2.7,3.82,5.51-.27,5.77-.09,7.58,1.41,2,2.2,4.34-.93,8,.63,10.68,3.49,2.93,3.88,5.12c.33,1.84-1.73,3.4.14,6.86,1.51,2.78,4.13,1.43,6.18,3.7,1.44,1.61.59,3.37,3,5.84s9.45,3.61,11,5.51,5.94,10.61,7,11.67,3.41,1,4.29,1.66,1.46,3.8,4.1,5a18.86,18.86,0,0,0,5.28.75c1.37.09,3,2.09,4.49,2.25,2.33.26,4.45-1.2,6.11-.27,2.67,1.51,4.5,4.12,7.88,4.83s9.35-2.88,10.47-1.65-.48,3.07,1.08,3.82,5.18-1.79,6.75-3.69,7-5,8.46-10.63h0c12.33-19.83,4.66-48.28-10.8-66.81-18.23-21.85-47.87-42.47-75.16-26.21-.82.49-1.63,1-2.44,1.55C275.71,65.7,275.52,66.44,275,67.62Zm27.75,23a1.59,1.59,0,0,1,.21-.15,2.07,2.07,0,0,1,.69-.27c1.41-.92,3.9-.21,5.24.3s.57.6,1.82,1.81,2,.76,3.92,2.08,3.88,4.74,4.88,5.93,2,.42,3.6,2,1.09,3.26,2.18,4.37,3.4,1.28,4,1.84.21,2.6,1.53,4.2,2.68.8,3.73,2.79,1.23,7,1.67,8.64,1.76,2.25,2.4,3.33.26,4.18-1.42,6a.8.8,0,0,1-.13.13,1.7,1.7,0,0,1-.61.32c-3.27,1-12-5.63-21.52-17.12-8.77-10.51-13.46-20.63-12.92-24.69A2.27,2.27,0,0,1,302.72,90.62Z"/><path class="cls-15" d="M275,67.62c-1.33,2.81-3.87,2.26-4.89,5.24s-.25,2.8-1.21,6-1.89,5.86-1.17,8.84,2.61,2.7,3.82,5.51-.27,5.77-.09,7.58,1.41,2,2.2,4.34-.93,8,.63,10.68,3.49,2.93,3.88,5.12c.33,1.84-1.73,3.4.14,6.86,1.51,2.78,4.13,1.43,6.18,3.7,1.44,1.61.59,3.37,3,5.84s9.45,3.61,11,5.51,5.94,10.61,7,11.67,3.41,1,4.29,1.66,1.46,3.8,4.1,5a18.86,18.86,0,0,0,5.28.75c1.37.09,3,2.09,4.49,2.25,2.33.26,4.45-1.2,6.11-.27,2.67,1.51,4.5,4.12,7.88,4.83s9.35-2.88,10.47-1.65-.48,3.07,1.08,3.82,5.18-1.79,6.75-3.69,7-5,8.46-10.63h0c12.33-19.83,4.66-48.28-10.8-66.81-18.23-21.85-47.87-42.47-75.16-26.21-.82.49-1.63,1-2.44,1.55C275.71,65.7,275.52,66.44,275,67.62Zm27.75,23a1.59,1.59,0,0,1,.21-.15,2.07,2.07,0,0,1,.69-.27c1.41-.92,3.9-.21,5.24.3s.57.6,1.82,1.81,2,.76,3.92,2.08,3.88,4.74,4.88,5.93,2,.42,3.6,2,1.09,3.26,2.18,4.37,3.4,1.28,4,1.84.21,2.6,1.53,4.2,2.68.8,3.73,2.79,1.23,7,1.67,8.64,1.76,2.25,2.4,3.33.26,4.18-1.42,6a.8.8,0,0,1-.13.13,1.7,1.7,0,0,1-.61.32c-3.27,1-12-5.63-21.52-17.12-8.77-10.51-13.46-20.63-12.92-24.69A2.27,2.27,0,0,1,302.72,90.62Z"/><path class="cls-1" d="M343.64,164.9c-2.05,1.47-5.32,3.52-7.73,1.52l-.82-.73a38,38,0,0,0-4.2-3.57,3.21,3.21,0,0,0-2.18-.64c-1.76.07-4.16.8-5.74-.46,2,.43,3.56-.73,5.55-1.09,3.52-.66,6.19,2.74,8.39,4.95a1.93,1.93,0,0,0,1.29.81c1.72.22,3.68-.42,5.44-.79Z"/><path class="cls-1" d="M283,125c-2.91-.9-2.77-4.8-4.41-6.71-4.88-4.54-3.12-6.33-2.47-12.1a3.48,3.48,0,0,0-.09-1.36,2.83,2.83,0,0,1,.64,1.31c.58,2.18.2,4.73.51,6.85.34,1.64,1.86,2.69,2.88,4.1,1.92,2.47.66,5.73,2.94,7.91Z"/><path class="cls-1" d="M272.9,79c-.35-3.31,2.47-6,4-8.61a15.28,15.28,0,0,1,12.4-9.62c-4.62,2.49-8.72,5.71-10.79,10.6-1.8,2.71-4.63,4.44-5.58,7.63Z"/><path class="cls-1" d="M359.69,145.15a1.56,1.56,0,0,0,1.5.53,1.68,1.68,0,0,0,1.34-1.87,21.87,21.87,0,0,0-3.25-8.11,1.6,1.6,0,0,0-2.23-.35,1.61,1.61,0,0,0-.45,2.21,18.68,18.68,0,0,1,2.76,6.87A1.54,1.54,0,0,0,359.69,145.15Z"/><path class="cls-1" d="M335.61,137.54a1.64,1.64,0,0,0-2.14,2.3,21.43,21.43,0,0,0,6.23,6.1,1.66,1.66,0,0,0,2.22-.54,1.55,1.55,0,0,0-.44-2.18,18.65,18.65,0,0,1-5.28-5.15A1.43,1.43,0,0,0,335.61,137.54Z"/><path class="cls-1" d="M299.18,130.25a1.66,1.66,0,0,0,1.59-.37,1.59,1.59,0,0,0,.15-2.24,21.68,21.68,0,0,0-7.22-4.93,1.68,1.68,0,0,0-2.11.9,1.53,1.53,0,0,0,.81,2.06,18.89,18.89,0,0,1,6.11,4.16A1.37,1.37,0,0,0,299.18,130.25Z"/><path class="cls-1" d="M325.91,70a1.67,1.67,0,0,0,.86-1.39A1.51,1.51,0,0,0,325.22,67a23.73,23.73,0,0,0-8.79,2,1.64,1.64,0,0,0-.84,2.12,1.54,1.54,0,0,0,2.1.74,20.71,20.71,0,0,1,7.43-1.73A1.61,1.61,0,0,0,325.91,70Z"/><path class="cls-1" d="M290.31,103.42a1.54,1.54,0,0,0,.22,1.57,1.6,1.6,0,0,0,2.25.17A24.61,24.61,0,0,0,298.42,98a1.54,1.54,0,0,0-.71-2.1,1.66,1.66,0,0,0-2.15.79,21.09,21.09,0,0,1-4.76,6A1.66,1.66,0,0,0,290.31,103.42Z"/><path class="cls-1" d="M361.7,122.43a1.7,1.7,0,0,0,1.15-1.16,1.52,1.52,0,0,0-1.11-1.91,23.18,23.18,0,0,0-8.94,0,1.68,1.68,0,0,0-1.32,1.88,1.53,1.53,0,0,0,1.84,1.23,19.87,19.87,0,0,1,7.56,0A1.62,1.62,0,0,0,361.7,122.43Z"/><path class="cls-8" d="M321.07,80.71A1.58,1.58,0,0,0,321,82a19.19,19.19,0,0,1,1.07,7.37A1.52,1.52,0,0,0,323.56,91a1.68,1.68,0,0,0,1.72-1.52A22.31,22.31,0,0,0,324,80.74a1.55,1.55,0,0,0-2.06-.85A1.68,1.68,0,0,0,321.07,80.71Z"/><path class="cls-8" d="M346.91,158.35a1.59,1.59,0,0,0,1.25.16,20,20,0,0,1,7.57-.54,1.69,1.69,0,0,0,1.88-1.33,1.51,1.51,0,0,0-1.26-1.81,23.14,23.14,0,0,0-9,.63,1.65,1.65,0,0,0-1.17,2A1.49,1.49,0,0,0,346.91,158.35Z"/><path class="cls-8" d="M286.6,79a1.66,1.66,0,0,0,.41-1.2,20.16,20.16,0,0,1,1-7.48,1.52,1.52,0,0,0-.94-2,1.68,1.68,0,0,0-2.06,1,23.21,23.21,0,0,0-1.2,8.84,1.53,1.53,0,0,0,1.72,1.39A1.76,1.76,0,0,0,286.6,79Z"/><path class="cls-8" d="M320.9,148.7a1.52,1.52,0,0,0,1,.69,19.16,19.16,0,0,1,6.87,2.85,1.63,1.63,0,0,0,2.24-.39,1.55,1.55,0,0,0-.29-2.21,21.76,21.76,0,0,0-8.12-3.38,1.68,1.68,0,0,0-1.91,1.29A1.52,1.52,0,0,0,320.9,148.7Z"/><path class="cls-8" d="M343.47,108.19a1.54,1.54,0,0,0,.09,1.24,19.27,19.27,0,0,1,2,7.14,1.51,1.51,0,0,0,1.68,1.43,1.68,1.68,0,0,0,1.52-1.73,21.81,21.81,0,0,0-2.4-8.43,1.56,1.56,0,0,0-2.16-.58A1.7,1.7,0,0,0,343.47,108.19Z"/><path class="cls-8" d="M282,98.22a1.56,1.56,0,0,0,.09,1.25,19.32,19.32,0,0,1,2,7.14A1.51,1.51,0,0,0,285.8,108a1.68,1.68,0,0,0,1.53-1.72,22,22,0,0,0-2.39-8.45,1.57,1.57,0,0,0-2.16-.57A1.64,1.64,0,0,0,282,98.22Z"/><path class="cls-8" d="M313.52,131.92a1.6,1.6,0,0,0,.15-1.25,19.53,19.53,0,0,1-.57-7.45,1.52,1.52,0,0,0-1.35-1.75,1.68,1.68,0,0,0-1.82,1.42,22.21,22.21,0,0,0,.67,8.81,1.53,1.53,0,0,0,2,1A1.64,1.64,0,0,0,313.52,131.92Z"/><path class="cls-1" d="M333.39,88.08a1.44,1.44,0,0,0,.68.47,19.08,19.08,0,0,1,6.31,3.86,1.61,1.61,0,0,0,2.26,0,1.56,1.56,0,0,0,.05-2.24,21.48,21.48,0,0,0-7.46-4.58,1.67,1.67,0,0,0-2.07,1A1.53,1.53,0,0,0,333.39,88.08Z"/><path class="cls-1" d="M298,75.54a1.47,1.47,0,0,0,.48.66,18.76,18.76,0,0,1,4.62,5.74,1.56,1.56,0,0,0,2.13.68,1.63,1.63,0,0,0,.78-2.14,21.61,21.61,0,0,0-5.46-6.79,1.62,1.62,0,0,0-2.26.29A1.6,1.6,0,0,0,298,75.54Z"/><path class="cls-1" d="M359.42,114.49C354.28,97,341,83.34,326.21,73.37c-2.16-1.43-4.38-2.75-6.55-4.21,2.37,1.07,4.74,2.16,7.06,3.37,11.46,6.31,21.59,15.48,27.77,27.13a42.29,42.29,0,0,1,4.93,14.83Z"/><polygon class="cls-8" points="52.53 126.09 40.43 127.89 40.43 127.89 29.58 54.67 41.68 52.87 52.53 126.09 52.53 126.09"/><polygon class="cls-16" points="52.53 126.09 40.43 127.89 40.43 127.89 29.58 54.67 41.68 52.87 52.53 126.09 52.53 126.09"/><rect class="cls-8" x="24.33" y="66.72" width="12.23" height="74.02" transform="translate(-35.08 17.75) rotate(-20.95)"/><rect class="cls-16" x="24.33" y="66.72" width="12.23" height="74.02" transform="translate(-35.08 17.75) rotate(-20.95)"/><polygon class="cls-8" points="85.31 141.53 73.94 137.01 101.3 68.23 101.3 68.23 112.66 72.75 112.66 72.75 85.31 141.53 85.31 141.53"/><polygon class="cls-16" points="85.31 141.53 73.94 137.01 101.3 68.23 101.3 68.23 112.66 72.75 112.66 72.75 85.31 141.53 85.31 141.53"/><polygon class="cls-8" points="74.85 127.39 62.61 127.39 62.61 127.39 62.61 53.37 62.61 53.37 74.85 53.37 74.85 53.37 74.85 127.39 74.85 127.39"/><polygon class="cls-16" points="74.85 127.39 62.61 127.39 62.61 127.39 62.61 53.37 62.61 53.37 74.85 53.37 74.85 53.37 74.85 127.39 74.85 127.39"/><polygon class="cls-8" points="63.26 123.01 51.02 123.01 51.02 123.01 51.02 48.99 51.02 48.99 63.26 48.99 63.26 48.99 63.26 123.01 63.26 123.01"/><polygon class="cls-16" points="63.26 123.01 51.02 123.01 51.02 123.01 51.02 48.99 51.02 48.99 63.26 48.99 63.26 48.99 63.26 123.01 63.26 123.01"/><polygon class="cls-8" points="86.8 130.5 74.66 129.06 74.66 129.06 83.37 55.55 83.37 55.55 95.52 56.99 86.8 130.5 86.8 130.5"/><polygon class="cls-16" points="86.8 130.5 74.66 129.06 74.66 129.06 83.37 55.55 83.37 55.55 95.52 56.99 86.8 130.5 86.8 130.5"/><polygon class="cls-8" points="47.65 133.25 35.73 136.01 35.73 136.01 19.02 63.91 19.02 63.91 30.94 61.14 47.65 133.25"/><path class="cls-16" d="M31,65.94a1.76,1.76,0,1,1-1.75-1.75A1.75,1.75,0,0,1,31,65.94Z"/><path class="cls-16" d="M29.92,71.79a1,1,0,1,1-1-1A1,1,0,0,1,29.92,71.79Z"/><polygon class="cls-8" points="78.98 126.56 66.8 125.41 66.8 125.41 73.78 51.72 73.78 51.72 85.96 52.87 85.96 52.87 78.98 126.56"/><path class="cls-16" d="M82.94,70.78A1.76,1.76,0,1,1,81.18,69,1.76,1.76,0,0,1,82.94,70.78Z"/><path class="cls-16" d="M83.19,65.94a1,1,0,1,1-1-1A1,1,0,0,1,83.19,65.94Z"/><rect class="cls-8" x="82.52" y="61.57" width="12.23" height="74.02" transform="translate(12.23 -9.75) rotate(6.76)"/><path class="cls-16" d="M92,97.89a2.16,2.16,0,1,1-2.16-2.16A2.15,2.15,0,0,1,92,97.89Z"/><path class="cls-16" d="M93.73,93A1.76,1.76,0,1,1,92,91.27,1.75,1.75,0,0,1,93.73,93Z"/><path class="cls-16" d="M88.66,92.28a1,1,0,1,1-1-1A1,1,0,0,1,88.66,92.28Z"/><polygon class="cls-8" points="56.08 122.74 43.86 123.23 40.94 49.27 53.16 48.78 56.08 122.74 56.08 122.74"/><path class="cls-16" d="M53.18,91.3A2.16,2.16,0,1,1,51,89.14,2.16,2.16,0,0,1,53.18,91.3Z"/><path class="cls-16" d="M45.81,52.36a1,1,0,1,1-1-1A1,1,0,0,1,45.81,52.36Z"/><polygon class="cls-8" points="65.22 130.32 53 129.63 57.17 55.73 57.17 55.73 69.38 56.42 65.22 130.32 65.22 130.32"/><path class="cls-16" d="M66.13,59.56a1.76,1.76,0,1,1-1.76-1.75A1.76,1.76,0,0,1,66.13,59.56Z"/><path class="cls-16" d="M61.19,59.56a1,1,0,1,1-1-1A1,1,0,0,1,61.19,59.56Z"/><polygon class="cls-17" points="108.67 94.47 95.14 176.75 29.02 176.75 15.49 94.47 25.37 94.47 34.18 104.23 62.08 104.41 89.97 104.23 98.79 94.47 108.67 94.47"/><path class="cls-6" d="M26.19,161.85c22.55,5.88,58.52-6.09,77.44-67.39h5L95.14,176.75H29Z"/><path class="cls-8" d="M304.24,78.93a2.11,2.11,0,0,1,2.16-1A4.09,4.09,0,0,1,309,79.38a3,3,0,0,1,1.43,1.32,4.2,4.2,0,0,1,.28,2.08s.15.21.11,1S308.38,86.18,308,86l-1.85-1c-.16-.08-2.08.83-3.48-.8-1.68-1.93-.94-3.32-.94-3.32s-.76-1.25,0-1.87S304.24,78.93,304.24,78.93Z"/><path class="cls-18" d="M304.24,78.93a2.11,2.11,0,0,1,2.16-1A4.09,4.09,0,0,1,309,79.38a3,3,0,0,1,1.43,1.32,4.2,4.2,0,0,1,.28,2.08s.15.21.11,1S308.38,86.18,308,86l-1.85-1c-.16-.08-2.08.83-3.48-.8-1.68-1.93-.94-3.32-.94-3.32s-.76-1.25,0-1.87S304.24,78.93,304.24,78.93Z"/><path class="cls-6" d="M308,86l-1.85-1c-.16-.09-2.08.82-3.49-.81-1.67-1.93-.93-3.32-.93-3.32s-.76-1.26,0-1.87a1.45,1.45,0,0,1,.87-.27,1.83,1.83,0,0,0,.25,1.06s-.58,1.1.75,2.63a2.67,2.67,0,0,0,2.77.64l1.47.81c.32.19,2.24-1.07,2.27-1.71a1.69,1.69,0,0,0-.09-.81,3.66,3.66,0,0,0-.1-1.33,2.62,2.62,0,0,1,.54.74,4.19,4.19,0,0,1,.28,2.08,1.91,1.91,0,0,1,.12,1C310.8,84.61,308.38,86.18,308,86Z"/><path class="cls-8" d="M224.78,119.4a3.41,3.41,0,0,0-1.41-3.57,6.64,6.64,0,0,0-4.66-1.25,4.79,4.79,0,0,0-3.15-.06,6.85,6.85,0,0,0-2.65,2.12s-.41.07-1.27,1,.19,5.53.92,5.72,3,.8,3.3.88,1.5,3.29,4.95,3c4.12-.39,4.81-2.83,4.81-2.83s2.29-.61,2.09-2.18S224.78,119.4,224.78,119.4Z"/><path class="cls-18" d="M224.78,119.4a3.41,3.41,0,0,0-1.41-3.57,6.64,6.64,0,0,0-4.66-1.25,4.79,4.79,0,0,0-3.15-.06,6.85,6.85,0,0,0-2.65,2.12s-.41.07-1.27,1,.19,5.53.92,5.72,3,.8,3.3.88,1.5,3.29,4.95,3c4.12-.39,4.81-2.83,4.81-2.83s2.29-.61,2.09-2.18S224.78,119.4,224.78,119.4Z"/><path class="cls-6" d="M212.56,123.4l3.29.89c.28.07,1.51,3.28,5,3,4.12-.38,4.81-2.83,4.81-2.83s2.29-.61,2.1-2.18A2.4,2.4,0,0,0,227,121a2.92,2.92,0,0,1-1.47,1s-.56,1.94-3.82,2.24c-2.75.26-3.73-2.29-4-2.35s-2-.56-2.62-.7-1.42-3.76-.73-4.55,1-.82,1-.83a5.74,5.74,0,0,1,1.6-1.44,4.12,4.12,0,0,0-1.46.25,7,7,0,0,0-2.65,2.11s-.41.08-1.27,1.06S211.84,123.22,212.56,123.4Z"/><path class="cls-8" d="M206.1,74.08a1.29,1.29,0,0,0-1.41-.35,2.52,2.52,0,0,0-1.41,1.16,1.86,1.86,0,0,0-.72,1,2.6,2.6,0,0,0,.07,1.29s-.07.14,0,.62,1.75,1.16,2,1l1-.82a2.09,2.09,0,0,0,2-.88c.79-1.35.19-2.1.19-2.1s.32-.85-.21-1.13S206.1,74.08,206.1,74.08Z"/><path class="cls-19" d="M206.1,74.08a1.29,1.29,0,0,0-1.41-.35,2.52,2.52,0,0,0-1.41,1.16,1.86,1.86,0,0,0-.72,1,2.6,2.6,0,0,0,.07,1.29s-.07.14,0,.62,1.75,1.16,2,1l1-.82a2.09,2.09,0,0,0,2-.88c.79-1.35.19-2.1.19-2.1s.32-.85-.21-1.13S206.1,74.08,206.1,74.08Z"/><path class="cls-6" d="M204.64,78.74l1-.82a2.09,2.09,0,0,0,2-.88c.79-1.35.19-2.1.19-2.1s.32-.85-.21-1.13a.88.88,0,0,0-.56-.07,1.14,1.14,0,0,1,0,.67s.48.59-.15,1.67a1.66,1.66,0,0,1-1.6.7c-.07,0-.62.5-.79.65s-1.48-.39-1.57-.78,0-.48,0-.49a2.07,2.07,0,0,1-.09-.82,1.52,1.52,0,0,0-.25.51,2.55,2.55,0,0,0,.07,1.28,1.15,1.15,0,0,0,0,.63C202.79,78.24,204.42,78.92,204.64,78.74Z"/><path class="cls-8" d="M276.84,117.57a1.31,1.31,0,0,1,1.18-.86,2.54,2.54,0,0,1,1.75.54,1.81,1.81,0,0,1,1,.62,2.54,2.54,0,0,1,.43,1.21,1.24,1.24,0,0,1,.19.6c.08.49-1.18,1.74-1.45,1.65l-1.24-.38a2.1,2.1,0,0,1-2.19,0c-1.24-1-1-1.88-1-1.88s-.61-.67-.23-1.13S276.84,117.57,276.84,117.57Z"/><path class="cls-19" d="M276.84,117.57a1.31,1.31,0,0,1,1.18-.86,2.54,2.54,0,0,1,1.75.54,1.81,1.81,0,0,1,1,.62,2.54,2.54,0,0,1,.43,1.21,1.24,1.24,0,0,1,.19.6c.08.49-1.18,1.74-1.45,1.65l-1.24-.38a2.1,2.1,0,0,1-2.19,0c-1.24-1-1-1.88-1-1.88s-.61-.67-.23-1.13S276.84,117.57,276.84,117.57Z"/><path class="cls-6" d="M280,121.33l-1.24-.38a2.08,2.08,0,0,1-2.19,0c-1.24-1-1-1.88-1-1.88s-.61-.67-.23-1.13a.87.87,0,0,1,.49-.27,1.07,1.07,0,0,0,.28.6s-.21.74.77,1.5a1.68,1.68,0,0,0,1.75,0l1,.3c.22.07,1.21-.92,1.15-1.31a1,1,0,0,0-.15-.47,2.33,2.33,0,0,0-.22-.79,1.61,1.61,0,0,1,.41.38,2.54,2.54,0,0,1,.43,1.21,1.24,1.24,0,0,1,.19.6C281.49,120.17,280.23,121.41,280,121.33Z"/><path class="cls-8" d="M268.27,92s1.36-2.32,5.05-1.1l2.53-9.07s-2.89-9.61,4.41-11.55c0,0,1.72-5.74,5.8-6.63s9.13,2.56,9.13,2.56a6,6,0,0,1,5.3.77c2.65,1.82,2.91,3.12,2.91,3.12s3.77,1.9,7.85,3.62,10.94.62,11.82,1,.8,2.59.36,3.44-9.53,8.64-12.23,9.1-13.3-2.73-13.3-2.73,1.82,7.82.83,9.83a7.26,7.26,0,0,1-2.37,2.87s1.84,5-2.57,6.66c0,0,.39,10.25-2.75,14.3s-6.81,3.21-6.81,3.21-6.86,5.06-13.46,3.61-11.33-6.6-11.33-6.6-3.73-1.17-5.44-2.79a20.9,20.9,0,0,1-3.33-5.14s-3.69-.86-5.22-3.62.4-8.09.4-8.09-2.58-3.89-2.31-6,4.31-4.89,4.31-4.89,1.58-3.14,3.17-4.26,8.57.61,10.43,1.73S268.27,92,268.27,92Z"/><path class="cls-18" d="M268.27,92s1.36-2.32,5.05-1.1l2.53-9.07s-2.89-9.61,4.41-11.55c0,0,1.72-5.74,5.8-6.63s9.13,2.56,9.13,2.56a6,6,0,0,1,5.3.77c2.65,1.82,2.91,3.12,2.91,3.12s3.77,1.9,7.85,3.62,10.94.62,11.82,1,.8,2.59.36,3.44-9.53,8.64-12.23,9.1-13.3-2.73-13.3-2.73,1.82,7.82.83,9.83a7.26,7.26,0,0,1-2.37,2.87s1.84,5-2.57,6.66c0,0,.39,10.25-2.75,14.3s-6.81,3.21-6.81,3.21-6.86,5.06-13.46,3.61-11.33-6.6-11.33-6.6-3.73-1.17-5.44-2.79a20.9,20.9,0,0,1-3.33-5.14s-3.69-.86-5.22-3.62.4-8.09.4-8.09-2.58-3.89-2.31-6,4.31-4.89,4.31-4.89,1.58-3.14,3.17-4.26,8.57.61,10.43,1.73S268.27,92,268.27,92Z"/><path class="cls-6" d="M323.43,78.14c-.45.85-9.53,8.65-12.23,9.1s-13.3-2.73-13.3-2.73,1.82,7.82.83,9.83a7.33,7.33,0,0,1-2.38,2.87s1.85,5-2.56,6.66c0,0,.4,10.25-2.75,14.3s-6.81,3.21-6.81,3.21-6.85,5.07-13.46,3.62-11.34-6.62-11.34-6.62-3.71-1.16-5.42-2.78a20.74,20.74,0,0,1-3.34-5.14s-3.69-.86-5.22-3.62.4-8.09.4-8.09-2.58-3.88-2.31-6a5.2,5.2,0,0,1,1.51-2.53c-.1.48-1,4.87,2.88,10a10.92,10.92,0,0,0,4.65,3.21,18.72,18.72,0,0,0,3,4.58,15.46,15.46,0,0,0,4.83,2.49,21.77,21.77,0,0,0,10.09,5.87c5.88,1.29,12-3.22,12-3.22s3.27.76,6.07-2.84S291,97.48,291,97.48c3.92-1.47,2.28-5.93,2.28-5.93A6.54,6.54,0,0,0,295.36,89c.87-1.79-.74-8.74-.74-8.74s9.43,2.83,11.83,2.43,9.92-6.86,10.82-8c2.81.06,5.29-.2,5.8,0C324,75.09,323.87,77.29,323.43,78.14Z"/><g class="cls-20"><path d="M285,89c1.36.41,2.87,1.16,4.21,1A5,5,0,0,0,291,89c.58-.45,1.15-1,1.75-1.51a5,5,0,0,1-3.3,3.62A5.14,5.14,0,0,1,285,89Z"/><path d="M297.9,84.51a12.69,12.69,0,0,1-5.19-1,20.11,20.11,0,0,1-6.17-6.25c1,.67,1.87,1.39,2.75,2.13,1.76,1.4,3.28,3.08,5.41,3.86l3.2,1.29Z"/><path d="M302.3,77.47a19.22,19.22,0,0,0,2.09.51.71.71,0,0,0,.6-.2,3.68,3.68,0,0,0,.76-1.13,3.79,3.79,0,0,0,1.6.41c.37-.13.72-.65,1-1,.22,1.64-1,2.33-2.5,1.84l.71-.31c-.95,2.23-3.08,1.53-4.23-.11Z"/><path d="M261,106.41c-.17,5.24,1.81,6.73,6.79,5.28l.2.38c1.41,2.41,2.17,3.44,5,2.09a5.34,5.34,0,0,1-1.48,1c-1.28.66-2.55-.06-3.4-1.07a13.07,13.07,0,0,1-1.09-1.45l.66.24c-5.17,1.73-8.47-1.11-6.7-6.44Z"/><path d="M277.11,106.39c1.18,1.33,2.45,2.88,4.06,3.55,1.52.45,2.81-1.64,3.6-2.78l.14-.21.18,0a10.37,10.37,0,0,0,3.46-.87,4.16,4.16,0,0,1-1.52,1.1,10.21,10.21,0,0,1-1.78.64l.32-.23c-2.67,5.81-6.54,3.81-8.46-1.17Z"/><path d="M250.67,110.46c-.53-1.48.2-3.07,1-4.32,1.76-2.61.82.61.38,1.74a22.57,22.57,0,0,1-1.34,2.58Z"/><path d="M268.27,92a6.72,6.72,0,0,1-1,4c-.71-1.31-.42-3.36,1-4Z"/><path d="M273.32,90.87a7.69,7.69,0,0,0,.84,2.32l1.4,3c-1.08,0-2.22,0-3.3.12a1.77,1.77,0,0,0-.79.24,1.38,1.38,0,0,1,.62-.69,6.1,6.1,0,0,1,2.58-.77l-.47.81c-.73-1.47-1.68-3.47-.88-5.07Z"/></g><g class="cls-20"><path class="cls-1" d="M254.66,85c-2.24-.34-5.45,3.2-4.15,4.77,1.07,1.29,3.15,1,4.27.47s2.25-1.86,2-3.14A2.86,2.86,0,0,0,254.66,85Z"/><path class="cls-1" d="M281,71.63c-1.7-.25-4.14,2.43-3.15,3.62.81,1,2.39.78,3.23.36a2.44,2.44,0,0,0,1.5-2.38A2.17,2.17,0,0,0,281,71.63Z"/><path class="cls-1" d="M259.79,85.86c-.86-.27-1.9,1.09-1.64,2a1.39,1.39,0,0,0,2.13.5C260.76,87.82,260.56,86.1,259.79,85.86Z"/></g><path class="cls-8" d="M195.8,63.32c.12.35,4.91,2.78,6.33,3.46s13.65.27,13.65.27,5-3.13,7.26-4.14,8.14-1.12,9.09-.67a26.26,26.26,0,0,1,3.64,3.33,17,17,0,0,1,5.12-2.7,4.63,4.63,0,0,1,4,1.33s6.51.94,7.47,1.68a12.32,12.32,0,0,0,2.54,1.36s7.92-.35,10.18,1.3,8.39,12.27,8.66,18.56-6.53,14.21-6.53,14.21-1.42,3.46-2.43,4.21-1.82,1.23-1.82,1.23-3.71,4.76-7.46,6.09a17.45,17.45,0,0,1-7.83.61s-2.39,2.13-7.74,2a14.91,14.91,0,0,1-9.22-4.11,10.91,10.91,0,0,1-7.49-1.47,12.72,12.72,0,0,1-5-6.67s-6-2.21-8.62-6.29-6-13.71-6-13.71-10.83-5.6-12.93-6.53-7.51-1-8.71-1-4.07,1.54-5.75,1-2.57-5.87-2.79-7.85,4.16-5.7,4.89-6.95,1.29-5.76,4.37-7.05,6.16-2,7.17-1.36,2.86,5.57,2.86,5.57,2.24.48,2.76,1.67A5.86,5.86,0,0,1,195.8,63.32Z"/><path class="cls-18" d="M195.8,63.32c.12.35,4.91,2.78,6.33,3.46s13.65.27,13.65.27,5-3.13,7.26-4.14,8.14-1.12,9.09-.67a26.26,26.26,0,0,1,3.64,3.33,17,17,0,0,1,5.12-2.7,4.63,4.63,0,0,1,4,1.33s6.51.94,7.47,1.68a12.32,12.32,0,0,0,2.54,1.36s7.92-.35,10.18,1.3,8.39,12.27,8.66,18.56-6.53,14.21-6.53,14.21-1.42,3.46-2.43,4.21-1.82,1.23-1.82,1.23-3.71,4.76-7.46,6.09a17.45,17.45,0,0,1-7.83.61s-2.39,2.13-7.74,2a14.91,14.91,0,0,1-9.22-4.11,10.91,10.91,0,0,1-7.49-1.47,12.72,12.72,0,0,1-5-6.67s-6-2.21-8.62-6.29-6-13.71-6-13.71-10.83-5.6-12.93-6.53-7.51-1-8.71-1-4.07,1.54-5.75,1-2.57-5.87-2.79-7.85,4.16-5.7,4.89-6.95,1.29-5.76,4.37-7.05,6.16-2,7.17-1.36,2.86,5.57,2.86,5.57,2.24.48,2.76,1.67A5.86,5.86,0,0,1,195.8,63.32Z"/><path class="cls-6" d="M176.25,76.54c1.68.59,4.55-1,5.75-1s6.61.11,8.72,1,12.92,6.52,12.92,6.52,3.33,9.64,6,13.72,8.61,6.29,8.61,6.29a12.77,12.77,0,0,0,5,6.67,11,11,0,0,0,7.5,1.47,14.92,14.92,0,0,0,9.2,4.11c5.37.17,7.75-2,7.75-2a17.45,17.45,0,0,0,7.83-.61c3.75-1.33,7.46-6.09,7.46-6.09s.81-.48,1.82-1.23,2.43-4.21,2.43-4.21,6.8-7.91,6.53-14.21c-.23-5.41-4.81-14-7.53-17.38,1.79,3.51,3.36,7.63,3.52,10.68.3,6-6,13.46-6,13.46s-1.31,3.27-2.25,4A20.31,20.31,0,0,1,259.81,99s-3.43,4.5-6.93,5.73a16,16,0,0,1-7.31.53s-2.21,2-7.22,1.82a14.13,14.13,0,0,1-8.63-4,10.19,10.19,0,0,1-7-1.45A12.42,12.42,0,0,1,218,95.28s-5.61-2.13-8.09-6-5.65-13.08-5.65-13.08-10.15-5.4-12.11-6.29-7-1-8.15-1-3.78,1.44-5.36.88c-1.17-.43-2-3.34-2.37-5.57-1.4,1.54-2.91,3.34-2.79,4.54C173.68,70.67,174.57,76,176.25,76.54Z"/><g class="cls-20"><path d="M226.31,79.81c-1.52.23-3.26.79-4.68.4a5.65,5.65,0,0,1-1.73-1.32c-.56-.58-1.1-1.22-1.66-1.9a5.44,5.44,0,0,0,3,4.4,5.58,5.58,0,0,0,5.07-1.58Z"/><path d="M224.19,102c-1.52.23-3.26.79-4.68.39a5.47,5.47,0,0,1-1.73-1.31c-.56-.58-1.1-1.22-1.66-1.9a5.44,5.44,0,0,0,3,4.4,5.58,5.58,0,0,0,5.07-1.58Z"/><path d="M247.1,88.68c-.43,1.48-.65,3.3-1.6,4.42a5.41,5.41,0,0,1-1.91,1c-.76.26-1.57.48-2.42.71a5.47,5.47,0,0,0,5.25-.87,5.61,5.61,0,0,0,.68-5.28Z"/><path d="M251.22,68.2c1.95.13,4.4,0,5.84,1.33a9.93,9.93,0,0,1,1.5,2.6c.41,1,.76,2,1.12,3.07a8.92,8.92,0,0,0-.2-3.37A7.3,7.3,0,0,0,258,68.65c-1.83-1.66-4.64-1.34-6.73-.45Z"/><path d="M238.69,74.41a6.49,6.49,0,0,0,.83-3.91,10.64,10.64,0,0,0-4.07-5.17c.78,2,2.09,3.6,2.91,5.42a27.2,27.2,0,0,1,.33,3.66Z"/><path d="M256.66,103.93c-.62,5.66-3,7-8.1,4.62l-.28.37c-1.89,2.38-2.86,3.36-5.72,1.48a6.13,6.13,0,0,0,1.45,1.27c1.27.91,2.74.33,3.81-.63a11.41,11.41,0,0,0,1.39-1.39l-.74.16c5.29,2.66,9.27.12,8.19-5.88Z"/><path d="M232.86,100.22c-1.47,1.25-3.07,2.72-4.91,3.18-1.7.25-2.77-2.2-3.45-3.55l-.11-.25-.19-.06a11.48,11.48,0,0,1-3.59-1.47,4.64,4.64,0,0,0,1.47,1.42,10.93,10.93,0,0,0,1.82,1l-.31-.31c2,6.66,6.44,5.12,9.27.07Z"/><path d="M247.09,80.61c2.27,1.55,4.82,3.26,6.09,5.69,1,2.46-2.15,4.7-3.93,6.08l-.21.15a15.55,15.55,0,0,1-1.13,5.57A10.74,10.74,0,0,0,250,92.85l-.23.36c8.35-4.88,4.81-9.87-2.66-12.6Z"/><path d="M196.86,69.32c.8-1.51.26-3.33-.37-4.79-1.49-3.08-1,.52-.67,1.81a26.37,26.37,0,0,0,1,3Z"/><path d="M204.11,83.59a17.34,17.34,0,0,1-.77-3.22,15.68,15.68,0,0,0-1-3.31c-.81,2-.51,5.5,1.72,6.53Z"/><path d="M211.93,73.22a17.14,17.14,0,0,1,1.81-2.77,15.79,15.79,0,0,0,1.74-3c-2,.82-4.34,3.41-3.55,5.74Z"/></g><g class="cls-20"><path class="cls-1" d="M225.82,64c1.94-1.07,6.09,1.09,5.43,3-.54,1.54-2.53,2-3.75,1.88s-2.7-1-2.88-2.22A2.79,2.79,0,0,1,225.82,64Z"/><path class="cls-1" d="M185.5,55.34c1.48-.8,4.62.83,4.12,2.26-.41,1.17-1.92,1.52-2.84,1.42a2.38,2.38,0,0,1-2.19-1.68A2.15,2.15,0,0,1,185.5,55.34Z"/><path class="cls-1" d="M221.43,66.54c.69-.54,2.11.36,2.17,1.27A1.35,1.35,0,0,1,221.82,69C221.21,68.67,220.8,67,221.43,66.54Z"/></g><path class="cls-8" d="M205.59,89.89c.34.15,5.38-1.73,6.84-2.31s9.45-9.87,9.45-9.87,1.07-5.79,1.88-8.16,4.71-6.76,5.68-7.15a26,26,0,0,1,4.92-.42,16.92,16.92,0,0,1,1.49-5.61,4.61,4.61,0,0,1,3.69-2s5.11-4.16,6.3-4.36a12.29,12.29,0,0,0,2.73-1s5.12-6.08,7.87-6.61,14.7,2.15,19.51,6.22,6,14.46,6,14.46,1.57,3.4,1.44,4.65-.33,2.18-.33,2.18,1,6-.59,9.62a17.44,17.44,0,0,1-4.86,6.19s-.06,3.2-3.81,7a14.93,14.93,0,0,1-9.27,4,11,11,0,0,1-6.17,4.52,12.76,12.76,0,0,1-8.31-.83s-5.68,2.91-10.46,2.08-14.12-4.93-14.12-4.93-11.46,4.17-13.56,5.09-5.82,4.87-6.68,5.71-1.63,4-3.2,4.88-6.06-2.09-7.66-3.28-1.37-6.93-1.79-8.32-3.36-4.86-2.22-8,2.72-5.9,3.86-6.21,6,1.67,6,1.67,1.87-1.31,3.1-.89A5.8,5.8,0,0,1,205.59,89.89Z"/><path class="cls-19" d="M205.59,89.89c.34.15,5.38-1.73,6.84-2.31s9.45-9.87,9.45-9.87,1.07-5.79,1.88-8.16,4.71-6.76,5.68-7.15a26,26,0,0,1,4.92-.42,16.92,16.92,0,0,1,1.49-5.61,4.61,4.61,0,0,1,3.69-2s5.11-4.16,6.3-4.36a12.29,12.29,0,0,0,2.73-1s5.12-6.08,7.87-6.61,14.7,2.15,19.51,6.22,6,14.46,6,14.46,1.57,3.4,1.44,4.65-.33,2.18-.33,2.18,1,6-.59,9.62a17.44,17.44,0,0,1-4.86,6.19s-.06,3.2-3.81,7a14.93,14.93,0,0,1-9.27,4,11,11,0,0,1-6.17,4.52,12.76,12.76,0,0,1-8.31-.83s-5.68,2.91-10.46,2.08-14.12-4.93-14.12-4.93-11.46,4.17-13.56,5.09-5.82,4.87-6.68,5.71-1.63,4-3.2,4.88-6.06-2.09-7.66-3.28-1.37-6.93-1.79-8.32-3.36-4.86-2.22-8,2.72-5.9,3.86-6.21,6,1.67,6,1.67,1.87-1.31,3.1-.89A5.8,5.8,0,0,1,205.59,89.89Z"/><path class="cls-6" d="M202,113.27c1.57-.84,2.34-4,3.2-4.88s4.57-4.8,6.68-5.72,13.56-5.08,13.56-5.08,9.34,4.09,14.12,4.93,10.46-2.08,10.46-2.08a12.75,12.75,0,0,0,8.31.83,11,11,0,0,0,6.17-4.52,14.9,14.9,0,0,0,9.26-4c3.76-3.84,3.82-7,3.82-7a17.47,17.47,0,0,0,4.86-6.18c1.57-3.67.59-9.63.59-9.63s.2-.93.33-2.18S282,63.08,282,63.08s-1.19-10.38-6-14.46c-4.13-3.5-13.57-6-17.87-6.26,3.79,1.07,7.88,2.71,10.23,4.67,4.59,3.83,5.82,13.56,5.82,13.56s1.51,3.18,1.4,4.35-.29,2-.29,2,1,5.58-.49,9a16,16,0,0,1-4.57,5.74s0,3-3.56,6.55a14.14,14.14,0,0,1-8.77,3.67A10.2,10.2,0,0,1,252,96.11a12.39,12.39,0,0,1-7.89-.85s-5.38,2.68-9.92,1.87-13.44-4.72-13.44-4.72-10.85,3.81-12.84,4.65-5.48,4.51-6.29,5.29-1.52,3.76-3,4.54c-1.11.58-3.78-.82-5.69-2,.18,2.07.47,4.41,1.44,5.13C196,111.18,200.47,114.11,202,113.27Z"/><g class="cls-20"><path d="M238.4,78.62c-.87,1.27-1.63,2.94-2.88,3.71a5.5,5.5,0,0,1-2.14.39c-.81,0-1.64,0-2.52-.07a5.48,5.48,0,0,0,5.27.78,5.61,5.61,0,0,0,2.27-4.81Z"/><path d="M253.24,95.23c-.86,1.27-1.63,2.94-2.88,3.71a5.5,5.5,0,0,1-2.14.39c-.81,0-1.64,0-2.52-.07A5.48,5.48,0,0,0,251,100a5.58,5.58,0,0,0,2.27-4.81Z"/><path d="M259,69.33c.8,1.32,2,2.71,2.17,4.17a5.64,5.64,0,0,1-.55,2.11c-.33.74-.71,1.48-1.12,2.26a5.48,5.48,0,0,0,2.92-4.46A5.59,5.59,0,0,0,259,69.33Z"/><path d="M246.77,52.37c1.42-1.34,3-3.22,4.94-3.39a9.71,9.71,0,0,1,2.93.67c1,.36,2,.8,3,1.25a9.32,9.32,0,0,0-2.61-2.14,7.34,7.34,0,0,0-3.38-1c-2.47.22-4.14,2.5-4.9,4.64Z"/><path d="M242.84,65.83a6.58,6.58,0,0,0-2.32-3.27,10.57,10.57,0,0,0-6.55-.51c2,.77,4.06.9,5.95,1.54a27.34,27.34,0,0,1,2.92,2.24Z"/><path d="M276.71,72.64c3.74,4.3,3.1,6.92-2.1,9.1l.09.46c.47,3,.53,4.39-2.8,5.21a5.63,5.63,0,0,0,1.91-.19c1.54-.32,2.11-1.8,2.14-3.24a13,13,0,0,0-.08-2l-.39.65c5.55-2.09,6.38-6.74,1.23-10Z"/><path d="M257.84,87.65c-.08,1.93-.09,4.11-1,5.78-1,1.42-3.49.54-5,.12l-.26-.08-.17.1A11.6,11.6,0,0,1,248,95.21a4.55,4.55,0,0,0,2-.12,11.73,11.73,0,0,0,1.94-.67h-.43c6.23,3.07,8.13-1.27,6.33-6.78Z"/><path d="M253.09,63.85c2.68-.62,5.66-1.34,8.31-.62,2.47,1,2,4.78,1.8,7l0,.27a15.23,15.23,0,0,1,3.32,4.61c-.17-1.92-1.34-3.58-2.45-5.1l.11.42c2.08-9.47-4-10.25-11.06-6.6Z"/><path d="M210.71,93.18c-.56-1.61-2.27-2.45-3.77-3-3.27-1-.28,1.07.88,1.73a23.32,23.32,0,0,0,2.89,1.25Z"/><path d="M226.12,97.54a17.72,17.72,0,0,1-2.89-1.62,15,15,0,0,0-3.08-1.55c1,2,3.7,4.11,6,3.17Z"/><path d="M223.81,84.73a18,18,0,0,1-.82-3.21,15.62,15.62,0,0,0-1-3.3c-.79,2.07-.44,5.52,1.81,6.51Z"/></g><g class="cls-20"><path class="cls-1" d="M236,58.3c.53-2.16,4.94-3.75,5.87-2,.77,1.44-.24,3.23-1.16,4s-2.53,1.35-3.59.62A2.82,2.82,0,0,1,236,58.3Z"/><path class="cls-1" d="M256.57,44.11c1.33-1,4.69.09,4.42,1.58-.22,1.22-1.67,1.81-2.59,1.85A2.38,2.38,0,0,1,256,46.22,2.09,2.09,0,0,1,256.57,44.11Z"/><path class="cls-1" d="M241.54,54.29c.08-.87,1.7-1.31,2.41-.74a1.36,1.36,0,0,1-.34,2.12C243,55.9,241.48,55.08,241.54,54.29Z"/></g><path class="cls-8" d="M292.41,61.62s-4.44.13-5.25,2.55S286,71,286.49,72.5s5.38,2.21,5.38,2.21,4.57,2.22,7,2.16,5.64-5,5.64-5,3.09-.27,3.09-4.43-2.54-8.58-6.31-9.68C295.63,56.08,292.41,61.62,292.41,61.62Z"/><path class="cls-19" d="M292.41,61.62s-4.44.13-5.25,2.55S286,71,286.49,72.5s5.38,2.21,5.38,2.21,4.57,2.22,7,2.16,5.64-5,5.64-5,3.09-.27,3.09-4.43-2.54-8.58-6.31-9.68C295.63,56.08,292.41,61.62,292.41,61.62Z"/><path class="cls-6" d="M307.59,67.4c0,4.16-3.09,4.43-3.09,4.43s-3.23,5-5.64,5-7-2.17-7-2.17S287,74,286.5,72.51a9.42,9.42,0,0,1-.2-3.4,2.75,2.75,0,0,0,.15.74c.45,1.22,4.43,1.81,4.43,1.81s3.76,1.84,5.75,1.78,4.66-4.14,4.66-4.14,2.54-.22,2.54-3.65-2.08-7.07-5.2-8a6.23,6.23,0,0,0-.62-.15,7,7,0,0,1,3.26.2C305.06,58.82,307.59,63.23,307.59,67.4Z"/><path class="cls-16" d="M297.68,63.81a21.53,21.53,0,0,0-2.68,0,.87.87,0,0,0-.66.42,4.62,4.62,0,0,0-.56,1.6,4.68,4.68,0,0,0-2,0,3.23,3.23,0,0,0-.86,1.52c-.77-1.91.53-3.14,2.44-3l-.76.6c.44-3,3.23-2.82,5.13-1.2Z"/><path class="cls-8" d="M235.12,108.71s.45-1.78,1.5-1.89a7.76,7.76,0,0,1,3.42.47c.55.35.41,2.37.41,2.37a8.87,8.87,0,0,1,.24,3c-.24,1-2.53,1.82-2.53,1.82s-.38,1.22-2.06.85a4.18,4.18,0,0,1-3.34-3.41C232.6,109.51,235.12,108.71,235.12,108.71Z"/><path class="cls-19" d="M235.12,108.71s.45-1.78,1.5-1.89a7.76,7.76,0,0,1,3.42.47c.55.35.41,2.37.41,2.37a8.87,8.87,0,0,1,.24,3c-.24,1-2.53,1.82-2.53,1.82s-.38,1.22-2.06.85a4.18,4.18,0,0,1-3.34-3.41C232.6,109.51,235.12,108.71,235.12,108.71Z"/><path class="cls-6" d="M236.1,115.34c1.68.37,2.06-.85,2.06-.85s2.29-.85,2.54-1.82a9.06,9.06,0,0,0-.25-3s.14-2-.41-2.36a4,4,0,0,0-1.35-.39,1.32,1.32,0,0,1,.29.13c.44.29.33,1.95.33,1.95a7.41,7.41,0,0,1,.2,2.47c-.2.81-2.09,1.51-2.09,1.51s-.31,1-1.69.7a3.42,3.42,0,0,1-2.75-2.81,2.26,2.26,0,0,1,0-.26,2.94,2.94,0,0,0-.21,1.33A4.18,4.18,0,0,0,236.1,115.34Z"/><path class="cls-16" d="M236.76,108.34a8,8,0,0,0-1.72,2,2.92,2.92,0,0,0,0,1.14c.07.41.17.82.28,1.26a2.53,2.53,0,0,1-.94-2.53,3.57,3.57,0,0,1,2.37-1.91Z"/><path class="cls-8" d="M178.45,78.77s1.45-.78,2.16-.16a7.07,7.07,0,0,1,1.78,2.55c.1.58-1.32,1.71-1.32,1.71a8.07,8.07,0,0,1-1.84,2c-.79.43-2.75-.56-2.75-.56s-1,.49-1.82-.84a3.75,3.75,0,0,1,.22-4.29A3,3,0,0,1,178.45,78.77Z"/><path class="cls-19" d="M178.45,78.77s1.45-.78,2.16-.16a7.07,7.07,0,0,1,1.78,2.55c.1.58-1.32,1.71-1.32,1.71a8.07,8.07,0,0,1-1.84,2c-.79.43-2.75-.56-2.75-.56s-1,.49-1.82-.84a3.75,3.75,0,0,1,.22-4.29A3,3,0,0,1,178.45,78.77Z"/><path class="cls-6" d="M174.66,83.47c.78,1.33,1.82.84,1.82.84s2,1,2.75.57a8.24,8.24,0,0,0,1.84-2s1.42-1.13,1.32-1.71a3.51,3.51,0,0,0-.58-1.12.9.9,0,0,1,.09.26c.09.48-1.08,1.41-1.08,1.41a6.53,6.53,0,0,1-1.51,1.65c-.65.36-2.27-.46-2.27-.46s-.86.4-1.5-.7a3.09,3.09,0,0,1,.18-3.53,1.29,1.29,0,0,1,.17-.16,2.48,2.48,0,0,0-1,.67A3.75,3.75,0,0,0,174.66,83.47Z"/><path class="cls-16" d="M179.69,79.63a6.75,6.75,0,0,0-2.39.11,2.4,2.4,0,0,0-.75.7c-.23.3-.44.62-.66,1a2.27,2.27,0,0,1,1.1-2.17,3.2,3.2,0,0,1,2.7.4Z"/><polygon class="cls-1" points="297.39 176.4 186 176.4 176.16 97.89 307.23 97.89 297.39 176.4"/><path class="cls-21" d="M297.39,176.4c-27.76.13-83.63.34-111.39.35h-.3l0-.3-10-78.5-.07-.55h.55l131.41.19C305,117.33,300,156.68,297.39,176.4Zm0,0c2.32-19.58,7.16-59,9.55-78.55,1.92.87-131.2.26-130.78.52l.48-.54c-.08-.17,10.27,79.93,9.36,78.23,27.76,0,83.63.21,111.39.34Z"/><polygon class="cls-22" points="249.75 176.4 233.64 176.4 232.21 97.89 251.18 97.89 249.75 176.4"/><polygon class="cls-22" points="221 176.4 204.88 176.4 200.92 97.89 217.04 97.89 221 176.4"/><polygon class="cls-22" points="262.39 176.4 278.51 176.4 282.47 97.89 266.36 97.89 262.39 176.4"/><polygon class="cls-22" points="195.09 176.4 186 176.4 176.16 97.88 186.65 97.88 195.09 176.4"/><polygon class="cls-22" points="307.23 97.88 297.39 176.4 289.73 176.4 298.17 97.88 307.23 97.88"/><path class="cls-1" d="M309,93.78H174.42a2,2,0,0,0-2,2h0a2,2,0,0,0,2,2.06H309A2.06,2.06,0,0,0,311,95.83h0A2.05,2.05,0,0,0,309,93.78Z"/><path class="cls-21" d="M309,93.78c-32.6.07-91.34.16-123.37.22l-11,0a1.81,1.81,0,1,0-.16,3.62l123.37.21,11,0a2,2,0,1,0,.16-4.09Zm0,0a2.06,2.06,0,1,1-.16,4.12l-28.64,0-105.75.18a2.29,2.29,0,1,1,.16-4.58h11L309,93.78Z"/><polygon class="cls-6" points="176.16 97.89 177.18 106.64 306.58 103.11 307.23 97.89 176.16 97.89"/><polygon class="cls-6" points="186 176.4 284.11 168.11 306.39 106.64 297.39 176.4 186 176.4"/><path class="cls-8" d="M254.2,165.11c-11.39,9-39,9.92-71.15,9.82s-59.7-1.14-71.05-10.26c-3.81-5-4.58-13.58-2.09-16.63a.81.81,0,0,1,.09-.1l.36-.35c10.15-9.83,38.93-16.86,72.84-16.75s62.56,7.28,72.69,17.15l.48.48s0,0,0,0C258.86,151.57,258,160.17,254.2,165.11Z"/><path class="cls-16" d="M254.2,165.11c-11.39,9-39,9.92-71.15,9.82s-59.7-1.14-71.05-10.26c-3.81-5-4.58-13.58-2.09-16.63a.81.81,0,0,1,.09-.1l.36-.35c10.15-9.83,38.93-16.86,72.84-16.75s62.56,7.28,72.69,17.15l.48.48s0,0,0,0C258.86,151.57,258,160.17,254.2,165.11Z"/><path class="cls-8" d="M255.77,176.85c-1.06.76-143.22,1.05-144.81-.54-4.43-4.43-3.54-25.22-1-28.27,0,0,0-.07.09-.09l.36-.36a3,3,0,0,1,3.2-.37c6.86,2.6,34.32,14.84,69.54,14.95s62.77-12,69.66-14.52a3,3,0,0,1,3.13.34l.48.48a0,0,0,0,1,0,0C260.5,152.21,258.93,174.57,255.77,176.85Z"/><path class="cls-6" d="M255.77,176.85c-1.06.76-143.22,1.05-144.81-.54-4.43-4.43-3.54-25.22-1-28.27,0,0,0-.07.09-.09l.36-.36a3,3,0,0,1,3.2-.37c6.86,2.6,34.32,14.84,69.54,14.95s62.77-12,69.66-14.52a3,3,0,0,1,3.13.34l.48.48a0,0,0,0,1,0,0C260.5,152.21,258.93,174.57,255.77,176.85Z"/><path class="cls-6" d="M255.77,176.85c-1.06.76-143.22,1.05-144.81-.54-1.84-1.84-2.76-6.53-3-11.58,17.83,12.81,90.57,12.09,117.69,4.53,19.11-5.32,27.78-15,31.25-20.22C260.37,154,258.81,174.66,255.77,176.85Z"/><path class="cls-23" d="M241.51,149.74a27.31,27.31,0,0,1,9.77-3.7,20.82,20.82,0,0,1-9.77,3.7Z"/><path class="cls-23" d="M219.85,155.54A136.27,136.27,0,0,1,238,150.9a52.12,52.12,0,0,1-18.14,4.64Z"/><path class="cls-23" d="M151.92,154.65a69.52,69.52,0,0,0,11.53,2.25A179.43,179.43,0,0,0,183,158.25a211.49,211.49,0,0,0,23.48-.9l2-.16c1.87-.21,4-.45,5.85-.64a143.87,143.87,0,0,1-47,1.67c-5.19-.74-10.44-1.6-15.32-3.57Z"/><g class="cls-24"><path d="M234.48,145.86c-1,1.28-3.49,2.55-9.48,3.59A230.56,230.56,0,0,1,184.23,153a246,246,0,0,1-41.73-3.61c-9.63-1.59-11.22-3.73-11.48-5.65a3,3,0,0,1,.67-2.57c.95-1.3,3.48-2.57,9.5-3.61A230.33,230.33,0,0,1,182,134a248.16,248.16,0,0,1,41.74,3.61c9.63,1.6,11.22,3.73,11.47,5.66A2.92,2.92,0,0,1,234.48,145.86Z"/></g><path class="cls-8" d="M251.06,145.78c-1.36,2.81-4.82,5.62-12.9,8a200.66,200.66,0,0,1-54.9,9,206.14,206.14,0,0,1-55.83-6.52c-12.85-3.14-14.88-7.69-15.13-11.84a9.49,9.49,0,0,1,1-5.57c1.34-2.82,4.79-5.64,12.92-8.07a200.72,200.72,0,0,1,54.9-9A206.66,206.66,0,0,1,237,128.34c12.85,3.14,14.88,7.69,15.12,11.83A9.53,9.53,0,0,1,251.06,145.78Z"/><g class="cls-25"><path d="M251.06,145.78c-1.36,2.81-4.82,5.62-12.9,8a200.66,200.66,0,0,1-54.9,9,206.14,206.14,0,0,1-55.83-6.52c-12.85-3.14-14.88-7.69-15.13-11.84a9.49,9.49,0,0,1,1-5.57c1.34-2.82,4.79-5.64,12.92-8.07a200.72,200.72,0,0,1,54.9-9A206.66,206.66,0,0,1,237,128.34c12.85,3.14,14.88,7.69,15.12,11.83A9.53,9.53,0,0,1,251.06,145.78Z"/></g><g class="cls-24"><path d="M233.19,135.91c-1,1.51-3.57,3-9.72,4.36a213,213,0,0,1-42,5.06,226.61,226.61,0,0,1-43.09-3.24c-10-1.63-11.63-4.06-11.93-6.28a3.71,3.71,0,0,1,.64-3c1-1.52,3.54-3,9.73-4.39a213.15,213.15,0,0,1,42-5.05,226.68,226.68,0,0,1,43.09,3.24c10,1.62,11.64,4.06,11.93,6.28A3.72,3.72,0,0,1,233.19,135.91Z"/></g><path class="cls-16" d="M116.48,139.07a28.09,28.09,0,0,0,4,1,279.4,279.4,0,0,0,28.62,4c9.56.87,19.21,1.43,28.81,1.34,17.84-.47,35.77-1.42,53.4-4.47a79.54,79.54,0,0,0,8.06-1.82c2.61-.82,5.37-1.61,7.47-3.55-2,2-4.8,3-7.39,3.86-13.29,4-27.17,5.13-40.88,6.22a261,261,0,0,1-74.08-4.48,55.79,55.79,0,0,1-8-2.14Z"/><g class="cls-20"><path d="M127.33,134.05a125.15,125.15,0,0,1,23.89-7.21,125.87,125.87,0,0,1-23.89,7.21Z"/><path d="M212,140.51a125.87,125.87,0,0,1,23.89-7.21A125.87,125.87,0,0,1,212,140.51Z"/><path d="M128.78,138.21a435.41,435.41,0,0,1,44.34-13.39,431.16,431.16,0,0,1-44.34,13.39Z"/><path d="M180.28,143.33a433.83,433.83,0,0,1,44.35-13.39,430.58,430.58,0,0,1-44.35,13.39Z"/><path d="M158.78,142.22q25.91-9.1,52.45-15.84-25.89,9.13-52.45,15.84Z"/><path d="M140.47,140.67q27.17-9.49,55-16.6-27.15,9.51-55,16.6Z"/></g><g class="cls-25"><path class="cls-1" d="M173.43,157.66c24,.17,48.24-2.44,71-10.87-12.49,5.77-25.93,8.87-39.41,10.4a159.69,159.69,0,0,1-31.6.47Z"/><path class="cls-1" d="M116.87,141.77a182.13,182.13,0,0,0,28.32,5c1.36.16,2.73.23,4.1.38a102.2,102.2,0,0,1-32.42-5.35Z"/></g><path class="cls-8" d="M256.55,142.72c-.73-1.55-18.14-12.25-36.71-16-16.46-3.27-33.34-6-38.91-5.94-5.07.1-19.47,3-34.35,6.41a137.88,137.88,0,0,0-25.3,9,1,1,0,0,1,.66.56c.31.81-.87,2-2.63,2.68s-3.44.54-3.75-.27a1.29,1.29,0,0,1,0-.19c-6.28,3.19-10.49,5.89-10.8,6.63-.62,1.45,22.12-.13,39.66,4.1,18.5,4.46,32,14.71,36.63,14.62s20-10.91,38.29-16.07c1.32-.37,2.67-.71,4-1,.05-1.37,1.65-2.79,3.87-3.32,2.46-.58,4.74.15,5.11,1.65C245.47,143.62,257.05,143.8,256.55,142.72Zm-116.9-3.94c-2,0-3.54-.93-3.55-2.08s1.58-2.1,3.54-2.11,3.55.93,3.55,2.08S141.61,138.77,139.65,138.78Zm15.24-.76c-3.92.74-7.39-.22-7.76-2.16s2.51-4.1,6.43-4.85,7.39.22,7.76,2.15S158.81,137.27,154.89,138Zm37.55,15.78c-.94.18-1.8-.18-1.92-.79s.55-1.27,1.49-1.44,1.81.17,1.92.79S193.38,153.62,192.44,153.8Zm28.67-22.23c-1.34-.29-2.3-1.17-2.13-2s1.4-1.21,2.75-.92,2.3,1.16,2.13,2S222.46,131.85,221.11,131.57Z"/><path class="cls-9" d="M256.55,142.72c-.73-1.55-18.14-12.25-36.71-16-16.46-3.27-33.34-6-38.91-5.94-5.07.1-19.47,3-34.35,6.41a137.88,137.88,0,0,0-25.3,9,1,1,0,0,1,.66.56c.31.81-.87,2-2.63,2.68s-3.44.54-3.75-.27a1.29,1.29,0,0,1,0-.19c-6.28,3.19-10.49,5.89-10.8,6.63-.62,1.45,22.12-.13,39.66,4.1,18.5,4.46,32,14.71,36.63,14.62s20-10.91,38.29-16.07c1.32-.37,2.67-.71,4-1,.05-1.37,1.65-2.79,3.87-3.32,2.46-.58,4.74.15,5.11,1.65C245.47,143.62,257.05,143.8,256.55,142.72Zm-116.9-3.94c-2,0-3.54-.93-3.55-2.08s1.58-2.1,3.54-2.11,3.55.93,3.55,2.08S141.61,138.77,139.65,138.78Zm15.24-.76c-3.92.74-7.39-.22-7.76-2.16s2.51-4.1,6.43-4.85,7.39.22,7.76,2.15S158.81,137.27,154.89,138Zm37.55,15.78c-.94.18-1.8-.18-1.92-.79s.55-1.27,1.49-1.44,1.81.17,1.92.79S193.38,153.62,192.44,153.8Zm28.67-22.23c-1.34-.29-2.3-1.17-2.13-2s1.4-1.21,2.75-.92,2.3,1.16,2.13,2S222.46,131.85,221.11,131.57Z"/><path class="cls-6" d="M161.32,133.16c-.37-1.93-3.85-2.89-7.76-2.15s-6.59,2.77-6.45,4.65c-.38-2.89,2.37-4.57,5.67-5.48S160.93,130.45,161.32,133.16Z"/><path class="cls-6" d="M143.19,136.67c0-1.15-1.6-2.09-3.55-2.08s-3.54.95-3.54,2.11c0,0-.43-2.5,3.66-2.76S143.19,136.67,143.19,136.67Z"/><path class="cls-6" d="M193.88,152.2a1.64,1.64,0,0,0-1.87-.63c-.94.17-1.61.82-1.49,1.44,0,0-.31-1.08,1.11-1.65A1.54,1.54,0,0,1,193.88,152.2Z"/><path class="cls-6" d="M223.55,129.66a3.35,3.35,0,0,0-1.82-1c-1.35-.29-2.58.13-2.75.92a1.16,1.16,0,0,0,.29,1c-.73-.68-.89-2.13.86-2.48A2.89,2.89,0,0,1,223.55,129.66Z"/><g class="cls-25"><path class="cls-1" d="M135,137.05c1,2.62,6,3.15,8,1.47a1.81,1.81,0,0,0,.75-1.06,1.81,1.81,0,0,1-.54,1.28c-1.95,2.3-7.8,1.56-8.25-1.69Z"/><path class="cls-1" d="M146.56,136.68c2.16,3.8,12.47,2.66,14.74-.61a4,4,0,0,0,.83-2.14,3.87,3.87,0,0,1-.59,2.31c-2.26,3.87-13,5-15,.44Z"/><path class="cls-1" d="M189.64,153a2.55,2.55,0,0,0,2.44,1.24,4.49,4.49,0,0,0,2-.8c.21-.14.41-.3.63-.44-.15.21-.32.41-.49.61a3.43,3.43,0,0,1-2.12,1.08,2.28,2.28,0,0,1-2.47-1.69Z"/><path class="cls-1" d="M217.8,129.28c-.05,1.54,1.47,2.59,2.83,2.89s3.23.52,3.94-.94a1.55,1.55,0,0,1-.6,1c-2.1,1.46-6.71.06-6.17-2.93Z"/><path class="cls-1" d="M108.28,144.83c12.44.27,25,.33,37.24,2.88,7.28,1.8,14.12,5,21,7.95l6.83,3c2.62,1,5.21,2.49,8,2.92a51.07,51.07,0,0,0,5.81-2.22l6.89-2.9c9.2-3.79,18.44-7.73,28.19-9.89A107.45,107.45,0,0,0,208,151.2c-6.7,2.58-14,5.8-20.67,8.66a55.82,55.82,0,0,1-5.72,2.21,2.79,2.79,0,0,1-1.49-.13,72,72,0,0,1-7-2.73c-11.36-4.7-22.68-11-35.05-12.3-9.87-1.33-19.84-1.71-29.79-2.08Z"/><path class="cls-1" d="M233.45,144a102.7,102.7,0,0,1,19.8-1.46c-6.6.53-13.18,1.31-19.8,1.46Z"/></g><path class="cls-8" d="M251.06,131.49c-1.36,2.81-4.82,5.62-12.9,8a200.66,200.66,0,0,1-54.9,9A206.14,206.14,0,0,1,127.43,142c-12.85-3.14-14.88-7.69-15.13-11.84a9.49,9.49,0,0,1,1-5.57c1.34-2.82,4.79-5.64,12.92-8.07a200.72,200.72,0,0,1,54.9-9A206.66,206.66,0,0,1,237,114.05c12.85,3.14,14.88,7.69,15.12,11.83A9.53,9.53,0,0,1,251.06,131.49Z"/><g class="cls-25"><path d="M251.06,131.49c-1.36,2.81-4.82,5.62-12.9,8a200.66,200.66,0,0,1-54.9,9A206.14,206.14,0,0,1,127.43,142c-12.85-3.14-14.88-7.69-15.13-11.84a9.49,9.49,0,0,1,1-5.57c1.34-2.82,4.79-5.64,12.92-8.07a200.72,200.72,0,0,1,54.9-9A206.66,206.66,0,0,1,237,114.05c12.85,3.14,14.88,7.69,15.12,11.83A9.53,9.53,0,0,1,251.06,131.49Z"/></g><g class="cls-24"><path d="M233.19,121.62c-1,1.51-3.57,3-9.72,4.36a213,213,0,0,1-42,5.06,226.61,226.61,0,0,1-43.09-3.24c-10-1.63-11.63-4.06-11.93-6.28a3.71,3.71,0,0,1,.64-3c1-1.52,3.54-3,9.73-4.39a213.15,213.15,0,0,1,42-5,226.68,226.68,0,0,1,43.09,3.24c10,1.62,11.64,4.06,11.93,6.27A3.74,3.74,0,0,1,233.19,121.62Z"/></g><path class="cls-16" d="M116.48,124.78a28.09,28.09,0,0,0,4,1,279.4,279.4,0,0,0,28.62,4c9.56.87,19.21,1.43,28.81,1.34,17.84-.47,35.77-1.42,53.4-4.47a79.54,79.54,0,0,0,8.06-1.82c2.61-.82,5.37-1.61,7.47-3.55-2,2.05-4.8,3-7.39,3.86-13.29,4-27.17,5.13-40.88,6.22a261,261,0,0,1-74.08-4.48,55.79,55.79,0,0,1-8-2.14Z"/><g class="cls-20"><path d="M127.33,119.76a125.15,125.15,0,0,1,23.89-7.21,125.87,125.87,0,0,1-23.89,7.21Z"/><path d="M212,126.22A125.15,125.15,0,0,1,235.87,119,125.87,125.87,0,0,1,212,126.22Z"/><path d="M128.78,123.92a435.41,435.41,0,0,1,44.34-13.39,431.16,431.16,0,0,1-44.34,13.39Z"/><path d="M180.28,129a433.83,433.83,0,0,1,44.35-13.39A430.58,430.58,0,0,1,180.28,129Z"/><path d="M158.78,127.93q25.91-9.11,52.45-15.84-25.89,9.14-52.45,15.84Z"/><path d="M140.47,126.38q27.17-9.5,55-16.6-27.15,9.51-55,16.6Z"/></g><g class="cls-25"><path class="cls-1" d="M173.43,143.37c24,.17,48.24-2.44,71-10.87-12.49,5.77-25.93,8.87-39.41,10.4a159.69,159.69,0,0,1-31.6.47Z"/><path class="cls-1" d="M116.87,127.48a182.13,182.13,0,0,0,28.32,5c1.36.16,2.73.23,4.1.38a102.2,102.2,0,0,1-32.42-5.35Z"/></g><path class="cls-8" d="M220.85,107.38c-7.93-1.76-15.73-3.34-22-4.44a.59.59,0,0,1,0,.13c0,.55-.67,1-1.55,1.07s-1.63-.36-1.66-.91a.89.89,0,0,1,.49-.75,75.73,75.73,0,0,0-9.67-1.14,78.28,78.28,0,0,0-10.18,1,2,2,0,0,1,.4,1.09c.07,1.46-1.52,2.74-3.57,2.84s-3.76-1-3.83-2.47a.92.92,0,0,1,0-.33c-6.57,1.13-14.16,2.61-21.68,4.18-18.52,3.9-35.82,14.79-36.53,16.35s19.89.43,37.3,5.13c18.38,5,34.14,22.83,38.83,22.87s17.66-17.57,36.11-22.23c17.48-4.42,40.24-3.09,39.62-4.53C262.18,123.6,240.73,111.77,220.85,107.38Zm-74.48,5.13c-1.35.3-2.58-.11-2.76-.9s.77-1.68,2.12-2,2.57.1,2.76.89S147.72,112.21,146.37,112.51Zm30.89,22.27c-.11.63-1,1-1.91.82s-1.63-.81-1.51-1.43,1-1,1.91-.81S177.36,134.17,177.26,134.78Zm23.35,2.74c-2.55,1.15-5.28.64-6.1-1.15s.6-4.19,3.16-5.35,5.29-.64,6.1,1.16S203.17,136.36,200.61,137.52Zm7.59-8.5c-1.95,0-3.54-.92-3.55-2.08s1.57-2.1,3.53-2.11,3.54.91,3.55,2.07S210.16,129,208.2,129Zm16.57-14.37c-2,0-3.55-.91-3.56-2.07s1.57-2.11,3.53-2.12,3.55.92,3.56,2.07S226.72,114.63,224.77,114.65Zm25.51,6.16c-.11.62-1,1-1.91.81s-1.62-.8-1.51-1.42,1-1,1.91-.81S250.39,120.2,250.28,120.81Z"/><path class="cls-9" d="M220.85,107.38c-7.93-1.76-15.73-3.34-22-4.44a.59.59,0,0,1,0,.13c0,.55-.67,1-1.55,1.07s-1.63-.36-1.66-.91a.89.89,0,0,1,.49-.75,75.73,75.73,0,0,0-9.67-1.14,78.28,78.28,0,0,0-10.18,1,2,2,0,0,1,.4,1.09c.07,1.46-1.52,2.74-3.57,2.84s-3.76-1-3.83-2.47a.92.92,0,0,1,0-.33c-6.57,1.13-14.16,2.61-21.68,4.18-18.52,3.9-35.82,14.79-36.53,16.35s19.89.43,37.3,5.13c18.38,5,34.14,22.83,38.83,22.87s17.66-17.57,36.11-22.23c17.48-4.42,40.24-3.09,39.62-4.53C262.18,123.6,240.73,111.77,220.85,107.38Zm-74.48,5.13c-1.35.3-2.58-.11-2.76-.9s.77-1.68,2.12-2,2.57.1,2.76.89S147.72,112.21,146.37,112.51Zm30.89,22.27c-.11.63-1,1-1.91.82s-1.63-.81-1.51-1.43,1-1,1.91-.81S177.36,134.17,177.26,134.78Zm23.35,2.74c-2.55,1.15-5.28.64-6.1-1.15s.6-4.19,3.16-5.35,5.29-.64,6.1,1.16S203.17,136.36,200.61,137.52Zm7.59-8.5c-1.95,0-3.54-.92-3.55-2.08s1.57-2.1,3.53-2.11,3.54.91,3.55,2.07S210.16,129,208.2,129Zm16.57-14.37c-2,0-3.55-.91-3.56-2.07s1.57-2.11,3.53-2.12,3.55.92,3.56,2.07S226.72,114.63,224.77,114.65Zm25.51,6.16c-.11.62-1,1-1.91.81s-1.62-.8-1.51-1.42,1-1,1.91-.81S250.39,120.2,250.28,120.81Z"/><path class="cls-6" d="M148.44,110.37c-.3-.69-1.45-1-2.71-.74s-2.3,1.19-2.12,2c-.45-1,.4-2,1.9-2.41S148.18,109.32,148.44,110.37Z"/><path class="cls-6" d="M177.26,134.78c.1-.61-.57-1.25-1.51-1.42s-1.8.2-1.91.81c-.13-1.55,1.3-1.61,2.33-1.28A1.66,1.66,0,0,1,177.26,134.78Z"/><path class="cls-6" d="M202.91,131.14a5.34,5.34,0,0,0-5.24-.12c-2.56,1.16-4,3.56-3.16,5.35l.09.18c-1-1.49-2.08-4.29,2-6.43A5.09,5.09,0,0,1,202.91,131.14Z"/><path class="cls-6" d="M211.64,126.43c-.36-.92-1.78-1.62-3.46-1.6-2,0-3.54,1-3.53,2.11a1,1,0,0,0,0,.24c-.43-1.3.21-2.67,2.67-2.92S211.66,125.42,211.64,126.43Z"/><path class="cls-6" d="M228,111.69a4.11,4.11,0,0,0-3.25-1.23c-2,0-3.54,1-3.53,2.12a1.44,1.44,0,0,0,.46,1c-1.07-.89-1.6-2.69.83-3.45S227.42,110.17,228,111.69Z"/><path class="cls-6" d="M250.1,120.13a2.1,2.1,0,0,0-1.33-.74c-.94-.17-1.8.19-1.91.81a.81.81,0,0,0,.11.56c-.5-.71-.43-1.45.66-1.83A2,2,0,0,1,250.1,120.13Z"/><g class="cls-25"><path class="cls-1" d="M115.81,123.16a128.46,128.46,0,0,1,19.7,1c9.72,1.33,19.81,3.12,28.18,8.55a164.1,164.1,0,0,1,15.83,11.83,57,57,0,0,0,5.92,4.35c.64.32,1.34.82,2.05.52,2.42-1.33,5.54-4.21,7.77-5.92,2.57-2.06,5.19-4.08,7.89-6,13.32-9.43,21.2-10.61,37.06-12,4.77-.38,10-.57,14.79-.69l2.47-.06,1.23,0a5.43,5.43,0,0,0,1.22-.12,16.31,16.31,0,0,1-2.45.2l-2.46.09c-4.82.2-10,.46-14.78.92-15.78,1.47-23.58,2.64-36.79,12.1-2.68,1.89-5.27,3.91-7.83,6-2.32,1.79-5.32,4.65-7.89,6a1.77,1.77,0,0,1-1.41,0,15,15,0,0,1-3.24-1.94c-1.33-1-2.62-2-3.9-3a162.65,162.65,0,0,0-15.72-11.87c-8.3-5.46-18.3-7.25-28-8.65a128.31,128.31,0,0,0-19.67-1.31Z"/><path class="cls-1" d="M173.2,134.19a2.62,2.62,0,0,0,2.11,1.69c.88.07,2.12.15,2.46-.88a1,1,0,0,1-.25.74,2.83,2.83,0,0,1-3.71-.12,2.54,2.54,0,0,1-.61-1.43Z"/><path class="cls-1" d="M194.23,137.54a6.86,6.86,0,0,0,10.07-2.83,6,6,0,0,0,.45-1.67c.22,5.11-7,8.1-10.52,4.5Z"/><path class="cls-1" d="M204.29,128.26c2,2,7.25,1.89,8.27-1.07a2.25,2.25,0,0,1-.42,1.18c-1.8,2.25-6.14,2.26-7.85-.11Z"/><path class="cls-1" d="M142.66,112.15c1.51,2.11,6.91,1.25,6.83-1.73.74,3.39-5.6,4.54-6.83,1.73Z"/><path class="cls-1" d="M168.42,104.65a5.13,5.13,0,0,0,5.05,2.61c1.95-.16,4.14-1.37,4.1-3.59a3,3,0,0,1-.15,1.56c-1.12,2.53-4.79,3.17-7,1.8a4.13,4.13,0,0,1-2-2.38Z"/><path class="cls-1" d="M219.72,112.22c.7,2.82,4.13,3.44,6.62,3a3.66,3.66,0,0,0,2.73-1.37,2.18,2.18,0,0,0,.3-1.53,2.18,2.18,0,0,1-.11,1.64c-.86,1.57-2.93,1.79-4.53,1.81-2.15,0-4.85-1.21-5-3.6Z"/><path class="cls-1" d="M246.11,120.81c1,1.59,3.72,2.11,5,.61-.85,2.13-4.57,1.52-5-.61Z"/></g><path class="cls-22" d="M176.36,94.43c-3-2-5.6-2.53-7.28-2.07s-2,2.48-3.2,3.07-5.29,2.39-6.91,2.16-5.31-.54-7.28-.64-1.57,0-5.23,1.28-12.29,3.57-14.41,3.2-6.41-1.93-7.92-1.58-1.16,3.08-3.08,3.73-4-.56-7.78,1.49-3.07,2.82-4,4.49-1.22,1.35-3.2,4,1.26,7.85,1.73,8.82,3.12,3.59,4.57,3.4.81-2.49,4.67-2.21.3,3.88,3.59,5.54,3.76,2.11,4.93,1.45.94-2.29,3.45-1.84,1.16,1.68,3.63,2,2.31.87,4.86.63,1.11,2.82,4,2.82,4.94-.37,6.27-1.14a2,2,0,0,1,2.92.68c.25.79-1.44,2.6.6,3.52s-1.22.9,4.22,1.64,8.15.86,9.59-1.29,2.46-4.52,4.53-4.82,1.69,6.26,7.65,5.4,7.48-4,9.65-4.32.8,6,5.86,5.28,5.12-5.16,7.6-5.76,1,5,8.3,4,4.87-4.51,8.42-5.83,6.69,2.83,12.57,2,4.87-3.1,7.66-3.53,4.39,2.52,5.53,3.6,1.48,2.83,4,1.77,1.48-5.7,3.08-7.5,2.64-.71,4.21-2.66,4.5-2.63,3.45-5.15-5.11-2.4-5.76-5.68,3.09-3.88,3.17-7.9-3.17-3.5-5.77-5.37-5.12,1.31-7.07-1.5-.12-3-3.9-4.73-7.46,2.19-10.78,1.36-8.79-4.6-11.52-5.23-3.69,2.48-5.33,2.63-5.52-2.1-8.89-1.33-3.5,2.07-5.83,2.49-6.34-.13-8.27-.53-3.17.42-5.53.7S177.52,95.21,176.36,94.43Z"/><g class="cls-24"><path class="cls-1" d="M202,130c1.81,1.81,2.62,3.25,4.14,3.44s8.74-.59,6.68-2.6-7.65-21.65-9.45-22.9S200.77,128.78,202,130Z"/><path class="cls-1" d="M224.59,130.85c1.84.86,8.58,0,9.42-2s-6.1-3.92-8.39-6.05-7.28-10-8.66-10.21-2.27.19-3.28,1.57-.13,4.35.08,6.08,2.89,6.81,3.69,7.39S222.83,130,224.59,130.85Z"/><path class="cls-1" d="M111.5,122.7c-1-.33-4-5.3-3.81-7s8.76-3,11.44-3.37,15.45-3.1,18.18-3.68,11.85-1.07,10.9-.1-4.37,2.59-7.91,3.2-7.91,3.71-11.73,5S113.45,123.37,111.5,122.7Z"/><path class="cls-1" d="M153.35,135.51a30.35,30.35,0,0,0,7,1.37,8.18,8.18,0,0,0,5.27-3c1.32-1.8,5.76-6.34,7.23-8.36s3.8-11.58,3.8-11.58-3.71,3.71-5.75,4.79-5.82,4.12-7.59,5.1-6.32.89-9.09.71-3.22,1.37-7.17,1.84a33.19,33.19,0,0,0-9.17,2.7c-.87.46,1.78.17,2.19,1s.71,2,2,2.14a14,14,0,0,0,5.8-.92,7.49,7.49,0,0,1,5,.15C153.55,131.75,151.82,134.94,153.35,135.51Z"/><path class="cls-1" d="M143.76,101c.89-.41,5.58-3,7.25-3s6.48,1,9.75,1.53,11,1.7,12.5,2.23,7.05,2.48,6.22,3.27-4.35.56-6.21.27a86.37,86.37,0,0,0-10.69-.18c-5.23.07-11.7,1-14.35.24s-7.93-.8-7.34-1.8A13.78,13.78,0,0,1,143.76,101Z"/><path class="cls-1" d="M197.54,133.4c-1.63.61-1.25,2.27-3,2.68s-2.88.66-3.72-.51-1.85-4.18-3.28-4a17.18,17.18,0,0,0-5.17,1.65c-1.42.74-2.7,2.67-4.35,1.91s-2.72-1.13-3.37-1.89a2.52,2.52,0,0,1-.43-3.3c.9-1.53,4.16-2.32,5.16-4s3.34-6.49,3.4-8.15,4.57-2.78,5.45-4.4,4.48-3.31,5-3.14,1.14,2,1.68,3.27,2.35,4.2,2.71,5.51,0,7.54.8,9.52S198.89,132.9,197.54,133.4Z"/><path class="cls-1" d="M186,96.26c2.1-1.5,4.15,1.06,6.43.94s5.14-1.63,6.76-1.8a3.22,3.22,0,0,1,3.11,2.22c.18.83-1.81,3.14-2,3.94s0,6.31-1.23,6.46-1.89-1.47-3.73-1.76-4.46,1.67-6.22,2.59-2.77,2.64-3.26,1.54,1.58-6.2,1.56-7,.37-1.22-.91-3S185.47,96.65,186,96.26Z"/><path class="cls-1" d="M244.42,131.61c1.29-.42,2.9-4.4,3.51-5.24s2.12-1.36,3.41-2.09,4.08-.91,3.81-2.5-5.86-2.63-6-6.09a9.55,9.55,0,0,1,2.07-6.78c.86-1,4.43-.27,1.91-3s-2.92-4.29-5.27-3.64-1.94,2.19-5.65,2.43-4.78.58-8.75.79a22.41,22.41,0,0,0-8.85,2.08c-2.48,1.13-4.83,2-3.43,3.06s8.1,1.47,11.33,1.12,8-.71,8.58.49-1.58,4.53-4.38,3.14-2.36-1.75-6.06-1.58-5.68-.29-5.7.53-1.88,1.22.27,2a33.37,33.37,0,0,1,6.23,3.67c1.11.78,4.32,2.82,3.91,3.18S243.58,131.88,244.42,131.61Z"/><path class="cls-1" d="M237.87,101.34c.75-1.35,1.44-4-1.29-4.33s-11.46,3.65-14.64,3.68-1.39,0-6.78-.22-8,0-8.86.76a3.2,3.2,0,0,0-.09,4.21c1.26,1.27,1.1,5.6,3.48,4.25s4.34-3.5,7.29-4.47a18.52,18.52,0,0,1,8.63-.92C228.59,104.7,237.39,102.2,237.87,101.34Z"/></g><path class="cls-23" d="M232.54,132.13c1.41-.49,2.12-1.84,3.42-2.52a5.63,5.63,0,0,1,2.11-.55c2.3-.1,3.94,1.92,5.28,3.48,1.44,1.79,3,3.3,3.85.06,1-4.46.37-5.59,5.21-7.29a2.31,2.31,0,0,0,.85-.5,14.55,14.55,0,0,1,1.72-1.29,4.43,4.43,0,0,0,1.49-1.46c-.56,1.3-2.11,1.93-3,2.93a5.91,5.91,0,0,1-1.91,1,9.13,9.13,0,0,0-1.81,1c-1.75,1.19-1.45,3.8-2,5.7-.34,1.74-1.64,3.22-3.31,1.73-2-1.78-3.36-4.95-6.35-5.05a5.32,5.32,0,0,0-2,.44c-1.26.57-2.13,1.93-3.54,2.27Z"/><path class="cls-23" d="M217.6,130.15c2.24-.38,4.45.56,6.56,1.17a19.26,19.26,0,0,0,6.45,1.26,12.65,12.65,0,0,1-6.63-.71c-1.85-.57-4.42-1.71-6.38-1.72Z"/><path class="cls-23" d="M198.78,133.46c1.23-1.21,3.67-1.84,4.73-.08a7.78,7.78,0,0,0,1.46,2,4,4,0,0,0,2.32.46,11.61,11.61,0,0,0,4.89-1.14c.73-.34,1.06-1.19,1.53-1.91a5.53,5.53,0,0,1,1.79-1.9,6,6,0,0,0-1.54,2,9,9,0,0,1-1,1.72,7,7,0,0,1-3,1.42c-1.71.34-3.72.74-5.29-.25a7.43,7.43,0,0,1-1.5-2.2c-.91-1.66-3.08-1.07-4.36-.17Z"/><path class="cls-23" d="M179.8,136.48c1.9-1.12,7.32-5.7,9.11-2.83.81,1.45.58,3.45,1.91,4.56,1.52,1,3.23-.31,4.37-1.35.71-.65,1.36-1.36,2.06-2-1.35,1.37-2.53,3-4.39,3.75-2.54.86-3.3-1.5-3.75-3.45-.43-1.67-1.06-2.48-2.84-1.76-2.25.81-4.14,2.34-6.47,3.11Z"/><path class="cls-23" d="M141,131.34a2.09,2.09,0,0,0,2.27,1.37c2.69-.05,5.32-1.7,8-.89.37.11.88.41.92.87a29,29,0,0,1-.21,3.08,3,3,0,0,0,.59.34,15.13,15.13,0,0,0,2.56,1.33c2.23.66,4.77,1.14,7,.4,2.88-1,3.62-4.59,6.33-5.89,2.64-.89,3.65.53,4.74,2.61a5.79,5.79,0,0,0,5,2.44,5.86,5.86,0,0,1-5.21-2.27c-1.1-1.88-1.91-3.25-4.35-2.38-2.54,1.4-3.38,5-6.29,6-2.42.84-5,.31-7.38-.41a14.49,14.49,0,0,1-2.61-1.37,2.63,2.63,0,0,1-.79-.52,1.46,1.46,0,0,1-.06-.8l.2-1.46c0-.38.16-1,0-1.26a3.88,3.88,0,0,0-2.61-.55c-2.14.07-7.22,2.34-8.06-.64Z"/><path class="cls-23" d="M111.85,124.47a17.56,17.56,0,0,0,1.72-1.13,5.81,5.81,0,0,1,4.06-.72,6.8,6.8,0,0,1,2.07.53.92.92,0,0,1,.44.47c.4,1.11.21,2.47.76,3.48a7.89,7.89,0,0,0,3.36,2.77c.16,0,.09,0,.24-.05a28.55,28.55,0,0,1,2.26-2.12c1.17-.91,2.84-.57,4.19-.34a3,3,0,0,1,1.55.63c.3.46-.06,1.1.36,1.43a9.76,9.76,0,0,0,4.92,1,9.91,9.91,0,0,1-4.12-.31,2.48,2.48,0,0,1-1-.41c-.51-.36-.26-1-.47-1.45a3.26,3.26,0,0,0-1.31-.42c-1.26-.13-2.72-.5-3.8.33-.87.62-1.49,1.55-2.35,2.23a.73.73,0,0,1-.42.1,5.9,5.9,0,0,1-2.45-1.48,7.15,7.15,0,0,1-1.41-1.62c-.59-1.16-.38-2.38-.72-3.55a.47.47,0,0,0-.23-.27,8.21,8.21,0,0,0-3.93-.65c-1.41,0-2.47,1.06-3.71,1.59Z"/><path class="cls-23" d="M137.29,126a65.4,65.4,0,0,1,8.93-3.36c1.86-.6,3.83-.06,5.74-.17a30.14,30.14,0,0,0,5.62-.41,24.68,24.68,0,0,0,5-2.49c1.09-.64,2.17-1.32,3.24-2-2.55,1.88-5.14,3.89-8.17,5a32.81,32.81,0,0,1-9.54.31c-3.72.4-7.29,2.06-10.87,3.16Z"/><path class="cls-23" d="M225.33,119.83a21.9,21.9,0,0,0,5.86,3.72,25.33,25.33,0,0,1,5.15,3.42,2.17,2.17,0,0,1,.56.68,2.55,2.55,0,0,0-.66-.56c-1.71-1.09-3.5-2.11-5.3-3a14.19,14.19,0,0,1-5.61-4.23Z"/><path class="cls-23" d="M251.59,111.19a3.39,3.39,0,0,0-.76,2.38,4.66,4.66,0,0,0,2.23,4.2c.73.46,1.5.88,2.29,1.28-1.69-.42-3.71-1.09-4.49-2.8s-.83-4,.73-5.06Z"/><path class="cls-6" d="M176.13,98.76a7.21,7.21,0,0,0-5.08-1.15c-1.18.31-1.46,1.56-2.3,2s-3.76,1.56-4.9,1.45-3.72-.25-5.1-.28-1.11,0-3.7.88-8.7,2.41-10.18,2.22-4.48-1.08-5.55-.84-.86,1.91-2.22,2.35-2.81-.28-5.5,1-2.2,1.79-2.85,2.83-.88.85-2.32,2.55.76,4.81,1.07,5.4,2.13,2.16,3.15,2,.61-1.55,3.32-1.44.14,2.38,2.43,3.35,2.61,1.23,3.44.8.7-1.42,2.46-1.19.78,1,2.52,1.16,1.6.5,3.4.31.73,1.71,2.76,1.67a10.65,10.65,0,0,0,4.43-.81,1.47,1.47,0,0,1,2,.36c.16.48-1.06,1.63.36,2.16s-.87.57,2.94.94,5.71.39,6.76-1,1.8-2.83,3.27-3,1.08,3.82,5.28,3.19,5.33-2.59,6.86-2.82.46,3.66,4,3.15,3.68-3.26,5.44-3.68.59,3,5.77,2.33,3.5-2.86,6-3.74,4.65,1.63,8.8,1,3.48-2,5.45-2.31,3,1.48,3.82,2.12,1,1.72,2.76,1,1.14-3.53,2.29-4.67,1.88-.48,3-1.71,3.21-1.69,2.51-3.23-3.55-1.39-3.95-3.39,2.24-2.45,2.36-4.92-2.17-2.1-4-3.21-3.62.89-4.94-.81,0-1.84-2.66-2.84-5.29,1.47-7.61,1-6.1-2.68-8-3-2.64,1.59-3.8,1.71-3.84-1.19-6.23-.66-2.49,1.33-4.13,1.63a21.34,21.34,0,0,1-5.81-.19c-1.35-.21-2.23.32-3.9.53A7.52,7.52,0,0,1,176.13,98.76Z"/><path class="cls-8" d="M171.46,132.29c11.7,2.37,28.38-.83,36.26-10.31,1.7-2,1.85-6.61,1.78-8.55-.26-7.13-10.31-10.6-19.34-12.4-11.48-2.3-30.32-.17-37.21,9-1.67,2.25-2.93,3.16-2.89,5.55C150.16,121.75,156.7,129.29,171.46,132.29Z"/><path class="cls-16" d="M171.46,132.29c11.7,2.37,28.38-.83,36.26-10.31,1.7-2,1.85-6.61,1.78-8.55-.26-7.13-10.31-10.6-19.34-12.4-11.48-2.3-30.32-.17-37.21,9-1.67,2.25-2.93,3.16-2.89,5.55C150.16,121.75,156.7,129.29,171.46,132.29Z"/><path class="cls-8" d="M171,129.36c11.71,2.37,28.39-.83,36.27-10.31s-6.08-18.66-17.56-21-30.32-.16-37.21,9C146.49,115.12,150.44,125.18,171,129.36Z"/><path class="cls-6" d="M171,129.36c11.71,2.37,28.39-.83,36.27-10.31s-6.08-18.66-17.56-21-30.32-.16-37.21,9C146.49,115.12,150.44,125.18,171,129.36Z"/><path class="cls-8" d="M172.48,126.45c9.56,2,23.19-.67,29.63-8.41s-5-15.25-14.35-17.12-24.77-.14-30.39,7.39C152.49,114.83,155.71,123.05,172.48,126.45Z"/><path class="cls-1" d="M168,115.64c0-.56-3.34-1-3.35,0C164.61,116.58,167.9,116.36,168,115.64Z"/><path class="cls-1" d="M176.22,107.49c.92-.13.92-2.18-.83-1.89C173.92,105.84,175,107.66,176.22,107.49Z"/><path class="cls-1" d="M167.93,106.58c.67-.4-1.24-2.09-2.47-1.29C164.44,106,167.06,107.11,167.93,106.58Z"/><path class="cls-1" d="M162.84,118c-.67-.39-3.6.77-2.28,1.48C161.67,120.08,163.7,118.51,162.84,118Z"/><path class="cls-1" d="M182.46,121.51c-.89.21-.34,2.23,1.32,1.79C185.17,122.93,183.61,121.24,182.46,121.51Z"/><path class="cls-1" d="M193.86,111.12c0,.56,3.41.93,3.34-.13C197.14,110.1,193.86,110.4,193.86,111.12Z"/><path class="cls-1" d="M189.32,108.67c.42.5,3.8-.07,2.93-1S188.77,108,189.32,108.67Z"/><path class="cls-1" d="M181.93,116.57c-.94-.07-2.17,1.87-.38,2C183.06,118.61,183.14,116.67,181.93,116.57Z"/><path class="cls-8" d="M194.85,124.52s-11.48-7.3-10-9.58,20.84-2,20.93-.57S200.59,123.34,194.85,124.52Z"/><path class="cls-6" d="M194.85,124.52s-11.48-7.3-10-9.58,20.84-2,20.93-.57S200.59,123.34,194.85,124.52Z"/><path class="cls-8" d="M196.19,102.87s-10.36,8.17-14.4,7.79-6.67-11.63-4.33-12S193.29,99.8,196.19,102.87Z"/><path class="cls-6" d="M196.19,102.87s-10.36,8.17-14.4,7.79-6.67-11.63-4.33-12S193.29,99.8,196.19,102.87Z"/><path class="cls-8" d="M159.06,103.44s13,6.36,12,8.72-20.31,3.52-20.7,2.13S153.61,105,159.06,103.44Z"/><path class="cls-6" d="M159.06,103.44s13,6.36,12,8.72-20.31,3.52-20.7,2.13S153.61,105,159.06,103.44Z"/><path class="cls-8" d="M159.33,123.72s11.17-7.81,15.15-7.28,5.47,11.86,3.1,12.12S161.92,126.89,159.33,123.72Z"/><path class="cls-6" d="M159.33,123.72s11.17-7.81,15.15-7.28,5.47,11.86,3.1,12.12S161.92,126.89,159.33,123.72Z"/><path class="cls-8" d="M136.44,122.11c10,.41,22.81-5.36,27.13-15.76.93-2.24.06-6.68-.42-8.54C161.39,91,152.5,89.24,144.8,89c-9.8-.37-24.59,4.71-28.17,14.7-.87,2.44-1.68,3.52-1.13,5.82C116.91,115.36,123.84,121.58,136.44,122.11Z"/><path class="cls-16" d="M136.44,122.11c10,.41,22.81-5.36,27.13-15.76.93-2.24.06-6.68-.42-8.54C161.39,91,152.5,89.24,144.8,89c-9.8-.37-24.59,4.71-28.17,14.7-.87,2.44-1.68,3.52-1.13,5.82C116.91,115.36,123.84,121.58,136.44,122.11Z"/><path class="cls-8" d="M135.41,119.36c10,.41,22.8-5.36,27.12-15.76s-9-17-18.77-17.39-24.59,4.71-28.16,14.7C112.5,109.56,117.88,118.63,135.41,119.36Z"/><path class="cls-6" d="M135.41,119.36c10,.41,22.8-5.36,27.12-15.76s-9-17-18.77-17.39-24.59,4.71-28.16,14.7C112.5,109.56,117.88,118.63,135.41,119.36Z"/><path class="cls-8" d="M136,116.32c8.16.34,18.63-4.38,22.16-12.88s-7.34-13.9-15.34-14.21-20.09,3.85-23,12C117.29,108.31,121.69,115.72,136,116.32Z"/><path class="cls-1" d="M130,106.61c-.09-.54-2.92-.44-2.7.59C127.49,108.06,130.11,107.32,130,106.61Z"/><path class="cls-1" d="M134.91,97.43c.72-.27.28-2.25-1.08-1.69C132.69,96.21,134,97.78,134.91,97.43Z"/><path class="cls-1" d="M128,97.88c.46-.5-1.46-1.81-2.28-.84C125,97.85,127.41,98.53,128,97.88Z"/><path class="cls-1" d="M126.36,109.72c-.62-.26-2.75,1.32-1.52,1.79C125.87,111.9,127.17,110.07,126.36,109.72Z"/><path class="cls-1" d="M143,110c-.67.35.21,2.2,1.46,1.51C145.52,110.88,143.88,109.5,143,110Z"/><path class="cls-1" d="M150,98.1c.12.53,3,.35,2.68-.67C152.42,96.59,149.83,97.4,150,98.1Z"/><path class="cls-1" d="M145.78,96.46c.44.41,3.06-.67,2.15-1.42C147.18,94.41,145.2,95.93,145.78,96.46Z"/><path class="cls-1" d="M141.51,105.27c-.78.08-1.36,2.15.12,2C142.87,107.05,142.51,105.16,141.51,105.27Z"/><path class="cls-8" d="M153.69,110.86s-10.87-5.2-10.16-7.63S160,98,160.36,99.31,158.08,108.8,153.69,110.86Z"/><path class="cls-6" d="M153.69,110.86s-10.87-5.2-10.16-7.63S160,98,160.36,99.31,158.08,108.8,153.69,110.86Z"/><path class="cls-8" d="M150.08,89.76s-6.62,9.55-10,9.83S132.19,89.45,134,88.74,147.06,87.27,150.08,89.76Z"/><path class="cls-6" d="M150.08,89.76s-6.62,9.55-10,9.83S132.19,89.45,134,88.74,147.06,87.27,150.08,89.76Z"/><path class="cls-8" d="M120.14,96.27s11.9,4,11.61,6.49-15.69,6.65-16.3,5.38S116.07,98.69,120.14,96.27Z"/><path class="cls-6" d="M120.14,96.27s11.9,4,11.61,6.49-15.69,6.65-16.3,5.38S116.07,98.69,120.14,96.27Z"/><path class="cls-8" d="M124.77,115.79s7.34-9.32,10.68-9.45,7,10.56,5.15,11.19S127.54,118.43,124.77,115.79Z"/><path class="cls-6" d="M124.77,115.79s7.34-9.32,10.68-9.45,7,10.56,5.15,11.19S127.54,118.43,124.77,115.79Z"/><path class="cls-8" d="M223.52,124.37c-11-1.67-24.21-9.74-27.48-20.39-.71-2.29.86-6.28,1.65-7.92,2.88-6,12.85-5.84,21.31-4.52,10.77,1.67,26.25,9.5,28.77,19.61.61,2.47,1.35,3.65.43,5.7C245.83,122.08,237.38,126.49,223.52,124.37Z"/><path class="cls-16" d="M223.52,124.37c-11-1.67-24.21-9.74-27.48-20.39-.71-2.29.86-6.28,1.65-7.92,2.88-6,12.85-5.84,21.31-4.52,10.77,1.67,26.25,9.5,28.77,19.61.61,2.47,1.35,3.65.43,5.7C245.83,122.08,237.38,126.49,223.52,124.37Z"/><path class="cls-8" d="M225,122c-11-1.67-24.2-9.74-27.48-20.39s12.2-14.12,23-12.45,26.25,9.5,28.76,19.62C251.46,117.55,244.31,125,225,122Z"/><path class="cls-6" d="M225,122c-11-1.67-24.2-9.74-27.48-20.39s12.2-14.12,23-12.45,26.25,9.5,28.76,19.62C251.46,117.55,244.31,125,225,122Z"/><path class="cls-8" d="M224.8,119c-9-1.37-19.77-8-22.45-16.66s10-11.53,18.77-10.16,21.44,7.76,23.49,16C246.4,115.39,240.55,121.43,224.8,119Z"/><path class="cls-1" d="M232.74,111.17c.17-.5,3.26.19,2.87,1.1S232.51,111.81,232.74,111.17Z"/><path class="cls-1" d="M228.64,101.53c-.75-.4,0-2.17,1.42-1.36C231.24,100.84,229.62,102.06,228.64,101.53Z"/><path class="cls-1" d="M236.13,103.39c-.42-.57,1.86-1.41,2.61-.33C239.38,104,236.69,104.12,236.13,103.39Z"/><path class="cls-1" d="M236.28,114.84c.72-.12,2.82,1.8,1.41,2C236.51,117,235.34,115,236.28,114.84Z"/><path class="cls-1" d="M218,111.61c.68.46-.54,2-1.81,1.11C215.16,112,217.13,111,218,111.61Z"/><path class="cls-1" d="M212.05,99.05c-.2.48-3.29-.29-2.83-1.18S212.32,98.42,212.05,99.05Z"/><path class="cls-1" d="M216.88,98.38c-.54.3-3.25-1.26-2.16-1.78C215.64,96.17,217.59,98,216.88,98.38Z"/><path class="cls-1" d="M220.33,107.53c.83.24,1.18,2.29-.41,1.8A.92.92,0,1,1,220.33,107.53Z"/><path class="cls-8" d="M206.21,110.26s12.63-2.64,12.18-5.07S201.13,96.86,200.53,98,201.7,107.41,206.21,110.26Z"/><path class="cls-6" d="M206.21,110.26s12.63-2.64,12.18-5.07S201.13,96.86,200.53,98,201.7,107.41,206.21,110.26Z"/><path class="cls-8" d="M213.11,91.21s5.91,10.32,9.54,11.28,10.08-7.88,8.2-8.93S216.76,89.49,213.11,91.21Z"/><path class="cls-6" d="M213.11,91.21s5.91,10.32,9.54,11.28,10.08-7.88,8.2-8.93S216.76,89.49,213.11,91.21Z"/><path class="cls-8" d="M245,103.5s-13.59,1.34-13.61,3.69,16.23,9.48,17.09,8.42S249.08,106.61,245,103.5Z"/><path class="cls-6" d="M245,103.5s-13.59,1.34-13.61,3.69,16.23,9.48,17.09,8.42S249.08,106.61,245,103.5Z"/><path class="cls-8" d="M237.18,120.86s-6.74-10.26-10.37-11.08-9.14,8.46-7.2,9.44S233.77,122.77,237.18,120.86Z"/><path class="cls-6" d="M237.18,120.86s-6.74-10.26-10.37-11.08-9.14,8.46-7.2,9.44S233.77,122.77,237.18,120.86Z"/><g class="cls-26"><path class="cls-27" d="M209.65,102.3l-.18,2.56a2,2,0,0,0,0-.6c-.75-4.06-12.58-7.47-28.36-5.87-15,1.51-25,6.69-25.22,10.68l.17-2.56c.28-4,10.21-9.16,25.23-10.68,15.78-1.59,27.61,1.82,28.36,5.87A3,3,0,0,1,209.65,102.3Z"/><g class="cls-10"><path class="cls-1" d="M209.65,102.3l-.18,2.56a2,2,0,0,0,0-.6c-.75-4.06-12.58-7.47-28.36-5.87-15,1.51-25,6.69-25.22,10.68l.17-2.56c.28-4,10.21-9.16,25.23-10.68,15.78-1.59,27.61,1.82,28.36,5.87A3,3,0,0,1,209.65,102.3Z"/></g><path class="cls-27" d="M180.7,92.85c17.06-1.73,31.36,2,32.56,8.49S202,114.25,185,116s-31.36-2-32.56-8.49S163.65,94.57,180.7,92.85ZM184.43,113c15.78-1.59,25.94-7.22,25.19-11.28S197,94.24,181.26,95.83s-25.94,7.23-25.19,11.28,12.58,7.46,28.36,5.87"/><g class="cls-28"><path class="cls-1" d="M180.7,92.85c17.06-1.73,31.36,2,32.56,8.49S202,114.25,185,116s-31.36-2-32.56-8.49S163.65,94.57,180.7,92.85ZM184.43,113c15.78-1.59,25.94-7.22,25.19-11.28S197,94.24,181.26,95.83s-25.94,7.23-25.19,11.28,12.58,7.46,28.36,5.87"/></g><path class="cls-27" d="M213.33,102.53l-.17,2.56c-.42,6.06-12.35,11.82-28.35,13.44-17.06,1.72-31.37-2-32.57-8.5a4.76,4.76,0,0,1-.06-1.19l.17-2.56a4.84,4.84,0,0,0,.07,1.2C153.62,114,167.93,117.7,185,116,201,114.36,212.91,108.6,213.33,102.53Z"/><g class="cls-10"><path class="cls-1" d="M213.33,102.53l-.17,2.56c-.42,6.06-12.35,11.82-28.35,13.44-17.06,1.72-31.37-2-32.57-8.5a4.76,4.76,0,0,1-.06-1.19l.17-2.56a4.84,4.84,0,0,0,.07,1.2C153.62,114,167.93,117.7,185,116,201,114.36,212.91,108.6,213.33,102.53Z"/></g></g><g class="cls-26"><path class="cls-27" d="M168.81,117.38l-.37,2.54a2,2,0,0,0,0-.6c-.45-4.1-12-8.36-27.85-7.93-15.09.42-25.37,4.85-25.94,8.81l.37-2.53c.56-4,10.84-8.4,25.93-8.81,15.86-.44,27.4,3.83,27.86,7.92A3,3,0,0,1,168.81,117.38Z"/><g class="cls-10"><path class="cls-1" d="M168.81,117.38l-.37,2.54a2,2,0,0,0,0-.6c-.45-4.1-12-8.36-27.85-7.93-15.09.42-25.37,4.85-25.94,8.81l.37-2.53c.56-4,10.84-8.4,25.93-8.81,15.86-.44,27.4,3.83,27.86,7.92A3,3,0,0,1,168.81,117.38Z"/></g><path class="cls-27" d="M140.63,105.84c17.14-.47,31.13,4.29,31.85,10.84s-12.13,12.06-29.27,12.54-31.14-4.3-31.86-10.85S123.49,106.31,140.63,105.84Zm2.24,20.35c15.86-.44,26.4-5.3,25.95-9.41s-12-8.36-27.86-7.92-26.4,5.31-25.95,9.41,12,8.36,27.86,7.92"/><g class="cls-28"><path class="cls-1" d="M140.63,105.84c17.14-.47,31.13,4.29,31.85,10.84s-12.13,12.06-29.27,12.54-31.14-4.3-31.86-10.85S123.49,106.31,140.63,105.84Zm2.24,20.35c15.86-.44,26.4-5.3,25.95-9.41s-12-8.36-27.86-7.92-26.4,5.31-25.95,9.41,12,8.36,27.86,7.92"/></g><path class="cls-27" d="M172.46,117.88l-.36,2.54c-.86,6-13.17,10.89-29.26,11.33-17.13.47-31.13-4.29-31.85-10.85a4.39,4.39,0,0,1,0-1.2l.36-2.53a4.8,4.8,0,0,0,0,1.2c.72,6.55,14.72,11.32,31.86,10.85C159.29,128.77,171.6,123.9,172.46,117.88Z"/><g class="cls-10"><path class="cls-1" d="M172.46,117.88l-.36,2.54c-.86,6-13.17,10.89-29.26,11.33-17.13.47-31.13-4.29-31.85-10.85a4.39,4.39,0,0,1,0-1.2l.36-2.53a4.8,4.8,0,0,0,0,1.2c.72,6.55,14.72,11.32,31.86,10.85C159.29,128.77,171.6,123.9,172.46,117.88Z"/></g></g><g class="cls-26"><path class="cls-27" d="M252.32,113.72l-.85,2.42a2.4,2.4,0,0,0,.13-.59c.36-4.1-10.13-10.55-25.76-13.23-14.88-2.55-25.83-.21-27.16,3.56l.85-2.42c1.33-3.77,12.28-6.1,27.16-3.55,15.63,2.68,26.12,9.12,25.76,13.23A2.32,2.32,0,0,1,252.32,113.72Z"/><g class="cls-10"><path class="cls-1" d="M252.32,113.72l-.85,2.42a2.4,2.4,0,0,0,.13-.59c.36-4.1-10.13-10.55-25.76-13.23-14.88-2.55-25.83-.21-27.16,3.56l.85-2.42c1.33-3.77,12.28-6.1,27.16-3.55,15.63,2.68,26.12,9.12,25.76,13.23A2.32,2.32,0,0,1,252.32,113.72Z"/></g><path class="cls-27" d="M227,96.88c16.9,2.9,29.69,10.31,29.11,16.88s-14.26,9.45-31.16,6.55S195.21,110,195.79,103.43,210.06,94,227,96.88Zm-1.78,20.4c15.63,2.68,26.92,0,27.28-4.14s-10.13-10.55-25.76-13.23-26.93,0-27.29,4.14,10.13,10.55,25.77,13.23"/><g class="cls-28"><path class="cls-1" d="M227,96.88c16.9,2.9,29.69,10.31,29.11,16.88s-14.26,9.45-31.16,6.55S195.21,110,195.79,103.43,210.06,94,227,96.88Zm-1.78,20.4c15.63,2.68,26.92,0,27.28-4.14s-10.13-10.55-25.76-13.23-26.93,0-27.29,4.14,10.13,10.55,25.77,13.23"/></g><path class="cls-27" d="M255.81,114.93l-.85,2.41c-2,5.73-15.05,8.1-30.91,5.38-16.9-2.89-29.69-10.31-29.11-16.88a4.7,4.7,0,0,1,.25-1.17l.85-2.41a4.51,4.51,0,0,0-.25,1.17c-.58,6.57,12.21,14,29.11,16.88C240.76,123,253.79,120.66,255.81,114.93Z"/><g class="cls-10"><path class="cls-1" d="M255.81,114.93l-.85,2.41c-2,5.73-15.05,8.1-30.91,5.38-16.9-2.89-29.69-10.31-29.11-16.88a4.7,4.7,0,0,1,.25-1.17l.85-2.41a4.51,4.51,0,0,0-.25,1.17c-.58,6.57,12.21,14,29.11,16.88C240.76,123,253.79,120.66,255.81,114.93Z"/></g></g><path class="cls-8" d="M257.64,97.48c-9.65,19.37-62,21.85-78,21.81s-67.87-2.75-74.13-22.17,27.88-61,81.38-60.86S267.3,78.1,257.64,97.48Z"/><path class="cls-6" d="M257.64,97.48c-9.65,19.37-62,21.85-78,21.81s-67.87-2.75-74.13-22.17,27.88-61,81.38-60.86S267.3,78.1,257.64,97.48Z"/><path class="cls-11" d="M197.67,56.77c-3.06,9.43-17.91,15.81-32.18,18.62-7.15,1.4-30.1,1.79-34.26-6.58S139.7,43.91,164,40.33,200.73,47.33,197.67,56.77Z"/><path class="cls-6" d="M257.64,97.48c-9.65,19.37-62,21.85-78,21.81s-67.87-2.75-74.13-22.17c-2.55-7.9,1.59-19.46,11-30.4-4.37,12.24-7.69,25.31.24,32,13.73,11.62,85.69,8,116-4,24.75-9.83,19.9-25.12,12.37-35.9C258,71.87,262.57,87.59,257.64,97.48Z"/><path class="cls-1" d="M187.41,86.56c-1,0-2.61,4.36-.73,4.17C188.26,90.57,188.68,86.49,187.41,86.56Z"/><path class="cls-1" d="M208.59,44.19c.72.65,4.92-1.25,3.46-2.44C210.82,40.75,207.64,43.34,208.59,44.19Z"/><path class="cls-1" d="M211.48,78.8c-.71.68.9,5,2.19,3.62C214.75,81.27,212.39,77.92,211.48,78.8Z"/><path class="cls-1" d="M124.57,63.7c-.55-.81-5.09,0-3.95,1.55C121.58,66.51,125.28,64.75,124.57,63.7Z"/><path class="cls-1" d="M159.85,77.86c-.75-.62-4.88,1.42-3.38,2.56C157.73,81.37,160.82,78.68,159.85,77.86Z"/><path class="cls-1" d="M223.76,57.25c-.35.91,2.9,4.17,3.5,2.39C227.76,58.14,224.22,56.07,223.76,57.25Z"/><path class="cls-1" d="M220.08,66.92c-.89.42-.76,5,.9,4.14C222.38,70.31,221.22,66.38,220.08,66.92Z"/><path class="cls-1" d="M199.87,48.24c-.43.87,2.51,4.42,3.27,2.7C203.78,49.49,200.44,47.11,199.87,48.24Z"/><path class="cls-1" d="M118.59,70.11c-.64-.73-5,.64-3.74,2C116,73.25,119.42,71.07,118.59,70.11Z"/><path class="cls-1" d="M235.53,83.71c-.86.46-.5,5.06,1.11,4.08C238,87,236.65,83.11,235.53,83.71Z"/><path class="cls-1" d="M246.91,65.14c-.42.88,2.59,4.37,3.32,2.63C250.84,66.31,247.46,64,246.91,65.14Z"/><path class="cls-1" d="M141.27,95.53c-.94-.27-3.86,3.3-2,3.72C140.79,99.6,142.49,95.87,141.27,95.53Z"/><path class="cls-1" d="M154.29,51.12c-.13-1-4.57-2.21-4.21-.35C150.37,52.32,154.47,52.38,154.29,51.12Z"/><path class="cls-1" d="M175.45,47.6c-.82-.52-4.66,2-3,3C173.8,51.35,176.52,48.29,175.45,47.6Z"/><path class="cls-1" d="M203.16,95.75c-.83.51-.19,5.08,1.36,4C205.83,98.86,204.24,95.08,203.16,95.75Z"/><path class="cls-1" d="M131,74.3c-.79-.58-4.77,1.74-3.19,2.77C129.13,77.94,132,75,131,74.3Z"/><path class="cls-1" d="M199.39,103.06c-.93.28-1.51,4.85.27,4.22C201.15,106.76,200.61,102.7,199.39,103.06Z"/><path class="cls-23" d="M114.31,85.66c.56,8.75,10.43,12.21,17.66,14.18,10.22,2.5,20.79,3,31.28,3.5-10.55.51-21.27.17-31.56-2.43-7.36-2-17.64-6.19-17.38-15.25Z"/><path class="cls-8" d="M23.18,168.56l111,0c3.48-4.27-4.11-50.93-51.15-53.15C34,113.08,19.21,161.4,23.18,168.56Z"/><path class="cls-18" d="M23.18,168.56l111,0c3.48-4.27-4.11-50.93-51.15-53.15C34,113.08,19.21,161.4,23.18,168.56Z"/><g class="cls-24"><path d="M130.76,159a1.78,1.78,0,1,1-1.62-1.92A1.78,1.78,0,0,1,130.76,159Z"/><path d="M31.61,165.76A1.78,1.78,0,1,1,30,163.85,1.78,1.78,0,0,1,31.61,165.76Z"/><path d="M112.56,130.08a1.78,1.78,0,1,1-1.63-1.91A1.77,1.77,0,0,1,112.56,130.08Z"/><path d="M43.71,136.82a1.44,1.44,0,1,1-1.32-1.56A1.44,1.44,0,0,1,43.71,136.82Z"/><path d="M35.79,163a1.44,1.44,0,1,1-1.32-1.55A1.43,1.43,0,0,1,35.79,163Z"/><path d="M127.66,163.48a.83.83,0,0,1-.89.76.84.84,0,0,1-.76-.9.83.83,0,0,1,.9-.75A.81.81,0,0,1,127.66,163.48Z"/><path d="M47.16,130.61a.83.83,0,1,1-.76-.89A.83.83,0,0,1,47.16,130.61Z"/><path d="M30.37,161.13a.83.83,0,1,1-.76-.89A.82.82,0,0,1,30.37,161.13Z"/></g><path class="cls-22" d="M55.62,170.65c-9.11.14-34.6,2-36.24-4.09s4.45-4,4.54-6.7-4.19-4.52-2.59-8.37,5.3-.42,7.1-1.55-1.69-6.64,1-10.55,8.13.05,9.85-1.8-2-8.77,1.75-11.74,9.56.57,11.6-.12-.31-4.86,2.34-5.93S60.14,122.5,62,122s.06-5.89,4.65-8.12,7.09,3.81,9,4.26,1.09-3,4.24-3.17,2.74,1.32,5.33,2.67,4.65-2.81,9.37-1.47,4.49,4.46,5.83,5.38,4.12-2,5.88-.62.77,2.15,2.51,3.81,3.08-.21,6.28,1.89,1.17,4.8,2.58,6.62,3,.39,5.78,2.47,1.27,3.66,2.44,6.74,3.07,1.39,4.95,3.26.34,5.15,1.62,6.82,3.19-.74,5.14,5-2.29,4.8-3.52,6.55.89.49,1.93,3S64.29,170.51,55.62,170.65Z"/><path class="cls-29" d="M55.62,170.65c-9.11.14-34.6,2-36.24-4.09s4.45-4,4.54-6.7-4.19-4.52-2.59-8.37,5.3-.42,7.1-1.55-1.69-6.64,1-10.55,8.13.05,9.85-1.8-2-8.77,1.75-11.74,9.56.57,11.6-.12-.31-4.86,2.34-5.93S60.14,122.5,62,122s.06-5.89,4.65-8.12,7.09,3.81,9,4.26,1.09-3,4.24-3.17,2.74,1.32,5.33,2.67,4.65-2.81,9.37-1.47,4.49,4.46,5.83,5.38,4.12-2,5.88-.62.77,2.15,2.51,3.81,3.08-.21,6.28,1.89,1.17,4.8,2.58,6.62,3,.39,5.78,2.47,1.27,3.66,2.44,6.74,3.07,1.39,4.95,3.26.34,5.15,1.62,6.82,3.19-.74,5.14,5-2.29,4.8-3.52,6.55.89.49,1.93,3S64.29,170.51,55.62,170.65Z"/><path class="cls-8" d="M26.27,176s-10.14-4.51-3.92-10.43c4.24-4-.64-4.75,3.46-9.69,2.37-2.86,6.35-3,6.63-5.71s-1.35-5.12,1.18-7.81c3.3-3.49,5.82-1,7.9-3.09s-.17-3.38,4-6.61c2.11-1.61,8.61-.11,11.81-1.24s1.54-3.62,6.21-5.63C67.86,124,74,126.76,76.17,127c3.92.45,7.16-1.88,12.11-1.83,4.49,0,5.29,1.9,8.17,4.41s6-.23,8.88.31c4.13.78,2.23,3.9,5.93,4.88s4.91-1,7,1.56c4.06,5,7.12,3.92,9.89,6.42s1.48,4.63,2.18,6.34,6.12,2.38,6.58,5.76-1.32,5-.26,7.7-3.53,2.77-6.36,5.56-6,3.88-12.66,5.1S48.28,178,26.27,176Z"/><path class="cls-15" d="M26.27,176s-10.14-4.51-3.92-10.43c4.24-4-.64-4.75,3.46-9.69,2.37-2.86,6.35-3,6.63-5.71s-1.35-5.12,1.18-7.81c3.3-3.49,5.82-1,7.9-3.09s-.17-3.38,4-6.61c2.11-1.61,8.61-.11,11.81-1.24s1.54-3.62,6.21-5.63C67.86,124,74,126.76,76.17,127c3.92.45,7.16-1.88,12.11-1.83,4.49,0,5.29,1.9,8.17,4.41s6-.23,8.88.31c4.13.78,2.23,3.9,5.93,4.88s4.91-1,7,1.56c4.06,5,7.12,3.92,9.89,6.42s1.48,4.63,2.18,6.34,6.12,2.38,6.58,5.76-1.32,5-.26,7.7-3.53,2.77-6.36,5.56-6,3.88-12.66,5.1S48.28,178,26.27,176Z"/><path class="cls-8" d="M88.92,159.29l.56,4.31S76.2,154.34,63.17,149s-28.67-5.35-28.67-5.35l1.9-2.84s18,1.94,27.24,5.67C75,151,88.92,159.29,88.92,159.29Z"/><path class="cls-8" d="M31,160.36l.07-4.34S42,163.66,53.14,167.37s25.48,1.5,25.48,1.5l-2.12,3.18s-16.15.5-24.13-2C42.62,166.91,31,160.36,31,160.36Z"/><path class="cls-8" d="M28,148.58l-2.3-3.68s15.92,2.89,30,2.37S84,140.2,84,140.2l-.55,3.37s-17.14,5.71-27.13,6.18C44.06,150.32,28,148.58,28,148.58Z"/><path class="cls-8" d="M52,129.57l-.85-4.26S65,133.65,78.38,138.15s29,3.41,29,3.41l-1.71,3s-18-.73-27.56-3.83C66.45,136.9,52,129.57,52,129.57Z"/><path class="cls-8" d="M58.5,125.48l-1-3.83s11.85,4.54,23,5.57,23.68-3.78,23.68-3.78L103,126.66s-14.65,3.67-22.57,3C70.74,128.92,58.5,125.48,58.5,125.48Z"/><path class="cls-8" d="M30.59,176.65h111c3.48-4.27-4.12-50.94-51.16-53.15C41.4,121.18,26.63,169.5,30.59,176.65Z"/><path class="cls-19" d="M30.59,176.65h111c3.48-4.27-4.12-50.94-51.16-53.15C41.4,121.18,26.63,169.5,30.59,176.65Z"/><g class="cls-24"><path d="M138.17,167.1a1.77,1.77,0,1,1-1.62-1.91A1.77,1.77,0,0,1,138.17,167.1Z"/><path d="M120,138.18a1.77,1.77,0,1,1-1.62-1.91A1.77,1.77,0,0,1,120,138.18Z"/><path d="M51.13,144.91a1.44,1.44,0,1,1-2.88-.23,1.44,1.44,0,0,1,2.88.23Z"/><path d="M43.21,171.12a1.44,1.44,0,1,1-1.32-1.56A1.46,1.46,0,0,1,43.21,171.12Z"/><path d="M54.57,138.71a.82.82,0,0,1-.89.76.83.83,0,0,1-.75-.89.82.82,0,0,1,.89-.76A.83.83,0,0,1,54.57,138.71Z"/><path d="M37.78,169.23a.81.81,0,0,1-.89.75.82.82,0,1,1,.14-1.64A.81.81,0,0,1,37.78,169.23Z"/></g><path class="cls-6" d="M141.61,176.64h-111C70.15,175,121.78,172.8,126,158.71c3-10-6.56-24.37-16.44-31.32C139.58,139.13,144.55,173,141.61,176.64Z"/></svg>