<svg id="Слой_1" data-name="Слой 1" xmlns="http://www.w3.org/2000/svg" xmlns:xlink="http://www.w3.org/1999/xlink" viewBox="0 0 382 170"><defs><style>.cls-1{fill:none;}.cls-10,.cls-12,.cls-15,.cls-17,.cls-19,.cls-2,.cls-21,.cls-4{fill:#fff;}.cls-3{clip-path:url(#clip-path);}.cls-10,.cls-4{stroke:#dcdcdc;stroke-miterlimit:10;}.cls-5{fill:#4a148c;}.cls-6{fill:#c8c8c8;}.cls-12,.cls-7{opacity:0.3;}.cls-21,.cls-8{opacity:0.4;}.cls-18,.cls-9{opacity:0.1;}.cls-10{stroke-width:0.75px;}.cls-11,.cls-22{fill:#ffc800;}.cls-13,.cls-17,.cls-26{opacity:0.2;}.cls-14,.cls-24{fill:#ececec;}.cls-15,.cls-22{opacity:0.8;}.cls-16,.cls-25{opacity:0.05;}.cls-19,.cls-23,.cls-24{opacity:0.5;}.cls-20{opacity:0.43;}</style><clipPath id="clip-path"><rect class="cls-1" x="-6" y="-5" width="394" height="180"/></clipPath></defs><rect class="cls-2" x="-660.56" y="-911.22" width="1706" height="1114"/><g class="cls-3"><circle class="cls-4" cx="312.65" cy="84.45" r="65.55" transform="translate(198.29 387.45) rotate(-84.44)"/><path class="cls-5" d="M362.86,163.39c.45-.34.21-5.1-.32-5.77C362.23,157.23,315,160,315,160s-1-6.64-1.45-6.8-57.39,4.58-63.94,8.59c-.55.34,24.48,1.8,53.76,2C331.52,164,362.2,163.89,362.86,163.39Z"/><path class="cls-5" d="M281.92,12.2s78.83,4.17,79.14,3.56.19-6.69-.41-6.76-78.56-.27-78.56-.27-1-6-1.5-6.33S254,5,253.7,5c-.66.06-.63.81,0,.9.9.13,22-.42,22.2-.38a11.92,11.92,0,0,1,.48,3.12c-.08.08-23.44,1-23.94,1.15s-.7.74.16,1S276.18,12,276.33,12A6.38,6.38,0,0,1,276,14.8c-.3.17-20.8-.27-21.68-.2-.71.06-.83.76,0,1s25.49,3,26.09,2.61S281.92,12.2,281.92,12.2Z"/><polygon class="cls-2" points="317.57 108.5 51.98 72.02 201.05 -28.21 317.57 108.5"/><path class="cls-6" d="M317.57,108.5C316,108.16,52.08,72.58,50.75,72.31l1-.66,74.53-50.12c.45-.1,74.47-50.1,74.85-50.21.36.08,116.13,137,116.46,137.18Zm0,0c.16-.07-118.1-137.24-116.33-136.41-37.1,25.05-111.86,75.34-149,100.3C49.73,69.92,318,109.21,317.57,108.5Z"/><g class="cls-7"><polygon class="cls-5" points="310.84 107.58 311.66 101.57 317.19 108.06 317.57 108.5 310.84 107.58"/><polygon class="cls-5" points="284.3 103.93 288.37 74.25 293.9 80.73 294.49 81.43 296.26 83.5 300.02 87.92 297.57 105.75 284.3 103.93"/><polygon class="cls-5" points="257.75 100.29 265.08 46.93 270.16 52.88 270.67 52.95 270.61 53.41 271.2 54.11 276.73 60.59 271.02 102.11 257.75 100.29"/><polygon class="cls-5" points="231.22 96.64 241.8 19.6 244.05 22.26 247.32 26.08 247.92 26.79 253.44 33.27 244.49 98.46 231.22 96.64"/><polygon class="cls-5" points="204.68 93 218.51 -7.71 224.04 -1.23 224.63 -0.53 230.16 5.95 217.95 94.82 204.68 93"/><polygon class="cls-5" points="178.14 89.35 193.6 -23.19 196.12 -24.89 200.67 -27.95 201.05 -28.2 201.34 -27.85 204.9 -23.68 206.87 -21.37 191.41 91.17 178.14 89.35"/><polygon class="cls-5" points="151.6 85.71 163.81 -3.16 170.87 -7.92 171.64 -8.43 178.7 -13.18 164.87 87.53 151.6 85.71"/><polygon class="cls-5" points="125.06 82.06 134.01 16.86 141.08 12.11 141.84 11.6 146.02 8.79 148.91 6.85 138.33 83.88 125.06 82.06"/><polygon class="cls-5" points="98.52 78.42 104.22 36.89 111.29 32.15 112.05 31.63 112.64 31.24 119.12 26.88 111.79 80.24 98.52 78.42"/><polygon class="cls-5" points="71.98 74.77 74.43 56.93 79.24 53.7 81.5 52.18 82.26 51.67 89.33 46.91 85.25 76.59 71.98 74.77"/><polygon class="cls-5" points="51.98 72.02 52.47 71.7 59.53 66.94 58.71 72.95 51.98 72.02"/></g><g class="cls-8"><polygon class="cls-5" points="51.98 72.02 52.47 71.7 59.53 66.94 62.55 64.92 309.31 98.82 311.66 101.57 317.19 108.06 317.57 108.5 51.98 72.02"/><polygon class="cls-5" points="79.24 53.7 81.5 52.18 82.26 51.67 89.33 46.91 95.94 42.47 283.21 68.19 288.37 74.25 293.9 80.73 294.49 81.43 296.26 83.5 79.24 53.7"/><polygon class="cls-5" points="112.64 31.24 119.12 26.88 129.33 20.02 257.11 37.57 265.08 46.93 270.16 52.88 112.64 31.24"/><polygon class="cls-5" points="146.02 8.79 148.91 6.85 162.72 -2.43 231 6.94 241.8 19.6 244.05 22.26 146.02 8.79"/></g><polygon class="cls-2" points="317.13 108.44 317.19 108.06 317.57 108.5 317.13 108.44"/><polygon class="cls-2" points="290.59 104.8 293.9 80.73 294.49 81.43 291.27 104.89 290.59 104.8"/><polygon class="cls-2" points="264.05 101.15 270.61 53.41 271.2 54.11 264.73 101.25 264.05 101.15"/><polygon class="cls-2" points="237.51 97.51 247.32 26.08 247.92 26.79 238.19 97.6 237.51 97.51"/><polygon class="cls-2" points="210.98 93.86 224.04 -1.23 224.63 -0.53 211.66 93.95 210.98 93.86"/><polygon class="cls-2" points="184.44 90.22 200.67 -27.95 201.05 -28.2 201.34 -27.85 185.12 90.31 184.44 90.22"/><polygon class="cls-2" points="157.9 86.57 170.87 -7.92 171.64 -8.43 158.57 86.67 157.9 86.57"/><polygon class="cls-2" points="131.36 82.93 141.08 12.11 141.84 11.6 132.03 83.02 131.36 82.93"/><polygon class="cls-2" points="104.82 79.28 111.29 32.15 112.05 31.63 105.5 79.37 104.82 79.28"/><polygon class="cls-2" points="78.28 75.64 81.5 52.18 82.26 51.67 78.95 75.73 78.28 75.64"/><polygon class="cls-2" points="51.98 72.02 52.47 71.7 52.41 72.08 51.98 72.02"/><g class="cls-9"><circle cx="212.25" cy="31.62" r="27.72"/><circle cx="65.73" cy="67.11" r="86.98"/></g><circle class="cls-10" cx="210.42" cy="27.49" r="27.72"/><path class="cls-11" d="M209.87,3c16.35-.46,24.76,12.44,24.76,24,0,13-7.15,25.07-23.74,25.07-15.74,0-24.61-10.36-24.69-25.07S196.62,3.31,209.87,3Z"/><path class="cls-12" d="M205.41,26.83a.91.91,0,0,1,1,.92.87.87,0,0,1-.91,1,.94.94,0,0,1,0-1.88Z"/><path class="cls-12" d="M232.33,29.35a.89.89,0,0,1,.94.91.87.87,0,0,1-.9,1,.88.88,0,0,1-.94-1A.86.86,0,0,1,232.33,29.35Z"/><path class="cls-12" d="M196.46,41.32a.89.89,0,0,1,.95.92.87.87,0,0,1-.91.95.94.94,0,0,1,0-1.87Z"/><path class="cls-12" d="M210.57,31.18a.57.57,0,0,1,.61.59.56.56,0,0,1-.58.62.57.57,0,0,1-.61-.62A.56.56,0,0,1,210.57,31.18Z"/><path class="cls-12" d="M198,44.61a.57.57,0,0,1,.61.59.56.56,0,0,1-.58.62.61.61,0,0,1,0-1.21Z"/><path class="cls-12" d="M223.43,19.24a.58.58,0,0,1,.61.6.56.56,0,0,1-.58.62.61.61,0,0,1,0-1.22Z"/><path class="cls-12" d="M234.63,27c0,.11,0,.23,0,.33-2.45-8.18-9.58-15.38-21.2-15-11.85.33-21.25,8.37-21.19,21.53a24,24,0,0,0,4.4,14.49C189.9,44,186.25,36.39,186.2,27c-.08-14.7,10.42-23.68,23.67-24C226.22,2.49,234.63,15.38,234.63,27Z"/><circle class="cls-4" cx="64.7" cy="65.94" r="86.98"/><g class="cls-13"><path class="cls-5" d="M94.55,118.15a65,65,0,0,0,31.81.84,66.37,66.37,0,0,0,4.17-5.29,51.56,51.56,0,0,0,3.72-5.62,65.81,65.81,0,0,0-10.6-30l-1.56,6c-.74,1.92-1.36,3.88-2.16,5.77a63.37,63.37,0,0,1,4.46,19.47q-2.6.61-5.08,1.09c-1.69.28-3.44.43-5.09.59s-3.26.27-4.91.25-3.28-.1-4.85-.21A59.38,59.38,0,0,1,94.55,118.15Z"/><path class="cls-5" d="M24.3,110.44a66.17,66.17,0,0,0,9,30.59l6.34,2.32c2.13.73,4.34,1.19,6.51,1.78a67,67,0,0,0,25.22-19.4c-2,.2-4.1.23-6.16.36s-4.11-.19-6.17-.26a77.43,77.43,0,0,1-7.91,5.74,82.5,82.5,0,0,1-9.22,4.59,62.36,62.36,0,0,1-7.78-18.47l-2.61-1.58c-.88-.53-1.65-1.2-2.48-1.79l-2.45-1.83C25.8,111.83,25.06,111.12,24.3,110.44Z"/><path class="cls-5" d="M9.86,41.26a65.92,65.92,0,0,0-26.22,18L-16.68,66l.33,6.72a65.87,65.87,0,0,0,26.26,18A60.77,60.77,0,0,1,6,79.06a68.27,68.27,0,0,1-7.89-5.77,88.64,88.64,0,0,1-7.25-7.35,87.11,87.11,0,0,1,7.25-7.35A67.11,67.11,0,0,1,6,52.82,61.55,61.55,0,0,1,9.86,41.26Z"/><path class="cls-5" d="M71.25,6.13A67,67,0,0,0,46-13.22c-2.17.59-4.39,1-6.51,1.79L33.16-9.1a66.08,66.08,0,0,0-8.94,30.61l2.29-2.07L29,17.59c.84-.59,1.62-1.27,2.5-1.81l2.63-1.6A62.42,62.42,0,0,1,41.89-4.28,80.82,80.82,0,0,1,51.11.31,76.09,76.09,0,0,1,59,6.05c2-.08,4.07-.25,6.11-.27S69.22,6,71.25,6.13Z"/><path class="cls-5" d="M123.63,53.66a65.86,65.86,0,0,0,10.56-30l-1.77-2.88c-.6-.95-1.31-1.82-2-2.73a60.82,60.82,0,0,0-4.17-5.28,64.86,64.86,0,0,0-31.82.87,59.45,59.45,0,0,1,10,7.18c1.57-.11,3.19-.18,4.85-.21s3.22.13,4.91.25,3.4.31,5.09.59,3.35.67,5.08,1.09A63,63,0,0,1,119.93,42c.79,1.87,1.41,3.82,2.15,5.72C122.63,49.71,123.09,51.7,123.63,53.66Z"/><path class="cls-5" d="M83.3,123.15l4.63-1.69a66.11,66.11,0,0,0,31.43,4.67c-1,.92-2,1.87-3.08,2.75l-3.3,2.49c-1.12.8-2.18,1.68-3.35,2.41l-3.53,2.15a69.26,69.26,0,0,1-20.48-5.6Z"/><path class="cls-5" d="M124.88,65.93l-.26,4.94a65.93,65.93,0,0,1,14.25,28.46,82.87,82.87,0,0,0,5.23-15.67,84.52,84.52,0,0,0-5.31-9.56,91.81,91.81,0,0,0-6.37-8.17Z"/><path class="cls-5" d="M16.08,101.27a39.2,39.2,0,0,0,3,3.87,65,65,0,0,0,5.19,31.4,80.76,80.76,0,0,1-13.39-9.61c-.35-1.86-.65-3.67-.9-5.45s-.31-3.66-.4-5.42-.14-3.49-.07-5.22.24-3.48.42-5.14Z"/><path class="cls-5" d="M83.3,123.15c-1.55.56-3.18.85-4.76,1.3a67.17,67.17,0,0,1-22.65,22.38c2.73.25,5.48.33,8.23.46s5.49-.21,8.23-.35a93.29,93.29,0,0,0,7.47-8,82.11,82.11,0,0,0,5.81-8.63Z"/><path class="cls-5" d="M16.07,30.62c-.48.67-1,1.29-1.46,2l-1.27,2.11A65.69,65.69,0,0,0-15,49.36c.68-2.67,1.33-5.36,2.1-8,1-2.59,1.83-5.22,2.91-7.75A69.41,69.41,0,0,1,10,26.17Z"/><path class="cls-5" d="M16.07,101.27c-.48-.67-1-1.3-1.45-2l-1.28-2.11A65.49,65.49,0,0,1-15,82.52c.67,2.68,1.32,5.36,2.09,8,1,2.58,1.83,5.21,2.91,7.74a69.36,69.36,0,0,0,20,7.44Z"/><path class="cls-5" d="M83.29,8.72c-1.55-.55-3.18-.84-4.75-1.29A67.12,67.12,0,0,0,55.88-14.95c2.74-.25,5.49-.33,8.24-.47,2.74,0,5.49.22,8.23.36a94.91,94.91,0,0,1,7.47,8,81,81,0,0,1,5.81,8.62Z"/><path class="cls-5" d="M16.07,30.62a42.3,42.3,0,0,1,3.05-3.88,64.88,64.88,0,0,1,5.19-31.4A80.76,80.76,0,0,0,10.92,5c-.35,1.86-.65,3.67-.9,5.45s-.31,3.66-.4,5.42S9.48,19.31,9.55,21s.24,3.48.42,5.14Z"/><path class="cls-5" d="M124.88,65.93,124.62,61a66,66,0,0,0,14.25-28.45,83,83,0,0,1,5.23,15.66,83.65,83.65,0,0,1-5.31,9.56,90.39,90.39,0,0,1-6.37,8.17Z"/><path class="cls-5" d="M83.29,8.72l4.63,1.7a66.23,66.23,0,0,1,31.43-4.68c-1-.92-2-1.86-3.08-2.75L113,.51c-1.12-.8-2.18-1.69-3.36-2.41L106.1-4a68.58,68.58,0,0,0-20.48,5.6Z"/><g class="cls-13"><path d="M83.3,123.15l4.63-1.69a66.11,66.11,0,0,0,31.43,4.67c-1,.92-2,1.87-3.08,2.75l-3.3,2.49c-1.12.8-2.18,1.68-3.35,2.41l-3.53,2.15a69.26,69.26,0,0,1-20.48-5.6Z"/><path d="M124.88,65.93l-.26,4.94a65.93,65.93,0,0,1,14.25,28.46,82.87,82.87,0,0,0,5.23-15.67,84.52,84.52,0,0,0-5.31-9.56,91.81,91.81,0,0,0-6.37-8.17Z"/><path d="M16.08,101.27a39.2,39.2,0,0,0,3,3.87,65,65,0,0,0,5.19,31.4,80.76,80.76,0,0,1-13.39-9.61c-.35-1.86-.65-3.67-.9-5.45s-.31-3.66-.4-5.42-.14-3.49-.07-5.22.24-3.48.42-5.14Z"/><path d="M83.3,123.15c-1.55.56-3.18.85-4.76,1.3a67.17,67.17,0,0,1-22.65,22.38c2.73.25,5.48.33,8.23.46s5.49-.21,8.23-.35a93.29,93.29,0,0,0,7.47-8,82.11,82.11,0,0,0,5.81-8.63Z"/><path d="M16.07,30.62c-.48.67-1,1.29-1.46,2l-1.27,2.11A65.69,65.69,0,0,0-15,49.36c.68-2.67,1.33-5.36,2.1-8,1-2.59,1.83-5.22,2.91-7.75A69.41,69.41,0,0,1,10,26.17Z"/><path d="M16.07,101.27c-.48-.67-1-1.3-1.45-2l-1.28-2.11A65.49,65.49,0,0,1-15,82.52c.67,2.68,1.32,5.36,2.09,8,1,2.58,1.83,5.21,2.91,7.74a69.36,69.36,0,0,0,20,7.44Z"/><path d="M83.29,8.72c-1.55-.55-3.18-.84-4.75-1.29A67.12,67.12,0,0,0,55.88-14.95c2.74-.25,5.49-.33,8.24-.47,2.74,0,5.49.22,8.23.36a94.91,94.91,0,0,1,7.47,8,81,81,0,0,1,5.81,8.62Z"/><path d="M16.07,30.62a42.3,42.3,0,0,1,3.05-3.88,64.88,64.88,0,0,1,5.19-31.4A80.76,80.76,0,0,0,10.92,5c-.35,1.86-.65,3.67-.9,5.45s-.31,3.66-.4,5.42S9.48,19.31,9.55,21s.24,3.48.42,5.14Z"/><path d="M124.88,65.93,124.62,61a66,66,0,0,0,14.25-28.45,83,83,0,0,1,5.23,15.66,83.65,83.65,0,0,1-5.31,9.56,90.39,90.39,0,0,1-6.37,8.17Z"/><path d="M83.29,8.72l4.63,1.7a66.23,66.23,0,0,1,31.43-4.68c-1-.92-2-1.86-3.08-2.75L113,.51c-1.12-.8-2.18-1.69-3.36-2.41L106.1-4a68.58,68.58,0,0,0-20.48,5.6Z"/></g><path class="cls-5" d="M146.08,65.94l-.4,8.22c-1.93-2.94-3.91-5.7-5.91-8.22,2-2.54,4-5.28,5.91-8.22Z"/><path class="cls-5" d="M116.68,96.18a52.67,52.67,0,0,1,1.77,8.81,49.88,49.88,0,0,1-9,1,38.13,38.13,0,0,0,3.84-4.73A49,49,0,0,0,116.68,96.18Z"/><path class="cls-5" d="M4,21.85a64.84,64.84,0,0,0-9.61,3.2,63.32,63.32,0,0,1,4.5-6.9A65.35,65.35,0,0,1,4.1,11.74,65.7,65.7,0,0,0,4,21.85Z"/><path class="cls-5" d="M46.12,123.17c1.91.64,3.91,1,5.86,1.58a67.75,67.75,0,0,1-7.82,4.41A63.15,63.15,0,0,1,40.42,121C42.25,121.85,44.21,122.42,46.12,123.17Z"/><path class="cls-5" d="M44.16,2.7A72.57,72.57,0,0,1,52,7.13c-2,.54-4,.94-5.89,1.57s-3.87,1.32-5.7,2.2A69.12,69.12,0,0,1,44.16,2.7Z"/><path class="cls-5" d="M87.9,137.31a80.82,80.82,0,0,0,9.66,3.06c-2.5,1.15-5.14,2-7.7,2.94s-5.33,1.46-8,2.17A92,92,0,0,0,87.9,137.31Z"/><path class="cls-5" d="M4.83,59.84l-.31,6.1L4.83,72a89.24,89.24,0,0,1-6.62-6.1A89.24,89.24,0,0,1,4.83,59.84Z"/><path class="cls-5" d="M109.5,25.88a51.77,51.77,0,0,1,9,1,53.31,53.31,0,0,1-1.77,8.83,43.12,43.12,0,0,0-3.34-5.11A36.4,36.4,0,0,0,109.5,25.88Z"/><path class="cls-5" d="M4.1,120.16a61.3,61.3,0,0,1-5.16-6.41,67.62,67.62,0,0,1-4.52-6.9A67.14,67.14,0,0,0,4,110,66,66,0,0,0,4.1,120.16Z"/><path class="cls-14" d="M119.32,65.94c.26,21.66-13.6,42.43-33.66,50.6-36.07,15.11-76-11.49-76.07-50.6s40-65.72,76.07-50.6c20.06,8.17,33.92,28.94,33.66,50.6Zm0,0c.18-21.6-13.67-42.36-33.78-50.31C50,1,10.48,27.47,10.58,65.94c-.11,38.47,39.4,65,75,50.31,20.1-8,34-28.71,33.78-50.31Z"/></g><path class="cls-11" d="M56.91-3.46c14.58-5.74,23.6,0,30.57,1.12s10.29-2.94,18.85.78,16.45,19.62,16.38,25.88c-.13,13.59-14.56,25.85-18.16,32s-17,14.71-29,13S53.08,63.71,45.8,56.47c-9.38-9.33-5.15-20.06-6.17-27.75S33,5.93,56.91-3.46Z"/><path class="cls-15" d="M57-3.35c14.53-5.72,23.52,0,30.47,1.12s10.25-2.93,18.78.77,16.39,19.55,16.33,25.8c-.14,13.54-14.51,25.76-18.11,31.91s-17,14.66-28.9,12.94-22.38-5.6-29.64-12.82c-9.35-9.3-5.13-20-6.15-27.65S33.18,6,57-3.35Z"/><path class="cls-11" d="M106.54,14.38c8.12,9.26,5.33,20.69-1.39,26.27-7.52,6.23-19.56,6.93-26.57-2.1C72,30,72.49,18.82,81.26,12.22S100,6.89,106.54,14.38Z"/><path class="cls-16" d="M105.15,40.65c-7.52,6.23-19.56,6.93-26.57-2.1l-.12-.16c6.47,7,16.72,6.17,23.23.78,6.13-5.07,8.66-15.48,1.28-23.9-6-6.82-15-8-23-2l-.08.06c.43-.39.9-.77,1.39-1.14,8.83-6.66,18.72-5.33,25.28,2.16C114.66,23.64,111.87,35.07,105.15,40.65Z"/><path class="cls-17" d="M84.08,33.24c3.68-.9,6.15-18.67,1-19.25s-8.42,7.66-8.6,11.94S80.4,34.14,84.08,33.24Z"/><path class="cls-2" d="M42.89,26.53A17,17,0,0,1,41.56,15.1,25.27,25.27,0,0,1,44.4,9.84c1-1.64,2-3.28,3.14-4.94C51.09.08,57.11-2.5,63-2.77a19.1,19.1,0,0,1,5.82.48l0,.4C63.07.87,57.06,2.45,51.39,5.24c-8.26,3.63-5.9,8.42-7,15.69a25.24,25.24,0,0,1-1.07,5.58l-.4,0Z"/><path class="cls-16" d="M73.46,69C62.37,67.13,52.65,63.29,45.8,56.47c-9.38-9.33-5.15-20.06-6.17-27.75-.21-1.6-.53-2.89-.83-5a18.24,18.24,0,0,1,2.73,1.11c6,2.94,6.32,4.37,10,6.53s13.85,2.45,18.5,8.48C73.07,43.75,74.59,57.36,73.46,69Z"/><path class="cls-11" d="M-9.94,80.68C-10.92,65-2.72,58.21.53,51.93S.9,41.24,7.07,34.24s23.86-10,29.67-7.63,7.12,4.6,10.74,6.37,10.87,2.44,15.64,7.78S73.93,71,68.61,81.87s-24.29,22.62-27.78,24c-12.29,4.9-16.47,1-24.1-.43S-8.35,106.29-9.94,80.68Z"/><path class="cls-15" d="M-9.8,80.63C-10.77,65.05-2.61,58.24.63,52S1,41.34,7.15,34.36s23.77-9.94,29.56-7.6,7.1,4.59,10.7,6.34S58.24,35.54,63,40.85s10.77,30.16,5.47,41-24.2,22.54-27.68,23.92c-12.24,4.89-16.41,1-24-.43S-8.21,106.15-9.8,80.63Z"/><path class="cls-11" d="M41.83,42.79c8.76,8.64,6.81,20.25.5,26.29-7,6.76-19,8.34-26.64-.17-7.24-8-7.51-19.23.76-26.45S34.73,35.79,41.83,42.79Z"/><path class="cls-16" d="M42.33,69.08c-7,6.76-19,8.34-26.64-.17l-.14-.15c7,6.54,17.13,4.95,23.23-.9,5.74-5.5,7.51-16.06-.46-23.93-6.46-6.37-15.51-6.92-23.1-.29l-.07.06a17.05,17.05,0,0,1,1.3-1.24c8.33-7.28,18.28-6.67,25.37.33C50.59,51.43,48.63,63,42.33,69.08Z"/><path class="cls-17" d="M20.78,63.22c3.61-1.17,4.79-19.06-.42-19.27s-7.85,8.26-7.71,12.53S17.18,64.39,20.78,63.22Z"/><path class="cls-2" d="M-4,91.6A17.67,17.67,0,0,1-7.43,80.07C-7,77.18-6,74.45-5.67,71.55l.43-3.44a22.66,22.66,0,0,1,.6-3.43c1.71-4.32,4.28-8,6.62-11.86,2.24-3.7,4.39-7.3,5.14-11.74l.4,0C9.59,47.89,5.81,55.1,2.09,60.65a40.87,40.87,0,0,0-4.21,6.73c-1.35,2.4-2.79,4.87-2.8,7.71.13,3.26,1.27,6.37,1.26,9.66a42,42,0,0,1,0,6.74L-4,91.6Z"/><path class="cls-11" d="M126.44,31.21c.79-.46,17.86,17.1,18.49,18.09s-4,3.94-5.93,6.7-8,11.17-11.67,14.22c-6.69,5.6-15.67,7.88-20.86,12.25S96.41,97.29,89.08,103.76s-16.88,9-21.61,12-9.94,10.69-10.7,10.64-19-18-18.73-19,7.33-9.17,13.69-13.12,15.56-6.1,19.84-9.7S80.88,69.74,86.34,65s19.23-10.41,24.34-13.87S120.45,34.7,126.44,31.21Z"/><path class="cls-18" d="M126.44,31.21c.79-.46,17.86,17.1,18.49,18.09s-4,3.94-5.93,6.7-8,11.17-11.67,14.22c-6.69,5.6-15.67,7.88-20.86,12.25S96.41,97.29,89.08,103.76s-16.88,9-21.61,12-9.94,10.69-10.7,10.64-19-18-18.73-19,7.33-9.17,13.69-13.12,15.56-6.1,19.84-9.7S80.88,69.74,86.34,65s19.23-10.41,24.34-13.87S120.45,34.7,126.44,31.21Z"/><path class="cls-19" d="M131.81,35.93c-1.68,1.79-3.45,3.35-5,5.1s-2.86,3.58-4.3,5.44a48.92,48.92,0,0,1-10.17,10.45c-7.54,6-16.56,9.29-23.81,15.73l-.19-.16c5-8.6,14.75-12.46,23.16-16.89,3.19-1.53,6.18-3.69,7.76-6.94.57-1,1-2.12,1.57-3.24a18.92,18.92,0,0,1,4.54-5.85,22.93,22.93,0,0,1,6.26-3.85l.14.21Z"/><path class="cls-19" d="M117.07,67.81c-2.94,2.23-6.28,3.83-9.26,5.73A37.41,37.41,0,0,0,96.73,84.66c-2.07,3-3.73,6.27-5.93,9.22s-5.54,5.18-8.89,6.67c-9.83,4.3-19.73,8.85-27.31,16.62-1.26,1.28-2.47,2.62-3.67,4l-.21-.14A40.69,40.69,0,0,1,66,105.24c4.58-2.81,10.1-4.78,15.09-6.68,3.35-1.25,6.64-2.45,9-5.28,6.67-8,6-16,16.74-21.48a103.72,103.72,0,0,1,10.13-4.21l.13.22Z"/><path class="cls-19" d="M56.77,126.36a21.74,21.74,0,0,1-3.22-2.78c7-10.94,16-13.41,18.75-14.66,5.29-2.4,9.5-3.74,13.8-6.24a23.69,23.69,0,0,0,5.52-5.14c3.35-4.05,5.75-8.66,8.57-13.15A22.21,22.21,0,0,1,105.87,78c3.88-2.88,9.44-5.74,13.58-8.13,8.94-4.74,9.13-12.59,16.65-19.31a51.81,51.81,0,0,1,6.29-4.08c.47.51,2.47,2.66,2.54,2.78.63,1-4,3.94-5.93,6.7s-8,11.17-11.68,14.22c-6.68,5.6-15.66,7.88-20.85,12.25S96.41,97.29,89.08,103.76s-16.88,9-21.61,12S57.54,126.41,56.77,126.36Z"/><path class="cls-19" d="M40.54,110.51c-1.57-1.73-2.57-3-2.5-3.2.29-1,7.33-9.17,13.69-13.12s15.56-6.11,19.84-9.7S80.88,69.75,86.34,65s19.24-10.42,24.34-13.88,9.77-16.41,15.76-19.89c.14-.08.81.41,1.81,1.29a59.68,59.68,0,0,0-10.41,12.06c-2.5,3.84-3.9,6.94-9.13,9.9S92,64.17,87.24,69.89,76.44,84.66,72.51,87.17,56.83,94.69,51.17,99.58A119.78,119.78,0,0,0,40.54,110.51Z"/><path class="cls-19" d="M64.87,105.77a22.8,22.8,0,0,1,6.66-7c1.38-.86,2.92-1.49,4.35-2.24A64.24,64.24,0,0,0,82,92.76a27.53,27.53,0,0,0,5.32-4.08c2.15-2.08,4.18-4.51,6.54-6.76l.22.14c-1.52,4.67-4.33,9.33-8.91,11.51-2.82,1.58-6.2,1.87-8.86,3.71a25.57,25.57,0,0,0-3.46,3.21,39.32,39.32,0,0,1-5.67,4.27A20.69,20.69,0,0,1,65.05,106l-.18-.18Z"/><path class="cls-19" d="M134,38a28.14,28.14,0,0,1-5.18,5.9,14.1,14.1,0,0,0-2.94,2.61A14.16,14.16,0,0,0,124,50c-1.4,3.86-4.21,7.48-8.11,9A15.44,15.44,0,0,1,112,60.22l-.11-.23c3-2.74,5.79-4.84,8.35-7.81,1.54-2,3.53-4,5-6.13.79-1.08,1.32-2.38,2.08-3.52a11.51,11.51,0,0,1,2.87-2.87,11.72,11.72,0,0,1,3.65-1.88L134,38Z"/><path class="cls-19" d="M94.33,72.21c-2.77,3-5.09,6.45-7.84,9.53a42.16,42.16,0,0,1-9.62,8C72.67,92.1,67,96,63,98.76c-6.65,4.8-13.2,9.51-19.2,15.2l-.21-.15a34.62,34.62,0,0,1,5-6.72c6.61-7.29,15.37-12,24.23-16,3.89-1.63,6.59-4.67,9.21-7.87a95.07,95.07,0,0,1,8.64-8.86A17.05,17.05,0,0,1,94.19,72l.14.21Z"/><path class="cls-19" d="M138.58,42.6a79.42,79.42,0,0,1-8.29,8.32,34.93,34.93,0,0,0-4.35,3.91c-2,2.22-3.29,5-5.31,7.27-4.9,5-11.68,7.24-16.94,11.8l-.21-.15a15.77,15.77,0,0,1,3.7-4.84c3.56-3.48,8.15-5.4,12-8.32a28.45,28.45,0,0,0,6.07-6.27c1.16-1.59,2.17-3.37,3.48-4.91a29.6,29.6,0,0,1,9.64-7l.16.21Z"/><path class="cls-18" d="M56.75,126.36c-1-.27-19-18-18.71-19s7.32-9.17,13.69-13.12c5.44-3.37,12.94-5.44,17.68-8.22C76.22,84.59,84.13,84,88,82.1c5.46-2.66,11.66-10.84,18.39-15.41s18.27-6.36,19.43-6.2c.43.06,1.89,3.41,3.57,7.69a24,24,0,0,1-2.11,2c-6.67,5.61-15.66,7.89-20.85,12.26S96.41,97.29,89.08,103.76s-16.88,9-21.61,11.95c-3.82,2.44-8,8-9.83,9.93Z"/><path class="cls-11" d="M18.44,111.48C17.68,112,26.07,135,26.69,136s5.3-1.92,8.61-2.43,13.56-2.38,17.88-4.33c8-3.58,13.91-10.67,20.11-13.45S91,113.18,100,109.39s15.41-11.3,20.16-14.25,13.95-4.3,14.25-5-8-25-9-25.15S114,67.58,107.65,71.6,95.38,83,90.28,85.24s-17.32,2-24,4.81-17.75,12.8-23.09,15.89S24.19,107.6,18.44,111.48Z"/><path class="cls-18" d="M18.44,111.48C17.68,112,26.07,135,26.69,136s5.3-1.92,8.61-2.43,13.56-2.38,17.88-4.33c8-3.58,13.91-10.67,20.11-13.45S91,113.18,100,109.39s15.41-11.3,20.16-14.25,13.95-4.3,14.25-5-8-25-9-25.15S114,67.58,107.65,71.6,95.38,83,90.28,85.24s-17.32,2-24,4.81-17.75,12.8-23.09,15.89S24.19,107.6,18.44,111.48Z"/><path class="cls-19" d="M20.36,118.37c2.34-.73,4.52-1.64,6.75-2.25s4.47-1,6.76-1.51A48.76,48.76,0,0,0,47.7,110c8.66-4.2,15.57-10.87,24.52-14.59l-.06-.25C62.23,96,54.53,103,46.89,108.68c-2.77,2.2-6,3.95-9.63,4-1.2.06-2.35,0-3.59,0a19.18,19.18,0,0,0-7.25,1.55,23,23,0,0,0-6.19,4l.13.22Z"/><path class="cls-19" d="M55.48,119c3.28-1.67,6.18-4,9.18-5.85A37.54,37.54,0,0,1,79.49,108c3.61-.56,7.27-.64,10.88-1.33s7.08-2.74,9.88-5.11c8.14-7,16.55-13.91,26.84-17.36,1.7-.59,3.44-1.08,5.2-1.57l0-.25a40.7,40.7,0,0,0-20.85,6.88c-4.53,2.9-8.7,7-12.58,10.67-2.58,2.48-5.1,4.92-8.66,5.82-10.13,2.52-17-1.58-26.63,5.73a106.27,106.27,0,0,0-8.2,7.29l.15.21Z"/><path class="cls-19" d="M134.42,90.13a21.33,21.33,0,0,0-1.1-4.11c-12.89,1.52-19,8.55-21.36,10.51-4.46,3.72-7.49,6.93-11.62,9.71a23.71,23.71,0,0,1-7,2.73c-5.11,1.26-10.31,1.41-15.57,2a22.21,22.21,0,0,0-8.2,2.36c-4.27,2.24-9.27,6-13.22,8.69-8.16,6-15.31,2.74-24.63,6.6a50.84,50.84,0,0,0-6.41,3.88c.25.65,1.33,3.38,1.4,3.5.61,1,5.3-1.91,8.61-2.43s13.56-2.38,17.88-4.33c8-3.58,13.91-10.67,20.11-13.45S91,113.18,100,109.39s15.41-11.3,20.16-14.25S134.13,90.84,134.42,90.13Z"/><path class="cls-19" d="M127.21,68.62c-.87-2.17-1.54-3.6-1.79-3.65-1.06-.18-11.45,2.61-17.77,6.63S95.38,83,90.28,85.24s-17.32,2-24,4.82S48.54,102.85,43.2,105.94s-19,1.66-24.76,5.54c-.13.09,0,.91.38,2.19a60.38,60.38,0,0,1,15.39-4.13c4.54-.57,7.94-.49,12.88-3.92s16-10.8,23.23-12.61,18-3.3,22-5.76,13.58-10.84,20.46-13.81A117.19,117.19,0,0,1,127.21,68.62Z"/><path class="cls-19" d="M112.35,88.47a22.63,22.63,0,0,0-9.15,3c-1.38.86-2.61,2-3.91,2.94a63,63,0,0,1-6.09,3.84,27.16,27.16,0,0,1-6,3c-2.81,1-5.88,1.8-8.93,3l0,.25c4.86.67,10.29.17,14.24-3,2.65-1.85,4.38-4.77,7.2-6.36a25.68,25.68,0,0,1,4.39-1.73,38,38,0,0,0,6.31-3.24,19.94,19.94,0,0,0,2-1.39l-.1-.24Z"/><path class="cls-19" d="M21.26,121.23a28.15,28.15,0,0,0,7.57-2.1,14.38,14.38,0,0,1,3.63-1.51,14,14,0,0,1,3.94-.13c4.08.41,8.56-.54,11.68-3.37a15.12,15.12,0,0,0,2.77-3l-.16-.2C46.9,112.43,43.81,114,40,115c-2.5.51-5.14,1.43-7.7,1.85-1.31.23-2.71.15-4.07.33a11.76,11.76,0,0,0-3.82,1.34A11.73,11.73,0,0,0,21.14,121l.12.22Z"/><path class="cls-19" d="M69.32,100.4c4-1.18,8-1.78,12-2.92a42.57,42.57,0,0,0,11.42-5.16c3.92-2.78,9.86-6.17,14.11-8.55,7.21-3.9,14.3-7.74,22-10.68l0-.25a34.43,34.43,0,0,0-8.23,1.58C111.17,77.2,103.12,83,95.69,89.3c-3.15,2.78-7.07,3.9-11.09,4.86a93.35,93.35,0,0,0-11.73,3.93,16.48,16.48,0,0,0-3.67,2.09l.12.22Z"/><path class="cls-19" d="M23.42,127.36a78.13,78.13,0,0,0,11.09-3.84,34.6,34.6,0,0,1,5.42-2.21c2.86-.82,6-.79,8.85-1.63,6.67-2.21,11.61-7.36,18-10.12l0-.25a15.65,15.65,0,0,0-6,1.23c-4.68,1.69-8.41,5-12.73,7.23a29,29,0,0,1-8.29,2.74c-1.94.35-4,.49-5.94,1a29.32,29.32,0,0,0-10.51,5.63l.12.22Z"/><g class="cls-20"><path class="cls-2" d="M247.44,84.94a65,65,0,1,0,65-65"/></g><path class="cls-11" d="M250.56,76.28c-1.25,15,3,51.66,39.63,62.15,39.36,11.27,73.91-25.33,69.56-61.24-4.54-37.52-34-52.78-58-51.1C271.17,28.22,252.57,52.34,250.56,76.28Z"/><path class="cls-21" d="M250.56,76.28c-1.25,15,3,51.66,39.63,62.15,39.36,11.27,73.91-25.33,69.56-61.24-4.54-37.52-34-52.78-58-51.1C271.17,28.22,252.57,52.34,250.56,76.28Z"/><path class="cls-11" d="M290.2,138.43c-15-4.29-24.54-13-30.54-22.73,6,8.63,15.18,16.11,28.75,20C327.75,147,362.31,110.37,358,74.46a63.54,63.54,0,0,0-8.53-25.6c5.19,7.44,8.92,16.85,10.31,28.34C364.1,113.1,329.55,149.7,290.2,138.43Z"/><path class="cls-12" d="M350.59,50.59a53.9,53.9,0,0,0-47.16-22c-30.57,2.12-49.18,26.25-51.19,50.18-.74,9,.49,25.64,9.37,39.85-10.43-14.72-11.84-32.87-11.05-42.38,2-23.92,20.62-48,51.18-50.18A53.78,53.78,0,0,1,350.59,50.59Z"/><path class="cls-11" d="M341.58,47.67a1.31,1.31,0,0,1-1.66.85,1.32,1.32,0,1,1,.82-2.51A1.31,1.31,0,0,1,341.58,47.67Z"/><path class="cls-11" d="M323.3,128a1.32,1.32,0,0,1-1.66.85,1.34,1.34,0,0,1-.85-1.67,1.33,1.33,0,0,1,1.67-.84A1.31,1.31,0,0,1,323.3,128Z"/><path class="cls-11" d="M319.64,126.48a.82.82,0,1,1-.52-1A.81.81,0,0,1,319.64,126.48Z"/><path class="cls-11" d="M276.51,52.71a.82.82,0,0,1-1,.52.82.82,0,1,1,1-.52Z"/><path class="cls-11" d="M341,51.08a.93.93,0,0,1-1.17.6.94.94,0,1,1,1.17-.6Z"/><path class="cls-11" d="M262.39,96.21a.94.94,0,1,1-.6-1.17A.93.93,0,0,1,262.39,96.21Z"/><path class="cls-11" d="M331.94,58.94a.93.93,0,0,1-1.77-.58.94.94,0,0,1,1.18-.6A.92.92,0,0,1,331.94,58.94Z"/><path class="cls-11" d="M320.09,129.35a.93.93,0,1,1-.59-1.17A.92.92,0,0,1,320.09,129.35Z"/><path class="cls-11" d="M264.52,82.18c-1.26,15,3,51.67,39.63,62.16C343.5,155.61,378.06,119,373.71,83.1c-4.54-37.53-34-52.78-58-51.11C285.13,34.13,266.52,58.25,264.52,82.18Z"/><path class="cls-21" d="M264.52,82.18c-1.26,15,3,51.67,39.63,62.16C343.5,155.61,378.06,119,373.71,83.1c-4.54-37.53-34-52.78-58-51.11C285.13,34.13,266.52,58.25,264.52,82.18Z"/><path class="cls-11" d="M304.15,144.33c-15-4.28-24.54-13-30.53-22.73,6.05,8.64,15.17,16.11,28.74,20,39.35,11.27,73.91-25.33,69.56-61.24a63.34,63.34,0,0,0-8.53-25.6c5.19,7.45,8.93,16.86,10.32,28.34C378.05,119,343.51,155.61,304.15,144.33Z"/><path class="cls-12" d="M364.55,56.5a53.94,53.94,0,0,0-47.17-22c-30.56,2.13-49.17,26.25-51.18,50.18-.74,9,.48,25.64,9.37,39.85-10.43-14.71-11.84-32.87-11.05-42.38,2-23.92,20.61-48,51.18-50.18A53.82,53.82,0,0,1,364.55,56.5Z"/><path class="cls-11" d="M355.54,53.58a1.32,1.32,0,1,1-.85-1.67A1.32,1.32,0,0,1,355.54,53.58Z"/><path class="cls-11" d="M337.26,133.94a1.32,1.32,0,1,1-.84-1.67A1.32,1.32,0,0,1,337.26,133.94Z"/><path class="cls-11" d="M333.6,132.38a.82.82,0,1,1-.52-1A.81.81,0,0,1,333.6,132.38Z"/><path class="cls-11" d="M290.46,58.61a.82.82,0,0,1-1,.53.83.83,0,0,1-.52-1,.82.82,0,1,1,1.55.51Z"/><path class="cls-11" d="M355,57a.94.94,0,1,1-.6-1.18A.93.93,0,0,1,355,57Z"/><path class="cls-11" d="M276.34,102.12a.93.93,0,1,1-1.77-.58.93.93,0,0,1,1.17-.6A.94.94,0,0,1,276.34,102.12Z"/><path class="cls-11" d="M345.9,64.84a.94.94,0,1,1-.6-1.18A.94.94,0,0,1,345.9,64.84Z"/><path class="cls-11" d="M334.05,135.26a.94.94,0,1,1-.6-1.18A.94.94,0,0,1,334.05,135.26Z"/><path class="cls-11" d="M262.79,91c3.48,14.66,18.94,48.17,57,46.74,40.91-1.53,62.36-47.06,47.06-79.84-16-34.24-48.76-39.57-71-30.52C267.43,38.9,257.25,67.61,262.79,91Z"/><path class="cls-21" d="M262.79,91c3.48,14.66,18.94,48.17,57,46.74,40.91-1.53,62.36-47.06,47.06-79.84-16-34.24-48.76-39.57-71-30.52C267.43,38.9,257.25,67.61,262.79,91Z"/><path class="cls-11" d="M319.79,137.72c-15.56.59-27.35-4.67-36.09-12.1,8.44,6.32,19.44,10.59,33.54,10.06,40.9-1.53,62.36-47.06,47.06-79.84a63.51,63.51,0,0,0-16.07-21.68c7.25,5.47,13.72,13.25,18.62,23.73C382.15,90.66,360.7,136.19,319.79,137.72Z"/><path class="cls-12" d="M349.87,35.46a53.93,53.93,0,0,0-51.67-6.22c-28.38,11.53-38.56,40.25-33,63.62,2.09,8.75,8.44,24.21,21.3,35C272,117.07,265,100.26,262.79,91c-5.54-23.36,4.64-52.07,33-63.62A53.82,53.82,0,0,1,349.87,35.46Z"/><path class="cls-11" d="M340.4,35.48a1.32,1.32,0,1,1-1.32-1.32A1.32,1.32,0,0,1,340.4,35.48Z"/><path class="cls-11" d="M348,117.54a1.32,1.32,0,1,1-1.32-1.32A1.32,1.32,0,0,1,348,117.54Z"/><path class="cls-11" d="M344.06,117.2a.82.82,0,0,1-.82.82.82.82,0,0,1,0-1.64A.82.82,0,0,1,344.06,117.2Z"/><path class="cls-11" d="M280.11,60.51a.82.82,0,1,1-.81-.82A.82.82,0,0,1,280.11,60.51Z"/><path class="cls-11" d="M340.94,38.89A.93.93,0,1,1,340,38,.92.92,0,0,1,340.94,38.89Z"/><path class="cls-11" d="M280.23,106.25a.94.94,0,1,1-.93-.93A.94.94,0,0,1,280.23,106.25Z"/><path class="cls-11" d="M334.74,49.19a.94.94,0,1,1-.93-.94A.93.93,0,0,1,334.74,49.19Z"/><path class="cls-11" d="M345.38,119.8a.94.94,0,1,1-.93-.94A.93.93,0,0,1,345.38,119.8Z"/><path class="cls-22" d="M283.88,44c6.16-9,14.89,4.54,23.64,3.75,5.29-.49,5.5-10.82,14-11.13s5.66,12.51,10.66,17,20.08-5.27,27.44,9.43,1.25,21.11,0,25,3.12,10.17.31,16.27-16.42,4.38-26.28,8.13-12.35,18.93-23.77,17.21-13.14-18.3-18.46-23.46S272.77,100.47,270.27,90s12.82-19.39,13.92-26.12S279.6,50.26,283.88,44Z"/><path class="cls-11" d="M298.92,79.59s-2.16-8.1,4.65-10.38C303.57,69.21,293.69,69.41,298.92,79.59Z"/><path class="cls-11" d="M315.77,108.32s-8.28,1.35-9.87-5.65C305.9,102.67,305.12,112.52,315.77,108.32Z"/><path class="cls-11" d="M338.45,89.14s.54,8.37-6.59,9.27C331.86,98.41,341.59,100.15,338.45,89.14Z"/><path class="cls-11" d="M324.44,59.31s8-2.56,10.6,4.13C335,63.44,334.35,53.58,324.44,59.31Z"/><g class="cls-23"><path class="cls-19" d="M295.88,69.73s1.85-8.18,8.94-7C304.82,62.71,296,58.29,295.88,69.73Z"/><path class="cls-19" d="M298.64,105.06s-7.28-4.16-4.11-10.6C294.53,94.46,287.73,101.63,298.64,105.06Z"/><path class="cls-19" d="M338.06,102.87s-3.94,7.4-10.47,4.42C327.59,107.29,335,113.88,338.06,102.87Z"/><path class="cls-19" d="M341.85,70.23s7,4.61,3.42,10.84C345.27,81.07,352.52,74.36,341.85,70.23Z"/><path class="cls-19" d="M318.74,48s5.64-2.64,8.2,2C326.94,50.07,325.5,42.87,318.74,48Z"/><path class="cls-19" d="M317.1,122.41s-6.08,1.37-7.57-3.75C309.53,118.66,309.39,126,317.1,122.41Z"/><path class="cls-19" d="M279.55,88.08s-.57-6.21,4.7-7C284.25,81.06,277,80,279.55,88.08Z"/></g><path class="cls-11" d="M348.05,79.11s5.16,6.61-.22,11.37C347.83,90.48,356.84,86.43,348.05,79.11Z"/><path class="cls-11" d="M310.82,72.92c-2.8,2.07-3.9,6.13-2.64,13.37s5,10.32,8.78,10,15.31-1.26,16.58-6.41c1.67-6.77,1.25-18.07-3.2-19.23C324.48,69.15,314.59,70.13,310.82,72.92Z"/><path class="cls-21" d="M310.82,72.92c-2.8,2.07-3.9,6.13-2.64,13.37s5,10.32,8.78,10,15.31-1.26,16.58-6.41c1.67-6.77,1.25-18.07-3.2-19.23C324.48,69.15,314.59,70.13,310.82,72.92Z"/><path class="cls-21" d="M334.43,82.88c-.12-4.34-1.19-8.3-3.57-8.93-5.11-1.33-13.75-.49-17,2-2.43,1.81-3.4,5.34-2.3,11.68,1,5.48,3.53,8.22,6.35,8.68l-.91.07c-3.76.28-7.52-2.78-8.78-10S308,75,310.83,72.91c3.76-2.79,13.65-3.76,19.51-2.23C333.43,71.5,334.58,77.21,334.43,82.88Z"/><circle class="cls-4" cx="189.9" cy="139.52" r="51.84" transform="translate(32.63 315) rotate(-84.44)"/><circle class="cls-24" cx="189.9" cy="139.52" r="39.49" transform="translate(-23.8 238.82) rotate(-61.23)"/><path class="cls-11" d="M222.71,109.43c2.48,8.34-1.42,12-2.46,13.1a31.09,31.09,0,0,1-3.66,2.91,29.82,29.82,0,0,1-3.81,2.7c-1.35.69-6,3.41-13.27-1.29s-8.85-12.39-6.61-16.32c1.86-3.25,5.08-3.81,8-6s4.35-5.12,8-6C213.29,97.47,220.22,101,222.71,109.43Z"/><path class="cls-16" d="M222.71,109.43c2.48,8.34-1.42,12-2.46,13.1a31.09,31.09,0,0,1-3.66,2.91,29.82,29.82,0,0,1-3.81,2.7c-1.35.69-6,3.41-13.27-1.29s-8.85-12.39-6.61-16.32c1.86-3.25,5.08-3.81,8-6s4.35-5.12,8-6C213.29,97.47,220.22,101,222.71,109.43Z"/><path class="cls-11" d="M221.81,109.77c2.31,7.8-1.34,11.24-2.3,12.27a30.36,30.36,0,0,1-3.43,2.71,28.26,28.26,0,0,1-3.57,2.54c-1.26.64-5.58,3.19-12.42-1.21s-8.29-11.61-6.19-15.28c1.74-3,4.76-3.57,7.48-5.62s4.08-4.8,7.49-5.62C213,98.57,219.47,101.91,221.81,109.77Z"/><path class="cls-12" d="M221.81,109.77c2.31,7.8-1.34,11.24-2.3,12.27a30.36,30.36,0,0,1-3.43,2.71,28.26,28.26,0,0,1-3.57,2.54c-1.26.64-5.58,3.19-12.42-1.21s-8.29-11.61-6.19-15.28c1.74-3,4.76-3.57,7.48-5.62s4.08-4.8,7.49-5.62C213,98.57,219.47,101.91,221.81,109.77Z"/><path class="cls-11" d="M203.62,106.45l12.46,16.6.43-1.16a.75.75,0,0,1,.26-.35l.74-.56a.77.77,0,0,0,.29-.8l-.12-.43c-.07-.3.75-.51,1-.69l.32-.24a.77.77,0,0,0,.27-.83l-.33-1.12a.76.76,0,0,1,.32-.86l.78-.5a.77.77,0,0,0,.26-1l-.68-1.16a.75.75,0,0,1,0-.78L220,112A.77.77,0,0,0,220,111l-.81-.87a.74.74,0,0,1-.2-.65l0-1.34a.78.78,0,0,0-.37-.79l-1.33-.57a.73.73,0,0,1-.63-.74l.05-.88a.78.78,0,0,0-.62-.86l-.73-.14a.75.75,0,0,1-.59-.53l-.22-.72a.74.74,0,0,0-.72-.54h-1a.79.79,0,0,1-.56-.25l-.68-.77a.78.78,0,0,0-1-.1l-.46.35a.77.77,0,0,1-.91,0h0a.77.77,0,0,0-1.09.18l-.28.4a.73.73,0,0,1-.65.33H207a.75.75,0,0,0-.78.65l0,.15a.78.78,0,0,1-.74.66h0a.77.77,0,0,0-.74.84l0,.19a.77.77,0,0,1-.24.62Z"/><path class="cls-11" d="M202,107.68l12.47,16.61-1.24.08a.77.77,0,0,0-.41.16l-.74.55a.76.76,0,0,1-.85,0l-.38-.23c-.27-.16-.7.58-.94.77l-.32.23a.77.77,0,0,1-.87,0l-1-.64a.77.77,0,0,0-.91.07l-.71.61a.76.76,0,0,1-1,0l-.93-1a.78.78,0,0,0-.76-.18l-.66.2a.77.77,0,0,1-.88-.34l-.61-1a.78.78,0,0,0-.57-.37l-1.29-.36a.73.73,0,0,1-.65-.57l-.18-1.44a.73.73,0,0,0-.54-.81l-.85-.2a.76.76,0,0,1-.65-.83l.07-.74a.79.79,0,0,0-.35-.72l-.63-.4a.77.77,0,0,1-.32-.85l.28-1a.73.73,0,0,0-.09-.61l-.54-.87a.77.77,0,0,1,.19-1l.46-.35a.75.75,0,0,0,.26-.87h0a.77.77,0,0,1,.47-1l.47-.15a.76.76,0,0,0,.5-.54l0-.11a.75.75,0,0,1,.84-.57l.16,0a.76.76,0,0,0,.83-.52l0,0a.76.76,0,0,1,1-.48l.17.07a.75.75,0,0,0,.67,0Z"/><g class="cls-25"><path d="M203.62,106.45l12.46,16.6.43-1.16a.75.75,0,0,1,.26-.35l.74-.56a.77.77,0,0,0,.29-.8l-.12-.43c-.07-.3.75-.51,1-.69l.32-.24a.77.77,0,0,0,.27-.83l-.33-1.12a.76.76,0,0,1,.32-.86l.78-.5a.77.77,0,0,0,.26-1l-.68-1.16a.75.75,0,0,1,0-.78L220,112A.77.77,0,0,0,220,111l-.81-.87a.74.74,0,0,1-.2-.65l0-1.34a.78.78,0,0,0-.37-.79l-1.33-.57a.73.73,0,0,1-.63-.74l.05-.88a.78.78,0,0,0-.62-.86l-.73-.14a.75.75,0,0,1-.59-.53l-.22-.72a.74.74,0,0,0-.72-.54h-1a.79.79,0,0,1-.56-.25l-.68-.77a.78.78,0,0,0-1-.1l-.46.35a.77.77,0,0,1-.91,0h0a.77.77,0,0,0-1.09.18l-.28.4a.73.73,0,0,1-.65.33H207a.75.75,0,0,0-.78.65l0,.15a.78.78,0,0,1-.74.66h0a.77.77,0,0,0-.74.84l0,.19a.77.77,0,0,1-.24.62Z"/><path d="M202,107.68l12.47,16.61-1.24.08a.77.77,0,0,0-.41.16l-.74.55a.76.76,0,0,1-.85,0l-.38-.23c-.27-.16-.7.58-.94.77l-.32.23a.77.77,0,0,1-.87,0l-1-.64a.77.77,0,0,0-.91.07l-.71.61a.76.76,0,0,1-1,0l-.93-1a.78.78,0,0,0-.76-.18l-.66.2a.77.77,0,0,1-.88-.34l-.61-1a.78.78,0,0,0-.57-.37l-1.29-.36a.73.73,0,0,1-.65-.57l-.18-1.44a.73.73,0,0,0-.54-.81l-.85-.2a.76.76,0,0,1-.65-.83l.07-.74a.79.79,0,0,0-.35-.72l-.63-.4a.77.77,0,0,1-.32-.85l.28-1a.73.73,0,0,0-.09-.61l-.54-.87a.77.77,0,0,1,.19-1l.46-.35a.75.75,0,0,0,.26-.87h0a.77.77,0,0,1,.47-1l.47-.15a.76.76,0,0,0,.5-.54l0-.11a.75.75,0,0,1,.84-.57l.16,0a.76.76,0,0,0,.83-.52l0,0a.76.76,0,0,1,1-.48l.17.07a.75.75,0,0,0,.67,0Z"/></g><path class="cls-11" d="M213.3,109.85a.77.77,0,0,0,.32.77l1.26.89a.78.78,0,0,1,.21,1l-1,1.57a.82.82,0,0,0,0,.76l.53,1.09a.78.78,0,0,1-.36,1l-.91.45a.76.76,0,0,0-.36.35l-.17.35a3,3,0,0,1-2.14,1.6l-.38.07a.8.8,0,0,0-.44.24l-.68.76a.79.79,0,0,1-1.11.05l-.9-.81a.8.8,0,0,0-.74-.18l-1.78.5a.78.78,0,0,1-.95-.5l-.5-1.46a.78.78,0,0,0-.64-.52l-1.22-.15a.79.79,0,0,1-.65-1l.37-1.09a.82.82,0,0,0-.16-.77l-.31-.34a.79.79,0,0,1,.14-1.16l.56-.39a.8.8,0,0,0,.27-1,.78.78,0,0,1,.26-.91.76.76,0,0,1,.37-.15l.89-.12a.78.78,0,0,0,.43-.2l1.19-1.08,1.37-.84a.84.84,0,0,0,.31-.36l.36-.82a.69.69,0,0,1,.25-.31.77.77,0,0,1,.94,0,.81.81,0,0,0,1,0l.53-.43a.79.79,0,0,1,1.15.19l.25.39a.79.79,0,0,0,.69.36l1.15,0a.78.78,0,0,1,.8.91Z"/><path class="cls-12" d="M213.3,109.85a.77.77,0,0,0,.32.77l1.26.89a.78.78,0,0,1,.21,1l-1,1.57a.82.82,0,0,0,0,.76l.53,1.09a.78.78,0,0,1-.36,1l-.91.45a.76.76,0,0,0-.36.35l-.17.35a3,3,0,0,1-2.14,1.6l-.38.07a.8.8,0,0,0-.44.24l-.68.76a.79.79,0,0,1-1.11.05l-.9-.81a.8.8,0,0,0-.74-.18l-1.78.5a.78.78,0,0,1-.95-.5l-.5-1.46a.78.78,0,0,0-.64-.52l-1.22-.15a.79.79,0,0,1-.65-1l.37-1.09a.82.82,0,0,0-.16-.77l-.31-.34a.79.79,0,0,1,.14-1.16l.56-.39a.8.8,0,0,0,.27-1,.78.78,0,0,1,.26-.91.76.76,0,0,1,.37-.15l.89-.12a.78.78,0,0,0,.43-.2l1.19-1.08,1.37-.84a.84.84,0,0,0,.31-.36l.36-.82a.69.69,0,0,1,.25-.31.77.77,0,0,1,.94,0,.81.81,0,0,0,1,0l.53-.43a.79.79,0,0,1,1.15.19l.25.39a.79.79,0,0,0,.69.36l1.15,0a.78.78,0,0,1,.8.91Z"/><path class="cls-12" d="M212.78,110.07a.68.68,0,0,0,.27.68l1.12.76a.68.68,0,0,1,.18.94l-.91,1.42a.68.68,0,0,0-.06.67l.46,1a.71.71,0,0,1-.35.94l-.83.41a.81.81,0,0,0-.33.33l-.17.31a2.84,2.84,0,0,1-2,1.47l-.34.07a.73.73,0,0,0-.41.23l-.63.69a.72.72,0,0,1-1,.07l-.8-.71a.68.68,0,0,0-.66-.14l-1.62.48a.67.67,0,0,1-.85-.43l-.42-1.29a.66.66,0,0,0-.57-.45l-1.1-.11a.67.67,0,0,1-.56-.9l.35-1a.69.69,0,0,0-.13-.68l-.27-.3a.71.71,0,0,1,.15-1l.52-.36a.72.72,0,0,0,.26-.85.73.73,0,0,1,.25-.83.79.79,0,0,1,.34-.14l.8-.12a.75.75,0,0,0,.4-.19l1.09-1,1.26-.77a.72.72,0,0,0,.29-.33l.34-.74a.79.79,0,0,1,.23-.28.71.71,0,0,1,.86,0,.74.74,0,0,0,.9,0l.49-.39a.69.69,0,0,1,1,.15l.22.34a.66.66,0,0,0,.61.31l1-.06a.66.66,0,0,1,.71.79Z"/><path class="cls-11" d="M200.8,109.7c.47.62.56,1.29.41,1.44s-.83,0-1.41-.5c-.38-.33-.54-.82-.16-1.17S200.49,109.3,200.8,109.7Z"/><path class="cls-11" d="M198.36,113.34c.76.15,1.28.59,1.27.8s-.61.56-1.39.57c-.5,0-1-.25-.9-.77S197.86,113.25,198.36,113.34Z"/><path class="cls-11" d="M199.18,118.18c.66-.41,1.34-.44,1.47-.28s-.07.82-.63,1.36c-.37.35-.87.46-1.18,0S198.75,118.45,199.18,118.18Z"/><path class="cls-11" d="M203.2,122.45c.23-.74.72-1.21.93-1.17s.49.66.42,1.44c-.05.5-.35.91-.86.81S203.06,122.94,203.2,122.45Z"/><path class="cls-11" d="M208.56,123.32c-.12-.76.11-1.4.31-1.46s.73.38,1,1.11c.18.47.09,1-.41,1.11S208.64,123.82,208.56,123.32Z"/><path class="cls-11" d="M206.12,105.71c.45.62,1.08.9,1.26.8s.24-.79-.09-1.5c-.21-.45-.63-.74-1.08-.48S205.82,105.3,206.12,105.71Z"/><path class="cls-11" d="M210.29,104.39c-.07.77.21,1.39.41,1.43s.71-.42.94-1.16c.14-.49,0-1-.49-1.09S210.34,103.88,210.29,104.39Z"/><path class="cls-11" d="M214.71,106.52c-.58.52-.8,1.17-.68,1.34s.81.16,1.48-.23c.44-.25.68-.7.38-1.12S215.08,106.19,214.71,106.52Z"/><path class="cls-11" d="M217.69,111.58c-.78,0-1.37.35-1.39.56s.5.66,1.26.81c.5.09,1-.08,1-.6S218.19,111.58,217.69,111.58Z"/><path class="cls-11" d="M217,117c-.7-.33-1.38-.29-1.49-.11s.16.81.77,1.28c.41.3.92.36,1.19-.08S217.48,117.19,217,117Z"/><path class="cls-11" d="M234.93,140.09c-3.3,8-8.63,8.46-10.13,8.66a30.37,30.37,0,0,1-4.67,0,31.32,31.32,0,0,1-4.67-.29c-1.48-.3-6.78-1.08-9.52-9.33s.88-15.2,5.09-16.85c3.49-1.37,6.35.21,10,.34s6.61-1.26,10,.34C235.1,124.87,238.26,132,234.93,140.09Z"/><path class="cls-16" d="M234.93,140.09c-3.3,8-8.63,8.46-10.13,8.66a30.37,30.37,0,0,1-4.67,0,31.32,31.32,0,0,1-4.67-.29c-1.48-.3-6.78-1.08-9.52-9.33s.88-15.2,5.09-16.85c3.49-1.37,6.35.21,10,.34s6.61-1.26,10,.34C235.1,124.87,238.26,132,234.93,140.09Z"/><path class="cls-11" d="M234,139.79c-3.09,7.53-8.09,7.91-9.49,8.11a28.84,28.84,0,0,1-4.37,0,29.25,29.25,0,0,1-4.37-.26c-1.38-.29-6.35-1-8.91-8.74s.82-14.23,4.76-15.78c3.27-1.28,6,.21,9.35.32s6.19-1.18,9.36.32C234.17,125.53,237.14,132.2,234,139.79Z"/><path class="cls-12" d="M234,139.79c-3.09,7.53-8.09,7.91-9.49,8.11a28.84,28.84,0,0,1-4.37,0,29.25,29.25,0,0,1-4.37-.26c-1.38-.29-6.35-1-8.91-8.74s.82-14.23,4.76-15.78c3.27-1.28,6,.21,9.35.32s6.19-1.18,9.36.32C234.17,125.53,237.14,132.2,234,139.79Z"/><path class="cls-11" d="M221.94,125.79l-.71,20.75,1.06-.64a.79.79,0,0,1,.42-.1l.93,0a.76.76,0,0,0,.72-.45l.19-.41c.13-.28.9.08,1.21.09h.39a.77.77,0,0,0,.74-.47l.44-1.08a.78.78,0,0,1,.79-.47l.93.1a.77.77,0,0,0,.83-.62l.2-1.34a.75.75,0,0,1,.52-.58l.65-.21a.75.75,0,0,0,.53-.78l-.08-1.19a.75.75,0,0,1,.25-.63l.85-1a.76.76,0,0,0,.21-.85l-.67-1.28a.72.72,0,0,1,0-1l.59-.65A.77.77,0,0,0,233,132l-.49-.57a.76.76,0,0,1-.12-.78l.28-.69a.76.76,0,0,0-.22-.88l-.8-.66a.76.76,0,0,1-.28-.55l-.05-1a.75.75,0,0,0-.74-.72l-.57,0a.78.78,0,0,1-.72-.58h0a.77.77,0,0,0-.95-.54l-.48.14a.73.73,0,0,1-.71-.15l-.09-.08a.75.75,0,0,0-1,0l-.11.1a.76.76,0,0,1-1,0l0,0a.76.76,0,0,0-1.1.19l-.11.15a.76.76,0,0,1-.57.35Z"/><path class="cls-11" d="M219.88,125.72l-.71,20.75-1-.71a.84.84,0,0,0-.41-.14l-.93,0a.75.75,0,0,1-.68-.49l-.16-.42c-.11-.29-.91,0-1.21,0h-.4a.76.76,0,0,1-.7-.52l-.37-1.11a.77.77,0,0,0-.75-.52l-.93,0a.77.77,0,0,1-.79-.67l-.11-1.35a.76.76,0,0,0-.48-.62l-.64-.25a.77.77,0,0,1-.47-.82l.17-1.17a.78.78,0,0,0-.22-.65l-.78-1.09a.78.78,0,0,1-.15-.86l.77-1.23a.73.73,0,0,0,.09-1l-.54-.69a.76.76,0,0,1,0-1.05l.52-.54a.75.75,0,0,0,.18-.77l-.23-.71a.76.76,0,0,1,.28-.87l.84-.6a.74.74,0,0,0,.32-.53l.12-1a.75.75,0,0,1,.78-.67l.58,0a.76.76,0,0,0,.75-.53h0a.76.76,0,0,1,1-.47l.46.17a.77.77,0,0,0,.73-.11l.09-.06a.77.77,0,0,1,1,.08l.1.12a.76.76,0,0,0,1,.11l0,0a.75.75,0,0,1,1.08.26l.1.17a.76.76,0,0,0,.55.38Z"/><g class="cls-25"><path d="M221.94,125.79l-.71,20.75,1.06-.64a.79.79,0,0,1,.42-.1l.93,0a.76.76,0,0,0,.72-.45l.19-.41c.13-.28.9.08,1.21.09h.39a.77.77,0,0,0,.74-.47l.44-1.08a.78.78,0,0,1,.79-.47l.93.1a.77.77,0,0,0,.83-.62l.2-1.34a.75.75,0,0,1,.52-.58l.65-.21a.75.75,0,0,0,.53-.78l-.08-1.19a.75.75,0,0,1,.25-.63l.85-1a.76.76,0,0,0,.21-.85l-.67-1.28a.72.72,0,0,1,0-1l.59-.65A.77.77,0,0,0,233,132l-.49-.57a.76.76,0,0,1-.12-.78l.28-.69a.76.76,0,0,0-.22-.88l-.8-.66a.76.76,0,0,1-.28-.55l-.05-1a.75.75,0,0,0-.74-.72l-.57,0a.78.78,0,0,1-.72-.58h0a.77.77,0,0,0-.95-.54l-.48.14a.73.73,0,0,1-.71-.15l-.09-.08a.75.75,0,0,0-1,0l-.11.1a.76.76,0,0,1-1,0l0,0a.76.76,0,0,0-1.1.19l-.11.15a.76.76,0,0,1-.57.35Z"/><path d="M219.88,125.72l-.71,20.75-1-.71a.84.84,0,0,0-.41-.14l-.93,0a.75.75,0,0,1-.68-.49l-.16-.42c-.11-.29-.91,0-1.21,0h-.4a.76.76,0,0,1-.7-.52l-.37-1.11a.77.77,0,0,0-.75-.52l-.93,0a.77.77,0,0,1-.79-.67l-.11-1.35a.76.76,0,0,0-.48-.62l-.64-.25a.77.77,0,0,1-.47-.82l.17-1.17a.78.78,0,0,0-.22-.65l-.78-1.09a.78.78,0,0,1-.15-.86l.77-1.23a.73.73,0,0,0,.09-1l-.54-.69a.76.76,0,0,1,0-1.05l.52-.54a.75.75,0,0,0,.18-.77l-.23-.71a.76.76,0,0,1,.28-.87l.84-.6a.74.74,0,0,0,.32-.53l.12-1a.75.75,0,0,1,.78-.67l.58,0a.76.76,0,0,0,.75-.53h0a.76.76,0,0,1,1-.47l.46.17a.77.77,0,0,0,.73-.11l.09-.06a.77.77,0,0,1,1,.08l.1.12a.76.76,0,0,0,1,.11l0,0a.75.75,0,0,1,1.08.26l.1.17a.76.76,0,0,0,.55.38Z"/></g><path class="cls-11" d="M227.34,134.52a.76.76,0,0,0-.23.79l.42,1.48a.78.78,0,0,1-.49,1l-1.74.61a.81.81,0,0,0-.51.57l-.27,1.18a.78.78,0,0,1-.94.59l-1-.22a.72.72,0,0,0-.5.05l-.35.16a3,3,0,0,1-2.67-.09l-.34-.19a.79.79,0,0,0-.5-.08l-1,.15a.78.78,0,0,1-.9-.65l-.19-1.2a.8.8,0,0,0-.47-.6L214,137.3a.79.79,0,0,1-.43-1l.53-1.44a.78.78,0,0,0-.18-.81l-.85-.88a.79.79,0,0,1,.14-1.21l1-.62a.77.77,0,0,0,.35-.69l0-.46a.79.79,0,0,1,.84-.82l.68.05a.8.8,0,0,0,.81-.58.79.79,0,0,1,.78-.55.77.77,0,0,1,.37.12l.77.46a.76.76,0,0,0,.46.12l1.61-.1,1.59.21a.78.78,0,0,0,.47-.09l.79-.41a.92.92,0,0,1,.39-.09.78.78,0,0,1,.73.6.8.8,0,0,0,.77.63h.69a.79.79,0,0,1,.77.88l0,.45a.8.8,0,0,0,.31.72l.92.69a.78.78,0,0,1,.06,1.21Z"/><path class="cls-12" d="M227.34,134.52a.76.76,0,0,0-.23.79l.42,1.48a.78.78,0,0,1-.49,1l-1.74.61a.81.81,0,0,0-.51.57l-.27,1.18a.78.78,0,0,1-.94.59l-1-.22a.72.72,0,0,0-.5.05l-.35.16a3,3,0,0,1-2.67-.09l-.34-.19a.79.79,0,0,0-.5-.08l-1,.15a.78.78,0,0,1-.9-.65l-.19-1.2a.8.8,0,0,0-.47-.6L214,137.3a.79.79,0,0,1-.43-1l.53-1.44a.78.78,0,0,0-.18-.81l-.85-.88a.79.79,0,0,1,.14-1.21l1-.62a.77.77,0,0,0,.35-.69l0-.46a.79.79,0,0,1,.84-.82l.68.05a.8.8,0,0,0,.81-.58.79.79,0,0,1,.78-.55.77.77,0,0,1,.37.12l.77.46a.76.76,0,0,0,.46.12l1.61-.1,1.59.21a.78.78,0,0,0,.47-.09l.79-.41a.92.92,0,0,1,.39-.09.78.78,0,0,1,.73.6.8.8,0,0,0,.77.63h.69a.79.79,0,0,1,.77.88l0,.45a.8.8,0,0,0,.31.72l.92.69a.78.78,0,0,1,.06,1.21Z"/><path class="cls-12" d="M226.8,134.36a.64.64,0,0,0-.21.7l.39,1.29a.68.68,0,0,1-.45.84l-1.6.54a.69.69,0,0,0-.46.49l-.25,1a.71.71,0,0,1-.86.51l-.92-.2a.74.74,0,0,0-.46.05l-.32.14a2.88,2.88,0,0,1-2.45-.08l-.32-.17a.71.71,0,0,0-.45-.07l-.93.13a.71.71,0,0,1-.82-.57l-.18-1.05a.73.73,0,0,0-.42-.53l-1.57-.64a.68.68,0,0,1-.39-.87l.48-1.26a.67.67,0,0,0-.16-.71l-.78-.77a.67.67,0,0,1,.12-1.06l.89-.54A.71.71,0,0,0,215,131l0-.4a.71.71,0,0,1,.77-.72l.62,0a.73.73,0,0,0,.74-.5.72.72,0,0,1,.72-.48.74.74,0,0,1,.34.1l.71.41a.77.77,0,0,0,.42.1l1.48-.08,1.46.18a.7.7,0,0,0,.43-.07l.73-.36a.78.78,0,0,1,.36-.08.71.71,0,0,1,.67.53.73.73,0,0,0,.71.55h.63a.71.71,0,0,1,.71.77l0,.4a.69.69,0,0,0,.28.63l.85.6a.67.67,0,0,1,0,1.06Z"/><path class="cls-11" d="M217.7,126.55c0,.78-.37,1.36-.58,1.38s-.65-.51-.79-1.27c-.08-.5.1-1,.61-1S217.71,126.05,217.7,126.55Z"/><path class="cls-11" d="M213.52,127.86c.5.59.63,1.26.48,1.41s-.82.06-1.43-.42c-.4-.31-.58-.79-.22-1.16S213.19,127.48,213.52,127.86Z"/><path class="cls-11" d="M211.12,132.14c.77.09,1.32.5,1.32.71s-.57.59-1.34.66c-.5,0-1-.18-1-.7S210.62,132.08,211.12,132.14Z"/><path class="cls-11" d="M211.57,138c.64-.44,1.32-.5,1.46-.34s0,.82-.57,1.38c-.35.36-.85.5-1.18.1S211.16,138.28,211.57,138Z"/><path class="cls-11" d="M215.2,142c.38-.67,1-1,1.16-.94s.33.76.09,1.49c-.15.48-.54.82-1,.61S215,142.47,215.2,142Z"/><path class="cls-11" d="M224.35,126.78c0,.77.27,1.38.48,1.41s.68-.46.87-1.21c.13-.49,0-1-.54-1.06S224.37,126.28,224.35,126.78Z"/><path class="cls-11" d="M228.43,128.37c-.54.56-.72,1.22-.58,1.38s.81.11,1.46-.33c.42-.28.63-.74.3-1.14S228.78,128,228.43,128.37Z"/><path class="cls-11" d="M230.53,132.81c-.78,0-1.35.4-1.37.61s.53.63,1.3.75c.49.08,1-.11,1-.63S231,132.78,230.53,132.81Z"/><path class="cls-11" d="M229.68,138.62c-.61-.48-1.29-.59-1.43-.44s0,.83.47,1.42c.33.38.81.55,1.17.18S230.07,138.93,229.68,138.62Z"/><path class="cls-11" d="M225.78,142.4c-.33-.7-.89-1.09-1.09-1s-.38.73-.2,1.48c.12.49.49.85,1,.68S226,142.85,225.78,142.4Z"/><path class="cls-11" d="M223.59,167.41c-7.27,4.76-11.91,2.09-13.26,1.41a30.92,30.92,0,0,1-3.83-2.67,31.21,31.21,0,0,1-3.69-2.87c-1.05-1.09-5-4.73-2.58-13.08s9.32-12,13.73-11c3.65.85,5.11,3.77,8,5.93s6.16,2.7,8.05,5.93C232.33,154.94,230.91,162.6,223.59,167.41Z"/><path class="cls-16" d="M223.59,167.41c-7.27,4.76-11.91,2.09-13.26,1.41a30.92,30.92,0,0,1-3.83-2.67,31.21,31.21,0,0,1-3.69-2.87c-1.05-1.09-5-4.73-2.58-13.08s9.32-12,13.73-11c3.65.85,5.11,3.77,8,5.93s6.16,2.7,8.05,5.93C232.33,154.94,230.91,162.6,223.59,167.41Z"/><path class="cls-11" d="M223,166.64c-6.8,4.46-11.15,2-12.41,1.32a28.41,28.41,0,0,1-3.59-2.5,28.86,28.86,0,0,1-3.45-2.69c-1-1-4.66-4.42-2.41-12.24s8.72-11.28,12.85-10.32c3.42.79,4.79,3.53,7.53,5.55s5.77,2.52,7.53,5.55C231.19,155,229.86,162.14,223,166.64Z"/><path class="cls-12" d="M223,166.64c-6.8,4.46-11.15,2-12.41,1.32a28.41,28.41,0,0,1-3.59-2.5,28.86,28.86,0,0,1-3.45-2.69c-1-1-4.66-4.42-2.41-12.24s8.72-11.28,12.85-10.32c3.42.79,4.79,3.53,7.53,5.55s5.77,2.52,7.53,5.55C231.19,155,229.86,162.14,223,166.64Z"/><path class="cls-11" d="M221,148.27,208.64,165l1.23.07a.76.76,0,0,1,.41.15l.75.55a.75.75,0,0,0,.85,0l.38-.23c.27-.16.7.57,1,.76l.32.23a.75.75,0,0,0,.87,0l1-.64a.77.77,0,0,1,.91.06l.71.61a.77.77,0,0,0,1,0l.92-1a.76.76,0,0,1,.76-.19l.66.2a.76.76,0,0,0,.87-.35l.6-1a.76.76,0,0,1,.57-.38l1.29-.37a.77.77,0,0,0,.65-.58l.16-1.44a.72.72,0,0,1,.53-.81l.85-.21a.77.77,0,0,0,.65-.84l-.08-.74a.77.77,0,0,1,.34-.72l.63-.41a.76.76,0,0,0,.31-.85l-.29-1a.77.77,0,0,1,.08-.61l.54-.87a.76.76,0,0,0-.2-1l-.46-.34a.77.77,0,0,1-.27-.88h0a.76.76,0,0,0-.48-1l-.47-.16a.74.74,0,0,1-.5-.53l0-.11a.76.76,0,0,0-.85-.56l-.16,0a.76.76,0,0,1-.84-.52v0a.77.77,0,0,0-1-.47l-.18.08a.76.76,0,0,1-.67,0Z"/><path class="cls-11" d="M219.29,147,207,163.75l-.44-1.15a.75.75,0,0,0-.26-.35l-.75-.55a.77.77,0,0,1-.29-.8l.11-.44c.07-.3-.76-.49-1-.68l-.32-.23a.75.75,0,0,1-.28-.82l.32-1.13a.75.75,0,0,0-.33-.85l-.79-.51a.76.76,0,0,1-.27-1l.67-1.18a.75.75,0,0,0,0-.78l-.38-.57a.75.75,0,0,1,.07-.94l.8-.88a.76.76,0,0,0,.19-.65l0-1.34a.74.74,0,0,1,.36-.79l1.32-.58a.72.72,0,0,0,.62-.75l-.05-.88a.76.76,0,0,1,.6-.86l.74-.15a.75.75,0,0,0,.58-.53l.21-.72a.77.77,0,0,1,.72-.56l1,0a.77.77,0,0,0,.56-.25l.67-.77a.76.76,0,0,1,1-.11l.46.34a.77.77,0,0,0,.92,0h0a.76.76,0,0,1,1.08.17l.28.4a.76.76,0,0,0,.66.33h.12a.76.76,0,0,1,.79.65l0,.15a.77.77,0,0,0,.74.65h.05a.76.76,0,0,1,.74.83v.19a.77.77,0,0,0,.23.63Z"/><g class="cls-25"><path d="M221,148.27,208.64,165l1.23.07a.76.76,0,0,1,.41.15l.75.55a.75.75,0,0,0,.85,0l.38-.23c.27-.16.7.57,1,.76l.32.23a.75.75,0,0,0,.87,0l1-.64a.77.77,0,0,1,.91.06l.71.61a.77.77,0,0,0,1,0l.92-1a.76.76,0,0,1,.76-.19l.66.2a.76.76,0,0,0,.87-.35l.6-1a.76.76,0,0,1,.57-.38l1.29-.37a.77.77,0,0,0,.65-.58l.16-1.44a.72.72,0,0,1,.53-.81l.85-.21a.77.77,0,0,0,.65-.84l-.08-.74a.77.77,0,0,1,.34-.72l.63-.41a.76.76,0,0,0,.31-.85l-.29-1a.77.77,0,0,1,.08-.61l.54-.87a.76.76,0,0,0-.2-1l-.46-.34a.77.77,0,0,1-.27-.88h0a.76.76,0,0,0-.48-1l-.47-.16a.74.74,0,0,1-.5-.53l0-.11a.76.76,0,0,0-.85-.56l-.16,0a.76.76,0,0,1-.84-.52v0a.77.77,0,0,0-1-.47l-.18.08a.76.76,0,0,1-.67,0Z"/><path d="M219.29,147,207,163.75l-.44-1.15a.75.75,0,0,0-.26-.35l-.75-.55a.77.77,0,0,1-.29-.8l.11-.44c.07-.3-.76-.49-1-.68l-.32-.23a.75.75,0,0,1-.28-.82l.32-1.13a.75.75,0,0,0-.33-.85l-.79-.51a.76.76,0,0,1-.27-1l.67-1.18a.75.75,0,0,0,0-.78l-.38-.57a.75.75,0,0,1,.07-.94l.8-.88a.76.76,0,0,0,.19-.65l0-1.34a.74.74,0,0,1,.36-.79l1.32-.58a.72.72,0,0,0,.62-.75l-.05-.88a.76.76,0,0,1,.6-.86l.74-.15a.75.75,0,0,0,.58-.53l.21-.72a.77.77,0,0,1,.72-.56l1,0a.77.77,0,0,0,.56-.25l.67-.77a.76.76,0,0,1,1-.11l.46.34a.77.77,0,0,0,.92,0h0a.76.76,0,0,1,1.08.17l.28.4a.76.76,0,0,0,.66.33h.12a.76.76,0,0,1,.79.65l0,.15a.77.77,0,0,0,.74.65h.05a.76.76,0,0,1,.74.83v.19a.77.77,0,0,0,.23.63Z"/></g><path class="cls-11" d="M220.47,158.51a.81.81,0,0,0-.64.53l-.48,1.46a.78.78,0,0,1-.95.51l-1.79-.48a.77.77,0,0,0-.73.18l-.9.83a.78.78,0,0,1-1.1,0l-.69-.75a.86.86,0,0,0-.45-.24l-.38-.06a3,3,0,0,1-2.15-1.59l-.17-.34a.74.74,0,0,0-.37-.35l-.91-.44a.8.8,0,0,1-.38-1.05l.53-1.09a.82.82,0,0,0,0-.76l-1-1.56a.8.8,0,0,1,.21-1.06l1.25-.89a.79.79,0,0,0,.32-.77l-.21-1.21a.79.79,0,0,1,.8-.92l1.15,0a.82.82,0,0,0,.69-.37l.24-.39a.78.78,0,0,1,1.15-.2l.54.42a.8.8,0,0,0,1,0,.79.79,0,0,1,1.2.3l.36.81a.8.8,0,0,0,.32.36l1.38.83,1.19,1.07a.8.8,0,0,0,.44.19l.89.11a.81.81,0,0,1,.37.15.78.78,0,0,1,.26.91.79.79,0,0,0,.28.95l.57.39a.79.79,0,0,1,.14,1.16l-.3.35a.78.78,0,0,0-.15.76l.37,1.09a.78.78,0,0,1-.64,1Z"/><path class="cls-12" d="M220.47,158.51a.81.81,0,0,0-.64.53l-.48,1.46a.78.78,0,0,1-.95.51l-1.79-.48a.77.77,0,0,0-.73.18l-.9.83a.78.78,0,0,1-1.1,0l-.69-.75a.86.86,0,0,0-.45-.24l-.38-.06a3,3,0,0,1-2.15-1.59l-.17-.34a.74.74,0,0,0-.37-.35l-.91-.44a.8.8,0,0,1-.38-1.05l.53-1.09a.82.82,0,0,0,0-.76l-1-1.56a.8.8,0,0,1,.21-1.06l1.25-.89a.79.79,0,0,0,.32-.77l-.21-1.21a.79.79,0,0,1,.8-.92l1.15,0a.82.82,0,0,0,.69-.37l.24-.39a.78.78,0,0,1,1.15-.2l.54.42a.8.8,0,0,0,1,0,.79.79,0,0,1,1.2.3l.36.81a.8.8,0,0,0,.32.36l1.38.83,1.19,1.07a.8.8,0,0,0,.44.19l.89.11a.81.81,0,0,1,.37.15.78.78,0,0,1,.26.91.79.79,0,0,0,.28.95l.57.39a.79.79,0,0,1,.14,1.16l-.3.35a.78.78,0,0,0-.15.76l.37,1.09a.78.78,0,0,1-.64,1Z"/><path class="cls-12" d="M220.12,158.08a.64.64,0,0,0-.57.46l-.41,1.29a.67.67,0,0,1-.85.43l-1.62-.46a.7.7,0,0,0-.66.14l-.79.72a.72.72,0,0,1-1-.06l-.63-.68a.77.77,0,0,0-.41-.23l-.35-.06a2.86,2.86,0,0,1-2-1.46l-.17-.31a.73.73,0,0,0-.33-.32l-.84-.41a.72.72,0,0,1-.36-.94l.45-1a.7.7,0,0,0,0-.67l-.93-1.42a.67.67,0,0,1,.17-.93l1.11-.77a.67.67,0,0,0,.27-.68l-.21-1.08a.66.66,0,0,1,.7-.8l1,0a.68.68,0,0,0,.61-.31l.21-.35a.71.71,0,0,1,1-.15l.49.39a.74.74,0,0,0,.9,0,.74.74,0,0,1,1.09.29l.35.73a.72.72,0,0,0,.29.33l1.27.76,1.1,1a.84.84,0,0,0,.39.19l.81.11a.79.79,0,0,1,.34.14.71.71,0,0,1,.26.81.73.73,0,0,0,.27.86l.52.36a.71.71,0,0,1,.15,1l-.26.3a.67.67,0,0,0-.12.68l.36,1a.68.68,0,0,1-.56.91Z"/><path class="cls-11" d="M217,146.49c-.45.63-1.07.92-1.25.81s-.25-.78.07-1.49c.2-.46.63-.75,1.07-.49S217.32,146.09,217,146.49Z"/><path class="cls-11" d="M212.83,145.21c.08.77-.19,1.4-.39,1.44s-.71-.42-.95-1.16c-.15-.48,0-1,.48-1.09S212.78,144.71,212.83,145.21Z"/><path class="cls-11" d="M208.44,147.38c.58.52.81,1.16.69,1.33s-.81.17-1.48-.21c-.44-.25-.69-.69-.39-1.12S208.06,147.05,208.44,147.38Z"/><path class="cls-11" d="M205.5,152.47c.78,0,1.37.34,1.39.55s-.49.66-1.25.81c-.5.1-1-.07-1-.58S205,152.47,205.5,152.47Z"/><path class="cls-11" d="M206.21,157.85c.7-.34,1.38-.3,1.49-.12s-.15.81-.77,1.28c-.4.31-.91.37-1.18-.07S205.76,158.07,206.21,157.85Z"/><path class="cls-11" d="M222.38,150.44c-.47.62-.56,1.3-.4,1.44s.82,0,1.4-.51c.38-.33.54-.82.16-1.17S222.68,150,222.38,150.44Z"/><path class="cls-11" d="M224.85,154.06c-.76.15-1.28.6-1.26.81s.61.55,1.38.56c.51,0,.95-.26.9-.78S225.34,154,224.85,154.06Z"/><path class="cls-11" d="M224.07,158.9c-.66-.4-1.34-.43-1.47-.26s.07.82.64,1.35c.37.35.87.45,1.18,0S224.5,159.17,224.07,158.9Z"/><path class="cls-11" d="M220.08,163.22c-.23-.74-.73-1.21-.93-1.17s-.49.67-.41,1.44c0,.5.36.91.87.81S220.23,163.7,220.08,163.22Z"/><path class="cls-11" d="M214.73,164.13c.12-.76-.12-1.4-.32-1.46s-.73.39-1,1.11c-.18.48-.09,1,.42,1.11S214.65,164.63,214.73,164.13Z"/><path class="cls-11" d="M189.26,113s7.85-2.95,8.58-3.47a3.72,3.72,0,0,0,1.65-2.6,4,4,0,0,0-.86-1.87s.77-2.69.27-3.57-3.09-2.24-5.22-2.53-15.4,0-15.4,0Z"/><path class="cls-26" d="M189.26,113s7.85-2.95,8.58-3.47a3.72,3.72,0,0,0,1.65-2.6,4,4,0,0,0-.86-1.87s.77-2.69.27-3.57-3.09-2.24-5.22-2.53-15.4,0-15.4,0Z"/><path class="cls-26" d="M178.28,98.94l4.11-.08c1,1.21,2.61,3.71,4.37,6.24s3.81,5.18,4.81,7l-2.31.88Z"/><path class="cls-11" d="M186.14,122.93s4.84-4.05,5.34-5.29.08-3.56-.27-5.08-3.37-4.84-5.92-8.09-4.87-6.45-5.58-6.66a10.16,10.16,0,0,0-4.19-.26c-1.33.34-7.06,6.28-8.71,9.41S186.14,122.93,186.14,122.93Z"/><path class="cls-26" d="M186.14,122.93s4.84-4.05,5.34-5.29.08-3.56-.27-5.08-3.37-4.84-5.92-8.09-4.87-6.45-5.58-6.66a10.16,10.16,0,0,0-4.19-.26c-1.33.34-7.06,6.28-8.71,9.41S186.14,122.93,186.14,122.93Z"/><path class="cls-26" d="M168.42,104.55a1.31,1.31,0,0,1,.84.31c.69.76,1.79,3.4,8.84,8.92a95,95,0,0,0,10.53,7c-1.27,1.17-2.49,2.19-2.49,2.19s-21-12.83-19.33-16A18.29,18.29,0,0,1,168.42,104.55Z"/><path class="cls-11" d="M184.23,134s5.49-10.44,5.43-11.59-5.67-3-12.9-8.3-8.42-7.88-9.13-8.62-4.53.09-5.81,1-8.11,8-9.63,18.77Z"/><path class="cls-26" d="M184.23,134s5.49-10.44,5.43-11.59-5.67-3-12.9-8.3-8.42-7.88-9.13-8.62-4.53.09-5.81,1-8.11,8-9.63,18.77Z"/><path class="cls-26" d="M152.89,121.83c3.35-.45,13.45,6.49,21.57,6.94,6.57.36,10.11.31,11.8,1.31-1.09,2.17-2,4-2,4l-32-8.71A30.51,30.51,0,0,1,152.89,121.83Z"/><path class="cls-11" d="M198.53,164.64s8.38,0,9.24.27a3.78,3.78,0,0,1,2.46,1.87,4.14,4.14,0,0,1-.16,2.06s1.65,2.25,1.49,3.24-2.12,3.18-4,4.19-14.46,5.34-14.46,5.34Z"/><path class="cls-26" d="M198.53,164.64s8.38,0,9.24.27a3.78,3.78,0,0,1,2.46,1.87,4.14,4.14,0,0,1-.16,2.06s1.65,2.25,1.49,3.24-2.12,3.18-4,4.19-14.46,5.34-14.46,5.34Z"/><path class="cls-26" d="M193.09,181.61l3.89-1.36c.51-1.48,1.16-4.38,1.93-7.37s1.77-6.19,2.09-8.21l-2.47,0Z"/><path class="cls-11" d="M192.13,156.38s5.94,2.11,6.85,3.1,1.31,3.31,1.52,4.86-1.49,5.71-2.75,9.64-2.33,7.74-2.92,8.18a10,10,0,0,1-3.84,1.7c-1.37.15-8.8-3.43-11.44-5.8S192.13,156.38,192.13,156.38Z"/><path class="cls-26" d="M192.13,156.38s5.94,2.11,6.85,3.1,1.31,3.31,1.52,4.86-1.49,5.71-2.75,9.64-2.33,7.74-2.92,8.18a10,10,0,0,1-3.84,1.7c-1.37.15-8.8-3.43-11.44-5.8S192.13,156.38,192.13,156.38Z"/><path class="cls-26" d="M181.9,179.76a1.34,1.34,0,0,0,.68-.57c.38-1,.5-3.82,5.19-11.44a94.84,94.84,0,0,1,7.46-10.19c-1.6-.65-3.1-1.18-3.1-1.18s-15.22,19.31-12.58,21.68A17.82,17.82,0,0,0,181.9,179.76Z"/><path class="cls-11" d="M186.49,146.63s8.78,7.88,9.12,9-4.27,4.81-9.22,12.27-5.15,10.31-5.56,11.25-4.29,1.49-5.81,1-10.37-4.64-15.56-14.25Z"/><path class="cls-26" d="M186.49,146.63s8.78,7.88,9.12,9-4.27,4.81-9.22,12.27-5.15,10.31-5.56,11.25-4.29,1.49-5.81,1-10.37-4.64-15.56-14.25Z"/><path class="cls-26" d="M161.34,169c3.3-.74,10.36-10.77,17.82-14,6-2.62,9.37-3.8,10.61-5.32-1.79-1.66-3.28-3-3.28-3l-27,19.29A33.31,33.31,0,0,0,161.34,169Z"/><path class="cls-11" d="M173.34,129.68c9.27.17,12.66-.25,13.45,2.5s-.14,4.06.53,7.8,2,4.65,2.21,7.5-3.11,3.63-11.75,7S160.69,169.84,158,168.06c-8.37-5.45-11.72-11.09-13.39-20.42s-.5-15.78,5.46-23.8C152,121.23,164.06,129.51,173.34,129.68Z"/><g class="cls-13"><path d="M173.34,129.68c9.27.17,12.66-.25,13.45,2.5s-.14,4.06.53,7.8,2,4.65,2.21,7.5-3.11,3.63-11.75,7S160.69,169.84,158,168.06c-8.37-5.45-11.72-11.09-13.39-20.42s-.5-15.78,5.46-23.8C152,121.23,164.06,129.51,173.34,129.68Z"/></g><path class="cls-17" d="M164.83,160.27c.43-3.11-12.45-10.45-14.49-6.66s3.3,8.83,6.53,10.27S164.39,163.37,164.83,160.27Z"/><path class="cls-17" d="M152.35,151c1.89-.24,1.68-4.26-1.15-4.33s-3.86,1.82-3.58,2.78S150.45,151.21,152.35,151Z"/></g></svg>