<svg id="Слой_1" data-name="Слой 1" xmlns="http://www.w3.org/2000/svg" viewBox="0 0 382 170"><defs><style>.cls-1{fill:#fff;}.cls-2{fill:#4a148c;}.cls-3{fill:#ffc800;}.cls-4{fill:#306;}</style></defs><rect class="cls-1" x="-1300.56" y="-340.22" width="1706" height="1114"/><path class="cls-2" d="M146,112.5a8,8,0,0,1-5.61,13.78,8.5,8.5,0,0,1-5.87-2.29L98.6,87.61c-.38-.12-.51-.38-.64-.76a1.66,1.66,0,0,0-.38-.26,3.43,3.43,0,0,1-.38-1,.69.69,0,0,1-.38-.51c-.13-.25-.13-.64-.26-.76,0-.39-.25-.51-.25-.64v-.89c0-.26-.13-.39-.13-.77,0-.13.13-.51.13-.64v-.89c0-.26.25-.39.25-.51.13-.39.13-.64.26-1,0-.13.13-.13.13-.26a9.92,9.92,0,0,1,.63-1.15.25.25,0,0,1,.26-.25,2.34,2.34,0,0,1,.76-.9L134.47,40A8.33,8.33,0,0,1,146,40a8.09,8.09,0,0,1,0,11.49L115.7,82Z"/><path class="cls-2" d="M178.49,116.59l31.27-74.41a7.09,7.09,0,0,1,9.32-3.7,6.89,6.89,0,0,1,3.57,9.06l-31.27,74.53a7.08,7.08,0,0,1-6.51,4.21,6.13,6.13,0,0,1-2.55-.5A6.9,6.9,0,0,1,178.49,116.59Z"/><path class="cls-2" d="M284.42,86.59a.13.13,0,0,1-.13.13,5.75,5.75,0,0,1-.89.89L247.53,124a8.34,8.34,0,0,1-11.48,0,8.09,8.09,0,0,1,0-11.49L266.3,82,236.05,51.5a8.09,8.09,0,0,1,0-11.49,8.33,8.33,0,0,1,11.48,0L283.4,76.38a6.26,6.26,0,0,1,.89.9c.13,0,.13.25.13.25a11,11,0,0,1,.63,1.15c0,.13.13.13.13.26a5.93,5.93,0,0,0,.39,1.14c0,.13.12.13.12.39v.89c0,.13.13.51.13.64s-.13.51-.13.64v1c0,.13-.12.13-.12.25a12,12,0,0,0-.39,1.15c0,.13-.13.13-.13.38S284.67,86.08,284.42,86.59Z"/><path class="cls-3" d="M6.4,54.25a45.6,45.6,0,0,1-.89,17.57,47.9,47.9,0,0,1-2.69,7.77C1.42,82.8,0,85.94.31,89.46c.34.23-.82.19-.86-.15C-9.95,84-22,83-29.24,74.23c-3.42-4.15-5.15-9.4-6-14.65-.89-5.72-1.14-12.06.34-17.69,1.24-4.77,4-9.37,8.51-11.71s10.68-2.2,15.55-.69C-.31,32.75,4.92,44.09,6.4,54.25Z"/><path class="cls-4" d="M11.23,123.83c-1.29-4.27-2.57-8.55-3.88-12.81C4.77,102.66,2.09,94.34-.88,86.11q-2.67-7.38-5.63-14.63a90.22,90.22,0,0,1,1.12-9.09c.79-3.64,1.93-7.17,3-10.73.07-.22-.29-.34-.38-.13-2.11,4.92-4.86,11.2-4.93,17q-3.43-8.2-7.39-16.17a69.07,69.07,0,0,1,.42-13.47.16.16,0,0,0-.32-.06,47.73,47.73,0,0,0-.92,11.89q-3-6-6.41-11.81c-.21-.35-.69,0-.51.35C-19.31,46.08-16,53-13,60.06A45.28,45.28,0,0,0-27.7,51.53c-.23-.08-.41.25-.17.35A53.88,53.88,0,0,1-11.93,62.44Q-8.62,70.17-5.61,78c-5.88-5.77-13.93-9.56-21.72-11.59-.26-.07-.33.33-.08.41,9,2.71,16,7.82,22.86,14Q-3.35,84-2.2,87.16q4.35,12.07,8.29,24.31c1.27,3.9,2.51,7.82,3.73,11.73,1.32,4.22,2.34,8.67,4.06,12.74.16.39.86.3.77-.17A122.82,122.82,0,0,0,11.23,123.83Z"/><path class="cls-3" d="M38.09,86.18C31.32,88.19,24.52,90,17.75,92c-.59.18-12-21.75-7.9-33.05,3.82-10.46,12.58-18.28,23-21.84,4.84-1.64,10.78-3,15.89-1.89,4.54,1,7.74,4.72,9.22,9,2,5.8,1.34,12.73.24,18.65a32.41,32.41,0,0,1-6.66,15.22C48,82.39,43.37,84.61,38.09,86.18Z"/><path class="cls-4" d="M47.91,65.33a89.77,89.77,0,0,1-13.28,5.23,56,56,0,0,0-8.86,3.21c2.86-6.38,6-12.62,9.33-18.8,4.37-1.27,9-3.24,12.27-6.34.18-.16,0-.42-.25-.28-3.61,2.55-7.58,4.08-11.57,5.8.9-1.66,1.8-3.32,2.73-5,.26-.46-.38-.92-.69-.47A144.19,144.19,0,0,0,28,64.85a73.9,73.9,0,0,1-.69-14.8c0-.13-.18-.14-.2,0a49,49,0,0,0,.17,16.26c-2.38,4.74-4.54,9.59-6.48,14.51C20,77.86,19,75,18.32,72a40.81,40.81,0,0,1-1-13c0-.13-.18-.14-.2,0A46,46,0,0,0,20,82.85c-1.13,3-2.21,5.93-3.2,8.9a177.55,177.55,0,0,0-9,47,.29.29,0,0,0,.57,0A233,233,0,0,1,18.47,92.35c2-5.9,4.22-11.64,6.7-17.26,4-1.18,8-2.78,11.91-4.14s7.76-2.87,11-5.39C48.18,65.47,48.05,65.26,47.91,65.33Z"/><path class="cls-4" d="M54.22,59c-4.14,1.48-8.07,3.54-12.2,5-.2.07-.08.38.11.34,4.38-.91,8.72-2.26,12.25-5.13C54.51,59.09,54.36,58.91,54.22,59Z"/><path class="cls-4" d="M20.41,50c.05-.22-.27-.34-.34-.12-1.13,3.82-1.92,7.87-.81,11.77a.15.15,0,0,0,.29,0C19.75,57.73,19.53,53.91,20.41,50Z"/><path class="cls-4" d="M37.52,41.21a10.12,10.12,0,0,0-1.8,6.49c0,.15.24.23.28.06.5-2.18,1.35-4.17,2-6.29A.29.29,0,0,0,37.52,41.21Z"/><path class="cls-3" d="M-42.44,95.85c2,6.3,6.7,15,14.17,15.08,4.84,0,9.72-.53,14.57-.6,5.2-.08,10.41-.07,15.6.24.42,0-.63-15.56-13.12-23.15-3.5-2.13-7.78-2.8-11.75-3.66a54.5,54.5,0,0,0-13.88-1.45c-2.87.12-5.25.72-6.27,3.66S-43.39,92.86-42.44,95.85Z"/><path class="cls-4" d="M-37.06,88c3,.78,6.1,1.67,9.14,2.64a30.7,30.7,0,0,0-2.52-2.45,48.2,48.2,0,0,0-4.15-2.91c-.11-.08,0-.31.11-.25a17.06,17.06,0,0,1,7.36,5.86c3.8,1.23,7.56,2.58,11.18,4.07a42.27,42.27,0,0,1,7.16,3.76,29.5,29.5,0,0,0-2.59-4.5c-1.66-2.15-3.9-3.35-6.07-4.87a.19.19,0,0,1,.19-.34A17.78,17.78,0,0,1-7.51,99.55,42,42,0,0,1-.42,106c8.26,9.39,14.77,21.88,14.79,34.62,0,.31-.48.39-.54.08A70.77,70.77,0,0,0-1.93,106.82c-.59-.69-1.2-1.34-1.82-2a57.49,57.49,0,0,0-6.83-.51c-2.66,0-5.29.39-7.94.61-4.36.35-9.18.4-13.12-1.79-.17-.1-.05-.4.14-.33,8.77,3.19,18-.85,26.76,1.05a40.89,40.89,0,0,0-13-8.36l-.8-.32c-5.63.67-11.57,2.14-17,.31a.13.13,0,0,1,.07-.26c5.29,1.32,10.37-.34,15.6-.6-5.69-2.22-11.49-4-17.2-6.18C-37.57,88.27-37.58,87.83-37.06,88Z"/><path class="cls-3" d="M23.06,108.39c-.09.2.21.4.32.18h0a.3.3,0,0,0,.2.12,125.89,125.89,0,0,0,15.26,2.67c4.13.36,8.89.59,12.5-1.81,4.9-3.24,8.13-11.93,5.48-17.45-3.14-6.55-12.58-3-17.32-.66A34.81,34.81,0,0,0,23.06,108.39Z"/><path class="cls-4" d="M19.4,111.41a48.94,48.94,0,0,1,9.11-6.93,31.21,31.21,0,0,1,9.24-9.42c.18-.12.33.16.17.29a41.36,41.36,0,0,0-7.79,8.19,85.36,85.36,0,0,1,11.43-5.2,15.21,15.21,0,0,1,6.14-6.15s.12,0,.07.08a25.3,25.3,0,0,0-5.55,5.82c2.32-.87,4.67-1.67,7-2.45.21-.07.29.25.09.33-4.17,1.63-8.44,3.35-12.57,5.33a48.63,48.63,0,0,0,15.23,0,.11.11,0,0,1,.06.21,30,30,0,0,1-16.16.25A74.5,74.5,0,0,0,28.21,106a19.2,19.2,0,0,1,6.2.5,46.92,46.92,0,0,0,10.88,1.24c.14,0,.18.22,0,.24C39,109.08,33,106.21,26.78,107a48.22,48.22,0,0,0-6.52,5.32,48.89,48.89,0,0,0-9.5,13.42c-2.64,5.36-4.07,11-6.2,16.58a.2.2,0,0,1-.39-.1C6,131.25,11.44,119.2,19.4,111.41Z"/><path class="cls-4" d="M38.44,96.43a7.44,7.44,0,0,1,1.62-2,6.37,6.37,0,0,1,1.87-1.4c.06,0,.09.07.06.11-.52.59-1.24,1-1.8,1.58s-1,1.23-1.6,1.79A.1.1,0,0,1,38.44,96.43Z"/><path class="cls-4" d="M48.86,99.82c.94-.23,1.93-.21,2.88-.41s1.86-.54,2.79-.83c.12,0,.19.14.09.2a9.32,9.32,0,0,1-5.76,1.34A.16.16,0,0,1,48.86,99.82Z"/><polygon class="cls-2" points="-6.63 128.71 -5.8 138.13 -2.98 169.91 21.91 169.91 25.42 138.13 26.46 128.71 -6.63 128.71"/><polygon class="cls-4" points="-6.63 128.71 -5.8 138.13 25.42 138.13 26.46 128.71 -6.63 128.71"/><rect class="cls-2" x="-9.09" y="126.15" width="38.02" height="7.64" transform="translate(19.84 259.93) rotate(180)"/><path class="cls-3" d="M369.4,54.25a45.6,45.6,0,0,1-.89,17.57,47.9,47.9,0,0,1-2.69,7.77c-1.4,3.21-2.86,6.35-2.51,9.87.34.23-.82.19-.86-.15C353.05,84,341,83,333.76,74.23c-3.42-4.15-5.15-9.4-6-14.65-.89-5.72-1.14-12.06.34-17.69,1.24-4.77,4-9.37,8.51-11.71s10.68-2.2,15.55-.69C362.69,32.75,367.92,44.09,369.4,54.25Z"/><path class="cls-4" d="M374.23,123.83c-1.29-4.27-2.57-8.55-3.88-12.81-2.58-8.36-5.26-16.68-8.23-24.91q-2.67-7.38-5.63-14.63a90.22,90.22,0,0,1,1.12-9.09c.79-3.64,1.93-7.17,3-10.73.07-.22-.29-.34-.38-.13-2.11,4.92-4.86,11.2-4.93,17q-3.44-8.2-7.39-16.17a69.07,69.07,0,0,1,.42-13.47.16.16,0,0,0-.32-.06,47.73,47.73,0,0,0-.92,11.89q-3-6-6.41-11.81c-.21-.35-.69,0-.51.35C343.69,46.08,347,53,350,60.06a45.28,45.28,0,0,0-14.74-8.53c-.23-.08-.41.25-.17.35a53.88,53.88,0,0,1,15.94,10.56q3.31,7.73,6.32,15.58c-5.88-5.77-13.93-9.56-21.72-11.59-.26-.07-.33.33-.08.41,9,2.71,16,7.82,22.86,14q1.2,3.17,2.35,6.36,4.35,12.07,8.29,24.31c1.27,3.9,2.51,7.82,3.73,11.73,1.32,4.22,2.34,8.67,4.06,12.74.16.39.86.3.77-.17A122.82,122.82,0,0,0,374.23,123.83Z"/><path class="cls-4" d="M358.64,46a23.32,23.32,0,0,0-3.39,8.44c0,.08.11.12.13,0a72.85,72.85,0,0,1,3.67-8.28C359.2,46,358.79,45.78,358.64,46Z"/><path class="cls-4" d="M341.87,65.61a24.64,24.64,0,0,0-8.44-2.84.07.07,0,0,0,0,.13c1.35.56,2.78,1,4.15,1.49s2.72,1.17,4.11,1.65A.24.24,0,0,0,341.87,65.61Z"/><path class="cls-4" d="M337.14,42.05a16.51,16.51,0,0,0-2.71-1.68.15.15,0,0,0-.16.24A16.64,16.64,0,0,0,337,42.35C337.12,42.45,337.31,42.16,337.14,42.05Z"/><path class="cls-3" d="M401.09,86.18c-6.77,2-13.57,3.86-20.34,5.85-.59.18-12-21.75-7.9-33.05,3.82-10.46,12.58-18.28,23-21.84,4.84-1.64,10.78-3,15.89-1.89,4.54,1,7.74,4.72,9.22,9,2,5.8,1.34,12.73.24,18.65a32.41,32.41,0,0,1-6.66,15.22C411,82.39,406.37,84.61,401.09,86.18Z"/><path class="cls-4" d="M410.91,65.33a89.77,89.77,0,0,1-13.28,5.23,56,56,0,0,0-8.86,3.21c2.86-6.38,6-12.62,9.33-18.8,4.37-1.27,9-3.24,12.27-6.34.18-.16-.05-.42-.25-.28-3.61,2.55-7.58,4.08-11.57,5.8.9-1.66,1.8-3.32,2.73-5,.26-.46-.38-.92-.69-.47A144.19,144.19,0,0,0,391,64.85a73.9,73.9,0,0,1-.69-14.8c0-.13-.18-.14-.2,0a49,49,0,0,0,.17,16.26c-2.38,4.74-4.54,9.59-6.48,14.51C383,77.86,382,75,381.32,72a40.81,40.81,0,0,1-1-13c0-.13-.18-.14-.2,0A46,46,0,0,0,383,82.85c-1.13,3-2.21,5.93-3.2,8.9a177.55,177.55,0,0,0-9,47,.29.29,0,0,0,.57,0,233,233,0,0,1,10.09-46.42c2-5.9,4.22-11.64,6.7-17.26,4-1.18,8-2.78,11.91-4.14s7.76-2.87,11-5.39C411.18,65.47,411.05,65.26,410.91,65.33Z"/><path class="cls-4" d="M383.41,50c0-.22-.27-.34-.34-.12-1.13,3.82-1.92,7.87-.81,11.77a.15.15,0,0,0,.29,0C382.75,57.73,382.53,53.91,383.41,50Z"/><path class="cls-3" d="M320.56,95.85c2,6.3,6.7,15,14.17,15.08,4.84,0,9.72-.53,14.57-.6,5.2-.08,10.41-.07,15.6.24.42,0-.63-15.56-13.12-23.15-3.5-2.13-7.78-2.8-11.75-3.66a54.5,54.5,0,0,0-13.88-1.45c-2.87.12-5.25.72-6.27,3.66S319.61,92.86,320.56,95.85Z"/><path class="cls-4" d="M325.94,88c3,.78,6.1,1.67,9.14,2.64a30.7,30.7,0,0,0-2.52-2.45,48.2,48.2,0,0,0-4.15-2.91c-.11-.08,0-.31.11-.25a17.06,17.06,0,0,1,7.36,5.86c3.8,1.23,7.56,2.58,11.18,4.07a42.27,42.27,0,0,1,7.16,3.76,29.5,29.5,0,0,0-2.59-4.5c-1.66-2.15-3.9-3.35-6.07-4.87a.19.19,0,0,1,.19-.34,17.78,17.78,0,0,1,9.74,10.57,42,42,0,0,1,7.09,6.43c8.26,9.39,14.77,21.88,14.79,34.62,0,.31-.48.39-.54.08a70.77,70.77,0,0,0-15.76-33.86c-.59-.69-1.2-1.34-1.82-2a57.49,57.49,0,0,0-6.83-.51c-2.66,0-5.29.39-7.94.61-4.36.35-9.18.4-13.12-1.79-.17-.1-.05-.4.14-.33,8.77,3.19,18-.85,26.76,1.05a40.89,40.89,0,0,0-13-8.36l-.8-.32c-5.63.67-11.57,2.14-17.05.31a.13.13,0,0,1,.07-.26c5.29,1.32,10.37-.34,15.6-.6-5.69-2.22-11.49-4-17.2-6.18C325.43,88.27,325.42,87.83,325.94,88Z"/><path class="cls-4" d="M323.45,93.51a77.6,77.6,0,0,0,8.2.62c.06,0,.08.1,0,.11a16.91,16.91,0,0,1-8.26-.53C323.26,93.68,323.32,93.49,323.45,93.51Z"/><path class="cls-4" d="M342,88.1A13.53,13.53,0,0,1,346,90.92c.14.13-.05.39-.21.27-.68-.5-1.39-1-2.11-1.43a21.14,21.14,0,0,1-2-1.25C341.53,88.36,341.73,88,342,88.1Z"/><path class="cls-4" d="M382.4,111.41a48.94,48.94,0,0,1,9.11-6.93,31.21,31.21,0,0,1,9.24-9.42c.18-.12.33.16.17.29a41.36,41.36,0,0,0-7.79,8.19,85.36,85.36,0,0,1,11.43-5.2,15.21,15.21,0,0,1,6.14-6.15c.05,0,.12,0,.07.08a25.3,25.3,0,0,0-5.55,5.82c2.32-.87,4.67-1.67,7-2.45.21-.07.29.25.09.33-4.17,1.63-8.44,3.35-12.57,5.33a48.63,48.63,0,0,0,15.23,0,.11.11,0,0,1,.06.21,30,30,0,0,1-16.16.25,74.5,74.5,0,0,0-7.67,4.29,19.2,19.2,0,0,1,6.2.5,46.92,46.92,0,0,0,10.88,1.24c.14,0,.18.22,0,.24-6.32,1.09-12.29-1.78-18.55-1a48.22,48.22,0,0,0-6.52,5.32,48.89,48.89,0,0,0-9.5,13.42c-2.64,5.36-4.07,11-6.2,16.58a.2.2,0,0,1-.39-.1C369,131.25,374.44,119.2,382.4,111.41Z"/><polygon class="cls-2" points="356.38 128.71 357.2 138.13 360.02 169.91 384.91 169.91 388.42 138.13 389.46 128.71 356.38 128.71"/><polygon class="cls-4" points="356.38 128.71 357.2 138.13 388.42 138.13 389.46 128.71 356.38 128.71"/><rect class="cls-2" x="353.91" y="126.15" width="38.02" height="7.64" transform="translate(745.84 259.93) rotate(180)"/></svg>