<svg id="Слой_1" data-name="Слой 1" xmlns="http://www.w3.org/2000/svg" viewBox="0 0 382 170"><defs><style>.cls-1{fill:#fff;}.cls-2{fill:#306;}.cls-3{fill:#4a148c;}.cls-4{fill:#ffc800;}</style></defs><rect class="cls-1" x="-27.56" y="-340.22" width="1706" height="1114"/><rect class="cls-2" x="194.39" y="1.9" width="116.24" height="174.23"/><rect class="cls-3" x="175.2" y="155.02" width="135.43" height="28.13" transform="translate(485.83 338.18) rotate(180)"/><rect class="cls-3" x="222.56" y="159.67" width="82.94" height="2.37" transform="translate(528.06 321.72) rotate(180)"/><rect class="cls-3" x="222.56" y="163.79" width="82.94" height="2.37" transform="translate(528.06 329.95) rotate(180)"/><rect class="cls-3" x="222.56" y="167.9" width="82.94" height="2.37" transform="translate(528.06 338.18) rotate(180)"/><path class="cls-1" d="M209.92,162a2.36,2.36,0,1,0,2.35-2.36A2.35,2.35,0,0,0,209.92,162Z"/><path class="cls-2" d="M202.15,162a2.36,2.36,0,1,0,2.36-2.36A2.36,2.36,0,0,0,202.15,162Z"/><path class="cls-1" d="M194.39,162a2.36,2.36,0,1,0,2.35-2.36A2.35,2.35,0,0,0,194.39,162Z"/><path class="cls-1" d="M186.62,162a2.36,2.36,0,1,0,2.36-2.36A2.36,2.36,0,0,0,186.62,162Z"/><path class="cls-2" d="M178.86,162a2.36,2.36,0,1,0,2.36-2.36A2.36,2.36,0,0,0,178.86,162Z"/><path class="cls-2" d="M209.92,169.09a2.36,2.36,0,1,0,2.35-2.35A2.36,2.36,0,0,0,209.92,169.09Z"/><path class="cls-1" d="M202.15,169.09a2.36,2.36,0,1,0,2.36-2.35A2.36,2.36,0,0,0,202.15,169.09Z"/><path class="cls-2" d="M194.39,169.09a2.36,2.36,0,1,0,2.35-2.35A2.36,2.36,0,0,0,194.39,169.09Z"/><path class="cls-1" d="M186.62,169.09a2.36,2.36,0,1,0,2.36-2.35A2.36,2.36,0,0,0,186.62,169.09Z"/><path class="cls-2" d="M178.86,169.09a2.36,2.36,0,1,0,2.36-2.35A2.36,2.36,0,0,0,178.86,169.09Z"/><rect class="cls-2" x="217.74" y="159.67" width="1.36" height="18.84" transform="translate(436.83 338.18) rotate(180)"/><rect class="cls-2" x="310.63" y="155.02" width="24.62" height="28.13"/><rect class="cls-3" x="175.2" y="122.48" width="135.43" height="28.13" transform="translate(485.83 273.09) rotate(180)"/><rect class="cls-3" x="222.56" y="127.12" width="82.94" height="2.37" transform="translate(528.06 256.62) rotate(180)"/><rect class="cls-3" x="222.56" y="131.24" width="82.94" height="2.37" transform="translate(528.06 264.85) rotate(180)"/><rect class="cls-3" x="222.56" y="135.36" width="82.94" height="2.37" transform="translate(528.06 273.09) rotate(180)"/><rect class="cls-3" x="222.56" y="139.47" width="82.94" height="2.37" transform="translate(528.06 281.32) rotate(180)"/><rect class="cls-3" x="222.56" y="143.59" width="82.94" height="2.37" transform="translate(528.06 289.55) rotate(180)"/><path class="cls-2" d="M209.92,129.48a2.36,2.36,0,1,0,2.35-2.36A2.35,2.35,0,0,0,209.92,129.48Z"/><circle class="cls-1" cx="204.51" cy="129.48" r="2.36"/><circle class="cls-1" cx="196.74" cy="129.48" r="2.36"/><path class="cls-1" d="M186.62,129.48a2.36,2.36,0,1,0,2.36-2.36A2.36,2.36,0,0,0,186.62,129.48Z"/><path class="cls-2" d="M178.86,129.48a2.36,2.36,0,1,0,2.36-2.36A2.36,2.36,0,0,0,178.86,129.48Z"/><path class="cls-1" d="M209.92,136.54a2.36,2.36,0,1,0,2.35-2.35A2.36,2.36,0,0,0,209.92,136.54Z"/><path class="cls-2" d="M202.15,136.54a2.36,2.36,0,1,0,2.36-2.35A2.36,2.36,0,0,0,202.15,136.54Z"/><path class="cls-2" d="M194.39,136.54a2.36,2.36,0,1,0,2.35-2.35A2.36,2.36,0,0,0,194.39,136.54Z"/><path class="cls-2" d="M186.62,136.54a2.36,2.36,0,1,0,2.36-2.35A2.36,2.36,0,0,0,186.62,136.54Z"/><path class="cls-1" d="M178.86,136.54a2.36,2.36,0,1,0,2.36-2.35A2.36,2.36,0,0,0,178.86,136.54Z"/><path class="cls-1" d="M209.92,143.61a2.36,2.36,0,1,0,2.35-2.36A2.35,2.35,0,0,0,209.92,143.61Z"/><circle class="cls-1" cx="204.51" cy="143.61" r="2.36"/><circle class="cls-2" cx="196.74" cy="143.61" r="2.36"/><path class="cls-1" d="M186.62,143.61a2.36,2.36,0,1,0,2.36-2.36A2.36,2.36,0,0,0,186.62,143.61Z"/><path class="cls-1" d="M178.86,143.61a2.36,2.36,0,1,0,2.36-2.36A2.36,2.36,0,0,0,178.86,143.61Z"/><rect class="cls-2" x="217.74" y="127.12" width="1.36" height="18.84" transform="translate(436.83 273.09) rotate(180)"/><rect class="cls-2" x="310.63" y="122.48" width="24.62" height="28.13"/><rect class="cls-3" x="175.2" y="88.57" width="135.43" height="28.13" transform="translate(485.83 205.27) rotate(180)"/><rect class="cls-3" x="222.56" y="93.21" width="82.94" height="2.37" transform="translate(528.06 188.8) rotate(180)"/><rect class="cls-3" x="222.56" y="97.33" width="82.94" height="2.37" transform="translate(528.06 197.04) rotate(180)"/><rect class="cls-3" x="222.56" y="101.45" width="82.94" height="2.37" transform="translate(528.06 205.27) rotate(180)"/><rect class="cls-3" x="222.56" y="105.56" width="82.94" height="2.37" transform="translate(528.06 213.5) rotate(180)"/><rect class="cls-3" x="222.56" y="109.68" width="82.94" height="2.37" transform="translate(528.06 221.73) rotate(180)"/><path class="cls-2" d="M209.92,95.57a2.36,2.36,0,1,0,2.35-2.36A2.35,2.35,0,0,0,209.92,95.57Z"/><path class="cls-1" d="M202.15,95.57a2.36,2.36,0,1,0,2.36-2.36A2.36,2.36,0,0,0,202.15,95.57Z"/><path class="cls-1" d="M194.39,95.57a2.36,2.36,0,1,0,2.35-2.36A2.35,2.35,0,0,0,194.39,95.57Z"/><path class="cls-1" d="M186.62,95.57A2.36,2.36,0,1,0,189,93.21,2.36,2.36,0,0,0,186.62,95.57Z"/><path class="cls-2" d="M178.86,95.57a2.36,2.36,0,1,0,2.36-2.36A2.36,2.36,0,0,0,178.86,95.57Z"/><path class="cls-1" d="M209.92,102.63a2.36,2.36,0,1,0,2.35-2.35A2.35,2.35,0,0,0,209.92,102.63Z"/><path class="cls-1" d="M202.15,102.63a2.36,2.36,0,1,0,2.36-2.35A2.36,2.36,0,0,0,202.15,102.63Z"/><path class="cls-2" d="M194.39,102.63a2.36,2.36,0,1,0,2.35-2.35A2.35,2.35,0,0,0,194.39,102.63Z"/><path class="cls-2" d="M186.62,102.63a2.36,2.36,0,1,0,2.36-2.35A2.36,2.36,0,0,0,186.62,102.63Z"/><path class="cls-1" d="M178.86,102.63a2.36,2.36,0,1,0,2.36-2.35A2.36,2.36,0,0,0,178.86,102.63Z"/><path class="cls-2" d="M209.92,109.7a2.36,2.36,0,1,0,2.35-2.36A2.35,2.35,0,0,0,209.92,109.7Z"/><path class="cls-1" d="M202.15,109.7a2.36,2.36,0,1,0,2.36-2.36A2.36,2.36,0,0,0,202.15,109.7Z"/><path class="cls-1" d="M194.39,109.7a2.36,2.36,0,1,0,2.35-2.36A2.35,2.35,0,0,0,194.39,109.7Z"/><path class="cls-1" d="M186.62,109.7a2.36,2.36,0,1,0,2.36-2.36A2.36,2.36,0,0,0,186.62,109.7Z"/><path class="cls-2" d="M178.86,109.7a2.36,2.36,0,1,0,2.36-2.36A2.36,2.36,0,0,0,178.86,109.7Z"/><rect class="cls-2" x="217.74" y="93.21" width="1.36" height="18.84" transform="translate(436.83 205.27) rotate(180)"/><rect class="cls-2" x="310.63" y="88.57" width="24.62" height="28.13"/><rect class="cls-3" x="175.2" y="54.66" width="135.43" height="28.13" transform="translate(485.83 137.45) rotate(180)"/><rect class="cls-3" x="222.56" y="59.31" width="82.94" height="2.37" transform="translate(528.06 120.99) rotate(180)"/><rect class="cls-3" x="222.56" y="63.42" width="82.94" height="2.37" transform="translate(528.06 129.22) rotate(180)"/><rect class="cls-3" x="222.56" y="67.54" width="82.94" height="2.37" transform="translate(528.06 137.45) rotate(180)"/><rect class="cls-3" x="222.56" y="71.65" width="82.94" height="2.37" transform="translate(528.06 145.68) rotate(180)"/><rect class="cls-3" x="222.56" y="75.77" width="82.94" height="2.37" transform="translate(528.06 153.92) rotate(180)"/><path class="cls-1" d="M209.92,61.66a2.36,2.36,0,1,0,2.35-2.35A2.36,2.36,0,0,0,209.92,61.66Z"/><path class="cls-2" d="M202.15,61.66a2.36,2.36,0,1,0,2.36-2.35A2.36,2.36,0,0,0,202.15,61.66Z"/><path class="cls-1" d="M194.39,61.66a2.36,2.36,0,1,0,2.35-2.35A2.36,2.36,0,0,0,194.39,61.66Z"/><path class="cls-1" d="M186.62,61.66A2.36,2.36,0,1,0,189,59.31,2.36,2.36,0,0,0,186.62,61.66Z"/><path class="cls-2" d="M178.86,61.66a2.36,2.36,0,1,0,2.36-2.35A2.36,2.36,0,0,0,178.86,61.66Z"/><path class="cls-1" d="M209.92,68.73a2.36,2.36,0,1,0,2.35-2.36A2.35,2.35,0,0,0,209.92,68.73Z"/><path class="cls-1" d="M202.15,68.73a2.36,2.36,0,1,0,2.36-2.36A2.36,2.36,0,0,0,202.15,68.73Z"/><path class="cls-2" d="M194.39,68.73a2.36,2.36,0,1,0,2.35-2.36A2.35,2.35,0,0,0,194.39,68.73Z"/><path class="cls-2" d="M186.62,68.73A2.36,2.36,0,1,0,189,66.37,2.36,2.36,0,0,0,186.62,68.73Z"/><path class="cls-1" d="M178.86,68.73a2.36,2.36,0,1,0,2.36-2.36A2.36,2.36,0,0,0,178.86,68.73Z"/><path class="cls-2" d="M209.92,75.79a2.36,2.36,0,1,0,2.35-2.35A2.36,2.36,0,0,0,209.92,75.79Z"/><path class="cls-1" d="M202.15,75.79a2.36,2.36,0,1,0,2.36-2.35A2.36,2.36,0,0,0,202.15,75.79Z"/><path class="cls-1" d="M194.39,75.79a2.36,2.36,0,1,0,2.35-2.35A2.36,2.36,0,0,0,194.39,75.79Z"/><path class="cls-2" d="M186.62,75.79A2.36,2.36,0,1,0,189,73.44,2.36,2.36,0,0,0,186.62,75.79Z"/><path class="cls-1" d="M178.86,75.79a2.36,2.36,0,1,0,2.36-2.35A2.36,2.36,0,0,0,178.86,75.79Z"/><rect class="cls-2" x="217.74" y="59.31" width="1.36" height="18.84" transform="translate(436.83 137.45) rotate(180)"/><rect class="cls-2" x="310.63" y="54.66" width="24.62" height="28.13"/><rect class="cls-3" x="175.2" y="20.75" width="135.43" height="28.13" transform="translate(485.83 69.63) rotate(180)"/><rect class="cls-3" x="222.56" y="25.4" width="82.94" height="2.37" transform="translate(528.06 53.17) rotate(180)"/><rect class="cls-3" x="222.56" y="29.51" width="82.94" height="2.37" transform="translate(528.06 61.4) rotate(180)"/><rect class="cls-3" x="222.56" y="33.63" width="82.94" height="2.37" transform="translate(528.06 69.63) rotate(180)"/><rect class="cls-3" x="222.56" y="37.75" width="82.94" height="2.37" transform="translate(528.06 77.87) rotate(180)"/><rect class="cls-3" x="222.56" y="41.86" width="82.94" height="2.37" transform="translate(528.06 86.1) rotate(180)"/><path class="cls-1" d="M209.92,27.75a2.36,2.36,0,1,0,2.35-2.35A2.36,2.36,0,0,0,209.92,27.75Z"/><path class="cls-1" d="M202.15,27.75a2.36,2.36,0,1,0,2.36-2.35A2.36,2.36,0,0,0,202.15,27.75Z"/><path class="cls-1" d="M194.39,27.75a2.36,2.36,0,1,0,2.35-2.35A2.36,2.36,0,0,0,194.39,27.75Z"/><path class="cls-2" d="M186.62,27.75A2.36,2.36,0,1,0,189,25.4,2.36,2.36,0,0,0,186.62,27.75Z"/><path class="cls-1" d="M178.86,27.75a2.36,2.36,0,1,0,2.36-2.35A2.36,2.36,0,0,0,178.86,27.75Z"/><path class="cls-2" d="M209.92,34.82a2.36,2.36,0,1,0,2.35-2.36A2.35,2.35,0,0,0,209.92,34.82Z"/><path class="cls-1" d="M202.15,34.82a2.36,2.36,0,1,0,2.36-2.36A2.36,2.36,0,0,0,202.15,34.82Z"/><path class="cls-2" d="M194.39,34.82a2.36,2.36,0,1,0,2.35-2.36A2.35,2.35,0,0,0,194.39,34.82Z"/><path class="cls-1" d="M186.62,34.82A2.36,2.36,0,1,0,189,32.46,2.36,2.36,0,0,0,186.62,34.82Z"/><path class="cls-1" d="M178.86,34.82a2.36,2.36,0,1,0,2.36-2.36A2.36,2.36,0,0,0,178.86,34.82Z"/><path class="cls-1" d="M209.92,41.88a2.36,2.36,0,1,0,2.35-2.35A2.36,2.36,0,0,0,209.92,41.88Z"/><path class="cls-2" d="M202.15,41.88a2.36,2.36,0,1,0,2.36-2.35A2.36,2.36,0,0,0,202.15,41.88Z"/><path class="cls-1" d="M194.39,41.88a2.36,2.36,0,1,0,2.35-2.35A2.36,2.36,0,0,0,194.39,41.88Z"/><path class="cls-1" d="M186.62,41.88A2.36,2.36,0,1,0,189,39.53,2.36,2.36,0,0,0,186.62,41.88Z"/><path class="cls-2" d="M178.86,41.88a2.36,2.36,0,1,0,2.36-2.35A2.36,2.36,0,0,0,178.86,41.88Z"/><rect class="cls-2" x="217.74" y="25.4" width="1.36" height="18.84" transform="translate(436.83 69.63) rotate(180)"/><rect class="cls-2" x="310.63" y="20.75" width="24.62" height="28.13"/><rect class="cls-3" x="175.2" y="-13.16" width="135.43" height="28.13" transform="translate(485.83 1.82) rotate(180)"/><rect class="cls-3" x="222.56" y="-0.28" width="82.94" height="2.37" transform="translate(528.06 1.82) rotate(180)"/><rect class="cls-3" x="222.56" y="3.84" width="82.94" height="2.37" transform="translate(528.06 10.05) rotate(180)"/><rect class="cls-3" x="222.56" y="7.95" width="82.94" height="2.37" transform="translate(528.06 18.28) rotate(180)"/><path class="cls-1" d="M209.92.91a2.36,2.36,0,1,0,2.35-2.36A2.35,2.35,0,0,0,209.92.91Z"/><path class="cls-1" d="M202.15.91a2.36,2.36,0,1,0,2.36-2.36A2.36,2.36,0,0,0,202.15.91Z"/><path class="cls-2" d="M194.39.91a2.36,2.36,0,1,0,2.35-2.36A2.35,2.35,0,0,0,194.39.91Z"/><path class="cls-1" d="M186.62.91A2.36,2.36,0,1,0,189-1.45,2.36,2.36,0,0,0,186.62.91Z"/><path class="cls-2" d="M178.86.91a2.36,2.36,0,1,0,2.36-2.36A2.36,2.36,0,0,0,178.86.91Z"/><path class="cls-1" d="M209.92,8a2.36,2.36,0,1,0,2.35-2.35A2.36,2.36,0,0,0,209.92,8Z"/><path class="cls-2" d="M202.15,8a2.36,2.36,0,1,0,2.36-2.35A2.36,2.36,0,0,0,202.15,8Z"/><path class="cls-1" d="M194.39,8a2.36,2.36,0,1,0,2.35-2.35A2.36,2.36,0,0,0,194.39,8Z"/><path class="cls-1" d="M186.62,8A2.36,2.36,0,1,0,189,5.62,2.36,2.36,0,0,0,186.62,8Z"/><path class="cls-1" d="M178.86,8a2.36,2.36,0,1,0,2.36-2.35A2.36,2.36,0,0,0,178.86,8Z"/><rect class="cls-2" x="217.74" y="-8.51" width="1.36" height="18.84" transform="translate(436.83 1.82) rotate(180)"/><rect class="cls-2" x="310.63" y="-13.16" width="24.62" height="28.13"/><path class="cls-4" d="M42.75,100.12A20.8,20.8,0,0,0,62,120.86v.06H179.75A24.44,24.44,0,0,0,182,72.14a41.17,41.17,0,0,0-79.8-12.87,24.15,24.15,0,0,0-10.93-2.59A24.43,24.43,0,0,0,66.92,79.61a20.77,20.77,0,0,0-24.17,20.51Z"/><rect class="cls-3" x="112.84" y="85.36" width="21.25" height="18.25"/><polygon class="cls-3" points="105.55 85.36 141.39 85.36 123.47 67.48 105.55 85.36"/></svg>