<svg id="Слой_1" data-name="Слой 1" xmlns="http://www.w3.org/2000/svg" xmlns:xlink="http://www.w3.org/1999/xlink" viewBox="0 0 382 170"><defs><style>.cls-1,.cls-9{fill:none;}.cls-2{fill:#fff;}.cls-3{clip-path:url(#clip-path);}.cls-4{fill:#4a148c;}.cls-5{fill:#306;}.cls-6{fill:#ffaba1;}.cls-7{fill:#ffc800;}.cls-8{opacity:0.1;}.cls-9{stroke:#fcaba0;stroke-linecap:round;stroke-linejoin:round;stroke-width:0;}</style><clipPath id="clip-path"><rect class="cls-1" x="-84.12" y="-40.22" width="550.24" height="377"/></clipPath></defs><rect class="cls-2" x="-33.56" y="-32.22" width="456" height="223"/><g class="cls-3"><path class="cls-4" d="M63.86,67a27.52,27.52,0,1,1,37.42,10.71A27.53,27.53,0,0,1,63.86,67Z"/><path class="cls-2" d="M102.38,53.25c-1.8,9.19-10,16.6-10,16.6S81.5,67.66,75.28,60.66c-5.18-5.83-5.06-13.7-.23-16.74C82,39.57,87.53,52.2,87.53,52.2s-1.66-13.69,6.53-13.47C99.77,38.88,103.88,45.59,102.38,53.25Z"/><path class="cls-4" d="M200.71,266.33c-1,1.78-106.83,21.36-112.11,20.61a3.61,3.61,0,0,1-.74-.2c-6.68-2.07-39.41-24.68-41.9-26.62-6.14-4.76,10.7-46.63,16.89-54,4.12-4.91,12.62-7.8,12.62-7.8s14.77-74.58,27.9-91.59c3.29-4.27,69.11-14.91,81.65-11.17,5.37,1.6,19.4,12.44,20,14.64v0C205.84,113.43,201.76,264.52,200.71,266.33Z"/><path class="cls-5" d="M200.71,266.33c-1,1.78-106.83,21.36-112.11,20.61a3.61,3.61,0,0,1-.74-.2c6.36-29,36.32-165.09,37.56-166.11s64.39-9.42,79.65-10.43C205.84,113.43,201.76,264.52,200.71,266.33Z"/><path class="cls-4" d="M138.72,107.13c-1.21-.85-3.92-15.22-2.37-18.37,1.75-3.53,27.29-5.46,29.16-2.91s4.6,16.89,3.91,17.52-4.84,1.72-5.54.87S161.56,91.43,161,90.87s-18.42.74-18.9,1.73,2.68,12.88,2,13.51S139.89,108,138.72,107.13Z"/><path class="cls-6" d="M186.36,125.77c18.43,41.12,63,109.49,82.9,92.56,29.82-25.31,50-81.3,58-103.93,4.48-12.69-60.12-33.91-64.08-22.4-5.63,16.37-14.46,50.56-19.58,55.4-2.69,2.55-23.82-27.16-39.85-41.25C180.6,85.84,180.47,112.63,186.36,125.77Z"/><path class="cls-6" d="M343.36,95.33c-5.75,13-27.88,34.81-35.24,38s-46.22-31.92-45.4-40.13,24-51.53,36.83-58.17S349.33,81.92,343.36,95.33Z"/><path class="cls-6" d="M265.76,84.15s.92-18.4-3.72-34c-3.9-13.08-11.18-32.06-4.22-34.42,14.28-4.85,32.4,42.49,32.4,42.49s4.64,22.17-9.08,28.23C272.54,90.29,265.76,84.15,265.76,84.15Z"/><path class="cls-6" d="M281.86,49.25c.94,7.45,9.17,2.08,9.17,2.08s-10,10.58-6,17.89c3.81,7,13.53.19,14.24-.29-.53.56-9.46,10.53-4.75,17.46,4.91,7.2,13.49-1.34,14-1.89-.33.68-4.5,9.86.28,14.31C317,106.46,328.32,83.29,337,80.7c0,0,6.07,14.25,6.33,14.63,0,0,11.22-21.82,7.07-33.37a7.84,7.84,0,0,0-8.29-5.26s4.4-6.63.86-12.21c-1.83-2.85-8-2.48-8-2.48s3.3-5.46-.16-10.22C332.08,28,326.29,29,326.29,29s.74-6.71-3.33-9.69C314.76,13.23,279.86,33.3,281.86,49.25Z"/><path class="cls-5" d="M325.35,29a.1.1,0,0,0-.06-.2c-13.09,3.8-26.31,12-34.73,22.81-.28.35.18,1,.56.62C301.93,42.7,312.28,35.14,325.35,29Z"/><path class="cls-5" d="M335.11,41.84c.15-.06,0-.3-.12-.25-13.47,4-28.1,13.62-36.34,27.23-.28.47-.07,1.17.3.66C305.11,60.84,323.32,47.34,335.11,41.84Z"/><path class="cls-5" d="M308.26,85.64c8.41-12.75,20.06-21.52,33.31-28.81.18-.09,0-.33-.14-.29C334,58.34,326,63.87,320.17,68.7a40.2,40.2,0,0,0-12.35,16.65C307.72,85.61,308.09,85.92,308.26,85.64Z"/><path class="cls-5" d="M290.78,51.32c-.33.42.65.44.34.87-1.34,1.84-8.43,13.59-5.18,17.24,2.61,2.93,8.36,1.45,10.34,0l5-3.6L297.83,71a25.4,25.4,0,0,0-3.44,7.39c-.69,2.58-.69,5.33.67,7.34A5.16,5.16,0,0,0,301.11,88a15.62,15.62,0,0,0,6.49-4.32l5-5.26-3,6.59a24,24,0,0,0-1.81,5.76,9.76,9.76,0,0,0,.43,5.61,4.63,4.63,0,0,0,4,2.77c1.76,0,3.64-1,5.32-2.15,3.4-2.36,6.35-5.48,9.42-8.43,1.52-1.49,3.05-3,4.66-4.42A15.15,15.15,0,0,1,337,80.7c-2,.81-3.47,2.42-5,3.89s-2.88,3.13-4.29,4.73a68.74,68.74,0,0,1-9.17,9.12c-1.77,1.28-3.73,2.61-6.29,2.78a6.59,6.59,0,0,1-6.1-3.86,11.91,11.91,0,0,1-.72-7A26.08,26.08,0,0,1,307.41,84l2,1.33a17.84,17.84,0,0,1-7.61,5.18,7.45,7.45,0,0,1-5.05-.19A8.46,8.46,0,0,1,293,87c-1.86-2.89-1.67-6.42-.85-9.28a27.37,27.37,0,0,1,3.91-8.08l1.56,1.52c-2.58,1.74-8.82,4.09-13.44.06C278.93,65.1,288.82,53.34,290.78,51.32Z"/><path class="cls-5" d="M291,51.33a15.18,15.18,0,0,1-4.48,1.05,3.47,3.47,0,0,1-3.21-1.47,7,7,0,0,1-.73-4c.08-1.5.24-3.09.47-4.72a12,12,0,0,0-2.1,4.5,7,7,0,0,0,.6,5.34,5,5,0,0,0,2.36,1.83,5.17,5.17,0,0,0,2.83.11A8.11,8.11,0,0,0,291,51.33Z"/><path class="cls-7" d="M259.21,93.24l67.25,46.83s-40.17,83.23-65,83-60.68-62.56-73.1-89.5-5-49.78,20-25.2c25.17,24.73,34,34.66,34.79,34.32C244.76,142.05,259.21,93.24,259.21,93.24Z"/><path class="cls-7" d="M326.46,140.07S298.61,197.79,275,217c-4.74,3.85-9.32,6.15-13.48,6.1-24.82-.21-60.68-62.56-73.1-89.49-7.7-16.68-7.77-31.79-.77-35,4.3-2,11.28.47,20.81,9.83,25.15,24.72,34,34.66,34.78,34.32,1.57-.64,16-49.44,16-49.44Z"/><path class="cls-5" d="M310.55,146.11c-1.77-1.47-3.57-2.9-5.37-4.33q-5.49-4.35-11-8.65c-7.3-5.7-14.76-11.19-22.28-16.61-4.27-3.07-8.45-6.31-12.85-9.19a.2.2,0,0,0-.24.32c3.49,3.08,7.23,5.9,10.86,8.82s7.23,5.89,10.91,8.76q11,8.52,22.19,16.72c2.1,1.54,4.15,3.16,6.31,4.61,1.11.74,2.16,1.56,3.28,2.28s2.3,1.37,3.4,2.13a.11.11,0,1,0,.13-.18C314.08,149.27,312.38,147.62,310.55,146.11Z"/><path class="cls-5" d="M243.76,141.17a170.25,170.25,0,0,0-6.32,21.23c-.87,3.55-1.56,7.15-2.24,10.74a80.3,80.3,0,0,0-1.43,10.79c0,.14.19.14.22,0,1.11-3.46,1.93-7.07,2.74-10.62s1.69-7.11,2.5-10.68c1.6-7.14,3.48-14.22,4.88-21.4A.18.18,0,0,0,243.76,141.17Z"/><path class="cls-8" d="M275,217c-4.74,3.85-9.32,6.15-13.48,6.1-24.82-.21-60.68-62.56-73.1-89.49-7.7-16.68-7.77-31.79-.77-35Z"/><path class="cls-7" d="M83.39,294.5l168.7,0c-1.12-7.88-34.92-165.76-49.27-189.84-6.82-11.45-34.81-19-53.61-.81C113.27,138.58,82,292.94,83.39,294.5Z"/><path class="cls-5" d="M231.12,196q-.66-3.24-1.4-6.47c-1-4.23-2-8.44-3.15-12.64-1.58-5.91-3.29-11.81-5.06-17.68-.09-.94-.27-1.88-.39-2.81-.18-1.26-.34-2.53-.54-3.8-.4-2.54-.81-5.09-1.19-7.64a.12.12,0,0,0-.24,0c.08,2.62.26,5.2.59,7.8.06.42.13.84.2,1.27-.22-.71-.42-1.43-.65-2.14-.73-2.32-1.56-4.62-2.34-6.93s-1.49-4.78-2.42-7.09a.11.11,0,0,0-.21.06c.47,2.15,1.14,4.25,1.71,6.38s1.08,4.14,1.6,6.22c1.07,4.21,2.3,8.37,3.43,12.56,2.25,8.38,4.35,16.81,6.71,25.16q1,3.43,1.95,6.85a73.9,73.9,0,0,0,2.25,7.14c0,.11.23.1.22,0A56.74,56.74,0,0,0,231.12,196Z"/><path class="cls-5" d="M202.66,110.5c-1,3.22-2.8,6.25-5.65,8-3,1.9-6.88,1.87-10.31,1.52-7.3-.75-14-4.16-20-8.52-1.7-1.24-3.35-2.58-5-3.94a49,49,0,0,1-4.57-4.21c-.09-.1-.24.06-.14.17,1.38,1.49,2.68,3,4.07,4.52a47.93,47.93,0,0,0,4.29,4,44.43,44.43,0,0,0,9.89,6.3,35.72,35.72,0,0,0,11,3.11c3.61.38,7.66.31,10.82-1.8a14.58,14.58,0,0,0,5.76-9.15A.1.1,0,1,0,202.66,110.5Z"/><path class="cls-6" d="M191.29,112.78c-6.51,1.77-24.11-4-30.5-14.62-.43-.73.4-8.64,1-18.29.32-5.87.53-12.4.3-18.37-.06-1.23,37.84,7.63,37.84,7.63s-3.19,12.67-2.72,23.08a14.31,14.31,0,0,0,.35,2.45,3,3,0,0,1,.07.4C198.54,99.69,199.18,110.65,191.29,112.78Z"/><path class="cls-5" d="M197.53,94.66c0,.11,0,.24.07.4a23.61,23.61,0,0,1-3.85.35c-20.87.37-28.65-25.14-30.72-34,5.83.49,35.65,7.45,36.81,7.71h0s-3.18,12.67-2.71,23.09A13.38,13.38,0,0,0,197.53,94.66Z"/><path class="cls-9" d="M175.21,88.62s0,0,0,0"/><path class="cls-6" d="M157.14,18.28C153,31.56,159.82,70,169.23,78.64,182.88,91.14,205.32,92.45,216,76c10.31-15.92.55-65.89-10-73.73C190.49-9.27,163.24-1.33,157.14,18.28Z"/><path class="cls-5" d="M195.72,41.83c0-.09-.18.16-.16.26.53,2.58.7,5.62-1.5,6.89-.07,0,0,.17.05.14C196.9,48.22,196.64,44.19,195.72,41.83Z"/><path class="cls-5" d="M192.94,39.52c-4.22.4-3.11,8.82.8,8.45S196.48,39.18,192.94,39.52Z"/><path class="cls-5" d="M209.65,39.92c0-.1.22.1.23.2.26,2.62,1,5.58,3.48,6.13.07,0,.08.15,0,.15C210.42,46.38,209.48,42.44,209.65,39.92Z"/><path class="cls-5" d="M211.62,36.89c4.15-.87,5.59,7.5,1.74,8.3S208.14,37.62,211.62,36.89Z"/><path class="cls-5" d="M189.11,36.11a32.41,32.41,0,0,0,3.11-1.58c1.18-.62,2.19-1,2.86-2.21a1.79,1.79,0,0,0-.57-2.12c-1.41-.95-3-.56-4.51.13a6.61,6.61,0,0,0-3.37,3.3A1.92,1.92,0,0,0,189.11,36.11Z"/><path class="cls-5" d="M214.31,32.22a33.7,33.7,0,0,1-3.46-.43c-1.32-.17-2.4-.18-3.44-1.1a1.79,1.79,0,0,1-.19-2.19c1-1.37,2.68-1.56,4.29-1.41a6.52,6.52,0,0,1,4.29,2A1.92,1.92,0,0,1,214.31,32.22Z"/><path class="cls-5" d="M195.28,66c.71.52,1.44,1.28,2.4,1.24a7,7,0,0,0,2.71-1,.1.1,0,0,1,.14.12,3.54,3.54,0,0,1-3.13,1.85,2.79,2.79,0,0,1-2.35-2C195,66,195.18,65.94,195.28,66Z"/><path class="cls-2" d="M205.34,59.88a10.7,10.7,0,0,1-3.79,3.82,4.79,4.79,0,0,1-2.86.56c-2.15-.27-2.46-2.17-2.29-3.86a11.37,11.37,0,0,1,.6-2.63A13.78,13.78,0,0,0,205.34,59.88Z"/><path class="cls-5" d="M197,57.84A8.92,8.92,0,0,0,203.44,61a11.23,11.23,0,0,0,3.21-.27,5.44,5.44,0,0,0,.61-.15l.56-.17a.64.64,0,0,0,.44-.65v0a2.44,2.44,0,0,0-.06-.26v0l0-.23c-.21-2-.81-5-.81-5,.78.27,4.75,1.46,4.55.41-1.67-8.61-3.52-18.19-7-26.42a.24.24,0,0,0-.46.13c1.27,8.35,4,16.41,5.42,24.77a16,16,0,0,0-4.37-.72c-.27.12,1.27,5.84,1.29,6.75a.67.67,0,0,1,0,.1c-3.31.87-6,.19-9.57-1.64C197,57.46,196.81,57.66,197,57.84Z"/><path class="cls-5" d="M163,49.12c7.52,0,6-32,6-32s7.68,3.61,14,4.06a66.75,66.75,0,0,0,14.75-.75c1-.3-12-5.42-12-5.42s17.3,1,22.12-1.8,4.33-4.07,4-5.87-12.7-16.12-35-12A26.19,26.19,0,0,0,157.2,10.42S150.62,21.78,151,27.05C151.5,34.11,155.06,49.12,163,49.12Z"/><path class="cls-6" d="M166.68,50.08S157.81,37.79,152.22,41s1.2,21.09,7.86,23.46a6.72,6.72,0,0,0,9-3.75Z"/><path class="cls-5" d="M154.3,46.05a.09.09,0,0,0,0,.18c4.66,1.81,7.17,6.08,8.94,10.52-1.4-1.7-3.29-2.61-5.57-.94-.12.09,0,.28.13.25a4.13,4.13,0,0,1,4.58,1.38,20.25,20.25,0,0,1,2.23,3.65c.23.41,1,.18.81-.3a.42.42,0,0,1,0-.1C165.38,54.77,160.66,46.56,154.3,46.05Z"/><path class="cls-7" d="M191.67-5.54A54,54,0,0,0,176.44-9.3c-5.85-.46-24.13,1.82-28.36,5.71s-4.56,21.22-4.56,23.76,1.85,17.76,7.56,21.19,5-22.57,13.34-31.59S191.67-5.54,191.67-5.54Z"/><path class="cls-8" d="M191.67-5.53S172.75.75,164.43,9.78s-7.64,35-13.36,31.58c-2.51-1.51-3.81-3.87-5-7.88.8-7.64,3.31-19.56,9.25-28,5.56-7.92,15.57-12.26,26.42-14A61,61,0,0,1,191.67-5.53Z"/><path class="cls-7" d="M153.32,56.7c.17-6.94,6.33-25.8,13.21-36.76s28.28-18.2,31.32-18.17c7.39.08,10,2.19,11.12,1.48s-6.7-5.89-8.84-7-7.84-3.81-11-3.58S166.25-4.24,159.47,4.52,143.65,37.34,145.8,43.3c.51,1.42,2.49,2.27,3.2,4.29.93,2.66,1.65,5.76,2.55,7.6C152.28,56.69,153.3,57.3,153.32,56.7Z"/><path class="cls-5" d="M168,15.09a34.8,34.8,0,0,1-4.95-3.28,25.78,25.78,0,0,1-4.3-4.18c-.09-.12-.28,0-.2.12a19.55,19.55,0,0,0,4,4.73,16.35,16.35,0,0,0,5.35,3C168.07,15.52,168.19,15.2,168,15.09Z"/><path class="cls-5" d="M152.93,49.79c-.22-.49-.57-.91-.83-1.38a8.9,8.9,0,0,1-.73-1.68,16,16,0,0,0-.94-3.33,12.74,12.74,0,0,0-1.73-2.22,4.65,4.65,0,0,1-1.5-2.75.12.12,0,0,0-.23,0c.09,2.1,1.57,3.53,2.58,5.24.64,1.1.67,2.38,1.11,3.55a5.41,5.41,0,0,0,2,2.8C152.77,50.11,153,50,152.93,49.79Z"/><path class="cls-5" d="M155,42.2c-.69-.76-1.43-1.43-2.05-2.26a21.38,21.38,0,0,1-1.61-2.51c-.48-.86-.89-1.75-1.35-2.62-.54-1-1.22-2-1.71-3-.06-.13-.26,0-.19.12.51,1.09.83,2.26,1.31,3.37A24.18,24.18,0,0,0,150.81,38a15.45,15.45,0,0,0,1.75,2.41,7.48,7.48,0,0,0,2.32,1.87C155,42.33,155,42.26,155,42.2Z"/><path class="cls-5" d="M157.16,35.32a19.64,19.64,0,0,1-4-4.07c-1.08-1.52-2.07-3.1-3-4.68-.07-.11-.26,0-.21.09a23.53,23.53,0,0,0,2.63,5.14,11.73,11.73,0,0,0,1.87,2.11,12.42,12.42,0,0,0,2.57,1.6C157.13,35.57,157.27,35.41,157.16,35.32Z"/><path class="cls-5" d="M159.59,28.71A6.71,6.71,0,0,1,157.67,27c-.64-.75-1.26-1.51-1.85-2.29s-1.16-1.49-1.73-2.24a6.77,6.77,0,0,1-1.36-2.48.11.11,0,0,0-.22,0,7,7,0,0,0,.92,2.66,17.4,17.4,0,0,0,1.69,2.64,24.88,24.88,0,0,0,2,2.31,4.53,4.53,0,0,0,2.3,1.42C159.64,29,159.76,28.8,159.59,28.71Z"/><path class="cls-5" d="M161.18,20.41c-.68-.6-1.34-1.2-2-1.85s-1.21-1.33-1.79-2-1.23-1.42-1.78-2.18a.12.12,0,0,0-.2.12,18.06,18.06,0,0,0,1.39,2.46,20.31,20.31,0,0,0,1.78,2.15,21.1,21.1,0,0,0,2,1.9,7.09,7.09,0,0,0,2.32,1.47.16.16,0,0,0,.18-.24A13.3,13.3,0,0,0,161.18,20.41Z"/><path class="cls-5" d="M173.12,10.91c-.72-.82-1.43-1.62-2.23-2.37a30.62,30.62,0,0,0-2.56-2.12,29.6,29.6,0,0,0-5.54-3.37c-.11,0-.25.1-.14.19,3.41,2.65,6.93,5.15,10.31,7.83A.11.11,0,1,0,173.12,10.91Z"/><path class="cls-5" d="M177,4.79a14.13,14.13,0,0,0-2.45-2.12,31.12,31.12,0,0,0-6.09-3c-.13-.05-.24.13-.11.2,1.85,1.11,3.72,2.19,5.51,3.4a30,30,0,0,1,2.57,1.91c.81.7,1.45,1.55,2.23,2.27a.09.09,0,0,0,.14-.09A7.94,7.94,0,0,0,177,4.79Z"/><path class="cls-5" d="M182.65,1.8a15.21,15.21,0,0,0-2.27-2.12A17.92,17.92,0,0,0,175.19-3c-.13,0-.2.16-.09.22A34.09,34.09,0,0,1,180,.4c.77.61,1.51,1.26,2.27,1.9s1.39,1.45,2.2,2c.06,0,.13,0,.1-.11A16.58,16.58,0,0,0,182.65,1.8Z"/><path class="cls-5" d="M186.65-1.84c-.75-.56-1.53-1.07-2.32-1.58a8.43,8.43,0,0,0-2.47-1.24c-.13,0-.18.14-.08.21,1.47,1.06,2.92,2.15,4.37,3.24a24.72,24.72,0,0,1,3.42,3.66c0,.06.14,0,.12-.07A8.83,8.83,0,0,0,186.65-1.84Z"/><path class="cls-5" d="M191.79-3.2A14.18,14.18,0,0,0,187-5.86c-.12,0-.2.16-.08.21a17.8,17.8,0,0,1,4.35,3,24.32,24.32,0,0,1,3.5,4c.05.07.19,0,.15-.06A11.74,11.74,0,0,0,191.79-3.2Z"/><path class="cls-5" d="M198.74-.43a9.13,9.13,0,0,0-.64-1,12.18,12.18,0,0,0-1.63-1.81A24.51,24.51,0,0,0,192.4-6.1c-.13-.07-.24.13-.11.21A19.69,19.69,0,0,1,196.11-3a15.52,15.52,0,0,1,1.57,1.77,10.69,10.69,0,0,1,.66,1,6.21,6.21,0,0,0,.62,1,.12.12,0,0,0,.2-.08A3.22,3.22,0,0,0,198.74-.43Z"/><path class="cls-5" d="M202.92-.25a17.29,17.29,0,0,0-1.34-1.5,17,17,0,0,0-1.5-1.31c-.55-.42-1.11-.81-1.63-1.25a.11.11,0,1,0-.14.18,11.94,11.94,0,0,1,1.54,1.39l1.36,1.38L202.57,0a18.73,18.73,0,0,0,1.37,1.44.09.09,0,0,0,.14-.11A8.33,8.33,0,0,0,202.92-.25Z"/><path class="cls-4" d="M146.62,103.88c-3.24-.33,11.33-9.91,14.83-7.11s21.11,46.33,15.39,93.57-90.55,102.35-94,95.29c-1.45-3-.46-10,1.83-12.69,3.22-3.74,62.75-50.17,69.46-79.45C160.08,167.44,154.59,104.69,146.62,103.88Z"/><path class="cls-6" d="M117.06,128.63C63.39,185.18,14.91,282.2,44.17,287.26c25.29,4.36,104.65-18.69,124.27-27,8.55-3.62-13.79-75.57-22.68-71.14-7.69,3.83-17.79,8-19,7.94-2.57-.18,8.08-34.77,17.4-64.25C157.94,89.26,137.22,107.4,117.06,128.63Z"/><path class="cls-6" d="M226.75,162c5.25,5.62,1.33,12.56,1.33,12.56s6,1.41,9.15,6.39c3.63,5.7-3.72,13.89-3.72,13.89a20.17,20.17,0,0,1,8.57,8.28c2.93,5.81-3.31,15.13-3.31,15.13s4,5.44,3,12C240,241.53,224,248.36,213.83,252.8s-43,7.55-49.24,8.78L135.52,196.8s39.76-32.84,52.42-36.38C198.6,157.45,220.85,155.69,226.75,162Z"/><path class="cls-7" d="M144.42,185.76l24.39,80.32S57.49,301,38.94,287.54s20.84-106,92.53-173.8c25.15-23.78,21,3.77,12.47,31.25-9.83,31.83-13.44,49.06-13.44,49.06Z"/><path class="cls-5" d="M146.38,162.94c-1.82,2.3-4,4.29-5.8,6.58l-.29.37c2.58-7,5-14,7.37-21,0-.11-.14-.19-.19-.08-3.82,8.62-7.67,17.23-11.07,26-1.71,4.42-7.74,20.14-7.39,20.72.2.35.54.49.79.15.07-.09,5.13-12,5.46-12.79,1.06-2.66,2.1-5.33,3.14-8,0-.08.08-.17.14-.25.36-.52.8-1,1.2-1.5.81-1,1.59-2.11,2.38-3.17,1.64-2.17,2.91-4.56,4.56-6.72C146.84,163,146.54,162.73,146.38,162.94Z"/></g></svg>