<svg id="Слой_1" data-name="Слой 1" xmlns="http://www.w3.org/2000/svg" viewBox="0 0 382 170"><defs><style>.cls-1{fill:#fff;}.cls-2{fill:#4a148c;}</style></defs><rect class="cls-1" x="-33.56" y="-13.22" width="456" height="223"/><path class="cls-2" d="M92,126.64a3.4,3.4,0,0,1-2.46-.93,29.53,29.53,0,0,1-3.11-2.63,13.89,13.89,0,0,1-2.4-3c-.59-1-.66-1.65-.22-2a144.91,144.91,0,0,1,14.09-6.06q7.77-2.89,15.74-5.08c-1.53-1.32-2.19-2.41-2-3.28a183,183,0,0,1,11.09-18.14q5.75-8.2,12-15.74t13.06-15.08q6.83-7.53,14.37-16.39a102.17,102.17,0,0,0-23.39,11.75,233.2,233.2,0,0,0-24.15,18.85c-.51.29-1.53.16-3.06-.38a30.66,30.66,0,0,1-4.7-2.19,26.89,26.89,0,0,1-4.09-2.79c-1.13-.94-1.52-1.64-1.15-2.07a192,192,0,0,1,23.88-18.25,141.73,141.73,0,0,1,24.86-12.79,128.67,128.67,0,0,1,26.55-7.26,141.27,141.27,0,0,1,29-1.59c.51.15.94.8,1.31,2a17.62,17.62,0,0,1,.71,3.77,13.55,13.55,0,0,1-.17,3.71c-.21,1.14-.62,1.77-1.2,1.92a146.21,146.21,0,0,0-22.73.6,101.27,101.27,0,0,0-19.56,4.1,7.38,7.38,0,0,1,2.19,1.25,16,16,0,0,1,3.77,4.26,1.8,1.8,0,0,1,.27,1.7Q163.59,53,157.64,60.09t-11.2,14.09q-5.25,7-9.94,14.26t-9.18,15.68c1-.14,2-.25,3-.32l2.84-.22c.66,0,1.27.62,1.86,1.86a21.76,21.76,0,0,1,1.42,4.2,19.66,19.66,0,0,1,.54,4.37c0,1.35-.32,2.1-1,2.24a146.31,146.31,0,0,0-22.29,2.9A87.93,87.93,0,0,0,92,126.64Z"/><path class="cls-2" d="M221.07,30c.44-.37,1.08-.18,1.92.54a17.6,17.6,0,0,1,2.46,2.73q12-2.28,25.4-3.71a226.87,226.87,0,0,1,28.8-1.09c.5.14,1.22.91,2.13,2.29a44.46,44.46,0,0,1,2.56,4.48,26.11,26.11,0,0,1,1.81,4.48c.4,1.39.34,2.12-.17,2.19q-11.25-.33-20.32-.17t-16.77.77q-7.71.6-14.43,1.64T221.4,46.65q-8.19,9.29-16.5,19.17T189.28,86.26A211.27,211.27,0,0,0,176.05,108a121.69,121.69,0,0,0-9.29,22.73c-.29.58-1,.53-2.29-.17a21.72,21.72,0,0,1-3.88-2.84,26.09,26.09,0,0,1-3.5-3.77c-1-1.31-1.36-2.29-1.14-3a119.85,119.85,0,0,1,8-18.19,178.81,178.81,0,0,1,10.77-17.43q6-8.52,12.67-16.77t13.72-16.12q-7.22,2.19-15.3,5t-18,6a3.66,3.66,0,0,1-2.62-.11,22.23,22.23,0,0,1-4.1-1.75,41.59,41.59,0,0,1-4.54-2.84,32.26,32.26,0,0,1-4-3.34,11.22,11.22,0,0,1-2.4-3.28,2.3,2.3,0,0,1,.27-2.67A105.18,105.18,0,0,0,165,47.63q7.53-1.43,15.68-3.5t17-4.42q8.91-2.35,18.75-4.54Z"/><path class="cls-2" d="M213,73.42c.36-.44,1-.4,1.8.11a11.33,11.33,0,0,1,2.57,2.24,22.23,22.23,0,0,1,2.35,3.17,5.85,5.85,0,0,1,1,2.89,8,8,0,0,1-1.26,2.41q-1.26,2-3.06,4.7c-1.2,1.82-2.5,3.77-3.88,5.84s-2.64,4-3.77,5.85-2,3.39-2.73,4.7-.93,2.11-.71,2.4.78.07,1.69-.65a36.72,36.72,0,0,0,3.39-3.23q2-2.13,4.53-5C216.63,97,218.32,95,220,93s3.37-4,5-5.9,3-3.62,4.26-5.08q1.42-1.1,2.46-.27t.27,2.46c-1.16,1.6-2.57,3.51-4.21,5.73s-3.4,4.52-5.29,6.89-3.88,4.72-6,7-4.08,4.39-6,6.17a35.6,35.6,0,0,1-5.46,4.26,7.21,7.21,0,0,1-4.43,1.37,7.08,7.08,0,0,1-2.29-.66,10.63,10.63,0,0,1-2.24-1.36,7.44,7.44,0,0,1-1.7-1.86,3.43,3.43,0,0,1-.54-2.24,23.39,23.39,0,0,1,1.58-6.34,72.77,72.77,0,0,1,3.33-7.43q2-3.82,4.26-7.65t4.32-6.88q2-3.06,3.61-5.19C212,74.68,212.7,73.78,213,73.42Zm10.49-18.25a2.3,2.3,0,0,1,2.51-.33,9.43,9.43,0,0,1,3.06,1.75,7.87,7.87,0,0,1,2.13,2.73,2.05,2.05,0,0,1-.27,2.52l-2,2.78c-.77,1.06-1.53,2.17-2.3,3.33s-1.47,2.34-2.13,3.5a30.65,30.65,0,0,0-1.64,3.39c-.14.36-.58.42-1.31.16a6.06,6.06,0,0,1-2.24-1.53,8.53,8.53,0,0,1-1.86-3,7.55,7.55,0,0,1-.27-4.15c.22-.59.53-1.33.93-2.24s.87-1.88,1.42-2.9,1.15-2.06,1.8-3.12A19.93,19.93,0,0,1,223.48,55.17Z"/><path class="cls-2" d="M264.78,80.52A18.09,18.09,0,0,1,263,87.24a51,51,0,0,1-3.6,6.34C258,95.66,256.57,97.7,255,99.7s-3,4-4.31,6a5.33,5.33,0,0,0-1,2.08c.22.29.79.07,1.7-.65a35.57,35.57,0,0,0,3.38-3.23q2-2.13,4.54-5C261,97,262.69,95,264.4,93s3.37-4,5-5.9,3-3.62,4.26-5.08a1.93,1.93,0,0,1,2.52-.27c.73.54.83,1.36.33,2.46q-1.75,2.4-4.27,5.73t-5.41,6.89q-2.9,3.56-5.95,7a80.88,80.88,0,0,1-6,6.17,35.6,35.6,0,0,1-5.46,4.26,7.19,7.19,0,0,1-4.43,1.37,6.93,6.93,0,0,1-2.4-.77,14.86,14.86,0,0,1-2.46-1.53,8.85,8.85,0,0,1-1.91-2,3.41,3.41,0,0,1-.66-2.3,13.36,13.36,0,0,1,1.15-4.48,47.11,47.11,0,0,1,2.57-5,67.66,67.66,0,0,1,4.59-6.83,59.05,59.05,0,0,0,4.37-6.5c.73-1.24,1.29-2.27,1.69-3.11s.53-1.37.39-1.59-.82-.09-1.81.61a35.23,35.23,0,0,0-3.66,3.11q-2.19,2.07-4.86,4.86t-5.41,5.74q-2.73,3-5.3,5.79c-1.71,1.9-3.19,3.57-4.43,5-1.45,2.4-2.62,4.46-3.49,6.17a16.84,16.84,0,0,1-1.86,3.12c-.37.43-.95.41-1.75-.06a9.58,9.58,0,0,1-2.4-2.13,19,19,0,0,1-2.13-3.11,6.31,6.31,0,0,1-.93-2.9,8.23,8.23,0,0,1,1-2.73q1-2.07,2.62-4.92t3.5-6.12c1.27-2.18,2.51-4.28,3.71-6.28s2.26-3.79,3.17-5.36,1.58-2.71,2-3.44l1.8-3.44c.4-.77.79-1.44,1.15-2v.11q.56-.77,1.8,0a11.4,11.4,0,0,1,2.52,2.18A16.49,16.49,0,0,1,239.81,79a5.45,5.45,0,0,1,.82,3,1.62,1.62,0,0,1-.43.88c-.3.36-.6.73-.93,1.09l-1,1.09c-.32.37-.53.59-.6.66-.58.94-1.07,1.78-1.47,2.51l-1.15,2.08q2.73-3.28,5.63-6.45t5.57-5.57a31.27,31.27,0,0,1,5-3.77,6.69,6.69,0,0,1,4.1-1.15,17.86,17.86,0,0,1,2.73.87,17.43,17.43,0,0,1,3.11,1.64,13,13,0,0,1,2.57,2.24A3.32,3.32,0,0,1,264.78,80.52Z"/><path class="cls-2" d="M312.64,95.6a127.76,127.76,0,0,1-12,11.58q-5.85,4.92-12,9.4c-1.24,2-2.58,4.28-4,6.72s-3,5.16-4.7,8.14l-3.11,5.47c-.84,1.45-1.59,2.67-2.24,3.66a29.12,29.12,0,0,1-1.92,2.57c-.62.72-1.36,1.53-2.24,2.4a15.22,15.22,0,0,1-5.95,2.84,6.89,6.89,0,0,1-4.32-.44,6.13,6.13,0,0,1-2.73-2.84,11.24,11.24,0,0,1-1.15-4.31,15.26,15.26,0,0,1,.49-4.87,13.55,13.55,0,0,1,2.08-4.48,33.68,33.68,0,0,1,7.87-8.19,112.78,112.78,0,0,1,9.83-6.34c.73-1.24,1.44-2.49,2.13-3.77s1.37-2.53,2-3.77c-.66.58-1.41,1.26-2.24,2a33.31,33.31,0,0,1-2.57,2.13,22.35,22.35,0,0,1-2.62,1.7,6.76,6.76,0,0,1-2.3.82,5.19,5.19,0,0,1-2.46-.17,8.23,8.23,0,0,1-2.24-1,17,17,0,0,1-4.7-3.77,7.79,7.79,0,0,1-2.07-5.3,20.16,20.16,0,0,1,1.53-6.66,45,45,0,0,1,3.71-7.32,51.16,51.16,0,0,1,5.36-7.16,48,48,0,0,1,6.44-6.07,31.46,31.46,0,0,1,7.05-4.15,15.66,15.66,0,0,1,7.05-1.31,10,10,0,0,1,4.1,1.09,18.69,18.69,0,0,1,3.66,2.52,10.18,10.18,0,0,1,1.75,2.62l2.07-2.4c.29-.44.88-.4,1.75.1a11.14,11.14,0,0,1,2.62,2.24,18.53,18.53,0,0,1,2.3,3.23,6.39,6.39,0,0,1,1,3,11.81,11.81,0,0,1-1.36,2.07q-1.16,1.55-2.79,3.67t-3.44,4.59C301.12,97.4,300,99,299,100.52a13,13,0,0,1-1,1.47c-.36.48-.73,1-1.09,1.59l-.33.54A128.76,128.76,0,0,0,309.8,92.54q4.69-4.7,9.51-10.49,1.43-1.1,2.46-.27t.27,2.46c-1,1.46-2.37,3.18-4,5.19S314.54,93.49,312.64,95.6Zm-52.78,47.21c.44.29,1.1-.11,2-1.2s2.08-2.74,3.61-4.92l3.39-5.68-2.63,2.18a31.18,31.18,0,0,0-2.95,2.35,23.09,23.09,0,0,0-2.67,2.79A7.37,7.37,0,0,0,259.1,141,1.53,1.53,0,0,0,259.86,142.81Zm11.81-33.11a5.88,5.88,0,0,0,2.4-1.15c1.16-.76,2.53-1.75,4.1-3s3.22-2.55,5-4,3.42-3,5-4.43l3.17-5.35a6.47,6.47,0,0,1-2.35,0c-.55-.15-.53-.44.05-.88a16.86,16.86,0,0,0,2.35-2.35,38.08,38.08,0,0,0,2.68-3.44,12.19,12.19,0,0,0,1.64-3.17c.29-.94.07-1.49-.66-1.64q-1.64-.21-4.86,2a51.34,51.34,0,0,0-6.61,5.58,84,84,0,0,0-6.4,7,31.87,31.87,0,0,0-4.2,6.33c-.37.73-.79,1.61-1.26,2.63a19.85,19.85,0,0,0-1.09,2.84,5.32,5.32,0,0,0-.27,2.18C270.43,109.52,270.86,109.77,271.67,109.7Z"/><path class="cls-2" d="M358.65,87.08l-2.73,3.06q-2.52,2.83-5.25,5.57a32.8,32.8,0,0,1-6.12,4.81L342,102.1a5.42,5.42,0,0,1-2.73,1,3.72,3.72,0,0,1-1,.06c-.33,0-.68-.09-1-.17a47.77,47.77,0,0,1-3.5,3.77A30.64,30.64,0,0,1,329.8,110c-.66.43-1.46,1-2.4,1.63a35,35,0,0,1-6.56,3.56,11.09,11.09,0,0,1-3.17.82,7.27,7.27,0,0,1-4.81-1.21,17,17,0,0,1-4.7-3.77,7.32,7.32,0,0,1-2-5.3,24.17,24.17,0,0,1,3.06-10.32,52.49,52.49,0,0,1,7.43-10.82,43.07,43.07,0,0,1,9.94-8.41,18.76,18.76,0,0,1,10.6-3.12,9.78,9.78,0,0,1,4.15,1.09A19.32,19.32,0,0,1,345,76.7,9,9,0,0,1,347.17,80a4.94,4.94,0,0,1,0,2.9,4.4,4.4,0,0,1,.61,3.27,10.31,10.31,0,0,1-2.14,4.59c-1,1.31-1.89,2.43-2.62,3.34s-1.25,1.6-1.58,2.07-.4.75-.22.82.67-.11,1.47-.54a18.62,18.62,0,0,0,2.95-1.92c1.1-.83,2.24-1.8,3.45-2.89s2.38-2.24,3.55-3.44,2.26-2.35,3.28-3.45l2.4-2.73a1.92,1.92,0,0,1,2.51-.27q1.1.81.33,2.46ZM318.22,109.7a4.84,4.84,0,0,0,2.89,0,15.6,15.6,0,0,0,3.88-1.59,36.43,36.43,0,0,0,4.37-2.89,53.9,53.9,0,0,0,4.37-3.72,7.61,7.61,0,0,1-2.45-4.91,9.63,9.63,0,0,1,1.25-6,10.53,10.53,0,0,1,1.64-2.3,25,25,0,0,1,2.4-2.3,24.5,24.5,0,0,1,2.74-2A13,13,0,0,1,342,82.71c.58-1.39.44-2.19-.44-2.41q-1.64-.21-4.86,2a51.34,51.34,0,0,0-6.61,5.58,82.24,82.24,0,0,0-6.39,7,31.54,31.54,0,0,0-4.21,6.33c-.37.73-.77,1.53-1.2,2.41a16.55,16.55,0,0,0-1,2.51,4.61,4.61,0,0,0-.22,2.19A1.58,1.58,0,0,0,318.22,109.7Z"/><path class="cls-2" d="M74.65,99.26H60.77V78.38c0-2.14-.89-3.18-2.62-3.18s-2.61,1-2.61,3.18V99.26H41.65V78.62a16.9,16.9,0,0,1,4.79-12.19,15.74,15.74,0,0,1,11.71-4.91,15.72,15.72,0,0,1,12.72,5.75q3.75,4.47,3.74,12.52V99.26Z"/><path class="cls-2" d="M58.76,35.36A18.31,18.31,0,0,1,72.24,41a18.61,18.61,0,0,1,5.63,13.56,18.38,18.38,0,0,1-5.71,13.65,19.54,19.54,0,0,1-27.49,0A18.36,18.36,0,0,1,39,54.59a18.26,18.26,0,0,1,5.71-13.68A19.43,19.43,0,0,1,58.76,35.36ZM58.39,49a5,5,0,0,0-3.78,1.61A5.42,5.42,0,0,0,53,54.59a5.5,5.5,0,0,0,1.57,3.95,5.17,5.17,0,0,0,7.57,0,5.55,5.55,0,0,0,1.57-3.95,5.46,5.46,0,0,0-1.57-3.94A5.11,5.11,0,0,0,58.39,49Z"/><path class="cls-2" d="M82.18,69.93a6.69,6.69,0,0,1,2-4.87,6.59,6.59,0,0,1,9.46-.12,7.65,7.65,0,0,1,0,10,6.62,6.62,0,0,1-9.46-.12A6.87,6.87,0,0,1,82.18,69.93Z"/><path class="cls-2" d="M20.52,69.93a6.7,6.7,0,0,1,2-4.87A6.58,6.58,0,0,1,32,64.94a7.65,7.65,0,0,1,0,10,6.6,6.6,0,0,1-9.45-.12A6.88,6.88,0,0,1,20.52,69.93Z"/><path class="cls-2" d="M81,115.85H35.29V102.24H81Z"/></svg>