<svg id="Слой_1" data-name="Слой 1" xmlns="http://www.w3.org/2000/svg" viewBox="0 0 382 170"><defs><style>.cls-1{fill:#fff;}.cls-2{fill:#ececec;}.cls-3{fill:#4a148c;}.cls-4{fill:#306;}.cls-5{fill:#ffc800;}</style></defs><rect class="cls-1" x="-660.56" y="-574.22" width="1706" height="1114"/><path class="cls-2" d="M21.43,139.07a2.39,2.39,0,0,1,2.51,0c.21.12.42.25.64.36l.67.34a2.37,2.37,0,0,1,1.39,2.07l.1,3.08,10-.31-.1-3.08a2.42,2.42,0,0,1,1.26-2.17,12.86,12.86,0,0,0,1.28-.78,2.36,2.36,0,0,1,2.49-.16l2.71,1.45L49.17,131l-2.71-1.46a2.36,2.36,0,0,1-1.25-2.16,12.53,12.53,0,0,0-.05-1.5,2.37,2.37,0,0,1,1.11-2.24l2.62-1.63-5.3-8.53L41,115.15a2.4,2.4,0,0,1-2.49,0c-.21-.13-.43-.25-.65-.37s-.43-.23-.66-.33a2.41,2.41,0,0,1-1.4-2.08l-.09-3.08-10,.31.1,3.07a2.4,2.4,0,0,1-1.26,2.17,14.23,14.23,0,0,0-1.28.79,2.38,2.38,0,0,1-2.49.16L18,114.32l-4.75,8.85L16,124.62a2.39,2.39,0,0,1,1.25,2.17,12.53,12.53,0,0,0,.05,1.5,2.41,2.41,0,0,1-1.11,2.25l-2.62,1.62,5.3,8.53ZM24,123.22a8.23,8.23,0,1,1,3.37,11.13A8.23,8.23,0,0,1,24,123.22Z"/><path class="cls-2" d="M49.85,103.33a1.68,1.68,0,0,1,1.55-.82l.52,0,.52,0a1.66,1.66,0,0,1,1.55.82l1.08,1.87,6.1-3.52-1.08-1.87a1.65,1.65,0,0,1,.06-1.75,9,9,0,0,0,.52-.91,1.68,1.68,0,0,1,1.49-.92h2.15v-7H62.16a1.68,1.68,0,0,1-1.49-.92,9,9,0,0,0-.52-.91,1.65,1.65,0,0,1-.06-1.75l1.08-1.87-6.1-3.52L54,82.1a1.69,1.69,0,0,1-1.55.81h-1a1.68,1.68,0,0,1-1.55-.82l-1.08-1.87-6.09,3.52,1.08,1.86a1.69,1.69,0,0,1-.06,1.75,10.45,10.45,0,0,0-.53.92,1.67,1.67,0,0,1-1.49.92H39.53v7h2.15a1.67,1.67,0,0,1,1.49.92,10.45,10.45,0,0,0,.53.92,1.69,1.69,0,0,1,.06,1.75l-1.08,1.86,6.09,3.52ZM46.16,92.71a5.76,5.76,0,1,1,5.76,5.76A5.76,5.76,0,0,1,46.16,92.71Z"/><path class="cls-2" d="M295.55,23a1.67,1.67,0,0,1,.82,1.55c0,.17,0,.35,0,.52s0,.35,0,.52a1.68,1.68,0,0,1-.82,1.55l-1.87,1.08,3.52,6.09,1.87-1.08a1.69,1.69,0,0,1,1.75.06,7.45,7.45,0,0,0,.91.53,1.67,1.67,0,0,1,.92,1.49v2.15h7V35.26a1.67,1.67,0,0,1,.92-1.49,7.45,7.45,0,0,0,.91-.53,1.69,1.69,0,0,1,1.75-.06l1.87,1.08,3.52-6.09-1.88-1.09a1.67,1.67,0,0,1-.81-1.54c0-.18,0-.35,0-.52s0-.35,0-.52a1.67,1.67,0,0,1,.82-1.55l1.87-1.08-3.52-6.09-1.86,1.07a1.65,1.65,0,0,1-1.75-.06,10.36,10.36,0,0,0-.92-.52,1.68,1.68,0,0,1-.92-1.49V12.63h-7v2.15a1.68,1.68,0,0,1-.92,1.49,10.36,10.36,0,0,0-.92.52,1.65,1.65,0,0,1-1.75.06l-1.86-1.07-3.52,6.09Zm10.62-3.7A5.77,5.77,0,1,1,300.41,25,5.77,5.77,0,0,1,306.17,19.25Z"/><path class="cls-3" d="M64.37,12.7a34,34,0,1,0,34,34A34,34,0,0,0,64.37,12.7Zm0,49.9A15.89,15.89,0,1,1,80.26,46.72,15.88,15.88,0,0,1,64.37,62.6Z"/><path class="cls-1" d="M45,25.51a.29.29,0,0,1,0-.41.3.3,0,0,1,.42,0l5.25,5.95a.29.29,0,0,1,0,.42.3.3,0,0,1-.41,0Z"/><path class="cls-1" d="M53,29.43l-.05,0a.3.3,0,0,1-.37-.15L49.1,22.16a.3.3,0,0,1,.14-.39h0l1.4-.68a4.26,4.26,0,0,1,3.7,7.67Zm1.15-1.21a3.66,3.66,0,1,0-3.18-6.6l-1.16.56L53,28.78Z"/><path class="cls-1" d="M58.53,18.48a.3.3,0,0,1,.26-.33h0l4.32-.53a.3.3,0,0,1,.33.26.29.29,0,0,1-.26.33l-4,.5.41,3.34,3.53-.43a.3.3,0,0,1,.33.27.3.3,0,0,1-.25.32l-3.54.43L60.05,26l4-.49a.3.3,0,0,1,.33.27.3.3,0,0,1-.26.32l-4.31.53h-.06a.29.29,0,0,1-.3-.25Z"/><path class="cls-1" d="M71.07,24.91l-3.8-.81-1.15,1.81a.3.3,0,0,1-.32.13l-.1,0a.32.32,0,0,1-.09-.42l4.54-7.1a.31.31,0,0,1,.32-.12.29.29,0,0,1,.25.24L72,27a.3.3,0,0,1-.24.34h-.11a.3.3,0,0,1-.23-.25Zm-3.46-1.34,3.37.72-.72-4.84Z"/><polygon class="cls-3" points="70.91 14.11 57.82 14.11 58.55 4.84 70.18 4.84 70.91 14.11"/><polygon class="cls-3" points="46 18.52 36.75 27.77 30.71 20.71 38.94 12.48 46 18.52"/><polygon class="cls-3" points="31.51 39.24 31.51 52.33 22.25 51.6 22.25 39.96 31.51 39.24"/><polygon class="cls-3" points="35.92 64.14 45.17 73.39 38.11 79.43 29.88 71.2 35.92 64.14"/><polygon class="cls-3" points="56.65 78.64 69.73 78.64 69.01 87.9 57.37 87.9 56.65 78.64"/><polygon class="cls-3" points="81.55 74.23 90.8 64.98 96.84 72.04 88.61 80.27 81.55 74.23"/><polygon class="cls-3" points="96.04 53.5 96.04 40.42 105.3 41.14 105.3 52.78 96.04 53.5"/><polygon class="cls-3" points="91.63 28.6 82.38 19.35 89.44 13.31 97.67 21.54 91.63 28.6"/><path class="cls-4" d="M66.62,38.41V54.33a1.5,1.5,0,0,1-1.51,1.48,1.46,1.46,0,0,1-1.48-1.48V41.05l-1.08.62a1.36,1.36,0,0,1-.76.22A1.52,1.52,0,0,1,61,39.11l3.32-2s.08,0,.11-.06.08,0,.13-.08l.16,0a.17.17,0,0,1,.11,0,.44.44,0,0,1,.19,0h.3a.15.15,0,0,0,.11,0c.08,0,.1,0,.16,0a.17.17,0,0,1,.11,0c.08,0,.1.08.16.08a.26.26,0,0,0,.11.08s.08.05.1.08.08.08.11.11a.24.24,0,0,1,.08.11l.11.11,0,0s0,.05,0,.08a.25.25,0,0,1,.06.14c0,.05,0,.1.05.13s0,.11,0,.14a.22.22,0,0,0,.05.18Z"/><path class="cls-5" d="M97.39,10.64c-1,8.2-6.23,9.7-7.12,11.88a39.08,39.08,0,0,0-1.1,4.2H80.61a36.75,36.75,0,0,0-1.1-4.2c-.87-2.18-6.14-3.7-7.09-11.9C71.8,5.23,75.86-3.28,84.92-3.27S98,5.25,97.39,10.64Z"/><rect class="cls-1" x="81.24" y="13.52" width="0.56" height="13.86" transform="translate(-2.36 15.21) rotate(-10.51)"/><rect class="cls-1" x="81.34" y="20.18" width="13.86" height="0.56" transform="translate(51.87 103.44) rotate(-79.36)"/><path class="cls-1" d="M84.9,18.21h0c-.8,0-1.5-.72-2-1.62a1,1,0,0,1-.73.38h0c-1.31,0-1.82-2.67-1.84-2.78l.27-.06c.14.72.68,2.56,1.57,2.56h0a.85.85,0,0,0,.6-.37,6,6,0,0,1-.64-2.41c0-.76.3-1.2.8-1.2h0a.83.83,0,0,1,.74.42,3.56,3.56,0,0,1-.41,3,2.33,2.33,0,0,1-.17.26c.46.88,1.11,1.57,1.8,1.57h0c.63,0,1.18-.57,1.58-1.34a3.57,3.57,0,0,1-.78-2.3c0-1,.37-1.57,1-1.57h0c.48,0,.76.47.76,1.3a6.32,6.32,0,0,1-.62,2.52,1.19,1.19,0,0,0,.83.33h0c.76,0,1.45-1.85,1.65-2.57l.27.08c-.08.28-.81,2.77-1.92,2.77h0a1.44,1.44,0,0,1-1-.36A2.26,2.26,0,0,1,84.9,18.21ZM86.67,13c-.51,0-.69.69-.69,1.29a3.55,3.55,0,0,0,.63,2,5.83,5.83,0,0,0,.54-2.3c0-.31-.05-1-.48-1Zm-3.73,0c-.42,0-.51.5-.51.92A5.38,5.38,0,0,0,83,16.07L83,16a3.36,3.36,0,0,0,.4-2.69.54.54,0,0,0-.49-.28Z"/><rect class="cls-5" x="79.61" y="26.34" width="10.57" height="2.07" transform="translate(0.03 -0.09) rotate(0.06)"/><rect class="cls-5" x="79.6" y="28.74" width="10.57" height="2.07" transform="translate(0.03 -0.09) rotate(0.06)"/><rect class="cls-5" x="79.6" y="31.14" width="10.57" height="2.07" transform="translate(0.03 -0.09) rotate(0.06)"/><path class="cls-5" d="M120.56,115.35a40.72,40.72,0,1,0,40.69,40.72A40.76,40.76,0,0,0,120.56,115.35Zm0,72.76a32,32,0,1,1,32-32A32,32,0,0,1,120.56,188.11Zm0-72.76a40.72,40.72,0,1,0,40.69,40.72A40.76,40.76,0,0,0,120.56,115.35Zm0,72.76a32,32,0,1,1,32-32A32,32,0,0,1,120.56,188.11Zm0-100.68a68.63,68.63,0,1,0,68.61,68.64A68.64,68.64,0,0,0,120.56,87.43Zm0,113.25a44.62,44.62,0,1,1,44.6-44.61A44.68,44.68,0,0,1,120.56,200.68Zm0-85.33a40.72,40.72,0,1,0,40.69,40.72A40.76,40.76,0,0,0,120.56,115.35Zm0,72.76a32,32,0,1,1,32-32A32,32,0,0,1,120.56,188.11Z"/><path class="cls-1" d="M83.76,121.18a1.55,1.55,0,0,0-1.42-.34,2.8,2.8,0,0,0-1,.46l-.06,0-1.37,1.54,2.52,2.24a.31.31,0,0,1,0,.42.3.3,0,0,1-.41,0l-5.93-5.27a.29.29,0,0,1,0-.39l0,0,0,0,1.58-1.77a2.43,2.43,0,0,1,4.14,2.31l.13,0a2.14,2.14,0,0,1,2.17.41,3.48,3.48,0,0,0,.81.57.5.5,0,0,0,.24.05.32.32,0,0,1,.36-.12.33.33,0,0,1,.16.4.87.87,0,0,1-.09.12v0a.68.68,0,0,1-.66.15A3.1,3.1,0,0,1,83.76,121.18Zm-5.61-2.71-1.39,1.58,2.74,2.44L80.86,121l.07-.08a1.84,1.84,0,0,0-2.78-2.41Z"/><path class="cls-1" d="M82.07,114a.29.29,0,0,1,0-.41h0l3.33-2.81a.28.28,0,0,1,.41,0,.29.29,0,0,1,0,.42l-3.11,2.62,2.17,2.58,2.72-2.3a.3.3,0,0,1,.42,0,.3.3,0,0,1,0,.41l-2.73,2.29,2.17,2.57,3.11-2.63a.29.29,0,0,1,.42,0,.29.29,0,0,1,0,.41l-3.32,2.8,0,0,0,0a.29.29,0,0,1-.39,0Z"/><path class="cls-1" d="M91.55,114.78a.26.26,0,0,1,.31-.22,4.68,4.68,0,0,0,3-.54,3.26,3.26,0,0,0,1.31-1.45,1.58,1.58,0,0,0-.05-1.46,1.35,1.35,0,0,0-1.2-.64,5.78,5.78,0,0,0-2,.45h0a5.49,5.49,0,0,1-2.09.44,1.77,1.77,0,0,1-1.52-.81,2,2,0,0,1-.08-1.82,3.59,3.59,0,0,1,1.43-1.61,4.75,4.75,0,0,1,2.75-.53.26.26,0,0,1,.26.28.25.25,0,0,1-.27.25,4.26,4.26,0,0,0-2.46.46,3,3,0,0,0-1.21,1.35,1.46,1.46,0,0,0,0,1.34,1.2,1.2,0,0,0,1.08.55,4.86,4.86,0,0,0,1.89-.41h0a5.82,5.82,0,0,1,2.25-.47,1.92,1.92,0,0,1,1.64.88,2.13,2.13,0,0,1,.07,2,3.75,3.75,0,0,1-1.51,1.72,5.38,5.38,0,0,1-3.32.6A.3.3,0,0,1,91.55,114.78Z"/><path class="cls-1" d="M96.27,104.46a.3.3,0,0,1,.15-.38h0l4-1.7a.29.29,0,0,1,.38.16.28.28,0,0,1-.15.39l-3.75,1.59,1.32,3.1,3.28-1.39a.29.29,0,0,1,.38.17.3.3,0,0,1-.15.38l-3.28,1.39,1.31,3.09,3.75-1.59a.28.28,0,0,1,.38.17.29.29,0,0,1-.15.38l-4,1.69h0a.29.29,0,0,1-.36-.16Z"/><path class="cls-1" d="M109.84,106.18l-3.75,1-.24,2.13a.28.28,0,0,1-.22.25l-.11,0a.32.32,0,0,1-.26-.34l.9-8.37a.32.32,0,0,1,.24-.25.3.3,0,0,1,.33.11l4.82,6.9a.31.31,0,0,1-.06.42l-.1,0a.3.3,0,0,1-.32-.12Zm-3.69.34,3.33-.86-2.79-4Z"/><path class="cls-1" d="M117.23,105.45a1.54,1.54,0,0,0-.81-1.22,2.75,2.75,0,0,0-1-.32l-.06,0-2.06.2.34,3.35a.3.3,0,0,1-.28.32.3.3,0,0,1-.32-.26l-.78-7.88a.31.31,0,0,1,.24-.32h.06l2.36-.23a2.43,2.43,0,0,1,1.47,4.51l.13,0a2.14,2.14,0,0,1,1.32,1.78,3.31,3.31,0,0,0,.21,1,.42.42,0,0,0,.14.19.34.34,0,0,1,.35.16.34.34,0,0,1-.16.41.71.71,0,0,1-.14,0h0a.68.68,0,0,1-.58-.34A3,3,0,0,1,117.23,105.45ZM115,99.65l-2.1.21.37,3.65,2-.2h.11a1.84,1.84,0,0,0-.41-3.65Z"/><path class="cls-1" d="M125.07,98.83a4.52,4.52,0,0,1,2.68,1.12.3.3,0,0,1,0,.42.29.29,0,0,1-.42,0,3.83,3.83,0,0,0-2.32-1,3.72,3.72,0,1,0-.5,7.43,3.64,3.64,0,0,0,2.41-.67.3.3,0,0,1,.42.1.29.29,0,0,1-.07.42,4.51,4.51,0,0,1-2.8.74,4.32,4.32,0,1,1,.58-8.61Z"/><path class="cls-1" d="M135.2,105.35,131,104.29l-.89,3.57a.3.3,0,0,1-.36.21.31.31,0,0,1-.22-.36L131.4,100a.3.3,0,0,1,.58.15l-.89,3.56,4.25,1.06.89-3.56a.29.29,0,0,1,.35-.22.31.31,0,0,1,.23.36l-1.92,7.69a.31.31,0,0,1-.37.21.29.29,0,0,1-.21-.35Z"/><polygon class="cls-5" points="128.61 88.68 112.89 88.68 114.46 73 127.04 73 128.61 88.68"/><polygon class="cls-5" points="93.83 93.68 80.23 101.53 73.74 87.17 84.64 80.88 93.83 93.68"/><polygon class="cls-5" points="66.22 115.39 58.36 129 45.56 119.8 51.85 108.91 66.22 115.39"/><polygon class="cls-5" points="53.16 148.01 53.16 163.72 37.48 162.16 37.48 149.57 53.16 148.01"/><polygon class="cls-5" points="187.93 164.13 187.93 148.41 203.62 149.98 203.62 162.56 187.93 164.13"/><polygon class="cls-5" points="182.94 129.35 175.08 115.74 189.44 109.26 195.74 120.16 182.94 129.35"/><polygon class="cls-5" points="161.22 101.74 147.61 93.88 156.81 81.08 167.71 87.37 161.22 101.74"/><path class="cls-4" d="M126.54,166.05a1.47,1.47,0,0,1-1.49,1.48h-9.6a1.46,1.46,0,0,1-1.11-.48,1.5,1.5,0,0,1,.08-2.11l8-7.23a3.39,3.39,0,0,0,1.13-2.59,3.49,3.49,0,0,0-.89-2.35,3.42,3.42,0,0,0-2.59-1.13,3.54,3.54,0,0,0-2.35.89l-.83.75a1.47,1.47,0,0,1-2.11-.1,1.5,1.5,0,0,1,.11-2.11l.84-.75a6.33,6.33,0,0,1,4.34-1.68,6.48,6.48,0,0,1,4.8,2.13,6.37,6.37,0,0,1,1.68,4.35,6.51,6.51,0,0,1-2.13,4.8l-5.1,4.62h5.74A1.49,1.49,0,0,1,126.54,166.05Z"/><path class="cls-4" d="M174,124.11l-4.83,3.66-9-11.82-3.28-4.33a7.82,7.82,0,0,0,4.36-4.28l3.48,4.59Z"/><path class="cls-4" d="M164.46,96.26A13.2,13.2,0,1,0,160.19,116a15,15,0,0,0,1.83-1.18,13.56,13.56,0,0,0,2.73-2.84A13.19,13.19,0,0,0,164.46,96.26Zm-5.67,14.3a7.92,7.92,0,0,1-11.06-1.46,7.89,7.89,0,1,1,13.54-1.76A7.79,7.79,0,0,1,158.79,110.56Z"/><path class="cls-5" d="M346.15,75.79a15.52,15.52,0,1,0-14,16.9A15.51,15.51,0,0,0,346.15,75.79ZM332,90.8A13.63,13.63,0,1,1,344.27,76,13.63,13.63,0,0,1,332,90.8Zm14.18-15a15.52,15.52,0,1,0-14,16.9A15.51,15.51,0,0,0,346.15,75.79ZM332,90.8A13.63,13.63,0,1,1,344.27,76,13.63,13.63,0,0,1,332,90.8Zm14.18-15a15.52,15.52,0,1,0-14,16.9A15.51,15.51,0,0,0,346.15,75.79ZM332,90.8A13.63,13.63,0,1,1,344.27,76,13.63,13.63,0,0,1,332,90.8Zm31.3-16.6a32.72,32.72,0,1,0-29.54,35.61A32.72,32.72,0,0,0,363.27,74.2ZM332.36,95.09a17.94,17.94,0,1,1,16.2-19.52A18,18,0,0,1,332.36,95.09Zm-3.09-33.32a15.53,15.53,0,1,0,16.88,14A15.53,15.53,0,0,0,329.27,61.77Zm2.7,29A13.63,13.63,0,1,1,344.27,76,13.63,13.63,0,0,1,332,90.8Zm14.18-15a15.52,15.52,0,1,0-14,16.9A15.51,15.51,0,0,0,346.15,75.79ZM332,90.8A13.63,13.63,0,1,1,344.27,76,13.63,13.63,0,0,1,332,90.8Zm14.18-15a15.52,15.52,0,1,0-14,16.9A15.51,15.51,0,0,0,346.15,75.79ZM332,90.8A13.63,13.63,0,1,1,344.27,76,13.63,13.63,0,0,1,332,90.8Z"/><polygon class="cls-5" points="334.06 45.42 321.53 46.58 321.4 37.65 332.54 36.61 334.06 45.42"/><polygon class="cls-5" points="310.61 51.85 302.57 61.53 296.16 55.31 303.31 46.7 310.61 51.85"/><polygon class="cls-5" points="298.57 72.99 299.74 85.52 290.8 85.65 289.77 74.5 298.57 72.99"/><polygon class="cls-5" points="305.01 96.44 314.69 104.48 308.47 110.89 299.86 103.74 305.01 96.44"/><polygon class="cls-5" points="326.14 108.47 338.67 107.31 338.81 116.24 327.66 117.28 326.14 108.47"/><polygon class="cls-5" points="349.6 102.04 357.63 92.36 364.04 98.58 356.9 107.19 349.6 102.04"/><polygon class="cls-5" points="361.63 80.9 360.47 68.37 369.4 68.24 370.44 79.39 361.63 80.9"/><polygon class="cls-5" points="355.19 57.45 345.51 49.41 351.74 43 360.35 50.15 355.19 57.45"/><path class="cls-1" d="M310.89,73.48v0a.31.31,0,0,1-.37.16L303,71.06a.3.3,0,0,1-.18-.37v0l.52-1.47a4.25,4.25,0,0,1,8,2.83Zm0-1.67a3.66,3.66,0,0,0-6.9-2.43l-.43,1.22,6.9,2.42Z"/><path class="cls-1" d="M307.16,61.75a.29.29,0,0,1-.05-.41v0l2.72-3.4a.3.3,0,0,1,.41-.05.29.29,0,0,1,.05.42l-2.54,3.18,2.63,2.1,2.23-2.78a.31.31,0,0,1,.42,0,.3.3,0,0,1,0,.41l-2.22,2.78,2.62,2.1L316,62.85a.29.29,0,0,1,.42,0,.3.3,0,0,1,.05.41l-2.71,3.39,0,0h0a.28.28,0,0,1-.39,0Z"/><path class="cls-1" d="M316.65,60.79a.26.26,0,0,1,.3-.23,4.7,4.7,0,0,0,3-.53,3.25,3.25,0,0,0,1.3-1.46,1.62,1.62,0,0,0,0-1.46,1.39,1.39,0,0,0-1.21-.63,5.52,5.52,0,0,0-2,.44l0,0a5.44,5.44,0,0,1-2.08.44,1.77,1.77,0,0,1-1.52-.81,2,2,0,0,1-.08-1.82,3.48,3.48,0,0,1,1.42-1.6,4.72,4.72,0,0,1,2.76-.54.26.26,0,0,1,.25.28.25.25,0,0,1-.27.25,4.26,4.26,0,0,0-2.46.46A3,3,0,0,0,314.71,55a1.46,1.46,0,0,0,0,1.34,1.25,1.25,0,0,0,1.08.55,4.82,4.82,0,0,0,1.89-.41h0A5.82,5.82,0,0,1,320,56a1.91,1.91,0,0,1,1.64.88,2.12,2.12,0,0,1,.08,2,3.69,3.69,0,0,1-1.52,1.71,5.29,5.29,0,0,1-3.31.6A.27.27,0,0,1,316.65,60.79Z"/><path class="cls-1" d="M322.3,50.57a.3.3,0,0,1,.2-.36.29.29,0,0,1,.37.2l2.2,7.61a.3.3,0,0,1-.57.16Z"/><path class="cls-1" d="M331.53,53.73a.29.29,0,0,1-.3-.3.32.32,0,0,1,.32-.3l2.62.07h0a.32.32,0,0,1,.26.32l-.08,2.91v0a.34.34,0,0,1-.12.22,4.36,4.36,0,1,1-2.54-7.77,4.47,4.47,0,0,1,2.73,1,.31.31,0,0,1,0,.42.32.32,0,0,1-.43,0,3.67,3.67,0,0,0-2.35-.89,3.72,3.72,0,1,0-.19,7.44,3.91,3.91,0,0,0,2.27-.67l.06-2.51Z"/><path class="cls-1" d="M340.28,51.9l-3.13,6.23a.29.29,0,1,1-.52-.26l3.5-7a.3.3,0,0,1,.24-.25.31.31,0,0,1,.34.25l1.4,8.71,3.11-6.2a.3.3,0,0,1,.39-.13.29.29,0,0,1,.14.4l-3.51,7a.31.31,0,0,1-.41.13.3.3,0,0,1-.15-.21.08.08,0,0,1,0-.06Z"/><path class="cls-4" d="M337.33,80.86a1.48,1.48,0,0,1-1.51,1.48h-.27v2a1.48,1.48,0,1,1-3,0v-2h-8.5a1.33,1.33,0,0,1-.92-.32,1.44,1.44,0,0,1-.24-2.08l10-12.41s0,0,0-.06a.2.2,0,0,0,.08-.11.22.22,0,0,0,.14-.08l.11-.08a.34.34,0,0,1,.16,0c0-.05.05-.08.11-.08s.08,0,.16-.06a.22.22,0,0,0,.11,0h.46a.3.3,0,0,0,.13,0s.11,0,.16.06l.11,0a.76.76,0,0,0,.14.1.91.91,0,0,0,.13.08,0,0,0,0,1,0,0s.08,0,.08,0a.55.55,0,0,0,.11.11.76.76,0,0,0,.08.11.87.87,0,0,1,.1.14.18.18,0,0,0,.06.1.58.58,0,0,1,.05.17s0,.08,0,.1a.29.29,0,0,1,0,.17s0,.08,0,.13v11h.27A1.5,1.5,0,0,1,337.33,80.86Zm-4.74-8.15-5.37,6.66h5.37Z"/><path class="cls-3" d="M245.9,53.28a43.57,43.57,0,1,0,43.56,43.57A43.57,43.57,0,0,0,245.9,53.28Zm0,63.91a20.35,20.35,0,1,1,20.34-20.34A20.35,20.35,0,0,1,245.9,117.19Z"/><polygon class="cls-3" points="254.27 55.09 237.52 55.09 238.44 43.23 253.35 43.23 254.27 55.09"/><polygon class="cls-3" points="222.39 60.73 210.54 72.58 202.81 63.54 213.34 53 222.39 60.73"/><polygon class="cls-3" points="203.83 87.27 203.83 104.02 191.97 103.1 191.97 88.2 203.83 87.27"/><polygon class="cls-3" points="209.47 119.16 221.32 131 212.28 138.73 201.74 128.2 209.47 119.16"/><polygon class="cls-3" points="236.01 137.71 252.76 137.71 251.84 149.57 236.94 149.57 236.01 137.71"/><polygon class="cls-3" points="267.9 132.07 279.74 120.22 287.47 129.26 276.94 139.8 267.9 132.07"/><polygon class="cls-3" points="286.45 105.53 286.45 88.78 298.31 89.7 298.31 104.61 286.45 105.53"/><polygon class="cls-3" points="280.81 73.64 268.96 61.8 278 54.07 288.54 64.61 280.81 73.64"/><path class="cls-1" d="M220.13,104a.25.25,0,0,1-.09-.36,4.65,4.65,0,0,0,.66-2.93,3.26,3.26,0,0,0-.83-1.77,1.57,1.57,0,0,0-1.36-.53,1.36,1.36,0,0,0-1,.86,5.57,5.57,0,0,0-.39,2v0a5.36,5.36,0,0,1-.41,2.09,1.76,1.76,0,0,1-1.33,1.09,2,2,0,0,1-1.71-.64,3.44,3.44,0,0,1-.92-1.94,4.71,4.71,0,0,1,.58-2.74.28.28,0,0,1,.36-.13.27.27,0,0,1,.13.35,4.18,4.18,0,0,0-.54,2.44,3.06,3.06,0,0,0,.76,1.65,1.48,1.48,0,0,0,1.26.48,1.21,1.21,0,0,0,.92-.78,4.84,4.84,0,0,0,.37-1.9v0A5.82,5.82,0,0,1,217,99a1.92,1.92,0,0,1,1.45-1.16,2.14,2.14,0,0,1,1.82.69,3.77,3.77,0,0,1,1,2.07,5.36,5.36,0,0,1-.74,3.28A.29.29,0,0,1,220.13,104Z"/><path class="cls-1" d="M213.27,92.81l-.35,2.54a.3.3,0,0,1-.34.25.29.29,0,0,1-.25-.33l.78-5.66a.3.3,0,0,1,.59.08l-.35,2.54,7.55,1a.29.29,0,1,1-.08.58Z"/><path class="cls-1" d="M222.1,84.25a1.55,1.55,0,0,0-1.46.1,2.88,2.88,0,0,0-.79.72l0,.05L219,87,222,88.39a.3.3,0,0,1-.25.54l-7.22-3.27a.31.31,0,0,1-.15-.37v-.05l1-2.16a2.43,2.43,0,0,1,4.64,1l.11-.08a2.13,2.13,0,0,1,2.19-.26,3.26,3.26,0,0,0,.95.31.39.39,0,0,0,.23,0,.35.35,0,0,1,.32-.22.33.33,0,0,1,.27.34.81.81,0,0,1-.05.14v0a.66.66,0,0,1-.58.34A3,3,0,0,1,222.1,84.25Zm-6.16-.92-.86,1.91,3.34,1.52.84-1.86.05-.1a1.84,1.84,0,0,0-3.37-1.47Z"/><path class="cls-1" d="M226.6,77.66l-2.53,2.94,1,1.88a.3.3,0,0,1,0,.34.59.59,0,0,1-.08.08.3.3,0,0,1-.4-.13l-4.06-7.38a.3.3,0,0,1,0-.34.31.31,0,0,1,.33-.11l7.91,2.91a.3.3,0,0,1,.19.37l-.06.09a.31.31,0,0,1-.33.09Zm-2.84,2.39L226,77.44l-4.59-1.68Z"/><path class="cls-1" d="M226.53,70.3l-2.09,1.48a.31.31,0,0,1-.42-.08.29.29,0,0,1,.07-.4L228.75,68a.3.3,0,0,1,.35.49L227,70l4.42,6.22a.29.29,0,0,1-.48.34Z"/><path class="cls-1" d="M232.72,66.32a.29.29,0,0,1,.18-.37h0L237,64.49a.29.29,0,0,1,.37.18.31.31,0,0,1-.18.39l-3.84,1.35,1.12,3.17,3.36-1.18a.29.29,0,0,1,.37.19.28.28,0,0,1-.17.37l-3.36,1.18,1.11,3.17L239.65,72a.29.29,0,0,1,.38.19.29.29,0,0,1-.18.37L235.76,74h-.06a.29.29,0,0,1-.35-.19Z"/><path class="cls-1" d="M245.55,68.06a.29.29,0,0,1-.31-.28.29.29,0,0,1,.3-.31l2.62-.06h0a.29.29,0,0,1,.27.29l.07,2.92v0a.36.36,0,0,1-.11.22,4.44,4.44,0,0,1-2.72,1,4.32,4.32,0,1,1,2.58-7.73.29.29,0,0,1,.05.41.32.32,0,0,1-.42.06,3.76,3.76,0,1,0-2.23,6.66,3.84,3.84,0,0,0,2.24-.78l-.06-2.5Z"/><path class="cls-1" d="M254,68.94l-1.65-4.54a.31.31,0,0,1,.18-.38.28.28,0,0,1,.38.16l1.53,4.26L258,65.68a.27.27,0,0,1,.41.07.28.28,0,0,1-.05.41l-3.82,2.93-1.08,3.66a.28.28,0,0,1-.36.2.3.3,0,0,1-.2-.36Z"/><path class="cls-4" d="M249.76,96.21a6.59,6.59,0,0,1,2,4.72,6.7,6.7,0,0,1-11.44,4.75,1.53,1.53,0,0,1,2.16-2.16,3.59,3.59,0,0,0,2.56,1,3.7,3.7,0,0,0,2.59-1,3.62,3.62,0,0,0,1.08-2.59,3.49,3.49,0,0,0-1.08-2.56A3.58,3.58,0,0,0,245,97.29a1.38,1.38,0,0,1-1.11-.49s0,0,0,0a1.53,1.53,0,0,1-.05-2.16l2.75-2.8h-4.37a1.53,1.53,0,0,1,0-3h8a1.51,1.51,0,0,1,1.54,1.51,1.61,1.61,0,0,1-.19.73,2,2,0,0,1-.27.38l-3.4,3.5A6.23,6.23,0,0,1,249.76,96.21Z"/><path class="cls-4" d="M33.15,11.1l-.47-.66c.85-.61,1.35-.9,1.38-.92l.41.7S34,10.52,33.15,11.1Z"/><path class="cls-4" d="M245.52,151.14c-1.09,0-2.19,0-3.25-.11l0-.81c1.05.06,2.14.1,3.22.11Zm3.26-.06,0-.81c1.08-.05,2.16-.14,3.19-.27l.1.81C251,150.93,249.88,151,248.78,151.08Zm-9.76-.33c-1.09-.12-2.17-.27-3.23-.45l.14-.8c1,.18,2.11.33,3.18.45Zm16.22-.45-.16-.8c1.06-.21,2.1-.46,3.1-.76l.23.78C257.39,149.82,256.32,150.08,255.24,150.3Zm-22.64-.65c-1.06-.26-2.12-.55-3.14-.86l.24-.78c1,.32,2,.6,3.09.85Zm28.89-1.19-.3-.76a29.12,29.12,0,0,0,2.89-1.33l.37.72C263.5,147.59,262.5,148.05,261.49,148.46Zm-35.11-.75c-1-.39-2-.83-3-1.29l.35-.73c1,.45,1.95.88,2.94,1.27Zm40.88-2.29-.45-.67a29.7,29.7,0,0,0,2.55-1.91l.52.62A30.78,30.78,0,0,1,267.26,145.42Zm-46.76-.51c-.94-.54-1.88-1.11-2.78-1.72l.45-.67c.89.59,1.81,1.16,2.73,1.68Zm-5.43-3.62c-.85-.65-1.69-1.35-2.52-2.07l.54-.61c.81.71,1.64,1.4,2.48,2Zm57.22,0-.58-.57c.73-.74,1.45-1.54,2.14-2.38l.62.52C273.77,139.67,273,140.49,272.29,141.25ZM210.17,137c-.76-.75-1.52-1.53-2.27-2.35l.59-.55c.74.81,1.5,1.59,2.24,2.32Zm66.27-.8-.66-.46q.9-1.29,1.74-2.7l.69.42C277.65,134.42,277.05,135.34,276.44,136.21Zm-70.71-4c-.67-.8-1.36-1.65-2-2.53l.63-.5c.69.87,1.38,1.71,2,2.5Zm74.07-1.6-.72-.38c.48-.92.95-1.89,1.41-2.89l.74.33C280.76,128.7,280.28,129.69,279.8,130.62Zm-78.09-3.52c-.65-.86-1.28-1.74-1.91-2.63l.66-.47c.63.88,1.26,1.76,1.9,2.62Zm80.81-2.41-.75-.31c.39-1,.78-2,1.16-3l.76.28C283.31,122.69,282.91,123.72,282.52,124.69ZM198,121.8c-.61-.89-1.22-1.79-1.82-2.69l.68-.45c.6.9,1.2,1.79,1.81,2.68Zm86.81-3.23-.77-.25q.51-1.53,1-3.09l.77.24C285.43,116.52,285.1,117.55,284.76,118.57Zm-90.42-2.17-1.8-2.71.68-.44L195,116Zm92.33-4.05-.77-.22c.29-1,.58-2.07.86-3.12l.79.21C287.26,110.27,287,111.32,286.67,112.35ZM190.73,111l-1.82-2.68.66-.46,1.84,2.69Zm97.65-4.91-.79-.21.81-3.14.78.2C288.92,104,288.65,105,288.38,106.08ZM187,105.67q-.94-1.32-1.92-2.61l.65-.49c.65.87,1.3,1.74,1.93,2.62Zm-3.9-5.16c-.69-.86-1.38-1.7-2.06-2.49l.62-.53c.68.8,1.38,1.64,2.07,2.51ZM290,99.78l-.79-.2.78-3.15.79.2Zm-111-4.17c-.74-.8-1.5-1.58-2.25-2.32l.57-.58c.76.75,1.53,1.54,2.28,2.34Zm112.59-2.13-.78-.19c.26-1.05.52-2.1.79-3.15l.79.2C292.05,91.39,291.79,92.44,291.52,93.48Zm-234.19-2c-1.09,0-2.19-.08-3.27-.18l.07-.81c1.07.1,2.15.16,3.21.18Zm3.27-.06-.05-.81c1.07-.06,2.15-.16,3.2-.3l.11.8C62.78,91.3,61.69,91.41,60.6,91.47Zm113.74-.39c-.8-.72-1.63-1.42-2.45-2.08l.51-.63c.83.67,1.67,1.38,2.48,2.11ZM50.82,90.94c-1.08-.18-2.16-.39-3.21-.64l.19-.79c1,.24,2.09.46,3.15.63Zm16.26-.32-.16-.79c1-.22,2.09-.48,3.12-.77l.22.78C69.22,90.14,68.15,90.4,67.08,90.62ZM44.46,89.43c-1-.33-2.08-.69-3.09-1.09l.3-.75c1,.39,2,.75,3,1.07Zm28.91-.54-.24-.77,3.09-1,.25.77ZM293.13,87.2l-.78-.21q.4-1.58.84-3.15l.78.22Zm-123.8-.15c-.87-.62-1.77-1.23-2.66-1.8l.43-.68c.91.58,1.82,1.19,2.7,1.82Zm-131,0c-1-.47-2-1-2.9-1.52l.4-.7c.93.53,1.88,1,2.85,1.49Zm41.18-.1-.25-.77,3.08-1,.25.77Zm6.16-2-.25-.77,3.09-1,.25.78Zm-53-1.15c-.91-.62-1.79-1.27-2.64-1.94l.5-.64c.83.67,1.71,1.31,2.59,1.91Zm131.19-.16c-.93-.52-1.89-1-2.85-1.47l.35-.73c1,.46,1.95,1,2.9,1.49Zm-72-.69-.24-.77,3.09-1L95,82ZM98.08,81l-.23-.78,3.12-.91.22.78Zm196.78-.08-.78-.22q.45-1.57.93-3.12l.78.24C295.47,78.87,295.16,79.9,294.86,80.94Zm-136.75-.09c-.89-.37-1.8-.71-2.72-1l-.29-.1.27-.77.21.07c1,.36,1.94.71,2.84,1.08ZM27.59,79.7c-.8-.74-1.57-1.52-2.31-2.32l.6-.55c.72.78,1.48,1.55,2.26,2.28Zm76.72-.44-.21-.79c1.05-.28,2.1-.54,3.15-.8l.19.79C106.4,78.71,105.35,79,104.31,79.26ZM152,78.72c-1-.31-2.07-.61-3.1-.87l.2-.79c1,.27,2.1.57,3.14.89Zm-41.43-1-.18-.79c1.06-.23,2.13-.45,3.19-.65l.15.8C112.71,77.29,111.65,77.5,110.6,77.73Zm35.19-.63c-1-.22-2.11-.43-3.16-.61l.13-.8c1.07.18,2.14.39,3.2.62Zm-28.85-.57-.12-.8c1.08-.17,2.17-.32,3.22-.45l.1.8C119.1,76.21,118,76.36,116.94,76.53Zm22.5-.51c-1.07-.13-2.15-.25-3.21-.33l.06-.81c1.08.09,2.17.2,3.25.33Zm-16.09-.27-.07-.81c1.09-.09,2.18-.17,3.25-.22l0,.81C125.51,75.58,124.43,75.65,123.35,75.75ZM133,75.5c-.94,0-1.87,0-2.8,0h-.42v-.81h.43c.94,0,1.88,0,2.83,0ZM23.17,74.87c-.66-.86-1.3-1.76-1.9-2.67l.68-.44c.58.89,1.21,1.77,1.86,2.62Zm273.61-.11L296,74.5c.34-1,.7-2,1.06-3.07l.76.27C297.47,72.72,297.12,73.73,296.78,74.76ZM19.6,69.39c-.51-1-1-2-1.43-3l.75-.32c.42,1,.89,1.95,1.4,2.88ZM299,68.68l-.75-.3c.4-1,.81-2,1.24-3l.74.32C299.78,66.68,299.37,67.67,299,68.68ZM17,63.39c-.35-1-.66-2.08-.93-3.14l.79-.2c.26,1,.56,2.08.9,3.08Zm284.53-.64-.73-.34c.47-1,1-2,1.45-2.92l.72.38C302.49,60.79,302,61.76,301.53,62.75Zm3-5.7-.7-.41c.56-1,1.14-1.88,1.73-2.77l.68.44C305.66,55.19,305.08,56.12,304.53,57.05Zm-289.13,0c-.09-.58-.18-1.17-.25-1.76s-.12-1-.17-1.48l.81-.08c0,.48.1,1,.16,1.46s.16,1.16.25,1.72Zm292.67-5.38-.65-.48c.65-.88,1.33-1.74,2-2.56l.62.52C309.38,50,308.71,50.81,308.07,51.67ZM14.74,50.55c-.05-.9-.07-1.82-.07-2.72v-.54h.81v.54c0,.89,0,1.79.07,2.68Zm297.45-3.79-.59-.56c.75-.79,1.53-1.56,2.32-2.29l.55.6C313.7,45.22,312.93,46,312.19,46.76ZM15.61,44.08l-.81,0c.08-1.09.19-2.19.33-3.25l.81.1C15.8,41.93,15.69,43,15.61,44.08ZM316.9,42.42l-.51-.63c.85-.68,1.73-1.33,2.62-1.95l.46.67C318.59,41.11,317.73,41.76,316.9,42.42Zm5.27-3.64-.42-.7c.93-.55,1.89-1.08,2.86-1.57l.37.72C324,37.72,323.08,38.24,322.17,38.78ZM16.47,37.71l-.79-.16c.21-1.07.47-2.14.76-3.18l.78.22C16.94,35.61,16.68,36.66,16.47,37.71Zm1.71-6.19-.76-.27c.36-1,.76-2,1.2-3l.74.33C18.93,29.51,18.54,30.52,18.18,31.52Zm2.57-5.88L20,25.26c.5-1,1.05-1.91,1.63-2.83l.68.43C21.79,23.76,21.25,24.7,20.75,25.64Zm3.4-5.45-.65-.47c.64-.88,1.32-1.75,2-2.57l.62.52C25.45,18.48,24.78,19.33,24.15,20.19Zm4.16-4.89-.58-.57c.77-.79,1.58-1.54,2.39-2.24l.53.61C29.85,13.79,29.07,14.53,28.31,15.3Z"/><path class="cls-4" d="M328.25,35.73l-.32-.75,1.52-.61.29.76C329.24,35.32,328.74,35.52,328.25,35.73Z"/><circle class="cls-5" cx="34.26" cy="9.87" r="6.61" transform="translate(-1.18 13.79) rotate(-22.38)"/><circle class="cls-4" cx="149.97" cy="77.28" r="6.61"/><circle class="cls-4" cx="329.6" cy="34.75" r="6.61"/><circle class="cls-5" cx="246.19" cy="152.05" r="6.61"/></svg>