<svg id="Слой_1" data-name="Слой 1" xmlns="http://www.w3.org/2000/svg" viewBox="0 0 382 170"><defs><style>.cls-1{fill:#fff;}.cls-2{fill:#306;}.cls-3{fill:#ff9581;}.cls-4{fill:#a8a8a8;}.cls-5{fill:#c8c8c8;}.cls-6{fill:#4a148c;}</style></defs><rect class="cls-1" x="-33.56" y="-13.22" width="456" height="223"/><path class="cls-2" d="M210.57,108.12a1.2,1.2,0,0,1-1,1.25l-4.87.32c-4.37-11.37-9.09-20.4-7.85-16.88A58.15,58.15,0,0,1,199.94,110c-2.14.13-7.13.37-9.62.48-3.8-20-8.66-34.86-8.36-30.28,1.23,18.48.14,24.42-1.14,30.77-23.24,1.09-53.7,2.19-75.75,2.51-2.55-11.07-4.78-23-5.17-22.21-3,6.26-3.81,15.33-3.88,22.32-7,.06-12.63,0-16-.26,0,0-1.65-9.3-1.88-12.36a63.69,63.69,0,0,1,2.45-23.32C82.88,69.87,86.91,63,90.73,56a.78.78,0,0,1,.1-.15s0,0,0-.06a66,66,0,0,0,5.86-14.44.29.29,0,0,0,0-.11,62.94,62.94,0,0,0,1.82-11.09c1-13.68,8.71-25.5,21.55-29.13C144.38-21.87,168.69-12.28,176,5.24c.71,1.71,1.39,3.67,2.06,5.8l0,.07c2.49,7.9,4.72,18.15,6.78,26.07a0,0,0,0,0,0,0s0,.05,0,.09v0a74.64,74.64,0,0,0,2.89,9.15C194,60.74,208,68.83,210.57,108.12Z"/><path class="cls-2" d="M114.53,4.78c-8.43,4.4-13.6,10.82-14.9,20.8-.76,5.82-1.15,11.5-3.38,17-2.3,5.67-6,10.32-9.7,15-6,7.38-10.11,14.73-11,24.53s-.45,21.68,2.91,31c0,0,.09,0,.08,0-2.73-9.4-2.8-22.42-1.13-32.28,1.84-10.83,8-17.65,14.23-25.88a45.25,45.25,0,0,0,9.21-22.11c.62-4.93.55-10.06,2.53-14.71,2.37-5.55,7.09-9.08,11.77-12.22A.58.58,0,0,0,114.53,4.78Z"/><path class="cls-2" d="M202,61.76c-6-7.74-12.15-14.34-15.64-23.95-3.17-8.76-5-18-8.23-26.77a.11.11,0,1,0-.21.07c5,15.54,6,31.22,16,44.28,5.45,7.09,10.91,13.67,14.51,22.18a76,76,0,0,1,5.66,28.1c0,.34.45.32.48,0A62.85,62.85,0,0,0,202,61.76Z"/><path class="cls-3" d="M132.89,110.77c-39.45,40-89.08,124.11-79.83,141.17,10.3,19,65.24-37.07,65-40.35-.16-2.47,19.17-53.57,33.83-90.73S142.65,100.88,132.89,110.77Z"/><path class="cls-4" d="M118.46,211.66c1.68-5.47,28-72.85,35.49-94.16s.55-27.9-20.92-8.38S64.51,193.83,53.77,228.43c-10.35,33.34,6.81,33.34,29.46,18C101.76,233.82,118.46,211.66,118.46,211.66Z"/><path class="cls-1" d="M156.78,106c0,.39-.08.79-.14,1.21a1.39,1.39,0,0,1-1.13.59,1.35,1.35,0,0,1-1.35-1.35,1.37,1.37,0,0,1,1.35-1.35A1.35,1.35,0,0,1,156.78,106ZM112,134.19a1.35,1.35,0,1,0,1.35,1.35A1.35,1.35,0,0,0,112,134.19Zm21.75,0a1.35,1.35,0,1,0,1.35,1.35A1.35,1.35,0,0,0,133.77,134.19ZM122.9,120.26a1.35,1.35,0,1,0,1.35,1.35A1.35,1.35,0,0,0,122.9,120.26Zm21.74,0a1.35,1.35,0,1,0,1.35,1.35A1.36,1.36,0,0,0,144.64,120.26Zm-54.36,43a1.35,1.35,0,1,0,1.35,1.35A1.35,1.35,0,0,0,90.28,163.28Zm21.74,0a1.35,1.35,0,1,0,1.35,1.35A1.35,1.35,0,0,0,112,163.28Zm21.75,0a1.35,1.35,0,1,0,1.35,1.35A1.35,1.35,0,0,0,133.77,163.28Zm-32.62-13.93a1.35,1.35,0,1,0,1.35,1.35A1.36,1.36,0,0,0,101.15,149.35Zm21.75,0a1.35,1.35,0,1,0,1.35,1.35A1.35,1.35,0,0,0,122.9,149.35Zm-32.62,43a1.35,1.35,0,1,0,1.35,1.35A1.35,1.35,0,0,0,90.28,192.37Zm21.74,0a1.35,1.35,0,1,0,1.35,1.35A1.35,1.35,0,0,0,112,192.37ZM79.41,178.44a1.35,1.35,0,1,0,1.35,1.35A1.35,1.35,0,0,0,79.41,178.44Zm21.74,0a1.35,1.35,0,1,0,1.35,1.35A1.36,1.36,0,0,0,101.15,178.44Zm21.75,0a1.35,1.35,0,1,0,1.35,1.35A1.35,1.35,0,0,0,122.9,178.44Zm-54.36,43a1.35,1.35,0,1,0,1.34,1.35A1.35,1.35,0,0,0,68.54,221.46Zm21.74,0a1.35,1.35,0,1,0,1.35,1.35A1.35,1.35,0,0,0,90.28,221.46ZM79.41,207.53a1.35,1.35,0,1,0,1.35,1.35A1.34,1.34,0,0,0,79.41,207.53Zm21.74,0a1.35,1.35,0,1,0,1.35,1.35A1.35,1.35,0,0,0,101.15,207.53Zm-32.61,43a1.35,1.35,0,1,0,1.34,1.35A1.35,1.35,0,0,0,68.54,250.55ZM57.66,236.62A1.35,1.35,0,1,0,59,238,1.35,1.35,0,0,0,57.66,236.62Zm21.75,0A1.35,1.35,0,1,0,80.76,238,1.34,1.34,0,0,0,79.41,236.62Z"/><path class="cls-5" d="M245.5,252.21a133.68,133.68,0,0,1-142.45-2.56l.29-1.77L109,206s-13.33-23.28-5.58-40c3.91-8.45,38.17-61.09,52.6-71.55,13.53-9.81,33.17.7,40.49,8.39C222.35,130,235.68,181.85,245.5,252.21Z"/><path class="cls-2" d="M103.37,247.9c.7-7,1.45-14,2.29-21s1.6-14,2.55-21l.16.61a47.06,47.06,0,0,1-7.73-19.27,45.59,45.59,0,0,1-.45-10.44,37.85,37.85,0,0,1,2.58-10.15,100.49,100.49,0,0,1,9.75-18.18A163.22,163.22,0,0,1,124.81,132c-4,5.53-7.78,11.24-11.33,17.06a117.48,117.48,0,0,0-9.14,18.17,36.48,36.48,0,0,0-2.35,9.69,47.89,47.89,0,0,0,.5,10,45.36,45.36,0,0,0,7.2,18.56l.2.3,0,.32c-.94,7-2.08,13.94-3.11,20.92S104.55,240.94,103.37,247.9Z"/><path class="cls-2" d="M113.38,148.53a10.81,10.81,0,0,1,.49-2.78,21.81,21.81,0,0,1,.95-2.64,26.58,26.58,0,0,1,1.26-2.5,19,19,0,0,1,1.55-2.34,41.72,41.72,0,0,1-1.94,5.22C115,145.18,114.16,146.82,113.38,148.53Z"/><path class="cls-4" d="M206.11,106.48c50.49,44,90.19,98.43,87.61,112-4.8,25.32-38.14,26.9-43.2,21.43-20.44-22.15-42-65.05-65.38-112.93C164.26,84.24,189.49,92,206.11,106.48Z"/><path class="cls-1" d="M196.92,105.1a1.35,1.35,0,1,1-1.35-1.35A1.34,1.34,0,0,1,196.92,105.1Zm-1.35,27.74a1.35,1.35,0,1,0,1.35,1.35A1.36,1.36,0,0,0,195.57,132.84Zm21.75,0a1.35,1.35,0,1,0,1.35,1.35A1.35,1.35,0,0,0,217.32,132.84ZM184.7,118.91a1.35,1.35,0,1,0,1.35,1.35A1.36,1.36,0,0,0,184.7,118.91Zm21.75,0a1.35,1.35,0,1,0,1.34,1.35A1.35,1.35,0,0,0,206.45,118.91Zm10.87,43a1.35,1.35,0,1,0,1.35,1.35A1.35,1.35,0,0,0,217.32,161.93Zm21.74,0a1.35,1.35,0,1,0,1.35,1.35A1.36,1.36,0,0,0,239.06,161.93Zm21.28.08a1.35,1.35,0,0,0,.47,2.61A1.32,1.32,0,0,0,262,164Zm-53.89-14a1.35,1.35,0,1,0,1.34,1.35A1.35,1.35,0,0,0,206.45,148Zm21.74,0a1.35,1.35,0,1,0,1.35,1.35A1.35,1.35,0,0,0,228.19,148Zm20.6.64a1.4,1.4,0,0,0-.2.71,1.34,1.34,0,0,0,1.35,1.35,1.28,1.28,0,0,0,.56-.12C249.94,149.93,249.37,149.29,248.79,148.64Zm-31,42.48c.28.5.54,1,.82,1.47a1.62,1.62,0,0,0,0-.22A1.32,1.32,0,0,0,217.83,191.12Zm21.23-.1a1.35,1.35,0,1,0,1.35,1.35A1.36,1.36,0,0,0,239.06,191Zm21.75,0a1.35,1.35,0,1,0,1.35,1.35A1.35,1.35,0,0,0,260.81,191Zm21.23.1h0a1.36,1.36,0,0,0,.53,2.6,1.31,1.31,0,0,0,.91-.36C283,192.63,282.53,191.88,282,191.12Zm-53.85-14a1.35,1.35,0,1,0,1.35,1.35A1.34,1.34,0,0,0,228.19,177.09Zm21.74,0a1.35,1.35,0,1,0,1.35,1.35A1.34,1.34,0,0,0,249.93,177.09ZM273,178.17s0,0,0,0l0,0c-.22-.3-.42-.55-.63-.83a1.36,1.36,0,0,0-2,1.17,1.35,1.35,0,0,0,2.7,0A1.32,1.32,0,0,0,273,178.17Zm-33.95,41.94a1.35,1.35,0,1,0,1.35,1.35A1.36,1.36,0,0,0,239.06,220.11Zm21.75,0a1.35,1.35,0,1,0,1.35,1.35A1.35,1.35,0,0,0,260.81,220.11Zm21.74,0a1.35,1.35,0,1,0,1.35,1.35A1.36,1.36,0,0,0,282.55,220.11Zm-54.36-13.93a1.35,1.35,0,1,0,1.35,1.35A1.34,1.34,0,0,0,228.19,206.18Zm21.74,0a1.35,1.35,0,1,0,1.35,1.35A1.34,1.34,0,0,0,249.93,206.18Zm21.75,0a1.35,1.35,0,1,0,1.35,1.35A1.34,1.34,0,0,0,271.68,206.18Zm-21.75,29.09a1.35,1.35,0,1,0,1.35,1.35A1.34,1.34,0,0,0,249.93,235.27Zm21.75,0a1.35,1.35,0,1,0,1.35,1.35A1.34,1.34,0,0,0,271.68,235.27Z"/><path class="cls-2" d="M242.2,230.05c-3.71-5.74-7.19-11.66-10.72-17.51s-7-11.74-10.48-17.66c-6.8-11.7-13.11-23.66-19.19-35.74-3.44-6.84-6.94-13.64-10.22-20.56-.1-.22-.47-.05-.39.17q4.76,12.06,10.24,23.76c-.06-.09-.13-.17-.2-.26-.82-1.1-1.63-2.21-2.44-3.32-1.57-2.19-3.06-4.46-4.47-6.76a.18.18,0,0,0-.3.18,76.64,76.64,0,0,0,5.54,9,39.16,39.16,0,0,0,3.15,4l.11.11c1.66,3.47,3.37,6.92,5.17,10.34a410,410,0,0,0,20.59,35.51c2.12,3.21,4.25,6.42,6.46,9.57s4.6,6.2,6.88,9.31C242.05,230.37,242.31,230.22,242.2,230.05Z"/><path class="cls-3" d="M258.88,235c-9.55-13.73-4.71-41,5.79-106.53,1.46-9.07,70.25-9.78,69.2,0-1.33,12.29-13.58,60.86-16.77,68C301.47,231.45,265.37,244.35,258.88,235Z"/><path class="cls-3" d="M336.1,101.3c-2.65-20.83-6.53-25.77.56-44.55,4.66-12.32-1.21-20.58-11.46-11.49-16.76,14.87-19,42.47-17,52.26Z"/><path class="cls-2" d="M269.55,24.76l-25,83.89c-1,2.45.16,4.53,2.6,4.63L291,115.13a7.09,7.09,0,0,0,6.26-4.25L322.17,27c1-2.46-.16-4.53-2.6-4.63l-43.75-1.85A7.09,7.09,0,0,0,269.55,24.76Z"/><path class="cls-6" d="M274.75,24.93l-24.95,83.9c-1,2.45.15,4.52,2.6,4.62l43.75,1.85a7.08,7.08,0,0,0,6.26-4.25l24.95-83.89c1-2.46-.15-4.52-2.59-4.63L281,20.68A7.09,7.09,0,0,0,274.75,24.93Z"/><path class="cls-2" d="M286.58,29.32a3.72,3.72,0,1,1-3.47-4A3.72,3.72,0,0,1,286.58,29.32Z"/><path class="cls-3" d="M325.31,160.19s12.46-27.06,11.83-49.55c-.44-15.55-5.16-49.27-45.8-71.72-9.63-5.33-27.15-6.08-14.56,8.33,8.93,10.24,17.69,14,21.81,20.94,0,0-22.39,1.68-27.35,11.55-2.22,4.41-8,16.58-11.12,26.7a44.13,44.13,0,0,0,4.81,2.53s-3.76,9.65,1.78,24.39Z"/><path class="cls-3" d="M334.35,95.87c-5.53-6-17.47-18.48-30.79-25.31-14.79-7.58-45.34-18.2-50.82-7.22-4,8,7.28,13.13,7.28,13.13s-13.55-1.72-15.59,6.34c-1.86,7.35,7.12,10.76,7.12,10.76s-8.4.36-8.82,7.79c-.52,8.93,17.17,6.7,24.46,16.2C268.83,119.69,334.35,95.87,334.35,95.87Z"/><path class="cls-2" d="M298.16,87.53c-6.13-4.78-22.82-12.06-37.85-11.25-.34,0-.51.28-.2.33a163.19,163.19,0,0,1,38,11.06C298.17,87.71,298.23,87.58,298.16,87.53Z"/><path class="cls-2" d="M290.07,102.24c-5.71-3.58-23.25-10.32-38.45-9-.34,0-.49.31-.18.34A174.58,174.58,0,0,1,290,102.39C290.09,102.42,290.15,102.29,290.07,102.24Z"/><path class="cls-4" d="M335,150.69l-79.78,22.62s-15.91,52.3-5.79,65.42c10.81,14,61-7.71,71-38.27Z"/><path class="cls-1" d="M305.65,163.28a1.35,1.35,0,1,1-1.35-1.35A1.35,1.35,0,0,1,305.65,163.28ZM326,161.93a1.35,1.35,0,1,0,1.35,1.35A1.36,1.36,0,0,0,326,161.93ZM260.81,191a1.35,1.35,0,1,0,1.35,1.35A1.35,1.35,0,0,0,260.81,191Zm21.74,0a1.35,1.35,0,1,0,1.35,1.35A1.36,1.36,0,0,0,282.55,191Zm21.75,0a1.35,1.35,0,1,0,1.35,1.35A1.35,1.35,0,0,0,304.3,191Zm-32.62-13.93a1.35,1.35,0,1,0,1.35,1.35A1.34,1.34,0,0,0,271.68,177.09Zm21.74,0a1.35,1.35,0,1,0,1.35,1.35A1.35,1.35,0,0,0,293.42,177.09Zm21.75,0a1.35,1.35,0,1,0,1.35,1.35A1.34,1.34,0,0,0,315.17,177.09Zm-54.36,43a1.35,1.35,0,1,0,1.35,1.35A1.35,1.35,0,0,0,260.81,220.11Zm21.74,0a1.35,1.35,0,1,0,1.35,1.35A1.36,1.36,0,0,0,282.55,220.11Zm21.75,0a1.35,1.35,0,1,0,1.35,1.35A1.35,1.35,0,0,0,304.3,220.11Zm-54.37-13.93a1.35,1.35,0,1,0,1.35,1.35A1.34,1.34,0,0,0,249.93,206.18Zm21.75,0a1.35,1.35,0,1,0,1.35,1.35A1.34,1.34,0,0,0,271.68,206.18Zm21.74,0a1.35,1.35,0,1,0,1.35,1.35A1.35,1.35,0,0,0,293.42,206.18Zm21.75,0a1.35,1.35,0,1,0,1.35,1.35A1.34,1.34,0,0,0,315.17,206.18Zm-65.24,29.09a1.35,1.35,0,1,0,1.35,1.35A1.34,1.34,0,0,0,249.93,235.27Zm21.75,0a1.35,1.35,0,1,0,1.35,1.35A1.34,1.34,0,0,0,271.68,235.27Z"/><path class="cls-3" d="M176.66,91.42c-.42,2.63-11.54,20.34-23.42,20.66-3.87.09-5.33-21-5.33-21l-.46-1.53L141,68.1l24.42-18.31,3.54-2.45s1.38,6,3,13.46c.08.34.16.69.24,1.06s.21.82.29,1.21c.26,1.12.52,2.25.75,3.39.19.87.37,1.71.53,2.62s.34,1.81.53,2.73C175.92,80.86,176.82,90.3,176.66,91.42Z"/><path class="cls-2" d="M176.44,87.42c-16.5,3-26-.94-31-4.43L141,68.1l24.41-18.31,3.53-2.44s1.39,6,3,13.45c.08.33.16.69.24,1.07s.21.81.29,1.21c.26,1.11.52,2.24.76,3.39.18.85.35,1.71.51,2.62s.36,1.8.54,2.72C175.35,77.62,176.08,83.59,176.44,87.42Z"/><path class="cls-3" d="M188.43,32.93c7.43,38.61-14.86,47.42-23.19,49-7.56,1.45-33.49,5.41-44.87-32.23S124.6-3.6,141.72-7.82,181-5.69,188.43,32.93Z"/><path class="cls-2" d="M181.15,25.54c-.93,0-1.79-.12-2.71-.19a4.42,4.42,0,0,1-2.73-.73,1.39,1.39,0,0,1-.23-1.69,3.47,3.47,0,0,1,3.28-1.27A5.12,5.12,0,0,1,182.17,23,1.49,1.49,0,0,1,181.15,25.54Z"/><path class="cls-2" d="M153.52,27.84a26,26,0,0,0,2.57-.88,4.32,4.32,0,0,0,2.45-1.39,1.39,1.39,0,0,0-.2-1.69,3.46,3.46,0,0,0-3.49-.4,5.05,5.05,0,0,0-3,2.17A1.49,1.49,0,0,0,153.52,27.84Z"/><path class="cls-2" d="M161.87,38.64c0-.1-.19.16-.17.26.47,2.64.56,5.74-1.71,7-.08,0-.05.17,0,.14C162.89,45.18,162.73,41.06,161.87,38.64Z"/><path class="cls-2" d="M159.1,36.21c-4.31.3-3.41,8.89.59,8.62S162.71,36,159.1,36.21Z"/><path class="cls-2" d="M157.46,36.85c-.7.56-1.34,1.5-2.24,1.68s-1.92-.6-2.7-1.4c-.08-.08-.14,0-.13.12.15,1.65,1,3.27,2.75,3.33,1.63.06,2.64-1.52,2.87-3.22C158.06,37,157.74,36.62,157.46,36.85Z"/><path class="cls-2" d="M177.35,36c0-.11.22.1.23.21.22,2.67.92,5.69,3.43,6.3.07,0,.08.15,0,.15C178,42.54,177.13,38.52,177.35,36Z"/><path class="cls-2" d="M179.41,32.91c4.24-.82,5.55,7.73,1.62,8.48S175.85,33.59,179.41,32.91Z"/><path class="cls-2" d="M181.27,33.2c.75.34,1.54,1.06,2.36,1s1.49-1.11,2-2.09c0-.1.13,0,.15.07.29,1.63,0,3.41-1.5,4s-2.66-.73-3.3-2.3C180.81,33.55,181,33.05,181.27,33.2Z"/><path class="cls-2" d="M165,59.35c.68.59,1.37,1.41,2.34,1.44a7.19,7.19,0,0,0,2.84-.85c.08,0,.17.05.12.13a3.59,3.59,0,0,1-3.31,1.65,2.84,2.84,0,0,1-2.24-2.23C164.65,59.33,164.85,59.26,165,59.35Z"/><path class="cls-2" d="M175,48.44s1,3.91,1.23,5.78c0,.18-.42.31-1.06.42,0,0,0,0-.07,0a9,9,0,0,1-9-2.31c-.15-.17.07-.39.25-.3a13.52,13.52,0,0,0,8.41,1.39c.07-.54-2-6.64-1.67-6.7a16.85,16.85,0,0,1,4.37.47c-1.87-8.2-5-16-6.79-24.23a.26.26,0,0,1,.48-.18c3.91,8,6.27,17.37,8.42,25.79C179.76,49.63,175.73,48.67,175,48.44Z"/><path class="cls-2" d="M122,50c9.69-1.11,10.14-31.21,10.16-34.9.11,2.32.74,14.65,1.72,15.07a9.76,9.76,0,0,0,3-.82h0a28.38,28.38,0,0,1,0-4.42c0-.69.37,1.45,1,4.08.54-.19,1.12-.42,1.76-.64a35.48,35.48,0,0,1,.18-9.42c.2-1.19.92,4,2.39,8.49,6.57-2.34,16.06-5.48,25.09-6.5,2.42-.28,4.51-.42,6.37-.48-.27-3.63-1-7.47-.67-6.65A35.14,35.14,0,0,1,175,20.46c1,0,1.94,0,2.78,0-.16-5.15-3.25-13.14-2.33-11.95a36.27,36.27,0,0,1,6,12.24c3.55.4,4.57,1,4.59.09,0-1.65-3.1-15.85-15.11-25.48-13.06-10.48-37.52-11.43-49.78,7.28,0,0-10.67,8.23-11.5,20.2S116.36,50.68,122,50Z"/><path class="cls-1" d="M157.44,53.45A12.11,12.11,0,1,1,168.7,38h0a12.13,12.13,0,0,1-8.28,15A12.41,12.41,0,0,1,157.44,53.45Zm-.71-22.6a10.49,10.49,0,1,0,10.41,7.58A10.43,10.43,0,0,0,156.73,30.85Z"/><path class="cls-1" d="M184.91,49.2c-4.63.14-9-4.47-9.92-10.72a14.52,14.52,0,0,1,1.28-8.75,7.55,7.55,0,0,1,12.78-1.91,14.49,14.49,0,0,1,3.78,8c1,6.6-2.22,12.57-7.13,13.31A7.23,7.23,0,0,1,184.91,49.2ZM183,26.72c-.2,0-.4,0-.61.05a6.48,6.48,0,0,0-4.65,3.71,12.83,12.83,0,0,0-1.12,7.76c.86,5.72,4.82,9.89,8.87,9.29s6.62-5.75,5.77-11.47a12.83,12.83,0,0,0-3.34-7.1A6.66,6.66,0,0,0,183,26.72Z"/><path class="cls-1" d="M168.5,39.43l-1.21-1.07c1.59-1.8,5.49-4.48,8.88-1.78l-1,1.27C172.13,35.43,168.65,39.27,168.5,39.43Z"/><path class="cls-1" d="M118,50.57,116.49,50c.25-.71,2.49-7,6-8.12,3.26-1,22.59-2.31,23.52-2.36l.08,1.61c-6.24.34-20.59,1.48-23.11,2.29C120.65,44.19,118.62,48.84,118,50.57Z"/><path class="cls-3" d="M128.32,50.51s-9.8-11.32-15-7.7,3,20.65,9.78,22.39a6.65,6.65,0,0,0,8.5-4.47Z"/><path class="cls-2" d="M115.78,47.63c-.1,0-.11.15,0,.18,4.75,1.37,7.59,5.35,9.73,9.56-1.54-1.55-3.48-2.28-5.57-.43-.11.1,0,.27.15.23a4.09,4.09,0,0,1,4.62,1,18.72,18.72,0,0,1,2.52,3.4c.26.38,1,.09.77-.37a.31.31,0,0,1,0-.1C127.45,55.24,122.09,47.57,115.78,47.63Z"/><path class="cls-2" d="M120.2-.67c-.16,2.88-13.83,9.8-23.64,2.44-9.66-7.25-5.71-21.94,7.69-20.5C112.72-17.82,120.55-6.76,120.2-.67Z"/></svg>