<svg id="Слой_1" data-name="Слой 1" xmlns="http://www.w3.org/2000/svg" xmlns:xlink="http://www.w3.org/1999/xlink" viewBox="0 0 1800 1000"><defs><style>.cls-1{fill:none;}.cls-2{fill:#ececec;}.cls-18,.cls-3{fill:#dcdcdc;}.cls-4{fill:#a8a8a8;}.cls-5{fill:#c8c8c8;}.cls-23,.cls-6{fill:#fff;}.cls-7{fill:#ffc800;}.cls-10,.cls-8{opacity:0.2;}.cls-15,.cls-9{opacity:0.1;}.cls-11{fill:#4a148c;}.cls-12{fill:#306;}.cls-13,.cls-14{opacity:0.3;}.cls-16{clip-path:url(#clip-path);}.cls-17{opacity:0.7;}.cls-18,.cls-23{opacity:0.8;}.cls-19{fill:#1a2e35;}.cls-20{fill:#c36358;}.cls-21{fill:#ff9581;}.cls-22{fill:#ff9abd;}</style><clipPath id="clip-path"><rect class="cls-1" x="-30.5" y="-1169.5" width="1875" height="1047"/></clipPath></defs><path class="cls-2" d="M1153.7,272c18.25,0,325.39,2,344.7,1.41,1.38,0,2.13-2.08.75-2.77-12.17-6-26-4.81-38.62-9.07-7.44-2.51-12-7.37-17.17-13a35.65,35.65,0,0,0-16-10.44,33.79,33.79,0,0,0-17.4-.54c-6.23,1.48-11.65,5-17.59,7.3-14.76,5.57-29.09.28-39.63-10.64-8.69-9-17.23-17.49-29-22.34-9.89-4.06-20.87-4.9-30.77-.42-11.26,5.1-19,15.37-29.58,21.54-12.54,7.33-27.54,5.6-41.4,7.81s-24.49,13.88-36.64,20.6c-4.15,2.3-8.4,4.22-13.25,4.1-2.71-.07-5.38-.8-8.06-1.14-4.18-.51-8.16-.39-11,3.09C1152.36,268.37,1152.5,272,1153.7,272Z"/><path class="cls-2" d="M59.09,313.31c13.32,0,237.56,1.48,251.65,1,1,0,1.56-1.52.55-2-8.88-4.4-19-3.52-28.19-6.63-5.43-1.83-8.77-5.38-12.54-9.45a25.88,25.88,0,0,0-11.66-7.62,24.69,24.69,0,0,0-12.71-.4c-4.55,1.09-8.5,3.69-12.84,5.33-10.77,4.07-21.24.2-28.93-7.77-6.34-6.57-12.58-12.77-21.2-16.3-7.22-3-15.24-3.59-22.47-.32-8.22,3.73-13.87,11.23-21.59,15.73-9.16,5.36-20.11,4.09-30.23,5.7s-17.88,10.14-26.75,15c-3,1.68-6.14,3.09-9.67,3-2-.05-3.93-.59-5.89-.83-3.06-.38-6-.29-8,2.25C58.11,310.68,58.21,313.31,59.09,313.31Z"/><path class="cls-2" d="M701.4,458.45c13.33,0,237.57,1.47,251.66,1,1,0,1.56-1.52.55-2-8.88-4.39-19-3.51-28.19-6.62-5.43-1.83-8.77-5.38-12.54-9.46a26,26,0,0,0-11.67-7.62,24.64,24.64,0,0,0-12.7-.39c-4.55,1.08-8.5,3.69-12.84,5.33-10.77,4.06-21.24.2-28.93-7.77-6.35-6.57-12.58-12.77-21.21-16.31-7.22-3-15.23-3.58-22.46-.31C794.84,418,789.2,425.52,781.48,430c-9.16,5.35-20.12,4.09-30.23,5.7s-17.88,10.14-26.75,15c-3,1.68-6.14,3.08-9.68,3-2-.06-3.92-.59-5.88-.84-3.06-.37-6-.29-8,2.26C700.43,455.81,700.53,458.45,701.4,458.45Z"/><path class="cls-2" d="M1489,452.17c13.32,0,237.56,1.48,251.66,1,1,0,1.55-1.52.55-2-8.89-4.4-19-3.52-28.2-6.63-5.43-1.83-8.77-5.38-12.53-9.45a26,26,0,0,0-11.67-7.62,24.69,24.69,0,0,0-12.71-.4c-4.55,1.09-8.5,3.69-12.84,5.33-10.77,4.07-21.24.2-28.93-7.77-6.34-6.57-12.58-12.77-21.2-16.3-7.22-3-15.24-3.59-22.47-.32-8.22,3.73-13.87,11.23-21.59,15.73-9.16,5.36-20.11,4.09-30.23,5.7s-17.88,10.14-26.75,15c-3,1.68-6.13,3.09-9.67,3-2-.05-3.93-.59-5.89-.83-3-.38-6-.29-8,2.25C1488,449.54,1488.07,452.17,1489,452.17Z"/><path class="cls-2" d="M531.27,577.46c.25.75,353.43,0,349,0-2,0,3.08-3,1.09-4-11.49-5.7-24.07-5.86-36.59-7-7.3-.67-14.81-1.73-21.38-5.19s-10.81-9.54-15.53-15.13c-14.6-17.33-37.82-26.36-60.31-22.85-25.11,3.94-44.9,23.07-70.06,26.58-15.11,2.12-29.4-3.73-44.17-5.79-12.16-1.68-22.29.68-33.17,6.07-8,3.94-15.33,7.27-24.33,7.89-6.92.49-13.86-.3-20.79-.37-11.09-.1-22,4.7-30.59,12.22C523.29,570.86,519.73,577.46,531.27,577.46Z"/><rect class="cls-3" x="1288.07" y="379.8" width="145.93" height="764.94"/><rect class="cls-2" x="1310.72" y="404.65" width="28.37" height="29.21"/><rect class="cls-2" x="1347.01" y="404.65" width="28.37" height="29.21"/><rect class="cls-2" x="1310.72" y="454.24" width="28.37" height="29.21"/><rect class="cls-2" x="1347.01" y="454.24" width="28.37" height="29.21"/><rect class="cls-2" x="1310.72" y="503.83" width="28.37" height="29.21"/><rect class="cls-2" x="1347.01" y="503.83" width="28.37" height="29.21"/><rect class="cls-2" x="1310.72" y="553.41" width="28.37" height="29.21"/><rect class="cls-2" x="1347.01" y="553.41" width="28.37" height="29.21"/><rect class="cls-2" x="1310.72" y="603" width="28.37" height="29.21"/><rect class="cls-2" x="1347.01" y="603" width="28.37" height="29.21"/><rect class="cls-2" x="1310.72" y="652.59" width="28.37" height="29.21"/><rect class="cls-2" x="1347.01" y="652.59" width="28.37" height="29.21"/><rect class="cls-2" x="1310.72" y="702.18" width="28.37" height="29.21"/><rect class="cls-2" x="1347.01" y="702.18" width="28.37" height="29.21"/><rect class="cls-2" x="1310.72" y="751.77" width="28.37" height="29.21"/><rect class="cls-2" x="1347.01" y="751.77" width="28.37" height="29.21"/><rect class="cls-2" x="1310.72" y="801.36" width="28.37" height="29.21"/><rect class="cls-2" x="1347.01" y="801.36" width="28.37" height="29.21"/><rect class="cls-2" x="1310.72" y="850.94" width="28.37" height="29.21"/><rect class="cls-2" x="1347.01" y="850.94" width="28.37" height="29.21"/><rect class="cls-2" x="1310.72" y="900.53" width="28.37" height="29.21"/><rect class="cls-2" x="1347.01" y="900.53" width="28.37" height="29.21"/><rect class="cls-2" x="1310.72" y="950.12" width="28.37" height="29.21"/><rect class="cls-2" x="1347.01" y="950.12" width="28.37" height="29.21"/><rect class="cls-2" x="1310.72" y="999.71" width="28.37" height="29.21"/><rect class="cls-2" x="1347.01" y="999.71" width="28.37" height="29.21"/><rect class="cls-2" x="1382.98" y="999.71" width="28.37" height="29.21" transform="translate(2794.33 2028.63) rotate(180)"/><rect class="cls-2" x="1382.98" y="950.12" width="28.37" height="29.21" transform="translate(2794.33 1929.45) rotate(180)"/><rect class="cls-2" x="1382.98" y="900.53" width="28.37" height="29.21" transform="translate(2794.33 1830.27) rotate(180)"/><rect class="cls-2" x="1382.98" y="850.94" width="28.37" height="29.21" transform="translate(2794.33 1731.1) rotate(180)"/><rect class="cls-2" x="1382.98" y="801.36" width="28.37" height="29.21" transform="translate(2794.33 1631.92) rotate(180)"/><rect class="cls-2" x="1382.98" y="751.77" width="28.37" height="29.21" transform="translate(2794.33 1532.74) rotate(180)"/><rect class="cls-2" x="1382.98" y="702.18" width="28.37" height="29.21" transform="translate(2794.33 1433.57) rotate(180)"/><rect class="cls-2" x="1382.98" y="652.59" width="28.37" height="29.21" transform="translate(2794.33 1334.39) rotate(180)"/><rect class="cls-2" x="1382.98" y="603" width="28.37" height="29.21" transform="translate(2794.33 1235.21) rotate(180)"/><rect class="cls-2" x="1382.98" y="553.41" width="28.37" height="29.21" transform="translate(2794.33 1136.04) rotate(180)"/><rect class="cls-2" x="1382.98" y="503.83" width="28.37" height="29.21" transform="translate(2794.33 1036.86) rotate(180)"/><rect class="cls-2" x="1382.98" y="454.24" width="28.37" height="29.21" transform="translate(2794.33 937.68) rotate(180)"/><rect class="cls-2" x="1382.98" y="404.65" width="28.37" height="29.21" transform="translate(2794.33 838.51) rotate(180)"/><rect class="cls-4" x="1434" y="379.8" width="115.05" height="764.94"/><rect class="cls-5" x="1513.77" y="999.71" width="23.43" height="29.21" transform="translate(3050.96 2028.63) rotate(180)"/><rect class="cls-5" x="1483.8" y="999.71" width="23.42" height="29.21" transform="translate(2991.03 2028.63) rotate(180)"/><rect class="cls-5" x="1513.77" y="950.12" width="23.43" height="29.21" transform="translate(3050.96 1929.45) rotate(180)"/><rect class="cls-5" x="1483.8" y="950.12" width="23.42" height="29.21" transform="translate(2991.03 1929.45) rotate(180)"/><rect class="cls-5" x="1513.77" y="900.53" width="23.43" height="29.21" transform="translate(3050.96 1830.27) rotate(180)"/><rect class="cls-5" x="1483.8" y="900.53" width="23.42" height="29.21" transform="translate(2991.03 1830.27) rotate(180)"/><rect class="cls-5" x="1513.77" y="850.94" width="23.43" height="29.21" transform="translate(3050.96 1731.1) rotate(180)"/><rect class="cls-5" x="1483.8" y="850.94" width="23.42" height="29.21" transform="translate(2991.03 1731.1) rotate(180)"/><rect class="cls-5" x="1513.77" y="801.36" width="23.43" height="29.21" transform="translate(3050.96 1631.92) rotate(180)"/><rect class="cls-5" x="1483.8" y="801.36" width="23.42" height="29.21" transform="translate(2991.03 1631.92) rotate(180)"/><rect class="cls-5" x="1513.77" y="751.77" width="23.43" height="29.21" transform="translate(3050.96 1532.74) rotate(180)"/><rect class="cls-5" x="1483.8" y="751.77" width="23.42" height="29.21" transform="translate(2991.03 1532.74) rotate(180)"/><rect class="cls-5" x="1513.77" y="702.18" width="23.43" height="29.21" transform="translate(3050.96 1433.57) rotate(180)"/><rect class="cls-5" x="1483.8" y="702.18" width="23.42" height="29.21" transform="translate(2991.03 1433.57) rotate(180)"/><rect class="cls-5" x="1513.77" y="652.59" width="23.43" height="29.21" transform="translate(3050.96 1334.39) rotate(180)"/><rect class="cls-5" x="1483.8" y="652.59" width="23.42" height="29.21" transform="translate(2991.03 1334.39) rotate(180)"/><rect class="cls-5" x="1513.77" y="603" width="23.43" height="29.21" transform="translate(3050.96 1235.21) rotate(180)"/><rect class="cls-5" x="1483.8" y="603" width="23.42" height="29.21" transform="translate(2991.03 1235.21) rotate(180)"/><rect class="cls-5" x="1513.77" y="553.41" width="23.43" height="29.21" transform="translate(3050.96 1136.04) rotate(180)"/><rect class="cls-5" x="1483.8" y="553.41" width="23.42" height="29.21" transform="translate(2991.03 1136.04) rotate(180)"/><rect class="cls-5" x="1513.77" y="503.83" width="23.43" height="29.21" transform="translate(3050.96 1036.86) rotate(180)"/><rect class="cls-5" x="1483.8" y="503.83" width="23.42" height="29.21" transform="translate(2991.03 1036.86) rotate(180)"/><rect class="cls-5" x="1513.77" y="454.24" width="23.43" height="29.21" transform="translate(3050.96 937.68) rotate(180)"/><rect class="cls-5" x="1483.8" y="454.24" width="23.42" height="29.21" transform="translate(2991.03 937.68) rotate(180)"/><rect class="cls-5" x="1513.77" y="404.65" width="23.43" height="29.21" transform="translate(3050.96 838.51) rotate(180)"/><rect class="cls-5" x="1454.09" y="404.65" width="23.42" height="29.21"/><rect class="cls-5" x="1454.09" y="454.24" width="23.42" height="29.21"/><rect class="cls-5" x="1454.09" y="503.83" width="23.42" height="29.21"/><rect class="cls-5" x="1454.09" y="553.41" width="23.42" height="29.21"/><rect class="cls-5" x="1454.09" y="603" width="23.42" height="29.21"/><rect class="cls-5" x="1454.09" y="652.59" width="23.42" height="29.21"/><rect class="cls-5" x="1454.09" y="702.18" width="23.42" height="29.21"/><rect class="cls-5" x="1454.09" y="751.77" width="23.42" height="29.21"/><rect class="cls-5" x="1454.09" y="801.36" width="23.42" height="29.21"/><rect class="cls-5" x="1454.09" y="850.94" width="23.42" height="29.21"/><rect class="cls-5" x="1454.09" y="900.53" width="23.42" height="29.21"/><rect class="cls-5" x="1454.09" y="950.12" width="23.42" height="29.21"/><rect class="cls-5" x="1454.09" y="999.71" width="23.42" height="29.21"/><rect class="cls-5" x="1483.8" y="404.65" width="23.42" height="29.21" transform="translate(2991.03 838.51) rotate(180)"/><rect class="cls-2" x="819.35" y="320.47" width="175.67" height="824.27"/><rect class="cls-5" x="815.13" y="304.06" width="179.89" height="16.41"/><rect class="cls-6" x="835.24" y="344.66" width="17.8" height="800.08"/><rect class="cls-6" x="866.76" y="344.66" width="17.8" height="800.08"/><rect class="cls-6" x="898.29" y="344.66" width="17.8" height="800.08"/><rect class="cls-6" x="929.82" y="344.66" width="17.8" height="800.08"/><rect class="cls-6" x="961.34" y="344.66" width="17.8" height="800.08"/><rect class="cls-2" x="835.24" y="365.4" width="17.8" height="32.4"/><rect class="cls-2" x="866.76" y="365.4" width="17.8" height="32.4"/><rect class="cls-2" x="898.29" y="365.4" width="17.8" height="32.4"/><rect class="cls-2" x="929.82" y="365.4" width="17.8" height="32.4"/><rect class="cls-2" x="961.34" y="365.4" width="17.8" height="32.4"/><rect class="cls-2" x="835.24" y="418.06" width="17.8" height="32.4"/><rect class="cls-2" x="866.76" y="418.06" width="17.8" height="32.4"/><rect class="cls-2" x="898.29" y="418.06" width="17.8" height="32.4"/><rect class="cls-2" x="929.82" y="418.06" width="17.8" height="32.4"/><rect class="cls-2" x="961.34" y="418.06" width="17.8" height="32.4"/><rect class="cls-2" x="835.24" y="470.72" width="17.8" height="32.4"/><rect class="cls-2" x="866.76" y="470.72" width="17.8" height="32.4"/><rect class="cls-2" x="898.29" y="470.72" width="17.8" height="32.4"/><rect class="cls-2" x="929.82" y="470.72" width="17.8" height="32.4"/><rect class="cls-2" x="961.34" y="470.72" width="17.8" height="32.4"/><rect class="cls-2" x="835.24" y="523.38" width="17.8" height="32.4"/><rect class="cls-2" x="866.76" y="523.38" width="17.8" height="32.4"/><rect class="cls-2" x="898.29" y="523.38" width="17.8" height="32.4"/><rect class="cls-2" x="929.82" y="523.38" width="17.8" height="32.4"/><rect class="cls-2" x="961.34" y="523.38" width="17.8" height="32.4"/><rect class="cls-2" x="835.24" y="576.04" width="17.8" height="32.4"/><rect class="cls-2" x="866.76" y="576.04" width="17.8" height="32.4"/><rect class="cls-2" x="898.29" y="576.04" width="17.8" height="32.4"/><rect class="cls-2" x="929.82" y="576.04" width="17.8" height="32.4"/><rect class="cls-2" x="961.34" y="576.04" width="17.8" height="32.4"/><rect class="cls-2" x="835.24" y="628.7" width="17.8" height="32.4"/><rect class="cls-2" x="866.76" y="628.7" width="17.8" height="32.4"/><rect class="cls-2" x="898.29" y="628.7" width="17.8" height="32.4"/><rect class="cls-2" x="929.82" y="628.7" width="17.8" height="32.4"/><rect class="cls-2" x="961.34" y="628.7" width="17.8" height="32.4"/><rect class="cls-2" x="835.24" y="681.36" width="17.8" height="32.4"/><rect class="cls-2" x="866.76" y="681.36" width="17.8" height="32.4"/><rect class="cls-2" x="898.29" y="681.36" width="17.8" height="32.4"/><rect class="cls-2" x="929.82" y="681.36" width="17.8" height="32.4"/><rect class="cls-2" x="961.34" y="681.36" width="17.8" height="32.4"/><rect class="cls-2" x="835.24" y="734.02" width="17.8" height="32.4"/><rect class="cls-2" x="866.76" y="734.02" width="17.8" height="32.4"/><rect class="cls-2" x="898.29" y="734.02" width="17.8" height="32.4"/><rect class="cls-2" x="929.82" y="734.02" width="17.8" height="32.4"/><rect class="cls-2" x="961.34" y="734.02" width="17.8" height="32.4"/><rect class="cls-2" x="835.24" y="786.68" width="17.8" height="32.4"/><rect class="cls-2" x="866.76" y="786.68" width="17.8" height="32.4"/><rect class="cls-2" x="898.29" y="786.68" width="17.8" height="32.4"/><rect class="cls-2" x="929.82" y="786.68" width="17.8" height="32.4"/><rect class="cls-2" x="961.34" y="786.68" width="17.8" height="32.4"/><rect class="cls-2" x="835.24" y="839.34" width="17.8" height="32.4"/><rect class="cls-2" x="866.76" y="839.34" width="17.8" height="32.4"/><rect class="cls-2" x="898.29" y="839.34" width="17.8" height="32.4"/><rect class="cls-2" x="929.82" y="839.34" width="17.8" height="32.4"/><rect class="cls-2" x="961.34" y="839.34" width="17.8" height="32.4"/><rect class="cls-2" x="835.24" y="892" width="17.8" height="32.4"/><rect class="cls-2" x="866.76" y="892" width="17.8" height="32.4"/><rect class="cls-2" x="898.29" y="892" width="17.8" height="32.4"/><rect class="cls-2" x="929.82" y="892" width="17.8" height="32.4"/><rect class="cls-2" x="961.34" y="892" width="17.8" height="32.4"/><rect class="cls-2" x="835.24" y="944.65" width="17.8" height="32.4"/><rect class="cls-2" x="866.76" y="944.65" width="17.8" height="32.4"/><rect class="cls-2" x="898.29" y="944.65" width="17.8" height="32.4"/><rect class="cls-2" x="929.82" y="944.65" width="17.8" height="32.4"/><rect class="cls-2" x="961.34" y="944.65" width="17.8" height="32.4"/><rect class="cls-2" x="835.24" y="997.31" width="17.8" height="32.4"/><rect class="cls-2" x="866.76" y="997.31" width="17.8" height="32.4"/><rect class="cls-2" x="898.29" y="997.31" width="17.8" height="32.4"/><rect class="cls-2" x="929.82" y="997.31" width="17.8" height="32.4"/><rect class="cls-2" x="961.34" y="997.31" width="17.8" height="32.4"/><rect class="cls-3" x="995.02" y="320.47" width="112.78" height="824.27"/><rect class="cls-5" x="995.02" y="304.06" width="117.66" height="16.41"/><rect class="cls-5" x="1010.91" y="344.66" width="17.8" height="800.08"/><rect class="cls-5" x="1042.43" y="344.66" width="17.8" height="800.08"/><rect class="cls-5" x="1073.96" y="344.66" width="17.8" height="800.08"/><rect class="cls-3" x="1010.91" y="365.4" width="17.8" height="32.4"/><rect class="cls-3" x="1042.43" y="365.4" width="17.8" height="32.4"/><rect class="cls-3" x="1073.96" y="365.4" width="17.8" height="32.4"/><rect class="cls-3" x="1010.91" y="418.06" width="17.8" height="32.4"/><rect class="cls-3" x="1042.43" y="418.06" width="17.8" height="32.4"/><rect class="cls-3" x="1073.96" y="418.06" width="17.8" height="32.4"/><rect class="cls-3" x="1010.91" y="470.72" width="17.8" height="32.4"/><rect class="cls-3" x="1042.43" y="470.72" width="17.8" height="32.4"/><rect class="cls-3" x="1073.96" y="470.72" width="17.8" height="32.4"/><rect class="cls-3" x="1010.91" y="523.38" width="17.8" height="32.4"/><rect class="cls-3" x="1042.43" y="523.38" width="17.8" height="32.4"/><rect class="cls-3" x="1073.96" y="523.38" width="17.8" height="32.4"/><rect class="cls-3" x="1010.91" y="576.04" width="17.8" height="32.4"/><rect class="cls-3" x="1042.43" y="576.04" width="17.8" height="32.4"/><rect class="cls-3" x="1073.96" y="576.04" width="17.8" height="32.4"/><rect class="cls-3" x="1010.91" y="628.7" width="17.8" height="32.4"/><rect class="cls-3" x="1042.43" y="628.7" width="17.8" height="32.4"/><rect class="cls-3" x="1073.96" y="628.7" width="17.8" height="32.4"/><rect class="cls-3" x="1010.91" y="681.36" width="17.8" height="32.4"/><rect class="cls-3" x="1042.43" y="681.36" width="17.8" height="32.4"/><rect class="cls-3" x="1073.96" y="681.36" width="17.8" height="32.4"/><rect class="cls-3" x="1010.91" y="734.02" width="17.8" height="32.4"/><rect class="cls-3" x="1042.43" y="734.02" width="17.8" height="32.4"/><rect class="cls-3" x="1073.96" y="734.02" width="17.8" height="32.4"/><rect class="cls-3" x="1010.91" y="786.68" width="17.8" height="32.4"/><rect class="cls-3" x="1042.43" y="786.68" width="17.8" height="32.4"/><rect class="cls-3" x="1073.96" y="786.68" width="17.8" height="32.4"/><rect class="cls-3" x="1010.91" y="839.34" width="17.8" height="32.4"/><rect class="cls-3" x="1042.43" y="839.34" width="17.8" height="32.4"/><rect class="cls-3" x="1073.96" y="839.34" width="17.8" height="32.4"/><rect class="cls-3" x="1010.91" y="892" width="17.8" height="32.4"/><rect class="cls-3" x="1042.43" y="892" width="17.8" height="32.4"/><rect class="cls-3" x="1073.96" y="892" width="17.8" height="32.4"/><rect class="cls-3" x="1010.91" y="944.65" width="17.8" height="32.4"/><rect class="cls-3" x="1042.43" y="944.65" width="17.8" height="32.4"/><rect class="cls-3" x="1073.96" y="944.65" width="17.8" height="32.4"/><rect class="cls-3" x="1010.91" y="997.31" width="17.8" height="32.4"/><rect class="cls-3" x="1042.43" y="997.31" width="17.8" height="32.4"/><rect class="cls-3" x="1073.96" y="997.31" width="17.8" height="32.4"/><rect class="cls-2" x="46.4" y="597.21" width="144.37" height="547.53"/><rect class="cls-5" x="66.94" y="560.9" width="123.84" height="36.31"/><rect class="cls-3" x="62.23" y="616.17" width="112.71" height="409.31"/><rect class="cls-6" x="62.23" y="655.23" width="112.71" height="9.67"/><rect class="cls-6" x="62.23" y="695.29" width="112.71" height="9.67"/><rect class="cls-6" x="62.23" y="735.36" width="112.71" height="9.67"/><rect class="cls-6" x="62.23" y="775.42" width="112.71" height="9.67"/><rect class="cls-6" x="62.23" y="815.48" width="112.71" height="9.67"/><rect class="cls-6" x="62.23" y="855.55" width="112.71" height="9.67"/><rect class="cls-6" x="62.23" y="895.61" width="112.71" height="9.67"/><rect class="cls-6" x="62.23" y="935.68" width="112.71" height="9.67"/><rect class="cls-6" x="62.23" y="975.74" width="112.71" height="9.67"/><rect class="cls-3" x="190.77" y="597.21" width="90.43" height="547.53"/><rect class="cls-4" x="190.77" y="560.9" width="76.86" height="36.31"/><rect class="cls-5" x="203.24" y="616.17" width="69.53" height="409.31"/><rect class="cls-6" x="203.24" y="655.23" width="69.53" height="9.67"/><rect class="cls-6" x="203.24" y="695.29" width="69.53" height="9.67"/><rect class="cls-6" x="203.24" y="735.36" width="69.53" height="9.67"/><rect class="cls-6" x="203.24" y="775.42" width="69.53" height="9.67"/><rect class="cls-6" x="203.24" y="815.48" width="69.53" height="9.67"/><rect class="cls-6" x="203.24" y="855.55" width="69.53" height="9.67"/><rect class="cls-6" x="203.24" y="895.61" width="69.53" height="9.67"/><rect class="cls-6" x="203.24" y="935.68" width="69.53" height="9.67"/><rect class="cls-6" x="203.24" y="975.74" width="69.53" height="9.67"/><rect class="cls-3" x="1557.46" y="606.44" width="77.11" height="91.08"/><rect class="cls-5" x="1634.56" y="606.44" width="48.89" height="94.42"/><rect class="cls-3" x="1638.19" y="646.66" width="48.52" height="54.2"/><rect class="cls-5" x="1686.71" y="646.66" width="30.26" height="54.2"/><rect class="cls-2" x="1527.88" y="691.61" width="124.68" height="453.14"/><rect class="cls-6" x="1542.14" y="711.09" width="39.21" height="16.02"/><rect class="cls-6" x="1592.29" y="711.09" width="39.21" height="16.02"/><rect class="cls-6" x="1542.14" y="738.28" width="39.21" height="16.02"/><rect class="cls-6" x="1592.29" y="738.28" width="39.21" height="16.02"/><rect class="cls-6" x="1542.14" y="765.48" width="39.21" height="16.02"/><rect class="cls-6" x="1592.29" y="765.48" width="39.21" height="16.02"/><rect class="cls-6" x="1542.14" y="792.68" width="39.21" height="16.02"/><rect class="cls-6" x="1592.29" y="792.68" width="39.21" height="16.02"/><rect class="cls-6" x="1542.14" y="819.88" width="39.21" height="16.02"/><rect class="cls-6" x="1592.29" y="819.88" width="39.21" height="16.02"/><rect class="cls-6" x="1542.14" y="847.08" width="39.21" height="16.02"/><rect class="cls-6" x="1592.29" y="847.08" width="39.21" height="16.02"/><rect class="cls-6" x="1542.14" y="874.28" width="39.21" height="16.02"/><rect class="cls-6" x="1592.29" y="874.28" width="39.21" height="16.02"/><rect class="cls-6" x="1542.14" y="901.48" width="39.21" height="16.02"/><rect class="cls-6" x="1592.29" y="901.48" width="39.21" height="16.02"/><rect class="cls-6" x="1542.14" y="928.67" width="39.21" height="16.02"/><rect class="cls-6" x="1592.29" y="928.67" width="39.21" height="16.02"/><rect class="cls-6" x="1542.14" y="955.87" width="39.21" height="16.02"/><rect class="cls-6" x="1592.29" y="955.87" width="39.21" height="16.02"/><rect class="cls-6" x="1542.14" y="983.07" width="39.21" height="16.02"/><rect class="cls-6" x="1592.29" y="983.07" width="39.21" height="16.02"/><rect class="cls-5" x="1652.57" y="691.61" width="101.03" height="453.14"/><rect class="cls-2" x="1711.28" y="983.07" width="32.19" height="16.02" transform="translate(3454.74 1982.16) rotate(180)"/><rect class="cls-2" x="1670.1" y="983.07" width="32.19" height="16.02" transform="translate(3372.38 1982.16) rotate(180)"/><rect class="cls-2" x="1711.28" y="955.87" width="32.19" height="16.02" transform="translate(3454.74 1927.77) rotate(180)"/><rect class="cls-2" x="1670.1" y="955.87" width="32.19" height="16.02" transform="translate(3372.38 1927.77) rotate(180)"/><rect class="cls-2" x="1711.28" y="928.67" width="32.19" height="16.02" transform="translate(3454.74 1873.37) rotate(180)"/><rect class="cls-2" x="1670.1" y="928.67" width="32.19" height="16.02" transform="translate(3372.38 1873.37) rotate(180)"/><rect class="cls-2" x="1711.28" y="901.48" width="32.19" height="16.02" transform="translate(3454.74 1818.97) rotate(180)"/><rect class="cls-2" x="1670.1" y="901.48" width="32.19" height="16.02" transform="translate(3372.38 1818.97) rotate(180)"/><rect class="cls-2" x="1711.28" y="874.28" width="32.19" height="16.02" transform="translate(3454.74 1764.57) rotate(180)"/><rect class="cls-2" x="1670.1" y="874.28" width="32.19" height="16.02" transform="translate(3372.38 1764.57) rotate(180)"/><rect class="cls-2" x="1711.28" y="847.08" width="32.19" height="16.02" transform="translate(3454.74 1710.18) rotate(180)"/><rect class="cls-2" x="1670.1" y="847.08" width="32.19" height="16.02" transform="translate(3372.38 1710.18) rotate(180)"/><rect class="cls-2" x="1711.28" y="819.88" width="32.19" height="16.02" transform="translate(3454.74 1655.78) rotate(180)"/><rect class="cls-2" x="1670.1" y="819.88" width="32.19" height="16.02" transform="translate(3372.38 1655.78) rotate(180)"/><rect class="cls-2" x="1711.28" y="792.68" width="32.19" height="16.02" transform="translate(3454.74 1601.38) rotate(180)"/><rect class="cls-2" x="1670.1" y="792.68" width="32.19" height="16.02" transform="translate(3372.38 1601.38) rotate(180)"/><rect class="cls-2" x="1711.28" y="765.48" width="32.19" height="16.02" transform="translate(3454.74 1546.98) rotate(180)"/><rect class="cls-2" x="1670.1" y="765.48" width="32.19" height="16.02" transform="translate(3372.38 1546.98) rotate(180)"/><rect class="cls-2" x="1711.28" y="738.28" width="32.19" height="16.02" transform="translate(3454.74 1492.59) rotate(180)"/><rect class="cls-2" x="1670.1" y="738.28" width="32.19" height="16.02" transform="translate(3372.38 1492.59) rotate(180)"/><rect class="cls-2" x="1711.28" y="711.09" width="32.19" height="16.02" transform="translate(3454.74 1438.19) rotate(180)"/><rect class="cls-2" x="1670.1" y="711.09" width="32.19" height="16.02" transform="translate(3372.38 1438.19) rotate(180)"/><rect class="cls-5" x="573.7" y="849.47" width="147.06" height="295.27"/><rect class="cls-3" x="596.83" y="875.03" width="26.03" height="18.09"/><rect class="cls-3" x="596.83" y="913.67" width="26.03" height="18.09"/><rect class="cls-3" x="596.83" y="952.31" width="26.03" height="18.09"/><rect class="cls-3" x="596.83" y="990.95" width="26.03" height="18.09"/><rect class="cls-3" x="634.27" y="875.03" width="26.03" height="18.09"/><rect class="cls-3" x="634.27" y="913.67" width="26.03" height="18.09"/><rect class="cls-3" x="634.27" y="952.31" width="26.03" height="18.09"/><rect class="cls-3" x="634.27" y="990.95" width="26.03" height="18.09"/><rect class="cls-3" x="671.61" y="875.03" width="26.03" height="18.09"/><rect class="cls-3" x="671.61" y="913.67" width="26.03" height="18.09"/><rect class="cls-3" x="671.61" y="952.31" width="26.03" height="18.09"/><rect class="cls-3" x="671.61" y="990.95" width="26.03" height="18.09"/><rect class="cls-3" x="622.86" y="818.71" width="97.91" height="30.76"/><rect class="cls-2" x="658.69" y="799.66" width="62.07" height="19.05"/><rect class="cls-4" x="720.77" y="849.47" width="103.18" height="295.27"/><rect class="cls-5" x="792.2" y="988.06" width="21.19" height="18.09" transform="translate(1605.59 1994.22) rotate(180)"/><rect class="cls-5" x="792.2" y="949.42" width="21.19" height="18.09" transform="translate(1605.59 1916.94) rotate(180)"/><rect class="cls-5" x="792.2" y="910.78" width="21.19" height="18.09" transform="translate(1605.59 1839.66) rotate(180)"/><rect class="cls-5" x="792.2" y="872.15" width="21.19" height="18.09" transform="translate(1605.59 1762.38) rotate(180)"/><rect class="cls-5" x="761.73" y="988.06" width="21.19" height="18.09" transform="translate(1544.64 1994.22) rotate(180)"/><rect class="cls-5" x="761.73" y="949.42" width="21.19" height="18.09" transform="translate(1544.64 1916.94) rotate(180)"/><rect class="cls-5" x="761.73" y="910.78" width="21.19" height="18.09" transform="translate(1544.64 1839.66) rotate(180)"/><rect class="cls-5" x="761.73" y="872.15" width="21.19" height="18.09" transform="translate(1544.64 1762.38) rotate(180)"/><rect class="cls-5" x="731.33" y="988.06" width="21.19" height="18.09" transform="translate(1483.84 1994.22) rotate(180)"/><rect class="cls-5" x="731.33" y="949.42" width="21.19" height="18.09" transform="translate(1483.84 1916.94) rotate(180)"/><rect class="cls-5" x="731.33" y="910.78" width="21.19" height="18.09" transform="translate(1483.84 1839.66) rotate(180)"/><rect class="cls-5" x="731.33" y="872.15" width="21.19" height="18.09" transform="translate(1483.84 1762.38) rotate(180)"/><rect class="cls-5" x="720.77" y="818.71" width="87.55" height="30.76"/><rect class="cls-3" x="720.77" y="799.66" width="47.44" height="19.05"/><polygon class="cls-7" points="501.81 1144.74 356.52 1144.74 356.52 688.97 501.81 594.8 501.81 1144.74"/><polygon class="cls-7" points="483.13 1144.74 372.87 1144.74 372.87 701.72 483.13 630.25 483.13 1144.74"/><polygon class="cls-8" points="483.13 1144.74 372.87 1144.74 372.87 701.72 483.13 630.25 483.13 1144.74"/><rect class="cls-7" x="385.5" y="709.39" width="97.63" height="3.51"/><rect class="cls-7" x="385.5" y="738.17" width="97.63" height="3.51"/><rect class="cls-7" x="385.5" y="766.96" width="97.63" height="3.51"/><rect class="cls-7" x="385.5" y="795.75" width="97.63" height="3.51"/><rect class="cls-7" x="385.5" y="824.54" width="97.63" height="3.51"/><rect class="cls-7" x="385.5" y="853.33" width="97.63" height="3.51"/><rect class="cls-7" x="385.5" y="882.12" width="97.63" height="3.51"/><rect class="cls-7" x="385.5" y="910.91" width="97.63" height="3.51"/><rect class="cls-7" x="385.5" y="939.7" width="97.63" height="3.51"/><rect class="cls-7" x="385.5" y="968.49" width="97.63" height="3.51"/><rect class="cls-7" x="385.5" y="997.28" width="97.63" height="3.51"/><rect class="cls-7" x="199.91" y="908.58" width="468.81" height="3.51" transform="translate(-476.02 1344.65) rotate(-90)"/><polygon class="cls-7" points="483.13 630.25 483.13 646.11 385.5 709.38 385.5 1144.74 372.88 1144.74 372.88 701.71 483.13 630.25"/><polygon class="cls-9" points="483.13 630.25 483.13 646.11 385.5 709.38 385.5 1144.74 372.88 1144.74 372.88 701.71 483.13 630.25"/><rect class="cls-7" x="501.81" y="594.8" width="128" height="549.94"/><rect class="cls-8" x="501.81" y="594.8" width="128" height="549.94"/><g class="cls-10"><rect x="514.22" y="630.25" width="103.16" height="12.45"/><rect x="514.22" y="658.45" width="103.16" height="12.45"/><rect x="514.22" y="686.66" width="103.16" height="12.45"/><rect x="514.22" y="714.86" width="103.16" height="12.45"/><rect x="514.22" y="743.06" width="103.16" height="12.45"/><rect x="514.22" y="771.26" width="103.16" height="12.45"/><rect x="514.22" y="799.46" width="103.16" height="12.45"/><rect x="514.22" y="827.66" width="103.16" height="12.45"/><rect x="514.22" y="855.87" width="103.16" height="12.45"/><rect x="514.22" y="884.07" width="103.16" height="12.45"/><rect x="514.22" y="912.27" width="103.16" height="12.45"/><rect x="514.22" y="940.47" width="103.16" height="12.45"/><rect x="514.22" y="968.67" width="103.16" height="12.45"/><rect x="514.22" y="996.88" width="103.16" height="12.45"/></g><rect class="cls-11" x="1429.6" y="608.21" width="174.74" height="536.54"/><rect class="cls-11" x="1472.94" y="554.23" width="130.75" height="53.97"/><rect class="cls-11" x="1483.82" y="562.56" width="11.18" height="37.32"/><rect class="cls-11" x="1503.38" y="562.56" width="11.18" height="37.32"/><rect class="cls-11" x="1522.94" y="562.56" width="11.18" height="37.32"/><rect class="cls-11" x="1542.51" y="562.56" width="11.18" height="37.32"/><rect class="cls-11" x="1562.07" y="562.56" width="11.18" height="37.32"/><rect class="cls-11" x="1581.63" y="562.56" width="11.18" height="37.32"/><rect class="cls-11" x="1603.69" y="554.23" width="59.46" height="53.97"/><rect class="cls-11" x="1612.03" y="562.56" width="9.51" height="37.32"/><rect class="cls-11" x="1628.67" y="562.56" width="9.51" height="37.32"/><rect class="cls-11" x="1645.3" y="562.56" width="9.51" height="37.32"/><rect class="cls-11" x="1603.69" y="608.21" width="88.94" height="536.54"/><rect class="cls-12" x="1497.74" y="526.89" width="4" height="27.35"/><rect class="cls-12" x="1574.89" y="526.89" width="4" height="27.35"/><rect class="cls-7" x="1480.01" y="479.07" width="116.6" height="47.82"/><rect class="cls-12" x="1465.37" y="645.16" width="32.25" height="49.39"/><rect class="cls-12" x="1531.03" y="645.16" width="32.25" height="49.39"/><rect class="cls-12" x="1465.37" y="722.99" width="32.25" height="49.39"/><rect class="cls-12" x="1531.03" y="722.99" width="32.25" height="49.39"/><rect class="cls-12" x="1465.37" y="800.82" width="32.25" height="49.39"/><rect class="cls-12" x="1531.03" y="800.82" width="32.25" height="49.39"/><rect class="cls-12" x="1465.37" y="878.65" width="32.25" height="49.39"/><rect class="cls-12" x="1531.03" y="878.65" width="32.25" height="49.39"/><rect class="cls-12" x="1465.37" y="956.47" width="32.25" height="49.39"/><rect class="cls-12" x="1531.03" y="956.47" width="32.25" height="49.39"/><rect class="cls-12" x="1620.03" y="645.16" width="18.53" height="49.39"/><rect class="cls-12" x="1657.76" y="645.16" width="18.53" height="49.39"/><rect class="cls-12" x="1620.03" y="722.99" width="18.53" height="49.39"/><rect class="cls-12" x="1657.76" y="722.99" width="18.53" height="49.39"/><rect class="cls-12" x="1620.03" y="800.82" width="18.53" height="49.39"/><rect class="cls-12" x="1657.76" y="800.82" width="18.53" height="49.39"/><rect class="cls-12" x="1620.03" y="878.65" width="18.53" height="49.39"/><rect class="cls-12" x="1657.76" y="878.65" width="18.53" height="49.39"/><rect class="cls-12" x="1620.03" y="956.47" width="18.53" height="49.39"/><rect class="cls-12" x="1657.76" y="956.47" width="18.53" height="49.39"/><rect class="cls-11" x="296.28" y="421.47" width="110.5" height="723.28"/><rect class="cls-11" x="296.28" y="461.98" width="110.5" height="7.6"/><rect class="cls-12" x="307.66" y="491.92" width="20.34" height="42.29"/><rect class="cls-12" x="307.66" y="545.28" width="20.34" height="42.29"/><rect class="cls-12" x="307.66" y="598.64" width="20.34" height="42.29"/><rect class="cls-12" x="307.66" y="651.97" width="20.34" height="42.29"/><rect class="cls-12" x="307.66" y="705.33" width="20.34" height="42.29"/><rect class="cls-12" x="307.66" y="758.68" width="20.34" height="42.29"/><rect class="cls-12" x="307.66" y="812.01" width="20.34" height="42.29"/><rect class="cls-12" x="307.66" y="865.37" width="20.34" height="42.29"/><rect class="cls-12" x="307.66" y="918.73" width="20.34" height="42.29"/><rect class="cls-12" x="307.66" y="972.05" width="20.34" height="42.29"/><rect class="cls-12" x="307.66" y="491.92" width="20.34" height="42.29"/><rect class="cls-12" x="307.66" y="545.28" width="20.34" height="42.29"/><rect class="cls-12" x="307.66" y="598.64" width="20.34" height="42.29"/><rect class="cls-12" x="307.66" y="651.97" width="20.34" height="42.29"/><rect class="cls-12" x="307.66" y="705.33" width="20.34" height="42.29"/><rect class="cls-12" x="307.66" y="758.68" width="20.34" height="42.29"/><rect class="cls-12" x="307.66" y="812.01" width="20.34" height="42.29"/><rect class="cls-12" x="307.66" y="865.37" width="20.34" height="42.29"/><rect class="cls-12" x="307.66" y="918.73" width="20.34" height="42.29"/><rect class="cls-12" x="307.66" y="972.05" width="20.34" height="42.29"/><rect class="cls-12" x="341.36" y="491.92" width="20.34" height="42.29"/><rect class="cls-12" x="341.36" y="545.28" width="20.34" height="42.29"/><rect class="cls-12" x="341.36" y="598.64" width="20.34" height="42.29"/><rect class="cls-12" x="341.36" y="651.97" width="20.34" height="42.29"/><rect class="cls-12" x="341.36" y="705.33" width="20.34" height="42.29"/><rect class="cls-12" x="341.36" y="758.68" width="20.34" height="42.29"/><rect class="cls-12" x="341.36" y="812.01" width="20.34" height="42.29"/><rect class="cls-12" x="341.36" y="865.37" width="20.34" height="42.29"/><rect class="cls-12" x="341.36" y="918.73" width="20.34" height="42.29"/><rect class="cls-12" x="341.36" y="972.05" width="20.34" height="42.29"/><rect class="cls-12" x="341.36" y="491.92" width="20.34" height="42.29"/><rect class="cls-12" x="341.36" y="545.28" width="20.34" height="42.29"/><rect class="cls-12" x="341.36" y="598.64" width="20.34" height="42.29"/><rect class="cls-12" x="341.36" y="651.97" width="20.34" height="42.29"/><rect class="cls-12" x="341.36" y="705.33" width="20.34" height="42.29"/><rect class="cls-12" x="341.36" y="758.68" width="20.34" height="42.29"/><rect class="cls-12" x="341.36" y="812.01" width="20.34" height="42.29"/><rect class="cls-12" x="341.36" y="865.37" width="20.34" height="42.29"/><rect class="cls-12" x="341.36" y="918.73" width="20.34" height="42.29"/><rect class="cls-12" x="341.36" y="972.05" width="20.34" height="42.29"/><rect class="cls-12" x="375.05" y="491.92" width="20.34" height="42.29"/><rect class="cls-12" x="375.05" y="545.28" width="20.34" height="42.29"/><rect class="cls-12" x="375.05" y="598.64" width="20.34" height="42.29"/><rect class="cls-12" x="375.05" y="651.97" width="20.34" height="42.29"/><rect class="cls-12" x="375.05" y="705.33" width="20.34" height="42.29"/><rect class="cls-12" x="375.05" y="758.68" width="20.34" height="42.29"/><rect class="cls-12" x="375.05" y="812.01" width="20.34" height="42.29"/><rect class="cls-12" x="375.05" y="865.37" width="20.34" height="42.29"/><rect class="cls-12" x="375.05" y="918.73" width="20.34" height="42.29"/><rect class="cls-12" x="375.05" y="972.05" width="20.34" height="42.29"/><rect class="cls-12" x="375.05" y="491.92" width="20.34" height="42.29"/><rect class="cls-12" x="375.05" y="545.28" width="20.34" height="42.29"/><rect class="cls-12" x="375.05" y="598.64" width="20.34" height="42.29"/><rect class="cls-12" x="375.05" y="651.97" width="20.34" height="42.29"/><rect class="cls-12" x="375.05" y="705.33" width="20.34" height="42.29"/><rect class="cls-12" x="375.05" y="758.68" width="20.34" height="42.29"/><rect class="cls-12" x="375.05" y="812.01" width="20.34" height="42.29"/><rect class="cls-12" x="375.05" y="865.37" width="20.34" height="42.29"/><rect class="cls-12" x="375.05" y="918.73" width="20.34" height="42.29"/><rect class="cls-12" x="375.05" y="972.05" width="20.34" height="42.29"/><rect class="cls-11" x="107.37" y="421.47" width="188.91" height="723.28"/><rect class="cls-11" x="107.37" y="461.98" width="188.91" height="7.6"/><rect class="cls-11" x="174.7" y="380.83" width="121.57" height="40.63"/><rect class="cls-12" x="296.28" y="380.83" width="57.13" height="40.63" transform="translate(649.68 802.3) rotate(180)"/><rect class="cls-12" x="127.61" y="491.92" width="33.02" height="42.29"/><rect class="cls-12" x="127.61" y="545.28" width="33.02" height="42.29"/><rect class="cls-12" x="127.61" y="598.64" width="33.02" height="42.29"/><rect class="cls-12" x="127.61" y="651.97" width="33.02" height="42.29"/><rect class="cls-12" x="127.61" y="705.33" width="33.02" height="42.29"/><rect class="cls-12" x="127.61" y="758.68" width="33.02" height="42.29"/><rect class="cls-12" x="127.61" y="812.01" width="33.02" height="42.29"/><rect class="cls-12" x="127.61" y="865.37" width="33.02" height="42.29"/><rect class="cls-12" x="127.61" y="918.73" width="33.02" height="42.29"/><rect class="cls-12" x="127.61" y="972.05" width="33.02" height="42.29"/><rect class="cls-12" x="127.61" y="491.92" width="33.02" height="42.29"/><rect class="cls-12" x="127.61" y="545.28" width="33.02" height="42.29"/><rect class="cls-12" x="127.61" y="598.64" width="33.02" height="42.29"/><rect class="cls-12" x="127.61" y="651.97" width="33.02" height="42.29"/><rect class="cls-12" x="127.61" y="705.33" width="33.02" height="42.29"/><rect class="cls-12" x="127.61" y="758.68" width="33.02" height="42.29"/><rect class="cls-12" x="127.61" y="812.01" width="33.02" height="42.29"/><rect class="cls-12" x="127.61" y="865.37" width="33.02" height="42.29"/><rect class="cls-12" x="127.61" y="918.73" width="33.02" height="42.29"/><rect class="cls-12" x="127.61" y="972.05" width="33.02" height="42.29"/><rect class="cls-12" x="182.31" y="491.92" width="33.02" height="42.29"/><rect class="cls-12" x="182.31" y="545.28" width="33.02" height="42.29"/><rect class="cls-12" x="182.31" y="598.64" width="33.02" height="42.29"/><rect class="cls-12" x="182.31" y="651.97" width="33.02" height="42.29"/><rect class="cls-12" x="182.31" y="705.33" width="33.02" height="42.29"/><rect class="cls-12" x="182.31" y="758.68" width="33.02" height="42.29"/><rect class="cls-12" x="182.31" y="812.01" width="33.02" height="42.29"/><rect class="cls-12" x="182.31" y="865.37" width="33.02" height="42.29"/><rect class="cls-12" x="182.31" y="918.73" width="33.02" height="42.29"/><rect class="cls-12" x="182.31" y="972.05" width="33.02" height="42.29"/><rect class="cls-12" x="182.31" y="491.92" width="33.02" height="42.29"/><rect class="cls-12" x="182.31" y="545.28" width="33.02" height="42.29"/><rect class="cls-12" x="182.31" y="598.64" width="33.02" height="42.29"/><rect class="cls-12" x="182.31" y="651.97" width="33.02" height="42.29"/><rect class="cls-12" x="182.31" y="705.33" width="33.02" height="42.29"/><rect class="cls-12" x="182.31" y="758.68" width="33.02" height="42.29"/><rect class="cls-12" x="182.31" y="812.01" width="33.02" height="42.29"/><rect class="cls-12" x="182.31" y="865.37" width="33.02" height="42.29"/><rect class="cls-12" x="182.31" y="918.73" width="33.02" height="42.29"/><rect class="cls-12" x="182.31" y="972.05" width="33.02" height="42.29"/><rect class="cls-12" x="237.02" y="491.92" width="33.02" height="42.29"/><rect class="cls-12" x="237.02" y="545.28" width="33.02" height="42.29"/><rect class="cls-12" x="237.02" y="598.64" width="33.02" height="42.29"/><rect class="cls-12" x="237.02" y="651.97" width="33.02" height="42.29"/><rect class="cls-12" x="237.02" y="705.33" width="33.02" height="42.29"/><rect class="cls-12" x="237.02" y="758.68" width="33.02" height="42.29"/><rect class="cls-12" x="237.02" y="812.01" width="33.02" height="42.29"/><rect class="cls-12" x="237.02" y="865.37" width="33.02" height="42.29"/><rect class="cls-12" x="237.02" y="918.73" width="33.02" height="42.29"/><rect class="cls-12" x="237.02" y="972.05" width="33.02" height="42.29"/><rect class="cls-12" x="237.02" y="491.92" width="33.02" height="42.29"/><rect class="cls-12" x="237.02" y="545.28" width="33.02" height="42.29"/><rect class="cls-12" x="237.02" y="598.64" width="33.02" height="42.29"/><rect class="cls-12" x="237.02" y="651.97" width="33.02" height="42.29"/><rect class="cls-12" x="237.02" y="705.33" width="33.02" height="42.29"/><rect class="cls-12" x="237.02" y="758.68" width="33.02" height="42.29"/><rect class="cls-12" x="237.02" y="812.01" width="33.02" height="42.29"/><rect class="cls-12" x="237.02" y="865.37" width="33.02" height="42.29"/><rect class="cls-12" x="237.02" y="918.73" width="33.02" height="42.29"/><rect class="cls-12" x="237.02" y="972.05" width="33.02" height="42.29"/><rect class="cls-7" x="1273.33" y="562.47" width="115.17" height="582.27"/><rect class="cls-8" x="1273.33" y="562.47" width="115.17" height="582.27"/><rect class="cls-7" x="1273.33" y="543.39" width="122.06" height="19.08" transform="translate(2668.71 1105.86) rotate(180)"/><rect class="cls-7" x="1273.33" y="513.6" width="103.49" height="29.79" transform="translate(2650.14 1056.99) rotate(180)"/><rect class="cls-8" x="1273.33" y="513.6" width="103.49" height="29.79" transform="translate(2650.14 1056.99) rotate(180)"/><rect class="cls-7" x="1273.33" y="447.89" width="79.17" height="65.71" transform="translate(2625.83 961.49) rotate(180)"/><rect class="cls-13" x="1273.33" y="447.89" width="79.17" height="65.71" transform="translate(2625.83 961.49) rotate(180)"/><g class="cls-14"><rect x="1284.37" y="584.54" width="15.62" height="61.24"/></g><g class="cls-14"><rect x="1284.37" y="667.98" width="15.62" height="61.24"/></g><g class="cls-14"><rect x="1284.37" y="751.41" width="15.62" height="61.24"/></g><g class="cls-14"><rect x="1284.37" y="834.85" width="15.62" height="61.24"/></g><g class="cls-14"><rect x="1284.37" y="918.28" width="15.62" height="61.24"/></g><g class="cls-14"><rect x="1310.19" y="584.54" width="15.62" height="61.24"/></g><g class="cls-14"><rect x="1310.19" y="667.98" width="15.62" height="61.24"/></g><g class="cls-14"><rect x="1310.19" y="751.41" width="15.62" height="61.24"/></g><g class="cls-14"><rect x="1310.19" y="834.85" width="15.62" height="61.24"/></g><g class="cls-14"><rect x="1310.19" y="918.28" width="15.62" height="61.24"/></g><g class="cls-14"><rect x="1336.01" y="584.54" width="15.62" height="61.24"/></g><g class="cls-14"><rect x="1336.01" y="667.98" width="15.62" height="61.24"/></g><g class="cls-14"><rect x="1336.01" y="751.41" width="15.62" height="61.24"/></g><g class="cls-14"><rect x="1336.01" y="834.85" width="15.62" height="61.24"/></g><g class="cls-14"><rect x="1336.01" y="918.28" width="15.62" height="61.24"/></g><g class="cls-14"><rect x="1361.84" y="584.54" width="15.62" height="61.24"/></g><g class="cls-14"><rect x="1361.84" y="667.98" width="15.62" height="61.24"/></g><g class="cls-14"><rect x="1361.84" y="751.41" width="15.62" height="61.24"/></g><g class="cls-14"><rect x="1361.84" y="834.85" width="15.62" height="61.24"/></g><g class="cls-14"><rect x="1361.84" y="918.28" width="15.62" height="61.24"/></g><rect class="cls-7" x="1037.25" y="562.47" width="236.08" height="582.27"/><rect class="cls-7" x="1048.56" y="513.6" width="224.77" height="29.79"/><rect class="cls-7" x="1104.19" y="447.89" width="169.13" height="65.71"/><rect class="cls-8" x="1104.19" y="447.89" width="169.13" height="65.71"/><rect class="cls-7" x="1030.19" y="543.39" width="243.14" height="19.08"/><rect class="cls-8" x="1030.19" y="543.39" width="243.14" height="19.08"/><g class="cls-15"><rect x="1059.82" y="584.54" width="32.04" height="61.24"/></g><g class="cls-15"><rect x="1059.82" y="667.98" width="32.04" height="61.24"/></g><g class="cls-15"><rect x="1059.82" y="751.41" width="32.04" height="61.24"/></g><g class="cls-15"><rect x="1059.82" y="834.85" width="32.04" height="61.24"/></g><g class="cls-15"><rect x="1059.82" y="918.28" width="32.04" height="61.24"/></g><g class="cls-15"><rect x="1112.79" y="584.54" width="32.04" height="61.24"/></g><g class="cls-15"><rect x="1112.79" y="667.98" width="32.04" height="61.24"/></g><g class="cls-15"><rect x="1112.79" y="751.41" width="32.04" height="61.24"/></g><g class="cls-15"><rect x="1112.79" y="834.85" width="32.04" height="61.24"/></g><g class="cls-15"><rect x="1112.79" y="918.28" width="32.04" height="61.24"/></g><g class="cls-15"><rect x="1165.75" y="584.54" width="32.04" height="61.24"/></g><g class="cls-15"><rect x="1165.75" y="667.98" width="32.04" height="61.24"/></g><g class="cls-15"><rect x="1165.75" y="751.41" width="32.04" height="61.24"/></g><g class="cls-15"><rect x="1165.75" y="834.85" width="32.04" height="61.24"/></g><g class="cls-15"><rect x="1165.75" y="918.28" width="32.04" height="61.24"/></g><g class="cls-15"><rect x="1218.71" y="584.54" width="32.05" height="61.24"/></g><g class="cls-15"><rect x="1218.71" y="667.98" width="32.05" height="61.24"/></g><g class="cls-15"><rect x="1218.71" y="751.41" width="32.05" height="61.24"/></g><g class="cls-15"><rect x="1218.71" y="834.85" width="32.05" height="61.24"/></g><g class="cls-15"><rect x="1218.71" y="918.28" width="32.05" height="61.24"/></g><rect class="cls-7" x="1509.61" y="812.71" width="115.17" height="332.03"/><rect class="cls-8" x="1509.61" y="812.71" width="115.17" height="332.03"/><rect class="cls-7" x="1509.61" y="793.63" width="122.06" height="19.08" transform="translate(3141.28 1606.34) rotate(180)"/><rect class="cls-7" x="1509.61" y="763.84" width="103.49" height="29.79" transform="translate(3122.71 1557.47) rotate(180)"/><rect class="cls-8" x="1509.61" y="763.84" width="103.49" height="29.79" transform="translate(3122.71 1557.47) rotate(180)"/><g class="cls-14"><rect x="1520.65" y="834.78" width="15.62" height="61.24"/></g><g class="cls-14"><rect x="1520.65" y="918.22" width="15.62" height="61.24"/></g><g class="cls-14"><rect x="1546.47" y="834.78" width="15.62" height="61.24"/></g><g class="cls-14"><rect x="1546.47" y="918.22" width="15.62" height="61.24"/></g><g class="cls-14"><rect x="1572.3" y="834.78" width="15.62" height="61.24"/></g><g class="cls-14"><rect x="1572.3" y="918.22" width="15.62" height="61.24"/></g><g class="cls-14"><rect x="1598.12" y="834.78" width="15.62" height="61.24"/></g><g class="cls-14"><rect x="1598.12" y="918.22" width="15.62" height="61.24"/></g><rect class="cls-7" x="1273.54" y="812.71" width="236.08" height="332.03"/><rect class="cls-7" x="1284.84" y="763.84" width="224.77" height="29.79"/><rect class="cls-7" x="1266.47" y="793.63" width="243.14" height="19.08"/><rect class="cls-8" x="1266.47" y="793.63" width="243.14" height="19.08"/><g class="cls-15"><rect x="1296.11" y="834.78" width="32.04" height="61.24"/></g><g class="cls-15"><rect x="1296.11" y="918.22" width="32.04" height="61.24"/></g><g class="cls-15"><rect x="1349.07" y="834.78" width="32.05" height="61.24"/></g><g class="cls-15"><rect x="1349.07" y="918.22" width="32.05" height="61.24"/></g><g class="cls-15"><rect x="1402.03" y="834.78" width="32.05" height="61.24"/></g><g class="cls-15"><rect x="1402.03" y="918.22" width="32.05" height="61.24"/></g><g class="cls-15"><rect x="1455" y="834.78" width="32.05" height="61.24"/></g><g class="cls-15"><rect x="1455" y="918.22" width="32.05" height="61.24"/></g><polygon class="cls-7" points="131.83 1144.74 143.1 1144.74 140.29 841.22 134.65 841.22 131.83 1144.74"/><polygon class="cls-8" points="131.83 1144.74 143.1 1144.74 140.29 841.22 134.65 841.22 131.83 1144.74"/><polygon class="cls-7" points="134.65 841.48 201.99 803.98 201.99 805.84 139.61 843.34 134.65 841.48"/><polygon class="cls-8" points="134.65 841.48 201.99 803.98 201.99 805.84 139.61 843.34 134.65 841.48"/><polygon class="cls-7" points="195.76 802.33 196.53 808.98 226.67 808.98 226.67 798.01 195.76 802.33"/><polygon class="cls-7" points="139.82 841.48 72.47 803.98 72.47 805.84 134.85 843.34 139.82 841.48"/><polygon class="cls-8" points="139.82 841.48 72.47 803.98 72.47 805.84 134.85 843.34 139.82 841.48"/><polygon class="cls-7" points="78.71 802.33 77.93 808.98 47.8 808.98 47.8 798.01 78.71 802.33"/><polygon class="cls-7" points="894.6 1144.74 905.87 1144.74 903.05 841.22 897.42 841.22 894.6 1144.74"/><polygon class="cls-8" points="894.6 1144.74 905.87 1144.74 903.05 841.22 897.42 841.22 894.6 1144.74"/><polygon class="cls-7" points="897.42 841.48 964.76 803.98 964.76 805.84 902.38 843.34 897.42 841.48"/><polygon class="cls-8" points="897.42 841.48 964.76 803.98 964.76 805.84 902.38 843.34 897.42 841.48"/><polygon class="cls-7" points="958.53 802.33 959.3 808.98 989.43 808.98 989.43 798.01 958.53 802.33"/><polygon class="cls-7" points="902.58 841.48 835.24 803.98 835.24 805.84 897.62 843.34 902.58 841.48"/><polygon class="cls-8" points="902.58 841.48 835.24 803.98 835.24 805.84 897.62 843.34 902.58 841.48"/><polygon class="cls-7" points="841.47 802.33 840.7 808.98 810.57 808.98 810.57 798.01 841.47 802.33"/><polygon class="cls-7" points="1657.36 1144.74 1668.64 1144.74 1665.82 841.22 1660.18 841.22 1657.36 1144.74"/><polygon class="cls-8" points="1657.36 1144.74 1668.64 1144.74 1665.82 841.22 1660.18 841.22 1657.36 1144.74"/><polygon class="cls-7" points="1660.18 841.48 1727.53 803.98 1727.53 805.84 1665.14 843.34 1660.18 841.48"/><polygon class="cls-8" points="1660.18 841.48 1727.53 803.98 1727.53 805.84 1665.14 843.34 1660.18 841.48"/><polygon class="cls-7" points="1721.29 802.33 1722.07 808.98 1752.2 808.98 1752.2 798.01 1721.29 802.33"/><polygon class="cls-7" points="1665.35 841.48 1598.01 803.98 1598.01 805.84 1660.39 843.34 1665.35 841.48"/><polygon class="cls-8" points="1665.35 841.48 1598.01 803.98 1598.01 805.84 1660.39 843.34 1665.35 841.48"/><polygon class="cls-7" points="1604.24 802.33 1603.47 808.98 1573.33 808.98 1573.33 798.01 1604.24 802.33"/><path class="cls-11" d="M98.75,1030.35s30.95,68.73-19.57,68.78-17.85-71.08-17.85-71.08-11.7-5.13,1.82-43.5,19.59-38.38,25.22-38.39c7.12,0,13.77,16.59,8.94,42.09C97.31,988.25,115.12,1020,98.75,1030.35Z"/><path class="cls-11" d="M1583.46,1029.89s31,68.73-19.57,68.79-17.85-71.09-17.85-71.09-11.7-5.13,1.82-43.5,19.59-38.38,25.22-38.39c7.12,0,13.77,16.6,8.94,42.09C1582,987.79,1599.83,1019.58,1583.46,1029.89Z"/><path class="cls-11" d="M1389.51,1029.89s31,68.73-19.57,68.79-17.85-71.09-17.85-71.09-11.7-5.13,1.82-43.5,19.59-38.38,25.22-38.39c7.12,0,13.77,16.6,8.93,42.09C1388.06,987.79,1405.87,1019.58,1389.51,1029.89Z"/><path class="cls-11" d="M610.17,1044.49s-27,60.26,17.28,60.21,15.5-62.3,15.5-62.3,10.24-4.52-1.68-38.1S624,970.72,619.1,970.73c-6.23,0-12,14.56-7.74,36.88C611.36,1007.61,595.82,1035.49,610.17,1044.49Z"/><path class="cls-11" d="M1009.23,1044.49s-27,60.26,17.27,60.21,15.5-62.3,15.5-62.3,10.24-4.52-1.68-38.1-17.22-33.58-22.16-33.57c-6.23,0-12,14.56-7.74,36.88C1010.42,1007.61,994.88,1035.49,1009.23,1044.49Z"/><g class="cls-16"><rect class="cls-11" x="1537.39" y="-189.14" width="5.87" height="207.24"/><rect class="cls-11" x="1661.48" y="-189.14" width="5.87" height="207.24"/><rect class="cls-11" x="1602.56" y="-189.14" width="5.87" height="207.24"/><g class="cls-17"><path class="cls-3" d="M186.58-475.74V18.09H679.7ZM277-252l179.8,179.8H277.26Z"/><path class="cls-18" d="M186.58-475.73V18.1H679.69L204-458.32l-2.19-2.19ZM277-252,456.8-72.16H277.26Z"/></g><polygon class="cls-19" points="167.31 18.1 359.14 17.52 550.97 17.31 934.63 16.92 1318.28 17.31 1510.11 17.52 1701.94 18.1 1510.11 18.68 1318.28 18.89 934.63 19.28 550.97 18.88 359.14 18.67 167.31 18.1"/><rect class="cls-5" x="209.69" y="-34.71" width="1449.87" height="52.81"/><path class="cls-20" d="M1529.38-187.17l49.38,81.64c8,16.51,14.76,31.12,17.54,39a.21.21,0,0,1,0,.13c1.05,3,1.53,5,1.26,5.69a.53.53,0,0,1,0,.15c-3.29,5.72-133.35,73.7-138.68,74.55s-8.16-14.3-5.22-21,41.12-55,41.12-55l-48.51-81.93Z"/><path class="cls-20" d="M1453.66-7c-2.93,6.65-.13,21.84,5.21,21s135.39-68.82,138.69-74.54c0-.05,0-.1,0-.17.28-.72-.19-2.7-1.25-5.67,0-.07,0-.09,0-.14-2.78-7.88-9.52-22.51-17.54-39l-17.31-28.61c-14.22-23.53-32.07-53-32.07-53l-83.11,43.31,32.61,55.09,15.89,26.85S1456.65-13.64,1453.66-7Z"/><path class="cls-12" d="M1458.87,14c5.35-.85,135.39-68.82,138.69-74.54,0-.05,0-.1,0-.17.28-.72-.19-2.7-1.25-5.67,0-.07,0-.09,0-.14-2.78-7.88-9.52-22.51-17.54-39l-17.31-28.61-83.1,44.47,16.42,27.75s-38.12,48.29-41.11,55S1453.53,14.88,1458.87,14Z"/><path class="cls-7" d="M1457.69,15c3.49-.58,59.22-29.5,99.29-51.54,9.27-5.1,17.7-9.85,24.46-13.77,9.3-5.43,15.42-9.29,16.12-10.5,1.52-2.68-12-31.19-26.91-60.93L1485.21-77l8.5,15.18s-38.36,48.92-41.35,55.67S1452.31,15.84,1457.69,15Z"/><path class="cls-12" d="M1456.81,8.75c21.7-12.12,110.35-59,132.72-69.33.18-.08.25,0,.07.14C1568.36-47.95,1479.33-1.81,1457,9.11,1456.53,9.34,1456.35,9,1456.81,8.75Z"/><path class="cls-9" d="M1457.7,15c1.75-.31,16.39-7.61,35.59-17.56l-19.64-33.29c-9.8,12.85-19.81,26.37-21.29,29.68C1449.41.56,1452.31,15.84,1457.7,15Z"/><path class="cls-20" d="M1469.51-131.6s2,95.91,2,96c-.29,18.35-.88,34.44-2,42.73a.3.3,0,0,1,0,.13c-.41,3.13-.88,5.13-1.45,5.65a.38.38,0,0,1-.11.11c-5.52,3.62-152.26,5.51-157.4,3.86s-.82-16.44,4.81-21.06,61.52-30.47,61.52-30.47l-1.14-95.85Z"/><path class="cls-12" d="M1310.6,16.85c5.15,1.67,151.89-.23,157.4-3.84,0,0,.07-.07.12-.11.57-.54,1-2.53,1.46-5.66V7.1c1.08-8.29,1.68-24.37,2-42.73,0,0-.29-13.22-.64-29.85l-94.34-.12.35,30.93S1321.1-8.82,1315.42-4.2,1305.45,15.22,1310.6,16.85Z"/><path class="cls-7" d="M1309.49,17.44c3.37,1.08,66.16.78,111.87-.55,10.57-.32,20.25-.69,28.05-1.1,10.75-.58,18-1.23,19.13-2,2.58-1.69,3.55-33.23,3.86-66.5l-96.44.81.65,17.38s-56.46,26-62.2,30.68S1304.31,15.75,1309.49,17.44Z"/><path class="cls-12" d="M1311.55,11.49c24.84-.89,125.12-2.14,149.74-1.13.2,0,.2.14,0,.15-24.6,1.43-124.88,1.86-149.73,1.39C1311,11.89,1311,11.51,1311.55,11.49Z"/><path class="cls-21" d="M768.3,21C763,22.88,607,26,601.12,22.37c-.69-.37-3.23-52-3.23-52,.19-.73-2.42-5.71-6.4-12.62-11.12-19.41-32.87-54.18-32.87-54.18l92.6-28,38,76.21L699-28.78s21.27,8.32,39.83,16.61c0,0,.05,0,.05.05C750.27-7,760.21-2.38,762.53-.64,768.5,4,773.56,19.11,768.3,21Z"/><path class="cls-6" d="M768.3,21C763,22.88,607,26,601.12,22.37c-.69-.37-3.23-52-3.23-52,.19-.73-2.42-5.71-6.4-12.62l97.78-6L699-28.78s21.27,8.32,39.83,16.61c0,0,.05,0,.05.05C750.27-7,760.21-2.38,762.53-.64,768.5,4,773.56,19.11,768.3,21Z"/><path class="cls-7" d="M769,21.55c-5.43,1.92-161.66,4.6-167.69.94-2.29-1.38-5-25.43-3.36-52.11l100.73-1.6S757-5.44,763.14-.71,774.38,19.63,769,21.55Z"/><path class="cls-9" d="M601.27,22.48c2.2,1.33,24.4,1.83,52,1.83l-52.89-54,0,0-2.45.06C596.21-2.94,599,21.11,601.27,22.48Z"/><path class="cls-12" d="M766.6,15.34c-26.2-.2-131.9,1.5-157.81,3.3-.21,0-.21.15,0,.16,26,.76,131.65-1.79,157.82-3C767.16,15.74,767.16,15.34,766.6,15.34Z"/><path class="cls-12" d="M753-6.16A21,21,0,0,0,737.43.5c-3.19,3.61-5.89,8.66-5.61,14.09,0,.15.29.15.31,0C733.46,4.31,742.62-4.86,753-5.83A.17.17,0,0,0,753-6.16Z"/><path class="cls-12" d="M615-6.36c-11.76.24-11.41,18.52.37,18.28S626.81-6.59,615-6.36Z"/><path class="cls-21" d="M647.07,49.07c-2-5.23-101.49-125.47-108-127.58-.75-.28-41.5,31.48-41.5,31.48-1.64,2.39-82.32-11-82.32-11l3.39,96.48L564.13,29S584.3,39.7,602.7,48.34c0,0,0,0,.07,0,11.32,5.35,21.34,9.84,24.17,10.45C634.3,60.35,649.09,54.28,647.07,49.07Z"/><path class="cls-6" d="M626.94,58.8c-2.84-.6-12.85-5.09-24.17-10.46,0,0,0,0-.07,0C584.31,39.71,564.13,29,564.13,29l-32.38,2.1-54.3-79.67C488.67-47.1,497-46.27,497.55-47c0,0,40.74-31.76,41.5-31.47,6.53,2.11,106,122.34,108,127.58S634.31,60.36,626.94,58.8Z"/><path class="cls-7" d="M647.93,49.2c-2.08-5.36-102-125.51-108.71-127.68-2.54-.84-22.56,12.77-41.67,31.45l64.51,77.38s57.6,27.38,65.21,29S650,54.56,647.93,49.2Z"/><path class="cls-12" d="M641.7,51.47C624.45,31.75,556.76-49.45,541.22-70.26c-.13-.17,0-.26.12-.11C558.86-51.19,625.89,30.56,642,51.2,642.37,51.64,642.06,51.89,641.7,51.47Z"/><path class="cls-12" d="M616.52,55.19a21.07,21.07,0,0,1-5.1-16.14c.65-4.78,2.72-10.11,7-13.44.12-.1.31.12.2.24-6.92,7.7-7.88,20.63-1.85,29.13A.17.17,0,0,1,616.52,55.19Z"/><path class="cls-12" d="M569.33,35C562.51,27,557.59,15.3,560,4.81c.1-.4.67-.26.75.08a145,145,0,0,0,9.68,29.41A.66.66,0,0,1,569.33,35Z"/><path class="cls-12" d="M576.93,39.19c-6.82-8-11.74-19.68-9.32-30.17.1-.41.68-.27.75.07A144.77,144.77,0,0,0,578,38.5.66.66,0,0,1,576.93,39.19Z"/><path class="cls-12" d="M584.53,43.39c-6.81-8-11.74-19.68-9.31-30.17.09-.4.67-.26.74.08a145.59,145.59,0,0,0,9.68,29.41A.66.66,0,0,1,584.53,43.39Z"/><path class="cls-12" d="M592.13,47.6c-6.81-8-11.74-19.68-9.31-30.17.09-.41.67-.27.74.07a145.39,145.39,0,0,0,9.68,29.41A.66.66,0,0,1,592.13,47.6Z"/><path class="cls-12" d="M566.35,51.11c2-9,0-18.58-.79-27.62a1.28,1.28,0,0,0-1.86-.91.28.28,0,0,0-.44-.06A55,55,0,0,0,548.74,47c-1.42,5.44-.45,13.33,6.33,14.59C561.48,62.78,565.18,56.38,566.35,51.11ZM560,57c-9.44,6.49-9.28-7-8.08-11a60.14,60.14,0,0,1,3-7.46,164.48,164.48,0,0,1,8.17-14.48c.12,4.47.63,8.88.91,13.34C564.31,42.76,565.18,53.46,560,57Z"/><path class="cls-12" d="M534.31-1.83c-4.73,5-.88,12,3.47,15.53A55,55,0,0,0,563.91,25c.22,0,.32-.13.32-.31a1.28,1.28,0,0,0,1-1.82C560.53,15,556.51,6.13,549.59,0,545.56-3.56,538.8-6.56,534.31-1.83Zm21.4,14.29c2.39,3.78,4.58,7.64,7.1,11.33a164.59,164.59,0,0,1-15.11-6.91,59,59,0,0,1-6.81-4.28C537.58,10.1,529.51-.74,541-1,547.27-1.2,552.86,8,555.71,12.46Z"/><path class="cls-11" d="M440.57-88.07S337.34-99.18,296.5-88.18C239.55-72.84,233-4.42,276.88,21.63c55.57,33,248.37,14.6,248.37,14.6L471.44-54.48s-80.77-15.05-153.17-9.21L464.35-45.62Z"/><path class="cls-12" d="M497.6,30.58c-3.18-5.22-5.94-10.81-8.87-16.21L479.88-1.86c-5.9-10.78-26.95-47-29-49.5-.13-.16-.37,0-.3.23,1,2.83,14.24,26.84,17.27,32.19,6.06,10.69,12.4,21.16,18.65,31.72,1.79,3,3.63,6,5.44,9s3.72,5.93,5.4,9C497.46,31,497.72,30.76,497.6,30.58Z"/><rect class="cls-7" x="991.54" y="-191.32" width="81.83" height="339.24" transform="translate(1050.89 1010.82) rotate(-89.82)"/><g class="cls-15"><path d="M874.43,1.7c100-.36,212.07,0,312,1.13-100,.37-212.07-.05-312-1.13Z"/></g><path class="cls-22" d="M1235,20.94s50.74,5.64,50.89-40.76-50.64-41.07-50.64-41.07Z"/><rect class="cls-11" x="1175.27" y="-32.6" width="95.55" height="23.19" transform="translate(1240.21 1202.11) rotate(-89.82)"/><rect class="cls-11" x="1149.64" y="-32.68" width="95.55" height="23.19" transform="translate(1214.73 1176.39) rotate(-89.82)"/><path class="cls-7" d="M863-63.28,804-32.67l-19.48,10L804-12.33l58.78,31,11.91-8.25s-11.68-8-11.86-8.14L874.69-6s-11.68-8-11.86-8.15l11.91-8.06s-11.68-8.14-11.86-8.32l11.91-8.07s-11.68-8.14-11.86-8.32L874.84-55S863.16-63.1,863-63.28Z"/><path class="cls-23" d="M863-63.28,804-32.67l-19.48,10L804-12.33l58.78,31,11.91-8.25s-11.68-8-11.86-8.14L874.69-6s-11.68-8-11.86-8.15l11.91-8.06s-11.68-8.14-11.86-8.32l11.91-8.07s-11.68-8.14-11.86-8.32L874.84-55S863.16-63.1,863-63.28Z"/></g></svg>