<svg id="Слой_1" data-name="Слой 1" xmlns="http://www.w3.org/2000/svg" viewBox="0 0 1800 1000"><defs><style>.cls-1{fill:#ececec;}.cls-2{fill:#4a148c;}.cls-3,.cls-9{fill:#ffc800;}.cls-4{fill:#1a2e35;}.cls-5{fill:#306;}.cls-6{opacity:0.1;}.cls-11,.cls-7{fill:#fff;}.cls-8{opacity:0.3;}.cls-11,.cls-12,.cls-9{opacity:0.2;}.cls-10{opacity:0.49;}.cls-13{opacity:0.4;}</style></defs><polygon class="cls-1" points="798.46 972.13 278.83 972.13 346.2 806.52 381.79 787 437.82 657.5 483.11 630.88 526.17 552.98 568.7 552.98 663.18 712.49 711.25 737.33 798.46 972.13"/><polygon class="cls-1" points="278.83 972.13 502.96 972.13 502.96 842.89 560.48 752.41 533.07 657.5 568.7 552.98 526.17 552.98 483.11 630.88 437.82 657.5 381.79 787 346.2 806.52 278.83 972.13"/><polygon class="cls-2" points="568.7 972.13 590.41 904.09 625.54 869.5 641.21 828.7 652.15 837.57 652.15 876.6 625.54 907.64 625.54 972.39 568.7 972.13"/><polygon class="cls-2" points="610.42 762.55 616.26 735.26 631.92 719.59 639.25 728.9 629.47 741.07 633.87 767.05 610.42 762.55"/><polygon class="cls-1" points="761.07 972.01 1521.17 972.01 1377.74 672.48 1308.76 642.9 1235.53 499.81 1187.24 447.87 1144.67 353.13 1094.83 361.21 1009.63 559.71 962.05 595.21 884.77 799.67 808.65 873.62 761.07 972.01"/><polygon class="cls-1" points="1144.67 353.13 1150.52 502.4 1094.4 580.79 1120.72 640.78 1068.62 773.05 1114.03 882.49 1087.13 972.01 761.07 972.01 808.65 873.62 884.77 799.67 962.05 595.21 1009.63 559.71 1094.83 361.21 1144.67 353.13"/><polygon class="cls-2" points="1130.66 734.6 1169.79 666.57 1166.72 637.73 1181.3 617.02 1198.95 675.81 1146.01 734.6 1130.66 734.6"/><polygon class="cls-2" points="1099.96 234.52 1102.73 240.14 1108.94 241.05 1104.45 245.43 1105.51 251.61 1099.96 248.69 1094.4 251.61 1095.46 245.43 1090.97 241.05 1097.18 240.14 1099.96 234.52"/><polygon class="cls-2" points="578.08 515.9 580.86 521.52 587.07 522.42 582.58 526.8 583.64 532.99 578.08 530.07 572.53 532.99 573.59 526.8 569.1 522.42 575.3 521.52 578.08 515.9"/><polygon class="cls-2" points="1303.16 28.27 1305.93 33.89 1312.14 34.8 1307.65 39.17 1308.71 45.36 1303.16 42.44 1297.6 45.36 1298.66 39.17 1294.17 34.8 1300.38 33.89 1303.16 28.27"/><polygon class="cls-2" points="679.58 36.81 682.35 42.44 688.56 43.34 684.07 47.72 685.13 53.91 679.58 50.98 674.02 53.91 675.08 47.72 670.59 43.34 676.8 42.44 679.58 36.81"/><polygon class="cls-2" points="1530.27 507.8 1533.05 513.43 1539.26 514.33 1534.76 518.71 1535.82 524.9 1530.27 521.98 1524.72 524.9 1525.78 518.71 1521.28 514.33 1527.49 513.43 1530.27 507.8"/><polygon class="cls-2" points="858.44 224.84 861.22 230.47 867.43 231.37 862.93 235.75 864 241.94 858.44 239.01 852.89 241.94 853.95 235.75 849.46 231.37 855.66 230.47 858.44 224.84"/><polygon class="cls-2" points="305.28 108.97 308.05 114.6 314.26 115.5 309.77 119.88 310.83 126.06 305.28 123.14 299.72 126.06 300.78 119.88 296.29 115.5 302.5 114.6 305.28 108.97"/><polygon class="cls-2" points="425.09 444.91 427.87 450.54 434.08 451.44 429.58 455.82 430.65 462 425.09 459.09 419.54 462 420.6 455.82 416.11 451.44 422.31 450.54 425.09 444.91"/><polygon class="cls-2" points="305.28 540.68 306.99 544.16 310.83 544.72 308.05 547.43 308.71 551.25 305.28 549.44 301.85 551.25 302.5 547.43 299.72 544.72 303.56 544.16 305.28 540.68"/><polygon class="cls-2" points="695.69 187.72 697.41 191.19 701.25 191.75 698.47 194.46 699.13 198.28 695.69 196.48 692.26 198.28 692.92 194.46 690.14 191.75 693.98 191.19 695.69 187.72"/><polygon class="cls-2" points="984.14 496.79 985.86 500.26 989.7 500.82 986.92 503.53 987.58 507.35 984.14 505.55 980.71 507.35 981.37 503.53 978.59 500.82 982.43 500.26 984.14 496.79"/><polygon class="cls-2" points="335.43 139.12 337.14 142.59 340.98 143.15 338.2 145.86 338.86 149.68 335.43 147.88 332 149.68 332.65 145.86 329.87 143.15 333.71 142.59 335.43 139.12"/><polygon class="cls-2" points="1312.14 448.18 1313.86 451.65 1317.7 452.21 1314.92 454.92 1315.58 458.74 1312.14 456.94 1308.71 458.74 1309.37 454.92 1306.59 452.21 1310.43 451.65 1312.14 448.18"/><polygon class="cls-2" points="448.28 611.74 450 615.22 453.83 615.77 451.06 618.48 451.71 622.3 448.28 620.5 444.85 622.3 445.5 618.48 442.73 615.77 446.56 615.22 448.28 611.74"/><polygon class="cls-2" points="381.64 426.16 383.36 429.64 387.19 430.19 384.42 432.9 385.07 436.72 381.64 434.92 378.21 436.72 378.86 432.9 376.09 430.19 379.93 429.64 381.64 426.16"/><polygon class="cls-2" points="944.99 160.78 946.71 164.26 950.54 164.81 947.77 167.52 948.42 171.34 944.99 169.54 941.56 171.34 942.21 167.52 939.44 164.81 943.27 164.26 944.99 160.78"/><polygon class="cls-2" points="1325.74 611.74 1327.45 615.22 1331.29 615.77 1328.51 618.48 1329.17 622.3 1325.74 620.5 1322.31 622.3 1322.96 618.48 1320.18 615.77 1324.02 615.22 1325.74 611.74"/><polygon class="cls-2" points="1498.16 279.88 1499.87 283.36 1503.71 283.91 1500.93 286.62 1501.59 290.44 1498.16 288.64 1494.72 290.44 1495.38 286.62 1492.6 283.91 1496.44 283.36 1498.16 279.88"/><polygon class="cls-2" points="1346.6 274.6 1348.32 278.07 1352.15 278.63 1349.38 281.34 1350.03 285.16 1346.6 283.36 1343.17 285.16 1343.82 281.34 1341.05 278.63 1344.88 278.07 1346.6 274.6"/><path class="cls-3" d="M1270.34,176.23A76.57,76.57,0,1,1,1186.93,63.5a71.62,71.62,0,1,0,83.41,112.73Z"/><polygon class="cls-2" points="164.96 746.52 167.73 752.14 173.94 753.05 169.45 757.43 170.51 763.61 164.96 760.69 159.4 763.61 160.46 757.43 155.97 753.05 162.18 752.14 164.96 746.52"/><polygon class="cls-2" points="1700.58 68.81 1703.35 74.44 1709.56 75.34 1705.07 79.72 1706.13 85.91 1700.58 82.98 1695.02 85.91 1696.08 79.72 1691.59 75.34 1697.8 74.44 1700.58 68.81"/><polygon class="cls-2" points="177.27 403.8 180.05 409.43 186.26 410.33 181.76 414.71 182.82 420.9 177.27 417.98 171.72 420.9 172.78 414.71 168.28 410.33 174.49 409.43 177.27 403.8"/><polygon class="cls-2" points="1687.26 381.65 1682.67 385.93 1683.61 392.14 1678.12 389.11 1672.5 391.91 1673.69 385.75 1669.29 381.28 1675.52 380.5 1678.41 374.94 1681.07 380.62 1687.26 381.65"/><polygon class="cls-2" points="1669.09 723.91 1671.87 729.54 1678.08 730.44 1673.59 734.82 1674.65 741 1669.09 738.09 1663.54 741 1664.6 734.82 1660.11 730.44 1666.32 729.54 1669.09 723.91"/><polygon class="cls-2" points="1549.28 819.68 1550.99 823.16 1554.83 823.72 1552.05 826.43 1552.71 830.25 1549.28 828.44 1545.85 830.25 1546.5 826.43 1543.72 823.72 1547.56 823.16 1549.28 819.68"/><polygon class="cls-2" points="1716.69 219.72 1718.41 223.19 1722.25 223.75 1719.47 226.46 1720.13 230.28 1716.69 228.48 1713.26 230.28 1713.92 226.46 1711.14 223.75 1714.98 223.19 1716.69 219.72"/><polygon class="cls-2" points="1667.12 419.23 1664.29 421.88 1664.87 425.71 1661.47 423.84 1658 425.57 1658.74 421.76 1656.02 419 1659.86 418.52 1661.65 415.08 1663.3 418.6 1667.12 419.23"/><polygon class="cls-2" points="19.14 353.18 20.86 356.65 24.7 357.21 21.92 359.92 22.58 363.74 19.14 361.94 15.71 363.74 16.37 359.92 13.59 357.21 17.43 356.65 19.14 353.18"/><polygon class="cls-2" points="1692.28 890.74 1693.99 894.22 1697.83 894.77 1695.06 897.48 1695.71 901.3 1692.28 899.5 1688.85 901.3 1689.5 897.48 1686.72 894.77 1690.56 894.22 1692.28 890.74"/><polygon class="cls-2" points="1625.64 705.16 1627.36 708.64 1631.19 709.2 1628.42 711.9 1629.07 715.72 1625.64 713.92 1622.21 715.72 1622.86 711.9 1620.09 709.2 1623.92 708.64 1625.64 705.16"/><polygon class="cls-2" points="32.74 516.74 34.45 520.22 38.29 520.77 35.51 523.48 36.17 527.3 32.74 525.5 29.3 527.3 29.96 523.48 27.18 520.77 31.02 520.22 32.74 516.74"/><polygon class="cls-2" points="205.16 184.88 206.87 188.36 210.71 188.91 207.93 191.62 208.59 195.44 205.16 193.64 201.72 195.44 202.38 191.62 199.6 188.91 203.44 188.36 205.16 184.88"/><polygon class="cls-2" points="53.6 179.6 55.32 183.07 59.15 183.63 56.38 186.34 57.03 190.16 53.6 188.36 50.17 190.16 50.82 186.34 48.05 183.63 51.88 183.07 53.6 179.6"/><path class="cls-4" d="M278.28,972.11c389.59-.58,853.87-.58,1243.44,0-389.59.58-853.87.57-1243.44,0Z"/><path class="cls-2" d="M1537.77,998.15H262.23a13,13,0,0,1-13-13h0a13,13,0,0,1,13-13H1537.77a13,13,0,0,1,13,13h0A13,13,0,0,1,1537.77,998.15Z"/><path class="cls-2" d="M852,1024.19H515.06a13,13,0,0,0,0-26.05H852a13,13,0,1,0,0,26.05Z"/><path class="cls-2" d="M1201.87,1024.19h-221a13,13,0,1,0,0-26.05h221a13,13,0,1,0,0,26.05Z"/><polygon class="cls-2" points="365.45 971.88 1176.6 971.88 1028.52 606.85 957.3 570.8 881.7 396.42 831.84 333.12 787.89 217.66 736.44 227.5 648.47 469.42 599.35 512.67 493.17 761.85 414.57 851.97 365.45 971.88"/><polygon class="cls-2" points="787.89 217.66 793.92 399.57 736 495.1 763.17 568.22 709.37 729.41 756.26 862.79 728.49 971.88 365.45 971.88 414.57 851.97 493.17 761.85 599.35 512.67 648.47 469.42 736.44 227.5 787.89 217.66"/><polygon class="cls-2" points="773.42 682.55 813.83 599.64 810.66 564.49 825.71 539.26 843.93 610.9 789.27 682.55 773.42 682.55"/><polygon class="cls-2" points="1434.55 971.94 833.95 971.94 913.27 777.07 969.33 732.08 1027.17 564.28 1073.93 529.8 1118.39 428.86 1162.29 428.86 1259.84 635.54 1309.47 667.72 1434.55 971.94"/><polygon class="cls-5" points="833.95 971.94 1094.43 971.94 1094.43 804.48 1153.81 687.25 1125.52 564.28 1162.29 428.86 1118.39 428.86 1073.93 529.8 1027.17 564.28 969.33 732.08 913.27 777.07 833.95 971.94"/><polygon class="cls-5" points="1162.29 971.94 1184.71 883.78 1220.98 838.96 1237.16 786.1 1248.45 797.59 1248.45 848.16 1220.98 888.38 1220.98 972.27 1162.29 971.94"/><polygon class="cls-5" points="1205.37 700.4 1211.4 665.04 1227.56 644.73 1235.14 656.8 1225.04 672.57 1229.59 706.22 1205.37 700.4"/><path class="cls-5" d="M401.94,971.21c-3.33,3.34-42.18,4.82-56.3,4.82s-53-1.48-56.31-4.82S333,709.67,345.64,709.67,405.28,967.88,401.94,971.21Z"/><path class="cls-2" d="M402.73,905.42c-9.6,3.66-45.16,18.14-52.84,22.36,0-1.62,0-3.24,0-4.86q12.87-7.56,25.79-15c9.23-5.37,19.14-10.17,27.75-16.5.42-.31.19-1.17-.39-.93-9.49,3.95-18.3,9.81-27.15,15s-17.39,10.41-26,15.73q-.06-18.55-.16-37.12a295.35,295.35,0,0,0,40.52-20.59c.44-.27.15-1.08-.37-.87a296.27,296.27,0,0,0-40.16,19.8c-.05-6.44-.07-12.87-.14-19.3-.35-33.13-.42-66.3-1.26-99.44,8.43-4.25,17.11-8,25.54-12.28.55-.28.16-1.24-.43-1-8.55,3.33-16.79,7.29-25.18,11-.46-17.1-1.11-34.18-2.15-51.25a.44.44,0,0,0-.88,0c-1.18,31.73-1.09,63.5-.69,95.27-8.73-7-18-13.14-26.93-19.9-.34-.26-.68.32-.34.58,9.29,7.07,18,14.91,27.31,22l.06,5.38c-9.47-4.33-19.07-8.36-28.64-12.46-.75-.32-1.42.75-.66,1.12,9.75,4.68,19.47,9.44,29.34,13.85.22,15.74.49,31.47.7,47.2.35,27.47,1,54.93,1.54,82.4q-26.81-13.56-54-26.38c-.69-.32-1.29.65-.6,1a566.29,566.29,0,0,0,54.67,27.46c.48,22.82,1,2,1.25,24.87a1.08,1.08,0,0,0,2.15,0c-.32-29.11-.36-14.62-.44-43.73,9.42-2.33,45-17.58,53.49-21.76C404.26,906.57,403.65,905.06,402.73,905.42Z"/><path class="cls-5" d="M692.63,971c-2.87,2.86-36.2,4.14-48.33,4.14S598.84,973.86,596,971,633.5,746.57,644.3,746.57,695.49,968.14,692.63,971Z"/><path class="cls-2" d="M693.3,914.54c-8.24,3.14-38.75,15.57-45.34,19.19,0-1.39,0-2.78,0-4.17,7.36-4.33,14.75-8.61,22.13-12.91,7.92-4.61,16.43-8.72,23.81-14.15.36-.27.16-1-.33-.8-8.15,3.39-15.71,8.42-23.3,12.87s-14.92,8.93-22.31,13.5q-.06-15.93-.14-31.86a252.29,252.29,0,0,0,34.77-17.67c.38-.23.13-.93-.31-.74a255.12,255.12,0,0,0-34.47,17c0-5.52-.06-11-.12-16.57-.3-28.43-.36-56.89-1.08-85.33,7.23-3.65,14.68-6.87,21.91-10.53.48-.24.14-1.07-.36-.88-7.34,2.87-14.41,6.27-21.61,9.43-.39-14.67-.95-29.33-1.84-44a.38.38,0,0,0-.76,0c-1,27.23-.93,54.5-.59,81.76-7.49-6-15.48-11.28-23.11-17.08-.3-.23-.58.28-.29.5,8,6.06,15.43,12.79,23.43,18.84l.06,4.62c-8.13-3.72-16.37-7.18-24.59-10.69-.64-.28-1.21.64-.56,1,8.37,4,16.71,8.1,25.18,11.89.19,13.5.42,27,.6,40.49.3,23.58.82,47.15,1.32,70.72q-23-11.64-46.35-22.64c-.6-.28-1.11.56-.52.89a486,486,0,0,0,46.91,23.57c.42,19.58.82,4.79,1.08,24.38a.92.92,0,0,0,1.84,0c-.27-25-.31-15.59-.38-40.57,8.09-2,38.65-15.08,45.91-18.67C694.62,915.53,694.09,914.24,693.3,914.54Z"/><path class="cls-5" d="M377.74,972.17c2.41,2.41,30.48,3.48,40.69,3.48s38.28-1.07,40.69-3.48-31.59-189-40.69-189S375.33,969.76,377.74,972.17Z"/><path class="cls-2" d="M377.17,924.62c6.94,2.65,32.63,13.11,38.18,16.16,0-1.17,0-2.34,0-3.51q-9.3-5.46-18.64-10.87c-6.67-3.88-13.83-7.34-20.05-11.92-.31-.22-.14-.84.28-.67,6.86,2.85,13.23,7.09,19.62,10.84s12.56,7.52,18.79,11.37q0-13.42.11-26.83a214.12,214.12,0,0,1-29.28-14.88c-.32-.19-.1-.78.27-.63a215.23,215.23,0,0,1,29,14.31c0-4.65.05-9.3.1-14,.26-23.94.31-47.91.92-71.86-6.1-3.07-12.37-5.78-18.46-8.87-.4-.2-.12-.9.31-.74,6.18,2.41,12.13,5.28,18.19,7.94.33-12.35.8-24.7,1.56-37a.32.32,0,0,1,.63,0c.86,22.94.79,45.9.5,68.85,6.31-5,13-9.49,19.46-14.38.25-.19.49.23.25.42-6.72,5.11-13,10.77-19.73,15.87,0,1.29,0,2.59-.05,3.89,6.84-3.13,13.78-6,20.7-9,.54-.24,1,.54.47.8-7,3.38-14.06,6.83-21.2,10-.16,11.37-.35,22.74-.5,34.1-.26,19.85-.7,39.7-1.12,59.55q19.38-9.8,39-19.06c.5-.24.93.47.44.75a410.7,410.7,0,0,1-39.51,19.84c-.35,16.5-.7,3.66-.91,20.16a.78.78,0,0,1-1.55,0c.23-21,.26-12.75.32-33.79-6.81-1.68-32.55-12.7-38.66-15.72C376.06,925.46,376.5,924.37,377.17,924.62Z"/><path class="cls-5" d="M1408.11,970.62c-3.08,3.08-38.93,4.45-52,4.45s-48.88-1.37-52-4.45,40.34-241.35,52-241.35S1411.18,967.55,1408.11,970.62Z"/><path class="cls-2" d="M1408.83,909.9c-8.86,3.39-41.67,16.74-48.76,20.64,0-1.49,0-3,0-4.48,7.92-4.66,15.86-9.26,23.8-13.88,8.52-5,17.67-9.38,25.61-15.22.39-.29.17-1.09-.36-.86-8.76,3.64-16.89,9-25.06,13.84s-16,9.6-24,14.52c0-11.42-.07-22.84-.15-34.26a272.54,272.54,0,0,0,37.4-19c.4-.24.13-1-.34-.8a274.7,274.7,0,0,0-37.07,18.27c0-5.93-.06-11.87-.13-17.81-.32-30.57-.38-61.18-1.16-91.76,7.78-3.93,15.79-7.39,23.57-11.33.51-.26.15-1.15-.4-.94-7.89,3.08-15.49,6.73-23.23,10.14-.42-15.78-1-31.55-2-47.3a.41.41,0,0,0-.81,0c-1.09,29.28-1,58.6-.63,87.92-8.06-6.44-16.66-12.12-24.86-18.37-.32-.24-.62.3-.31.54,8.57,6.52,16.6,13.76,25.2,20.26l.06,5c-8.74-4-17.61-7.71-26.44-11.5-.69-.29-1.31.7-.6,1,9,4.32,18,8.72,27.07,12.79.21,14.52.46,29,.65,43.55.33,25.35.88,50.7,1.42,76q-24.73-12.52-49.85-24.35c-.64-.3-1.19.6-.56,1a521.53,521.53,0,0,0,50.46,25.34c.44,21.06.88,5.15,1.15,26.22a1,1,0,0,0,2,0c-.3-26.86-.34-16.76-.41-43.62,8.69-2.15,41.56-16.23,49.36-20.08C1410.25,911,1409.68,909.58,1408.83,909.9Z"/><path class="cls-5" d="M1259.82,970.62c-3.08,3.08-38.93,4.45-52,4.45s-48.88-1.37-52-4.45,40.34-241.35,52-241.35S1262.89,967.55,1259.82,970.62Z"/><path class="cls-2" d="M1260.54,909.9c-8.86,3.39-41.67,16.74-48.76,20.64,0-1.49,0-3,0-4.48,7.92-4.66,15.86-9.26,23.8-13.88,8.52-5,17.67-9.38,25.61-15.22.39-.29.17-1.09-.36-.86-8.76,3.64-16.89,9-25.06,13.84s-16,9.6-24,14.52c0-11.42-.07-22.84-.15-34.26a272,272,0,0,0,37.4-19c.41-.24.13-1-.34-.8a274.7,274.7,0,0,0-37.07,18.27c0-5.93-.06-11.87-.13-17.81-.32-30.57-.38-61.18-1.16-91.76,7.78-3.93,15.79-7.39,23.57-11.33.51-.26.15-1.15-.4-.94-7.89,3.08-15.49,6.73-23.23,10.14-.42-15.78-1-31.55-2-47.3a.41.41,0,0,0-.81,0c-1.09,29.28-1,58.6-.63,87.92-8.06-6.44-16.65-12.12-24.86-18.37-.31-.24-.62.3-.31.54,8.58,6.52,16.6,13.76,25.2,20.26l.06,5c-8.74-4-17.6-7.71-26.44-11.5-.69-.29-1.3.7-.6,1,9,4.32,18,8.72,27.07,12.79.21,14.52.46,29,.65,43.55.33,25.35.88,50.7,1.42,76q-24.73-12.52-49.85-24.35c-.63-.3-1.19.6-.56,1a521.53,521.53,0,0,0,50.46,25.34c.44,21.06.88,5.15,1.15,26.22a1,1,0,0,0,2,0c-.3-26.86-.34-16.76-.41-43.62,8.7-2.15,41.56-16.23,49.37-20.08C1262,911,1261.39,909.58,1260.54,909.9Z"/><path class="cls-5" d="M1240.71,972.92c2.15,2.15,27.2,3.11,36.31,3.11s34.17-1,36.32-3.11S1285.15,804.24,1277,804.24,1238.56,970.77,1240.71,972.92Z"/><path class="cls-2" d="M1240.2,930.49c6.19,2.36,29.13,11.7,34.08,14.42,0-1,0-2.09,0-3.13-5.53-3.26-11.08-6.48-16.63-9.71-6-3.46-12.35-6.55-17.9-10.63-.27-.2-.12-.76.26-.6,6.12,2.54,11.8,6.32,17.51,9.67s11.21,6.71,16.77,10.15q0-12,.1-23.95a189.82,189.82,0,0,1-26.14-13.28c-.28-.17-.09-.7.24-.56a192.77,192.77,0,0,1,25.91,12.77q0-6.23.08-12.45c.23-21.37.27-42.76.82-64.13-5.44-2.74-11-5.16-16.47-7.92-.36-.18-.11-.8.27-.65,5.52,2.15,10.83,4.7,16.24,7.08.29-11,.72-22.05,1.39-33.06a.29.29,0,0,1,.57,0c.76,20.47.7,41,.44,61.45,5.63-4.5,11.64-8.47,17.37-12.83.22-.17.44.2.22.37-6,4.56-11.6,9.61-17.61,14.16,0,1.16,0,2.31,0,3.47,6.11-2.79,12.31-5.39,18.48-8,.48-.21.91.48.42.72-6.29,3-12.55,6.09-18.92,8.93-.14,10.15-.32,20.3-.45,30.44-.23,17.72-.62,35.43-1,53.15q17.3-8.75,34.84-17c.45-.21.84.41.4.67a367.66,367.66,0,0,1-35.27,17.71c-.31,14.72-.61,2.93-.8,17.65a.7.7,0,0,1-1.39,0c.2-18.78.23-11,.29-29.82-6.08-1.5-29-11.34-34.51-14C1239.21,931.23,1239.61,930.26,1240.2,930.49Z"/><path class="cls-5" d="M543.93,972.59c2.15,2.15,27.21,3.1,36.32,3.1s34.16-1,36.32-3.1-28.2-168.68-36.32-168.68S541.78,970.44,543.93,972.59Z"/><path class="cls-2" d="M543.43,930.15c6.19,2.36,29.12,11.7,34.07,14.42,0-1,0-2.08,0-3.13q-8.29-4.87-16.62-9.7c-6-3.47-12.35-6.56-17.9-10.64-.27-.2-.12-.76.25-.6,6.12,2.55,11.8,6.33,17.51,9.67s11.21,6.72,16.77,10.15q0-12,.1-23.94a189.76,189.76,0,0,1-26.13-13.29c-.29-.17-.1-.69.23-.56a192.25,192.25,0,0,1,25.91,12.78c0-4.15,0-8.3.09-12.45.23-21.37.27-42.76.81-64.14-5.43-2.74-11-5.16-16.47-7.91-.36-.19-.1-.81.28-.66,5.51,2.15,10.82,4.71,16.23,7.08.3-11,.72-22,1.39-33.05a.29.29,0,0,1,.57,0c.76,20.47.7,41,.44,61.45,5.64-4.5,11.64-8.48,17.37-12.84.22-.17.44.21.22.37-6,4.56-11.6,9.62-17.61,14.16,0,1.16,0,2.32,0,3.48,6.1-2.8,12.3-5.39,18.47-8,.49-.21.92.49.43.72-6.29,3-12.56,6.09-18.93,8.94-.14,10.15-.31,20.29-.45,30.44-.23,17.71-.61,35.43-1,53.14q17.28-8.75,34.84-17c.44-.21.83.42.39.67a365.19,365.19,0,0,1-35.26,17.71c-.31,14.72-.62,3.27-.81,18a.7.7,0,0,1-1.39,0c.21-18.78.24-11.38.29-30.15-6.08-1.51-29-11.34-34.5-14C542.44,930.9,542.83,929.92,543.43,930.15Z"/><path class="cls-5" d="M759.65,972.25c2.15,2.15,27.2,3.11,36.31,3.11s34.17-1,36.32-3.11S804.09,803.57,796,803.57,757.5,970.1,759.65,972.25Z"/><path class="cls-2" d="M759.14,929.82c6.19,2.36,29.12,11.69,34.08,14.42,0-1,0-2.09,0-3.13-5.53-3.26-11.08-6.48-16.63-9.71-6-3.46-12.35-6.55-17.9-10.64-.27-.19-.12-.75.25-.6,6.12,2.55,11.81,6.33,17.52,9.68s11.21,6.71,16.76,10.15c0-8,0-16,.11-24a189.82,189.82,0,0,1-26.14-13.28c-.28-.17-.09-.7.24-.56A192.07,192.07,0,0,1,793.34,915c0-4.15,0-8.3.09-12.45.23-21.37.27-42.76.82-64.13-5.44-2.74-11-5.16-16.47-7.92-.36-.18-.11-.8.27-.66,5.52,2.16,10.83,4.71,16.24,7.09.29-11,.72-22,1.39-33.06a.28.28,0,0,1,.56,0c.77,20.47.7,41,.45,61.45,5.63-4.5,11.64-8.47,17.37-12.84.22-.16.44.21.22.38-6,4.56-11.6,9.61-17.61,14.16,0,1.16,0,2.31,0,3.47,6.11-2.79,12.31-5.39,18.48-8,.48-.21.91.48.42.72-6.29,3-12.55,6.09-18.92,8.93-.15,10.15-.32,20.3-.45,30.44-.23,17.72-.62,35.43-1,53.15q17.29-8.74,34.84-17c.45-.21.84.42.39.67A364.12,364.12,0,0,1,795.12,957c-.31,14.72-.61,3.6-.8,18.32a.7.7,0,0,1-1.39,0c.2-18.78.23-11.71.29-30.49-6.09-1.5-29.05-11.34-34.51-14C758.15,930.56,758.55,929.59,759.14,929.82Z"/><path class="cls-5" d="M1438.1,972.25c2.15,2.15,27.2,3.11,36.31,3.11s34.17-1,36.32-3.11-28.19-168.68-36.32-168.68S1436,970.1,1438.1,972.25Z"/><path class="cls-2" d="M1437.59,929.82c6.19,2.36,29.13,11.69,34.08,14.42,0-1,0-2.09,0-3.13-5.53-3.26-11.08-6.48-16.63-9.71-6-3.46-12.35-6.55-17.9-10.64-.27-.19-.12-.75.26-.6,6.12,2.55,11.8,6.33,17.51,9.68s11.21,6.71,16.77,10.15q0-12,.1-24a189.82,189.82,0,0,1-26.14-13.28c-.28-.17-.09-.7.24-.56A192.77,192.77,0,0,1,1471.8,915q0-6.22.08-12.45c.23-21.37.27-42.76.82-64.13-5.44-2.74-11-5.16-16.47-7.92-.36-.18-.11-.8.27-.66,5.52,2.16,10.83,4.71,16.24,7.09.29-11,.72-22,1.39-33.06a.29.29,0,0,1,.57,0c.76,20.47.7,41,.44,61.45,5.63-4.5,11.64-8.47,17.37-12.84.22-.16.44.21.22.38-6,4.56-11.6,9.61-17.61,14.16,0,1.16,0,2.31,0,3.47,6.11-2.79,12.31-5.39,18.48-8,.48-.21.91.48.42.72-6.29,3-12.55,6.09-18.92,8.93-.14,10.15-.32,20.3-.45,30.44-.23,17.72-.62,35.43-1,53.15q17.3-8.74,34.84-17c.45-.21.84.42.4.67A366.43,366.43,0,0,1,1473.58,957c-.32,14.72-.62,3.6-.81,18.32a.7.7,0,0,1-1.39,0c.2-18.78.24-11.71.29-30.49-6.08-1.5-29.05-11.34-34.51-14C1436.6,930.56,1437,929.59,1437.59,929.82Z"/><rect class="cls-5" x="1163.83" y="960.27" width="4.31" height="12.11"/><rect class="cls-5" x="955.65" y="960.27" width="4.31" height="12.11"/><polygon class="cls-3" points="955.65 972.39 1016.39 882.04 1078.75 972.39 955.65 972.39"/><polygon class="cls-6" points="955.65 972.39 1016.39 882.04 1078.75 972.39 955.65 972.39"/><polygon class="cls-3" points="1016.39 882.04 1105.47 882.04 1167.37 972.39 1078.75 972.39 1016.39 882.04"/><polygon class="cls-7" points="1054.36 898.48 1095.07 898.48 1107.46 916.55 1066.84 916.55 1054.36 898.48"/><polygon class="cls-8" points="996.43 972.39 1034.75 972.39 1016.39 882.04 996.43 972.39"/><rect class="cls-5" x="1076.6" y="960.27" width="4.31" height="12.11"/><path class="cls-7" d="M1016.39,882c-14.71,29.35-31.76,61.61-47.69,90.35,14.75-29.37,31.76-61.64,47.69-90.35Z"/><path class="cls-7" d="M1016.39,882c15.79,28.55,32.64,60.65,47.23,89.85-15.78-28.58-32.66-60.66-47.23-89.85Z"/><path class="cls-3" d="M996.43,972.39s-2.76-12.81-16-24.08L1016.39,882Z"/><path class="cls-3" d="M1034.75,972.39,1016.39,882l37.45,69.72S1037.28,953.89,1034.75,972.39Z"/><circle class="cls-9" cx="919.27" cy="936.54" r="30.91"/><circle class="cls-9" cx="919.27" cy="943.57" r="23.73"/><path class="cls-3" d="M921.4,967.23s-18.86-2.75-20-2-2.15,6.23.12,7.57,19.56-1.1,19.56-1.1S923,970,921.4,967.23Z"/><path class="cls-10" d="M921.4,967.23s-18.86-2.75-20-2-2.15,6.23.12,7.57,19.56-1.1,19.56-1.1S923,970,921.4,967.23Z"/><path class="cls-11" d="M901.51,965.41c.57-.12,1.49,1.76,1.27,3.87s-.95,3.33-1.26,3.29-1.37-1.21-1.19-3.79C900.46,966.91,901,965.52,901.51,965.41Z"/><g class="cls-12"><path d="M903.48,965.94a29.55,29.55,0,0,1,3.26,0c.54,0,1.08.07,1.63.14.27,0,.54.09.82.16s.5.13.77.17c1,.18,2.12.26,3.19.35s2.15.17,3.23.28a32,32,0,0,1-3.25.13,21.13,21.13,0,0,1-3.26-.24c-.26,0-.58-.14-.81-.2s-.51-.11-.77-.16c-.52-.09-1-.15-1.59-.22Z"/><path d="M905.62,967c.77.1,1.53.23,2.29.38s1.5.3,2.25.39a13,13,0,0,0,2.25,0c.76,0,1.53,0,2.31,0a17.7,17.7,0,0,1-2.28.46,9.18,9.18,0,0,1-2.35.08,15.72,15.72,0,0,1-2.28-.52A19.64,19.64,0,0,1,905.62,967Z"/><path d="M914.88,968.72a6.4,6.4,0,0,1,3.4-1.25,4.1,4.1,0,0,1,1.85.3,2.5,2.5,0,0,1,.82.56,1.23,1.23,0,0,1,.3.47.56.56,0,0,1,0,.2.39.39,0,0,1,0,.14l0,.08a1.06,1.06,0,0,1-.17.23,3.29,3.29,0,0,1-1.7.91,2,2,0,0,1-1-.08,4.14,4.14,0,0,1-.86-.39,1.41,1.41,0,0,1-.7-.72.4.4,0,0,1,0-.35.62.62,0,0,1,.25-.19,2,2,0,0,1,.47-.11,3.54,3.54,0,0,1,.92,0,1.72,1.72,0,0,1,.85.31,2.7,2.7,0,0,0-1.73-.07,1.49,1.49,0,0,0-.39.13c-.11.07-.13.1-.1.17a1.21,1.21,0,0,0,.59.47,6.33,6.33,0,0,0,.8.31,1.66,1.66,0,0,0,.77,0,2.74,2.74,0,0,0,1.41-.78l.1-.12v0a0,0,0,0,0,0,0v0a1,1,0,0,0-.18-.28,2.18,2.18,0,0,0-.65-.46,4.17,4.17,0,0,0-1.65-.35,5.72,5.72,0,0,0-1.73.23A8.63,8.63,0,0,0,914.88,968.72Z"/><path d="M921.15,970.54a6.49,6.49,0,0,1-2.34.75,5.87,5.87,0,0,1-1.26,0,6.31,6.31,0,0,1-1.23-.3,16,16,0,0,1-2.2-1.08,7.61,7.61,0,0,0-2.25-.78,5.31,5.31,0,0,1,2.42.41c.76.32,1.46.7,2.21,1a5.69,5.69,0,0,0,2.28.36A11.41,11.41,0,0,0,921.15,970.54Z"/><path d="M902.78,972.15q1.47,0,2.91,0a20.41,20.41,0,0,0,2.84-.1,11.65,11.65,0,0,1,2.94-.16,21.62,21.62,0,0,1,2.9.32l-2.9.09a15.82,15.82,0,0,0-2.85.26,13.23,13.23,0,0,1-3,0A23.73,23.73,0,0,1,902.78,972.15Z"/><path d="M915.86,971.53c-.8-.2-1.6-.41-2.41-.57-.4-.09-.8-.17-1.2-.23a2.93,2.93,0,0,0-1.18,0c-.8.15-1.61.33-2.43.47-.41.07-.83.13-1.25.16a4.47,4.47,0,0,1-1.31,0,10.63,10.63,0,0,1-1.22-.36,3,3,0,0,1-1.16-.7.91.91,0,0,1-.19-.38.69.69,0,0,1,.06-.45,1.09,1.09,0,0,1,.61-.49,4.45,4.45,0,0,1,1.28-.21,6.72,6.72,0,0,1,1.27.06,2.78,2.78,0,0,1,1.24.42.47.47,0,0,1,.22.33c0,.21-.19.26-.28.31a2.83,2.83,0,0,1-.63.13,7.34,7.34,0,0,1-1.24,0c.41,0,.82-.09,1.22-.17s1-.24.55-.43a2.65,2.65,0,0,0-1.12-.29,6.87,6.87,0,0,0-1.2,0,4.52,4.52,0,0,0-1.14.24.68.68,0,0,0-.35.25.29.29,0,0,0,.08.32,2.6,2.6,0,0,0,1,.54,8.62,8.62,0,0,0,1.16.33,7.56,7.56,0,0,0,2.36-.08c.82-.12,1.62-.29,2.45-.39a4.54,4.54,0,0,1,.65,0,4.29,4.29,0,0,1,.64.09c.42.08.82.19,1.22.3C914.31,971,915.1,971.22,915.86,971.53Z"/><path d="M910.54,969.2c-1.11-.19-2.17-.48-3.23-.77l-1.59-.43a7.86,7.86,0,0,0-1.61-.28,3.71,3.71,0,0,1,1.69-.12,13.07,13.07,0,0,1,4.74,1.6Z"/></g><path class="cls-3" d="M918.79,967.11s18.88-2.55,20-1.81,2.08,6.25-.21,7.56-19.54-1.31-19.54-1.31S917.2,969.88,918.79,967.11Z"/><path class="cls-10" d="M918.79,967.11s18.88-2.55,20-1.81,2.08,6.25-.21,7.56-19.54-1.31-19.54-1.31S917.2,969.88,918.79,967.11Z"/><path class="cls-11" d="M938.7,965.51c-.57-.13-1.51,1.75-1.32,3.85s.92,3.34,1.23,3.31,1.38-1.2,1.23-3.78C939.73,967,939.18,965.63,938.7,965.51Z"/><g class="cls-12"><path d="M919.47,971l3.24.18c.54,0,1.07.05,1.6.05.27,0,.53,0,.79,0a7.18,7.18,0,0,1,.82-.06,22,22,0,0,1,3.26.3,31.17,31.17,0,0,1,3.19.68c-1.09-.08-2.16-.17-3.24-.27s-2.15-.2-3.2-.19c-.27,0-.49,0-.79,0a5.79,5.79,0,0,1-.83,0c-.55,0-1.1-.07-1.64-.14A25,25,0,0,1,919.47,971Z"/><path d="M921.43,971a19.69,19.69,0,0,1,2.25-.61A15.87,15.87,0,0,1,926,970a9.09,9.09,0,0,1,2.34.27,15.76,15.76,0,0,1,2.23.64c-.77-.07-1.54-.15-2.3-.24a14.42,14.42,0,0,0-2.25-.15c-.74,0-1.51.15-2.27.22S922.21,970.9,921.43,971Z"/><path d="M930.8,969.9a9.13,9.13,0,0,0,1.62.75,5.68,5.68,0,0,0,1.7.36,4.2,4.2,0,0,0,1.67-.22,2.07,2.07,0,0,0,.68-.4.79.79,0,0,0,.21-.27v0s0,0,0,0v0a.44.44,0,0,0-.09-.13,2.79,2.79,0,0,0-1.34-.89,1.59,1.59,0,0,0-.78,0,5.91,5.91,0,0,0-.82.24,1.28,1.28,0,0,0-.62.42c0,.07,0,.1.09.18a1.45,1.45,0,0,0,.38.16,2.67,2.67,0,0,0,1.72.06,1.61,1.61,0,0,1-.87.25,3.59,3.59,0,0,1-.92-.06,1.8,1.8,0,0,1-.46-.16.46.46,0,0,1-.22-.2.4.4,0,0,1,0-.35,1.49,1.49,0,0,1,.77-.67,4.4,4.4,0,0,1,.88-.32,2.11,2.11,0,0,1,1,0,3.17,3.17,0,0,1,1.63,1,1,1,0,0,1,.15.24l0,.08s0,.1,0,.14a.83.83,0,0,1-.05.2,1.29,1.29,0,0,1-.34.44,2.32,2.32,0,0,1-.86.49,4.13,4.13,0,0,1-1.87.16A6.48,6.48,0,0,1,930.8,969.9Z"/><path d="M937.2,968.57a11.45,11.45,0,0,0-2.34-.53,5.63,5.63,0,0,0-2.31.18c-.76.2-1.49.53-2.27.78a5.26,5.26,0,0,1-2.45.23,7.88,7.88,0,0,0,2.31-.61,15.91,15.91,0,0,1,2.28-.9,5.63,5.63,0,0,1,1.25-.2,5.82,5.82,0,0,1,1.25.12A6.61,6.61,0,0,1,937.2,968.57Z"/><path d="M925.9,966.77a23.46,23.46,0,0,1,2.89-.45,13.22,13.22,0,0,1,3,0,15.82,15.82,0,0,0,2.85.24l2.9.08a21.82,21.82,0,0,1-2.9.33,11.63,11.63,0,0,1-2.94-.14,19,19,0,0,0-2.84-.09Z"/><path d="M932,967.17c-.79.25-1.59.45-2.4.64-.41.08-.82.16-1.24.21a4.5,4.5,0,0,1-.64,0,4.43,4.43,0,0,1-.65-.09c-.82-.17-1.61-.4-2.41-.57a7.48,7.48,0,0,0-2.35-.28,9.15,9.15,0,0,0-1.18.25,2.5,2.5,0,0,0-1,.46c-.11.11-.14.19-.1.31s.16.19.32.28a4.54,4.54,0,0,0,1.12.33,6.94,6.94,0,0,0,1.2.1,2.79,2.79,0,0,0,1.14-.2c.44-.15-.17-.37-.51-.48s-.8-.19-1.21-.26a8.69,8.69,0,0,1,1.24.13,2.35,2.35,0,0,1,.61.18.37.37,0,0,1,.25.33.49.49,0,0,1-.24.32,2.89,2.89,0,0,1-1.26.31,7.82,7.82,0,0,1-1.28,0,4.49,4.49,0,0,1-1.26-.32,1.07,1.07,0,0,1-.57-.53.69.69,0,0,1,0-.45.85.85,0,0,1,.22-.37,3.08,3.08,0,0,1,1.21-.61,10.5,10.5,0,0,1,1.24-.26,4.74,4.74,0,0,1,1.31,0c.42.07.83.15,1.24.26.8.2,1.6.44,2.38.66a3.1,3.1,0,0,0,1.17.12c.41,0,.82-.08,1.22-.13C930.37,967.46,931.18,967.31,932,967.17Z"/><path d="M926.51,969.08a12.83,12.83,0,0,1-3.18,1,11.71,11.71,0,0,1-1.67.2,3.7,3.7,0,0,1-1.68-.25,7.38,7.38,0,0,0,1.63-.15l1.62-.31C924.31,969.39,925.39,969.18,926.51,969.08Z"/><path d="M931.55,971.13c.85.28,1.66.55,2.5.74a12.75,12.75,0,0,0,1.26.24c.42.06.85.07,1.31.1a3.58,3.58,0,0,1-1.33.3,4.76,4.76,0,0,1-1.36-.13,5.78,5.78,0,0,1-1.28-.47A4.48,4.48,0,0,1,931.55,971.13Z"/></g><path class="cls-3" d="M934.52,927.1a.59.59,0,1,0,.59-.58A.58.58,0,0,0,934.52,927.1Z"/><path class="cls-3" d="M928.25,902a.59.59,0,1,0,.59-.59A.58.58,0,0,0,928.25,902Z"/><path class="cls-3" d="M905.88,923.28a.59.59,0,0,0,.71-.93.59.59,0,1,0-.71.93Z"/><path class="cls-3" d="M900.64,959a.59.59,0,0,0,.58.59.6.6,0,0,0,.59-.59.59.59,0,0,0-.59-.58A.58.58,0,0,0,900.64,959Z"/><path class="cls-3" d="M937.22,955.05a.58.58,0,0,0,.58.59.59.59,0,1,0,0-1.17A.58.58,0,0,0,937.22,955.05Z"/><path class="cls-3" d="M933.73,930.92a.79.79,0,1,0,.79-.79A.79.79,0,0,0,933.73,930.92Z"/><path class="cls-3" d="M909.06,916.72a.79.79,0,1,0-.14-1.11A.78.78,0,0,0,909.06,916.72Z"/><path class="cls-3" d="M902.14,946a.79.79,0,1,0,1.58,0,.79.79,0,1,0-1.58,0Z"/><path class="cls-3" d="M932.47,929.79a.35.35,0,1,0,.35-.34A.35.35,0,0,0,932.47,929.79Z"/><circle class="cls-3" cx="935.74" cy="940.9" r="0.34"/><path class="cls-3" d="M939.87,951.91a.35.35,0,0,0,.35.34.34.34,0,0,0,0-.68A.35.35,0,0,0,939.87,951.91Z"/><path class="cls-3" d="M901,943.57a.34.34,0,1,0,.34-.34A.34.34,0,0,0,901,943.57Z"/><path class="cls-3" d="M937.12,918.93a.34.34,0,1,0,.34-.34A.34.34,0,0,0,937.12,918.93Z"/><circle class="cls-3" cx="921.66" cy="915.75" r="0.34"/><circle class="cls-3" cx="919.08" cy="910.58" r="0.34"/><path class="cls-3" d="M907.26,968.06c2.44,1.54,11.24,2.68,11.24,2.68l2.3,0s5.75-1.38,6.58-1.66,2.8.61,3.72,0,5.28-4.57,5.57-5.73-1.48-5.35-1.53-6.17,1.16-5.84,1.28-7.5-4.8-9.85-5.24-11.18,1.42-6.18,1.42-6.18-4.05,4.24-3.92,5.23,2,3.31,2.07,4-2.51,5.84-2.42,6.56,1.26,3.08,1.15,4.13c0,0-.6-2.42-1.85-3.2a31.51,31.51,0,0,1-3.07-1.87,16.29,16.29,0,0,1-1.89-5.18c.13-.5,1.29-1.81,1.12-3.52s-3.83-7.62-3.83-7.62.64,3.26,0,4-3,2-3.17,2.59,2.1,3.25,1.82,3.91-5.49,1.71-6,2.43-2,6.17-1.58,7.22,1.65,5,.93,5.79-2.26,1.1-2.31.77.93-2.81.55-4.36-2-4.9-2.15-5.73a24.3,24.3,0,0,1,1.47-6c.46-1-3.2,5.14-3.4,6.76s1,6.85.9,7-.75-.51-.92-.84a16.92,16.92,0,0,1,0-3s-2.1,2.44-2.33,3.51,1,3.67.79,4.55a40.46,40.46,0,0,0-1.24,4.1C903.2,964.78,906.38,967.5,907.26,968.06Zm25-7.89a12.33,12.33,0,0,1-1.36,3.51s.25-1.72.27-2.4a12,12,0,0,0-.77-2.65c-.39-1.36.86-3.1.86-3.1A18,18,0,0,1,932.21,960.17Zm-4.87,8.07s1.41-1.21,2.11-1.85,2.78-1.57,3.15-2.19a23.65,23.65,0,0,0,1-3.62,16.09,16.09,0,0,1,.27,4c-.26,1-2.64,3.12-3.41,3.52A8.22,8.22,0,0,1,927.34,968.24ZM912,959.08a11,11,0,0,0-1.2,3.15,5.87,5.87,0,0,0,1,3,12.55,12.55,0,0,1,.92,2.44s-2.45-1.14-2.87-2.94S911.81,959.3,912,959.08Z"/><path class="cls-3" d="M928.48,933.4s2.53-1.8,2.61-3.16-1.58-4.19-1.41-5.29a7.2,7.2,0,0,1,.72-2.13s-2.68,1.83-2.66,3.34,1.59,3.9,1.44,4.63S928.48,933.4,928.48,933.4Z"/><path class="cls-3" d="M913.37,941.67a9.5,9.5,0,0,0,.51-2.5,4.07,4.07,0,0,0-.93-1.64,2,2,0,0,0-.34,1.86C912.94,940.53,913.37,941.67,913.37,941.67Z"/><path class="cls-3" d="M907.12,941.37a10.35,10.35,0,0,0,1.45-3.84,9.34,9.34,0,0,0-1.05-4.5,6,6,0,0,0-1.66-1.32,7,7,0,0,1,.94,2.08c0,.65-.45,2.66-.52,3.45A26,26,0,0,0,907.12,941.37Z"/><path class="cls-3" d="M923.54,930.92s1.91-2.59,1.55-4.27a11.85,11.85,0,0,0-2.4-4.44,21,21,0,0,1-2.54-2.81c-.57-.91-.6-4.21,0-5a5,5,0,0,1,1.66-1.33,5.26,5.26,0,0,0-4.25,2.18c-1.65,2.32-3.77,11.3-2.78,13.34a14.24,14.24,0,0,0,3.78,4.06s-.75-3.56-.5-4.44,2.89,0,3.55.53A18.2,18.2,0,0,1,923.54,930.92Z"/><path class="cls-3" d="M927.92,943.63s1.16-1.21.92-2.26-1.74-2.62-1.82-3.11a13.56,13.56,0,0,1,.34-2.52s-1.5,2.85-1.17,3.73a21.1,21.1,0,0,1,.63,2.2s-.66-.44-.8-.8-.27-1-.27-1-1.13,1.4-.77,2.4a13.06,13.06,0,0,0,2.31,2.89,8.3,8.3,0,0,1,0-.91C927.29,944,927.5,944.15,927.92,943.63Z"/><g class="cls-13"><path class="cls-7" d="M919.83,970.74s6.89-2.48,8.43-6c1-2.22-1.64-6.74-1.86-7.46s.07-3.47-.3-4.57-5.24-4-5.67-4.76.85-3.79.85-3.79-3.7,3-4.25,4.7,1.65,5,1.62,5.61a9,9,0,0,1-1.29,2.4,4.93,4.93,0,0,1-1-2.4c0-1.16.53-1.76.41-2.56a7.38,7.38,0,0,0-1.61-2.34,3.31,3.31,0,0,1,.39,2.34c-.38,1-2.26,2.84-2,4.32s2.48,4.91,2.28,5.85a4.44,4.44,0,0,1-.69,1.6,15.34,15.34,0,0,1-.79-2.32c-.2-.94-.4-2.18-.4-2.18s-1.13,6.12,0,7.84S919.83,970.74,919.83,970.74Z"/><path class="cls-7" d="M921.66,928.11a9.64,9.64,0,0,0,.83-2.69c0-.91-1.63-2.12-2.37-2.81s-2.35-2.92-2.21-4.08.31-2,.31-2-2.29,6.56-2.16,8.63a6,6,0,0,0,1.36,3.39s.43-2,1.4-1.93A6,6,0,0,1,921.66,928.11Z"/><path class="cls-7" d="M929.08,932.5s1.47-1.38,1.46-2.3a13.62,13.62,0,0,0-1.46-3.47s.62,3,.73,3.58A6,6,0,0,1,929.08,932.5Z"/><path class="cls-7" d="M912.06,968.58s-3-1.86-3.53-2.35a8.8,8.8,0,0,1-1.32-3.64c.06-.53,1-2.86,1-3.51s-2-2.93-2-2.93a11.83,11.83,0,0,1,.53,2.7c-.11.53-2.66,3.56-2.5,4.69s2.58,3.17,3.28,3.63A31.67,31.67,0,0,0,912.06,968.58Z"/><path class="cls-7" d="M933.16,956.53s2-5.15,1.8-6.51-2.49-6.5-2.49-6.5.17,4.39.36,5.08a9.55,9.55,0,0,1-.36,2.78,16.54,16.54,0,0,1-.83-2,11.57,11.57,0,0,1,.39-2.69s-1.44,3.81-1.11,5.27A24.74,24.74,0,0,0,933.16,956.53Z"/></g></svg>