<svg id="Слой_1" data-name="Слой 1" xmlns="http://www.w3.org/2000/svg" viewBox="0 0 515 760"><defs><style>.cls-1{fill:#ffc800;}.cls-2{fill:#1a2e35;}.cls-3{fill:#4a148c;}.cls-4{fill:#306;}.cls-5{fill:#4c1b93;}</style></defs><path class="cls-1" d="M242.51,458.13C216.86,405.41,172,378.34,121.4,393.3S63,478.79,100.74,496.6s75.52-34.2,95.46-44.88S242.51,458.13,242.51,458.13Z"/><path class="cls-2" d="M267.33,598.45c-.13-6.35-.37-12.7-.6-19.06-.45-12.68-.87-25.37-1.35-38.06-.86-23.2-3.36-46-13-67.38-8.62-19.19-22.6-36-40.68-46.89a85.43,85.43,0,0,0-21.39-9.22c-6.26-7-16-11.54-25-13.71-11.7-2.85-23.72-2.22-35.58-.9-.43,0-.41.73,0,.67a85.74,85.74,0,0,1,33.66,2.4A70.71,70.71,0,0,1,177,411.58a63.79,63.79,0,0,1,7.84,5,72.6,72.6,0,0,0-30.91.3,68.66,68.66,0,0,0-10.72,3.54,31.31,31.31,0,0,0-8.43-.72,50,50,0,0,0-10.95,1.56c-7.37,1.84-14.26,5.33-20.81,9.09-.38.22,0,.78.35.57a77.72,77.72,0,0,1,20.3-7.65,68.27,68.27,0,0,1,10.44-1.53,51.37,51.37,0,0,1,5.82.05c-14.23,6.71-26.2,18.13-32.71,32.59-.18.39.41.71.58.32,7.59-17.14,23.77-28.85,41.68-33.41,1.12-.29,2.26-.44,3.38-.66a50.8,50.8,0,0,0-.54,5.1c-.34,2.57-.76,5.12-1.28,7.66A129,129,0,0,1,147,448.79a120.75,120.75,0,0,1-6.13,15c-2.43,4.93-5,10.2-8.55,14.44a.33.33,0,1,0,.54.39c3-4.76,6.57-9.15,9.35-14.09A106.32,106.32,0,0,0,149,449.77a98.84,98.84,0,0,0,4.51-15.8q.84-4.26,1.33-8.58a19.52,19.52,0,0,0,.32-5.23,69.21,69.21,0,0,1,18-.37c-2.24,12.57-4.65,25.68-11.7,36.6-.23.36.38.71.59.33,3.14-5.92,6.36-11.68,8.69-18A68.06,68.06,0,0,0,175.05,420a83,83,0,0,1,29.7,10c17.51,9.85,30.79,25.29,39.54,43.25,9.49,19.5,13.31,40.49,14.65,62,1.68,26.95,2,54.06,4.73,80.92.17,1.76,2.95,2.35,3.29.37C268,610.55,267.46,604.46,267.33,598.45Z"/><path class="cls-2" d="M208.06,422.84c-1.42-2.1-3.89-3.78-5.83-5.38-2.1-1.74-4.25-3.42-6.51-4.95a48.26,48.26,0,0,0-14.57-6.76.33.33,0,0,0-.16.65c5.27,1.14,10.06,3.9,14.38,7.07,2.14,1.57,4.2,3.26,6.21,5,1.86,1.63,3.7,3.82,5.88,5A.45.45,0,0,0,208.06,422.84Z"/><path class="cls-2" d="M126.21,442a151.84,151.84,0,0,0-11.76,15.56,94.29,94.29,0,0,0-8.75,17.34c-.07.19.22.29.3.13,6.22-11.19,12.47-22.71,20.69-32.57C127,442.08,126.48,441.61,126.21,442Z"/><path class="cls-2" d="M181.38,436.73a38,38,0,0,1-2.89,9.54,63.51,63.51,0,0,1-4.89,8.45c-.11.17.16.36.3.21,4.56-4.85,7.1-11.53,8.13-18C182.1,436.47,181.46,436.3,181.38,436.73Z"/><path class="cls-1" d="M263.76,459.43s36.31-45.64,106.4-29.47c66.62,15.38,97.37,137.54,30,152.15s-55.45-98.43-80-117.61C302.22,450.43,276.34,453.45,263.76,459.43Z"/><path class="cls-2" d="M424.3,496.68a136.75,136.75,0,0,0-14.44-11.07,63,63,0,0,0-15.4-7.69,93,93,0,0,0-9.14-11.75,90.53,90.53,0,0,0-21.18-16.87c.7,0,1.39-.11,2.09-.14,3.72-.12,7.42-.14,11.14.11A62.31,62.31,0,0,1,399,454.66c.39.18.68-.44.29-.61a98.86,98.86,0,0,0-21.6-6.5,60,60,0,0,0-10.95-.94c-2,0-3.93.15-5.89.34-.36,0-.74.06-1.12.09a94.17,94.17,0,0,0-20.21-7.43c.66-.18,1.3-.38,2-.53a96,96,0,0,1,10.38-1.71,81.42,81.42,0,0,1,21,.33c.42.06.54-.61.12-.66a132.93,132.93,0,0,0-21.2-.86,89.09,89.09,0,0,0-17.63,2.28A93.6,93.6,0,0,0,321.35,437c-24.44-1-51.08,8.1-66.13,28.18s-18,46.93-20.65,71.19c-3.7,33.76-5.4,68-2.68,101.88.16,2,3,1.63,3-.27.92-28.8,1.94-57.62,4.69-86.32,1.28-13.29,2.7-26.63,4.91-39.8,1.89-11.26,4.58-22.5,9.66-32.78a60,60,0,0,1,23.65-25.44,79.9,79.9,0,0,1,33.51-10.3,90.18,90.18,0,0,1,31.45,2.94,20.76,20.76,0,0,0-.18,6.2,34.47,34.47,0,0,0,1.54,7.66,40.08,40.08,0,0,0,2.93,6.8c1.3,2.41,2.93,4.55,4.37,6.86.23.37.82-.05.55-.39-3-3.8-4.57-9.11-5.43-13.81a53.83,53.83,0,0,1-.84-7.15c-.1-1.8.06-3.62,0-5.42a92.59,92.59,0,0,1,30.6,16.16c1.7,1.36,3.35,2.8,4.95,4.29-2.39,2-4.32,4.92-5.94,7.3a71.52,71.52,0,0,0-6.23,11.1c-3.42,7.7-5.24,16.08-6.48,24.38-.07.43.6.55.66.12,1.13-8.2,4.14-15.8,8-23.1A93.1,93.1,0,0,1,377.45,477q1.77-2.53,3.68-5c.69-.87,1.44-1.75,2.09-2.69a96.53,96.53,0,0,1,19.88,28s-.09,0-.13.06c-3.46,3.22-5.92,7.7-8.21,11.8a111.23,111.23,0,0,0-6.57,14c-3.59,9.27-6,18.94-8.36,28.58-.1.41.58.54.66.12,1.93-9.83,5.65-19.13,9.94-28.15q3.13-6.59,6.64-13c2.19-4,4.87-8,6.58-12.25a90.14,90.14,0,0,1,8,32.47c0,.43.7.37.66-.06a113.21,113.21,0,0,0-15.73-49.83c4.29,1.83,8.59,3.59,12.71,5.81a72,72,0,0,1,14.58,10.24C424.18,497.48,424.62,497,424.3,496.68Z"/><path class="cls-2" d="M372.89,499.27c-2.1,6.92-4.75,13.63-6.64,20.63a79.45,79.45,0,0,0-3.1,20.6.17.17,0,0,0,.33,0c2.06-13.85,5.1-27.92,10-41A.33.33,0,1,0,372.89,499.27Z"/><path class="cls-2" d="M417.29,482.1a39,39,0,0,0-9.28-6.63,66.84,66.84,0,0,0-10.74-3.8c-.41-.13-.55.56-.12.66a42,42,0,0,1,10.34,4.25,77.38,77.38,0,0,1,9.52,5.85A.22.22,0,0,0,417.29,482.1Z"/><path class="cls-1" d="M298.27,398.47s6.7-82,67.66-108.57c50.91-22.19,80.05,35,44.06,70C380.88,388.24,334.2,375.46,298.27,398.47Z"/><path class="cls-2" d="M398.72,305.78c-9.23,3.94-18.38,7.84-27.11,12.84a202.06,202.06,0,0,0-21.05,14c1-2.08,1.89-4.25,2.91-6.27,1.59-3.17,3.3-6.27,5.18-9.27a86.85,86.85,0,0,1,13.43-17c.31-.29-.19-.77-.49-.46a134.25,134.25,0,0,0-14.13,16.46,96.4,96.4,0,0,0-5.79,9.27c-1.59,2.92-3.39,6.15-4.1,9.44-.22.18-.46.32-.67.49a200.09,200.09,0,0,0-29.12,28.49c.17-.81.34-1.61.55-2.35,1.14-4,2.38-8,3.69-11.91,2.77-8.3,6.18-16.59,11-23.92.23-.35-.36-.69-.59-.32-4.61,7.6-9.23,15.13-12.76,23.32a88.2,88.2,0,0,0-4.21,12.12,50.67,50.67,0,0,0-2,8.24c-2.66,3.36-5.27,6.76-7.73,10.26-26.17,37.25-39.31,82.32-42.46,127.4a391.54,391.54,0,0,0-.68,40.39c.46,13.48.95,27.28,3.58,40.54.16.85,1.49.59,1.47-.24-.31-11.84-1.53-23.64-1.76-35.5a355.2,355.2,0,0,1,1.15-35.59,330.59,330.59,0,0,1,13.29-69.77,249.79,249.79,0,0,1,31-65.59c2.56-.51,5.11-1.21,7.64-1.86,3-.78,6.09-1.56,9.11-2.41a91.58,91.58,0,0,0,17-6.23c.38-.2,0-.79-.35-.57-5.32,3.11-11.23,4.75-17.24,5.94-4.77.95-9.72,1.57-14.5,2.67a231.28,231.28,0,0,1,14.17-18.63,105.7,105.7,0,0,0,34.68-2.59,139.16,139.16,0,0,0,17.75-5.52c6.11-2.36,11.89-5.38,17.91-7.9.45-.19.14-.85-.27-.6-10.34,6.27-23.33,9.49-35.16,11.5a216.93,216.93,0,0,1-32.88,2.72c4.33-5,8.8-9.81,13.58-14.35,16-15.25,35-29.27,56.11-36.57C399.32,306.28,399.11,305.61,398.72,305.78Z"/><path class="cls-2" d="M349.11,306A93.32,93.32,0,0,0,341.64,317a60.05,60.05,0,0,0-5.38,12.72.14.14,0,0,0,.25.1c2-4,3.75-8.2,5.81-12.2a60.78,60.78,0,0,1,7.28-11.09C349.87,306.16,349.38,305.7,349.11,306Z"/><path class="cls-2" d="M405.79,333.33a63.1,63.1,0,0,1-12.5,5.21A114.17,114.17,0,0,1,380.57,342c-.21,0-.15.39.05.36a61.79,61.79,0,0,0,13.18-2.88,112.79,112.79,0,0,0,12.34-5.54C406.53,333.71,406.17,333.11,405.79,333.33Z"/><path class="cls-1" d="M250.88,383.71c-.38,3.54-9.22-29.76-60.76-59.34-46.81-26.86-102.67-96.71-56.78-140.84C170.38,147.91,268,225.56,250.88,383.71Z"/><path class="cls-2" d="M286.36,574.69a914.43,914.43,0,0,0-8.17-103.63c-4.33-31.59-11.13-62.68-21.78-92.76-3.84-10.84-8.22-21.51-13-32,.49-4,0-8.4-.21-12.26-.26-5.25-.73-10.49-1.21-15.72s-1-10.46-1.64-15.68-1.73-10.43-1.95-15.64a.33.33,0,1,0-.65.11c1.25,5.35,1.42,11.13,1.85,16.59.39,5.06.68,10.12.84,15.18s.13,10.15.13,15.22c0,1.83-.1,3.78-.17,5.73-4.84-10.24-10-20.32-15.66-30.15,3.49-21.37-1-43.7-5.41-64.6-.09-.42-.73-.22-.64.2a182.14,182.14,0,0,1,3.4,33.12c.2,8.77-.21,17.55-.25,26.32-1.24-2.1-2.47-4.21-3.74-6.29-6.68-10.91-13.82-21.61-21.41-32,.83-5,.24-10.28-.49-15.21a118.22,118.22,0,0,0-3.74-16.65q-2.46-8.19-5.71-16.09c-2.23-5.42-5.2-10.55-7.36-16-.18-.45-.85-.14-.6.27,2.92,4.89,4.71,10.77,6.45,16.17a147.78,147.78,0,0,1,4.22,16c1.09,5.43,2,10.86,2.74,16.34.5,3.63.82,7.39,1.45,11.05a396.1,396.1,0,0,0-36.09-42c-.31-.31-.74.17-.46.49a475.35,475.35,0,0,1,52.4,71.28c.56.95,1.1,1.92,1.66,2.87-2.84-1.78-6.1-3.19-8.77-4.67q-7.5-4.17-15-8.26-7.32-3.94-14.6-8c-2.5-1.38-5-2.83-7.51-4.13a59.47,59.47,0,0,1-8.74-4.84c-.39-.29-.81.31-.39.54,5,2.72,9.35,6.77,14.14,9.83s9.71,6,14.71,8.83c9.17,5.11,19.12,8.78,28.14,14.07q9.39,16.42,17.34,33.64-8.21-5.26-16.74-10c-3.65-2-7.31-4.06-11-6s-7.29-3.62-10.38-6.27a.34.34,0,0,0-.46.49c5.83,5.71,12.8,9.68,19.8,13.77,6.62,3.87,13.31,7.61,20.2,11q8.26,18.12,14.91,36.89c21.7,61.43,29.67,126.64,33.48,191.4,1.13,19.31,1.72,38.61,2,58s-.78,38.59-.74,57.9c0,.57.94.7,1,.11,2.32-17.12,2.72-34.54,3.47-51.78C286.74,609.88,286.75,592.24,286.36,574.69Z"/><path class="cls-2" d="M192.72,296.6c-9.47-3.89-18.49-9.13-27.39-14.17a287.3,287.3,0,0,1-26-16.51c-.14-.1-.31.14-.18.24a219.07,219.07,0,0,0,25,17.47c9.07,5.38,18.64,9.35,28.28,13.55C192.79,297.36,193.12,296.76,192.72,296.6Z"/><path class="cls-2" d="M207.65,227.16c-.76-3-1.71-5.94-2.72-8.87a.25.25,0,0,0,.13-.34c-.65-1.66-1.33-3.3-2-5a6,6,0,0,0-.24-.59c-.13-.32-.26-.63-.38-1-.05-.1-.21-.06-.17.05.18.57.32,1.15.5,1.71a8.53,8.53,0,0,0,.28.95,244.25,244.25,0,0,1,7.64,35c0,.37.63.38.6,0A117.68,117.68,0,0,0,207.65,227.16Z"/><polygon class="cls-3" points="340.82 587.15 337.15 630.74 325.89 763.69 205.28 763.69 194.02 630.74 190.35 587.15 340.82 587.15"/><polygon class="cls-4" points="340.82 587.15 337.15 630.74 194.02 630.74 190.35 587.15 340.82 587.15"/><rect class="cls-5" x="178.51" y="569.65" width="174.14" height="41.82"/></svg>