<svg id="Слой_1" data-name="Слой 1" xmlns="http://www.w3.org/2000/svg" viewBox="0 0 923 1000"><defs><style>.cls-1{fill:#ececec;}.cls-2{fill:#4a148c;}.cls-3{fill:#306;}.cls-4{fill:#ff9581;}.cls-5{fill:#ffc800;}.cls-6{fill:#a8a8a8;}.cls-7{fill:#c36358;}.cls-8{fill:#c8c8c8;}.cls-9{fill:#dcdcdc;}.cls-10{fill:#ed776a;}.cls-11{fill:#ff9cbf;}.cls-12{fill:#ffaba1;}.cls-13{opacity:0.1;}.cls-14{opacity:0.2;}</style></defs><path class="cls-1" d="M762.92,796.39V904.57h108.2V796.39Zm8.17,100V804.56h91.85v91.85Z"/><rect class="cls-2" x="496" y="607.28" width="316.58" height="316.58"/><path class="cls-3" d="M557,923.86H733.14C733.87,917.13,706.9,774,675.21,728c-3.6-5.22-34.4-9-45.71,4C569.61,800.74,555.56,922.21,557,923.86Z"/><path class="cls-4" d="M679.38,739.87c5,13,23.86,58.36,34.11,91,6.88,21.87,9.5,40.22,11,45,0,0-52-16.7-63.71-16.73-18,0-47,37.62-39.87,42.34,11.16,7.42,64.33,32.65,106.8,40.58,23.08,4.31,66.57-25,63.13-48.36-4.82-32.73-64-119-86.48-143.49C692.67,737.5,673.29,724.09,679.38,739.87Z"/><path class="cls-3" d="M794,900.61c-1.09,23.58-30.59,43.43-47.69,44.48-29.5,1.79-118-24-118-24l34.4-66.28s60.23,20.44,61.75,21v0c-.53-1.76-15.37-57.52-22-76-.36-1-.77-2.07-1.15-3.17-1.91-5.12-4.53-11.87-7.42-19.18l0-.05-5-12.44v0c-7.27-18.07-14.36-35.27-14.36-35.27,10.14,1.66,20.15,7,36.59,24.25S795.81,861.71,794,900.61Z"/><path class="cls-2" d="M651.24,906.76c2.46-4.69,5-9.37,7.42-14s4.86-9.16,7.33-13.73a159.09,159.09,0,0,0,7.29-14.39c0-.09-.1-.17-.16-.09a121.23,121.23,0,0,0-8.19,13c-2.63,4.59-5.2,9.23-7.75,13.88s-4.89,9.15-7.26,13.77a115.87,115.87,0,0,0-6.65,14.73c-.07.2.2.4.34.2A140.68,140.68,0,0,0,651.24,906.76Z"/><path class="cls-2" d="M742.88,885.61l-18.39-9.75,0,0v0c-.53-1.76-15.37-57.52-22-76-.36-1-.77-2.07-1.15-3.17-1.91-5.12-4.53-11.87-7.42-19.18Z"/><path class="cls-2" d="M758.11,893.71A151.89,151.89,0,0,0,742,883.34q-4.16-2.36-8.51-4.31c-3.09-1.38-6.36-2.38-9.43-3.77-.23-.11-.41.26-.17.36,2.87,1.3,5.59,3.11,8.37,4.62s5.77,3.11,8.69,4.62c5.73,2.94,11.36,6.07,17.06,9.08C758.1,894,758.24,893.8,758.11,893.71Z"/><path class="cls-4" d="M744.72,879.43c-4.62.06-32.48-7.38-36.54-3.56-24.74,23.32-32.56,18.62-37.82,21.66-40.76,23.45-95.18,51-114.61,51.17-29.46.24-41.2-24.49-36.29-47.85,9.68-46.18,72-136.22,100.14-160.15,14.94-12.67,13.76,6.44,7.58,27.21-3.62,12.18-10,30.28-16.43,48.05-5.73,15.83-20.91,56.28-21.17,57.23v0s-.05.08-.05.11.09.12.33.06c1.29-.24,36.15-16.67,71.2-25.69,12.35-3.18,38.07-7.71,47.29-3.59,5.48,2.44,5.58,5.72,5.58,5.72s4.39-.4,9,3.41a13.3,13.3,0,0,1,4,6.12s4.81.67,7.31,3.46a12.63,12.63,0,0,1,3.25,6.84C744,871.4,744.72,879.43,744.72,879.43Z"/><path class="cls-3" d="M703.55,848.85a68.85,68.85,0,0,0-11,1.23c-.25,0-.24.43,0,.4,3.59-.39,7.22-.47,10.82-.6s7.22-.19,10.8-.12c0,0,0,0,0,0A59.52,59.52,0,0,0,703.55,848.85Z"/><path class="cls-3" d="M726.88,859.14c-6.38-1.75-11.47-2.72-19.48-1.72-.26,0-.24.42,0,.4,7.62-.47,12.58.3,19.45,1.46C726.94,859.29,727,859.16,726.88,859.14Z"/><path class="cls-3" d="M737.47,869.45A43.8,43.8,0,0,0,719.05,866c-.25,0-.33.37-.07.4a108.27,108.27,0,0,1,18.4,3.34C737.54,869.77,737.63,869.51,737.47,869.45Z"/><path class="cls-3" d="M659.35,848.1a83.77,83.77,0,0,0-9.11,2c-3.2.79-6.38,1.65-9.5,2.68a179.4,179.4,0,0,0-18.32,7.27.2.2,0,0,0,.14.38c6.1-2.14,12.26-4.14,18.43-6.09,3-1,6-2,9.07-3s6.33-1.79,9.37-2.94C659.64,848.41,659.58,848.07,659.35,848.1Z"/><path class="cls-3" d="M635,854.71c6.45-2.18,9.37-2.19,9.37-2.19L681,914.44S580,950.8,559.27,952.93s-44.33-14.21-44.73-40.24c-.56-36.59,59.11-124.47,89.13-158.45,13.75-15.57,29.79-26.88,33.88-24.33,4.83,3-3.94,22.6-8.56,37.2-8.54,27-39.13,106.28-39.13,106.28S627.29,857.31,635,854.71Z"/><path class="cls-2" d="M644,852.47c-5.69.33-30.29,8.9-42.35,14.07a208,208,0,0,0-34.44,18.61c-6.14,4.14-12,8.65-17.72,13.31-.2.16,0,.48.23.33a312.3,312.3,0,0,1,33.4-20.55,316.36,316.36,0,0,1,35.13-16.73c6.88-2.68,18.72-6.7,25.45-8.47C645.61,852.54,644.18,852.46,644,852.47Z"/><path class="cls-2" d="M619.79,798.32c-1.54,2.48-3.1,4.95-4.41,7.56l-.18.37q2.92-8.91,5.58-17.9c.11-.37-.5-.56-.64-.21-8.68,22-16.73,44.23-24.54,66.53-2.19,6.24-4.11,12.54-6.09,18.84-.07.22.28.33.37.12,2.39-5.4,4.79-10.76,7-16.26s4.21-11,6.26-16.59c3.59-9.69,7-19.43,10.3-29.22,1-1.71,2.07-3.42,3-5.17,1.42-2.54,2.59-5.21,3.77-7.87A.24.24,0,0,0,619.79,798.32Z"/><path class="cls-2" d="M656.43,901c-2.68-4.56-5.33-9.15-8-13.72s-5.21-9-7.78-13.47A157.17,157.17,0,0,0,632.27,860a.09.09,0,0,0-.16.08,119.44,119.44,0,0,0,6.74,13.84c2.51,4.66,5.09,9.29,7.69,13.91s5.19,9,7.86,13.44a117.7,117.7,0,0,0,9,13.43c.13.17.45,0,.35-.18A138,138,0,0,0,656.43,901Z"/><path class="cls-2" d="M682.47,914.57c-3-6-7.78-11.89-11.28-17.6-.13-.21-.46,0-.33.23,3.18,5.35,6.1,11.12,9.14,16.56-13.87,5.73-28.6,10.84-42.75,15.85-14.52,5.15-29.13,10-43.94,14.29-8.28,2.39-16.57,5-24.9,7.16-.52.14-.38.56.15.46,15-2.82,29.7-7.15,44.21-11.75,14.79-4.7,29.4-9.94,43.93-15.37C664.88,921.34,682.71,915.05,682.47,914.57Z"/><path class="cls-4" d="M658.41,848.14c-19.07,4.89-41,12.93-50.85,16.78l-.73.26c-8.66,3.41-14,5.93-15.31,6.15-.11-.05-.19-.13-.28-.18v0a11.38,11.38,0,0,0-2.68-1.48c-2.44-.87-25.91-3.81-25.31-11.07s10.13-6.75,11.54-6.65c-1.52-.33-14.26-3.31-10.11-9.68,2.93-4.51,15.54-3.85,16.81-3.79-1.28-.42-13-4.24-9-10.73,2.88-4.65,17-4,18.59-3.77-1.32-.5-11.75-2.24-6.88-7.84,3.38-3.9,29.9.06,41.68,6C643.45,830.81,658.41,848.14,658.41,848.14Z"/><path class="cls-3" d="M607.56,864.92l-.73.26c-4.07-3.16-19.47-11.31-31.57-12.86-.75-.1-.8-.53,0-.49C590.2,852.5,603.63,861.3,607.56,864.92Z"/><path class="cls-3" d="M582.07,838.94c16.7,3.31,24.25,7,38.61,16.12.2.13.43-.17.23-.31-13.38-10-21.71-15-38.7-16.24C581.44,838.46,581.31,838.78,582.07,838.94Z"/><path class="cls-3" d="M591.63,824.3c16,4.26,24.47,8,37.38,18.4.3.24.68-.13.39-.4-12.16-11.8-22.67-16.48-37.61-18.44C590.77,823.73,590.62,824,591.63,824.3Z"/><path class="cls-4" d="M671.86,760.05c-9.49,3.41-27.92-9.59-35.9-20.92-.54-.78-.26-9.65-.44-20.44-.12-6.55-.42-13.85-1.18-20.48l42.76,5.39S674.58,718,676,729.52a14.34,14.34,0,0,0,.59,2.69c0,.13.08.27.11.45C678.1,737.73,681,756.75,671.86,760.05Z"/><path class="cls-3" d="M676.68,732.65a5.43,5.43,0,0,1,.22.94c-25.59-1.09-35.32-12.34-41.63-23.14-.19-4.11-.46-8.28-.93-12.24l42.76,5.38S674.57,718,676,729.53a14,14,0,0,0,.6,2.68C676.6,732.32,676.63,732.49,676.68,732.65Z"/><path class="cls-4" d="M616.82,653.37c-2.32,15.35,11.69,56.64,23.53,64.56,17.16,11.48,42.15,9.14,51.12-10.78,8.7-19.31-10.51-72.8-23.44-79.68C649,617.34,620.24,630.7,616.82,653.37Z"/><path class="cls-3" d="M656.35,671.94c-.06-.1-.18.21-.13.32,1,2.76,1.72,6.08-.49,7.85-.07,0,0,.19.07.15C658.73,678.8,657.75,674.39,656.35,671.94Z"/><path class="cls-3" d="M652.89,669.86c-4.59,1.16-1.95,10.26,2.31,9.19S656.74,668.9,652.89,669.86Z"/><path class="cls-3" d="M673.5,666.78c0-.12.26.07.29.18.73,2.85,2.05,6,4.87,6.18.09,0,.12.15,0,.16C675.45,673.77,673.74,669.59,673.5,666.78Z"/><path class="cls-3" d="M675.16,663.1c4.44-1.66,7.44,7.33,3.33,8.87S671.45,664.49,675.16,663.1Z"/><path class="cls-3" d="M648.09,666.75c1.15-.68,2.09-1.49,3.16-2.27s2.26-1.46,2.79-2.93a2,2,0,0,0-1-2.24c-1.72-.81-3.46-.09-5,.91a7.25,7.25,0,0,0-3.15,4.21C644.39,666.24,646.57,667.63,648.09,666.75Z"/><path class="cls-3" d="M677.35,657.49a38.88,38.88,0,0,1-3.89.12c-1.49,0-2.68.2-4-.65a2,2,0,0,1-.57-2.38c.87-1.68,2.69-2.17,4.49-2.28a7.32,7.32,0,0,1,5.06,1.44C680,654.84,679.09,657.28,677.35,657.49Z"/><path class="cls-3" d="M662.87,698.08c.87.47,1.81,1.18,2.86,1a7.82,7.82,0,0,0,2.82-1.59.11.11,0,0,1,.17.11,4,4,0,0,1-3.14,2.57,3.12,3.12,0,0,1-2.94-1.85C662.55,698.14,662.75,698,662.87,698.08Z"/><path class="cls-3" d="M663.38,688.78a10,10,0,0,0,7.65,2.41,12.89,12.89,0,0,0,3.5-.85,3.08,3.08,0,0,0,.64-.27,6.07,6.07,0,0,0,.59-.27.73.73,0,0,0,.38-.8v0a2.33,2.33,0,0,0-.11-.28v0l-.08-.25c-.57-2.19-1.74-5.43-1.74-5.43.91.17,5.48.81,5.09-.3-3.3-9.23-7-19.49-12.18-28a.28.28,0,0,0-.5.23c2.82,9,7.19,17.43,10.16,26.41-1.43-.11-3.8-.41-4.93-.05-.28.18,2.38,6.22,2.56,7.22a.5.5,0,0,1,0,.11c-3.51,1.53-6.58,1.23-10.84-.19C663.31,688.35,663.15,688.6,663.38,688.78Z"/><path class="cls-3" d="M621.33,682.46c2.42-2,5.48-12.14,6.9-16.33,1.47-4.36-2.9-22-4.33-27.28a28.94,28.94,0,0,0-7.06,14.68C615.81,659.92,617.8,671.26,621.33,682.46Z"/><path class="cls-3" d="M661.74,643.93a14.14,14.14,0,0,1-11.08,8.17c-4.75.57-10.16-1.27-13-5.2a.11.11,0,1,0-.18.13c3.09,4.2,8,7,13.35,6.21a14.53,14.53,0,0,0,11.28-9.17A.17.17,0,0,0,661.74,643.93Z"/><path class="cls-3" d="M638,614.43c-7.82,2.44-13.8,8.87-15.14,15.06a15.85,15.85,0,0,0,1.38,10.36c.06.13.33,0,.28-.11a17.42,17.42,0,0,1,3.54-17.4,22.45,22.45,0,0,1,18.42-7.77,14.22,14.22,0,0,1,9,3.77c.24.25.77-.11.56-.36C652.56,613.67,645.12,612.22,638,614.43Z"/><path class="cls-3" d="M688.68,618.35a18.09,18.09,0,0,0-10.09-7.21c-5.69-1.6-11,.41-16.28,2.52a.12.12,0,1,0,.08.22c4.49-1.78,9.14-3.32,14-2.37a17.78,17.78,0,0,1,10.28,6,17.3,17.3,0,0,1-.95,22.64,17.57,17.57,0,0,1-12.94,5.19c-.19,0-.24.28,0,.3,8.8.51,17.16-5.83,18.56-14.63A18,18,0,0,0,688.68,618.35Z"/><path class="cls-3" d="M616.73,662.16s-11.48-12-7.53-21.92c2.24-5.63,14.18-8.34,14.18-8.34s1.88-7.84,11-12.83,22.55-2.59,22.55-2.59,7.84-8,18-5.46c14.19,3.53,17.92,22.57,7.31,32-7.45,6.64-21.33,2.31-21.33,2.31-1.08.47-10.66,10.69-22.3,2.86,0,0-5.31,8.31-12.93,5.68C625.69,653.89,624.27,661.2,616.73,662.16Z"/><path class="cls-4" d="M631,686.61s-11.86-12.07-17.49-7.62,4.89,23.08,12.63,24.57a7.51,7.51,0,0,0,9.26-5.65Z"/><path class="cls-3" d="M616.64,684.26a.1.1,0,0,0,0,.2c5.46,1.21,8.94,5.5,11.65,10.09-1.84-1.63-4.08-2.32-6.31-.09-.11.12,0,.31.19.25a4.62,4.62,0,0,1,5.28.75,22,22,0,0,1,3.08,3.65c.32.42,1.1,0,.84-.46l-.06-.11C630.33,692,623.74,683.74,616.64,684.26Z"/><path class="cls-1" d="M676.55,731.75l-9.1,25.16-31.82-30-8.3,10.34s31.85,48.42,32,46.18l9.35-21.64L683.87,776l-2.6-37.07Z"/><path class="cls-3" d="M683.62,757.59c-.63-6.11-1.1-12.28-2-18.35,0-.21-.38-.3-.42,0-1,6,1.55,29.3,1.74,34.91l-.07-.06c-.63-.62-14.09-12.49-14.21-12.29-2.08,3.46-8.94,19.22-9.4,20.64-5-7.69-24.29-35.62-30.18-42.85a.21.21,0,0,0-.36.23c4.5,8.15,30,45.78,30.37,45.65.26.19,8.8-19.23,9.77-22.87,2.3,2.61,15.93,16.07,15.94,15.16A190.71,190.71,0,0,0,683.62,757.59Z"/><rect class="cls-5" x="150.38" y="449.24" width="323.75" height="334.26"/><path class="cls-6" d="M71.45,549.05V721H243.34V549.05ZM84.43,708V562H230.36V708Z"/><path class="cls-3" d="M363.94,543.26c8.52-2,30.59,3.75,38.11,15s7.2,29.75,3.44,31.61-20.05.72-31.31-5.27S359.75,544.26,363.94,543.26Z"/><path class="cls-3" d="M363.92,543.31c-.29,0-.33-.53,0-.54,7.47-.3,15.53,2.1,22.68,4,5.78,1.57,11.71,3.45,16.42,7.29a20.09,20.09,0,0,1,7.53,15c.34,6.59-.48,14.58-3.63,20.47-.09.18-.42.13-.36-.09,3.25-12.52,6-27.78-6.48-36.08C389.46,546.38,376,545.75,363.92,543.31Z"/><path class="cls-3" d="M404.2,586.68c7.49.85,27.13,14.77,30.6,28.94s-7.73,35.34-11.37,36.92-20.36-11.8-25.9-21.71c-3.7-6.64-1-14.48.54-22.25C400.3,597.1,403,586.55,404.2,586.68Z"/><path class="cls-3" d="M393,629.11c-2.44-14.45,5.54-28.91,10.28-42.07a.13.13,0,0,1,.25.07c-2.54,12.59-9.92,24-9.93,37.1,0,7.79,2.82,15.39,9.32,20.07,5.62,4.06,12.64,5.84,19.12,8,.43.14.16.77-.26.64C408.87,649,395.54,644,393,629.11Z"/><path class="cls-3" d="M405.84,588c-.38-.18-.14-.78.24-.6,10.71,4.86,23.62,12,29.47,22.69,6.34,11.56.35,23.86-5,34.47-.07.13-.28.05-.22-.09,5.25-10.76,10.76-24.11,3.58-35.36C427.76,599.43,415.93,592.76,405.84,588Z"/><path class="cls-3" d="M422.57,652.17c-4.7,3.07-11.08,12.3-11.73,22.44-1.1,17.35-7.87,14.64-26,21.06-15.36,5.43-16.92,23.4-7.64,31.25,0,0-6-10.37,4.1-16.77,12-7.65,42.4,2.74,55-16.65C452.66,668.42,422.57,652.17,422.57,652.17Z"/><path class="cls-3" d="M416.68,660.74c.18-.26-.25-.58-.45-.33a25.17,25.17,0,0,0-4.37,7.94c-1.23,3.77-.91,7.68-1.87,11.5-2.44,9.7-13.77,10.52-21.9,11.93-10.9,1.9-19.06,9.5-18.56,21.13,0,.17.26.16.26,0a19.66,19.66,0,0,1,10-17.76c6.14-3.36,13.53-2.67,20-4.95,4.45-1.56,8.79-4,10.45-8.62.91-2.54.9-5.37,1.25-8A27.32,27.32,0,0,1,416.68,660.74Z"/><path class="cls-3" d="M425.67,653.94c-.11-.07-.24.11-.14.19,6.84,5.51,14.06,11,16.76,19.81,2.9,9.46-1.1,19.65-8.1,26.25-7.84,7.4-17.28,5.2-27,4.31-7-.64-14.1-.74-20.61,2.29-.2.09-.05.42.16.35,10.6-3.62,20.87-1.39,31.72-.75,8.86.52,15.41-3.2,20.33-10.54C449.69,679.67,440.38,663.38,425.67,653.94Z"/><path class="cls-5" d="M370.37,535.33c2.32-3.05,7,.63,4.69,3.68S368,538.39,370.37,535.33Z"/><path class="cls-5" d="M368.14,540.41c2.32-3,7,.62,4.68,3.68S365.81,543.47,368.14,540.41Z"/><path class="cls-5" d="M365,545.07c2.33-3.05,7,.62,4.69,3.68S362.7,548.12,365,545.07Z"/><path class="cls-5" d="M361.44,549.16c2.33-3,7,.63,4.69,3.68S359.11,552.22,361.44,549.16Z"/><path class="cls-5" d="M357.11,552.66c2.33-3.06,7,.62,4.69,3.67S354.78,555.71,357.11,552.66Z"/><path class="cls-5" d="M352.4,555.22c2.33-3.05,7,.62,4.69,3.68S350.07,558.27,352.4,555.22Z"/><path class="cls-7" d="M347.92,610.53C335,626.37,266.15,676.32,208,675.39c-19.76-.31-74.65-84.63-84.79-116.69-7.28-23,41.61-34.65,55.42-31.32,17.23,4.15,50.84,76.47,57.48,76.93,19.74,1.38,53.66-10.52,95.3-14.73C352.8,587.41,357.84,598.33,347.92,610.53Z"/><path class="cls-7" d="M125.11,564c-3.67-8-20.93-52.53-22.33-64s-3-44.74,5.64-46.7,9.92,7.74,9.92,7.74,1.54-14.17,10.45-15.35,10.37,14,10.37,14,2.63-14.44,11.6-15,7.89,14.95,7.89,14.95,1.79-13.3,9.37-10.64c9.11,3.2,3,27.36,5.53,39.9.56,2.85,15.59,56.9,15.59,56.9Z"/><path class="cls-3" d="M158.71,458.31c-4.43,17.78-3.29,26.32,2.36,43.45.11.33-.36.57-.51.23-7.06-16.27-10-26.77-2.7-43.94C158.22,457.21,158.92,457.47,158.71,458.31Z"/><path class="cls-3" d="M139.53,458.26c-3,18.86-1.83,28.14,2.77,46.51.06.26-.37.4-.46.14-6-17.64-8.74-28.2-3.28-46.65C138.8,457.42,139.67,457.4,139.53,458.26Z"/><path class="cls-3" d="M118.61,462c-1.58,18.48-.75,28.7,6,46a.34.34,0,0,1-.62.29c-8.6-16.93-9.72-29.68-5.95-46.23C118.3,460.84,118.71,460.79,118.61,462Z"/><path class="cls-7" d="M201.31,554.18s2.55-22.81,1.46-33.08-19.24-47-27.41-43.57c-10.54,4.48-4.24,27.77.33,38.78,0,0-24.39,10.34-23.49,28S201.31,554.18,201.31,554.18Z"/><path class="cls-3" d="M172.87,479.71c-6.67,11,.27,25.08,3.91,36.09a1.06,1.06,0,0,1-1,1.44c-9.94,5-22.49,15-24.14,26.61a.27.27,0,0,1-.53,0c.07-12.71,11.6-23.51,22.84-28.31-3.91-11.23-10.25-25.63-1.2-35.86C172.82,479.59,172.91,479.64,172.87,479.71Z"/><path class="cls-1" d="M265.55,598.72l24,55.53s36.29-17.25,58.34-39.58-2.45-29.78-23.82-26.53S265.55,598.72,265.55,598.72Z"/><path class="cls-8" d="M347.89,614.69c-22.06,22.31-58.34,39.57-58.34,39.57l-7.3-16.88L355.33,595C358,599.46,356.53,605.93,347.89,614.69Z"/><path class="cls-3" d="M298.61,646.46c-11.84-22.27-18.84-43.38-20.73-47.66-.09-.2.25-.33.33-.12,1.63,4.3,13,27.88,20.76,47.66C299.06,646.56,298.72,646.68,298.61,646.46Z"/><path class="cls-1" d="M292.92,708.36l-9.84,75.14H440.33S419.53,642.61,386,599.34c-16.8-21.64-39.31-21.08-55.21-4.53-3.47,3.61-38.62,53.79-44.8,74.51C280.53,687.61,292.92,708.36,292.92,708.36Z"/><path class="cls-3" d="M338.7,602.32,328.77,629q-4.92,13.32-9.44,26.76c-2.8,9-6.17,18-4.83,27.17a69.16,69.16,0,0,0,8.92,26.18l.22.38-.05.39c-1.36,11.94-3,23.85-4.44,35.78s-3.13,23.84-4.81,35.74q1.5-18,3.25-35.91c1.22-12,2.3-23.94,3.63-35.88l.17.76a71.47,71.47,0,0,1-9.59-27.15,38.78,38.78,0,0,1,1-14.55c1.2-4.65,2.66-9.19,4.2-13.69,3-9,6.63-17.8,10.22-26.58S334.7,610.92,338.7,602.32Z"/><path class="cls-3" d="M316.75,637a2.34,2.34,0,0,0,1.73,2.71,2.13,2.13,0,0,0,2.45-1.9,2.33,2.33,0,0,0-1.73-2.71A2.15,2.15,0,0,0,316.75,637Z"/><path class="cls-3" d="M307.23,663a2.33,2.33,0,0,0,1.72,2.71,2.14,2.14,0,0,0,2.45-1.9,2.33,2.33,0,0,0-1.73-2.71A2.13,2.13,0,0,0,307.23,663Z"/><path class="cls-3" d="M306,689.43a2.35,2.35,0,0,0,1.73,2.71,2.14,2.14,0,0,0,2.45-1.91,2.34,2.34,0,0,0-1.73-2.71A2.15,2.15,0,0,0,306,689.43Z"/><path class="cls-3" d="M313.38,711.33A2.34,2.34,0,0,0,315.1,714a2.14,2.14,0,0,0,2.45-1.9,2.34,2.34,0,0,0-1.73-2.72A2.14,2.14,0,0,0,313.38,711.33Z"/><path class="cls-3" d="M310.52,735.23a2.34,2.34,0,0,0,1.73,2.72,2.14,2.14,0,0,0,2.44-1.91,2.34,2.34,0,0,0-1.73-2.71A2.13,2.13,0,0,0,310.52,735.23Z"/><path class="cls-3" d="M307.91,758.84a2.34,2.34,0,0,0,1.73,2.71,2.14,2.14,0,0,0,2.45-1.9,2.33,2.33,0,0,0-1.73-2.71A2.14,2.14,0,0,0,307.91,758.84Z"/><path class="cls-7" d="M339.42,865.82c7.91,5.38,21.25-18.33,25.79-23.41s6.49-4.93,6.23-1l10.31-41c-5.34,4.15-16.69,13.08-22.72,18.94C351,827.19,331.49,860.44,339.42,865.82Z"/><path class="cls-7" d="M398.71,605.36c33.6,27.08,75.94,74.73,84.57,105.52,6.66,23.77-26.76,106.34-36.73,125.61-4.34,8.39-61.86-17.17-64.39-27s37.56-80.9,38-88.45S394.3,663.69,376.42,630C354.76,589.17,370.15,582.33,398.71,605.36Z"/><path class="cls-7" d="M345.07,889.32c5.29,5.77,16-1.21,16-1.21s-9.53,11.78-2.07,16.36S376.65,899,376.65,899s-8.17,11.31-.41,15.33,17.81-4.76,17.81-4.76-.54,4.35,6.23,4.71c9.7.57,23.56-15.19,28.86-25.12s17.33-50.26,19.06-56.46l-63.51-34.53-2.94,2.25-10.31,41c-.17,2.55-7.44,18.27-10.07,22.78C355.4,874.36,339.12,882.85,345.07,889.32Z"/><path class="cls-3" d="M361.41,887.53c14.24-10.79,18.6-18,24.79-34.43.12-.32.62-.22.53.13-4.59,16.67-8.76,26.47-24.83,35C361.11,888.67,360.73,888,361.41,887.53Z"/><path class="cls-3" d="M375.94,899.3c13.81-12.49,18.61-20.24,26.36-37,.11-.23.52-.07.43.18-6.22,17.08-10.61,26.76-26.05,37.43C376,900.39,375.31,899.88,375.94,899.3Z"/><path class="cls-3" d="M394.09,909.3c12.5-13.06,18.13-21.33,23.56-38.57a.33.33,0,0,1,.64.16c-3.82,18.12-10.77,28.49-23.76,38.75C393.64,910.34,393.31,910.12,394.09,909.3Z"/><path class="cls-1" d="M392.41,679.49l48.48-36.19s-25.18-31.31-52-47.6S360.47,605,368.57,625,392.41,679.49,392.41,679.49Z"/><path class="cls-3" d="M431.21,636.28c-18.93,16.67-37.85,28.36-41.58,31.2-.17.13-.37-.17-.18-.3C393.25,664.6,413.55,648,431,636,431.2,635.82,431.39,636.12,431.21,636.28Z"/><path class="cls-3" d="M383.88,659c-3-6.63-7-16.27-10.33-22.71a.09.09,0,0,0-.16.07c1.31,3.76,2.81,7.5,4.37,11.21-.13-.19-.24-.39-.37-.58-1.22-1.73-2.46-3.43-3.8-5.07,0-.06-.13,0-.1.08,1,1.88,2.12,3.72,3.31,5.5.74,1.11,1.53,2.18,2.32,3.26.84,1.95,2.8,6.79,3.65,8.73,1.42,3.25,8.41,21.63,8.71,21.44a59.71,59.71,0,0,0,4.87-3.66c.24-.2-.13-.63-.36-.44-.87.73-3.06,2.2-3.42,2.47-1.58-3.32-2.88-6.83-4.32-10.22S385.37,662.3,383.88,659Z"/><path class="cls-7" d="M363.47,588.92c-.81,2.79-15.27,20.42-28.16,19.13-4.19-.43-2.88-23.43-2.88-23.43l-.29-1.72-4.05-24.09L357,542.36l4.17-2.16s.68,6.66,1.43,15c0,.38.08.77.11,1.18s.12.91.15,1.35c.13,1.24.25,2.51.35,3.77.08,1,.17,1.89.21,2.91s.13,2,.2,3C364.12,577.41,363.8,587.74,363.47,588.92Z"/><path class="cls-3" d="M362.59,555.17a49,49,0,0,1-30.45,27.73l-4.05-24.09L357,542.36l4.17-2.16S361.84,546.86,362.59,555.17Z"/><path class="cls-7" d="M297.91,516.4c-8.71,42,15.44,51.93,24.5,53.79,8.21,1.7,36.41,6.43,49.4-34.41s-3.76-58.16-22.34-63S306.62,474.44,297.91,516.4Z"/><path class="cls-3" d="M312.07,506.52a29.18,29.18,0,0,0,3-.12,4.79,4.79,0,0,0,3-.7,1.52,1.52,0,0,0,.31-1.83,3.75,3.75,0,0,0-3.53-1.49,5.51,5.51,0,0,0-3.76,1.35A1.63,1.63,0,0,0,312.07,506.52Z"/><path class="cls-3" d="M340.93,513c-1-.29-1.82-.71-2.76-1.09a4.78,4.78,0,0,1-2.59-1.64,1.52,1.52,0,0,1,.31-1.84,3.8,3.8,0,0,1,3.82-.25,5.56,5.56,0,0,1,3.11,2.52A1.63,1.63,0,0,1,340.93,513Z"/><path class="cls-3" d="M333.5,522c0-.1.2.18.17.3-.64,2.84-.9,6.21,1.51,7.67.07,0,0,.18-.06.15C332,529.1,332.43,524.63,333.5,522Z"/><path class="cls-3" d="M336.63,519.53c4.68.54,3.26,9.86-1.08,9.36S332.71,519.08,336.63,519.53Z"/><path class="cls-3" d="M338.39,520.3c.73.66,1.39,1.71,2.35,2,1.12.29,2.12-.55,3-1.38.09-.08.16,0,.14.13-.24,1.79-1.21,3.52-3.16,3.49-1.79,0-2.8-1.79-3-3.66C337.73,520.49,338.09,520,338.39,520.3Z"/><path class="cls-3" d="M315.87,518c0-.12-.25.1-.26.22-.33,2.9-1.19,6.17-3.95,6.75-.08,0-.09.16,0,.16C314.92,525.15,316,520.8,315.87,518Z"/><path class="cls-3" d="M313.72,514.61c-4.59-1-6.3,8.23-2.05,9.18S317.57,515.47,313.72,514.61Z"/><path class="cls-3" d="M311.68,514.86c-.82.35-1.71,1.11-2.6,1s-1.59-1.26-2.06-2.34c0-.12-.13,0-.16.07-.38,1.76-.13,3.71,1.51,4.37s2.91-.71,3.66-2.4C312.17,515.26,312,514.72,311.68,514.86Z"/><path class="cls-3" d="M327,544c-.77.61-1.56,1.47-2.63,1.45a7.86,7.86,0,0,1-3-1.07c-.08,0-.19,0-.14.14a4,4,0,0,0,3.52,2,3.11,3.11,0,0,0,2.55-2.32C327.28,544,327.06,543.92,327,544Z"/><path class="cls-3" d="M316.63,531.61s-1.31,4.2-1.64,6.23c0,.19.44.36,1.12.52,0,0,.05,0,.08,0a9.78,9.78,0,0,0,10-2c.18-.18,0-.43-.25-.34-3,1.53-6,1.55-9.22,1.08-.06-.59,2.47-7.13,2.15-7.2-1.09-.28-3.4.11-4.78.28,2.46-8.83,6.32-17.2,8.64-26a.28.28,0,0,0-.51-.22c-4.66,8.48-7.72,18.58-10.49,27.64C311.33,532.66,315.76,531.82,316.63,531.61Z"/><path class="cls-3" d="M329.86,478.05s-2.29,6.22-.53,11c3.62,9.91,15.28,8.5,18.83,12.62,3.32,3.86,1.35,11,4.33,14.85,4.12,5.3,10.54,4,11,7.36s1.63,14,5.67,15.7,29.82-65.78-24.95-68.81c0,0-7.2-3.77-19.37,1-13.44,5.23-21,25.78-21,25.78s.3-.26,2.32-1.73c2.85-2.07,4.08-4.12,6.15-5.44,3.26-2.08,4.84-1,8.21-3C325.61,484.32,329.86,478.05,329.86,478.05Z"/><path class="cls-3" d="M331,475.12a36.4,36.4,0,0,0-2.39,8.19,15.24,15.24,0,0,0,.39,8.22,11.37,11.37,0,0,0,5.79,5.47c2.51,1.2,5.34,1.74,8,3.13a8.51,8.51,0,0,1,3.39,3.09,11.33,11.33,0,0,1,1.21,4.35c.31,2.85.64,5.67,2.3,7.84a9.51,9.51,0,0,0,7,3.77c2.74.27,5.86-.21,8.42,1.25-2.67-1.25-5.57-.54-8.46-.59a10.32,10.32,0,0,1-7.8-3.79c-2-2.36-2.35-5.57-2.71-8.32a10.38,10.38,0,0,0-1.1-3.86,7.28,7.28,0,0,0-2.92-2.55c-2.4-1.3-5.27-1.91-7.92-3.21a15.1,15.1,0,0,1-3.69-2.5A8.93,8.93,0,0,1,328,491.9a16.15,16.15,0,0,1-.07-8.72A37.29,37.29,0,0,1,331,475.12Z"/><path class="cls-3" d="M329.7,477.5a30.18,30.18,0,0,1-3.37,7.27,14,14,0,0,1-6,5.49,20,20,0,0,1-3.92,1.1,6.47,6.47,0,0,0-3.13,1.7,20.62,20.62,0,0,1-2.68,3,8.93,8.93,0,0,1-3.66,1.69,9.76,9.76,0,0,0,3.21-2.18,21,21,0,0,0,2.32-3.16,6.92,6.92,0,0,1,3.61-2.26,21.13,21.13,0,0,0,3.7-1.11,14.87,14.87,0,0,0,5.7-4.89A58.7,58.7,0,0,0,329.7,477.5Z"/><path class="cls-7" d="M360.58,533.62s11.25-11.83,16.75-7.62-4.36,22.33-11.81,23.88a7.24,7.24,0,0,1-9-5.31Z"/><path class="cls-3" d="M374.38,531.13c.11,0,.11.17,0,.19-5.25,1.25-8.55,5.44-11.09,9.91,1.75-1.6,3.9-2.3,6.08-.18.12.11,0,.29-.17.24a4.46,4.46,0,0,0-5.08.8,20.88,20.88,0,0,0-2.92,3.57c-.3.41-1.06.05-.82-.43l.06-.11C361.28,538.8,367.52,530.73,374.38,531.13Z"/><path class="cls-1" d="M332.11,586.5,338.18,606l25.46-22,6,8.23s-26.08,36.17-26.09,34.44l-6.48-16.94-12.17,10.44,3.21-28.42Z"/><path class="cls-3" d="M325.73,606c.69-4.67,1.25-9.4,2.16-14,0-.17.3-.22.32,0,.58,4.61-2.15,22.47-2.48,26.78l0,0c.51-.45,11.25-9.14,11.33-9,1.48,2.73,6.25,15.07,6.55,16.18,4.13-5.75,19.85-26.58,24.61-31.95a.17.17,0,0,1,.27.19c-3.73,6.12-24.57,34.2-24.85,34.1a186.59,186.59,0,0,1-6.76-17.91c-1.85,1.94-12.78,11.84-12.75,11.13A148.11,148.11,0,0,1,325.73,606Z"/><rect class="cls-9" x="496" y="229.81" width="355.07" height="355.07"/><path class="cls-3" d="M647.39,139.83V379H886.61V139.83ZM873.63,366.06H660.37V152.81H873.63Z"/><path class="cls-3" d="M613.42,440.79c1.53.1,8.71.59,19.21,1.34,4-6.53,8.84-18.19,7.75-35.05-.2-2.79,5.64,13.46,2,35.73,20.28,1.42,47.88,3.33,72,4.77.9-9.4,2.16-18.08,2.16-18.08a103.86,103.86,0,0,0,3.09,18.41c3.29.23,6.53.38,9.63.56,0-14.66,3.62-40,3.62-40A128.75,128.75,0,0,0,743,449.21c15.32.76,25.42,1,24.8.22-22-27.64-4.29-42.17-9.81-65.88-6.63-28.41-30.61-34-28.93-55,1.33-17.12,4.88-48.12-16.47-55.76,0,0-16.73-20.1-44.87-10.74-34.82,11.54-23.69,65-26.52,75.67-4,15.21-11.58,20.28-17.84,37.55-6.38,17.47,1.15,29.61,1.52,41.67S609.57,440.58,613.42,440.79Z"/><path class="cls-3" d="M768.64,445.67a60,60,0,0,1-6.75-15.35c-1.52-5.31-.51-10.62.8-16.1a168.61,168.61,0,0,0,3.59-16.8,44.85,44.85,0,0,0-.88-17.73,39.27,39.27,0,0,0-8.54-15.62,104.24,104.24,0,0,0-12.65-11.78c-4.27-3.67-8.54-7.28-11.66-11.83a30.94,30.94,0,0,1-5.44-15.61,28.87,28.87,0,0,0,3.69,16.7c2.88,5.13,7,9.34,11.17,13.24s8.28,7.69,11.71,11.93a37.39,37.39,0,0,1,7.38,14.13,44,44,0,0,1,.87,16c-.56,5.47-1.84,10.93-2.84,16.59a57.61,57.61,0,0,0-1,8.71,25.39,25.39,0,0,0,1.54,8.8A48.74,48.74,0,0,0,768.64,445.67Z"/><path class="cls-3" d="M647.45,280.82c-3,6.38-4.28,13.38-5.59,20.24s-2,13.87-2.81,20.8l-1.22,10.35a52,52,0,0,1-2,9.84c-2,6.34-5.84,11.78-10.16,17.29a80.85,80.85,0,0,0-6,8.89,49.06,49.06,0,0,0-4.27,10.07,72.45,72.45,0,0,0-2,10.62,44.85,44.85,0,0,0,.1,10.86c.46,3.6,1.31,7,2,10.37a52.77,52.77,0,0,1,1.15,10.13c.2,6.7-3.63,13.19-9.22,17.31a21.78,21.78,0,0,0,11.39-17.22,53,53,0,0,0-.41-10.69c-.45-3.53-1.17-6.92-1.4-10.26a55.5,55.5,0,0,1,2.5-19.88,48.91,48.91,0,0,1,4-9.1,75.26,75.26,0,0,1,5.78-8.36,103.63,103.63,0,0,0,6.12-8.75,43,43,0,0,0,4.52-10,56.61,56.61,0,0,0,1.87-10.67c.35-3.51.58-7,.79-10.48.47-7,.83-13.91,1.48-20.82A101.5,101.5,0,0,1,647.45,280.82Z"/><path class="cls-5" d="M815,575.15c-.06-.42-.14-.82-.22-1.24.1.52.2,1,.26,1.54C815,575.35,815,575.25,815,575.15Z"/><path class="cls-5" d="M746.26,587.31c.22.13.46.25.71.37l.1-.18,0,0-.73-.16Z"/><path class="cls-10" d="M648.08,395.2C605,443.73,552.72,543.8,564.42,562.93c13,21.3,75.27-47.8,73.13-50.93-1.82-2.66,18.41-62.52,33.1-106.29S658.75,383.2,648.08,395.2Z"/><path class="cls-2" d="M648.08,395.2C605,443.73,552.72,543.8,564.42,562.93c13,21.3,75.27-47.8,73.13-50.93-1.82-2.66,18.41-62.52,33.1-106.29S658.75,383.2,648.08,395.2Z"/><path class="cls-1" d="M653.89,455.92c-4.21,12.77-8.07,24.75-11,34.32-6.67.3-26.17-.78-46.43-20.24,6.09-10.81,12.69-21.65,19.48-32C621,443.35,633.4,453.81,653.89,455.92Z"/><path class="cls-2" d="M606.47,585.06l10.83-73.41s-17.36-30.31-7.29-52.07c5.09-11,40-64.88,58.74-78.51,17.62-12.79,41.75-1.12,50,10,23.61,32,35.11,89.56,48.29,194Z"/><path class="cls-3" d="M638.07,414.92c-3.57,4.89-7,9.85-10.43,14.86q1.4-2.92,2.78-5.85c.06-.14-.14-.26-.22-.12-1.26,2.45-2.43,4.93-3.56,7.43q-6.82,10.1-13.22,20.47a53.32,53.32,0,0,0-4.68,9.15,41.24,41.24,0,0,0-2.3,9.74,51.31,51.31,0,0,0-.16,10,68.64,68.64,0,0,0,1.45,10.2,64.78,64.78,0,0,0,3.59,11.13c.75,1.76,1.56,3.51,2.42,5.21s2.41,4.73,2.39,4.85c-.33,1.76-.66,3-.88,4.47s-.45,3-.68,4.52c-.45,3-4.37,32.33-4.81,35.34-.87,6-1.63,12-2.37,18-.43,3.45-.66,6.92-1.14,10.36,0,.14.19.19.21.05.5-3,1.24-6,1.79-8.93s1.09-6,1.65-9c1.14-6,5.49-38.43,6.44-44.5l.78-5a32.14,32.14,0,0,0,.64-5.6s-5.37-11-7.46-18.79a65.67,65.67,0,0,1-2.13-10A52.2,52.2,0,0,1,608,473a43.19,43.19,0,0,1,1.91-9.74,49.55,49.55,0,0,1,4.22-9.26c3.51-6.24,7.24-12.36,11-18.43,4.29-6.89,8.62-13.75,13.06-20.54C638.33,414.9,638.14,414.81,638.07,414.92Z"/><path class="cls-10" d="M564.42,562.93c11,14.12,39.06,15.47,109.36,25.48,9.73,1.38,38-64.64,27.66-66.65-13-2.54-63.94-9.56-67.74-9.61C601.73,511.79,557,553.35,564.42,562.93Z"/><path class="cls-10" d="M687.35,519.31s29.72,2.92,44.85,9.29c20.27,8.52,34.26,24.23,39.72,31.16,11.41,14.48,29,57.37,17.51,64.59-10.38,6.53-26.13-38.22-26.13-38.22s23.59,43,9.64,48.54-29.27-47.42-29.27-47.42,23.24,44.7,8,48.17c-11.56,2.61-28.14-44.59-28.14-44.59s19.71,38.55,7.94,41.76c-13,3.54-31-39.07-31-39.07-31.29,3.11-47.46-8.21-58-17.63C639.83,573.61,687.35,519.31,687.35,519.31Z"/><path class="cls-3" d="M756.1,570.74c2.95,5,6,9.94,8.48,15.13s4.82,10.48,6.83,15.88c4.93,13.26,5.94,22.33,5.82,21.77-2.93-13.08-11.6-31.81-14.1-37s-4.74-10.49-7.23-15.68C755.83,570.7,756,570.63,756.1,570.74Z"/><path class="cls-3" d="M737.18,579.44c3.5,6.48,7.21,12.79,10.42,19.43s5.65,13.15,8.38,20c.21.53-.14.47-.37-.05-3-6.69-6.29-12.65-9.38-19.3s-5.9-13.44-9.21-20C737,579.41,737.13,579.34,737.18,579.44Z"/><path class="cls-3" d="M719.6,584c5.86,9.63,9.92,20.33,13.66,30.92.19.52-.26.4-.48-.13-4.34-10.37-7.68-18.53-13.51-30.59C719.18,584,719.48,583.78,719.6,584Z"/><path class="cls-2" d="M709.81,519.82l-57.88,68.1s-79.06-5.5-88.16-26.32,51.09-51.18,69.84-49.55S709.81,519.82,709.81,519.82Z"/><path class="cls-3" d="M603.15,521.07c4.55-3.11,17.45-10.48,30.46-9a.12.12,0,0,1,0,.23c-10.66.32-25.69,6.33-30.34,9A.11.11,0,0,1,603.15,521.07Z"/><path class="cls-3" d="M639.69,576.15c22.75-24.09,43-52.86,46.88-57.62.19-.23-.2-.5-.37-.26-3.57,4.87-30.28,35.24-46.92,57.6C639.09,576.13,639.47,576.39,639.69,576.15Z"/><rect class="cls-5" x="550.97" y="450.89" width="128.23" height="98.5" transform="translate(2.03 1002.78) rotate(-78.46)"/><rect class="cls-1" x="604.88" y="430.82" width="46.68" height="14.15" transform="translate(100.9 -117.4) rotate(11.6)"/><polygon class="cls-1" points="642.12 433.53 636.49 432.37 637.8 425.98 624.12 423.17 622.8 429.56 617.17 428.41 619.56 416.76 644.59 421.9 642.12 433.53"/><path class="cls-10" d="M730.28,406.28c46.48,59.15,64,165.41,38.22,173.69-23.58,7.57-120.54-16.69-149.42-26.5-8.48-2.88,17.72-68.84,26.79-65.77,11,3.71,70.94,17.92,72.1,17.95,2.49.05-10.84-65.37-16.55-95C693.45,369.34,712.82,384.06,730.28,406.28Z"/><path class="cls-10" d="M568.36,462.92c-4.91,5.57-.94,12.15-.94,12.15s-5.73,1.53-8.64,6.42c-3.34,5.6,4,13.29,4,13.29a19.52,19.52,0,0,0-8,8.23c-2.66,5.68,3.61,14.5,3.61,14.5s-3.69,5.36-2.51,11.68c2,10.81,17.65,16.94,27.55,20.94s41.71,6.08,47.73,7.09l26.22-63.3s-39.27-30.56-51.58-33.61C595.38,457.74,573.87,456.67,568.36,462.92Z"/><path class="cls-3" d="M568.28,474.23c11.68.09,22.69,3.63,33.88,6.53a.2.2,0,0,1-.1.39c-11.1-3-22.66-3.8-33.85-6.37A.28.28,0,0,1,568.28,474.23Z"/><path class="cls-3" d="M563.3,494a30.55,30.55,0,0,1,7.74,1.85q4,1.28,8,2.67c5.33,1.87,10.62,3.85,15.85,6,.23.09.14.47-.11.38-5.31-1.85-10.66-3.62-16-5.24-2.69-.82-5.4-1.61-8.11-2.38a36.83,36.83,0,0,1-7.55-2.53A.41.41,0,0,1,563.3,494Z"/><path class="cls-3" d="M558.56,517.58c2.3,0,4.76,1.25,6.88,2q3.62,1.35,7.25,2.66c4.84,1.75,9.68,3.49,14.58,5.07.24.08.14.47-.11.39-5-1.58-10-3.09-15-4.71q-3.66-1.2-7.31-2.43c-2.07-.7-4.73-1.34-6.43-2.78A.15.15,0,0,1,558.56,517.58Z"/><path class="cls-2" d="M717.1,503c.75-.45-13.18-63.6-17.85-96.55s10-29.78,31.22-1.61c22.68,30.17,63.07,111.85,49.08,172.33-4.53,19.59-144.85-7.85-144.85-7.85l18.91-80.64S715.94,503.66,717.1,503Z"/><path class="cls-1" d="M774.27,497c-22.88,6.72-47.7,3.31-57.82,1.4-1.47-7.92-5-25.1-8.64-43.66,24,2.66,40.36-.77,49.27-3.76A312.27,312.27,0,0,1,774.27,497Z"/><path class="cls-3" d="M653.07,561c8.53-28.08,13.24-58.89,14.44-64.2.06-.25-.35-.31-.4-.05-.9,5.27-10.1,39.89-14.48,64.18C652.58,561.21,653,561.27,653.07,561Z"/><path class="cls-3" d="M743.48,512.3c-2.71-.47-74.34-20.64-90-23.07-.24,0,0-.86.24-.81,48.13,8.49,87.68,21.36,90.71,22.56C748,512.42,748.52,513.17,743.48,512.3Z"/><path class="cls-3" d="M716.41,503.61c.05-.14-4.73-24.31-5.57-25.82s-2.75-5-3.51-6.66c-1.55-3.27-2.9-6.61-4.33-9.92-.12-.27.3-.48.41-.21,1.55,3.2,3.36,6.27,5.2,9.3.91,1.49,1.82,3,2.74,4.47.07.1-4.41-23.62-5-27.79,0-.31.29-.39.38-.14,1.35,4.2,10.74,51.72,12,57A19.73,19.73,0,0,1,716.41,503.61Z"/><path class="cls-3" d="M663.6,574.3c-4.68-1.29-23.42-4.32-28-5,.44-1.65,1.77-8.36,1.65-10.25,0-.18-.28-.29-.39-.13-1.06,1.57-2.89,9.82-3.43,11.77-.11.36,25.25,3.55,30.11,3.81A.11.11,0,0,0,663.6,574.3Z"/><path class="cls-10" d="M657.32,386.94s1.89,18.56,17.27,21.45,44.12-17.32,44.12-17.32-11.54-15.53-32.4-15.58C666.25,375.44,657.32,386.94,657.32,386.94Z"/><path class="cls-10" d="M701.49,381.75c-.82,2.79-15.35,20.36-28.23,19-4.2-.45-2.79-23.45-2.79-23.45l-.28-1.72-4-24.09,29-16.34,4.17-2.14s.65,6.66,1.38,15c0,.38.07.77.1,1.18s.11.91.14,1.35c.12,1.24.25,2.51.34,3.77.08,1,.16,1.9.2,2.91s.11,2,.18,3C702.18,370.24,701.82,380.57,701.49,381.75Z"/><path class="cls-3" d="M700.75,348a49,49,0,0,1-30.56,27.6l-4-24.09,29-16.34,4.17-2.14S700,339.69,700.75,348Z"/><path class="cls-10" d="M638.37,306.53c-11.27,41.35,12.22,52.77,21.14,55.19,8.1,2.2,36,8.66,51.44-31.31s-.18-58.28-18.43-64.28S649.65,265.17,638.37,306.53Z"/><path class="cls-3" d="M653.27,298.44a29.18,29.18,0,0,0,3,.08,4.8,4.8,0,0,0,3-.49,1.52,1.52,0,0,0,.43-1.81,3.77,3.77,0,0,0-3.41-1.73,5.56,5.56,0,0,0-3.85,1.09A1.63,1.63,0,0,0,653.27,298.44Z"/><path class="cls-3" d="M682.74,302.56a28.54,28.54,0,0,1-2.7-1.22,4.78,4.78,0,0,1-2.51-1.78,1.52,1.52,0,0,1,.41-1.81,3.78,3.78,0,0,1,3.83-.06,5.59,5.59,0,0,1,3,2.68A1.63,1.63,0,0,1,682.74,302.56Z"/><path class="cls-3" d="M673.29,315.78c.05-.1.19.19.15.31-.79,2.81-1.22,6.16,1.11,7.73.07.05,0,.19-.06.16C671.47,322.76,672.09,318.32,673.29,315.78Z"/><path class="cls-3" d="M676.55,313.45c4.64.78,2.74,10-1.56,9.28S672.66,312.8,676.55,313.45Z"/><path class="cls-3" d="M678.26,314.31c.7.69,1.3,1.77,2.25,2.07s2.15-.45,3.08-1.22c.09-.09.15,0,.13.13-.34,1.78-1.39,3.45-3.34,3.32-1.78-.11-2.7-1.93-2.77-3.8C677.59,314.46,678,314,678.26,314.31Z"/><path class="cls-3" d="M656.26,310.15c0-.12-.25.08-.27.2-.53,2.87-1.61,6.07-4.4,6.46-.08,0-.11.16,0,.17C654.83,317.21,656.22,313,656.26,310.15Z"/><path class="cls-3" d="M654.36,306.62c-4.51-1.34-6.86,7.78-2.68,9S658.14,307.74,654.36,306.62Z"/><path class="cls-3" d="M652.3,306.73c-.84.3-1.78,1-2.66.83s-1.5-1.37-1.89-2.48c0-.12-.14-.06-.17.06-.5,1.73-.39,3.7,1.2,4.46s3-.51,3.82-2.14C652.76,307.16,652.64,306.61,652.3,306.73Z"/><path class="cls-3" d="M666,337.4c-.79.57-1.63,1.38-2.69,1.31a7.78,7.78,0,0,1-3-1.22c-.09-.05-.2,0-.15.12a3.92,3.92,0,0,0,3.41,2.15,3.1,3.1,0,0,0,2.67-2.18C666.31,337.42,666.1,337.32,666,337.4Z"/><path class="cls-3" d="M656.32,324.49s-1.52,4.13-2,6.14c0,.19.42.38,1.1.57,0,0,0,0,.08,0a9.78,9.78,0,0,0,10.05-1.54.21.21,0,0,0-.24-.34c-3.07,1.36-6.11,1.22-9.27.59,0-.59,2.84-7,2.53-7.08-1.08-.33-3.4-.06-4.79,0,2.92-8.7,7.2-16.85,10-25.55a.28.28,0,0,0-.5-.25c-5.1,8.23-8.67,18.16-11.91,27.06C651,325.26,655.44,324.66,656.32,324.49Z"/><path class="cls-3" d="M656.25,330.57a11.62,11.62,0,0,0,3.56,4.67,5.18,5.18,0,0,0,3,1c2.37,0,3-2,3-3.86a12.67,12.67,0,0,0-.28-2.92A15,15,0,0,1,656.25,330.57Z"/><path class="cls-11" d="M659.81,335.24a5.18,5.18,0,0,0,3,1c2.37,0,3-2,3-3.86C663.4,332,660.62,333,659.81,335.24Z"/><path class="cls-3" d="M708.64,329.72c-4.41-1.56-12.55-17.25-6.7-39,0,0-3.91,19.91-3.26,23.18s-4.54-8.82-.06-26.44c0,0-11.68,4.21-20.59,4.15s-13.94-1.57-14.36-2.34,12.82-1.11,17.19-3.95c0,0-24.87,3.91-35.21,1.78-1.2-.25,4.31-24.71,22.87-30.44s40.18,12.4,45,20.75c0,0,7.5,3.35,12.68,17.36S713.38,331.39,708.64,329.72Z"/><path class="cls-10" d="M702.24,330.63s11.59-11.5,17-7.13-5,22.19-12.5,23.53a7.26,7.26,0,0,1-8.86-5.57Z"/><path class="cls-3" d="M716.1,328.54a.1.1,0,0,1,0,.19c-5.28,1.1-8.7,5.19-11.37,9.59,1.79-1.56,4-2.19,6.09,0,.11.11-.05.29-.18.24a4.47,4.47,0,0,0-5.11.65,21.45,21.45,0,0,0-3,3.49c-.31.39-1.06,0-.8-.46l.06-.11C702.79,335.83,709.26,327.94,716.1,328.54Z"/><path class="cls-10" d="M746.36,587.32l.71.18,0,0Z"/><path class="cls-5" d="M814.76,573.91c.1.52.2,1,.26,1.54,0-.1,0-.2,0-.3C814.92,574.73,814.84,574.33,814.76,573.91Z"/><path class="cls-5" d="M814.76,573.91c.1.52.2,1,.26,1.54,0-.1,0-.2,0-.3C814.92,574.73,814.84,574.33,814.76,573.91Z"/><path class="cls-5" d="M743.11,594.78v0c.76.18,1.49.36,2.23.52Z"/><path class="cls-9" d="M814.76,573.91c.1.52.2,1,.26,1.54,0-.1,0-.2,0-.3C814.92,574.73,814.84,574.33,814.76,573.91Z"/><path class="cls-1" d="M30.16,115.23V223.41h108.2V115.23Zm8.17,100V123.4h91.85v91.84Z"/><rect class="cls-2" x="107.05" y="87.6" width="367.08" height="338.05"/><path class="cls-12" d="M356.17,255.25c44.73,45.34,101,140.7,90.51,160-11.68,21.53-74-42-73.73-45.74.18-2.8-21.73-60.73-38.35-102.86S345.11,244,356.17,255.25Z"/><path class="cls-5" d="M372.54,369.62c-1.91-6.19-31.72-82.58-40.24-106.73s-.63-31.63,23.72-9.51,77.68,96,89.86,135.26c11.72,37.79-7.73,37.79-33.4,20.37C391.46,394.75,372.54,369.62,372.54,369.62Z"/><path class="cls-13" d="M351.8,255.88a18.2,18.2,0,0,1-1.52,4.89,17.84,17.84,0,0,1-2.72,4.34,17.62,17.62,0,0,1,1.52-4.89A18,18,0,0,1,351.8,255.88Zm73.75,105a17.62,17.62,0,0,0-1.52,4.89,17.84,17.84,0,0,0,2.72-4.34,18.2,18.2,0,0,0,1.52-4.89A18,18,0,0,0,425.55,360.92Zm-26.37-40.13a18,18,0,0,0-1.52,4.89,17.84,17.84,0,0,0,2.72-4.34,18.32,18.32,0,0,0,1.52-4.89A17.84,17.84,0,0,0,399.18,320.79Zm-27.39-10.08a18,18,0,0,0-4.89-1.51,19.72,19.72,0,0,0,9.23,4.23A18.14,18.14,0,0,0,371.79,310.71Zm24.69,40.59a17.62,17.62,0,0,0-4.89-1.52,17.84,17.84,0,0,0,4.34,2.72,18.2,18.2,0,0,0,4.89,1.52A17.84,17.84,0,0,0,396.48,351.3Zm-20.07-69.51a17.58,17.58,0,0,0-4.9-1.52,18,18,0,0,0,4.34,2.72,18.27,18.27,0,0,0,4.9,1.52A18.22,18.22,0,0,0,376.41,281.79ZM361.09,336a18.23,18.23,0,0,0,2.39,4.53,18,18,0,0,0-1.14-5A18.41,18.41,0,0,0,360,331,18,18,0,0,0,361.09,336Zm51.66,48.36a18.23,18.23,0,0,0,2.39,4.53,18.13,18.13,0,0,0-1.14-5,18.41,18.41,0,0,0-2.39-4.53A18,18,0,0,0,412.75,384.33ZM378,376.2l-.11,0c.29.34.58.7.9,1.07a16.83,16.83,0,0,0,4.21-2.26A17.86,17.86,0,0,0,378,376.2Zm61.22,28.85a17.76,17.76,0,0,0,4.53-2.39,18,18,0,0,0-5,1.15,17.59,17.59,0,0,0-4.53,2.39A18.14,18.14,0,0,0,439.19,405.05ZM347.33,293.12a20.66,20.66,0,0,0-3.23,1.52l.24.67a19,19,0,0,0,3.44-.95,17.84,17.84,0,0,0,4.55-2.38A18,18,0,0,0,347.33,293.12Z"/><path class="cls-5" d="M367.19,425.75h-170s27-133.37,92.25-191.1c8.06-7.14,26.24-5.52,38.1.38,4.24,2.1,19.44,23.38,23.78,43.49S367.67,425.15,367.19,425.75Z"/><path class="cls-3" d="M352.74,286.84c1.34,4.48,2.44,9.14,3.35,13.83,0-.19,0-.37,0-.55.07-2.63.09-5.31.37-7.92a.13.13,0,0,1,.26,0,40.13,40.13,0,0,1,.21,8c-.07,1.25-.14,2.51-.25,3.77.36,2.1.68,4.2.94,6.28.5,4,1.83,18.74,1.95,21.68,0,.62-.69.72-.86.08-.8-3-2.92-18.2-3.6-22.13a213.6,213.6,0,0,1-2.69-23C352.43,286.68,352.7,286.68,352.74,286.84Z"/><path class="cls-13" d="M300.05,269.46a18.27,18.27,0,0,1-1.52,4.9,17.72,17.72,0,0,1-2.72,4.34,17.92,17.92,0,0,1,1.52-4.9A18.22,18.22,0,0,1,300.05,269.46Zm-23,67.73a17.62,17.62,0,0,0-1.52,4.89,17.84,17.84,0,0,0,2.72-4.34,18.32,18.32,0,0,0,1.52-4.89A17.84,17.84,0,0,0,277,337.19Zm-55.24,24.24a17.92,17.92,0,0,0-1.52,4.9A18,18,0,0,0,223,362a18.27,18.27,0,0,0,1.52-4.9A18.22,18.22,0,0,0,221.77,361.43Zm40.6,43.42a18,18,0,0,0-1.51,4.89,18.14,18.14,0,0,0,2.72-4.34,18,18,0,0,0,1.51-4.89A18.14,18.14,0,0,0,262.37,404.85ZM333.27,321a17.75,17.75,0,0,0-1.52,4.89,17.54,17.54,0,0,0,2.72-4.34,18.32,18.32,0,0,0,1.52-4.89A17.84,17.84,0,0,0,333.27,321ZM355.6,367a17.91,17.91,0,0,0-1.51,4.9,18.22,18.22,0,0,0,2.72-4.34,17.91,17.91,0,0,0,1.51-4.9A18.55,18.55,0,0,0,355.6,367Zm-54.05,33.2a17.91,17.91,0,0,0-1.51,4.9,19.72,19.72,0,0,0,4.23-9.23A18.28,18.28,0,0,0,301.55,400.23Zm-51.81-89.82a18,18,0,0,0-1.51,4.89,19.72,19.72,0,0,0,4.23-9.23A18.34,18.34,0,0,0,249.74,310.41ZM314,295.26a17.85,17.85,0,0,0-4.89-1.52,17.84,17.84,0,0,0,4.34,2.72,18.32,18.32,0,0,0,4.89,1.52A17.84,17.84,0,0,0,314,295.26ZM324.76,350a17.91,17.91,0,0,0-4.9-1.51,18.22,18.22,0,0,0,4.34,2.72,17.91,17.91,0,0,0,4.9,1.51A18.55,18.55,0,0,0,324.76,350Zm-100,58a17.73,17.73,0,0,0-4.89-1.51,19.72,19.72,0,0,0,9.23,4.23A18.14,18.14,0,0,0,224.76,408ZM326.52,419a17.36,17.36,0,0,0-4.9-1.52,18.42,18.42,0,0,0,4.34,2.71l1,.46c.91.05,1.8.12,2.71.18A18.88,18.88,0,0,0,326.52,419ZM263,363.66a17.62,17.62,0,0,0-4.89-1.52,17.84,17.84,0,0,0,4.34,2.72,18.32,18.32,0,0,0,4.89,1.52A17.84,17.84,0,0,0,263,363.66Zm51-116.84a17.52,17.52,0,0,0-4.89-1.52,17.84,17.84,0,0,0,4.34,2.72,18.32,18.32,0,0,0,4.89,1.52A17.84,17.84,0,0,0,314,246.82Zm11,25.38a18.41,18.41,0,0,0,2.39,4.53,18,18,0,0,0-1.14-5,18.23,18.23,0,0,0-2.39-4.53A18.13,18.13,0,0,0,325,272.2Zm27,126.57a17.76,17.76,0,0,0,2.39,4.53,17.63,17.63,0,0,0-1.15-5,18.1,18.1,0,0,0-2.38-4.54A18.12,18.12,0,0,0,352.05,398.77ZM279.1,304a18.23,18.23,0,0,0,2.39,4.53,18.13,18.13,0,0,0-1.14-5A18.41,18.41,0,0,0,278,299,18,18,0,0,0,279.1,304Zm21,55.72a18.21,18.21,0,0,0,2.38,4.53,17.62,17.62,0,0,0-1.14-5,18.14,18.14,0,0,0-2.39-4.54A18.13,18.13,0,0,0,300.11,359.73Zm-97.45,65.32c0,.23,0,.47.05.7h.44C203,425.52,202.84,425.28,202.66,425.05Zm47.87-.22a18.47,18.47,0,0,0-2.39-4.54,18.33,18.33,0,0,0,1.14,5l.18.47h1.38C250.74,425.45,250.64,425.13,250.53,424.83Zm-9.78-39.27a18.23,18.23,0,0,0,2.39,4.53,18.13,18.13,0,0,0-1.14-5,18.41,18.41,0,0,0-2.39-4.53A18,18,0,0,0,240.75,385.56Zm41.19-131.1a18,18,0,0,0,2.38,4.53,18,18,0,0,0-1.14-5,18.23,18.23,0,0,0-2.39-4.53A17.79,17.79,0,0,0,281.94,254.46ZM327.44,383a17.59,17.59,0,0,0,4.53-2.39,17.79,17.79,0,0,0-5,1.15,18,18,0,0,0-4.53,2.38A18,18,0,0,0,327.44,383Zm-44.51,41a17.76,17.76,0,0,0,4.53-2.39,17.63,17.63,0,0,0-5,1.15,17.87,17.87,0,0,0-4.53,2.38A18.13,18.13,0,0,0,282.93,423.91Zm-75.72-37.09c-.11.39-.23.79-.34,1.16a13.54,13.54,0,0,0,2.31-1.42A13,13,0,0,0,207.21,386.82ZM246,339.66a17.81,17.81,0,0,0,4.54-2.39,19.82,19.82,0,0,0-9.53,3.54A18.34,18.34,0,0,0,246,339.66Zm35.69,45.06a17.87,17.87,0,0,0,4.53-2.38,17.78,17.78,0,0,0-5,1.14,18.08,18.08,0,0,0-4.53,2.39A18,18,0,0,0,281.72,384.72Zm21.2-64.63a17.91,17.91,0,0,0,4.53-2.39,18.13,18.13,0,0,0-5,1.14,18.41,18.41,0,0,0-4.53,2.39A18,18,0,0,0,302.92,320.09Zm44.87-25.73a17.87,17.87,0,0,0,4.53-2.38,17.7,17.7,0,0,0-5,1.14,18.08,18.08,0,0,0-4.53,2.39A18.06,18.06,0,0,0,347.79,294.36Zm-80.23-15a17.59,17.59,0,0,0,4.53-2.39,17.71,17.71,0,0,0-5,1.15,18,18,0,0,0-4.53,2.38A18,18,0,0,0,267.56,279.32Z"/><path class="cls-12" d="M142.13,182.23c-.36-8.17,1.29-45.75,4.09-56.1s13-39.57,21.16-38.23S173.22,98,173.22,98s6.27-11.66,14.35-9.56,4,15.65,4,15.65,7.3-11.5,15.21-8.83,1.57,15.62,1.57,15.62,6.19-10.83,11.78-5.89c6.73,5.94-6.94,24.61-9.18,36.27-.5,2.65-6.45,54.42-6.45,54.42Z"/><path class="cls-3" d="M208.91,109.79c-10,13.75-12,21.5-13.14,38.21,0,.33-.51.37-.52,0-.4-16.46.71-26.54,13-38.75C208.87,108.67,209.39,109.13,208.91,109.79Z"/><path class="cls-3" d="M192.42,103c-9.16,15.19-11.41,23.58-13.86,41,0,.24-.46.21-.45,0,1-17.29,2.33-27.32,13.47-41.3C192.09,102.07,192.84,102.35,192.42,103Z"/><path class="cls-3" d="M173.12,98.92c-7.8,15.34-10.67,24.43-10.88,41.65a.32.32,0,0,1-.63,0c-1.49-17.58,2-28.95,11-41.87C173.25,97.85,173.61,98,173.12,98.92Z"/><path class="cls-12" d="M204,206.39s15.53-14.61,20.93-22.53,14.68-44.86,6.81-47.32c-10.15-3.17-19.7,17.1-23.09,27.64,0,0-23.48-7.36-33.48,5.71S204,206.39,204,206.39Z"/><path class="cls-3" d="M228.69,136.58c-11.35,3.79-14.9,17.91-18.94,27.89a1,1,0,0,1-1.56.43c-10.05-2.42-24.93-2.92-33.09,4.32a.25.25,0,0,1-.36-.34c7.7-9,22.36-9.66,33.19-6.3,4-10.3,8.17-24.31,20.73-26.11C228.73,136.46,228.76,136.56,228.69,136.58Z"/><path class="cls-12" d="M298.77,254.53c-10.2,17.67-69.22,72.14-120.66,81.58-7,1.28-33.55-4.34-39.11-22-9.9-31.4-2-96.22,3.08-135.22,1-7.62,71.73,8,69.9,19.67-2,12.89-9.61,60.23-8.45,60.77,4.24,1.95,49.46-17.57,79.14-24C303.71,230.85,306.63,240.93,298.77,254.53Z"/><path class="cls-2" d="M132.09,198.21l80.61,17.45s-7.33,41.19-5.88,41,58-20.86,79.8-23S308.44,241,297.37,259s-83.51,78.28-119.21,78.26c-18.17,0-35.08-11.65-38.37-17.2C129.55,302.79,132.09,198.21,132.09,198.21Z"/><path class="cls-5" d="M132.09,198.21l80.61,17.45s-7.33,41.19-5.88,41,58-20.86,79.8-23S308.44,241,297.37,259s-83.51,78.28-119.21,78.26c-18.17,0-35.08-11.65-38.37-17.2C129.55,302.79,132.09,198.21,132.09,198.21Z"/><path class="cls-13" d="M247.63,255.6a18,18,0,0,0-1.52,4.89,17.91,17.91,0,0,0,2.72-4.32,18.46,18.46,0,0,0,1.52-4.91A18.22,18.22,0,0,0,247.63,255.6Zm-64.07,72a17.84,17.84,0,0,0-1.51,4.89,19.72,19.72,0,0,0,4.23-9.23A18.22,18.22,0,0,0,183.56,327.56Zm-47.48-49.34a17.52,17.52,0,0,0-1.52,4.89,17.54,17.54,0,0,0,2.72-4.34,18.32,18.32,0,0,0,1.52-4.89A18.55,18.55,0,0,0,136.08,278.22Zm70.19.2a17.62,17.62,0,0,0-1.52,4.89,17.84,17.84,0,0,0,2.72-4.34,18.32,18.32,0,0,0,1.52-4.89A18.22,18.22,0,0,0,206.27,278.42ZM171,298.75a18.32,18.32,0,0,0-1.52,4.89,17.25,17.25,0,0,0,2.72-4.34,18,18,0,0,0,1.52-4.89A17.76,17.76,0,0,0,171,298.75Zm3.11-49.56a17.93,17.93,0,0,0-1.5,4.89,19.58,19.58,0,0,0,4.22-9.23A18.46,18.46,0,0,0,174.06,249.19ZM138.2,212.35a18,18,0,0,0-1.52,4.89,17.72,17.72,0,0,0,2.72-4.32,18.46,18.46,0,0,0,1.52-4.91A18.22,18.22,0,0,0,138.2,212.35Zm145,41.65a17.91,17.91,0,0,0-2.39-4.53,18,18,0,0,0,1.14,5,18.41,18.41,0,0,0,2.39,4.53A18,18,0,0,0,283.18,254Zm-47.75,32.94a18.41,18.41,0,0,0-2.39-4.53,18,18,0,0,0,1.14,5,17.59,17.59,0,0,0,2.39,4.53A18.21,18.21,0,0,0,235.43,286.94Zm-35.86-37.13a18.05,18.05,0,0,0-2.38-4.53,18,18,0,0,0,1.14,5,18.59,18.59,0,0,0,2.39,4.53A18.21,18.21,0,0,0,199.57,249.81Zm-4.64,53.74a18.08,18.08,0,0,0-2.39-4.53,18,18,0,0,0,1.14,5,18.57,18.57,0,0,0,2.39,4.53A18,18,0,0,0,194.93,303.55Zm-46-5.8a17.91,17.91,0,0,0-2.39-4.53,19.68,19.68,0,0,0,3.53,9.52A18,18,0,0,0,149,297.75Zm14.49-76a18,18,0,0,0-2.38-4.55,17.83,17.83,0,0,0,1.14,5,18.59,18.59,0,0,0,2.39,4.53A17.63,17.63,0,0,0,163.44,221.79ZM158,264.89a18.47,18.47,0,0,0-2.39-4.54,19.77,19.77,0,0,0,3.53,9.53A17.88,17.88,0,0,0,158,264.89ZM267.1,278.07a18.41,18.41,0,0,0-4.53,2.39,19.68,19.68,0,0,0,9.52-3.53A18,18,0,0,0,267.1,278.07Zm-85.28-2a18.57,18.57,0,0,0-4.53,2.39,19.68,19.68,0,0,0,9.52-3.53A18,18,0,0,0,181.82,276.1Zm8-50.65a18.31,18.31,0,0,0-4.52,2.38,17.86,17.86,0,0,0,5-1.14,17.61,17.61,0,0,0,4.53-2.39A18.13,18.13,0,0,0,189.86,225.45Zm-45.76,15.9a17.91,17.91,0,0,0-4.53,2.39,20,20,0,0,0,9.52-3.53A17.78,17.78,0,0,0,144.1,241.35Zm76.11,68.71a18.57,18.57,0,0,0-4.53,2.39,19.68,19.68,0,0,0,9.52-3.53A18,18,0,0,0,220.21,310.06Zm-61.28,13.4a17.91,17.91,0,0,0-4.53,2.39,19.68,19.68,0,0,0,9.52-3.53A18,18,0,0,0,158.93,323.46Zm66-68.21a18.57,18.57,0,0,0-4.53,2.39,18.21,18.21,0,0,0,5-1.14,17.45,17.45,0,0,0,4.53-2.39A18,18,0,0,0,225,255.25Z"/><path class="cls-3" d="M207.44,257c-.44,6.17-1.86,12.23-3.2,18.24s-3.26,12-5.07,18c0,.13-.24.06-.21-.08,1.55-6,2.67-12.1,4-18.14s2.24-12.15,3.78-18.12C206.84,256.44,207.47,256.58,207.44,257Z"/><path class="cls-3" d="M208,230.86c-9.33-2.32-18.78-4.15-28.24-5.94s-18.93-3.62-28.44-5.18c-5.37-.88-10.74-1.79-16.14-2.49-.14,0-.21.21-.07.25,9.32,2.32,18.78,4.19,28.21,6s18.93,3.62,28.42,5.3c5.36.94,10.74,1.79,16.14,2.49C208.11,231.36,208.24,230.93,208,230.86Z"/><path class="cls-3" d="M234.58,313.21c1.49-1.32,3.12-2.43,4.68-3.66s3-2.37,4.56-3.54c3.11-2.39,6.23-4.76,9.33-7.16,6.21-4.81,12.3-9.76,18.45-14.64q5.26-4.17,10.42-8.46a.15.15,0,0,1,.2.21c-4.23,4-8.51,7.92-12.91,11.71l1.66-.8c1.69-.85,3.35-1.75,5-2.67.14-.08.25.13.12.22a43.39,43.39,0,0,1-4.82,3c-.82.44-1.65.85-2.49,1.24-.41.19-.81.37-1.23.53h0c-1,.84-2,1.69-3,2.52q-9.12,7.43-18.65,14.33c-1.76,1.27-3.53,2.52-5.34,3.71s-3.75,2.63-5.75,3.73C234.61,313.56,234.43,313.33,234.58,313.21Z"/><polygon class="cls-3" points="314.61 275.37 324.02 261.05 332.88 273.09 329.26 283.73 319.2 283.94 314.61 275.37"/><polygon class="cls-3" points="319.2 283.94 302.52 394.91 319.47 434.02 334.76 393.69 329.26 283.73 319.2 283.94"/><path class="cls-12" d="M327.4,260c-9.8,2.39-26.74-12.51-33.47-24.62-.46-.83.76-9.62,1.74-20.37.57-6.53,1.05-13.81,1-20.49l41.93,9.91s-4,14-3.88,25.66a14.81,14.81,0,0,0,.31,2.74c0,.12,0,.27.06.45C336,238.49,336.87,257.7,327.4,260Z"/><path class="cls-3" d="M299.63,195.24c1.27,8.83,7.27,37.91,31.16,38.3a23.38,23.38,0,0,0,4.31-.26c0-.17-.05-.31-.06-.44a14.11,14.11,0,0,1-.31-2.75c-.15-11.63,3.88-25.65,3.88-25.65Z"/><path class="cls-12" d="M287,147.72c-3.2,15.19,8.4,57.22,19.76,65.81,16.47,12.46,41.56,11.57,51.66-7.8,9.8-18.78-6.28-73.28-18.8-80.9C321.19,113.62,291.74,125.29,287,147.72Z"/><path class="cls-3" d="M324.44,172.65c-.05-.1-.18.19-.15.31.86,2.81,1.37,6.17-.94,7.81-.07,0,0,.19.07.15C326.43,179.63,325.71,175.17,324.44,172.65Z"/><path class="cls-3" d="M321.11,170.37c-4.65.89-2.53,10.13,1.78,9.31S325,169.63,321.11,170.37Z"/><path class="cls-3" d="M341.51,168.38c0-.11.26.09.28.21.57,2.88,1.7,6.09,4.5,6.44.09,0,.12.16,0,.17C343.05,175.48,341.58,171.21,341.51,168.38Z"/><path class="cls-3" d="M343.38,164.81c4.53-1.41,7,7.75,2.81,9.05S339.59,166,343.38,164.81Z"/><path class="cls-6" d="M316.5,167a37.86,37.86,0,0,0,3.29-2.08c1.25-.81,2.33-1.33,2.95-2.76a2,2,0,0,0-.86-2.29c-1.67-.91-3.45-.3-5,.62a7.26,7.26,0,0,0-3.39,4C312.83,166.26,314.93,167.78,316.5,167Z"/><path class="cls-6" d="M345.89,159.34a38.79,38.79,0,0,1-3.89-.11c-1.5-.06-2.69,0-3.95-.87a2,2,0,0,1-.43-2.41c1-1.64,2.81-2,4.61-2a7.29,7.29,0,0,1,5,1.72A2.14,2.14,0,0,1,345.89,159.34Z"/><path class="cls-3" d="M328.8,199.05c.84.51,1.73,1.28,2.79,1.13a7.76,7.76,0,0,0,2.91-1.43c.08-.05.2,0,.16.12a4,4,0,0,1-3.28,2.39,3.12,3.12,0,0,1-2.83-2C328.47,199.09,328.67,199,328.8,199.05Z"/><path class="cls-3" d="M329.84,189.79a10,10,0,0,0,7.5,2.85,12.7,12.7,0,0,0,3.54-.65,3.11,3.11,0,0,0,.65-.23,5.91,5.91,0,0,0,.61-.24.74.74,0,0,0,.43-.77v0a1,1,0,0,0-.09-.29v0l-.06-.25C342,188,341,184.65,341,184.65c.9.22,5.43,1.12,5.1,0-2.75-9.4-5.82-19.86-10.54-28.63a.27.27,0,0,0-.51.19c2.29,9.14,6.17,17.82,8.62,27-1.43-.2-3.77-.63-4.92-.34-.29.16,2,6.35,2.13,7.36a.5.5,0,0,1,0,.11c-3.6,1.32-6.65.84-10.81-.82C329.8,189.36,329.62,189.6,329.84,189.79Z"/><path class="cls-3" d="M339.34,191.54a11.78,11.78,0,0,1-4,4.47,5.36,5.36,0,0,1-3.15.79c-2.42-.19-2.86-2.29-2.77-4.18a12.65,12.65,0,0,1,.53-3A15.34,15.34,0,0,0,339.34,191.54Z"/><path class="cls-11" d="M335.33,196a5.36,5.36,0,0,1-3.15.79c-2.42-.19-2.86-2.29-2.77-4.18C331.93,192.42,334.68,193.65,335.33,196Z"/><g class="cls-14"><path d="M328.86,152.93a33.11,33.11,0,0,0,4.54-.66c1.5-.39,2.91-1.07,4.43-1.43a24.89,24.89,0,0,1,8.74-.05c.26,0,.25.19,0,.17a21.88,21.88,0,0,0-9.14.75,27.47,27.47,0,0,1-7.36,1.77c-5.81.41-11.45,1.56-16.06,5.35a0,0,0,0,1,0-.05C318.11,155.22,323.51,153.55,328.86,152.93Z"/><path d="M327.89,149a32.77,32.77,0,0,0,4.3-.63c1.43-.37,2.76-1,4.2-1.35a23.3,23.3,0,0,1,8.29-.05c.24,0,.24.18,0,.16a20.61,20.61,0,0,0-8.66.71,25.88,25.88,0,0,1-7,1.68c-5.5.39-10.85,1.48-15.23,5.07,0,0-.06,0,0,0C317.69,151.12,322.81,149.54,327.89,149Z"/></g><path class="cls-6" d="M291.18,183.94s-14.69-24.22-13.33-38.23c.61-6.34,9.24-10.61,9.24-10.61s-2.58-7.7,4.51-14.4c7.49-7,25.62-5.48,25.62-5.48S329,98.22,345.61,105s5.81,25.59,5.81,25.59,6.11,8.65-8.79,15.43c-14.51,6.61-44.2.14-44.2.14a103.27,103.27,0,0,1-.44,30.74C296.94,182.6,291.18,183.94,291.18,183.94Z"/><path class="cls-6" d="M320.09,115.44a29.17,29.17,0,0,0-11.7-2.13A31.71,31.71,0,0,0,297.85,115c-6,2.16-11.3,6.57-12.3,13.14a12.24,12.24,0,0,0,2.33,9.21c.08.11.24,0,.16-.15-3.86-4.76-1.84-12.17,2.13-16.16,4.5-4.51,11.37-6.22,17.55-6.49A51.23,51.23,0,0,1,320,115.8.19.19,0,0,0,320.09,115.44Z"/><path class="cls-6" d="M357.51,113c-1.39-4.66-5.38-7.65-9.86-9.07a24.3,24.3,0,0,0-15.75.55A30.64,30.64,0,0,0,319,114c-.08.09.08.23.16.13,6.25-7.4,16-11.62,25.71-9.58,4.32.91,8.65,3.14,10.66,7.27,1.84,3.79,1.44,8.62-.37,12.35-2.24,4.61-6.4,8.09-10.68,10.73a.09.09,0,0,0,.08.16c4.16-2.25,8.05-5.09,10.65-9.11A15.89,15.89,0,0,0,357.51,113Z"/><path class="cls-12" d="M299.23,181.73s-11.14-12.74-17-8.62,3.54,23.32,11.18,25.25a7.5,7.5,0,0,0,9.57-5.1Z"/><path class="cls-3" d="M285,178.55c-.12,0-.12.17,0,.2,5.37,1.52,8.61,6,11,10.75-1.74-1.74-3.94-2.56-6.29-.46-.12.12,0,.31.17.26a4.62,4.62,0,0,1,5.23,1.06,21.93,21.93,0,0,1,2.87,3.82c.29.44,1.09.1.86-.41l-.05-.11C298.27,187.07,292.17,178.44,285,178.55Z"/><path class="cls-2" d="M323.62,187.59a12.95,12.95,0,1,1,10.31-17.65h0a13,13,0,0,1-10.31,17.65Zm-3.18-24a11.46,11.46,0,0,0-2.7.71,11.21,11.21,0,1,0,2.7-.71Z"/><path class="cls-2" d="M352.38,180.12c-4.91.65-10-3.79-11.7-10.33a15.48,15.48,0,0,1,.42-9.45,8.07,8.07,0,0,1,13.39-3.4,15.44,15.44,0,0,1,4.88,8.1c1.75,6.92-1,13.61-6.16,14.92A7.6,7.6,0,0,1,352.38,180.12Zm-4.47-23.7c-.22,0-.43.07-.65.12a6.91,6.91,0,0,0-4.55,4.44,13.79,13.79,0,0,0-.35,8.38c1.52,6,6.19,10,10.43,8.92s6.42-6.82,4.9-12.82a13.73,13.73,0,0,0-4.31-7.19A7.13,7.13,0,0,0,347.91,156.42Z"/><path class="cls-2" d="M333.88,171.5l-1.4-1c1.49-2.08,5.35-5.35,9.25-2.84l-.94,1.45C337.3,166.85,334,171.31,333.88,171.5Z"/><path class="cls-2" d="M278.79,188.93l-1.69-.39c.19-.79,1.89-7.73,5.48-9.29,3.36-1.45,26.39-5.05,27.37-5.2l.26,1.71c-6.6,1-24.34,4-26.94,5.08C280.9,181.87,279.23,187,278.79,188.93Z"/><path class="cls-1" d="M335.07,232.38l-11.72,24-28.44-33.25-9.36,9.4s26.52,51.54,26.86,49.32L324,261.37l13.63,15.77L339,240Z"/><path class="cls-3" d="M339.35,258.82c0-6.14.21-12.33-.05-18.46,0-.22-.34-.34-.41-.09-1.63,5.82-1.58,29.3-2,34.9l-.06-.07c-.57-.68-12.68-13.92-12.83-13.73-2.43,3.22-10.93,18.15-11.54,19.52-4.19-8.18-20.36-38-25.45-45.82a.21.21,0,0,0-.38.19c3.61,8.59,25,48.71,25.34,48.63.23.21,10.79-18.18,12.15-21.7,2,2.84,14.13,17.68,14.24,16.77A193.57,193.57,0,0,0,339.35,258.82Z"/><path class="cls-12" d="M446.68,415.29c-10.07,14.4-37.47,17.14-105.83,30.53-9.46,1.85-40.49-61.38-30.49-63.88,12.59-3.14,62.15-12.62,65.86-12.86C407.53,367.09,453.51,405.52,446.68,415.29Z"/><path class="cls-12" d="M324,378.83s-29,4.37-43.46,11.38c-19.42,9.39-32.32,25.48-37.32,32.56-10.43,14.76-25.46,57.67-13.86,64.15C239.9,492.79,253,448.15,253,448.15s-20.91,43.3-7,48.05,26.25-47.95,26.25-47.95-20.48,45-5.33,47.59c11.46,2,25.29-45.11,25.29-45.11S275,489.5,286.64,492c12.92,2.81,28.42-39.86,28.42-39.86,30.81,1.45,46.07-10.46,55.92-20.22C373.36,429.6,324,378.83,324,378.83Z"/><path class="cls-3" d="M259.31,432.71c-2.64,5-5.34,10-7.53,15.26s-4.19,10.51-5.89,15.9c-4.14,13.24-4.67,22.17-4.58,21.62,2.19-13,9.73-31.76,11.92-37s4.11-10.52,6.29-15.73C259.57,432.66,259.38,432.6,259.31,432.71Z"/><path class="cls-3" d="M278.29,440.27c-3.1,6.53-6.41,12.89-9.22,19.56s-4.86,13.17-7.19,20c-.18.52.16.45.36-.07,2.6-6.71,5.52-12.71,8.2-19.39s5.1-13.47,8-20C278.5,440.23,278.34,440.17,278.29,440.27Z"/><path class="cls-3" d="M295.74,443.83c-5.24,9.73-8.68,20.42-11.8,31-.16.53.27.38.46-.15,3.73-10.37,6.58-18.54,11.68-30.65C296.16,443.82,295.85,443.62,295.74,443.83Z"/><path class="cls-5" d="M318,378.83l59.89,66.69s60.56-13.91,69.48-29.44c5.87-10.22-39.72-51.63-74.14-46.81Z"/><path class="cls-13" d="M371.17,420.44a18,18,0,0,1-1.52,4.89,17.54,17.54,0,0,1-2.72,4.34,19.87,19.87,0,0,1,4.24-9.23Zm41.6-3.74a18,18,0,0,0-1.51,4.89,19.72,19.72,0,0,0,4.23-9.23A18.14,18.14,0,0,0,412.77,416.7Zm-29.67-14a17.62,17.62,0,0,0-4.89-1.52,17.84,17.84,0,0,0,4.34,2.72,18.32,18.32,0,0,0,4.89,1.52A17.84,17.84,0,0,0,383.1,402.7Zm29.65-18.37a18.23,18.23,0,0,0,2.39,4.53,18.13,18.13,0,0,0-1.14-5,18.41,18.41,0,0,0-2.39-4.53A18,18,0,0,0,412.75,384.33Zm-60.7,14.44a17.76,17.76,0,0,0,2.39,4.53,17.63,17.63,0,0,0-1.15-5,18.1,18.1,0,0,0-2.38-4.54A18.12,18.12,0,0,0,352.05,398.77ZM327.44,383a17.59,17.59,0,0,0,4.53-2.39,17.79,17.79,0,0,0-5,1.15,18,18,0,0,0-4.53,2.38A18,18,0,0,0,327.44,383Zm51-5.52a17.76,17.76,0,0,0,4.53-2.39,17.63,17.63,0,0,0-5,1.15,17.87,17.87,0,0,0-4.53,2.38A18.13,18.13,0,0,0,378.44,377.44Zm18.86,58.63a17.87,17.87,0,0,0,4.53-2.38,17.78,17.78,0,0,0-5,1.14,18.08,18.08,0,0,0-4.53,2.39A18,18,0,0,0,397.3,436.07Zm45-33.25a21.21,21.21,0,0,0-3.59,1,18.65,18.65,0,0,0-4.54,2.39,18.5,18.5,0,0,0,5-1.15,19.63,19.63,0,0,0,3.55-1.71C442.6,403.18,442.46,403,442.32,402.82Z"/><path class="cls-3" d="M414.28,380.12c-5.55-4-21.18-13.4-41.11-10.9-.17,0-.18.31,0,.3,15-.42,35.31,7.43,41,10.85C414.3,380.46,414.42,380.22,414.28,380.12Z"/><path class="cls-3" d="M394.26,434.35c-6.2-7.69-12.79-15-19.41-22.36s-13.23-14.69-20-21.85c-3.85-4.05-7.67-8.13-11.66-12.05-.1-.1-.3.05-.2.17,6.18,7.67,12.75,15.06,19.31,22.42s13.23,14.69,20,21.94c3.79,4.09,7.66,8.12,11.65,12C394.07,434.85,394.44,434.57,394.26,434.35Z"/><path class="cls-3" d="M317.88,378a86.1,86.1,0,0,1,11.23-2.56q5.67-1,11.37-2c7.55-1.21,23.41-4.64,37.35-4.6.15,0-.64.75-.79.74-6.64-.36-54.21,9.11-58.12,9.39a4.59,4.59,0,0,1,.42.79c.08.19-.11.44-.31.3-.49-.32-.84-.74-1.3-1.1A.56.56,0,0,1,317.88,378Z"/></svg>