<svg id="Слой_1" data-name="Слой 1" xmlns="http://www.w3.org/2000/svg" viewBox="0 0 515 760"><defs><style>.cls-1{fill:#ececec;}.cls-2{fill:#ffc800;}.cls-17,.cls-3,.cls-5{fill:#fff;}.cls-16,.cls-3{opacity:0.3;}.cls-17,.cls-4,.cls-8{opacity:0.1;}.cls-6{fill:#4a148c;}.cls-7{fill:#a8a8a8;}.cls-9{fill:#e55f4e;}.cls-10{fill:#306;}.cls-11{fill:#ff9bbe;}.cls-12{fill:#1a2e35;}.cls-13{fill:#c36358;}.cls-14{fill:#ff9581;}.cls-15{fill:#c8c8c8;}.cls-18{fill:#dcdcdc;}</style></defs><ellipse class="cls-1" cx="257.5" cy="680.59" rx="356.29" ry="29.49"/><ellipse class="cls-1" cx="260.09" cy="729.62" rx="258.92" ry="25.32"/><path class="cls-2" d="M413,314.31c-18,83.78-75.2,101.87-85.44,127.2-5.89,14.83-13.71,52.55-13.71,52.55l-107.35,0s-7.78-37.7-13.75-52.53c-11-27.41-77.09-46.28-89.06-149C95.72,225,146.43,118.43,260,118.38v71.53a13.67,13.67,0,0,1-13.68,13.67,14,14,0,0,1-10.79-5.3,28.51,28.51,0,1,0,0,36.14,14.86,14.86,0,0,1,4.82-3.88,13.45,13.45,0,0,1,6-1.42A13.67,13.67,0,0,1,260,242.78v71.53h71.54a13.67,13.67,0,0,0,13.66-13.66,14,14,0,0,0-5.3-10.79,28.51,28.51,0,1,1,36.14,0,14.59,14.59,0,0,0-3.88,4.8,13.47,13.47,0,0,0-1.42,6,13.66,13.66,0,0,0,13.67,13.66Z"/><path class="cls-3" d="M413,314.31c-18,83.78-75.2,101.87-85.44,127.2-5.89,14.83-13.71,52.55-13.71,52.55l-53.49,0v-27.7l0-21.93c.14-3.64-.46-7.39,1-10.7a13.41,13.41,0,0,1,7.36-7.37,13.14,13.14,0,0,1,10.38.21,13.93,13.93,0,0,1,4.32,3.08c.61.63,1.18,1.35,1.81,2.06s1.27,1.32,2,1.94a28.94,28.94,0,0,0,48.34-21.39,28.88,28.88,0,0,0-28-28.83,28.65,28.65,0,0,0-20.34,7.44c-.69.61-1.32,1.28-2,1.95s-1.18,1.42-1.79,2.06a14.25,14.25,0,0,1-4.34,3.08,13.1,13.1,0,0,1-10.38.21,13.39,13.39,0,0,1-7.36-7.38c-1.43-3.3-.84-7.05-1-10.69l0-21.94V314.31h71.23a13.67,13.67,0,0,0,13.66-13.66,14,14,0,0,0-5.3-10.79,28.51,28.51,0,1,1,36.14,0,14.59,14.59,0,0,0-3.88,4.8,13.47,13.47,0,0,0-1.42,6,13.66,13.66,0,0,0,13.67,13.66Z"/><path class="cls-4" d="M184.94,216.35a28.54,28.54,0,0,0,50.6,18.07,14.86,14.86,0,0,1,4.82-3.88,13.45,13.45,0,0,1,6-1.42A13.67,13.67,0,0,1,260,242.78V314h-.3l-43.56,0-21.94,0h-5.47a13.9,13.9,0,0,0-13.16,8.68,13.8,13.8,0,0,0,.23,10.86,14.86,14.86,0,0,0,3.2,4.52c.69.63,1.41,1.21,2.08,1.8s1.31,1.26,1.92,1.93a28.26,28.26,0,1,1-42-.05,41.62,41.62,0,0,1,4-3.75,14.17,14.17,0,0,0,3.19-4.48,13.73,13.73,0,0,0-7.43-18.39,14.17,14.17,0,0,0-5.42-1h-5.47l-21.93,0h-.74Q105,304,103.65,292.54C95.72,225,146.43,118.43,260,118.38v71.53a13.67,13.67,0,0,1-13.68,13.67,14,14,0,0,1-10.79-5.3,28.54,28.54,0,0,0-50.6,18.07Z"/><rect class="cls-5" x="216.22" y="328.45" width="3.19" height="170.71" transform="translate(-73.51 48.01) rotate(-10.77)"/><rect class="cls-5" x="217.1" y="412.18" width="170.71" height="3.19" transform="translate(-160.49 633.73) rotate(-79.25)"/><path class="cls-5" d="M260.12,384.8c-9.68,0-18.59-8.53-24.91-19.52-2.93,3.05-6.05,4.67-9.15,4.67h0c-16.2,0-24.19-31.89-24.52-33.24l3.1-.76c.07.31,7.71,30.81,21.42,30.81h0c2.55,0,5.14-1.71,7.53-4.47-4.91-9.54-7.9-20.44-7.9-29.1,0-9.11,3.58-14.34,9.82-14.34h0c7.22,0,11.36,5.54,11.36,15.21,0,7.14-2.34,16-6.11,23.2a40.64,40.64,0,0,1-3.33,5.37c.3.55.61,1.1.93,1.64,6.44,11,14.37,17.34,21.76,17.34h0c6.8,0,13.61-5.3,19.16-14.93.25-.42.49-.85.73-1.29a29.79,29.79,0,0,1-4-5.46c-6.33-10.95-7.63-27.21-2.84-35.5,2.11-3.66,5.22-5.6,9-5.6h0a7.88,7.88,0,0,1,7.06,4.29c4.65,8.06,2.12,26.74-5.31,41.65a15.52,15.52,0,0,0,10.46,4.09h0c9.71,0,18.3-22.44,20.8-31.08l3.07.89A113,113,0,0,1,311.9,355c-5.54,11.29-11.43,17-17.49,17h0a18.69,18.69,0,0,1-12-4.41c-.12.22-.24.43-.37.64-6.14,10.65-13.93,16.52-21.92,16.52ZM282.19,322h0c-2.61,0-4.7,1.35-6.23,4-4.29,7.43-3,22.23,2.83,32.31a29.11,29.11,0,0,0,2.77,4c6.42-13.58,8.86-30.79,4.92-37.61A4.73,4.73,0,0,0,282.19,322Zm-46.68,0h0c-5.48,0-6.63,6.06-6.63,11.15,0,7.59,2.64,17.42,6.9,26.21,4.55-6.83,7.91-17.13,7.91-25.34C243.68,328.57,242.26,322,235.51,322Z"/><rect class="cls-6" x="193.94" y="494.09" width="132.45" height="25.89"/><rect class="cls-6" x="193.95" y="524.17" width="132.45" height="25.88"/><path class="cls-7" d="M258.22,100a184.53,184.53,0,0,1-.72-39,184.52,184.52,0,0,1,.72,39Z"/><path class="cls-7" d="M169.28,124.79a185.15,185.15,0,0,1-20.11-33.37,183.66,183.66,0,0,1,20.11,33.37Z"/><path class="cls-7" d="M104.67,190.77a184.36,184.36,0,0,1-34.1-18.85,184.36,184.36,0,0,1,34.1,18.85Z"/><path class="cls-7" d="M81.7,280.21a184.44,184.44,0,0,1-38.95.73,184.44,184.44,0,0,1,39-.73Z"/><path class="cls-7" d="M106.54,369.16a184.26,184.26,0,0,1-33.38,20.1,184.6,184.6,0,0,1,33.38-20.1Z"/><path class="cls-7" d="M415.52,365.92a184.36,184.36,0,0,1,34.1,18.85,184,184,0,0,1-34.1-18.85Z"/><path class="cls-7" d="M438.48,276.48a184.54,184.54,0,0,1,39-.73,184.54,184.54,0,0,1-39,.73Z"/><path class="cls-7" d="M413.65,187.53A184.52,184.52,0,0,1,447,167.43a184.18,184.18,0,0,1-33.37,20.1Z"/><path class="cls-7" d="M347.67,122.92a184.36,184.36,0,0,1,18.85-34.1,184,184,0,0,1-18.85,34.1Z"/><g class="cls-8"><path d="M412.08,314l-21.93,0c-3.64-.14-7.39.46-10.7-1a13.41,13.41,0,0,1-7.37-7.36,13.18,13.18,0,0,1,.2-10.38,14.3,14.3,0,0,1,3.08-4.33c.64-.6,1.36-1.18,2.06-1.8s1.33-1.28,1.95-2a28.85,28.85,0,1,0-42.78,0c.61.68,1.28,1.32,2,2s1.42,1.18,2.06,1.79a14.13,14.13,0,0,1,3.08,4.34,13.1,13.1,0,0,1,.2,10.38,13.35,13.35,0,0,1-7.37,7.36c-3.3,1.43-7.06.84-10.7,1l-21.93,0H259.71v.61l0,43.56,0,21.94v5.47a13.9,13.9,0,0,0,8.68,13.16,13.8,13.8,0,0,0,10.86-.23,14.68,14.68,0,0,0,4.51-3.21c.64-.68,1.22-1.4,1.81-2.07s1.26-1.31,1.93-1.92a28.26,28.26,0,1,1-.05,42,44.15,44.15,0,0,1-3.75-4,14,14,0,0,0-4.49-3.2,13.72,13.72,0,0,0-18.38,7.44,14.16,14.16,0,0,0-1,5.41v5.48l0,21.93v27.7h.22l0-27.7,0-21.93c.12-3.63-.47-7.39,1-10.78a13.46,13.46,0,0,1,18-7.28,14.42,14.42,0,0,1,4.39,3.13,40.65,40.65,0,0,0,3.76,4,28.64,28.64,0,1,0-.06-42.56c-.69.62-1.32,1.28-2,1.95s-1.18,1.4-1.81,2.06a14.15,14.15,0,0,1-4.35,3.09,13.26,13.26,0,0,1-10.48.21,13.52,13.52,0,0,1-7.39-7.42c-1.45-3.35-.83-7.12-1-10.74V358.18l0-43.56H260l.31-.31v.31h43.56l21.93,0h5.48a14.13,14.13,0,0,0,5.48-1A14,14,0,0,0,344.33,295a14.89,14.89,0,0,0-3.24-4.55c-.69-.66-1.39-1.22-2.06-1.82a26.61,26.61,0,0,1-1.91-1.92,28.12,28.12,0,1,1,41.71,0c-.59.67-1.25,1.31-1.9,1.92s-1.37,1.16-2.06,1.82a15,15,0,0,0-3.24,4.56,13.78,13.78,0,0,0-.19,10.94,14,14,0,0,0,13.23,8.73h5.48l21.93,0h.82c0-.2.09-.43.14-.63Z"/><path d="M327.31,392.18a29,29,0,0,0-40.16-1.29c-.69.61-1.32,1.28-2,1.95s-1.18,1.42-1.79,2.06a14.25,14.25,0,0,1-4.34,3.08,13.1,13.1,0,0,1-10.38.21,13.39,13.39,0,0,1-7.36-7.38c-1.43-3.3-.84-7.05-1-10.69l0-21.94V314h-.61l-43.56,0-21.94,0h-5.47a13.9,13.9,0,0,0-13.16,8.68,13.8,13.8,0,0,0,.23,10.86,14.86,14.86,0,0,0,3.2,4.52c.69.63,1.41,1.21,2.08,1.8s1.31,1.26,1.92,1.93a28.26,28.26,0,1,1-42-.05,41.62,41.62,0,0,1,4-3.75,14.17,14.17,0,0,0,3.19-4.48,13.73,13.73,0,0,0-7.43-18.39,14.17,14.17,0,0,0-5.42-1h-5.47l-21.93,0h-.74a.74.74,0,0,0,.05.25H108l21.93,0c3.62.13,7.39-.46,10.77,1a13.44,13.44,0,0,1,7.28,18,14.26,14.26,0,0,1-3.13,4.39,41.81,41.81,0,0,0-4,3.77,28.64,28.64,0,1,0,42.56-.07c-.63-.68-1.28-1.32-2-2s-1.41-1.18-2.06-1.81a14.35,14.35,0,0,1-3.1-4.35,13.3,13.3,0,0,1-.2-10.48,13.52,13.52,0,0,1,7.42-7.39c3.35-1.45,7.12-.83,10.74-1l21.94,0,43.56,0v-.31l.3.31h-.3l0,43.56v27.41a14.31,14.31,0,0,0,1,5.48,14,14,0,0,0,7.73,7.75,13.84,13.84,0,0,0,10.95-.19,14.89,14.89,0,0,0,4.55-3.24c.65-.68,1.21-1.39,1.82-2.06a26.61,26.61,0,0,1,1.92-1.91,28.12,28.12,0,1,1,0,41.71,26.46,26.46,0,0,1-1.92-1.9c-.61-.67-1.17-1.37-1.82-2.06a14.91,14.91,0,0,0-4.57-3.24,13.75,13.75,0,0,0-10.93-.19A13.94,13.94,0,0,0,259.68,439v27.41l0,27.7h.61v-27.7l0-21.93c.14-3.64-.46-7.39,1-10.7a13.41,13.41,0,0,1,7.36-7.37,13.14,13.14,0,0,1,10.38.21,13.93,13.93,0,0,1,4.32,3.08c.61.63,1.18,1.35,1.81,2.06s1.27,1.32,2,1.94a28.94,28.94,0,0,0,48.34-21.39A29,29,0,0,0,327.31,392.18Zm-.43.44a28.36,28.36,0,0,0-39.33-1.3c-.67.61-1.31,1.26-1.93,1.92s-1.17,1.39-1.81,2.07a14.68,14.68,0,0,1-4.51,3.21,13.8,13.8,0,0,1-10.86.23,13.9,13.9,0,0,1-8.68-13.16v-5.47l0-21.94,0-43.56,0,43.56v27.41a14.31,14.31,0,0,0,1,5.48,14,14,0,0,0,7.73,7.75,13.84,13.84,0,0,0,10.95-.19,14.89,14.89,0,0,0,4.55-3.24c.65-.68,1.21-1.39,1.82-2.06a26.61,26.61,0,0,1,1.92-1.91,28.12,28.12,0,1,1,0,41.71,26.46,26.46,0,0,1-1.92-1.9c-.61-.67-1.17-1.37-1.82-2.06a14.91,14.91,0,0,0-4.57-3.24,13.75,13.75,0,0,0-10.93-.19A13.94,13.94,0,0,0,259.68,439v27.41l0,27.7h.19v-27.7l0-21.93V439a14.16,14.16,0,0,1,1-5.41,13.72,13.72,0,0,1,18.38-7.44,14,14,0,0,1,4.49,3.2,44.15,44.15,0,0,0,3.75,4,28.32,28.32,0,0,0,39.38-40.67Z"/><path d="M254.36,118.47h5.56v-.09C258.05,118.38,256.2,118.41,254.36,118.47Zm5.92,152V243a13.82,13.82,0,0,0-1-5.46,14,14,0,0,0-7.68-7.7,13.77,13.77,0,0,0-10.85.23,14.6,14.6,0,0,0-4.52,3.21c-.64.68-1.21,1.4-1.8,2.07s-1.26,1.31-1.93,1.92a28.27,28.27,0,1,1,0-42,42.94,42.94,0,0,1,3.76,4,14.09,14.09,0,0,0,4.48,3.2,13.75,13.75,0,0,0,18.39-7.44,14.35,14.35,0,0,0,1-5.41v-5.48l0-21.93,0-43.87h-.19l.09.09h-.09l0,43.78,0,21.93c-.13,3.62.46,7.39-1,10.78a13.46,13.46,0,0,1-18,7.27,14.27,14.27,0,0,1-4.39-3.12,40.76,40.76,0,0,0-3.77-4,28.64,28.64,0,1,0,.07,42.56c.68-.62,1.32-1.28,2-1.95s1.18-1.4,1.8-2.06a14.4,14.4,0,0,1,4.36-3.1,13.27,13.27,0,0,1,10.47-.2,13.45,13.45,0,0,1,7.39,7.42c1.46,3.35.83,7.12,1,10.74l0,21.94,0,43.56h.3l-.3.3V314H216.15l-21.94,0h-5.47a14.24,14.24,0,0,0-5.48,1,14,14,0,0,0-7.57,18.68,15.07,15.07,0,0,0,3.24,4.55c.69.66,1.39,1.21,2.06,1.82s1.31,1.25,1.92,1.92a28.12,28.12,0,1,1-41.71,0,26.46,26.46,0,0,1,1.9-1.92c.67-.61,1.37-1.16,2.06-1.82a15,15,0,0,0,3.24-4.56,13.82,13.82,0,0,0,.19-10.94A13.94,13.94,0,0,0,135.35,314h-5.47L108,314h-.79a.49.49,0,0,0,0,.19.74.74,0,0,0,.05.25.32.32,0,0,0,0,.19H108l21.93,0c3.64.14,7.39-.46,10.69,1A13.43,13.43,0,0,1,148,323a13.18,13.18,0,0,1-.21,10.38,13.81,13.81,0,0,1-3.08,4.32c-.64.61-1.36,1.19-2.06,1.81s-1.32,1.28-1.95,2a28.85,28.85,0,1,0,42.79,0c-.61-.68-1.28-1.32-1.95-2s-1.42-1.18-2.06-1.79a14,14,0,0,1-3.08-4.34,13.1,13.1,0,0,1-.21-10.38,13.39,13.39,0,0,1,7.38-7.36c3.3-1.43,7-.84,10.69-1l21.94,0h44.17V314ZM216.15,314l-21.94,0h-5.47a14.24,14.24,0,0,0-5.48,1,14,14,0,0,0-7.57,18.68,15.07,15.07,0,0,0,3.24,4.55c.69.66,1.39,1.21,2.06,1.82s1.31,1.25,1.92,1.92a28.12,28.12,0,1,1-41.71,0,26.46,26.46,0,0,1,1.9-1.92c.67-.61,1.37-1.16,2.06-1.82a15,15,0,0,0,3.24-4.56,13.82,13.82,0,0,0,.19-10.94A13.94,13.94,0,0,0,135.35,314h-5.47L108,314h-.79a.49.49,0,0,0,0,.19H108l21.93,0h5.47a14.17,14.17,0,0,1,5.42,1,13.73,13.73,0,0,1,7.43,18.39,14.17,14.17,0,0,1-3.19,4.48,41.62,41.62,0,0,0-4,3.75,28.29,28.29,0,1,0,42,.05c-.61-.67-1.27-1.31-1.92-1.93s-1.39-1.17-2.08-1.8a14.86,14.86,0,0,1-3.2-4.52,13.8,13.8,0,0,1-.23-10.86,13.9,13.9,0,0,1,13.16-8.68h5.47l21.94,0,43.56,0Z"/></g><path class="cls-2" d="M470.51,223.83q-5.25,10.47-10.85,19.33l-26.83-9.74a13.67,13.67,0,0,1-8.19-17.51,13.52,13.52,0,0,1,3.38-5.14,14.48,14.48,0,0,1,5.29-3.19,28.51,28.51,0,1,0-34-12.33,13.92,13.92,0,0,1,1.3,11.95,13.67,13.67,0,0,1-17.5,8.18L315.88,191l24.41-67.24a13.69,13.69,0,0,0-8.2-17.52,13.53,13.53,0,0,0-6.1-.7,14.73,14.73,0,0,0-5.85,2,28.51,28.51,0,1,1,12.33-34,14,14,0,0,0,8.33,8.67A13.7,13.7,0,0,0,358.33,74L382.73,6.8h.07c30.38,11,53,28.42,69.19,49.08a153.42,153.42,0,0,1,25.63,49.61C490.57,147.76,485.87,193.05,470.51,223.83Z"/><path class="cls-9" d="M517.27,712.87c.18,3.13-8.75,3.85-12.43,1.77a86.9,86.9,0,0,1-8.45-7.21c-8.78-8.07-20.92-19.86-20.92-19.86l-9.23,3.94-37.66,13.73-25.26-48.81s21.8-8.75,42.52-16.56c3.18-1.2,6.32-2.36,9.38-3.48l.57-.21c13.9-5,25.41-8.86,26.56-8C485.47,630.43,517.09,709.73,517.27,712.87Z"/><path class="cls-10" d="M517.27,712.87c.18,3.13-8.75,3.85-12.43,1.77a86.9,86.9,0,0,1-8.45-7.21c9.3-1.07-34.64-62.95-40.6-71.25,13.9-5,25.41-8.86,26.56-8C485.47,630.43,517.09,709.73,517.27,712.87Z"/><path class="cls-6" d="M457.94,700.38s-97.59,20.51-133.22,13.4c-17.05-3.41-29-25.65-20.45-42.36,8-15.59,55.17-30.68,68.59-39.69,4.23-2.82,4-14.34,4-14.34l34.82.19s12,19.94,6.61,29.44a2.72,2.72,0,0,1-.31.47l15.82-5.67Z"/><path class="cls-10" d="M436.92,673.7c-3.72-8.49-7.82-16.79-11.6-25.25-.07-.16-.33-.08-.26.09,3.56,8.52,6.83,17.15,10.54,25.6s7.77,16.82,11.67,25.22c.1.21.45.11.36-.12C444,690.73,440.62,682.16,436.92,673.7Z"/><path class="cls-10" d="M418.2,647.9c-2.42,1.35-4.74,2.93-7.1,4.39s-4.67,2.87-7.05,4.23c-4.8,2.73-9.71,5.28-14.68,7.7a248.48,248.48,0,0,1-30.92,12.64c-5.9,1.95-11.86,3.85-17.91,5.24-.14,0-.08.23,0,.2,4.41-1,8.82-1.92,13.18-3.06-2.33,1.4-4.61,2.87-6.93,4.3a.11.11,0,0,0,.11.18c2.53-1.46,5.09-2.87,7.6-4.37a.24.24,0,0,0,.08-.35l2.24-.6c5.4-1.57,10.74-3.33,16-5.35a195.19,195.19,0,0,0,30-14.46c2.7-1.61,5.37-3.25,8-5a72.62,72.62,0,0,0,7.6-5.41C418.63,648.06,418.4,647.79,418.2,647.9Z"/><path class="cls-9" d="M554.35,725.51c.18,3.12-8.75,3.85-12.43,1.76a84.19,84.19,0,0,1-8.45-7.21c-8.78-8.06-20.92-19.86-20.92-19.86l-9.23,3.95-37.66,13.73-25.27-48.81s21.8-8.75,42.52-16.56c3.19-1.2,6.33-2.36,9.39-3.49l.56-.21c13.9-5,25.41-8.85,26.57-8C522.55,643.06,554.17,722.36,554.35,725.51Z"/><path class="cls-10" d="M554.35,725.51c.18,3.12-8.75,3.85-12.43,1.76a84.19,84.19,0,0,1-8.45-7.21c9.3-1.07-34.64-62.94-40.61-71.25,13.9-5,25.41-8.85,26.57-8C522.55,643.06,554.17,722.36,554.35,725.51Z"/><path class="cls-6" d="M388.84,617.39l59.87.22s12.1,32.54,6.66,42-60.83,22.22-60.83,22.22l76.34-27.42L495,713s-92.53,18.37-141.32,12.47c-18.31-2.21-29.38-26.38-18.28-44.6C347.08,661.72,388.59,636,388.59,636Z"/><path class="cls-10" d="M468.91,654.27c-23.4,10.17-47,19.87-71.09,28.26-3.35,1.16-6.7,2.32-10.06,3.45s-6.94,2.54-10.5,3.47a.14.14,0,0,0,.08.27c3.07-1.09,6.25-1.85,9.37-2.8s6.09-1.89,9.12-2.88l3.92-1.31c-.27.18-.53.36-.8.52-1.21.78-2.41,1.56-3.6,2.36-2.46,1.66-4.75,3.64-7.32,5.11-.16.09,0,.34.15.24,2.44-1.67,5.19-2.9,7.7-4.48,1.22-.76,2.41-1.56,3.6-2.37a24.06,24.06,0,0,0,3.17-2.35c3.84-1.3,7.67-2.61,11.48-4q18-6.49,35.6-14c6.54-2.82,13-5.75,19.45-8.87C469.51,654.71,469.25,654.12,468.91,654.27Z"/><path class="cls-10" d="M475.34,685.85c-3.71-8.49-7.81-16.79-11.6-25.25-.07-.16-.33-.08-.26.09,3.56,8.52,6.84,17.15,10.55,25.6s7.76,16.82,11.67,25.22c.1.21.45.11.35-.12C482.46,702.89,479,694.31,475.34,685.85Z"/><path class="cls-10" d="M387.5,636.6a163.43,163.43,0,0,0-19.14,12.19c-6.09,4.34-12,8.94-17.63,13.85-2.84,2.48-5.6,5.07-8.26,7.74a60.29,60.29,0,0,0-7,8.19,29.23,29.23,0,0,0-5.31,18.17,31.36,31.36,0,0,0,2.19,10,36.88,36.88,0,0,0,5.39,8.67c.08.1.24,0,.15-.15a23.35,23.35,0,0,1-4.53-8.28,31.12,31.12,0,0,1-1.69-8.76,30.68,30.68,0,0,1,4.52-17.55c3.79-6,9.29-11,14.51-15.74a216,216,0,0,1,16.91-13.87c3.29-2.44,6.64-4.8,10-7.12s6.82-4.55,10.12-7A.22.22,0,0,0,387.5,636.6Z"/><path class="cls-10" d="M404.85,639.33c-4.84-1.78-10.14-2.55-15.24-3.21s-10.19-1-15.32-1.2c-.14,0-.13.2,0,.21,5.19.56,10.37,1.31,15.51,2.18,5,.84,10,2,15,2.51C405.09,639.85,405.1,639.42,404.85,639.33Z"/><path class="cls-10" d="M441.22,642.82a74.31,74.31,0,0,1-9.52-1.05c-2.61-.42-5.28-.86-7.43-2.53-4.18-3.26-5.81-8.9-6.61-13.91,0-.12-.23-.09-.21,0,.62,5.45.75,11.7,5.46,15.44,2.33,1.85,5.17,2.45,8.08,2.69a50.73,50.73,0,0,0,10.23-.44A.12.12,0,0,0,441.22,642.82Z"/><path class="cls-10" d="M452,649.55a64.38,64.38,0,0,0-1.5-9.37q-1.05-4.75-2.48-9.42c-1.07-3.52-2.32-7-3.64-10.43a.1.1,0,1,0-.2.06c1.87,5.81,3.56,11.7,5,17.65.69,2.94,1.3,5.91,1.83,8.89a18.37,18.37,0,0,1-.11,8.69A15.23,15.23,0,0,1,445.9,663s0,.06,0,0A15.66,15.66,0,0,0,452,649.55Z"/><path class="cls-10" d="M461.88,667.49c-4.06,1-8,2.3-12,3.51s-8,2.43-12,3.68c-8,2.5-15.94,5.08-23.89,7.67-4.52,1.46-9,3-13.5,4.58-.12.05-.07.25.06.21q24.09-7,47.9-14.9c4.51-1.49,9.08-2.86,13.49-4.6A.08.08,0,0,0,461.88,667.49Z"/><path class="cls-10" d="M370.58,545.82c-1.12-3.27-2.15-6.59-3-10a96,96,0,0,1-3.79-14.45c-1.42-8.09-2.62-18,3.83-24.26A29.19,29.19,0,0,1,378.28,491c4-1.45,8.45-2.55,12.7-1.37a11.07,11.07,0,0,1,4.52,2.47,27.26,27.26,0,0,1,8.71,2.07c3.32.84,6,3.73,7.9,6.42a45.38,45.38,0,0,1,5.2,10.63c1.26,3.46,2.3,6.92,2.15,10.64a57.63,57.63,0,0,1-1.56,9.58c-.81,3.83-1.49,7.72-.93,11.64,0,.13-.18.18-.21,0-1.07-6.24,1.23-12.37,1.91-18.52a24.82,24.82,0,0,0-1-10.38A60.28,60.28,0,0,0,413,503.07c-1.68-3-4.06-6.29-7.21-8l.16.1c3.64,2.43,5.77,6.45,7.46,10.35a48.77,48.77,0,0,1,4,13.67,46.26,46.26,0,0,1-.75,12.91c-.7,4.26-1.48,8.59-1,12.93.46,4.57,2.44,8.76,4.47,12.82s4.08,7.85,5,12.17a19.13,19.13,0,0,1-1,11.67c-2.9,6.82-10.89,13.29-18.57,10a24.46,24.46,0,0,1-5.27-3.31,59.81,59.81,0,0,1-5.05-4.34,74.23,74.23,0,0,1-9.18-10.77,139.84,139.84,0,0,1-13.45-24.65q-1.41-3.16-2.69-6.38a137.15,137.15,0,0,0,5.66,14.55c3.92,8.52,8.56,17,14.85,24.07a61.64,61.64,0,0,0,5.19,5.16c2,1.75,4.15,3.28,6.26,4.9a.12.12,0,0,1-.13.21,48.08,48.08,0,0,1-10.45-8.52,65.69,65.69,0,0,1-8.5-11.06A127.61,127.61,0,0,1,370.58,545.82Z"/><path class="cls-9" d="M394.46,563.92c-11.18,27.17-29.47,54.39-35.77,56.94-8.66,3.5-50-18.44-60.49-22.93-4.26-1.81,16.74-33.81,20.9-31.14,10.34,6.65,32.1,16.85,32.6,17.18,1,.68,25-22,31.7-29.07C398.37,539.16,400,550.43,394.46,563.92Z"/><path class="cls-9" d="M326.86,573.37S320.6,565,317,562s-21-9.59-22.65-5.9c-2.1,4.77,7.24,10.52,12.19,12.74,0,0-4.86,11,.95,16.61S326.86,573.37,326.86,573.37Z"/><path class="cls-9" d="M301.47,599.4c-3.71-1.51-20.09-9.93-24.13-13.29s-14.94-13.87-12.68-17.23,5.7-.52,5.7-.52-3.9-5.17-1.32-8.34,7.79,1.4,7.79,1.4-3.62-5.6-.82-8.57,7.27,2.49,7.27,2.49-3.55-5-.21-6.44c4-1.78,9.53,8.11,14.26,11.49,1.07.77,22.89,14,22.89,14Z"/><path class="cls-10" d="M282.89,554.88c4.07,7.27,7.1,9.74,14.31,13.66.14.07.06.3-.09.23-7.41-3.19-11.67-5.74-14.59-13.71C282.38,554.67,282.69,554.53,282.89,554.88Z"/><path class="cls-10" d="M276.52,560.84c4.88,7.18,8.15,9.89,15.4,14.54.1.07,0,.25-.11.19-7.49-4-11.68-6.61-15.62-14.43C276,560.79,276.29,560.51,276.52,560.84Z"/><path class="cls-10" d="M270.74,568.58c5.23,6.61,8.69,9.74,16.3,13.35a.16.16,0,0,1-.11.29c-8.13-2.93-12.47-6.8-16.38-13.46C270.29,568.31,270.41,568.16,270.74,568.58Z"/><path class="cls-10" d="M294.24,557.56c1.23,5.73,7.9,8.22,12.54,10.73a.49.49,0,0,1,.12.79c-1.72,4.75-2.78,12,.3,16.33a.12.12,0,0,1-.19.16c-3.93-4.23-3.48-11.41-1.25-16.49-4.79-2.51-11.38-5.3-11.57-11.51C294.19,557.53,294.24,557.52,294.24,557.56Z"/><path class="cls-2" d="M383.4,595.65l-18.46-27.47a211.36,211.36,0,0,1,18.29-17.7c10.9-9.4,17.43-6.17,12.95,12.71A123.17,123.17,0,0,1,383.4,595.65Z"/><path class="cls-4" d="M383.4,595.65l-18.46-27.47a211.36,211.36,0,0,1,18.29-17.7c10.9-9.4,17.43-6.17,12.95,12.71A123.17,123.17,0,0,1,383.4,595.65Z"/><path class="cls-10" d="M369,565.48c1.6,1.87,2.92,4,4.36,6s2.74,3.83,4.05,5.79q4.06,6.09,7.87,12.35c.05.07-.07.16-.12.09-2.83-3.92-5.59-7.88-8.32-11.87-1.35-2-2.65-4-3.95-6s-2.84-4.08-4-6.26A.07.07,0,0,1,369,565.48Z"/><path class="cls-2" d="M454.45,630.46c-2.38,1.57-82.58.66-82.58.66l3.23-30.25s-6.63-7.09-6.82-15.62c-.27-11.4,13-32.33,14.25-33.79,5.08-5.85,10.41-8,16.32-6.65C423.48,550.27,454.45,630.46,454.45,630.46Z"/><path class="cls-10" d="M394.71,595.18a49.7,49.7,0,0,0-9,1.7c-1.46.44-2.9,1-4.34,1.53-.72.29-1.44.54-2.17.79a7.77,7.77,0,0,1-2.31.5c-.07,0-.07.14,0,.14a12.66,12.66,0,0,0,2.22,0,13.16,13.16,0,0,0,2.12-.46c1.49-.44,3-1,4.45-1.41,3-.91,6-1.82,9-2.46C394.88,595.46,394.86,595.16,394.71,595.18Z"/><path class="cls-10" d="M402.09,598.65a53.31,53.31,0,0,0-7.46-.58,36.08,36.08,0,0,0-3.74.22c-.59.07-1.19.14-1.78.23s-1.3.29-1.95.37c-.07,0-.07.15,0,.14.62,0,1.24,0,1.86,0l1.87,0c1.24,0,2.49,0,3.73,0,2.49-.07,5-.1,7.47-.06C402.22,598.91,402.22,598.67,402.09,598.65Z"/><path class="cls-9" d="M399.2,547.06c-.17,1.42-5.84,11.11-12.2,11.48-2.08.12-3.22-11.17-3.22-11.17l-.27-.81-3.84-11.39,14.64-11.61S399.27,546.46,399.2,547.06Z"/><path class="cls-10" d="M379.67,535.16l3.84,11.4A24.19,24.19,0,0,0,396,531.38c-.84-4-1.56-7.27-1.66-7.76a.21.21,0,0,1,0-.06l-1.87,1.37Z"/><path class="cls-9" d="M360.1,520.57c.48,21.09,13.17,23.18,17.72,23.08,4.13-.1,18.17-1,19.87-22s-8.26-27.47-17.71-27.74S359.61,499.47,360.1,520.57Z"/><path class="cls-10" d="M362.5,517.88a12.25,12.25,0,0,0,1.34-.57,2.45,2.45,0,0,0,1.26-.85.77.77,0,0,0-.18-.9,1.88,1.88,0,0,0-1.89-.06,2.76,2.76,0,0,0-1.49,1.28A.8.8,0,0,0,362.5,517.88Z"/><path class="cls-10" d="M377.22,517.45a11.81,11.81,0,0,1-1.45-.12,2.34,2.34,0,0,1-1.46-.4.76.76,0,0,1-.11-.91,1.85,1.85,0,0,1,1.77-.66,2.75,2.75,0,0,1,1.82.74A.8.8,0,0,1,377.22,517.45Z"/><path class="cls-10" d="M374,520.81c0-.06.12.06.12.12,0,1.43.36,3.07,1.69,3.45,0,0,0,.09,0,.08C374.24,524.35,373.86,522.18,374,520.81Z"/><path class="cls-10" d="M375.22,519.22c2.29-.33,2.79,4.28.67,4.59S373.29,519.5,375.22,519.22Z"/><path class="cls-10" d="M376.15,519.37c.43.21.87.63,1.36.63s.94-.54,1.26-1c0-.05.08,0,.08,0,.11.88-.13,1.83-1.06,2.06s-1.56-.5-1.87-1.36C375.86,519.54,376,519.28,376.15,519.37Z"/><path class="cls-10" d="M366.16,521.32c0-.06-.1.08-.09.13.21,1.43.21,3.09-1,3.71,0,0,0,.1,0,.08C366.62,524.84,366.59,522.63,366.16,521.32Z"/><path class="cls-10" d="M364.71,520c-2.31.1-1.95,4.72.19,4.64S366.65,519.9,364.71,520Z"/><path class="cls-10" d="M363.77,520.35c-.34.28-.67.75-1.11.81s-.91-.4-1.27-.85c0,0-.07,0-.07.05,0,.89.41,1.79,1.27,1.89s1.3-.71,1.44-1.6C364.06,520.48,363.91,520.24,363.77,520.35Z"/><path class="cls-10" d="M375.73,533.32c-.29.38-.56.89-1.07,1a4,4,0,0,1-1.58-.12c-.05,0-.09,0-.05.08a1.92,1.92,0,0,0,1.92.49,1.52,1.52,0,0,0,.92-1.43C375.88,533.27,375.77,533.26,375.73,533.32Z"/><path class="cls-10" d="M369.05,528.6s-.09,2.17,0,3.17c0,.1.26.12.6.1h0a4.79,4.79,0,0,0,4.48-2.24c.06-.1-.08-.19-.16-.12a7.24,7.24,0,0,1-4.26,1.67c-.09-.27.28-3.7.12-3.69a8.27,8.27,0,0,0-2.24.74c.05-4.52.83-9,.81-13.48a.14.14,0,0,0-.27,0c-1.14,4.63-1.31,9.82-1.49,14.48C366.66,529.77,368.66,528.81,369.05,528.6Z"/><path class="cls-10" d="M370.2,531.46a5.43,5.43,0,0,0,2.29,1.52,2.45,2.45,0,0,0,1.49,0c1-.36,1-1.35.74-2.17a5.91,5.91,0,0,0-.57-1.25A7.05,7.05,0,0,1,370.2,531.46Z"/><path class="cls-11" d="M372.49,533a2.45,2.45,0,0,0,1.49,0c1-.36,1-1.35.74-2.17A2.53,2.53,0,0,0,372.49,533Z"/><path class="cls-10" d="M396.79,521c-2.28.08-8.77-5.64-10-16.59,0,0,1.74,9.76,2.61,11.14s-3.63-3.22-4.7-12c0,0-4.58,4-8.65,5.54s-6.64,1.75-7,1.47,5.64-2.77,7.13-4.84c0,0-10.64,6.18-15.73,7-.59.1-1.07-11,6.38-16.88s19.17-2.5,22.84.45c0,0,4,.2,8.85,5.67S399.26,521,396.79,521Z"/><path class="cls-9" d="M394.38,523.35s3.85-7.05,7-5.74.75,11.17-2.59,12.85a3.57,3.57,0,0,1-5-1.38Z"/><path class="cls-10" d="M400.63,520.42c.05,0,.07.07,0,.09-2.34,1.26-3.38,3.67-4,6.12a2,2,0,0,1,2.87-.86c.07,0,0,.15-.05.14a2.19,2.19,0,0,0-2.32,1,10.71,10.71,0,0,0-.94,2.07c-.09.23-.5.16-.44-.1v-.06C395.37,525.73,397.31,521.1,400.63,520.42Z"/><path class="cls-6" d="M353.91,589s-30.06,15.6-66.52,15.6c-37.93,0-65.94-15.55-65.94-15.55V563.19l132.46,0Z"/><path class="cls-9" d="M406.22,568.61c-11.58,27-26.33,49.47-32.67,51.93-8.7,3.38-40.57,2.56-51.23,1.18-4.59-.59-.22-36.17,4.69-35.57,12.53,1.53,35.66,1.56,36.16,1.89,1,.7,25.27-21.63,32.11-28.61C410.48,543.92,412,555.2,406.22,568.61Z"/><path class="cls-12" d="M376.65,576.79A125.19,125.19,0,0,1,364.05,588a2,2,0,0,1-.94.37l-.85,0-1.68-.07c-10.4-.47-23.24-1.22-33.57-2.12,10.35.22,23.22.86,33.6,1.44l1.68.09.83,0c.09,0,.38-.13.59-.26,4.29-3,8.9-7.29,12.94-10.66Z"/><path class="cls-9" d="M300.55,586.41c2.37-.56,2.09-1.81-1.84-3.62s-21-5.66-19.18-11.51,25.88-.08,32.19,3.44S327,586.15,327,586.15C322.11,586,310.17,586.65,300.55,586.41Z"/><path class="cls-9" d="M322.32,621.72c-14.11-.71-31.64-1.3-44.47-10.19a7.7,7.7,0,0,1-3.08-4c-5.82-3.89-5.74-7.8-5.74-7.8-4.31-5.28-3.67-9.27-3.67-9.27s-6.78-4.63-4.66-9.19c2.36-5.13,11.42,2.38,18.93,3.47,17.2,2.47,42.35,1.19,47.38,1.41Z"/><path class="cls-10" d="M295.83,600a111.68,111.68,0,0,1-14.94-3c-5.38-1.66-10.29-4.16-15.34-6.57a.13.13,0,0,0-.14.23c8.46,5.83,20.14,9.32,30.39,9.59C296.05,600.24,296.09,600.05,295.83,600Z"/><path class="cls-10" d="M295.84,610.6c-4.86-1.08-13.4-3-26.72-11,0,0-.1,0-.06.07a53.13,53.13,0,0,0,26.73,11.18C296.1,610.88,296.17,610.68,295.84,610.6Z"/><path class="cls-10" d="M295.74,616.3c-8.2-2.15-13.1-4.55-20.93-8.79,0,0-.09,0-.05.08,8.39,5.75,12.08,6.89,20.95,9C296,616.67,296.06,616.38,295.74,616.3Z"/><path class="cls-2" d="M394.7,600.18l-18.06-27.74A214.31,214.31,0,0,1,395.17,555c11-9.24,17.53-5.91,12.77,12.9A123.25,123.25,0,0,1,394.7,600.18Z"/><path class="cls-10" d="M380.69,569.8c1.57,1.9,2.87,4.05,4.28,6.08s2.68,3.87,4,5.84c2.66,4.11,5.22,8.25,7.7,12.47,0,.07-.08.15-.13.08q-4.14-5.94-8.14-12c-1.32-2-2.6-4-3.87-6.09s-2.78-4.12-3.92-6.31C380.53,569.81,380.64,569.73,380.69,569.8Z"/><path class="cls-10" d="M392.14,596.23c.12.09,2.49,3.65,2.52,3.7,2-4.06,4-7.87,5.92-12a137.78,137.78,0,0,0,5-12.88q1.26-3.74,2.31-7.54c0-.06.09,0,.08,0q-.68,3.34-1.57,6.63c.45-1.05.85-2.12,1.21-3.21a.09.09,0,0,1,.17,0,18,18,0,0,1-1.79,4.57,100.92,100.92,0,0,1-7.32,18.26,54.78,54.78,0,0,1-4.05,6.91s-2.56-4.33-2.6-4.48S392.09,596.19,392.14,596.23Z"/><path class="cls-10" d="M378.67,569.7c.83-.88,1.68-1.73,2.55-2.57l.54-.52a43.31,43.31,0,0,1,2.67-3.66,0,0,0,0,1,.07,0c-.6,1-1.28,1.93-2,2.86a55.26,55.26,0,0,1,4.15-3.65c.05,0,.1,0,.06.06-1.61,1.8-3.36,3.48-5,5.21-.82.84-4.93,4.88-4.9,4.94s1.62,2.7,1.66,2.88,0,.12-.08.06l-2.14-3.11S378,570.45,378.67,569.7Z"/><path class="cls-13" d="M-68.47,743c.35-3.16,36.65-81.39,39.92-83.48,1.23-.82,12.94,3.8,26.93,9.8l.43.19c2.89,1.23,56.1,15.52,56.1,15.52l-23.58,51.2-55.37-16-.85-.42S-52.18,743.59-56,745.52-68.83,746.2-68.47,743Z"/><path class="cls-1" d="M8.93,672.52l-24.26,50.27L-24,720.27l-.85-.41S-52.18,743.59-56,745.52s-12.81.68-12.44-2.47,36.64-81.4,39.91-83.49c1.23-.82,12.94,3.8,26.93,9.8l.43.19C-.47,669.86,3.46,671,8.93,672.52Z"/><path class="cls-10" d="M117.35,518.06s-1,30.67-5.57,45.77c0,0-5,2.64-6.52,3.58,0,0,38.09,91.22,35.92,126.31-.71,11.51-13,26.07-26.11,34.26C91.78,742.47-15.3,734.11-15.3,734.11L1.19,665.76s64.49,4,66.3.11c2.3-4.94-12-43.3-23.44-74.48-1.15-3.15-12.65-14.77-11.31-35.79a108.83,108.83,0,0,1,9.89-37.54Z"/><path class="cls-6" d="M14.31,673.35c15.68-.29,28.46,1,44.14,1H68.82a17.54,17.54,0,0,0,4.09-.36,5.11,5.11,0,0,0,3.16-1.88c1-1.55.48-3.53.12-5.21q-1.18-5.54-2.65-11c-4-14.81-9.11-29.28-14-43.82l-7.5-22.45c-.61-1.82-1.22-3.64-2-5.4a44.84,44.84,0,0,0-2.46-4.71,43.57,43.57,0,0,1-4.26-9.25c-4.24-13.94-.16-28.37,4.8-41.52.66-1.77,1.35-3.52,2.07-5.27,0-.12.24-.07.2.06-4.52,13.89-9.91,28.33-6.88,43.16a35.82,35.82,0,0,0,3.63,10c.86,1.59,1.82,3.13,2.66,4.73a38.9,38.9,0,0,1,2.19,5c2.66,7.36,5,14.85,7.5,22.26,4.95,14.76,10.16,29.48,14.29,44.49q1.55,5.61,2.83,11.28c.62,2.79,2,6.59-.42,8.9-1.78,1.69-4.58,1.9-6.9,1.91-3.91,0-7.82,0-11.73,0-15.9,0-41.34-1.38-43.32-1.42A.28.28,0,0,1,14.31,673.35Z"/><path class="cls-6" d="M-3.23,730.93c1.54-8,3-16,4.78-23.94s3.68-15.89,5.74-23.78c.58-2.23,1.19-4.45,1.78-6.68.28-1.06.57-2.12.88-3.17a26.59,26.59,0,0,1,1-3.18c0-.12.2,0,.19.06A44.09,44.09,0,0,1,10,676.36c-.39,1.93-.76,3.86-1.16,5.79Q7.66,688.09,6.36,694c-1.73,7.92-3.7,15.77-5.72,23.62Q-1.07,724.32-2.82,731C-2.89,731.25-3.28,731.2-3.23,730.93Z"/><path class="cls-6" d="M128.13,629.82l-80.7-29.23q-1.71-4.67-3.37-9.2c-1.17-3.14-12.65-14.77-11.32-35.79a108.83,108.83,0,0,1,9.89-37.54h74.72s-1,30.67-5.58,45.76c0,0-5,2.65-6.51,3.59C105.26,567.41,117.83,597.53,128.13,629.82Z"/><path class="cls-13" d="M250.81,746.72c-3,.91-89.23-1.94-92.44-4.13-1.24-.82-1.55-13.4-1.5-28.61,0-.16,0-.32,0-.48,0-3.14,1.36-55.71,1.36-55.71l60.33,1.82-6.06,55.11-.06.94s32.51,15.85,35.78,18.63S253.86,745.82,250.81,746.72Z"/><path class="cls-1" d="M250.82,746.73c-3,.91-89.24-2-92.45-4.14-1.23-.82-1.56-13.4-1.5-28.61v-.49c0-.85,0-5.12.26-11.58l56.55,2.17-1.17,10.63-.06.95s32.51,15.85,35.79,18.63S253.86,745.81,250.82,746.73Z"/><path class="cls-2" d="M251.47,747.09c-3.07.92-90.11-2-93.36-4.19-1.24-.83-1.55-13.53-1.5-28.89l56.12,1.71s32.83,16,36.13,18.82S254.55,746.18,251.47,747.09Z"/><path class="cls-10" d="M250.34,743.57c-14.58-.84-73.46-2.87-87.93-2.6-.12,0-.12.08,0,.09,14.43,1.15,73.32,2.71,87.92,2.75C250.64,743.81,250.65,743.59,250.34,743.57Z"/><path class="cls-10" d="M243.37,731.22a11.77,11.77,0,0,0-8.85,3.27,11.38,11.38,0,0,0-3.52,7.69c0,.08.16.09.18,0a13.56,13.56,0,0,1,12.18-10.78A.09.09,0,0,0,243.37,731.22Z"/><path class="cls-10" d="M218.34,717.36c-5.84-.28-12.68,1.56-16.46,6.21-.15.19.11.39.28.31a80.54,80.54,0,0,1,16.26-5.8A.37.37,0,0,0,218.34,717.36Z"/><path class="cls-10" d="M222.79,719.27c-5.84-.28-12.68,1.56-16.46,6.21-.15.18.11.39.28.31a80.54,80.54,0,0,1,16.26-5.8A.37.37,0,0,0,222.79,719.27Z"/><path class="cls-10" d="M227.24,721.18c-5.84-.28-12.68,1.56-16.46,6.21-.15.18.11.39.28.3a81.12,81.12,0,0,1,16.26-5.79A.37.37,0,0,0,227.24,721.18Z"/><path class="cls-10" d="M231.69,723.08c-5.84-.27-12.68,1.56-16.46,6.22-.15.18.11.38.28.3a81.15,81.15,0,0,1,16.26-5.8A.37.37,0,0,0,231.69,723.08Z"/><path class="cls-10" d="M166.59,727.24c-6.56-.2-6.88,10-.31,10.18S173.15,727.44,166.59,727.24Z"/><path class="cls-10" d="M225.17,702c-2.87-2.55-6.68-.28-8.59,2.2a30.76,30.76,0,0,0-5.8,14.76.15.15,0,0,0,.18.17.71.71,0,0,0,1,.51c4.26-2.74,9.14-5.14,12.43-9.1C226.34,708.22,227.89,704.4,225.17,702Zm-7.58,12.17c-2.06,1.4-4.17,2.69-6.18,4.16a91.31,91.31,0,0,1,3.58-8.55,33.85,33.85,0,0,1,2.26-3.86c1.34-1.89,7.23-6.58,7.6-.21C225.05,709.22,220.05,712.49,217.59,714.16Z"/><path class="cls-10" d="M196.2,720.63c5.06,1,10.35-.32,15.37-.93a.72.72,0,0,0,.48-1.05.16.16,0,0,0,0-.25,30.66,30.66,0,0,0-13.89-7.65c-3.05-.69-7.43,0-8,3.78C189.61,718.13,193.25,720.08,196.2,720.63Zm-3.41-3.44c-3.79-5.14,3.74-5.29,6-4.69A31.11,31.11,0,0,1,203,714a88.82,88.82,0,0,1,8.21,4.29c-2.48.15-4.93.51-7.41.75C200.82,719.35,194.87,720,192.79,717.19Z"/><path class="cls-10" d="M217.42,710.51h-67.5s12-91.88,8-97.88c-1.75-2.63-89.37,6.15-115-21.62-23.43-25.38.42-73,.42-73h71.92s1.47,20.39,5.34,28.54c1.65,3.49,82-1.48,94.57,21.47C232,598.75,217.42,710.51,217.42,710.51Z"/><path class="cls-6" d="M157,697.68c7.61-.23,15.25-.53,22.88-.52s15.28.16,22.92.47c2.16.08,8.53.38,9.56.46a24.93,24.93,0,0,1,3.11.26.11.11,0,0,1,0,.21c-1.65.28-18.93.48-22.72.49-7.6,0-15.18-.2-22.78-.47l-12.94-.49C156.82,698.08,156.79,697.68,157,697.68Z"/><path class="cls-6" d="M112.33,540.08q-.45-3.24-.84-6.48c-.58-4.93-1.09-9.9-1.24-14.86,0-.39.54-.36.59,0,.46,3.83.81,7.67,1.24,11.51s.77,7.66,1.48,11.42c.22,1.13.69,3,2.14,3.05,2,0,2.32-2.6,2.49-4a63.16,63.16,0,0,0,.19-10.74c-.21-4.07-.72-8.14-1.17-12.19,0-.15.22-.18.25,0,1.68,7.88,3.29,16.15,1.89,24.22-.27,1.57-1,3.25-2.61,3.8l-.08,0a.29.29,0,0,1,0,.13c0,.23,0,.46,0,.69a5.42,5.42,0,0,1,0,.57c0,.4,0,.8,0,1.2a.29.29,0,0,1-.58,0,.25.25,0,0,1-.22-.19,6.57,6.57,0,0,1,0-2.34,2.87,2.87,0,0,1-2.39-1.29C112.67,543.31,112.55,541.6,112.33,540.08Z"/><path class="cls-6" d="M119.49,545.92A115.76,115.76,0,0,0,104,558.65c-.18.18,0,.48.26.32,5.27-4.07,10.68-8.07,15.72-12.42A.4.4,0,0,0,119.49,545.92Z"/><path class="cls-6" d="M60.37,549.83a29.92,29.92,0,0,0,4.64-.35c1.36-.26,2.71-.64,4-1,2.49-.74,5.53-1.61,7.34-3.58a26.29,26.29,0,0,0,4.17-7.18A28.91,28.91,0,0,0,83,529.12c0-.13.22-.13.21,0a44.31,44.31,0,0,1-1.53,9.08,28.79,28.79,0,0,1-1.7,4.29,15.29,15.29,0,0,1-2.4,3.84c-2,2.17-5.3,3.23-8.12,3.79a25.35,25.35,0,0,1-9.15.06C60.11,550.14,60.18,549.84,60.37,549.83Z"/><path class="cls-6" d="M165.23,608.28a4,4,0,0,0-3.31-3.13,32.55,32.55,0,0,0-5.84-.12c-4.5,0-9,.09-13.49.1-17.71,0-35.57-.46-53-4a123.12,123.12,0,0,1-24.78-7.48c-6.76-2.92-13.52-6.94-17.73-13.15-4.85-7.16-5.23-16.53-5.06-24.9A94.94,94.94,0,0,1,46.37,529q1-3.29,2.33-6.48c0-.13-.15-.25-.2-.11a92.23,92.23,0,0,0-7,25.71,88.76,88.76,0,0,0-.6,13.14A50.29,50.29,0,0,0,42.53,574c4.59,15.67,22.15,22.15,36.35,26.13,17.09,4.79,34.92,6.12,52.59,6.38,8.89.13,17.78,0,26.66-.12,1.7,0,4.49-.5,5.5,1.28a9.89,9.89,0,0,1,.8,3.23c.19,1.25.33,2.51.42,3.77a106.53,106.53,0,0,1-.18,14.18q-.85,14.39-2,28.75c-.77,9.63-1.84,19.24-2.54,28.88-.18,2.36-.41,4.71-.63,7.07,0,.27.44.32.48.05,2.46-19,4.23-38.16,5.48-57.32.31-4.73.66-9.47.79-14.21A51.55,51.55,0,0,0,165.23,608.28Z"/><path class="cls-6" d="M122,611.81a148.5,148.5,0,0,1-17.92-1.31c-5.6-.7-11.19-1.46-16.75-2.41-9.67-1.66-19.56-3.47-28.7-7.16a50,50,0,0,1-13.83-8c-.11-.09-.27.07-.16.17,6.92,6.71,15.68,10.65,24.89,13.16a202.29,202.29,0,0,0,32.23,5.66,173.3,173.3,0,0,0,20.26.58A.34.34,0,0,0,122,611.81Z"/><path class="cls-14" d="M80.19,434.88C63,453.63,40.23,481.13,46,487.3c14.7,15.78,50.86,29.4,59.59,31.24,5.08,1.07,20.45-34.08,15.23-35.95-6.1-2.18-37.52-9.91-38.74-12.13-.92-1.68,9.66-22.56,11.34-29C97.54,425.49,88.14,426.18,80.19,434.88Z"/><path class="cls-2" d="M112.53,478.66l-14.35,41S48,498.94,44.69,485.41c-1.91-7.9,19.07-36.78,33.8-50.68,16.08-15.16,19.33-2.62,14.75,9.27-3.65,9.47-10.69,25.13-10,25.6S112.53,478.66,112.53,478.66Z"/><path class="cls-4" d="M85.47,477.27a13.12,13.12,0,0,0-4-.26,14,14,0,0,0,3.79,1.26,14.2,14.2,0,0,0,4,.28A14.49,14.49,0,0,0,85.47,477.27Zm-38.59-.7-.4.91a12.39,12.39,0,0,0,3.17.15A12.16,12.16,0,0,0,46.88,476.57Zm50.26,13.35a14.11,14.11,0,0,0,.26-4,13.8,13.8,0,0,0-1.27,3.76,13.54,13.54,0,0,0-.26,4A14.65,14.65,0,0,0,97.14,489.92ZM65.32,466.28a13.4,13.4,0,0,0,.28-4,13.58,13.58,0,0,0-1.29,3.77,14.28,14.28,0,0,0-.26,4A13.81,13.81,0,0,0,65.32,466.28Zm23.81-32.2a14,14,0,0,0,3-2.62,15.53,15.53,0,0,0-6.57,4.38A14,14,0,0,0,89.13,434.08Zm1.38,76.5a14.35,14.35,0,0,0,3-2.62A14,14,0,0,0,90,509.73a14.34,14.34,0,0,0-3,2.61A13.66,13.66,0,0,0,90.51,510.58ZM61.59,488.74a14.86,14.86,0,0,0,3-2.61A13.88,13.88,0,0,0,61,487.89a14.26,14.26,0,0,0-3,2.62A13.84,13.84,0,0,0,61.59,488.74Zm16.16,9.08a14.64,14.64,0,0,0-2.62-3,14.26,14.26,0,0,0,1.74,3.57,14,14,0,0,0,2.64,3A14,14,0,0,0,77.75,497.82Zm3.79-44.26a14.82,14.82,0,0,0-2.62-3,14.7,14.7,0,0,0,1.75,3.58,14.4,14.4,0,0,0,2.63,3A14.1,14.1,0,0,0,81.54,453.56Z"/><path class="cls-10" d="M96.77,496.09c1.06-3,2-6,3-8.95.48-1.44,1-2.87,1.39-4.32s1.06-3.13,1.41-4.72a.09.09,0,0,0-.16-.06c-.73,1.45-1.25,3-1.88,4.55s-1.1,2.81-1.64,4.23c-1.11,2.94-2.23,5.89-3.28,8.86-2.09,5.95-4,11.94-5.87,18a.12.12,0,0,0,.23.08C92.37,507.89,94.65,502,96.77,496.09Z"/><path class="cls-4" d="M69.05,505.64c-11.73-6.48-22.87-14.1-24.36-20.23-1.9-7.9,19.06-36.78,33.8-50.68,8.35-7.88,13.24-8.28,15.38-5.18Z"/><path class="cls-14" d="M107.59,442.26c-4.82.24-12.36-9.05-14.44-15.35-.14-.43,1.22-4.46,2.65-9.43.85-3,1.73-6.39,2.31-9.54l18.82,8.42a50.75,50.75,0,0,0-4.12,11.72,6.65,6.65,0,0,0-.1,1.31c0,.06,0,.14,0,.22C112.64,432.13,112.25,442,107.59,442.26Z"/><path class="cls-10" d="M112.71,429.39c0,.06,0,.14,0,.23a13.62,13.62,0,0,1-2-.27c-11.51-2.6-12.15-16.15-12-21.15l18.28,8.17a51.48,51.48,0,0,0-4.14,11.7A8.79,8.79,0,0,0,112.71,429.39Z"/><path class="cls-6" d="M95,397.12S82.24,409,84,411.37s19.44.26,23.46-2.49,11.81-14.58,11.81-14.58Z"/><path class="cls-14" d="M97.12,384.36c-3,6.81-1.63,27.63,2.85,32.77,6.51,7.44,18.35,9.46,25,1.37,6.42-7.84,4.19-34.95-.93-39.74C116.46,371.71,101.52,374.31,97.12,384.36Z"/><path class="cls-10" d="M116.34,399.09s-.11.07-.1.13c.11,1.4,0,3-1.25,3.55,0,0,0,.08,0,.08C116.54,402.56,116.67,400.4,116.34,399.09Z"/><path class="cls-10" d="M115,397.68c-2.27-.07-2.24,4.47-.14,4.53S116.92,397.74,115,397.68Z"/><path class="cls-10" d="M124.23,399c0-.05.11.07.11.12,0,1.41.17,3,1.44,3.48,0,0,0,.09,0,.08C124.22,402.48,124,400.34,124.23,399Z"/><path class="cls-10" d="M125.48,397.53c2.26-.18,2.47,4.35.37,4.52S123.58,397.69,125.48,397.53Z"/><path class="cls-10" d="M113.21,395.62A18.43,18.43,0,0,0,115,395a3,3,0,0,0,1.66-1,1,1,0,0,0-.16-1.16,2.39,2.39,0,0,0-2.4-.23,3.45,3.45,0,0,0-2,1.53A1,1,0,0,0,113.21,395.62Z"/><path class="cls-10" d="M127.22,395.24a18.44,18.44,0,0,1-1.81-.46,3,3,0,0,1-1.75-.81,1,1,0,0,1,0-1.17,2.39,2.39,0,0,1,2.37-.47,3.49,3.49,0,0,1,2.14,1.32A1,1,0,0,1,127.22,395.24Z"/><path class="cls-10" d="M114.94,411.87c.34.33.68.78,1.19.82a3.65,3.65,0,0,0,1.51-.37s.09,0,.06.07a1.87,1.87,0,0,1-1.78.78,1.5,1.5,0,0,1-1.11-1.23A.08.08,0,0,1,114.94,411.87Z"/><path class="cls-10" d="M116.39,407.65a4.77,4.77,0,0,0,3.21,2.11,6.19,6.19,0,0,0,1.72.07l.33,0,.31-.05a.37.37,0,0,0,.28-.32h0a.34.34,0,0,0,0-.14v-.14c0-1.08-.09-2.73-.09-2.73.39.2,2.41,1.09,2.38.53-.31-4.68-.66-9.88-2-14.47a.13.13,0,0,0-.26,0c.13,4.51,1,9,1.24,13.5a8.26,8.26,0,0,0-2.27-.67c-.15,0,.28,3.17.24,3.66a.18.18,0,0,1,0,0c-1.82.24-3.19-.3-5-1.5C116.42,407.45,116.31,407.54,116.39,407.65Z"/><path class="cls-10" d="M120.68,409.28a5.71,5.71,0,0,1-2.26,1.78,2.54,2.54,0,0,1-1.55.11c-1.13-.29-1.16-1.32-1-2.2a6.15,6.15,0,0,1,.49-1.36A7.32,7.32,0,0,0,120.68,409.28Z"/><path class="cls-11" d="M118.42,411.06a2.54,2.54,0,0,1-1.55.11c-1.13-.29-1.16-1.32-1-2.2A2.63,2.63,0,0,1,118.42,411.06Z"/><path class="cls-10" d="M96.82,403.05c3.78-1.2,5.34-14,5.34-14s.12,5.42,1.14,5.26,5-7.65,5.27-12.95a41.49,41.49,0,0,0,9.8,4.43c4.87,1.29,9.46,2.24,9.44,1.42-.07-2.44-2.6-9.25-6-11.42-3.9-2.49-8.83-4.76-16.63-1.5s-9.47,7.36-10.52,11.32S95.43,403.49,96.82,403.05Z"/><path class="cls-6" d="M120.21,373.84c-6.67-3.69-21.45-2.62-24.92,9a34.58,34.58,0,0,0-.59,15.45s9.09-8.07,12.58-9.59c8.9-3.85,20.7-2.5,20.7-2.5S126.2,377.15,120.21,373.84Zm-11.4,11.76c0-2,.76-4.94,5.13-5.68a5.15,5.15,0,0,1,6.11,3.85A35,35,0,0,0,108.81,385.6Z"/><path class="cls-14" d="M99.54,401.49s-4-7.05-7.14-5.7-.61,11.27,2.78,12.93a3.59,3.59,0,0,0,5-1.47Z"/><path class="cls-10" d="M93.2,398.62c-.06,0-.07.06,0,.09,2.37,1.24,3.45,3.65,4.13,6.11a2,2,0,0,0-2.9-.82c-.07,0,0,.14,0,.13a2.22,2.22,0,0,1,2.35,1,10.29,10.29,0,0,1,1,2.07c.1.23.51.15.45-.11l0-.06C98.57,403.9,96.55,399.26,93.2,398.62Z"/><path class="cls-2" d="M33.08,532.79c.17.27,90.85,15.85,91.83,15.05,1.38-1.11,3.24-92.92-11.56-112.89C109.7,430,96,423.37,91.08,425.86,78.37,432.33,69.56,448.61,64,458c-4.13,7-9.7,19.11-14.95,31.62C40.35,510.24,32.48,531.81,33.08,532.79Z"/><path class="cls-4" d="M93.48,461.44a13.32,13.32,0,0,0-1.06,3.84,13.22,13.22,0,0,0,2-3.44A13.61,13.61,0,0,0,95.48,458,13.55,13.55,0,0,0,93.48,461.44ZM54.85,482.13A14.19,14.19,0,0,0,53.79,486a13.26,13.26,0,0,0,2-3.44,13.49,13.49,0,0,0,1.05-3.84A14.13,14.13,0,0,0,54.85,482.13Zm49,58a13.73,13.73,0,0,0-1,3.84,14,14,0,0,0,2-3.43,14.83,14.83,0,0,0,1-3.85A14.07,14.07,0,0,0,103.88,540.11Zm-45.62-3c0,.07,0,.11-.07.17.35,0,.7.12,1.05.16a14.21,14.21,0,0,0,1-3.76A13.37,13.37,0,0,0,58.26,537.08Zm-23.2-9.31A14.85,14.85,0,0,0,34,531.61a13.27,13.27,0,0,0,2-3.45,13.73,13.73,0,0,0,1.05-3.84A14.42,14.42,0,0,0,35.06,527.77Zm48.53-19.38a14.37,14.37,0,0,0-1.07,3.84,12.75,12.75,0,0,0,2-3.44A13.59,13.59,0,0,0,85.59,505,14.17,14.17,0,0,0,83.59,508.39ZM75,443.55a13.06,13.06,0,0,0-1,3.85,14.44,14.44,0,0,0,2-3.46A13.44,13.44,0,0,0,77,440.12,14,14,0,0,0,75,443.55Zm47.07,20.22-.06,0a13.27,13.27,0,0,0-3.83-1.07,13.7,13.7,0,0,0,3.43,2l.64.24C122.18,464.54,122.12,464.15,122.05,463.77Zm-64,46.52a14.47,14.47,0,0,0-3.84-1.07,12.65,12.65,0,0,0,3.45,2,13.5,13.5,0,0,0,3.83,1.07A13.59,13.59,0,0,0,58.08,510.29Zm67.11,33.16a13.52,13.52,0,0,0-3.85-1.05,13.79,13.79,0,0,0,3.45,2l.55.23c0-.33.06-.68.08-1.06ZM92.36,527.32a13.7,13.7,0,0,0-3.85-1.05,14.14,14.14,0,0,0,3.45,2,13.72,13.72,0,0,0,3.85,1.06A14.51,14.51,0,0,0,92.36,527.32Zm27-25.57a13.73,13.73,0,0,0-3.83-1.06,15.65,15.65,0,0,0,7.29,3.07A13.88,13.88,0,0,0,119.33,501.75ZM84.05,478.17a13.7,13.7,0,0,0-3.84-1.06,13.48,13.48,0,0,0,3.45,2,13.76,13.76,0,0,0,3.84,1.07A13.64,13.64,0,0,0,84.05,478.17ZM49,525.89a13.52,13.52,0,0,0-2-3.46,15.29,15.29,0,0,0,3,7.31A13.67,13.67,0,0,0,49,525.89ZM95.19,434a13.69,13.69,0,0,0-2-3.46,14,14,0,0,0,1,3.83,13.84,13.84,0,0,0,2,3.48A13.76,13.76,0,0,0,95.19,434ZM111,478.39a13.9,13.9,0,0,0-2-3.46,15.18,15.18,0,0,0,3,7.31A13.85,13.85,0,0,0,111,478.39ZM80.38,539a14,14,0,0,0-2-3.46,14.19,14.19,0,0,0,1,3.85c.23.52.46,1,.73,1.55l.92.15A16.53,16.53,0,0,0,80.38,539Zm24.33-25.47a14.52,14.52,0,0,0-2-3.46,14.38,14.38,0,0,0,1,3.85,14.09,14.09,0,0,0,2,3.47A13.82,13.82,0,0,0,104.71,513.57Zm-34-19.21a14.2,14.2,0,0,0-2-3.48,14.23,14.23,0,0,0,1,3.87,14.79,14.79,0,0,0,2,3.46A13.76,13.76,0,0,0,70.72,494.36Zm-25.89,5.48c-.17.43-.35.85-.52,1.28a2.72,2.72,0,0,0,.37-.13,14,14,0,0,0,3.46-2A11.8,11.8,0,0,0,44.83,499.84ZM71,522.13a14.15,14.15,0,0,0-3.48,2,15.43,15.43,0,0,0,7.32-3A14,14,0,0,0,71,522.13Zm-2.6-56.68a13.8,13.8,0,0,0-3.45,2,14.35,14.35,0,0,0,3.86-1,14.12,14.12,0,0,0,3.46-2A13.9,13.9,0,0,0,68.36,465.45Zm47.94,62.74a14.15,14.15,0,0,0-3.48,2,14.09,14.09,0,0,0,3.85-1,13.43,13.43,0,0,0,3.46-2A14,14,0,0,0,116.3,528.19Zm-16.59-34.9a14.28,14.28,0,0,0-3.47,2,14.19,14.19,0,0,0,3.85-1,13.43,13.43,0,0,0,3.46-2A14,14,0,0,0,99.71,493.29Zm13.06-48a14.52,14.52,0,0,0-3.46,2,14.53,14.53,0,0,0,3.85-1,15.07,15.07,0,0,0,3.48-2A13.79,13.79,0,0,0,112.77,445.31Z"/><path class="cls-6" d="M208.69,464.9H246a2.64,2.64,0,0,1,2.64,2.64v7.25a0,0,0,0,1,0,0H206a0,0,0,0,1,0,0v-7.25A2.64,2.64,0,0,1,208.69,464.9Z" transform="translate(280.77 989.07) rotate(-160.05)"/><rect class="cls-6" x="214.82" y="473.48" width="10.02" height="34.19" transform="translate(259.11 1026.7) rotate(-160.05)"/><rect class="cls-15" x="207.25" y="461.83" width="44.76" height="3.47" transform="translate(287.33 977.67) rotate(-160.05)"/><rect class="cls-15" x="208.56" y="458.23" width="44.76" height="3.47" transform="translate(291.1 971.11) rotate(-160.05)"/><polygon class="cls-2" points="258.99 438.14 260.3 437.69 261.02 438.88 251.35 465.52 249.32 464.79 258.99 438.14"/><polygon class="cls-2" points="256.78 437.34 258.09 436.89 258.81 438.08 249.14 464.72 247.11 463.98 256.78 437.34"/><polygon class="cls-2" points="254.56 436.54 255.88 436.08 256.6 437.28 246.93 463.92 244.89 463.18 254.56 436.54"/><polygon class="cls-2" points="252.35 435.74 253.67 435.28 254.38 436.47 244.72 463.12 242.68 462.38 252.35 435.74"/><polygon class="cls-2" points="250.14 434.93 251.46 434.48 252.17 435.67 242.5 462.31 240.47 461.57 250.14 434.93"/><polygon class="cls-2" points="247.93 434.13 249.24 433.68 249.96 434.87 240.29 461.51 238.26 460.77 247.93 434.13"/><polygon class="cls-2" points="245.72 433.33 247.03 432.87 247.75 434.06 238.08 460.71 236.04 459.97 245.72 433.33"/><polygon class="cls-2" points="243.5 432.52 244.82 432.07 245.54 433.26 235.87 459.9 233.83 459.17 243.5 432.52"/><polygon class="cls-2" points="241.29 431.72 242.61 431.27 243.32 432.46 233.66 459.1 231.62 458.36 241.29 431.72"/><polygon class="cls-2" points="239.08 430.92 240.39 430.46 241.11 431.66 231.44 458.3 229.41 457.56 239.08 430.92"/><polygon class="cls-2" points="236.87 430.12 238.18 429.66 238.9 430.85 229.23 457.49 227.2 456.76 236.87 430.12"/><polygon class="cls-2" points="234.65 429.31 235.97 428.86 236.69 430.05 227.02 456.69 224.98 455.95 234.65 429.31"/><polygon class="cls-2" points="232.44 428.51 233.76 428.05 234.47 429.25 224.81 455.89 222.77 455.15 232.44 428.51"/><polygon class="cls-2" points="230.23 427.71 231.54 427.25 232.26 428.44 222.59 455.09 220.56 454.35 230.23 427.71"/><polygon class="cls-2" points="228.02 426.9 229.33 426.45 230.05 427.64 220.38 454.28 218.35 453.54 228.02 426.9"/><polygon class="cls-2" points="225.8 426.1 227.12 425.64 227.84 426.84 218.17 453.48 216.13 452.74 225.8 426.1"/><polygon class="cls-2" points="223.59 425.3 224.91 424.84 225.63 426.04 215.96 452.68 213.92 451.94 223.59 425.3"/><polygon class="cls-2" points="221.38 424.5 222.7 424.04 223.41 425.23 213.75 451.87 211.71 451.14 221.38 424.5"/><g class="cls-16"><polygon points="258.99 438.14 260.3 437.69 261.02 438.88 251.35 465.52 249.32 464.79 258.99 438.14"/><polygon points="256.78 437.34 258.09 436.89 258.81 438.08 249.14 464.72 247.11 463.98 256.78 437.34"/><polygon points="254.56 436.54 255.88 436.08 256.6 437.28 246.93 463.92 244.89 463.18 254.56 436.54"/><polygon points="252.35 435.74 253.67 435.28 254.38 436.47 244.72 463.12 242.68 462.38 252.35 435.74"/><polygon points="250.14 434.93 251.46 434.48 252.17 435.67 242.5 462.31 240.47 461.57 250.14 434.93"/><polygon points="247.93 434.13 249.24 433.68 249.96 434.87 240.29 461.51 238.26 460.77 247.93 434.13"/><polygon points="245.72 433.33 247.03 432.87 247.75 434.06 238.08 460.71 236.04 459.97 245.72 433.33"/><polygon points="243.5 432.52 244.82 432.07 245.54 433.26 235.87 459.9 233.83 459.17 243.5 432.52"/><polygon points="241.29 431.72 242.61 431.27 243.32 432.46 233.66 459.1 231.62 458.36 241.29 431.72"/><polygon points="239.08 430.92 240.39 430.46 241.11 431.66 231.44 458.3 229.41 457.56 239.08 430.92"/><polygon points="236.87 430.12 238.18 429.66 238.9 430.85 229.23 457.49 227.2 456.76 236.87 430.12"/><polygon points="234.65 429.31 235.97 428.86 236.69 430.05 227.02 456.69 224.98 455.95 234.65 429.31"/><polygon points="232.44 428.51 233.76 428.05 234.47 429.25 224.81 455.89 222.77 455.15 232.44 428.51"/><polygon points="230.23 427.71 231.54 427.25 232.26 428.44 222.59 455.09 220.56 454.35 230.23 427.71"/><polygon points="228.02 426.9 229.33 426.45 230.05 427.64 220.38 454.28 218.35 453.54 228.02 426.9"/><polygon points="225.8 426.1 227.12 425.64 227.84 426.84 218.17 453.48 216.13 452.74 225.8 426.1"/><polygon points="223.59 425.3 224.91 424.84 225.63 426.04 215.96 452.68 213.92 451.94 223.59 425.3"/><polygon points="221.38 424.5 222.7 424.04 223.41 425.23 213.75 451.87 211.71 451.14 221.38 424.5"/></g><path class="cls-2" d="M221.38,424.49c-3.58,5.57,2,12.65,8,14.27s9.81,1,11.06,4.82-.78,10,3.88,9.9,5.12-6.21,8.61-6.69,3.83-.08,5.85-1.61,4.8-5.36,3.61-7.49-10.43-4.22-16.1-6.42S223.21,421.66,221.38,424.49Z"/><path class="cls-17" d="M221.38,424.49c-3.58,5.57,2,12.65,8,14.27s9.81,1,11.06,4.82-.78,10,3.88,9.9,5.12-6.21,8.61-6.69,3.83-.08,5.85-1.61,4.8-5.36,3.61-7.49-10.43-4.22-16.1-6.42S223.21,421.66,221.38,424.49Z"/><path class="cls-14" d="M104.16,452.45c6.88,23.14,21.78,65.73,37.79,71.93,17,6.58,39.59-1.56,51.21-4.38,4.93-1.2-1.44-36-6.87-36.07s-27.07,5.5-31,4.72-21.54-29.61-34.81-46C104.85,423.31,98.58,433.65,104.16,452.45Z"/><path class="cls-14" d="M239.47,492.85c.88,3.8-2.6,5.85-2.6,5.85a8.31,8.31,0,0,1,2.39,5.12c.15,3.42-5.15,5.15-5.15,5.15a10.25,10.25,0,0,1,1.66,5.8c-.19,3.29-5.29,5.79-5.29,5.79a9,9,0,0,1-1.75,6c-3.63,4.48-12.38,3.42-17.94,2.8s-22.94-11-24.2-13.2L179,484.9s27.74-7.56,43.83-2.58C228.21,484,238.48,488.59,239.47,492.85Z"/><path class="cls-10" d="M236.68,498.1c-5.41-2.88-11.38-4-17.28-5.44a.11.11,0,0,0,0,.21c5.88,1.37,11.41,3.89,17.22,5.5A.15.15,0,0,0,236.68,498.1Z"/><path class="cls-10" d="M234,508.49a15.49,15.49,0,0,0-4-1.08c-1.46-.28-2.92-.54-4.38-.77-2.93-.47-5.86-.87-8.81-1.18-.13,0-.19.18,0,.2,2.92.47,5.83,1,8.72,1.58,1.45.3,2.89.61,4.34.93a19.21,19.21,0,0,0,4.12.71A.21.21,0,0,0,234,508.49Z"/><path class="cls-10" d="M230.36,520.54a11,11,0,0,0-3.69-.77l-4-.58c-2.67-.4-5.34-.8-8-1.3a.11.11,0,0,0,0,.21c2.69.51,5.38,1.06,8.08,1.56l4,.7a10.6,10.6,0,0,0,3.67.32A.08.08,0,0,0,230.36,520.54Z"/><path class="cls-2" d="M175.07,482.17l12.67,42.46s-36.64,9.89-51.63-1.36S105.86,468,102.23,448.91s5.63-23.27,17.94-7.76,33.59,44.83,34.55,45.58S175.07,482.17,175.07,482.17Z"/><path class="cls-4" d="M113,447.18a14.72,14.72,0,0,0-3.81,1.13,14.29,14.29,0,0,0,4-.1,14.74,14.74,0,0,0,3.83-1.13A14.06,14.06,0,0,0,113,447.18Zm36.37,64.35a13.88,13.88,0,0,0-3.83,1.12,13.64,13.64,0,0,0,4-.11,13.86,13.86,0,0,0,3.82-1.14A13.92,13.92,0,0,0,149.36,511.53Zm27-25.13c-.56,0-1.09.1-1.63.18a14,14,0,0,0-3.83,1.12,13.71,13.71,0,0,0,4-.11,17.41,17.41,0,0,0,1.71-.37ZM136.65,480a14.45,14.45,0,0,0-1.12-3.83,13.64,13.64,0,0,0,.11,4,14.38,14.38,0,0,0,1.12,3.82A13.57,13.57,0,0,0,136.65,480Zm-1.59,40.9a14.4,14.4,0,0,0-1.13-3.82,14,14,0,0,0,.12,4c0,.19.07.39.11.59.36.33.73.65,1.08.93C135.21,522,135.13,521.46,135.06,520.89Zm32.53-17.14a14.27,14.27,0,0,0-1.12-3.82,13.58,13.58,0,0,0,.11,4,14.27,14.27,0,0,0,1.12,3.82A13.57,13.57,0,0,0,167.59,503.75Zm-36.32-2.92a14.29,14.29,0,0,0-3.51-1.9,14.16,14.16,0,0,0,2.91,2.73,13.93,13.93,0,0,0,3.5,1.91A14.42,14.42,0,0,0,131.27,500.83ZM186,518.71c-.47-.43-1-.82-1.46-1.21a13.94,13.94,0,0,0-3.51-1.89,14.71,14.71,0,0,0,2.91,2.73,15.86,15.86,0,0,0,2.38,1.44Zm-68.18-51.48a13.53,13.53,0,0,0-3.49-1.91,15.23,15.23,0,0,0,6.4,4.64A13.65,13.65,0,0,0,117.79,467.23Zm1,21.86a14.29,14.29,0,0,0-1.9,3.51,14.12,14.12,0,0,0,2.74-2.89,14.35,14.35,0,0,0,1.9-3.51A14.12,14.12,0,0,0,118.83,489.09Zm33.84,5.31a13.33,13.33,0,0,0-1.91,3.5A13.88,13.88,0,0,0,153.5,495a14,14,0,0,0,1.89-3.5A13.28,13.28,0,0,0,152.67,494.4Zm8.74,28.49a15,15,0,0,0-1.91,3.5,13.14,13.14,0,0,0,2.74-2.89,13.43,13.43,0,0,0,1.9-3.5A14.89,14.89,0,0,0,161.41,522.89Z"/><path class="cls-10" d="M172.28,504.59c-.81-3-1.69-6.07-2.57-9.1-.42-1.45-.83-2.91-1.3-4.35s-.9-3.17-1.52-4.68a.09.09,0,0,0-.17,0c.23,1.61.7,3.22,1,4.81s.68,2.95,1,4.42c.76,3,1.51,6.11,2.33,9.15,1.65,6.1,3.46,12.12,5.36,18.14a.12.12,0,0,0,.23-.06C175.34,516.8,173.9,510.68,172.28,504.59Z"/><path class="cls-10" d="M125.93,511.24c-1.29-3.58-13.61-29.81-17.56-42.29-1.7-5.34-3.26-10.73-4.91-16.09,0-.05-.1,0-.09,0q.87,5,2.14,9.88c-.1-.21-.19-.43-.29-.64-.61-1.3-1.27-2.58-1.93-3.87,0-.07-.17,0-.14.07.55,1.36,1.08,2.74,1.69,4.08.38.85.81,1.67,1.22,2.51.39,1.41.76,2.84,1.22,4.23,7,21.15,16.19,38.77,18.43,42.18C125.79,511.44,126,511.38,125.93,511.24Z"/><path class="cls-2" d="M108.35,430.7c-6.44-5.49-26.09-11.52-35.32-7.85C61.38,427.48,43.46,465,47.11,468.28c6.51,5.77,37.12-11.68,44.75-19.92S108.35,430.7,108.35,430.7Z"/><path class="cls-4" d="M79.29,421.73a11.62,11.62,0,0,0-1.68,1.11,14,14,0,0,0,3.84-1l.16-.07C80.83,421.71,80,421.71,79.29,421.73Zm-13.89,9.5c-.2-.45-.39-.9-.62-1.32-.21.26-.43.54-.66.81q.15.45.33.9a14,14,0,0,0,2,3.46A14.09,14.09,0,0,0,65.4,431.23ZM95.19,434a13.69,13.69,0,0,0-2-3.46,14,14,0,0,0,1,3.83,13.84,13.84,0,0,0,2,3.48A13.76,13.76,0,0,0,95.19,434Zm-39,18A13.64,13.64,0,0,0,52.37,451a13.89,13.89,0,0,0,3.44,2A14.27,14.27,0,0,0,59.65,454,13.89,13.89,0,0,0,56.21,452ZM75,443.55a13.06,13.06,0,0,0-1,3.85,14.44,14.44,0,0,0,2-3.46A13.44,13.44,0,0,0,77,440.12,14,14,0,0,0,75,443.55Z"/><path class="cls-10" d="M100.61,441.41c-1.6,1.09-3.24,2.14-4.83,3.26,2.31-2.37,4.64-4.73,6.89-7.16.07-.08,0-.22-.14-.15a108.48,108.48,0,0,0-8.26,7.5c-2.77,2.59-5.54,5.19-8.44,7.64a77,77,0,0,1-9.08,6.8,81.86,81.86,0,0,1-10.65,5.4Q63,466,59.84,467.24a47.26,47.26,0,0,1-6.93,2c-.44.07-.2.26,0,.24a33.85,33.85,0,0,0,5.87-1.39c2-.64,4-1.26,5.94-1.93a71.19,71.19,0,0,0,11-4.59c6.89-3.7,12.49-9,17.84-14.63l.31-.33c1-.67,1.9-1.36,2.81-2.08,1.33-1.05,2.69-2,4.1-3C100.87,441.52,100.74,441.32,100.61,441.41Z"/><path class="cls-2" d="M241.86,641.86s5.87,19.56,12.84,39.54,13.15,65.87,11.85,67.06S249.79,705,245.33,684.64s-7.66-41.3-7.66-41.3Z"/><polygon class="cls-18" points="241.96 641.36 246.62 654.65 239.22 656.45 236.99 642.76 241.96 641.36"/><path class="cls-6" d="M242,641.36a11,11,0,0,0-1.75-10c-3.23-4.62-2.29-8.21-2.29-8.21s-8.33,10.67-.93,19.59Z"/><path class="cls-2" d="M238,622.64c.42.67-.44,4,1.12,6.65s-6.08,6.55-5.46,2.6C234.36,627.41,237.22,621.4,238,622.64Z"/><path class="cls-7" d="M278.36,653.31s-5.67,15.83-12.26,32-13.67,53.6-12.65,54.64,15.66-35,20.21-51.57,8.09-33.63,8.09-33.63Z"/><polygon class="cls-18" points="278.3 652.9 273.9 663.62 279.9 665.42 282.33 654.26 278.3 652.9"/><path class="cls-6" d="M278.3,652.9c.64-8.83,7.64-16,7.64-16s2.86,10.36-3.61,17.38Z"/><path class="cls-6" d="M260.92,632.54s2.23,16.67,5.31,33.82,2.17,55.28,1,56.08-8-37.5-9-54.65-.88-34.59-.88-34.59Z"/><polygon class="cls-18" points="261.06 632.15 263.13 643.56 256.87 644.07 256.83 632.65 261.06 632.15"/><path class="cls-6" d="M256.83,632.65s4-.41,4.23-.5,3.22-11.57,3-11.89-13.48,1.53-13.41,2.78S256.83,632.65,256.83,632.65Z"/><rect class="cls-6" x="234.72" y="695.67" width="46.65" height="58.74" rx="4.38"/><rect class="cls-6" x="240.61" y="686.4" width="34.88" height="9.27"/><path class="cls-10" d="M242.75,695.47c8.11-.4,28-.42,30.64,0,.05,0,.05.11,0,.12-2.68.44-21.19,1-30.64,0A.09.09,0,0,1,242.75,695.47Z"/></svg>