<svg id="Слой_1" data-name="Слой 1" xmlns="http://www.w3.org/2000/svg" xmlns:xlink="http://www.w3.org/1999/xlink" viewBox="0 0 1800 1000"><defs><style>.cls-1{fill:none;}.cls-2{clip-path:url(#clip-path);}.cls-3{fill:#306;}.cls-4{fill:#ececec;}.cls-5,.cls-7{fill:#fff;}.cls-6{fill:#ffc800;}.cls-7{opacity:0.3;}.cls-11,.cls-8{opacity:0.1;}.cls-9{fill:#4a148c;}.cls-10{fill:#a8a8a8;}.cls-12{fill:#ffaba1;}.cls-13{fill:#ff9bbe;}.cls-14{opacity:0.6;}.cls-15,.cls-16{opacity:0.4;}.cls-17{fill:#c36358;}</style><clipPath id="clip-path"><rect class="cls-1" x="-0.5" y="11.5" width="1895" height="1065"/></clipPath></defs><g class="cls-2"><polygon class="cls-3" points="1674.37 636.81 1670.14 636.81 1670.14 633.99 1671.55 633.99 1671.55 632.57 1674.37 632.57 1674.37 636.81"/><path class="cls-3" d="M1664.5,636.81h-5.65V634h5.65Zm-11.29,0h-5.64V634h5.64Zm-11.28,0h-5.65V634h5.65Zm-11.29,0H1625V634h5.64Zm-11.28,0h-5.65V634h5.65Zm-11.29,0h-5.64V634h5.64Zm-11.28,0h-5.65V634h5.65Zm-11.29,0h-5.64V634h5.64Zm-11.29,0h-5.64V634h5.64Zm-11.28,0h-5.64V634h5.64Zm-11.28,0H1546V634h5.65Zm-11.29,0h-5.64V634h5.64Zm-11.29,0h-5.64V634h5.64Zm-11.28,0h-5.64V634h5.64Zm-11.28,0h-5.65V634h5.65Zm-11.29,0h-5.64V634h5.64Zm-11.29,0h-5.64V634h5.64Z"/><polygon class="cls-3" points="1472.65 636.81 1468.41 636.81 1468.41 632.57 1471.24 632.57 1471.24 633.99 1472.65 633.99 1472.65 636.81"/><path class="cls-3" d="M1471.24,626.93h-2.83v-5.64h2.83Zm0-11.28h-2.83V610h2.83Zm0-11.29h-2.83v-5.64h2.83Zm0-11.28h-2.83v-5.65h2.83Zm0-11.29h-2.83v-5.64h2.83Zm0-11.28h-2.83v-5.65h2.83Zm0-11.29h-2.83v-5.64h2.83Zm0-11.28h-2.83v-5.65h2.83Zm0-11.29h-2.83V531h2.83Zm0-11.28h-2.83v-5.65h2.83Zm0-11.29h-2.83v-5.64h2.83Zm0-11.28h-2.83v-5.65h2.83Zm0-11.29h-2.83v-5.64h2.83Zm0-11.28h-2.83v-5.65h2.83Zm0-11.29h-2.83V463.3h2.83Zm0-11.28h-2.83V452h2.83Zm0-11.29h-2.83v-5.64h2.83Z"/><polygon class="cls-3" points="1471.24 435.08 1468.41 435.08 1468.41 430.85 1472.65 430.85 1472.65 433.67 1471.24 433.67 1471.24 435.08"/><path class="cls-3" d="M1664.5,433.67h-5.65v-2.82h5.65Zm-11.29,0h-5.64v-2.82h5.64Zm-11.28,0h-5.65v-2.82h5.65Zm-11.29,0H1625v-2.82h5.64Zm-11.28,0h-5.65v-2.82h5.65Zm-11.29,0h-5.64v-2.82h5.64Zm-11.28,0h-5.65v-2.82h5.65Zm-11.29,0h-5.64v-2.82h5.64Zm-11.29,0h-5.64v-2.82h5.64Zm-11.28,0h-5.64v-2.82h5.64Zm-11.28,0H1546v-2.82h5.65Zm-11.29,0h-5.64v-2.82h5.64Zm-11.29,0h-5.64v-2.82h5.64Zm-11.28,0h-5.64v-2.82h5.64Zm-11.28,0h-5.65v-2.82h5.65Zm-11.29,0h-5.64v-2.82h5.64Zm-11.29,0h-5.64v-2.82h5.64Z"/><polygon class="cls-3" points="1674.37 435.08 1671.55 435.08 1671.55 433.67 1670.14 433.67 1670.14 430.85 1674.37 430.85 1674.37 435.08"/><path class="cls-3" d="M1674.37,626.93h-2.82v-5.64h2.82Zm0-11.28h-2.82V610h2.82Zm0-11.29h-2.82v-5.64h2.82Zm0-11.28h-2.82v-5.65h2.82Zm0-11.29h-2.82v-5.64h2.82Zm0-11.28h-2.82v-5.65h2.82Zm0-11.29h-2.82v-5.64h2.82Zm0-11.28h-2.82v-5.65h2.82Zm0-11.29h-2.82V531h2.82Zm0-11.28h-2.82v-5.65h2.82Zm0-11.29h-2.82v-5.64h2.82Zm0-11.28h-2.82v-5.65h2.82Zm0-11.29h-2.82v-5.64h2.82Zm0-11.28h-2.82v-5.65h2.82Zm0-11.29h-2.82V463.3h2.82Zm0-11.28h-2.82V452h2.82Zm0-11.29h-2.82v-5.64h2.82Z"/><rect class="cls-3" x="1457.17" y="622.74" width="25.31" height="25.31"/><path class="cls-3" d="M1483.9,649.47h-28.14V621.33h28.14Zm-25.32-2.83h22.49V624.15h-22.49Z"/><rect class="cls-3" x="1457.28" y="521.17" width="25.31" height="25.31"/><path class="cls-3" d="M1483.9,547.9h-28.14V519.76h28.14Zm-25.32-2.82h22.49v-22.5h-22.49Z"/><rect class="cls-3" x="1457.28" y="419.6" width="25.31" height="25.31"/><path class="cls-3" d="M1483.9,446.33h-28.14V418.19h28.14Zm-25.32-2.82h22.49V421h-22.49Z"/><rect class="cls-3" x="1660.41" y="622.74" width="25.31" height="25.31"/><path class="cls-3" d="M1687,649.47h-28.14V621.33H1687Zm-25.31-2.83h22.49V624.15h-22.49Z"/><rect class="cls-3" x="1660.41" y="521.17" width="25.31" height="25.31"/><path class="cls-3" d="M1687,547.9h-28.14V519.76H1687Zm-25.31-2.82h22.49v-22.5h-22.49Z"/><rect class="cls-3" x="1660.41" y="419.6" width="25.31" height="25.31"/><path class="cls-3" d="M1687,446.33h-28.14V418.19H1687Zm-25.31-2.82h22.49V421h-22.49Z"/><rect class="cls-3" x="1558.84" y="419.6" width="25.31" height="25.31"/><path class="cls-3" d="M1585.46,446.33h-28.13V418.19h28.13Zm-25.31-2.82h22.49V421h-22.49Z"/><rect class="cls-3" x="1558.74" y="622.74" width="25.31" height="25.31"/><path class="cls-3" d="M1585.46,649.47h-28.13V621.33h28.13Zm-25.31-2.83h22.49V624.15h-22.49Z"/><path class="cls-4" d="M206.88,1088.25h-2.83v-5.64h2.83Zm0-11.29h-2.83v-5.64h2.83Zm0-11.28h-2.83V1060h2.83Zm0-11.29h-2.83v-5.64h2.83Zm0-11.28h-2.83v-5.64h2.83Zm0-11.29h-2.83v-5.64h2.83Zm0-11.28h-2.83v-5.64h2.83Zm0-11.29h-2.83v-5.64h2.83Zm0-11.28h-2.83v-5.64h2.83Zm0-11.29h-2.83V981h2.83Zm0-11.28h-2.83v-5.65h2.83Zm0-11.29h-2.83v-5.64h2.83Zm0-11.28h-2.83v-5.65h2.83Zm0-11.29h-2.83V935.9h2.83Zm0-11.28h-2.83v-5.65h2.83Zm0-11.29h-2.83v-5.64h2.83Zm0-11.28h-2.83V902h2.83Z"/><polygon class="cls-4" points="206.88 896.4 204.05 896.4 204.05 892.17 208.29 892.17 208.29 894.99 206.88 894.99 206.88 896.4"/><path class="cls-4" d="M400.14,895h-5.65v-2.82h5.65Zm-11.29,0h-5.64v-2.82h5.64Zm-11.28,0h-5.65v-2.82h5.65Zm-11.29,0h-5.64v-2.82h5.64ZM355,895h-5.65v-2.82H355Zm-11.29,0h-5.64v-2.82h5.64Zm-11.28,0h-5.65v-2.82h5.65Zm-11.29,0H315.5v-2.82h5.64Zm-11.29,0h-5.64v-2.82h5.64Zm-11.28,0h-5.64v-2.82h5.64Zm-11.28,0h-5.65v-2.82h5.65ZM276,895h-5.64v-2.82H276Zm-11.29,0h-5.64v-2.82h5.64Zm-11.28,0h-5.64v-2.82h5.64Zm-11.28,0H236.5v-2.82h5.65Zm-11.29,0h-5.64v-2.82h5.64Zm-11.29,0h-5.64v-2.82h5.64Z"/><polygon class="cls-4" points="410.01 896.4 407.19 896.4 407.19 894.99 405.78 894.99 405.78 892.17 410.01 892.17 410.01 896.4"/><path class="cls-4" d="M410,1088.25h-2.82v-5.64H410Zm0-11.29h-2.82v-5.64H410Zm0-11.28h-2.82V1060H410Zm0-11.29h-2.82v-5.64H410Zm0-11.28h-2.82v-5.64H410Zm0-11.29h-2.82v-5.64H410Zm0-11.28h-2.82v-5.64H410Zm0-11.29h-2.82v-5.64H410ZM410,998h-2.82v-5.64H410Zm0-11.29h-2.82V981H410Zm0-11.28h-2.82v-5.64H410Zm0-11.29h-2.82v-5.64H410Zm0-11.28h-2.82v-5.64H410Zm0-11.29h-2.82V935.9H410Zm0-11.28h-2.82v-5.64H410ZM410,919h-2.82v-5.64H410Zm0-11.28h-2.82v-5.64H410Z"/><rect class="cls-5" x="192.92" y="982.49" width="25.31" height="25.31"/><path class="cls-4" d="M219.54,1009.22H191.4V981.08h28.14Zm-25.32-2.83h22.49V983.9H194.22Z"/><rect class="cls-5" x="192.92" y="880.92" width="25.31" height="25.31"/><path class="cls-4" d="M219.54,907.65H191.4V879.51h28.14Zm-25.32-2.83h22.49V882.33H194.22Z"/><rect class="cls-5" x="396.05" y="982.49" width="25.31" height="25.31"/><path class="cls-4" d="M422.67,1009.22H394.53V981.08h28.14Zm-25.31-2.83h22.49V983.9H397.36Z"/><rect class="cls-5" x="396.05" y="880.92" width="25.31" height="25.31"/><path class="cls-4" d="M422.67,907.65H394.53V879.51h28.14Zm-25.31-2.83h22.49V882.33H397.36Z"/><rect class="cls-5" x="294.48" y="880.92" width="25.31" height="25.31"/><path class="cls-4" d="M321.1,907.65H293V879.51H321.1Zm-25.31-2.83h22.49V882.33H295.79Z"/><path class="cls-6" d="M1131.43,787.55c-31.91,148.17-133,180.16-151.12,225-10.42,26.23-24.25,93-24.25,93l-189.88.06s-13.75-66.69-24.31-92.92C722.41,964.13,605.52,930.75,584.34,749c-14-119.4,75.67-308,276.57-308V567.51a24.21,24.21,0,0,1-24.2,24.17,24.78,24.78,0,0,1-19.09-9.38,50.43,50.43,0,1,0,0,63.93,26.2,26.2,0,0,1,8.53-6.86,23.7,23.7,0,0,1,10.56-2.52A24.19,24.19,0,0,1,860.91,661V787.55H987.43a24.21,24.21,0,0,0,24.17-24.17,24.68,24.68,0,0,0-9.38-19.09,50.43,50.43,0,1,1,63.93,0,25.66,25.66,0,0,0-6.86,8.5,23.77,23.77,0,0,0-2.52,10.59,24.17,24.17,0,0,0,24.17,24.17Z"/><path class="cls-7" d="M1131.43,787.55c-31.91,148.17-133,180.16-151.12,225-10.42,26.23-24.25,93-24.25,93l-94.62,0,0-49,0-38.79c.25-6.44-.82-13.07,1.72-18.92a23.67,23.67,0,0,1,13-13,23.26,23.26,0,0,1,18.35.36,24.86,24.86,0,0,1,7.65,5.45c1.07,1.13,2.09,2.4,3.19,3.65s2.26,2.34,3.48,3.44a51,51,0,1,0,0-75.67c-1.22,1.07-2.35,2.26-3.48,3.44s-2.09,2.52-3.16,3.65a25,25,0,0,1-7.68,5.45,23.18,23.18,0,0,1-18.35.36,23.58,23.58,0,0,1-13-13c-2.54-5.85-1.5-12.48-1.72-18.92l0-38.79,0-77.06v-.53h126a24.21,24.21,0,0,0,24.17-24.17,24.68,24.68,0,0,0-9.38-19.09,50.43,50.43,0,1,1,63.93,0,25.66,25.66,0,0,0-6.86,8.5,23.77,23.77,0,0,0-2.52,10.59,24.17,24.17,0,0,0,24.17,24.17Z"/><path class="cls-8" d="M728.12,614.27a50.48,50.48,0,0,0,89.5,32,26.2,26.2,0,0,1,8.53-6.86,23.7,23.7,0,0,1,10.56-2.52A24.19,24.19,0,0,1,860.91,661V787h-.54l-77,.06-38.8,0h-9.68a24.62,24.62,0,0,0-23.27,15.36,24.39,24.39,0,0,0,.4,19.2,26.13,26.13,0,0,0,5.67,8c1.21,1.13,2.49,2.15,3.67,3.19s2.32,2.24,3.39,3.42a50,50,0,1,1-74.23-.08,73.86,73.86,0,0,1,7-6.64,25.11,25.11,0,0,0,5.65-7.93A24.31,24.31,0,0,0,650,789.07a25.32,25.32,0,0,0-9.57-1.78h-9.69l-38.79,0h-1.3q-3.9-18-6.3-38.29c-14-119.4,75.67-308,276.57-308V567.51a24.21,24.21,0,0,1-24.2,24.17,24.78,24.78,0,0,1-19.09-9.38,50.48,50.48,0,0,0-89.5,32Z"/><path class="cls-9" d="M810.5,1105.5q-27.6-144.88-55.21-289.76l5.54-1.06q27.34,145.41,54.67,290.82Z"/><path class="cls-9" d="M912.5,1105.5h-6q27.4-145.44,54.82-290.88l5.55,1Q939.68,960.59,912.5,1105.5Z"/><path class="cls-9" d="M861.1,912.22c-17.13,0-32.88-15.09-44.07-34.54-5.18,5.41-10.7,8.28-16.19,8.28h0c-28.67,0-42.79-56.41-43.38-58.81l5.49-1.34c.13.54,13.63,54.5,37.89,54.5h0c4.5,0,9.09-3,13.31-7.91-8.68-16.88-14-36.15-14-51.47,0-16.12,6.33-25.37,17.37-25.37h0c12.77,0,20.1,9.81,20.1,26.91,0,12.63-4.14,28.35-10.81,41A71.54,71.54,0,0,1,821,873c.54,1,1.09,2,1.65,2.92C834,895.39,848,906.57,861.1,906.57h0c12,0,24.07-9.38,33.89-26.4.44-.75.86-1.51,1.29-2.29a52.54,52.54,0,0,1-7.06-9.66c-11.19-19.36-13.48-48.11-5-62.79,3.74-6.47,9.24-9.89,15.92-9.9h0c5.29,0,9.6,2.63,12.47,7.59,8.23,14.25,3.75,47.3-9.39,73.68A27.55,27.55,0,0,0,921.73,884h0c17.17,0,32.38-39.68,36.79-55l5.43,1.57a198,198,0,0,1-11.29,29c-9.79,20-20.2,30.09-30.93,30.09h0a33.16,33.16,0,0,1-21.2-7.8l-.64,1.13c-10.87,18.84-24.64,29.21-38.78,29.22Zm39-111h0c-4.61,0-8.32,2.38-11,7.07-7.59,13.15-5.3,39.32,5,57.15a50.06,50.06,0,0,0,4.9,7.07c11.36-24,15.67-54.46,8.7-66.53C905.87,802.74,903.39,801.18,900.14,801.18Zm-82.58,0h0c-9.7,0-11.73,10.72-11.73,19.72,0,13.42,4.66,30.81,12.19,46.36,8.05-12.07,14-30.3,14-44.82C832,812.77,829.5,801.21,817.56,801.21Z"/><path class="cls-10" d="M1132.65,563.3a576,576,0,0,1,59-35.56,576.35,576.35,0,0,1-59,35.56Z"/><g class="cls-11"><path d="M1129.87,787l-38.79,0c-6.44-.25-13.07.82-18.92-1.72a23.67,23.67,0,0,1-13-13,23.26,23.26,0,0,1,.36-18.35,24.86,24.86,0,0,1,5.45-7.65c1.13-1.07,2.4-2.09,3.64-3.19s2.35-2.26,3.45-3.47a51,51,0,1,0-75.67,0c1.07,1.21,2.26,2.34,3.44,3.47s2.52,2.09,3.65,3.16a25,25,0,0,1,5.45,7.68,23.18,23.18,0,0,1,.36,18.35,23.58,23.58,0,0,1-13,13c-5.85,2.54-12.48,1.5-18.92,1.72l-38.79,0-77.06,0h-1.07v1.07l.06,77.06,0,38.79v9.69a24.61,24.61,0,0,0,15.36,23.26,24.39,24.39,0,0,0,19.2-.39,26.33,26.33,0,0,0,8-5.68c1.13-1.21,2.15-2.48,3.19-3.67s2.24-2.32,3.42-3.39a50,50,0,1,1-.08,74.23,73.86,73.86,0,0,1-6.64-7A25.11,25.11,0,0,0,895,985.3a24.31,24.31,0,0,0-32.53,13.16,25.32,25.32,0,0,0-1.78,9.57v9.69l0,38.79,0,49h.39l0-49,0-38.79c.23-6.41-.82-13.07,1.75-19.06a23.84,23.84,0,0,1,31.82-12.88,25.41,25.41,0,0,1,7.77,5.54,70.68,70.68,0,0,0,6.66,7.09,50.66,50.66,0,1,0-.11-75.28c-1.22,1.1-2.35,2.26-3.48,3.45s-2.09,2.48-3.19,3.64a25.23,25.23,0,0,1-7.71,5.48,23.46,23.46,0,0,1-18.52.36,23.82,23.82,0,0,1-13.07-13.13c-2.57-5.93-1.47-12.59-1.72-19l0-38.79.05-77.06h-.53l.53-.53v.53l77.06,0,38.79,0H987a25.3,25.3,0,0,0,9.68-1.78,24.73,24.73,0,0,0,13.38-33,26.38,26.38,0,0,0-5.73-8c-1.21-1.16-2.46-2.15-3.64-3.22a45.18,45.18,0,0,1-3.39-3.39,49.74,49.74,0,1,1,73.78,0,46.73,46.73,0,0,1-3.36,3.39c-1.19,1.07-2.43,2.06-3.64,3.22a26.15,26.15,0,0,0-5.73,8.07,24.35,24.35,0,0,0-.34,19.34,24.71,24.71,0,0,0,23.4,15.45h9.69l38.79,0h1.44c.09-.37.17-.76.26-1.13Z"/><path d="M979.94,925.28a51.27,51.27,0,0,0-71-2.29c-1.22,1.07-2.35,2.26-3.48,3.44s-2.09,2.52-3.16,3.65a25,25,0,0,1-7.68,5.45,23.18,23.18,0,0,1-18.35.36,23.58,23.58,0,0,1-13-13c-2.54-5.85-1.5-12.48-1.72-18.92l0-38.79,0-77.06V787h-1.07l-77,.06-38.8,0h-9.68a24.62,24.62,0,0,0-23.27,15.36,24.39,24.39,0,0,0,.4,19.2,26.13,26.13,0,0,0,5.67,8c1.21,1.13,2.49,2.15,3.67,3.19s2.32,2.24,3.39,3.42a50,50,0,1,1-74.23-.08,73.86,73.86,0,0,1,7-6.64,25.11,25.11,0,0,0,5.65-7.93A24.31,24.31,0,0,0,650,789.07a25.32,25.32,0,0,0-9.57-1.78h-9.69l-38.79,0h-1.3a1.42,1.42,0,0,0,.08.45h1.22l38.79,0c6.41.23,13.08-.82,19.06,1.75a23.82,23.82,0,0,1,12.88,31.82,25.41,25.41,0,0,1-5.54,7.77,69.51,69.51,0,0,0-7.08,6.66,50.66,50.66,0,1,0,75.27-.11c-1.1-1.22-2.26-2.35-3.44-3.48s-2.49-2.09-3.65-3.19a25,25,0,0,1-5.47-7.71,23.42,23.42,0,0,1-.37-18.52,23.85,23.85,0,0,1,13.13-13.07c5.93-2.57,12.59-1.47,19-1.72l38.8,0,77,.05v-.53l.54.53h-.54l0,77.06,0,38.79v9.69a25.3,25.3,0,0,0,1.78,9.68A24.78,24.78,0,0,0,875.76,937a24.51,24.51,0,0,0,19.37-.34,26.38,26.38,0,0,0,8-5.73c1.16-1.21,2.15-2.45,3.22-3.64a47.14,47.14,0,0,1,3.39-3.39,49.74,49.74,0,1,1,0,73.78,46.71,46.71,0,0,1-3.39-3.36c-1.07-1.19-2.06-2.43-3.22-3.64A26.15,26.15,0,0,0,895.1,985a24.35,24.35,0,0,0-19.34-.34,24.92,24.92,0,0,0-13.67,13.69,25.17,25.17,0,0,0-1.78,9.71v9.69l0,38.79,0,49h1.07l0-49,0-38.79c.25-6.44-.82-13.07,1.72-18.92a23.67,23.67,0,0,1,13-13,23.26,23.26,0,0,1,18.35.36,24.86,24.86,0,0,1,7.65,5.45c1.07,1.13,2.09,2.4,3.19,3.65s2.26,2.34,3.48,3.44a51.09,51.09,0,0,0,71-73.38Zm-.76.76a50.2,50.2,0,0,0-69.57-2.29c-1.18,1.07-2.31,2.23-3.42,3.39s-2.06,2.46-3.19,3.67a26.33,26.33,0,0,1-8,5.68,24.39,24.39,0,0,1-19.2.39,24.61,24.61,0,0,1-15.36-23.26v-9.69l0-38.79-.06-77.06,0,77.06,0,38.79v9.69a25.3,25.3,0,0,0,1.78,9.68A24.78,24.78,0,0,0,875.76,937a24.51,24.51,0,0,0,19.37-.34,26.38,26.38,0,0,0,8-5.73c1.16-1.21,2.15-2.45,3.22-3.64a47.14,47.14,0,0,1,3.39-3.39,49.74,49.74,0,1,1,0,73.78,46.71,46.71,0,0,1-3.39-3.36c-1.07-1.19-2.06-2.43-3.22-3.64A26.15,26.15,0,0,0,895.1,985a24.35,24.35,0,0,0-19.34-.34,24.92,24.92,0,0,0-13.67,13.69,25.17,25.17,0,0,0-1.78,9.71v9.69l0,38.79,0,49h.34l0-49,0-38.79V1008a25.32,25.32,0,0,1,1.78-9.57A24.31,24.31,0,0,1,895,985.3a25.11,25.11,0,0,1,7.93,5.65,73.86,73.86,0,0,0,6.64,7A50.09,50.09,0,0,0,979.18,926Z"/><path d="M850.91,441.16h9.83V441C857.43,441,854.16,441,850.91,441.16ZM861.39,710l0-38.8v-9.68A24.62,24.62,0,0,0,846,638.21a24.39,24.39,0,0,0-19.2.4,26.13,26.13,0,0,0-8,5.67c-1.13,1.21-2.15,2.49-3.19,3.67s-2.23,2.32-3.42,3.39a50,50,0,1,1,.08-74.23,73.86,73.86,0,0,1,6.64,7,25.11,25.11,0,0,0,7.93,5.65,24.31,24.31,0,0,0,32.53-13.16,25.32,25.32,0,0,0,1.78-9.57v-9.69l0-38.79L861.07,441h-.33l.17.17h-.17l-.06,77.42,0,38.79c-.22,6.41.82,13.08-1.75,19.06a23.82,23.82,0,0,1-31.82,12.88,25.41,25.41,0,0,1-7.77-5.54,69.51,69.51,0,0,0-6.66-7.08,50.67,50.67,0,1,0,.11,75.27c1.22-1.1,2.35-2.26,3.48-3.44s2.09-2.49,3.19-3.65a25,25,0,0,1,7.71-5.47,23.42,23.42,0,0,1,18.52-.37,23.85,23.85,0,0,1,13.07,13.13c2.57,5.93,1.47,12.59,1.72,19l0,38.8-.06,77h.54l-.54.54V787l-77,0-38.8,0h-9.68a25.31,25.31,0,0,0-9.69,1.78,24.82,24.82,0,0,0-13.72,13.67,24.55,24.55,0,0,0,.34,19.37,26.38,26.38,0,0,0,5.73,8C718.71,831,720,832,721.14,833a47.14,47.14,0,0,1,3.39,3.39,49.74,49.74,0,1,1-73.78,0c1-1.19,2.2-2.31,3.36-3.39s2.43-2.06,3.64-3.22a26.18,26.18,0,0,0,5.74-8.07,24.35,24.35,0,0,0,.33-19.34,24.89,24.89,0,0,0-13.69-13.67,25.17,25.17,0,0,0-9.71-1.78h-9.69l-38.79,0h-1.39a.72.72,0,0,0,.09.34,1.42,1.42,0,0,0,.08.45.72.72,0,0,0,.09.34h1.13l38.79,0c6.44.25,13.08-.82,18.92,1.72a23.67,23.67,0,0,1,13,13,23.26,23.26,0,0,1-.36,18.35,24.86,24.86,0,0,1-5.45,7.65c-1.13,1.07-2.4,2.09-3.64,3.19s-2.35,2.26-3.45,3.48a51,51,0,1,0,75.67,0c-1.07-1.22-2.26-2.35-3.44-3.48s-2.52-2.09-3.65-3.16a24.81,24.81,0,0,1-5.44-7.68,23.14,23.14,0,0,1-.37-18.35,23.58,23.58,0,0,1,13-13c5.85-2.54,12.48-1.5,18.92-1.72l38.8,0,77,0h1.07V787Zm-78.07,77-38.8,0h-9.68a25.31,25.31,0,0,0-9.69,1.78,24.82,24.82,0,0,0-13.72,13.67,24.55,24.55,0,0,0,.34,19.37,26.38,26.38,0,0,0,5.73,8C718.71,831,720,832,721.14,833a47.14,47.14,0,0,1,3.39,3.39,49.74,49.74,0,1,1-73.78,0c1-1.19,2.2-2.31,3.36-3.39s2.43-2.06,3.64-3.22a26.18,26.18,0,0,0,5.74-8.07,24.35,24.35,0,0,0,.33-19.34,24.89,24.89,0,0,0-13.69-13.67,25.17,25.17,0,0,0-9.71-1.78h-9.69l-38.79,0h-1.39a.72.72,0,0,0,.09.34h1.3l38.79,0h9.69a25.32,25.32,0,0,1,9.57,1.78,24.31,24.31,0,0,1,13.16,32.53,25.11,25.11,0,0,1-5.65,7.93,73.86,73.86,0,0,0-7,6.64,50.05,50.05,0,1,0,74.23.08c-1.07-1.18-2.23-2.31-3.39-3.42s-2.46-2.06-3.67-3.19a26.13,26.13,0,0,1-5.67-8,24.39,24.39,0,0,1-.4-19.2,24.62,24.62,0,0,1,23.27-15.36h9.68l38.8,0,77-.06Z"/></g><path class="cls-12" d="M1438.44,656.28c-16.88,8-76,23.28-100.55,6.87-22-14.71-23.89-120.24-14.7-154.06,3.23-11.88,50.12,10.88,55.08,20.86,4.27,8.57-2.68,88.24.72,90,5.73,2.94,24.32,5.15,54,9.29C1460.84,633.13,1450.34,650.62,1438.44,656.28Z"/><path class="cls-10" d="M1379.48,564.85l-62.71-29.67s-10.8,107.43,19.82,130.08c7.05,5.22,54.05,13.89,98.33-5.07,13.7-5.86,35-26.1-5.74-32.53s-48.12-8.72-48.87-9.73S1379.48,564.85,1379.48,564.85Z"/><g class="cls-11"><path d="M1349.29,588.19a5.39,5.39,0,0,0,7.43-.65c3.6-4,1.85-11,0-15.56s-5.14-9.58-10.51-10.42c-3.41-.52-5.36,2.46-4.73,5.51.74,3.54,2.6,6.8,3.51,10.33C1346,581.22,1345.82,585.65,1349.29,588.19Z"/><path d="M1355.47,609.81c3.15-1.7,3.7-6.27,3.67-9.46a8.93,8.93,0,0,0-1.43-4.86c-1.29-1.9-4.09-3.16-6.17-1.63a5.94,5.94,0,0,0-2.26,3.82A12.89,12.89,0,0,0,1349,600c0,.12,0,.19,0,.25s0,.12,0,.2c-.4,2.33-1.14,4.77-.39,7.1C1349.57,610.63,1353,611.17,1355.47,609.81Z"/><path d="M1372.42,602.49c2.56-5.43,2.52-11.81,1.39-17.6-.9-4.67-2.68-12.34-8.07-13.56a2.78,2.78,0,0,0-2.94,1.51c-2.17,3.52,0,9.59.38,13.43.41,4.86,0,9.76.44,14.6C1364.08,605.42,1370.41,606.75,1372.42,602.49Z"/><path d="M1342.64,626.69a6.52,6.52,0,0,0,2.47,1.16,5.56,5.56,0,0,0,4-.85,8.85,8.85,0,0,0,2.75-3.34,8.32,8.32,0,0,0,.8-4c-.09-.41-.18-.83-.26-1.25l-.6-1.17a4.82,4.82,0,0,0-2.57-1.86,4.94,4.94,0,0,0-5.26,1.48,24.68,24.68,0,0,0-2.72,3.48c-.13.43-.27.86-.41,1.3a4,4,0,0,0,.06,2A5.22,5.22,0,0,0,1342.64,626.69Z"/><path d="M1359.17,625.13a4.5,4.5,0,0,0,5.18-1.14,10.89,10.89,0,0,0,2.23-5.23c.31-1.58.53-3.77-.17-5.29-1.06-2.3-4-3.2-5.83-1.07a17.17,17.17,0,0,0-2,3.8c-.26.56-.57,1.09-.88,1.63a12.83,12.83,0,0,0-1,2.57C1356.2,622.15,1357.55,624.45,1359.17,625.13Z"/></g><path class="cls-3" d="M1318.5,551.26c5.21,1.65,10.22,4,15.24,6.2s9.87,4.29,14.79,6.48c9.92,4.43,20,8.64,29.63,13.7a.2.2,0,0,1-.15.38c-10.39-3.46-20.47-8-30.5-12.41q-7.53-3.3-15-6.82a141.1,141.1,0,0,1-14.22-7.16C1318.08,551.49,1318.29,551.19,1318.5,551.26Z"/><path class="cls-8" d="M1434.92,660.2c-44.27,18.94-91.29,10.28-98.32,5.06-14.19-10.51-19.48-39.25-21.08-67.07L1380,612.74a33.76,33.76,0,0,0,.35,5.19c.75,1,8.15,3.29,48.86,9.73S1448.63,654.32,1434.92,660.2Z"/><path class="cls-9" d="M1484.62,805.38s-26.7,264.1-27.33,267.45c-.09.44-.28,5.52-.53,13.81-1.44,45.47-5,187.23-5,187.23h-109s7.11-167.91,11.2-207.08c5.2-50,38-261.41,38-261.41Z"/><path class="cls-3" d="M1444.3,1082.14q5-85.85,15.15-171.27c3.83-32.09,8.43-64.07,13-96.06,0-.27.48-.26.44,0-8.43,56.93-14.41,114.3-19.55,171.62s-8.73,114.6-11.08,172c-1.32,32.54-2.33,65.09-3.38,97.64a.6.6,0,0,1-1.2,0C1439.23,1198.08,1440.89,1140.07,1444.3,1082.14Z"/><path class="cls-3" d="M1484.62,805.38s-26.7,264.1-27.33,267.45c-.09.44-.28,5.52-.53,13.81l-51.37-281.26Z"/><path class="cls-9" d="M1392,805.38s7.17,38.15,33.79,57.55c0,0,58.68,196.39,66.31,218.91,13.14,38.81,83.77,170.26,83.77,170.26l109-46.79s-83.15-146.46-92.13-157.74c-6-7.49-50.1-166.66-50.19-170.8-.93-46.76-16.61-71.63-16.61-71.63Z"/><path class="cls-3" d="M1480.2,819.2a36.42,36.42,0,0,0,13.33,19.14c7,5.37,15.52,7.61,24.21,8.3,1.47.12,1.59,2.33,0,2.34-17.77.11-35.72-11.25-38.32-29.67C1479.41,818.9,1480.09,818.8,1480.2,819.2Z"/><path class="cls-3" d="M1408.74,850.85c6.54,2.32,12.49,6.1,18.36,9.73,6.09,3.78,11.73,8.2,17.61,12.27.23.16,0,.53-.21.39-6.17-3.56-12.6-6.64-18.71-10.31-5.93-3.56-12.09-7-17.31-11.6C1408.27,851.15,1408.47,850.75,1408.74,850.85Z"/><path class="cls-3" d="M1406.24,813.81c1,4.07,2.14,8.09,3.21,12.13,1,3.79,1.79,7.66,3,11.4a19.64,19.64,0,0,0,5.8,9.41c1.57,1.32,3.28,2.48,4.94,3.69.89.65,1.85,1.27,2.78,1.92-.14-.53-.26-1.08-.38-1.63-.35-1.55-.68-3.09-1-4.64q-1.11-5.15-2.14-10.3c-1.35-6.77-2.62-13.6-4.35-20.28a.22.22,0,0,1,.42-.13c2,6.61,4.17,13.13,6,19.8.87,3.27,4.2,19.47,4.37,20.62s.33,2.37.42,3.57a14.08,14.08,0,0,1,.17,3.66c-.05.3-.41.27-.55.08h0a13.67,13.67,0,0,1-1.2-3.5c-.36-1.15-.67-2.32-.94-3.49-.09-.43-.17-.86-.25-1.3-1.65-.9-3.21-2.12-4.76-3.14s-3.37-2.17-5-3.39a18.33,18.33,0,0,1-6.28-8.88,67,67,0,0,1-2.46-11.64c-.73-4.61-1.32-9.25-2.18-13.84C1405.77,813.67,1406.18,813.53,1406.24,813.81Z"/><path class="cls-3" d="M1518.89,809.86a86.63,86.63,0,0,1,11,23.15,87.56,87.56,0,0,1,4.06,25.42,77.47,77.47,0,0,1-.93,12.9c-.18,1.06-.32,2.14-.56,3.19l-.33,1.59a4,4,0,0,0-.18,1.35c.25,2,.77,4.11,1.24,6.17,2,8.31,4.16,16.59,6.35,24.86,8.89,33.06,17.87,66.1,27.34,99l7.11,24.66c1.22,4.1,2.44,8.19,3.74,12.25.66,2,1.32,4.08,2.08,5.95.93,1.87,1.8,3.76,2.84,5.63,8.07,15,16.79,29.81,25.21,44.7,0,0,43,72.18,51.81,88.82.41.78.21,1.28-.59.24-7.68-10-35.67-58.48-53.11-88-8.73-14.74-17.35-29.52-25.59-44.6-1.05-1.86-2-3.85-3-5.81s-1.51-4.11-2.19-6.16c-1.33-4.09-2.58-8.19-3.83-12.29q-3.69-12.32-7.21-24.67c-9.22-33-18.32-66-26.66-99.25-2.07-8.31-4.13-16.62-6-25-.44-2.12-.93-4.15-1.18-6.42a5.89,5.89,0,0,1,.24-1.82l.34-1.55c.26-1,.4-2.08.59-3.12a82.66,82.66,0,0,0,1.15-12.67A90.62,90.62,0,0,0,1518.89,809.86Z"/><path class="cls-6" d="M1378.28,716q-6.55,19.66-14.11,36.58l-49.43-10.26A24.16,24.16,0,0,1,1296,713.78a23.79,23.79,0,0,1,4.62-9.86A25.77,25.77,0,0,1,1309,697a50.43,50.43,0,1,0-62.59-13,24.71,24.71,0,0,1,5.3,20.6,24.2,24.2,0,0,1-28.58,18.75l-123.88-25.71L1125,573.76a24.18,24.18,0,0,0-18.78-28.58,23.78,23.78,0,0,0-10.85.31,26.18,26.18,0,0,0-9.74,5,50.43,50.43,0,1,1,13-62.59,24.78,24.78,0,0,0,16.79,13.05A24.19,24.19,0,0,0,1144,482.2l25.71-123.89.06,0h.08c56,11.62,100,36.33,133.53,68.4a271.42,271.42,0,0,1,57.41,80.37C1394.16,577.8,1397.39,658.26,1378.28,716Z"/><path class="cls-10" d="M1534.81,820.3s-151.65,1-151.65,1c0,3,7.68-118.83,46.56-190.72,2.66-4.9,26.45-10.31,37-.69C1513.07,672.05,1534.83,822.23,1534.81,820.3Z"/><g class="cls-11"><path d="M1428.09,785.54c-3.92-3.27-9.68-2.43-11.38,2.82-2,6,2,11.83,7.14,14.65a19.71,19.71,0,0,0,17.71.72c5.32-2.41,3.88-10.73-1.39-12.15-2.4-.65-5.29-.75-7.53-1.87C1430.75,788.77,1429.69,786.87,1428.09,785.54Z"/><path d="M1421.44,765.72c-3.13,9,10.15,18.74,18.09,14.75a5,5,0,0,0,1.16-7.68c-1.91-2-3.68-2.5-5.38-4.32a7.8,7.8,0,0,1-1.5-2,13.71,13.71,0,0,0-3.6-4.14C1426.92,759.88,1422.59,762.4,1421.44,765.72Z"/><path d="M1398.56,763.32c-3.43,3.45-1.94,9.51.2,13.31s5.62,6.46,10,6.55c3.32.07,5.36-4.31,2.9-6.7a12.39,12.39,0,0,1-3.21-5.23c-.91-3-1.3-6.86-4.36-8.53A4.71,4.71,0,0,0,1398.56,763.32Z"/><path d="M1455.57,780.49a4.52,4.52,0,0,0-4.49,4.41,5.31,5.31,0,0,0,4.41,5.14,8.11,8.11,0,0,0,5.07-.57,3.77,3.77,0,0,0,1.75-2,4,4,0,0,0,.26-2.68,4.26,4.26,0,0,0-3.72-3.1,3.64,3.64,0,0,0-.6-.46A5.05,5.05,0,0,0,1455.57,780.49Z"/><path d="M1409.29,742c-3.55,4.64-.71,13.89,4.2,16.53a4.35,4.35,0,0,0,6.55-3.63,16.93,16.93,0,0,0-.29-2.88c-.14-1-.32-1.69-.36-2.3-.12-2,.18-4.36-.52-6.29C1417.26,738.94,1412.12,738.26,1409.29,742Z"/><path d="M1396.28,790.36c-4.81,7.28,5.74,17.55,13,16.92,2.43-.21,5.11-3,3.28-5.52-1.46-2-3.29-3.68-4.62-5.77-1.63-2.55-2.31-5.66-5.18-7.2A4.84,4.84,0,0,0,1396.28,790.36Z"/></g><g class="cls-11"><path d="M1507.9,776.56c-.45,2.77-.28,5.18-2,7.52s-4,3.93-5.22,6.68c-1,2.36,1.29,5.39,3.87,4.8,8.21-1.87,14.5-10.77,12.77-19.19A4.75,4.75,0,0,0,1507.9,776.56Z"/><path d="M1496.81,754.13c-1,3.45-.29,7.14-1,10.71a86.46,86.46,0,0,1-2.49,9.65c-.75,2.28,1.68,5.49,4.18,4,4.18-2.47,7.13-5.43,8.77-10.12,1.39-4,2.67-10.62.42-14.47C1504.62,750.38,1498.23,749.13,1496.81,754.13Z"/><path d="M1486.91,788.69c-1.87,2.64-3.92,5.45-6.8,7.06-2.73,1.52-4.09,4.57-2.35,7.45s5,3,7.69,1.39a18.73,18.73,0,0,0,9.1-13C1495.25,787.38,1489.27,785.33,1486.91,788.69Z"/></g><g class="cls-11"><path d="M1448,680a5.38,5.38,0,0,0,5.83-4.65c.75-5.37-4.53-10.17-8.59-13s-9.58-5.14-14.51-2.86c-3.13,1.44-3.11,5-.89,7.2,2.57,2.54,5.93,4.23,8.64,6.66C1441.43,676,1443.73,679.82,1448,680Z"/><path d="M1465.13,694.6c1.68-3.16-.39-7.27-2.18-9.9a8.92,8.92,0,0,0-3.87-3.27c-2.13-.87-5.17-.37-6,2.06a6,6,0,0,0,.23,4.43,13.29,13.29,0,0,0,1.07,2.09l.13.21.08.19c1,2.16,1.69,4.61,3.6,6.13C1460.67,698.54,1463.79,697.12,1465.13,694.6Z"/><path d="M1475.19,679.13c-.87-5.94-4.43-11.23-8.57-15.44-3.33-3.39-9.06-8.79-14.22-6.83a2.8,2.8,0,0,0-1.62,2.89c.14,4.13,5.35,8,7.75,11,3,3.82,5.36,8.15,8.44,11.92C1469.87,686.19,1475.88,683.79,1475.19,679.13Z"/><path d="M1463.78,715.76a6.32,6.32,0,0,0,2.69-.4,5.59,5.59,0,0,0,2.86-2.92,8.84,8.84,0,0,0,.44-4.3,8.23,8.23,0,0,0-1.55-3.77l-.9-.89-1.15-.65a4.85,4.85,0,0,0-3.17-.13,4.92,4.92,0,0,0-3.56,4.15,23.92,23.92,0,0,0-.34,4.39c.12.44.25.88.37,1.32a4,4,0,0,0,1.19,1.66A5.08,5.08,0,0,0,1463.78,715.76Z"/><path d="M1476.68,705.32a4.47,4.47,0,0,0,3.68-3.82,10.9,10.9,0,0,0-1-5.59c-.62-1.49-1.65-3.43-3.07-4.31-2.16-1.33-5.13-.44-5.46,2.33a17.67,17.67,0,0,0,.45,4.27c.09.61.13,1.22.17,1.84a12.61,12.61,0,0,0,.61,2.69C1472.56,704.48,1475,705.65,1476.68,705.32Z"/></g><path class="cls-12" d="M1461.69,668.15c-9.44,20.27-52.87,97.39-82.26,100.48-35.61,3.74-80.89-4.21-100.65-13.83-11.07-5.39,17.7-59.53,28.25-55.94,16.64,5.67,49,8.49,55.46,9s51.41-33.65,76.46-52.35C1461.51,638.63,1467.25,656.21,1461.69,668.15Z"/><path class="cls-12" d="M1271.7,697.87c3.92-.15,3.87-2.21-1.79-6.31s-31.51-15.5-26.77-24.18,41,7.93,49.89,15.47,20.63,22.86,20.63,22.86C1306,703.89,1286.85,701.25,1271.7,697.87Z"/><path class="cls-12" d="M1295.16,760.55c-22.12-5.52-49.69-11.92-67.22-30a12.5,12.5,0,0,1-3.63-7.31c-8-8-6.65-14.13-6.65-14.13-5.18-9.69-2.92-15.81-2.92-15.81s-9.29-9.44-4.52-16c5.34-7.37,17.34,7.34,28.89,11.39,26.46,9.29,66.66,15.09,74.55,17Z"/><path class="cls-3" d="M1260,717.92c-7.73-2.89-15.4-5.52-22.7-9.44-8-4.31-15-9.79-22.24-15.19a.22.22,0,0,0-.29.33c11.58,11.86,29,21,45.11,24.65C1260.26,718.36,1260.38,718.06,1260,717.92Z"/><path class="cls-3" d="M1256.71,734.7c-7.37-3.23-20.28-9-38.87-25.77-.06,0-.17,0-.11.1,10.62,12.51,23.43,20.76,38.83,26C1257,735.21,1257.2,734.92,1256.71,734.7Z"/><path class="cls-3" d="M1254.78,743.69c-12.32-6-19.33-11.29-30.39-20.44-.07,0-.17,0-.11.11,11.48,11.72,17,14.67,30.35,20.78C1255.09,744.35,1255.26,743.92,1254.78,743.69Z"/><path class="cls-10" d="M1320.55,699.1l-24.22,67.07s63.24,13.3,88.6,3.79,58.88-59.37,74.75-88.51,7.53-53.61-33.3-21.14-60.55,45-63.41,45.54S1320.55,699.1,1320.55,699.1Z"/><g class="cls-11"><path d="M1379.34,754.41c-2.56,1.16-4.47,2.63-7.4,2.44s-5.49-1.16-8.45-.66c-2.53.43-3.78,4-1.88,5.87,6.09,5.82,17,6.16,23.06.07A4.75,4.75,0,0,0,1379.34,754.41Z"/><path d="M1392,732.8c-3.42,1.08-6.12,3.69-9.5,5.06a87.41,87.41,0,0,1-9.43,3.24c-2.31.63-3.65,4.43-1,5.7,4.36,2.12,8.46,3,13.27,1.73,4.12-1,10.34-3.62,12.31-7.62C1399.38,737.25,1396.89,731.23,1392,732.8Z"/><path d="M1357.65,743.58c-3.23-.09-6.71-.26-9.64-1.78-2.77-1.43-6.07-.89-7.51,2.15s.25,5.85,3.08,7.18a18.72,18.72,0,0,0,15.84.45C1363.34,749.83,1361.75,743.71,1357.65,743.58Z"/></g><g class="cls-11"><path d="M1448,680a5.38,5.38,0,0,0,5.83-4.65c.75-5.37-4.53-10.17-8.59-13s-9.58-5.14-14.51-2.86c-3.13,1.44-3.11,5-.89,7.2,2.57,2.54,5.93,4.23,8.64,6.66C1441.43,676,1443.73,679.82,1448,680Z"/><path d="M1459.55,681.69c-1.5,2.77-3.17,5.71-5,8.78,0,0,0,0,0-.05a1,1,0,0,1-.09-.2,1.25,1.25,0,0,0-.14-.2c-.39-.73-.76-1.35-1.07-2.09a6.06,6.06,0,0,1-.23-4.43c.91-2.43,3.93-2.94,6-2.06A1.84,1.84,0,0,1,1459.55,681.69Z"/><path d="M1466.52,663.59a57.77,57.77,0,0,1-4.18,12.54c-1.21-1.84-2.45-3.67-3.81-5.39-2.4-3-7.6-6.86-7.74-11a2.77,2.77,0,0,1,1.61-2.88C1457.51,654.93,1463.16,660.21,1466.52,663.59Z"/></g><path class="cls-3" d="M1389.21,768c2.09-2.91,15.44-6.68,51.12-54.25,7.29-9.71,13-19.43,20.2-28.61.09-.11.24,0,.18.13-3.47,6.63-7.37,13-11.48,19.32l.94-.81c2.69-2.32,5.49-4.56,7.94-7.14.18-.19.45.12.26.3-2.52,2.46-4.79,5.18-7.24,7.71-1.19,1.22-2.37,2.44-3.65,3.56-.48.43-1,.89-1.54,1.33-38.24,53.32-54.6,56.52-56.44,58.72C1389.32,768.49,1389,768.24,1389.21,768Z"/><path class="cls-3" d="M1310.69,766.21c1.25-5.32,3.27-10.49,5-15.66s3.54-10.16,5.36-15.23c3.67-10.22,7.13-20.6,11.46-30.56a.2.2,0,0,1,.38.12c-2.67,10.62-6.46,21-10.09,31.33q-2.74,7.77-5.69,15.46a142,142,0,0,1-6.09,14.72C1311,766.61,1310.63,766.43,1310.69,766.21Z"/><path class="cls-3" d="M1320.35,698.43c6.3.64,31.3,5.55,37.6,6.17a13.11,13.11,0,0,0,8.08-1.66c2.72-1.54,48-33,53-36.75.2-.15.46.16.26.31-5.26,3.74-40.37,30.38-45.78,34.13a59.29,59.29,0,0,1-7.51,4.84,11.87,11.87,0,0,1-7.91.89c-5.94-1.17-29.14-5.56-37.27-7.06-.16,0-1.34,3-1.49,2.94l-.33-.07C1318.86,702.14,1320.07,698.4,1320.35,698.43Z"/><path class="cls-12" d="M1383.23,557.56c1.82-10.27,9.57-24.53,8.41-32.2a8.88,8.88,0,0,0-7.25-7.74s6.39-5.73,4.2-12.51c-1.13-3.49-7.7-4.76-7.7-4.76s4.92-4.81,2.6-10.72c-1.85-4.71-8.15-5.27-8.15-5.27s2.56-6.82-.86-11c-6.94-8.51-48.82,3-51,20.22-1,8,9,4.65,9,4.65s-13.32,8.35-11.16,17,15,3.53,15,3.53-12.84,8.2-9.69,17c3.27,9.15,15.21,1.78,15.21,1.78s-7.57,8.87-3.62,15.05c6.52,10.2,20.29-8.67,30.09-9l9.26,13.77Z"/><path class="cls-12" d="M1388,542.06c-.87,9.87,13.27,17.88,13.79,27.44.72,12.93-16.31,4.75-24.24-12.14l-3.86-14.18Z"/><path class="cls-3" d="M1374.41,483.86a.12.12,0,0,0,0-.23c-14.7.44-30.71,5.42-42.43,14.45-.39.3-.07,1.05.41.8C1346.23,491.89,1359.09,486.78,1374.41,483.86Z"/><path class="cls-3" d="M1381.07,500.21c.17,0,.12-.31-.06-.3-15.15.53-33,6.64-45.31,18.64-.42.41-.39,1.2.13.76C1344.61,512,1367.27,502.77,1381.07,500.21Z"/><path class="cls-3" d="M1341.2,538.71c12.22-11,26.76-17.06,42.57-21.1.21-.05.11-.34-.07-.34-8.28-.13-18.09,3.49-25.49,7a43.36,43.36,0,0,0-17.39,14.07C1340.64,538.53,1340.94,539,1341.2,538.71Z"/><path class="cls-12" d="M1433.48,651.06c7.23,1.66,22.22-7,27.3-17.31.34-.71-1-8-2.32-16.87-.75-5.4-1.46-11.43-1.71-17,0-1.14-34.44,10-34.44,10s4,11.48,4.32,21.17a12,12,0,0,1-.14,2.28c0,.11,0,.24,0,.38C1426,638.11,1425.74,649.28,1433.48,651.06Z"/><path class="cls-3" d="M1426.48,633.37c0,.11,0,.25,0,.38a23.36,23.36,0,0,0,3.57,0c20.47-1.37,24.73-27.27,25.48-33.82-6.15,1.17-33.21,10-33.21,10s4,11.49,4.33,21.17A11.89,11.89,0,0,1,1426.48,633.37Z"/><path class="cls-12" d="M1461.27,556.38c3.94,12.31-2.12,48.1-10.81,56.17-12.59,11.71-33.43,13.09-43.44-2.1-9.7-14.72-1-61.22,8.74-68.58C1430.08,531,1455.46,538.2,1461.27,556.38Z"/><path class="cls-3" d="M1426.73,578.21c0-.09.17.15.15.25-.48,2.39-.61,5.22,1.44,6.38.06,0,0,.16,0,.13C1425.67,584.16,1425.89,580.41,1426.73,578.21Z"/><path class="cls-3" d="M1429.3,576.05c3.92.34,3,8.17-.69,7.85S1426,575.76,1429.3,576.05Z"/><path class="cls-3" d="M1412.63,576.86c0-.09-.2.09-.21.19-.22,2.44-.89,5.19-3.19,5.72-.07,0-.08.14,0,.14C1412,582.87,1412.81,579.2,1412.63,576.86Z"/><path class="cls-3" d="M1410.78,574.06c-3.86-.78-5.14,7-1.56,7.73S1414,574.71,1410.78,574.06Z"/><path class="cls-3" d="M1432.83,572.85a29,29,0,0,1-2.9-1.45c-1.11-.56-2-.9-2.68-2a1.7,1.7,0,0,1,.52-2c1.3-.89,2.83-.53,4.19.1a6,6,0,0,1,3.15,3A1.78,1.78,0,0,1,1432.83,572.85Z"/><path class="cls-3" d="M1408.25,569.74a31.67,31.67,0,0,0,3.21-.42c1.23-.18,2.23-.19,3.19-1.06a1.67,1.67,0,0,0,.16-2c-.94-1.27-2.5-1.43-4-1.28a6.06,6.06,0,0,0-4,1.85A1.78,1.78,0,0,0,1408.25,569.74Z"/><path class="cls-3" d="M1426.17,601c-.65.49-1.33,1.2-2.22,1.17a6.53,6.53,0,0,1-2.53-.94.08.08,0,0,0-.12.11,3.28,3.28,0,0,0,2.91,1.7,2.58,2.58,0,0,0,2.18-1.9C1426.44,601,1426.26,600.93,1426.17,601Z"/><path class="cls-3" d="M1424.52,593.43a8.35,8.35,0,0,1-6,3,10.43,10.43,0,0,1-3-.24,3.5,3.5,0,0,1-.56-.13l-.52-.15a.63.63,0,0,1-.42-.61h0a1.11,1.11,0,0,1,0-.25v0l0-.21c.18-1.87.72-4.69.72-4.69-.73.26-4.4,1.39-4.22.42,1.48-8,3.14-16.94,6.31-24.6a.23.23,0,0,1,.44.12c-1.13,7.76-3.61,15.27-4.86,23.05a14.73,14.73,0,0,1,4-.7c.26.11-1.13,5.43-1.14,6.28a.21.21,0,0,0,0,.09c3.09.79,5.57.14,8.88-1.59C1424.52,593.06,1424.69,593.25,1424.52,593.43Z"/><path class="cls-3" d="M1416.78,595.37a9.9,9.9,0,0,0,3.55,3.53,4.43,4.43,0,0,0,2.66.5c2-.27,2.27-2,2.1-3.6a10.44,10.44,0,0,0-.58-2.44A12.76,12.76,0,0,1,1416.78,595.37Z"/><path class="cls-13" d="M1420.33,598.9a4.43,4.43,0,0,0,2.66.5c2-.27,2.27-2,2.1-3.6C1423,595.75,1420.76,596.9,1420.33,598.9Z"/><path class="cls-3" d="M1409.12,553.12c1.7-2.92,3.62-5.83,5.55-6.21s2.59,4.28,6.77,5.08c5.64,1.09,9-3.8,17.07-3.38,11.53.61,15.39,10.78,13.67,27-1.53,14.51,7.06,17,7.06,17s9.23-31.29,1.52-43-27.79-18.9-42.91-10.51C1412.34,542.17,1409.12,553.12,1409.12,553.12Z"/><path class="cls-12" d="M1452.63,586s8.15-11.49,13.37-8.57-1,19.61-7.13,21.85a6.25,6.25,0,0,1-8.36-3.42Z"/><path class="cls-3" d="M1464.11,582.17a.08.08,0,0,1,0,.16c-4.32,1.72-6.62,5.7-8.24,9.84,1.29-1.59,3-2.45,5.17-.91.11.08,0,.26-.12.23a3.85,3.85,0,0,0-4.24,1.31,18.7,18.7,0,0,0-2,3.41c-.21.39-.9.18-.75-.27a.69.69,0,0,1,0-.1C1453.87,590.34,1458.2,582.68,1464.11,582.17Z"/><path class="cls-6" d="M1427.94,534.88a51.83,51.83,0,0,1,14.64-3.34c5.61-.33,23.07,2.18,27,6s4,20.39,4,22.82-2.09,17-7.62,20.15-4.39-21.69-12.21-30.47S1427.94,534.88,1427.94,534.88Z"/><path class="cls-8" d="M1427.93,534.88s18,6.35,25.81,15.14,6.69,33.65,12.22,30.48c2.43-1.41,3.72-3.64,4.93-7.46-.63-7.33-2.82-18.78-8.35-27-5.19-7.68-14.69-12-25-13.88A59.46,59.46,0,0,0,1427.93,534.88Z"/><path class="cls-6" d="M1463.54,595.14c0-6.65-5.6-24.81-12-35.43s-26.75-17.92-29.66-17.94c-7.07-.06-8.84,3.2-9.91,2.5s6.49-8.24,8.56-9.3a22.9,22.9,0,0,1,9.9-1.79c3,.27,21.81,3.39,28.14,11.9s14.55,31.7,12.39,37.36c-.52,1.36-2.42,2.13-3.14,4.06-.94,2.53-1.68,5.48-2.57,7.23C1464.53,595.14,1463.54,595.72,1463.54,595.14Z"/><path class="cls-3" d="M1450.23,555.05A33.81,33.81,0,0,0,1455,552a24.38,24.38,0,0,0,4.2-3.92c.08-.11.26,0,.18.12a19,19,0,0,1-3.87,4.46,15.7,15.7,0,0,1-5.17,2.74C1450.15,555.46,1450,555.14,1450.23,555.05Z"/><path class="cls-3" d="M1464,588.53a14.92,14.92,0,0,1,.81-1.31,9.25,9.25,0,0,0,.73-1.6,14.59,14.59,0,0,1,1-3.16,12.21,12.21,0,0,1,1.7-2.1,4.41,4.41,0,0,0,1.48-2.6c0-.14.23-.13.22,0-.13,2-1.57,3.35-2.56,5a21,21,0,0,0-1.13,3.38,5.22,5.22,0,0,1-1.93,2.65C1464.18,588.84,1464,588.7,1464,588.53Z"/><path class="cls-3" d="M1462.23,581.23c.67-.71,1.39-1.34,2-2.12a20.24,20.24,0,0,0,1.59-2.39c.47-.81.87-1.66,1.33-2.48.54-1,1.2-1.88,1.69-2.88.06-.12.25,0,.19.12-.51,1-.84,2.16-1.32,3.2a21.48,21.48,0,0,1-1.44,2.62,14.65,14.65,0,0,1-1.72,2.28,7.28,7.28,0,0,1-2.26,1.75A.06.06,0,0,1,1462.23,581.23Z"/><path class="cls-3" d="M1460.25,574.6a19,19,0,0,0,3.87-3.83c1.05-1.42,2-2.92,3-4.42.07-.1.25,0,.2.1a22.38,22.38,0,0,1-2.61,4.87,11.85,11.85,0,0,1-1.83,2,12.08,12.08,0,0,1-2.49,1.49C1460.27,574.84,1460.13,574.68,1460.25,574.6Z"/><path class="cls-3" d="M1458,568.24a6.46,6.46,0,0,0,1.87-1.66c.63-.7,1.23-1.42,1.81-2.16s1.14-1.4,1.7-2.11a6.59,6.59,0,0,0,1.35-2.35.11.11,0,0,1,.21,0,6.62,6.62,0,0,1-.93,2.53,16.16,16.16,0,0,1-1.67,2.49,21.71,21.71,0,0,1-2,2.18,4.27,4.27,0,0,1-2.23,1.32A.15.15,0,0,1,1458,568.24Z"/><path class="cls-3" d="M1456.66,560.26c.66-.57,1.3-1.13,1.91-1.74s1.18-1.25,1.74-1.89,1.21-1.35,1.75-2.06a.11.11,0,0,1,.19.12,17.51,17.51,0,0,1-1.38,2.32,18.64,18.64,0,0,1-1.74,2,20.57,20.57,0,0,1-1.94,1.79,7.13,7.13,0,0,1-2.25,1.36c-.13,0-.25-.13-.17-.23A13.26,13.26,0,0,1,1456.66,560.26Z"/><path class="cls-3" d="M1445.4,551c.71-.77,1.4-1.52,2.17-2.22a28.33,28.33,0,0,1,2.5-2,27.08,27.08,0,0,1,5.36-3.12c.1,0,.23.09.12.17-3.3,2.48-6.72,4.82-10,7.32A.11.11,0,0,1,1445.4,551Z"/><path class="cls-3" d="M1441.77,545a13.75,13.75,0,0,1,2.39-2,29.3,29.3,0,0,1,5.88-2.78.11.11,0,1,1,.1.19c-1.79,1-3.6,2-5.33,3.16a25.61,25.61,0,0,0-2.49,1.78c-.8.65-1.42,1.45-2.18,2.13-.06.06-.17,0-.13-.08A7.61,7.61,0,0,1,1441.77,545Z"/><path class="cls-3" d="M1436.43,542.06a15.55,15.55,0,0,1,2.22-2,16.77,16.77,0,0,1,5-2.51.11.11,0,0,1,.08.2,32,32,0,0,0-4.78,3c-.76.57-1.48,1.17-2.21,1.77s-1.36,1.37-2.14,1.89c-.07,0-.13,0-.09-.11A15.69,15.69,0,0,1,1436.43,542.06Z"/><path class="cls-3" d="M1432.67,538.5c.73-.52,1.49-1,2.25-1.47a8.22,8.22,0,0,1,2.39-1.14.11.11,0,0,1,.07.2c-1.42,1-2.83,2-4.24,3a23,23,0,0,0-3.33,3.44.07.07,0,0,1-.12-.07A8.47,8.47,0,0,1,1432.67,538.5Z"/><path class="cls-3" d="M1427.77,537.11a13.73,13.73,0,0,1,4.6-2.46c.12,0,.19.16.08.2a16.79,16.79,0,0,0-4.22,2.76,23.73,23.73,0,0,0-3.43,3.72c0,.06-.17,0-.13-.07A11.41,11.41,0,0,1,1427.77,537.11Z"/><path class="cls-3" d="M1421.07,539.64a8.9,8.9,0,0,1,.64-1,11.2,11.2,0,0,1,1.59-1.71,23.86,23.86,0,0,1,4-2.64c.12-.07.22.13.1.19a19.55,19.55,0,0,0-3.71,2.74,16.21,16.21,0,0,0-1.54,1.67c-.23.29-.44.59-.65.9a5.48,5.48,0,0,1-.61.9.11.11,0,0,1-.18-.09A3.11,3.11,0,0,1,1421.07,539.64Z"/><path class="cls-3" d="M1417.07,539.74a14.58,14.58,0,0,1,1.31-1.41,17,17,0,0,1,1.46-1.23c.53-.39,1.08-.76,1.59-1.17.12-.1.25.09.12.18a12.2,12.2,0,0,0-1.49,1.29l-1.33,1.31c-.45.43-.89.87-1.33,1.31a16.94,16.94,0,0,1-1.33,1.35.09.09,0,0,1-.14-.11A8.05,8.05,0,0,1,1417.07,539.74Z"/><polygon class="cls-6" points="582.88 1380.61 567.49 1380.61 443.88 805.05 313.67 805.05 388.08 1380.61 372.9 1380.61 296.75 791.71 456.39 791.71 582.88 1380.61"/><polygon class="cls-14" points="582.88 1380.61 567.49 1380.61 443.88 805.05 313.67 805.05 388.08 1380.61 372.9 1380.61 296.75 791.71 456.39 791.71 582.88 1380.61"/><rect class="cls-6" x="286.73" y="777.93" width="176.99" height="15.9"/><rect class="cls-15" x="286.73" y="777.93" width="176.99" height="15.9"/><polygon class="cls-6" points="456.32 793.83 394.05 1411.5 378.87 1411.5 439.63 808.94 309.37 808.94 199.49 1411.5 184.13 1411.5 296.76 793.83 456.32 793.83"/><rect class="cls-6" x="286.24" y="926.62" width="153.92" height="15.11"/><g class="cls-16"><polygon points="456.32 793.83 394.05 1411.5 378.87 1411.5 439.63 808.94 309.37 808.94 199.49 1411.5 184.13 1411.5 296.76 793.83 456.32 793.83"/><rect x="286.24" y="926.62" width="153.92" height="15.11"/></g><path class="cls-17" d="M231.93,994.13s-53.17,100.12-53.18,100.19c-3.11,18.92-5.49,35.56-5.92,44.28a.37.37,0,0,0,0,.15c-.16,3.29,0,5.42.44,6.07,0,0,.05.1.09.14,5,4.73,155.47,34,161.06,33.2s3.9-16.74-1-22.53-57.56-42.75-57.56-42.75L328,1012.66Z"/><path class="cls-9" d="M192.5,1060.22,304,1073.1S422.22,891.32,410.32,828.49c-6.54-34.56-124.08-88.86-124.08-88.86l-11.89-23.89h-82.9s-33.79,49.82-9.53,96.61c16.49,31.8,107.09,56.06,110.42,66.28C296.74,892.11,192.5,1060.22,192.5,1060.22Z"/><path class="cls-3" d="M294.38,1043.93c9.85-15.06,62.83-110.8,70.75-126.92,4-8,7.79-16.18,11.25-24.45a220.57,220.57,0,0,0,9.16-25.19c2.37-8.5,4.55-17.46,2.74-25.92a36.55,36.55,0,0,0-5-12,57,57,0,0,0-3.79-5.4c-1.43-1.68-2.83-3.39-4.38-5-12.43-12.76-27.94-22.21-43.53-31s-32.06-16.19-48.37-23.8c-4.07-1.93-8.13-3.87-12.15-5.93-2-1-4-2.11-5.93-3.28s-4-2.47-5.08-4.56c-4.53-7.91-6.39-17-7.25-25.88,1.07,8.88,3.17,17.88,7.82,25.53,1.07,2,3,3,4.94,4.2s3.94,2.11,6,3.1c4,1.94,8.15,3.78,12.25,5.61,16.42,7.35,32.9,14.66,48.82,23.17a252.17,252.17,0,0,1,23.27,13.87,135.26,135.26,0,0,1,21.05,17.21c1.6,1.63,3.07,3.39,4.55,5.12a60.21,60.21,0,0,1,4,5.63,39.11,39.11,0,0,1,5.42,12.75c1.19,4.58.74,9.34.29,13.87-.43,2.24-.74,4.53-1.26,6.74s-1.05,4.44-1.7,6.61a222.88,222.88,0,0,1-9.39,25.46c-3.53,8.31-7.4,16.46-11.43,24.53C359.28,934.24,304.59,1029.11,294.38,1043.93Z"/><path class="cls-9" d="M239.55,821.85c0,.07,45.48,143.36,46.3,169.71.7,22.46-2.17,220.66-2.17,220.66l115.14.69s-9.73-202.76-11.53-226.17c-3.36-43.78-41.7-163.94-69.13-271H194s1.08,56.07,26.57,96.61C220.6,812.35,232.15,817.7,239.55,821.85Z"/><path class="cls-3" d="M315,783.29c4.11,13.69,7.57,27.6,11.24,41.42s7.39,27.86,11.06,41.8c7.1,27,14.12,54,19.44,81.37a491.78,491.78,0,0,1,9.2,83.39c.61,28.53,0,57.12-.18,85.66-.19,28.7-.43,25.09-.93,53.79-.06,3.57-.14,7.14-.27,10.71a.27.27,0,0,1-.53,0c-.76-28.54-.36-24.84-.27-53.39s.48-57.12.23-85.67a513.26,513.26,0,0,0-7.32-84.58c-4.81-27.47-11.58-54.55-18.6-81.54-4-15.39-8.05-30.77-12-46.16s-8.32-31-11.86-46.58A.43.43,0,0,1,315,783.29Z"/><path class="cls-3" d="M268,824.62a102.2,102.2,0,0,1-17.1-1.55c-5.7-1.07-11-3-16.57-4.59-5.25-1.55-10.85-1.79-16.24-2.66a57,57,0,0,1-15.92-4.74c-.24-.11-.43.24-.2.36a98.1,98.1,0,0,0,15.26,6.61c5.46,1.73,11.17,2,16.71,3.32,5.7,1.39,11.19,3.24,17,3.92a61.39,61.39,0,0,0,17.07-.29C268.31,825,268.23,824.63,268,824.62Z"/><path class="cls-3" d="M286.24,1097.46l-.2-35.31c0-11.77-.12-23.54-.32-35.3s-.35-23.53-1.17-35.2a103.79,103.79,0,0,0-2.84-17.22c-1.25-5.72-2.78-11.4-4.23-17.09-5.82-22.78-12.32-45.4-18.72-68l-19.29-67.93c3.75,11.16,7.29,22.38,10.89,33.59l10.41,33.75q10.23,33.79,19.35,67.95c1.42,5.72,2.9,11.42,4.12,17.21a104.9,104.9,0,0,1,2.78,17.6c.7,11.82.84,23.59.79,35.37Q287.69,1062.17,286.24,1097.46Z"/><path class="cls-3" d="M378.07,937.37c-4.28-14.88-8.32-29.81-12.35-44.75l-11.9-44.86-11.73-44.89c-1.92-7.49-3.93-15-6-22.41s-4-15-6.72-22.19c6.17,14.23,10.26,29.23,14.72,44s8.32,29.82,12.34,44.76c3.82,15,7.69,30,11.3,45S374.88,922.22,378.07,937.37Z"/><path class="cls-17" d="M292.75,586c0,2.44,7.77,20,18.5,21.83,3.49.6,7.61-18.33,7.61-18.33l.62-1.32,8.71-18.59-19.7-19.84-2.89-2.69s-2.05,5.25-4.53,11.8l-.36.93c-.15.37-.29.71-.42,1.06-.38,1-.77,2-1.13,3-.29.76-.56,1.49-.83,2.3s-.55,1.59-.84,2.4C294.83,576.56,292.76,585,292.75,586Z"/><path class="cls-3" d="M301.07,558.89a41.21,41.21,0,0,0,18.41,29.32l8.71-18.59-19.7-19.84-2.89-2.69S303.55,552.34,301.07,558.89Z"/><path class="cls-17" d="M361.33,538.82c3.5,35.86-17.46,42.36-25.32,42.75-7,.36-31,2.1-38.2-33.21s8.38-48.27,24.36-50.67S357.82,503,361.33,538.82Z"/><path class="cls-3" d="M358.8,531.24a22.44,22.44,0,0,1-2.45-.44,4,4,0,0,1-2.41-.93,1.29,1.29,0,0,1,0-1.57,3.18,3.18,0,0,1,3.11-.83,4.68,4.68,0,0,1,3,1.57A1.36,1.36,0,0,1,358.8,531.24Z"/><path class="cls-3" d="M335.58,533.15a23,23,0,0,0,2.42-.58,4,4,0,0,0,2.35-1.06,1.26,1.26,0,0,0-.05-1.56,3.17,3.17,0,0,0-3.15-.66,4.62,4.62,0,0,0-2.88,1.73A1.37,1.37,0,0,0,335.58,533.15Z"/><path class="cls-3" d="M341.13,541.87c0-.09-.19.13-.18.23.2,2.44,0,5.28-2.16,6.21-.06,0-.05.15,0,.13C341.51,547.92,341.71,544.16,341.13,541.87Z"/><path class="cls-3" d="M338.81,539.42c-4-.09-3.87,7.82-.2,7.92S342.12,539.51,338.81,539.42Z"/><path class="cls-3" d="M337.26,539.86c-.69.46-1.36,1.26-2.19,1.35s-1.7-.72-2.34-1.51c-.07-.08-.14,0-.14.1,0,1.51.6,3.06,2.23,3.27s2.54-1.17,2.9-2.69C337.78,540.09,337.53,539.68,337.26,539.86Z"/><path class="cls-3" d="M354.29,540.35c0-.09.2.12.19.22-.06,2.45.27,5.27,2.49,6.08.07,0,.07.15,0,.13C354.24,546.41,353.84,542.66,354.29,540.35Z"/><path class="cls-3" d="M356.47,537.78c3.95-.31,4.29,7.6.64,7.89S353.17,538.05,356.47,537.78Z"/><path class="cls-3" d="M358.15,538.23c.64.39,1.29,1.13,2,1.14s1.47-.86,2-1.7c.05-.09.12,0,.13.08.1,1.51-.33,3.1-1.77,3.46s-2.34-.94-2.77-2.43C357.69,538.51,357.89,538.07,358.15,538.23Z"/><path class="cls-3" d="M341.31,560.81c.57.59,1.12,1.4,2,1.51a6.45,6.45,0,0,0,2.66-.53.09.09,0,0,1,.1.13,3.33,3.33,0,0,1-3.16,1.23,2.6,2.6,0,0,1-1.85-2.24C341,560.77,341.22,560.72,341.31,560.81Z"/><path class="cls-3" d="M351.35,551.7s.6,3.66.64,5.38c0,.17-.42.25-1,.3,0,0-.05,0-.07,0a8.2,8.2,0,0,1-8.05-2.88c-.12-.16.09-.35.25-.24a12.38,12.38,0,0,0,7.55,2c.11-.48-1.22-6.22-.95-6.25a15.23,15.23,0,0,1,3.95.8c-1-7.64-3.25-15.06-4.14-22.68A.24.24,0,0,1,350,528c2.89,7.61,4.24,16.37,5.49,24.24C355.64,553.2,352.05,552,351.35,551.7Z"/><path class="cls-3" d="M350.82,556.06a10.08,10.08,0,0,1-3.56,3.64,4.58,4.58,0,0,1-2.7.55c-2-.25-2.34-2-2.19-3.64a10.6,10.6,0,0,1,.55-2.49A13.06,13.06,0,0,0,350.82,556.06Z"/><path class="cls-13" d="M347.26,559.7a4.58,4.58,0,0,1-2.7.55c-2-.25-2.34-2-2.19-3.64C344.51,556.53,346.79,557.67,347.26,559.7Z"/><path class="cls-3" d="M300.22,552.88c-1.73-2.28-13.29-14.27-13.9-20.41-.36-3.59,5.53-13.32,5.53-13.32l-5-3.36,4.58,1.24-6.77-11.29,8.36,7.46s1.51-9.14,2.3-11.36S311,487.7,311,487.7l-4.45,7.75s27-11,30.43-10.71c8.5.73,26.86,14.34,26.86,14.34l-19.9-3.17s19.11,7.93,23,11.46S373,528.12,373,528.12l-17.39-11.71,6.24,9.79s-15.27,2.28-19.72,2.12c-9.41-.34-31-8.18-31-8.18s.5,8.26.14,10.83c-.63,4.48-5,13.84-5,13.84L304,537.28Z"/><path class="cls-17" d="M305,548.53s-9.39-10-14-6.49,3.55,18.79,9.8,20.14a6.09,6.09,0,0,0,7.6-4.42Z"/><path class="cls-3" d="M293.45,546.36a.09.09,0,0,0,0,.17c4.4,1.08,7.15,4.61,9.26,8.39-1.46-1.36-3.26-2-5.11-.19-.1.09,0,.25.14.21a3.73,3.73,0,0,1,4.27.7,18.23,18.23,0,0,1,2.44,3c.25.34.89,0,.68-.36l0-.1C304.41,552.89,299.22,546.07,293.45,546.36Z"/><path class="cls-6" d="M322.18,691.73l-4,24H191.45s41.06-102.6,82.21-127.11c20.58-12.25,38.46-5.56,46.59,9.71,2.05,3.87,21.16,46.16,19.59,65C338.4,680,322.18,691.73,322.18,691.73Z"/><path class="cls-5" d="M319.63,707l-.59,3.44H193.62c.45-1,1-2.17,1.49-3.44Z"/><path class="cls-5" d="M320.9,699.34l-.56,3.44H197c.48-1.07,1-2.23,1.52-3.44Z"/><path class="cls-17" d="M300.51,616.07c13.37,19.47,70.29,81.55,92.7,79.53,35.14-3.16,72-20.63,92.43-29.63,6.49-2.86-23-64.94-34.88-58-15.29,8.93-46.88,21.92-56.07,23.36-6.27,1-47.85-22.67-76.88-38.91C293.6,578.85,283.57,591.41,300.51,616.07Z"/><path class="cls-17" d="M440.28,614.77s9.82-6.42,10.48-6.82c2.24-1.38,4.41-3.31,8.82-8.24,10.43-11.65,43.28-33.38,84.47-18,15.78,5.88,18.54,19.52,1.06,16.32-12.31-2.25-20.65-4.87-24.87-4.48,0,0,12.6,14.43,10,25.23-1.16,4.82-4.63,17.91-8.79,27.72a42.57,42.57,0,0,1-5.33-1.18A23.32,23.32,0,0,1,496.85,661l-16.65,7.34Z"/><path class="cls-17" d="M471.31,590.18c8.14-1,25.41-2.85,40.07.55,16.28,3.78,46.63,15.46,43.71,27.45C553,627,541,623.53,541,623.53s11.52,7.47,7.85,15c-3.34,6.85-12.44,3.64-12.44,3.64s6.21,5.73,1.72,11.71c-5.41,7.2-17.54-6-29.31-3.44C506.16,651,471.31,590.18,471.31,590.18Z"/><path class="cls-3" d="M504.52,607.27c7.8.31,25.35,5.55,36.36,15.93.25.23.21.55-.06.38a164.38,164.38,0,0,0-36.34-16.16C504.39,607.4,504.43,607.27,504.52,607.27Z"/><path class="cls-3" d="M501.17,623.82c6.71.95,24.56,7.17,35.36,18.07.24.24.17.55-.09.38A175.17,175.17,0,0,0,501.13,624C501,623.94,501.09,623.8,501.17,623.82Z"/><path class="cls-6" d="M377.93,624l-23.34,57.54s-37.46-38-56.09-64.25-8.16-39,19.79-27.36S377.93,624,377.93,624Z"/><path class="cls-3" d="M365.12,620.87c-.76,2-1.82,3.86-2.72,5.76s-1.75,3.86-2.6,5.81c-1.63,3.75-3.27,7.51-4.93,11.25-3.36,7.59-6.9,15.1-9.85,22.92,0,.11.14.23.2.12a197.23,197.23,0,0,0,11-22.2q2.51-5.71,4.86-11.52c.8-2,1.58-3.94,2.29-6s1.25-4.13,2.05-6.06C365.45,620.83,365.18,620.71,365.12,620.87Z"/><path d="M304.52,625.37c11.89,14.28,24.1,29.25,37,42.54-13.57-13-25.53-27.67-37-42.54Z"/><path d="M306,630.37a31.52,31.52,0,0,0,6.95,5.41,17.6,17.6,0,0,1-6.95-5.41Z"/></g></svg>