<svg id="Слой_1" data-name="Слой 1" xmlns="http://www.w3.org/2000/svg" viewBox="0 0 1800 1000"><defs><style>.cls-1{fill:#306;}.cls-2{fill:#ececec;}.cls-3,.cls-5{fill:#fff;}.cls-4{fill:#ffc800;}.cls-5{opacity:0.3;}.cls-6,.cls-9{opacity:0.1;}.cls-7{fill:#4a148c;}.cls-8{fill:#a8a8a8;}.cls-10{fill:#ffaba1;}.cls-11{fill:#ff9bbe;}.cls-12{opacity:0.6;}.cls-13,.cls-14{opacity:0.4;}.cls-15{fill:#c36358;}</style></defs><path class="cls-1" d="M1706.9,689.83l17.44-28.1-8.61-5.34a7.84,7.84,0,0,1-3.65-7.39,45.32,45.32,0,0,0,.15-5,7.85,7.85,0,0,1,4.11-7.13l8.92-4.79L1709.62,603l-8.92,4.79a7.89,7.89,0,0,1-8.22-.53,44.48,44.48,0,0,0-4.2-2.61,7.85,7.85,0,0,1-4.14-7.13l.32-10.12-33.06-1-.31,10.16a7.85,7.85,0,0,1-4.61,6.84c-.73.35-1.46.71-2.17,1.1s-1.43.78-2.12,1.2a7.81,7.81,0,0,1-8.21.06l-8.67-5.37-17.44,28.11,8.63,5.35a7.86,7.86,0,0,1,3.64,7.41,44.77,44.77,0,0,0-.16,4.92,7.85,7.85,0,0,1-4.11,7.13L1607,658l15.63,29.15,8.93-4.78a7.87,7.87,0,0,1,8.21.52,44.13,44.13,0,0,0,4.19,2.59,7.86,7.86,0,0,1,4.15,7.13l-.31,10.15,33.06,1,.32-10.15a7.85,7.85,0,0,1,4.59-6.82q1.11-.52,2.19-1.11c.72-.38,1.43-.78,2.12-1.2a7.88,7.88,0,0,1,8.25-.06Zm-28-20.87A27.09,27.09,0,1,1,1690,632.28,27.08,27.08,0,0,1,1678.91,669Z"/><path class="cls-1" d="M1637.74,493.35l-11.58-20.07-6.14,3.55a5.5,5.5,0,0,1-5.77-.2,31.94,31.94,0,0,0-3-1.73,5.5,5.5,0,0,1-3-4.9v-7.09H1585V470a5.5,5.5,0,0,1-3,4.9,31.94,31.94,0,0,0-3,1.73,5.5,5.5,0,0,1-5.77.2l-6.15-3.55-11.58,20.07,6.17,3.55a5.51,5.51,0,0,1,2.7,5.11c0,.57,0,1.14,0,1.71s0,1.14,0,1.7a5.47,5.47,0,0,1-2.68,5.09l-6.19,3.58,11.58,20.07,6.16-3.55a5.52,5.52,0,0,1,5.78.2,30.56,30.56,0,0,0,3,1.73,5.5,5.5,0,0,1,3,4.89v7.1h23.18v-7.1a5.5,5.5,0,0,1,3-4.89,30.56,30.56,0,0,0,3-1.73,5.5,5.5,0,0,1,5.77-.2l6.16,3.55,11.58-20.07-6.16-3.56a5.5,5.5,0,0,1-2.69-5.09c0-.57,0-1.14,0-1.72s0-1.14,0-1.71a5.53,5.53,0,0,1,2.7-5.11Zm-22.15,10.37a19,19,0,1,1-19-19A19,19,0,0,1,1615.59,503.72Z"/><polygon class="cls-1" points="1648.37 261.81 1644.14 261.81 1644.14 258.99 1645.55 258.99 1645.55 257.57 1648.37 257.57 1648.37 261.81"/><path class="cls-1" d="M1638.5,261.81h-5.65V259h5.65Zm-11.29,0h-5.64V259h5.64Zm-11.28,0h-5.65V259h5.65Zm-11.29,0H1599V259h5.64Zm-11.28,0h-5.65V259h5.65Zm-11.29,0h-5.64V259h5.64Zm-11.28,0h-5.65V259h5.65Zm-11.29,0h-5.64V259h5.64Zm-11.29,0h-5.64V259h5.64Zm-11.28,0h-5.64V259h5.64Zm-11.28,0H1520V259h5.65Zm-11.29,0h-5.64V259h5.64Zm-11.29,0h-5.64V259h5.64Zm-11.28,0h-5.64V259h5.64Zm-11.28,0h-5.65V259h5.65Zm-11.29,0h-5.64V259h5.64Zm-11.29,0h-5.64V259h5.64Z"/><polygon class="cls-1" points="1446.65 261.81 1442.41 261.81 1442.41 257.57 1445.24 257.57 1445.24 258.99 1446.65 258.99 1446.65 261.81"/><path class="cls-1" d="M1445.24,251.93h-2.83v-5.64h2.83Zm0-11.28h-2.83V235h2.83Zm0-11.29h-2.83v-5.64h2.83Zm0-11.28h-2.83v-5.65h2.83Zm0-11.29h-2.83v-5.64h2.83Zm0-11.28h-2.83v-5.65h2.83Zm0-11.29h-2.83v-5.64h2.83Zm0-11.28h-2.83v-5.65h2.83Zm0-11.29h-2.83V156h2.83Zm0-11.28h-2.83v-5.65h2.83Zm0-11.29h-2.83v-5.64h2.83Zm0-11.28h-2.83v-5.65h2.83Zm0-11.29h-2.83v-5.64h2.83Zm0-11.28h-2.83V99.58h2.83Zm0-11.29h-2.83V88.3h2.83Zm0-11.28h-2.83V77h2.83Zm0-11.29h-2.83V65.73h2.83Z"/><polygon class="cls-1" points="1445.24 60.09 1442.41 60.09 1442.41 55.85 1446.65 55.85 1446.65 58.67 1445.24 58.67 1445.24 60.09"/><path class="cls-1" d="M1638.5,58.67h-5.65V55.85h5.65Zm-11.29,0h-5.64V55.85h5.64Zm-11.28,0h-5.65V55.85h5.65Zm-11.29,0H1599V55.85h5.64Zm-11.28,0h-5.65V55.85h5.65Zm-11.29,0h-5.64V55.85h5.64Zm-11.28,0h-5.65V55.85h5.65Zm-11.29,0h-5.64V55.85h5.64Zm-11.29,0h-5.64V55.85h5.64Zm-11.28,0h-5.64V55.85h5.64Zm-11.28,0H1520V55.85h5.65Zm-11.29,0h-5.64V55.85h5.64Zm-11.29,0h-5.64V55.85h5.64Zm-11.28,0h-5.64V55.85h5.64Zm-11.28,0h-5.65V55.85h5.65Zm-11.29,0h-5.64V55.85h5.64Zm-11.29,0h-5.64V55.85h5.64Z"/><polygon class="cls-1" points="1648.37 60.09 1645.55 60.09 1645.55 58.67 1644.14 58.67 1644.14 55.85 1648.37 55.85 1648.37 60.09"/><path class="cls-1" d="M1648.37,251.93h-2.82v-5.64h2.82Zm0-11.28h-2.82V235h2.82Zm0-11.29h-2.82v-5.64h2.82Zm0-11.28h-2.82v-5.65h2.82Zm0-11.29h-2.82v-5.64h2.82Zm0-11.28h-2.82v-5.65h2.82Zm0-11.29h-2.82v-5.64h2.82Zm0-11.28h-2.82v-5.65h2.82Zm0-11.29h-2.82V156h2.82Zm0-11.28h-2.82v-5.65h2.82Zm0-11.29h-2.82v-5.64h2.82Zm0-11.28h-2.82v-5.65h2.82Zm0-11.29h-2.82v-5.64h2.82Zm0-11.28h-2.82V99.58h2.82Zm0-11.29h-2.82V88.3h2.82Zm0-11.28h-2.82V77h2.82Zm0-11.29h-2.82V65.73h2.82Z"/><rect class="cls-1" x="1431.17" y="247.74" width="25.31" height="25.31"/><path class="cls-1" d="M1457.9,274.47h-28.14V246.33h28.14Zm-25.32-2.83h22.49V249.15h-22.49Z"/><rect class="cls-1" x="1431.28" y="146.17" width="25.31" height="25.31"/><path class="cls-1" d="M1457.9,172.9h-28.14V144.76h28.14Zm-25.32-2.82h22.49v-22.5h-22.49Z"/><rect class="cls-1" x="1431.28" y="44.6" width="25.31" height="25.31"/><path class="cls-1" d="M1457.9,71.33h-28.14V43.19h28.14Zm-25.32-2.82h22.49V46h-22.49Z"/><rect class="cls-1" x="1634.41" y="247.74" width="25.31" height="25.31"/><path class="cls-1" d="M1661,274.47h-28.14V246.33H1661Zm-25.31-2.83h22.49V249.15h-22.49Z"/><rect class="cls-1" x="1634.41" y="146.17" width="25.31" height="25.31"/><path class="cls-1" d="M1661,172.9h-28.14V144.76H1661Zm-25.31-2.82h22.49v-22.5h-22.49Z"/><rect class="cls-1" x="1634.41" y="44.6" width="25.31" height="25.31"/><path class="cls-1" d="M1661,71.33h-28.14V43.19H1661Zm-25.31-2.82h22.49V46h-22.49Z"/><rect class="cls-1" x="1532.84" y="44.6" width="25.31" height="25.31"/><path class="cls-1" d="M1559.46,71.33h-28.13V43.19h28.13Zm-25.31-2.82h22.49V46h-22.49Z"/><rect class="cls-1" x="1532.74" y="247.74" width="25.31" height="25.31"/><path class="cls-1" d="M1559.46,274.47h-28.13V246.33h28.13Zm-25.31-2.83h22.49V249.15h-22.49Z"/><polygon class="cls-2" points="384.01 723.13 379.78 723.13 379.78 720.3 381.19 720.3 381.19 718.89 384.01 718.89 384.01 723.13"/><path class="cls-2" d="M374.14,723.13h-5.65V720.3h5.65Zm-11.29,0h-5.64V720.3h5.64Zm-11.28,0h-5.65V720.3h5.65Zm-11.29,0h-5.64V720.3h5.64Zm-11.28,0h-5.65V720.3H329Zm-11.29,0h-5.64V720.3h5.64Zm-11.28,0h-5.65V720.3h5.65Zm-11.29,0H289.5V720.3h5.64Zm-11.29,0h-5.64V720.3h5.64Zm-11.28,0h-5.64V720.3h5.64Zm-11.28,0h-5.65V720.3h5.65Zm-11.29,0h-5.64V720.3H250Zm-11.29,0h-5.64V720.3h5.64Zm-11.28,0h-5.64V720.3h5.64Zm-11.28,0H210.5V720.3h5.65Zm-11.29,0h-5.64V720.3h5.64Zm-11.29,0h-5.64V720.3h5.64Z"/><polygon class="cls-2" points="182.29 723.13 178.05 723.13 178.05 718.89 180.88 718.89 180.88 720.3 182.29 720.3 182.29 723.13"/><path class="cls-2" d="M180.88,713.25h-2.83v-5.64h2.83Zm0-11.29h-2.83v-5.64h2.83Zm0-11.28h-2.83V685h2.83Zm0-11.29h-2.83v-5.64h2.83Zm0-11.28h-2.83v-5.64h2.83Zm0-11.29h-2.83v-5.64h2.83Zm0-11.28h-2.83V639.9h2.83Zm0-11.29h-2.83v-5.64h2.83Zm0-11.28h-2.83v-5.64h2.83Zm0-11.29h-2.83V606h2.83Zm0-11.28h-2.83v-5.65h2.83Zm0-11.29h-2.83v-5.64h2.83Zm0-11.28h-2.83v-5.65h2.83Zm0-11.29h-2.83V560.9h2.83Zm0-11.28h-2.83v-5.65h2.83Zm0-11.29h-2.83v-5.64h2.83Zm0-11.28h-2.83V527h2.83Z"/><polygon class="cls-2" points="180.88 521.4 178.05 521.4 178.05 517.17 182.29 517.17 182.29 519.99 180.88 519.99 180.88 521.4"/><path class="cls-2" d="M374.14,520h-5.65v-2.82h5.65Zm-11.29,0h-5.64v-2.82h5.64Zm-11.28,0h-5.65v-2.82h5.65Zm-11.29,0h-5.64v-2.82h5.64ZM329,520h-5.65v-2.82H329Zm-11.29,0h-5.64v-2.82h5.64Zm-11.28,0h-5.65v-2.82h5.65Zm-11.29,0H289.5v-2.82h5.64Zm-11.29,0h-5.64v-2.82h5.64Zm-11.28,0h-5.64v-2.82h5.64Zm-11.28,0h-5.65v-2.82h5.65ZM250,520h-5.64v-2.82H250Zm-11.29,0h-5.64v-2.82h5.64Zm-11.28,0h-5.64v-2.82h5.64Zm-11.28,0H210.5v-2.82h5.65Zm-11.29,0h-5.64v-2.82h5.64Zm-11.29,0h-5.64v-2.82h5.64Z"/><polygon class="cls-2" points="384.01 521.4 381.19 521.4 381.19 519.99 379.78 519.99 379.78 517.17 384.01 517.17 384.01 521.4"/><path class="cls-2" d="M384,713.25h-2.82v-5.64H384ZM384,702h-2.82v-5.64H384Zm0-11.28h-2.82V685H384Zm0-11.29h-2.82v-5.64H384Zm0-11.28h-2.82v-5.64H384Zm0-11.29h-2.82v-5.64H384Zm0-11.28h-2.82V639.9H384Zm0-11.29h-2.82v-5.64H384ZM384,623h-2.82v-5.64H384Zm0-11.29h-2.82V606H384Zm0-11.28h-2.82v-5.64H384Zm0-11.29h-2.82v-5.64H384Zm0-11.28h-2.82v-5.64H384Zm0-11.29h-2.82V560.9H384Zm0-11.28h-2.82v-5.64H384ZM384,544h-2.82v-5.64H384Zm0-11.28h-2.82v-5.64H384Z"/><rect class="cls-3" x="166.81" y="709.06" width="25.31" height="25.31"/><path class="cls-2" d="M193.54,735.78H165.4V707.65h28.14ZM168.22,733h22.49V710.47H168.22Z"/><rect class="cls-3" x="166.92" y="607.49" width="25.31" height="25.31"/><path class="cls-2" d="M193.54,634.22H165.4V606.08h28.14Zm-25.32-2.83h22.49V608.9H168.22Z"/><rect class="cls-3" x="166.92" y="505.92" width="25.31" height="25.31"/><path class="cls-2" d="M193.54,532.65H165.4V504.51h28.14Zm-25.32-2.83h22.49V507.33H168.22Z"/><rect class="cls-3" x="370.05" y="709.06" width="25.31" height="25.31"/><path class="cls-2" d="M396.67,735.78H368.53V707.65h28.14ZM371.36,733h22.49V710.47H371.36Z"/><rect class="cls-3" x="370.05" y="607.49" width="25.31" height="25.31"/><path class="cls-2" d="M396.67,634.22H368.53V606.08h28.14Zm-25.31-2.83h22.49V608.9H371.36Z"/><rect class="cls-3" x="370.05" y="505.92" width="25.31" height="25.31"/><path class="cls-2" d="M396.67,532.65H368.53V504.51h28.14Zm-25.31-2.83h22.49V507.33H371.36Z"/><rect class="cls-3" x="268.48" y="505.92" width="25.31" height="25.31"/><path class="cls-2" d="M295.1,532.65H267V504.51H295.1Zm-25.31-2.83h22.49V507.33H269.79Z"/><rect class="cls-3" x="268.38" y="709.06" width="25.31" height="25.31"/><path class="cls-2" d="M295.1,735.78H267V707.65H295.1ZM269.79,733h22.49V710.47H269.79Z"/><path class="cls-4" d="M1105.43,412.55c-31.91,148.17-133,180.16-151.12,225-10.42,26.23-24.25,93-24.25,93l-189.88.06s-13.75-66.69-24.31-92.92C696.41,589.13,579.52,555.75,558.34,374c-14-119.4,75.67-308,276.57-308V192.51a24.21,24.21,0,0,1-24.2,24.17,24.78,24.78,0,0,1-19.09-9.38,50.43,50.43,0,1,0,0,63.93,26.2,26.2,0,0,1,8.53-6.86,23.7,23.7,0,0,1,10.56-2.52A24.19,24.19,0,0,1,834.91,286V412.55H961.43a24.21,24.21,0,0,0,24.17-24.17,24.68,24.68,0,0,0-9.38-19.09,50.43,50.43,0,1,1,63.93,0,25.66,25.66,0,0,0-6.86,8.5,23.77,23.77,0,0,0-2.52,10.59,24.17,24.17,0,0,0,24.17,24.17Z"/><path class="cls-5" d="M1105.43,412.55c-31.91,148.17-133,180.16-151.12,225-10.42,26.23-24.25,93-24.25,93l-94.62,0,0-49,0-38.79c.25-6.44-.82-13.07,1.72-18.92a23.67,23.67,0,0,1,13-13,23.26,23.26,0,0,1,18.35.36,24.86,24.86,0,0,1,7.65,5.45c1.07,1.13,2.09,2.4,3.19,3.65s2.26,2.34,3.48,3.44a51,51,0,1,0,0-75.67c-1.22,1.07-2.35,2.26-3.48,3.44s-2.09,2.52-3.16,3.65a25,25,0,0,1-7.68,5.45,23.18,23.18,0,0,1-18.35.36,23.58,23.58,0,0,1-13-13c-2.54-5.85-1.5-12.48-1.72-18.92l0-38.79,0-77.06v-.53h126a24.21,24.21,0,0,0,24.17-24.17,24.68,24.68,0,0,0-9.38-19.09,50.43,50.43,0,1,1,63.93,0,25.66,25.66,0,0,0-6.86,8.5,23.77,23.77,0,0,0-2.52,10.59,24.17,24.17,0,0,0,24.17,24.17Z"/><path class="cls-6" d="M702.12,239.27a50.48,50.48,0,0,0,89.5,32,26.2,26.2,0,0,1,8.53-6.86,23.7,23.7,0,0,1,10.56-2.52A24.19,24.19,0,0,1,834.91,286V412h-.54l-77,.06-38.8,0h-9.68a24.62,24.62,0,0,0-23.27,15.36,24.39,24.39,0,0,0,.4,19.2,26.13,26.13,0,0,0,5.67,8c1.21,1.13,2.49,2.15,3.67,3.19s2.32,2.24,3.39,3.42a50,50,0,1,1-74.23-.08,73.86,73.86,0,0,1,7-6.64,25.11,25.11,0,0,0,5.65-7.93A24.31,24.31,0,0,0,624,414.07a25.32,25.32,0,0,0-9.57-1.78h-9.69l-38.79,0h-1.3q-3.9-18-6.3-38.29c-14-119.4,75.67-308,276.57-308V192.51a24.21,24.21,0,0,1-24.2,24.17,24.78,24.78,0,0,1-19.09-9.38,50.48,50.48,0,0,0-89.5,32Z"/><path class="cls-7" d="M784.5,730.5q-27.6-144.88-55.21-289.76l5.54-1.06Q762.18,585.09,789.5,730.5Z"/><path class="cls-7" d="M886.5,730.5h-6q27.4-145.44,54.82-290.88l5.55,1.05Q913.68,585.58,886.5,730.5Z"/><path class="cls-7" d="M835.1,537.22c-17.13,0-32.88-15.09-44.07-34.54-5.18,5.41-10.7,8.28-16.19,8.28h0c-28.67,0-42.79-56.41-43.38-58.81l5.49-1.34c.13.54,13.63,54.5,37.89,54.5h0c4.5,0,9.09-3,13.31-7.91-8.68-16.88-14-36.15-14-51.47,0-16.12,6.33-25.37,17.37-25.37h0c12.77,0,20.1,9.81,20.1,26.91,0,12.63-4.14,28.35-10.81,41A71.54,71.54,0,0,1,795,498c.54,1,1.09,2,1.65,2.92C808,520.39,822,531.57,835.1,531.57h0c12,0,24.07-9.38,33.89-26.4.44-.75.86-1.51,1.29-2.29a52.54,52.54,0,0,1-7.06-9.66c-11.19-19.36-13.48-48.11-5-62.79,3.74-6.47,9.24-9.89,15.92-9.9h0c5.29,0,9.6,2.63,12.47,7.59,8.23,14.25,3.75,47.3-9.39,73.68A27.55,27.55,0,0,0,895.73,509h0c17.17,0,32.38-39.68,36.79-55l5.43,1.57a198,198,0,0,1-11.29,29c-9.79,20-20.2,30.09-30.93,30.09h0a33.16,33.16,0,0,1-21.2-7.8l-.64,1.13c-10.87,18.84-24.64,29.21-38.78,29.22Zm39-111h0c-4.61,0-8.32,2.38-11,7.07-7.59,13.15-5.3,39.32,5,57.15a50.06,50.06,0,0,0,4.9,7.07c11.36-24,15.67-54.46,8.7-66.53C879.87,427.74,877.39,426.18,874.14,426.18Zm-82.58,0h0c-9.7,0-11.73,10.72-11.73,19.72,0,13.42,4.66,30.81,12.19,46.36,8.05-12.07,14-30.3,14-44.82C806,437.77,803.5,426.21,791.56,426.21Z"/><path class="cls-8" d="M560.14,194a578.52,578.52,0,0,1-60.31-33.35A577.5,577.5,0,0,1,560.14,194Z"/><path class="cls-8" d="M1106.65,188.3a576,576,0,0,1,59-35.56,576.35,576.35,0,0,1-59,35.56Z"/><g class="cls-9"><path d="M1103.87,412l-38.79,0c-6.44-.25-13.07.82-18.92-1.72a23.67,23.67,0,0,1-13-13,23.26,23.26,0,0,1,.36-18.35,24.86,24.86,0,0,1,5.45-7.65c1.13-1.07,2.4-2.09,3.64-3.19s2.35-2.26,3.45-3.47a51,51,0,1,0-75.67,0c1.07,1.21,2.26,2.34,3.44,3.47s2.52,2.09,3.65,3.16a25,25,0,0,1,5.45,7.68,23.18,23.18,0,0,1,.36,18.35,23.58,23.58,0,0,1-13,13c-5.85,2.54-12.48,1.5-18.92,1.72l-38.79,0-77.06,0h-1.07v1.07l.06,77.06,0,38.79v9.69a24.61,24.61,0,0,0,15.36,23.26,24.39,24.39,0,0,0,19.2-.39,26.33,26.33,0,0,0,8-5.68c1.13-1.21,2.15-2.48,3.19-3.67s2.24-2.32,3.42-3.39a50,50,0,1,1-.08,74.23,73.86,73.86,0,0,1-6.64-7A25.11,25.11,0,0,0,869,610.3a24.31,24.31,0,0,0-32.53,13.16,25.32,25.32,0,0,0-1.78,9.57v9.69l0,38.79,0,49h.39l0-49,0-38.79c.23-6.41-.82-13.07,1.75-19.06a23.84,23.84,0,0,1,31.82-12.88,25.41,25.41,0,0,1,7.77,5.54,70.68,70.68,0,0,0,6.66,7.09,50.66,50.66,0,1,0-.11-75.28c-1.22,1.1-2.35,2.26-3.48,3.45s-2.09,2.48-3.19,3.64a25.23,25.23,0,0,1-7.71,5.48,23.46,23.46,0,0,1-18.52.36,23.82,23.82,0,0,1-13.07-13.13c-2.57-5.93-1.47-12.59-1.72-19l0-38.79.05-77.06h-.53l.53-.53v.53l77.06,0,38.79,0H961a25.3,25.3,0,0,0,9.68-1.78,24.73,24.73,0,0,0,13.38-33,26.38,26.38,0,0,0-5.73-8c-1.21-1.16-2.46-2.15-3.64-3.22a45.18,45.18,0,0,1-3.39-3.39,49.74,49.74,0,1,1,73.78,0,46.73,46.73,0,0,1-3.36,3.39c-1.19,1.07-2.43,2.06-3.64,3.22a26.15,26.15,0,0,0-5.73,8.07,24.35,24.35,0,0,0-.34,19.34,24.71,24.71,0,0,0,23.4,15.45h9.69l38.79,0h1.44c.09-.37.17-.76.26-1.13Z"/><path d="M953.94,550.28a51.27,51.27,0,0,0-71-2.29c-1.22,1.07-2.35,2.26-3.48,3.44s-2.09,2.52-3.16,3.65a25,25,0,0,1-7.68,5.45,23.18,23.18,0,0,1-18.35.36,23.58,23.58,0,0,1-13-13c-2.54-5.85-1.5-12.48-1.72-18.92l0-38.79,0-77.06V412h-1.07l-77,.06-38.8,0h-9.68a24.62,24.62,0,0,0-23.27,15.36,24.39,24.39,0,0,0,.4,19.2,26.13,26.13,0,0,0,5.67,8c1.21,1.13,2.49,2.15,3.67,3.19s2.32,2.24,3.39,3.42a50,50,0,1,1-74.23-.08,73.86,73.86,0,0,1,7-6.64,25.11,25.11,0,0,0,5.65-7.93A24.31,24.31,0,0,0,624,414.07a25.32,25.32,0,0,0-9.57-1.78h-9.69l-38.79,0h-1.3a1.42,1.42,0,0,0,.08.45h1.22l38.79,0c6.41.23,13.08-.82,19.06,1.75a23.82,23.82,0,0,1,12.88,31.82,25.41,25.41,0,0,1-5.54,7.77,69.51,69.51,0,0,0-7.08,6.66,50.66,50.66,0,1,0,75.27-.11c-1.1-1.22-2.26-2.35-3.44-3.48s-2.49-2.09-3.65-3.19a25,25,0,0,1-5.47-7.71,23.42,23.42,0,0,1-.37-18.52,23.85,23.85,0,0,1,13.13-13.07c5.93-2.57,12.59-1.47,19-1.72l38.8,0,77,.05v-.53l.54.53h-.54l0,77.06,0,38.79v9.69a25.3,25.3,0,0,0,1.78,9.68A24.78,24.78,0,0,0,849.76,562a24.51,24.51,0,0,0,19.37-.34,26.38,26.38,0,0,0,8-5.73c1.16-1.21,2.15-2.45,3.22-3.64a47.14,47.14,0,0,1,3.39-3.39,49.74,49.74,0,1,1,0,73.78,46.71,46.71,0,0,1-3.39-3.36c-1.07-1.19-2.06-2.43-3.22-3.64A26.15,26.15,0,0,0,869.1,610a24.35,24.35,0,0,0-19.34-.34,24.92,24.92,0,0,0-13.67,13.69,25.17,25.17,0,0,0-1.78,9.71v9.69l0,38.79,0,49h1.07l0-49,0-38.79c.25-6.44-.82-13.07,1.72-18.92a23.67,23.67,0,0,1,13-13,23.26,23.26,0,0,1,18.35.36,24.86,24.86,0,0,1,7.65,5.45c1.07,1.13,2.09,2.4,3.19,3.65s2.26,2.34,3.48,3.44a51.09,51.09,0,0,0,71-73.38Zm-.76.76a50.2,50.2,0,0,0-69.57-2.29c-1.18,1.07-2.31,2.23-3.42,3.39s-2.06,2.46-3.19,3.67a26.33,26.33,0,0,1-8,5.68,24.39,24.39,0,0,1-19.2.39,24.61,24.61,0,0,1-15.36-23.26v-9.69l0-38.79-.06-77.06,0,77.06,0,38.79v9.69a25.3,25.3,0,0,0,1.78,9.68A24.78,24.78,0,0,0,849.76,562a24.51,24.51,0,0,0,19.37-.34,26.38,26.38,0,0,0,8-5.73c1.16-1.21,2.15-2.45,3.22-3.64a47.14,47.14,0,0,1,3.39-3.39,49.74,49.74,0,1,1,0,73.78,46.71,46.71,0,0,1-3.39-3.36c-1.07-1.19-2.06-2.43-3.22-3.64A26.15,26.15,0,0,0,869.1,610a24.35,24.35,0,0,0-19.34-.34,24.92,24.92,0,0,0-13.67,13.69,25.17,25.17,0,0,0-1.78,9.71v9.69l0,38.79,0,49h.34l0-49,0-38.79V633a25.32,25.32,0,0,1,1.78-9.57A24.31,24.31,0,0,1,869,610.3a25.11,25.11,0,0,1,7.93,5.65,73.86,73.86,0,0,0,6.64,7A50.09,50.09,0,0,0,953.18,551Z"/><path d="M824.91,66.16h9.83V66C831.43,66,828.16,66,824.91,66.16ZM835.39,335l0-38.8v-9.68A24.62,24.62,0,0,0,820,263.21a24.39,24.39,0,0,0-19.2.4,26.13,26.13,0,0,0-8,5.67c-1.13,1.21-2.15,2.49-3.19,3.67s-2.23,2.32-3.42,3.39a50,50,0,1,1,.08-74.23,73.86,73.86,0,0,1,6.64,7,25.11,25.11,0,0,0,7.93,5.65,24.31,24.31,0,0,0,32.53-13.16,25.32,25.32,0,0,0,1.78-9.57v-9.69l0-38.79L835.07,66h-.33l.17.17h-.17l-.06,77.42,0,38.79c-.22,6.41.82,13.08-1.75,19.06a23.82,23.82,0,0,1-31.82,12.88,25.41,25.41,0,0,1-7.77-5.54,69.51,69.51,0,0,0-6.66-7.08,50.67,50.67,0,1,0,.11,75.27c1.22-1.1,2.35-2.26,3.48-3.44s2.09-2.49,3.19-3.65a25,25,0,0,1,7.71-5.47,23.42,23.42,0,0,1,18.52-.37,23.85,23.85,0,0,1,13.07,13.13c2.57,5.93,1.47,12.59,1.72,19l0,38.8L834.37,412h.54l-.54.54V412l-77,0-38.8,0h-9.68a25.31,25.31,0,0,0-9.69,1.78,24.82,24.82,0,0,0-13.72,13.67,24.55,24.55,0,0,0,.34,19.37,26.38,26.38,0,0,0,5.73,8C692.71,456,694,457,695.14,458a47.14,47.14,0,0,1,3.39,3.39,49.74,49.74,0,1,1-73.78,0c1-1.19,2.2-2.31,3.36-3.39s2.43-2.06,3.64-3.22a26.18,26.18,0,0,0,5.74-8.07,24.35,24.35,0,0,0,.33-19.34,24.89,24.89,0,0,0-13.69-13.67,25.17,25.17,0,0,0-9.71-1.78h-9.69l-38.79,0h-1.39a.72.72,0,0,0,.09.34,1.42,1.42,0,0,0,.08.45.72.72,0,0,0,.09.34h1.13l38.79,0c6.44.25,13.08-.82,18.92,1.72a23.67,23.67,0,0,1,13,13,23.26,23.26,0,0,1-.36,18.35,24.86,24.86,0,0,1-5.45,7.65c-1.13,1.07-2.4,2.09-3.64,3.19s-2.35,2.26-3.45,3.48a51,51,0,1,0,75.67,0c-1.07-1.22-2.26-2.35-3.44-3.48s-2.52-2.09-3.65-3.16a24.81,24.81,0,0,1-5.44-7.68,23.14,23.14,0,0,1-.37-18.35,23.58,23.58,0,0,1,13-13c5.85-2.54,12.48-1.5,18.92-1.72l38.8,0,77,0h1.07V412Zm-78.07,77-38.8,0h-9.68a25.31,25.31,0,0,0-9.69,1.78,24.82,24.82,0,0,0-13.72,13.67,24.55,24.55,0,0,0,.34,19.37,26.38,26.38,0,0,0,5.73,8C692.71,456,694,457,695.14,458a47.14,47.14,0,0,1,3.39,3.39,49.74,49.74,0,1,1-73.78,0c1-1.19,2.2-2.31,3.36-3.39s2.43-2.06,3.64-3.22a26.18,26.18,0,0,0,5.74-8.07,24.35,24.35,0,0,0,.33-19.34,24.89,24.89,0,0,0-13.69-13.67,25.17,25.17,0,0,0-9.71-1.78h-9.69l-38.79,0h-1.39a.72.72,0,0,0,.09.34h1.3l38.79,0h9.69a25.32,25.32,0,0,1,9.57,1.78,24.31,24.31,0,0,1,13.16,32.53,25.11,25.11,0,0,1-5.65,7.93,73.86,73.86,0,0,0-7,6.64,50.05,50.05,0,1,0,74.23.08c-1.07-1.18-2.23-2.31-3.39-3.42s-2.46-2.06-3.67-3.19a26.13,26.13,0,0,1-5.67-8,24.39,24.39,0,0,1-.4-19.2,24.62,24.62,0,0,1,23.27-15.36h9.68l38.8,0,77-.06Z"/></g><path class="cls-10" d="M1412.44,281.28c-16.88,8-76,23.28-100.55,6.87-22-14.71-23.89-120.24-14.7-154.06,3.23-11.88,50.12,10.88,55.08,20.86,4.27,8.57-2.68,88.24.72,90,5.73,2.94,24.32,5.15,54,9.29C1434.84,258.13,1424.34,275.62,1412.44,281.28Z"/><path class="cls-8" d="M1353.48,189.85l-62.71-29.67s-10.8,107.43,19.82,130.08c7.05,5.22,54.05,13.89,98.33-5.07,13.7-5.86,35-26.1-5.74-32.53s-48.12-8.72-48.87-9.73S1353.48,189.85,1353.48,189.85Z"/><g class="cls-9"><path d="M1323.29,213.19a5.39,5.39,0,0,0,7.43-.65c3.6-4,1.85-11,0-15.56s-5.14-9.58-10.51-10.42c-3.41-.52-5.36,2.46-4.73,5.51.74,3.54,2.6,6.8,3.51,10.33C1320,206.22,1319.82,210.65,1323.29,213.19Z"/><path d="M1329.47,234.81c3.15-1.7,3.7-6.27,3.67-9.46a8.93,8.93,0,0,0-1.43-4.86c-1.29-1.9-4.09-3.16-6.17-1.63a5.94,5.94,0,0,0-2.26,3.82A12.89,12.89,0,0,0,1323,225c0,.12,0,.19,0,.25s0,.12,0,.2c-.4,2.33-1.14,4.77-.39,7.1C1323.57,235.63,1327,236.17,1329.47,234.81Z"/><path d="M1346.42,227.49c2.56-5.43,2.52-11.81,1.39-17.6-.9-4.67-2.68-12.34-8.07-13.56a2.78,2.78,0,0,0-2.94,1.51c-2.17,3.52,0,9.59.38,13.43.41,4.86,0,9.76.44,14.6C1338.08,230.42,1344.41,231.75,1346.42,227.49Z"/><path d="M1316.64,251.69a6.52,6.52,0,0,0,2.47,1.16,5.56,5.56,0,0,0,4-.85,8.85,8.85,0,0,0,2.75-3.34,8.32,8.32,0,0,0,.8-4c-.09-.41-.18-.83-.26-1.25l-.6-1.17a4.82,4.82,0,0,0-2.57-1.86,4.94,4.94,0,0,0-5.26,1.48,24.68,24.68,0,0,0-2.72,3.48c-.13.43-.27.86-.41,1.3a4,4,0,0,0,.06,2A5.22,5.22,0,0,0,1316.64,251.69Z"/><path d="M1333.17,250.13a4.5,4.5,0,0,0,5.18-1.14,10.89,10.89,0,0,0,2.23-5.23c.31-1.58.53-3.77-.17-5.29-1.06-2.3-4-3.2-5.83-1.07a17.17,17.17,0,0,0-2,3.8c-.26.56-.57,1.09-.88,1.63a12.83,12.83,0,0,0-1,2.57C1330.2,247.15,1331.55,249.45,1333.17,250.13Z"/></g><path class="cls-1" d="M1292.5,176.26c5.21,1.65,10.22,4.05,15.24,6.2s9.87,4.29,14.79,6.48c9.92,4.43,20,8.64,29.63,13.7a.2.2,0,0,1-.15.38c-10.39-3.46-20.47-8-30.5-12.41q-7.53-3.3-15-6.82a141.1,141.1,0,0,1-14.22-7.16C1292.08,176.49,1292.29,176.19,1292.5,176.26Z"/><path class="cls-6" d="M1408.92,285.2c-44.27,18.94-91.29,10.28-98.32,5.06-14.19-10.51-19.48-39.25-21.08-67.07L1354,237.74a33.76,33.76,0,0,0,.35,5.19c.75,1,8.15,3.29,48.86,9.73S1422.63,279.32,1408.92,285.2Z"/><path class="cls-10" d="M1258.29,1002.93c5.32,1.77,157.09,1.33,162.87-2.34,2.18-1.37,3.41-23.5,4.13-50.25.17-5.78.28-11.73.38-17.81.11-7.18.2-14.44.25-21.5.19-31.7-.25-59.61-.25-59.61h-98.81l.05,59.61,0,21.5.51,17.81s-58,26.17-63.92,30.88S1253,1001.19,1258.29,1002.93Z"/><path class="cls-3" d="M1258.29,1002.93c5.32,1.77,157.09,1.33,162.87-2.34,2.18-1.37,3.41-23.5,4.13-50.25.17-5.78.28-11.73.38-17.81.11-7.18.2-14.44.25-21.5h-99l0,21.5.51,17.81s-58,26.17-63.92,30.88S1253,1001.19,1258.29,1002.93Z"/><path class="cls-4" d="M1257.84,1003.16c3.46,1.14,68.1,1.37,115.17.4,10.89-.24,20.85-.54,28.89-.89,11.07-.51,18.5-1.11,19.71-1.88,2.67-1.72,4-34.18,4.55-68.43h-99.29l.51,17.91s-58.35,26.3-64.3,31S1252.52,1001.37,1257.84,1003.16Z"/><path class="cls-1" d="M1260,997.05c25.58-.7,128.82-1.12,154.16.13.21,0,.21.15,0,.16-25.34,1.25-128.58.83-154.16.13C1259.47,997.46,1259.47,997.07,1260,997.05Z"/><path class="cls-1" d="M1323.75,944.6c10.06-1.91,22.38-.4,30.09,6.75.3.28-.1.7-.42.59a141.61,141.61,0,0,0-29.63-6.07A.64.64,0,0,1,1323.75,944.6Z"/><path class="cls-1" d="M1316.5,949c10.06-1.91,22.38-.4,30.09,6.75.3.28-.1.7-.43.59a141.52,141.52,0,0,0-29.62-6.07A.64.64,0,0,1,1316.5,949Z"/><path class="cls-1" d="M1309.24,953.4c10.06-1.91,22.38-.4,30.09,6.75.3.28-.09.7-.42.59a141.52,141.52,0,0,0-29.62-6.07A.64.64,0,0,1,1309.24,953.4Z"/><path class="cls-1" d="M1302,957.8c10.06-1.91,22.38-.4,30.09,6.75.3.28-.1.7-.42.59a141.75,141.75,0,0,0-29.63-6.07A.64.64,0,0,1,1302,957.8Z"/><path class="cls-1" d="M1309.64,935.69c7.14,5.52,16.41,7.75,24.74,10.81.86.32,1.54-.5,1.57-1.26a.27.27,0,0,0,.24-.37,53.77,53.77,0,0,0-15.57-23c-4.22-3.52-11.59-6-15.53-.49C1301.36,926.53,1305.48,932.47,1309.64,935.69Zm-2.58-8.09c-1.81-11,10.07-5.27,13.07-2.56a58.18,58.18,0,0,1,5.35,5.75,160.84,160.84,0,0,1,9.39,13.24c-4-1.75-8.11-3.14-12.16-4.74C1317.87,937.38,1308.05,933.69,1307.06,927.6Z"/><path class="cls-1" d="M1369.75,929.44c-2.45-6.27-10.2-5.76-15.16-3.41a53.88,53.88,0,0,0-20.82,18.4.28.28,0,0,0,.14.42,1.24,1.24,0,0,0,1.21,1.61c8.82-.88,18.36-.73,26.65-4.29C1366.6,940.09,1372.07,935.37,1369.75,929.44Zm-21.53,12.95c-4.33.54-8.66.86-13,1.56a161,161,0,0,1,12.39-10.48,58.89,58.89,0,0,1,6.62-4.23c3.59-1.88,16.53-4.5,12,5.74C1363.81,940.63,1353.38,941.75,1348.22,942.39Z"/><path class="cls-7" d="M1458.62,430.38s-26.7,264.1-27.33,267.45c-.09.44-.28,5.52-.53,13.81-1.44,45.47-5,187.23-5,187.23h-109S1323.92,731,1328,691.79c5.2-50,38-261.41,38-261.41Z"/><path class="cls-1" d="M1418.3,707.14q5-85.85,15.15-171.27c3.83-32.09,8.43-64.07,13-96.06,0-.27.48-.26.44,0-8.43,56.93-14.41,114.3-19.55,171.62s-8.73,114.6-11.08,172c-1.32,32.54-2.33,65.09-3.38,97.64a.6.6,0,0,1-1.2,0C1413.23,823.08,1414.89,765.07,1418.3,707.14Z"/><path class="cls-1" d="M1323.69,881.31c2.85-.38,6-.26,8.85-.36,3.27-.11,6.55-.14,9.82-.26q9.45-.36,18.93-.5c12.71-.21,25.46-.14,38.17.26,3.5.11,7,.25,10.5.37,3.73.14,7.47.48,11.19.46.29,0,.28.34,0,.34-6.4,0-12.88.55-19.29.78s-12.61.35-18.93.43c-12.71.18-25.47.07-38.17-.4-3.5-.13-7-.18-10.5-.28-1.87-.06-3.73-.17-5.6-.24-1.66-.06-3.32.05-5-.17A.22.22,0,0,1,1323.69,881.31Z"/><path class="cls-1" d="M1458.62,430.38s-26.7,264.1-27.33,267.45c-.09.44-.28,5.52-.53,13.81l-51.37-281.26Z"/><path class="cls-10" d="M1541.08,998.23c5.57-.59,143.62-63.61,147.37-69.34,1.43-2.16-6.58-22.81-17-47.47-2.22-5.34-4.33-10.94-7-16.38-3.34-6.84-6.76-13.65-10.13-20.18-14.59-28.37-28-51.62-28-51.62L1539,832.85l25.25,51.71,10.35,21.21,7.8,16s-42.06,47.78-45.49,54.5S1535.53,998.82,1541.08,998.23Z"/><path class="cls-3" d="M1541.08,998.23c5.57-.59,143.62-63.61,147.37-69.34,1.43-2.16-6.58-22.81-17-47.47-2.22-5.34-4.33-10.94-7-16.38-3.34-6.84-6.76-13.65-10.13-20.18-27,12.08-65.92,29.13-90.16,39.7l10.35,21.21,7.8,16s-42.06,47.78-45.49,54.5S1535.53,998.82,1541.08,998.23Z"/><path class="cls-4" d="M1540.74,998.61c5.59-.59,144.43-64,148.2-69.72,1.74-2.66-10.5-32.75-24.09-64.21l-90.44,41,7.85,16.1s-42.3,48-45.76,54.81S1535.15,999.2,1540.74,998.61Z"/><path class="cls-1" d="M1540.2,992.15c23-11.19,116.89-54.17,140.48-63.49.2-.07.25.06.07.15-22.57,11.59-116.79,53.81-140.38,63.72C1539.88,992.74,1539.71,992.39,1540.2,992.15Z"/><path class="cls-1" d="M1576.62,918.07c8.38-5.89,20.22-9.59,30.2-6.26.38.13.2.67-.14.71a141.55,141.55,0,0,0-29.49,6.69A.64.64,0,0,1,1576.62,918.07Z"/><path class="cls-1" d="M1571.83,925.07c8.38-5.89,20.22-9.59,30.2-6.26.38.13.19.67-.15.72a141.18,141.18,0,0,0-29.49,6.68A.64.64,0,0,1,1571.83,925.07Z"/><path class="cls-1" d="M1567,932.07c8.37-5.89,20.22-9.59,30.19-6.26.39.13.2.67-.14.72a141.68,141.68,0,0,0-29.49,6.68A.64.64,0,0,1,1567,932.07Z"/><path class="cls-1" d="M1562.24,939.07c8.38-5.89,20.23-9.59,30.2-6.26.39.13.2.68-.14.72a141.53,141.53,0,0,0-29.49,6.68A.64.64,0,0,1,1562.24,939.07Z"/><path class="cls-1" d="M1560.1,915.78c8.77,2.08,18.14.29,27-.36a1.25,1.25,0,0,0,.92-1.8.27.27,0,0,0,.06-.43,53.71,53.71,0,0,0-23.68-14.54c-5.29-1.47-13-.64-14.34,6C1548.78,910.85,1555,914.57,1560.1,915.78Zm-5.7-6.3c-6.2-9.31,7-9,10.85-7.73a59,59,0,0,1,7.25,3c4.91,2.36,9.39,5.37,14,8.19-4.37,0-8.68.48-13,.7C1568.29,913.92,1557.82,914.61,1554.4,909.48Z"/><path class="cls-1" d="M1612.27,885.28c-4.82-4.7-11.67-1-15.21,3.16a53.75,53.75,0,0,0-11.38,25.35c0,.21.13.31.3.32a1.25,1.25,0,0,0,1.77,1c7.67-4.44,16.42-8.24,22.5-14.9C1613.8,896.29,1616.83,889.73,1612.27,885.28ZM1598,906c-3.72,2.27-7.53,4.35-11.16,6.77a161.14,161.14,0,0,1,7-14.67,57.91,57.91,0,0,1,4.28-6.58c2.49-3.19,13.19-10.92,13.31.27C1611.47,897.93,1602.43,903.25,1598,906Z"/><path class="cls-7" d="M1366,430.38s7.17,38.15,33.79,57.55c0,0,58.68,196.39,66.31,218.91,13.14,38.81,83.77,170.26,83.77,170.26l109-46.79s-83.15-146.46-92.13-157.74c-6-7.49-50.1-166.66-50.19-170.8-.93-46.76-16.61-71.63-16.61-71.63Z"/><path class="cls-1" d="M1454.2,444.2a36.42,36.42,0,0,0,13.33,19.14c7,5.37,15.52,7.61,24.21,8.3,1.47.12,1.59,2.33,0,2.34-17.77.11-35.72-11.25-38.32-29.67C1453.41,443.9,1454.09,443.8,1454.2,444.2Z"/><path class="cls-1" d="M1382.74,475.85c6.54,2.32,12.49,6.1,18.36,9.73,6.09,3.78,11.73,8.2,17.61,12.27.23.16,0,.53-.21.39-6.17-3.56-12.6-6.64-18.71-10.31-5.93-3.56-12.09-7-17.31-11.6C1382.27,476.15,1382.47,475.75,1382.74,475.85Z"/><path class="cls-1" d="M1380.24,438.81c1,4.07,2.14,8.09,3.21,12.13,1,3.79,1.79,7.66,3,11.4a19.64,19.64,0,0,0,5.8,9.41c1.57,1.32,3.28,2.48,4.94,3.69.89.65,1.85,1.27,2.78,1.92-.14-.53-.26-1.08-.38-1.63-.35-1.55-.68-3.09-1-4.64q-1.11-5.14-2.14-10.3c-1.35-6.77-2.62-13.6-4.35-20.28a.22.22,0,0,1,.42-.13c2,6.61,4.17,13.13,6,19.8.87,3.27,4.2,19.47,4.37,20.62s.33,2.37.42,3.57a14.08,14.08,0,0,1,.17,3.66c-.05.3-.41.27-.55.08h0a13.67,13.67,0,0,1-1.2-3.5c-.36-1.15-.67-2.32-.94-3.49-.09-.43-.17-.86-.25-1.3-1.65-.9-3.21-2.12-4.76-3.14s-3.37-2.17-5-3.39a18.33,18.33,0,0,1-6.28-8.88,67,67,0,0,1-2.46-11.64c-.73-4.61-1.32-9.25-2.18-13.84C1379.77,438.67,1380.18,438.53,1380.24,438.81Z"/><path class="cls-1" d="M1549.58,855.09c2.46-1.49,28.23-13.5,34-16.13,11.56-5.29,51.5-21.67,55.26-23,1.25-.45,1.34.23.37.69-5.9,2.88-29,13.47-34.76,16.09-11.57,5.27-53.09,22.33-54.69,22.8C1549.46,855.58,1549.34,855.24,1549.58,855.09Z"/><path class="cls-1" d="M1492.89,434.86a86.63,86.63,0,0,1,11,23.15,87.56,87.56,0,0,1,4.06,25.42,77.47,77.47,0,0,1-.93,12.9c-.18,1.06-.32,2.14-.56,3.19l-.33,1.59a4,4,0,0,0-.18,1.35c.25,2,.77,4.11,1.24,6.17,2,8.31,4.16,16.59,6.35,24.86,8.89,33.06,17.87,66.1,27.34,99l7.11,24.66c1.22,4.1,2.44,8.19,3.74,12.25.66,2,1.32,4.08,2.08,6,.93,1.87,1.8,3.76,2.84,5.63,8.07,15,16.79,29.81,25.21,44.7,0,0,43,72.18,51.81,88.82.41.78.21,1.28-.59.24-7.68-10-35.67-58.48-53.11-88-8.73-14.74-17.35-29.52-25.59-44.6-1.05-1.86-2-3.85-3-5.81s-1.51-4.11-2.19-6.16c-1.33-4.09-2.58-8.19-3.83-12.29q-3.69-12.31-7.21-24.67c-9.22-33-18.32-66-26.66-99.25-2.07-8.31-4.13-16.62-6-25-.44-2.12-.93-4.15-1.18-6.42a5.89,5.89,0,0,1,.24-1.82l.34-1.55c.26-1,.4-2.08.59-3.12a82.66,82.66,0,0,0,1.15-12.67A90.62,90.62,0,0,0,1492.89,434.86Z"/><path class="cls-4" d="M1352.28,341q-6.55,19.67-14.11,36.58l-49.43-10.26A24.16,24.16,0,0,1,1270,338.78a23.79,23.79,0,0,1,4.62-9.86A25.77,25.77,0,0,1,1283,322a50.43,50.43,0,1,0-62.59-13,24.71,24.71,0,0,1,5.3,20.6,24.2,24.2,0,0,1-28.58,18.75l-123.88-25.71L1099,198.76a24.18,24.18,0,0,0-18.78-28.58,23.78,23.78,0,0,0-10.85.31,26.18,26.18,0,0,0-9.74,5,50.43,50.43,0,1,1,13-62.59,24.78,24.78,0,0,0,16.79,13A24.19,24.19,0,0,0,1118,107.2l25.71-123.89.06,0h.08c56,11.62,100,36.33,133.53,68.4a271.42,271.42,0,0,1,57.41,80.37C1368.16,202.8,1371.39,283.26,1352.28,341Z"/><path class="cls-8" d="M1508.81,445.3l-151.65,1c0,3,7.68-118.83,46.56-190.72,2.66-4.9,26.45-10.31,37-.69C1487.07,297.05,1508.83,447.23,1508.81,445.3Z"/><g class="cls-9"><path d="M1402.09,410.54c-3.92-3.27-9.68-2.43-11.38,2.82-2,6,2,11.83,7.14,14.65a19.71,19.71,0,0,0,17.71.72c5.32-2.41,3.88-10.73-1.39-12.15-2.4-.65-5.29-.75-7.53-1.87C1404.75,413.77,1403.69,411.87,1402.09,410.54Z"/><path d="M1395.44,390.72c-3.13,9,10.15,18.74,18.09,14.75a5,5,0,0,0,1.16-7.68c-1.91-2-3.68-2.5-5.38-4.32a7.8,7.8,0,0,1-1.5-2,13.71,13.71,0,0,0-3.6-4.14C1400.92,384.88,1396.59,387.4,1395.44,390.72Z"/><path d="M1372.56,388.32c-3.43,3.45-1.94,9.51.2,13.31s5.62,6.46,10,6.55c3.32.07,5.36-4.31,2.9-6.7a12.39,12.39,0,0,1-3.21-5.23c-.91-3-1.3-6.86-4.36-8.53A4.71,4.71,0,0,0,1372.56,388.32Z"/><path d="M1429.57,405.49a4.52,4.52,0,0,0-4.49,4.41,5.31,5.31,0,0,0,4.41,5.14,8.11,8.11,0,0,0,5.07-.57,3.77,3.77,0,0,0,1.75-2,4,4,0,0,0,.26-2.68,4.26,4.26,0,0,0-3.72-3.1,3.64,3.64,0,0,0-.6-.46A5.05,5.05,0,0,0,1429.57,405.49Z"/><path d="M1383.29,367c-3.55,4.64-.71,13.89,4.2,16.53a4.35,4.35,0,0,0,6.55-3.63,16.93,16.93,0,0,0-.29-2.88c-.14-1-.32-1.69-.36-2.3-.12-2,.18-4.36-.52-6.29C1391.26,363.94,1386.12,363.26,1383.29,367Z"/><path d="M1370.28,415.36c-4.81,7.28,5.74,17.55,13,16.92,2.43-.21,5.11-3,3.28-5.52-1.46-2-3.29-3.68-4.62-5.77-1.63-2.55-2.31-5.66-5.18-7.2A4.84,4.84,0,0,0,1370.28,415.36Z"/></g><g class="cls-9"><path d="M1481.9,401.56c-.45,2.77-.28,5.18-2,7.52s-4,3.93-5.22,6.68c-1,2.36,1.29,5.39,3.87,4.8,8.21-1.87,14.5-10.77,12.77-19.19A4.75,4.75,0,0,0,1481.9,401.56Z"/><path d="M1470.81,379.13c-1,3.45-.29,7.14-1,10.71a86.46,86.46,0,0,1-2.49,9.65c-.75,2.28,1.68,5.49,4.18,4,4.18-2.47,7.13-5.43,8.77-10.12,1.39-4,2.67-10.62.42-14.47C1478.62,375.38,1472.23,374.13,1470.81,379.13Z"/><path d="M1460.91,413.69c-1.87,2.64-3.92,5.45-6.8,7.06-2.73,1.52-4.09,4.57-2.35,7.45s5,3,7.69,1.39a18.73,18.73,0,0,0,9.1-13C1469.25,412.38,1463.27,410.33,1460.91,413.69Z"/></g><g class="cls-9"><path d="M1422,305a5.38,5.38,0,0,0,5.83-4.65c.75-5.37-4.53-10.17-8.59-13s-9.58-5.14-14.51-2.86c-3.13,1.44-3.11,5-.89,7.2,2.57,2.54,5.93,4.23,8.64,6.66C1415.43,301,1417.73,304.82,1422,305Z"/><path d="M1439.13,319.6c1.68-3.16-.39-7.27-2.18-9.9a8.92,8.92,0,0,0-3.87-3.27c-2.13-.87-5.17-.37-6,2.06a6,6,0,0,0,.23,4.43,13.29,13.29,0,0,0,1.07,2.09l.13.21.08.19c1,2.16,1.69,4.61,3.6,6.13C1434.67,323.54,1437.79,322.12,1439.13,319.6Z"/><path d="M1449.19,304.13c-.87-5.94-4.43-11.23-8.57-15.44-3.33-3.39-9.06-8.79-14.22-6.83a2.8,2.8,0,0,0-1.62,2.89c.14,4.13,5.35,8,7.75,11,3,3.82,5.36,8.15,8.44,11.92C1443.87,311.19,1449.88,308.79,1449.19,304.13Z"/><path d="M1437.78,340.76a6.32,6.32,0,0,0,2.69-.4,5.59,5.59,0,0,0,2.86-2.92,8.84,8.84,0,0,0,.44-4.3,8.23,8.23,0,0,0-1.55-3.77l-.9-.89-1.15-.65a4.85,4.85,0,0,0-3.17-.13,4.92,4.92,0,0,0-3.56,4.15,23.92,23.92,0,0,0-.34,4.39c.12.44.25.88.37,1.32a4,4,0,0,0,1.19,1.66A5.08,5.08,0,0,0,1437.78,340.76Z"/><path d="M1450.68,330.32a4.47,4.47,0,0,0,3.68-3.82,10.9,10.9,0,0,0-1-5.59c-.62-1.49-1.65-3.43-3.07-4.31-2.16-1.33-5.13-.44-5.46,2.33a17.67,17.67,0,0,0,.45,4.27c.09.61.13,1.22.17,1.84a12.61,12.61,0,0,0,.61,2.69C1446.56,329.48,1449,330.65,1450.68,330.32Z"/></g><path class="cls-10" d="M1435.69,293.15c-9.44,20.27-52.87,97.39-82.26,100.48-35.61,3.74-80.89-4.21-100.65-13.83-11.07-5.39,17.7-59.53,28.25-55.94,16.64,5.67,49,8.49,55.46,9s51.41-33.65,76.46-52.35C1435.51,263.63,1441.25,281.21,1435.69,293.15Z"/><path class="cls-10" d="M1245.7,322.87c3.92-.15,3.87-2.21-1.79-6.31s-31.51-15.5-26.77-24.18,41,7.93,49.89,15.47,20.63,22.86,20.63,22.86C1280,328.89,1260.85,326.25,1245.7,322.87Z"/><path class="cls-10" d="M1269.16,385.55c-22.12-5.52-49.69-11.92-67.22-30a12.5,12.5,0,0,1-3.63-7.31c-8-8-6.65-14.13-6.65-14.13-5.18-9.69-2.92-15.81-2.92-15.81s-9.29-9.44-4.52-16c5.34-7.37,17.34,7.34,28.89,11.39,26.46,9.29,66.66,15.09,74.55,17Z"/><path class="cls-1" d="M1234,342.92c-7.73-2.89-15.4-5.52-22.7-9.44-8-4.31-15-9.79-22.24-15.19a.22.22,0,0,0-.29.33c11.58,11.86,29,21,45.11,24.65C1234.26,343.36,1234.38,343.06,1234,342.92Z"/><path class="cls-1" d="M1230.71,359.7c-7.37-3.23-20.28-9-38.87-25.77-.06-.05-.17,0-.11.1,10.62,12.51,23.43,20.76,38.83,26C1231,360.21,1231.2,359.92,1230.71,359.7Z"/><path class="cls-1" d="M1228.78,368.69c-12.32-6-19.33-11.29-30.39-20.44-.07-.05-.17.05-.11.11,11.48,11.72,17,14.67,30.35,20.78C1229.09,369.35,1229.26,368.92,1228.78,368.69Z"/><path class="cls-8" d="M1294.55,324.1l-24.22,67.07s63.24,13.3,88.6,3.79,58.88-59.37,74.75-88.51,7.53-53.61-33.3-21.14-60.55,45-63.41,45.54S1294.55,324.1,1294.55,324.1Z"/><g class="cls-9"><path d="M1353.34,379.41c-2.56,1.16-4.47,2.63-7.4,2.44s-5.49-1.16-8.45-.66c-2.53.43-3.78,4.05-1.88,5.87,6.09,5.82,17,6.16,23.06.07A4.75,4.75,0,0,0,1353.34,379.41Z"/><path d="M1366,357.8c-3.42,1.08-6.12,3.69-9.5,5.06a87.41,87.41,0,0,1-9.43,3.24c-2.31.63-3.65,4.43-1,5.7,4.36,2.12,8.46,3,13.27,1.73,4.12-1,10.34-3.62,12.31-7.62C1373.38,362.25,1370.89,356.23,1366,357.8Z"/><path d="M1331.65,368.58c-3.23-.09-6.71-.26-9.64-1.78-2.77-1.43-6.07-.89-7.51,2.15s.25,5.85,3.08,7.18a18.72,18.72,0,0,0,15.84.45C1337.34,374.83,1335.75,368.71,1331.65,368.58Z"/></g><g class="cls-9"><path d="M1422,305a5.38,5.38,0,0,0,5.83-4.65c.75-5.37-4.53-10.17-8.59-13s-9.58-5.14-14.51-2.86c-3.13,1.44-3.11,5-.89,7.2,2.57,2.54,5.93,4.23,8.64,6.66C1415.43,301,1417.73,304.82,1422,305Z"/><path d="M1433.55,306.69c-1.5,2.77-3.17,5.71-5,8.78,0,0,0,0,0-.05a1,1,0,0,1-.09-.2,1.25,1.25,0,0,0-.14-.2c-.39-.73-.76-1.35-1.07-2.09a6.06,6.06,0,0,1-.23-4.43c.91-2.43,3.93-2.94,6-2.06A1.84,1.84,0,0,1,1433.55,306.69Z"/><path d="M1440.52,288.59a57.77,57.77,0,0,1-4.18,12.54c-1.21-1.84-2.45-3.67-3.81-5.39-2.4-3-7.6-6.86-7.74-11a2.77,2.77,0,0,1,1.61-2.88C1431.51,279.93,1437.16,285.21,1440.52,288.59Z"/></g><path class="cls-1" d="M1363.21,393c2.09-2.91,15.44-6.68,51.12-54.25,7.29-9.71,13-19.43,20.2-28.61.09-.11.24,0,.18.13-3.47,6.63-7.37,13-11.48,19.32l.94-.81c2.69-2.32,5.49-4.56,7.94-7.14.18-.19.45.12.26.3-2.52,2.46-4.79,5.18-7.24,7.71-1.19,1.22-2.37,2.44-3.65,3.56-.48.43-1,.89-1.54,1.33-38.24,53.32-54.6,56.52-56.44,58.72C1363.32,393.49,1363,393.24,1363.21,393Z"/><path class="cls-1" d="M1284.69,391.21c1.25-5.32,3.27-10.49,5-15.66s3.54-10.16,5.36-15.23c3.67-10.22,7.13-20.6,11.46-30.56a.2.2,0,0,1,.38.12c-2.67,10.62-6.46,21-10.09,31.33q-2.74,7.77-5.69,15.46a142,142,0,0,1-6.09,14.72C1285,391.61,1284.63,391.43,1284.69,391.21Z"/><path class="cls-1" d="M1294.35,323.43c6.3.64,31.3,5.55,37.6,6.17a13.11,13.11,0,0,0,8.08-1.66c2.72-1.54,48-33,53-36.75.2-.15.46.16.26.31-5.26,3.74-40.37,30.38-45.78,34.13a59.29,59.29,0,0,1-7.51,4.84,11.87,11.87,0,0,1-7.91.89c-5.94-1.17-29.14-5.56-37.27-7.06-.16,0-1.34,3-1.49,2.94l-.33-.07C1292.86,327.14,1294.07,323.4,1294.35,323.43Z"/><path class="cls-10" d="M1357.23,182.56c1.82-10.27,9.57-24.53,8.41-32.2a8.88,8.88,0,0,0-7.25-7.74s6.39-5.73,4.2-12.51c-1.13-3.49-7.7-4.76-7.7-4.76s4.92-4.81,2.6-10.72c-1.85-4.71-8.15-5.27-8.15-5.27s2.56-6.82-.86-11c-6.94-8.51-48.82,3-51,20.22-1,8,9,4.65,9,4.65s-13.32,8.35-11.16,17,15,3.53,15,3.53-12.84,8.2-9.69,17c3.27,9.15,15.21,1.78,15.21,1.78s-7.57,8.87-3.62,15.05c6.52,10.2,20.29-8.67,30.09-9l9.26,13.77Z"/><path class="cls-10" d="M1362,167.06c-.87,9.87,13.27,17.88,13.79,27.44.72,12.93-16.31,4.75-24.24-12.14l-3.86-14.18Z"/><path class="cls-1" d="M1348.41,108.86a.12.12,0,0,0,0-.23c-14.7.44-30.71,5.42-42.43,14.45-.39.3-.07,1,.41.8C1320.23,116.89,1333.09,111.78,1348.41,108.86Z"/><path class="cls-1" d="M1355.07,125.21c.17,0,.12-.31-.06-.3-15.15.53-33,6.64-45.31,18.64-.42.41-.39,1.2.13.76C1318.61,137,1341.27,127.77,1355.07,125.21Z"/><path class="cls-1" d="M1315.2,163.71c12.22-11,26.76-17.06,42.57-21.1.21-.05.11-.34-.07-.34-8.28-.13-18.09,3.49-25.49,6.95a43.36,43.36,0,0,0-17.39,14.07C1314.64,163.53,1314.94,164,1315.2,163.71Z"/><path class="cls-10" d="M1407.48,276.06c7.23,1.66,22.22-7,27.3-17.31.34-.71-1-8-2.32-16.87-.75-5.4-1.46-11.43-1.71-17,0-1.14-34.44,10-34.44,10s4,11.48,4.32,21.17a12,12,0,0,1-.14,2.28c0,.11,0,.24,0,.38C1400,263.11,1399.74,274.28,1407.48,276.06Z"/><path class="cls-1" d="M1400.48,258.37c0,.11,0,.25,0,.38a23.36,23.36,0,0,0,3.57,0c20.47-1.37,24.73-27.27,25.48-33.82-6.15,1.17-33.21,10-33.21,10s4,11.49,4.33,21.17A11.89,11.89,0,0,1,1400.48,258.37Z"/><path class="cls-10" d="M1435.27,181.38c3.94,12.31-2.12,48.1-10.81,56.17-12.59,11.71-33.43,13.09-43.44-2.1-9.7-14.72-1-61.22,8.74-68.58C1404.08,156,1429.46,163.2,1435.27,181.38Z"/><path class="cls-1" d="M1400.73,203.21c0-.09.17.15.15.25-.48,2.39-.61,5.22,1.44,6.38.06,0,0,.16,0,.13C1399.67,209.16,1399.89,205.41,1400.73,203.21Z"/><path class="cls-1" d="M1403.3,201.05c3.92.34,3,8.17-.69,7.85S1400,200.76,1403.3,201.05Z"/><path class="cls-1" d="M1386.63,201.86c0-.09-.2.09-.21.19-.22,2.44-.89,5.19-3.19,5.72-.07,0-.08.14,0,.14C1386,207.87,1386.81,204.2,1386.63,201.86Z"/><path class="cls-1" d="M1384.78,199.06c-3.86-.78-5.14,7-1.56,7.73S1388,199.71,1384.78,199.06Z"/><path class="cls-1" d="M1406.83,197.85a29,29,0,0,1-2.9-1.45c-1.11-.56-2-.9-2.68-2a1.7,1.7,0,0,1,.52-2c1.3-.89,2.83-.53,4.19.1a6,6,0,0,1,3.15,3A1.78,1.78,0,0,1,1406.83,197.85Z"/><path class="cls-1" d="M1382.25,194.74a31.67,31.67,0,0,0,3.21-.42c1.23-.18,2.23-.19,3.19-1.06a1.67,1.67,0,0,0,.16-2c-.94-1.27-2.5-1.43-4-1.28a6.06,6.06,0,0,0-4,1.85A1.78,1.78,0,0,0,1382.25,194.74Z"/><path class="cls-1" d="M1400.17,226c-.65.49-1.33,1.2-2.22,1.17a6.53,6.53,0,0,1-2.53-.94.08.08,0,0,0-.12.11,3.28,3.28,0,0,0,2.91,1.7,2.58,2.58,0,0,0,2.18-1.9C1400.44,226,1400.26,225.93,1400.17,226Z"/><path class="cls-1" d="M1398.52,218.43a8.35,8.35,0,0,1-6,3,10.43,10.43,0,0,1-3-.24,3.5,3.5,0,0,1-.56-.13l-.52-.15a.63.63,0,0,1-.42-.61h0a1.11,1.11,0,0,1,0-.25v0l0-.21c.18-1.87.72-4.69.72-4.69-.73.26-4.4,1.39-4.22.42,1.48-8,3.14-16.94,6.31-24.6a.23.23,0,0,1,.44.12c-1.13,7.76-3.61,15.27-4.86,23a14.73,14.73,0,0,1,4-.7c.26.11-1.13,5.43-1.14,6.28a.21.21,0,0,0,0,.09c3.09.79,5.57.14,8.88-1.59C1398.52,218.06,1398.69,218.25,1398.52,218.43Z"/><path class="cls-1" d="M1390.78,220.37a9.9,9.9,0,0,0,3.55,3.53,4.43,4.43,0,0,0,2.66.5c2-.27,2.27-2,2.1-3.6a10.44,10.44,0,0,0-.58-2.44A12.76,12.76,0,0,1,1390.78,220.37Z"/><path class="cls-11" d="M1394.33,223.9a4.43,4.43,0,0,0,2.66.5c2-.27,2.27-2,2.1-3.6C1397,220.75,1394.76,221.9,1394.33,223.9Z"/><path class="cls-1" d="M1383.12,178.12c1.7-2.92,3.62-5.83,5.55-6.21s2.59,4.28,6.77,5.08c5.64,1.09,9-3.8,17.07-3.38,11.53.61,15.39,10.78,13.67,27-1.53,14.51,7.06,16.95,7.06,16.95s9.23-31.29,1.52-43-27.79-18.9-42.91-10.51C1386.34,167.17,1383.12,178.12,1383.12,178.12Z"/><path class="cls-10" d="M1426.63,211s8.15-11.49,13.37-8.57-1,19.61-7.13,21.85a6.25,6.25,0,0,1-8.36-3.42Z"/><path class="cls-1" d="M1438.11,207.17a.08.08,0,0,1,0,.16c-4.32,1.72-6.62,5.7-8.24,9.84,1.29-1.59,3-2.45,5.17-.91.11.08,0,.26-.12.23a3.85,3.85,0,0,0-4.24,1.31,18.7,18.7,0,0,0-2,3.41c-.21.39-.9.18-.75-.27l0-.1C1427.87,215.34,1432.2,207.68,1438.11,207.17Z"/><path class="cls-4" d="M1401.94,159.88a51.83,51.83,0,0,1,14.64-3.34c5.61-.33,23.07,2.18,27,6s4,20.39,4,22.82-2.09,17-7.62,20.15-4.39-21.69-12.21-30.47S1401.94,159.88,1401.94,159.88Z"/><path class="cls-6" d="M1401.93,159.88s18,6.35,25.81,15.14,6.69,33.65,12.22,30.48c2.43-1.41,3.72-3.64,4.93-7.46-.63-7.33-2.82-18.78-8.35-27-5.19-7.68-14.69-12-25-13.88A59.46,59.46,0,0,0,1401.93,159.88Z"/><path class="cls-4" d="M1437.54,220.14c0-6.65-5.6-24.81-12-35.43s-26.75-17.92-29.66-17.94c-7.07-.06-8.84,3.2-9.91,2.5s6.49-8.24,8.56-9.3a22.9,22.9,0,0,1,9.9-1.79c3,.27,21.81,3.39,28.14,11.9s14.55,31.7,12.39,37.36c-.52,1.36-2.42,2.13-3.14,4.06-.94,2.53-1.68,5.48-2.57,7.23C1438.53,220.14,1437.54,220.72,1437.54,220.14Z"/><path class="cls-1" d="M1424.23,180.05A33.81,33.81,0,0,0,1429,177a24.38,24.38,0,0,0,4.2-3.92c.08-.11.26,0,.18.12a19,19,0,0,1-3.87,4.46,15.7,15.7,0,0,1-5.17,2.74C1424.15,180.46,1424,180.14,1424.23,180.05Z"/><path class="cls-1" d="M1438,213.53a14.92,14.92,0,0,1,.81-1.31,9.25,9.25,0,0,0,.73-1.6,14.59,14.59,0,0,1,1-3.16,12.21,12.21,0,0,1,1.7-2.1,4.41,4.41,0,0,0,1.48-2.6c0-.14.23-.13.22,0-.13,2-1.57,3.35-2.56,5a21,21,0,0,0-1.13,3.38,5.22,5.22,0,0,1-1.93,2.65C1438.18,213.84,1438,213.7,1438,213.53Z"/><path class="cls-1" d="M1436.23,206.23c.67-.71,1.39-1.34,2-2.12a20.24,20.24,0,0,0,1.59-2.39c.47-.81.87-1.66,1.33-2.48.54-1,1.2-1.88,1.69-2.88.06-.12.25,0,.19.12-.51,1-.84,2.16-1.32,3.2a21.48,21.48,0,0,1-1.44,2.62,14.65,14.65,0,0,1-1.72,2.28,7.28,7.28,0,0,1-2.26,1.75A.06.06,0,0,1,1436.23,206.23Z"/><path class="cls-1" d="M1434.25,199.6a19,19,0,0,0,3.87-3.83c1.05-1.42,2-2.92,3-4.42.07-.1.25,0,.2.1a22.38,22.38,0,0,1-2.61,4.87,11.85,11.85,0,0,1-1.83,2,12.08,12.08,0,0,1-2.49,1.49C1434.27,199.84,1434.13,199.68,1434.25,199.6Z"/><path class="cls-1" d="M1432,193.24a6.46,6.46,0,0,0,1.87-1.66c.63-.7,1.23-1.42,1.81-2.16s1.14-1.4,1.7-2.11a6.59,6.59,0,0,0,1.35-2.35.11.11,0,0,1,.21,0,6.62,6.62,0,0,1-.93,2.53,16.16,16.16,0,0,1-1.67,2.49,21.71,21.71,0,0,1-2,2.18,4.27,4.27,0,0,1-2.23,1.32A.15.15,0,0,1,1432,193.24Z"/><path class="cls-1" d="M1430.66,185.26c.66-.57,1.3-1.13,1.91-1.74s1.18-1.25,1.74-1.89,1.21-1.35,1.75-2.06a.11.11,0,0,1,.19.12,17.51,17.51,0,0,1-1.38,2.32,18.64,18.64,0,0,1-1.74,2,20.57,20.57,0,0,1-1.94,1.79,7.13,7.13,0,0,1-2.25,1.36c-.13,0-.25-.13-.17-.23A13.26,13.26,0,0,1,1430.66,185.26Z"/><path class="cls-1" d="M1419.4,176c.71-.77,1.4-1.52,2.17-2.22a28.33,28.33,0,0,1,2.5-2,27.08,27.08,0,0,1,5.36-3.12c.1-.05.23.09.12.17-3.3,2.48-6.72,4.82-10,7.32A.11.11,0,0,1,1419.4,176Z"/><path class="cls-1" d="M1415.77,170a13.75,13.75,0,0,1,2.39-2,29.3,29.3,0,0,1,5.88-2.78.11.11,0,1,1,.1.19c-1.79,1-3.6,2-5.33,3.16a25.61,25.61,0,0,0-2.49,1.78c-.8.65-1.42,1.45-2.18,2.13-.06.06-.17,0-.13-.08A7.61,7.61,0,0,1,1415.77,170Z"/><path class="cls-1" d="M1410.43,167.06a15.55,15.55,0,0,1,2.22-2,16.77,16.77,0,0,1,5-2.51.11.11,0,0,1,.08.2,32,32,0,0,0-4.78,3c-.76.57-1.48,1.17-2.21,1.77s-1.36,1.37-2.14,1.89c-.07,0-.13-.05-.09-.11A15.69,15.69,0,0,1,1410.43,167.06Z"/><path class="cls-1" d="M1406.67,163.5c.73-.52,1.49-1,2.25-1.47a8.22,8.22,0,0,1,2.39-1.14.11.11,0,0,1,.07.2c-1.42,1-2.83,2-4.24,3a23,23,0,0,0-3.33,3.44.07.07,0,0,1-.12-.07A8.47,8.47,0,0,1,1406.67,163.5Z"/><path class="cls-1" d="M1401.77,162.11a13.73,13.73,0,0,1,4.6-2.46c.12,0,.19.16.08.2a16.79,16.79,0,0,0-4.22,2.76,23.73,23.73,0,0,0-3.43,3.72c0,.06-.17,0-.13-.07A11.41,11.41,0,0,1,1401.77,162.11Z"/><path class="cls-1" d="M1395.07,164.64a8.9,8.9,0,0,1,.64-1,11.2,11.2,0,0,1,1.59-1.71,23.86,23.86,0,0,1,4-2.64c.12-.07.22.13.1.19a19.55,19.55,0,0,0-3.71,2.74,16.21,16.21,0,0,0-1.54,1.67c-.23.29-.44.59-.65.9a5.48,5.48,0,0,1-.61.9.11.11,0,0,1-.18-.09A3.11,3.11,0,0,1,1395.07,164.64Z"/><path class="cls-1" d="M1391.07,164.74a14.58,14.58,0,0,1,1.31-1.41,17,17,0,0,1,1.46-1.23c.53-.39,1.08-.76,1.59-1.17.12-.1.25.09.12.18a12.2,12.2,0,0,0-1.49,1.29l-1.33,1.31c-.45.43-.89.87-1.33,1.31a16.94,16.94,0,0,1-1.33,1.35.09.09,0,0,1-.14-.11A8.05,8.05,0,0,1,1391.07,164.74Z"/><path class="cls-1" d="M448.37,246.28c0,38.9,31.88,70.45,71.19,70.45s71.18-31.55,71.18-70.45-31.86-70.45-71.18-70.45S448.37,207.36,448.37,246.28Zm37.93,0a33.26,33.26,0,1,1,33.26,32.89A33.08,33.08,0,0,1,486.3,246.28Z"/><polygon class="cls-1" points="505.87 178.75 533.24 178.75 531.73 159.57 507.38 159.57 505.87 178.75"/><polygon class="cls-1" points="557.97 187.88 577.33 207.03 589.96 192.41 572.75 175.38 557.97 187.88"/><polygon class="cls-1" points="588.3 230.79 588.3 257.89 607.67 256.39 607.67 232.29 588.3 230.79"/><polygon class="cls-1" points="579.07 282.36 559.72 301.52 574.49 314.02 591.71 296.98 579.07 282.36"/><polygon class="cls-1" points="535.71 312.37 508.33 312.37 509.85 331.55 534.19 331.55 535.71 312.37"/><polygon class="cls-1" points="483.6 303.24 464.25 284.08 451.61 298.7 468.83 315.74 483.6 303.24"/><polygon class="cls-1" points="453.28 260.32 453.28 233.23 433.9 234.73 433.9 258.82 453.28 260.32"/><polygon class="cls-1" points="462.5 208.76 481.86 189.6 467.09 177.1 449.87 194.14 462.5 208.76"/><path class="cls-1" d="M535.62,230.38l-22-5.83-16.06,15.92,5.88,21.71L525.43,268l16.08-15.9Zm-16.06,23a7.13,7.13,0,1,1,7.2-7.13A7.16,7.16,0,0,1,519.56,253.41Z"/><path class="cls-7" d="M628.6,146.85a19.81,19.81,0,1,0-18.07-21.56A20,20,0,0,0,628.6,146.85ZM613,125.52a17.57,17.57,0,1,1,15.86,18.92A17.52,17.52,0,0,1,613,125.52Zm15.65,21.33a19.81,19.81,0,1,0-18.07-21.56A20,20,0,0,0,628.6,146.85ZM613,125.52a17.57,17.57,0,1,1,15.86,18.92A17.52,17.52,0,0,1,613,125.52Zm15.65,21.33a19.81,19.81,0,1,0-18.07-21.56A20,20,0,0,0,628.6,146.85ZM613,125.52a17.57,17.57,0,1,1,15.86,18.92A17.52,17.52,0,0,1,613,125.52Zm13.59,43.18a41.76,41.76,0,1,0-38.09-45.44A42.1,42.1,0,0,0,626.54,168.7ZM607.43,125a23.12,23.12,0,1,1,20.87,24.9A23.08,23.08,0,0,1,607.43,125Zm3.1.28a20,20,0,1,0,21.76-17.89A19.86,19.86,0,0,0,610.53,125.29Zm2.42.23a17.57,17.57,0,1,1,15.86,18.92A17.52,17.52,0,0,1,613,125.52Zm15.65,21.33a19.81,19.81,0,1,0-18.07-21.56A20,20,0,0,0,628.6,146.85ZM613,125.52a17.57,17.57,0,1,1,15.86,18.92A17.52,17.52,0,0,1,613,125.52Zm15.65,21.33a19.81,19.81,0,1,0-18.07-21.56A20,20,0,0,0,628.6,146.85ZM613,125.52a17.57,17.57,0,1,1,15.86,18.92A17.52,17.52,0,0,1,613,125.52Z"/><polygon class="cls-7" points="626.12 86.54 642.27 88.02 642.44 76.63 628.07 75.31 626.12 86.54"/><polygon class="cls-7" points="656.35 94.75 666.71 107.1 674.98 99.16 665.76 88.18 656.35 94.75"/><polygon class="cls-7" points="671.87 121.72 670.37 137.7 681.88 137.87 683.22 123.65 671.87 121.72"/><polygon class="cls-7" points="663.57 151.64 651.09 161.89 659.11 170.07 670.21 160.95 663.57 151.64"/><polygon class="cls-7" points="636.32 166.99 620.17 165.5 620 176.9 634.37 178.22 636.32 166.99"/><polygon class="cls-7" points="606.08 158.78 595.73 146.43 587.46 154.37 596.68 165.35 606.08 158.78"/><polygon class="cls-7" points="590.57 131.81 592.07 115.83 580.56 115.66 579.22 129.88 590.57 131.81"/><polygon class="cls-7" points="598.87 101.89 611.35 91.64 603.33 83.46 592.23 92.58 598.87 101.89"/><path class="cls-1" d="M434.53,146.17a24.12,24.12,0,1,0-22-26.25A24.3,24.3,0,0,0,434.53,146.17Zm-19-26a21.39,21.39,0,1,1,19.31,23A21.33,21.33,0,0,1,415.49,120.2Zm19,26a24.12,24.12,0,1,0-22-26.25A24.3,24.3,0,0,0,434.53,146.17Zm-19-26a21.39,21.39,0,1,1,19.31,23A21.33,21.33,0,0,1,415.49,120.2Zm19,26a24.12,24.12,0,1,0-22-26.25A24.3,24.3,0,0,0,434.53,146.17Zm-19-26a21.39,21.39,0,1,1,19.31,23A21.33,21.33,0,0,1,415.49,120.2ZM432,172.77c28.26,2.6,53.27-18,55.91-45.91s-18.14-52.73-46.4-55.32-53.26,18-55.88,45.91S403.8,170.18,432,172.77Zm-23.27-53.19a28.15,28.15,0,1,1,25.42,30.32A28.11,28.11,0,0,1,408.76,119.58Zm3.78.34A24.36,24.36,0,1,0,439,98.14,24.18,24.18,0,0,0,412.54,119.92Zm2.95.28a21.39,21.39,0,1,1,19.31,23A21.33,21.33,0,0,1,415.49,120.2Zm19,26a24.12,24.12,0,1,0-22-26.25A24.3,24.3,0,0,0,434.53,146.17Zm-19-26a21.39,21.39,0,1,1,19.31,23A21.33,21.33,0,0,1,415.49,120.2Zm19,26a24.12,24.12,0,1,0-22-26.25A24.3,24.3,0,0,0,434.53,146.17Zm-19-26a21.39,21.39,0,1,1,19.31,23A21.33,21.33,0,0,1,415.49,120.2Z"/><polygon class="cls-1" points="431.51 72.74 451.18 74.55 451.39 60.67 433.9 59.06 431.51 72.74"/><polygon class="cls-1" points="468.33 82.74 480.94 97.78 491 88.11 479.79 74.73 468.33 82.74"/><polygon class="cls-1" points="487.22 115.57 485.39 135.03 499.41 135.24 501.04 117.93 487.22 115.57"/><polygon class="cls-1" points="477.11 152 461.92 164.49 471.69 174.44 485.2 163.34 477.11 152"/><polygon class="cls-1" points="443.94 170.7 424.27 168.89 424.07 182.76 441.56 184.37 443.94 170.7"/><polygon class="cls-1" points="407.12 160.7 394.51 145.66 384.45 155.32 395.67 168.7 407.12 160.7"/><polygon class="cls-1" points="388.24 127.86 390.06 108.4 376.04 108.2 374.42 125.51 388.24 127.86"/><polygon class="cls-1" points="398.34 91.43 413.54 78.95 403.77 68.99 390.25 80.09 398.34 91.43"/><polygon class="cls-4" points="556.88 1005.61 541.49 1005.61 417.88 430.05 287.67 430.05 362.08 1005.61 346.9 1005.61 270.75 416.71 430.39 416.71 556.88 1005.61"/><polygon class="cls-12" points="556.88 1005.61 541.49 1005.61 417.88 430.05 287.67 430.05 362.08 1005.61 346.9 1005.61 270.75 416.71 430.39 416.71 556.88 1005.61"/><rect class="cls-4" x="260.73" y="402.93" width="176.99" height="15.9"/><rect class="cls-13" x="260.73" y="402.93" width="176.99" height="15.9"/><polygon class="cls-4" points="430.32 418.83 368.05 1036.5 352.87 1036.5 413.63 433.94 283.37 433.94 173.49 1036.5 158.13 1036.5 270.76 418.83 430.32 418.83"/><rect class="cls-4" x="260.24" y="551.62" width="153.92" height="15.11"/><rect class="cls-4" x="235.81" y="674.1" width="153.92" height="15.11"/><rect class="cls-4" x="209.77" y="796.58" width="167.97" height="15.11"/><rect class="cls-4" x="189.74" y="919.06" width="178.73" height="15.11"/><g class="cls-14"><polygon points="430.32 418.83 368.05 1036.5 352.87 1036.5 413.63 433.94 283.37 433.94 173.49 1036.5 158.13 1036.5 270.76 418.83 430.32 418.83"/><rect x="260.24" y="551.62" width="153.92" height="15.11"/><rect x="235.81" y="674.1" width="153.92" height="15.11"/><rect x="209.77" y="796.58" width="167.97" height="15.11"/><rect x="189.74" y="919.06" width="178.73" height="15.11"/></g><path class="cls-15" d="M205.93,619.13s-53.17,100.12-53.18,100.19c-3.11,18.92-5.49,35.56-5.92,44.28a.37.37,0,0,0,0,.15c-.16,3.29,0,5.42.44,6.07,0,0,.05.1.09.14,5,4.73,155.47,33.95,161.06,33.2s3.9-16.74-1-22.53-57.56-42.75-57.56-42.75L302,637.66Z"/><path class="cls-3" d="M162.65,699.34s-9.89,19.91-9.9,20c-3.11,18.92-5.49,35.56-5.92,44.28a.37.37,0,0,0,0,.15,26.15,26.15,0,0,0,.44,6.07s.05.1.09.14c5,4.73,155.47,33.95,161.06,33.2s3.9-16.74-1-22.53-57.56-42.75-57.56-42.75l10.24-20.23Z"/><path class="cls-1" d="M259.06,739.49c-9.79-3.34-22.31-3.59-31,2.46-.34.23,0,.71.34.65a143.27,143.27,0,0,1,30.48-1.85A.65.65,0,0,0,259.06,739.49Z"/><path class="cls-1" d="M265.69,744.92c-9.79-3.34-22.32-3.59-31.05,2.46-.34.23,0,.71.34.66a142,142,0,0,1,30.48-1.85A.65.65,0,0,0,265.69,744.92Z"/><path class="cls-1" d="M272.31,750.35c-9.79-3.34-22.32-3.58-31.05,2.46-.33.24,0,.72.35.66a143.27,143.27,0,0,1,30.48-1.85A.65.65,0,0,0,272.31,750.35Z"/><path class="cls-7" d="M308.41,803.16c-5.6.76-156-28.46-161.06-33.21-1.94-1.77,1-23.94,5.41-50.63,0-.28.09-.55.14-.83l97.27,17.76-.35,1.64s52.58,36.94,57.55,42.75S314,802.44,308.41,803.16Z"/><path class="cls-4" d="M152.89,718.47l-.15.87C148.4,746,145.4,768.18,147.35,770c2.27,2.16,34.72,9.39,69.91,16.58,42.1,8.59,88.1,17.05,91.15,16.65,5.6-.75,3.87-16.76-1-22.55s-57.55-42.74-57.55-42.74l.36-1.63-32.44-5.93Z"/><path class="cls-1" d="M307.84,797c-25.24-5.55-127.57-25.54-152.94-29.1-.2,0-.23.11,0,.16,24.9,6,127.38,25.2,152.89,29.36C308.3,797.5,308.37,797.12,307.84,797Z"/><path class="cls-6" d="M217.74,730.33c-.35,16.73-.75,41.41-.48,56.2,42.1,8.59,88.1,17.05,91.15,16.65,5.6-.75,3.87-16.76-1-22.55s-57.55-42.74-57.55-42.74l.36-1.63Z"/><path class="cls-7" d="M166.5,685.22,278,698.1S396.22,516.32,384.32,453.49c-6.54-34.56-124.08-88.86-124.08-88.86l-11.89-23.89h-82.9s-33.79,49.82-9.53,96.61c16.49,31.8,107.09,56.06,110.42,66.28C270.74,517.11,166.5,685.22,166.5,685.22Z"/><path class="cls-1" d="M181,670.62a81.85,81.85,0,0,1,8.85.36c3.28.16,6.55.31,9.83.56,6.29.49,12.57,1.14,18.84,1.87,12.64,1.47,25.27,3.09,37.86,5,7.16,1.09,14.31,2.24,21.44,3.51a.23.23,0,0,1-.06.45c-12.59-1-25.15-2.36-37.71-3.63s-25.13-2.53-37.61-4.28c-3.59-.5-7.17-1-10.74-1.6s-7.26-.88-10.7-1.82C180.74,671,180.69,670.64,181,670.62Z"/><path class="cls-1" d="M268.38,668.93c9.85-15.06,62.83-110.8,70.75-126.92,4-8,7.79-16.18,11.25-24.45a220.57,220.57,0,0,0,9.16-25.19c2.37-8.5,4.55-17.46,2.74-25.92a36.55,36.55,0,0,0-5-12,57,57,0,0,0-3.79-5.4c-1.43-1.68-2.83-3.39-4.38-5-12.43-12.76-27.94-22.21-43.53-31s-32.06-16.19-48.37-23.8c-4.07-1.93-8.13-3.87-12.15-5.93-2-1-4-2.11-5.93-3.28s-4-2.47-5.08-4.56c-4.53-7.91-6.39-17-7.25-25.88,1.07,8.88,3.17,17.88,7.82,25.53,1.07,1.95,3,3,4.94,4.2s3.94,2.11,5.95,3.1c4,1.94,8.15,3.78,12.25,5.61,16.42,7.35,32.9,14.66,48.82,23.17a252.17,252.17,0,0,1,23.27,13.87,135.26,135.26,0,0,1,21.05,17.21c1.6,1.63,3.07,3.39,4.55,5.12a60.21,60.21,0,0,1,4,5.63,39.11,39.11,0,0,1,5.42,12.75c1.19,4.58.74,9.34.29,13.87-.43,2.24-.74,4.53-1.26,6.74s-1.05,4.44-1.7,6.61a222.88,222.88,0,0,1-9.39,25.46c-3.53,8.31-7.4,16.46-11.43,24.53C333.28,559.24,278.59,654.11,268.38,668.93Z"/><path class="cls-15" d="M264.2,767.56s.85,100.24.84,100.31c.07,19.17.46,36,1.48,44.65a.22.22,0,0,0,0,.14c.38,3.28.84,5.37,1.43,5.92a.44.44,0,0,0,.11.12c5.72,3.85,158.94,7.83,164.33,6.17s1.08-17.16-4.74-22.06-63.83-32.65-63.83-32.65L362,770Z"/><path class="cls-3" d="M264.87,847.29s.18,20.51.17,20.58c.07,19.17.46,36,1.48,44.65a.22.22,0,0,0,0,.14,25.91,25.91,0,0,0,1.43,5.92.44.44,0,0,0,.11.12c5.72,3.85,158.94,7.83,164.33,6.17s1.08-17.16-4.74-22.06-63.83-32.65-63.83-32.65l.11-20.89Z"/><path class="cls-1" d="M373.23,870.21c-10.21-1.68-22.6.15-30.22,7.55-.29.29.12.7.45.59a142.83,142.83,0,0,1,29.76-6.85A.65.65,0,0,0,373.23,870.21Z"/><path class="cls-1" d="M380.66,874.48c-10.21-1.68-22.6.14-30.22,7.55-.29.29.12.7.45.59a142.85,142.85,0,0,1,29.76-6.86A.65.65,0,0,0,380.66,874.48Z"/><path class="cls-1" d="M388.09,878.74c-10.2-1.68-22.6.15-30.21,7.55-.3.29.11.71.44.59A142.83,142.83,0,0,1,388.08,880,.65.65,0,0,0,388.09,878.74Z"/><path class="cls-4" d="M432.41,924.87c-5.4,1.66-158.6-2.31-164.33-6.17-2.21-1.43-2.93-23.79-3-50.83,0-.28,0-.56,0-.84l98.87,1.46-.08,1.67s58,27.75,63.82,32.66S437.81,923.23,432.41,924.87Z"/><path class="cls-1" d="M430.83,918.88c-25.81-1.3-130-4.13-155.64-3.45-.21,0-.21.14,0,.16,25.55,1.85,129.79,3.83,155.63,3.72C431.37,919.3,431.38,918.91,430.83,918.88Z"/><path class="cls-7" d="M213.55,446.85c0,.07,45.48,143.36,46.3,169.71.7,22.46-2.17,220.66-2.17,220.66l115.14.69s-9.73-202.76-11.53-226.17c-3.36-43.78-41.7-163.94-69.13-271H168s1.08,56.07,26.57,96.61C194.6,437.35,206.15,442.7,213.55,446.85Z"/><path class="cls-1" d="M263.79,816c13.3-.38,27.1-.77,40.4-.44s26.43.53,39.6,1.31c7.48.45,14.93.7,22.39,1.44a.2.2,0,0,1,0,.4c-13.29.77-26.63.62-39.94.5s-26.41-.27-39.61-.87c-7.48-.34-14.93-.72-22.4-1.24C263.42,817,263,816,263.79,816Z"/><path class="cls-1" d="M289,408.29c4.11,13.69,7.57,27.6,11.24,41.42s7.39,27.86,11.06,41.8c7.1,27,14.12,54,19.44,81.37a491.78,491.78,0,0,1,9.2,83.39c.61,28.53,0,57.12-.18,85.66-.19,28.7-.43,25.09-.93,53.79-.06,3.57-.14,7.14-.27,10.71a.27.27,0,0,1-.53,0c-.76-28.54-.36-24.84-.27-53.39s.48-57.12.23-85.67a513.26,513.26,0,0,0-7.32-84.58c-4.81-27.47-11.58-54.55-18.6-81.54-4-15.39-8.05-30.77-12-46.16s-8.32-31-11.86-46.58A.43.43,0,0,1,289,408.29Z"/><path class="cls-1" d="M242,449.62a102.2,102.2,0,0,1-17.1-1.55c-5.7-1.07-11-3-16.57-4.59-5.25-1.55-10.85-1.79-16.24-2.66a57,57,0,0,1-15.92-4.74c-.24-.11-.43.24-.2.36a98.1,98.1,0,0,0,15.26,6.61c5.46,1.73,11.17,2,16.71,3.32,5.7,1.39,11.19,3.24,17,3.92a61.39,61.39,0,0,0,17.07-.29C242.31,450,242.23,449.63,242,449.62Z"/><path class="cls-1" d="M260.24,722.46l-.2-35.31c0-11.77-.12-23.54-.32-35.3s-.35-23.53-1.17-35.2a103.79,103.79,0,0,0-2.84-17.22c-1.25-5.72-2.78-11.4-4.23-17.09-5.82-22.78-12.32-45.4-18.72-68l-19.29-67.93c3.75,11.16,7.29,22.38,10.89,33.59l10.41,33.75q10.23,33.79,19.35,67.95c1.42,5.72,2.9,11.42,4.12,17.21a104.9,104.9,0,0,1,2.78,17.6c.7,11.82.84,23.59.79,35.37Q261.69,687.17,260.24,722.46Z"/><path class="cls-1" d="M352.07,562.37c-4.28-14.88-8.32-29.81-12.35-44.75l-11.9-44.86-11.73-44.89c-1.92-7.49-3.93-15-6-22.41s-4-14.95-6.72-22.19c6.17,14.23,10.26,29.23,14.72,44s8.32,29.82,12.34,44.76c3.82,15,7.69,30,11.3,45S348.88,547.22,352.07,562.37Z"/><path class="cls-15" d="M266.75,211c0,2.44,7.77,20,18.5,21.83,3.49.6,7.61-18.33,7.61-18.33l.62-1.32,8.71-18.59-19.7-19.84-2.89-2.69s-2.05,5.25-4.53,11.8l-.36.93c-.15.37-.29.71-.42,1.06-.38,1-.77,2-1.13,3-.29.76-.56,1.49-.83,2.3s-.55,1.59-.84,2.4C268.83,201.56,266.76,210,266.75,211Z"/><path class="cls-1" d="M275.07,183.89a41.21,41.21,0,0,0,18.41,29.32l8.71-18.59-19.7-19.84-2.89-2.69S277.55,177.34,275.07,183.89Z"/><path class="cls-15" d="M335.33,163.82c3.5,35.86-17.46,42.36-25.32,42.75-7,.36-31,2.1-38.2-33.21s8.38-48.27,24.36-50.67S331.82,128,335.33,163.82Z"/><path class="cls-1" d="M332.8,156.24a22.44,22.44,0,0,1-2.45-.44,4,4,0,0,1-2.41-.93,1.29,1.29,0,0,1,0-1.57,3.18,3.18,0,0,1,3.11-.83,4.68,4.68,0,0,1,3,1.57A1.36,1.36,0,0,1,332.8,156.24Z"/><path class="cls-1" d="M309.58,158.15a23,23,0,0,0,2.42-.58,4,4,0,0,0,2.35-1.06,1.26,1.26,0,0,0-.05-1.56,3.17,3.17,0,0,0-3.15-.66,4.62,4.62,0,0,0-2.88,1.73A1.37,1.37,0,0,0,309.58,158.15Z"/><path class="cls-1" d="M315.13,166.87c0-.09-.19.13-.18.23.2,2.44,0,5.28-2.16,6.21-.06,0-.05.15,0,.13C315.51,172.92,315.71,169.16,315.13,166.87Z"/><path class="cls-1" d="M312.81,164.42c-4-.09-3.87,7.82-.2,7.92S316.12,164.51,312.81,164.42Z"/><path class="cls-1" d="M311.26,164.86c-.69.46-1.36,1.26-2.19,1.35s-1.7-.72-2.34-1.51c-.07-.08-.14,0-.14.1,0,1.51.6,3.06,2.23,3.27s2.54-1.17,2.9-2.69C311.78,165.09,311.53,164.68,311.26,164.86Z"/><path class="cls-1" d="M328.29,165.35c0-.09.2.12.19.22-.06,2.45.27,5.27,2.49,6.08.07,0,.07.15,0,.13C328.24,171.41,327.84,167.66,328.29,165.35Z"/><path class="cls-1" d="M330.47,162.78c3.95-.31,4.29,7.6.64,7.89S327.17,163.05,330.47,162.78Z"/><path class="cls-1" d="M332.15,163.23c.64.39,1.29,1.13,2,1.14s1.47-.86,2-1.7c.05-.09.12,0,.13.08.1,1.51-.33,3.1-1.77,3.46s-2.34-.94-2.77-2.43C331.69,163.51,331.89,163.07,332.15,163.23Z"/><path class="cls-1" d="M315.31,185.81c.57.59,1.12,1.4,2,1.51a6.45,6.45,0,0,0,2.66-.53.09.09,0,0,1,.1.13,3.33,3.33,0,0,1-3.16,1.23,2.6,2.6,0,0,1-1.85-2.24C315,185.77,315.22,185.72,315.31,185.81Z"/><path class="cls-1" d="M325.35,176.7s.6,3.66.64,5.38c0,.17-.42.25-1,.3,0,0-.05,0-.07,0a8.2,8.2,0,0,1-8.05-2.88c-.12-.16.09-.35.25-.24a12.38,12.38,0,0,0,7.55,2c.11-.48-1.22-6.22-.95-6.25a15.23,15.23,0,0,1,3.95.8c-1-7.64-3.25-15.06-4.14-22.68A.24.24,0,0,1,324,153c2.89,7.61,4.24,16.37,5.49,24.24C329.64,178.2,326.05,177,325.35,176.7Z"/><path class="cls-1" d="M324.82,181.06a10.08,10.08,0,0,1-3.56,3.64,4.58,4.58,0,0,1-2.7.55c-2-.25-2.34-2.05-2.19-3.64a10.6,10.6,0,0,1,.55-2.49A13.06,13.06,0,0,0,324.82,181.06Z"/><path class="cls-11" d="M321.26,184.7a4.58,4.58,0,0,1-2.7.55c-2-.25-2.34-2.05-2.19-3.64C318.51,181.53,320.79,182.67,321.26,184.7Z"/><path class="cls-1" d="M274.22,177.88c-1.73-2.28-13.29-14.27-13.9-20.41-.36-3.59,5.53-13.32,5.53-13.32l-5-3.36,4.58,1.24-6.77-11.29,8.36,7.46s1.51-9.14,2.3-11.36S285,112.7,285,112.7l-4.45,7.75s27-11,30.43-10.71c8.5.73,26.86,14.34,26.86,14.34l-19.9-3.17s19.11,7.93,23,11.46S347,153.12,347,153.12l-17.39-11.71,6.24,9.79s-15.27,2.28-19.72,2.12c-9.41-.34-31-8.18-31-8.18s.5,8.26.14,10.83c-.63,4.48-5,13.84-5,13.84L278,162.28Z"/><path class="cls-15" d="M279,173.53s-9.39-10-14-6.49,3.55,18.79,9.8,20.14a6.09,6.09,0,0,0,7.6-4.42Z"/><path class="cls-1" d="M267.45,171.36a.09.09,0,0,0,0,.17c4.4,1.08,7.15,4.61,9.26,8.39-1.46-1.36-3.26-2-5.11-.19-.1.09,0,.25.14.21a3.73,3.73,0,0,1,4.27.7,18.23,18.23,0,0,1,2.44,3c.25.34.89,0,.68-.36l0-.1C278.41,177.89,273.22,171.07,267.45,171.36Z"/><path class="cls-4" d="M296.18,316.73l-4,24H165.45s41.06-102.6,82.21-127.11c20.58-12.25,38.46-5.56,46.59,9.71,2.05,3.87,21.16,46.16,19.59,65C312.4,305,296.18,316.73,296.18,316.73Z"/><path class="cls-3" d="M293.63,332l-.59,3.44H167.62c.45-1,1-2.17,1.49-3.44Z"/><path class="cls-3" d="M294.9,324.34l-.56,3.44H171c.48-1.07,1-2.23,1.52-3.44Z"/><path class="cls-15" d="M274.51,241.07c13.37,19.47,70.29,81.55,92.7,79.53,35.14-3.16,72-20.63,92.43-29.63,6.49-2.86-23-64.94-34.88-58-15.29,8.93-46.88,21.92-56.07,23.36-6.27,1-47.85-22.67-76.88-38.91C267.6,203.85,257.57,216.41,274.51,241.07Z"/><path class="cls-15" d="M414.28,239.77s9.82-6.42,10.48-6.82c2.24-1.38,4.41-3.31,8.82-8.24,10.43-11.65,43.28-33.38,84.47-18,15.78,5.88,18.54,19.52,1.06,16.32-12.31-2.25-20.65-4.87-24.87-4.48,0,0,12.6,14.43,10,25.23-1.16,4.82-4.63,17.91-8.79,27.72a42.57,42.57,0,0,1-5.33-1.18A23.32,23.32,0,0,1,470.85,286l-16.65,7.34Z"/><path class="cls-15" d="M445.31,215.18c8.14-1,25.41-2.85,40.07.55,16.28,3.78,46.63,15.46,43.71,27.45C527,252,515,248.53,515,248.53s11.52,7.47,7.85,15c-3.34,6.85-12.44,3.64-12.44,3.64s6.21,5.73,1.72,11.71c-5.41,7.2-17.54-6-29.31-3.44C480.16,276,445.31,215.18,445.31,215.18Z"/><path class="cls-1" d="M478.52,232.27c7.8.31,25.35,5.55,36.36,15.93.25.23.21.55-.06.38a164.38,164.38,0,0,0-36.34-16.16C478.39,232.4,478.43,232.27,478.52,232.27Z"/><path class="cls-1" d="M475.17,248.82c6.71,1,24.56,7.17,35.36,18.07.24.24.17.55-.09.38A175.17,175.17,0,0,0,475.13,249C475,248.94,475.09,248.8,475.17,248.82Z"/><path class="cls-4" d="M351.93,249l-23.34,57.54s-37.46-38-56.09-64.25-8.16-39,19.79-27.36S351.93,249,351.93,249Z"/><path class="cls-1" d="M339.12,245.87c-.76,2-1.82,3.86-2.72,5.76s-1.75,3.86-2.6,5.81c-1.63,3.75-3.27,7.51-4.93,11.25-3.36,7.59-6.9,15.1-9.85,22.92,0,.11.14.23.2.12a197.23,197.23,0,0,0,11-22.2q2.51-5.71,4.86-11.52c.8-2,1.58-3.94,2.29-5.95s1.25-4.13,2.05-6.06C339.45,245.83,339.18,245.71,339.12,245.87Z"/><path d="M278.52,250.37c11.89,14.28,24.1,29.25,37,42.54-13.57-13-25.53-27.67-37-42.54Z"/><path d="M280,255.37a31.52,31.52,0,0,0,6.95,5.41,17.6,17.6,0,0,1-6.95-5.41Z"/></svg>