<svg id="Слой_1" data-name="Слой 1" xmlns="http://www.w3.org/2000/svg" viewBox="0 0 1800 1000"><defs><style>.cls-1{fill:#4a148c;}.cls-2{fill:#c36358;}.cls-3{fill:#ececec;}.cls-4{fill:#dcdcdc;}.cls-5{fill:#306;}.cls-6{fill:#a8a8a8;}.cls-7{fill:#ffc800;}.cls-8,.cls-9{opacity:0.1;}.cls-10{fill:#fff;}.cls-11{fill:#ff9abb;}.cls-12{fill:#e55f4e;}.cls-13{fill:#ff97b8;}</style></defs><rect class="cls-1" x="1535.89" y="352.26" width="105.73" height="79.06"/><polygon class="cls-1" points="1568.6 431.32 1608.92 431.32 1588.76 453.1 1568.6 431.32"/><path class="cls-2" d="M1609.29,397a64.1,64.1,0,0,1-20.53,17.81A64.13,64.13,0,0,1,1568.24,397c-7.22-9.57-6.87-24.54,3.47-27.78,11.43-3.58,17,13.63,17,13.63s5.7-17.32,17.06-13.63C1616.12,372.6,1616.51,387.46,1609.29,397Z"/><rect class="cls-1" x="1015.17" y="123.52" width="105.73" height="79.06"/><polygon class="cls-1" points="1047.87 202.58 1088.19 202.58 1068.03 224.37 1047.87 202.58"/><path class="cls-2" d="M1078.85,150.22A10.82,10.82,0,1,1,1068,139.4,10.82,10.82,0,0,1,1078.85,150.22Z"/><path class="cls-2" d="M1090.87,185.26h-45.68s1.25-10.88,3.47-14.13,8.12-6.91,19.37-6.91,17.14,3.66,19.36,6.91S1090.87,185.26,1090.87,185.26Z"/><polygon class="cls-3" points="155.24 632.72 580.96 632.72 589.81 458.04 146.39 458.04 155.24 632.72"/><path class="cls-4" d="M560.78,538h-178l-3.34-60.64H564.68Zm-175.94-2.15H558.77l3.62-56.35H381.74Z"/><path class="cls-4" d="M557.5,607.77H389.77L387.05,553H560.92Zm-165.68-2.15H555.48l3.15-50.45H389.31Z"/><path class="cls-4" d="M488.93,514.25H459l-1.88-14.62h33.68Zm-28-2.15H487l1.33-10.32H459.58Z"/><path class="cls-4" d="M488.93,587.71H459l-1.88-14.63h33.68Zm-28-2.15H487l1.33-10.33H459.58Z"/><path class="cls-4" d="M351.43,538h-178l-3.34-60.64H355.33Zm-175.94-2.15H349.42L353,479.5H172.38Z"/><path class="cls-4" d="M348.15,607.77H180.42L177.7,553H351.57Zm-165.68-2.15H346.13l3.15-50.45H180Z"/><path class="cls-4" d="M279.58,514.25H249.67l-1.88-14.62h33.68Zm-28-2.15h26.13L279,501.78H250.23Z"/><path class="cls-4" d="M279.58,587.71H249.67l-1.88-14.63h33.68Zm-28-2.15h26.13L279,575.23H250.23Z"/><polygon class="cls-3" points="193.42 632.72 190.75 651.75 185.37 689.99 174.86 689.99 174.86 632.72 193.42 632.72"/><polygon class="cls-4" points="193.42 632.72 190.75 651.75 174.86 651.75 174.86 632.72 193.42 632.72"/><polygon class="cls-3" points="542.78 632.72 545.45 651.75 550.83 689.99 561.35 689.99 561.35 632.72 542.78 632.72"/><polygon class="cls-4" points="542.78 632.72 545.45 651.75 561.35 651.75 561.35 632.72 542.78 632.72"/><rect class="cls-1" x="594.73" y="164.57" width="68.67" height="51.35"/><polygon class="cls-1" points="615.97 215.92 642.16 215.92 629.07 230.07 615.97 215.92"/><path class="cls-2" d="M642.4,193.65a41.48,41.48,0,0,1-13.33,11.57,41.59,41.59,0,0,1-13.33-11.57c-4.69-6.21-4.46-15.94,2.25-18,7.43-2.33,11.08,8.85,11.08,8.85s3.7-11.25,11.08-8.85C646.84,177.79,647.1,187.44,642.4,193.65Z"/><path class="cls-1" d="M1560.35,694.29s22.83-81.93,41.06-109.76,52.2-58.38,52.2-58.38S1652.82,652.46,1560.35,694.29Z"/><path class="cls-3" d="M1562,692.88c7.82-12.71,14.46-26.12,20.8-39.69,2.81-14.54,6.23-29.18,11.34-43.08a.21.21,0,0,1,.4.14c-3,12.94-6.55,25.77-9.75,38.68,9.22-19.94,18-40.13,29-59,2.21-9.14,6.41-17.93,10.58-26.22.12-.24.52-.11.4.14a167,167,0,0,0-7.12,19.67,197.26,197.26,0,0,1,17.34-24c.4-.47,1.2,0,.81.56-14.68,18.72-24.8,40-34.45,61.6a328.1,328.1,0,0,0,28.64-35.8.12.12,0,0,1,.2.14c-9,14.33-19.4,27.19-30.67,39.76-7,15.8-13.93,31.67-22.31,46.7,16.74-14.14,29.61-32.45,42.36-50.11a.38.38,0,0,1,.62.43c-12.74,19.38-25.94,37.63-44.28,52A201.62,201.62,0,0,1,1563.6,694,1,1,0,0,1,1562,692.88Z"/><path class="cls-1" d="M1553.28,701.66s41-75.54,29.11-148.78-24.68-99.32-24.68-99.32S1493.21,567.47,1553.28,701.66Z"/><path class="cls-3" d="M1536.44,582.9c3.27,21.15,9,41,15.83,61,.12-26.88.63-53.76,1.35-80.63a207.31,207.31,0,0,1-7.74-50.06c0-.5.72-.47.76,0a285.42,285.42,0,0,0,7.18,43.08q.95-33.27,2.17-66.51a.29.29,0,0,1,.58,0c0,34.63,0,69.27-.23,103.91,5.29-13.34,8.61-27.07,11.82-41.15a.12.12,0,0,1,.24,0c-1.23,16.18-6.15,31.82-12.11,46.83-.16,22.14-.4,44.28-.89,66.41,6.94-23.53,14.35-46.33,16.36-71.2a.26.26,0,0,1,.52,0c-.54,27.43-7.61,55.27-16.66,81.06a1.45,1.45,0,0,1-.46.65q-.3,12.15-.7,24.28a.91.91,0,0,1-1.81,0q-.48-24.83-.4-49.66c-9.22-21.27-14.12-45-16.18-68C1536.06,582.74,1536.4,582.7,1536.44,582.9Z"/><path class="cls-3" d="M1539.25,571.22a140.08,140.08,0,0,1,2.86,20c0,.22-.33.25-.39,0a140.65,140.65,0,0,1-3.37-19.9C1538.29,570.81,1539.15,570.72,1539.25,571.22Z"/><path class="cls-3" d="M1563.24,516c0-.23.38-.16.39.06a51.33,51.33,0,0,1-2.06,13.76c-.1.37-.63.2-.56-.16C1561.91,525.12,1562.46,520.55,1563.24,516Z"/><path class="cls-1" d="M1538.32,707.45s1.67-78.86-21-118.06-60.15-59.16-60.15-59.16S1472.35,669.23,1538.32,707.45Z"/><path class="cls-3" d="M1497.09,640c9.51,13.69,19,26.89,30.61,38.8q-6.77-24.18-15.66-47.56c-12.68-11.12-25.26-22.64-33-37.85-.12-.25.23-.46.37-.22,8.37,13.47,19.56,24.26,31.33,34.63a612.37,612.37,0,0,0-31.49-68.58.5.5,0,0,1,.86-.5,373.91,373.91,0,0,1,19.75,36c-2.12-8.43-3.82-17.05-6-25.42-.06-.23.27-.31.36-.1,4,10.54,8,22.19,9.29,33.45a401.59,401.59,0,0,1,19.91,54c-.58-11.82-1.32-23.59-2.54-35.38,0-.22.35-.27.39-.05a191.19,191.19,0,0,1,3.43,39.72q4.89,17.63,8.21,35.62c0,.32-.42.47-.5.14-1.23-5-2.56-10-3.92-15-.09,0-.18,0-.26-.1-12.14-12.16-23.66-26-31.23-41.51A.07.07,0,0,1,1497.09,640Z"/><path class="cls-3" d="M1470.88,575.84c2.52,2.73,4.83,5.59,7.27,8.39,2.15,2.48,4.78,4.82,6.51,7.61a.13.13,0,0,1-.18.18c-2.92-1.86-5.25-4.85-7.52-7.43a62.81,62.81,0,0,1-6.44-8.47A.23.23,0,0,1,1470.88,575.84Z"/><path class="cls-1" d="M1605.52,697.82l-2.85,37.35-8.59,112.92h-74.94l-8.6-112.92-2.85-37.35h97.83Z"/><path class="cls-1" d="M1605.52,697.82l-2.85,37.35h-92.13l-2.85-37.35h97.83Z"/><rect class="cls-1" x="1501.03" y="679.49" width="111.14" height="28.64" transform="translate(3113.21 1387.62) rotate(180)"/><path class="cls-2" d="M1508.65,921.53c-4.72,1.54-143.17.29-148.26-3-2-1.23,8.25-132.48,8.25-132.48l88.09.58-9.17,87.82s51.37,23.55,56.6,27.78S1513.37,920,1508.65,921.53Z"/><path class="cls-5" d="M1508.65,921.53c-4.71,1.54-143.17.28-148.26-3-.62-.37-1-13.68,1-31,25.15,3.89,114.91,16.52,121.83,12.33,4.83-2.92.47-7.34-3.56-10.29,11.51,5.55,22.25,10.9,24.48,12.72C1509.34,906.43,1513.37,920,1508.65,921.53Z"/><path class="cls-1" d="M1454.43,853.32h-97.06s18.28-206.66,17.51-210.62c-1-5.07-6.7-28-14.32-58-2.4-9.38-5-19.44-7.65-29.87-7.24-28.21-15.22-59-22.17-85.85-10.43-40.18-18.57-71.39-18.57-71.39h82.26s9.58,30.39,21.66,69.93c19.69,64.26,46,152.7,48.6,174.2C1468.89,676.45,1454.43,853.32,1454.43,853.32Z"/><path class="cls-5" d="M1450.13,836.76c-14.82-.31-10.56-.43-25.39-.57-7.25-.07-54.93-.49-61.7.63a.16.16,0,0,0,0,.31c6.78,1.12,54.45.7,61.7.63,14.83-.14,10.57-.26,25.39-.57A.22.22,0,0,0,1450.13,836.76Z"/><path class="cls-5" d="M1393.15,628.84c-3.19-14-7.94-27.78-12.08-41.55q-12.61-42-25.39-83.9-6.37-21-12.8-41.92-3.26-10.58-6.55-21.14c-2.16-6.89-4.62-13.72-6.57-20.67-.79-2.83-1.22-1.27-.21,2.32,2,7.23,4.07,14.48,6.18,21.7q6.27,21.45,12.62,42.88,12.63,42.66,25.47,85.25,6.4,21.36,12.84,42.71a173.16,173.16,0,0,1,5.25,20.66,95.57,95.57,0,0,1,.86,22.1c-.93,14.85-2.65,29.68-4,44.5s-2.74,29.69-4.12,44.53c-2.73,29.55-4.2,39.06-6.86,68.62-.33,3.74-.66,7.49-1,11.24-.1,1.25,1.8,1.16,1.93,0,3.2-29.22,4.38-38.49,7.12-67.76Q1390,714.7,1394,671c.69-7.31,1.46-14.64,1.47-22A91.52,91.52,0,0,0,1393.15,628.84Z"/><path class="cls-5" d="M1385.09,397.6c-5.71,44.18-16.6,127-24.53,187.11-18.56-72.82-48.39-187.11-48.39-187.11Z"/><path class="cls-2" d="M1405.29,923.15c-4.72,1.54-143.17.28-148.26-3-2-1.22,2.17-132.47,2.17-132.47l88.1.57-3.1,87.83s51.37,23.55,56.6,27.78S1410,921.63,1405.29,923.15Z"/><path class="cls-5" d="M1405.29,923.15c-4.71,1.53-143.17.28-148.26-3-.62-.38-.63-13.34-.37-31,25.15,3.89,116.3,16.53,123.22,12.33,4.83-2.91.47-7.33-3.55-10.29,11.51,5.56,22.25,10.91,24.47,12.73C1406,908.05,1410,921.63,1405.29,923.15Z"/><path class="cls-1" d="M1391.77,397.6s-1.9,39.35-10.91,70.52c-.72,2.58-1.5,5.12-2.35,7.55,0,0-9.38,3.4-23.71,12.18,0,0-.94,31.67-1.89,67-1.05,39.47-2.15,83.51-1.92,92.85.82,34.94-3.43,205.24-3.43,205.24l-97,.39s16.6-192.73,16.48-205.53c-.18-20.57,4.81-168.86,3.92-172.17-11.81-43.61,14.16-78,14.16-78Z"/><path class="cls-5" d="M1344.24,835.66c-14.83-.24-10.57-.38-25.4-.46-7.25,0-54.93-.25-61.7.9-.15,0-.15.28,0,.3,6.78,1.1,54.46.48,61.71.38,14.83-.21,10.57-.31,25.39-.68A.22.22,0,0,0,1344.24,835.66Z"/><path class="cls-5" d="M1382.55,473.33c-9.67,3.83-18.92,9.07-27.75,14.53a.32.32,0,0,0,.3.57c9.36-4.55,18.91-8.93,28-14A.62.62,0,0,0,1382.55,473.33Z"/><path class="cls-5" d="M1367.94,460.13c.3-4.44.63-8.88,1-13.31.89-10.11,2-20.26,3.72-30.25.14-.79,1.24-.49,1.17.26-.68,7.85-1.58,15.69-2.31,23.54s-1.68,15.66-1.82,23.47c0,2.36.12,6.35,3,7,3.89.88,5.72-4.23,6.65-7a130.56,130.56,0,0,0,4.88-21.4c1.28-8.24,2-16.59,2.74-24.88,0-.3.53-.25.53,0,0,16.48-.19,33.69-6.34,49.24-1.2,3-3.3,6.11-6.81,6.52h-.17a1,1,0,0,1,0,.29c-.07.46-.2.92-.28,1.38a11.7,11.7,0,0,1-.23,1.15c-.16.8-.28,1.61-.48,2.4a.6.6,0,0,1-1.19-.14.51.51,0,0,1-.35-.48,13.19,13.19,0,0,1,1.07-4.66,5.83,5.83,0,0,1-4.25-3.58C1367.26,466.72,1367.73,463.26,1367.94,460.13Z"/><path class="cls-5" d="M1285.94,481.34c-.72-6.7-2.71-13.11-4.14-19.67-3.22-14.81,0-29.64,3.44-44.11a.3.3,0,0,0-.59-.15c-3.48,12.33-7,24.83-5.67,37.78.65,6.15,2.41,12.09,3.73,18.11a84.42,84.42,0,0,1,1.69,19.81c-.28,13.17-1.15,26.34-1.75,39.5q-.93,20.31-1.83,40.62-3.6,80.43-7,160.87c-1.23,30-2.41,60.1-3.28,90.17,0,.28.41.26.43,0,3.19-53.6,5.56-107.25,8-160.9q3.63-80,7-160C1286.35,496,1286.72,488.63,1285.94,481.34Z"/><path class="cls-5" d="M1328.24,418.59c-1,4.6-1.75,9.25-3,13.8-1.12,4-3,8-6.6,10.65a27.93,27.93,0,0,1-11.62,4.82,51,51,0,0,1-16.89.26c-.25,0-.35.3-.1.35,2.94.62,5.81,1.63,8.8,2a39.3,39.3,0,0,0,8.73.46,24.39,24.39,0,0,0,13.38-5c3.82-3.12,5.8-7.51,6.73-12a76.77,76.77,0,0,0,1.3-15.27C1329,418.29,1328.32,418.22,1328.24,418.59Z"/><path class="cls-5" d="M1328.94,186.44c-19,16.29-13.71,40-21.64,52.92-4.86,7.87-20.66,16.19-23.8,25.27-5.16,14.91,7.49,20.27,4.66,28.38-4,11.48-19.38,10.59-22.15,29.37s17.9,38.78,67,44.19,76-12.55,77.77-28.49-14.56-21.24-15.67-33.15c-.71-7.6,9.37-12.9,9.88-26.9s-13.14-18.55-15.09-30.44,4.34-40.78-13.13-55.53S1338.31,178.41,1328.94,186.44Z"/><path class="cls-5" d="M1331.14,186.87a40.31,40.31,0,0,0-12.61,14.55,87.92,87.92,0,0,0-7,19.28c-1,3.92-1.94,7.94-3.81,11.55a29.71,29.71,0,0,1-6.59,8.13c-5.31,4.8-11.64,8.44-16.41,13.84-4.51,5.11-8,11.94-6.22,18.9,1,3.79,3.47,6.88,5,10.41,1.47,3.35,2.07,7.51-.81,10.29-2.45,2.38-6,3.47-8.79,5.41a31.08,31.08,0,0,0-7.16,6.95,24,24,0,0,0-4.52,18.86c2.89,15.27,17.21,23.95,30.43,29.41q2.76,1.14,5.55,2.24c.28.12.53-.29.23-.43-13.26-5.93-28.66-12.9-33.76-27.73a22.43,22.43,0,0,1,2.29-19.7,28.25,28.25,0,0,1,7-7.37c2.67-2,5.75-3.18,8.46-5a9,9,0,0,0,4.17-8.07c-.16-3.58-1.91-6.71-3.65-9.75-1.83-3.22-3.39-6.47-3.13-10.28a19.77,19.77,0,0,1,3.93-9.8c4.13-5.85,10.24-9.69,15.72-14.11s9.93-9.6,11.94-16.52c1-3.5,1.65-7.1,2.53-10.63a93.31,93.31,0,0,1,2.92-9.7c2.31-6.27,5.59-12.35,10.38-17.09a25.81,25.81,0,0,1,4-3.33C1331.46,187,1331.3,186.75,1331.14,186.87Z"/><path class="cls-5" d="M1412.92,326.39a18.4,18.4,0,0,0-3.39-7.14c-1.71-2.16-3.77-4-5.66-6s-3.49-4-4-6.63c-.63-3.13.68-6.14,2.16-8.84a66.93,66.93,0,0,0,4.39-8.55,30.66,30.66,0,0,0-3.07-27.39c-1.67-2.74-3.56-5.34-5.25-8.07a39.29,39.29,0,0,1-4.35-9.53c-2.21-7.39-2.69-15.18-4.49-22.67a116.9,116.9,0,0,0-8-22.25c-.08-.17-.34,0-.26.17a102.41,102.41,0,0,1,7,20.1c1.56,6.56,2.16,13.25,3.32,19.88a50,50,0,0,0,2.48,9.56,51.52,51.52,0,0,0,4.26,8.21c3.32,5.4,6.74,10.74,7.66,17.15a30,30,0,0,1-3.17,18.36c-2.58,4.88-6.19,10.25-3.93,16,1.91,4.83,6.52,7.73,9.58,11.73a19.41,19.41,0,0,1,3.32,15.51c-2.64,13.74-16.41,20.55-29.3,21.23a.32.32,0,0,0,0,.63c11.2-.13,23.39-5.06,28.65-15.55A23.73,23.73,0,0,0,1412.92,326.39Z"/><path class="cls-6" d="M1467,214.91l-16,61.58c-.67,1.81.22,3.29,2,3.3l31.84.25a5.19,5.19,0,0,0,4.45-3.25l16-61.59c.68-1.81-.22-3.28-2-3.29l-31.84-.25A5.15,5.15,0,0,0,1467,214.91Z"/><path class="cls-4" d="M1470.73,214.91l-16,61.58c-.67,1.81.22,3.28,2,3.3l31.84.24a5.17,5.17,0,0,0,4.45-3.25l16-61.58c.68-1.81-.22-3.28-2-3.3l-31.84-.24A5.13,5.13,0,0,0,1470.73,214.91Z"/><path class="cls-1" d="M1479.44,217.79a2.71,2.71,0,1,1-2.63-2.78A2.71,2.71,0,0,1,1479.44,217.79Z"/><path class="cls-2" d="M1363.6,307.56c17.39,38.66,57,89.15,73.75,89.65,8,.23,22.14,2.37,32.74-6.6,23.13-19.59,42.82-57.46,47.07-79.26,1.51-7.75-36-25.22-41.73-19-13.32,14.61-29,43.45-31.32,43.24-8.55-.79-41.59-29.24-64.65-49.27C1351.47,262,1356.67,292.15,1363.6,307.56Z"/><path class="cls-2" d="M1518.76,271.19c-3.74-15.85-7.14-19.35-3.19-34.4,2.59-9.88-2.61-15.78-9.77-7.93-11.72,12.83-11.19,34.29-8.86,41.68Z"/><path class="cls-2" d="M1515.2,318.09s7.41-21.88,5.09-39.17c-1.6-11.95-8-37.57-41.15-51.58-7.86-3.32-21.43-2.48-10.55,7.61,7.72,7.17,14.79,9.39,18.52,14.37,0,0-17.12,3.12-20.15,11.13a158.27,158.27,0,0,0-6.4,21.5,33.22,33.22,0,0,0,3.91,1.56s-2.11,7.74,3.37,18.66Z"/><path class="cls-2" d="M1516.94,267.76c-4.75-4.17-15-12.83-25.8-17-12-4.64-36.44-10.35-39.78-1.43-2.44,6.53,6.69,9.53,6.69,9.53s-10.59-.23-11.51,6.16c-.84,5.82,6.37,7.71,6.37,7.71s-6.45,1-6.18,6.73c.33,6.93,13.79,3.77,20.19,10.5C1468.36,291.46,1516.94,267.76,1516.94,267.76Z"/><path class="cls-5" d="M1488.35,264.27c-5.11-3.18-18.58-7.44-30.1-5.59-.26,0-.37.26-.12.27a126.38,126.38,0,0,1,30.18,5.44C1488.38,264.41,1488.41,264.31,1488.35,264.27Z"/><path class="cls-5" d="M1483.32,276.28c-4.7-2.3-18.78-6.07-30.39-3.8-.26.06-.35.28-.1.28a136.24,136.24,0,0,1,30.45,3.63A.06.06,0,0,0,1483.32,276.28Z"/><path class="cls-7" d="M1463.46,306.29,1510,354.52s-35.37,38.75-47.39,42.32-21.35,2.35-30,.39-53.3-48.17-69.32-87.09-1.32-41.67,23.54-19,55.31,44.74,56.61,42.93S1463.46,306.29,1463.46,306.29Z"/><path class="cls-8" d="M1463.46,306.29,1510,354.52s-35.37,38.75-47.39,42.32-21.35,2.35-30,.39-53.3-48.17-69.32-87.09-1.32-41.67,23.54-19,55.31,44.74,56.61,42.93S1463.46,306.29,1463.46,306.29Z"/><path class="cls-5" d="M1456.29,320.6c1.88,1.51,17.4,17.19,20.87,20.72s16.69,17.93,20,21.59c.14.15-.08.38-.23.24-1.8-1.76-3.73-3.37-5.54-5.12s-12.16-12.26-15.51-15.77-18.45-19.49-19.9-21.43C1455.89,320.66,1456.14,320.48,1456.29,320.6Z"/><path class="cls-8" d="M1479.08,385.34c-6.57,5.77-12.68,10.37-16.46,11.49-12,3.58-21.35,2.37-30,.41s-53.31-48.18-69.32-87.1c-7.93-19.29-8.32-29.69-3.69-32.52Z"/><path class="cls-7" d="M1397.34,369.73l12.72,53.87s-114.38-1.73-142.7-4.57c0,0,27.07-104,58.57-136.21,15.76-16.11,33.65-14.34,44.72-2.41,2.8,3,31.31,39.74,34.43,57.25C1407.79,353.12,1397.34,369.73,1397.34,369.73Z"/><g class="cls-9"><path d="M1363.06,274.41h-25.92c.66-.35,1.32-.67,2-.94h22.05A17.49,17.49,0,0,1,1363.06,274.41Z"/><path d="M1370.91,280.68h-42.74c.35-.32.69-.64,1-.94H1370c.2.21.43.43.64.66C1370.72,280.47,1370.79,280.56,1370.91,280.68Z"/><path d="M1375.88,287h-53.66c.25-.32.53-.62.78-.94h52.17C1375.4,286.33,1375.65,286.65,1375.88,287Z"/><path d="M1380.55,293.24h-63.07l.66-.93h61.7C1380.07,292.6,1380.3,292.92,1380.55,293.24Z"/><path d="M1385,299.51h-71.6c.2-.32.38-.64.59-.93h70.34C1384.54,298.89,1384.77,299.19,1385,299.51Z"/><path d="M1389.24,305.8H1309.7c.16-.32.35-.61.53-.93h78.39C1388.81,305.19,1389,305.51,1389.24,305.8Z"/><path d="M1393.21,312.07h-86.9c.18-.31.34-.63.5-.93h85.83Z"/><path d="M1396.9,318.35h-93.72l.44-.92h92.78A8.19,8.19,0,0,1,1396.9,318.35Z"/><path d="M1400.28,324.64H1300.22l.41-.94h99.17C1400,324,1400.12,324.34,1400.28,324.64Z"/><path d="M1403.06,330.91H1297.41c.14-.32.28-.62.41-.94h104.87A8.68,8.68,0,0,1,1403.06,330.91Z"/><path d="M1405,337.2H1294.75c.11-.32.25-.64.38-.93h109.66A9.35,9.35,0,0,1,1405,337.2Z"/><path d="M1405.52,342.54v.93H1292.19c.12-.32.25-.61.37-.93Z"/><path d="M1405.06,348.81c0,.32-.09.62-.16.93H1289.73c.11-.31.25-.63.34-.93Z"/><path d="M1403.67,355.1c-.09.32-.18.64-.27.94h-116c.11-.3.23-.62.34-.94Z"/><path d="M1401.48,361.37c-.13.32-.27.64-.38.94h-116c.11-.32.2-.62.34-.94Z"/><path d="M1398.52,367.64c-.18.37-.34.67-.5.94H1282.87l.32-.94Z"/><path d="M1398.54,374.87H1280.72c.12-.32.21-.64.3-.93h117.29Z"/><path d="M1400,381.14H1278.65c.09-.32.2-.61.29-.93H1399.8Z"/><path d="M1401.51,387.41H1276.64c.09-.32.18-.61.3-.93h124.34Z"/><path d="M1403,393.71H1274.68c.07-.3.18-.62.27-.94h127.83Z"/><path d="M1404.47,400H1272.76c.1-.3.19-.62.3-.94h131.21Z"/><path d="M1406,406.25h-135c.09-.3.18-.62.27-.94h134.56Z"/><path d="M1407.44,412.54H1269.12c.09-.29.18-.61.27-.93h137.84Z"/><path d="M1408.92,418.81H1267.41c.06-.18.13-.5.25-.93h141Z"/></g><path class="cls-5" d="M1405.73,341.27a51.77,51.77,0,0,0-5.63-18.79s0,0,0,0a15,15,0,0,0-.71-1.83c-.24-.63-.47-1.25-.72-1.87q-1.5-3.67-3.1-7.3c0-.08-.16-.05-.13,0q1,2.82,2.13,5.62c.29.74.58,1.47.88,2.21q-.79-1.44-1.62-2.85a133.61,133.61,0,0,0-8.72-12.76.11.11,0,0,0-.18.11c4.3,7.55,9,14.92,12.18,23.06a50.65,50.65,0,0,1,3.26,25.22,48.08,48.08,0,0,1-4.34,14.15.18.18,0,0,0,.31.17A40.76,40.76,0,0,0,1405.73,341.27Z"/><path class="cls-2" d="M1318.52,294.69c-42.33-20.66-84.71-60.93-89.62-72.48-5.4-12.71-11.77-59.9-8.09-89.59.92-7.42,58.46,8.45,57.14,16.34-2.54,15.19-1.65,54.64,1.71,61.62,3.11,6.45,33.95,38,52.68,59.94C1348,288.88,1339.71,305,1318.52,294.69Z"/><path class="cls-2" d="M1240.27,64.65c6.16-.74,8.8,5.1,8.8,5.1a13.26,13.26,0,0,1,8.51-2.91c5.43.35,7.26,9,7.26,9a16.28,16.28,0,0,1,9.46-1.64c5.17.85,8.27,9.34,8.27,9.34a14.3,14.3,0,0,1,9.23,3.79c6.48,6.5,3.31,20.16,1.38,28.86s-15.53,31.57-17.69,36.19l-55.94-11.88s-2.46-41.47,1.25-51.38C1223.93,80.8,1233.37,65.49,1240.27,64.65Z"/><path class="cls-5" d="M1248.09,70c-5.46,8.07-8.23,17.32-11.52,26.4a.16.16,0,0,0,.31.11c3.17-9.07,8.1-17.38,11.63-26.3A.24.24,0,0,0,1248.09,70Z"/><path class="cls-5" d="M1264.07,75.88a25.81,25.81,0,0,0-2.38,6.21q-1,3.38-2,6.78c-1.24,4.55-2.37,9.13-3.36,13.74,0,.2.25.32.31.11,1.24-4.53,2.55-9,4-13.52.71-2.24,1.45-4.48,2.2-6.71a30.44,30.44,0,0,0,1.82-6.39A.34.34,0,0,0,1264.07,75.88Z"/><path class="cls-5" d="M1282.51,83.75c-1.09,1.58-1.39,3.86-1.85,5.7q-.78,3.12-1.59,6.24c-1.09,4.16-2.17,8.32-3.4,12.43-.07.21.25.32.31.11,1.27-4.17,2.6-8.33,3.83-12.52.61-2,1.2-4.11,1.79-6.18.49-1.75,1.31-3.89,1.12-5.73A.12.12,0,0,0,1282.51,83.75Z"/><path class="cls-7" d="M1337.83,273.36c-12.95-18.61-55.85-59.5-57-64.26s-.18-57.81-.18-57.81l-68.18-19.46s5.3,70.45,16.54,92.38c8.64,16.86,58.88,59,83.28,69.44S1354.4,297.16,1337.83,273.36Z"/><path class="cls-8" d="M1337.83,273.36c-12.95-18.61-55.85-59.5-57-64.26s-.18-57.81-.18-57.81l-68.18-19.46s5.3,70.45,16.54,92.38c8.64,16.86,58.88,59,83.28,69.44S1354.4,297.16,1337.83,273.36Z"/><path class="cls-5" d="M1217.3,147A555.53,555.53,0,0,0,1275,164.36a.16.16,0,0,0,.08-.32,555.45,555.45,0,0,0-57.69-17.51A.24.24,0,0,0,1217.3,147Z"/><path class="cls-10" d="M1356.45,270.5c12.71,5.51,25.2,27.66,22.66,30.55s-12.25-5.09-12.25-5.09-.8,9.15-6.51,9.4-14.69-11.79-16.73-20.52C1340.57,271.79,1345.63,265.81,1356.45,270.5Z"/><path class="cls-2" d="M1344.6,280.85c.94,2.11,14.2,14.46,24.2,12.07,3.26-.78-.21-18.75-.21-18.75l.05-1.39.64-19.39-24.51-9.89-3.51-1.26s.17,5.32.46,11.94c0,.3,0,.61,0,.94s0,.73,0,1.08c0,1,.06,2,.11,3,0,.77.08,1.51.15,2.31s.11,1.59.16,2.4C1342.88,271.85,1344.22,280,1344.6,280.85Z"/><path class="cls-5" d="M1341.72,254.18a38.88,38.88,0,0,0,26.92,18.6l.64-19.39-24.51-9.89-3.51-1.26S1341.43,247.56,1341.72,254.18Z"/><path class="cls-2" d="M1391.68,222.58c5.58,33.59-13.91,40.73-21.16,41.92-6.57,1.09-29.11,3.95-38.13-28.89s4.82-46.05,19.74-49.33S1386.09,189,1391.68,222.58Z"/><path class="cls-5" d="M1335.35,235.67c8.32-.85,9.05-26.61,9.1-29.77.07,2,.48,12.55,1.31,12.92a8,8,0,0,0,2.58-.66h0a25.47,25.47,0,0,1,.06-3.79c0-.59.3,1.25.77,3.51.46-.16,1-.35,1.51-.53a30.67,30.67,0,0,1,.26-8.06c.18-1,.74,3.45,2,7.3,5.65-1.93,13.81-4.51,21.56-5.28,2.07-.22,3.86-.31,5.46-.34-.2-3.11-.77-6.4-.5-5.7a30.24,30.24,0,0,1,1.68,5.69c.86,0,1.66,0,2.38,0-.07-4.41-2.63-11.29-1.85-10.26a31.09,31.09,0,0,1,4.95,10.54c3,.38,3.91.92,3.94.13,0-1.41-2.47-13.6-12.65-22-11.05-9.12-32-10.22-42.7,5.66,0,0-9.22,6.92-10.07,17.16S1330.55,236.15,1335.35,235.67Z"/><path class="cls-2" d="M1338.15,237.31s-8.24-10-12.84-7,2.18,17.94,8,19.6a5.76,5.76,0,0,0,7.45-3.69Z"/><path class="cls-5" d="M1327.36,234.54a.08.08,0,0,0,0,.15c4.09,1.3,6.46,4.8,8.22,8.5-1.3-1.38-3-2.05-4.81-.5-.1.08,0,.24.12.2a3.55,3.55,0,0,1,4,.93,17,17,0,0,1,2.11,3c.21.34.84.1.67-.3l0-.09C1337.3,241.38,1332.82,234.62,1327.36,234.54Z"/><path class="cls-5" d="M1386,216.84a23.37,23.37,0,0,1-2.36-.28,3.87,3.87,0,0,1-2.34-.75,1.22,1.22,0,0,1-.13-1.49,3,3,0,0,1,2.91-1,4.46,4.46,0,0,1,2.92,1.33A1.3,1.3,0,0,1,1386,216.84Z"/><path class="cls-5" d="M1364,218.93c.79-.17,1.5-.45,2.27-.69a3.87,3.87,0,0,0,2.18-1.15,1.21,1.21,0,0,0-.13-1.48,3,3,0,0,0-3-.45,4.49,4.49,0,0,0-2.65,1.81A1.31,1.31,0,0,0,1364,218.93Z"/><path class="cls-5" d="M1369.33,227.16c0-.08-.17.13-.16.23.34,2.31.33,5-1.69,6-.06,0,0,.14,0,.12C1370,232.9,1370,229.3,1369.33,227.16Z"/><path class="cls-5" d="M1367,225c-3.77.13-3.24,7.67.26,7.54S1370.15,224.85,1367,225Z"/><path class="cls-5" d="M1365.54,225.47c-.63.47-1.22,1.27-2,1.4s-1.66-.58-2.31-1.29c-.07-.08-.13,0-.13.09.09,1.45.75,2.89,2.31,3s2.35-1.25,2.6-2.73C1366.05,225.66,1365.79,225.28,1365.54,225.47Z"/><path class="cls-5" d="M1382.71,225.2c0-.09.19.1.19.19.08,2.34.56,5,2.72,5.65.06,0,.07.14,0,.13C1383,231,1382.41,227.43,1382.71,225.2Z"/><path class="cls-5" d="M1384.64,222.63c3.74-.53,4.51,7,1,7.47S1381.51,223.07,1384.64,222.63Z"/><path class="cls-5" d="M1386.26,223c.63.34,1.29,1,2,1s1.35-.9,1.79-1.73c0-.09.11,0,.13.07.18,1.43-.14,3-1.49,3.39s-2.28-.76-2.77-2.15C1385.84,223.25,1386,222.83,1386.26,223Z"/><path class="cls-5" d="M1369.58,245.6c.57.53,1.15,1.27,2,1.32a6.14,6.14,0,0,0,2.5-.65.08.08,0,0,1,.1.12,3.15,3.15,0,0,1-2.93,1.34,2.49,2.49,0,0,1-1.9-2C1369.31,245.58,1369.49,245.52,1369.58,245.6Z"/><path class="cls-5" d="M1379.65,235.89s.77,3.46.91,5.11a8.9,8.9,0,0,1-8.86-1.94c-.15-.14.07-.34.23-.25a11.89,11.89,0,0,0,7.33,1.45c.08-.47-1.53-5.87-1.27-5.92a14.63,14.63,0,0,1,3.82.54c-1.41-7.25-4-14.21-5.26-21.45a.23.23,0,0,1,.43-.14c3.19,7.11,5,15.41,6.64,22.86C1383.83,237.08,1380.33,236.12,1379.65,235.89Z"/><path class="cls-5" d="M1378.3,241a8.58,8.58,0,0,1-3.25,2.87,3.79,3.79,0,0,1-2.32.3c-1.72-.33-1.86-1.88-1.64-3.22a9,9,0,0,1,.63-2.08A11,11,0,0,0,1378.3,241Z"/><path class="cls-11" d="M1375.05,243.88a3.79,3.79,0,0,1-2.32.3c-1.72-.33-1.86-1.88-1.64-3.22C1372.91,241,1374.78,242.14,1375.05,243.88Z"/><path class="cls-12" d="M252.67,784.58c1.7-4.82,90-116.55,95.89-118.61.68-.28,38.52,27.85,38.52,27.85,1.54,2.15,74.86-11.76,74.86-11.76l-1.11,88.09-132.92-5.6S309.73,774.74,293.12,783c0,0,0,0-.05,0-10.23,5.12-19.27,9.42-21.84,10C264.55,794.6,250.93,789.37,252.67,784.58Z"/><path class="cls-10" d="M271.23,793c2.58-.61,11.61-4.91,21.83-10,0,0,0,0,.06,0,16.6-8.26,34.79-18.46,34.79-18.46l29.58,1.25L405.38,692c-10.21,1.59-17.81,2.52-18.31,1.83,0,0-37.82-28.13-38.5-27.85-5.92,2.06-94.19,113.79-95.9,118.6S264.54,794.61,271.23,793Z"/><path class="cls-7" d="M251.88,784.71c1.79-4.93,90.46-116.59,96.53-118.71,2.3-.82,20.84,11.18,38.67,27.82l-57.25,71.92s-52,26.17-58.89,27.78S250.09,789.65,251.88,784.71Z"/><path class="cls-5" d="M257.62,786.66c15.32-18.35,75.39-93.82,89.14-113.12.11-.16,0-.24-.12-.1-15.58,17.86-75,93.81-89.33,113C257,786.82,257.3,787.05,257.62,786.66Z"/><path class="cls-5" d="M280.66,789.53A19.24,19.24,0,0,0,285,774.7c-.69-4.34-2.69-9.17-6.67-12.12-.12-.08-.28.12-.18.23,6.47,6.88,7.62,18.65,2.29,26.53A.15.15,0,0,0,280.66,789.53Z"/><path class="cls-5" d="M323.29,770.12c6-7.41,10.31-18.19,7.88-27.71-.1-.37-.62-.23-.68.08a132.59,132.59,0,0,1-8.22,27A.6.6,0,0,0,323.29,770.12Z"/><path class="cls-5" d="M316.44,774.12c6.06-7.41,10.31-18.2,7.88-27.72-.1-.37-.62-.23-.68.08a132.59,132.59,0,0,1-8.22,27A.6.6,0,0,0,316.44,774.12Z"/><path class="cls-5" d="M309.6,778.11c6-7.41,10.3-18.2,7.87-27.72-.09-.37-.62-.23-.68.09a131.73,131.73,0,0,1-8.22,27A.6.6,0,0,0,309.6,778.11Z"/><path class="cls-5" d="M302.75,782.1c6.05-7.41,10.3-18.19,7.87-27.71-.09-.37-.61-.23-.67.08a132.19,132.19,0,0,1-8.23,27A.6.6,0,0,0,302.75,782.1Z"/><path class="cls-5" d="M360.75,692.42c6.65-8.42-6.43-18.77-13.09-10.33S354.09,700.86,360.75,692.42Z"/><path class="cls-5" d="M336.85,794.09c6.16-1.29,6.88-8.51,5.47-13.44a50.23,50.23,0,0,0-13.75-22,.25.25,0,0,0-.4.06,1.17,1.17,0,0,0-1.68.87c-.54,8.26-2.15,17-.14,25.22C327.52,789.55,331,795.32,336.85,794.09Zm-8.62-21.83c.17-4.07.54-8.11.56-12.19a150.07,150.07,0,0,1,7.74,13,53.47,53.47,0,0,1,2.88,6.75c1.19,3.59,1.61,15.92-7.13,10.19C327.46,786.89,328,777.11,328.23,772.26Z"/><path class="cls-5" d="M340.57,737.81c-6.18,5.73-9.67,13.93-13.76,21.13a1.17,1.17,0,0,0,.92,1.65.25.25,0,0,0,.3.27,50.24,50.24,0,0,0,23.6-10.81c3.89-3.34,7.27-9.76,2.84-14.23C350.29,731.59,344.18,734.47,340.57,737.81Zm7.86-1.13c10.45,0,3.31,10.08.34,12.43a53.12,53.12,0,0,1-6.12,4A150.46,150.46,0,0,1,329,759.77c2.23-3.41,4.15-7,6.25-10.47C337.75,745.14,342.66,736.66,348.43,736.68Z"/><path class="cls-1" d="M466.26,661.12l60-4.73s86.57-25.1,136.62-12c57.36,15.06,65.45,82.09,7.13,109-57.7,26.57-311.73,16.78-311.73,16.78l54.46-80.65s83.63-19.65,156.85-15.66L465.89,685.79Z"/><path class="cls-5" d="M466.87,678.17c8.92-1.47,17.94-2.19,26.94-3s18.17-1.5,27.26-2.07a541.82,541.82,0,0,1,54.52-.83c1.71.07,3.41.17,5.11.27.36-.12.75-.17,1.12-.26.88-.19,1.75-.39,2.63-.54,1.65-.28,3.31-.48,5-.7,3.45-.46,6.91-.75,10.34-1.32.21,0,.29.28.08.33-3.46.69-6.86,1.61-10.32,2.29-1,.2-2,.39-3,.57,6.65.49,13.3,1.14,19.93,1.88.21,0,.21.35,0,.33-9-.72-18.16-1-27.22-1s-18,0-27,.31c-18.2.66-36.4,1.91-54.55,3.43-10.18.85-20.39,1.9-30.61,2.11C466.08,680,465.86,678.34,466.87,678.17Z"/><path class="cls-5" d="M384.26,768.31c3.36-5.14,6.24-10.63,9.33-15.93s6.2-10.64,9.31-16c6.2-10.6,28.4-46.22,30.57-48.7.14-.16.41,0,.34.22-1.07,2.77-15,26.37-18.15,31.63-6.39,10.52-13.08,20.82-19.68,31.2-1.89,3-3.84,5.89-5.75,8.84s-3.93,5.84-5.7,8.87C384.43,768.67,384.14,768.49,384.26,768.31Z"/><path class="cls-12" d="M682.48,800.83c-1.47-4.9-84.36-120.68-90.17-123-.66-.31-39.79,26-39.79,26-1.64,2.07-74.22-15.29-74.22-15.29l-3.06,88,133,.71s17.68,11,33.88,20.07c0,0,0,0,.06,0,10,5.6,18.8,10.32,21.33,11.06C670.15,810.28,684,805.7,682.48,800.83Z"/><path class="cls-10" d="M663.54,808.4c-2.54-.73-11.36-5.46-21.32-11.06,0,0-.05,0-.07,0-16.19-9-33.87-20.08-33.87-20.08l-29.61-.15-44.34-76c10.12,2.07,17.67,3.35,18.2,2.68,0,0,39.11-26.3,39.78-26,5.81,2.34,88.69,118.12,90.17,123S670.15,810.29,663.54,808.4Z"/><path class="cls-7" d="M683.27,801c-1.56-5-84.84-120.75-90.8-123.15-2.26-.93-21.36,10.18-40,26l53.78,74.55S657,807,663.81,808.89,684.82,806,683.27,801Z"/><path class="cls-5" d="M677.44,802.67c-14.43-19.06-70.86-97.28-83.68-117.22-.11-.16,0-.23.12-.08,14.72,18.57,70.51,97.25,83.88,117.07C678,802.86,677.75,803.07,677.44,802.67Z"/><path class="cls-5" d="M654.29,804.44a19.15,19.15,0,0,1-3.61-15c.9-4.31,3.12-9,7.24-11.79.11-.08.27.13.16.23-6.79,6.58-8.49,18.28-3.54,26.4A.15.15,0,0,1,654.29,804.44Z"/><path class="cls-5" d="M612.63,783c-5.7-7.68-9.43-18.66-6.56-28,.12-.37.63-.2.68.11a132.24,132.24,0,0,0,6.93,27.39A.6.6,0,0,1,612.63,783Z"/><path class="cls-5" d="M619.28,787.36c-5.7-7.69-9.43-18.67-6.56-28.06.11-.36.63-.2.68.11a132.24,132.24,0,0,0,6.93,27.39A.6.6,0,0,1,619.28,787.36Z"/><path class="cls-5" d="M625.93,791.67c-5.7-7.69-9.43-18.66-6.56-28.06.12-.36.63-.2.68.12A132.31,132.31,0,0,0,627,791.11.6.6,0,0,1,625.93,791.67Z"/><path class="cls-5" d="M632.58,796c-5.7-7.69-9.43-18.66-6.56-28.06.12-.36.63-.2.68.12a132.4,132.4,0,0,0,6.93,27.39A.6.6,0,0,1,632.58,796Z"/><path class="cls-5" d="M578.89,703.65c-6.25-8.73,7.31-18.44,13.56-9.7S585.14,712.4,578.89,703.65Z"/><path class="cls-5" d="M608.88,797.53c2.39-8.08,1.2-16.91,1-25.19a1.16,1.16,0,0,0-1.63-.94.25.25,0,0,0-.4-.09,50.25,50.25,0,0,0-14.78,21.35c-1.64,4.86-1.26,12.1,4.83,13.68C603.71,807.84,607.49,802.25,608.88,797.53Zm-6.17,5c-9,5.31-8-7-6.65-10.51a53.67,53.67,0,0,1,3.2-6.61,150.17,150.17,0,0,1,8.35-12.65c-.17,4.07,0,8.12,0,12.19C607.57,789.8,607.67,799.6,602.71,802.52Z"/><path class="cls-5" d="M583.11,747.3c-4.64,4.26-1.57,10.83,2.16,14.35a50.24,50.24,0,0,0,23.06,11.92.26.26,0,0,0,.32-.26,1.17,1.17,0,0,0,1-1.6C605.89,764.32,602.8,756,596.9,750,593.45,746.44,587.49,743.28,583.11,747.3Zm18.56,14.37c1.93,3.59,3.68,7.25,5.74,10.77-4.49-2.34-9.06-4.47-13.32-7.26a53.43,53.43,0,0,1-5.92-4.33c-2.85-2.49-9.51-12.87.93-12.41C594.86,748.7,599.37,757.4,601.67,761.67Z"/><path class="cls-1" d="M475,661.41l-59.69-1.58s-61.62-31.67-112.23-20.91c-58,12.33-67.3,84.54-24.89,111.28C331.92,784.09,575,784.26,575,784.26l-50.15-90.41S444.53,674.7,371.2,675.22l103,16.84Z"/><path class="cls-5" d="M528.2,699.69a1.87,1.87,0,0,1-.09-.46l-.09-.38c-.06-.29-.13-.57-.2-.86a18.05,18.05,0,0,0-.57-1.76c-.21-.58-.44-1.15-.69-1.72a14.12,14.12,0,0,0-.94-1.59c0-.06-.09-.07-.14-.11l-.09-.06a.31.31,0,0,0-.13-.06.52.52,0,0,0-.13-.06c-8.84-1.89-69-12.13-77.93-13.39s-18.07-2.36-27.13-3.36a540.93,540.93,0,0,0-54.42-3.41c-1.71,0-3.41,0-5.11,0-.36-.13-.75-.2-1.12-.3-.86-.23-1.72-.47-2.6-.66-1.63-.36-3.28-.65-4.92-.94-3.42-.62-6.86-1.07-10.26-1.81-.21,0-.3.27-.09.32,3.42.86,6.77,1.94,10.19,2.78,1,.25,2,.49,3,.71-6.67.18-13.33.51-20,.94-.21,0-.22.34,0,.33,9.06-.29,18.18-.12,27.24.28s18,.83,26.95,1.58c18.15,1.52,36.27,3.64,54.33,6,10.13,1.33,71.44,11.95,81.63,12.65l.13,0a5.08,5.08,0,0,0,.26.71c.26.56.53,1.11.82,1.66s.55,1.06.87,1.57l.48.75.24.37a2.41,2.41,0,0,1,.26.39C528,700,528.32,699.9,528.2,699.69Z"/><path class="cls-5" d="M556.21,778.34c-3.11-5.28-5.74-10.91-8.57-16.35s-5.69-10.92-8.54-16.37c-5.69-10.88-26.18-47.51-28.23-50.09-.13-.16-.41,0-.35.2.94,2.82,13.69,27,16.63,32.45,5.88,10.81,12.08,21.42,18.18,32.1,1.75,3.05,3.55,6.07,5.32,9.1s3.66,6,5.28,9.13C556,778.7,556.32,778.53,556.21,778.34Z"/><path class="cls-1" d="M362.05,414.55l9.15,68.57c.48,2-.68,3.51-2.6,3.29l-34.39-4a5.61,5.61,0,0,1-4.37-4.09L320.7,409.8c-.49-2,.68-3.51,2.6-3.29l34.39,3.94A5.58,5.58,0,0,1,362.05,414.55Z"/><path class="cls-1" d="M358,414l9.14,68.57c.48,2-.68,3.52-2.6,3.3l-34.39-4a5.6,5.6,0,0,1-4.36-4.09l-9.15-68.58c-.48-2,.68-3.51,2.6-3.29L353.61,410A5.61,5.61,0,0,1,358,414Z"/><path class="cls-5" d="M348.2,416a2.94,2.94,0,1,0,3.2-2.65A2.94,2.94,0,0,0,348.2,416Z"/><path class="cls-12" d="M461.32,528.18c-23.87,39.43-73.31,88.67-91.43,87-8.62-.8-24.21-.37-34.46-11.45-22.37-24.2-38.61-67.67-40.31-91.75-.6-8.56,42.22-22.45,47.54-15,12.44,17.52,25.55,50.72,28.08,50.8,9.33.27,48.74-26,76.27-44.62C480.43,480.66,470.83,512.47,461.32,528.18Z"/><path class="cls-12" d="M298.71,468.42c6.13-16.61,10.26-19.93,8-36.7-1.49-11,4.9-16.67,11.59-7.26,10.95,15.39,7.53,38.48,4,46.14Z"/><path class="cls-12" d="M296.34,519.5s-5.1-24.59-.31-42.93c3.31-12.69,13.59-39.49,51.22-50.22,8.93-2.55,23.45.15,10.38,9.61-9.28,6.71-17.2,8.16-21.88,13.05,0,0,18.06,5.64,20.26,14.68a169.14,169.14,0,0,1,4.07,24,36.61,36.61,0,0,1-4.43,1.16s1.8,8.53-5.56,19.58Z"/><path class="cls-12" d="M301.12,465C306.8,461.09,319,453.1,331.21,450c13.59-3.42,40.69-6.34,43.11,3.71,1.78,7.38-8.47,9.4-8.47,9.4s11.45,1.16,11.6,8.17c.13,6.39-7.89,7.48-7.89,7.48s6.83,1.9,5.77,8.08c-1.27,7.43-15.37,2.24-23.17,8.66C350.41,497,301.12,465,301.12,465Z"/><path class="cls-5" d="M332.43,465c5.94-2.76,21-5.58,33.22-2.06.28.08.36.33.1.31a137.77,137.77,0,0,0-33.29,1.88A.07.07,0,0,1,332.43,465Z"/><path class="cls-5" d="M336.28,478.6c5.37-1.86,21.06-4.06,33.28-.08.28.09.35.35.08.32a147.14,147.14,0,0,0-33.34-.11C336.23,478.74,336.21,478.62,336.28,478.6Z"/><path class="cls-7" d="M292.9,529.24s26.57,69.72,45.23,79.44,30.52,9.23,37.88,8.9c2.16-.1,4.89-1.13,8.05-2.89,21.12-12,61.5-57.84,78.71-84.21,12.91-19.83,13.72-38.92-3.15-34.53-4.2,1.08-9.5,3.64-16,8-32.48,21.86-69.64,42-71.19,41s-15.86-30-15.86-30Z"/><path class="cls-10" d="M369,559.11a16.32,16.32,0,0,1-.28,4.59,15.89,15.89,0,0,1-1.46,4.36,16,16,0,0,1,.29-4.59A16.21,16.21,0,0,1,369,559.11Zm-41.44,19.27a15.93,15.93,0,0,0-.28,4.59,17.79,17.79,0,0,0,1.73-9A16.39,16.39,0,0,0,327.53,578.38Zm68.19,19.92a16,16,0,0,0-.29,4.59,15.86,15.86,0,0,0,1.45-4.36,16.32,16.32,0,0,0,.29-4.59A15.86,15.86,0,0,0,395.72,598.3ZM418,532.24a16,16,0,0,0-.29,4.6,16,16,0,0,0,1.45-4.37,16.32,16.32,0,0,0,.29-4.59A15.86,15.86,0,0,0,418,532.24Zm1.82,22a15.93,15.93,0,0,0-4.59-.28,16,16,0,0,0,4.37,1.45,16.32,16.32,0,0,0,4.59.29A16.3,16.3,0,0,0,419.85,554.19Zm-80.29,3.93a15.93,15.93,0,0,0-4.59-.28,17.79,17.79,0,0,0,9,1.73A16.39,16.39,0,0,0,339.56,558.12Zm39.39,26a16,16,0,0,0-4.6-.29,16.07,16.07,0,0,0,4.37,1.46,16.32,16.32,0,0,0,4.59.28A16.32,16.32,0,0,0,379,584.11Zm-74.8-51.36a16.32,16.32,0,0,0-4.59-.29,15.89,15.89,0,0,0,4.36,1.46,16.37,16.37,0,0,0,4.6.28A16.39,16.39,0,0,0,304.15,532.75Zm36,71.81a16,16,0,0,0-4.6-.28,16.39,16.39,0,0,0,4.37,1.45,16,16,0,0,0,4.59.28A16.32,16.32,0,0,0,340.18,604.56ZM467.66,498.62a15.24,15.24,0,0,0,3.88,1.33,5.85,5.85,0,0,0-.67-1.26A12.27,12.27,0,0,0,467.66,498.62Zm-76.32,48.83a16,16,0,0,0,3.05,3.45,16.32,16.32,0,0,0-2.06-4.11,16,16,0,0,0-3.05-3.45A16.32,16.32,0,0,0,391.34,547.45Zm-39.46,36.24a16.27,16.27,0,0,0,3,3.45,15.68,15.68,0,0,0-2.06-4.11,16.27,16.27,0,0,0-3-3.45A16.32,16.32,0,0,0,351.88,583.69Zm-18.8-51.62a15.73,15.73,0,0,0,3,3.45,15.68,15.68,0,0,0-2.06-4.11,16.27,16.27,0,0,0-3-3.45A15.68,15.68,0,0,0,333.08,532.07ZM413.37,582a16,16,0,0,0,3.05,3.45,17.79,17.79,0,0,0-5.11-7.56A16.32,16.32,0,0,0,413.37,582Zm31.5-62.72a16,16,0,0,0,3.05,3.45,16.55,16.55,0,0,0-2.06-4.12,17.13,17.13,0,0,0-3.05-3.45A16.55,16.55,0,0,0,444.87,519.29Zm2.31,25.27a16.27,16.27,0,0,0,3.45-3,15.59,15.59,0,0,0-4.12,2.06,16.27,16.27,0,0,0-3.45,3A16.22,16.22,0,0,0,447.18,544.56Zm-133.47,8.36a16,16,0,0,0,3.45-3,16.32,16.32,0,0,0-4.11,2.06A16,16,0,0,0,309.6,555,16.32,16.32,0,0,0,313.71,552.92Zm41.45-10.23a16,16,0,0,0,3.45-3.05,17.63,17.63,0,0,0-7.56,5.11A16.32,16.32,0,0,0,355.16,542.69Zm43.7,27.44a16,16,0,0,0,3.45-3,16.32,16.32,0,0,0-4.11,2.06,16,16,0,0,0-3.45,3.05A16.32,16.32,0,0,0,398.86,570.13Zm-28.93,36.2a16,16,0,0,0,3.45-3,15.59,15.59,0,0,0-4.12,2.06,16.27,16.27,0,0,0-3.45,3A16.22,16.22,0,0,0,369.93,606.33Z"/><path class="cls-5" d="M384.06,614.69c21.12-12,61.5-57.84,78.71-84.21,12.91-19.83,13.72-38.92-3.15-34.53C449.59,511.54,405.79,579.76,384.06,614.69Z"/><path class="cls-5" d="M299.92,542.17c2.35-1,24.23-7,29-8.16s24.28-6.26,29.31-7.08a.18.18,0,0,1,.1.34c-4.79,1.74-24.44,6.91-29.29,8.23s-26.61,6.74-29.08,7C299.76,542.52,299.76,542.24,299.92,542.17Z"/><path class="cls-7" d="M403.49,660.8c2.05,2.45,141.12,14,141.87,13.12,2-2.28-10.65-91.73-23.19-126.38-16.07-44.42-26.32-48.94-32.42-51.89-7.79-3.78-22.38-3.87-26-2.61-4.08,1.39-22.52,19.74-28.64,35.11C422.84,559,401.7,658.65,403.49,660.8Z"/><path class="cls-10" d="M472.07,519.76a16.32,16.32,0,0,1-.28,4.59,16.07,16.07,0,0,1-1.46,4.37,15.93,15.93,0,0,1,.29-4.59A16.27,16.27,0,0,1,472.07,519.76Zm-6,70.79a16,16,0,0,0-.28,4.59,15.86,15.86,0,0,0,1.45-4.36,16.32,16.32,0,0,0,.29-4.59A16.23,16.23,0,0,0,466.1,590.55Zm75.71,73.55a16,16,0,0,0-.29,4.59,16,16,0,0,0,1.46-4.37,16.3,16.3,0,0,0,.28-4.59A16.39,16.39,0,0,0,541.81,664.1ZM484.6,664a16,16,0,0,0-.28,4.59,17.79,17.79,0,0,0,1.73-9A16.39,16.39,0,0,0,484.6,664Zm-45.45-33.14a16.32,16.32,0,0,0-.28,4.59,15.86,15.86,0,0,0,1.45-4.36,16.37,16.37,0,0,0,.29-4.6A16.41,16.41,0,0,0,439.15,630.83ZM509.59,566a15.93,15.93,0,0,0-.29,4.59,17.65,17.65,0,0,0,1.74-9A16.39,16.39,0,0,0,509.59,566Zm3.81,58.88a16,16,0,0,0-.29,4.59,15.86,15.86,0,0,0,1.45-4.36,16.32,16.32,0,0,0,.29-4.59A15.86,15.86,0,0,0,513.4,624.85ZM432,574.24a15.93,15.93,0,0,0-.28,4.59,17.79,17.79,0,0,0,1.73-9A16.39,16.39,0,0,0,432,574.24Zm47.76-27.15a16,16,0,0,0-4.59-.28,15.86,15.86,0,0,0,4.36,1.45,16.32,16.32,0,0,0,4.59.29A16.23,16.23,0,0,0,479.79,547.09Zm31.37,45.56a15.93,15.93,0,0,0-4.59-.29,16,16,0,0,0,4.37,1.46,16.3,16.3,0,0,0,4.59.28A16.39,16.39,0,0,0,511.16,592.65Zm-54.42,22.2a16.32,16.32,0,0,0-4.59-.28,15.93,15.93,0,0,0,4.37,1.45,16.3,16.3,0,0,0,4.59.29A16.41,16.41,0,0,0,456.74,614.85ZM494.79,645a16,16,0,0,0-4.59-.28,17.73,17.73,0,0,0,9,1.73A16.39,16.39,0,0,0,494.79,645ZM417,640.34a16,16,0,0,0-4.6-.29,16.41,16.41,0,0,0,4.37,1.46,16.7,16.7,0,0,0,4.59.28A15.86,15.86,0,0,0,417,640.34Zm55.24-141.45a16.3,16.3,0,0,0-4.59-.28,16,16,0,0,0,4.37,1.45,16.32,16.32,0,0,0,4.59.29A16.3,16.3,0,0,0,472.25,498.89Zm19.85,18a16.27,16.27,0,0,0,3,3.45,15.59,15.59,0,0,0-2.06-4.12,16.27,16.27,0,0,0-3-3.45A16.55,16.55,0,0,0,492.1,516.9Zm-35,48.07a16,16,0,0,0,3.05,3.45,16.32,16.32,0,0,0-2.06-4.11,16,16,0,0,0-3.05-3.45A16.32,16.32,0,0,0,457.12,565Zm-34.79,48.32a16.22,16.22,0,0,0,3,3.44,15.68,15.68,0,0,0-2.06-4.11,16.27,16.27,0,0,0-3-3.45A16.22,16.22,0,0,0,422.33,613.29Zm34,39.75a16.27,16.27,0,0,0,3,3.45,15.68,15.68,0,0,0-2.06-4.11,16.27,16.27,0,0,0-3-3.45A16.32,16.32,0,0,0,456.33,653Zm74.91-8.1a15.73,15.73,0,0,0,3,3.45,15.68,15.68,0,0,0-2.06-4.11,16.27,16.27,0,0,0-3-3.45A16,16,0,0,0,531.24,644.94Zm-40.95-37.39a16.27,16.27,0,0,0,3,3.45,15.68,15.68,0,0,0-2.06-4.11,16.27,16.27,0,0,0-3-3.45A16.32,16.32,0,0,0,490.29,607.55Zm-45.42-88.26a16,16,0,0,0,3.05,3.45,16.55,16.55,0,0,0-2.06-4.12,17.13,17.13,0,0,0-3.05-3.45A16.55,16.55,0,0,0,444.87,519.29Zm2.31,25.27a16.27,16.27,0,0,0,3.45-3,15.59,15.59,0,0,0-4.12,2.06,16.27,16.27,0,0,0-3.45,3A16.22,16.22,0,0,0,447.18,544.56Zm84.64,60.66a15.58,15.58,0,0,0,3.94-2c-.07-.41-.14-.85-.21-1.27l-.26.17A16.45,16.45,0,0,0,531.82,605.22Zm-92-8a16.22,16.22,0,0,0,3.44-3,15.68,15.68,0,0,0-4.11,2.06,16.27,16.27,0,0,0-3.45,3A16.22,16.22,0,0,0,439.84,597.26Zm-8.57,64.59a16.24,16.24,0,0,0,3.44-3.05,16.32,16.32,0,0,0-4.11,2.06,16,16,0,0,0-3.45,3A16.55,16.55,0,0,0,431.27,661.85Zm77.38-124.5a15.73,15.73,0,0,0,3.45-3,15.59,15.59,0,0,0-4.12,2.06,16.27,16.27,0,0,0-3.45,3A15.9,15.9,0,0,0,508.65,537.35Zm-32.78,93.14a16.27,16.27,0,0,0,3.45-3,15.68,15.68,0,0,0-4.11,2.06,16.27,16.27,0,0,0-3.45,3A16.32,16.32,0,0,0,475.87,630.49ZM515,663.31a16.27,16.27,0,0,0,3.45-3,15.68,15.68,0,0,0-4.11,2.06,16.27,16.27,0,0,0-3.45,3A16,16,0,0,0,515,663.31Zm-27.89-90.53a16.27,16.27,0,0,0,3.45-3,15.68,15.68,0,0,0-4.11,2.06,16.27,16.27,0,0,0-3.45,3A16.32,16.32,0,0,0,487.12,572.78Z"/><path class="cls-12" d="M512.13,508.75c57.35,48.72,105.54,114.45,99.37,134C605,663.38,562.06,684.37,525.12,687c-7.57.53-27.51-55.91-19.66-58,6.1-1.61,33.81-7.73,37.29-11.27,2.42-2.46-36.31-64.47-48.21-96.34C482.09,488,496.77,495.71,512.13,508.75Z"/><path class="cls-12" d="M521,628.23s-23,.94-38.1,2.26c-8.39.74-22.67,3.28-28.59,6.65-8.86,5-42.67,31.71-36.38,40.05,5.7,7.55,15.63-3.26,15.63-3.26s-12,10.8-4,16.55,19.58-9.55,19.58-9.55-13.49,10.59-4.42,15.92c7.88,4.62,23.11-11.6,23.11-11.6s-15.38,9.56-7.78,15.08c8.41,6.11,34.31-15.35,34.31-15.35,19.48,3.36,31.63,2.75,45.69-.3C542.64,684.12,521,628.23,521,628.23Z"/><path class="cls-5" d="M445.49,684.56c1-1.17,1.94-2.31,2.91-3.47a73.17,73.17,0,0,1,5.89-6.55c2.08-2,4.23-3.86,6.45-5.68s4.89-3.61,7.18-5.59a.17.17,0,1,1,.21.26,78.89,78.89,0,0,0-6.5,6.17c-2.09,2.06-4.15,4.15-6.21,6.24s-4.14,3.94-6.21,5.92c-1,1-2,2-3,3.06a25.36,25.36,0,0,1-2.88,2.89c-.1.08-.23-.06-.17-.17A18.2,18.2,0,0,1,445.49,684.56Z"/><path class="cls-5" d="M431.14,676.22c1.23-2.23,8.65-10.42,10.67-12.4a81.94,81.94,0,0,1,12.75-10.29.17.17,0,0,1,.21.26c-3.89,3.85-7.84,7.66-11.78,11.46-1.93,1.86-10.43,10.57-11.44,11.37C431.31,676.81,431,676.47,431.14,676.22Z"/><path class="cls-5" d="M458.76,692.75c1.29-2.08,8.3-9.69,10.25-11.48a105.15,105.15,0,0,1,12.89-9c.17-.08.36.14.21.26-4.05,3.33-8.14,6.57-12,10.09-1.9,1.71-9.06,9-11,10.45C458.9,693.17,458.65,692.93,458.76,692.75Z"/><path class="cls-7" d="M503.05,626.57l29,63s73.33-15.48,81.21-47.92-71.23-112-95.91-131.07-40.16-22.27-22,19.3,47.27,84.88,44.61,86.83C537.72,618.34,503.05,626.57,503.05,626.57Z"/><path class="cls-10" d="M556.24,584.31a16.32,16.32,0,0,1-.29,4.59,16,16,0,0,1-1.45,4.37,17.88,17.88,0,0,1,1.74-9ZM541.81,664.1a16,16,0,0,0-.29,4.59,16,16,0,0,0,1.46-4.37,16.3,16.3,0,0,0,.28-4.59A16.39,16.39,0,0,0,541.81,664.1ZM581,629a16,16,0,0,0-.29,4.6,16,16,0,0,0,1.45-4.37,16.32,16.32,0,0,0,.29-4.59A16,16,0,0,0,581,629Zm-70.07-67.21c.05.07.09.16.13.23a3.39,3.39,0,0,0,0-.45A.91.91,0,0,0,510.94,561.82Zm17.93-35.1a16,16,0,0,0-.29,4.59A16,16,0,0,0,530,527a16.39,16.39,0,0,0,.29-4.6A16,16,0,0,0,528.87,526.72ZM513.12,629.44a17.33,17.33,0,0,0,1.45-4.36c.09-.45.16-.9.21-1.36l-1.18.29a8.41,8.41,0,0,0-.21.83A16.82,16.82,0,0,0,513.12,629.44Zm-2.82-122.2a15.93,15.93,0,0,0-4.59-.28,17.79,17.79,0,0,0,9,1.73A16.39,16.39,0,0,0,510.3,507.24Zm71.41,81.5a16,16,0,0,0-4.59-.29,15.86,15.86,0,0,0,4.36,1.45,16.32,16.32,0,0,0,4.59.29A15.86,15.86,0,0,0,581.71,588.74Zm-33.79,37.34a16,16,0,0,0-4.59-.28,16.21,16.21,0,0,0,4.36,1.45,16,16,0,0,0,4.6.28A16.39,16.39,0,0,0,547.92,626.08Zm16.65,45.8a16,16,0,0,0-4.59-.29,16,16,0,0,0,4.36,1.46,16.39,16.39,0,0,0,4.6.28A16.39,16.39,0,0,0,564.57,671.88Zm36.11-29.44a16,16,0,0,0-4.59-.29,17.87,17.87,0,0,0,8.95,1.74A16.21,16.21,0,0,0,600.68,642.44ZM538.49,547a16.32,16.32,0,0,0-4.59-.29,15.89,15.89,0,0,0,4.36,1.46,16.37,16.37,0,0,0,4.6.28A16.39,16.39,0,0,0,538.49,547ZM492.1,516.9a16.27,16.27,0,0,0,3,3.45,15.59,15.59,0,0,0-2.06-4.12,16.27,16.27,0,0,0-3-3.45A16.55,16.55,0,0,0,492.1,516.9Zm42.79,55.3a16,16,0,0,0,3.05,3.45,16.32,16.32,0,0,0-2.06-4.11,16.6,16.6,0,0,0-3-3.45A16.32,16.32,0,0,0,534.89,572.2Zm-3.65,72.74a15.73,15.73,0,0,0,3,3.45,15.68,15.68,0,0,0-2.06-4.11,16.27,16.27,0,0,0-3-3.45A16,16,0,0,0,531.24,644.94Zm46.89,12.18a16,16,0,0,0,3,3.45,17.79,17.79,0,0,0-5.11-7.56A16.32,16.32,0,0,0,578.13,657.12ZM568.9,610a16.27,16.27,0,0,0,3,3.45,15.68,15.68,0,0,0-2.06-4.11,16.27,16.27,0,0,0-3-3.45A16,16,0,0,0,568.9,610Zm-36.85,73.34a16.24,16.24,0,0,0,3.05,3.44,16.32,16.32,0,0,0-2.06-4.11,16,16,0,0,0-3-3.45A16.55,16.55,0,0,0,532.05,683.36Zm1.91-80.2v0c.16.31.33.61.48.89.51-.27,1-.59,1.5-.9a16.35,16.35,0,0,0,3.45-3,16.74,16.74,0,0,0-4.1,2C534.84,602.49,534.39,602.81,534,603.16Zm66.16,12.2a16.27,16.27,0,0,0,3.45-3,15.68,15.68,0,0,0-4.11,2.06,16.27,16.27,0,0,0-3.45,3A16,16,0,0,0,600.12,615.36ZM558.9,647.74a16.27,16.27,0,0,0,3.45-3,15.59,15.59,0,0,0-4.12,2.06,16.52,16.52,0,0,0-3.45,3A16.55,16.55,0,0,0,558.9,647.74ZM508.65,537.35a15.73,15.73,0,0,0,3.45-3,15.59,15.59,0,0,0-4.12,2.06,16.27,16.27,0,0,0-3.45,3A15.9,15.9,0,0,0,508.65,537.35Zm52.78,28a16.24,16.24,0,0,0,3.44-3.05,16.32,16.32,0,0,0-4.11,2.06,16,16,0,0,0-3.45,3A16.55,16.55,0,0,0,561.43,565.36Z"/><path class="cls-5" d="M542.77,681.54c-1.44-2.11-11.54-22.41-13.64-26.86s-10.86-22.6-12.65-27.38a.18.18,0,0,1,.32-.16c2.64,4.36,11.53,22.63,13.76,27.13s11.79,24.79,12.53,27.16C543.15,681.63,542.87,681.69,542.77,681.54Z"/><path class="cls-5" d="M502.67,626.33l1.39,2.59c0,.07.2.27.08,0-.18-.48-.93-2.2-.93-2.2,9.91-1.74,19.78-3.73,29.56-6.23,1.23-.33,2.45-.65,3.68-1.05a16.83,16.83,0,0,0,3.78-1.57,1.87,1.87,0,0,0,.29-.23,2.27,2.27,0,0,0,.37-.56,2.39,2.39,0,0,0,0-1.07c-.1-.32-.21-.69-.34-1-.22-.6-.48-1.21-.73-1.79-.51-1.17-1.07-2.32-1.6-3.46-2.19-4.59-4.48-9.09-6.83-13.56-4.79-8.92-9.54-17.84-14.51-26.6-4.69-8.32-9.55-17.7-14.51-25.85-.29-.48-1.08-1-.21.82,4.48,9.06,8.55,16.89,13.19,25.84l14,26.83c2.33,4.47,4.71,8.91,6.93,13.43.56,1.12,1.12,2.25,1.63,3.39.27.56.5,1.12.74,1.68.08.23.14.42.2.63a1.42,1.42,0,0,0,.16-.11s.05,0,.05,0a.38.38,0,0,0-.05.16c-.1,0-.08.2-.1.13s0-.12-.06-.16a21.57,21.57,0,0,1-3,1.24l-3.57,1.12c-4.8,1.47-9.69,2.76-14.59,4Z"/><path class="cls-5" d="M538.87,616.33s0,.11.06.16,0-.11.1-.13a.38.38,0,0,1,.05-.16s-.05,0-.05,0A1.42,1.42,0,0,1,538.87,616.33Z"/><path class="cls-5" d="M503.13,555.24c-.66-.56-.62-.13-.33.29,1.64,2.29,4.22,4.87,6.07,7a77.51,77.51,0,0,0,7,7,76.29,76.29,0,0,0-6.15-7.79A67.62,67.62,0,0,0,503.13,555.24Z"/><path class="cls-12" d="M465.58,517.38C473.29,520,488,509.27,494.29,500c.42-.64.08-7.8.08-16.51,0-5.29.16-11.18.68-16.55.11-1.1-34.44,4.92-34.44,4.92s2.22,11.56,1.25,20.91a12,12,0,0,1-.44,2.18c0,.1-.06.22-.09.36C460.25,499.45,458.14,514.83,465.58,517.38Z"/><path class="cls-5" d="M493,466.9c-2.43,8.92-10.2,30.29-28.19,29a22.12,22.12,0,0,1-3.43-.52,2.33,2.33,0,0,1,.08-.37,13,13,0,0,0,.45-2.17c1-9.36-1.26-20.93-1.26-20.93S485.53,467.53,493,466.9Z"/><path class="cls-12" d="M501.16,427.44c2.59,12.26-6.76,46.19-15.94,53.13-13.29,10.07-33.54,9.35-41.71-6.29-7.91-15.15,5.06-59.16,15.16-65.31C473.55,399.91,497.34,409.32,501.16,427.44Z"/><path class="cls-5" d="M464.88,448.28c0-.08.15.16.12.25-.69,2.27-1.1,5,.77,6.3.06,0,0,.16-.06.13C463.28,453.92,463.86,450.32,464.88,448.28Z"/><path class="cls-5" d="M467.57,446.44c3.76.72,2.05,8.18-1.43,7.52S464.42,445.84,467.57,446.44Z"/><path class="cls-5" d="M451.93,445.39c0-.1-.21.06-.23.16-.45,2.33-1.37,4.92-3.63,5.21-.07,0-.09.12,0,.13C450.69,451.11,451.87,447.66,451.93,445.39Z"/><path class="cls-5" d="M450.42,442.5c-3.65-1.13-5.65,6.26-2.27,7.31S453.48,443.45,450.42,442.5Z"/><path class="cls-5" d="M472.36,441.33a28.19,28.19,0,0,1-2.91-1.19,5.13,5.13,0,0,1-2.74-1.77,1.63,1.63,0,0,1,.36-1.95c1.19-1,2.7-.72,4.06-.22a5.9,5.9,0,0,1,3.27,2.72A1.73,1.73,0,0,1,472.36,441.33Z"/><path class="cls-5" d="M448.24,436.27a29.86,29.86,0,0,0,3.14-.09,5.11,5.11,0,0,0,3.19-.7,1.61,1.61,0,0,0,.35-2c-.78-1.32-2.27-1.62-3.73-1.63a5.87,5.87,0,0,0-4,1.4A1.73,1.73,0,0,0,448.24,436.27Z"/><path class="cls-5" d="M463.82,470.64c-.67.41-1.4,1-2.25.91a6.36,6.36,0,0,1-2.35-1.15.08.08,0,0,0-.13.1,3.2,3.2,0,0,0,2.65,1.92,2.51,2.51,0,0,0,2.28-1.63C464.09,470.67,463.92,470.58,463.82,470.64Z"/><path class="cls-5" d="M463,463.16a8.08,8.08,0,0,1-6.05,2.3,9.75,9.75,0,0,1-2.87-.52,2.9,2.9,0,0,1-.52-.18l-.49-.2a.59.59,0,0,1-.35-.62v0a2,2,0,0,1,.07-.23v0l0-.2C453.2,461.68,454,459,454,459c-.72.18-4.38.91-4.12,0,2.23-7.59,4.7-16,8.51-23.12a.22.22,0,0,1,.41.16c-1.85,7.37-5,14.38-7,21.76a14.15,14.15,0,0,1,4-.27c.24.13-1.62,5.12-1.72,5.94a.21.21,0,0,0,0,.09c2.9,1.07,5.36.68,8.72-.67C463,462.81,463.16,463,463,463.16Z"/><path class="cls-5" d="M455.32,464.28A9.54,9.54,0,0,0,458.4,468a4.32,4.32,0,0,0,2.51.75c2-.07,2.39-1.75,2.38-3.28a10.43,10.43,0,0,0-.31-2.4A12.46,12.46,0,0,1,455.32,464.28Z"/><path class="cls-13" d="M458.4,468a4.32,4.32,0,0,0,2.51.75c2-.07,2.39-1.75,2.38-3.28C461.27,465.25,459,466.15,458.4,468Z"/><path class="cls-5" d="M496.67,454.07c-6.14-.68-4.78-15.69-4.78-15.69s-9.3-2.16-13.23-15.27c0,0-12.46,7-22.49,4.6-15.73-3.69-14.25-24.29-8.09-28.19,8.72-5.53,23.27,3.91,23.27,3.91s23-5.16,29,10.54c0,0,10.1.95,10.23,12.17S501.24,454.58,496.67,454.07Z"/><path class="cls-5" d="M494,440.27a21,21,0,0,1-11.53-7.09c-3-3.78-4.51-9.43-2.9-14.07a.21.21,0,0,0-.41-.11c-1.39,5.18-1.36,10.59,1.75,15.18a14.62,14.62,0,0,0,13,6.54C494.19,440.7,494.27,440.33,494,440.27Z"/><path class="cls-5" d="M511.71,419.63c-2.92-4.12-7.66-5-12.39-5.06-.27,0-.26.44,0,.42,4.66-.3,9.18,3,11.41,7s1.4,8.51.23,12.57a33.07,33.07,0,0,1-14.16,19,.1.1,0,0,0,.1.18,33,33,0,0,0,15.87-20.75C513.81,428.64,514.4,423.43,511.71,419.63Z"/><path class="cls-5" d="M471.94,404.21a15.5,15.5,0,0,0-8.38-7.12,18.62,18.62,0,0,0-13.24.66,10.5,10.5,0,0,0-5.95,8.64c-.5,4.29,1.3,8.43,3.56,11.93a.09.09,0,0,0,.16-.1c-1.8-3.29-3.13-7-2.7-10.8a9.64,9.64,0,0,1,6.11-8.24c6.65-2.56,16.16-1.6,20.08,5.24A.21.21,0,0,0,471.94,404.21Z"/><path class="cls-7" d="M445.1,454.88c-3.35-.93-4.94-5.81-3.54-10.88s5.27-8.44,8.63-7.52,4.94,5.81,3.54,10.88S448.46,455.81,445.1,454.88Zm4.75-17.16c-2.68-.74-5.84,2.23-7.06,6.62s0,8.57,2.65,9.31,5.84-2.24,7.05-6.63S452.52,438.46,449.85,437.72Z"/><path class="cls-7" d="M465.72,460.58c-4.74-1.31-7.45-6.5-6.05-11.57s6.4-8.14,11.13-6.83,7.45,6.51,6.05,11.58S470.46,461.89,465.72,460.58Zm4.74-17.16c-4-1.12-8.34,1.54-9.55,5.93s1.09,8.88,5.15,10,8.34-1.54,9.56-5.93S474.52,444.54,470.46,443.42Z"/><path class="cls-7" d="M460.31,448.29c-4.15-2.88-6.65-2-6.67-1.94l-.5-1.18c.13-.06,3.11-1.26,7.91,2.07Z"/><path class="cls-7" d="M476.46,452.78l.1-1.27c.84.07,20.57,1.8,22.65,2.25s6.42,4.67,6.9,5.14l-.9.91c-1.2-1.2-4.6-4.34-6.18-4.78l-.09,0C497.34,454.66,483.53,453.4,476.46,452.78Z"/><path class="cls-12" d="M491.3,454.9s9-10.29,13.75-7-2.86,18.82-9,20.38a6.06,6.06,0,0,1-7.73-4.12Z"/><path class="cls-5" d="M502.76,452.32a.09.09,0,0,1,0,.17c-4.34,1.23-6.95,4.85-8.92,8.68,1.41-1.41,3.18-2.07,5.08-.37.1.09,0,.25-.13.21a3.74,3.74,0,0,0-4.23.85,18.43,18.43,0,0,0-2.31,3.09c-.23.35-.88.08-.7-.33,0,0,0-.07.05-.1C492.08,459.21,497,452.24,502.76,452.32Z"/><path class="cls-5" d="M498.22,502.76c-4.1,4.25-8,8.61-12.57,12.37-4.25,3.52-9.28,6.62-14.83,6.84-5.37.22-10.66-1.14-12.31-7.78-1.3-5.27-.77-10.6.48-17.19a.2.2,0,1,0-.39-.08c-1.65,8.5-3.6,21.69,4,25,8.53,3.75,17.3-.3,23.72-6a81.45,81.45,0,0,0,12-13.06C498.44,502.8,498.3,502.67,498.22,502.76Z"/><rect class="cls-1" x="282.11" y="278.13" width="105.73" height="79.06"/><polygon class="cls-1" points="314.81 357.19 355.13 357.19 334.97 378.98 314.81 357.19"/><path class="cls-2" d="M355.5,322.9A63.83,63.83,0,0,1,335,340.71a64,64,0,0,1-20.52-17.81c-7.22-9.56-6.87-24.53,3.47-27.77,11.43-3.58,17.05,13.62,17.05,13.62s5.7-17.31,17.06-13.62C362.33,298.48,362.73,313.34,355.5,322.9Z"/><rect class="cls-1" x="198.81" y="193.07" width="68.67" height="51.35"/><polygon class="cls-1" points="220.05 244.42 246.24 244.42 233.15 258.57 220.05 244.42"/><path class="cls-2" d="M246.48,222.15a41.48,41.48,0,0,1-13.33,11.57,41.59,41.59,0,0,1-13.33-11.57c-4.69-6.21-4.46-15.94,2.25-18,7.43-2.33,11.08,8.85,11.08,8.85s3.7-11.25,11.08-8.85C250.92,206.28,251.17,215.94,246.48,222.15Z"/><rect class="cls-1" x="1111.8" y="216.31" width="68.67" height="51.35"/><polygon class="cls-1" points="1133.04 267.66 1159.23 267.66 1146.13 281.81 1133.04 267.66"/><path class="cls-2" d="M1159.47,245.39A41.56,41.56,0,0,1,1146.13,257a41.5,41.5,0,0,1-13.32-11.57c-4.7-6.21-4.46-15.94,2.25-18,7.42-2.32,11.07,8.85,11.07,8.85s3.71-11.25,11.08-8.85C1163.91,229.53,1164.16,239.18,1159.47,245.39Z"/><rect class="cls-1" x="1538.29" y="173.23" width="68.67" height="51.35"/><polygon class="cls-1" points="1559.54 224.58 1585.73 224.58 1572.63 238.73 1559.54 224.58"/><path class="cls-2" d="M1586,202.3a41.48,41.48,0,0,1-13.33,11.57,41.59,41.59,0,0,1-13.33-11.57c-4.69-6.21-4.46-15.93,2.26-18,7.42-2.33,11.07,8.84,11.07,8.84s3.7-11.24,11.08-8.84C1590.4,186.44,1590.66,196.09,1586,202.3Z"/><rect class="cls-1" x="806.81" y="65.62" width="105.73" height="79.06"/><polygon class="cls-1" points="839.51 144.68 879.84 144.68 859.67 166.47 839.51 144.68"/><path class="cls-2" d="M880.2,110.39a63.83,63.83,0,0,1-20.53,17.81,64,64,0,0,1-20.52-17.81c-7.22-9.56-6.86-24.53,3.47-27.77,11.43-3.58,17,13.62,17,13.62s5.7-17.31,17.06-13.62C887,86,887.43,100.83,880.2,110.39Z"/><rect class="cls-1" x="1393.61" y="81.86" width="105.73" height="79.06"/><polygon class="cls-1" points="1426.31 160.92 1466.64 160.92 1446.47 182.71 1426.31 160.92"/><path class="cls-2" d="M1467,126.63a63.83,63.83,0,0,1-20.53,17.81A63.88,63.88,0,0,1,1426,126.63c-7.23-9.56-6.87-24.53,3.46-27.77,11.44-3.58,17,13.62,17,13.62s5.7-17.32,17.06-13.62C1473.84,102.21,1474.23,117.07,1467,126.63Z"/></svg>