<?xml version="1.0" encoding="utf-8"?>
<!-- Generator: Adobe Illustrator 26.0.3, SVG Export Plug-In . SVG Version: 6.00 Build 0)  -->
<svg version="1.1" id="Слой_1" xmlns="http://www.w3.org/2000/svg" xmlns:xlink="http://www.w3.org/1999/xlink" x="0px" y="0px"
	 viewBox="0 0 923 1000" style="enable-background:new 0 0 923 1000;" xml:space="preserve">
<style type="text/css">
	.st0{fill:#FFC800;}
	.st1{fill:#DCDCDC;stroke:#330066;stroke-width:9;stroke-miterlimit:10;}
	.st2{fill:#DCDCDC;stroke:#FFC800;stroke-width:9;stroke-miterlimit:10;}
	.st3{fill:#4A148C;}
	.st4{fill:#FFABA1;}
	.st5{opacity:0.1;enable-background:new    ;}
	.st6{fill:#330066;}
	.st7{fill:#A8A8A8;}
	.st8{fill:#FF9CBF;}
	.st9{opacity:0.2;}
	.st10{fill:#ECECEC;}
	.st11{enable-background:new    ;}
	.st12{fill:#FF9581;}
	.st13{fill:#C36358;}
	.st14{fill:#C8C8C8;}
	.st15{fill:#ED776A;}
	.st16{fill:#DCDCDC;}
	.st17{fill:#FFFFFF;}
	.st18{opacity:0.6;}
</style>
<rect x="496" y="607.3" class="st0" width="316.6" height="316.6"/>
<rect x="150.4" y="449.2" class="st1" width="323.8" height="334.3"/>
<rect x="496" y="229.8" class="st2" width="355.1" height="355.1"/>
<rect x="107.1" y="87.6" class="st3" width="367.1" height="338"/>
<path class="st4" d="M356.2,255.2c44.7,45.3,101,140.7,90.5,160c-11.7,21.5-74-42-73.7-45.7c0.2-2.8-21.7-60.7-38.4-102.9
	S345.1,244,356.2,255.2z"/>
<path class="st0" d="M372.5,369.6c-1.9-6.2-31.7-82.6-40.2-106.7s-0.6-31.6,23.7-9.5s77.7,96,89.9,135.3
	c11.7,37.8-7.7,37.8-33.4,20.4C391.5,394.8,372.5,369.6,372.5,369.6z"/>
<path class="st5" d="M351.8,255.9c-0.3,1.7-0.8,3.3-1.5,4.9c-0.7,1.6-1.6,3-2.7,4.3c0.3-1.7,0.8-3.3,1.5-4.9
	C349.8,258.7,350.7,257.2,351.8,255.9z M425.5,360.9c-0.7,1.5-1.3,3.2-1.5,4.9c1.1-1.3,2-2.8,2.7-4.3c0.7-1.6,1.2-3.2,1.5-4.9
	C427.2,357.9,426.2,359.3,425.5,360.9L425.5,360.9z M399.2,320.8c-0.7,1.5-1.2,3.2-1.5,4.9c1.1-1.3,2-2.8,2.7-4.3
	c0.7-1.6,1.2-3.2,1.5-4.9C400.8,317.7,399.9,319.2,399.2,320.8L399.2,320.8z M371.8,310.7c-1.5-0.7-3.2-1.2-4.9-1.5
	c2.7,2.2,5.8,3.6,9.2,4.2C374.8,312.3,373.4,311.4,371.8,310.7L371.8,310.7z M396.5,351.3c-1.5-0.7-3.2-1.3-4.9-1.5
	c1.3,1.1,2.8,2,4.3,2.7c1.6,0.7,3.2,1.2,4.9,1.5C399.5,352.9,398,352,396.5,351.3L396.5,351.3z M376.4,281.8
	c-1.6-0.7-3.2-1.3-4.9-1.5c1.3,1.1,2.8,2,4.3,2.7c1.6,0.7,3.2,1.2,4.9,1.5C379.4,283.4,378,282.5,376.4,281.8L376.4,281.8z
	 M361.1,336c0.6,1.6,1.4,3.1,2.4,4.5c-0.1-1.7-0.5-3.4-1.1-5c-0.6-1.6-1.4-3.1-2.3-4.5C360.1,332.7,360.5,334.4,361.1,336z
	 M412.8,384.4c0.6,1.6,1.4,3.1,2.4,4.5c-0.1-1.7-0.5-3.4-1.1-5c-0.6-1.6-1.4-3.1-2.4-4.5C411.8,381.1,412.1,382.7,412.8,384.4
	L412.8,384.4z M378,376.2h-0.1c0.3,0.3,0.6,0.7,0.9,1.1c1.5-0.5,2.9-1.3,4.2-2.3C381.3,375.2,379.6,375.6,378,376.2z M439.2,405.1
	c1.6-0.6,3.1-1.4,4.5-2.4c-1.7,0.1-3.4,0.5-5,1.1c-1.6,0.6-3.1,1.4-4.5,2.4C435.9,406.1,437.6,405.7,439.2,405.1L439.2,405.1z
	 M347.3,293.1c-1.1,0.4-2.2,0.9-3.2,1.5l0.2,0.7c1.2-0.2,2.3-0.5,3.4-1c1.6-0.6,3.2-1.4,4.5-2.4
	C350.6,292.1,348.9,292.5,347.3,293.1z"/>
<path class="st0" d="M367.2,425.8h-170c0,0,27-133.4,92.2-191.1c8.1-7.1,26.2-5.5,38.1,0.4c4.2,2.1,19.4,23.4,23.8,43.5
	S367.7,425.1,367.2,425.8z"/>
<path class="st6" d="M352.7,286.8c1.3,4.5,2.4,9.1,3.4,13.8c0-0.2,0-0.4,0-0.5c0.1-2.6,0.1-5.3,0.4-7.9c0-0.1,0.1-0.1,0.1-0.1
	s0.1,0.1,0.1,0.1c0.3,2.7,0.4,5.3,0.2,8c-0.1,1.2-0.1,2.5-0.2,3.8c0.4,2.1,0.7,4.2,0.9,6.3c0.5,4,1.8,18.7,2,21.7
	c0,0.6-0.7,0.7-0.9,0.1c-0.8-3-2.9-18.2-3.6-22.1c-1.3-7.6-2.2-15.3-2.7-23C352.4,286.7,352.7,286.7,352.7,286.8z"/>
<path class="st5" d="M300,269.5c-0.3,1.7-0.8,3.3-1.5,4.9c-0.7,1.6-1.6,3-2.7,4.3c0.3-1.7,0.8-3.3,1.5-4.9
	C298,272.2,298.9,270.8,300,269.5z M277,337.2c-0.7,1.5-1.3,3.2-1.5,4.9c1.1-1.3,2-2.8,2.7-4.3c0.7-1.6,1.2-3.2,1.5-4.9
	C278.6,334.2,277.7,335.6,277,337.2L277,337.2z M221.8,361.4c-0.7,1.6-1.3,3.2-1.5,4.9c1.1-1.3,2-2.8,2.7-4.3
	c0.7-1.6,1.2-3.2,1.5-4.9C223.4,358.4,222.5,359.9,221.8,361.4L221.8,361.4z M262.4,404.8c-0.7,1.5-1.2,3.2-1.5,4.9
	c1.1-1.3,2-2.8,2.7-4.3c0.7-1.5,1.2-3.2,1.5-4.9C264,401.8,263.1,403.3,262.4,404.8L262.4,404.8z M333.3,321
	c-0.7,1.5-1.3,3.2-1.5,4.9c1.1-1.3,2-2.8,2.7-4.3c0.7-1.6,1.2-3.2,1.5-4.9C334.9,318,334,319.4,333.3,321z M355.6,367
	c-0.7,1.6-1.2,3.2-1.5,4.9c1.1-1.3,2-2.8,2.7-4.3c0.7-1.6,1.2-3.2,1.5-4.9C357.2,364,356.3,365.4,355.6,367z M301.6,400.2
	c-0.7,1.6-1.2,3.2-1.5,4.9c2.2-2.7,3.6-5.8,4.2-9.2C303.2,397.2,302.2,398.7,301.6,400.2L301.6,400.2z M249.7,310.4
	c-0.7,1.5-1.2,3.2-1.5,4.9c2.2-2.7,3.6-5.8,4.2-9.2C251.4,307.4,250.4,308.8,249.7,310.4L249.7,310.4z M314,295.3
	c-1.5-0.7-3.2-1.3-4.9-1.5c1.3,1.1,2.8,2,4.3,2.7c1.6,0.7,3.2,1.2,4.9,1.5C317,296.9,315.6,296,314,295.3z M324.8,350
	c-1.6-0.7-3.2-1.2-4.9-1.5c1.3,1.1,2.8,2,4.3,2.7c1.6,0.7,3.2,1.2,4.9,1.5C327.8,351.6,326.3,350.7,324.8,350z M224.8,408
	c-1.5-0.7-3.2-1.2-4.9-1.5c2.7,2.2,5.8,3.6,9.2,4.2C227.8,409.6,226.3,408.7,224.8,408L224.8,408z M326.5,419
	c-1.5-0.7-3.2-1.3-4.9-1.5c1.3,1.1,2.8,2,4.3,2.7l1,0.5c0.9,0,1.8,0.1,2.7,0.2C328.7,420.1,327.6,419.5,326.5,419z M263,363.7
	c-1.5-0.7-3.2-1.3-4.9-1.5c1.3,1.1,2.8,2,4.3,2.7c1.6,0.7,3.2,1.2,4.9,1.5C266,365.3,264.6,364.4,263,363.7z M314,246.8
	c-1.5-0.7-3.2-1.3-4.9-1.5c1.3,1.1,2.8,2,4.3,2.7c1.6,0.7,3.2,1.2,4.9,1.5C317,248.4,315.6,247.5,314,246.8z M325,272.2
	c0.6,1.6,1.4,3.1,2.4,4.5c-0.1-1.7-0.5-3.4-1.1-5c-0.6-1.6-1.4-3.1-2.4-4.5C324,268.9,324.4,270.6,325,272.2z M352,398.8
	c0.6,1.6,1.4,3.1,2.4,4.5c-0.1-1.7-0.5-3.4-1.1-5c-0.6-1.6-1.4-3.1-2.4-4.5C351,395.5,351.4,397.2,352,398.8L352,398.8z M279.1,304
	c0.6,1.6,1.4,3.1,2.4,4.5c-0.1-1.7-0.5-3.4-1.1-5c-0.6-1.6-1.4-3.1-2.4-4.5C278.1,300.7,278.5,302.4,279.1,304z M300.1,359.7
	c0.6,1.6,1.4,3.1,2.4,4.5c-0.1-1.7-0.5-3.4-1.1-5c-0.6-1.6-1.4-3.1-2.4-4.5C299.1,356.4,299.5,358.1,300.1,359.7L300.1,359.7z
	 M202.7,425c0,0.2,0,0.5,0.1,0.7h0.4C203,425.5,202.8,425.3,202.7,425L202.7,425z M250.5,424.8c-0.6-1.6-1.4-3.1-2.4-4.5
	c0.1,1.7,0.5,3.4,1.1,5l0.2,0.5h1.4C250.7,425.5,250.6,425.1,250.5,424.8L250.5,424.8z M240.7,385.6c0.6,1.6,1.4,3.1,2.4,4.5
	c-0.1-1.7-0.5-3.4-1.1-5c-0.6-1.6-1.4-3.1-2.4-4.5C239.7,382.3,240.1,384,240.7,385.6L240.7,385.6z M281.9,254.5
	c0.6,1.6,1.4,3.1,2.4,4.5c-0.1-1.7-0.5-3.4-1.1-5c-0.6-1.6-1.4-3.1-2.4-4.5C280.9,251.2,281.3,252.9,281.9,254.5L281.9,254.5z
	 M327.4,383c1.6-0.6,3.1-1.4,4.5-2.4c-1.7,0.1-3.4,0.5-5,1.1c-1.6,0.6-3.1,1.4-4.5,2.4C324.2,384,325.8,383.6,327.4,383z M282.9,424
	c1.6-0.6,3.1-1.4,4.5-2.4c-1.7,0.1-3.4,0.5-5,1.1c-1.6,0.6-3.1,1.4-4.5,2.4C279.6,425,281.3,424.6,282.9,424L282.9,424z
	 M207.2,386.9c-0.1,0.4-0.2,0.8-0.3,1.2c0.8-0.4,1.6-0.9,2.3-1.4C208.5,386.7,207.9,386.7,207.2,386.9L207.2,386.9z M246,339.7
	c1.6-0.6,3.1-1.4,4.5-2.4c-3.4,0.3-6.7,1.6-9.5,3.5C242.7,340.7,244.4,340.3,246,339.7z M281.7,384.7c1.6-0.6,3.1-1.4,4.5-2.4
	c-1.7,0.1-3.4,0.5-5,1.1c-1.6,0.6-3.1,1.4-4.5,2.4C278.4,385.7,280.1,385.3,281.7,384.7L281.7,384.7z M302.9,320.1
	c1.6-0.6,3.1-1.4,4.5-2.4c-1.7,0.1-3.4,0.5-5,1.1c-1.6,0.6-3.1,1.4-4.5,2.4C299.6,321.1,301.3,320.7,302.9,320.1L302.9,320.1z
	 M347.8,294.4c1.6-0.6,3.1-1.4,4.5-2.4c-1.7,0.1-3.4,0.5-5,1.1c-1.6,0.6-3.1,1.4-4.5,2.4C344.5,295.4,346.2,295,347.8,294.4
	L347.8,294.4z M267.5,279.4c1.6-0.6,3.1-1.4,4.5-2.4c-1.7,0.1-3.4,0.5-5,1.1c-1.6,0.6-3.1,1.4-4.5,2.4
	C264.3,280.4,265.9,280,267.5,279.4L267.5,279.4z"/>
<path class="st4" d="M142.1,182.2c-0.4-8.2,1.3-45.8,4.1-56.1s13-39.6,21.2-38.2s5.8,10.1,5.8,10.1s6.3-11.7,14.4-9.6s4,15.7,4,15.7
	s7.3-11.5,15.2-8.8s1.6,15.6,1.6,15.6s6.2-10.8,11.8-5.9c6.7,5.9-6.9,24.6-9.2,36.3c-0.5,2.6-6.4,54.4-6.4,54.4L142.1,182.2z"/>
<path class="st6" d="M208.9,109.8c-10,13.8-12,21.5-13.1,38.2c0,0.3-0.5,0.4-0.5,0c-0.4-16.5,0.7-26.5,13-38.8
	C208.9,108.7,209.4,109.1,208.9,109.8z"/>
<path class="st6" d="M192.4,103c-9.2,15.2-11.4,23.6-13.9,41c0,0.2-0.5,0.2-0.4,0c1-17.3,2.3-27.3,13.5-41.3
	C192.1,102.1,192.8,102.3,192.4,103z"/>
<path class="st6" d="M173.1,98.9c-7.8,15.3-10.7,24.4-10.9,41.7c0,0.2-0.2,0.3-0.4,0.3c-0.1,0-0.2-0.1-0.3-0.3
	c-1.5-17.6,2-28.9,11-41.9C173.2,97.8,173.6,98,173.1,98.9z"/>
<path class="st4" d="M204,206.4c0,0,15.5-14.6,20.9-22.5s14.7-44.9,6.8-47.3c-10.1-3.2-19.7,17.1-23.1,27.6c0,0-23.5-7.4-33.5,5.7
	S204,206.4,204,206.4z"/>
<path class="st6" d="M228.7,136.6c-11.4,3.8-14.9,17.9-18.9,27.9c-0.2,0.5-0.8,0.8-1.3,0.6c-0.1,0-0.2-0.1-0.3-0.2
	c-10.1-2.4-24.9-2.9-33.1,4.3c-0.1,0.1-0.3,0.1-0.4,0c-0.1-0.1-0.1-0.2,0-0.3c7.7-9,22.4-9.7,33.2-6.3c4-10.3,8.2-24.3,20.7-26.1
	C228.7,136.5,228.8,136.6,228.7,136.6z"/>
<path class="st4" d="M298.8,254.5c-10.2,17.7-69.2,72.1-120.7,81.6c-7,1.3-33.6-4.3-39.1-22c-9.9-31.4-2-96.2,3.1-135.2
	c1-7.6,71.7,8,69.9,19.7c-2,12.9-9.6,60.2-8.4,60.8c4.2,2,49.5-17.6,79.1-24C303.7,230.9,306.6,240.9,298.8,254.5z"/>
<path class="st3" d="M132.1,198.2l80.6,17.4c0,0-7.3,41.2-5.9,41s58-20.9,79.8-23s21.8,7.3,10.8,25.3s-83.5,78.3-119.2,78.3
	c-18.2,0-35.1-11.6-38.4-17.2C129.6,302.8,132.1,198.2,132.1,198.2z"/>
<path class="st0" d="M132.1,198.2l80.6,17.4c0,0-7.3,41.2-5.9,41s58-20.9,79.8-23s21.8,7.3,10.8,25.3s-83.5,78.3-119.2,78.3
	c-18.2,0-35.1-11.6-38.4-17.2C129.6,302.8,132.1,198.2,132.1,198.2z"/>
<path class="st5" d="M247.6,255.6c-0.7,1.5-1.2,3.2-1.5,4.9c1.1-1.3,2-2.8,2.7-4.3c0.7-1.6,1.2-3.2,1.5-4.9
	C249.2,252.6,248.3,254,247.6,255.6z M183.6,327.6c-0.7,1.5-1.2,3.2-1.5,4.9c2.2-2.7,3.6-5.8,4.2-9.2
	C185.2,324.6,184.3,326,183.6,327.6L183.6,327.6z M136.1,278.3c-0.7,1.5-1.3,3.2-1.5,4.9c1.1-1.3,2-2.8,2.7-4.3
	c0.7-1.6,1.2-3.2,1.5-4.9C137.7,275.2,136.8,276.7,136.1,278.3L136.1,278.3z M206.3,278.5c-0.7,1.5-1.3,3.2-1.5,4.9
	c1.1-1.3,2-2.8,2.7-4.3c0.7-1.6,1.2-3.2,1.5-4.9C207.9,275.4,207,276.9,206.3,278.5L206.3,278.5z M171,298.8
	c-0.7,1.6-1.2,3.2-1.5,4.9c1.1-1.3,2-2.8,2.7-4.3c0.7-1.5,1.2-3.2,1.5-4.9C172.6,295.7,171.7,297.2,171,298.8z M174.1,249.2
	c-0.7,1.5-1.2,3.2-1.5,4.9c2.2-2.7,3.6-5.8,4.2-9.2C175.7,246.2,174.8,247.6,174.1,249.2L174.1,249.2z M138.2,212.4
	c-0.7,1.5-1.2,3.2-1.5,4.9c1.1-1.3,2-2.8,2.7-4.3c0.7-1.6,1.2-3.2,1.5-4.9C139.8,209.3,138.9,210.8,138.2,212.4z M283.2,254
	c-0.6-1.6-1.4-3.1-2.4-4.5c0.1,1.7,0.5,3.4,1.1,5c0.6,1.6,1.4,3.1,2.4,4.5C284.2,257.3,283.8,255.6,283.2,254L283.2,254z
	 M235.5,286.9c-0.6-1.6-1.4-3.1-2.4-4.5c0.1,1.7,0.5,3.4,1.1,5c0.6,1.6,1.4,3.1,2.4,4.5C236.4,290.2,236.1,288.5,235.5,286.9
	L235.5,286.9z M199.6,249.8c-0.6-1.6-1.4-3.1-2.4-4.5c0.1,1.7,0.5,3.4,1.1,5c0.6,1.6,1.4,3.1,2.4,4.5
	C200.6,253.1,200.2,251.4,199.6,249.8L199.6,249.8z M195,303.5c-0.6-1.6-1.4-3.1-2.4-4.5c0.1,1.7,0.5,3.4,1.1,5
	c0.6,1.6,1.4,3.1,2.4,4.5C195.9,306.8,195.6,305.2,195,303.5L195,303.5z M149,297.8c-0.6-1.6-1.4-3.1-2.4-4.5
	c0.3,3.4,1.5,6.7,3.5,9.5C150,301,149.6,299.4,149,297.8L149,297.8z M163.4,221.8c-0.6-1.6-1.4-3.2-2.4-4.6c0.1,1.7,0.5,3.4,1.1,5
	c0.6,1.6,1.4,3.1,2.4,4.5C164.4,225,164.1,223.4,163.4,221.8L163.4,221.8z M158,264.9c-0.6-1.6-1.4-3.1-2.4-4.5
	c0.3,3.4,1.5,6.7,3.5,9.5C159,268.2,158.6,266.5,158,264.9z M267.1,278.1c-1.6,0.6-3.1,1.4-4.5,2.4c3.4-0.3,6.7-1.5,9.5-3.5
	C270.4,277.1,268.7,277.5,267.1,278.1z M181.8,276.1c-1.6,0.6-3.1,1.4-4.5,2.4c3.4-0.3,6.7-1.5,9.5-3.5
	C185.1,275.1,183.4,275.5,181.8,276.1L181.8,276.1z M189.8,225.4c-1.6,0.6-3.1,1.4-4.5,2.4c1.7-0.1,3.4-0.5,5-1.1
	c1.6-0.6,3.1-1.4,4.5-2.4C193.1,224.4,191.5,224.8,189.8,225.4L189.8,225.4z M144.1,241.3c-1.6,0.6-3.1,1.4-4.5,2.4
	c3.4-0.3,6.7-1.6,9.5-3.5C147.4,240.3,145.7,240.7,144.1,241.3L144.1,241.3z M220.2,310c-1.6,0.6-3.1,1.4-4.5,2.4
	c3.4-0.3,6.7-1.5,9.5-3.5C223.5,309,221.8,309.4,220.2,310L220.2,310z M158.9,323.4c-1.6,0.6-3.1,1.4-4.5,2.4
	c3.4-0.3,6.7-1.5,9.5-3.5C162.2,322.4,160.5,322.8,158.9,323.4L158.9,323.4z M224.9,255.2c-1.6,0.6-3.1,1.4-4.5,2.4
	c1.7-0.1,3.4-0.5,5-1.1c1.6-0.6,3.1-1.4,4.5-2.4c-1.7,0.2-3.3,0.6-4.9,1.2L224.9,255.2z"/>
<path class="st6" d="M207.4,257c-0.4,6.2-1.9,12.2-3.2,18.2s-3.3,12-5.1,18c0,0.1-0.2,0.1-0.2-0.1c1.6-6,2.7-12.1,4-18.1
	s2.2-12.1,3.8-18.1C206.8,256.4,207.5,256.6,207.4,257z"/>
<path class="st6" d="M208,230.9c-9.3-2.3-18.8-4.1-28.2-5.9s-18.9-3.6-28.4-5.2c-5.4-0.9-10.7-1.8-16.1-2.5c-0.1,0-0.2,0.2-0.1,0.2
	c9.3,2.3,18.8,4.2,28.2,6s18.9,3.6,28.4,5.3c5.4,0.9,10.7,1.8,16.1,2.5C208.1,231.4,208.2,230.9,208,230.9z"/>
<path class="st6" d="M234.6,313.2c1.5-1.3,3.1-2.4,4.7-3.7s3-2.4,4.6-3.5c3.1-2.4,6.2-4.8,9.3-7.2c6.2-4.8,12.3-9.8,18.5-14.6
	c3.5-2.8,7-5.6,10.4-8.5c0.1,0,0.2,0,0.2,0.1c0,0,0,0.1,0,0.2c-4.2,4-8.5,7.9-12.9,11.7l1.7-0.8c1.7-0.9,3.4-1.8,5-2.7
	c0.1-0.1,0.2,0.1,0.1,0.2c-1.5,1.1-3.1,2.1-4.8,3c-0.8,0.4-1.6,0.9-2.5,1.2c-0.4,0.2-0.8,0.4-1.2,0.5l0,0c-1,0.8-2,1.7-3,2.5
	c-6.1,5-12.3,9.7-18.6,14.3c-1.8,1.3-3.5,2.5-5.3,3.7s-3.8,2.6-5.8,3.7C234.6,313.6,234.4,313.3,234.6,313.2z"/>
<polygon class="st6" points="314.6,275.4 324,261 332.9,273.1 329.3,283.7 319.2,283.9 "/>
<polygon class="st6" points="319.2,283.9 302.5,394.9 319.5,434 334.8,393.7 329.3,283.7 "/>
<path class="st4" d="M327.4,260c-9.8,2.4-26.7-12.5-33.5-24.6c-0.5-0.8,0.8-9.6,1.7-20.4c0.6-6.5,1-13.8,1-20.5l41.9,9.9
	c0,0-4,14-3.9,25.7c0,0.9,0.1,1.8,0.3,2.7c0,0.1,0,0.3,0.1,0.4C336,238.5,336.9,257.7,327.4,260z"/>
<path class="st6" d="M299.6,195.2c1.3,8.8,7.3,37.9,31.2,38.3c1.4,0,2.9,0,4.3-0.3c0-0.2,0-0.3-0.1-0.4c-0.2-0.9-0.3-1.8-0.3-2.8
	c-0.1-11.6,3.9-25.6,3.9-25.6L299.6,195.2z"/>
<path class="st4" d="M287,147.7c-3.2,15.2,8.4,57.2,19.8,65.8c16.5,12.5,41.6,11.6,51.7-7.8c9.8-18.8-6.3-73.3-18.8-80.9
	C321.2,113.6,291.7,125.3,287,147.7z"/>
<path class="st6" d="M324.4,172.6c0-0.1-0.2,0.2-0.1,0.3c0.9,2.8,1.4,6.2-0.9,7.8c-0.1,0,0,0.2,0.1,0.1
	C326.4,179.6,325.7,175.2,324.4,172.6z"/>
<path class="st6" d="M321.1,170.4c-4.6,0.9-2.5,10.1,1.8,9.3S325,169.6,321.1,170.4z"/>
<path class="st6" d="M341.5,168.4c0-0.1,0.3,0.1,0.3,0.2c0.6,2.9,1.7,6.1,4.5,6.4c0.1,0,0.1,0.2,0,0.2
	C343,175.5,341.6,171.2,341.5,168.4z"/>
<path class="st6" d="M343.4,164.8c4.5-1.4,7,7.8,2.8,9.1S339.6,166,343.4,164.8z"/>
<path class="st7" d="M316.5,167c1.1-0.6,2.2-1.3,3.3-2.1c1.2-0.8,2.3-1.3,3-2.8c0.3-0.9-0.1-1.8-0.9-2.3c-1.7-0.9-3.5-0.3-5,0.6
	c-1.6,0.9-2.8,2.3-3.4,4C312.8,166.3,314.9,167.8,316.5,167z"/>
<path class="st7" d="M345.9,159.3c-1.3,0-2.6,0-3.9-0.1c-1.5-0.1-2.7,0-4-0.9c-0.7-0.6-0.9-1.6-0.4-2.4c1-1.6,2.8-2,4.6-2
	c1.8-0.1,3.6,0.5,5,1.7c0.8,0.8,0.9,2.2,0,3C346.9,159.1,346.4,159.3,345.9,159.3z"/>
<path class="st6" d="M328.8,199.1c0.8,0.5,1.7,1.3,2.8,1.1c1.1-0.3,2.1-0.8,2.9-1.4c0.1-0.1,0.2,0,0.2,0.1c-0.6,1.3-1.8,2.2-3.3,2.4
	c-1.3,0-2.4-0.8-2.8-2C328.5,199.1,328.7,199,328.8,199.1z"/>
<path class="st6" d="M329.8,189.8c2,2,4.7,3,7.5,2.9c1.2,0,2.4-0.3,3.5-0.6c0.2-0.1,0.4-0.1,0.6-0.2c0.2-0.1,0.4-0.1,0.6-0.2
	c0.3-0.1,0.5-0.4,0.4-0.8l0,0c0-0.1,0-0.2-0.1-0.3l0,0l-0.1-0.2c-0.4-2.2-1.4-5.6-1.4-5.6c0.9,0.2,5.4,1.1,5.1,0
	c-2.8-9.4-5.8-19.9-10.5-28.6c-0.1-0.1-0.2-0.2-0.4-0.2s-0.2,0.2-0.2,0.4c2.3,9.1,6.2,17.8,8.6,27c-1.4-0.2-3.8-0.6-4.9-0.3
	c-0.3,0.2,2,6.4,2.1,7.4c0,0,0,0.1,0,0.1c-3.6,1.3-6.6,0.8-10.8-0.8C329.8,189.4,329.6,189.6,329.8,189.8z"/>
<path class="st6" d="M339.3,191.5c-0.9,1.8-2.3,3.4-4,4.5c-0.9,0.6-2,0.9-3.1,0.8c-2.4-0.2-2.9-2.3-2.8-4.2c0.1-1,0.2-2,0.5-3
	C332.8,191.2,336.1,191.9,339.3,191.5z"/>
<path class="st8" d="M335.3,196c-0.9,0.6-2,0.9-3.1,0.8c-2.4-0.2-2.9-2.3-2.8-4.2C331.9,192.4,334.7,193.6,335.3,196z"/>
<g class="st9">
	<path d="M328.9,152.9c1.5-0.1,3-0.3,4.5-0.7c1.5-0.4,2.9-1.1,4.4-1.4c2.9-0.5,5.8-0.5,8.7-0.1c0.3,0,0.2,0.2,0,0.2
		c-3.1-0.4-6.2-0.1-9.1,0.8c-2.4,0.9-4.8,1.5-7.4,1.8c-5.8,0.4-11.5,1.6-16.1,5.4 M314,158.8c4.1-3.6,9.5-5.2,14.9-5.9L314,158.8z"
		/>
	<path d="M327.9,149c1.4-0.1,2.9-0.3,4.3-0.6c1.4-0.4,2.8-1,4.2-1.4c2.7-0.5,5.5-0.5,8.3-0.1c0.2,0,0.2,0.2,0,0.2
		c-2.9-0.4-5.9-0.1-8.7,0.7c-2.2,0.9-4.6,1.4-7,1.7c-5.5,0.4-10.9,1.5-15.2,5.1c0,0-0.1,0,0,0C317.7,151.1,322.8,149.5,327.9,149z"
		/>
</g>
<path class="st7" d="M291.2,183.9c0,0-14.7-24.2-13.3-38.2c0.6-6.3,9.2-10.6,9.2-10.6s-2.6-7.7,4.5-14.4c7.5-7,25.6-5.5,25.6-5.5
	s11.8-17,28.4-10.2s5.8,25.6,5.8,25.6s6.1,8.6-8.8,15.4c-14.5,6.6-44.2,0.1-44.2,0.1c1.4,10.2,1.2,20.6-0.4,30.7
	C296.9,182.6,291.2,183.9,291.2,183.9z"/>
<path class="st7" d="M320.1,115.4c-3.7-1.5-7.7-2.2-11.7-2.1c-3.6,0-7.1,0.5-10.5,1.7c-6,2.2-11.3,6.6-12.3,13.1
	c-0.5,3.3,0.3,6.6,2.3,9.2c0.1,0.1,0.2,0,0.2-0.1c-3.9-4.8-1.8-12.2,2.1-16.2c4.5-4.5,11.4-6.2,17.5-6.5c4.1-0.1,8.3,0.3,12.3,1.2
	c0.1,0,0.2-0.1,0.2-0.2C320.2,115.5,320.2,115.5,320.1,115.4z"/>
<path class="st7" d="M357.5,113c-1.4-4.7-5.4-7.7-9.9-9.1c-5.2-1.6-10.7-1.4-15.8,0.6c-5.1,2-9.5,5.3-12.9,9.5
	c-0.1,0.1,0.1,0.2,0.2,0.1c6.2-7.4,16-11.6,25.7-9.6c4.3,0.9,8.6,3.1,10.7,7.3c1.8,3.8,1.4,8.6-0.4,12.3c-2.2,4.6-6.4,8.1-10.7,10.7
	c0,0-0.1,0.1,0,0.1c0,0,0.1,0.1,0.1,0c4.2-2.2,8-5.1,10.6-9.1C357.8,122.2,358.6,117.4,357.5,113z"/>
<path class="st4" d="M299.2,181.7c0,0-11.1-12.7-17-8.6s3.5,23.3,11.2,25.2c3.9,1.3,8.2-0.8,9.5-4.8c0-0.1,0.1-0.2,0.1-0.3
	L299.2,181.7z"/>
<path class="st6" d="M285,178.6c-0.1,0-0.1,0.2,0,0.2c5.4,1.5,8.6,6,11,10.8c-1.7-1.7-3.9-2.6-6.3-0.5c-0.1,0.1,0,0.3,0.2,0.3
	c1.8-0.8,3.9-0.4,5.2,1.1c1.1,1.2,2.1,2.4,2.9,3.8c0.3,0.4,1.1,0.1,0.9-0.4l0-0.1C298.3,187.1,292.2,178.4,285,178.6z"/>
<path class="st3" d="M323.6,187.6c-7.1,0.9-13.6-4-14.5-11.1c-0.9-7.1,4-13.6,11.1-14.5c5.9-0.8,11.5,2.5,13.7,8l0,0
	c2.6,6.7-0.6,14.2-7.3,16.9C325.6,187.2,324.6,187.4,323.6,187.6z M320.4,163.6c-0.9,0.1-1.8,0.4-2.7,0.7c-5.7,2.3-8.5,8.8-6.2,14.6
	c2.3,5.7,8.8,8.5,14.6,6.2c5.7-2.3,8.5-8.8,6.2-14.6C330.4,165.8,325.5,162.9,320.4,163.6z"/>
<path class="st3" d="M352.4,180.1c-4.9,0.6-10-3.8-11.7-10.3c-0.8-3.1-0.7-6.4,0.4-9.4c1.3-4.3,5.8-6.7,10.1-5.4
	c1.3,0.4,2.4,1.1,3.3,2c2.4,2.1,4.1,5,4.9,8.1c1.8,6.9-1,13.6-6.2,14.9C352.9,180,352.7,180.1,352.4,180.1z M347.9,156.4
	c-0.2,0-0.4,0.1-0.6,0.1c-2.1,0.7-3.8,2.3-4.5,4.4c-1,2.7-1.1,5.6-0.4,8.4c1.5,6,6.2,10,10.4,8.9s6.4-6.8,4.9-12.8
	c-0.7-2.8-2.2-5.3-4.3-7.2C351.9,156.9,349.9,156.2,347.9,156.4z"/>
<path class="st3" d="M333.9,171.5l-1.4-1c1.5-2.1,5.4-5.4,9.2-2.8l-0.9,1.4C337.3,166.9,334,171.3,333.9,171.5z"/>
<path class="st3" d="M278.8,188.9l-1.7-0.4c0.2-0.8,1.9-7.7,5.5-9.3c3.4-1.4,26.4-5.1,27.4-5.2l0.3,1.7c-6.6,1-24.3,4-26.9,5.1
	C280.9,181.9,279.2,187,278.8,188.9z"/>
<path class="st10" d="M335.1,232.4l-11.7,24l-28.4-33.2l-9.4,9.4c0,0,26.5,51.5,26.9,49.3l11.6-20.5l13.6,15.8L339,240L335.1,232.4z
	"/>
<path class="st6" d="M339.4,258.8c0-6.1,0.2-12.3,0-18.5c0-0.2-0.3-0.3-0.4-0.1c-1.6,5.8-1.6,29.3-2,34.9l-0.1-0.1
	c-0.6-0.7-12.7-13.9-12.8-13.7c-2.4,3.2-10.9,18.1-11.5,19.5c-4.2-8.2-20.4-38-25.5-45.8c-0.1-0.1-0.2-0.1-0.3-0.1s-0.1,0.2-0.1,0.3
	c3.6,8.6,25,48.7,25.3,48.6c0.2,0.2,10.8-18.2,12.1-21.7c2,2.8,14.1,17.7,14.2,16.8C339,272.3,339.4,265.5,339.4,258.8z"/>
<path class="st4" d="M446.7,415.3c-10.1,14.4-37.5,17.1-105.8,30.5c-9.5,1.9-40.5-61.4-30.5-63.9c12.6-3.1,62.1-12.6,65.9-12.9
	C407.5,367.1,453.5,405.5,446.7,415.3z"/>
<path class="st4" d="M324,378.8c0,0-29,4.4-43.5,11.4c-19.4,9.4-32.3,25.5-37.3,32.6c-10.4,14.8-25.5,57.7-13.9,64.1
	c10.5,5.9,23.6-38.8,23.6-38.8s-20.9,43.3-7,48s26.2-48,26.2-48s-20.5,45-5.3,47.6c11.5,2,25.3-45.1,25.3-45.1s-17.2,38.8-5.6,41.3
	c12.9,2.8,28.4-39.9,28.4-39.9c30.8,1.5,46.1-10.5,55.9-20.2C373.4,429.6,324,378.8,324,378.8z"/>
<path class="st6" d="M259.3,432.7c-2.6,5-5.3,10-7.5,15.3s-4.2,10.5-5.9,15.9c-4.1,13.2-4.7,22.2-4.6,21.6c2.2-13,9.7-31.8,11.9-37
	s4.1-10.5,6.3-15.7C259.6,432.7,259.4,432.6,259.3,432.7z"/>
<path class="st6" d="M278.3,440.3c-3.1,6.5-6.4,12.9-9.2,19.6s-4.9,13.2-7.2,20c-0.2,0.5,0.2,0.5,0.4-0.1c2.6-6.7,5.5-12.7,8.2-19.4
	s5.1-13.5,8-20C278.5,440.2,278.3,440.2,278.3,440.3z"/>
<path class="st6" d="M295.7,443.8c-5.2,9.7-8.7,20.4-11.8,31c-0.2,0.5,0.3,0.4,0.5-0.1c3.7-10.4,6.6-18.5,11.7-30.6
	C296.2,443.8,295.9,443.6,295.7,443.8z"/>
<path class="st0" d="M318,378.8l59.9,66.7c0,0,60.6-13.9,69.5-29.4c5.9-10.2-39.7-51.6-74.1-46.8L318,378.8z"/>
<path class="st5" d="M371.2,420.4c-0.3,1.7-0.8,3.3-1.5,4.9c-0.7,1.6-1.6,3-2.7,4.3C367.5,426.3,369,423.1,371.2,420.4z
	 M412.8,416.7c-0.7,1.5-1.2,3.2-1.5,4.9c2.2-2.7,3.6-5.8,4.2-9.2C414.4,413.7,413.5,415.1,412.8,416.7L412.8,416.7z M383.1,402.7
	c-1.5-0.7-3.2-1.3-4.9-1.5c1.3,1.1,2.8,2,4.3,2.7c1.6,0.7,3.2,1.2,4.9,1.5C386.1,404.3,384.7,403.4,383.1,402.7z M412.8,384.3
	c0.6,1.6,1.4,3.1,2.4,4.5c-0.1-1.7-0.5-3.4-1.1-5c-0.6-1.6-1.4-3.1-2.4-4.5C411.7,381,412.1,382.7,412.8,384.3L412.8,384.3z
	 M352,398.8c0.6,1.6,1.4,3.1,2.4,4.5c-0.1-1.7-0.5-3.4-1.1-5c-0.6-1.6-1.4-3.1-2.4-4.5C351.1,395.5,351.4,397.2,352,398.8L352,398.8
	z M327.4,383c1.6-0.6,3.1-1.4,4.5-2.4c-1.7,0.1-3.4,0.5-5,1.1c-1.6,0.6-3.1,1.4-4.5,2.4C324.2,384,325.8,383.6,327.4,383z
	 M378.4,377.5c1.6-0.6,3.1-1.4,4.5-2.4c-1.7,0.1-3.4,0.5-5,1.1c-1.6,0.6-3.1,1.4-4.5,2.4C375.2,378.5,376.8,378.1,378.4,377.5
	L378.4,377.5z M397.3,436.1c1.6-0.6,3.1-1.4,4.5-2.4c-1.7,0.1-3.4,0.5-5,1.1c-1.6,0.6-3.1,1.4-4.5,2.4
	C394,437.1,395.7,436.7,397.3,436.1L397.3,436.1z M442.3,402.9c-1.2,0.2-2.4,0.6-3.6,1c-1.6,0.6-3.1,1.4-4.5,2.4
	c1.7-0.1,3.4-0.5,5-1.1c1.2-0.4,2.4-1,3.5-1.7C442.6,403.2,442.5,403,442.3,402.9L442.3,402.9z"/>
<path class="st6" d="M414.3,380.1c-5.5-4-21.2-13.4-41.1-10.9c-0.2,0-0.2,0.3,0,0.3c15-0.4,35.3,7.4,41,10.9
	C414.3,380.5,414.4,380.2,414.3,380.1z"/>
<path class="st6" d="M394.3,434.4c-6.2-7.7-12.8-15-19.4-22.4s-13.2-14.7-20-21.9c-3.9-4-7.7-8.1-11.7-12c-0.1-0.1-0.3,0-0.2,0.2
	c6.2,7.7,12.8,15.1,19.3,22.4s13.2,14.7,20,21.9c3.8,4.1,7.7,8.1,11.6,12C394.1,434.9,394.4,434.6,394.3,434.4z"/>
<path class="st6" d="M317.9,378c3.7-1.1,7.4-2,11.2-2.6c3.8-0.7,7.6-1.3,11.4-2c7.5-1.2,23.4-4.6,37.4-4.6c0.1,0-0.6,0.8-0.8,0.7
	c-6.6-0.4-54.2,9.1-58.1,9.4c0.2,0.2,0.3,0.5,0.4,0.8c0.1,0.2-0.1,0.4-0.3,0.3c-0.5-0.3-0.8-0.7-1.3-1.1c-0.2-0.2-0.3-0.5-0.1-0.8
	C317.7,378.1,317.8,378,317.9,378z"/>
<g class="st11">
	<path class="st0" d="M395.4,318.1v-17c0-5.4,0.4-9.5,1.3-12.2c0.8-2.8,2.5-5,5.1-6.7s6.7-2.6,12.3-2.6c3.8,0,6.5,0.6,8,1.8
		c1.5,1.2,2.7,3.6,3.5,7.1c0.9-3.9,2.4-6.6,4.4-8c2.1-1.4,5.2-2.1,9.5-2.1h6.1c4.4,0,7.7,0.5,9.9,1.5c2.1,1,3.6,2.6,4.4,4.8
		c0.8,2.2,1.2,6.8,1.2,13.6v19.8H395.4z M406.6,301h14.6c0-0.7,0-1.3,0-1.7c0-1.7-0.4-2.7-1.2-3.2c-0.8-0.5-3.2-0.7-7.1-0.7
		c-2.1,0-3.5,0.2-4.3,0.6c-0.8,0.4-1.3,0.9-1.6,1.5C406.8,298.1,406.6,299.3,406.6,301z M431.4,301h18.4c-0.1-2.4-0.5-3.9-1.1-4.6
		c-0.7-0.7-2.3-1-5-1h-6.1c-2.8,0-4.5,0.3-5.1,0.9S431.5,298.5,431.4,301z"/>
	<path class="st0" d="M395.4,255.2H461v17.1h-65.7V255.2z"/>
	<path class="st0" d="M395.4,219.8h13.1l39.4,12.7v-12.7H461v31.5h-9.5l-43-13.1v11.6h-13.1V219.8z"/>
	<path class="st0" d="M395.4,177.2H461v15l-29.9,8.9H461v14.3h-65.7v-14.3l29.6-9.6h-29.6V177.2z"/>
	<path class="st0" d="M395.4,170.3v-28.5h13.1v11.4H421v-10.7h12.5v10.7h14.4v-12.5H461v29.6H395.4z"/>
	<path class="st0" d="M415.2,99.6v15.9h-4.9c-2.3,0-3.7,0.2-4.3,0.6s-0.9,1.1-0.9,2c0,1,0.4,1.8,1.3,2.3s2.1,0.8,3.8,0.8
		c2.2,0,3.8-0.3,5-0.9c1.1-0.6,2.4-2.2,4-4.8c4.5-7.6,8.2-12.4,11.1-14.4c2.9-2,7.6-3,14-3c4.7,0,8.1,0.5,10.3,1.6
		c2.2,1.1,4.1,3.2,5.6,6.3c1.5,3.1,2.3,6.8,2.3,11c0,4.6-0.9,8.5-2.6,11.7c-1.7,3.2-3.9,5.3-6.6,6.3c-2.7,1-6.5,1.5-11.4,1.5h-4.3
		v-15.9h8c2.5,0,4-0.2,4.7-0.7c0.7-0.4,1.1-1.2,1.1-2.4s-0.4-2-1.3-2.5c-0.9-0.6-2.2-0.8-4-0.8c-3.9,0-6.4,0.5-7.6,1.6
		c-1.2,1.1-3.2,3.7-6,8c-2.8,4.2-4.9,7.1-6.1,8.4c-1.3,1.4-3,2.5-5.3,3.4c-2.2,0.9-5.1,1.4-8.6,1.4c-5,0-8.7-0.6-11-1.9
		c-2.3-1.3-4.1-3.4-5.5-6.2c-1.3-2.9-2-6.3-2-10.4c0-4.4,0.7-8.2,2.1-11.3c1.4-3.1,3.2-5.2,5.4-6.2s5.9-1.5,11.1-1.5H415.2z"/>
</g>
<g class="st11">
	<path class="st6" d="M399,458v48.3h-11l-6.5-22v22H371V458h10.5l7,21.8V458H399z"/>
	<path class="st6" d="M432.9,475.8h-12.6v-4.4c0-2.8-0.1-4.5-0.4-5.2s-0.8-1-1.7-1c-0.8,0-1.3,0.3-1.6,0.9c-0.3,0.6-0.4,2.1-0.4,4.6
		v23.2c0,2.2,0.1,3.6,0.4,4.3c0.3,0.7,0.8,1,1.7,1c0.9,0,1.5-0.4,1.9-1.2c0.3-0.8,0.5-2.3,0.5-4.5v-5.7h-2.5v-7.3h14.7v25.9H425
		l-1.2-3.5c-0.9,1.5-1.9,2.6-3.2,3.4s-2.8,1.1-4.6,1.1c-2.1,0-4.1-0.5-5.9-1.5s-3.2-2.3-4.2-3.8c-1-1.5-1.6-3.1-1.8-4.8
		s-0.4-4.2-0.4-7.5v-14.4c0-4.6,0.2-8,0.7-10.1c0.5-2.1,1.9-4,4.3-5.7c2.4-1.7,5.4-2.6,9.1-2.6c3.7,0,6.7,0.8,9.2,2.3
		c2.4,1.5,4,3.3,4.7,5.4c0.7,2.1,1.1,5.1,1.1,9.1V475.8z"/>
	<path class="st6" d="M466.5,486.3c0,4.9-0.1,8.3-0.3,10.3c-0.2,2-0.9,3.9-2.1,5.5c-1.2,1.7-2.8,3-4.9,3.8c-2,0.9-4.4,1.3-7.2,1.3
		c-2.6,0-4.9-0.4-7-1.3c-2.1-0.8-3.7-2.1-5-3.8c-1.3-1.7-2-3.5-2.2-5.5s-0.4-5.5-0.4-10.4V478c0-4.9,0.1-8.3,0.3-10.3
		c0.2-2,0.9-3.9,2.1-5.5c1.2-1.7,2.8-3,4.9-3.8c2-0.9,4.4-1.3,7.2-1.3c2.6,0,4.9,0.4,7,1.3c2.1,0.8,3.7,2.1,5,3.8
		c1.3,1.7,2,3.5,2.2,5.5c0.2,2,0.4,5.5,0.4,10.4V486.3z M453.9,470.4c0-2.2-0.1-3.7-0.4-4.3c-0.2-0.6-0.8-0.9-1.5-0.9
		c-0.7,0-1.2,0.3-1.5,0.8c-0.3,0.5-0.5,2-0.5,4.5V493c0,2.8,0.1,4.5,0.3,5.2c0.2,0.7,0.8,1,1.6,1c0.9,0,1.4-0.4,1.6-1.1
		c0.2-0.8,0.4-2.6,0.4-5.4V470.4z"/>
</g>
<g class="st11">
	<path class="st6" d="M505,864l46.9,4.9v13.7c-7.2,1.3-15.4,2.4-24.6,3.3c3.9,0.4,12.1,1.5,24.6,3.1v13.6l-46.9,4.9v-10.7l16.4-1.2
		l15.8-1.1c-8.2-0.4-18.9-1.4-32.2-3v-11.4c1.4-0.2,6.5-0.6,15.5-1.2l17.9-1.2c-11.4-0.6-22.5-1.6-33.3-3.1V864z"/>
	<path class="st6" d="M532.4,836.7c4.7,0,8.1,0.1,10,0.3c2,0.2,3.8,0.8,5.4,1.9c1.6,1.1,2.9,2.5,3.7,4.3c0.9,1.8,1.3,3.9,1.3,6.3
		c0,2.3-0.4,4.3-1.2,6.1s-2.1,3.2-3.7,4.3c-1.6,1.1-3.4,1.7-5.4,2c-1.9,0.2-5.3,0.3-10.1,0.3h-8c-4.7,0-8.1-0.1-10-0.3
		s-3.8-0.8-5.4-1.9s-2.9-2.5-3.7-4.3c-0.9-1.8-1.3-3.9-1.3-6.3c0-2.3,0.4-4.3,1.2-6.1c0.8-1.8,2.1-3.2,3.7-4.3
		c1.6-1.1,3.4-1.7,5.4-2c1.9-0.2,5.3-0.3,10.1-0.3H532.4z M517,847.7c-2.2,0-3.6,0.1-4.2,0.3c-0.6,0.2-0.9,0.7-0.9,1.3
		c0,0.6,0.2,1,0.7,1.3c0.5,0.3,1.9,0.5,4.4,0.5h21.9c2.7,0,4.4-0.1,5-0.3c0.6-0.2,1-0.7,1-1.4c0-0.7-0.4-1.2-1.1-1.4
		c-0.7-0.2-2.5-0.3-5.2-0.3H517z"/>
</g>
<g class="st11">
	<path class="st6" d="M505,821.6h37.5V815h9.4v17.7H505V821.6z"/>
</g>
<g class="st11">
	<path class="st6" d="M532.4,788c4.7,0,8.1,0.1,10,0.3c2,0.2,3.8,0.8,5.4,1.9c1.6,1.1,2.9,2.5,3.7,4.3c0.9,1.8,1.3,3.9,1.3,6.3
		c0,2.3-0.4,4.3-1.2,6.1s-2.1,3.2-3.7,4.3c-1.6,1.1-3.4,1.7-5.4,2c-1.9,0.2-5.3,0.3-10.1,0.3h-8c-4.7,0-8.1-0.1-10-0.3
		s-3.8-0.8-5.4-1.9s-2.9-2.5-3.7-4.3c-0.9-1.8-1.3-3.9-1.3-6.3c0-2.3,0.4-4.3,1.2-6.1c0.8-1.8,2.1-3.2,3.7-4.3
		c1.6-1.1,3.4-1.7,5.4-2c1.9-0.2,5.3-0.3,10.1-0.3H532.4z M517,799c-2.2,0-3.6,0.1-4.2,0.3c-0.6,0.2-0.9,0.7-0.9,1.3
		c0,0.6,0.2,1,0.7,1.3c0.5,0.3,1.9,0.5,4.4,0.5h21.9c2.7,0,4.4-0.1,5-0.3c0.6-0.2,1-0.7,1-1.4c0-0.7-0.4-1.2-1.1-1.4
		c-0.7-0.2-2.5-0.3-5.2-0.3H517z"/>
	<path class="st6" d="M505,759.4h46.9v9.6l-21.3,5.7h21.3v9.2H505v-9.2l21.1-6.2H505V759.4z"/>
</g>
<g class="st11">
	<path class="st6" d="M505,732.9h9.4v6.5h37.5v11h-37.5v6.5H505V732.9z"/>
</g>
<g class="st11">
	<path class="st6" d="M505,713.5l46.9-6.3v11.2l-8.4,0.6v3.9l8.4,0.7V735l-46.9-5.6V713.5z M535.1,719.4c-5.3,0.6-11.9,1.1-19.7,1.7
		c9,1.1,15.6,1.8,19.7,2.1V719.4z"/>
	<path class="st6" d="M505,705.4v-7.8c0-5.2,0.2-8.7,0.7-10.5c0.4-1.8,1.6-3.3,3.4-4.5c1.8-1.2,4.7-1.7,8.7-1.7
		c3.7,0,6.1,0.4,7.4,1.2s2,2.4,2.3,4.8c0.6-2.2,1.4-3.6,2.4-4.4c1-0.7,1.9-1.2,2.8-1.4c0.8-0.2,3.2-0.3,6.9-0.3h12.4v10.2h-15.6
		c-2.5,0-4.1,0.2-4.7,0.5c-0.6,0.4-0.9,1.3-0.9,2.8h21.2v11H505z M513,694.4h10.4c0-1.2-0.2-2.1-0.6-2.6c-0.4-0.5-1.6-0.7-3.7-0.7
		h-2.6c-1.5,0-2.5,0.2-2.9,0.7C513.2,692.3,513,693.1,513,694.4z"/>
	<path class="st6" d="M505,665.6h46.9v11H505V665.6z"/>
</g>
<g class="st11">
	<path class="st6" d="M505,642.3l46.9-6.3v11.2l-8.4,0.6v3.9l8.4,0.7v11.4l-46.9-5.6V642.3z M535.1,648.1
		c-5.3,0.6-11.9,1.1-19.7,1.7c9,1.1,15.6,1.8,19.7,2.1V648.1z"/>
</g>
<g class="st11">
	<path class="st6" d="M505,614.9h9.4v6.5h37.5v11h-37.5v6.5H505V614.9z"/>
</g>
<path class="st6" d="M575,923.5h176.1c0.7-6.7-26.2-149.8-57.9-195.9c-3.6-5.2-34.4-9-45.7,4C587.6,800.4,573.6,921.8,575,923.5z"/>
<path class="st12" d="M697.4,739.5c5,13,23.9,58.4,34.1,91c6.9,21.9,9.5,40.2,11,45c0,0-52-16.7-63.7-16.7c-18,0-47,37.6-39.9,42.3
	c11.2,7.4,64.3,32.7,106.8,40.6c23.1,4.3,66.6-25,63.1-48.4c-4.8-32.7-64-119-86.5-143.5C710.7,737.1,691.3,723.7,697.4,739.5z"/>
<path class="st6" d="M812,900.2c-1.1,23.6-30.6,43.4-47.7,44.5c-29.5,1.8-118-24-118-24l34.4-66.3c0,0,60.2,20.4,61.8,21l0,0
	c-0.5-1.8-15.4-57.5-22-76c-0.4-1-0.8-2.1-1.2-3.2c-1.9-5.1-4.5-11.9-7.4-19.2v0c-1.6-4-3.3-8.3-5-12.4l0,0
	c-7.3-18.1-14.4-35.3-14.4-35.3c10.1,1.7,20.2,7,36.6,24.2S813.8,861.3,812,900.2z"/>
<path class="st3" d="M669.2,906.4c2.5-4.7,5-9.4,7.4-14s4.9-9.2,7.3-13.7c2.7-4.7,5.1-9.5,7.3-14.4c0-0.1-0.1-0.2-0.2-0.1
	c-3,4.2-5.7,8.5-8.2,13c-2.6,4.6-5.2,9.2-7.8,13.9s-4.9,9.2-7.3,13.8c-2.6,4.7-4.8,9.7-6.7,14.7c-0.1,0.2,0.2,0.4,0.3,0.2
	C664.4,915.5,666.9,911,669.2,906.4z"/>
<path class="st3" d="M760.9,885.3l-18.4-9.8l0,0l0,0c-0.5-1.8-15.4-57.5-22-76c-0.4-1-0.8-2.1-1.2-3.2c-1.9-5.1-4.5-11.9-7.4-19.2
	L760.9,885.3z"/>
<path class="st3" d="M776.1,893.3c-5.1-3.8-10.5-7.2-16.1-10.3c-2.8-1.6-5.6-3-8.5-4.3c-3.1-1.4-6.4-2.4-9.4-3.8
	c-0.2-0.1-0.4,0.3-0.2,0.4c2.9,1.3,5.6,3.1,8.4,4.6s5.7,3.1,8.6,4.6c5.7,2.9,11.4,6.1,17.1,9.1c0.1,0,0.2,0,0.2-0.1
	C776.2,893.4,776.2,893.4,776.1,893.3z"/>
<path class="st12" d="M762.7,879.1c-4.6,0.1-32.5-7.4-36.5-3.6c-24.7,23.3-32.6,18.6-37.8,21.7c-40.8,23.5-95.2,51-114.6,51.2
	c-29.5,0.2-41.2-24.5-36.3-47.8c9.7-46.2,72-136.2,100.1-160.2c14.9-12.7,13.8,6.4,7.6,27.2c-3.6,12.2-10,30.3-16.4,48
	c-5.7,15.8-20.9,56.3-21.2,57.2l0,0c0,0,0,0.1,0,0.1s0.1,0.1,0.3,0.1c1.3-0.2,36.2-16.7,71.2-25.7c12.3-3.2,38.1-7.7,47.3-3.6
	c5.5,2.5,5.6,5.7,5.6,5.7s4.4-0.4,9,3.4c1.9,1.6,3.3,3.7,4,6.1c0,0,4.8,0.7,7.3,3.5c1.8,1.9,2.9,4.3,3.2,6.8
	C762,871,762.7,879.1,762.7,879.1z"/>
<path class="st6" d="M721.5,848.5c-3.7,0.1-7.4,0.5-11,1.2c-0.2,0-0.2,0.4,0,0.4c3.6-0.4,7.2-0.5,10.8-0.6s7.2-0.2,10.8-0.1l0,0
	C728.7,848.8,725.1,848.5,721.5,848.5z"/>
<path class="st6" d="M744.9,858.8c-6.4-1.8-11.5-2.7-19.5-1.7c-0.3,0-0.2,0.4,0,0.4c7.6-0.5,12.6,0.3,19.5,1.5
	C744.9,858.9,745,858.8,744.9,858.8z"/>
<path class="st6" d="M755.5,869.1c-5.8-2.5-12.1-3.6-18.4-3.5c-0.2,0-0.3,0.4-0.1,0.4c6.2,0.6,12.4,1.7,18.4,3.3
	C755.5,869.4,755.6,869.2,755.5,869.1z"/>
<path class="st6" d="M677.3,847.7c-3.1,0.5-6.1,1.2-9.1,2c-3.2,0.8-6.4,1.7-9.5,2.7c-6.2,2.1-12.3,4.5-18.3,7.3
	c-0.1,0-0.2,0.2-0.1,0.3s0.2,0.2,0.3,0.1l0,0c6.1-2.1,12.3-4.1,18.4-6.1c3-1,6-2,9.1-3s6.3-1.8,9.4-2.9
	C677.6,848,677.6,847.7,677.3,847.7z"/>
<path class="st6" d="M653,854.3c6.5-2.2,9.4-2.2,9.4-2.2l36.6,61.9c0,0-101,36.4-121.7,38.5s-44.3-14.2-44.7-40.2
	c-0.6-36.6,59.1-124.5,89.1-158.5c13.8-15.6,29.8-26.9,33.9-24.3c4.8,3-3.9,22.6-8.6,37.2c-8.5,27-39.1,106.3-39.1,106.3
	S645.3,857,653,854.3z"/>
<path class="st3" d="M662,852.1c-5.7,0.3-30.3,8.9-42.3,14.1c-12,5.1-23.6,11.3-34.4,18.6c-6.1,4.1-12,8.7-17.7,13.3
	c-0.2,0.2,0,0.5,0.2,0.3c21.4-14.8,44.4-27.3,68.5-37.3c6.9-2.7,18.7-6.7,25.5-8.5C663.6,852.2,662.2,852.1,662,852.1z"/>
<path class="st3" d="M637.8,798c-1.5,2.5-3.1,5-4.4,7.6l-0.2,0.4c1.9-5.9,3.8-11.9,5.6-17.9c0.1-0.4-0.5-0.6-0.6-0.2
	c-8.7,22-16.7,44.2-24.5,66.5c-2.2,6.2-4.1,12.5-6.1,18.8c-0.1,0.2,0.3,0.3,0.4,0.1c2.4-5.4,4.8-10.8,7-16.3s4.2-11,6.3-16.6
	c3.6-9.7,7-19.4,10.3-29.2c1-1.7,2.1-3.4,3-5.2c1.4-2.5,2.6-5.2,3.8-7.9c0-0.1,0-0.3-0.2-0.3C637.9,797.9,637.8,797.9,637.8,798z"/>
<path class="st3" d="M674.4,900.6c-2.7-4.6-5.3-9.2-8-13.7s-5.2-9-7.8-13.5c-2.6-4.7-5.3-9.3-8.4-13.8c0,0-0.1-0.1-0.1,0
	s-0.1,0.1,0,0.1c1.9,4.7,4.2,9.4,6.7,13.8c2.5,4.7,5.1,9.3,7.7,13.9s5.2,9,7.9,13.5c2.7,4.7,5.7,9.2,9,13.4c0.1,0.2,0.5,0,0.3-0.2
	C679.6,909.5,677.1,905,674.4,900.6z"/>
<path class="st3" d="M700.5,914.2c-3-6-7.8-11.9-11.3-17.6c-0.1-0.2-0.5,0-0.3,0.2c3.1,5.4,6.1,11.2,9.1,16.6
	c-13.9,5.7-28.6,10.8-42.8,15.8c-14.5,5.2-29.1,10-43.9,14.3c-8.3,2.4-16.6,5-24.9,7.2c-0.5,0.1-0.4,0.6,0.2,0.5
	c15-2.8,29.7-7.2,44.2-11.8c14.8-4.7,29.4-9.9,43.9-15.4C682.9,921,700.7,914.7,700.5,914.2z"/>
<path class="st12" d="M676.4,847.8c-19.1,4.9-41,12.9-50.8,16.8l-0.7,0.3c-8.7,3.4-14,5.9-15.3,6.1c-0.1,0-0.2-0.1-0.3-0.2l0,0
	c-0.8-0.6-1.7-1.1-2.7-1.5c-2.4-0.9-25.9-3.8-25.3-11.1s10.1-6.8,11.5-6.7c-1.5-0.3-14.3-3.3-10.1-9.7c2.9-4.5,15.5-3.8,16.8-3.8
	c-1.3-0.4-13-4.2-9-10.7c2.9-4.7,17-4,18.6-3.8c-1.3-0.5-11.8-2.2-6.9-7.8c3.4-3.9,29.9,0.1,41.7,6
	C661.5,830.5,676.4,847.8,676.4,847.8z"/>
<path class="st6" d="M625.6,864.6l-0.7,0.3c-4.1-3.2-19.5-11.3-31.6-12.9c-0.8-0.1-0.8-0.5,0-0.5
	C608.2,852.1,621.6,860.9,625.6,864.6z"/>
<path class="st6" d="M600.1,838.6c16.7,3.3,24.2,7,38.6,16.1c0.2,0.1,0.4-0.2,0.2-0.3c-13.4-10-21.7-15-38.7-16.2
	C599.4,838.1,599.3,838.4,600.1,838.6z"/>
<path class="st6" d="M609.6,824c16,4.3,24.5,8,37.4,18.4c0.3,0.2,0.7-0.1,0.4-0.4c-12.2-11.8-22.7-16.5-37.6-18.4
	C608.8,823.4,608.6,823.7,609.6,824z"/>
<path class="st12" d="M689.9,759.7c-9.5,3.4-27.9-9.6-35.9-20.9c-0.5-0.8-0.3-9.7-0.4-20.4c-0.1-6.5-0.4-13.8-1.2-20.5l42.8,5.4
	c0,0-2.5,14.4-1.1,25.9c0.1,0.9,0.3,1.8,0.6,2.7c0,0.1,0.1,0.3,0.1,0.4C696.1,737.4,699,756.4,689.9,759.7z"/>
<path class="st6" d="M694.7,732.3c0.1,0.3,0.2,0.6,0.2,0.9c-25.6-1.1-35.3-12.3-41.6-23.1c-0.2-4.1-0.5-8.3-0.9-12.2l42.8,5.4
	c0,0-2.5,14.4-1.1,25.9c0.1,0.9,0.3,1.8,0.6,2.7C694.6,732,694.6,732.1,694.7,732.3z"/>
<path class="st12" d="M634.8,653c-2.3,15.3,11.7,56.6,23.5,64.6c17.2,11.5,42.2,9.1,51.1-10.8c8.7-19.3-10.5-72.8-23.5-79.7
	C667,617,638.2,630.3,634.8,653z"/>
<path class="st6" d="M674.3,671.6c-0.1-0.1-0.2,0.2-0.1,0.3c1,2.8,1.7,6.1-0.5,7.8c-0.1,0.1,0,0.2,0.1,0.2
	C676.7,678.4,675.8,674,674.3,671.6z"/>
<path class="st6" d="M670.9,669.5c-4.6,1.2-2,10.2,2.3,9.2S674.7,668.5,670.9,669.5z"/>
<path class="st6" d="M691.5,666.4c0-0.1,0.3,0.1,0.3,0.2c0.7,2.8,2,6,4.9,6.2c0.1,0,0.1,0.2,0,0.2
	C693.5,673.4,691.7,669.2,691.5,666.4z"/>
<path class="st6" d="M693.2,662.7c4.4-1.7,7.4,7.3,3.3,8.9S689.5,664.1,693.2,662.7z"/>
<path class="st6" d="M666.1,666.4c1.1-0.7,2.1-1.5,3.2-2.3c1.2-0.9,2.3-1.5,2.8-2.9c0.2-0.9-0.2-1.8-1-2.2c-1.7-0.8-3.5-0.1-5,0.9
	c-1.5,1-2.7,2.5-3.2,4.2c-0.3,1.1,0.4,2.3,1.6,2.6C665,666.8,665.6,666.7,666.1,666.4z"/>
<path class="st6" d="M695.3,657.1c-1.3,0.1-2.6,0.1-3.9,0.1c-1.5,0-2.7,0.2-4-0.6c-0.7-0.6-0.9-1.5-0.6-2.4c0.9-1.7,2.7-2.2,4.5-2.3
	c1.8-0.2,3.6,0.3,5.1,1.4C698,654.5,697.1,656.9,695.3,657.1z"/>
<path class="st6" d="M680.9,697.7c0.9,0.5,1.8,1.2,2.9,1c1-0.3,2-0.9,2.8-1.6c0.1,0,0.1,0,0.2,0c0,0,0,0.1,0,0.1
	c-0.5,1.4-1.7,2.3-3.1,2.6c-1.3,0-2.4-0.7-2.9-1.8C680.5,697.8,680.8,697.7,680.9,697.7z"/>
<path class="st6" d="M681.4,688.4c2.1,1.8,4.9,2.7,7.7,2.4c1.2-0.1,2.4-0.4,3.5-0.8c0.2-0.1,0.4-0.2,0.6-0.3
	c0.2-0.1,0.4-0.2,0.6-0.3c0.3-0.2,0.4-0.5,0.4-0.8l0,0c0-0.1-0.1-0.2-0.1-0.3l0,0l-0.1-0.2c-0.6-2.2-1.7-5.4-1.7-5.4
	c0.9,0.2,5.5,0.8,5.1-0.3c-3.3-9.2-7-19.5-12.2-28c-0.1-0.1-0.2-0.2-0.4-0.1s-0.2,0.2-0.1,0.4c2.8,9,7.2,17.4,10.2,26.4
	c-1.4-0.1-3.8-0.4-4.9-0.1c-0.3,0.2,2.4,6.2,2.6,7.2c0,0,0,0.1,0,0.1c-3.5,1.5-6.6,1.2-10.8-0.2C681.3,688,681.2,688.2,681.4,688.4z
	"/>
<path class="st6" d="M639.3,682.1c2.4-2,5.5-12.1,6.9-16.3c1.5-4.4-2.9-22-4.3-27.3c-3.7,4.1-6.2,9.2-7.1,14.7
	C633.8,659.6,635.8,670.9,639.3,682.1z"/>
<path class="st6" d="M679.7,643.6c-2,4.5-6.2,7.5-11.1,8.2c-4.8,0.6-10.2-1.3-13-5.2c-0.1-0.1-0.3,0-0.2,0.1c3.1,4.2,8,7,13.3,6.2
	c5.1-0.8,9.4-4.3,11.3-9.2c0-0.1,0-0.2-0.1-0.3S679.8,643.5,679.7,643.6z"/>
<path class="st6" d="M656,614.1c-7.8,2.4-13.8,8.9-15.1,15.1c-0.7,3.5-0.2,7.2,1.4,10.4c0.1,0.1,0.3,0,0.3-0.1
	c-2.1-6-0.7-12.7,3.6-17.4c4.6-5.3,11.4-8.2,18.4-7.8c3.4,0.2,6.5,1.5,9,3.8c0.2,0.2,0.8-0.1,0.6-0.4
	C670.6,613.3,663.1,611.9,656,614.1z"/>
<path class="st6" d="M706.7,618c-2.4-3.5-6-6.1-10.1-7.2c-5.7-1.6-11,0.4-16.3,2.5c-0.1,0-0.1,0.1-0.1,0.2c0,0.1,0.1,0.1,0.2,0.1
	c4.5-1.8,9.1-3.3,14-2.4c4,0.8,7.6,2.9,10.3,6c5.4,6.7,5,16.4-1,22.6c-3.4,3.4-8.1,5.3-12.9,5.2c-0.2,0-0.2,0.3,0,0.3
	c8.8,0.5,17.2-5.8,18.6-14.6C710.1,626.3,709.1,621.7,706.7,618z"/>
<path class="st6" d="M634.7,661.8c0,0-11.5-12-7.5-21.9c2.2-5.6,14.2-8.3,14.2-8.3s1.9-7.8,11-12.8s22.5-2.6,22.5-2.6s7.8-8,18-5.5
	c14.2,3.5,17.9,22.6,7.3,32c-7.5,6.6-21.3,2.3-21.3,2.3c-1.1,0.5-10.7,10.7-22.3,2.9c0,0-5.3,8.3-12.9,5.7
	C643.7,653.5,642.3,660.8,634.7,661.8z"/>
<path class="st12" d="M649,686.3c0,0-11.9-12.1-17.5-7.6s4.9,23.1,12.6,24.6c4,1.1,8.1-1.3,9.2-5.3c0-0.1,0.1-0.2,0.1-0.3L649,686.3
	z"/>
<path class="st6" d="M634.6,683.9C634.6,683.9,634.5,683.9,634.6,683.9c-0.1,0.2-0.1,0.2,0,0.2c5.5,1.2,8.9,5.5,11.7,10.1
	c-1.8-1.6-4.1-2.3-6.3-0.1c-0.1,0.1,0,0.3,0.2,0.2c1.7-0.9,3.9-0.6,5.3,0.8c1.2,1.1,2.2,2.3,3.1,3.7c0.3,0.4,1.1,0,0.8-0.5l-0.1-0.1
	C648.3,691.7,641.7,683.4,634.6,683.9z"/>
<path class="st10" d="M694.5,731.4l-9.1,25.2l-31.8-30l-8.3,10.3c0,0,31.8,48.4,32,46.2l9.3-21.6l15.2,14.2l-2.6-37.1L694.5,731.4z"
	/>
<path class="st6" d="M701.6,757.2c-0.6-6.1-1.1-12.3-2-18.3c0-0.2-0.4-0.3-0.4,0c-1,6,1.5,29.3,1.7,34.9l-0.1-0.1
	c-0.6-0.6-14.1-12.5-14.2-12.3c-2.1,3.5-8.9,19.2-9.4,20.6c-5-7.7-24.3-35.6-30.2-42.8c-0.1-0.1-0.2-0.1-0.3-0.1s-0.1,0.2-0.1,0.3
	c4.5,8.2,30,45.8,30.4,45.7c0.3,0.2,8.8-19.2,9.8-22.9c2.3,2.6,15.9,16.1,15.9,15.2C702.8,770.7,702.4,763.9,701.6,757.2z"/>
<path class="st6" d="M363.1,550.9c8.4-2,30.2,3.7,37.6,14.8s7.1,29.4,3.4,31.2s-19.8,0.7-30.9-5.2S358.9,551.8,363.1,550.9z"/>
<path class="st6" d="M363,550.9c-0.3-0.1-0.3-0.5,0-0.5c7.4-0.3,15.3,2.1,22.4,4c5.7,1.5,11.6,3.4,16.2,7.2
	c4.5,3.6,7.3,9.1,7.4,14.8c0.3,6.5-0.5,14.4-3.6,20.2c-0.1,0.2-0.4,0.1-0.4-0.1c3.2-12.4,6-27.4-6.4-35.6
	C388.3,553.9,375,553.3,363,550.9z"/>
<path class="st6" d="M402.8,593.8c7.4,0.8,26.8,14.6,30.2,28.6s-7.6,34.9-11.2,36.5s-20.1-11.7-25.6-21.5c-3.7-6.5-1-14.3,0.5-22
	C399,604,401.7,593.6,402.8,593.8z"/>
<path class="st6" d="M391.8,635.7c-2.4-14.3,5.5-28.6,10.1-41.5c0-0.1,0.3-0.1,0.2,0.1c-2.5,12.4-9.8,23.7-9.8,36.6
	c0,7.7,2.8,15.2,9.2,19.8c5.5,4,12.5,5.8,18.9,7.9c0.4,0.2,0.2,0.8-0.3,0.6C407.4,655.2,394.3,650.4,391.8,635.7z"/>
<path class="st6" d="M404.4,595c-0.4-0.2-0.1-0.8,0.2-0.6c10.6,4.8,23.3,11.9,29.1,22.4c6.3,11.4,0.4,23.6-4.9,34
	c-0.1,0.1-0.3,0-0.2-0.1c5.2-10.6,10.6-23.8,3.5-34.9C426.1,606.3,414.4,599.8,404.4,595z"/>
<path class="st6" d="M421,658.4c-4.6,3-11,12.1-11.6,22.2c-1.1,17.1-7.8,14.5-25.7,20.8c-15.2,5.4-16.7,23.1-7.5,30.9
	c0,0-5.9-10.2,4-16.6c11.9-7.5,41.9,2.7,54.4-16.4C450.7,674.5,421,658.4,421,658.4z"/>
<path class="st6" d="M415.1,666.9c0.2-0.3-0.2-0.6-0.4-0.3c-1.9,2.3-3.4,5-4.3,7.8c-1.2,3.7-0.9,7.6-1.9,11.4
	c-2.4,9.6-13.6,10.4-21.6,11.8c-10.8,1.9-18.8,9.4-18.3,20.9c0,0.1,0.1,0.1,0.1,0.1s0.1-0.1,0.1-0.1c-0.2-7.2,3.6-14,9.9-17.5
	c6.1-3.3,13.4-2.6,19.8-4.9c4.4-1.5,8.7-3.9,10.3-8.5c0.9-2.5,0.9-5.3,1.2-7.9C410.6,675,412.4,670.6,415.1,666.9z"/>
<path class="st6" d="M424,660.2c-0.1-0.1-0.2,0.1-0.1,0.2c6.8,5.4,13.9,10.9,16.5,19.6c2.9,9.3-1.1,19.4-8,25.9
	c-7.7,7.3-17.1,5.1-26.6,4.3c-6.9-0.6-13.9-0.7-20.4,2.3c-0.2,0.1,0,0.4,0.2,0.3c10.5-3.6,20.6-1.4,31.3-0.8
	c8.8,0.5,15.2-3.2,20.1-10.4C447.8,685.6,438.6,669.5,424,660.2z"/>
<path class="st0" d="M369.4,543c2.3-3,6.9,0.6,4.6,3.6S367.1,546,369.4,543z"/>
<path class="st0" d="M367.2,548c2.3-3,6.9,0.6,4.6,3.6S364.9,551.1,367.2,548z"/>
<path class="st0" d="M364.1,552.7c2.3-3,6.9,0.6,4.6,3.6S361.8,555.7,364.1,552.7z"/>
<path class="st0" d="M360.6,556.7c2.3-3,6.9,0.6,4.6,3.6S358.3,559.7,360.6,556.7z"/>
<path class="st0" d="M356.3,560.1c2.3-3,6.9,0.6,4.6,3.6S354,563.2,356.3,560.1z"/>
<path class="st0" d="M351.7,562.7c2.3-3,6.9,0.6,4.6,3.6S349.4,565.7,351.7,562.7z"/>
<path class="st13" d="M347.2,617.3c-12.7,15.6-80.8,65-138.2,64.1c-19.5-0.3-73.7-83.6-83.7-115.2c-7.2-22.7,41.1-34.2,54.7-30.9
	c17,4.1,50.2,75.5,56.8,76c19.5,1.4,53-10.4,94.1-14.6C352,594.5,357,605.2,347.2,617.3z"/>
<path class="st13" d="M127.2,571.3c-3.6-7.9-20.7-51.9-22.1-63.2s-3-44.2,5.6-46.1s9.8,7.6,9.8,7.6s1.5-14,10.3-15.2
	s10.2,13.8,10.2,13.8s2.6-14.2,11.5-14.8s7.8,14.8,7.8,14.8s1.8-13.1,9.2-10.5c9,3.2,3,27,5.5,39.4c0.6,2.8,15.4,56.2,15.4,56.2
	L127.2,571.3z"/>
<path class="st6" d="M160.4,467c-4.4,17.5-3.2,26,2.3,42.9c0.1,0.3-0.4,0.6-0.5,0.2c-7-16.1-9.9-26.4-2.7-43.4
	C159.9,465.9,160.6,466.1,160.4,467z"/>
<path class="st6" d="M141.4,466.9c-3,18.6-1.8,27.8,2.7,45.9c0.1,0.3-0.4,0.4-0.4,0.1c-6-17.4-8.6-27.9-3.2-46.1
	C140.7,466.1,141.6,466.1,141.4,466.9z"/>
<path class="st6" d="M120.8,470.6c-1.6,18.2-0.7,28.4,5.9,45.4c0.1,0.2,0,0.4-0.2,0.5c-0.2,0.1-0.4,0-0.5-0.2
	c-8.5-16.7-9.6-29.3-5.9-45.7C120.5,469.5,120.9,469.4,120.8,470.6z"/>
<path class="st13" d="M202.4,561.7c0,0,2.6-22.5,1.4-32.7s-19-46.5-27.1-43c-10.4,4.4-4.2,27.4,0.3,38.3c0,0-24.1,10.2-23.2,27.7
	S202.4,561.7,202.4,561.7z"/>
<path class="st6" d="M174.4,488.1c-6.6,10.9,0.3,24.8,3.9,35.6c0.2,0.5,0,1.1-0.5,1.3c-0.2,0.1-0.3,0.1-0.5,0.1
	c-9.8,5-22.2,14.8-23.8,26.3c0,0.1-0.2,0.2-0.3,0.2c-0.1,0-0.2-0.1-0.2-0.2c0.1-12.6,11.5-23.2,22.6-28
	c-3.9-11.1-10.1-25.3-1.2-35.4C174.3,488,174.4,488,174.4,488.1z"/>
<path class="st10" d="M265.9,605.6l23.7,54.8c0,0,35.8-17,57.6-39.1s-2.4-29.4-23.5-26.2S265.9,605.6,265.9,605.6z"/>
<path class="st14" d="M347.2,621.4c-21.8,22-57.6,39.1-57.6,39.1l-7.2-16.7l72.2-41.8C357.2,606.4,355.8,612.8,347.2,621.4z"/>
<path class="st6" d="M298.5,652.8c-11.7-22-18.6-42.8-20.5-47.1c-0.1-0.2,0.2-0.3,0.3-0.1c1.6,4.2,12.9,27.5,20.5,47.1
	C299,652.9,298.6,653,298.5,652.8z"/>
<path class="st10" d="M292.9,713.9l-9.7,74.2h155.3c0,0-20.5-139.1-53.7-181.9c-16.6-21.4-38.8-20.8-54.5-4.5
	c-3.4,3.6-38.1,53.1-44.2,73.6C280.7,693.4,292.9,713.9,292.9,713.9z"/>
<path class="st6" d="M338.1,609.2l-9.8,26.3c-3.2,8.8-6.4,17.6-9.3,26.4c-2.8,8.9-6.1,17.8-4.8,26.8c1.2,9.1,4.1,17.9,8.8,25.8
	l0.2,0.4l0,0.4c-1.3,11.8-2.9,23.6-4.4,35.3s-3.1,23.5-4.8,35.3c1-11.8,2.1-23.6,3.2-35.5c1.2-11.8,2.3-23.6,3.6-35.4l0.2,0.8
	c-4.9-8.2-8.2-17.3-9.5-26.8c-0.6-4.8-0.2-9.7,1-14.4c1.2-4.6,2.6-9.1,4.1-13.5c3-8.9,6.5-17.6,10.1-26.2S334.2,617.7,338.1,609.2z"
	/>
<path class="st6" d="M316.5,643.5c-0.2,1.2,0.5,2.4,1.7,2.7c1.1,0.2,2.2-0.6,2.4-1.8c0,0,0-0.1,0-0.1c0.2-1.2-0.5-2.4-1.7-2.7
	c-1.2-0.2-2.2,0.6-2.4,1.8C316.5,643.4,316.5,643.4,316.5,643.5z"/>
<path class="st6" d="M307,669.1c-0.2,1.2,0.5,2.4,1.7,2.7c1.1,0.2,2.2-0.6,2.4-1.8c0,0,0-0.1,0-0.1c0.2-1.2-0.5-2.4-1.7-2.7
	c-1.2-0.2-2.2,0.6-2.4,1.8C307.1,669,307.1,669.1,307,669.1z"/>
<path class="st6" d="M305.9,695.2c-0.2,1.2,0.5,2.4,1.7,2.7c1.2,0.2,2.2-0.6,2.4-1.8c0,0,0-0.1,0-0.1c0.2-1.2-0.5-2.4-1.7-2.7
	c-1.2-0.2-2.2,0.6-2.4,1.8C305.9,695.1,305.9,695.2,305.9,695.2z"/>
<path class="st6" d="M313.1,716.8c-0.2,1.2,0.5,2.4,1.7,2.7c1.2,0.2,2.2-0.6,2.4-1.8c0,0,0-0.1,0-0.1c0.2-1.2-0.5-2.4-1.7-2.7
	C314.4,714.8,313.3,715.6,313.1,716.8C313.1,716.8,313.1,716.8,313.1,716.8z"/>
<path class="st6" d="M310.3,740.5c-0.2,1.2,0.5,2.4,1.7,2.7c1.1,0.2,2.2-0.6,2.4-1.8c0,0,0-0.1,0-0.1c0.2-1.2-0.5-2.4-1.7-2.7
	c-1.2-0.2-2.2,0.6-2.4,1.8C310.3,740.4,310.3,740.4,310.3,740.5z"/>
<path class="st6" d="M307.7,763.8c-0.2,1.2,0.5,2.4,1.7,2.7c1.2,0.2,2.2-0.6,2.4-1.8c0,0,0-0.1,0-0.1c0.2-1.2-0.5-2.4-1.7-2.7
	c-1.2-0.2-2.2,0.6-2.4,1.8C307.7,763.7,307.7,763.7,307.7,763.8z"/>
<path class="st13" d="M338.9,869.4c7.8,5.3,21-18.1,25.5-23.1s6.4-4.9,6.1-1l10.2-40.5c-5.3,4.1-16.5,12.9-22.4,18.7
	C350.2,831.3,331,864.1,338.9,869.4z"/>
<path class="st13" d="M397.4,612.2c33.2,26.8,75,73.8,83.5,104.2c6.6,23.5-26.4,105-36.3,124c-4.3,8.3-61.1-17-63.6-26.6
	s37.1-79.9,37.5-87.4s-25.5-56.7-43.2-90C354,596.2,369.2,589.5,397.4,612.2z"/>
<path class="st13" d="M344.4,892.6c5.2,5.7,15.8-1.2,15.8-1.2s-9.4,11.6-2,16.2s17.4-5.4,17.4-5.4s-8.1,11.2-0.4,15.1
	s17.6-4.7,17.6-4.7s-0.5,4.3,6.1,4.7c9.6,0.5,23.3-15,28.5-24.8s17.1-49.6,18.8-55.8l-62.7-34.1l-2.9,2.2l-10.2,40.5
	c-0.2,2.5-7.4,18-10,22.5C354.6,877.9,338.5,886.3,344.4,892.6z"/>
<path class="st6" d="M360.6,890.9c14.1-10.7,18.4-17.7,24.5-34c0.1-0.3,0.6-0.2,0.5,0.1c-4.5,16.5-8.7,26.1-24.5,34.6
	C360.3,892,359.9,891.4,360.6,890.9z"/>
<path class="st6" d="M374.9,902.5c13.6-12.3,18.4-20,26-36.5c0.1-0.2,0.5-0.1,0.4,0.2c-6.1,16.9-10.5,26.4-25.7,37
	C375,903.6,374.3,903.1,374.9,902.5z"/>
<path class="st6" d="M392.8,912.4c12.3-12.9,17.9-21.1,23.3-38.1c0.1-0.2,0.3-0.2,0.4-0.2c0.1,0.1,0.2,0.2,0.2,0.3
	c-3.8,17.9-10.6,28.1-23.5,38.3C392.4,913.4,392.1,913.2,392.8,912.4z"/>
<path class="st10" d="M391.2,685.4l47.9-35.7c0,0-24.9-30.9-51.4-47s-28,9.2-20,29S391.2,685.4,391.2,685.4z"/>
<path class="st6" d="M429.5,642.7c-18.7,16.5-37.4,28-41.1,30.8c-0.2,0.1-0.4-0.2-0.2-0.3c3.8-2.5,23.8-18.9,41-30.8
	C429.5,642.3,429.7,642.6,429.5,642.7z"/>
<path class="st6" d="M382.8,665.1c-2.9-6.5-6.9-16.1-10.2-22.4c0-0.1-0.2,0-0.1,0.1c1.3,3.7,2.8,7.4,4.3,11.1
	c-0.1-0.2-0.2-0.4-0.4-0.6c-1.2-1.7-2.4-3.4-3.8-5c0,0-0.1,0-0.1,0.1c1,1.9,2.1,3.7,3.3,5.4c0.7,1.1,1.5,2.2,2.3,3.2
	c0.8,1.9,2.8,6.7,3.6,8.6c1.4,3.2,8.3,21.4,8.6,21.2s3-2.1,4.8-3.6c0.2-0.2-0.1-0.6-0.4-0.4c-0.9,0.7-3,2.2-3.4,2.4
	c-1.6-3.3-2.9-6.8-4.3-10.1S384.2,668.4,382.8,665.1z"/>
<path class="st13" d="M362.6,596c-0.8,2.8-15.1,20.2-27.8,18.9c-4.1-0.4-2.8-23.1-2.8-23.1l-0.3-1.7l-4-23.8l28.5-16.3l4.1-2.1
	c0,0,0.7,6.6,1.4,14.8c0,0.4,0.1,0.8,0.1,1.2s0.1,0.9,0.1,1.3c0.1,1.2,0.2,2.5,0.4,3.7c0.1,0.9,0.2,1.9,0.2,2.9s0.1,2,0.2,3
	C363.2,584.6,362.9,594.8,362.6,596z"/>
<path class="st6" d="M361.7,562.6c-5.5,13.1-16.5,23.1-30.1,27.4l-4-23.8l28.5-16.2l4.1-2.1C360.3,547.9,361,554.4,361.7,562.6z"/>
<path class="st13" d="M297.9,524.3c-8.6,41.5,15.2,51.3,24.2,53.1c8.1,1.7,36,6.3,48.8-34s-3.7-57.4-22.1-62.2
	S306.5,482.9,297.9,524.3z"/>
<path class="st6" d="M311.8,514.6c1,0,1.9,0,2.9-0.1c1,0.1,2.1-0.1,3-0.7c0.5-0.5,0.6-1.2,0.3-1.8c-0.8-1.1-2.1-1.7-3.5-1.5
	c-1.4,0-2.7,0.5-3.7,1.3c-0.6,0.6-0.6,1.7,0,2.3C311.1,514.4,311.5,514.6,311.8,514.6z"/>
<path class="st6" d="M340.3,520.9c-0.9-0.3-1.8-0.7-2.7-1.1c-1-0.2-1.9-0.8-2.6-1.6c-0.3-0.6-0.2-1.3,0.3-1.8
	c1.1-0.8,2.6-0.9,3.8-0.2c1.3,0.4,2.4,1.3,3.1,2.5c0.4,0.8,0.1,1.8-0.7,2.2C341.1,521,340.7,521,340.3,520.9z"/>
<path class="st6" d="M333,529.9c0-0.1,0.2,0.2,0.2,0.3c-0.6,2.8-0.9,6.1,1.5,7.6c0.1,0,0,0.2,0,0.2
	C331.6,536.9,331.9,532.5,333,529.9z"/>
<path class="st6" d="M336.1,527.4c4.6,0.5,3.2,9.7-1.1,9.2S332.2,527,336.1,527.4z"/>
<path class="st6" d="M337.8,528.2c0.7,0.6,1.4,1.7,2.3,1.9c1.1,0.3,2.1-0.6,3-1.4c0.1-0.1,0.2,0,0.1,0.1c-0.2,1.8-1.2,3.5-3.1,3.5
	c-1.8,0-2.8-1.8-2.9-3.6C337.2,528.4,337.5,527.9,337.8,528.2z"/>
<path class="st6" d="M315.6,525.9c0-0.1-0.2,0.1-0.2,0.2c-0.3,2.9-1.2,6.1-3.9,6.7c-0.1,0-0.1,0.2,0,0.2
	C314.6,533,315.7,528.7,315.6,525.9z"/>
<path class="st6" d="M313.5,522.6c-4.5-1-6.2,8.1-2,9.1S317.3,523.4,313.5,522.6z"/>
<path class="st6" d="M311.5,522.8c-0.8,0.3-1.7,1.1-2.6,1s-1.6-1.2-2-2.3c0-0.1-0.1,0-0.2,0.1c-0.4,1.7-0.1,3.7,1.5,4.3
	c1.5,0.6,2.9-0.7,3.6-2.4C311.9,523.2,311.8,522.7,311.5,522.8z"/>
<path class="st6" d="M326.5,551.6c-0.8,0.6-1.5,1.5-2.6,1.4c-1.1-0.1-2.1-0.5-3-1c0,0-0.1,0-0.1,0c0,0,0,0.1,0,0.1
	c0.7,1.2,2,2,3.5,1.9c1.2-0.2,2.2-1.1,2.5-2.3C326.9,551.6,326.6,551.5,326.5,551.6z"/>
<path class="st6" d="M316.3,539.4c0,0-1.3,4.2-1.6,6.2c0,0.2,0.4,0.4,1.1,0.5c0,0,0,0,0.1,0c3.4,1.2,7.2,0.5,9.8-2
	c0.2-0.2,0-0.4-0.2-0.3c-3,1.5-6,1.5-9.1,1c0-0.6,2.4-7,2.1-7.1c-1.1-0.3-3.4,0.1-4.7,0.3c2.4-8.7,6.2-17,8.5-25.7
	c0.1-0.1,0-0.3-0.1-0.4s-0.3,0-0.4,0.1c-4.6,8.4-7.6,18.3-10.4,27.3C311.1,540.4,315.5,539.6,316.3,539.4z"/>
<path class="st6" d="M329.4,486.5c0,0-2.3,6.1-0.5,10.9c3.6,9.8,15.1,8.4,18.6,12.5c3.3,3.8,1.3,10.9,4.3,14.7
	c4.1,5.2,10.4,4,10.9,7.3s1.6,13.8,5.6,15.5s29.5-65-24.6-68c0,0-7.1-3.7-19.1,1c-13.3,5.2-20.8,25.5-20.8,25.5s0.3-0.2,2.3-1.7
	c2.8-2,4-4.1,6.1-5.4c3.2-2,4.8-1,8.1-3C325.2,492.6,329.4,486.5,329.4,486.5z"/>
<path class="st6" d="M330.5,483.6c-1.1,2.6-1.9,5.3-2.4,8.1c-0.6,2.7-0.5,5.5,0.4,8.1c1.2,2.4,3.2,4.3,5.7,5.4
	c2.5,1.2,5.3,1.7,7.9,3.1c1.4,0.7,2.5,1.8,3.4,3.1c0.7,1.3,1.1,2.8,1.2,4.3c0.3,2.8,0.6,5.6,2.3,7.8c1.7,2.2,4.2,3.6,6.9,3.7
	c2.7,0.3,5.8-0.2,8.3,1.2c-2.6-1.2-5.5-0.5-8.4-0.6c-3-0.1-5.8-1.4-7.7-3.7c-2-2.3-2.3-5.5-2.7-8.2c-0.1-1.3-0.5-2.6-1.1-3.8
	c-0.7-1.1-1.7-2-2.9-2.5c-2.4-1.3-5.2-1.9-7.8-3.2c-1.3-0.6-2.6-1.5-3.6-2.5c-1.1-1-2-2.2-2.5-3.7c-0.8-2.8-0.8-5.8-0.1-8.6
	C328.2,488.8,329.2,486.1,330.5,483.6z"/>
<path class="st6" d="M329.2,485.9c-0.8,2.5-1.9,4.9-3.3,7.2c-1.4,2.4-3.5,4.3-6,5.4c-1.3,0.5-2.5,0.9-3.9,1.1
	c-1.2,0.3-2.2,0.8-3.1,1.7c-0.8,1.1-1.7,2.1-2.6,3c-1.1,0.8-2.3,1.4-3.6,1.7c1.2-0.5,2.3-1.2,3.2-2.2c0.9-1,1.6-2,2.3-3.1
	c0.9-1.1,2.2-1.9,3.6-2.2c1.2-0.3,2.5-0.6,3.6-1.1c2.3-1.1,4.2-2.8,5.6-4.8C326.6,490.4,328,488.2,329.2,485.9z"/>
<path class="st13" d="M359.7,541.3c0,0,11.1-11.7,16.5-7.5s-4.3,22-11.7,23.6c-3.8,1.1-7.8-1.1-8.8-4.9c0-0.1-0.1-0.2-0.1-0.3
	L359.7,541.3z"/>
<path class="st6" d="M373.4,538.9c0.1,0,0.1,0.1,0.1,0.1c0,0,0,0.1-0.1,0.1c-5.2,1.2-8.4,5.4-11,9.8c1.7-1.6,3.9-2.3,6-0.2
	c0.1,0.1,0,0.3-0.2,0.2c-1.7-0.8-3.7-0.5-5,0.8c-1.1,1.1-2.1,2.3-2.9,3.5c-0.3,0.4-1,0-0.8-0.4l0.1-0.1
	C360.4,546.5,366.6,538.5,373.4,538.9z"/>
<path class="st10" d="M331.6,593.6l6,19.3l25.1-21.8l6,8.1c0,0-25.8,35.7-25.8,34l-6.4-16.7l-12,10.3l3.2-28.1L331.6,593.6z"/>
<path class="st6" d="M325.3,612.8c0.7-4.6,1.2-9.3,2.1-13.9c0-0.2,0.3-0.2,0.3,0c0.6,4.5-2.1,22.2-2.5,26.5h0.1
	c0.5-0.4,11.1-9,11.2-8.9c1.5,2.7,6.2,14.9,6.5,16c4.1-5.7,19.6-26.2,24.3-31.5c0.1-0.2,0.4,0,0.3,0.2c-3.7,6-24.3,33.8-24.5,33.7
	c-2.5-5.8-4.8-11.7-6.7-17.7c-1.8,1.9-12.6,11.7-12.6,11C324,623.1,324.5,617.9,325.3,612.8z"/>
<path class="st0" d="M846.4,579.4c-0.1-0.5-0.1-0.9-0.2-1.3c0.1,0.5,0.2,1.1,0.3,1.6C846.4,579.6,846.4,579.5,846.4,579.4z"/>
<path class="st0" d="M773.3,592.3c0.2,0.2,0.5,0.3,0.8,0.4l0.1-0.2l0,0C773.9,592.4,773.7,592.4,773.3,592.3
	C773.4,592.3,773.4,592.3,773.3,592.3z"/>
<path class="st15" d="M669,388.1c-45.8,51.6-101.4,157.9-88.9,178.3c13.8,22.6,80-50.8,77.7-54.1c-1.9-2.8,19.6-66.5,35.2-113
	S680.3,375.4,669,388.1z"/>
<path class="st3" d="M669,388.1c-45.8,51.6-101.4,157.9-88.9,178.3c13.8,22.6,80-50.8,77.7-54.1c-1.9-2.8,19.6-66.5,35.2-113
	S680.3,375.4,669,388.1z"/>
<path class="st10" d="M675.2,452.6c-4.5,13.6-8.6,26.3-11.7,36.5c-7.1,0.3-27.8-0.8-49.3-21.5c6.5-11.5,13.5-23,20.7-34
	C640.2,439.3,653.4,450.4,675.2,452.6z"/>
<path class="st3" d="M624.8,589.9l11.5-78c0,0-18.5-32.2-7.7-55.4c5.4-11.7,42.5-68.9,62.4-83.4c18.7-13.6,44.4-1.2,53.1,10.6
	c25.1,34,37.3,95.2,51.3,206.2L624.8,589.9z"/>
<path class="st6" d="M658.3,409.1c-3.8,5.2-7.5,10.5-11.1,15.8c1-2.1,2-4.1,3-6.2c0.1-0.1-0.1-0.3-0.2-0.1c-1.3,2.6-2.6,5.2-3.8,7.9
	c-4.8,7.1-9.5,14.4-14,21.8c-2,3.1-3.6,6.3-5,9.7c-1.2,3.3-2.1,6.8-2.4,10.4c-0.4,3.5-0.5,7.1-0.2,10.6c0.2,3.6,0.8,7.3,1.5,10.8
	c0.9,4.1,2.2,8,3.8,11.8c0.8,1.9,1.7,3.7,2.6,5.5c0.8,1.6,2.6,5,2.5,5.2c-0.3,1.9-0.7,3.2-0.9,4.8l-0.7,4.8
	c-0.5,3.2-4.6,34.4-5.1,37.6c-0.9,6.4-1.7,12.7-2.5,19.1c-0.5,3.7-0.7,7.3-1.2,11c0,0.2,0.2,0.2,0.2,0.1c0.5-3.2,1.3-6.3,1.9-9.5
	s1.2-6.3,1.8-9.5c1.2-6.4,5.8-40.8,6.8-47.3l0.8-5.3c0.4-2,0.6-4,0.7-6c0,0-5.7-11.7-7.9-20c-1-3.5-1.8-7-2.3-10.6
	c-0.4-3.5-0.4-7-0.1-10.5c0.3-3.5,0.9-7,2-10.4c1.2-3.4,2.7-6.7,4.5-9.9c3.7-6.6,7.7-13.1,11.7-19.6c4.6-7.3,9.2-14.6,13.9-21.8
	C658.6,409,658.4,409,658.3,409.1z"/>
<path class="st15" d="M580.1,566.4c11.7,15,41.5,16.4,116.2,27.1c10.3,1.5,40.3-68.7,29.4-70.8c-13.8-2.7-68-10.2-72-10.2
	C619.7,512,572.1,556.2,580.1,566.4z"/>
<path class="st15" d="M710.7,520c0,0,31.6,3.1,47.7,9.9c21.5,9.1,36.4,25.8,42.2,33.1c12.1,15.4,30.8,61,18.6,68.6
	c-11,7-27.8-40.6-27.8-40.6s25.1,45.7,10.2,51.6s-31.1-50.4-31.1-50.4s24.7,47.5,8.5,51.2c-12.3,2.8-29.9-47.4-29.9-47.4
	s20.9,41,8.4,44.4c-13.8,3.8-33-41.5-33-41.5c-33.2,3.3-50.4-8.7-61.6-18.7C660.2,577.7,710.7,520,710.7,520z"/>
<path class="st6" d="M783.8,574.7c3.1,5.2,6.3,10.6,9,16.1s5.1,11.1,7.3,16.9c5.2,14.1,6.3,23.7,6.2,23.1
	c-3.1-13.9-12.3-33.8-15-39.3s-5-11.2-7.7-16.7C783.5,574.6,783.7,574.5,783.8,574.7z"/>
<path class="st6" d="M763.7,583.9c3.7,6.9,7.7,13.6,11.1,20.6s6,14,8.9,21.2c0.2,0.5-0.2,0.5-0.4-0.1c-3.2-7.1-6.7-13.4-10-20.5
	s-6.3-14.3-9.8-21.2C763.5,583.9,763.6,583.8,763.7,583.9z"/>
<path class="st6" d="M745,588.8c6.2,10.2,10.5,21.6,14.5,32.9c0.2,0.6-0.3,0.4-0.5-0.1c-4.6-11-8.2-19.7-14.4-32.5
	C744.5,588.8,744.9,588.5,745,588.8z"/>
<path class="st3" d="M734.6,520.6l-61.5,72.4c0,0-84-5.8-93.7-28s54.3-54.4,74.2-52.7C673.5,514,734.6,520.6,734.6,520.6z"/>
<path class="st6" d="M621.2,521.9c4.8-3.3,18.5-11.1,32.4-9.6c0.1,0,0.1,0.1,0.1,0.1c0,0.1-0.1,0.1-0.1,0.1
	c-11.3,0.3-27.3,6.7-32.2,9.5c-0.1,0-0.1,0-0.1-0.1C621.2,521.9,621.2,521.9,621.2,521.9z"/>
<path class="st6" d="M660.1,580.4c24.2-25.6,45.7-56.2,49.8-61.2c0.2-0.2-0.2-0.5-0.4-0.3c-3.8,5.2-32.2,37.5-49.9,61.2
	C659.4,580.4,659.8,580.7,660.1,580.4z"/>
<rect x="565.8" y="447.3" transform="matrix(0.2001 -0.9798 0.9798 0.2001 17.5498 1020.8542)" class="st0" width="136.3" height="104.7"/>
<rect x="640.4" y="408.7" transform="matrix(0.2011 -0.9796 0.9796 0.2011 93.0175 980.972)" class="st10" width="15" height="49.6"/>
<polygon class="st10" points="662.7,428.9 656.7,427.6 658.1,420.8 643.5,417.8 642.1,424.6 636.1,423.4 638.7,411 665.3,416.5 "/>
<path class="st15" d="M756.3,399.9c49.4,62.9,68,175.8,40.6,184.6c-25,8-128.1-17.8-158.8-28.2c-9-3.1,18.8-73.2,28.5-69.9
	c11.7,3.9,75.4,19,76.6,19.1c2.7,0.1-11.5-69.5-17.6-101C717.2,360.6,737.8,376.3,756.3,399.9z"/>
<path class="st15" d="M584.3,460.1c-5.2,5.9-1,12.9-1,12.9s-6.1,1.6-9.2,6.8c-3.5,6,4.2,14.1,4.2,14.1c-3.7,2-6.6,5-8.5,8.7
	c-2.8,6,3.8,15.4,3.8,15.4s-3.9,5.7-2.7,12.4c2.2,11.5,18.8,18,29.3,22.2s44.3,6.5,50.7,7.5l27.9-67.3c0,0-41.7-32.5-54.8-35.7
	C613,454.6,590.1,453.4,584.3,460.1z"/>
<path class="st6" d="M584.2,472.1c12.4,0.1,24.1,3.9,36,6.9c0.1,0,0.2,0.2,0.1,0.3c0,0.1-0.1,0.1-0.2,0.1c-11.8-3.2-24.1-4-36-6.8
	c-0.2-0.1-0.2-0.2-0.2-0.4C583.9,472.2,584.1,472.1,584.2,472.1z"/>
<path class="st6" d="M578.9,493.2c2.8,0.1,5.6,1.1,8.2,2c2.9,0.9,5.7,1.8,8.5,2.8c5.7,2,11.3,4.1,16.8,6.4c0.2,0.1,0.2,0.5-0.1,0.4
	c-5.7-2-11.3-3.8-17-5.6c-2.9-0.9-5.7-1.7-8.6-2.5c-2.7-0.8-5.6-1.3-8-2.7c-0.2-0.1-0.3-0.4-0.2-0.6
	C578.6,493.3,578.7,493.2,578.9,493.2z"/>
<path class="st6" d="M573.8,518.2c2.4,0,5,1.3,7.3,2.2c2.6,1,5.1,1.9,7.7,2.8c5.2,1.9,10.3,3.7,15.5,5.4c0.3,0.1,0.2,0.5-0.1,0.4
	c-5.3-1.7-10.6-3.3-15.9-5l-7.8-2.6c-2.2-0.8-5-1.4-6.8-3C573.7,518.3,573.7,518.2,573.8,518.2C573.8,518.2,573.8,518.2,573.8,518.2
	z"/>
<path class="st3" d="M742.3,502.6c0.8-0.5-14-67.6-19-102.6s10.7-31.6,33.2-1.7c24.1,32.1,67,118.9,52.2,183.1
	c-4.8,20.8-153.9-8.3-153.9-8.3l20.1-85.7C674.8,487.4,741.1,503.4,742.3,502.6z"/>
<path class="st10" d="M803.1,496.3c-24.3,7.1-50.7,3.5-61.5,1.5c-1.6-8.4-5.3-26.7-9.2-46.4c25.5,2.8,42.9-0.8,52.4-4
	C792.2,463.2,798.3,479.5,803.1,496.3z"/>
<path class="st6" d="M674.3,564.3c9.1-29.8,14.1-62.6,15.3-68.2c0.1-0.3-0.4-0.3-0.4-0.1c-1,5.6-10.8,42.4-15.4,68.2
	C673.8,564.5,674.2,564.6,674.3,564.3z"/>
<path class="st6" d="M770.4,512.6c-2.9-0.5-79-21.9-95.7-24.5c-0.3,0,0-0.9,0.2-0.9c51.2,9,93.2,22.7,96.4,24
	C775.2,512.7,775.7,513.5,770.4,512.6z"/>
<path class="st6" d="M741.6,503.3c0.1-0.1-5-25.8-5.9-27.4s-2.9-5.4-3.7-7.1c-1.7-3.5-3.1-7-4.6-10.5c-0.1-0.3,0.3-0.5,0.4-0.2
	c1.6,3.4,3.6,6.7,5.5,9.9c1,1.6,1.9,3.2,2.9,4.8c0.1,0.1-4.7-25.1-5.4-29.5c0-0.3,0.3-0.4,0.4-0.1c1.4,4.5,11.4,55,12.8,60.6
	C743.2,503.5,742.4,503.4,741.6,503.3z"/>
<path class="st6" d="M685.5,578.5c-5-1.4-24.9-4.6-29.7-5.3c0.5-1.8,1.9-8.9,1.8-10.9c0-0.2-0.3-0.3-0.4-0.1
	c-1.1,1.7-3.1,10.4-3.7,12.5c-0.1,0.4,26.8,3.8,32,4c0.1,0,0.1-0.1,0.1-0.1C685.6,578.5,685.5,578.5,685.5,578.5z"/>
<path class="st13" d="M678.8,379.3c0,0,2,19.7,18.3,22.8s46.9-18.4,46.9-18.4s-12.3-16.5-34.4-16.6
	C688.3,367.1,678.8,379.3,678.8,379.3z"/>
<path class="st15" d="M773.4,592.3l0.8,0.2l0,0C774,592.4,773.7,592.4,773.4,592.3z"/>
<path class="st0" d="M846.1,578c0.1,0.5,0.2,1.1,0.3,1.6c0-0.1,0-0.2,0-0.3C846.3,578.9,846.2,578.5,846.1,578z"/>
<path class="st0" d="M846.1,578c0.1,0.5,0.2,1.1,0.3,1.6c0-0.1,0-0.2,0-0.3C846.3,578.9,846.2,578.5,846.1,578z"/>
<path class="st0" d="M770,600.2L770,600.2c0.8,0.2,1.6,0.4,2.4,0.5L770,600.2z"/>
<path class="st16" d="M846.1,578c0.1,0.5,0.2,1.1,0.3,1.6c0-0.1,0-0.2,0-0.3C846.3,578.9,846.2,578.5,846.1,578z"/>
<polygon class="st3" points="672.2,262.1 672.4,246.8 669.3,247.8 "/>
<polygon class="st3" points="667.7,264.3 656.8,257.5 655.1,260.6 "/>
<polygon class="st3" points="669.8,262 659.6,242.8 655.5,245.8 "/>
<path class="st6" d="M647.2,321.5c1.6,5.4,6.5,8,11.7,8.2c0.1,0,0.3,0,0.4,0c-0.2,0.2-0.3,0.5-0.5,0.8l0,0l0,0l0,0
	c-2.3,4-2.3,8.9-0.1,12.9c0.2,0.4,0.5,0.8,0.8,1.2l0,0c2.7,3.6,7.1,5.6,11.6,5.4c1,8.2,8.6,14.2,15.8,13l0,0
	c2.7-0.5,5.1-1.8,6.9-3.8c2.1,1.7,4.4,3.1,7.2,2.9c0.8-0.1,1.6-0.4,2.4-0.4c0.8-0.1,1.5,0,2.3,0.3c0.4,0.2,0.9,0.4,1.3,0.6
	c1.2,0.7,2.5,1.2,3.9,1.7c0.4,0.1,0.9,0.2,1.3,0.4c3.8,0.9,8.1,0.5,10.7-2.5c0.9,0.8,2,1.5,3.1,2.1c4.6,2.2,10.1,1.7,14.3-1.3
	c0.7-0.5,1.3-1.1,1.8-1.7c0.8-0.9,1.3-2.2,2.4-2.7s2.6-0.3,3.8-0.4c1,0,2-0.2,2.9-0.5c2.5-0.8,4.7-3.2,4-5.8c3.5,0.5,6.6-2,8.3-4.9
	c2.1-3.9,2.5-8.5,0.9-12.6c5.1-2.3,7.4-8.4,5.1-13.5c0-0.1,0-0.1-0.1-0.2c4.6-2.9,5.3-9.8,1.5-13.8c2.3-3.9,2.5-8.7,0.5-12.8
	c-0.4-0.8-0.6-1.7-0.6-2.6c1.6-2.6,2.6-5.5,1.6-8.7c-1-3.3-3.9-5.5-7.3-5.7c-0.3-2.5-1.3-4.9-2.7-7c-2-3.2-5.6-5.1-9.3-5
	c-2-8.3-10.2-13.4-18.5-11.4c-0.4,0.1-0.8,0.2-1.2,0.3c-0.5-4.3-4.2-7.6-8.3-8.7c-5-1.4-10.1,0.3-14.5,2.5c-1.2-3.5-4.8-5.7-8.4-5.1
	c-2.8,0.5-5.1,2.4-6.1,5c-3-0.5-6.3-0.5-8.8,1.3c-2.2,1.5-3.3,4.2-2.8,6.9c-5.5-0.5-10.4,3.5-10.9,9c-0.2,1.6,0.1,3.3,0.7,4.8
	c-4.5-1.3-9.4-0.1-12.7,3.3c-3.3,3.8-4,9.2-1.7,13.7c-4.3,0.5-7.9,3.5-9.1,7.6c-1.5,4.9,0.4,10.1,3.4,14.2c-3.5,2.6-5.1,7.1-4,11.4
	c1.1,3.8,3.8,7,7.3,8.8c-4.1-0.7-7.7-2.9-9.1-7.3c-1.7-5.2,1.2-10.3,5.7-13c0,0,0-0.1,0-0.1C648.5,310.5,645.4,315.8,647.2,321.5z
	 M764.9,277.5c3.5,0.8,6.1,3.6,6.7,7.1c0.2,1.8,0,3.7-0.8,5.4c0-0.1,0-0.2,0-0.4c0.6-3.1-0.2-6.2-2.2-8.7c-0.6-0.8-1.4-1.5-2.2-2.1
	c-0.5-0.3-1.5-0.9-1.5-0.9S764.9,277.8,764.9,277.5L764.9,277.5z M709.9,248l-0.2,0.1c-2.1-2.7-5.5-3.8-8.8-2.9
	c-1.6,0.5-2.9,1.4-4,2.6l0,0c0.8-2.3,2.8-4.1,5.2-4.5C705.8,242.6,708.1,244.9,709.9,248L709.9,248z M673.5,354.5
	c2.9,4.3,7.9,6.8,13.1,6.5l0,0c2.4-0.1,4.7-0.8,6.7-2.1l0.1,0.1c-1.8,1.7-4.1,2.8-6.6,3.3l0,0C681.4,363.1,676.5,359.6,673.5,354.5z
	"/>
<path class="st13" d="M694.7,395.5c9.4,2.3,25.6-6,32.1-17.6c0.4-0.8-2.7-32.9-2.7-39.3l-40.3,9.6c0,0,3.9,13.5,3.8,24.7
	c0,0.9-0.1,1.8-0.3,2.6c0,0.1,0,0.3-0.1,0.4C686.4,380.9,685.6,393.3,694.7,395.5z"/>
<path class="st13" d="M733.3,294.9c2.5,15-10.5,55.8-22,63.8c-16.7,11.6-41.2,9.7-50.4-9.7c-8.9-18.8,9.1-71.7,21.7-78.6
	C701.1,260.1,729.6,272.7,733.3,294.9z"/>
<path class="st6" d="M691,314.5c0.1-0.1,0.2,0.2,0.1,0.3c-1,2.7-1.6,6,0.6,7.7c0.1,0,0,0.2-0.1,0.1
	C688.8,321.2,689.7,316.9,691,314.5z"/>
<path class="st6" d="M694.4,312.4c4.5,1,2.1,10-2.1,9.1S690.6,311.5,694.4,312.4z"/>
<path class="st6" d="M674.4,310c0-0.1-0.2,0.1-0.3,0.2c-0.7,2.8-1.9,5.9-4.7,6.1c-0.1,0-0.1,0.1,0,0.2
	C672.6,316.9,674.2,312.7,674.4,310z"/>
<path class="st6" d="M672.7,306.4c-4.4-1.5-7.2,7.3-3.1,8.8S676.3,307.7,672.7,306.4z"/>
<path class="st6" d="M699.8,306.4c-1.2-0.5-2.4-0.9-3.6-1.2c-1.4-0.5-2.5-1-3.9-0.6c-0.8,0.3-1.3,1.2-1.2,2.1
	c0.3,1.8,1.9,2.8,3.6,3.4c1.6,0.7,3.5,0.7,5.2,0.1C701.6,309.6,701.4,307.1,699.8,306.4z"/>
<path class="st6" d="M670.8,299.1c1.3,0.1,2.6,0.1,3.8,0c1.5,0,2.6,0.1,3.9-0.8c0.7-0.6,0.9-1.6,0.5-2.4c-0.9-1.6-2.7-2.1-4.5-2.1
	c-1.8-0.1-3.5,0.4-4.9,1.6C668.1,296.6,669.1,299,670.8,299.1z"/>
<path class="st6" d="M680.9,340.9c-0.7,0.7-1.3,1.6-2.4,1.8c-1.1,0-2.1-0.2-3.1-0.6c-0.1,0-0.2,0.1-0.1,0.1c0.9,1.1,2.3,1.7,3.7,1.5
	c1.2-0.4,2-1.4,2.2-2.6C681.2,340.8,681,340.8,680.9,340.9z"/>
<path class="st6" d="M686,331.9c-1.9,1.9-4.6,2.8-7.2,2.7c-1.2-0.1-2.3-0.3-3.4-0.6c-0.2-0.1-0.4-0.1-0.6-0.2
	c-0.2-0.1-0.4-0.1-0.6-0.2c-0.3-0.1-0.4-0.4-0.4-0.7l0,0c0-0.1,0-0.2,0.1-0.3l0,0l0.1-0.2c0.5-2.1,1.4-5.3,1.4-5.3
	c-0.9,0.2-5.2,1-4.9-0.1c2.7-9,5.8-19,10.4-27.4c0.1-0.1,0.2-0.2,0.3-0.1c0.1,0.1,0.2,0.2,0.2,0.3c-2.3,8.8-6.1,17.1-8.6,25.8
	c1.4-0.2,3.6-0.6,4.7-0.3c0.3,0.2-2,6.1-2.1,7.1c0,0,0,0.1,0,0.1c3.4,1.3,6.4,0.9,10.4-0.7C686,331.4,686.2,331.7,686,331.9z"/>
<path class="st6" d="M666.7,293.8h0.1c1.8,0.2,6.7,0.7,9.7-8.2c2.9,1.6,8.9-0.8,11.7-2.9c-0.6,10.8,9.8,18,18.9,14.5
	c-0.8,4.2-0.8,8.8,1,12.4c3,6,11,4.5,11,4.5v0.1c-1.2,2.3-1.6,5-1.1,7.5c0.1,0.6,0.3,1.2,0.5,1.8c0.4,1,0.9,1.9,1.5,2.8
	c0.9,1.3,2.2,2.3,3.6,3c0.5,0.2,1,0.4,1.6,0.6c0.4,0.1,0.8,0.2,1.2,0.2c0.2,0,0.4,0,0.6,0c0.6,0.1,1.2,0.1,1.8,0.1
	c1.7-0.1,3.5-0.5,5.1-1.2c0.5-0.2,1-0.5,1.5-0.9l0.2-0.2c0.8-0.6,1.6-1.4,2.1-2.3c2.8-4.2,2.6-10.3-0.5-13.6c3-2.1,4.6-5.6,4.4-9.3
	c0-0.6-0.1-1.1-0.2-1.7c-0.6-2.6-3.3-4.5-2.9-7.3c0.4-2.2,0.3-4.5-0.2-6.7c-0.8-3.5-3.2-6.6-6.4-8.3c-1.4-0.6-2.6-1.6-3.3-2.9
	c-0.5-0.9-1.1-1.8-1.7-2.6c-1.1-1.4-2.4-2.6-3.8-3.6c-1.7-1.2-3.7-1.9-5.7-2.3c-2.2-0.4-4.7,0.3-6.6-1c-1.7-1.1-7.6-2.1-9.7-2.2
	c-1.8,0-3.6,0.1-5.3,0.4c-2.9,0.4-5.6,1.4-8,3c0,0-4.6-0.1-9.8,4.9c-5,4.8-5.8,9.2-5.8,9.2s-1.9,0.4-3.9,3.9
	C666.1,289.5,666.5,293.7,666.7,293.8z M719.5,314.6c-0.2,2.4-0.2,4.8,0.2,7.2c0.1,0.6,0.3,1.2,0.5,1.8c0.3,0.7,0.6,1.4,1,2.1
	l0.2,0.4c-0.1-0.1-0.2-0.2-0.3-0.4c-0.6-0.7-1-1.4-1.4-2.2c-0.3-0.6-0.5-1.2-0.7-1.8C718.4,319.4,718.6,316.9,719.5,314.6z
	 M689.3,283.2c0.9,5.9,4.2,10.4,8.6,12.7C693.1,294,689.6,289.9,689.3,283.2z"/>
<path class="st17" d="M736,312.4c-6.2,4.8-15.7,3.9-22.8-1.1c-4.6-3.3-6.7-10.1-10.9-16.2c-6.9-10-24.4-13.3-18.8-27.8
	c5-12.9,27-13.1,45.2-0.9C744.8,277.3,750,301.7,736,312.4z"/>
<path class="st0" d="M685.1,331.8c0.2,0.1,0.3,0.3,0.5,0.4c0.8,0.6,1.7,1.1,2.6,1.5c1,0.4,2,0.8,3.1,0.9c7.1,1.2,13.9-3.6,15.1-10.7
	c0.1-0.8,0.2-1.5,0.2-2.3c0-0.6-0.1-1.2-0.1-1.8c-0.6-4.2-3.1-7.8-6.8-9.8c-0.3-0.1-0.6-0.3-0.8-0.4c-6.3-2.8-13.8-0.2-17,5.9
	c-0.1,0.2-0.2,0.5-0.4,0.8l0,0c-0.2,0.4-0.3,0.7-0.4,1C679.3,322.6,680.9,328.3,685.1,331.8z M683.2,317.2c2.1-4.7,7.2-7.4,12.3-6.6
	c0.9,0.2,1.8,0.4,2.7,0.8c5.7,2.6,8.3,9.3,5.8,15c-2.6,5.7-9.3,8.3-15,5.8C683.2,329.6,680.6,322.9,683.2,317.2L683.2,317.2z"/>
<path class="st0" d="M659.4,324.7c0.7,0.5,1.5,0.9,2.3,1.2c0.3,0.1,0.6,0.1,0.8,0.2c3.4,0.6,7-1.3,9.6-4.7c1.2-1.6,2.1-3.4,2.7-5.3
	c0.1-0.3,0.2-0.6,0.2-0.9c0.2-0.7,0.3-1.3,0.4-2c0.1-0.6,0.1-1.2,0.1-1.7l0,0c0-1.7-0.2-3.4-0.8-5c-0.8-2.7-2.9-4.9-5.6-5.8
	c-1.3-0.4-2.6-0.4-3.9-0.1c-1.5,0.3-2.8,1-4,1.9c-2.5,2.1-4.4,4.9-5.2,8C654.3,316.4,655.8,322.1,659.4,324.7z M657.7,311.1
	c0.8-2.8,2.4-5.3,4.6-7.1c0.7-0.5,1.4-1,2.2-1.3c1.1-0.4,2.3-0.6,3.4-0.4c0.2,0,0.4,0.1,0.6,0.1c1.9,0.6,3.5,2.1,4.2,4
	c0.1,0.2,0.2,0.4,0.3,0.7c0.5,1.5,0.7,3,0.7,4.5l0,0c0,0.4,0,0.8-0.1,1.1l0,0c0,0.2,0,0.5-0.1,0.7l0,0c-0.1,0.7-0.3,1.5-0.5,2.2
	c-1.8,6-6.6,9.9-10.9,8.6c-0.9-0.3-1.8-0.8-2.5-1.5C657.2,320.3,656.3,315.7,657.7,311.1L657.7,311.1z"/>
<path class="st0" d="M681.5,318l1.5-1c-1.4-2.2-5.2-5.6-9.2-3.2l0.9,1.5C678.3,313.2,681.4,317.9,681.5,318z"/>
<path class="st0" d="M736.7,330.8l1.6-0.6c-0.3-0.8-3-7.5-6.8-8.6c-3.6-1-24.5-1.6-25.5-1.7v1.8c6.8,0.1,22.3,0.8,25.1,1.6
	C733.7,324,736,329,736.7,330.8z"/>
<path class="st13" d="M718.7,327.6c0,0,11.4-12.1,17-7.8s-4.4,22.7-12,24.3c-3.9,1.1-8-1.2-9.1-5.1c0-0.1-0.1-0.2-0.1-0.3
	L718.7,327.6z"/>
<path class="st6" d="M732.7,325.1c0.1,0,0.1,0,0.1,0.1s0,0.1-0.1,0.1c-5.3,1.3-8.7,5.5-11.3,10.1c1.8-1.6,4-2.4,6.2-0.2
	c0.1,0.1,0,0.3-0.2,0.2c-1.7-0.9-3.8-0.5-5.2,0.8c-1.1,1.1-2.1,2.3-3,3.6c-0.3,0.4-1.1,0.1-0.8-0.4l0.1-0.1
	C719.4,332.9,725.8,324.7,732.7,325.1z"/>
<path class="st6" d="M708,264.1l-0.3,4.4c0,0.5,0.3,0.9,0.8,0.9c0,0,0,0,0,0l0,0c0.3,0,0.5-0.1,0.7-0.3c0.7-0.7,1.8-0.7,2.5-0.1
	c0.4,0.3,0.6,0.8,0.5,1.3c-0.1,1-0.9,1.7-1.8,1.6c-0.5,0-1-0.3-1.3-0.7c-0.1-0.2-0.4-0.3-0.6-0.4l0,0c-0.5,0-0.9,0.3-0.9,0.8
	l-0.3,4.4l4.4,0.3c0.5,0,0.8,0.4,0.8,0.9c0,0,0,0,0,0l0,0c0,0.3-0.1,0.5-0.4,0.6c-0.8,0.6-0.9,1.7-0.4,2.4c0.6,0.8,1.7,0.9,2.4,0.4
	c0.4-0.3,0.7-0.8,0.7-1.3c0-0.5-0.2-1-0.6-1.4c-0.2-0.2-0.3-0.4-0.3-0.7l0,0c0-0.5,0.4-0.8,0.9-0.8l4.4,0.3l0.3-4.4
	c0-0.5-0.3-0.9-0.8-0.9c0,0,0,0,0,0l0,0c-0.3,0-0.5,0.1-0.7,0.3c-0.7,0.7-1.8,0.7-2.5,0.1c-0.7-0.7-0.7-1.8-0.1-2.5
	c0.7-0.7,1.8-0.7,2.5-0.1c0.1,0.1,0.2,0.2,0.2,0.3c0.1,0.2,0.4,0.3,0.6,0.4l0,0c0.5,0,0.9-0.3,0.9-0.8c0,0,0,0,0,0l0.3-4.4l-4.4-0.3
	c-0.5,0-0.8-0.4-0.8-0.9l0,0c0-0.3,0.2-0.5,0.4-0.6c0.4-0.3,0.7-0.8,0.7-1.3c0.1-1-0.7-1.8-1.6-1.8c-1-0.1-1.8,0.7-1.8,1.6
	c0,0.5,0.2,1,0.6,1.4c0.2,0.2,0.3,0.4,0.3,0.7l0,0c0,0.5-0.4,0.8-0.9,0.8L708,264.1z"/>
<path class="st17" d="M708,264.1l4.3,0.3c0.5,0,0.9-0.3,0.9-0.8l0,0c0-0.3-0.1-0.5-0.3-0.7c-0.7-0.7-0.7-1.8-0.1-2.5
	c0.7-0.7,1.8-0.7,2.5-0.1c0.7,0.7,0.7,1.8,0.1,2.5c-0.1,0.1-0.2,0.2-0.2,0.2c-0.2,0.2-0.3,0.4-0.4,0.6l0,0c0,0.5,0.3,0.9,0.8,0.9
	l4.4,0.3l0.3-4.4c0-0.5,0.4-0.8,0.9-0.8c0,0,0,0,0,0l0,0c0.3,0,0.5,0.2,0.6,0.4c0.3,0.4,0.8,0.7,1.3,0.7c1,0.1,1.8-0.6,1.9-1.5
	c0.1-1-0.6-1.8-1.5-1.9c-0.1,0-0.1,0-0.2,0c-0.5,0-1,0.2-1.4,0.5c-0.2,0.2-0.4,0.3-0.7,0.3l0,0c-0.5,0-0.8-0.4-0.8-0.9c0,0,0,0,0,0
	l0.3-4.4l-4.4-0.3c-0.5,0-0.8,0.3-0.9,0.8c0,0,0,0,0,0l0,0c0,0.3,0.1,0.5,0.3,0.7c0.4,0.4,0.6,0.9,0.5,1.4c0,1-0.8,1.7-1.8,1.7
	s-1.7-0.8-1.7-1.8c0-0.1,0-0.1,0-0.2c0-0.5,0.3-1,0.7-1.3c0.2-0.2,0.3-0.4,0.4-0.6l0,0c0-0.5-0.3-0.9-0.8-0.9l-4.4-0.3l-0.3,4.4
	c0,0.5-0.4,0.8-0.9,0.8l0,0c-0.3,0-0.5-0.2-0.6-0.4c-0.3-0.4-0.8-0.7-1.3-0.7c-1-0.1-1.8,0.6-1.9,1.5c-0.1,1,0.6,1.8,1.5,1.9
	c0.1,0,0.1,0,0.2,0c0.5,0,1-0.2,1.4-0.5c0.2-0.2,0.4-0.3,0.7-0.3l0,0c0.5,0,0.8,0.4,0.8,0.9c0,0,0,0,0,0L708,264.1z"/>
<path class="st17" d="M754.4,288l-4.4-0.3c-0.5,0-0.9,0.3-0.9,0.8l0,0c0,0.3,0.1,0.5,0.3,0.7c0.4,0.4,0.6,0.9,0.5,1.4
	c0,1-0.8,1.7-1.8,1.7s-1.7-0.8-1.7-1.8c0-0.1,0-0.1,0-0.2c0-0.5,0.3-1,0.7-1.3c0.2-0.1,0.3-0.4,0.4-0.6l0,0c0-0.5-0.3-0.8-0.8-0.9
	c0,0,0,0,0,0l-4.4-0.3l-0.3,4.4c0,0.5-0.4,0.8-0.9,0.8c0,0,0,0,0,0l0,0c-0.3,0-0.5-0.1-0.6-0.4c-0.3-0.4-0.8-0.7-1.3-0.7
	c-1-0.1-1.8,0.6-1.9,1.5c-0.1,1,0.6,1.8,1.5,1.9c0.1,0,0.1,0,0.2,0c0.5,0,1-0.2,1.4-0.5c0.2-0.2,0.4-0.3,0.7-0.3l0,0
	c0.5,0,0.8,0.4,0.8,0.9c0,0,0,0,0,0l-0.3,4.4l4.3,0.3c0.5,0,0.9-0.3,0.9-0.8l0,0c0-0.3-0.1-0.5-0.3-0.7c-0.7-0.7-0.7-1.8-0.1-2.5
	c0.7-0.7,1.8-0.7,2.5-0.1s0.7,1.8,0.1,2.5c-0.1,0.1-0.2,0.2-0.3,0.2c-0.2,0.1-0.3,0.4-0.4,0.6l0,0c0,0.5,0.3,0.9,0.8,0.9l4.4,0.3
	l0.3-4.4c0-0.5,0.4-0.8,0.9-0.8c0,0,0,0,0,0l0,0c0.3,0,0.5,0.2,0.6,0.4c0.3,0.4,0.8,0.7,1.3,0.7c1,0.1,1.8-0.7,1.8-1.6
	c0.1-1-0.7-1.8-1.6-1.8c-0.5,0-1,0.2-1.4,0.6c-0.2,0.2-0.4,0.3-0.7,0.3l0,0c-0.5,0-0.8-0.4-0.8-0.9L754.4,288z"/>
<path class="st0" d="M723.4,267.4c-4.9,8-1.3,13-2,15.6c-0.6,1.5-1.2,3-2,4.5l7.6,6c1.3-1.1,2.6-2.1,3.9-3c2.3-1.3,8.1,1,14.7-5.6
	c4.4-4.4,6.7-14.8-1.3-21.2S726.7,262.1,723.4,267.4z"/>
<rect x="722.7" y="287.1" transform="matrix(0.7537 -0.6572 0.6572 0.7537 -8.8414 550.9432)" class="st17" width="15.8" height="0.3"/>
<rect x="716.7" y="282.4" transform="matrix(0.4658 -0.8849 0.8849 0.4658 137.0719 792.1561)" class="st17" width="15.8" height="0.3"/>
<path class="st17" d="M729.2,282.9c-0.6-0.6-0.8-1.5-0.6-2.3c0-0.1,0-0.2,0-0.2c-0.4,0-0.8-0.1-1.1-0.3c-1-0.8,0.2-3.6,0.3-3.7
	l0.2,0.1c0,0-1.2,2.9-0.3,3.5l0,0c0.3,0.2,0.7,0.4,1.1,0.3c0.3-1.5,1.2-3.1,2-3.4c0.2-0.1,0.5-0.1,0.7,0.1c0.5,0.4,0.4,1.1-0.3,2
	c-0.6,0.8-1.4,1.3-2.3,1.5c0,0.1,0,0.2,0,0.3c-0.2,0.8,0,1.6,0.5,2.1c0.9,0.4,2,0.4,2.8-0.1c0-0.1,0-0.2,0-0.4
	c0.2-1.1,0.9-2.5,1.7-2.9c0.3-0.1,0.6-0.1,0.9,0.1l0,0c0.4,0.3,0.4,0.9-0.2,1.5c-0.6,0.7-1.4,1.3-2.3,1.7c0,0.3,0.1,0.6,0.3,0.9l0,0
	c1,0.8,3.3-1.1,3.3-1.2l0.1,0.1c-0.1,0.1-2.4,2.1-3.5,1.2c-0.2-0.2-0.4-0.6-0.4-0.9l-0.1,0.1c-0.7,0.3-2,0.7-2.8,0L729.2,282.9z
	 M730.8,276.9c-0.7,0.3-1.6,1.8-1.9,3.2c0.9-0.2,1.6-0.7,2.2-1.4c0.5-0.6,0.8-1.4,0.3-1.8C731.2,276.9,731,276.8,730.8,276.9
	L730.8,276.9z M734,279.5c-0.7,0.3-1.4,1.7-1.6,2.7c0,0.1,0,0.2,0,0.3c0.8-0.4,1.6-0.9,2.2-1.6c0.3-0.3,0.6-0.9,0.2-1.3l0,0
	C734.5,279.4,734.2,279.4,734,279.5L734,279.5z"/>
<rect x="721.6" y="285.1" transform="matrix(0.6205 -0.7842 0.7842 0.6205 46.0504 677.2907)" class="st16" width="2.4" height="12"/>
<rect x="719.9" y="287.2" transform="matrix(0.6205 -0.7842 0.7842 0.6205 43.7279 676.7723)" class="st16" width="2.4" height="12"/>
<rect x="718.2" y="289.3" transform="matrix(0.6205 -0.7842 0.7842 0.6205 41.4047 676.2482)" class="st16" width="2.4" height="12"/>
<path class="st17" d="M745.7,281.2c2.8-3.9,3.4-10.1-0.3-13.6C747.8,271.8,747.1,276.8,745.7,281.2z"/>
<path class="st16" d="M699.7,288.3l0.8,1.8l1.4-0.5c0.4,0.6,0.9,1.2,1.5,1.6l-0.4,1.4l1.8,0.7l0.6-1.2c0.8,0.2,1.5,0.2,2.3,0.1
	l0.6,1.2l1.8-0.8l-0.4-1.2c0.7-0.4,1.3-1,1.7-1.6l1.2,0.4l0.7-1.8l-1.1-0.6c0.2-0.8,0.2-1.6,0-2.4l1.1-0.6l-0.8-1.8l-1.2,0.4
	c-0.4-0.7-1-1.2-1.7-1.7l0.4-1.3l-1.8-0.7l-0.6,1.2c-0.8-0.2-1.5-0.2-2.3,0l-0.7-1.3l-1.8,0.8l0.5,1.4c-0.6,0.4-1.2,0.9-1.6,1.6
	l-1.4-0.5l-0.7,1.8l1.3,0.7c-0.1,0.7-0.1,1.5,0,2.2L699.7,288.3z M702.5,286.9c-0.2-2.2,1.5-4.1,3.7-4.3c2.2-0.2,4.1,1.5,4.3,3.7
	c0.2,2.2-1.5,4.1-3.7,4.3C704.7,290.7,702.7,289.1,702.5,286.9C702.5,286.9,702.5,286.9,702.5,286.9z"/>
<path class="st16" d="M703.9,288.6l0.7,0.6l1.5-1.7l0.5-0.6c-0.1-0.1-0.2-0.1-0.3-0.2c-0.2-0.1-0.3-0.3-0.3-0.5l-0.6,0.7
	L703.9,288.6z"/>
<path class="st16" d="M705.4,286.9c0.1,0.2,0.2,0.3,0.4,0.5c0.1,0.1,0.2,0.1,0.3,0.2c0.9,0.6,2.2,0.3,2.7-0.7
	c0.6-0.9,0.3-2.2-0.7-2.7c-0.9-0.6-2.2-0.3-2.7,0.7C705,285.4,705,286.2,705.4,286.9L705.4,286.9z M706,286.2
	c-0.1-0.4-0.1-0.9,0.2-1.2c0.4-0.5,1.2-0.6,1.7-0.1c0.5,0.4,0.5,1.2,0.1,1.7c-0.4,0.4-0.9,0.5-1.4,0.3c-0.1-0.1-0.2-0.1-0.3-0.2
	C706.2,286.6,706.1,286.4,706,286.2L706,286.2z"/>
<path class="st16" d="M732.9,302.9l1,0.9l0.7-0.7c0.4,0.3,0.9,0.5,1.4,0.6l0.1,1l1.4,0v-1c0.5-0.1,1-0.3,1.5-0.6l0.7,0.6l0.9-1
	l-0.6-0.6c0.3-0.5,0.5-1,0.6-1.5l0.9-0.1V299h-0.9c-0.1-0.6-0.3-1.1-0.7-1.5l0.5-0.7l-1-0.9l-0.7,0.6c-0.5-0.3-1-0.5-1.5-0.6
	l-0.1-0.9l-1.4,0v0.9c-0.5,0.1-1,0.4-1.5,0.7l-0.8-0.6l-0.9,1l0.7,0.7c-0.3,0.4-0.5,0.9-0.5,1.5l-1,0.1v1.4h1c0.1,0.5,0.3,1,0.6,1.4
	L732.9,302.9z M734.3,301.2c-0.7-1.3-0.3-3,1.1-3.8c1.3-0.7,3-0.3,3.8,1.1s0.3,3-1.1,3.8c0,0,0,0,0,0
	C736.7,303,735,302.5,734.3,301.2C734.3,301.2,734.3,301.2,734.3,301.2L734.3,301.2z"/>
<path class="st0" d="M712.7,308l1.3,0.3l0.3-1c0.5,0,1-0.1,1.5-0.2l0.6,0.8l1.1-0.8l-0.5-0.8c0.4-0.4,0.8-0.8,1-1.3l0.9,0.1l0.3-1.3
	l-0.8-0.2c0-0.6-0.1-1.1-0.3-1.6l0.7-0.5l-0.8-1.1l-0.8,0.4c-0.4-0.4-0.8-0.8-1.4-1l0.1-0.9l-1.3-0.3l-0.2,0.8
	c-0.6,0-1.1,0.1-1.6,0.3l-0.6-0.7l-1.1,0.8l0.5,0.8c-0.4,0.4-0.7,0.8-0.9,1.3l-1-0.1l-0.3,1.3l1,0.3c0,0.5,0.1,1,0.3,1.5l-0.8,0.6
	l0.8,1.1l0.9-0.5c0.3,0.4,0.8,0.7,1.2,0.9L712.7,308z M713,305.8c-1.3-0.8-1.8-2.5-1-3.8c0.8-1.3,2.5-1.8,3.8-1
	c1.3,0.8,1.8,2.5,1,3.8c0,0,0,0,0,0C716.1,306.1,714.4,306.6,713,305.8C713,305.8,713,305.8,713,305.8L713,305.8z"/>
<path class="st3" d="M719.4,306.7l0.1,2h1.5c0.2,0.7,0.5,1.4,0.9,2l-0.9,1.2l1.5,1.3l1-1c0.7,0.4,1.4,0.7,2.2,0.8l0.2,1.3l2-0.1
	v-1.3c0.8-0.2,1.5-0.5,2.2-1l1,0.8l1.3-1.5l-0.9-0.9c0.4-0.7,0.7-1.5,0.8-2.3l1.2-0.2l-0.1-2h-1.3c-0.2-0.8-0.6-1.5-1-2.1l0.8-1.1
	l-1.5-1.3l-1,0.9c-0.7-0.4-1.4-0.6-2.2-0.7l-0.2-1.4l-2,0.1v1.4c-0.7,0.2-1.4,0.5-2,1l-1.2-0.9l-1.3,1.5l1,1
	c-0.4,0.6-0.6,1.3-0.7,2.1L719.4,306.7z M722.5,306.3c0.5-2.1,2.7-3.4,4.9-2.9c2.1,0.5,3.4,2.7,2.9,4.9c-0.5,2.1-2.7,3.4-4.9,2.9
	C723.3,310.6,722,308.5,722.5,306.3C722.5,306.3,722.5,306.3,722.5,306.3z"/>
<g class="st18">
	<path class="st3" d="M724.6,305.9c0,0.5,0.3,0.9,0.8,0.9c0,0,0,0,0,0c0.5,0,0.9-0.3,0.9-0.8c0-0.5-0.3-0.9-0.8-0.9
		C725,305.1,724.6,305.4,724.6,305.9z"/>
	<path class="st3" d="M723.9,308.1v0.3l2.9,0.2v-0.3c0-0.8-0.6-1.5-1.4-1.5C724.6,306.9,723.9,307.4,723.9,308.1L723.9,308.1z"/>
</g>
<path class="st3" d="M726.7,306.5c0,0.5,0.3,0.9,0.8,0.9c0.5,0,0.9-0.3,0.9-0.8c0-0.5-0.3-0.9-0.8-0.9
	C727.1,305.7,726.7,306.1,726.7,306.5z"/>
<path class="st3" d="M726,308.8v0.3l2.9,0.2V309c0-0.8-0.6-1.5-1.4-1.5C726.7,307.4,726,308,726,308.8L726,308.8L726,308.8z"/>
<path class="st0" d="M685.9,273.2c0.2,0.9,0.5,1.8,0.9,2.6l-1.5,1.3l0.9,1.4l1.8-1c0.6,0.7,1.3,1.3,2.1,1.8l-0.7,1.9l1.5,0.7l1-1.7
	c0.9,0.3,1.8,0.5,2.7,0.5l0.3,2l1.7-0.1l0.1-2c0.9-0.2,1.8-0.5,2.6-0.9l1.3,1.5l1.4-1l-0.9-1.8c0.7-0.6,1.3-1.2,1.8-2l1.9,0.7
	l0.8-1.5l-1.7-1.1c0.3-0.9,0.5-1.8,0.5-2.7l2-0.3L706,270l-2-0.1c-0.2-0.9-0.5-1.8-0.9-2.6l1.5-1.3l-1-1.4l-1.8,1
	c-0.6-0.7-1.3-1.3-2-1.8l0.7-1.9l-1.5-0.7l-1,1.7c-0.9-0.3-1.8-0.5-2.7-0.5l-0.3-2l-1.7,0.1l-0.1,2c-0.9,0.2-1.8,0.5-2.6,0.9
	l-1.3-1.5l-1.4,0.9l1,1.8c-0.7,0.6-1.3,1.2-1.8,2l-1.9-0.7l-0.7,1.5l1.7,1.1c-0.3,0.9-0.5,1.8-0.5,2.7l-2,0.3l0.1,1.7L685.9,273.2z
	 M689,271.2c0.2-3.3,3-5.8,6.3-5.6s5.8,3,5.6,6.3c-0.2,3.3-3,5.8-6.3,5.6c0,0,0,0,0,0C691.3,277.3,688.8,274.5,689,271.2
	C689,271.2,689,271.2,689,271.2L689,271.2z"/>
<path class="st0" d="M693.9,268.3c0,0.7,0.5,1.2,1.1,1.3c0.7,0,1.3-0.5,1.3-1.1c0-0.7-0.5-1.3-1.1-1.3
	C694.5,267.2,693.9,267.7,693.9,268.3C693.9,268.3,693.9,268.3,693.9,268.3z"/>
<rect x="694.9" y="268.3" transform="matrix(6.052593e-02 -0.9982 0.9982 6.052593e-02 383.8527 947.058)" class="st0" width="0.4" height="2.6"/>
<rect x="694.9" y="268.3" transform="matrix(6.052593e-02 -0.9982 0.9982 6.052593e-02 383.8527 947.058)" class="st5" width="0.4" height="2.6"/>
<rect x="694.5" y="272.1" transform="matrix(6.052593e-02 -0.9982 0.9982 6.052593e-02 378.4611 951.5445)" class="st0" width="0.4" height="5.2"/>
<rect x="694.5" y="272.1" transform="matrix(6.052593e-02 -0.9982 0.9982 6.052593e-02 378.4611 951.5445)" class="st5" width="0.4" height="5.2"/>
<rect x="694.5" y="273.2" transform="matrix(6.052593e-02 -0.9982 0.9982 6.052593e-02 377.373 952.4608)" class="st0" width="0.4" height="5.2"/>
<rect x="694.5" y="273.2" transform="matrix(6.052593e-02 -0.9982 0.9982 6.052593e-02 377.373 952.4608)" class="st5" width="0.4" height="5.2"/>
<rect x="694.4" y="272.8" transform="matrix(6.052593e-02 -0.9982 0.9982 6.052593e-02 377.9172 951.9929)" class="st0" width="0.7" height="4.8"/>
<rect x="693.4" y="268.8" transform="matrix(5.989229e-02 -0.9982 0.9982 5.989229e-02 382.6791 946.0368)" class="st0" width="0.4" height="2.1"/>
<path class="st0" d="M692.6,274.4l4.2,0.2c-0.5-0.6-0.9-1.4-1-2.2c-0.1-1-0.1-2.2-0.1-2.2l-1.4-0.1c0,0-0.2,1.2-0.4,2.2
	C693.7,273.1,693.2,273.9,692.6,274.4z"/>
<path class="st0" d="M23.2,61.2v108.2h108.2V61.2H23.2z M31.3,161.2V69.4h91.8v91.8L31.3,161.2z"/>
<path class="st3" d="M760.9,675.4v108.2h108.2V675.4H760.9z M769.1,775.4v-91.8h91.8v91.8L769.1,775.4z"/>
<g class="st11">
	<path class="st6" d="M527.6,486.2v13.3h-4.1c-1.9,0-3.1,0.2-3.6,0.5c-0.5,0.3-0.8,0.9-0.8,1.7c0,0.9,0.4,1.5,1.1,2
		c0.7,0.4,1.8,0.7,3.2,0.7c1.8,0,3.2-0.2,4.2-0.7c0.9-0.5,2.1-1.8,3.4-4.1c3.8-6.4,6.9-10.4,9.3-12.1c2.4-1.7,6.4-2.5,11.8-2.5
		c3.9,0,6.8,0.5,8.7,1.4c1.9,0.9,3.4,2.7,4.7,5.3c1.3,2.6,1.9,5.7,1.9,9.2c0,3.8-0.7,7.1-2.2,9.8c-1.5,2.7-3.3,4.5-5.6,5.3
		s-5.4,1.3-9.6,1.3h-3.6v-13.3h6.7c2.1,0,3.4-0.2,4-0.6s0.9-1,0.9-2c0-1-0.4-1.7-1.1-2.1c-0.8-0.5-1.9-0.7-3.3-0.7
		c-3.2,0-5.4,0.4-6.4,1.3c-1,0.9-2.7,3.1-5,6.7c-2.4,3.6-4.1,5.9-5.1,7.1s-2.5,2.1-4.4,2.9s-4.3,1.1-7.2,1.1c-4.2,0-7.3-0.5-9.3-1.6
		c-2-1.1-3.5-2.8-4.6-5.2c-1.1-2.4-1.7-5.3-1.7-8.7c0-3.7,0.6-6.9,1.8-9.5c1.2-2.6,2.7-4.4,4.6-5.2c1.8-0.9,4.9-1.3,9.3-1.3H527.6z"
		/>
</g>
<g class="st11">
	<path class="st6" d="M510.9,451.6h11v8.5h44.1v14.4H522v8.5h-11V451.6z"/>
</g>
<g class="st11">
	<path class="st6" d="M510.9,426.3l55.2-8.2v14.7l-9.9,0.8v5.1l9.9,0.9v14.8l-55.2-7.3V426.3z M546.4,433.9
		c-6.3,0.7-14,1.5-23.2,2.2c10.6,1.5,18.3,2.4,23.2,2.8V433.9z"/>
	<path class="st6" d="M510.9,415.7v-10.2c0-6.8,0.3-11.4,0.8-13.8c0.5-2.4,1.9-4.4,4-5.9c2.1-1.5,5.6-2.3,10.3-2.3
		c4.3,0,7.2,0.5,8.7,1.6c1.5,1.1,2.4,3.2,2.7,6.3c0.7-2.8,1.6-4.8,2.8-5.7c1.2-1,2.3-1.6,3.3-1.8c1-0.2,3.7-0.4,8.2-0.4h14.6V397
		h-18.3c-3,0-4.8,0.2-5.5,0.7c-0.7,0.5-1.1,1.7-1.1,3.7h24.9v14.4H510.9z M520.4,401.3h12.3c0-1.6-0.2-2.7-0.7-3.4
		c-0.4-0.6-1.9-1-4.3-1h-3c-1.8,0-2.9,0.3-3.4,0.9C520.7,398.5,520.4,399.7,520.4,401.3z"/>
</g>
<g class="st11">
	<path class="st6" d="M510.9,349.2h11v8.5h44.1v14.4H522v8.5h-11V349.2z"/>
</g>
<g class="st11">
	<path class="st6" d="M510.9,323.9l55.2-8.2v14.7l-9.9,0.8v5.1l9.9,0.9V352l-55.2-7.3V323.9z M546.4,331.5c-6.3,0.7-14,1.5-23.2,2.2
		c10.6,1.5,18.3,2.4,23.2,2.8V331.5z"/>
	<path class="st6" d="M510.9,313.2v-14.5c0-3.9,0.3-6.9,0.9-9c0.6-2.1,1.5-3.7,2.7-4.7s2.6-1.8,4.2-2.1s4.2-0.6,7.7-0.6h4.8
		c3.5,0,6.1,0.4,7.7,1.1c1.6,0.7,2.9,2.1,3.7,4c0.9,1.9,1.3,4.5,1.3,7.6v3.9h22.2v14.4H510.9z M520.4,298.9h14c0-0.4,0-0.8,0-1.1
		c0-1.3-0.3-2.2-1-2.7c-0.6-0.5-2-0.8-4-0.8h-4.5c-1.9,0-3.1,0.3-3.7,0.9C520.7,295.8,520.4,297,520.4,298.9z"/>
	<path class="st6" d="M510.9,245.6h36.9c4.2,0,7.1,0.1,8.8,0.4c1.7,0.3,3.4,1.1,5.2,2.4c1.8,1.3,3.1,3.1,4.1,5.3
		c0.9,2.2,1.4,4.8,1.4,7.8c0,3.3-0.5,6.2-1.6,8.7c-1.1,2.5-2.5,4.4-4.3,5.7s-3.6,2-5.5,2.2c-1.9,0.2-6,0.3-12.3,0.3h-32.7V264h41.4
		c2.4,0,4-0.1,4.6-0.4c0.7-0.3,1-0.8,1-1.6c0-0.9-0.4-1.5-1.1-1.8c-0.7-0.3-2.5-0.4-5.2-0.4h-40.7V245.6z"/>
</g>
</svg>
