<svg id="Слой_1" data-name="Слой 1" xmlns="http://www.w3.org/2000/svg" viewBox="0 0 923 1000"><defs><style>.cls-1,.cls-14{fill:#ffc800;}.cls-2,.cls-24,.cls-3{fill:#dcdcdc;}.cls-2{stroke:#306;}.cls-2,.cls-3{stroke-miterlimit:10;stroke-width:9px;}.cls-3{stroke:#ffc800;}.cls-4{fill:#4a148c;}.cls-5{fill:#ffaba1;}.cls-6{opacity:0.1;}.cls-12,.cls-15,.cls-16,.cls-7{fill:#306;}.cls-8{fill:#a8a8a8;}.cls-9{fill:#ff9cbf;}.cls-10{opacity:0.2;}.cls-11{fill:#ececec;}.cls-12{font-size:69.82px;}.cls-12,.cls-14,.cls-15,.cls-16{font-family:Impact;}.cls-13{letter-spacing:-0.04em;}.cls-14{font-size:83.07px;}.cls-15{font-size:61.11px;}.cls-16{font-size:59.35px;}.cls-17{letter-spacing:-0.02em;}.cls-18{letter-spacing:-0.04em;}.cls-19{letter-spacing:-0.06em;}.cls-20{fill:#ff9581;}.cls-21{fill:#c36358;}.cls-22{fill:#c8c8c8;}.cls-23{fill:#ed776a;}.cls-25{fill:#fff;}.cls-26{opacity:0.6;}</style></defs><rect class="cls-1" x="496" y="607.28" width="316.58" height="316.58"/><rect class="cls-2" x="150.38" y="449.24" width="323.75" height="334.26"/><rect class="cls-3" x="496" y="229.81" width="355.07" height="355.07"/><rect class="cls-4" x="107.05" y="87.6" width="367.08" height="338.05"/><path class="cls-5" d="M356.17,255.25c44.73,45.34,101,140.7,90.51,160-11.68,21.53-74-42-73.73-45.74.18-2.8-21.73-60.73-38.35-102.86S345.11,244,356.17,255.25Z"/><path class="cls-1" d="M372.54,369.62c-1.91-6.19-31.72-82.58-40.24-106.73s-.63-31.63,23.72-9.51,77.68,96,89.86,135.26c11.72,37.79-7.73,37.79-33.4,20.37C391.46,394.75,372.54,369.62,372.54,369.62Z"/><path class="cls-6" d="M351.8,255.88a18.2,18.2,0,0,1-1.52,4.89,17.84,17.84,0,0,1-2.72,4.34,17.62,17.62,0,0,1,1.52-4.89A18,18,0,0,1,351.8,255.88Zm73.75,105a17.62,17.62,0,0,0-1.52,4.89,17.84,17.84,0,0,0,2.72-4.34,18.2,18.2,0,0,0,1.52-4.89A18,18,0,0,0,425.55,360.92Zm-26.37-40.13a18,18,0,0,0-1.52,4.89,17.84,17.84,0,0,0,2.72-4.34,18.32,18.32,0,0,0,1.52-4.89A17.84,17.84,0,0,0,399.18,320.79Zm-27.39-10.08a18,18,0,0,0-4.89-1.51,19.72,19.72,0,0,0,9.23,4.23A18.14,18.14,0,0,0,371.79,310.71Zm24.69,40.59a17.62,17.62,0,0,0-4.89-1.52,17.84,17.84,0,0,0,4.34,2.72,18.2,18.2,0,0,0,4.89,1.52A17.84,17.84,0,0,0,396.48,351.3Zm-20.07-69.51a17.58,17.58,0,0,0-4.9-1.52,18,18,0,0,0,4.34,2.72,18.27,18.27,0,0,0,4.9,1.52A18.22,18.22,0,0,0,376.41,281.79ZM361.09,336a18.23,18.23,0,0,0,2.39,4.53,18,18,0,0,0-1.14-5A18.41,18.41,0,0,0,360,331,18,18,0,0,0,361.09,336Zm51.66,48.36a18.23,18.23,0,0,0,2.39,4.53,18.13,18.13,0,0,0-1.14-5,18.41,18.41,0,0,0-2.39-4.53A18,18,0,0,0,412.75,384.33ZM378,376.2l-.11,0c.29.34.58.7.9,1.07a16.83,16.83,0,0,0,4.21-2.26A17.86,17.86,0,0,0,378,376.2Zm61.22,28.85a17.76,17.76,0,0,0,4.53-2.39,18,18,0,0,0-5,1.15,17.59,17.59,0,0,0-4.53,2.39A18.14,18.14,0,0,0,439.19,405.05ZM347.33,293.12a20.66,20.66,0,0,0-3.23,1.52l.24.67a19,19,0,0,0,3.44-.95,17.84,17.84,0,0,0,4.55-2.38A18,18,0,0,0,347.33,293.12Z"/><path class="cls-1" d="M367.19,425.75h-170s27-133.37,92.25-191.1c8.06-7.14,26.24-5.52,38.1.38,4.24,2.1,19.44,23.38,23.78,43.49S367.67,425.15,367.19,425.75Z"/><path class="cls-7" d="M352.74,286.84c1.34,4.48,2.44,9.14,3.35,13.83,0-.19,0-.37,0-.55.07-2.63.09-5.31.37-7.92a.13.13,0,0,1,.26,0,40.13,40.13,0,0,1,.21,8c-.07,1.25-.14,2.51-.25,3.77.36,2.1.68,4.2.94,6.28.5,4,1.83,18.74,1.95,21.68,0,.62-.69.72-.86.08-.8-3-2.92-18.2-3.6-22.13a213.6,213.6,0,0,1-2.69-23C352.43,286.68,352.7,286.68,352.74,286.84Z"/><path class="cls-6" d="M300.05,269.46a18.27,18.27,0,0,1-1.52,4.9,17.72,17.72,0,0,1-2.72,4.34,17.92,17.92,0,0,1,1.52-4.9A18.22,18.22,0,0,1,300.05,269.46Zm-23,67.73a17.62,17.62,0,0,0-1.52,4.89,17.84,17.84,0,0,0,2.72-4.34,18.32,18.32,0,0,0,1.52-4.89A17.84,17.84,0,0,0,277,337.19Zm-55.24,24.24a17.92,17.92,0,0,0-1.52,4.9A18,18,0,0,0,223,362a18.27,18.27,0,0,0,1.52-4.9A18.22,18.22,0,0,0,221.77,361.43Zm40.6,43.42a18,18,0,0,0-1.51,4.89,18.14,18.14,0,0,0,2.72-4.34,18,18,0,0,0,1.51-4.89A18.14,18.14,0,0,0,262.37,404.85ZM333.27,321a17.75,17.75,0,0,0-1.52,4.89,17.54,17.54,0,0,0,2.72-4.34,18.32,18.32,0,0,0,1.52-4.89A17.84,17.84,0,0,0,333.27,321ZM355.6,367a17.91,17.91,0,0,0-1.51,4.9,18.22,18.22,0,0,0,2.72-4.34,17.91,17.91,0,0,0,1.51-4.9A18.55,18.55,0,0,0,355.6,367Zm-54.05,33.2a17.91,17.91,0,0,0-1.51,4.9,19.72,19.72,0,0,0,4.23-9.23A18.28,18.28,0,0,0,301.55,400.23Zm-51.81-89.82a18,18,0,0,0-1.51,4.89,19.72,19.72,0,0,0,4.23-9.23A18.34,18.34,0,0,0,249.74,310.41ZM314,295.26a17.85,17.85,0,0,0-4.89-1.52,17.84,17.84,0,0,0,4.34,2.72,18.32,18.32,0,0,0,4.89,1.52A17.84,17.84,0,0,0,314,295.26ZM324.76,350a17.91,17.91,0,0,0-4.9-1.51,18.22,18.22,0,0,0,4.34,2.72,17.91,17.91,0,0,0,4.9,1.51A18.55,18.55,0,0,0,324.76,350Zm-100,58a17.73,17.73,0,0,0-4.89-1.51,19.72,19.72,0,0,0,9.23,4.23A18.14,18.14,0,0,0,224.76,408ZM326.52,419a17.36,17.36,0,0,0-4.9-1.52,18.42,18.42,0,0,0,4.34,2.71l1,.46c.91.05,1.8.12,2.71.18A18.88,18.88,0,0,0,326.52,419ZM263,363.66a17.62,17.62,0,0,0-4.89-1.52,17.84,17.84,0,0,0,4.34,2.72,18.32,18.32,0,0,0,4.89,1.52A17.84,17.84,0,0,0,263,363.66Zm51-116.84a17.52,17.52,0,0,0-4.89-1.52,17.84,17.84,0,0,0,4.34,2.72,18.32,18.32,0,0,0,4.89,1.52A17.84,17.84,0,0,0,314,246.82Zm11,25.38a18.41,18.41,0,0,0,2.39,4.53,18,18,0,0,0-1.14-5,18.23,18.23,0,0,0-2.39-4.53A18.13,18.13,0,0,0,325,272.2Zm27,126.57a17.76,17.76,0,0,0,2.39,4.53,17.63,17.63,0,0,0-1.15-5,18.1,18.1,0,0,0-2.38-4.54A18.12,18.12,0,0,0,352.05,398.77ZM279.1,304a18.23,18.23,0,0,0,2.39,4.53,18.13,18.13,0,0,0-1.14-5A18.41,18.41,0,0,0,278,299,18,18,0,0,0,279.1,304Zm21,55.72a18.21,18.21,0,0,0,2.38,4.53,17.62,17.62,0,0,0-1.14-5,18.14,18.14,0,0,0-2.39-4.54A18.13,18.13,0,0,0,300.11,359.73Zm-97.45,65.32c0,.23,0,.47.05.7h.44C203,425.52,202.84,425.28,202.66,425.05Zm47.87-.22a18.47,18.47,0,0,0-2.39-4.54,18.33,18.33,0,0,0,1.14,5l.18.47h1.38C250.74,425.45,250.64,425.13,250.53,424.83Zm-9.78-39.27a18.23,18.23,0,0,0,2.39,4.53,18.13,18.13,0,0,0-1.14-5,18.41,18.41,0,0,0-2.39-4.53A18,18,0,0,0,240.75,385.56Zm41.19-131.1a18,18,0,0,0,2.38,4.53,18,18,0,0,0-1.14-5,18.23,18.23,0,0,0-2.39-4.53A17.79,17.79,0,0,0,281.94,254.46ZM327.44,383a17.59,17.59,0,0,0,4.53-2.39,17.79,17.79,0,0,0-5,1.15,18,18,0,0,0-4.53,2.38A18,18,0,0,0,327.44,383Zm-44.51,41a17.76,17.76,0,0,0,4.53-2.39,17.63,17.63,0,0,0-5,1.15,17.87,17.87,0,0,0-4.53,2.38A18.13,18.13,0,0,0,282.93,423.91Zm-75.72-37.09c-.11.39-.23.79-.34,1.16a13.54,13.54,0,0,0,2.31-1.42A13,13,0,0,0,207.21,386.82ZM246,339.66a17.81,17.81,0,0,0,4.54-2.39,19.82,19.82,0,0,0-9.53,3.54A18.34,18.34,0,0,0,246,339.66Zm35.69,45.06a17.87,17.87,0,0,0,4.53-2.38,17.78,17.78,0,0,0-5,1.14,18.08,18.08,0,0,0-4.53,2.39A18,18,0,0,0,281.72,384.72Zm21.2-64.63a17.91,17.91,0,0,0,4.53-2.39,18.13,18.13,0,0,0-5,1.14,18.41,18.41,0,0,0-4.53,2.39A18,18,0,0,0,302.92,320.09Zm44.87-25.73a17.87,17.87,0,0,0,4.53-2.38,17.7,17.7,0,0,0-5,1.14,18.08,18.08,0,0,0-4.53,2.39A18.06,18.06,0,0,0,347.79,294.36Zm-80.23-15a17.59,17.59,0,0,0,4.53-2.39,17.71,17.71,0,0,0-5,1.15,18,18,0,0,0-4.53,2.38A18,18,0,0,0,267.56,279.32Z"/><path class="cls-5" d="M142.13,182.23c-.36-8.17,1.29-45.75,4.09-56.1s13-39.57,21.16-38.23S173.22,98,173.22,98s6.27-11.66,14.35-9.56,4,15.65,4,15.65,7.3-11.5,15.21-8.83,1.57,15.62,1.57,15.62,6.19-10.83,11.78-5.89c6.73,5.94-6.94,24.61-9.18,36.27-.5,2.65-6.45,54.42-6.45,54.42Z"/><path class="cls-7" d="M208.91,109.79c-10,13.75-12,21.5-13.14,38.21,0,.33-.51.37-.52,0-.4-16.46.71-26.54,13-38.75C208.87,108.67,209.39,109.13,208.91,109.79Z"/><path class="cls-7" d="M192.42,103c-9.16,15.19-11.41,23.58-13.86,41,0,.24-.46.21-.45,0,1-17.29,2.33-27.32,13.47-41.3C192.09,102.07,192.84,102.35,192.42,103Z"/><path class="cls-7" d="M173.12,98.92c-7.8,15.34-10.67,24.43-10.88,41.65a.32.32,0,0,1-.63,0c-1.49-17.58,2-28.95,11-41.87C173.25,97.85,173.61,98,173.12,98.92Z"/><path class="cls-5" d="M204,206.39s15.53-14.61,20.93-22.53,14.68-44.86,6.81-47.32c-10.15-3.17-19.7,17.1-23.09,27.64,0,0-23.48-7.36-33.48,5.71S204,206.39,204,206.39Z"/><path class="cls-7" d="M228.69,136.58c-11.35,3.79-14.9,17.91-18.94,27.89a1,1,0,0,1-1.56.43c-10.05-2.42-24.93-2.92-33.09,4.32a.25.25,0,0,1-.36-.34c7.7-9,22.36-9.66,33.19-6.3,4-10.3,8.17-24.31,20.73-26.11C228.73,136.46,228.76,136.56,228.69,136.58Z"/><path class="cls-5" d="M298.77,254.53c-10.2,17.67-69.22,72.14-120.66,81.58-7,1.28-33.55-4.34-39.11-22-9.9-31.4-2-96.22,3.08-135.22,1-7.62,71.73,8,69.9,19.67-2,12.89-9.61,60.23-8.45,60.77,4.24,1.95,49.46-17.57,79.14-24C303.71,230.85,306.63,240.93,298.77,254.53Z"/><path class="cls-4" d="M132.09,198.21l80.61,17.45s-7.33,41.19-5.88,41,58-20.86,79.8-23S308.44,241,297.37,259s-83.51,78.28-119.21,78.26c-18.17,0-35.08-11.65-38.37-17.2C129.55,302.79,132.09,198.21,132.09,198.21Z"/><path class="cls-1" d="M132.09,198.21l80.61,17.45s-7.33,41.19-5.88,41,58-20.86,79.8-23S308.44,241,297.37,259s-83.51,78.28-119.21,78.26c-18.17,0-35.08-11.65-38.37-17.2C129.55,302.79,132.09,198.21,132.09,198.21Z"/><path class="cls-6" d="M247.63,255.6a18,18,0,0,0-1.52,4.89,17.91,17.91,0,0,0,2.72-4.32,18.46,18.46,0,0,0,1.52-4.91A18.22,18.22,0,0,0,247.63,255.6Zm-64.07,72a17.84,17.84,0,0,0-1.51,4.89,19.72,19.72,0,0,0,4.23-9.23A18.22,18.22,0,0,0,183.56,327.56Zm-47.48-49.34a17.52,17.52,0,0,0-1.52,4.89,17.54,17.54,0,0,0,2.72-4.34,18.32,18.32,0,0,0,1.52-4.89A18.55,18.55,0,0,0,136.08,278.22Zm70.19.2a17.62,17.62,0,0,0-1.52,4.89,17.84,17.84,0,0,0,2.72-4.34,18.32,18.32,0,0,0,1.52-4.89A18.22,18.22,0,0,0,206.27,278.42ZM171,298.75a18.32,18.32,0,0,0-1.52,4.89,17.25,17.25,0,0,0,2.72-4.34,18,18,0,0,0,1.52-4.89A17.76,17.76,0,0,0,171,298.75Zm3.11-49.56a17.93,17.93,0,0,0-1.5,4.89,19.58,19.58,0,0,0,4.22-9.23A18.46,18.46,0,0,0,174.06,249.19ZM138.2,212.35a18,18,0,0,0-1.52,4.89,17.72,17.72,0,0,0,2.72-4.32,18.46,18.46,0,0,0,1.52-4.91A18.22,18.22,0,0,0,138.2,212.35Zm145,41.65a17.91,17.91,0,0,0-2.39-4.53,18,18,0,0,0,1.14,5,18.41,18.41,0,0,0,2.39,4.53A18,18,0,0,0,283.18,254Zm-47.75,32.94a18.41,18.41,0,0,0-2.39-4.53,18,18,0,0,0,1.14,5,17.59,17.59,0,0,0,2.39,4.53A18.21,18.21,0,0,0,235.43,286.94Zm-35.86-37.13a18.05,18.05,0,0,0-2.38-4.53,18,18,0,0,0,1.14,5,18.59,18.59,0,0,0,2.39,4.53A18.21,18.21,0,0,0,199.57,249.81Zm-4.64,53.74a18.08,18.08,0,0,0-2.39-4.53,18,18,0,0,0,1.14,5,18.57,18.57,0,0,0,2.39,4.53A18,18,0,0,0,194.93,303.55Zm-46-5.8a17.91,17.91,0,0,0-2.39-4.53,19.68,19.68,0,0,0,3.53,9.52A18,18,0,0,0,149,297.75Zm14.49-76a18,18,0,0,0-2.38-4.55,17.83,17.83,0,0,0,1.14,5,18.59,18.59,0,0,0,2.39,4.53A17.63,17.63,0,0,0,163.44,221.79ZM158,264.89a18.47,18.47,0,0,0-2.39-4.54,19.77,19.77,0,0,0,3.53,9.53A17.88,17.88,0,0,0,158,264.89ZM267.1,278.07a18.41,18.41,0,0,0-4.53,2.39,19.68,19.68,0,0,0,9.52-3.53A18,18,0,0,0,267.1,278.07Zm-85.28-2a18.57,18.57,0,0,0-4.53,2.39,19.68,19.68,0,0,0,9.52-3.53A18,18,0,0,0,181.82,276.1Zm8-50.65a18.31,18.31,0,0,0-4.52,2.38,17.86,17.86,0,0,0,5-1.14,17.61,17.61,0,0,0,4.53-2.39A18.13,18.13,0,0,0,189.86,225.45Zm-45.76,15.9a17.91,17.91,0,0,0-4.53,2.39,20,20,0,0,0,9.52-3.53A17.78,17.78,0,0,0,144.1,241.35Zm76.11,68.71a18.57,18.57,0,0,0-4.53,2.39,19.68,19.68,0,0,0,9.52-3.53A18,18,0,0,0,220.21,310.06Zm-61.28,13.4a17.91,17.91,0,0,0-4.53,2.39,19.68,19.68,0,0,0,9.52-3.53A18,18,0,0,0,158.93,323.46Zm66-68.21a18.57,18.57,0,0,0-4.53,2.39,18.21,18.21,0,0,0,5-1.14,17.45,17.45,0,0,0,4.53-2.39A18,18,0,0,0,225,255.25Z"/><path class="cls-7" d="M207.44,257c-.44,6.17-1.86,12.23-3.2,18.24s-3.26,12-5.07,18c0,.13-.24.06-.21-.08,1.55-6,2.67-12.1,4-18.14s2.24-12.15,3.78-18.12C206.84,256.44,207.47,256.58,207.44,257Z"/><path class="cls-7" d="M208,230.86c-9.33-2.32-18.78-4.15-28.24-5.94s-18.93-3.62-28.44-5.18c-5.37-.88-10.74-1.79-16.14-2.49-.14,0-.21.21-.07.25,9.32,2.32,18.78,4.19,28.21,6s18.93,3.62,28.42,5.3c5.36.94,10.74,1.79,16.14,2.49C208.11,231.36,208.24,230.93,208,230.86Z"/><path class="cls-7" d="M234.58,313.21c1.49-1.32,3.12-2.43,4.68-3.66s3-2.37,4.56-3.54c3.11-2.39,6.23-4.76,9.33-7.16,6.21-4.81,12.3-9.76,18.45-14.64q5.26-4.17,10.42-8.46a.15.15,0,0,1,.2.21c-4.23,4-8.51,7.92-12.91,11.71l1.66-.8c1.69-.85,3.35-1.75,5-2.67.14-.08.25.13.12.22a43.39,43.39,0,0,1-4.82,3c-.82.44-1.65.85-2.49,1.24-.41.19-.81.37-1.23.53h0c-1,.84-2,1.69-3,2.52q-9.12,7.43-18.65,14.33c-1.76,1.27-3.53,2.52-5.34,3.71s-3.75,2.63-5.75,3.73C234.61,313.56,234.43,313.33,234.58,313.21Z"/><polygon class="cls-7" points="314.61 275.37 324.02 261.05 332.88 273.09 329.26 283.73 319.2 283.94 314.61 275.37"/><polygon class="cls-7" points="319.2 283.94 302.52 394.91 319.47 434.02 334.76 393.69 329.26 283.73 319.2 283.94"/><path class="cls-5" d="M327.4,260c-9.8,2.39-26.74-12.51-33.47-24.62-.46-.83.76-9.62,1.74-20.37.57-6.53,1.05-13.81,1-20.49l41.93,9.91s-4,14-3.88,25.66a14.81,14.81,0,0,0,.31,2.74c0,.12,0,.27.06.45C336,238.49,336.87,257.7,327.4,260Z"/><path class="cls-7" d="M299.63,195.24c1.27,8.83,7.27,37.91,31.16,38.3a23.38,23.38,0,0,0,4.31-.26c0-.17-.05-.31-.06-.44a14.11,14.11,0,0,1-.31-2.75c-.15-11.63,3.88-25.65,3.88-25.65Z"/><path class="cls-5" d="M287,147.72c-3.2,15.19,8.4,57.22,19.76,65.81,16.47,12.46,41.56,11.57,51.66-7.8,9.8-18.78-6.28-73.28-18.8-80.9C321.19,113.62,291.74,125.29,287,147.72Z"/><path class="cls-7" d="M324.44,172.65c-.05-.1-.18.19-.15.31.86,2.81,1.37,6.17-.94,7.81-.07,0,0,.19.07.15C326.43,179.63,325.71,175.17,324.44,172.65Z"/><path class="cls-7" d="M321.11,170.37c-4.65.89-2.53,10.13,1.78,9.31S325,169.63,321.11,170.37Z"/><path class="cls-7" d="M341.51,168.38c0-.11.26.09.28.21.57,2.88,1.7,6.09,4.5,6.44.09,0,.12.16,0,.17C343.05,175.48,341.58,171.21,341.51,168.38Z"/><path class="cls-7" d="M343.38,164.81c4.53-1.41,7,7.75,2.81,9.05S339.59,166,343.38,164.81Z"/><path class="cls-8" d="M316.5,167a37.86,37.86,0,0,0,3.29-2.08c1.25-.81,2.33-1.33,2.95-2.76a2,2,0,0,0-.86-2.29c-1.67-.91-3.45-.3-5,.62a7.26,7.26,0,0,0-3.39,4C312.83,166.26,314.93,167.78,316.5,167Z"/><path class="cls-8" d="M345.89,159.34a38.79,38.79,0,0,1-3.89-.11c-1.5-.06-2.69,0-3.95-.87a2,2,0,0,1-.43-2.41c1-1.64,2.81-2,4.61-2a7.29,7.29,0,0,1,5,1.72A2.14,2.14,0,0,1,345.89,159.34Z"/><path class="cls-7" d="M328.8,199.05c.84.51,1.73,1.28,2.79,1.13a7.76,7.76,0,0,0,2.91-1.43c.08-.05.2,0,.16.12a4,4,0,0,1-3.28,2.39,3.12,3.12,0,0,1-2.83-2C328.47,199.09,328.67,199,328.8,199.05Z"/><path class="cls-7" d="M329.84,189.79a10,10,0,0,0,7.5,2.85,12.7,12.7,0,0,0,3.54-.65,3.11,3.11,0,0,0,.65-.23,5.91,5.91,0,0,0,.61-.24.74.74,0,0,0,.43-.77v0a1,1,0,0,0-.09-.29v0l-.06-.25C342,188,341,184.65,341,184.65c.9.22,5.43,1.12,5.1,0-2.75-9.4-5.82-19.86-10.54-28.63a.27.27,0,0,0-.51.19c2.29,9.14,6.17,17.82,8.62,27-1.43-.2-3.77-.63-4.92-.34-.29.16,2,6.35,2.13,7.36a.5.5,0,0,1,0,.11c-3.6,1.32-6.65.84-10.81-.82C329.8,189.36,329.62,189.6,329.84,189.79Z"/><path class="cls-7" d="M339.34,191.54a11.78,11.78,0,0,1-4,4.47,5.36,5.36,0,0,1-3.15.79c-2.42-.19-2.86-2.29-2.77-4.18a12.65,12.65,0,0,1,.53-3A15.34,15.34,0,0,0,339.34,191.54Z"/><path class="cls-9" d="M335.33,196a5.36,5.36,0,0,1-3.15.79c-2.42-.19-2.86-2.29-2.77-4.18C331.93,192.42,334.68,193.65,335.33,196Z"/><g class="cls-10"><path d="M328.86,152.93a33.11,33.11,0,0,0,4.54-.66c1.5-.39,2.91-1.07,4.43-1.43a24.89,24.89,0,0,1,8.74-.05c.26,0,.25.19,0,.17a21.88,21.88,0,0,0-9.14.75,27.47,27.47,0,0,1-7.36,1.77c-5.81.41-11.45,1.56-16.06,5.35a0,0,0,0,1,0-.05C318.11,155.22,323.51,153.55,328.86,152.93Z"/><path d="M327.89,149a32.77,32.77,0,0,0,4.3-.63c1.43-.37,2.76-1,4.2-1.35a23.3,23.3,0,0,1,8.29-.05c.24,0,.24.18,0,.16a20.61,20.61,0,0,0-8.66.71,25.88,25.88,0,0,1-7,1.68c-5.5.39-10.85,1.48-15.23,5.07,0,0-.06,0,0,0C317.69,151.12,322.81,149.54,327.89,149Z"/></g><path class="cls-8" d="M291.18,183.94s-14.69-24.22-13.33-38.23c.61-6.34,9.24-10.61,9.24-10.61s-2.58-7.7,4.51-14.4c7.49-7,25.62-5.48,25.62-5.48S329,98.22,345.61,105s5.81,25.59,5.81,25.59,6.11,8.65-8.79,15.43c-14.51,6.61-44.2.14-44.2.14a103.27,103.27,0,0,1-.44,30.74C296.94,182.6,291.18,183.94,291.18,183.94Z"/><path class="cls-8" d="M320.09,115.44a29.17,29.17,0,0,0-11.7-2.13A31.71,31.71,0,0,0,297.85,115c-6,2.16-11.3,6.57-12.3,13.14a12.24,12.24,0,0,0,2.33,9.21c.08.11.24,0,.16-.15-3.86-4.76-1.84-12.17,2.13-16.16,4.5-4.51,11.37-6.22,17.55-6.49A51.23,51.23,0,0,1,320,115.8.19.19,0,0,0,320.09,115.44Z"/><path class="cls-8" d="M357.51,113c-1.39-4.66-5.38-7.65-9.86-9.07a24.3,24.3,0,0,0-15.75.55A30.64,30.64,0,0,0,319,114c-.08.09.08.23.16.13,6.25-7.4,16-11.62,25.71-9.58,4.32.91,8.65,3.14,10.66,7.27,1.84,3.79,1.44,8.62-.37,12.35-2.24,4.61-6.4,8.09-10.68,10.73a.09.09,0,0,0,.08.16c4.16-2.25,8.05-5.09,10.65-9.11A15.89,15.89,0,0,0,357.51,113Z"/><path class="cls-5" d="M299.23,181.73s-11.14-12.74-17-8.62,3.54,23.32,11.18,25.25a7.5,7.5,0,0,0,9.57-5.1Z"/><path class="cls-7" d="M285,178.55c-.12,0-.12.17,0,.2,5.37,1.52,8.61,6,11,10.75-1.74-1.74-3.94-2.56-6.29-.46-.12.12,0,.31.17.26a4.62,4.62,0,0,1,5.23,1.06,21.93,21.93,0,0,1,2.87,3.82c.29.44,1.09.1.86-.41l-.05-.11C298.27,187.07,292.17,178.44,285,178.55Z"/><path class="cls-4" d="M323.62,187.59a12.95,12.95,0,1,1,10.31-17.65h0a13,13,0,0,1-10.31,17.65Zm-3.18-24a11.46,11.46,0,0,0-2.7.71,11.21,11.21,0,1,0,2.7-.71Z"/><path class="cls-4" d="M352.38,180.12c-4.91.65-10-3.79-11.7-10.33a15.48,15.48,0,0,1,.42-9.45,8.07,8.07,0,0,1,13.39-3.4,15.44,15.44,0,0,1,4.88,8.1c1.75,6.92-1,13.61-6.16,14.92A7.6,7.6,0,0,1,352.38,180.12Zm-4.47-23.7c-.22,0-.43.07-.65.12a6.91,6.91,0,0,0-4.55,4.44,13.79,13.79,0,0,0-.35,8.38c1.52,6,6.19,10,10.43,8.92s6.42-6.82,4.9-12.82a13.73,13.73,0,0,0-4.31-7.19A7.13,7.13,0,0,0,347.91,156.42Z"/><path class="cls-4" d="M333.88,171.5l-1.4-1c1.49-2.08,5.35-5.35,9.25-2.84l-.94,1.45C337.3,166.85,334,171.31,333.88,171.5Z"/><path class="cls-4" d="M278.79,188.93l-1.69-.39c.19-.79,1.89-7.73,5.48-9.29,3.36-1.45,26.39-5.05,27.37-5.2l.26,1.71c-6.6,1-24.34,4-26.94,5.08C280.9,181.87,279.23,187,278.79,188.93Z"/><path class="cls-11" d="M335.07,232.38l-11.72,24-28.44-33.25-9.36,9.4s26.52,51.54,26.86,49.32L324,261.37l13.63,15.77L339,240Z"/><path class="cls-7" d="M339.35,258.82c0-6.14.21-12.33-.05-18.46,0-.22-.34-.34-.41-.09-1.63,5.82-1.58,29.3-2,34.9l-.06-.07c-.57-.68-12.68-13.92-12.83-13.73-2.43,3.22-10.93,18.15-11.54,19.52-4.19-8.18-20.36-38-25.45-45.82a.21.21,0,0,0-.38.19c3.61,8.59,25,48.71,25.34,48.63.23.21,10.79-18.18,12.15-21.7,2,2.84,14.13,17.68,14.24,16.77A193.57,193.57,0,0,0,339.35,258.82Z"/><path class="cls-5" d="M446.68,415.29c-10.07,14.4-37.47,17.14-105.83,30.53-9.46,1.85-40.49-61.38-30.49-63.88,12.59-3.14,62.15-12.62,65.86-12.86C407.53,367.09,453.51,405.52,446.68,415.29Z"/><path class="cls-5" d="M324,378.83s-29,4.37-43.46,11.38c-19.42,9.39-32.32,25.48-37.32,32.56-10.43,14.76-25.46,57.67-13.86,64.15C239.9,492.79,253,448.15,253,448.15s-20.91,43.3-7,48.05,26.25-47.95,26.25-47.95-20.48,45-5.33,47.59c11.46,2,25.29-45.11,25.29-45.11S275,489.5,286.64,492c12.92,2.81,28.42-39.86,28.42-39.86,30.81,1.45,46.07-10.46,55.92-20.22C373.36,429.6,324,378.83,324,378.83Z"/><path class="cls-7" d="M259.31,432.71c-2.64,5-5.34,10-7.53,15.26s-4.19,10.51-5.89,15.9c-4.14,13.24-4.67,22.17-4.58,21.62,2.19-13,9.73-31.76,11.92-37s4.11-10.52,6.29-15.73C259.57,432.66,259.38,432.6,259.31,432.71Z"/><path class="cls-7" d="M278.29,440.27c-3.1,6.53-6.41,12.89-9.22,19.56s-4.86,13.17-7.19,20c-.18.52.16.45.36-.07,2.6-6.71,5.52-12.71,8.2-19.39s5.1-13.47,8-20C278.5,440.23,278.34,440.17,278.29,440.27Z"/><path class="cls-7" d="M295.74,443.83c-5.24,9.73-8.68,20.42-11.8,31-.16.53.27.38.46-.15,3.73-10.37,6.58-18.54,11.68-30.65C296.16,443.82,295.85,443.62,295.74,443.83Z"/><path class="cls-1" d="M318,378.83l59.89,66.69s60.56-13.91,69.48-29.44c5.87-10.22-39.72-51.63-74.14-46.81Z"/><path class="cls-6" d="M371.17,420.44a18,18,0,0,1-1.52,4.89,17.54,17.54,0,0,1-2.72,4.34,19.87,19.87,0,0,1,4.24-9.23Zm41.6-3.74a18,18,0,0,0-1.51,4.89,19.72,19.72,0,0,0,4.23-9.23A18.14,18.14,0,0,0,412.77,416.7Zm-29.67-14a17.62,17.62,0,0,0-4.89-1.52,17.84,17.84,0,0,0,4.34,2.72,18.32,18.32,0,0,0,4.89,1.52A17.84,17.84,0,0,0,383.1,402.7Zm29.65-18.37a18.23,18.23,0,0,0,2.39,4.53,18.13,18.13,0,0,0-1.14-5,18.41,18.41,0,0,0-2.39-4.53A18,18,0,0,0,412.75,384.33Zm-60.7,14.44a17.76,17.76,0,0,0,2.39,4.53,17.63,17.63,0,0,0-1.15-5,18.1,18.1,0,0,0-2.38-4.54A18.12,18.12,0,0,0,352.05,398.77ZM327.44,383a17.59,17.59,0,0,0,4.53-2.39,17.79,17.79,0,0,0-5,1.15,18,18,0,0,0-4.53,2.38A18,18,0,0,0,327.44,383Zm51-5.52a17.76,17.76,0,0,0,4.53-2.39,17.63,17.63,0,0,0-5,1.15,17.87,17.87,0,0,0-4.53,2.38A18.13,18.13,0,0,0,378.44,377.44Zm18.86,58.63a17.87,17.87,0,0,0,4.53-2.38,17.78,17.78,0,0,0-5,1.14,18.08,18.08,0,0,0-4.53,2.39A18,18,0,0,0,397.3,436.07Zm45-33.25a21.21,21.21,0,0,0-3.59,1,18.65,18.65,0,0,0-4.54,2.39,18.5,18.5,0,0,0,5-1.15,19.63,19.63,0,0,0,3.55-1.71C442.6,403.18,442.46,403,442.32,402.82Z"/><path class="cls-7" d="M414.28,380.12c-5.55-4-21.18-13.4-41.11-10.9-.17,0-.18.31,0,.3,15-.42,35.31,7.43,41,10.85C414.3,380.46,414.42,380.22,414.28,380.12Z"/><path class="cls-7" d="M394.26,434.35c-6.2-7.69-12.79-15-19.41-22.36s-13.23-14.69-20-21.85c-3.85-4.05-7.67-8.13-11.66-12.05-.1-.1-.3.05-.2.17,6.18,7.67,12.75,15.06,19.31,22.42s13.23,14.69,20,21.94c3.79,4.09,7.66,8.12,11.65,12C394.07,434.85,394.44,434.57,394.26,434.35Z"/><path class="cls-7" d="M317.88,378a86.1,86.1,0,0,1,11.23-2.56q5.67-1,11.37-2c7.55-1.21,23.41-4.64,37.35-4.6.15,0-.64.75-.79.74-6.64-.36-54.21,9.11-58.12,9.39a4.59,4.59,0,0,1,.42.79c.08.19-.11.44-.31.3-.49-.32-.84-.74-1.3-1.1A.56.56,0,0,1,317.88,378Z"/><text class="cls-12" transform="translate(566.13 519.5) rotate(-90)">S<tspan class="cls-13" x="36.1" y="0">T</tspan><tspan x="65.49" y="0">AR</tspan><tspan class="cls-13" x="138.55" y="0">T</tspan><tspan x="167.94" y="0">APU</tspan></text><text class="cls-14" transform="translate(461.04 321.52) rotate(-90)">BIZNES</text><text class="cls-15" transform="translate(368.48 506.3)">NGO</text><text class="cls-16" transform="matrix(0, -0.9, 1, 0, 551.88, 907.5)">WO<tspan class="cls-17" x="80.77" y="0">L</tspan><tspan x="102.44" y="0">ON</tspan><tspan class="cls-18" x="167.01" y="0">T</tspan><tspan x="191.99" y="0">ARI</tspan><tspan class="cls-19" x="271.19" y="0">A</tspan><tspan x="298.06" y="0">T</tspan></text><path class="cls-7" d="M575,923.5H751.14c.73-6.73-26.24-149.85-57.93-195.87-3.6-5.22-34.4-9-45.71,4C587.61,800.38,573.56,921.85,575,923.5Z"/><path class="cls-20" d="M697.38,739.51c5,13,23.86,58.36,34.11,91,6.88,21.87,9.5,40.22,11,45,0,0-52-16.7-63.71-16.73-18,0-47,37.62-39.87,42.34,11.16,7.42,64.33,32.66,106.8,40.58,23.08,4.31,66.57-25,63.13-48.36-4.82-32.73-64-119-86.48-143.48C710.67,737.14,691.29,723.73,697.38,739.51Z"/><path class="cls-7" d="M812,900.25c-1.09,23.58-30.59,43.43-47.69,44.48-29.5,1.79-118-24-118-24l34.4-66.28s60.23,20.44,61.75,21v0c-.53-1.75-15.37-57.52-22-76-.36-1-.77-2.07-1.15-3.16-1.91-5.12-4.53-11.88-7.42-19.19l0-.05c-1.61-4-3.3-8.26-5-12.44v0c-7.27-18.07-14.36-35.27-14.36-35.27,10.14,1.66,20.15,7,36.59,24.25S813.81,861.35,812,900.25Z"/><path class="cls-4" d="M669.24,906.4c2.46-4.69,5-9.36,7.42-14s4.86-9.16,7.33-13.72a159.09,159.09,0,0,0,7.29-14.39c0-.1-.1-.18-.16-.09a120.12,120.12,0,0,0-8.19,13c-2.63,4.6-5.2,9.23-7.75,13.88s-4.89,9.16-7.26,13.78a115.74,115.74,0,0,0-6.65,14.72c-.07.21.2.4.34.2A140.68,140.68,0,0,0,669.24,906.4Z"/><path class="cls-4" d="M760.88,885.26l-18.39-9.75,0,0v0c-.53-1.75-15.37-57.52-22-76-.36-1-.77-2.07-1.15-3.16-1.91-5.12-4.53-11.88-7.42-19.19Z"/><path class="cls-4" d="M776.11,893.35A153.48,153.48,0,0,0,760,883c-2.77-1.56-5.6-3-8.51-4.31-3.09-1.38-6.36-2.38-9.43-3.77-.23-.1-.41.26-.17.36,2.87,1.3,5.59,3.11,8.37,4.62S756,883,758.9,884.5c5.73,2.94,11.36,6.07,17.06,9.08A.14.14,0,0,0,776.11,893.35Z"/><path class="cls-20" d="M762.72,879.07c-4.62.06-32.48-7.38-36.54-3.56-24.74,23.32-32.56,18.62-37.82,21.66-40.76,23.45-95.18,51-114.61,51.17-29.46.24-41.2-24.49-36.29-47.85,9.68-46.18,72-136.22,100.14-160.15,14.94-12.67,13.76,6.44,7.58,27.21-3.62,12.18-10,30.29-16.43,48.05-5.73,15.83-20.91,56.28-21.17,57.23v0s-.05.08-.05.11.09.13.33.06c1.29-.24,36.15-16.67,71.2-25.69,12.35-3.18,38.07-7.71,47.29-3.59,5.48,2.45,5.58,5.72,5.58,5.72s4.39-.4,9,3.42a13.25,13.25,0,0,1,4,6.11s4.81.67,7.31,3.46a12.67,12.67,0,0,1,3.25,6.85C762,871,762.72,879.07,762.72,879.07Z"/><path class="cls-7" d="M721.55,848.49a68.85,68.85,0,0,0-11,1.23c-.25,0-.24.43,0,.4,3.59-.39,7.22-.47,10.82-.59s7.22-.2,10.8-.13c0,0,0,0,0,0A59.52,59.52,0,0,0,721.55,848.49Z"/><path class="cls-7" d="M744.88,858.78c-6.38-1.75-11.47-2.72-19.48-1.72-.26,0-.24.42,0,.4,7.62-.47,12.58.3,19.45,1.46C744.94,858.93,745,858.8,744.88,858.78Z"/><path class="cls-7" d="M755.47,869.09a43.64,43.64,0,0,0-18.42-3.45c-.25,0-.33.36-.07.39a108.27,108.27,0,0,1,18.4,3.34C755.54,869.42,755.63,869.16,755.47,869.09Z"/><path class="cls-7" d="M677.35,847.74a83.77,83.77,0,0,0-9.11,2c-3.2.79-6.38,1.65-9.5,2.68a181.74,181.74,0,0,0-18.32,7.27.2.2,0,0,0,.14.38C646.66,858,652.82,856,659,854c3-1,6-2,9.07-3s6.33-1.78,9.37-2.94C677.64,848.05,677.58,847.71,677.35,847.74Z"/><path class="cls-7" d="M653,854.35c6.45-2.18,9.37-2.19,9.37-2.19L699,914.08s-101,36.36-121.73,38.49-44.33-14.2-44.73-40.24c-.56-36.59,59.11-124.47,89.13-158.45,13.75-15.57,29.79-26.88,33.88-24.33,4.83,3-3.94,22.6-8.56,37.2-8.54,27-39.13,106.28-39.13,106.28S645.29,857,653,854.35Z"/><path class="cls-4" d="M662,852.11c-5.69.33-30.29,8.9-42.35,14.07a208,208,0,0,0-34.44,18.61c-6.14,4.14-12,8.65-17.72,13.31-.2.16,0,.48.23.33a364.84,364.84,0,0,1,68.53-37.28c6.88-2.68,18.72-6.7,25.45-8.47C663.61,852.18,662.18,852.1,662,852.11Z"/><path class="cls-4" d="M637.79,798c-1.54,2.48-3.1,4.95-4.41,7.56l-.18.37q2.92-8.91,5.58-17.9c.11-.36-.5-.56-.64-.2-8.68,22-16.73,44.22-24.54,66.53-2.19,6.24-4.11,12.54-6.09,18.83-.07.22.28.33.37.13,2.39-5.41,4.79-10.77,7-16.27s4.21-11,6.26-16.59c3.59-9.69,7-19.43,10.3-29.22,1-1.71,2.07-3.42,3-5.17,1.42-2.54,2.59-5.21,3.77-7.86A.24.24,0,0,0,637.79,798Z"/><path class="cls-4" d="M674.43,900.59c-2.68-4.56-5.33-9.15-8-13.71s-5.21-9-7.78-13.48a157.17,157.17,0,0,0-8.37-13.79.09.09,0,0,0-.16.09,120.1,120.1,0,0,0,6.74,13.83c2.51,4.67,5.09,9.3,7.69,13.91s5.19,9,7.86,13.45a117.58,117.58,0,0,0,9,13.42c.13.17.45,0,.35-.18A138,138,0,0,0,674.43,900.59Z"/><path class="cls-4" d="M700.47,914.21c-3-6-7.78-11.89-11.28-17.59-.13-.22-.46,0-.33.22C692,902.19,695,908,698,913.41c-13.87,5.72-28.6,10.83-42.75,15.84-14.52,5.15-29.13,10-43.94,14.29-8.28,2.39-16.57,5-24.9,7.16-.52.14-.38.57.15.47,15-2.82,29.7-7.16,44.21-11.76,14.79-4.7,29.4-9.94,43.93-15.37C682.88,921,700.71,914.7,700.47,914.21Z"/><path class="cls-20" d="M676.41,847.79c-19.07,4.88-41,12.92-50.85,16.77l-.73.27c-8.66,3.4-14,5.92-15.31,6.14-.11-.05-.19-.13-.28-.18v0a11.75,11.75,0,0,0-2.68-1.48c-2.44-.87-25.91-3.8-25.31-11.07s10.13-6.75,11.54-6.65c-1.52-.33-14.26-3.31-10.11-9.67,2.93-4.51,15.54-3.85,16.81-3.8-1.28-.42-13-4.24-9-10.73,2.88-4.65,17-4,18.59-3.77-1.32-.5-11.75-2.24-6.88-7.84,3.38-3.9,29.9.07,41.68,6C661.45,830.45,676.41,847.79,676.41,847.79Z"/><path class="cls-7" d="M625.56,864.56l-.73.27c-4.07-3.16-19.47-11.32-31.57-12.87-.75-.1-.8-.53,0-.49C608.2,852.14,621.63,860.94,625.56,864.56Z"/><path class="cls-7" d="M600.07,838.58c16.7,3.31,24.25,7,38.61,16.12.2.13.43-.17.23-.31-13.38-10-21.71-15-38.7-16.24C599.44,838.1,599.31,838.43,600.07,838.58Z"/><path class="cls-7" d="M609.63,824c16,4.26,24.47,7.95,37.38,18.39.3.25.68-.13.39-.4-12.16-11.8-22.67-16.47-37.61-18.44C608.77,823.37,608.62,823.68,609.63,824Z"/><path class="cls-20" d="M689.86,759.69c-9.49,3.41-27.92-9.59-35.9-20.92-.54-.77-.26-9.65-.44-20.44-.12-6.55-.42-13.84-1.18-20.48l42.76,5.39s-2.52,14.37-1.13,25.93a14.7,14.7,0,0,0,.59,2.69c0,.12.08.27.11.44C696.1,737.38,699,756.39,689.86,759.69Z"/><path class="cls-7" d="M694.68,732.3a5.1,5.1,0,0,1,.22.93c-25.59-1.08-35.32-12.34-41.63-23.14-.19-4.11-.46-8.28-.93-12.23l42.76,5.37s-2.53,14.38-1.13,25.94a14.09,14.09,0,0,0,.6,2.69C694.6,732,694.63,732.13,694.68,732.3Z"/><path class="cls-20" d="M634.82,653c-2.32,15.35,11.69,56.64,23.53,64.56,17.16,11.48,42.15,9.14,51.12-10.78C718.17,687.48,699,634,686,627.12,667,617,638.24,630.34,634.82,653Z"/><path class="cls-7" d="M674.35,671.58c-.06-.09-.18.21-.13.32,1,2.76,1.72,6.09-.49,7.85-.07.06,0,.19.07.15C676.73,678.44,675.75,674,674.35,671.58Z"/><path class="cls-7" d="M670.89,669.51c-4.59,1.15-1.95,10.25,2.31,9.18S674.74,668.54,670.89,669.51Z"/><path class="cls-7" d="M691.5,666.42c0-.12.26.07.29.18.73,2.85,2.05,6,4.87,6.18.09,0,.12.15,0,.16C693.45,673.41,691.74,669.23,691.5,666.42Z"/><path class="cls-7" d="M693.16,662.74c4.44-1.66,7.44,7.33,3.33,8.87S689.45,664.13,693.16,662.74Z"/><path class="cls-7" d="M666.09,666.39a37.13,37.13,0,0,0,3.16-2.27c1.21-.88,2.26-1.46,2.79-2.93a2,2,0,0,0-1-2.24c-1.72-.81-3.46-.09-5,.91a7.28,7.28,0,0,0-3.15,4.21A2.14,2.14,0,0,0,666.09,666.39Z"/><path class="cls-7" d="M695.35,657.13a38.88,38.88,0,0,1-3.89.12c-1.49,0-2.68.2-4-.64a2,2,0,0,1-.57-2.38c.87-1.69,2.69-2.18,4.49-2.28a7.26,7.26,0,0,1,5.06,1.43C698,654.48,697.09,656.92,695.35,657.13Z"/><path class="cls-7" d="M680.87,697.73c.87.46,1.81,1.17,2.86,1a7.68,7.68,0,0,0,2.82-1.59.11.11,0,0,1,.17.11,4,4,0,0,1-3.14,2.57,3.12,3.12,0,0,1-2.94-1.85C680.55,697.78,680.75,697.66,680.87,697.73Z"/><path class="cls-7" d="M681.38,688.42a10,10,0,0,0,7.65,2.41,12.53,12.53,0,0,0,3.5-.85,3.08,3.08,0,0,0,.64-.27,6.07,6.07,0,0,0,.59-.27.73.73,0,0,0,.38-.8v0c0-.1-.06-.18-.11-.28v0l-.08-.25c-.57-2.18-1.74-5.42-1.74-5.42.91.16,5.48.8,5.09-.31-3.3-9.23-7-19.49-12.18-28a.27.27,0,0,0-.5.22c2.82,9,7.19,17.43,10.16,26.42-1.43-.12-3.8-.41-4.93-.06-.28.18,2.38,6.22,2.56,7.22a.63.63,0,0,1,0,.11c-3.51,1.53-6.58,1.23-10.84-.19C681.31,688,681.15,688.24,681.38,688.42Z"/><path class="cls-7" d="M639.33,682.1c2.42-2,5.48-12.14,6.9-16.33,1.47-4.36-2.9-22-4.33-27.28a28.94,28.94,0,0,0-7.06,14.68C633.81,659.57,635.8,670.9,639.33,682.1Z"/><path class="cls-7" d="M679.74,643.57a14.14,14.14,0,0,1-11.08,8.17c-4.75.57-10.16-1.27-13-5.2-.09-.12-.27,0-.18.13,3.09,4.21,8,7,13.35,6.21a14.53,14.53,0,0,0,11.28-9.17A.17.17,0,0,0,679.74,643.57Z"/><path class="cls-7" d="M656,614.07c-7.82,2.44-13.8,8.87-15.14,15.06a15.84,15.84,0,0,0,1.38,10.36c.06.13.33,0,.28-.11A17.4,17.4,0,0,1,646.1,622a22.42,22.42,0,0,1,18.42-7.78,14.17,14.17,0,0,1,9,3.78c.24.24.77-.12.56-.37C670.56,613.32,663.12,611.87,656,614.07Z"/><path class="cls-7" d="M706.68,618a18,18,0,0,0-10.09-7.2c-5.69-1.61-11,.4-16.28,2.51a.12.12,0,0,0,.08.23c4.49-1.78,9.14-3.33,14-2.38a17.78,17.78,0,0,1,10.28,6,17.3,17.3,0,0,1-.95,22.64A17.53,17.53,0,0,1,690.79,645c-.19,0-.24.29,0,.3,8.8.52,17.16-5.83,18.56-14.63A18,18,0,0,0,706.68,618Z"/><path class="cls-7" d="M634.73,661.8s-11.48-12-7.53-21.92c2.24-5.63,14.18-8.34,14.18-8.34s1.88-7.84,11-12.83,22.55-2.59,22.55-2.59,7.84-8,18-5.46c14.19,3.53,17.92,22.57,7.31,32-7.45,6.64-21.33,2.31-21.33,2.31-1.08.47-10.66,10.69-22.3,2.86,0,0-5.31,8.31-12.93,5.69C643.69,653.54,642.27,660.84,634.73,661.8Z"/><path class="cls-20" d="M649,686.26s-11.86-12.08-17.49-7.62,4.89,23.07,12.63,24.56a7.51,7.51,0,0,0,9.26-5.65Z"/><path class="cls-7" d="M634.64,683.9a.1.1,0,0,0,0,.2c5.46,1.21,8.94,5.5,11.65,10.09-1.84-1.63-4.08-2.32-6.31-.09-.11.12,0,.31.19.25a4.62,4.62,0,0,1,5.28.75,22,22,0,0,1,3.08,3.66c.32.41,1.1,0,.84-.47l-.06-.11C648.33,691.65,641.74,683.38,634.64,683.9Z"/><path class="cls-11" d="M694.55,731.4l-9.1,25.15-31.82-30-8.3,10.34s31.85,48.42,32,46.18l9.35-21.64,15.23,14.23-2.6-37.08Z"/><path class="cls-7" d="M701.62,757.23c-.63-6.11-1.1-12.28-2-18.35,0-.21-.38-.3-.42,0-1,6,1.55,29.3,1.74,34.91l-.07-.06c-.63-.62-14.09-12.49-14.21-12.29-2.08,3.46-8.94,19.22-9.4,20.64-5-7.69-24.29-35.62-30.18-42.85a.21.21,0,0,0-.36.23c4.5,8.15,30,45.78,30.37,45.66.26.18,8.8-19.23,9.77-22.88,2.3,2.62,15.93,16.08,15.94,15.16A190.71,190.71,0,0,0,701.62,757.23Z"/><path class="cls-7" d="M363.06,550.87c8.41-2,30.21,3.7,37.64,14.84s7.11,29.39,3.4,31.22-19.81.72-30.93-5.2S358.92,551.85,363.06,550.87Z"/><path class="cls-7" d="M363,550.92c-.28-.06-.32-.53,0-.54,7.38-.3,15.34,2.07,22.4,4,5.71,1.55,11.57,3.4,16.22,7.2a19.84,19.84,0,0,1,7.44,14.85c.33,6.51-.48,14.39-3.59,20.21-.09.17-.41.13-.36-.09,3.22-12.36,6-27.44-6.39-35.64C388.27,553.94,375,553.32,363,550.92Z"/><path class="cls-7" d="M402.83,593.75c7.4.84,26.79,14.59,30.22,28.58s-7.64,34.9-11.23,36.46-20.12-11.65-25.58-21.45c-3.66-6.54-1-14.29.53-22C399,604,401.68,593.62,402.83,593.75Z"/><path class="cls-7" d="M391.78,635.65c-2.41-14.27,5.48-28.56,10.15-41.55.05-.13.28-.08.25.07-2.51,12.43-9.8,23.68-9.81,36.64,0,7.7,2.79,15.2,9.21,19.83,5.55,4,12.48,5.76,18.88,7.92.43.15.16.77-.26.64C407.44,655.24,394.27,650.37,391.78,635.65Z"/><path class="cls-7" d="M404.44,595.05c-.37-.18-.13-.77.24-.6,10.58,4.81,23.32,11.87,29.1,22.41,6.26,11.42.35,23.57-4.9,34-.07.13-.28.05-.22-.09,5.18-10.63,10.62-23.81,3.53-34.92C426.09,606.34,414.41,599.75,404.44,595.05Z"/><path class="cls-7" d="M421,658.43c-4.65,3-11,12.14-11.59,22.16-1.09,17.13-7.77,14.46-25.72,20.8-15.17,5.36-16.71,23.11-7.55,30.86,0,0-5.9-10.24,4.05-16.56,11.89-7.55,41.87,2.7,54.36-16.44C450.68,674.47,421,658.43,421,658.43Z"/><path class="cls-7" d="M415.15,666.89c.18-.26-.25-.57-.44-.33a24.67,24.67,0,0,0-4.32,7.84c-1.22,3.73-.9,7.59-1.85,11.36-2.41,9.58-13.6,10.39-21.63,11.79-10.77,1.87-18.82,9.38-18.33,20.86a.13.13,0,0,0,.26,0,19.42,19.42,0,0,1,9.85-17.55c6.06-3.32,13.36-2.63,19.78-4.88,4.39-1.55,8.68-3.91,10.32-8.51.9-2.52.89-5.31,1.23-7.93A27,27,0,0,1,415.15,666.89Z"/><path class="cls-7" d="M424,660.18c-.11-.07-.24.1-.14.18,6.76,5.44,13.88,10.87,16.55,19.56,2.87,9.35-1.08,19.41-8,25.93-7.74,7.31-17.06,5.14-26.63,4.26-6.92-.63-13.92-.74-20.35,2.26-.19.09,0,.41.16.35,10.47-3.58,20.61-1.38,31.33-.75,8.75.52,15.21-3.16,20.07-10.4C447.75,685.58,438.56,669.5,424,660.18Z"/><path class="cls-1" d="M369.41,543c2.3-3,6.93.62,4.63,3.64S367.11,546.05,369.41,543Z"/><path class="cls-1" d="M367.21,548.05c2.29-3,6.93.61,4.63,3.63S364.9,551.07,367.21,548.05Z"/><path class="cls-1" d="M364.14,552.65c2.3-3,6.93.61,4.63,3.63S361.84,555.67,364.14,552.65Z"/><path class="cls-1" d="M360.6,556.69c2.29-3,6.93.62,4.63,3.63S358.3,559.71,360.6,556.69Z"/><path class="cls-1" d="M356.32,560.14c2.29-3,6.93.62,4.63,3.64S354,563.16,356.32,560.14Z"/><path class="cls-1" d="M351.66,562.67c2.3-3,6.94.62,4.64,3.64S349.36,565.69,351.66,562.67Z"/><path class="cls-21" d="M347.24,617.3c-12.73,15.64-80.76,65-138.18,64.06-19.51-.31-73.72-83.58-83.74-115.25-7.2-22.74,41.09-34.22,54.73-30.93,17,4.1,50.22,75.53,56.78,76,19.49,1.36,53-10.39,94.11-14.56C352.05,594.47,357,605.25,347.24,617.3Z"/><path class="cls-21" d="M127.19,571.34c-3.63-7.91-20.67-51.89-22.06-63.21s-3-44.19,5.57-46.13,9.8,7.65,9.8,7.65,1.52-14,10.32-15.16,10.24,13.81,10.24,13.81,2.6-14.25,11.46-14.79,7.79,14.77,7.79,14.77,1.77-13.14,9.25-10.51c9,3.16,3,27,5.46,39.4.56,2.82,15.4,56.2,15.4,56.2Z"/><path class="cls-7" d="M160.37,467c-4.37,17.55-3.25,26,2.33,42.9.11.33-.36.57-.5.23-7-16.06-9.91-26.44-2.67-43.39C159.89,465.88,160.58,466.13,160.37,467Z"/><path class="cls-7" d="M141.43,466.91c-3,18.63-1.82,27.8,2.73,45.94.06.26-.36.39-.45.14-6-17.43-8.64-27.85-3.24-46.08C140.71,466.09,141.56,466.06,141.43,466.91Z"/><path class="cls-7" d="M120.76,470.56c-1.55,18.25-.74,28.35,5.94,45.39a.34.34,0,0,1-.62.29c-8.49-16.73-9.6-29.32-5.88-45.67C120.46,469.46,120.86,469.41,120.76,470.56Z"/><path class="cls-21" d="M202.44,561.65S205,539.12,203.88,529s-19-46.46-27.06-43c-10.41,4.42-4.2,27.43.32,38.29,0,0-24.09,10.21-23.2,27.69S202.44,561.65,202.44,561.65Z"/><path class="cls-7" d="M174.35,488.1c-6.58,10.89.27,24.77,3.87,35.64a1,1,0,0,1-1,1.42c-9.82,5-22.22,14.8-23.84,26.29a.27.27,0,0,1-.53,0c.07-12.56,11.46-23.22,22.56-28-3.86-11.09-10.12-25.32-1.19-35.43C174.3,488,174.4,488,174.35,488.1Z"/><path class="cls-11" d="M265.89,605.64l23.7,54.84s35.83-17,57.61-39.09-2.42-29.41-23.53-26.21S265.89,605.64,265.89,605.64Z"/><path class="cls-22" d="M347.21,621.41c-21.79,22-57.62,39.08-57.62,39.08l-7.21-16.67L354.55,602C357.21,606.36,355.75,612.76,347.21,621.41Z"/><path class="cls-7" d="M298.54,652.79c-11.7-22-18.6-42.85-20.47-47.08-.09-.2.24-.32.32-.11,1.62,4.24,12.89,27.53,20.5,47.06C299,652.89,298.65,653,298.54,652.79Z"/><path class="cls-11" d="M292.92,713.92l-9.72,74.21H438.51S418,649,384.8,606.25c-16.59-21.37-38.82-20.82-54.53-4.48-3.43,3.57-38.14,53.13-44.25,73.6C280.68,693.43,292.92,713.92,292.92,713.92Z"/><path class="cls-7" d="M338.13,609.19l-9.8,26.31q-4.87,13.15-9.32,26.43c-2.77,8.88-6.1,17.76-4.78,26.84A68.41,68.41,0,0,0,323,714.62l.22.38-.05.38c-1.34,11.79-2.93,23.56-4.39,35.34s-3.08,23.54-4.75,35.3q1.49-17.74,3.22-35.47c1.2-11.81,2.27-23.64,3.58-35.44l.17.76a70.73,70.73,0,0,1-9.48-26.82,38.66,38.66,0,0,1,1-14.37c1.19-4.59,2.63-9.07,4.15-13.52,3-8.9,6.55-17.58,10.1-26.25S334.18,617.69,338.13,609.19Z"/><path class="cls-7" d="M316.46,643.46a2.31,2.31,0,0,0,1.71,2.68,2.1,2.1,0,0,0,2.41-1.88,2.3,2.3,0,0,0-1.7-2.67A2.11,2.11,0,0,0,316.46,643.46Z"/><path class="cls-7" d="M307.05,669.09a2.31,2.31,0,0,0,1.71,2.68,2.1,2.1,0,0,0,2.41-1.88,2.3,2.3,0,0,0-1.7-2.68A2.11,2.11,0,0,0,307.05,669.09Z"/><path class="cls-7" d="M305.86,695.22a2.31,2.31,0,0,0,1.71,2.68A2.12,2.12,0,0,0,310,696a2.32,2.32,0,0,0-1.71-2.68A2.12,2.12,0,0,0,305.86,695.22Z"/><path class="cls-7" d="M313.12,716.85a2.32,2.32,0,0,0,1.71,2.68,2.12,2.12,0,0,0,2.42-1.88,2.31,2.31,0,0,0-1.71-2.68A2.12,2.12,0,0,0,313.12,716.85Z"/><path class="cls-7" d="M310.3,740.46a2.31,2.31,0,0,0,1.71,2.68,2.1,2.1,0,0,0,2.41-1.88,2.3,2.3,0,0,0-1.7-2.68A2.11,2.11,0,0,0,310.3,740.46Z"/><path class="cls-7" d="M307.73,763.78a2.31,2.31,0,0,0,1.7,2.67,2.11,2.11,0,0,0,2.42-1.88,2.3,2.3,0,0,0-1.7-2.67A2.11,2.11,0,0,0,307.73,763.78Z"/><path class="cls-21" d="M338.85,869.43c7.81,5.32,21-18.1,25.47-23.12s6.4-4.87,6.15-1l10.18-40.46c-5.27,4.1-16.48,12.92-22.44,18.71C350.23,831.28,331,864.12,338.85,869.43Z"/><path class="cls-21" d="M397.41,612.19c33.18,26.75,75,73.81,83.51,104.22,6.58,23.47-26.43,105-36.27,124.05-4.29,8.3-61.1-17-63.6-26.62s37.1-79.9,37.5-87.36-25.5-56.67-43.16-90C354,596.21,369.19,589.45,397.41,612.19Z"/><path class="cls-21" d="M344.42,892.64c5.23,5.7,15.82-1.2,15.82-1.2s-9.41,11.64-2.05,16.17,17.42-5.43,17.42-5.43-8.07,11.17-.4,15.14,17.59-4.7,17.59-4.7-.53,4.3,6.15,4.66c9.59.55,23.27-15,28.5-24.81s17.13-49.64,18.83-55.77l-62.72-34.1-2.91,2.22-10.18,40.46c-.17,2.52-7.35,18.05-10,22.51C354.63,877.87,338.55,886.26,344.42,892.64Z"/><path class="cls-7" d="M360.56,890.87c14.07-10.65,18.38-17.74,24.48-34,.12-.32.62-.21.53.13-4.53,16.47-8.66,26.14-24.53,34.58C360.27,892,359.89,891.38,360.56,890.87Z"/><path class="cls-7" d="M374.92,902.5c13.64-12.34,18.38-20,26-36.55.11-.23.51-.07.42.17-6.14,16.87-10.48,26.43-25.72,37C375,903.57,374.29,903.07,374.92,902.5Z"/><path class="cls-7" d="M392.84,912.38c12.34-12.91,17.9-21.07,23.27-38.1a.33.33,0,0,1,.63.16c-3.78,17.89-10.64,28.14-23.47,38.27C392.4,913.4,392.06,913.19,392.84,912.38Z"/><path class="cls-11" d="M391.18,685.4l47.87-35.74s-24.86-30.92-51.36-47-28.05,9.17-20.05,29S391.18,685.4,391.18,685.4Z"/><path class="cls-7" d="M429.5,642.73c-18.7,16.47-37.38,28-41.06,30.81-.18.13-.37-.16-.19-.29,3.76-2.55,23.81-18.9,41-30.83C429.49,642.28,429.68,642.57,429.5,642.73Z"/><path class="cls-7" d="M382.75,665.13c-2.92-6.55-6.91-16.07-10.2-22.43,0-.08-.18,0-.15.07,1.29,3.72,2.77,7.41,4.31,11.07-.13-.19-.24-.38-.37-.57-1.2-1.71-2.43-3.39-3.75-5,0,0-.13,0-.1.08q1.51,2.79,3.27,5.43c.73,1.1,1.51,2.16,2.29,3.22.83,1.93,2.77,6.71,3.61,8.62,1.4,3.21,8.3,21.37,8.6,21.18s3-2.06,4.81-3.61c.23-.2-.13-.63-.36-.43-.85.71-3,2.16-3.37,2.43-1.57-3.28-2.85-6.75-4.27-10.1S384.23,668.43,382.75,665.13Z"/><path class="cls-21" d="M362.6,596c-.8,2.76-15.09,20.16-27.81,18.89-4.14-.43-2.84-23.14-2.84-23.14l-.29-1.7-4-23.79L356.2,550l4.12-2.14s.66,6.58,1.41,14.78c0,.38.08.76.11,1.17s.11.9.14,1.33c.13,1.23.25,2.48.35,3.73.08.94.16,1.87.21,2.87s.12,2,.19,3C363.23,584.59,362.92,594.79,362.6,596Z"/><path class="cls-7" d="M361.73,562.62A48.41,48.41,0,0,1,331.66,590l-4-23.79L356.2,550l4.12-2.14S361,554.42,361.73,562.62Z"/><path class="cls-21" d="M297.85,524.34c-8.6,41.45,15.25,51.28,24.19,53.12,8.12,1.68,36,6.35,48.8-34s-3.72-57.44-22.07-62.25S306.45,482.89,297.85,524.34Z"/><path class="cls-7" d="M311.84,514.58a28.63,28.63,0,0,0,2.92-.12,4.72,4.72,0,0,0,2.95-.69A1.49,1.49,0,0,0,318,512a3.76,3.76,0,0,0-3.49-1.48,5.57,5.57,0,0,0-3.72,1.34A1.61,1.61,0,0,0,311.84,514.58Z"/><path class="cls-7" d="M340.33,520.92a27.39,27.39,0,0,1-2.72-1.07,4.71,4.71,0,0,1-2.56-1.62,1.5,1.5,0,0,1,.31-1.81,3.71,3.71,0,0,1,3.77-.25,5.46,5.46,0,0,1,3.07,2.49A1.6,1.6,0,0,1,340.33,520.92Z"/><path class="cls-7" d="M333,529.9c0-.11.19.17.17.29-.64,2.81-.9,6.14,1.48,7.57.08,0,0,.19,0,.16C331.56,536.87,331.94,532.46,333,529.9Z"/><path class="cls-7" d="M336.09,527.43c4.62.53,3.22,9.73-1.06,9.24S332.22,527,336.09,527.43Z"/><path class="cls-7" d="M337.83,528.19c.72.64,1.37,1.68,2.32,1.93,1.1.28,2.1-.56,3-1.37.09-.08.16,0,.14.13-.24,1.77-1.2,3.47-3.13,3.45-1.76,0-2.75-1.78-2.92-3.62C337.18,528.37,337.53,527.93,337.83,528.19Z"/><path class="cls-7" d="M315.58,525.91c0-.11-.24.1-.25.22-.33,2.87-1.18,6.09-3.9,6.67-.08,0-.09.16,0,.16C314.65,533,315.74,528.68,315.58,525.91Z"/><path class="cls-7" d="M313.47,522.56c-4.54-1-6.23,8.14-2,9.08S317.27,523.41,313.47,522.56Z"/><path class="cls-7" d="M311.45,522.81c-.82.35-1.69,1.1-2.57,1s-1.57-1.25-2-2.31c-.05-.11-.14,0-.16.07-.37,1.74-.13,3.67,1.49,4.31,1.47.59,2.87-.7,3.61-2.36C311.93,523.21,311.77,522.67,311.45,522.81Z"/><path class="cls-7" d="M326.53,551.6c-.76.6-1.54,1.45-2.59,1.42a7.63,7.63,0,0,1-3-1,.1.1,0,0,0-.14.14,3.88,3.88,0,0,0,3.47,1.94,3.07,3.07,0,0,0,2.53-2.29C326.85,551.6,326.64,551.51,326.53,551.6Z"/><path class="cls-7" d="M316.33,539.36s-1.28,4.15-1.62,6.15c0,.19.44.36,1.12.51,0,0,0,0,.08,0a9.64,9.64,0,0,0,9.83-2c.17-.17-.05-.42-.25-.32-3,1.5-6,1.52-9.11,1.05-.05-.57,2.44-7,2.13-7.11-1.08-.27-3.36.12-4.72.28,2.43-8.72,6.24-17,8.53-25.71a.27.27,0,0,0-.5-.21c-4.61,8.38-7.62,18.35-10.37,27.3C311.1,540.39,315.47,539.57,316.33,539.36Z"/><path class="cls-7" d="M329.4,486.46s-2.26,6.15-.52,10.9c3.58,9.79,15.09,8.4,18.59,12.47,3.29,3.81,1.34,10.88,4.28,14.66,4.07,5.24,10.41,4,10.85,7.27s1.6,13.81,5.6,15.51,29.45-65-24.65-68c0,0-7.1-3.73-19.13.95-13.26,5.17-20.76,25.46-20.76,25.46s.3-.25,2.3-1.7c2.82-2,4-4.07,6.07-5.38,3.22-2,4.78-1,8.11-3C325.21,492.65,329.4,486.46,329.4,486.46Z"/><path class="cls-7" d="M330.5,483.56a36.72,36.72,0,0,0-2.36,8.09,15.26,15.26,0,0,0,.39,8.12,11.24,11.24,0,0,0,5.73,5.4c2.47,1.19,5.27,1.73,7.92,3.09a8.56,8.56,0,0,1,3.36,3.06,11.43,11.43,0,0,1,1.19,4.29c.3,2.82.63,5.6,2.27,7.75a9.39,9.39,0,0,0,6.94,3.72c2.71.26,5.79-.21,8.32,1.23-2.64-1.23-5.51-.53-8.36-.58a10.17,10.17,0,0,1-7.7-3.74c-2-2.33-2.32-5.5-2.68-8.22a10.12,10.12,0,0,0-1.09-3.81,7.31,7.31,0,0,0-2.88-2.52c-2.37-1.28-5.2-1.88-7.82-3.17a14.71,14.71,0,0,1-3.64-2.47,8.77,8.77,0,0,1-2.52-3.66,15.88,15.88,0,0,1-.07-8.62A36.53,36.53,0,0,1,330.5,483.56Z"/><path class="cls-7" d="M329.24,485.92a29.35,29.35,0,0,1-3.32,7.17,13.9,13.9,0,0,1-6,5.43,20.21,20.21,0,0,1-3.87,1.09,6.38,6.38,0,0,0-3.09,1.67,20.18,20.18,0,0,1-2.65,3,8.82,8.82,0,0,1-3.61,1.67,9.91,9.91,0,0,0,3.17-2.16,20.44,20.44,0,0,0,2.29-3.12,6.83,6.83,0,0,1,3.56-2.23,22.09,22.09,0,0,0,3.65-1.09,14.78,14.78,0,0,0,5.64-4.83A58.12,58.12,0,0,0,329.24,485.92Z"/><path class="cls-21" d="M359.74,541.34s11.12-11.68,16.55-7.52-4.31,22-11.66,23.58a7.15,7.15,0,0,1-8.91-5.24Z"/><path class="cls-7" d="M373.37,538.88a.1.1,0,0,1,0,.19c-5.18,1.24-8.44,5.37-10.95,9.79,1.73-1.59,3.85-2.28,6-.18.11.11,0,.29-.17.24a4.39,4.39,0,0,0-5,.79,21.4,21.4,0,0,0-2.89,3.53c-.29.4-1,0-.8-.43l.06-.11C360.44,546.46,366.59,538.49,373.37,538.88Z"/><path class="cls-11" d="M331.63,593.56l6,19.3,25.14-21.77,6,8.12S343,634.94,343,633.24l-6.4-16.74-12,10.31,3.18-28.06Z"/><path class="cls-7" d="M325.33,612.85c.68-4.62,1.23-9.28,2.13-13.86,0-.17.29-.22.32,0,.56,4.55-2.13,22.19-2.46,26.45l.06,0c.5-.44,11.1-9,11.18-8.87,1.47,2.7,6.17,14.88,6.47,16,4.08-5.67,19.6-26.25,24.31-31.55.14-.15.38,0,.27.18-3.69,6-24.27,33.78-24.55,33.68a184.32,184.32,0,0,1-6.67-17.68c-1.83,1.91-12.62,11.68-12.6,11A147.21,147.21,0,0,1,325.33,612.85Z"/><path class="cls-1" d="M846.36,579.36c-.06-.45-.14-.87-.23-1.32.11.55.21,1.08.28,1.63C846.38,579.57,846.38,579.46,846.36,579.36Z"/><path class="cls-1" d="M773.33,592.28a6,6,0,0,0,.76.4l.11-.19,0,0c-.26-.07-.53-.11-.79-.17A.18.18,0,0,1,773.33,592.28Z"/><path class="cls-23" d="M669,388.11C623.15,439.69,567.64,546,580.08,566.37c13.85,22.64,80-50.8,77.71-54.12-1.93-2.83,19.57-66.45,35.18-113S680.32,375.36,669,388.11Z"/><path class="cls-4" d="M669,388.11C623.15,439.69,567.64,546,580.08,566.37c13.85,22.64,80-50.8,77.71-54.12-1.93-2.83,19.57-66.45,35.18-113S680.32,375.36,669,388.11Z"/><path class="cls-11" d="M675.16,452.65c-4.47,13.57-8.58,26.3-11.69,36.47-7.09.32-27.81-.83-49.34-21.52,6.47-11.48,13.48-23,20.7-34C640.25,439.29,653.39,450.41,675.16,452.65Z"/><path class="cls-4" d="M624.76,589.89l11.51-78s-18.45-32.22-7.74-55.35c5.4-11.71,42.46-68.94,62.42-83.43,18.73-13.6,44.38-1.2,53.1,10.62,25.09,34,37.31,95.19,51.32,206.17Z"/><path class="cls-7" d="M658.34,409.07c-3.78,5.19-7.46,10.47-11.08,15.79,1-2.07,2-4.14,3-6.21.07-.15-.14-.28-.22-.13-1.35,2.6-2.58,5.24-3.79,7.9q-7.25,10.72-14.05,21.75a57.21,57.21,0,0,0-5,9.73,43.7,43.7,0,0,0-2.44,10.35,55.41,55.41,0,0,0-.17,10.62,73.17,73.17,0,0,0,1.54,10.83,68.4,68.4,0,0,0,3.82,11.84c.8,1.86,1.65,3.72,2.57,5.53.85,1.65,2.56,5,2.54,5.16-.35,1.87-.7,3.18-.94,4.75l-.72,4.8c-.48,3.2-4.64,34.36-5.11,37.56-.93,6.36-1.73,12.73-2.52,19.11-.46,3.66-.7,7.35-1.21,11,0,.15.2.21.23.06.52-3.18,1.31-6.32,1.89-9.49s1.17-6.35,1.76-9.53c1.21-6.41,5.84-40.84,6.84-47.28l.84-5.35a36.27,36.27,0,0,0,.68-5.95s-5.72-11.74-7.94-20a70.31,70.31,0,0,1-2.26-10.61,55.4,55.4,0,0,1-.13-10.54,45.69,45.69,0,0,1,2-10.35,53.31,53.31,0,0,1,4.48-9.85c3.73-6.63,7.7-13.13,11.72-19.59q6.83-11,13.88-21.83C658.62,409.05,658.43,409,658.34,409.07Z"/><path class="cls-23" d="M580.08,566.37c11.7,15,41.51,16.44,116.22,27.08,10.34,1.47,40.35-68.69,29.39-70.83-13.8-2.7-68-10.16-72-10.21C619.72,512,572.14,556.19,580.08,566.37Z"/><path class="cls-23" d="M710.73,520s31.57,3.11,47.66,9.87c21.54,9.06,36.41,25.76,42.21,33.13,12.13,15.38,30.8,61,18.61,68.63-11,7-27.77-40.61-27.77-40.61s25.07,45.67,10.24,51.59-31.11-50.4-31.11-50.4,24.7,47.51,8.45,51.19c-12.28,2.78-29.9-47.39-29.9-47.39s20.94,41,8.44,44.39c-13.82,3.76-33-41.53-33-41.53-33.24,3.31-50.43-8.72-61.63-18.73C660.21,577.72,710.73,520,710.73,520Z"/><path class="cls-7" d="M783.79,574.68c3.13,5.25,6.35,10.56,9,16.08s5.13,11.13,7.26,16.87c5.24,14.09,6.31,23.73,6.18,23.14-3.11-13.91-12.32-33.82-15-39.34s-5-11.15-7.69-16.66C783.51,574.63,783.71,574.55,783.79,574.68Z"/><path class="cls-7" d="M763.68,583.92c3.72,6.89,7.66,13.59,11.07,20.64s6,14,8.91,21.22c.23.55-.15.49-.39-.06-3.19-7.11-6.69-13.44-10-20.52S767,590.92,763.51,584C763.46,583.89,763.62,583.82,763.68,583.92Z"/><path class="cls-7" d="M745,588.75c6.22,10.24,10.54,21.61,14.52,32.86.19.56-.28.43-.51-.13-4.62-11-8.17-19.69-14.37-32.51C744.55,588.77,744.87,588.53,745,588.75Z"/><path class="cls-4" d="M734.59,520.56l-61.51,72.38s-84-5.85-93.69-28,54.29-54.4,74.21-52.66S734.59,520.56,734.59,520.56Z"/><path class="cls-7" d="M621.24,521.88c4.83-3.3,18.54-11.13,32.36-9.58a.12.12,0,0,1,0,.24c-11.33.35-27.31,6.73-32.25,9.54A.12.12,0,0,1,621.24,521.88Z"/><path class="cls-7" d="M660.07,580.43c24.17-25.61,45.7-56.19,49.83-61.25.19-.24-.22-.53-.4-.27-3.79,5.17-32.18,37.45-49.87,61.21C659.43,580.4,659.84,580.67,660.07,580.43Z"/><rect class="cls-1" x="565.78" y="447.3" width="136.28" height="104.69" transform="translate(17.59 1020.83) rotate(-78.46)"/><rect class="cls-11" x="623.07" y="425.96" width="49.62" height="15.04" transform="translate(100.42 -121.44) rotate(11.6)"/><polygon class="cls-11" points="662.65 428.85 656.67 427.62 658.06 420.83 643.52 417.84 642.12 424.63 636.14 423.4 638.68 411.03 665.28 416.49 662.65 428.85"/><path class="cls-23" d="M756.34,399.89c49.4,62.86,68,175.79,40.62,184.6-25.05,8-128.1-17.75-158.8-28.17-9-3.07,18.83-73.16,28.48-69.9,11.65,3.94,75.39,19.05,76.62,19.07,2.65.06-11.51-69.46-17.59-101C717.2,360.62,737.79,376.28,756.34,399.89Z"/><path class="cls-23" d="M584.26,460.08c-5.22,5.92-1,12.91-1,12.91s-6.08,1.63-9.18,6.83c-3.55,5.95,4.22,14.13,4.22,14.13a20.73,20.73,0,0,0-8.54,8.74c-2.83,6,3.85,15.41,3.85,15.41s-3.93,5.7-2.68,12.42c2.15,11.48,18.76,18,29.28,22.25s44.33,6.46,50.73,7.53L678.81,493S637.07,460.55,624,457.31C613,454.58,590.11,453.44,584.26,460.08Z"/><path class="cls-7" d="M584.18,472.11c12.4.09,24.11,3.85,36,6.93a.22.22,0,0,1-.12.42c-11.79-3.21-24.07-4-36-6.77A.3.3,0,0,1,584.18,472.11Z"/><path class="cls-7" d="M578.88,493.16c2.81.1,5.57,1.13,8.23,2,2.86.89,5.7,1.84,8.53,2.83q8.5,3,16.84,6.37c.25.1.16.51-.11.41-5.65-2-11.33-3.84-17-5.57q-4.3-1.31-8.62-2.53c-2.68-.76-5.57-1.34-8-2.69A.43.43,0,0,1,578.88,493.16Z"/><path class="cls-7" d="M573.85,518.18c2.44,0,5,1.32,7.31,2.16q3.84,1.44,7.7,2.83c5.15,1.86,10.29,3.71,15.5,5.39.26.09.15.49-.11.41-5.3-1.68-10.62-3.28-15.91-5l-7.77-2.58c-2.19-.75-5-1.43-6.83-3A.15.15,0,0,1,573.85,518.18Z"/><path class="cls-4" d="M742.34,502.64c.8-.47-14-67.58-19-102.6s10.67-31.65,33.18-1.71c24.1,32.06,67,118.87,52.16,183.15-4.82,20.81-153.94-8.35-153.94-8.35l20.09-85.7S741.1,503.38,742.34,502.64Z"/><path class="cls-11" d="M803.1,496.28c-24.32,7.14-50.69,3.52-61.45,1.49-1.56-8.42-5.34-26.68-9.18-46.4,25.55,2.83,42.89-.82,52.36-4A331.82,331.82,0,0,1,803.1,496.28Z"/><path class="cls-7" d="M674.29,564.32c9.07-29.84,14.07-62.58,15.35-68.23.06-.26-.38-.33-.42-.06-1,5.6-10.75,42.4-15.4,68.22C673.77,564.55,674.2,564.6,674.29,564.32Z"/><path class="cls-7" d="M770.37,512.56c-2.87-.49-79-21.93-95.65-24.51-.26,0,0-.92.25-.87,51.15,9,93.18,22.7,96.4,24C775.19,512.69,775.74,513.48,770.37,512.56Z"/><path class="cls-7" d="M741.6,503.33c.06-.15-5-25.84-5.92-27.44s-2.91-5.36-3.73-7.08c-1.65-3.47-3.08-7-4.59-10.54-.13-.29.31-.51.43-.22,1.64,3.4,3.58,6.66,5.52,9.88,1,1.58,1.94,3.18,2.92,4.75.07.1-4.69-25.11-5.36-29.54,0-.32.31-.42.41-.14,1.43,4.46,11.41,55,12.77,60.56A23.33,23.33,0,0,1,741.6,503.33Z"/><path class="cls-7" d="M685.48,578.46c-5-1.38-24.89-4.6-29.74-5.3.48-1.75,1.89-8.88,1.76-10.89,0-.19-.3-.31-.41-.13-1.14,1.66-3.08,10.43-3.66,12.5-.11.39,26.84,3.77,32,4.05A.12.12,0,0,0,685.48,578.46Z"/><path class="cls-21" d="M678.81,379.34s2,19.72,18.35,22.79,46.89-18.41,46.89-18.41-12.26-16.51-34.43-16.56C688.3,367.11,678.81,379.34,678.81,379.34Z"/><path class="cls-23" d="M773.43,592.3l.77.19,0,0C774,592.4,773.69,592.36,773.43,592.3Z"/><path class="cls-1" d="M846.13,578c.11.55.21,1.08.28,1.63,0-.1,0-.21,0-.31C846.3,578.91,846.22,578.49,846.13,578Z"/><path class="cls-1" d="M846.13,578c.11.55.21,1.08.28,1.63,0-.1,0-.21,0-.31C846.3,578.91,846.22,578.49,846.13,578Z"/><path class="cls-1" d="M770,600.22v0c.8.19,1.59.38,2.37.55Z"/><path class="cls-24" d="M846.13,578c.11.55.21,1.08.28,1.63,0-.1,0-.21,0-.31C846.3,578.91,846.22,578.49,846.13,578Z"/><polygon class="cls-4" points="672.18 262.06 672.39 246.81 669.34 247.75 672.18 262.06"/><polygon class="cls-4" points="667.67 264.31 656.82 257.55 655.09 260.59 667.67 264.31"/><polygon class="cls-4" points="669.8 262 659.63 242.79 655.46 245.8 669.8 262"/><path class="cls-7" d="M647.15,321.54c1.64,5.36,6.52,8,11.66,8.22a2.75,2.75,0,0,0,.41,0,8.81,8.81,0,0,0-.47.77s0,0,0,0,0,0,0,0h0a13,13,0,0,0-.07,12.85,14,14,0,0,0,.79,1.21h0a13.81,13.81,0,0,0,11.6,5.42c1,8.2,8.63,14.17,15.8,13h0a11.83,11.83,0,0,0,6.88-3.83c2.09,1.68,4.38,3.15,7.16,2.85.82-.09,1.61-.36,2.43-.44a5,5,0,0,1,2.27.32c.43.16.86.37,1.31.59a23.85,23.85,0,0,0,3.88,1.69c.44.13.89.25,1.35.35,3.83.88,8.06.51,10.65-2.53a12.89,12.89,0,0,0,3.12,2.06,14,14,0,0,0,14.27-1.26,11.28,11.28,0,0,0,1.8-1.72c.75-.88,1.29-2.18,2.41-2.68s2.59-.29,3.76-.37a12.92,12.92,0,0,0,2.9-.48c2.48-.75,4.69-3.19,4-5.78,3.48.54,6.62-2,8.28-4.89a15,15,0,0,0,.9-12.58,10.19,10.19,0,0,0,5-13.65c4.57-2.91,5.32-9.77,1.5-13.8a13.46,13.46,0,0,0,.47-12.82,6,6,0,0,1-.61-2.58c1.64-2.59,2.57-5.51,1.58-8.67a8.14,8.14,0,0,0-7.32-5.73,15.69,15.69,0,0,0-2.71-7,10.91,10.91,0,0,0-9.35-5A15.36,15.36,0,0,0,733.08,254c-.55-4.28-4.23-7.59-8.32-8.74-5-1.41-10.1.32-14.52,2.49a7.77,7.77,0,0,0-8.44-5.15,8,8,0,0,0-6.07,5c-3-.51-6.31-.48-8.82,1.33a6.72,6.72,0,0,0-2.83,6.85,10,10,0,0,0-10.2,13.77,12.58,12.58,0,0,0-12.65,3.34,12.41,12.41,0,0,0-1.7,13.72,10.63,10.63,0,0,0-9.11,7.64c-1.47,4.87.39,10.15,3.42,14.16a10.71,10.71,0,0,0-4,11.37,14.65,14.65,0,0,0,7.31,8.81c-4.09-.7-7.69-2.85-9.13-7.33-1.67-5.24,1.21-10.33,5.66-12.95,0,0,0-.08,0-.07C648.51,310.54,645.41,315.83,647.15,321.54Zm117.7-44a8.58,8.58,0,0,1,6.65,7.07,9.85,9.85,0,0,1-.82,5.4c0-.12,0-.22.05-.35a10.52,10.52,0,0,0-2.16-8.67,10.77,10.77,0,0,0-2.23-2.14c-.46-.32-1.48-.88-1.48-.88S764.86,277.78,764.85,277.52Zm-55-29.58-.24.12a8.2,8.2,0,0,0-8.78-2.88,8.54,8.54,0,0,0-4,2.59h0a6.68,6.68,0,0,1,5.19-4.49C705.79,242.6,708.14,244.92,709.81,247.94ZM673.49,354.49A15,15,0,0,0,686.57,361h0a14.07,14.07,0,0,0,6.67-2.1l.1.07a13.58,13.58,0,0,1-6.58,3.31h0C681.4,363.1,676.53,359.64,673.49,354.49Z"/><path class="cls-21" d="M694.73,395.47c9.43,2.27,25.64-6,32.09-17.61.44-.8-2.74-32.87-2.71-39.29l-40.31,9.6s3.9,13.48,3.78,24.67a14.6,14.6,0,0,1-.29,2.63,3.92,3.92,0,0,0-.06.44C686.39,380.91,685.62,393.26,694.73,395.47Z"/><path class="cls-21" d="M733.32,294.91c2.53,15-10.52,55.81-22,63.79-16.65,11.57-41.23,9.69-50.38-9.71-8.86-18.82,9.08-71.66,21.67-78.63C701.13,260.09,729.57,272.71,733.32,294.91Z"/><path class="cls-7" d="M691,314.47c.06-.1.18.19.14.31-1,2.72-1.59,6,.61,7.7.07,0,0,.18-.07.14C688.82,321.24,689.7,316.89,691,314.47Z"/><path class="cls-7" d="M694.4,312.37c4.53,1.05,2.09,10-2.11,9.06S690.6,311.48,694.4,312.37Z"/><path class="cls-7" d="M674.37,310c0-.12-.25.07-.28.18-.67,2.81-1.91,5.91-4.68,6.15-.08,0-.11.15,0,.16C672.58,316.86,674.19,312.72,674.37,310Z"/><path class="cls-7" d="M672.68,306.37c-4.38-1.55-7.18,7.33-3.12,8.77S676.35,307.68,672.68,306.37Z"/><path class="cls-7" d="M699.85,306.36a33.37,33.37,0,0,0-3.61-1.23c-1.4-.46-2.46-1-3.94-.56a2,2,0,0,0-1.22,2.07c.33,1.84,1.9,2.82,3.56,3.44a7.18,7.18,0,0,0,5.16.12C701.56,309.61,701.43,307.06,699.85,306.36Z"/><path class="cls-7" d="M670.78,299.13a37.64,37.64,0,0,0,3.83,0c1.46,0,2.63.12,3.9-.75A2,2,0,0,0,679,296c-.91-1.63-2.71-2.06-4.48-2.11a7.18,7.18,0,0,0-4.93,1.56C668.12,296.61,669.07,299,670.78,299.13Z"/><path class="cls-7" d="M680.87,340.86c-.67.7-1.33,1.65-2.37,1.77a7.5,7.5,0,0,1-3.12-.62c-.1,0-.19.07-.12.15a3.9,3.9,0,0,0,3.71,1.45,3.11,3.11,0,0,0,2.18-2.63C681.19,340.81,681,340.76,680.87,340.86Z"/><path class="cls-7" d="M686,331.86a9.64,9.64,0,0,1-7.24,2.66,12.11,12.11,0,0,1-3.4-.65,3.79,3.79,0,0,1-.62-.23,5.5,5.5,0,0,1-.58-.24.69.69,0,0,1-.4-.74v0c0-.1,0-.18.09-.28v0l.06-.24c.45-2.13,1.43-5.29,1.43-5.29-.87.2-5.23,1-4.9-.07,2.74-9,5.79-19,10.42-27.42a.26.26,0,0,1,.49.19c-2.3,8.76-6.12,17.07-8.56,25.84,1.37-.18,3.64-.57,4.74-.28.28.16-2,6.08-2.13,7.06a.27.27,0,0,0,0,.1c3.44,1.31,6.37.88,10.4-.68C686.05,331.44,686.22,331.68,686,331.86Z"/><path class="cls-7" d="M666.69,293.75l.13,0c1.83.24,6.66.71,9.74-8.22,2.89,1.56,8.89-.82,11.7-2.92-.57,10.76,9.76,18,18.91,14.46-.78,4.25-.82,8.75,1,12.39,3,5.95,11,4.52,11,4.52v.06a11.22,11.22,0,0,0-1.12,7.51,10.35,10.35,0,0,0,.51,1.75,10.88,10.88,0,0,0,1.54,2.8,9.81,9.81,0,0,0,3.62,3,7.93,7.93,0,0,0,1.57.56,6.72,6.72,0,0,0,1.19.2,5.46,5.46,0,0,0,.58,0,8.74,8.74,0,0,0,1.85.07,15.25,15.25,0,0,0,5.06-1.18,10.49,10.49,0,0,0,1.53-.86l.25-.18a9.46,9.46,0,0,0,2.14-2.26c2.83-4.19,2.6-10.27-.53-13.57a10.64,10.64,0,0,0,4.41-9.3,9.71,9.71,0,0,0-.25-1.69c-.62-2.6-3.29-4.47-2.86-7.26a16.49,16.49,0,0,0-.23-6.72,12.75,12.75,0,0,0-6.38-8.29,7.08,7.08,0,0,1-3.33-2.92,25.35,25.35,0,0,0-1.68-2.65,16.33,16.33,0,0,0-3.83-3.56,14.86,14.86,0,0,0-5.73-2.29c-2.19-.38-4.65.3-6.59-1-1.69-1.09-7.62-2.14-9.65-2.16a30.42,30.42,0,0,0-5.35.43,19.57,19.57,0,0,0-8,3s-4.6-.09-9.83,4.94c-5,4.8-5.8,9.16-5.8,9.16s-1.88.44-3.87,3.87C666.09,289.46,666.46,293.7,666.69,293.75Zm52.82,20.9a26.53,26.53,0,0,0,.23,7.17,13.44,13.44,0,0,0,.48,1.75,11.21,11.21,0,0,0,1,2.09l.24.4c-.1-.11-.2-.23-.29-.35a10.73,10.73,0,0,1-1.4-2.17,10.42,10.42,0,0,1-.67-1.77A10.58,10.58,0,0,1,719.51,314.65Zm-30.18-31.44c.89,5.87,4.18,10.44,8.61,12.66C693.11,294,689.58,289.91,689.33,283.21Z"/><path class="cls-25" d="M736,312.36c-6.23,4.76-15.73,3.91-22.77-1.06-4.62-3.26-6.7-10.11-10.89-16.17-6.89-10-24.41-13.28-18.79-27.75,5-12.86,27-13.09,45.15-.89C744.77,277.27,750,301.66,736,312.36Z"/><path class="cls-1" d="M685.1,331.82c.16.14.33.27.5.4a12.4,12.4,0,0,0,2.62,1.55,12.84,12.84,0,0,0,3.12.94,13.11,13.11,0,0,0,15.32-13,14.41,14.41,0,0,0-.13-1.75,13.15,13.15,0,0,0-6.81-9.78c-.28-.15-.56-.29-.85-.42a13.14,13.14,0,0,0-17,5.91c-.13.24-.25.5-.36.75h0c-.15.35-.29.7-.41,1.05A13.16,13.16,0,0,0,685.1,331.82Zm-1.94-14.65a11.39,11.39,0,0,1,12.29-6.58,10.75,10.75,0,0,1,2.7.82,11.36,11.36,0,1,1-15,5.76Z"/><path class="cls-1" d="M659.37,324.73a7.22,7.22,0,0,0,2.3,1.16,8.45,8.45,0,0,0,.84.19c3.43.58,7-1.3,9.58-4.69a17,17,0,0,0,2.65-5.33c.08-.29.16-.59.23-.88a17.33,17.33,0,0,0,.36-2,14.78,14.78,0,0,0,.11-1.74h0a14.24,14.24,0,0,0-.79-5,8.68,8.68,0,0,0-5.59-5.76,7.68,7.68,0,0,0-3.87-.11,10.29,10.29,0,0,0-4,1.93,15.64,15.64,0,0,0-5.24,8C654.3,316.36,655.8,322.12,659.37,324.73Zm-1.68-13.68a13.87,13.87,0,0,1,4.63-7.12,8.86,8.86,0,0,1,2.2-1.27,6.33,6.33,0,0,1,3.41-.4c.21,0,.43.09.64.15a6.75,6.75,0,0,1,4.18,4c.1.22.19.44.27.67a12.64,12.64,0,0,1,.67,4.52h0c0,.38,0,.75-.07,1.12h0c0,.23,0,.45-.09.68h0a15.3,15.3,0,0,1-.47,2.17c-1.77,6-6.64,9.9-10.89,8.65a6,6,0,0,1-2.51-1.5C657.22,320.3,656.32,315.7,657.69,311.05Z"/><path class="cls-1" d="M681.55,318l1.46-1c-1.43-2.16-5.21-5.61-9.25-3.23l.89,1.51C678.27,313.21,681.42,317.85,681.55,318Z"/><path class="cls-1" d="M736.74,330.84l1.64-.63c-.29-.76-3-7.49-6.77-8.57-3.57-1-24.54-1.64-25.54-1.66l0,1.76c6.76.12,22.34.82,25.09,1.59C733.66,324,736,329,736.74,330.84Z"/><path class="cls-21" d="M718.7,327.64s11.44-12.06,17-7.78-4.41,22.74-12,24.33a7.37,7.37,0,0,1-9.18-5.39Z"/><path class="cls-7" d="M732.74,325.08a.1.1,0,0,1,0,.2c-5.33,1.28-8.68,5.55-11.26,10.11,1.77-1.64,4-2.35,6.19-.2.12.11,0,.3-.18.25a4.53,4.53,0,0,0-5.17.82,22.17,22.17,0,0,0-3,3.64c-.3.42-1.08.06-.83-.44l.06-.11C719.43,332.92,725.76,324.69,732.74,325.08Z"/><path class="cls-7" d="M708,264.06l-.27,4.36a.83.83,0,0,0,.78.88h0a.83.83,0,0,0,.68-.28,1.74,1.74,0,0,1,3,1.28,1.76,1.76,0,0,1-1.85,1.64,1.74,1.74,0,0,1-1.3-.72.87.87,0,0,0-.64-.37h0a.84.84,0,0,0-.88.79l-.27,4.36,4.36.26a.83.83,0,0,1,.78.88h0a.83.83,0,0,1-.36.64,1.74,1.74,0,1,0,2.76,1.52,1.78,1.78,0,0,0-.56-1.39.82.82,0,0,1-.28-.67h0a.84.84,0,0,1,.88-.79l4.36.27.26-4.36a.83.83,0,0,0-.78-.88h0a.84.84,0,0,0-.68.28,1.74,1.74,0,1,1,.14-2.2.83.83,0,0,0,.64.36h0a.83.83,0,0,0,.88-.78l.26-4.36-4.36-.26a.84.84,0,0,1-.78-.89h0a.87.87,0,0,1,.37-.63,1.77,1.77,0,0,0,.71-1.31,1.74,1.74,0,1,0-2.92,1.17.89.89,0,0,1,.29.68h0a.84.84,0,0,1-.89.78Z"/><path class="cls-25" d="M708,264.06l4.35.26a.84.84,0,0,0,.89-.78h0a.89.89,0,0,0-.29-.68,1.74,1.74,0,1,1,2.21.13.91.91,0,0,0-.37.64h0a.84.84,0,0,0,.78.89l4.36.26.27-4.36a.82.82,0,0,1,.88-.78h0a.86.86,0,0,1,.64.36,1.71,1.71,0,0,0,1.3.72,1.74,1.74,0,1,0,.21-3.47,1.7,1.7,0,0,0-1.38.55.83.83,0,0,1-.68.28h0a.82.82,0,0,1-.78-.88l.27-4.36-4.36-.26a.82.82,0,0,0-.88.78h0a.84.84,0,0,0,.28.68,1.7,1.7,0,0,1,.55,1.38,1.74,1.74,0,1,1-3.47-.21,1.71,1.71,0,0,1,.72-1.3.9.9,0,0,0,.36-.64h0a.84.84,0,0,0-.78-.89l-4.36-.26-.26,4.36a.84.84,0,0,1-.89.78h0a.86.86,0,0,1-.64-.36,1.71,1.71,0,0,0-1.3-.72,1.74,1.74,0,1,0-.21,3.47,1.7,1.7,0,0,0,1.38-.55.84.84,0,0,1,.68-.28h0a.82.82,0,0,1,.78.88Z"/><path class="cls-25" d="M754.37,288l-4.36-.26a.84.84,0,0,0-.89.78h0a.89.89,0,0,0,.29.68,1.7,1.7,0,0,1,.55,1.38,1.74,1.74,0,1,1-3.47-.21,1.71,1.71,0,0,1,.72-1.3.86.86,0,0,0,.36-.64h0a.82.82,0,0,0-.78-.88l-4.36-.27-.27,4.36a.82.82,0,0,1-.88.78h0a.83.83,0,0,1-.64-.36,1.71,1.71,0,0,0-1.3-.72,1.74,1.74,0,1,0-.21,3.47,1.7,1.7,0,0,0,1.38-.55.84.84,0,0,1,.68-.28h0a.82.82,0,0,1,.78.88l-.26,4.36,4.35.26a.84.84,0,0,0,.89-.78h0a.89.89,0,0,0-.29-.68,1.74,1.74,0,1,1,2.2.14.89.89,0,0,0-.36.63h0a.84.84,0,0,0,.78.89l4.36.26.27-4.36a.82.82,0,0,1,.88-.78h0a.89.89,0,0,1,.64.36,1.71,1.71,0,0,0,1.3.72,1.74,1.74,0,1,0-1.17-2.92.87.87,0,0,1-.68.29h0a.84.84,0,0,1-.78-.89Z"/><path class="cls-1" d="M723.41,267.37c-4.93,8-1.3,13-2,15.6a42,42,0,0,1-2,4.51l7.63,6a42.14,42.14,0,0,1,3.94-3c2.32-1.33,8.08,1.05,14.71-5.59,4.36-4.35,6.74-14.78-1.33-21.17S726.65,262.12,723.41,267.37Z"/><rect class="cls-25" x="722.74" y="287.15" width="15.75" height="0.32" transform="translate(-8.88 550.92) rotate(-41.09)"/><rect class="cls-25" x="716.72" y="282.39" width="15.75" height="0.32" transform="translate(137.08 792.15) rotate(-62.24)"/><path class="cls-25" d="M729.24,282.86a2.45,2.45,0,0,1-.59-2.3,1.87,1.87,0,0,0,0-.25,1.56,1.56,0,0,1-1.14-.32c-1-.77.22-3.62.27-3.74l.15.06s-1.19,2.86-.32,3.55h0a1.42,1.42,0,0,0,1.08.3c.33-1.52,1.24-3.07,2-3.39a.64.64,0,0,1,.67.08c.49.39.39,1.14-.26,2a4,4,0,0,1-2.32,1.48c0,.09,0,.19-.05.28a2.25,2.25,0,0,0,.53,2.15,2.91,2.91,0,0,0,2.83-.14c0-.12,0-.25,0-.39.16-1.12.88-2.54,1.68-2.86a.84.84,0,0,1,.87.13h0c.42.33.37.87-.15,1.52a6.49,6.49,0,0,1-2.28,1.7,1.05,1.05,0,0,0,.3.86h0c1,.8,3.28-1.15,3.3-1.17l.11.12c-.1.09-2.39,2.06-3.51,1.17a1.16,1.16,0,0,1-.36-.9l-.14.06c-.7.28-2,.67-2.79,0Zm1.59-5.94c-.73.29-1.61,1.78-1.93,3.22a4,4,0,0,0,2.15-1.42c.47-.59.79-1.36.29-1.75A.48.48,0,0,0,730.83,276.92Zm3.12,2.57c-.74.29-1.43,1.68-1.58,2.74a1.43,1.43,0,0,0,0,.29,6.56,6.56,0,0,0,2.15-1.63c.26-.33.63-.93.17-1.29h0A.68.68,0,0,0,734,279.49Z"/><rect class="cls-24" x="716.72" y="289.92" width="12.01" height="2.35" transform="translate(1108.94 967.78) rotate(-141.65)"/><rect class="cls-24" x="715.03" y="292.06" width="12.01" height="2.35" transform="translate(1104.59 970.55) rotate(-141.65)"/><rect class="cls-24" x="713.34" y="294.19" width="12.01" height="2.35" transform="translate(1100.24 973.31) rotate(-141.65)"/><path class="cls-25" d="M745.65,281.16c2.8-3.86,3.39-10.07-.29-13.57,2.41,4.21,1.77,9.16.29,13.57Z"/><path class="cls-24" d="M699.68,288.27l.76,1.8,1.36-.45a5.81,5.81,0,0,0,1.54,1.62l-.44,1.37,1.82.74.6-1.22a5.61,5.61,0,0,0,2.31.07l.62,1.2,1.81-.76-.41-1.2a5.77,5.77,0,0,0,1.72-1.65l1.23.39.73-1.81-1.1-.56a5.87,5.87,0,0,0,0-2.4l1.12-.58-.76-1.81-1.19.4a5.65,5.65,0,0,0-1.68-1.66l.41-1.28-1.81-.73-.6,1.19a5.7,5.7,0,0,0-2.29,0l-.65-1.28-1.81.76.46,1.36a5.69,5.69,0,0,0-1.57,1.56l-1.42-.45-.74,1.81,1.31.66a5.76,5.76,0,0,0,0,2.19Zm2.86-1.4a4,4,0,1,1,4.32,3.67A4,4,0,0,1,702.54,286.87Z"/><path class="cls-24" d="M703.86,288.63l.71.61,1.47-1.73.54-.62a1.59,1.59,0,0,1-.27-.18,1.17,1.17,0,0,1-.35-.52l-.58.67Z"/><path class="cls-24" d="M705.38,286.86a2.17,2.17,0,0,0,.4.46,1.57,1.57,0,0,0,.26.19,2,2,0,1,0-.66-.65Zm.58-.67a1.19,1.19,0,0,1,.23-1.19,1.21,1.21,0,0,1,1.7-.12,1.21,1.21,0,0,1-1.31,2,1.59,1.59,0,0,1-.27-.18A1.17,1.17,0,0,1,706,286.19Z"/><path class="cls-24" d="M732.88,302.89l1,.93.74-.68a4.1,4.1,0,0,0,1.44.59l.12,1,1.36-.05,0-.95a3.91,3.91,0,0,0,1.48-.61l.74.58.93-1-.6-.65a4.08,4.08,0,0,0,.61-1.54l.89-.1,0-1.37-.86,0a4.09,4.09,0,0,0-.67-1.53l.55-.7-1-.92-.65.59a4,4,0,0,0-1.54-.57l-.11-.93-1.36.05,0,.93a4.17,4.17,0,0,0-1.45.67l-.78-.62-.93,1,.68.72a3.87,3.87,0,0,0-.54,1.45l-1,.12,0,1.36,1,0a3.86,3.86,0,0,0,.6,1.4Zm1.41-1.71a2.79,2.79,0,1,1,3.79,1.09A2.78,2.78,0,0,1,734.29,301.18Z"/><path class="cls-1" d="M712.7,308l1.34.28.28-1a4,4,0,0,0,1.54-.23l.61.79,1.14-.75-.46-.83a3.86,3.86,0,0,0,1-1.29l.93.12.28-1.34-.85-.24a3.9,3.9,0,0,0-.26-1.64l.71-.55-.75-1.14-.75.41a4.18,4.18,0,0,0-1.37-1l.12-.88-1.34-.28-.24.84a4,4,0,0,0-1.62.3l-.57-.74-1.14.75.45.82a4,4,0,0,0-.9,1.31l-1-.13-.29,1.34,1,.28a3.83,3.83,0,0,0,.28,1.51l-.83.64.75,1.14.9-.49a3.85,3.85,0,0,0,1.24.89Zm.34-2.19a2.79,2.79,0,1,1,3.81-1A2.78,2.78,0,0,1,713,305.82Z"/><path class="cls-4" d="M719.39,306.71l.14,2H721a5.68,5.68,0,0,0,.92,2l-.86,1.16,1.49,1.28,1-.95a5.65,5.65,0,0,0,2.16.81l.2,1.34,2-.14v-1.27a5.64,5.64,0,0,0,2.16-1l1,.76,1.28-1.47-.86-.88a5.92,5.92,0,0,0,.8-2.27l1.25-.18-.13-1.95-1.26,0a5.58,5.58,0,0,0-1.05-2.11l.8-1.08-1.47-1.28-1,.94a5.8,5.8,0,0,0-2.17-.72l-.2-1.42-2,.14v1.43a5.63,5.63,0,0,0-2,1l-1.2-.89-1.29,1.48,1,1a5.72,5.72,0,0,0-.74,2.06Zm3.16-.4a4,4,0,1,1,2.9,4.87A4,4,0,0,1,722.55,306.31Z"/><g class="cls-26"><path class="cls-4" d="M724.61,305.89a.83.83,0,0,0,.78.88.84.84,0,0,0,.89-.78.85.85,0,0,0-.79-.89A.84.84,0,0,0,724.61,305.89Z"/><path class="cls-4" d="M723.86,308.15l0,.3,2.89.18,0-.31a1.45,1.45,0,0,0-2.89-.17Z"/></g><path class="cls-4" d="M726.71,306.52a.84.84,0,0,0,.79.88.83.83,0,0,0,.1-1.66A.84.84,0,0,0,726.71,306.52Z"/><path class="cls-4" d="M726,308.78l0,.31,2.88.17,0-.3a1.44,1.44,0,0,0-2.88-.18Z"/><path class="cls-1" d="M685.87,273.22a9.62,9.62,0,0,0,.87,2.57l-1.54,1.28.94,1.4,1.76-1A9,9,0,0,0,690,279.3l-.71,1.89,1.52.73,1-1.7a8.8,8.8,0,0,0,2.66.53l.34,2,1.68-.12.06-2a9.25,9.25,0,0,0,2.58-.88l1.27,1.55,1.4-1-.94-1.76a8.92,8.92,0,0,0,1.78-2l1.88.7.75-1.51-1.71-1.06a9,9,0,0,0,.53-2.66l2-.34L706,270l-2-.06a9,9,0,0,0-.87-2.57l1.55-1.28-1-1.4-1.76.95a9.4,9.4,0,0,0-2-1.79l.7-1.88-1.52-.74-1,1.7a9.1,9.1,0,0,0-2.66-.52l-.34-2-1.68.12-.06,2a8.88,8.88,0,0,0-2.57.88l-1.28-1.55-1.4.94,1,1.77a8.93,8.93,0,0,0-1.79,2l-1.88-.7-.74,1.51,1.7,1.06a9,9,0,0,0-.52,2.66l-2,.34.12,1.68Zm3.13-2a5.93,5.93,0,1,1,5.55,6.28A5.91,5.91,0,0,1,689,271.21Z"/><path class="cls-1" d="M693.89,268.34a1.22,1.22,0,0,0,1.14,1.29,1.22,1.22,0,1,0-1.14-1.29Z"/><rect class="cls-1" x="693.74" y="269.44" width="2.57" height="0.37" transform="translate(1372.47 580.81) rotate(-176.53)"/><rect class="cls-6" x="693.74" y="269.44" width="2.57" height="0.37" transform="translate(1372.47 580.81) rotate(-176.53)"/><rect class="cls-1" x="692.12" y="274.53" width="5.21" height="0.37" transform="translate(1371.55 590.98) rotate(-176.53)"/><rect class="cls-6" x="692.12" y="274.53" width="5.21" height="0.37" transform="translate(1371.55 590.98) rotate(-176.53)"/><rect class="cls-1" x="692.05" y="275.57" width="5.21" height="0.37" transform="translate(1371.36 593.05) rotate(-176.53)"/><rect class="cls-6" x="692.05" y="275.57" width="5.21" height="0.37" transform="translate(1371.36 593.05) rotate(-176.53)"/><rect class="cls-1" x="692.28" y="274.9" width="4.82" height="0.67" transform="translate(1371.45 592.01) rotate(-176.53)"/><rect class="cls-1" x="693.96" y="269.81" width="2.1" height="0.37" transform="matrix(-1, -0.06, 0.06, -1, 1372.4, 581.55)"/><path class="cls-1" d="M692.61,274.41l4.25.25a4.58,4.58,0,0,1-1-2.2c-.11-1-.12-2.24-.12-2.24l-1.41-.08s-.15,1.24-.38,2.21A4.71,4.71,0,0,1,692.61,274.41Z"/><path class="cls-1" d="M23.16,61.23V169.41h108.2V61.23Zm8.17,100V69.4h91.85v91.84Z"/><path class="cls-4" d="M760.92,675.39V783.57h108.2V675.39Zm8.17,100V683.56h91.85v91.85Z"/></svg>