<svg id="Слой_1" data-name="Слой 1" xmlns="http://www.w3.org/2000/svg" viewBox="0 0 1252 796"><defs><style>.cls-1{fill:#ececec;}.cls-2{fill:#dcdcdc;}.cls-3{fill:#306;}.cls-4{fill:#ffc800;}.cls-5{fill:#fff;}.cls-6{opacity:0.1;}.cls-7{fill:#4a148c;}.cls-8{fill:#ffaba1;}.cls-9{fill:#a8a8a8;}.cls-10{fill:#1a2e35;}.cls-11{fill:#c36358;}.cls-12{fill:#c8c8c8;}.cls-13{fill:#ff9cbf;}.cls-14{fill:#ed776a;}</style></defs><polygon class="cls-1" points="96.75 620.8 428.28 620.8 435.17 484.76 89.86 484.76 96.75 620.8"/><path class="cls-2" d="M412.56,547H274l-2.59-47.22H415.6Zm-137-1.67H411l2.81-43.88H273.13Z"/><path class="cls-2" d="M410,601.36H279.39l-2.12-42.62h135.4Zm-129-1.67H408.43l2.46-39.28H279Z"/><path class="cls-2" d="M356.61,528.54H333.32l-1.47-11.39h26.23Zm-21.82-1.67h20.35l1-8H333.75Z"/><path class="cls-2" d="M356.61,585.74H333.32l-1.47-11.39h26.23Zm-21.82-1.67h20.35l1-8H333.75Z"/><path class="cls-2" d="M249.54,547H110.94l-2.6-47.22H252.57Zm-137-1.67H248l2.81-43.88H110.1Z"/><path class="cls-2" d="M247,601.36H116.36l-2.12-42.62h135.4Zm-129-1.67H245.41l2.45-39.28H116Z"/><path class="cls-2" d="M193.58,528.54H170.29l-1.47-11.39h26.23Zm-21.82-1.67h20.35l1-8H170.73Z"/><path class="cls-2" d="M193.58,585.74H170.29l-1.47-11.39h26.23Zm-21.82-1.67h20.35l1-8H170.73Z"/><polygon class="cls-1" points="126.48 620.79 124.4 635.62 120.22 665.39 112.03 665.39 112.03 620.79 126.48 620.79"/><polygon class="cls-2" points="126.48 620.79 124.4 635.62 112.03 635.62 112.03 620.79 126.48 620.79"/><polygon class="cls-1" points="398.55 620.79 400.63 635.62 404.82 665.39 413 665.39 413 620.79 398.55 620.79"/><polygon class="cls-2" points="398.55 620.79 400.63 635.62 413 635.62 413 620.79 398.55 620.79"/><path class="cls-3" d="M1109.53,124.4a26.12,26.12,0,0,1,4.52,9.21q1.18,4.69-1.46,10.77c-.51,1.24-1.19,2.71-2,4.42a33.88,33.88,0,0,0-2.09,5.47,17.78,17.78,0,0,0-.72,5.88,9.87,9.87,0,0,0,2,5.55,9.24,9.24,0,0,0,3.26,2.87,9.77,9.77,0,0,0,3.78,1.07,10,10,0,0,0,3.94-.56,13.67,13.67,0,0,0,3.65-1.91,11.92,11.92,0,0,0,3.18-3.42,15.15,15.15,0,0,0,1.7-4,17.75,17.75,0,0,0,.63-4.17,32.11,32.11,0,0,0-.07-3.86l12.12-.39a22,22,0,0,1,.56,7.42,24.2,24.2,0,0,1-1.76,7.08,26.43,26.43,0,0,1-3.79,6.36,29.13,29.13,0,0,1-5.52,5.28,29.92,29.92,0,0,1-7.67,4.1,22,22,0,0,1-8.52,1.3,20.78,20.78,0,0,1-8.62-2.41,23,23,0,0,1-7.81-7,22.21,22.21,0,0,1-3.15-5.73,17.87,17.87,0,0,1-1-5.57,21.42,21.42,0,0,1,.59-5.57,42,42,0,0,1,1.86-5.79c.69-1.65,1.39-3.27,2.12-4.85a27.71,27.71,0,0,0,1.71-4.75,13.93,13.93,0,0,0,.38-4.7,9.41,9.41,0,0,0-1.93-4.64Zm-16-21.38,9.4,12.74-10.25,7.57-9.4-12.74Z"/><path class="cls-3" d="M1153.72,103.77a28.92,28.92,0,0,1,2-11.09q2-4.92,8.32-8.57c1.26-.76,2.82-1.62,4.66-2.59a37.3,37.3,0,0,0,5.43-3.47,20,20,0,0,0,4.47-4.72,10.91,10.91,0,0,0,1.83-6.25,10.34,10.34,0,0,0-1-4.66,10.48,10.48,0,0,0-2.65-3.4,10.81,10.81,0,0,0-3.84-2.08,14.61,14.61,0,0,0-4.48-.7,13,13,0,0,0-5,.95,17.49,17.49,0,0,0-4.1,2.39,20.35,20.35,0,0,0-3.28,3.28,37.09,37.09,0,0,0-2.45,3.47l-11-7.57a24.47,24.47,0,0,1,4.35-6.93,26.55,26.55,0,0,1,6.17-5.11,29.55,29.55,0,0,1,7.51-3.15A32.45,32.45,0,0,1,1169,42.5a32.81,32.81,0,0,1,9.45,1.39,23.88,23.88,0,0,1,8.39,4.41,22.94,22.94,0,0,1,6,7.75,25.38,25.38,0,0,1,2.33,11.29,24.37,24.37,0,0,1-.94,7.12,20,20,0,0,1-2.72,5.61,23.22,23.22,0,0,1-4.16,4.54,47.05,47.05,0,0,1-5.42,3.91c-1.68,1-3.36,2-5,2.9a29.31,29.31,0,0,0-4.6,3.09,15.18,15.18,0,0,0-3.41,3.9,10.29,10.29,0,0,0-1.32,5.36Zm.25,29.38v-17.4h14v17.4Z"/><path class="cls-3" d="M146,180.53a29,29,0,0,1-.32-11.27q.94-5.23,6.36-10.11c1.07-1,2.42-2.17,4-3.5a37.57,37.57,0,0,0,4.59-4.52,19.89,19.89,0,0,0,3.4-5.55,10.93,10.93,0,0,0,.49-6.48,10.33,10.33,0,0,0-1.95-4.36,10.79,10.79,0,0,0-3.3-2.78,11,11,0,0,0-4.19-1.24,15.18,15.18,0,0,0-4.52.25,13.12,13.12,0,0,0-4.74,2,17.09,17.09,0,0,0-3.51,3.2A19.75,19.75,0,0,0,139.8,140a37,37,0,0,0-1.69,3.91l-12.29-5.13a24.36,24.36,0,0,1,2.81-7.69,26.56,26.56,0,0,1,5-6.27,28.88,28.88,0,0,1,6.68-4.64,32.36,32.36,0,0,1,7.92-2.78,33.07,33.07,0,0,1,9.54-.6,23.94,23.94,0,0,1,9.11,2.58,22.77,22.77,0,0,1,7.53,6.33A25.12,25.12,0,0,1,179,136.28a24.35,24.35,0,0,1,.56,7.17,20,20,0,0,1-1.49,6.05,23.85,23.85,0,0,1-3.13,5.3,46.75,46.75,0,0,1-4.49,4.95c-1.44,1.33-2.88,2.63-4.34,3.88a30.7,30.7,0,0,0-3.86,4,15.13,15.13,0,0,0-2.52,4.53,10.26,10.26,0,0,0-.18,5.51Zm6.34,28.68-3.61-17,13.69-2.9,3.61,17Z"/><polygon class="cls-4" points="810.47 136.74 979.16 136.74 979.16 48.21 810.47 48.21 810.47 48.21 810.47 136.74 810.47 136.74"/><polygon class="cls-4" points="1005.27 136.74 979.16 136.74 979.16 109.55 1005.27 136.74"/><rect class="cls-3" x="826.62" y="63.52" width="136.39" height="1.68"/><rect class="cls-3" x="826.62" y="72.6" width="84.58" height="1.68"/><rect class="cls-3" x="826.62" y="90.77" width="115.87" height="1.68"/><rect class="cls-3" x="826.62" y="99.86" width="136.39" height="1.68"/><rect class="cls-3" x="826.62" y="108.94" width="136.39" height="1.68"/><rect class="cls-3" x="826.62" y="118.02" width="67.25" height="1.68"/><rect class="cls-3" x="299.55" y="336.65" width="168.69" height="78.07"/><polygon class="cls-3" points="273.44 414.73 299.55 414.73 299.55 387.54 273.44 414.73"/><rect class="cls-5" x="316.02" y="377.42" width="122.51" height="1.68"/><rect class="cls-5" x="316.02" y="386.5" width="103.32" height="1.68"/><rect class="cls-5" x="316.02" y="359.25" width="108.91" height="1.68"/><rect class="cls-5" x="316.02" y="350.17" width="133.29" height="1.68"/><rect class="cls-5" x="316.02" y="395.58" width="111.01" height="1.68"/><rect class="cls-3" x="878.89" y="157.1" width="168.69" height="51.44"/><polygon class="cls-3" points="852.78 208.54 878.89 208.54 878.89 181.35 852.78 208.54"/><rect class="cls-5" x="895.36" y="171.23" width="122.51" height="1.68"/><rect class="cls-5" x="895.36" y="180.31" width="103.32" height="1.68"/><rect class="cls-5" x="895.36" y="189.4" width="111.01" height="1.68"/><path class="cls-4" d="M204.09,635.93V320.22a29.35,29.35,0,0,1,29.43-29.43h175c15.52,0,29.43,13.38,29.43,29.43,0,16.59-13.91,30-29.43,30h-145v97.92H388.17c16.05,0,29.43,13.91,29.43,29.43,0,16.59-13.38,30-29.43,30H263.49V635.93c0,16.06-13.38,29.43-30,29.43A29.34,29.34,0,0,1,204.09,635.93Z"/><path class="cls-6" d="M204.09,635.93V320.22a29.35,29.35,0,0,1,29.43-29.43h175c15.52,0,29.43,13.38,29.43,29.43,0,16.59-13.91,30-29.43,30h-145v97.92H388.17c16.05,0,29.43,13.91,29.43,29.43,0,16.59-13.38,30-29.43,30H263.49V635.93c0,16.06-13.38,29.43-30,29.43A29.34,29.34,0,0,1,204.09,635.93Z"/><path class="cls-4" d="M181.75,635.93V320.22a29.34,29.34,0,0,1,29.43-29.43h175c15.52,0,29.43,13.38,29.43,29.43,0,16.59-13.91,30-29.43,30h-145v97.92H365.83c16.05,0,29.43,13.91,29.43,29.43,0,16.59-13.38,30-29.43,30H241.15V635.93c0,16.06-13.38,29.43-30,29.43A29.34,29.34,0,0,1,181.75,635.93Z"/><path class="cls-4" d="M631.38,577.07h-130l-26.23,69.56a30,30,0,0,1-27.82,18.73,31.16,31.16,0,0,1-10.17-1.6,30.36,30.36,0,0,1-17.66-38.53L537.73,310.05c4.82-11.77,16.59-19.26,28.36-18.73,12.31-.53,23.55,7,28.36,18.73L712.71,625.23a30.36,30.36,0,0,1-17.66,38.53,30,30,0,0,1-37.45-17.13Zm-21.94-58.86-43.35-115L522.75,518.21Z"/><path class="cls-6" d="M631.38,577.07h-130l-26.23,69.56a30,30,0,0,1-27.82,18.73,31.16,31.16,0,0,1-10.17-1.6,30.36,30.36,0,0,1-17.66-38.53L537.73,310.05c4.82-11.77,16.59-19.26,28.36-18.73,12.31-.53,23.55,7,28.36,18.73L712.71,625.23a30.36,30.36,0,0,1-17.66,38.53,30,30,0,0,1-37.45-17.13Zm-21.94-58.86-43.35-115L522.75,518.21Z"/><path class="cls-4" d="M609,577.07H479l-26.22,69.56A30,30,0,0,1,425,665.36a31.16,31.16,0,0,1-10.17-1.6,30.36,30.36,0,0,1-17.66-38.53L515.39,310.05c4.81-11.77,16.59-19.26,28.36-18.73,12.31-.53,23.54,7,28.36,18.73L690.37,625.23a30.36,30.36,0,0,1-17.66,38.53,30,30,0,0,1-37.46-17.13Zm-21.94-58.86-43.34-115L500.4,518.21Z"/><path class="cls-4" d="M1128.43,718.34c-29.43,22.47-59.93,33.71-88.29,33.71h-1.61c-37.46,0-69-15-97.92-32.11a67,67,0,0,0-32.65-8c-17.65,0-35.85,7.49-38,9.09-10.7,5.89-23,4.82-31-1.6-.54-.54-1.61-.54-3.21-1.07-.54-.54-.54-.54-1.08-.54-2.67-3.74-5.88-6.95-7.49-12.3-8-16.06-.53-33.72,14.45-41.21l1.61-1.07a234.29,234.29,0,0,1-59.4-40.66,209.44,209.44,0,0,1-53.51-139.67,205.32,205.32,0,0,1,53.51-138.06c34.25-36.92,81.34-59.39,133.78-59.39a176.4,176.4,0,0,1,132.7,59.39c34.25,35.86,54.58,84.55,54.58,138.06,0,54.05-20.33,103.28-54.58,139.67a206.61,206.61,0,0,1-59.39,42.27l-12.31,4.81c22.47,12.31,42.81,19.27,59.93,19.27,15.52,0,30.5-3.75,52.44-20.34,13.38-10.7,32.64-8,43.35,5.35S1142.88,706.57,1128.43,718.34ZM830.37,579.21a116.44,116.44,0,0,0,87.23,38.53c34.24,0,64.74-14.45,88.29-38.53,23-24.61,36.92-58.33,36.92-96.32s-13.91-71.7-36.92-95.25c-23.55-24.61-54-39.06-88.29-39.06a115.05,115.05,0,0,0-87.23,39.06c-23,23.55-36.92,57.26-36.92,95.25S807.36,554.6,830.37,579.21Z"/><path class="cls-6" d="M1128.43,718.34c-29.43,22.47-59.93,33.71-88.29,33.71h-1.61c-37.46,0-69-15-97.92-32.11a67,67,0,0,0-32.65-8c-17.65,0-35.85,7.49-38,9.09-10.7,5.89-23,4.82-31-1.6-.54-.54-1.61-.54-3.21-1.07-.54-.54-.54-.54-1.08-.54-2.67-3.74-5.88-6.95-7.49-12.3-8-16.06-.53-33.72,14.45-41.21l1.61-1.07a234.29,234.29,0,0,1-59.4-40.66,209.44,209.44,0,0,1-53.51-139.67,205.32,205.32,0,0,1,53.51-138.06c34.25-36.92,81.34-59.39,133.78-59.39a176.4,176.4,0,0,1,132.7,59.39c34.25,35.86,54.58,84.55,54.58,138.06,0,54.05-20.33,103.28-54.58,139.67a206.61,206.61,0,0,1-59.39,42.27l-12.31,4.81c22.47,12.31,42.81,19.27,59.93,19.27,15.52,0,30.5-3.75,52.44-20.34,13.38-10.7,32.64-8,43.35,5.35S1142.88,706.57,1128.43,718.34ZM830.37,579.21a116.44,116.44,0,0,0,87.23,38.53c34.24,0,64.74-14.45,88.29-38.53,23-24.61,36.92-58.33,36.92-96.32s-13.91-71.7-36.92-95.25c-23.55-24.61-54-39.06-88.29-39.06a115.05,115.05,0,0,0-87.23,39.06c-23,23.55-36.92,57.26-36.92,95.25S807.36,554.6,830.37,579.21Z"/><path class="cls-4" d="M1106.09,718.34c-29.44,22.47-59.94,33.71-88.3,33.71h-1.6c-37.46,0-69-15-97.93-32.11a67,67,0,0,0-32.64-8c-17.66,0-35.85,7.49-38,9.09-10.7,5.89-23,4.82-31-1.6-.53-.54-1.6-.54-3.21-1.07-.53-.54-.53-.54-1.07-.54-2.67-3.74-5.89-6.95-7.49-12.3-8-16.06-.54-33.72,14.45-41.21l1.6-1.07a234.24,234.24,0,0,1-59.39-40.66A209.39,209.39,0,0,1,708,482.89a205.27,205.27,0,0,1,53.51-138.06c34.24-36.92,81.33-59.39,133.77-59.39A176.42,176.42,0,0,1,1028,344.83c34.25,35.86,54.58,84.55,54.58,138.06,0,54.05-20.33,103.28-54.58,139.67a206.52,206.52,0,0,1-59.4,42.27l-12.31,4.81c22.48,12.31,42.81,19.27,59.94,19.27,15.52,0,30.5-3.75,52.44-20.34,13.37-10.7,32.64-8,43.34,5.35S1120.53,706.57,1106.09,718.34ZM808,579.21a116.44,116.44,0,0,0,87.22,38.53c34.25,0,64.75-14.45,88.29-38.53,23-24.61,36.93-58.33,36.93-96.32s-13.91-71.7-36.93-95.25c-23.54-24.61-54-39.06-88.29-39.06A115,115,0,0,0,808,387.64c-23,23.55-36.92,57.26-36.92,95.25S785,554.6,808,579.21Z"/><path class="cls-4" d="M196,502.48c-33,44.67-67.38,96.52-75.75,152.54-.1.85,1.26,1.12,1.45.28a333.59,333.59,0,0,1,14.59-44.85c21.69-6,43-10.87,54.36-32.4,11.62-22.13,10.14-51,7.93-75.08C198.46,501.68,196.71,501.62,196,502.48Z"/><path class="cls-3" d="M136.65,610c14.82-33.25,33.84-66.64,58-94,.16-.18.42.08.26.27-15.83,19.47-27.85,40.68-39.6,62.26,10.92-11.09,22.89-21,33.23-32.78.2-.23.53.1.34.33C178.62,558.45,167.4,571.85,154,581q-5.39,9.93-10.88,19.9c.9-.5,1.83-1,2.75-1.4.16-.08.3.16.14.24-1,.52-2,1.06-3.08,1.51-1.74,3.14-3.46,6.29-5.25,9.42C137.3,611.34,136.33,610.73,136.65,610Z"/><path class="cls-3" d="M147.67,598.42A193.33,193.33,0,0,0,173,581.52c.22-.17.53.13.31.31A133.74,133.74,0,0,1,148,599.05.36.36,0,0,1,147.67,598.42Z"/><path class="cls-4" d="M116.46,646.69c.07.68,1.22.67,1.21-.05.17-18.45,0-37,.29-55.52,4.73-9.54,14.87-14.82,21.93-22.46a98.76,98.76,0,0,0,13.16-18.32c8.72-15.61,13.44-33.16,15.26-50.9,1.95-19.73-5.54-84.85-13.86-82.59-4.31,1.18-18.27,33.43-22,44.09A308,308,0,0,0,119.34,515C112.6,558.42,113.16,603,116.46,646.69Z"/><path class="cls-3" d="M116.33,567.1a.27.27,0,0,0,.08-.07c1-23.34,6.28-46.92,11.2-69.56,5.3-24.39,11.5-47.35,24-69.11a.36.36,0,0,1,.62.37c-8.54,16.83-14.64,34.69-19.32,53,.84-1.31,1.86-2.56,2.74-3.8.34-.49,1.15,0,.81.47a34,34,0,0,1-3.92,5.54.44.44,0,0,1-.17.08c-4.32,17.43-7.42,35.26-10.07,53.05.2-.22.39-.47.59-.69s.36.05.27.21c-.33.59-.7,1.18-1.06,1.77-1.34,9-2.57,18-3.82,27,16.08-13.74,29.8-29.94,37.55-49.89a.08.08,0,1,1,.15,0c-7.59,20.7-19.55,39.1-38,51.66-.33,2.4-.67,4.81-1,7.21-.07.49-.86.36-.86-.12,0-2.13.11-4.26.19-6.39A.49.49,0,0,1,116.33,567.1Z"/><path class="cls-3" d="M123.9,533.28c12.29-18.33,23.76-36.14,32.75-56.41.1-.22.49-.06.41.17-7.58,20.14-18.19,40.54-32.54,56.72C124.23,534.09,123.66,533.65,123.9,533.28Z"/><path class="cls-3" d="M140.23,472.34c5.09-9,10.46-17.76,15.25-26.95.13-.25.48,0,.38.23-4,9.38-8.83,18.91-14.84,27.18A.46.46,0,0,1,140.23,472.34Z"/><path class="cls-3" d="M138.24,476.26a.08.08,0,0,1,0,.16A.08.08,0,0,1,138.24,476.26Z"/><path class="cls-4" d="M104,593.34a188.6,188.6,0,0,1-4.31,36.34c.19,1.32.37,2.63.57,4a173.66,173.66,0,0,0,6.5-40.51,1.25,1.25,0,0,0,.06-1.26v0a268.35,268.35,0,0,0-4.07-54.9C97,503.05,84.53,470.52,60.88,445.1a1.69,1.69,0,0,0-2.61.54c-9.54,24.26-6.22,53.21,1.91,77.42a142,142,0,0,0,18.75,36.77C87.05,571.23,97.39,580.88,104,593.34Z"/><path class="cls-3" d="M63.68,456.46c22.41,36.37,38,79.49,39.91,122.45,0,.76-1.25,1-1.36.19-.53-3.86-1.12-7.69-1.74-11.5h0c-9.27-8.88-18.78-18.25-25.42-29.35-.12-.19.16-.42.32-.25,8.06,9.22,15.59,18.67,24.69,26.89q-2.4-14.25-5.75-28.06c-.6-.69-1.19-1.39-1.78-2.08-.38-.46.26-1.12.67-.67l.54.6A323.6,323.6,0,0,0,82,497.47c-5.7-6.81-12.08-12.69-16.24-20.89a.17.17,0,0,1,.3-.17c3.34,4.69,6.57,9.4,10.36,13.75,1.51,1.74,3.17,3.36,4.74,5A286.5,286.5,0,0,0,62.81,457,.5.5,0,0,1,63.68,456.46Z"/><path class="cls-3" d="M68.21,501.32c7.24,9.75,15.49,19.05,22.23,29.13.19.29-.23.58-.47.36-8.65-8.12-16-19.2-22.25-29.2C67.52,501.29,68,501,68.21,501.32Z"/><path class="cls-3" d="M91.45,532.71l.31.3a.24.24,0,0,1-.33.34l-.31-.31C90.91,532.82,91.24,532.49,91.45,532.71Z"/><path class="cls-4" d="M28.57,526.38c1.8,18.71,11.64,41.06,23.64,55.48a59,59,0,0,0,19.18,15c8.3,4.11,17,8.84,25.59,12.22A167.62,167.62,0,0,1,106,641.22c.28-.93.56-1.91.83-2.85C101.36,591,70.7,550.51,31.49,524.51A1.9,1.9,0,0,0,28.57,526.38Z"/><path class="cls-3" d="M42.11,540.37c-.27-.24.1-.74.4-.51,20.78,15.39,39.51,37.84,50,61.57.28.65-.61,1.22-1,.57q-2.73-4.79-5.57-9.35h0c-9-1.69-17.43-8-24.07-14-.18-.16.08-.42.26-.26a55.15,55.15,0,0,0,11.33,8c3.64,1.85,7.57,3,11.37,4.51-3.32-5.27-6.77-10.32-10.38-15.22-9.64-3.28-18.81-9.19-26.9-15.12-.26-.18,0-.6.25-.43a268.46,268.46,0,0,0,25,13.37,223.87,223.87,0,0,0-17.65-20.58c-3-1.61-6.13-3.22-9.08-4.94a.25.25,0,0,1,.2-.46,32.3,32.3,0,0,1,7,3.42C49.66,547.35,46,543.82,42.11,540.37Z"/><path class="cls-3" d="M43,556.73a11.51,11.51,0,0,1,1.51,1.08c.14.12,0,.31-.19.24a10.67,10.67,0,0,1-1.58-.89A.25.25,0,0,1,43,556.73Z"/><polygon class="cls-7" points="168.07 743.82 60.62 743.82 69.29 645.97 71.2 624.38 157.49 624.38 159.4 645.97 168.07 743.82"/><polygon class="cls-3" points="159.4 645.97 69.29 645.97 71.2 624.38 157.49 624.38 159.4 645.97"/><rect class="cls-7" x="66.06" y="609.3" width="96.58" height="21.36"/><path class="cls-8" d="M1229.74,753.42c-3.78,1.2-111.6-.59-115.67-3.26-1.55-1-2.21-16.72-2.46-35.74,0-4.1-.08-8.35-.09-12.65-.09-28,.25-53.69.25-53.69l72.15,1.88-2.26,52.77-.53,12.65s41,19.15,45.12,22.55S1233.53,752.22,1229.74,753.42Z"/><path class="cls-4" d="M1229.74,753.42c-3.78,1.2-111.6-.59-115.67-3.26-1.88-1.23-2.46-24.18-2.55-48.39l70.14,1-.53,12.65s41,19.15,45.12,22.55S1233.53,752.22,1229.74,753.42Z"/><path class="cls-9" d="M1229.74,753.42c-3.78,1.2-111.6-.59-115.67-3.26-1.55-1-2.21-16.72-2.46-35.74l69.52,1s41,19.15,45.12,22.55S1233.53,752.22,1229.74,753.42Z"/><path class="cls-6" d="M1167,753.13c-26.2-.66-51-1.71-53-3-1.54-1-2.2-16.73-2.45-35.74l14.23.19C1136.79,725,1156.57,743.4,1167,753.13Z"/><path class="cls-3" d="M1228.27,749.08c-18.07-.74-91-2-108.92-1.4-.15,0-.15.1,0,.11,17.89,1.13,90.84,1.84,108.92,1.59C1228.65,749.37,1228.65,749.1,1228.27,749.08Z"/><path class="cls-3" d="M1219.38,733.94a14.51,14.51,0,0,0-10.88,4.23c-2.29,2.42-4.27,5.83-4.2,9.58,0,.11.2.12.22,0,1.15-7.06,7.68-13.16,14.86-13.6A.11.11,0,0,0,1219.38,733.94Z"/><path class="cls-3" d="M1188.11,717.29c-7.23-.22-15.66,2.19-20.25,8-.18.22.14.47.36.36a100,100,0,0,1,20-7.51A.45.45,0,0,0,1188.11,717.29Z"/><path class="cls-3" d="M1193.66,719.56c-7.23-.22-15.66,2.19-20.26,8-.17.22.15.47.37.36a100,100,0,0,1,20-7.51A.45.45,0,0,0,1193.66,719.56Z"/><path class="cls-3" d="M1199.21,721.83c-7.23-.22-15.66,2.19-20.26,8-.18.22.15.47.37.36a100,100,0,0,1,20-7.51A.45.45,0,0,0,1199.21,721.83Z"/><path class="cls-3" d="M1204.76,724.1c-7.24-.22-15.67,2.19-20.26,8-.18.22.15.47.36.36a100.28,100.28,0,0,1,20-7.51A.45.45,0,0,0,1204.76,724.1Z"/><path class="cls-3" d="M1124.24,730.59c-8.12-.11-8.31,12.5-.17,12.61S1132.37,730.7,1124.24,730.59Z"/><path class="cls-3" d="M1196.25,698.12c-3.61-3.1-8.27-.21-10.58,2.91a37.88,37.88,0,0,0-6.88,18.38c0,.16.1.22.22.22a.88.88,0,0,0,1.29.6c5.21-3.48,11.21-6.55,15.2-11.52C1197.83,705.81,1199.67,701.05,1196.25,698.12Zm-9.13,15.22c-2.52,1.78-5.11,3.41-7.57,5.28a111,111,0,0,1,4.26-10.65,38.94,38.94,0,0,1,2.72-4.84c1.61-2.36,8.81-8.29,9.4-.41C1196.26,707.07,1190.12,711.23,1187.12,713.34Z"/><path class="cls-3" d="M1160.77,721.8c6.28,1.07,12.81-.62,19-1.47a.89.89,0,0,0,.57-1.31.2.2,0,0,0,0-.31,38,38,0,0,0-17.35-9.19c-3.8-.79-9.2.14-9.85,4.85C1152.56,718.83,1157.1,721.17,1160.77,721.8Zm-4.3-4.19c-4.79-6.29,4.53-6.63,7.3-5.94a41.7,41.7,0,0,1,5.25,1.81,111.52,111.52,0,0,1,10.25,5.15c-3.07.23-6.1.73-9.16,1.07C1166.46,720.12,1159.11,721.07,1156.47,717.61Z"/><path class="cls-7" d="M1184.51,697.21h-79s14.87-168.2,14.25-171.42c-.79-4.12-5.45-22.8-11.66-47.19-1.95-7.64-4-15.83-6.23-24.32-5.89-22.95-12.38-48-18-69.86-8.49-32.7-15.12-58.11-15.12-58.11h66.94s7.81,24.73,17.64,56.92c16,52.3,37.43,124.27,39.55,141.77C1196.28,553.26,1184.51,697.21,1184.51,697.21Z"/><path class="cls-3" d="M1181,683.73c-12.06-.25-8.6-.35-20.66-.46-5.91-.06-44.71-.4-50.22.51a.13.13,0,0,0,0,.25c5.51.91,44.31.57,50.22.52,12.06-.12,8.6-.22,20.66-.47A.18.18,0,0,0,1181,683.73Z"/><path class="cls-3" d="M1134.63,514.52c-2.59-11.42-6.46-22.61-9.83-33.82q-10.26-34.15-20.66-68.29-5.19-17.06-10.42-34.11c-1.77-5.74-3.53-11.48-5.33-17.21s-3.76-11.16-5.34-16.82c-.65-2.3-1-1-.17,1.88,1.66,5.9,3.31,11.79,5,17.67q5.11,17.46,10.28,34.9,10.26,34.71,20.72,69.37,5.22,17.39,10.46,34.77a143.69,143.69,0,0,1,4.27,16.81,77.38,77.38,0,0,1,.69,18c-.75,12.09-2.15,24.16-3.27,36.21l-3.36,36.25c-2.22,24-3.41,31.79-5.58,55.84-.27,3-.54,6.1-.77,9.15-.08,1,1.46.94,1.57,0,2.6-23.78,3.56-31.33,5.79-55.14s4.45-47.39,6.66-71.09c.56-6,1.19-11.91,1.19-17.89A73.26,73.26,0,0,0,1134.63,514.52Z"/><path class="cls-3" d="M1128.07,326.31c-4.64,36-13.5,103.38-20,152.29-15.1-59.27-39.38-152.29-39.38-152.29Z"/><path class="cls-8" d="M1149.85,753.74c-3.75,1.31-111.58,2.7-115.73.15-1.57-1-2.69-16.65-3.5-35.65-.18-4.1-.34-8.34-.47-12.64-.91-28-1.33-53.67-1.33-53.67l72.17-.25-.7,52.81-.16,12.66s41.52,17.93,45.77,21.21S1153.6,752.43,1149.85,753.74Z"/><path class="cls-4" d="M1149.85,753.74c-3.75,1.31-111.58,2.7-115.73.15-1.91-1.18-3.16-24.1-4-48.29l70.14-1.11-.16,12.66s41.52,17.93,45.77,21.21S1153.6,752.43,1149.85,753.74Z"/><path class="cls-9" d="M1149.85,753.74c-3.75,1.31-111.58,2.7-115.73.15-1.57-1-2.69-16.65-3.5-35.65l69.51-1.09s41.52,17.93,45.77,21.21S1153.6,752.43,1149.85,753.74Z"/><path class="cls-3" d="M1148.25,749.45c-18.08-.21-91,.64-108.92,1.8-.14,0-.14.11,0,.12,17.92.6,90.86-.85,108.92-1.63C1148.63,749.73,1148.63,749.45,1148.25,749.45Z"/><path class="cls-3" d="M1138.92,734.57a14.53,14.53,0,0,0-10.76,4.55c-2.21,2.48-4.09,6-3.92,9.71,0,.1.21.1.22,0,.94-7.08,7.3-13.38,14.46-14C1139.06,734.78,1139.06,734.57,1138.92,734.57Z"/><path class="cls-3" d="M1107.17,718.85c-7.24,0-15.59,2.66-20,8.63-.17.23.16.47.37.36a99.84,99.84,0,0,1,19.77-8.1A.45.45,0,0,0,1107.17,718.85Z"/><path class="cls-3" d="M1112.78,721c-7.24,0-15.59,2.65-20,8.63-.17.23.16.47.37.35a100.49,100.49,0,0,1,19.78-8.09A.46.46,0,0,0,1112.78,721Z"/><path class="cls-3" d="M1118.39,723.06c-7.23,0-15.59,2.66-20,8.63-.17.23.16.47.38.36a99.59,99.59,0,0,1,19.77-8.1A.46.46,0,0,0,1118.39,723.06Z"/><path class="cls-3" d="M1124,725.17c-7.24,0-15.59,2.65-20,8.63-.18.23.16.47.37.36a99.84,99.84,0,0,1,19.77-8.1A.46.46,0,0,0,1124,725.17Z"/><path class="cls-3" d="M1043.71,734c-8.11.12-7.93,12.74.2,12.61S1051.84,733.9,1043.71,734Z"/><path class="cls-3" d="M1114.74,699.45c-3.7-3-8.28,0-10.5,3.22a37.91,37.91,0,0,0-6.33,18.58.19.19,0,0,0,.23.21.88.88,0,0,0,1.3.56c5.11-3.63,11-6.87,14.86-12C1116.54,707.09,1118.24,702.28,1114.74,699.45Zm-8.68,15.49c-2.47,1.84-5,3.56-7.41,5.49,1.25-3.62,2.33-7.27,3.94-10.77a41,41,0,0,1,2.58-4.91c1.54-2.41,8.56-8.55,9.38-.69C1115,708.4,1109,712.74,1106.06,714.94Z"/><path class="cls-3" d="M1080,724.16c6.31.89,12.78-1,19-2a.88.88,0,0,0,.53-1.32.19.19,0,0,0,0-.31,38,38,0,0,0-17.61-8.67c-3.82-.68-9.2.41-9.7,5.14C1071.68,721.44,1076.28,723.65,1080,724.16Zm-4.42-4.06c-5-6.14,4.33-6.76,7.12-6.14a39.18,39.18,0,0,1,5.3,1.65,112.81,112.81,0,0,1,10.4,4.84c-3.07.32-6.08.91-9.13,1.35C1085.61,722.32,1078.29,723.49,1075.55,720.1Z"/><path class="cls-7" d="M1133.51,326.31s-1.54,32-8.88,57.4c-.58,2.1-1.22,4.16-1.91,6.14,0,0-7.63,2.77-19.29,9.92,0,0-.78,25.77-1.55,54.51-.85,32.13,4.12,68,4.31,75.57.67,28.44-2.79,167-2.79,167l-79,.32s13.51-156.85,13.41-167.27c-.15-16.75,5.75-133.25,4.75-135.86-12.71-33.24,4.1-67.77,4.1-67.77Z"/><path class="cls-3" d="M1100.69,682.84c-12.06-.2-8.6-.31-20.66-.38-5.91,0-44.71-.2-50.22.74a.12.12,0,0,0,0,.24c5.52.89,44.32.39,50.22.31,12.07-.17,8.6-.25,20.66-.56A.18.18,0,0,0,1100.69,682.84Z"/><path class="cls-3" d="M1126,388a146,146,0,0,0-22.57,11.82.26.26,0,0,0,.23.47c7.62-3.71,15.4-7.27,22.81-11.39A.51.51,0,0,0,1126,388Z"/><path class="cls-3" d="M1114.12,377.2c.24-3.61.51-7.22.83-10.83.73-8.23,1.58-16.48,3-24.62.12-.64,1-.4,1,.21-.56,6.4-1.29,12.78-1.88,19.17s-1.37,12.74-1.48,19.1c0,1.91.1,5.17,2.45,5.69,3.16.72,4.65-3.44,5.41-5.71a105.78,105.78,0,0,0,4-17.41c1-6.7,1.59-13.5,2.23-20.25,0-.24.43-.2.43,0,0,13.4-.15,27.42-5.16,40.07-1,2.47-2.68,5-5.54,5.3h-.14a.59.59,0,0,1,0,.23c-.06.38-.16.75-.23,1.12s-.11.63-.18.94c-.13.65-.23,1.31-.4,1.95a.49.49,0,0,1-1-.11.43.43,0,0,1-.28-.39,10.7,10.7,0,0,1,.88-3.8,4.72,4.72,0,0,1-3.47-2.91C1113.56,382.57,1113.94,379.76,1114.12,377.2Z"/><path class="cls-3" d="M1050.58,394.08a143.41,143.41,0,0,0-3.45-16.47c-2.91-12.27-1-29,2.2-40.94.09-.32-.43-.43-.53-.12-3.15,10.21-5.44,25-4.22,35.69.58,5.09,4.68,20.58,4.56,26.11-.26,10.91.61,103.89-.13,141.86-.48,24.91-5.64,108.45-6.43,133.35,0,.23.37.22.39,0,2.89-44.4,6.65-89.77,7.25-133.27C1050.8,498,1051.3,400.13,1050.58,394.08Z"/><path class="cls-3" d="M1089.57,339.4c-.35,3.81-.49,7.65-1.06,11.45-.49,3.37-1.59,6.72-4.27,9.26a22.65,22.65,0,0,1-8.9,5.05c-4.34,1.3-17.53,1.33-22,.69-1.14-.16-1,.7,1.1,1.17,2.39.53,12.12,1.06,14.57,1.06a31.87,31.87,0,0,0,7.1-.49,19.89,19.89,0,0,0,10.31-5.37,16.61,16.61,0,0,0,4.23-10.38,62.53,62.53,0,0,0-.47-12.46A.31.31,0,0,0,1089.57,339.4Z"/><path class="cls-3" d="M1092.29,236.05c0,.2.29.2.31,0,.86-9.74,10.85-15.67,11.12-25.62A23.37,23.37,0,0,0,1100.1,198a67.55,67.55,0,0,0-5.16-6.86c-.24-.37-.49-.75-.72-1.12a47.31,47.31,0,0,1-4.08-7.41,27.76,27.76,0,0,1-1.79-9.41c-.26-6.15-.11-12.38-4.09-17.48-3.33-4.25-6.87-9.48-14.27-12-11.4-3.9-24.71,1.24-33,10.79a21.7,21.7,0,0,0-3.56,5.63,12.65,12.65,0,0,0-9.48,8.88c-2.22,6.9,2,16.44,1.34,19.92-.56,3.06-2.6,5.58-4,8.29a53,53,0,0,0-3.9,7.07,18.92,18.92,0,0,0-.91,10.89,20.53,20.53,0,0,0,3.86,9.18,16.91,16.91,0,0,0,7.77,5.22c.72.26,1.45.5,2.17.74l.06,0c2.49,1.57,5.22,2.78,7.57,4.57a13.25,13.25,0,0,1,5,8c.67,2.94.77,6,1.25,8.94a21.68,21.68,0,0,0,2.76,7.84A25.26,25.26,0,0,0,1059.4,270a38.23,38.23,0,0,0,19,1.8c5.7-.77,11.15-2.9,14.61-7.7a18.13,18.13,0,0,0,3-14.52c-.72-3-2.38-5.68-3.65-8.49a14.59,14.59,0,0,1-1.31-8.86c1.9-10,12-17.18,10.14-28.1a24.92,24.92,0,0,0-3.06-7.86,24.64,24.64,0,0,1,4.92,12.57c.35,5.1-1.76,9.45-4.5,13.61S1092.52,230.86,1092.29,236.05Zm-63.74-6.81c-4.2-1.61-7.59-4.14-9.58-8.26a22.45,22.45,0,0,1-1.91-14.14,25.42,25.42,0,0,1,2.77-6.4l.09-.17a24.08,24.08,0,0,0-1.08,4.45,27.07,27.07,0,0,0,1.94,14.36,24.94,24.94,0,0,0,8,10.23Z"/><path class="cls-7" d="M1156.31,158.8,1146.56,209c-.45,1.48.35,2.62,1.77,2.54l25.56-1.41a4.12,4.12,0,0,0,3.4-2.82L1187,157.1c.45-1.48-.35-2.62-1.77-2.54L1159.71,156A4.12,4.12,0,0,0,1156.31,158.8Z"/><path class="cls-7" d="M1159.34,158.6l-9.75,50.22c-.45,1.48.35,2.62,1.78,2.54l25.55-1.41a4.15,4.15,0,0,0,3.4-2.83l9.75-50.21c.45-1.49-.35-2.63-1.77-2.55l-25.56,1.41A4.15,4.15,0,0,0,1159.34,158.6Z"/><path class="cls-3" d="M1166.47,160.48a2.18,2.18,0,1,1-2.24-2.1A2.17,2.17,0,0,1,1166.47,160.48Z"/><path class="cls-8" d="M1078.06,238.33c15.9,30.14,50.24,68.66,63.69,68.21,6.39-.21,17.88.79,25.93-7,17.57-16.88,31.46-48.25,33.77-65.95.82-6.3-30.18-18.42-34.43-13.13-10,12.39-21.09,36.32-23,36.27-6.9-.21-34.84-21.36-54.35-36.27C1066,202.42,1071.73,226.32,1078.06,238.33Z"/><path class="cls-8" d="M1200.71,201.33c-3.8-12.53-6.7-15.16-4.29-27.43,1.57-8.06-2.89-12.53-8.24-5.87-8.75,10.88-7.25,28.07-5,33.88Z"/><path class="cls-8" d="M1200.22,239.14s4.84-17.92,2.11-31.68c-1.89-9.51-8.3-29.74-35.61-39.31-6.48-2.27-17.32-.91-8.09,6.64,6.56,5.37,12.34,6.78,15.59,10.6,0,0-13.58,3.36-15.6,9.94a126.16,126.16,0,0,0-4.06,17.57,26.84,26.84,0,0,0,3.22,1s-1.7,6.22,3.25,14.7Z"/><path class="cls-8" d="M1199.08,198.68c-4-3.11-12.66-9.54-21.56-12.35-9.88-3.12-29.76-6.46-32,.85-1.64,5.37,5.84,7.31,5.84,7.31s-8.51.35-8.92,5.52c-.38,4.71,5.5,5.87,5.5,5.87s-5.13,1.1-4.62,5.71c.62,5.54,11.25,2.33,16.73,7.41C1161.29,220.14,1199.08,198.68,1199.08,198.68Z"/><path class="cls-3" d="M1176,197.32c-4.26-2.3-15.28-5-24.43-3-.21,0-.29.22-.09.22a101.88,101.88,0,0,1,24.49,2.84S1176,197.34,1176,197.32Z"/><path class="cls-3" d="M1172.53,207.2c-3.88-1.6-15.36-3.92-24.56-1.51-.21.06-.27.24-.08.23a108.74,108.74,0,0,1,24.62,1.38S1172.58,207.22,1172.53,207.2Z"/><path class="cls-4" d="M1202.34,246.48s-22.67,50.3-36.87,56.65-22.93,5.49-28.34,4.92a14.55,14.55,0,0,1-5.82-2.49c-15.07-9.74-42.86-45.38-54.41-65.6-8.67-15.2-8.43-29.32,3.83-25.34,3,1,6.85,3.09,11.46,6.6,23,17.56,49.55,34.08,50.75,33.38s13-21.46,13-21.46Z"/><path class="cls-3" d="M1196.58,255.72c-1.69-.84-17.57-6.2-21-7.3s-17.65-5.68-21.32-6.51a.13.13,0,0,0-.09.25c3.46,1.5,17.74,6.17,21.26,7.36s19.34,6.13,21.15,6.44C1196.69,256,1196.7,255.77,1196.58,255.72Z"/><path class="cls-7" d="M1131.27,248.26c-7.36,7.77-18.18,18.35-29.77,26.83-3.84-4.78-7.6-9.71-11.06-14.53A201.94,201.94,0,0,0,1116,238.33C1121.71,242.17,1126.94,245.57,1131.27,248.26Z"/><path class="cls-6" d="M1174.8,294.74c-3.29,4.07-6.47,7.12-9.33,8.39-14.17,6.36-22.92,5.48-28.34,4.92a14.38,14.38,0,0,1-5.83-2.49c-15.06-9.74-42.86-45.38-54.41-65.6-7.85-13.78-8.39-26.67.71-26C1102,234.15,1148.57,272.89,1174.8,294.74Z"/><path class="cls-4" d="M1118.78,281.07l20.12,50.66s-73.11,1.55-95.62,1.31c0,0-14.14-82.18,8.4-109.78,11.27-13.81,21.12-13,30.68-4.41,2.42,2.18,34.38,26.52,38.07,40.1A34.68,34.68,0,0,1,1118.78,281.07Z"/><path class="cls-3" d="M1102.81,278.56a93.57,93.57,0,0,0-13.61,2.36c-2.21.59-4.39,1.27-6.56,2-1.08.37-2.16.7-3.26,1a14.47,14.47,0,0,1-3.5.69.09.09,0,0,0,0,.17,25.4,25.4,0,0,0,3.38-.09,25.12,25.12,0,0,0,3.22-.64c2.25-.58,4.48-1.26,6.72-1.85,4.53-1.21,9.06-2.42,13.67-3.29C1103.08,278.9,1103,278.53,1102.81,278.56Z"/><path class="cls-3" d="M1114.19,282.53a100.79,100.79,0,0,0-11.39-.45c-1.9,0-3.79.19-5.68.39-.91.09-1.81.2-2.71.33s-2,.4-3,.52c-.11,0-.1.17,0,.16.94-.08,1.9,0,2.84,0l2.84-.1c1.9-.06,3.79-.11,5.69-.19,3.79-.16,7.57-.28,11.37-.31C1114.4,282.84,1114.38,282.54,1114.19,282.53Z"/><path class="cls-4" d="M1050.51,220.31C1017.87,242.56,983,287.8,987,300.82c4.54,14.51,51.5-17.07,50.7-19.23-.68-1.84,7.81-19.14,19.93-43.94C1070,212.44,1058.59,214.8,1050.51,220.31Z"/><path class="cls-7" d="M1045.87,261.9c-3.71,7.77-6.37,13.61-7.52,16.87a254.12,254.12,0,0,1-37-9.85c3.57-4.88,7.68-10,12.13-15A205,205,0,0,0,1045.87,261.9Z"/><path class="cls-8" d="M987,300.82c4.41,10,20.77,14.91,60.77,31.23,5.54,2.26,32-32.53,26.2-35.24-7.29-3.42-36.33-15.11-38.56-15.7C1016.61,276.16,984,294.06,987,300.82Z"/><path class="cls-8" d="M1066,293.28s17.1,6.12,25.09,12.12c10.7,8,16.63,19.37,18.83,24.27,4.59,10.24,8.61,38.15.77,40.71C1103.64,372.7,1101,344,1101,344s7.56,28.85-1.5,30.07-10.26-32.32-10.26-32.32,7.1,29.83-2.43,29.61c-7.21-.17-10-30.49-10-30.49s5.92,25.68-1.5,25.83c-8.2.16-12.53-27.66-12.53-27.66-18.93-2.79-26.8-11.87-31.63-19C1030,318.29,1066,293.28,1066,293.28Z"/><path class="cls-3" d="M1099,333.81c1,3.36,2,6.75,2.76,10.18s1.3,6.9,1.68,10.39a59.72,59.72,0,0,1,.21,13.71c.21-8.16-2.13-20.5-2.84-23.93s-1.24-6.9-2-10.33C1098.85,333.75,1099,333.73,1099,333.81Z"/><path class="cls-3" d="M1086.54,336.14c1.11,4.35,2.36,8.62,3.28,13s1.38,8.6,2,13c0,.34-.15.25-.21-.09-.78-4.39-1.85-8.39-2.68-12.78s-1.49-8.8-2.48-13.14C1086.42,336.09,1086.53,336.08,1086.54,336.14Z"/><path class="cls-3" d="M1075.5,336.22c2,6.55,2.84,13.47,3.48,20.27,0,.34-.21.2-.27-.14-1-6.76-1.79-12.07-3.44-20.06C1075.24,336.17,1075.45,336.09,1075.5,336.22Z"/><path class="cls-4" d="M1074.15,293.13s-38.69,38.24-39.17,38.14-45.84-19.41-48-30.45S1018.74,277,1035.39,281,1074.15,293.13,1074.15,293.13Z"/><path class="cls-3" d="M1059,290.27c-1.55,1.23-13.69,13.9-16.27,16.71s-13.23,14.2-15.64,17.31a.13.13,0,0,0,.19.19c3-2.6,13.73-14.06,16.42-16.87s14.41-15.6,15.5-17.18C1059.3,290.3,1059.1,290.19,1059,290.27Z"/><path class="cls-3" d="M1016.09,281.85c3.6-1.06,13.63-3.22,22.39-.15.09,0,.07.15,0,.13-7.4-1.61-18.69-.62-22.31.15C1016,282,1016,281.88,1016.09,281.85Z"/><path class="cls-10" d="M1071.76,295.49l2.35-2.41,0,.1c-12.14-4.39-24.37-8.6-36.86-11.84,2.52-6.51,5.19-12.95,8.09-19.3s5.91-12.33,9.3-18.27c-3.16,6.06-6,12.25-8.78,18.5s-5.36,12.56-7.76,19l-.26-.49a299.57,299.57,0,0,1,36.31,12.34l.09,0-.07.06-2.43,2.32Z"/><path class="cls-10" d="M1047.7,257.58a63,63,0,0,1,6.25-8,42.14,42.14,0,0,1-6.25,8Z"/><path class="cls-8" d="M1059.7,222.62c.79,1.65,11.53,11.13,19.39,9,2.56-.69-.57-14.83-.57-14.83v-1.09l.1-15.35-19.59-7.3-2.8-.92s.25,4.2.62,9.43c0,.24,0,.48.05.74s0,.58,0,.85c0,.78.1,1.58.16,2.38.05.6.09,1.19.16,1.82s.13,1.25.18,1.89A100.22,100.22,0,0,0,1059.7,222.62Z"/><path class="cls-6" d="M1078.53,215.94c-10.58-.41-17.9-6.47-21.39-10.13,0-.09,0-.16,0-.25-.08-.79-.12-1.59-.17-2.38,0-.26,0-.55,0-.83s0-.5-.06-.75c-.37-5.22-.62-9.44-.62-9.44l2.81.93,19.59,7.31-.11,15.33Z"/><path class="cls-8" d="M1095.46,178.54c2,26.85-13.8,31.11-19.59,31.55-5.26.4-23.21,1.08-28-25.42s7-35.94,19-37.49S1093.4,151.68,1095.46,178.54Z"/><path class="cls-3" d="M1089.63,172.15c-.64,0-1.23-.17-1.86-.27a3,3,0,0,1-1.84-.63,1,1,0,0,1-.08-1.18,2.38,2.38,0,0,1,2.32-.71,3.52,3.52,0,0,1,2.29,1.09A1,1,0,0,1,1089.63,172.15Z"/><path class="cls-3" d="M1071.74,175.23c.63-.1,1.2-.3,1.82-.46a3.05,3.05,0,0,0,1.76-.83,1,1,0,0,0,0-1.18,2.4,2.4,0,0,0-2.38-.46,3.48,3.48,0,0,0-2.16,1.33A1,1,0,0,0,1071.74,175.23Z"/><path class="cls-3" d="M1076.18,180c0-.07-.14.09-.13.17.17,1.84.06,4-1.57,4.7,0,0,0,.11,0,.1C1076.52,184.58,1076.64,181.73,1076.18,180Z"/><path class="cls-3" d="M1074.41,178.19c-3,0-2.84,5.94-.07,6S1076.91,178.23,1074.41,178.19Z"/><path class="cls-3" d="M1073.25,178.54c-.52.35-1,1-1.64,1s-1.29-.52-1.78-1.11c0-.06-.1,0-.1.07,0,1.15.48,2.31,1.71,2.45s1.9-.9,2.16-2.06C1073.64,178.71,1073.45,178.4,1073.25,178.54Z"/><path class="cls-3" d="M1086.86,178.7c0-.07.15.08.15.16,0,1.85.36,4,2.06,4.5,0,0,0,.11,0,.11C1087,183.27,1086.59,180.46,1086.86,178.7Z"/><path class="cls-3" d="M1088.43,176.7c3-.36,3.45,5.59.71,5.92S1086,177,1088.43,176.7Z"/><path class="cls-3" d="M1089.7,177c.5.27,1,.81,1.58.8s1.08-.7,1.44-1.35c0-.06.09,0,.1.06.13,1.14-.15,2.35-1.23,2.66s-1.79-.63-2.15-1.74C1089.37,177.21,1089.5,176.88,1089.7,177Z"/><path class="cls-3" d="M1076,194.43c.44.44.87,1,1.54,1.12a4.91,4.91,0,0,0,2-.43c.06,0,.12,0,.08.1a2.48,2.48,0,0,1-2.37.95,2,2,0,0,1-1.42-1.66A.1.1,0,0,1,1076,194.43Z"/><path class="cls-3" d="M1084.36,187.14a40.93,40.93,0,0,1,.53,4.07,7.06,7.06,0,0,1-6.93-1.87c-.1-.12.07-.27.19-.19a9.41,9.41,0,0,0,5.74,1.42c.08-.36-1-4.7-.78-4.72a11.19,11.19,0,0,1,3,.57c-.84-5.78-2.6-11.38-3.35-17.15a.18.18,0,0,1,.34-.09c2.26,5.73,3.37,12.36,4.39,18.31C1087.62,188.23,1084.89,187.34,1084.36,187.14Z"/><path class="cls-3" d="M1049.47,187.39c5.14.49,6.1-11.29,6.1-11.29s21.72-4.37,23-22.2c0,0,4.09,11.22,15.68,16,0,0-1.36-19.47-16.92-22.79,0,0-19.4-6.39-29.71,9.15S1046,187.06,1049.47,187.39Z"/><path class="cls-3" d="M1078.64,152.58a19.46,19.46,0,0,1-.73,8.15,20.16,20.16,0,0,1-3.9,7.3,17.13,17.13,0,0,1-1.43,1.52l-.74.74c-.26.23-.54.44-.81.65-.55.42-1.09.86-1.66,1.26s-1.19.7-1.79,1c-.31.16-.6.34-.91.5l-1,.4-1.89.79c-1.31.41-2.64.75-4,1.07,1.24-.59,2.51-1,3.72-1.63l1.78-.93.89-.46c.29-.18.56-.38.83-.56.55-.38,1.1-.75,1.66-1.11s1-.85,1.53-1.27l.76-.63.68-.71a16.79,16.79,0,0,0,1.34-1.46,23.3,23.3,0,0,0,4-6.81,26.4,26.4,0,0,0,1.63-7.85Z"/><path class="cls-8" d="M1052.27,186.4s-5.79-8.46-9.63-6.41.46,14.29,4.92,16a4.56,4.56,0,0,0,6.13-2.39Z"/><path class="cls-3" d="M1044,183.47c-.07,0-.09.09,0,.12,3.13,1.3,4.75,4.23,5.88,7.26-.92-1.17-2.19-1.82-3.75-.72-.09.05,0,.18.08.17a2.79,2.79,0,0,1,3.07,1,13.64,13.64,0,0,1,1.45,2.51c.15.29.65.14.55-.18a.24.24,0,0,1,0-.08C1051.31,189.55,1048.25,183.92,1044,183.47Z"/><path class="cls-11" d="M766.63,762.14c3.72-1.54,86.28-73.47,87.69-78.2.55-1.8-9.23-14.43-21.47-29.36-2.64-3.23-5.39-6.54-8.21-9.89-18.22-21.77-38.07-44.44-38.07-44.44l-55.36,48,39.6,43.12,8.68,9.47s-19.29,41.67-20.28,47S762.9,763.69,766.63,762.14Z"/><path class="cls-4" d="M766.63,762.14c3.72-1.54,86.28-73.47,87.69-78.2.66-2.19-13.91-20.39-29.68-39.25l-53.83,46.64,8.68,9.47s-19.29,41.67-20.28,47S762.9,763.69,766.63,762.14Z"/><path class="cls-7" d="M766.63,762.14c3.72-1.54,86.28-73.47,87.69-78.2.55-1.8-9.23-14.43-21.47-29.36L779.49,700.8s-19.29,41.67-20.28,47S762.9,763.69,766.63,762.14Z"/><path class="cls-3" d="M764.94,757.81c13.54-12.4,69.33-61.12,83.66-72.35.11-.09.18,0,.07.09-13.15,12.58-69.33,60.85-83.54,72.49C764.83,758.28,764.65,758.07,764.94,757.81Z"/><path class="cls-3" d="M761.93,740.24a14.75,14.75,0,0,1,11.22-3.84c3.36.38,7.13,1.74,9.53,4.7.07.08-.08.21-.17.14-5.5-4.73-14.57-5.19-20.43-.83A.11.11,0,0,1,761.93,740.24Z"/><path class="cls-3" d="M775.32,706.85c5.48-4.9,13.6-8.54,21-7,.28.06.2.47,0,.52a102,102,0,0,0-20.45,7.26A.47.47,0,0,1,775.32,706.85Z"/><path class="cls-3" d="M772.5,712.24c5.47-4.9,13.6-8.54,21-7,.28.06.19.47,0,.53A101.28,101.28,0,0,0,773,713,.46.46,0,0,1,772.5,712.24Z"/><path class="cls-3" d="M769.68,717.64c5.47-4.91,13.59-8.55,21-7,.29.06.2.47,0,.53a101.36,101.36,0,0,0-20.45,7.25A.46.46,0,0,1,769.68,717.64Z"/><path class="cls-3" d="M766.85,723c5.47-4.9,13.6-8.54,21-7,.28.06.2.46,0,.52a102,102,0,0,0-20.45,7.25A.46.46,0,0,1,766.85,723Z"/><path class="cls-5" d="M833.62,675.39c6.23-5.39,14.63,4.28,8.39,9.68S827.38,680.8,833.62,675.39Z"/><path class="cls-3" d="M764,705c6.34,1.25,13-.29,19.33-1a.89.89,0,0,0,.61-1.31.19.19,0,0,0,0-.31,38.51,38.51,0,0,0-17.37-9.78c-3.83-.91-9.34-.1-10.12,4.67C755.72,701.8,760.27,704.29,764,705Zm-4.26-4.36c-4.7-6.51,4.77-6.62,7.57-5.84a40,40,0,0,1,5.28,2,116.06,116.06,0,0,1,10.27,5.48c-3.13.16-6.21.59-9.33.86C769.8,703.46,762.31,704.24,759.72,700.66Z"/><path class="cls-3" d="M800.55,681.73c-3.59-3.24-8.4-.42-10.82,2.68a38.53,38.53,0,0,0-7.47,18.48.19.19,0,0,0,.22.22.9.9,0,0,0,1.3.65c5.38-3.39,11.55-6.35,15.72-11.3C801.94,689.58,803.94,684.79,800.55,681.73ZM790.88,697c-2.6,1.73-5.28,3.33-7.82,5.16a114.86,114.86,0,0,1,4.6-10.7,40.69,40.69,0,0,1,2.89-4.84c1.7-2.36,9.16-8.19,9.55-.17C800.32,690.82,794,694.88,790.88,697Z"/><path class="cls-3" d="M669.62,563.14c5.19,29.6,82.2,112.41,91.1,121.91l2,2.16L821.45,638l-.74-.87-56.41-67.7,159.35-7.71-62.52-44.49s-4.79,3-15,2c-35.4-3.66-115.2-11.69-133.86-10.14C688.13,511.1,664.86,536,669.62,563.14Z"/><path class="cls-7" d="M744,544.24a70.28,70.28,0,0,1,5.81,6.83c2,2.39,4,4.76,6,7.16l.06.07c-.36-.71-.72-1.42-1.1-2.13-1.3-2.41-2.36-4.92-3.86-7.22a.13.13,0,1,1,.21-.14c1.55,2.28,3.32,4.43,4.66,6.84.64,1.14,1.24,2.29,1.8,3.46.31.64.63,1.28.91,1.93a9.77,9.77,0,0,1,.39.94c.89,1.11,1.78,2.23,2.64,3.37,1.91,2.53,3.61,5.22,5.54,7.73.11.13-.11.27-.21.15-2-2.36-4.12-4.54-6.09-6.87s-3.93-4.82-5.82-7.29-3.67-4.84-5.51-7.25a73.12,73.12,0,0,1-5.58-7.46A.09.09,0,0,1,744,544.24Z"/><path class="cls-7" d="M754,673.5c3.34-3.09,6.92-6,10.44-8.83s7.08-5.77,10.65-8.62c7.13-5.71,14.23-11.47,21.44-17.08,4-3.08,8-6.13,12.07-9,.19-.13.39.16.23.31-6.75,6.14-14,11.76-21.08,17.45s-14.3,11.4-21.52,17c-4,3.06-7.89,6.22-12,9C754.06,673.89,753.88,673.63,754,673.5Z"/><path class="cls-11" d="M878.89,428.81c-8.74,16.82-39.91,64-64.61,73.07-13.61,5-83.33,17.65-93.72,10.4-12.16-8.48-8.85-46.58-.24-48,26.26-4.47,75.84.14,87.69-4.14,5.36-1.94,32.17-24.62,61.45-43.78C880.54,409.07,884.52,418,878.89,428.81Z"/><path class="cls-4" d="M745.44,460.51s.36,57.56,3.07,56.73,61.94-8.51,76.81-17,38.35-42.74,51.92-65.28.63-27.37-13.72-16-54.59,38.35-57.19,38.6S745.44,460.51,745.44,460.51Z"/><path class="cls-3" d="M756.52,510.88c.3-7.77.49-15.53.33-23.31q-.11-5.82-.4-11.64c-.2-3.87-.79-7.73-.93-11.6,0-.21-.35-.19-.33,0,.34,3.85.16,7.78.29,11.65s.25,7.76.33,11.64c.18,7.75.37,15.51.37,23.26C756.18,511.13,756.51,511.09,756.52,510.88Z"/><path class="cls-4" d="M829.49,497.35c14.83-11.67,35.39-41.88,47.74-62.4,9.68-16.09,5.88-23.15-2.31-21.75Z"/><rect class="cls-12" x="747.97" y="514.14" width="102.6" height="4.6"/><polygon class="cls-9" points="828.62 514.14 832.13 518.75 747.97 518.75 747.97 514.14 828.62 514.14"/><polygon class="cls-9" points="824.23 518.74 724.24 518.74 715.91 450.83 815.9 450.83 824.23 518.74"/><path class="cls-3" d="M776.16,484.79a6,6,0,0,1-6,6.08,6.22,6.22,0,0,1-6.2-6.08,6,6,0,0,1,6-6.09A6.22,6.22,0,0,1,776.16,484.79Z"/><path class="cls-11" d="M716.73,457.4C713,463.22,703.65,470,702.38,475a5.9,5.9,0,0,0,2.43,6.62s-5.39,1.85-5.81,6.57c-.21,2.43,3.48,4.91,3.48,4.91s-4.25,1.67-4.36,5.89c-.09,3.36,3.62,5.34,3.62,5.34s-3.33,3.51-2.32,7c2.05,7,30.67,10.79,36.48.83,2.71-4.64-4.33-5.19-4.33-5.19s10.32-1.66,11.25-7.54-8.26-6-8.26-6,10-1.69,10.33-7.89c.36-6.45-8.86-5-8.86-5s6.94-3.47,6.12-8.28c-1.35-7.93-17.67.5-23.77-1.82Z"/><path class="cls-3" d="M702.29,504.74a.07.07,0,1,0,0,.14c9.11,3.54,20.2,4.63,29.71,2.14.32-.08.32-.62,0-.6C721.61,507.12,712.42,506.91,702.29,504.74Z"/><path class="cls-3" d="M702.34,493.15c-.11,0-.15.16,0,.2,9.41,3.59,21.94,4.48,32.56.32.37-.15.55-.64.12-.51C727.7,495.4,711.45,495.15,702.34,493.15Z"/><path class="cls-3" d="M736.71,479.9c-10.34,3.6-20.79,3.52-31.52,1.9-.14,0-.16.17,0,.22,5,2.23,12,2.55,17.4,2.34a28.92,28.92,0,0,0,14.29-4.1C737,480.15,736.93,479.82,736.71,479.9Z"/><path class="cls-4" d="M840.85,539S955.47,556.39,956,555.67s-16.3-123.53-55.63-143.2c-6.23-3.12-21.09-4.62-27.22,2C855.73,433.43,839.31,537.37,840.85,539Z"/><path class="cls-7" d="M841.73,528.74,954.57,544.6c-.53-3.38-1.21-7.41-2.05-11.94L843.46,517.33C842.76,521.66,842.18,525.52,841.73,528.74Z"/><path class="cls-7" d="M844.48,511.28l106.84,15q-.59-3-1.26-6.21L845.53,505.4C845.15,507.41,844.81,509.38,844.48,511.28Z"/><path class="cls-11" d="M877.66,436.48c6.36.27,15-11,17.7-19.35.18-.57-1.66-5.86-3.58-12.4-1.15-4-2.34-8.42-3.14-12.56L863.9,403.45s4.21,8.19,5.55,15.41a10.65,10.65,0,0,1,.15,1.73c0,.08,0,.18,0,.29C869.7,424.21,871.51,436.21,877.66,436.48Z"/><path class="cls-3" d="M863.89,403.45s4.22,8.18,5.56,15.42a8.59,8.59,0,0,1,.14,1.73,1.32,1.32,0,0,0,0,.27,13.67,13.67,0,0,0,2.7-.36c15-3.24,15.71-22.75,15.61-28Z"/><path class="cls-11" d="M886.11,358.62c4.59,8.66,4.89,36.17-.51,43.37-7.82,10.43-23.19,14.26-32.7,4.27-9.21-9.68-9-45.55-2.7-52.35C859.43,343.89,879.33,345.84,886.11,358.62Z"/><path class="cls-3" d="M862.75,380.35c0-.07.15.09.14.16-.07,1.84.15,4,1.81,4.59,0,0,0,.11,0,.1C862.65,384.9,862.39,382.08,862.75,380.35Z"/><path class="cls-3" d="M864.42,378.44c3-.19,3.13,5.75.39,5.93S861.93,378.61,864.42,378.44Z"/><path class="cls-3" d="M852,380.64c0-.07-.14.09-.14.17.11,1.83-.07,4-1.72,4.62-.05,0,0,.11,0,.1C852.13,385.19,852.35,382.36,852,380.64Z"/><path class="cls-3" d="M850.25,378.77c-3-.14-3,5.8-.28,5.93S852.73,378.88,850.25,378.77Z"/><path class="cls-3" d="M866.68,375.66a24,24,0,0,1-2.32-.74,4,4,0,0,1-2.23-1.21,1.27,1.27,0,0,1,.16-1.53,3.11,3.11,0,0,1,3.13-.41,4.61,4.61,0,0,1,2.7,1.9A1.34,1.34,0,0,1,866.68,375.66Z"/><path class="cls-3" d="M847.87,375.84a24,24,0,0,0,2.34-.68,3.94,3.94,0,0,0,2.26-1.15,1.27,1.27,0,0,0-.12-1.53,3.1,3.1,0,0,0-3.12-.49,4.52,4.52,0,0,0-2.74,1.83A1.34,1.34,0,0,0,847.87,375.84Z"/><path class="cls-3" d="M865.17,396.55c-.33.52-.63,1.19-1.27,1.39a4.79,4.79,0,0,1-2,0c-.06,0-.11.07-.06.11a2.5,2.5,0,0,0,2.5.46,2,2,0,0,0,1.05-1.91C865.37,396.48,865.22,396.47,865.17,396.55Z"/><path class="cls-3" d="M862.7,391.32a6.23,6.23,0,0,1-4.1,2.91,7.7,7.7,0,0,1-2.25.17,8,8,0,0,1-.84-.09.46.46,0,0,1-.38-.4h0c0-.07,0-3.94,0-3.94-.51.28-3.12,1.54-3.1.8.19-6.14.4-13,1.89-19a.17.17,0,0,1,.33,0c.06,5.9-.93,11.78-1,17.71a10.52,10.52,0,0,1,2.93-1c.11,0-.14,4.82-.12,4.86,2.39.24,4.16-.53,6.42-2.2C862.66,391.05,862.81,391.17,862.7,391.32Z"/><path class="cls-3" d="M856.92,394.08a7.86,7.86,0,0,0,3.31,2.17,3.48,3.48,0,0,0,2.14,0c1.5-.53,1.43-1.94,1.06-3.13a8.43,8.43,0,0,0-.84-1.8A10.13,10.13,0,0,1,856.92,394.08Z"/><path class="cls-13" d="M860.23,396.25a3.48,3.48,0,0,0,2.14,0c1.5-.53,1.43-1.94,1.06-3.13C861.79,393.39,860.24,394.64,860.23,396.25Z"/><path class="cls-3" d="M846.55,364c.93-2.46,2-4.94,3.45-5.48s2.54,2.94,5.85,3c4.47.09,6.44-4.1,12.65-4.82,8.91-1,13.2,6.26,14,18.94.71,11.33,7.61,12.09,7.61,12.09s3-25.2-4.43-33.15-23.76-10.87-34.26-2.47C847.6,355.2,846.55,364,846.55,364Z"/><path class="cls-11" d="M883.88,383.19s4.54-9.67,8.83-8.19,1.91,14.76-2.39,17.26a4.73,4.73,0,0,1-6.69-1.42Z"/><path class="cls-3" d="M891.93,378.79a.07.07,0,0,1,.05.12c-3,1.86-4.18,5.14-4.83,8.44.75-1.35,2-2.23,3.74-1.37a.1.1,0,0,1-.06.19,2.91,2.91,0,0,0-3,1.55,14.12,14.12,0,0,0-1.07,2.82c-.1.31-.65.25-.59-.1a.22.22,0,0,1,0-.08C885.4,386.27,887.59,380,891.93,378.79Z"/><path class="cls-9" d="M858.6,347.58a40.08,40.08,0,0,1,10.79-4.46c4.26-1,18-1.34,21.51,1.05s5.72,15.12,6,17,.61,13.28-3.22,16.44-6.19-16.06-13.32-21.78S858.6,347.58,858.6,347.58Z"/><path class="cls-6" d="M858.6,347.58s14.62,2.53,21.75,8.25,9.51,24.92,13.34,21.77c1.68-1.39,2.38-3.27,2.81-6.36-1.44-5.53-4.61-14-9.92-19.59-5-5.21-12.82-7.3-21-7.38A45.88,45.88,0,0,0,858.6,347.58Z"/><path class="cls-9" d="M893.74,389.14c-.9-5.09-7.52-18.29-13.8-25.6s-22.84-10.25-25.08-9.89c-5.42.87-6.35,3.61-7.27,3.21s3.91-7.17,5.35-8.24A17.82,17.82,0,0,1,860.3,346c2.38-.19,17.16-.24,23.12,5.46s15.28,22.41,14.36,27c-.22,1.11-1.57,1.95-1.87,3.52-.4,2.06-.58,4.41-1,5.87C894.5,389,893.81,389.58,893.74,389.14Z"/><path class="cls-3" d="M878.31,360.14a26.41,26.41,0,0,0,3.28-3,19.06,19.06,0,0,0,2.71-3.55.08.08,0,1,1,.15.07,14.43,14.43,0,0,1-2.38,3.92,12.42,12.42,0,0,1-3.61,2.78C878.31,360.46,878.19,360.24,878.31,360.14Z"/><path class="cls-3" d="M893.26,384a10.73,10.73,0,0,1,.45-1.11,6.13,6.13,0,0,0,.35-1.32,12.12,12.12,0,0,1,.33-2.55,9.43,9.43,0,0,1,1-1.83,3.41,3.41,0,0,0,.79-2.19.09.09,0,0,1,.17,0c.17,1.56-.76,2.77-1.31,4.15a16.69,16.69,0,0,0-.43,2.73,4,4,0,0,1-1.13,2.28C893.41,384.23,893.22,384.15,893.26,384Z"/><path class="cls-3" d="M890.92,378.65a21.4,21.4,0,0,0,1.26-1.89,16.77,16.77,0,0,0,.91-2c.25-.69.46-1.39.7-2.08s.67-1.6.92-2.43c0-.1.19,0,.16.07-.26.86-.37,1.76-.6,2.63a17.19,17.19,0,0,1-.76,2.19,11.14,11.14,0,0,1-1,2,5.57,5.57,0,0,1-1.5,1.63S890.89,378.69,890.92,378.65Z"/><path class="cls-3" d="M888.54,373.82a14.59,14.59,0,0,0,2.47-3.43c.62-1.24,1.18-2.51,1.72-3.78,0-.09.19-.05.16,0a17.32,17.32,0,0,1-1.36,4.08,9,9,0,0,1-1.15,1.75,9.23,9.23,0,0,1-1.71,1.47C888.59,374,888.47,373.9,888.54,373.82Z"/><path class="cls-3" d="M886,369.23a5.27,5.27,0,0,0,1.22-1.51c.38-.62.75-1.25,1.1-1.89s.69-1.22,1-1.84a5,5,0,0,0,.72-2c0-.09.17-.09.17,0a5.24,5.24,0,0,1-.38,2.07,12.74,12.74,0,0,1-1,2.13,19.84,19.84,0,0,1-1.25,1.93,3.39,3.39,0,0,1-1.53,1.3A.12.12,0,0,1,886,369.23Z"/><path class="cls-3" d="M883.93,363.29c.42-.51.85-1,1.23-1.57s.75-1.12,1.09-1.68.75-1.19,1.08-1.81a.09.09,0,0,1,.16.07,13.7,13.7,0,0,1-.76,2,14,14,0,0,1-1.07,1.78,15.26,15.26,0,0,1-1.26,1.62,5.32,5.32,0,0,1-1.54,1.34c-.09,0-.21-.06-.16-.16A10.09,10.09,0,0,1,883.93,363.29Z"/><path class="cls-3" d="M874.08,357.63a22.74,22.74,0,0,1,1.38-2,22.24,22.24,0,0,1,1.65-1.85,21.83,21.83,0,0,1,3.7-3.09c.08-.05.2,0,.12.12-2.21,2.33-4.52,4.56-6.71,6.91A.09.09,0,0,1,874.08,357.63Z"/><path class="cls-3" d="M870.53,353.56a11.06,11.06,0,0,1,1.57-1.84,23.8,23.8,0,0,1,4.14-2.89c.1-.06.2.06.11.13-1.24,1-2.5,2-3.68,3.12a20.61,20.61,0,0,0-1.68,1.69c-.52.6-.89,1.29-1.39,1.91a.06.06,0,0,1-.11,0A6.07,6.07,0,0,1,870.53,353.56Z"/><path class="cls-3" d="M866.05,352a11.92,11.92,0,0,1,1.44-1.81,13.19,13.19,0,0,1,3.52-2.59c.09,0,.16.09.09.15a26,26,0,0,0-3.28,2.93c-.5.53-1,1.09-1.46,1.65A20.89,20.89,0,0,1,865,354a.06.06,0,0,1-.09-.07A13.2,13.2,0,0,1,866.05,352Z"/><path class="cls-3" d="M862.7,349.74c.5-.49,1-1,1.54-1.42a6.4,6.4,0,0,1,1.68-1.19c.09,0,.15.09.08.15-1,.94-1.91,1.91-2.85,2.87a17.5,17.5,0,0,0-2.11,3.08.06.06,0,0,1-.1-.05A6.65,6.65,0,0,1,862.7,349.74Z"/><path class="cls-3" d="M858.77,349.31a10.6,10.6,0,0,1,3.2-2.48c.09-.05.17.09.09.14a13,13,0,0,0-2.87,2.67,17.91,17.91,0,0,0-2.15,3.29c0,.06-.13,0-.11,0A8.78,8.78,0,0,1,858.77,349.31Z"/><path class="cls-3" d="M854,352.13a7.7,7.7,0,0,1,.36-.83,9,9,0,0,1,1-1.51,18.4,18.4,0,0,1,2.68-2.54c.09-.07.19.07.11.13a15.25,15.25,0,0,0-2.49,2.59,12.09,12.09,0,0,0-1,1.48c-.14.25-.26.51-.38.77a4.89,4.89,0,0,1-.35.77.08.08,0,0,1-.15,0A2.32,2.32,0,0,1,854,352.13Z"/><path class="cls-3" d="M850.9,352.72c.26-.43.53-.85.83-1.25a10.41,10.41,0,0,1,1-1.13c.35-.37.72-.72,1.06-1.11.08-.09.21,0,.12.13a8.52,8.52,0,0,0-1,1.18c-.28.39-.57.78-.85,1.18l-.84,1.17c-.29.4-.53.85-.85,1.21a.07.07,0,0,1-.12-.07A6.48,6.48,0,0,1,850.9,352.72Z"/><path class="cls-3" d="M868.67,425.08a0,0,0,0,1,.09,0c0,5.19.36,17.21,8.43,16,3.25-.5,6.1-2.73,8.46-4.89a45.08,45.08,0,0,0,6.44-7.42,67.31,67.31,0,0,0,5.85-9.37c.06-.14.28,0,.2.13-1.72,3.28-3.12,6.67-5.16,9.79a39.72,39.72,0,0,1-6.93,8.2c-2.54,2.22-5.58,4.46-9,4.83a6.57,6.57,0,0,1-7-4.52A29.06,29.06,0,0,1,868.67,425.08Z"/><path class="cls-11" d="M915.06,439c7.77,44.11.26,77.14-7.24,81.23-20.16,11-68.59-11.32-82.25-15.76-5.53-1.79,19.64-44,25.28-41.42,13.28,6.13,31.89,16.55,32.64,16.47,1.49-.15,3.24-11.41,11-44.21C900.67,408.72,911.88,420.93,915.06,439Z"/><path class="cls-11" d="M781.54,442.11c-1.39,5.54,12.56,7.79,12.56,7.79a10.52,10.52,0,0,0-5.52,4.56c-2,3.84,3.09,8.7,3.09,8.7a13,13,0,0,0-5.06,5.74c-1.58,3.87,2.89,9.52,2.89,9.52a11.4,11.4,0,0,0-1.27,7.85c1.71,7.11,12.61,9.91,19,13,6.87,3.29,18.22,4.49,23.38,6.81L853,465.17s-21.57-22.84-33.88-26.38C812.24,436.82,783.65,433.64,781.54,442.11Z"/><path class="cls-3" d="M794.25,449.77c7.77-.34,15.6,1.19,23.14,2.74.16,0,.11.29-.06.26-7.48-1.63-15.58-1.3-23.1-2.63A.19.19,0,0,1,794.25,449.77Z"/><path class="cls-3" d="M792,462.65a20.22,20.22,0,0,1,5.21,1q2.71.7,5.42,1.5c3.61,1.06,7.19,2.2,10.74,3.45.16.05.11.31-.06.26-3.59-1.05-7.21-2.05-10.84-2.94-1.82-.45-3.65-.89-5.47-1.31a23.64,23.64,0,0,1-5.11-1.43A.27.27,0,0,1,792,462.65Z"/><path class="cls-3" d="M789.66,478.46c1.53-.08,3.2.67,4.64,1.12q2.44.78,4.91,1.52c3.27,1,6.55,2,9.86,2.88a.13.13,0,0,1-.06.26c-3.36-.88-6.74-1.71-10.1-2.62-1.65-.45-3.3-.9-4.94-1.37a13.18,13.18,0,0,1-4.37-1.63A.09.09,0,0,1,789.66,478.46Z"/><path class="cls-10" d="M883.49,479.48c-4.1-2-12.29-6.1-16.37-8.15-4.68-2.31-11.62-6-16.35-8-5.45-5.19-10.84-10.57-16.63-15.42a46.85,46.85,0,0,0-6-4.5,48.5,48.5,0,0,1,6.2,4.24,190.13,190.13,0,0,1,16.58,15c4.93,1.93,11.69,5.74,16.47,8.12,4,2.11,12.11,6.49,16.09,8.7Z"/><path class="cls-4" d="M854.63,462.05l-24.3,49.67S896,538.54,908.63,524s12.14-63.29,6.25-89.95S896,420.3,893.1,435s-8.3,42.85-9.61,42.52S854.63,462.05,854.63,462.05Z"/><path class="cls-3" d="M861.6,471.09c-3.57,6.39-7,12.81-10.21,19.4q-2.37,4.92-4.61,9.92c-1.48,3.33-2.63,6.83-4.16,10.13-.08.18.22.3.29.11,1.35-3.37,3.18-6.59,4.72-9.89s3.09-6.61,4.67-9.9c3.15-6.57,6.29-13.16,9.58-19.66C862,471,861.69,470.92,861.6,471.09Z"/><path class="cls-10" d="M853.63,464.08l.91-2.08,0-.09.1,0c13.9,7,28.24,14.8,41.56,22.83-14-6.87-28.27-14.74-41.66-22.66l.14,0-1.09,2Z"/><path class="cls-10" d="M890.83,446.54c-.6,5.3-1.53,10.54-2.63,15.76a113,113,0,0,1-3,11.6,13.67,13.67,0,0,1-1.67,3.64c1.12-2.39,1.46-5.09,2.08-7.65l1.66-7.8c1.12-5.2,2.24-10.4,3.6-15.55Z"/><path class="cls-10" d="M887.9,448.68a42.75,42.75,0,0,0,.76,9,14,14,0,0,1-.76-9Z"/><path class="cls-10" d="M918,455.77c1.46,16,3,63.4-13.56,71,15.27-7.83,13.78-55.11,13.56-71Z"/><path class="cls-10" d="M919.43,459.72a11.62,11.62,0,0,1-1,6.37c.3-2.16.52-4.24,1-6.37Z"/><path class="cls-11" d="M541,675c1.56,3.72,73.76,86,78.49,87.44,1.8.54,14.4-9.28,29.29-21.57,3.22-2.65,6.52-5.41,9.86-8.23,21.71-18.3,44.32-38.22,44.32-38.22l-48.14-55.21-43,39.74-9.44,8.71s-41.74-19.15-47.1-20.13S539.43,671.32,541,675Z"/><path class="cls-4" d="M541,675c1.56,3.72,73.76,86,78.49,87.44,2.19.65,20.34-14,39.15-29.8L611.82,679l-9.44,8.71s-41.74-19.15-47.1-20.13S539.43,671.32,541,675Z"/><path class="cls-7" d="M541,675c1.56,3.72,73.76,86,78.49,87.44,1.8.54,14.4-9.28,29.29-21.57L602.38,687.7s-41.74-19.15-47.1-20.13S539.43,671.32,541,675Z"/><path class="cls-3" d="M545.32,673.33c12.44,13.5,61.34,69.14,72.62,83.43.09.12,0,.18-.09.07-12.62-13.11-61.07-69.14-72.75-83.3C544.85,673.23,545.06,673.05,545.32,673.33Z"/><path class="cls-3" d="M562.89,670.27a14.77,14.77,0,0,1,3.87,11.21c-.37,3.36-1.72,7.13-4.67,9.54-.08.07-.22-.08-.14-.16,4.71-5.53,5.14-14.6.76-20.44A.12.12,0,0,1,562.89,670.27Z"/><path class="cls-3" d="M596.31,683.55c4.92,5.46,8.59,13.57,7.08,21-.06.28-.46.2-.52,0a101.72,101.72,0,0,0-7.32-20.42A.46.46,0,0,1,596.31,683.55Z"/><path class="cls-3" d="M590.91,680.75c4.92,5.45,8.59,13.57,7.08,21-.06.29-.46.2-.52,0a101.72,101.72,0,0,0-7.32-20.42A.46.46,0,0,1,590.91,680.75Z"/><path class="cls-3" d="M585.51,677.94c4.92,5.46,8.59,13.57,7.08,21-.06.29-.47.2-.52,0a102,102,0,0,0-7.32-20.43A.46.46,0,0,1,585.51,677.94Z"/><path class="cls-3" d="M580.11,675.14c4.92,5.45,8.58,13.56,7.08,21-.06.29-.47.2-.53,0a101.69,101.69,0,0,0-7.31-20.42A.46.46,0,0,1,580.11,675.14Z"/><path class="cls-5" d="M628,741.75c5.42,6.21-4.23,14.64-9.66,8.42S622.53,735.53,628,741.75Z"/><path class="cls-3" d="M598.11,672.2c-1.23,6.35.33,13,1.06,19.34a.89.89,0,0,0,1.31.6.2.2,0,0,0,.31,0,38.51,38.51,0,0,0,9.72-17.4c.9-3.84.08-9.35-4.69-10.11C601.3,663.94,598.83,668.49,598.11,672.2Zm4.35-4.27c6.49-4.72,6.63,4.75,5.86,7.55a42,42,0,0,1-2,5.29,115,115,0,0,1-5.46,10.29c-.16-3.13-.6-6.21-.88-9.33C599.68,678,598.88,670.53,602.46,667.93Z"/><path class="cls-3" d="M621.52,708.7c3.22-3.6.39-8.4-2.72-10.81a38.45,38.45,0,0,0-18.51-7.41.2.2,0,0,0-.22.22.9.9,0,0,0-.64,1.3c3.41,5.37,6.39,11.53,11.35,15.69C613.67,710.12,618.46,712.1,621.52,708.7Zm-15.25-9.62c-1.75-2.6-3.35-5.27-5.19-7.8a113.4,113.4,0,0,1,10.72,4.56,42.92,42.92,0,0,1,4.85,2.87c2.36,1.69,8.21,9.14.2,9.56C612.43,708.5,608.34,702.18,606.27,699.08Z"/><path class="cls-3" d="M613.84,670.26l50.29,62.15L819.89,614.23l15-11.41s4.51,2.77,11.26,6.13c9.38,4.68,23.08,10.52,35,11.77,20,2.1,50.09.51,65.92-22.66,13.34-19.51,7.84-44,7.84-44l-22.28-8.47s-53.6-40.93-87.19-40.81c-14.27,0-34.55,11.72-53.28,23.81S613.84,670.26,613.84,670.26Z"/><path class="cls-7" d="M834.91,602.82s4.51,2.77,11.26,6.13c11.07-14.45,34.68-40.86,35.39-41.79Z"/><path class="cls-7" d="M913.1,532c3.18,2,6.27,4.17,9.42,6.25s6.28,3.95,9.24,6.19,5.86,4.75,8.71,7.23c1.37,1.19,2.74,2.4,4.07,3.64a35.72,35.72,0,0,1,3.89,3.89c.11.13-.08.3-.21.23a43.18,43.18,0,0,1-4.3-3.2c-1.5-1.16-3-2.34-4.48-3.5-2.88-2.25-5.81-4.43-8.69-6.68s-5.52-4.71-8.36-7c-3-2.43-6.21-4.68-9.35-7A.06.06,0,0,1,913.1,532Z"/><path class="cls-7" d="M624.91,667.49c3.23,3.2,6.24,6.66,9.27,10s6.06,6.84,9.06,10.28c6,6.88,12.06,13.73,18,20.69,3.24,3.83,6.45,7.69,9.49,11.68.14.18-.15.4-.3.24C664,714,658.07,707,652.08,700.11s-12-13.8-17.9-20.78c-3.23-3.82-6.55-7.62-9.54-11.63C624.52,667.54,624.77,667.35,624.91,667.49Z"/><path class="cls-7" d="M747.05,669.31c7.72-6.63,25.35-19.69,33.38-25.95s16-12.46,24.09-18.51c2.33-1.74,4.68-3.44,7-5.15s4.8-3.3,7.09-5.06c.14-.11.27.12.14.22-2.11,1.65-4.08,3.48-6.15,5.19s-3.93,3.28-5.92,4.88c-3.88,3.14-7.81,6.23-11.73,9.32q-11.91,9.42-24.06,18.56c-4.6,3.45-18.78,13.68-23.49,17C747.15,670,746.79,669.54,747.05,669.31Z"/><path class="cls-7" d="M693.87,605.15c7.12-6.43,23.44-18.9,30.94-24.88s15.11-12.16,22.73-18.17l22.65-17.89c7.32-5.78,14.61-11.65,22.38-16.82a153,153,0,0,1,13.13-7.88,87.74,87.74,0,0,1,13.66-6.27.13.13,0,0,1,.1.24c-3.84,2.36-7.89,4.38-11.78,6.67s-7.62,4.63-11.33,7.11c-7.72,5.13-15,10.9-22.25,16.63-15.12,11.88-30.21,23.81-45.46,35.54-8.53,6.57-25.51,20.1-34.4,26.18C694,605.8,693.62,605.38,693.87,605.15Z"/><path class="cls-14" d="M81.86,343c1.22-3.67,66.14-89.45,70.57-91.1.51-.22,29.53,20.43,29.53,20.43,1.2,1.6,56.36-10.06,56.36-10.06l.55,66.55-100.49-2.13s-13.57,8-26,14.48c0,0,0,0-.05,0-7.64,4-14.4,7.42-16.33,7.92C91,350.36,80.63,346.62,81.86,343Z"/><path class="cls-4" d="M96,349.07c1.94-.49,8.69-3.89,16.33-7.92,0,0,0,0,.05,0,12.4-6.5,26-14.49,26-14.49l22.36.48,35-56.5c-7.69,1.36-13.42,2.18-13.8,1.67,0,0-29-20.65-29.52-20.43C148,253.53,83.08,339.31,81.87,343S91,350.37,96,349.07Z"/><path class="cls-3" d="M81.27,343.09c1.28-3.76,66.49-89.49,71.05-91.19,1.72-.65,15.92,8.12,29.64,20.41l-42.11,55.23s-38.85,20.58-44,21.9S80,346.85,81.27,343.09Z"/><path class="cls-3" d="M85.64,344.47c11.28-14.1,55.47-72.05,65.55-86.85.08-.12,0-.18-.09-.07-11.49,13.74-55.21,72-65.7,86.74C85.18,344.6,85.4,344.77,85.64,344.47Z"/><path class="cls-3" d="M103.08,346.27a14.44,14.44,0,0,0,3-11.26c-.59-3.27-2.17-6.89-5.23-9.05-.08-.06-.21.09-.13.17,5,5.1,6,14,2.15,20C102.83,346.26,103,346.39,103.08,346.27Z"/><path class="cls-3" d="M135,331c4.46-5.69,7.5-13.91,5.51-21.06-.07-.28-.47-.16-.51.07a100.18,100.18,0,0,1-5.78,20.55A.45.45,0,0,0,135,331Z"/><path class="cls-3" d="M129.87,334.07c4.46-5.69,7.5-13.9,5.51-21.06-.07-.27-.47-.16-.51.08a99.91,99.91,0,0,1-5.78,20.54A.45.45,0,0,0,129.87,334.07Z"/><path class="cls-3" d="M124.76,337.19c4.46-5.69,7.5-13.9,5.52-21.05-.08-.28-.47-.17-.52.07A99.55,99.55,0,0,1,124,336.76.45.45,0,0,0,124.76,337.19Z"/><path class="cls-3" d="M119.65,340.32c4.46-5.69,7.5-13.91,5.52-21.06-.08-.28-.47-.16-.52.07a99.38,99.38,0,0,1-5.78,20.55A.45.45,0,0,0,119.65,340.32Z"/><path class="cls-3" d="M162.06,271.67c4.89-6.47-5.16-14.08-10.06-7.6S157.16,278.15,162.06,271.67Z"/><path class="cls-3" d="M145.6,348.84c4.63-1.08,5.06-6.54,3.92-10.24a38,38,0,0,0-10.73-16.42.19.19,0,0,0-.3.06.89.89,0,0,0-1.26.68c-.28,6.25-1.36,12.9.29,19.05C138.48,345.56,141.22,349.86,145.6,348.84Zm-6.86-16.36c.07-3.08.28-6.13.23-9.21A112.05,112.05,0,0,1,145,333a40.86,40.86,0,0,1,2.28,5.05c.95,2.69,1.47,12-5.23,7.81C138.39,343.55,138.67,336.15,138.74,332.48Z"/><path class="cls-3" d="M147.53,306.27c-4.58,4.42-7.09,10.67-10.07,16.18a.87.87,0,0,0,.72,1.22c0,.12.08.23.23.21a37.89,37.89,0,0,0,17.66-8.54c2.89-2.58,5.34-7.49,1.92-10.79C154.77,301.42,150.2,303.69,147.53,306.27Zm5.91-1c7.9-.14,2.66,7.57.46,9.39a40.62,40.62,0,0,1-4.56,3.15A112.65,112.65,0,0,1,139.13,323c1.63-2.61,3-5.34,4.56-8C145.51,311.85,149.09,305.36,153.44,305.29Z"/><path class="cls-7" d="M241.36,241.85h45.11s47.18-22.68,85.18-13.54c43.57,10.47,49.14,65.19,16.57,84.54C347,337.36,163.36,332.62,163.36,332.62l39.7-67.27s61.05-12.86,116.42-11L241.36,265Z"/><path class="cls-3" d="M200.41,269.69a2,2,0,0,0,.09-.35,2.86,2.86,0,0,1,.07-.28c.05-.22.11-.43.17-.65.13-.45.29-.88.46-1.32s.36-.85.56-1.28a9.81,9.81,0,0,1,.74-1.19s.07,0,.11-.07l.07-.05.1,0,.1,0c6.71-1.25,52.33-7.78,59.12-8.55s13.7-1.42,20.56-2c13.68-1.14,27.44-1.71,41.17-1.48,1.29,0,2.57.08,3.86.12.27-.09.56-.14.84-.21.66-.16,1.32-.32,2-.45,1.24-.23,2.49-.42,3.74-.61,2.6-.39,5.2-.67,7.79-1.15.15,0,.22.21.06.24-2.6.58-5.16,1.33-7.76,1.9l-2.25.47c5,.27,10.06.66,15.09,1.11.16,0,.16.26,0,.25-6.84-.4-13.73-.45-20.58-.34s-13.59.27-20.39.66c-13.73.79-27.46,2-41.14,3.45-7.68.8-54.2,7.59-61.91,7.91,0,0-.06,0-.1,0a3.89,3.89,0,0,1-.21.53c-.21.42-.42.83-.65,1.24s-.44.78-.69,1.16c-.12.19-.25.37-.38.56s-.13.18-.19.28a1.87,1.87,0,0,0-.2.29C200.58,270,200.32,269.84,200.41,269.69Z"/><path class="cls-3" d="M177.68,328.53c2.46-3.93,4.55-8.13,6.8-12.18l6.78-12.19c4.52-8.11,20.73-35.36,22.33-37.27.1-.12.31,0,.26.16-.77,2.11-10.88,20.15-13.21,24.18-4.66,8-9.55,15.93-14.38,23.88-1.38,2.27-2.8,4.51-4.2,6.76s-2.88,4.47-4.17,6.79C177.82,328.8,177.6,328.67,177.68,328.53Z"/><path class="cls-3" d="M214.05,273.67c4-1,8.2-1.6,12.29-2.38L238.65,269q12.33-2.28,24.68-4.37c16.43-2.76,32.93-5.06,49.51-6.65,9.36-.9,18.75-1.49,28.13-2.18.2,0,.19.3,0,.31-16.71.75-33.39,3-49.93,5.4q-24.57,3.52-49,7.69-6.92,1.15-13.82,2.36c-4.67.81-9.35,1.81-14.06,2.41A.14.14,0,0,1,214.05,273.67Z"/><path class="cls-14" d="M149.8,560.58c4-.22,108.67-42,111.56-46.05,1.13-1.51-40.74-99.84-40.74-99.84L154,441.13l28.26,65.7s-32,33-34.72,37.77S145.77,560.82,149.8,560.58Z"/><path class="cls-3" d="M149.8,560.58c4-.23,108.67-42,111.56-46.05.36-.47-3.46-10.31-8.88-23.66-17.93,10.37-83.33,46.86-89.82,45.72-4.53-.79-2.52-5.43-.34-8.86-7.09,7.62-13.66,14.85-14.81,16.88C144.82,549.33,145.78,560.82,149.8,560.58Z"/><path class="cls-7" d="M242.86,458l-77,35.42s-63.19-147.23-65.49-199c-2-44.1,17.93-81.4,117.16-52.88l24.32.31v16.77c-10.68,1.41-39.14,5.88-39.14,5.88-20.72,7.81-27.39,11.05-27.05,11.72C227.28,380.53,242.86,458,242.86,458Z"/><path class="cls-3" d="M163.49,257.61c3,4,5.75,8.14,8.4,12.37,15.92-7.08,33.25-11.18,50.49-13.3q7.32-.9,14.68-1.31c.2,0,.19.3,0,.31a221.35,221.35,0,0,0-51.37,9.78c-4.62,1.42-9.15,3.07-13.69,4.69,3.18,5.09,6.18,10.3,9.06,15.55A312,312,0,0,1,195.55,316c2.37,5.72,4.69,11.48,6.74,17.33.06.16-.22.27-.29.11q-13.58-30.27-29.64-59.26c-3-5.45-6.18-10.83-9.14-16.33C163.14,257.65,163.37,257.46,163.49,257.61Z"/><path class="cls-3" d="M164.21,475.55c4.32-1.68,8.51-3.79,12.74-5.69l12.73-5.72c8.46-3.79,37.76-15.93,40.18-16.5a.16.16,0,0,1,.11.28c-1.87,1.24-20.77,9.64-25.05,11.47-8.54,3.66-17.18,7.06-25.8,10.54-2.46,1-5,1.93-7.42,2.9s-5,1.86-7.4,2.95C164.16,475.84,164.06,475.6,164.21,475.55Z"/><path class="cls-3" d="M163.85,265.26c5.85,11.11,10.82,22.73,15.9,34.21s10,22.92,14.75,34.48q14.26,34.5,26.57,69.78c4.66,13.3,6.67,22.45,10.91,35.89.06.19-.24.26-.3.07-7.85-23.75-14-43.05-22.89-66.43s-18.27-46.46-28.23-69.35q-4.19-9.63-8.52-19.22c-2.88-6.39-5.89-12.74-8.59-19.21C163.34,265.22,163.71,265,163.85,265.26Z"/><path class="cls-3" d="M313.06,159.43a.78.78,0,0,1-.7.77l-3.22-.06c-2.22-7.72-4.81-13.92-4.19-11.53a38.69,38.69,0,0,1,1,11.45l-6.35-.23c-1.36-13.37-3.71-23.4-3.77-20.37-.24,12.21-1.3,16-2.5,20.14C278,159,258,158,243.47,157c-1.05-7.42-1.84-15.41-2.14-14.89-2.32,4-3.37,9.86-3.81,14.44-4.62-.36-8.29-.73-10.53-1.08,0,0-.55-6.2-.53-8.23A42.27,42.27,0,0,1,229.39,132c2-5,5-9.24,7.92-13.64l.07-.1s0,0,0,0a43.26,43.26,0,0,0,4.66-9.16.12.12,0,0,0,0-.07,41.87,41.87,0,0,0,1.81-7.18c1.45-8.92,7.17-16.26,15.82-17.9,17.23-13.65,32.65-6,36.48,6,.37,1.17.71,2.49,1,3.93v0c1.18,5.32,2.07,12.18,3,17.5,0,0,0,0,0,0s0,0,0,.06v0a50.68,50.68,0,0,0,1.37,6.17C304.84,127.38,313.59,133.48,313.06,159.43Z"/><path class="cls-3" d="M255.85,86.11c-5.79,2.41-9.55,6.34-11,12.82-.83,3.77-1.4,7.48-3.18,11s-4.49,6.44-7.22,9.28c-4.33,4.51-7.48,9.1-8.64,15.48s-1.53,14.21.15,20.5c0,0,.07,0,.06,0-1.26-6.33-.57-14.89,1.09-21.27,1.82-7,6.23-11.13,10.82-16.19a29.78,29.78,0,0,0,7.3-14c.69-3.21.93-6.58,2.5-9.52,1.87-3.51,5.17-5.57,8.42-7.36A.38.38,0,0,0,255.85,86.11Z"/><path class="cls-3" d="M310,128.5c-3.47-5.42-7.16-10.11-8.91-16.62-1.59-5.94-2.26-12.12-3.89-18,0-.09-.17-.07-.14,0,2.39,10.49,2.14,20.84,8,30,3.18,5,6.39,9.6,8.27,15.39A50.09,50.09,0,0,1,315.49,158c0,.23.27.24.31,0A41.41,41.41,0,0,0,310,128.5Z"/><path class="cls-3" d="M261.76,82.42c-.38,2.14-11.24,6.07-17.91-.32s-2.29-16.94,7.61-14.65C257.72,68.9,262.58,77.89,261.76,82.42Z"/><path class="cls-3" d="M241.32,71.92a12.77,12.77,0,0,1,6.34-5.54,7.7,7.7,0,0,1,7.62.93A15.6,15.6,0,0,1,260.19,74a24.15,24.15,0,0,1,1.27,4.11,11.46,11.46,0,0,1,.3,4.33,10.25,10.25,0,0,0,.49-4.44,19.39,19.39,0,0,0-.87-4.44A15,15,0,0,0,256.23,66a8.54,8.54,0,0,0-9.08-.77A11.24,11.24,0,0,0,241.32,71.92Z"/><path class="cls-14" d="M246.23,152.26c5,26.74,20.34,61.34,34.24,61.88,12.68.49,42.07-11.67,54.31-18.39S322.89,158.14,315.56,162c-9.76,5.1-26.8,16.63-29.42,15.63-3.26-1.25-6.26-6.7-23.85-31.79C255.09,135.54,244.08,140.88,246.23,152.26Z"/><path class="cls-14" d="M329.08,151.75c5.78-1.36,12.29-3.39,18.45-2.6s10.41,9.5,10.15,11.84-4.16,16.64-10.34,16-1.23-11.45-1.33-12.76-.15-3-1.32-3-22.63,7.45-22.63,7.45Z"/><path class="cls-14" d="M329.38,152.64c.35,0,17.61-4.69,23.78-3.9s10.4,9.5,10.15,11.83-4.17,16.65-10.34,16-1.24-11.46-1.33-12.76-.15-3-1.33-3-22.62,7.45-22.62,7.45Z"/><path class="cls-3" d="M351,175.54a7.49,7.49,0,0,1-.63-3.76,13,13,0,0,1,.65-3.92,20,20,0,0,0,1.12-3.32,6.81,6.81,0,0,0-.5-3.36c-.39-.91-1.32-.72-2.13-.53a29.14,29.14,0,0,0-3.53,1.16c-1.24.45-2.48.94-3.71,1.42a32.36,32.36,0,0,0-3.8,1.58c-.09.05-.05.2.06.17a31.34,31.34,0,0,0,3.28-1.06c1.23-.43,2.47-.84,3.71-1.24s2.3-.81,3.47-1.16a3.64,3.64,0,0,1,1.68-.31c.46.16.56,1.34.63,1.73a5.83,5.83,0,0,1-.58,3.31,18.42,18.42,0,0,0-1,3.32,9.34,9.34,0,0,0-.09,3.25,12.82,12.82,0,0,0,1.19,2.81C350.81,175.77,351,175.66,351,175.54Z"/><path class="cls-14" d="M308,166.73s18.81-13.74,22.71-16.45c7.83-5.44,39.27-14.47,43.51-14.46s4.83,8.78-16.58,15.49c-11.28,3.54-13.87,9.5-14,12.94s2.4,10.17,8.17,10.64,10.41-7.52,15.79-7.87.84,8.94-3.49,14.13-11.61,9.07-16.78,10.39S326,197.82,326,197.82Z"/><path class="cls-3" d="M359.38,171.62c-2.34,1.44-5,3.35-7.89,3.15s-4.67-2.33-5.77-4.88a10.93,10.93,0,0,1-.65-8.11,13.46,13.46,0,0,1,4.64-6,32.81,32.81,0,0,1,8.35-4.33c.13,0,0-.25-.09-.2-2.78.89-11.37,3.37-13.81,10.46-1,2.89-.39,5.64.72,8.27,1,2.43,2.65,4.84,5.41,5.37,3.36.64,6.59-1.8,9.25-3.6C359.66,171.64,359.51,171.55,359.38,171.62Z"/><path class="cls-4" d="M244.53,157.67a118.2,118.2,0,0,0,8.14,31.16c.86,2,1.42,3,1.42,3L280,173.62l3.57-2.51s-.42-.73-1.83-2.74c-2-2.83-6.08-8.2-13.84-17.59-4.59-5.57-8.59-9.24-11.91-11.23C246.59,133.91,242.4,141.52,244.53,157.67Z"/><path class="cls-4" d="M249.87,190.81l5.3,9.4,29-20.78,6.49-4.66c-.66-.7-7.05-7.71-7.05-7.71l-1.84,1.31-3.65,2.57-25.4,17.89Z"/><path class="cls-3" d="M244.53,157.67a118.2,118.2,0,0,0,8.14,31.16l-2.8,2,5.3,9.4,29-20.78L280,173.62l-1.91-2.68c-8.53-12-17-24.06-22.1-31.39C246.59,133.91,242.4,141.52,244.53,157.67Z"/><path class="cls-14" d="M286.66,243.63l-1.59-32.74s13-16,8.28-27.49c-2.4-5.8-19.48-35.36-28.89-42.79-8.83-7-22.41-.27-26.61,5.5-16.31,22.41-28.69,42.49-40.41,93,0,0,33.16,11.12,63.19,11.12C270,250.26,286.66,243.63,286.66,243.63Z"/><path class="cls-4" d="M290.44,235.42l-5.37-24.53s13-16,8.28-27.49c-2.4-5.8-19.48-35.36-28.89-42.79-8.83-7-23.15-1.18-27.44,4.53-16.84,22.38-30.18,45.43-40.18,88.07Z"/><path class="cls-3" d="M256.4,209.26a78.49,78.49,0,0,1,11.67.44c1.92.24,3.82.57,5.72,1,.95.18,1.9.33,2.85.48a12.75,12.75,0,0,0,3,.19c.09,0,.1.12,0,.14a22.41,22.41,0,0,1-2.84.3,19.81,19.81,0,0,1-2.77-.17c-1.95-.23-3.89-.55-5.84-.79-3.94-.5-7.87-1-11.83-1.22A.16.16,0,0,1,256.4,209.26Z"/><path class="cls-3" d="M247.3,213.87a85,85,0,0,1,9.5-1.66c1.6-.18,3.2-.27,4.81-.32.77,0,1.53,0,2.3,0s1.69.12,2.54.11a.07.07,0,0,1,0,.14c-.79,0-1.59.2-2.38.28l-2.39.23c-1.6.17-3.19.35-4.79.49-3.2.3-6.38.62-9.57,1C247.16,214.15,247.14,213.91,247.3,213.87Z"/><path class="cls-14" d="M248.34,142.91c-.12,1.75,8.63,15.74,16.19,17.68,2.46.62,2.27-13.68,2.27-13.68l.52-.91,7.29-12.79-12.95-15.3-1.91-2.09s-1.76,3.63-3.91,8.18l-.31.64c-.13.26-.25.49-.36.74-.33.67-.66,1.36-1,2.05-.25.53-.49,1-.72,1.61s-.49,1.1-.74,1.66A95.37,95.37,0,0,0,248.34,142.91Z"/><path class="cls-3" d="M255.84,124a29.49,29.49,0,0,0,11.48,22l7.29-12.79-12.95-15.3-1.91-2.09S258,119.45,255.84,124Z"/><path class="cls-14" d="M301,113.05c-.76,25.81-16.31,28.28-21.87,28.11-5.06-.16-22.24-1.32-24.16-27.08s10.33-33.57,21.9-33.83S301.77,87.23,301,113.05Z"/><path class="cls-3" d="M296.26,108.19a15.15,15.15,0,0,1-1.7-.53,2.87,2.87,0,0,1-1.63-.87.92.92,0,0,1,.11-1.12,2.27,2.27,0,0,1,2.28-.32,3.35,3.35,0,0,1,2,1.38A1,1,0,0,1,296.26,108.19Z"/><path class="cls-3" d="M279.69,106.48c.61,0,1.17-.13,1.77-.2a3,3,0,0,0,1.77-.55.92.92,0,0,0,.1-1.12,2.28,2.28,0,0,0-2.18-.75,3.41,3.41,0,0,0-2.21,1A1,1,0,0,0,279.69,106.48Z"/><path class="cls-3" d="M282.74,113.33c0-.07-.14.07-.15.14-.07,1.76-.44,3.76-2.07,4.23,0,0,0,.1,0,.1C282.48,117.67,283,115,282.74,113.33Z"/><path class="cls-3" d="M281.31,111.38c-2.81-.42-3.44,5.23-.84,5.61S283.66,111.73,281.31,111.38Z"/><path class="cls-3" d="M280.17,111.55c-.53.27-1.08.78-1.68.77s-1.15-.66-1.53-1.27c0-.07-.1,0-.11,0-.13,1.08.16,2.23,1.3,2.53s1.91-.61,2.3-1.67C280.52,111.76,280.38,111.45,280.17,111.55Z"/><path class="cls-3" d="M292.26,114.28c0-.06.13.1.12.17-.27,1.74-.28,3.78,1.23,4.55.05,0,0,.11,0,.09C291.69,118.59,291.73,115.89,292.26,114.28Z"/><path class="cls-3" d="M294,112.64c2.83.12,2.38,5.79-.25,5.67S291.66,112.54,294,112.64Z"/><path class="cls-3" d="M295.19,113.11c.42.33.82.92,1.35,1s1.12-.48,1.57-1c0,0,.08,0,.08.07-.06,1.09-.5,2.18-1.56,2.31s-1.59-.87-1.76-2C294.84,113.27,295,113,295.19,113.11Z"/><path class="cls-3" d="M281.23,127.44c.36.47.68,1.1,1.31,1.25a4.52,4.52,0,0,0,1.93-.14c.06,0,.11,0,.06.1a2.37,2.37,0,0,1-2.35.6,1.87,1.87,0,0,1-1.12-1.76C281,127.39,281.18,127.37,281.23,127.44Z"/><path class="cls-3" d="M289.18,121.84s.1,2.65,0,3.89c0,.11-.31.14-.73.12,0,0,0,0-.05,0a5.91,5.91,0,0,1-5.48-2.76.13.13,0,0,1,.2-.15,8.88,8.88,0,0,0,5.2,2.06c.12-.33-.32-4.53-.12-4.52a10.8,10.8,0,0,1,2.73.91c-.05-5.53-1-11-1-16.51a.17.17,0,0,1,.33,0c1.39,5.66,1.58,12,1.78,17.73C292.1,123.28,289.66,122.1,289.18,121.84Z"/><path class="cls-3" d="M287.67,125.11a6.43,6.43,0,0,1-2.65,1.82,3,3,0,0,1-1.74,0c-1.24-.4-1.2-1.56-.91-2.53a7,7,0,0,1,.64-1.47A8.22,8.22,0,0,0,287.67,125.11Z"/><path class="cls-13" d="M285,126.93a3,3,0,0,1-1.74,0c-1.24-.4-1.2-1.56-.91-2.53A3,3,0,0,1,285,126.93Z"/><path class="cls-3" d="M286.63,86s.61,4.12-1.09,6.86c-3.49,5.63-10.48,3.28-13.19,5.36-2.54,2-2.24,6.6-4.56,8.58-3.21,2.73-7,1.12-7.69,3.12s-2.78,8.39-5.49,8.94-10-44.27,24.13-39.14c0,0,4.79-1.22,11.79,3.07,8.07,4.94,9.83,18.37,9.83,18.37s-.35,0-1.4-1.19c-1.49-1.64-2-3.06-3.09-4.14-1.74-1.69-2.85-1.24-4.66-2.9A22.61,22.61,0,0,1,286.63,86Z"/><path class="cls-3" d="M286.31,84a23.53,23.53,0,0,1,.43,5.35,9.66,9.66,0,0,1-1.29,5A7.17,7.17,0,0,1,281.18,97c-1.69.42-3.5.39-5.33.9a5.29,5.29,0,0,0-2.48,1.47,7.14,7.14,0,0,0-1.3,2.52,9.66,9.66,0,0,1-2.42,4.53,6,6,0,0,1-4.8,1.42c-1.72-.19-3.58-.88-5.34-.31,1.81-.43,3.5.38,5.28.72a6.48,6.48,0,0,0,5.28-1.33c1.55-1.2,2.16-3.13,2.73-4.77A6.37,6.37,0,0,1,274,99.89a4.59,4.59,0,0,1,2.12-1.2c1.64-.49,3.48-.5,5.28-1A9.45,9.45,0,0,0,284,96.66a5.68,5.68,0,0,0,2-2,10.12,10.12,0,0,0,1.16-5.36A23.51,23.51,0,0,0,286.31,84Z"/><path class="cls-3" d="M286.8,85.63a18.57,18.57,0,0,0,1.14,4.9,8.81,8.81,0,0,0,3,4.15,13,13,0,0,0,2.27,1.18,4.12,4.12,0,0,1,1.71,1.44,12.91,12.91,0,0,0,1.27,2.19,5.6,5.6,0,0,0,2,1.5,6.24,6.24,0,0,1-1.69-1.75,12.1,12.1,0,0,1-1-2.24,4.38,4.38,0,0,0-1.94-1.85A13.35,13.35,0,0,1,291.45,94a9.42,9.42,0,0,1-2.89-3.74A35.66,35.66,0,0,1,286.8,85.63Z"/><path class="cls-14" d="M259.15,114.42s-4.66-8.66-8.53-7.08-1,13.67,3.07,15.76a4.37,4.37,0,0,0,6.09-1.66Z"/><path class="cls-3" d="M251.52,110.79c-.06,0-.09.08,0,.11,2.85,1.56,4.1,4.51,4.87,7.52-.76-1.21-1.9-2-3.51-1.07-.08,0,0,.17.06.17a2.68,2.68,0,0,1,2.83,1.27,12.3,12.3,0,0,1,1.13,2.54c.11.28.61.2.55-.12a.24.24,0,0,1,0-.08C257.92,117.33,255.58,111.65,251.52,110.79Z"/><path class="cls-14" d="M236.58,161c7.2,26.36,43.91,76.58,59,79.86,17.51,3.8,63.86-16.88,74.59-26.48,4.27-3.83-21.31-31.42-26.83-28.76-23.13,11.18-42.23,15.18-45.52,13.38-5.06-2.76-26.84-26.38-41.1-42.34C238.82,136.6,233.35,149.19,236.58,161Z"/><path class="cls-14" d="M369.05,215.19c2.4-1.13,18.26-15.2,22.72-21.51A74.69,74.69,0,0,0,402.9,172c3.91-12.29,5.45-21.16,3.85-24.91-1.86-4.35-2.34-5-12.22,15.69-5.6,11.74-11.84,13.61-17.38,14.05a90.24,90.24,0,0,0-38.42,12S359.85,219.52,369.05,215.19Z"/><path class="cls-3" d="M414.32,141.64l-33.49,34.28a3.71,3.71,0,0,1-3.84.9l-20.25-9.23c-1.13-.51-1.25-1.75-.27-2.76L390,130.55a3.71,3.71,0,0,1,3.84-.9l20.25,9.23C415.19,139.39,415.31,140.63,414.32,141.64Z"/><path class="cls-7" d="M412.4,140.76,378.9,175a3.68,3.68,0,0,1-3.84.89l-20.25-9.22c-1.13-.52-1.25-1.75-.26-2.76L388,129.67a3.69,3.69,0,0,1,3.84-.9L412.13,138C413.26,138.51,413.38,139.75,412.4,140.76Z"/><path class="cls-5" d="M409.43,141.89l-30.71,31.44a3.43,3.43,0,0,1-3.53.9L357.07,166c-1-.46-1.08-1.62-.14-2.58L387.64,132c1.91-2,3.16-2,4.17-1.55l3.63,1.65c.21.09.18.38-.07.64l-.11.11c-.6.61-.22.79.25,1l8.39,3.83a1,1,0,0,0,1.45-.23l.11-.11a.89.89,0,0,1,.84-.3l3.63,1.66C411,139.13,411.19,140.1,409.43,141.89Z"/><path class="cls-5" d="M401.6,135.5l-2.29-1.05c-.08,0-.09-.12,0-.19h0a.27.27,0,0,1,.26-.06l2.29,1.05c.08,0,.08.12,0,.19h0A.29.29,0,0,1,401.6,135.5Z"/><polygon class="cls-4" points="388.14 158.95 372.75 151.94 385.92 138.46 401.31 145.47 388.14 158.95"/><polygon class="cls-9" points="379.57 158.25 370.58 154.16 371.36 153.36 380.34 157.46 379.57 158.25"/><polygon class="cls-9" points="379.95 160.3 369.31 155.46 369.7 155.06 380.34 159.91 379.95 160.3"/><polygon class="cls-9" points="379.24 161.03 368.61 156.18 368.99 155.79 379.63 160.63 379.24 161.03"/><polygon class="cls-9" points="378.53 161.75 367.9 156.91 368.28 156.51 378.92 161.36 378.53 161.75"/><polygon class="cls-9" points="391.85 135.23 389.93 134.36 390.25 134.03 392.17 134.91 391.85 135.23"/><polygon class="cls-9" points="391.26 135.83 389.34 134.96 389.66 134.63 391.58 135.5 391.26 135.83"/><polygon class="cls-9" points="390.68 136.43 388.76 135.56 389.08 135.23 391 136.1 390.68 136.43"/><path class="cls-4" d="M386,160.86a3.4,3.4,0,0,1-.89.18,1.06,1.06,0,0,1-.12-.64c0-.44.49-.85.86-.68s0,.54,0,.54.42-.34.72-.21S386.6,160.68,386,160.86Z"/><polygon class="cls-4" points="375.4 169.8 362.98 164.14 366.02 161.03 378.44 166.69 375.4 169.8"/><path class="cls-14" d="M379.9,176.5c-5.69.65,11.72-12.74,11.36-19.26s-6.48-3.86-11.11.3C364.08,172,351,172.61,343.37,185.63S379.9,176.5,379.9,176.5Z"/><path class="cls-3" d="M288.31,190.71c1.59,1.29,3.11,2.66,4.65,4a30,30,0,0,0,4.45,3.59c1.92,1.13,4.1,1,6.22.65,1.87-.27,3.73-.67,5.57-1.12a168.5,168.5,0,0,0,22.09-7.3,116.7,116.7,0,0,0,11.91-5.08l-.45.48a28.07,28.07,0,0,1,3.5-5,32.41,32.41,0,0,1,5.21-4.79,57.63,57.63,0,0,1,6.33-4.06c1.15-.64,2.3-1.27,3.47-1.87l1.75-.89c.51-.27,1.72-.67,2.05-1.12-.14.19-.39-.09-.22-.2l.09,0a.12.12,0,0,1,.18,0l.09.09a.11.11,0,0,1,0,.13c-.19.31-.59.45-.89.64l-1.63,1.09c-1,.66-2,1.33-3,2-2.28,1.47-4.57,3-6.75,4.58A53,53,0,0,0,347.6,181c-.84.82-1.61,1.71-2.42,2.57a20.68,20.68,0,0,0-2,2.72c-.06.08-7.07,3.51-10.71,5.15s-7.41,3.1-11.22,4.4-7.64,2.46-11.53,3.45a45.45,45.45,0,0,1-6,1.18c-1.79.22-3.8.46-5.48-.37s-3.16-2.63-4.58-4c-1.83-1.73-3.68-3.44-5.45-5.23C288.11,190.77,288.23,190.64,288.31,190.71Z"/><path class="cls-4" d="M288.7,189.72l-27.58,23.17s-20.84-28.73-25.58-50.31,6.38-23.87,24.83-3.48C278.42,179,288.7,189.72,288.7,189.72Z"/><path class="cls-3" d="M269.32,168.76c3.23,3.16,6.32,6.52,9.38,9.86,1.48,1.62,3,3.25,4.4,4.91l2.31,2.63A22.45,22.45,0,0,0,288,189c.18.15-.08.39-.2.22a41.89,41.89,0,0,0-4.73-4.88q-2.47-2.49-4.84-5.05c-3.11-3.36-6.21-6.81-9.05-10.4A.08.08,0,1,1,269.32,168.76Z"/><path class="cls-3" d="M241.31,182.57a23.5,23.5,0,0,0,2.69,3c.38.36.75.75,1.11,1.13-1.6-3-3.14-6.08-4.51-9.19a0,0,0,1,1,.09,0c3.57,6,6.83,12.1,10.4,18.05s6.89,12.36,10.78,18.25a.15.15,0,1,1-.25.16c-3.74-5.95-7.84-11.65-11.3-17.79-1.37-2.44-2.75-4.91-4.11-7.4a11.08,11.08,0,0,1-1.24-1.23,18.07,18.07,0,0,1-1.34-1.56c-.82-1.1-1.67-2.17-2.55-3.23C241,182.62,241.19,182.42,241.31,182.57Z"/><path class="cls-4" d="M296.05,192.77l-7.69-7.09-31.52,26.54,6.09,8.92Z"/><path class="cls-3" d="M260.69,208.71c3.91-3.6,8.11-6.9,12.19-10.3s8.43-6.54,12.39-10.08a.15.15,0,0,1,.2.23c-4,3.48-7.78,7.26-11.9,10.66A155.45,155.45,0,0,1,260.89,209C260.73,209.05,260.54,208.85,260.69,208.71Z"/><path class="cls-3" d="M268.38,216.47c-2,1.37-3.87,2.84-5.74,4.35l.64.08c-2-3-4-6-6.23-8.82l-.05.34c.75-.72,1.49-1.44,2.21-2.19-.87.57-1.7,1.18-2.54,1.8l-.17.12.12.22c1.85,3.1,3.85,6.09,5.95,9l.29.4.35-.32C265,219.86,266.72,218.22,268.38,216.47Z"/><polygon class="cls-7" points="453.01 231.26 832.83 231.26 832.83 112 453.01 112 453.01 112 453.01 231.26 453.01 231.26"/><polygon class="cls-7" points="832.83 275.23 832.83 231.21 786.99 231.21 832.83 275.23"/><rect class="cls-5" x="476.99" y="132.62" width="263.4" height="2.27"/><rect class="cls-5" x="476.99" y="144.86" width="208.73" height="2.27"/><rect class="cls-5" x="476.99" y="169.34" width="241.74" height="2.27"/><rect class="cls-5" x="476.99" y="181.58" width="263.4" height="2.27"/><rect class="cls-5" x="476.99" y="193.81" width="263.4" height="2.27"/><rect class="cls-5" x="476.99" y="206.05" width="190.45" height="2.27"/><path class="cls-5" d="M772.07,183.79a24.12,24.12,0,0,1,1.69-9.27q1.68-4.1,7-7.15,1.57-1,3.89-2.16a32,32,0,0,0,4.53-2.9,16.69,16.69,0,0,0,3.74-3.95,9.12,9.12,0,0,0,1.52-5.21,8.6,8.6,0,0,0-.84-3.89,8.88,8.88,0,0,0-2.21-2.84,9,9,0,0,0-3.21-1.74,12.32,12.32,0,0,0-3.74-.58,10.78,10.78,0,0,0-4.21.79,14.29,14.29,0,0,0-3.42,2,16.91,16.91,0,0,0-2.74,2.74,28.61,28.61,0,0,0-2,2.89l-9.16-6.32a20.54,20.54,0,0,1,3.63-5.79,22.45,22.45,0,0,1,5.16-4.26,24.27,24.27,0,0,1,6.26-2.63,26.82,26.82,0,0,1,6.95-.9,27.67,27.67,0,0,1,7.9,1.16,20.12,20.12,0,0,1,7,3.69,19.06,19.06,0,0,1,5,6.47,21.06,21.06,0,0,1,2,9.42,20.22,20.22,0,0,1-.79,5.95,16.83,16.83,0,0,1-2.26,4.69,20.46,20.46,0,0,1-3.48,3.79,38.88,38.88,0,0,1-4.53,3.26q-2.1,1.26-4.21,2.42a25.23,25.23,0,0,0-3.84,2.58,12.7,12.7,0,0,0-2.84,3.26,8.53,8.53,0,0,0-1.11,4.48Zm.21,24.53V193.79H784v14.53Z"/></svg>