<svg id="Слой_1" data-name="Слой 1" xmlns="http://www.w3.org/2000/svg" viewBox="0 0 191.48 191.48"><defs><style>.cls-1{fill:#306;}</style></defs><path class="cls-1" d="M23.32,96.46c0,38.9,31.88,70.45,71.19,70.45s71.18-31.55,71.18-70.45S133.83,26,94.51,26,23.32,57.54,23.32,96.46Zm37.94,0a33.25,33.25,0,1,1,33.25,32.89A33.08,33.08,0,0,1,61.26,96.46Z"/><polygon class="cls-1" points="80.82 28.93 108.2 28.93 106.68 9.75 82.33 9.75 80.82 28.93"/><polygon class="cls-1" points="132.93 38.06 152.28 57.22 164.92 42.6 147.7 25.56 132.93 38.06"/><polygon class="cls-1" points="163.25 80.98 163.25 108.07 182.63 106.57 182.63 82.47 163.25 80.98"/><polygon class="cls-1" points="154.03 132.54 134.67 151.7 149.44 164.2 166.66 147.16 154.03 132.54"/><polygon class="cls-1" points="110.66 162.55 83.28 162.55 84.8 181.73 109.15 181.73 110.66 162.55"/><polygon class="cls-1" points="58.55 153.42 39.2 134.27 26.57 148.88 43.78 165.92 58.55 153.42"/><polygon class="cls-1" points="28.23 110.5 28.23 83.41 8.85 84.91 8.85 109.01 28.23 110.5"/><polygon class="cls-1" points="37.45 58.94 56.81 39.78 42.04 27.28 24.82 44.32 37.45 58.94"/></svg>