<svg id="Слой_1" data-name="Слой 1" xmlns="http://www.w3.org/2000/svg" viewBox="0 0 43.6 43.6"><defs><style>.cls-1{fill:#306;}</style></defs><path class="cls-1" d="M42.73,26.21l.53-5.73-4.41-.75a16.67,16.67,0,0,0-2-6.1l3.13-3L36.23,6.19,32.59,8.73a16.85,16.85,0,0,0-5.82-3l.06-4.21L21,1l-.72,4.15a16.89,16.89,0,0,0-6.47,2L11.07,4.29,6.6,8l2.29,3.22a16.85,16.85,0,0,0-3.24,6.14L1.9,17.26,1.36,23l3.74.64a16.46,16.46,0,0,0,2.22,6.69L4.68,32.86l3.71,4.43,3.12-2.18a17.09,17.09,0,0,0,6.34,3.07l-.06,3.76,5.79.53.68-3.93a16.8,16.8,0,0,0,6.46-2.24l2.83,2.89L38,35.51,35.54,32a16.75,16.75,0,0,0,2.89-5.88ZM21.14,31.06a9.22,9.22,0,1,1,10.14-8.33A9.27,9.27,0,0,1,21.14,31.06Z"/></svg>