<svg id="Слой_1" data-name="Слой 1" xmlns="http://www.w3.org/2000/svg" viewBox="0 0 58.56 58.56"><defs><style>.cls-1{fill:#306;}</style></defs><path class="cls-1" d="M56.63,34.77l.72-7.67-5.9-1a22.32,22.32,0,0,0-2.75-8.18l4.2-4L47.93,8l-4.87,3.4a22.63,22.63,0,0,0-7.81-4l.09-5.63L27.58,1l-1,5.55A22.72,22.72,0,0,0,18,9.2L14.22,5.4l-6,4.92,3.07,4.31A22.32,22.32,0,0,0,7,22.86l-5-.08-.72,7.68,5,.85a22.12,22.12,0,0,0,3,9L5.66,43.68l5,5.93L14.8,46.7a22.68,22.68,0,0,0,8.5,4.13l-.08,5,7.76.72.91-5.25a22.78,22.78,0,0,0,8.67-3l3.77,3.85,6-4.93L47,42.58a22.31,22.31,0,0,0,3.88-7.89ZM27.7,41.27A12.36,12.36,0,1,1,41.29,30.12,12.4,12.4,0,0,1,27.7,41.27Z"/></svg>