<svg id="Слой_1" data-name="Слой 1" xmlns="http://www.w3.org/2000/svg" viewBox="0 0 58.56 58.56"><defs><style>.cls-1{fill:#306;}</style></defs><rect class="cls-1" x="18.65" y="51.47" width="1.25" height="0.63"/><rect class="cls-1" x="13.65" y="51.47" width="1.25" height="0.63"/><rect class="cls-1" x="36.15" y="51.47" width="1.25" height="0.63"/><rect class="cls-1" x="16.15" y="51.47" width="1.25" height="0.63"/><rect class="cls-1" x="46.16" y="51.47" width="1.25" height="0.63"/><rect class="cls-1" x="43.66" y="51.47" width="1.25" height="0.63"/><rect class="cls-1" x="23.65" y="51.47" width="1.25" height="0.63"/><rect class="cls-1" x="38.66" y="51.47" width="1.25" height="0.63"/><rect class="cls-1" x="33.65" y="51.47" width="1.25" height="0.63"/><rect class="cls-1" x="11.15" y="51.47" width="1.25" height="0.63"/><rect class="cls-1" x="41.16" y="51.47" width="1.25" height="0.63"/><rect class="cls-1" x="21.15" y="51.47" width="1.25" height="0.63"/><rect class="cls-1" x="6.46" y="46.16" width="0.63" height="1.25"/><rect class="cls-1" x="6.46" y="11.15" width="0.63" height="1.25"/><rect class="cls-1" x="6.46" y="18.65" width="0.63" height="1.25"/><rect class="cls-1" x="6.46" y="16.15" width="0.63" height="1.25"/><rect class="cls-1" x="6.46" y="33.65" width="0.63" height="1.25"/><polygon class="cls-1" points="6.46 32.4 7.09 32.4 7.09 32.4 9.89 32.4 9.89 26.16 7.09 26.16 7.09 26.15 6.46 26.15 6.46 26.16 3.66 26.16 3.66 32.4 6.46 32.4 6.46 32.4"/><rect class="cls-1" x="6.46" y="13.65" width="0.63" height="1.25"/><rect class="cls-1" x="6.46" y="36.15" width="0.63" height="1.25"/><rect class="cls-1" x="6.46" y="38.66" width="0.63" height="1.25"/><rect class="cls-1" x="6.46" y="23.65" width="0.63" height="1.25"/><rect class="cls-1" x="6.46" y="43.66" width="0.63" height="1.25"/><rect class="cls-1" x="6.46" y="41.16" width="0.63" height="1.25"/><rect class="cls-1" x="6.46" y="21.15" width="0.63" height="1.25"/><rect class="cls-1" x="43.66" y="6.46" width="1.25" height="0.63"/><rect class="cls-1" x="16.15" y="6.46" width="1.25" height="0.63"/><rect class="cls-1" x="33.65" y="6.46" width="1.25" height="0.63"/><rect class="cls-1" x="13.65" y="6.46" width="1.25" height="0.63"/><rect class="cls-1" x="11.15" y="6.46" width="1.25" height="0.63"/><rect class="cls-1" x="41.16" y="6.46" width="1.25" height="0.63"/><rect class="cls-1" x="46.16" y="6.46" width="1.25" height="0.63"/><rect class="cls-1" x="18.65" y="6.46" width="1.25" height="0.63"/><rect class="cls-1" x="36.15" y="6.46" width="1.25" height="0.63"/><rect class="cls-1" x="21.15" y="6.46" width="1.25" height="0.63"/><rect class="cls-1" x="23.65" y="6.46" width="1.25" height="0.63"/><rect class="cls-1" x="38.66" y="6.46" width="1.25" height="0.63"/><rect class="cls-1" x="51.47" y="46.16" width="0.63" height="1.25"/><rect class="cls-1" x="51.47" y="11.15" width="0.63" height="1.25"/><rect class="cls-1" x="51.47" y="43.66" width="0.63" height="1.25"/><rect class="cls-1" x="51.47" y="13.65" width="0.63" height="1.25"/><polygon class="cls-1" points="52.09 26.15 51.47 26.15 51.47 26.16 48.66 26.16 48.66 32.4 51.47 32.4 51.47 32.4 52.09 32.4 52.09 32.4 54.9 32.4 54.9 26.16 52.09 26.16 52.09 26.15"/><rect class="cls-1" x="51.47" y="21.15" width="0.63" height="1.25"/><rect class="cls-1" x="51.47" y="23.65" width="0.63" height="1.25"/><rect class="cls-1" x="51.47" y="18.65" width="0.63" height="1.25"/><rect class="cls-1" x="51.47" y="16.15" width="0.63" height="1.25"/><rect class="cls-1" x="51.47" y="36.15" width="0.63" height="1.25"/><rect class="cls-1" x="51.47" y="41.16" width="0.63" height="1.25"/><polygon class="cls-1" points="52.09 48.66 51.47 48.66 51.47 48.67 48.66 48.67 48.66 51.47 48.66 51.47 48.66 52.09 48.66 52.09 48.66 54.9 54.9 54.9 54.9 48.67 52.09 48.67 52.09 48.66"/><rect class="cls-1" x="51.47" y="33.65" width="0.63" height="1.25"/><rect class="cls-1" x="51.47" y="38.66" width="0.63" height="1.25"/><polygon class="cls-1" points="9.89 48.67 7.09 48.67 7.09 48.66 6.46 48.66 6.46 48.67 3.66 48.67 3.66 54.9 9.89 54.9 9.89 52.09 9.9 52.09 9.9 51.47 9.89 51.47 9.89 48.67"/><polygon class="cls-1" points="9.89 3.66 3.66 3.66 3.66 9.89 6.46 9.89 6.46 9.9 7.09 9.9 7.09 9.89 9.89 9.89 9.89 7.09 9.9 7.09 9.9 6.46 9.89 6.46 9.89 3.66"/><polygon class="cls-1" points="48.66 3.66 48.66 6.46 48.66 6.46 48.66 7.09 48.66 7.09 48.66 9.89 51.47 9.89 51.47 9.9 52.09 9.9 52.09 9.89 54.9 9.89 54.9 3.66 48.66 3.66"/><polygon class="cls-1" points="32.4 3.66 26.16 3.66 26.16 6.46 26.15 6.46 26.15 7.09 26.16 7.09 26.16 9.89 32.4 9.89 32.4 7.09 32.4 7.09 32.4 6.46 32.4 6.46 32.4 3.66"/><polygon class="cls-1" points="32.4 48.67 26.16 48.67 26.16 51.47 26.15 51.47 26.15 52.09 26.16 52.09 26.16 54.9 32.4 54.9 32.4 52.09 32.4 52.09 32.4 51.47 32.4 51.47 32.4 48.67"/></svg>