<svg id="Слой_1" data-name="Слой 1" xmlns="http://www.w3.org/2000/svg" viewBox="0 0 581.13 402.55"><defs><style>.cls-1{fill:#dcdcdc;}.cls-2{fill:#ffc800;}.cls-3{fill:#c8c8c8;}.cls-4{fill:#ececec;}.cls-5{fill:#306;}.cls-6{fill:#a8a8a8;}.cls-7{fill:#fff;}.cls-8{fill:#fb6a55;}.cls-9{opacity:0.1;}</style></defs><polygon class="cls-1" points="321.41 330.52 35.86 330.52 50.6 -27.74 336.17 -27.74 321.41 330.52"/><polygon class="cls-2" points="332.96 376.2 47.4 376.2 59.93 -27.74 345.5 -27.74 332.96 376.2"/><polygon class="cls-3" points="94.7 376.2 74.04 376.2 59.93 -27.74 80.58 -27.74 94.7 376.2"/><polygon class="cls-4" points="380.25 376.2 94.7 376.2 80.58 -27.74 366.15 -27.74 380.25 376.2"/><polygon class="cls-5" points="96.59 73.41 128.94 73.1 161.28 72.93 226 72.78 290.74 72.93 323.08 73.1 355.47 73.41 323.12 73.71 290.75 73.89 226.04 74.02 161.32 73.89 128.96 73.69 96.59 73.41"/><polygon class="cls-5" points="97.31 93.22 129.66 92.92 162.01 92.75 226.72 92.61 291.46 92.75 323.83 92.92 356.2 93.22 323.85 93.53 291.5 93.7 226.78 93.86 162.05 93.7 129.68 93.53 97.31 93.22"/><polygon class="cls-5" points="98.06 113.04 130.38 112.76 162.75 112.58 227.47 112.43 292.19 112.57 324.55 112.76 356.92 113.04 324.59 113.35 292.22 113.54 227.51 113.67 162.79 113.52 130.42 113.35 98.06 113.04"/><polygon class="cls-5" points="98.78 132.88 131.13 132.57 163.48 132.4 228.19 132.25 292.93 132.4 325.3 132.57 357.66 132.88 325.32 133.18 292.97 133.36 228.25 133.49 163.52 133.36 131.15 133.18 98.78 132.88"/><polygon class="cls-5" points="99.5 152.7 131.85 152.41 164.22 152.24 228.94 152.09 293.65 152.22 326.02 152.39 358.39 152.7 326.04 153 293.69 153.17 228.98 153.33 164.24 153.17 131.87 153 99.5 152.7"/><polygon class="cls-5" points="100.25 172.53 132.6 172.23 164.95 172.06 229.66 171.9 294.4 172.06 326.76 172.23 359.13 172.53 326.78 172.84 294.44 173.01 229.72 173.14 164.98 173.01 132.62 172.84 100.25 172.53"/><polygon class="cls-5" points="100.97 192.35 133.32 192.04 165.67 191.87 230.41 191.74 295.12 191.87 327.49 192.04 359.86 192.35 327.51 192.66 295.16 192.83 230.44 192.98 165.71 192.83 133.34 192.66 100.97 192.35"/><polygon class="cls-5" points="101.72 212.19 134.07 211.88 166.41 211.71 231.13 211.56 295.87 211.71 328.23 211.88 360.6 212.19 328.25 212.49 295.88 212.66 231.17 212.8 166.45 212.66 134.09 212.49 101.72 212.19"/><polygon class="cls-5" points="102.44 232 134.79 231.7 167.14 231.53 231.86 231.39 296.59 231.53 328.96 231.7 361.33 232 328.98 232.31 296.63 232.48 231.91 232.63 167.18 232.48 134.81 232.31 102.44 232"/><polygon class="cls-5" points="103.19 251.84 135.52 251.53 167.88 251.36 232.6 251.21 297.32 251.36 329.68 251.53 362.05 251.84 329.72 252.15 297.35 252.32 232.64 252.45 167.92 252.32 135.55 252.13 103.19 251.84"/><polygon class="cls-5" points="103.91 271.66 136.26 271.35 168.61 271.18 233.32 271.03 298.06 271.18 330.43 271.35 362.8 271.66 330.45 271.96 298.1 272.13 233.38 272.29 168.65 272.13 136.28 271.96 103.91 271.66"/><polygon class="cls-5" points="104.64 291.47 136.99 291.19 169.35 291 234.07 290.86 298.79 291 331.15 291.19 363.52 291.47 331.17 291.78 298.82 291.95 234.11 292.1 169.37 291.95 137.02 291.78 104.64 291.47"/><polygon class="cls-5" points="105.38 311.31 137.73 311.01 170.08 310.83 234.79 310.68 299.53 310.83 331.9 311.01 364.26 311.31 331.92 311.62 299.57 311.79 234.85 311.92 170.12 311.79 137.75 311.62 105.38 311.31"/><polygon class="cls-5" points="106.11 331.13 138.45 330.82 170.82 330.65 235.54 330.52 300.25 330.65 332.62 330.82 364.99 331.13 332.64 331.43 300.29 331.61 235.57 331.76 170.84 331.61 138.47 331.43 106.11 331.13"/><polygon class="cls-5" points="106.85 350.96 139.2 350.66 171.55 350.49 236.26 350.33 301 350.49 333.37 350.66 365.73 350.96 333.38 351.27 301.02 351.44 236.3 351.57 171.58 351.44 139.22 351.27 106.85 350.96"/><polygon class="cls-2" points="318.39 -27.74 319.84 22.77 321.48 73.27 324.78 174.27 328.54 275.24 330.41 325.73 332.51 376.2 331.08 325.69 329.42 275.2 326.12 174.21 322.36 73.24 320.49 22.75 318.39 -27.74"/><polygon class="cls-6" points="75.51 -27.74 76.54 8.63 77.7 45.01 80.09 117.75 82.8 190.48 84.15 226.84 85.66 263.19 84.65 226.82 83.47 190.44 81.08 117.72 78.37 44.99 77.02 8.62 75.51 -27.74"/><polygon class="cls-6" points="71.72 -27.74 73.11 19.52 74.67 66.79 77.8 161.32 81.27 255.83 83.03 303.09 84.91 350.33 83.5 303.07 81.94 255.81 78.81 161.28 75.34 66.77 73.6 19.52 71.72 -27.74"/><polygon class="cls-6" points="67.92 -27.74 69.12 13.84 70.47 55.42 73.22 138.56 76.29 221.7 77.84 263.26 79.53 304.83 78.31 263.26 76.96 221.69 74.23 138.53 71.16 55.4 69.62 13.82 67.92 -27.74"/><polygon class="cls-6" points="64.12 -27.74 65.21 10.79 66.47 49.3 68.99 126.34 71.85 203.35 73.28 241.86 74.88 280.37 73.78 241.84 72.52 203.34 70 126.3 67.14 49.28 65.71 10.77 64.12 -27.74"/><path class="cls-5" d="M169.39,64.33a112.77,112.77,0,0,0-13.62.82c-2.25.17-4.52.44-6.73.4a63.38,63.38,0,0,1-6.58-.88,84.22,84.22,0,0,0-13.62-1.5,35,35,0,0,0-6.85.68,19.33,19.33,0,0,0-6.41,2.35,21.37,21.37,0,0,1,6.51-1.79,36.93,36.93,0,0,1,6.73-.31A133.21,133.21,0,0,1,142.17,66a56.44,56.44,0,0,0,6.85.84,56.58,56.58,0,0,0,6.87-.63l6.75-1A64.31,64.31,0,0,1,169.39,64.33Z"/><path class="cls-5" d="M308.63,65.68A114.74,114.74,0,0,1,295,64.84c-2.25-.17-4.52-.43-6.73-.4a61.18,61.18,0,0,0-6.59,1,86.38,86.38,0,0,1-13.61,1.48,32.8,32.8,0,0,1-6.85-.66,19.6,19.6,0,0,1-6.41-2.37,21.38,21.38,0,0,0,6.5,1.79,37.09,37.09,0,0,0,6.74.31A133.63,133.63,0,0,0,281.41,64a54.33,54.33,0,0,1,6.85-.86,60.51,60.51,0,0,1,6.86.63l6.75,1C304.13,65.15,306.36,65.51,308.63,65.68Z"/><path class="cls-5" d="M311.58,86.78a105.06,105.06,0,0,1-10.79.53c-3.59,0-7.19.12-10.8,0a107.19,107.19,0,0,1-10.76-.47c-3.56-.48-7.17-.73-10.77-1s-7.23-.41-10.87-.36q-2.74,0-5.46.36c-1.91.27-3.57.67-5.34.92-3.55.53-7.13.92-10.72,1.24s-7.19.65-10.78,1a202.85,202.85,0,0,0,21.63-1.16c1.91-.19,3.63-.55,5.34-.78a50.32,50.32,0,0,1,5.34-.31c3.59,0,7.18.19,10.76.48s7.17.57,10.78.88a89.31,89.31,0,0,0,10.85.3c3.63,0,7.23-.23,10.84-.46,1.79-.13,3.6-.26,5.39-.43A40.26,40.26,0,0,0,311.58,86.78Z"/><path class="cls-5" d="M207,89c-7.25-.84-14.54-1.45-21.84-1.75a106.4,106.4,0,0,0-11,0c-1.91.09-3.7.38-5.47.57s-3.63.34-5.44.49c-7.25.65-14.55,1-21.82,1.3-1.91,0-3.64.13-5.45,0l-5.46-.29c-3.64-.15-7.28-.34-11-.45,3.63.42,7.27.74,10.91,1.1l5.46.5c1.91.13,3.68.11,5.51.11,7.31,0,14.61-.44,21.92-1,1.81-.17,3.64-.34,5.45-.57s3.62-.52,5.42-.61c3.6-.25,7.25-.21,10.89-.19s7.28.15,11,.28Z"/><path class="cls-5" d="M311.58,107.64a87.88,87.88,0,0,1-11-.91l-11-1.28c-1.91-.19-3.66-.4-5.55-.42s-3.81.12-5.57.25c-3.7.3-7.36.71-11,1.12s-7.31.94-11,1.45a87,87,0,0,1-10.93,1c-7.34.34-14.71.19-22.07,0A175.62,175.62,0,0,0,245.61,110a89.08,89.08,0,0,0,11.06-.86l10.95-1.41c3.66-.46,7.3-.9,11-1.22,1.9-.15,3.66-.3,5.45-.3s3.64.17,5.47.3l11,.9c1.91.13,3.66.24,5.51.32A35.22,35.22,0,0,0,311.58,107.64Z"/><path class="cls-5" d="M310.51,143.24q-6.22,1-12.53,1.66c-4.17.43-8.39.78-12.59.95a169.22,169.22,0,0,1-25.17-.59l-6.28-.77a54.44,54.44,0,0,0-6.39-.22c-4.23,0-8.47.28-12.66.64s-8.41.79-12.61,1.19-8.39.87-12.59,1.16c8.43,0,16.86-.86,25.27-1.32,4.2-.19,8.42-.45,12.59-.45a56.9,56.9,0,0,1,6.26.28l6.27.82a156.88,156.88,0,0,0,25.37.29A165.24,165.24,0,0,0,310.51,143.24Z"/><path class="cls-5" d="M188.65,148.29c-5.41-.88-10.85-1.53-16.32-2a94.75,94.75,0,0,0-16.5-.42c-5.49.44-10.93,1.32-16.33,1.91-2.67.19-5.45.15-8.18.24s-5.47.2-8.2.35c5.49.25,10.91.48,16.46.44,2.76-.12,5.47-.52,8.2-.8s5.44-.58,8.14-.77a106,106,0,0,1,16.33.12Z"/><path class="cls-5" d="M311.58,163.74c-13,.36-25.75-2.38-38.87-1.91-6.48.57-12.89,1.53-19.32,2.37l-4.81.63-2.4.26h-2.37c-3.2,0-6.44-.3-9.67-.53-6.46-.44-12.91-1-19.43-1.24-3.28-.11-6.52.1-9.77.29s-6.48.49-9.71.8-6.44.68-9.67.87c-1.58.14-3.18,0-4.82,0h-4.86c-6.49,0-13,.21-19.46.42l19.46.25h9.74c3.24-.13,6.49-.44,9.71-.68,6.45-.46,12.93-1.07,19.34-.9s12.91.9,19.38,1.35c3.24.21,6.47.44,9.75.48a20.69,20.69,0,0,0,2.49,0l2.45-.29,4.82-.64c6.41-.9,12.84-1.91,19.25-2.56a56.16,56.16,0,0,1,9.53,0l9.71.57c3.24.19,6.49.36,9.73.5A60.5,60.5,0,0,0,311.58,163.74Z"/><path class="cls-5" d="M233.34,204.21a93.33,93.33,0,0,1-12.28-.57l-12.26-1.18a105.6,105.6,0,0,0-24.68.86,40.86,40.86,0,0,1-6.05.36c-2,0-4.08-.17-6.14-.27-4.1-.21-8.2-.46-12.32-.53h-6.18a43.92,43.92,0,0,0-6.18.38c-4.07.63-8.15,1-12.25,1.35,4.12,0,8.22-.3,12.32-.7a43,43,0,0,1,6.11-.17c2,0,4.1.13,6.14.23l12.3.72c2,.11,4.08.25,6.16.34a42,42,0,0,0,6.24-.32c4.1-.53,8.12-1.09,12.2-1.28a108.83,108.83,0,0,1,12.25,0C216.85,203.93,225.14,205,233.34,204.21Z"/><path class="cls-5" d="M356.85,150.25c8.2-8,18.77-17.71,31.28-14.27,11.68,3.27,16.32,16.14,18.42,26.85,2.71,13.8,4.81,27.75,7,41.64s4.29,28.07,6.3,42.13q1.72,11.91,3.39,23.84c.55,4,1.11,7.94,1.63,11.91s1.2,7.79,1.43,11.67a1.12,1.12,0,0,1-2.19.24c-1.51-6.6-2.13-13.49-3.12-20.23s-1.95-13.51-2.92-20.28q-2.91-20.13-6-40.27t-6.24-40.24c-1.84-11.35-2.69-25.47-12.76-33a19.5,19.5,0,0,0-18.85-1.78,56.85,56.85,0,0,0-17.13,12C356.94,150.66,356.71,150.39,356.85,150.25Z"/><path class="cls-5" d="M368.06,142.05s16.75-6,25,6.18-1.64,43.31-77.83,60.82a214.72,214.72,0,0,1,18.33-68.9C349.91,104.52,379,118,368.06,142.05Z"/><path class="cls-7" d="M319.62,204a58.84,58.84,0,0,1,3.82-6.19c1.28-1.95,2.57-3.91,3.88-5.83,1-1.46,2-2.92,2.92-4.35a2.92,2.92,0,0,0-.15-1.11l-.26-2c-.17-1.43-.41-2.92-.61-4.29s-.44-2.92-.7-4.26a24.65,24.65,0,0,0-1-4.5c0-.2.32-.32.35,0a14.28,14.28,0,0,0,.67,2.51l.52,1.93,1,4.37c.3,1.35.56,2.69.79,4a16,16,0,0,0,.29,2c1.35-1.93,2.75-3.86,4.18-5.84,4-5.31,8.31-10.45,12.75-15.47h0a138.77,138.77,0,0,0-2-23.81c0-.23.27-.35.32,0a81,81,0,0,1,2.92,22.76l4.82-5.28c3.73-4,7.5-7.91,11.38-11.67.14,0,.38,0,.23.23-6.42,6.92-12.52,14.13-18.44,21.45a129.45,129.45,0,0,1,13.92.53c5.16.38,10.3,1.05,15.43,1.75.21,0,.15.38,0,.32a142.37,142.37,0,0,0-15.43-1.37c-5-.21-9.89,0-14.88,0-3.21,4-6.37,8-9.52,12.05h4.23c2.31,0,4.64.2,6.95.41a107.39,107.39,0,0,1,14.06,2.1c.21,0,0,.38,0,.35-4.69-.53-9.39-1-14.09-1.14H337.8a4.36,4.36,0,0,1-1.93-.2c-2,2.68-4.11,5.34-6.13,8-1.63,2.13-3.21,4.26-4.78,6.42s-3.07,4.64-4.85,6.71C319.76,204.32,319.53,204.15,319.62,204Z"/><path class="cls-7" d="M360.76,159.35a51.88,51.88,0,0,1,8.17-.38c2.72,0,5.43,0,8.14.18a.17.17,0,0,1,.23.09.17.17,0,0,1-.23.23c-2.91-.18-5.51-.23-8.28-.2s-5.34.29-8,.23Z"/><path class="cls-7" d="M336.8,165.51c-.32-2.6-.64-5.22-1.19-7.79a.17.17,0,1,1,.32,0c.38,2.57.9,5.11,1.28,7.67.18,1.29.35,2.57.5,3.86a16.84,16.84,0,0,1,.32,3.61.23.23,0,0,1-.3.14.24.24,0,0,1-.14-.14,21.93,21.93,0,0,1-.41-3.61A28.54,28.54,0,0,0,336.8,165.51Z"/><path class="cls-7" d="M341.85,136.68c.67,2.51,1.35,5.08,1.81,7.67.24,1.29.44,2.6.62,3.94a16.12,16.12,0,0,1,.26,3.86m-.21,0a23,23,0,0,1-.61-3.68c-.17-1.26-.35-2.51-.58-3.8-.47-2.65-.94-5.28-1.61-7.9a.19.19,0,0,1,.05-.25.18.18,0,0,1,.24,0,.12.12,0,0,1,0,.11Z"/><path class="cls-5" d="M441.1,291.25q.64-7.22,1.4-14.39c1-9.51,2.16-19,3.44-28.42s2.48-18.91,4-28.3a71.48,71.48,0,0,1,2.92-12.84,12.22,12.22,0,0,1,7.12-8c9-3.09,15,6.22,18.64,12.78a.17.17,0,0,1-.11.22.17.17,0,0,1-.18,0c-2.19-3.12-8.17-11.88-15-11.47-4.58.29-8.26,3.53-10.44,14.94-5.46,28.42-10.42,86.14-11,89.91-.32,2-1.72,1.92-1.75-.24C440.13,300.68,440.69,296,441.1,291.25Z"/><path class="cls-5" d="M476.17,208.52s-7.85-27.69,9.49-13.83c28.86,23,29.88,73.13,29.88,73.13s-51.27-29.77-57.66-49.41C448.39,189.15,476.17,208.52,476.17,208.52Z"/><path class="cls-7" d="M466.46,222.15c4,.82,8.11,1.37,12.16,1.95l5.84.82,3.94.44c-3.82-5.25-7.68-10.48-11.35-15.85,0-.23.17-.43.35-.26a120.91,120.91,0,0,1,8.52,10c.73-2.16,1.52-4.29,2.25-6.42s1.81-5,2.45-7.5a.17.17,0,1,1,.32,0c-.7,2.54-1.2,5.14-1.87,7.68s-1.4,4.87-2.28,7.26c1.9,2.45,3.68,4.93,5.43,7.47.91-2.51,2-4.93,2.92-7.47a.17.17,0,0,1,.23-.09.2.2,0,0,1,.09.09c-.93,2.92-1.43,5.84-2.28,8.58,1.17,1.69,2.34,3.42,3.48,5.17q3.1,4.81,5.83,9.74a.76.76,0,0,1,.47.76c3.24,5.6,6.3,11.3,9.34,17,0,.18-.18.35-.29.15a193.21,193.21,0,0,0-9.95-16.6h0a7.52,7.52,0,0,0-1.7-.33l-1.75-.37c-1.34-.3-2.65-.65-4-1-2.59-.64-5.16-1.25-7.82-1.72-.2,0,0-.35,0-.32,3.1.58,6.22.93,9.34,1.31,1.49.18,2.92.35,4.44.59h.2q-2.74-4.2-5.6-8.32c-1.87-2.71-3.77-5.37-5.69-8-1.78-.27-3.53-.73-5.31-1.08l-5.84-1.14c-4-.79-7.91-1.69-11.9-2.34C466.16,222.38,466.25,222.15,466.46,222.15Z"/><path class="cls-7" d="M497.3,224.83c.26-.73.47-1.45.7-2.21a37.06,37.06,0,0,0,1.17-4.64c0-.21.38,0,.35,0-.35,1.54-.7,3.12-1.08,4.67a31,31,0,0,1-1.32,4.61.32.32,0,0,1-.42.17.34.34,0,0,1-.19-.35C496.72,226.38,497,225.62,497.3,224.83Z"/><path class="cls-7" d="M461.23,215.7c2.34.35,4.7.53,7,.73s4.7.53,7.07.88v.2c-2.37-.18-4.73-.35-7.07-.64s-4.69-.67-7.06-.82C461,216,461,215.67,461.23,215.7Z"/><path class="cls-5" d="M403.37,256.2c.93-20.42,2.21-40.7,4.26-61,1-10.1,2.16-20.2,3.59-30.26a216.18,216.18,0,0,1,5.83-29.18,56.31,56.31,0,0,1,9.75-20.66,22.13,22.13,0,0,1,19.7-8.58c8.92,1.08,16.1,6.71,22.32,12.81,7,6.85,13.33,14.32,19.78,21.65,1.64,1.87,3.27,3.7,4.88,5.6.14.15,0,.41-.27.23-6.3-7.26-12.84-14.29-19.72-21-6.33-6.22-12.87-13-21.63-15.59a22.42,22.42,0,0,0-12.6-.29,20,20,0,0,0-8.58,5.43A44.86,44.86,0,0,0,421,134.17c-5.48,18.73-7.44,38.37-9.48,57.72S408,231.22,407,251s-1.75,39.69-3.67,59.47c-.24,2.45-.56,4.87-.85,7.3-.2,1.63-2.74,1.63-2.63,0C401.53,297.14,402.46,276.69,403.37,256.2Z"/><path class="cls-5" d="M469.93,121.42S458.26,99.88,472.06,93s59.76,44.47,73.21,119.64c0,0-74.32-32.86-99.56-65.63S449.06,106.91,469.93,121.42Z"/><path class="cls-7" d="M459,138.93c8.35,0,16.7-.65,25-.59l-4.7-5.37a76,76,0,0,1-6.53-7.58.22.22,0,0,1,0-.3.21.21,0,0,1,.29,0,59.21,59.21,0,0,1,6.33,6.34l6.25,6.71c3.18,3.44,6.3,7,9.42,10.47V134.87c0-5.84,0-11.53-.47-17.25,0-.23.35-.2.35,0,.41,5.84,1,11.5,1.29,17.28.14,2.92.2,5.66.23,8.49v6.86l1.49,1.63c6.65,7.62,13,15.5,19.17,23.52a10,10,0,0,1,0-1.34,22.51,22.51,0,0,1,.29-2.66c.21-1.89.47-3.82.76-5.83s.56-3.59.85-5.37.82-4.06,1-6.07c0-.26.38-.21.32,0-.33,2-.57,4.05-.7,6.1-.17,1.84-.35,3.67-.5,5.51l-.52,5.52-.26,2.65-.18,1.35a2.12,2.12,0,0,1-.35,1.05c1,1.37,2.13,2.74,3.18,4.14,4.2,5.57,8.35,11.21,12.49,16.84,0,.17,0,.44-.26.26-3.91-5.14-7.94-10.15-12-15.12-2.92,0-6.19,0-9.25-.14s-6.42,0-9.66,0c-.24,0-.21-.35,0-.32H512c2.91,0,5.83-.15,8.75,0-3.59-4.35-7.24-8.76-10.86-13l-3.88-4.67a19.37,19.37,0,0,1-3.73,0H489.68c-5.66,0-11.35-.29-17-.29a.17.17,0,0,1-.17-.17.18.18,0,0,1,.17-.18c5.69,0,11.35-.32,17-.46l8.23-.18h4.41c.84,0,1.69,0,2.54,0l-9.37-11.12a.7.7,0,0,1-.18-.2q-4.54-5.37-9.16-10.74l-1.28-1.46c-8.76.26-17.31-.29-25.94,0a.27.27,0,0,1-.25-.31.26.26,0,0,1,.3-.24Z"/><path class="cls-7" d="M463.27,153.69h2.05c.17,0,.17.29,0,.29h-2C463,154,463.07,153.69,463.27,153.69Z"/><path class="cls-7" d="M467.77,153.72c2.68,0,5.37,0,8-.17h4a14.63,14.63,0,0,1,3.74,0v.26a14.67,14.67,0,0,1-3.74.26H467.77C467.53,154.07,467.56,153.72,467.77,153.72Z"/><path class="cls-7" d="M491.14,178.79a110.35,110.35,0,0,1,16.43-1.46h0c-5.46.49-10.91.82-16.34,1.69C491,179.17,490.94,178.82,491.14,178.79Z"/><path class="cls-5" d="M404.13,93.75c2.65-5,6-11.49,12.66-11.08,5.49.35,8,5.83,9.13,10.56,3.62,14.3,3.88,29.38,4.58,44.06,1.49,31,2.92,62,2.92,93v25.8c0,8.61,0,17.51-.61,26.26a.68.68,0,0,1-.8.52.66.66,0,0,1-.51-.52c0-7.5.23-15,.26-22.5s0-14.59-.15-21.94q-.35-22.24-1.19-44.47c-.53-14.59-1.2-29.45-1.81-44.18-.32-7.36-.62-14.59-1-22.06s-.61-14.27-1.43-21.36c-.46-4-1-7.94-1.86-11.85a16.89,16.89,0,0,0-3.45-8,7.5,7.5,0,0,0-9.68-.7,20.7,20.7,0,0,0-6.86,8.58.17.17,0,0,1-.16.19.18.18,0,0,1-.19-.15A.18.18,0,0,1,404.13,93.75Z"/><path class="cls-5" d="M405.91,91.39s5.45-19.29-6.6-9.63c-20.11,16-20.81,51-20.81,51S414.22,112,418.66,98.28C425.25,77.88,405.91,91.39,405.91,91.39Z"/><path class="cls-7" d="M386,118.38c.32-.52.67-1,1-1.57a9,9,0,0,1,0-1.64v-2.51l-.18-4.87a.16.16,0,1,1,.32,0c0,1.61.15,3.21.21,4.82V116c1.4-2.19,2.91-4.32,4.34-6.45.41-.61.88-1.23,1.32-1.81a39,39,0,0,0,0-6.3c0-2.25,0-4.5-.15-6.71a.18.18,0,0,1,.18-.18.18.18,0,0,1,.17.18c0,2.33.18,4.67.29,7a46.21,46.21,0,0,1,.15,5c3.44-4.67,7.09-9.19,10.8-13.71,0-.15.4,0,.26.23-2.28,2.92-4.5,5.84-6.63,8.9,4.21-1,8.47-1.55,12.73-2.19.23,0,.32.32,0,.35-4.53.67-9,1.81-13.43,2.92h0l-5.07,7.26-2,2.92h.18l1.4-.2,2.92-.26c2-.18,4.11-.3,6.18-.38a.16.16,0,0,1,0,.32,52.25,52.25,0,0,0-6.07.44l-3.18.37-1.4.18h-.41l-3.44,5c-2,2.92-3.79,6.18-5.84,9-.14.18-.38,0-.29-.14A98.58,98.58,0,0,1,386,118.38Z"/><path class="cls-7" d="M394.9,96.67V94.43a32.48,32.48,0,0,0-.17-4.73.18.18,0,0,1,.35,0h0a31.83,31.83,0,0,0,.23,4.67v3.41a2.74,2.74,0,0,1,0,1.14.15.15,0,0,1-.14.15.15.15,0,0,1-.15-.15,3.08,3.08,0,0,1,0-1Z"/><path class="cls-7" d="M399.31,104.61a36.19,36.19,0,0,1,4-.41c1.49-.14,2.92-.26,4.4-.47a.18.18,0,0,1,.18.18.18.18,0,0,1-.17.17h0c-2.91.18-5.63.68-8.46.79Z"/><path class="cls-7" d="M388.1,104.73v4a2.57,2.57,0,0,1,0,1.17m-.14,0a1,1,0,0,1,0-.55v-4a2.42,2.42,0,0,0,0-.76c-.38-.26.38-.26.14.06Z"/><path class="cls-5" d="M403.28,196.62c7.5-5.64,14.27-13.75,24.36-14.13,8.35-.35,14.19,5.84,17.51,12.93A69,69,0,0,1,449.24,207q2.28,7.88,4.26,15.9c2.63,10.45,4.87,21,6.68,31.66,1,5.84,2,11.91,2.72,17.86a149.69,149.69,0,0,1,1.75,18.3.94.94,0,0,1-1,.9.92.92,0,0,1-.88-.7c-1-5-1.46-10.15-2.19-15.2s-1.52-10.16-2.36-15.21q-2.58-15.16-6-30.2c-2.16-9.45-4.29-19-7.32-28.25-2.19-6.59-5.69-14.29-12.81-16.66-10.86-3.62-20.69,5.58-28.63,11.68C403.34,197,403.1,196.76,403.28,196.62Z"/><path class="cls-5" d="M411,191.22S418,171.46,408,167.58c-15-5.83-54.31,38.43-46.69,106.22a386.65,386.65,0,0,0,52.76-35.54c22.41-18.79,28.13-43.37,18.26-49.61S411,191.22,411,191.22Z"/><path class="cls-7" d="M366,259.27a51.35,51.35,0,0,1,3.64-6.83c1.29-2.34,2.6-4.64,3.91-6.92,2.63-4.46,5.23-9,7.88-13.36l1.32-2.16a1.49,1.49,0,0,0-.15-.79l-.47-2c-.32-1.46-.58-2.92-.84-4.44-.56-2.92-1-5.84-1.84-8.75,0-.21.29-.27.35,0,.61,2.91,1.52,5.83,2.36,8.75.44,1.37.88,2.77,1.26,4.17l.38,1.46c3.24-5.28,6.5-10.53,10-15.64a7.51,7.51,0,0,1-.35-2.16,23.08,23.08,0,0,0-.32-2.92c-.29-2.24-.52-4.46-.87-6.68a129.85,129.85,0,0,0-2.37-13c0-.21.3-.27.35,0,1.08,4.26,2.25,8.52,3.07,12.87.38,2.1.76,4.23,1.05,6.39.14,1.08.26,2.13.35,3.21a2.29,2.29,0,0,0,.14,1c1.08-1.52,2.16-2.92,3.3-4.55,3.47-4.56,7.06-9,10.71-13.46,0-.17.41,0,.26.21a240.68,240.68,0,0,0-17.07,24.92c-1,1.57-1.95,3.18-2.91,4.78h1c1.25-.17,2.54-.23,3.82-.35,2.54-.26,5.11-.46,7.65-.67,5.13-.41,10.24-.73,15.34-1.28.24,0,.3.32,0,.35-5.16.58-10.3,1.43-15.46,2.16l-7.59,1a29.26,29.26,0,0,1-5.83.58q-3,4.9-6,9.81a10.14,10.14,0,0,1,1.35,0h17.18c.24,0,.18.35,0,.35-3.32,0-6.65.2-10,.38l-4.73.29-2.37.15a5.3,5.3,0,0,1-2.1,0l-5.1,8.31c-1.58,2.57-3.18,5.11-4.79,7.65a63.39,63.39,0,0,1-5.16,7.73C366,259.59,365.81,259.47,366,259.27Z"/><path class="cls-7" d="M380.37,204.47a49.24,49.24,0,0,0,1.34,6.45c.56,2.21,1.2,4.37,1.93,6.53a.21.21,0,0,1-.2.21.21.21,0,0,1-.21-.21h0c-.67-2.13-1.28-4.29-1.81-6.45s-.87-4.4-1.4-6.59C380,204.32,380.34,204.26,380.37,204.47Z"/><path class="cls-7" d="M402.67,217.71a2.49,2.49,0,0,1,1.63-.61l2.92-.38c1.75-.26,3.53-.44,5.31-.67,3.71-.41,7.41-.79,11.12-1.25a.18.18,0,0,1,0,.35c-3.5.4-7,1-10.45,1.4l-5.14.67-2.45.26a9.31,9.31,0,0,0-2.91.5C402.67,218.06,402.55,217.83,402.67,217.71Z"/><path class="cls-7" d="M380.4,247.54c1.75,0,3.53-.21,5.25-.27h3.94a7.77,7.77,0,0,0,1.67,0c.23,0,.26.38,0,.35a8,8,0,0,0-1.55,0h-1.37l-2.66.15c-1.75,0-3.5.2-5.25.23C380.23,247.92,380.2,247.54,380.4,247.54Z"/><path class="cls-7" d="M369.72,240c-.2-1-.41-2-.58-2.92-.35-1.95-.7-3.91-1.08-5.83a.17.17,0,0,1,.17-.18.18.18,0,0,1,.18.17h0c.44,1.89.84,3.79,1.28,5.69.21,1,.44,1.92.61,2.91a7.27,7.27,0,0,0,.3,1.35,4.11,4.11,0,0,1,0,1.4c0,.14-.27.29-.38,0A7.46,7.46,0,0,1,369.72,240Z"/><polygon class="cls-5" points="373.75 298.37 375.44 326.38 380.43 409.11 482.71 409.11 487.7 326.38 489.36 298.37 373.75 298.37"/><polygon class="cls-5" points="373.75 298.37 375.44 326.38 487.7 326.38 489.36 298.37 373.75 298.37"/><rect class="cls-5" x="365.93" y="278.53" width="131.28" height="28.04"/><path class="cls-8" d="M85.51,412.25s-37.24,5-38.59-20.7S83.16,367,83.16,367Z"/><rect class="cls-2" x="82.63" y="360.03" width="264.09" height="45.3" transform="translate(-19.99 11.92) rotate(-3.04)"/><rect class="cls-5" x="81.38" y="363.02" width="10.49" height="52.91" transform="translate(-20.53 5.14) rotate(-3.04)"/><rect class="cls-5" x="92.98" y="362.42" width="10.49" height="52.91" transform="translate(-20.49 5.76) rotate(-3.04)"/><path class="cls-5" d="M345.32,353.06l33.46,15.26,11,5-10.45,6.24L347.73,398.3l-6.81-4.21s6.23-4.73,6.33-4.85L340.42,385s6.24-4.73,6.33-4.84l-6.8-4.12s6.23-4.83,6.33-4.93L339.47,367s6.24-4.83,6.33-4.93l-6.88-4.1S345.23,353.16,345.32,353.06Z"/><polygon class="cls-2" points="378.78 368.36 389.82 373.36 379.37 379.59 378.78 368.36"/><g class="cls-9"><path d="M329.78,366.39c-69.94,5-147.78,9.08-217.92,11.56C181.88,373,259.68,368.84,329.78,366.39Z"/></g><path class="cls-5" d="M168.07,13.23a42.63,42.63,0,1,0,43.09-42.17h-.48A42.4,42.4,0,0,0,168.07,13.23Zm22.7,0A19.92,19.92,0,1,1,210.86,33h-.18a19.81,19.81,0,0,1-19.91-19.72Z"/><polygon class="cls-5" points="251.84 3.96 251.84 20.19 263.46 19.3 263.46 4.86 251.84 3.96"/><polygon class="cls-5" points="246.33 34.84 234.74 46.3 243.59 53.8 253.89 43.6 246.33 34.84"/><polygon class="cls-5" points="220.35 52.81 203.97 52.81 204.87 64.29 219.46 64.29 220.35 52.81"/><polygon class="cls-5" points="189.17 47.33 177.57 35.87 170 44.63 180.32 54.83 189.17 47.33"/><polygon class="cls-5" points="171.01 21.64 171.01 5.43 159.41 6.33 159.41 20.75 171.01 21.64"/><path class="cls-5" d="M320.36,220.58a37.21,37.21,0,0,1-7.77,2.55,13.57,13.57,0,0,1-4,.29,40.21,40.21,0,0,1-4-.65c-5.35-1-10.7-2.25-16.07-3.3a73.25,73.25,0,0,0-8.19-1.24,28.32,28.32,0,0,0-8.31.69,77.69,77.69,0,0,0-7.92,2.4,7.66,7.66,0,0,1-1.91.42,15.06,15.06,0,0,1-1.9,0c-1.36,0-2.71-.17-4.07-.27l-8.18-.7a41.41,41.41,0,0,0-8.33,0c-5.55,1-10.55,3.28-15.85,4.35a20.59,20.59,0,0,1-4,.46,31.57,31.57,0,0,1-4-.44L207.69,224c-2.73-.38-5.44-.74-8.14-1.06a62.63,62.63,0,0,0-8.21-.63,77.08,77.08,0,0,1,8.15,1c2.71.42,5.4.86,8.1,1.33l8.09,1.36a30.44,30.44,0,0,0,4.14.53,21.72,21.72,0,0,0,4.18-.36,69,69,0,0,0,8-2.1,55.75,55.75,0,0,1,7.84-2,40.3,40.3,0,0,1,8.07.12l8.16.76c1.37.11,2.75.23,4.14.25a18.74,18.74,0,0,0,2.12,0,8.16,8.16,0,0,0,2.13-.5,76.06,76.06,0,0,1,7.78-2.42,27.48,27.48,0,0,1,8-.73c2.67.21,5.38.67,8.07,1.11,5.37.91,10.73,2,16.15,2.94,1.35.19,2.71.4,4.1.49a14.81,14.81,0,0,0,4.14-.44A34.87,34.87,0,0,0,320.36,220.58Z"/></svg>