<svg id="Слой_1" data-name="Слой 1" xmlns="http://www.w3.org/2000/svg" xmlns:xlink="http://www.w3.org/1999/xlink" viewBox="0 0 923 1000"><defs><style>.cls-1{fill:none;}.cls-2{clip-path:url(#clip-path);}.cls-3{fill:#4a148c;}.cls-4{fill:#fff;}.cls-5{fill:#dcdcdc;}.cls-6{fill:#306;}.cls-7{fill:#ffc800;}.cls-8{opacity:0.1;}.cls-9{fill:#e55f4e;}.cls-10{fill:#ececec;}.cls-11{fill:#c8c8c8;}.cls-12{fill:#a8a8a8;}.cls-13{fill:#ff9bbe;}</style><clipPath id="clip-path"><rect class="cls-1" x="-33.5" y="-186.77" width="1217" height="1328.54"/></clipPath></defs><g class="cls-2"><path class="cls-3" d="M300.57,939.49a9.84,9.84,0,0,1,.07-10.3q.78-1.29,1.5-2.64c.49-.9.95-1.82,1.38-2.73a9.81,9.81,0,0,1,8.51-5.74l12.67-.39-1.28-41.26-12.66.39a9.82,9.82,0,0,1-8.9-5.18,57.43,57.43,0,0,0-3.23-5.23,9.8,9.8,0,0,1-.66-10.25l6-11.14-36.39-19.51-6,11.14a9.8,9.8,0,0,1-8.9,5.12,59.88,59.88,0,0,0-6.14.2,9.83,9.83,0,0,1-9.24-4.54l-6.68-10.77-35.08,21.76,6.71,10.82a9.8,9.8,0,0,1-.08,10.25q-.78,1.29-1.5,2.64c-.48.9-.94,1.8-1.37,2.72a9.82,9.82,0,0,1-8.54,5.75l-12.68.38,1.28,41.26,12.64-.4a9.81,9.81,0,0,1,8.9,5.17,57.11,57.11,0,0,0,3.25,5.25,9.8,9.8,0,0,1,.66,10.25l-6,11.13,36.39,19.52,6-11.14a9.81,9.81,0,0,1,8.9-5.12,57.56,57.56,0,0,0,6.17-.19,9.81,9.81,0,0,1,9.24,4.55L272.16,972l35.08-21.75Zm-65.15-10.34a33.81,33.81,0,1,1,45.77-13.84A33.84,33.84,0,0,1,235.42,929.15Z"/><path class="cls-3" d="M337.05,815.15a6.89,6.89,0,0,1,6.38-3.37q1.06.06,2.13.06c.72,0,1.43,0,2.14-.06a6.86,6.86,0,0,1,6.36,3.36l4.44,7.69,25.05-14.46-4.44-7.68a6.86,6.86,0,0,1,.26-7.21,43.05,43.05,0,0,0,2.16-3.73,6.86,6.86,0,0,1,6.1-3.8h8.86V757h-8.86a6.86,6.86,0,0,1-6.1-3.8,43.05,43.05,0,0,0-2.16-3.73,6.86,6.86,0,0,1-.26-7.21l4.44-7.68L358.5,720.16,354,727.88a6.85,6.85,0,0,1-6.35,3.34c-.71,0-1.42-.05-2.13-.05s-1.42,0-2.13.05a6.88,6.88,0,0,1-6.38-3.36l-4.43-7.7-25.05,14.45,4.43,7.66a6.89,6.89,0,0,1-.24,7.21,41,41,0,0,0-2.17,3.75,6.86,6.86,0,0,1-6.11,3.8h-8.85V786h8.85a6.85,6.85,0,0,1,6.11,3.81,39.57,39.57,0,0,0,2.17,3.74,6.89,6.89,0,0,1,.24,7.21l-4.43,7.66,25.05,14.46ZM321.86,771.5a23.69,23.69,0,1,1,23.7,23.68A23.71,23.71,0,0,1,321.86,771.5Z"/><rect class="cls-4" x="396.19" y="251.46" width="920.18" height="139.47" transform="translate(1712.55 642.38) rotate(-180)"/><path class="cls-5" d="M394.63,249.9h923.29V392.49H394.63ZM1314.81,253H397.75V389.37h917.06Z"/><path class="cls-3" d="M861.6,289.25a76.25,76.25,0,0,0-3.67,16,127.89,127.89,0,0,0-1,16,125.77,125.77,0,0,0,1,16,74.91,74.91,0,0,0,3.68,16,74.88,74.88,0,0,0,3.67-16,122.18,122.18,0,0,0,1-16,124.19,124.19,0,0,0-1-16A76.22,76.22,0,0,0,861.6,289.25Z"/><path class="cls-3" d="M829.66,321.19a76,76,0,0,0,16,3.67,127.65,127.65,0,0,0,16,1,126,126,0,0,0,16-1,75,75,0,0,0,16-3.68,75,75,0,0,0-16-3.67,122.4,122.4,0,0,0-16-1,124,124,0,0,0-16,1A75.93,75.93,0,0,0,829.66,321.19Z"/><path class="cls-3" d="M839,298.61a76.55,76.55,0,0,0,8.7,13.88,126.17,126.17,0,0,0,10.58,12,122.16,122.16,0,0,0,12,10.58,74.88,74.88,0,0,0,13.89,8.7,75.79,75.79,0,0,0-8.69-13.9,128.34,128.34,0,0,0-22.59-22.57A75.75,75.75,0,0,0,839,298.61Z"/><path class="cls-3" d="M839,343.78a76.29,76.29,0,0,0,13.89-8.7,124.84,124.84,0,0,0,12-10.58,123.58,123.58,0,0,0,10.59-12,75.37,75.37,0,0,0,8.69-13.89,75.37,75.37,0,0,0-13.89,8.69,123.58,123.58,0,0,0-12,10.59,124.84,124.84,0,0,0-10.58,12A76.29,76.29,0,0,0,839,343.78Z"/><path class="cls-3" d="M737.09,289.25a75.6,75.6,0,0,0-3.66,16,126.76,126.76,0,0,0,0,31.94,74.91,74.91,0,0,0,3.68,16,74.91,74.91,0,0,0,3.68-16,128,128,0,0,0,0-31.94A76.22,76.22,0,0,0,737.09,289.25Z"/><path class="cls-3" d="M705.15,321.19a76.11,76.11,0,0,0,16,3.67,127.77,127.77,0,0,0,16,1,125.88,125.88,0,0,0,16-1,75,75,0,0,0,16-3.68,75,75,0,0,0-16-3.67,122.29,122.29,0,0,0-16-1,124.08,124.08,0,0,0-16,1A76.08,76.08,0,0,0,705.15,321.19Z"/><path class="cls-3" d="M714.51,298.61a75.47,75.47,0,0,0,8.7,13.88,126.07,126.07,0,0,0,10.57,12,122.16,122.16,0,0,0,12,10.58,75.22,75.22,0,0,0,13.89,8.7,75.26,75.26,0,0,0-8.69-13.9,128.34,128.34,0,0,0-22.59-22.57A76,76,0,0,0,714.51,298.61Z"/><path class="cls-3" d="M714.51,343.78a76.55,76.55,0,0,0,13.88-8.7,124.84,124.84,0,0,0,12-10.58,123.58,123.58,0,0,0,10.59-12,74.85,74.85,0,0,0,8.69-13.89,75.71,75.71,0,0,0-13.89,8.69,127.45,127.45,0,0,0-22.57,22.59A75.22,75.22,0,0,0,714.51,343.78Z"/><path class="cls-3" d="M612.58,289.25a76.22,76.22,0,0,0-3.66,16,128,128,0,0,0,0,31.94,75.52,75.52,0,0,0,3.68,16,74.91,74.91,0,0,0,3.68-16,125.77,125.77,0,0,0,1-16,127.89,127.89,0,0,0-1-16A76.25,76.25,0,0,0,612.58,289.25Z"/><path class="cls-3" d="M580.64,321.19a76.25,76.25,0,0,0,16,3.67,127.89,127.89,0,0,0,16,1,125.88,125.88,0,0,0,16-1,74.91,74.91,0,0,0,16-3.68,74.88,74.88,0,0,0-16-3.67,122.29,122.29,0,0,0-16-1,124.19,124.19,0,0,0-16,1A76.22,76.22,0,0,0,580.64,321.19Z"/><path class="cls-3" d="M590,298.61a76,76,0,0,0,8.7,13.88,126.17,126.17,0,0,0,10.58,12,120.9,120.9,0,0,0,12,10.58,75,75,0,0,0,13.9,8.7,75.3,75.3,0,0,0-8.7-13.9,124.55,124.55,0,0,0-10.58-12,126.17,126.17,0,0,0-12-10.58A76,76,0,0,0,590,298.61Z"/><path class="cls-3" d="M590,343.78a76.55,76.55,0,0,0,13.88-8.7,126.17,126.17,0,0,0,12-10.58,123.48,123.48,0,0,0,10.58-12,74.88,74.88,0,0,0,8.7-13.89,75.46,75.46,0,0,0-13.9,8.69,122.3,122.3,0,0,0-12,10.59,124.84,124.84,0,0,0-10.58,12A75.75,75.75,0,0,0,590,343.78Z"/><path class="cls-3" d="M698.93,293V462.78h48V293c0-64.57,49-117.07,109.37-117.07S965.64,228.43,965.64,293V462.78h48V293c0-92.47-70.58-167.66-157.34-167.66S698.93,200.53,698.93,293Z"/><polygon class="cls-6" points="698.93 349.95 698.93 462.78 746.91 462.78 746.91 347.99 698.93 349.95"/><rect class="cls-7" x="637.44" y="366.1" width="437.66" height="397.06" transform="translate(1712.55 1129.27) rotate(-180)"/><rect class="cls-8" x="637.44" y="366.1" width="218.83" height="397.06" transform="translate(1493.72 1129.27) rotate(-180)"/><path class="cls-6" d="M837.76,579.17l-18.32,86.91H897.2l-18.33-86.91a38.88,38.88,0,1,0-41.11,0Z"/><path class="cls-9" d="M566.43,703.24l85,68.65c16.31,13,30.37,24.75,37.07,31.49a.38.38,0,0,1,.11.11c2.53,2.54,4,4.35,4.07,5.23a.62.62,0,0,1,0,.18c-.59,7.48-101,140.8-106,144.27s-15.36-10.69-15.59-19,15.38-76.53,15.38-76.53l-84.2-69.38Z"/><path class="cls-10" d="M634,757.8l17.43,14.09c16.31,13,30.37,24.75,37.07,31.49a.38.38,0,0,1,.11.11c2.37,2.67,3.85,4.56,4.07,5.23a.62.62,0,0,1,0,.18c-.59,7.48-101,140.8-106,144.27s-15.36-10.69-15.59-19,15.38-76.53,15.38-76.53l-17.89-14Z"/><path class="cls-7" d="M586.64,953.17c5.07-3.47,105.43-136.78,106-144.28.28-2.85-18.3-18.6-41.28-37l-.73-.57L585,856.61l1.48,1.06s-15.59,68.21-15.37,76.53S581.58,956.67,586.64,953.17Z"/><path class="cls-6" d="M582.61,947.77c16.36-22.88,84.53-113.65,102.44-135,.15-.18.27-.08.15.11-15.73,23-84.63,113.25-102.23,135.2C582.6,948.51,582.26,948.26,582.61,947.77Z"/><path class="cls-6" d="M581.25,865.09c5-10.08,14.51-19.87,25.89-21.89.44-.08.55.55.24.77a155.51,155.51,0,0,0-25,21.93A.71.71,0,0,1,581.25,865.09Z"/><path class="cls-6" d="M580.29,874.37c5-10.08,14.51-19.88,25.89-21.89.45-.08.55.55.24.77a155.44,155.44,0,0,0-25,21.93A.71.71,0,0,1,580.29,874.37Z"/><path class="cls-6" d="M579.33,883.65c5-10.08,14.51-19.88,25.9-21.89.44-.08.54.55.24.77a155.09,155.09,0,0,0-25,21.93A.71.71,0,0,1,579.33,883.65Z"/><path class="cls-3" d="M520.52,621.49c6,29.7,129.24,148.21,129.24,148.21l-85.91,99.17S388.9,694.23,398,628.61c8-57.08,93.4-286.63,93.4-286.63H590S514.61,592.28,520.52,621.49Z"/><path class="cls-3" d="M520.52,621.49c6,29.7,129.24,148.21,129.24,148.21l-85.91,99.17S388.9,694.23,398,628.61c8-57.08,93.4-286.63,93.4-286.63H590S514.61,592.28,520.52,621.49Z"/><path class="cls-6" d="M554.08,845.29C565.5,831.08,562,835,573.59,820.91c5.67-6.89,42.93-52.13,49.34-57.63.14-.12.38.08.28.24-4.3,7.27-42.34,51.86-48.13,58.64-11.84,13.85-8.6,9.75-20.59,23.47A.27.27,0,0,1,554.08,845.29Z"/><path class="cls-6" d="M508.28,607c1.41-7.42,3-14.8,4.59-22.18q4.8-22.62,10.17-45.11Q533.69,495.11,546.2,451c8.41-29.51,17.29-59,27.52-87.89,1.27-3.58,2.57-7.14,3.87-10.7a.23.23,0,0,1,.44.13c-8.86,29-18,57.88-26.31,87s-15.93,58.21-23.15,87.52c-3.62,14.72-7,29.49-10.29,44.28q-2.43,10.9-4.75,21.83c-1.56,7.38-3.66,14.94-4.12,22.49s2,14,5.79,20.26c3.69,6,8,11.74,12.25,17.44,8.42,11.43,88.67,100.85,91.25,103.28.2.19-.11.48-.31.29-10.77-9.66-78.86-83.36-87.5-94.77-4.28-5.64-8.45-11.37-12.54-17.14-3.83-5.41-7.68-10.92-9.8-17.26C506.28,621,507,613.94,508.28,607Z"/><path class="cls-6" d="M508.49,342l17.89,234.91C543.46,496.48,590,342,590,342Z"/><path class="cls-9" d="M550.76,825.63s-21.28,103.63-21.28,103.71c-.28,20.87-.9,39.16-2.11,48.59a.41.41,0,0,1,0,.16c-.45,3.56-1,5.83-1.63,6.42-.05,0-.07.11-.12.13-6.27,4.13-173.13,6.72-179,4.85s-1-18.69,5.41-24S421.9,930.7,421.9,930.7l22.31-103.56Z"/><path class="cls-10" d="M346.62,989.48c5.84,1.87,172.71-.71,179-4.83a.47.47,0,0,0,.14-.14c.63-.6,1.18-2.85,1.62-6.42a.34.34,0,0,0,0-.17c1.21-9.42,1.81-27.7,2.11-48.57,0,0,3.68-18,3.68-18H426.08l-4.17,19.38S358.48,960.27,352,965.54,340.74,987.64,346.62,989.48Z"/><path class="cls-7" d="M346.62,989.49c5.86,1.88,172.7-.71,179-4.85,2.42-1.53,3.46-25.86,3.87-55.3,0-.31,0-.61,0-.92l-107.66.47.07,1.82S358.47,960.27,352,965.54,340.76,987.64,346.62,989.49Z"/><path class="cls-6" d="M348.41,983c28.11-1.12,141.61-3,169.49-2,.22,0,.23.16,0,.17-27.84,1.73-141.35,2.7-169.48,2.28C347.82,983.44,347.82,983,348.41,983Z"/><path class="cls-6" d="M412.85,931.18c11-2.24,24.6-.75,33.18,7,.33.3-.1.77-.46.66a156,156,0,0,0-32.65-6.27A.7.7,0,0,1,412.85,931.18Z"/><path class="cls-6" d="M404.94,936.12c11-2.24,24.6-.75,33.17,7,.34.3-.1.77-.45.66A156.19,156.19,0,0,0,405,937.51.7.7,0,0,1,404.94,936.12Z"/><path class="cls-6" d="M397,941.05c11-2.23,24.6-.75,33.18,7,.33.3-.1.77-.46.66a156,156,0,0,0-32.65-6.27A.71.71,0,0,1,397,941.05Z"/><path class="cls-3" d="M500.94,342c.11,2.07,5.62,20.95,8.47,49.2,2,20.63,4.63,38.88,7.38,41.15,3.12,2.57,18.7,12.58,23.94,15.78,0,0-48.58,147.26-61.11,196.35-18.17,71.16-61.7,284.66-61.7,284.66l116,0s35.27-203.25,50.68-271c13.22-58.08,63.85-232.33,63.85-232.33,18.42-45.3-4.1-83.79-4.1-83.79S500.92,341.9,500.94,342Z"/><path class="cls-6" d="M422.11,906.55c18.22-.09,13-.32,31.22-.22,8.92.06,67.53.45,75.84,2,.18,0,.18.35,0,.37-8.36,1.25-66.95-.16-75.87-.39-18.22-.46-13-.52-31.2-1.19A.27.27,0,0,1,422.11,906.55Z"/><path class="cls-6" d="M508.57,426.52c11.31,6,21.93,13.59,32,21.41.39.31,0,.94-.43.66-10.85-6.79-21.95-13.4-32.41-20.78A.77.77,0,0,1,508.57,426.52Z"/><path class="cls-6" d="M517.43,346.4c.09-.4.81-.38.74.06a390.77,390.77,0,0,0-4.07,39.12c-.39,6.06-.71,39.88,10,39.08,1.8-.13,3-1.7,3.63-4.28.82-3.1.23-7.14.2-10.36-.08-7.1.07-14.19.56-21.27a192,192,0,0,1,6.5-39.06.34.34,0,0,1,.66.14c-2.82,18.07-5.15,36.18-5.22,54.5,0,8.8,2.28,22.43-6.92,22.35-9.37-.07-11.93-22.68-12.13-28.79C510.87,380.85,513.52,363,517.43,346.4Z"/><path class="cls-6" d="M523.72,425.51a55.38,55.38,0,0,1,1.27,7.22c.22,1.88.6,3.93.1,5.78a.41.41,0,0,1-.74,0c-1-1.73-1.17-3.92-1.56-5.85-.46-2.24-1-4.48-1.37-6.73A1.17,1.17,0,0,1,523.72,425.51Z"/><path class="cls-6" d="M632,424.94c-11.86-1.22-17.93-1.76-29.39-5.56a69.56,69.56,0,0,1-28.49-17.59c-4.26-4.44-8.39-9.59-10.93-15.29-.1-.22-.45-.05-.38.17A51.4,51.4,0,0,0,570.52,402a59.2,59.2,0,0,0,12.56,12A65.75,65.75,0,0,0,615,426.28a51.21,51.21,0,0,0,17.16-.27C632.78,425.91,632.53,425,632,424.94Z"/><path class="cls-6" d="M547.38,842.65c.31-2.68.67-5.36,1-8,.72-5.14,1.59-10.25,2.38-15.39,1.58-10.31,3.35-20.58,5.18-30.85,3.63-20.48,7.84-40.89,12.27-61.22,2.5-11.48,5.41-22.84,8.49-34.18.21-.79,1.32-.41,1.19.36-1.87,10.38-3.67,20.78-5.79,31.12s-4.23,20.61-6.28,30.93c-4,20.41-7.83,40.87-11.86,61.27-1.14,5.76-2.18,11.54-3.3,17.3-.56,2.88-1.14,5.75-1.76,8.62s-1.51,5.66-2,8.54c0,.27-.45.14-.41-.13C547,848.24,547.06,845.42,547.38,842.65Z"/><path class="cls-6" d="M467.41,688.56c3.86-19.24,9.07-38.24,14.31-57.14,10.53-38.06,22.94-75.56,35.32-113q5.36-16.22,10.7-32.41c1.78-5.4,10.53-34.52,11.61-37.29a.24.24,0,0,1,.45.14c-2.5,9.92-5.94,24.38-8.84,34.2s-6,19.34-9,29c-5.93,19-12,38-17.71,57-11.36,37.63-22.66,75.25-31.88,113.48-2.59,10.7-5.16,21.4-7.52,32.16s-4.37,21.55-6.62,32.31a.27.27,0,0,1-.53-.09C459.65,727.25,463.54,707.86,467.41,688.56Z"/><path class="cls-6" d="M539.51,789.23c6.38-36.72,14-73.23,22.5-109.51Q574.78,625,590.45,571.06c10.44-35.95,22-71.59,34.45-106.9,5.89-16.74,11.88-33.51,15.75-50.86,3.82-17.14,5.76-35.7,1.77-53a88.06,88.06,0,0,0-4-12.89c-.11-.29.31-.53.44-.24,13.94,32.5,4.89,68.05-5.73,100.09-5.82,17.56-12,35-17.76,52.56q-8.83,27.07-16.93,54.38c-10.71,36.06-20.64,72.35-29.54,108.9S552.1,736.44,545.12,773.4,532.24,847.75,526.27,885c-.78,4.85-1.39,9.73-2,14.59,0,.27-.46.27-.43,0C528.28,862.67,533.13,825.88,539.51,789.23Z"/><path class="cls-9" d="M541.87,188c-13.64,49.85-53,110-71.62,118.32C454,313.56,378.46,285.63,350,267.49c-8.13-5.18,25.39-51.85,35.16-48.59,31.87,10.63,66.58,26.33,69.26,25.43,5.42-1.84,39.28-43.37,63.93-71.28C545.94,141.77,547.3,168.14,541.87,188Z"/><path class="cls-9" d="M296.05,225.33c-6.41-2.69-55.83-4.27-55.82-15s62.9-7.72,62.9-7.72Z"/><path class="cls-9" d="M390.83,226.58c-8.64-10.74-16.23-22.31-23.74-24.43-5.2-1.47-61.15.95-69.89.41s-39.93.28-40.65,7.94c-1,10.84,35.89,10.74,39.83,16.27,13.6,19.12,65.31,47.39,65.31,47.39Z"/><path class="cls-6" d="M255.73,210.66a8.37,8.37,0,0,1,3.58-4.82c3.82-2.69,8.85-2.92,13.34-3.28a122,122,0,0,1,20.5-.16.12.12,0,0,1,0,.24c-5.12.07-10.22.13-15.33.56-4.59.38-9.45.7-13.86,2.12a11.25,11.25,0,0,0-5.33,3.2,4.42,4.42,0,0,0-1.05,4.12c1.49,4.72,10.8,6.12,15.09,7.08,5.62,1.26,11.45,2.36,17.09,3.52.24,0,.13.42-.12.37-5.86-1.16-12-1.6-17.92-2.67-4.77-.86-9.88-1.83-13.73-5A5.43,5.43,0,0,1,255.73,210.66Z"/><path class="cls-7" d="M393,220l-44.25,64.81s68.65,34.36,94.82,33.74c25-.59,34-4.27,41.91-11.72,4.88-4.6,32.67-43.84,55.32-109,19-54.7-9.11-46.64-34.2-16.35-12.5,15.09-52.49,60.08-54.48,59.91S393,220,393,220Z"/><path class="cls-6" d="M406.6,230.51c-6.65,9.59-13,19.38-19.27,29.21-3.08,4.83-14.57,24.47-17.91,30-.13.22.48.59.63.37,3.46-4.92,16-24.52,19-29.4,6.11-9.93,12.14-19.9,17.87-30.05A.16.16,0,0,0,406.6,230.51Z"/><path class="cls-8" d="M430.28,316.88a56.23,56.23,0,0,0,13.27,1.64c25-.58,34-4.27,41.89-11.73,4.88-4.59,32.67-43.82,55.32-109,4.37-12.6,6.27-21.85,6.27-28.28,0-.61,0-1.22-.07-1.76a12.78,12.78,0,0,0-.16-1.67,12.29,12.29,0,0,0-.22-1.35,9.67,9.67,0,0,0-2.73-5.34C528.52,180.05,455.88,278.07,430.28,316.88Z"/><rect class="cls-11" x="267.75" y="193.35" width="167.85" height="9.02"/><polygon class="cls-12" points="267.75 193.35 267.75 202.37 369.7 202.37 362.8 193.35 267.75 193.35"/><polygon class="cls-11" points="355.38 202.38 243.13 202.38 184.72 103.16 296.97 103.16 355.38 202.38"/><path class="cls-4" d="M274.24,152.71c2.09,4.59.55,9.42-3.44,10.79s-8.94-1.25-11-5.84-.55-9.42,3.45-10.79S272.14,148.12,274.24,152.71Z"/><path class="cls-10" d="M655.11,376.13c-.41.46-175.74-.8-177.32-2.62-2.2-2.56,39.33-192.1,57.56-215.39,3.91-5,16.62-6.24,27.4-4.79a48.23,48.23,0,0,1,8.3,1.79l.27.08a19.8,19.8,0,0,1,6.08,3.05c29.79,24.28,54.2,108.34,59.85,133.57C646.61,333.38,656.58,374.5,655.11,376.13Z"/><path class="cls-7" d="M573.2,155.55s-11.44,78-14.13,98.25-.14,127-.14,127l110,9.29s-23.05-71-23.29-75.45c0,0-18.25-85.26-37.07-120.48C594.73,168.28,573.2,155.55,573.2,155.55Z"/><path class="cls-7" d="M536.56,156.91s-14.85,78.94-16.18,85.46S500,377.17,500,377.17l-27.54.58,14.95-58.59S519.39,169,536.56,156.91Z"/><path class="cls-9" d="M542.77,182.15c8.37.95,24.2-10.67,28.61-23,.3-.85-2.19-8.86-4.76-18.74-1.53-6-3.1-12.72-4.08-19-.2-1.28-37.59,15.68-37.59,15.68s5.91,12.46,7.56,23.34a14.56,14.56,0,0,1,.14,2.6,3.22,3.22,0,0,0,0,.43C532.63,168.5,533.81,181.13,542.77,182.15Z"/><path class="cls-6" d="M532.64,163.08c0,.13,0,.28,0,.43a27.75,27.75,0,0,0,4-.42c22.93-4.15,24.44-33.92,24.46-41.4-6.79,2.09-36.21,15.45-36.21,15.45s5.91,12.47,7.57,23.35A14.41,14.41,0,0,1,532.64,163.08Z"/><path class="cls-9" d="M562.11,71.78c6,13.39,3.72,54.54-5.06,64.76-12.72,14.81-36.07,19-49.29,3.14-12.81-15.38-8.88-69,1.16-78.5C523.7,47.13,553.25,52,562.11,71.78Z"/><path class="cls-6" d="M531.8,100.91c0-.1.21.15.2.26-.23,2.77,0,6,2.44,7,.07,0,.06.17,0,.16C531.37,107.76,531.14,103.5,531.8,100.91Z"/><path class="cls-6" d="M534.42,98.14c4.48-.11,4.37,8.85.23,9S530.67,98.24,534.42,98.14Z"/><path class="cls-6" d="M514.73,100.79c0-.11-.22.12-.22.24.06,2.77-.34,6-2.87,6.86-.07,0-.07.16,0,.15C514.73,107.65,515.23,103.41,514.73,100.79Z"/><path class="cls-6" d="M512.29,97.86c-4.47-.39-4.92,8.56-.79,8.92S516,98.18,512.29,97.86Z"/><path class="cls-6" d="M538,94.09a32.54,32.54,0,0,1-3.46-1.27c-1.32-.5-2.43-.76-3.28-2a1.9,1.9,0,0,1,.33-2.29c1.36-1.17,3.13-1,4.74-.43a6.92,6.92,0,0,1,3.95,3A2,2,0,0,1,538,94.09Z"/><path class="cls-6" d="M508.87,90.33a33.25,33.25,0,0,0,3.57-.89c1.37-.35,2.5-.49,3.48-1.59a1.89,1.89,0,0,0-.09-2.31c-1.22-1.32-3-1.3-4.66-.94a6.89,6.89,0,0,0-4.25,2.59C505.8,88.58,507.23,90.57,508.87,90.33Z"/><path class="cls-6" d="M532.72,126.6c-.67.64-1.35,1.53-2.35,1.6a7.39,7.39,0,0,1-3-.73.09.09,0,0,0-.12.14,3.71,3.71,0,0,0,3.5,1.54,3,3,0,0,0,2.22-2.42C533,126.56,532.82,126.5,532.72,126.6Z"/><path class="cls-6" d="M529.9,118.25a9.44,9.44,0,0,1-6.36,4.13,11.71,11.71,0,0,1-3.4.12,4.44,4.44,0,0,1-.65-.08l-.61-.1a.7.7,0,0,1-.55-.63v0a1,1,0,0,1,0-.29v-.26c0-2.14.22-5.39.22-5.39-.79.39-4.79,2.13-4.72,1,.66-9.23,1.4-19.5,4-28.56a.26.26,0,0,1,.51.08c-.28,8.9-2.13,17.7-2.56,26.63,1.28-.46,3.36-1.33,4.48-1.3.3.09-.59,6.27-.49,7.23a.67.67,0,0,0,0,.1c3.59.5,6.31-.55,9.82-2.92C529.85,117.84,530.07,118,529.9,118.25Z"/><path class="cls-6" d="M521.41,121.43a11.23,11.23,0,0,0,4.45,3.53,5,5,0,0,0,3.06.23c2.23-.56,2.31-2.59,1.92-4.34a12,12,0,0,0-1-2.67A14.52,14.52,0,0,1,521.41,121.43Z"/><path class="cls-13" d="M525.86,125a5,5,0,0,0,3.06.23c2.23-.56,2.31-2.59,1.92-4.34C528.46,121.07,526.09,122.66,525.86,125Z"/><path class="cls-6" d="M565.53,107.35s9.94-24.69,6.56-37.47c-1.53-5.78-10.17-8.43-10.17-8.43s1.22-7.53-6.37-12.66c-8-5.4-24.58-1.2-24.58-1.2s-13.46-14-27.86-5.21S501.6,67,501.6,67s-4.35,9,10.49,13c14.45,3.92,41-6.57,41-6.57a97.22,97.22,0,0,0,5.07,28.42C560,107,565.53,107.35,565.53,107.35Z"/><path class="cls-6" d="M528.35,48.23a27.49,27.49,0,0,1,10.52-3.75,29.57,29.57,0,0,1,10-.06c5.87,1.09,11.46,4.37,13.39,10.31a11.47,11.47,0,0,1-.76,8.89c-.06.11-.23,0-.17-.12,2.85-5-.15-11.55-4.43-14.65-4.85-3.5-11.48-4-17.25-3.35a48.15,48.15,0,0,0-11.17,3A.18.18,0,0,1,528.35,48.23Z"/><path class="cls-6" d="M493.29,51.61c.58-4.52,3.83-7.9,7.77-9.9a22.82,22.82,0,0,1,14.68-1.87,28.72,28.72,0,0,1,13.38,6.91c.08.07,0,.22-.14.14-6.91-5.91-16.62-8.34-25.28-5-3.87,1.5-7.54,4.22-8.77,8.35a13.73,13.73,0,0,0,2.21,11.4c2.78,3.93,7.16,6.53,11.53,8.32a.09.09,0,0,1-.06.16c-4.19-1.45-8.23-3.49-11.25-6.82A15,15,0,0,1,493.29,51.61Z"/><path class="cls-6" d="M508.87,81.23a47.36,47.36,0,0,0,19.94.2,96.68,96.68,0,0,0,20-6.12c3.74-1.58,7.43-3.29,11.08-5.07.11-.06.19.11.08.18a104.36,104.36,0,0,1-19.83,9.84,52.54,52.54,0,0,1-20.18,3.1,44.94,44.94,0,0,1-11.09-2A.07.07,0,0,1,508.87,81.23Z"/><path class="cls-9" d="M556.12,106.3s7.74-14,14-11.37,1.4,22.25-5.27,25.57a7.11,7.11,0,0,1-9.87-2.8Z"/><path class="cls-6" d="M568.59,100.52a.1.1,0,0,1,.06.18c-4.67,2.49-6.75,7.27-8,12.15,1.25-2,3.12-3.15,5.72-1.69.13.08,0,.29-.11.28a4.36,4.36,0,0,0-4.62,2,21.54,21.54,0,0,0-1.88,4.11c-.18.46-1,.31-.88-.21l0-.12C558.08,111.05,562,101.85,568.59,100.52Z"/><path class="cls-9" d="M595.31,173.5c44.13,49.57,77.33,119.36,76.94,135.78C671.81,327.36,648.81,391,626.88,421c-2.82,3.85-19.9,2.24-34.36-5.72-15.23-8.39-27.73-23.36-24.74-27.82,11.24-16.73,37.9-81.58,37.66-91.72-.22-9.37-22.07-66.75-30.39-99.95C567.05,163.85,574.77,150.45,595.31,173.5Z"/><path class="cls-7" d="M653.69,416.07l-82.21-40.15s32.34-72.13,32.39-79.92-21.26-68.79-29.28-97-4.91-59.85,30.19-17.23,65.77,106,69.26,122.81S653.69,416.07,653.69,416.07Z"/><path class="cls-6" d="M599.65,275.3q-2.55-8-5.25-16-3-8.94-6.31-17.79c-2.15-5.74-4.54-11.35-6.84-17-.17-.41-.89-.14-.74.28,2.73,7.58,5.29,15.25,7.84,22.91-1.92-3.49-3.87-7-5.92-10.39a.26.26,0,0,0-.46.25c2.3,4.24,4.72,8.4,7.18,12.54q.93,2.77,1.85,5.54c3.45,10.3,6.77,20.65,9.73,31.09a35.82,35.82,0,0,1,1.48,7.17A22.08,22.08,0,0,1,601,302c-1.5,4.82-3.17,9.6-4.88,14.35-3.42,9.55-7.16,19-11.07,28.34-4.46,10.64-9.52,21.17-14.58,31.54,0,0,3.07.82,3.16.88s.23-.1.16-.18-1.93-1-2-1c5.14-9,10.05-17.81,14.36-27.24s8.12-18.85,11.58-28.51c1.78-5,3.48-10,5.06-15s2.46-9.55,1.39-14.69S601.24,280.31,599.65,275.3Z"/><path class="cls-6" d="M655,392.92c-2.77-1.72-6-2.86-9-4.23-2.68-1.25-5.34-2.54-8-3.76-5.88-2.65-11.74-5.33-17.63-7.95s-11.74-5.26-17.64-7.82-11.68-5.3-17.68-7.52a.22.22,0,0,0-.18.39c5.46,3.35,11.28,6.14,17,9s11.39,5.47,17.15,8.05,11.81,5.1,17.77,7.51c2.87,1.16,5.78,2.22,8.69,3.29,3.06,1.14,6.2,2.62,9.38,3.33C655.07,393.25,655.2,393,655,392.92Z"/></g></svg>