<svg id="Слой_1" data-name="Слой 1" xmlns="http://www.w3.org/2000/svg" viewBox="0 0 923 1000"><defs><style>.cls-1{fill:#ececec;}.cls-2,.cls-3,.cls-5{fill:#ffc800;}.cls-3,.cls-6{opacity:0.8;}.cls-10,.cls-4{fill:#fff;}.cls-4,.cls-8{opacity:0.5;}.cls-5{opacity:0.4;}.cls-6{fill:#9b7313;}.cls-7{fill:#472681;}.cls-9{fill:#33245e;}</style></defs><path class="cls-1" d="M1052.75,906.35c-39.79.15-119.86.38-159.66.42h-.41v-.42l-.08-50.19v-.5c.1-.15,159.93.36,160.16.26h.24v.24l-.24,50.19Zm0,0-.23-50.19c1.88.21-162.09,1.17-158.93,0l-.08,50.19-.42-.42c39.79,0,119.88.27,159.66.42Z"/><path class="cls-1" d="M963.69,969.65c-39.8.15-119.87.38-159.66.41h-.42v-.42l-.08-50.2V919c.09-.14,159.93.37,160.16.27h.24v.23l-.24,50.2Zm0,0-.23-50.2c1.88.22-162.09,1.18-158.93,0l-.08,50.2-.42-.42c39.79,0,119.88.26,159.66.42Z"/><path class="cls-1" d="M472.87,851l-70.33.26-70.56.15h-.42V851l-.08-44.3v-.5c.1-.13,141.15.36,141.39.27h.23v.23l-.23,44.3Zm0,0-.24-44.3c2.05.21-143.5,1.17-140.15,0L332.4,851l-.42-.42c35.11,0,105.78.26,140.89.42Z"/><rect class="cls-2" x="688.9" y="85.5" width="410.42" height="920.88"/><rect class="cls-3" x="688.9" y="85.5" width="410.42" height="920.88"/><rect class="cls-2" x="687.9" y="883.38" width="55.64" height="25.22"/><rect class="cls-4" x="687.9" y="883.38" width="55.64" height="25.22"/><polygon class="cls-5" points="743.54 883.38 687.9 883.38 687.9 896.35 743.54 891.6 743.54 883.38"/><rect class="cls-6" x="714" y="109" width="360.22" height="84.94"/><rect class="cls-6" x="714" y="203.32" width="360.22" height="142.12"/><rect class="cls-6" x="714" y="354.79" width="360.22" height="76.24"/><rect class="cls-6" x="714" y="440.38" width="360.22" height="514.14"/><rect class="cls-2" x="729.8" y="121.51" width="21.06" height="13.74"/><rect class="cls-2" x="812.12" y="121.51" width="21.06" height="13.74"/><rect class="cls-2" x="762.9" y="121.51" width="35.84" height="13.74"/><rect class="cls-3" x="-313.4" y="85.69" width="946.18" height="670.61"/><rect class="cls-7" x="-267.89" y="129.29" width="855.16" height="529.13"/><g class="cls-8"><polygon class="cls-9" points="587.27 256.44 587.27 297.48 226.34 658.41 185.3 658.41 587.27 256.44"/><polygon class="cls-9" points="167.04 129.29 -267.89 564.22 -267.89 439.61 42.43 129.29 167.04 129.29"/><polygon class="cls-9" points="587.27 325.09 587.27 449.7 378.58 658.41 253.95 658.41 587.27 325.09"/><polygon class="cls-9" points="214.1 129.29 -267.89 611.28 -267.89 598.25 201.06 129.29 214.1 129.29"/><polygon class="cls-9" points="587.27 558.7 587.27 571.78 500.64 658.41 487.56 658.41 587.27 558.7"/></g><rect class="cls-2" x="-313.4" y="704.94" width="946.18" height="51.36"/><rect class="cls-3" x="-313.4" y="704.94" width="946.18" height="51.36"/><rect class="cls-2" x="-32.49" y="877.19" width="384.36" height="32.12"/><rect class="cls-2" x="-32.49" y="877.19" width="384.36" height="32.12"/><polygon class="cls-2" points="268.54 877.23 50.85 877.23 57.83 806.96 62.87 756.31 145.32 756.31 144.61 800.99 144.31 819.51 175.07 819.51 174.74 798.92 174.06 756.31 256.53 756.31 260.18 793.05 268.54 877.23"/><polygon class="cls-3" points="268.54 877.23 50.85 877.23 57.83 806.96 62.87 756.31 145.32 756.31 144.61 800.99 144.31 819.51 175.07 819.51 174.74 798.92 174.06 756.31 256.53 756.31 260.18 793.05 268.54 877.23"/><polygon class="cls-5" points="62.87 756.31 145.32 756.31 144.61 800.99 57.83 806.96 62.87 756.31"/><polygon class="cls-5" points="260.18 793.05 174.74 798.92 174.06 756.31 256.53 756.31 260.18 793.05"/><polygon class="cls-1" points="-139.77 899.12 449.38 899.12 480.48 991.41 -161.1 991.41 -139.77 899.12"/><polygon class="cls-2" points="-139.77 899.12 449.38 899.12 480.48 991.41 -161.1 991.41 -139.77 899.12"/><polygon class="cls-3" points="-139.77 899.12 449.38 899.12 480.48 991.41 -161.1 991.41 -139.77 899.12"/><polygon class="cls-10" points="-35.06 928.14 2.12 928.14 1.41 937.34 -36.34 937.34 -35.06 928.14"/><polygon class="cls-10" points="6.96 928.14 43.5 928.14 43.28 937.34 6.32 937.34 6.96 928.14"/><polygon class="cls-10" points="84.3 928.14 84.87 937.34 48.12 937.34 48.33 928.14 84.3 928.14"/><polygon class="cls-10" points="126.25 928.14 126.81 937.34 89.78 937.34 89.21 928.14 126.25 928.14"/><polygon class="cls-10" points="167.19 928.14 167.76 937.34 131.65 937.34 131.08 928.14 167.19 928.14"/><polygon class="cls-10" points="209.21 928.14 210.56 937.34 172.59 937.34 172.03 928.14 209.21 928.14"/><polygon class="cls-10" points="251.22 928.14 252.5 937.34 215.46 937.34 214.11 928.14 251.22 928.14"/><polygon class="cls-10" points="293.87 928.14 295.15 937.34 257.4 937.34 256.12 928.14 293.87 928.14"/><polygon class="cls-10" points="333.82 928.14 335.1 937.34 300.06 937.34 298.78 928.14 333.82 928.14"/><polygon class="cls-10" points="377.47 928.14 378.75 937.34 340.01 937.34 338.66 928.14 377.47 928.14"/><polygon class="cls-10" points="419.27 928.14 420.62 937.34 383.66 937.34 382.31 928.14 419.27 928.14"/><polygon class="cls-10" points="452.12 937.34 425.46 937.34 424.18 928.14 448.99 928.14 452.12 937.34"/><polygon class="cls-10" points="-19.7 967.45 27.93 967.45 26.86 982.21 -21.76 982.21 -19.7 967.62 -19.7 967.45"/><polygon class="cls-10" points="239.42 967.62 241.48 982.21 31.77 982.21 32.84 967.45 239.42 967.45 239.42 967.62"/><polygon class="cls-10" points="295.15 967.62 297.21 982.21 246.38 982.21 244.32 967.45 295.15 967.45 295.15 967.62"/><polygon class="cls-10" points="337.81 967.62 339.87 982.21 302.12 982.21 300.06 967.45 337.81 967.45 337.81 967.62"/><polygon class="cls-10" points="382.38 967.62 384.44 982.21 344.77 982.21 342.71 967.45 382.38 967.45 382.38 967.62"/><polygon class="cls-10" points="425.39 967.62 427.45 982.21 389.34 982.21 387.21 967.45 425.39 967.45 425.39 967.62"/><polygon class="cls-10" points="467.26 982.21 432.35 982.21 430.22 967.45 462.28 967.45 467.26 982.21"/><polygon class="cls-10" points="29.64 953.59 28.85 964.66 -6.69 964.66 -5.13 953.59 29.64 953.59"/><polygon class="cls-10" points="70.87 953.59 70.65 964.66 33.76 964.66 34.54 953.59 70.87 953.59"/><polygon class="cls-10" points="114.73 964.66 75.49 964.66 75.7 953.59 114.02 953.59 114.73 964.66"/><polygon class="cls-10" points="157.17 964.66 119.56 964.66 118.85 953.59 156.46 953.59 157.17 964.66"/><polygon class="cls-10" points="199.54 964.66 162 964.66 161.29 953.59 198.83 953.59 199.54 964.66"/><polygon class="cls-10" points="242.69 964.66 204.37 964.66 203.66 953.59 241.12 953.59 242.69 964.66"/><polygon class="cls-10" points="285.13 964.66 247.59 964.66 246.03 953.59 283.56 953.59 285.13 964.66"/><polygon class="cls-10" points="326.43 964.66 289.96 964.66 288.4 953.59 324.87 953.59 324.87 953.76 326.43 964.66"/><polygon class="cls-10" points="368.16 964.66 331.34 964.66 329.77 953.59 366.6 953.59 368.16 964.66"/><polygon class="cls-10" points="418.99 964.66 373.06 964.66 371.5 953.59 417.42 953.59 418.99 964.66"/><polygon class="cls-10" points="461.29 964.66 423.82 964.66 422.26 953.59 457.59 953.59 461.29 964.66"/><polygon class="cls-10" points="-25.39 939.73 12.5 939.73 11.65 950.8 -26.95 950.8 -25.39 939.73"/><polygon class="cls-10" points="17.34 939.73 54.66 939.73 54.45 950.8 16.55 950.8 17.34 939.73"/><polygon class="cls-10" points="94.82 939.73 95.53 950.8 59.28 950.8 59.49 939.73 94.82 939.73"/><polygon class="cls-10" points="137.33 939.73 138.05 950.8 100.37 950.8 99.73 939.73 137.33 939.73"/><polygon class="cls-10" points="178.21 939.73 178.92 950.8 142.88 950.8 142.24 939.73 178.21 939.73"/><polygon class="cls-10" points="221.36 939.73 223 950.8 183.83 950.8 183.12 939.73 221.36 939.73"/><polygon class="cls-10" points="262.59 939.73 264.16 950.8 227.9 950.8 226.27 939.73 262.59 939.73"/><polygon class="cls-10" points="305.67 939.73 307.24 950.8 268.99 950.8 267.43 939.73 305.67 939.73"/><polygon class="cls-10" points="346.98 939.73 348.54 950.8 312.14 950.8 310.58 939.73 346.98 939.73"/><polygon class="cls-10" points="388.21 939.73 389.84 950.8 353.37 950.8 351.81 939.73 388.21 939.73"/><polygon class="cls-10" points="456.67 950.8 394.68 950.8 393.11 939.73 452.9 939.73 456.67 950.8"/><polygon class="cls-10" points="-11.17 916.55 25.09 916.55 24.94 925.75 -11.81 925.75 -11.17 916.55"/><polygon class="cls-10" points="65.68 916.55 66.25 925.75 29.78 925.75 29.99 916.55 65.68 916.55"/><polygon class="cls-10" points="106.91 916.55 107.48 925.75 71.15 925.75 70.58 916.55 106.91 916.55"/><polygon class="cls-10" points="147.78 916.55 148.35 925.75 112.38 925.75 111.81 916.55 147.78 916.55"/><polygon class="cls-10" points="189.37 916.55 190.65 925.75 153.26 925.75 152.69 916.55 189.37 916.55"/><polygon class="cls-10" points="230.89 916.55 232.17 925.75 195.56 925.75 194.28 916.55 230.89 916.55"/><polygon class="cls-10" points="272.69 916.55 273.97 925.75 237.07 925.75 235.79 916.55 272.69 916.55"/><polygon class="cls-10" points="314.13 916.55 315.48 925.75 278.87 925.75 277.52 916.55 314.13 916.55"/><polygon class="cls-10" points="355.15 916.55 356.5 925.75 320.39 925.75 319.04 916.55 355.15 916.55"/><polygon class="cls-10" points="397.52 916.55 398.87 925.75 361.33 925.75 360.06 916.55 397.52 916.55"/><polygon class="cls-10" points="448.2 925.75 403.7 925.75 402.42 916.55 445.08 916.55 448.2 925.75"/><polygon class="cls-10" points="-6.62 904.91 31.77 904.91 31.55 914.17 -7.26 914.17 -6.62 904.91"/><polygon class="cls-10" points="71.79 904.91 72.36 914.17 36.39 914.17 36.6 904.91 71.79 904.91"/><polygon class="cls-10" points="116.22 904.91 116.79 914.17 77.27 914.17 76.63 904.91 116.22 904.91"/><polygon class="cls-10" points="158.8 904.91 159.37 914.17 121.69 914.17 121.06 904.91 158.8 904.91"/><polygon class="cls-10" points="200.32 904.91 201.67 914.17 164.21 914.17 163.64 904.91 200.32 904.91"/><polygon class="cls-10" points="243.19 904.91 244.54 914.17 206.57 914.17 205.22 904.91 243.19 904.91"/><polygon class="cls-10" points="285.41 904.91 286.76 914.17 249.44 914.17 248.09 904.91 285.41 904.91"/><polygon class="cls-10" points="328.49 904.91 329.84 914.17 291.67 914.17 290.32 904.91 328.49 904.91"/><polygon class="cls-10" points="370.72 904.91 372.07 914.17 334.75 914.17 333.4 904.91 370.72 904.91"/><polygon class="cls-10" points="413.8 904.91 415.15 914.17 376.98 914.17 375.62 904.91 413.8 904.91"/><polygon class="cls-10" points="444.3 914.17 420.05 914.17 418.7 904.91 441.17 904.91 444.3 914.17"/><rect class="cls-2" x="-161.1" y="991.41" width="641.58" height="12.08"/><rect class="cls-2" x="-161.1" y="991.41" width="641.58" height="12.08"/></svg>