<svg id="Слой_1" data-name="Слой 1" xmlns="http://www.w3.org/2000/svg" viewBox="0 0 923 1000"><defs><style>.cls-1{fill:#4a148c;}.cls-2,.cls-8{fill:#fff;}.cls-3{fill:#c8c8c8;}.cls-12,.cls-13,.cls-15,.cls-16,.cls-4{fill:none;stroke-miterlimit:10;}.cls-4{stroke:#ffc800;}.cls-5{fill:#306;}.cls-6{fill:#ffc800;}.cls-20,.cls-7{opacity:0.1;}.cls-8{opacity:0.5;}.cls-18,.cls-9{opacity:0.2;}.cls-10{fill:#ececec;}.cls-11{opacity:0.6;}.cls-12,.cls-13{stroke:#1a2e35;stroke-width:0.75px;}.cls-13{stroke-dasharray:3.97 4.96;}.cls-14{opacity:0.3;}.cls-15,.cls-16{stroke:#fff;}.cls-16{stroke-width:0.5px;}.cls-17{fill:#1a2e35;}.cls-19{fill:#ff9abd;}.cls-21{fill:#dcdcdc;}.cls-22{fill:#c26358;}.cls-23{fill:#e1574d;}</style></defs><rect class="cls-1" x="812.3" y="103.26" width="119.83" height="145.35"/><rect class="cls-2" x="825.99" y="116.52" width="92.44" height="118.82"/><rect class="cls-3" x="825.99" y="116.52" width="3.61" height="118.82"/><rect class="cls-1" x="856.97" y="144" width="21.8" height="64.94"/><rect class="cls-4" x="847.46" y="132.9" width="58.12" height="31.82"/><rect class="cls-1" x="635.17" y="103.26" width="119.83" height="145.35"/><rect class="cls-2" x="648.87" y="116.52" width="92.44" height="118.82"/><rect class="cls-3" x="648.87" y="116.52" width="3.61" height="118.82"/><rect class="cls-5" x="755" y="103.26" width="3.61" height="145.35"/><rect class="cls-1" x="686.14" y="147.24" width="18.67" height="47.21"/><rect class="cls-4" x="674.31" y="175.93" width="50.16" height="32.55"/><path class="cls-6" d="M852,529.45c-2.18,24.94-5.15,50.5-11.73,74.69-.21.79-1.45.43-1.34-.34,4.08-28.46,8.73-56.56,10.5-85.3.3-5,.56-9.91.75-14.84-.77-37.1-38.65-37.33-54.11-70.73s10.49-67,10.49-67-18.11-5.94-25.91-30.09,36.73-123.25,36.73-123.25c-.19-.9,1.18-1.07,1.39-.22,7.18,28.47,14,56.93,19.28,85.8,9.38,51.29,15.51,103.29,16.47,155.46A712.78,712.78,0,0,1,852,529.45Z"/><path class="cls-5" d="M848.88,439.64a.75.75,0,0,0,0-.53c-2.36-68.92-11.32-137.94-29-204.94-.06-.2-.38-.15-.34.05q9.75,44.86,16.7,90.07c-4.91-5.56-11.53-8.94-18.49-11.48a.11.11,0,0,0-.08.2c7.21,3.53,14.08,7.55,19,14q1.33,8.85,2.55,17.72c-8.42-10.35-20.51-15.86-32.63-21.13a.15.15,0,0,0-.11.27c12.6,5.84,25.08,13.18,33.27,24.66q3.36,25.35,5.61,50.81a48.16,48.16,0,0,0-23.08-14.71c-.27-.08-.45.33-.17.42a50.22,50.22,0,0,1,23.34,16.54.53.53,0,0,0,.14.12q.76,9,1.41,17.93a61.4,61.4,0,0,0-16.15-10.81c-.16-.08-.26.17-.11.25a57.18,57.18,0,0,1,16.14,11.8c.06.07.14.07.21.1.39,5.68.79,11.37,1.09,17.06a80.89,80.89,0,0,0-32.6-25.67c-.26-.12-.41.27-.17.4a88,88,0,0,1,32,27.15.76.76,0,0,0,.83.3q.68,13.1,1,26.22c0,.11.19.14.19,0Q849.35,453.07,848.88,439.64Z"/><path class="cls-5" d="M823.28,303c-6.68-5.07-15.35-7.5-23.55-8.58a.16.16,0,0,0,0,.31c8.51,1.67,15.56,5.11,23.27,8.83C823.29,303.74,823.56,303.24,823.28,303Z"/><path class="cls-5" d="M823.08,410.15a50.44,50.44,0,0,0-17.66-7c-.21-.05-.25.29,0,.34a67.21,67.21,0,0,1,17.46,7.06C823.08,410.7,823.3,410.3,823.08,410.15Z"/><path class="cls-6" d="M980,319.87s-9.27,66.47-17.77,77.36c-8.28,10.61-34.16,4-35.51,3.65,1.17.64,21.5,11.92,17.92,24.45-3.68,12.92-21.59,25.6-43.12,43.78s-37.09,40-37.09,40,0-.11,0-.34a415,415,0,0,0-6.17,103.78.69.69,0,0,1-1.38.14,319.14,319.14,0,0,1-.88-74.07,409.78,409.78,0,0,1,35-128.63,165.36,165.36,0,0,1,36.81-51.89,266.24,266.24,0,0,1,46-34.3s0,0,.06,0C977.73,321.19,980,319.87,980,319.87Z"/><path class="cls-7" d="M980,319.87s-9.27,66.47-17.77,77.36c-8.28,10.61-34.16,4-35.51,3.65,1.17.64,21.5,11.92,17.92,24.45-3.68,12.92-21.59,25.6-43.12,43.78s-37.09,40-37.09,40,0-.11,0-.34a415,415,0,0,0-6.17,103.78.69.69,0,0,1-1.38.14,319.14,319.14,0,0,1-.88-74.07,409.78,409.78,0,0,1,35-128.63,165.36,165.36,0,0,1,36.81-51.89,266.24,266.24,0,0,1,46-34.3s0,0,.06,0C977.73,321.19,980,319.87,980,319.87Z"/><path class="cls-5" d="M961.23,335.52c-22.77,18.87-45.79,39.1-60.47,65.19a267.73,267.73,0,0,0-13.47,27.85s0,0,0,0c-.8,1.92-1.62,3.83-2.39,5.77a.7.7,0,0,0-.13.32c-7.83,19.74-13.93,40.34-19.4,60.49,0,.13.16.22.2.08,3-10.23,6.29-20.55,9.83-30.82a.84.84,0,0,0,.31,0,43.6,43.6,0,0,1,13.39-2.22c.3,0,.32-.53,0-.54a49.38,49.38,0,0,0-13.17,1.27c3.22-9.25,6.64-18.46,10.39-27.51a139.8,139.8,0,0,1,30-1.37.08.08,0,0,0,0-.16,112.64,112.64,0,0,0-29.35,0c.65-1.55,1.32-3.09,2-4.63a150.58,150.58,0,0,1,20-1.68c.12,0,.12-.21,0-.21a96.4,96.4,0,0,0-19.51.71c3.4-7.81,7-15.5,10.92-22.95a145.66,145.66,0,0,1,11-17.52,119.57,119.57,0,0,1,16.24-1.5.14.14,0,0,0,0-.27,43.41,43.41,0,0,0-15.08.21c3-4,6.1-7.95,9.4-11.73h0c11.42-1.53,23-2.88,34.25.25.2.05.3-.28.11-.34-10.68-3.8-21.65-3.06-32.69-1.82q2-2.22,4-4.38a74.45,74.45,0,0,1,21.22-1.52.12.12,0,0,0,0-.23,54.86,54.86,0,0,0-19.67.08c10.24-10.73,21.39-20.67,32.41-30.51C962.11,335.39,961.77,335.07,961.23,335.52Z"/><path class="cls-5" d="M915.38,442.73c-5.24-.51-10.61.46-15.66,1.79-.13,0-.07.25,0,.23,5.19-.78,10.38-.84,15.59-1.25C915.79,443.46,915.83,442.77,915.38,442.73Z"/><path class="cls-5" d="M906.49,419.44a33,33,0,0,0-6.59,0c-.21,0-.23.37,0,.39a32.93,32.93,0,0,0,6.58.25A.34.34,0,0,0,906.49,419.44Z"/><path class="cls-6" d="M843.17,616.44a.59.59,0,0,1-1.18,0A347.33,347.33,0,0,0,830.29,530a208.81,208.81,0,0,0-33.65-31.17c-19.22-13.9-35.07-23.41-39-34-3.83-10.29,12.55-21.05,13.47-21.65-1.07.36-22.4,7.56-30-.83-7.82-8.61-19.82-63.81-19.82-63.81s2.18,1.09,5.87,3.16l.11.07a220.81,220.81,0,0,1,40.17,25.54,139,139,0,0,1,34.18,41.23,344.38,344.38,0,0,1,37.56,105.72A267.56,267.56,0,0,1,843.17,616.44Z"/><path class="cls-7" d="M843.17,616.44a.59.59,0,0,1-1.18,0A347.33,347.33,0,0,0,830.29,530a208.81,208.81,0,0,0-33.65-31.17c-19.22-13.9-35.07-23.41-39-34-3.83-10.29,12.55-21.05,13.47-21.65-1.07.36-22.4,7.56-30-.83-7.82-8.61-19.82-63.81-19.82-63.81s2.18,1.09,5.87,3.16l.11.07a220.81,220.81,0,0,1,40.17,25.54,139,139,0,0,1,34.18,41.23,344.38,344.38,0,0,1,37.56,105.72A267.56,267.56,0,0,1,843.17,616.44Z"/><path class="cls-5" d="M829.07,518.75c-18.84-48.44-46.32-93.51-87.45-126,0,0,0,0,0,0a225.78,225.78,0,0,1,29.45,29.29c-8.95-1.32-18.27-1-26.75,2.4-.19.07-.09.32.1.28,9.23-1.94,18-2.9,27.39-1.33a.53.53,0,0,0,.31-.08c1.4,1.68,2.77,3.38,4.13,5.1a82.65,82.65,0,0,0-14.16.19.1.1,0,1,0,0,.19,72.47,72.47,0,0,1,14.87.54,307.19,307.19,0,0,1,19.79,28.72,23.48,23.48,0,0,0-9.83-.46.19.19,0,0,0,0,.38,51.84,51.84,0,0,1,10.42,1.1c1.13,1.85,2.27,3.69,3.37,5.55a95.11,95.11,0,0,0-29.79-.64.12.12,0,0,0,0,.23,119.37,119.37,0,0,1,30.49,1.64c1,1.79,2,3.62,3,5.42a64.49,64.49,0,0,0-17.77-.08c-.23,0-.21.38,0,.36a67.37,67.37,0,0,1,18.32.75c4.36,7.81,8.49,15.76,12.41,23.78a16.54,16.54,0,0,0-7.75-.46.11.11,0,0,0,0,.22,33.51,33.51,0,0,1,8.28,1.38q5.28,10.88,10.08,21.85C828.34,519.72,829.32,519.4,829.07,518.75Z"/><path class="cls-5" d="M795.82,476.47a37.79,37.79,0,0,0-14.3,0,.11.11,0,1,0,0,.21,108.39,108.39,0,0,1,14.19.24C796,477,796.15,476.54,795.82,476.47Z"/><path class="cls-5" d="M760.11,415.91a24.38,24.38,0,0,0-6.55-.39c-.26,0-.22.39,0,.39,2.16,0,4.26.36,6.41.55A.28.28,0,0,0,760.11,415.91Z"/><polygon class="cls-5" points="889.11 535.8 873.74 658.6 818.66 658.6 803.29 535.8 889.11 535.8"/><path class="cls-6" d="M339.91,608s4.54-43.07-20.32-79c-24.17-34.89-104.23-23.52-115.43-74.88-10.61-48.63,36.28-60.87,34.65-99.89s-97.09-57.23-82.27-169.41C170.86,76.5,313.62,17.43,413.82,129.19c46.79,52.19,46.22,120.67,98.71,147s105.7-20.11,156.73,19.35,19.88,119.51-61.59,133.11c-66.15,11-94.31,12.09-111.91,40.18C475.25,501.6,499,523,480.29,546.69s-57.43,8.29-82.22,17.19c-30.28,10.88-50.63,48.57-50.63,48.57Z"/><path class="cls-8" d="M339.91,608s4.54-43.07-20.32-79c-24.17-34.89-104.23-23.52-115.43-74.88-10.61-48.63,36.28-60.87,34.65-99.89s-97.09-57.23-82.27-169.41C170.86,76.5,313.62,17.43,413.82,129.19c46.79,52.19,46.22,120.67,98.71,147s105.7-20.11,156.73,19.35,19.88,119.51-61.59,133.11c-66.15,11-94.31,12.09-111.91,40.18C475.25,501.6,499,523,480.29,546.69s-57.43,8.29-82.22,17.19c-30.28,10.88-50.63,48.57-50.63,48.57Z"/><path class="cls-6" d="M205.78,387.85c-5.74,10.6-10.6,20.77-13.88,31s-4.75,20.37-3.73,30.17a58,58,0,0,0,3.3,14.53,81.18,81.18,0,0,0,6.58,14.15c5.27,9.39,12.3,18.32,19.57,28a73.28,73.28,0,0,1-30.38-20,63.13,63.13,0,0,1-10.73-15.9c-.68-1.49-1.38-3-1.93-4.53l-1.57-4.7a67.65,67.65,0,0,1-1.82-9.8,59.81,59.81,0,0,1,1.34-19.68,65.05,65.05,0,0,1,7.19-17.77,72.65,72.65,0,0,1,11.39-14.67A58.32,58.32,0,0,1,205.78,387.85Z"/><path class="cls-8" d="M205.78,387.85c-5.74,10.6-10.6,20.77-13.88,31s-4.75,20.37-3.73,30.17a58,58,0,0,0,3.3,14.53,81.18,81.18,0,0,0,6.58,14.15c5.27,9.39,12.3,18.32,19.57,28a73.28,73.28,0,0,1-30.38-20,63.13,63.13,0,0,1-10.73-15.9c-.68-1.49-1.38-3-1.93-4.53l-1.57-4.7a67.65,67.65,0,0,1-1.82-9.8,59.81,59.81,0,0,1,1.34-19.68,65.05,65.05,0,0,1,7.19-17.77,72.65,72.65,0,0,1,11.39-14.67A58.32,58.32,0,0,1,205.78,387.85Z"/><path class="cls-6" d="M454.68,576.26c7.68-3.12,14.57-5.6,20.84-8.53s11.68-6.09,15.87-10a39.73,39.73,0,0,0,10-14.53c2.57-6,4.25-13.15,6.52-21.17a38.23,38.23,0,0,1,6.64,23.89,35.54,35.54,0,0,1-3.29,13.14,36,36,0,0,1-8.32,11.28A41.48,41.48,0,0,1,478.8,580.7a46.48,46.48,0,0,1-12.43-.46A35.92,35.92,0,0,1,454.68,576.26Z"/><path class="cls-8" d="M454.68,576.26c7.68-3.12,14.57-5.6,20.84-8.53s11.68-6.09,15.87-10a39.73,39.73,0,0,0,10-14.53c2.57-6,4.25-13.15,6.52-21.17a38.23,38.23,0,0,1,6.64,23.89,35.54,35.54,0,0,1-3.29,13.14,36,36,0,0,1-8.32,11.28A41.48,41.48,0,0,1,478.8,580.7a46.48,46.48,0,0,1-12.43-.46A35.92,35.92,0,0,1,454.68,576.26Z"/><path class="cls-6" d="M368.38,71.63c6.91-.24,13.76,1.21,20.41,3.15a87.27,87.27,0,0,1,9.75,3.65c1.6.68,3.18,1.42,4.77,2.15s3.07,1.64,4.58,2.51a120.11,120.11,0,0,1,32,26.79c4.18,5.58,8.6,11,11.88,17.17l2.59,4.51a36.53,36.53,0,0,1,2.38,4.61c1.42,3.16,2.77,6.34,4.09,9.52a68.36,68.36,0,0,1,3.31,9.76q1.43,5,2.65,9.91c.75,3.34,1.11,6.77,1.55,10.16s.7,6.79.85,10.19c-3.91-5.76-7-11.63-10.24-17.35-1.75-2.8-3.46-5.59-5.09-8.39-.84-1.4-1.62-2.81-2.41-4.21s-1.8-2.69-2.63-4.06c-1.78-2.68-3.51-5.36-5.17-8.07-.79-1.39-1.8-2.63-2.71-3.92l-2.77-3.86a93.76,93.76,0,0,0-5.59-7.62l-5.81-7.41A234.39,234.39,0,0,0,400.3,94.11,204.66,204.66,0,0,0,368.38,71.63Z"/><path class="cls-8" d="M368.38,71.63c6.91-.24,13.76,1.21,20.41,3.15a87.27,87.27,0,0,1,9.75,3.65c1.6.68,3.18,1.42,4.77,2.15s3.07,1.64,4.58,2.51a120.11,120.11,0,0,1,32,26.79c4.18,5.58,8.6,11,11.88,17.17l2.59,4.51a36.53,36.53,0,0,1,2.38,4.61c1.42,3.16,2.77,6.34,4.09,9.52a68.36,68.36,0,0,1,3.31,9.76q1.43,5,2.65,9.91c.75,3.34,1.11,6.77,1.55,10.16s.7,6.79.85,10.19c-3.91-5.76-7-11.63-10.24-17.35-1.75-2.8-3.46-5.59-5.09-8.39-.84-1.4-1.62-2.81-2.41-4.21s-1.8-2.69-2.63-4.06c-1.78-2.68-3.51-5.36-5.17-8.07-.79-1.39-1.8-2.63-2.71-3.92l-2.77-3.86a93.76,93.76,0,0,0-5.59-7.62l-5.81-7.41A234.39,234.39,0,0,0,400.3,94.11,204.66,204.66,0,0,0,368.38,71.63Z"/><circle class="cls-1" cx="209.84" cy="203.24" r="38.55" transform="translate(-1.39 1.45) rotate(-0.39)"/><path class="cls-1" d="M240.86,226.14A45.52,45.52,0,0,0,232,215.05c-6.08-5.73-24.43-16.15-31.87-24-10.46-10.95-9.59-18.44-8.25-22A38.81,38.81,0,0,1,206,164.88c-.4,4-1.05,16.67,17.47,31.65,9.56,7.72,20.94,8.87,24.8,9.26A38.42,38.42,0,0,1,240.86,226.14Z"/><path class="cls-1" d="M219,240.68a38.55,38.55,0,0,1-43.91-20.75,31.5,31.5,0,0,1,7.43-.27c10.61,1.09,19.71,9.58,22.85,13.18A22.6,22.6,0,0,0,219,240.68Z"/><path class="cls-1" d="M236.76,230.82l-.76.73c-.23.22-.47.43-.71.64q-.81.72-1.65,1.38c-.5.39-1,.78-1.54,1.14-.19.15-.38.27-.58.41s-.44.3-.67.44-.45.3-.68.43-.53.34-.81.5-.54.32-.82.46l-.71.39c-.53.28-1.06.54-1.59.8h0c-2.51-.11-5.43-1.49-9.24-4.81-5.68-4.93-10.59-13.69-21.71-22.79a48.32,48.32,0,0,0-23.87-10.24h0a38.39,38.39,0,0,1,8.72-21.62c2.35.74,9.45,4.45,20.69,23.24A100.82,100.82,0,0,0,213,218.58c11.07,11.95,19.69,12.63,23.56,12.14h0Z"/><path class="cls-5" d="M213.82,181.24c-1.19,1.23-3.6.84-5.41-.88s-2.3-4.11-1.11-5.35,3.6-.85,5.4.87S215,180,213.82,181.24Z"/><path class="cls-5" d="M202.63,180.06c-.67.69-2.08.42-3.16-.61s-1.42-2.43-.75-3.13,2.08-.43,3.16.6S203.3,179.36,202.63,180.06Z"/><path class="cls-5" d="M214.4,234.79c-1,1.06-3.11.7-4.69-.81s-2-3.58-1-4.64,3.11-.69,4.68.81S215.41,233.73,214.4,234.79Z"/><path class="cls-5" d="M207.27,233.6a1.93,1.93,0,1,1-.37-2.3A1.68,1.68,0,0,1,207.27,233.6Z"/><path class="cls-5" d="M207.43,229.85a1.25,1.25,0,0,1-1.71-1.64,1.25,1.25,0,0,1,1.71,1.64Z"/><path class="cls-5" d="M184.88,221.47c-.91.95-2.66.74-3.92-.47s-1.55-2.94-.65-3.89,2.66-.73,3.92.47S185.78,220.53,184.88,221.47Z"/><path class="cls-5" d="M187.56,216.87a1.53,1.53,0,0,1-2.2-2.1,1.53,1.53,0,0,1,2.2,2.1Z"/><path class="cls-6" d="M233.64,233.57a312.58,312.58,0,0,1-31.29-18.06,309.53,309.53,0,0,1-29.83-21.92c-14.6-12.28-22.89-22.54-20.37-26.4s15.06-.59,31.78,7.51c-.67.61-1.32,1.25-2,1.91-.23.25-.47.5-.7.76-9.07-3.7-15.43-4.81-17-2.46s2.15,7.9,9.41,14.84,17.62,15,29.89,23,24,14.33,33.15,18.08c9.25,3.83,15.77,5,17.33,2.61s-2.05-7.7-9-14.48a36.84,36.84,0,0,0,1.41-3.66c14.51,12.24,22.89,22.79,20.38,26.65S251.19,242.25,233.64,233.57Z"/><g class="cls-9"><path d="M233.64,233.57a312.58,312.58,0,0,1-31.29-18.06,309.53,309.53,0,0,1-29.83-21.92c-14.6-12.28-22.89-22.54-20.37-26.4s15.06-.59,31.78,7.51c-.67.61-1.32,1.25-2,1.91-.23.25-.47.5-.7.76-9.07-3.7-15.43-4.81-17-2.46s2.15,7.9,9.41,14.84,17.62,15,29.89,23,24,14.33,33.15,18.08c9.25,3.83,15.77,5,17.33,2.61s-2.05-7.7-9-14.48a36.84,36.84,0,0,0,1.41-3.66c14.51,12.24,22.89,22.79,20.38,26.65S251.19,242.25,233.64,233.57Z"/></g><path class="cls-6" d="M230.86,235.55a339,339,0,0,1-30.58-17.65h0a340,340,0,0,1-28.54-20.45c-20.45-16.42-32.44-30.89-28.9-36.38s21.3-.63,44.37,11c-.48.35-1,.72-1.43,1.09-19.45-9.39-34.2-13.1-37.24-8.39s6.61,16.87,23.52,30.9a306.36,306.36,0,0,0,29,21.07,306.14,306.14,0,0,0,31.33,17.8c19.67,9.56,34.62,13.33,37.68,8.59s-6.36-16.55-22.86-30.34c.14-.58.28-1.17.4-1.76,20,16.17,31.66,30.36,28.16,35.79S254.17,247.34,230.86,235.55Z"/><path class="cls-10" d="M398.32,62.36a1.67,1.67,0,1,1,.19-2.36A1.68,1.68,0,0,1,398.32,62.36Z"/><g class="cls-11"><path class="cls-2" d="M313.84,170.84c-2.29,2-4.85,4.5-7.22,6.86s-4.81,4.82-7.14,7.31c-4.68,5-9.25,10.05-13.56,15.31a220.29,220.29,0,0,0-23.09,33.26c-12.74,23.34-19.9,50.54-15.59,76.88a94.9,94.9,0,0,0,14.84,37c7.44,11.34,17.36,21.11,28.24,29.65a200.77,200.77,0,0,0,35.75,21.67,318.78,318.78,0,0,0,39.23,15.55,322.11,322.11,0,0,1-40.42-12.86,205.42,205.42,0,0,1-38-19.58c-11.87-8.05-23.05-17.58-32-29.29a105.07,105.07,0,0,1-19.2-39.79,118.24,118.24,0,0,1-1.54-44.55,156.77,156.77,0,0,1,4.93-21.76,177.67,177.67,0,0,1,7.95-20.83,238.7,238.7,0,0,1,22.54-37.88c4.23-6,8.71-11.71,13.33-17.35,2.31-2.83,4.67-5.6,7.09-8.35s4.8-5.4,7.58-8.27Z"/><path class="cls-2" d="M272.09,235.36c-3.14,8-6,16-8.53,24.08-1.2,4.05-2.43,8.07-3.39,12.15s-1.9,8.15-2.52,12.27a96.8,96.8,0,0,0-1.14,24.73,69.17,69.17,0,0,0,2.33,12.19,71.12,71.12,0,0,0,4.8,11.75,44.62,44.62,0,0,1-7.49-10.7A53.41,53.41,0,0,1,252,309.27a73.44,73.44,0,0,1-.13-26.36,110.32,110.32,0,0,1,7.42-25.05A103.63,103.63,0,0,1,272.09,235.36Z"/><path class="cls-2" d="M278.92,166.42c-5.94,7.42-11.4,15-16.52,22.83a241,241,0,0,0-13.93,24.16c-2.26,4.06-4,8.36-6,12.56-1.72,4.3-3.62,8.56-5.1,13-3.36,8.72-5.59,17.77-8.17,26.95A109.57,109.57,0,0,1,233,237.58l.88-3.49c.29-1.17.75-2.28,1.11-3.42l2.34-6.81c1.89-4.4,3.66-8.87,5.9-13.11s4.61-8.41,7.11-12.49l4-5.95c1.39-1.95,2.87-3.84,4.32-5.73A110.32,110.32,0,0,1,278.92,166.42Z"/></g><path class="cls-6" d="M341.21,87.45c-.51-.6-29.85-14.15-56.36,6.16-24.38,18.68-32.79,53.71-29.54,54.54,4,1,14.81-15.71,35.67-24.93,7.39-3.27,19.19,0,19.19,0Z"/><path class="cls-6" d="M389.62,144.32c.51.6,9.19,31.73-15.1,54.65-22.33,21.08-58.25,23.78-58.55,20.45-.37-4.08,17.87-12.12,30.31-31.23,4.41-6.78,3.1-18.94,3.1-18.94Z"/><path class="cls-10" d="M324.06,181.51l-29.84-35.06s11.19-38,43-61.78c15.87-11.83,34.92-20.14,52.15-25.29,23.78-7.15,44.07-8.21,47.54-4.13s-.82,23.93-11.66,46.28c-7.85,16.17-19.1,33.65-33.32,47.43C363.41,176.54,324.06,181.51,324.06,181.51Z"/><rect class="cls-6" x="285.13" y="161.89" width="38.99" height="11.85" transform="translate(234.98 -172.93) rotate(49.6)"/><path class="cls-6" d="M384.94,129.3a22.73,22.73,0,1,1,2.57-32A22.73,22.73,0,0,1,384.94,129.3Z"/><circle class="cls-1" cx="370.21" cy="111.99" r="15.77" transform="translate(36.93 308.26) rotate(-47.33)"/><path class="cls-6" d="M425.23,101.53,389.35,59.38c23.78-7.15,44.07-8.21,47.54-4.13S436.07,79.18,425.23,101.53Z"/><path class="cls-10" d="M405.22,70.46a1.67,1.67,0,1,1,.19-2.36A1.68,1.68,0,0,1,405.22,70.46Z"/><path class="cls-10" d="M412.11,78.55a1.67,1.67,0,1,1,.19-2.36A1.67,1.67,0,0,1,412.11,78.55Z"/><path class="cls-10" d="M419,86.65a1.67,1.67,0,1,1,.19-2.36A1.67,1.67,0,0,1,419,86.65Z"/><path class="cls-10" d="M425.89,94.75a1.67,1.67,0,1,1,.19-2.36A1.68,1.68,0,0,1,425.89,94.75Z"/><path class="cls-12" d="M232.24,486.57c.07.66.15,1.32.25,2"/><path class="cls-13" d="M233.4,493.43c10.88,47.47,81.5,114,178.14,72.1C512.52,521.78,507.61,354.08,641,286"/><path class="cls-12" d="M643.22,284.84,645,284"/><polygon class="cls-6" points="636.95 261.45 623.94 297.16 651.24 275.84 755.59 237.99 636.95 261.45"/><polygon class="cls-7" points="636.95 261.45 623.94 297.16 651.24 275.84 755.59 237.99 636.95 261.45"/><polygon class="cls-6" points="654.74 284.16 623.94 297.16 651.24 275.84 654.74 284.16"/><polygon class="cls-14" points="654.74 284.16 623.94 297.16 651.24 275.84 654.74 284.16"/><polygon class="cls-6" points="651.24 275.84 755.59 237.99 670 321.52 651.24 275.84"/><polygon class="cls-6" points="636.95 261.45 593.58 233.45 755.59 237.99 636.95 261.45"/><path class="cls-6" d="M421.71,423.15c3.54,41.81-21.16,54.66-23.34,66.44-1.14,6.38-1.2,22-1.2,22l-42.67,8.68s-6.13-14.35-9.71-19.77c-6.58-10-34.37-12.16-47.43-52-8.61-26.19,2.94-72.66,48.08-81.86S419.36,395.69,421.71,423.15Z"/><line class="cls-15" x1="365.93" y1="520.85" x2="339.45" y2="455.56"/><line class="cls-15" x1="386.9" y1="516.58" x2="385.74" y2="446.14"/><path class="cls-16" d="M341.06,457.93s5.21,12.78,11.23,11.56,7.62-22.19-.27-20.58,5,26,15.06,24,10.51-29.17,3.49-27.74-.59,21.67,9.06,19.7c5.18-1.05,6.17-15.13,6.17-15.13"/><rect class="cls-1" x="349.66" y="514" width="53.72" height="10.5" transform="translate(-96.04 85.57) rotate(-11.51)"/><rect class="cls-1" x="352.1" y="525.95" width="53.72" height="10.5" transform="matrix(0.98, -0.2, 0.2, 0.98, -98.38, 86.3)"/><rect class="cls-1" x="354.53" y="537.9" width="53.72" height="10.5" transform="translate(-100.71 87.03) rotate(-11.51)"/><path class="cls-17" d="M343.23,359.45A60.91,60.91,0,0,1,339.8,344a60.91,60.91,0,0,1,3.43,15.43Z"/><path class="cls-17" d="M309.89,376.5a60.28,60.28,0,0,1-10.69-11.64,60.9,60.9,0,0,1,10.69,11.64Z"/><path class="cls-17" d="M289.54,408a60.94,60.94,0,0,1-15.08-4.74A60.94,60.94,0,0,1,289.54,408Z"/><path class="cls-17" d="M287.64,445.35a61,61,0,0,1-15.42,3.44,60.75,60.75,0,0,1,15.42-3.44Z"/><path class="cls-17" d="M304.7,478.69a60.87,60.87,0,0,1-11.64,10.69,60.9,60.9,0,0,1,11.64-10.69Z"/><path class="cls-17" d="M427.23,452.44a60.8,60.8,0,0,1,15.08,4.74,60.94,60.94,0,0,1-15.08-4.74Z"/><path class="cls-17" d="M429.14,415a60.75,60.75,0,0,1,15.42-3.44A61,61,0,0,1,429.14,415Z"/><path class="cls-17" d="M412.08,381.7A60.57,60.57,0,0,1,423.72,371a60.9,60.9,0,0,1-11.64,10.69Z"/><path class="cls-17" d="M380.64,361.35a60.91,60.91,0,0,1,4.73-15.08,60.91,60.91,0,0,1-4.73,15.08Z"/><polygon class="cls-2" points="468.85 404.62 459.55 406.34 457.47 416.14 455.39 406.34 446.09 404.62 455.35 402.35 457.47 393.09 459.59 402.35 468.85 404.62"/><polygon class="cls-2" points="670.52 379.21 661.22 380.94 659.14 390.74 657.06 380.94 647.76 379.21 657.02 376.95 659.14 367.69 661.26 376.95 670.52 379.21"/><polygon class="cls-2" points="277.2 384.01 267.9 385.73 265.82 395.53 263.74 385.73 254.44 384 263.7 381.74 265.82 372.48 267.94 381.74 277.2 384.01"/><polygon class="cls-2" points="251.97 110.6 242.67 112.32 240.59 122.12 238.51 112.32 229.21 110.59 238.47 108.33 240.59 99.07 242.71 108.33 251.97 110.6"/><polygon class="cls-2" points="653.88 335.12 648.68 336.08 647.52 341.56 646.36 336.08 641.16 335.11 646.34 333.85 647.52 328.67 648.7 333.85 653.88 335.12"/><polygon class="cls-2" points="356.99 315.01 351.8 315.98 350.63 321.46 349.47 315.98 344.27 315.01 349.45 313.75 350.63 308.57 351.82 313.75 356.99 315.01"/><polygon class="cls-2" points="493.92 290.06 488.72 291.02 487.56 296.5 486.39 291.02 481.19 290.06 486.37 288.79 487.56 283.61 488.74 288.79 493.92 290.06"/><polygon class="cls-2" points="443.83 511.92 438.63 512.88 437.47 518.36 436.31 512.88 431.11 511.92 436.29 510.65 437.47 505.48 438.65 510.65 443.83 511.92"/><polygon class="cls-2" points="248.3 396.77 243.1 397.73 241.94 403.21 240.78 397.73 235.58 396.77 240.75 395.5 241.94 390.32 243.12 395.5 248.3 396.77"/><polygon class="cls-2" points="241.94 236.36 236.74 237.32 235.58 242.8 234.42 237.32 229.22 236.36 234.39 235.09 235.58 229.92 236.76 235.09 241.94 236.36"/><path class="cls-2" d="M516.82,419.31a1.51,1.51,0,0,0,0,3A1.51,1.51,0,0,0,516.82,419.31Z"/><path class="cls-2" d="M221.16,137.09a1.51,1.51,0,0,0,0,3A1.51,1.51,0,0,0,221.16,137.09Z"/><path class="cls-2" d="M639.34,368.2a1.51,1.51,0,0,0,0,3A1.51,1.51,0,0,0,639.34,368.2Z"/><path class="cls-2" d="M411.25,192.44a1.51,1.51,0,0,0,0,3A1.51,1.51,0,0,0,411.25,192.44Z"/><path class="cls-2" d="M289.89,291.4a1.51,1.51,0,0,0,0,3A1.51,1.51,0,0,0,289.89,291.4Z"/><path class="cls-2" d="M214.93,264.38a1.51,1.51,0,0,0,0,3A1.51,1.51,0,0,0,214.93,264.38Z"/><path class="cls-2" d="M179.79,248a1.07,1.07,0,0,0,0,2.13A1.07,1.07,0,0,0,179.79,248Z"/><path class="cls-2" d="M409.13,446.7a1.07,1.07,0,0,0,0,2.14A1.07,1.07,0,0,0,409.13,446.7Z"/><path class="cls-2" d="M289.89,478.73a1.07,1.07,0,0,0,0,2.13A1.07,1.07,0,0,0,289.89,478.73Z"/><path class="cls-2" d="M484.76,428.37c-3.71,0-3.72,5.78,0,5.78S488.49,428.37,484.76,428.37Z"/><path class="cls-2" d="M256.57,459.13c-3.72,0-3.73,5.78,0,5.78S260.29,459.13,256.57,459.13Z"/><path class="cls-1" d="M466.88,385.47a7.84,7.84,0,1,1-6.23-9.17A7.85,7.85,0,0,1,466.88,385.47Z"/><rect class="cls-1" x="464.64" y="345.77" width="5.99" height="39.4" transform="translate(76.51 -80.93) rotate(10.77)"/><path class="cls-1" d="M493.94,379a7.84,7.84,0,1,1-6.24-9.17A7.84,7.84,0,0,1,493.94,379Z"/><rect class="cls-1" x="491.7" y="339.31" width="5.99" height="39.4" transform="translate(75.76 -86.08) rotate(10.77)"/><polygon class="cls-1" points="501.3 340.29 467.39 350.73 468.38 345.55 502.29 335.12 501.3 340.29"/><polygon class="cls-1" points="499.45 350.05 465.54 360.48 466.52 355.31 500.43 344.87 499.45 350.05"/><path class="cls-1" d="M303.16,341.67a5.37,5.37,0,1,1-4.28-6.28A5.38,5.38,0,0,1,303.16,341.67Z"/><rect class="cls-1" x="301.63" y="314.46" width="4.1" height="27.01" transform="translate(66.61 -50.96) rotate(10.77)"/><rect class="cls-1" x="318.41" y="310.4" width="4.1" height="7.81" transform="matrix(0.98, 0.19, -0.19, 0.98, 64.36, -54.33)"/><polygon class="cls-1" points="323.01 311.87 303.51 317.86 304.18 314.31 323.69 308.33 323.01 311.87"/><polygon class="cls-1" points="321.74 318.56 302.24 324.55 302.91 321 322.42 315.01 321.74 318.56"/><path class="cls-1" d="M448.91,482.6a5.37,5.37,0,1,1-4.28-6.29A5.38,5.38,0,0,1,448.91,482.6Z"/><rect class="cls-1" x="447.37" y="455.38" width="4.1" height="27.01" transform="translate(95.5 -75.7) rotate(10.77)"/><rect class="cls-1" x="464.16" y="451.33" width="4.1" height="7.81" transform="translate(93.25 -79.08) rotate(10.77)"/><polygon class="cls-1" points="468.76 452.8 449.26 458.78 449.93 455.24 469.44 449.25 468.76 452.8"/><polygon class="cls-1" points="467.49 459.48 447.99 465.47 448.66 461.92 468.17 455.94 467.49 459.48"/><path class="cls-6" d="M469.27,319.93l-4.4-.26c-8.42-10-33.52-20.75-31.1-26.09.45-1,2-1.41,4.15-1.58,7.05-.52,20.65,2.05,23.11.17.31-.21,2-5.5,2.42-7.05l.06-.21.07-.21-.06,0-17.39-5c-38.92-23.42-117.21-50.59-143.42-41.49l-5.83,0h-.07l-.26.83c0,.12-.06.21-.08.33l-1.59,5.2c-14.06,30.9,163.06,104.15,172.25,83.11l.33-1.08,1.42-4.45.67-2.11Zm-56.49-48.37c7.6,2.8,12.83,7.6,11.69,10.7s-8.23,3.37-15.85.56-12.85-7.6-11.71-10.71S405.16,268.75,412.78,271.56Z"/><path class="cls-6" d="M469.27,319.93c-.17-9.5-23.73-20.51-31.35-27.93-1.85-1.78-2.76-3.37-2.19-4.66,2-4.49,26.27,1.28,27.72-2.22a.35.35,0,0,0,.06-.21.36.36,0,0,0,0-.23c0-.72-.83-1.77-2.6-3.2-34.8-28.41-151.86-70.52-164-43.44l0,.09a6.52,6.52,0,0,0-.33.83c0,.12-.06.21-.08.33-9.6,32.86,163,104.66,172.33,83a1.54,1.54,0,0,0,.08-.19l.23-.71A5,5,0,0,0,469.27,319.93Zm-72.36-47.82c1.17-3.12,8.25-3.36,15.87-.55s12.83,7.6,11.69,10.7-8.23,3.37-15.85.56S395.77,275.22,396.91,272.11Z"/><path class="cls-18" d="M469.27,319.93c-.17-9.5-23.73-20.51-31.35-27.93-1.85-1.78-2.76-3.37-2.19-4.66,2-4.49,26.27,1.28,27.72-2.22a.35.35,0,0,0,.06-.21.36.36,0,0,0,0-.23c0-.72-.83-1.77-2.6-3.2-34.8-28.41-151.86-70.52-164-43.44l0,.09a6.52,6.52,0,0,0-.33.83c0,.12-.06.21-.08.33-9.6,32.86,163,104.66,172.33,83a1.54,1.54,0,0,0,.08-.19l.23-.71A5,5,0,0,0,469.27,319.93Zm-72.36-47.82c1.17-3.12,8.25-3.36,15.87-.55,5.18,1.92,9.25,4.73,11,7.34a3.74,3.74,0,0,1,.73,3.36c-1.15,3.13-8.23,3.37-15.85.56a31.42,31.42,0,0,1-7.33-3.8C398,276.66,396.19,274.06,396.91,272.11Z"/><path class="cls-6" d="M423.74,278.9a31,31,0,0,0-7.31-3.79c-7.62-2.81-14.7-2.56-15.87.55a3.76,3.76,0,0,0,.73,3.36c-3.3-2.36-5.1-5-4.38-6.91,1.17-3.12,8.25-3.36,15.87-.55C418,273.48,422,276.29,423.74,278.9Z"/><path class="cls-1" d="M415.19,293.34a12.44,12.44,0,0,0-7.81.41c-2.85,1.29-3.94,4.29-2.13,6.95,3.67,5.42,17.2,10.51,21.83,3.61C431.28,298.06,421.94,294.38,415.19,293.34Z"/><path class="cls-6" d="M379.69,289.66a8.05,8.05,0,0,0,.86,0,9.91,9.91,0,0,0,2.74-.14,5.66,5.66,0,0,0,2.45-1.17,2.61,2.61,0,0,0,1.09-1.4,4.38,4.38,0,0,0-.91-4.71c-1.74-2.13-4.52-3-6.81-4.46-3.34-2.1-5-5.33-8.85-6.62-4.28-1.43-10.05-1.31-12.5,2.07C351.26,282.23,373.29,289.31,379.69,289.66Z"/><path class="cls-5" d="M379.6,251.26c1.93,6.71-7.35,7.4-11.57,6.1-3.85-1.2-15.91-5.55-12.7-11.5,1.91-3.59,6.42-3.12,10.3-1.61C371.32,244.68,378.27,246.64,379.6,251.26Z"/><path class="cls-10" d="M320.16,240.27c-7.18,3.54-3.36,12.5,1.67,15.88a59.46,59.46,0,0,0,12.89,5.9c2.85,1,6.25,1.14,8.21-1.58,3.77-5.35-1.07-10.14-6.1-13.29C332.18,242.15,325.89,237.43,320.16,240.27Z"/><path class="cls-1" d="M408.53,257.33s24.53-15.62,49.21-32.91,85.16-43.55,87.3-42.24S492,222,465.82,236s-53.63,26.51-53.63,26.51Z"/><polygon class="cls-10" points="408.7 255.96 427.2 242.96 433.21 253.62 413.04 263.04 408.7 255.96"/><path class="cls-5" d="M408.7,256c-6.07,0-12.85-.07-19,7.45-7.42,9.07-15.12,9.22-15.12,9.22S399.38,282.88,413,263Z"/><path class="cls-6" d="M373.47,272.78c1.12-1.23,8.31-1.4,12.68-6,4.11-4.33,16.53,8.47,8.29,9.45C385.08,277.33,371.43,275,373.47,272.78Z"/><path class="cls-19" d="M607.89,408.05s13.84,16.4,27.31,2.3-3.54-27.17-3.54-27.17Z"/><rect class="cls-6" x="562.21" y="299.82" width="34.4" height="114.43" transform="translate(-79.01 529.27) rotate(-46.3)"/><rect class="cls-7" x="562.21" y="299.82" width="34.4" height="114.43" transform="translate(-79.01 529.27) rotate(-46.3)"/><g class="cls-20"><path d="M548.75,313.39c24.44,22.93,51.63,48.9,75.65,72.28-24.45-22.93-51.63-48.91-75.65-72.28Z"/><path d="M544,318.32c24.44,22.93,51.63,48.9,75.65,72.28-24.45-22.93-51.63-48.91-75.65-72.28Z"/><path d="M539.33,323.25C563.77,346.18,591,372.16,615,395.53c-24.44-22.93-51.62-48.9-75.64-72.28Z"/><path d="M534.62,328.18c24.44,22.93,51.62,48.91,75.64,72.28-24.44-22.93-51.62-48.9-75.64-72.28Z"/></g><rect class="cls-1" x="598.12" y="389.23" width="40.17" height="9.75" transform="translate(-93.82 568.79) rotate(-46.3)"/><rect class="cls-1" x="590.32" y="381.79" width="40.17" height="9.75" transform="translate(-90.85 560.85) rotate(-46.3)"/><path class="cls-2" d="M549.94,305.06l-26.84-7.74-8.84-2.58,2.93,8.77,9,26.45,6,.93s-1.25-5.8-1.26-5.91l6,.94s-1.26-5.81-1.26-5.92l6,1s-1.21-5.86-1.21-6l6,1s-1.2-5.86-1.2-6l6,1S549.94,305.17,549.94,305.06Z"/><polygon class="cls-5" points="523.1 297.32 514.26 294.74 517.19 303.51 523.1 297.32"/><polygon class="cls-6" points="351.4 890.31 169.32 842.37 84.62 887.78 262.72 947.12 351.4 890.31"/><path class="cls-2" d="M340.11,889.49l-81.19,52.2L92,886.2l81.89-43.5s50,6.58,52.28,7.3,24.36,9.87,24.36,9.87,30.9,5.38,33,6.08S340.11,889.49,340.11,889.49Z"/><path class="cls-21" d="M250.53,859.87q-9.6,6.9-19.3,13.63l-19.48,13.37L192.12,900q-9.84,6.53-19.8,12.88,9.59-6.9,19.29-13.64l19.48-13.37,19.63-13.14Q240.56,866.22,250.53,859.87Z"/><path class="cls-21" d="M322.23,889q-8.89-3.49-17.73-7.14l-17.62-7.34-4.4-1.85c-.73-.29-1.48-.61-2.18-.86s-1.54-.37-2.3-.55l-9.29-2.18q-9.27-2.22-18.52-4.65,9.39,1.78,18.75,3.76l9.35,2c.78.18,1.55.31,2.34.54s1.52.57,2.27.86l4.43,1.8c5.86,2.51,11.72,5,17.53,7.6S316.47,886.29,322.23,889Z"/><path class="cls-21" d="M316.57,892.35q-8.9-3.5-17.72-7.14l-17.63-7.34-4.4-1.85c-.73-.29-1.48-.61-2.18-.85s-1.53-.37-2.3-.56l-9.29-2.18q-9.27-2.22-18.51-4.65c6.25,1.19,12.51,2.44,18.74,3.77l9.35,2c.78.18,1.56.32,2.34.54s1.52.57,2.28.86l4.43,1.8c5.85,2.51,11.71,5,17.53,7.61S310.81,889.62,316.57,892.35Z"/><path class="cls-21" d="M310.91,895.68q-8.69-3.4-17.32-7l-17.23-7.18-4.3-1.8a26.51,26.51,0,0,0-4.3-1.57L258.69,876q-9.08-2.18-18.12-4.5,9.18,1.68,18.32,3.6c3.06.61,6.09,1.31,9.13,2a28.45,28.45,0,0,1,4.47,1.57l4.33,1.77c5.72,2.46,11.44,4.9,17.12,7.44S305.29,893,310.91,895.68Z"/><path class="cls-21" d="M305.26,899q-8.58-3.36-17.08-6.87l-17-7.08c-2.82-1.14-5.67-2.48-8.45-3.41l-8.93-2.15c-6-1.44-11.92-2.91-17.86-4.46Q245,876.7,254,878.59c3,.62,6,1.29,9,2,3,1,5.77,2.22,8.63,3.39,5.63,2.43,11.28,4.82,16.87,7.34S299.71,896.39,305.26,899Z"/><path class="cls-21" d="M299.6,902.35q-8.53-3.35-17-6.84l-16.92-7.06c-2.81-1.13-5.65-2.46-8.42-3.42-2.92-.76-5.93-1.41-8.89-2.15q-8.91-2.14-17.8-4.44,9,1.63,18,3.52c3,.63,6,1.29,9,2,3,1,5.74,2.23,8.59,3.4,5.61,2.42,11.24,4.81,16.81,7.32S294.07,899.73,299.6,902.35Z"/><path class="cls-21" d="M293.94,905.68q-8.51-3.33-17-6.82l-16.87-7c-2.8-1.14-5.63-2.44-8.39-3.43-2.91-.76-5.91-1.41-8.86-2.14-5.92-1.43-11.83-2.89-17.73-4.43q9,1.62,17.94,3.5c3,.63,5.94,1.28,9,2,3,1,5.71,2.23,8.55,3.41,5.59,2.42,11.2,4.79,16.76,7.3S288.43,903.08,293.94,905.68Z"/><path class="cls-21" d="M288.28,909c-5.6-2.2-11.18-4.43-16.74-6.74l-16.64-6.93c-2.78-1.13-5.55-2.38-8.3-3.43-2.79-.84-5.8-1.44-8.7-2.17-5.84-1.41-11.68-2.86-17.5-4.39q8.9,1.59,17.72,3.45c2.95.66,5.85,1.21,8.83,2.06,2.88,1.08,5.62,2.22,8.4,3.4,5.52,2.39,11.06,4.73,16.54,7.21S282.85,906.45,288.28,909Z"/><path class="cls-21" d="M282.63,912.35c-5.6-2.2-11.19-4.43-16.74-6.73l-16.65-6.94c-2.77-1.12-5.55-2.38-8.3-3.43-2.78-.84-5.8-1.43-8.69-2.16-5.85-1.42-11.69-2.86-17.51-4.39q8.89,1.59,17.72,3.45c2.95.65,5.85,1.21,8.83,2.06,2.88,1.07,5.62,2.22,8.4,3.4,5.52,2.38,11.06,4.72,16.54,7.2S277.19,909.78,282.63,912.35Z"/><path class="cls-21" d="M277.93,916.18c-5.68-2.25-11.34-4.52-17-6.87l-16.88-7.07-8.43-3.52c-2.76-.92-5.86-1.49-8.79-2.24-5.93-1.43-11.86-2.9-17.76-4.45,6,1.07,12,2.25,18,3.5,3,.69,5.93,1.19,9,2.15,2.87,1.12,5.68,2.27,8.48,3.49,5.61,2.43,11.22,4.81,16.78,7.34S272.41,913.57,277.93,916.18Z"/><path class="cls-21" d="M272.26,919.64c-5.65-2.26-11.3-4.54-16.91-6.9l-16.83-7.1-8.4-3.54c-2.74-1-5.84-1.49-8.76-2.24-5.92-1.44-11.83-2.9-17.72-4.45q9,1.61,17.93,3.49c3,.7,5.93,1.17,9,2.17,2.85,1.13,5.66,2.28,8.46,3.5,5.58,2.44,11.18,4.83,16.71,7.37S266.77,917,272.26,919.64Z"/><path class="cls-21" d="M266.58,923.37c-5.48-2.25-11-4.51-16.39-6.85s-10.86-4.71-16.31-7L225.74,906a20.34,20.34,0,0,0-4.12-1.37l-4.31-1c-5.75-1.41-11.5-2.83-17.23-4.36q8.76,1.53,17.45,3.37l4.34,1c.72.17,1.44.32,2.18.55s1.43.55,2.12.82c2.75,1.13,5.47,2.29,8.17,3.51,5.41,2.42,10.83,4.78,16.19,7.3S261.25,920.78,266.58,923.37Z"/><path class="cls-21" d="M260.94,926.46c-5.58-2-11.15-4.08-16.68-6.21s-11.06-4.29-16.59-6.41c-2.77-1-5.55-2.19-8.27-3.13l-8.54-2.51c-5.67-1.73-11.33-3.5-17-5.38,5.77,1.39,11.51,2.88,17.24,4.42l8.57,2.39c2.9,1,5.6,2,8.37,3.14,5.51,2.22,11,4.37,16.5,6.69S255.5,924.08,260.94,926.46Z"/><path class="cls-21" d="M179.17,899.43c-5.31-1.84-10.54-3.85-15.75-5.92l-3.91-1.5a29.8,29.8,0,0,0-3.95-1.25l-8.11-2.22L131.25,884c-5.4-1.51-10.77-3.14-16.15-4.71,5.44,1.35,10.9,2.64,16.33,4l16.28,4.21,8.13,2.15a37.22,37.22,0,0,1,4.08,1.23c1.32.49,2.61,1,3.91,1.57Q171.63,895.68,179.17,899.43Z"/><path class="cls-21" d="M184.66,895.14q-7.83-2.29-15.52-4.94c-2.58-.84-5.14-1.78-7.7-2.52l-7.83-2.21L138,881c-5.22-1.49-10.4-3.13-15.6-4.68,5.26,1.34,10.54,2.6,15.78,4l15.74,4.18a154.76,154.76,0,0,1,15.62,4.71C174.62,891,179.66,893,184.66,895.14Z"/><path class="cls-21" d="M190,891.31c-5.18-1.51-10.33-3.11-15.42-4.86l-7.64-2.54-7.82-2-15.65-4c-5.23-1.33-10.41-2.8-15.62-4.2,5.27,1.17,10.54,2.27,15.79,3.51l15.74,3.69,7.87,1.92c2.63.76,5.13,1.72,7.68,2.61C180,887.22,185,889.22,190,891.31Z"/><path class="cls-21" d="M194.48,888.48c-5.13-1.8-10.1-4-15.12-6a21.89,21.89,0,0,0-3.75-1.29l-4-.89-17.73-4.27c10.65,2,18,3.21,18,3.21l4,.86a21.63,21.63,0,0,1,3.94,1.29A155.67,155.67,0,0,1,194.48,888.48Z"/><path class="cls-21" d="M255.17,931.26c-5.69-1.89-11.37-3.81-17-5.8l-16.94-6c-2.82-1-5.64-2.08-8.43-3l-8.57-2.71q-8.55-2.78-17.05-5.75c5.8,1.53,11.57,3.15,17.33,4.82l8.61,2.58c2.9,1,5.69,1.94,8.51,3,5.62,2.09,11.26,4.13,16.84,6.31S249.62,929,255.17,931.26Z"/><path class="cls-21" d="M175.08,903.65c-5.75-1.78-11.49-3.57-17.2-5.46l-17.12-5.68-8.52-2.85-8.66-2.54q-8.64-2.6-17.23-5.4,8.79,2.12,17.48,4.47l8.7,2.4c2.92.9,5.75,1.83,8.6,2.82,5.68,2,11.38,3.9,17,6S169.46,901.5,175.08,903.65Z"/><path class="cls-22" d="M1013.68,565.65c-4.88-3.51-160.81-51.89-167.91-50-.77.22-2.41,7.23-9.45,24.63-.34.83-74.53,90.77-74.53,90.77l101.54,53.59L921.28,603s72.49-13.74,80.08-16.66S1018.57,569.16,1013.68,565.65Z"/><path class="cls-6" d="M1013.68,565.65c-4.88-3.51-160.81-51.89-167.91-50-.77.22-2.41,7.23-9.45,24.63-.34.83-10.5,12.61-15.48,19,6.47,5.55,68.77,49.53,85.88,64.14L921.28,603s72.49-13.74,80.08-16.66S1018.57,569.16,1013.68,565.65Z"/><path class="cls-2" d="M875.47,530.83a23.25,23.25,0,0,1-3,5,24.45,24.45,0,0,1-8.93,7.24,23,23,0,0,1-11.4,2.07,27.78,27.78,0,0,1-11-3.51c-.19-.1,0-.39.18-.29,6.4,3.54,15.18,2.94,21.55-.39a23.33,23.33,0,0,0,8-6.85,25.59,25.59,0,0,0,2.61-4.47,21.48,21.48,0,0,0,.92-2.42c.26-.84.33-1.54,1.14-2a.84.84,0,0,1,1.12.32C877.51,526.83,876.05,529.53,875.47,530.83Z"/><path class="cls-2" d="M906.77,604.61c-19-13.68-37.82-27.5-56.92-41-5.41-3.82-10.79-7.71-16.26-11.44-.18-.13,0-.38.21-.27,20,12.23,39.57,25.05,58.12,39.36,5.26,4.06,10.37,8.31,15.45,12.59A.48.48,0,0,1,906.77,604.61Z"/><path class="cls-2" d="M835.36,555.21a1,1,0,0,1-.28.38c-.13.11-.28.2-.42.3l-.82.54c-.58.39-1.16.76-1.77,1.1-1.18.67-2.38,1.28-3.6,1.87-.17.08-.33-.19-.16-.29,1.14-.7,2.26-1.45,3.36-2.21l1.62-1.11.86-.59a2.26,2.26,0,0,1,.87-.45A.33.33,0,0,1,835.36,555.21Z"/><path class="cls-2" d="M844.21,561.73a1.08,1.08,0,0,1-.28.38c-.14.11-.29.2-.43.3l-.81.55c-.58.38-1.17.75-1.77,1.09-1.18.67-2.39,1.28-3.6,1.87-.17.09-.33-.19-.17-.29,1.14-.7,2.26-1.45,3.36-2.21.54-.37,1.08-.74,1.63-1.1l.85-.59a2,2,0,0,1,.88-.45A.33.33,0,0,1,844.21,561.73Z"/><path class="cls-2" d="M853.05,568.25a1.08,1.08,0,0,1-.28.38c-.13.11-.28.2-.42.3l-.82.55c-.58.38-1.16.75-1.77,1.09-1.18.67-2.38,1.29-3.6,1.88a.17.17,0,0,1-.16-.3c1.14-.7,2.25-1.45,3.36-2.21.53-.37,1.08-.74,1.62-1.1l.86-.59a2,2,0,0,1,.87-.45C852.94,567.76,853.18,568,853.05,568.25Z"/><path class="cls-2" d="M861.9,574.78a1.13,1.13,0,0,1-.28.37c-.14.11-.29.2-.43.3l-.81.55c-.58.38-1.17.75-1.78,1.1-1.17.66-2.38,1.28-3.6,1.87-.17.08-.32-.19-.16-.29,1.14-.71,2.26-1.46,3.36-2.22l1.62-1.1.86-.59a2,2,0,0,1,.88-.45A.33.33,0,0,1,861.9,574.78Z"/><path class="cls-2" d="M870.74,581.3a1.29,1.29,0,0,1-.28.38c-.13.1-.28.19-.43.29l-.81.55c-.58.38-1.17.75-1.77,1.1-1.18.66-2.38,1.28-3.6,1.87-.17.08-.33-.19-.17-.29,1.15-.71,2.26-1.45,3.37-2.22.53-.37,1.08-.73,1.62-1.1.29-.19.57-.39.85-.59a2.17,2.17,0,0,1,.88-.45A.33.33,0,0,1,870.74,581.3Z"/><path class="cls-2" d="M879.59,587.82a1.29,1.29,0,0,1-.28.38l-.43.29-.82.55c-.58.39-1.16.76-1.77,1.1-1.17.67-2.38,1.28-3.6,1.87-.17.08-.32-.19-.16-.29q1.71-1.07,3.36-2.22l1.62-1.1.86-.59a2.11,2.11,0,0,1,.88-.45A.33.33,0,0,1,879.59,587.82Z"/><path class="cls-2" d="M888.43,594.34a1.17,1.17,0,0,1-.28.38,4.61,4.61,0,0,1-.43.29l-.81.55c-.58.39-1.17.76-1.77,1.1-1.18.67-2.38,1.28-3.6,1.87-.17.08-.33-.19-.17-.29,1.15-.7,2.26-1.45,3.36-2.22l1.63-1.1.85-.59a2.23,2.23,0,0,1,.88-.45A.33.33,0,0,1,888.43,594.34Z"/><path class="cls-2" d="M897.28,600.86a1.21,1.21,0,0,1-.28.38c-.14.11-.29.2-.43.3l-.82.54c-.58.39-1.16.76-1.77,1.1-1.18.67-2.38,1.28-3.6,1.87-.17.08-.33-.19-.16-.29,1.14-.7,2.26-1.45,3.36-2.21.54-.38,1.08-.74,1.62-1.11l.86-.59a2.26,2.26,0,0,1,.87-.45A.34.34,0,0,1,897.28,600.86Z"/><path class="cls-2" d="M906.12,607.38a1.08,1.08,0,0,1-.28.38c-.14.11-.29.2-.43.3l-.81.55c-.58.38-1.17.75-1.77,1.09-1.18.67-2.39,1.28-3.6,1.87-.17.09-.33-.19-.17-.29,1.14-.7,2.26-1.45,3.36-2.21l1.63-1.1.85-.59a2,2,0,0,1,.88-.45A.33.33,0,0,1,906.12,607.38Z"/><path class="cls-1" d="M893.22,644.8l-89.57-70.48s-92,117.51-93.52,118.31c0,0-72.21.76-130.56,12.37-10.41,2.07-57.34-25-119.37,27.19l9.33,97.17c97.55,14,233.64-7,291.64-26C815.93,785.4,893.22,644.8,893.22,644.8Z"/><path class="cls-5" d="M880.68,654c-20.15-16.65-40.48-33-61.65-48.38-6-4.37-12.24-8.48-18.16-13-.2-.15-.41.17-.22.33,5.17,4,10.06,8.38,15.14,12.52s10.14,8.25,15.27,12.31c10.22,8.1,20.79,15.74,31.29,23.47,6,4.4,12,8.73,18.11,13.06C880.67,654.47,880.86,654.15,880.68,654Z"/><path class="cls-5" d="M811.92,613.5C795.8,635,779.6,656.33,763.56,677.83q-12,16.13-24.12,32.22c-3.55,4.71-7.08,9.1-13,10.77a59.76,59.76,0,0,1-8.94,1.48l-10,1.23c-26.47,3.26-52.94,6.57-79.42,9.78a150.93,150.93,0,0,1-19.92,1.46,255.66,255.66,0,0,1-28.35-2.43,154.86,154.86,0,0,0-35.92-1.91c-23.78,1.53-38.48,8.44-59.95,18.62q-4.1,1.94-8.11,4c-.23.12,0,.44.2.33,22-10.55,46.12-17.93,70.48-20.16,12.06-1.11,15.67-1,27.67.72,6.42.93,12.76,2.35,19.22,3,6.63.63,21.83.23,28.44-.47,13.31-1.41,26.58-3.24,39.86-4.88l39.88-4.91c6.61-.82,13.26-1.51,19.85-2.48,5.46-.81,10.45-2.36,14.41-6.38,4.19-4.25,7.46-9.57,11-14.37,4-5.54,8.13-11,12.2-16.56,15.92-21.55,31.7-43.2,47.53-64.81q3-4,5.95-8.11C812.76,613.6,812.18,613.17,811.92,613.5Z"/><path class="cls-22" d="M760.43,396c-5,3.34-104.95,132.43-105.65,139.75-.07.8,5.93,4.79,19.76,17.49.66.61,1.34,5.64,2,13.19,2.37,28.36,4.32,92.46,4.32,92.46l104.7-25.75L767.63,524,763,495.57s12.52-72.71,12.44-80.84S765.43,392.61,760.43,396Z"/><path class="cls-6" d="M760.43,396c-5,3.34-104.95,132.43-105.65,139.75-.07.8,5.93,4.79,19.76,17.49.66.61,1.34,5.64,2,13.19,17.13-8.26,69.75-32.58,91.12-42.43L763,495.57s12.52-72.71,12.44-80.84S765.43,392.61,760.43,396Z"/><path class="cls-2" d="M679.38,513.2a24,24,0,0,1,3.61,4.55,24.63,24.63,0,0,1,3.64,10.9,23,23,0,0,1-2,11.41,27.86,27.86,0,0,1-7.15,9.09c-.16.14-.37-.13-.21-.27,5.56-4.75,8.07-13.19,7.19-20.32a23.4,23.4,0,0,0-3.62-9.88,25.27,25.27,0,0,0-3.28-4,22.58,22.58,0,0,0-1.94-1.71c-.69-.54-1.33-.85-1.48-1.77a.84.84,0,0,1,.69-.93C676.35,509.9,678.37,512.21,679.38,513.2Z"/><path class="cls-2" d="M772.65,435.57c-2.23,2.89-5.74,4.55-9.17,5.57a46,46,0,0,1-11.3,1.8A44.88,44.88,0,0,1,741,442a45.57,45.57,0,0,1-5.3-1.45,18.61,18.61,0,0,1-5.11-2.26.33.33,0,0,1,.23-.59,47.49,47.49,0,0,1,4.77,1.31c1.78.45,3.58.82,5.39,1.09a57.88,57.88,0,0,0,10.68.64c7.2-.25,14.11-1.88,19.94-6.23C772.24,434,773.18,434.88,772.65,435.57Z"/><path class="cls-2" d="M760.69,513.12c-21.05,10.18-42.17,20.2-63.12,30.59-5.93,2.94-11.91,5.82-17.8,8.86-.19.11-.31-.2-.13-.31,20.25-11.75,40.84-22.9,62.26-32.41,6.07-2.7,12.24-5.18,18.42-7.61A.48.48,0,0,1,760.69,513.12Z"/><path class="cls-2" d="M683.29,552.45a1.4,1.4,0,0,1,.2.43,4.57,4.57,0,0,1,0,.52c0,.32.07.65.1,1,.06.7.11,1.39.12,2.08,0,1.36,0,2.71-.06,4.06,0,.19-.33.2-.34,0-.07-1.34-.2-2.68-.35-4-.07-.65-.13-1.3-.2-2,0-.34-.07-.69-.11-1a2.16,2.16,0,0,1,0-1A.33.33,0,0,1,683.29,552.45Z"/><path class="cls-2" d="M693.23,547.77a1.13,1.13,0,0,1,.2.43c0,.17,0,.34.06.52l.09,1c.06.7.11,1.39.12,2.08,0,1.36,0,2.71-.06,4.06,0,.19-.33.2-.34,0-.07-1.34-.2-2.68-.35-4-.07-.65-.13-1.31-.19-2l-.12-1a2.16,2.16,0,0,1,0-1A.33.33,0,0,1,693.23,547.77Z"/><path class="cls-2" d="M703.17,543.09a1.13,1.13,0,0,1,.2.43c0,.17,0,.34.06.52l.09,1c.06.7.11,1.39.13,2.08,0,1.36,0,2.71-.07,4.06,0,.19-.32.2-.33,0-.08-1.34-.21-2.68-.35-4-.08-.65-.14-1.31-.2-2,0-.34-.07-.69-.11-1a1.91,1.91,0,0,1,0-1A.32.32,0,0,1,703.17,543.09Z"/><path class="cls-2" d="M713.11,538.41a1.13,1.13,0,0,1,.2.43c0,.17,0,.34.06.52s.07.65.09,1c.07.7.11,1.39.13,2.08,0,1.36,0,2.71-.07,4.06,0,.19-.32.2-.33,0-.08-1.34-.2-2.68-.35-4-.07-.66-.13-1.31-.2-2,0-.34-.07-.69-.11-1a2,2,0,0,1,0-1A.32.32,0,0,1,713.11,538.41Z"/><path class="cls-2" d="M723.06,533.73a1.11,1.11,0,0,1,.19.43c0,.17,0,.34.06.51,0,.33.07.66.1,1,.06.7.11,1.39.12,2.08,0,1.36,0,2.71-.07,4.06,0,.19-.32.2-.33,0-.08-1.34-.2-2.68-.35-4-.07-.65-.13-1.3-.2-1.95,0-.34-.07-.69-.11-1a2.16,2.16,0,0,1,0-1A.33.33,0,0,1,723.06,533.73Z"/><path class="cls-2" d="M733,529.05a1.3,1.3,0,0,1,.2.43,4.4,4.4,0,0,1,0,.51c0,.33.07.66.1,1,.06.7.11,1.39.12,2.08,0,1.36,0,2.71-.06,4.06a.17.17,0,0,1-.34,0c-.07-1.33-.2-2.67-.35-4-.07-.65-.13-1.3-.2-2,0-.34-.07-.69-.11-1a2.16,2.16,0,0,1,0-1A.33.33,0,0,1,733,529.05Z"/><path class="cls-2" d="M742.94,524.37a1.13,1.13,0,0,1,.2.43c0,.17,0,.34.06.51l.09,1c.06.7.11,1.39.12,2.08,0,1.35,0,2.71-.06,4.06a.17.17,0,0,1-.34,0c-.07-1.34-.2-2.67-.35-4-.07-.65-.13-1.3-.19-1.95l-.12-1a2.21,2.21,0,0,1,0-1A.34.34,0,0,1,742.94,524.37Z"/><path class="cls-2" d="M752.88,519.69a1.13,1.13,0,0,1,.2.43c0,.17,0,.34.06.51l.09,1c.07.69.11,1.39.13,2.08,0,1.35,0,2.71-.07,4.06a.17.17,0,0,1-.33,0c-.08-1.34-.21-2.67-.35-4-.08-.65-.14-1.3-.2-2,0-.34-.07-.69-.11-1a2,2,0,0,1,0-1A.33.33,0,0,1,752.88,519.69Z"/><path class="cls-2" d="M762.82,515a1.13,1.13,0,0,1,.2.43c0,.17,0,.34.06.51,0,.33.07.66.1,1,.06.69.1,1.39.12,2.08,0,1.35,0,2.71-.07,4.06a.17.17,0,0,1-.33,0c-.08-1.34-.2-2.67-.35-4-.07-.65-.13-1.3-.2-1.95,0-.34-.07-.69-.11-1a2.21,2.21,0,0,1,0-1A.33.33,0,0,1,762.82,515Z"/><path class="cls-1" d="M773,554.54,667.34,577S680,724.91,679.55,726.6c0,0-62.49,7.06-105.67,4.69,0,0-64.09-31.57-113.68,22.9l-7,95.58c138.15,16.76,323.12,9,347.64-38.06C827.43,760.61,773,554.54,773,554.54Z"/><path class="cls-5" d="M679.3,725.92c-11.72,0-31.38,2.22-43.09,2.67s-31.79,1.14-43.4,1.74c-6.69.35-12.28-.07-18.94.57a.2.2,0,0,0,0,.39,592.84,592.84,0,0,0,77.49-1.36c6.69-.6,21.57-2.18,28.21-3.18C679.9,726.71,680.45,725.92,679.3,725.92Z"/><path class="cls-5" d="M567.28,721.21a84.57,84.57,0,0,0-14.53-12.77c-.18-.13-.39.17-.23.31a153.15,153.15,0,0,1,13,13.91c4.2,4.86,8.62,9.66,12.06,15.11a.11.11,0,1,0,.18-.11C574.66,731.91,571.57,726.2,567.28,721.21Z"/><path class="cls-5" d="M808.15,740.56c-.13-5.23-.59-10.44-1-15.65-.8-10.33-1.82-20.64-3.2-30.91-2.78-20.69-6.37-41.22-11-61.58-1.29-5.68-2.62-11.37-4.07-17s-2.81-11.6-4.93-17.1c-.16-.44-1-.39-.87.14.75,5,2.08,10,3.2,14.91s2.24,10,3.31,15.06q3.25,15.36,6,30.85c3.59,20.51,6.51,41.12,8.94,61.79.69,5.81,1.26,11.63,1.89,17.44.31,2.91,1.48,26.18,1.54,29.17,0,.25.41.23.39,0C808.09,765.05,808.33,748.32,808.15,740.56Z"/><path class="cls-5" d="M679.29,709.87c-.24-2.87-1.2-13.92-2.31-16-.06-.12-.23-.06-.27,0-.78,2.44.28,13.8.57,16.66s1.79,15.11,2.34,16.07a.2.2,0,0,0,.36-.06C680.39,725.35,679.54,712.73,679.29,709.87Z"/><path class="cls-5" d="M776.66,757.07c-.4-18.62-1.68-37.2-3.56-55.72-3.7-36.53-9.74-72.81-16.19-109q-1.18-6.64-2.38-13.3c0-.24-.42-.13-.38.12,6,36.14,12.24,72.29,16.33,108.73,2,18.09,3.6,36.24,4.37,54.43.38,8.82.6,17.66.55,26.5a101.61,101.61,0,0,1-2,22.08c-1.63,7.13-4.63,14-9.72,19.32s-11.85,8.82-18.77,11.25a167.47,167.47,0,0,1-23.37,5.86q-13.1,2.6-26.36,4.23c-35.35,4.44-71.09,4.48-106.65,3.76-36.46-.73-72.91-2.08-109.38-2.48-4.57,0-9.14-.11-13.71-.22-.25,0-.24.38,0,.39,18.81.58,37.6,1.4,56.41,2q27.95.86,55.89,1.65c36,1,72.12,1.48,108-2.32,17.29-1.84,34.7-4.46,51.53-8.9,7-1.85,14.08-4.26,20.25-8.21a37.61,37.61,0,0,0,13.81-15.58C777.75,788,777,771.83,776.66,757.07Z"/><path class="cls-5" d="M773.14,571.08c-25.83,4-51.59,8.31-77.12,13.95-7.27,1.61-14.46,3.52-21.77,5-.24,0-.14.42.11.38,6.44-1.19,12.94-2,19.41-3s12.91-2.1,19.35-3.24c12.84-2.27,25.57-5.09,38.32-7.81,7.28-1.56,14.54-3.21,21.8-4.86C773.49,571.4,773.38,571,773.14,571.08Z"/><path class="cls-5" d="M341.2,617.4c3,.33,15.93-1.36,24.75,10.31,8.35,11,11.71,44.94,13.57,52.3s11.57,8.34,14,16.9c2.07,7.35-3.27,10.14-3.75,15.57-.36,4.21,4,10.45.21,16.72-3.4,5.7-9.55,4.59-13.23,6.42s-5.86,10.43-12.68,12.84-13-3.76-16.61-3.67-7.79,11.31-19.67,10.51-15.45-10.8-20.38-12.71-17.18,1.68-22.89-4.36-6.79-14.2-9.36-17.18-7.85-2.41-11.1-9.33,3.17-11.43,4-17.49c.58-4.22-3.22-8-.68-14.5,3.49-8.89,14.33-7.15,18.32-16.29,3.14-7.16,9.38-38.21,28-46.1C326.49,611.89,341.2,617.4,341.2,617.4Z"/><path class="cls-5" d="M379.13,678.24a10.58,10.58,0,0,0,3.23,3.93l3.91,3.29c2.59,2.14,5.21,4.36,6.94,7.12a10.24,10.24,0,0,1,1.27,9,15.45,15.45,0,0,1-2.42,4.16,18.37,18.37,0,0,0-2.87,4.54c-.65,2.05,0,4,.56,5.58s1.21,3.19,1.7,4.77c1,3.12,1.29,6.46-.17,9.31a7,7,0,0,1-3.21,3.23,12.71,12.71,0,0,1-4.72,1.1c-1.66.14-3.36.11-5.07.16s-3.54.15-4.93,1.2c1.5-.86,3.26-.74,4.92-.68s3.39.27,5.12.27a13.52,13.52,0,0,0,5.2-.93,8.29,8.29,0,0,0,4-3.66c1.95-3.21,1.53-7.24.55-10.51-.49-1.67-1.11-3.28-1.63-4.86s-.93-3.12-.48-4.37c1-2.72,4-5.19,5.11-8.73a11.46,11.46,0,0,0-1.7-10.4,32.67,32.67,0,0,0-7.6-7l-4.17-2.94A11.5,11.5,0,0,1,379.13,678.24Z"/><path class="cls-5" d="M296.6,635c-3.16,5.26-5.09,11.1-7.55,16.63-1.24,2.76-2.38,5.57-3.8,8.2a20.42,20.42,0,0,1-2.38,3.62,2.79,2.79,0,0,1-.7.68,3.27,3.27,0,0,1-.81.55c-.63.35-1.3.66-2,1a88.58,88.58,0,0,0-8.3,4,15.61,15.61,0,0,0-6.59,6.79,9.65,9.65,0,0,0-.88,4.78,12.65,12.65,0,0,0,1.45,4.51c1.46,2.68,2.84,5.37,3,8.47.33-3.09-.95-6.11-2.1-8.87a11.67,11.67,0,0,1-1.09-4.19,8.27,8.27,0,0,1,1-4,15.12,15.12,0,0,1,6.13-5.91,88.41,88.41,0,0,1,8.22-3.76c.7-.33,1.4-.67,2.09-1.07a6.46,6.46,0,0,0,2-1.66,22.1,22.1,0,0,0,2.55-4,73.83,73.83,0,0,0,3.62-8.47l3-8.63A80.23,80.23,0,0,1,296.6,635Z"/><path class="cls-5" d="M272.21,719c1.32,1.73,1.52,4,2.05,6.09s1,4.25,1.57,6.37a31.87,31.87,0,0,0,2.38,6.25,14.37,14.37,0,0,0,4.42,5.33c4.19,2.59,9.1,2.21,13.35,1.37,2.16-.43,4.27-1,6.39-1.35a13.54,13.54,0,0,1,6.39-.07c-2-1-4.33-1-6.51-.88s-4.36.58-6.5.82c-4.2.51-8.7.64-12.05-1.52a12.88,12.88,0,0,1-3.88-4.57,40.35,40.35,0,0,1-2.57-5.84c-.76-2-1.4-4.09-2.08-6.17-.37-1-.74-2.06-1.16-3.08A6.47,6.47,0,0,0,272.21,719Z"/><path class="cls-22" d="M201.93,798.1s-30,21.95-31.14,23.53,1.11,3.23,2.78,4.57a19.72,19.72,0,0,0,3.63,1.37c5.82,1.91,16,5.52,12.33,12.32-4.85,8.94-27.77.88-31.15-.95a11.77,11.77,0,0,1-3.38-3.79c-3.3-5.18-6.53-14.31-3.11-20.91,4.68-9,13.48-15.93,20.7-22.44Z"/><path class="cls-5" d="M201.93,798.1s-30,21.95-31.14,23.53,1.11,3.23,2.78,4.57a19.72,19.72,0,0,0,3.63,1.37c-7.89,2.73-16.62,5.71-22.2,7.58-3.3-5.18-6.53-14.31-3.11-20.91,4.68-9,13.48-15.93,20.7-22.44Z"/><path class="cls-22" d="M244.11,827.44c-2.08.63-19,8.79-31.71,15-9.83-4.77-30.52-12-36-13.91-5.73-3.19-19.77-6.75-20-6.14-.4,1.13-1.8,5.15-3.88,9.89-2.77,6.26-6.71,13.79-11.08,17.62-2.39,2.09-4.86,3.08-7.37,2.22-4.49-1.55-1.5-11.53,1-23.65,3.38-16.52,8.44-36.62,16.42-40.95,11.78-6.41,31.87-4.24,37.92-4.29s30.8-4.86,30.8-4.86C247.12,796.93,246.89,826.57,244.11,827.44Z"/><path class="cls-23" d="M177.36,776.74s3-12.14-5.49-13.48-9.39,11.11-9.39,11.11Z"/><rect class="cls-6" x="155.56" y="774.53" width="15.07" height="87.86" transform="translate(195.63 1652.37) rotate(-170.96)"/><rect class="cls-7" x="167.3" y="784.16" width="0.98" height="73.95" transform="translate(204.47 1658.43) rotate(-170.96)"/><rect class="cls-7" x="163.97" y="783.63" width="0.98" height="73.95" transform="translate(198.11 1656.84) rotate(-170.97)"/><rect class="cls-7" x="160.64" y="783.1" width="0.98" height="73.95" transform="translate(191.41 1655.27) rotate(-170.96)"/><rect class="cls-7" x="157.3" y="782.57" width="0.98" height="73.95" transform="translate(185.02 1653.69) rotate(-170.97)"/><rect class="cls-1" x="161" y="774.58" width="17.6" height="3.49" transform="translate(215.57 1569.69) rotate(-170.96)"/><rect class="cls-1" x="160.39" y="778.4" width="17.6" height="3.49" transform="matrix(-0.99, -0.16, 0.16, -0.99, 213.77, 1577.17)"/><path class="cls-10" d="M148.75,860.65l3.9,11.61,1.27,3.82,2.43-3.24,7.3-9.82-1.16-2.4s-1.78,1.9-1.82,1.93l-1.16-2.4s-1.78,1.9-1.82,1.93l-1.13-2.4s-1.81,1.89-1.85,1.92l-1.13-2.39s-1.81,1.89-1.85,1.92l-1.13-2.4S148.79,860.63,148.75,860.65Z"/><polygon class="cls-1" points="152.65 872.25 153.92 876.09 156.35 872.84 152.65 872.25"/><path class="cls-22" d="M212.4,842.4c-4.34,2.11-8.18,4-10.75,5.43-10.14,5.45-17.54,5.19-25.24,3.75s-28.46,9.51-25.51-3,28.52-14.59,27.85-18c-.13-.64-1-1.37-2.34-2.11C181.88,830.42,202.57,837.63,212.4,842.4Z"/><path class="cls-5" d="M172.61,826.75c-.3-.08-.31.12,0,.27,1,.45,5.31,2.54,4.95,3.58-.61,1.82-11.81,5.16-16.27,7.38-.24.12-.09.47.13.34a72.76,72.76,0,0,1,7.25-2.55c2.29-.77,9.44-2.61,10.22-4.9C179.4,829.34,173.76,827,172.61,826.75Z"/><path class="cls-22" d="M353.34,735.43c-13.46,27.49-39.4,60-46.7,69.09-13,16.16-65.25,26.61-84.28,33.09-8.22,2.79-28.84-52.07-20.11-55.21,6.27-2.26,62.13-11.52,66.83-14.71,4.92-3.35,33.69-27.64,58.25-44.82C361.79,698.77,362.5,716.73,353.34,735.43Z"/><path class="cls-6" d="M284.91,750.22l53.52,16.61s14.54-24.12,20.7-38.61c8.15-19.16,2.94-26.69-20.05-15.57C323.7,720.08,284.91,750.22,284.91,750.22Z"/><path class="cls-2" d="M362.63,713s0,0,0,0a3.06,3.06,0,1,1-2.89-4,3.13,3.13,0,0,1,1.2.24s0,0,0,0A6.47,6.47,0,0,1,362.63,713Zm-62.1,41.87a1.5,1.5,0,0,0-.43,0l2.48.77A3,3,0,0,0,300.53,754.9Zm29.6,0a3.06,3.06,0,1,0,3.06,3.06A3.06,3.06,0,0,0,330.13,754.89Zm-14.8-22.24a3.06,3.06,0,1,0,3.06,3.05A3.05,3.05,0,0,0,315.33,732.65Zm29.6,0A3.06,3.06,0,1,0,348,735.7,3,3,0,0,0,344.93,732.65Z"/><path class="cls-5" d="M291.92,746.83c7.95,1.88,15.86,3.87,23.7,6.21q5.85,1.76,11.66,3.69c3.87,1.28,7.61,3,11.49,4.19a.18.18,0,0,1-.12.33c-3.8-1.43-7.84-2.35-11.72-3.57s-7.79-2.43-11.69-3.61c-7.8-2.35-15.6-4.73-23.44-6.91C291.58,747.1,291.7,746.78,291.92,746.83Z"/><path class="cls-7" d="M359.12,728.23c-6.15,14.48-20.69,38.61-20.69,38.61l-30.68-9.53,41.36-48.7C363.44,704.38,365.92,712.26,359.12,728.23Z"/><path class="cls-6" d="M453.16,849.77s20.75-26.41,16.3-125.29c0,0-24.88,4-31.41,2.68-19.8-3.86-34.64-14.82-57.44-23.31S342.07,702,333,717.5c-2.25,3.87-11.2,56.93-3.07,77,6.38,15.75,35.3,19.72,35.3,19.72S424.87,850.17,453.16,849.77Z"/><path class="cls-5" d="M383.54,792.54a72,72,0,0,0-12.39,7.75c-1.92,1.55-3.75,3.23-5.56,5-.9.87-1.82,1.69-2.76,2.5a11.12,11.12,0,0,1-3.15,2.12c-.1,0,0,.26.08.23a17.8,17.8,0,0,0,3.31-1.23,17.59,17.59,0,0,0,2.89-1.94c2-1.54,3.85-3.22,5.8-4.8,3.93-3.18,7.85-6.35,12-9.08C384,792.93,383.74,792.44,383.54,792.54Z"/><path class="cls-5" d="M396.64,794.46a74.12,74.12,0,0,0-11.48,3.06,49.72,49.72,0,0,0-5.45,2.39c-.85.43-1.69.88-2.53,1.35s-1.75,1.2-2.68,1.7c-.1,0,0,.28.08.23.89-.43,1.87-.64,2.79-1l2.77-1.06c1.84-.71,3.7-1.38,5.54-2.11,3.68-1.46,7.37-2.86,11.12-4.13C397,794.83,396.84,794.42,396.64,794.46Z"/><path class="cls-2" d="M362.8,712.07a3.06,3.06,0,1,1-3.06-3.06A3.05,3.05,0,0,1,362.8,712.07ZM389.34,709a3.06,3.06,0,1,0,3.06,3.06A3.05,3.05,0,0,0,389.34,709Zm-59.21,45.88a3.06,3.06,0,1,0,3.06,3.06A3.06,3.06,0,0,0,330.13,754.89Zm29.61,0A3.06,3.06,0,1,0,362.8,758,3.06,3.06,0,0,0,359.74,754.89Zm29.6,0A3.06,3.06,0,1,0,392.4,758,3.05,3.05,0,0,0,389.34,754.89Zm29.61,0A3.06,3.06,0,1,0,422,758,3.06,3.06,0,0,0,419,754.89Zm29.61,0a3.06,3.06,0,1,0,3.05,3.06A3.06,3.06,0,0,0,448.56,754.89ZM344.93,732.65A3.06,3.06,0,1,0,348,735.7,3,3,0,0,0,344.93,732.65Zm29.61,0a3.06,3.06,0,1,0,3.06,3.05A3.05,3.05,0,0,0,374.54,732.65Zm29.61,0a3.06,3.06,0,1,0,3.05,3.05A3.05,3.05,0,0,0,404.15,732.65Zm29.6,0a3.06,3.06,0,1,0,3.06,3.05A3.05,3.05,0,0,0,433.75,732.65Zm29.61,0a3.06,3.06,0,1,0,3.06,3.05A3.05,3.05,0,0,0,463.36,732.65ZM359.74,800.77a3.06,3.06,0,1,0,3.06,3.06A3.06,3.06,0,0,0,359.74,800.77Zm29.6,0a3.06,3.06,0,1,0,3.06,3.06A3.05,3.05,0,0,0,389.34,800.77Zm29.61,0a3.06,3.06,0,1,0,3.06,3.06A3.06,3.06,0,0,0,419,800.77Zm29.61,0a3.06,3.06,0,1,0,3.05,3.06A3.06,3.06,0,0,0,448.56,800.77ZM344.93,778.53a3.06,3.06,0,1,0,3.06,3.06A3.06,3.06,0,0,0,344.93,778.53Zm29.61,0a3.06,3.06,0,1,0,3.06,3.06A3.06,3.06,0,0,0,374.54,778.53Zm29.61,0a3.06,3.06,0,1,0,3.05,3.06A3.06,3.06,0,0,0,404.15,778.53Zm29.6,0a3.06,3.06,0,1,0,3.06,3.06A3.06,3.06,0,0,0,433.75,778.53Zm29.61,0a3.06,3.06,0,1,0,3.06,3.06A3.06,3.06,0,0,0,463.36,778.53Zm-14.81,68.13a3,3,0,0,0-3,2.49,46.17,46.17,0,0,0,6.05.6v0A3.05,3.05,0,0,0,448.55,846.66Zm-44.4-22.25a3.06,3.06,0,1,0,3.05,3.06A3.06,3.06,0,0,0,404.15,824.41Zm29.6,0a3.06,3.06,0,1,0,3.06,3.06A3.06,3.06,0,0,0,433.75,824.41Zm26.55,3.05a3,3,0,0,0,1.17,2.41c.49-1.68,1-3.48,1.45-5.42A3,3,0,0,0,460.3,827.46Z"/><path class="cls-22" d="M362.35,714.91c-.17,2.57-9.33,20.62-20.75,22-3.71.43-7-19.76-7-19.76l-.59-1.43-8.13-20.1,21.91-19.8,3.2-2.67s1.86,5.64,4.11,12.69c.1.33.21.66.32,1s.27.77.38,1.14c.35,1,.7,2.12,1,3.2.25.82.51,1.61.74,2.48s.49,1.71.75,2.58C360.7,704.8,362.4,713.82,362.35,714.91Z"/><path class="cls-5" d="M355.12,685.81A43.47,43.47,0,0,1,334,715.69l-8.13-20.1,21.91-19.8,3.2-2.67S352.87,678.76,355.12,685.81Z"/><path class="cls-22" d="M289.83,673.26c8.51,37.08,31.68,36.18,39.68,34.34,7.26-1.68,31.76-8.3,27.13-46.07S332.08,616,315.28,618.94,281.33,636.17,289.83,673.26Z"/><path class="cls-5" d="M295.67,669.08a25.8,25.8,0,0,0,2.33-1.22,4.23,4.23,0,0,0,2.14-1.69,1.36,1.36,0,0,0-.45-1.59,3.35,3.35,0,0,0-3.39.13,5,5,0,0,0-2.52,2.51A1.45,1.45,0,0,0,295.67,669.08Z"/><path class="cls-5" d="M320.57,657.22a25.6,25.6,0,0,1-2.62.17,4.26,4.26,0,0,1-2.71-.34,1.35,1.35,0,0,1-.44-1.6,3.35,3.35,0,0,1,3-1.64,5,5,0,0,1,3.45.85A1.44,1.44,0,0,1,320.57,657.22Z"/><path class="cls-5" d="M318.18,671.53c0-.1.22.07.25.17.55,2.53,1.62,5.34,4.1,5.6.08,0,.1.13,0,.14C319.67,677.76,318.3,674,318.18,671.53Z"/><path class="cls-5" d="M319.75,668.34c4-1.33,6.34,6.69,2.67,7.92S316.43,669.45,319.75,668.34Z"/><path class="cls-5" d="M321.45,668.3c.84.24,1.76.84,2.63.68s1.5-1.25,1.9-2.25c0-.1.13-.05.16,0,.48,1.53.35,3.28-1.23,4s-2.92-.39-3.76-1.82C321,668.69,321.12,668.2,321.45,668.3Z"/><path class="cls-5" d="M303.08,675c-.05-.09-.16.18-.13.28.84,2.45,1.37,5.4-.62,6.91-.06,0,0,.17.07.13C305,681.12,304.26,677.21,303.08,675Z"/><path class="cls-5" d="M300.08,673.1c-4.08.91-2,9,1.82,8.16S303.5,672.34,300.08,673.1Z"/><path class="cls-5" d="M298.53,674.08c-.53.59-1,1.54-1.71,1.79s-1.75-.42-2.54-1.11c-.08-.07-.12,0-.1.12.36,1.56,1.3,3,2.86,3s2.07-1.68,2-3.31C299.07,674.22,298.74,673.84,298.53,674.08Z"/><path class="cls-5" d="M322.59,691c-.39.78-.7,1.77-1.57,2.15a6.79,6.79,0,0,1-2.84.3.09.09,0,0,0-.06.16,3.46,3.46,0,0,0,3.56.25,2.74,2.74,0,0,0,1.18-2.83C322.85,690.83,322.64,690.84,322.59,691Z"/><path class="cls-5" d="M309.62,684.89s.53,3.87,1,5.63c.05.16.5.12,1.1,0a.06.06,0,0,0,.07,0,8.69,8.69,0,0,0,7.23-5.42.19.19,0,0,0-.33-.16,13.16,13.16,0,0,1-7,4.34c-.26-.45-.7-6.66-1-6.6a15.68,15.68,0,0,0-3.73,2c-1.35-8-1.41-16.21-2.88-24.18a.25.25,0,0,0-.49,0c-.55,8.57.81,17.85,2,26.17C305.75,687.73,309,685.39,309.62,684.89Z"/><path class="cls-5" d="M357,664.92a15.64,15.64,0,0,1-12.39-9.25,40.82,40.82,0,0,1-20.07-7.34c.49.66,4.05,5.42,5.94,7.79-24.26,3.49-37.25-11.58-37.25-11.58-4.89,9.9-4.77,15.13-5,17.85,0,0-4.92-13.94-.9-25.76,4.91-14.47,17.66-16.37,17.66-16.37a34.07,34.07,0,0,1,34.78-1C360.05,630.37,357,664.92,357,664.92Z"/><path class="cls-5" d="M311.86,658.23a44.76,44.76,0,0,0,13.17.33,0,0,0,0,0,0-.06,37.83,37.83,0,0,1-20.19-4.44,35.81,35.81,0,0,1-7.26-5.21,24.84,24.84,0,0,1-6-7.66.19.19,0,0,0-.34.15,28.75,28.75,0,0,0,4.86,8.37,26.31,26.31,0,0,0,7.63,5.83,30.52,30.52,0,0,0,8.12,2.69"/><path class="cls-6" d="M324.34,683.94a11.82,11.82,0,0,1-12.91-10.59h0a11.8,11.8,0,1,1,12.91,10.59ZM313,673.19A10.23,10.23,0,1,0,322.17,662a10.77,10.77,0,0,0-2.48.56A10.25,10.25,0,0,0,313,673.19Z"/><path class="cls-6" d="M300.05,689.57c-4.71,1.11-9.76-3.15-11.25-9.48a14.12,14.12,0,0,1,.54-8.61,7.35,7.35,0,0,1,12.25-2.88,14.13,14.13,0,0,1,4.32,7.47c1.41,6-.87,11.74-5.12,13.28A6.29,6.29,0,0,1,300.05,689.57Zm-9.26-17.48a12.59,12.59,0,0,0-.46,7.64c1.29,5.48,5.49,9.21,9.36,8.3s6-6.11,4.68-11.6a12.47,12.47,0,0,0-3.81-6.63,6.29,6.29,0,0,0-5.55-1.68c-.19,0-.38.1-.57.17A6.52,6.52,0,0,0,290.79,672.09Z"/><path class="cls-6" d="M312.13,674.59l.71-1.41c-2.09-1-6.58-2.08-8.68,1.59l1.37.78C307.4,672.27,311.94,674.49,312.13,674.59Z"/><path class="cls-6" d="M364,665.52l1.2-1c-.48-.56-4.78-5.46-8.35-5.21-3.32.25-23.46,7-24.32,7.3l.51,1.5c5.77-2,21.35-7,23.92-7.22C359.35,660.69,362.87,664.17,364,665.52Z"/><path class="cls-22" d="M351.4,665.73s4.26-13.85,10.3-12.68,5.38,19.46.08,23.65a6.44,6.44,0,0,1-9.27-.65Z"/><path class="cls-5" d="M361.38,658.29a.09.09,0,0,1,.08.15c-3.67,3.07-4.63,7.7-4.88,12.26.76-2,2.19-3.37,4.76-2.55.14,0,.09.25,0,.26a4,4,0,0,0-3.72,2.65,18.7,18.7,0,0,0-.9,4c-.08.44-.83.45-.82,0v-.1C354,669.58,355.77,660.69,361.38,658.29Z"/><path class="cls-5" d="M335.08,618.41c-3.31-.53-9.7-17.15,0-27.64,9.52-10.32,26.06-4,22.82,11.3C355.81,611.77,342.1,619.53,335.08,618.41Z"/><path class="cls-5" d="M350.66,586.57a19.71,19.71,0,0,1,8.73,9.6,11.87,11.87,0,0,1-1.2,11.79c-2.38,3.5-6.16,5.95-10.14,7.76a37,37,0,0,1-6.3,2.1,18,18,0,0,1-6.67.59,15.9,15.9,0,0,0,6.86.62,29.18,29.18,0,0,0,6.82-1.49,23.13,23.13,0,0,0,11.48-8.15,13.85,13.85,0,0,0,2.49-6.93,14,14,0,0,0-1.57-7.1A17.35,17.35,0,0,0,350.66,586.57Z"/><path class="cls-22" d="M397.23,716.12c37.61,32.26,91.33,89,76.68,107.24-24.09,30-106.29,61.8-125.32,68.28-8.21,2.79-36.72-48.72-32.6-57s93-32.35,92.5-38c-.3-3.21-13.29-28.53-29.14-60.1C361.07,700.1,386.46,706.89,397.23,716.12Z"/><path class="cls-22" d="M329.77,827s-25.86,5.26-42.61,9.49c-9.35,2.36-25,7.84-31.09,12.72-9.08,7.29-42.41,43.59-33.78,51.86,7.81,7.49,32.48-27.34,32.48-27.34s-28,32.94-16.94,40.23,33.71-35.77,33.71-35.77-28,34.49-15.42,40.2c9.52,4.31,32.22-33.53,32.22-33.53s-23.87,29.82-14.27,34.67c10.6,5.37,33.76-28.24,33.76-28.24,26.47,8.24,42.45,1.34,53.23-4.93C363.67,884.8,329.77,827,329.77,827Z"/><path class="cls-5" d="M263.73,861.67c-3.43,3.75-6.93,7.52-10,11.57s-6,8.19-8.73,12.5c-6.61,10.58-9.09,18.23-8.89,17.78,4.85-10.79,15.67-25.43,18.76-29.48s5.95-8.22,9-12.26C264,861.68,263.81,861.58,263.73,861.67Z"/><path class="cls-5" d="M278.53,872.54c-4.17,5-8.5,9.77-12.45,14.94s-7.22,10.35-10.79,15.75c-.27.42,0,.43.33,0,3.78-5.25,7.69-9.81,11.53-15s7.49-10.56,11.5-15.61C278.72,872.56,278.59,872.47,278.53,872.54Z"/><path class="cls-5" d="M292.91,879.59c-6.77,7.28-12.18,15.8-17.29,24.29-.26.42.15.39.43,0,5.6-8.18,9.93-14.64,17.11-24C293.27,879.68,293.05,879.44,292.91,879.59Z"/><path class="cls-6" d="M445.79,756.49l-54.89,11.3s-12.11-25.43-16.82-40.45c-6.25-19.87-.33-26.85,21.47-13.54C410.13,722.7,445.79,756.49,445.79,756.49Z"/><path class="cls-2" d="M392.39,712v.11a3,3,0,0,1-6.1,0,3.1,3.1,0,0,1,1.34-2.55q2.22,1,4.74,2.44Zm-3.05,42.93A3.06,3.06,0,1,0,392.4,758,3.05,3.05,0,0,0,389.34,754.89Zm29.61,0A3.06,3.06,0,1,0,422,758,3.06,3.06,0,0,0,419,754.89ZM376,733c.44,1.2.89,2.44,1.38,3.7a2.7,2.7,0,0,0,.2-1A3.07,3.07,0,0,0,376,733Zm28.13-.38a3.06,3.06,0,1,0,3.05,3.05A3.05,3.05,0,0,0,404.15,732.65Z"/><path class="cls-5" d="M397.6,766.43c-.61,0-6.29,1-6.67,1.17-1.35-3-7.85-17.1-8.57-18.54a.17.17,0,1,0-.32.13c.33.87,1.58,4.16,3,7.84l-.11-.13c-.51-.6-1.06-1.16-1.6-1.73s-1-1.26-1.54-1.9c-.16-.19-.46.07-.29.27.51.59,1.06,1.17,1.52,1.8s.84,1.21,1.3,1.79.93,1.14,1.39,1.72l.07.08c1.62,4.15,3.3,8.36,4.05,9.86.12.24,7.26-1.93,7.82-2.17C397.75,766.58,397.7,766.43,397.6,766.43Z"/><path class="cls-5" d="M439.15,752.43c-8.1,1.09-16.17,2.3-24.19,3.86q-6,1.19-12,2.53c-4,.9-7.87,2.21-11.84,3.06a.17.17,0,0,0,.08.33c3.93-1.05,8-1.57,12-2.41s8-1.65,12-2.44c8-1.59,16-3.19,24-4.59C439.46,752.73,439.37,752.4,439.15,752.43Z"/><path class="cls-5" d="M420.1,732.79a.09.09,0,0,0-.11.13c1.64,2.17,19.62,19.09,25.13,23.31a36.13,36.13,0,0,0-4.17,1.28,34.6,34.6,0,0,0,5.63-1C446.69,756.45,422.5,734.19,420.1,732.79Z"/></svg>