<svg id="Слой_1" data-name="Слой 1" xmlns="http://www.w3.org/2000/svg" viewBox="0 0 923 1000"><defs><style>.cls-1{fill:#fff;}.cls-2{fill:#c8c8c8;}.cls-3,.cls-7{fill:#ffc800;}.cls-4{fill:#4a148c;}.cls-5{fill:#dcdcdc;}.cls-6{fill:#a8a8a8;}.cls-7{opacity:0.4;}.cls-8{fill:none;stroke:#fff;stroke-miterlimit:10;stroke-width:3px;}.cls-9{isolation:isolate;}.cls-10{fill:#306;}.cls-11,.cls-12{opacity:0.1;}.cls-13{fill:#1a2e35;}.cls-14{fill:#ff9581;}.cls-15{fill:#ececec;}.cls-16{fill:#ff9abd;}.cls-17{opacity:0.2;}</style></defs><rect class="cls-1" x="-108.67" y="110.49" width="946.04" height="670.74"/><path class="cls-2" d="M837.37,781.23c-.15.15-946.22.25-946.4.36s.08-671-.13-671.1V110h.49c.12-.13,946.19.29,946.33.2.22.16-.45,670.81-.29,671Zm0,0c.09.15-.7-672,0-670.45l-946,.2.5-.49c-.08-.17.36,672.33-.5,670.37l946,.37Z"/><rect class="cls-3" x="-108.67" y="110.49" width="1042.17" height="109.28"/><rect class="cls-4" x="-108.67" y="110.49" width="1042.17" height="17.36"/><rect class="cls-5" x="818.32" y="219.77" width="19.05" height="561.46"/><path class="cls-6" d="M827.83,414.42h0c-2.72,0-4.92-1.89-4.92-4.23V227.28c0-2.33,2.2-4.22,4.92-4.22h0c2.72,0,4.92,1.89,4.92,4.22V410.19C832.75,412.53,830.55,414.42,827.83,414.42Z"/><path class="cls-3" d="M43.19,540.46a17.4,17.4,0,0,1,24.37-2.34c14.69,12,40.06,26,63.76,25.7,16.69,0,31.71-5,41.73-12.35s14.35-15.69,14.35-24a19.09,19.09,0,0,0-3-10.69,31.44,31.44,0,0,0-10-10c-9.68-6.35-26-12-45.73-15.69H128c-15.69-3-30.38-7-43.06-13s-23.71-14.36-31.05-26a51.22,51.22,0,0,1-7.68-27.38c0-20,11.35-37.39,26.71-48.74,15.69-11.35,36.05-17.69,57.75-17.69,32,0,55.75,15.69,72.78,26.71,7.68,5.34,10,16,4.67,23.7a16.86,16.86,0,0,1-23.7,5c-17-11.35-33.38-21.37-53.75-21.37-15,0-28.37,4.68-37.39,11.35s-12.68,14-12.68,21c0,4,.66,6.68,2.33,9.35s4.68,5.68,9,8.68c8.68,6,23.7,11.35,41.73,14.69h.66c17,3.34,32.72,7.68,46.07,14,13.69,6.68,25.71,15.36,33.39,27.71a54.2,54.2,0,0,1,8,28.38c0,21.36-12,39.72-28.71,51.74-16.36,12-38.06,19-61.76,19-36-.34-66.43-18.36-85.46-33.39A17.74,17.74,0,0,1,43.19,540.46Z"/><path class="cls-3" d="M273.2,580.18v-197a18.1,18.1,0,0,1,18.36-18.36H400.73a18.52,18.52,0,0,1,18.36,18.36c0,10.35-8.68,18.69-18.36,18.69H310.26V463H388a18.53,18.53,0,0,1,0,37.05H310.26v61.43h90.47c9.68,0,18.36,8.34,18.36,18.69a18.74,18.74,0,0,1-18.36,18.36H292.56c-.66,0-.66-.33-.66-.33l-.34.33A18.3,18.3,0,0,1,273.2,580.18Z"/><path class="cls-3" d="M655.44,393.9a122.64,122.64,0,0,1,0,168.92c-19.69,21.7-49.07,35.72-79.78,35.72a112.67,112.67,0,0,1-81.79-35.72c-20.7-21.7-33.05-51.41-33.05-84.46s12.35-62.43,33.05-84.46a111.41,111.41,0,0,1,81.79-35.72A108.1,108.1,0,0,1,655.44,393.9Zm-4.34,84.46a86.47,86.47,0,0,0-22.7-58.42c-14-15-32.71-23.7-52.74-23.7-21.37,0-40.07,8.68-54.09,23.7-14,14.69-22.7,35.72-22.7,58.42s8.68,43.73,22.7,58.09c14,15,32.72,24,54.09,24,20,0,38.72-9,52.74-24C642.09,522.09,651.1,501.06,651.1,478.36Z"/><rect class="cls-1" x="143.5" y="679.46" width="572.86" height="141.3"/><path class="cls-2" d="M716.36,679.46s0,141.3,0,141.34-572.9.19-572.91.2c-.77.07.08-141.31-.2-141.75,0-.07,573,.26,573.06.21Zm0,0-572.86.2c.19-1.51.63,142.56,0,140.84,0,0,573.06.11,572.81.25l.05-141.29Z"/><circle class="cls-7" cx="364.35" cy="750.1" r="49.91" transform="translate(-255.92 192.73) rotate(-22.15)"/><circle class="cls-8" cx="364.35" cy="750.1" r="34.5" transform="translate(-449.71 930.97) rotate(-76.62)"/><path class="cls-3" d="M364.35,787.66a37.56,37.56,0,0,1,0-75.12v6.12a31.45,31.45,0,1,0,30,40.94l5.82,1.85A37.4,37.4,0,0,1,364.35,787.66Z"/><circle class="cls-7" cx="498.45" cy="750.1" r="49.91" transform="translate(-246.03 243.29) rotate(-22.15)"/><circle class="cls-8" cx="498.45" cy="750.1" r="34.5" transform="translate(-343.11 1070.87) rotate(-77.26)"/><path class="cls-3" d="M498.45,787.66a37.56,37.56,0,1,1,0-75.12v6.12A31.41,31.41,0,1,0,528,739.26l5.74-2.1a37.56,37.56,0,0,1-35.26,50.5Z"/><circle class="cls-7" cx="632.55" cy="750.1" r="49.91" transform="translate(-236.13 293.84) rotate(-22.15)"/><circle class="cls-8" cx="632.55" cy="750.1" r="34.5" transform="translate(-262.21 1152.82) rotate(-74.09)"/><path class="cls-3" d="M620.42,785.65a37.56,37.56,0,0,1,12.13-73.11v6.12a31.45,31.45,0,0,0-10.15,61.21Z"/><g class="cls-9"><path class="cls-2" d="M749.17,516l-.35-.11-.32-.12-6.36-2.22-.38-.12-3.63-1.27-.43-.14-5.76-2-.47-.17L728,508.56l-.52-.17h0l-6.64-2.31-.56-.2-4-1.39-.62-.21-5-1.72-.67-.23-4.36-1.53-.7-.23-6-2.09-.62-.23-4.57-1.59-.61-.21-4.39-1.53-.52-.18-5-1.75-.5-.18-4.35-1.5-.42-.16L671.81,489l-.44-.16L665,486.63l-.35-.13-4.94-1.72-.32-.11L653,482.44l-.27-.09-5.38-1.87-.24-.09-5.64-2,5.37-1.72.23-.07,6.18-2,.28-.08,5.31-1.72.31-.09,6.77-2.17.38-.14,4.53-1.45.41-.13,10-3.22.49-.15,2.5-.8.52-.17,9.73-3.13.6-.19h0l2.13-.69.64-.2,10-3.21v0l.76-.23,2.24-.72.73-.24L722,452.5l.77-.25,1.22-.39.72-.24,11.59-3.72.67-.21v0l1.06-.32.62-.21,11.53-3.71c.09.33.19.65.29,1h0c.08.28.17.54.25.82h0l.06.25h0c.11.33.2.65.29,1a120.18,120.18,0,0,1,4.23,25.07h0c0,.34,0,.67.07,1h0a105.28,105.28,0,0,1,0,11.65c0,.75-.08,1.49-.15,2.24v0A122.85,122.85,0,0,1,749.17,516Z"/><path class="cls-5" d="M647,476.64l.28,3.84-.24-.09-.27-3.68Zm6.18-2-.52,7.71.27.09.53-7.88Zm5.9-1.89-.31.09.54,11.83.32.11Zm6.77-2.17L664.6,486.5l.35.13,1.31-16.19Zm5.32-1.72-.41.13.58,19.87.44.16Zm8.34,9.69-1.6,12.59.42.16L680,478.61l1.67-13.12-.49.15Zm5.14-14-.52.17-1.45,28.11.5.18Zm3.54,30.21.52.18L695,461.2l-.6.19Zm8.93-34.23-4,35.94.61.21,4-36.35Zm10.64-3.41-9.48,41.15.62.23,9.63-41.63-.76.23Zm3-1L705,500.56l.7.23,5.88-44.91ZM722,452.5l-12,49.82.67.23,12.13-50.3Zm2-.64-8.4,52.41.62.21,8.5-52.86Zm12.31-4-16.11,58,.56.2L737,447.69Zm1.73-.55-10.64,61h0l.52.17,10.74-61.42Zm12.68-2.11c-.08-.28-.17-.54-.25-.82l-19,65.37.47.17,18.81-64.71Zm.06.27L737.7,512l.43.14,13-65.62C751,446.16,750.92,445.84,750.81,445.51Zm4.59,27.08c0-.35,0-.68-.07-1l-13.57,41.81.38.12,13.25-40.9Zm0,11.66-6.86,31.47.32.12,6.39-29.32v0C755.28,485.74,755.33,485,755.36,484.25Z"/><polygon class="cls-6" points="749.17 515.95 740.04 514.97 632.3 477.45 641.43 478.43 749.17 515.95"/><polygon class="cls-6" points="641.43 478.43 632.3 477.45 741.09 442.46 750.22 443.44 641.43 478.43"/></g><g class="cls-9"><path class="cls-4" d="M581.19,361.15l-.76,117.34,110.15-35.55C675.12,393.53,632.26,361.48,581.19,361.15Z"/><path class="cls-10" d="M584.57,361.21,581.16,367v-.67l3-5.1Zm3.49.17-7,15.5v.9l7.37-16.37C588.33,361.39,588.19,361.39,588.06,361.38Zm12.7,1.49L581,395.3v.85L601.25,363Zm2.76.52-22.65,48.3v1.18L604,363.47Zm10.78,13.78,6.14-9.08c-.17-.08-.36-.14-.55-.21l-6.06,9-18.08,26.76-15,22.14v1l15.44-22.83Zm7-8.79-40.56,70.94v1.27l41.11-72Zm13.8,6.21L580.65,446v1.08l55-72.13Zm1.27.69-55.76,85.28v1.37l56.37-86.3Zm11.87,7.58-67.66,81.25v1.22l68.33-82Zm1.4,1-63.17,92.65,1.35-.43,62.49-91.71C650.05,384.23,649.81,384.06,649.59,383.9ZM660,392.75l-70.43,82.81,1.57-.51,69.45-81.74Zm1.15,1.12-55.36,76.45,1.21-.39,54.73-75.48C661.48,394.26,661.3,394.05,661.11,393.87Zm9.08,10.18-58.66,64.41,1.41-.46,57.69-63.4C670.49,404.41,670.33,404.22,670.19,404.05Zm1.43,1.84-42.31,56.83,1.05-.34L672,406.46Zm7.27,10.78-40.11,43,1.16-.38,39.24-42.12A5,5,0,0,0,678.89,416.67Zm1.08,1.84-29,37.23.88-.28L680.27,419C680.16,418.84,680.07,418.67,680,418.51Zm6.08,12.17-20,20.21,1-.33,19.26-19.44C686.17,431,686.11,430.82,686.05,430.68Zm1,2.5L675.1,448l.73-.24,11.44-14.08A4.22,4.22,0,0,0,687.09,433.18Z"/><path class="cls-3" d="M580.43,478.49,470.28,514.05c15.55,49.69,60.65,81.52,109.37,81.83a113.71,113.71,0,0,0,35.77-5.54c36.49-11.78,62.62-38,74.69-74.86Z"/><path class="cls-3" d="M470.28,514.05,461.1,514c15.54,49.69,60.65,81.52,109.36,81.83l9.19.06C530.93,595.57,485.83,563.74,470.28,514.05Z"/><g class="cls-11"><path d="M470.28,514.05,461.1,514c15.54,49.69,60.65,81.52,109.36,81.83l9.19.06C530.93,595.57,485.83,563.74,470.28,514.05Z"/></g><path class="cls-12" d="M475.31,512.42,474,524.34a.75.75,0,0,1-.06-.13l1.27-11.76Zm12.45-4L478.55,534a.3.3,0,0,1,.07.1l9.25-25.7Zm4.43-1.43-5.6,40.07a1.77,1.77,0,0,0,.12.17l5.61-40.28Zm7.9-2.55-11.69,45.1.11.16,11.77-45.33Zm3.08-1L497,559.74a1.39,1.39,0,0,0,.21.21l6.16-56.58Zm9.31-3-13.64,61.22.2.2,13.72-61.51Zm2.28-.73-5.56,71.24c.09.07.19.15.3.22L515,499.6Zm-3.88,72.54a2.1,2.1,0,0,0,.3.22L524,496.69l-.38.14Zm15.78-76.38-1,86c.13.08.27.15.41.22l1-86.34Zm.26,86.67.41.2,10-90.33-.49.17Zm12.61-90.84-.47.17.77,96.53c.17.07.36.13.53.21Zm1.32,97.09.51.19,8-100.46-.58.2ZM551.11,488l-.58.19,3.17,104.55a6,6,0,0,0,.64.14Zm3.76,105a3.81,3.81,0,0,0,.65.15l7.4-109-.71.23Zm14.64,2.2-4.93-111.55-.71.23,4.89,111.45.75.07h0l.75.07,3.88-114.91-.83.26Zm14.79-.08L576,479.93l-.82.26,8.43,115.64a5.7,5.7,0,0,0,.72,0s.05,0,.08,0c.24,0,.47,0,.71,0L587.79,481l-.75-.24Zm5-113.62-.75-.24L599,594.33l.65-.1Zm8.25,2.8,2.12,110,.66-.12-2.15-109.64Zm2,.67-.66-.22,16.21,105.73.34-.11a1.06,1.06,0,0,0,.19-.06Zm15.12,85-2.36-30.82-3.93-51.15-.51-.18,3.91,51.36,2.35,30.84,1.19,15.41.38,4.91.53-.19-.36-4.75Zm-4.46-81.37-.54-.17,22.6,95.18.41-.2Zm12.31,4.16,11.12,90.16.41-.21-11.12-89.81Zm2.24.75-.43-.14,21,82.68a1.57,1.57,0,0,0,.3-.2Zm27.36,9.23,7.57,61.87a2,2,0,0,1,.22-.2l-7.57-61.6Zm2.64.9-.22-.08,16,49.2a2.2,2.2,0,0,0,.14-.18Zm-18-6.07,10.55,77.1.3-.2L637.07,497.6Zm10.32,28.6L640,501l-.76-2.7-.31-.11.81,2.89,7.12,25.07,11.34,39.75a1.62,1.62,0,0,0,.2-.18Zm15.06-20,9.55,45.05a1,1,0,0,0,.12-.17l-9.51-44.83Zm2.31.78-.17-.06,13.52,35.38s.07-.08.07-.13Zm7.13,2.4,7.66,30.54a.2.2,0,0,0,.06-.12l-7.62-30.39Zm3.94,1.33-.09,0,9.74,17.69a.11.11,0,0,0,0-.07Zm7.15,2.41,4.16,11.39,0-.06L682.73,513Zm6.66,2.25h-.05a10.29,10.29,0,0,1,.61.86,0,0,0,0,0,0,0C689.73,515.77,689.54,515.49,689.34,515.22Z"/><path class="cls-4" d="M581.19,361.15c-63.82-.42-115.9,51.79-116.33,116.59a113.16,113.16,0,0,0,5.42,36.31l110.15-35.56Z"/><path class="cls-4" d="M580.58,454.12v.9L478.84,422.55l.38-.75ZM478.17,423.81l102.32,43.88v-.83l-102-43.77C478.41,423.33,478.29,423.56,478.17,423.81Zm9.44-15.22a7.9,7.9,0,0,0-.49.69l93.54,32.81v-.8Zm-1.39,2,94.38,41.63v-.94l-93.9-41.37C486.54,410.08,486.36,410.31,486.22,410.54Zm23.86-25.15c-.18.13-.33.27-.49.39l71.26,27.9v-.53Zm-2.51,2,73.21,36.4v-.68L508.06,387A6.12,6.12,0,0,0,507.57,387.41Zm-9.3,8.58c-.19.17-.36.36-.52.53l83,30.37v-.67ZM496,398.35l84.67,40.86v-.82L496.5,397.84Zm48.82-31.52-.43.12L581,385.06v-.33Zm-5.15,1.82L581,394v-.44l-40.88-25Zm-14.95,7a4.67,4.67,0,0,0-.49.27l56.7,23.49V399Zm-3.65,2.13,59.79,32v-.53l-59.33-31.78A3.47,3.47,0,0,0,521.08,377.79Zm43.35-15.53-.35,0,17,9.09v-.22Zm-7.7,1.37,24.33,16.69V380l-24-16.43A1.28,1.28,0,0,0,556.73,363.63Zm19-2.38a1.31,1.31,0,0,0-.28,0l5.69,4.2v-.22Zm-110.46,128,46,11.52.58-.2-46.64-11.68C465.28,489.05,465.28,489.18,465.29,489.29Zm-.17-2.46c0,.12,0,.25,0,.37l62.42,8.36.87-.28Zm2.53,17.52,18,4.75L486,509l-18.43-4.89A2.61,2.61,0,0,0,467.65,504.35Zm-.3-1.37a1.07,1.07,0,0,0,.06.27l27.42,2.87.64-.2ZM465,473.48l72,19,.74-.23L465,473A3.39,3.39,0,0,0,465,473.48Zm.11-2a3.89,3.89,0,0,0,0,.49l92.54,13.87,1.1-.35Zm20.42-12.24-15.41-4.85-2.61-.82a5.72,5.72,0,0,0-.11.57l2.55.8,15.4,4.83,30.81,9.69,46.66,14.71.86-.29L516.29,469Zm-17.84-6.48a5.66,5.66,0,0,0-.13.56l110.6,25.89,1.15-.37Zm4.23-14.64,107.48,40.69,1-.31-108.22-41A5.55,5.55,0,0,0,471.89,438.14Zm.61-1.64a4.49,4.49,0,0,0-.24.67l108.22,32.26v-.78Z"/><path class="cls-4" d="M581.19,361.15l-9.18-.06c-63.82-.42-115.91,51.79-116.33,116.59A113.11,113.11,0,0,0,461.1,514l9.18.06a113.16,113.16,0,0,1-5.42-36.31C465.29,412.94,517.37,360.73,581.19,361.15Z"/></g><path class="cls-3" d="M127.41,784.36s15.82-56.77,28.45-76.06S192,667.84,192,667.84,191.49,755.38,127.41,784.36Z"/><path class="cls-10" d="M128.55,783.39A272.29,272.29,0,0,0,143,755.88,191.69,191.69,0,0,1,150.82,726c.07-.19.32-.09.28.1-2.1,9-4.54,17.86-6.76,26.8,6.39-13.82,12.46-27.81,20.06-40.88,1.54-6.33,4.45-12.42,7.34-18.16.08-.17.36-.08.27.09a115.7,115.7,0,0,0-4.93,13.63,137,137,0,0,1,12-16.6c.28-.32.83,0,.56.38-10.17,13-17.19,27.75-23.88,42.7a227.1,227.1,0,0,0,19.85-24.81.08.08,0,0,1,.14.09,203.6,203.6,0,0,1-21.25,27.56c-4.87,11-9.66,22-15.46,32.37,11.6-9.81,20.52-22.49,29.35-34.73a.26.26,0,0,1,.43.3c-8.83,13.43-18,26.08-30.69,36a138.05,138.05,0,0,1-8.49,13.27A.68.68,0,0,1,128.55,783.39Z"/><path class="cls-3" d="M124.41,784.45s28.43-52.36,20.17-103.12-17.1-68.83-17.1-68.83S82.78,691.45,124.41,784.45Z"/><path class="cls-10" d="M112.73,702.14c2.27,14.66,6.25,28.38,11,42.27.08-18.62.43-37.25.93-55.88a143.79,143.79,0,0,1-5.36-34.69c0-.34.5-.32.52,0a198.69,198.69,0,0,0,5,29.85q.64-23.06,1.5-46.09a.2.2,0,0,1,.4,0c0,24,0,48-.16,72,3.67-9.24,6-18.76,8.19-28.51,0-.1.18-.07.17,0-.86,11.21-4.26,22.05-8.39,32.45-.11,15.35-.28,30.69-.62,46,4.81-16.31,10-32.11,11.34-49.35a.18.18,0,0,1,.36,0c-.38,19-5.28,38.31-11.55,56.18a1,1,0,0,1-.32.45q-.21,8.42-.49,16.82a.63.63,0,0,1-1.25,0c-.22-11.47-.29-22.94-.28-34.42-6.38-14.74-9.78-31.19-11.21-47.12C112.47,702,112.71,702,112.73,702.14Z"/><path class="cls-10" d="M114.68,694a98,98,0,0,1,2,13.83c0,.16-.23.18-.27,0a97.35,97.35,0,0,1-2.34-13.79C114,693.76,114.61,693.7,114.68,694Z"/><path class="cls-10" d="M131.31,655.77c0-.15.27-.1.27.05a35.41,35.41,0,0,1-1.43,9.53c-.07.26-.43.14-.38-.11C130.39,662.09,130.77,658.93,131.31,655.77Z"/><path class="cls-3" d="M114,784.45s1.16-54.65-14.52-81.82-41.68-41-41.68-41S68.3,758,114,784.45Z"/><path class="cls-10" d="M85.45,737.71c6.59,9.49,13.13,18.63,21.21,26.89q-4.69-16.76-10.85-33C87,723.94,78.3,716,72.91,705.41a.15.15,0,0,1,.26-.16c5.8,9.34,13.55,16.82,21.71,24a424,424,0,0,0-21.83-47.52.35.35,0,0,1,.6-.35,260,260,0,0,1,13.69,24.94c-1.47-5.84-2.65-11.81-4.15-17.61,0-.16.19-.22.25-.07,2.78,7.3,5.54,15.38,6.43,23.18a276.17,276.17,0,0,1,13.8,37.4c-.4-8.2-.91-16.35-1.76-24.52a.14.14,0,0,1,.28,0,132.46,132.46,0,0,1,2.37,27.53q3.39,12.21,5.69,24.69c0,.22-.29.32-.35.09-.85-3.48-1.77-6.93-2.72-10.38-.06,0-.12,0-.17-.07-8.41-8.42-16.4-18-21.65-28.76C85.33,737.7,85.41,737.66,85.45,737.71Z"/><path class="cls-10" d="M67.28,693.24c1.75,1.89,3.35,3.87,5,5.82a43.43,43.43,0,0,1,4.51,5.27c0,.07,0,.17-.12.12-2-1.29-3.64-3.36-5.21-5.15A43.08,43.08,0,0,1,67,693.43.16.16,0,0,1,67.28,693.24Z"/><path class="cls-4" d="M158.72,788.44l-2,25.89-6,78.25H98.85l-6-78.25-2-25.89h67.8Z"/><path class="cls-4" d="M158.72,788.44l-1.21,15.74L92.32,806.8l-1.4-18.36h67.8Z"/><rect class="cls-4" x="86.3" y="775.74" width="77.03" height="19.85" transform="translate(249.63 1571.33) rotate(180)"/><rect class="cls-1" x="100.52" y="146.7" width="873.05" height="63.32"/><path class="cls-13" d="M973.57,210c-.1-.33-874,1-873.41,0l0-63.32v-.37s873.44.24,873.48.37l0,63.32Zm0,0-.05-63.32c.38-.21-874.63,1-872.63,0V210c-2.06-1,873,.36,872.69,0Z"/><rect class="cls-3" x="910.25" y="146.7" width="63.32" height="63.32"/><rect class="cls-10" x="116.13" y="159.15" width="1.7" height="38.43"/><path class="cls-14" d="M873.19,272.24c-6.34,46.69-18,93.32-25.67,100.65-11.84,11.36-77.72,27.43-99,28.49-7,.35-13-46.75-7.42-51.67s76.35-17.16,80.26-19.53c2.08-1.26,19.28-37.19,32.53-61.25C866.2,246.57,875.11,258.07,873.19,272.24Z"/><path class="cls-3" d="M772.52,400.08l-8.46-59.46s50.11-11.32,56.14-13.22c2.56-.8,24.08-45.18,34.43-64.2,6.81-12.51,20.79-16.56,20.15,10.95-.38,16.1-13.33,91.77-25.88,102.21C838.92,384.67,772.52,400.08,772.52,400.08Z"/><path class="cls-10" d="M783.11,394.57c.06-4.34-2.64-22.07-3.36-26.48s-4.22-22-5-26.52c0-.24-.41-.26-.37,0,.67,4.5,2.79,22.38,3.47,26.79s3.59,22.07,5,26.25A.12.12,0,0,0,783.11,394.57Z"/><path class="cls-12" d="M874.73,269.6c0,.68.06,1.39,0,2.13s0,1.6,0,2.42c-.06,2.76-.49,7.28-1.24,13-.13,1-.27,2.09-.43,3.18-.1.67-.19,1.36-.3,2.06-.21,1.46-.44,3-.68,4.51,0,.27-.09.53-.13.82-.27,1.69-.54,3.44-.86,5.22-.21,1.28-.42,2.58-.67,3.91s-.46,2.66-.73,4c-.11.67-.25,1.35-.38,2-1.4,7.48-3,15.29-4.83,22.81-.48,2-1,4-1.51,6-.33,1.31-.68,2.64-1,3.92s-.69,2.56-1.05,3.8c-3.75,13.05-7.92,23.5-12,26.94-6.75,5.63-39.38,14.52-59.73,19.67L863.7,254.11a5.66,5.66,0,0,1,.88-.29,5.87,5.87,0,0,1,5.24.9,7.9,7.9,0,0,1,1.81,2,14.15,14.15,0,0,1,1,1.9,16.77,16.77,0,0,1,.86,2.37A37.72,37.72,0,0,1,874.73,269.6Z"/><path class="cls-3" d="M857.43,259.58s-57.18,198.54-52.82,220.94,65,64.89,67.3,61,26.88-147.15,5.72-249.09C867.74,244.79,857.43,259.58,857.43,259.58Z"/><path class="cls-14" d="M729.77,925c5,1.56,150.43-1.59,155.74-5.13,2-1.31-10.42-139.09-10.42-139.09l-92.25,1.76,10.49,92.16s-53.66,25.43-59.1,29.94S724.78,923.49,729.77,925Z"/><path class="cls-10" d="M729.76,925c5,1.55,150.44-1.59,155.75-5.14.64-.4.83-14.39-1.48-32.61-26.37,4.43-120.52,18.88-127.85,14.57-5.11-3-.59-7.7,3.6-10.86-12,6-23.24,11.75-25.55,13.69C728.84,909.17,724.79,923.5,729.76,925Z"/><path class="cls-12" d="M885.5,919.9c-3,2-49.94,3.85-91.54,4.81l88.46-58.24C884.67,894.79,886.36,919.35,885.5,919.9Z"/><path class="cls-4" d="M790.74,852.64l90.56-1.28s-17.95-216.9-17.2-221.07C865.05,625,929.31,373,929.31,373H842.88s-68.16,234.82-70.61,257.44C768.31,667,790.74,852.64,790.74,852.64Z"/><path class="cls-10" d="M873.15,830.92c-5.35-.39-10.76-.32-16.12-.39s-10.74-.09-16.11,0c-10.74.11-21.48.27-32.21.57-2.94.09-5.88.18-8.81.31-3.15.15-6.28.68-9.41.8a.19.19,0,0,0,0,.38c2.64,0,5.28.42,7.92.49s5.47.1,8.21.1c5.37,0,10.74,0,16.11-.06,10.73-.09,21.48-.23,32.21-.68,6.06-.25,12.18-.32,18.22-.93A.28.28,0,0,0,873.15,830.92Z"/><path class="cls-10" d="M910.3,393.36c-7.74,27.38-14.81,55-21.74,82.61s-13.83,55.24-20.7,82.87q-5.16,20.73-10.31,41.45c-3.35,13.45-7.24,27-8.06,40.87-.85,14.13,1,28.38,2.14,42.44S854,711.89,855.25,726c2.48,28.29,4.85,56.6,7.93,84.83q.59,5.29,1.12,10.6c0,.3.5.29.48,0-1.88-28.31-3.83-56.6-6.09-84.87q-1.7-21.23-3.45-42.43c-1.17-14.11-2.81-28.28-3.26-42.43s2.17-28,5.61-41.77q5.07-20.28,10.16-40.56,10.38-41.43,20.7-82.87c7.67-30.94,15.33-61.94,22.11-93.09A.13.13,0,0,0,910.3,393.36Z"/><path class="cls-10" d="M929.31,373S901.74,481.1,882.46,557.18L845.68,373Z"/><path class="cls-14" d="M836.69,925.36c5,1.56,150.44-1.58,155.75-5.13,2-1.31-5.56-139.16-5.56-139.16l-91,1.76,4.41,92.24S846.59,900.5,841.16,905,831.71,923.83,836.69,925.36Z"/><path class="cls-10" d="M836.69,925.37c5,1.55,150.44-1.6,155.75-5.14.64-.4.49-14,0-32.63-26.37,4.42-122,18.9-129.31,14.58-5.12-3-.59-7.7,3.6-10.86-12,6-23.24,11.76-25.55,13.7C835.77,909.51,831.72,923.84,836.69,925.37Z"/><path class="cls-4" d="M844,373s4.88,61.11,15,76.46c0,0,9.9,3.45,25.07,12.49,0,0,6.23,163.48,6.11,173.3-.4,36.72,9,215.6,9,215.6l91.32-.87S981,647.67,980.91,634.22c0-13-6.21-95.1-11.72-166.26,0,0,8.12-22.74,7.22-34.22C974.23,405.91,961.75,373,961.75,373Z"/><path class="cls-10" d="M876.11,431.09c-.34-2.29-.68-4.58-1-6.86-.64-4.19-1.49-8.35-2.23-12.53-1.66-9.47-3.39-19-5.5-28.36a.21.21,0,0,0-.41.07c.37,3.79.81,7.58,1.35,11.34s.9,7.57,1.44,11.35c1,7.48,2.09,15,3.37,22.42.49,2.87,2.28,8-1.85,8.9-3.27.71-5.67-2.51-6.63-5.2-1.18-3.28-1.59-6.91-2.2-10.33-.68-3.78-1.27-7.57-1.81-11.37-1.16-8.27-2.44-16.51-3.79-24.75,0-.24-.42-.17-.41.06a249.53,249.53,0,0,0,1.83,25.34q.79,6,1.82,12.05c.63,3.74,1.11,7.76,2.76,11.22,1.3,2.71,3.72,5.15,6.84,5.48h.19a.3.3,0,0,0-.12.24c0,1.34,0,2.69.16,4s.4,2.64.66,3.95a26.82,26.82,0,0,0,1,3.94,16.53,16.53,0,0,0,.73,1.8,18.1,18.1,0,0,0,1.06,1.67.24.24,0,0,0,.44-.14h0c0-.22,0-.44,0-.65,0,0,0-.08,0-.12h0a7.86,7.86,0,0,0-.07-1.18c-.1-.64-.24-1.28-.38-1.92-.28-1.27-.63-2.54-1-3.8s-.62-2.53-.94-3.8-.76-2.57-1.07-3.88a.24.24,0,0,0-.09-.13,6,6,0,0,0,5.77-3.61A10.23,10.23,0,0,0,876.11,431.09Z"/><path class="cls-10" d="M891.39,464.92a71.56,71.56,0,0,0-8.59-5.66,84,84,0,0,0-9.79-5.07c-6.61-2.87-13.42-4.83-20.23-7.08-.21-.07-.34.27-.14.35,6.6,2.63,12.93,6.11,19.31,9.23,3.14,1.54,6.32,3,9.51,4.41s6.4,3.07,9.68,4.27C891.39,465.47,891.59,465.09,891.39,464.92Z"/><path class="cls-10" d="M943,412.89c-4.65,0-20.72-1.17-25.48-6.5a32.41,32.41,0,0,1-5.94-10.72,101.25,101.25,0,0,1-3.61-13c0-.22-.37-.15-.37.06a50.61,50.61,0,0,0,1.87,14.78c1.12,4.08,2.63,8.63,5.93,11.49,3.47,3,8.17,4.07,12.61,4.61a57.94,57.94,0,0,0,15-.2A.25.25,0,0,0,943,412.89Z"/><path class="cls-10" d="M833.06,414.15c1.43,0,5.64-3,6.14-3.72,3.51-5.29,4.37-22.11,4.67-26.53,0-.22.11-.14.11.06,0,5-.17,10-.58,14.78-.34,4.08-.81,8.64-1.83,11.49-1.07,3-7,5.09-8.52,4.41C833,414.6,833,414.15,833.06,414.15Z"/><path class="cls-10" d="M986.38,832.26c-5.35-.39-10.76-.32-16.12-.39s-10.74-.09-16.11,0c-10.74.11-21.48.27-32.22.57-2.93.09-5.87.18-8.81.31-3.14.15-6.27.68-9.4.8a.19.19,0,0,0,0,.38c2.63,0,5.27.42,7.91.49s5.48.1,8.22.1c5.37,0,10.74,0,16.11-.06,10.73-.09,21.48-.23,32.21-.68,6.06-.25,12.18-.32,18.22-.93A.28.28,0,0,0,986.38,832.26Z"/><path class="cls-10" d="M824,304.68a5.36,5.36,0,0,0,2.8,4.82,39.75,39.75,0,0,0,4.58,2.4,159.72,159.72,0,0,1,.08-16.38c.21-6.29.85-12.45,1.63-18.67a.08.08,0,0,1,.15,0c-.33,6.3-.43,12.63-.59,18.94-.14,5.52.16,11.1,0,16.62,1.63.67,3.29,1.26,5,1.79-.1-1.92-.17-3.85-.22-5.78-.16-5.81.21-11.54.36-17.33,0-.14.2-.15.2,0-.07,5.64.35,11.34.57,17q.12,3.26.3,6.52c1.15.33,2.29.65,3.42.94.75.19,1.51.38,2.26.54-.06-3.81.1-7.65.14-11.38.06-6,.51-12,.67-18.06a.16.16,0,1,1,.31,0c-.13,6,.15,12,.17,18,0,3.86.19,7.81.17,11.73a90.94,90.94,0,0,0,30.74.64,135.43,135.43,0,0,0,17.52-3.7c1.39-.38,4.93-1.47,8.43-2.6,0-1.82,0-3.64,0-5.39-.09-4,.06-8.07-.13-12.07a.08.08,0,1,1,.16,0c.33,4,.89,8,1.09,12,.08,1.62.2,3.29.27,5,1.25-.4,2.45-.8,3.51-1.18-.62-7.57-.35-15.28-.53-22.84a.13.13,0,1,1,.25,0c.52,7.4,1.49,14.9,1.61,22.37a14,14,0,0,0,2.31-1c1.71-1.43-.33-31.36-.64-38.35-.58-13-3.72-66-8-78.43a38.51,38.51,0,0,0-22.8-24.46c-5.24-2.06-11.27-1.35-16.8-1.22-26.86.65-35,19.83-36.49,53.16-.59,12.89-1.36,63.11-2,76C824.32,297.78,824,301.26,824,304.68Z"/><path class="cls-15" d="M838.79,350.35,838.44,386l126.37-9.54-11.66-27.95c-12.28-27.05-27.82-67.86-48.29-87.36-16.26-15.49-34-13.1-44.62-.83-2.69,3.11-28.84,47-31.33,64.55C826.76,340.4,838.79,350.35,838.79,350.35Z"/><path class="cls-10" d="M864.73,344.94a48.11,48.11,0,0,0-11.87,1.73,58,58,0,0,0-5.94,2.14c-1,.4-2,.75-2.95,1.09a7.73,7.73,0,0,1-3.08.57c-.09,0-.13.23,0,.25a11.22,11.22,0,0,0,2.83.31,12.9,12.9,0,0,0,2.83-.52c2-.56,4-1.28,6-1.88a107.28,107.28,0,0,1,12.15-3.11C864.88,345.49,864.92,344.94,864.73,344.94Z"/><path class="cls-10" d="M883.19,349.12a118.25,118.25,0,0,0-15.17-.68c-2.54.06-5,.29-7.57.59-1.21.15-2.41.32-3.61.5s-2.62.61-3.94.8c-.13,0-.13.26,0,.25,1.25-.13,2.52,0,3.78-.07l3.78-.16c2.53-.09,5.06-.15,7.58-.28,5.06-.24,10.09-.43,15.15-.48C883.48,349.59,883.45,349.15,883.19,349.12Z"/><path class="cls-3" d="M887.5,250.75s-5.2,64.44,0,80.4,20.33,142,31.39,162,81.86,41.63,82.87,37.23S981.84,382.1,930.21,291.69C906.07,249.43,887.5,250.75,887.5,250.75Z"/><path class="cls-14" d="M885.63,255.28c-.25,2.3-9.16,18.13-19.45,18.91-3.35.24-5.5-18-5.5-18l-.47-1.31-6.52-18.34,20.41-16.91,3-2.28s1.45,5.14,3.2,11.55c.08.3.16.6.25.92s.21.69.3,1c.27,1,.55,1.94.8,2.91.2.75.39,1.47.57,2.26s.37,1.55.57,2.34C884.54,246.15,885.73,254.3,885.63,255.28Z"/><path class="cls-10" d="M880.27,228.9a39,39,0,0,1-20.06,26l-6.52-18.34,20.41-16.91,3-2.28S878.52,222.49,880.27,228.9Z"/><path class="cls-14" d="M827.49,201c-7.67,33.29,11.41,41.64,18.59,43.28,6.52,1.5,28.9,5.76,40-26.56s-2-46.41-16.71-50.61S835.16,167.73,827.49,201Z"/><path class="cls-10" d="M833.33,199.32a23.16,23.16,0,0,0,2.36-.12,3.87,3.87,0,0,0,2.38-.58,1.21,1.21,0,0,0,.22-1.47,3,3,0,0,0-2.82-1.16,4.44,4.44,0,0,0-3,1.12A1.3,1.3,0,0,0,833.33,199.32Z"/><path class="cls-10" d="M856.83,205.94a23.24,23.24,0,0,1-2.36.05,3.8,3.8,0,0,1-2.42-.41,1.21,1.21,0,0,1-.33-1.44,3,3,0,0,1,2.73-1.36,4.46,4.46,0,0,1,3.06.89A1.3,1.3,0,0,1,856.83,205.94Z"/><path class="cls-10" d="M837.38,205.63c0-.09-.2.08-.21.18-.23,2.31-.89,4.93-3.08,5.41-.07,0-.08.13,0,.13C836.68,211.34,837.52,207.86,837.38,205.63Z"/><path class="cls-10" d="M835.64,203c-3.67-.78-5,6.62-1.56,7.34S838.72,203.6,835.64,203Z"/><path class="cls-10" d="M834,203.16c-.65.29-1.35.91-2.06.83s-1.28-1-1.66-1.85c0-.09-.11,0-.13.06-.28,1.41-.07,3,1.24,3.47s2.32-.59,2.9-1.94C834.4,203.48,834.27,203.05,834,203.16Z"/><path class="cls-10" d="M847.33,227.22c-.6.49-1.23,1.18-2.08,1.17a6,6,0,0,1-2.43-.82c-.07,0-.15,0-.11.11a3.12,3.12,0,0,0,2.82,1.54,2.49,2.49,0,0,0,2-1.87C847.59,227.22,847.42,227.15,847.33,227.22Z"/><path class="cls-10" d="M839,217.43s-1,3.36-1.25,5c0,.16.35.29.9.41a.07.07,0,0,0,.06,0,7.79,7.79,0,0,0,7.92-1.73.17.17,0,0,0-.2-.26,11.72,11.72,0,0,1-7.34.93c-.05-.46,1.9-5.7,1.65-5.75a14.18,14.18,0,0,0-3.81.26c1.89-7.06,4.89-13.76,6.66-20.82a.22.22,0,0,0-.4-.17c-3.65,6.8-6,14.88-8.13,22.12C834.79,218.31,838.31,217.61,839,217.43Z"/><path class="cls-10" d="M838.91,222.24A9.41,9.41,0,0,0,842,225.9a4.28,4.28,0,0,0,2.48.7c1.93-.09,2.34-1.75,2.31-3.25a10.45,10.45,0,0,0-.34-2.37A12.19,12.19,0,0,1,838.91,222.24Z"/><path class="cls-16" d="M842,225.9a4.28,4.28,0,0,0,2.48.7c1.93-.09,2.34-1.75,2.31-3.25C844.77,223.13,842.55,224,842,225.9Z"/><path class="cls-10" d="M857.19,208.54a6.7,6.7,0,0,0-1.88-.62,7.24,7.24,0,0,0-2-.07,5.83,5.83,0,0,0-2,.66,4.92,4.92,0,0,0-1.6,1.51l-.75,1.12,1.36,0a14.6,14.6,0,0,1,2.85.26,6,6,0,0,1,2.68,1.21,4.37,4.37,0,0,0-2.34-2.21,8.26,8.26,0,0,0-3.23-.67l.61,1.1a4.84,4.84,0,0,1,2.68-1.79A14.88,14.88,0,0,1,857.19,208.54Z"/><path class="cls-10" d="M852.88,213.51a11.7,11.7,0,0,1-2.8-1.36c-.2-.15-1-.82-.9-1a5.68,5.68,0,0,1,.65-1.4,4.07,4.07,0,0,0-1,1.33,2,2,0,0,0,.93,1.43A6.12,6.12,0,0,0,852.88,213.51Z"/><path class="cls-10" d="M883.82,219.06c-6.49.07-6.44-14.76-6.44-14.76s-22-4.39-25.87-27.37a42.4,42.4,0,0,1-21.87,15.55s3.75-24.19,23.56-26.7c0,0,24.9-5.95,36.16,14.56S888.17,219,883.82,219.06Z"/><path class="cls-10" d="M851.68,175.29a24.28,24.28,0,0,0,.86,10.22,25.42,25.42,0,0,0,4.85,9.19,21.52,21.52,0,0,0,1.79,1.91l.92.94c.33.28.67.55,1,.82.7.52,1.37,1.08,2.08,1.58s1.49.89,2.24,1.31c.38.21.75.44,1.13.64l1.19.51,2.38,1c1.63.52,3.3,1,4.94,1.36-1.54-.74-3.14-1.31-4.65-2.06l-2.23-1.18-1.11-.59c-.35-.22-.69-.47-1-.7-.68-.48-1.37-1-2.07-1.4s-1.27-1.07-1.91-1.6l-.95-.79-.86-.9a22.23,22.23,0,0,1-1.66-1.84,28.77,28.77,0,0,1-4.92-8.57,30.52,30.52,0,0,1-1.37-4.82A28.94,28.94,0,0,1,851.68,175.29Z"/><path class="cls-14" d="M880.17,219.08s8.87-9.52,13.29-6.22-3.29,17.84-9.21,19.14a5.78,5.78,0,0,1-7.23-4.16Z"/><path class="cls-10" d="M891.15,217a.08.08,0,0,1,0,.16c-4.17,1-6.76,4.4-8.74,8,1.37-1.29,3.08-1.87,4.84-.2.1.09,0,.24-.13.2a3.56,3.56,0,0,0-4,.68,17.18,17.18,0,0,0-2.29,2.87c-.24.33-.85.05-.66-.34a.56.56,0,0,0,0-.08C880.78,223.21,885.68,216.72,891.15,217Z"/><path class="cls-15" d="M860.14,255l6.77,15.27,18.55-20.28,5.67,6.09s-17.71,31.8-17.88,30.4l-6.86-13.12-8.88,9.61-.08-23.34Z"/><path class="cls-10" d="M856.82,271.38c.11-3.85.12-7.73.42-11.58,0-.13.22-.2.26,0,.9,3.68.38,18.42.52,21.94l0,0c.37-.42,8.25-8.47,8.33-8.35,1.46,2.07,6.49,11.62,6.84,12.49,2.8-5.05,14.74-25,18.1-29.79a.13.13,0,1,1,.23.13c-2.44,5.31-17.85,31.61-18.08,31.55a151.47,151.47,0,0,1-7.18-13.87c-1.32,1.74-9.23,10.8-9.28,10.23A119,119,0,0,1,856.82,271.38Z"/><path class="cls-14" d="M911.94,274.24c18.38,34.07,39,92,33.24,102.84-14.56,27.1-48.9,55.38-64.86,64.65-9.31,5.41-40.28-42.32-32.25-47.54,12.67-8.23,46-36.61,50-40.43,2.14-2-4.29-43-6-70.1C890.14,254.19,903,257.64,911.94,274.24Z"/><path class="cls-14" d="M824.71,421.34c2-3.13.34-4.19-5.86-2s-28.91,16.24-33.13,7.91,28.08-27.66,38.7-30.55,28.81-3.85,28.81-3.85C847.7,397.89,835.44,411.35,824.71,421.34Z"/><rect class="cls-2" x="769.45" y="305.49" width="21.71" height="136.44" transform="translate(1626.48 193.41) rotate(142.38)"/><polygon class="cls-10" points="843.64 482.79 869.64 462.75 869.64 462.75 815.64 392.67 815.64 392.67 789.63 412.71 789.63 412.71 843.64 482.79"/><g class="cls-17"><path class="cls-1" d="M633.31,325.71a118.63,118.63,0,1,1,90-11A118.63,118.63,0,0,1,633.31,325.71Z"/></g><path class="cls-4" d="M628,345c-73.58-20.46-116.81-97-96.35-170.55s97-116.8,170.54-96.35,116.8,97,96.35,170.55S701.56,365.44,628,345Zm4.25-15.3a122.63,122.63,0,1,0-85.3-151A122.76,122.76,0,0,0,632.23,329.69Z"/><path class="cls-10" d="M805.8,188.18A143.14,143.14,0,0,0,703.28,74.12c-75.8-21.06-154.55,23.45-175.64,99.2A142.64,142.64,0,1,0,805.8,188.18Zm-199-79.78a118.34,118.34,0,1,1-55.92,71.41A117.85,117.85,0,0,1,606.82,108.4Z"/><path class="cls-14" d="M885.53,437.42c-16.1,13.57-35.32,31.46-58.75,35.45a11.74,11.74,0,0,1-7.63-1.08c-10.47,2-14.55-2.37-14.55-2.37-10.31-1.15-13.87-6.17-13.87-6.17s-12.31,2.18-14.87-5.05c-2.89-8.09,15-9.57,24.3-16.39,21.36-15.63,47.36-43.83,53.07-48.94Z"/><path class="cls-10" d="M834.06,441.16c-6.38,4.48-12.53,9-19.48,12.63-7.63,3.93-15.63,6.44-23.71,9.2a.21.21,0,0,0,.11.4c15.41-2.68,31.84-11.32,43.29-21.94C834.54,441.19,834.38,440.94,834.06,441.16Z"/><path class="cls-10" d="M845.37,452.69c-6.45,4-17.83,11-40.83,16.48-.07,0-.06.15,0,.14,15.41-1.58,28.68-7.14,41-16.32C845.94,452.71,845.8,452.42,845.37,452.69Z"/><path class="cls-10" d="M851.33,459c-11.22,6.4-19.11,9-32.15,12.74-.07,0,0,.15,0,.14,15.26-2.68,20.49-5.37,32.39-12.52C852,459.1,851.77,458.74,851.33,459Z"/><path class="cls-3" d="M892.48,444.34l-40.87-57.1L895.4,353c-2.68-22.18-8-66.54-7.55-82.15.53-18.32,13.29-19.15,23.2-3.32,22.66,36.2,44.62,101.81,42.9,112.35C951.49,394.92,892.48,444.34,892.48,444.34Z"/><path class="cls-10" d="M896.74,430.62c-1.87-4-12.18-18.95-14.79-22.66s-13.58-18.18-16.28-22c-.14-.2-.48-.06-.34.16,2.61,3.8,12.46,19.16,15,22.89s13,18.53,16.18,21.72A.12.12,0,0,0,896.74,430.62Z"/><path class="cls-13" d="M904.28,434.15c15.87-14.84,32.16-29.6,45.46-46.85,1.52-2.18,3.15-4.44,3.82-7,.52-4.45-.7-8.95-1.69-13.29-7.65-28-19.56-54.7-30.73-81.47,12.15,26.39,24.09,53.09,31.55,81.27.95,4.43,2.09,9,1.48,13.62-.71,2.71-2.39,5-4,7.24-13.42,17.24-29.9,31.79-45.93,46.51Z"/><path class="cls-13" d="M889.92,300c1.54,15,4,32.3,5.53,47.32.18,1.9.43,3.79.43,5.71a.91.91,0,0,1-.1.29c-3.45,3.59-7.61,6.36-11.42,9.48Q879,366.95,873.53,371q-10.89,8.17-21.92,16.15v-.07l1,1.59-1.11-1.53,0,0,0,0c12.36-9.75,31-23.51,42.76-33.61a4.88,4.88,0,0,0,.63-.67s0,.11,0,.1c0-1.38-.36-4.12-.45-5.52-1.42-15-3.78-32.41-4.55-47.42Z"/><path class="cls-13" d="M888.52,303c.85,2.39,1.4,5,2.37,7.34a24.75,24.75,0,0,1-2.37-7.34Z"/><path class="cls-14" d="M788.14,386.34c.21-7.22-8.42-3.34-8.42-3.34s11.08-8.58,8.43-16.11c-2.58-7.26-12.85-2.2-13.59-1.85.58-.46,10.56-8.61,7.11-15.9-3.59-7.58-13-.74-13.63-.29.41-.61,5.75-8.72,1.87-13.66-6.68-8.5-23.88,13.38-32.55,14.54l-11.54-11.49c.74,3.06,1.82,6,.37,12.3-1.36,5.9-2.31,9.82-1.39,13.5a7.92,7.92,0,0,0,7.11,6.23s-5.17,5.66-2.64,11.49c1.31,3,7.26,3.55,7.26,3.55s-3.95,4.7-1.38,9.75c2.05,4,7.69,4,7.69,4s-1.69,6.28,1.73,9.72C751.47,415.7,787.66,401.81,788.14,386.34Z"/><path class="cls-14" d="M734.31,347.5l-8.29-9c-.38-.26-.77-.53-1.15-.76-13.29-8.26-32.21-1.63-24.78,6.79,5.63,6.42,20,4.23,24.8,11.64v0Z"/><path class="cls-10" d="M743.74,399.16c-.12,0-.1.22,0,.2,13-1.67,26.81-7.48,36.44-16.52.31-.29,0-.94-.44-.68C768.07,389.58,757.09,395.23,743.74,399.16Z"/><path class="cls-10" d="M736.37,385.45c-.14,0-.07.29.09.26,13.4-1.78,28.76-8.76,38.62-20.48.34-.41.24-1.11-.18-.67C767.74,371.86,748.41,382,736.37,385.45Z"/><path class="cls-10" d="M768.44,347.79c-9.89,10.88-22.28,17.48-36,22.44-.18.07-.07.31.09.3,7.36-.6,15.76-4.67,22-8.39a38.76,38.76,0,0,0,14.23-14C769,347.9,768.65,347.56,768.44,347.79Z"/></svg>