<svg id="Слой_1" data-name="Слой 1" xmlns="http://www.w3.org/2000/svg" viewBox="0 0 923 1000"><defs><style>.cls-1{fill:#4a148c;}.cls-2{fill:#fff;}.cls-3{fill:#ffc800;}.cls-4{fill:#306;}.cls-5{fill:#ececec;}.cls-6{fill:#dcdcdc;}.cls-7{fill:#a8a8a8;}.cls-8{fill:#c8c8c8;}.cls-9{fill:#17153e;}.cls-11,.cls-9{opacity:0.1;}.cls-10{fill:#ffaba1;}.cls-12{fill:none;stroke:#fcaba0;stroke-linecap:round;stroke-linejoin:round;stroke-width:0;}</style></defs><path class="cls-1" d="M136.82,563.93a64.81,64.81,0,1,1,88.12,25.24A64.81,64.81,0,0,1,136.82,563.93Z"/><path class="cls-2" d="M227.54,531.57c-4.23,21.63-23.61,39.08-23.61,39.08s-25.57-5.15-40.2-21.62c-12.22-13.74-11.93-32.28-.54-39.43,16.33-10.25,29.37,19.5,29.37,19.5s-3.91-32.25,15.38-31.74C221.38,497.72,231.06,513.53,227.54,531.57Z"/><path class="cls-1" d="M857.55,906.16a64.82,64.82,0,0,1-67.91-5.87,64.81,64.81,0,1,1,67.91,5.87Z"/><path class="cls-3" d="M848.6,842.61a19.72,19.72,0,1,1-18-21.34A19.73,19.73,0,0,1,848.6,842.61Z"/><path class="cls-3" d="M858.25,898.05l-.7,8.11a64.82,64.82,0,0,1-67.91-5.87l.69-8.08a34.09,34.09,0,0,1,67.92,5.84Z"/><path class="cls-3" d="M157.48,723.89h-7.67a8.61,8.61,0,0,1-8.68-8.69,8.71,8.71,0,0,1,8.68-8.68H160.5l5-29h-9.71a8.69,8.69,0,0,1,0-17.37h12.73l3.3-19.87a8.53,8.53,0,0,1,8.69-7.18,8.92,8.92,0,0,1,8.69,10.2l-3,16.85h26.19l3.35-19.87c.69-4.37,4.36-7.18,8.85-7.18a8.82,8.82,0,0,1,8.52,10.2L230.3,660.1H238a8.7,8.7,0,0,1,8.64,8.68,8.82,8.82,0,0,1-8.64,8.69H227.32l-5,29h9.51a8.62,8.62,0,0,1,8.69,8.68,8.72,8.72,0,0,1-8.69,8.69H219.28l-3.5,20.52a8.62,8.62,0,0,1-8.69,7.18,8.82,8.82,0,0,1-8.69-10.16l3.18-17.54H175.35l-3.51,20.52a8.7,8.7,0,0,1-8.81,7.18,8.53,8.53,0,0,1-8.52-10.16Zm47-17.37,5-29H183.39l-5,29Z"/><path class="cls-1" d="M839.06,253a56.13,56.13,0,1,0-22.55,110,53.61,53.61,0,0,0,13.73,1,4.5,4.5,0,0,0,3.62-1.52A4.42,4.42,0,0,0,835,359a3.88,3.88,0,0,0-1-3,5.18,5.18,0,0,0-4-1.57,40.54,40.54,0,0,1-11.47-1.12A46.19,46.19,0,1,1,873,317.19a43.72,43.72,0,0,1-9.22,19.63c-.74,1.13-5.12,5.48-9.54,5.67l-1.1-.23c-1.4-.29-1.66-.8-1.69-.85a12.78,12.78,0,0,1-.35-3.22c.46-5.59,4.56-22.25,4.63-22.44l.41-2c3.37-16.45-6.59-32.43-22.2-35.64-15.77-3.23-31.35,7.52-34.72,24-3.41,16.62,6.65,32.79,22.42,36a27.32,27.32,0,0,0,20.31-3.77l-.52,2.51a14.6,14.6,0,0,0,1,8.59,11.74,11.74,0,0,0,8.69,6.58,12.41,12.41,0,0,0,3.44.34c5.83-.45,11.42-3.37,16.62-8.67.17-.17.29-.31.31-.32l.26-.25A56.48,56.48,0,0,0,839.06,253ZM823.71,327.9c-10.34-2.12-16.63-12.54-14.33-23.75s12.38-18.42,22.54-16.33,16.71,13,14.48,23.92S834,330,823.71,327.9Z"/><path class="cls-4" d="M704.43,70.52h-378c-21.1,0-38.23,17.41-38.23,38.94V887.53c0,21.48,17.13,38.94,38.23,38.94h378c21.12,0,38.27-17.46,38.27-38.94V109.46C742.7,87.93,725.55,70.52,704.43,70.52Zm14.37,793c0,20.48-15.34,37-34.25,37H346.41c-19,0-34.29-16.57-34.29-37V139c0-41.72,15.33-43.75,34.29-43.75h67.72c3.94,0,7.16,4.47,7.16,10v2.4c0,13,7.11,13,15.85,13H593.78c8.81,0,15.85,0,15.85-13v-2.4c0-5.54,3.17-10,7.18-10h67.74c18.91,0,34.25,5.54,34.25,43.75Z"/><path class="cls-2" d="M536.82,104.42H494.1a2.64,2.64,0,0,1-2.64-2.64h0a2.64,2.64,0,0,1,2.64-2.64h42.72a2.64,2.64,0,0,1,2.64,2.64h0A2.64,2.64,0,0,1,536.82,104.42Z"/><path class="cls-2" d="M718.8,139V863.47c0,20.48-15.34,37-34.25,37H346.41c-19,0-34.29-16.57-34.29-37V139c0-41.72,15.33-43.75,34.29-43.75h67.72c3.94,0,7.16,4.47,7.16,10v2.4c0,13,7.11,13,15.85,13H593.78c8.81,0,15.85,0,15.85-13v-2.4c0-5.54,3.17-10,7.18-10h67.74C703.46,95.2,718.8,100.74,718.8,139Z"/><path class="cls-5" d="M370.9,144H338.54v-22.6h6.23l1.4-5.46h17.1l1.4,5.46h6.23Zm-30.12-2.23h27.88V123.59h-5.72l-1.41-5.45H347.9l-1.4,5.45h-5.72Z"/><path class="cls-5" d="M354.72,139.13a7.86,7.86,0,1,1,7.86-7.85A7.87,7.87,0,0,1,354.72,139.13Zm0-13.47a5.62,5.62,0,1,0,5.62,5.62A5.62,5.62,0,0,0,354.72,125.66Z"/><path class="cls-5" d="M677.69,143.77c-.34-.23-8.37-5.68-11.82-12.05-2.42-4.43-2.74-9.39-.82-12.63a6.26,6.26,0,0,1,5.57-3.19c3.92,0,6.37,2.77,7.7,5.43,1.33-2.66,3.79-5.43,7.69-5.43a6.29,6.29,0,0,1,5.58,3.2c1.92,3.24,1.6,8.19-.81,12.62h0c-3.47,6.37-11.5,11.82-11.84,12.05Zm-7.07-25.63a4.08,4.08,0,0,0-3.65,2.1c-1.52,2.56-1.19,6.65.86,10.41,2.66,4.91,8.55,9.43,10.49,10.83,1.93-1.4,7.82-5.92,10.49-10.83,2.05-3.75,2.39-7.83.86-10.4a4.07,4.07,0,0,0-3.66-2.11c-5.1,0-6.54,6.46-6.6,6.74h-2.19C677.16,124.6,675.74,118.14,670.62,118.14Zm19.18,13h0Z"/><path class="cls-6" d="M373.25,200.8a22.25,22.25,0,0,1-6.54,2.74,22.7,22.7,0,1,1,6.54-2.74Z"/><path class="cls-2" d="M368.23,178.91a6.91,6.91,0,1,1-6.91-6.91A6.9,6.9,0,0,1,368.23,178.91Z"/><path class="cls-2" d="M373.25,198v2.85a22.25,22.25,0,0,1-6.54,2.74,22.58,22.58,0,0,1-17.32-2.75V198a11.93,11.93,0,0,1,23.86,0Z"/><path class="cls-3" d="M391,199.54a10.41,10.41,0,1,1-10.41-10.41A10.41,10.41,0,0,1,391,199.54Z"/><rect class="cls-2" x="379.11" y="193.24" width="2.87" height="12.59"/><rect class="cls-2" x="379.11" y="193.24" width="2.87" height="12.59" transform="translate(580.09 -181.01) rotate(90)"/><path d="M341,217.56l-2.1-2.86a.23.23,0,0,1,0-.31.21.21,0,0,1,.31,0l2,2.69,2-2.69a.2.2,0,0,1,.3,0,.22.22,0,0,1,.05.31l-2.09,2.85v2.8a.22.22,0,0,1-.22.22.22.22,0,0,1-.21-.22Z"/><path d="M345.49,216.19a2.19,2.19,0,1,1-2.08,2.19A2.14,2.14,0,0,1,345.49,216.19Zm0,3.95a1.77,1.77,0,1,0-1.65-1.76A1.71,1.71,0,0,0,345.49,220.14Z"/><path d="M349,216.39a.21.21,0,0,1,.21-.21.21.21,0,0,1,.22.21v2.39a1.35,1.35,0,1,0,2.7,0v-2.39a.21.21,0,0,1,.21-.21.21.21,0,0,1,.22.21v2.39a1.78,1.78,0,1,1-3.56,0Z"/><path d="M354.55,216.41a.21.21,0,0,1,.22-.21.21.21,0,0,1,.21.21v1a.6.6,0,0,1,.06-.11,2.1,2.1,0,0,1,1.75-1.07.21.21,0,0,1,.22.21.22.22,0,0,1-.22.22,1.6,1.6,0,0,0-1.27.71,4,4,0,0,0-.52,1,.12.12,0,0,0,0,.07v1.92a.22.22,0,1,1-.43,0Z"/><path d="M361,219.4a.2.2,0,0,1,.28,0,3.44,3.44,0,0,0,2.05.81,2.36,2.36,0,0,0,1.38-.42,1.15,1.15,0,0,0,.54-.93,1,1,0,0,0-.51-.85,3.88,3.88,0,0,0-1.45-.51h0a3.92,3.92,0,0,1-1.47-.53,1.3,1.3,0,0,1-.65-1.09,1.45,1.45,0,0,1,.65-1.17,2.58,2.58,0,0,1,1.51-.46,3.43,3.43,0,0,1,1.94.73.2.2,0,0,1,0,.27.19.19,0,0,1-.27.06,3,3,0,0,0-1.72-.66A2.22,2.22,0,0,0,362,215a1.08,1.08,0,0,0-.5.86.93.93,0,0,0,.47.76,3.6,3.6,0,0,0,1.34.47h0a4.51,4.51,0,0,1,1.59.57,1.41,1.41,0,0,1,.69,1.18,1.6,1.6,0,0,1-.71,1.26,2.77,2.77,0,0,1-1.61.49,3.83,3.83,0,0,1-2.3-.91A.2.2,0,0,1,361,219.4Z"/><path d="M368.61,216.4a.24.24,0,0,1-.22.22h-.56v3.19a.34.34,0,0,0,.32.32.25.25,0,0,1,.22.22.24.24,0,0,1-.22.22.74.74,0,0,1-.77-.76v-3.19h-.54c-.22,0-.22-.11-.22-.22s0-.21.22-.21h.54v-1.63a.23.23,0,0,1,.22-.21.24.24,0,0,1,.23.21v1.63h.56A.24.24,0,0,1,368.61,216.4Z"/><path d="M372.39,216.19a2.19,2.19,0,1,1-2.07,2.19A2.14,2.14,0,0,1,372.39,216.19Zm0,3.95a1.77,1.77,0,1,0-1.65-1.76A1.71,1.71,0,0,0,372.39,220.14Z"/><path d="M375.93,216.41a.22.22,0,0,1,.23-.21.21.21,0,0,1,.2.21v1l.06-.11a2.12,2.12,0,0,1,1.76-1.07.21.21,0,0,1,.21.21.22.22,0,0,1-.21.22,1.57,1.57,0,0,0-1.27.71,3.81,3.81,0,0,0-.53,1,.12.12,0,0,0,0,.07v1.92a.21.21,0,0,1-.2.22.22.22,0,0,1-.23-.22Z"/><path d="M379.49,216.39a.21.21,0,0,1,.21-.2.21.21,0,0,1,.22.2v2.38a1.34,1.34,0,0,0,1.34,1.35,1.36,1.36,0,0,0,1.36-1.35v-2.38a.13.13,0,0,1,0-.1v0h0a.18.18,0,0,1,.08-.05h.1l.11,0a.22.22,0,0,1,0,.08.13.13,0,0,1,0,.08v3.83a2.07,2.07,0,0,1-2.08,2.06,2.29,2.29,0,0,1-.91-.21.22.22,0,0,1,.19-.39,1.77,1.77,0,0,0,.72.17,1.65,1.65,0,0,0,1.65-1.63v-.29a1.77,1.77,0,0,1-3.13-1.16Z"/><path class="cls-3" d="M446.22,200.8a22.69,22.69,0,0,1-34-13.91,22.69,22.69,0,1,1,34,13.91Z"/><path class="cls-3" d="M434.22,208.82a27.34,27.34,0,1,1,14.42-4.09,26.71,26.71,0,0,1-7.87,3.29A27.18,27.18,0,0,1,434.22,208.82Zm.12-52.4a25.07,25.07,0,1,0,5.9,49.43,24.57,24.57,0,0,0,7.22-3h0a25.08,25.08,0,0,0-13.13-46.41Z"/><path class="cls-2" d="M441.19,178.91a6.91,6.91,0,1,1-6.91-6.91A6.9,6.9,0,0,1,441.19,178.91Z"/><path class="cls-2" d="M446.22,198v2.85a22.7,22.7,0,0,1-23.87,0V198a11.94,11.94,0,0,1,23.87,0Z"/><path d="M414.31,216.41a.22.22,0,0,1,.23-.21.21.21,0,0,1,.2.21v1l.07-.11a2.1,2.1,0,0,1,1.75-1.07.21.21,0,0,1,.21.21.22.22,0,0,1-.21.22,1.58,1.58,0,0,0-1.27.71,3.81,3.81,0,0,0-.53,1,.12.12,0,0,0,0,.07v1.92a.21.21,0,0,1-.2.22.22.22,0,0,1-.23-.22Z"/><path d="M421.69,216.4v3.95a.22.22,0,1,1-.43,0v-.65a2,2,0,0,1-1.64.87,2.19,2.19,0,0,1,0-4.38,2,2,0,0,1,1.64.86v-.65a.21.21,0,0,1,.22-.21A.21.21,0,0,1,421.69,216.4Zm-.43,2a1.65,1.65,0,1,0-1.64,1.76A1.7,1.7,0,0,0,421.26,218.38Z"/><path d="M429.82,218a1.37,1.37,0,0,0-1.36-1.36,1.36,1.36,0,0,0-1.35,1.36v2.41a0,0,0,0,1,0,0v0a.23.23,0,0,1-.11.11.19.19,0,0,1-.1,0h-.07l-.05,0,0,0,0,0,0,0v0a0,0,0,0,0,0,0V218a1.35,1.35,0,1,0-2.7,0v2.38a.18.18,0,0,1-.1.17.09.09,0,0,1-.05,0h-.09a.24.24,0,0,1-.18-.16v-4a.21.21,0,0,1,.21-.2.2.2,0,0,1,.21.2v.42a1.79,1.79,0,0,1,2.92.31,1.78,1.78,0,0,1,3.35.85v2.38a.21.21,0,0,1-.22.21.21.21,0,0,1-.2-.21Z"/><path d="M433.93,216.19a2.19,2.19,0,1,1-2.08,2.19A2.14,2.14,0,0,1,433.93,216.19Zm0,3.95a1.77,1.77,0,1,0-1.65-1.76A1.71,1.71,0,0,0,433.93,220.14Z"/><path d="M440.78,218a1.34,1.34,0,0,0-1.35-1.35,1.37,1.37,0,0,0-1.36,1.35v2.41a.19.19,0,0,1-.05.1.19.19,0,0,1-.16.08h-.05a.23.23,0,0,1-.15-.12v0a0,0,0,0,0,0,0v-4a.21.21,0,1,1,.42,0v.42A1.77,1.77,0,0,1,441.2,218v2.37a.21.21,0,1,1-.42,0Z"/><path d="M443.48,219.67a.45.45,0,0,1,0,.9.45.45,0,0,1,0-.9Z"/><path d="M448.63,214.7,447,216.37a2.1,2.1,0,0,1,1.69,2.07,2.08,2.08,0,0,1-.63,1.5,2.12,2.12,0,0,1-1.5.63,2.08,2.08,0,0,1-1.49-.63.22.22,0,0,1,.31-.31,1.68,1.68,0,0,0,1.18.48,1.7,1.7,0,0,0,1.19-.48,1.67,1.67,0,0,0,.49-1.19,1.67,1.67,0,0,0-1.67-1.67.26.26,0,0,1-.18-.09h0a.22.22,0,0,1,0-.32l1.56-1.6h-2.4a.22.22,0,0,1-.22-.23.22.22,0,0,1,.22-.22h2.92a.22.22,0,0,1,.23.22.15.15,0,0,1,0,.1A.21.21,0,0,1,448.63,214.7Z"/><path d="M450.29,220.18l2.92-2.63a1.62,1.62,0,0,0,.54-1.2,1.56,1.56,0,0,0-.42-1.07,1.59,1.59,0,0,0-1.19-.53,1.63,1.63,0,0,0-1.09.41l-.3.28a.22.22,0,1,1-.3-.32l.31-.28a2.08,2.08,0,0,1,1.38-.53,2.06,2.06,0,0,1,2,2,2.05,2.05,0,0,1-.67,1.52l-2.5,2.26h3a.22.22,0,0,1,0,.44h-3.53a.23.23,0,0,1-.16-.06A.25.25,0,0,1,450.29,220.18Z"/><path class="cls-1" d="M519.45,200.8a22.25,22.25,0,0,1-6.54,2.74,22.7,22.7,0,1,1,6.54-2.74Z"/><path class="cls-3" d="M507.46,208.82a27.34,27.34,0,1,1,14.42-4.09A26.66,26.66,0,0,1,514,208,27,27,0,0,1,507.46,208.82Zm.12-52.4a25.07,25.07,0,1,0,13.13,46.41h0a25.08,25.08,0,0,0-13.13-46.41Z"/><path class="cls-2" d="M514.43,178.91a6.91,6.91,0,1,1-6.91-6.91A6.9,6.9,0,0,1,514.43,178.91Z"/><path class="cls-2" d="M519.45,198v2.85a22.25,22.25,0,0,1-6.54,2.74,22.58,22.58,0,0,1-17.32-2.75V198a11.93,11.93,0,0,1,23.86,0Z"/><path d="M491.11,216.41a.21.21,0,0,1,.22-.21.21.21,0,0,1,.21.21v1a.6.6,0,0,1,.06-.11,2.1,2.1,0,0,1,1.75-1.07.21.21,0,0,1,.22.21.22.22,0,0,1-.22.22,1.6,1.6,0,0,0-1.27.71,4,4,0,0,0-.52,1,.12.12,0,0,0,0,.07v1.92a.22.22,0,1,1-.43,0Z"/><path d="M495,215a.22.22,0,0,1,.44,0v.21a.22.22,0,1,1-.44,0Zm0,1.43a.22.22,0,0,1,.44,0v3.95a.22.22,0,0,1-.44,0Z"/><path d="M497.55,216.41a.21.21,0,0,1,.22-.21.21.21,0,0,1,.21.21v1a.6.6,0,0,1,.06-.11,2.1,2.1,0,0,1,1.75-1.07.21.21,0,0,1,.22.21.22.22,0,0,1-.22.22,1.6,1.6,0,0,0-1.27.71,4,4,0,0,0-.52,1,.12.12,0,0,0,0,.07v1.92a.22.22,0,1,1-.43,0Z"/><path d="M501.48,215a.22.22,0,0,1,.44,0v.21a.22.22,0,1,1-.44,0Zm0,1.43a.22.22,0,0,1,.44,0v3.95a.22.22,0,0,1-.44,0Z"/><path d="M502.94,221.8a.19.19,0,0,1,.2-.19h5.4a.19.19,0,0,1,.19.19.2.2,0,0,1-.19.2h-5.4A.2.2,0,0,1,502.94,221.8Z"/><path d="M509.45,214.53a.22.22,0,0,1,.21-.22h3.23a.22.22,0,1,1,0,.44h-3v2.48h2.63a.22.22,0,0,1,.22.22.22.22,0,0,1-.22.21h-2.63v2.69a.22.22,0,1,1-.44,0Z"/><path d="M514.32,218.39a2.12,2.12,0,1,1,4.23-.16h0v0a.2.2,0,0,1-.21.2h-3.59a1.71,1.71,0,0,0,1.69,1.68,1.65,1.65,0,0,0,1.42-.8.21.21,0,0,1,.28-.07.23.23,0,0,1,.07.31,2.07,2.07,0,0,1-1.77,1A2.15,2.15,0,0,1,514.32,218.39Zm.45-.35h3.32a1.69,1.69,0,0,0-1.65-1.42A1.71,1.71,0,0,0,514.77,218Z"/><path d="M520,216.39a.21.21,0,0,1,.21-.2.21.21,0,0,1,.22.2v2.38a1.35,1.35,0,1,0,2.7,0v-2.38a.13.13,0,0,1,0-.1s0,0,0,0h0s.05,0,.08-.05h.09l.11,0a.24.24,0,0,1,.06.08.24.24,0,0,1,0,.08v3.83a2.07,2.07,0,0,1-2.08,2.06,2.24,2.24,0,0,1-.9-.21.22.22,0,0,1-.09-.29.22.22,0,0,1,.27-.1,1.77,1.77,0,0,0,.72.17,1.65,1.65,0,0,0,1.65-1.63v-.29a1.77,1.77,0,0,1-3.13-1.16Z"/><path class="cls-7" d="M592.69,200.8a22.25,22.25,0,0,1-6.54,2.74,22.7,22.7,0,1,1,6.54-2.74Z"/><path class="cls-3" d="M580.7,208.82a27.34,27.34,0,1,1,14.42-4.09,26.71,26.71,0,0,1-7.87,3.29A27.18,27.18,0,0,1,580.7,208.82Zm.12-52.4a25.07,25.07,0,1,0,5.89,49.43,24.74,24.74,0,0,0,7.23-3h0a25.08,25.08,0,0,0-13.13-46.41Z"/><path class="cls-2" d="M587.67,178.91a6.91,6.91,0,1,1-6.91-6.91A6.9,6.9,0,0,1,587.67,178.91Z"/><path class="cls-2" d="M592.69,198v2.85a22.25,22.25,0,0,1-6.54,2.74,22.58,22.58,0,0,1-17.32-2.75V198a11.93,11.93,0,0,1,23.86,0Z"/><path d="M556.75,218.45v-2a.22.22,0,0,1,.21-.21.21.21,0,0,1,.22.21V217a2.09,2.09,0,0,1,1.67-.85,2.18,2.18,0,0,1,0,4.35,2.07,2.07,0,0,1-1.67-.86v2.51a.21.21,0,0,1-.22.21.22.22,0,0,1-.21-.21Zm.43-.09a1.68,1.68,0,1,0,3.35,0,1.68,1.68,0,1,0-3.35-.07Z"/><path d="M564.52,216.19a2.19,2.19,0,1,1-2.08,2.19A2.14,2.14,0,0,1,564.52,216.19Zm0,3.95a1.77,1.77,0,1,0-1.65-1.76A1.71,1.71,0,0,0,564.52,220.14Z"/><path d="M567.94,219.66a.21.21,0,0,1,.3,0,2.37,2.37,0,0,0,1.34.51,1.31,1.31,0,0,0,.83-.27.65.65,0,0,0,.33-.54.7.7,0,0,0-.31-.53,2.21,2.21,0,0,0-.93-.32h0a2.46,2.46,0,0,1-1-.34.91.91,0,0,1-.47-.79,1.08,1.08,0,0,1,.47-.86,1.94,1.94,0,0,1,1.07-.29,2.38,2.38,0,0,1,1.31.47.23.23,0,0,1,.06.31.23.23,0,0,1-.3.06,1.86,1.86,0,0,0-1.07-.44,1.32,1.32,0,0,0-.83.25.65.65,0,0,0-.28.5.53.53,0,0,0,.25.44,2.3,2.3,0,0,0,.9.3h0a3.21,3.21,0,0,1,1.07.36,1.09,1.09,0,0,1,.49.89,1.1,1.1,0,0,1-.5.89,1.8,1.8,0,0,1-1.09.35,2.65,2.65,0,0,1-1.62-.63A.19.19,0,0,1,567.94,219.66Z"/><path d="M575.86,217.91a1.39,1.39,0,0,0-2.78,0v2.47s0,0,0,0l0,0a.2.2,0,0,1-.13.11h-.07a.28.28,0,0,1-.17-.07.36.36,0,0,1,0-.07.22.22,0,0,1,0-.08v-5.82a.22.22,0,0,1,.21-.22.22.22,0,0,1,.23.22v2.3a1.81,1.81,0,0,1,1.38-.64,1.74,1.74,0,0,1,1.83,1.72v2.44a.22.22,0,0,1-.22.22.22.22,0,0,1-.21-.22Z"/><path d="M579.65,216.4a.24.24,0,0,1-.21.22h-.57v3.19a.35.35,0,0,0,.32.32.26.26,0,0,1,.23.22.25.25,0,0,1-.23.22.75.75,0,0,1-.77-.76v-3.19h-.54c-.22,0-.22-.11-.22-.22s0-.21.22-.21h.54v-1.63a.23.23,0,0,1,.45,0v1.63h.57A.23.23,0,0,1,579.65,216.4Z"/><path d="M581.07,216.41a.22.22,0,0,1,.23-.21.21.21,0,0,1,.2.21v1l.06-.11a2.11,2.11,0,0,1,1.76-1.07.21.21,0,0,1,.21.21.22.22,0,0,1-.21.22,1.57,1.57,0,0,0-1.27.71,3.81,3.81,0,0,0-.53,1,.12.12,0,0,0,0,.07v1.92a.21.21,0,0,1-.2.22.22.22,0,0,1-.23-.22Z"/><path d="M584.24,218.39a2.16,2.16,0,0,1,2.13-2.2,2.13,2.13,0,0,1,2.1,2h0v0a.2.2,0,0,1-.21.2h-3.59a1.71,1.71,0,0,0,1.7,1.68,1.64,1.64,0,0,0,1.41-.8.21.21,0,0,1,.28-.07.24.24,0,0,1,.08.31,2.09,2.09,0,0,1-1.77,1A2.16,2.16,0,0,1,584.24,218.39Zm.45-.35H588a1.69,1.69,0,0,0-1.64-1.42A1.71,1.71,0,0,0,584.69,218Z"/><path d="M593.13,218a1.34,1.34,0,0,0-1.35-1.35,1.37,1.37,0,0,0-1.36,1.35v2.41a.19.19,0,0,1,0,.1.19.19,0,0,1-.16.08h-.05a.21.21,0,0,1-.14-.12v0a0,0,0,0,0,0,0v-4a.21.21,0,0,1,.42,0v.42a1.78,1.78,0,0,1,3.14,1.15v2.37a.22.22,0,0,1-.22.22.21.21,0,0,1-.21-.22Z"/><path d="M598.8,219.72a2.06,2.06,0,0,1-1.67.85,2.19,2.19,0,0,1,0-4.38,2.07,2.07,0,0,1,1.67.86v-2.52a.22.22,0,0,1,.23-.22.22.22,0,0,1,.21.22v5.82a.22.22,0,0,1-.21.22.22.22,0,0,1-.23-.22Zm0-1.26v-.14a1.74,1.74,0,1,0,0,.14Z"/><path d="M600.84,216.39a.2.2,0,0,1,.2-.2.21.21,0,0,1,.22.2v2.38a1.35,1.35,0,0,0,2.7,0v-2.38a.13.13,0,0,1,0-.1s0,0,0,0h0s.05,0,.08-.05h.1l.1,0a.24.24,0,0,1,.06.08.24.24,0,0,1,0,.08v3.83a2.07,2.07,0,0,1-2.08,2.06,2.28,2.28,0,0,1-.9-.21.22.22,0,0,1-.09-.29.23.23,0,0,1,.28-.1,1.69,1.69,0,0,0,.71.17,1.65,1.65,0,0,0,1.65-1.63v-.29a1.77,1.77,0,0,1-3.12-1.16Z"/><path class="cls-4" d="M665.93,200.8a22.25,22.25,0,0,1-6.54,2.74,22.7,22.7,0,1,1,6.54-2.74Z"/><path class="cls-3" d="M653.94,208.82a27.34,27.34,0,1,1,14.42-4.09,26.66,26.66,0,0,1-7.88,3.29A27.1,27.1,0,0,1,653.94,208.82Zm.12-52.4a25.07,25.07,0,0,0-13.24,46.4,25.1,25.1,0,0,0,26.36,0h0a25.08,25.08,0,0,0-13.12-46.41Z"/><path class="cls-2" d="M660.91,178.91A6.91,6.91,0,1,1,654,172,6.91,6.91,0,0,1,660.91,178.91Z"/><path class="cls-2" d="M665.93,198v2.85a22.25,22.25,0,0,1-6.54,2.74,22.58,22.58,0,0,1-17.32-2.75V198a11.93,11.93,0,1,1,23.86,0Z"/><path d="M636.77,218.45v-2a.23.23,0,0,1,.22-.21.21.21,0,0,1,.22.21V217a2.09,2.09,0,0,1,1.67-.85,2.18,2.18,0,0,1,0,4.35,2.07,2.07,0,0,1-1.67-.86v2.51a.21.21,0,0,1-.22.21.23.23,0,0,1-.22-.21Zm.44-.09a1.68,1.68,0,1,0,3.35,0,1.68,1.68,0,1,0-3.35-.07Z"/><path d="M642.28,218.39a2.12,2.12,0,1,1,4.23-.16h0v0a.2.2,0,0,1-.21.2h-3.6a1.73,1.73,0,0,0,1.7,1.68,1.65,1.65,0,0,0,1.42-.8.21.21,0,0,1,.28-.07.23.23,0,0,1,.07.31,2.07,2.07,0,0,1-1.77,1A2.15,2.15,0,0,1,642.28,218.39Zm.45-.35h3.32a1.69,1.69,0,0,0-1.65-1.42A1.71,1.71,0,0,0,642.73,218Z"/><path d="M649.21,216.4a.24.24,0,0,1-.22.22h-.56v3.19a.34.34,0,0,0,.32.32.25.25,0,0,1,.22.22.24.24,0,0,1-.22.22.74.74,0,0,1-.77-.76v-3.19h-.54c-.22,0-.22-.11-.22-.22s0-.21.22-.21H648v-1.63a.23.23,0,0,1,.22-.21.24.24,0,0,1,.23.21v1.63H649A.24.24,0,0,1,649.21,216.4Z"/><path d="M651.32,214.53a.22.22,0,0,1,.21-.22.22.22,0,0,1,.22.22v5.82a.22.22,0,0,1-.22.22.22.22,0,0,1-.21-.22Z"/><path d="M655.35,216.19a2.19,2.19,0,1,1-2.08,2.19A2.14,2.14,0,0,1,655.35,216.19Zm0,3.95a1.77,1.77,0,1,0-1.65-1.76A1.71,1.71,0,0,0,655.35,220.14Z"/><path d="M660.21,220.53a.21.21,0,0,1-.08-.1l-1.64-3.91a.22.22,0,0,1,.11-.28.21.21,0,0,1,.27.12l1.46,3.45,1.46-3.45a.21.21,0,1,1,.38.16l-1.63,3.88a.41.41,0,0,1-.06.11.18.18,0,0,1-.14.06h-.09Z"/><path d="M663.43,218.39a2.12,2.12,0,1,1,4.23-.16h0v0a.2.2,0,0,1-.21.2h-3.6a1.73,1.73,0,0,0,1.7,1.68,1.65,1.65,0,0,0,1.42-.8.21.21,0,0,1,.28-.07.23.23,0,0,1,.07.31,2.07,2.07,0,0,1-1.77,1A2.15,2.15,0,0,1,663.43,218.39Zm.45-.35h3.32a1.69,1.69,0,0,0-1.65-1.42A1.71,1.71,0,0,0,663.88,218Z"/><path d="M669,216.41a.21.21,0,0,1,.22-.21.21.21,0,0,1,.21.21v1a.3.3,0,0,1,.06-.11,2.1,2.1,0,0,1,1.75-1.07.21.21,0,0,1,.21.21.21.21,0,0,1-.21.22,1.6,1.6,0,0,0-1.27.71,4.54,4.54,0,0,0-.53,1,.23.23,0,0,0,0,.07v1.92a.22.22,0,1,1-.43,0Z"/><path class="cls-1" d="M353.54,281.18a11.27,11.27,0,0,1-3.32,1.39,11.54,11.54,0,1,1,3.32-1.39Z"/><path class="cls-2" d="M351,270.05a3.51,3.51,0,1,1-3.51-3.51A3.51,3.51,0,0,1,351,270.05Z"/><path class="cls-2" d="M353.54,279.73v1.45a11.27,11.27,0,0,1-3.32,1.39,11.44,11.44,0,0,1-8.81-1.4v-1.44a6.07,6.07,0,0,1,12.13,0Z"/><path d="M371.66,269.19a.51.51,0,0,1-.5.5h-.22v2.49a.49.49,0,0,1,.49.5.48.48,0,0,1-.49.49,1,1,0,0,1-1-1v-2.49h-.26a.5.5,0,0,1-.5-.5.49.49,0,0,1,.5-.49H370v-1.29a.5.5,0,0,1,1,0v1.29h.22A.5.5,0,0,1,371.66,269.19Z"/><path d="M373.5,272.52a2.24,2.24,0,0,1-.61-1.57,2.33,2.33,0,0,1,.61-1.57,2.12,2.12,0,0,1,1.54-.68,2,2,0,0,1,1.5.68,2.25,2.25,0,0,1,.62,1.57,2.16,2.16,0,0,1-.62,1.57,2,2,0,0,1-1.5.68A2.12,2.12,0,0,1,373.5,272.52Zm.36-1.57a1.46,1.46,0,0,0,.32.94,1.2,1.2,0,0,0,.86.33,1.16,1.16,0,0,0,.83-.33,1.37,1.37,0,0,0,.34-.94,1.35,1.35,0,0,0-.34-.93,1.26,1.26,0,0,0-.83-.34,1.3,1.3,0,0,0-.86.34A1.43,1.43,0,0,0,373.86,271Z"/><path d="M382.42,270.55v2.15a.48.48,0,0,1-.47.47.49.49,0,0,1-.49-.47v-2.15a.91.91,0,0,0-1.82,0v2.12s0,0,0,.06v0s0,0,0,0v.05a.52.52,0,0,1-.44.28h-.09a.48.48,0,0,1-.39-.46v-2.12h0v-1.39a.48.48,0,0,1,.48-.48.47.47,0,0,1,.43.27,1.87,1.87,0,0,1,2.36.35,1.82,1.82,0,0,1,1.4-.62,1.87,1.87,0,0,1,1.86,1.88v2.12a.48.48,0,0,1-.48.47.48.48,0,0,1-.48-.47v-2.12a.91.91,0,0,0-.9-.92A.93.93,0,0,0,382.42,270.55Z"/><path d="M387.75,271.9a.68.68,0,0,1,.67.67.66.66,0,0,1-.67.66.65.65,0,0,1-.66-.66A.67.67,0,0,1,387.75,271.9Z"/><path d="M388.75,271A2.28,2.28,0,0,1,391,268.7a2.36,2.36,0,0,1,1.42.49.49.49,0,0,1,.1.67.47.47,0,0,1-.67.08,1.49,1.49,0,0,0-.85-.28,1.28,1.28,0,1,0,0,2.56,1.44,1.44,0,0,0,.85-.28.48.48,0,1,1,.57.76,2.42,2.42,0,0,1-1.42.47A2.26,2.26,0,0,1,388.75,271Z"/><path d="M394.45,272.52a2.25,2.25,0,0,1-.62-1.57,2.34,2.34,0,0,1,.62-1.57,2.09,2.09,0,0,1,1.54-.68,2,2,0,0,1,1.49.68,2.26,2.26,0,0,1,.63,1.57,2.17,2.17,0,0,1-.63,1.57,2,2,0,0,1-1.49.68A2.09,2.09,0,0,1,394.45,272.52Zm.36-1.57a1.41,1.41,0,0,0,.32.94,1.18,1.18,0,0,0,.86.33,1.14,1.14,0,0,0,.82-.33,1.38,1.38,0,0,0,.35-.94,1.35,1.35,0,0,0-.35-.93,1.24,1.24,0,0,0-.82-.34,1.28,1.28,0,0,0-.86.34A1.38,1.38,0,0,0,394.81,271Z"/><path d="M400,272.52a2.21,2.21,0,0,1-.62-1.57,2.29,2.29,0,0,1,.62-1.57,2.09,2.09,0,0,1,1.54-.68,2,2,0,0,1,1.49.68,2.26,2.26,0,0,1,.63,1.57,2.17,2.17,0,0,1-.63,1.57,2,2,0,0,1-1.49.68A2.09,2.09,0,0,1,400,272.52Zm.36-1.57a1.41,1.41,0,0,0,.32.94,1.18,1.18,0,0,0,.86.33,1.14,1.14,0,0,0,.82-.33,1.38,1.38,0,0,0,.35-.94,1.35,1.35,0,0,0-.35-.93,1.24,1.24,0,0,0-.82-.34,1.28,1.28,0,0,0-.86.34A1.38,1.38,0,0,0,400.4,271Z"/><path d="M405.22,274.37V271h0v-1.77a.48.48,0,0,1,.47-.48.48.48,0,0,1,.49.37,2.17,2.17,0,0,1,3.38,1.88,2.19,2.19,0,0,1-2.16,2.21,2.08,2.08,0,0,1-1.2-.36v1.57a.5.5,0,0,1-.51.48A.48.48,0,0,1,405.22,274.37Zm1-3.42a1.21,1.21,0,0,0,.35.89,1.11,1.11,0,0,0,.85.38,1.15,1.15,0,0,0,.84-.38,1.35,1.35,0,0,0,.35-.89,1.44,1.44,0,0,0-.35-.91,1.17,1.17,0,0,0-.84-.36,1.13,1.13,0,0,0-.85.36A1.29,1.29,0,0,0,406.2,271Z"/><path d="M410.72,270.94a2.21,2.21,0,0,1,2.18-2.24,2.14,2.14,0,0,1,2.15,2.08v0a.22.22,0,0,1,0,.08.42.42,0,0,1-.46.36h-2.84a1.15,1.15,0,0,0,.3.59,1.41,1.41,0,0,0,.86.4,1.45,1.45,0,0,0,.93-.22.51.51,0,0,1,.67,0,.42.42,0,0,1,0,.58,2.28,2.28,0,0,1-1.6.59A2.22,2.22,0,0,1,410.72,270.94Zm1-.44h2.53a1.45,1.45,0,0,0-1.32-.95A1.25,1.25,0,0,0,411.69,270.5Z"/><path d="M419,269.18a.47.47,0,0,1-.47.47.83.83,0,0,0-.54.17,1.4,1.4,0,0,0-.41.43,3.1,3.1,0,0,0-.37.75v1.7a.48.48,0,0,1-.49.47.47.47,0,0,1-.47-.47v-3.52a.47.47,0,0,1,.47-.47.48.48,0,0,1,.49.47v.06l.19-.18a2,2,0,0,1,1.13-.35A.46.46,0,0,1,419,269.18Z"/><path d="M681.4,270.06a1.1,1.1,0,0,1,1.09,1.09,1.08,1.08,0,1,1-1.09-1.09Z"/><path d="M684.74,270.06a1.11,1.11,0,0,1,1.09,1.09,1.09,1.09,0,0,1-1.09,1.08,1.07,1.07,0,0,1-1.07-1.08A1.08,1.08,0,0,1,684.74,270.06Z"/><path d="M688.08,270.06a1.1,1.1,0,0,1,1.08,1.09,1.08,1.08,0,1,1-1.08-1.09Z"/><path class="cls-6" d="M353.54,880.92a11.27,11.27,0,0,1-3.32,1.39,11.54,11.54,0,1,1,3.32-1.39Z"/><path class="cls-2" d="M351,869.79a3.51,3.51,0,1,1-3.51-3.51A3.51,3.51,0,0,1,351,869.79Z"/><path class="cls-2" d="M353.54,879.47v1.45a11.27,11.27,0,0,1-3.32,1.39,11.44,11.44,0,0,1-8.81-1.4v-1.44a6.07,6.07,0,0,1,12.13,0Z"/><path d="M369.65,872.42v-5.27a.5.5,0,1,1,1,0v3.09l1.84-1.83a.49.49,0,0,1,.69,0,.47.47,0,0,1,0,.69l-1.34,1.34,1.38,1.66a.5.5,0,0,1-.07.7.48.48,0,0,1-.32.11.46.46,0,0,1-.37-.18l-1.32-1.59-.49.49v.79a.5.5,0,0,1-1,0Z"/><path d="M374.12,870.68a2.22,2.22,0,0,1,2.18-2.24,2.14,2.14,0,0,1,2.16,2.08v0a.22.22,0,0,1,0,.08.44.44,0,0,1-.47.36h-2.84a1.17,1.17,0,0,0,.31.59,1.39,1.39,0,0,0,.85.4,1.44,1.44,0,0,0,.93-.22.51.51,0,0,1,.67,0,.4.4,0,0,1,0,.58,2.25,2.25,0,0,1-1.6.59A2.22,2.22,0,0,1,374.12,870.68Zm1-.44h2.53a1.46,1.46,0,0,0-1.33-1A1.24,1.24,0,0,0,375.1,870.24Z"/><path d="M383.61,870.3v2.14a.47.47,0,0,1-.47.47.48.48,0,0,1-.47-.47V870.3a.92.92,0,0,0-.93-.9.89.89,0,0,0-.89.9v2.14a.18.18,0,0,1,0,.09.49.49,0,0,1-.47.38.47.47,0,0,1-.48-.47v-3.53a.48.48,0,0,1,.91-.19,1.79,1.79,0,0,1,.95-.28A1.87,1.87,0,0,1,383.61,870.3Z"/><path d="M389.23,872.43a.48.48,0,0,1-.48.48.48.48,0,0,1-.47-.38,2.21,2.21,0,1,1-1.22-4.09,2.06,2.06,0,0,1,1.2.38v-1.68a.49.49,0,1,1,1,0v3.54h0Zm-2.17-3a1.17,1.17,0,0,0-.84.36,1.31,1.31,0,0,0-.36.91,1.27,1.27,0,0,0,.36.88,1.18,1.18,0,0,0,.84.37,1.15,1.15,0,0,0,.84-.37,1.23,1.23,0,0,0,.36-.88,1.27,1.27,0,0,0-.36-.91A1.14,1.14,0,0,0,387.06,869.42Z"/><path d="M394.87,870.69v1.75a.47.47,0,0,1-.94.09,2,2,0,0,1-1.19.38,2.07,2.07,0,0,1-1.52-.65,2.34,2.34,0,0,1,0-3.15,2.05,2.05,0,0,1,1.52-.67,2,2,0,0,1,1.19.4.48.48,0,0,1,.46-.4.49.49,0,0,1,.48.48Zm-.95,0a1.28,1.28,0,0,0-.35-.92,1.07,1.07,0,0,0-.83-.37,1,1,0,0,0-.83.37,1.27,1.27,0,0,0-.34.92,1.34,1.34,0,0,0,.34.92,1.12,1.12,0,0,0,.83.34,1.16,1.16,0,0,0,.83-.34A1.35,1.35,0,0,0,393.92,870.69Z"/><path d="M397.3,866.65a.5.5,0,0,1,.5.5v5.27a.5.5,0,0,1-1,0v-5.27A.5.5,0,0,1,397.3,866.65Z"/><path d="M399.53,866.65a.5.5,0,0,1,.5.5v5.27a.5.5,0,0,1-1,0v-5.27A.5.5,0,0,1,399.53,866.65Z"/><path d="M400.15,873.92a.42.42,0,0,1,.43-.42H406a.42.42,0,1,1,0,.84h-5.39A.42.42,0,0,1,400.15,873.92Z"/><path d="M409.32,868.91a.48.48,0,0,1-.47.48.83.83,0,0,0-.54.17,1.4,1.4,0,0,0-.41.43,2.63,2.63,0,0,0-.37.75v1.7a.48.48,0,0,1-.49.47.47.47,0,0,1-.47-.47v-3.53a.47.47,0,0,1,.47-.46.48.48,0,0,1,.49.46V869a1,1,0,0,1,.19-.18,1.92,1.92,0,0,1,1.13-.35A.47.47,0,0,1,409.32,868.91Z"/><path d="M410.68,872.26a2.25,2.25,0,0,1-.62-1.57,2.34,2.34,0,0,1,.62-1.57,2.09,2.09,0,0,1,1.54-.68,2,2,0,0,1,1.49.68,2.26,2.26,0,0,1,.63,1.57,2.17,2.17,0,0,1-.63,1.57,2,2,0,0,1-1.49.68A2.09,2.09,0,0,1,410.68,872.26Zm.36-1.57a1.41,1.41,0,0,0,.32.94,1.18,1.18,0,0,0,.86.33,1.14,1.14,0,0,0,.82-.33,1.38,1.38,0,0,0,.35-.94,1.35,1.35,0,0,0-.35-.93,1.24,1.24,0,0,0-.82-.34,1.28,1.28,0,0,0-.86.34A1.38,1.38,0,0,0,411,870.69Z"/><path d="M415.64,871.63a.47.47,0,0,1,.67-.07,1.64,1.64,0,0,0,1,.39,1.13,1.13,0,0,0,.61-.17.36.36,0,0,0,.16-.26.11.11,0,0,0,0-.09s0-.07-.12-.11a2,2,0,0,0-.71-.25h0a3.56,3.56,0,0,1-.78-.23,1.52,1.52,0,0,1-.61-.52,1.08,1.08,0,0,1-.16-.56,1.28,1.28,0,0,1,.53-1,2,2,0,0,1,1.1-.33,2.34,2.34,0,0,1,1.34.49.49.49,0,0,1,.14.67.47.47,0,0,1-.66.12,1.48,1.48,0,0,0-.82-.33.94.94,0,0,0-.54.16.28.28,0,0,0-.14.21.1.1,0,0,0,0,.07.3.3,0,0,0,.1.09,1.74,1.74,0,0,0,.65.21h0a3,3,0,0,1,.83.26,1.4,1.4,0,0,1,.63.53,1.12,1.12,0,0,1,.17.59,1.29,1.29,0,0,1-.56,1,2,2,0,0,1-1.16.36,2.58,2.58,0,0,1-1.59-.62A.47.47,0,0,1,415.64,871.63Z"/><path d="M420,871.63a.47.47,0,0,1,.67-.07,1.64,1.64,0,0,0,1,.39,1.13,1.13,0,0,0,.61-.17.36.36,0,0,0,.16-.26.11.11,0,0,0,0-.09s0-.07-.12-.11a2,2,0,0,0-.71-.25h0a3.56,3.56,0,0,1-.78-.23,1.52,1.52,0,0,1-.61-.52,1.08,1.08,0,0,1-.16-.56,1.28,1.28,0,0,1,.53-1,2,2,0,0,1,1.1-.33,2.34,2.34,0,0,1,1.34.49.49.49,0,0,1,.14.67.47.47,0,0,1-.66.12,1.48,1.48,0,0,0-.82-.33.94.94,0,0,0-.54.16.28.28,0,0,0-.14.21.1.1,0,0,0,0,.07.3.3,0,0,0,.1.09,1.74,1.74,0,0,0,.65.21h0a3,3,0,0,1,.83.26,1.4,1.4,0,0,1,.63.53,1.12,1.12,0,0,1,.17.59,1.29,1.29,0,0,1-.56,1,2,2,0,0,1-1.16.36,2.55,2.55,0,0,1-1.59-.62A.47.47,0,0,1,420,871.63Z"/><path d="M681.4,869.81a1.09,1.09,0,0,1,1.09,1.08A1.08,1.08,0,0,1,681.4,872a1.06,1.06,0,0,1-1.07-1.07A1.08,1.08,0,0,1,681.4,869.81Z"/><path d="M684.74,869.81a1.1,1.1,0,0,1,1.09,1.08,1.08,1.08,0,0,1-1.09,1.07,1.06,1.06,0,0,1-1.07-1.07A1.07,1.07,0,0,1,684.74,869.81Z"/><path d="M688.08,869.81a1.09,1.09,0,0,1,1.08,1.08,1.08,1.08,0,1,1-1.08-1.08Z"/><path class="cls-6" d="M352.06,829.29a8.54,8.54,0,0,1-2.54,1.06,8.8,8.8,0,1,1-4.17-17.09,8.8,8.8,0,0,1,6.71,16Z"/><path class="cls-2" d="M350.11,820.8a2.68,2.68,0,1,1-2.68-2.68A2.68,2.68,0,0,1,350.11,820.8Z"/><path class="cls-2" d="M352.06,828.19v1.1a8.54,8.54,0,0,1-2.54,1.06,8.7,8.7,0,0,1-6.71-1.06v-1.1a4.63,4.63,0,1,1,9.25,0Z"/><path class="cls-7" d="M367.53,821.65h-2.85l-.55,1.47a.24.24,0,0,1-.21.15h-.08a.24.24,0,0,1-.13-.29l2.18-5.8a.22.22,0,0,1,.21-.13.23.23,0,0,1,.22.13l2.17,5.8a.23.23,0,0,1-.12.29h-.08a.25.25,0,0,1-.21-.15Zm-2.69-.44h2.53l-1.26-3.36Z"/><path class="cls-7" d="M373.07,822.42a2.1,2.1,0,0,1-1.68.85,2.19,2.19,0,0,1,0-4.38,2.13,2.13,0,0,1,1.68.85v-2.52a.21.21,0,0,1,.22-.21.21.21,0,0,1,.21.21v5.83a.22.22,0,1,1-.43,0Zm0-1.26V821a1.69,1.69,0,1,0-1.68,1.82A1.71,1.71,0,0,0,373.07,821.16Z"/><path class="cls-7" d="M379,822.42a2.08,2.08,0,0,1-1.68.85,2.19,2.19,0,0,1,0-4.38,2.11,2.11,0,0,1,1.68.85v-2.52a.22.22,0,0,1,.44,0v5.83a.22.22,0,0,1-.44,0Zm0-1.26V821a1.68,1.68,0,1,0-1.68,1.82A1.71,1.71,0,0,0,379,821.16Z"/><path class="cls-7" d="M387.72,819.1v3.95a.22.22,0,1,1-.43,0v-.65a2,2,0,0,1-1.64.87,2.19,2.19,0,0,1,0-4.38,2,2,0,0,1,1.64.85v-.64a.21.21,0,0,1,.22-.21A.2.2,0,0,1,387.72,819.1Zm-.43,2a1.65,1.65,0,1,0-1.64,1.76A1.7,1.7,0,0,0,387.29,821.08Z"/><path class="cls-7" d="M392,821.07a2.25,2.25,0,0,1,3.64-1.7.2.2,0,0,1,0,.29.23.23,0,0,1-.3,0,1.77,1.77,0,0,0-1.12-.39,1.77,1.77,0,1,0,0,3.53,1.83,1.83,0,0,0,1.12-.39.23.23,0,0,1,.3,0,.21.21,0,0,1-.05.31,2.25,2.25,0,0,1-3.62-1.73Z"/><path class="cls-7" d="M399.11,818.89a2.19,2.19,0,1,1-2.08,2.19A2.14,2.14,0,0,1,399.11,818.89Zm0,4a1.77,1.77,0,1,0-1.65-1.76A1.71,1.71,0,0,0,399.11,822.84Z"/><path class="cls-7" d="M409.1,820.67a1.37,1.37,0,0,0-1.36-1.35,1.36,1.36,0,0,0-1.35,1.35v2.44h0a.22.22,0,0,1-.11.12.2.2,0,0,1-.11,0h-.06s0,0-.05,0l0,0,0,0h0v0s0,0,0,0v-2.44a1.35,1.35,0,0,0-2.7,0v2.39a.21.21,0,0,1-.1.17.09.09,0,0,1,0,0H403a.26.26,0,0,1-.18-.16v-4a.21.21,0,0,1,.21-.21.21.21,0,0,1,.21.21v.42a1.77,1.77,0,0,1,2.91.3,1.84,1.84,0,0,1,1.58-.93,1.78,1.78,0,0,1,1.78,1.78v2.39a.21.21,0,0,1-.22.21.21.21,0,0,1-.2-.21Z"/><path class="cls-7" d="M417.6,820.67a1.37,1.37,0,0,0-1.36-1.35,1.36,1.36,0,0,0-1.35,1.35v2.44h0c0,.06-.06.09-.1.12l-.11,0h-.06l-.06,0,0,0,0,0h0v0s0,0,0,0v-2.44a1.35,1.35,0,1,0-2.7,0v2.39a.2.2,0,0,1-.09.17l-.06,0h-.09a.26.26,0,0,1-.18-.16v-4a.21.21,0,0,1,.21-.21.2.2,0,0,1,.21.21v.42a1.78,1.78,0,0,1,2.92.3,1.81,1.81,0,0,1,1.57-.93,1.78,1.78,0,0,1,1.78,1.78v2.39a.21.21,0,0,1-.42,0Z"/><path class="cls-7" d="M419.53,821.08a2.12,2.12,0,0,1,4.23-.16h0v0a.2.2,0,0,1-.21.2H420a1.72,1.72,0,0,0,1.69,1.68,1.66,1.66,0,0,0,1.42-.8.2.2,0,0,1,.28-.07.22.22,0,0,1,.07.3,2.07,2.07,0,0,1-1.77,1A2.16,2.16,0,0,1,419.53,821.08Zm.45-.34h3.32a1.68,1.68,0,0,0-1.65-1.42A1.7,1.7,0,0,0,420,820.74Z"/><path class="cls-7" d="M428.41,820.67a1.34,1.34,0,0,0-1.35-1.35,1.36,1.36,0,0,0-1.35,1.35v2.42a.16.16,0,0,1,0,.09.18.18,0,0,1-.16.09h-.05a.26.26,0,0,1-.15-.12v0h0v-4a.21.21,0,0,1,.21-.22.21.21,0,0,1,.21.22v.42a1.77,1.77,0,0,1,3.13,1.14v2.38a.22.22,0,1,1-.43,0Z"/><path class="cls-7" d="M432.3,819.1a.24.24,0,0,1-.22.22h-.56v3.19a.34.34,0,0,0,.32.32.22.22,0,1,1,0,.44.75.75,0,0,1-.77-.76v-3.19h-.54c-.22,0-.22-.11-.22-.22s0-.21.22-.21h.54v-1.63a.24.24,0,0,1,.22-.22.25.25,0,0,1,.23.22v1.63h.56A.23.23,0,0,1,432.3,819.1Z"/><path class="cls-7" d="M434.69,822.37a.45.45,0,1,1,0,.9.45.45,0,0,1,0-.9Z"/><path class="cls-7" d="M436.75,822.37a.45.45,0,1,1-.45.45A.45.45,0,0,1,436.75,822.37Z"/><path class="cls-7" d="M438.81,822.37a.45.45,0,0,1,0,.9.45.45,0,1,1,0-.9Z"/><path class="cls-7" d="M343.32,840.81h-3.41a.18.18,0,0,1-.14,0,.21.21,0,0,1,0-.3l3.62-4.51h0a.21.21,0,0,1,.3,0s.05.08.07.11,0,0,0,0v4.31h.42a.22.22,0,1,1,0,.43h-.42v1.08a.22.22,0,0,1-.44,0Zm0-.43v-3.66l-3,3.66Z"/><path class="cls-7" d="M351.92,839.45a1.39,1.39,0,0,0-2.78,0v2.46s0,0,0,0l0,0a.22.22,0,0,1-.13.1h-.07a.28.28,0,0,1-.17-.07l0-.07a.2.2,0,0,1,0-.07v-5.83a.21.21,0,0,1,.21-.21.22.22,0,0,1,.23.21v2.31a1.79,1.79,0,0,1,1.38-.65,1.75,1.75,0,0,1,1.83,1.73v2.44a.21.21,0,0,1-.22.21.22.22,0,0,1-.21-.21Z"/><path class="cls-7" d="M356.05,837.72a2.19,2.19,0,1,1-2.08,2.19A2.14,2.14,0,0,1,356.05,837.72Zm0,3.95a1.77,1.77,0,1,0-1.65-1.76A1.71,1.71,0,0,0,356.05,841.67Z"/><path class="cls-7" d="M359.54,837.93a.22.22,0,1,1,.43,0v2.38a1.35,1.35,0,1,0,2.7,0v-2.38a.21.21,0,0,1,.21-.22.21.21,0,0,1,.22.22v2.38a1.78,1.78,0,1,1-3.56,0Z"/><path class="cls-7" d="M365.11,838a.22.22,0,1,1,.43,0v1a.6.6,0,0,1,.06-.11,2.1,2.1,0,0,1,1.75-1.07.22.22,0,0,1,.22.22.22.22,0,0,1-.22.21,1.6,1.6,0,0,0-1.27.71,4,4,0,0,0-.52,1,.14.14,0,0,0,0,.07v1.93a.21.21,0,0,1-.21.21.21.21,0,0,1-.22-.21Z"/><path class="cls-7" d="M368.73,841.19a.21.21,0,0,1,.3,0,2.33,2.33,0,0,0,1.35.51,1.27,1.27,0,0,0,.83-.27.67.67,0,0,0,.33-.53.69.69,0,0,0-.32-.54,2.16,2.16,0,0,0-.92-.32h0a2.41,2.41,0,0,1-1-.34.92.92,0,0,1-.48-.79,1.07,1.07,0,0,1,.48-.85,1.84,1.84,0,0,1,1.07-.3,2.31,2.31,0,0,1,1.3.48.22.22,0,0,1,.07.3.22.22,0,0,1-.3.06,1.92,1.92,0,0,0-1.07-.43,1.3,1.3,0,0,0-.83.24.68.68,0,0,0-.28.5.53.53,0,0,0,.25.44,2.23,2.23,0,0,0,.89.31h0a3.06,3.06,0,0,1,1.07.35,1,1,0,0,1,0,1.78,1.76,1.76,0,0,1-1.09.35,2.65,2.65,0,0,1-1.62-.63A.19.19,0,0,1,368.73,841.19Z"/><path class="cls-7" d="M379.79,837.94v3.95a.22.22,0,0,1-.43,0v-.66a2,2,0,0,1-1.64.87,2.19,2.19,0,0,1,0-4.38,2,2,0,0,1,1.64.86v-.64a.22.22,0,1,1,.43,0Zm-.43,2a1.65,1.65,0,1,0-1.64,1.76A1.71,1.71,0,0,0,379.36,839.91Z"/><path class="cls-7" d="M385.79,841.75a2.06,2.06,0,0,1-2.06,2.06,2.17,2.17,0,0,1-.91-.21.21.21,0,0,1-.09-.28.19.19,0,0,1,.28-.1,1.58,1.58,0,0,0,.72.16,1.62,1.62,0,0,0,1.63-1.63v-.53a2,2,0,0,1-1.63.85,2.18,2.18,0,0,1,0-4.35,2,2,0,0,1,1.63.86v-.64a.22.22,0,0,1,.23-.22.22.22,0,0,1,.2.22Zm-.43-1.86a1.63,1.63,0,1,0-1.63,1.76A1.68,1.68,0,0,0,385.36,839.89Z"/><path class="cls-7" d="M389.74,837.72a2.19,2.19,0,1,1-2.08,2.19A2.14,2.14,0,0,1,389.74,837.72Zm0,3.95a1.77,1.77,0,1,0-1.65-1.76A1.71,1.71,0,0,0,389.74,841.67Z"/><path d="M341.42,779.46a.51.51,0,0,1-.5.49h-.23v2.49a.49.49,0,0,1,.49.5.49.49,0,0,1-.49.5,1,1,0,0,1-1-1V780h-.26a.5.5,0,0,1,0-1h.26v-1.29a.49.49,0,0,1,.5-.49.48.48,0,0,1,.49.49V779h.23A.51.51,0,0,1,341.42,779.46Z"/><path d="M343.26,782.78a2.21,2.21,0,0,1-.62-1.57,2.25,2.25,0,0,1,.62-1.56,2.09,2.09,0,0,1,1.54-.69,2,2,0,0,1,1.49.69,2.21,2.21,0,0,1,.62,1.56,2.16,2.16,0,0,1-.62,1.57,2,2,0,0,1-1.49.68A2.09,2.09,0,0,1,343.26,782.78Zm.36-1.57a1.44,1.44,0,0,0,.32.95,1.23,1.23,0,0,0,.86.33,1.18,1.18,0,0,0,.82-.33,1.4,1.4,0,0,0,.35-.95,1.35,1.35,0,0,0-.35-.93,1.24,1.24,0,0,0-.82-.34,1.28,1.28,0,0,0-.86.34A1.38,1.38,0,0,0,343.62,781.21Z"/><path d="M352.17,780.82V783a.48.48,0,0,1-.47.48.49.49,0,0,1-.48-.48v-2.14a.93.93,0,0,0-.92-.9.92.92,0,0,0-.91.92V783s0,0,0,.06v0s0,0,0,.05v0a.53.53,0,0,1-.45.29h-.09a.5.5,0,0,1-.38-.47v-2.12h0v-1.38a.47.47,0,0,1,.47-.49.46.46,0,0,1,.43.28,1.91,1.91,0,0,1,1-.28,1.89,1.89,0,0,0,2.8,0,1.87,1.87,0,0,1,1.86,1.88V783a.48.48,0,0,1-.47.48A.49.49,0,0,1,354,783v-2.12a.92.92,0,0,0-.91-.92A.94.94,0,0,0,352.17,780.82Z"/><path d="M357.5,782.17a.67.67,0,1,1-.66.67A.67.67,0,0,1,357.5,782.17Z"/><path d="M358.51,781.21a2.28,2.28,0,0,1,2.27-2.25,2.35,2.35,0,0,1,1.42.5.5.5,0,0,1,.1.66.48.48,0,0,1-.67.09,1.45,1.45,0,0,0-.85-.29,1.29,1.29,0,1,0,0,2.57,1.47,1.47,0,0,0,.85-.29.49.49,0,0,1,.67.1.5.5,0,0,1-.1.66,2.47,2.47,0,0,1-1.42.48A2.27,2.27,0,0,1,358.51,781.21Z"/><path d="M364.2,782.78a2.24,2.24,0,0,1-.61-1.57,2.29,2.29,0,0,1,.61-1.56,2.11,2.11,0,0,1,1.54-.69,2,2,0,0,1,1.49.69,2.17,2.17,0,0,1,.63,1.56,2.13,2.13,0,0,1-.63,1.57,2,2,0,0,1-1.49.68A2.1,2.1,0,0,1,364.2,782.78Zm.36-1.57a1.49,1.49,0,0,0,.32.95,1.24,1.24,0,0,0,.86.33,1.18,1.18,0,0,0,.82-.33,1.36,1.36,0,0,0,.35-.95,1.31,1.31,0,0,0-.35-.93,1.24,1.24,0,0,0-.82-.34,1.3,1.3,0,0,0-.86.34A1.43,1.43,0,0,0,364.56,781.21Z"/><path d="M369.79,782.78a2.24,2.24,0,0,1-.61-1.57,2.29,2.29,0,0,1,.61-1.56,2.09,2.09,0,0,1,1.54-.69,2,2,0,0,1,1.49.69,2.17,2.17,0,0,1,.63,1.56,2.13,2.13,0,0,1-.63,1.57,2,2,0,0,1-1.49.68A2.09,2.09,0,0,1,369.79,782.78Zm.36-1.57a1.49,1.49,0,0,0,.32.95,1.24,1.24,0,0,0,.86.33,1.18,1.18,0,0,0,.82-.33,1.36,1.36,0,0,0,.35-.95,1.31,1.31,0,0,0-.35-.93,1.24,1.24,0,0,0-.82-.34,1.3,1.3,0,0,0-.86.34A1.43,1.43,0,0,0,370.15,781.21Z"/><path d="M375,784.63v-3.41h0v-1.77a.48.48,0,0,1,.47-.48.51.51,0,0,1,.5.37,2.3,2.3,0,0,1,1.21-.37,2.23,2.23,0,0,1,2.17,2.25,2.2,2.2,0,0,1-2.17,2.22,2.13,2.13,0,0,1-1.2-.37v1.57a.51.51,0,0,1-.51.49A.5.5,0,0,1,375,784.63Zm1-3.42a1.18,1.18,0,0,0,.35.89,1.13,1.13,0,0,0,1.69,0,1.26,1.26,0,0,0,.35-.89,1.34,1.34,0,0,0-.35-.9,1.15,1.15,0,0,0-1.69,0A1.25,1.25,0,0,0,376,781.21Z"/><path d="M380.47,781.2a2.22,2.22,0,0,1,2.18-2.24,2.15,2.15,0,0,1,2.16,2.08v0a.28.28,0,0,1,0,.09.44.44,0,0,1-.47.35h-2.84a1.11,1.11,0,0,0,.3.59,1.4,1.4,0,0,0,.86.41,1.5,1.5,0,0,0,.93-.23.52.52,0,0,1,.67,0,.41.41,0,0,1,0,.59,2.26,2.26,0,0,1-1.6.59A2.22,2.22,0,0,1,380.47,781.2Zm1-.44H384a1.46,1.46,0,0,0-1.32-.94A1.26,1.26,0,0,0,381.44,780.76Z"/><path d="M388.79,779.44a.47.47,0,0,1-.47.47.94.94,0,0,0-.54.17,1.4,1.4,0,0,0-.41.43,2.79,2.79,0,0,0-.36.75V783a.5.5,0,0,1-.49.48A.49.49,0,0,1,386,783v-3.52a.48.48,0,0,1,.48-.47.49.49,0,0,1,.49.47v.06a1.09,1.09,0,0,1,.19-.18,2,2,0,0,1,1.12-.35A.46.46,0,0,1,388.79,779.44Z"/><path d="M396.15,781.76h-.9a.2.2,0,0,1-.21-.2.21.21,0,0,1,.21-.22h1l.37-2.1h-1a.22.22,0,1,1,0-.43h1.05l.25-1.47a.23.23,0,0,1,.23-.2.21.21,0,0,1,.19.26l-.24,1.41h1.85l.25-1.47a.23.23,0,0,1,.23-.2.21.21,0,0,1,.19.26l-.24,1.41h.9a.21.21,0,0,1,.21.21.22.22,0,0,1-.21.22h-1l-.37,2.1h1a.21.21,0,1,1,0,.42h-1.05l-.26,1.51a.21.21,0,0,1-.22.2.21.21,0,0,1-.2-.26l.25-1.45h-1.85l-.26,1.51a.21.21,0,0,1-.22.2c-.15,0-.21-.13-.2-.26Zm2.35-.42.37-2.1H397l-.37,2.1Z"/><path d="M403.44,777.62h-1.88a.22.22,0,0,1-.22-.23.22.22,0,0,1,.22-.21h4.2a.22.22,0,0,1,.21.21.22.22,0,0,1-.21.23h-1.89v5.6a.22.22,0,1,1-.43,0Z"/><path d="M407.62,777.39a.22.22,0,0,1,.21-.21h1.4a1.55,1.55,0,0,1,.95,2.78,1.78,1.78,0,0,1-.56,3.48h-1.8a.21.21,0,0,1-.2-.22Zm1.61,2.46a1.12,1.12,0,1,0,0-2.23h-1.17v2.23Zm.39,3.15a1.35,1.35,0,0,0,0-2.7h-1.56V783Z"/><path d="M414.37,777.62h-1.89a.22.22,0,0,1-.21-.23.22.22,0,0,1,.21-.21h4.2a.22.22,0,0,1,.22.21.22.22,0,0,1-.22.23H414.8v5.6a.22.22,0,1,1-.43,0Z"/><path d="M423.91,777.39a.22.22,0,0,1,.22-.21h3.22a.21.21,0,0,1,.21.21.22.22,0,0,1-.21.23h-3v2.47H427a.22.22,0,0,1,.21.23.21.21,0,0,1-.21.21h-2.62V783h3a.22.22,0,0,1,0,.44h-3.24a.22.22,0,0,1-.2-.22Z"/><path d="M432.25,780.84a1.35,1.35,0,0,0-1.35-1.35,1.37,1.37,0,0,0-1.36,1.35v2.42a.16.16,0,0,1-.05.09.18.18,0,0,1-.16.09h-.05a.24.24,0,0,1-.14-.12,0,0,0,0,1,0,0v-4a.21.21,0,0,1,.42,0v.42a1.75,1.75,0,0,1,1.36-.63,1.77,1.77,0,0,1,1.77,1.77v2.38a.21.21,0,1,1-.42,0Z"/><path d="M433.94,784.71a.33.33,0,0,0,.32-.33v-5.1a.22.22,0,0,1,.22-.22.22.22,0,0,1,.22.22v5.1a.75.75,0,0,1-.76.76.21.21,0,0,1-.22-.2A.22.22,0,0,1,433.94,784.71Zm.34-6.87a.23.23,0,0,1,.22-.22.22.22,0,0,1,.22.22v.21a.23.23,0,0,1-.22.22.24.24,0,0,1-.22-.22Z"/><path d="M438.7,779.06a2.19,2.19,0,1,1-2.08,2.18A2.14,2.14,0,0,1,438.7,779.06Zm0,4a1.77,1.77,0,1,0-1.65-1.77A1.72,1.72,0,0,0,438.7,783Z"/><path d="M442.45,779.26a.2.2,0,0,1,.21-.2.21.21,0,0,1,.22.2v2.38a1.34,1.34,0,0,0,1.34,1.35,1.36,1.36,0,0,0,1.36-1.35v-2.38a.17.17,0,0,1,0-.11v0h0a.12.12,0,0,1,.08,0h.1l.11,0a.18.18,0,0,1,.05.07.19.19,0,0,1,0,.09v3.83a2.06,2.06,0,0,1-2.08,2,2.29,2.29,0,0,1-.91-.2.22.22,0,0,1,.19-.4,1.62,1.62,0,0,0,.72.17,1.64,1.64,0,0,0,1.65-1.62v-.29a1.77,1.77,0,0,1-3.13-1.16Z"/><path d="M448.09,777.84a.22.22,0,1,1,.43,0v.21a.22.22,0,1,1-.43,0Zm0,1.43a.2.2,0,0,1,.21-.21.2.2,0,0,1,.22.21v4a.22.22,0,1,1-.43,0Z"/><path d="M453.72,780.84a1.35,1.35,0,0,0-1.35-1.35,1.38,1.38,0,0,0-1.36,1.35v2.42a.16.16,0,0,1-.05.09.17.17,0,0,1-.16.09h-.05a.24.24,0,0,1-.14-.12,0,0,0,0,1,0,0v-4a.21.21,0,0,1,.42,0v.42a1.75,1.75,0,0,1,1.36-.63,1.78,1.78,0,0,1,1.78,1.77v2.38a.22.22,0,1,1-.43,0Z"/><path d="M459.9,783.09a2.06,2.06,0,0,1-2.07,2,2.36,2.36,0,0,1-.91-.2.24.24,0,0,1-.09-.29.2.2,0,0,1,.29-.1,1.51,1.51,0,0,0,.71.16,1.62,1.62,0,0,0,1.64-1.62v-.54a2,2,0,0,1-1.64.86,2.18,2.18,0,0,1,0-4.35,2,2,0,0,1,1.64.85v-.64a.21.21,0,0,1,.22-.21.21.21,0,0,1,.21.21Zm-.43-1.86a1.64,1.64,0,1,0-1.64,1.76A1.69,1.69,0,0,0,459.47,781.23Z"/><path d="M467.79,780.84a1.35,1.35,0,0,0-1.35-1.35,1.37,1.37,0,0,0-1.36,1.35v2.42a.16.16,0,0,1-.05.09.18.18,0,0,1-.16.09h-.05a.21.21,0,0,1-.14-.12,0,0,0,0,1,0,0v-4a.21.21,0,0,1,.42,0v.42a1.75,1.75,0,0,1,1.36-.63,1.77,1.77,0,0,1,1.77,1.77v2.38a.21.21,0,1,1-.42,0Z"/><path d="M473.81,779.27v4a.22.22,0,1,1-.43,0v-.65a2,2,0,0,1-1.64.87,2.19,2.19,0,0,1,0-4.38,2,2,0,0,1,1.64.85v-.64a.21.21,0,0,1,.22-.21A.2.2,0,0,1,473.81,779.27Zm-.43,2a1.65,1.65,0,1,0-1.64,1.77A1.7,1.7,0,0,0,473.38,781.24Z"/><path d="M477.2,779.27a.22.22,0,0,1-.21.21h-.57v3.2a.35.35,0,0,0,.33.32.22.22,0,0,1,0,.44.75.75,0,0,1-.77-.76v-3.2h-.55c-.21,0-.21-.1-.21-.21s0-.21.21-.21H476v-1.63a.24.24,0,0,1,.21-.22.24.24,0,0,1,.23.22v1.63H477A.22.22,0,0,1,477.2,779.27Z"/><path d="M479.16,779.26a.21.21,0,0,1,.22-.21.21.21,0,0,1,.21.21v2.39a1.35,1.35,0,1,0,2.7,0v-2.39a.22.22,0,0,1,.22-.21.21.21,0,0,1,.22.21v2.39a1.79,1.79,0,1,1-3.57,0Z"/><path d="M484.73,779.28a.21.21,0,0,1,.23-.21.2.2,0,0,1,.2.21v1l.06-.1a2.13,2.13,0,0,1,1.76-1.07.2.2,0,0,1,.21.21.21.21,0,0,1-.21.21,1.58,1.58,0,0,0-1.27.72,3.67,3.67,0,0,0-.53,1,.11.11,0,0,0,0,.07v1.92a.22.22,0,0,1-.2.22.22.22,0,0,1-.23-.22Z"/><path d="M487.9,781.25a2.12,2.12,0,0,1,4.24-.16h0v0a.21.21,0,0,1-.22.2h-3.59A1.72,1.72,0,0,0,490,783a1.66,1.66,0,0,0,1.41-.8.2.2,0,0,1,.28-.07.23.23,0,0,1,.08.3,2.1,2.1,0,0,1-1.77,1A2.16,2.16,0,0,1,487.9,781.25Zm.45-.34h3.32a1.69,1.69,0,0,0-1.64-1.43A1.72,1.72,0,0,0,488.35,780.91Z"/><path d="M493.66,777.39a.22.22,0,0,1,.21-.21.22.22,0,0,1,.23.21v4.49a.22.22,0,0,1-.23.22.22.22,0,0,1-.21-.22Zm0,5.62a.22.22,0,0,1,.21-.22.22.22,0,0,1,.23.22v.21a.22.22,0,0,1-.23.22.22.22,0,0,1-.21-.22Z"/><path class="cls-7" d="M342.44,801.15s0,0,0,0h0L340,795.36a.23.23,0,0,1,.12-.29.22.22,0,0,1,.29.11l2.23,5.33,2.24-5.33a.21.21,0,0,1,.28-.11.23.23,0,0,1,.12.29l-2.42,5.72a.23.23,0,0,1-.13.18h-.18A.2.2,0,0,1,342.44,801.15Z"/><path class="cls-7" d="M346.83,795.68a.22.22,0,0,1,.21-.22.22.22,0,0,1,.23.22v.2a.23.23,0,0,1-.23.24.23.23,0,0,1-.21-.24Zm0,1.43a.21.21,0,0,1,.21-.22.22.22,0,0,1,.23.22v3.95a.22.22,0,0,1-.23.21.21.21,0,0,1-.21-.21Z"/><path class="cls-7" d="M349,799.09a2.12,2.12,0,0,1,4.24-.16h0v0a.21.21,0,0,1-.22.2h-3.59a1.71,1.71,0,0,0,1.7,1.67,1.65,1.65,0,0,0,1.41-.79.2.2,0,0,1,.28-.07.23.23,0,0,1,.08.3,2.09,2.09,0,0,1-1.77,1A2.16,2.16,0,0,1,349,799.09Zm.45-.35h3.32a1.69,1.69,0,0,0-1.64-1.42A1.72,1.72,0,0,0,349.47,798.74Z"/><path class="cls-7" d="M356,801.24a.18.18,0,0,1-.09-.1l-1.64-3.92a.2.2,0,0,1,.1-.27.21.21,0,0,1,.28.11l1.46,3.45,1-2.4a.22.22,0,0,1,.2-.13.25.25,0,0,1,.22.13l1,2.4,1.44-3.45a.22.22,0,0,1,.28-.11.21.21,0,0,1,.12.27l-1.64,3.9a.18.18,0,0,1-.08.11.15.15,0,0,1-.11,0h0a.19.19,0,0,1-.17-.13h0l-1-2.42-1,2.41v0a.19.19,0,0,1-.18.13h-.08Z"/><path class="cls-7" d="M368.61,797.11v3.95a.21.21,0,0,1-.21.21.21.21,0,0,1-.22-.21v-.65a2,2,0,0,1-1.64.86,2.19,2.19,0,0,1,0-4.38,2,2,0,0,1,1.64.86v-.64a.22.22,0,1,1,.43,0Zm-.43,2a1.65,1.65,0,1,0-1.64,1.76A1.71,1.71,0,0,0,368.18,799.08Z"/><path class="cls-7" d="M370.66,795.23a.22.22,0,0,1,.21-.21.22.22,0,0,1,.23.21v5.83a.22.22,0,0,1-.23.21.21.21,0,0,1-.21-.21Z"/><path class="cls-7" d="M372.89,795.23a.22.22,0,0,1,.21-.21.21.21,0,0,1,.22.21v5.83a.21.21,0,0,1-.22.21.21.21,0,0,1-.21-.21Z"/><path class="cls-7" d="M377.38,800.89l2.93-2.64a1.6,1.6,0,0,0,.11-2.27,1.57,1.57,0,0,0-1.18-.52,1.64,1.64,0,0,0-1.1.41l-.3.27a.21.21,0,0,1-.29-.31l.3-.28a2.08,2.08,0,0,1,1.39-.53,2,2,0,0,1,2,2,2,2,0,0,1-.67,1.51l-2.5,2.27h3a.21.21,0,0,1,.21.22.21.21,0,0,1-.21.21h-3.52c-.07,0-.13,0-.16-.06A.24.24,0,0,1,377.38,800.89Z"/><path class="cls-7" d="M386,800h-3.42a.17.17,0,0,1-.13,0,.2.2,0,0,1,0-.3l3.62-4.51h0a.21.21,0,0,1,.3,0s.06.07.08.1v4.36h.42a.22.22,0,1,1,0,.43h-.42v1.07a.21.21,0,0,1-.22.21.21.21,0,0,1-.21-.21Zm0-.43v-3.67l-3,3.67Z"/><path class="cls-7" d="M389,796.38a2.54,2.54,0,0,1,2.19-1.35.22.22,0,0,1,.22.2.22.22,0,0,1-.21.23,2.15,2.15,0,0,0-1.83,1.14,4.21,4.21,0,0,0-.44,1.25,2,2,0,0,1,1.54-.71,2.07,2.07,0,1,1-2.06,2.14,2.75,2.75,0,0,1,0-.41A5.21,5.21,0,0,1,389,796.38Zm-.15,2.86s0,.08,0,.12v.06a1.63,1.63,0,0,0,1.61,1.42,1.63,1.63,0,1,0-1.62-1.63Z"/><path class="cls-7" d="M396.79,799.08a2.21,2.21,0,0,1,2.25-2.19,2.25,2.25,0,0,1,1.4.49.19.19,0,0,1,0,.29.22.22,0,0,1-.29,0,1.81,1.81,0,0,0-1.13-.4,1.77,1.77,0,1,0,0,3.53,1.85,1.85,0,0,0,1.13-.38.22.22,0,0,1,.29,0,.2.2,0,0,1,0,.31,2.25,2.25,0,0,1-1.38.46A2.2,2.2,0,0,1,396.79,799.08Z"/><path class="cls-7" d="M404,796.89a2.19,2.19,0,1,1-2.08,2.19A2.14,2.14,0,0,1,404,796.89Zm0,4a1.77,1.77,0,1,0-1.65-1.76A1.71,1.71,0,0,0,404,800.84Z"/><path class="cls-7" d="M413.93,798.68a1.38,1.38,0,0,0-1.36-1.36,1.37,1.37,0,0,0-1.35,1.36v2.42h0v0a.23.23,0,0,1-.1.12.22.22,0,0,1-.11,0h-.06l-.06,0,0,0,0,0h0v-2.5a1.35,1.35,0,1,0-2.7,0v2.39a.21.21,0,0,1-.1.17l-.06,0h-.09a.21.21,0,0,1-.17-.16v-4a.21.21,0,1,1,.42,0v.42a1.73,1.73,0,0,1,1.35-.63,1.77,1.77,0,0,1,1.56.93,1.81,1.81,0,0,1,1.57-.93,1.78,1.78,0,0,1,1.78,1.78v2.39a.21.21,0,0,1-.42,0Z"/><path class="cls-7" d="M422.44,798.68a1.38,1.38,0,0,0-1.36-1.36,1.37,1.37,0,0,0-1.35,1.36v2.42h0v0a.25.25,0,0,1-.11.12.2.2,0,0,1-.11,0h-.06s0,0-.05,0l0,0,0,0s0,0,0,0v0a0,0,0,0,0,0,0v-2.43a1.35,1.35,0,1,0-2.7,0v2.39a.19.19,0,0,1-.1.17.09.09,0,0,1-.05,0h-.09c-.08,0-.15-.08-.18-.16v-4a.21.21,0,0,1,.21-.21.21.21,0,0,1,.21.21v.42a1.73,1.73,0,0,1,1.35-.63,1.77,1.77,0,0,1,1.56.93,1.84,1.84,0,0,1,1.58-.93,1.78,1.78,0,0,1,1.78,1.78v2.39a.21.21,0,0,1-.22.2.2.2,0,0,1-.2-.2Z"/><path class="cls-7" d="M424.36,799.09a2.12,2.12,0,0,1,4.24-.16h0v0a.21.21,0,0,1-.22.2h-3.59a1.72,1.72,0,0,0,1.7,1.67,1.64,1.64,0,0,0,1.41-.79.21.21,0,0,1,.29-.07.22.22,0,0,1,.07.3,2.09,2.09,0,0,1-1.77,1A2.16,2.16,0,0,1,424.36,799.09Zm.46-.35h3.31a1.69,1.69,0,0,0-1.64-1.42A1.71,1.71,0,0,0,424.82,798.74Z"/><path class="cls-7" d="M433.25,798.68a1.35,1.35,0,0,0-1.35-1.35,1.38,1.38,0,0,0-1.36,1.35v2.42a.25.25,0,0,1,0,.09.18.18,0,0,1-.16.08h-.06a.22.22,0,0,1-.14-.11,0,0,0,0,1,0,0v-4a.22.22,0,0,1,.22-.22.21.21,0,0,1,.2.22v.42a1.75,1.75,0,0,1,1.36-.64,1.79,1.79,0,0,1,1.78,1.78v2.38a.21.21,0,0,1-.21.21.21.21,0,0,1-.22-.21Z"/><path class="cls-7" d="M437.13,797.11a.23.23,0,0,1-.21.21h-.57v3.19a.35.35,0,0,0,.33.33.25.25,0,0,1,.22.22.24.24,0,0,1-.22.21.74.74,0,0,1-.77-.76v-3.19h-.55c-.21,0-.21-.1-.21-.21s0-.22.21-.22h.55v-1.62a.23.23,0,0,1,.21-.22.24.24,0,0,1,.23.22v1.62h.57A.24.24,0,0,1,437.13,797.11Z"/><path class="cls-7" d="M438.88,800.36a.2.2,0,0,1,.3,0,2.36,2.36,0,0,0,1.34.5,1.31,1.31,0,0,0,.83-.26.66.66,0,0,0,.33-.54.72.72,0,0,0-.31-.54,2.21,2.21,0,0,0-.93-.32h0a2.46,2.46,0,0,1-1-.34.89.89,0,0,1-.47-.78,1.07,1.07,0,0,1,.47-.86,1.88,1.88,0,0,1,1.07-.3,2.31,2.31,0,0,1,1.31.48.22.22,0,0,1,.06.3.21.21,0,0,1-.29.07,1.92,1.92,0,0,0-1.08-.44,1.28,1.28,0,0,0-.83.25.64.64,0,0,0-.27.5.54.54,0,0,0,.25.44,2.19,2.19,0,0,0,.89.3h0a3,3,0,0,1,1.06.36,1.06,1.06,0,0,1,.49.89,1.11,1.11,0,0,1-.5.89,1.79,1.79,0,0,1-1.09.34,2.67,2.67,0,0,1-1.62-.62A.21.21,0,0,1,438.88,800.36Z"/><path d="M342.54,765.53a2.18,2.18,0,0,1,.65,1.57,2.22,2.22,0,0,1-2.22,2.22,2.24,2.24,0,0,1-1.57-.65.51.51,0,1,1,.72-.72,1.16,1.16,0,0,0,.85.35,1.2,1.2,0,0,0,.86-.35,1.18,1.18,0,0,0,.35-.85,1.15,1.15,0,0,0-.35-.85,1.19,1.19,0,0,0-.85-.36.43.43,0,0,1-.37-.16h0a.53.53,0,0,1,0-.72l.92-.93h-1.45a.5.5,0,0,1,0-1h2.63a.5.5,0,0,1,.51.5.48.48,0,0,1-.06.24.34.34,0,0,1-.09.12l-1.12,1.16A2.06,2.06,0,0,1,342.54,765.53Z"/><path d="M345.42,768.06a.67.67,0,0,1,.67.67.67.67,0,1,1-.67-.67Z"/><path d="M346.49,766.2a3.84,3.84,0,0,1,.6-2.13,1.88,1.88,0,0,1,3.32,0,4.1,4.1,0,0,1,0,4.27,1.89,1.89,0,0,1-3.32,0A3.87,3.87,0,0,1,346.49,766.2Zm3.53,0a3,3,0,0,0-.43-1.59,1,1,0,0,0-.83-.54,1.08,1.08,0,0,0-.85.54,3,3,0,0,0-.43,1.59,2.9,2.9,0,0,0,.43,1.58,1.08,1.08,0,0,0,.85.56,1.06,1.06,0,0,0,.83-.56A2.9,2.9,0,0,0,350,766.2Z"/><path d="M357.62,767.67a.49.49,0,0,1-.5.49H357v.68a.49.49,0,1,1-1,0v-.68h-2.82a.43.43,0,0,1-.3-.11.47.47,0,0,1-.08-.69l3.3-4.11,0,0,0,0,0,0,0,0h.05s0,0,0,0l.05,0h.23l.06,0h0l.05,0,0,0h0l0,0,0,0,0,0,0,0s0,0,0,0l0,0s0,0,0,0a.09.09,0,0,1,0,0s0,0,0,0v3.64h.09A.49.49,0,0,1,357.62,767.67Zm-1.57-2.7-1.78,2.21h1.78Z"/><path d="M362.07,765.54a2.19,2.19,0,0,1,.66,1.57,2.23,2.23,0,0,1-.66,1.57,2.17,2.17,0,0,1-1.56.65h0a2.15,2.15,0,0,1-1.55-.65.49.49,0,0,1,0-.72.51.51,0,0,1,.71,0,1.2,1.2,0,0,0,1.71,0,1.21,1.21,0,0,0,.36-.85,1.16,1.16,0,0,0-.36-.85,1.13,1.13,0,0,0-.85-.35,1.15,1.15,0,0,0-.86.35.51.51,0,0,1-.71,0l-.1-.12s0,0,0,0a.05.05,0,0,0,0,0s0-.05,0-.07h0a.38.38,0,0,1,0-.15l.27-2.32a.59.59,0,0,1,.22-.36l0,0h0a.44.44,0,0,1,.23-.06h2.64a.51.51,0,1,1,0,1H360l-.11.89a2.47,2.47,0,0,1,.6-.08A2.17,2.17,0,0,1,362.07,765.54Z"/><path d="M367.67,763.07a.5.5,0,0,1,.5.5v5.27a.5.5,0,0,1-1,0v-5.27A.5.5,0,0,1,367.67,763.07Z"/><path d="M370.32,763.74a.49.49,0,0,1-.48.5.5.5,0,0,1-.49-.5v-.18a.49.49,0,0,1,.49-.49.48.48,0,0,1,.48.49Zm0,1.62v3.49a.47.47,0,0,1-.48.48.48.48,0,0,1-.49-.48v-3.49a.48.48,0,0,1,.49-.49A.48.48,0,0,1,370.32,765.36Z"/><path d="M371.86,768.84v-5.27a.49.49,0,0,1,.49-.5.5.5,0,0,1,.5.5v3.09l1.83-1.83a.5.5,0,0,1,.7,0,.47.47,0,0,1,0,.69L374,766.86l1.38,1.66a.48.48,0,0,1-.08.69.47.47,0,0,1-.31.12.45.45,0,0,1-.37-.18l-1.32-1.59-.49.49v.79a.49.49,0,0,1-.5.49A.48.48,0,0,1,371.86,768.84Z"/><path d="M376.33,767.1a2.22,2.22,0,0,1,2.18-2.24,2.15,2.15,0,0,1,2.16,2.07V767a.22.22,0,0,1,0,.08.44.44,0,0,1-.47.36h-2.84a1.15,1.15,0,0,0,.3.59,1.45,1.45,0,0,0,1.79.18.51.51,0,0,1,.67,0,.4.4,0,0,1,0,.58,2.26,2.26,0,0,1-1.6.59A2.22,2.22,0,0,1,376.33,767.1Zm1-.44h2.53a1.45,1.45,0,0,0-1.32-.95A1.26,1.26,0,0,0,377.3,766.66Z"/><path d="M381.87,768.05a.48.48,0,0,1,.68-.07,1.59,1.59,0,0,0,1,.39,1.22,1.22,0,0,0,.61-.17.36.36,0,0,0,.16-.26.11.11,0,0,0,0-.09s0-.07-.12-.11a2,2,0,0,0-.71-.25h0a4.2,4.2,0,0,1-.78-.23,1.52,1.52,0,0,1-.61-.52,1.08,1.08,0,0,1-.16-.57,1.26,1.26,0,0,1,.53-1,2,2,0,0,1,1.1-.33,2.34,2.34,0,0,1,1.34.49.48.48,0,0,1,.14.66.47.47,0,0,1-.66.13,1.48,1.48,0,0,0-.82-.33.94.94,0,0,0-.54.16.28.28,0,0,0-.14.2.11.11,0,0,0,0,.08.3.3,0,0,0,.1.09,1.74,1.74,0,0,0,.65.21h0a3,3,0,0,1,.83.26,1.4,1.4,0,0,1,.63.53,1.1,1.1,0,0,1,.17.59,1.29,1.29,0,0,1-.56,1,2,2,0,0,1-1.16.36,2.58,2.58,0,0,1-1.59-.62A.47.47,0,0,1,381.87,768.05Z"/><rect class="cls-5" x="312.12" y="297.45" width="406.68" height="406.68"/><path class="cls-5" d="M350.38,746.65h-1.24c-.35-.23-8.38-5.69-11.82-12-2.42-4.44-2.75-9.4-.83-12.63a6.29,6.29,0,0,1,5.58-3.19c3.91,0,6.37,2.76,7.69,5.43,1.33-2.67,3.79-5.43,7.69-5.43A6.28,6.28,0,0,1,363,722c1.92,3.24,1.6,8.19-.81,12.62h0C358.76,741,350.72,746.42,350.38,746.65ZM342.07,721a4.05,4.05,0,0,0-3.65,2.1c-1.53,2.57-1.19,6.66.86,10.42,2.66,4.9,8.55,9.42,10.48,10.82,1.93-1.4,7.83-5.92,10.5-10.82h0c2.05-3.75,2.38-7.84.86-10.41a4.11,4.11,0,0,0-3.67-2.11c-5.1,0-6.54,6.47-6.6,6.74h-2.18C348.61,727.47,347.18,721,342.07,721Zm19.17,13h0Z"/><path class="cls-5" d="M445.28,748.25l-2-.38-4-15-9.33-10.19.83-1.87h32.9l.89,1.79Zm-12-25.25,7.79,8.51.26.46,3.51,13.1L461.43,723Z"/><rect class="cls-5" x="438.06" y="725.95" width="27.82" height="2.24" transform="translate(-256.09 245.86) rotate(-23.93)"/><path class="cls-5" d="M395.61,746.83a14,14,0,1,1,14-14,13.87,13.87,0,0,1-.59,4l2.12,8.65-1.34,1.35-7.4-1.73A14.12,14.12,0,0,1,395.61,746.83Zm0-25.82a11.79,11.79,0,1,0,6.09,21.91l.82-.13,6.06,1.42L406.82,737l0-.61A11.8,11.8,0,0,0,395.61,721Z"/><path class="cls-5" d="M670,746.63l-1.77-.91V721.88l1.11-1.12h19.38l1.11,1.12v23.84l-1.77.91-9-8.2Zm.46-23.63v20.52l7.91-7.38h1.32l7.91,7.38V723Z"/><rect class="cls-5" x="312.12" y="229.62" width="405.49" height="0.56"/><path class="cls-8" d="M448.36,512.57c-1.9,3.47-6.87,4.28-10.59,5.33l-16.38,4.63-32,9c-5.38,1.52-10.74,3.21-16.19,4.54-3.82.93-10.91-2.92-10.33-2.71-2.51-8-1.69-17.32,5.34-23.34.61-.52,2.18-1.23,2.54-1.83.77-1.3-.36-3.24-.82-4.48a82.91,82.91,0,0,0-3.46-7.94,34.58,34.58,0,0,0-1.92-3.6c-1.05-1.6-2.63-1.43-4.46-1.29-2,.14-4.14.08-5.76-1.12-3.24-2.38-1-5.31,1.22-7.51a39.14,39.14,0,0,1,10.2-7.37,37.89,37.89,0,0,1,25.14-3.18c9.2,2.07,15.72,7.95,21.42,14.43,1.62,1.84,2.72,3.49,5.48,3.94,2.38.38,4.8.58,7.17,1a43.87,43.87,0,0,1,13.59,4.56C444.1,498.79,451.91,506.09,448.36,512.57Z"/><path class="cls-6" d="M445.61,521c-4.17,2.82-9.3,3.63-14.32,4.5a44,44,0,0,0-8.83,2.17,50.56,50.56,0,0,0-7.51,3.94,70.05,70.05,0,0,1-14.76,6.76A66.89,66.89,0,0,1,384,541.25c-5.1.3-11,.39-15.67-1.79-3.71-1.75-6.33-5.16-5.59-9a8.94,8.94,0,0,1,2.85-4.9c1.63-1.46,5.18-2.52,5.22-4.91.06-3-13.3-7.82-18.71-17.77-2.32-4.27-3.66-9.56-1.31-14.05s7.57-6.81,12.73-7.53c5.46-.77,11.23-.18,16.63.7a77.58,77.58,0,0,1,16.68,4.68c5.25,2.13,10.18,4.82,15.34,7.1a63.87,63.87,0,0,0,16.91,4.78c8.42,1.23,20.65,3.61,21.74,13C451.28,515.39,448.91,518.74,445.61,521Z"/><path class="cls-8" d="M369.89,527.09a2.27,2.27,0,0,0-1.73,1.51,2,2,0,0,0-.15,1.21l0,.08a1.85,1.85,0,0,0,.08.46,2.34,2.34,0,0,0,4.23.53A2.49,2.49,0,0,0,369.89,527.09Z"/><path class="cls-8" d="M435.83,517.87l.07-.18h0a1.29,1.29,0,0,0-.36-1.27,1,1,0,0,0-.3-.19,1.17,1.17,0,0,0-1.78.39c-.63,1.2.88,2.79,2,1.77a1.14,1.14,0,0,0,.3-.39s0,0,0,0S435.82,517.89,435.83,517.87Z"/><path class="cls-8" d="M361,487a1,1,0,0,0,.06-.18h0a1.3,1.3,0,0,0-.36-1.27,1.41,1.41,0,0,0-.3-.19,1.18,1.18,0,0,0-1.78.39c-.62,1.2.89,2.79,2,1.78a1.45,1.45,0,0,0,.3-.4l0-.05Z"/><path class="cls-8" d="M378.78,526.41a.94.94,0,0,0-1.17.38.53.53,0,0,0-.08.5.88.88,0,0,0,1.7.28A.9.9,0,0,0,378.78,526.41Z"/><path class="cls-8" d="M406,504.67a.93.93,0,0,0-1.17.38.58.58,0,0,0-.08.49.89.89,0,1,0,1.25-.87Z"/><path class="cls-8" d="M440.59,517.89a.94.94,0,0,0-1.17.38.54.54,0,0,0-.08.5.88.88,0,0,0,1.7.28A.9.9,0,0,0,440.59,517.89Z"/><path class="cls-8" d="M535.64,338.27c-.27,3.64-4.93,4.73-7.83,5.54-8.66,2.44-17.8,1.53-26.58.35-9.45-1.27-19.31-3-28.76-.85-7.13,1.65-13.93,5.49-17.65,11.88,56.4-6.91,72.22,35.52,68.64,37.15-4,1.83-16.43,7.33-20.81,7.77-9.63,1-19.39-.11-29-.5-10.12-.41-20.26-.64-30.38-.93-20-.57-40-1.33-59.84-4.07a245.69,245.69,0,0,1-29.57-5.83c-7-1.87-18.76-3.13-18-10.94,1.29-14,13.73-35.57,46.13-33.18a46.59,46.59,0,0,1,5.55-22.4c6.75-12.69,19-22,33.25-24.23a48.15,48.15,0,0,1,39.14,11.28A41.1,41.1,0,0,1,514,322.45a18.58,18.58,0,0,1,18.44,7.07C534.18,331.87,535.87,335.23,535.64,338.27Z"/><path class="cls-6" d="M543.19,341.94c-2.28,5.81-8,9.39-13.6,11.54-14.1,5.44-29.56,2.31-44.09.92-7.24-.7-14.66-1-21.87.18-6.63,1.12-15.44,3.84-19.32,9.81-2.73,4.18.56,8.59,4.8,9.79,3.92,1.11,8.18.12,12.12-.4A212.18,212.18,0,0,1,487.41,372c13-.09,29,1.72,34.75,15.44a16.3,16.3,0,0,1-2.25,16.53A33.47,33.47,0,0,1,508.08,414c-4,3.91-10.08,5.57-15.77,5.44-10.31-.23-20.18-4.25-30.24-6.16a47.19,47.19,0,0,0-14.61-.77c-4.7.58-9.11,2.31-13.65,3.55a48,48,0,0,1-26.46-.28c-8.6-2.59-16.35-7.34-25-9.86-8-2.34-16.32-3.82-24.26-6.53-7.09-2.43-14.75-6-19.38-12.12s-3.67-13.41,2-18.35c6.39-5.55,16-8.35,24.12-8.34,24,0,25.24-11.49,24-14.62-2.44-5.9-2.77-12.29.29-18a26,26,0,0,1,13.05-11.35c6.52-2.69,13.82-2.66,20.66-1.35,8,1.53,15,5.22,22.72,7.66,8.79,2.79,17.21.07,25.73-2.34A132.11,132.11,0,0,1,494.88,316a86.56,86.56,0,0,1,23.84.82c6.9,1.28,14.3,3.36,19.59,8.21C542.89,329.2,545.55,335.92,543.19,341.94Z"/><path class="cls-8" d="M347.07,373.7a2.25,2.25,0,0,0-1.73,1.52,1.87,1.87,0,0,0-.15,1.21.31.31,0,0,0,0,.08,1.78,1.78,0,0,0,.08.45,2.34,2.34,0,0,0,4.23.53A2.49,2.49,0,0,0,347.07,373.7Z"/><path class="cls-8" d="M493.45,403.07a2.25,2.25,0,0,0-1.73,1.51,1.88,1.88,0,0,0-.15,1.21s0,0,0,.08a1.93,1.93,0,0,0,.08.46,2.34,2.34,0,0,0,4.23.52A2.48,2.48,0,0,0,493.45,403.07Z"/><path class="cls-8" d="M355.33,380.6a1,1,0,0,0,.06-.18h0a1.3,1.3,0,0,0-.36-1.27,1.41,1.41,0,0,0-.3-.19,1.18,1.18,0,0,0-1.78.39c-.62,1.2.89,2.79,2,1.78a1.45,1.45,0,0,0,.3-.4l0-.05Z"/><path class="cls-8" d="M521.63,328.76a1.27,1.27,0,0,0,.06-.18h0a1.28,1.28,0,0,0-.37-1.27.91.91,0,0,0-.3-.19,1.17,1.17,0,0,0-1.78.39c-.62,1.2.89,2.79,2,1.77a1.14,1.14,0,0,0,.3-.39l0-.05Z"/><path class="cls-8" d="M356,373a.94.94,0,0,0-1.17.38.6.6,0,0,0-.08.5A.89.89,0,1,0,356,373Z"/><path class="cls-8" d="M440.3,328.78a.94.94,0,0,0-1.17.38.56.56,0,0,0-.07.5.88.88,0,0,0,1.7.28A.89.89,0,0,0,440.3,328.78Z"/><path class="cls-8" d="M530.23,326.52a.94.94,0,0,0-1.17.38.56.56,0,0,0-.07.5.88.88,0,0,0,1.7.28A.89.89,0,0,0,530.23,326.52Z"/><path class="cls-8" d="M415,449c-3.8,7.89-14,5.73-20.58,3.64-9.77-3.14-19.47-6.45-29.43-8.87s-20.41-4-30.78-3.41c-3.8.22-8.8,1.73-12.22-.63a5,5,0,0,1-1.82-6.5c-.61-7.26,5.7-12.65,12.49-14.9a6.18,6.18,0,0,0,3.84-2.64c.58-.93,1-1.92,1.63-2.84a32.65,32.65,0,0,1,3.93-5.06,35.11,35.11,0,0,1,10.15-7.44,34.3,34.3,0,0,1,41.46,9.57c1.32,1.68,2.34,3.56,3.62,5.28,1.47,2,3.49,3.05,5.5,4.38a29.29,29.29,0,0,1,8.08,7.92,29.65,29.65,0,0,1,4.61,10.94C416.15,441.77,416.54,445.78,415,449Z"/><path class="cls-6" d="M412.84,453.88a17.5,17.5,0,0,1-11.56,7c-9.54,1.48-17.7-3.8-25.42-8.55-4.64-2.87-9-4.22-14.46-3.27-4.2.71-8.23,1.82-12.51,2-8.05.33-17.56-1.35-24.14-6.3-5.38-4.07-7.44-12-1.36-16.47,3.27-2.39,7.44-3.24,11.34-4a52.78,52.78,0,0,0,13.7-4.27c15.67-7.58,33.72-7.79,48.9,1.21,6.64,3.94,13,9.61,16.78,16.45C416.91,442.82,417.48,449.94,412.84,453.88Z"/><path class="cls-8" d="M398.54,438.57a2.26,2.26,0,0,0-1.73,1.52,2,2,0,0,0-.15,1.21l0,.08a1.78,1.78,0,0,0,.08.45,2.34,2.34,0,0,0,4.23.53A2.49,2.49,0,0,0,398.54,438.57Z"/><path class="cls-8" d="M328.24,432.86a2.28,2.28,0,0,0-1.74,1.52,1.94,1.94,0,0,0-.14,1.21.31.31,0,0,0,0,.08,1.78,1.78,0,0,0,.08.45,2.34,2.34,0,0,0,4.23.53A2.49,2.49,0,0,0,328.24,432.86Z"/><path class="cls-8" d="M406.8,445.47a1,1,0,0,0,.07-.18h0a1.3,1.3,0,0,0-.36-1.27,1.72,1.72,0,0,0-.3-.19,1.17,1.17,0,0,0-1.78.39c-.63,1.2.88,2.79,2,1.78a1.27,1.27,0,0,0,.3-.4l0,0S406.79,445.49,406.8,445.47Z"/><path class="cls-8" d="M357.91,445.68a1,1,0,0,0,.06-.18h0a1.3,1.3,0,0,0-.36-1.27,1.09,1.09,0,0,0-.3-.18,1.17,1.17,0,0,0-1.78.38c-.62,1.2.89,2.79,2,1.78a1.31,1.31,0,0,0,.3-.4l0-.05Z"/><path class="cls-8" d="M407.43,437.89a.94.94,0,0,0-1.17.38.54.54,0,0,0-.08.5.88.88,0,0,0,1.7.28A.9.9,0,0,0,407.43,437.89Z"/><path class="cls-8" d="M364.12,419.37a.94.94,0,0,0-1.17.37.57.57,0,0,0-.07.5.89.89,0,1,0,1.24-.87Z"/><path class="cls-8" d="M331.45,441.87a1,1,0,0,0-1.18.37.57.57,0,0,0-.07.5.89.89,0,1,0,1.25-.87Z"/><path class="cls-2" d="M507.06,703.49H441.41s32.52-38,45.86-69.65c3-7.18,5.06-14,5.52-20.07.75-10,1.78-21,1.55-32.24h0c-.48-23.08-6.33-46.63-31.14-61.91a81.89,81.89,0,0,0-8-4.31c-25.06-11.82-44.79,5.48-49.38,9.17-1.07.86-2.68,2.14-4.67,3.56-6.58,4.68-17.32,10.76-26.53,7.15-2.34-.92,6.63.51,13.15-2.75s20-16.11,28.34-19.38c0,0-28.58,4.14-45.06-22.21,1.07,1.34,18.53,24.85,48.73,18.14,9.17-2,24.47-3.47,34.66.2,0,0,3.26-22.22-39.35-42.2S370,424,371,421.72c.88-1.86,5.54,9.64,12.89,18.82a44.43,44.43,0,0,0,4.89,5.24c6.47,5.8,18.14,11.14,30,17.21,14.45,7.37,29.18,15.8,35.22,27.44,0,0-.35-9.27,0-20.59v0c.12-3.6.31-7.41.6-11.2.8-10.2-5.92-33.34-22.85-47h0c-9.12-7.35-21.2-11.95-36.67-10.29-5.7.61-2.24-3.26,8.16-4.08s21.4,3.88,21.4,3.88a43.69,43.69,0,0,1-4.24-5.91l0,0a40,40,0,0,1-5.94-17.1A40.55,40.55,0,0,0,410,362.94c-2-4-3.88-6.64-3.46-7.69.83-2,7.35,2.45,10.2,15.91,0,0,4.49-14.27,6.93-19s-2.23-15.5,0-15.91,6.74,9,0,26.51-.4,29.35,7.34,36.09,23.8,25.32,27.88,43.47c0,0,1.16-11.4,3.11-33.28,1.44-16,11.22-28.95,13.66-27.93s-9.37,15.08-10,30.17c-.2,4.86,0,9.86.19,14.82.46,10.4,1.14,20.61-.88,29.1a69.65,69.65,0,0,0-1.78,17.82,71.88,71.88,0,0,0,1.26,11.61c1.84,9.52,5.52,17.9,10.39,23.49,5.77,6.63,18.18,15.92,27.42,31.07a77.13,77.13,0,0,1,11.31,38.66C514.81,618.26,496.87,686.76,507.06,703.49Z"/><path class="cls-5" d="M510.13,571.34c-1.37-10.16-7.36-20.63-12.6-29.48a.18.18,0,0,0-.31.19c9.5,17,10.56,37.08,8.75,56-2,20.77-9.43,40.95-10.82,61.8-.75,11.18,1.61,22.78,4.7,33.62a.53.53,0,0,0,1-.28c-4.4-21.1-1.74-42.1,1.88-63.1C506.14,610.58,512.81,591.23,510.13,571.34Z"/><path class="cls-5" d="M490.42,640.27c-4.4,11.47-10.21,22.24-15.87,33.13q-4.35,8.39-8.21,17c-1.91,4.31-3.63,8.72-5.45,13.08h-7.44c4.05-11.83,11.82-22,18.84-32.25A176.83,176.83,0,0,0,484,651.88c3.59-7,6.29-14.33,9.23-21.63a.25.25,0,0,1,.47.14,82,82,0,0,1-3.32,9.85S490.43,640.24,490.42,640.27Z"/><path class="cls-5" d="M493.58,648.28c-1.07,4.23-2.2,8.41-3.42,12.56-.07.34-.15.68-.22,1a104.44,104.44,0,0,0-1.85,14.64,101.94,101.94,0,0,0,.21,14.09c.34,4.15,1.22,8.64,1,12.89H475.87c.68-9.43,4.45-18.35,7.86-27.08,1.71-4.38,3.35-8.77,4.81-13.24.39-1.21.78-2.42,1.15-3.63.59-2.43,1.27-4.82,2-7.2a12.7,12.7,0,0,1,1.14-3.31c.11-.29.2-.58.3-.85S493.65,648,493.58,648.28Z"/><path class="cls-5" d="M500.94,587.63a.3.3,0,0,1-.6,0A113.38,113.38,0,0,0,497.2,565a99.38,99.38,0,0,0-7.84-20.57c-6.15-11.79-15.43-23.35-26.84-30.45,0,0,0-.06,0,0A64.21,64.21,0,0,1,477,524.73a49.11,49.11,0,0,1,15.77,18.11,49.77,49.77,0,0,1,4.34,12.34c.75,3.65,1.35,7.42,1.78,11.18A94.81,94.81,0,0,1,500.94,587.63Z"/><path class="cls-5" d="M496.94,616c-1.63,6.87-5.66,12.24-9.67,17.8,3-7.18,5.06-14,5.52-20.07.75-10,1.78-21,1.55-32.24C496.82,593,499.69,604.42,496.94,616Z"/><path class="cls-5" d="M502.27,539.23a110,110,0,0,0-8-8.15c-5.48-5-12-8.87-17.18-14.21-8.14-8.38-13.14-20.42-12.62-32.2,1.84,9.52,5.52,17.9,10.39,23.49C480.62,514.79,493,524.08,502.27,539.23Z"/><path class="cls-5" d="M418.83,463c-5.55-1.41-11.16-2.67-16.33-5.17s-9.3-6.61-13.26-10.79a49.74,49.74,0,0,1-5.32-6.49,44.43,44.43,0,0,0,4.89,5.24C395.28,451.58,407,456.92,418.83,463Z"/><path class="cls-5" d="M454.66,458.62c.8-10.2-5.92-33.34-22.85-47a47.3,47.3,0,0,1,12.83,11.27c3.61,4.31,7.07,8.93,9.28,14.15,4.5,10.58,2.1,21.83.14,32.77C454.18,466.22,454.37,462.41,454.66,458.62Z"/><path class="cls-5" d="M463.2,519.61a81.89,81.89,0,0,0-8-4.31c-25.06-11.82-44.79,5.48-49.38,9.17-1.07.86-2.68,2.14-4.67,3.56a54.21,54.21,0,0,1,30.35-18.72,30,30,0,0,1,18.68,1.39A38.19,38.19,0,0,1,463.2,519.61Z"/><path class="cls-5" d="M445.58,483.27c-6.27-8.78-16.8-13.77-26.6-17.49-.07,0-.12.09-.05.13,9.27,5.33,18.56,10,26.12,17.77C445.31,484,445.81,483.59,445.58,483.27Z"/><path class="cls-5" d="M471.77,515.41c-3.86-5.36-7.95-11.15-9.39-17.69-1.56-7.13-1.38-14.38-2-21.6a.23.23,0,0,0-.45,0,89.44,89.44,0,0,0-.19,11.92,51.31,51.31,0,0,0,1,10.56c1.62,6.95,5.85,12,10.46,17.22C471.48,516.11,472,515.73,471.77,515.41Z"/><path class="cls-5" d="M465,455.24a69.65,69.65,0,0,0-1.78,17.82.38.38,0,0,1-.09-.12c-3-9.26-1.79-19.61-.08-29q1.62-8.88,2.83-17.8C466.32,436.54,467,446.75,465,455.24Z"/><path class="cls-5" d="M447.83,421.71a73.17,73.17,0,0,0-10.7-12.54c-4.13-4.09-8.52-8.14-11.31-13.31-.13-.24-.5,0-.37.22a53.77,53.77,0,0,0,9.84,13.45c4,4.14,8.45,8,12.06,12.56C447.56,422.36,448,422,447.83,421.71Z"/><path class="cls-5" d="M420.43,395.19a40,40,0,0,1-5.94-17.1A40.55,40.55,0,0,0,410,362.94a39.62,39.62,0,0,1,6.33,12.13,41.27,41.27,0,0,1,1.11,9.34A31.06,31.06,0,0,0,420.43,395.19Z"/><path class="cls-8" d="M676.05,501.36c-1.57.8-3.52.37-5.19.24q-3.37-.24-6.75-.32a262.51,262.51,0,0,0-27.9,1.29c-9.29.78-18.59,1.68-27.92,1.88a113.78,113.78,0,0,1-13.82-.3c-2.76-.27-5.43-1.22-6.59-3.78a.38.38,0,0,1-.45-.39,13.74,13.74,0,0,1,3.67-9.29,15.38,15.38,0,0,1,4-3.13,14.31,14.31,0,0,1,2.39-1,14.5,14.5,0,0,0,2.48-.53c.93-.58,1.49-3.17,2-4.23a35.95,35.95,0,0,1,11.1-12.84c10.7-7.53,25.48-7.5,35.64,1.07a25.67,25.67,0,0,1,3.77,4c.4.53.72,1.16,1.16,1.65.6.7.88.6,1.81.57a25,25,0,0,1,10.95,2.1,20,20,0,0,1,11.86,15.88C678.48,496.55,678.53,500.08,676.05,501.36Z"/><path class="cls-6" d="M671.85,506.72c-3.62,1.29-7.66.51-11.22-.6-2.57-.81-4.62-2-7.25-.74-1.83.88-3.69,1.7-5.59,2.43a82.7,82.7,0,0,1-23.72,5.42,78.62,78.62,0,0,1-24.42-1.81c-5.42-1.32-11.51-4.8-12.15-10.51a4.55,4.55,0,0,1-.15-.91c-.32-3.46,2.76-5.9,5.59-7.17a28.3,28.3,0,0,1,6-1.82,33,33,0,0,1,3.43-.51c.89-.09,2.79.16,3.54-.31s1-1.57,1.47-2.23a19,19,0,0,1,1.53-2,23.59,23.59,0,0,1,4.08-3.78c12.6-9.17,28.71-5.51,41.48,1.18,4,2.1,7.85,5.43,12.42,5.8a14.15,14.15,0,0,1,9.38,4.08C680.75,498,677.48,504.72,671.85,506.72Z"/><path class="cls-8" d="M595.11,495.11a2,2,0,0,0-1.49,1.3,1.71,1.71,0,0,0-.13,1,.25.25,0,0,1,0,.07,1.78,1.78,0,0,0,.07.39,2,2,0,0,0,3.64.45A2.14,2.14,0,0,0,595.11,495.11Z"/><path class="cls-8" d="M638.17,499.09a2,2,0,0,0-1.49,1.3,1.71,1.71,0,0,0-.13,1,.14.14,0,0,1,0,.07,1.78,1.78,0,0,0,.07.39,2,2,0,0,0,3.64.45A2.14,2.14,0,0,0,638.17,499.09Z"/><path class="cls-8" d="M674.72,501l.06-.15h0a1.12,1.12,0,0,0-.31-1.09.76.76,0,0,0-.26-.16,1,1,0,0,0-1.53.33c-.54,1,.76,2.39,1.73,1.52a1,1,0,0,0,.26-.33l0,0S674.71,501.06,674.72,501Z"/><path class="cls-8" d="M627.72,480.52a.47.47,0,0,0,.06-.15h0a1.09,1.09,0,0,0-.31-1.09,1,1,0,0,0-.26-.17,1,1,0,0,0-1.53.34c-.53,1,.77,2.39,1.74,1.52a1.1,1.1,0,0,0,.26-.34l0,0A.14.14,0,0,0,627.72,480.52Z"/><path class="cls-8" d="M603.8,495.15a.81.81,0,0,0-1,.32.48.48,0,0,0-.07.43.76.76,0,1,0,1.08-.75Z"/><path class="cls-8" d="M669.8,502.6a.81.81,0,0,0-1,.32.48.48,0,0,0-.06.43.76.76,0,0,0,1.46.24A.77.77,0,0,0,669.8,502.6Z"/><path class="cls-8" d="M704.74,410.67c-6.79,3-14.81,3-22.09,3.52-32.77,2.42-65.65,2.65-98.46,4.58-16.43,1-32.84,2.36-49.13,4.67-7.67,1.09-15.78,3.29-23.53,1.91-5.43-1-10.67-4.07-12.9-9.26-.07.26-.15.51-.22.76s-.34.14-.29,0c.1-.41.21-.81.3-1.22a.1.1,0,0,1,0,0,.48.48,0,0,1,.17-.59,128.48,128.48,0,0,1,5.76-18.45c4.05-9.7,10.53-18.93,20.16-23.72s20.74-4.27,30.88-1.85a81.92,81.92,0,0,1,2.66-9.11c4.65-12.92,13-24.83,25.35-31.38a41.42,41.42,0,0,1,18.94-5.1c30.06-.26,40.73,22.57,41.87,25.51,1,2.52,3.91,1.24,5.89.91,1.8-.29,3.62-.49,5.44-.61a57.33,57.33,0,0,1,52.82,27.44c3.26,5.37,6.66,12,6.58,18.46S710.25,408.24,704.74,410.67Z"/><path class="cls-6" d="M716.75,400.13c-1.44,10.14-8.11,20.48-17.67,24.58-4.83,2.07-10.14,2.78-15.34,3.18a162.81,162.81,0,0,1-37.44-1.47c-6.18-1-12.25-2.78-18.46-3.54-6.42-.8-12.58.86-18.74,2.48-5.38,1.41-10.74,3-15.57,5.81a3.53,3.53,0,0,0,3.67.15.56.56,0,0,1,.82.35c7.94-2.72,17.15-4,23.61,2a16.83,16.83,0,0,1,2.2,21.31c-4.68,6.58-13.39,7.7-20.84,7a62.67,62.67,0,0,1-7.1-1.07c-2.31-.47-4.77-1.4-7.17-1.17s-4.47,2.09-6.83,2.86a10.53,10.53,0,0,1-6,.06c-4.68-1.23-8.13-4.61-12-7.35a17.87,17.87,0,0,0-8-3.44,34.41,34.41,0,0,0-8.6.38c-5.22.65-10.19.78-15.3-.64a60.32,60.32,0,0,1-15-6.89c-7.62-4.6-16.56-9.76-18.53-19.19-1-4.76-.26-9.77,1.07-14.39a35.16,35.16,0,0,1,6.27-12.67c5.52-6.75,14-10.63,22.55-11.56,10.44-1.13,20.85,2.08,30,7a13.52,13.52,0,0,1,1.91-5.32c5.54-9,16.79-9.71,26.18-8.3,1.59.23,3.17.62,4.76.82,1.39.17,2-.62,3-1.45a61.66,61.66,0,0,1,6-4.27,66.74,66.74,0,0,1,12.64-6.13,69.58,69.58,0,0,1,28-3.92,65.22,65.22,0,0,1,14.2,2.55c5.1,1.52,9.69,4.12,14.68,5.9a19.28,19.28,0,0,0,9.9.85,60.09,60.09,0,0,1,8.58-1,32.82,32.82,0,0,1,16.31,3.64C712.85,381.85,718.12,390.62,716.75,400.13Z"/><path class="cls-8" d="M698.51,403.25A2,2,0,0,0,700,402a1.64,1.64,0,0,0,.12-1,.14.14,0,0,0,0-.07,1.32,1.32,0,0,0-.06-.39,2,2,0,0,0-3.64-.46A2.14,2.14,0,0,0,698.51,403.25Z"/><path class="cls-8" d="M529.56,408.11a2,2,0,0,0,1.49-1.3,1.71,1.71,0,0,0,.13-1,.19.19,0,0,1,0-.07,1.78,1.78,0,0,0-.07-.39,2,2,0,0,0-3.64-.45A2.14,2.14,0,0,0,529.56,408.11Z"/><path class="cls-8" d="M631,418.35a1.93,1.93,0,0,0,1.49-1.3,1.64,1.64,0,0,0,.13-1,.19.19,0,0,0,0-.07,1.78,1.78,0,0,0-.07-.39,2,2,0,0,0-3.63-.45A2.13,2.13,0,0,0,631,418.35Z"/><path class="cls-8" d="M691.41,397.32a.75.75,0,0,0,0,.16h0a1.1,1.1,0,0,0,.31,1.09,1.28,1.28,0,0,0,.26.16,1,1,0,0,0,1.52-.33c.54-1-.76-2.4-1.73-1.53a1.23,1.23,0,0,0-.26.34l0,0Z"/><path class="cls-8" d="M548.55,441.86a.47.47,0,0,0-.06.15h0a1.1,1.1,0,0,0,.31,1.09.76.76,0,0,0,.26.16,1,1,0,0,0,1.53-.33c.53-1-.77-2.39-1.74-1.53a1.4,1.4,0,0,0-.26.34s0,0,0,.05A.14.14,0,0,0,548.55,441.86Z"/><path class="cls-8" d="M690.88,403.83a.8.8,0,0,0,1-.32.48.48,0,0,0,.07-.43.76.76,0,1,0-1.07.75Z"/><path class="cls-8" d="M618.41,441.84a.82.82,0,0,0,1-.33.49.49,0,0,0,.06-.42.76.76,0,0,0-1.46-.25A.78.78,0,0,0,618.41,441.84Z"/><path class="cls-8" d="M610.27,377.84a.82.82,0,0,0,1-.33.45.45,0,0,0,.06-.42.76.76,0,0,0-1.46-.25A.78.78,0,0,0,610.27,377.84Z"/><path class="cls-8" d="M541.15,443.78a.81.81,0,0,0,1-.32.45.45,0,0,0,.06-.43.76.76,0,0,0-1.46-.24A.77.77,0,0,0,541.15,443.78Z"/><path class="cls-2" d="M674.71,408.23c-1.91,5.5-10.74,26.27-38.91,28.67-13.6,1.15-27.67,3.69-39.82,9.08-13,5.76-23.81,14.78-29.61,28.83-3.55,8.61-5,19.18-5.6,30.49h0c-.24,4.14-.34,8.39-.4,12.67,9.34-7.81,26.25-16,40.3-18.48,17.65-3.12,23.86-13.13,26-15s5.74-2.39,6,0c.22,2.14-9.24,14.54-27.06,20.65h0a60.47,60.47,0,0,1-6.22,1.78c-15.9,3.65-31.2,16.59-39.05,24.13v3.48c-.06,12-.31,23.71-2.09,33.82a68.68,68.68,0,0,1-2,8.39c-.82,2.66-1.69,5.34-2.58,8-8.54,25.47-19.94,51.51-19.61,69.64.19,10.27,3.41,18.54,6.76,26.46,3.19,7.53,6.51,14.74,7.43,23h-62s19.57-5.24,21.95-16.7-4.77-29.11,3.34-52.49c3.39-9.77,8.85-20.28,14.17-31.37,0,0,0,0,0,0,7.43-15.46,14.57-32,15.41-49.28.72-14.92-1.47-32.51-.15-50.33.79-10.53,2.8-21.15,7.37-31.33a69.24,69.24,0,0,0-.34-9.22c-1.56-15.32-7.74-26.64-11.34-31.64a16.82,16.82,0,0,0-2.06-2.48c-3.1-2.86-5.73-10.43.72-5.19,11.94,9.73,16.81,28.43,18.61,38.33a73.82,73.82,0,0,1,7.24-9.31c28.63-31.5,58.22-41.76,62.28-60.85s4.06-22,5.49-22.67,2.86,16-1.91,26.48c.44-.4,15.33-14.14,31.74-12.17,3.52.42-4.85,2.18-14.7,6.72-6.84,3.17-14.4,7.69-19.19,14-5.33,7.08-13.14,13.89-20.73,20-9.08,7.32-17.85,13.63-21.75,18.17a100.61,100.61,0,0,1,19.13-7.69h0a114.77,114.77,0,0,1,19-4c16.14-2,32.72-1.47,43.88-15.36h0a48.67,48.67,0,0,0,7.9-15.19C673.76,396.06,676.63,402.75,674.71,408.23Z"/><path class="cls-5" d="M514.48,674c-1.05-10-3.11-19.72-1.76-29.84,0-.29-.43-.35-.5-.07-2.24,8.93-.58,18.6.48,27.58a83.57,83.57,0,0,1,.69,13.87c-.23,4.68-.83,10.66-4.24,14.19a.19.19,0,0,0,.27.27c3.27-2.93,4.51-7.48,5.12-11.67A57.75,57.75,0,0,0,514.48,674Z"/><path class="cls-5" d="M534.2,703.89h-11a64.17,64.17,0,0,0-1.08-17.9c-1.31-6.06-3.11-12-4-18.12a95.15,95.15,0,0,1-.95-17.45c.45-11.28,2.83-23.52,8.42-33.44a.34.34,0,0,1,.61.09.29.29,0,0,1,.06.33,100.86,100.86,0,0,0-4.91,21.13,89.82,89.82,0,0,0-.19,18.69,62,62,0,0,0,5.11,18.85C530.12,684.86,535,694.22,534.2,703.89Z"/><path class="cls-5" d="M534,654.38c.19,10.27,3.41,18.54,6.76,26.46-4.46-6.5-8.64-13.37-10.45-21.1-3.75-16,3.32-32.35,9.58-46.78,4.15-9.58,8.7-19,13.72-28.22C545.11,610.21,533.71,636.25,534,654.38Z"/><path class="cls-5" d="M544.12,567.17c-2.39,7.4-6.3,14.22-10,21-2.79,5.06-5.57,10.11-8.42,15.14,7.43-15.46,14.57-32,15.41-49.28.72-14.92-1.47-32.51-.15-50.33.64,5.45,1.59,10.86,2.56,16.28C546.27,535.47,549.09,551.81,544.12,567.17Z"/><path class="cls-5" d="M550.5,578.4c-2.84,5.88-7.33,11.22-11.84,16A50.81,50.81,0,0,0,533.4,605a.08.08,0,0,1-.16,0c2.74-10.65,10.53-18.85,14.84-28.8,4.84-11.16,5.69-23.28,3.52-35.15-.08-.43.61-.63.67-.19C555.3,563.06,553.24,572.74,550.5,578.4Z"/><path class="cls-5" d="M620.22,492.76a47.32,47.32,0,0,1-11.58,7,125.42,125.42,0,0,1-14.45,4.29.13.13,0,0,0,.07.26c5.44-.78,10.8-1.56,15.92-3.67,3.86-1.58,8.08-3.88,10.57-7.35C621,493,620.52,492.52,620.22,492.76Z"/><path class="cls-5" d="M605.57,505.11a60.47,60.47,0,0,1-6.22,1.78c-15.9,3.65-31.2,16.59-39.05,24.13v.72a.57.57,0,0,1-.16-.45.27.27,0,0,1,0-.23c6.07-8.47,13.2-17.09,23-21.28,5.75-2.45,12.16-3.2,18.3-4.1Z"/><path class="cls-5" d="M596,446c-13,5.76-23.81,14.78-29.61,28.83-3.55,8.61-5,19.18-5.6,30.49a65.62,65.62,0,0,1-.69-19.78c1.38-10.79,6-21.34,14.19-28.7a45.2,45.2,0,0,1,14.46-8.32C591.08,447.62,593.5,446.72,596,446Z"/><path class="cls-5" d="M555.56,534c0,.22-.34.27-.38,0-1.94-10-5.06-19.8-6.06-30-.93-9.51.17-19.84,4.54-28.46a.26.26,0,0,1,.48.21c-.66,1.91-1.29,3.82-1.84,5.73a55,55,0,0,0-.49,9.18c.2,3.76.74,7.5,1.27,11.23,1,7.11,1.6,14.3.72,21.47,0-.25-.09-.5-.13-.75,0,.26,0,.51,0,.78s.17.11.17,0v0C554.48,526.9,555.11,530.43,555.56,534Z"/><path class="cls-5" d="M553.8,523.39v0c0,.11-.18.12-.17,0s0-.52,0-.78C553.71,522.89,553.76,523.14,553.8,523.39Z"/><path class="cls-5" d="M548,463.15c-1.56-15.32-7.74-26.64-11.34-31.64a40.33,40.33,0,0,1,10,17.26A41.81,41.81,0,0,1,548,463.15Z"/><path class="cls-5" d="M589.79,444.62c-11.78,3.22-24.35,9.24-28.35,21.66-.05.15.17.2.23.06,2.23-5.44,6.84-9.78,11.68-13,5.22-3.46,11.06-5.52,16.67-8.2C590.34,445,590.12,444.53,589.79,444.62Z"/><path class="cls-5" d="M602.45,419.13c-4.6,3.84-8.61,8.26-13.47,11.81-4.08,3-8.43,5.34-11.43,9.54-.19.28.25.63.48.37,3.54-4.12,8.81-6.36,13.05-9.67a70.19,70.19,0,0,0,11.76-11.67A.27.27,0,0,0,602.45,419.13Z"/><path class="cls-5" d="M664.42,415.55c-.84,1.25-1.75,2.46-2.67,3.66a23.72,23.72,0,0,1-12.16,9.53,60.77,60.77,0,0,1-16.15,4.37c-10.62,1.36-21.33.58-31.94,1.79a114.77,114.77,0,0,1,19-4C636.68,429,653.26,429.44,664.42,415.55Z"/><path class="cls-5" d="M644,390.37c-6.84,3.17-14.4,7.69-19.19,14-5.33,7.08-13.14,13.89-20.73,20C615.57,412,626.4,393.71,644,390.37Z"/><path class="cls-4" d="M429,837.6h-.3v-1.68H429c2.83,0,5.73-.06,8.61-.2l.08,1.68C434.75,837.53,431.82,837.6,429,837.6Zm-11.53-.36c-3-.18-6-.45-9-.78l.18-1.67c2.94.33,5.92.59,8.88.78Zm31.43-.71-.18-1.67c2.94-.31,5.91-.7,8.84-1.16l.26,1.66C454.82,835.82,451.82,836.21,448.86,836.53Zm-51.52-1.65c-2.92-.51-5.89-1.1-8.83-1.75l.37-1.64c2.91.65,5.85,1.24,8.74,1.74Zm71.49-1.58-.35-1.64c2.89-.63,5.81-1.33,8.66-2.08l.44,1.62C474.69,832,471.75,832.67,468.83,833.3Zm-91.21-2.95c-2.86-.83-5.75-1.73-8.58-2.69l.54-1.59c2.81.95,5.67,1.85,8.5,2.66ZM488.36,828l-.52-1.6c2.77-.9,5.6-1.89,8.42-2.94l.59,1.58C494,826.11,491.15,827.11,488.36,828ZM358.5,823.74c-2.76-1.12-5.54-2.33-8.25-3.58l.7-1.52c2.69,1.24,5.44,2.43,8.18,3.54Zm148.77-2.89-.67-1.54c2.72-1.18,5.42-2.45,8-3.78l.76,1.5C512.75,818.37,510,819.65,507.27,820.85Zm-167.1-5.69c-2.65-1.42-5.29-2.9-7.83-4.41l.85-1.44c2.52,1.49,5.14,3,7.77,4.37Zm185.05-3.57-.87-1.43c2.54-1.53,5.06-3.15,7.5-4.82l.95,1.38C530.33,808.41,527.78,810.05,525.22,811.59Zm-202.39-6.86c-2.49-1.68-5-3.43-7.34-5.2l1-1.34c2.36,1.75,4.81,3.49,7.28,5.15Zm219-4.67-1-1.32c2.32-1.83,4.62-3.75,6.83-5.7l1.11,1.26C546.5,796.27,544.18,798.21,541.84,800.06Zm-235.17-7.5c-2.3-1.93-4.57-3.94-6.75-5.95l1.14-1.23c2.16,2,4.41,4,6.69,5.89ZM557,786.63l-1.19-1.19c2.06-2,4.14-4.2,6.18-6.42l1.23,1.14C561.12,782.39,559,784.57,557,786.63Zm13.62-14.92-1.29-1.07c1.88-2.26,3.75-4.6,5.58-7l1.33,1C574.35,767.08,572.46,769.44,570.57,771.71Zm12.3-16-1.36-1q2.57-3.63,5.07-7.35l1.39.93Q585.46,752.05,582.87,755.69Zm11.21-16.81-1.42-.89q2.36-3.76,4.67-7.62l1.44.86Q596.45,735.1,594.08,738.88Zm10.35-17.33-1.46-.83q2.21-3.87,4.37-7.81l1.47.82Q606.64,717.68,604.43,721.55Zm9.72-17.69-1.48-.79q2.08-3.93,4.16-7.92l1.49.78Q616.25,699.92,614.15,703.86Zm9.3-17.9L622,685.2q2-4,4-8l1.5.76Q625.47,682,623.45,686Zm9.07-18-1.5-.75,4-8,1.51.75Zm9-18-1.5-.75q2-4,4-8l1.5.76Q643.55,645.93,641.54,649.92Zm9.12-18-1.5-.77q2.05-4,4.13-8l1.49.78Q652.69,628,650.66,632ZM660,614.12l-1.48-.8q2.12-3.93,4.27-7.85l1.47.81C662.84,608.89,661.43,611.5,660,614.12Zm9.71-17.57-1.45-.83c1.47-2.58,3-5.17,4.48-7.74l1.45.86Q671.93,592.68,669.73,596.55ZM680,579.28l-1.43-.87q2.34-3.81,4.75-7.58l1.41.9Q682.29,575.5,680,579.28Zm10.84-16.87-1.4-.93q2.51-3.72,5.09-7.4l1.37,1Q693.28,558.71,690.8,562.41ZM702.4,546l-1.35-1q2.69-3.6,5.44-7.14l1.33,1C706,541.23,704.17,543.61,702.4,546Zm12.41-15.8-1.28-1.07q2.87-3.45,5.82-6.82l1.26,1.1Q717.67,526.76,714.81,530.19Zm13.3-15.05L726.89,514q3.06-3.25,6.24-6.45l1.19,1.18Q731.16,511.9,728.11,515.14ZM742.33,501l-1.15-1.23q3.27-3,6.66-6l1.1,1.27Q745.58,497.91,742.33,501Zm15.12-13.19-1.05-1.31c2.33-1.89,4.7-3.76,7.05-5.54l1,1.33C762.13,484,759.77,485.88,757.45,487.77Zm16-12.1-1-1.37c2.43-1.7,4.93-3.4,7.43-5l.91,1.4C778.37,472.3,775.89,474,773.47,475.67Zm16.84-10.91-.86-1.44c2.56-1.54,5.18-3.05,7.77-4.49l.82,1.46C795.46,461.73,792.86,463.23,790.31,464.76Z"/><path class="cls-4" d="M808.34,454.83l-.76-1.5q2-1,4-2l.73,1.51C811,453.5,809.66,454.16,808.34,454.83Z"/><polygon class="cls-3" points="787.44 439.35 775.19 472.99 800.91 452.9 899.23 417.25 787.44 439.35"/><polygon class="cls-9" points="787.44 439.35 775.19 472.99 800.91 452.9 899.23 417.25 787.44 439.35"/><polygon class="cls-4" points="804.21 460.75 775.19 472.99 800.91 452.9 804.21 460.75"/><polygon class="cls-3" points="800.91 452.9 899.23 417.25 818.58 495.95 800.91 452.9"/><polygon class="cls-3" points="787.44 439.35 746.58 412.96 899.23 417.25 787.44 439.35"/><path class="cls-1" d="M528.79,660.75c-1.6,2.74-164.25,32.85-172.36,31.69a4.87,4.87,0,0,1-1.15-.31C345,689,294.7,654.19,290.87,651.22c-9.44-7.33,16.45-71.7,26-83.07,6.33-7.56,19.4-12,19.4-12S359,441.49,379.13,415.34c5.06-6.57,106.25-22.93,125.54-17.18,8.25,2.46,29.83,19.13,30.82,22.52v0C536.68,425.69,530.4,658,528.79,660.75Z"/><path class="cls-4" d="M528.79,660.75c-1.6,2.74-164.25,32.85-172.36,31.69a4.87,4.87,0,0,1-1.15-.31c9.78-44.58,55.84-253.81,57.76-255.38s99-14.48,122.45-16C536.68,425.69,530.4,658,528.79,660.75Z"/><path class="cls-1" d="M433.48,416c-1.85-1.31-6-23.4-3.64-28.24,2.69-5.44,42-8.4,44.84-4.49s7.07,26,6,27-7.45,2.63-8.52,1.33-3.58-19.69-4.4-20.56-28.32,1.14-29.07,2.67,4.13,19.8,3.15,20.77S435.29,417.28,433.48,416Z"/><path class="cls-10" d="M506.72,444.66C535.06,507.88,603.53,613,634.18,587,680,548,711,462,723.29,427.17c6.89-19.5-92.43-52.14-98.52-34.43-8.65,25.16-22.22,77.73-30.09,85.17-4.15,3.92-36.63-41.76-61.28-63.42C497.88,383.26,497.67,424.46,506.72,444.66Z"/><path class="cls-10" d="M748.12,397.86c-8.85,19.9-42.87,53.52-54.2,58.48s-71-49.07-69.79-61.69,36.89-79.24,56.63-89.44S757.28,377.24,748.12,397.86Z"/><path class="cls-10" d="M628.8,380.67s1.42-28.3-5.72-52.22c-6-20.1-17.18-49.29-6.49-52.92,22-7.46,49.82,65.33,49.82,65.33s7.14,34.09-14,43.4C639.22,390.11,628.8,380.67,628.8,380.67Z"/><path class="cls-10" d="M653.55,327c1.44,11.45,14.11,3.19,14.11,3.19s-15.37,16.28-9.32,27.51c5.87,10.8,20.82.29,21.9-.45-.81.87-14.54,16.19-7.29,26.85,7.54,11.07,20.73-2.06,21.58-2.91-.5,1.05-6.92,15.16.43,22,12.62,11.75,30-23.87,43.41-27.85,0,0,9.34,21.92,9.75,22.5,0,0,17.25-33.56,10.87-51.32-3.37-9.36-12.76-8.07-12.76-8.07s6.76-10.21,1.32-18.78c-2.8-4.39-12.32-3.81-12.32-3.81s5.07-8.4-.25-15.72c-4.22-5.85-13.11-4.36-13.11-4.36s1.12-10.32-5.13-14.9C704.14,271.63,650.48,302.49,653.55,327Z"/><path class="cls-4" d="M720.43,295.82a.16.16,0,0,0-.11-.31c-20.12,5.84-40.44,18.43-53.39,35.06-.43.55.27,1.48.86,1C684.41,316.94,700.33,305.32,720.43,295.82Z"/><path class="cls-4" d="M735.43,315.62c.22-.1.05-.47-.19-.39-20.71,6.13-43.21,20.93-55.87,41.87-.44.71-.11,1.79.45,1C689.3,344.83,717.3,324.08,735.43,315.62Z"/><path class="cls-4" d="M694.15,383c12.92-19.6,30.83-33.09,51.21-44.29.27-.15,0-.51-.22-.45-11.47,2.77-23.71,11.27-32.68,18.68-8.6,7.11-14.92,15.25-19,25.61C693.31,382.91,693.88,383.38,694.15,383Z"/><path class="cls-4" d="M667.27,330.18c-.51.66,1,.68.52,1.35-2.06,2.83-13,20.89-8,26.51,4,4.5,12.84,2.22,15.89,0l7.67-5.55-5.27,7.88a38.49,38.49,0,0,0-5.3,11.36c-1.06,4-1.06,8.2,1,11.28,2.13,3.25,5.65,4.76,9.29,3.57,3.65-1,7.21-3.75,10-6.64l7.76-8.1L696.22,382a36.37,36.37,0,0,0-2.78,8.86c-.5,3-.51,6.14.66,8.62a7.12,7.12,0,0,0,6.18,4.26c2.71,0,5.6-1.55,8.18-3.3,5.23-3.63,9.75-8.43,14.47-13,2.35-2.29,4.71-4.6,7.17-6.79s5.08-4.39,8.27-5.32c-3.06,1.24-5.32,3.72-7.64,6s-4.43,4.81-6.59,7.27c-4.33,4.94-8.75,9.85-14.1,14-2.71,2-5.73,4-9.68,4.26A10.09,10.09,0,0,1,691,401c-1.68-3.5-1.6-7.26-1.11-10.67a39.79,39.79,0,0,1,3-9.91l3.09,2.05c-3.25,3.44-6.87,6.42-11.71,8a11.45,11.45,0,0,1-7.75-.29,12.89,12.89,0,0,1-5.8-5c-2.87-4.44-2.57-9.86-1.32-14.27a41.9,41.9,0,0,1,6-12.41l2.39,2.33c-4,2.67-13.56,6.29-20.67.1C649,351.38,664.25,333.29,667.27,330.18Z"/><path class="cls-4" d="M667.66,330.2a23.56,23.56,0,0,1-6.9,1.62,5.4,5.4,0,0,1-4.94-2.26c-1-1.49-1.18-3.8-1.12-6.1s.38-4.75.74-7.25a18.31,18.31,0,0,0-3.24,6.91,10.83,10.83,0,0,0,.92,8.21,7.78,7.78,0,0,0,3.63,2.82,7.89,7.89,0,0,0,4.35.15A12.33,12.33,0,0,0,667.66,330.2Z"/><path class="cls-3" d="M618.73,394.65l103.39,72s-61.76,128-99.92,127.61-93.29-96.19-112.38-137.61-7.66-76.52,30.8-38.74c38.69,38,52.23,53.29,53.48,52.78C596.52,469.68,618.73,394.65,618.73,394.65Z"/><path class="cls-3" d="M722.12,466.65s-42.81,88.73-79.19,118.2c-7.29,5.92-14.33,9.46-20.72,9.39-38.17-.34-93.3-96.18-112.4-137.59C498,431,497.88,407.78,508.63,402.79c6.62-3.08,17.35.72,32,15.12,38.68,38,52.23,53.27,53.48,52.76,2.42-1,24.64-76,24.64-76Z"/><path class="cls-4" d="M697.67,475.93c-2.73-2.26-5.49-4.46-8.27-6.66Q681,462.6,672.5,456c-11.23-8.78-22.69-17.22-34.25-25.54-6.57-4.72-13-9.7-19.77-14.14a.3.3,0,0,0-.36.49c5.37,4.74,11.12,9.07,16.69,13.57s11.11,9.05,16.78,13.46q16.86,13.11,34.11,25.71c3.23,2.36,6.38,4.87,9.7,7.08,1.71,1.14,3.32,2.41,5,3.52s3.54,2.11,5.23,3.27a.17.17,0,0,0,.21-.27C703.09,480.78,700.48,478.25,697.67,475.93Z"/><path class="cls-4" d="M595,468.33c-4.13,10.58-7,21.63-9.71,32.64-1.34,5.46-2.41,11-3.45,16.52a123.52,123.52,0,0,0-2.2,16.59c0,.2.29.21.34,0,1.7-5.33,3-10.88,4.21-16.32s2.6-10.94,3.84-16.43c2.46-11,5.35-21.86,7.5-32.9A.27.27,0,0,0,595,468.33Z"/><path class="cls-11" d="M642.93,584.85c-7.29,5.92-14.33,9.46-20.72,9.39-38.17-.34-93.3-96.18-112.4-137.59C498,431,497.88,407.78,508.63,402.79Z"/><path class="cls-3" d="M348.42,704.07l259.37,0C606.06,692,554.1,449.26,532,412.25c-10.49-17.6-53.52-29.17-82.44-1.25C394.35,464.35,346.31,701.67,348.42,704.07Z"/><path class="cls-4" d="M575.54,552.65q-1-5-2.14-9.93-2.24-9.76-4.85-19.43c-2.44-9.1-5.07-18.16-7.78-27.19-.14-1.45-.41-2.9-.61-4.32-.27-1.95-.52-3.9-.82-5.84-.62-3.92-1.25-7.83-1.83-11.75,0-.22-.37-.23-.37,0a120,120,0,0,0,.91,12c.09.65.2,1.3.3,1.95-.34-1.09-.65-2.19-1-3.28-1.13-3.57-2.4-7.1-3.6-10.65s-2.29-7.35-3.73-10.91a.17.17,0,0,0-.32.1c.72,3.3,1.77,6.54,2.63,9.8s1.66,6.38,2.47,9.57c1.63,6.47,3.53,12.87,5.27,19.31,3.46,12.89,6.69,25.84,10.31,38.68q1.49,5.28,3,10.54a113.4,113.4,0,0,0,3.45,11c.07.17.36.16.34-.06A88.84,88.84,0,0,0,575.54,552.65Z"/><path class="cls-4" d="M531.79,421.18c-1.61,4.95-4.31,9.61-8.68,12.33-4.7,2.91-10.59,2.87-15.85,2.33-11.24-1.14-21.6-6.39-30.77-13.09-2.62-1.92-5.15-4-7.66-6.06a74,74,0,0,1-7-6.47c-.15-.16-.38.09-.23.25,2.13,2.29,4.12,4.68,6.27,7a72.6,72.6,0,0,0,6.59,6.19,68.42,68.42,0,0,0,15.21,9.69,54.33,54.33,0,0,0,17,4.77c5.55.59,11.79.48,16.65-2.76,4.62-3.09,7.7-8.5,8.85-14.06A.16.16,0,0,0,531.79,421.18Z"/><path class="cls-10" d="M514.31,424.69c-10,2.71-37.08-6.11-46.89-22.48-.67-1.13.61-13.28,1.47-28.13.49-9,.82-19.06.46-28.25-.09-1.88,58.17,11.74,58.17,11.74s-4.9,19.48-4.17,35.49a20,20,0,0,0,.54,3.76,6,6,0,0,1,.11.62C525.45,404.56,526.44,421.41,514.31,424.69Z"/><path class="cls-4" d="M523.9,396.83c0,.16.07.37.11.62a36.6,36.6,0,0,1-5.93.53c-32.07.56-44-38.65-47.22-52.29,9,.75,54.81,11.44,56.6,11.86h.06s-4.9,19.48-4.17,35.5A20.5,20.5,0,0,0,523.9,396.83Z"/><path class="cls-12" d="M489.59,387.53s0,0,0,0"/><path class="cls-10" d="M461.8,279.4c-6.35,20.41,4.12,79.54,18.59,92.79,21,19.22,55.49,21.23,71.85-4,15.87-24.48.86-101.31-15.32-113.37C513.08,237,471.19,249.24,461.8,279.4Z"/><path class="cls-4" d="M521.12,315.6c-.06-.15-.28.24-.25.41.82,4,1.08,8.64-2.3,10.58-.1.06-.06.26.07.22C522.94,325.43,522.53,319.23,521.12,315.6Z"/><path class="cls-4" d="M516.84,312.05c-6.49.62-4.78,13.56,1.24,13S522.29,311.53,516.84,312.05Z"/><path class="cls-4" d="M542.53,312.67c0-.16.34.14.36.31.4,4,1.54,8.57,5.34,9.42.12,0,.14.23,0,.23C543.72,322.59,542.27,316.54,542.53,312.67Z"/><path class="cls-4" d="M545.56,308c6.39-1.34,8.6,11.53,2.68,12.77S540.21,309.13,545.56,308Z"/><path class="cls-4" d="M511,306.81a51,51,0,0,0,4.78-2.43c1.83-.95,3.38-1.52,4.41-3.41a2.76,2.76,0,0,0-.88-3.25c-2.17-1.47-4.69-.86-6.94.2a10.07,10.07,0,0,0-5.17,5.07C506,305.34,508.71,307.7,511,306.81Z"/><path class="cls-4" d="M549.71,300.82a50,50,0,0,1-5.33-.65c-2-.27-3.69-.28-5.29-1.7a2.76,2.76,0,0,1-.29-3.36c1.54-2.12,4.12-2.4,6.59-2.17a10.08,10.08,0,0,1,6.6,3C553.84,297.77,552.12,300.9,549.71,300.82Z"/><path class="cls-4" d="M520.44,352.79c1.09.81,2.22,2,3.69,1.9a10.56,10.56,0,0,0,4.18-1.58.15.15,0,0,1,.2.19,5.46,5.46,0,0,1-4.81,2.85c-1.85-.08-3-1.53-3.62-3.13C520,352.79,520.29,352.67,520.44,352.79Z"/><path class="cls-2" d="M535.9,343.34a16.36,16.36,0,0,1-5.82,5.89,7.35,7.35,0,0,1-4.39.86c-3.31-.42-3.78-3.35-3.53-5.94a18,18,0,0,1,.93-4A21.13,21.13,0,0,0,535.9,343.34Z"/><path class="cls-4" d="M523.07,340.22a13.76,13.76,0,0,0,9.92,4.87,17.19,17.19,0,0,0,4.94-.42,5.16,5.16,0,0,0,.92-.23l.86-.25a1,1,0,0,0,.69-1v0a2,2,0,0,0-.1-.4v0l0-.35c-.33-3.1-1.25-7.76-1.25-7.76,1.21.42,7.3,2.25,7,.64-2.56-13.24-5.41-28-10.75-40.62a.38.38,0,0,0-.72.2c2,12.83,6.16,25.23,8.33,38.09-1.93-.46-5.09-1.35-6.7-1.11-.42.19,1.94,9,2,10.37a.43.43,0,0,1,0,.15c-5.1,1.35-9.21.3-14.71-2.52C523.07,339.62,522.79,339.94,523.07,340.22Z"/><path class="cls-4" d="M470.86,326.81c11.56,0,9.25-49.2,9.25-49.2s11.79,5.55,21.51,6.24,21.06-.69,22.67-1.16-18.51-8.32-18.51-8.32,26.6,1.62,34-2.78,6.67-6.24,6.23-9-19.53-24.78-53.88-18.41c-23.17,4.3-30.24,23.15-30.24,23.15s-10.12,17.47-9.54,25.56C453.13,303.72,458.6,326.81,470.86,326.81Z"/><path class="cls-10" d="M476.47,328.29s-13.63-18.91-22.23-14,1.85,32.43,12.08,36.07,13.79-5.76,13.79-5.76Z"/><path class="cls-4" d="M457.43,322.09c-.16,0-.19.22-.05.28,7.18,2.78,11,9.34,13.76,16.17-2.16-2.61-5.07-4-8.57-1.44-.18.13,0,.42.2.38,2.91-.67,5-.2,7,2.12a30.57,30.57,0,0,1,3.44,5.61c.34.64,1.49.28,1.23-.45l-.06-.17C474.47,335.49,467.21,322.87,457.43,322.09Z"/><path class="cls-3" d="M514.89,242.78a82.8,82.8,0,0,0-23.41-5.8c-9-.7-37.1,2.81-43.6,8.78s-7,32.63-7,36.53,2.85,27.31,11.62,32.58,7.71-34.69,20.52-48.56S514.89,242.78,514.89,242.78Z"/><path class="cls-11" d="M514.9,242.78s-29.09,9.66-41.89,23.54-11.75,53.82-20.53,48.56c-3.87-2.32-5.87-5.95-7.7-12.12C446,291,449.87,272.69,459,259.7c8.56-12.18,23.95-18.85,40.62-21.54A94.62,94.62,0,0,1,514.9,242.78Z"/><path class="cls-3" d="M455.93,338.46c.26-10.67,9.73-39.66,20.3-56.52S519.72,254,524.4,254c11.35.11,15.35,3.36,17.1,2.27s-10.32-9.06-13.6-10.82-12.06-5.85-17-5.5-35.13,4.8-45.55,18.26-24.31,50.47-21,59.62c.79,2.2,3.82,3.5,4.92,6.61,1.43,4.09,2.53,8.85,3.92,11.69C454.33,338.44,455.91,339.39,455.93,338.46Z"/><path class="cls-4" d="M478.5,274.49a53.71,53.71,0,0,1-7.61-5.05,38.27,38.27,0,0,1-6.61-6.42c-.14-.18-.43,0-.31.18a30,30,0,0,0,6.09,7.28,25.24,25.24,0,0,0,8.22,4.56C478.61,275.15,478.79,274.65,478.5,274.49Z"/><path class="cls-4" d="M455.32,327.84c-.33-.75-.87-1.41-1.27-2.13a13.39,13.39,0,0,1-1.11-2.58c-.53-1.73-.56-3.5-1.45-5.11a19.14,19.14,0,0,0-2.66-3.42c-1.11-1.22-2.21-2.51-2.3-4.22,0-.23-.37-.22-.36,0,.14,3.24,2.42,5.43,4,8.07,1,1.68,1,3.65,1.72,5.45.58,1.53,1.53,3.48,3,4.31C455.09,328.34,455.44,328.11,455.32,327.84Z"/><path class="cls-4" d="M458.45,316.17a45.32,45.32,0,0,1-3.16-3.47,34.74,34.74,0,0,1-2.47-3.87c-.74-1.32-1.36-2.69-2.07-4-.84-1.58-1.87-3.07-2.63-4.68-.1-.2-.4,0-.3.19.79,1.67,1.29,3.48,2,5.18a36.59,36.59,0,0,0,2.23,4.25,23.84,23.84,0,0,0,2.7,3.7,11.43,11.43,0,0,0,3.57,2.88A.1.1,0,0,0,458.45,316.17Z"/><path class="cls-4" d="M461.83,305.59a30.16,30.16,0,0,1-6.1-6.26c-1.66-2.33-3.19-4.76-4.68-7.19-.1-.17-.4-.05-.32.14a36.13,36.13,0,0,0,4,7.9,18.51,18.51,0,0,0,2.88,3.24,19.75,19.75,0,0,0,4,2.47C461.79,306,462,305.72,461.83,305.59Z"/><path class="cls-4" d="M465.57,295.43a10.34,10.34,0,0,1-3-2.71c-1-1.15-1.93-2.32-2.84-3.52s-1.78-2.29-2.65-3.44a10.45,10.45,0,0,1-2.1-3.82.17.17,0,0,0-.34.06,10.78,10.78,0,0,0,1.42,4.1,27.34,27.34,0,0,0,2.6,4,37.87,37.87,0,0,0,3.15,3.55,7,7,0,0,0,3.54,2.19C465.65,295.93,465.83,295.57,465.57,295.43Z"/><path class="cls-4" d="M468,282.66c-1-.92-2.05-1.84-3-2.84s-1.86-2-2.75-3.09-1.89-2.2-2.75-3.36a.18.18,0,0,0-.3.19,28.16,28.16,0,0,0,2.15,3.77,28.73,28.73,0,0,0,2.73,3.31,32.59,32.59,0,0,0,3.07,2.92,10.92,10.92,0,0,0,3.57,2.26.25.25,0,0,0,.27-.37A20.77,20.77,0,0,0,468,282.66Z"/><path class="cls-4" d="M486.37,268.06c-1.11-1.26-2.2-2.49-3.42-3.64a49.13,49.13,0,0,0-3.94-3.27,46,46,0,0,0-8.52-5.17c-.17-.07-.38.15-.21.29,5.24,4.07,10.65,7.92,15.84,12A.18.18,0,0,0,486.37,268.06Z"/><path class="cls-4" d="M492.37,258.65a21.58,21.58,0,0,0-3.77-3.25,47.36,47.36,0,0,0-9.35-4.64c-.21-.09-.38.18-.18.3,2.85,1.71,5.72,3.36,8.47,5.23a46.9,46.9,0,0,1,3.95,2.93c1.25,1.07,2.23,2.38,3.43,3.49a.13.13,0,0,0,.22-.13A12.53,12.53,0,0,0,492.37,258.65Z"/><path class="cls-4" d="M501,254.06a23,23,0,0,0-3.5-3.26,26.89,26.89,0,0,0-8-4.2c-.19-.06-.3.24-.13.33a52.07,52.07,0,0,1,7.58,5c1.2.94,2.34,1.94,3.49,2.92s2.15,2.23,3.39,3.09c.1.07.2-.07.15-.16A25.2,25.2,0,0,0,501,254.06Z"/><path class="cls-4" d="M507.18,248.46c-1.16-.86-2.36-1.65-3.57-2.44a13.62,13.62,0,0,0-3.79-1.9c-.21-.06-.28.21-.13.32,2.26,1.63,4.49,3.31,6.71,5s3.55,3.67,5.26,5.63c.07.08.22,0,.18-.12A13.56,13.56,0,0,0,507.18,248.46Z"/><path class="cls-4" d="M515.08,246.37a21.78,21.78,0,0,0-7.31-4.09c-.18-.07-.31.24-.12.32a27.13,27.13,0,0,1,6.68,4.55,37.65,37.65,0,0,1,5.4,6.08c.07.1.27,0,.22-.1A18,18,0,0,0,515.08,246.37Z"/><path class="cls-4" d="M525.77,250.63a15.94,15.94,0,0,0-1-1.57,17.92,17.92,0,0,0-2.51-2.78,38,38,0,0,0-6.25-4.36c-.2-.12-.37.19-.17.31a30.87,30.87,0,0,1,5.87,4.51,23.08,23.08,0,0,1,2.41,2.72c.37.47.7,1,1,1.46a9.63,9.63,0,0,0,1,1.46.18.18,0,0,0,.3-.13A5,5,0,0,0,525.77,250.63Z"/><path class="cls-4" d="M532.19,250.9a26.41,26.41,0,0,0-2.06-2.3,24.74,24.74,0,0,0-2.31-2c-.84-.64-1.7-1.24-2.51-1.92a.18.18,0,1,0-.21.28,18.31,18.31,0,0,1,2.36,2.13l2.1,2.13c.7.71,1.4,1.42,2.09,2.14a29.29,29.29,0,0,0,2.1,2.21.14.14,0,0,0,.22-.17A13.54,13.54,0,0,0,532.19,250.9Z"/><path class="cls-1" d="M445.63,411c-5-.51,17.42-15.24,22.79-10.93s32.46,71.24,23.66,143.85S352.88,701.28,347.57,690.43c-2.23-4.56-.71-15.44,2.81-19.51,5-5.74,96.49-77.13,106.79-122.15C466.33,508.72,457.88,412.25,445.63,411Z"/><path class="cls-10" d="M400.19,449.06C317.67,536,243.13,685.16,288.12,692.93,327,699.65,449,664.21,479.17,651.42c13.15-5.58-21.2-116.2-34.86-109.39-11.83,5.9-27.35,12.34-29.2,12.21-4-.28,12.43-53.46,26.75-98.77C463,388.52,431.17,416.41,400.19,449.06Z"/><path class="cls-10" d="M568.82,500.36c8.08,8.64,2,19.31,2,19.31s9.19,2.17,14.07,9.82c5.58,8.77-5.72,21.36-5.72,21.36s8.85,4.13,13.18,12.73c4.5,8.92-5.09,23.26-5.09,23.26s6.13,8.37,4.54,18.49c-2.71,17.3-27.32,27.8-42.9,34.63s-66.15,11.61-75.7,13.49l-44.69-99.59s61.14-50.5,80.59-55.93C525.54,493.36,559.76,490.66,568.82,500.36Z"/><path class="cls-4" d="M569.47,518.38c-18.6.68-36,6.82-53.67,12a.32.32,0,0,0,.19.61c17.54-5.32,35.9-7.09,53.62-11.7A.45.45,0,0,0,569.47,518.38Z"/><path class="cls-4" d="M578.32,549.69c-4.2.28-8.3,1.95-12.25,3.31q-6.37,2.21-12.66,4.62-12.61,4.83-25,10.28c-.37.17-.21.76.18.62,8.38-3.2,16.81-6.27,25.32-9.1q6.39-2.13,12.8-4.16c4-1.26,8.29-2.26,11.92-4.39A.64.64,0,0,0,578.32,549.69Z"/><path class="cls-4" d="M587,587c-3.66.1-7.51,2.21-10.86,3.57q-5.7,2.33-11.42,4.58c-7.63,3-15.26,6-23,8.75-.38.13-.2.74.19.61,7.87-2.75,15.77-5.38,23.61-8.19q5.78-2.09,11.53-4.21c3.26-1.21,7.48-2.36,10.11-4.73C587.27,587.21,587.14,587,587,587Z"/><path class="cls-3" d="M442.24,536.89l37.51,123.49s-171.16,53.7-199.68,33,32.05-163,142.26-267.22c38.67-36.56,32.24,5.8,19.18,48-15.12,48.95-20.67,75.44-20.67,75.44Z"/><path class="cls-4" d="M442.07,536.88c-3.91,1.7-51.29,29.32-54.59,31.48a18.62,18.62,0,0,0-4.94,1.32c-1.9.63-3.8,1.26-5.68,2-3.63,1.35-7.24,2.71-10.84,4.14-7.13,2.86-14.3,6.2-21.8,8-.4.09-.21.68.18.61a203.33,203.33,0,0,0,22.77-6.25q5.64-1.8,11.21-3.76c-1.31.86-2.64,1.72-3.95,2.59-15.37,10.21-30.5,20.81-45.8,31.13-8.71,5.88-17.35,11.84-26.14,17.58-.34.23,0,.77.33.55,30.89-20.18,136.31-84.6,140-88.05C443.38,537.64,442.78,536.57,442.07,536.88Z"/><path class="cls-4" d="M445.26,501.8c-2.79,3.54-6.1,6.6-8.92,10.12l-.45.57c4-10.72,7.67-21.54,11.34-32.37,0-.17-.23-.28-.3-.12-5.87,13.25-11.78,26.49-17,40-2.63,6.79-11.9,31-11.37,31.86.31.52.83.74,1.22.22.11-.14,7.89-18.39,8.39-19.67q2.44-6.13,4.83-12.29c.07-.13.13-.26.21-.38.57-.81,1.24-1.54,1.85-2.31,1.25-1.6,2.45-3.25,3.67-4.87,2.51-3.34,4.46-7,7-10.33C446,501.92,445.51,501.47,445.26,501.8Z"/><path class="cls-4" d="M480.65,660.72a13,13,0,0,0-.57-1.93c-.24-.74-.51-1.48-.79-2.21a16.79,16.79,0,0,1-.69-2.15c-.16-.77-.33-1.54-.49-2.31-.09-.39-.72-.21-.61.19l.59,2.18a17.68,17.68,0,0,1,.39,2.31c.09.74.18,1.47.3,2.21.05.34.11.69.16,1s.11.67.2,1c-8.1,1.75-16.1,4.39-24.12,6.5-8.34,2.2-16.69,4.42-25,6.55-16.88,4.3-33.75,8.65-50.7,12.67-9.67,2.29-19.33,4.74-29.09,6.63-.4.07-.21.69.19.61,17.11-3.44,34.33-6.29,51.35-10.22s33.89-8.18,50.59-13.16c9.47-2.83,19.35-5.27,28.49-9A.45.45,0,0,0,480.65,660.72Z"/><path class="cls-4" d="M455.48,650c-.88-3.43-1.81-6.84-2.76-10.25q-2.87-10.37-5.82-20.7c-3.91-13.71-8.19-27.28-12.63-40.82-2.52-7.68-4.78-15.5-7.64-23.07a.3.3,0,0,0-.58.18c1.55,7,3.64,13.88,5.49,20.8s3.64,13.86,5.63,20.76q5.9,20.53,12.41,40.88c1.21,3.81,2.29,7.69,3.66,11.44.71,1.92,1.27,3.89,2,5.81s1.62,3.78,2.3,5.72a.17.17,0,0,0,.33-.1C457,657.07,456.38,653.48,455.48,650Z"/><rect class="cls-3" x="699.34" y="33.5" width="151.31" height="85.43"/><polygon class="cls-3" points="724.93 118.93 699.34 145.19 699.34 118.93 724.93 118.93"/><rect class="cls-2" x="721.21" y="50.65" width="89.84" height="2.64"/><rect class="cls-2" x="721.21" y="58.73" width="61.56" height="2.64"/><rect class="cls-2" x="721.21" y="66.81" width="107.56" height="2.64"/><rect class="cls-2" x="721.21" y="74.89" width="37" height="2.64"/><rect class="cls-2" x="721.21" y="82.97" width="84.4" height="2.64"/><rect class="cls-2" x="721.21" y="91.05" width="89.84" height="2.64"/><rect class="cls-2" x="721.21" y="99.14" width="67.31" height="2.64"/><rect class="cls-1" x="729.19" y="145.85" width="151.31" height="62.52" transform="translate(1609.68 354.22) rotate(180)"/><polygon class="cls-1" points="854.9 208.37 880.49 234.63 880.49 208.37 854.9 208.37"/><rect class="cls-2" x="752.52" y="159.12" width="81.46" height="2.72"/><rect class="cls-2" x="752.52" y="167.43" width="103.7" height="2.72"/><rect class="cls-2" x="752.52" y="175.75" width="75.37" height="2.72"/><rect class="cls-2" x="752.52" y="184.07" width="94.79" height="2.72"/><rect class="cls-2" x="752.52" y="192.39" width="62.15" height="2.72"/><path class="cls-2" d="M549.52,505.57c-12.73,25.67-43,40.9-43,40.9s-30.28-15.23-43-40.9c-10.6-21.41-3.88-44.55,12.85-49.6,24-7.26,30.14,34.51,30.14,34.51s6.15-41.77,30.16-34.51C553.41,461,560.12,484.16,549.52,505.57Z"/><rect class="cls-1" x="135.75" y="282.34" width="115.87" height="115.87"/><path class="cls-2" d="M182.93,352.54H167.39V334.7h15.24c.07-1.35.15-2.41.17-3.46.11-4.69-.08-9.4.35-14.05,1-10.24,7.25-17.47,17.37-18.87,6.32-.87,12.85-.16,19.46-.16V314.4c-2.36,0-4.7,0-7,0a32.41,32.41,0,0,0-6.25.42,5.82,5.82,0,0,0-4.95,5.64c-.18,4.55-.05,9.12-.05,14.06h17.72c-.75,5.84-1.39,11.26-2.23,16.65-.08.52-1.43,1.18-2.21,1.21-4.27.11-8.55.05-13.18.05v45.77H182.93Z"/><rect class="cls-3" x="706.62" y="570.17" width="115.87" height="115.87" rx="13.31"/><path class="cls-2" d="M807.18,604.56c0-11.6-7.29-19.1-18.8-19.21q-23.85-.24-47.73,0c-11.25.12-18.54,7.57-18.71,18.81-.11,7.93,0,15.88,0,23.82,0,7.77,0,15.55,0,23.32.1,11.86,7.33,19.44,19.07,19.56q23.61.25,47.23,0c11.51-.13,18.88-7.7,18.94-19.16Q807.31,628.14,807.18,604.56Zm-7.61,47.28c-.08,7.33-4,11.39-11.37,11.44q-23.61.15-47.22,0c-7.37,0-11.36-4.09-11.4-11.39q-.11-23.82,0-47.63c0-7.28,4.1-11.46,11.36-11.51q23.61-.15,47.22,0c7.28,0,11.33,4.21,11.41,11.47.09,7.93,0,15.87,0,23.81S799.66,643.9,799.57,651.84Z"/><path class="cls-2" d="M764.61,605.74a22.28,22.28,0,1,0,22.13,22.6A22.24,22.24,0,0,0,764.61,605.74Zm-.28,37.11a15,15,0,0,1-14.61-14.67,14.85,14.85,0,0,1,29.7,0A15.05,15.05,0,0,1,764.33,642.85Z"/><path class="cls-2" d="M793.51,605.21c-.24,3.12-2.24,4.76-5.31,4.61-3.38-.16-5.1-2.23-4.85-5.56.23-3.11,2.26-4.55,5.37-4.73C791.89,600.07,793.76,601.87,793.51,605.21Z"/><path class="cls-3" d="M270.14,262.43c2.55,16.53-6.79,34-6.79,34s-19.57,2.91-34.25-5.08c-12.26-6.65-16.83-19.95-10.54-28,9-11.52,26,6.35,26,6.35s-11.1-22,2.8-26.61C257,239.86,268,248.65,270.14,262.43Z"/><path class="cls-3" d="M293.71,215.53c-7.4,9.84-21.38,13.88-21.38,13.88s-11.59-8.81-14.93-20.65c-2.79-9.88,1.87-19.12,9.33-19.94,10.7-1.17,10,17,10,17s5.89-17.15,15.45-12.2C298.86,197,299.87,207.32,293.71,215.53Z"/></svg>