<svg id="Слой_1" data-name="Слой 1" xmlns="http://www.w3.org/2000/svg" viewBox="0 0 923 1000"><defs><style>.cls-1{fill:#ffc800;}.cls-2{fill:#306;}.cls-3{fill:#33245e;}.cls-4{fill:#472681;}.cls-5{fill:#fff;}.cls-6{fill:#ececec;}.cls-7,.cls-8,.cls-9{fill:none;stroke:#ffc800;stroke-miterlimit:10;}.cls-8{stroke-dasharray:3.98 3.98;}.cls-9{stroke-dasharray:3.97 3.97;}.cls-10{fill:#c8c8c8;}.cls-11{opacity:0.1;}.cls-12{fill:#774442;}.cls-13{fill:#f196b9;}</style></defs><path class="cls-1" d="M840.73,786.23a631,631,0,0,0-.92-66.81c-3-45.86-10.56-91.36-20.93-136.11-5.84-25.18-13-49.95-20.51-74.68-.23-.75-1.42-.54-1.21.24,23.16,87.2,42.15,177.18,40.85,267.82-.37,25.37-3.31,50.29-5.72,75.49-.06.68,1.05.94,1.2.25C838.27,830.86,839.83,808.26,840.73,786.23Z"/><path class="cls-1" d="M797.16,508.87s-35.08,89-27.23,110S794,644.24,794,644.24s-21.47,30.64-6.47,59.38,48.33,27.38,50.54,60C838.05,763.59,839.91,627.33,797.16,508.87Z"/><path class="cls-2" d="M834.24,707.33a.7.7,0,0,0,0-.47c-4.92-60.54-15.66-120.9-34-179.12-.06-.18-.34-.12-.29.06q10.43,39.06,18.42,78.56c-4.56-4.69-10.52-7.39-16.75-9.34a.09.09,0,0,0-.06.18c6.49,2.81,12.7,6.06,17.29,11.56,1,5.16,2,10.32,3,15.49-7.84-8.76-18.71-13.11-29.59-17.24-.15-.06-.24.18-.09.24,11.33,4.61,22.62,10.55,30.3,20.32q4,22.15,7,44.48a42.32,42.32,0,0,0-20.92-12c-.24-.06-.38.3-.13.37A44.22,44.22,0,0,1,829.6,674a.41.41,0,0,0,.13.1q1,7.85,2,15.72A54,54,0,0,0,817.05,681c-.14-.06-.22.17-.08.23a50.39,50.39,0,0,1,14.68,9.72.56.56,0,0,0,.19.07c.59,5,1.17,10,1.67,15a71.3,71.3,0,0,0-29.75-21.24c-.23-.09-.35.26-.13.36A77.38,77.38,0,0,1,833,707.66a.65.65,0,0,0,.74.23q1.14,11.49,2,23c0,.1.18.11.18,0Q835.2,719.13,834.24,707.33Z"/><path class="cls-2" d="M806.05,588.18c-6.08-4.19-13.81-6-21.07-6.57-.18,0-.19.24,0,.26,7.55,1.13,13.9,3.86,20.84,6.81C806.1,588.81,806.31,588.36,806.05,588.18Z"/><path class="cls-2" d="M810.31,682.45A44.18,44.18,0,0,0,794.49,677c-.19,0-.21.26,0,.3a58.87,58.87,0,0,1,15.65,5.49C810.34,682.93,810.52,682.57,810.31,682.45Z"/><path class="cls-1" d="M933,620.29a238.8,238.8,0,0,0-40.61,35.5,145.75,145.75,0,0,0-28.47,48.29,361,361,0,0,0-21.22,115.5,280.67,280.67,0,0,0,6.26,64.95.62.62,0,0,0,1.21-.23,364.25,364.25,0,0,1,.64-113.54c6-36.83,15.49-76.91,38.91-106.84,12.75-16.3,28.64-29.13,44.36-42.38C934.85,620.84,933.8,619.7,933,620.29Z"/><path class="cls-1" d="M847.82,793.05a217.91,217.91,0,0,1,29.59-37.83c17.55-17.54,32.33-30,34.61-41.62s-17.58-20.15-17.58-20.15,24.29,4.36,30.94-5.83,9.85-69.22,9.85-69.22-44.18,31.54-64.77,75.76S847.82,793.05,847.82,793.05Z"/><path class="cls-2" d="M919.94,633.53c-18.59,18.26-37.3,37.72-48.24,61.7a234.87,234.87,0,0,0-9.76,25.45l0,0c-.56,1.74-1.13,3.48-1.66,5.24a.49.49,0,0,0-.09.28c-5.42,17.92-9.24,36.44-12.55,54.54,0,.12.15.18.18.06,1.9-9.21,4-18.51,6.35-27.78a.65.65,0,0,0,.26-.06A39.14,39.14,0,0,1,866,750.06c.27,0,.25-.48,0-.47a43.79,43.79,0,0,0-11.47,2.09c2.14-8.36,4.47-16.7,7.08-24.91a123.16,123.16,0,0,1,26.21-3.43c.09,0,.1-.14,0-.14A99.06,99.06,0,0,0,862,725.39c.46-1.42.93-2.82,1.4-4.22a133.72,133.72,0,0,1,17.44-3c.11,0,.1-.19,0-.18a84.4,84.4,0,0,0-17.07,2.07c2.4-7.11,5-14.12,7.88-21A127.55,127.55,0,0,1,880,683a106.16,106.16,0,0,1,14.15-2.52c.13,0,.12-.23,0-.24a38.33,38.33,0,0,0-13.22,1.31c2.33-3.75,4.77-7.43,7.38-11h0c9.91-2.2,20-4.23,30.09-2.33.17,0,.24-.26.06-.31-9.65-2.53-19.22-1.07-28.82.83,1-1.39,2.12-2.77,3.2-4.14a65.89,65.89,0,0,1,18.51-2.91c.13,0,.15-.19,0-.2A48.29,48.29,0,0,0,894.11,663c8.19-10.18,17.24-19.73,26.18-29.19C920.71,633.35,920.38,633.1,919.94,633.53Z"/><path class="cls-2" d="M919.45,673.77a41.05,41.05,0,0,0-8.79-.31.32.32,0,0,0,0,.63c2.91.09,5.82-.13,8.73,0A.18.18,0,0,0,919.45,673.77Z"/><path class="cls-2" d="M887.65,731A39.82,39.82,0,0,0,874,733.77c-.11,0,0,.22.07.19,4.49-1.07,9-1.5,13.58-2.25C888.05,731.65,888,731,887.65,731Z"/><path class="cls-2" d="M878.12,711.25a29.46,29.46,0,0,0-5.78.52c-.19,0-.18.35,0,.35a29.5,29.5,0,0,0,5.79-.27A.31.31,0,0,0,878.12,711.25Z"/><path class="cls-1" d="M718.3,682.94a200.54,200.54,0,0,1,41.06,19.34,122.45,122.45,0,0,1,34.21,32.5,303.51,303.51,0,0,1,43.86,88.57,236.16,236.16,0,0,1,10,54,.52.52,0,0,1-1,.09,306.37,306.37,0,0,0-26.76-91.74c-13.39-28.41-30.31-58.66-56.18-77.47-14.09-10.25-29.91-17-45.7-24C716.89,683.82,717.48,682.65,718.3,682.94Z"/><path class="cls-1" d="M827.13,803.07a183.78,183.78,0,0,0-32.7-23.77c-18.26-10.14-33.1-16.82-37.63-25.68s9.57-20.37,9.57-20.37-18.65,9.14-26.38,2.43-24-53.75-24-53.75,43,15.32,69.92,46.34S827.13,803.07,827.13,803.07Z"/><path class="cls-2" d="M824.88,793.37c-21.53-40.41-50.25-77-89.62-101.09a0,0,0,1,0,0,0,197.65,197.65,0,0,1,28.81,22.55c-8-.22-16.08,1-23.15,4.88a.14.14,0,0,0,.12.25c7.87-2.67,15.44-4.42,23.81-4a.41.41,0,0,0,.27-.1q2.1,2,4.14,4a73.28,73.28,0,0,0-12.36,1.64.09.09,0,0,0,0,.17A63.64,63.64,0,0,1,770,720.61a270,270,0,0,1,20.31,23.06,20.51,20.51,0,0,0-8.65.63.16.16,0,0,0,.06.32,46.71,46.71,0,0,1,9.23-.12c1.18,1.5,2.37,3,3.53,4.51a83.1,83.1,0,0,0-26.13,2.54.1.1,0,0,0,0,.2A105.46,105.46,0,0,1,795.2,750c1.1,1.46,2.14,3,3.22,4.43a56.72,56.72,0,0,0-15.55,1.78c-.2,0-.14.36.06.31A59.54,59.54,0,0,1,799,755.27c4.64,6.38,9.07,12.9,13.33,19.5a14.47,14.47,0,0,0-6.82.42.09.09,0,1,0,0,.18,29.88,29.88,0,0,1,7.38.35q5.76,9,11.09,18.06C824.34,794.29,825.17,793.91,824.88,793.37Z"/><path class="cls-2" d="M791.39,759.85a33.34,33.34,0,0,0-12.5,1.53c-.12,0-.09.21,0,.19a96.22,96.22,0,0,1,12.44-1.27A.23.23,0,0,0,791.39,759.85Z"/><path class="cls-2" d="M753.85,710.61a21.47,21.47,0,0,0-5.77.33.17.17,0,0,0,.06.34c1.9-.2,3.77-.13,5.67-.18A.25.25,0,0,0,753.85,710.61Z"/><polygon class="cls-3" points="882.65 936.71 785.48 936.71 799.34 835.22 802.88 809.2 865.25 809.2 868.79 835.22 882.65 936.71"/><polygon class="cls-2" points="868.79 835.22 799.34 835.22 802.88 809.2 865.25 809.2 868.79 835.22"/><rect class="cls-3" x="793.96" y="800.17" width="80.22" height="22.04"/><path class="cls-4" d="M639.64,113.71H276c-20.31,0-36.78,16.76-36.78,37.47v748.6c0,20.67,16.47,37.47,36.78,37.47H639.64c20.33,0,36.83-16.8,36.83-37.47V151.18C676.47,130.47,660,113.71,639.64,113.71Zm13.83,762.92c0,19.71-14.75,35.65-33,35.65H295.19c-18.24,0-33-15.94-33-35.65V179.56c0-40.14,14.76-42.1,33-42.1h65.15c3.79,0,6.89,4.3,6.89,9.64v2.3c0,12.5,6.84,12.54,15.25,12.54h150.7c8.48,0,15.25,0,15.25-12.54v-2.3c0-5.34,3.06-9.64,6.91-9.64h65.18c18.2,0,33,5.33,33,42.1Z"/><path class="cls-2" d="M478.39,146.33H437.28a2.54,2.54,0,0,1-2.54-2.54h0a2.54,2.54,0,0,1,2.54-2.54h41.11a2.54,2.54,0,0,1,2.54,2.54h0A2.54,2.54,0,0,1,478.39,146.33Z"/><path class="cls-5" d="M653.48,179.56V876.63c0,19.71-14.76,35.65-33,35.65H295.19c-18.24,0-33-15.94-33-35.65V179.56c0-40.14,14.75-42.1,33-42.1h65.16c3.79,0,6.88,4.3,6.88,9.64v2.3c0,12.5,6.84,12.54,15.25,12.54H533.19c8.47,0,15.25,0,15.25-12.54v-2.3c0-5.34,3-9.64,6.9-9.64h65.18C638.72,137.46,653.48,142.79,653.48,179.56Z"/><path class="cls-1" d="M653.47,179.56v87.15H262.18V179.56c0-40.14,14.76-42.1,33-42.1h65.18c3.79,0,6.88,4.3,6.88,9.64v2.3c0,12.5,6.84,12.54,15.23,12.54H533.18c8.47,0,15.27,0,15.27-12.54v-2.3c0-5.34,3.06-9.64,6.91-9.64h65.15C638.71,137.46,653.47,142.79,653.47,179.56Z"/><polygon class="cls-5" points="301.8 228.29 290.24 217.46 301.8 206.63 303.59 208.54 294.07 217.46 303.59 226.38 301.8 228.29"/><path class="cls-5" d="M623.17,210.71a2.27,2.27,0,1,1-2.27-2.27A2.27,2.27,0,0,1,623.17,210.71Z"/><path class="cls-5" d="M623.17,218.8a2.27,2.27,0,1,1-2.27-2.27A2.26,2.26,0,0,1,623.17,218.8Z"/><path class="cls-5" d="M623.17,226.89a2.27,2.27,0,1,1-2.27-2.28A2.27,2.27,0,0,1,623.17,226.89Z"/><g id="u5Zjqx"><path class="cls-5" d="M349.11,153.12l-.63.62-.36.36a8.56,8.56,0,0,0-12.14,0l-.34-.36c-.21-.21-.41-.42-.62-.62h0v0l.05,0c.26-.23.52-.48.79-.7a9.92,9.92,0,0,1,1.84-1.18,9.61,9.61,0,0,1,2.44-.82c.41-.07.82-.11,1.22-.16.14,0,1,0,1.07,0l.83.07a9.81,9.81,0,0,1,5.2,2.25l.67.6Z"/><path class="cls-5" d="M338,156.08l-1-1a7.17,7.17,0,0,1,10.14,0l-1,1a5.76,5.76,0,0,0-8.14,0Z"/><path class="cls-5" d="M345.13,157.07l-1,1a2.95,2.95,0,0,0-4.17,0l-1-1A4.33,4.33,0,0,1,345.13,157.07Z"/><path class="cls-5" d="M343,159a.9.9,0,1,1-.9-.89A.89.89,0,0,1,343,159Z"/></g><path class="cls-5" d="M287.71,155a2.59,2.59,0,1,1,2.59,2.59A2.6,2.6,0,0,1,287.71,155Z"/><path class="cls-5" d="M295.87,155a2.6,2.6,0,1,1,2.6,2.59A2.61,2.61,0,0,1,295.87,155Z"/><path class="cls-5" d="M304,155a2.6,2.6,0,1,1,2.6,2.59A2.6,2.6,0,0,1,304,155Z"/><path class="cls-5" d="M312.21,155a2.6,2.6,0,1,1,2.59,2.59A2.6,2.6,0,0,1,312.21,155Z"/><path class="cls-5" d="M320.38,155a2.59,2.59,0,1,1,2.59,2.59A2.6,2.6,0,0,1,320.38,155Z"/><path class="cls-5" d="M624.13,160.69H603v-9.81h21.13Zm-20-1.1H623V152H604.1Z"/><rect class="cls-5" x="604.76" y="152.56" width="13.61" height="6.46"/><rect class="cls-5" x="624.13" y="153.17" width="1.88" height="5.23"/><polygon class="cls-6" points="321.65 869.66 318.67 869.66 318.67 883.33 313.11 883.33 313.11 876.36 303.27 876.36 303.27 883.33 297.71 883.33 297.71 869.66 294.74 869.66 308.19 855.76 321.65 869.66"/><rect class="cls-6" x="588.53" y="855.76" width="32.43" height="4.63"/><rect class="cls-6" x="588.53" y="867.23" width="32.43" height="4.63"/><rect class="cls-6" x="588.53" y="878.69" width="32.43" height="4.63"/><polygon class="cls-6" points="467.06 867.7 457.84 877.54 448.62 867.7 450.25 866.18 457.84 874.28 465.44 866.18 467.06 867.7"/><path class="cls-6" d="M457.84,887.71A16.75,16.75,0,1,1,474.59,871,16.77,16.77,0,0,1,457.84,887.71Zm0-31.29A14.54,14.54,0,1,0,472.38,871,14.55,14.55,0,0,0,457.84,856.42Z"/><polyline class="cls-7" points="612.92 646.06 612.92 648.06 610.92 648.06"/><line class="cls-8" x1="606.94" y1="648.06" x2="306.74" y2="648.06"/><polyline class="cls-7" points="304.75 648.06 302.75 648.06 302.75 646.06"/><line class="cls-9" x1="302.75" y1="642.09" x2="302.75" y2="405.66"/><polyline class="cls-7" points="302.75 403.68 302.75 401.68 304.75 401.68"/><line class="cls-8" x1="308.73" y1="401.68" x2="608.93" y2="401.68"/><polyline class="cls-7" points="610.92 401.68 612.92 401.68 612.92 403.68"/><line class="cls-9" x1="612.92" y1="407.65" x2="612.92" y2="644.07"/><path class="cls-10" d="M425.92,690.42a5.09,5.09,0,0,1-5.1-5.1V679a1,1,0,0,1,1-1,1,1,0,0,1,1,1v6.28a3.14,3.14,0,1,0,6.28,0V679a1,1,0,0,1,1-1,1,1,0,0,1,1,1v6.28A5.1,5.1,0,0,1,425.92,690.42Z"/><path class="cls-10" d="M435,692.79V682.54a.94.94,0,0,1,.93-.94,1,1,0,0,1,1,.72,4.52,4.52,0,0,1,2.4-.72,4.37,4.37,0,0,1,4.27,4.43,4.33,4.33,0,0,1-4.27,4.38,4.06,4.06,0,0,1-2.36-.73v3.11a1,1,0,0,1-1,1A1,1,0,0,1,435,692.79Zm1.94-6.76a2.33,2.33,0,0,0,.69,1.76,2.16,2.16,0,0,0,1.67.75,2.25,2.25,0,0,0,1.66-.75,2.53,2.53,0,0,0,.69-1.76,2.7,2.7,0,0,0-.69-1.78,2.3,2.3,0,0,0-1.66-.73,2.21,2.21,0,0,0-1.67.73A2.47,2.47,0,0,0,436.92,686Z"/><path class="cls-10" d="M447.37,678.07a1,1,0,0,1,1,1v10.41a1,1,0,0,1-2,0V679A1,1,0,0,1,447.37,678.07Z"/><path class="cls-10" d="M451.48,689.13a4.36,4.36,0,0,1-1.21-3.1,4.55,4.55,0,0,1,1.21-3.09,4.13,4.13,0,0,1,3-1.34,3.89,3.89,0,0,1,2.94,1.34A4.4,4.4,0,0,1,458.7,686a4.22,4.22,0,0,1-1.24,3.1,3.86,3.86,0,0,1-2.94,1.35A4.11,4.11,0,0,1,451.48,689.13Zm.71-3.1a2.87,2.87,0,0,0,.63,1.87,2.43,2.43,0,0,0,1.7.65,2.31,2.31,0,0,0,1.62-.65,2.71,2.71,0,0,0,.69-1.87,2.64,2.64,0,0,0-.69-1.83,2.48,2.48,0,0,0-1.62-.68,2.6,2.6,0,0,0-1.7.68A2.8,2.8,0,0,0,452.19,686Z"/><path class="cls-10" d="M469.17,686v3.46a.94.94,0,0,1-.94.93,1,1,0,0,1-.91-.76,4,4,0,0,1-2.35.76,4.08,4.08,0,0,1-3-1.29,4.62,4.62,0,0,1,0-6.21,4.07,4.07,0,0,1,3-1.32,4,4,0,0,1,2.35.78,1,1,0,0,1,.91-.78.94.94,0,0,1,.94.95Zm-1.87,0a2.62,2.62,0,0,0-.69-1.82,2.19,2.19,0,0,0-1.64-.72,2.14,2.14,0,0,0-1.64.72,2.61,2.61,0,0,0-.67,1.82,2.68,2.68,0,0,0,.67,1.82,2.22,2.22,0,0,0,1.64.69,2.27,2.27,0,0,0,1.64-.69A2.69,2.69,0,0,0,467.3,686Z"/><path class="cls-10" d="M480.63,689.47a1,1,0,0,1-1,.95,1,1,0,0,1-.93-.76,4.3,4.3,0,0,1-2.4.76,4.41,4.41,0,0,1,0-8.82,4.16,4.16,0,0,1,2.36.74V679a1,1,0,0,1,1.93,0v10.45Zm-4.29-6a2.28,2.28,0,0,0-1.66.73,2.58,2.58,0,0,0,0,3.53,2.27,2.27,0,0,0,3.32,0,2.58,2.58,0,0,0,0-3.53A2.26,2.26,0,0,0,476.34,683.52Z"/><path class="cls-10" d="M485.4,687.92a1.33,1.33,0,0,1,1.32,1.32,1.32,1.32,0,0,1-1.32,1.31,1.3,1.3,0,0,1-1.31-1.31A1.32,1.32,0,0,1,485.4,687.92Z"/><path class="cls-10" d="M489.46,687.92a1.33,1.33,0,0,1,1.32,1.32,1.32,1.32,0,1,1-1.32-1.32Z"/><path class="cls-10" d="M493.52,687.92a1.33,1.33,0,0,1,1.32,1.32,1.32,1.32,0,1,1-1.32-1.32Z"/><rect class="cls-6" x="320.5" y="703.31" width="274.67" height="17.34"/><rect class="cls-1" x="323.84" y="706.37" width="88.86" height="11.22"/><polygon class="cls-11" points="341.72 706.37 332.52 706.37 323.85 717.59 333.05 717.59 341.72 706.37"/><polygon class="cls-11" points="359.49 706.37 350.28 706.37 341.6 717.59 350.81 717.59 359.49 706.37"/><polygon class="cls-11" points="377.25 706.37 368.05 706.37 359.37 717.59 368.57 717.59 377.25 706.37"/><polygon class="cls-11" points="395.01 706.37 385.81 706.37 377.12 717.59 386.33 717.59 395.01 706.37"/><polygon class="cls-11" points="412.77 706.37 403.57 706.37 394.89 717.59 404.09 717.59 412.77 706.37"/><polygon class="cls-11" points="501.56 717.59 501.56 717.47 501.47 717.59 501.56 717.59"/><path class="cls-12" d="M205.17,849.07s-6.55,90.82-6.55,90.89c-.09,17.79.15,33.38,1,41.44a.32.32,0,0,0,0,.13c.33,3,.74,5,1.28,5.5,0,0,.06.09.11.11,5.27,3.62,147.4,8.48,152.41,7s1.14-15.9-4.23-20.49-59-30.79-59-30.79l5.66-90.79Z"/><path class="cls-6" d="M353.47,994.12c-5,1.51-147.14-3.36-152.42-7-.05,0-.07-.06-.11-.11-.53-.51-.95-2.45-1.29-5.48a.32.32,0,0,1,0-.13c-.86-8.07-1.1-23.66-1-41.44,0-.05,1.13-15.77,2.46-34.14l91.24,4.26-2,32.75s53.56,26.21,59,30.78S358.49,992.64,353.47,994.12Z"/><path class="cls-1" d="M354.1,994.36c-5.1,1.49-149.45-2.51-154.82-6.19-2-1.39-2.51-49.79.4-74.31l93,3.63s-.14,24.94,1,25.51c9.13,4.67,51.35,26.36,56.22,30.53C355.29,978.2,359.2,992.86,354.1,994.36Z"/><path class="cls-2" d="M352.25,988.51c-24.16-1.51-121.74-5.31-145.73-5-.2,0-.2.14,0,.15,23.91,2,121.52,5,145.72,5.22C352.75,988.91,352.76,988.54,352.25,988.51Z"/><path class="cls-2" d="M340.78,968a19.41,19.41,0,0,0-14.68,5.36c-3.13,3.16-5.88,7.68-5.9,12.7,0,.15.27.16.3,0,1.73-9.41,10.66-17.39,20.27-17.77A.15.15,0,0,0,340.78,968Z"/><path class="cls-2" d="M299.4,944.82c-9.67-.5-21,2.5-27.33,10.18-.25.3.18.64.47.51a133.9,133.9,0,0,1,27-9.49A.61.61,0,0,0,299.4,944.82Z"/><path class="cls-2" d="M306.77,948c-9.68-.5-21,2.49-27.34,10.18-.24.3.18.64.48.5a133.57,133.57,0,0,1,27-9.48A.61.61,0,0,0,306.77,948Z"/><path class="cls-2" d="M314.13,951.22c-9.68-.51-21,2.49-27.34,10.17-.24.3.18.64.48.51a133.81,133.81,0,0,1,27-9.49A.6.6,0,0,0,314.13,951.22Z"/><path class="cls-2" d="M321.49,954.41c-9.67-.5-21,2.49-27.34,10.18-.24.3.18.64.48.5a133.78,133.78,0,0,1,27-9.48A.61.61,0,0,0,321.49,954.41Z"/><path class="cls-2" d="M214.69,923.39c-10.85-.38-11.46,16.49-.58,16.87S225.57,923.77,214.69,923.39Z"/><path class="cls-2" d="M310.83,919.41c-4.73-4.26-11.06-.54-14.23,3.57a44.21,44.21,0,0,0-3.91,6.1,52.23,52.23,0,0,0-5.47,15.76,8.91,8.91,0,0,0-.16,1.25.41.41,0,0,0-.05.33c-.07.35-.11.67-.16,1a.26.26,0,0,0,.32.26,1.25,1.25,0,0,0,.94,1,.94.94,0,0,0,.75-.1c1.95-1.24,4-2.47,6-3.7l1.08-.65c4.95-3,9.84-6.24,13.54-10.66C312.74,929.73,315.33,923.4,310.83,919.41Zm-12.63,20.1c-1.59,1-3.17,2.07-4.76,3.09s-3,2-4.49,3a5.05,5.05,0,0,0-.5.35c-.16.12-.36.24-.53.37.07-.19.14-.35.21-.55,0,0,0-.06,0-.09,1.51-3.78,2.89-7.62,4.68-11.29.32-.73.69-1.46,1.07-2.2a56.88,56.88,0,0,1,3.76-6.39c2.23-3.1,12.05-10.86,12.6-.29C310.59,931.38,302.26,936.79,298.2,939.51Z"/><path class="cls-2" d="M289,946.93a.28.28,0,0,0,0-.42,6.89,6.89,0,0,0-.57-.53l-.19-.2s-.06-.07-.09-.07c-.32-.3-.63-.6-.95-.87A51.15,51.15,0,0,0,266,933.73c-5.05-1.19-12.3-.08-13.3,6.2-1,6,5.06,9.22,9.95,10.14s9.95.63,15,0c3.51-.44,7-1,10.43-1.43h.07A1.17,1.17,0,0,0,289,946.93Zm-13.74.61c-4.87.47-14.74,1.53-18.19-3.18-6.21-8.57,6.26-8.77,9.95-7.75a53,53,0,0,1,7,2.58,134.48,134.48,0,0,1,13.06,6.9h0c.15.11.31.18.47.28a2.35,2.35,0,0,0-.52,0c-.48,0-1,0-1.46.08C282.11,946.78,278.7,947.23,275.23,947.54Z"/><path class="cls-4" d="M198.45,900.56l101.61,4.18s4.7-141.87,2.44-201.55c-2.45-64.83-30.3-257.73-30.3-257.73h-84S209.66,639.11,210.11,704C210.53,764.09,198.45,900.56,198.45,900.56Z"/><path class="cls-2" d="M255.69,445.46,205.22,620.08c-6-82.64-17-174.62-17-174.62Z"/><path class="cls-2" d="M204.13,455l5.33,57.58,4.94,57.61c3.17,38.43,6.17,76.86,8.46,115.37.56,9.62.9,19.29.76,29s-.59,19.3-1.08,28.93q-1.48,28.89-3.71,57.72C217.37,820.37,212,877,212,877s3.89-56.72,5.15-76,2.51-38.46,3.4-57.71c.46-9.62.81-19.24,1-28.86s-.27-19.2-.85-28.82c-2.1-38.46-5.14-76.9-8-115.34Z"/><path class="cls-2" d="M296.89,885.68c-15.49-1-11-1-26.54-1.85-7.59-.43-57.46-3.21-64.61-2.37a.17.17,0,0,0,0,.32c7,1.5,57,3.42,64.55,3.7,15.52.58,11.07.25,26.6.65A.23.23,0,0,0,296.89,885.68Z"/><path class="cls-12" d="M43.73,797.57-2.63,876c-8,15.88-14.75,30-17.55,37.55a.28.28,0,0,0,0,.12c-1.07,2.87-1.56,4.8-1.31,5.5a.53.53,0,0,0,.05.15c3.11,5.58,128.18,73.27,133.33,74.16s8.11-13.73,5.35-20.23-39.07-53.84-39.07-53.84l45.53-78.75Z"/><path class="cls-6" d="M111.86,993.51c-5.16-.89-130.22-68.58-133.34-74.18a.53.53,0,0,1-.05-.15c-.25-.69.24-2.62,1.3-5.48a.28.28,0,0,1,0-.13C-17.37,906-10.64,891.9-2.64,876l17.41-29.47L94.55,891,78.14,919.44s36.26,47.32,39.06,53.82S117,994.42,111.86,993.51Z"/><path class="cls-1" d="M112.32,994c-5.24-.94-132.67-68.84-135.84-74.53-1.21-2.15,19.94-45.69,33.46-66.34l81.64,44.68s-11.24,22.27-10.49,23.28c6.09,8.25,34.22,46.48,36.72,52.38C120.59,980.07,117.55,994.93,112.32,994Z"/><path class="cls-2" d="M113.27,987.94c-21-12.12-106.62-59-128.25-69.39-.18-.08-.24,0-.07.14,20.5,12.46,106.54,58.65,128.13,69.6C113.53,988.52,113.71,988.19,113.27,987.94Z"/><path class="cls-2" d="M112.15,964.46a19.42,19.42,0,0,0-15.54-1.75c-4.21,1.44-8.68,4.26-10.93,8.75-.07.13.16.26.25.14,5.75-7.65,17.3-10.82,26.07-6.87A.15.15,0,0,0,112.15,964.46Z"/><path class="cls-2" d="M85.43,925.28c-8.44-4.76-19.93-7.14-29-3.07-.35.16-.12.66.2.67A133.84,133.84,0,0,1,85,926.41.61.61,0,0,0,85.43,925.28Z"/><path class="cls-2" d="M90.59,931.42c-8.43-4.76-19.93-7.13-29-3.07-.36.16-.13.66.2.67a133.92,133.92,0,0,1,28.38,3.53A.61.61,0,0,0,90.59,931.42Z"/><path class="cls-2" d="M95.76,937.56c-8.44-4.75-19.93-7.13-29-3.06-.35.15-.12.65.2.66a133.93,133.93,0,0,1,28.39,3.53A.61.61,0,0,0,95.76,937.56Z"/><path class="cls-2" d="M100.93,943.71c-8.44-4.76-19.93-7.14-29-3.07-.35.15-.12.65.2.66a133.84,133.84,0,0,1,28.38,3.53A.61.61,0,0,0,100.93,943.71Z"/><path class="cls-2" d="M19.15,868.34c-9.56-5.17-17.62,9.66-8,14.85S28.71,873.53,19.15,868.34Z"/><path class="cls-2" d="M107,907.62c-2.34-5.92-9.66-5.41-14.33-3.14a42.84,42.84,0,0,0-6.21,3.72,51.64,51.64,0,0,0-11.92,11.67,8.06,8.06,0,0,0-.71,1,.36.36,0,0,0-.18.27A9.79,9.79,0,0,0,73,922a.26.26,0,0,0,.16.38,1.26,1.26,0,0,0,.41,1.29.92.92,0,0,0,.72.23c2.29-.23,4.67-.43,7-.62l1.26-.09c5.78-.5,11.59-1.2,16.87-3.51C104.1,917.71,109.23,913.2,107,907.62ZM86.72,920c-1.89.23-3.77.44-5.64.65s-3.6.41-5.38.71c-.18,0-.39,0-.59.08l-.64.1.43-.39s.06,0,.08-.07c3-2.71,6-5.53,9.22-8,.6-.51,1.27-1,1.94-1.49a56.53,56.53,0,0,1,6.21-4c3.38-1.78,15.63-4.35,11.41,5.36C101.43,918.23,91.57,919.36,86.72,920Z"/><path class="cls-2" d="M75.15,922.52a.28.28,0,0,0,.23-.36c-.08-.26-.18-.49-.27-.73l-.08-.26s0-.09,0-.1c-.15-.41-.3-.82-.46-1.2a51.26,51.26,0,0,0-14-19.39c-4-3.31-11-5.55-14.67-.38-3.51,4.91.42,10.51,4.39,13.52s8.63,5,13.41,6.69c3.34,1.16,6.74,2.22,10,3.37l.06,0A1.19,1.19,0,0,0,75.15,922.52ZM62.57,917C58,915.19,48.7,911.74,47.7,906c-1.73-10.44,9.52-5.06,12.37-2.51a54.38,54.38,0,0,1,5.09,5.42,133.85,133.85,0,0,1,8.62,12l0,0c.09.16.21.29.3.45a3.94,3.94,0,0,0-.48-.18c-.45-.2-.89-.4-1.35-.58C69.08,919.33,65.82,918.21,62.57,917Z"/><path class="cls-4" d="M263.6,445.38a.43.43,0,0,1,0,.09c-.37,1.72-6.24,29-12.33,52.4-4.43,17.1-9,32.13-11.6,33.69-3,1.75-17.39,8.14-22.23,10.15,0,0-32.44,162-49.57,212.21C152,800.27,107.38,888.8,107.38,888.8l-92.26-51s50.72-87.34,58.51-109.9C85.71,692.94,131,522.18,131,522.18s-.34-53.46,17.66-76.8Z"/><path class="cls-2" d="M111.34,867.73c-13.56-7.58-9.57-5.59-23.21-13-6.68-3.63-50.58-27.46-57.4-29.76-.15-.05-.27.18-.15.28,5.72,4.37,50,27.44,56.77,30.94,13.79,7.16,9.91,5,23.77,12A.23.23,0,0,0,111.34,867.73Z"/><path class="cls-2" d="M155.32,507.31c2.6-.67,5.38-.88,8-1.3,2.14-.34,4.27-.71,6.39-1.18,4-.88,8-2.21,11.28-4.75,3.67-2.86,5.54-7.19,7.31-11.36,1-2.47,2.14-4.93,3.24-7.38.54-1.19,1.08-2.38,1.63-3.56a40.39,40.39,0,0,0,2-4.27c.07-.21.41-.1.32.1a31,31,0,0,0-.9,3.07c-.36,1.19-.7,2.39-1.07,3.58-.66,2.13-1.3,4.26-2,6.37-1.26,3.79-2.38,7.77-4.52,11.18-3.92,6.23-10.92,8.75-17.93,9.63-2,.25-4,.4-6,.51a43.45,43.45,0,0,1-7.65.06A.36.36,0,0,1,155.32,507.31Z"/><path class="cls-2" d="M247.33,527.74c-10.3,3.54-20.24,8.57-29.74,13.85a.33.33,0,0,0,.27.61c10-4.3,20.24-8.42,30-13.27A.65.65,0,0,0,247.33,527.74Z"/><path class="cls-2" d="M250.34,459.11c0-.35-.63-.42-.63-.05.08,11.89-.68,22.36-1.68,33.48-.46,5.16-4.62,33.68-13.56,31.6-1.5-.35-2.27-1.82-2.5-4.08-.29-2.72.74-6,1.19-8.75,1-6,1.79-12,2.3-18a164,164,0,0,0-.36-33.74.29.29,0,0,0-.58,0c0,15.59-.4,31.14-2.73,46.58-1.12,7.42-4.85,18.59,2.91,19.73s13-17.55,14-22.67C251.37,489,251.47,473.56,250.34,459.11Z"/><path class="cls-2" d="M234.7,524.91a47.26,47.26,0,0,0-2,5.91,13.56,13.56,0,0,0-.84,4.86.35.35,0,0,0,.62.13,16.86,16.86,0,0,0,2.08-4.73c.68-1.83,1.4-3.64,2-5.49A1,1,0,0,0,234.7,524.91Z"/><path class="cls-2" d="M38.1,825.11c13.51-25.43,34.73-65.13,41.31-77.7s10.91-25.49,15-38.85q12.52-40.74,23.74-81.88t21-82.61c1.65-6.91,3.45-13.82,4.78-20.8,1.39-7.26,1-14,0-21.31a68.28,68.28,0,0,1-.15-19.83,131.69,131.69,0,0,1,4.64-19.38c1-3.34,2.18-6.65,3.33-10,.12-.37.7-.2.58.17-4.09,13.39-8.27,26.93-7.4,41.11.43,6.81,2.23,13.5,2.11,20.36s-1.91,13.52-3.44,20.13q-9.67,41.72-20.79,83.09T99.36,700c-4,13.29-7.8,26.78-13.51,39.47S58.49,791.06,44,815.88c-1.84,3.15-3.7,6.28-5.56,9.42C38.29,825.5,38,825.32,38.1,825.11Z"/><path class="cls-12" d="M218,303.42c29,15.88,78.32,45.25,98.37,47.59,15.45,1.8,88.2-46.45,110.12-65.32,6.72-5.79-31-47.25-38.72-41.73-21.17,15.24-78.44,51.16-81,51.61-9.47,1.68-47.4-8.76-81.11-15.24C188.07,273.09,204,295.72,218,303.42Z"/><path class="cls-10" d="M270.69,336.4l22.91-42.58s-56.69-17.55-82.25-15.38-9.74,15.78,3.21,24.71S270.69,336.4,270.69,336.4Z"/><path class="cls-1" d="M270.69,336.4l22.91-42.58s-56.69-17.55-82.25-15.38-9.74,15.78,3.21,24.71S270.69,336.4,270.69,336.4Z"/><path class="cls-5" d="M293.54,293.9l-.2.36c-.53-.25-1.06-.47-1.61-.67a25.11,25.11,0,0,0-2.45-.93l-2.5-.79c-.84-.25-1.71-.4-2.57-.6l-1.28-.31c-.42-.07-.86-.11-1.3-.18a46.66,46.66,0,0,0-20.77,1.55,83.09,83.09,0,0,0-19,8.85c-4.71,2.83-9.22,5.92-13.73,9-.22.16-.46.33-.68.47a4.1,4.1,0,0,1-.47.3l-.86-.53a4.89,4.89,0,0,0,.51-.33l.68-.46c4.63-3.16,9.27-6.35,14.11-9.22a82.33,82.33,0,0,1,19.26-8.78,47.73,47.73,0,0,1,20.43-1.46c5.86,1.61,10.11,2.87,11.75,3.38A7.41,7.41,0,0,1,293.54,293.9ZM278.4,320c-6.24,2-12.28,4.51-18.33,6.92l-3.63,1.42,1.06.59c1-.37,1.95-.75,2.92-1.15,6.06-2.43,12.07-5,18.24-7,.18-.07.36-.11.53-.18l.56-1C279.28,319.66,278.84,319.8,278.4,320Zm-50.29-9.73a7.81,7.81,0,0,0-.82-.55,25.33,25.33,0,0,0-7-3.43l-1.57-.38c.69.45,1.44.91,2.19,1.4a27.1,27.1,0,0,1,5.75,2.87c.29.18.55.38.82.56.57.39,1.15.81,1.7,1.26s1.06.84,1.57,1.3c1,.6,2,1.19,3,1.79a48.18,48.18,0,0,0-4.12-3.69C229.11,311,228.62,310.57,228.11,310.22Z"/><path class="cls-2" d="M262.28,329.59c2.66-6.21,6.12-12.17,9.33-18.11,3.3-6.1,7-12,10.41-18,.1-.17.4,0,.31.16-3.1,6.06-5.93,12.23-9.26,18.17s-6.65,12.24-10.64,17.85A.09.09,0,0,1,262.28,329.59Z"/><path class="cls-11" d="M282.44,314.55,270.68,336.4s-43.16-24.32-56.12-33.26c-7.9-5.44-16.85-12.62-16.85-17.88Z"/><path class="cls-1" d="M134.8,462.12c.34.38,138.19-2.07,139.5-3.58,1.83-2.13-17.45-130.64-36.89-164.93-9.3-16.4-34.76-25.11-49.58.28C152.39,354.6,133.58,460.77,134.8,462.12Z"/><path class="cls-5" d="M274.17,453.87c-.64,0-1.3.08-1.94.08-.45,0-.89.05-1.33.05l-1.33-.07c-.88,0-1.77,0-2.65-.13l-2.63-.33a25.07,25.07,0,0,1-2.61-.51,45.54,45.54,0,0,1-5.13-1.35c-1.66-.62-3.32-1.17-4.93-1.95s-3.16-1.54-4.76-2.34-3.05-1.75-4.51-2.74-2.92-2-4.35-3-2.83-2.1-4.2-3.23q-2.4-1.92-4.71-4a5.17,5.17,0,0,1-.56-.51c-3.56-3.11-7-6.41-10.41-9.7C213,419.28,208,414.33,202.46,410a59.39,59.39,0,0,0-8.73-5.77,20.53,20.53,0,0,0-1.9-.9,6.13,6.13,0,0,0-.91-.4,25.81,25.81,0,0,0-7.06-1.9c-.86,0-1.72-.14-2.58-.16l-2.63.09a25.66,25.66,0,0,0-2.64.11l-2.6.27-1.31.15-1.28.22-2.59.49c-1.68.48-3.4.84-5,1.48-.73.24-1.48.53-2.19.82a6.82,6.82,0,0,0-1,.4c-2.19.9-4.34,2-6.46,3.05-2.94,1.48-5.9,3-9,4.18l.13-.56c2.94-1.19,5.77-2.65,8.63-4.11,2-1,3.93-2,6-2.87.31-.16.62-.29.93-.42.9-.4,1.83-.76,2.76-1.07,1.66-.66,3.38-1,5.09-1.54l2.61-.51,1.3-.25,1.33-.15,2.63-.31c.88-.09,1.77-.09,2.65-.13l2.66-.09c.9,0,1.79.09,2.69.13a27.19,27.19,0,0,1,7.59,2.06c.29.15.57.26.86.42.58.24,1.13.53,1.68.82a59.14,59.14,0,0,1,8.8,5.92c5.55,4.43,10.55,9.42,15.59,14.33,3.52,3.43,7,6.83,10.68,10.09l.55.5c1.42,1.26,2.86,2.5,4.32,3.7a82.42,82.42,0,0,0,8.49,6.25c1.46,1,3,1.82,4.51,2.72s3.12,1.64,4.75,2.3,3.25,1.29,4.91,1.88a49.42,49.42,0,0,0,5.09,1.33c.86.13,1.7.38,2.59.46l2.6.31c.87.09,1.75.09,2.64.14l1.3,0c.44,0,.88,0,1.33,0,.64,0,1.26-.05,1.9-.11A4.56,4.56,0,0,1,274.17,453.87ZM270,423.26l-.35.2a90.32,90.32,0,0,1-17.89,7.67A69.3,69.3,0,0,1,232.53,434c-1.12,0-2.25,0-3.38-.08a4.16,4.16,0,0,1-.62,0,70.07,70.07,0,0,1-15.28-2.45,82.38,82.38,0,0,1-9.24-3.14,97.6,97.6,0,0,1-8.85-4.14c-5.32-2.74-10.41-5.9-15.52-9.06-.26-.18-.55-.33-.82-.51l-.53-.33a155.48,155.48,0,0,0-17.07-9.64l-.22-.09a3.72,3.72,0,0,0-.77-.33,47.85,47.85,0,0,0-12.7-3.74,6.26,6.26,0,0,0-.2.77,44.33,44.33,0,0,1,4.43.84,51.46,51.46,0,0,1,7.54,2.55,6.37,6.37,0,0,1,.73.31l.88.37A155.44,155.44,0,0,1,178,414.64c.13.09.26.15.39.24l.85.49c5.17,3.14,10.34,6.28,15.74,9,2.9,1.5,5.88,2.9,8.89,4.13a79.8,79.8,0,0,0,9.26,3.21,70.89,70.89,0,0,0,15.93,2.63c.19,0,.42,0,.61,0,1,.05,1.88.09,2.83.09A71.21,71.21,0,0,0,252,431.8,87.36,87.36,0,0,0,270,424.21s.06,0,.09,0C270.08,423.86,270,423.57,270,423.26Zm-8.29-45.84c-1.5-.68-3-1.21-4.58-1.77a53.09,53.09,0,0,0-5.13-1.37c-.88-.15-1.72-.4-2.61-.49l-2.63-.33c-.88-.11-1.77-.09-2.65-.15l-1.33-.05c-.44,0-.88,0-1.32,0A47.06,47.06,0,0,0,221,378.53a81.24,81.24,0,0,0-17.33,12.14c-4.23,3.71-8.21,7.69-12.14,11.63l-.62.62-2.46,2.45c-3.14,3.12-6.3,6.26-9.64,9.18a3.66,3.66,0,0,0-.4.33c-1.83,1.57-3.71,3.07-5.68,4.47a40.6,40.6,0,0,1-9.15,5,26.8,26.8,0,0,1-10.2,1.71,41.78,41.78,0,0,1-10.32-1.44c-.45-.13-.91-.27-1.35-.42-.05.24-.11.48-.16.73.42.15.84.29,1.29.42a43.59,43.59,0,0,0,10.52,1.57l1.35,0,1.33-.07,1.35-.06,1.32-.22,1.33-.23c.44-.08.86-.22,1.3-.33l1.29-.35c.44-.13.84-.31,1.26-.46a41.44,41.44,0,0,0,9.37-5.09,74.23,74.23,0,0,0,6-4.73l.37-.31,1.86-1.66c2.61-2.39,5.13-4.87,7.63-7.36.9-.91,1.79-1.82,2.7-2.72.19-.2.39-.4.57-.6,3.87-3.89,7.74-7.79,11.83-11.41a84.17,84.17,0,0,1,17.09-12.19,46.91,46.91,0,0,1,20.13-5.35c.44,0,.88,0,1.32,0l1.31.06c.88,0,1.74,0,2.63.14l2.61.31c.86.06,1.72.31,2.59.46A49.82,49.82,0,0,1,257,376c1.64.59,3.25,1.12,4.82,1.85C261.77,377.71,261.75,377.58,261.7,377.42Zm-20.81-76.66c-4.66,2.8-9.13,5.86-13.6,8.91l-.68.46c-1,.67-1.93,1.31-2.88,2-5.81,4-11.65,7.92-18,10.86-1.12.53-2.3,1-3.45,1.44l-.7.26a36.08,36.08,0,0,1-5.77,1.53,27.42,27.42,0,0,1-10.33-.22,40.94,40.94,0,0,1-9.89-3.3c-.57-.29-1.15-.6-1.7-.93-.11.22-.2.44-.29.66.54.34,1.09.65,1.64.93a41.79,41.79,0,0,0,10.06,3.48l1.31.28,1.35.18,1.32.18,1.35,0,1.33,0c.46,0,.9-.06,1.35-.11l1.35-.11c.44,0,.86-.15,1.3-.22a36.75,36.75,0,0,0,6.52-1.77c.25-.09.49-.18.73-.29,1-.37,1.95-.77,2.9-1.21a82.29,82.29,0,0,0,9.31-5.09c3-1.86,6-3.82,8.84-5.84,1.07-.73,2.11-1.43,3.17-2.18.22-.14.46-.31.68-.47,4.31-3,8.63-6,13.12-8.67Zm9.87,29.58c-1.26.45-2.55.84-3.83,1.22a3.17,3.17,0,0,1-.55.15c-1.59.47-3.21.89-4.82,1.22a42.15,42.15,0,0,1-19.22,0,51.25,51.25,0,0,1-18-7.1,12.89,12.89,0,0,1-1.18-.8c-.33-.19-.62-.39-.93-.61-4.62-3.26-8.86-7.1-13.93-9.8a46.87,46.87,0,0,0-9.08-3.89,1.55,1.55,0,0,0-.29-.09,1.07,1.07,0,0,0-.07.15.21.21,0,0,0,0,.11c.13.05.24.07.37.11,1.53.58,3,1.13,4.56,1.8a42.85,42.85,0,0,1,4.33,2.19c4.87,2.65,9,6.41,13.45,9.68.31.22.59.44.9.64.51.38,1,.71,1.55,1.06a52.19,52.19,0,0,0,18.13,7.39,42.56,42.56,0,0,0,19.6.09c1.74-.38,3.49-.8,5.19-1.31l.56-.15c1.17-.36,2.34-.73,3.49-1.13C250.93,330.94,250.84,330.63,250.76,330.34Zm2.74,10.48q-1.83-2.55-3.63-5.1c-.79-1.11-1.57-2.24-2.36-3.34-.18-.27-.38-.56-.58-.82-3.1-4.38-6.24-8.71-9.75-12.78a56.7,56.7,0,0,0-7.59-7.43c-.48-.4-1-.78-1.48-1.13a7.81,7.81,0,0,0-.82-.55,25.33,25.33,0,0,0-7-3.43c-.86-.22-1.72-.44-2.61-.64l-2.63-.38c-.86-.11-1.75-.28-2.63-.35l-2.66-.2-1.32-.09-1.33,0h-2.65c-1.77.18-3.54.25-5.29.6a74,74,0,0,0-10.3,2.5c-3.19,1-6.39,1.88-9.67,2.57-.06.11-.11.22-.17.35a1.07,1.07,0,0,0-.07.15l.36-.06c3.27-.64,6.5-1.55,9.7-2.48a76.14,76.14,0,0,1,10.24-2.43,51.28,51.28,0,0,1,5.22-.53h3.94l1.32.11,2.61.2c.86.06,1.73.24,2.61.37l2.59.4L220,307a27.39,27.39,0,0,1,6.59,3.16c.29.18.55.38.82.56.57.39,1.15.81,1.7,1.26a56.88,56.88,0,0,1,7.54,7.27c3.47,4,6.61,8.2,9.71,12.49.17.27.37.56.57.82.84,1.15,1.66,2.32,2.5,3.47,1.44,2,2.9,4,4.36,6C253.72,341.62,253.61,341.22,253.5,340.82Z"/><path class="cls-12" d="M228.14,304.47c-6.11.72-19.69-9.82-25.37-19.13-.38-.64.3-7.58.72-16.07.24-5.14.39-10.88.14-16.13l33.27,6.45s-2.71,11.15-2.23,20.29A11.94,11.94,0,0,0,235,282c0,.09.05.21.06.35C235.92,286.44,237.72,303.35,228.14,304.47Z"/><path class="cls-2" d="M203.55,267.8c7.11,9.61,17.76,18.83,31.87,16.63-.13-.87-.24-1.56-.35-2.05A3.08,3.08,0,0,1,235,282a9.68,9.68,0,0,1-.32-2.15c-.49-9.14,2.22-20.29,2.22-20.29l-33.27-6.44C203.87,257.88,203.76,263.05,203.55,267.8Z"/><path class="cls-12" d="M194.84,215.72c-3,11.84,4.82,45.23,13.48,52.34,12.56,10.3,32.3,10.38,40.85-4.53,8.28-14.45-2.66-57.79-12.26-64.17C222.77,190,199.25,198.23,194.84,215.72Z"/><path class="cls-2" d="M227.86,232.79c0-.08-.14.15-.11.24.68,2.21,1.09,4.86-.72,6.15-.06,0,0,.15.05.12C229.45,238.28,228.87,234.77,227.86,232.79Z"/><path class="cls-2" d="M225.24,231c-3.66.71-2,8,1.42,7.31S228.3,230.41,225.24,231Z"/><path class="cls-2" d="M241.06,229.23c0-.09.2.06.22.15.45,2.27,1.35,4.79,3.56,5.06.07,0,.09.12,0,.13C242.29,234.8,241.13,231.44,241.06,229.23Z"/><path class="cls-2" d="M242.52,226.41c3.55-1.12,5.53,6.07,2.24,7.11S239.54,227.35,242.52,226.41Z"/><path class="cls-2" d="M221.6,228.36a30.44,30.44,0,0,0,2.58-1.65c1-.64,1.83-1.05,2.31-2.18a1.58,1.58,0,0,0-.68-1.8c-1.32-.71-2.72-.22-3.93.5a5.73,5.73,0,0,0-2.66,3.17A1.69,1.69,0,0,0,221.6,228.36Z"/><path class="cls-2" d="M244.39,223a28.36,28.36,0,0,1-3.06-.08,4.92,4.92,0,0,1-3.11-.67,1.58,1.58,0,0,1-.35-1.89,3.89,3.89,0,0,1,3.62-1.6,5.74,5.74,0,0,1,3.92,1.34A1.68,1.68,0,0,1,244.39,223Z"/><path class="cls-2" d="M230.66,254.15c.66.4,1.36,1,2.2.88a5.88,5.88,0,0,0,2.28-1.13c.07,0,.16,0,.13.09a3.13,3.13,0,0,1-2.57,1.89,2.47,2.47,0,0,1-2.24-1.57C230.4,254.18,230.56,254.1,230.66,254.15Z"/><path class="cls-2" d="M231.45,246.87a7.84,7.84,0,0,0,5.91,2.21,9.89,9.89,0,0,0,2.78-.52,2.05,2.05,0,0,0,.51-.18c.16-.06.31-.11.48-.19a.57.57,0,0,0,.33-.61h0a.9.9,0,0,0-.08-.23v0l0-.19c-.36-1.75-1.14-4.34-1.14-4.34.71.17,4.27.87,4,0-2.2-7.38-4.64-15.6-8.38-22.48a.21.21,0,0,0-.4.15c1.83,7.18,4.91,14,6.86,21.18a13.77,13.77,0,0,0-3.87-.25c-.23.13,1.6,5,1.7,5.78a.31.31,0,0,1,0,.09c-2.83,1.05-5.23.68-8.51-.61C231.42,246.53,231.27,246.72,231.45,246.87Z"/><path class="cls-2" d="M238.92,247.93a9.33,9.33,0,0,1-3,3.66,4.17,4.17,0,0,1-2.44.74c-1.91-.05-2.34-1.69-2.34-3.18a10.37,10.37,0,0,1,.3-2.35A12.09,12.09,0,0,0,238.92,247.93Z"/><path class="cls-13" d="M235.93,251.59a4.17,4.17,0,0,1-2.44.74c-1.91-.05-2.34-1.69-2.34-3.18C233.12,248.9,235.33,249.76,235.93,251.59Z"/><path class="cls-2" d="M196.83,244.07c-1.31-2.9-14.12-34.32-13.8-38,.29-3.35,4-2.57,4.06-2.76s-.32-3.16,1.34-4.55c1.46-1.22,4-.53,4-.53s.08-3.2,1.91-4.34,3.95.24,3.95.24.19-3.09,2.56-4.19a3.43,3.43,0,0,1,4,.86s.37-3.1,2.33-4,4.05,1,4.05,1,.71-2.88,3.18-3.29,3.85,2.15,3.85,2.15,1.07-2.84,3.39-3.27,3.57,2.36,3.57,2.36.55-2.74,2.77-2.9,3.2,2.82,3.2,2.82a2.2,2.2,0,0,1,2.84-2c4.15.68,9,21.1,11.21,29.18,0,0-2.55-5.95-4.25-5.84s-2.55,3-5.58,4.15c-4.31,1.67-12.53-2.43-18.48-.18-5.78,2.2-9.25,9.15-10,18.87C206.12,240.86,199.94,250.94,196.83,244.07Z"/><path class="cls-12" d="M203.38,242.83s-8.36-10.36-13.11-7.31,2.06,18.44,8,20.2A5.92,5.92,0,0,0,206,252Z"/><path class="cls-2" d="M192.33,239.88c-.09,0-.1.13,0,.16,4.18,1.37,6.58,5,8.35,8.79-1.31-1.42-3-2.13-4.93-.55-.1.08,0,.24.12.21a3.63,3.63,0,0,1,4.08,1,18,18,0,0,1,2.14,3.1c.21.35.85.11.69-.3l0-.09C202.46,247,197.93,240,192.33,239.88Z"/><path class="cls-2" d="M237.12,287a.06.06,0,0,0-.11,0c1.44,6.38,4.34,21.24-5.91,22-4.13.29-8.25-1.66-11.75-3.65a57.8,57.8,0,0,1-10-7.32,84.48,84.48,0,0,1-9.78-9.88c-.12-.16-.35.06-.22.21,3,3.55,5.69,7.33,9.06,10.59a50.12,50.12,0,0,0,10.8,8.14c3.73,2,8.09,3.93,12.43,3.42,4.13-.49,6.71-3.5,7.31-7.48C239.75,297.76,238.73,292,237.12,287Z"/><rect class="cls-3" x="251.9" y="250.96" width="311.35" height="248.37" transform="translate(-33.08 39.47) rotate(-5.33)"/><polygon class="cls-5" points="371.34 426.07 363.17 338.4 457.33 373.83 371.34 426.07"/><rect class="cls-5" x="256.65" y="276.27" width="18.42" height="12.96" transform="translate(-25.11 25.91) rotate(-5.33)"/><rect class="cls-5" x="259.09" y="302.45" width="18.42" height="12.96" transform="translate(-27.53 26.25) rotate(-5.33)"/><rect class="cls-5" x="261.53" y="328.62" width="18.42" height="12.96" transform="translate(-29.95 26.59) rotate(-5.33)"/><rect class="cls-5" x="263.97" y="354.8" width="18.42" height="12.96" transform="translate(-32.37 26.93) rotate(-5.33)"/><rect class="cls-5" x="266.41" y="380.97" width="18.42" height="12.96" transform="translate(-34.79 27.27) rotate(-5.33)"/><rect class="cls-5" x="268.85" y="407.15" width="18.42" height="12.96" transform="translate(-37.21 27.61) rotate(-5.33)"/><rect class="cls-5" x="271.3" y="433.32" width="18.42" height="12.96" transform="translate(-39.63 27.95) rotate(-5.33)"/><rect class="cls-5" x="273.74" y="459.5" width="18.42" height="12.96" transform="translate(-42.05 28.29) rotate(-5.33)"/><rect class="cls-5" x="276.18" y="485.67" width="18.42" height="12.96" transform="translate(-44.47 28.63) rotate(-5.33)"/><rect class="cls-5" x="520.56" y="251.66" width="18.42" height="12.96" transform="translate(-21.68 50.32) rotate(-5.33)"/><rect class="cls-5" x="523" y="277.83" width="18.42" height="12.96" transform="translate(-24.1 50.66) rotate(-5.33)"/><rect class="cls-5" x="525.44" y="304.01" width="18.42" height="12.96" transform="translate(-26.52 51) rotate(-5.33)"/><rect class="cls-5" x="527.88" y="330.18" width="18.42" height="12.96" transform="translate(-28.94 51.34) rotate(-5.33)"/><rect class="cls-5" x="530.32" y="356.36" width="18.42" height="12.96" transform="translate(-31.37 51.68) rotate(-5.33)"/><rect class="cls-5" x="532.77" y="382.53" width="18.42" height="12.96" transform="translate(-33.79 52.02) rotate(-5.33)"/><rect class="cls-5" x="535.21" y="408.71" width="18.42" height="12.96" transform="translate(-36.21 52.36) rotate(-5.33)"/><rect class="cls-5" x="537.65" y="434.88" width="18.42" height="12.96" transform="matrix(1, -0.09, 0.09, 1, -38.63, 52.7)"/><rect class="cls-5" x="540.09" y="461.06" width="18.42" height="12.96" transform="translate(-41.04 53.03) rotate(-5.33)"/><path class="cls-12" d="M213.67,320c6,17.35,29.31,87.62,32.77,90.81,14,12.91,49.24,35.54,53.55,40.23,5.87,6.4-20.59,45.8-29.82,44.7-3.82-.45-51-31.48-65.59-46.69-11.77-12.26-17.89-90.71-18.25-127.19C186,290.55,202.08,286.39,213.67,320Z"/><path class="cls-1" d="M187.06,381l48.25-3.21S220.06,320.46,204.64,300s-18.55.13-19.23,15.85S187.06,381,187.06,381Z"/><path class="cls-5" d="M234.44,374.57a45.77,45.77,0,0,0-12.19,4.11l-1.72.11c.15-.11.33-.17.48-.26A48.52,48.52,0,0,1,234.28,374C234.33,374.22,234.39,374.39,234.44,374.57Zm-19.71-56.52a88.05,88.05,0,0,1-9,4.91c-1.12.53-2.3,1-3.45,1.44l-.7.26a36.08,36.08,0,0,1-5.77,1.53,27.42,27.42,0,0,1-10.33-.22,1.21,1.21,0,0,0-.18-.05v.89l1.31.28,1.35.18,1.32.18,1.35,0,1.33,0c.46,0,.9-.06,1.35-.11l1.35-.11c.44,0,.86-.15,1.3-.22a36.75,36.75,0,0,0,6.52-1.77c.25-.09.49-.18.73-.29,1-.37,1.95-.77,2.9-1.21a81.53,81.53,0,0,0,9-4.91C215,318.6,214.84,318.31,214.73,318.05Zm6,14.5a49.42,49.42,0,0,1-16.34-6.74,12.89,12.89,0,0,1-1.18-.8c-.33-.19-.62-.39-.93-.61-4.62-3.26-8.86-7.1-13.93-9.8-.9-.51-1.83-1-2.78-1.44,0,.13,0,.29,0,.44a22.47,22.47,0,0,1,2.61,1.38c4.87,2.65,9,6.41,13.45,9.68.31.22.59.44.9.64.51.38,1,.71,1.55,1.06a50.61,50.61,0,0,0,17.05,7.12C221,333.17,220.86,332.86,220.73,332.55Zm-13-28-.69,0h-2.65c-1.77.18-3.54.25-5.29.6a74,74,0,0,0-10.3,2.5l-2.9.86a5.27,5.27,0,0,0,0,.56l3.09-.89a76.14,76.14,0,0,1,10.24-2.43,51.28,51.28,0,0,1,5.22-.53h3.71C208,305,207.88,304.8,207.75,304.58Z"/><path class="cls-2" d="M188.36,370.28c6.68-1,13.57-1.28,20.31-1.72,6.92-.45,13.84-.42,20.77-.73.19,0,.22.33,0,.34-6.78.6-13.51,1.47-20.31,1.81s-13.9.87-20.78.47A.09.09,0,0,1,188.36,370.28Z"/><path class="cls-2" d="M183.36,340.28q.72,4.37,1.53,8.71c-.08-6.05-.09-12.1.12-18.13,0-.16.26-.16.27,0,.65,8.39,1,16.84,1.31,25.25.29,8.09.82,16.3.54,24.39.6.05,1.2.11,1.81.14.28,0,.28.46,0,.49-.74.07-1.48.18-2.22.28a.49.49,0,0,1-.54-.4c-1-8.33-1-16.91-1.2-25.29,0-1.38,0-2.75-.06-4.13a102.15,102.15,0,0,1-2-11.24A.23.23,0,0,1,183.36,340.28Z"/><path class="cls-2" d="M233.54,377.93l1.76-.27-.13.19c-1.37-3.56-2.59-7.17-3.83-10.77s-2.35-7.24-3.45-10.88-2.17-7.3-3.12-11-1.94-7.37-2.73-11.11c1.43,3.55,2.69,7.14,3.91,10.75s2.39,7.23,3.52,10.86,2.17,7.29,3.18,11,2,7.35,2.8,11.08l0,.18h-.17Z"/><path class="cls-2" d="M226.24,338.19a25.42,25.42,0,0,1,.84,5.45,24.25,24.25,0,0,1-.26,5.5,27.55,27.55,0,0,1-.58-10.95Z"/><path class="cls-12" d="M323.18,473c-2.14-2.92-.62-4.07,5.59-2.32s29.29,13.89,32.85,5.48S332.36,451,321.8,448.91s-28.37-1.82-28.37-1.82C299.17,451.62,312,463.93,323.18,473Z"/><path class="cls-12" d="M264.92,492.74c16.65,14.77,36.59,28.31,59.71,30.62A11.55,11.55,0,0,0,332,521.8c10.34,1.22,14-3.3,14-3.3,10-1.82,13.12-7,13.12-7s8.42,0,8.82-5.93c.39-5.71-13-10.33-22.56-16.36-21.9-13.8-46.06-37.55-52-42.16Z"/><path class="cls-2" d="M315.39,492.92c6.53,3.93,12.83,8,19.86,11,7.7,3.33,15.68,5.23,23.75,7.38a.2.2,0,0,1-.08.4c-15.22-1.57-31.83-8.89-43.71-18.49C314.92,493,315.06,492.72,315.39,492.92Z"/><path class="cls-2" d="M305.14,504.92c6.56,3.48,18.13,9.52,40.94,13.33.07,0,.07.15,0,.14-15.14-.5-28.46-5-41.1-13.15C304.58,505,304.7,504.69,305.14,504.92Z"/><path class="cls-2" d="M299.75,511.48C311.13,517,319,519,332,521.74c.07,0,.06.14,0,.13-15.06-1.58-20.35-3.86-32.45-10C299.09,511.63,299.3,511.26,299.75,511.48Z"/><path class="cls-12" d="M381.92,242.51c8.31-4,18.61-14,25.41-14.82a7.84,7.84,0,0,1,8.31,4.33s3.36-6.8,9.66-6.55c3.23.13,5.87,5.41,5.87,5.41s2.93-5.33,8.52-4.76c4.45.45,6.43,5.69,6.43,5.69s5.19-3.81,9.57-1.9c8.9,3.89,9.06,42.28-5.06,48.27-6.58,2.79-6.11-6.59-6.11-6.59s-3.94,13.33-11.85,13.56-6.57-11.91-6.57-11.91-3.92,12.88-12.15,12.29c-8.57-.61-5.14-12.53-5.14-12.53s-5.76,8.56-11.95,6.67c-10.24-3.12,2.55-19.34.51-27.76l-13.93-4.6Z"/><path class="cls-12" d="M394,234.77c-8.2,3.09-18.38-7-26.64-5.21-11.18,2.47-.16,15,16.1,17.75l13-.1Z"/><path class="cls-2" d="M446.55,232.59a.1.1,0,0,1,.2,0c3.13,12.61,2.7,27.43-2.2,39.56-.16.4-.87.31-.78-.16C446.43,258.48,447.71,246.32,446.55,232.59Z"/><path class="cls-2" d="M431.25,230.7c0-.15.24-.17.28,0,3.15,13,2.21,29.7-5.08,43-.25.45-.93.61-.68.07C429.94,264.54,432.36,243.06,431.25,230.7Z"/><path class="cls-2" d="M408,273.81c6.5-13,8.16-26.84,7.83-41.27,0-.18.26-.17.31,0,2.08,7,1.33,16.22.14,23.34A38.27,38.27,0,0,1,408.43,274C408.26,274.24,407.83,274.08,408,273.81Z"/><polygon class="cls-3" points="435.42 611.62 435.42 565.8 482.5 588.71 435.42 611.62"/><polygon class="cls-3" points="571.14 599.9 571.14 577.52 594.13 588.71 571.14 599.9"/><polygon class="cls-3" points="552.76 599.9 552.76 577.52 575.75 588.71 552.76 599.9"/><polygon class="cls-3" points="346.78 577.52 346.78 599.9 323.79 588.71 346.78 577.52"/><polygon class="cls-3" points="365.16 577.52 365.16 599.9 342.17 588.71 365.16 577.52"/><rect class="cls-3" x="319.19" y="569.61" width="4.6" height="38.19"/><rect class="cls-3" x="594.18" y="569.61" width="4.6" height="38.19"/><path class="cls-5" d="M381.6,219.11a2.39,2.39,0,0,0-.44-.31c0-.07-.06-.07-.06-.19a1.73,1.73,0,0,1-.31-.38s-.07,0-.07-.06a1.79,1.79,0,0,0-.31-.5L365,181a3.35,3.35,0,0,1,1.89-4.46,3.39,3.39,0,0,1,4.46,1.82l12.25,29.1,12.25-29.1a3.47,3.47,0,0,1,6.41,2.64l-15.52,36.7a2.59,2.59,0,0,1-.25.5c0,.06,0,.06-.07.06s-.25.25-.31.38a.48.48,0,0,1-.13.19c-.12.12-.25.19-.37.31l-.13.06a3.1,3.1,0,0,1-.5.32c-.06,0-.06,0-.13.06a1.33,1.33,0,0,0-.5.13h-.13a2.43,2.43,0,0,1-.62.06,2.25,2.25,0,0,1-.63-.06h-.13a1.33,1.33,0,0,0-.5-.13.06.06,0,0,0-.06-.06h-.07c-.12-.07-.37-.25-.56-.38Z"/><path class="cls-5" d="M411.73,179.21a3.4,3.4,0,0,1,3.46-3.45,3.49,3.49,0,0,1,3.51,3.45v37.07a3.5,3.5,0,0,1-3.51,3.46,3.41,3.41,0,0,1-3.46-3.46Z"/><path class="cls-5" d="M430.46,216.28V179.21a3.4,3.4,0,0,1,3.46-3.45h7.42a22,22,0,0,1,0,44h-7.42A3.45,3.45,0,0,1,430.46,216.28Zm7-3.51h3.9a15,15,0,0,0,0-30h-3.9Z"/><path class="cls-5" d="M472.52,216.28V179.21a3.4,3.4,0,0,1,3.46-3.45h20.55a3.48,3.48,0,0,1,3.45,3.45,3.54,3.54,0,0,1-3.45,3.52h-17v11.5h14.64a3.49,3.49,0,0,1,0,7H479.5v11.57h17a3.49,3.49,0,0,1,0,7H476.17c-.13,0-.13-.06-.13-.06l-.06.06A3.45,3.45,0,0,1,472.52,216.28Z"/><path class="cls-5" d="M544.48,181.22a23.08,23.08,0,0,1,0,31.8,20.57,20.57,0,0,1-15,6.72,21.25,21.25,0,0,1-15.4-6.72,23.46,23.46,0,0,1,0-31.8,21,21,0,0,1,15.4-6.72A20.34,20.34,0,0,1,544.48,181.22Zm-.81,15.9a16.33,16.33,0,0,0-4.27-11,13.56,13.56,0,0,0-20.11,0,16,16,0,0,0-4.27,11,15.7,15.7,0,0,0,4.27,10.93,13.42,13.42,0,0,0,20.11,0A16,16,0,0,0,543.67,197.12Z"/></svg>