<svg id="Слой_1" data-name="Слой 1" xmlns="http://www.w3.org/2000/svg" xmlns:xlink="http://www.w3.org/1999/xlink" viewBox="0 0 160 160"><defs><style>.cls-1,.cls-13{fill:none;}.cls-2{fill:#4a148c;}.cls-3{clip-path:url(#clip-path);}.cls-4{fill:#ffc800;}.cls-5{opacity:0.5;}.cls-6{fill:#fff;}.cls-7{fill:#ececec;}.cls-8{fill:#c36358;}.cls-9{fill:#306;}.cls-10{clip-path:url(#clip-path-2);}.cls-11{fill:#ed776a;}.cls-12,.cls-14{opacity:0.1;}.cls-13{stroke:#f3a59e;stroke-linecap:round;stroke-linejoin:round;stroke-width:0;}.cls-15{fill:#ffaba1;}.cls-16{opacity:0.06;}</style><clipPath id="clip-path"><rect class="cls-1" x="-198.56" y="-3.22" width="177" height="177"/></clipPath><clipPath id="clip-path-2"><rect class="cls-1" x="-5.56" y="-5.22" width="174" height="174"/></clipPath></defs><rect class="cls-2" x="-1278.56" y="-28.22" width="1497" height="226"/><g class="cls-3"><path class="cls-4" d="M-76,119s3.33-33.42-5.85-45.34C-90.77,62-117.8,59.21-122.54,41.72c-4.49-16.55,11.44-21.57,10.2-35s-34.4-18-31.23-56.89c3.06-37.55,51.18-60.34,87.59-23.6C-39-56.59-38-33-19.48-24.85s36-8.74,54.28,4S43.7,19.9,15.9,26c-22.58,4.95-32.26,5.79-37.83,15.76-6.49,11.63,1.68,17.51-4,27.06-5.3,9-22.41,12-32.14,19.92-11.86,9.6-14.35,30.07-14.35,30.07Z"/><g class="cls-5"><path class="cls-6" d="M-76,119s3.33-33.42-5.85-45.34C-90.77,62-117.8,59.21-122.54,41.72c-4.49-16.55,11.44-21.57,10.2-35s-34.4-18-31.23-56.89c3.06-37.55,51.18-60.34,87.59-23.6C-39-56.59-38-33-19.48-24.85s36-8.74,54.28,4S43.7,19.9,15.9,26c-22.58,4.95-32.26,5.79-37.83,15.76-6.49,11.63,1.68,17.51-4,27.06-5.3,9-22.41,12-32.14,19.92-11.86,9.6-14.35,30.07-14.35,30.07Z"/></g><path class="cls-2" d="M9.7-27.47l.85,17.11L.11,3.2A17,17,0,0,1-6.55-9.5,17.14,17.14,0,0,1,9.7-27.47Z"/><path class="cls-7" d="M31.23-9.65A17.11,17.11,0,0,1,28.65.28,17.11,17.11,0,0,1,15,8.3,17,17,0,0,1,3.68,4.77L14.12-8.79,13.26-25.9A17.12,17.12,0,0,1,28.54-18,17.14,17.14,0,0,1,31.23-9.65Z"/><path class="cls-4" d="M31.23-9.65A17.11,17.11,0,0,1,28.65.28,17.11,17.11,0,0,1,15,8.3,17,17,0,0,1,3.68,4.77L14.12-8.79,13.26-25.9A17.12,17.12,0,0,1,28.54-18,17.14,17.14,0,0,1,31.23-9.65Z"/><path class="cls-8" d="M-65.9,164.45c.62.38,9.37,5.75,14.88,7.86,4.11,1.57,16.07,5.79,18.26,1.44,1.49-3-5.25-6.28-10-8.73-2.49-1.28-5.43-4.25-4.54-5.84,1.57-2.78,8,.69,12.1,3.58,8,5.61,18.5,15.36,24,11.52,2.08-1.45.07-4.58-3-7.75,5.08,3.82,10.57,7.06,12.94,5.54,1.37-.87,1.54-2.2,1-3.79,1.61.68,3.09.7,4.2-.3,1.89-1.67,1.27-4.44-.41-7.36a2.1,2.1,0,0,0,1.68-.91c4.16-5.31-13-23-19.22-25.08-18.42-6-38.56-6.1-38.56-6.1C-60.45,133.81-65.91,164.44-65.9,164.45Z"/><path class="cls-9" d="M-26.76,135.25c4.72,1.39,8.83,2.59,12.87,5.52,5.34,3.88,10.29,10.07,12,12.27,1.91,2.42,3.75,4.91,5.54,7.42.07.1-.1.23-.18.13A159.62,159.62,0,0,0-9.92,144.86a31.76,31.76,0,0,0-7.74-6,57,57,0,0,0-9.11-3.56A0,0,0,0,1-26.76,135.25Z"/></g><g class="cls-10"><path class="cls-6" d="M73.52,45.75l-1.1,7.89a5.86,5.86,0,0,1-6.78,5.1A6,6,0,0,1,60.53,52L62.3,39.36c0-.12.14-.1.15-.23s-.1-.13-.09-.26a6.19,6.19,0,0,1,6.78-5.11,13.72,13.72,0,1,0,3.8-27.17,13.58,13.58,0,0,0-12.58,5,6,6,0,0,1-8.55,1,6,6,0,0,1-.92-8.41,25.74,25.74,0,1,1,22.63,41.5ZM69.8,72.31l-.3,2.18a5.87,5.87,0,0,1-6.78,5.12,6,6,0,0,1-5.11-6.78l.31-2.18a6.09,6.09,0,0,1,6.77-5.11A5.92,5.92,0,0,1,69.8,72.31Z"/><path class="cls-6" d="M25.76,89.5l1.77,6.43A4.9,4.9,0,0,1,24,102.1a5,5,0,0,1-6.17-3.51L15,88.31c0-.1.07-.12,0-.22s-.13-.07-.15-.17a5.17,5.17,0,0,1,3.5-6.18A11.48,11.48,0,1,0,12.32,59.6a11.33,11.33,0,0,0-8,8.05,5.05,5.05,0,0,1-6.23,3.63,5,5,0,0,1-3.5-6.16A21.55,21.55,0,1,1,25.76,89.5Zm6,21.65.49,1.77a4.9,4.9,0,0,1-3.51,6.18,5,5,0,0,1-6.17-3.51L22,113.81a5.09,5.09,0,0,1,3.51-6.17A5,5,0,0,1,31.72,111.15Z"/><path class="cls-6" d="M57.14,118.43l-.26,4.93A3.64,3.64,0,0,1,53,126.88,3.73,3.73,0,0,1,49.44,123l.42-7.9c0-.07.08-.07.08-.14s-.07-.08-.07-.16a3.84,3.84,0,0,1,3.92-3.52,8.51,8.51,0,1,0,.9-17A8.4,8.4,0,0,0,47.18,98,3.75,3.75,0,0,1,42,99.13a3.7,3.7,0,0,1-1-5.15,16,16,0,1,1,16.21,24.45Zm-.88,16.62-.07,1.36a3.65,3.65,0,0,1-3.92,3.53A3.74,3.74,0,0,1,48.75,136l.07-1.37a3.79,3.79,0,0,1,3.92-3.52A3.69,3.69,0,0,1,56.26,135.05Z"/><path class="cls-11" d="M136.5,126.39c30.61,32,68.71,98.84,61.22,112.16-8.35,14.85-51-30-50.76-32.55.16-1.95-14.46-42.43-25.57-71.89S128.93,118.48,136.5,126.39Z"/><path class="cls-4" d="M146.67,206c-1.26-4.32-21.17-57.72-26.84-74.59s-.1-22,16.58-6.36,53,67.55,61,94.94c7.75,26.38-5.77,26.18-23.42,13.81C159.56,223.71,146.67,206,146.67,206Z"/><path class="cls-6" d="M118.49,118.18l-.35-.14a2.35,2.35,0,0,1,.19-.43l.7.25c1.91.61,4.25.81,5.92-.51a3.6,3.6,0,0,0,.53-.5l.46.24C124.23,119.13,120.94,119.07,118.49,118.18ZM131.68,121l-.47-.37c-.26.12-.53.25-.8.36-3.82,1.68-8.54,3.37-11.84,6.21.05.19.1.38.14.58a23.31,23.31,0,0,1,5.85-3.7C126.9,123,129.34,122.06,131.68,121Zm4.25,11.37a32,32,0,0,1,3.74-4l-.37-.39c-3.49,3-6,7.67-9.31,10.61a16.06,16.06,0,0,1-6.4,3.67c0,.16.11.31.17.47a15,15,0,0,0,4.62-2.22C131.5,138.32,133.57,135.26,135.93,132.34Zm17.23,12c-5,6.85-14.2,8.49-22.23,9.71-1,.14-1.94.3-2.91.49l.2.54c3.39-.69,6.87-1,10.25-1.75,5.62-1.29,11.51-4,15-8.53h0Zm6.87,59c-3.47-.87-6.62.29-9.67,1.9-1,.53-2,1.1-3,1.62.1.14.21.29.34.45,4.11-2.11,8.07-4.75,12.81-3.21a5.53,5.53,0,0,1,3.63,3.05,5.36,5.36,0,0,1-1.5,5.59c-1.95,2.07-4.63,2.89-7.22,3.87l.45.5,2.24-.87c3.09-1.22,6.71-3.47,6.94-7.18C165.18,206.09,162.74,204.05,160,203.38Zm-12.07-37c2.45-3.45,4.7-7,7.15-10.49,1-1.5,2.16-3,3.38-4.47l-.35-.47c-.65.76-1.26,1.55-1.85,2.34-2.47,3.26-4.67,6.72-7,10.1-3.45,5.1-7.51,10.84-12.84,14.38l.21.56C141.24,175.31,144.91,170.67,148,166.38Zm1.24,9.11a8.27,8.27,0,0,0,3.4,7.77c2.82,1.94,6,.75,8-1.74,1.19-1.46,2-3.15,3.11-4.7a19.79,19.79,0,0,1,4.44-4.78,13.6,13.6,0,0,1,3.37-1.83l-.34-.53a12.36,12.36,0,0,0-2.16,1.06c-3.43,2.09-5.51,5.31-7.61,8.61-1.08,1.69-2.38,3.48-4.38,4.12a4.93,4.93,0,0,1-4.84-1.3,7.64,7.64,0,0,1-.9-10.1c2.32-3.38,6.35-5.2,10.14-6.4,1.94-.61,3.94-1.13,5.9-1.75-.11-.17-.23-.33-.34-.49-3.94,1.26-8.14,2.15-11.52,4.15C152.56,169.3,149.74,172,149.2,175.49ZM181.32,186a24.05,24.05,0,0,1-5.76,5,25.63,25.63,0,0,1-11.89,4.17,16.36,16.36,0,0,1-11.69-3.5c-2.88-2.32-5.45-5.19-9.28-5.82a11.56,11.56,0,0,0-3.27-.07c.07.22.15.42.23.63a10.5,10.5,0,0,1,4.45.46,16.22,16.22,0,0,1,5.25,3.41,27.76,27.76,0,0,0,4.8,3.65,16.08,16.08,0,0,0,5.44,1.76,22.47,22.47,0,0,0,11.25-1.57,26.86,26.86,0,0,0,10.82-7.58C181.55,186.39,181.44,186.19,181.32,186Zm0,52.4c.56.3,1.12.58,1.67.85a19.41,19.41,0,0,1,5.34,2.07,16.47,16.47,0,0,0,2.14.46,27.73,27.73,0,0,0-5.89-2.77A16.62,16.62,0,0,0,181.35,238.39Zm3.05-47c-.09-.16-.17-.32-.27-.48-5.11,1.1-9.89,4.76-11.8,9.43-1.5,3.68-.62,7.28,1,10.77a52.87,52.87,0,0,1,2.63,6,21.54,21.54,0,0,1,1,5.85,20,20,0,0,1-2.81,10.93,5,5,0,0,0,.47.33,19.79,19.79,0,0,0,2.78-8.19,22.13,22.13,0,0,0-1.53-10.82c-1.65-4-4.47-8-3.62-12.57C173.25,197.15,178.66,192.56,184.4,191.37Zm13.38,29.85a30.2,30.2,0,0,1-5.08,1.17c-2.06.26-4.54.17-5.76-1.8a6,6,0,0,1-.24-4.81c1-3.36,3.75-5.29,6.32-7.42-.07-.17-.15-.34-.23-.51-1.29,1.06-2.65,2.06-3.81,3.18-2.09,2-3.64,5.18-3.15,8.12.61,3.7,4.37,4.22,7.49,3.73a33.7,33.7,0,0,0,4.59-1.17C197.87,221.55,197.83,221.39,197.78,221.22Z"/><path class="cls-12" d="M174,233.84c-14.46-10.13-27.35-27.8-27.35-27.8-1.25-4.32-21.17-57.71-26.84-74.6-2.09-6.23-2.66-10.86-1.69-13.43Z"/><path class="cls-4" d="M145.69,244.25H27.5s24.18-93.94,64.11-132.82c5.36-5.21,26.22-4.34,31,3.52C140.66,144.41,146,243.83,145.69,244.25Z"/><path class="cls-6" d="M130.66,191.62c-4.64,6.6.41,15.59,7.81,17.14a10,10,0,0,0,4.59-.15l.06.6a10.25,10.25,0,0,1-4.25.26c-6.59-1-12.12-8-10.37-14.73,1.36-5.21,6.65-8.83,11.94-9,0,.22.05.43.08.65a12.28,12.28,0,0,0-1.35.11A12.81,12.81,0,0,0,130.66,191.62ZM32.58,227.53l-.18-.15c-.07.2-.13.4-.19.6,4.62,3.81,5.57,10.68,7,16.27h.61C38.29,238.41,37.43,231.66,32.58,227.53Zm19.74-33.95c3.61-.23,7.27-1.44,9.47-4.46,1.7-2.34,2.58-5.63,1.33-8.36-1.46-3.15-5-4-8.19-3.91-1.38,0-2.73.16-4.09.31l-.25.6a25.84,25.84,0,0,1,6.68-.23,6.82,6.82,0,0,1,5,2.83,6.58,6.58,0,0,1,.67,5c-.93,4-4.16,6.47-8,7.31-3.42.74-6.89.34-10.33-.15-.07.19-.15.37-.22.55A40.57,40.57,0,0,0,52.32,193.58Zm5.09,44.21c-3.45-.64-9,2.68-10.84-1.82-1.39-3.38.6-7.14,2.75-9.68,2.6-3.07,6-5.37,9.27-7.61,6.13-4.14,21-16.82,13.89-22.2-6.61-5-15.09,9.6-20.06,14.18-4.39,4-10.82,7.69-17.1,7.6l-.18.54c6.35.11,12.62-3.5,17.34-7.41C58.69,206.24,64.81,192.87,72,197c6,3.4-5.15,15.33-11.3,19.57a93.29,93.29,0,0,0-9.15,6.66c-2.5,2.22-4.95,5-5.71,8.31-.55,2.47-.27,5.65,2.25,7,1.6.83,3.41.51,5.1.19,2.13-.41,4.13-.66,6.11.42a8.21,8.21,0,0,1,4,5.18h.65v0A8.76,8.76,0,0,0,57.41,237.79Zm43.23-74.86a9,9,0,0,0-9.68.48c-3,2.14-4.89,5.61-6.32,9-1.59,3.74-3,7.87-6.12,10.66-1.68,1.51-4.32,2.83-6.37,1.22a6,6,0,0,1-1.9-4.56c-.11-3.52,2-6.84,4.08-9.5s4.71-5.2,6.9-7.95a18.69,18.69,0,0,0,4.29-8.73,4.62,4.62,0,0,0-1.33-4.46,5.5,5.5,0,0,0-3.93-1c-3.45.34-6.39,2.84-8.46,5.45a29.92,29.92,0,0,0-3,4.75c-.94,1.79-1.64,3.7-2.59,5.47a4.29,4.29,0,0,1-5.3,2.36,7.47,7.47,0,0,1-3.73-2.77c-.08.18-.17.35-.24.53,1.68,2.07,4.21,3.68,6.89,2.81,1.71-.56,2.62-2.1,3.33-3.65.81-1.79,1.6-3.59,2.55-5.32,1.93-3.46,4.6-7,8.4-8.54a6.46,6.46,0,0,1,5.22-.07c2.2,1.16,1.92,3.86,1.35,5.9-1.93,6.78-8.31,11.06-12.11,16.69-1.75,2.59-3.2,5.7-2.78,8.9.37,2.88,2.41,5.55,5.61,4.85,3.74-.81,6.18-4.76,7.7-7.95,1.73-3.61,2.9-7.52,5.37-10.75s6.26-5.39,10.36-4c4.4,1.5,6.92,5.85,7.08,10.33.3,8.17-5.44,14.93-11.33,19.86-5.65,4.74-12,8.59-17.27,13.84A38.41,38.41,0,0,0,66.52,228.3c-.73,5-.73,11,1.29,15.95h.77a22.71,22.71,0,0,1-1.33-4.55A37.11,37.11,0,0,1,71.77,215c4-7,10.34-11.86,16.74-16.61,5.62-4.18,11.51-8.53,15.08-14.73C107.35,177.15,108.26,167.16,100.64,162.93Zm19.69,38.56a11.93,11.93,0,0,0-5.11-9.37,8.5,8.5,0,0,0-9.41-.14,13.5,13.5,0,0,0-5.52,8.5c-1.05,4.82-.18,9.77-.08,14.64A48.83,48.83,0,0,1,93,241.53c-.58.93-1.2,1.84-1.87,2.72h.82a41.75,41.75,0,0,0,4.9-8.71,49.39,49.39,0,0,0,3.59-12.9,74.08,74.08,0,0,0,.09-14c-.24-4.5-.09-9.21,2.53-13,2.31-3.39,6.35-5.48,10.36-3.77s6.22,5.94,6.34,10.2c.24,8.77-6.06,16.14-10.39,23.21A36,36,0,0,0,104.57,236a22.24,22.24,0,0,0-.27,8.21h.62a21.75,21.75,0,0,1,.54-9.28c2.22-7.89,8-14.08,11.73-21.26C119.13,210,120.6,205.78,120.33,201.49ZM138,228.19a10.66,10.66,0,0,0-9.11-4.13,7.47,7.47,0,0,0-6.85,5.73c-.81,3.82,1.21,7.79,3.3,10.85.82,1.19,1.74,2.39,2.62,3.61h.68a52.88,52.88,0,0,1-4.75-7.22c-1.82-3.79-2.41-9,1.82-11.41,3.58-2.07,8-.87,10.85,1.85,3.1,2.95,4.55,7.16,5.41,11.24.38,1.8.67,3.66,1,5.54h.58C142.6,238.51,141.74,232.71,138,228.19ZM100.67,108.31l-1,.11A23.35,23.35,0,0,1,95,112.63a25.91,25.91,0,0,1-8,3.62l-.74.84a20.9,20.9,0,0,0,2-.53A26.16,26.16,0,0,0,100.67,108.31Zm.85,16.82a6.88,6.88,0,0,1-.53-4.7c.68-3.08,3.14-6.05,6.37-6.58,4.18-.68,7.48,3,11.13,4.33a8.13,8.13,0,0,0,6,0q-.11-.23-.21-.42a7,7,0,0,1-5.21,0c-3.71-1.19-6.7-4.63-10.8-4.58-5.49.08-9.64,7-7.26,11.91.84,1.7,2.4,2.85,3.8,4.07a12.5,12.5,0,0,1,3.34,4.35,12.69,12.69,0,0,1,.1,10,8.69,8.69,0,0,1-7.7,5.41,10.45,10.45,0,0,1-8.35-3.82A7.26,7.26,0,0,1,90.59,141c0-2.07.73-4.09,1.25-6.06.77-2.95.88-6.8-2.49-8.15-2.69-1.08-5.89.27-8,2-2.82,2.29-4,5.9-5.54,9-1.68,3.35-4.15,6.54-8.16,6.9a6.28,6.28,0,0,1-.75,0l-.33.59h.16a9.47,9.47,0,0,0,7.81-4.23c2.21-3,3.16-6.79,5.29-9.89,1.82-2.62,5.72-5,9-4,4.78,1.51,2.38,7.43,1.59,10.74-.71,3-.38,5.81,1.74,8.15,3.9,4.3,11.26,4.87,15.07.18s3.07-12.55-1.37-16.74C104.39,128.14,102.51,127,101.52,125.13Zm17.42,17.46c3.22,1.2,6.78-.28,9.44-2.11a20.15,20.15,0,0,0,3.1-2.71l-.15-.53a16.67,16.67,0,0,1-1.34,1.32c-2.79,2.48-7.05,5-10.88,3.52s-4.79-6.11-3.54-9.73c1.41-4.08,5.27-6.56,9-8.3.69-.32,1.39-.63,2.09-.93a4.62,4.62,0,0,0-.19-.47c-5.68,2.47-11.64,5.67-12,12.48A7.33,7.33,0,0,0,118.94,142.59Zm20.11,33.24a22,22,0,0,1-8.39,4.64c-4.34,1.2-8.74.16-11.49-3.53a18.25,18.25,0,0,1-2.65-5.45,13.86,13.86,0,0,1-.62-7.54c1.1-4.18,5.12-6.8,9-8a74.86,74.86,0,0,1,10.34-2l-.12-.58c-1.42.26-2.83.48-4.21.69-4.09.61-8.29,1.45-11.63,4.06a10.51,10.51,0,0,0-4.18,9.85c.48,3.75,2,7.86,4.67,10.59a10.69,10.69,0,0,0,10.11,2.7,21.51,21.51,0,0,0,9.25-4.77C139.11,176.27,139.08,176.05,139.05,175.83Z"/><path class="cls-11" d="M77.35,143.75c-5,56.07,2.8,100.74,26.34,104,15.64,2.14,11.72-45.27,11.68-46.29a243.76,243.76,0,0,0-13-63.87C90.17,102.91,79.57,118.69,77.35,143.75Z"/><path class="cls-4" d="M77.35,143.75c-5,56.07,2.8,100.74,26.34,104,15.64,2.14,17.82-37.84,17.79-38.86-.13-3.46-8-39.83-19.12-71.3C90.17,102.91,79.57,118.69,77.35,143.75Z"/><path class="cls-9" d="M103.72,141.52c3.43,10.57,6.55,21.22,9.57,31.91s6,21.42,7.77,32.38C117,187,108.84,160.38,103.72,141.52Z"/><path class="cls-9" d="M106.62,144.15c.78,3,1.36,6.26.64,9.33.1-3.08-.48-6.26-.64-9.33Z"/><path class="cls-6" d="M79.83,131.23c-.27.4-.52.8-.76,1.21.13-.56.26-1.11.4-1.65a10.51,10.51,0,0,1,1.88-2c2.11-1.71,5.31-3.06,8-2,3.37,1.35,3.26,5.2,2.49,8.15-.52,2-1.3,4-1.25,6.06a7.26,7.26,0,0,0,1.57,4.23,10.45,10.45,0,0,0,8.35,3.82,8.25,8.25,0,0,0,5.09-1.92c.07.18.13.37.19.57-4,3.09-10.17,2.2-13.62-1.6-2.12-2.34-2.45-5.16-1.74-8.15.79-3.31,3.19-9.23-1.59-10.74C85.55,126.18,81.65,128.61,79.83,131.23Zm5.69,22.28a4.62,4.62,0,0,0-1.33-4.46,5.5,5.5,0,0,0-3.93-1,9,9,0,0,0-3.34,1c0,.21,0,.42,0,.64a9.45,9.45,0,0,1,1.2-.58,6.46,6.46,0,0,1,5.22-.07c2.2,1.16,1.92,3.86,1.35,5.9-1.42,5-5.21,8.59-8.63,12.39,0,.27,0,.54,0,.81,1.74-2,3.59-3.89,5.24-6A18.69,18.69,0,0,0,85.52,153.51Zm18.07,30.18c3.76-6.54,4.67-16.53-3-20.76a9,9,0,0,0-9.68.48c-3,2.14-4.89,5.61-6.32,9-1.59,3.74-3,7.87-6.12,10.66a8.76,8.76,0,0,1-2.41,1.56l0,.64c3.3-1.15,5.51-4.77,6.92-7.73,1.73-3.61,2.9-7.52,5.37-10.75s6.26-5.39,10.36-4c4.4,1.5,6.92,5.85,7.08,10.33.3,8.17-5.44,14.93-11.33,19.86C89.16,197.46,83.12,201.17,78,206c0,.28.09.57.14.85a96.39,96.39,0,0,1,10.33-8.47C94.13,194.24,100,189.89,103.59,183.69Zm13.6,30a24.63,24.63,0,0,0,3.17-11.3c0-.31,0-.61,0-.92a13,13,0,0,0-1.2-4.78,11,11,0,0,0-3.91-4.59,8.5,8.5,0,0,0-9.41-.14,13.5,13.5,0,0,0-5.52,8.5c-1.05,4.82-.18,9.77-.08,14.64A48.83,48.83,0,0,1,93,241.53l-.42.65.51.46a44.64,44.64,0,0,0,3.76-7.1,49.39,49.39,0,0,0,3.59-12.9,74.08,74.08,0,0,0,.09-14c-.24-4.5-.09-9.21,2.53-13,2.31-3.39,6.35-5.48,10.36-3.77s6.22,5.94,6.34,10.2c.24,8.77-6.06,16.14-10.39,23.21A36,36,0,0,0,104.57,236a22.4,22.4,0,0,0,.37,11.09c.06.22.13.44.2.66a6,6,0,0,0,.61,0,22.12,22.12,0,0,1-.29-12.77C107.68,227.08,113.49,220.89,117.19,213.71Z"/><path class="cls-9" d="M76.28,151.44c-.06,13.68.29,27.39,1.42,41,1.44,17.05,5.45,53,27.28,54.71a13.23,13.23,0,0,0,9.34-2.6A63.9,63.9,0,0,0,125.25,234a262.76,262.76,0,0,0,18.12-24.83L142,207.77l1.37,1.3,0,0c-1.75,3-3.59,5.85-5.48,8.73-5.55,8.27-18.35,27.3-27.76,30C98.67,250.38,90,242.47,85.35,232.7c-10.3-21.79-9.68-57.11-9.07-81.26Z"/><path class="cls-9" d="M75.16,154.83c.29,2.59.71,5.1,1,7.69a16.4,16.4,0,0,1-1-7.69Z"/><path class="cls-4" d="M116.3,141.42S96.13,123,83.48,123.82l-10.42,9.89s-3.49,1.28-4.66-.92c-2.88-5.44-3.86-18.79,7.35-27.86,10.26-8.29,31.93-7.39,46.45-4.08,13.93,3.18,21.82,11.06,17.88,20.21S116.3,141.42,116.3,141.42Z"/><path class="cls-12" d="M117.55,137.13s15.47-11.84,16.88-18.61-12.23-12.73-21-15c-13.56-3.44-22.67-2.27-30,5.15S117.55,137.13,117.55,137.13Z"/><path class="cls-11" d="M119.78,134.88c-7.23.91-18.18-11.17-22-20.41-.26-.64,1.34-6.85,2.92-14.49.94-4.64,1.88-9.83,2.39-14.63.1-1,29.3,10.54,29.3,10.54s-4,9.74-4.88,18.11a11,11,0,0,0,0,2c0,.09,0,.2,0,.33C127.7,120.12,126.77,134,119.78,134.88Z"/><path class="cls-9" d="M124.39,116.15a20,20,0,0,0,3.1.17,1.84,1.84,0,0,0,0-.34,11,11,0,0,1,0-2c.85-8.36,4.88-18.1,4.88-18.1s-23.7-9.35-28.47-10.49C104.24,91,106.69,113.85,124.39,116.15Z"/><path class="cls-11" d="M93.5,61.21c-.76,11.19,11.78,40.1,20.78,45.1,13,7.25,30.9,4.08,36.18-10.8,5.12-14.42-11.89-51.8-21.62-56C114.52,33.36,94.62,44.68,93.5,61.21Z"/><path class="cls-13" d="M116.92,109.21s0,0,0,0"/><path class="cls-9" d="M127.22,73.28c0-.07-.11.16-.07.24.89,1.92,1.6,4.28.11,5.68-.05,0,0,.14.06.1C129.34,78.08,128.38,75,127.22,73.28Z"/><path class="cls-9" d="M124.61,72c-3.24,1.11-.79,7.5,2.21,6.48S127.32,71.06,124.61,72Z"/><path class="cls-9" d="M139.28,68.36c0-.08.19,0,.22.12.69,2,1.83,4.19,3.87,4.16.06,0,.1.1,0,.12C141.09,73.29,139.61,70.38,139.28,68.36Z"/><path class="cls-9" d="M140.26,65.62c3.09-1.46,5.79,4.83,2.92,6.19S137.66,66.84,140.26,65.62Z"/><path class="cls-9" d="M121.86,72.24a25.3,25.3,0,0,0,2.59-1.08,4.5,4.5,0,0,0,2.44-1.6,1.44,1.44,0,0,0-.33-1.74,3.59,3.59,0,0,0-3.63-.17A5.25,5.25,0,0,0,120,70.1,1.54,1.54,0,0,0,121.86,72.24Z"/><path class="cls-9" d="M140.42,60.31a26.67,26.67,0,0,1-2.8.32,4.6,4.6,0,0,1-2.91-.23,1.44,1.44,0,0,1-.55-1.68,3.62,3.62,0,0,1,3.1-1.91,5.31,5.31,0,0,1,3.73.73A1.55,1.55,0,0,1,140.42,60.31Z"/><path class="cls-9" d="M132.33,91.67a3.21,3.21,0,0,0,2.11.53,5.79,5.79,0,0,0,1.94-1.31.08.08,0,0,1,.13.06,2.87,2.87,0,0,1-2.11,2,2.26,2.26,0,0,1-2.23-1.15C132.1,91.73,132.23,91.63,132.33,91.67Z"/><path class="cls-9" d="M133.55,88.55c2.13-2,5.48-2.9,7.63-3.44.21-.13.24-.66.2-.89h0l-1.75-4.14c.66.06,4,.23,3.61-.54-2.93-6.37-6.18-13.45-10.43-19.17a.2.2,0,0,0-.34.19c2.57,6.23,6.21,12,8.89,18.19a12.72,12.72,0,0,0-3.52.27c-.19.14,2.08,4.28,2.28,5,0,0-4.47.35-6.93,3.7C132.55,88.57,132.54,89.49,133.55,88.55Z"/><path class="cls-4" d="M100,88.64c4.89-.45,6.29-8.45,6.37-11.64s-4.39-15.06-3.81-20,5.18-8.21,9.22-8.51,10.57,2.69,13.16,1.42,1-7.32,2.9-8C131.9,40.31,137.5,48.78,140,53c0,0-5.3-20.59-27.12-14.58C92.93,43.9,91.77,59.55,92.29,66,93.3,78.29,100,88.64,100,88.64Z"/><path class="cls-7" d="M129.16,86.37a9,9,0,1,1,5.29-13.24h0a9,9,0,0,1-5.29,13.24ZM124.5,70.18a8,8,0,0,0-1.79.77,7.81,7.81,0,1,0,1.79-.77Z"/><path class="cls-7" d="M148.22,78.25c-3.32,1-7.31-1.58-9.13-5.92a10.76,10.76,0,0,1-.69-6.55,5.62,5.62,0,0,1,8.87-3.73,10.81,10.81,0,0,1,4.2,5.08c1.93,4.59.72,9.49-2.7,10.92C148.59,78.13,148.4,78.19,148.22,78.25Zm-5.53-15.88-.44.16a4.81,4.81,0,0,0-2.68,3.52,9.7,9.7,0,0,0,.63,5.82c1.67,4,5.29,6.25,8.11,5.07s3.72-5.37,2.05-9.34a9.6,9.6,0,0,0-3.71-4.52A5,5,0,0,0,142.69,62.37Z"/><path class="cls-7" d="M134.58,74.21l-1.08-.55c.82-1.59,3.14-4.24,6.08-2.92l-.49,1.1C136.45,70.66,134.65,74.07,134.58,74.21Z"/><path class="cls-7" d="M98.4,91.92l-1.2-.1c0-.56.51-5.52,2.82-7s17.66-6.2,18.32-6.41l.36,1.15c-4.44,1.39-16.37,5.24-18,6.29S98.51,90.56,98.4,91.92Z"/><path class="cls-11" d="M107.66,84.86s-9.26-8-13-4.45,4.89,16.33,10.55,16.94a5.43,5.43,0,0,0,6.34-4.62Z"/><path class="cls-9" d="M97.19,84c-.09,0-.07.13,0,.14,4,.55,6.76,3.43,9,6.58-1.42-1.07-3.08-1.43-4.55.31-.08.09,0,.22.15.17a3.34,3.34,0,0,1,3.85.22,16.55,16.55,0,0,1,2.43,2.45c.25.28.8,0,.58-.38a.35.35,0,0,1-.05-.08C107.51,88.78,102.27,83.22,97.19,84Z"/><path class="cls-4" d="M117.55,137.13s-16.55-26-36.2-28l2.13,14.65s11.67-.37,32.82,17.6Z"/><path class="cls-9" d="M78.22,124.26a24.9,24.9,0,0,1,10.54,1.06,46.25,46.25,0,0,1,9.77,4.16,79.77,79.77,0,0,1,9,5.76l4.2,3.29,4.06,3.49.45.39.49-.27A89.08,89.08,0,0,0,127,135.43a49.4,49.4,0,0,0,4.74-3.93,31.21,31.21,0,0,0,4.1-4.57,53.66,53.66,0,0,1-9.47,7.61c-1.68,1.13-3.42,2.18-5.17,3.2s-3.52,2-5.3,2.95l.94.12-4.06-3.61c-1.41-1.14-2.84-2.26-4.27-3.37s-3-2.09-4.52-3.06-3.11-1.89-4.76-2.67A42.94,42.94,0,0,0,89,124.35c-.88-.22-1.79-.35-2.69-.49s-1.81-.19-2.72-.21A16,16,0,0,0,78.22,124.26Z"/><path class="cls-9" d="M73.06,133.71a53.14,53.14,0,0,0,5.51-4.63,53.15,53.15,0,0,0,4.91-5.26,58.56,58.56,0,0,0-10.42,9.89Z"/><path class="cls-4" d="M110.06,132a107.75,107.75,0,0,0-.25,18.62c.28,4.32,3.29,19.67,8,18.7s-3.94-10.3-6-18.35-.41-14.23-.55-19.15Z"/><g class="cls-14"><path d="M110.06,132a107.75,107.75,0,0,0-.25,18.62c.28,4.32,3.29,19.67,8,18.7s-3.94-10.3-6-18.35-.41-14.23-.55-19.15Z"/></g><path class="cls-4" d="M126.28,132.72a98.86,98.86,0,0,1,5,16.13c.86,3.84,2.19,18-2.19,18.34s.77-10,.52-17.51-3.3-12.48-4.44-16.79Z"/><g class="cls-14"><path d="M126.28,132.72a98.86,98.86,0,0,1,5,16.13c.86,3.84,2.19,18-2.19,18.34s.77-10,.52-17.51-3.3-12.48-4.44-16.79Z"/></g><path class="cls-11" d="M108.07,244.31c12.9-2,34.05-31.06,47.46-64.3,2.55-6.33-46.56-31.9-48.51-24.87-6.23,22.57-18.44,52.08-18,70.29C89.28,239.6,99.15,245.68,108.07,244.31Z"/><path class="cls-15" d="M131,131.2c-3.13-3.83-3.6-14.55-6.41-20.87s-11-9.29-12.49-7,.7,4.66,1.37,15c.43,6.67-4.68,20-2.5,32.13C112.11,156.64,134.18,135,131,131.2Z"/><path class="cls-11" d="M131,131.2c-3.13-3.83-3.6-14.55-6.41-20.87s-11-9.29-12.49-7,.7,4.66,1.37,15c.43,6.67-4.68,20-2.5,32.13C112.11,156.64,134.18,135,131,131.2Z"/><path class="cls-16" d="M131,131.2c-3.13-3.83-3.6-14.55-6.41-20.87s-11-9.29-12.49-7,.7,4.66,1.37,15c.43,6.67-4.68,20-2.5,32.13C112.11,156.64,134.18,135,131,131.2Z"/><path class="cls-11" d="M155.46,98.59c4.38,4.09-6.62,14-6.62,14a11,11,0,0,1,7.47.86c4,2.22,2.24,9.43,2.24,9.43a13.64,13.64,0,0,1,7.74,2.17c3.6,2.5,2.88,10,2.88,10a12,12,0,0,1,5.61,6.19c2.56,7.24-5.45,15.94-9.34,22.3-4.17,6.81-9.4,15.27-12.39,19.46l-47-23.9s8-35.92,14.42-42.07C125.87,111.92,148.76,92.34,155.46,98.59Z"/><path class="cls-9" d="M148.63,112.6c-7,4.14-13.06,10-18.81,15.62-.13.13.07.33.19.2,5.66-5.71,13-10,18.85-15.51A.2.2,0,0,0,148.63,112.6Z"/><path class="cls-9" d="M158,122.66a21.49,21.49,0,0,0-4,3.83c-1.33,1.45-2.64,2.93-3.92,4.42q-3.87,4.5-7.49,9.17c-.11.14.08.34.2.2,2.57-3,5.18-5.92,7.87-8.79,1.35-1.43,2.7-2.86,4.07-4.27a25.57,25.57,0,0,0,3.69-4.17A.29.29,0,0,0,158,122.66Z"/><path class="cls-9" d="M169.06,135.24c-1.39.8-2.44,2.42-3.45,3.64Q163.9,141,162.16,143c-2.32,2.75-4.63,5.5-7,8.16-.12.14.08.33.2.2,2.47-2.7,5-5.36,7.41-8.08,1.19-1.33,2.39-2.68,3.57-4,1-1.15,2.39-2.47,2.91-3.93A.1.1,0,0,0,169.06,135.24Z"/><path class="cls-9" d="M150.21,97.37c-8,3.31-17.53,10.32-23.13,14.67a76.21,76.21,0,0,0-6,5.18,24.75,24.75,0,0,0-4.25,6.58c-.8,1.58-1.49,3.22-2.17,4.87,1.22-4.24,2.67-8.75,5.69-12.14a58.06,58.06,0,0,1,6-5.38c5.64-4.34,11.42-8.73,18-11.57Z"/></g></svg>