<svg id="Слой_1" data-name="Слой 1" xmlns="http://www.w3.org/2000/svg" xmlns:xlink="http://www.w3.org/1999/xlink" viewBox="0 0 160 160"><defs><style>.cls-1{fill:none;}.cls-2{fill:#4a148c;}.cls-3{clip-path:url(#clip-path);}.cls-4{fill:#ffc800;}.cls-5{fill:#fff;}.cls-6{fill:#c36358;}.cls-7{fill:#33245e;}.cls-8{fill:#dcdcdc;}.cls-10,.cls-9{opacity:0.1;}</style><clipPath id="clip-path"><rect class="cls-1" x="-4.56" y="-8.22" width="170" height="175"/></clipPath></defs><rect class="cls-2" x="-694.56" y="-28.22" width="1497" height="226"/><g class="cls-3"><path class="cls-4" d="M59.29,20.82a61.9,61.9,0,0,0-.3-7.71,62,62,0,0,0-1.13-7.64,62.06,62.06,0,0,0,.3,7.72A63.81,63.81,0,0,0,59.29,20.82Z"/><path class="cls-4" d="M63.83,21.71a61,61,0,0,0,3.6-6.83,62.09,62.09,0,0,0,2.84-7.19,60.29,60.29,0,0,0-3.6,6.84A61.94,61.94,0,0,0,63.83,21.71Z"/><path class="cls-4" d="M67.32,24.74a61.83,61.83,0,0,0,6.53-4.11,62,62,0,0,0,6.05-4.81,61.91,61.91,0,0,0-6.53,4.12A64.66,64.66,0,0,0,67.32,24.74Z"/><path class="cls-4" d="M68.82,29.12a64,64,0,0,0,7.72-.3,62,62,0,0,0,7.64-1.14,62.06,62.06,0,0,0-7.72.3A62,62,0,0,0,68.82,29.12Z"/><path class="cls-4" d="M52.51,34.73A61.45,61.45,0,0,0,46,38.85a60.26,60.26,0,0,0-6,4.8,61.91,61.91,0,0,0,6.53-4.12A64.66,64.66,0,0,0,52.51,34.73Z"/><path class="cls-4" d="M51,30.36a63.88,63.88,0,0,0-7.71.29,64,64,0,0,0-7.64,1.14,62.13,62.13,0,0,0,7.72-.3A64.12,64.12,0,0,0,51,30.36Z"/><path class="cls-4" d="M51.89,25.82a61.15,61.15,0,0,0-6.84-3.6,61.94,61.94,0,0,0-7.18-2.84A61,61,0,0,0,44.7,23,62.81,62.81,0,0,0,51.89,25.82Z"/><path class="cls-4" d="M54.92,22.33A61.91,61.91,0,0,0,50.8,15.8,60.38,60.38,0,0,0,46,9.75a61.91,61.91,0,0,0,4.12,6.53A63.06,63.06,0,0,0,54.92,22.33Z"/><path class="cls-4" d="M14.24,125.72S6,96.13-.51,86.08-19.27,65-19.27,65-19,110.61,14.24,125.72Z"/><path class="cls-5" d="M13.65,125.21a142.06,142.06,0,0,1-7.47-14.33A100.32,100.32,0,0,0,2.1,95.32c0-.1-.16,0-.14.05,1.09,4.67,2.35,9.31,3.5,14C2.15,102.14-1,94.84-4.94,88a45,45,0,0,0-3.8-9.47c0-.09-.19,0-.14.05a59.57,59.57,0,0,1,2.55,7.1,69.6,69.6,0,0,0-6.23-8.65c-.14-.17-.43,0-.28.2C-7.57,84-3.93,91.73-.47,99.52A119.57,119.57,0,0,1-10.76,86.59s-.1,0-.07,0A106,106,0,0,0,.19,101c2.52,5.71,5,11.44,8,16.87-6-5.11-10.63-11.72-15.21-18.1-.11-.15-.33,0-.23.15,4.58,7,9.32,13.59,15.91,18.78a74.65,74.65,0,0,0,4.4,6.91A.35.35,0,0,0,13.65,125.21Z"/><path class="cls-4" d="M16.78,128.38S2,101.1,6.32,74.65s8.87-35.87,8.87-35.87S38.36,79.92,16.78,128.38Z"/><path class="cls-5" d="M22.83,85.49a129.09,129.09,0,0,1-5.69,22c0-9.71-.22-19.41-.48-29.12a75.17,75.17,0,0,0,2.78-18.08c0-.18-.26-.17-.27,0a103,103,0,0,1-2.59,15.55q-.33-12-.77-24a.11.11,0,0,0-.21,0c0,12.5,0,25,.08,37.53a101.62,101.62,0,0,1-4.25-14.87s-.09,0-.08,0A58.36,58.36,0,0,0,15.7,91.46c.06,8,.14,16,.32,24-2.49-8.5-5.16-16.74-5.88-25.72a.1.1,0,0,0-.19,0c.2,9.91,2.74,20,6,29.28a.63.63,0,0,0,.16.24c.08,2.92.16,5.84.26,8.76a.33.33,0,0,0,.65,0q.16-9,.14-17.94A80.74,80.74,0,0,0,23,85.51C23,85.43,22.84,85.42,22.83,85.49Z"/><path class="cls-4" d="M21.82,81.27a53.27,53.27,0,0,0-1,7.21.07.07,0,0,0,.14,0,51.41,51.41,0,0,0,1.22-7.19C22.17,81.13,21.86,81.09,21.82,81.27Z"/><path class="cls-4" d="M13.2,61.33c0-.08-.14-.06-.14,0a18.57,18.57,0,0,0,.74,5,.1.1,0,0,0,.2-.06C13.68,64.62,13.48,63,13.2,61.33Z"/><path class="cls-4" d="M22.16,130.47s-.6-28.48,7.52-42.63S51.29,66.47,51.29,66.47,45.86,116.67,22.16,130.47Z"/><path class="cls-5" d="M37,106.12a105.86,105.86,0,0,1-11,14c1.62-5.82,3.51-11.54,5.63-17.18,4.55-4,9.07-8.17,11.87-13.67a.08.08,0,0,0-.14-.08c-3,4.87-7,8.76-11.25,12.51A222.43,222.43,0,0,1,43.39,76.94a.18.18,0,0,0-.31-.18,136.18,136.18,0,0,0-7.09,13c.76-3,1.37-6.16,2.15-9.18,0-.08-.1-.11-.13,0a52.47,52.47,0,0,0-3.34,12.08,147.17,147.17,0,0,0-7.15,19.49c.21-4.27.47-8.52.91-12.77,0-.08-.12-.1-.14,0a69.65,69.65,0,0,0-1.23,14.34q-1.75,6.38-2.95,12.87c0,.11.15.16.18,0,.44-1.82.92-3.62,1.41-5.41a.18.18,0,0,0,.09,0,57.72,57.72,0,0,0,11.22-15S37,106.09,37,106.12Z"/><path class="cls-4" d="M46.39,82.94c-.91,1-1.74,2-2.61,3a22.54,22.54,0,0,0-2.34,2.75,0,0,0,0,0,.06.06,13.71,13.71,0,0,0,2.7-2.68A23,23,0,0,0,46.52,83C46.56,83,46.45,82.87,46.39,82.94Z"/><path class="cls-4" d="M-2,127l1,9.14,3.08,27.6H29.05l3.09-27.6,1-9.14H-2Z"/><path class="cls-5" d="M-2,127l1,9.14h33.1l1-9.14H-2Z"/><rect class="cls-4" x="-4.38" y="120.38" width="39.93" height="10.34"/><path class="cls-6" d="M248,106.21c-10,12.58-49.4,57.24-71.28,61.39-14.74,2.79-62.07-21.27-72.45-30C100,134,123.73,98.72,129.49,100.14c6.26,1.55,40.33,24.19,44.75,23.93s39.32-19.87,60.5-28.58C247.42,90.27,253.66,99.13,248,106.21Z"/><path class="cls-6" d="M117.28,146c-9.11-3.51-36.72-22.87-41.3-27.9S59.24,97.67,62.74,93.76s7.41.33,7.41.33-4.6-8-.23-10.93c3.49-2.38,9.32,3.29,9.32,3.29s-4.58-9,.14-11.38c4.3-2.19,9,5.5,9,5.5s-3.08-7.9,1.47-9.21c5.47-1.57,10.8,12.1,16.27,17.27,1.25,1.17,38,19.2,38,19.2Z"/><path class="cls-7" d="M88.62,80.17c5,9.83,7.4,13.76,16,20,.17.12,0,.4-.16.28-9-5.39-12.09-9.85-16.3-20.17C87.92,79.83,88.38,79.71,88.62,80.17Z"/><path class="cls-7" d="M79.35,86.44c5,10.08,8.83,13.89,17.31,21.14.12.1,0,.31-.17.22C87.57,101.38,82.66,97.25,79,86.52,78.82,86,79.12,86,79.35,86.44Z"/><path class="cls-7" d="M70.57,94.45c5.55,9.41,9.43,14,18.57,20a.2.2,0,0,1-.2.35c-9.91-5.2-14.8-10.94-18.64-20.17C70,94,70.22,93.86,70.57,94.45Z"/><path class="cls-5" d="M33.9,122.23c24.16,7.06,47.94,14.11,71.11,21.17,13.86-31.14,15.91-62.29,25.4-93.43-24.19-7-48-14.11-71.21-21.17C45.39,60,43.37,91.09,33.9,122.23Z"/><path class="cls-7" d="M44.71,75.54C48.1,59.93,52,44.33,58.93,28.72c0-.1.09-.19.13-.29l.27.09c23.21,7,47,14,71.2,21.05l.4.12-.12.4c-9.52,31.13-11.63,62.25-25.56,93.38,0,.08-.07.17-.11.25l-.24-.07Q87.52,138.3,69.7,133T33.9,122.23C38.56,106.67,41.36,91.11,44.71,75.54ZM70,132.68q17.77,5.23,35.17,10.47l-.35.17C118.56,112.17,120.55,81,130,49.86l.27.52c-24.19-7.1-48-14.2-71.2-21.29l.4-.21C52.56,44.42,48.58,60,45.14,75.49s-6.43,31.16-11.24,46.74Q52.08,127.45,70,132.68Z"/><path class="cls-8" d="M119,63.58Q98.49,57.7,78.27,51.82c-.24.8-.47,1.6-.7,2.4Q97.85,60.1,118.39,66C118.58,65.18,118.78,64.38,119,63.58Z"/><path class="cls-8" d="M117.52,69.64q-20.58-5.88-41-11.77l-.63,2.4Q96.35,66.15,117,72Z"/><path class="cls-8" d="M116.16,75.69Q95.51,69.81,75,63.93c-.19.8-.39,1.6-.58,2.4Q95,72.21,115.64,78.09C115.81,77.29,116,76.49,116.16,75.69Z"/><path class="cls-8" d="M114.85,81.75q-30.31-8.62-60.4-17.24c-.2.8-.39,1.6-.58,2.4,20.06,5.74,40.26,11.49,60.47,17.24Z"/><path class="cls-8" d="M113.56,87.8Q83.24,79.19,53,70.56L52.47,73q30.21,8.63,60.58,17.24Z"/><path class="cls-8" d="M112.26,93.86c-20.18-5.75-40.43-11.49-60.6-17.24-.18.8-.35,1.6-.52,2.4q30.28,8.63,60.6,17.24C111.92,95.46,112.09,94.66,112.26,93.86Z"/><path class="cls-8" d="M110.93,99.91,50.35,82.67l-.51,2.4q30.32,8.63,60.54,17.24C110.56,101.51,110.75,100.71,110.93,99.91Z"/><path class="cls-8" d="M109.52,106c-20-5.75-40.25-11.49-60.46-17.24l-.51,2.4q30.32,8.63,60.38,17.24C109.13,107.57,109.33,106.77,109.52,106Z"/><path class="cls-8" d="M108,112Q78.1,103.41,47.76,94.79c-.17.79-.35,1.59-.52,2.39,20.16,5.75,40.25,11.5,60.13,17.24C107.59,113.62,107.8,112.82,108,112Z"/><path class="cls-8" d="M106.36,118.08q-29.7-8.62-59.94-17.24c-.18.8-.37,1.6-.56,2.4q30.15,8.63,59.8,17.24C105.9,119.68,106.13,118.88,106.36,118.08Z"/><path class="cls-8" d="M104.55,124.14Q75.11,115.52,45,106.9c-.19.8-.39,1.59-.59,2.39q30,8.63,59.37,17.24C104,125.73,104.29,124.93,104.55,124.14Z"/><path class="cls-8" d="M102.53,130.19Q73.4,121.57,43.46,113c-.21.8-.42,1.6-.64,2.4q29.79,8.63,58.86,17.24C102,131.79,102.25,131,102.53,130.19Z"/><path class="cls-6" d="M144.16,107.83s-8.94-9.16-13-13.71-13.63-19-18.85-18.66c-5.85.39-1.63,15.61,5.5,23.79,0,0-9.47,15.1-3,23.28,1.4,1.78,11.6,7.38,14.14,6.86Z"/><path class="cls-7" d="M118.26,100.34c-3.89,5.75-6.6,14.49-3.81,20.82a.16.16,0,0,1-.28.15c-3.91-6.38-.87-16.53,2.92-21.45C117.82,98.91,119.27,98.86,118.26,100.34Z"/><path class="cls-4" d="M144.16,107.83,117.28,146a11.88,11.88,0,0,0,7.38,11.39c8,3.51,41.19,15.47,54.32,11s50.62-36.72,66.79-58.2S238,93,233.49,95.08s-58,27.24-59.9,27.19-14.33-9.47-20.18-12.4S144.16,107.83,144.16,107.83Z"/><path class="cls-9" d="M159.83,168.15c7.57,1.39,14.58,1.84,19.15.29,13.14-4.44,50.62-36.73,66.79-58.21,1-1.35,1.88-2.61,2.6-3.76Z"/><g class="cls-10"><path d="M136.37,161.81l3,1a22.5,22.5,0,0,0,.23-3.36c0-2.13-.17-4.19-.14-6.23a29.67,29.67,0,0,1,.59-6,21,21,0,0,1,2-5.59c.23-.44.49-.87.74-1.26s.52-.78.8-1.17c.59-.76,1.22-1.55,1.86-2.33l3.88-4.7c1.31-1.58,2.6-3.17,3.88-4.8s2.52-3.3,3.68-5.06a36.8,36.8,0,0,0,3.09-5.69,20.78,20.78,0,0,0,.76-2.22c-1.09-.72-2.16-1.41-3.17-2a23.68,23.68,0,0,1-1.15,2.66,51,51,0,0,1-3.07,4.93c-2.26,3.28-4.63,6.59-7,9.93-1.19,1.68-2.41,3.33-3.52,5.11-.55.88-1.11,1.78-1.61,2.74-.24.49-.48,1-.7,1.51s-.38,1-.53,1.55c-1.25,4.14-1.43,8.31-1.91,12.39A50.15,50.15,0,0,1,136.37,161.81Z"/><path d="M147,165.1c.81.24,1.63.46,2.46.68a39.4,39.4,0,0,0,1.15-10.31l0-5.25c0-.86,0-1.72.07-2.57a15.9,15.9,0,0,1,.24-2.46,2.52,2.52,0,0,1,.14-.54l.21-.57.26-.56c.09-.18.2-.36.29-.54a10.79,10.79,0,0,1,1.51-2,18.61,18.61,0,0,1,4.09-3.14c.74-.46,1.52-.85,2.3-1.26l2.37-1.2a14.77,14.77,0,0,0,4.5-3.25,7.68,7.68,0,0,0,.87-1.22c.13-.22.24-.45.35-.68l.26-.67a16.76,16.76,0,0,0,.68-2.73,27.54,27.54,0,0,0,.32-5.42q0-.8-.09-1.59l-1.71-1.11c0,.9,0,1.79-.08,2.68a34.54,34.54,0,0,1-.57,5,19,19,0,0,1-.65,2.36l-.22.56c-.09.16-.15.32-.24.49a7.51,7.51,0,0,1-.6.95,17.9,17.9,0,0,1-3.56,3.42c-1.38,1.05-2.87,2-4.34,3a35,35,0,0,0-4.33,3.11,14.34,14.34,0,0,0-1.91,2,11.76,11.76,0,0,0-.8,1.15l-.35.62a4.7,4.7,0,0,0-.29.7,14.56,14.56,0,0,0-.62,2.72c-.14.9-.21,1.79-.29,2.67-.14,1.77-.23,3.52-.35,5.25s-.24,3.47-.41,5.17A34.73,34.73,0,0,1,147,165.1Z"/></g></g></svg>