<svg id="Слой_1" data-name="Слой 1" xmlns="http://www.w3.org/2000/svg" xmlns:xlink="http://www.w3.org/1999/xlink" viewBox="0 0 160 160"><defs><style>.cls-1{fill:none;}.cls-2{fill:#4a148c;}.cls-3{clip-path:url(#clip-path);}.cls-4{fill:#ffc800;}.cls-5{fill:#472681;}.cls-14,.cls-6{fill:#fff;}.cls-7{fill:#33245e;}.cls-8{fill:#dcdcdc;}.cls-9{fill:#c8c8c8;}.cls-10,.cls-12{opacity:0.1;}.cls-11{fill:#c36358;}.cls-13{clip-path:url(#clip-path-2);}.cls-14{opacity:0.6;}.cls-15{fill:#ececec;}.cls-16{fill:#1a2e35;}</style><clipPath id="clip-path"><rect class="cls-1" x="-200.56" y="-8.22" width="170" height="175"/></clipPath><clipPath id="clip-path-2"><rect class="cls-1" x="-20.56" y="-14.22" width="194" height="183"/></clipPath></defs><rect class="cls-2" x="-890.56" y="-28.22" width="1497" height="226"/><g class="cls-3"><circle class="cls-4" cx="100.36" cy="-26.76" r="36.34" transform="translate(34.24 53.34) rotate(-35.53)"/><circle class="cls-5" cx="98.69" cy="-25.96" r="34.67" transform="translate(35.32 54.03) rotate(-36.87)"/><circle class="cls-6" cx="98.69" cy="-25.96" r="32.48" transform="translate(62.6 69.5) rotate(-54.55)"/><path class="cls-4" d="M66.23-24.82a32.4,32.4,0,0,0,2.15,10.55L108.89,4.89A31.81,31.81,0,0,0,114,2.7C101.77-4.38,79.41-17.24,66.23-24.82Z"/><rect class="cls-5" x="112.21" y="-4.46" width="0.63" height="4.92" transform="translate(16.05 55.95) rotate(-29.98)"/><rect class="cls-5" x="98.38" y="-0.75" width="0.63" height="4.92"/><rect class="cls-5" x="82.4" y="-2.31" width="4.92" height="0.63" transform="translate(44.16 72.49) rotate(-60)"/><path class="cls-5" d="M50.52,212.32C51.45,213.5,130,217,133.76,216a2.26,2.26,0,0,0,.52-.22c4.62-2.16,24.48-17.16,27.65-23.48,2.54-5.09-12.44-32.69-17.67-37.42-3.48-3.15-9.92-4.38-9.92-4.38S116.14,97.94,104.92,87c-2.81-2.76-51.54-3.84-60.24.13-3.73,1.7-12.79,11-13,12.62v0C31.41,102.14,49.58,211.11,50.52,212.32Z"/><path class="cls-7" d="M50,212.32c.93,1.18,79.49,4.71,83.24,3.63a2.26,2.26,0,0,0,.52-.22C126.19,195.38,90.8,99.87,89.79,99.25s-47.56-.33-58.71.47C30.85,102.14,49,211.11,50,212.32Z"/><path class="cls-5" d="M78.81,90.82c.79-.74,1.3-11.42-.14-13.54-1.62-2.38-20.3-1.2-21.4.83S55.64,90.8,56.2,91.19s3.68.75,4.1.07.39-9.51.72-10S74.44,80,74.89,80.64s-.65,9.6-.13,10S78,91.54,78.81,90.82Z"/><rect class="cls-8" x="118.65" y="137.61" width="6.37" height="7.33" transform="translate(292.12 217.48) rotate(154.89)"/><rect class="cls-9" x="118.97" y="142.05" width="10.39" height="8.37" transform="translate(298.65 225.94) rotate(154.89)"/><path class="cls-4" d="M119.15,164.63,135.4,199.3l22.36-10.48s-13-27.81-16.25-34.67-10-10.13-16.87-6.92S115.94,157.77,119.15,164.63Z"/><path class="cls-10" d="M119.15,164.63,135.4,199.3l22.36-10.48s-13-27.81-16.25-34.67-10-10.13-16.87-6.92S115.94,157.77,119.15,164.63Z"/><path class="cls-6" d="M127.06,149.26a1,1,0,0,0,1.27.46,1,1,0,1,0-1.27-.46Z"/><path class="cls-6" d="M129.93,158.53a1,1,0,1,0,.46-1.28A1,1,0,0,0,129.93,158.53Z"/><path class="cls-6" d="M139.22,155.49a1,1,0,1,0,.46-1.28A1,1,0,0,0,139.22,155.49Z"/><path class="cls-6" d="M133.09,152.25a1,1,0,1,0,.46-1.28A1,1,0,0,0,133.09,152.25Z"/><path class="cls-6" d="M136.27,161.29a1,1,0,0,0,1.27.46,1,1,0,1,0-1.27-.46Z"/><path class="cls-6" d="M123.34,155.89a1,1,0,1,0,.46-1.28A1,1,0,0,0,123.34,155.89Z"/><path class="cls-5" d="M160.37,189.31c-1.89,9.26-22.45,19.23-23.85,19.19s-15.06-33.83-15.06-33.83,16.64-5.47,24.15-15.18C145.61,159.49,161,186.42,160.37,189.31Z"/><path class="cls-11" d="M52,106.21C42,118.79,2.6,163.45-19.28,167.6c-14.74,2.79-62.07-21.27-72.45-30C-96,134-72.27,98.72-66.51,100.14c6.26,1.55,40.33,24.19,44.75,23.93s39.32-19.87,60.5-28.58C51.42,90.27,57.66,99.13,52,106.21Z"/><path class="cls-4" d="M-51.84,107.83-78.72,146a11.88,11.88,0,0,0,7.38,11.39c8,3.51,41.19,15.47,54.32,11s50.62-36.72,66.79-58.2S42,93,37.49,95.08s-58,27.24-59.9,27.19-14.33-9.47-20.18-12.4S-51.84,107.83-51.84,107.83Z"/><path class="cls-10" d="M-36.17,168.15c7.57,1.39,14.58,1.84,19.15.29C-3.88,164,33.6,131.71,49.77,110.23c1-1.35,1.88-2.61,2.6-3.76Z"/><path class="cls-4" d="M125,226.18c-.08.1-114.93-5.26-115.67-6-.35-.33-1.84-6.87-.08-15.94,5.28-27.23,21.09-82.83,35-106.37C47.77,92,63.47,83.36,74.86,94.48,98,117,116.1,174.44,123.25,206,126.74,221.35,125.48,225.52,125,226.18Z"/><path class="cls-4" d="M86.92,97.19c37.49,15.9,66.6,29.74,62.38,44.14-1.66,5.66-11.45,20.92-24,20.9-9.88,0-27.5-15.86-47.56-43.58C67.35,104.32,63.25,87.16,86.92,97.19Z"/><path class="cls-7" d="M80.27,126.27c1.61,1.33,3.2,2.68,4.75,4.06l-1-1.16c-2.68-3.18-5.33-6.39-8-9.59-.06-.07,0-.15.11-.09,5,5.37,10.14,10.69,15.21,16S109.79,154.44,113,157.1c.07.05,0,.17-.09.11-2.93-2.29-11.15-9.17-13.77-11.74q-5.94-5.82-11.43-12a96,96,0,0,1-7.64-7C80,126.35,80.17,126.18,80.27,126.27Z"/><path class="cls-11" d="M135.89,153.53c16.4-6.73,27-56.45,31-89.92.76-6.37-49.6-12.51-49.63-5.65C117.08,97.11,117.93,160.89,135.89,153.53Z"/><path class="cls-11" d="M173.26,37.52C173,48.2,163.81,74.93,159.6,79.3s-36.16-10.91-37.94-16.87-3.28-40.91,3.76-49.22S173.57,26.46,173.26,37.52Z"/><path class="cls-11" d="M117.15,28.18c2.79,4.92,7-1.19,7-1.19s-3.94,10.25.91,14.21c4.67,3.81,9.49-3.75,9.84-4.28-.2.54-3.57,10,1.71,13.53,5.48,3.62,9-4.8,9.24-5.35,0,.58-.31,8.17,4.3,9.91,7.92,3,9.17-16.43,14.5-20.74,0,0,8.32,3.87,8.61,4.06,0,0,1.56-14.11-4.64-21a5.9,5.9,0,0,0-7.29-1.28s1.16-5.89-2.91-8.76c-2.09-1.47-6.3.57-6.3.57s.73-4.76-3.05-7.09c-3-1.86-6.76.47-6.76.47s-1.41-4.89-5.11-5.8C129.76-6.38,111.18,17.63,117.15,28.18Z"/><path class="cls-7" d="M141.66,1.55a.08.08,0,0,0-.1-.12c-8,6.41-14.91,15.91-17.68,25.87-.09.32.4.61.57.27C129.27,17.85,134.32,9.61,141.66,1.55Z"/><path class="cls-7" d="M152.16,7.73c.08-.09-.06-.22-.16-.14-8.24,6.64-15.69,17.56-17.52,29.41-.07.41.28.84.39.38C136.69,29.58,145.52,15,152.16,7.73Z"/><path class="cls-7" d="M146,46c2.2-11.31,7.81-20.76,15-29.65.09-.12-.08-.24-.19-.16-4.68,3.39-8.65,9.53-11.33,14.57a30.44,30.44,0,0,0-3.84,15.16C145.62,46.11,146,46.22,146,46Z"/><path class="cls-7" d="M124.15,27A34.2,34.2,0,0,0,123,33.21a11.47,11.47,0,0,0,.8,6,3.78,3.78,0,0,0,2,1.87,5.58,5.58,0,0,0,2.79.33A6.75,6.75,0,0,0,133,38.12l2.45-3.94-.93,4.55a19.22,19.22,0,0,0-.28,6.14,6.79,6.79,0,0,0,2.57,4.92,3.89,3.89,0,0,0,4.89-.11A11.72,11.72,0,0,0,145,44.8l2-5.11-.22,5.47a17.73,17.73,0,0,0,.39,4.53,7.4,7.4,0,0,0,1.91,3.79,3.49,3.49,0,0,0,3.6.78,7.73,7.73,0,0,0,3.09-3,59.6,59.6,0,0,0,4.14-8.58c.64-1.48,1.28-3,2-4.42a11.55,11.55,0,0,1,2.76-4,12.25,12.25,0,0,0-2.35,4.14c-.59,1.49-1.11,3-1.64,4.53a51.61,51.61,0,0,1-3.77,9,9.06,9.06,0,0,1-3.59,3.74,5,5,0,0,1-5.36-.94,9,9,0,0,1-2.5-4.63,19.83,19.83,0,0,1-.51-5.05l1.79.35a13.42,13.42,0,0,1-3.83,5.8,5.6,5.6,0,0,1-3.57,1.32,6.38,6.38,0,0,1-3.56-1.19,8.56,8.56,0,0,1-3.26-6.23,20.66,20.66,0,0,1,.41-6.75l1.52.61a8.08,8.08,0,0,1-5.68,3.77,6.72,6.72,0,0,1-3.43-.59,4.89,4.89,0,0,1-2.44-2.49,12,12,0,0,1-.44-6.5A28.27,28.27,0,0,1,124.15,27Z"/><path class="cls-11" d="M120.66,64.72s-26-47.54-1.72-48.17c5.86-.16,29.28,9.34,27.59,14.08-2.18,6.12-12.66,4.24-19,2,0,0,7.69,13.54-.14,21.7A31.08,31.08,0,0,0,120.66,64.72Z"/><path class="cls-7" d="M117.3,16.52a23.76,23.76,0,0,1,6.86.74,52.89,52.89,0,0,1,6.64,2,79.89,79.89,0,0,1,12.61,5.84,13,13,0,0,1,2.9,2.27,5,5,0,0,1,1.08,1.81,3.5,3.5,0,0,1,.19,1.15,3.66,3.66,0,0,1-.22,1.13,5.87,5.87,0,0,1-2.65,3.05,10.91,10.91,0,0,1-3.6,1.16,20.84,20.84,0,0,1-7.15-.36,48.09,48.09,0,0,1-6.74-1.91l.95-1.17a28.47,28.47,0,0,1,2,4.93,26,26,0,0,1,1,5.17,17.85,17.85,0,0,1-.32,5.26,13.8,13.8,0,0,1-2,4.79,15.31,15.31,0,0,0,1.46-4.89,18.49,18.49,0,0,0-.14-5,25,25,0,0,0-1.26-4.88,26.78,26.78,0,0,0-2.14-4.52l-1.06-1.76,2,.59a50.59,50.59,0,0,0,6.55,1.64,20.59,20.59,0,0,0,6.53.26c2.05-.31,4.15-1.27,4.73-2.95.63-1.42-1.31-3-3.12-4.2a67.49,67.49,0,0,0-5.91-3.3c-2-1-4.08-2.05-6.17-2.95C126.16,18.67,121.88,16.88,117.3,16.52Z"/><path class="cls-4" d="M115.27,67.63l52.37,11.45s3.45,9.93.41,20.23c-5.78,19.56-23,61.54-36.94,60.57-15.06-1-18.72-53.54-18.47-79.23C112.73,72,115.27,67.63,115.27,67.63Z"/><g class="cls-12"><path d="M112.67,88.05c0,1.1,0,2.24.08,3.39,1.26.63,2.56,1.23,3.89,1.74,1,.39,2,.75,3,1,.52.15,1,.3,1.57.42a14.35,14.35,0,0,0,1.66.29,18.46,18.46,0,0,0,6.54-.54c2.06-.47,4-1.13,6-1.59a30.07,30.07,0,0,1,6-.82,21.27,21.27,0,0,1,5.92.66c.47.12,1,.27,1.39.42a13.69,13.69,0,0,1,1.32.51c.88.4,1.79.82,2.7,1.27l5.48,2.68c1.83.9,3.69,1.8,5.57,2.66,1.13.53,2.3,1,3.47,1.51.26-.83.51-1.62.74-2.39.17-.58.32-1.16.44-1.74-2.87-1.13-5.77-2.31-8.68-3.49-1.91-.76-3.81-1.56-5.79-2.23-1-.33-2-.67-3-.92-.53-.13-1.06-.25-1.64-.34s-1.08-.12-1.62-.15c-4.32-.25-8.42.54-12.5,1a42.52,42.52,0,0,1-11.83,0c-.88-.15-1.81-.37-2.76-.63s-1.87-.54-2.81-.86C116.1,89.37,114.39,88.73,112.67,88.05Z"/><path d="M113,97.24c0,.61.05,1.21.08,1.83.69.58,1.39,1.14,2.12,1.69a35.4,35.4,0,0,0,4.52,2.94,19.75,19.75,0,0,0,2.57,1.12,11.38,11.38,0,0,0,2.86.59,37.88,37.88,0,0,0,10.74-1.27L141,103q1.26-.28,2.52-.54a16.56,16.56,0,0,1,2.44-.33,5.23,5.23,0,0,1,.56,0l.6.08.61.12c.19,0,.39.11.6.16a10.83,10.83,0,0,1,2.3,1,19,19,0,0,1,4,3.24c.61.62,1.17,1.29,1.76,1.94l1.71,2a14.59,14.59,0,0,0,4.21,3.62,3.18,3.18,0,0,0,.53.24c.26-.68.51-1.35.77-2-.13-.05-.27-.1-.39-.16a18.23,18.23,0,0,1-4.15-2.67c-1.35-1.1-2.62-2.32-3.9-3.53a34.66,34.66,0,0,0-4-3.49,15.44,15.44,0,0,0-2.36-1.4c-.43-.19-.87-.35-1.31-.5l-.68-.2a6.86,6.86,0,0,0-.75-.12,15.33,15.33,0,0,0-2.8,0c-.9.08-1.78.2-2.66.34-1.75.28-3.47.6-5.19.89s-3.42.57-5.12.8a33,33,0,0,1-5,.38,9.33,9.33,0,0,1-2.3-.34,16.39,16.39,0,0,1-2.3-.84,37,37,0,0,1-4.51-2.41C115.07,98.64,114,98,113,97.24Z"/></g><path class="cls-7" d="M115.94,81.73a479.48,479.48,0,0,0,48.24,11.2.08.08,0,0,0,0-.15c-18-5.52-46.48-11.23-48.23-11.37C115.8,81.39,115.77,81.68,115.94,81.73Z"/><path class="cls-7" d="M113.39,112.86c.61,4.91,2,12.69,3.14,17.5.07.31.15.61.22.91a27.84,27.84,0,0,0-.48,5.24c0,2.05.18,4.08.38,6.11,0,.09.15.08.14,0a41.13,41.13,0,0,1,0-6.08c.1-1.2.19-2.41.3-3.62,1.1,4.59,2.26,9.18,3.69,13.68a.07.07,0,0,0,.13,0c-1.08-4.89-2.24-9.77-3.14-14.7s-2.95-16.47-3.82-21.36C113.32,106.62,113.2,111.32,113.39,112.86Z"/><path class="cls-11" d="M65.66,92.42c-.61,1.79-10.54,12.85-18.89,11.64-2.72-.4-1.2-15.34-1.2-15.34l-.14-1.12-2-15.8L65.55,60.62S65.9,91.66,65.66,92.42Z"/><path class="cls-7" d="M43.48,71.8l2,15.79.14,1.14s-.27,2.7-.38,5.84C56.79,94,62.87,85.9,65.73,80.2c0-9-.18-19.57-.18-19.57Z"/><path class="cls-11" d="M18.86,44.86C10.8,78,29.74,86.57,36.89,88.3c6.49,1.57,28.79,6.09,40.22-26S75.69,15.9,61,11.53,26.92,11.72,18.86,44.86Z"/><path class="cls-7" d="M28.38,45.82a20.53,20.53,0,0,0,2.35-.1,3.75,3.75,0,0,0,2.39-.55,1.21,1.21,0,0,0,.24-1.46,3,3,0,0,0-2.8-1.19,4.38,4.38,0,0,0-3,1.08A1.29,1.29,0,0,0,28.38,45.82Z"/><path class="cls-7" d="M52,50.87A23.2,23.2,0,0,1,49.77,50a3.82,3.82,0,0,1-2.07-1.31A1.22,1.22,0,0,1,48,47.23a3,3,0,0,1,3-.2,4.5,4.5,0,0,1,2.48,2A1.3,1.3,0,0,1,52,50.87Z"/><path class="cls-7" d="M42,73.75c-.61.48-1.24,1.17-2.09,1.15a6.26,6.26,0,0,1-2.42-.85.08.08,0,0,0-.11.11,3.12,3.12,0,0,0,2.79,1.57,2.48,2.48,0,0,0,2-1.85C42.24,73.75,42.07,73.68,42,73.75Z"/><path class="cls-6" d="M33.62,68.24a9.54,9.54,0,0,0,2.85,3.89,4.3,4.3,0,0,0,2.45.87c1.95,0,2.47-1.6,2.54-3.12a10.17,10.17,0,0,0-.18-2.4A12.36,12.36,0,0,1,33.62,68.24Z"/><path class="cls-8" d="M34.78,70.39c.09.12.19.27.3.4a8.09,8.09,0,0,0,1.84,0Z"/><path class="cls-8" d="M38.87,70.63a6.7,6.7,0,0,0,1.41-.16,6.2,6.2,0,0,0,1.16-.42.88.88,0,0,0,0-.16c0-.09,0-.17,0-.26A21.86,21.86,0,0,1,38.87,70.63Z"/><path class="cls-7" d="M33.78,63.88s-1,3.34-1.31,5c0,.15.35.28.89.41,0,0,0,0,.07,0a7.76,7.76,0,0,0,7.92-1.63.17.17,0,0,0-.2-.26,11.69,11.69,0,0,1-7.34.84c0-.46,2-5.73,1.72-5.73-1.1,0-3.07.17-3.8.23.63-2.19,2.71-8.31,3.85-12.3.07-.25-.31-.39-.4-.17a109.45,109.45,0,0,0-5.33,13.57C29.73,64.18,33.09,64.05,33.78,63.88Z"/><path class="cls-7" d="M50.11,57.07a3.18,3.18,0,0,0-.49-1.66,2.38,2.38,0,0,0-1.6-1,2.11,2.11,0,0,0-1.78.64,3.7,3.7,0,0,0-.83,1.49,7.26,7.26,0,0,0-.21,1,4.69,4.69,0,0,0,.19,2.11,6.92,6.92,0,0,1,.28-1.52,8.21,8.21,0,0,1,.49-1.31c.4-.86,1-1.54,1.74-1.4s1.24.77,1.41,1.72a14.94,14.94,0,0,1,.19,3A6.74,6.74,0,0,0,50.11,57.07Z"/><path class="cls-7" d="M27.2,52.64a3.14,3.14,0,0,1,1.08-1.35A2.35,2.35,0,0,1,30.13,51a2.13,2.13,0,0,1,1.41,1.27,3.71,3.71,0,0,1,.2,1.69,5.63,5.63,0,0,1-.19,1,4.65,4.65,0,0,1-1,1.89,7.37,7.37,0,0,0,.31-1.51,9.43,9.43,0,0,0,0-1.4c-.05-1-.37-1.82-1.08-2s-1.44.24-2,1.05a15,15,0,0,0-1.29,2.67A6.56,6.56,0,0,1,27.2,52.64Z"/><path class="cls-7" d="M80.39,65.24C70.25,65.36,65.69,53,68.63,43.46c0,0-27.06,2-27.08-19.66a21.17,21.17,0,0,1-18,8.64l-3.47,7.77c-2.71-1-5.18-9,1.92-14.7,0,0,1.1-10.72,9.4-16.7A14.7,14.7,0,0,1,47.3,7.54a22.25,22.25,0,0,1,16.43-3c9.82,1.85,13.36,11.11,13.36,11.11s13.15,3.33,14.85,12.91a19.61,19.61,0,0,1-3.55,15.63s3.12,3.91,1,11.87C87.94,61.14,83.43,65.21,80.39,65.24Z"/><path class="cls-7" d="M42.26,21.92a25.88,25.88,0,0,0-.37,5.26,21.64,21.64,0,0,0,.67,5.15,13.72,13.72,0,0,0,5.76,8.11c2.79,2,6.35,2.53,9.76,3.06,1.74,0,3.49.23,5.25.18s3.52-.19,5.3-.22c-1.74.31-3.5.55-5.27.83s-3.56.11-5.36.17c-3.53-.35-7.26-.87-10.36-3a14.21,14.21,0,0,1-6-8.93A21.48,21.48,0,0,1,42.26,21.92Z"/><path class="cls-7" d="M77.09,15.61a24.89,24.89,0,0,1,9.77,2.74A14.94,14.94,0,0,1,94,25.77a16.28,16.28,0,0,1,1,5.12,15.25,15.25,0,0,1-.56,5.16,13.85,13.85,0,0,1-6,8.1,15.25,15.25,0,0,0,5-8.34,17,17,0,0,0-.64-9.58,12.71,12.71,0,0,0-2.56-4,19.41,19.41,0,0,0-3.84-3A31.75,31.75,0,0,0,77.09,15.61Z"/><path class="cls-7" d="M47.3,7.54a25.06,25.06,0,0,0-7.79-2,15.42,15.42,0,0,0-7.68,1.23,15.53,15.53,0,0,0-5.91,5.05A27.33,27.33,0,0,0,22.28,19a20.2,20.2,0,0,1,2.84-7.73,14.69,14.69,0,0,1,6.19-5.64,14.48,14.48,0,0,1,8.3-1.05A19.16,19.16,0,0,1,47.3,7.54Z"/><path class="cls-7" d="M27.69,33.56a28,28,0,0,0,8.4-3.9,17.52,17.52,0,0,0,3.34-3.1,21.06,21.06,0,0,0,2.49-3.94,11.57,11.57,0,0,1-1.72,4.51,12.42,12.42,0,0,1-3.39,3.54,15.36,15.36,0,0,1-4.37,2.16A14.28,14.28,0,0,1,27.69,33.56Z"/><path class="cls-4" d="M46.11,69.1a11.94,11.94,0,0,1-7.57-15h0A11.91,11.91,0,1,1,49,69.67,12.39,12.39,0,0,1,46.11,69.1ZM40.05,54.55a10.32,10.32,0,1,0,13-6.56,10.14,10.14,0,0,0-2.52-.5A10.34,10.34,0,0,0,40.05,54.55Z"/><path class="cls-4" d="M22.44,64.42c-4.8-.91-7.72-6.9-6.5-13.35a14.25,14.25,0,0,1,4-7.72A7.91,7.91,0,0,1,26.87,41a7.89,7.89,0,0,1,5.57,4.71,14.23,14.23,0,0,1,.93,8.65c-1.16,6.1-5.61,10.47-10.16,10.15A7.06,7.06,0,0,1,22.44,64.42ZM21.05,44.51a12.76,12.76,0,0,0-3.55,6.86C16.45,57,18.8,62.11,22.74,62.86s8-3.2,9.06-8.79A12.6,12.6,0,0,0,31,46.4a6.34,6.34,0,0,0-4.43-3.82c-.2,0-.4-.06-.6-.08A6.55,6.55,0,0,0,21.05,44.51Z"/><path class="cls-4" d="M38.56,55.45l1-.85c-1.26-1.54-4.4-3.88-7.3-1.76l.8,1.08C35.69,52,38.45,55.31,38.56,55.45Z"/><path class="cls-4" d="M85.7,67,87,66.63c-.18-.6-1.83-5.89-4.69-6.93-2.67-1-20.67-2.64-21.43-2.71l-.12,1.33c5.16.48,19,1.9,21.09,2.65C83.73,61.65,85.27,65.56,85.7,67Z"/><path class="cls-11" d="M70.07,63.78s9-9.39,13.35-6-3.5,17.76-9.42,19a5.76,5.76,0,0,1-7.17-4.23Z"/><path class="cls-7" d="M81.06,61.82c.09,0,.09.13,0,.15-4.18,1-6.81,4.32-8.83,7.88,1.39-1.28,3.1-1.83,4.84-.14.09.09,0,.23-.14.19a3.56,3.56,0,0,0-4,.63,17.71,17.71,0,0,0-2.33,2.84c-.23.33-.84,0-.64-.34l0-.09C70.63,67.91,75.6,61.5,81.06,61.82Z"/><path class="cls-5" d="M79.43,94.7c1.37-1.7-7.5-6.74-9.81-4.83s-14,31.51-10.19,63.63,66,66.71,68.27,61.91c1-2-.27-7.65-1.78-9.45-2.13-2.54-47-30.4-51.46-50.32C70.52,137.93,75.92,99.06,79.43,94.7Z"/><path class="cls-5" d="M44.43,94c1.86-3.54-7.75-.69-8.81,1.22s-13.91,32.6-16.12,52.66c-.89,8-4,29.67-4,29.67s9.4-29.05,17.14-53.33A253.84,253.84,0,0,1,44.43,94Z"/></g><g class="cls-13"><rect class="cls-6" x="-11.13" y="-14.22" width="251.92" height="179.09"/><rect class="cls-4" x="6.25" y="88.14" width="16.42" height="12.76"/><rect class="cls-14" x="6.25" y="88.14" width="16.42" height="12.76"/><rect class="cls-15" x="27.74" y="88.14" width="16.42" height="12.76"/><rect class="cls-15" x="49.38" y="88.14" width="16.42" height="12.76"/><rect class="cls-15" x="70.95" y="88.14" width="16.42" height="12.76"/><rect class="cls-15" x="92.52" y="88.14" width="16.42" height="12.76"/><rect class="cls-4" x="114.08" y="88.14" width="16.42" height="12.76"/><rect class="cls-14" x="114.08" y="88.14" width="16.42" height="12.76"/><rect class="cls-15" x="135.65" y="88.14" width="16.42" height="12.76"/><rect class="cls-4" x="6.25" y="105.82" width="16.42" height="12.76"/><rect class="cls-14" x="6.25" y="105.82" width="16.42" height="12.76"/><rect class="cls-15" x="27.82" y="105.82" width="16.42" height="12.76"/><rect class="cls-15" x="49.38" y="105.82" width="16.42" height="12.76"/><rect class="cls-15" x="70.95" y="105.82" width="16.42" height="12.76"/><rect class="cls-15" x="92.52" y="105.82" width="16.42" height="12.76"/><rect class="cls-15" x="114.08" y="105.82" width="16.42" height="12.76"/><rect class="cls-15" x="135.65" y="105.82" width="16.42" height="12.76"/><rect class="cls-15" x="70.95" y="70.47" width="16.42" height="12.76"/><rect class="cls-15" x="92.52" y="70.47" width="16.42" height="12.76"/><rect class="cls-15" x="114.08" y="70.47" width="16.42" height="12.76"/><rect class="cls-15" x="135.65" y="70.47" width="16.42" height="12.76"/><rect class="cls-4" x="6.25" y="123.49" width="16.42" height="12.76"/><rect class="cls-14" x="6.25" y="123.49" width="16.42" height="12.76"/><rect class="cls-15" x="27.82" y="123.49" width="16.42" height="12.76"/><rect class="cls-15" x="49.38" y="123.49" width="16.42" height="12.76"/><rect class="cls-4" x="70.95" y="123.49" width="16.42" height="12.76"/><rect class="cls-14" x="70.95" y="123.49" width="16.42" height="12.76"/><rect class="cls-15" x="92.52" y="123.49" width="16.42" height="12.76"/><rect class="cls-15" x="114.08" y="123.49" width="16.42" height="12.76"/><rect class="cls-15" x="135.65" y="123.49" width="16.42" height="12.76"/><rect class="cls-4" x="6.25" y="141.17" width="16.42" height="12.76"/><rect class="cls-14" x="6.25" y="141.17" width="16.42" height="12.76"/><rect class="cls-15" x="27.82" y="141.17" width="16.42" height="12.76"/><rect class="cls-15" x="49.38" y="141.17" width="16.42" height="12.76"/><rect class="cls-15" x="70.95" y="141.17" width="16.42" height="12.76"/><rect class="cls-15" x="92.52" y="141.17" width="16.42" height="12.76"/><path class="cls-4" d="M12.3,61.35a.55.55,0,0,1,.77-.07,3.41,3.41,0,0,0,2,.81,2.22,2.22,0,0,0,1.32-.39.94.94,0,0,0,.46-.76.65.65,0,0,0-.1-.34,1.07,1.07,0,0,0-.32-.32A4,4,0,0,0,15,59.79h0a6.1,6.1,0,0,1-1.37-.42,2.25,2.25,0,0,1-1-.82,1.64,1.64,0,0,1-.25-.87,2,2,0,0,1,.85-1.55,3.15,3.15,0,0,1,1.83-.56,4.14,4.14,0,0,1,2.31.85.55.55,0,0,1-.6.91,3.08,3.08,0,0,0-1.71-.68,2,2,0,0,0-1.18.36.82.82,0,0,0-.4.67.52.52,0,0,0,.07.29,1,1,0,0,0,.29.28,3.68,3.68,0,0,0,1.32.47h0a6,6,0,0,1,1.46.44,2.43,2.43,0,0,1,1.06.88,1.69,1.69,0,0,1,.26.9,2,2,0,0,1-.91,1.64,3.33,3.33,0,0,1-2,.61,4.63,4.63,0,0,1-2.72-1.06A.57.57,0,0,1,12.3,61.35Z"/><path class="cls-4" d="M39.22,56.36v6.25a.61.61,0,0,1-.6.59.59.59,0,0,1-.58-.59V58.15l-1.52,2.12a.59.59,0,0,1-.48.25h0a.61.61,0,0,1-.49-.25L34,58.15v4.46a.6.6,0,0,1-.6.59.59.59,0,0,1-.58-.59V56.36a.59.59,0,0,1,.58-.58h0a.61.61,0,0,1,.47.24L36,59,38.14,56a.58.58,0,0,1,.47-.24h0A.61.61,0,0,1,39.22,56.36Z"/><path class="cls-4" d="M60.27,57H58.58v5.65a.58.58,0,0,1-.58.59.58.58,0,0,1-.58-.59V57H55.74a.6.6,0,0,1-.58-.6.58.58,0,0,1,.58-.58h4.53a.58.58,0,0,1,.58.58A.6.6,0,0,1,60.27,57Z"/><path class="cls-4" d="M83.81,56.66l-2.59,6.18a.18.18,0,0,1-.06.09h0L81.1,63s0,0,0,0l-.07.05h0s-.06,0-.1.06h0l-.09,0h-.25l-.07,0h0a.2.2,0,0,1-.09-.06h0L80.27,63l0,0a.43.43,0,0,0,0-.07h0a.25.25,0,0,1,0-.09l-1.39-3.29-1.39,3.29,0,.09h0l-.06.07s0,0,0,0l-.06.05h0l-.09.06h0a.15.15,0,0,0-.08,0H76.7l-.07,0h0l-.1-.06h0s0,0-.07-.05l0,0a.2.2,0,0,0-.06-.07h0a.73.73,0,0,1,0-.09l-2.6-6.18a.57.57,0,0,1,.31-.75.57.57,0,0,1,.76.31l2.07,4.9,1.37-3.25a.59.59,0,0,1,.55-.36.62.62,0,0,1,.55.36l1.37,3.25,2.06-4.9a.59.59,0,0,1,.78-.31A.57.57,0,0,1,83.81,56.66Z"/><path class="cls-4" d="M103,57H101.3v5.65a.58.58,0,0,1-.58.59.58.58,0,0,1-.58-.59V57H98.47a.6.6,0,0,1-.59-.6.58.58,0,0,1,.59-.58H103a.58.58,0,0,1,.58.58A.6.6,0,0,1,103,57Z"/><path class="cls-4" d="M120.16,62.61V56.36a.58.58,0,0,1,.58-.58h3.46a.59.59,0,1,1,0,1.18h-2.87V58.9h2.47a.59.59,0,0,1,0,1.17h-2.47v2.54a.59.59,0,0,1-.59.59A.58.58,0,0,1,120.16,62.61Z"/><path class="cls-4" d="M141.05,61.35a.56.56,0,0,1,.78-.07,3.38,3.38,0,0,0,2,.81,2.26,2.26,0,0,0,1.33-.39,1,1,0,0,0,.45-.76.64.64,0,0,0-.09-.34,1.2,1.2,0,0,0-.32-.32,4.2,4.2,0,0,0-1.45-.49h0a6,6,0,0,1-1.37-.42,2.33,2.33,0,0,1-1-.82,1.63,1.63,0,0,1-.24-.87,2,2,0,0,1,.85-1.55,3.13,3.13,0,0,1,1.83-.56,4.14,4.14,0,0,1,2.31.85.55.55,0,0,1,.15.75.54.54,0,0,1-.75.16,3.08,3.08,0,0,0-1.71-.68,2.05,2.05,0,0,0-1.19.36.85.85,0,0,0-.4.67.52.52,0,0,0,.07.29,1.11,1.11,0,0,0,.29.28,3.75,3.75,0,0,0,1.33.47h0a6.09,6.09,0,0,1,1.46.44,2.54,2.54,0,0,1,1.06.88,1.69,1.69,0,0,1,.25.9,2,2,0,0,1-.91,1.64,3.33,3.33,0,0,1-2,.61,4.6,4.6,0,0,1-2.71-1.06A.57.57,0,0,1,141.05,61.35Z"/><path class="cls-16" d="M13.13,96.68a.15.15,0,0,1,0-.23.16.16,0,0,1,.24,0,1.26,1.26,0,0,0,.89.36,1.26,1.26,0,0,0,1.25-1.26,1.26,1.26,0,0,0-.36-.89,1.25,1.25,0,0,0-.89-.36,1.23,1.23,0,0,0-.89.37.18.18,0,0,1-.24,0,.21.21,0,0,1,0-.06h0v0a.13.13,0,0,1,0-.06.1.1,0,0,0,0,0l.23-1.9a.14.14,0,0,1,.06-.12.21.21,0,0,1,.11,0h2.19a.18.18,0,0,1,.17.17.17.17,0,0,1-.17.17h-2l-.17,1.4a1.6,1.6,0,0,1,.8-.22,1.6,1.6,0,0,1,1.59,1.59,1.56,1.56,0,0,1-.47,1.13,1.58,1.58,0,0,1-1.12.47A1.6,1.6,0,0,1,13.13,96.68Z"/><path class="cls-16" d="M34.85,93.47a1.91,1.91,0,0,1,1.64-1,.16.16,0,0,1,.17.15.18.18,0,0,1-.16.18,1.6,1.6,0,0,0-1.37.85,3.3,3.3,0,0,0-.34.94,1.55,1.55,0,1,1-.39,1.08c0-.1,0-.2,0-.31A4,4,0,0,1,34.85,93.47Zm-.12,2.15a.24.24,0,0,0,0,.09.09.09,0,0,1,0,.05,1.23,1.23,0,1,0,0-.17Z"/><path class="cls-16" d="M56.79,96.92l1.74-4.13H56.26a.16.16,0,1,1,0-.32h2.48a.11.11,0,0,1,.1,0,.18.18,0,0,1,.09.1.09.09,0,0,1,0,0,.15.15,0,0,1,0,.09L57.1,97.05a.18.18,0,0,1-.15.1.1.1,0,0,1-.07,0A.17.17,0,0,1,56.79,96.92Z"/><path class="cls-16" d="M78.75,92.44a1,1,0,0,1,.58,1.77,1.52,1.52,0,1,1-1.16,0,1,1,0,0,1,.58-1.77Zm0,4.38a1.2,1.2,0,1,0-1.2-1.2A1.19,1.19,0,0,0,78.75,96.82Zm0-2.74a.66.66,0,0,0,.66-.66.66.66,0,0,0-1.31,0A.66.66,0,0,0,78.75,94.08Z"/><path class="cls-16" d="M100.6,92.44a1.55,1.55,0,0,1,1.55,1.37.06.06,0,0,1,0,0c0,.12,0,.26,0,.4a4,4,0,0,1-.45,1.88,2,2,0,0,1-1.65,1h0a.16.16,0,0,1-.16-.16.16.16,0,0,1,.16-.17,1.61,1.61,0,0,0,1.37-.86,2.92,2.92,0,0,0,.33-.94,1.5,1.5,0,0,1-1.17.52,1.55,1.55,0,1,1,0-3.1ZM101.83,94a1.23,1.23,0,1,0-1.23,1.22A1.22,1.22,0,0,0,101.83,94Z"/><path class="cls-16" d="M120.59,92.92l-.67.39a.19.19,0,0,1-.08,0,.18.18,0,0,1-.14-.08.17.17,0,0,1,.06-.23l.91-.55a.17.17,0,0,1,.24.18V97a.16.16,0,0,1-.32,0Z"/><path class="cls-16" d="M122.14,94.8a3,3,0,0,1,.45-1.65,1.34,1.34,0,0,1,2.36,0,3.07,3.07,0,0,1,.45,1.65,3,3,0,0,1-.45,1.63,1.33,1.33,0,0,1-2.36,0A2.92,2.92,0,0,1,122.14,94.8Zm.33,0a2.67,2.67,0,0,0,.4,1.45,1.12,1.12,0,0,0,.9.57,1.13,1.13,0,0,0,.9-.57,2.85,2.85,0,0,0,0-2.91,1.11,1.11,0,0,0-.9-.57,1.1,1.1,0,0,0-.9.57A2.68,2.68,0,0,0,122.47,94.8Z"/><path class="cls-16" d="M142.91,92.92l-.66.39a.24.24,0,0,1-.09,0,.18.18,0,0,1-.14-.08.17.17,0,0,1,.06-.23l.91-.55a.17.17,0,0,1,.22.06.17.17,0,0,1,0,.12V97a.16.16,0,0,1-.16.16.17.17,0,0,1-.16-.16Z"/><path class="cls-16" d="M145.16,92.92l-.66.39-.08,0a.17.17,0,0,1-.14-.08.16.16,0,0,1,.06-.23l.9-.55a.18.18,0,0,1,.23.06.25.25,0,0,1,0,.12V97a.17.17,0,0,1-.17.16.17.17,0,0,1-.16-.16Z"/><path class="cls-16" d="M79.05,74.94l-.67.39-.08,0a.16.16,0,0,1-.14-.08.15.15,0,0,1,.06-.22l.91-.55a.17.17,0,0,1,.22.06.25.25,0,0,1,0,.12V79a.16.16,0,0,1-.32,0Z"/><path class="cls-16" d="M99.18,78.88l2.2-2a1.21,1.21,0,0,0,.4-.9,1.23,1.23,0,0,0-1.21-1.2,1.22,1.22,0,0,0-.82.31l-.23.21a.16.16,0,0,1-.22-.24l.23-.21a1.53,1.53,0,0,1,1-.4,1.5,1.5,0,0,1,1.13.5,1.54,1.54,0,0,1-.1,2.17l-1.88,1.71h2.22a.16.16,0,0,1,0,.32H99.29a.17.17,0,0,1-.12,0A.17.17,0,0,1,99.18,78.88Z"/><path class="cls-16" d="M123.87,74.76,122.66,76a1.58,1.58,0,0,1,.8.43,1.6,1.6,0,0,1,.47,1.13,1.58,1.58,0,0,1-.47,1.12,1.6,1.6,0,0,1-1.13.47,1.52,1.52,0,0,1-1.12-.47.16.16,0,1,1,.23-.23,1.26,1.26,0,0,0,.89.36,1.28,1.28,0,0,0,.89-.36,1.25,1.25,0,0,0,.37-.89,1.26,1.26,0,0,0-1.26-1.26.17.17,0,0,1-.13-.07h0a.18.18,0,0,1,0-.24l1.17-1.2h-1.8a.18.18,0,0,1-.17-.17.17.17,0,0,1,.17-.17h2.2a.17.17,0,0,1,.17.17.14.14,0,0,1,0,.07Z"/><path class="cls-16" d="M144.7,78.2h-2.56a.15.15,0,0,1-.11,0,.16.16,0,0,1,0-.23l2.73-3.38h0a.16.16,0,0,1,.23,0,.24.24,0,0,1,.06.08v3.27h.32a.17.17,0,1,1,0,.33H145V79a.16.16,0,0,1-.17.16.16.16,0,0,1-.16-.16Zm0-.33V75.12l-2.22,2.75Z"/><path class="cls-16" d="M12.37,128.1l-.67.39a.19.19,0,0,1-.08,0,.18.18,0,0,1-.14-.08.15.15,0,0,1,.06-.22l.91-.56a.17.17,0,0,1,.22.06.21.21,0,0,1,0,.13v4.32a.16.16,0,0,1-.32,0Z"/><path class="cls-16" d="M15.48,127.62A1.53,1.53,0,0,1,17,129l0,0c0,.13,0,.26,0,.4a3.86,3.86,0,0,1-.45,1.88,2,2,0,0,1-1.65,1h0a.16.16,0,0,1-.17-.16.17.17,0,0,1,.16-.17,1.6,1.6,0,0,0,1.37-.85,3.08,3.08,0,0,0,.34-1,1.51,1.51,0,0,1-1.17.52,1.55,1.55,0,1,1,0-3.1Zm1.23,1.55a1.23,1.23,0,1,0-1.23,1.22A1.23,1.23,0,0,0,16.71,129.17Z"/><path class="cls-16" d="M32.25,132l2.2-2a1.25,1.25,0,0,0,.4-.9,1.19,1.19,0,0,0-.31-.81,1.23,1.23,0,0,0-.89-.4,1.2,1.2,0,0,0-.82.31l-.23.21a.15.15,0,0,1-.23,0,.14.14,0,0,1,0-.22l.22-.22a1.62,1.62,0,0,1,1-.4,1.49,1.49,0,0,1,1.12.51,1.47,1.47,0,0,1,.41,1,1.55,1.55,0,0,1-.51,1.14L32.79,132H35a.17.17,0,0,1,.16.17.17.17,0,0,1-.16.16H32.37a.15.15,0,0,1-.12-.05A.18.18,0,0,1,32.25,132Z"/><path class="cls-16" d="M36.3,130a3,3,0,0,1,.45-1.65,1.43,1.43,0,0,1,1.17-.71,1.47,1.47,0,0,1,1.18.71,3.07,3.07,0,0,1,.45,1.65,3,3,0,0,1-.45,1.64,1.47,1.47,0,0,1-1.18.71,1.43,1.43,0,0,1-1.17-.71A3,3,0,0,1,36.3,130Zm.32,0a2.67,2.67,0,0,0,.4,1.45,1,1,0,0,0,1.8,0,2.79,2.79,0,0,0,0-2.91,1,1,0,0,0-1.8,0A2.68,2.68,0,0,0,36.62,130Z"/><path class="cls-16" d="M55,132l2.2-2a1.21,1.21,0,0,0,.09-1.71,1.22,1.22,0,0,0-1.72-.09l-.23.21a.14.14,0,0,1-.22,0,.15.15,0,0,1,0-.22l.23-.22a1.6,1.6,0,0,1,1-.4,1.51,1.51,0,0,1,1.13.51,1.46,1.46,0,0,1,.4,1,1.53,1.53,0,0,1-.5,1.14L55.55,132h2.22a.16.16,0,0,1,.16.17.16.16,0,0,1-.16.16H55.13a.19.19,0,0,1-.13-.05A.17.17,0,0,1,55,132Z"/><path class="cls-16" d="M59.75,128.1l-.66.39-.08,0a.2.2,0,0,1-.15-.08.15.15,0,0,1,.07-.22l.9-.56a.17.17,0,0,1,.22.06.21.21,0,0,1,0,.13v4.32a.16.16,0,0,1-.16.16.17.17,0,0,1-.16-.16Z"/><path class="cls-16" d="M75.33,132l2.2-2a1.25,1.25,0,0,0,.4-.9,1.19,1.19,0,0,0-.31-.81,1.22,1.22,0,0,0-1.72-.09l-.22.21a.15.15,0,0,1-.23,0,.15.15,0,0,1,0-.22l.23-.22a1.6,1.6,0,0,1,1-.4,1.51,1.51,0,0,1,1.13.51,1.47,1.47,0,0,1,.41,1,1.55,1.55,0,0,1-.51,1.14L75.87,132H78.1a.17.17,0,0,1,.16.17.17.17,0,0,1-.16.16H75.45a.15.15,0,0,1-.12-.05A.18.18,0,0,1,75.33,132Z"/><path class="cls-16" d="M79.3,132l2.2-2a1.21,1.21,0,0,0,.09-1.71,1.22,1.22,0,0,0-1.72-.09l-.23.21a.15.15,0,0,1-.23,0,.15.15,0,0,1,0-.22l.23-.22a1.6,1.6,0,0,1,1-.4,1.51,1.51,0,0,1,1.13.51,1.46,1.46,0,0,1,.4,1,1.53,1.53,0,0,1-.5,1.14L79.84,132h2.22a.16.16,0,0,1,.16.17.16.16,0,0,1-.16.16H79.41a.18.18,0,0,1-.12-.05A.17.17,0,0,1,79.3,132Z"/><path class="cls-16" d="M97.21,132l2.19-2a1.26,1.26,0,0,0,.41-.9,1.22,1.22,0,0,0-2-.9l-.23.21a.15.15,0,0,1-.23,0,.14.14,0,0,1,0-.22l.22-.22a1.62,1.62,0,0,1,1-.4,1.52,1.52,0,0,1,1.13.51,1.5,1.5,0,0,1,.4,1,1.55,1.55,0,0,1-.51,1.14L97.74,132H100a.17.17,0,0,1,.16.17.17.17,0,0,1-.16.16H97.32a.17.17,0,0,1-.12-.05A.17.17,0,0,1,97.21,132Z"/><path class="cls-16" d="M104,127.92l-1.21,1.25a1.58,1.58,0,0,1,.8.43,1.6,1.6,0,1,1-2.26,2.26.17.17,0,0,1,.24-.24,1.27,1.27,0,0,0,.89.37,1.29,1.29,0,0,0,.89-.37,1.25,1.25,0,0,0,.37-.89,1.23,1.23,0,0,0-.37-.89,1.22,1.22,0,0,0-.89-.37.16.16,0,0,1-.13-.06h0a.18.18,0,0,1,0-.25l1.17-1.2h-1.8a.17.17,0,0,1-.17-.17.18.18,0,0,1,.17-.17h2.2a.18.18,0,0,1,.17.17.19.19,0,0,1,0,.08A.1.1,0,0,1,104,127.92Z"/><path class="cls-16" d="M118.93,132l2.19-2a1.22,1.22,0,0,0,.41-.9,1.22,1.22,0,0,0-2-.9l-.23.21a.15.15,0,0,1-.23,0,.14.14,0,0,1,0-.22l.23-.22a1.58,1.58,0,0,1,1-.4,1.52,1.52,0,0,1,1.13.51,1.5,1.5,0,0,1,.4,1,1.57,1.57,0,0,1-.5,1.14l-1.89,1.7h2.23a.16.16,0,0,1,.16.17.16.16,0,0,1-.16.16H119a.17.17,0,0,1-.12-.05A.17.17,0,0,1,118.93,132Z"/><path class="cls-16" d="M125.39,131.36h-2.56a.15.15,0,0,1-.1,0,.15.15,0,0,1,0-.23l2.72-3.39h0a.16.16,0,0,1,.23,0s0,.06.06.09V131H126a.16.16,0,1,1,0,.32h-.32v.81a.17.17,0,0,1-.17.16.17.17,0,0,1-.16-.16Zm0-.32v-2.76L123.17,131Z"/><path class="cls-16" d="M140.37,132l2.2-2a1.25,1.25,0,0,0,.4-.9,1.19,1.19,0,0,0-.31-.81,1.22,1.22,0,0,0-1.72-.09l-.23.21a.14.14,0,0,1-.22,0,.15.15,0,0,1,0-.22l.23-.22a1.6,1.6,0,0,1,1-.4,1.51,1.51,0,0,1,1.13.51,1.47,1.47,0,0,1,.41,1,1.55,1.55,0,0,1-.51,1.14l-1.88,1.7h2.22a.17.17,0,0,1,.17.17.17.17,0,0,1-.17.16h-2.64a.15.15,0,0,1-.12-.05A.16.16,0,0,1,140.37,132Z"/><path class="cls-16" d="M144.45,131.86a.15.15,0,0,1,0-.23.16.16,0,0,1,.24,0,1.26,1.26,0,0,0,.89.36,1.26,1.26,0,0,0,1.25-1.25,1.27,1.27,0,0,0-.36-.9,1.25,1.25,0,0,0-.89-.36,1.23,1.23,0,0,0-.89.37.16.16,0,0,1-.24,0s0,0,0-.06h0v0a.13.13,0,0,1,0-.06v0l.23-1.89a.15.15,0,0,1,.06-.13.21.21,0,0,1,.11,0H147a.18.18,0,0,1,.17.17.17.17,0,0,1-.17.17H145l-.17,1.4a1.6,1.6,0,0,1,.8-.22,1.52,1.52,0,0,1,1.12.47,1.58,1.58,0,0,1,0,2.25,1.58,1.58,0,0,1-1.12.47A1.6,1.6,0,0,1,144.45,131.86Z"/><path class="cls-16" d="M10.91,149.51l2.2-2a1.21,1.21,0,0,0,.4-.9,1.18,1.18,0,0,0-.32-.8,1.21,1.21,0,0,0-1.71-.09l-.23.21a.15.15,0,0,1-.23,0,.16.16,0,0,1,0-.23l.23-.21a1.58,1.58,0,0,1,1-.4,1.47,1.47,0,0,1,1.13.51,1.5,1.5,0,0,1,.4,1,1.58,1.58,0,0,1-.5,1.15l-1.88,1.7h2.22a.16.16,0,0,1,.16.16.17.17,0,0,1-.16.17H11a.18.18,0,0,1-.12-.05A.17.17,0,0,1,10.91,149.51Z"/><path class="cls-16" d="M15.4,146.12a1.92,1.92,0,0,1,1.65-1,.16.16,0,0,1,.16.15.18.18,0,0,1-.16.18,1.58,1.58,0,0,0-1.37.85,3,3,0,0,0-.33.94,1.53,1.53,0,0,1,1.16-.53,1.38,1.38,0,1,1-1.57,1.3A4,4,0,0,1,15.4,146.12Zm-.11,2.15a.28.28,0,0,0,0,.09s0,0,0,0A1.23,1.23,0,1,0,16.51,147a1.22,1.22,0,0,0-1.22,1.22Z"/><path class="cls-16" d="M32.66,149.51l2.2-2a1.21,1.21,0,0,0,.4-.9,1.17,1.17,0,0,0-.31-.8,1.22,1.22,0,0,0-1.72-.09l-.22.21a.15.15,0,0,1-.23,0,.16.16,0,0,1,0-.23l.23-.21a1.6,1.6,0,0,1,1-.4,1.57,1.57,0,0,1,1.54,1.53,1.55,1.55,0,0,1-.51,1.15l-1.88,1.7h2.22a.17.17,0,0,1,.17.16.18.18,0,0,1-.17.17H32.78a.15.15,0,0,1-.12-.05A.18.18,0,0,1,32.66,149.51Z"/><path class="cls-16" d="M37.29,149.57,39,145.44H36.76a.16.16,0,0,1,0-.32h2.48a.11.11,0,0,1,.1,0,.15.15,0,0,1,.09.1s0,0,0,.05a.16.16,0,0,1,0,.09L37.6,149.7a.18.18,0,0,1-.15.1.1.1,0,0,1-.07,0A.17.17,0,0,1,37.29,149.57Z"/><path class="cls-16" d="M54,149.51l2.2-2a1.2,1.2,0,0,0,.09-1.7,1.22,1.22,0,0,0-1.72-.09l-.23.21a.14.14,0,0,1-.22,0,.16.16,0,0,1,0-.23l.23-.21a1.6,1.6,0,0,1,1-.4A1.57,1.57,0,0,1,57,146.62a1.55,1.55,0,0,1-.51,1.15l-1.88,1.7h2.22a.17.17,0,0,1,.17.16.18.18,0,0,1-.17.17H54.15a.19.19,0,0,1-.13-.05A.17.17,0,0,1,54,149.51Z"/><path class="cls-16" d="M59.53,145.09a1,1,0,0,1,.58,1.77,1.52,1.52,0,1,1-1.16,0,1,1,0,0,1,.58-1.77Zm0,4.38a1.2,1.2,0,1,0,0-2.4,1.2,1.2,0,0,0,0,2.4Zm0-2.74a.67.67,0,0,0,.66-.66.66.66,0,0,0-.66-.66.65.65,0,0,0-.65.66A.66.66,0,0,0,59.53,146.73Z"/><path class="cls-16" d="M75.19,149.51l2.2-2a1.21,1.21,0,0,0,.4-.9,1.17,1.17,0,0,0-.31-.8,1.22,1.22,0,0,0-1.72-.09l-.23.21a.14.14,0,0,1-.22,0,.16.16,0,0,1,0-.23l.23-.21a1.6,1.6,0,0,1,1-.4,1.57,1.57,0,0,1,1.54,1.53,1.55,1.55,0,0,1-.51,1.15l-1.88,1.7H78a.17.17,0,0,1,.17.16.18.18,0,0,1-.17.17H75.31a.15.15,0,0,1-.12-.05A.16.16,0,0,1,75.19,149.51Z"/><path class="cls-16" d="M80.79,145.09a1.55,1.55,0,0,1,1.55,1.37.06.06,0,0,0,0,0c0,.12,0,.26,0,.4a3.84,3.84,0,0,1-.46,1.87,1.94,1.94,0,0,1-1.64,1h0a.17.17,0,1,1,0-.33,1.61,1.61,0,0,0,1.38-.86,2.92,2.92,0,0,0,.33-.94,1.55,1.55,0,1,1-1.17-2.58ZM82,146.64a1.23,1.23,0,1,0-1.23,1.22A1.22,1.22,0,0,0,82,146.64Z"/><path class="cls-16" d="M99.79,145.39l-1.21,1.25a1.58,1.58,0,0,1,.8.43,1.59,1.59,0,0,1,0,2.26,1.64,1.64,0,0,1-1.13.47,1.56,1.56,0,0,1-1.12-.47.16.16,0,0,1,0-.24.15.15,0,0,1,.23,0,1.28,1.28,0,0,0,1.78,0,1.25,1.25,0,0,0,.37-.89,1.26,1.26,0,0,0-1.26-1.26.17.17,0,0,1-.13-.07h0a.18.18,0,0,1,0-.24l1.17-1.2h-1.8a.17.17,0,0,1,0-.34h2.2a.18.18,0,0,1,.17.17.14.14,0,0,1,0,.07Z"/><path class="cls-16" d="M101.12,147.44a3,3,0,0,1,.45-1.64,1.33,1.33,0,0,1,2.35,0,3.15,3.15,0,0,1,0,3.28,1.32,1.32,0,0,1-2.35,0A2.93,2.93,0,0,1,101.12,147.44Zm.33,0a2.6,2.6,0,0,0,.4,1.46,1.12,1.12,0,0,0,.9.57,1.15,1.15,0,0,0,.9-.57,2.85,2.85,0,0,0,0-2.91,1.12,1.12,0,0,0-.9-.57,1.1,1.1,0,0,0-.9.57A2.59,2.59,0,0,0,101.45,147.44Z"/><path class="cls-16" d="M12.8,110.45l-.67.39a.19.19,0,0,1-.08,0,.18.18,0,0,1-.14-.08.16.16,0,0,1,.06-.23l.91-.55a.17.17,0,0,1,.24.18v4.33a.16.16,0,1,1-.32,0Z"/><path class="cls-16" d="M14.28,114.39l2.2-2a1.25,1.25,0,0,0,.4-.91,1.22,1.22,0,0,0-2-.89l-.23.21a.16.16,0,0,1-.22-.24l.23-.21a1.58,1.58,0,0,1,1-.4,1.47,1.47,0,0,1,1.13.51,1.5,1.5,0,0,1,.4,1,1.58,1.58,0,0,1-.5,1.15l-1.88,1.7H17a.16.16,0,0,1,.16.17.16.16,0,0,1-.16.16H14.39a.17.17,0,0,1-.12-.05A.17.17,0,0,1,14.28,114.39Z"/><path class="cls-16" d="M34.29,110.45l-.66.39-.08,0a.17.17,0,0,1-.14-.08.16.16,0,0,1,.06-.23l.9-.55a.17.17,0,0,1,.22.06.17.17,0,0,1,0,.12v4.33a.16.16,0,0,1-.16.16.17.17,0,0,1-.16-.16Z"/><path class="cls-16" d="M38.62,110.27l-1.21,1.25a1.58,1.58,0,0,1,.8.43,1.6,1.6,0,0,1,.47,1.13,1.62,1.62,0,0,1-1.6,1.6,1.6,1.6,0,0,1-1.13-.47.18.18,0,0,1,0-.24.16.16,0,0,1,.24,0,1.26,1.26,0,0,0,.89.36A1.28,1.28,0,0,0,38,114a1.25,1.25,0,0,0,.37-.89,1.23,1.23,0,0,0-.37-.89,1.22,1.22,0,0,0-.89-.37.17.17,0,0,1-.13-.07h0a.16.16,0,0,1,0-.24l1.17-1.2h-1.8a.17.17,0,1,1,0-.34h2.2a.18.18,0,0,1,.17.17.14.14,0,0,1,0,.07A.21.21,0,0,1,38.62,110.27Z"/><path class="cls-16" d="M55.48,110.45l-.67.39a.19.19,0,0,1-.08,0,.18.18,0,0,1-.14-.08.16.16,0,0,1,.06-.23l.91-.55a.17.17,0,0,1,.24.18v4.33a.16.16,0,1,1-.32,0Z"/><path class="cls-16" d="M59.66,113.71H57.09a.19.19,0,0,1-.1,0,.16.16,0,0,1,0-.23l2.72-3.39h0a.16.16,0,0,1,.23,0,.35.35,0,0,1,0,.08s0,0,0,0v3.25h.31a.16.16,0,1,1,0,.32H60v.81a.17.17,0,0,1-.17.16.16.16,0,0,1-.16-.16Zm0-.32v-2.76l-2.23,2.76Z"/><path class="cls-16" d="M77.05,110.45l-.66.39-.08,0a.17.17,0,0,1-.14-.08.16.16,0,0,1,.06-.23l.9-.55a.18.18,0,0,1,.23.06.25.25,0,0,1,0,.12v4.33a.16.16,0,0,1-.16.16.17.17,0,0,1-.17-.16Z"/><path class="cls-16" d="M78.64,114.21a.15.15,0,0,1,0-.23.16.16,0,0,1,.24,0,1.28,1.28,0,0,0,.89.36,1.25,1.25,0,0,0,.89-.37,1.25,1.25,0,0,0-.88-2.14,1.26,1.26,0,0,0-.9.37.17.17,0,0,1-.23,0s0,0,0-.06h0v0a.13.13,0,0,1,0-.06.1.1,0,0,0,0,0l.23-1.9A.19.19,0,0,1,79,110h2.19a.17.17,0,0,1,.17.17.16.16,0,0,1-.17.17h-2l-.17,1.4a1.58,1.58,0,0,1,.8-.22,1.59,1.59,0,0,1,1.58,1.59,1.59,1.59,0,0,1-.46,1.13,1.62,1.62,0,0,1-1.13.47A1.6,1.6,0,0,1,78.64,114.21Z"/><path class="cls-16" d="M98.73,110.45l-.66.39-.08,0a.17.17,0,0,1-.14-.08.16.16,0,0,1,.06-.23l.9-.55a.18.18,0,0,1,.23.06.25.25,0,0,1,0,.12v4.33a.16.16,0,0,1-.16.16.17.17,0,0,1-.17-.16Z"/><path class="cls-16" d="M100.74,111a1.9,1.9,0,0,1,1.64-1,.16.16,0,0,1,.17.15.18.18,0,0,1-.16.18,1.6,1.6,0,0,0-1.37.85,3.3,3.3,0,0,0-.34.94,1.55,1.55,0,1,1-.39,1.08c0-.1,0-.2,0-.31A4,4,0,0,1,100.74,111Zm-.12,2.15a.24.24,0,0,0,0,.09.09.09,0,0,1,0,.05,1.23,1.23,0,1,0,0-.17Z"/><path class="cls-16" d="M120.8,110.45l-.67.39a.19.19,0,0,1-.08,0,.18.18,0,0,1-.14-.08.16.16,0,0,1,.06-.23l.91-.55a.17.17,0,0,1,.24.18v4.33a.16.16,0,0,1-.32,0Z"/><path class="cls-16" d="M123,114.45l1.74-4.13h-2.27a.16.16,0,1,1,0-.32H125a.11.11,0,0,1,.1,0,.18.18,0,0,1,.09.1.09.09,0,0,1,0,0,.15.15,0,0,1,0,.09l-1.82,4.33a.18.18,0,0,1-.15.1.1.1,0,0,1-.07,0A.17.17,0,0,1,123,114.45Z"/><path class="cls-16" d="M141.93,110.45l-.66.39-.08,0a.19.19,0,0,1-.15-.08.17.17,0,0,1,.06-.23L142,110a.17.17,0,0,1,.22.06.17.17,0,0,1,0,.12v4.33a.16.16,0,0,1-.16.16.17.17,0,0,1-.16-.16Z"/><path class="cls-16" d="M144.94,110a1,1,0,0,1,.58,1.77,1.52,1.52,0,1,1-1.16,0,1,1,0,0,1,.58-1.77Zm0,4.38a1.2,1.2,0,1,0-1.2-1.2A1.2,1.2,0,0,0,144.94,114.35Zm0-2.74a.66.66,0,0,0,.66-.66.66.66,0,0,0-1.31,0A.66.66,0,0,0,144.94,111.61Z"/><rect class="cls-15" x="31.46" y="43.16" width="95.41" height="1.7"/><polygon class="cls-15" points="8.99 46.3 8.99 41.73 6.25 44.02 8.99 46.3"/><polygon class="cls-15" points="149.33 41.73 149.33 46.3 152.07 44.02 149.33 41.73"/><rect class="cls-4" x="-11.13" y="-8.07" width="251.87" height="40.89"/><path class="cls-6" d="M24.45,15.63A6.51,6.51,0,0,1,31,9.24a6.65,6.65,0,0,1,4.09,1.38A1,1,0,0,1,35.23,12a1,1,0,0,1-1.42.2,4.4,4.4,0,0,0-2.85-1,4.72,4.72,0,0,0-3.2,1.28,4.41,4.41,0,0,0-1.29,3.09,4.34,4.34,0,0,0,1.29,3.08A4.72,4.72,0,0,0,31,20a4.44,4.44,0,0,0,2.85-1,1.07,1.07,0,0,1,1.42.2,1,1,0,0,1-.18,1.42A6.59,6.59,0,0,1,31,22,6.48,6.48,0,0,1,24.45,15.63Z"/><path class="cls-6" d="M47.93,19.08H43.62l-.87,2.31a1,1,0,0,1-.92.62,1.27,1.27,0,0,1-.34-.05,1,1,0,0,1-.58-1.28l3.92-10.45a1,1,0,0,1,1.88,0l3.92,10.45A1,1,0,0,1,50,22a1.11,1.11,0,0,1-.34.05,1,1,0,0,1-.9-.62Zm-.73-1.95-1.43-3.81-1.44,3.81Z"/><path class="cls-6" d="M56.25,21V10.57a1,1,0,0,1,1-1,1,1,0,0,1,1,1V20H63a1,1,0,0,1,1,1,1,1,0,0,1-1,1h-5.8A1,1,0,0,1,56.25,21Z"/><path class="cls-6" d="M69.43,21V10.57a1,1,0,0,1,1-1h5.8a1,1,0,0,1,1,1,1,1,0,0,1-1,1H71.4v3.25h4.13a1,1,0,0,1,1,1,1,1,0,0,1-1,1H71.4V20h4.8a1,1,0,0,1,1,1,1,1,0,0,1-1,1H70.46s0,0,0,0l0,0A1,1,0,0,1,69.43,21Z"/><path class="cls-6" d="M85.09,21a1,1,0,1,1-1.94,0V10.71a1,1,0,0,1,1.74-.6L90.62,18V10.73a1,1,0,0,1,1.93,0V21a1,1,0,0,1-1.7.62.87.87,0,0,1-.09-.11l-5.67-7.88Z"/><path class="cls-6" d="M99.12,21V10.57a1,1,0,0,1,1-1h2.1a6.21,6.21,0,0,1,0,12.41h-2.1A1,1,0,0,1,99.12,21Zm2-1h1.1a4.24,4.24,0,0,0,0-8.48h-1.1Z"/><path class="cls-6" d="M120.24,19.08h-4.31l-.87,2.31a1,1,0,0,1-.92.62,1.27,1.27,0,0,1-.34-.05,1,1,0,0,1-.58-1.28l3.92-10.45a1,1,0,0,1,.94-.62,1,1,0,0,1,.94.62l3.92,10.45a1,1,0,0,1-.59,1.28A1.11,1.11,0,0,1,122,22a1,1,0,0,1-.9-.62Zm-.73-1.95-1.43-3.81-1.44,3.81Z"/><path class="cls-6" d="M136.77,20.54a1,1,0,0,1-.62,1.24,1.47,1.47,0,0,1-.39,0h0a1.29,1.29,0,0,1-.69-.19,1.8,1.8,0,0,1-.57-.62,4.93,4.93,0,0,1-.37-2.13,1.53,1.53,0,0,0-.21-.76,1.65,1.65,0,0,0-.53-.52,3.22,3.22,0,0,0-1-.42h-2.09V21a1,1,0,0,1-2,0V10.57a1,1,0,0,1,1-1h3.17a3.79,3.79,0,0,1,3.8,3.81,3.74,3.74,0,0,1-1.39,2.91,2.57,2.57,0,0,1,.62.65,3.34,3.34,0,0,1,.59,1.92,4.75,4.75,0,0,0,.07,1.05A.93.93,0,0,1,136.77,20.54Zm-2.48-7.13a1.84,1.84,0,0,0-1.83-1.85h-2.18v3.66h2.18A1.83,1.83,0,0,0,134.29,13.41Z"/></g></svg>