<svg id="Слой_1" data-name="Слой 1" xmlns="http://www.w3.org/2000/svg" viewBox="0 0 160 160"><defs><style>.cls-1{fill:#4a148c;}.cls-2{fill:#ffc800;}.cls-3{fill:#fff;}.cls-4{opacity:0.39;}</style></defs><rect class="cls-1" x="-28.42" y="-28" width="1497" height="226"/><polygon class="cls-2" points="119.11 7.5 82.06 68.88 45 7.5 72.57 7.5 82.06 25.33 91.54 7.5 119.11 7.5"/><polygon class="cls-3" points="104.9 7.5 82.06 46.43 59.21 7.5 72.57 7.5 82.06 25.33 91.54 7.5 104.9 7.5"/><path class="cls-2" d="M107,86.55c-7-10.11-21-13.07-31-6.69L58.22,91.19a20.1,20.1,0,0,0-9.14,13.59,21.06,21.06,0,0,0,2.12,13.71,19.55,19.55,0,0,0-3,7.6,21.63,21.63,0,0,0,3.67,16.36c7.08,10.11,21,13.07,31,6.69l17.71-11.27a20.08,20.08,0,0,0,9.14-13.58,21.1,21.1,0,0,0-2.12-13.72,19.66,19.66,0,0,0,3-7.6A21.21,21.21,0,0,0,107,86.55"/><path class="cls-3" d="M74.19,143.41a14,14,0,0,1-15.07-5.6A13,13,0,0,1,56.87,128c.13-.58.26-1.1.38-1.68l.33-1,.9.65a23.47,23.47,0,0,0,7,3.47l.65.2-.07.64a4.31,4.31,0,0,0,.71,2.64,4.26,4.26,0,0,0,4.57,1.74,6,6,0,0,0,1.1-.45L90,122.87a3.65,3.65,0,0,0,1.67-2.45,4,4,0,0,0-.64-3,4.22,4.22,0,0,0-4.57-1.67,6,6,0,0,0-1.1.45l-6.76,4.31A11.9,11.9,0,0,1,75,122.1,14,14,0,0,1,60,116.5a13,13,0,0,1-2.19-9.86,12.19,12.19,0,0,1,5.54-8.17L81,87.2a13.82,13.82,0,0,1,3.61-1.61,14,14,0,0,1,15.07,5.6,13,13,0,0,1,2.25,9.85c-.13.58-.26,1.1-.45,1.68l-.32,1-.9-.65a23.52,23.52,0,0,0-7-3.47l-.64-.2.06-.64a4.3,4.3,0,0,0-.7-2.64,4.24,4.24,0,0,0-4.58-1.68,5.93,5.93,0,0,0-1.09.45L68.72,106.19A3.66,3.66,0,0,0,67,108.64a4,4,0,0,0,.65,3,4.23,4.23,0,0,0,4.57,1.68,5.93,5.93,0,0,0,1.09-.45l6.76-4.32a13.65,13.65,0,0,1,18.68,4,13.06,13.06,0,0,1,2.25,9.86,12.19,12.19,0,0,1-5.54,8.17L77.8,141.8a13.82,13.82,0,0,1-3.61,1.61"/><path class="cls-2" d="M151.11,112.63c-8.25,0-14.72-17.32-14.72-39.44s6.47-39.43,14.72-39.43,14.72,17.32,14.72,39.43S159.37,112.63,151.11,112.63Zm0-76.31c-5.87,0-12.16,14.82-12.16,36.87s6.29,36.88,12.16,36.88,12.16-14.82,12.16-36.88S157,36.32,151.11,36.32Z"/><path class="cls-2" d="M126.42,96.82c-4.69,0-8-1.33-9.46-3.91-2.09-3.61-.29-9,5.06-15.29,5.07-5.91,12.78-12,21.73-17.17s18.09-8.8,25.74-10.23c8.09-1.52,13.69-.36,15.78,3.26s.28,9-5.07,15.29c-5.06,5.91-12.78,12-21.73,17.17s-18.09,8.8-25.74,10.23A34,34,0,0,1,126.42,96.82Zm49.46-44.7a32.76,32.76,0,0,0-5.92.61c-7.37,1.38-16.22,4.91-24.93,9.93S128.85,73.59,124,79.29c-4.53,5.28-6.28,9.78-4.79,12.34s6.25,3.31,13.08,2c7.37-1.38,16.23-4.91,24.93-9.93S173.38,72.8,178.26,67.1c4.52-5.28,6.27-9.78,4.79-12.34C182.05,53,179.53,52.12,175.88,52.12Z"/><path class="cls-2" d="M175.8,96.82a34.13,34.13,0,0,1-6.31-.65c-7.65-1.43-16.79-5.06-25.74-10.23S127.09,74.68,122,68.77c-5.35-6.25-7.15-11.68-5.06-15.29s7.69-4.78,15.77-3.26c7.65,1.43,16.79,5.06,25.74,10.23s16.67,11.26,21.73,17.17c5.35,6.25,7.15,11.68,5.07,15.29C183.78,95.49,180.5,96.82,175.8,96.82Zm-49.46-44.7c-3.64,0-6.16.9-7.16,2.64-1.49,2.56.26,7.06,4.79,12.34,4.88,5.7,12.36,11.6,21.06,16.63s17.56,8.55,24.93,9.93c6.84,1.28,11.61.54,13.09-2s-.27-7.06-4.79-12.34c-4.88-5.7-12.36-11.6-21.07-16.63s-17.56-8.55-24.93-9.93A32.67,32.67,0,0,0,126.34,52.12Z"/><circle class="cls-2" cx="151.11" cy="73.19" r="5.79"/><polygon class="cls-2" points="53.35 49.66 45.05 96.53 17.62 105.24 -9.81 96.53 -18.11 49.66 17.62 32.22 53.35 49.66"/><g class="cls-4"><polygon class="cls-3" points="19.01 101.53 43.61 93.64 51.05 51.61 19.01 35.96 19.01 101.53"/></g><path class="cls-3" d="M14.48,50h6.33l14,36.84H27.45L24,77.62H11.16L7.79,86.8H.42Zm8.25,22.62L17.65,58.1l-5.3,14.48Z"/></svg>