<svg id="Слой_1" data-name="Слой 1" xmlns="http://www.w3.org/2000/svg" xmlns:xlink="http://www.w3.org/1999/xlink" viewBox="0 0 160 160"><defs><style>.cls-1,.cls-8,.cls-9{fill:none;}.cls-2{fill:#4a148c;}.cls-3{clip-path:url(#clip-path);}.cls-4{fill:#ffc800;}.cls-5,.cls-7{opacity:0.5;}.cls-6,.cls-7{fill:#fff;}.cls-8{stroke:#1a2e35;}.cls-8,.cls-9{stroke-miterlimit:10;stroke-width:0.75px;}.cls-9{stroke:#ffc800;}.cls-10{opacity:0.1;}.cls-11{fill:#c36358;}.cls-12{fill:#306;}.cls-13{clip-path:url(#clip-path-2);}.cls-14{fill:#ececec;}.cls-15{fill:#a8a8a8;}</style><clipPath id="clip-path"><rect class="cls-1" x="-6.56" y="-3.22" width="177" height="177"/></clipPath><clipPath id="clip-path-2"><rect class="cls-1" x="-216.56" y="-14.22" width="194" height="183"/></clipPath></defs><rect class="cls-2" x="-1086.56" y="-28.22" width="1497" height="226"/><g class="cls-3"><path class="cls-4" d="M116,119s3.33-33.42-5.85-45.34C101.23,62,74.2,59.21,69.46,41.72,65,25.17,80.9,20.15,79.66,6.75s-34.4-18-31.23-56.89c3.06-37.55,51.18-60.34,87.59-23.6,17,17.15,18,40.73,36.5,48.89s36-8.74,54.28,4S235.7,19.9,207.9,26c-22.58,4.95-32.26,5.79-37.83,15.76-6.49,11.63,1.68,17.51-4,27.06-5.3,9-22.41,12-32.14,19.92-11.86,9.6-14.35,30.07-14.35,30.07Z"/><g class="cls-5"><path class="cls-6" d="M116,119s3.33-33.42-5.85-45.34C101.23,62,74.2,59.21,69.46,41.72,65,25.17,80.9,20.15,79.66,6.75s-34.4-18-31.23-56.89c3.06-37.55,51.18-60.34,87.59-23.6,17,17.15,18,40.73,36.5,48.89s36-8.74,54.28,4S235.7,19.9,207.9,26c-22.58,4.95-32.26,5.79-37.83,15.76-6.49,11.63,1.68,17.51-4,27.06-5.3,9-22.41,12-32.14,19.92-11.86,9.6-14.35,30.07-14.35,30.07Z"/></g><path class="cls-4" d="M68.88,18.87a62.35,62.35,0,0,0-4.25,10.91,25.32,25.32,0,0,0-.76,10.45,19.78,19.78,0,0,0,1.38,4.94,28.26,28.26,0,0,0,2.51,4.76A92,92,0,0,0,75,59.23a25.14,25.14,0,0,1-10.8-6.37,21.7,21.7,0,0,1-4-5.28c-.26-.51-.52-1-.74-1.53l-.62-1.59a23.87,23.87,0,0,1-.8-3.34,20.67,20.67,0,0,1,.13-6.8,22.1,22.1,0,0,1,2.17-6.24A24.84,24.84,0,0,1,64,22.84,19.77,19.77,0,0,1,68.88,18.87Z"/><path class="cls-7" d="M68.88,18.87a62.35,62.35,0,0,0-4.25,10.91,25.32,25.32,0,0,0-.76,10.45,19.78,19.78,0,0,0,1.38,4.94,28.26,28.26,0,0,0,2.51,4.76A92,92,0,0,0,75,59.23a25.14,25.14,0,0,1-10.8-6.37,21.7,21.7,0,0,1-4-5.28c-.26-.51-.52-1-.74-1.53l-.62-1.59a23.87,23.87,0,0,1-.8-3.34,20.67,20.67,0,0,1,.13-6.8,22.1,22.1,0,0,1,2.17-6.24A24.84,24.84,0,0,1,64,22.84,19.77,19.77,0,0,1,68.88,18.87Z"/><path class="cls-4" d="M157.79,79.42c2.59-1.2,4.91-2.18,7-3.3a20.49,20.49,0,0,0,5.29-3.7,13.63,13.63,0,0,0,3.18-5.18,63.71,63.71,0,0,0,1.88-7.39,13.12,13.12,0,0,1,2.7,8.1,12.29,12.29,0,0,1-3.58,8.61,14.24,14.24,0,0,1-8.12,4,16.16,16.16,0,0,1-4.28.06A12.29,12.29,0,0,1,157.79,79.42Z"/><path class="cls-7" d="M157.79,79.42c2.59-1.2,4.91-2.18,7-3.3a20.49,20.49,0,0,0,5.29-3.7,13.63,13.63,0,0,0,3.18-5.18,63.71,63.71,0,0,0,1.88-7.39,13.12,13.12,0,0,1,2.7,8.1,12.29,12.29,0,0,1-3.58,8.61,14.24,14.24,0,0,1-8.12,4,16.16,16.16,0,0,1-4.28.06A12.29,12.29,0,0,1,157.79,79.42Z"/><path class="cls-6" d="M120.41,28.8c-3.55.18-8.35-5.42-11.38-13.51-3.3-8.82-3.06-16.78.54-18.12s9,4.5,12.3,13.32a33.11,33.11,0,0,1,2.31,11.67c-.06,3.5-1.07,5.79-2.85,6.45A3.14,3.14,0,0,1,120.41,28.8ZM110.53-2.29a2,2,0,0,0-.7.15c-3.11,1.16-3.16,9-.11,17.17S118,29.09,121.08,27.92c1.44-.54,2.31-2.64,2.37-5.77a32.53,32.53,0,0,0-2.27-11.4C118.35,3.18,113.67-2.44,110.53-2.29Z"/><path class="cls-6" d="M107.35,26.58a3.6,3.6,0,0,1-2.57-.74c-1.47-1.2-1.68-3.69-.6-7a33.14,33.14,0,0,1,6-10.29,33.12,33.12,0,0,1,9-7.84c3.06-1.69,5.55-2,7-.76s1.67,3.7.59,7a33.06,33.06,0,0,1-6,10.29C116.1,22.87,110.86,26.4,107.35,26.58ZM123.6-.06a10,10,0,0,0-4.13,1.4A32.36,32.36,0,0,0,110.73,9a32.27,32.27,0,0,0-5.85,10.05c-1,3-.83,5.24.36,6.23,2.56,2.1,9.4-1.79,14.93-8.5a32.27,32.27,0,0,0,5.85-10c1-3,.83-5.24-.36-6.23A2.94,2.94,0,0,0,123.6-.06Z"/><path class="cls-6" d="M122.37,20.17a38.28,38.28,0,0,1-8.05-.52h0a33,33,0,0,1-11.27-3.84c-3-1.8-4.47-3.82-4.16-5.69.64-3.79,8.41-5.54,17.69-4A33,33,0,0,1,127.85,10c3,1.8,4.47,3.82,4.16,5.69s-2.37,3.3-5.79,4A24.53,24.53,0,0,1,122.37,20.17ZM108.6,6.36c-5,.25-8.61,1.67-9,3.88-.26,1.53,1.13,3.33,3.81,4.94a32.15,32.15,0,0,0,11,3.74,32.42,32.42,0,0,0,11.63,0c3.06-.66,5-1.91,5.21-3.43s-1.13-3.33-3.81-4.94a32.15,32.15,0,0,0-11-3.74A36.7,36.7,0,0,0,108.6,6.36Z"/><path class="cls-6" d="M118.27,11.83a3,3,0,1,1-3.87-1.76A3,3,0,0,1,118.27,11.83Z"/><path class="cls-8" d="M127.91,41.28s2.21-7.62,6.09-8.86,8.05,2.32,11,1.36,3.68-5.49,2.09-7.53"/><path class="cls-9" d="M147.06,26.45a4.51,4.51,0,0,1-2.12-.52,16,16,0,0,1-2.86-2.58"/><path class="cls-9" d="M147.27,26.13a11.51,11.51,0,0,0,.06-2.25c-.12-.89-2.08-3.28-2.08-3.28"/><path class="cls-9" d="M147.16,26.33a17.91,17.91,0,0,1-2.6-1.77c-.52-.56-2.36-2.62-2.36-2.62"/><path class="cls-9" d="M147.24,26.23a21.46,21.46,0,0,0-1.65-3.17c-.48-.52-1.67-2.23-1.67-2.23"/><polygon class="cls-4" points="116.13 51.19 90.26 49.45 113.09 35.13 138.91 40.14 116.13 51.19"/><polygon class="cls-10" points="116.13 51.19 90.26 49.45 113.09 35.13 138.91 40.14 116.13 51.19"/><path class="cls-4" d="M103.87,55.79l-2.26-7.25s6.88-4.9,12.73-6,13.53.43,13.53.43l1,8.09s-8.79,0-13.5,1A86.27,86.27,0,0,0,103.87,55.79Z"/><path class="cls-6" d="M144.49,79.72l4-7.19-2.21-1.22a1.94,1.94,0,0,1-1-1.79q0-.61,0-1.23a2,2,0,0,1,.93-1.82l2.16-1.3-4.24-7-2.16,1.3a2,2,0,0,1-2,0,9.45,9.45,0,0,0-1.08-.59,2,2,0,0,1-1.12-1.72l0-2.52-8.22.16,0,2.52A2,2,0,0,1,128.42,59a5.39,5.39,0,0,0-.52.3c-.18.1-.35.21-.51.32a2,2,0,0,1-2,.12l-2.22-1.23-4,7.2,2.21,1.22a2,2,0,0,1,1,1.79,9.9,9.9,0,0,0,0,1.22,2,2,0,0,1-.93,1.82l-2.16,1.3,4.24,7,2.16-1.3a2,2,0,0,1,2,0,9.45,9.45,0,0,0,1.08.59,2,2,0,0,1,1.11,1.72l.05,2.52,8.22-.15L138.14,81a2,2,0,0,1,1.06-1.74l.53-.31.51-.32a2,2,0,0,1,2-.12Zm-7.21-4.83a6.73,6.73,0,1,1,2.3-9.24A6.72,6.72,0,0,1,137.28,74.89Z"/><path class="cls-6" d="M162.87,45.56l-3.12-4.84-1.48,1a1.36,1.36,0,0,1-1.43,0,7.94,7.94,0,0,0-.77-.39,1.38,1.38,0,0,1-.82-1.18l-.09-1.76-5.75.29.09,1.76a1.38,1.38,0,0,1-.69,1.25,7,7,0,0,0-.73.47,1.39,1.39,0,0,1-1.43.12l-1.57-.81-2.62,5.13,1.57.8a1.37,1.37,0,0,1,.74,1.24c0,.14,0,.28,0,.42l0,.42a1.37,1.37,0,0,1-.6,1.3l-1.49,1,3.12,4.84,1.48-1a1.38,1.38,0,0,1,1.44,0,6.06,6.06,0,0,0,.76.39,1.39,1.39,0,0,1,.82,1.18l.09,1.76,5.75-.29-.09-1.76a1.4,1.4,0,0,1,.69-1.25,6.84,6.84,0,0,0,.72-.47,1.41,1.41,0,0,1,1.44-.12l1.57.81,2.62-5.13-1.57-.8a1.38,1.38,0,0,1-.73-1.23c0-.15,0-.29,0-.43l0-.42a1.37,1.37,0,0,1,.6-1.31Zm-5.36,2.84a4.72,4.72,0,1,1-4.95-4.47A4.71,4.71,0,0,1,157.51,48.4Z"/><path class="cls-11" d="M61.07,80.71c3.75,26.25,13,59.86,21.67,67.21,7,5.94,45.36,18.57,47.52,19,5.36,1,19.23-36.26,13.77-38.29-6.9-2.54-40.34-6.41-42.09-8.53S89.32,100.33,77.11,80C68.69,66,58.74,64.42,61.07,80.71Z"/><path class="cls-11" d="M126.1,164.45c.62.38,9.37,5.75,14.88,7.86,4.11,1.57,16.07,5.79,18.26,1.44,1.49-3-5.25-6.28-10-8.73-2.49-1.28-5.43-4.25-4.54-5.84,1.57-2.78,8,.69,12.1,3.58,8,5.61,18.5,15.36,24,11.52,2.08-1.45.07-4.58-3-7.75,5.08,3.82,10.57,7.06,12.94,5.54,1.37-.87,1.54-2.2,1-3.79,1.61.68,3.09.7,4.2-.3,1.89-1.67,1.27-4.44-.41-7.36a2.1,2.1,0,0,0,1.68-.91c4.16-5.31-13-23-19.22-25.08-18.42-6-38.56-6.1-38.56-6.1C131.55,133.81,126.09,164.44,126.1,164.45Z"/><path class="cls-12" d="M155.2,149.47a32.07,32.07,0,0,1,12.13,5.88c4.51,3.55,7.36,7.5,11,11.54a.11.11,0,1,1-.16.15c-1.76-1.92-9.09-9.21-11-10.89a30.59,30.59,0,0,0-12-6.61C155.13,149.53,155.15,149.46,155.2,149.47Z"/><path class="cls-12" d="M159.37,141.79c4.83,1.76,9.78,3.56,14.17,6.28,4.8,3,8.38,7.48,11.9,11.81q3.18,3.92,6.18,8c.08.11-.07.26-.16.15-3.57-4.47-7.28-8.85-11.11-13.09a40.48,40.48,0,0,0-12.6-9.51c-2.74-1.31-5.57-2.42-8.4-3.52C159.3,141.85,159.32,141.77,159.37,141.79Z"/><path class="cls-4" d="M68.64,125.19l29.07-16.28S86.39,88.79,74.79,73.64s-16.25-6.44-14.58,10S68.64,125.19,68.64,125.19Z"/><path class="cls-12" d="M93.28,104.84A268.17,268.17,0,0,0,69,118.49c-.12.07,0,.27.12.21a269.77,269.77,0,0,0,24.34-13.64C93.55,105,93.41,104.77,93.28,104.84Z"/><path class="cls-10" d="M92.57,111.78,68.64,125.19s-6.77-25.11-8.43-41.55c-1.06-10.4.41-17.71,4.58-17.83Z"/><path class="cls-4" d="M-13.15,170.74h110c1.38-1-11.36-75.58-27.56-101.32-3-4.81-17.56-12.17-28.92-3.45C6.08,92.28-14.44,169.09-13.15,170.74Z"/><path class="cls-6" d="M116.16,115.21a62.71,62.71,0,0,1,11.36-4.6c5.27-1.35,16.82-3.45,18.88-4.3l3.49-.13-22.6,59.62-31,6.36-51.5-12.29,18.38-56.72,3.54-.18s6.54,1.79,12,2.8S102.8,107.6,116.16,115.21Z"/><polygon class="cls-10" points="91.75 173.67 111.96 116.22 60.99 102.56 41.85 161.2 91.75 173.67"/><polygon class="cls-10" points="91.75 173.67 99.17 174.08 119.46 116.63 111.96 116.22 91.75 173.67"/><polygon class="cls-10" points="99.17 174.08 119.46 116.63 151.4 105.66 128.12 166.37 99.17 174.08"/><path class="cls-11" d="M37.26,69C11.12,98.69-22,153.91-16.3,164.84c7.26,13.85,57.47,11.29,69.19,8.56,5-1.16-12.28-44.47-17.65-43.34-4.67,1-8.71,2-8.88,1.33s13.81-21.29,22.31-51C54.47,60.11,42.8,62.76,37.26,69Z"/><path class="cls-11" d="M11.72,150.69s1.94-2,10.51-14.21C28.15,128,48,111.25,76.15,118.1c10.79,2.62,13.66,11.34,2,10.61-8.23-.52-13.9-1.59-16.63-1,0,0,9.37,8.48,8.51,15.75a134.27,134.27,0,0,1-3.6,18.84,27.7,27.7,0,0,1-3.58-.36,15.41,15.41,0,0,1-11.4,11.8Z"/><path class="cls-11" d="M29.17,129.32c5.25-1.29,16.42-3.85,26.29-2.76,10.95,1.21,31.74,6.5,30.76,14.58-.72,5.92-8.83,4.6-8.83,4.6s8.13,4,6.31,9.21c-1.65,4.75-7.87,3.35-7.87,3.35s4.52,3.27,2,7.54c-3,5.13-12-2.57-19.46,0C56.73,166.44,29.17,129.32,29.17,129.32Z"/><path class="cls-12" d="M52.25,137.93c5.13-.41,17,1.66,25,7.6.19.13.18.34,0,.26A108.1,108.1,0,0,0,52.23,138C52.17,138,52.19,137.93,52.25,137.93Z"/><path class="cls-12" d="M51.35,149c4.46.1,16.64,2.78,24.56,9.08.17.14.15.35,0,.25a116.07,116.07,0,0,0-24.55-9.23A.05.05,0,0,1,51.35,149Z"/><path class="cls-12" d="M3.89,145c3.15-4.08,12.68-11.5,22.47-13.45.22,0,.37.1.18.18A108.36,108.36,0,0,0,4,145.08S3.85,145.05,3.89,145Z"/><path class="cls-4" d="M6.4,105.61l31.14,11.85s8.17-21.58,12.35-40.21-5.49-16.59-17-4.77S6.4,105.61,6.4,105.61Z"/><path class="cls-12" d="M47.18,93.35a.07.07,0,1,0-.12-.06l-1.61,3C46,94.27,46.54,92.2,47,90.1a.06.06,0,0,0-.12,0q-2.37,6.74-4.64,13.52c-1.51,4.52-3.22,9-4.68,13.52-.9-.18-1.38-.32-2-.43-.15,0-.25.14-.11.21a10,10,0,0,0,2.55,1c2-4.34,3.58-9.21,5.11-13.72q1.14-3.33,2.08-6.71A38.73,38.73,0,0,0,47.18,93.35Z"/><path class="cls-12" d="M37.82,111.45a269.55,269.55,0,0,0-26.07-9.89c-.14,0-.21.17-.08.23a267.71,267.71,0,0,0,26.07,9.91C37.88,111.75,38,111.51,37.82,111.45Z"/><path class="cls-11" d="M46.82,67.36c0,1.8,5.66,14.72,13.55,16.11C62.94,83.92,66,70,66,70l.46-1L73,55.37,56.38,38.73S46.82,66.6,46.82,67.36Z"/><path class="cls-12" d="M72.94,55.38,66.48,69,66,70s-.56,2.52-1.4,5.38c-10.28-4-13.35-13.07-14.23-19.07,2.71-8.06,6-17.59,6-17.59Z"/><path class="cls-11" d="M99.3,33.82c-3.41,32.19-23.08,33.78-30,33-6.3-.67-27.67-3.77-27.61-36.14s16.11-41,30.6-40.19S102.71,1.62,99.3,33.82Z"/><path class="cls-12" d="M91.09,38.65c3.55.54,2.21,7.6-1.08,7.1S88.11,38.2,91.09,38.65Z"/><path class="cls-12" d="M74.67,36.28c-3.53-.67-4.62,6.44-1.35,7.06S77.62,36.85,74.67,36.28Z"/><path class="cls-12" d="M94.2,34.61a21.86,21.86,0,0,1-2.07-.84,3.61,3.61,0,0,1-2-1.26,1.16,1.16,0,0,1,.25-1.38A2.87,2.87,0,0,1,93.31,31a4.22,4.22,0,0,1,2.33,1.92A1.23,1.23,0,0,1,94.2,34.61Z"/><path class="cls-12" d="M72.36,31.8a20.87,20.87,0,0,0,2.24-.08,3.56,3.56,0,0,0,2.26-.5,1.16,1.16,0,0,0,.25-1.39,2.9,2.9,0,0,0-2.66-1.15,4.26,4.26,0,0,0-2.85,1A1.23,1.23,0,0,0,72.36,31.8Z"/><path class="cls-12" d="M72.1,55.69c.39.63.74,1.44,1.5,1.69a5.69,5.69,0,0,0,2.43,0c.07,0,.13.08.07.13a3,3,0,0,1-3,.51,2.34,2.34,0,0,1-1.23-2.3C71.86,55.61,72,55.6,72.1,55.69Z"/><path class="cls-12" d="M82.59,49.5s-.14,3.32-.42,4.84c0,.15-.41.15-.93.08,0,0,0,0-.06,0a7.41,7.41,0,0,1-6.57-4,.16.16,0,0,1,.27-.17,11.14,11.14,0,0,0,6.29,3.11c.18-.41.06-5.76.29-5.67,1,.35,2.7,1.13,3.33,1.41.14-2.15.24-8.29.5-12.22,0-.24.4-.25.41,0a104.5,104.5,0,0,1,.42,13.83C86.11,51.06,83.15,49.87,82.59,49.5Z"/><path class="cls-12" d="M37.79,32.34c9,3.34,17.05-6.24,17.48-15.71,0,0,23.55,10.43,30.49-8.9A20.11,20.11,0,0,0,99.1,21.23l.61,8.05c2.73,0,7.5-6.35,3-13.75,0,0,2.45-9.93-3.06-17.93A13.94,13.94,0,0,0,85.82-8.64a21.11,21.11,0,0,0-13.7-8C62.75-18.1,56.63-11,56.63-11S43.81-12.19,39.22-4.17a18.64,18.64,0,0,0-1.83,15.1s-4,2.49-4.65,10.3C32.35,26.25,35.08,31.33,37.79,32.34Z"/><path class="cls-12" d="M85.73,5.83a24.13,24.13,0,0,1-1.36,4.82A19.71,19.71,0,0,1,82.12,15a12.9,12.9,0,0,1-7.74,5.4c-3.14.92-6.48.23-9.69-.38-1.58-.51-3.2-.92-4.75-1.52s-3.09-1.3-4.67-1.9c1.46.84,3,1.62,4.44,2.43s3.15,1.24,4.73,1.87c3.28.81,6.77,1.54,10.22.65a13.52,13.52,0,0,0,8.22-6A20.52,20.52,0,0,0,85.73,5.83Z"/><path class="cls-12" d="M56.63-11A23.73,23.73,0,0,0,47-11.64a14.19,14.19,0,0,0-8.71,4.36A15.67,15.67,0,0,0,35.8-3a14.36,14.36,0,0,0-1.15,4.79,13.19,13.19,0,0,0,2.74,9.15,14.59,14.59,0,0,1-1.84-9.07A16.16,16.16,0,0,1,39.2-6.5a12.06,12.06,0,0,1,3.58-2.79,18.42,18.42,0,0,1,4.39-1.46A30.27,30.27,0,0,1,56.63-11Z"/><path class="cls-12" d="M85.82-8.64a23.89,23.89,0,0,1,7.61.72A14.69,14.69,0,0,1,99.9-4.37,14.87,14.87,0,0,1,103.56,2a26,26,0,0,1,1,7.59,19,19,0,0,0-.07-7.81,14,14,0,0,0-3.72-7,13.88,13.88,0,0,0-7.08-3.6A18.24,18.24,0,0,0,85.82-8.64Z"/><path class="cls-12" d="M95,20.89a26.41,26.41,0,0,1-6.26-6.17,15.73,15.73,0,0,1-2-3.84,19,19,0,0,1-1-4.32,10.89,10.89,0,0,0,.09,4.58,11.89,11.89,0,0,0,1.9,4.25A14.71,14.71,0,0,0,91,18.72,13.63,13.63,0,0,0,95,20.89Z"/><path class="cls-11" d="M61.21,40.29a.54.54,0,0,1-.7.24.52.52,0,0,1-.24-.7.51.51,0,0,1,.69-.24A.53.53,0,0,1,61.21,40.29Z"/><path class="cls-11" d="M71.28,44.55a.52.52,0,0,1-.7.24.51.51,0,0,1-.24-.69.52.52,0,0,1,.69-.25A.53.53,0,0,1,71.28,44.55Z"/><path class="cls-11" d="M66.15,46.34a.52.52,0,0,1-.7.24.51.51,0,0,1-.24-.69.52.52,0,0,1,.69-.25A.53.53,0,0,1,66.15,46.34Z"/><path class="cls-11" d="M63.34,36.52a.53.53,0,0,1-.7.25.52.52,0,0,1-.24-.7.51.51,0,0,1,.69-.24A.52.52,0,0,1,63.34,36.52Z"/><path class="cls-11" d="M66.71,41.4a.52.52,0,0,1-.69.25.53.53,0,0,1-.25-.7.52.52,0,0,1,.7-.24A.51.51,0,0,1,66.71,41.4Z"/><path class="cls-11" d="M94.2,46.22a.51.51,0,0,1-.69.24.52.52,0,0,1-.25-.69.53.53,0,0,1,.7-.25A.52.52,0,0,1,94.2,46.22Z"/><path class="cls-11" d="M89.25,47.13a.53.53,0,0,1-.7.25.54.54,0,0,1-.24-.7.52.52,0,0,1,.7-.24A.52.52,0,0,1,89.25,47.13Z"/><path class="cls-11" d="M88.7,50.68a.53.53,0,0,1-.7.25.54.54,0,0,1-.24-.7.52.52,0,0,1,.7-.24A.51.51,0,0,1,88.7,50.68Z"/><path class="cls-11" d="M92.94,50.06a.52.52,0,0,1-.7.24.51.51,0,0,1-.24-.69.52.52,0,0,1,.69-.25A.53.53,0,0,1,92.94,50.06Z"/><path class="cls-2" d="M66.53,47.85a11.31,11.31,0,1,1,14.58-10.3h0A11.32,11.32,0,0,1,69.3,48.33,11.47,11.47,0,0,1,66.53,47.85Zm6.13-20.19a9.8,9.8,0,1,0,6.94,9.82A9.88,9.88,0,0,0,72.66,27.66Z"/><path class="cls-2" d="M91.15,52c-4.14-1.26-6.61-6.64-5.56-12.45a13.5,13.5,0,0,1,3.75-7.35,7,7,0,0,1,11.87,2.13,13.51,13.51,0,0,1,1,8.21C101.05,48.7,96.44,53,91.87,52.2A6.25,6.25,0,0,1,91.15,52Zm5-20.46a5.66,5.66,0,0,0-.56-.13,6,6,0,0,0-5.22,1.88,11.9,11.9,0,0,0-3.31,6.53c-1,5.32,1.3,10.19,5.06,10.86s7.57-3.1,8.53-8.41A12,12,0,0,0,99.85,35,6.24,6.24,0,0,0,96.17,31.57Z"/><path class="cls-2" d="M80.62,38.79,80,37.68c1.64-.94,5.22-2,7.07.91L86,39.28C84.33,36.71,80.77,38.7,80.62,38.79Z"/><path class="cls-2" d="M34.9,33.07l-1-.78c.36-.47,3.62-4.6,6.5-4.55,2.7.05,19.23,4.65,19.93,4.85L60,33.82c-4.73-1.33-17.52-4.77-19.6-4.81C38.47,29,35.78,31.93,34.9,33.07Z"/><path class="cls-11" d="M47.47,34.33s-5-11.26-10-9.67-2.57,17,2.34,20a5.48,5.48,0,0,0,7.76-1.49Z"/><path class="cls-12" d="M38.29,29.06c-.08,0-.12.09-.06.13,3.42,2.23,4.7,6,5.37,9.87-.83-1.59-2.19-2.63-4.28-1.68-.11,0,0,.22.06.22a3.38,3.38,0,0,1,3.42,1.86A16.42,16.42,0,0,1,44,42.74c.11.37.74.31.69-.1,0,0,0-.06,0-.09C45.65,37.84,43.27,30.52,38.29,29.06Z"/></g><g class="cls-13"><rect class="cls-6" x="-207.13" y="-14.22" width="251.92" height="179.09"/><rect class="cls-4" x="-207.13" y="-8.07" width="251.87" height="40.89"/><rect class="cls-14" x="-26.55" y="32.82" width="71.29" height="132.04"/><rect class="cls-15" x="-3.44" y="42.79" width="41.14" height="27.68"/><rect class="cls-6" x="-0.34" y="45.2" width="31.19" height="1.51"/><rect class="cls-6" x="-0.34" y="49.57" width="25.62" height="0.75"/><rect class="cls-6" x="-0.34" y="51.47" width="25.62" height="0.75"/><rect class="cls-6" x="-0.34" y="53.37" width="25.62" height="0.75"/><rect class="cls-6" x="-0.34" y="57.17" width="25.62" height="0.75"/><rect class="cls-6" x="-0.34" y="59.07" width="25.62" height="0.75"/><rect class="cls-6" x="-0.34" y="60.98" width="25.62" height="0.75"/><rect class="cls-6" x="-0.34" y="62.88" width="25.62" height="0.75"/><rect class="cls-6" x="-0.34" y="64.78" width="25.62" height="0.75"/><rect class="cls-4" x="-3.44" y="74.3" width="41.14" height="39.17"/><rect class="cls-6" x="-0.34" y="76.81" width="31.19" height="1.51"/><rect class="cls-6" x="-0.34" y="81.19" width="25.62" height="0.75"/><rect class="cls-6" x="-0.34" y="83.09" width="25.62" height="0.75"/><rect class="cls-6" x="-0.34" y="84.99" width="25.62" height="0.75"/><rect class="cls-6" x="-0.34" y="101.58" width="31.19" height="1.51"/><rect class="cls-6" x="-0.34" y="105.95" width="25.62" height="0.75"/><rect class="cls-6" x="-0.34" y="107.85" width="25.62" height="0.75"/><rect class="cls-6" x="-0.34" y="88.79" width="25.62" height="0.75"/><rect class="cls-6" x="-0.34" y="90.69" width="25.62" height="0.75"/><rect class="cls-6" x="-0.34" y="92.59" width="25.62" height="0.75"/><rect class="cls-6" x="-0.34" y="94.49" width="25.62" height="0.75"/><rect class="cls-6" x="-0.34" y="96.39" width="25.62" height="0.75"/></g></svg>