<svg id="Слой_1" data-name="Слой 1" xmlns="http://www.w3.org/2000/svg" viewBox="0 0 581.13 402.55"><defs><style>.cls-1{font-size:81.43px;font-family:Impact;}.cls-1,.cls-2{fill:#306;}.cls-3,.cls-5{fill:#fff;}.cls-4{fill:#ffc800;}.cls-5{opacity:0.5;}.cls-6{fill:#ffaba1;}.cls-7{opacity:0.1;}.cls-8{fill:#4a148c;}.cls-9{fill:#a8a8a8;}.cls-10{fill:#c8c8c8;}.cls-11{fill:#ff9cbf;}</style></defs><text class="cls-1" transform="translate(476.58 86.18) rotate(90)">BIZNES</text><path class="cls-2" d="M474.47,29.54H539v12.6H474.47Z"/><path class="cls-2" d="M474.47,50.19H539V62.78H474.47Z"/><path class="cls-2" d="M485.71,75.56V18.3h12.6V75.56Z"/><path class="cls-2" d="M511.27,75.56V18.3h12.6V75.56Z"/><circle class="cls-3" cx="269.22" cy="199.05" r="175.5"/><path class="cls-4" d="M86.7,198.35C86.7,97.81,168.49,16,269,16S451.36,97.81,451.36,198.35,369.57,380.68,269,380.68,86.7,298.88,86.7,198.35Zm8.93,0c0,95.61,77.79,173.39,173.4,173.39S442.43,294,442.43,198.35,364.64,25,269,25,95.63,102.73,95.63,198.35Z"/><circle class="cls-4" cx="269.03" cy="198.35" r="157.46" transform="translate(-61.46 248.33) rotate(-45)"/><circle class="cls-5" cx="269.03" cy="198.35" r="157.46" transform="translate(-61.46 248.33) rotate(-45)"/><path class="cls-6" d="M359.56,179.06c-13,19.25-81.06,111.41-117.76,110-44.46-1.68-98.76-19.45-121.36-34.76-12.67-8.59,31.18-70.06,43.53-63.77,19.46,9.91,64.73,24.22,72.56,25.94s64.57-40.67,98.68-59.25C365.94,140.51,368.73,165.5,359.56,179.06Z"/><path class="cls-6" d="M122.62,255c-8.39-3.51-52.71-25.23-61.8-33S27.16,190.2,32.36,182.63s13-1.08,13-1.08-8.76-11.83-2.82-19,17.67,3.36,17.67,3.36-8.11-12.81-1.68-19.51S75,152.26,75,152.26s-8-11.36-.34-14.65c9.16-4,21.47,18.65,32.16,26.43,2.42,1.76,51.71,32.29,51.71,32.29Z"/><path class="cls-2" d="M74.09,151.2c9.09,16.61,15.94,22.3,32.23,31.34.32.18.13.69-.22.54-16.76-7.4-26.38-13.3-32.84-31.48C72.94,150.71,73.65,150.41,74.09,151.2Z"/><path class="cls-2" d="M59.48,164.6c11,16.43,18.33,22.66,34.7,33.39.23.15,0,.56-.25.43-16.94-9.18-26.4-15.29-35.19-33.13C58.34,164.48,59,163.85,59.48,164.6Z"/><path class="cls-2" d="M46.18,182.07C57.93,197.21,65.72,204.4,83,212.77a.35.35,0,0,1-.27.65c-18.4-6.83-28.19-15.73-36.92-30.94C45.16,181.44,45.44,181.12,46.18,182.07Z"/><path class="cls-6" d="M176.43,202.18S168,180,162.1,171.11s-39.95-34.09-45.8-27c-7.56,9.11,9.25,27.52,18.67,35.46,0,0-17.51,21.05-8.3,36.87S176.43,202.18,176.43,202.18Z"/><path class="cls-2" d="M115,147.25c-.9,13.28,12.13,22.91,20.68,31.29a1.1,1.1,0,0,1-.22,1.79c-6.75,9.31-13.56,24.41-9.56,35.88a.28.28,0,0,1-.51.22c-6-11.71-.47-27.09,7.57-36.82-8.91-8.46-21.55-18.69-18.09-32.37C114.93,147.16,115.05,147.17,115,147.25Z"/><path class="cls-4" d="M179.11,194,139.9,272.54s85.92,33.25,119.36,14.56,85.15-82.89,95.91-97.54c23.55-32.05,5.06-48.86-21.2-32.51s-91.25,56.25-95.42,57.38S179.11,194,179.11,194Z"/><path class="cls-7" d="M266.65,282.44c33.19-22.9,78.52-79.28,88.51-92.89,21.38-29.1,8.14-45.61-14.15-36.16Z"/><path class="cls-8" d="M161.06,274.64c5-8.63,9.51-17.54,14-26.45s9-17.84,13.3-26.88c2.42-5.1,4.87-10.2,7.11-15.39.06-.13-.15-.27-.23-.13-5,8.62-9.55,17.51-14.1,26.38s-9,17.84-13.41,26.82c-2.48,5.08-4.87,10.2-7.11,15.4C160.52,274.64,160.92,274.9,161.06,274.64Z"/><path class="cls-4" d="M281.9,331.5A157.54,157.54,0,0,0,463.44,322c-8.61-44.74-29.76-121.12-73.57-171.43-12.23-14.06-45.56-9.94-49.45-4.31C314.27,184.27,291.07,283.38,281.9,331.5Z"/><polygon class="cls-9" points="317.58 364.06 221.35 386.64 171.21 254.7 267.45 232.12 317.58 364.06"/><polygon class="cls-10" points="312.86 365.17 216.62 387.75 166.49 255.81 262.72 233.23 312.86 365.17"/><path class="cls-3" d="M225.63,307.5a10.72,10.72,0,0,0,12.38,7,8.68,8.68,0,0,0,6.35-11.37,10.72,10.72,0,0,0-12.38-7A8.68,8.68,0,0,0,225.63,307.5Z"/><path class="cls-6" d="M407.21,168.63c27.83,38.75,87.7,127.24,70,147.68-29,33.61-99.93,63.05-122.14,69.7-9.59,2.88-43.9-66.78-34.86-72.51,10.84-6.87,80.3-34.16,80.64-37.52.37-3.69-12.63-51.35-16.91-89C378.67,140.34,395.6,152.47,407.21,168.63Z"/><path class="cls-6" d="M355.15,308.62s-29.21-8.56-48.57-13.27c-10.81-2.62-29.73-5.47-38.55-3.77-13.19,2.55-66.73,21.63-62.39,34.71,3.94,11.84,47.86-10.39,47.86-10.39s-46.3,18.52-38.95,31.9,53.64-18.33,53.64-18.33-47.14,20.09-37.37,32.7c7.39,9.52,50.92-16.84,50.92-16.84s-40.4,17.55-33.23,27.67c7.93,11.19,49.64-10.63,49.64-10.63,22.56,22.67,42.14,25.69,57,23.64C358.55,385.54,355.15,308.62,355.15,308.62Z"/><path class="cls-2" d="M266.94,309.42c-35.15,11-49,27.21-48.55,26.85,10.75-8.39,29.67-17.5,35-20s8.34-4.23,13.65-6.7C267.17,309.55,267.07,309.37,266.94,309.42Z"/><path class="cls-2" d="M278.34,327.53c-17,4.14-34.68,14.32-40.23,18.78-.44.36-.19.46.33.2,6.69-3.31,33.17-15.84,40-18.82C278.52,327.64,278.45,327.5,278.34,327.53Z"/><path class="cls-2" d="M289.21,342.46c-14.91,4.85-21.09,8.52-30.72,15.46-.46.33-.05.48.46.21,10.12-5.33,18-9.59,30.39-15.29C289.53,342.75,289.44,342.39,289.21,342.46Z"/><path class="cls-4" d="M341.6,302.72l39.1,83.39S473.91,335.88,481,312.26s-56.35-127.41-75.6-148.58-25.51-12.5-25,11.66,19.53,99.47,19.07,100.87S341.6,302.72,341.6,302.72Z"/><path class="cls-2" d="M392.52,240.64q-1.89-8.46-3.69-17c-.62-2.94-1.23-5.88-1.89-8.82-.31-1.35-.6-2.7-.91-4.05-.15-.67-.37-1.35-.48-2-.41-2.49,0-.29-.68-2.68a.14.14,0,0,0-.28,0c.16,1.56-.16.94.14,2.12a24,24,0,0,1,.46,2.67c.21,1.37.43,2.73.65,4.1.44,2.8,1,5.59,1.48,8.38.07.36.15.73.22,1.09,0-.1-.06-.2-.1-.3-1-3-2.1-6-3.17-9a.11.11,0,0,0-.21.06c.71,3.13,1.54,6.19,2.54,9.23.59,1.76,1.27,3.48,2,5.19.73,3.72,1.45,7.44,2.23,11.15,2.43,11.49,4.93,23,8.27,34.3-4.88,2.23-9.86,4.24-14.74,6.48s-9.75,4.57-14.61,6.88-9.73,4.6-14.54,7c-2.3,1.14-4.58,2.33-6.87,3.49-2.48,1.27-4.84,2.82-7.35,4-.26.12,0,.49.23.37,2.61-1.2,5.4-2.07,8-3.21,2.32-1,4.66-2,7-3,4.91-2.21,9.79-4.5,14.68-6.78s9.76-4.55,14.61-6.88,9.56-4.9,14.38-7.25a.52.52,0,0,0,.31-.35.62.62,0,0,0,.26-.65C398,263.63,395.11,252.17,392.52,240.64Z"/><path class="cls-2" d="M380.47,335.62c-2.91-6-14.72-30.12-18.11-35.88-.06-.09-.22,0-.19.08,2.17,6.12,13.13,30.23,16,36.28,5.79,12.08,11.36,24.34,18.46,35.72.12.2.5.09.4-.16C392.35,359.3,386.21,347.53,380.47,335.62Z"/><path class="cls-6" d="M344.58,176.54c10.27,3.69,30.21-10.38,38.85-22.64.58-.84.28-10.44.47-22.12.14-7.09.46-15,1.27-22.16l-46.26,5.83s2.72,15.55,1.23,28.06a16.09,16.09,0,0,1-.65,2.91c0,.13-.09.29-.12.48C337.83,152.39,334.66,173,344.58,176.54Z"/><path class="cls-2" d="M340.14,143.5a16.7,16.7,0,0,1-.54,2.52c22.67-1.26,36.61-11.9,44.49-21,.19-5.12.51-10.43,1.08-15.39l-46.25,5.82S341.63,131,340.14,143.5Z"/><path class="cls-6" d="M400.76,60.18c2,16.67-14.45,60.88-27.51,69.07-18.94,11.87-45.89,8.54-54.95-13.3-8.79-21.16,13.7-78.39,27.91-85.42C367.14,20.18,397.79,35.55,400.76,60.18Z"/><path class="cls-2" d="M353.93,78.7c.06-.1.18.23.13.35-1.19,3-2.06,6.53.28,8.51.07.06,0,.21-.09.16C351.13,86,352.33,81.31,353.93,78.7Z"/><path class="cls-2" d="M357.73,76.57c4.93,1.39,1.78,11.15-2.79,9.86S353.6,75.4,357.73,76.57Z"/><path class="cls-2" d="M335.74,72.23c0-.13-.28.06-.32.19-.88,3-2.41,6.4-5.47,6.52-.09,0-.13.16,0,.18C333.41,79.73,335.39,75.26,335.74,72.23Z"/><path class="cls-2" d="M334.06,68.19c-4.74-1.94-8.28,7.69-3.88,9.49S338,69.82,334.06,68.19Z"/><path class="cls-2" d="M363,73.35a39.42,39.42,0,0,1-3.35-2.55c-1.28-1-2.39-1.66-2.92-3.26a2.17,2.17,0,0,1,1.14-2.39c1.88-.82,3.74,0,5.33,1.14a7.92,7.92,0,0,1,3.28,4.65C367.05,72.92,364.64,74.36,363,73.35Z"/><path class="cls-2" d="M331.87,62.06a39.62,39.62,0,0,0,4.21.25c1.61.08,2.89.3,4.34-.57a2.17,2.17,0,0,0,.69-2.55c-.89-1.86-2.84-2.44-4.78-2.61A7.83,7.83,0,0,0,330.81,58C329.11,59.11,330,61.77,331.87,62.06Z"/><path class="cls-2" d="M346.89,107c-1,.47-2,1.21-3.12,1a8.41,8.41,0,0,1-3-1.81.11.11,0,0,0-.19.11,4.29,4.29,0,0,0,3.31,2.88,3.36,3.36,0,0,0,3.24-1.9C347.24,107.06,347,106.92,346.89,107Z"/><path class="cls-2" d="M346.64,96.91a10.85,10.85,0,0,1-8.36,2.35,13.39,13.39,0,0,1-3.75-1,3.88,3.88,0,0,1-.68-.31,6.23,6.23,0,0,1-.63-.32.79.79,0,0,1-.39-.87v0a1.19,1.19,0,0,1,.12-.29v0l.09-.26c.69-2.35,2.06-5.82,2.06-5.82-1,.15-5.95.7-5.49-.49C333.49,80,337.77,69,343.7,60a.3.3,0,0,1,.53.26c-3.34,9.64-8.34,18.62-11.84,28.25,1.55-.08,4.13-.32,5.34.09.3.21-2.77,6.66-3,7.74a.5.5,0,0,0,0,.11c3.74,1.77,7.08,1.54,11.72.14C346.72,96.44,346.9,96.72,346.64,96.91Z"/><path class="cls-2" d="M336.23,97.89a12.81,12.81,0,0,0,3.9,5.21,5.78,5.78,0,0,0,3.32,1.14c2.63,0,3.31-2.2,3.38-4.25a14.07,14.07,0,0,0-.28-3.24A16.66,16.66,0,0,1,336.23,97.89Z"/><path class="cls-11" d="M340.13,103.1a5.78,5.78,0,0,0,3.32,1.14c2.63,0,3.31-2.2,3.38-4.25C344.14,99.54,341.05,100.61,340.13,103.1Z"/><path class="cls-2" d="M385.18,94.91c-7.66-2.71-1.4-21.54-1.4-21.54s-11.27-5.57-12.37-23.55c0,0-18.06,5.18-30.22-.85-19-9.46-10.95-35.42-1.9-38.57,12.84-4.46,28.66,12,28.66,12s31.05.3,34,22.21c0,0,12.66,4.26,9.45,18.67S390.89,96.93,385.18,94.91Z"/><path class="cls-2" d="M385.92,76.42a27.48,27.48,0,0,1-12.64-12.54c-2.68-5.74-2.95-13.44.5-18.91.19-.3-.31-.58-.48-.27-3.35,6.23-4.93,13.17-2.32,20C373.37,71,379,76,385.71,77A.3.3,0,0,0,385.92,76.42Z"/><path class="cls-2" d="M414.81,55.3c-2.5-6.16-8.32-8.69-14.36-10.21-.34-.09-.47.48-.12.54,6.07,1,10.86,6.66,12.53,12.35s-.76,11.33-3.47,16.19a43.51,43.51,0,0,1-23.86,20,.14.14,0,0,0,.08.26,43.44,43.44,0,0,0,26.58-21.82C414.79,67.48,417.12,61,414.81,55.3Z"/><path class="cls-2" d="M368.46,23.58a20.37,20.37,0,0,0-8.59-11.64A24.45,24.45,0,0,0,342.7,8.81c-4.88.92-8.53,4.6-10.22,9.29-1.93,5.34-.86,11.2,1,16.35a.12.12,0,0,0,.23-.08c-1.32-4.75-1.91-9.87-.21-14.65A12.7,12.7,0,0,1,343.78,11C353.08,9.71,365,13.8,368,23.75A.27.27,0,0,0,368.46,23.58Z"/><path class="cls-6" d="M384.38,95.68S397.59,83,403.54,88s-6,24.8-14.44,26.16a8.14,8.14,0,0,1-9.84-6.41Z"/><path class="cls-2" d="M400,93.59a.11.11,0,0,1,0,.22c-5.94,1.14-9.85,5.66-12.92,10.54,2-1.71,4.48-2.38,6.82.11.13.13-.06.33-.2.26a5,5,0,0,0-5.74.64,23.92,23.92,0,0,0-3.45,3.86c-.36.44-1.2,0-.9-.53a.75.75,0,0,0,.07-.12C384.91,101.53,392.3,92.8,400,93.59Z"/><path class="cls-3" d="M339.51,145.92l9.84,27.22,34.43-32.49,9,11.18s-34.46,52.4-34.58,50l-10.12-23.42-16.48,15.4,2.82-40.12Z"/><path class="cls-2" d="M331.85,173.87c.69-6.61,1.2-13.28,2.19-19.85,0-.23.41-.32.45,0,1.09,6.44-1.67,31.7-1.88,37.77l.08-.07c.68-.66,15.24-13.51,15.37-13.3,2.25,3.75,9.68,20.8,10.17,22.34,5.46-8.32,26.29-38.54,32.67-46.36a.22.22,0,0,1,.38.24c-4.87,8.82-32.46,49.54-32.86,49.4-.28.2-9.52-20.8-10.57-24.75-2.49,2.83-17.24,17.4-17.25,16.41A208.79,208.79,0,0,1,331.85,173.87Z"/></svg>