<svg id="Слой_1" data-name="Слой 1" xmlns="http://www.w3.org/2000/svg" viewBox="0 0 581.13 402.55"><defs><style>.cls-1,.cls-3{fill:#fff;}.cls-2{fill:#ffc800;}.cls-3{opacity:0.5;}.cls-4{fill:#ffaba1;}.cls-11,.cls-5{fill:#306;}.cls-6{opacity:0.1;}.cls-7{fill:#4a148c;}.cls-8{fill:#a8a8a8;}.cls-9{fill:#c8c8c8;}.cls-10{fill:#ff9cbf;}.cls-11{font-size:65.9px;font-family:Impact;}</style></defs><circle class="cls-1" cx="271.74" cy="199.05" r="175.5"/><path class="cls-2" d="M89.22,198.35C89.22,97.81,171,16,271.55,16S453.88,97.81,453.88,198.35s-81.8,182.33-182.33,182.33S89.22,298.88,89.22,198.35Zm8.93,0c0,95.61,77.79,173.39,173.4,173.39S444.94,294,444.94,198.35,367.16,25,271.55,25,98.15,102.73,98.15,198.35Z"/><circle class="cls-2" cx="271.55" cy="198.35" r="157.46" transform="translate(-60.72 250.11) rotate(-45)"/><circle class="cls-3" cx="271.55" cy="198.35" r="157.46" transform="translate(-60.72 250.11) rotate(-45)"/><path class="cls-4" d="M362.08,179.06c-13,19.25-81.07,111.41-117.76,110-44.46-1.68-98.76-19.45-121.36-34.76-12.67-8.59,31.18-70.06,43.52-63.77,19.47,9.91,64.74,24.22,72.57,25.94s64.57-40.67,98.68-59.25C368.45,140.51,371.25,165.5,362.08,179.06Z"/><path class="cls-4" d="M125.14,255c-8.39-3.51-52.71-25.23-61.81-33S29.67,190.2,34.88,182.63s13-1.08,13-1.08-8.76-11.83-2.82-19,17.67,3.36,17.67,3.36S54.59,153.13,61,146.43s16.47,5.83,16.47,5.83-8-11.36-.35-14.65c9.17-4,21.48,18.65,32.16,26.43,2.43,1.76,51.72,32.29,51.72,32.29Z"/><path class="cls-5" d="M76.6,151.2c9.1,16.61,16,22.3,32.24,31.34.32.18.13.69-.22.54-16.76-7.4-26.39-13.3-32.84-31.48C75.46,150.71,76.17,150.41,76.6,151.2Z"/><path class="cls-5" d="M62,164.6C73,181,80.32,187.26,96.69,198c.24.15,0,.56-.24.43C79.51,189.24,70,183.13,61.26,165.29,60.86,164.48,61.5,163.85,62,164.6Z"/><path class="cls-5" d="M48.7,182.07c11.75,15.14,19.54,22.33,36.77,30.7a.35.35,0,0,1-.27.65C66.8,206.59,57,197.69,48.28,182.48,47.68,181.44,48,181.12,48.7,182.07Z"/><path class="cls-4" d="M179,202.18s-8.46-22.16-14.33-31.07-39.95-34.09-45.8-27c-7.56,9.11,9.25,27.52,18.66,35.46,0,0-17.51,21.05-8.3,36.87S179,202.18,179,202.18Z"/><path class="cls-5" d="M117.56,147.25c-.91,13.28,12.12,22.91,20.68,31.29a1.1,1.1,0,0,1-.22,1.79c-6.75,9.31-13.56,24.41-9.56,35.88a.28.28,0,0,1-.51.22c-6-11.71-.48-27.09,7.57-36.82-8.91-8.46-21.55-18.69-18.09-32.37A.07.07,0,0,1,117.56,147.25Z"/><path class="cls-2" d="M181.62,194l-39.2,78.54s85.91,33.25,119.36,14.56,85.15-82.89,95.91-97.54c23.55-32.05,5.06-48.86-21.2-32.51s-91.26,56.25-95.42,57.38S181.62,194,181.62,194Z"/><path class="cls-6" d="M269.16,282.44c33.2-22.9,78.53-79.28,88.52-92.89,21.38-29.1,8.14-45.61-14.15-36.16Z"/><path class="cls-7" d="M163.58,274.64c5-8.63,9.51-17.54,14-26.45s9-17.84,13.3-26.88c2.41-5.1,4.86-10.2,7.11-15.39.05-.13-.16-.27-.23-.13-5,8.62-9.55,17.51-14.1,26.38s-9,17.84-13.41,26.82c-2.48,5.08-4.87,10.2-7.11,15.4C163,274.64,163.43,274.9,163.58,274.64Z"/><path class="cls-2" d="M284.41,331.5A157.56,157.56,0,0,0,466,322c-8.61-44.74-29.76-121.12-73.57-171.43-12.23-14.06-45.57-9.94-49.45-4.31C316.79,184.27,293.58,283.38,284.41,331.5Z"/><polygon class="cls-8" points="320.1 364.06 223.87 386.64 173.73 254.7 269.96 232.12 320.1 364.06"/><polygon class="cls-9" points="315.38 365.17 219.14 387.75 169 255.81 265.24 233.23 315.38 365.17"/><path class="cls-1" d="M228.15,307.5a10.72,10.72,0,0,0,12.38,7,8.67,8.67,0,0,0,6.34-11.37,10.7,10.7,0,0,0-12.37-7A8.68,8.68,0,0,0,228.15,307.5Z"/><path class="cls-4" d="M409.73,168.63c27.83,38.75,87.69,127.24,70,147.68-29,33.61-99.93,63.05-122.15,69.7-9.58,2.88-43.89-66.78-34.86-72.51,10.85-6.87,80.3-34.16,80.64-37.52.38-3.69-12.63-51.35-16.9-89C381.19,140.34,398.11,152.47,409.73,168.63Z"/><path class="cls-4" d="M357.67,308.62s-29.21-8.56-48.58-13.27c-10.8-2.62-29.72-5.47-38.54-3.77-13.19,2.55-66.73,21.63-62.39,34.71C212.09,338.13,256,315.9,256,315.9s-46.3,18.52-38.94,31.9,53.64-18.33,53.64-18.33-47.14,20.09-37.37,32.7c7.38,9.52,50.92-16.84,50.92-16.84S243.86,362.88,251,373c7.92,11.19,49.64-10.63,49.64-10.63C323.23,385,342.81,388.06,357.61,386,361.06,385.54,357.67,308.62,357.67,308.62Z"/><path class="cls-5" d="M269.45,309.42c-35.14,11-49,27.21-48.54,26.85,10.75-8.39,29.67-17.5,35-20s8.34-4.23,13.66-6.7C269.69,309.55,269.59,309.37,269.45,309.42Z"/><path class="cls-5" d="M280.85,327.53c-17,4.14-34.67,14.32-40.22,18.78-.45.36-.19.46.33.2,6.68-3.31,33.16-15.84,40-18.82C281,327.64,281,327.5,280.85,327.53Z"/><path class="cls-5" d="M291.72,342.46c-14.9,4.85-21.09,8.52-30.71,15.46-.46.33-.06.48.46.21,10.11-5.33,18-9.59,30.39-15.29C292.05,342.75,292,342.39,291.72,342.46Z"/><path class="cls-2" d="M344.12,302.72l39.1,83.39s93.21-50.23,100.25-73.85-56.35-127.41-75.6-148.58-25.51-12.5-25,11.66S402.44,274.81,402,276.21,344.12,302.72,344.12,302.72Z"/><path class="cls-5" d="M395,240.64q-1.91-8.46-3.69-17c-.62-2.94-1.23-5.88-1.89-8.82-.31-1.35-.6-2.7-.91-4.05-.15-.67-.37-1.35-.48-2-.41-2.49,0-.29-.68-2.68,0-.16-.3-.12-.28,0,.16,1.56-.16.94.14,2.12a24,24,0,0,1,.46,2.67c.2,1.37.43,2.73.64,4.1.45,2.8,1,5.59,1.49,8.38.07.36.15.73.22,1.09,0-.1-.07-.2-.1-.3-1-3-2.11-6-3.17-9-.05-.13-.25-.07-.21.06.71,3.13,1.54,6.19,2.54,9.23.58,1.76,1.27,3.48,2,5.19.74,3.72,1.45,7.44,2.24,11.15,2.42,11.49,4.92,23,8.26,34.3-4.87,2.23-9.86,4.24-14.73,6.48s-9.75,4.57-14.61,6.88-9.73,4.6-14.55,7c-2.29,1.14-4.57,2.33-6.86,3.49-2.49,1.27-4.84,2.82-7.35,4-.26.12,0,.49.23.37,2.61-1.2,5.39-2.07,8-3.21,2.32-1,4.65-2,7-3,4.92-2.21,9.8-4.5,14.68-6.78s9.76-4.55,14.61-6.88,9.56-4.9,14.39-7.25a.55.55,0,0,0,.31-.35.64.64,0,0,0,.26-.65C400.55,263.63,397.62,252.17,395,240.64Z"/><path class="cls-5" d="M383,335.62c-2.91-6-14.72-30.12-18.12-35.88-.05-.09-.22,0-.18.08,2.16,6.12,13.12,30.23,16,36.28,5.79,12.08,11.36,24.34,18.45,35.72.13.2.5.09.41-.16C394.87,359.3,388.73,347.53,383,335.62Z"/><path class="cls-4" d="M347.1,176.54c10.27,3.69,30.21-10.38,38.84-22.64.59-.84.29-10.44.47-22.12.14-7.09.47-15,1.28-22.16l-46.26,5.83s2.72,15.55,1.22,28.06a16.09,16.09,0,0,1-.64,2.91c0,.13-.09.29-.12.48C340.34,152.39,337.17,173,347.1,176.54Z"/><path class="cls-5" d="M342.66,143.5a16.7,16.7,0,0,1-.54,2.52c22.66-1.26,36.6-11.9,44.49-21,.18-5.12.51-10.43,1.07-15.39l-46.24,5.82S344.15,131,342.66,143.5Z"/><path class="cls-4" d="M403.28,60.18c2,16.67-14.46,60.88-27.52,69.07-18.93,11.87-45.88,8.54-54.95-13.3-8.78-21.16,13.7-78.39,27.92-85.42C369.66,20.18,400.3,35.55,403.28,60.18Z"/><path class="cls-5" d="M356.44,78.7c.07-.1.18.23.13.35-1.18,3-2.05,6.53.29,8.51.07.06,0,.21-.09.16C353.65,86,354.84,81.31,356.44,78.7Z"/><path class="cls-5" d="M360.25,76.57c4.93,1.39,1.77,11.15-2.79,9.86S356.12,75.4,360.25,76.57Z"/><path class="cls-5" d="M338.26,72.23c0-.13-.29.06-.32.19-.89,3-2.41,6.4-5.47,6.52-.09,0-.13.16,0,.18C335.93,79.73,337.91,75.26,338.26,72.23Z"/><path class="cls-5" d="M336.58,68.19c-4.75-1.94-8.28,7.69-3.89,9.49S340.55,69.82,336.58,68.19Z"/><path class="cls-5" d="M365.54,73.35a41.07,41.07,0,0,1-3.35-2.55c-1.27-1-2.39-1.66-2.91-3.26a2.16,2.16,0,0,1,1.14-2.39c1.88-.82,3.74,0,5.33,1.14A8,8,0,0,1,369,70.94C369.56,72.92,367.16,74.36,365.54,73.35Z"/><path class="cls-5" d="M334.39,62.06a39.62,39.62,0,0,0,4.21.25c1.61.08,2.89.3,4.33-.57a2.16,2.16,0,0,0,.7-2.55c-.89-1.86-2.85-2.44-4.79-2.61A7.85,7.85,0,0,0,333.32,58C331.63,59.11,332.51,61.77,334.39,62.06Z"/><path class="cls-5" d="M349.4,107c-.95.47-2,1.21-3.11,1a8.53,8.53,0,0,1-3-1.81.11.11,0,0,0-.18.11,4.29,4.29,0,0,0,3.31,2.88c1.45.21,2.5-.76,3.24-1.9C349.75,107.06,349.54,106.92,349.4,107Z"/><path class="cls-5" d="M349.15,96.91a10.83,10.83,0,0,1-8.35,2.35,13.45,13.45,0,0,1-3.76-1,4.69,4.69,0,0,1-.68-.31c-.21-.1-.4-.19-.63-.32a.81.81,0,0,1-.39-.87v0a1.85,1.85,0,0,1,.13-.29v0l.09-.26c.69-2.35,2.06-5.82,2.06-5.82-1,.15-6,.7-5.49-.49C336,80,340.29,69,346.22,60a.29.29,0,0,1,.52.26c-3.33,9.64-8.33,18.62-11.83,28.25,1.55-.08,4.12-.32,5.33.09.3.21-2.77,6.66-3,7.74a.27.27,0,0,0,0,.11c3.75,1.77,7.08,1.54,11.73.14C349.24,96.44,349.41,96.72,349.15,96.91Z"/><path class="cls-5" d="M338.75,97.89a12.81,12.81,0,0,0,3.9,5.21,5.75,5.75,0,0,0,3.32,1.14c2.62,0,3.3-2.2,3.38-4.25a13.75,13.75,0,0,0-.29-3.24A16.61,16.61,0,0,1,338.75,97.89Z"/><path class="cls-10" d="M342.65,103.1a5.75,5.75,0,0,0,3.32,1.14c2.62,0,3.3-2.2,3.38-4.25C346.66,99.54,343.57,100.61,342.65,103.1Z"/><path class="cls-5" d="M387.7,94.91c-7.66-2.71-1.41-21.54-1.41-21.54S375,67.8,373.92,49.82c0,0-18.06,5.18-30.21-.85-19-9.46-11-35.42-1.9-38.57,12.84-4.46,28.66,12,28.66,12s31,.3,34,22.21c0,0,12.65,4.26,9.45,18.67S393.4,96.93,387.7,94.91Z"/><path class="cls-5" d="M388.44,76.42a27.5,27.5,0,0,1-12.65-12.54c-2.67-5.74-2.94-13.44.51-18.91.19-.3-.32-.58-.49-.27-3.34,6.23-4.92,13.17-2.31,20C375.89,71,381.49,76,388.22,77A.3.3,0,0,0,388.44,76.42Z"/><path class="cls-5" d="M417.33,55.3C414.82,49.14,409,46.61,403,45.09a.28.28,0,0,0-.12.54c6.07,1,10.86,6.66,12.53,12.35s-.76,11.33-3.48,16.19a43.46,43.46,0,0,1-23.85,20,.14.14,0,0,0,.08.26A43.42,43.42,0,0,0,414.7,72.66C417.31,67.48,419.63,61,417.33,55.3Z"/><path class="cls-5" d="M371,23.58a20.42,20.42,0,0,0-8.59-11.64,24.45,24.45,0,0,0-17.17-3.13c-4.89.92-8.53,4.6-10.22,9.29-1.93,5.34-.87,11.2,1,16.35a.12.12,0,0,0,.23-.08c-1.32-4.75-1.92-9.87-.22-14.65A12.73,12.73,0,0,1,346.3,11c9.3-1.28,21.19,2.81,24.17,12.76A.27.27,0,0,0,371,23.58Z"/><path class="cls-4" d="M386.9,95.68S400.11,83,406.06,88s-6,24.8-14.44,26.16a8.14,8.14,0,0,1-9.84-6.41Z"/><path class="cls-5" d="M402.49,93.59a.11.11,0,0,1,0,.22c-5.94,1.14-9.85,5.66-12.93,10.54,2-1.71,4.49-2.38,6.83.11.12.13-.06.33-.21.26a5,5,0,0,0-5.74.64,24.4,24.4,0,0,0-3.45,3.86c-.35.44-1.19,0-.89-.53l.07-.12C387.42,101.53,394.82,92.8,402.49,93.59Z"/><path class="cls-1" d="M342,145.92l9.83,27.22,34.44-32.49,9,11.18s-34.47,52.4-34.58,50l-10.12-23.42-16.48,15.4,2.82-40.12Z"/><path class="cls-5" d="M334.37,173.87c.69-6.61,1.2-13.28,2.19-19.85,0-.23.4-.32.45,0,1.09,6.44-1.68,31.7-1.88,37.77a.46.46,0,0,0,.07-.07c.69-.66,15.25-13.51,15.38-13.3,2.25,3.75,9.68,20.8,10.17,22.34,5.45-8.32,26.29-38.54,32.66-46.36a.23.23,0,0,1,.39.24c-4.87,8.82-32.47,49.54-32.86,49.4-.28.2-9.52-20.8-10.57-24.75-2.49,2.83-17.25,17.4-17.26,16.41A208.8,208.8,0,0,1,334.37,173.87Z"/><text class="cls-11" transform="translate(525.18 209.5) rotate(-90)">BIZNES</text><path class="cls-5" d="M526.89,255.35H474.64v-10.2h52.25Z"/><path class="cls-5" d="M526.89,238.64H474.64v-10.2h52.25Z"/><path class="cls-5" d="M517.8,218.1v46.34H507.6V218.1Z"/><path class="cls-5" d="M497.11,218.1v46.34H486.92V218.1Z"/></svg>