<svg id="Слой_1" data-name="Слой 1" xmlns="http://www.w3.org/2000/svg" viewBox="0 0 581.13 402.55"><defs><style>.cls-1{fill:#ffc800;}.cls-2,.cls-9{fill:#fff;}.cls-2{opacity:0.5;}.cls-3{fill:#ffaba1;}.cls-4{fill:#306;}.cls-5{opacity:0.1;}.cls-6{fill:#4a148c;}.cls-7{fill:#a8a8a8;}.cls-8{fill:#c8c8c8;}.cls-10{fill:#ff9cbf;}</style></defs><path class="cls-1" d="M278.1,383.88c-100.53,0-182.32-81.8-182.32-182.33S177.57,19.22,278.1,19.22,460.43,101,460.43,201.55,378.64,383.88,278.1,383.88Zm0-355.73c-95.61,0-173.39,77.79-173.39,173.4S182.49,374.94,278.1,374.94s173.4-77.78,173.4-173.39S373.72,28.15,278.1,28.15Z"/><circle class="cls-1" cx="278.1" cy="201.55" r="157.46" transform="translate(-61.06 255.68) rotate(-45)"/><circle class="cls-2" cx="278.1" cy="201.55" r="157.46" transform="translate(-61.06 255.68) rotate(-45)"/><path class="cls-3" d="M187.57,182.26c13,19.25,81.07,111.41,117.76,110,44.46-1.68,98.76-19.45,121.36-34.76,12.67-8.59-31.18-70-43.52-63.77C363.7,203.67,318.43,218,310.6,219.7S246,179,211.93,160.45C181.2,143.71,178.4,168.7,187.57,182.26Z"/><path class="cls-3" d="M424.51,258.21c8.39-3.51,52.71-25.23,61.81-32.95S520,193.4,514.77,185.83s-13-1.07-13-1.07,8.76-11.84,2.83-19S487,169.14,487,169.14s8.11-12.81,1.68-19.51-16.46,5.83-16.46,5.83,8-11.36.34-14.65c-9.17-4-21.48,18.65-32.16,26.43-2.43,1.76-51.72,32.29-51.72,32.29Z"/><path class="cls-4" d="M473.05,154.41C464,171,457.11,176.7,440.81,185.75c-.32.17-.12.69.22.53,16.77-7.4,26.39-13.3,32.85-31.48C474.19,153.92,473.48,153.62,473.05,154.41Z"/><path class="cls-4" d="M487.65,167.81c-10.95,16.42-18.32,22.65-34.69,33.38-.23.16,0,.56.25.43,16.93-9.18,26.4-15.29,35.18-33.13C488.79,167.68,488.15,167.05,487.65,167.81Z"/><path class="cls-4" d="M501,185.28c-11.74,15.13-19.54,22.32-36.76,30.69a.35.35,0,0,0,.27.65c18.39-6.83,28.18-15.73,36.92-30.94C502,184.64,501.69,184.32,501,185.28Z"/><path class="cls-3" d="M370.7,205.38s8.47-22.16,14.33-31.07,40-34.09,45.81-27c7.56,9.11-9.26,27.52-18.67,35.46,0,0,17.51,21.05,8.3,36.87S370.7,205.38,370.7,205.38Z"/><path class="cls-4" d="M432.09,150.45c.91,13.28-12.12,22.91-20.68,31.29a1.1,1.1,0,0,0,.22,1.79c6.75,9.31,13.56,24.42,9.56,35.88a.28.28,0,0,0,.51.22c6-11.71.48-27.09-7.57-36.82,8.91-8.46,21.55-18.69,18.09-32.37A.07.07,0,0,0,432.09,150.45Z"/><path class="cls-1" d="M368,197.2l39.2,78.54S321.32,309,287.87,290.3,202.73,207.41,192,192.76c-23.54-32-5.06-48.86,21.2-32.51s91.26,56.26,95.43,57.38S368,197.2,368,197.2Z"/><path class="cls-5" d="M280.49,285.64c-33.2-22.9-78.53-79.28-88.52-92.89-21.38-29.1-8.14-45.61,14.16-36.16Z"/><path class="cls-6" d="M386.07,277.85c-5-8.64-9.51-17.55-14-26.46s-9-17.84-13.31-26.87c-2.41-5.11-4.86-10.2-7.1-15.4-.06-.13.15-.27.23-.13,5,8.62,9.54,17.51,14.09,26.38s9,17.84,13.42,26.83c2.47,5.07,4.86,10.2,7.1,15.39C386.61,277.84,386.22,278.1,386.07,277.85Z"/><path class="cls-1" d="M265.24,334.7A157.54,157.54,0,0,1,83.7,325.22c8.6-44.74,29.75-121.12,73.56-171.43,12.24-14.06,45.57-9.94,49.45-4.31C232.86,187.47,256.07,286.58,265.24,334.7Z"/><polygon class="cls-7" points="229.55 367.26 325.78 389.84 375.92 257.9 279.69 235.32 229.55 367.26"/><polygon class="cls-8" points="234.28 368.37 330.51 390.95 380.65 259.01 284.42 236.43 234.28 368.37"/><path class="cls-9" d="M321.5,310.7a10.72,10.72,0,0,1-12.38,7,8.68,8.68,0,0,1-6.34-11.37,10.7,10.7,0,0,1,12.37-7A8.67,8.67,0,0,1,321.5,310.7Z"/><path class="cls-3" d="M139.93,171.84c-27.84,38.74-87.7,127.23-70,147.67,29.05,33.61,99.94,63.05,122.15,69.7,9.58,2.88,43.9-66.78,34.86-72.51-10.85-6.87-80.3-34.16-80.64-37.52-.37-3.69,12.63-51.35,16.9-89C168.46,143.55,151.54,155.67,139.93,171.84Z"/><path class="cls-3" d="M192,311.82s29.21-8.56,48.58-13.27c10.8-2.62,29.73-5.47,38.54-3.76,13.2,2.54,66.74,21.62,62.39,34.7-3.93,11.84-47.85-10.39-47.85-10.39s46.3,18.52,38.94,31.9-53.64-18.33-53.64-18.33,47.15,20.09,37.37,32.7c-7.38,9.52-50.92-16.84-50.92-16.84s40.41,17.55,33.23,27.67C290.7,387.39,249,365.57,249,365.57c-22.56,22.67-42.14,25.69-56.94,23.64C188.59,388.74,192,311.82,192,311.82Z"/><path class="cls-4" d="M280.2,312.62c35.14,11,49,27.21,48.54,26.85-10.75-8.39-29.67-17.49-35-20s-8.34-4.23-13.65-6.69C280,312.75,280.06,312.57,280.2,312.62Z"/><path class="cls-4" d="M268.8,330.73c17,4.14,34.67,14.32,40.22,18.78.45.36.19.46-.33.2-6.68-3.31-33.16-15.84-40-18.82C268.61,330.84,268.69,330.7,268.8,330.73Z"/><path class="cls-4" d="M257.93,345.66c14.9,4.85,21.09,8.52,30.71,15.46.46.33.06.48-.46.21-10.11-5.33-18-9.58-30.38-15.29C257.6,346,257.7,345.59,257.93,345.66Z"/><path class="cls-1" d="M205.53,305.92l-39.1,83.39S73.22,339.08,66.19,315.46s56.34-127.41,75.6-148.58,25.5-12.5,25,11.66S147.22,278,147.68,279.42,205.53,305.92,205.53,305.92Z"/><path class="cls-4" d="M154.61,243.84q1.9-8.46,3.7-17c.62-2.94,1.22-5.88,1.89-8.82l.9-4.05c.15-.67.38-1.35.49-2,.4-2.49,0-.29.67-2.68,0-.16.3-.12.28,0-.16,1.56.16.94-.14,2.12a24,24,0,0,0-.46,2.67c-.2,1.37-.42,2.73-.64,4.1-.45,2.8-1,5.59-1.48,8.38-.07.36-.15.73-.22,1.1l.09-.31c1-3,2.11-6,3.18-9,0-.13.24-.07.21.07-.72,3.12-1.54,6.18-2.55,9.23-.58,1.75-1.27,3.47-2,5.18-.74,3.72-1.45,7.44-2.23,11.15-2.43,11.49-4.93,23-8.27,34.3,4.88,2.23,9.86,4.24,14.73,6.48s9.75,4.57,14.61,6.88,9.73,4.61,14.55,7c2.3,1.14,4.57,2.33,6.86,3.49,2.49,1.27,4.84,2.82,7.35,4,.26.12,0,.49-.23.37-2.61-1.2-5.39-2.06-8-3.21-2.32-1-4.65-2-7-3-4.92-2.21-9.8-4.5-14.68-6.78s-9.76-4.55-14.61-6.88-9.56-4.9-14.39-7.25a.53.53,0,0,1-.3-.35.63.63,0,0,1-.27-.65C149.1,266.83,152,255.37,154.61,243.84Z"/><path class="cls-4" d="M166.66,338.82c2.91-6,14.73-30.12,18.12-35.88.05-.09.22,0,.18.08-2.16,6.12-13.12,30.23-16,36.28-5.79,12.08-11.36,24.34-18.45,35.73-.13.2-.5.08-.41-.17C154.79,362.5,160.93,350.73,166.66,338.82Z"/><path class="cls-3" d="M202.55,179.74c-10.26,3.69-30.21-10.38-38.84-22.64-.59-.84-.29-10.44-.47-22.12-.14-7.09-.46-15-1.28-22.15l46.26,5.82S205.5,134.2,207,146.71a17,17,0,0,0,.64,2.91c0,.13.09.29.12.48C209.31,155.59,212.48,176.16,202.55,179.74Z"/><path class="cls-4" d="M207,146.7a15.93,15.93,0,0,0,.53,2.53c-22.66-1.27-36.6-11.91-44.49-21-.18-5.12-.51-10.43-1.07-15.39l46.24,5.82S205.5,134.21,207,146.7Z"/><path class="cls-3" d="M146.37,63.38c-2,16.68,14.46,60.88,27.52,69.07,18.93,11.87,45.88,8.54,55-13.3,8.79-21.16-13.7-78.39-27.91-85.42C180,23.39,149.35,38.75,146.37,63.38Z"/><path class="cls-4" d="M193.21,81.9c-.07-.1-.18.23-.13.35,1.19,3,2,6.53-.28,8.51-.08.06,0,.21.08.16C196,89.24,194.81,84.51,193.21,81.9Z"/><path class="cls-4" d="M189.4,79.77c-4.93,1.39-1.77,11.16,2.8,9.86S193.54,78.6,189.4,79.77Z"/><path class="cls-4" d="M211.4,75.43c0-.13.28.06.31.19.89,3,2.41,6.4,5.47,6.52.1,0,.14.16,0,.18C213.72,82.93,211.74,78.46,211.4,75.43Z"/><path class="cls-4" d="M213.08,71.4c4.74-2,8.27,7.68,3.88,9.48S209.1,73,213.08,71.4Z"/><path class="cls-4" d="M184.11,76.55A39.42,39.42,0,0,0,187.46,74c1.27-1,2.39-1.66,2.92-3.26a2.18,2.18,0,0,0-1.14-2.39c-1.89-.82-3.75,0-5.33,1.14a7.88,7.88,0,0,0-3.28,4.65C180.09,76.12,182.5,77.56,184.11,76.55Z"/><path class="cls-4" d="M215.26,65.26a39.28,39.28,0,0,1-4.2.25c-1.62.08-2.9.3-4.34-.57a2.16,2.16,0,0,1-.7-2.55c.89-1.85,2.85-2.44,4.79-2.61a7.85,7.85,0,0,1,5.52,1.39C218,62.31,217.14,65,215.26,65.26Z"/><path class="cls-4" d="M200.25,110.19c.95.47,2,1.21,3.12,1a8.41,8.41,0,0,0,3-1.81.11.11,0,0,1,.18.11,4.28,4.28,0,0,1-3.31,2.88c-1.44.21-2.5-.76-3.24-1.9C199.9,110.26,200.11,110.12,200.25,110.19Z"/><path class="cls-4" d="M200.5,100.11a10.87,10.87,0,0,0,8.35,2.36,13.82,13.82,0,0,0,3.76-1,4.25,4.25,0,0,0,.68-.31c.21-.1.4-.19.63-.32a.78.78,0,0,0,.39-.87v0a1.6,1.6,0,0,0-.13-.3v0l-.09-.26C213.38,97,212,93.51,212,93.51c1,.16,6,.7,5.5-.49-3.86-9.87-8.15-20.85-14.07-29.86a.29.29,0,0,0-.53.25c3.33,9.64,8.33,18.62,11.84,28.25-1.56-.08-4.13-.32-5.34.09-.3.21,2.77,6.66,3,7.74a.29.29,0,0,1,0,.12c-3.75,1.76-7.08,1.53-11.73.13C200.41,99.64,200.24,99.93,200.5,100.11Z"/><path class="cls-4" d="M210.91,101.09a12.91,12.91,0,0,1-3.9,5.21,5.78,5.78,0,0,1-3.33,1.14c-2.62,0-3.3-2.2-3.38-4.25a13.75,13.75,0,0,1,.29-3.24A16.64,16.64,0,0,0,210.91,101.09Z"/><path class="cls-10" d="M207,106.3a5.78,5.78,0,0,1-3.33,1.14c-2.62,0-3.3-2.2-3.38-4.25C203,102.74,206.08,103.81,207,106.3Z"/><path class="cls-4" d="M162,98.11c7.66-2.71,1.41-21.53,1.41-21.53S174.63,71,175.73,53c0,0,18.06,5.18,30.21-.85,19.05-9.46,11-35.42,1.9-38.57-12.83-4.46-28.65,12-28.65,12s-31.06.3-34,22.21c0,0-12.65,4.26-9.44,18.67S156.25,100.14,162,98.11Z"/><path class="cls-4" d="M161.21,79.62a27.5,27.5,0,0,0,12.65-12.54c2.67-5.74,2.95-13.44-.51-18.91-.18-.3.32-.58.49-.26,3.34,6.22,4.92,13.16,2.31,20-2.39,6.25-8,11.32-14.72,12.28C161.11,80.23,160.89,79.79,161.21,79.62Z"/><path class="cls-4" d="M132.33,58.5c2.5-6.16,8.32-8.69,14.35-10.21.35-.09.47.48.13.54-6.08,1-10.86,6.66-12.54,12.35s.76,11.33,3.48,16.19a43.49,43.49,0,0,0,23.85,20c.17.06.09.32-.08.26A43.42,43.42,0,0,1,135,75.86C132.34,70.68,130,64.18,132.33,58.5Z"/><path class="cls-4" d="M178.67,26.79a20.42,20.42,0,0,1,8.6-11.65A24.36,24.36,0,0,1,204.43,12c4.89.91,8.53,4.59,10.22,9.28,1.93,5.34.87,11.2-1,16.35a.13.13,0,0,1-.24-.07c1.32-4.76,1.92-9.88.22-14.66a12.73,12.73,0,0,0-10.31-8.73C194.05,12.91,182.16,17,179.19,27A.27.27,0,0,1,178.67,26.79Z"/><path class="cls-3" d="M162.76,98.88s-13.22-12.67-19.17-7.68,6,24.8,14.45,26.16a8.12,8.12,0,0,0,9.83-6.41Z"/><path class="cls-4" d="M147.16,96.79a.11.11,0,0,0,0,.22c5.94,1.14,9.85,5.66,12.93,10.55-2-1.72-4.49-2.39-6.83.1-.12.13.06.33.21.26a5,5,0,0,1,5.74.64,24.35,24.35,0,0,1,3.45,3.86c.35.44,1.19,0,.89-.53l-.07-.12C162.23,104.73,154.83,96,147.16,96.79Z"/><path class="cls-9" d="M207.63,149.12l-9.84,27.22-34.44-32.49-9,11.18s34.47,52.4,34.58,50l10.12-23.41L215.55,197l-2.81-40.12Z"/><path class="cls-4" d="M215.28,177.07c-.69-6.6-1.19-13.28-2.19-19.85,0-.23-.4-.32-.45,0-1.08,6.44,1.68,31.7,1.88,37.77l-.07-.07c-.69-.66-15.25-13.51-15.38-13.29-2.24,3.74-9.68,20.79-10.17,22.33-5.45-8.32-26.29-38.54-32.66-46.36a.23.23,0,0,0-.39.24c4.87,8.83,32.47,49.54,32.86,49.4.28.2,9.53-20.8,10.58-24.74,2.48,2.82,17.24,17.39,17.25,16.4A208.8,208.8,0,0,0,215.28,177.07Z"/></svg>