<svg id="Слой_1" data-name="Слой 1" xmlns="http://www.w3.org/2000/svg" viewBox="0 0 830 870"><defs><style>.cls-1{fill:#4a148c;}.cls-2{fill:#ffc800;}.cls-3,.cls-4{fill:#fff;}.cls-4{font-size:103.63px;font-family:Bauhaus93, "Bauhaus 93";}</style></defs><rect class="cls-1" x="357.3" y="354.5" width="113.16" height="6.37" transform="translate(52.88 768.69) rotate(-89.54)"/><circle class="cls-2" cx="415.64" cy="259.38" r="54.07" transform="translate(-61.01 146.07) rotate(-18.59)"/><circle class="cls-1" cx="415.64" cy="259.38" r="54.07" transform="translate(-61.01 146.07) rotate(-18.59)"/><rect class="cls-1" x="412.45" y="444.77" width="6.37" height="127.86"/><circle class="cls-2" cx="415.64" cy="610.63" r="54.07"/><circle class="cls-1" cx="415.64" cy="610.63" r="54.07"/><path class="cls-1" d="M304.8,549.8l1.13,1.72c3-2,6-4.08,9.05-6.26l-1.2-1.66C310.79,545.76,307.77,547.85,304.8,549.8Z"/><path class="cls-1" d="M237.58,578.48l.43,2c3.59-.77,7.18-1.64,10.69-2.61l-.55-2C244.69,576.86,241.13,577.72,237.58,578.48Z"/><path class="cls-1" d="M261.11,571.81l.69,1.94c3.44-1.23,6.9-2.58,10.28-4l-.8-1.9C267.94,569.27,264.52,570.6,261.11,571.81Z"/><path class="cls-1" d="M188.84,584l0,2.05c3.65-.05,7.36-.18,11-.4l-.12-2C196.14,583.85,192.47,584,188.84,584Z"/><path class="cls-1" d="M213.34,582.46l.24,2c3.57-.41,7.24-.91,10.9-1.49l-.32-2C220.53,581.55,216.89,582.05,213.34,582.46Z"/><path class="cls-1" d="M283.62,562.12l.93,1.83c3.25-1.65,6.51-3.41,9.68-5.23l-1-1.78C290.07,558.74,286.84,560.49,283.62,562.12Z"/><path class="cls-1" d="M556.41,280.62l1.29,1.6q4.24-3.42,8.61-6.74l-1.25-1.63Q560.68,277.18,556.41,280.62Z"/><path class="cls-1" d="M537.59,296.63l1.37,1.52c2.71-2.42,5.45-4.83,8.22-7.2l-1.33-1.56Q541.67,293,537.59,296.63Z"/><path class="cls-1" d="M519.6,313.58,521,315q3.9-3.84,7.87-7.61l-1.41-1.49Q523.5,309.72,519.6,313.58Z"/><path class="cls-1" d="M502.44,331.24l1.5,1.4q3.72-4,7.51-7.9L510,323.31Q506.17,327.26,502.44,331.24Z"/><path class="cls-1" d="M576.13,265.72l1.18,1.67q4.46-3.15,9-6.19l-1.14-1.71Q580.59,262.55,576.13,265.72Z"/><path class="cls-1" d="M485.93,349.53l1.54,1.34q3.6-4.1,7.25-8.16l-1.53-1.38C490.74,344.05,488.33,346.78,485.93,349.53Z"/><path class="cls-1" d="M618.22,239.86l.95,1.82c3.24-1.7,6.53-3.35,9.76-4.91l-.9-1.85C624.78,236.49,621.48,238.16,618.22,239.86Z"/><path class="cls-1" d="M596.74,252.08l1.08,1.75q4.63-2.85,9.39-5.58l-1-1.78Q601.41,249.22,596.74,252.08Z"/><rect class="cls-1" x="422.55" y="421.51" width="10.97" height="2.05" transform="translate(-168.57 498.79) rotate(-51.91)"/><path class="cls-1" d="M470,368.28l1.58,1.31q3.48-4.2,7-8.37L477,359.9Q473.46,364.07,470,368.28Z"/><path class="cls-1" d="M377.18,483.62l1.55,1.35q3.58-4.11,7.16-8.32l-1.56-1.33Q380.76,479.52,377.18,483.62Z"/><path class="cls-1" d="M343.16,519.19l1.41,1.5q4-3.74,7.91-7.62L351,511.61Q347.13,515.48,343.16,519.19Z"/><path class="cls-1" d="M393.11,464.81l1.58,1.3q3.48-4.22,6.94-8.5l-1.6-1.29Q396.58,460.6,393.11,464.81Z"/><path class="cls-1" d="M360.61,501.84l1.49,1.41q3.76-4,7.48-8l-1.51-1.38Q364.35,497.9,360.61,501.84Z"/><path class="cls-1" d="M439.05,406.79l1.62,1.26c2.25-2.86,4.51-5.74,6.78-8.61l-1.61-1.28Q442.42,402.48,439.05,406.79Z"/><path class="cls-1" d="M408.6,445.62l1.6,1.28q3.41-4.29,6.81-8.61L415.39,437Q412,441.34,408.6,445.62Z"/><path class="cls-1" d="M454.37,387.42l1.61,1.29q3.42-4.27,6.88-8.54l-1.6-1.29Q457.79,383.16,454.37,387.42Z"/><path class="cls-1" d="M324.62,535.32l1.29,1.6c2.82-2.26,5.66-4.63,8.44-7L333,528.33C330.25,530.72,327.42,533.07,324.62,535.32Z"/><path class="cls-1" d="M257.1,355.41q4.65,2.88,9.42,5.66l1-1.78q-4.74-2.76-9.37-5.63Z"/><path class="cls-1" d="M300.48,379.1c3.26,1.6,6.57,3.19,9.89,4.76l.88-1.86q-5-2.34-9.87-4.74Z"/><path class="cls-1" d="M278.5,367.8q4.8,2.61,9.71,5.14l.94-1.82q-4.89-2.53-9.67-5.12Z"/><rect class="cls-1" x="372.56" y="405" width="2.05" height="10.97" transform="translate(-150.06 594.49) rotate(-67.06)"/><path class="cls-1" d="M322.84,389.62q5,2.25,10,4.48l.83-1.88q-5-2.22-10-4.47Z"/><path class="cls-1" d="M345.43,399.6q5,2.17,10.08,4.33l.8-1.89-10.07-4.32Z"/><path class="cls-1" d="M199.73,308.7c2.44,2.71,5,5.4,7.57,8l1.45-1.45c-2.56-2.55-5.08-5.22-7.5-7.9Z"/><path class="cls-1" d="M184.35,289.28c2.08,3,4.28,6,6.54,8.89l1.62-1.26c-2.24-2.86-4.41-5.82-6.47-8.8Z"/><path class="cls-1" d="M171.66,268.06c1.67,3.27,3.45,6.51,5.29,9.64l1.77-1c-1.82-3.09-3.58-6.3-5.23-9.53Z"/><path class="cls-1" d="M390.86,418.92q5,2.13,10.08,4.31l.81-1.89q-5.06-2.18-10.09-4.31Z"/><path class="cls-1" d="M217.29,326.12c2.68,2.37,5.51,4.77,8.39,7.11l1.3-1.59c-2.87-2.33-5.67-4.7-8.32-7.06Z"/><path class="cls-1" d="M236.58,341.61c2.92,2.14,5.95,4.26,9,6.32l1.16-1.7c-3-2.05-6-4.16-8.94-6.28Z"/><path class="cls-1" d="M562.21,514.29c2.79,2.31,5.57,4.67,8.31,7.08l1.36-1.54q-4.14-3.63-8.37-7.12Z"/><path class="cls-1" d="M580.63,530.56q4,3.74,7.83,7.62l1.46-1.45q-3.9-3.9-7.88-7.66Z"/><path class="cls-1" d="M597.91,548c2.49,2.69,4.94,5.43,7.29,8.15l1.55-1.35c-2.36-2.73-4.83-5.48-7.33-8.19Z"/><path class="cls-1" d="M542.79,499.2q4.41,3.23,8.74,6.56l1.26-1.62q-4.37-3.36-8.79-6.59Z"/><path class="cls-1" d="M613.92,566.66c2.26,2.82,4.51,5.73,6.68,8.63l1.65-1.22c-2.19-2.93-4.45-5.86-6.72-8.69Z"/><path class="cls-1" d="M630.25,585.22l-1.69,1.17c2.06,3,4.1,6.06,6.05,9.1l1.73-1.11C634.38,591.32,632.33,588.24,630.25,585.22Z"/><path class="cls-1" d="M480.12,460.4q4.81,2.57,9.59,5.21l1-1.8q-4.79-2.65-9.62-5.22Z"/><path class="cls-1" d="M436,438.73q5,2.28,9.9,4.61l.87-1.86q-4.95-2.34-9.92-4.61Z"/><path class="cls-1" d="M458.24,449.24q4.89,2.42,9.77,4.88l.92-1.84q-4.87-2.47-9.79-4.88Z"/><path class="cls-1" d="M522.53,485.25c3.05,2,6.09,4,9.09,6.07l1.17-1.69q-4.54-3.11-9.14-6.1Z"/><path class="cls-1" d="M413.51,428.67q5,2.19,10,4.42l.84-1.87q-5-2.24-10-4.43Z"/><path class="cls-1" d="M501.57,472.34q4.71,2.76,9.39,5.62l1.07-1.75c-3.13-1.92-6.27-3.79-9.43-5.64Z"/><circle class="cls-1" cx="415.64" cy="434" r="81.91"/><path class="cls-3" d="M443.34,466.36h-21V434.8c0-3.22-1.33-4.82-4-4.82s-3.93,1.6-3.93,4.82v31.56h-21V435.19a25.46,25.46,0,0,1,7.23-18.41,23.67,23.67,0,0,1,17.71-7.49q12,0,19.23,8.69,5.65,6.78,5.66,18.89Z"/><path class="cls-3" d="M419.36,369.77a27.69,27.69,0,0,1,20.38,8.55,29,29,0,0,1-.11,41.12,29.58,29.58,0,0,1-41.57,0,28,28,0,0,1-8.63-20.6,27.67,27.67,0,0,1,8.63-20.66A29.44,29.44,0,0,1,419.36,369.77Zm-.56,20.69a7.65,7.65,0,0,0-5.71,2.43,8.68,8.68,0,0,0,0,11.92,7.88,7.88,0,0,0,11.44,0,8.69,8.69,0,0,0,0-11.92A7.74,7.74,0,0,0,418.8,390.46Z"/><path class="cls-3" d="M454.75,422a10.25,10.25,0,0,1,3-7.37,9.93,9.93,0,0,1,14.27-.17,11.55,11.55,0,0,1,0,15.08,9.93,9.93,0,0,1-14.27-.17A10.25,10.25,0,0,1,454.75,422Z"/><path class="cls-3" d="M361.6,422a10.25,10.25,0,0,1,3-7.37,9.92,9.92,0,0,1,14.26-.17,11.52,11.52,0,0,1,0,15.08,9.92,9.92,0,0,1-14.26-.17A10.25,10.25,0,0,1,361.6,422Z"/><text class="cls-4" transform="translate(382.37 463.88) rotate(90)">I</text><path class="cls-3" d="M379.31,617.28a8.9,8.9,0,0,0,8.24,8.87v0h50.39a10.46,10.46,0,0,0,1-20.88,17.62,17.62,0,0,0-34.15-5.51,10.33,10.33,0,0,0-4.67-1.1,10.45,10.45,0,0,0-10.44,9.81,8.69,8.69,0,0,0-1.45-.12A8.91,8.91,0,0,0,379.31,617.28Z"/><path class="cls-3" d="M416.25,231.84c-19.2,0-34.77,11.51-34.77,25.68a20.28,20.28,0,0,0,3.45,11.2l-4.65,10.43,12-3a41.77,41.77,0,0,0,24,7.11c19.2,0,34.76-11.5,34.76-25.69S435.45,231.84,416.25,231.84Zm-16.13,29.28a3.61,3.61,0,1,1,3.61-3.6A3.6,3.6,0,0,1,400.12,261.12Zm16.13,0a3.61,3.61,0,1,1,3.61-3.6A3.6,3.6,0,0,1,416.25,261.12Zm16.11,0a3.61,3.61,0,1,1,3.61-3.6A3.61,3.61,0,0,1,432.36,261.12Z"/></svg>