<svg id="Слой_1" data-name="Слой 1" xmlns="http://www.w3.org/2000/svg" viewBox="0 0 581.13 402.55"><defs><style>.cls-1{fill:#fff;}.cls-2{fill:#ffc800;}.cls-3{fill:#1a2e35;}.cls-4{fill:#ed776a;}.cls-10,.cls-5{fill:#306;}.cls-6{fill:#ececec;}.cls-7{fill:#c8c8c8;}.cls-8{fill:#ff9cbf;}.cls-9{fill:#dcdcdc;}.cls-10{font-size:89px;font-family:Impact;}.cls-11{letter-spacing:0.02em;}</style></defs><circle class="cls-1" cx="228.8" cy="195.05" r="164"/><path class="cls-2" d="M378.15,370c-92.08,0-167-74.92-167-167s74.92-167,167-167,167,74.92,167,167S470.23,370,378.15,370Zm0-325.82c-87.57,0-158.81,71.25-158.81,158.82s71.24,158.82,158.81,158.82S537,290.53,537,203,465.72,44.14,378.15,44.14Z"/><circle class="cls-2" cx="378.15" cy="202.96" r="144.22" transform="translate(-32.76 326.84) rotate(-45)"/><path class="cls-3" d="M333.51,199.29c1.56.1,8.86.6,19.53,1.36,4-6.64,9-18.48,7.87-35.61-.2-2.84,5.73,13.68,2,36.31,20.62,1.44,48.66,3.38,73.17,4.84.91-9.55,2.19-18.37,2.19-18.37a107,107,0,0,0,3.14,18.71c3.35.23,6.64.39,9.79.57,0-14.9,3.68-40.69,3.68-40.69a130.48,130.48,0,0,0,10.26,41.44c15.56.77,25.82,1,25.2.22-22.33-28.08-4.37-42.85-10-66.94-6.73-28.88-31.1-34.53-29.39-55.9,1.34-17.39,5-48.9-16.74-56.66,0,0-17-20.42-45.6-10.91-35.38,11.73-24.08,66.07-26.95,76.89C357.63,110,350,115.17,343.59,132.71c-6.48,17.76,1.18,30.09,1.55,42.35S329.6,199.08,333.51,199.29Z"/><path class="cls-3" d="M491.25,204.25a61.18,61.18,0,0,1-6.87-15.6c-1.53-5.39-.51-10.79.82-16.35a171.41,171.41,0,0,0,3.65-17.08c.72-5.88.79-12.09-.9-18a40,40,0,0,0-8.67-15.89,106.84,106.84,0,0,0-12.85-12c-4.35-3.72-8.68-7.39-11.85-12a31.22,31.22,0,0,1-5.53-15.85,29.32,29.32,0,0,0,3.74,17c2.94,5.21,7.16,9.48,11.35,13.45s8.42,7.81,11.91,12.12a37.85,37.85,0,0,1,7.49,14.36,44.77,44.77,0,0,1,.89,16.31c-.57,5.56-1.87,11.11-2.88,16.86a58.17,58.17,0,0,0-1,8.85,25.68,25.68,0,0,0,1.56,8.94A49.68,49.68,0,0,0,491.25,204.25Z"/><path class="cls-3" d="M368.09,36.74c-3,6.48-4.34,13.59-5.68,20.56s-2.07,14.1-2.85,21.14L358.32,89a53,53,0,0,1-2.05,10c-2,6.44-5.94,12-10.33,17.56a81.15,81.15,0,0,0-6.1,9,49.87,49.87,0,0,0-4.35,10.23,73.41,73.41,0,0,0-2,10.79,44.74,44.74,0,0,0,.1,11c.46,3.66,1.33,7.14,2,10.55a54.34,54.34,0,0,1,1.16,10.29c.21,6.8-3.68,13.41-9.37,17.59A22.11,22.11,0,0,0,339,178.54a53.32,53.32,0,0,0-.42-10.87c-.45-3.58-1.19-7-1.42-10.42a56.58,56.58,0,0,1,2.54-20.2,49.5,49.5,0,0,1,4.09-9.24,76.78,76.78,0,0,1,5.87-8.5,104.65,104.65,0,0,0,6.22-8.89,44.09,44.09,0,0,0,4.59-10.16,56.92,56.92,0,0,0,1.9-10.85c.36-3.57.59-7.11.81-10.65.47-7.07.84-14.13,1.51-21.16A102.43,102.43,0,0,1,368.09,36.74Z"/><path class="cls-2" d="M538.34,335.82c-.06-.42-.14-.83-.22-1.25.1.53.2,1,.26,1.56C538.36,336,538.36,335.93,538.34,335.82Z"/><path class="cls-2" d="M468.5,348.18a7.15,7.15,0,0,0,.73.38l.1-.18,0,0-.75-.16A.18.18,0,0,1,468.5,348.18Z"/><path class="cls-4" d="M368.74,153c-43.83,49.31-96.91,151-85,170.44C297,345.06,360.21,274.84,358,271.66c-1.84-2.71,18.72-63.54,33.64-108S379.58,140.77,368.74,153Z"/><path class="cls-5" d="M368.74,153c-43.83,49.31-96.91,151-85,170.44C297,345.06,360.21,274.84,358,271.66c-1.84-2.71,18.72-63.54,33.64-108S379.58,140.77,368.74,153Z"/><path class="cls-6" d="M374.64,214.67c-4.28,13-8.2,25.15-11.18,34.87-6.78.31-26.59-.79-47.18-20.57,6.19-11,12.89-22,19.8-32.53C341.26,201.89,353.82,212.53,374.64,214.67Z"/><path class="cls-5" d="M326.45,345.89l11-74.59s-17.65-30.8-7.41-52.91c5.17-11.2,40.6-65.93,59.69-79.78,17.9-13,42.43-1.15,50.77,10.16,24,32.5,35.68,91,49.07,197.12Z"/><path class="cls-3" d="M358.56,173q-5.43,7.45-10.59,15.1c.94-2,1.89-4,2.82-5.94.06-.14-.15-.26-.22-.12-1.29,2.49-2.47,5-3.62,7.55q-6.93,10.26-13.43,20.8a53.66,53.66,0,0,0-4.76,9.3,41.54,41.54,0,0,0-2.34,9.89,52.26,52.26,0,0,0-.16,10.16,70.8,70.8,0,0,0,1.47,10.36,66.4,66.4,0,0,0,3.65,11.32c.76,1.78,1.58,3.55,2.46,5.28s2.45,4.81,2.42,4.94c-.33,1.78-.66,3-.89,4.54l-.69,4.59c-.46,3.06-4.43,32.85-4.88,35.92-.89,6.08-1.66,12.17-2.42,18.27-.43,3.5-.66,7-1.15,10.52,0,.14.19.2.22,0,.5-3,1.25-6,1.81-9.07s1.11-6.08,1.68-9.11c1.15-6.13,5.58-39.05,6.54-45.21.27-1.71.53-3.41.8-5.12a34.08,34.08,0,0,0,.65-5.69s-5.46-11.22-7.59-19.09a67.66,67.66,0,0,1-2.17-10.15,53.87,53.87,0,0,1-.12-10.08,44.52,44.52,0,0,1,1.94-9.89,50.83,50.83,0,0,1,4.28-9.41c3.57-6.34,7.36-12.56,11.2-18.73q6.54-10.5,13.28-20.88C358.82,173,358.64,172.89,358.56,173Z"/><path class="cls-4" d="M283.72,323.41c11.19,14.35,39.69,15.72,111.13,25.89,9.89,1.41,38.59-65.68,28.11-67.73-13.2-2.57-65-9.71-68.83-9.76C321.63,271.44,276.13,313.67,283.72,323.41Z"/><path class="cls-4" d="M408.65,279.08s30.19,3,45.57,9.44c20.6,8.66,34.81,24.62,40.36,31.67,11.6,14.71,29.45,58.3,17.8,65.63C501.83,392.46,485.82,347,485.82,347s24,43.67,9.8,49.32-29.75-48.18-29.75-48.18,23.62,45.42,8.08,48.94c-11.74,2.66-28.6-45.31-28.6-45.31s20,39.18,8.07,42.44c-13.21,3.6-31.54-39.71-31.54-39.71-31.79,3.16-48.22-8.34-58.94-17.91C360.35,334.26,408.65,279.08,408.65,279.08Z"/><path class="cls-3" d="M478.5,331.35c3,5,6.08,10.1,8.62,15.37s4.9,10.65,6.94,16.14c5,13.47,6,22.69,5.91,22.12-3-13.3-11.78-32.33-14.32-37.61s-4.82-10.66-7.35-15.93C478.24,331.31,478.43,331.23,478.5,331.35Z"/><path class="cls-3" d="M459.28,340.19c3.55,6.58,7.32,13,10.59,19.74s5.74,13.36,8.52,20.28c.21.53-.15.47-.38,0-3.05-6.81-6.4-12.86-9.53-19.62s-6-13.66-9.36-20.28C459.06,340.16,459.23,340.09,459.28,340.19Z"/><path class="cls-3" d="M441.42,344.81c5.94,9.78,10.08,20.66,13.88,31.42.19.53-.27.41-.49-.13-4.42-10.53-7.81-18.83-13.73-31.09C441,344.82,441.29,344.6,441.42,344.81Z"/><path class="cls-5" d="M431.46,279.6l-58.81,69.21s-80.34-5.59-89.59-26.75,51.92-52,71-50.35S431.46,279.6,431.46,279.6Z"/><path class="cls-3" d="M323.08,280.87c4.62-3.15,17.73-10.65,30.95-9.16a.12.12,0,0,1,0,.23c-10.83.33-26.11,6.43-30.83,9.12A.11.11,0,0,1,323.08,280.87Z"/><path class="cls-3" d="M360.21,336.85c23.11-24.48,43.69-53.72,47.64-58.56.19-.23-.2-.51-.38-.27-3.62,5-30.77,35.82-47.68,58.54C359.6,336.82,360,337.08,360.21,336.85Z"/><rect class="cls-7" x="270.06" y="209.56" width="130.3" height="100.1" transform="translate(13.8 536.12) rotate(-78.46)"/><rect class="cls-6" x="324.83" y="189.16" width="47.44" height="14.38" transform="matrix(0.98, 0.2, -0.2, 0.98, 46.61, -66.09)"/><polygon class="cls-6" points="362.68 191.91 356.96 190.74 358.29 184.25 344.38 181.39 343.05 187.88 337.33 186.71 339.76 174.88 365.19 180.1 362.68 191.91"/><path class="cls-4" d="M452.26,164.22c47.24,60.11,65.06,168.09,38.84,176.51-24,7.69-122.49-17-151.84-26.94-8.62-2.92,18-70,27.23-66.83,11.15,3.77,72.09,18.21,73.27,18.24,2.53.06-11-66.42-16.82-96.55C414.84,126.68,434.52,141.65,452.26,164.22Z"/><path class="cls-4" d="M287.72,221.78c-5,5.66-1,12.35-1,12.35s-5.82,1.55-8.78,6.52c-3.4,5.69,4,13.51,4,13.51a19.8,19.8,0,0,0-8.17,8.36c-2.7,5.77,3.68,14.73,3.68,14.73s-3.76,5.45-2.56,11.87c2,11,17.94,17.22,28,21.28s42.39,6.18,48.51,7.21l26.65-64.33s-39.91-31.05-52.42-34.15C315.18,216.51,293.32,215.43,287.72,221.78Z"/><path class="cls-3" d="M287.64,233.28c11.87.09,23.06,3.68,34.43,6.63a.2.2,0,0,1-.1.39c-11.28-3.06-23-3.85-34.4-6.46A.29.29,0,0,1,287.64,233.28Z"/><path class="cls-3" d="M282.58,253.4c2.68.1,5.33,1.09,7.87,1.89,2.73.85,5.45,1.76,8.16,2.71q8.13,2.83,16.1,6.09c.24.1.15.48-.11.39-5.4-1.88-10.83-3.68-16.3-5.33-2.74-.82-5.49-1.63-8.25-2.41-2.56-.73-5.32-1.29-7.67-2.58A.41.41,0,0,1,282.58,253.4Z"/><path class="cls-3" d="M277.77,277.33c2.33,0,4.83,1.26,7,2.07,2.45.91,4.9,1.82,7.36,2.7,4.92,1.78,9.84,3.55,14.82,5.16.25.08.14.47-.11.39-5.06-1.6-10.15-3.14-15.2-4.79q-3.72-1.22-7.43-2.47c-2.1-.71-4.81-1.36-6.53-2.82A.14.14,0,0,1,277.77,277.33Z"/><path class="cls-5" d="M438.87,262.48c.76-.46-13.39-64.63-18.14-98.11s10.21-30.27,31.73-1.64c23.05,30.66,64.09,113.66,49.87,175.12-4.6,19.9-147.19-8-147.19-8l19.22-82S437.69,263.18,438.87,262.48Z"/><path class="cls-3" d="M373.81,321.45c8.67-28.54,13.45-59.84,14.67-65.24.06-.25-.36-.32-.4-.06-.92,5.36-10.27,40.54-14.72,65.23C373.31,321.67,373.72,321.72,373.81,321.45Z"/><path class="cls-3" d="M465.68,272c-2.75-.47-75.55-21-91.46-23.44-.25,0,0-.88.23-.83,48.92,8.63,89.1,21.71,92.18,22.93C470.28,272.08,470.81,272.84,465.68,272Z"/><path class="cls-3" d="M438.17,263.13c.05-.14-4.8-24.71-5.66-26.24s-2.79-5.12-3.57-6.77c-1.58-3.32-2.94-6.71-4.39-10.07-.12-.28.3-.5.42-.22,1.56,3.26,3.41,6.37,5.27,9.45.93,1.52,1.86,3,2.79,4.54.07.1-4.48-24-5.12-28.24-.05-.31.29-.4.39-.14,1.37,4.27,10.91,52.56,12.21,57.91A22.49,22.49,0,0,1,438.17,263.13Z"/><path class="cls-3" d="M384.5,335c-4.75-1.31-23.8-4.39-28.43-5.06.45-1.68,1.81-8.49,1.68-10.41a.22.22,0,0,0-.39-.13c-1.09,1.59-2.94,10-3.5,11.95-.1.38,25.67,3.61,30.6,3.87A.11.11,0,1,0,384.5,335Z"/><path class="cls-4" d="M378.13,144.57s1.91,18.86,17.54,21.79,44.84-17.59,44.84-17.59S428.78,133,407.59,132.93C387.2,132.88,378.13,144.57,378.13,144.57Z"/><path class="cls-4" d="M423,139.3c-.84,2.83-15.6,20.68-28.69,19.32-4.26-.45-2.83-23.82-2.83-23.82l-.29-1.75-4-24.49L416.62,92l4.24-2.18s.66,6.77,1.4,15.22c0,.39.07.78.1,1.2s.11.92.14,1.37c.13,1.26.25,2.55.35,3.83.08,1,.16,1.93.2,3s.12,2,.19,3.06C423.71,127.6,423.35,138.1,423,139.3Z"/><path class="cls-3" d="M422.26,105a49.81,49.81,0,0,1-31.06,28.05l-4-24.49L416.62,92l4.24-2.18S421.52,96.55,422.26,105Z"/><path class="cls-4" d="M358.87,62.85c-11.46,42,12.42,53.63,21.48,56.09,8.23,2.24,36.53,8.8,52.27-31.81S432.44,27.9,413.9,21.8,370.33,20.83,358.87,62.85Z"/><path class="cls-3" d="M374,54.63a27.33,27.33,0,0,0,3,.09,4.9,4.9,0,0,0,3.09-.5,1.55,1.55,0,0,0,.44-1.84,3.86,3.86,0,0,0-3.48-1.76,5.64,5.64,0,0,0-3.91,1.11A1.65,1.65,0,0,0,374,54.63Z"/><path class="cls-3" d="M404,58.83a29.3,29.3,0,0,1-2.73-1.25,4.84,4.84,0,0,1-2.55-1.8,1.54,1.54,0,0,1,.41-1.85,3.84,3.84,0,0,1,3.89,0,5.65,5.65,0,0,1,3,2.72A1.66,1.66,0,0,1,404,58.83Z"/><path class="cls-3" d="M394.35,72.26c0-.1.19.19.16.31-.8,2.86-1.24,6.26,1.13,7.86.07,0,0,.19-.07.16C392.5,79.35,393.13,74.84,394.35,72.26Z"/><path class="cls-3" d="M397.67,69.89c4.71.79,2.78,10.17-1.59,9.43S393.71,69.22,397.67,69.89Z"/><path class="cls-3" d="M399.4,70.76c.71.7,1.32,1.81,2.29,2.11,1.12.35,2.18-.46,3.13-1.25.09-.08.16,0,.13.14-.34,1.81-1.41,3.51-3.39,3.38-1.81-.12-2.74-2-2.82-3.87C398.73,70.92,399.12,70.48,399.4,70.76Z"/><path class="cls-3" d="M377.05,66.53c0-.11-.26.09-.28.21-.53,2.92-1.63,6.17-4.47,6.57-.08,0-.11.16,0,.16C375.59,73.71,377,69.38,377.05,66.53Z"/><path class="cls-3" d="M375.12,63c-4.59-1.36-7,7.91-2.73,9.17S379,64.09,375.12,63Z"/><path class="cls-3" d="M373,63.06c-.86.3-1.82,1-2.71.84s-1.52-1.39-1.92-2.52c0-.12-.14-.06-.17.07-.51,1.76-.4,3.75,1.22,4.53s3-.52,3.88-2.17C373.49,63.5,373.37,62.94,373,63.06Z"/><path class="cls-3" d="M386.93,94.23c-.81.57-1.66,1.4-2.74,1.32a7.77,7.77,0,0,1-3-1.23.1.1,0,0,0-.15.13,4,4,0,0,0,3.46,2.18,3.16,3.16,0,0,0,2.72-2.22C387.26,94.24,387.05,94.14,386.93,94.23Z"/><path class="cls-3" d="M377.11,81.11s-1.55,4.19-2,6.24c0,.19.44.38,1.12.58,0,0,0,0,.08,0a9.93,9.93,0,0,0,10.22-1.57c.18-.17,0-.43-.24-.35-3.13,1.39-6.21,1.25-9.42.61,0-.6,2.88-7.1,2.57-7.2-1.1-.34-3.46-.06-4.87,0,3-8.84,7.32-17.12,10.14-26a.29.29,0,0,0-.51-.25c-5.18,8.36-8.81,18.45-12.1,27.5C371.68,81.89,376.21,81.28,377.11,81.11Z"/><path class="cls-3" d="M377,87.28A11.79,11.79,0,0,0,380.65,92a5.38,5.38,0,0,0,3.06,1c2.41,0,3-2,3.07-3.92a12.43,12.43,0,0,0-.28-3A15.3,15.3,0,0,1,377,87.28Z"/><path class="cls-8" d="M380.65,92a5.38,5.38,0,0,0,3.06,1c2.41,0,3-2,3.07-3.92C384.31,88.74,381.48,89.74,380.65,92Z"/><path class="cls-3" d="M430.27,86.42c-4.48-1.58-12.75-17.52-6.8-39.64,0,0-4,20.23-3.32,23.55s-4.61-9-.06-26.86c0,0-11.87,4.27-20.92,4.22s-14.17-1.6-14.59-2.38,13-1.13,17.46-4c0,0-25.27,4-35.77,1.81-1.22-.25,4.37-25.11,23.24-30.93s40.83,12.6,45.72,21.08c0,0,7.63,3.41,12.89,17.65S435.1,88.12,430.27,86.42Z"/><path class="cls-4" d="M423.77,87.34S435.55,75.67,441,80.1s-5.1,22.55-12.7,23.91a7.37,7.37,0,0,1-9-5.66Z"/><path class="cls-3" d="M437.86,85.22c.12,0,.11.18,0,.2-5.36,1.11-8.83,5.27-11.55,9.74,1.83-1.58,4-2.23,6.19,0,.11.12-.05.3-.19.24a4.52,4.52,0,0,0-5.18.67,21.62,21.62,0,0,0-3.07,3.54c-.32.4-1.08,0-.82-.46l.06-.11C424.33,92.63,430.9,84.62,437.86,85.22Z"/><path class="cls-4" d="M468.6,348.2l.73.18,0,0Z"/><path class="cls-2" d="M538.12,334.57c.1.53.2,1,.26,1.56,0-.1,0-.2,0-.31C538.28,335.4,538.2,335,538.12,334.57Z"/><path class="cls-2" d="M538.12,334.57c.1.53.2,1,.26,1.56,0-.1,0-.2,0-.31C538.28,335.4,538.2,335,538.12,334.57Z"/><path class="cls-2" d="M465.3,355.77v0c.77.18,1.52.36,2.27.52Z"/><path class="cls-9" d="M538.12,334.57c.1.53.2,1,.26,1.56,0-.1,0-.2,0-.31C538.28,335.4,538.2,335,538.12,334.57Z"/><path class="cls-5" d="M118.07,360.86H45.4V346.69h72.67Z"/><path class="cls-5" d="M118.07,384.1H45.4V369.92h72.67Z"/><path class="cls-5" d="M91.25,398.49V334h14.17v64.45Z"/><path class="cls-5" d="M62.48,398.49V334H76.65v64.45Z"/><text class="cls-10" transform="translate(115.66 330.85) rotate(-90)">Local<tspan x="0" y="71">pa</tspan><tspan class="cls-11" x="91.04" y="71">r</tspan><tspan x="124.5" y="71">tners</tspan></text></svg>