<svg id="Слой_1" data-name="Слой 1" xmlns="http://www.w3.org/2000/svg" viewBox="0 0 581.13 402.55"><defs><style>.cls-1{fill:#ffc800;}.cls-2{fill:#306;}.cls-3{fill:#ff9581;}.cls-4{fill:#a8a8a8;}.cls-5{fill:#fff;}.cls-6{fill:#c8c8c8;}.cls-7{fill:#4a148c;}.cls-8{fill:#dcdcdc;}</style></defs><path class="cls-1" d="M286.57,355c-92.08,0-167-74.92-167-167s74.92-167,167-167,167,74.92,167,167S378.65,355,286.57,355Zm0-325.82C199,29.14,127.75,100.39,127.75,188S199,346.78,286.57,346.78,445.39,275.53,445.39,188,374.14,29.14,286.57,29.14Z"/><circle class="cls-1" cx="286.57" cy="187.96" r="144.22" transform="translate(-48.97 257.69) rotate(-45)"/><path class="cls-2" d="M323.6,155.7a1.29,1.29,0,0,1-1,1.35c-1.48.11-3.27.22-5.27.35-4.72-12.29-9.81-22-8.47-18.23a63.31,63.31,0,0,1,3.3,18.54c-2.32.13-7.7.39-10.4.52-4.1-21.63-9.36-37.66-9-32.71,1.33,20,.15,26.38-1.24,33.23-25.09,1.18-58,2.37-81.81,2.72-2.76-12-5.17-24.9-5.58-24-3.25,6.76-4.13,16.56-4.2,24.11-7.58.06-13.64,0-17.33-.28,0,0-1.77-10.05-2-13.36a69.08,69.08,0,0,1,2.65-25.19c2.52-8.38,6.87-15.79,11-23.38a1.12,1.12,0,0,1,.1-.16s0,0,0-.07a70.86,70.86,0,0,0,6.32-15.6.27.27,0,0,0,0-.12,68.75,68.75,0,0,0,2-12C203.72,56.68,212,43.91,225.91,40c26.2-24.71,52.46-14.35,60.4,4.57.76,1.85,1.5,4,2.22,6.27l0,.07c2.69,8.53,5.1,19.61,7.33,28.16,0,0,0,.05,0,.05s0,.06,0,.1v0A81.35,81.35,0,0,0,299,89.13C305.66,104.52,320.8,113.26,323.6,155.7Z"/><path class="cls-2" d="M219.86,44.07c-9.1,4.76-14.68,11.7-16.09,22.48-.82,6.28-1.24,12.41-3.65,18.34C197.64,91,193.7,96,189.65,101.06c-6.44,8-10.92,15.91-11.92,26.48-1,10.75-.49,23.42,3.14,33.44,0,.06.1,0,.09,0-3-10.16-3-24.22-1.22-34.87,2-11.7,8.6-19.06,15.37-28a48.74,48.74,0,0,0,9.94-23.87c.68-5.33.6-10.87,2.74-15.9,2.56-6,7.66-9.81,12.72-13.19A.64.64,0,0,0,219.86,44.07Z"/><path class="cls-2" d="M314.31,105.63c-6.43-8.37-13.13-15.49-16.89-25.88-3.44-9.46-5.4-19.46-8.9-28.91a.12.12,0,1,0-.23.07c5.39,16.78,6.44,33.72,17.28,47.83,5.9,7.66,11.79,14.76,15.68,24a82.1,82.1,0,0,1,6.11,30.35c0,.37.48.35.52,0A67.85,67.85,0,0,0,314.31,105.63Z"/><path class="cls-1" d="M143.42,327.79c.05-.42.13-.81.21-1.23-.1.52-.19,1-.25,1.53C143.4,328,143.4,327.89,143.42,327.79Z"/><path class="cls-1" d="M211.52,339.84a5.23,5.23,0,0,1-.71.37l-.1-.17,0,0,.73-.16A.18.18,0,0,0,211.52,339.84Z"/><path class="cls-3" d="M239.7,158.56C197.08,201.75,143.47,292.62,153.47,311c11.13,20.52,70.47-40,70.24-43.57-.17-2.67,20.71-57.87,36.54-98S250.24,147.87,239.7,158.56Z"/><path class="cls-4" d="M224.11,267.54c1.81-5.91,30.22-78.69,38.34-101.71s.6-30.13-22.6-9.05-74,91.5-85.62,128.88c-11.18,36,7.36,36,31.82,19.41C206.08,291.48,224.11,267.54,224.11,267.54Z"/><path class="cls-5" d="M265.5,153.4a12.23,12.23,0,0,1-.15,1.31,1.47,1.47,0,0,1-1.22.64,1.45,1.45,0,0,1-1.45-1.45,1.45,1.45,0,0,1,2.82-.5Zm-48.34,30.46a1.46,1.46,0,1,0,1.46,1.46A1.46,1.46,0,0,0,217.16,183.86Zm23.49,0a1.46,1.46,0,1,0,1.45,1.46A1.46,1.46,0,0,0,240.65,183.86ZM228.9,168.81a1.46,1.46,0,1,0,1.46,1.46A1.46,1.46,0,0,0,228.9,168.81Zm23.49,0a1.46,1.46,0,1,0,1.46,1.46A1.47,1.47,0,0,0,252.39,168.81Zm-58.72,46.48a1.46,1.46,0,1,0,1.46,1.45A1.46,1.46,0,0,0,193.67,215.29Zm23.49,0a1.46,1.46,0,1,0,1.46,1.45A1.45,1.45,0,0,0,217.16,215.29Zm23.49,0a1.46,1.46,0,1,0,1.45,1.45A1.45,1.45,0,0,0,240.65,215.29Zm-35.23-15a1.46,1.46,0,1,0,1.45,1.45A1.45,1.45,0,0,0,205.42,200.24Zm23.48,0a1.46,1.46,0,1,0,1.46,1.45A1.45,1.45,0,0,0,228.9,200.24Zm-35.23,46.47a1.46,1.46,0,1,0,1.46,1.45A1.46,1.46,0,0,0,193.67,246.71Zm23.49,0a1.46,1.46,0,1,0,1.46,1.45A1.45,1.45,0,0,0,217.16,246.71Zm-35.23-15.05a1.46,1.46,0,1,0,1.45,1.45A1.45,1.45,0,0,0,181.93,231.66Zm23.49,0a1.46,1.46,0,1,0,1.45,1.45A1.45,1.45,0,0,0,205.42,231.66Zm23.48,0a1.46,1.46,0,1,0,1.46,1.45A1.45,1.45,0,0,0,228.9,231.66Zm-58.72,46.47a1.46,1.46,0,1,0,1.46,1.46A1.45,1.45,0,0,0,170.18,278.13Zm23.49,0a1.46,1.46,0,1,0,1.46,1.46A1.46,1.46,0,0,0,193.67,278.13Zm-11.74-15.05a1.46,1.46,0,1,0,1.45,1.46A1.46,1.46,0,0,0,181.93,263.08Zm23.49,0a1.46,1.46,0,1,0,1.45,1.46A1.46,1.46,0,0,0,205.42,263.08Zm-35.24,46.47a1.46,1.46,0,1,0,1.46,1.46A1.45,1.45,0,0,0,170.18,309.55ZM158.44,294.5A1.46,1.46,0,1,0,159.9,296,1.46,1.46,0,0,0,158.44,294.5Zm23.49,0a1.46,1.46,0,1,0,1.45,1.46A1.46,1.46,0,0,0,181.93,294.5Z"/><path class="cls-6" d="M361.33,311.34a144.43,144.43,0,0,1-153.87-2.77l.32-1.9,6.13-45.3s-14.4-25.15-6-43.19c4.22-9.12,41.22-66,56.82-77.28,14.61-10.6,35.82.75,43.73,9.07C336.33,179.36,350.73,235.34,361.33,311.34Z"/><path class="cls-2" d="M207.81,306.68Q209,295.31,210.28,284c.92-7.56,1.74-15.13,2.76-22.68l.17.66a50.81,50.81,0,0,1-8.35-20.82,50,50,0,0,1-.49-11.27,41.44,41.44,0,0,1,2.79-11,108.35,108.35,0,0,1,10.53-19.64A175.81,175.81,0,0,1,231,181.48c-4.35,6-8.41,12.14-12.24,18.43a127.75,127.75,0,0,0-9.87,19.62A39.25,39.25,0,0,0,206.32,230a51.52,51.52,0,0,0,.54,10.81,49.17,49.17,0,0,0,7.77,20.05l.23.32-.05.34c-1,7.55-2.24,15.07-3.36,22.6S209.08,299.17,207.81,306.68Z"/><path class="cls-2" d="M218.62,199.35a11.66,11.66,0,0,1,.53-3,23.75,23.75,0,0,1,1-2.86,27.27,27.27,0,0,1,1.36-2.7,20.94,20.94,0,0,1,1.68-2.53,45.71,45.71,0,0,1-2.1,5.64C220.32,195.73,219.47,197.51,218.62,199.35Z"/><path class="cls-2" d="M239.13,255.5c8.23.1,16.45,1.83,24.33,4.06s25.48,9.2,29.89,10.91a.09.09,0,0,1-.05.18,152.17,152.17,0,0,1-16.9-5.09c-7.79-2.65-15.64-5-23.6-7.11A111,111,0,0,0,239.12,256,.25.25,0,0,1,239.13,255.5Z"/><path class="cls-2" d="M224.64,259.69A75.21,75.21,0,0,1,250.2,262c.1,0,.07.19,0,.18-4.24-.51-8.46-1-12.71-1.36s-8.55-.57-12.82-.86A.12.12,0,0,1,224.64,259.69Z"/><path class="cls-3" d="M153.47,311c9.59,13.72,35.7,16.34,100.83,29.1,9,1.76,38.58-58.49,29.05-60.87-12-3-59.22-12-62.75-12.25C190.77,265.12,147,301.74,153.47,311Z"/><path class="cls-3" d="M270.32,276.3s27.6,4.17,41.41,10.85c18.51,8.94,30.8,24.28,35.56,31,9.95,14.07,24.26,54.95,13.21,61.13-10,5.59-22.53-36.94-22.53-36.94s19.92,41.26,6.63,45.78-25-45.69-25-45.69,19.52,42.85,5.08,45.34c-10.91,1.89-24.09-43-24.09-43s16.52,36.95,5.38,39.37c-12.31,2.67-27.08-38-27.08-38-29.35,1.38-43.89-10-53.27-19.27C223.33,324.68,270.32,276.3,270.32,276.3Z"/><path class="cls-2" d="M332,327.65c2.51,4.76,5.09,9.56,7.18,14.53s4,10,5.61,15.16c4,12.61,4.45,21.12,4.36,20.6-2.09-12.36-9.27-30.26-11.36-35.23s-3.91-10-6-15C331.74,327.6,331.93,327.54,332,327.65Z"/><path class="cls-2" d="M313.91,334.85c2.95,6.22,6.11,12.28,8.78,18.63s4.64,12.55,6.86,19c.17.5-.16.43-.35-.07-2.48-6.39-5.26-12.11-7.81-18.47s-4.86-12.83-7.63-19.07C313.71,334.81,313.87,334.75,313.91,334.85Z"/><path class="cls-2" d="M297.28,338.24c5,9.27,8.27,19.45,11.25,29.52.15.5-.26.36-.44-.14-3.56-9.89-6.27-17.67-11.13-29.21C296.88,338.23,297.18,338,297.28,338.24Z"/><path class="cls-4" d="M276.08,276.3,219,339.85s-57.7-13.25-66.2-28.05c-5.6-9.74,37.84-49.2,70.64-44.6Z"/><path class="cls-5" d="M195.13,279.59a1.46,1.46,0,1,1-1.46-1.46A1.45,1.45,0,0,1,195.13,279.59Zm22-1.46a1.46,1.46,0,1,0,1.46,1.46A1.46,1.46,0,0,0,217.16,278.13Zm23.49,0a1.46,1.46,0,1,0,1.45,1.46A1.46,1.46,0,0,0,240.65,278.13Zm23.48,0a1.46,1.46,0,1,0,1.46,1.46A1.45,1.45,0,0,0,264.13,278.13Zm-93.95,31.42a1.46,1.46,0,1,0,1.46,1.46A1.45,1.45,0,0,0,170.18,309.55Zm23.49,0a1.46,1.46,0,1,0,1.46,1.46A1.46,1.46,0,0,0,193.67,309.55Zm23.49,0a1.46,1.46,0,1,0,1.46,1.46A1.46,1.46,0,0,0,217.16,309.55Zm23.49,0A1.46,1.46,0,1,0,242.1,311,1.46,1.46,0,0,0,240.65,309.55ZM181.93,294.5a1.46,1.46,0,1,0,1.45,1.46A1.46,1.46,0,0,0,181.93,294.5Zm23.49,0a1.46,1.46,0,1,0,1.45,1.46A1.46,1.46,0,0,0,205.42,294.5Zm23.48,0a1.46,1.46,0,1,0,1.46,1.46A1.45,1.45,0,0,0,228.9,294.5Zm23.49,0a1.46,1.46,0,1,0,1.46,1.46A1.46,1.46,0,0,0,252.39,294.5Zm-70.46,31.42a1.46,1.46,0,1,0,1.45,1.46A1.46,1.46,0,0,0,181.93,325.92Zm23.49,0a1.46,1.46,0,1,0,1.45,1.46A1.46,1.46,0,0,0,205.42,325.92Zm23.49,0a1.46,1.46,0,0,0,0,2.92l1.44-1.61v0A1.47,1.47,0,0,0,228.91,325.91Z"/><path class="cls-2" d="M184.33,277.54c5.29-3.83,20.18-12.77,39.17-10.39.17,0,.17.29,0,.29-14.31-.4-33.64,7.08-39,10.34C184.31,277.86,184.2,277.64,184.33,277.54Z"/><path class="cls-2" d="M203.41,329.21c5.91-7.33,12.19-14.33,18.5-21.31s12.6-14,19.08-20.82c3.67-3.86,7.31-7.74,11.11-11.47.09-.1.28,0,.19.15-5.89,7.32-12.15,14.35-18.4,21.36s-12.6,14-19,20.91c-3.62,3.9-7.31,7.74-11.11,11.47C203.6,329.69,203.24,329.42,203.41,329.21Z"/><path class="cls-2" d="M276.18,275.48A81.11,81.11,0,0,0,265.49,273c-3.6-.67-7.22-1.29-10.83-1.87-7.2-1.15-22.31-4.42-35.59-4.38-.15,0,.6.71.75.71,6.32-.34,51.65,8.67,55.37,8.94a5.94,5.94,0,0,0-.4.75c-.07.19.11.43.3.29.47-.31.8-.7,1.24-1.05A.53.53,0,0,0,276.18,275.48Z"/><path class="cls-4" d="M318.79,153.92c54.53,47.57,97.42,106.33,94.63,121-5.19,27.35-41.2,29.06-46.66,23.15-22.08-23.92-45.38-70.27-70.62-122C273.58,129.9,300.84,138.26,318.79,153.92Z"/><path class="cls-5" d="M308.86,152.44a1.46,1.46,0,1,1-1.45-1.46A1.45,1.45,0,0,1,308.86,152.44Zm-1.45,30a1.46,1.46,0,1,0,1.45,1.46A1.46,1.46,0,0,0,307.41,182.4Zm23.48,0a1.46,1.46,0,1,0,1.46,1.46A1.46,1.46,0,0,0,330.89,182.4Zm-35.23-15a1.46,1.46,0,1,0,1.46,1.45A1.46,1.46,0,0,0,295.66,167.36Zm23.49,0a1.46,1.46,0,1,0,1.46,1.45A1.45,1.45,0,0,0,319.15,167.36Zm11.74,46.47a1.46,1.46,0,1,0,1.46,1.45A1.45,1.45,0,0,0,330.89,213.83Zm23.49,0a1.46,1.46,0,1,0,1.46,1.45A1.46,1.46,0,0,0,354.38,213.83Zm23,.07a1.47,1.47,0,0,0-.94,1.38,1.44,1.44,0,0,0,1.46,1.45,1.47,1.47,0,0,0,1.24-.7C378.52,215.32,377.94,214.61,377.36,213.9Zm-58.21-15.12a1.46,1.46,0,1,0,1.46,1.45A1.45,1.45,0,0,0,319.15,198.78Zm23.49,0a1.46,1.46,0,1,0,1.46,1.45A1.45,1.45,0,0,0,342.64,198.78Zm22.25.68a1.57,1.57,0,0,0-.21.78,1.44,1.44,0,0,0,1.46,1.45,1.35,1.35,0,0,0,.6-.13C366.14,200.86,365.51,200.17,364.89,199.46Zm-33.44,45.9c.3.53.58,1.07.88,1.58a.9.9,0,0,0,0-.23A1.43,1.43,0,0,0,331.45,245.36Zm22.93-.11a1.46,1.46,0,1,0,1.46,1.45A1.46,1.46,0,0,0,354.38,245.25Zm23.49,0a1.46,1.46,0,1,0,1.46,1.45A1.45,1.45,0,0,0,377.87,245.25Zm22.93.11h0a1.43,1.43,0,0,0-.88,1.35,1.44,1.44,0,0,0,1.46,1.45,1.46,1.46,0,0,0,1-.38C401.85,247,401.34,246.17,400.8,245.36ZM342.64,230.2a1.46,1.46,0,1,0,1.46,1.46A1.46,1.46,0,0,0,342.64,230.2Zm23.49,0a1.46,1.46,0,1,0,1.45,1.46A1.46,1.46,0,0,0,366.13,230.2Zm24.92,1.17s0,0,0-.05l0,0-.68-.9a1.46,1.46,0,1,0-.73,2.72,1.5,1.5,0,0,0,1.43-1.75Zm-36.67,45.3a1.46,1.46,0,1,0,1.46,1.46A1.46,1.46,0,0,0,354.38,276.67Zm23.49,0a1.46,1.46,0,1,0,1.46,1.46A1.46,1.46,0,0,0,377.87,276.67Zm23.49,0a1.46,1.46,0,1,0,1.45,1.46A1.46,1.46,0,0,0,401.36,276.67Zm-58.72-15.05a1.46,1.46,0,1,0,1.46,1.46A1.46,1.46,0,0,0,342.64,261.62Zm23.49,0a1.46,1.46,0,1,0,1.45,1.46A1.46,1.46,0,0,0,366.13,261.62Zm23.48,0a1.46,1.46,0,1,0,1.46,1.46A1.45,1.45,0,0,0,389.61,261.62ZM366.13,293a1.46,1.46,0,1,0,1.45,1.46A1.46,1.46,0,0,0,366.13,293Zm23.48,0a1.46,1.46,0,1,0,1.46,1.46A1.45,1.45,0,0,0,389.61,293Z"/><path class="cls-2" d="M357.77,287.4c-4-6.2-7.76-12.59-11.58-18.91s-7.6-12.69-11.32-19.08c-7.34-12.64-14.16-25.55-20.73-38.6-3.72-7.38-7.5-14.74-11-22.21-.11-.23-.51-.06-.41.18q5.13,13,11.05,25.67l-.21-.28c-.88-1.19-1.77-2.38-2.63-3.59-1.71-2.37-3.31-4.81-4.84-7.29a.19.19,0,0,0-.32.19,85.43,85.43,0,0,0,6,9.75,41.64,41.64,0,0,0,3.41,4.31l.11.11c1.8,3.75,3.65,7.48,5.59,11.18a442.28,442.28,0,0,0,22.24,38.35c2.29,3.47,4.59,6.94,7,10.34s5,6.7,7.43,10.06C357.6,287.75,357.89,287.59,357.77,287.4Z"/><path class="cls-3" d="M375.79,292.79c-10.32-14.83-5.09-44.33,6.26-115.07,1.57-9.79,75.88-10.56,74.74,0-1.44,13.28-14.66,65.74-18.11,73.46C421.79,288.92,382.8,302.85,375.79,292.79Z"/><path class="cls-3" d="M459.2,148.34c-2.87-22.51-7.06-27.85.61-48.13,5-13.3-1.31-22.23-12.38-12.41-18.1,16.06-20.5,45.87-18.36,56.45Z"/><path class="cls-2" d="M387.32,65.66l-26.95,90.61c-1.1,2.65.16,4.89,2.8,5l47.27,2a7.67,7.67,0,0,0,6.76-4.59l26.95-90.62c1.09-2.65-.17-4.89-2.81-5l-47.26-2A7.65,7.65,0,0,0,387.32,65.66Z"/><path class="cls-7" d="M392.93,65.84,366,156.46c-1.09,2.65.16,4.89,2.81,5l47.26,2a7.66,7.66,0,0,0,6.76-4.59l26.95-90.62c1.09-2.65-.16-4.89-2.8-5l-47.27-2A7.64,7.64,0,0,0,392.93,65.84Z"/><path class="cls-2" d="M405.71,70.58A4,4,0,1,1,402,66.31,4,4,0,0,1,405.71,70.58Z"/><path class="cls-3" d="M447.54,211.94s13.46-29.23,12.78-53.52c-.47-16.79-5.58-53.21-49.47-77.47-10.41-5.75-29.32-6.57-15.73,9,9.65,11.06,19.12,15.16,23.56,22.62,0,0-24.18,1.82-29.54,12.47-2.39,4.76-8.62,17.91-12,28.84a45.73,45.73,0,0,0,5.19,2.73S378.26,167,384.25,183Z"/><path class="cls-3" d="M457.31,142.47c-6-6.47-18.87-20-33.26-27.34-16-8.19-49-19.66-54.9-7.8-4.34,8.7,7.87,14.18,7.87,14.18s-14.63-1.86-16.84,6.85c-2,7.94,7.69,11.62,7.69,11.62s-9.07.39-9.53,8.42c-.56,9.64,18.55,7.23,26.43,17.49C386.54,168.2,457.31,142.47,457.31,142.47Z"/><path class="cls-2" d="M418.22,133.46c-6.62-5.16-24.66-13-40.89-12.16-.37,0-.55.31-.21.37a176,176,0,0,1,41,11.94C418.23,133.65,418.29,133.52,418.22,133.46Z"/><path class="cls-2" d="M409.48,149.35c-6.17-3.87-25.12-11.15-41.54-9.69-.36,0-.53.33-.18.37a188.7,188.7,0,0,1,41.65,9.48C409.5,149.54,409.56,149.4,409.48,149.35Z"/><path class="cls-4" d="M458,201.68l-86.16,24.44s-17.19,56.48-6.26,70.66c11.67,15.15,65.93-8.33,76.72-41.34Z"/><path class="cls-5" d="M426.3,215.28a1.46,1.46,0,1,1-1.45-1.45A1.45,1.45,0,0,1,426.3,215.28Zm22-1.45a1.46,1.46,0,1,0,1.46,1.45A1.45,1.45,0,0,0,448.33,213.83Zm-70.46,31.42a1.46,1.46,0,1,0,1.46,1.45A1.45,1.45,0,0,0,377.87,245.25Zm23.49,0a1.46,1.46,0,1,0,1.45,1.45A1.45,1.45,0,0,0,401.36,245.25Zm23.49,0a1.46,1.46,0,1,0,1.45,1.45A1.45,1.45,0,0,0,424.85,245.25ZM389.61,230.2a1.46,1.46,0,1,0,1.46,1.46A1.45,1.45,0,0,0,389.61,230.2Zm23.49,0a1.46,1.46,0,1,0,1.46,1.46A1.46,1.46,0,0,0,413.1,230.2Zm23.49,0a1.46,1.46,0,1,0,1.46,1.46A1.46,1.46,0,0,0,436.59,230.2Zm-58.72,46.47a1.46,1.46,0,1,0,1.46,1.46A1.46,1.46,0,0,0,377.87,276.67Zm23.49,0a1.46,1.46,0,1,0,1.45,1.46A1.46,1.46,0,0,0,401.36,276.67Zm23.49,0a1.46,1.46,0,1,0,1.45,1.46A1.46,1.46,0,0,0,424.85,276.67Zm-58.72-15.05a1.46,1.46,0,1,0,1.45,1.46A1.46,1.46,0,0,0,366.13,261.62Zm23.48,0a1.46,1.46,0,1,0,1.46,1.46A1.45,1.45,0,0,0,389.61,261.62Zm23.49,0a1.46,1.46,0,1,0,1.46,1.46A1.46,1.46,0,0,0,413.1,261.62Zm23.49,0a1.46,1.46,0,1,0,1.46,1.46A1.46,1.46,0,0,0,436.59,261.62ZM366.13,293a1.46,1.46,0,1,0,1.45,1.46A1.46,1.46,0,0,0,366.13,293Zm23.48,0a1.46,1.46,0,1,0,1.46,1.46A1.45,1.45,0,0,0,389.61,293Z"/><path class="cls-2" d="M374.63,245.72c9.62-2.18,19.11-4.87,28.6-7.59s19-5.42,28.41-8.37c5.32-1.67,10.66-3.31,15.93-5.17.13-.05.09-.29-.06-.26-9.6,2.18-19.12,4.83-28.61,7.48s-19,5.42-28.45,8.26c-5.35,1.61-10.66,3.31-15.93,5.17C374.26,245.33,374.35,245.79,374.63,245.72Z"/><path class="cls-2" d="M374.87,225.19c-1.34.14-2.67.42-4,.67a.59.59,0,0,0-.41.44c-1.48,5-2.53,10.18-3.57,15.29s-1.93,10.12-2.77,15.2c-.45,2.74-.85,5.48-1.16,8.22a29.49,29.49,0,0,0-3,10.65c0,.19.31.23.33,0a37.05,37.05,0,0,1,2.54-9.58,67.58,67.58,0,0,0,.53,20.17s.08,0,.07,0c-1.7-9.95.8-20.33,2.44-30.12.82-4.9,1.75-9.79,2.71-14.67s2.09-9.71,3-14.59c1.14-.43,2.29-.86,3.39-1.38C375.13,225.44,375,225.17,374.87,225.19Z"/><path class="cls-3" d="M287,137.66c-.45,2.84-12.47,22-25.3,22.31-4.18.1-5.75-22.67-5.75-22.67l-.51-1.66-7-23.17L274.8,92.69l3.83-2.64s1.49,6.46,3.27,14.53c.09.38.17.75.26,1.15s.22.88.31,1.31c.28,1.2.56,2.43.82,3.66.2.94.39,1.84.57,2.83s.37,2,.57,2.94C286.17,126.26,287.15,136.45,287,137.66Z"/><path class="cls-2" d="M286.74,133.33c-17.83,3.2-28.13-1-33.47-4.77l-4.84-16.09,26.38-19.78,3.81-2.63s1.5,6.45,3.28,14.52c.08.37.17.75.25,1.16s.24.88.33,1.31c.27,1.2.55,2.42.81,3.66.19.92.39,1.84.56,2.83s.38,1.95.58,2.93C285.56,122.75,286.35,129.2,286.74,133.33Z"/><path class="cls-3" d="M299.69,74.48c8,41.71-16.06,51.22-25.05,52.94-8.17,1.57-36.18,5.84-48.46-34.82S230.75,35,249.24,30.47,291.67,32.76,299.69,74.48Z"/><path class="cls-2" d="M291.82,66.5a28.46,28.46,0,0,1-2.92-.21,4.74,4.74,0,0,1-2.95-.78,1.53,1.53,0,0,1-.25-1.83,3.74,3.74,0,0,1,3.54-1.37,5.52,5.52,0,0,1,3.69,1.45A1.62,1.62,0,0,1,291.82,66.5Z"/><path class="cls-2" d="M262,69a26.71,26.71,0,0,0,2.78-.94,4.79,4.79,0,0,0,2.65-1.51,1.51,1.51,0,0,0-.22-1.83,3.76,3.76,0,0,0-3.78-.42,5.48,5.48,0,0,0-3.19,2.34A1.61,1.61,0,0,0,262,69Z"/><path class="cls-2" d="M271,80.65c0-.11-.2.17-.18.28.5,2.85.6,6.2-1.86,7.52-.07,0,0,.19.05.16C272.11,87.71,271.93,83.27,271,80.65Z"/><path class="cls-2" d="M268,78c-4.65.31-3.68,9.6.63,9.31S271.91,77.76,268,78Z"/><path class="cls-2" d="M266.24,78.71c-.76.61-1.45,1.62-2.42,1.82s-2.08-.65-2.91-1.51c-.09-.09-.16,0-.15.12.16,1.79,1,3.54,3,3.61,1.76.06,2.85-1.65,3.1-3.49C266.88,78.92,266.54,78.46,266.24,78.71Z"/><path class="cls-2" d="M287.72,77.75c0-.11.24.11.25.23.24,2.88,1,6.15,3.7,6.8.08,0,.09.17,0,.17C288.44,84.86,287.48,80.52,287.72,77.75Z"/><path class="cls-2" d="M289.94,74.46c4.58-.88,6,8.35,1.76,9.16S286.1,75.19,289.94,74.46Z"/><path class="cls-2" d="M292,74.77c.8.37,1.66,1.15,2.54,1.08s1.62-1.21,2.11-2.26c.06-.11.14,0,.16.08.32,1.75,0,3.68-1.62,4.28s-2.87-.79-3.56-2.49C291.46,75.15,291.64,74.62,292,74.77Z"/><path class="cls-2" d="M274.33,103c.73.63,1.47,1.52,2.53,1.55a7.74,7.74,0,0,0,3.06-.91.1.1,0,0,1,.13.14,3.88,3.88,0,0,1-3.57,1.78,3.08,3.08,0,0,1-2.42-2.41C274,103,274.22,102.93,274.33,103Z"/><path class="cls-2" d="M285.13,91.23s1.09,4.22,1.33,6.25c0,.19-.46.33-1.14.45a.08.08,0,0,1-.08,0,9.7,9.7,0,0,1-9.77-2.51c-.16-.18.07-.42.27-.31,2.9,1.65,5.91,1.81,9.08,1.49.08-.58-2.11-7.17-1.79-7.23,1.09-.22,3.36.28,4.71.51-2-8.86-5.44-17.33-7.33-26.18a.28.28,0,0,1,.52-.19c4.22,8.62,6.77,18.76,9.09,27.86C290.32,92.52,286,91.48,285.13,91.23Z"/><path class="cls-2" d="M227.89,93c10.47-1.21,11-33.72,11-37.71.12,2.51.81,15.83,1.87,16.28a10.4,10.4,0,0,0,3.24-.89h0a30.5,30.5,0,0,1,0-4.78c0-.75.41,1.57,1,4.41.58-.21,1.21-.46,1.89-.69a38.73,38.73,0,0,1,.2-10.18c.21-1.28,1,4.34,2.59,9.18,7.08-2.53,17.34-5.93,27.1-7,2.6-.3,4.87-.45,6.88-.51-.3-3.93-1.08-8.07-.73-7.19A37.52,37.52,0,0,1,285.19,61c1.09,0,2.1,0,3,0-.17-5.56-3.5-14.19-2.51-12.91a39.15,39.15,0,0,1,6.43,13.22c3.84.43,4.94,1.09,5,.1,0-1.79-3.35-17.12-16.33-27.52-14.1-11.32-40.52-12.35-53.77,7.86,0,0-11.52,8.89-12.42,21.83S221.84,93.65,227.89,93Z"/><path class="cls-5" d="M266.22,96.64a13.08,13.08,0,1,1,12.16-16.7h0a13.11,13.11,0,0,1-8.95,16.2A13.31,13.31,0,0,1,266.22,96.64Zm-.77-24.4a11.33,11.33,0,1,0,11.25,8.19A11.26,11.26,0,0,0,265.45,72.24Z"/><path class="cls-5" d="M295.89,92.05c-5,.16-9.71-4.82-10.71-11.57A15.64,15.64,0,0,1,286.56,71,8.15,8.15,0,0,1,300.36,69a15.72,15.72,0,0,1,4.08,8.64c1.06,7.13-2.39,13.58-7.7,14.38A6.22,6.22,0,0,1,295.89,92.05ZM293.8,67.77q-.33,0-.66.06a7,7,0,0,0-5,4,13.92,13.92,0,0,0-1.21,8.39c.93,6.18,5.21,10.68,9.58,10s7.15-6.21,6.23-12.39a13.83,13.83,0,0,0-3.6-7.67A7.22,7.22,0,0,0,293.8,67.77Z"/><path class="cls-5" d="M278.17,81.51l-1.31-1.16c1.71-1.94,5.92-4.84,9.58-1.93l-1.08,1.37C282.08,77.18,278.33,81.33,278.17,81.51Z"/><path class="cls-5" d="M223.64,93.53,222,93c.27-.77,2.69-7.58,6.46-8.78,3.52-1.12,24.41-2.5,25.41-2.55l.09,1.75c-6.74.36-22.25,1.59-25,2.46C226.48,86.65,224.28,91.67,223.64,93.53Z"/><path class="cls-3" d="M234.76,93.47s-10.58-12.23-16.23-8.32,3.28,22.31,10.57,24.19a7.18,7.18,0,0,0,9.18-4.83Z"/><path class="cls-2" d="M221.22,90.36a.1.1,0,0,0,0,.19c5.14,1.49,8.2,5.78,10.51,10.33-1.65-1.67-3.75-2.46-6-.46-.12.1,0,.29.16.25a4.39,4.39,0,0,1,5,1,21,21,0,0,1,2.73,3.67c.27.42,1,.1.82-.39a.37.37,0,0,0-.05-.11C233.82,98.57,228,90.29,221.22,90.36Z"/><path class="cls-2" d="M226,38.19c-.18,3.11-14.94,10.58-25.54,2.63C190,33,194.28,17.12,208.76,18.68,217.91,19.66,226.37,31.61,226,38.19Z"/><path class="cls-2" d="M195.1,26.78a18.26,18.26,0,0,1,8.06-9,11,11,0,0,1,11,0c3.46,1.87,6.08,5.13,8.13,8.64a34,34,0,0,1,2.53,5.63,16.88,16.88,0,0,1,1.17,6.1,14.86,14.86,0,0,0-.07-6.4,27.74,27.74,0,0,0-2-6.16,21.5,21.5,0,0,0-8.62-9.84,12.84,12.84,0,0,0-6.63-1.65,13,13,0,0,0-6.42,2.12A16.09,16.09,0,0,0,195.1,26.78Z"/><path class="cls-3" d="M211.42,339.86l-.71.18,0,0Z"/><path class="cls-1" d="M143.63,326.56c-.1.52-.19,1-.25,1.53,0-.1,0-.2,0-.3C143.47,327.37,143.55,327,143.63,326.56Z"/><path class="cls-1" d="M143.63,326.56c-.1.52-.19,1-.25,1.53,0-.1,0-.2,0-.3C143.47,327.37,143.55,327,143.63,326.56Z"/><path class="cls-1" d="M214.64,347.25v0l-2.21.51Z"/><path class="cls-8" d="M143.63,326.56c-.1.52-.19,1-.25,1.53,0-.1,0-.2,0-.3C143.47,327.37,143.55,327,143.63,326.56Z"/></svg>