<svg id="Слой_1" data-name="Слой 1" xmlns="http://www.w3.org/2000/svg" viewBox="0 0 581.13 402.55"><defs><style>.cls-1{fill:#fff;}.cls-2{fill:#ffc800;}.cls-3{fill:#306;}.cls-4{fill:#ff9581;}.cls-5{fill:#a8a8a8;}.cls-6{fill:#c8c8c8;}.cls-7{fill:#4a148c;}.cls-8{fill:#dcdcdc;}</style></defs><circle class="cls-1" cx="228.8" cy="195.05" r="164"/><path class="cls-2" d="M321.14,362c-92.08,0-167-74.92-167-167s74.91-167,167-167,167,74.92,167,167S413.23,362,321.14,362Zm0-325.82c-87.57,0-158.81,71.25-158.81,158.82s71.24,158.82,158.81,158.82S480,282.53,480,195,408.72,36.14,321.14,36.14Z"/><circle class="cls-2" cx="321.14" cy="194.96" r="144.22" transform="translate(-43.8 284.19) rotate(-45)"/><path class="cls-3" d="M358.18,162.7a1.29,1.29,0,0,1-1,1.35c-1.48.11-3.26.22-5.26.35-4.72-12.29-9.81-22-8.48-18.23a63,63,0,0,1,3.3,18.54c-2.32.13-7.7.39-10.4.52-4.09-21.63-9.35-37.66-9-32.71,1.32,20,.14,26.38-1.24,33.23-25.09,1.18-58,2.37-81.82,2.72-2.75-12-5.16-24.9-5.58-24-3.24,6.76-4.12,16.56-4.19,24.11-7.58.06-13.64,0-17.33-.28,0,0-1.78-10.05-2-13.36a69.3,69.3,0,0,1,2.65-25.19c2.52-8.38,6.88-15.79,11-23.38a1.11,1.11,0,0,1,.11-.16s0,0,0-.07a71.4,71.4,0,0,0,6.33-15.6.55.55,0,0,0,0-.12,67.82,67.82,0,0,0,1.95-12c1.11-14.77,9.42-27.54,23.29-31.45,26.2-24.71,52.46-14.35,60.4,4.57.77,1.85,1.51,4,2.23,6.27l0,.07c2.69,8.53,5.09,19.61,7.32,28.16,0,0,0,.05,0,.05a.09.09,0,0,0,0,.1v0a81.59,81.59,0,0,0,3.11,9.89C340.24,111.52,355.37,120.26,358.18,162.7Z"/><path class="cls-3" d="M254.44,51.07c-9.11,4.76-14.69,11.7-16.1,22.48-.82,6.28-1.23,12.41-3.64,18.34-2.49,6.13-6.43,11.15-10.48,16.17-6.43,8-10.92,15.91-11.92,26.48-1,10.75-.49,23.42,3.14,33.44a0,0,0,1,0,.09,0c-2.94-10.16-3-24.22-1.22-34.87,2-11.7,8.6-19.06,15.37-28a48.75,48.75,0,0,0,9.95-23.87c.67-5.33.59-10.87,2.74-15.9,2.55-6,7.65-9.81,12.71-13.19A.63.63,0,0,0,254.44,51.07Z"/><path class="cls-3" d="M348.88,112.63c-6.43-8.37-13.12-15.49-16.89-25.88-3.43-9.46-5.4-19.46-8.89-28.91-.06-.15-.29-.09-.24.07,5.39,16.78,6.44,33.72,17.29,47.83,5.89,7.66,11.78,14.76,15.67,24a82.1,82.1,0,0,1,6.11,30.35.26.26,0,1,0,.52,0A67.8,67.8,0,0,0,348.88,112.63Z"/><path class="cls-2" d="M178,334.79c.06-.42.14-.81.22-1.23-.1.52-.2,1-.26,1.53C178,335,178,334.89,178,334.79Z"/><path class="cls-2" d="M246.1,346.84a6.77,6.77,0,0,1-.71.37l-.1-.17,0,0,.73-.16A.18.18,0,0,0,246.1,346.84Z"/><path class="cls-4" d="M274.27,165.56C231.66,208.75,178.05,299.62,188,318c11.13,20.52,70.47-40,70.25-43.57-.18-2.67,20.7-57.87,36.54-98S284.81,154.87,274.27,165.56Z"/><path class="cls-5" d="M258.68,274.54c1.82-5.91,30.22-78.69,38.34-101.71s.6-30.13-22.6-9.05-74,91.5-85.62,128.88c-11.17,36,7.36,36,31.82,19.41C240.65,298.48,258.68,274.54,258.68,274.54Z"/><path class="cls-1" d="M300.08,160.4c0,.43-.09.86-.15,1.31a1.48,1.48,0,0,1-1.22.64,1.45,1.45,0,0,1-1.46-1.45,1.46,1.46,0,0,1,2.83-.5Zm-48.35,30.46a1.46,1.46,0,1,0,1.46,1.46A1.46,1.46,0,0,0,251.73,190.86Zm23.49,0a1.46,1.46,0,1,0,1.46,1.46A1.47,1.47,0,0,0,275.22,190.86Zm-11.74-15.05a1.46,1.46,0,1,0,1.45,1.46A1.46,1.46,0,0,0,263.48,175.81Zm23.48,0a1.46,1.46,0,1,0,1.46,1.46A1.46,1.46,0,0,0,287,175.81Zm-58.72,46.48a1.46,1.46,0,1,0,1.46,1.45A1.45,1.45,0,0,0,228.24,222.29Zm23.49,0a1.46,1.46,0,1,0,1.46,1.45A1.45,1.45,0,0,0,251.73,222.29Zm23.49,0a1.46,1.46,0,1,0,1.46,1.45A1.46,1.46,0,0,0,275.22,222.29Zm-35.23-15a1.46,1.46,0,1,0,1.46,1.45A1.45,1.45,0,0,0,240,207.24Zm23.49,0a1.46,1.46,0,1,0,1.45,1.45A1.45,1.45,0,0,0,263.48,207.24Zm-35.24,46.47a1.46,1.46,0,1,0,1.46,1.45A1.45,1.45,0,0,0,228.24,253.71Zm23.49,0a1.46,1.46,0,1,0,1.46,1.45A1.45,1.45,0,0,0,251.73,253.71ZM216.5,238.66a1.46,1.46,0,1,0,1.46,1.45A1.46,1.46,0,0,0,216.5,238.66Zm23.49,0a1.46,1.46,0,1,0,1.46,1.45A1.45,1.45,0,0,0,240,238.66Zm23.49,0a1.46,1.46,0,1,0,1.45,1.45A1.45,1.45,0,0,0,263.48,238.66Zm-58.72,46.47a1.46,1.46,0,1,0,1.45,1.46A1.46,1.46,0,0,0,204.76,285.13Zm23.48,0a1.46,1.46,0,1,0,1.46,1.46A1.45,1.45,0,0,0,228.24,285.13ZM216.5,270.08a1.46,1.46,0,1,0,1.46,1.46A1.46,1.46,0,0,0,216.5,270.08Zm23.49,0a1.46,1.46,0,1,0,1.46,1.46A1.46,1.46,0,0,0,240,270.08Zm-35.23,46.47a1.46,1.46,0,1,0,1.45,1.46A1.46,1.46,0,0,0,204.76,316.55ZM193,301.5a1.46,1.46,0,1,0,1.46,1.46A1.45,1.45,0,0,0,193,301.5Zm23.49,0A1.46,1.46,0,1,0,218,303,1.46,1.46,0,0,0,216.5,301.5Z"/><path class="cls-6" d="M395.91,318.34A144.43,144.43,0,0,1,242,315.57l.32-1.9,6.12-45.3s-14.39-25.15-6-43.19c4.23-9.12,41.23-66,56.82-77.28,14.61-10.6,35.82.75,43.73,9.07C370.9,186.36,385.3,242.34,395.91,318.34Z"/><path class="cls-3" d="M242.38,313.68q1.14-11.37,2.47-22.72c.93-7.56,1.74-15.13,2.76-22.68l.18.66a50.83,50.83,0,0,1-8.36-20.82,49.38,49.38,0,0,1-.48-11.27,41.06,41.06,0,0,1,2.79-11,108.3,108.3,0,0,1,10.52-19.64,177.33,177.33,0,0,1,13.28-17.77c-4.35,6-8.4,12.14-12.24,18.43a126.8,126.8,0,0,0-9.86,19.62A39.66,39.66,0,0,0,240.89,237a52.2,52.2,0,0,0,.54,10.81,49,49,0,0,0,7.78,20.05l.22.32-.05.34c-1,7.55-2.24,15.07-3.36,22.6S243.66,306.17,242.38,313.68Z"/><path class="cls-3" d="M253.2,206.35a11.66,11.66,0,0,1,.53-3,22.15,22.15,0,0,1,1-2.86,27.19,27.19,0,0,1,1.35-2.7,20.94,20.94,0,0,1,1.68-2.53,44.15,44.15,0,0,1-2.1,5.64C254.9,202.73,254,204.51,253.2,206.35Z"/><path class="cls-3" d="M273.71,262.5c8.22.1,16.44,1.83,24.32,4.06s25.49,9.2,29.89,10.91a.09.09,0,0,1-.05.18,153.47,153.47,0,0,1-16.9-5.09c-7.79-2.65-15.64-5-23.6-7.11A111.23,111.23,0,0,0,273.7,263,.25.25,0,0,1,273.71,262.5Z"/><path class="cls-3" d="M259.22,266.69A75.16,75.16,0,0,1,284.77,269a.09.09,0,0,1,0,.18c-4.23-.51-8.45-1-12.7-1.36s-8.56-.57-12.83-.86A.12.12,0,0,1,259.22,266.69Z"/><path class="cls-4" d="M188,318c9.59,13.72,35.7,16.34,100.83,29.1,9,1.76,38.58-58.49,29.06-60.87-12-3-59.22-12-62.76-12.25C225.34,272.12,181.53,308.74,188,318Z"/><path class="cls-4" d="M304.9,283.3s27.59,4.17,41.41,10.85c18.5,8.94,30.79,24.28,35.56,31,9.94,14.07,24.26,54.95,13.2,61.13-10,5.59-22.53-36.94-22.53-36.94s19.92,41.26,6.63,45.78-25-45.69-25-45.69,19.52,42.85,5.08,45.34c-10.92,1.89-24.1-43-24.1-43s16.52,36.95,5.38,39.37c-12.31,2.67-27.07-38-27.07-38-29.36,1.38-43.9-10-53.28-19.27C257.9,331.68,304.9,283.3,304.9,283.3Z"/><path class="cls-3" d="M366.56,334.65c2.52,4.76,5.1,9.56,7.18,14.53s4,10,5.61,15.16c3.95,12.61,4.46,21.12,4.37,20.6-2.09-12.36-9.28-30.26-11.36-35.23s-3.91-10-6-15C366.32,334.6,366.5,334.54,366.56,334.65Z"/><path class="cls-3" d="M348.48,341.85c2.95,6.22,6.11,12.28,8.78,18.63s4.64,12.55,6.86,19c.17.5-.15.43-.35-.07-2.47-6.39-5.26-12.11-7.81-18.47s-4.86-12.83-7.63-19.07A.08.08,0,0,1,348.48,341.85Z"/><path class="cls-3" d="M331.86,345.24c5,9.27,8.27,19.45,11.24,29.52.15.5-.26.36-.44-.14-3.55-9.89-6.27-17.67-11.13-29.21C331.46,345.23,331.75,345,331.86,345.24Z"/><path class="cls-5" d="M310.65,283.3l-57.06,63.55s-57.7-13.25-66.2-28.05c-5.6-9.74,37.84-49.2,70.64-44.6Z"/><path class="cls-1" d="M229.7,286.59a1.46,1.46,0,1,1-1.46-1.46A1.45,1.45,0,0,1,229.7,286.59Zm22-1.46a1.46,1.46,0,1,0,1.46,1.46A1.45,1.45,0,0,0,251.73,285.13Zm23.49,0a1.46,1.46,0,1,0,1.46,1.46A1.46,1.46,0,0,0,275.22,285.13Zm23.49,0a1.46,1.46,0,1,0,1.46,1.46A1.46,1.46,0,0,0,298.71,285.13Zm-93.95,31.42a1.46,1.46,0,1,0,1.45,1.46A1.46,1.46,0,0,0,204.76,316.55Zm23.48,0A1.46,1.46,0,1,0,229.7,318,1.45,1.45,0,0,0,228.24,316.55Zm23.49,0a1.46,1.46,0,1,0,1.46,1.46A1.45,1.45,0,0,0,251.73,316.55Zm23.49,0a1.46,1.46,0,1,0,1.46,1.46A1.46,1.46,0,0,0,275.22,316.55ZM216.5,301.5A1.46,1.46,0,1,0,218,303,1.46,1.46,0,0,0,216.5,301.5Zm23.49,0a1.46,1.46,0,1,0,1.46,1.46A1.46,1.46,0,0,0,240,301.5Zm23.49,0a1.46,1.46,0,1,0,1.45,1.46A1.46,1.46,0,0,0,263.48,301.5Zm23.48,0a1.46,1.46,0,1,0,1.46,1.46A1.45,1.45,0,0,0,287,301.5ZM216.5,332.92a1.46,1.46,0,1,0,1.46,1.46A1.46,1.46,0,0,0,216.5,332.92Zm23.49,0a1.46,1.46,0,1,0,1.46,1.46A1.46,1.46,0,0,0,240,332.92Zm23.49,0a1.46,1.46,0,0,0,0,2.92l1.44-1.61v0A1.47,1.47,0,0,0,263.48,332.91Z"/><path class="cls-3" d="M218.9,284.54c5.3-3.83,20.19-12.77,39.18-10.39.16,0,.17.29,0,.29-14.32-.4-33.64,7.08-39,10.34C218.89,284.86,218.77,284.64,218.9,284.54Z"/><path class="cls-3" d="M238,336.21c5.9-7.33,12.18-14.33,18.49-21.31s12.6-14,19.09-20.82c3.66-3.86,7.3-7.74,11.1-11.47.1-.1.29,0,.2.15-5.89,7.32-12.16,14.35-18.4,21.36s-12.61,14-19,20.91c-3.62,3.9-7.31,7.74-11.1,11.47C238.17,336.69,237.82,336.42,238,336.21Z"/><path class="cls-3" d="M310.76,282.48a81.25,81.25,0,0,0-10.7-2.44q-5.4-1-10.83-1.87c-7.19-1.15-22.31-4.42-35.59-4.38-.15,0,.61.71.75.71,6.33-.34,51.65,8.67,55.38,8.94a4.88,4.88,0,0,0-.4.75c-.08.19.1.43.3.29.46-.31.8-.7,1.24-1.05A.53.53,0,0,0,310.76,282.48Z"/><path class="cls-5" d="M353.37,160.92c54.53,47.57,97.41,106.33,94.63,121-5.19,27.35-41.2,29.06-46.66,23.15-22.08-23.92-45.38-70.27-70.63-122C308.16,136.9,335.41,145.26,353.37,160.92Z"/><path class="cls-1" d="M343.44,159.44A1.46,1.46,0,1,1,342,158,1.46,1.46,0,0,1,343.44,159.44Zm-1.46,30a1.46,1.46,0,1,0,1.46,1.46A1.46,1.46,0,0,0,342,189.4Zm23.49,0a1.46,1.46,0,1,0,1.46,1.46A1.46,1.46,0,0,0,365.47,189.4Zm-35.23-15a1.46,1.46,0,1,0,1.45,1.45A1.45,1.45,0,0,0,330.24,174.36Zm23.48,0a1.46,1.46,0,1,0,1.46,1.45A1.45,1.45,0,0,0,353.72,174.36Zm11.75,46.47a1.46,1.46,0,1,0,1.46,1.45A1.45,1.45,0,0,0,365.47,220.83Zm23.49,0a1.46,1.46,0,1,0,1.45,1.45A1.45,1.45,0,0,0,389,220.83Zm23,.07a1.48,1.48,0,0,0-.95,1.38,1.45,1.45,0,0,0,1.46,1.45,1.46,1.46,0,0,0,1.24-.7C413.09,222.32,412.51,221.61,411.94,220.9Zm-58.22-15.12a1.46,1.46,0,1,0,1.46,1.45A1.45,1.45,0,0,0,353.72,205.78Zm23.49,0a1.46,1.46,0,1,0,1.46,1.45A1.46,1.46,0,0,0,377.21,205.78Zm22.26.68a1.57,1.57,0,0,0-.22.78,1.45,1.45,0,0,0,1.46,1.45,1.32,1.32,0,0,0,.6-.13C400.71,207.86,400.09,207.17,399.47,206.46ZM366,252.36c.3.53.58,1.07.88,1.58a.9.9,0,0,0,0-.23A1.41,1.41,0,0,0,366,252.36Zm22.94-.11a1.46,1.46,0,1,0,1.45,1.45A1.45,1.45,0,0,0,389,252.25Zm23.48,0a1.46,1.46,0,1,0,1.46,1.45A1.45,1.45,0,0,0,412.44,252.25Zm22.93.11h0a1.46,1.46,0,0,0,.58,2.8,1.48,1.48,0,0,0,1-.38C436.42,254,435.91,253.17,435.37,252.36ZM377.21,237.2a1.46,1.46,0,1,0,1.46,1.46A1.46,1.46,0,0,0,377.21,237.2Zm23.49,0a1.46,1.46,0,1,0,1.46,1.46A1.46,1.46,0,0,0,400.7,237.2Zm24.93,1.17s0,0,0-.05l0,0c-.23-.32-.45-.6-.68-.9a1.42,1.42,0,0,0-.73-.19,1.46,1.46,0,1,0,0,2.91,1.5,1.5,0,0,0,1.44-1.75ZM389,283.67a1.46,1.46,0,1,0,1.45,1.46A1.46,1.46,0,0,0,389,283.67Zm23.48,0a1.46,1.46,0,1,0,1.46,1.46A1.45,1.45,0,0,0,412.44,283.67Zm23.49,0a1.46,1.46,0,1,0,1.46,1.46A1.46,1.46,0,0,0,435.93,283.67Zm-58.72-15.05a1.46,1.46,0,1,0,1.46,1.46A1.46,1.46,0,0,0,377.21,268.62Zm23.49,0a1.46,1.46,0,1,0,1.46,1.46A1.46,1.46,0,0,0,400.7,268.62Zm23.49,0a1.46,1.46,0,1,0,1.45,1.46A1.46,1.46,0,0,0,424.19,268.62ZM400.7,300a1.46,1.46,0,1,0,1.46,1.46A1.46,1.46,0,0,0,400.7,300Zm23.49,0a1.46,1.46,0,1,0,1.45,1.46A1.46,1.46,0,0,0,424.19,300Z"/><path class="cls-3" d="M392.34,294.4c-4-6.2-7.76-12.59-11.57-18.91s-7.61-12.69-11.32-19.08c-7.34-12.64-14.17-25.55-20.73-38.6-3.72-7.38-7.5-14.74-11-22.21-.11-.23-.51-.06-.42.18q5.13,13,11.06,25.67l-.22-.28c-.88-1.19-1.76-2.38-2.63-3.59-1.7-2.37-3.31-4.81-4.84-7.29-.12-.21-.42,0-.31.19a84,84,0,0,0,6,9.75,43,43,0,0,0,3.41,4.31l.11.11c1.81,3.75,3.65,7.48,5.59,11.18a442.38,442.38,0,0,0,22.25,38.35c2.28,3.47,4.58,6.94,7,10.34s5,6.7,7.43,10.06C392.18,294.75,392.46,294.59,392.34,294.4Z"/><path class="cls-4" d="M410.37,299.79c-10.33-14.83-5.1-44.33,6.25-115.07,1.57-9.79,75.88-10.56,74.74,0-1.43,13.28-14.66,65.74-18.11,73.46C456.36,295.92,417.37,309.85,410.37,299.79Z"/><path class="cls-4" d="M493.77,155.34c-2.86-22.51-7.06-27.85.61-48.13,5-13.3-1.31-22.23-12.38-12.41-18.1,16.06-20.5,45.87-18.35,56.45Z"/><path class="cls-3" d="M421.89,72.66l-26.95,90.61c-1.09,2.65.17,4.89,2.81,5l47.26,2a7.66,7.66,0,0,0,6.76-4.59l27-90.62c1.1-2.65-.16-4.89-2.8-5l-47.26-2A7.66,7.66,0,0,0,421.89,72.66Z"/><path class="cls-7" d="M427.5,72.84l-26.95,90.62c-1.09,2.65.17,4.89,2.81,5l47.26,2a7.66,7.66,0,0,0,6.76-4.59l26.95-90.62c1.1-2.65-.16-4.89-2.8-5l-47.26-2A7.67,7.67,0,0,0,427.5,72.84Z"/><path class="cls-3" d="M440.28,77.58a4,4,0,1,1-3.75-4.27A4,4,0,0,1,440.28,77.58Z"/><path class="cls-4" d="M482.11,218.94s13.47-29.23,12.78-53.52c-.47-16.79-5.57-53.21-49.46-77.47C435,82.2,416.1,81.38,429.69,97c9.66,11.06,19.12,15.16,23.56,22.62,0,0-24.18,1.82-29.54,12.47-2.39,4.76-8.62,17.91-12,28.84a45.73,45.73,0,0,0,5.19,2.73S412.83,174,418.82,190Z"/><path class="cls-4" d="M491.88,149.47c-6-6.47-18.87-20-33.25-27.34-16-8.19-49-19.66-54.9-7.8-4.34,8.7,7.87,14.18,7.87,14.18s-14.64-1.86-16.84,6.85c-2,7.94,7.69,11.62,7.69,11.62s-9.08.39-9.54,8.42c-.55,9.64,18.55,7.23,26.43,17.49C421.11,175.2,491.88,149.47,491.88,149.47Z"/><path class="cls-3" d="M452.79,140.46c-6.62-5.16-24.65-13-40.88-12.16-.37,0-.55.31-.21.37a175.85,175.85,0,0,1,41,11.94C452.8,140.65,452.86,140.52,452.79,140.46Z"/><path class="cls-3" d="M444.05,156.35c-6.16-3.87-25.11-11.15-41.53-9.69-.37,0-.53.33-.19.37A188.82,188.82,0,0,1,444,156.51C444.08,156.54,444.13,156.4,444.05,156.35Z"/><path class="cls-5" d="M492.55,208.68l-86.17,24.44s-17.19,56.48-6.26,70.66c11.68,15.15,65.93-8.33,76.73-41.34Z"/><path class="cls-1" d="M460.88,222.28a1.46,1.46,0,1,1-1.46-1.45A1.46,1.46,0,0,1,460.88,222.28Zm22-1.45a1.46,1.46,0,1,0,1.45,1.45A1.45,1.45,0,0,0,482.91,220.83Zm-70.47,31.42a1.46,1.46,0,1,0,1.46,1.45A1.45,1.45,0,0,0,412.44,252.25Zm23.49,0a1.46,1.46,0,1,0,1.46,1.45A1.46,1.46,0,0,0,435.93,252.25Zm23.49,0a1.46,1.46,0,1,0,1.46,1.45A1.45,1.45,0,0,0,459.42,252.25ZM424.19,237.2a1.46,1.46,0,1,0,1.45,1.46A1.46,1.46,0,0,0,424.19,237.2Zm23.49,0a1.46,1.46,0,1,0,1.45,1.46A1.46,1.46,0,0,0,447.68,237.2Zm23.48,0a1.46,1.46,0,1,0,1.46,1.46A1.45,1.45,0,0,0,471.16,237.2Zm-58.72,46.47a1.46,1.46,0,1,0,1.46,1.46A1.45,1.45,0,0,0,412.44,283.67Zm23.49,0a1.46,1.46,0,1,0,1.46,1.46A1.46,1.46,0,0,0,435.93,283.67Zm23.49,0a1.46,1.46,0,1,0,1.46,1.46A1.46,1.46,0,0,0,459.42,283.67ZM400.7,268.62a1.46,1.46,0,1,0,1.46,1.46A1.46,1.46,0,0,0,400.7,268.62Zm23.49,0a1.46,1.46,0,1,0,1.45,1.46A1.46,1.46,0,0,0,424.19,268.62Zm23.49,0a1.46,1.46,0,1,0,1.45,1.46A1.46,1.46,0,0,0,447.68,268.62Zm23.48,0a1.46,1.46,0,1,0,1.46,1.46A1.45,1.45,0,0,0,471.16,268.62ZM400.7,300a1.46,1.46,0,1,0,1.46,1.46A1.46,1.46,0,0,0,400.7,300Zm23.49,0a1.46,1.46,0,1,0,1.45,1.46A1.46,1.46,0,0,0,424.19,300Z"/><path class="cls-3" d="M409.2,252.72c9.62-2.18,19.11-4.87,28.6-7.59s19-5.42,28.41-8.37c5.33-1.67,10.67-3.31,15.93-5.17.14-.05.09-.29-.06-.26-9.6,2.18-19.12,4.83-28.6,7.48s-19,5.42-28.46,8.26c-5.34,1.61-10.66,3.31-15.92,5.17C408.83,252.33,408.92,252.79,409.2,252.72Z"/><path class="cls-3" d="M409.45,232.19c-1.35.14-2.68.42-4,.67a.63.63,0,0,0-.41.44c-1.47,5-2.52,10.18-3.56,15.29s-1.94,10.12-2.78,15.2c-.45,2.74-.85,5.48-1.16,8.22a29.68,29.68,0,0,0-3,10.65c0,.19.3.23.33,0a36.27,36.27,0,0,1,2.54-9.58,67.25,67.25,0,0,0,.53,20.17s.07,0,.06,0c-1.69-9.95.81-20.33,2.45-30.12.82-4.9,1.74-9.79,2.7-14.67s2.1-9.71,3-14.59c1.14-.43,2.29-.86,3.39-1.38C409.7,232.44,409.61,232.17,409.45,232.19Z"/><path class="cls-4" d="M321.55,144.66c-.45,2.84-12.47,22-25.3,22.31-4.17.1-5.75-22.67-5.75-22.67l-.5-1.66-7-23.17,26.37-19.78,3.83-2.64s1.5,6.46,3.28,14.53c.08.38.17.75.25,1.15s.23.88.31,1.31c.28,1.2.57,2.43.82,3.66.2.94.4,1.84.57,2.83s.37,2,.57,2.94C320.75,133.26,321.72,143.45,321.55,144.66Z"/><path class="cls-3" d="M321.31,140.33c-17.82,3.2-28.13-1-33.46-4.77L283,119.47l26.37-19.78,3.81-2.63s1.5,6.45,3.28,14.52c.09.37.17.75.26,1.16s.23.88.32,1.31c.28,1.2.56,2.42.81,3.66.2.92.39,1.84.56,2.83s.39,1.95.58,2.93C320.13,129.75,320.93,136.2,321.31,140.33Z"/><path class="cls-4" d="M334.27,81.48c8,41.71-16.06,51.22-25.06,52.94C301,136,273,140.26,260.75,99.6S265.32,42,283.81,37.47,326.24,39.76,334.27,81.48Z"/><path class="cls-3" d="M326.4,73.5a28.45,28.45,0,0,1-2.93-.21,4.71,4.71,0,0,1-2.94-.78,1.5,1.5,0,0,1-.25-1.83,3.73,3.73,0,0,1,3.54-1.37,5.49,5.49,0,0,1,3.68,1.45A1.61,1.61,0,0,1,326.4,73.5Z"/><path class="cls-3" d="M296.56,76a27.36,27.36,0,0,0,2.77-.94A4.76,4.76,0,0,0,302,73.53a1.5,1.5,0,0,0-.22-1.83,3.74,3.74,0,0,0-3.77-.42,5.5,5.5,0,0,0-3.2,2.34A1.61,1.61,0,0,0,296.56,76Z"/><path class="cls-3" d="M305.57,87.65c0-.11-.2.17-.18.28.5,2.85.6,6.2-1.85,7.52-.08,0-.05.19,0,.16C306.68,94.71,306.51,90.27,305.57,87.65Z"/><path class="cls-3" d="M302.59,85c-4.66.31-3.69,9.6.63,9.31S306.49,84.76,302.59,85Z"/><path class="cls-3" d="M300.81,85.71c-.75.61-1.45,1.62-2.42,1.82s-2.07-.65-2.91-1.51c-.09-.09-.16,0-.15.12.16,1.79,1,3.54,3,3.61,1.77.06,2.85-1.65,3.11-3.49C301.46,85.92,301.12,85.46,300.81,85.71Z"/><path class="cls-3" d="M322.29,84.75c0-.11.24.11.25.23.24,2.88,1,6.15,3.7,6.8.09,0,.1.17,0,.17C323,91.86,322.05,87.52,322.29,84.75Z"/><path class="cls-3" d="M324.52,81.46c4.58-.88,6,8.35,1.75,9.16S320.68,82.19,324.52,81.46Z"/><path class="cls-3" d="M326.53,81.77c.81.37,1.67,1.15,2.55,1.08s1.61-1.21,2.11-2.26c.05-.11.13,0,.16.08.32,1.75,0,3.68-1.63,4.28s-2.86-.79-3.55-2.49C326,82.15,326.21,81.62,326.53,81.77Z"/><path class="cls-3" d="M308.9,110c.73.63,1.48,1.52,2.53,1.55a7.74,7.74,0,0,0,3.06-.91.1.1,0,0,1,.14.14,3.9,3.9,0,0,1-3.58,1.78,3.08,3.08,0,0,1-2.42-2.41C308.58,110,308.8,109.93,308.9,110Z"/><path class="cls-3" d="M319.7,98.23s1.09,4.22,1.33,6.25c0,.19-.46.33-1.14.45a.08.08,0,0,1-.08,0,9.68,9.68,0,0,1-9.76-2.51c-.16-.18.07-.42.27-.31,2.89,1.65,5.9,1.81,9.08,1.49.07-.58-2.12-7.17-1.8-7.23,1.1-.22,3.36.28,4.72.51-2-8.86-5.45-17.33-7.33-26.18a.28.28,0,0,1,.51-.19c4.22,8.62,6.77,18.76,9.09,27.86C324.9,99.52,320.55,98.48,319.7,98.23Z"/><path class="cls-3" d="M262.46,100c10.47-1.21,11-33.72,11-37.71.12,2.51.8,15.83,1.86,16.28a10.49,10.49,0,0,0,3.25-.89h0a31.8,31.8,0,0,1,0-4.78c0-.75.4,1.57,1,4.41.58-.21,1.21-.46,1.9-.69a37.89,37.89,0,0,1,.2-10.18c.2-1.28,1,4.34,2.58,9.18,7.09-2.53,17.34-5.93,27.1-7,2.61-.3,4.87-.45,6.88-.51-.3-3.93-1.08-8.07-.72-7.19A37.44,37.44,0,0,1,319.76,68c1.09,0,2.1,0,3,0-.17-5.56-3.51-14.19-2.51-12.91a39.15,39.15,0,0,1,6.43,13.22c3.84.43,4.94,1.09,5,.1.05-1.79-3.35-17.12-16.32-27.52-14.1-11.32-40.53-12.35-53.77,7.86,0,0-11.52,8.89-12.43,21.83S256.41,100.65,262.46,100Z"/><path class="cls-1" d="M300.79,103.64A13.08,13.08,0,1,1,313,86.94h0a13.07,13.07,0,0,1-12.16,16.7ZM300,79.24a11.33,11.33,0,1,0,11.24,8.19A11.26,11.26,0,0,0,300,79.24Z"/><path class="cls-1" d="M330.46,99.05c-5,.16-9.7-4.82-10.71-11.57A15.64,15.64,0,0,1,321.13,78,8.15,8.15,0,0,1,334.93,76,15.58,15.58,0,0,1,339,84.6c1.07,7.13-2.39,13.58-7.7,14.38A6,6,0,0,1,330.46,99.05Zm-2.09-24.28q-.33,0-.66.06a7,7,0,0,0-5,4,13.85,13.85,0,0,0-1.2,8.39c.92,6.18,5.2,10.68,9.58,10s7.15-6.21,6.23-12.39a13.91,13.91,0,0,0-3.61-7.67A7.2,7.2,0,0,0,328.37,74.77Z"/><path class="cls-1" d="M312.74,88.51l-1.31-1.16c1.72-1.94,5.92-4.84,9.59-1.93l-1.09,1.37C316.65,84.18,312.9,88.33,312.74,88.51Z"/><path class="cls-1" d="M258.21,100.53l-1.65-.56c.26-.77,2.68-7.58,6.45-8.78,3.53-1.12,24.41-2.5,25.41-2.55l.09,1.75c-6.74.36-22.25,1.59-25,2.46C261.05,93.65,258.85,98.67,258.21,100.53Z"/><path class="cls-4" d="M269.34,100.47s-10.59-12.23-16.23-8.32,3.27,22.31,10.57,24.19a7.18,7.18,0,0,0,9.17-4.83Z"/><path class="cls-3" d="M255.79,97.36c-.11,0-.12.16,0,.19,5.13,1.49,8.2,5.78,10.5,10.33-1.65-1.67-3.75-2.46-6-.46-.12.1,0,.29.16.25a4.4,4.4,0,0,1,5,1,21.4,21.4,0,0,1,2.72,3.67c.28.42,1.05.1.83-.39l-.06-.11C268.4,105.57,262.6,97.29,255.79,97.36Z"/><path class="cls-3" d="M260.56,45.19c-.17,3.11-14.94,10.58-25.53,2.63-10.44-7.83-6.17-23.7,8.3-22.14C252.48,26.66,260.94,38.61,260.56,45.19Z"/><path class="cls-3" d="M229.68,33.78a18.2,18.2,0,0,1,8-9,11,11,0,0,1,11,0c3.45,1.87,6.08,5.13,8.12,8.64a33.15,33.15,0,0,1,2.53,5.63,16.67,16.67,0,0,1,1.17,6.1,14.71,14.71,0,0,0-.07-6.4,27.74,27.74,0,0,0-2-6.16,21.48,21.48,0,0,0-8.61-9.84,12.23,12.23,0,0,0-13.05.47A16.09,16.09,0,0,0,229.68,33.78Z"/><path class="cls-4" d="M246,346.86l-.71.18,0,0Z"/><path class="cls-2" d="M178.21,333.56c-.1.52-.2,1-.26,1.53,0-.1,0-.2,0-.3C178.05,334.37,178.13,334,178.21,333.56Z"/><path class="cls-2" d="M178.21,333.56c-.1.52-.2,1-.26,1.53,0-.1,0-.2,0-.3C178.05,334.37,178.13,334,178.21,333.56Z"/><path class="cls-2" d="M249.22,354.25v0l-2.21.51Z"/><path class="cls-8" d="M178.21,333.56c-.1.52-.2,1-.26,1.53,0-.1,0-.2,0-.3C178.05,334.37,178.13,334,178.21,333.56Z"/><path class="cls-3" d="M62.24,186.09h72.45v16.52l-32.94,9.8h32.94v15.75H62.24V212.41l32.62-10.57H62.24Z"/><path class="cls-3" d="M88.91,135.3v18.84H82.33c-4.15,0-6.74.18-7.79.54a2.82,2.82,0,0,0-.22,4.92q1.34.63,6.89.63H116q4.88,0,6.42-.63a2.45,2.45,0,0,0,1.55-2.51,2.76,2.76,0,0,0-1.75-2.79q-1.74-.74-6.8-.74h-8.59v3.8h-11V135.3h38.89v11.84l-5.19,1.74a13.3,13.3,0,0,1,5,4.86,13.69,13.69,0,0,1,1.68,6.92,18,18,0,0,1-2.31,8.89,16.9,16.9,0,0,1-5.7,6.29,18,18,0,0,1-7.14,2.69,85.29,85.29,0,0,1-11.21.54H88.33c-6.93,0-12-.38-15.09-1.12s-6-2.89-8.61-6.42-3.92-8.11-3.92-13.72,1.14-10.1,3.41-13.74,5-6,8.07-7.11,7.65-1.66,13.58-1.66Z"/><path class="cls-3" d="M104.66,85q10.92,0,15.46.51A17.29,17.29,0,0,1,134.19,96a26.49,26.49,0,0,1,2,10.74,27.45,27.45,0,0,1-1.9,10.45,17.45,17.45,0,0,1-14,10.81,155.89,155.89,0,0,1-15.66.53H92.26q-10.92,0-15.46-.51a17.29,17.29,0,0,1-14.07-10.54,26.66,26.66,0,0,1-2-10.74A27.26,27.26,0,0,1,62.62,96.3a17.41,17.41,0,0,1,14-10.81A156,156,0,0,1,92.26,85ZM80.85,103.8c-3.37,0-5.52.18-6.46.56a2.22,2.22,0,0,0-1.41,2.3,2.56,2.56,0,0,0,1.14,2.26q1.14.78,6.73.78h33.83q6.31,0,7.79-.51A2.25,2.25,0,0,0,124,106.8a2.33,2.33,0,0,0-1.7-2.47q-1.71-.52-8.1-.53Z"/><path class="cls-3" d="M137.06,270H64.4V255.78h72.66Z"/><path class="cls-3" d="M137.06,293.19H64.4V279h72.66Z"/><path class="cls-3" d="M110.24,307.58V243.13h14.18v64.45Z"/><path class="cls-3" d="M81.47,307.58V243.13H95.65v64.45Z"/></svg>