<svg id="Слой_1" data-name="Слой 1" xmlns="http://www.w3.org/2000/svg" xmlns:xlink="http://www.w3.org/1999/xlink" viewBox="0 0 581.13 402.55"><defs><style>.cls-1{fill:none;}.cls-2{fill:#ffc800;}.cls-3{clip-path:url(#clip-path);}.cls-4{fill:#4a148c;}.cls-5{fill:#c36358;}.cls-6{fill:#306;}.cls-7{opacity:0.1;}.cls-8{fill:#ececec;}.cls-9{fill:#c8c8c8;}.cls-10{fill:#fff;}.cls-11{fill:#1a2e35;}.cls-12{fill:#dcdcdc;}.cls-13{opacity:0.6;}</style><clipPath id="clip-path"><path class="cls-1" d="M447.61,239c-15.85,24.56-8.31,31.31-26.52,58.84-7.57,11.44-33.2,49-83.69,66.29C322.61,369.22,277,382.38,228,361.67a152.65,152.65,0,0,1-47.23-32.32c-41.88-41.81-48.45-95.78-50.78-114.9-11.68-96,39.72-235,136.13-255.52C321.64-52.86,370.3-20.72,428.55,17.77c15.34,10.13,135.69,91,118.5,143.36C536.4,193.57,483.05,184.11,447.61,239Z"/></clipPath></defs><circle class="cls-2" cx="287.46" cy="214.45" r="157.46" transform="translate(-67.44 266.08) rotate(-45)"/><path class="cls-2" d="M287.46,396.78c-100.53,0-182.32-81.79-182.32-182.33S186.93,32.12,287.46,32.12s182.33,81.79,182.33,182.33S388,396.78,287.46,396.78Zm0-355.73c-95.61,0-173.39,77.79-173.39,173.4s77.78,173.4,173.39,173.4,173.4-77.79,173.4-173.4S383.08,41.05,287.46,41.05Z"/><g class="cls-3"><polygon class="cls-4" points="432.05 73.77 440.09 41.86 445.91 45.52 432.05 73.77"/><polygon class="cls-4" points="440.2 80.97 466.58 72.91 468.5 80.2 440.2 80.97"/><polygon class="cls-4" points="437.05 74.98 468.92 40.57 475.94 49.16 437.05 74.98"/><path class="cls-5" d="M407.77,402.63l-90.2-18.28q-1-8-1.8-15.71c-.65-6.31-1-12.35-1.13-18,0-1.34,0-2.67,0-4,0-2.56.09-5.05.23-7.44.68-12,2.89-21.66,6.61-27.75,3.32-5.45,7.86-8.06,13.6-7a5.63,5.63,0,0,1,.69.14,12.47,12.47,0,0,1,1.38.39c9,2.92,20.61,14.23,34.91,36.73q5.15,8.1,10.75,18.16,1.86,3.35,3.86,6.86C392.9,377.79,400.12,390,407.77,402.63Z"/><path class="cls-6" d="M427.37,406.6,308,382.41c-1.11-6.38-2.11-12.49-3-18.26-.64-4.31-1.14-8.44-1.53-12.4-.15-1.6-.3-3.19-.4-4.73h0q-.36-4.63-.48-8.91c-.06-1.8-.09-3.55-.08-5.26s0-3.17.08-4.7c0-1,.08-2,.14-3s.13-1.94.2-2.88c.13-1.49.27-2.93.46-4.33.09-.75.19-1.48.3-2.2,0-.12,0-.25.05-.37,1.54-9.87,4.45-17.23,8.46-22A17.37,17.37,0,0,1,322.93,287c.24-.05.49-.08.74-.11,4.8-.57,10.25.8,16.17,4.16h0c7.61,4.33,16,11.94,24.79,22.92C382.64,336.44,405.7,371.63,427.37,406.6Z"/><path class="cls-2" d="M403.33,368.84A62.22,62.22,0,0,0,406.47,390c1.62,4.75,5.16,11.53,11.29,9.07a7.89,7.89,0,0,0,3.26-2.51C415.17,387.14,409.21,377.8,403.33,368.84Zm-32.51,26.3L382,397.41C378.69,394.29,374.58,392.41,370.82,395.14Zm20.29-44.69c-5.26-7.77-10.44-15.18-15.36-21.88-2,1.89-3.06,5-3.35,8.57a36.16,36.16,0,0,0-.36,4.6,52.24,52.24,0,0,0,2,15c1.17,3.84,3.32,10.43,8.06,11.31a5.13,5.13,0,0,0,4.57-1.32c1.91-1.69,3.07-4.57,3.64-6.89A48.9,48.9,0,0,0,391.11,350.45Z"/><path class="cls-7" d="M345.29,390,308,382.41c-1.12-6.38-2.12-12.49-2.95-18.26q-1-6.47-1.54-12.4c-.15-1.6-.3-3.19-.41-4.73q-.36-4.63-.48-8.91h0c-.06-1.8-.09-3.55-.08-5.26s0-3.17.08-4.7c0-1,.08-2,.14-3s.13-1.94.2-2.88c1.11-13.4,4.38-23.06,9.3-28.88a20.83,20.83,0,0,1,2.88-2.84l1.73,5.71,4.6,15.18,6.06,20,2.2,7.23.57,1.86,8.61,28.39,4.53,15Z"/><path class="cls-6" d="M343.48,389.6,283,377.35c2-10,4-19.74,5.87-28.9q.56-2.67,1.08-5.3c.68-3.29,1.34-6.51,2-9.64,4.66-22.69,8.38-40.57,10.23-49.41h0c.82-3.92,1.28-6.07,1.28-6.07l-.13-2.17-.26-4.26a71.09,71.09,0,0,1,20.6,15.28c1.08,1.14,2.16,2.37,3.23,3.66a64.47,64.47,0,0,1,7.18,10.73c.22.4.43.78.63,1.19.36.71.7,1.43,1,2.17s.75,1.65,1.08,2.5h0a62.52,62.52,0,0,1,3.69,12.74c1.93,10.83,2.66,34.92,2.91,64C343.44,385.75,343.46,387.66,343.48,389.6Z"/><path class="cls-8" d="M338.55,388.6,145.14,349.41c31.08-33.8,59.83-62,74-71.49a48.53,48.53,0,0,1,5.92-3.39,63,63,0,0,1,13.1-4.72,82.85,82.85,0,0,1,13.62-2.16c2.52-.21,5.07-.3,7.63-.31a119.29,119.29,0,0,1,35.39,5.46h0c2.93.92,5.76,1.93,8.49,3.05A79.16,79.16,0,0,1,322.93,287a49.42,49.42,0,0,1,4,3.55,31.71,31.71,0,0,1,6.55,9.15,15.75,15.75,0,0,1,.63,1.58c.14.37.27.75.39,1.15.2.65.4,1.34.59,2.07.44,1.74.85,3.71,1.21,5.91h0c2.15,13.09,2.85,33.94,2.63,58.49C338.83,375.24,338.72,381.83,338.55,388.6Z"/><path class="cls-9" d="M241.44,284.22A223.89,223.89,0,0,0,257.92,313c6.19,9,13.3,17.46,21.82,23.89s18.63,10.66,29.16,10.39,20.61-6.27,26.76-15.6c-4.15,10.33-14.43,18.91-26.44,19.88-11.84,1.27-23.62-3.31-32.8-10.29a87.77,87.77,0,0,1-22.11-26A123.57,123.57,0,0,1,241.44,284.22Z"/><path class="cls-6" d="M235,367.62,132.74,346.9c27.34-34,50.63-62.12,58.87-68.94h0a13.54,13.54,0,0,1,1.31-1c9.51-6.26,22.07-9.55,33.2-11.28a159.86,159.86,0,0,1,26.31-1.87l-.63,3.85c-.84,5.08-2.46,14.89-4.62,27.82-.22,1.31-.44,2.66-.67,4C243.42,318.06,239.36,342.17,235,367.62Z"/><path class="cls-2" d="M237.54,313h0c0-.18-.08-.34-.12-.51s-.13-.41-.2-.6c0,0,0,0,0,0a5.94,5.94,0,0,0-.27-.57h0a3.24,3.24,0,0,0-.21-.35c-.12-.17-.23-.32-.35-.47h0a4.83,4.83,0,0,0-.38-.4,2.09,2.09,0,0,0-.28-.24,4.13,4.13,0,0,0-.9-.54,1.4,1.4,0,0,0-.17-.09h0a6.75,6.75,0,0,0-3.16-.38,21.75,21.75,0,0,0-6.94,2.12,51.49,51.49,0,0,0-7.8,4.49c-.85.59-1.68,1.21-2.5,1.85-.55.43-1.08.87-1.62,1.32s-1.05.91-1.57,1.39a41.59,41.59,0,0,0-9.81,13.18c-.37.54-.73,1.06-1.07,1.61l-.44.7-.35.61c-.15.26-.28.52-.41.77-1.6,3.1-2.24,6.07-1,8.29a3.48,3.48,0,0,0,.22.36,4.66,4.66,0,0,0,.54.67h0a6.53,6.53,0,0,0,2,1.42,1.66,1.66,0,0,0,.31.12l.3.12a6.91,6.91,0,0,0,2.92.24c.28,0,.57-.08.87-.14h0a8.61,8.61,0,0,0,1.06-.26c.33-.09.67-.2,1-.32s.58-.21.88-.34a33,33,0,0,0,3.72-1.85l.48-.29a4.78,4.78,0,0,0,.42-.26c.3-.17.6-.35.89-.54l.41-.25c.48-.3.93-.6,1.36-.86l1-.66c.59-.37,1.18-.76,1.76-1.16s.88-.61,1.32-.94,1-.74,1.51-1.12,1-.77,1.47-1.17h0a50.38,50.38,0,0,0,9.91-10.72C234.51,323.93,238.41,317.62,237.54,313Z"/><path class="cls-5" d="M234.81,309.3h0c-4.73,10.34-13.25,22.18-25.49,34.4q-2.07,2.07-4.22,4.24h0c-3.53,3.59-7.21,7.39-11,11.37l-84.17-17.06c32.13-21.17,86.8-76.67,119.33-71.76C244.25,272.77,242.91,291.54,234.81,309.3Z"/><path class="cls-6" d="M244.49,294.16a78.48,78.48,0,0,1-7,18.86h0q-1,2.09-2.23,4.25l-.94,1.69c-.49.85-1,1.73-1.52,2.61-.38.64-.77,1.29-1.17,1.94s-.69,1.14-1.05,1.71L229.54,327c-1.47,2.33-3,4.74-4.65,7.21q-.6.93-1.23,1.86l-1.26,1.89h0c-5,7.46-10.62,15.45-16.67,23.76l-98.17-19.9c.2-.14,37.42-32.76,65.51-52.67,25.85-18.32,53.41-27.79,65.13-19.31,5.9,4.28,8.27,11.65,6.81,21.55h0C244.86,292.27,244.7,293.2,244.49,294.16Z"/><path class="cls-2" d="M237.42,312.51c-.06-.21-.13-.41-.2-.6,0,0,0,0,0,0a5.94,5.94,0,0,0-.27-.57h0a3.24,3.24,0,0,0-.21-.35,3.38,3.38,0,0,0-.35-.47h0a4.83,4.83,0,0,0-.38-.4,2.09,2.09,0,0,0-.28-.24,4.13,4.13,0,0,0-.9-.54h0a.85.85,0,0,0-.17-.08h0a6.75,6.75,0,0,0-3.16-.38,21.75,21.75,0,0,0-6.94,2.12,51.49,51.49,0,0,0-7.8,4.49c-.85.59-1.68,1.21-2.5,1.85-.55.43-1.08.87-1.62,1.32s-1.05.91-1.57,1.39a41.59,41.59,0,0,0-9.81,13.18c-.37.54-.73,1.06-1.07,1.61l-.44.7-.35.61c-.15.26-.28.52-.41.77-1.6,3.1-2.24,6.07-1,8.29a3.48,3.48,0,0,0,.22.36,4.66,4.66,0,0,0,.54.67h0a6.61,6.61,0,0,0,2,1.41l.3.13.3.12a6.91,6.91,0,0,0,2.92.24c.28,0,.57-.08.87-.14h0a8.61,8.61,0,0,0,1.06-.26c.33-.09.67-.2,1-.32s.58-.21.88-.34a33,33,0,0,0,3.72-1.85l.48-.29a4.78,4.78,0,0,0,.42-.26c.3-.17.6-.35.89-.54l.41-.25c.48-.3.93-.6,1.36-.86l1-.66c.59-.37,1.18-.76,1.76-1.16s.88-.61,1.32-.94,1-.74,1.51-1.12,1-.77,1.47-1.17h0l1.26-1.89q.63-.93,1.23-1.86c1.63-2.47,3.18-4.88,4.65-7.21l1.09-1.73c.36-.57.71-1.15,1.05-1.71s.79-1.3,1.17-1.94c.53-.88,1-1.76,1.52-2.61l.94-1.69q1.19-2.16,2.23-4.25h0C237.51,312.84,237.46,312.68,237.42,312.51Z"/><path class="cls-6" d="M209.1,360.32c-.47.59-.95,1.18-1.43,1.76l-.88-.18,1.86-1.94C208.9,359.69,209.34,360,209.1,360.32Z"/><path class="cls-6" d="M445,180.34c-.08-.05-.19,0-.12.11,7.82,8,11,20.16,4.59,30.16-5.48,8.54-14.18,11-23.1,10.22,8.24-2.16,15.92-6.81,20.13-14.32,4.63-8.25,4.05-18.82-1.95-25.92,8.55-6.67,15.36-16.66,15-27.62-.3-9.22-6-17.88-14.74-21,7-8.1,9-20.08,4.07-29.55-4.64-8.91-14.43-14.15-24.52-14A21.66,21.66,0,0,0,410.74,54a14.58,14.58,0,0,0-2.1-15.87c-4.24-5.17-11.06-7-17.66-7.66a17.31,17.31,0,0,0-9.88-13.78,16.77,16.77,0,0,0-20.46,6c-8-7-17.74-13.43-28.9-13.27-9.19.14-18.69,5-22.21,13.62-16.08-10.56-38-4.89-47.23,12.23C254.63,33,246.09,35.2,240,40.6s-8.61,10.59-9.56,13.14A17.53,17.53,0,0,0,212,61.61c-3.82,6-3.5,12.65-1.52,19a12.85,12.85,0,0,1-2.72,5c-6.49,7.75-8.84,17.46-6.15,27-10.2,6.28-12.44,21-4.53,29.61-8,9.14-6.66,23.89,2.75,31.23a32.35,32.35,0,0,0-5.11,26.74c1.84,7,7,14,14.54,14.79-2.91,5,.34,11.32,5.09,14.27a28.44,28.44,0,0,0,5.79,2.61c2.39.82,5.68,1.23,7.63,2.86s2.47,4.68,3.53,6.94a25.22,25.22,0,0,0,2.81,4.59c6.67,8.61,18.34,12.58,29.06,10.56a27.72,27.72,0,0,0,7.65-2.57c3.7,7.77,12.33,10.9,20.81,11.21,1,0,2,0,3,0a51.94,51.94,0,0,0,9-1.35,25.18,25.18,0,0,1,3.07-.51,10.66,10.66,0,0,1,4.91.59c1.67.63,3.16,1.63,4.82,2.27,5.64,2.16,11.23.38,16.53-2a25.47,25.47,0,0,0,12.21,11.82h0c14.32,6.35,33.54-1.88,40.21-18.4A29.83,29.83,0,0,0,412.64,253h0A25.18,25.18,0,0,0,415,251a28.06,28.06,0,0,0,7-26.83h0s0,0,0,0,0,0,0,0c-.16-.62-.34-1.24-.55-1.85.29.07.58.14.87.19,10.84,2.34,22.47-.4,28.87-10.68C458,200.8,454.47,188.05,445,180.34ZM229.93,55.4s-2.44.59-3.58,1a23.54,23.54,0,0,0-5.83,3.21,23.79,23.79,0,0,0-8.13,10.95,24.27,24.27,0,0,0-1.2,6c0,.27-.07.49-.1.75a21.3,21.3,0,0,1,1.3-11.73c3.16-7.2,10-11.16,17.8-11C230,55,229.93,55.4,229.93,55.4ZM380.51,18.08c5.41,2.51,7.69,7.13,8.33,12.25h-.12a18.36,18.36,0,0,0-7-7.66,17.69,17.69,0,0,0-19.91,1.13l-.43-.37C366.57,18.05,372.76,14.51,380.51,18.08ZM346,274.55h0c-4.26-1.93-8.31-5.34-11.87-10.55l.23-.1a30.51,30.51,0,0,0,12.76,8.1h0a32.28,32.28,0,0,0,30.86-6.21C368.73,274.86,356.65,279.38,346,274.55Z"/><path class="cls-5" d="M310.86,339.47c-20.93-.5-50.18-26.66-57.15-54.56-.47-1.92,24-67,27.5-80.43l78.73,42.42s-15.61,25.94-21.59,49.35a32.56,32.56,0,0,0-.86,5.65c0,.26,0,.59-.11.94C336.35,313.74,331.09,339.94,310.86,339.47Z"/><path class="cls-6" d="M337.48,301.91c-.05.24-.05.55-.12.91a54.79,54.79,0,0,1-8.75-1.75c-48.38-13.83-44.25-76.38-42.09-93.72L306.19,218l53.75,29s-15.63,25.94-21.56,49.36A28.73,28.73,0,0,0,337.48,301.91Z"/><path class="cls-5" d="M286.28,108.31c-13.65,29.93-9.1,122.23,10.43,145.26C325,287,377.31,296.7,407.18,261.32c28.95-34.31,20.89-154.49-1.47-176C372.76,53.57,306.44,64.09,286.28,108.31Z"/><path class="cls-6" d="M363.58,172.59c-.06-.24-.48.31-.46.57.48,6.21,0,13.4-5.56,15.71-.17.07-.14.38.07.35C364.45,187.94,365,178.39,363.58,172.59Z"/><path class="cls-6" d="M357.74,166.34c-10-.32-9.93,19.78-.63,20.07C366.26,186.7,366.15,166.6,357.74,166.34Z"/><path class="cls-6" d="M400.85,172.45c0-.24.49.29.48.54-.16,6.23.69,13.38,6.34,15.42.17.06.15.38-.05.35C400.74,187.83,399.69,178.32,400.85,172.45Z"/><path class="cls-6" d="M406.37,165.92c10-.82,10.9,19.26,1.63,20S398,166.6,406.37,165.92Z"/><path class="cls-6" d="M349.7,150.78a78.46,78.46,0,0,1,8.24-.56c3.16-.18,5.66-.65,8.5,1a4.26,4.26,0,0,1,1.41,5c-1.72,3.64-5.53,4.82-9.33,5.19a15.47,15.47,0,0,1-10.84-2.63C344.34,156.6,346,151.37,349.7,150.78Z"/><path class="cls-6" d="M414.35,151.86a75.47,75.47,0,0,1-8-2.13c-3.05-.85-5.57-1.21-7.72-3.72a4.24,4.24,0,0,1,.29-5.18c2.79-2.9,6.79-2.78,10.5-1.91a15.5,15.5,0,0,1,9.41,6C421.3,148.08,418,152.49,414.35,151.86Z"/><path class="cls-6" d="M370.13,233.28c1,1.83,1.84,4.18,3.95,5s4.73.6,6.85.44a.22.22,0,0,1,.17.39,8.4,8.4,0,0,1-8.54.94c-2.56-1.29-3.18-4-3.09-6.69C369.49,233,370,233,370.13,233.28Z"/><path class="cls-6" d="M364.41,211.66A20.8,20.8,0,0,0,378,221.24a26.22,26.22,0,0,0,7.46.52,7.39,7.39,0,0,0,1.43-.13c.44,0,.85-.08,1.34-.17a1.52,1.52,0,0,0,1.26-1.33v0a2.16,2.16,0,0,0,0-.62v-.58c.24-4.69,0-11.84,0-11.84,1.69.91,10.34,5.05,10.26,2.6-.71-20.32-1.49-42.92-6.49-63a.57.57,0,0,0-1.12.12c-.09,19.56,3.26,39,3.48,58.65-2.77-1.13-7.27-3.2-9.72-3.22-.67.18.78,13.81.5,15.9a.93.93,0,0,1,0,.23c-7.91.81-13.79-1.72-21.31-7.2C364.55,210.77,364.06,211.17,364.41,211.66Z"/><path class="cls-6" d="M426.92,124.81c-2.24-8.25-5.9-10.23-5.9-10.23s.72-9.52-7-22.32c-8.1-13.39-17.75-15.76-17.75-15.76s-4.51-5.85-15-10.7a63.49,63.49,0,0,0-10.92-3.88c-4.23-1.09-17.19-2.19-21.32-.86-4.75,1.54-9.49-1.24-14.29-1.66A31.79,31.79,0,0,0,321.47,61a34.2,34.2,0,0,0-10,5.3,53.38,53.38,0,0,0-5,4.58c-2.69,2.67-5.13,3.49-8.58,4.24-7.38,1.64-13.74,6.44-17.91,13.75a35.5,35.5,0,0,0-4.22,13.88c-.66,6.06-7.25,8.48-10,13.55a21.06,21.06,0,0,0-1.47,3.39,23,23,0,0,0,4,21.84c-8.36,5.16-12.21,17.69-8.65,28a20.24,20.24,0,0,0,3.21,5.9l.43.51a21.26,21.26,0,0,0,2.71,2.66,32.39,32.39,0,0,0,9.89,5.26,18.6,18.6,0,0,0,3.91.9c.41.09.82.18,1.23.24a17.4,17.4,0,0,0,6.18-.07,21.07,21.07,0,0,0,9.19-4.19,23.81,23.81,0,0,0,4.78-5,23.41,23.41,0,0,0,2-3.38,24.1,24.1,0,0,0,1.85-16.27l0-.14s15.75,7.4,25.39-3.32c5.89-6.57,8.32-16,9-25.27,17.11,12.52,42.7,3.12,47.48-19.64,4.7,6,15.88,14.23,22.79,12.59,1.45,20.34,11.78,22,15.74,22.57l.28,0C426.39,143,429.51,134.29,426.92,124.81ZM301.07,172.25a23.34,23.34,0,0,1-6.51,7,9.19,9.19,0,0,1-.81.58c.25-.23.49-.45.73-.69a23.11,23.11,0,0,0,3.18-3.83,27.53,27.53,0,0,0,2-3.39,57.22,57.22,0,0,0,4.48-14.81A23.09,23.09,0,0,1,301.07,172.25ZM359.52,130c10.48-2.16,19.87-9.87,25-21.63C380.28,122.18,370.64,128.79,359.52,130Z"/><path class="cls-10" d="M271,143.2c10.34,13.39,30.63,16.89,48.08,10.45,11.44-4.23,19.61-17.37,31.7-27.68,19.91-17,58.3-14.13,54.6-47.42-3.28-29.6-49-42.29-93.66-26.95C272.21,65.15,247.74,113.11,271,143.2Z"/><path class="cls-2" d="M382.51,184.43c-.05-.8-.14-1.6-.27-2.41h0c-.1-.59-.2-1.18-.34-1.76a28.32,28.32,0,0,0-32-21.74c-.69.11-1.35.24-2,.4a28.34,28.34,0,0,0-19.64,16.6,29.09,29.09,0,0,0-1.24,3.58,28.29,28.29,0,0,0,38.09,33.55c.43-.17.85-.36,1.28-.56A28.37,28.37,0,0,0,382.51,184.43Zm-24.37,26.24a24.51,24.51,0,1,1-7.69-48.42,24.9,24.9,0,0,1,6.08-.21,24.52,24.52,0,0,1,1.61,48.63Z"/><path class="cls-2" d="M438.81,183.9a33.68,33.68,0,0,0-6.47-19.62,21.84,21.84,0,0,0-7.16-6.22,16.5,16.5,0,0,0-8.14-1.92c-5.74.14-11,3.3-14.87,8.89a30.69,30.69,0,0,0-4.39,9.93h0a35.42,35.42,0,0,0-.73,3.69,36.46,36.46,0,0,0-.35,4.35c0,.65,0,1.31,0,2a36.1,36.1,0,0,0,2.54,12.59c3.42,8.48,9.91,14.42,17.38,15.1a16.43,16.43,0,0,0,1.86.07,16,16,0,0,0,5.45-1.12C432.81,208.14,439.15,197,438.81,183.9Zm-14.37,23.31a12.87,12.87,0,0,1-6.06,1.74c-9.57.24-17.56-10.57-17.9-24.08a34.64,34.64,0,0,1,.21-4.8h0c.05-.48.12-1,.2-1.44h0c.12-.8.28-1.59.47-2.37h0a27,27,0,0,1,3.92-9c.3-.43.61-.84.93-1.24,3-3.79,6.86-5.91,10.93-6a13.58,13.58,0,0,1,1.43,0,13.73,13.73,0,0,1,6.88,2.73,19.76,19.76,0,0,1,3.89,3.87A30.05,30.05,0,0,1,435,184C435.3,194.47,430.88,203.55,424.44,207.21Z"/><path class="cls-2" d="M381.37,185.32l-2.5-2.84c4.2-3.71,14-8.81,21.09-1.59l-2.69,2.65C390.92,177.06,381.76,185,381.37,185.32Z"/><path class="cls-2" d="M259.16,181.32l-3.07-2.21c1-1.43,10.33-14,18.89-14.11,8-.08,52.09,10.22,54.19,10.74l-.91,3.67c-14.17-3.49-47.05-10.71-53.23-10.62C269.38,168.86,261.66,177.86,259.16,181.32Z"/><path class="cls-5" d="M298.57,184.68s-17.15-31.5-31.23-25.7-3.45,49.87,11.47,57.4S301,210.25,301,210.25Z"/><path class="cls-6" d="M270.7,171.54c-.24,0-.33.29-.12.41,10.41,5.64,15,16.4,17.87,27.34-2.79-4.4-7-7.11-12.8-3.85-.31.17-.09.65.23.61,4.57-.45,7.71.68,10.33,4.6,1.85,2.78,3,6.14,4.16,9.24.4,1,2.22.71,2-.46a2,2,0,0,1-.06-.26C294.12,195.29,285.48,174.61,270.7,171.54Z"/><path class="cls-6" d="M356.2,58l-1.87,9.24a1.8,1.8,0,0,1-2.13,1.4h0a1.84,1.84,0,0,1-1.25-1,3.76,3.76,0,1,0-4.07,5.43,3.7,3.7,0,0,0,3.12-.77,1.85,1.85,0,0,1,1.53-.4h0a1.8,1.8,0,0,1,1.41,2.12l-1.87,9.24-9.23-1.87a1.8,1.8,0,0,0-2.13,1.41h0a1.85,1.85,0,0,0,.4,1.53A3.76,3.76,0,1,1,333.52,86a3.78,3.78,0,0,1,1.93-2.58,1.86,1.86,0,0,0,1-1.25h0A1.82,1.82,0,0,0,335,80.06l-9.24-1.87L327.64,69a1.8,1.8,0,0,1,2.13-1.41h0a1.83,1.83,0,0,1,1.25,1,3.76,3.76,0,1,0,1-4.67,1.85,1.85,0,0,1-1.53.4h0A1.79,1.79,0,0,1,329,62.13l1.87-9.23,9.23,1.87a1.82,1.82,0,0,0,2.13-1.41h0a1.84,1.84,0,0,0-.4-1.53,3.76,3.76,0,1,1,4.66.94,1.85,1.85,0,0,0-1,1.26h0A1.81,1.81,0,0,0,347,56.15Z"/><path class="cls-10" d="M356.2,58,347,56.15a1.8,1.8,0,0,1-1.4-2.13h0a1.84,1.84,0,0,1,1-1.25,3.77,3.77,0,1,0-4.66-1,1.87,1.87,0,0,1,.4,1.54h0a1.8,1.8,0,0,1-2.12,1.4l-9.24-1.87,1.87-9.23a1.8,1.8,0,0,0-1.41-2.13h0a1.82,1.82,0,0,0-1.53.41,3.76,3.76,0,1,1,.95-4.67,1.86,1.86,0,0,0,1.25,1h0a1.8,1.8,0,0,0,2.13-1.41L336,27.59l9.23,1.88a1.79,1.79,0,0,1,1.41,2.12h0a1.86,1.86,0,0,1-1,1.25,3.76,3.76,0,1,0,5.44,4.07,3.78,3.78,0,0,0-.77-3.12,1.85,1.85,0,0,1-.4-1.53h0a1.79,1.79,0,0,1,2.12-1.41l9.23,1.87L359.45,42a1.81,1.81,0,0,0,1.41,2.12h0a1.84,1.84,0,0,0,1.53-.4,3.76,3.76,0,0,1,6.06,3.65,3.75,3.75,0,0,1-7,1,1.84,1.84,0,0,0-1.26-1h0a1.8,1.8,0,0,0-2.12,1.4Z"/><path class="cls-10" d="M246.23,82.18l9.23,1.87a1.8,1.8,0,0,1,1.41,2.12h0a1.85,1.85,0,0,1-1,1.26A3.7,3.7,0,0,0,254,90a3.75,3.75,0,1,0,6.59-1.63,1.82,1.82,0,0,1-.4-1.53h0a1.79,1.79,0,0,1,2.12-1.41l9.23,1.87-1.87,9.24a1.8,1.8,0,0,0,1.41,2.12h0a1.85,1.85,0,0,0,1.53-.4,3.76,3.76,0,1,1,1.63,6.59,3.69,3.69,0,0,1-2.57-1.93,1.84,1.84,0,0,0-1.26-1h0a1.8,1.8,0,0,0-2.12,1.41l-1.87,9.23-9.24-1.87a1.81,1.81,0,0,1-1.41-2.12h0a1.85,1.85,0,0,1,1-1.26,3.76,3.76,0,1,0-4.66-.94,1.84,1.84,0,0,1,.4,1.53h0a1.82,1.82,0,0,1-2.13,1.41l-9.23-1.88L243,98.24a1.79,1.79,0,0,0-1.41-2.12h0a1.85,1.85,0,0,0-1.53.4,3.75,3.75,0,1,1,.95-4.67,1.86,1.86,0,0,0,1.25,1h0a1.79,1.79,0,0,0,2.12-1.41Z"/><path class="cls-11" d="M77.37,335.68c129.28,25.57,274.17,54.93,403.21,81.71C351.3,391.82,206.41,362.45,77.37,335.68Z"/><path class="cls-2" d="M322.26,56.36c5.83,19.38-4.55,27.91-4.41,33.69a95.12,95.12,0,0,0,1.62,10.5L300.2,108.9a90.3,90.3,0,0,0-6.55-8.36c-4.11-4.07-17.44-2.32-27.58-19.84-6.67-11.51-5.84-34.59,14.55-43.43S318.41,43.63,322.26,56.36Z"/><rect class="cls-10" x="295.8" y="76.95" width="0.69" height="33.99" transform="translate(-1.92 181.6) rotate(-33.99)"/><rect class="cls-10" x="311" y="70.37" width="0.69" height="33.99" transform="translate(-11.63 71.34) rotate(-12.83)"/><path class="cls-10" d="M301.48,85.43c-2,.88-4.5-.63-5.79-1.61l-.27-.21a2.56,2.56,0,0,1-1.25,1.69c-2.82,1.23-6.51-4.16-6.67-4.39l.29-.2c0,.06,3.68,5.39,6.24,4.28h0a2.33,2.33,0,0,0,1.1-1.62,14.45,14.45,0,0,1-3.82-4.82c-.7-1.64-.51-2.79.54-3.25h0a1.84,1.84,0,0,1,1.89.21c1.49,1.11,2.2,4.47,1.92,6.9q-.06.45-.15.84c2,1.59,4.2,2.57,5.84,1.86,1.23-.53,2-2,2.29-4.19l.06-.62a8.49,8.49,0,0,1-4-4.37c-.91-2.09-.7-3.72.54-4.26a1.41,1.41,0,0,1,1.45.21c1.48,1.11,2.53,4.85,2.37,8.21a3.17,3.17,0,0,0,2.42,0h0c2.2-.95,1.31-7.51,1.3-7.58l.35,0c0,.28.92,6.88-1.51,7.94a3.49,3.49,0,0,1-2.58,0c0,.18,0,.35,0,.53-.18,1.62-.77,3.72-2.5,4.47ZM300.37,72c-1.25.54-1,2.32-.37,3.8a8.65,8.65,0,0,0,3.71,4.15c.12-3.18-.87-6.77-2.24-7.78A1,1,0,0,0,300.37,72ZM292,75.62h0c-1.15.5-.72,2-.36,2.79A13.85,13.85,0,0,0,295.21,83a5.74,5.74,0,0,0,.1-.62c.27-2.3-.4-5.57-1.78-6.59A1.46,1.46,0,0,0,292,75.62Z"/><rect class="cls-12" x="297.53" y="103.69" width="25.92" height="5.06" transform="translate(-16.64 132.17) rotate(-23.42)"/><rect class="cls-12" x="299.87" y="109.09" width="25.92" height="5.06" transform="translate(-18.59 133.55) rotate(-23.42)"/><rect class="cls-12" x="302.21" y="114.49" width="25.92" height="5.06" transform="translate(-20.55 134.93) rotate(-23.42)"/><path class="cls-10" d="M268.2,72.77c-3.69-9.61-1.48-22.89,8.15-28.13-7.37,7.42-8.78,18.1-8.15,28.13Z"/><path class="cls-12" d="M357.73,111a12.23,12.23,0,0,0,1.15-4.58l3.1-.64-.53-4.2-3.22.16a12.19,12.19,0,0,0-2.4-4.14L357.54,95l-3.35-2.59-2.07,2.29a12.41,12.41,0,0,0-4.75-1.31l-.59-2.83-4.19.52.14,2.9a12.31,12.31,0,0,0-4.42,2.52L336,95l-2.58,3.35,2,1.84a12.42,12.42,0,0,0-1.27,5l-2.61.54.53,4.19,2.77-.14a12.12,12.12,0,0,0,2.66,4.4l-1.51,2.29,3.35,2.59,2-2.15a12.42,12.42,0,0,0,4.86,1.13l.58,2.87,4.2-.52-.15-3.11a12.26,12.26,0,0,0,4.1-2.53l2.6,1.71,2.58-3.34Zm-13.83,2.92a8.64,8.64,0,1,1,11-5.24A8.63,8.63,0,0,1,343.9,113.89Z"/><path class="cls-12" d="M351.2,111.58l-1.81.87L347.27,108l-.77-1.62a2.19,2.19,0,0,0,.67-.22,2.56,2.56,0,0,0,1-.87L349,107Z"/><path class="cls-12" d="M349.94,102a4.35,4.35,0,1,0-2.67,6.09,5.46,5.46,0,0,0,.67-.26A4.53,4.53,0,0,0,349,107,4.35,4.35,0,0,0,349.94,102Zm-2.77,4.25a2.19,2.19,0,0,1-.67.22,2.6,2.6,0,1,1,1.87-3.7,2.64,2.64,0,0,1-.18,2.61A2.56,2.56,0,0,1,347.17,106.2Z"/><path class="cls-12" d="M281.87,123.12a8.56,8.56,0,0,0,2-2.58l2.16.49.87-2.83-2.09-.82a8.51,8.51,0,0,0-.34-3.31l1.82-1.14L285,110.32l-2,.86a8.82,8.82,0,0,0-2.64-2.2l.44-2-2.81-.87-.74,1.88a8.56,8.56,0,0,0-3.54.33l-1-1.59-2.6,1.38.76,1.75a8.59,8.59,0,0,0-2.25,2.82l-1.81-.41-.87,2.81,1.8.71a8.52,8.52,0,0,0,.43,3.56l-1.62,1,1.38,2.6,1.86-.81a8.58,8.58,0,0,0,2.76,2.12l-.45,2,2.81.87.8-2a8.67,8.67,0,0,0,3.33-.43l1.16,1.83,2.59-1.38ZM272.25,121a6,6,0,1,1,8.51-.16A6,6,0,0,1,272.25,121Z"/><path class="cls-2" d="M322.29,144.85a8.69,8.69,0,0,0,3.08-1.16l1.59,1.53,2.2-2-1.37-1.78a8.61,8.61,0,0,0,1.42-3l2.15,0,.15-2.95-2.13-.28a8.88,8.88,0,0,0-1.13-3.24l1.39-1.46-2-2.19-1.6,1.23a8.55,8.55,0,0,0-3.2-1.53l-.05-1.89-2.94-.16-.25,1.9a8.48,8.48,0,0,0-3.38,1.26l-1.34-1.28-2.19,2,1.17,1.54a8.54,8.54,0,0,0-1.46,3.26l-1.91,0-.16,2.95,2,.26a8.73,8.73,0,0,0,1.28,3.24l-1.41,1.47,2,2.2,1.72-1.32a8.8,8.8,0,0,0,3.08,1.35l.05,2.16,2.94.16Zm-7.16-6.76a6,6,0,1,1,7.38,4.24A6,6,0,0,1,315.13,138.09Z"/><path class="cls-4" d="M305.79,139.35a12.4,12.4,0,0,0-.4-4.71l2.73-1.61-1.86-3.8-3,1.19a12.37,12.37,0,0,0-3.6-3.13l.77-3-4-1.37-1.22,2.84a12.5,12.5,0,0,0-4.92.29l-1.47-2.49L285,125.44l1.07,2.69a12.33,12.33,0,0,0-3.37,3.83l-2.63-.68-1.36,4,2.51,1.09a12.57,12.57,0,0,0,.42,5.16l-2.29,1.36,1.85,3.79,2.59-1a12.05,12.05,0,0,0,3.94,3.3l-.69,2.65,4,1.38,1.15-2.68a12.56,12.56,0,0,0,5-.5l1.48,2.53,3.8-1.86-1.15-2.89a12.48,12.48,0,0,0,3.07-3.72l3,.77,1.36-4Zm-12.14,7.25a8.65,8.65,0,1,1,8.74-8.54A8.64,8.64,0,0,1,293.65,146.6Z"/><g class="cls-13"><path class="cls-4" d="M298.34,136a1.81,1.81,0,1,1-1.41-2.12A1.8,1.8,0,0,1,298.34,136Z"/><path class="cls-4" d="M298.64,141.17l-.13.64-6.12-1.24.14-.64a3.12,3.12,0,0,1,6.11,1.24Z"/></g><path class="cls-4" d="M293.6,136.18a1.81,1.81,0,1,1-1.41-2.12A1.8,1.8,0,0,1,293.6,136.18Z"/><path class="cls-4" d="M293.9,141.32l-.14.64-6.11-1.24.13-.64a3.12,3.12,0,0,1,6.12,1.24Z"/><path class="cls-2" d="M401.49,90.42,402.67,87l-3.94-1.8a20.35,20.35,0,0,0,.39-5.85l4.12-1.25-.7-3.57-4.31.42a19.55,19.55,0,0,0-2.6-5.26l3-3.15-2.39-2.74-3.54,2.51A19,19,0,0,0,387.8,63l1-4.21-3.44-1.18-1.8,4a19.33,19.33,0,0,0-5.85-.38l-1.25-4.14-3.57.7.41,4.32A19.76,19.76,0,0,0,368,64.69l-3.15-2.95-2.75,2.39,2.53,3.52a19,19,0,0,0-3.26,4.87l-4.21-1L356,75l4,1.81a19.64,19.64,0,0,0-.39,5.85l-4.14,1.24.71,3.58,4.31-.41a20.16,20.16,0,0,0,2.59,5.24l-2.94,3.15,2.39,2.75L366,95.67a19.87,19.87,0,0,0,4.89,3.26l-1,4.2,3.43,1.17,1.81-3.93a20,20,0,0,0,5.85.37l1.24,4.14,3.57-.7-.41-4.32a19.46,19.46,0,0,0,5.25-2.59l3.15,3,2.73-2.39L394,94.31a20,20,0,0,0,3.25-4.87Zm-24.68,3.1a12.79,12.79,0,1,1,15.08-10A12.8,12.8,0,0,1,376.81,93.52Z"/><path class="cls-2" d="M383.27,74.8a2.62,2.62,0,1,1-2-3.08A2.62,2.62,0,0,1,383.27,74.8Z"/><rect class="cls-2" x="377.41" y="76.45" width="5.55" height="0.8" transform="translate(22.84 -73.98) rotate(11.46)"/><rect class="cls-7" x="377.41" y="76.45" width="5.55" height="0.8" transform="translate(22.84 -73.98) rotate(11.46)"/><rect class="cls-2" x="372.37" y="87.25" width="11.24" height="0.8" transform="translate(24.94 -73.33) rotate(11.46)"/><rect class="cls-7" x="372.37" y="87.25" width="11.24" height="0.8" transform="translate(24.94 -73.33) rotate(11.46)"/><rect class="cls-2" x="371.93" y="89.45" width="11.24" height="0.8" transform="translate(25.37 -73.19) rotate(11.46)"/><rect class="cls-7" x="371.93" y="89.45" width="11.24" height="0.8" transform="translate(25.37 -73.19) rotate(11.46)"/><rect class="cls-2" x="372.57" y="88.03" width="10.41" height="1.44" transform="translate(25.15 -73.26) rotate(11.46)"/><rect class="cls-2" x="377.76" y="77.23" width="4.53" height="0.8" transform="translate(22.99 -73.93) rotate(11.46)"/><path class="cls-2" d="M382.58,88.17l-9-1.83a10.06,10.06,0,0,0,3.4-4c.78-2,1.49-4.6,1.49-4.6l3,.6s-.36,2.67-.41,4.82A10,10,0,0,0,382.58,88.17Z"/></g><path class="cls-2" d="M207.07,275c-1.23,2-2.45,4.91-2.29,7.45a5.12,5.12,0,0,0,2.31,4.16c4,2.73,10.15-.41,13.68-2.31a51.89,51.89,0,0,0,12-9.23,35.89,35.89,0,0,0,3-3.51c2.31-2.71,3.8-5.66,3.7-8.43-8.22,1.27-17.12,2.85-26.34,4.63A50.09,50.09,0,0,0,207.07,275Z"/></svg>