<svg id="Слой_1" data-name="Слой 1" xmlns="http://www.w3.org/2000/svg" viewBox="0 0 581.13 402.55"><defs><style>.cls-1{fill:#ffc800;}.cls-2,.cls-5{fill:#fff;}.cls-2{opacity:0.5;}.cls-3{fill:#c36358;}.cls-4,.cls-8{fill:#306;}.cls-6{opacity:0.1;}.cls-7{fill:#4a148c;}.cls-8{font-size:60.02px;font-family:Impact;}.cls-9{letter-spacing:-0.02em;}.cls-10{letter-spacing:-0.04em;}.cls-11{letter-spacing:0em;}.cls-12{letter-spacing:-0.06em;}</style></defs><path class="cls-1" d="M55.64,215.9c0-98.23,79.91-178.14,178.14-178.14S411.91,117.67,411.91,215.9,332,394,233.78,394,55.64,314.12,55.64,215.9Zm8.73,0c0,93.41,76,169.41,169.41,169.41s169.41-76,169.41-169.41-76-169.41-169.41-169.41S64.37,122.49,64.37,215.9Z"/><circle class="cls-1" cx="233.78" cy="215.9" r="153.84" transform="translate(-84.19 228.54) rotate(-45)"/><circle class="cls-2" cx="233.78" cy="215.9" r="153.84" transform="translate(-84.19 228.54) rotate(-45)"/><path class="cls-3" d="M183.92,165.41c7.41,21.46,37.94,127.22,58.32,133.15,33.22,9.66,58.54,6.55,85,7.2,14.94.38,38.14-71.46,24.61-71.84-21.55-.61-70.51,3.17-78.33,2.8S236.56,176.14,209.08,150C184.33,126.39,178.7,150.29,183.92,165.41Z"/><path class="cls-3" d="M318.65,303.84c1.22.47,18.48,7,28.93,8.93,7.8,1.42,30.36,4.89,32.77-3.54,1.65-5.75-11.37-9.35-20.53-12.1-4.82-1.45-11-5.71-10-8.82,1.85-5.44,14.29-1.45,22.58,2.29,16,7.24,37.83,21,46.29,12.37,3.19-3.27-1.41-8.13-7.88-12.71,10.25,5.05,21,8.95,24.73,5.47,2.12-2,2-4.4.42-7,3.07.66,5.68.2,7.31-1.92,2.8-3.6.77-8.28-3.16-12.89a3.78,3.78,0,0,0,2.65-2.16c5.59-10.79-30.59-36.4-42.34-37.94-34.6-4.55-70,.61-70,.61C318.26,246.38,318.62,303.82,318.65,303.84Z"/><path class="cls-4" d="M365.11,267.65A57.52,57.52,0,0,1,388.53,274c9.14,4.77,15.5,10.8,23.36,16.72.21.15,0,.48-.23.32-3.75-2.81-19.16-13.25-23.1-15.58a54.66,54.66,0,0,0-23.47-7.67C365,267.78,365,267.64,365.11,267.65Z"/><path class="cls-4" d="M369.93,252.67c9.12,1.51,18.47,3,27.14,6.38,9.48,3.67,17.31,10.43,25,16.92q6.92,5.85,13.57,12c.18.17,0,.49-.24.32q-11.7-10.08-24-19.45a72.6,72.6,0,0,0-25.45-12.6c-5.28-1.41-10.65-2.42-16-3.42C369.81,252.81,369.82,252.65,369.93,252.67Z"/><path class="cls-4" d="M378.12,239.16c8.8.89,16.48,1.63,24.59,5.46,10.74,5.08,21.56,14.38,25.36,17.68,4.2,3.65,8.27,7.43,12.28,11.28.17.16-.1.45-.27.29a287.61,287.61,0,0,0-29-23.34,57,57,0,0,0-15.69-8.05c-5.6-1.76-11.49-2.48-17.29-3.26C378.07,239.22,378.08,239.16,378.12,239.16Z"/><path class="cls-1" d="M270.75,222.9l-53.49,64.78s-31-85.42-37.24-123.24c-6.54-39.41,6.53-51.17,39.9-10.12C252.79,194.77,270.75,222.9,270.75,222.9Z"/><path class="cls-5" d="M218,161.5c.72.19,1.44.28,2.2.45a4.33,4.33,0,0,0,2.44-.26,4.17,4.17,0,0,0,2-1.57c-.37-.5-.79-1-1.2-1.5a3.54,3.54,0,0,1-1.4,1.81,4.07,4.07,0,0,1-1.81.63A17.48,17.48,0,0,0,218,161.5Zm12.54,101.62a19.43,19.43,0,0,0,2.25.44,4.3,4.3,0,0,0,2.44-.22,4.61,4.61,0,0,0,2.79-4.23,3.45,3.45,0,0,1,1.66-2.88,4.33,4.33,0,0,1,1.86-.55,16.2,16.2,0,0,0,2.24-.46c-.76-.17-1.48-.26-2.24-.43a4,4,0,0,0-2.45.17,4.57,4.57,0,0,0-2.92,4.15,3.42,3.42,0,0,1-1.57,3,4.35,4.35,0,0,1-1.81.59C232,262.84,231.28,262.92,230.52,263.12Zm-52.08-113c0,.58.05,1.19.11,1.83a3.45,3.45,0,0,1,2.73,1.59,3.89,3.89,0,0,1,.61,1.83c.15.72.24,1.44.46,2.21.17-.77.28-1.49.46-2.21a4.25,4.25,0,0,0-.29-2.46A4.54,4.54,0,0,0,178.44,150.09ZM228,209.49a4.66,4.66,0,0,0,4.15,2.93,3.38,3.38,0,0,1,3,1.57,4.33,4.33,0,0,1,.63,1.81,20.29,20.29,0,0,0,.44,2.25c.21-.77.32-1.49.45-2.25a4.5,4.5,0,0,0-.24-2.44,4.62,4.62,0,0,0-4.23-2.8,3.35,3.35,0,0,1-2.88-1.66,4.57,4.57,0,0,1-.52-1.85c-.2-.76-.29-1.48-.46-2.2a17.51,17.51,0,0,0-.46,2.2A4.76,4.76,0,0,0,228,209.49Zm-24.13-29.08c.37.68.81,1.27,1.22,1.9a4.54,4.54,0,0,0,2,1.57,4.43,4.43,0,0,0,4.9-1,3.39,3.39,0,0,1,3.26-.8,3.69,3.69,0,0,1,1.7.89c.63.42,1.22.85,1.9,1.27-.38-.68-.86-1.27-1.27-1.9a4.39,4.39,0,0,0-1.85-1.62,4.58,4.58,0,0,0-5,.86,3.33,3.33,0,0,1-3.19,1,4.08,4.08,0,0,1-1.72-.85C205.15,181.28,204.56,180.83,203.88,180.41Zm-4.67,54.33.53,1.63A4.48,4.48,0,0,0,203,235a3.34,3.34,0,0,1,3.25-.81,3.62,3.62,0,0,1,1.7.9c.63.39,1.22.85,1.9,1.26-.37-.68-.87-1.26-1.27-1.9a4.25,4.25,0,0,0-1.85-1.61,4.56,4.56,0,0,0-5,.85A3.23,3.23,0,0,1,199.21,234.74Zm62-8.38c.37.67.81,1.26,1.22,1.9a4.51,4.51,0,0,0,1.94,1.57c.18.06.33.13.5.17l1.25-1.5a3.68,3.68,0,0,1-3-.88C262.48,227.21,261.89,226.77,261.22,226.36Z"/><path class="cls-4" d="M215.65,268.43c1.17-1.77,2.6-3.39,3.93-5l4.08-5.11q4.14-5.17,8.41-10.25c5.66-6.78,11.29-13.57,17.06-20.25,1.59-1.84,3.18-3.67,4.82-5.46s3.57-3.66,5.28-5.54c.11-.12.27.05.18.17-1.35,1.72-2.56,3.55-3.91,5.28s-2.78,3.53-4.2,5.26q-4.2,5.12-8.48,10.18c-5.62,6.63-11.23,13.28-17,19.79-1.6,1.82-3.23,3.62-4.84,5.44s-3.3,3.93-5.15,5.67C215.75,268.66,215.57,268.55,215.65,268.43Z"/><path class="cls-6" d="M180,164.43c6.29,37.83,37.23,123.25,37.23,123.25l33.66-40.77L187.38,128.69C178.81,129.22,176.39,142.59,180,164.43Z"/><path class="cls-1" d="M75,338.29a153.8,153.8,0,0,0,180.38,4.35C244.24,284.91,216.77,161,202,141.67c-4.07-5.3-17.53-6.79-29-5.37a52.93,52.93,0,0,0-8.83,1.8.92.92,0,0,1-.29.07,21.2,21.2,0,0,0-6.47,3.18C133.63,160.34,93.22,279,75,338.29Z"/><path class="cls-5" d="M85.7,337c.37.67.85,1.26,1.26,1.9a4.51,4.51,0,0,0,1.9,1.57,4.58,4.58,0,0,0,5-1,3.36,3.36,0,0,1,3.19-.85,4.2,4.2,0,0,1,1.72.94c.64.41,1.22.85,1.9,1.26-.37-.67-.83-1.26-1.26-1.89a4.19,4.19,0,0,0-1.86-1.62,4.51,4.51,0,0,0-5,.85,3.55,3.55,0,0,1-3.25,1,4.24,4.24,0,0,1-1.7-.85C87,337.91,86.37,337.45,85.7,337Zm94.2,23.3c.35.67.81,1.26,1.2,1.9a4.45,4.45,0,0,0,6.86.54,3.49,3.49,0,0,1,3.25-.87,6,6,0,0,1,1.7.92,18.21,18.21,0,0,0,1.9,1.24c-.42-.68-.85-1.24-1.27-1.83a4.65,4.65,0,0,0-1.83-1.64,4.45,4.45,0,0,0-5,.87,3.49,3.49,0,0,1-3.19,1,4.1,4.1,0,0,1-1.76-.85C181.1,361.15,180.54,360.71,179.9,360.34Zm-33.42-54c.35.68.81,1.27,1.2,1.9a4.44,4.44,0,0,0,6.85.55,3.5,3.5,0,0,1,3.25-.88,6,6,0,0,1,1.7.92,17.15,17.15,0,0,0,1.9,1.24c-.41-.67-.85-1.24-1.26-1.83a4.58,4.58,0,0,0-1.84-1.63,4.43,4.43,0,0,0-5,.87,3.49,3.49,0,0,1-3.19,1,4.13,4.13,0,0,1-1.77-.85C147.68,307.19,147.11,306.76,146.48,306.38Zm88.88,5.89c.38.68.88,1.27,1.27,1.9a4.32,4.32,0,0,0,1.9,1.57,4.64,4.64,0,0,0,4.95-1,3.36,3.36,0,0,1,3.21-.87,3.94,3.94,0,0,1,1.7.91,17.05,17.05,0,0,0,1.64,1.07,1.83,1.83,0,0,1-.09-.39c-.29-.44-.59-.87-.92-1.31a4.91,4.91,0,0,0-1.85-1.64,4.44,4.44,0,0,0-4.95.92,3.47,3.47,0,0,1-3.23.94,3.42,3.42,0,0,1-1.73-.85C236.63,313.08,236,312.65,235.36,312.27Zm-40.44-79.72c.37.68.82,1.27,1.22,1.9a4.37,4.37,0,0,0,1.94,1.57,4.44,4.44,0,0,0,4.91-1,3.34,3.34,0,0,1,3.25-.81,3.62,3.62,0,0,1,1.7.9c.63.39,1.22.85,1.9,1.26-.37-.68-.87-1.26-1.27-1.9a4.25,4.25,0,0,0-1.85-1.61,4.56,4.56,0,0,0-5,.85,3.31,3.31,0,0,1-3.18,1,3.56,3.56,0,0,1-1.73-.85C196.18,233.41,195.59,233,194.92,232.55Zm9-52.14c.37.68.81,1.27,1.22,1.9a4.54,4.54,0,0,0,2,1.57,4.43,4.43,0,0,0,4.9-1,3.39,3.39,0,0,1,3.26-.8,3.69,3.69,0,0,1,1.7.89c.46.31.89.61,1.37.92-.09-.29-.15-.57-.24-.83s-.35-.48-.5-.72a4.39,4.39,0,0,0-1.85-1.62,4.58,4.58,0,0,0-5,.86,3.33,3.33,0,0,1-3.19,1,4.08,4.08,0,0,1-1.72-.85C205.15,181.28,204.56,180.83,203.88,180.41Zm-68.68-2c.37.67.81,1.26,1.22,1.9a4.57,4.57,0,0,0,1.94,1.57,4.44,4.44,0,0,0,4.91-1,3.36,3.36,0,0,1,3.23-.81,3.67,3.67,0,0,1,1.73.9c.63.41,1.22.85,1.89,1.26-.37-.67-.87-1.26-1.26-1.89a4.42,4.42,0,0,0-1.86-1.62,4.58,4.58,0,0,0-5,.85,3.33,3.33,0,0,1-3.21,1,4,4,0,0,1-1.7-.85C136.47,179.32,135.88,178.86,135.2,178.45Zm91.7,177a4.41,4.41,0,0,0,1.55,2.05c.76-.31,1.53-.65,2.29-1a3.27,3.27,0,0,1-2.53-1.64,4.08,4.08,0,0,1-.59-1.85,17.28,17.28,0,0,0-.44-2.21c-.19.72-.28,1.44-.46,2.21A4.69,4.69,0,0,0,226.9,355.43ZM132.28,224.05a4.57,4.57,0,0,0,4.14,2.92,3.36,3.36,0,0,1,3,1.57,4.24,4.24,0,0,1,.63,1.81,14.56,14.56,0,0,0,.46,2.2c.18-.72.26-1.44.39-2.2a3.59,3.59,0,0,0-.21-2.42,4.46,4.46,0,0,0-4.19-2.79,3.37,3.37,0,0,1-2.88-1.68,4.26,4.26,0,0,1-.59-1.9,17.43,17.43,0,0,0-.46-2.21c-.17.77-.26,1.49-.44,2.21A5.5,5.5,0,0,0,132.28,224.05Zm65.84,54.71a4.66,4.66,0,0,0,4.15,2.95,3.23,3.23,0,0,1,3,1.57,3.71,3.71,0,0,1,.64,1.79,17.57,17.57,0,0,0,.46,2.27c.21-.79.3-1.51.43-2.27a4.41,4.41,0,0,0-.22-2.42,4.66,4.66,0,0,0-4.23-2.8,3.34,3.34,0,0,1-2.88-1.65,4.19,4.19,0,0,1-.54-1.86c-.18-.76-.27-1.48-.46-2.2a17.48,17.48,0,0,0-.44,2.2A4.68,4.68,0,0,0,198.12,278.76ZM174.15,149a4.52,4.52,0,0,0,4.14,2.93,3.46,3.46,0,0,1,3,1.59,3.89,3.89,0,0,1,.61,1.83c.15.72.24,1.44.46,2.21.17-.77.28-1.49.46-2.21a4.25,4.25,0,0,0-.29-2.46,4.54,4.54,0,0,0-4.19-2.79,3.38,3.38,0,0,1-2.88-1.68,4.86,4.86,0,0,1-.58-1.84,19,19,0,0,0-.44-2.22c-.18.72-.28,1.44-.42,2.22A4.58,4.58,0,0,0,174.15,149ZM103.5,257.84c.35.66.81,1.24,1.2,1.88a4.78,4.78,0,0,0,1.86,1.63,4.54,4.54,0,0,0,5-.87,3.62,3.62,0,0,1,3.25-1,4,4,0,0,1,1.7.85c.64.41,1.23.85,1.9,1.27-.39-.68-.85-1.27-1.26-1.9a4.06,4.06,0,0,0-1.92-1.57,4.57,4.57,0,0,0-4.91,1,3.49,3.49,0,0,1-3.25.87,5.13,5.13,0,0,1-1.73-1C104.7,258.69,104.13,258.23,103.5,257.84ZM94,306c.72.17,1.44.28,2.21.46a4.27,4.27,0,0,0,2.48-.29,4.5,4.5,0,0,0,2.75-4.18,3.4,3.4,0,0,1,1.66-2.88,5,5,0,0,1,1.9-.59,20.87,20.87,0,0,0,2.2-.44c-.76-.17-1.48-.28-2.2-.41a4.75,4.75,0,0,0-2.49.13,4.58,4.58,0,0,0-2.92,4.14,3.42,3.42,0,0,1-1.57,3,4.19,4.19,0,0,1-1.81.63A17.28,17.28,0,0,0,94,306Zm136.49-42.85a19.43,19.43,0,0,0,2.25.44,4.3,4.3,0,0,0,2.44-.22,4.56,4.56,0,0,0,2.64-3.06c-.28-1.24-.57-2.46-.87-3.7a4.71,4.71,0,0,0-.83,2.53,3.42,3.42,0,0,1-1.57,3,4.35,4.35,0,0,1-1.81.59C232,262.84,231.28,262.92,230.52,263.12Zm-75.27,4.47a16.64,16.64,0,0,0,2.25.46,4.32,4.32,0,0,0,2.44-.22,4.61,4.61,0,0,0,2.79-4.23,3.42,3.42,0,0,1,1.66-2.88,4.12,4.12,0,0,1,1.86-.54,17.81,17.81,0,0,0,2.24-.46c-.76-.18-1.48-.26-2.24-.44a4,4,0,0,0-2.45.18,4.56,4.56,0,0,0-2.92,4.14,3.46,3.46,0,0,1-1.57,3,4.83,4.83,0,0,1-1.81.59C156.74,267.33,156,267.42,155.25,267.59Zm36.57,60.13a16.94,16.94,0,0,0,2.2.46,4.37,4.37,0,0,0,5.24-4.41,3.45,3.45,0,0,1,1.7-2.9,4,4,0,0,1,1.85-.57c.77-.15,1.49-.24,2.21-.45-.72-.18-1.44-.27-2.21-.46a4.6,4.6,0,0,0-2.44.19,4.47,4.47,0,0,0-2.92,4.13,3.51,3.51,0,0,1-1.57,3,5.23,5.23,0,0,1-1.86.63C193.3,327.46,192.58,327.55,191.82,327.72Zm-54.46,23.06c.76.18,1.48.29,2.2.46a4.31,4.31,0,0,0,2.49-.28,4.45,4.45,0,0,0,2.75-4.19,3.46,3.46,0,0,1,1.7-2.88,5,5,0,0,1,1.86-.59,19,19,0,0,0,2.2-.44c-.72-.17-1.48-.28-2.2-.41a4.58,4.58,0,0,0-2.42.13,4.52,4.52,0,0,0-2.95,4.14,3.44,3.44,0,0,1-1.57,3,4.27,4.27,0,0,1-1.86.64A20.77,20.77,0,0,0,137.36,350.78ZM170,208.51c.72.2,1.44.29,2.21.46a4.33,4.33,0,0,0,2.44-.26,4.56,4.56,0,0,0,2.79-4.19,3.46,3.46,0,0,1,1.66-2.9,4.58,4.58,0,0,1,1.85-.57c.77-.15,1.49-.24,2.25-.41a19.51,19.51,0,0,0-2.25-.46,4.69,4.69,0,0,0-2.44.13,4.62,4.62,0,0,0-2.92,4.14,3.4,3.4,0,0,1-1.57,3,4.39,4.39,0,0,1-1.81.64A17.28,17.28,0,0,0,170,208.51Z"/><path class="cls-3" d="M129.71,165.65c-42.05,68.25-80.35,144-66.34,163.4,11.31,15.62,113.79,57.47,148,60.09,10.87.84,37.78-79.06,19.8-85.52-5.1-1.83-88.42-17.76-88.92-19.7-1.61-6.18,9.59-47.84,19.91-95.31C175.39,127.52,147.51,136.78,129.71,165.65Z"/><path class="cls-3" d="M271.75,317.74c-5.08-1.83-8.09-5.87,1-8.89s47.76-7.28,45.14-20.63-56.25-4.1-71.85-.38a62.47,62.47,0,0,0-37.91,26.86C233.08,316.18,252.13,317.37,271.75,317.74Z"/><path class="cls-4" d="M300.66,281.22a123.64,123.64,0,0,0-15.52-.31c-5.17.15-10.33.63-15.47,1.27a122.08,122.08,0,0,0-30.07,7.58c2.56-.48,5-1.2,7.57-1.62s5-1,7.56-1.48c5.07-.83,10.12-1.7,15.22-2.31s10.19-1.23,15.31-1.77c2.55-.27,5.12-.5,7.68-.7S298.08,281.45,300.66,281.22Z"/><rect class="cls-7" x="202.94" y="306.7" width="177.45" height="7.95" transform="translate(-0.76 0.71) rotate(-0.14)"/><polygon class="cls-4" points="380.38 306.48 380.39 314.43 259.77 314.72 265.83 306.76 380.38 306.48"/><polygon class="cls-7" points="273.51 314.69 446.45 314.27 460.56 196.78 287.62 197.2 273.51 314.69"/><path class="cls-5" d="M356.51,255.76a10.3,10.3,0,0,0,10.37,10.5,10.75,10.75,0,0,0,10.68-10.55,10.3,10.3,0,0,0-10.37-10.5A10.75,10.75,0,0,0,356.51,255.76Z"/><path class="cls-3" d="M211.53,389.13c30.51,1.74,74.31-2.76,102.8-22.46a17.16,17.16,0,0,0,6.86-8.89c12.92-8.6,12.74-17.28,12.74-17.28,9.59-11.7,8.18-20.56,8.18-20.56s15.06-10.26,10.37-20.39c-5.23-11.38-25.36,5.26-42,7.64-38.19,5.46-94.74,8.09-105.91,8.56Z"/><path class="cls-4" d="M274.5,341c11.2-1.83,22.26-3.34,33.16-6.68,12-3.66,22.85-9.19,34.08-14.54a.3.3,0,0,1,.3.52c-18.79,12.91-44.72,20.63-67.47,21.21C274,341.49,273.94,341.06,274.5,341Z"/><path class="cls-4" d="M274.44,364.49c10.81-2.38,29.77-6.7,59.35-24.38.09-.06.22.09.13.17-17.68,14-37.18,21.75-59.36,24.72C273.87,365.1,273.73,364.65,274.44,364.49Z"/><path class="cls-4" d="M274.65,377.14c18.22-4.76,29.1-10.07,46.48-19.46.1-.05.22.11.11.18-18.62,12.74-26.82,15.26-46.51,19.92C274.05,377.94,273.94,377.32,274.65,377.14Z"/><path class="cls-1" d="M149.22,264.62l-84,2.21s44.09-79.45,68.48-109c25.42-30.82,42.87-28.68,33.83,23.44C158.64,232.6,149.22,264.62,149.22,264.62Z"/><path class="cls-5" d="M85.52,229.89a5.49,5.49,0,0,0,.85.2c.46.11.92.17,1.36.26a4.21,4.21,0,0,0,2.46-.24,4.44,4.44,0,0,0,2.75-4.19A3.45,3.45,0,0,1,94.66,223a4,4,0,0,1,1.86-.59,19.45,19.45,0,0,0,2.2-.43c-.72-.2-1.44-.29-2.2-.46a4.78,4.78,0,0,0-2.44.17,4.54,4.54,0,0,0-2.93,4.15,3.49,3.49,0,0,1-1.57,3,4.75,4.75,0,0,1-1.85.61c-.37.09-.74.13-1.12.19Zm18,27.95c.35.66.81,1.24,1.2,1.88a4.78,4.78,0,0,0,1.86,1.63,4.54,4.54,0,0,0,5-.87,3.62,3.62,0,0,1,3.25-1,4,4,0,0,1,1.7.85c.64.41,1.23.85,1.9,1.27-.39-.68-.85-1.27-1.26-1.9a4.06,4.06,0,0,0-1.92-1.57,4.57,4.57,0,0,0-4.91,1,3.49,3.49,0,0,1-3.25.87,5.13,5.13,0,0,1-1.73-1C104.7,258.69,104.13,258.23,103.5,257.84Zm6.11-65.71a2.84,2.84,0,0,1,.5.59,3.74,3.74,0,0,1,.63,1.81,17.81,17.81,0,0,0,.46,2.24,19.69,19.69,0,0,0,.44-2.24,4.73,4.73,0,0,0-.22-2.45,4,4,0,0,0-.89-1.35C110.22,191.19,109.92,191.67,109.61,192.13Zm22.67,31.92a4.57,4.57,0,0,0,4.14,2.92,3.36,3.36,0,0,1,3,1.57,4.24,4.24,0,0,1,.63,1.81,14.56,14.56,0,0,0,.46,2.2c.18-.72.26-1.44.39-2.2a3.59,3.59,0,0,0-.21-2.42,4.46,4.46,0,0,0-4.19-2.79,3.37,3.37,0,0,1-2.88-1.68,4.26,4.26,0,0,1-.59-1.9,17.43,17.43,0,0,0-.46-2.21c-.17.77-.26,1.49-.44,2.21A5.5,5.5,0,0,0,132.28,224.05Zm2.92-45.6c.37.67.81,1.26,1.22,1.9a4.57,4.57,0,0,0,1.94,1.57,4.44,4.44,0,0,0,4.91-1,3.36,3.36,0,0,1,3.23-.81,3.67,3.67,0,0,1,1.73.9c.63.41,1.22.85,1.89,1.26-.37-.67-.87-1.26-1.26-1.89a4.42,4.42,0,0,0-1.86-1.62,4.58,4.58,0,0,0-5,.85,3.33,3.33,0,0,1-3.21,1,4,4,0,0,1-1.7-.85C136.47,179.32,135.88,178.86,135.2,178.45Z"/><path class="cls-4" d="M78.7,253c2.1-.28,4.26-.26,6.38-.34l6.53-.28c4.42-.19,8.84-.3,13.26-.39,8.82-.19,17.65-.4,26.48-.44,2.42,0,4.85,0,7.28,0s5.1.3,7.65.35c.15,0,.13.23,0,.24-2.18.11-4.36.4-6.55.52s-4.48.23-6.72.29q-6.63.19-13.25.29c-8.69.11-17.39.26-26.08.19l-7.28-.08c-2.54,0-5.13.1-7.66-.16C78.59,253.2,78.56,253,78.7,253Z"/><path class="cls-4" d="M93.09,221.73c3-5.08,5.83-10.24,8.76-15.35,3.33-5.8,6.45-11.72,9.69-17.57.08-.15-.17-.29-.26-.14-3.84,6.15-16.77,26.67-18.87,30.16q-9.19,15.28-18.28,30.63c-3.38,5.74-7.15,12.41-10.49,18.17-.24.42,6.57-.07,10.16-.43.19,0,.42-.61.19-.6-3.35.1-7.86-.29-8.31-.25,6.17-9.65,12.19-19.38,18.14-29.16Q88.5,229.48,93.09,221.73Z"/><path class="cls-4" d="M159.54,225.41a25.23,25.23,0,0,0,3.51-9.06c0-.06-.09-.09-.11,0a51.37,51.37,0,0,1-3.2,8.09c.24-1.16.47-2.33.7-3.5.83-4.21,1.68-8.42,2.31-12.68,0-.06-.1-.09-.11,0-1.95,7.25-3.57,14.58-5.35,21.87s-3.57,14.79-5.33,22.18c-1,4-1.94,8.07-2.81,12.13-1.36.15-2.43.13-3.64.27a.3.3,0,0,0,0,.6,22.74,22.74,0,0,0,4.56-.18C154,252.06,156.87,238.73,159.54,225.41Z"/><path class="cls-3" d="M195.66,171.3c-10.53,1.67-27.1-15.48-33.15-28.82-.41-.91,1.63-10.07,3.59-21.32,1.16-6.82,2.29-14.46,2.82-21.49l43.33,14s-5.45,14.43-6.29,26.7a16.35,16.35,0,0,0,.08,2.91c0,.14,0,.3,0,.49C206.55,149.36,205.84,169.68,195.66,171.3Z"/><path class="cls-4" d="M172,100.67c.58,9.41,4.4,40.57,29.54,43a25.37,25.37,0,0,0,4.57.1c0-.19,0-.33,0-.47a15.62,15.62,0,0,1-.1-2.93c.85-12.26,6.29-26.69,6.29-26.69Z"/><path class="cls-3" d="M175.75,42.28c-8.3,14.16-10.74,60.19-2.22,72.61,12.35,18,37.8,25.5,54.42,9.46,16.11-15.54,18.23-75.58,8.23-87.41C221.45,19.52,188,21.37,175.75,42.28Z"/><path class="cls-4" d="M211.23,80c0-.12-.25.14-.25.26-.08,3.11-.7,6.65-3.56,7.52-.09,0-.09.18,0,.17C210.89,87.71,211.66,83,211.23,80Z"/><path class="cls-4" d="M208.65,76.65c-5-.67-5.93,9.3-1.33,9.92S212.81,77.21,208.65,76.65Z"/><path class="cls-4" d="M229.64,81.2c0-.12.22.17.21.29-.4,3.08-.34,6.68,2.36,8,.08,0,.06.2-.05.17C228.8,88.82,228.76,84.05,229.64,81.2Z"/><path class="cls-4" d="M232.71,78.24c5,.1,4.42,10.11-.21,10S228.51,78.15,232.71,78.24Z"/><path class="cls-4" d="M205.16,71.7a39.53,39.53,0,0,0,4-1c1.53-.4,2.78-.55,3.88-1.78a2.12,2.12,0,0,0-.09-2.59c-1.37-1.47-3.36-1.45-5.22-1A7.69,7.69,0,0,0,203,68.19C201.73,69.75,203.32,72,205.16,71.7Z"/><path class="cls-4" d="M237.05,73.59a40.45,40.45,0,0,1-3.86-1.41c-1.48-.56-2.71-.86-3.67-2.2a2.13,2.13,0,0,1,.37-2.56c1.52-1.31,3.5-1.08,5.31-.48a7.74,7.74,0,0,1,4.41,3.4C240.68,72,238.85,74.06,237.05,73.59Z"/><path class="cls-4" d="M206.12,108c.67.79,1.31,1.86,2.42,2.07a8.22,8.22,0,0,0,3.4-.46.11.11,0,0,1,.12.17,4.19,4.19,0,0,1-4.09,1.3,3.3,3.3,0,0,1-2.16-3C205.78,107.94,206,107.89,206.12,108Z"/><path class="cls-4" d="M210.27,99.07a10.54,10.54,0,0,0,6.56,5.37,13.63,13.63,0,0,0,3.77.54,3.53,3.53,0,0,0,.73,0l.69,0a.8.8,0,0,0,.69-.63v0a1.71,1.71,0,0,0,0-.32v0l0-.27c.3-2.37.42-6,.42-6,.83.52,5.06,2.94,5.11,1.69.39-10.35.82-21.86-1-32.24a.29.29,0,0,0-.57,0c-.77,9.93.22,19.93-.39,29.92-1.36-.68-3.57-1.9-4.82-2-.35.06-.11,7-.33,8.09a.27.27,0,0,1,0,.11c-4,.13-6.94-1.38-10.56-4.44C210.37,98.63,210.1,98.81,210.27,99.07Z"/><path class="cls-4" d="M229.17,48.29a17.47,17.47,0,0,1-16.33,4.76c-5.76-1.36-11.24-5.79-12.93-11.58a.14.14,0,0,0-.27.08c1.81,6.19,6.34,11.51,12.85,12.88a18,18,0,0,0,17-5.84C229.65,48.38,229.37,48.09,229.17,48.29Z"/><path class="cls-4" d="M215.25,9.5c-7.06-2.6-15.3.17-20.12,5.73a25.86,25.86,0,0,0-5.5,11.68.14.14,0,0,0,.27.07c1.85-6.71,6.74-13.24,13.38-15.77,6.37-2.43,13.3-1.19,17.88,4a16,16,0,0,1,4,9.85.32.32,0,0,0,.63,0A16.34,16.34,0,0,0,215.25,9.5Z"/><path class="cls-4" d="M268.14,31.12a21.1,21.1,0,0,0-8.16-12c-5.6-4-12.26-4-18.88-3.78a.14.14,0,0,0,0,.27c5.63-.14,11.36,0,16.31,3a20.81,20.81,0,0,1,8.86,10.76,20.23,20.23,0,0,1-10.16,24.46,20.55,20.55,0,0,1-16.27.49c-.21-.09-.38.21-.18.3,9.45,4.11,21.17.51,26.25-8.58A21,21,0,0,0,268.14,31.12Z"/><path class="cls-4" d="M173.65,44.49s2.07-14,6.09-17.92,12.15-4.25,12.15-4.25S197.65,10.87,209,11.1c10.23.2,16.3,9.78,16.3,9.78S240.65,8.17,256,17.55c14.58,8.89,10.57,32-4.86,38.07-10.85,4.29-24.33-6-24.33-6-1.38.08-16,7.44-25.61-5.83,0,0-10.18,6.58-15.21.88C186,44.62,178.39,47.44,173.65,44.49Z"/><path class="cls-4" d="M168.25,81.29c2.86-1.69,9-13,11.79-17.73,2.54-4.28,4.37-22.38,5.12-31.4a32.26,32.26,0,0,0-9.41,10.12C171.4,49.69,168.66,65.82,168.25,81.29Z"/><path class="cls-3" d="M176.62,80.47S169.71,64,162.43,66.13,158.18,90.7,165.2,95.2a7.94,7.94,0,0,0,11.3-1.92Z"/><path class="cls-4" d="M163.46,72.53a.11.11,0,0,0-.09.2c4.89,3.33,6.63,8.9,7.48,14.48-1.16-2.33-3.09-3.89-6.16-2.57-.16.07-.07.32.09.32a4.89,4.89,0,0,1,4.89,2.81,23,23,0,0,1,1.59,4.79c.15.54,1.07.47,1-.12,0,0,0-.09,0-.14C173.87,85.51,170.64,74.81,163.46,72.53Z"/><path class="cls-7" d="M206.12,142.84,191.7,167.17l-27.11-37.48-10.67,9.1s23.52,56.58,24.07,54.27l14-20.62,13,17.78,4.63-39Z"/><path class="cls-4" d="M208.36,171.07c.55-6.47,1.28-13,1.53-19.45,0-.23-.33-.39-.43-.13-2.22,6-4.18,30.73-5.09,36.6l-.06-.08c-.54-.76-12.17-15.76-12.33-15.57-2.84,3.18-13.09,18.19-13.84,19.58-3.72-9-18.19-41.79-22.88-50.47a.23.23,0,0,0-.42.17c3.06,9.36,22.11,53.47,22.52,53.42.23.24,12.94-18.24,14.66-21.83,1.88,3.17,13.38,19.84,13.57,18.9A203.41,203.41,0,0,0,208.36,171.07Z"/><text class="cls-8" transform="translate(520.37 316.99) rotate(-90) scale(0.9 1)">WO<tspan class="cls-9" x="81.68" y="0">L</tspan><tspan x="103.6" y="0">ON</tspan><tspan class="cls-10" x="168.9" y="0">T</tspan><tspan class="cls-11" x="194.16" y="0">ARI</tspan><tspan class="cls-12" x="274.26" y="0">A</tspan><tspan x="301.43" y="0">T</tspan></text><path class="cls-4" d="M469.48,338.69H525.8v11H469.48Z"/><path class="cls-4" d="M469.48,356.7H525.8v11H469.48Z"/><path class="cls-4" d="M479.28,378.84V328.89h11v49.95Z"/><path class="cls-4" d="M501.58,378.84V328.89h11v49.95Z"/></svg>