<svg id="Слой_1" data-name="Слой 1" xmlns="http://www.w3.org/2000/svg" viewBox="0 0 581.13 402.55"><defs><style>.cls-1{fill:#ffc800;}.cls-2,.cls-5{fill:#fff;}.cls-2{opacity:0.5;}.cls-3{fill:#c36358;}.cls-4{fill:#306;}.cls-6{opacity:0.1;}.cls-7{fill:#4a148c;}</style></defs><path class="cls-1" d="M314.89,394c-98.23,0-178.14-79.92-178.14-178.14S216.66,37.76,314.89,37.76,493,117.67,493,215.9,413.11,394,314.89,394Zm0-347.55c-93.42,0-169.41,76-169.41,169.41s76,169.41,169.41,169.41,169.41-76,169.41-169.41S408.3,46.49,314.89,46.49Z"/><circle class="cls-1" cx="314.89" cy="215.9" r="153.84" transform="translate(-60.44 285.9) rotate(-45)"/><circle class="cls-2" cx="314.89" cy="215.9" r="153.84" transform="translate(-60.44 285.9) rotate(-45)"/><path class="cls-3" d="M364.74,165.41c-7.41,21.46-37.94,127.22-58.32,133.15-33.21,9.66-58.53,6.55-85,7.2-14.95.38-38.14-71.46-24.62-71.84,21.56-.61,70.52,3.17,78.33,2.8s37-60.58,64.43-86.75C364.34,126.39,370,150.29,364.74,165.41Z"/><path class="cls-3" d="M230,303.84c-1.22.47-18.48,7-28.93,8.93-7.8,1.42-30.35,4.89-32.76-3.54-1.65-5.75,11.37-9.35,20.52-12.1,4.82-1.45,11-5.71,10-8.82-1.85-5.44-14.29-1.45-22.58,2.29-16,7.24-37.83,21-46.28,12.37-3.2-3.27,1.4-8.13,7.87-12.71-10.25,5.05-21,8.95-24.72,5.47-2.12-2-2-4.4-.42-7-3.08.66-5.68.2-7.32-1.92-2.79-3.6-.77-8.28,3.17-12.89a3.74,3.74,0,0,1-2.65-2.16c-5.59-10.79,30.58-36.4,42.34-37.94,34.59-4.55,70,.61,70,.61C230.4,246.38,230,303.82,230,303.84Z"/><path class="cls-4" d="M183.55,267.65A57.43,57.43,0,0,0,160.14,274c-9.14,4.77-15.5,10.8-23.37,16.72a.2.2,0,0,0,.24.32c3.74-2.81,19.15-13.25,23.09-15.58a54.75,54.75,0,0,1,23.47-7.67C183.66,267.78,183.64,267.64,183.55,267.65Z"/><path class="cls-4" d="M178.74,252.67c-9.13,1.51-18.47,3-27.14,6.38-9.49,3.67-17.32,10.43-25,16.92q-6.92,5.85-13.57,12c-.19.17,0,.49.23.32q11.72-10.08,24-19.45a72.77,72.77,0,0,1,25.45-12.6c5.28-1.41,10.66-2.42,16-3.42C178.86,252.81,178.84,252.65,178.74,252.67Z"/><path class="cls-4" d="M170.55,239.16c-8.81.89-16.49,1.63-24.6,5.46C135.21,249.7,124.39,259,120.6,262.3c-4.2,3.65-8.27,7.43-12.29,11.28-.16.16.11.45.28.29a287.49,287.49,0,0,1,29-23.34,57.3,57.3,0,0,1,15.69-8.05c5.61-1.76,11.49-2.48,17.29-3.26C170.59,239.22,170.58,239.16,170.55,239.16Z"/><path class="cls-1" d="M277.91,222.9l53.5,64.78s30.95-85.42,37.23-123.24c6.55-39.41-6.52-51.17-39.89-10.12C295.87,194.77,277.91,222.9,277.91,222.9Z"/><path class="cls-5" d="M328.48,161.06a4.11,4.11,0,0,1-1.81-.63,3.57,3.57,0,0,1-1.39-1.81c-.42.5-.83,1-1.2,1.5a4.15,4.15,0,0,0,2,1.57,4.33,4.33,0,0,0,2.44.26c.77-.17,1.49-.26,2.21-.45A17.28,17.28,0,0,0,328.48,161.06ZM315.9,262.66a4.3,4.3,0,0,1-1.81-.59,3.4,3.4,0,0,1-1.58-3,4.56,4.56,0,0,0-2.92-4.15,3.92,3.92,0,0,0-2.44-.17c-.77.17-1.49.26-2.25.43a16,16,0,0,0,2.25.46,4.28,4.28,0,0,1,1.85.55,3.43,3.43,0,0,1,1.66,2.88,4.61,4.61,0,0,0,2.79,4.23,4.34,4.34,0,0,0,2.45.22,19.69,19.69,0,0,0,2.24-.44C317.38,262.92,316.66,262.84,315.9,262.66Zm50.24-109.78a4.24,4.24,0,0,0-.28,2.46c.17.72.28,1.44.46,2.21.21-.77.3-1.49.45-2.21a3.9,3.9,0,0,1,.62-1.83,3.44,3.44,0,0,1,2.72-1.59c.07-.64.09-1.25.11-1.83A4.55,4.55,0,0,0,366.14,152.88Zm-45.36,54.17a19.47,19.47,0,0,0-.45-2.2c-.18.72-.27,1.44-.46,2.2a4.57,4.57,0,0,1-.53,1.85,3.34,3.34,0,0,1-2.88,1.66,4.63,4.63,0,0,0-4.23,2.8,4.5,4.5,0,0,0-.24,2.44,20.42,20.42,0,0,0,.46,2.25,22.89,22.89,0,0,0,.44-2.25,4.2,4.2,0,0,1,.63-1.81,3.36,3.36,0,0,1,3-1.57,4.37,4.37,0,0,0,4.27-5.37Zm22.1-25.37a4,4,0,0,1-1.72.85,3.31,3.31,0,0,1-3.18-1,4.58,4.58,0,0,0-5-.86,4.42,4.42,0,0,0-1.86,1.62c-.41.63-.89,1.22-1.26,1.9.68-.42,1.26-.85,1.9-1.27a3.69,3.69,0,0,1,1.7-.89,3.37,3.37,0,0,1,3.25.8,4.44,4.44,0,0,0,4.91,1,4.51,4.51,0,0,0,1.94-1.57c.42-.63.85-1.22,1.22-1.9C344.11,180.83,343.52,181.28,342.88,181.68Zm4.06,52a4.54,4.54,0,0,0-5-.85,4.34,4.34,0,0,0-1.86,1.61c-.39.64-.89,1.22-1.26,1.9.67-.41,1.26-.87,1.89-1.26a3.65,3.65,0,0,1,1.71-.9,3.36,3.36,0,0,1,3.25.81,4.48,4.48,0,0,0,3.25,1.37l.52-1.63A3.24,3.24,0,0,1,346.94,233.69Zm-61.39-6.07a3.68,3.68,0,0,1-3,.88l1.24,1.5a4.2,4.2,0,0,0,.5-.17,4.46,4.46,0,0,0,1.94-1.57c.42-.64.86-1.23,1.23-1.9C286.77,226.77,286.18,227.21,285.55,227.62Z"/><path class="cls-4" d="M333,268.43c-1.17-1.77-2.6-3.39-3.92-5s-2.73-3.4-4.09-5.11c-2.75-3.45-5.57-6.86-8.4-10.25-5.66-6.78-11.29-13.57-17.07-20.25-1.59-1.84-3.18-3.67-4.81-5.46s-3.58-3.66-5.29-5.54c-.11-.12-.27.05-.17.17,1.35,1.72,2.56,3.55,3.9,5.28s2.78,3.53,4.2,5.26q4.22,5.12,8.49,10.18c5.62,6.63,11.22,13.28,17,19.79,1.61,1.82,3.23,3.62,4.84,5.44s3.3,3.93,5.15,5.67C332.92,268.66,333.09,268.55,333,268.43Z"/><path class="cls-6" d="M368.64,164.43c-6.28,37.83-37.22,123.25-37.22,123.25l-33.67-40.77,63.54-118.22C369.86,129.22,372.28,142.59,368.64,164.43Z"/><path class="cls-1" d="M473.66,338.29a153.82,153.82,0,0,1-180.39,4.35c11.16-57.73,38.62-181.66,53.43-201,4.07-5.3,17.53-6.79,29-5.37a52.81,52.81,0,0,1,8.82,1.8,1,1,0,0,0,.3.07,21.31,21.31,0,0,1,6.47,3.18C415,160.34,455.44,279,473.66,338.29Z"/><path class="cls-5" d="M461.07,338.3a4.31,4.31,0,0,1-1.7.85,3.55,3.55,0,0,1-3.25-1,4.53,4.53,0,0,0-5-.85,4.17,4.17,0,0,0-1.85,1.62,21.51,21.51,0,0,0-1.27,1.89c.68-.41,1.27-.85,1.9-1.26a4.17,4.17,0,0,1,1.73-.94,3.35,3.35,0,0,1,3.18.85,4.58,4.58,0,0,0,4.95,1,4.45,4.45,0,0,0,1.9-1.57c.42-.64.9-1.23,1.27-1.9C462.29,337.45,461.7,337.91,461.07,338.3Zm-94.14,23.3a4.13,4.13,0,0,1-1.77.85,3.49,3.49,0,0,1-3.19-1,4.43,4.43,0,0,0-5-.87,4.68,4.68,0,0,0-1.84,1.64c-.41.59-.85,1.15-1.26,1.83a20.59,20.59,0,0,0,1.9-1.24,6,6,0,0,1,1.7-.92,3.5,3.5,0,0,1,3.25.87,4.56,4.56,0,0,0,4.91,1,4.51,4.51,0,0,0,1.94-1.57c.39-.64.85-1.23,1.2-1.9C368.13,360.71,367.56,361.15,366.93,361.6Zm33.42-54a4.08,4.08,0,0,1-1.77.85,3.48,3.48,0,0,1-3.18-1,4.45,4.45,0,0,0-5-.87,4.55,4.55,0,0,0-1.83,1.63c-.42.59-.85,1.16-1.27,1.83a15.47,15.47,0,0,0,1.9-1.24,6,6,0,0,1,1.7-.92,3.5,3.5,0,0,1,3.25.88,4.58,4.58,0,0,0,4.91,1,4.44,4.44,0,0,0,1.94-1.57c.4-.63.85-1.22,1.2-1.9C401.55,306.76,401,307.19,400.35,307.65Zm-89,5.85a3.39,3.39,0,0,1-1.72.85,3.46,3.46,0,0,1-3.23-.94,4.45,4.45,0,0,0-4.95-.92,4.87,4.87,0,0,0-1.86,1.64c-.32.44-.63.87-.91,1.31,0,.13-.05.26-.09.39a18.39,18.39,0,0,0,1.64-1.07,3.89,3.89,0,0,1,1.7-.91,3.35,3.35,0,0,1,3.2.87,4.65,4.65,0,0,0,5,1,4.34,4.34,0,0,0,1.89-1.57c.4-.63.9-1.22,1.27-1.9C312.62,312.65,312,313.08,311.4,313.5Zm40.45-79.68a3.57,3.57,0,0,1-1.72.85,3.33,3.33,0,0,1-3.19-1,4.54,4.54,0,0,0-5-.85,4.34,4.34,0,0,0-1.86,1.61c-.39.64-.89,1.22-1.26,1.9.67-.41,1.26-.87,1.89-1.26a3.65,3.65,0,0,1,1.71-.9,3.36,3.36,0,0,1,3.25.81,4.44,4.44,0,0,0,6.85-.55c.39-.63.85-1.22,1.22-1.9C353.07,233,352.48,233.41,351.85,233.82Zm-9-52.14a4,4,0,0,1-1.72.85,3.31,3.31,0,0,1-3.18-1,4.58,4.58,0,0,0-5-.86,4.42,4.42,0,0,0-1.86,1.62c-.15.24-.32.48-.5.72s-.15.54-.24.83c.48-.31.92-.61,1.38-.92a3.69,3.69,0,0,1,1.7-.89,3.37,3.37,0,0,1,3.25.8,4.44,4.44,0,0,0,4.91,1,4.51,4.51,0,0,0,1.94-1.57c.42-.63.85-1.22,1.22-1.9C344.11,180.83,343.52,181.28,342.88,181.68Zm68.69-2a4,4,0,0,1-1.71.85,3.3,3.3,0,0,1-3.2-1,4.59,4.59,0,0,0-5-.85,4.33,4.33,0,0,0-1.85,1.62c-.4.63-.9,1.22-1.27,1.89.68-.41,1.27-.85,1.9-1.26a3.68,3.68,0,0,1,1.72-.9,3.35,3.35,0,0,1,3.23.81,4.45,4.45,0,0,0,4.91,1,4.51,4.51,0,0,0,1.94-1.57c.42-.64.85-1.23,1.22-1.9C412.79,178.86,412.2,179.32,411.57,179.71ZM321.94,353c-.17-.77-.26-1.49-.46-2.21a17.28,17.28,0,0,0-.43,2.21,4.08,4.08,0,0,1-.59,1.85,3.29,3.29,0,0,1-2.53,1.64c.76.35,1.52.69,2.29,1a4.55,4.55,0,0,0,1.55-2.05A4.79,4.79,0,0,0,321.94,353Zm94.62-131.43c-.17-.72-.26-1.44-.44-2.21a17.34,17.34,0,0,0-.45,2.21,4.39,4.39,0,0,1-.59,1.9,3.39,3.39,0,0,1-2.88,1.68,4.44,4.44,0,0,0-4.19,2.79,3.59,3.59,0,0,0-.22,2.42c.13.76.22,1.48.39,2.2a14.56,14.56,0,0,0,.46-2.2,4.53,4.53,0,0,1,.63-1.81,3.36,3.36,0,0,1,3-1.57,4.57,4.57,0,0,0,4.15-2.92A5.49,5.49,0,0,0,416.56,221.56Zm-65.89,54.78a19.45,19.45,0,0,0-.43-2.2c-.2.72-.29,1.44-.46,2.2a4.33,4.33,0,0,1-.55,1.86,3.33,3.33,0,0,1-2.88,1.65,4.67,4.67,0,0,0-4.23,2.8,4.51,4.51,0,0,0-.22,2.42,21.57,21.57,0,0,0,.44,2.27,17.57,17.57,0,0,0,.46-2.27,3.7,3.7,0,0,1,.63-1.79,3.26,3.26,0,0,1,3-1.57,4.64,4.64,0,0,0,4.14-2.95A4.58,4.58,0,0,0,350.67,276.34Zm24-129.77c-.13-.78-.24-1.5-.41-2.22a17.1,17.1,0,0,0-.44,2.22,4.86,4.86,0,0,1-.59,1.84,3.37,3.37,0,0,1-2.88,1.68,4.54,4.54,0,0,0-4.19,2.79,4.24,4.24,0,0,0-.28,2.46c.17.72.28,1.44.46,2.21.21-.77.3-1.49.45-2.21a3.9,3.9,0,0,1,.62-1.83,3.43,3.43,0,0,1,3-1.59,4.53,4.53,0,0,0,4.15-2.93A4.68,4.68,0,0,0,374.65,146.57Zm68.68,112.51a5,5,0,0,1-1.72,1,3.49,3.49,0,0,1-3.25-.87,4.57,4.57,0,0,0-4.91-1,4,4,0,0,0-1.92,1.57c-.42.63-.87,1.22-1.27,1.9.68-.42,1.27-.86,1.9-1.27a4,4,0,0,1,1.7-.85,3.62,3.62,0,0,1,3.25,1,4.55,4.55,0,0,0,5,.87,4.75,4.75,0,0,0,1.85-1.63c.4-.64.85-1.22,1.2-1.88C444.53,258.23,444,258.69,443.33,259.08Zm9.1,46.45a4.14,4.14,0,0,1-1.81-.63,3.38,3.38,0,0,1-1.57-3,4.6,4.6,0,0,0-2.93-4.14,4.71,4.71,0,0,0-2.48-.13c-.72.13-1.44.24-2.21.41a21.56,21.56,0,0,0,2.21.44,4.89,4.89,0,0,1,1.89.59,3.4,3.4,0,0,1,1.66,2.88,4.53,4.53,0,0,0,2.75,4.18,4.31,4.31,0,0,0,2.49.29c.76-.18,1.48-.29,2.2-.46A17.48,17.48,0,0,0,452.43,305.53ZM315.9,262.66a4.3,4.3,0,0,1-1.81-.59,3.4,3.4,0,0,1-1.58-3,4.7,4.7,0,0,0-.82-2.53c-.31,1.24-.59,2.46-.88,3.7a4.59,4.59,0,0,0,2.64,3.06,4.34,4.34,0,0,0,2.45.22,19.69,19.69,0,0,0,2.24-.44C317.38,262.92,316.66,262.84,315.9,262.66Zm75.27,4.5a4.77,4.77,0,0,1-1.81-.59,3.44,3.44,0,0,1-1.58-3,4.55,4.55,0,0,0-2.92-4.14,3.92,3.92,0,0,0-2.44-.18c-.77.18-1.49.26-2.25.44a17.6,17.6,0,0,0,2.25.46,4.07,4.07,0,0,1,1.85.54,3.39,3.39,0,0,1,1.66,2.88,4.61,4.61,0,0,0,2.79,4.23,4.36,4.36,0,0,0,2.45.22,16.2,16.2,0,0,0,2.24-.46C392.65,267.42,391.93,267.33,391.17,267.16Zm-36.53,60.17a5.11,5.11,0,0,1-1.85-.63,3.49,3.49,0,0,1-1.57-3,4.48,4.48,0,0,0-2.93-4.13,4.59,4.59,0,0,0-2.44-.19c-.76.19-1.48.28-2.2.46.72.21,1.44.3,2.2.45a4.08,4.08,0,0,1,1.86.57,3.47,3.47,0,0,1,1.7,2.9,4.36,4.36,0,0,0,5.23,4.41,17.43,17.43,0,0,0,2.21-.46C356.08,327.55,355.36,327.46,354.64,327.33Zm54.46,23a4.18,4.18,0,0,1-1.85-.64,3.43,3.43,0,0,1-1.58-3,4.51,4.51,0,0,0-2.94-4.14,4.58,4.58,0,0,0-2.42-.13c-.72.13-1.49.24-2.21.41a19.19,19.19,0,0,0,2.21.44,4.92,4.92,0,0,1,1.85.59,3.44,3.44,0,0,1,1.7,2.88,4.45,4.45,0,0,0,2.75,4.19,4.33,4.33,0,0,0,2.49.28c.72-.17,1.44-.28,2.2-.46A20.77,20.77,0,0,0,409.1,350.35ZM376.44,208.08a4.34,4.34,0,0,1-1.81-.64,3.35,3.35,0,0,1-1.57-3,4.37,4.37,0,0,0-5.37-4.27,20.42,20.42,0,0,0-2.25.46c.77.17,1.49.26,2.25.41a4.58,4.58,0,0,1,1.85.57,3.46,3.46,0,0,1,1.66,2.9,4.57,4.57,0,0,0,2.8,4.19,4.33,4.33,0,0,0,2.44.26c.76-.17,1.48-.26,2.2-.46A17.46,17.46,0,0,0,376.44,208.08Z"/><path class="cls-3" d="M419,165.65c42.06,68.25,80.35,144,66.34,163.4-11.3,15.62-113.78,57.47-148,60.09-10.86.84-37.77-79.06-19.8-85.52,5.11-1.83,88.42-17.76,88.92-19.7,1.61-6.18-9.59-47.84-19.91-95.31C373.27,127.52,401.16,136.78,419,165.65Z"/><path class="cls-3" d="M276.91,317.74c5.09-1.83,8.09-5.87-1-8.89s-47.77-7.28-45.14-20.63,56.25-4.1,71.85-.38a62.47,62.47,0,0,1,37.9,26.86C315.59,316.18,296.53,317.37,276.91,317.74Z"/><path class="cls-4" d="M248,281.22a123.52,123.52,0,0,1,15.51-.31c5.18.15,10.34.63,15.48,1.27a122,122,0,0,1,30.06,7.58c-2.55-.48-5-1.2-7.57-1.62s-5-1-7.56-1.48c-5.06-.83-10.12-1.7-15.22-2.31s-10.19-1.23-15.3-1.77q-3.84-.4-7.69-.7C253.16,281.6,250.59,281.45,248,281.22Z"/><rect class="cls-7" x="253.03" y="221.95" width="7.95" height="177.45" transform="translate(-54.29 566.92) rotate(-89.86)"/><polygon class="cls-4" points="168.29 306.48 168.27 314.43 288.89 314.72 282.83 306.76 168.29 306.48"/><polygon class="cls-7" points="275.15 314.69 102.21 314.27 88.1 196.78 261.05 197.2 275.15 314.69"/><path class="cls-5" d="M192.16,255.76a10.31,10.31,0,0,1-10.37,10.5,10.75,10.75,0,0,1-10.69-10.55,10.31,10.31,0,0,1,10.37-10.5A10.76,10.76,0,0,1,192.16,255.76Z"/><path class="cls-3" d="M337.13,389.13c-30.5,1.74-74.31-2.76-102.79-22.46a17.15,17.15,0,0,1-6.87-8.89c-12.92-8.6-12.74-17.28-12.74-17.28-9.58-11.7-8.17-20.56-8.17-20.56s-15.07-10.26-10.37-20.39c5.22-11.38,25.35,5.26,42,7.64,38.19,5.46,94.74,8.09,105.91,8.56Z"/><path class="cls-4" d="M274.16,341c-11.2-1.83-22.26-3.34-33.16-6.68-11.95-3.66-22.85-9.19-34.08-14.54a.3.3,0,0,0-.3.52c18.8,12.91,44.72,20.63,67.47,21.21C274.64,341.49,274.73,341.06,274.16,341Z"/><path class="cls-4" d="M274.22,364.49c-10.8-2.38-29.77-6.7-59.34-24.38-.1-.06-.23.09-.13.17,17.68,14,37.18,21.75,59.36,24.72C274.8,365.1,274.94,364.65,274.22,364.49Z"/><path class="cls-4" d="M274,377.14c-18.21-4.76-29.1-10.07-46.47-19.46-.1-.05-.22.11-.12.18,18.63,12.74,26.83,15.26,46.52,19.92C274.62,377.94,274.73,377.32,274,377.14Z"/><path class="cls-1" d="M399.44,264.62l84,2.21s-44.08-79.45-68.47-109c-25.43-30.82-42.88-28.68-33.84,23.44C390,232.6,399.44,264.62,399.44,264.62Z"/><path class="cls-5" d="M462.05,229.67c-.37-.06-.74-.1-1.11-.19a4.8,4.8,0,0,1-1.86-.61,3.51,3.51,0,0,1-1.57-3,4.53,4.53,0,0,0-2.92-4.15,4.79,4.79,0,0,0-2.44-.17c-.77.17-1.49.26-2.21.46a19.2,19.2,0,0,0,2.21.43A4,4,0,0,1,454,223a3.43,3.43,0,0,1,1.72,2.88,4.44,4.44,0,0,0,2.75,4.19,4.25,4.25,0,0,0,2.47.24c.43-.09.89-.15,1.35-.26a5.23,5.23,0,0,0,.85-.2Zm-18.72,29.41a5,5,0,0,1-1.72,1,3.49,3.49,0,0,1-3.25-.87,4.57,4.57,0,0,0-4.91-1,4,4,0,0,0-1.92,1.57c-.42.63-.87,1.22-1.27,1.9.68-.42,1.27-.86,1.9-1.27a4,4,0,0,1,1.7-.85,3.62,3.62,0,0,1,3.25,1,4.55,4.55,0,0,0,5,.87,4.75,4.75,0,0,0,1.85-1.63c.4-.64.85-1.22,1.2-1.88C444.53,258.23,444,258.69,443.33,259.08Zm-5.19-68.35a4,4,0,0,0-.9,1.35,4.72,4.72,0,0,0-.21,2.45,19.64,19.64,0,0,0,.43,2.24,16.2,16.2,0,0,0,.46-2.24,3.84,3.84,0,0,1,.63-1.81,3.62,3.62,0,0,1,.5-.59Zm-21.58,30.83c-.17-.72-.26-1.44-.44-2.21a17.34,17.34,0,0,0-.45,2.21,4.39,4.39,0,0,1-.59,1.9,3.39,3.39,0,0,1-2.88,1.68,4.44,4.44,0,0,0-4.19,2.79,3.59,3.59,0,0,0-.22,2.42c.13.76.22,1.48.39,2.2a14.56,14.56,0,0,0,.46-2.2,4.53,4.53,0,0,1,.63-1.81,3.36,3.36,0,0,1,3-1.57,4.57,4.57,0,0,0,4.15-2.92A5.49,5.49,0,0,0,416.56,221.56Zm-5-41.85a4,4,0,0,1-1.71.85,3.3,3.3,0,0,1-3.2-1,4.59,4.59,0,0,0-5-.85,4.33,4.33,0,0,0-1.85,1.62c-.4.63-.9,1.22-1.27,1.89.68-.41,1.27-.85,1.9-1.26a3.68,3.68,0,0,1,1.72-.9,3.35,3.35,0,0,1,3.23.81,4.45,4.45,0,0,0,4.91,1,4.51,4.51,0,0,0,1.94-1.57c.42-.64.85-1.23,1.22-1.9C412.79,178.86,412.2,179.32,411.57,179.71Z"/><path class="cls-4" d="M470,253c-2.1-.28-4.26-.26-6.38-.34l-6.53-.28c-4.41-.19-8.83-.3-13.25-.39-8.83-.19-17.65-.4-26.48-.44-2.43,0-4.86,0-7.28,0s-5.1.3-7.65.35c-.16,0-.14.23,0,.24,2.19.11,4.37.4,6.55.52s4.49.23,6.73.29q6.61.19,13.24.29c8.69.11,17.39.26,26.09.19l7.28-.08c2.53,0,5.13.1,7.66-.16A.12.12,0,0,0,470,253Z"/><path class="cls-4" d="M455.58,221.73c-3-5.08-5.84-10.24-8.77-15.35-3.32-5.8-6.45-11.72-9.68-17.57-.08-.15.17-.29.26-.14,3.83,6.15,16.76,26.67,18.86,30.16q9.19,15.28,18.29,30.63c3.38,5.74,7.14,12.41,10.48,18.17.24.42-6.56-.07-10.15-.43-.2,0-.43-.61-.2-.6,3.35.1,7.87-.29,8.32-.25q-9.25-14.48-18.14-29.16Q460.17,229.48,455.58,221.73Z"/><path class="cls-4" d="M389.12,225.41a25,25,0,0,1-3.5-9.06c0-.06.08-.09.1,0a51.37,51.37,0,0,0,3.2,8.09c-.23-1.16-.47-2.33-.7-3.5-.83-4.21-1.68-8.42-2.31-12.68,0-.06.1-.09.12,0,1.94,7.25,3.56,14.58,5.35,21.87s3.56,14.79,5.33,22.18c1,4,1.94,8.07,2.8,12.13,1.37.15,2.44.13,3.64.27.33,0,.35.59,0,.6a22.86,22.86,0,0,1-4.57-.18C394.68,252.06,391.79,238.73,389.12,225.41Z"/><path class="cls-3" d="M353,171.3c10.53,1.67,27.1-15.48,33.15-28.82.41-.91-1.64-10.07-3.59-21.32-1.16-6.82-2.29-14.46-2.82-21.49l-43.34,14s5.45,14.43,6.3,26.7a15.44,15.44,0,0,1-.09,2.91c0,.14,0,.3,0,.49C342.11,149.36,342.83,169.68,353,171.3Z"/><path class="cls-4" d="M376.7,100.67c-.58,9.41-4.4,40.57-29.55,43a25.27,25.27,0,0,1-4.56.1c0-.19,0-.33,0-.47a15.65,15.65,0,0,0,.09-2.93c-.84-12.26-6.29-26.69-6.29-26.69Z"/><path class="cls-3" d="M372.91,42.28c8.3,14.16,10.74,60.19,2.22,72.61-12.35,18-37.8,25.5-54.42,9.46-16.11-15.54-18.23-75.58-8.22-87.41C327.22,19.52,360.66,21.37,372.91,42.28Z"/><path class="cls-4" d="M337.43,80c0-.12.25.14.25.26.09,3.11.7,6.65,3.57,7.52.08,0,.08.18,0,.17C337.78,87.71,337,83,337.43,80Z"/><path class="cls-4" d="M340,76.65c5-.67,5.93,9.3,1.33,9.92S335.85,77.21,340,76.65Z"/><path class="cls-4" d="M319,81.2c0-.12-.23.17-.21.29.4,3.08.33,6.68-2.36,8-.09,0-.06.2,0,.17C319.87,88.82,319.9,84.05,319,81.2Z"/><path class="cls-4" d="M316,78.24c-5,.1-4.43,10.11.21,10S320.15,78.15,316,78.24Z"/><path class="cls-4" d="M343.5,71.7a38.7,38.7,0,0,1-4-1c-1.53-.4-2.79-.55-3.89-1.78a2.13,2.13,0,0,1,.1-2.59c1.36-1.47,3.36-1.45,5.22-1a7.71,7.71,0,0,1,4.75,2.89C346.94,69.75,345.34,72,343.5,71.7Z"/><path class="cls-4" d="M311.61,73.59a40.63,40.63,0,0,0,3.87-1.41c1.47-.56,2.71-.86,3.66-2.2a2.13,2.13,0,0,0-.37-2.56c-1.52-1.31-3.5-1.08-5.3-.48a7.71,7.71,0,0,0-4.41,3.4C308,72,309.82,74.06,311.61,73.59Z"/><path class="cls-4" d="M342.55,108c-.67.79-1.31,1.86-2.43,2.07a8.2,8.2,0,0,1-3.39-.46.11.11,0,0,0-.12.17,4.18,4.18,0,0,0,4.08,1.3,3.31,3.31,0,0,0,2.17-3C342.89,107.94,342.64,107.89,342.55,108Z"/><path class="cls-4" d="M338.4,99.07a10.58,10.58,0,0,1-6.57,5.37,13.58,13.58,0,0,1-3.77.54,3.53,3.53,0,0,1-.73,0c-.23,0-.43,0-.68,0a.77.77,0,0,1-.69-.63v0a1.14,1.14,0,0,1,0-.32v0l0-.27c-.29-2.37-.41-6-.41-6-.83.52-5.07,2.94-5.12,1.69-.39-10.35-.82-21.86,1-32.24a.29.29,0,0,1,.57,0c.76,9.93-.22,19.93.38,29.92,1.37-.68,3.58-1.9,4.82-2,.35.06.11,7,.33,8.09a.27.27,0,0,0,0,.11c4.05.13,6.94-1.38,10.56-4.44C338.3,98.63,338.56,98.81,338.4,99.07Z"/><path class="cls-4" d="M319.5,48.29a17.46,17.46,0,0,0,16.33,4.76c5.75-1.36,11.24-5.79,12.92-11.58a.14.14,0,0,1,.27.08c-1.8,6.19-6.33,11.51-12.85,12.88a18,18,0,0,1-17-5.84A.22.22,0,0,1,319.5,48.29Z"/><path class="cls-4" d="M333.41,9.5c7.06-2.6,15.31.17,20.12,5.73A25.78,25.78,0,0,1,359,26.91c0,.18-.23.24-.27.07-1.85-6.71-6.75-13.24-13.38-15.77-6.38-2.43-13.3-1.19-17.89,4a16,16,0,0,0-4,9.85.31.31,0,0,1-.62,0A16.34,16.34,0,0,1,333.41,9.5Z"/><path class="cls-4" d="M280.52,31.12a21.15,21.15,0,0,1,8.16-12c5.6-4,12.26-4,18.88-3.78.18,0,.18.28,0,.27-5.64-.14-11.36,0-16.32,3a20.79,20.79,0,0,0-8.85,10.76,20.23,20.23,0,0,0,10.15,24.46,20.57,20.57,0,0,0,16.28.49c.2-.09.38.21.17.3-9.45,4.11-21.17.51-26.25-8.58A21,21,0,0,1,280.52,31.12Z"/><path class="cls-4" d="M375,44.49s-2.06-14-6.08-17.92-12.16-4.25-12.16-4.25S351,10.87,339.62,11.1c-10.22.2-16.3,9.78-16.3,9.78S308,8.17,292.64,17.55c-14.59,8.89-10.58,32,4.86,38.07,10.84,4.29,24.33-6,24.33-6,1.38.08,16,7.44,25.61-5.83,0,0,10.17,6.58,15.2.88C362.64,44.62,370.27,47.44,375,44.49Z"/><path class="cls-4" d="M380.41,81.29c-2.85-1.69-9-13-11.79-17.73-2.54-4.28-4.36-22.38-5.12-31.4a32.29,32.29,0,0,1,9.42,10.12C377.26,49.69,380,65.82,380.41,81.29Z"/><path class="cls-3" d="M372.05,80.47S379,64,386.23,66.13s4.25,24.57-2.76,29.07a8,8,0,0,1-11.31-1.92Z"/><path class="cls-4" d="M385.21,72.53a.11.11,0,0,1,.08.2c-4.88,3.33-6.62,8.9-7.48,14.48,1.16-2.33,3.1-3.89,6.16-2.57.16.07.07.32-.08.32a4.89,4.89,0,0,0-4.9,2.81,23.62,23.62,0,0,0-1.59,4.79c-.15.54-1.07.47-1-.12,0,0,0-.09,0-.14C374.8,85.51,378,74.81,385.21,72.53Z"/><path class="cls-7" d="M342.55,142.84,357,167.17l27.12-37.48,10.66,9.1s-23.51,56.58-24.06,54.27l-14-20.62-13,17.78-4.62-39Z"/><path class="cls-4" d="M340.3,171.07c-.54-6.47-1.27-13-1.52-19.45,0-.23.33-.39.42-.13,2.22,6,4.18,30.73,5.1,36.6l.06-.08c.54-.76,12.16-15.76,12.33-15.57,2.83,3.18,13.08,18.19,13.84,19.58,3.71-9,18.19-41.79,22.88-50.47a.23.23,0,0,1,.42.17c-3.07,9.36-22.12,53.47-22.52,53.42-.24.24-12.94-18.24-14.67-21.83-1.87,3.17-13.37,19.84-13.56,18.9A203.44,203.44,0,0,1,340.3,171.07Z"/></svg>