<svg id="Слой_1" data-name="Слой 1" xmlns="http://www.w3.org/2000/svg" viewBox="0 0 923 1000"><defs><style>.cls-1{fill:#4a148c;}.cls-2{fill:#c8c8c8;}.cls-3{fill:#dcdcdc;}.cls-4{fill:#ececec;}.cls-5{fill:#a8a8a8;}.cls-6{fill:#ffc800;}.cls-7{fill:#306;}.cls-11,.cls-8{opacity:0.1;}.cls-9{fill:#ff9581;}.cls-10{fill:#fff;}.cls-12{fill:#1a2e35;}</style></defs><path class="cls-1" d="M613.88,521.94a9.89,9.89,0,0,0,1.28,5.17,14.35,14.35,0,0,0,3.29,3.77,28,28,0,0,0,4.44,3c1.62.9,3.23,1.83,4.86,2.8a45.52,45.52,0,0,1,5.23,3.78,22.42,22.42,0,0,1,4,4.37,19,19,0,0,1,2.62,5.42,23.43,23.43,0,0,1,.91,6.87A24.24,24.24,0,0,1,638.27,568a22,22,0,0,1-5.84,7.48,23,23,0,0,1-8.09,4.26,31.91,31.91,0,0,1-9.12,1.34,31.14,31.14,0,0,1-8-1,27.82,27.82,0,0,1-7.24-3,25.84,25.84,0,0,1-6-4.93,23.46,23.46,0,0,1-4.2-6.69l10.59-7.3a35.19,35.19,0,0,0,2.37,3.35,19.68,19.68,0,0,0,3.16,3.16,16.52,16.52,0,0,0,4,2.31,12.49,12.49,0,0,0,4.86.92,14.53,14.53,0,0,0,4.32-.67,10.64,10.64,0,0,0,3.71-2,10.08,10.08,0,0,0,2.55-3.28,10,10,0,0,0,1-4.51,10.57,10.57,0,0,0-1.76-6,19.47,19.47,0,0,0-4.32-4.56,36.78,36.78,0,0,0-5.23-3.34q-2.68-1.41-4.51-2.5-6.08-3.52-8-8.27a28,28,0,0,1-2-10.71Zm.37-28.34v16.78H600.74V493.6Z"/><path class="cls-1" d="M330.94,508.22a9.88,9.88,0,0,0-1.27-5.17,14.53,14.53,0,0,0-3.29-3.77,28.9,28.9,0,0,0-4.44-3c-1.62-.89-3.24-1.83-4.87-2.8a47.3,47.3,0,0,1-5.23-3.77,22.77,22.77,0,0,1-4-4.38,19,19,0,0,1-2.62-5.42,23.38,23.38,0,0,1-.91-6.87,24.38,24.38,0,0,1,2.25-10.89,22.12,22.12,0,0,1,5.84-7.48,23.19,23.19,0,0,1,8.09-4.26,31.91,31.91,0,0,1,9.12-1.34,31.08,31.08,0,0,1,8,1,27.82,27.82,0,0,1,7.24,3,25.43,25.43,0,0,1,6,4.93,23.46,23.46,0,0,1,4.2,6.69l-10.58,7.3a33.68,33.68,0,0,0-2.38-3.35,19.28,19.28,0,0,0-3.16-3.16,16.45,16.45,0,0,0-4-2.31,12.54,12.54,0,0,0-4.87-.92,14.53,14.53,0,0,0-4.32.67,10.73,10.73,0,0,0-3.71,2,10.28,10.28,0,0,0-2.55,3.29,9.88,9.88,0,0,0-1,4.5,10.54,10.54,0,0,0,1.76,6,19.27,19.27,0,0,0,4.32,4.56,36.87,36.87,0,0,0,5.24,3.34q2.67,1.41,4.5,2.5,6.07,3.52,8,8.27a28,28,0,0,1,1.94,10.71Zm-.37,28.34V519.78h13.51v16.78Z"/><rect class="cls-2" x="680.36" y="972.59" width="151.93" height="32.67" transform="translate(1512.65 1977.86) rotate(-180)"/><rect class="cls-3" x="776.31" y="972.59" width="14.26" height="32.67" transform="translate(1566.87 1977.86) rotate(-180)"/><rect class="cls-3" x="801.41" y="972.59" width="5.29" height="32.67" transform="translate(1608.12 1977.86) rotate(-180)"/><rect class="cls-3" x="697.38" y="972.59" width="14.26" height="32.67" transform="translate(1409.01 1977.86) rotate(-180)"/><rect class="cls-3" x="664.76" y="949.76" width="173.54" height="22.83" transform="translate(1503.05 1922.35) rotate(-180)"/><rect class="cls-4" x="765.85" y="954.42" width="58.21" height="13.7" transform="translate(1589.92 1922.55) rotate(-180)"/><rect class="cls-5" x="696.86" y="919.48" width="137.15" height="30.29" transform="translate(1530.88 1869.25) rotate(180)"/><rect class="cls-2" x="709.05" y="919.48" width="10.71" height="30.29" transform="translate(1428.81 1869.26) rotate(-180)"/><rect class="cls-2" x="726.8" y="919.48" width="4.16" height="30.29" transform="translate(1457.75 1869.26) rotate(-180)"/><rect class="cls-5" x="580.48" y="926.32" width="135.63" height="33.63" transform="translate(1784.65 1079.1) rotate(131.33)"/><rect class="cls-2" x="610.86" y="961.7" width="12.64" height="33.63" transform="translate(1759.55 1161.25) rotate(131.33)"/><rect class="cls-2" x="664.12" y="901.13" width="12.64" height="33.63" transform="translate(1802.51 1020.65) rotate(131.33)"/><rect class="cls-2" x="656.48" y="914.22" width="4.9" height="33.63" transform="translate(1793.22 1051.09) rotate(131.33)"/><path class="cls-6" d="M167.4,923.22s-17.79-63.88-32-85.57-40.7-45.52-40.7-45.52S95.31,890.61,167.4,923.22Z"/><path class="cls-7" d="M166.13,922.12a304.17,304.17,0,0,1-16.22-30.94,216.75,216.75,0,0,0-8.84-33.59c-.08-.21-.36-.09-.32.11,2.37,10.09,5.11,20.09,7.61,30.15-7.19-15.54-14-31.28-22.57-46-1.73-7.12-5-14-8.25-20.44-.09-.18-.4-.08-.31.11a132.71,132.71,0,0,1,5.55,15.34,153.06,153.06,0,0,0-13.52-18.68c-.31-.37-.94,0-.63.43,11.44,14.6,19.34,31.21,26.86,48a255.64,255.64,0,0,1-22.33-27.91.1.1,0,0,0-.16.11,229.58,229.58,0,0,0,23.91,31c5.48,12.33,10.86,24.7,17.39,36.42-13-11-23.08-25.3-33-39.07a.3.3,0,0,0-.49.34c9.94,15.1,20.23,29.33,34.53,40.52A157.24,157.24,0,0,0,164.87,923,.77.77,0,0,0,166.13,922.12Z"/><path class="cls-6" d="M172.92,929s-32-58.9-22.7-116,19.24-77.43,19.24-77.43S219.74,824.35,172.92,929Z"/><path class="cls-7" d="M186.05,836.38c-2.55,16.49-7,31.93-12.35,47.56-.09-21-.49-41.92-1-62.87a162,162,0,0,0,6-39c0-.38-.56-.36-.6,0a221,221,0,0,1-5.6,33.58q-.72-25.93-1.69-51.85a.23.23,0,0,0-.45,0c0,27,0,54,.18,81-4.12-10.4-6.71-21.11-9.22-32.08,0-.11-.19-.08-.18,0,1,12.61,4.79,24.8,9.44,36.5.12,17.27.31,34.53.69,51.78-5.41-18.35-11.19-36.12-12.75-55.51a.21.21,0,0,0-.41,0c.43,21.38,5.94,43.09,13,63.2a1.21,1.21,0,0,0,.36.51q.24,9.45.55,18.92a.7.7,0,0,0,1.4,0q.38-19.35.32-38.72c7.18-16.58,11-35.08,12.61-53C186.34,836.25,186.07,836.22,186.05,836.38Z"/><path class="cls-7" d="M183.86,827.27a109.23,109.23,0,0,0-2.24,15.56c0,.18.26.2.31,0a111.29,111.29,0,0,0,2.63-15.52C184.6,827,183.93,826.88,183.86,827.27Z"/><path class="cls-7" d="M165.15,784.22c0-.18-.3-.12-.3,0a40.21,40.21,0,0,0,1.6,10.73c.08.28.49.15.44-.13C166.19,791.33,165.76,787.77,165.15,784.22Z"/><path class="cls-6" d="M184.58,933.48s-1.3-61.48,16.34-92,46.88-46.13,46.88-46.13S236,903.68,184.58,933.48Z"/><path class="cls-7" d="M216.72,880.9c-7.41,10.68-14.78,21-23.86,30.25q5.28-18.85,12.2-37.07c9.89-8.67,19.7-17.66,25.76-29.52a.16.16,0,0,0-.28-.17c-6.53,10.51-15.25,18.92-24.42,27a473.38,473.38,0,0,1,24.55-53.46.4.4,0,0,0-.68-.4,292.62,292.62,0,0,0-15.39,28.06c1.65-6.57,3-13.29,4.67-19.81a.15.15,0,0,0-.28-.08c-3.13,8.22-6.24,17.3-7.25,26.08a312.82,312.82,0,0,0-15.52,42.07c.45-9.22,1-18.4,2-27.58,0-.18-.27-.22-.31,0a149.75,149.75,0,0,0-2.67,31q-3.81,13.74-6.4,27.77c0,.25.33.36.39.11,1-3.92,2-7.8,3.06-11.67.07,0,.14,0,.2-.08,9.46-9.48,18.44-20.28,24.35-32.36A.06.06,0,0,0,216.72,880.9Z"/><path class="cls-7" d="M237.16,830.88c-2,2.12-3.77,4.35-5.67,6.54-1.67,1.93-3.72,3.75-5.07,5.93-.06.08.05.19.13.14,2.28-1.45,4.1-3.78,5.87-5.79a49.58,49.58,0,0,0,5-6.61A.18.18,0,0,0,237.16,830.88Z"/><path class="cls-1" d="M132.19,926l2.22,19.71,6.7,59.59h58.42l6.7-59.59L208.46,926H132.19Z"/><path class="cls-1" d="M132.19,926l2.22,19.71h71.82L208.46,926H132.19Z"/><rect class="cls-1" x="127" y="911.68" width="86.65" height="22.33"/><polygon class="cls-6" points="552.64 249.56 552.64 348.45 728.26 348.45 728.26 371.69 813.93 291.42 735.94 218.74 728.26 226.32 728.26 241.98 560.33 241.98 552.64 249.56"/><g class="cls-8"><polygon points="552.64 249.56 552.64 348.45 728.26 348.45 728.26 371.69 813.93 291.42 735.94 218.74 728.26 226.32 728.26 241.98 560.33 241.98 552.64 249.56"/></g><rect class="cls-6" x="560.33" y="241.98" width="175.62" height="98.88" transform="translate(1296.27 582.84) rotate(-180)"/><polygon class="cls-6" points="735.94 364.11 735.94 218.74 813.93 291.42 735.94 364.11"/><polygon class="cls-1" points="224.87 371.69 232.56 364.11 232.56 348.45 400.5 348.45 408.18 340.86 408.18 241.98 232.56 241.98 232.56 218.74 146.9 299.02 224.87 371.69"/><rect class="cls-1" x="232.56" y="241.98" width="175.62" height="98.88"/><polygon class="cls-1" points="232.56 218.74 232.56 364.11 154.58 291.42 232.56 218.74"/><path class="cls-1" d="M401.55,853.23l.06.26c0,.06,0,.12,0,.19s.06.31.1.52l.05.34a5.77,5.77,0,0,1,.14.74c0,.18.05.35.09.54.06.38.13.8.23,1.26.13.72.29,1.54.44,2.46.25,1.35.53,2.89.86,4.65.09.49.19,1,.28,1.58.14.72.27,1.49.42,2.27s.31,1.75.48,2.69a.06.06,0,0,1,0,0c.11.65.25,1.32.36,2,.36,2,.74,4.21,1.18,6.54a.47.47,0,0,1,0,.17c.46,2.59,1,5.37,1.49,8.29.13.76.28,1.53.44,2.29s.3,1.6.43,2.4c0,0,0,0,0,.06.08.49.18,1,.29,1.52v0c.72,4.06,1.51,8.35,2.34,12.89.29,1.52.56,3.07.84,4.63q.84,4.57,1.72,9.4c.15.74.29,1.49.4,2.25.86,4.67,1.73,9.53,2.65,14.57.11.51.19,1,.29,1.54.43,2.36.87,4.75,1.29,7.19a2.9,2.9,0,0,1,.12.57c.21,1.14.42,2.31.63,3.47.83,4.65,1.69,9.42,2.59,14.28.23,1.2.46,2.42.67,3.66.43,2.46.89,4.94,1.35,7.43.57,3.11,1.14,6.24,1.72,9.42s1.14,6.37,1.73,9.59c.31,1.62.59,3.24.9,4.86.34,1.95.7,3.89,1,5.86H593.84c-20.32-84.44-37.46-152.48-37.46-152.48Z"/><path class="cls-1" d="M426.45,872.23q12.39,66.75,25,133.48h2.28C445,961.11,436,916.6,427,872.06,426.93,871.7,426.4,871.87,426.45,872.23Z"/><path class="cls-7" d="M401.57,853.23s0,.09,0,.26,0,.12,0,.19.06.31.1.52l.05.34a5.77,5.77,0,0,1,.14.74c0,.18.05.35.09.54.08.38.15.8.23,1.26.13.72.29,1.54.44,2.46.27,1.35.53,2.89.86,4.65.09.49.19,1,.28,1.58.14.72.27,1.49.42,2.27s.31,1.75.48,2.69a.06.06,0,0,1,0,0c.11.65.25,1.32.36,2,.38,2,.76,4.21,1.18,6.54a.47.47,0,0,1,0,.17c.48,2.59,1,5.34,1.51,8.25.15.76.28,1.55.42,2.33s.3,1.6.43,2.4c0,0,0,0,0,.06.12.49.19,1,.29,1.52v0c.74,4,1.53,8.35,2.34,12.89.29,1.52.56,3.07.84,4.63q.87,4.57,1.72,9.4c.15.74.29,1.49.4,2.25.88,4.69,1.75,9.55,2.65,14.57.11.51.19,1,.29,1.54.43,2.36.87,4.75,1.29,7.19a2.9,2.9,0,0,1,.12.57c.21,1.14.42,2.31.63,3.47.85,4.65,1.71,9.42,2.59,14.28.23,1.2.46,2.42.67,3.66.45,2.46.89,4.94,1.35,7.43.57,3.11,1.14,6.24,1.72,9.42s1.16,6.37,1.73,9.59c.31,1.62.59,3.24.9,4.86.34,1.95.7,3.89,1.06,5.86h82.5L518.4,938l.23-2.4.27-2.6v0l1.3-13.25h0l1.12-11.48,5.38-55Z"/><path class="cls-1" d="M308,1005.71h177.7c.3-16.36.63-32.18,1-47.11v0c0-.36,0-.73,0-1.09,0,0,20.74-12.28,31.91-21.9a39.44,39.44,0,0,0,5.23-5.19s0,0,0,0v0c7.15-9.11,14.32-44.15,29.15-77.11H335.7C300.32,921.94,302.8,976.94,308,1005.71Z"/><path class="cls-7" d="M529,928.05c-10.58,4.33-20.08,11-29.47,17.4-9.75,6.67-18.69,14.37-28.07,21.52-.36.27,0,.87.38.61,9.89-6.31,20.24-11.86,30-18.36,9.49-6.31,19.37-12.46,27.61-20.4C529.8,928.51,529.44,927.87,529,928.05Z"/><path class="cls-7" d="M530.33,866.92c-1.26,6.77-2.9,13.47-4.36,20.2-1.37,6.31-2.38,12.75-4.05,19-1.62,6-4.19,11.6-8.84,15.92-2.48,2.3-5.2,4.34-7.84,6.44-1.43,1.14-3,2.23-4.44,3.38.19-.89.34-1.8.5-2.72q.68-3.84,1.32-7.7,1.44-8.55,2.74-17.12c1.72-11.23,3.3-22.58,5.64-33.69a.36.36,0,0,0-.7-.18c-2.8,11-5.88,21.91-8.32,33-1.19,5.45-5.46,32.35-5.65,34.26s-.36,3.93-.43,5.91-.45,4.13,0,6c.11.49.71.41.91.08l0,0c1-1.72,1.23-4,1.71-5.85s.93-3.87,1.28-5.82c.12-.7.22-1.42.32-2.14,2.65-1.61,5.11-3.74,7.59-5.54,2.67-1.93,5.39-3.81,7.91-5.94a30.35,30.35,0,0,0,9.67-15.09c1.87-6.26,2.44-12.87,3.16-19.34.86-7.64,1.49-15.32,2.55-22.94C531.09,866.65,530.42,866.46,530.33,866.92Z"/><path class="cls-7" d="M347.56,921.81c2.84-1.48,13.82,1.15,33.83-2.28a22.73,22.73,0,0,0,10.79-4.38c5.22-4.26,9.16-11.09,12.32-16.94,3.46-6.44,7-13.78,8.61-20.93.1-.44.74-.23.66.2-.74,4.14-1.15,8.27-2.25,12.37a74.8,74.8,0,0,1-4.13,11.23c-3,6.79-6.55,14.08-12.64,18.66-6.39,4.82-15.29,5.71-23,6.25-4.48.31-22-.16-24.39-2.66A1,1,0,0,1,347.56,921.81Z"/><path class="cls-7" d="M355.27,863.18c-2,5.74-4,11.47-5.62,17.31s-3.28,11.65-4.77,17.51a341.9,341.9,0,0,0-6.77,35.54,258.45,258.45,0,0,0-2.48,36l.15,9c.12,3,.45,6,.65,9l.29,4.53c.17,1.5.42,3,.62,4.49.45,3,.85,6,1.22,9-3.17-11.72-5.52-23.82-5.9-36.06A199.27,199.27,0,0,1,334.33,933,245.17,245.17,0,0,1,342,897.22,205,205,0,0,1,355.27,863.18Z"/><path class="cls-9" d="M544.16,587.39c74.42,64,127.59,119.51,127.56,145.34-.08,57.88-30.26,71.14-35.73,69.44-57.87-18-97.1-126.3-122.9-191.67C487.49,545.61,522.85,569.05,544.16,587.39Z"/><path class="cls-6" d="M649.81,678.64l-90.42,51.27S520,649.4,506.05,601s5.61-47.32,49.25-10.28S649.81,678.64,649.81,678.64Z"/><path class="cls-10" d="M545.44,605a29.42,29.42,0,0,0,4.5-7.15,30.41,30.41,0,0,0,2.36-7.28c.06-.25.1-.51.14-.78l-.46.51a31.28,31.28,0,0,0-4,6.64A30,30,0,0,0,545.44,605Zm37.12,20.87a32.53,32.53,0,0,0,15.21,7,32.53,32.53,0,0,0-15.21-7ZM502,582.26c.06.47.11,1,.19,1.44a14.53,14.53,0,0,0,2.31.46A23.53,23.53,0,0,0,502,582.26Zm73.78,96.9a30.13,30.13,0,0,0,1.91,8.22,28.57,28.57,0,0,0,3.92,7.47,32.27,32.27,0,0,0-5.83-15.69Zm-62.17-65.85a30.13,30.13,0,0,0,1.91,8.22,28.57,28.57,0,0,0,3.92,7.47,32.27,32.27,0,0,0-5.83-15.69Zm103,68.39a32.83,32.83,0,0,0,15.71-5.82,32.73,32.73,0,0,0-15.71,5.82ZM541.7,653.92a29.37,29.37,0,0,0,8.24-1.89,29.69,29.69,0,0,0,7.47-3.92,29.71,29.71,0,0,0-8.24,1.88A30.75,30.75,0,0,0,541.7,653.92Zm3,6.06c.12,0,.23,0,.34,0s0-.14,0-.2S544.87,659.91,544.75,660Z"/><path class="cls-7" d="M630.77,665c-34.78,24.44-68.63,40.54-75.39,44.6-.32.19-.6-.35-.26-.53,6.84-3.63,43.9-27.63,75.36-44.65C630.85,664.22,631.1,664.75,630.77,665Z"/><path class="cls-11" d="M584.09,715.92l-24.69,14S520,649.4,506,601c-5.13-17.83-5.72-28.95-2.23-34Z"/><path class="cls-6" d="M572.74,889.77H315.55s39.29-245.41,134.09-329.32c11.71-10.37,38.14-8,55.38.55,6.16,3.06,28.26,34,34.57,63.21S573.43,888.9,572.74,889.77Z"/><path class="cls-10" d="M419.93,631.23a29.78,29.78,0,0,0-7.48,3.93,29.37,29.37,0,0,0,8.24-1.89,29.86,29.86,0,0,0,7.47-3.92A29.72,29.72,0,0,0,419.93,631.23Zm125.14,28.52c-.11.06-.21.16-.32.23l.34,0C545.09,659.89,545.07,659.81,545.07,659.75Zm-66.84,38.71a30.53,30.53,0,0,0-7.47,3.92,32.59,32.59,0,0,0,15.7-5.81A29.38,29.38,0,0,0,478.23,698.46ZM443.28,805a29.48,29.48,0,0,0-7.47,4,30.16,30.16,0,0,0,8.24-1.89,29.82,29.82,0,0,0,7.47-4A29.72,29.72,0,0,0,443.28,805Zm-58.85-74.3a30.57,30.57,0,0,0-7.47,3.93,29.38,29.38,0,0,0,8.23-1.89,30.09,30.09,0,0,0,7.48-3.92A29.71,29.71,0,0,0,384.43,730.73ZM331.66,878.94a30,30,0,0,0-7.48,3.93A32.6,32.6,0,0,0,339.89,877,29.74,29.74,0,0,0,331.66,878.94Zm113.61-9.28a29.63,29.63,0,0,0-7.48,3.93A29.72,29.72,0,0,0,446,871.7a29.31,29.31,0,0,0,7.47-4A29,29,0,0,0,445.27,869.66Zm126.57,10.45a33.84,33.84,0,0,0-5.36,1.52,30.21,30.21,0,0,0-7.47,3.93,29.54,29.54,0,0,0,8.23-1.89A38.45,38.45,0,0,0,572,881.5C572,881.06,571.91,880.58,571.84,880.11Zm-53.17-78a30,30,0,0,0-7.48,3.93,32.73,32.73,0,0,0,15.71-5.82A29.3,29.3,0,0,0,518.67,802.13ZM446.43,591.52a29.9,29.9,0,0,0-3.93-7.47,32.83,32.83,0,0,0,5.82,15.71A29.37,29.37,0,0,0,446.43,591.52ZM389.82,879.36a29.69,29.69,0,0,0-3.92-7.47,29.71,29.71,0,0,0,1.88,8.24,30.4,30.4,0,0,0,3.93,7.47A28.69,28.69,0,0,0,389.82,879.36ZM378.54,807.7a29.74,29.74,0,0,0-4-7.46,29.39,29.39,0,0,0,1.89,8.22,29,29,0,0,0,3.95,7.47A30.09,30.09,0,0,0,378.54,807.7Zm97.86-42.59a30.45,30.45,0,0,0-3.93-7.48,32.73,32.73,0,0,0,5.82,15.71A30.09,30.09,0,0,0,476.4,765.11Zm-34.62-91.88a30.14,30.14,0,0,0-3.95-7.47,29.37,29.37,0,0,0,1.89,8.24,29.76,29.76,0,0,0,3.94,7.47A29.71,29.71,0,0,0,441.78,673.23Zm47.39,209.62a27.63,27.63,0,0,0,1.43,6.92h2.29A29.71,29.71,0,0,0,489.17,882.85Zm72.89-53.36a29.29,29.29,0,0,0-3.95-7.47,30.12,30.12,0,0,0,1.89,8.21,29.32,29.32,0,0,0,3.94,7.48A29.57,29.57,0,0,0,562.06,829.49ZM517.52,620.77a29.25,29.25,0,0,0-3.95-7.46,30.89,30.89,0,0,0,1.91,8.22,28.61,28.61,0,0,0,3.93,7.47A29.38,29.38,0,0,0,517.52,620.77Zm-20.21-41.09a29.79,29.79,0,0,0-8.06-2.5,32.68,32.68,0,0,0,15.21,7A30,30,0,0,0,497.31,579.68ZM413.14,772.35a29.35,29.35,0,0,0-8.06-2.51,32.75,32.75,0,0,0,15.23,7A29.46,29.46,0,0,0,413.14,772.35Zm-66.52,67a29.1,29.1,0,0,0-8.06-2.5,29.34,29.34,0,0,0,7.15,4.48,30,30,0,0,0,8.06,2.5A29,29,0,0,0,346.62,839.37Zm173.91,16.7a29.1,29.1,0,0,0-8.06-2.5,29.34,29.34,0,0,0,7.15,4.48,29.65,29.65,0,0,0,8.06,2.5A29.65,29.65,0,0,0,520.53,856.07ZM515,749.78a29.31,29.31,0,0,0-8.06-2.5,28.46,28.46,0,0,0,7.15,4.48,29.93,29.93,0,0,0,8.06,2.52A29.12,29.12,0,0,0,515,749.78Zm-17.69-90.22a29.42,29.42,0,0,0-8.06-2.49,32.53,32.53,0,0,0,15.21,7A29.65,29.65,0,0,0,497.31,659.56Zm-106,25a29.57,29.57,0,0,0-2.5,8.06,32.87,32.87,0,0,0,7-15.23A29.46,29.46,0,0,0,391.31,684.56Zm85.43,148.09a30.22,30.22,0,0,0-2.52,8.07,29.12,29.12,0,0,0,4.5-7.15,30,30,0,0,0,2.5-8.06A29.87,29.87,0,0,0,476.74,832.65ZM529,701.93a29.23,29.23,0,0,0-2.5,8.08,32.87,32.87,0,0,0,7-15.23A29.42,29.42,0,0,0,529,701.93ZM412.13,840.28a29.61,29.61,0,0,0-2.5,8.07,32.84,32.84,0,0,0,7-15.24A30.08,30.08,0,0,0,412.13,840.28Zm-67-71.61a29.73,29.73,0,0,0-2.49,8.09,30.23,30.23,0,0,0,4.48-7.17,29.6,29.6,0,0,0,2.49-8.07A31.11,31.11,0,0,0,345.17,768.67Zm91.1-40a28.74,28.74,0,0,0-2.5,8.09,30.68,30.68,0,0,0,4.48-7.17,30.32,30.32,0,0,0,2.5-8.07A29.8,29.8,0,0,0,436.27,728.69Zm33.49-104.51a30.46,30.46,0,0,0-2.49,8.06,29.73,29.73,0,0,0,4.5-7.15,30.13,30.13,0,0,0,2.49-8.06A30,30,0,0,0,469.76,624.18Z"/><path class="cls-9" d="M416.54,580.79C337.49,639,280.29,690.32,278.37,716.08c-4.29,57.72,24.8,73.22,30.39,71.94,59.05-13.59,106.36-118.61,137-181.84C476.21,543.41,439.18,564.11,416.54,580.79Z"/><path class="cls-6" d="M304.3,663.8l86.29,58S436,644.44,453.52,597.26s-2-47.61-48.34-14S304.3,663.8,304.3,663.8Z"/><path class="cls-10" d="M412.46,635.16a29.45,29.45,0,0,0,8.24-1.89,30,30,0,0,0,7.47-3.92,32.58,32.58,0,0,0-15.71,5.81Zm30.05-51.11a32.68,32.68,0,0,0,5.81,15.71,28.69,28.69,0,0,0-1.89-8.24A29.86,29.86,0,0,0,442.51,584.05ZM321.27,657.91a32.74,32.74,0,0,0,5.82,15.7,29.38,29.38,0,0,0-1.89-8.23A29.9,29.9,0,0,0,321.27,657.91Zm69.38-63.85c.19.63.4,1.26.63,1.88a29.65,29.65,0,0,0,3.94,7.48,29.71,29.71,0,0,0-1.88-8.24c-.31-.8-.65-1.6-1-2.4C391.77,593.2,391.2,593.62,390.65,594.06Zm-32,46a32.68,32.68,0,0,0,15.21,7,32.68,32.68,0,0,0-15.21-7Zm30.14,52.58a32.87,32.87,0,0,0,7-15.23,32.87,32.87,0,0,0-7,15.23Z"/><path class="cls-7" d="M324.32,651.62c32.84,27,65.37,45.61,71.81,50.17.3.21.62-.3.3-.5-6.55-4.14-41.69-30.87-71.78-50.22C324.3,650.85,324,651.36,324.32,651.62Z"/><path class="cls-7" d="M385.06,717.79a48.79,48.79,0,0,1,5.25,2.84c10-16.57,8.1-12.74,18.22-29.22q7.44-12.12,14.88-24.24c5.14-8.4,9.85-17.21,15.44-25.32a.22.22,0,0,1,.39.22c-3.51,8.07-8,15.8-12.29,23.51.91-1.18,1.78-2.38,2.76-3.51,2.19-2.53,4.34-5.06,6.33-7.75.3-.41,1,0,.69.41-1.9,2.57-3.6,5.23-5.29,7.94S427.9,668,426,670.53s-3.78,4.85-5.77,7.2l-.72.87c-2.74,4.82-5.41,9.68-8.26,14.44-10,16.67-19.94,29.61-20.24,29.51-1.18-.4-5.79-3.9-6.25-4.29C384.55,718.06,384.81,717.75,385.06,717.79Z"/><path class="cls-9" d="M317.85,782.5c10.26-24,19.16-56.93-17.65-153.7-5.09-13.39-109.26-2.86-104.56,11.72,5.93,18.36,32.9,88.34,35.52,93.21C253.25,774.79,310.89,798.79,317.85,782.5Z"/><path class="cls-7" d="M324.4,762.86c.72-7.84.88-15.66.84-23.47,0-3.9-.16-7.8-.32-11.69s-.7-7.7-1.23-11.56c-1.13-7.72-2.56-15.42-4.09-23.1s-3.2-15.34-5.2-22.95a178.89,178.89,0,0,1,7.24,22.48,232.68,232.68,0,0,1,4.83,23.16,96.88,96.88,0,0,1,1.23,11.85c.17,3.95.1,7.91,0,11.86A113.94,113.94,0,0,1,324.4,762.86Z"/><path class="cls-9" d="M278.06,589.08C293.45,602.23,305,640.74,305,640.74l-99.7,26.67S191.6,637.67,178,626.85c-4-3.15-24-20.46-44.48-36-23.27-17.65-45.41-39.12-46-42.59-1.21-6.67,8.78-12,27.25-3.8s51.73,30.35,54.07,31.16a17.85,17.85,0,0,0,2.46.33l0,0c1.08-.21,22.39-19.41,35.08-16.69C219.29,562,276.21,585.89,278.06,589.08Z"/><path class="cls-9" d="M196.07,603.9s-48.2-9.87-55.25-17.29-56.17-45.56-57.52-52.2,8.8-12,27.27-3.81,51.71,30.36,54.07,31.17,45.65,2.47,49.6,3.83S196.07,603.9,196.07,603.9Z"/><path class="cls-7" d="M168.14,602.19c-4.92-2.22-9.73-4.64-14.57-7-2.39-1.24-4.77-2.5-7.14-3.82-1.18-.66-2.36-1.32-3.53-2-.59-.34-1.17-.74-1.76-1.11s-1.21-.93-1.67-1.33C131.26,580,123,573,114.85,566s-16.3-14-24.31-21.35a34.05,34.05,0,0,1-5.3-6.39,15.32,15.32,0,0,1-1.78-3.87,7,7,0,0,1,0-4.44,5.63,5.63,0,0,1,3.18-3.05,12.36,12.36,0,0,1,4.1-.85,29.42,29.42,0,0,1,8.07.85,34.56,34.56,0,0,0-8-.09,11.39,11.39,0,0,0-3.7,1.07,4.37,4.37,0,0,0-2.33,2.55c-.68,2.22.52,4.77,1.94,6.85A32.23,32.23,0,0,0,92,543c8.23,6.82,16.51,13.8,24.67,20.8s16.29,14.06,24.23,21.41a38.22,38.22,0,0,0,6.4,4.55c2.27,1.42,4.59,2.77,6.9,4.15Z"/><path class="cls-9" d="M205.57,598.13s-52.8-11-59.84-18.45-56.18-45.56-57.52-52.2,8.79-12,27.26-3.81,51.71,30.36,54.07,31.17,44,6.76,47.94,8.12S205.57,598.13,205.57,598.13Z"/><path class="cls-7" d="M177.92,599.77c-5.9-3-11.67-6.21-17.45-9.43-2.86-1.66-5.71-3.34-8.54-5.08-1.41-.88-2.81-1.77-4.2-2.71a37.73,37.73,0,0,1-4-3.13q-15-12.88-29.93-26L99,540.3,95.31,537a42.19,42.19,0,0,1-3.62-3.59A20.15,20.15,0,0,1,88.75,529a8.93,8.93,0,0,1-1-5.49,5.18,5.18,0,0,1,1.45-2.7,6.76,6.76,0,0,1,2.47-1.49,15.27,15.27,0,0,1,5.21-.75,44.74,44.74,0,0,1,10,1.42A57.61,57.61,0,0,1,125,528.08a61.45,61.45,0,0,0-18.43-6.72,45.38,45.38,0,0,0-9.66-1,13.33,13.33,0,0,0-4.52.81,3.58,3.58,0,0,0-2.49,2.73,6.82,6.82,0,0,0,1,4,19.58,19.58,0,0,0,2.7,3.77c2.09,2.27,4.78,4.36,7.21,6.55l14.92,13c9.91,8.73,19.83,17.45,29.57,26.4a34.76,34.76,0,0,0,3.68,3.14c1.31,1,2.65,1.91,4,2.83,2.72,1.84,5.49,3.63,8.27,5.41Z"/><path class="cls-9" d="M204.84,599.69s-43.6-20.29-50.16-27.21-41.73-30.84-43-37,8.19-11.15,25.39-3.55,37.57,16.71,39.77,17.46,37,12.33,40.63,13.6S204.84,599.69,204.84,599.69Z"/><path class="cls-7" d="M191.55,597.87c-7.48-4.07-14.88-8.26-22.3-12.42q-5.58-3.12-11.08-6.34l-2.76-1.62a26.47,26.47,0,0,1-2.72-1.84c-1.72-1.3-3.37-2.65-5-4-6.55-5.47-13-11.07-19.19-16.91-3.11-2.91-6.2-5.85-9.22-8.87-1.52-1.51-3-3-4.48-4.61a39.25,39.25,0,0,1-4.24-5.12,5.4,5.4,0,0,1-.78-4.06,5.51,5.51,0,0,1,2.54-3.23,15.72,15.72,0,0,1,6.65-2,27.71,27.71,0,0,1,13.18,1.79c7.93,3.24,15.7,6.64,23.52,10s15.69,6.84,23.28,10.29c3.91,1.55,7.93,3,11.92,4.45s8,3,11.9,4.66c-8.3-2-16.46-4.3-24.65-6.84l-23.5-10.13c-7.82-3.31-15.66-6.66-23.51-9.79a25.36,25.36,0,0,0-11.85-1.69,13.28,13.28,0,0,0-5.48,1.57c-1.54,1-1.83,2.05-.92,3.62a39.35,39.35,0,0,0,3.86,4.71c1.42,1.55,2.89,3.07,4.38,4.58,3,3,6,6,9.1,8.89,6.18,5.81,12.34,11.67,18.74,17.23,1.6,1.39,3.21,2.77,4.86,4.07a48.87,48.87,0,0,0,5.22,3.49l10.85,6.69Z"/><path class="cls-9" d="M632.07,797.69c-11.51-23.44-22.14-55.83,9.52-154.4,4.38-13.65,108.95-8.63,105,6.17-5,18.66-28.2,90-30.55,95C696.17,786.59,639.88,813.59,632.07,797.69Z"/><path class="cls-7" d="M624.5,778.43a113,113,0,0,1-4.5-23.21c-.35-3.94-.62-7.89-.67-11.84a98,98,0,0,1,.61-11.91,236.05,236.05,0,0,1,3.6-23.38,177.9,177.9,0,0,1,6.05-22.82c-1.6,7.7-2.83,15.44-4,23.19s-2.14,15.51-2.86,23.28c-.33,3.88-.64,7.76-.62,11.61s.11,7.8.3,11.69C622.79,762.84,623.37,770.64,624.5,778.43Z"/><path class="cls-9" d="M656,600.91c-12.59,15.86-16.94,50.27-16.94,50.27l103.36,12.7s7.73-31.81,19-45c3.28-3.84,19.63-24.66,36.78-43.84,19.46-21.78,37.09-47.09,37-50.62-.09-6.77-10.91-10.08-27.47,1.48s-45,39.69-47.12,40.93a16.34,16.34,0,0,1-2.35.8h0c-1.1,0-25.69-14.77-37.62-9.68C708.5,563.09,657.2,597.43,656,600.91Z"/><path class="cls-9" d="M739.31,599.78s45.43-18.91,50.93-27.54,46.42-55.46,46.47-62.24-10.93-10.08-27.49,1.48-45,39.69-47.11,40.93-44.34,11.17-48,13.25S739.31,599.78,739.31,599.78Z"/><path class="cls-7" d="M766.4,592.76c4.4-3.12,8.66-6.42,13-9.7q3.18-2.5,6.28-5.11c1-.87,2.07-1.75,3.08-2.67.51-.45,1-.95,1.51-1.43a20.33,20.33,0,0,0,1.38-1.62q10.13-12.51,20.19-25.19c6.65-8.49,13.3-16.88,19.77-25.6a33.79,33.79,0,0,0,4-7.28,15.26,15.26,0,0,0,1-4.15,7,7,0,0,0-.88-4.35,5.65,5.65,0,0,0-3.71-2.38,12.24,12.24,0,0,0-4.18,0,29.3,29.3,0,0,0-7.77,2.38,34.61,34.61,0,0,1,7.84-1.62,11.39,11.39,0,0,1,3.84.34,4.35,4.35,0,0,1,2.77,2.06c1.1,2.05.4,4.78-.59,7.09a32.28,32.28,0,0,1-4.08,6.66c-6.78,8.27-13.56,16.7-20.24,25.13s-13.3,16.91-19.68,25.65a39.51,39.51,0,0,1-5.41,5.69c-2,1.83-4,3.6-6,5.39Z"/><path class="cls-9" d="M728.89,595.93s49.71-20.92,55.2-29.55,46.42-55.46,46.47-62.24-10.92-10.08-27.49,1.47S758.13,545.3,756,546.55s-41.88,15.05-45.5,17.14S728.89,595.93,728.89,595.93Z"/><path class="cls-7" d="M756.33,592.26c5.22-4.07,10.28-8.33,15.33-12.6,2.49-2.17,5-4.37,7.41-6.62,1.21-1.13,2.42-2.28,3.6-3.46a36.08,36.08,0,0,0,3.32-3.84q12.27-15.53,24.42-31.2l12-15.76,3-4a39.83,39.83,0,0,0,2.87-4.21,20.14,20.14,0,0,0,2.06-4.83,8.92,8.92,0,0,0-.08-5.59,5.1,5.1,0,0,0-1.94-2.36,6.78,6.78,0,0,0-2.71-1,15.27,15.27,0,0,0-5.25.27,44.64,44.64,0,0,0-9.52,3.29,57.81,57.81,0,0,0-16.26,11.4,61.22,61.22,0,0,1,16.8-10.13,45.26,45.26,0,0,1,9.29-2.8,13.41,13.41,0,0,1,4.59-.08,3.61,3.61,0,0,1,3,2.21,6.84,6.84,0,0,1-.18,4.15,19.45,19.45,0,0,1-1.93,4.21c-1.62,2.64-3.85,5.2-5.82,7.82l-12.15,15.64c-8.06,10.48-16.13,20.93-24,31.58a34.12,34.12,0,0,1-3,3.78c-1.1,1.2-2.24,2.38-3.4,3.54-2.32,2.33-4.7,4.62-7.09,6.9Z"/><path class="cls-9" d="M729.89,597.32s38.92-28.25,44-36.29S809,522.77,809,516.45s-10.17-9.38-25.59,1.38-33.69,23.58-35.7,24.74-33.92,19.18-37.29,21.12S729.89,597.32,729.89,597.32Z"/><path class="cls-7" d="M742.6,593c6.56-5.42,13-11,19.51-16.46q4.88-4.12,9.66-8.34l2.4-2.12a25.39,25.39,0,0,0,2.31-2.33c1.45-1.6,2.81-3.24,4.17-4.89,5.38-6.62,10.61-13.35,15.59-20.27,2.5-3.45,5-6.93,7.36-10.47,1.2-1.77,2.38-3.55,3.52-5.38a40.83,40.83,0,0,0,3.18-5.84,5.37,5.37,0,0,0,0-4.13,5.53,5.53,0,0,0-3.11-2.69,16,16,0,0,0-6.92-.72,27.73,27.73,0,0,0-12.59,4.28c-7.17,4.7-14.14,9.52-21.17,14.34s-14.09,9.71-20.88,14.55c-3.54,2.26-7.22,4.44-10.86,6.64S727.53,553.66,724,556c7.76-3.57,15.34-7.37,22.89-11.44L768,530.16c7-4.74,14.1-9.54,21.21-14.11a25.24,25.24,0,0,1,11.31-3.92,13.07,13.07,0,0,1,5.67.49c1.71.67,2.19,1.67,1.6,3.37a38.8,38.8,0,0,1-2.89,5.37c-1.1,1.79-2.25,3.57-3.42,5.33-2.34,3.53-4.77,7-7.23,10.47-5,6.89-9.89,13.81-15.1,20.5-1.31,1.66-2.62,3.33-4,4.92A48.9,48.9,0,0,1,770.7,567l-9.38,8.65Z"/><path class="cls-7" d="M443.05,574.24c7.45,13.49,18.22,25.28,30.91,33,6.41,3.88,13.42,6.89,20.75,7.24,3.73.18,7.88-.22,11.09-2.34a22.46,22.46,0,0,0,7.2-8.82,45.28,45.28,0,0,0,4-12.59,110.88,110.88,0,0,0,1.5-14.93c0-.19.27-.15.27,0-.14,4.74.1,9.5-.38,14.21a48.8,48.8,0,0,1-2.65,12.22,27.8,27.8,0,0,1-6.2,10,16.78,16.78,0,0,1-10.75,4.69c-7.75.7-15.54-1.79-22.5-5.6a75.86,75.86,0,0,1-18.51-14.44,84.22,84.22,0,0,1-15.09-22.44A.23.23,0,1,1,443.05,574.24Z"/><path class="cls-9" d="M501.23,603.91c-14.68,4.1-41-17.52-51.82-35.47-.73-1.24.67-14.58,1.6-30.87.52-9.89.87-20.91.47-31-.09-2.07,63.85,12.83,63.85,12.83s-5.37,21.38-4.55,39a22,22,0,0,0,.6,4.12c0,.19.09.42.12.68C513.09,571,515.42,599.94,501.23,603.91Z"/><path class="cls-7" d="M505,563.75a38.4,38.4,0,0,0,6.47-.6c0-.27-.08-.48-.12-.69a21.74,21.74,0,0,1-.59-4.12c-.81-17.55,4.55-38.94,4.55-38.94s-51.91-12.09-62.12-13C455.63,518,467.69,564.42,505,563.75Z"/><path class="cls-9" d="M437.09,435.3C432.83,458.37,452,521.43,469.45,534c25.36,18.19,63.23,15.89,77.76-13.76,14.09-28.75-12.29-110.49-31.49-121.52C487.44,382.46,443.38,401.22,437.09,435.3Z"/><path class="cls-7" d="M495.2,464.14c-.09-.15-.26.3-.2.48,1.53,4.16,2.57,9.2-.78,11.86-.1.08,0,.29.12.22C498.77,474.51,497.31,467.84,495.2,464.14Z"/><path class="cls-7" d="M490,461c-7,1.73-3,15.5,3.46,13.9S495.8,459.53,490,461Z"/><path class="cls-7" d="M521,455.8c0-.17.39.11.43.28,1.1,4.31,3.07,9.05,7.34,9.36.13,0,.18.22,0,.25C523.92,466.38,521.35,460.05,521,455.8Z"/><path class="cls-7" d="M523.53,450.25c6.71-2.5,11.21,11.11,5,13.42S517.91,452.34,523.53,450.25Z"/><path class="cls-7" d="M483.86,462.13a56,56,0,0,0,5.42-2.29c2.07-.9,3.81-1.41,5.08-3.39a3,3,0,0,0-.71-3.63c-2.27-1.77-5.07-1.29-7.61-.31a11,11,0,0,0-6.05,5.16C478.57,460.15,481.33,462.94,483.86,462.13Z"/><path class="cls-7" d="M524.13,435.56a54.94,54.94,0,0,1-5.88.22c-2.25.06-4,.34-6-.92a3,3,0,0,1-.9-3.59c1.3-2.56,4.05-3.32,6.76-3.5a11,11,0,0,1,7.67,2.1C528.08,431.52,526.76,435.22,524.13,435.56Z"/><path class="cls-7" d="M512.28,507.75c1.3.69,2.72,1.74,4.28,1.41a11.69,11.69,0,0,0,4.21-2.42.16.16,0,0,1,.25.16,5.92,5.92,0,0,1-4.66,3.89c-2,.24-3.44-1.12-4.43-2.72C511.79,507.84,512.09,507.66,512.28,507.75Z"/><path class="cls-7" d="M508.82,500.35c4.85-3.79,12.11-5.16,16.73-5.92.48-.22.64-1.34.59-1.83v0l-3-9.06c1.38.24,8.32,1.2,7.72-.49-5-14-10.65-29.54-18.62-42.39a.41.41,0,0,0-.75.34c4.32,13.63,11,26.41,15.55,40-2.18-.17-5.77-.61-7.48-.07-.43.28,3.63,9.43,3.9,11,0,0-9.49,0-15.28,6.58C506.69,500.2,506.51,502.15,508.82,500.35Z"/><path class="cls-7" d="M530.53,412c-18.27,22.14-56.19,7.48-56.19,7.48-2.22,19.91-20.61,22.88-20.61,22.88s6.59,39.81-3.58,42.65c-15.5,4.35-35.37-46.81-33.46-58.53S431,408.34,431,408.34s-1.34-8.28,6.12-18.34c8.25-11.12,47.85-10.7,47.85-10.7a35.22,35.22,0,0,1,5.72-15.3c3.28-4.91,9.26-5.83,14.13-2.69a23.94,23.94,0,0,0-1,10.57c1.41,11.8,10.62,9.14,7.6-1.06a16.62,16.62,0,0,0-6.62-9.51c2.63-8,9.43-12.3,15-10C529.81,355.45,545.74,393.61,530.53,412Z"/><path class="cls-7" d="M448.05,430.8a.51.51,0,1,0-.88.52c3.57,7.32,7.22,14.72,9,22.78s3.23,28.65-8.59,29.56a.46.46,0,0,0,0,.91c8.37,1.42,10.74-9.49,11.27-16.73C459.8,454.7,454.49,441.89,448.05,430.8Z"/><path class="cls-7" d="M519,351c-.08-.06-.16.07-.08.13,16.1,11.61,25.08,32.12,19,51.73-7.69,24.67-39.13,19.22-58.14,15.1-.93-.2-1.37,1.2-.43,1.43,18.63,4.53,50.33,9.23,59.17-13.72C546.4,385.18,536.69,362.47,519,351Z"/><path class="cls-7" d="M434.24,407.36c-14.75,6-23.55,16.3-20.42,32.83s14.37,31.59,28.7,40a.62.62,0,0,0,.65-1.06c-10.56-7.64-19.45-16.83-24.55-29-3.77-9-5.64-19.75-1.18-28.91,3.21-6.59,10.93-10.16,17.09-13.31C434.89,407.71,434.59,407.22,434.24,407.36Z"/><path class="cls-7" d="M490.43,381.25c-22.3-6.18-63-6.4-59.35,26.83,0,.27.5.23.48-.05-1.87-33.8,36.6-29.43,58.72-25.86C490.81,382.26,490.94,381.39,490.43,381.25Z"/><path class="cls-9" d="M453.85,485.89s-17.32-18.82-26.05-12.38,6.25,35.1,17.87,37.73,14.26-8.08,14.26-8.08Z"/><path class="cls-7" d="M432.3,481.62a.15.15,0,0,0,0,.3c8.18,2.1,13.23,8.75,17.1,15.82-2.7-2.56-6.05-3.71-9.53-.44-.18.17.06.46.27.38,3.09-1.11,5.45-.86,7.94,1.39a33.35,33.35,0,0,1,4.48,5.68c.46.64,1.66.1,1.29-.66l-.09-.17C452.61,494,443.05,481.18,432.3,481.62Z"/><path class="cls-1" d="M479.44,272.88a13.9,13.9,0,1,0,19.63-1.22A13.91,13.91,0,0,0,479.44,272.88Z"/><path class="cls-10" d="M402.73,190.68a66.18,66.18,0,1,0,66.18-66.18A66.18,66.18,0,0,0,402.73,190.68Z"/><path class="cls-12" d="M402.73,190.68c-.23,26.18,16.62,51.27,40.92,61,43.24,17.82,91.09-14.19,90.94-61,.14-46.79-47.7-78.79-90.94-61-24.3,9.72-41.16,34.8-40.92,61Zm0,0c-.36-26.25,16.45-51.47,40.78-61.32,43.62-18.21,92,14.07,92.08,61.32S487.13,270.21,443.51,252c-24.33-9.85-41.14-35.07-40.78-61.32Z"/><path class="cls-1" d="M488.4,311.38a7.74,7.74,0,1,0,10.93-.68A7.74,7.74,0,0,0,488.4,311.38Z"/><path class="cls-1" d="M470,203.93a8.54,8.54,0,0,0-1.1-4.45,12.81,12.81,0,0,0-2.83-3.25,25.29,25.29,0,0,0-3.83-2.56q-2.08-1.15-4.18-2.41a39.41,39.41,0,0,1-4.51-3.25,19.55,19.55,0,0,1-3.45-3.77,16.52,16.52,0,0,1-2.26-4.66,20.37,20.37,0,0,1-.78-5.92,20.86,20.86,0,0,1,1.94-9.37,18.89,18.89,0,0,1,5-6.44,19.9,19.9,0,0,1,7-3.67,27.67,27.67,0,0,1,7.85-1.15,27,27,0,0,1,6.92.89,24.39,24.39,0,0,1,6.23,2.62,22,22,0,0,1,5.13,4.24,20.21,20.21,0,0,1,3.62,5.76l-9.12,6.29a31.4,31.4,0,0,0-2-2.89,16.66,16.66,0,0,0-2.72-2.72,14.19,14.19,0,0,0-3.41-2,10.86,10.86,0,0,0-4.19-.78,12.54,12.54,0,0,0-3.72.57,9.2,9.2,0,0,0-3.19,1.73,8.81,8.81,0,0,0-2.2,2.83,8.65,8.65,0,0,0-.84,3.87,9.08,9.08,0,0,0,1.52,5.19,16.68,16.68,0,0,0,3.72,3.92,31.57,31.57,0,0,0,4.5,2.88c1.54.81,2.83,1.52,3.88,2.15q5.24,3,6.91,7.12a24.08,24.08,0,0,1,1.68,9.22Zm-.32,24.4V213.88h11.63v14.45Z"/></svg>