<svg id="Слой_1" data-name="Слой 1" xmlns="http://www.w3.org/2000/svg" viewBox="0 0 923 1000"><defs><style>.cls-1{fill:#ececec;}.cls-2{fill:#4a148c;}.cls-3{fill:#ffc800;}.cls-4{fill:#a8a8a8;}.cls-5{fill:#fff;}.cls-6{fill:#dcdcdc;}.cls-7{fill:#306;}.cls-8{fill:#e55f4e;}.cls-9{opacity:0.1;}</style></defs><path class="cls-1" d="M227.68,256.1c0-3.54.48-13,.48-17,0-17.24-6.14-25-22.2-25.5-7.55-.48-12-5-12-11.33s4.49-10.87,12-11.34c16.06-.71,22.2-8.26,22.2-25.73,0-4-.48-13.46-.48-17,0-22.9,9.68-37.54,46.28-45.57,7.31-1.65,13,2.84,13,9.68a9.93,9.93,0,0,1-6.61,9.68c-22.9,7.08-26.21,14.4-26.21,30.46,0,4.72.48,12.51.48,17.47,0,18.41-9,27.39-24.56,32.35,15.82,5.19,24.56,13.92,24.56,32.34,0,5-.48,12.75-.48,17.47,0,16,3.31,23.38,26.21,30.46a9.93,9.93,0,0,1,6.61,9.68c0,6.85-5.67,11.33-13,9.68C237.36,293.88,227.68,279.24,227.68,256.1Z"/><path class="cls-1" d="M366,148.21c0,3.54-.47,13-.47,17,0,17.47,6.38,25,22.43,25.73,7.32.47,11.81,5,11.81,11.34s-4.49,10.85-11.81,11.33c-16.05.47-22.43,8.26-22.43,25.5,0,4,.47,13.45.47,17,0,23.14-9.68,37.78-46.27,45.81-7.32,1.65-13-2.83-13-9.68a9.8,9.8,0,0,1,6.84-9.68c22.67-7.08,26-14.41,26-30.46,0-4.72-.47-12.51-.47-17.47,0-18.42,9-27.39,24.56-32.34-15.83-5.2-24.56-13.94-24.56-32.35,0-5,.47-12.75.47-17.47,0-16.06-3.3-23.38-26-30.46a9.8,9.8,0,0,1-6.84-9.68c0-6.84,5.66-11.33,13-9.68C356.35,110.67,366,125.31,366,148.21Z"/><rect class="cls-2" x="-20.9" y="25.5" width="634.55" height="400.35"/><rect class="cls-3" x="-20.9" y="25.5" width="634.55" height="35.26"/><path class="cls-4" d="M12.2,43.39a8.88,8.88,0,1,1-8.87-8.88A8.87,8.87,0,0,1,12.2,43.39Z"/><circle class="cls-1" cx="39.57" cy="43.39" r="8.87"/><path class="cls-5" d="M84.68,43.39a8.88,8.88,0,1,1-8.87-8.88A8.87,8.87,0,0,1,84.68,43.39Z"/><rect class="cls-1" x="16.93" y="130.91" width="18.85" height="6.89"/><rect class="cls-1" x="49.52" y="130.91" width="247.79" height="6.89"/><rect class="cls-1" x="465.46" y="130.91" width="74.27" height="6.89"/><rect class="cls-3" x="308.9" y="130.91" width="35.81" height="6.89"/><rect class="cls-1" x="366.2" y="223.06" width="35.81" height="6.89"/><rect class="cls-4" x="355.32" y="130.91" width="100.88" height="6.89"/><rect class="cls-1" x="35.78" y="149.34" width="18.85" height="6.89"/><rect class="cls-4" x="67.9" y="149.34" width="141.92" height="6.89"/><rect class="cls-4" x="304.01" y="223.06" width="53.68" height="6.89"/><rect class="cls-4" x="49.52" y="204.63" width="135.56" height="6.89"/><rect class="cls-3" x="67.9" y="167.77" width="95.1" height="6.89"/><rect class="cls-4" x="332.84" y="186.2" width="95.1" height="6.89"/><rect class="cls-4" x="173.55" y="167.77" width="183.4" height="6.89"/><rect class="cls-3" x="49.52" y="223.06" width="242.22" height="6.89"/><rect class="cls-3" x="348.5" y="149.34" width="137.22" height="6.89"/><rect class="cls-1" x="218.73" y="149.34" width="121.98" height="6.89"/><rect class="cls-1" x="372.31" y="167.77" width="41.19" height="6.89"/><rect class="cls-1" x="35.78" y="167.77" width="18.85" height="6.89"/><rect class="cls-4" x="16.93" y="186.2" width="18.85" height="6.89"/><rect class="cls-1" x="49.52" y="186.2" width="111.42" height="6.89"/><rect class="cls-1" x="67.9" y="241.49" width="111.42" height="6.89"/><rect class="cls-3" x="255.6" y="259.92" width="123.69" height="6.89"/><rect class="cls-3" x="188.36" y="241.49" width="143.27" height="6.89"/><rect class="cls-1" x="117.06" y="259.92" width="128.79" height="6.89"/><rect class="cls-4" x="67.9" y="259.92" width="41.89" height="6.89"/><rect class="cls-4" x="391.26" y="259.92" width="32.26" height="6.89"/><rect class="cls-1" x="192.75" y="204.63" width="151.96" height="6.89"/><rect class="cls-3" x="352.49" y="204.63" width="115.6" height="6.89"/><rect class="cls-3" x="172.27" y="186.2" width="151.81" height="6.89"/><rect class="cls-1" x="16.93" y="204.63" width="18.85" height="6.89"/><rect class="cls-1" x="16.93" y="223.06" width="18.85" height="6.89"/><rect class="cls-4" x="35.78" y="241.49" width="18.85" height="6.89"/><rect class="cls-4" x="342.34" y="241.49" width="91.63" height="6.89"/><rect class="cls-4" x="359.94" y="275.2" width="91.63" height="6.89"/><rect class="cls-1" x="35.78" y="259.92" width="18.85" height="6.89"/><rect class="cls-1" x="16.93" y="275.36" width="18.85" height="6.89"/><rect class="cls-1" x="49.52" y="275.36" width="221.06" height="6.89"/><rect class="cls-1" x="466.93" y="275.36" width="71.33" height="6.89"/><rect class="cls-3" x="282.38" y="275.36" width="62.33" height="6.89"/><rect class="cls-1" x="35.78" y="293.79" width="18.85" height="6.89"/><rect class="cls-4" x="67.9" y="293.79" width="141.92" height="6.89"/><rect class="cls-4" x="49.52" y="349.08" width="135.56" height="6.89"/><rect class="cls-3" x="67.9" y="312.22" width="95.1" height="6.89"/><rect class="cls-4" x="173.55" y="312.22" width="183.4" height="6.89"/><rect class="cls-3" x="49.52" y="367.51" width="242.22" height="6.89"/><rect class="cls-3" x="348.5" y="293.79" width="137.22" height="6.89"/><rect class="cls-1" x="218.73" y="293.79" width="121.98" height="6.89"/><rect class="cls-1" x="366.2" y="312.22" width="41.19" height="6.89"/><rect class="cls-1" x="35.78" y="312.22" width="18.85" height="6.89"/><rect class="cls-4" x="16.93" y="330.65" width="18.85" height="6.89"/><rect class="cls-1" x="49.52" y="330.65" width="111.42" height="6.89"/><rect class="cls-4" x="337.19" y="330.65" width="111.42" height="6.89"/><rect class="cls-1" x="192.75" y="349.08" width="208.66" height="6.89"/><rect class="cls-3" x="172.27" y="330.65" width="151.81" height="6.89"/><rect class="cls-1" x="16.93" y="349.08" width="18.85" height="6.89"/><path class="cls-3" d="M28.57,112.77a1.64,1.64,0,0,1-1.13,2.8,1.72,1.72,0,0,1-1.19-.47L19,107.73a.2.2,0,0,1-.13-.16l-.08,0a.9.9,0,0,1-.08-.21.13.13,0,0,1-.08-.1s0-.13-.05-.15,0-.11,0-.13v-.18c0-.06,0-.08,0-.16s0-.1,0-.13v-.18s0-.08,0-.1a1.6,1.6,0,0,0,.05-.21s0,0,0,0a2.6,2.6,0,0,1,.13-.24,0,0,0,0,1,.05-.05.52.52,0,0,1,.16-.18l7.27-7.37a1.66,1.66,0,0,1,2.32,0,1.64,1.64,0,0,1,0,2.33l-6.13,6.18Z"/><path class="cls-3" d="M35.17,113.6l6.34-15.09a1.42,1.42,0,0,1,1.88-.74,1.39,1.39,0,0,1,.73,1.83l-6.34,15.12a1.45,1.45,0,0,1-1.32.85,1.37,1.37,0,0,1-.52-.1A1.4,1.4,0,0,1,35.17,113.6Z"/><path class="cls-3" d="M56.64,107.52a0,0,0,0,1,0,0,1,1,0,0,1-.18.18l-7.27,7.37a1.68,1.68,0,0,1-2.33,0,1.64,1.64,0,0,1,0-2.33L53,106.59l-6.13-6.18a1.64,1.64,0,0,1,0-2.33,1.67,1.67,0,0,1,2.33,0l7.27,7.37a1,1,0,0,1,.18.18s0,.05,0,.05.1.16.13.24,0,0,0,0a1.6,1.6,0,0,0,.08.23s0,0,0,.08v.18s0,.1,0,.13,0,.1,0,.13v.21s0,0,0,0,0,.18-.08.23,0,0,0,.08S56.69,107.42,56.64,107.52Z"/><polygon class="cls-6" points="-126.26 993.76 191.17 993.76 127.88 625.6 -109.48 625.6 -126.26 993.76"/><path class="cls-7" d="M208.15,771.65c-2.84,0-16.1.14-35.5.37-6.42-11.78-13.74-32.57-9.4-61.83.75-4.84-12.23,22.88-8.64,62-37.48.39-88.47.9-133,.95-.35-16.47-1.46-31.71-1.46-31.71a176,176,0,0,1-8.23,31.75c-6.09,0-12,0-17.78,0,2.1-25.53-1.11-70.1-1.11-70.1a219.84,219.84,0,0,1-24.2,70c-28.26-.25-46.84-.9-45.61-2.16,44.2-45.89,13.73-73,27.15-113.73,16.12-48.81,61-56,60.78-92.85-.07-29.94-2.31-84.3,38-95.42,0,0,33.53-33.29,84-14.12,62.4,23.65,34.55,115.66,38.27,134.49,5.29,26.9,18.48,36.51,27.59,67.22,9.31,31.08-6.22,51.46-8.56,72.43S215.24,771.68,208.15,771.65Z"/><path class="cls-7" d="M-77.84,764.3c6-8.22,11.31-16.89,14.54-26,3.52-9.08,2.4-18.44.76-28.11s-3.66-19.45-4.28-29.64.21-20.8,4.07-30.78A69.82,69.82,0,0,1-44.9,623.38C-37.21,616-28.46,610-20,604.16s16.7-11.8,23.07-19.41a53.35,53.35,0,0,0,12.16-26.62,49,49,0,0,1-9.09,28.71c-6,8.63-14.24,15.54-22.36,21.91s-16.29,12.54-23.18,19.58-12.4,15-15.51,23.87a73.32,73.32,0,0,0-3.83,27.85c.28,9.59,1.87,19.24,2.92,29.19a94.08,94.08,0,0,1,.55,15.26,42.59,42.59,0,0,1-4.05,15.17A87.06,87.06,0,0,1-77.84,764.3Z"/><path class="cls-7" d="M167.73,489.58c4.56,11.41,6,23.73,7.47,35.82,1.23,12.16,1.83,24.36,2.29,36.51l.81,18.14a85.37,85.37,0,0,0,2.35,17.36c2.78,11.24,9.1,21.1,16.28,31.13a137.13,137.13,0,0,1,9.81,16.11,81.23,81.23,0,0,1,6.47,18,120.06,120.06,0,0,1,2.19,18.71,74.31,74.31,0,0,1-1.68,18.89c-1.34,6.23-3.39,12.1-5.12,17.87a88.82,88.82,0,0,0-3.5,17.53c-1.31,11.63,4.83,23.34,14.55,31.08-10.85-6.34-18.58-18.23-18.55-31.15A87.9,87.9,0,0,1,203.33,717c1.31-6.1,3.11-11.92,4-17.73,1.9-11.5.73-23.54-1.85-34.88a79.48,79.48,0,0,0-6.13-16.24A127.15,127.15,0,0,0,189.87,633a180.43,180.43,0,0,1-10-15.86,72,72,0,0,1-6.91-17.87,91.86,91.86,0,0,1-2-18.79c-.17-6.15-.09-12.24,0-18.33.1-12.17.39-24.31.15-36.41C171,513.56,170.44,501.46,167.73,489.58Z"/><path class="cls-8" d="M87.27,710.27c20.21,88,61.11,199.4,92.71,221.87,25.49,18.14,159.2,50.07,166.66,50.88,18.46,1.86,54.92-128.54,35.78-133.84-24.11-6.68-138.71-10.24-145.23-16.94-6.76-7-48.47-63.47-95.68-128.89C108.92,658.14,74.73,655.67,87.27,710.27Z"/><path class="cls-8" d="M331.82,975.85c2.2,1.12,33.42,16.82,52.73,22.42,14.4,4.17,56.19,15.08,62.36-.32,4.22-10.5-19.59-19.81-36.29-26.76-8.79-3.67-19.63-12.87-17-18.53,4.53-9.88,27.18,0,42.06,8.7,28.8,16.73,67.15,46.84,84.74,32.23C527,988.07,519.3,978,508,968.16c18.32,11.49,37.87,20.91,45.49,15.07,4.38-3.33,4.58-7.89,2.14-13.11,5.66,1.84,10.66,1.48,14.15-2.2,6-6.24,3.05-15.44-3.47-24.87a7.12,7.12,0,0,0,5.42-3.56c12.61-19.23-50.52-74.45-72.36-79.62-64.24-15.27-132.58-9.7-132.58-9.7C341.57,870.33,331.77,975.81,331.82,975.85Z"/><path class="cls-7" d="M426.29,916.72a109.12,109.12,0,0,1,42.84,16.49c16.29,10.75,27.09,23.33,40.76,36,.36.33-.15.9-.51.57-6.51-6-33.49-28.66-40.46-33.81a103.88,103.88,0,0,0-42.69-19C426.06,917,426.12,916.69,426.29,916.72Z"/><path class="cls-7" d="M438.26,889.46c16.88,4.61,34.18,9.28,49.85,17.27,17.15,8.74,30.57,23,43.77,36.7q11.88,12.35,23.21,25.22c.32.36-.16.93-.5.57Q534.51,948,513.16,928a137.3,137.3,0,0,0-45.47-28.65c-9.66-3.68-19.59-6.62-29.5-9.54C438,889.7,438.07,889.41,438.26,889.46Z"/><path class="cls-7" d="M456.29,865.62c16.41,3.37,30.72,6.25,45.24,15,19.23,11.64,37.8,31.25,44.31,38.2,7.2,7.68,14.13,15.59,20.94,23.61.28.32-.29.81-.57.49a545.73,545.73,0,0,0-50.05-49.56c-8.46-7.35-17.65-13.74-28-18.19s-21.14-6.89-31.91-9.48C456.2,865.72,456.22,865.61,456.29,865.62Z"/><path class="cls-3" d="M236.21,819.42,113,814.19S90.57,753.12,82.34,698.9s38-34.76,83.71,23.63S236.21,819.42,236.21,819.42Z"/><path class="cls-5" d="M115.79,705.68a5.47,5.47,0,0,1-2.35,1.19,4.74,4.74,0,0,1-4.39-1.36,6.15,6.15,0,0,0-6.78-1.17,6,6,0,0,0-2.52,2.22c-.57.85-1.19,1.64-1.7,2.55.9-.51,1.7-1.14,2.55-1.7a5.63,5.63,0,0,1,2.35-1.25,4.67,4.67,0,0,1,4.4,1.13,6.22,6.22,0,0,0,6.71,1.42,6.06,6.06,0,0,0,2.58-2.15c.57-.86,1.2-1.65,1.71-2.58C117.44,704.51,116.64,705.14,115.79,705.68Zm6.75,57c-.2-1-.31-2-.59-3-.29,1-.4,2-.63,3a5.6,5.6,0,0,1-.76,2.55,4.64,4.64,0,0,1-3.92,2.3,6,6,0,0,0-6.06,7.12c.2,1,.34,2,.62,3,.28-1,.4-2,.6-3a5.35,5.35,0,0,1,.85-2.5,4.7,4.7,0,0,1,4-2.15,6.15,6.15,0,0,0,5.65-4A6,6,0,0,0,122.54,762.69Zm87.58,45.85a1.6,1.6,0,0,1-.11.25,4.61,4.61,0,0,1-3.94,2.3,6.24,6.24,0,0,0-5.73,3.77,5.47,5.47,0,0,0-.4,3l1.34.05a5.44,5.44,0,0,1,.79-2.21,4.69,4.69,0,0,1,4.06-2.18,6.17,6.17,0,0,0,4.84-2.47v0C210.69,810.24,210.41,809.39,210.12,808.54ZM159,813.78a5.63,5.63,0,0,1-2.35,1.25,4.58,4.58,0,0,1-4.37-1.16,6.19,6.19,0,0,0-6.72-1.39,6,6,0,0,0-2.6,2.16,8.79,8.79,0,0,1-.57.79l1.42.06a5.83,5.83,0,0,1,2.35-1.17,4.78,4.78,0,0,1,4.39,1.34,1.77,1.77,0,0,0,.17.14l7.74.31a6.8,6.8,0,0,0,1.39-1.47c.57-.86,1.19-1.65,1.71-2.56C160.65,812.59,159.85,813.22,159,813.78Zm22.57-63.87a5.36,5.36,0,0,1-2.46-.83A4.65,4.65,0,0,1,177,745a6,6,0,0,0-7.31-5.87c-1,.23-2,.34-3,.62,1,.29,2,.4,3,.6a5.94,5.94,0,0,1,2.52.77,4.68,4.68,0,0,1,2.3,3.94,6.13,6.13,0,0,0,3.77,5.72,5.73,5.73,0,0,0,3.34.32c1-.2,2-.32,3-.6C183.59,750.25,182.59,750.13,181.57,749.91Z"/><path class="cls-7" d="M108.75,787.43c26.66-.68,53.4.51,80.05,2.21,7.53.49,15.07,1.14,22.57,2,.22,0,.24.34,0,.34-13.32.06-26.64-.43-40-.83s-26.73-.93-40.07-1.72c-7.54-.44-15.07-.87-22.59-1.47C108.44,787.91,108.42,787.44,108.75,787.43Z"/><path class="cls-7" d="M219.62,818.72,113,814.18S90.56,753.11,82.34,698.9C78.85,675.82,85.2,666.1,97.17,667h0Z"/><path class="cls-3" d="M191.34,1005.54H-110s65.44-252.73,126-323.89C17.4,680,18.8,678.47,20.2,677c.29-.34.53-.58.82-.87a64.52,64.52,0,0,1,16.19-12.51c1.06-.58,2.12-1.11,3.23-1.6,23.33-10.72,48-1.83,65.74,13.38,5.65,4.83,69.51,87.92,75.16,119.6,4.88,28-14,58-14,58Z"/><path class="cls-5" d="M56.76,739.16a5.39,5.39,0,0,1-2.46-.82,4.69,4.69,0,0,1-2.16-4.06,6,6,0,0,0-7.31-5.87c-1,.2-2,.35-3,.63,1,.25,2,.4,3,.59a5.76,5.76,0,0,1,2.52.77,4.6,4.6,0,0,1,2.3,3.91,6.25,6.25,0,0,0,3.77,5.76,5.75,5.75,0,0,0,3.34.31c1-.2,2-.31,3-.6C58.78,739.5,57.78,739.36,56.76,739.16Zm55.6,198.89a5.65,5.65,0,0,1-2.46-.85,4.68,4.68,0,0,1-2.16-4.05,6,6,0,0,0-7.31-5.84c-1,.2-2,.31-3,.59,1,.29,2,.4,3,.6a6.5,6.5,0,0,1,2.52.76,4.66,4.66,0,0,1,2.3,4,6.2,6.2,0,0,0,3.77,5.72,6,6,0,0,0,3.34.34c1-.22,2-.34,3-.62C114.38,938.37,113.38,938.25,112.36,938.05ZM-22.08,822.38a5.44,5.44,0,0,1-2.47-.83,4.74,4.74,0,0,1-2.18-4,6.1,6.1,0,0,0-3.94-5.64,6.18,6.18,0,0,0-3.35-.23c-1,.2-2,.34-3,.6,1,.28,2,.42,3,.62a5.59,5.59,0,0,1,2.52.76,4.68,4.68,0,0,1,2.3,3.92,6.15,6.15,0,0,0,3.77,5.75,5.73,5.73,0,0,0,3.35.31c1-.19,2-.34,3-.59C-20.07,822.72-21.06,822.57-22.08,822.38ZM96.68,1004.6a5.65,5.65,0,0,1-2.49-.83,4.75,4.75,0,0,1-2.16-4,6,6,0,0,0-7.31-5.87c-1,.2-2,.34-3,.6,1,.28,2,.42,3,.62a5.52,5.52,0,0,1,2.55.77,4.66,4.66,0,0,1,2.3,3.91,6.17,6.17,0,0,0,3.74,5.75l.09,0h4.79a13.32,13.32,0,0,0,1.5-.31C98.7,1004.94,97.68,1004.8,96.68,1004.6ZM38.19,906.7a6.08,6.08,0,0,1-2.46-.85,4.69,4.69,0,0,1-2.16-4.06,6.1,6.1,0,0,0-4-5.61,5.87,5.87,0,0,0-3.34-.23c-1,.2-2,.31-3,.6,1,.28,2,.39,3,.59a6.34,6.34,0,0,1,2.52.77,4.65,4.65,0,0,1,2.3,3.94,6.2,6.2,0,0,0,3.77,5.72,5.94,5.94,0,0,0,3.34.34c1-.22,2-.34,3-.62C40.21,907,39.21,906.89,38.19,906.7Zm-145.81,90.84a.36.36,0,0,1-.2-.06h0c-.11.45-.23.91-.34,1.33a4.84,4.84,0,0,0,.57,0c1-.23,2-.34,3-.63A30.52,30.52,0,0,0-107.62,997.54ZM-70,924.47a5.43,5.43,0,0,1-2.47-.82,4.66,4.66,0,0,1-2.15-4,6.18,6.18,0,0,0-4-5.65,6.27,6.27,0,0,0-3.35-.22l-1.78.34-.17.51c.65.14,1.3.22,2,.37a5.67,5.67,0,0,1,2.53.76,4.68,4.68,0,0,1,2.29,3.91,6.17,6.17,0,0,0,3.77,5.76,5.76,5.76,0,0,0,3.35.31c1-.2,2-.31,3-.59C-68,924.81-68.95,924.67-70,924.47ZM88,824.79a6,6,0,0,1-2.5-.86,4.71,4.71,0,0,1-2.15-4,6.1,6.1,0,0,0-4-5.61A5.9,5.9,0,0,0,76,814c-1,.2-2,.31-3,.6,1,.28,2,.39,3,.59a6.54,6.54,0,0,1,2.56.77,4.66,4.66,0,0,1,2.26,3.94,6.21,6.21,0,0,0,3.77,5.72A6.05,6.05,0,0,0,88,826c1-.22,2-.34,3-.62C90,825.1,89,825,88,824.79ZM171.11,877a5.79,5.79,0,0,1-2.18-.79,4.73,4.73,0,0,1-2.16-4,6.14,6.14,0,0,0-4-5.65,6.32,6.32,0,0,0-3.34-.2c-1,.2-2,.32-3,.6,1,.28,2,.4,3,.6a6.55,6.55,0,0,1,2.55.76,4.71,4.71,0,0,1,2.3,3.94,6.14,6.14,0,0,0,3.74,5.73,6,6,0,0,0,3.26.34ZM159,813.78a5.63,5.63,0,0,1-2.35,1.25,4.58,4.58,0,0,1-4.37-1.16,6.19,6.19,0,0,0-6.72-1.39,6,6,0,0,0-2.6,2.16c-.57.85-1.19,1.64-1.71,2.55.91-.51,1.71-1.14,2.56-1.7a5.83,5.83,0,0,1,2.35-1.17,4.78,4.78,0,0,1,4.39,1.34,6.12,6.12,0,0,0,6.78,1.19,6.23,6.23,0,0,0,2.52-2.21c.57-.86,1.19-1.65,1.71-2.56C160.65,812.59,159.85,813.22,159,813.78ZM56.76,660.51c-.19-.93-.31-1.9-.53-2.83-.06,0-.09,0-.12,0-.22.93-.34,1.9-.54,2.83a6,6,0,0,1-.76,2.55,4.68,4.68,0,0,1-3.94,2.27,6.24,6.24,0,0,0-5.73,3.77,5.85,5.85,0,0,0-.31,3.38c.2,1,.31,2,.59,3,.29-1,.4-2,.63-3a5.52,5.52,0,0,1,.82-2.5,4.71,4.71,0,0,1,4.05-2.15,6,6,0,0,0,5.84-7.32ZM32.83,837.23c-.19-1-.31-2-.59-3-.28,1-.4,2-.62,3a5.72,5.72,0,0,1-.77,2.55,4.63,4.63,0,0,1-3.91,2.3,6.19,6.19,0,0,0-5.76,3.77,6,6,0,0,0-.31,3.35c.2,1,.34,2,.62,3,.29-1,.4-2,.6-3a5.35,5.35,0,0,1,.85-2.5,4.75,4.75,0,0,1,4-2.15,6.11,6.11,0,0,0,5.64-4A6.27,6.27,0,0,0,32.83,837.23ZM157.39,968.76c-.2-1-.34-2-.63-3-.25,1-.39,2-.59,3a5.59,5.59,0,0,1-.77,2.52,4.66,4.66,0,0,1-3.91,2.3,6.17,6.17,0,0,0-5.76,3.77,5.73,5.73,0,0,0-.31,3.35c.2,1,.31,2,.6,3,.28-1,.42-2,.62-3a5.82,5.82,0,0,1,.82-2.5,4.8,4.8,0,0,1,4.06-2.15,6.11,6.11,0,0,0,5.64-3.95A6.27,6.27,0,0,0,157.39,968.76ZM-16.9,741.29c-.19-1-.34-2-.59-3-.28,1-.43,2-.62,3a5.76,5.76,0,0,1-.77,2.52,4.79,4.79,0,0,1-3,2.18c-.42.85-.82,1.73-1.22,2.61h.32a6.18,6.18,0,0,0,5.64-4A6.23,6.23,0,0,0-16.9,741.29Zm139.44,21.4c-.2-1-.31-2-.59-3-.29,1-.4,2-.63,3a5.6,5.6,0,0,1-.76,2.55,4.64,4.64,0,0,1-3.92,2.3,6,6,0,0,0-6.06,7.12c.2,1,.34,2,.62,3,.28-1,.4-2,.6-3a5.35,5.35,0,0,1,.85-2.5,4.7,4.7,0,0,1,4-2.15,6.15,6.15,0,0,0,5.65-4A6,6,0,0,0,122.54,762.69Zm-128.86,179c-.23-1-.34-2-.62-3-.29,1-.4,2-.6,3a6.08,6.08,0,0,1-.76,2.56,4.74,4.74,0,0,1-3.95,2.29A6.18,6.18,0,0,0-18,950.25a5.82,5.82,0,0,0-.31,3.37c.19,1,.31,2,.59,3,.28-1,.4-2,.62-3a5.69,5.69,0,0,1,.83-2.5,4.71,4.71,0,0,1,4-2.15,6.16,6.16,0,0,0,5.64-4A6.18,6.18,0,0,0-6.32,941.65Zm122.11-236a5.47,5.47,0,0,1-2.35,1.19,4.74,4.74,0,0,1-4.39-1.36,6.15,6.15,0,0,0-6.78-1.17,6,6,0,0,0-2.52,2.22c-.57.85-1.19,1.64-1.7,2.55.9-.51,1.7-1.14,2.55-1.7a5.63,5.63,0,0,1,2.35-1.25,4.67,4.67,0,0,1,4.4,1.13,6.22,6.22,0,0,0,6.71,1.42,6.06,6.06,0,0,0,2.58-2.15c.57-.86,1.2-1.65,1.71-2.58C117.44,704.51,116.64,705.14,115.79,705.68ZM34.45,779.36a5,5,0,0,1-2.35,1.17,4.73,4.73,0,0,1-4.4-1.34A6.1,6.1,0,0,0,20.93,778a6.28,6.28,0,0,0-2.53,2.22c-.56.85-1.19,1.64-1.7,2.55.91-.51,1.7-1.14,2.55-1.7a6.17,6.17,0,0,1,2.36-1.25A4.71,4.71,0,0,1,26,781a6.17,6.17,0,0,0,6.72,1.39,5.91,5.91,0,0,0,2.58-2.15c.57-.86,1.19-1.65,1.7-2.56C36.1,778.17,35.3,778.8,34.45,779.36ZM-20.67,887.9A5.54,5.54,0,0,1-23,889.09a4.76,4.76,0,0,1-4.4-1.36,6.18,6.18,0,0,0-6.8-1.16,5.89,5.89,0,0,0-2.52,2.21c-.57.85-1.19,1.64-1.71,2.55.91-.51,1.71-1.14,2.58-1.7a5.45,5.45,0,0,1,2.33-1.25,4.6,4.6,0,0,1,4.39,1.13,6.24,6.24,0,0,0,6.72,1.42,5.9,5.9,0,0,0,2.61-2.15c.57-.85,1.19-1.65,1.7-2.58C-19,886.71-19.79,887.36-20.67,887.9ZM3.18,1000.68a5.7,5.7,0,0,1-2.36,1.2,4.75,4.75,0,0,1-4.39-1.37,6.18,6.18,0,0,0-6.8-1.16,6.11,6.11,0,0,0-2.53,2.21c-.54.85-1.16,1.65-1.7,2.55.94-.51,1.73-1.13,2.58-1.7a5.37,5.37,0,0,1,2.33-1.24,4.59,4.59,0,0,1,4.39,1.13,6.26,6.26,0,0,0,6.72,1.42A6,6,0,0,0,4,1001.56c.57-.85,1.19-1.64,1.7-2.58C4.82,999.49,4,1000.15,3.18,1000.68ZM109.81,876.76a5.73,5.73,0,0,1-2.35,1.16,4.74,4.74,0,0,1-4.4-1.33,6.15,6.15,0,0,0-6.8-1.2,6,6,0,0,0-2.5,2.22c-.56.85-1.19,1.64-1.73,2.55.94-.51,1.73-1.14,2.58-1.7a6.28,6.28,0,0,1,2.33-1.25,4.62,4.62,0,0,1,4.39,1.16,6.2,6.2,0,0,0,6.72,1.39,5.9,5.9,0,0,0,2.61-2.15c.57-.85,1.19-1.65,1.7-2.56C111.46,875.56,110.66,876.19,109.81,876.76Zm68.47,45.9a4.54,4.54,0,0,1-1.81-1.16,6.27,6.27,0,0,0-6.81-1.2,6.55,6.55,0,0,0-2.52,2.22c-.57.88-1.19,1.67-1.7,2.58.91-.51,1.7-1.14,2.55-1.7a6,6,0,0,1,2.35-1.28,4.76,4.76,0,0,1,4.4,1.16,6.27,6.27,0,0,0,3.94,1.82ZM59.74,955.77a5.64,5.64,0,0,1-2.35,1.17A4.75,4.75,0,0,1,53,955.6a6,6,0,0,0-9.3,1c-.56.86-1.19,1.65-1.7,2.56.91-.51,1.7-1.14,2.55-1.7a6.13,6.13,0,0,1,2.33-1.25,4.59,4.59,0,0,1,4.39,1.16A6.2,6.2,0,0,0,58,958.78a5.78,5.78,0,0,0,2.61-2.16c.57-.85,1.19-1.64,1.7-2.55C61.39,954.58,60.59,955.21,59.74,955.77ZM-53.87,971.31a5.73,5.73,0,0,1-2.35,1.16,4.73,4.73,0,0,1-4.4-1.33A6.09,6.09,0,0,0-67.39,970a5.86,5.86,0,0,0-2.52,2.21c-.57.85-1.2,1.65-1.73,2.55.93-.51,1.73-1.13,2.58-1.7a6.31,6.31,0,0,1,2.32-1.25,4.65,4.65,0,0,1,4.4,1.17,6.18,6.18,0,0,0,6.71,1.39A5.79,5.79,0,0,0-53,972.16c.57-.85,1.19-1.64,1.7-2.55C-52.22,970.12-53,970.74-53.87,971.31Z"/><path class="cls-7" d="M122.12,842.21c-12.79,1.43-25.61,3.3-38.06,6.6-6.2,1.65-12.27,3.57-18.34,5.63-3,1-6.06,1.94-9.12,2.85a41.52,41.52,0,0,1-9.8,1.94.23.23,0,0,0,0,.46,69.34,69.34,0,0,0,9.45-.26,67.24,67.24,0,0,0,9-1.78c6.3-1.61,12.52-3.51,18.8-5.18,12.67-3.38,25.34-6.75,38.23-9.2C122.88,843.16,122.72,842.14,122.12,842.21Z"/><path class="cls-7" d="M153.94,853.31a282.21,282.21,0,0,0-31.85-1.26c-5.32.11-10.6.53-15.89,1.09q-3.8.4-7.56.92c-2.78.38-5.5,1.13-8.27,1.47-.29,0-.29.48,0,.46,2.63-.24,5.3,0,7.94-.13s5.29-.2,7.94-.28c5.3-.18,10.6-.3,15.9-.52,10.62-.45,21.18-.8,31.8-.88C154.54,854.17,154.49,853.36,153.94,853.31Z"/><path class="cls-8" d="M10.13,688.46C-40.66,742.86-161.48,947-122.31,984.66c39.45,37.91,256.57-13,317.64-42.12,18.17-8.66-50.86-121.91-72.21-124.56-17.78-2.2-108.66,39.37-111.28,34.14-3-5.91,17.67-43.83,39.53-122.78C76.58,638.31,32.57,664.43,10.13,688.46Z"/><path class="cls-8" d="M213.36,781.43c44.15-6.15,56.43-.95,90.94-25.93,22.64-16.39,42.82-9,29.91,17.08-21.13,42.59-76.43,62.49-97.59,63.87Z"/><path class="cls-8" d="M96.09,823.93s49.61-27.55,96-38.75c32.09-7.76,103.78-16.83,172.37,53.9,16.27,16.78,27.55,52.22-9,34.47-25.94-12.61-38.59-28.44-55-33,0,0,9,46.79-8.44,62.43-7.8,7-29.52,25.57-48.5,37.63a90.87,90.87,0,0,1-7.86-8.45S218,945.21,184.75,942Z"/><path class="cls-8" d="M223.91,782.67c15.34,8,47.57,25.5,69,49,23.76,26.09,62.49,82.74,43.05,100.08-14.25,12.71-30.94-7.62-30.94-7.62s11.07,26.79-4.31,35.46c-14,7.9-26-8.6-26-8.6s3.92,17.4-11.05,22.41c-18,6-23.27-31.45-46.78-41.11C211.56,930.11,223.91,782.67,223.91,782.67Z"/><path class="cls-7" d="M261.12,852.16c13.19,9.88,37.39,40,44.09,71.26.15.7-.3,1.2-.58.58a346.29,346.29,0,0,0-43.76-71.62C260.75,852.23,261,852,261.12,852.16Z"/><path class="cls-7" d="M235.48,876.9c10.51,9.7,34.07,41.89,39.76,73.76.13.72-.36,1.18-.61.55-13.92-34.91-30.93-62.37-39.41-74.1C235.11,877,235.34,876.77,235.48,876.9Z"/><path class="cls-7" d="M300.5,840.23c14.38,4.24,23.74,11.29,35.88,19.73a197.5,197.5,0,0,0,18.54,11.73c5.86,3.17,14.5,8,20.75,3,3.47-2.76,3.42-7.79,2.65-11.75a31.8,31.8,0,0,0-5.21-12.43c-.14-.19.18-.43.32-.24a42.42,42.42,0,0,1,5.95,10.63c1.28,3.49,2.29,7.54,1.3,11.23-2.11,7.94-11.47,9-18.09,6.8a63,63,0,0,1-11.33-5.48c-3.48-2-6.87-4.17-10.21-6.42-6.84-4.62-13.4-9.63-20.19-14.33-7.45-5.17-12.6-7.69-20.58-12C300,840.57,300.21,840.15,300.5,840.23Z"/><path class="cls-7" d="M330.63,890.85c-3.73-8.2-23.89-42.37-30.43-50.28a.21.21,0,0,1,.3-.28c11.21,10.63,29.24,38.87,33.44,47.91s8.93,20.37,8.93,30.33c0,15-10,17.89-13.66,18.62a19.5,19.5,0,0,1-12.79-2.09c-4.4-2.28-8.65-7-11.6-10.9-.15-.21.12-.49.3-.28,5.21,5.92,13.86,11.76,22,10.69a13.67,13.67,0,0,0,9.3-5c2.54-3.45,2.75-8,2.4-12.1C338.07,908.13,334.45,899.28,330.63,890.85Z"/><path class="cls-7" d="M275.24,950.66c2.1,1.8,6.41,8,13.26,9.36,5,1,10.25.5,14.1-3.15s5.18-8.62,5.41-13.67c.13-2.85-2.15-15.2-3.15-18.92-.08-.29.29-.42.38-.15,2.17,6.64,4.51,13.86,4.51,20.36,0,5.41-1.7,11.21-5.75,15a15.37,15.37,0,0,1-15.74,3.27c-2.67-1-11.13-6.42-13.59-11.77C274.61,950.85,275.15,950.59,275.24,950.66Z"/><path class="cls-7" d="M218.26,929.58a36.63,36.63,0,0,1,6.37,5.37c2.11,2,4.15,4.14,6.13,6.29a85,85,0,0,1,10.4,14.25c3,5.1,5.84,10.79,10.79,14.33s11.51,4,16.46.41a13.78,13.78,0,0,0,5.14-7.63,26.74,26.74,0,0,0,.95-10.25.21.21,0,1,1,.41-.05c.25,3.17,1.11,6.11.74,9.32a16.49,16.49,0,0,1-2.95,7.92,15.68,15.68,0,0,1-15.35,5.73c-6.28-1.15-10.88-5.87-14.29-11-3.8-5.68-6.93-11.75-11-17.27-2.14-2.91-4.24-5.85-6.57-8.59s-5.36-5.43-7.6-8.43C217.73,929.76,218,929.4,218.26,929.58Z"/><path class="cls-7" d="M200.67,942.4a130.16,130.16,0,0,0,24.21-5c.25-.08.6.63.37.75-3.2,1.77-9.91,3.53-11.93,3.94a42.58,42.58,0,0,1-12.59.77C200.5,942.82,200.39,942.42,200.67,942.4Z"/><path class="cls-7" d="M-70.38,891.83a316.48,316.48,0,0,1,40-22.84c13.65-6.68,28-11.85,42.42-16.44,8.26-2.62,16.62-4.83,25-7.1a.2.2,0,0,1,.1.39A397.15,397.15,0,0,0-5.75,861.93q-20.88,9-41.4,18.76c-7.75,3.68-15.32,7.73-22.93,11.67A.3.3,0,0,1-70.38,891.83Z"/><path class="cls-3" d="M-93.9,816.77l123.3-4.08s23-60.86,31.68-115S25.47,660.08-20.82,718-93.9,816.77-93.9,816.77Z"/><path class="cls-5" d="M-63,781.92a5.23,5.23,0,0,1-2.35,1.16,4.64,4.64,0,0,1-4.2-1.16c-.48.68-1,1.36-1.44,2a6.09,6.09,0,0,0,6.23,1,5.72,5.72,0,0,0,2.61-2.12c.57-.88,1.19-1.68,1.7-2.58C-61.32,780.73-62.12,781.35-63,781.92Zm97.42-2.56a5,5,0,0,1-2.35,1.17,4.73,4.73,0,0,1-4.4-1.34A6.1,6.1,0,0,0,20.93,778a6.28,6.28,0,0,0-2.53,2.22c-.56.85-1.19,1.64-1.7,2.55.91-.51,1.7-1.14,2.55-1.7a6.17,6.17,0,0,1,2.36-1.25A4.71,4.71,0,0,1,26,781a6.17,6.17,0,0,0,6.72,1.39,5.91,5.91,0,0,0,2.58-2.15c.57-.86,1.19-1.65,1.7-2.56C36.1,778.17,35.3,778.8,34.45,779.36ZM-16.9,741.29c-.19-1-.34-2-.59-3-.28,1-.43,2-.62,3a5.76,5.76,0,0,1-.77,2.52,4.66,4.66,0,0,1-3.91,2.3,6.25,6.25,0,0,0-5.76,3.77,5.75,5.75,0,0,0-.31,3.34c.2,1,.34,2,.62,3,.26-1,.4-2,.6-3a5.08,5.08,0,0,1,.85-2.46,4.61,4.61,0,0,1,4-2.16,6.18,6.18,0,0,0,5.64-4A6.23,6.23,0,0,0-16.9,741.29Zm68.73-76.07h0a3.69,3.69,0,0,1-.93.11,6.24,6.24,0,0,0-5.73,3.77,5.85,5.85,0,0,0-.31,3.38c.2,1,.31,2,.59,3,.29-1,.4-2,.63-3a5.52,5.52,0,0,1,.82-2.5,4.71,4.71,0,0,1,4.05-2.15,6.17,6.17,0,0,0,3.8-1.42A11.79,11.79,0,0,0,51.83,665.22ZM-5,699.78a5.82,5.82,0,0,0,2.35-2.1c.28-.42.59-.85.88-1.25C-2.89,697.51-4,698.64-5,699.78ZM-30.67,811.86a6.18,6.18,0,0,0-3.35-.23c-1,.2-2,.34-3,.6,1,.28,2,.42,3,.62a5.59,5.59,0,0,1,2.52.76,5.2,5.2,0,0,1,1.22,1l2.75-.08v0A5.9,5.9,0,0,0-30.67,811.86Zm82.81-77.58a6,6,0,0,0-7.31-5.87c-1,.2-2,.35-3,.63,1,.25,2,.4,3,.59a5.76,5.76,0,0,1,2.52.77,4.6,4.6,0,0,1,2.3,3.91,6.26,6.26,0,0,0,2.58,5.08c.2-.85.42-1.68.62-2.53A4.46,4.46,0,0,1,52.14,734.28Z"/><path class="cls-7" d="M24.33,812.27c.66,0,5-.76,5-.76.3-1.62,7.34-27.06,9.19-32.59,3.76-11.28,8.19-22.37,12.46-33.46a.3.3,0,0,1,.57.17c-2.78,9.54-5.39,19.15-8.25,28.68.86-1.35,1.71-2.71,2.53-4.09,1.67-2.83,3.13-5.76,4.69-8.65.13-.26.54-.06.46.21a48.32,48.32,0,0,1-5.44,11.34,40,40,0,0,1-3.2,4.36c-.24.79-.47,1.59-.72,2.38C39.89,785.42,30.86,813,30.4,813l-5.95.12C24.11,813.11,24,812.27,24.33,812.27Z"/><path class="cls-7" d="M-73.94,792.9c26.59-2,53.36-2.12,80.06-1.72q11.33.17,22.64.87c.22,0,.26.33,0,.34-13.3.71-26.62.88-39.95,1.12s-26.73.39-40.1.26c-7.55-.07-15.09-.14-22.64-.37C-74.22,793.39-74.27,792.92-73.94,792.9Z"/><path class="cls-8" d="M52.91,665.56c.47,5.38,20.5,42.79,44.49,45.09,7.81.73,13.73-41.74,13.73-41.74l1.15-3,16.11-42.5L81.57,582.9l-6.83-5.45s-3.64,11.92-8,26.8c-.2.69-.41,1.38-.62,2.12s-.54,1.62-.75,2.41c-.69,2.22-1.38,4.48-2,6.75-.49,1.73-1,3.41-1.43,5.24s-1,3.6-1.45,5.43C55.9,644.3,52.74,663.27,52.91,665.56Z"/><path class="cls-7" d="M66.71,604.25c7.57,36.75,33.44,55,45.57,61.63l16.11-42.5L81.57,582.9l-6.83-5.45S71.1,589.37,66.71,604.25Z"/><path class="cls-8" d="M185.76,535.45c21.74,76.75-21.77,98.43-38.32,103.1-15,4.24-66.74,16.77-96.29-57.31s-.75-108.46,33.11-120S164,458.71,185.76,535.45Z"/><path class="cls-7" d="M169.22,524.33a50.5,50.5,0,0,1-5.5.25c-2.11.08-3.79.35-5.66-.81a2.83,2.83,0,0,1-.87-3.35c1.2-2.41,3.76-3.14,6.3-3.34a10.35,10.35,0,0,1,7.2,1.91C172.89,520.52,171.68,524,169.22,524.33Z"/><path class="cls-7" d="M121.88,548a52.54,52.54,0,0,0,5.17-1.92c2-.76,3.62-1.15,4.89-3a2.83,2.83,0,0,0-.51-3.42c-2-1.75-4.69-1.43-7.1-.61a10.37,10.37,0,0,0-5.89,4.56C117,545.91,119.48,548.63,121.88,548Z"/><path class="cls-7" d="M135.15,555.84c-.1-.19-.34.36-.27.57,1.65,5.18,2.67,11.38-1.56,14.46-.13.1,0,.36.12.28C139,568.7,137.54,560.47,135.15,555.84Z"/><path class="cls-7" d="M128.93,551.71c-8.58,1.75-4.44,18.79,3.51,17.16S136.12,550.24,128.93,551.71Z"/><path class="cls-7" d="M125.8,553.42c-1.25,1.33-2.3,3.38-4,4-2,.71-4-.7-5.8-2.08-.18-.15-.29,0-.24.26.74,3.28,2.81,6.32,6.43,6,3.3-.33,4.89-3.78,4.91-7.26C127.05,553.66,126.31,552.89,125.8,553.42Z"/><path class="cls-7" d="M164.41,546.38c0-.21.48.16.52.37,1.07,5.33,3.2,11.25,8.4,11.88.16,0,.2.29,0,.31C167.32,559.49,164.58,551.6,164.41,546.38Z"/><path class="cls-7" d="M167.84,539.75c8.35-2.64,13,14.26,5.28,16.71S160.84,542,167.84,539.75Z"/><path class="cls-7" d="M171.67,539.89c1.58.53,3.35,1.79,5,1.45,1.88-.39,2.74-2.59,3.44-4.67.07-.22.24-.11.31.11,1,3.21.84,6.87-2.09,8.34-2.67,1.35-5.52-.85-7.18-3.85C170.83,540.71,171,539.68,171.67,539.89Z"/><path class="cls-7" d="M145.45,595.27c1.52,1,3.13,2.47,5.1,2.25s3.89-1.47,5.46-2.46a.2.2,0,0,1,.29.23,7.32,7.32,0,0,1-6.2,4.22c-2.5,0-4.1-1.8-5.12-3.9C144.84,595.32,145.23,595.13,145.45,595.27Z"/><path class="cls-7" d="M162.41,573.45s3.09,7.58,4,11.29c.09.35-12.72,6.58-20.95-1a.4.4,0,0,1,.42-.66c5.81,2.34,11.44,1.89,17.27.5,0-1.09-5.73-12.81-5.15-13,2-.69,6.32-.33,8.9-.24-6-16-14.48-30.87-20.21-46.87-.19-.58.61-1,.91-.49,10,15,17.31,33.21,23.91,49.56C172.4,574.54,164.05,573.7,162.41,573.45Z"/><path class="cls-7" d="M121.41,469.77s5.09,11.28,2.45,20.49c-5.43,18.93-27.33,17.87-33.39,26-5.68,7.64-1,20.7-6.09,28.23-7,10.43-19.1,8.88-19.49,15.17s-1.16,26.26-8.47,30-64.3-118.57,37.33-131.5c0,0,13-8.15,36.21-.78,27,8.55,43.87,46.65,43.87,46.65a35.73,35.73,0,0,0-5.84-4.33c-5.59-3.48-8.14-7.13-12.18-9.32-6.34-3.43-9.14-1.25-15.69-4.53C130.15,480.88,121.41,469.77,121.41,469.77Z"/><path class="cls-7" d="M118.94,464.45a69.09,69.09,0,0,1,5.54,14.94c1.26,5.08,1.9,10.52.36,15.36s-5.65,8.45-10.07,11-9.71,4-14.53,6.9a16,16,0,0,0-5.92,6.22,21.43,21.43,0,0,0-1.66,8.25c-.2,5.36-.44,10.65-3.25,14.92a17.7,17.7,0,0,1-12.58,8c-5.09.87-11,.38-15.54,3.45,4.83-2.69,10.32-1.74,15.7-2.23a19.21,19.21,0,0,0,14-8.08c3.47-4.68,3.63-10.69,3.94-15.86a19.23,19.23,0,0,1,1.54-7.34,13.68,13.68,0,0,1,5.1-5.15c4.29-2.73,9.56-4.25,14.32-7a27.74,27.74,0,0,0,6.54-5.15,16.72,16.72,0,0,0,4.26-7.24c1.46-5.52.49-11.12-1-16.27A69.88,69.88,0,0,0,118.94,464.45Z"/><path class="cls-7" d="M121.64,468.72a55.89,55.89,0,0,0,7.23,13.09,26.16,26.16,0,0,0,12,9.42,38,38,0,0,0,7.44,1.54,12.11,12.11,0,0,1,6.06,2.74c1.63,1.64,3.26,3.78,5.39,5.22a16.74,16.74,0,0,0,7,2.66,18.65,18.65,0,0,1-6.27-3.64c-1.85-1.55-3.08-3.53-4.73-5.58-1.93-2.22-4.46-3.05-7-3.72-2.57-.52-4.87-.71-7-1.57a27.86,27.86,0,0,1-11.29-8.36A109.28,109.28,0,0,1,121.64,468.72Z"/><path class="cls-3" d="M43.63,567.65S13,509.27,46.12,475.4c34.38-35.12,82.33-22.22,82.33-22.22s-52.13,3.26-73.73,31.51C29.59,517.57,43.63,567.65,43.63,567.65Z"/><path class="cls-6" d="M128,585.91a25.27,25.27,0,1,1,19.14-35h0a25.29,25.29,0,0,1-13.11,33.24A25,25,0,0,1,128,585.91Zm-7.53-46.55a21.89,21.89,0,1,0,23.57,12.89A21.74,21.74,0,0,0,120.5,539.36Z"/><path class="cls-6" d="M183.71,569.74c-9.54,1.55-19.78-6.83-23.39-19.5a30.21,30.21,0,0,1,.3-18.45c2.08-5.69,5.95-9.6,10.88-11s10.27-.12,15,3.62a30.17,30.17,0,0,1,10,15.53c3.81,13.4-1.2,26.61-11.17,29.45A13,13,0,0,1,183.71,569.74Zm-10-46a11.39,11.39,0,0,0-1.26.28c-3.86,1.1-6.92,4.26-8.63,8.91a26.83,26.83,0,0,0-.22,16.36c3.31,11.61,12.63,19.17,20.84,16.83s12.15-13.67,8.85-25.28a26.84,26.84,0,0,0-8.81-13.79C181,524.34,177.2,523.19,173.68,523.76Z"/><path class="cls-6" d="M147.16,554l-2.8-1.9c2.8-4.14,10.14-10.73,17.88-6.07l-1.74,2.9C153.57,544.69,147.42,553.57,147.16,554Z"/><path class="cls-6" d="M36.29,591.94,33,591.27c.32-1.54,3.26-15.17,10.17-18.41,6.48-3,55.56-12.26,57.46-12.61l.62,3.32c-12.82,2.37-51.65,10-56.64,12.35C40,578.06,37.05,588.21,36.29,591.94Z"/><path class="cls-8" d="M63.66,577.87s-21.79-21.18-31.72-13,9.73,41.2,23.69,43.55S72,598,72,598Z"/><path class="cls-7" d="M37.81,574.23c-.21,0-.19.33,0,.36,9.84,1.95,16.28,9.5,21.33,17.63-3.37-2.86-7.42-4-11.33.1-.2.22.1.55.34.44,3.59-1.52,6.41-1.38,9.52,1.13a40,40,0,0,1,5.68,6.43c.59.73,2,0,1.49-.87l-.12-.2C62.72,587.56,50.54,573,37.81,574.23Z"/><path class="cls-8" d="M13.36,682.28s55,39.45,86.44,35.37,28.59-34.51,28.59-34.51S96.92,655.59,59.8,657.33C33,658.58,13.36,682.28,13.36,682.28Z"/><rect class="cls-2" x="178.72" y="986.64" width="315.26" height="14.14"/><rect class="cls-7" x="178.72" y="986.64" width="158.68" height="14.14"/><polygon class="cls-2" points="333.72 1000.76 640.96 1000.76 684.38 792.09 377.13 792.09 333.72 1000.76"/><path class="cls-5" d="M485.23,901.09c-1.19,11.31,7,20.48,18.33,20.48s21.44-9.17,22.63-20.48-7-20.48-18.33-20.48S486.42,889.78,485.23,901.09Z"/><path class="cls-3" d="M613.5,641c-27.44,0-48.93-57.59-48.93-131.1s21.49-131.1,48.93-131.1,48.93,57.59,48.93,131.1S640.94,641,613.5,641Zm0-253.69c-19.52,0-40.42,49.26-40.42,122.59S594,632.5,613.5,632.5s40.43-49.26,40.43-122.59S633,387.32,613.5,387.32Z"/><path class="cls-3" d="M531.42,588.45c-15.61,0-26.5-4.41-31.45-13-6.94-12-1-30.07,16.83-50.83C533.63,505,559.29,484.71,589,467.54s60.13-29.26,85.56-34c26.88-5,45.5-1.18,52.44,10.83s1,30.07-16.84,50.83c-16.83,19.65-42.49,39.92-72.23,57.1s-60.14,29.25-85.57,34A115.11,115.11,0,0,1,531.42,588.45Zm164.42-148.6a108.35,108.35,0,0,0-19.68,2c-24.5,4.58-53.93,16.31-82.87,33s-53.81,36.34-70,55.27c-15.05,17.55-20.85,32.51-15.93,41s20.78,11,43.51,6.73c24.5-4.59,53.94-16.31,82.87-33s53.81-36.33,70-55.26c15-17.56,20.85-32.52,15.93-41C716.33,442.84,708,439.85,695.84,439.85Z"/><path class="cls-3" d="M695.59,588.45a115.21,115.21,0,0,1-21-2.15c-25.43-4.76-55.82-16.84-85.56-34s-55.41-37.45-72.24-57.1C499,474.43,493,456.38,500,444.36s25.56-15.86,52.43-10.83c25.43,4.75,55.82,16.83,85.57,34s55.4,37.45,72.23,57.09C728,545.39,734,563.44,727,575.46,722.09,584,711.19,588.45,695.59,588.45ZM531.16,439.85c-12.12,0-20.49,3-23.83,8.77-4.92,8.52.88,23.48,15.93,41,16.22,18.93,41.09,38.55,70,55.26s58.37,28.43,82.87,33c22.73,4.25,38.59,1.8,43.51-6.73s-.88-23.49-15.93-41c-16.22-18.93-41.09-38.56-70-55.27s-58.37-28.43-82.87-33A108.35,108.35,0,0,0,531.16,439.85Z"/><circle class="cls-3" cx="613.5" cy="509.91" r="19.25"/><polygon class="cls-3" points="484.91 490.5 353.27 708.55 221.62 490.5 319.57 490.5 353.27 553.84 386.96 490.5 484.91 490.5"/><polygon class="cls-9" points="434.43 490.5 353.27 628.81 272.1 490.5 319.57 490.5 353.27 553.84 386.96 490.5 434.43 490.5"/><polygon class="cls-3" points="717.71 135.02 684.14 324.49 573.27 359.69 462.4 324.49 428.84 135.02 573.27 64.52 717.71 135.02"/><polygon class="cls-9" points="573.27 344.6 573.27 79.59 702.79 142.83 672.69 312.74 573.27 344.6"/><path class="cls-5" d="M560.58,136.22h25.59l56.64,148.93H613L599.18,248h-52l-13.64,37.13H503.74Zm33.36,91.45-20.56-58.52L552,227.67Z"/></svg>