<svg id="Слой_1" data-name="Слой 1" xmlns="http://www.w3.org/2000/svg" xmlns:xlink="http://www.w3.org/1999/xlink" viewBox="0 0 1800 1000"><defs><style>.cls-1{fill:none;}.cls-2{clip-path:url(#clip-path);}.cls-3{fill:#ececec;}.cls-4{fill:#4a148c;}.cls-5{fill:#306;}.cls-6{fill:#ed776a;}.cls-7{fill:#ffc800;}.cls-8{fill:#fff;}.cls-9{fill:#ff9bbe;}.cls-10{fill:#c36358;}.cls-11{fill:#a8a8a8;}.cls-12{fill:#c8c8c8;}.cls-13{fill:#ffaba1;}.cls-14{opacity:0.3;}</style><clipPath id="clip-path"><rect class="cls-1" x="-158.4" y="-201" width="2149.8" height="1202"/></clipPath></defs><g class="cls-2"><path class="cls-3" d="M1179.4,764c-27,.15-80.89.37-107.9.4V764l-.1-45.43v-.5c.21-.08,107.68.3,108,.24h.27v.26L1179.4,764Zm0,0-.26-45.43c1.68.71-107.62.29-107.24.5l.5-.5-.1,45.43-.4-.4,53.64.14,53.86.26Z"/><path class="cls-3" d="M1119.43,821.31c-26.79.15-80.7.37-107.5.4h-.4v-.4l-.1-45.42v-.5c.21-.09,107.68.3,108,.23h.27v.27l-.27,45.42Zm0,0-.26-45.42c1.68.7-107.61.28-107.24.49l.5-.49-.1,45.42-.4-.4,53.65.14,53.85.26Z"/><path class="cls-3" d="M1239.37,821.31c-26.79.15-80.71.37-107.5.4h-.4v-.4l-.1-45.42v-.5c.21-.09,107.67.3,108,.23h.27v.27l-.26,45.42Zm0,0-.26-45.42c1.67.7-107.62.28-107.24.49l.5-.49-.1,45.42-.4-.4,53.64.14,53.86.26Z"/><path class="cls-3" d="M1653.55,429.69c-26.79.15-80.71.37-107.5.4h-.4v-.4l-.1-45.43v-.5c.21-.09,107.67.3,108,.24h.27v.26l-.26,45.43Zm0,0-.26-45.43c1.67.71-107.62.29-107.24.5l.5-.5-.1,45.43-.4-.4,53.64.14,53.86.26Z"/><path class="cls-3" d="M1713.52,487c-26.8.15-80.71.37-107.5.4h-.4V487l-.1-45.43V441c.21-.09,107.67.3,108,.24h.26v.26l-.26,45.43Zm0,0-.27-45.43c1.68.71-107.61.29-107.23.5l.5-.5-.1,45.43-.4-.4,53.64.14,53.86.26Z"/><path class="cls-3" d="M216.17,429.74c-26.8.15-80.71.36-107.51.4h-.39v-.4l-.09-45.43v-.5c.21-.09,107.68.3,108,.24h.26v.26l-.26,45.43Zm0,0-.27-45.43c1.68.71-107.61.28-107.24.5l.5-.5-.1,45.43-.4-.4,53.65.14,53.86.26Z"/><path class="cls-4" d="M694.29,1854.68H874.11s-30-417-29-422.65c1.8-9.4,12.42-51.91,26.55-107.45,4.43-17.37,9.2-36,14.17-55.34,13.41-52.25,28.19-109.36,41.06-159,19.33-74.45,34.42-132.28,34.42-132.28H808.94s-17.76,56.3-40.14,129.57c-36.48,119-85.22,282.92-90,322.76C672.92,1478.48,694.29,1854.68,694.29,1854.68Z"/><path class="cls-5" d="M933.64,998.59,905.69,1097l-27.27,98.63c-9.08,32.88-17.85,65.85-26.6,98.82s-17.37,66-25.43,99.15c-1.94,8.33-3.92,16.62-5.56,25-.45,2.09-.74,4.28-1.11,6.41-.08,1.18-.22,2.47-.19,3.59l.25,3.18,23.89,363.24-.16,1.09,2-1.23-22-363.39-.24-3.18c0-1,.13-1.85.17-2.8.38-2.06.65-4.11,1.1-6.19,1.64-8.3,3.66-16.59,5.6-24.87,16-66.26,33.81-132.14,51.14-198.1Z"/><path class="cls-5" d="M812.6,977.91c10.58,81.86,48.86,217.85,63.56,329.19,34.38-134.91,85.19-329.19,85.19-329.19Z"/><path class="cls-4" d="M812.6,977.91s23.11,140.85,24.68,145.38c0,0,8.59,4.07,24.1,11.23L924.56,1854l180.69.73L1009.8,977.91Z"/><path class="cls-6" d="M859.18,785.16c-23.53,32.07-97.57,129.52-146.43,136.13-32.28,4.36-135.84-3.79-161.94-14C540,903,570.14,804.37,583,805.61c23.79,2.31,114,24.86,127.81,21.72,12.29-2.81,52.3-32.74,123.84-72.84C871.39,733.87,879.49,757.47,859.18,785.16Z"/><path class="cls-6" d="M557.56,908.65c-11.11.52-62.24-1.61-76.33-5.39s-53.88-17.58-52.08-28.67,13.76-8,13.76-8-15.87-8.49-13.05-19.49,21.29-5.54,21.29-5.54-15.67-9.91-12.07-20.68,21.25-2.18,21.25-2.18-14.75-8.39-8.05-16c8.07-9.17,33.5,9.37,49.38,12.37,3.6.69,74.05,8.62,74.05,8.62Z"/><path class="cls-5" d="M458.8,818c18.74,13.59,29.29,16.29,52,17.76.44,0,.5.69,0,.71-22.4.59-36.12-.9-52.77-17.6C457.28,818.07,457.91,817.37,458.8,818Z"/><path class="cls-5" d="M449.68,840.47c20.69,12.42,32.11,15.45,55.81,18.74.34,0,.3.62-.05.6-23.52-1.28-37.18-3.08-56.22-18.2C448.35,840.93,448.73,839.9,449.68,840.47Z"/><path class="cls-5" d="M444.12,866.74c20.91,10.57,33.28,14.44,56.7,14.68a.43.43,0,0,1,0,.86c-23.9,2.08-39.38-2.63-57-14.87C442.67,866.57,442.81,866.07,444.12,866.74Z"/><path class="cls-6" d="M583,805.61s-24.27-15.89-36.47-20.52-64-5.15-64.76,6c-1,14.44,28.89,20.63,43.91,21.75,0,0-2.27,33.4,18.2,42.48S583,805.61,583,805.61Z"/><path class="cls-5" d="M482.78,795.18c8.62,13.81,28.43,14,42.91,16.19a1.34,1.34,0,0,1,1.07,1.92c0,14.07,4.06,33.91,16.23,42.4a.34.34,0,0,1-.34.59c-14.29-7.34-19.89-26.51-18.88-41.91-14.9-2-34.75-3.07-41.13-19.11A.08.08,0,0,1,482.78,795.18Z"/><path class="cls-7" d="M759.27,792l62.34,63.63s40.73-42.9,59.23-85.24-19.12-39.63-46.77-23.87S759.27,792,759.27,792Z"/><path class="cls-8" d="M879.41,773.5c-.33.73-.69,1.46-1.06,2.2-1.3,0-2.6,0-3.89.16a14.84,14.84,0,0,0-1.87.2,39,39,0,0,0-4.26.61h0a46.25,46.25,0,0,0-6,1.54,82.7,82.7,0,0,0-17.91,8.37,9.71,9.71,0,0,0-1.17.69c-1.18.69-2.32,1.42-3.45,2.15-14.13,9.29-27.08,20.38-40.8,30.48-2.4,1.75-4.79,3.5-7.23,5.16l-1.14-1.18c2.48-1.74,4.92-3.53,7.35-5.36,13.56-10.14,26.39-21.39,40.68-30.85,1-.65,2.07-1.34,3.12-1.95.37-.24.74-.48,1.14-.69a85.56,85.56,0,0,1,18.76-8.89,52,52,0,0,1,10.59-2.31c.69-.08,1.42-.16,2.11-.21l1.87-.08,1.42-.08ZM858.83,800q-4.22-3.47-8.16-7.22c-.45-.41-.9-.82-1.34-1.26-1.67-1.63-3.33-3.25-5-4.91-.52-.53-1-1-1.5-1.55-.85-.85-1.66-1.66-2.48-2.51-8.07-8.41-15.79-17.22-23.66-25.86-.25.16-.53.32-.81.48,7.79,8.77,15.46,17.66,23.54,26.23.73.77,1.5,1.58,2.27,2.35.45.53.94,1,1.47,1.55,1.66,1.7,3.32,3.41,5.07,5.07.45.45.89.85,1.34,1.26q4,3.9,8.28,7.51c1.34,1.09,2.68,2.19,4.06,3.25.29-.41.57-.86.85-1.26C861.42,802.08,860.13,801,858.83,800Zm20.86-31.38c-2.55,1.71-5,3.41-7.51,5.24-1.3.89-2.6,1.87-3.85,2.84h0c-6.46,4.83-12.67,9.86-19,14.82l-1.1.85c-3,2.44-6.13,4.83-9.21,7.14-13.56,10.15-27.89,19.61-44,24.81-1,.32-2.07.65-3.13.93l.94.94c.85-.21,1.7-.45,2.55-.73,16.4-5.08,31-14.54,44.7-24.61,3.21-2.35,6.37-4.75,9.54-7.22a11.63,11.63,0,0,0,1.1-.85c7.26-5.61,14.49-11.37,21.92-16.69,1.18-.89,2.35-1.7,3.57-2.52,1.54-1.09,3.09-2.15,4.67-3.2.49-1.14.93-2.24,1.34-3.29C881.32,767.54,880.5,768.06,879.69,768.59Z"/><path class="cls-5" d="M829.89,841.74c-27.55-24.9-47.82-50.62-52.59-55.6-.22-.23.18-.57.4-.32,4.42,5.13,32,32.06,52.63,55.57C830.56,841.66,830.16,842,829.89,841.74Z"/><path class="cls-5" d="M880.83,770.34c-18.49,42.34-59.21,85.24-59.21,85.24l-28.71-29.3c22.06-26.64,57.69-69.6,75.38-90.39C883,736,891.83,745.23,880.83,770.34Z"/><path class="cls-7" d="M779,1050.33c3.9,4.21,248.36,12.25,249.63,10.68,3.47-4.27-27.24-163.47-52.78-224.45-32.75-78.19-51.52-85.38-62.71-90.13-14.3-6.07-52.42-5.45-58.77-2.89-7.18,2.87-26.65,37.91-36.25,66C798.8,865.94,775.58,1046.64,779,1050.33Z"/><path class="cls-8" d="M1013.82,973.4c-12.34,8.61-24,18.35-36.13,27.32-2.51,1.87-5,3.7-7.63,5.44-.89.65-1.83,1.26-2.72,1.91-10.68,7.1-22,13.4-34.34,17.25a84.82,84.82,0,0,1-25.3,4,57.52,57.52,0,0,1-24.76-6.09A100.66,100.66,0,0,1,861.71,1009a249.92,249.92,0,0,1-18.51-17.57c-11.78-12.31-22.74-25.38-34.51-37.64-.81-.85-1.62-1.66-2.48-2.51-.48-.53-1-1-1.5-1.55-4.14-4.18-8.4-8.24-12.91-12,.12-.57.2-1.14.29-1.71a185,185,0,0,1,13.8,13c.53.53,1,1,1.46,1.55.77.77,1.54,1.58,2.27,2.35,11.69,12.38,22.53,25.54,34.19,37.88s24.15,24.23,39.5,31.58a56.75,56.75,0,0,0,24.39,5.81,82.66,82.66,0,0,0,24.93-4.1c10.88-3.46,20.91-8.9,30.45-15.23.85-.53,1.66-1,2.47-1.62,3.78-2.56,7.47-5.24,11.13-8,12.26-9.17,24-19.28,36.66-28.09C1013.54,972,1013.66,972.67,1013.82,973.4Zm-4.58-20.7c-8.2-9-16.2-18.15-24.61-27a242.52,242.52,0,0,0-18.51-17.62A101,101,0,0,0,944.89,894a57.66,57.66,0,0,0-24.76-6.09,83.49,83.49,0,0,0-25.29,4c-16.41,5.08-31,14.54-44.7,24.6-3.21,2.36-6.38,4.75-9.54,7.23a10.18,10.18,0,0,0-1.1.85c-9.94,7.68-19.73,15.51-30.16,22.37-1.14.73-2.27,1.46-3.45,2.15a9.84,9.84,0,0,1-1.18.69,82.33,82.33,0,0,1-15.79,7.63l-.37,2.44a83.13,83.13,0,0,0,17.66-8.52,12.77,12.77,0,0,0,1.14-.69c1.06-.61,2.11-1.3,3.13-2,10.63-7,20.46-15,30.36-22.86l1.1-.85c3-2.44,6.13-4.83,9.21-7.15C864.71,907.67,879,898.17,895.2,893a82.35,82.35,0,0,1,24.93-4.1,56.82,56.82,0,0,1,24.4,5.8c15.34,7.35,27.88,19.29,39.5,31.59,8.8,9.34,17.13,19.12,25.73,28.66C1009.56,954.2,1009.4,953.43,1009.24,952.7Zm6.41,29.18c-12.91,9.54-26.59,18.31-41.9,23.23a38,38,0,0,1-3.69,1c-1.5.45-3,.81-4.51,1.14a79.52,79.52,0,0,1-16.72,1.91,57.34,57.34,0,0,1-24.4-5.81c-15.3-7.35-27.89-19.28-39.5-31.58s-22.49-25.5-34.18-37.92c-2.88-3-5.81-6-8.81-8.93-.45-.45-.9-.89-1.34-1.26-2.68-2.64-5.44-5.12-8.32-7.51A100.88,100.88,0,0,0,810.92,902a58.64,58.64,0,0,0-12.54-4.38c-.08.57-.2,1.13-.33,1.74a59.69,59.69,0,0,1,12.14,4.18,96.81,96.81,0,0,1,21.15,13.77q4.2,3.46,8.16,7.22c.45.41.9.81,1.34,1.26,3,2.92,6,5.93,9,9,11.78,12.26,22.74,25.29,34.51,37.59A236.09,236.09,0,0,0,902.83,990a99.57,99.57,0,0,0,21.23,14.21,58.1,58.1,0,0,0,24.77,6.05,73.58,73.58,0,0,0,14.25-1.3c1.42-.2,2.84-.53,4.26-.85,2.27-.53,4.55-1.14,6.78-1.83,15.3-4.75,29-13.27,41.9-22.57C1015.89,983.1,1015.77,982.49,1015.65,981.88ZM966.77,816a18.92,18.92,0,0,1-2.6,0,34,34,0,0,1-11.93-3,29.79,29.79,0,0,1-3.29-1.66,18.15,18.15,0,0,1-1.91-1.1c-5.4-3.29-10.27-7.59-15.1-11.89-6.37-5.65-12.83-11.33-20.3-15.75a62.31,62.31,0,0,0-24.36-8.45,58.41,58.41,0,0,0-6.45-.53l-3.25-.08-1.42.08-1.87.08c-.69,0-1.42.13-2.11.21a52,52,0,0,0-10.59,2.31A85.56,85.56,0,0,0,842.83,785c-.4.21-.77.45-1.14.69-1.05.61-2.11,1.3-3.12,1.95-5.81,3.86-11.41,8-16.89,12.26-.49,1.18-.93,2.4-1.38,3.57,6.33-4.91,12.75-9.7,19.41-14.08,1.13-.73,2.27-1.46,3.45-2.15a9.71,9.71,0,0,1,1.17-.69,82.7,82.7,0,0,1,17.91-8.37,46.25,46.25,0,0,1,6-1.54h0a39,39,0,0,1,4.26-.61,14.84,14.84,0,0,1,1.87-.2,61.57,61.57,0,0,1,12.5.48,62.52,62.52,0,0,1,23.5,8.16c7.23,4.27,13.6,9.87,19.94,15.47a117.22,117.22,0,0,0,14,11.17,18.23,18.23,0,0,0,1.87,1.17,39.08,39.08,0,0,0,5.08,2.68,36.8,36.8,0,0,0,12.7,3.17,23.4,23.4,0,0,0,3.74,0C967.42,817.39,967.1,816.66,966.77,816Zm-5.72-11.9q-6.94,3.28-14,6.09c-.85.33-1.74.65-2.64,1a129.85,129.85,0,0,1-15.14,4.66,112.83,112.83,0,0,1-25,3.33,54.18,54.18,0,0,1-24.31-5.4A98.35,98.35,0,0,1,858.83,800q-4.22-3.47-8.16-7.22c-.45-.41-.9-.82-1.34-1.26-1.67-1.63-3.33-3.25-5-4.91-.52-.53-1-1-1.5-1.55-.85-.85-1.66-1.66-2.48-2.51-2.47-2.56-4.91-5.16-7.26-7.8-.21.37-.37.73-.57,1.14,2.27,2.51,4.55,5,6.9,7.51.73.77,1.5,1.58,2.27,2.35.45.53.94,1,1.47,1.55,1.66,1.7,3.32,3.41,5.07,5.07.45.45.89.85,1.34,1.26q4,3.9,8.28,7.51a100.46,100.46,0,0,0,21.4,14.13,55.77,55.77,0,0,0,25,5.76,105.8,105.8,0,0,0,25.46-3.33,137.8,137.8,0,0,0,16.52-5.36c.89-.32,1.79-.69,2.68-1,4.34-1.75,8.61-3.7,12.83-5.73A13.25,13.25,0,0,0,961.05,804.07Zm-33.58-49.16c-1.82-.2-3.69-.37-5.52-.45l-3.24-.08-3.29.16a52.53,52.53,0,0,0-12.71,2.56c-8.28,2.56-15.83,6.9-23,11.49-2.55,1.71-5,3.41-7.51,5.24-1.3.89-2.6,1.87-3.85,2.84h0c-6.46,4.83-12.67,9.86-19,14.82l-1.1.85c-3,2.44-6.13,4.83-9.21,7.14a219.66,219.66,0,0,1-22.58,15.15c-.16.65-.36,1.3-.56,2A215.68,215.68,0,0,0,840,800.82c3.21-2.35,6.37-4.75,9.54-7.22a11.63,11.63,0,0,0,1.1-.85c7.26-5.61,14.49-11.37,21.92-16.69,1.18-.89,2.35-1.7,3.57-2.52,1.54-1.09,3.09-2.15,4.67-3.2,7.1-4.51,14.53-8.73,22.53-11.17a50.28,50.28,0,0,1,12.22-2.39,63.84,63.84,0,0,1,12.5.53c.86.12,1.67.24,2.48.4A38.37,38.37,0,0,0,927.47,754.91Z"/><path class="cls-6" d="M924.7,781.92c24.33,31.46,100.83,127,149.84,132.36,32.38,3.54,135.7-7.24,161.53-18.16,10.67-4.51-21.94-102.35-34.73-100.78-23.73,2.91-113.38,27.76-127.22,25-12.36-2.49-53.12-31.39-125.65-69.66C911.18,731,903.69,754.76,924.7,781.92Z"/><path class="cls-6" d="M1229.36,897.7c11.12.23,62.18-3.2,76.17-7.34s53.41-19,51.33-30-14-7.62-14-7.62,15.65-8.89,12.55-19.81-21.42-5-21.42-5,15.41-10.3,11.53-21-21.29-1.64-21.29-1.64,14.53-8.76,7.63-16.21c-8.29-9-33.25,10.22-49,13.63-3.59.77-73.81,10.49-73.81,10.49Z"/><path class="cls-5" d="M1325.78,804.58c-18.39,14.06-28.87,17-51.56,19.08-.45,0-.49.71,0,.71,22.41,0,36.09-1.81,52.3-18.94C1327.3,804.6,1326.65,803.91,1325.78,804.58Z"/><path class="cls-5" d="M1335.47,826.79c-20.37,12.94-31.71,16.26-55.32,20.15-.34.06-.28.63.07.6,23.48-1.88,37.08-4,55.74-19.62C1336.81,827.22,1336.4,826.2,1335.47,826.79Z"/><path class="cls-5" d="M1341.69,852.91c-20.63,11.1-32.9,15.28-56.3,16.12a.43.43,0,0,0,0,.86c24,1.47,39.31-3.63,56.6-16.32C1343.14,852.71,1343,852.21,1341.69,852.91Z"/><path class="cls-6" d="M1201.34,795.34s23.85-16.51,35.92-21.44,63.87-6.78,64.9,4.38c1.33,14.41-28.35,21.36-43.34,22.87,0,0,3.11,33.33-17.11,42.93S1201.34,795.34,1201.34,795.34Z"/><path class="cls-5" d="M1301.23,782.36c-8.27,14-28.07,14.73-42.49,17.27a1.35,1.35,0,0,0-1,2c.38,14-3.19,34-15.15,42.8a.34.34,0,0,0,.36.57c14.1-7.7,19.21-27,17.81-42.37,14.84-2.38,34.66-4,40.62-20.15C1301.4,782.34,1301.28,782.27,1301.23,782.36Z"/><path class="cls-7" d="M1024.74,786.18l-60.69,65.2s-41.82-41.85-61.39-83.71,18.11-40.1,46.15-25S1024.74,786.18,1024.74,786.18Z"/><path class="cls-8" d="M1011.55,778.37c-8.16,3.82-16.16,8-24.11,12.26a9.36,9.36,0,0,0,1.38.86c7.91-4.27,15.87-8.53,24-12.34C1012.4,778.9,1012,778.66,1011.55,778.37Zm4.63,2.72-1,1c-4.83,4.79-9.66,9.58-14.69,14.13a13.69,13.69,0,0,0,2.23.4c4.67-4.34,9.13-8.89,13.6-13.43.41-.41.81-.86,1.22-1.26C1017.11,781.66,1016.66,781.38,1016.18,781.09ZM998.52,798c-.57.57-1.14,1.06-1.75,1.59-6.37,5.52-13.07,10.88-20.66,14.25l-2.88,1c-1,.37-2,.49-3,.77a25.13,25.13,0,0,1-6.09.25,34,34,0,0,1-11.93-3,29.79,29.79,0,0,1-3.29-1.66c-.89.36-1.79.73-2.68,1a39.08,39.08,0,0,0,5.08,2.68,36.8,36.8,0,0,0,12.7,3.17,27.91,27.91,0,0,0,6.62-.37c1.05-.28,2.15-.44,3.21-.81L977,815.8c8-3.65,14.66-9.17,21-14.81.89-.81,1.79-1.63,2.68-2.48A16.79,16.79,0,0,1,998.52,798Z"/><path class="cls-8" d="M1016.42,795.1l-3,3.25c-.57.12-1.1.28-1.63.4a25.84,25.84,0,0,1-6.61.33,34.53,34.53,0,0,1-4.51-.57,16.79,16.79,0,0,1-2.15-.49,39,39,0,0,1-6-2.11,53.05,53.05,0,0,1-6-3.16c-.49-.33-.93-.61-1.38-.9a126.43,126.43,0,0,1-13.6-10.92c-6.33-5.64-12.7-11.24-19.93-15.46a61.31,61.31,0,0,0-23.51-8.16,63.84,63.84,0,0,0-12.5-.53,50.28,50.28,0,0,0-12.22,2.39c-1.22.37-2.48.81-3.65,1.26a20.6,20.6,0,0,1-.65-2c1.22-.49,2.43-.93,3.65-1.3a52.53,52.53,0,0,1,12.71-2.56l3.29-.16,3.24.08c2.16.08,4.31.29,6.46.53a63.08,63.08,0,0,1,24.36,8.49c7.47,4.38,13.92,10.1,20.29,15.75,4.59,4.06,9.22,8.2,14.33,11.4,0,0,0,0,.05,0a9.36,9.36,0,0,0,1.38.86,37.72,37.72,0,0,0,4.54,2.39,33.39,33.39,0,0,0,7.15,2.32,13.69,13.69,0,0,0,2.23.4,18.58,18.58,0,0,0,2.56.29,25.11,25.11,0,0,0,6.09-.29c1-.24,2-.4,3-.73Z"/><path class="cls-8" d="M986.5,792.75c-3.21,1.7-6.41,3.45-9.62,5.15-9.09,4.79-18.35,9.46-27.93,13.36-.89.36-1.79.73-2.68,1a125,125,0,0,1-12.5,4.23c-.45-.53-.86-1.1-1.26-1.63a110.85,110.85,0,0,0,11.89-3.77,117.22,117.22,0,0,1-14-11.17c-5.77-5.11-11.57-10.19-18-14.29-.81-1.34-1.62-2.72-2.39-4.1.57.29,1.13.61,1.66.94,7.47,4.42,13.93,10.1,20.3,15.75,4.83,4.3,9.7,8.6,15.1,11.89a311.47,311.47,0,0,0,29.11-13.6c3-1.54,6-3.12,9-4.71C985.57,792.14,986,792.42,986.5,792.75Z"/><path class="cls-5" d="M955.41,837.74c26.92-25.59,46.52-51.82,51.16-56.92.22-.24-.2-.56-.41-.31-4.29,5.24-31.21,32.86-51.19,56.89C954.74,837.68,955.15,838,955.41,837.74Z"/><path class="cls-5" d="M974,840.71c-3,3.82-6.09,7.61-9.28,11.27l-.61.71-.71-.71c-8.44-8.53-16.41-17.49-24-26.78-3.81-4.63-7.49-9.37-11-14.28a128,128,0,0,1-9.69-15.18c7.35,9.47,15.2,18.45,22.92,27.57L953.23,837l11.48,13.79h-1.32C966.82,847.32,970.38,844,974,840.71Z"/><path class="cls-5" d="M921.34,808.13A36.33,36.33,0,0,1,928,812a47.32,47.32,0,0,1,5.93,4.89,18.82,18.82,0,0,1-7.1-3.23A21.46,21.46,0,0,1,921.34,808.13Z"/><path class="cls-6" d="M865.23,782.94c13.41,4.65,39.14-14,50.19-30,.75-1.1.21-13.59.28-28.78.07-9.23.37-19.49,1.32-28.84.21-1.92-60.08,8.28-60.08,8.28s3.77,20.18,2,36.47a21.63,21.63,0,0,1-.79,3.8c0,.17-.11.38-.15.62C856.08,751.63,852.27,778.44,865.23,782.94Z"/><path class="cls-5" d="M913.39,695.16c-4.32,15.53-18,52.72-49.4,50.25a35.08,35.08,0,0,1-6-.94,3,3,0,0,1,.14-.63,23,23,0,0,0,.81-3.78c1.75-16.32-2-36.51-2-36.51S900.43,696.2,913.39,695.16Z"/><path class="cls-6" d="M923.69,620.17c7.13,20.65-1.71,81.39-16.08,95.38-20.83,20.28-56,23.42-73.52-1.86-17-24.51-4.05-103.46,12.1-116.28C870,578.51,913.16,589.66,923.69,620.17Z"/><path class="cls-5" d="M875.57,657.61c.06-.15.3.24.27.41-.71,4.07-.83,8.86,2.68,10.74.11.06.07.26-.06.22C874,667.71,874.25,661.36,875.57,657.61Z"/><path class="cls-5" d="M879.83,653.85c6.65.43,5.31,13.7-.85,13.31S874.25,653.49,879.83,653.85Z"/><path class="cls-5" d="M852,655.2c0-.16-.34.16-.36.33-.28,4.13-1.3,8.81-5.16,9.8-.12,0-.13.23,0,.23C851.05,665.38,852.34,659.15,852,655.2Z"/><path class="cls-5" d="M848.71,650.53c-6.57-1.17-8.42,12.05-2.34,13.13S854.21,651.52,848.71,650.53Z"/><path class="cls-5" d="M885.68,648.31a53.31,53.31,0,0,1-5-2.33c-1.89-.92-3.49-1.45-4.6-3.34a2.82,2.82,0,0,1,.79-3.36c2.17-1.56,4.77-1,7.09,0a10.3,10.3,0,0,1,5.45,5C890.67,646.65,888,649.15,885.68,648.31Z"/><path class="cls-5" d="M844.25,643.33a49.07,49.07,0,0,0,5.41-.84c2.08-.34,3.77-.4,5.36-1.9a2.83,2.83,0,0,0,.19-3.44c-1.64-2.11-4.29-2.32-6.8-2a10.25,10.25,0,0,0-6.64,3.28C839.93,640.34,841.78,643.48,844.25,643.33Z"/><path class="cls-5" d="M873.87,696.14c-1.08.86-2.2,2.09-3.71,2.06a10.86,10.86,0,0,1-4.31-1.48.14.14,0,0,0-.2.19,5.52,5.52,0,0,0,5,2.76c1.9-.13,3-1.65,3.6-3.31C874.33,696.13,874,696,873.87,696.14Z"/><path class="cls-5" d="M870.79,683.39a14.12,14.12,0,0,1-10,5.28,17.58,17.58,0,0,1-5.06-.27,5.5,5.5,0,0,1-1-.21c-.3-.07-.57-.13-.89-.23a1,1,0,0,1-.73-1v0a2.7,2.7,0,0,1,.08-.41v0l0-.36c.23-3.18,1-8,1-8-1.22.46-7.38,2.52-7.12.87,2.2-13.61,4.64-28.75,9.71-41.83a.38.38,0,0,1,.74.18c-1.6,13.17-5.5,26-7.32,39.16,2-.52,5.16-1.54,6.82-1.33.43.17-1.7,9.22-1.69,10.65a.43.43,0,0,0,0,.15c5.25,1.22,9.42,0,15-3C870.77,682.78,871.07,683.08,870.79,683.39Z"/><path class="cls-5" d="M857.74,687.21s2.6,4,6.38,5.56a7.51,7.51,0,0,0,4.54.54c3.35-.68,3.6-3.7,3.15-6.32a18.07,18.07,0,0,0-1.25-4A21.65,21.65,0,0,1,857.74,687.21Z"/><path class="cls-9" d="M864.12,692.77a7.51,7.51,0,0,0,4.54.54c3.35-.68,3.6-3.7,3.15-6.32C868.25,687.15,864.62,689.35,864.12,692.77Z"/><path class="cls-5" d="M930.56,666.87c-16.18,1.63-25.24-17.44-21.91-33.12,0,0-42.95,7-46.07-27.52A34,34,0,0,1,835,622.62l-4.43,12.91c-4.46-1.15-9.55-13.58,1-23.77,0,0,.22-17.27,12.63-28s25.25-4.32,25.25-4.32,9.86-8.75,25.81-7.2,22.92,15.84,22.92,15.84,21.49,3.44,25.59,18.5S940.32,632,940.32,632s5.54,5.8,3.21,18.83C942,659.24,935.42,666.38,930.56,666.87Z"/><path class="cls-5" d="M863.44,603.12a41.18,41.18,0,0,0,.16,8.46,34.36,34.36,0,0,0,1.82,8.13,21.84,21.84,0,0,0,10.36,12.12c4.74,2.85,10.51,3.14,16,3.51,2.79-.17,5.61-.14,8.41-.47s5.6-.8,8.44-1.12c-2.74.76-5.52,1.39-8.29,2.09-2.81.53-5.68.68-8.54,1-5.7-.06-11.73-.36-17-3.29A22.77,22.77,0,0,1,864,620.2,34.48,34.48,0,0,1,863.44,603.12Z"/><path class="cls-5" d="M841.82,623.81a45.06,45.06,0,0,0,12.87-7.44,27.4,27.4,0,0,0,4.89-5.42,33.71,33.71,0,0,0,3.42-6.66,18.65,18.65,0,0,1-2.1,7.45,20.15,20.15,0,0,1-4.91,6.14,25.18,25.18,0,0,1-6.67,4.08A23.07,23.07,0,0,1,841.82,623.81Z"/><path class="cls-6" d="M912.58,669.81s13.33-19.74,22.27-15S934,688,923.64,692s-14.26-5.46-14.26-5.46Z"/><path class="cls-5" d="M931.83,662.88a.14.14,0,0,1,.06.28c-7.24,3.07-11,9.89-13.54,17,2.12-2.74,5-4.26,8.71-1.74.19.13,0,.43-.2.39-3-.59-5.14,0-7.12,2.39a31.16,31.16,0,0,0-3.33,5.84c-.33.66-1.52.33-1.28-.42l.06-.17C914.85,677.1,921.87,664,931.83,662.88Z"/><path class="cls-5" d="M1343.77,828.88c-7,36.54-9.32,81.57-32.85,112.13-18.47,23.91-48.06,35.9-77,41.23-63.62,11.66-144.94-4.35-171.55-71.1-10.61-26.67-2-74.84,28.88-85.83,15.85-5.61,32.64-3.76,49.13-4.24,21.74-.57,39.23-8.5,53.25-25.26,27.35-32.63,30.18-60.65,43.32-99.89,2.46-7.27,6-14.18,14.81-18.69,7.74-4.93,17.23-7.29,27-7.5,8.51-1.26,17.12-1.12,25.32,1.81,17.31,6.11,30.42,26.57,41.71,40.06,11.42,13.68,15.22,26,12.12,43.69C1353.54,779.88,1348.47,804.35,1343.77,828.88Z"/><path class="cls-5" d="M1344.16,847c4.29-33.9,7.91-67.83,11.75-101.78,0-.2-.29-.27-.32-.06-4,27.83-8.32,55.58-11.94,83.48-3.53,27.33-5.3,55.69-11.22,82.62-13.3,60.46-81.06,70.12-131.54,54.9-2.29-.69-3.14,3-.79,3.67,44.73,12,102.14,9.47,127.46-36.19C1341.41,908.66,1340.65,874.7,1344.16,847Z"/><path class="cls-5" d="M1240.63,693.45a.51.51,0,0,0-1-.21c-9.45,32.74-17.39,71.79-43.15,96.1a86.42,86.42,0,0,1-46,22.49c-13.63,2.08-26.92-.64-40.52-1.2-53.22-2.2-70.16,66.3-39.65,101.91.64.75,2-.32,1.34-1.11-21-26.94-20.57-66.64,7.25-89.2,22.33-18.1,53.31-3.23,79.37-9.64C1212.33,799.31,1230.12,741.76,1240.63,693.45Z"/><path class="cls-10" d="M1296,853.34c60.84,80.09,109.89,170.67,99.31,199.57-14.23,38.88-85.81,105.55-126.18,136.72-11.86,9.16-81.27-84.58-68.6-94.38,15.31-11.85,95.49-71.89,96.6-73.48,2.38-3.42-23.86-116.11-30.78-142.88C1254.75,834.18,1269,817.8,1296,853.34Z"/><path class="cls-11" d="M1210.73,1079l76.85,106.74s21.12-5.34,35.32-22,74-81.11,77.25-115.64-54.26-134.32-89.48-182.63-58.84-42.54-45.75,19.23,28.93,131.85,27.08,134-58.93,32.22-69.22,41.17S1210.73,1079,1210.73,1079Z"/><path class="cls-12" d="M1299.5,958.91a31.76,31.76,0,0,0-8.57-2,29.26,29.26,0,0,0,7.76,4.1,32.47,32.47,0,0,0,8.6,2A30.17,30.17,0,0,0,1299.5,958.91Zm12.1,190.27a31,31,0,0,0-8.57-2,31.45,31.45,0,0,0,7.76,4.1,30.24,30.24,0,0,0,8.6,2A32.13,32.13,0,0,0,1311.6,1149.18Zm27.6-82.25a30.57,30.57,0,0,0-8.6-1.94,30.8,30.8,0,0,0,7.79,4.1,32.06,32.06,0,0,0,8.61,2A31.88,31.88,0,0,0,1339.2,1066.93Zm-81.84,0a30.62,30.62,0,0,0-8.56-1.94,30.56,30.56,0,0,0,7.75,4.1,32.06,32.06,0,0,0,8.61,2A31.18,31.18,0,0,0,1257.36,1066.93Zm41.73-34.75a30,30,0,0,0-1.94,8.57,33.78,33.78,0,0,0,6-16.36A32.13,32.13,0,0,0,1299.09,1032.18Zm38.41-99.58a30.23,30.23,0,0,0-2,8.61,32,32,0,0,0,4.1-7.8,30.63,30.63,0,0,0,1.95-8.56A31.21,31.21,0,0,0,1337.5,932.6Zm-57.85-97.51h0a30.79,30.79,0,0,0-7.47,4.71,31.1,31.1,0,0,0,8.44-2.64,17,17,0,0,0,1.59-.81A17.92,17.92,0,0,0,1279.65,835.09Zm87.24,196.28a30.63,30.63,0,0,0-7.47,4.67,30.13,30.13,0,0,0,8.4-2.6,30.63,30.63,0,0,0,7.47-4.67A31.2,31.2,0,0,0,1366.89,1031.37Zm-100.48,92.44a32.41,32.41,0,0,0-5.48,3.13c1.59-.09,3.09-.21,4.67-.33.61-.24,1.18-.49,1.79-.77a31.6,31.6,0,0,0,7.47-4.67A31.5,31.5,0,0,0,1266.41,1123.81Zm13.2-205.46a33.26,33.26,0,0,0-6.66,4c-.28.2-.53.41-.81.65a6.43,6.43,0,0,0,.93-.16,30.29,30.29,0,0,0,7.47-2.44,30.63,30.63,0,0,0,7.47-4.67A31.2,31.2,0,0,0,1279.61,918.35Zm26.14,177a31,31,0,0,0-4.71-7.47,30.79,30.79,0,0,0,2.64,8.41,29.81,29.81,0,0,0,4.67,7.47A31.16,31.16,0,0,0,1305.75,1095.39Zm62.64,13.56a31.37,31.37,0,0,0-4.67-7.43,31.16,31.16,0,0,0,2.6,8.41c.16.36.37.73.57,1.09.53-.69,1-1.38,1.54-2Zm-29.88-118.54a32.49,32.49,0,0,0-4.67-7.43,31.56,31.56,0,0,0,2.6,8.4,30.63,30.63,0,0,0,4.67,7.47A30.69,30.69,0,0,0,1338.51,990.41Zm-30.2-108.92a30.63,30.63,0,0,0-4.67-7.47,30.34,30.34,0,0,0,2.6,8.4,31.89,31.89,0,0,0,4.67,7.47A29.84,29.84,0,0,0,1308.31,881.49Z"/><path class="cls-11" d="M1427.52,1083.21c-7.3,3.38-239.6-1.36-239.6-1.36s-7.75-6.69-4.93-22.53c2.54-14.26,24.09-84.12,24.09-84.12s-14.26-18.92-8.35-42.35c10.32-41,55.79-93.86,59.94-97.41,16.66-14.26,37.92-11.54,49.16-6.31,53.87,25,108.33,165,123.71,220.33A45.33,45.33,0,0,1,1427.52,1083.21Z"/><path class="cls-12" d="M1299.5,958.91a31.76,31.76,0,0,0-8.57-2,29.26,29.26,0,0,0,7.76,4.1,32.47,32.47,0,0,0,8.6,2A30.17,30.17,0,0,0,1299.5,958.91Zm39.7,108a30.57,30.57,0,0,0-8.6-1.94,30.8,30.8,0,0,0,7.79,4.1,32.06,32.06,0,0,0,8.61,2A31.88,31.88,0,0,0,1339.2,1066.93ZM1228,908a32.14,32.14,0,0,0-7.15-1.79,3.69,3.69,0,0,0-.2.69,35.9,35.9,0,0,0,6.54,3.25,31.66,31.66,0,0,0,8.6,1.95A31.79,31.79,0,0,0,1228,908Zm169.29,84.48a30,30,0,0,0-8.57-1.95,30.33,30.33,0,0,0,7.79,4.1,31.16,31.16,0,0,0,8.57,2A30,30,0,0,0,1397.26,992.52Zm-139.9,74.41a30.62,30.62,0,0,0-8.56-1.94,30.56,30.56,0,0,0,7.75,4.1,32.06,32.06,0,0,0,8.61,2A31.18,31.18,0,0,0,1257.36,1066.93ZM1366.12,894.4h0c-.81-.33-1.63-.69-2.48-1a30,30,0,0,0-8.56-1.94,32.13,32.13,0,0,0,7.79,4.1,33.58,33.58,0,0,0,4.75,1.38C1367.05,896.06,1366.57,895.25,1366.12,894.4ZM1332.46,848a29.29,29.29,0,0,0-1.78,8,30.4,30.4,0,0,0,3.49-6.26C1333.6,849.17,1333,848.57,1332.46,848Zm71,224.78a31.07,31.07,0,0,0-2,8.57,28.88,28.88,0,0,0,4.1-7.8,31.82,31.82,0,0,0,2-8.56A30.17,30.17,0,0,0,1403.43,1072.78Zm-104.34-40.6a30,30,0,0,0-1.94,8.57,33.78,33.78,0,0,0,6-16.36A32.13,32.13,0,0,0,1299.09,1032.18Zm38.41-99.58a30.23,30.23,0,0,0-2,8.61,32,32,0,0,0,4.1-7.8,30.63,30.63,0,0,0,1.95-8.56A31.21,31.21,0,0,0,1337.5,932.6Zm-128.41,52a30.34,30.34,0,0,0-1.95,8.56,30.77,30.77,0,0,0,4.1-7.79,29.66,29.66,0,0,0,2-8.57A32.38,32.38,0,0,0,1209.09,984.65Zm35.36-123.09a32.47,32.47,0,0,0-2,8.6,30.32,30.32,0,0,0,4.14-7.79,31.65,31.65,0,0,0,2-8.61A32.77,32.77,0,0,0,1244.45,861.56Zm35.16-26.47a30.79,30.79,0,0,0-7.47,4.71,31.1,31.1,0,0,0,8.44-2.64,30,30,0,0,0,7.43-4.67A31.2,31.2,0,0,0,1279.61,835.09Zm87.28,196.28a30.63,30.63,0,0,0-7.47,4.67,30.13,30.13,0,0,0,8.4-2.6,30.63,30.63,0,0,0,7.47-4.67A31.2,31.2,0,0,0,1366.89,1031.37Zm-111.19-16.68a31.56,31.56,0,0,0-7.47,4.67,31.11,31.11,0,0,0,8.4-2.6,30.63,30.63,0,0,0,7.47-4.67A30.42,30.42,0,0,0,1255.7,1014.69Zm23.91-96.34a31.89,31.89,0,0,0-7.47,4.67,34.14,34.14,0,0,0,15.87-7.27A31.2,31.2,0,0,0,1279.61,918.35Zm110.5,26.06a32.3,32.3,0,0,0-4.67-7.47,34.11,34.11,0,0,0,7.27,15.88A30.72,30.72,0,0,0,1390.11,944.41Zm-181.95,97.31a30.82,30.82,0,0,0-4.67-7.47,34.11,34.11,0,0,0,7.27,15.88A30.72,30.72,0,0,0,1208.16,1041.72Zm38.4-77.33a31.89,31.89,0,0,0-4.67-7.47,34.14,34.14,0,0,0,7.27,15.87A31.2,31.2,0,0,0,1246.56,964.39Zm175.18,72.67a32.49,32.49,0,0,0-4.67-7.43,30.85,30.85,0,0,0,2.6,8.4,30.29,30.29,0,0,0,4.66,7.47A30.81,30.81,0,0,0,1421.74,1037.06Zm-83.23-46.65a32.49,32.49,0,0,0-4.67-7.43,31.56,31.56,0,0,0,2.6,8.4,30.63,30.63,0,0,0,4.67,7.47A30.69,30.69,0,0,0,1338.51,990.41Zm-30.2-108.92a30.63,30.63,0,0,0-4.67-7.47,30.34,30.34,0,0,0,2.6,8.4,31.89,31.89,0,0,0,4.67,7.47A29.84,29.84,0,0,0,1308.31,881.49Z"/><path class="cls-5" d="M1287.17,976.5a235.47,235.47,0,0,0-34.93-.59c-5.78.41-11.5,1.09-17.24,1.89-2.86.4-5.71.7-8.59,1a37.37,37.37,0,0,1-9,.06.21.21,0,0,0-.07.41,63.42,63.42,0,0,0,8.44,1.37,60.51,60.51,0,0,0,8.3,0c5.87-.37,11.71-1,17.58-1.42,11.82-.85,23.65-1.7,35.51-1.7A.49.49,0,0,0,1287.17,976.5Z"/><path class="cls-5" d="M1313.56,991.75a252.26,252.26,0,0,0-28.08-6.51c-4.75-.81-9.5-1.33-14.3-1.73q-3.43-.28-6.88-.46c-2.52-.14-5.07.07-7.59-.1-.26,0-.33.38-.06.41,2.37.23,4.71.86,7.07,1.23l7.1,1.09c4.74.75,9.47,1.54,14.22,2.24,9.5,1.39,19,2.88,28.4,4.61C1314,992.62,1314,991.88,1313.56,991.75Z"/><path class="cls-7" d="M1312.72,758.64s31.22-29.72,11.72-58.67c-18.09-26.85-43.78-31.38-59.81-26.66,0,0,36.21,10.29,44.6,32.57S1312.72,758.64,1312.72,758.64Z"/><path class="cls-10" d="M1302.11,836.83c-1,3.91-20.67,28.9-38.66,27.48-5.85-.47-4.71-32.56-4.71-32.56l-.46-2.38-6.37-33.44,39.79-23.78,5.74-3.13s1.14,9.26,2.45,20.8c.06.54.12,1.08.18,1.65s.19,1.26.24,1.88c.22,1.72.44,3.48.61,5.23.14,1.34.29,2.64.38,4s.23,2.78.37,4.2C1302.67,820.77,1302.54,835.17,1302.11,836.83Z"/><path class="cls-5" d="M1299.89,789.82a68.29,68.29,0,0,1-41.61,39.55l-6.37-33.44,39.79-23.78,5.74-3.13S1298.58,778.28,1299.89,789.82Z"/><path class="cls-10" d="M1206.08,738.3c-11.69,58.58,22.07,72.2,34.71,74.71,11.47,2.27,50.81,8.56,68.49-48.49s-5.86-81-31.82-87.6S1217.77,679.73,1206.08,738.3Z"/><path class="cls-5" d="M1227.28,730.75a37.73,37.73,0,0,0,4.11-.33c1.57-.15,2.84-.1,4.13-1.14a2.14,2.14,0,0,0,.32-2.58c-1.12-1.67-3.09-2-5-1.88a7.78,7.78,0,0,0-5.16,2.1C1224.19,728.27,1225.41,730.73,1227.28,730.75Z"/><path class="cls-5" d="M1266.3,736a40.62,40.62,0,0,1-3.89-1.35c-1.49-.54-2.74-.81-3.71-2.14a2.12,2.12,0,0,1,.33-2.58c1.5-1.34,3.49-1.13,5.31-.56a7.77,7.77,0,0,1,4.47,3.33C1269.91,734.36,1268.11,736.44,1266.3,736Z"/><path class="cls-5" d="M1257,746.41c.06-.14.29.24.26.41-.74,4-.91,8.71,2.52,10.59.11.06.07.26-.06.22C1255.37,756.33,1255.66,750.09,1257,746.41Z"/><path class="cls-5" d="M1261.23,742.76c6.54.49,5.08,13.54-1,13.08S1255.75,742.35,1261.23,742.76Z"/><path class="cls-5" d="M1263.71,743.74c1.06.86,2,2.29,3.39,2.58,1.57.33,2.92-.9,4.11-2.1.12-.12.22,0,.21.18-.25,2.5-1.49,5-4.22,5-2.48.07-4-2.34-4.33-4.92C1262.81,744,1263.29,743.39,1263.71,743.74Z"/><path class="cls-5" d="M1233.32,742c0-.16-.34.16-.35.33-.29,4-1.31,8.65-5.11,9.62-.12,0-.13.23,0,.22C1232.4,752,1233.69,745.88,1233.32,742Z"/><path class="cls-5" d="M1230.15,737.39c-6.46-1.17-8.33,11.82-2.35,12.91S1235.56,738.37,1230.15,737.39Z"/><path class="cls-5" d="M1227.31,737.86c-1.12.54-2.32,1.64-3.56,1.55-1.43-.11-2.28-1.67-3-3.15-.07-.15-.19-.06-.22.11-.42,2.48,0,5.18,2.34,6,2.12.75,4-1.15,5-3.54C1228,738.39,1227.76,737.64,1227.31,737.86Z"/><path class="cls-5" d="M1250.21,780.6c-1,.88-2.09,2.13-3.57,2.16a10.92,10.92,0,0,1-4.29-1.31c-.13-.06-.27.06-.19.19a5.48,5.48,0,0,0,5,2.55c1.86-.2,2.88-1.73,3.43-3.38C1250.67,780.58,1250.36,780.47,1250.21,780.6Z"/><path class="cls-5" d="M1235.14,763.92s-1.57,5.93-1.93,8.77c0,.27.64.48,1.6.65,0,0,.07,0,.11,0a13.64,13.64,0,0,0,13.76-3.42.3.3,0,0,0-.38-.45c-4.09,2.29-8.32,2.49-12.78,2-.1-.81,3-10.06,2.6-10.15-1.54-.32-4.73.36-6.64.66,2.93-12.43,7.83-24.3,10.56-36.73a.39.39,0,0,0-.72-.27c-6,12.07-9.7,26.31-13.06,39.08C1227.83,765.67,1234,764.26,1235.14,763.92Z"/><path class="cls-5" d="M1235.23,772.33a16.45,16.45,0,0,0,5.56,6.23,7.49,7.49,0,0,0,4.38,1.1c3.36-.25,4-3.18,3.86-5.81a17.6,17.6,0,0,0-.72-4.11A21.39,21.39,0,0,1,1235.23,772.33Z"/><path class="cls-9" d="M1240.79,778.56a7.49,7.49,0,0,0,4.38,1.1c3.36-.25,4-3.18,3.86-5.81C1245.53,773.57,1241.7,775.27,1240.79,778.56Z"/><path class="cls-5" d="M1309.1,758.63c-6.44-.58-22.68-18.86-22.22-50,0,0,1.52,28,3.49,32.18s-9.07-10.28-9.06-35.43c0,0-14.22,9.61-26.19,12.57s-19.22,2.61-20,1.73,16.81-5.84,21.7-11.14c0,0-32,13.69-46.6,14.34-1.69.08-2.61-34.59,20.33-48.57s58.08,3,67.37,12.54c0,0,11.2,1.95,22.9,19S1316,759.26,1309.1,758.63Z"/><path class="cls-10" d="M1299.07,763.1s15-17.09,22.91-11.54-4.83,31.33-15.11,33.91-12.85-6.88-12.85-6.88Z"/><path class="cls-5" d="M1318.15,758.86c.16,0,.16.23,0,.27-7.23,2-11.59,8-14.88,14.42,2.35-2.33,5.3-3.42,8.46-.59.17.14,0,.41-.22.34-2.77-.92-4.87-.65-7,1.41a29.49,29.49,0,0,0-3.87,5.13c-.39.58-1.47.13-1.15-.56l.07-.15C1300.35,770.29,1308.57,758.7,1318.15,758.86Z"/><path class="cls-10" d="M1329.13,880.6c75.27-16.27,192.51-60.85,200.43-87.35,5.19-17.34,3.67-100.43-5.31-172.07-1.78-14.24-111.71,5.46-108.3,20.41,6.72,29.49,17.66,110.42,16.76,116-1.2,7.42-74.8,44.91-119.11,78.29C1274.65,865.19,1300.35,886.82,1329.13,880.6Z"/><path class="cls-10" d="M1523.72,626.05c1.14-12.11,1.89-68.74-1.49-84.32s-16.38-59.74-28.58-58.36-9.43,14.61-9.43,14.61-8.43-17.77-20.59-15.26-7.16,22.94-7.16,22.94-10-17.62-21.94-14.25-3.49,23.08-3.49,23.08-8.39-16.54-17.06-9.62c-10.43,8.32,8.47,37.06,10.92,54.55.56,4,5.52,81.28,5.52,81.28Z"/><path class="cls-5" d="M1430.35,512.79c13.85,21.16,16.25,32.82,16.66,57.72,0,.49.73.59.77.08,1.82-24.42.92-39.48-16.44-58.53C1430.49,511.13,1429.69,511.78,1430.35,512.79Z"/><path class="cls-5" d="M1455.34,504c12.47,23.24,15.18,35.87,17.53,61.91,0,.37.66.36.66,0-.17-25.75-1.41-40.75-16.92-62.33C1455.91,502.58,1454.76,502.94,1455.34,504Z"/><path class="cls-5" d="M1484.3,499.31c10.45,23.38,14,37.09,13.06,62.67a.47.47,0,0,0,.93.09c3.52-26-.81-43.13-13.24-63C1484.2,497.72,1483.64,497.84,1484.3,499.31Z"/><path class="cls-10" d="M1430.4,656.61s-22-22.85-29.4-35-18.45-67.72-6.59-70.78c15.32-3.95,28,26.87,32.23,42.77,0,0,35.42-9.17,49.3,11S1430.4,656.61,1430.4,656.61Z"/><path class="cls-5" d="M1399,551.1c16.56,6.48,20.78,27.71,26,42.83a1.46,1.46,0,0,0,2.28.76c15.11-2.86,37.24-2.48,48.82,8.88a.37.37,0,0,0,.56-.48c-10.76-13.88-32.48-16-48.82-11.83-5.16-15.59-10.32-36.71-28.83-40.32A.08.08,0,0,0,1399,551.1Z"/><path class="cls-11" d="M1414.75,665.11l115.89-13.21s12.6,13.72,13.27,25-2,116.59-17.32,131.65S1377,877.65,1324.44,883.13s-36-35.29-5.08-53.78,107.55-72.15,109.8-75.75-17.1-42.75-16.42-58.28S1414.75,665.11,1414.75,665.11Z"/><path class="cls-12" d="M1536,680.86c-19.81,1.57-14.16.76-33.94,2.62-9.68.91-73.29,7-82.11,9.88-.2.06-.15.49,0,.52,9.24,1,72.7-6.53,82.35-7.68,19.73-2.35,14-2,33.73-4.6C1536.42,681.55,1536.34,680.83,1536,680.86Z"/><path class="cls-5" d="M1326.86,887a67.33,67.33,0,0,1,13.75-6.41,65.31,65.31,0,0,1,14.65-3.5,67.6,67.6,0,0,1-13.75,6.41A66.22,66.22,0,0,1,1326.86,887Z"/><path class="cls-5" d="M1334,891a23.17,23.17,0,0,1,4.79-6.23,24.31,24.31,0,0,1,3.06-2.47,15.88,15.88,0,0,1,3.53-1.87,42.72,42.72,0,0,1-5.19,5.81A34.47,34.47,0,0,1,1334,891Z"/><path class="cls-12" d="M1308.31,881.49a30.63,30.63,0,0,0-4.67-7.47,30.34,30.34,0,0,0,2.6,8.4l.24.49c.81.12,1.67.24,2.56.33C1308.8,882.63,1308.55,882.06,1308.31,881.49Zm24.32-34a29.66,29.66,0,0,0-2,8.57,32.38,32.38,0,0,0,4.1-7.8,31,31,0,0,0,2-8.56A30.77,30.77,0,0,0,1332.63,847.47Zm102-110.54a30.63,30.63,0,0,0-4.67-7.47,34.25,34.25,0,0,0,7.26,15.87A30.64,30.64,0,0,0,1434.65,736.93Zm53-65.73a31.52,31.52,0,0,0-4.66-7.47,30.12,30.12,0,0,0,2.59,8.4,30.63,30.63,0,0,0,4.67,7.47A30.85,30.85,0,0,0,1487.66,671.2Zm39,64.39a30.63,30.63,0,0,0-4.67-7.47,34.14,34.14,0,0,0,7.27,15.87A31,31,0,0,0,1526.64,735.59Zm-25.5,70.47a30.82,30.82,0,0,0-4.67-7.47,34,34,0,0,0,7.27,15.87A30.76,30.76,0,0,0,1501.14,806.06Zm-132.46,1.5a31,31,0,0,0-4.59-7.34.23.23,0,0,0-.08-.13.27.27,0,0,0,0,.17,31.57,31.57,0,0,0,2.56,8.24,30.47,30.47,0,0,0,4.66,7.47A30.29,30.29,0,0,0,1368.68,807.56Zm9.13,50.3a30.63,30.63,0,0,0-7.47,4.67,30.32,30.32,0,0,0,8.4-2.6,30.63,30.63,0,0,0,7.47-4.67A31.11,31.11,0,0,0,1377.81,857.86Zm71.33-78.35a30.63,30.63,0,0,0-7.47,4.67,34.14,34.14,0,0,0,15.87-7.27A30.76,30.76,0,0,0,1449.14,779.51Zm72.34-5.84a32.32,32.32,0,0,0-7.43,4.66,33.49,33.49,0,0,0,15.83-7.26A30.85,30.85,0,0,0,1521.48,773.67Zm-75.67-73.2a32.22,32.22,0,0,0-7.47,4.67,33.66,33.66,0,0,0,15.87-7.27A31.2,31.2,0,0,0,1445.81,700.47Zm91.26-40.19a29.86,29.86,0,0,0-7.63,2.44,30.29,30.29,0,0,0-7.47,4.66,31.18,31.18,0,0,0,8.4-2.59,30.18,30.18,0,0,0,6.9-4.23A1.69,1.69,0,0,0,1537.07,660.28Zm-83.63,166a31.82,31.82,0,0,0-2,8.56,30.32,30.32,0,0,0,4.14-7.79,31.71,31.71,0,0,0,2-8.57A31.66,31.66,0,0,0,1453.44,826.24ZM1477,721.58a30.23,30.23,0,0,0-2,8.61,32,32,0,0,0,4.1-7.8,32.49,32.49,0,0,0,2-8.56A31.21,31.21,0,0,0,1477,721.58Zm-63.37,91a30.31,30.31,0,0,0-8.61-2,33.83,33.83,0,0,0,16.36,6.05A31.38,31.38,0,0,0,1413.58,812.6Zm75.1-56a32.13,32.13,0,0,0-8.57-2,29.55,29.55,0,0,0,7.76,4.1,32.07,32.07,0,0,0,8.6,2A32.13,32.13,0,0,0,1488.68,756.57Zm-51.52-88.67a30.92,30.92,0,0,0-8.61-1.95,31.69,31.69,0,0,0,7.8,4.1,30.29,30.29,0,0,0,8.56,2A31.89,31.89,0,0,0,1437.16,667.9Zm78.72,31.92a30,30,0,0,0-8.57-2,31.69,31.69,0,0,0,7.8,4.1,30,30,0,0,0,8.56,1.95A31.09,31.09,0,0,0,1515.88,699.82Z"/><path class="cls-10" d="M444.25,839c-2-9.38-3.77-18.88-5-28.43a264.24,264.24,0,0,1-5.68-41.06c-1.24-22.75-1.26-50.35,18.58-65.57,9.14-7,20.37-10.83,31.47-13.39,11.59-2.67,24.14-4.24,35.46.43a30.55,30.55,0,0,1,11.62,8.3c8.09,1.88,16.3,4.16,23.32,8.59,8.89,3.4,15.29,12.24,19.65,20.29,5.24,9.69,8.28,20.36,10.8,31,2.35,10,4,19.82,2.43,30-1.43,8.91-4.62,17.38-7.49,25.88-3.48,10.31-6.66,20.79-6.42,31.78,0,.36-.55.42-.57,0-.9-17.55,7.46-33.7,11.38-50.42a68.46,68.46,0,0,0,.67-28.92,167,167,0,0,0-9.12-32.32c-3.62-8.8-9.08-18.68-17.2-24.38l.41.33c9.22,7.9,13.75,19.67,17.12,31,3.76,12.63,6.49,25.75,6.45,39,0,12.13-3,23.75-6.35,35.33s-6.92,23.19-7.13,35.27c-.22,12.75,3.82,25,8.09,36.82,4.11,11.45,8.64,23,9.88,35.21A53,53,0,0,1,580,955.63c-10.24,17.84-34.39,33-54.48,21.55-5-2.87-9.33-6.84-13.44-10.86a169.47,169.47,0,0,1-12.49-13.64A207.78,207.78,0,0,1,477.88,920c-12.42-22.88-21.3-47.54-28.9-72.39-1.88-6.11-3.66-12.27-5.3-18.47a380.4,380.4,0,0,0,10.79,42c8,24.8,17.95,49.82,32.94,71.27A169.44,169.44,0,0,0,500,958.26c4.93,5.51,10.35,10.42,15.62,15.57a.35.35,0,0,1-.43.54c-9.92-7.33-18.56-17.13-26-26.92a183.14,183.14,0,0,1-19.76-33.29A354,354,0,0,1,444.25,839Z"/><path class="cls-13" d="M548.26,884.44c25.32,51.8,55.77,115.19,81.46,176.87,11.23,27,38.95,83.23,45.88,97.83,9.14,19.23-93,44.45-97.79,30.65-3.14-9-16.48-61.62-26.68-106.36-13.11-57.49-35.22-133.2-32.71-186.58C520.65,849.17,538.45,864.37,548.26,884.44Z"/><path class="cls-5" d="M605.2,970.78l-77.78,19.7s-12.94-60.92-14-98.61,12.83-50.77,43.24-4.79S605.2,970.78,605.2,970.78Z"/><path class="cls-4" d="M591.28,974.32,527.43,990.5s-13-61-14.06-98.64c-.62-21.17,3.53-34.6,12.63-34.09C540.86,883.57,574.89,943,591.28,974.32Z"/><path class="cls-4" d="M528.45,976.1q16-5.67,32.21-10.54c5.33-1.6,10.65-3.28,16-4.77,5.55-1.55,11.2-2.71,16.74-4.27.39-.11.61.47.22.6-5.3,1.69-10.47,3.75-15.76,5.48-5.45,1.78-11,3.35-16.47,5q-16.27,4.89-32.77,9C528.31,976.66,528.13,976.21,528.45,976.1Z"/><path class="cls-5" d="M372.68,1054.27l189.85,8.19,5-55.16s17.21-20.93,17.21-45.09c0-25.69-45.88-95.26-49.64-99.21-15.15-15.86-41.16-18.28-54.49-8.15C409.28,909,372.68,1054.27,372.68,1054.27Z"/><path class="cls-5" d="M372.68,1054.27l189.85,8.19,5-55.16s17.21-20.93,17.21-45.09c0-25.69-45.88-95.26-49.64-99.21-15.15-15.86-41.16-18.28-54.49-8.15C409.28,909,372.68,1054.27,372.68,1054.27Z"/><path class="cls-13" d="M448.41,889.71c-75-17.54-182.26-49.76-191-77.12-8.08-25.24-2-100.47,8.23-172,2-14.2,111.61,7.35,107.94,22.25-7.22,29.37-22,98.45-18.73,115.67,1.41,7.38,70,46.39,113.71,80.51C507,889.06,477.07,896.41,448.41,889.71Z"/><path class="cls-13" d="M266.06,645.51c-.93-12.12-.73-68.76,2.92-84.28s17.39-59.45,29.56-57.86,9.18,14.76,9.18,14.76,8.74-17.62,20.85-14.91,6.78,23.06,6.78,23.06,10.29-17.44,22.17-13.87,3.1,23.13,3.1,23.13,8.67-16.39,17.22-9.33c10.29,8.5-9.1,36.91-11.85,54.35-.62,4-6.9,81.19-6.9,81.19Z"/><path class="cls-5" d="M361.34,533.85c-14.21,20.93-16.81,32.54-17.64,57.43,0,.49-.74.58-.77.07-1.41-24.45-.25-39.49,17.43-58.24C361.23,532.19,362,532.85,361.34,533.85Z"/><path class="cls-5" d="M336.5,524.64c-12.86,23-15.79,35.6-18.58,61.61,0,.37-.66.34-.65,0,.6-25.74,2.1-40.71,18-62C336,523.21,337.09,523.59,336.5,524.64Z"/><path class="cls-5" d="M307.62,519.46c-10.84,23.2-14.65,36.84-14.11,62.44a.47.47,0,0,1-.94.07c-3.08-26,1.54-43.11,14.31-62.76C307.75,517.87,308.3,518,307.62,519.46Z"/><path class="cls-13" d="M358.85,677.65s22.35-22.48,30-34.52,19.59-67.39,7.78-70.65c-15.24-4.21-28.44,26.38-32.94,42.21,0,0-35.26-9.77-49.48,10.14S358.85,677.65,358.85,677.65Z"/><path class="cls-5" d="M392.05,572.69c-16.67,6.19-21.24,27.35-26.76,42.38a1.47,1.47,0,0,1-2.3.72c-15.05-3.11-37.19-3.11-49,8.05a.37.37,0,0,1-.55-.49c11-13.69,32.75-15.46,49-11,5.41-15.5,10.93-36.52,29.5-39.82A.08.08,0,1,1,392.05,572.69Z"/><path class="cls-5" d="M354.25,870.74l42.25-71.26s52,34.32,79.2,60.4,26.49,45.17-27.44,33.75S354.25,870.74,354.25,870.74Z"/><path class="cls-4" d="M405.86,810.45q-7.41,15.24-15.55,30.11c-2.68,4.89-5.29,9.81-8.07,14.64-2.86,5-6.07,9.79-8.92,14.79-.2.35-.77.09-.58-.28,2.59-4.92,4.83-10,7.38-15s5.47-10.09,8.23-15.12q8.14-14.91,17-29.4C405.56,810,406,810.15,405.86,810.45Z"/><path class="cls-7" d="M584.71,962.21c0,24.16-17.21,45.1-17.21,45.1l-5,55.13-189.82-8.16A626.17,626.17,0,0,1,408,956.45c3.69.37,30.45,19.22,66.42-1.72,21.64-12.61,24.28-53.62,24.28-53.62l57.44-5.48C569.73,918.53,584.71,947.51,584.71,962.21Z"/><path class="cls-14" d="M584.71,962.21c0,24.16-17.21,45.1-17.21,45.1l-5,55.13-189.82-8.16A626.17,626.17,0,0,1,408,956.45c3.69.37,30.45,19.22,66.42-1.72,21.64-12.61,24.28-53.62,24.28-53.62l57.44-5.48C569.73,918.53,584.71,947.51,584.71,962.21Z"/><polygon class="cls-7" points="498.69 901.11 477.07 857.13 480.56 854.85 502.87 900.71 498.69 901.11"/><polygon class="cls-14" points="498.69 901.11 477.07 857.13 480.56 854.85 502.87 900.71 498.69 901.11"/><polygon class="cls-7" points="550.86 896.15 527.63 857.13 532.74 859.07 554.91 895.76 550.86 896.15"/><polygon class="cls-14" points="550.86 896.15 527.63 857.13 532.74 859.07 554.91 895.76 550.86 896.15"/><path class="cls-7" d="M507.17,907.61a3.43,3.43,0,1,1-3.43-3.43A3.43,3.43,0,0,1,507.17,907.61Z"/><path class="cls-7" d="M557,899.83c.87,1.69.45,3.63-.94,4.34s-3.2-.08-4.07-1.77-.44-3.62.94-4.33A3.17,3.17,0,0,1,557,899.83Z"/><path class="cls-5" d="M507.92,992.61A177.38,177.38,0,0,1,537.8,997c4.89,1.22,9.71,2.7,14.52,4.31,2.4.8,4.8,1.5,7.22,2.19a28.05,28.05,0,0,0,7.71,1.34c.23,0,.25.4,0,.41a37.34,37.34,0,0,1-14.44-1.06c-5-1.19-9.89-2.64-14.85-3.89-10-2.52-20-5-30.14-6.7C507.37,993.49,507.45,992.57,507.92,992.61Z"/><path class="cls-13" d="M486,861.18c1.66,3.65,24.87,24.84,42.19,20.54,5.64-1.42-.69-32.54-.69-32.54l.06-2.41.78-33.66-42.69-16.75-6.12-2.12s.4,9.22,1,20.7c0,.54,0,1.07.09,1.64s0,1.26.07,1.87c.06,1.72.14,3.47.26,5.21.08,1.33.15,2.62.28,4s.23,2.76.33,4.15C482.86,845.59,485.33,859.62,486,861.18Z"/><path class="cls-5" d="M480.54,814.94a67.57,67.57,0,0,0,47,31.83l.78-33.66-42.69-16.75-6.12-2.12S479.94,803.46,480.54,814.94Z"/><path class="cls-13" d="M567.57,757.8C582,815.09,549.36,830.23,537,833.34c-11.22,2.82-49.78,11-70.09-44.49s1.74-80.34,27.06-88.15S553.09,700.5,567.57,757.8Z"/><path class="cls-10" d="M545.08,750.8A37.92,37.92,0,0,1,541,751c-1.58,0-2.84.24-4.23-.65a2.13,2.13,0,0,1-.62-2.52c.91-1.79,2.84-2.32,4.74-2.45a7.77,7.77,0,0,1,5.38,1.49C547.85,748,546.92,750.57,545.08,750.8Z"/><path class="cls-10" d="M505.2,759.58a38.45,38.45,0,0,0,3.71-1.8c1.42-.71,2.62-1.12,3.44-2.56a2.13,2.13,0,0,0-.63-2.52c-1.65-1.15-3.6-.72-5.34.06a7.77,7.77,0,0,0-4.05,3.83C501.43,758.38,503.46,760.23,505.2,759.58Z"/><path class="cls-5" d="M516.38,768.71c-.07-.14-.24.28-.19.44,1.32,3.84,2.18,8.48-.93,10.85-.1.07,0,.26.09.21C519.46,778.28,518.25,772.15,516.38,768.71Z"/><path class="cls-5" d="M511.67,765.72c-6.4,1.45-3,14.14,2.89,12.8S517,764.5,511.67,765.72Z"/><path class="cls-5" d="M509.35,767.05c-.92,1-1.67,2.57-3,3.06-1.5.56-3-.46-4.37-1.47-.14-.1-.22,0-.18.2.61,2.45,2.21,4.69,4.91,4.36,2.47-.3,3.6-2.9,3.56-5.51C510.29,767.21,509.72,766.64,509.35,767.05Z"/><path class="cls-5" d="M538.87,761.05c0-.16.36.12.39.28.76,4,2.31,8.45,6.19,9,.12,0,.16.22,0,.23C541,770.89,539,765,538.87,761.05Z"/><path class="cls-5" d="M541.49,756.11c6.27-1.91,9.64,10.78,3.83,12.55S536.23,757.72,541.49,756.11Z"/><path class="cls-5" d="M544.36,756.24c1.18.41,2.49,1.37,3.71,1.13,1.41-.28,2.08-1.92,2.61-3.47.06-.16.19-.08.24.08.71,2.41.58,5.15-1.63,6.23-2,1-4.13-.67-5.35-2.94C543.72,756.85,543.88,756.08,544.36,756.24Z"/><path class="cls-5" d="M525.89,801.54c1.13.76,2.32,1.87,3.8,1.72a10.79,10.79,0,0,0,4.11-1.8.14.14,0,0,1,.21.18,5.49,5.49,0,0,1-4.68,3.11c-1.86,0-3.05-1.38-3.79-3C525.43,801.57,525.72,801.43,525.89,801.54Z"/><path class="cls-5" d="M538.91,783.22s2.26,5.7,2.94,8.48c.06.26-.58.55-1.51.84,0,0-.06.05-.11,0a13.62,13.62,0,0,1-14.06-1.8c-.26-.23,0-.6.32-.49,4.33,1.8,8.56,1.5,12.93.51,0-.82-4.19-9.63-3.76-9.78,1.49-.5,4.74-.2,6.67-.11-4.36-12-10.61-23.23-14.77-35.25a.39.39,0,0,1,.68-.36c7.39,11.29,12.71,25,17.53,37.29C546.38,784.11,540.14,783.42,538.91,783.22Z"/><path class="cls-5" d="M539.81,791.58a16.61,16.61,0,0,1-4.8,6.84,7.42,7.42,0,0,1-4.22,1.59c-3.37.15-4.33-2.69-4.51-5.31a17.89,17.89,0,0,1,.23-4.17A21.4,21.4,0,0,0,539.81,791.58Z"/><path class="cls-9" d="M535,798.42a7.42,7.42,0,0,1-4.22,1.59c-3.37.15-4.33-2.69-4.51-5.31C529.72,794,533.72,795.26,535,798.42Z"/><path class="cls-10" d="M469.91,786.88c9.52-1.23,7.57-21.32,7.57-21.32s19-3.92,19.61-32.61c0,0,2.25,12.83-3.7,24.4,0,0,32.82-10.57,41.09-41.62,0,0-2.65,15.49-6.87,21.68,0,0,13.25-6.87,17.73-19.73,0,0,9.27,15,14.72,18.52,0,0-13.65-58.45-66.76-40.83,0,0-33.59,9.37-40.19,38.9S469.91,786.88,469.91,786.88Z"/><path class="cls-13" d="M480,786.49s-15.69-16.15-23.21-10.26S463.11,807,473.4,809s12.35-7.44,12.35-7.44Z"/><path class="cls-5" d="M460.93,783.25c-.16,0-.15.23,0,.27,7.25,1.65,11.85,7.37,15.42,13.5-2.43-2.18-5.41-3.12-8.39-.16-.16.15.06.4.24.33,2.69-1.05,4.78-.89,7,1a29.91,29.91,0,0,1,4.08,4.89c.42.55,1.46,0,1.12-.61l-.09-.15C479.09,793.65,470.38,782.61,460.93,783.25Z"/></g></svg>