<svg id="Слой_1" data-name="Слой 1" xmlns="http://www.w3.org/2000/svg" viewBox="0 0 1800 1000"><defs><style>.cls-1{fill:#4a148c;}.cls-2{fill:#ececec;}.cls-3{fill:#ffc800;}.cls-4{opacity:0.11;}.cls-5{opacity:0.1;}.cls-6{fill:#a8a8a8;}.cls-7{fill:#306;}.cls-8{opacity:0.4;}.cls-10,.cls-9{opacity:0.2;}.cls-11,.cls-13{fill:#fff;}.cls-11{opacity:0.3;}.cls-12{fill:#ffaba1;}.cls-14{fill:#1a2e35;}.cls-15{fill:#fb6a55;}.cls-16{fill:#f197ba;}.cls-17{fill:#c36358;}.cls-18{fill:#c8c8c8;}.cls-19{fill:#ed776a;}.cls-20{fill:#fffdfc;}</style></defs><path class="cls-1" d="M108.36,119.76a6.86,6.86,0,0,1,7.16,0c.6.37,1.22.72,1.84,1s1.26.66,1.9,1a6.81,6.81,0,0,1,4,5.92l.28,8.8,28.68-.89-.27-8.8a6.84,6.84,0,0,1,3.6-6.19,37.91,37.91,0,0,0,3.64-2.25,6.84,6.84,0,0,1,7.13-.45l7.74,4.15,13.57-25.3-7.75-4.15a6.85,6.85,0,0,1-3.56-6.19,37.92,37.92,0,0,0-.14-4.27,6.84,6.84,0,0,1,3.16-6.43l7.49-4.64L171.69,46.74l-7.53,4.66a6.81,6.81,0,0,1-7.12-.06c-.6-.36-1.21-.71-1.84-1s-1.25-.65-1.89-.95a6.86,6.86,0,0,1-4-5.94l-.26-8.82-28.69.9.28,8.78a6.83,6.83,0,0,1-3.6,6.19,39.44,39.44,0,0,0-3.65,2.26,6.8,6.8,0,0,1-7.12.46L98.52,49,85,74.33l7.75,4.15a6.84,6.84,0,0,1,3.56,6.19A40.82,40.82,0,0,0,96.39,89a6.83,6.83,0,0,1-3.16,6.42L85.76,100l15.13,24.39Zm7.19-45.3a23.51,23.51,0,1,1,9.63,31.83A23.54,23.54,0,0,1,115.55,74.46Z"/><path class="cls-1" d="M463.94,617.52a4.78,4.78,0,0,1,2.34,4.44c0,.49,0,1,0,1.48s0,1,0,1.49a4.78,4.78,0,0,1-2.33,4.42l-5.35,3.09,10,17.41,5.35-3.08a4.78,4.78,0,0,1,5,.18c.84.54,1.7,1,2.59,1.5a4.77,4.77,0,0,1,2.64,4.25v6.15h20.12V652.7a4.77,4.77,0,0,1,2.64-4.25c.89-.46,1.75-1,2.59-1.5a4.78,4.78,0,0,1,5-.18l5.35,3.08,10-17.41-5.37-3.1a4.79,4.79,0,0,1-2.33-4.42c0-.49,0-1,0-1.48s0-1,0-1.48a4.8,4.8,0,0,1,2.34-4.44l5.36-3.08L520,597l-5.33,3.08a4.76,4.76,0,0,1-5-.17,28,28,0,0,0-2.61-1.5,4.77,4.77,0,0,1-2.64-4.25V588H484.24v6.16a4.77,4.77,0,0,1-2.64,4.25,28,28,0,0,0-2.61,1.5,4.76,4.76,0,0,1-5,.17L468.65,597l-10,17.42ZM494.29,607a16.47,16.47,0,1,1-16.46,16.48A16.48,16.48,0,0,1,494.29,607Z"/><path class="cls-1" d="M1380.22,62.85a78.31,78.31,0,1,0,78.31-78.3A78.32,78.32,0,0,0,1380.22,62.85Zm41.73,0a36.58,36.58,0,1,1,36.58,36.57A36.58,36.58,0,0,1,1422,62.85Z"/><polygon class="cls-1" points="1500.79 -2.06 1522.08 19.23 1535.98 2.98 1517.04 -15.96 1500.79 -2.06"/><polygon class="cls-1" points="1534.15 45.64 1534.15 75.76 1555.46 74.09 1555.46 47.31 1534.15 45.64"/><polygon class="cls-1" points="1524 102.96 1502.7 124.26 1518.96 138.15 1537.9 119.21 1524 102.96"/><polygon class="cls-1" points="1476.29 136.32 1446.18 136.32 1447.85 157.63 1474.63 157.63 1476.29 136.32"/><polygon class="cls-1" points="1418.97 126.17 1397.68 104.88 1383.79 121.13 1402.72 140.07 1418.97 126.17"/><polygon class="cls-1" points="1385.62 78.47 1385.62 48.35 1364.3 50.02 1364.3 76.8 1385.62 78.47"/><polygon class="cls-1" points="1395.77 21.15 1417.06 -0.15 1400.81 -14.04 1381.87 4.9 1395.77 21.15"/><path class="cls-1" d="M488.9,300a78.31,78.31,0,1,0,78.31-78.3A78.32,78.32,0,0,0,488.9,300Zm41.73,0a36.58,36.58,0,1,1,36.58,36.57A36.58,36.58,0,0,1,530.63,300Z"/><polygon class="cls-1" points="552.15 224.95 582.27 224.95 580.6 203.63 553.82 203.63 552.15 224.95"/><polygon class="cls-1" points="609.47 235.1 630.76 256.39 644.66 240.14 625.72 221.2 609.47 235.1"/><polygon class="cls-1" points="642.83 282.8 642.83 312.92 664.14 311.25 664.14 284.47 642.83 282.8"/><polygon class="cls-1" points="632.68 340.12 611.39 361.42 627.64 375.31 646.58 356.37 632.68 340.12"/><polygon class="cls-1" points="584.98 373.48 554.86 373.48 556.53 394.8 583.31 394.8 584.98 373.48"/><polygon class="cls-1" points="527.66 363.33 506.36 342.04 492.47 358.29 511.41 377.23 527.66 363.33"/><polygon class="cls-1" points="494.3 315.63 494.3 285.51 472.98 287.18 472.98 313.96 494.3 315.63"/><polygon class="cls-1" points="504.45 258.31 525.74 237.01 509.49 223.12 490.55 242.06 504.45 258.31"/><path class="cls-2" d="M1611.6,617.92c-19.33.14-48.94.44-68,.45h-.45v-.45l0-28.76v-.5h.5l34,.07,34,.16h.28v.27l-.28,28.76Zm0,0-.27-28.76.27.28-34,.16-34,.06.5-.5-.06,28.76-.44-.45c19,0,48.86.28,68,.45Z"/><path class="cls-2" d="M1573.64,654.18c-19.33.14-48.94.44-68.05.45h-.45v-.45l-.05-28.76v-.5h.5l34,.07,34,.16h.28v.27l-.27,28.76Zm0,0-.27-28.76.27.28-34,.16-34,.06.5-.5-.06,28.76-.44-.44c19,0,48.86.27,68.05.44Z"/><path class="cls-2" d="M1649.56,654.18c-19.32.14-48.94.44-68,.45h-.44v-.45l-.06-28.76v-.5h.5l34,.07,34,.16h.28v.27l-.28,28.76Zm0,0-.27-28.76.27.28-34,.16-34,.06.5-.5,0,28.76-.45-.44c19,0,48.86.27,68,.44Z"/><path class="cls-2" d="M846.84,275.71c-19.33.14-49,.45-68.05.45h-.45v-.45L778.29,247v-.5h.5l34,.06,34,.16h.27V247l-.27,28.75Zm0,0L846.57,247l.27.27-34,.16-34,.07.49-.5,0,28.75-.44-.44c19,0,48.86.27,68.05.44Z"/><path class="cls-2" d="M808.88,312c-19.33.14-49,.45-68.06.45h-.44V312l-.06-28.75v-.5h.5l34,.06,34,.16h.27v.27L808.88,312Zm0,0-.28-28.75.28.27-34,.16-34,.07.5-.5L741.27,312l-.45-.44c19,0,48.86.27,68.06.44Z"/><path class="cls-2" d="M884.8,312c-19.33.14-48.94.45-68,.45h-.45V312l0-28.75v-.5h.5l34,.06,34,.16h.28v.27L884.8,312Zm0,0-.27-28.75.27.27-34,.16-34,.07.5-.5L817.19,312l-.44-.44c19,0,48.86.27,68,.44Z"/><path class="cls-2" d="M292,466c-19.33.14-48.95.44-68.06.45h-.44V466l-.06-28.76v-.5h.5l34,.07,34,.16h.27v.27L292,466Zm0,0-.28-28.76.28.28-34,.16-34,.06.5-.5L224.35,466l-.45-.45c19,0,48.86.28,68.06.45Z"/><path class="cls-2" d="M1317.32,275.69c-19.33.14-49,.44-68.06.45h-.44v-.45l0-28.75v-.51h.5l34,.06,34,.16h.27v.28l-.27,28.75Zm0,0-.27-28.75.27.27-34,.16-34,.06.5-.49,0,28.75-.45-.44c19,0,48.87.27,68.06.44Z"/><path class="cls-2" d="M1645.63,32.65c-19.33.14-49,.45-68.05.45h-.45v-.45l-.05-28.75V3.4h.5l34,.06,34,.16h.27V3.9l-.27,28.75Zm0,0-.27-28.75.27.27-34,.16-34,.07.5-.5L1578,32.65l-.44-.44c19,0,48.86.27,68.05.44Z"/><path class="cls-3" d="M218.35,117.63h73.27L317,207.28l25.79-89.65h73.28L368.17,256.4,389.05,317l62.63-199.36h86.79L424.67,408.27H358.35L317,304.3l-40.93,104H209.75L96,117.63h86.38l63,199.36,20.06-60.59Z"/><path class="cls-4" d="M218.35,117.63h73.27L317,207.28l25.79-89.65h73.28L368.17,256.4,389.05,317l62.63-199.36h86.79L424.67,408.27H358.35L317,304.3l-40.93,104H209.75L96,117.63h86.38l63,199.36,20.06-60.59Z"/><path class="cls-3" d="M195.22,117.63h73.27l25.38,89.65,25.79-89.65h73.28L345.05,256.4,365.92,317l62.63-199.36h86.79L401.54,408.27H335.22l-41.35-104-40.93,104H186.62L72.82,117.63H159.2l63,199.36L242.3,256.4Z"/><path class="cls-3" d="M948.88,408.27V117.63h133.45a88.45,88.45,0,0,1,39.3,8.8,102.11,102.11,0,0,1,30.9,22.92,107.28,107.28,0,0,1,20.27,32.34,97.08,97.08,0,0,1,7.36,36.64,103.37,103.37,0,0,1-11.05,47.28,96.34,96.34,0,0,1-30.7,35.82l61.4,106.84h-90L1058.59,319H1028.7v89.24Zm79.82-158.83h50.35c4.92,0,9.48-2.72,13.72-8.18s6.34-13.1,6.34-22.93q0-15.14-7.37-23.13t-14.73-8H1028.7Z"/><path class="cls-5" d="M948.88,408.27V117.63h133.45a88.45,88.45,0,0,1,39.3,8.8,102.11,102.11,0,0,1,30.9,22.92,107.28,107.28,0,0,1,20.27,32.34,97.08,97.08,0,0,1,7.36,36.64,103.37,103.37,0,0,1-11.05,47.28,96.34,96.34,0,0,1-30.7,35.82l61.4,106.84h-90L1058.59,319H1028.7v89.24Zm79.82-158.83h50.35c4.92,0,9.48-2.72,13.72-8.18s6.34-13.1,6.34-22.93q0-15.14-7.37-23.13t-14.73-8H1028.7Z"/><path class="cls-3" d="M925.75,408.27V117.63H1059.2a88.45,88.45,0,0,1,39.3,8.8,102.11,102.11,0,0,1,30.9,22.92,107.28,107.28,0,0,1,20.27,32.34,97.09,97.09,0,0,1,7.37,36.64A103.38,103.38,0,0,1,1146,265.61a96.34,96.34,0,0,1-30.7,35.82l61.4,106.84h-90L1035.46,319h-29.89v89.24Zm79.82-158.83h50.35c4.92,0,9.48-2.72,13.72-8.18s6.34-13.1,6.34-22.93q0-15.14-7.37-23.13t-14.73-8h-48.31Z"/><circle class="cls-6" cx="1031.1" cy="139.96" r="9.68"/><circle class="cls-6" cx="124.31" cy="139.96" r="9.68"/><circle class="cls-6" cx="467.62" cy="139.96" r="9.68"/><path class="cls-3" d="M164.06,629.16a104.5,104.5,0,0,1-2,40.2,110.8,110.8,0,0,1-6.16,17.77c-3.19,7.35-6.54,14.54-5.73,22.58.77.52-1.89.44-2-.34-21.5-12.25-49.08-14.49-65.64-34.51-7.84-9.48-11.79-21.5-13.66-33.52-2-13.08-2.6-27.57.77-40.47,2.85-10.91,9.22-21.43,19.47-26.78,10.58-5.5,24.44-5,35.58-1.58C148.7,580,160.66,605.91,164.06,629.16Z"/><path class="cls-7" d="M175.1,788.36c-2.94-9.78-5.87-19.57-8.88-29.33-5.91-19.11-12-38.15-18.83-57q-6.1-16.92-12.87-33.5c.77-6.94,1.07-13.86,2.56-20.78,1.8-8.34,4.41-16.4,6.85-24.56.15-.5-.67-.76-.87-.28-4.83,11.24-11.13,25.62-11.29,38.93q-7.88-18.75-16.9-37c-.34-10.36-.72-20.4.94-30.82a.37.37,0,0,0-.72-.14c-1.62,8.75-2.76,18.13-2.11,27.2q-6.93-13.7-14.67-27c-.47-.8-1.57,0-1.16.81,8.08,15.56,15.58,31.45,22.61,47.55A103.59,103.59,0,0,0,86,622.93c-.54-.19-.94.58-.39.81,13.86,5.79,25.49,14,36.47,24.15q7.57,17.68,14.45,35.65C123.12,670.35,104.7,661.67,86.89,657c-.61-.16-.77.77-.19,1,20.62,6.2,36.63,17.89,52.31,31.93q2.73,7.26,5.36,14.56,10,27.64,19,55.62,4.35,13.39,8.54,26.85c3,9.64,5.36,19.82,9.28,29.14.37.89,2,.68,1.77-.38C181.16,806.44,177.8,797.36,175.1,788.36Z"/><path class="cls-7" d="M139.42,610.33a53.47,53.47,0,0,0-7.74,19.31c0,.17.24.28.3.1a166.75,166.75,0,0,1,8.4-18.94C140.71,610.17,139.78,609.77,139.42,610.33Z"/><path class="cls-7" d="M101.06,655.14a56.56,56.56,0,0,0-19.31-6.5c-.17,0-.28.23-.1.31,3.1,1.29,6.36,2.19,9.51,3.39s6.22,2.69,9.41,3.8A.56.56,0,0,0,101.06,655.14Z"/><path class="cls-7" d="M90.25,601.24A38.08,38.08,0,0,0,84,597.4a.33.33,0,0,0-.36.55,38.42,38.42,0,0,0,6.12,4C90.2,602.15,90.64,601.49,90.25,601.24Z"/><path class="cls-3" d="M236.56,702.2c-15.49,4.6-31.06,8.85-46.55,13.39C188.67,716,162.48,665.82,172,640c8.74-23.92,28.77-41.83,52.64-50,11.06-3.76,24.66-6.92,36.35-4.34,10.38,2.3,17.72,10.8,21.1,20.57,4.6,13.28,3.06,29.12.56,42.68-2.32,12.57-6.92,25-15.24,34.83S248.63,698.62,236.56,702.2Z"/><path class="cls-7" d="M259,654.51a206.41,206.41,0,0,1-30.37,12c-6.59,2.12-14,4-20.28,7.34,6.54-14.58,13.72-28.86,21.34-43,10-2.9,20.53-7.41,28.08-14.49a.44.44,0,0,0-.57-.66c-8.25,5.84-17.35,9.34-26.48,13.28,2.06-3.81,4.13-7.61,6.25-11.4.59-1.06-.86-2.11-1.57-1.08a327.13,327.13,0,0,0-22,37,169.42,169.42,0,0,1-1.59-33.86.23.23,0,0,0-.45,0,112.59,112.59,0,0,0,.38,37.22c-5.43,10.84-10.38,21.95-14.83,33.19-1.76-6.76-4.06-13.41-5.59-20.22a92.94,92.94,0,0,1-2.23-29.82c0-.29-.4-.31-.45,0-3,17.78-.26,37.85,6.5,54.74-2.59,6.77-5.06,13.56-7.32,20.37a406.47,406.47,0,0,0-20.56,107.47.66.66,0,0,0,1.31.09c4.21-36,11.64-71.8,23.09-106.2,4.49-13.5,9.66-26.62,15.33-39.48,9.15-2.71,18.26-6.37,27.25-9.49,8.77-3,17.75-6.55,25.11-12.31C259.65,654.82,259.33,654.35,259,654.51Z"/><path class="cls-7" d="M273.46,639.94C264,643.31,255,648,245.54,651.44c-.44.16-.18.86.26.77,10-2.07,19.95-5.16,28-11.73C274.13,640.23,273.79,639.82,273.46,639.94Z"/><path class="cls-7" d="M196.11,619.5c.11-.5-.62-.79-.78-.27-2.59,8.73-4.39,18-1.86,26.92.1.35.65.36.67,0C194.59,637.12,194.09,628.37,196.11,619.5Z"/><path class="cls-7" d="M235.25,599.33c-3.18,4-4.32,9.81-4.11,14.85,0,.33.54.52.64.13,1.15-5,3.08-9.55,4.61-14.4A.65.65,0,0,0,235.25,599.33Z"/><path class="cls-3" d="M52.32,724.33c4.54,14.41,15.33,34.34,32.41,34.49,11.08.11,22.24-1.2,33.34-1.36,11.89-.18,23.81-.16,35.68.55,1,0-1.43-35.61-30-53-8-4.87-17.8-6.41-26.88-8.37-10.39-2.26-21.1-3.78-31.76-3.31-6.56.26-12,1.65-14.36,8.37C48.3,708.77,50.14,717.48,52.32,724.33Z"/><path class="cls-7" d="M64.61,706.3c7,1.78,14,3.83,20.92,6.05a72.79,72.79,0,0,0-5.76-5.62c-3-2.49-6.28-4.48-9.49-6.66-.27-.18-.11-.69.23-.56a39.16,39.16,0,0,1,16.86,13.41c8.68,2.8,17.29,5.9,25.57,9.3a96,96,0,0,1,16.37,8.62c-1.82-3.53-3.49-7.15-5.92-10.31-3.79-4.91-8.93-7.65-13.89-11.14a.44.44,0,0,1,.44-.76c11.22,5,18,13.07,22.29,24.16a95.86,95.86,0,0,1,16.21,14.72c18.91,21.48,33.8,50.06,33.86,79.22,0,.69-1.12.89-1.25.16-5.37-29-16.81-55-36.06-77.45-1.35-1.58-2.74-3.08-4.16-4.54a131.28,131.28,0,0,0-15.62-1.16c-6.09.09-12.12.9-18.18,1.39-10,.81-21,.93-30-4.09-.39-.22-.13-.91.32-.75,20.06,7.29,41.1-2,61.21,2.39a93.94,93.94,0,0,0-29.65-19.13l-1.85-.74c-12.87,1.55-26.47,4.91-39,.72a.31.31,0,0,1,.17-.59c12.11,3,23.73-.78,35.69-1.39-13-5.07-26.29-9.1-39.35-14.13C63.45,707,63.42,706,64.61,706.3Z"/><path class="cls-7" d="M58.93,719c6.29,1,12.42,1.07,18.74,1.42.15,0,.19.23,0,.26-6.16,1.39-12.91.54-18.91-1.2C58.49,719.36,58.63,718.92,58.93,719Z"/><path class="cls-7" d="M101.26,706.61c3.42,1.18,6.6,4.08,9.27,6.45.33.29-.11.88-.47.61-1.57-1.14-3.19-2.22-4.82-3.28a44.69,44.69,0,0,1-4.52-2.85C100.29,707.19,100.75,706.44,101.26,706.61Z"/><path class="cls-3" d="M202.17,753c-.21.48.47.92.73.42,0,0,0,0,0,0a.72.72,0,0,0,.45.29c11.55,2.49,23.15,5,34.91,6.09,9.45.84,20.34,1.36,28.61-4.12,11.21-7.43,18.59-27.3,12.52-39.93-7.16-15-28.77-6.85-39.61-1.52A79.51,79.51,0,0,0,202.17,753Z"/><path class="cls-7" d="M193.79,759.94a111.33,111.33,0,0,1,20.84-15.86c5.11-8.68,13-15.89,21.14-21.55.41-.28.76.37.39.66-7.06,5.43-12.57,11.8-17.82,18.73A196.59,196.59,0,0,1,244.5,730,34.76,34.76,0,0,1,258.55,716c.11-.06.26.1.15.19A57.43,57.43,0,0,0,246,729.46c5.31-2,10.68-3.83,16-5.61.48-.16.67.57.21.75-9.55,3.73-19.31,7.67-28.77,12.21,11.94,1.6,22.69,2,34.84-.1a.25.25,0,0,1,.14.49c-11.72,3.35-25.16,4-37,.55A173.45,173.45,0,0,0,214,747.57c4.69-.61,9.42.22,14.17,1.16,8.3,1.65,16.41,3.11,24.91,2.82.32,0,.4.51.08.57-14.45,2.48-28.12-4.08-42.44-2.38A106.18,106.18,0,0,0,174,792.62c-6,12.27-9.3,25.27-14.17,38a.46.46,0,0,1-.89-.25C163.13,805.33,175.58,777.76,193.79,759.94Z"/><path class="cls-7" d="M237.36,725.67a16.37,16.37,0,0,1,3.71-4.49,14.59,14.59,0,0,1,4.26-3.2c.15-.05.23.15.14.24-1.18,1.35-2.83,2.33-4.11,3.62s-2.35,2.81-3.66,4.09A.22.22,0,0,1,237.36,725.67Z"/><path class="cls-7" d="M261.2,733.42c2.14-.53,4.41-.49,6.58-.94a63.49,63.49,0,0,0,6.39-1.91.26.26,0,0,1,.2.47c-3.52,2.08-9.07,3.86-13.17,3.06A.35.35,0,0,1,261.2,733.42Z"/><polygon class="cls-1" points="134.25 799.52 136.15 821.06 142.58 893.78 199.53 893.78 207.57 821.06 209.95 799.52 134.25 799.52"/><polygon class="cls-7" points="134.25 799.52 136.15 821.06 207.57 821.06 209.95 799.52 134.25 799.52"/><rect class="cls-1" x="128.61" y="793.65" width="86.98" height="17.47" transform="translate(344.2 1604.77) rotate(180)"/><polygon class="cls-3" points="1296.17 951.71 1310.57 951.71 1426.27 386.86 1574.12 386.86 1504.47 951.71 1518.68 951.71 1589.96 373.77 1414.56 373.77 1296.17 951.71"/><polygon class="cls-8" points="1296.17 951.71 1310.57 951.71 1426.27 386.86 1574.12 386.86 1504.47 951.71 1518.68 951.71 1589.96 373.77 1414.56 373.77 1296.17 951.71"/><rect class="cls-3" x="1407.69" y="356.92" width="191.64" height="16.86" transform="translate(3007.03 730.69) rotate(180)"/><rect class="cls-9" x="1407.69" y="356.92" width="191.64" height="16.86" transform="translate(3007.03 730.69) rotate(180)"/><polygon class="cls-3" points="1414.62 373.77 1472.91 998.26 1487.12 998.26 1430.25 389.05 1578.14 389.05 1681 998.26 1695.38 998.26 1589.95 373.77 1414.62 373.77"/><rect class="cls-3" x="1429.76" y="508.03" width="170.04" height="15.27"/><rect class="cls-3" x="1452.62" y="631.86" width="170.04" height="15.27"/><rect class="cls-3" x="1463.84" y="755.69" width="183.19" height="15.27"/><rect class="cls-3" x="1472.51" y="879.52" width="193.27" height="15.27"/><g class="cls-10"><polygon points="1414.62 373.77 1472.91 998.26 1487.12 998.26 1430.25 389.05 1578.14 389.05 1681 998.26 1695.38 998.26 1589.95 373.77 1414.62 373.77"/><rect x="1429.76" y="508.03" width="170.04" height="15.27"/><rect x="1452.62" y="631.86" width="170.04" height="15.27"/><rect x="1463.84" y="755.69" width="183.19" height="15.27"/><rect x="1472.51" y="879.52" width="193.27" height="15.27"/></g><path class="cls-3" d="M1336.09,479h-25.7L1205.24,219.43l45.58-35.94h25.7l49.76,98.69,29.19-138.5,54.72-40.54h25.7l-35.71,163.78,173.13,92.42-81.88,41.29h-25.69l-86.74-63-9.41,30.42L1407.37,443Z"/><path class="cls-3" d="M1310.39,479,1179.54,219.43l71.28-35.94,49.76,98.69,29.19-138.5,80.42-40.54-35.7,163.78,173.13,92.42-81.88,41.29-112.44-63-9.41,30.42L1381.67,443Z"/><path class="cls-11" d="M1310.39,479,1179.54,219.43l71.28-35.94,49.76,98.69,29.19-138.5,80.42-40.54-35.7,163.78,173.13,92.42-81.88,41.29-112.44-63-9.41,30.42L1381.67,443Z"/><circle class="cls-6" cx="1224.79" cy="226.03" r="9.68"/><circle class="cls-6" cx="1367.13" cy="153.23" r="9.68"/><path class="cls-12" d="M1360.7,999.39c-5.17,1.67-152.47-.24-158-3.88-2.14-1.35-3.11-22.83-3.54-48.81v-.82c-.1-5.35-.17-10.87-.18-16.46,0-.77,0-1.54,0-2.3-.21-37.51.38-76.42.38-76.42l98.54,1-3,75.7-.11,3-.6,15.66-.05,1.62s56.05,25.94,61.74,30.59S1365.87,997.74,1360.7,999.39Z"/><path class="cls-3" d="M1316.44,957.74c-.39-.11-.59-.22-.61-.34Z"/><path class="cls-7" d="M1360.69,999.38c-5.16,1.67-152.45-.22-158-3.87-1.89-1.2-2.88-18.3-3.38-40.34,27,5.63,131.59,26.79,134.45,17.85,1.13-3.52-7.82-9.6-13.47-13,15.45,7.37,32.58,15.8,35.6,18.28C1361.5,982.89,1365.87,997.74,1360.69,999.38Z"/><path class="cls-7" d="M1169.08,426.41S1191.2,675.3,1194.8,694.3c.84,4.32,1.35,27.85,1.69,58.09.77,66,.31,185,.31,185h103.83s-3.08-206.18-7.68-244.12-34-266.83-34-266.83Z"/><path class="cls-1" d="M1295.94,919.27c-16.2-.34-11.55-.47-27.75-.63-7.93-.07-60-.53-67.45.7a.17.17,0,0,0,0,.33c7.41,1.23,59.52.77,67.45.7,16.2-.16,11.55-.29,27.75-.63A.24.24,0,0,0,1295.94,919.27Z"/><path class="cls-1" d="M1216.53,801.41q-.16-22.59-.34-45.18c-.1-14.59-.08-29.19-.78-43.76C1214,683,1208,654,1203.76,624.78s-7.8-58.48-11-87.8c-3.61-32.9-6.8-65.84-10.18-98.76,0-.22-.37-.21-.35,0,4.89,58.78,10.35,117.54,18.49,176q3,21.79,6.63,43.51c2.43,14.65,4.84,29.32,6,44.13,1.13,14.51,1.32,29.06,1.47,43.6l.45,45.15c.32,33.43.64,84.89,1,118.32a.5.5,0,0,0,1,0C1217,879.07,1216.76,831.22,1216.53,801.41Z"/><path class="cls-1" d="M1147.19,426.41s44,248.89,47.61,267.89c.84,4.32,1.35,27.85,1.69,58.09l0,.09L1246,426.41Z"/><path class="cls-12" d="M1115.16,1007.76c-5.37-.84-135.92-69.07-139.24-74.83-1.3-2.16,7.54-21.77,18.89-45.15l.36-.72c2.33-4.83,48.95-83.44,48.95-83.44l80.3,47.14-44.53,79.37-.78,1.41s38.29,48.47,41.28,55.19S1120.51,1008.63,1115.16,1007.76Z"/><path class="cls-7" d="M1115.15,1007.76c-5.37-.84-135.91-69.07-139.23-74.84-1.11-1.83,5.17-16.43,14.1-35.18,18.71,14.16,109.06,82,115.66,75,1.39-1.5.35-5-1.49-8.79,7.93,10.46,15,20.07,16.2,22.81C1123.33,993.4,1120.51,1008.62,1115.15,1007.76Z"/><path class="cls-7" d="M1091.44,927.23,996.3,868.44S1106.36,710.94,1106.88,697c.78-20.8,10.76-106.65,19.13-176.15,0,0-15.88-37.63,13.85-94.47h119.21s-8,54.09-21.67,88.38c0,0-10.42,3.24-26.5,12.1,0,0-11.87,155-12.32,174.3C1197.71,739.32,1091.44,927.23,1091.44,927.23Z"/><path class="cls-1" d="M1097.26,905.27c-13.73-8.61-9.67-6.33-23.49-14.79-6.76-4.14-51.24-31.28-58.23-34-.15-.06-.3.18-.17.29,5.73,4.86,50.67,31.22,57.52,35.23,14,8.19,10,5.68,24.13,13.71A.23.23,0,0,0,1097.26,905.27Z"/><path class="cls-1" d="M1241.92,512.36c-10.74,3.7-21.11,8.95-31,14.45a.35.35,0,0,0,.28.64c10.46-4.49,21.11-8.78,31.31-13.84A.69.69,0,0,0,1241.92,512.36Z"/><path class="cls-1" d="M1227.31,495.1c1-6.23,1.87-12.48,2.41-18.77a171.83,171.83,0,0,0-.38-35.2.31.31,0,0,0-.61,0c0,16.26-.41,32.49-2.84,48.6-1.17,7.73-5.06,19.39,3,20.58s13.58-18.31,14.58-23.65c2.81-14.89,2.92-31,1.75-46.05,0-.36-.67-.44-.67-.05a345.57,345.57,0,0,1-1.75,34.92c-.48,5.39-4.81,35.14-14.15,33-1.56-.36-2.36-1.9-2.61-4.26-.29-2.83.77-6.3,1.24-9.12"/><path class="cls-1" d="M1228.93,509.28a49.81,49.81,0,0,0-2.1,6.17,14.07,14.07,0,0,0-.88,5.07.37.37,0,0,0,.65.14c1.1-1.39,1.56-3.29,2.17-4.94.71-1.9,1.46-3.8,2.12-5.72A1,1,0,0,0,1228.93,509.28Z"/><path class="cls-1" d="M1153.86,433.83a110.62,110.62,0,0,0-8.94,19.63,120.69,120.69,0,0,0-5.3,20.89c-.68,3.53-.91,7.12-1.3,10.68-.1,3.59-.43,7.17-.23,10.76a113.12,113.12,0,0,0,2.49,21.31l0,.12v.11q-4.12,45.09-8.57,90.16t-8.88,90.13l-.28,2.81-.14,1.41a4.57,4.57,0,0,1-.3,1.53,46.89,46.89,0,0,1-2.74,5.22c-1.9,3.28-3.87,6.5-5.84,9.72-4,6.44-8,12.82-12,19.2-8.08,12.75-16.33,25.38-24.56,38-16.43,25.32-33.17,50.44-49.93,75.53L1076,774.71l24.17-38.27c4-6.38,8-12.78,11.93-19.21,2-3.22,3.92-6.44,5.78-9.7a51.19,51.19,0,0,0,2.53-4.78,3.45,3.45,0,0,0,.23-1.23l.13-1.41.27-2.81q4.31-45.06,8.9-90.07t9.2-90l0,.23a113.92,113.92,0,0,1-2.28-21.62c-.16-3.62.2-7.24.38-10.85.47-3.59.78-7.21,1.54-10.75a121.31,121.31,0,0,1,5.74-20.88A109.81,109.81,0,0,1,1153.86,433.83Z"/><path class="cls-7" d="M1198.56,207c-2.71.67-14.85.69-21.56,12.51-6.34,11.19-5.31,42.83-6.12,49.84s-9.65,9.1-10.83,17.27c-1,7,4.25,8.95,5.34,13.89.86,3.83-2.36,10.11,1.85,15.43,3.83,4.84,9.36,3.07,13,4.31s6.67,8.89,13.25,10.28,11.5-5,14.85-5.39,8.56,9.47,19.41,7.28,12.92-11.83,17.23-14.19,16-.55,20.56-6.8,4.52-13.92,6.53-17,6.94-3.18,9.09-9.95-4.31-10.15-5.81-15.63c-1-3.82,2-7.79-1.13-13.44-4.3-7.77-14.08-4.85-18.87-12.78-3.76-6.22-13.29-34.07-31.39-39.07C1211.44,200.17,1198.56,207,1198.56,207Z"/><path class="cls-7" d="M1171,267.71a9.76,9.76,0,0,1-2.49,4l-3.21,3.5a29.87,29.87,0,0,0-5.52,7.41,9.52,9.52,0,0,0-.08,8.44,14.24,14.24,0,0,0,2.74,3.53,16.67,16.67,0,0,1,3.19,3.84,8.14,8.14,0,0,1,.16,5.21c-.32,1.58-.72,3.09-1,4.6-.55,3-.41,6.11,1.29,8.55a6.48,6.48,0,0,0,3.34,2.6,12,12,0,0,0,4.49.43c1.55-.07,3.11-.31,4.69-.47s3.28-.29,4.69.51a8.34,8.34,0,0,0-4.62,0c-1.55.29-3.09.66-4.68.87a12.7,12.7,0,0,1-4.9-.22,7.73,7.73,0,0,1-4.15-2.88c-2.18-2.73-2.29-6.49-1.78-9.62.24-1.6.62-3.16.91-4.68a6.52,6.52,0,0,0-.09-4.08c-1.24-2.39-4.32-4.3-5.78-7.42a10.64,10.64,0,0,1,.31-9.79,30.31,30.31,0,0,1,6.14-7.42l3.48-3.21A10.64,10.64,0,0,0,1171,267.71Z"/><path class="cls-7" d="M1241.8,217.86c3.55,4.46,6,9.61,9,14.4,1.48,2.4,2.87,4.85,4.5,7.09a18.28,18.28,0,0,0,2.63,3.05,2.75,2.75,0,0,0,.73.55,3.06,3.06,0,0,0,.81.4c.62.25,1.28.45,2,.65a82.88,82.88,0,0,1,8.13,2.67,14.46,14.46,0,0,1,6.89,5.46,9,9,0,0,1,1.4,4.29,11.73,11.73,0,0,1-.79,4.33c-1,2.65-2,5.3-1.71,8.17-.68-2.8.13-5.75.86-8.43a11.12,11.12,0,0,0,.5-4,7.76,7.76,0,0,0-1.42-3.6,14,14,0,0,0-6.37-4.7,83.39,83.39,0,0,0-8-2.47c-.69-.22-1.38-.44-2.07-.72a6.19,6.19,0,0,1-2-1.3,19.94,19.94,0,0,1-2.84-3.4,67.84,67.84,0,0,1-4.37-7.36l-3.83-7.58A76.39,76.39,0,0,0,1241.8,217.86Z"/><path class="cls-7" d="M1274.5,292.28c-1,1.75-.92,3.87-1.15,5.85s-.38,4-.67,6.07a30,30,0,0,1-1.43,6,13.37,13.37,0,0,1-3.43,5.45c-3.54,2.9-8.12,3.15-12.13,2.89-2-.13-4.06-.38-6.06-.47a12.71,12.71,0,0,0-5.89.72,11.72,11.72,0,0,1,5.89-1.6c2.06-.09,4.09,0,6.09,0,3.93,0,8.09-.47,10.91-2.86a12,12,0,0,0,3-4.69,36.61,36.61,0,0,0,1.66-5.69c.46-1.95.79-3.94,1.17-5.94.21-1,.43-2,.7-3A5.74,5.74,0,0,1,1274.5,292.28Z"/><path class="cls-1" d="M1256.82,404.55l3.61,28.11-121.82-3.84s6.14-89.8,41.25-123.65c17.56-16.94,36.85-14.45,48.45-1.19,2.94,3.35,37.47,48.49,40.28,67.54C1271,388.33,1256.82,404.55,1256.82,404.55Z"/><path class="cls-7" d="M1238.26,395.07a107.57,107.57,0,0,0-17.42,2.83c-2.84.75-5.63,1.64-8.43,2.6-1.39.48-2.79.9-4.19,1.32a17,17,0,0,1-4.49.85c-.14,0-.14.22,0,.23a22.81,22.81,0,0,0,8.43-.78c2.89-.73,5.75-1.61,8.63-2.37,5.82-1.54,11.63-3.07,17.53-4.14C1238.59,395.56,1238.54,395.05,1238.26,395.07Z"/><path class="cls-7" d="M1252.58,401.11a115.06,115.06,0,0,0-14.48-1.06c-2.42,0-4.83.12-7.24.34-1.16.1-2.31.22-3.46.36s-2.52.5-3.79.63c-.13,0-.13.24,0,.23,1.2-.08,2.42.05,3.62,0l3.62,0c2.41,0,4.83,0,7.24-.05,4.84-.09,9.65-.12,14.49,0C1252.84,401.56,1252.83,401.14,1252.58,401.11Z"/><path class="cls-13" d="M1192.09,429.19c.26.49.54.93.81,1.35l2,0A11.91,11.91,0,0,0,1192.09,429.19Zm34.54-124.29a14.3,14.3,0,0,0-4.62-2.74,15.55,15.55,0,0,0,8.06,6.88A13.8,13.8,0,0,0,1226.63,304.9Zm-74.47,69.94a14.92,14.92,0,0,0-2.75,4.63,14.07,14.07,0,0,0,4.16-3.4,14.78,14.78,0,0,0,2.75-4.67A14,14,0,0,0,1152.16,374.84Zm26.54-64.08a14.46,14.46,0,0,0-2.72,4.65,14.68,14.68,0,0,0,4.14-3.42,14.84,14.84,0,0,0,2.77-4.65A15.17,15.17,0,0,0,1178.7,310.76Zm39.22,56.88a15.11,15.11,0,0,0-2.77,4.65,14.86,14.86,0,0,0,4.18-3.42,14.18,14.18,0,0,0,2.72-4.65A14.89,14.89,0,0,0,1217.92,367.64Zm-30.62,20.15a14.57,14.57,0,0,0-5.2,1.35,14.61,14.61,0,0,0,5.34.51,13.51,13.51,0,0,0,5.21-1.35A14.6,14.6,0,0,0,1187.3,387.79Zm72-14.23a14.72,14.72,0,0,0-5.21,1.35,13.83,13.83,0,0,0,5.34.51,14,14,0,0,0,5.21-1.32A14,14,0,0,0,1259.32,373.56ZM1214,329.47a13.63,13.63,0,0,0-5.2,1.37,14.17,14.17,0,0,0,5.34.49,14.48,14.48,0,0,0,5.21-1.33A14.7,14.7,0,0,0,1214,329.47Zm21.06,80.26a13.82,13.82,0,0,0-1.32-5.2,15,15,0,0,0,.84,10.55A14,14,0,0,0,1235.09,409.73Zm-77.68,4a15.2,15.2,0,0,0-1.37-5.21,14,14,0,0,0-.49,5.35,13.75,13.75,0,0,0,1.33,5.2A15.07,15.07,0,0,0,1157.41,413.78Zm94.49-73.36c-.05-.44-.09-.89-.16-1.33v0c-.44-1.14-.89-2.26-1.3-3.37a15,15,0,0,0-.4,4.88,14.84,14.84,0,0,0,1.35,5.2A14.69,14.69,0,0,0,1251.9,340.42Zm-68.43,10.69a13.92,13.92,0,0,0-1.35-5.23,15.55,15.55,0,0,0,.84,10.58A14.76,14.76,0,0,0,1183.47,351.11Z"/><path class="cls-12" d="M1200.34,303.29c.64,2.38,12.56,17.61,23.52,16.76,3.56-.29,2.89-19.82,2.89-19.82l.28-1.45,3.9-20.35-24.2-14.51-3.5-1.91s-.7,5.64-1.5,12.66c0,.33-.08.65-.11,1s-.12.77-.15,1.15c-.13,1-.27,2.12-.37,3.19-.09.81-.18,1.6-.24,2.46s-.14,1.69-.22,2.55C1200,293.51,1200.09,302.27,1200.34,303.29Z"/><path class="cls-7" d="M1230.94,278.42,1227.18,298a44.37,44.37,0,0,1-25.69-21.32l.24-2c.81-7,1.51-12.65,1.51-12.65l3.48,1.89Z"/><path class="cls-12" d="M1254,240.79c10.2,34.9-9.55,45-17.08,47.14-6.84,2-30.36,7.9-44.11-25.77s-.74-49.44,14.65-54.81S1243.81,205.89,1254,240.79Z"/><path class="cls-7" d="M1247.25,236.87a23.43,23.43,0,0,1-2.51.06,4.09,4.09,0,0,1-2.58-.44,1.29,1.29,0,0,1-.35-1.54,3.21,3.21,0,0,1,2.91-1.44,4.66,4.66,0,0,1,3.26,1A1.38,1.38,0,0,1,1247.25,236.87Z"/><path class="cls-7" d="M1223.23,242.49c.81-.3,1.51-.7,2.28-1.07a4.08,4.08,0,0,0,2.11-1.52,1.28,1.28,0,0,0-.36-1.54,3.2,3.2,0,0,0-3.25,0,4.75,4.75,0,0,0-2.5,2.29A1.38,1.38,0,0,0,1223.23,242.49Z"/><path class="cls-7" d="M1229.83,247.65c0-.09-.15.16-.13.26.7,2.37,1.09,5.21-.87,6.57-.06,0,0,.16.05.13C1231.43,253.55,1230.87,249.79,1229.83,247.65Z"/><path class="cls-7" d="M1227.05,245.69c-3.94.71-2.24,8.52,1.4,7.87S1230.34,245.11,1227.05,245.69Z"/><path class="cls-7" d="M1225.6,246.44c-.58.59-1.08,1.51-1.89,1.77s-1.83-.36-2.62-1c-.08-.07-.13,0-.11.12.3,1.5,1.21,2.91,2.86,2.79s2.27-1.67,2.32-3.25C1226.17,246.56,1225.84,246.2,1225.6,246.44Z"/><path class="cls-7" d="M1243.32,244.4c0-.1.22.07.24.17.48,2.43,1.43,5.13,3.8,5.43.07,0,.09.13,0,.14C1244.62,250.38,1243.39,246.78,1243.32,244.4Z"/><path class="cls-7" d="M1244.9,241.38c3.82-1.18,5.9,6.53,2.37,7.63S1241.7,242.38,1244.9,241.38Z"/><path class="cls-7" d="M1246.65,241.45c.72.25,1.52.83,2.26.68s1.26-1.18,1.58-2.12c0-.1.12,0,.15.05.44,1.46.36,3.13-1,3.8s-2.51-.41-3.26-1.78C1246.26,241.83,1246.36,241.36,1246.65,241.45Z"/><path class="cls-7" d="M1235.93,267.13c.74.39,1.53,1,2.41.8a6.42,6.42,0,0,0,2.38-1.35.09.09,0,0,1,.14.09,3.33,3.33,0,0,1-2.64,2.18,2.62,2.62,0,0,1-2.48-1.55C1235.66,267.18,1235.83,267.07,1235.93,267.13Z"/><path class="cls-7" d="M1233.31,261a8.23,8.23,0,0,0,6.34,1.88,10.35,10.35,0,0,0,2.88-.74,3,3,0,0,0,.52-.23c.16-.08.31-.14.48-.24a.6.6,0,0,0,.31-.66h0a1.7,1.7,0,0,0-.09-.24h0l-.07-.2c-.5-1.8-1.51-4.46-1.51-4.46.75.13,4.53.6,4.19-.32-2.84-7.56-6-16-10.43-22.9a.22.22,0,0,0-.4.19c2.44,7.38,6.17,14.28,8.74,21.65a14.16,14.16,0,0,0-4.07,0c-.23.15,2,5.09,2.21,5.92a.31.31,0,0,1,0,.09c-2.87,1.31-5.41,1.1-8.94,0C1233.25,260.61,1233.12,260.82,1233.31,261Z"/><path class="cls-7" d="M1195.5,266.17c6-1.39,3.42-14,3.42-14s11.81-3.71,10.33-21.9c0,0,2.24,8-.78,15.68,0,0,20.1-8.8,23.34-29,0,0-.68,10-3,14.17,0,0,8-5.2,10-13.63,0,0,6.83,8.89,10.51,10.78,0,0-8.6-49.39-50.15-19.31,0,0-19.15,5.95-21.43,25.06S1195.5,266.17,1195.5,266.17Z"/><path class="cls-12" d="M1199.14,263.22s-10-9.57-14.5-5.78,4.58,18.75,11,19.77a6.16,6.16,0,0,0,7.43-4.86Z"/><path class="cls-7" d="M1187.35,261.66c-.1,0-.09.15,0,.17,4.49.85,7.45,4.27,9.78,7.95-1.54-1.29-3.39-1.79-5.16.09-.09.1,0,.25.16.2a3.8,3.8,0,0,1,4.34.48,18.15,18.15,0,0,1,2.62,2.91c.26.33.9,0,.67-.4l-.06-.09C1198.75,267.65,1193.14,261.06,1187.35,261.66Z"/><path class="cls-13" d="M1199.36,274.76a1.79,1.79,0,1,1-2.12-1.39A1.79,1.79,0,0,1,1199.36,274.76Z"/><path class="cls-12" d="M1170.76,339.09c2.5,19.2,21,92.71,37.26,111,10.6,11.92,79.7,30.12,99.37,33.33,8.24,1.35,26.25-56.93,17.32-57-6.57-.08-78.16-19.77-84.36-22.23,0,0-26.16-42.27-42.87-70C1181.71,308,1166.09,303.25,1170.76,339.09Z"/><path class="cls-12" d="M1348.6,436.34c-3.44-2-2.44-3.78,4.52-4.83s35.38.69,35.15-9.28-40.38-11.84-51.83-9.2-29,10.92-29,10.92C1315.14,425.88,1333.46,432.36,1348.6,436.34Z"/><path class="cls-12" d="M1299.51,482.16c22,4.64,49.11,11.76,73.15,3.68a12.54,12.54,0,0,0,6.64-4.86c10.84-3.43,12.48-9.58,12.48-9.58,9.12-6.28,9.93-12.8,9.93-12.8s12.69-4.17,11.44-12.25c-1.37-9.07-18.91-1.45-31.13-3.16-28-3.92-66.67-17.31-74.63-19.24Z"/><path class="cls-7" d="M1349.81,459.7c8.26,1,16.35,2.17,24.7,2,9.16-.15,18-1.83,26.94-3.32a.22.22,0,0,1,.1.43c-15.85,5.27-35.66,5.44-51.79,1.22C1349.37,460,1349.4,459.65,1349.81,459.7Z"/><path class="cls-7" d="M1345,476.24c8.09.52,22.31,1.34,46.72-5.1.08,0,.14.11.06.14-15.29,6.29-30.59,7.76-46.8,5.35C1344.47,476.56,1344.45,476.21,1345,476.24Z"/><path class="cls-7" d="M1342.57,485.19c13.79.35,22.53-1.17,36.66-4.25.08,0,.13.11,0,.14-15.7,5.19-22,5.29-36.79,4.58C1342,485.63,1342,485.17,1342.57,485.19Z"/><path class="cls-1" d="M1223.39,368.75l-42.76,35.43s-12.69-59.74-11.46-78.36c1.38-21,11.79-15.67,25.08-.77S1223.39,368.75,1223.39,368.75Z"/><path class="cls-13" d="M1183.47,351.11a13.92,13.92,0,0,0-1.35-5.23,15.55,15.55,0,0,0,.84,10.58A14.76,14.76,0,0,0,1183.47,351.11Zm3.83,36.68a14.57,14.57,0,0,0-5.2,1.35,14.61,14.61,0,0,0,5.34.51,13.51,13.51,0,0,0,5.21-1.35A14.6,14.6,0,0,0,1187.3,387.79Zm33.85-23a15.58,15.58,0,0,0-3.23,2.86,15.11,15.11,0,0,0-2.77,4.65,14.86,14.86,0,0,0,4.18-3.42,17.17,17.17,0,0,0,2.24-3.37v0Zm-43.45-52.7a12.2,12.2,0,0,0-1.72,3.33,13.33,13.33,0,0,0,3.54-2.79A8.09,8.09,0,0,0,1177.7,312.08Z"/><path class="cls-7" d="M1180.36,391.6c1.28-1.45,14.44-12.7,17.35-15.08s14.72-12.24,17.93-14.45c.15-.1.31.07.19.2-2.73,2.76-14.61,12.74-17.53,15.22s-16.17,13.34-17.8,14.33C1180.37,391.9,1180.27,391.7,1180.36,391.6Z"/><path class="cls-7" d="M1220,371.53c1.21-1.16,3.16-2.89,3.16-2.89-3.05-5.68-21.11-33-25.35-39.62-.07-.1.09-.2.16-.1,2.64,3.62,5.26,7.23,7.84,10.87l-.72-1.53c-.87-1.81-1.69-3.65-2.62-5.43-.07-.15.14-.3.23-.15a46.77,46.77,0,0,1,3,5.3c.6,1.3,1.11,2.62,1.61,4,1.47,2.09,3,4.18,4.37,6.32,4.36,6.56,9.11,13.21,12.94,20.09a28.71,28.71,0,0,1-4.41,3.5C1220,372,1219.81,371.7,1220,371.53Z"/><path class="cls-14" d="M1184.77,400.75l-4,3.55-.19.17q-1.51-5.43-2.72-10.93a267.84,267.84,0,0,1-5.23-32.58c1.08,6.43,2.55,15.36,3.76,21.66,1.36,7.19,2.78,14.38,4.44,21.52l-.26-.08,4.24-3.31Z"/><path class="cls-14" d="M1174.6,374.7a16.8,16.8,0,0,1-3.3-8.23c.93,2.45,2.18,5.88,3.3,8.23Z"/><path class="cls-1" d="M1226.94,299.73l-5.42,16.85-21.84-19.29-5.3,7.06s22.26,31.54,22.28,30l5.75-14.61,10.45,9.14-2.54-24.62Z"/><path class="cls-7" d="M1232.29,316.68c-.55-4.05-1-8.15-1.74-12.17,0-.14-.26-.19-.28,0-.54,4,1.67,19.47,1.92,23.21l0,0c-.44-.4-9.65-8-9.73-7.88-1.3,2.35-5.53,13-5.8,14-3.52-5-18.36-24.69-22.44-29.38a.14.14,0,0,0-.24.16c3.18,5.33,22.39,31.33,22.63,31.24a157.3,157.3,0,0,0,6-15.43c1.59,1.68,11,10.35,11,9.74A127.65,127.65,0,0,0,1232.29,316.68Z"/><path class="cls-15" d="M1692.61,582.84s51.93,97.79,51.94,97.85c3,18.48,5.36,34.74,5.78,43.26a.29.29,0,0,1,0,.13c.16,3.22.05,5.31-.43,5.94,0,.05-.05.1-.09.13-4.89,4.63-151.85,33.16-157.3,32.43s-3.81-16.35,1-22,56.22-41.76,56.22-41.76l-51-97.89Z"/><path class="cls-13" d="M1734.88,661.18s9.66,19.45,9.67,19.51c3,18.48,5.36,34.74,5.78,43.26a.29.29,0,0,1,0,.13,25.93,25.93,0,0,1-.43,5.94c0,.05-.05.1-.09.13-4.89,4.63-151.85,33.16-157.3,32.43s-3.81-16.35,1-22,56.22-41.76,56.22-41.76l-10-19.76Z"/><path class="cls-7" d="M1640.71,700.39c9.56-3.26,21.8-3.5,30.33,2.4.33.23,0,.7-.34.65a139.23,139.23,0,0,0-29.77-1.81A.64.64,0,0,1,1640.71,700.39Z"/><path class="cls-7" d="M1634.24,705.7c9.56-3.27,21.8-3.51,30.33,2.4.33.23,0,.7-.34.64a139.88,139.88,0,0,0-29.77-1.81A.63.63,0,0,1,1634.24,705.7Z"/><path class="cls-7" d="M1627.77,711c9.56-3.27,21.8-3.51,30.33,2.4.33.23,0,.69-.34.64a139.23,139.23,0,0,0-29.77-1.81A.63.63,0,0,1,1627.77,711Z"/><path class="cls-1" d="M1592.51,762.59c5.47.73,152.42-27.8,157.32-32.44,1.89-1.74-1-23.39-5.29-49.45,0-.28-.09-.55-.14-.82l-95,17.35.35,1.6s-51.36,36.08-56.21,41.75S1587.05,761.88,1592.51,762.59Z"/><path class="cls-3" d="M1744.41,679.87l.15.84c4.24,26,7.17,47.71,5.27,49.44-2.22,2.1-33.92,9.17-68.29,16.19-41.12,8.39-86,16.66-89,16.26-5.46-.73-3.78-16.37,1-22s56.21-41.74,56.21-41.74l-.35-1.59,31.68-5.79Z"/><path class="cls-7" d="M1593.07,756.57c24.65-5.42,124.6-25,149.38-28.43.2,0,.22.11,0,.16-24.32,5.9-124.42,24.61-149.33,28.67C1592.62,757.06,1592.55,756.68,1593.07,756.57Z"/><path class="cls-5" d="M1681.07,691.45c.34,16.34.74,40.44.47,54.89-41.12,8.39-86,16.66-89,16.26-5.46-.73-3.78-16.37,1-22s56.21-41.74,56.21-41.74l-.35-1.59Z"/><path class="cls-1" d="M1731.12,647.39,1622.26,660s-115.52-177.55-103.89-238.92c6.39-33.76,121.2-86.79,121.2-86.79l11.61-23.33h81s27.87,48.65,4.17,94.36c-16.1,31.06-99.45,54.75-102.71,64.73C1629.3,483.19,1731.12,647.39,1731.12,647.39Z"/><path class="cls-7" d="M1717,633.13a80.63,80.63,0,0,0-8.64.35c-3.2.15-6.4.3-9.6.55-6.15.48-12.28,1.11-18.4,1.82-12.35,1.44-24.69,3-37,4.89-7,1.07-14,2.19-20.94,3.43a.23.23,0,0,0,.06.45c12.29-1,24.56-2.32,36.83-3.55s24.54-2.47,36.74-4.18c3.5-.49,7-.95,10.48-1.57s7.1-.86,10.46-1.77C1717.21,633.49,1717.26,633.14,1717,633.13Z"/><path class="cls-7" d="M1631.62,631.47c-9.63-14.71-61.37-108.22-69.11-124-3.88-7.86-7.61-15.8-11-23.88a214.24,214.24,0,0,1-9-24.61c-2.31-8.3-4.44-17-2.68-25.31a35.82,35.82,0,0,1,4.92-11.68,54.82,54.82,0,0,1,3.7-5.27c1.39-1.65,2.77-3.31,4.28-4.87,12.14-12.45,27.29-21.69,42.52-30.23s31.31-15.82,47.24-23.25c4-1.89,7.94-3.78,11.86-5.79,2-1,3.9-2.06,5.8-3.2s3.91-2.42,5-4.46c4.43-7.73,6.24-16.56,7.08-25.27-1,8.67-3.1,17.46-7.63,24.93-1,1.91-3,3-4.83,4.1s-3.85,2.07-5.81,3c-4,1.9-8,3.69-12,5.48-16,7.18-32.13,14.32-47.68,22.63a247.61,247.61,0,0,0-22.73,13.55A132.19,132.19,0,0,0,1551,410.22c-1.56,1.59-3,3.31-4.45,5a59.21,59.21,0,0,0-3.89,5.5,38.23,38.23,0,0,0-5.29,12.45c-1.17,4.47-.73,9.12-.28,13.55.41,2.19.71,4.42,1.23,6.58s1,4.34,1.65,6.46a218.08,218.08,0,0,0,9.17,24.86c3.45,8.13,7.23,16.09,11.17,24C1568.22,524.33,1621.64,617,1631.62,631.47Z"/><path class="cls-15" d="M1635.69,727.81s-.82,97.91-.82,98c-.06,18.72-.45,35.14-1.44,43.61a.34.34,0,0,1,0,.14c-.37,3.19-.82,5.23-1.4,5.78,0,0-.06.09-.11.11-5.58,3.76-155.24,7.65-160.5,6s-1.06-16.75,4.63-21.53,62.34-31.9,62.34-31.9l1.76-97.86Z"/><path class="cls-13" d="M1635,805.69s-.17,20-.17,20.1c-.06,18.72-.45,35.14-1.44,43.61a.34.34,0,0,1,0,.14,25,25,0,0,1-1.4,5.78s-.06.09-.11.11c-5.58,3.76-155.24,7.65-160.5,6s-1.06-16.75,4.63-21.53,62.34-31.9,62.34-31.9l-.11-20.4Z"/><path class="cls-7" d="M1529.2,828.07c10-1.64,22.08.14,29.51,7.38.29.28-.11.68-.43.58a139,139,0,0,0-29.06-6.7A.64.64,0,0,1,1529.2,828.07Z"/><path class="cls-7" d="M1522,832.24c10-1.64,22.07.14,29.51,7.38.28.27-.12.68-.44.57a140.26,140.26,0,0,0-29.06-6.7A.63.63,0,0,1,1522,832.24Z"/><path class="cls-7" d="M1514.69,836.4c10-1.64,22.07.15,29.51,7.38.29.28-.12.69-.44.58a139.47,139.47,0,0,0-29.06-6.7A.64.64,0,0,1,1514.69,836.4Z"/><path class="cls-3" d="M1471.4,881.46c5.27,1.62,154.91-2.26,160.51-6,2.15-1.39,2.86-23.23,2.95-49.64V825l-96.57,1.43.08,1.64s-56.62,27.1-62.34,31.9S1466.12,879.86,1471.4,881.46Z"/><path class="cls-7" d="M1472.94,875.61c25.21-1.27,127-4,152-3.38.2,0,.21.15,0,.16-25,1.81-126.77,3.75-152,3.64C1472.42,876,1472.41,875.64,1472.94,875.61Z"/><path class="cls-1" d="M1685.17,414.57c0,.07-44.42,140-45.23,165.76-.68,21.94,2.13,215.52,2.13,215.52l-112.47.67s9.5-198,11.26-220.91c3.28-42.75,40.74-160.12,67.52-264.68h121.25s-1.06,54.76-26,94.36C1703.67,405.29,1692.39,410.51,1685.17,414.57Z"/><path class="cls-7" d="M1636.09,775.12c-13-.38-26.46-.76-39.46-.44s-25.81.52-38.68,1.29c-7.3.43-14.58.68-21.87,1.4a.2.2,0,0,0,0,.39c13,.75,26,.6,39,.48s25.8-.25,38.69-.84c7.3-.34,14.58-.71,21.87-1.21C1636.46,776.13,1636.88,775.14,1636.09,775.12Z"/><path class="cls-7" d="M1611.5,376.9c-4,13.38-7.39,27-11,40.45s-7.22,27.22-10.8,40.83c-6.94,26.34-13.79,52.73-19,79.48a480.27,480.27,0,0,0-9,81.45c-.6,27.87,0,55.79.17,83.67s.42,24.51.91,52.54c.06,3.48.13,7,.26,10.45a.26.26,0,0,0,.52,0c.75-27.88.35-24.26.26-52.15s-.46-55.79-.22-83.68a501.53,501.53,0,0,1,7.15-82.61c4.7-26.83,11.31-53.28,18.17-79.64q5.87-22.55,11.76-45.09c3.92-15.14,8.12-30.24,11.58-45.49A.42.42,0,0,0,1611.5,376.9Z"/><path class="cls-7" d="M1657.36,417.27a100.58,100.58,0,0,0,16.7-1.51c5.57-1,10.77-2.89,16.18-4.49,5.13-1.51,10.6-1.75,15.86-2.59a55.85,55.85,0,0,0,15.56-4.63.2.2,0,0,1,.19.35,97.45,97.45,0,0,1-14.91,6.46c-5.33,1.68-10.9,1.91-16.31,3.23-5.57,1.37-10.93,3.18-16.66,3.84a60.07,60.07,0,0,1-16.67-.29C1657.08,417.61,1657.15,417.28,1657.36,417.27Z"/><path class="cls-7" d="M1639.57,683.76l.18-34.49c0-11.49.12-23,.32-34.47s.34-23,1.14-34.39A101,101,0,0,1,1644,563.6c1.22-5.59,2.71-11.14,4.12-16.7,5.7-22.24,12-44.34,18.29-66.46l18.84-66.35c-3.66,10.9-7.11,21.87-10.63,32.81l-10.17,33q-10,33-18.9,66.37c-1.38,5.59-2.83,11.16-4,16.81a103,103,0,0,0-2.71,17.18c-.69,11.55-.82,23-.77,34.55Q1638.15,649.29,1639.57,683.76Z"/><path class="cls-7" d="M1549.87,527.4c4.18-14.53,8.12-29.12,12.06-43.71l11.63-43.81L1585,396q2.82-11,5.84-21.89c2-7.27,3.89-14.61,6.56-21.67-6,13.9-10,28.55-14.38,43s-8.12,29.13-12,43.72c-3.73,14.65-7.52,29.28-11,44S1553,512.6,1549.87,527.4Z"/><path class="cls-15" d="M1622.74,176.39c-13.33,35.48-62.2,90.4-79.17,96.77-20.91,7.84-73.22-22.35-94.4-41.33-8.76-7.84,18.47-50.14,32.47-50,7.7.05,51.31,34.23,57.39,30.76,14.66-8.37,34.49-24.21,63-45.74C1617.5,155.09,1631,154.33,1622.74,176.39Z"/><path class="cls-15" d="M1499.75,192.59s-10.61-14.43-16.66-19.74-35.92-16.8-38.77-10.49c-3.67,8.14,12.26,18.17,20.7,22.06,0,0-8.52,18.83,1.36,28.51S1499.75,192.59,1499.75,192.59Z"/><path class="cls-15" d="M1455.74,236.83c-6.33-2.66-34.3-17.36-41.16-23.2s-25.41-24-21.48-29.77,9.79-.81,9.79-.81-6.61-8.93-2.13-14.32,13.34,2.53,13.34,2.53-6.12-9.67-1.26-14.72,12.43,4.4,12.43,4.4-6-8.58-.25-11.06c6.92-3,16.21,14.08,24.27,20,1.83,1.33,39,24.38,39,24.38Z"/><path class="cls-7" d="M1424.61,160.14c6.86,12.54,12,16.84,24.33,23.67.24.13.09.52-.17.4-12.65-5.59-19.92-10.05-24.79-23.77C1423.74,159.77,1424.28,159.55,1424.61,160.14Z"/><path class="cls-7" d="M1413.58,170.26c8.26,12.4,13.83,17.11,26.19,25.21.17.11,0,.42-.19.32-12.79-6.93-19.93-11.54-26.56-25C1412.72,170.16,1413.2,169.69,1413.58,170.26Z"/><path class="cls-7" d="M1403.53,183.44c8.87,11.43,14.75,16.86,27.76,23.19a.27.27,0,0,1-.21.49c-13.89-5.16-21.28-11.88-27.87-23.37C1402.76,183,1403,182.73,1403.53,183.44Z"/><path class="cls-7" d="M1444.05,164.93c2,9.84,13.42,14.24,21.32,18.62a.83.83,0,0,1,.2,1.35c-3,8.13-5,20.49.24,28a.21.21,0,0,1-.32.27c-6.69-7.33-5.79-19.63-1.88-28.32-8.18-4.38-19.43-9.28-19.66-19.94A.05.05,0,0,1,1444.05,164.93Z"/><path class="cls-3" d="M1563.58,191.41l28,47.61s32.12-51.55,37.28-69.37c5.81-20.06-5.72-18.65-23.19-9.22S1563.58,191.41,1563.58,191.41Z"/><path class="cls-7" d="M1573.17,188c4.39,5.59,15.17,24.18,17,27.23.95,1.61,4.49,8.2,5.45,9.8.13.21-.21.36-.34.16-1.84-3.05-4-5.92-5.88-9s-13.53-21.56-16.45-28.08C1572.88,188,1573.08,187.9,1573.17,188Z"/><path class="cls-5" d="M1628.82,169.64c-5.15,17.83-37.27,69.38-37.27,69.38l-14.41-24.54,46-60.68C1629.58,153.34,1632.28,157.67,1628.82,169.64Z"/><path class="cls-3" d="M1740.86,325.26s-146.25,28.32-146.25,28.34c.56,2.86-14-116.14,10.56-192.57,1.68-5.21,23.68-14.72,35.63-7.34C1693.13,186,1741.22,327.12,1740.86,325.26Z"/><path class="cls-15" d="M1613.82,179.86c7.29.3,20.21-10.72,23.25-21.64.2-.75-2.45-7.5-5.28-15.86-1.7-5.08-3.47-10.78-4.72-16.1-.25-1.09-31.45,15.89-31.45,15.89s5.89,10.38,8,19.66a12,12,0,0,1,.28,2.24c0,.1,0,.23,0,.37C1604.22,168.72,1606,179.54,1613.82,179.86Z"/><path class="cls-7" d="M1603.88,164.05c0,.1,0,.24.06.37a24.54,24.54,0,0,0,3.45-.62c19.52-5,19-30.79,18.51-37.25-5.73,2.23-30.28,15.6-30.28,15.6s5.89,10.39,8,19.67A11.75,11.75,0,0,1,1603.88,164.05Z"/><path class="cls-15" d="M1623.59,83.43c6,11.18,6.62,46.82-.31,56.19-10,13.57-29.92,18.66-42.32,5.8-12-12.47-12-58.94-3.93-67.8C1588.9,64.57,1614.7,66.92,1623.59,83.43Z"/><path class="cls-7" d="M1594.17,110.74c0-.09.19.11.19.21,0,2.4.35,5.15,2.54,5.9.07,0,.07.15,0,.14C1594.23,116.67,1593.76,113,1594.17,110.74Z"/><path class="cls-7" d="M1596.26,108.18c3.85-.37,4.33,7.36.76,7.71S1593,108.5,1596.26,108.18Z"/><path class="cls-7" d="M1580.32,112c0-.09-.18.12-.17.22.22,2.39.07,5.17-2.05,6.1-.06,0,0,.14,0,.13C1580.75,117.89,1580.91,114.21,1580.32,112Z"/><path class="cls-7" d="M1578,109.6c-3.88,0-3.71,7.7-.12,7.75S1581.27,109.65,1578,109.6Z"/><path class="cls-7" d="M1599.1,104.46a28.92,28.92,0,0,1-3.06-.87,5.22,5.22,0,0,1-3-1.49,1.64,1.64,0,0,1,.15-2c1.09-1.1,2.63-1,4.06-.67a6,6,0,0,1,3.59,2.37A1.75,1.75,0,0,1,1599.1,104.46Z"/><path class="cls-7" d="M1574.8,105.89a28.8,28.8,0,0,0,3-1,5.16,5.16,0,0,0,2.9-1.59,1.65,1.65,0,0,0-.22-2c-1.14-1.06-2.67-.93-4.08-.52a6,6,0,0,0-3.51,2.5A1.75,1.75,0,0,0,1574.8,105.89Z"/><path class="cls-7" d="M1597.74,132.85c-.54.6-1.06,1.4-1.93,1.53a6.34,6.34,0,0,1-2.61-.45.09.09,0,0,0-.1.13,3.25,3.25,0,0,0,3.12,1.12,2.56,2.56,0,0,0,1.76-2.24C1598,132.8,1597.82,132.76,1597.74,132.85Z"/><path class="cls-7" d="M1594.79,125.83a8.18,8.18,0,0,1-5.23,4,10.25,10.25,0,0,1-2.93.31,2.6,2.6,0,0,1-.56,0,5,5,0,0,1-.53,0,.6.6,0,0,1-.52-.5v0a2.09,2.09,0,0,1,0-.25h0V129c-.16-1.85-.15-4.66-.15-4.66-.66.37-4,2.13-4,1.16,0-8,0-16.92,1.66-24.89a.22.22,0,0,1,.44,0c.31,7.7-.73,15.4-.54,23.14a14.5,14.5,0,0,1,3.78-1.4c.27.06-.11,5.44,0,6.27a.24.24,0,0,0,0,.08c3.13.21,5.41-.87,8.29-3.13C1594.72,125.48,1594.92,125.63,1594.79,125.83Z"/><path class="cls-7" d="M1587.66,129.1a9.77,9.77,0,0,0,4.06,2.77,4.32,4.32,0,0,0,2.66,0c1.88-.62,1.82-2.38,1.38-3.86a10.39,10.39,0,0,0-1-2.25A12.53,12.53,0,0,1,1587.66,129.1Z"/><path class="cls-16" d="M1591.72,131.87a4.32,4.32,0,0,0,2.66,0c1.88-.62,1.82-2.38,1.38-3.86C1593.72,128.35,1591.78,129.87,1591.72,131.87Z"/><path class="cls-7" d="M1572.64,89.68c1.12-3.12,2.45-6.28,4.24-7s3.27,3.67,7.46,3.7c5.64,0,8-5.31,15.87-6.35,11.24-1.49,16.81,7.63,18.08,23.64,1.14,14.3,9.87,15.1,9.87,15.1s3.27-31.88-6.28-41.78-30.25-13.23-43.33-2.4C1573.78,78.53,1572.64,89.68,1572.64,89.68Z"/><path class="cls-15" d="M1620.59,113.59s5.8-12.57,11.36-10.69,2.6,19.11-2.94,22.39a6.15,6.15,0,0,1-8.69-1.8Z"/><path class="cls-7" d="M1631,107.82c.09,0,.14.1.06.15-3.87,2.44-5.37,6.7-6.18,11,1-1.76,2.5-2.91,4.83-1.81.12.06,0,.25-.07.25a3.78,3.78,0,0,0-3.87,2,18.3,18.3,0,0,0-1.36,3.66c-.13.41-.84.33-.77-.12,0,0,0-.07,0-.1C1622.57,117.56,1625.37,109.38,1631,107.82Z"/><path class="cls-3" d="M1587.52,68.68a50.92,50.92,0,0,1,13.54-5.87c5.36-1.33,22.67-2.05,27.19.9s7.54,19,7.93,21.32,1,16.77-3.72,20.83-8.16-20.14-17.29-27.22S1587.52,68.68,1587.52,68.68Z"/><path class="cls-5" d="M1587.52,68.68s18.52,2.89,27.65,10,12.53,31.28,17.3,27.22c2.09-1.79,2.93-4.18,3.42-8.09-1.93-7-6.12-17.63-12.94-24.54-6.39-6.48-16.35-9-26.68-8.89A58,58,0,0,0,1587.52,68.68Z"/><path class="cls-3" d="M1632.77,120.44c-1.24-6.41-9.88-22.94-18-32s-29.06-12.48-31.88-12c-6.83,1.22-8,4.69-9.11,4.21s4.78-9.13,6.58-10.53a22.6,22.6,0,0,1,9.24-3.52c3-.28,21.67-.65,29.32,6.42s19.77,28,18.71,33.84c-.26,1.41-2,2.5-2.3,4.49-.45,2.61-.64,5.59-1.19,7.44C1633.73,120.27,1632.87,121,1632.77,120.44Z"/><path class="cls-7" d="M1612.68,84.13a32.78,32.78,0,0,0,4.09-3.81,23.83,23.83,0,0,0,3.33-4.55c.07-.12.26,0,.21.08a18.54,18.54,0,0,1-2.94,5,15.48,15.48,0,0,1-4.5,3.58C1612.68,84.54,1612.52,84.26,1612.68,84.13Z"/><path class="cls-7" d="M1632.06,114c.12-.49.38-.94.55-1.42a8,8,0,0,0,.41-1.67,14.6,14.6,0,0,1,.36-3.23,11.67,11.67,0,0,1,1.26-2.33,4.39,4.39,0,0,0,1-2.78c0-.14.2-.17.21,0,.25,2-.91,3.51-1.57,5.26a21.15,21.15,0,0,0-.48,3.47,5.11,5.11,0,0,1-1.39,2.9C1632.25,114.25,1632,114.15,1632.06,114Z"/><path class="cls-7" d="M1629,107.25c.53-.81,1.11-1.55,1.56-2.41a21.87,21.87,0,0,0,1.1-2.59c.31-.87.55-1.76.84-2.63.34-1,.82-2,1.11-3.09,0-.13.24,0,.2.08-.3,1.09-.42,2.23-.69,3.33a22.77,22.77,0,0,1-.92,2.79,15.06,15.06,0,0,1-1.25,2.51,7,7,0,0,1-1.86,2.09C1629,107.37,1629,107.31,1629,107.25Z"/><path class="cls-7" d="M1625.89,101.21a18.78,18.78,0,0,0,3-4.4c.77-1.57,1.44-3.19,2.1-4.81a.11.11,0,0,1,.21.06,22.26,22.26,0,0,1-1.65,5.17,11.6,11.6,0,0,1-1.4,2.25,12.44,12.44,0,0,1-2.14,1.89C1626,101.44,1625.79,101.31,1625.89,101.21Z"/><path class="cls-7" d="M1622.6,95.46a6.35,6.35,0,0,0,1.51-1.94c.47-.79.93-1.59,1.36-2.41s.84-1.56,1.25-2.34a6.34,6.34,0,0,0,.88-2.51.11.11,0,0,1,.21,0,6.51,6.51,0,0,1-.44,2.62,16.62,16.62,0,0,1-1.16,2.71,22.47,22.47,0,0,1-1.54,2.46,4.26,4.26,0,0,1-1.91,1.68C1622.6,95.77,1622.46,95.57,1622.6,95.46Z"/><path class="cls-7" d="M1619.84,88c.53-.66,1.05-1.32,1.53-2s.91-1.42,1.34-2.14.92-1.52,1.32-2.3a.11.11,0,1,1,.2.08,17.27,17.27,0,0,1-.91,2.49,21.75,21.75,0,0,1-2.87,4.35,6.74,6.74,0,0,1-1.93,1.72c-.11,0-.26-.08-.2-.2A13.71,13.71,0,0,1,1619.84,88Z"/><path class="cls-7" d="M1607.29,81.05c.54-.87,1.07-1.73,1.69-2.54a31.74,31.74,0,0,1,6.66-6.35c.1-.07.25,0,.16.15-2.75,3-5.62,5.85-8.34,8.87A.11.11,0,0,1,1607.29,81.05Z"/><path class="cls-7" d="M1602.71,76a13.31,13.31,0,0,1,2-2.35,29.72,29.72,0,0,1,5.17-3.74c.12-.07.25.07.14.17-1.55,1.31-3.11,2.6-4.58,4-.72.69-1.44,1.41-2.09,2.17s-1.1,1.66-1.71,2.46a.09.09,0,0,1-.15-.06A7.55,7.55,0,0,1,1602.71,76Z"/><path class="cls-7" d="M1597,74.08a14.82,14.82,0,0,1,1.77-2.32,16.28,16.28,0,0,1,4.4-3.33c.11-.06.2.11.11.18a32.22,32.22,0,0,0-4.07,3.76c-.63.69-1.22,1.41-1.81,2.12s-1.07,1.56-1.73,2.2a.07.07,0,0,1-.11-.08A15.12,15.12,0,0,1,1597,74.08Z"/><path class="cls-7" d="M1592.75,71.32c.61-.63,1.26-1.23,1.91-1.82a8.31,8.31,0,0,1,2.09-1.54c.12,0,.19.11.11.19-1.2,1.21-2.37,2.45-3.54,3.68a22.3,22.3,0,0,0-2.6,3.93.07.07,0,0,1-.13-.05A8.37,8.37,0,0,1,1592.75,71.32Z"/><path class="cls-7" d="M1587.77,70.86a13.36,13.36,0,0,1,4-3.2c.1-.06.21.11.11.18a16.37,16.37,0,0,0-3.58,3.42,23.25,23.25,0,0,0-2.64,4.21c0,.07-.16,0-.14,0A11.14,11.14,0,0,1,1587.77,70.86Z"/><path class="cls-7" d="M1581.76,74.52a8,8,0,0,1,.43-1,10.57,10.57,0,0,1,1.24-1.93,22.88,22.88,0,0,1,3.33-3.27c.1-.09.24.08.13.17a19.47,19.47,0,0,0-3.09,3.32,15.21,15.21,0,0,0-1.18,1.88c-.17.32-.32.65-.46,1a6.61,6.61,0,0,1-.43,1c0,.07-.19,0-.19,0A2.66,2.66,0,0,1,1581.76,74.52Z"/><path class="cls-7" d="M1577.91,75.33a17.89,17.89,0,0,1,1-1.6,15,15,0,0,1,1.19-1.45c.44-.47.9-.92,1.32-1.41.1-.12.26,0,.15.15a11.87,11.87,0,0,0-1.21,1.52c-.34.5-.7,1-1,1.5l-1,1.5a18.32,18.32,0,0,1-1,1.55.09.09,0,0,1-.15-.09A8.39,8.39,0,0,1,1577.91,75.33Z"/><path class="cls-15" d="M1661.83,180.23c16.42,31.89,52.45,97.09,45.45,122.73-9.17,33.65-64.53,73.16-78.81,84.17-6.22,4.8-40.55-34.68-39-42.94s56.67-56.11,59.63-61.65-10.07-62.46-14-92.65C1630.11,151.81,1647.94,153.24,1661.83,180.23Z"/><path class="cls-15" d="M1575.79,367.06c1.56-3.69-.37-4.54-6.6-1.08s-28,22.4-33.93,14.26,25.07-34.43,35.89-39.39,30-9.17,30-9.17C1596.18,338,1585.47,354.52,1575.79,367.06Z"/><path class="cls-15" d="M1643.46,373.5c-14.78,17.31-32.13,39.75-56.4,48.12a12.68,12.68,0,0,1-8.33.2c-10.81,3.95-15.92,0-15.92,0-11.2.59-15.87-4.14-15.87-4.14s-12.75,4.49-16.74-2.76c-4.51-8.12,14.28-12.85,23-21.76,20-20.42,42.78-55.05,48-61.51Z"/><path class="cls-7" d="M1589.25,386.54c-6,5.89-11.77,11.84-18.55,16.89-7.44,5.53-15.53,9.61-23.66,14a.22.22,0,0,0,.18.4c16-5.56,32-17.66,42.3-31C1589.77,386.49,1589.55,386.25,1589.25,386.54Z"/><path class="cls-7" d="M1603.33,396.84c-6.17,5.41-17.08,14.84-40.63,24.75-.07,0,0,.18,0,.15,16.15-4.4,29.33-12.66,40.84-24.61C1603.94,396.76,1603.74,396.48,1603.33,396.84Z"/><path class="cls-7" d="M1610.79,402.51c-10.84,8.8-18.79,13-32,19.23-.07,0,0,.18,0,.15,15.8-5.53,20.9-9.33,32.34-19.05C1611.54,402.51,1611.22,402.17,1610.79,402.51Z"/><path class="cls-3" d="M1638.86,231.7l54.8-.27s-28.24-53.25-41-66.57c-14.32-15-18.85-4.39-19.47,15.31S1638.86,231.7,1638.86,231.7Z"/><path class="cls-7" d="M1640.73,221.78c7-1,28.31-1,31.83-1,1.86,0,9.28.24,11.13.21.24,0,.2.36,0,.37-3.54.06-7.08.49-10.62.58s-25.25.86-32.3.12A.14.14,0,0,1,1640.73,221.78Z"/><path class="cls-7" d="M1666.65,184.68c-.12-.23.21-.38.35-.18q4.34,6.33,8.4,12.87a43.36,43.36,0,0,0-3.27-7.35c-.05-.11.1-.18.17-.09a36.67,36.67,0,0,1,3.76,8.49q2.84,4.54,5.57,9.15c4.65,7.81,9.39,15.59,13.58,23.65a.63.63,0,0,1-.59.91c-1.9,0-3.79-.15-5.69-.34-.2,0-.24-.33,0-.36,1.57-.21,3.13-.33,4.71-.44-4.69-7.42-9-15.09-13.47-22.64C1675.52,200.54,1671,192.67,1666.65,184.68Z"/><path class="cls-7" d="M1634.28,208.63c-.74-2.8-1.48-5.6-2.12-8.42a0,0,0,1,1,.09,0c.62,2,1.2,4.08,1.76,6.13-.46-4.22-.84-8.45-1-12.67a.06.06,0,0,1,.11,0c1.22,6.31,2.1,12.69,3.17,19s2,12.45,2.93,18.69c1.25.19,2.5.35,3.76.49a.19.19,0,0,1,0,.37c-1.39.07-2.76.14-4.14.28a.63.63,0,0,1-.72-.47C1636.5,224.31,1635.21,216.48,1634.28,208.63Z"/><path class="cls-17" d="M565.24,999.1c5.39,1.82,159.76,2.36,165.66-1.33,2.24-1.4,3.63-23.87,4.54-51.08.2-5.88.37-11.94.5-18.11l12.52-82.33-103.2-.67-9.74,82.36.4,18.11s-59.2,26.23-65.23,31S559.86,997.28,565.24,999.1Z"/><path class="cls-13" d="M565.24,999.1c5.39,1.82,159.76,2.36,165.66-1.33,2.72-1.71,4.21-34.54,5-69.19l-100.42-.64.4,18.11s-59.2,26.23-65.23,31S559.86,997.28,565.24,999.1Z"/><path class="cls-3" d="M565.24,999.1c5.39,1.82,159.76,2.36,165.66-1.33,2.24-1.4,3.63-23.87,4.54-51.08l-99.52-.64s-59.2,26.23-65.23,31S559.86,997.28,565.24,999.1Z"/><path class="cls-7" d="M567.48,992.93c25.88-.54,130.31-.3,155.93,1.13.21,0,.21.16,0,.16-25.64,1.1-130.06,0-155.94-.86C566.93,993.34,566.93,992.94,567.48,992.93Z"/><path class="cls-7" d="M625.87,948.59c10.36-.11,22.35,3.59,28.76,12.08.25.33-.22.68-.53.52a143.21,143.21,0,0,0-28.41-11.33A.65.65,0,0,1,625.87,948.59Z"/><path class="cls-7" d="M617.86,951.68c10.36-.11,22.36,3.59,28.76,12.08.25.33-.22.68-.53.52A143,143,0,0,0,617.68,953,.65.65,0,0,1,617.86,951.68Z"/><path class="cls-7" d="M609.86,954.77c10.36-.11,22.35,3.59,28.76,12.08.25.33-.23.68-.53.52A143.29,143.29,0,0,0,609.67,956,.65.65,0,0,1,609.86,954.77Z"/><path class="cls-1" d="M911.62,482.94S776.19,686.81,773,701.12c-4.93,22-31.23,242.59-31.23,242.59l-113-2.25s25.54-194.89,45.89-258C689.31,638,795.08,487.3,795.08,487.3Z"/><path class="cls-7" d="M632.13,922.1c17.91-.13,81.37-.84,105.2,1.38a.17.17,0,0,1,0,.34c-8.2,1.18-87.31-.65-105.21-1.23A.25.25,0,1,1,632.13,922.1Z"/><path class="cls-17" d="M805.67,1033.52c5.68.38,158.84-40,163.61-45.08a2,2,0,0,0,.36-1c.61-5-7.23-23.83-12.72-47.9-.34-1.54-3.22-8.84-7.26-18.71-11.11-27.11-30.94-73.66-30.94-73.66l-100,25.65,36.83,74,5,17.41s-50.57,40.45-55.18,46.58S800,1033.12,805.67,1033.52Z"/><path class="cls-13" d="M805.67,1033.52c5.68.38,158.84-40,163.61-45.08a2,2,0,0,0,.36-1c.61-5-7.23-23.83-12.72-47.9-.34-1.54-3.22-8.84-7.26-18.71l-94.12,26,5,17.41s-50.57,40.45-55.18,46.58S800,1033.12,805.67,1033.52Z"/><path class="cls-3" d="M805.68,1033.51c5.68.39,158.83-40,163.6-45.07,1.81-1.92-2.15-22.64-12.35-48.94l-96.41,24.72s-50.56,40.43-55.19,46.57S800,1033.12,805.68,1033.51Z"/><path class="cls-7" d="M806.27,1027c24.89-7.11,126-33.46,151.09-38.6.2,0,.24.09,0,.16-24.52,7.59-125.78,33.11-151,38.85C805.85,1027.51,805.75,1027.13,806.27,1027Z"/><path class="cls-7" d="M851.46,969.23c10-2.74,22.53-2.21,30.88,4.37.33.25,0,.71-.38.63a143.43,143.43,0,0,0-30.36-3.72A.65.65,0,0,1,851.46,969.23Z"/><path class="cls-7" d="M844.5,974.26c10-2.74,22.53-2.22,30.89,4.36.32.26,0,.71-.38.64a142.94,142.94,0,0,0-30.36-3.72A.65.65,0,0,1,844.5,974.26Z"/><path class="cls-7" d="M837.54,979.28c10-2.74,22.53-2.21,30.89,4.37.32.25,0,.71-.38.63a143.51,143.51,0,0,0-30.36-3.72A.65.65,0,0,1,837.54,979.28Z"/><path class="cls-1" d="M853.63,964.44l112-29.4S853.46,701.54,854.33,687c.77-12.91,78.58-126.2,82.88-147.4,7-34.71-9.87-65.72-26.26-84.93L795.08,487.3s9.22,20,26.17,32.7c0,0-72.82,121.6-74.69,161.61C744.69,721.84,853.63,964.44,853.63,964.44Z"/><path class="cls-7" d="M851.81,944.28c16.25-4.65,11.53-3.54,27.83-8,8-2.19,60.42-16.52,68.22-17.25a.18.18,0,0,1,.09.33C940.8,922.55,888.12,936,880.1,938c-16.39,4.16-11.73,2.79-28.16,6.76A.25.25,0,0,1,851.81,944.28Z"/><path class="cls-7" d="M803.46,515.34c11.14,3.92,21.85,9.4,32.09,15.13a.36.36,0,0,1-.32.64c-10.81-4.72-21.85-9.24-32.38-14.53A.69.69,0,0,1,803.46,515.34Z"/><path class="cls-7" d="M817.08,512.48a49.19,49.19,0,0,1,2.07,6.25,13.67,13.67,0,0,1,.81,5.12c0,.33-.5.35-.68.12-1.11-1.41-1.56-3.33-2.16-5-.71-1.94-1.45-3.86-2.1-5.81C814.59,511.87,816.56,511.23,817.08,512.48Z"/><path class="cls-7" d="M817.07,502c-.46-1.78-.92-3.56-1.42-5.32s-1.15-3.65-1.52-5.51c-.06-.3-.53-.16-.45.13.45,1.78.66,3.65,1,5.46s.67,3.63,1,5.44c.66,3.37,1.57,6.75,2.56,10a12.11,12.11,0,0,1-5.17-1.59c-1.66-1.11-2.49-3.13-3.15-4.95-.72-2-1.37-4.06-2.12-6.06a40.68,40.68,0,0,1-2.24-6.77c0-.3-.52-.16-.45.14a74.83,74.83,0,0,0,4.12,14.3c.8,1.81,1.4,3.66,3.18,4.55a15.33,15.33,0,0,0,6.21,1.22c.25.11.61,0,.56-.34C818.63,509.14,818,505.49,817.07,502Z"/><path class="cls-7" d="M819,524c-4.41,7.95-9.45,15.59-14.16,23.38-4.6,7.6-9,15.33-13.27,23.11q-13,23.6-24,48.23-5.44,12.18-10.28,24.6c-3.22,8.3-6.41,16.7-8.41,25.4a69.24,69.24,0,0,0-1.14,26.4c1.39,9,4.11,17.72,6.83,26.38,6.23,19.76,13.12,39.34,21.88,58.12.29.63,1.33.15,1.1-.5-6.11-17.26-12.46-34.47-18-52-5.33-17-11.65-34.54-8.71-52.55,1.42-8.68,4.31-17.05,7.36-25.28q4.68-12.6,10.06-24.92c7-16.19,14.94-31.93,23-47.62,4.52-8.8,9.27-17.46,13.84-26.23s9.1-17.84,14.27-26.35C819.54,524,819.14,523.73,819,524Z"/><path class="cls-7" d="M903.39,507c-2.1-.35-5.17.38-14.25-.25a48.32,48.32,0,0,1-7.46-1.21c-2.45-.56-4.94-1.19-6.93-2.81-3.34-2.74-5.87-7.12-7.9-10.88a56.14,56.14,0,0,1-5.52-13.43c-.07-.28-.48-.14-.43.13.48,2.66.74,5.31,1.44,7.94a48.69,48.69,0,0,0,2.66,7.21c1.94,4.36,4.2,9,8.11,12,4.1,3.09,9.81,3.67,14.78,4,2.87.2,14.13-.1,15.65-1.71C903.81,507.66,903.79,507,903.39,507Z"/><path class="cls-7" d="M942.91,915.9c-12.16-31.79-77.94-172.61-90.83-202-3.08-7-6.77-14.14-8.37-21.7-1.73-8.22.8-15.64,4.27-23a393.08,393.08,0,0,1,21.64-39.26c7.87-12.76,16.19-25.23,24.41-37.76s16.72-24.86,23.39-38.17c6.38-12.71,9.92-26.28,8.1-40.54S917.58,486,911,473.5c-1.73-3.3-3.51-6.58-5.25-9.87-.14-.25-.52,0-.38.23,7.33,13.1,14.36,26.87,17.76,41.58a67.62,67.62,0,0,1,1.63,22.23,70.79,70.79,0,0,1-6.3,21.71c-6.09,13.38-14.58,25.71-22.59,38-8.2,12.55-16.55,25-24.53,37.7A430.57,430.57,0,0,0,849,664.42c-3,6-6.2,12.32-6.92,19.1-.79,7.42,1.89,14.54,4.75,21.25,12.46,29.2,93.61,207.94,95.39,211.54C942.47,916.76,943.09,916.37,942.91,915.9Z"/><path class="cls-17" d="M790.64,341.55c6.16-1.91,14.66-17.77,16.13-29.08.1-.77-3.5-7.13-7.52-15.06-2.41-4.82-5-10.24-7-15.36l-29.08,20.31s7.34,9.5,10.76,18.45a12.59,12.59,0,0,1,.6,2.19,2.35,2.35,0,0,0,.09.36C775.54,327.61,781,344.54,790.64,341.55Z"/><path class="cls-7" d="M778,322.26a21.69,21.69,0,0,1-3.38,1.1,1.51,1.51,0,0,0-.1-.37,9.54,9.54,0,0,0-.59-2.19c-3.4-8.93-10.76-18.45-10.76-18.45l27-18.85C792.07,292.3,795.18,315.12,778,322.26Z"/><path class="cls-17" d="M783.87,238.87c7.24,10.52,11.75,46.12,5.85,56.25-8.57,14.68-27.91,21.95-41.72,10.44-13.4-11.15-18.45-57.65-11.36-67.4C747.09,223.79,773.16,223.32,783.87,238.87Z"/><path class="cls-7" d="M755.28,269.31c0-.09.2.1.2.2.14,2.42.7,5.16,2.95,5.77.07,0,.07.14,0,.13C755.73,275.27,755,271.62,755.28,269.31Z"/><path class="cls-7" d="M757.21,266.61c3.84-.63,4.83,7.11,1.26,7.7S754,267.14,757.21,266.61Z"/><path class="cls-7" d="M742.47,270.51c0-.09-.18.14-.16.24.38,2.39.41,5.19-1.66,6.26-.06,0,0,.15,0,.13C743.29,276.43,743.21,272.72,742.47,270.51Z"/><path class="cls-7" d="M740,268.28c-3.9.2-3.22,8,.39,7.79S743.27,268.12,740,268.28Z"/><path class="cls-7" d="M759.81,262.68a30,30,0,0,1-3.13-.67,5.17,5.17,0,0,1-3.06-1.3,1.64,1.64,0,0,1,0-2c1-1.18,2.58-1.21,4-.94a6,6,0,0,1,3.76,2.14A1.76,1.76,0,0,1,759.81,262.68Z"/><path class="cls-7" d="M736.93,265.61a30.65,30.65,0,0,0,3-1.19,5.25,5.25,0,0,0,2.81-1.79,1.67,1.67,0,0,0-.35-2c-1.21-1-2.75-.75-4.14-.25a6,6,0,0,0-3.35,2.75A1.76,1.76,0,0,0,736.93,265.61Z"/><path class="cls-7" d="M761.75,291.18c-.5.63-1,1.48-1.83,1.66a6.33,6.33,0,0,1-2.66-.28.09.09,0,0,0-.09.14,3.25,3.25,0,0,0,3.21.91,2.57,2.57,0,0,0,1.62-2.36C762,291.11,761.83,291.08,761.75,291.18Z"/><path class="cls-7" d="M758.32,284.32a8.22,8.22,0,0,1-5,4.32,10.59,10.59,0,0,1-2.92.51,3.64,3.64,0,0,1-.57,0,5,5,0,0,1-.53,0,.58.58,0,0,1-.55-.47v0a1,1,0,0,1,0-.25v0l0-.21c-.28-1.84-.46-4.67-.46-4.67-.63.43-3.87,2.41-3.94,1.44-.54-8.05-1.14-17,0-25.11a.22.22,0,0,1,.44,0c.82,7.71.29,15.52,1,23.28a14.21,14.21,0,0,1,3.7-1.66c.28,0,.25,5.48.44,6.29a.78.78,0,0,0,0,.09c3.15,0,5.37-1.23,8.12-3.7C758.23,284,758.44,284.11,758.32,284.32Z"/><path class="cls-7" d="M751.38,288.08a9.77,9.77,0,0,0,4.26,2.51,4.46,4.46,0,0,0,2.67-.17c1.85-.75,1.68-2.51,1.13-4a10.6,10.6,0,0,0-1.15-2.2A12.63,12.63,0,0,1,751.38,288.08Z"/><path class="cls-16" d="M755.64,290.59a4.46,4.46,0,0,0,2.67-.17c1.85-.75,1.68-2.51,1.13-4C757.42,286.92,755.56,288.57,755.64,290.59Z"/><path class="cls-7" d="M791.34,266.61c.36-3.28,2.93-38.42,1.44-42-1.36-3.22-4.81-1.25-4.9-1.43s-.69-3.22-2.78-4.06c-1.84-.73-4.09.75-4.09.75s-1.1-3.13-3.27-3.68-3.83,1.51-3.83,1.51-1.18-3-3.87-3.32a3.56,3.56,0,0,0-3.67,2.13s-1.36-2.93-3.58-3.18-3.67,2.32-3.67,2.32-1.62-2.61-4.19-2.22-3.12,3.35-3.12,3.35-2-2.46-4.39-2.14-2.77,3.48-2.77,3.48-1.42-2.53-3.66-2-2.27,3.81-2.27,3.81-1.75-2.74-4.28-1.44c-3.89,2-1.19,21.7-.74,30.37,0,0,.48-4.26,2.2-4.7s3.47,2.13,6.84,2.31c4.79.27,11.6-6.42,18.2-6.1,6.41.31,12.06,6.07,15.89,15.44C781.14,266.42,790.47,274.4,791.34,266.61Z"/><path class="cls-3" d="M761,281.79a11.37,11.37,0,0,1-11.61-11.1h0a11.36,11.36,0,1,1,14.4,10.69A11.19,11.19,0,0,1,761,281.79Zm-10.09-11.14a9.84,9.84,0,1,0,9.62-10,9.62,9.62,0,0,0-2.42.36A9.86,9.86,0,0,0,750.87,270.65Z"/><path class="cls-3" d="M737.25,285.41c-4.6.72-9.13-3.73-10.1-9.91a13.59,13.59,0,0,1,1.15-8.22,7.06,7.06,0,0,1,12-1.86,13.53,13.53,0,0,1,3.6,7.47c.91,5.86-1.69,11.2-5.88,12.37C737.74,285.32,737.5,285.37,737.25,285.41ZM729.65,268a12,12,0,0,0-1,7.29c.84,5.36,4.59,9.24,8.37,8.65s6.17-5.43,5.34-10.79a12.05,12.05,0,0,0-3.17-6.63,6.08,6.08,0,0,0-5.2-2,3.5,3.5,0,0,0-.56.13A6.27,6.27,0,0,0,729.65,268Z"/><path class="cls-3" d="M749.93,271.93l.79-1.3c-1.93-1.16-6.16-2.47-8.45.89l1.26.85C745.57,269.36,749.75,271.82,749.93,271.93Z"/><path class="cls-3" d="M800.38,267l1.22-.9c-.42-.57-4.18-5.58-7.62-5.6-3.21,0-23,5-23.86,5.22l.37,1.47c5.68-1.44,21-5.19,23.48-5.17C796.24,262.05,799.36,265.64,800.38,267Z"/><path class="cls-17" d="M785.36,268.57s4.43-13.2,10.2-11.94,4.7,18.83-.49,22.73a6.19,6.19,0,0,1-8.89-.85Z"/><path class="cls-7" d="M795.13,261.66c.09,0,.15.09.08.15-3.6,2.86-4.64,7.29-5,11.66.77-1.87,2.18-3.19,4.64-2.34.13.05.07.24-.05.25a3.82,3.82,0,0,0-3.64,2.46,18.43,18.43,0,0,0-1,3.82c-.09.42-.8.42-.79,0a.41.41,0,0,1,0-.11C787.78,272.33,789.69,263.83,795.13,261.66Z"/><path class="cls-18" d="M925.53,472.15c-.2.49-149.13,51.22-150.95,50.18-2.54-1.47-21-156.27-8-195.43,3.24-9.79,22.13-21.81,33.3-16.5,32.35,15.4,43.83,33.37,55.44,47.33,8.6,10.35,20.9,28.77,32.78,47.89C907.72,437.1,926.27,470.39,925.53,472.15Z"/><path class="cls-17" d="M790.42,338.32c4.9,21.09,14.7,105.12-5.86,125-24.92,24.11-66.18,43-81.42,52.36-3.83,2.35-30.17-58-20.42-62.6,15.14-7.19,50-23.59,52.62-26,4.61-4.22,17.47-58.18,25.41-87.39C767.9,313.37,787.53,325.89,790.42,338.32Z"/><path class="cls-17" d="M655.07,480.1c2.57-3.1,1-4.47-6-3s-33.4,13.35-36.76,3.79,34.15-25.75,46-27.35,31.55,0,31.55,0C683.14,458.14,668,470.88,655.07,480.1Z"/><path class="cls-17" d="M718.2,506.05C699,518.36,675.73,534.86,650,535.81a12.75,12.75,0,0,1-8.06-2.24c-11.54.63-15.3-4.63-15.3-4.63-10.93-2.7-14-8.61-14-8.61s-13.56.59-15.28-7.54c-2-9.12,17.47-8.17,28.47-14.18,25.2-13.77,57.18-40.39,64.06-45.08Z"/><path class="cls-7" d="M662.3,502.75c-7.49,3.9-14.76,7.93-22.75,10.8-8.76,3.15-17.72,4.71-26.81,6.52a.22.22,0,0,0,.06.44c17-.68,35.86-7.63,49.69-17.43C662.82,502.85,662.68,502.55,662.3,502.75Z"/><path class="cls-7" d="M672.83,516.75c-7.51,3.4-20.74,9.28-46.26,11.92-.09,0-.1.15,0,.15,16.8.49,31.87-3.6,46.43-11.71C673.44,516.86,673.33,516.53,672.83,516.75Z"/><path class="cls-7" d="M678.34,524.38c-13,5.29-21.84,7-36.39,9.12-.08,0-.08.16,0,.16,16.79-.7,22.8-2.86,36.62-8.85C679.06,524.6,678.85,524.18,678.34,524.38Z"/><path class="cls-18" d="M698.15,445.47l21.57,65.61s56.17-27.62,69.84-50S799,380.65,793.71,349s-26.26-45.38-38,3.76-19.33,70.43-21.17,72.59S698.15,445.47,698.15,445.47Z"/><path class="cls-7" d="M768.63,481.74c.87-1.93,16.18-10.72,24-28.21,3.42-7.63,5.91-31,5.89-45.59,0-5.6-.55-11.19-.91-16.78-.73-11.27-1.69-22.56-1.68-33.86a.11.11,0,0,1,.22,0c1.31,7.13,2.17,14.35,2.78,21.59.08-.39.16-.78.23-1.18A100.35,100.35,0,0,0,801,367.51c0-.25.42-.18.38.07-.45,3.38-.56,6.81-.92,10.2-.17,1.64-.35,3.27-.65,4.9-.11.61-.24,1.27-.39,1.93.15,2.25.29,4.49.4,6.73.27,5.7.21,11.4.37,17.1.44,15.7-1.42,36.44-5.9,47.12-7.59,18.06-24.79,25.51-25.25,26.21C768.86,482,768.51,482,768.63,481.74Z"/><path class="cls-7" d="M730.7,502.54c-2.22-4.81-3.77-10-5.5-15s-3.37-9.87-5-14.82c-3.3-10-6.86-20-9.51-30.15a.19.19,0,0,1,.36-.13c4.31,9.69,7.62,19.88,11,29.92q2.55,7.54,4.9,15.18a139.24,139.24,0,0,1,4.14,14.86C731.14,502.69,730.79,502.74,730.7,502.54Z"/><path class="cls-18" d="M771.16,319.88c9.55-9.87,40.36-22.71,55.86-18.23,19.57,5.66,54.43,63.55,49,69.35-9.61,10.37-61.84-13-75.46-25.15S771.16,319.88,771.16,319.88Z"/><path class="cls-7" d="M785.35,336c2.77,1.51,5.58,2.95,8.33,4.5-4.11-3.46-8.25-6.9-12.26-10.48-.13-.12,0-.36.19-.26,5.13,3.16,9.78,7.13,14.54,10.81s9.78,7.52,14.85,11a124.24,124.24,0,0,0,15.74,9.55,131.24,131.24,0,0,0,18.06,7.06c3.48,1.12,7,2.15,10.52,3.13a76.55,76.55,0,0,0,11.53,2.19c.72.05.36.39.11.38a53.88,53.88,0,0,1-9.7-1.32c-3.3-.71-6.61-1.41-9.9-2.18a116.44,116.44,0,0,1-18.54-5.69c-11.72-4.89-21.61-12.6-31.14-20.85l-.56-.47c-1.64-.94-3.27-1.9-4.87-2.93-2.31-1.49-4.66-2.86-7.08-4.15C785,336.21,785.14,335.87,785.35,336Z"/><path class="cls-3" d="M478.5,566.07q-33.17,0-60.18-12.69A148.84,148.84,0,0,1,372.06,520a150.73,150.73,0,0,1-29.88-47.28,146.28,146.28,0,0,1-10.64-54.85,142.67,142.67,0,0,1,11-55.26,146.54,146.54,0,0,1,30.91-46.87,150.55,150.55,0,0,1,47.07-32.34q27.23-12.07,59.56-12.08,33.17,0,60.18,12.69a147.28,147.28,0,0,1,46.25,33.57,150.67,150.67,0,0,1,29.68,47.48,147.93,147.93,0,0,1,10.44,54.45,141.22,141.22,0,0,1-11,55.06,149.14,149.14,0,0,1-30.7,46.66,151.16,151.16,0,0,1-46.87,32.55Q510.82,566.06,478.5,566.07ZM412.59,418.7a98.9,98.9,0,0,0,4.09,28.45A74.43,74.43,0,0,0,429,471.51a61.88,61.88,0,0,0,20.68,17.19q12.48,6.56,29.67,6.55t29.89-6.76a60.45,60.45,0,0,0,20.67-17.6,75.87,75.87,0,0,0,11.87-24.76,104.58,104.58,0,0,0,3.89-28.25,99.3,99.3,0,0,0-4.09-28.45,70.39,70.39,0,0,0-12.49-24.15,63.18,63.18,0,0,0-20.88-16.79q-12.48-6.33-29.27-6.34-17.19,0-29.67,6.55a61.07,61.07,0,0,0-20.68,17.4,73.66,73.66,0,0,0-12.07,24.56A102,102,0,0,0,412.59,418.7Z"/><path class="cls-3" d="M455.37,566.07q-33.17,0-60.18-12.69A148.84,148.84,0,0,1,348.93,520a150.73,150.73,0,0,1-29.88-47.28,146.28,146.28,0,0,1-10.64-54.85,142.67,142.67,0,0,1,11-55.26,146.7,146.7,0,0,1,30.91-46.87,150.55,150.55,0,0,1,47.07-32.34q27.22-12.07,59.56-12.08,33.17,0,60.18,12.69a147.44,147.44,0,0,1,46.26,33.57,150.82,150.82,0,0,1,29.67,47.48,147.93,147.93,0,0,1,10.44,54.45,141.22,141.22,0,0,1-11,55.06,149.14,149.14,0,0,1-30.7,46.66,151.16,151.16,0,0,1-46.87,32.55Q487.69,566.06,455.37,566.07ZM389.46,418.7a98.9,98.9,0,0,0,4.09,28.45,74.43,74.43,0,0,0,12.28,24.36,61.88,61.88,0,0,0,20.68,17.19q12.48,6.56,29.68,6.55t29.88-6.76a60.45,60.45,0,0,0,20.67-17.6,75.87,75.87,0,0,0,11.87-24.76,104.58,104.58,0,0,0,3.89-28.25,99.3,99.3,0,0,0-4.09-28.45,70.21,70.21,0,0,0-12.49-24.15A63.18,63.18,0,0,0,485,348.49q-12.48-6.33-29.26-6.34-17.2,0-29.68,6.55a61.07,61.07,0,0,0-20.68,17.4,73.66,73.66,0,0,0-12.07,24.56A102,102,0,0,0,389.46,418.7Z"/><path class="cls-11" d="M455.37,566.07q-33.17,0-60.18-12.69A148.84,148.84,0,0,1,348.93,520a150.73,150.73,0,0,1-29.88-47.28,146.28,146.28,0,0,1-10.64-54.85,142.67,142.67,0,0,1,11-55.26,146.7,146.7,0,0,1,30.91-46.87,150.55,150.55,0,0,1,47.07-32.34q27.22-12.07,59.56-12.08,33.17,0,60.18,12.69a147.44,147.44,0,0,1,46.26,33.57,150.82,150.82,0,0,1,29.67,47.48,147.93,147.93,0,0,1,10.44,54.45,141.22,141.22,0,0,1-11,55.06,149.14,149.14,0,0,1-30.7,46.66,151.16,151.16,0,0,1-46.87,32.55Q487.69,566.06,455.37,566.07ZM389.46,418.7a98.9,98.9,0,0,0,4.09,28.45,74.43,74.43,0,0,0,12.28,24.36,61.88,61.88,0,0,0,20.68,17.19q12.48,6.56,29.68,6.55t29.88-6.76a60.45,60.45,0,0,0,20.67-17.6,75.87,75.87,0,0,0,11.87-24.76,104.58,104.58,0,0,0,3.89-28.25,99.3,99.3,0,0,0-4.09-28.45,70.21,70.21,0,0,0-12.49-24.15A63.18,63.18,0,0,0,485,348.49q-12.48-6.33-29.26-6.34-17.2,0-29.68,6.55a61.07,61.07,0,0,0-20.68,17.4,73.66,73.66,0,0,0-12.07,24.56A102,102,0,0,0,389.46,418.7Z"/><circle class="cls-6" cx="451.96" cy="295.19" r="9.68"/><path class="cls-19" d="M62.61,1001.9c.6-5.49,63.64-141.35,69.33-145,2.13-1.42,22.47,6.61,46.75,17l.76.33c5,2.14,97.43,27,97.43,27l-41,88.92-96.16-27.78-1.47-.72s-47.39,41.21-54.07,44.56S62,1007.38,62.61,1001.9Z"/><path class="cls-2" d="M197,879.43l-42.14,87.3-15.12-4.37-1.48-.72s-47.4,41.22-54.07,44.56-22.25,1.18-21.61-4.29,63.64-141.36,69.32-145c2.14-1.43,22.48,6.59,46.78,17l.74.34C180.7,874.8,187.52,876.77,197,879.43Z"/><path class="cls-18" d="M62.07,1002.58c.6-5.53,63.78-143,69.51-146.66,2.16-1.43,22.71,6.61,47.26,17l-40.48,88.71s-47.72,41.79-54.44,45.2S61.47,1008.12,62.07,1002.58Z"/><path class="cls-7" d="M68.47,1003.14c11.16-22.77,54-115.68,63.31-139,.07-.19-.05-.25-.15-.07C120.08,886.36,78,979.62,68.09,1003,67.88,1003.46,68.23,1003.62,68.47,1003.14Z"/><path class="cls-7" d="M92.93,1000.28a20.3,20.3,0,0,0,.71-16.36c-1.81-4.3-5.08-8.77-9.93-10.81-.14-.06-.26.2-.13.28,8.41,5.46,12.56,17.3,9.06,26.76A.16.16,0,0,0,92.93,1000.28Z"/><path class="cls-7" d="M132,969.54c4.37-9.17,6-21.35,1.12-30.55-.19-.35-.69-.08-.67.26a140.12,140.12,0,0,1-1.66,29.92A.64.64,0,0,0,132,969.54Z"/><path class="cls-7" d="M125.91,975.38c4.37-9.16,6-21.35,1.13-30.55-.19-.35-.7-.08-.68.26A140.77,140.77,0,0,1,124.71,975,.64.64,0,0,0,125.91,975.38Z"/><path class="cls-7" d="M119.87,981.22c4.36-9.16,6-21.35,1.12-30.54-.19-.36-.69-.08-.68.25a140.9,140.9,0,0,1-1.65,29.93A.64.64,0,0,0,119.87,981.22Z"/><path class="cls-7" d="M113.82,987.06c4.37-9.16,6-21.35,1.12-30.54-.19-.36-.69-.08-.68.26a139.51,139.51,0,0,1-1.65,29.92A.64.64,0,0,0,113.82,987.06Z"/><path class="cls-7" d="M151,880c4.72-10.35-11.36-17.72-16.1-7.34S146.22,890.4,151,880Z"/><path class="cls-7" d="M152,990.81c6-2.89,4.94-10.5,2.24-15.23a53.23,53.23,0,0,0-19.72-19.22.27.27,0,0,0-.4.17,1.23,1.23,0,0,0-1.5,1.32c1.52,8.65,2.07,18.09,6.21,26C141.22,988.49,146.29,993.54,152,990.81Zm-14.39-20.32c-.85-4.24-1.49-8.49-2.5-12.69a160.49,160.49,0,0,1,11.27,11.47A56.51,56.51,0,0,1,151,975.5c2.13,3.4,5.67,16-4.78,12.3C140.48,985.76,138.6,975.54,137.59,970.49Z"/><path class="cls-7" d="M141.62,931.89c-4.93,7.46-6.45,16.79-8.85,25.24-.25.87.6,1.49,1.36,1.46a.27.27,0,0,0,.38.21,53.37,53.37,0,0,0,21.59-17.09c3.17-4.43,5-11.89-.67-15.38C150.06,923,144.49,927.53,141.62,931.89Zm7.8-3.16c10.78-2.6,6,9.56,3.5,12.73a58.35,58.35,0,0,1-5.29,5.71,157.5,157.5,0,0,1-12.39,10.26c1.43-4.08,2.51-8.24,3.79-12.37C140.56,940.14,143.48,930.17,149.42,928.73Z"/><path class="cls-1" d="M375.05,611.18s-1.71,53.25-9.69,79.48c0,0-8.71,4.58-11.32,6.22,0,0,76.44,158.42,72.67,219.37-1.23,20-22.5,45.27-45.36,59.49-40.45,25.17-226.41,10.65-226.41,10.65l28.65-118.71s112,7,115.14.19c4-8.57-20.86-75.2-40.71-129.34-2-5.47-22-25.65-19.65-62.16,2.27-35.54,17.19-65.19,17.19-65.19Z"/><path class="cls-7" d="M206.36,880.87c27.23-.5,49.43,1.81,76.67,1.82l7.72,0H301a30.32,30.32,0,0,0,7.11-.64,8.8,8.8,0,0,0,5.47-3.25c1.81-2.7.84-6.13.22-9.06-1.37-6.4-2.92-12.77-4.61-19.1-6.86-25.72-15.82-50.85-24.25-76.09l-13-39c-1.06-3.16-2.11-6.33-3.45-9.39a79.11,79.11,0,0,0-4.27-8.16,76.2,76.2,0,0,1-7.4-16.07c-7.37-24.21-.28-49.27,8.33-72.11q1.72-4.61,3.6-9.15c.09-.21.42-.12.34.1-7.84,24.12-17.21,49.21-11.93,75a61.76,61.76,0,0,0,6.29,17.31c1.5,2.77,3.15,5.44,4.63,8.22a70.28,70.28,0,0,1,3.8,8.78c4.61,12.79,8.69,25.78,13,38.66,8.61,25.63,17.65,51.19,24.82,77.26,1.79,6.5,3.45,13,4.91,19.6,1.08,4.84,3.5,11.43-.72,15.44-3.1,2.94-8,3.31-12,3.33-6.78,0-13.57,0-20.36-.05-27.62-.08-71.81-2.39-75.23-2.47A.48.48,0,0,1,206.36,880.87Z"/><path class="cls-7" d="M175.91,980.87c2.67-13.87,5.22-27.8,8.29-41.59s6.4-27.59,10-41.3c1-3.87,2.06-7.72,3.09-11.59.49-1.84,1-3.68,1.52-5.51a50.46,50.46,0,0,1,1.7-5.53c.09-.2.35-.08.34.11a76,76,0,0,1-1.89,10.64c-.68,3.34-1.32,6.7-2,10q-2.13,10.32-4.37,20.61c-3,13.75-6.43,27.38-9.93,41q-3,11.61-6,23.22C176.5,981.43,175.82,981.33,175.91,980.87Z"/><path class="cls-7" d="M399.48,803.74,263.88,754.5c-2-5.39-3.93-10.73-5.85-16-2-5.47-22-25.65-19.65-62.16,2.25-35.54,17.17-65.21,17.17-65.21H375s-1.69,53.27-9.69,79.49c0,0-8.71,4.6-11.31,6.23C354,696.88,379.74,751.09,399.48,803.74Z"/><path class="cls-19" d="M617.11,1008.29c-5.28,1.58-155-3.37-160.55-7.18-2.15-1.41-2.7-23.27-2.6-49.69,0-.28,0-.55,0-.83,0-5.44,2.36-96.75,2.36-96.75L561.11,857l-10.53,95.71-.09,1.64s56.45,27.52,62.14,32.36S622.4,1006.72,617.11,1008.29Z"/><path class="cls-2" d="M617.11,1008.3c-5.28,1.58-155-3.38-160.55-7.18-2.14-1.43-2.71-23.28-2.6-49.7v-.84c0-1.48,0-8.89.44-20.11l98.21,3.76-2,18.47-.1,1.64s56.47,27.54,62.16,32.37S622.4,1006.71,617.11,1008.3Z"/><path class="cls-18" d="M618.25,1008.94c-5.34,1.59-156.49-3.45-162.14-7.28-2.15-1.44-2.7-23.5-2.61-50.17l97.47,3s57,27.81,62.75,32.68S623.59,1007.35,618.25,1008.94Z"/><path class="cls-7" d="M616.29,1002.82c-25.32-1.47-127.58-5-152.71-4.52-.21,0-.21.15,0,.16,25.06,2,127.34,4.7,152.7,4.77C616.81,1003.24,616.82,1002.85,616.29,1002.82Z"/><path class="cls-7" d="M604.18,981.37a20.41,20.41,0,0,0-15.37,5.69c-3.26,3.33-6.11,8.07-6.11,13.34,0,.15.28.16.31,0,1.77-9.86,11.08-18.27,21.16-18.71A.16.16,0,0,0,604.18,981.37Z"/><path class="cls-7" d="M560.71,957.3c-10.13-.48-22,2.71-28.59,10.79-.25.32.19.67.5.53a140.83,140.83,0,0,1,28.23-10.07A.64.64,0,0,0,560.71,957.3Z"/><path class="cls-7" d="M568.44,960.61c-10.14-.48-22,2.71-28.59,10.8-.26.31.19.67.5.52a140,140,0,0,1,28.23-10.06A.64.64,0,0,0,568.44,960.61Z"/><path class="cls-7" d="M576.17,963.92c-10.14-.47-22,2.71-28.59,10.8-.26.31.19.67.5.52a139.88,139.88,0,0,1,28.22-10.06A.64.64,0,0,0,576.17,963.92Z"/><path class="cls-7" d="M583.9,967.24c-10.14-.48-22,2.71-28.6,10.79-.25.31.2.67.5.53A140.21,140.21,0,0,1,584,968.49.64.64,0,0,0,583.9,967.24Z"/><path class="cls-7" d="M470.83,974.45c-11.38-.34-11.93,17.34-.54,17.69S482.23,974.8,470.83,974.45Z"/><path class="cls-7" d="M572.58,930.6c-5-4.43-11.6-.48-14.92,3.83a53.24,53.24,0,0,0-10.07,25.63.26.26,0,0,0,.3.3,1.24,1.24,0,0,0,1.8.88c7.39-4.75,15.87-8.92,21.58-15.8C574.6,941.42,577.3,934.79,572.58,930.6Zm-13.17,21.14c-3.57,2.43-7.24,4.66-10.73,7.22,2-5,3.73-10,6.21-14.84a57.76,57.76,0,0,1,3.94-6.71c2.31-3.28,12.55-11.43,13.19-.36C572.37,943.15,563.68,948.85,559.41,951.74Z"/><path class="cls-7" d="M522.26,963c8.79,1.65,18-.56,26.7-1.62a1.23,1.23,0,0,0,.82-1.82.27.27,0,0,0,.05-.43,53.29,53.29,0,0,0-24.12-13.29c-5.31-1.2-12.91,0-13.92,6.57C510.83,958.63,517.13,962,522.26,963Zm-5.93-6c-6.57-8.93,6.51-9.19,10.38-8.15a57.65,57.65,0,0,1,7.32,2.66c5,2.11,9.54,4.88,14.26,7.46-4.32.25-8.58.88-12.88,1.29C530.28,960.76,520,961.93,516.33,957Z"/><path class="cls-1" d="M559.12,945.4H441.89s20.88-159.57,13.93-170c-3.05-4.57-155.22,10.68-199.74-37.54-40.71-44.09.72-126.69.72-126.69H371.43s2.55,35.4,9.26,49.55c2.89,6.07,152.7-2.57,174.54,37.29C584.41,751.3,559.12,945.4,559.12,945.4Z"/><path class="cls-7" d="M454.25,923.11c13.23-.39,26.49-.91,39.73-.89s26.55.28,39.82.81c3.75.14,14.81.67,16.59.8a42.45,42.45,0,0,1,5.41.46c.2,0,.15.32,0,.35-2.87.5-32.87.84-39.46.86-13.19,0-26.36-.35-39.55-.82q-11.24-.4-22.48-.85C453.87,923.81,453.81,923.12,454.25,923.11Z"/><path class="cls-7" d="M358.69,655.45q-.78-5.62-1.46-11.25c-1-8.56-1.9-17.19-2.16-25.81,0-.68.95-.62,1,0,.8,6.65,1.41,13.33,2.16,20s1.33,13.32,2.57,19.84c.37,2,1.2,5.26,3.72,5.3,3.38.05,4-4.51,4.31-7a110.52,110.52,0,0,0,.34-18.64c-.36-7.08-1.25-14.14-2-21.18,0-.26.39-.3.44-.06,2.91,13.7,5.7,28.06,3.28,42.07-.47,2.73-1.68,5.65-4.54,6.6a.61.61,0,0,1-.13,0,.68.68,0,0,1,.08.24c0,.39,0,.79,0,1.19s0,.66,0,1c0,.69.05,1.38,0,2.08a.52.52,0,0,1-1,.09.45.45,0,0,1-.37-.34,11.14,11.14,0,0,1,.08-4.07,5,5,0,0,1-4.16-2.23C359.27,661.06,359.06,658.1,358.69,655.45Z"/><path class="cls-7" d="M379.08,659.06c-9.64,6.36-18.51,14.17-26.88,22.1-.32.31.08.84.45.56,9.15-7.08,18.55-14,27.3-21.58A.69.69,0,0,0,379.08,659.06Z"/><path class="cls-7" d="M276.09,666.35a51.91,51.91,0,0,0,8.06-.62,71.24,71.24,0,0,0,7-1.78c4.32-1.28,9.6-2.8,12.75-6.22s5.34-8.2,7.24-12.47a50.29,50.29,0,0,0,4.25-14.89c0-.22.38-.22.36,0a76.47,76.47,0,0,1-2.65,15.76,50.19,50.19,0,0,1-2.95,7.45,26.71,26.71,0,0,1-4.18,6.68c-3.49,3.77-9.2,5.6-14.1,6.58a43.75,43.75,0,0,1-15.89.09C275.64,666.88,275.76,666.36,276.09,666.35Z"/><path class="cls-7" d="M468.47,767.86a6.87,6.87,0,0,0-5.75-5.45c-3.29-.57-6.81-.23-10.13-.2-7.81.07-15.62.16-23.43.18-30.76.06-61.79-.8-92-6.86a214.75,214.75,0,0,1-43-13c-11.74-5.08-23.48-12-30.79-22.85-8.43-12.43-9.09-28.7-8.8-43.24A165.57,165.57,0,0,1,262,630.18c1.2-3.81,2.54-7.56,4-11.26.09-.24-.25-.43-.35-.2a160.4,160.4,0,0,0-12.21,44.66,155.23,155.23,0,0,0-1,22.81c.22,7.42.79,15,2.89,22.15,8,27.21,38.47,38.46,63.14,45.38,29.67,8.31,60.63,10.62,91.33,11.08,15.43.23,30.87.05,46.3-.21,3-.05,7.8-.87,9.55,2.22.92,1.62,1.09,3.81,1.38,5.61.34,2.17.58,4.36.74,6.55a185.59,185.59,0,0,1-.32,24.62q-1.47,25-3.46,49.94c-1.33,16.73-3.19,33.42-4.41,50.15-.3,4.1-.7,8.19-1.09,12.28,0,.47.77.56.83.09,4.28-33.07,7.35-66.27,9.52-99.54.54-8.22,1.14-16.45,1.37-24.68C470.48,783.92,470.42,775.58,468.47,767.86Z"/><path class="cls-7" d="M393.4,774a255.61,255.61,0,0,1-31.12-2.27c-9.72-1.22-19.43-2.54-29.1-4.19-16.79-2.87-34-6-49.85-12.42-8.53-3.45-17-7.94-24-13.93a.2.2,0,0,0-.28.29c12,11.65,27.23,18.49,43.23,22.85,18.25,5,37.19,7.87,56,9.82,11.17,1.17,24,1.23,35.19,1A.59.59,0,0,0,393.4,774Z"/><path class="cls-7" d="M351.53,404.69c3.06,2.75,23.84-4,26.36-21.31,2.48-17-16.28-27.93-28.39-13C341.85,379.82,345.05,398.88,351.53,404.69Z"/><path class="cls-7" d="M369.83,365.26a24.08,24.08,0,0,0-15.89-.9,14.53,14.53,0,0,0-10.3,10.25c-1.49,5-.91,10.46.43,15.65a45.09,45.09,0,0,0,2.88,7.63,22.15,22.15,0,0,0,4.58,6.8c-2.48-1.4-4.26-3.75-5.89-6.05a36.49,36.49,0,0,1-3.85-7.64c-1.91-5.38-2.76-11.44-1.1-17.24a16.93,16.93,0,0,1,4.68-7.72,17.1,17.1,0,0,1,8-4A21.28,21.28,0,0,1,369.83,365.26Z"/><path class="cls-19" d="M331.53,490.9c.41,2.46,11,19,22.06,19.15,3.62.06,4.83-19.67,4.83-19.67l.43-1.44,5.89-20.11-23-16.95-3.33-2.27s-1.25,5.61-2.74,12.61c-.07.33-.14.65-.21,1s-.19.76-.26,1.13c-.24,1-.47,2.11-.68,3.18-.17.81-.34,1.6-.48,2.46s-.31,1.69-.47,2.55C332.15,481,331.38,489.86,331.53,490.9Z"/><path class="cls-7" d="M335.7,462.22a42,42,0,0,0,23.15,26.72l5.89-20.11-23-16.95-3.33-2.27S337.19,455.22,335.7,462.22Z"/><path class="cls-19" d="M390.92,429.24c12.36,34.64-6.78,46.28-14.47,48.62-6.89,2.1-30.19,9.76-46.07-23.43s-3.67-49.88,11.56-56.22S378.56,394.59,390.92,429.24Z"/><path class="cls-7" d="M385.64,421.91a23.73,23.73,0,0,1-2.52.3,4.08,4.08,0,0,1-2.63-.18,1.32,1.32,0,0,1-.51-1.52,3.26,3.26,0,0,1,2.79-1.74,4.74,4.74,0,0,1,3.37.64A1.39,1.39,0,0,1,385.64,421.91Z"/><path class="cls-7" d="M363.56,430.76a25.15,25.15,0,0,0,2.19-1.29,4.18,4.18,0,0,0,2-1.75,1.31,1.31,0,0,0-.52-1.51,3.22,3.22,0,0,0-3.27.31,4.75,4.75,0,0,0-2.3,2.55A1.4,1.4,0,0,0,363.56,430.76Z"/><path class="cls-7" d="M371.6,437.6c-.05-.09-.14.18-.11.27.94,2.33,1.61,5.15-.23,6.71-.06,0,0,.16.07.12C373.79,443.39,372.86,439.65,371.6,437.6Z"/><path class="cls-7" d="M368.6,435.91c-3.89,1.09-1.42,8.79,2.19,7.78S371.86,435,368.6,435.91Z"/><path class="cls-7" d="M367.22,436.8c-.53.65-.94,1.63-1.73,2s-1.87-.18-2.74-.76c-.09-.06-.13,0-.1.13.45,1.48,1.51,2.81,3.16,2.53s2.12-1.91,2-3.51C367.8,436.87,367.43,436.54,367.22,436.8Z"/><path class="cls-7" d="M384,432.15c0-.09.22.06.25.16.67,2.41,1.85,5.06,4.26,5.18.07,0,.1.13,0,.14C385.76,438.08,384.24,434.55,384,432.15Z"/><path class="cls-7" d="M385.35,429c3.75-1.5,6.46,6.12,3,7.51S382.2,430.24,385.35,429Z"/><path class="cls-7" d="M387.11,428.92c.75.19,1.6.71,2.34.51s1.18-1.29,1.43-2.27c0-.1.11-.06.14,0,.56,1.44.62,3.13-.68,3.91s-2.57-.21-3.43-1.53C386.75,429.33,386.81,428.85,387.11,428.92Z"/><path class="cls-7" d="M377.47,456c.74.41,1.53,1,2.42.87a6.67,6.67,0,0,0,2.44-1.32.09.09,0,0,1,.13.1,3.36,3.36,0,0,1-2.71,2.15,2.69,2.69,0,0,1-2.48-1.63C377.2,456.06,377.37,456,377.47,456Z"/><path class="cls-7" d="M384.54,444.12s1.67,3.38,2.23,5.05c.05.16-.33.37-.88.59,0,0,0,0-.07,0a8.39,8.39,0,0,1-8.72-.39.18.18,0,0,1,.17-.32,12.6,12.6,0,0,0,8-.34c0-.51-3.06-5.7-2.8-5.81a14.93,14.93,0,0,1,4.09-.41c-3.29-7.15-7.7-13.72-10.86-20.89a.24.24,0,0,1,.4-.25c5.1,6.55,9.07,14.7,12.65,22C389.17,444.28,385.3,444.18,384.54,444.12Z"/><path class="cls-7" d="M385.32,448.52a10.28,10.28,0,0,1-2.37,4.63,4.68,4.68,0,0,1-2.47,1.34c-2.07.38-2.9-1.29-3.24-2.89A11.13,11.13,0,0,1,377,449,13.28,13.28,0,0,0,385.32,448.52Z"/><path class="cls-16" d="M383,453.15a4.68,4.68,0,0,1-2.47,1.34c-2.07.38-2.9-1.29-3.24-2.89C379.31,450.88,381.88,451.31,383,453.15Z"/><path class="cls-7" d="M331.48,454.46c3.78-1.39,10.62-15,5.3-33.74,0,0,3.61,17.13,3.1,20s3.81-7.67-.27-22.81c0,0,10.13,3.49,17.82,3.33s12-1.53,12.35-2.2-11.07-.8-14.87-3.2c0,0,21.5,3.07,30.4,1.11,1-.23-4-21.27-20.11-26s-34.52,11.2-38.57,18.45c0,0-6.43,3-10.73,15.14S327.4,456,331.48,454.46Z"/><path class="cls-19" d="M337.58,452.81s-11.79-7.57-15.53-2.95,8.18,17.74,14.7,17.52a6.22,6.22,0,0,0,6.44-6.26Z"/><path class="cls-7" d="M325.56,453.54a.08.08,0,0,0,0,.16c4.63,0,8.23,2.8,11.26,6-1.78-1-3.72-1.13-5.11,1.08-.07.11.09.23.19.17a3.83,3.83,0,0,1,4.41-.37A18.61,18.61,0,0,1,339.5,463c.33.28.89-.18.59-.53l-.07-.08C338,457.28,331.2,451.82,325.56,453.54Z"/><path class="cls-3" d="M380.26,598.49l-4.74,35.72H246.15s28.81-106.9,66.52-138c18.86-15.57,37.95-11.6,48.52,2.55,2.68,3.58,31.13,49.11,32.47,68.37C394.8,584.09,380.26,598.49,380.26,598.49Z"/><path class="cls-4" d="M352.1,490.34H321.37c.79-.41,1.57-.79,2.33-1.14H350C350.7,489.53,351.39,489.93,352.1,490.34Zm7.28,6.16H312.29c-.46.36-.89.74-1.32,1.15h49.35C360,497.27,359.71,496.88,359.38,496.5Zm5.13,7.31H304.88c-.36.38-.71.76-1,1.17h61.4Zm4.46,7.33H298.91c-.27.39-.55.77-.83,1.15h71.58Zm4.21,7.31H293.84c-.25.38-.48.76-.74,1.14h80.74C373.64,519.21,373.41,518.83,373.18,518.45Zm4.06,7.31H289.3l-.69,1.17h89.27C377.67,526.52,377.45,526.14,377.24,525.76Zm3.86,7.33H285.16c-.2.38-.4.76-.61,1.14h97.11C381.48,533.85,381.28,533.47,381.1,533.09Zm3.58,7.31H281.36c-.21.38-.41.76-.59,1.14H385.21Zm3.27,7.31H277.75c-.17.38-.35.76-.53,1.17H388.43C388.28,548.49,388.1,548.09,388,547.71Zm2.84,7.33H274.38c-.18.38-.33.76-.51,1.14h117.3C391.05,555.8,390.92,555.42,390.79,555Zm2.13,7.31H271.18c-.15.38-.33.76-.48,1.14H393.15C393.1,563.11,393,562.73,392.92,562.35Zm-124.78,7.31c-.16.4-.33.78-.49,1.16h126a8.85,8.85,0,0,0,0-1.16ZM265.22,577c-.15.38-.31.76-.43,1.14H392.37q.18-.57.3-1.14Zm-2.77,7.31c-.15.38-.3.76-.43,1.14H389.47c.18-.38.38-.76.56-1.14Zm-2.69,7.3c-.15.41-.28.79-.4,1.17H385c.25-.35.53-.76.81-1.17Zm-2.59,7.34c-.12.38-.25.76-.38,1.14H380.06l.15-1.14Zm-2.46,7.31c-.12.38-.25.76-.38,1.14H379.07l.15-1.14Zm-2.38,7.3c-.13.41-.26.79-.38,1.17H378.11l.15-1.17ZM250,620.89c-.12.38-.25.76-.35,1.14H377.14l.15-1.14Zm-2.2,7.3c-.1.41-.23.79-.33,1.15H376.18l.12-1.15Z"/><path class="cls-19" d="M340.23,520.56c14.58,19.2,75.66,79.74,98.42,76.59,35.68-4.93,72.42-24.55,92.82-34.73,6.48-3.23-26.66-65.1-38.4-57.47-15.16,9.86-46.74,24.64-56,26.56-6.36,1.31-49.91-20.79-80.31-35.94C331.36,482.93,321.75,496.23,340.23,520.56Z"/><path class="cls-19" d="M482.72,512.42s9.7-7,10.35-7.47c2.21-1.51,4.34-3.59,8.6-8.83,10.06-12.39,42.51-36.15,85.27-22.5,16.38,5.23,19.86,19,1.88,16.6-12.67-1.7-21.3-4-25.59-3.36,0,0,13.55,14.11,11.43,25.24-.94,5-3.85,18.5-7.61,28.7a44,44,0,0,1-5.5-.94,23.83,23.83,0,0,1-18.88,17l-16.62,8.29Z"/><path class="cls-19" d="M513.16,485.83c8.25-1.43,25.78-4.15,40.9-1.39,16.79,3.06,48.31,13.49,45.92,25.86-1.75,9.07-14.14,6.15-14.14,6.15s12.12,7,8.75,14.9c-3.08,7.15-12.52,4.32-12.52,4.32s6.61,5.54,2.32,11.86c-5.16,7.6-18.18-5.27-30-2.08C551.67,546.16,513.16,485.83,513.16,485.83Z"/><path class="cls-7" d="M547.86,501.64c8-.07,26.13,4.43,37.87,14.47.27.23.24.55-.05.4a167,167,0,0,0-37.85-14.71A.08.08,0,0,1,547.86,501.64Z"/><path class="cls-7" d="M545.26,518.68c6.89.65,25.4,6.12,36.94,16.7.26.24.21.56-.07.39a180,180,0,0,0-36.91-16.94C545.13,518.81,545.17,518.67,545.26,518.68Z"/><path class="cls-3" d="M419.58,524.89l-21,59.82s-40.06-37-60.34-62.79-10.22-39.4,18.85-28.87S419.58,524.89,419.58,524.89Z"/><path class="cls-4" d="M419.58,524.89l-21,59.82s-40.06-37-60.34-62.79-10.22-39.4,18.85-28.87S419.58,524.89,419.58,524.89Z"/><path class="cls-7" d="M406.36,522.3c-.68,2.05-1.67,4-2.5,6s-1.59,4-2.36,6.05q-2.22,5.86-4.48,11.72c-3.06,7.9-6.31,15.73-8.93,23.85,0,.12.15.23.21.12a202.88,202.88,0,0,0,10.09-23.18q2.28-6,4.4-12c.72-2,1.42-4.1,2-6.18s1.08-4.27,1.8-6.28C406.69,522.25,406.41,522.13,406.36,522.3Z"/><path class="cls-7" d="M324.76,420.16c.07,4.12-18.66,15.38-33.37,5.93-14.5-9.31-10.41-30.62,8.8-30C312.33,396.54,324.62,411.46,324.76,420.16Z"/><path class="cls-7" d="M283,408.12a24.06,24.06,0,0,1,9.74-12.58,14.53,14.53,0,0,1,14.49-1.06c4.74,2.13,8.5,6.17,11.54,10.6a44.87,44.87,0,0,1,3.87,7.16,22.34,22.34,0,0,1,2.13,7.92c.57-2.79,0-5.67-.71-8.41a36.55,36.55,0,0,0-3.24-7.92c-2.81-5-6.82-9.59-12.29-12.13a16.87,16.87,0,0,0-8.9-1.53,17.06,17.06,0,0,0-8.24,3.4A21.31,21.31,0,0,0,283,408.12Z"/><path class="cls-20" d="M1548,79.82a30.73,30.73,0,0,0,5.25-17c0-21.5-23.6-38.92-52.7-38.92s-52.67,17.42-52.67,38.92,23.58,38.92,52.67,38.92c14.11,0,26.9-4.09,36.35-10.77l18.15,4.61Z"/><path class="cls-14" d="M1548,79.82c10.4-15.89,4.07-34.2-10.78-44.56-18.61-13-44.49-14.28-64.9-4.79-22.55,10.35-33,35.24-14.27,54.75,20.11,20.06,55.91,21.13,78.91,5.57l18.12,4.73-.13.15-7-15.85Zm0,0,7.15,15.76.1.2-.22,0-18.18-4.5c-8.38,6.35-20.88,10.09-32,10.72-17,1-35.19-3.79-47.43-16.13-13.49-13.51-13.29-33.07.38-46.37,20.55-19.78,56.79-20.9,79.72-4.64,14.92,10.44,21.13,29.21,10.46,45Z"/><path class="cls-7" d="M1481.62,62.85a5.47,5.47,0,1,1-5.47-5.46A5.47,5.47,0,0,1,1481.62,62.85Z"/><path class="cls-7" d="M1506,62.85a5.46,5.46,0,1,1-5.46-5.46A5.46,5.46,0,0,1,1506,62.85Z"/><path class="cls-7" d="M1530.45,62.85a5.47,5.47,0,1,1-5.46-5.46A5.46,5.46,0,0,1,1530.45,62.85Z"/><path class="cls-20" d="M402,385.61a30.74,30.74,0,0,1-5.25-17c0-21.49,23.6-38.91,52.7-38.91s52.67,17.42,52.67,38.91-23.58,38.92-52.67,38.92c-14.11,0-26.9-4.08-36.35-10.76L395,401.41Z"/><path class="cls-14" d="M402,385.61c-10.66-15.79-4.47-34.57,10.46-45,22.93-16.27,59.16-15.14,79.72,4.63,8.32,8,12.73,20.42,9.22,31.69-7.31,22.82-34.19,32.26-56.27,30.82-11.09-.62-23.61-4.37-32-10.72L395,401.52l-.22.05.1-.2L402,385.61Zm0,0-6.95,15.85-.13-.16,18.22-4.75C436.07,412.29,472,411,492,391c18.73-19.5,8.3-44.39-14.27-54.75-20.41-9.49-46.29-8.25-64.9,4.78C398,351.41,391.62,369.71,402,385.61Z"/><path class="cls-7" d="M468.42,368.64a5.47,5.47,0,1,0,5.47-5.46A5.47,5.47,0,0,0,468.42,368.64Z"/><path class="cls-7" d="M444,368.64a5.46,5.46,0,1,0,5.46-5.46A5.46,5.46,0,0,0,444,368.64Z"/><path class="cls-7" d="M419.59,368.64a5.47,5.47,0,1,0,5.46-5.46A5.46,5.46,0,0,0,419.59,368.64Z"/></svg>