<svg id="Слой_1" data-name="Слой 1" xmlns="http://www.w3.org/2000/svg" viewBox="0 0 923 1000"><defs><style>.cls-1{fill:#ececec;}.cls-2{fill:#dcdcdc;}.cls-3{fill:none;stroke:#c8c8c8;stroke-miterlimit:10;stroke-width:0.25px;}.cls-4{fill:#c8c8c8;}.cls-5{fill:#4a148c;}.cls-6{fill:#306;}.cls-7{fill:#fff;}.cls-8{fill:#ffc800;}.cls-9{opacity:0.1;}.cls-10{fill:#e55f4e;}.cls-11{fill:#a8a8a8;}.cls-12{fill:#ff98bb;}.cls-13{fill:#c36358;}.cls-14{opacity:0.2;}.cls-15{fill:#1a2e35;}</style></defs><rect class="cls-1" x="639.88" y="589.45" width="184.33" height="255.08"/><rect class="cls-2" x="630.95" y="579.98" width="202.19" height="9.46"/><rect class="cls-1" x="833.14" y="579.98" width="63.59" height="9.46"/><rect class="cls-2" x="824.21" y="589.45" width="62.45" height="255.08"/><rect class="cls-3" x="659.96" y="625.99" width="144.17" height="81.29"/><rect class="cls-4" x="711.86" y="649.65" width="28.16" height="16.18"/><rect class="cls-3" x="720.18" y="650.87" width="28.16" height="13.74"/><rect class="cls-3" x="659.96" y="728.69" width="144.17" height="81.28"/><rect class="cls-4" x="711.86" y="752.35" width="28.16" height="16.18"/><rect class="cls-3" x="720.18" y="753.57" width="28.16" height="13.74"/><polygon class="cls-5" points="385.52 894.09 371.51 894.09 469.69 500.73 504.59 500.73 385.52 894.09"/><polygon class="cls-6" points="504.59 500.74 486.98 558.9 455.17 558.9 469.67 500.78 469.69 500.74 504.59 500.74"/><polygon class="cls-5" points="521.41 873.2 507.41 873.2 517.85 500.73 552.75 500.73 521.41 873.2"/><polygon class="cls-6" points="552.74 500.74 547.85 558.9 516.23 558.9 517.86 500.78 517.86 500.74 552.74 500.74"/><polygon class="cls-5" points="657.92 894.09 671.93 894.09 594.64 500.73 559.74 500.73 657.92 894.09"/><polygon class="cls-6" points="606.07 558.9 574.26 558.9 559.74 500.74 594.65 500.74 594.67 500.78 606.07 558.9"/><rect class="cls-5" x="425.49" y="725.57" width="203.71" height="7.68"/><rect class="cls-1" x="257.83" y="115.6" width="554.94" height="409.47"/><rect class="cls-5" x="237.51" y="99.29" width="595.58" height="30.34"/><rect class="cls-7" x="275.83" y="149.29" width="60.1" height="71.21"/><path class="cls-5" d="M308,154.13a2.16,2.16,0,1,1-2.16-2.16A2.15,2.15,0,0,1,308,154.13Z"/><path class="cls-1" d="M287.27,163.55c6.08-.46,12.15-.49,18.23-.56s12.15.09,18.23.56c-6.08.48-12.15.5-18.23.57S293.35,164,287.27,163.55Z"/><path class="cls-1" d="M287.27,169.18a88,88,0,0,1,19.82,0,76.59,76.59,0,0,1-9.91.57A80.32,80.32,0,0,1,287.27,169.18Z"/><path class="cls-1" d="M287.27,174.81c4.22-.44,8.44-.54,12.66-.57s8.44.13,12.67.57c-4.23.44-8.45.54-12.67.57S291.49,175.25,287.27,174.81Z"/><path class="cls-1" d="M287.27,180.44c5.28-.44,10.56-.54,15.84-.57s10.57.12,15.85.57c-5.28.44-10.56.54-15.85.56S292.55,180.88,287.27,180.44Z"/><path class="cls-1" d="M287.27,186.07c4.59-.44,9.18-.55,13.76-.57s9.18.12,13.77.57c-4.59.44-9.18.54-13.77.56S291.86,186.51,287.27,186.07Z"/><path class="cls-1" d="M287.27,191.69c5.87-.46,11.75-.49,17.62-.56s11.74.09,17.62.56c-5.88.47-11.75.5-17.62.57S293.14,192.16,287.27,191.69Z"/><path class="cls-1" d="M287.27,197.32a115.91,115.91,0,0,1,22.76,0,103.37,103.37,0,0,1-11.38.57A105.76,105.76,0,0,1,287.27,197.32Z"/><path class="cls-1" d="M287.27,203c6.08-.47,12.15-.5,18.23-.57s12.15.1,18.23.57c-6.08.47-12.15.5-18.23.56S293.35,203.42,287.27,203Z"/><path class="cls-1" d="M287.27,208.58c6.08-.47,12.15-.5,18.23-.57s12.15.1,18.23.57c-6.08.47-12.15.5-18.23.56S293.35,209,287.27,208.58Z"/><rect class="cls-7" x="738.53" y="334.01" width="55.96" height="66.31"/><path class="cls-5" d="M768.21,343a1.7,1.7,0,1,1-1.7-1.7A1.7,1.7,0,0,1,768.21,343Z"/><path class="cls-1" d="M746.36,350.56a43,43,0,0,1,12.41,0,44,44,0,0,1-12.41,0Z"/><path class="cls-1" d="M746.36,355.56a72,72,0,0,1,16.07,0,73.59,73.59,0,0,1-16.07,0Z"/><path class="cls-1" d="M746.36,360.56a61.81,61.81,0,0,1,14.89,0,63.21,63.21,0,0,1-14.89,0Z"/><path class="cls-1" d="M746.36,365.56a61.81,61.81,0,0,1,14.89,0,63.21,63.21,0,0,1-14.89,0Z"/><path class="cls-1" d="M746.36,370.56a46.67,46.67,0,0,1,12.93,0,41.31,41.31,0,0,1-6.47.44A42.51,42.51,0,0,1,746.36,370.56Z"/><path class="cls-1" d="M746.36,375.56a76.31,76.31,0,0,1,16.55,0,67.56,67.56,0,0,1-8.28.44A69.55,69.55,0,0,1,746.36,375.56Z"/><path class="cls-1" d="M746.36,380.56a52.06,52.06,0,0,1,13.66,0,46.08,46.08,0,0,1-6.83.44A49,49,0,0,1,746.36,380.56Z"/><path class="cls-1" d="M746.36,385.56a81.74,81.74,0,0,1,17.13,0,72.35,72.35,0,0,1-8.57.44A76.69,76.69,0,0,1,746.36,385.56Z"/><path class="cls-1" d="M746.36,390.56a81.74,81.74,0,0,1,17.13,0,72.35,72.35,0,0,1-8.57.44A76.69,76.69,0,0,1,746.36,390.56Z"/><path class="cls-1" d="M770.81,350.56a73.76,73.76,0,0,1,16.27,0,75.42,75.42,0,0,1-16.27,0Z"/><path class="cls-1" d="M770.81,355.56a32,32,0,0,1,10.69,0,32.68,32.68,0,0,1-10.69,0Z"/><path class="cls-1" d="M770.81,360.56a65.25,65.25,0,0,1,15.3,0,66.72,66.72,0,0,1-15.3,0Z"/><path class="cls-1" d="M770.81,365.56a61.81,61.81,0,0,1,14.89,0,63.21,63.21,0,0,1-14.89,0Z"/><path class="cls-1" d="M770.81,370.56a73.76,73.76,0,0,1,16.27,0,65.41,65.41,0,0,1-8.14.44A67.12,67.12,0,0,1,770.81,370.56Z"/><path class="cls-1" d="M770.81,375.56a46.74,46.74,0,0,1,12.94,0,41.47,41.47,0,0,1-6.47.44A42.64,42.64,0,0,1,770.81,375.56Z"/><path class="cls-1" d="M770.81,380.56a65.25,65.25,0,0,1,15.3,0,57.72,57.72,0,0,1-7.65.44A61.32,61.32,0,0,1,770.81,380.56Z"/><path class="cls-1" d="M770.81,385.56a39.17,39.17,0,0,1,11.84,0,34.78,34.78,0,0,1-5.92.44A36.87,36.87,0,0,1,770.81,385.56Z"/><path class="cls-1" d="M770.81,390.56a36,36,0,0,1,11.35,0,31.87,31.87,0,0,1-5.67.44A34,34,0,0,1,770.81,390.56Z"/><rect class="cls-8" x="291.95" y="217.16" width="36.16" height="36.16"/><path class="cls-5" d="M312.19,220.83a2.16,2.16,0,1,1-2.16-2.16A2.16,2.16,0,0,1,312.19,220.83Z"/><polygon class="cls-4" points="341.5 357.32 438.05 357.07 534.6 357.32 438.05 357.56 341.5 357.32"/><polygon class="cls-4" points="341.5 365.19 438.05 364.95 534.6 365.19 438.05 365.44 341.5 365.19"/><polygon class="cls-4" points="341.5 373.07 438.05 372.82 534.6 373.07 438.05 373.31 341.5 373.07"/><polygon class="cls-4" points="341.5 380.94 438.05 380.7 534.6 380.94 438.05 381.19 341.5 380.94"/><polygon class="cls-4" points="341.5 388.82 438.05 388.57 534.6 388.82 438.05 389.06 341.5 388.82"/><polygon class="cls-4" points="341.5 396.69 438.05 396.45 534.6 396.69 438.05 396.93 341.5 396.69"/><polygon class="cls-4" points="341.5 404.56 438.05 404.32 534.6 404.56 438.05 404.81 341.5 404.56"/><polygon class="cls-4" points="341.5 412.44 438.05 412.19 534.6 412.44 438.05 412.68 341.5 412.44"/><polygon class="cls-4" points="341.5 420.31 438.05 420.07 534.6 420.31 438.05 420.56 341.5 420.31"/><polygon class="cls-4" points="341.5 428.19 438.05 427.94 534.6 428.19 438.05 428.43 341.5 428.19"/><polygon class="cls-4" points="341.5 436.06 438.05 435.82 534.6 436.06 438.05 436.31 341.5 436.06"/><polygon class="cls-4" points="341.5 443.94 438.05 443.69 534.6 443.94 438.05 444.18 341.5 443.94"/><polygon class="cls-4" points="341.5 451.81 438.05 451.56 534.6 451.81 438.05 452.05 341.5 451.81"/><polygon class="cls-4" points="341.5 459.68 438.05 459.44 534.6 459.68 438.05 459.93 341.5 459.68"/><polygon class="cls-4" points="341.5 467.56 438.05 467.31 534.6 467.56 438.05 467.8 341.5 467.56"/><rect class="cls-8" x="361.92" y="443.69" width="14.64" height="33.05"/><rect class="cls-8" x="389.08" y="426.06" width="14.64" height="50.67"/><rect class="cls-8" x="416.25" y="406.33" width="14.64" height="70.4"/><rect class="cls-8" x="443.41" y="397.86" width="14.64" height="78.88"/><rect class="cls-8" x="470.58" y="382.75" width="14.64" height="93.99"/><rect class="cls-8" x="497.74" y="367.83" width="14.64" height="108.91"/><path class="cls-4" d="M346.74,351.79l.38,31.24.26,31.23c.18,20.83.23,41.65.27,62.48l-.91-.91,47,0,47,.11,47,.3,47,.54-47,.53-47,.3-47,.11-47,0h-.91v-.9c0-20.83.09-41.65.27-62.48l.26-31.23Z"/><rect class="cls-4" x="361.92" y="483.34" width="14.64" height="1.32"/><rect class="cls-4" x="389.08" y="483.34" width="14.64" height="1.32"/><rect class="cls-4" x="416.25" y="483.34" width="14.64" height="1.32"/><rect class="cls-4" x="443.41" y="483.34" width="14.64" height="1.32"/><rect class="cls-4" x="470.58" y="483.34" width="14.64" height="1.32"/><rect class="cls-4" x="497.74" y="483.34" width="14.64" height="1.32"/><path class="cls-6" d="M363.57,447.86A179.85,179.85,0,0,0,385,446.24a208.47,208.47,0,0,0,21.07-3.8,182.5,182.5,0,0,0,40.23-14.17,143.29,143.29,0,0,0,35.16-23.94l2-1.79,1.88-1.9,3.73-3.82c2.31-2.71,4.79-5.3,6.89-8.18a148.91,148.91,0,0,0,12-17.76l.11.06a127.76,127.76,0,0,1-25.44,34.59,126,126,0,0,1-16.74,13.66,141.94,141.94,0,0,1-18.63,10.94A174.72,174.72,0,0,1,406.37,444,176.58,176.58,0,0,1,363.57,447.86Z"/><polygon class="cls-6" points="512.02 381.07 510 381.58 507.5 371.59 497.72 374.8 497.07 372.81 508.99 368.9 512.02 381.07"/><path class="cls-5" d="M447.51,282a89.5,89.5,0,0,0-21.74,2.86,79.73,79.73,0,0,0-20.29,8.08,51.92,51.92,0,0,0-16.27,14.21,42.45,42.45,0,0,0-7.81,19.94,36.73,36.73,0,0,0,3.05,21,40.45,40.45,0,0,0,14.25,15.78,67.24,67.24,0,0,0,19.76,8.75A94.51,94.51,0,0,0,440,375.76c14.46.46,29.32-1.7,42.29-8.19a47.19,47.19,0,0,0,16.63-13.46,34.41,34.41,0,0,0,.7-40.28,54.29,54.29,0,0,0-15.53-15,70,70,0,0,0-41.61-11.41,70.43,70.43,0,0,1,42.17,10.54,55.33,55.33,0,0,1,16.07,15.17,36.12,36.12,0,0,1,6.68,21.07,35.5,35.5,0,0,1-7,21,49.13,49.13,0,0,1-17.23,14.07c-13.35,6.74-28.47,9-43.23,8.58a94.72,94.72,0,0,1-21.94-3.35,69,69,0,0,1-20.29-9.09,42.3,42.3,0,0,1-14.81-16.58,37.63,37.63,0,0,1-3-22,43.83,43.83,0,0,1,8.33-20.5A52.5,52.5,0,0,1,405,292a80.82,80.82,0,0,1,20.66-7.7A90,90,0,0,1,447.51,282Z"/><rect class="cls-4" x="444.28" y="157.22" width="182.04" height="4.74"/><rect class="cls-4" x="475.41" y="167.11" width="119.78" height="4.74"/><rect class="cls-4" x="388.81" y="321.14" width="98.48" height="4.74"/><rect class="cls-4" x="419.94" y="331.04" width="36.23" height="4.74"/><polygon class="cls-4" points="577.21 303.4 599.36 303.18 621.52 303.11 665.84 302.96 710.15 303.1 732.31 303.18 754.47 303.4 732.31 303.61 710.15 303.69 665.84 303.84 621.52 303.69 599.36 303.61 577.21 303.4"/><polygon class="cls-4" points="577.21 291.14 599.36 290.93 621.52 290.85 665.84 290.7 710.15 290.85 732.31 290.92 754.47 291.14 732.31 291.36 710.15 291.43 665.84 291.58 621.52 291.43 599.36 291.35 577.21 291.14"/><polygon class="cls-4" points="577.21 278.88 599.36 278.67 621.52 278.59 665.84 278.44 710.15 278.59 732.31 278.67 754.47 278.88 732.31 279.1 710.15 279.18 665.84 279.32 621.52 279.18 599.36 279.1 577.21 278.88"/><polygon class="cls-4" points="577.21 266.63 599.36 266.41 621.52 266.33 665.84 266.19 710.15 266.33 732.31 266.41 754.47 266.63 732.31 266.84 710.15 266.92 665.84 267.06 621.52 266.92 599.36 266.84 577.21 266.63"/><polygon class="cls-4" points="577.21 254.37 599.36 254.15 621.52 254.08 665.84 253.93 710.15 254.07 732.31 254.15 754.47 254.37 732.31 254.58 710.15 254.66 665.84 254.81 621.52 254.66 599.36 254.58 577.21 254.37"/><polygon class="cls-4" points="577.21 242.11 599.36 241.9 621.52 241.82 665.84 241.67 710.15 241.82 732.31 241.9 754.47 242.11 732.31 242.33 710.15 242.4 665.84 242.55 621.52 242.4 599.36 242.32 577.21 242.11"/><polygon class="cls-4" points="577.21 229.85 599.36 229.64 621.52 229.56 665.84 229.41 710.15 229.56 732.31 229.64 754.47 229.85 732.31 230.07 710.15 230.15 665.84 230.29 621.52 230.15 599.36 230.07 577.21 229.85"/><polygon class="cls-4" points="577.21 217.6 599.36 217.38 621.52 217.3 665.84 217.16 710.15 217.3 732.31 217.38 754.47 217.6 732.31 217.81 710.15 217.89 665.84 218.04 621.52 217.89 599.36 217.81 577.21 217.6"/><polygon class="cls-4" points="577.21 205.34 599.36 205.12 621.52 205.05 665.84 204.9 710.15 205.04 732.31 205.12 754.47 205.34 732.31 205.55 710.15 205.63 665.84 205.78 621.52 205.63 599.36 205.55 577.21 205.34"/><polygon class="cls-5" points="583.71 298.73 583.32 297.01 606.23 291.8 628.34 270.12 637.19 276.01 654.74 258.48 664.4 264.26 670.71 258.99 688.17 277.4 711.14 249.78 730.32 270.18 752.27 260.15 753 261.75 729.9 272.31 711.23 252.44 688.25 280.06 670.57 261.4 664.57 266.42 655.01 260.7 637.41 278.28 628.55 272.38 607.11 293.41 583.71 298.73"/><path class="cls-5" d="M609,292.41a2.33,2.33,0,1,1-2.33-2.32A2.32,2.32,0,0,1,609,292.41Z"/><circle class="cls-5" cx="628.21" cy="271.43" r="2.32"/><path class="cls-5" d="M657.39,259.77a2.33,2.33,0,1,1-2.32-2.32A2.32,2.32,0,0,1,657.39,259.77Z"/><path class="cls-5" d="M666.82,265.44a2.32,2.32,0,1,1-2.32-2.33A2.32,2.32,0,0,1,666.82,265.44Z"/><path class="cls-5" d="M673,260.37a2.33,2.33,0,1,1-2.33-2.32A2.32,2.32,0,0,1,673,260.37Z"/><path class="cls-5" d="M713.3,251.11a2.33,2.33,0,1,1-2.33-2.32A2.33,2.33,0,0,1,713.3,251.11Z"/><circle class="cls-5" cx="730.45" cy="270.91" r="2.32"/><path class="cls-5" d="M755,261.27a2.33,2.33,0,1,1-2.33-2.32A2.33,2.33,0,0,1,755,261.27Z"/><path class="cls-5" d="M690.48,278.55a2.33,2.33,0,1,1-2.33-2.33A2.32,2.32,0,0,1,690.48,278.55Z"/><polygon class="cls-6" points="583.71 298.73 583.32 296.63 607.53 270.15 617.46 275.38 643.7 248.71 650.95 254.65 663.31 244.02 686.88 260.98 692.12 255 705.49 267.33 725.07 249.94 737.68 260.74 752.4 256.77 752.86 258.47 737.25 262.68 725.09 252.28 705.47 269.71 692.26 257.52 687.14 263.34 663.41 246.26 650.98 256.96 643.82 251.09 617.8 277.55 607.91 272.34 583.71 298.73"/><path class="cls-6" d="M609.86,271.69a2.33,2.33,0,1,1-2.32-2.32A2.32,2.32,0,0,1,609.86,271.69Z"/><path class="cls-6" d="M619.82,276.33A2.32,2.32,0,1,1,617.5,274,2.32,2.32,0,0,1,619.82,276.33Z"/><path class="cls-6" d="M645.77,250.06a2.33,2.33,0,1,1-2.32-2.32A2.32,2.32,0,0,1,645.77,250.06Z"/><path class="cls-6" d="M653.57,255.72a2.33,2.33,0,1,1-2.32-2.32A2.32,2.32,0,0,1,653.57,255.72Z"/><path class="cls-6" d="M665.7,245.14a2.33,2.33,0,1,1-2.32-2.33A2.32,2.32,0,0,1,665.7,245.14Z"/><path class="cls-6" d="M689.18,262.09a2.32,2.32,0,1,1-2.32-2.32A2.32,2.32,0,0,1,689.18,262.09Z"/><path class="cls-6" d="M694.23,256.34a2.32,2.32,0,1,1-2.32-2.33A2.32,2.32,0,0,1,694.23,256.34Z"/><path class="cls-6" d="M707.52,268.59a2.33,2.33,0,1,1-2.33-2.32A2.32,2.32,0,0,1,707.52,268.59Z"/><path class="cls-6" d="M727.55,251.69a2.32,2.32,0,1,1-2.32-2.32A2.32,2.32,0,0,1,727.55,251.69Z"/><path class="cls-6" d="M739.9,261.75a2.33,2.33,0,1,1-2.33-2.32A2.33,2.33,0,0,1,739.9,261.75Z"/><circle class="cls-6" cx="752.63" cy="257.45" r="2.32"/><polygon class="cls-8" points="583.48 298.55 583.32 296.63 613.53 279.27 629.54 286.48 638.32 283.53 647.47 289.18 666.49 275.21 674.14 281.4 682.16 279 695.3 286.43 716.09 276.51 729.22 286.33 752.12 269.86 753.15 271.3 729.2 288.52 715.89 278.56 695.23 288.42 681.95 280.91 673.75 283.36 666.44 277.44 647.56 291.31 638.09 285.46 629.45 288.37 613.62 281.25 583.48 298.55"/><path class="cls-8" d="M615.9,280.26a2.33,2.33,0,1,1-2.32-2.32A2.32,2.32,0,0,1,615.9,280.26Z"/><path class="cls-8" d="M631.82,287.34a2.33,2.33,0,1,1-2.33-2.32A2.33,2.33,0,0,1,631.82,287.34Z"/><path class="cls-8" d="M640.55,284.9a2.33,2.33,0,1,1-2.32-2.32A2.32,2.32,0,0,1,640.55,284.9Z"/><path class="cls-8" d="M650,290.09a2.33,2.33,0,1,1-2.32-2.33A2.32,2.32,0,0,1,650,290.09Z"/><path class="cls-8" d="M676.17,282.05a2.33,2.33,0,1,1-2.33-2.33A2.32,2.32,0,0,1,676.17,282.05Z"/><path class="cls-8" d="M697.49,287.23a2.32,2.32,0,1,1-2.32-2.33A2.32,2.32,0,0,1,697.49,287.23Z"/><circle class="cls-8" cx="729.55" cy="287.23" r="2.32"/><path class="cls-8" d="M668.65,276.22a2.33,2.33,0,1,1-2.33-2.32A2.33,2.33,0,0,1,668.65,276.22Z"/><path class="cls-8" d="M684.54,280.26a2.33,2.33,0,1,1-2.32-2.32A2.32,2.32,0,0,1,684.54,280.26Z"/><path class="cls-8" d="M718.12,277.4a2.32,2.32,0,1,1-2.32-2.32A2.32,2.32,0,0,1,718.12,277.4Z"/><path class="cls-8" d="M755,270.58a2.33,2.33,0,1,1-2.33-2.32A2.32,2.32,0,0,1,755,270.58Z"/><polygon class="cls-4" points="583.41 199.59 583.59 228.52 583.68 257.45 583.8 315.3 583.41 314.92 625.6 314.89 667.78 314.98 709.96 315.07 752.15 315.3 709.96 315.54 667.78 315.62 625.6 315.71 583.41 315.69 583.02 315.69 583.03 315.3 583.15 257.45 583.24 228.52 583.41 199.59"/><circle class="cls-5" cx="624.95" cy="410.59" r="47.75" transform="translate(86.16 929.1) rotate(-77.21)"/><path class="cls-2" d="M625,410.59l-17,44.61a47.75,47.75,0,1,1,64.78-44.61Z"/><path class="cls-2" d="M625,410.59,663.31,439a47.75,47.75,0,1,1,9.39-28.44Z"/><path class="cls-8" d="M625,410.59l-42.38,22a47.75,47.75,0,1,1,90.13-22Z"/><polygon class="cls-4" points="644.35 389.73 643.62 389 666.5 366.12 695.59 366.12 695.59 367.15 666.93 367.15 644.35 389.73"/><rect class="cls-4" x="651.05" y="417.92" width="44.53" height="1.03"/><polygon class="cls-4" points="695.59 468.21 665.34 468.21 665.19 468.02 643.59 441.56 644.38 440.91 665.83 467.19 695.59 467.19 695.59 468.21"/><path class="cls-4" d="M697.79,366.63a2.21,2.21,0,1,1-2.21-2.21A2.21,2.21,0,0,1,697.79,366.63Z"/><path class="cls-4" d="M697.79,418.43a2.21,2.21,0,1,1-2.21-2.21A2.21,2.21,0,0,1,697.79,418.43Z"/><path class="cls-4" d="M697.79,467.7a2.21,2.21,0,1,1-2.21-2.21A2.21,2.21,0,0,1,697.79,467.7Z"/><rect class="cls-4" x="703.95" y="366.12" width="19.89" height="1.03"/><rect class="cls-4" x="703.95" y="369.41" width="27.78" height="1.03"/><rect class="cls-4" x="703.95" y="372.7" width="23.89" height="1.03"/><rect class="cls-4" x="703.95" y="375.99" width="30.4" height="1.03"/><rect class="cls-4" x="703.95" y="379.28" width="26.33" height="1.03"/><rect class="cls-4" x="703.95" y="382.57" width="22.56" height="1.03"/><rect class="cls-4" x="703.95" y="417.92" width="27.45" height="1.03"/><rect class="cls-4" x="703.95" y="421.21" width="18.56" height="1.03"/><rect class="cls-4" x="703.95" y="424.5" width="25.22" height="1.03"/><rect class="cls-4" x="703.95" y="427.79" width="27.45" height="1.03"/><rect class="cls-4" x="703.95" y="431.08" width="30.4" height="1.03"/><rect class="cls-4" x="703.95" y="434.37" width="22.56" height="1.03"/><rect class="cls-4" x="703.95" y="467.18" width="23" height="1.03"/><rect class="cls-4" x="703.95" y="470.47" width="30.4" height="1.03"/><rect class="cls-4" x="703.95" y="473.76" width="19.21" height="1.03"/><rect class="cls-4" x="703.95" y="477.06" width="30.4" height="1.03"/><rect class="cls-4" x="703.95" y="480.35" width="26.26" height="1.03"/><rect class="cls-4" x="703.95" y="483.64" width="16.18" height="1.03"/><rect class="cls-4" x="365.15" y="208.31" width="54.79" height="4.71"/><rect class="cls-4" x="365.15" y="218.15" width="74.03" height="4.71"/><rect class="cls-4" x="365.15" y="227.98" width="39.29" height="4.71"/><rect class="cls-8" x="341.5" y="208.31" width="11.43" height="11.43"/><rect class="cls-4" x="365.15" y="246.36" width="65.13" height="4.71"/><rect class="cls-4" x="365.15" y="256.19" width="51.52" height="4.71"/><rect class="cls-4" x="365.15" y="266.02" width="74.03" height="4.71"/><rect class="cls-7" x="341.5" y="246.36" width="11.43" height="11.43"/><path class="cls-5" d="M519,332.2a53.77,53.77,0,0,1,1.26-21.26,54.54,54.54,0,0,1,9.14-19.43l.77-1.12.89-1,1.78-2,1.78-2c.63-.65,1.33-1.22,2-1.83,1.35-1.19,2.68-2.41,4.06-3.56l4.44-3,2.24-1.49,2.39-1.23,4.76-2.45a52,52,0,0,1,5-1.94l5-1.81.09.25c-3.2,1.53-6.45,2.93-9.59,4.52l-4.55,2.65-2.28,1.33L546,278.28l-4.22,3.11c-1.32,1.14-2.56,2.37-3.85,3.54-.64.6-1.31,1.16-1.91,1.79l-1.7,2-1.71,2-.85,1-.74,1.07a59.49,59.49,0,0,0-9.3,18.62c-.57,1.66-.88,3.39-1.34,5.08s-.63,3.45-.89,5.19A59.18,59.18,0,0,0,519,332.2Z"/><polygon class="cls-5" points="561.14 278.64 559.26 277.72 563.78 268.46 554.22 264.64 555 262.7 566.64 267.36 561.14 278.64"/><path class="cls-5" d="M579.71,326.45a66.45,66.45,0,0,0-5.24,7.91c-.78,1.38-1.52,2.77-2.25,4.16s-1.36,2.84-2,4.29a71.67,71.67,0,0,0-5.1,18,68.16,68.16,0,0,0-.29,18.71,66.8,66.8,0,0,0,1.59,9.29c.7,3.08,1.76,6.06,2.62,9.13l-.27.11L567,393.66a31.5,31.5,0,0,1-1.65-4.5,69.93,69.93,0,0,1-2.17-9.37,60.35,60.35,0,0,1-.07-19.25,61.6,61.6,0,0,1,5.72-18.38A58.33,58.33,0,0,1,579.71,326.45Z"/><polygon class="cls-5" points="558.57 394.59 559.49 392.71 568.74 397.25 572.59 387.7 574.53 388.48 569.83 400.12 558.57 394.59"/><path class="cls-5" d="M345.76,270.14a64.94,64.94,0,0,0-.92,8.07,72.45,72.45,0,0,0-.14,8.07,65.92,65.92,0,0,0,2.48,15.78A47.35,47.35,0,0,0,354,316.4c.78,1.08,1.5,2.21,2.34,3.25l2.72,3a24.66,24.66,0,0,0,2.91,2.78l3.06,2.67-.18.27c-4.53-3-9-6.39-12.24-10.9l-1.29-1.64L350.22,314a41.48,41.48,0,0,1-2.06-3.61l-1.67-3.8c-.52-1.29-.88-2.63-1.3-3.95a54.25,54.25,0,0,1-2.05-16.35A56.09,56.09,0,0,1,345.76,270.14Z"/><polygon class="cls-5" points="354.35 330.87 354.11 328.79 364.34 327.6 362.41 317.48 364.46 317.09 366.81 329.42 354.35 330.87"/><path class="cls-8" d="M517.3,228.55c3,15.26-5.62,21-5.95,25.41a71.63,71.63,0,0,0,.43,8.16L496.4,267a69.34,69.34,0,0,0-4.36-6.9c-2.83-3.42-13.15-3.11-19.56-17.28-4.21-9.31-1.81-26.9,14.46-32.08S515.34,218.52,517.3,228.55Z"/><rect class="cls-7" x="493.93" y="242.22" width="1.06" height="26.12" transform="translate(-61.93 264.45) rotate(-28.25)"/><rect class="cls-7" x="506.05" y="238.35" width="1.06" height="26.11" transform="translate(-27.23 64.64) rotate(-7.11)"/><path class="cls-7" d="M499.23,249.3h0c-1.44.46-3.1-.43-4.5-1.76a1.92,1.92,0,0,1-1.09,1.1h0c-2.35.75-4.81-3.74-4.91-3.93l.47-.26c.64,1.2,2.68,4.2,4.28,3.69h0a1.59,1.59,0,0,0,.85-1,11.27,11.27,0,0,1-2.51-4c-.44-1.36-.17-2.31.74-2.6h0a1.51,1.51,0,0,1,1.56.33c1.12,1,1.38,3.68,1,5.55a4.74,4.74,0,0,1-.15.57c1.32,1.31,2.88,2.17,4.13,1.78h0c1.13-.36,1.79-1.71,2.07-3.31a6.74,6.74,0,0,1-2.72-3.68c-.56-1.74-.24-3,.83-3.37h0c.87-.28,1.64.41,2.11,1.9a11.92,11.92,0,0,1,.35,4.87,2.21,2.21,0,0,0,1.66.12h0c1.38-.44,1.54-4.16,1.49-5.56l.53,0c0,.56.14,5.45-1.85,6.09h0a2.79,2.79,0,0,1-1.91-.11C501.31,247.42,500.57,248.87,499.23,249.3Zm.18-10.36c-.91.29-.83,1.64-.49,2.71a6.6,6.6,0,0,0,2.3,3.29,11.12,11.12,0,0,0-.36-4.44c-.18-.55-.67-1.81-1.45-1.56Zm-6.69,2.13c-.76.25-.64,1.19-.4,1.94a10.28,10.28,0,0,0,2.2,3.57l.06-.24c.37-1.7.12-4.19-.82-5.05a1,1,0,0,0-1-.22Z"/><rect class="cls-6" x="494.52" y="263.82" width="19.91" height="3.89" transform="translate(-56.89 165.81) rotate(-17.69)"/><rect class="cls-6" x="495.89" y="268.12" width="19.91" height="3.89" transform="translate(-58.14 166.43) rotate(-17.68)"/><rect class="cls-6" x="497.27" y="272.43" width="19.91" height="3.89" transform="translate(-59.38 167.06) rotate(-17.69)"/><path class="cls-5" d="M494.29,199a16.33,16.33,0,0,1-1-6.06,16.11,16.11,0,0,1,1-6.05,16.11,16.11,0,0,1,1,6.05A16.33,16.33,0,0,1,494.29,199Z"/><path class="cls-5" d="M470.34,208.76a16.26,16.26,0,0,1-5-3.54,16.09,16.09,0,0,1-3.54-5,18,18,0,0,1,8.56,8.56Z"/><path class="cls-5" d="M460.3,232.59a16.33,16.33,0,0,1-6.06,1,16,16,0,0,1-6.05-1,18.15,18.15,0,0,1,12.11,0Z"/><path class="cls-5" d="M470,256.54a18,18,0,0,1-8.56,8.56,16.09,16.09,0,0,1,3.54-5A16.26,16.26,0,0,1,470,256.54Z"/><path class="cls-5" d="M527.86,233A18.15,18.15,0,0,1,540,233a16.12,16.12,0,0,1-6.05,1.05A16.34,16.34,0,0,1,527.86,233Z"/><path class="cls-5" d="M518.12,209.06a18,18,0,0,1,8.56-8.56,18,18,0,0,1-8.56,8.56Z"/><path class="cls-8" d="M380.08,767.61s-36.17-8.2-56-26.47-30.89-51-30.89-51a311.46,311.46,0,0,1,40.56,10.65c3.23,3.46,9.4,10.6,12.27,17.35a83.49,83.49,0,0,0,.1-12.4A55.34,55.34,0,0,1,359,713.58C375.43,728,380.08,767.61,380.08,767.61Z"/><path class="cls-6" d="M315.77,706.06c-4.93-3.41-9.95-6.7-14.86-10.14-.29-.21,0-.68.3-.49,9.32,5.57,18.51,11.52,27.4,17.75,3.1,2.17,6.14,4.43,9.15,6.74l-.63-1.07c-1.09-1.82-2.23-3.6-3.38-5.38a76.65,76.65,0,0,0-7.67-10.25c-.11-.12.07-.29.17-.17,2.82,3.25,5.63,6.46,8.2,9.91,1.23,1.63,2.36,3.33,3.44,5.06.56.9,1.1,1.81,1.62,2.74.18.3.37.61.55.93,4.67,3.67,9.23,7.5,13.57,11.55,2.69,2.5,5.27,5.09,7.77,7.76-1.4-4.37-2.62-8.8-4.24-13.11-.06-.15.19-.21.24-.06,1.57,4.52,3.3,9.06,4.51,13.71,2.78,3,5.43,6.09,7.92,9.32,0-.2-.08-.4-.13-.59q-.61-2.55-1.29-5.1c-.88-3.27-1.84-6.52-3-9.73-2.26-6.57-5.2-13-9.71-18.35-.11-.12.07-.29.17-.17,7.07,8.37,11.21,18.4,13.86,28.93.38,1.54.75,3.08,1.1,4.63.19.82.4,1.66.54,2.5,1.09,1.48,2.17,3,3.19,4.5a157.11,157.11,0,0,1,15.31,30,346.88,346.88,0,0,1,11.59,36.14c.07.24-.29.32-.37.09-7.07-21.16-14.3-42.63-26.41-61.55a140.08,140.08,0,0,0-8.26-11.55,68.4,68.4,0,0,1-17.58-3.51,77.3,77.3,0,0,1-17.63-8.51,106.94,106.94,0,0,1-9-6.82.12.12,0,1,1,.16-.19,72.51,72.51,0,0,0,16.58,10,90.78,90.78,0,0,0,18.24,6.12c2.67.58,5.38,1,8.09,1.38a153,153,0,0,0-10.67-11.82c-1.22-1.22-2.48-2.38-3.74-3.56a85.48,85.48,0,0,0-13.37-7.66c-5.92-2.86-11.75-5.9-17.62-8.88-3.31-1.68-6.6-3.41-9.93-5-.15-.07,0-.27.13-.2,5.94,2.87,12,5.55,18,8.3,5.65,2.59,11.36,5.18,16.78,8.23l.68.4c-4.9-4.26-10-8.33-15.16-12.24Q323.18,711.21,315.77,706.06Z"/><path class="cls-6" d="M317.83,724.71c2.94,1.29,5.93,2.43,8.84,3.79s5.84,3,8.68,4.72a.11.11,0,0,1-.12.19c-2.88-1.38-5.8-2.67-8.66-4.11s-5.81-3-8.81-4.36C317.61,724.88,317.68,724.64,317.83,724.71Z"/><path class="cls-8" d="M497.57,585.34a51.64,51.64,0,0,0-10.81,30c-.12,3.24.39,7.76.77,13.08-13.49,7.2-23.6,20.17-23.6,20.17,7.66-4.6,18.17-6.46,23.85-5.71a73,73,0,0,1-1.38,10.81c-2.51-.15-7.35.19-15.34,3,0,0,7.85-.2,13.83,2.75C478.44,680,459.28,701.09,406.36,710c0,0-10.21-35.93,9.37-74.47C431.59,604.38,497.57,585.34,497.57,585.34Z"/><path class="cls-6" d="M388,797.81q1.38-13.14,3.43-26.21a525.06,525.06,0,0,1,10.67-51.8,207.69,207.69,0,0,1,7.64-23.61,35.23,35.23,0,0,1-.2-4.23c0-1.7,0-3.39,0-5.09q.06-5.08.48-10.15a121.1,121.1,0,0,1,3.26-19.84c1-3.77,2.09-7.48,3.19-11.21a.13.13,0,0,1,.24.07,146.08,146.08,0,0,0-3.91,19.81A188.34,188.34,0,0,0,411,685.4c-.06,1.82-.1,3.64-.1,5.46,0,.77,0,1.56.06,2.34a172.11,172.11,0,0,1,8.92-18.46A223.4,223.4,0,0,1,438,647.65a11.33,11.33,0,0,1,.44-3c.25-1.19.5-2.37.77-3.55.54-2.41,1.15-4.82,1.8-7.21,1.32-4.79,3-9.43,4.55-14.16.05-.15.29-.08.24.07-1.4,4.69-2.33,9.54-3.4,14.31-.53,2.36-1.05,4.73-1.57,7.09q-.39,1.77-.75,3.54c0,.09,0,.18-.05.27q3.21-4,6.55-8c10.11-11.85,21.19-22.78,32.34-33.64,1.37-1.33,2.78-2.63,4.17-3.95.11-.1.27.07.17.18C472.63,610.78,462.13,622,452.2,633.8c-2.36,2.79-4.69,5.63-7,8.49,1.2-.81,2.41-1.61,3.61-2.39,3.08-2,6.19-4,9.41-5.77s6.44-3.56,9.74-5.2,7-3,10.3-4.95c.14-.08.26.16.12.21a77.74,77.74,0,0,0-9.66,5.35c-3.22,1.91-6.44,3.84-9.6,5.84s-6.24,3.92-9.33,5.93c-2.57,1.67-5.11,3.5-7.77,5a250.28,250.28,0,0,0-17,24.68,181.73,181.73,0,0,0-8.76,16.62l1.9-.83,4.84-2.15c3.11-1.38,6.24-2.73,9.36-4.08,5.94-2.59,12-5,17.79-7.79a82.25,82.25,0,0,0,9.5-5.27c.13-.09.25.12.12.21-10.85,7.48-23,12.75-35,18.06l-5.2,2.31c-1.43.63-2.87,1.34-4.34,1.89a185.6,185.6,0,0,0-8.95,24.53,497.41,497.41,0,0,0-11.51,51.19c-3,17.28-5.09,34.69-6.68,52.16-.2,2.18-.39,4.36-.64,6.53a.69.69,0,0,1-1.38,0C386.21,815.51,387.12,806.62,388,797.81Z"/><path class="cls-6" d="M420.24,651.67c1-5.38,2.4-10.64,3.85-15.91,0-.15.27-.08.23.07C423,641,422,646.27,421.06,651.52s-1.87,10.72-2.62,16.11c0,.09-.16.09-.15,0A140,140,0,0,1,420.24,651.67Z"/><path class="cls-6" d="M443,666.26a95.61,95.61,0,0,1,11.51-6.48c1.93-1,3.88-1.94,5.84-2.89s4.1-1.79,6.1-2.79c.14-.08.26.14.12.21-1.93,1-3.77,2.15-5.67,3.18s-3.91,2.16-5.88,3.22c-3.87,2.07-7.67,4.38-11.73,6.06A.29.29,0,0,1,443,666.26Z"/><path class="cls-6" d="M379.42,705s-33.47-8-48.84-30.45c-14.67-21.44-19.41-58-19.79-61.2.6,2.94,7.51,34.89,30.29,49.77C358.53,674.48,375.38,683.85,379.42,705Z"/><path class="cls-6" d="M348.53,647.13c5.89,5.67,10.31,12.34,12.34,20.33,0,.06-.08.1-.11,0a49.92,49.92,0,0,0-12.39-20.17C348.25,647.21,348.42,647,348.53,647.13Z"/><path class="cls-8" d="M379.42,705s-33.47-8-48.84-30.45c-14.67-21.44-19.41-58-19.79-61.2,0-.15,0-.23,0-.23s16.05,22.82,32.92,28.64S384.26,667.66,379.42,705Z"/><path class="cls-6" d="M316.68,625.67A137.86,137.86,0,0,0,327,643.36a70.53,70.53,0,0,0,13.77,14.16c4.54,3.62,9.35,6.89,13.95,10.43l-.1-.17c-.87-1.28-1.79-2.53-2.74-3.75-1.92-2.44-4-4.76-6.12-7-4.16-4.51-8.41-8.94-12.13-13.82a51.14,51.14,0,0,1-5.37-8.65c-.07-.14.16-.22.23-.08,5.43,11.31,16.27,18.55,24,28.1a50.82,50.82,0,0,1,3.09,4.23,17.77,17.77,0,0,1,1.93,3.41A70,70,0,0,1,369,681.72a45.71,45.71,0,0,0-1.35-6.5,32.72,32.72,0,0,0-3.55-8.48c-.08-.13.13-.27.21-.13a39.73,39.73,0,0,1,3.9,8.42,29.42,29.42,0,0,1,1.22,7.23l0,0a65.64,65.64,0,0,1,4.52,7c-.14-.72-.27-1.43-.42-2.14-.66-3.34-1.39-6.67-2.26-9.95-1.76-6.67-4.13-13.14-8.05-18.86-.09-.13.12-.27.21-.13a71.74,71.74,0,0,1,8.91,18.44c1.07,3.29,1.93,6.63,2.68,10,.36,1.65.69,3.3,1,5,.16.86.35,1.73.49,2.62a120.6,120.6,0,0,1,7.72,22.68,332.89,332.89,0,0,1,7.13,42.32,351.37,351.37,0,0,1,2.31,44.93c0,1.89-.14,3.76-.24,5.64,0,.49-.76.56-.78.05-.33-7.43-.52-14.86-1-22.28s-1.08-14.84-1.88-22.23a394.92,394.92,0,0,0-7-43.27c-2.72-12.24-6.24-24.56-12.92-35.28a66.43,66.43,0,0,0-12.08-14.36c-4.69-4.21-9.82-7.9-14.77-11.8a80.74,80.74,0,0,1-13.55-13,106.62,106.62,0,0,1-10.65-17.27c-.78-1.52-1.59-3-2.39-4.54C316.4,625.66,316.61,625.53,316.68,625.67Z"/><path class="cls-6" d="M322.46,630.57a112.86,112.86,0,0,0,7.46,13,.09.09,0,0,1-.16.1,90.5,90.5,0,0,1-7.53-13.06C322.16,630.51,322.39,630.43,322.46,630.57Z"/><path class="cls-8" d="M502.23,690.16s.54,47.56-27.9,61.29-43.69,2.29-63,6.89a0,0,0,0,0,0,0c.75-1.14,14.54-21,36.48-26.42C470.39,726.27,495.39,710,502.23,690.16Z"/><path class="cls-9" d="M502.23,690.16s.54,47.56-27.9,61.29-43.69,2.29-63,6.89a0,0,0,0,0,0,0,107.54,107.54,0,0,1,32.33-9.54C461.62,746.62,495.87,734.93,502.23,690.16Z"/><path class="cls-6" d="M409.45,759.19a47.66,47.66,0,0,1,11.31-7.66c.61-.29,1.24-.53,1.86-.8.3-.37.61-.74.95-1.09a35.74,35.74,0,0,1,2.68-2.54A40.16,40.16,0,0,1,432,743c4.71-2.77,9.87-4.7,14.69-7.28a.13.13,0,0,1,.12.22c-2.38,1.23-4.69,2.6-7,4s-4.55,2.57-6.75,4a48.12,48.12,0,0,0-5.62,4.21c-.5.44-1,.92-1.47,1.4a75.68,75.68,0,0,1,9.62-2.55c5.2-1,10.47-1.8,15.66-2.91a72.43,72.43,0,0,0,7.55-2c2.36-1.9,4.71-3.79,6.95-5.85a57.41,57.41,0,0,0,7.35-8.15c.09-.13.3,0,.21.13A86.63,86.63,0,0,1,461.61,741c1.22-.46,2.44-1,3.64-1.51a58.67,58.67,0,0,0,24.23-20.16c.09-.13.3,0,.21.13a66.39,66.39,0,0,1-19.61,18.82,58.45,58.45,0,0,1-12.38,5.86,114.47,114.47,0,0,1-15.4,3.64,108.27,108.27,0,0,0-15.07,3.59A45.4,45.4,0,0,0,414.59,758a59.08,59.08,0,0,0-17,21.13c-5.38,10.8-7.95,22.87-9.38,34.77-.06.51-.85.51-.81,0C388.69,793.87,394,773.07,409.45,759.19Z"/><path class="cls-6" d="M442.45,743.68a16.34,16.34,0,0,1,5.84-5.3,21.43,21.43,0,0,0,7-5.76c.09-.12.3,0,.21.13a23.51,23.51,0,0,1-6.14,5.5c-2.49,1.56-5,3.08-6.69,5.54C442.55,743.9,442.38,743.79,442.45,743.68Z"/><polygon class="cls-5" points="427.36 794.29 426.07 820.44 422.1 900.35 362.44 900.35 358.48 820.44 357.18 794.29 427.36 794.29"/><polygon class="cls-6" points="427.36 794.29 426.07 820.44 358.48 820.44 357.18 794.29 427.36 794.29"/><rect class="cls-5" x="353" y="783.37" width="78.54" height="24.95"/><path class="cls-10" d="M722.69,921.44c4.43,1.43,130.75-.21,135.51-3.33,1.83-1.15,2.67-19.57,3-41.86v-.69c.09-4.6.15-9.33.16-14.12,0-.66,0-1.32,0-2l-6.13-65.53-84.5.85,8.34,64.91.1,2.57.51,13.44,0,1.38s-48.07,22.26-52.95,26.24S718.25,920,722.69,921.44Z"/><path class="cls-1" d="M722.69,921.44c4.43,1.43,130.75-.21,135.51-3.33,1.83-1.15,2.67-19.57,3-41.86v-.69c.09-4.6.15-9.33.16-14.12,0-.66,0-1.32,0-2l-82.29.23.1,2.57.51,13.44,0,1.38s-48.07,22.26-52.95,26.24S718.25,920,722.69,921.44Z"/><path class="cls-5" d="M722.67,921.43c2.28.74,36.6.66,70.15,0,6.74-.13,13.45-.29,19.84-.46,23.93-.66,43.7-1.64,45.53-2.84s2.65-19.05,3-40.93c0-.31,0-.62,0-.93s0-.48,0-.71h-.09l-81.41.15,0,1.39s-48.08,22.25-52.95,26.23S718.25,920,722.67,921.43Z"/><path class="cls-6" d="M724.05,916.52c21.29-.79,107.22-2,128.32-1.18.18,0,.18.12,0,.13-21.09,1.26-107,1.77-128.32,1.4C723.61,916.87,723.6,916.54,724.05,916.52Z"/><path class="cls-6" d="M770.67,876.05c8.36-1.67,18.62-.52,25.1,5.37.25.23-.08.58-.35.5a117.81,117.81,0,0,0-24.71-4.81A.54.54,0,0,1,770.67,876.05Z"/><path class="cls-6" d="M764.67,879.78c8.36-1.68,18.62-.52,25.1,5.36.25.23-.08.58-.35.5a117.81,117.81,0,0,0-24.71-4.81A.53.53,0,0,1,764.67,879.78Z"/><path class="cls-6" d="M758.66,883.5c8.36-1.67,18.63-.52,25.11,5.37.25.22-.08.58-.35.5a117.17,117.17,0,0,0-24.71-4.81A.54.54,0,0,1,758.66,883.5Z"/><path class="cls-6" d="M792.82,921.41c6.74-.13,13.45-.29,19.84-.46,23.93-.66,43.7-1.64,45.53-2.84s2.65-19.05,3-40.93c0-.31,0-.62,0-.93s0-.48,0-.71h-.09C850,883.36,810.69,909.53,792.82,921.41Z"/><path class="cls-6" d="M774.19,876h91S846.85,663.5,847.56,659.79c.91-4.75,6.28-26.26,13.43-54.36,2.25-8.79,4.66-18.22,7.17-28C875,551,882.42,522.11,888.94,497c9.77-37.66,17.41-66.92,17.41-66.92H829.24s-9,28.48-20.3,65.55c-18.46,60.23-43.12,143.13-45.55,163.28C759.45,691.42,774.19,876,774.19,876Z"/><path class="cls-5" d="M778.22,860.46c13.89-.29,9.9-.4,23.8-.54,6.8-.06,51.49-.45,57.84.6a.15.15,0,0,1,0,.29c-6.35,1.05-51,.66-57.84.59-13.9-.13-9.91-.24-23.8-.53A.21.21,0,0,1,778.22,860.46Z"/><path class="cls-5" d="M830.45,646.8c3-13.15,7.44-26,11.32-38.94q11.82-39.35,23.79-78.65,6-19.65,12-39.29c2-6.61,4.07-13.22,6.14-19.82s4.33-12.86,6.15-19.37c.75-2.65,1.15-1.2.2,2.17-1.92,6.79-3.81,13.58-5.79,20.35q-5.88,20.1-11.83,40.19-11.83,40-23.87,79.9-6,20-12,40a166,166,0,0,0-4.92,19.37,89.79,89.79,0,0,0-.8,20.72c.87,13.92,2.49,27.82,3.77,41.7l3.87,41.75q3.84,41.54,7.62,83.09c.31,3.51.62,7,.89,10.53.09,1.18-1.69,1.09-1.81,0-3-27.39-5.3-54.86-7.87-82.29s-5.11-54.58-7.66-81.87c-.64-6.85-1.37-13.72-1.38-20.61A84.92,84.92,0,0,1,830.45,646.8Z"/><path class="cls-5" d="M838,430.05c5.35,41.41,15.55,119.05,23,175.38,17.39-68.25,45.36-175.38,45.36-175.38Z"/><path class="cls-10" d="M819.06,922.66c4.43,1.44,130.75.27,135.53-2.83,1.83-1.15,2.74-19.57,3.19-41.85v-.7c.11-4.59.18-9.32.21-14.12,0-.66,0-1.32,0-2,.29-32.16-2-65.54-2-65.54l-82.57.54,2.31,64.93.09,2.57.46,13.44,0,1.38s-48.15,22.08-53.05,26S814.63,921.23,819.06,922.66Z"/><path class="cls-1" d="M819.06,922.66c4.43,1.44,130.75.27,135.53-2.83,1.83-1.15,2.74-19.57,3.19-41.85v-.7c.11-4.59.18-9.32.21-14.12,0-.66,0-1.32,0-2l-82.29-.07.09,2.57.46,13.44,0,1.38s-48.15,22.08-53.05,26S814.63,921.23,819.06,922.66Z"/><path class="cls-5" d="M819.06,922.66c4.43,1.44,130.75.27,135.53-2.83,1.83-1.15,2.74-19.57,3.19-41.85v-.7l-81.5-.15,0,1.38s-48.15,22.08-53.05,26S814.63,921.23,819.06,922.66Z"/><path class="cls-6" d="M820.44,917.75c21.29-.72,107.23-1.62,128.33-.72.17,0,.17.12,0,.13-21.08,1.18-107,1.38-128.32.94C820,918.09,820,917.76,820.44,917.75Z"/><path class="cls-6" d="M867.21,877.44c8.36-1.64,18.62-.45,25.08,5.46.25.23-.08.58-.35.5a117.78,117.78,0,0,0-24.69-4.9A.54.54,0,0,1,867.21,877.44Z"/><path class="cls-6" d="M861.19,881.15c8.37-1.65,18.63-.46,25.09,5.45.25.23-.08.59-.35.5a117.91,117.91,0,0,0-24.69-4.9A.53.53,0,0,1,861.19,881.15Z"/><path class="cls-6" d="M855.18,884.85c8.36-1.64,18.62-.45,25.08,5.46.25.23-.08.58-.35.5a117.78,117.78,0,0,0-24.69-4.9A.54.54,0,0,1,855.18,884.85Z"/><path class="cls-6" d="M831.74,430.05s1.78,36.89,10.22,66.11c.68,2.41,1.41,4.79,2.2,7.07,0,0,8.79,3.19,22.22,11.42,0,0,.89,29.68,1.78,62.78,1,37,2,78.28,1.8,87-.77,32.75,4.1,212.85,4.1,212.85l91,.36s-16.44-201.12-16.33-213.12c.18-19.28-4.4-104.52-7.94-166.68-2.16-38.3-3.94-67.83-3.94-67.83Z"/><path class="cls-5" d="M877.17,861.14c13.9-.23,9.91-.36,23.8-.44,6.8,0,51.49-.23,57.84.85a.15.15,0,0,1,0,.28c-6.36,1-51,.44-57.84.35-13.9-.19-9.91-.29-23.8-.64A.2.2,0,0,1,877.17,861.14Z"/><path class="cls-5" d="M840.38,501a168.83,168.83,0,0,1,26,13.62.3.3,0,0,1-.27.54c-8.77-4.27-17.73-8.37-26.26-13.11A.59.59,0,0,1,840.38,501Z"/><path class="cls-5" d="M839.87,469.73c.6,3.24,1.39,6.44,2.08,9.65.66,3,1.14,6.09,1.94,9.07a15.46,15.46,0,0,0,4.22,7.61c1.19,1.09,2.49,2.07,3.75,3.07.68.55,1.42,1.07,2.12,1.62-.09-.43-.16-.86-.24-1.3-.22-1.23-.42-2.46-.63-3.68-.46-2.72-.89-5.45-1.31-8.18-.82-5.37-1.58-10.79-2.69-16.1a.17.17,0,0,1,.33-.08c1.34,5.26,2.81,10.47,4,15.78.57,2.6,2.6,15.45,2.69,16.36s.17,1.88.21,2.82a11.18,11.18,0,0,1,0,2.89c-.05.23-.34.2-.44,0h0a11.58,11.58,0,0,1-.82-2.8c-.23-.91-.44-1.84-.61-2.78-.05-.33-.1-.68-.15-1-1.26-.77-2.44-1.79-3.63-2.64s-2.57-1.83-3.78-2.84a14.49,14.49,0,0,1-4.61-7.21,52.55,52.55,0,0,1-1.52-9.24c-.4-3.65-.7-7.32-1.21-11C839.51,469.6,839.83,469.51,839.87,469.73Z"/><path class="cls-10" d="M856.07,339.41c-8.94,22.7-54.36,76.1-72.81,80.28-13.34,3-66.28-26.13-81-37-14.21-10.52,24-51.95,32.8-46.36,12.38,7.9,40.58,31.9,45.93,31.91,3.76,0,24.48-14.29,56-40C854.48,314,861.41,325.85,856.07,339.41Z"/><path class="cls-10" d="M716,319.34c-8.21-3-17.38-7-26.52-6.93S672.69,324.52,672.67,328s3.25,25,12.39,25.11,3.75-16.53,4.11-18.43.73-4.31,2.45-4.12,31.8,14.74,31.8,14.74Z"/><path class="cls-10" d="M715.44,320.6c-.51,0-24.93-9.85-34.07-9.75S664.54,323,664.51,326.41s3.26,25,12.4,25.11S680.66,335,681,333.1s.72-4.32,2.45-4.13,31.79,14.74,31.79,14.74Z"/><path class="cls-6" d="M680,350.39c1.14-1.44,1.35-3.61,1.56-5.39a18.76,18.76,0,0,0-.28-5.84,30.36,30.36,0,0,1-1.07-5,10,10,0,0,1,1.31-4.82c.72-1.28,2.05-.83,3.2-.41a45.33,45.33,0,0,1,5,2.28c1.74.88,3.46,1.8,5.18,2.71a45.57,45.57,0,0,1,5.29,3c.12.08,0,.3-.11.25a49.62,49.62,0,0,1-4.63-2.13c-1.73-.82-3.46-1.64-5.21-2.43s-3.22-1.57-4.86-2.28a5.14,5.14,0,0,0-2.41-.74c-.7.15-1.05,1.86-1.21,2.41a8.54,8.54,0,0,0,.28,4.95,25.81,25.81,0,0,1,.9,5,13.16,13.16,0,0,1-.42,4.76,18.66,18.66,0,0,1-2.2,3.92C680.19,350.74,679.89,350.55,680,350.39Z"/><path class="cls-10" d="M744.25,344.82s-25.15-23.29-30.39-27.91c-10.51-9.28-54.92-27.83-61.13-28.54s-8.54,12,21.6,25.47c15.88,7.09,18.65,16.24,18.3,21.3s-5.24,14.45-13.75,14.15S665,336.54,657.14,335.1s-2.75,12.93,2.7,21.25,15.42,15.22,22.76,18,30,12.81,30,12.81Z"/><path class="cls-6" d="M668.37,343.23c3.18,2.51,6.79,5.75,11,5.94s7.21-2.61,9.26-6.15,3.28-7.64,2.32-11.75a19.81,19.81,0,0,0-5.75-9.59,48.36,48.36,0,0,0-11.47-7.76c-.18-.09,0-.36.17-.27,3.9,1.78,16,6.86,18.4,17.64,1,4.4-.39,8.31-2.47,12-1.91,3.37-4.68,6.62-8.81,6.92-5,.37-9.32-3.76-12.91-6.84C668,343.21,668.2,343.1,668.37,343.23Z"/><path class="cls-8" d="M736.06,336.94l-23.78,67.14s56,21.5,72.15,17.12,57.63-51.33,72.12-79.92c8.83-17.41-1.4-29.18-21.71-13.85C814,343.18,784.63,365,782.4,365.76S736.06,336.94,736.06,336.94Z"/><path class="cls-6" d="M739.27,377.23c1.55-5,7.62-25.08,8.74-30.18,0-.08-.1-.14-.14-.06-2,4.66-8.59,24.29-10.15,29.31-3.12,10-6.46,20-8.47,30.27,0,.18.25.31.32.13C733.46,397.11,736.22,387.1,739.27,377.23Z"/><path class="cls-6" d="M856.56,341.28c-11.76,23.17-41.21,58.4-60.56,73.25l51.3-93.67h0C858.89,317.91,863.32,327.93,856.56,341.28Z"/><path class="cls-8" d="M945.48,476.52c-.27.37-133.23,13.37-134.57,12.12C809,486.87,828.29,346.34,835.44,325c3-9.11,24.1-13.86,33.82-7.37,24.35,16.27,49.69,77.79,56,96.45C935.63,444.8,946.46,475.16,945.48,476.52Z"/><path class="cls-6" d="M835,327.24c0-.06.1-.06.1,0,.22,6.07,1.11,20.11,10.49,18.33,3.78-.71,7-3.43,9.69-6a53.58,53.58,0,0,0,7.24-8.93A79.66,79.66,0,0,0,869,319.42c.07-.17.33,0,.25.14-1.89,3.91-3.38,7.92-5.64,11.65a46.92,46.92,0,0,1-7.78,9.85c-2.88,2.7-6.35,5.44-10.36,6-3.83.54-6.85-1.56-8.32-5C835.17,337.55,834.72,332.09,835,327.24Z"/><polygon class="cls-1" points="773.31 533.25 852.18 511.94 788.01 420.71 709.14 442.03 773.31 533.25"/><polygon class="cls-5" points="767.91 534.71 846.78 513.39 782.61 422.17 703.74 443.49 767.91 534.71"/><path class="cls-11" d="M774.23,424.45a7.26,7.26,0,0,0,4.5,3.2c.86.2.79-.83-.06-1a5.48,5.48,0,0,1-3-2c-.11-.16-.24-.35-.33-.51a3.88,3.88,0,0,1-.64-1.9,1.29,1.29,0,0,1,.26-.81.1.1,0,0,0,0-.06s.08,0,.09-.07l.14-.06a1,1,0,0,1,.57-.11,2.48,2.48,0,0,1,1.06.34,5,5,0,0,1,1.07.84,5.75,5.75,0,0,1,.5.49l.09.12a.65.65,0,0,1,.15.18s.08.07.08.12l1.12-.31a8.83,8.83,0,0,0-1.59-1.66,4.46,4.46,0,0,0-3.55-1.1,1.79,1.79,0,0,0-1.33,2.09A4.78,4.78,0,0,0,774.23,424.45Z"/><path class="cls-11" d="M768.06,426.12a7.26,7.26,0,0,0,4.49,3.2c.86.2.8-.84,0-1a5.38,5.38,0,0,1-3-2c-.11-.17-.24-.35-.33-.51a3.88,3.88,0,0,1-.64-1.9,1.28,1.28,0,0,1,.25-.81.19.19,0,0,0,0-.06s.08,0,.09-.07l.14-.06a.94.94,0,0,1,.56-.11,2.35,2.35,0,0,1,1.07.34,5,5,0,0,1,1.07.84,5.75,5.75,0,0,1,.5.49l.09.12a1.22,1.22,0,0,1,.15.17s.08.08.08.13l1.12-.31a8.83,8.83,0,0,0-1.59-1.66,4.43,4.43,0,0,0-3.55-1.1,1.79,1.79,0,0,0-1.33,2.09A4.71,4.71,0,0,0,768.06,426.12Z"/><path class="cls-11" d="M761.89,427.79a7.21,7.21,0,0,0,4.49,3.2c.86.2.79-.84,0-1a5.39,5.39,0,0,1-3-2,4,4,0,0,1-.33-.51,3.72,3.72,0,0,1-.64-1.89,1.22,1.22,0,0,1,.25-.81l0-.06s.07-.05.08-.07l.15-.06a.94.94,0,0,1,.56-.11,2.2,2.2,0,0,1,1.06.34,4.52,4.52,0,0,1,1.07.84,4.7,4.7,0,0,1,.51.49l.08.12a.59.59,0,0,1,.15.17s.08.08.09.12l1.12-.3a8.59,8.59,0,0,0-1.6-1.66,4.4,4.4,0,0,0-3.55-1.1,1.78,1.78,0,0,0-1.32,2.08A4.75,4.75,0,0,0,761.89,427.79Z"/><path class="cls-11" d="M755.71,429.45a7.23,7.23,0,0,0,4.5,3.21c.86.2.79-.84-.05-1a5.36,5.36,0,0,1-3-2,4.11,4.11,0,0,1-.34-.51,3.85,3.85,0,0,1-.64-1.89,1.29,1.29,0,0,1,.26-.81l0-.06s.07-.05.08-.07l.14-.07a1.08,1.08,0,0,1,.57-.1,2.2,2.2,0,0,1,1.06.34,4.74,4.74,0,0,1,1.07.84c.18.14.33.32.51.48l.08.13a.59.59,0,0,1,.15.17s.08.08.09.12l1.12-.3a8.91,8.91,0,0,0-1.6-1.66,4.46,4.46,0,0,0-3.55-1.11,1.81,1.81,0,0,0-1.33,2.09A4.78,4.78,0,0,0,755.71,429.45Z"/><path class="cls-11" d="M749.54,431.12a7.24,7.24,0,0,0,4.49,3.21c.86.2.8-.84,0-1a5.43,5.43,0,0,1-3-2,5.54,5.54,0,0,1-.33-.51,3.85,3.85,0,0,1-.64-1.89,1.37,1.37,0,0,1,.25-.82s0,0,0-.05.08-.05.09-.08l.14-.06a1,1,0,0,1,.57-.1,2.33,2.33,0,0,1,1.06.33,5.68,5.68,0,0,1,1.07.84c.18.15.33.32.5.49l.09.12a1.19,1.19,0,0,1,.15.18s.08.07.08.12l1.12-.3a8.27,8.27,0,0,0-1.59-1.66,4.47,4.47,0,0,0-3.55-1.11,1.8,1.8,0,0,0-1.33,2.09A4.78,4.78,0,0,0,749.54,431.12Z"/><path class="cls-11" d="M743.37,432.79a7.21,7.21,0,0,0,4.49,3.21c.86.2.8-.84-.05-1a5.39,5.39,0,0,1-3-2,5.54,5.54,0,0,1-.33-.51,3.85,3.85,0,0,1-.64-1.89,1.25,1.25,0,0,1,.25-.82.19.19,0,0,0,0-.06s.08,0,.08-.07l.15-.06a.94.94,0,0,1,.56-.1,2.33,2.33,0,0,1,1.07.33,5.3,5.3,0,0,1,1.07.84c.18.15.33.32.5.49l.08.12a.8.8,0,0,1,.15.18s.08.07.09.12l1.12-.3a8.27,8.27,0,0,0-1.59-1.66,4.47,4.47,0,0,0-3.55-1.11,1.79,1.79,0,0,0-1.33,2.09A4.67,4.67,0,0,0,743.37,432.79Z"/><path class="cls-11" d="M737.19,434.46a7.31,7.31,0,0,0,4.5,3.21c.86.2.79-.84-.05-1a5.39,5.39,0,0,1-3-2,5.65,5.65,0,0,1-.34-.51,3.83,3.83,0,0,1-.63-1.89,1.23,1.23,0,0,1,.25-.82.19.19,0,0,0,0-.06s.07,0,.08-.07a.69.69,0,0,0,.14-.06,1,1,0,0,1,.57-.11,2.44,2.44,0,0,1,1.06.34,4.74,4.74,0,0,1,1.07.84c.18.15.33.32.51.49l.08.12a.8.8,0,0,1,.15.18s.08.07.09.12l1.12-.3a8.33,8.33,0,0,0-1.6-1.66,4.45,4.45,0,0,0-3.55-1.11,1.8,1.8,0,0,0-1.33,2.09A4.78,4.78,0,0,0,737.19,434.46Z"/><path class="cls-11" d="M731,436.13a7.31,7.31,0,0,0,4.5,3.21c.86.2.79-.84-.06-1a5.48,5.48,0,0,1-3-2c-.11-.16-.24-.35-.33-.51a3.88,3.88,0,0,1-.64-1.9,1.29,1.29,0,0,1,.26-.81.1.1,0,0,0,0-.06s.08,0,.09-.07l.14-.06a1,1,0,0,1,.57-.11,2.48,2.48,0,0,1,1.06.34,4.74,4.74,0,0,1,1.07.84,5.75,5.75,0,0,1,.5.49l.09.12a.65.65,0,0,1,.15.18s.08.07.08.12l1.12-.31a8.83,8.83,0,0,0-1.59-1.66,4.46,4.46,0,0,0-3.55-1.1,1.79,1.79,0,0,0-1.33,2.09A4.78,4.78,0,0,0,731,436.13Z"/><path class="cls-11" d="M724.85,437.8a7.26,7.26,0,0,0,4.49,3.2c.86.2.8-.84-.05-1a5.41,5.41,0,0,1-3-2c-.11-.17-.24-.35-.33-.51a3.88,3.88,0,0,1-.64-1.9,1.28,1.28,0,0,1,.25-.81.19.19,0,0,0,0-.06s.08,0,.09-.07l.14-.06a.94.94,0,0,1,.56-.11,2.35,2.35,0,0,1,1.07.34,5,5,0,0,1,1.07.84,5.75,5.75,0,0,1,.5.49l.09.12a1.22,1.22,0,0,1,.15.17s.08.08.08.13l1.12-.31a8.83,8.83,0,0,0-1.59-1.66,4.43,4.43,0,0,0-3.55-1.1A1.79,1.79,0,0,0,724,435.6,4.71,4.71,0,0,0,724.85,437.8Z"/><path class="cls-11" d="M718.68,439.47a7.21,7.21,0,0,0,4.49,3.2c.86.2.8-.84,0-1a5.39,5.39,0,0,1-3-2,5.54,5.54,0,0,1-.33-.51,3.72,3.72,0,0,1-.64-1.89,1.22,1.22,0,0,1,.25-.81l0-.06s.07,0,.08-.07a.89.89,0,0,0,.15-.06.94.94,0,0,1,.56-.11,2.17,2.17,0,0,1,1.06.34,4.52,4.52,0,0,1,1.07.84,4.7,4.7,0,0,1,.51.49l.08.12a.59.59,0,0,1,.15.17s.08.08.09.12l1.12-.3a8.59,8.59,0,0,0-1.6-1.66,4.39,4.39,0,0,0-3.54-1.1,1.78,1.78,0,0,0-1.33,2.08A4.75,4.75,0,0,0,718.68,439.47Z"/><path class="cls-11" d="M712.5,441.14a7.26,7.26,0,0,0,4.5,3.2c.86.2.79-.84,0-1a5.36,5.36,0,0,1-3-2,4.11,4.11,0,0,1-.34-.51,3.85,3.85,0,0,1-.64-1.89,1.29,1.29,0,0,1,.26-.81l0-.06s.07-.05.08-.07l.14-.07a1.08,1.08,0,0,1,.57-.1,2.2,2.2,0,0,1,1.06.34,4.74,4.74,0,0,1,1.07.84c.18.14.33.32.51.48l.08.13a.59.59,0,0,1,.15.17s.08.08.09.12l1.12-.3a8.91,8.91,0,0,0-1.6-1.66,4.46,4.46,0,0,0-3.55-1.11,1.81,1.81,0,0,0-1.33,2.09A4.86,4.86,0,0,0,712.5,441.14Z"/><path class="cls-11" d="M706.33,442.8a7.24,7.24,0,0,0,4.49,3.21c.86.2.8-.84-.05-1a5.43,5.43,0,0,1-3-2,5.54,5.54,0,0,1-.33-.51,3.85,3.85,0,0,1-.64-1.89,1.32,1.32,0,0,1,.26-.82s0,0,0-.05.08-.05.09-.07l.14-.07a1,1,0,0,1,.57-.1,2.23,2.23,0,0,1,1.06.34,5.26,5.26,0,0,1,1.07.83c.18.15.33.32.5.49l.09.12a1.19,1.19,0,0,1,.15.18s.08.07.08.12l1.12-.3a8.27,8.27,0,0,0-1.59-1.66,4.47,4.47,0,0,0-3.55-1.11,1.8,1.8,0,0,0-1.33,2.09A4.78,4.78,0,0,0,706.33,442.8Z"/><path class="cls-10" d="M887.82,332c26.46,26.29,84,86.8,73,104.84-18.06,29.67-68.93,61.51-85.2,69.5-7,3.45-42.46-45.83-36.23-51.42,7.48-6.69,57.51-36.69,57.34-39.33-.19-2.89-16.36-38-24.51-66.41C862.16,313.89,876.78,321.05,887.82,332Z"/><path class="cls-10" d="M865.73,446.68s-23.63-2.84-39.16-4c-8.67-.63-23.63-.38-30.21,2.07-9.85,3.67-48.67,25.28-43.63,34.81,4.56,8.62,35.55-14.19,35.55-14.19S755,485.65,762.37,495s39-21.06,39-21.06-33.76,21.58-24.6,30c6.92,6.39,37.09-19.56,37.09-19.56S785,503.2,791.81,510.08c7.55,7.6,36.9-14.6,36.9-14.6,20.32,14.57,35.81,14.37,47,10.88C878.27,505.55,865.73,446.68,865.73,446.68Z"/><path class="cls-6" d="M797.81,458.67c-25.67,13-34.27,27.3-34,27,7.21-7.86,20.63-17.32,24.41-19.9s5.89-4.35,9.67-6.93C798,458.75,797.91,458.62,797.81,458.67Z"/><path class="cls-6" d="M808.94,471.17c-12.56,5.38-24.89,15.51-28.59,19.67-.3.33-.09.38.27.11,4.73-3.42,23.53-16.49,28.4-19.67C809.1,471.23,809,471.13,808.94,471.17Z"/><path class="cls-6" d="M819.25,481.28c-10.87,5.66-15.17,9.29-21.69,15.88-.31.32,0,.38.38.1,7.11-5.41,12.65-9.71,21.46-15.71C819.53,481.46,819.41,481.19,819.25,481.28Z"/><path class="cls-8" d="M854.52,443.88l40.91,59.25s65.39-50.75,67.77-69.87-59.88-91-77.46-104.82-21.28-6.35-17.74,12.21,27.89,74.18,27.72,75.33S854.52,443.88,854.52,443.88Z"/><path class="cls-6" d="M885.78,389.44q-2.55-6.29-5-12.6c-.86-2.19-1.71-4.38-2.6-6.56-.41-1-.81-2-1.22-3-.21-.49-.46-1-.63-1.49-.64-1.87-.07-.22-.87-2,0-.12-.25-.06-.21.07.32,1.18,0,.74.38,1.61a19.71,19.71,0,0,1,.7,2c.33,1,.68,2.06,1,3.08.71,2.1,1.46,4.19,2.23,6.27.1.27.21.54.31.82l-.12-.22c-1.18-2.2-2.4-4.38-3.61-6.57a.09.09,0,0,0-.15.08c.95,2.32,2,4.57,3.15,6.79.68,1.28,1.43,2.52,2.18,3.75,1.05,2.77,2.08,5.55,3.16,8.31,3.36,8.54,6.77,17.13,10.8,25.38-3.47,2.35-7,4.53-10.52,6.9s-6.93,4.78-10.38,7.19-6.91,4.8-10.32,7.26c-1.62,1.18-3.22,2.39-4.84,3.58s-3.37,2.8-5.15,4.06c-.18.13.05.38.23.26,1.86-1.27,3.89-2.29,5.78-3.52,1.66-1.08,3.34-2.14,5-3.23,3.51-2.34,7-4.73,10.45-7.12s6.94-4.77,10.38-7.19,6.74-5,10.16-7.45a.42.42,0,0,0,.18-.31.49.49,0,0,0,.13-.53C893,406.46,889.26,398,885.78,389.44Z"/><path class="cls-6" d="M888.74,464.23c-3-4.28-15.24-21.33-18.6-25.33,0-.06-.17,0-.13.08,2.46,4.45,14,21.62,17,25.92,6,8.56,11.9,17.3,18.84,25.16.12.14.39,0,.29-.18C901,481,894.7,472.67,888.74,464.23Z"/><path class="cls-10" d="M844.45,339.2c6.87,0,16.94-13.74,19.45-22.84.17-.63-2-6.26-4.43-13.22-1.42-4.23-2.91-9-4-13.41L829.33,303s4.92,8.64,6.69,16.37a10.42,10.42,0,0,1,.24,1.86c0,.09,0,.19,0,.31C836.54,325.16,837.8,339.19,844.45,339.2Z"/><path class="cls-6" d="M839.18,321.05a17.42,17.42,0,0,1-2.88.52,2,2,0,0,0,0-.31,9.64,9.64,0,0,0-.23-1.86c-1.77-7.73-6.68-16.38-6.68-16.38l25.34-12.87C855,296.73,854.72,317,839.18,321.05Z"/><path class="cls-10" d="M860,263.2c2.75,10.22-3.57,39.26-11,45.53-10.74,9.1-27.84,9.43-35.45-3.37-7.37-12.41,1.53-50.11,9.76-55.76C835.41,241.28,855.9,248.11,860,263.2Z"/><path class="cls-6" d="M829.8,280.89c0-.07.13.13.11.21-.48,1.94-.7,4.25.94,5.27,0,0,0,.13,0,.11C828.71,285.72,829,282.66,829.8,280.89Z"/><path class="cls-6" d="M832,279.22c3.2.43,2.11,6.79-.86,6.4S829.3,278.86,832,279.22Z"/><path class="cls-6" d="M818.87,278.89c0-.08-.17.07-.18.15-.28,2-.93,4.21-2.82,4.56-.06,0-.07.11,0,.11C818.09,283.78,818.93,280.82,818.87,278.89Z"/><path class="cls-6" d="M817.46,276.53c-3.13-.79-4.47,5.53-1.57,6.26S820.09,277.19,817.46,276.53Z"/><path class="cls-6" d="M835,276.74a24.87,24.87,0,0,1-2.31-1.3,4.28,4.28,0,0,1-2.12-1.76,1.39,1.39,0,0,1,.5-1.6,3.39,3.39,0,0,1,3.43.24,5,5,0,0,1,2.46,2.6A1.46,1.46,0,0,1,835,276.74Z"/><path class="cls-6" d="M815.55,272.9a26.06,26.06,0,0,0,2.65-.22,4.32,4.32,0,0,0,2.65-.74,1.37,1.37,0,0,0,.2-1.66,3.4,3.4,0,0,0-3.21-1.2,5,5,0,0,0-3.32,1.36A1.46,1.46,0,0,0,815.55,272.9Z"/><path class="cls-6" d="M829.57,299.19c-.55.38-1.14.93-1.86.87a5.33,5.33,0,0,1-2-.86s-.13,0-.1.09a2.71,2.71,0,0,0,2.32,1.5,2.15,2.15,0,0,0,1.85-1.48C829.79,299.2,829.65,299.13,829.57,299.19Z"/><path class="cls-6" d="M828.51,292.93a6.82,6.82,0,0,1-5,2.21,8.35,8.35,0,0,1-2.43-.3,3.09,3.09,0,0,1-.46-.13l-.42-.14a.51.51,0,0,1-.32-.51v0a.73.73,0,0,1,.05-.2h0l0-.17c.21-1.53.76-3.81.76-3.81-.6.18-3.65,1-3.47.18,1.52-6.5,3.21-13.73,6.1-19.88a.18.18,0,0,1,.35.11c-1.22,6.31-3.53,12.36-4.85,18.67a11.88,11.88,0,0,1,3.33-.41c.21.09-1.13,4.39-1.17,5.09a.12.12,0,0,0,0,.07c2.5.76,4.55.32,7.32-1C828.52,292.63,828.65,292.79,828.51,292.93Z"/><path class="cls-6" d="M822.1,294.22a8.11,8.11,0,0,0,2.77,3,3.59,3.59,0,0,0,2.15.51c1.65-.14,1.94-1.58,1.86-2.87a8.78,8.78,0,0,0-.38-2A10.45,10.45,0,0,1,822.1,294.22Z"/><path class="cls-12" d="M824.87,297.24a3.59,3.59,0,0,0,2.15.51c1.65-.14,1.94-1.58,1.86-2.87C827.16,294.77,825.3,295.63,824.87,297.24Z"/><path class="cls-6" d="M855.72,287.17c-5.28-.59-4.11-13.5-4.11-13.5s-8-1.86-11.38-13.15c0,0-10.72,6-19.36,4-13.53-3.18-12.26-20.91-7-24.26,7.5-4.76,20,3.37,20,3.37s19.81-4.45,24.94,9.06c0,0,8.69.82,8.8,10.47S859.65,287.6,855.72,287.17Z"/><path class="cls-6" d="M853.43,275.29a18,18,0,0,1-9.92-6.1c-2.55-3.25-3.88-8.11-2.5-12.11.08-.22-.28-.32-.34-.09-1.2,4.46-1.17,9.11,1.5,13.07a12.57,12.57,0,0,0,11.21,5.62A.2.2,0,0,0,853.43,275.29Z"/><path class="cls-6" d="M868.67,257.53c-2.51-3.54-6.6-4.29-10.66-4.35-.23,0-.23.37,0,.36,4-.25,7.9,2.62,9.82,6s1.21,7.33.2,10.82a28.44,28.44,0,0,1-12.19,16.33.09.09,0,1,0,.09.15A28.41,28.41,0,0,0,869.59,269C870.48,265.29,871,260.81,868.67,257.53Z"/><path class="cls-6" d="M834.44,244.27a13.33,13.33,0,0,0-7.21-6.14,16,16,0,0,0-11.39.58,9,9,0,0,0-5.12,7.43c-.43,3.69,1.12,7.26,3.06,10.26a.08.08,0,0,0,.14-.08,16,16,0,0,1-2.33-9.3,8.33,8.33,0,0,1,5.26-7.09c5.73-2.2,13.91-1.37,17.29,4.52C834.25,244.65,834.56,244.46,834.44,244.27Z"/><path class="cls-8" d="M811.68,288.43c-3.13-.61-4.92-5-4-9.69s4.23-8.08,7.36-7.46,4.92,5,4,9.69S814.81,289.05,811.68,288.43Zm3.15-16c-2.5-.49-5.19,2.44-6,6.54s.57,7.82,3.06,8.31,5.18-2.44,6-6.53S817.32,272.92,814.83,272.43Z"/><path class="cls-8" d="M830.91,292.22c-4.42-.87-7.26-5.43-6.33-10.16s5.29-7.87,9.7-7,7.26,5.43,6.32,10.16S835.32,293.09,830.91,292.22Zm3.14-16c-3.78-.74-7.51,2-8.32,6.08s1.62,8,5.4,8.78a7.6,7.6,0,0,0,2.92-14.86Z"/><path class="cls-8" d="M825.12,281.37c-4-2.35-6.22-1.33-6.23-1.32l-.54-1c.11-.06,2.75-1.37,7.36,1.35Z"/><path class="cls-8" d="M840.17,284.35l0-1.17c.77,0,18.91.22,20.84.49s6.19,3.83,6.66,4.23l-.77.89c-1.17-1-4.49-3.65-6-3.94l-.09,0C859.38,284.63,846.68,284.43,840.17,284.35Z"/><path class="cls-10" d="M852.92,286.8s7.1-9.08,11.26-6.5-1.53,16-6.66,17.6a5.12,5.12,0,0,1-6.71-3.11Z"/><path class="cls-6" d="M862.45,284.11a.07.07,0,0,1,0,.13c-3.6,1.24-5.63,4.41-7.11,7.73,1.12-1.25,2.58-1.89,4.27-.54.08.07,0,.21-.11.18a3.15,3.15,0,0,0-3.52.91,15.61,15.61,0,0,0-1.81,2.71c-.18.31-.74.11-.6-.25l0-.08C853.77,290.4,857.6,284.3,862.45,284.11Z"/><path class="cls-7" d="M836.1,321.11l9.62,15.37,16.83-24.64,7,5.68S855.41,354.41,855,352.93l-9.39-13.05-8.07,11.69L833.9,326.5Z"/><path class="cls-6" d="M835.05,339.28c-.47-4.16-1-8.34-1.33-12.51,0-.15.21-.26.28-.09,1.53,3.82,3.23,19.74,3.92,23.51l0-.05c.33-.51,7.56-10.38,7.67-10.26,1.89,2,8.76,11.5,9.27,12.38,2.24-5.86,11-27.27,13.87-32.94a.14.14,0,0,1,.27.1c-1.81,6.09-13.32,34.87-13.58,34.84a162.8,162.8,0,0,1-9.84-13.82c-1.15,2.08-8.28,13-8.42,12.42A132.27,132.27,0,0,1,835.05,339.28Z"/><path class="cls-13" d="M90.42,857c-.48,2.79-.92,5.52-1.35,8.16-2.76,17-4.4,30.09-3.13,31.29,3.91,3.72,121.17,27.25,125.55,26.72s3.1-13.06-.72-17.6c-2.33-2.76-18.34-14.59-30.55-23.44l0,0c-7.85-5.67-14.12-10.13-14.12-10.13l23.53-76-78.8-15.51S91.18,852.49,90.42,857Z"/><path class="cls-6" d="M211.48,923.16c-4.36.54-121.64-23-125.54-26.72-1.28-1.19.36-14.3,3.12-31.29.2-1.21.4-2.45.61-3.68C105,865.4,161,890,185.09,891.08c8.63.39-1.33-6.37-1.33-6.37,11.58,8.42,24.89,18.35,27,20.85C214.58,910.09,215.85,922.6,211.48,923.16Z"/><path class="cls-5" d="M182.56,854.6c.84-.41,30.66-114.42,41.08-154.42,15-57.71,29.6-151.77,34-171.36,0,0,14.07-33.36,18.22-70.29,0-.07-94.78,0-94.78,0S156.18,506.07,169,539.68c1.18,3.08-16.55,121.87-25.71,141.1-7.93,16.63-51.87,153.73-53.44,154.53Z"/><path class="cls-6" d="M182.45,832.24c-2.37-.7-4.87-1-7.29-1.46s-5.12-1-7.69-1.42c-5.14-.85-10.28-1.65-15.43-2.46-10.28-1.61-20.59-3.08-30.9-4.56q-4.23-.6-8.46-1.16a47.31,47.31,0,0,0-8.55-.79.15.15,0,0,0,0,.29,42.1,42.1,0,0,0,7.22,1.6c2.56.48,5.12.92,7.69,1.34,5.06.84,10.12,1.69,15.18,2.49,10.2,1.62,20.4,3.28,30.63,4.73,2.9.41,5.8.84,8.71,1.15s5.83.89,8.74.94C182.62,832.94,182.87,832.37,182.45,832.24Z"/><path class="cls-6" d="M232.81,524.46c-1.83,9.87-3.34,19.8-5,29.71-.83,5.05-1.93,10-2.77,15.09s-1.62,9.91-2.42,14.87q-4.8,29.93-9.56,59.84-2.37,14.85-4.77,29.69a274.4,274.4,0,0,1-6,29c-2.61,9.53-5.68,18.93-8.58,28.37l-8.93,29c-5.91,19.24-12,38.46-17.33,57.88-.65,2.42-1.32,4.83-2,7.25a.22.22,0,0,0,.43.11c6.55-19.07,12.61-38.3,18.68-57.53s12.18-38.25,17.9-57.48a244.82,244.82,0,0,0,6.68-28.52c1.69-9.91,3.17-19.85,4.75-29.78q4.77-29.91,9.55-59.84c1.56-9.8,3.29-19.6,4.51-29.45,1.25-10.21,3-20.35,4.54-30.52q.56-3.74,1.07-7.47C233.68,524.15,232.9,523.92,232.81,524.46Z"/><path class="cls-13" d="M233.44,865.23c.08,4.77.17,9.47.3,14,.07,2.84.16,5.6.25,8.27.59,17.2,1.52,30.37,3,31.31,4.56,2.89,124.15,3.24,128.35,1.86s.51-13.41-4.12-17.12c-2.82-2.25-20.82-10.76-34.51-17.07l-.06,0c-8.8-4.05-15.81-7.21-15.81-7.21l.39-14,1.08-63.92h-79S232.91,834.21,233.44,865.23Z"/><path class="cls-6" d="M365.33,920.71c-4.19,1.36-123.77,1-128.33-1.88-1.49-.93-2.43-14.1-3-31.3q-.13-3.66-.24-7.56c14.71,1.77,78,15.62,105.14,15.62,6.59,0-3.88-4.51-2.59-4.62,11.37,5.34,22.71,10.85,24.9,12.6C365.85,907.28,369.51,919.31,365.33,920.71Z"/><path class="cls-5" d="M219.34,543.34c0,.06,13.5,132.51,13.72,135.64.09,1.23-5.8,177.33-5.8,177.33h89.33s-3.18-165.91-4.54-184.63c-.16-2.18-5.92-136.89-31.93-213.15H180.91s.86,44.81,21.24,77.22C202.15,535.75,213.43,540,219.34,543.34Z"/><path class="cls-6" d="M311,839.57c-2.45-.35-5-.27-7.42-.4s-5.21-.25-7.81-.3c-5.21-.11-10.42-.16-15.62-.22-10.42-.12-20.83-.1-31.24-.08-2.85,0-5.69,0-8.54.07a48.21,48.21,0,0,0-8.58.44.16.16,0,0,0,0,.3,43.09,43.09,0,0,0,7.37.55q3.9.15,7.81.22c5.12.1,10.25.22,15.37.29,10.33.13,20.67.31,31,.27,2.93,0,5.85,0,8.78-.11s5.9,0,8.78-.32C311.23,840.23,311.39,839.63,311,839.57Z"/><path class="cls-6" d="M290.7,686.38c-2.34-47.73-7.36-95.25-13.68-142.61-3.46-25.92-7.51-51.82-14.52-77.06,0-.11-.18-.06-.16.05,5.68,23,9.35,46.52,12.33,70,3,23.32,5.77,46.68,8.14,70.07,4.82,47.46,7,95.11,7.25,142.8.17,26.83-.55,53.64-1.3,80.45,0,.27.38.25.4,0C293.09,782.39,293.05,734.18,290.7,686.38Z"/><path class="cls-6" d="M285.93,477c-.05-.16-.32-.13-.3.05.38,5.64,1.33,11.81-1.18,17.13-2.21,4.7-6.43,7.34-10.3,10.52-.13.1,0,.29.15.25,5.16-1.57,10.3-4.43,12.33-9.7C288.9,489.32,287.67,482.87,285.93,477Z"/><path class="cls-6" d="M242.9,540.43c-4.12-.35-8.27.23-12.4.42a84.41,84.41,0,0,1-12.11-.22,48.76,48.76,0,0,1-6-1c-2.05-.48-4-1.25-6-1.81a11,11,0,0,0-5.59.22c-2.15.48-4.31.82-6.49,1.1a62.93,62.93,0,0,1-15,.39c-.19,0-.27.26-.08.3A61.87,61.87,0,0,0,192,541.17a51.9,51.9,0,0,0,6.58-.6c2-.31,4.16-1.13,6.15-.8s4,1.44,6,2a45.33,45.33,0,0,0,6.09,1.24,61.49,61.49,0,0,0,12.43.38c4.62-.29,9.43-.65,13.83-2.12A.43.43,0,0,0,242.9,540.43Z"/><path class="cls-6" d="M233.28,671.67a.14.14,0,0,0-.11-.07.15.15,0,0,0-.11,0,.12.12,0,0,0-.06.12l.05.32a.09.09,0,0,0,0,.07l.06,0a.11.11,0,0,0,.12-.08c0-.1,0-.2,0-.31A.13.13,0,0,0,233.28,671.67Z"/><path class="cls-6" d="M230.92,648.86q-1.17-12.89-2.53-25.76c-1.8-17.17-3.5-34.35-5.27-51.53-1-9.74-1.73-19.56-3.32-29.24,0-.25-.43-.26-.42,0,.14,8.61,1.05,17.22,1.78,25.8s1.5,17.19,2.3,25.78c1.61,17.18,3.15,34.38,5.16,51.52.57,4.88,1.18,9.74,1.82,14.61s1.5,9.72,2.11,14.59c0,.2.35.19.33,0C232.11,666.06,231.71,657.44,230.92,648.86Z"/><path class="cls-13" d="M229.05,344.87c.58,1.88,10.59,13.63,19.29,12.6,2.84-.34,1.67-15.9,1.67-15.9l.17-1.16,2.45-16.35-19.76-10.79L230,311.86s-.38,4.52-.79,10.15c0,.26,0,.52-.06.8s-.06.62-.08.92c-.07.84-.14,1.69-.19,2.55-.05.65-.09,1.29-.11,2s-.06,1.36-.1,2A105.79,105.79,0,0,0,229.05,344.87Z"/><path class="cls-6" d="M229.23,322a33.19,33.19,0,0,0,21,18.4l2.45-16.35-19.76-10.79L230,311.86S229.64,316.38,229.23,322Z"/><path class="cls-13" d="M275.49,296.75c6.12,28.37-10.05,35.5-16.3,36.55-5.6.94-24.61,4.55-33.63-23s2.23-39.4,14.79-42.79S269.36,268.39,275.49,296.75Z"/><path class="cls-6" d="M272.76,290.92a16.79,16.79,0,0,1-2-.13,3.14,3.14,0,0,1-2-.52,1,1,0,0,1-.18-1.25,2.57,2.57,0,0,1,2.41-.95,3.8,3.8,0,0,1,2.53,1A1.1,1.1,0,0,1,272.76,290.92Z"/><path class="cls-6" d="M254.36,294.6a16.32,16.32,0,0,0,1.88-.69,3.26,3.26,0,0,0,1.79-1.06,1,1,0,0,0-.18-1.25,2.55,2.55,0,0,0-2.59-.23,3.72,3.72,0,0,0-2.14,1.65A1.1,1.1,0,0,0,254.36,294.6Z"/><path class="cls-6" d="M259.61,301.06c0-.07-.14.12-.12.2.38,1.94.5,4.22-1.15,5.17,0,0,0,.12,0,.1C260.47,305.87,260.29,302.84,259.61,301.06Z"/><path class="cls-6" d="M257.53,299.32c-3.18.29-2.37,6.61.57,6.35S260.19,299.08,257.53,299.32Z"/><path class="cls-6" d="M256.33,299.81c-.51.43-1,1.13-1.63,1.28s-1.43-.41-2-1c-.06-.06-.11,0-.1.08.14,1.22.76,2.4,2.08,2.42s1.93-1.17,2.07-2.43C256.77,300,256.53,299.64,256.33,299.81Z"/><path class="cls-6" d="M270,298.63c0-.08.17.07.17.15.18,2,.71,4.2,2.56,4.64.06,0,.06.11,0,.11C270.52,303.48,269.85,300.52,270,298.63Z"/><path class="cls-6" d="M271.51,296.37c3.12-.62,4.13,5.68,1.23,6.25S268.89,296.89,271.51,296.37Z"/><path class="cls-6" d="M272.89,296.57c.55.26,1.14.79,1.74.73s1.1-.83,1.43-1.55c0-.08.09,0,.11.05.23,1.2,0,2.52-1.09,2.93s-2-.53-2.44-1.68C272.55,296.84,272.67,296.47,272.89,296.57Z"/><path class="cls-6" d="M261.51,316.2c.51.42,1,1,1.75,1a5.1,5.1,0,0,0,2.07-.67.07.07,0,0,1,.1.09,2.68,2.68,0,0,1-2.41,1.28,2.1,2.1,0,0,1-1.69-1.62C261.29,316.19,261.43,316.14,261.51,316.2Z"/><path class="cls-6" d="M268.7,308s.81,2.87,1,4.25c0,.13-.31.23-.78.33,0,0,0,0-.05,0a6.63,6.63,0,0,1-6.71-1.56.14.14,0,0,1,.18-.22,10,10,0,0,0,6.23.88c0-.4-1.56-4.87-1.34-4.91a12,12,0,0,1,3.23.27c-1.52-6-4-11.75-5.41-17.76a.19.19,0,0,1,.34-.14c3,5.82,4.92,12.71,6.64,18.88C272.27,308.78,269.29,308.14,268.7,308Z"/><path class="cls-6" d="M268.67,311.51a8.15,8.15,0,0,1-2.5,3.25,3.74,3.74,0,0,1-2.11.69c-1.66,0-2.06-1.42-2.09-2.71a8.67,8.67,0,0,1,.21-2A10.46,10.46,0,0,0,268.67,311.51Z"/><path class="cls-12" d="M266.17,314.76a3.74,3.74,0,0,1-2.11.69c-1.66,0-2.06-1.42-2.09-2.71C263.67,312.48,265.61,313.18,266.17,314.76Z"/><path class="cls-6" d="M225.84,308.77c3.1-.7,9.84-10.67,7.6-25.84,0,0,1.07,13.77.38,15.92s3.76-5.6,2.12-17.86c0,0,7.57,3.76,13.6,4.43s9.54,0,9.89-.46-8.58-1.76-11.31-4c0,0,16.5,4.6,23.66,4,.83-.07-1-17-13.07-22.38s-28.14,5.23-32,10.49c0,0-5.34,1.67-9.94,10.74S222.5,309.53,225.84,308.77Z"/><path class="cls-8" d="M282.41,432.13l8.74,46.74s-103.48,1.45-127.78-.27c0,0,25.41-99,51.54-127.33,13.07-14.19,28.41-13.13,38.19-3.21,2.48,2.51,32,41.53,35.11,56.44C290.93,417.65,282.41,432.13,282.41,432.13Z"/><path class="cls-14" d="M237.3,356.6a17.35,17.35,0,0,1-3.62,8,15.69,15.69,0,0,1,1.28-4.26A16.1,16.1,0,0,1,237.3,356.6Zm-17.17,59a15.71,15.71,0,0,0-1.29,4.26,15.11,15.11,0,0,0,2.34-3.79,15.59,15.59,0,0,0,1.28-4.26A15.74,15.74,0,0,0,220.13,415.6Zm-14.08,58.56a15.69,15.69,0,0,0-1.28,4.26,15.36,15.36,0,0,0,2.33-3.79,16,16,0,0,0,1.29-4.26A15.47,15.47,0,0,0,206.05,474.16Zm60.48-72.09a15.33,15.33,0,0,0-1.29,4.27,17.06,17.06,0,0,0,3.62-8.06A15.74,15.74,0,0,0,266.53,402.07Zm-29.76,64.34a15.65,15.65,0,0,0-1.28,4.27,15.74,15.74,0,0,0,2.33-3.79,15.43,15.43,0,0,0,1.29-4.27A16.1,16.1,0,0,0,236.77,466.41Zm-60.05-27.89a15.59,15.59,0,0,0-1.28,4.26,17.09,17.09,0,0,0,3.62-8A15.71,15.71,0,0,0,176.72,438.52Zm17.13-46a15.59,15.59,0,0,0-1.28,4.26A15.74,15.74,0,0,0,194.9,393a16.07,16.07,0,0,0,1.29-4.26A15.78,15.78,0,0,0,193.85,392.53Zm55.78-13.6a15.33,15.33,0,0,0-4.27-1.29,17.06,17.06,0,0,0,8.06,3.62A15.74,15.74,0,0,0,249.63,378.93Zm12.47,48.62a15.59,15.59,0,0,0-4.26-1.28,15.74,15.74,0,0,0,3.79,2.33,16.07,16.07,0,0,0,4.26,1.29A15.47,15.47,0,0,0,262.1,427.55Zm-56.17,8.87a15.26,15.26,0,0,0-4.26-1.29,15.47,15.47,0,0,0,3.79,2.34,15.69,15.69,0,0,0,4.26,1.28A15.74,15.74,0,0,0,205.93,436.42Zm78.54-23.84a15.82,15.82,0,0,0,2.1,3.92,15.56,15.56,0,0,0-1-4.33,15.83,15.83,0,0,0-2.11-3.92A15.74,15.74,0,0,0,284.47,412.58Zm-1.1,56.06a15.82,15.82,0,0,0,2.1,3.92,15.23,15.23,0,0,0-1-4.33,15.71,15.71,0,0,0-2.1-3.93A15.73,15.73,0,0,0,283.37,468.64Zm-64-81.87a15.48,15.48,0,0,0,2.1,3.92,15.31,15.31,0,0,0-1-4.33,15.48,15.48,0,0,0-2.1-3.92A15.66,15.66,0,0,0,219.33,386.77ZM239.14,437a15.37,15.37,0,0,0,2.11,3.92,15.57,15.57,0,0,0-1-4.33,15.83,15.83,0,0,0-2.11-3.92A16.11,16.11,0,0,0,239.14,437Zm-52.6,20.94a15.54,15.54,0,0,0,2.11,3.92,15.57,15.57,0,0,0-1-4.33,15.2,15.2,0,0,0-2.11-3.92A16.11,16.11,0,0,0,186.54,457.91ZM223,344.53l-.9.58a12.92,12.92,0,0,0,1.51,2.49A14,14,0,0,0,223,344.53Zm-15.5,23.18a16.2,16.2,0,0,0,3.92-2.11,17.36,17.36,0,0,0-8.26,3.13A15.71,15.71,0,0,0,207.46,367.71Zm54.41,87.35a15.2,15.2,0,0,0,3.92-2.11,15.74,15.74,0,0,0-4.33,1,16.2,16.2,0,0,0-3.92,2.11A15.57,15.57,0,0,0,261.87,455.06ZM190.82,418a15.71,15.71,0,0,0,3.93-2.1,17.26,17.26,0,0,0-8.26,3.13A15.23,15.23,0,0,0,190.82,418Zm80.79-44.59-.35.12a15.4,15.4,0,0,0-3.93,2.11,16.41,16.41,0,0,0,4.32-1l.61-.25ZM218.5,455.06a15.43,15.43,0,0,0,3.93-2.11,15.73,15.73,0,0,0-4.34,1,16.2,16.2,0,0,0-3.92,2.11A15.57,15.57,0,0,0,218.5,455.06Zm-47,18a15.68,15.68,0,0,0,3.92-2.11,15.57,15.57,0,0,0-4.33,1,15.2,15.2,0,0,0-3.92,2.11A16.11,16.11,0,0,0,171.52,473.1Zm68.62-72.52a15.37,15.37,0,0,0,3.92-2.11,17.15,17.15,0,0,0-8.25,3.14A15.74,15.74,0,0,0,240.14,400.58Z"/><path class="cls-5" d="M342.57,278.12s-13.21-1.26-13.34,7.81,13.1,8.18,13.1,8.18Z"/><path class="cls-5" d="M435.07,295.39h0l11.59-5.86,3.83-1.91-3.77-2.06-11.42-6.17h0L342,278.11l-.24,16,93.26,1.27Z"/><polygon class="cls-5" points="446.67 289.53 450.5 287.62 446.73 285.56 446.67 289.53"/><polygon class="cls-5" points="344.99 295.49 345.27 276.81 341.56 276.76 341.28 295.44 344.99 295.49"/><polygon class="cls-5" points="349.09 295.54 349.37 276.87 345.66 276.82 345.38 295.49 349.09 295.54"/><polygon class="cls-5" points="349.37 276.87 349.28 282.9 383.07 280.04 382.97 277.82 349.37 276.87"/><path class="cls-13" d="M245.61,370.29c15.78,10.62,76.79,40.26,93,32.11,25.38-12.77,55.27-43.07,68.67-55.06,7.28-6.52-40.85-45.81-46.31-36.31-7.1,12.36-39,39.85-42.7,43.37s-40.14-3.4-66.69-7C229.41,344.45,225.63,356.83,245.61,370.29Z"/><path class="cls-13" d="M408.47,266.78c5.29,2.18,4.79,8.08,4.79,8.08a12.19,12.19,0,0,1,8.17,1.49c4.22,2.73,1.79,10.55,1.79,10.55a15,15,0,0,1,8.36,2.94c3.78,3,2.45,11.26,2.45,11.26a13.21,13.21,0,0,1,5.72,7.22c2.3,8.16-6.42,17.74-11.89,23.88s-26.77,18.44-30.59,21.2l-40.34-31s3.58-26.57,24.79-44.63C388,272.4,402.52,264.34,408.47,266.78Z"/><path class="cls-6" d="M412.38,274.58c-8,4-14.45,10.25-21.2,16.08-.15.13.06.36.21.23,6.64-5.88,14.36-10.36,21.23-16C412.81,274.78,412.6,274.47,412.38,274.58Z"/><path class="cls-6" d="M422.58,286.57a23.54,23.54,0,0,0-4.71,3.92c-1.58,1.51-3.12,3-4.65,4.59-3,3.11-6,6.29-8.9,9.55-.13.15.06.38.2.24,3-3.1,6.13-6.15,9.3-9.11q2.39-2.22,4.8-4.41A27.9,27.9,0,0,0,423,287,.31.31,0,0,0,422.58,286.57Z"/><path class="cls-6" d="M433.9,301.23c-1.6.78-2.87,2.48-4.06,3.76q-2,2.16-4.11,4.31c-2.75,2.86-5.5,5.72-8.35,8.48-.14.14.06.37.21.24,2.91-2.8,5.85-5.55,8.74-8.37q2.12-2.07,4.22-4.17c1.19-1.19,2.82-2.54,3.5-4.12A.11.11,0,0,0,433.9,301.23Z"/><path class="cls-8" d="M328.86,342.79l37.31,48s-22.05,15.7-32,15.55-60.66-15-87.06-33.51-16.34-28.23,5.53-25.8,62.43,6.85,63.91,6.38S328.86,342.79,328.86,342.79Z"/><path class="cls-14" d="M237.29,356.6a15.57,15.57,0,0,1-1.27,4.26,16.4,16.4,0,0,1-.84,1.61,7.81,7.81,0,0,1-.69-.88c.15-.41.31-.81.48-1.21A16.51,16.51,0,0,1,237.29,356.6Zm59.11,6.31a15.59,15.59,0,0,0-1.28,4.26,17.33,17.33,0,0,0,3.62-8.06A16,16,0,0,0,296.4,362.91Zm33.87-11.35a15.26,15.26,0,0,0-1.29,4.26,15.47,15.47,0,0,0,2.34-3.79,15.69,15.69,0,0,0,1.28-4.26A15.36,15.36,0,0,0,330.27,351.56Zm-33.69,33.15a15.59,15.59,0,0,0-4.26-1.28,15.55,15.55,0,0,0,3.79,2.33,15.36,15.36,0,0,0,4.26,1.29A16.1,16.1,0,0,0,296.58,384.71Zm51-2.48a15.36,15.36,0,0,0-4.26-1.29,15.4,15.4,0,0,0,3.79,2.34,15.59,15.59,0,0,0,4.26,1.28A15.74,15.74,0,0,0,347.61,382.23Zm-80.43-32.17c-.21-.5-.41-1-.64-1.5l-1.07-.13a20.23,20.23,0,0,0,.65,2.05,16,16,0,0,0,2.09,3.93A15.28,15.28,0,0,0,267.18,350.06Zm61.51,47.08a15.48,15.48,0,0,0,2.1,3.92,15.23,15.23,0,0,0-1-4.33,15.48,15.48,0,0,0-2.1-3.92A15.74,15.74,0,0,0,328.69,397.14Zm-53.85-24.57a16.61,16.61,0,0,0-3.59.93,15.74,15.74,0,0,0-3.93,2.11,15.73,15.73,0,0,0,4.34-1,17.59,17.59,0,0,0,3.3-1.66A1.8,1.8,0,0,0,274.84,372.57ZM320.5,372a15.2,15.2,0,0,0,3.92-2.11,15.57,15.57,0,0,0-4.33,1,15.83,15.83,0,0,0-3.92,2.11A16.11,16.11,0,0,0,320.5,372Z"/><path class="cls-6" d="M354.62,393c-9.81-13.65-19.72-27.33-30.82-40-.09-.12-.27,0-.19.16,9.37,14,20.06,27,30.74,40C354.48,393.29,354.74,393.13,354.62,393Z"/><path class="cls-6" d="M282.36,390.84c-8.95-4-17.77-8.3-26.81-12.13a.09.09,0,0,0-.08.15,117.58,117.58,0,0,0,10.84,5.8c-1.52-.42-3-.86-4.56-1.19-.13,0-.21.16-.09.21a22.74,22.74,0,0,0,4.16,1.36c.77.18,1.55.32,2.32.48,4.6,2.09,9.31,3.93,14.1,5.62C282.41,391.21,282.52,390.92,282.36,390.84Z"/><path class="cls-6" d="M226.66,273c-11.1,5-22.68,16.05-25.93,56.4s3,69.89,14.83,76.91,37.68,3.33,51.49-7.28c0,0-28.45-30.15-32.61-74.38-1.33-14.13,7.31-36.29,1.81-46.56Z"/><path class="cls-6" d="M268.73,397c-2.1-3.16-4-6.47-6-9.67s-4-6.29-5.89-9.48A202.22,202.22,0,0,1,246.16,358c-6.19-13.58-10.43-28.25-10.95-43.22-.31-9,.68-17.87,1.2-26.83a.15.15,0,0,0-.29,0c-2.64,15.53-3.75,31.49-.23,46.95,3.36,14.7,9.92,28.42,17.71,41.26,2.19,3.59,4.51,7.1,6.92,10.55,2.52,3.6,5.3,7,7.93,10.49C268.58,397.29,268.85,397.13,268.73,397Z"/><path class="cls-6" d="M215.16,284.75c.11-.15-.15-.33-.26-.19-10,12.25-14,28.22-16.59,43.48-2.92,17.16-3,34.68,1.08,51.67a75,75,0,0,0,4.29,12.81,73.5,73.5,0,0,0,6.55,11.3c.13.19.4,0,.25-.21a37.21,37.21,0,0,1-5.7-10.72,79.58,79.58,0,0,1-3.11-11,129.5,129.5,0,0,1-3-25.2A168.24,168.24,0,0,1,204.38,308,72.85,72.85,0,0,1,215.16,284.75Z"/><path class="cls-6" d="M205.1,389.06a107,107,0,0,1-4.22-11.24,114.49,114.49,0,0,1-4.79-23.31,104.78,104.78,0,0,1,6.1-46.38,117.23,117.23,0,0,1,12.18-23.67c.09-.13-.12-.29-.22-.16a100.06,100.06,0,0,0-15.61,91.14,101.46,101.46,0,0,0,5.05,12.32c2,4.23,4.64,8.14,6.93,12.24.1.18.4,0,.28-.17A60.6,60.6,0,0,1,205.1,389.06Z"/><path class="cls-13" d="M236.3,307.17s-7.13-8.44-11-5.82,2.05,15.26,7,16.61a4.9,4.9,0,0,0,6.31-3.22Z"/><path class="cls-6" d="M227.07,304.93c-.07,0-.08.11,0,.13,3.49,1.06,5.55,4,7.09,7.15-1.12-1.16-2.54-1.72-4.11-.37-.08.07,0,.2.11.17a3,3,0,0,1,3.41.75,14.25,14.25,0,0,1,1.82,2.53c.19.29.72.08.57-.26l0-.08C235.61,310.65,231.73,304.94,227.07,304.93Z"/><path class="cls-7" d="M777.69,259.26a22.81,22.81,0,0,0,3.89-12.58c0-15.92-17.49-28.83-39.05-28.83s-39,12.91-39,28.83,17.47,28.84,39,28.84c10.45,0,19.93-3,26.93-8L782.91,271Z"/><path class="cls-15" d="M777.69,259.26a23,23,0,0,0,3.71-11.9,22.42,22.42,0,0,0-3.3-11.92c-4.4-7.14-11.82-12-19.73-14.52a52,52,0,0,0-24.72-1.6,41,41,0,0,0-22,10.81,25.56,25.56,0,0,0-6.41,10.34,20.75,20.75,0,0,0-.16,12A25.26,25.26,0,0,0,711.35,263a36.27,36.27,0,0,0,10,7.19A44.92,44.92,0,0,0,733.23,274a52.51,52.51,0,0,0,12.46.86,46,46,0,0,0,23.57-7.61l.14-.09.15,0L783,270.8l-.2.23Zm0,0,5.38,11.63.15.32-.35-.08-13.49-3.24.29-.05A46.34,46.34,0,0,1,745.75,276a50.11,50.11,0,0,1-25-4.59A37.74,37.74,0,0,1,710.31,264a26.77,26.77,0,0,1-6.67-11,22.13,22.13,0,0,1,.12-12.92,27,27,0,0,1,6.84-10.94A42.35,42.35,0,0,1,733.41,218a53.66,53.66,0,0,1,12.78-.63,52.51,52.51,0,0,1,12.53,2.54c8,2.7,15.63,7.76,20,15.22a22.36,22.36,0,0,1-1,24.16Z"/><path class="cls-6" d="M728.49,246.68a4,4,0,1,1-4-4.05A4,4,0,0,1,728.49,246.68Z"/><path class="cls-6" d="M746.58,246.68a4.05,4.05,0,1,1-4.05-4.05A4,4,0,0,1,746.58,246.68Z"/><path class="cls-6" d="M764.68,246.68a4,4,0,1,1-4-4.05A4.05,4.05,0,0,1,764.68,246.68Z"/><path class="cls-1" d="M889.23,463.88c-16.11.14-40.77.44-56.69.44h-.45v-.45l-.05-24v-.5h.5l28.34.06,28.35.17h.28v.27l-.27,24Zm0,0-.27-24,.27.27-28.35.17-28.34.06.5-.5-.06,24-.44-.45c15.8,0,40.71.28,56.69.45Z"/><path class="cls-1" d="M826,72.69c-16.11.14-40.77.44-56.7.44h-.44v-.44l-.05-24v-.5h.5l28.35.06,28.35.17h.28v.27l-.27,24Zm0,0-.27-24L826,49l-28.35.17-28.35.06.5-.5,0,24-.45-.45c15.81,0,40.71.28,56.7.45Z"/></svg>