<svg id="Слой_1" data-name="Слой 1" xmlns="http://www.w3.org/2000/svg" xmlns:xlink="http://www.w3.org/1999/xlink" viewBox="0 0 923 1000"><defs><style>.cls-1{fill:none;}.cls-2{clip-path:url(#clip-path);}.cls-3{fill:#4a148c;}.cls-4{fill:#fff;}.cls-5{fill:#dcdcdc;}.cls-6{fill:#306;}.cls-7{fill:#ffc800;}.cls-8{opacity:0.1;}.cls-9{fill:#e55f4e;}.cls-10{fill:#ececec;}.cls-11{fill:#c8c8c8;}.cls-12{fill:#a8a8a8;}.cls-13{fill:#ff9bbe;}</style><clipPath id="clip-path"><rect class="cls-1" x="-22.5" y="-41.5" width="982" height="1072"/></clipPath></defs><g class="cls-2"><path class="cls-3" d="M247.06,867.28a7.94,7.94,0,0,1,.06-8.31c.42-.69.82-1.41,1.21-2.13s.76-1.47,1.11-2.21a7.94,7.94,0,0,1,6.87-4.63l10.22-.31-1-33.29-10.22.31a7.93,7.93,0,0,1-7.18-4.18,44.78,44.78,0,0,0-2.61-4.22A7.93,7.93,0,0,1,245,800l4.82-9-29.36-15.75-4.82,9a7.92,7.92,0,0,1-7.18,4.13,48.25,48.25,0,0,0-5,.16,7.91,7.91,0,0,1-7.45-3.67l-5.39-8.68-28.3,17.56,5.4,8.73a7.87,7.87,0,0,1-.06,8.27c-.42.69-.82,1.41-1.21,2.13s-.76,1.45-1.1,2.19a8,8,0,0,1-6.9,4.64l-10.22.31,1,33.29,10.19-.32a7.91,7.91,0,0,1,7.19,4.17,45,45,0,0,0,2.62,4.23,7.91,7.91,0,0,1,.53,8.28l-4.82,9,29.37,15.75,4.81-9a7.92,7.92,0,0,1,7.19-4.13,45.87,45.87,0,0,0,5-.16,7.93,7.93,0,0,1,7.45,3.68l5.37,8.67L252.44,876Zm-52.57-8.34a27.28,27.28,0,1,1,36.93-11.17A27.3,27.3,0,0,1,194.49,858.94Z"/><path class="cls-3" d="M276.5,767a5.58,5.58,0,0,1,5.15-2.72c.57,0,1.14,0,1.71,0s1.16,0,1.73,0a5.55,5.55,0,0,1,5.14,2.71l3.58,6.2L314,761.48l-3.58-6.2a5.55,5.55,0,0,1,.2-5.82,30.89,30.89,0,0,0,1.75-3,5.53,5.53,0,0,1,4.92-3.07h7.15V720.05h-7.15a5.54,5.54,0,0,1-4.92-3.06,31,31,0,0,0-1.75-3,5.55,5.55,0,0,1-.2-5.82L314,702,293.81,690.3l-3.6,6.23a5.54,5.54,0,0,1-5.13,2.7c-.57,0-1.14,0-1.72,0s-1.14,0-1.71,0a5.56,5.56,0,0,1-5.15-2.72l-3.58-6.21L252.71,702l3.57,6.19a5.53,5.53,0,0,1-.19,5.81,31.2,31.2,0,0,0-1.75,3,5.53,5.53,0,0,1-4.93,3.07h-7.14v23.34h7.14a5.53,5.53,0,0,1,4.93,3.07,31.2,31.2,0,0,0,1.75,3,5.55,5.55,0,0,1,.19,5.82l-3.57,6.18,20.21,11.66Zm-12.26-35.22a19.12,19.12,0,1,1,19.12,19.11A19.13,19.13,0,0,1,264.24,731.73Z"/><rect class="cls-4" x="324.22" y="312.11" width="742.49" height="112.54" transform="translate(1390.92 736.75) rotate(-180)"/><path class="cls-5" d="M323,310.85h745v115H323Zm742.49,2.51h-740v110h740Z"/><path class="cls-3" d="M900.69,342.6a61.84,61.84,0,0,0-3,12.89,101.28,101.28,0,0,0-.81,12.89,99.42,99.42,0,0,0,.8,12.88,60.63,60.63,0,0,0,3,12.89,60.6,60.6,0,0,0,3-12.89,97.7,97.7,0,0,0,.81-12.88,99.49,99.49,0,0,0-.82-12.89A61.18,61.18,0,0,0,900.69,342.6Z"/><path class="cls-3" d="M874.92,368.37a60.51,60.51,0,0,0,12.88,3,103.29,103.29,0,0,0,12.89.82,101.24,101.24,0,0,0,12.88-.81,60,60,0,0,0,12.89-3,60.6,60.6,0,0,0-12.89-3,99.44,99.44,0,0,0-12.88-.81,101.41,101.41,0,0,0-12.89.82A61.09,61.09,0,0,0,874.92,368.37Z"/><path class="cls-3" d="M882.46,350.15a62,62,0,0,0,7,11.2A102.52,102.52,0,0,0,898,371a98.49,98.49,0,0,0,9.68,8.54,60.61,60.61,0,0,0,11.21,7,61.11,61.11,0,0,0-7-11.21,98.58,98.58,0,0,0-8.55-9.68,101,101,0,0,0-9.68-8.54A61.69,61.69,0,0,0,882.46,350.15Z"/><path class="cls-3" d="M882.46,386.6a61.15,61.15,0,0,0,11.21-7,101,101,0,0,0,9.68-8.54,98.58,98.58,0,0,0,8.55-9.68,61.11,61.11,0,0,0,7-11.21,60.61,60.61,0,0,0-11.21,7,98.49,98.49,0,0,0-9.68,8.54,102.52,102.52,0,0,0-8.54,9.69A62,62,0,0,0,882.46,386.6Z"/><path class="cls-3" d="M800.22,342.6a61.18,61.18,0,0,0-3,12.89,99.49,99.49,0,0,0-.82,12.89,97.7,97.7,0,0,0,.81,12.88,60.6,60.6,0,0,0,3,12.89,60.63,60.63,0,0,0,3-12.89,99.42,99.42,0,0,0,.8-12.88,101.28,101.28,0,0,0-.81-12.89A61.84,61.84,0,0,0,800.22,342.6Z"/><path class="cls-3" d="M774.45,368.37a60.6,60.6,0,0,0,12.89,3,103.13,103.13,0,0,0,12.88.82,101.4,101.4,0,0,0,12.89-.81,59.94,59.94,0,0,0,12.88-3,60.51,60.51,0,0,0-12.88-3,99.59,99.59,0,0,0-12.89-.81,101.26,101.26,0,0,0-12.88.82A61.18,61.18,0,0,0,774.45,368.37Z"/><path class="cls-3" d="M782,350.15a61.4,61.4,0,0,0,7,11.2,102.42,102.42,0,0,0,8.53,9.69,99.77,99.77,0,0,0,9.69,8.54,60.53,60.53,0,0,0,11.2,7,60.05,60.05,0,0,0-7-11.21,99.81,99.81,0,0,0-8.54-9.68,101.13,101.13,0,0,0-9.69-8.54A62,62,0,0,0,782,350.15Z"/><path class="cls-3" d="M782,386.6a61.4,61.4,0,0,0,11.2-7,101.13,101.13,0,0,0,9.69-8.54,99.81,99.81,0,0,0,8.54-9.68,60.05,60.05,0,0,0,7-11.21,60.53,60.53,0,0,0-11.2,7,99.77,99.77,0,0,0-9.69,8.54A102.42,102.42,0,0,0,789,375.4,61.4,61.4,0,0,0,782,386.6Z"/><path class="cls-3" d="M699.76,342.6a60.6,60.6,0,0,0-3,12.89,103.17,103.17,0,0,0-.82,12.89,101.24,101.24,0,0,0,.81,12.88,60,60,0,0,0,3,12.89,60.6,60.6,0,0,0,3-12.89,99.44,99.44,0,0,0,.81-12.88,101.3,101.3,0,0,0-.82-12.89A61.18,61.18,0,0,0,699.76,342.6Z"/><path class="cls-3" d="M674,368.37a60.74,60.74,0,0,0,12.89,3,103.29,103.29,0,0,0,12.89.82,101.24,101.24,0,0,0,12.88-.81,60,60,0,0,0,12.89-3,60.6,60.6,0,0,0-12.89-3,99.44,99.44,0,0,0-12.88-.81,101.41,101.41,0,0,0-12.89.82A61.32,61.32,0,0,0,674,368.37Z"/><path class="cls-3" d="M681.53,350.15a62,62,0,0,0,7,11.2,101.13,101.13,0,0,0,8.54,9.69,98.49,98.49,0,0,0,9.68,8.54,60.61,60.61,0,0,0,11.21,7,61.11,61.11,0,0,0-7-11.21,99.91,99.91,0,0,0-8.55-9.68,101.13,101.13,0,0,0-9.69-8.54A62,62,0,0,0,681.53,350.15Z"/><path class="cls-3" d="M681.53,386.6a61.4,61.4,0,0,0,11.2-7,101.13,101.13,0,0,0,9.69-8.54,99.91,99.91,0,0,0,8.55-9.68,61.11,61.11,0,0,0,7-11.21,60.61,60.61,0,0,0-11.21,7,98.49,98.49,0,0,0-9.68,8.54,101.13,101.13,0,0,0-8.54,9.69A62,62,0,0,0,681.53,386.6Z"/><path class="cls-3" d="M599.29,342.6a61.84,61.84,0,0,0-3,12.89,101.28,101.28,0,0,0-.81,12.89,99.42,99.42,0,0,0,.8,12.88,61.24,61.24,0,0,0,3,12.89,60.63,60.63,0,0,0,3-12.89,99.42,99.42,0,0,0,.8-12.88,101.28,101.28,0,0,0-.81-12.89A61.84,61.84,0,0,0,599.29,342.6Z"/><path class="cls-3" d="M573.52,368.37a60.51,60.51,0,0,0,12.88,3,103.29,103.29,0,0,0,12.89.82,101.4,101.4,0,0,0,12.89-.81,59.94,59.94,0,0,0,12.88-3,60.51,60.51,0,0,0-12.88-3,99.59,99.59,0,0,0-12.89-.81,101.41,101.41,0,0,0-12.89.82A61.09,61.09,0,0,0,573.52,368.37Z"/><path class="cls-3" d="M581.07,350.15a60.86,60.86,0,0,0,7,11.2,102.47,102.47,0,0,0,18.21,18.23,60.61,60.61,0,0,0,11.21,7,60.05,60.05,0,0,0-7-11.21,99.81,99.81,0,0,0-8.54-9.68,101.13,101.13,0,0,0-9.69-8.54A62,62,0,0,0,581.07,350.15Z"/><path class="cls-3" d="M581.07,386.6a61.4,61.4,0,0,0,11.2-7A101.13,101.13,0,0,0,602,371a99.81,99.81,0,0,0,8.54-9.68,60.05,60.05,0,0,0,7-11.21,60.61,60.61,0,0,0-11.21,7,102.47,102.47,0,0,0-18.21,18.23A60.86,60.86,0,0,0,581.07,386.6Z"/><path class="cls-3" d="M498.82,342.6a61.18,61.18,0,0,0-2.95,12.89,102.26,102.26,0,0,0,0,25.77,60.6,60.6,0,0,0,3,12.89,60,60,0,0,0,3-12.89,102.26,102.26,0,0,0,0-25.77A60.6,60.6,0,0,0,498.82,342.6Z"/><path class="cls-3" d="M473.05,368.37a60.6,60.6,0,0,0,12.89,3,103.13,103.13,0,0,0,12.88.82,101.4,101.4,0,0,0,12.89-.81,60,60,0,0,0,12.89-3,60.6,60.6,0,0,0-12.89-3,99.59,99.59,0,0,0-12.89-.81,101.26,101.26,0,0,0-12.88.82A61.18,61.18,0,0,0,473.05,368.37Z"/><path class="cls-3" d="M480.6,350.15a61.4,61.4,0,0,0,7,11.2,101.13,101.13,0,0,0,8.54,9.69,98.49,98.49,0,0,0,9.68,8.54,60.61,60.61,0,0,0,11.21,7,60.61,60.61,0,0,0-7-11.21,98.49,98.49,0,0,0-8.54-9.68,101.13,101.13,0,0,0-9.69-8.54A62,62,0,0,0,480.6,350.15Z"/><path class="cls-3" d="M480.6,386.6a61.4,61.4,0,0,0,11.2-7,101.13,101.13,0,0,0,9.69-8.54,98.49,98.49,0,0,0,8.54-9.68,60.61,60.61,0,0,0,7-11.21,60.61,60.61,0,0,0-11.21,7,98.49,98.49,0,0,0-9.68,8.54,101.13,101.13,0,0,0-8.54,9.69A61.4,61.4,0,0,0,480.6,386.6Z"/><path class="cls-3" d="M568.5,345.62v137h38.72v-137c0-52.09,39.57-94.45,88.24-94.45s88.25,42.36,88.25,94.45v137h38.71v-137c0-74.61-56.95-135.28-127-135.28S568.5,271,568.5,345.62Z"/><polygon class="cls-6" points="822.42 381.24 783.71 382.8 783.71 482.62 822.42 482.62 822.42 381.24"/><polygon class="cls-6" points="568.5 391.58 568.5 482.62 607.22 482.62 607.22 390 568.5 391.58"/><rect class="cls-7" x="518.89" y="404.61" width="353.15" height="320.39" transform="translate(1390.92 1129.62) rotate(-180)"/><rect class="cls-8" x="518.89" y="404.61" width="176.58" height="320.39" transform="translate(1214.35 1129.62) rotate(-180)"/><path class="cls-6" d="M680.53,576.54l-14.79,70.13h62.74L713.7,576.54a31.38,31.38,0,1,0-33.17,0Z"/><path class="cls-9" d="M461.59,676.65S530.08,732,530.13,732c13.16,10.52,24.5,20,29.92,25.41a.34.34,0,0,1,.08.09c2,2.05,3.23,3.52,3.29,4.22a.41.41,0,0,1,0,.15c-.48,6-81.46,113.61-85.55,116.41S465.5,869.69,465.31,863s12.41-61.75,12.41-61.75l-67.94-56Z"/><path class="cls-10" d="M516.07,720.68s14,11.33,14.06,11.36c13.16,10.52,24.5,20,29.92,25.41a.34.34,0,0,1,.08.09,22.71,22.71,0,0,1,3.29,4.22.41.41,0,0,1,0,.15c-.48,6-81.46,113.61-85.55,116.41S465.5,869.69,465.31,863s12.41-61.75,12.41-61.75l-14.43-11.34Z"/><path class="cls-7" d="M477.89,878.32C482,875.52,563,768,563.44,761.9c.22-2.3-14.76-15-33.31-29.85l-.59-.46-53,68.81,1.19.86s-12.58,55-12.4,61.75S473.81,881.14,477.89,878.32Z"/><path class="cls-6" d="M474.64,874c13.2-18.46,68.21-91.7,82.66-109,.12-.14.22-.06.12.09-12.69,18.59-68.29,91.38-82.49,109.1C474.64,874.56,474.36,874.35,474.64,874Z"/><path class="cls-6" d="M473.54,807.25c4-8.14,11.71-16,20.9-17.66.35-.07.44.44.19.62a125.13,125.13,0,0,0-20.16,17.69A.57.57,0,0,1,473.54,807.25Z"/><path class="cls-6" d="M472.77,814.74c4-8.14,11.7-16,20.89-17.67.36-.06.44.45.2.62a125.26,125.26,0,0,0-20.17,17.7A.57.57,0,0,1,472.77,814.74Z"/><path class="cls-6" d="M472,822.23c4-8.14,11.7-16.05,20.89-17.67.36-.06.44.44.19.62a125.62,125.62,0,0,0-20.16,17.69A.57.57,0,0,1,472,822.23Z"/><path class="cls-3" d="M424.54,610.68c4.86,24,104.29,119.6,104.29,119.6l-69.32,80S318.34,669.38,325.7,616.43c6.41-46.06,75.37-231.28,75.37-231.28h79.55S419.77,587.12,424.54,610.68Z"/><path class="cls-3" d="M424.54,610.68c4.86,24,104.29,119.6,104.29,119.6l-69.32,80S318.34,669.38,325.7,616.43c6.41-46.06,75.37-231.28,75.37-231.28h79.55S419.77,587.12,424.54,610.68Z"/><path class="cls-6" d="M451.62,791.27c9.21-11.47,6.41-8.31,15.74-19.67,4.57-5.56,34.64-42.07,39.81-46.51.12-.09.31.07.23.2-3.47,5.87-34.16,41.85-38.84,47.32-9.55,11.18-6.93,7.86-16.61,18.93A.21.21,0,0,1,451.62,791.27Z"/><path class="cls-6" d="M414.67,599c1.13-6,2.43-11.94,3.69-17.9q3.88-18.24,8.21-36.4,8.6-36,18.69-71.59c6.79-23.81,13.95-47.57,22.21-70.91,1-2.89,2.07-5.76,3.12-8.63.08-.22.42-.13.35.1-7.15,23.39-14.52,46.7-21.22,70.22s-12.86,47-18.68,70.62c-2.93,11.87-5.65,23.79-8.31,35.73q-2,8.79-3.83,17.61c-1.26,6-3,12-3.33,18.15s1.59,11.3,4.68,16.35c3,4.88,6.49,9.47,9.88,14.07,6.8,9.22,71.55,81.37,73.63,83.33.17.16-.08.39-.25.24-8.69-7.8-63.63-67.27-70.61-76.47q-5.17-6.82-10.11-13.83c-3.09-4.36-6.2-8.82-7.91-13.93C413.05,610.26,413.6,604.59,414.67,599Z"/><path class="cls-6" d="M414.83,385.14l14.44,189.55c13.78-64.88,51.34-189.55,51.34-189.55Z"/><path class="cls-9" d="M448.94,775.41S431.77,859,431.77,859.09c-.23,16.84-.73,31.6-1.7,39.21a.32.32,0,0,1,0,.13c-.36,2.87-.79,4.7-1.31,5.18,0,0-.06.08-.1.1-5.06,3.33-139.7,5.42-144.42,3.91s-.79-15.07,4.37-19.32S345,860.19,345,860.19l18-83.57Z"/><path class="cls-10" d="M284.22,907.62c4.72,1.51,139.36-.58,144.41-3.9.05,0,.07-.07.11-.11.51-.49,1-2.3,1.31-5.19a.27.27,0,0,0,0-.13c1-7.6,1.47-22.35,1.71-39.19,0,0,3-14.56,3-14.56H348.33L345,860.18s-51.18,23.87-56.39,28.12S279.47,906.14,284.22,907.62Z"/><path class="cls-7" d="M284.22,907.63c4.73,1.51,139.35-.58,144.42-3.92,1.95-1.23,2.79-20.87,3.12-44.62,0-.25,0-.5,0-.74l-86.87.37.06,1.48s-51.18,23.85-56.37,28.1S279.49,906.14,284.22,907.63Z"/><path class="cls-6" d="M285.66,902.38c22.69-.91,114.27-2.43,136.76-1.61.19,0,.19.13,0,.14-22.47,1.4-114.06,2.18-136.76,1.84C285.19,902.75,285.19,902.4,285.66,902.38Z"/><path class="cls-6" d="M337.66,860.57c8.91-1.8,19.85-.6,26.77,5.66.27.24-.08.61-.37.53a125.39,125.39,0,0,0-26.34-5.06A.57.57,0,0,1,337.66,860.57Z"/><path class="cls-6" d="M331.28,864.56c8.9-1.81,19.84-.61,26.77,5.65.27.24-.08.62-.37.53a126.12,126.12,0,0,0-26.35-5.06A.57.57,0,0,1,331.28,864.56Z"/><path class="cls-6" d="M324.89,868.54c8.91-1.8,19.85-.6,26.77,5.66.27.24-.08.61-.37.53a125.36,125.36,0,0,0-26.35-5.06A.57.57,0,0,1,324.89,868.54Z"/><path class="cls-3" d="M408.74,385.15c.09,1.67,4.53,16.9,6.83,39.7,1.66,16.64,3.74,31.37,6,33.21,2.51,2.06,15.09,10.14,19.32,12.72,0,0-39.2,118.83-49.32,158.44-14.66,57.42-49.78,229.69-49.78,229.69h93.58s28.46-164,40.89-218.67c10.67-46.87,51.52-187.47,51.52-187.47,14.87-36.55-3.3-67.61-3.3-67.61S408.73,385.09,408.74,385.15Z"/><path class="cls-6" d="M345.13,840.7c14.71-.07,10.49-.26,25.19-.17,7.2,0,54.49.36,61.2,1.58.15,0,.14.27,0,.3-6.75,1-54-.14-61.22-.32-14.7-.37-10.48-.42-25.18-1A.22.22,0,0,1,345.13,840.7Z"/><path class="cls-6" d="M414.9,453.36c9.12,4.81,17.69,11,25.82,17.28.32.25,0,.76-.35.54-8.75-5.49-17.71-10.82-26.15-16.78A.62.62,0,0,1,414.9,453.36Z"/><path class="cls-6" d="M422.05,388.71c.07-.32.65-.3.6.05a312.58,312.58,0,0,0-3.29,31.57c-.32,4.89-.58,32.18,8.1,31.54,1.45-.11,2.38-1.38,2.93-3.46.66-2.5.19-5.77.16-8.36-.06-5.73.06-11.45.46-17.17a154.92,154.92,0,0,1,5.24-31.51.27.27,0,0,1,.53.11c-2.27,14.58-4.15,29.2-4.21,44,0,7.1,1.84,18.09-5.58,18s-9.63-18.31-9.79-23.24C416.75,416.51,418.89,402.07,422.05,388.71Z"/><path class="cls-6" d="M427.12,452.55a46,46,0,0,1,1,5.82,12.88,12.88,0,0,1,.08,4.67.33.33,0,0,1-.6,0,16.22,16.22,0,0,1-1.26-4.73c-.37-1.81-.78-3.61-1.1-5.43A.94.94,0,0,1,427.12,452.55Z"/><path class="cls-6" d="M514.48,452.09c-9.58-1-14.47-1.42-23.72-4.49a56,56,0,0,1-23-14.19A45.24,45.24,0,0,1,459,421.08c-.08-.18-.37-.05-.31.13a41.35,41.35,0,0,0,6.24,12.36A47.4,47.4,0,0,0,475,443.24a53,53,0,0,0,25.74,9.93,41.27,41.27,0,0,0,13.85-.22C515.12,452.87,514.92,452.13,514.48,452.09Z"/><path class="cls-6" d="M446.21,789.14c.25-2.16.54-4.32.85-6.48.58-4.15,1.28-8.28,1.92-12.42,1.28-8.32,2.71-16.61,4.18-24.9,2.93-16.52,6.33-33,9.9-49.39,2-9.27,4.37-18.43,6.85-27.59.17-.64,1.07-.33,1,.29-1.51,8.38-3,16.77-4.67,25.11s-3.41,16.64-5.07,25c-3.27,16.46-6.31,33-9.57,49.43-.92,4.65-1.75,9.31-2.66,14q-.67,3.48-1.42,7c-.5,2.3-1.22,4.57-1.59,6.89,0,.22-.37.12-.34-.1C445.92,793.65,446,791.38,446.21,789.14Z"/><path class="cls-6" d="M381.69,664.81C384.8,649.28,389,634,393.23,618.7c8.5-30.71,18.51-61,28.5-91.23q4.32-13.07,8.63-26.14c1.45-4.36,8.5-27.86,9.38-30.09a.19.19,0,0,1,.36.11c-2,8-4.8,19.68-7.13,27.6s-4.83,15.6-7.26,23.4c-4.78,15.32-9.65,30.62-14.29,46-9.17,30.36-18.28,60.72-25.73,91.57-2.08,8.63-4.16,17.27-6.06,26s-3.53,17.38-5.35,26.07c0,.23-.45.17-.42-.07C375.42,696,378.56,680.38,381.69,664.81Z"/><path class="cls-6" d="M439.86,746C445,716.41,451.18,687,458,657.67S472.54,599,481,570s17.77-57.77,27.8-86.26c4.76-13.51,9.59-27,12.71-41,3.09-13.84,4.65-28.81,1.43-42.76a71.39,71.39,0,0,0-3.2-10.4c-.09-.23.25-.43.35-.19,11.25,26.22,4,54.91-4.62,80.76-4.69,14.17-9.7,28.22-14.33,42.41q-7.12,21.84-13.66,43.87c-8.64,29.11-16.66,58.38-23.84,87.88s-13.58,59.17-19.21,89-10.4,60-15.21,90.05c-.63,3.92-1.12,7.85-1.64,11.78,0,.22-.37.21-.34,0C430.8,805.29,434.72,775.61,439.86,746Z"/><path class="cls-9" d="M441.76,260.91c-11,40.22-42.73,88.79-57.78,95.47-13.15,5.84-74.07-16.7-97.05-31.34-6.56-4.17,20.49-41.83,28.37-39.21,25.72,8.58,53.73,21.25,55.89,20.52,4.37-1.48,31.69-35,51.58-57.51C445.05,223.6,446.15,244.88,441.76,260.91Z"/><path class="cls-9" d="M243.42,291c-5.18-2.17-45.06-3.44-45-12.08s50.75-6.23,50.75-6.23Z"/><path class="cls-9" d="M319.89,292c-7-8.66-13.09-18-19.15-19.71-4.2-1.19-49.34.76-56.4.33s-32.22.22-32.8,6.41c-.82,8.74,29,8.66,32.14,13.13,11,15.43,52.7,38.24,52.7,38.24Z"/><path class="cls-6" d="M210.88,279.18a6.74,6.74,0,0,1,2.89-3.88c3.08-2.17,7.14-2.36,10.77-2.65a99.29,99.29,0,0,1,16.54-.13.1.1,0,0,1,0,.19c-4.13.06-8.24.11-12.36.45-3.71.32-7.63.57-11.19,1.72a9.11,9.11,0,0,0-4.3,2.58,3.57,3.57,0,0,0-.85,3.33c1.2,3.8,8.72,4.93,12.18,5.71,4.54,1,9.24,1.9,13.79,2.83.2.05.1.35-.09.31-4.73-.94-9.72-1.3-14.47-2.16-3.85-.69-8-1.48-11.08-4A4.38,4.38,0,0,1,210.88,279.18Z"/><path class="cls-7" d="M321.62,286.7,285.91,339s55.39,27.72,76.52,27.22c20.15-.48,27.46-3.45,33.82-9.46,3.93-3.71,26.35-35.37,44.63-87.95,15.35-44.14-7.35-37.63-27.59-13.2-10.09,12.19-42.36,48.48-44,48.35S321.62,286.7,321.62,286.7Z"/><path class="cls-6" d="M332.62,295.2c-5.36,7.74-10.49,15.64-15.55,23.57-2.49,3.9-11.75,19.75-14.45,24.24-.11.17.38.47.5.3,2.8-4,12.89-19.8,15.31-23.73,4.92-8,9.79-16.06,14.41-24.25A.13.13,0,0,0,332.62,295.2Z"/><path class="cls-8" d="M351.72,364.9a46.08,46.08,0,0,0,10.71,1.32c20.14-.47,27.45-3.45,33.8-9.46,3.94-3.71,26.37-35.36,44.64-88,3.53-10.16,5.06-17.63,5.06-22.81,0-.5,0-1-.05-1.43a11.65,11.65,0,0,0-.13-1.35c-.05-.39-.11-.75-.18-1.09a7.71,7.71,0,0,0-2.21-4.3C431,254.49,372.38,333.58,351.72,364.9Z"/><rect class="cls-11" x="220.58" y="265.22" width="135.44" height="7.28"/><polygon class="cls-12" points="220.58 265.22 220.58 272.5 302.84 272.5 297.27 265.22 220.58 265.22"/><polygon class="cls-11" points="291.29 272.5 200.71 272.5 153.58 192.45 244.15 192.45 291.29 272.5"/><path class="cls-4" d="M225.82,232.42c1.69,3.71.44,7.61-2.78,8.71s-7.21-1-8.91-4.71-.44-7.6,2.78-8.71S224.12,228.72,225.82,232.42Z"/><path class="cls-10" d="M533.14,412.71c-.33.36-141.8-.65-143.08-2.12-1.77-2.06,31.74-155,46.45-173.8,3.15-4,13.41-5,22.11-3.86a39.13,39.13,0,0,1,6.69,1.44l.22.06a16,16,0,0,1,4.91,2.47c24,19.59,43.73,87.42,48.29,107.78C526.28,378.21,534.32,411.39,533.14,412.71Z"/><path class="cls-7" d="M467,234.72s-9.22,63-11.4,79.27-.1,102.51-.1,102.51L544.3,424s-18.6-57.25-18.79-60.88c0,0-14.72-68.79-29.91-97.21A86.07,86.07,0,0,0,467,234.72Z"/><path class="cls-7" d="M437.48,235.82s-12,63.7-13.05,68.95S408,413.55,408,413.55l-22.23.46,12.07-47.28S423.63,245.6,437.48,235.82Z"/><path class="cls-9" d="M442.49,256.18c6.76.77,19.53-8.61,23.09-18.56.24-.68-1.77-7.15-3.84-15.12-1.24-4.84-2.5-10.26-3.3-15.29-.15-1-30.33,12.66-30.33,12.66s4.77,10,6.11,18.83a12.53,12.53,0,0,1,.11,2.09c0,.1,0,.22,0,.35C434.31,245.16,435.26,255.36,442.49,256.18Z"/><path class="cls-6" d="M434.32,240.79c0,.11,0,.23,0,.35a20.65,20.65,0,0,0,3.25-.34c18.51-3.35,19.73-27.36,19.74-33.4-5.48,1.69-29.22,12.46-29.22,12.46s4.77,10.07,6.11,18.84A11.55,11.55,0,0,1,434.32,240.79Z"/><path class="cls-9" d="M458.1,167.13c4.85,10.8,3,44-4.08,52.25-10.27,12-29.11,15.34-39.78,2.53-10.34-12.41-7.16-55.64.94-63.34C427.11,147.23,451,151.17,458.1,167.13Z"/><path class="cls-6" d="M433.64,190.63c0-.08.17.12.16.21-.18,2.23,0,4.82,2,5.66.06,0,.05.14,0,.13C433.29,196.16,433.11,192.72,433.64,190.63Z"/><path class="cls-6" d="M435.76,188.4c3.61-.09,3.52,7.14.18,7.22S432.73,188.47,435.76,188.4Z"/><path class="cls-6" d="M419.87,190.53c0-.09-.18.1-.18.19.05,2.24-.28,4.82-2.31,5.54-.07,0-.06.13,0,.12C419.87,196.06,420.27,192.64,419.87,190.53Z"/><path class="cls-6" d="M417.9,188.17c-3.6-.32-4,6.9-.64,7.19S420.91,188.43,417.9,188.17Z"/><path class="cls-6" d="M438.65,185.12a27.34,27.34,0,0,1-2.79-1,4.77,4.77,0,0,1-2.65-1.58,1.53,1.53,0,0,1,.27-1.85,3.82,3.82,0,0,1,3.83-.34,5.57,5.57,0,0,1,3.18,2.45A1.63,1.63,0,0,1,438.65,185.12Z"/><path class="cls-6" d="M415.14,182.09a27.51,27.51,0,0,0,2.88-.71,4.82,4.82,0,0,0,2.81-1.29,1.55,1.55,0,0,0-.07-1.87,3.8,3.8,0,0,0-3.77-.75,5.49,5.49,0,0,0-3.42,2.09A1.63,1.63,0,0,0,415.14,182.09Z"/><path class="cls-6" d="M434.38,211.36c-.54.51-1.08,1.23-1.9,1.29a6.1,6.1,0,0,1-2.4-.59.08.08,0,0,0-.1.11,3,3,0,0,0,2.83,1.25,2.4,2.4,0,0,0,1.79-2C434.63,211.33,434.46,211.28,434.38,211.36Z"/><path class="cls-6" d="M432.11,204.62A7.66,7.66,0,0,1,427,208a10.11,10.11,0,0,1-2.75.09,2.84,2.84,0,0,1-.52-.07c-.16,0-.31,0-.49-.08a.55.55,0,0,1-.44-.51h0a.9.9,0,0,1,0-.23v-.21c0-1.73.17-4.35.17-4.35-.64.31-3.86,1.72-3.8.82.53-7.46,1.12-15.75,3.23-23a.2.2,0,0,1,.4.06c-.23,7.19-1.71,14.28-2.06,21.49a13.22,13.22,0,0,1,3.61-1c.25.08-.47,5.06-.4,5.83a.27.27,0,0,0,0,.09c2.89.4,5.09-.45,7.92-2.36C432.07,204.29,432.24,204.44,432.11,204.62Z"/><path class="cls-6" d="M425.26,207.19a9.1,9.1,0,0,0,3.59,2.85,4.13,4.13,0,0,0,2.47.18c1.8-.45,1.86-2.09,1.55-3.5a9.47,9.47,0,0,0-.78-2.16A11.7,11.7,0,0,1,425.26,207.19Z"/><path class="cls-13" d="M428.85,210a4.13,4.13,0,0,0,2.47.18c1.8-.45,1.86-2.09,1.55-3.5C431,206.9,429,208.17,428.85,210Z"/><path class="cls-6" d="M460.86,195.82s8-19.92,5.29-30.23c-1.23-4.66-8.21-6.8-8.21-6.8a10.84,10.84,0,0,0-5.13-10.21c-6.46-4.37-19.84-1-19.84-1s-10.86-11.28-22.48-4.21-1.22,19.85-1.22,19.85-3.51,7.22,8.47,10.47c11.66,3.16,33.07-5.31,33.07-5.31a78.53,78.53,0,0,0,4.08,22.94C456.39,195.52,460.86,195.82,460.86,195.82Z"/><path class="cls-6" d="M430.85,148.12a22.16,22.16,0,0,1,8.5-3,23.83,23.83,0,0,1,8.08,0c4.73.88,9.25,3.52,10.81,8.32a9.23,9.23,0,0,1-.62,7.17c-.05.09-.19,0-.13-.09,2.3-4-.12-9.33-3.58-11.83-3.91-2.82-9.26-3.26-13.92-2.7a38.69,38.69,0,0,0-9,2.46A.15.15,0,0,1,430.85,148.12Z"/><path class="cls-6" d="M402.57,150.85c.47-3.65,3.09-6.37,6.27-8a18.4,18.4,0,0,1,11.84-1.51,23.24,23.24,0,0,1,10.8,5.57c.06.06,0,.18-.11.12-5.58-4.77-13.42-6.73-20.4-4-3.12,1.21-6.08,3.41-7.08,6.74a11.08,11.08,0,0,0,1.78,9.19c2.24,3.18,5.78,5.27,9.31,6.72a.07.07,0,0,1-.05.13,21.38,21.38,0,0,1-9.08-5.51A12,12,0,0,1,402.57,150.85Z"/><path class="cls-6" d="M415.14,174.75a38.11,38.11,0,0,0,16.09.16,77.64,77.64,0,0,0,16.1-4.94c3-1.27,6-2.65,8.93-4.09a.08.08,0,1,1,.07.14,84.6,84.6,0,0,1-16,7.95,42.58,42.58,0,0,1-16.28,2.5,36.36,36.36,0,0,1-8.95-1.61C415,174.84,415.07,174.73,415.14,174.75Z"/><path class="cls-9" d="M453.27,195s6.24-11.3,11.3-9.18,1.12,18-4.26,20.63a5.73,5.73,0,0,1-8-2.25Z"/><path class="cls-6" d="M463.33,190.31a.08.08,0,0,1,0,.15c-3.76,2-5.44,5.87-6.49,9.8,1-1.58,2.52-2.54,4.61-1.36a.12.12,0,0,1-.08.22,3.54,3.54,0,0,0-3.73,1.63,17.48,17.48,0,0,0-1.52,3.32c-.14.37-.8.25-.71-.17l0-.09C454.85,198.81,458,191.39,463.33,190.31Z"/><path class="cls-9" d="M484.88,249.2c35.62,40,62.41,96.31,62.09,109.57-.35,14.58-18.91,66-36.61,90.11-2.28,3.1-16.06,1.8-27.72-4.62-12.29-6.77-22.38-18.85-20-22.45,9.06-13.5,30.58-65.83,30.38-74-.18-7.57-17.81-53.87-24.52-80.66C462.09,241.42,468.32,230.6,484.88,249.2Z"/><path class="cls-7" d="M532,444.93l-66.33-32.39s26.09-58.2,26.14-64.49-17.16-55.51-23.63-78.25-4-48.29,24.36-13.9,53.07,85.51,55.89,99.1S532,444.93,532,444.93Z"/><path class="cls-6" d="M488.39,331.34q-2.06-6.48-4.24-12.91-2.44-7.21-5.09-14.35c-1.73-4.63-3.66-9.16-5.52-13.74-.13-.33-.71-.12-.59.22,2.2,6.12,4.27,12.31,6.32,18.49-1.55-2.82-3.12-5.62-4.78-8.38a.21.21,0,0,0-.36.2c1.85,3.42,3.8,6.78,5.79,10.12.5,1.49,1,3,1.49,4.47,2.79,8.3,5.46,16.66,7.85,25.08a28.63,28.63,0,0,1,1.19,5.79,17.6,17.6,0,0,1-1,6.59c-1.21,3.89-2.56,7.75-3.93,11.58-2.77,7.71-5.78,15.32-8.94,22.87-3.59,8.58-7.68,17.08-11.76,25.45,0,0,2.48.66,2.54.71s.2-.08.14-.15-1.56-.81-1.6-.81c4.15-7.26,8.11-14.37,11.59-22s6.55-15.21,9.34-23c1.43-4,2.81-8.05,4.08-12.12s2-7.7,1.12-11.85A126,126,0,0,0,488.39,331.34Z"/><path class="cls-6" d="M533.08,426.25a68.39,68.39,0,0,0-7.24-3.41c-2.16-1-4.31-2-6.48-3-4.74-2.14-9.47-4.31-14.23-6.42s-9.47-4.25-14.23-6.31-9.42-4.27-14.27-6.06c-.18-.07-.3.21-.14.31,4.41,2.7,9.1,4.95,13.72,7.26s9.19,4.41,13.84,6.49,9.53,4.12,14.34,6.06c2.32.94,4.67,1.79,7,2.66a59.29,59.29,0,0,0,7.57,2.69A.13.13,0,0,0,533.08,426.25Z"/></g></svg>