<svg id="Слой_1" data-name="Слой 1" xmlns="http://www.w3.org/2000/svg" xmlns:xlink="http://www.w3.org/1999/xlink" viewBox="0 0 923 1000"><defs><style>.cls-1{fill:none;}.cls-2{fill:#c8c8c8;}.cls-3{fill:#ececec;}.cls-4{fill:#dcdcdc;}.cls-5{fill:#fff;}.cls-6{fill:#4a148c;}.cls-7{fill:#306;}.cls-8{fill:#ffc800;}.cls-9{opacity:0.1;}.cls-10{fill:#c36358;}.cls-11{fill:#ff98bb;}.cls-12{fill:#a8a8a8;}.cls-13{clip-path:url(#clip-path);}</style><clipPath id="clip-path"><rect class="cls-1" x="-1090.5" y="-41.5" width="982" height="1072"/></clipPath></defs><rect class="cls-2" x="130.79" y="327.93" width="135.68" height="521.21"/><rect class="cls-3" x="266.47" y="327.93" width="249.7" height="521.21"/><rect class="cls-4" x="285.19" y="782.79" width="215.37" height="49.74"/><rect class="cls-3" x="294.26" y="791.01" width="122.59" height="4.2"/><rect class="cls-3" x="294.26" y="798.28" width="122.59" height="4.2"/><rect class="cls-3" x="294.26" y="805.56" width="122.59" height="4.2"/><rect class="cls-3" x="294.26" y="812.84" width="122.59" height="4.2"/><rect class="cls-3" x="294.26" y="820.12" width="122.59" height="4.2"/><path class="cls-5" d="M439.2,795.17A4.17,4.17,0,1,1,435,791,4.16,4.16,0,0,1,439.2,795.17Z"/><path class="cls-5" d="M452.93,795.17a4.17,4.17,0,1,1-4.17-4.16A4.17,4.17,0,0,1,452.93,795.17Z"/><path class="cls-5" d="M466.65,795.17a4.17,4.17,0,1,1-4.16-4.16A4.16,4.16,0,0,1,466.65,795.17Z"/><path class="cls-5" d="M480.38,795.17a4.17,4.17,0,1,1-4.17-4.16A4.17,4.17,0,0,1,480.38,795.17Z"/><path class="cls-5" d="M494.1,795.17a4.17,4.17,0,1,1-4.16-4.16A4.16,4.16,0,0,1,494.1,795.17Z"/><path class="cls-5" d="M439.2,807.66A4.17,4.17,0,1,1,435,803.5,4.16,4.16,0,0,1,439.2,807.66Z"/><path class="cls-5" d="M452.93,807.66a4.17,4.17,0,1,1-4.17-4.16A4.17,4.17,0,0,1,452.93,807.66Z"/><path class="cls-5" d="M466.65,807.66a4.17,4.17,0,1,1-4.16-4.16A4.16,4.16,0,0,1,466.65,807.66Z"/><path class="cls-5" d="M480.38,807.66a4.17,4.17,0,1,1-4.17-4.16A4.17,4.17,0,0,1,480.38,807.66Z"/><path class="cls-5" d="M494.1,807.66a4.17,4.17,0,1,1-4.16-4.16A4.16,4.16,0,0,1,494.1,807.66Z"/><path class="cls-5" d="M439.2,820.15A4.17,4.17,0,1,1,435,816,4.16,4.16,0,0,1,439.2,820.15Z"/><path class="cls-5" d="M452.93,820.15a4.17,4.17,0,1,1-4.17-4.16A4.17,4.17,0,0,1,452.93,820.15Z"/><path class="cls-5" d="M466.65,820.15a4.17,4.17,0,1,1-4.16-4.16A4.16,4.16,0,0,1,466.65,820.15Z"/><path class="cls-5" d="M480.38,820.15a4.17,4.17,0,1,1-4.17-4.16A4.17,4.17,0,0,1,480.38,820.15Z"/><path class="cls-5" d="M494.1,820.15a4.17,4.17,0,1,1-4.16-4.16A4.16,4.16,0,0,1,494.1,820.15Z"/><rect class="cls-2" x="422.98" y="791.01" width="2.4" height="33.31"/><rect class="cls-4" x="285.19" y="722.85" width="215.37" height="49.74"/><rect class="cls-3" x="294.26" y="731.06" width="122.59" height="4.2"/><rect class="cls-3" x="294.26" y="738.34" width="122.59" height="4.2"/><rect class="cls-3" x="294.26" y="745.62" width="122.59" height="4.2"/><rect class="cls-3" x="294.26" y="752.89" width="122.59" height="4.2"/><rect class="cls-3" x="294.26" y="760.17" width="122.59" height="4.2"/><circle class="cls-5" cx="435.04" cy="735.22" r="4.16"/><path class="cls-5" d="M452.93,735.22a4.17,4.17,0,1,1-4.17-4.16A4.17,4.17,0,0,1,452.93,735.22Z"/><path class="cls-5" d="M466.65,735.22a4.17,4.17,0,1,1-4.16-4.16A4.17,4.17,0,0,1,466.65,735.22Z"/><path class="cls-5" d="M480.38,735.22a4.17,4.17,0,1,1-4.17-4.16A4.17,4.17,0,0,1,480.38,735.22Z"/><circle class="cls-5" cx="489.94" cy="735.22" r="4.16"/><circle class="cls-5" cx="435.04" cy="747.71" r="4.16"/><path class="cls-5" d="M452.93,747.71a4.17,4.17,0,1,1-4.17-4.16A4.17,4.17,0,0,1,452.93,747.71Z"/><path class="cls-5" d="M466.65,747.71a4.17,4.17,0,1,1-4.16-4.16A4.17,4.17,0,0,1,466.65,747.71Z"/><path class="cls-5" d="M480.38,747.71a4.17,4.17,0,1,1-4.17-4.16A4.17,4.17,0,0,1,480.38,747.71Z"/><circle class="cls-5" cx="489.94" cy="747.71" r="4.16"/><circle class="cls-5" cx="435.04" cy="760.2" r="4.16"/><path class="cls-5" d="M452.93,760.2a4.17,4.17,0,1,1-4.17-4.16A4.17,4.17,0,0,1,452.93,760.2Z"/><path class="cls-5" d="M466.65,760.2a4.17,4.17,0,1,1-4.16-4.16A4.17,4.17,0,0,1,466.65,760.2Z"/><path class="cls-5" d="M480.38,760.2a4.17,4.17,0,1,1-4.17-4.16A4.17,4.17,0,0,1,480.38,760.2Z"/><circle class="cls-5" cx="489.94" cy="760.2" r="4.16"/><rect class="cls-2" x="422.98" y="731.06" width="2.4" height="33.31"/><rect class="cls-4" x="285.19" y="662.9" width="215.37" height="49.74"/><rect class="cls-3" x="294.26" y="671.12" width="122.59" height="4.2"/><rect class="cls-3" x="294.26" y="678.39" width="122.59" height="4.2"/><rect class="cls-3" x="294.26" y="685.67" width="122.59" height="4.2"/><rect class="cls-3" x="294.26" y="692.95" width="122.59" height="4.2"/><rect class="cls-3" x="294.26" y="700.22" width="122.59" height="4.2"/><path class="cls-5" d="M439.2,675.28a4.17,4.17,0,1,1-4.16-4.16A4.16,4.16,0,0,1,439.2,675.28Z"/><path class="cls-5" d="M452.93,675.28a4.17,4.17,0,1,1-4.17-4.16A4.17,4.17,0,0,1,452.93,675.28Z"/><path class="cls-5" d="M466.65,675.28a4.17,4.17,0,1,1-4.16-4.16A4.16,4.16,0,0,1,466.65,675.28Z"/><path class="cls-5" d="M480.38,675.28a4.17,4.17,0,1,1-4.17-4.16A4.17,4.17,0,0,1,480.38,675.28Z"/><path class="cls-5" d="M494.1,675.28a4.17,4.17,0,1,1-4.16-4.16A4.16,4.16,0,0,1,494.1,675.28Z"/><path class="cls-5" d="M439.2,687.77a4.17,4.17,0,1,1-4.16-4.16A4.16,4.16,0,0,1,439.2,687.77Z"/><path class="cls-5" d="M452.93,687.77a4.17,4.17,0,1,1-4.17-4.16A4.17,4.17,0,0,1,452.93,687.77Z"/><path class="cls-5" d="M466.65,687.77a4.17,4.17,0,1,1-4.16-4.16A4.16,4.16,0,0,1,466.65,687.77Z"/><path class="cls-5" d="M480.38,687.77a4.17,4.17,0,1,1-4.17-4.16A4.17,4.17,0,0,1,480.38,687.77Z"/><path class="cls-5" d="M494.1,687.77a4.17,4.17,0,1,1-4.16-4.16A4.16,4.16,0,0,1,494.1,687.77Z"/><path class="cls-5" d="M439.2,700.26A4.17,4.17,0,1,1,435,696.1,4.16,4.16,0,0,1,439.2,700.26Z"/><path class="cls-5" d="M452.93,700.26a4.17,4.17,0,1,1-4.17-4.16A4.17,4.17,0,0,1,452.93,700.26Z"/><path class="cls-5" d="M466.65,700.26a4.17,4.17,0,1,1-4.16-4.16A4.16,4.16,0,0,1,466.65,700.26Z"/><path class="cls-5" d="M480.38,700.26a4.17,4.17,0,1,1-4.17-4.16A4.17,4.17,0,0,1,480.38,700.26Z"/><path class="cls-5" d="M494.1,700.26a4.17,4.17,0,1,1-4.16-4.16A4.16,4.16,0,0,1,494.1,700.26Z"/><rect class="cls-2" x="422.98" y="671.12" width="2.4" height="33.31"/><rect class="cls-4" x="285.19" y="602.95" width="215.37" height="49.74"/><rect class="cls-3" x="294.26" y="611.17" width="122.59" height="4.2"/><rect class="cls-3" x="294.26" y="618.45" width="122.59" height="4.2"/><rect class="cls-3" x="294.26" y="625.72" width="122.59" height="4.2"/><rect class="cls-3" x="294.26" y="633" width="122.59" height="4.2"/><rect class="cls-3" x="294.26" y="640.28" width="122.59" height="4.2"/><path class="cls-5" d="M439.2,615.33a4.17,4.17,0,1,1-4.16-4.16A4.17,4.17,0,0,1,439.2,615.33Z"/><path class="cls-5" d="M452.93,615.33a4.17,4.17,0,1,1-4.17-4.16A4.17,4.17,0,0,1,452.93,615.33Z"/><path class="cls-5" d="M466.65,615.33a4.17,4.17,0,1,1-4.16-4.16A4.17,4.17,0,0,1,466.65,615.33Z"/><path class="cls-5" d="M480.38,615.33a4.17,4.17,0,1,1-4.17-4.16A4.17,4.17,0,0,1,480.38,615.33Z"/><path class="cls-5" d="M494.1,615.33a4.17,4.17,0,1,1-4.16-4.16A4.17,4.17,0,0,1,494.1,615.33Z"/><path class="cls-5" d="M439.2,627.82a4.17,4.17,0,1,1-4.16-4.16A4.17,4.17,0,0,1,439.2,627.82Z"/><path class="cls-5" d="M452.93,627.82a4.17,4.17,0,1,1-4.17-4.16A4.17,4.17,0,0,1,452.93,627.82Z"/><path class="cls-5" d="M466.65,627.82a4.17,4.17,0,1,1-4.16-4.16A4.17,4.17,0,0,1,466.65,627.82Z"/><path class="cls-5" d="M480.38,627.82a4.17,4.17,0,1,1-4.17-4.16A4.17,4.17,0,0,1,480.38,627.82Z"/><path class="cls-5" d="M494.1,627.82a4.17,4.17,0,1,1-4.16-4.16A4.17,4.17,0,0,1,494.1,627.82Z"/><path class="cls-5" d="M439.2,640.31a4.17,4.17,0,1,1-4.16-4.16A4.17,4.17,0,0,1,439.2,640.31Z"/><path class="cls-5" d="M452.93,640.31a4.17,4.17,0,1,1-4.17-4.16A4.17,4.17,0,0,1,452.93,640.31Z"/><path class="cls-5" d="M466.65,640.31a4.17,4.17,0,1,1-4.16-4.16A4.17,4.17,0,0,1,466.65,640.31Z"/><path class="cls-5" d="M480.38,640.31a4.17,4.17,0,1,1-4.17-4.16A4.17,4.17,0,0,1,480.38,640.31Z"/><path class="cls-5" d="M494.1,640.31a4.17,4.17,0,1,1-4.16-4.16A4.17,4.17,0,0,1,494.1,640.31Z"/><rect class="cls-2" x="422.98" y="611.17" width="2.4" height="33.31"/><rect class="cls-4" x="285.19" y="543.01" width="215.37" height="49.74"/><rect class="cls-3" x="294.26" y="551.22" width="122.59" height="4.2"/><rect class="cls-3" x="294.26" y="558.5" width="122.59" height="4.2"/><rect class="cls-3" x="294.26" y="565.78" width="122.59" height="4.2"/><rect class="cls-3" x="294.26" y="573.06" width="122.59" height="4.2"/><rect class="cls-3" x="294.26" y="580.33" width="122.59" height="4.2"/><path class="cls-5" d="M439.2,555.39a4.17,4.17,0,1,1-4.16-4.17A4.16,4.16,0,0,1,439.2,555.39Z"/><path class="cls-5" d="M452.93,555.39a4.17,4.17,0,1,1-4.17-4.17A4.17,4.17,0,0,1,452.93,555.39Z"/><path class="cls-5" d="M466.65,555.39a4.17,4.17,0,1,1-4.16-4.17A4.16,4.16,0,0,1,466.65,555.39Z"/><path class="cls-5" d="M480.38,555.39a4.17,4.17,0,1,1-4.17-4.17A4.17,4.17,0,0,1,480.38,555.39Z"/><path class="cls-5" d="M494.1,555.39a4.17,4.17,0,1,1-4.16-4.17A4.16,4.16,0,0,1,494.1,555.39Z"/><path class="cls-5" d="M439.2,567.88a4.17,4.17,0,1,1-4.16-4.17A4.16,4.16,0,0,1,439.2,567.88Z"/><path class="cls-5" d="M452.93,567.88a4.17,4.17,0,1,1-4.17-4.17A4.17,4.17,0,0,1,452.93,567.88Z"/><path class="cls-5" d="M466.65,567.88a4.17,4.17,0,1,1-4.16-4.17A4.16,4.16,0,0,1,466.65,567.88Z"/><path class="cls-5" d="M480.38,567.88a4.17,4.17,0,1,1-4.17-4.17A4.17,4.17,0,0,1,480.38,567.88Z"/><path class="cls-5" d="M494.1,567.88a4.17,4.17,0,1,1-4.16-4.17A4.16,4.16,0,0,1,494.1,567.88Z"/><path class="cls-5" d="M439.2,580.37A4.17,4.17,0,1,1,435,576.2,4.16,4.16,0,0,1,439.2,580.37Z"/><path class="cls-5" d="M452.93,580.37a4.17,4.17,0,1,1-4.17-4.17A4.17,4.17,0,0,1,452.93,580.37Z"/><path class="cls-5" d="M466.65,580.37a4.17,4.17,0,1,1-4.16-4.17A4.16,4.16,0,0,1,466.65,580.37Z"/><path class="cls-5" d="M480.38,580.37a4.17,4.17,0,1,1-4.17-4.17A4.17,4.17,0,0,1,480.38,580.37Z"/><path class="cls-5" d="M494.1,580.37a4.17,4.17,0,1,1-4.16-4.17A4.16,4.16,0,0,1,494.1,580.37Z"/><rect class="cls-2" x="422.98" y="551.22" width="2.4" height="33.31"/><rect class="cls-4" x="285.19" y="483.06" width="215.37" height="49.74"/><rect class="cls-3" x="294.26" y="491.28" width="122.59" height="4.2"/><rect class="cls-3" x="294.26" y="498.56" width="122.59" height="4.2"/><rect class="cls-3" x="294.26" y="505.83" width="122.59" height="4.2"/><rect class="cls-3" x="294.26" y="513.11" width="122.59" height="4.2"/><rect class="cls-3" x="294.26" y="520.39" width="122.59" height="4.2"/><path class="cls-5" d="M439.2,495.44a4.17,4.17,0,1,1-4.16-4.16A4.17,4.17,0,0,1,439.2,495.44Z"/><path class="cls-5" d="M452.93,495.44a4.17,4.17,0,1,1-4.17-4.16A4.17,4.17,0,0,1,452.93,495.44Z"/><path class="cls-5" d="M466.65,495.44a4.17,4.17,0,1,1-4.16-4.16A4.17,4.17,0,0,1,466.65,495.44Z"/><path class="cls-5" d="M480.38,495.44a4.17,4.17,0,1,1-4.17-4.16A4.17,4.17,0,0,1,480.38,495.44Z"/><path class="cls-5" d="M494.1,495.44a4.17,4.17,0,1,1-4.16-4.16A4.17,4.17,0,0,1,494.1,495.44Z"/><path class="cls-5" d="M439.2,507.93a4.17,4.17,0,1,1-4.16-4.16A4.17,4.17,0,0,1,439.2,507.93Z"/><path class="cls-5" d="M452.93,507.93a4.17,4.17,0,1,1-4.17-4.16A4.17,4.17,0,0,1,452.93,507.93Z"/><path class="cls-5" d="M466.65,507.93a4.17,4.17,0,1,1-4.16-4.16A4.17,4.17,0,0,1,466.65,507.93Z"/><path class="cls-5" d="M480.38,507.93a4.17,4.17,0,1,1-4.17-4.16A4.17,4.17,0,0,1,480.38,507.93Z"/><path class="cls-5" d="M494.1,507.93a4.17,4.17,0,1,1-4.16-4.16A4.17,4.17,0,0,1,494.1,507.93Z"/><path class="cls-5" d="M439.2,520.42a4.17,4.17,0,1,1-4.16-4.16A4.17,4.17,0,0,1,439.2,520.42Z"/><path class="cls-5" d="M452.93,520.42a4.17,4.17,0,1,1-4.17-4.16A4.17,4.17,0,0,1,452.93,520.42Z"/><path class="cls-5" d="M466.65,520.42a4.17,4.17,0,1,1-4.16-4.16A4.17,4.17,0,0,1,466.65,520.42Z"/><path class="cls-5" d="M480.38,520.42a4.17,4.17,0,1,1-4.17-4.16A4.17,4.17,0,0,1,480.38,520.42Z"/><path class="cls-5" d="M494.1,520.42a4.17,4.17,0,1,1-4.16-4.16A4.17,4.17,0,0,1,494.1,520.42Z"/><rect class="cls-2" x="422.98" y="491.28" width="2.4" height="33.31"/><rect class="cls-4" x="285.19" y="423.12" width="215.37" height="49.74"/><rect class="cls-3" x="294.26" y="431.33" width="122.59" height="4.2"/><rect class="cls-3" x="294.26" y="438.61" width="122.59" height="4.2"/><rect class="cls-3" x="294.26" y="445.89" width="122.59" height="4.2"/><rect class="cls-3" x="294.26" y="453.16" width="122.59" height="4.2"/><rect class="cls-3" x="294.26" y="460.44" width="122.59" height="4.2"/><circle class="cls-5" cx="435.04" cy="435.5" r="4.16"/><path class="cls-5" d="M452.93,435.5a4.17,4.17,0,1,1-4.17-4.17A4.17,4.17,0,0,1,452.93,435.5Z"/><path class="cls-5" d="M466.65,435.5a4.17,4.17,0,1,1-4.16-4.17A4.16,4.16,0,0,1,466.65,435.5Z"/><path class="cls-5" d="M480.38,435.5a4.17,4.17,0,1,1-4.17-4.17A4.17,4.17,0,0,1,480.38,435.5Z"/><circle class="cls-5" cx="489.94" cy="435.5" r="4.16"/><circle class="cls-5" cx="435.04" cy="447.99" r="4.16"/><path class="cls-5" d="M452.93,448a4.17,4.17,0,1,1-4.17-4.17A4.17,4.17,0,0,1,452.93,448Z"/><path class="cls-5" d="M466.65,448a4.17,4.17,0,1,1-4.16-4.17A4.16,4.16,0,0,1,466.65,448Z"/><path class="cls-5" d="M480.38,448a4.17,4.17,0,1,1-4.17-4.17A4.17,4.17,0,0,1,480.38,448Z"/><circle class="cls-5" cx="489.94" cy="447.99" r="4.16"/><path class="cls-5" d="M439.2,460.48a4.17,4.17,0,1,1-4.16-4.17A4.16,4.16,0,0,1,439.2,460.48Z"/><path class="cls-5" d="M452.93,460.48a4.17,4.17,0,1,1-4.17-4.17A4.17,4.17,0,0,1,452.93,460.48Z"/><path class="cls-5" d="M466.65,460.48a4.17,4.17,0,1,1-4.16-4.17A4.16,4.16,0,0,1,466.65,460.48Z"/><path class="cls-5" d="M480.38,460.48a4.17,4.17,0,1,1-4.17-4.17A4.17,4.17,0,0,1,480.38,460.48Z"/><path class="cls-5" d="M494.1,460.48a4.17,4.17,0,1,1-4.16-4.17A4.16,4.16,0,0,1,494.1,460.48Z"/><rect class="cls-2" x="422.98" y="431.33" width="2.4" height="33.31"/><rect class="cls-4" x="285.19" y="363.17" width="215.37" height="49.74"/><rect class="cls-3" x="294.26" y="371.39" width="122.59" height="4.2"/><rect class="cls-3" x="294.26" y="378.66" width="122.59" height="4.2"/><rect class="cls-3" x="294.26" y="385.94" width="122.59" height="4.2"/><rect class="cls-3" x="294.26" y="393.22" width="122.59" height="4.2"/><rect class="cls-3" x="294.26" y="400.5" width="122.59" height="4.2"/><circle class="cls-5" cx="435.04" cy="375.55" r="4.16"/><path class="cls-5" d="M452.93,375.55a4.17,4.17,0,1,1-4.17-4.16A4.17,4.17,0,0,1,452.93,375.55Z"/><path class="cls-5" d="M466.65,375.55a4.17,4.17,0,1,1-4.16-4.16A4.16,4.16,0,0,1,466.65,375.55Z"/><path class="cls-5" d="M480.38,375.55a4.17,4.17,0,1,1-4.17-4.16A4.17,4.17,0,0,1,480.38,375.55Z"/><circle class="cls-5" cx="489.94" cy="375.55" r="4.16"/><path class="cls-5" d="M439.2,388a4.17,4.17,0,1,1-4.16-4.16A4.16,4.16,0,0,1,439.2,388Z"/><path class="cls-5" d="M452.93,388a4.17,4.17,0,1,1-4.17-4.16A4.17,4.17,0,0,1,452.93,388Z"/><path class="cls-5" d="M466.65,388a4.17,4.17,0,1,1-4.16-4.16A4.16,4.16,0,0,1,466.65,388Z"/><path class="cls-5" d="M480.38,388a4.17,4.17,0,1,1-4.17-4.16A4.17,4.17,0,0,1,480.38,388Z"/><path class="cls-5" d="M494.1,388a4.17,4.17,0,1,1-4.16-4.16A4.16,4.16,0,0,1,494.1,388Z"/><path class="cls-5" d="M439.2,400.53a4.17,4.17,0,1,1-4.16-4.16A4.16,4.16,0,0,1,439.2,400.53Z"/><path class="cls-5" d="M452.93,400.53a4.17,4.17,0,1,1-4.17-4.16A4.17,4.17,0,0,1,452.93,400.53Z"/><path class="cls-5" d="M466.65,400.53a4.17,4.17,0,1,1-4.16-4.16A4.16,4.16,0,0,1,466.65,400.53Z"/><path class="cls-5" d="M480.38,400.53a4.17,4.17,0,1,1-4.17-4.16A4.17,4.17,0,0,1,480.38,400.53Z"/><path class="cls-5" d="M494.1,400.53a4.17,4.17,0,1,1-4.16-4.16A4.16,4.16,0,0,1,494.1,400.53Z"/><rect class="cls-2" x="422.98" y="371.39" width="2.4" height="33.31"/><rect class="cls-4" x="181.53" y="312.16" width="283.9" height="15.77"/><rect class="cls-2" x="674.63" y="270.23" width="135.68" height="578.91"/><rect class="cls-3" x="810.31" y="270.23" width="249.7" height="578.91"/><rect class="cls-4" x="829.03" y="782.79" width="215.37" height="49.74"/><rect class="cls-3" x="838.1" y="791.01" width="122.59" height="4.2"/><rect class="cls-3" x="838.1" y="798.28" width="122.59" height="4.2"/><rect class="cls-3" x="838.1" y="805.56" width="122.59" height="4.2"/><rect class="cls-3" x="838.1" y="812.84" width="122.59" height="4.2"/><rect class="cls-3" x="838.1" y="820.12" width="122.59" height="4.2"/><rect class="cls-4" x="829.03" y="722.85" width="215.37" height="49.74"/><rect class="cls-3" x="838.1" y="731.06" width="122.59" height="4.2"/><rect class="cls-3" x="838.1" y="738.34" width="122.59" height="4.2"/><rect class="cls-3" x="838.1" y="745.62" width="122.59" height="4.2"/><rect class="cls-3" x="838.1" y="752.89" width="122.59" height="4.2"/><rect class="cls-3" x="838.1" y="760.17" width="122.59" height="4.2"/><rect class="cls-4" x="829.03" y="662.9" width="215.37" height="49.74"/><rect class="cls-3" x="838.1" y="671.12" width="122.59" height="4.2"/><rect class="cls-3" x="838.1" y="678.39" width="122.59" height="4.2"/><rect class="cls-3" x="838.1" y="685.67" width="122.59" height="4.2"/><rect class="cls-3" x="838.1" y="692.95" width="122.59" height="4.2"/><rect class="cls-3" x="838.1" y="700.22" width="122.59" height="4.2"/><rect class="cls-4" x="829.03" y="602.95" width="215.37" height="49.74"/><rect class="cls-3" x="838.1" y="611.17" width="122.59" height="4.2"/><rect class="cls-3" x="838.1" y="618.45" width="122.59" height="4.2"/><rect class="cls-3" x="838.1" y="625.72" width="122.59" height="4.2"/><rect class="cls-3" x="838.1" y="633" width="122.59" height="4.2"/><rect class="cls-3" x="838.1" y="640.28" width="122.59" height="4.2"/><rect class="cls-4" x="829.03" y="543.01" width="215.37" height="49.74"/><rect class="cls-3" x="838.1" y="551.22" width="122.59" height="4.2"/><rect class="cls-3" x="838.1" y="558.5" width="122.59" height="4.2"/><rect class="cls-3" x="838.1" y="565.78" width="122.59" height="4.2"/><rect class="cls-3" x="838.1" y="573.06" width="122.59" height="4.2"/><rect class="cls-3" x="838.1" y="580.33" width="122.59" height="4.2"/><rect class="cls-4" x="829.03" y="483.06" width="215.37" height="49.74"/><rect class="cls-3" x="838.1" y="491.28" width="122.59" height="4.2"/><rect class="cls-3" x="838.1" y="498.56" width="122.59" height="4.2"/><rect class="cls-3" x="838.1" y="505.83" width="122.59" height="4.2"/><rect class="cls-3" x="838.1" y="513.11" width="122.59" height="4.2"/><rect class="cls-3" x="838.1" y="520.39" width="122.59" height="4.2"/><rect class="cls-4" x="829.03" y="423.12" width="215.37" height="49.74"/><rect class="cls-3" x="838.1" y="431.33" width="122.59" height="4.2"/><rect class="cls-3" x="838.1" y="438.61" width="122.59" height="4.2"/><rect class="cls-3" x="838.1" y="445.89" width="122.59" height="4.2"/><rect class="cls-3" x="838.1" y="453.16" width="122.59" height="4.2"/><rect class="cls-3" x="838.1" y="460.44" width="122.59" height="4.2"/><rect class="cls-4" x="829.03" y="363.17" width="215.37" height="49.74"/><rect class="cls-3" x="838.1" y="371.39" width="122.59" height="4.2"/><rect class="cls-3" x="838.1" y="378.66" width="122.59" height="4.2"/><rect class="cls-3" x="838.1" y="385.94" width="122.59" height="4.2"/><rect class="cls-3" x="838.1" y="393.22" width="122.59" height="4.2"/><rect class="cls-3" x="838.1" y="400.5" width="122.59" height="4.2"/><rect class="cls-4" x="829.03" y="303.23" width="215.37" height="49.74"/><rect class="cls-3" x="838.1" y="311.44" width="122.59" height="4.2"/><rect class="cls-3" x="838.1" y="318.72" width="122.59" height="4.2"/><rect class="cls-3" x="838.1" y="326" width="122.59" height="4.2"/><rect class="cls-3" x="838.1" y="333.27" width="122.59" height="4.2"/><rect class="cls-3" x="838.1" y="340.55" width="122.59" height="4.2"/><rect class="cls-4" x="725.37" y="254.46" width="283.9" height="15.77"/><polygon class="cls-3" points="743 849.02 740.72 849.02 740.72 563.66 679.94 480.7 679.94 324.95 682.22 324.95 682.22 479.96 743 562.92 743 849.02"/><path class="cls-3" d="M681.08,326.18a6.54,6.54,0,1,1,6.54-6.54A6.55,6.55,0,0,1,681.08,326.18Zm0-10.8a4.26,4.26,0,1,0,4.26,4.26A4.27,4.27,0,0,0,681.08,315.38Z"/><polygon class="cls-3" points="727.34 849.02 725.07 849.02 725.07 573.68 664.29 490.73 664.29 381.79 666.56 381.79 666.56 489.98 727.34 572.94 727.34 849.02"/><path class="cls-3" d="M665.42,383a6.54,6.54,0,1,1,6.54-6.54A6.54,6.54,0,0,1,665.42,383Zm0-10.8a4.26,4.26,0,1,0,4.27,4.26A4.26,4.26,0,0,0,665.42,372.22Z"/><rect class="cls-3" x="755.8" y="470.63" width="2.27" height="378.39"/><path class="cls-3" d="M756.94,471.77a6.54,6.54,0,1,1,6.54-6.54A6.55,6.55,0,0,1,756.94,471.77Zm0-10.8a4.27,4.27,0,1,0,4.26,4.26A4.26,4.26,0,0,0,756.94,461Z"/><polygon class="cls-3" points="772.6 849.02 770.32 849.02 770.32 656.43 811.59 578.6 811.59 439.35 813.86 439.35 813.86 579.16 772.6 657 772.6 849.02"/><path class="cls-3" d="M812.73,440.49a6.54,6.54,0,1,1,6.53-6.54A6.55,6.55,0,0,1,812.73,440.49Zm0-10.8A4.26,4.26,0,1,0,817,434,4.27,4.27,0,0,0,812.73,429.69Z"/><polygon class="cls-3" points="787.03 849.02 784.76 849.02 784.76 664.73 833.41 578.68 833.41 487.09 835.68 487.09 835.68 579.28 787.03 665.33 787.03 849.02"/><path class="cls-3" d="M834.54,488.23a6.54,6.54,0,1,1,6.54-6.54A6.55,6.55,0,0,1,834.54,488.23Zm0-10.81a4.27,4.27,0,1,0,4.27,4.27A4.27,4.27,0,0,0,834.54,477.42Z"/><polygon class="cls-6" points="326.6 206.5 224.7 233.15 190.5 102.35 266.16 82.56 292.39 75.7 298.91 100.63 326.6 206.5"/><rect class="cls-4" x="205.22" y="110.79" width="85.8" height="3.47" transform="translate(516.64 158.61) rotate(165.35)"/><rect class="cls-4" x="207.44" y="119.26" width="85.8" height="3.47" transform="translate(523.14 174.73) rotate(165.35)"/><rect class="cls-4" x="209.66" y="127.74" width="85.8" height="3.47" transform="translate(529.65 190.85) rotate(165.35)"/><rect class="cls-4" x="211.87" y="136.22" width="85.8" height="3.47" transform="matrix(-0.97, 0.25, -0.25, -0.97, 536.16, 206.96)"/><rect class="cls-4" x="214.09" y="144.7" width="85.8" height="3.47" transform="translate(542.66 223.08) rotate(165.35)"/><rect class="cls-4" x="216.31" y="153.17" width="85.8" height="3.47" transform="matrix(-0.97, 0.25, -0.25, -0.97, 549.17, 239.2)"/><rect class="cls-4" x="218.52" y="161.65" width="85.8" height="3.47" transform="translate(555.68 255.32) rotate(165.35)"/><rect class="cls-4" x="220.74" y="170.13" width="85.8" height="3.47" transform="translate(562.18 271.44) rotate(165.35)"/><rect class="cls-4" x="222.96" y="178.61" width="85.8" height="3.47" transform="translate(568.69 287.56) rotate(165.35)"/><rect class="cls-4" x="225.18" y="187.08" width="85.8" height="3.47" transform="translate(575.2 303.68) rotate(165.35)"/><rect class="cls-4" x="227.39" y="195.56" width="85.8" height="3.47" transform="matrix(-0.97, 0.25, -0.25, -0.97, 581.7, 319.8)"/><rect class="cls-4" x="229.61" y="204.04" width="85.8" height="3.47" transform="translate(588.21 335.91) rotate(165.35)"/><polygon class="cls-6" points="353.66 244.24 248.5 250.12 240.95 115.14 319.03 110.77 347.54 134.97 353.66 244.24"/><polygon class="cls-7" points="319.03 110.77 347.54 134.97 320.47 136.49 319.03 110.77"/><rect class="cls-4" x="252.53" y="135.57" width="58.56" height="3.47" transform="translate(570.84 258.66) rotate(176.8)"/><rect class="cls-4" x="253.02" y="144.32" width="58.56" height="3.47" transform="translate(572.31 276.12) rotate(176.8)"/><rect class="cls-4" x="253.51" y="153.07" width="58.56" height="3.47" transform="translate(573.77 293.57) rotate(176.8)"/><rect class="cls-4" x="253.97" y="161.06" width="85.8" height="3.47" transform="translate(602.38 308.75) rotate(176.8)"/><rect class="cls-4" x="254.46" y="169.81" width="85.8" height="3.47" transform="translate(603.84 326.21) rotate(176.8)"/><rect class="cls-4" x="254.95" y="178.56" width="85.8" height="3.47" transform="translate(605.31 343.66) rotate(176.8)"/><rect class="cls-4" x="255.44" y="187.31" width="85.8" height="3.47" transform="translate(606.78 361.12) rotate(176.8)"/><rect class="cls-4" x="255.93" y="196.06" width="85.8" height="3.47" transform="translate(608.24 378.58) rotate(176.8)"/><rect class="cls-4" x="256.42" y="204.8" width="85.8" height="3.47" transform="translate(609.71 396.04) rotate(176.8)"/><rect class="cls-4" x="256.91" y="213.55" width="85.8" height="3.47" transform="translate(611.18 413.49) rotate(176.8)"/><rect class="cls-4" x="257.4" y="222.3" width="85.8" height="3.47" transform="translate(612.65 430.95) rotate(176.8)"/><rect class="cls-4" x="257.89" y="231.05" width="85.8" height="3.47" transform="translate(614.11 448.41) rotate(176.8)"/><polygon class="cls-6" points="582.33 136.08 683.21 210.33 732.79 142.81 631.91 68.56 582.33 136.08"/><polygon class="cls-5" points="589.61 134.96 682.11 203.05 725.51 143.93 633.01 75.84 589.61 134.96"/><path class="cls-6" d="M627.86,100.45a12.5,12.5,0,1,0,17.48-2.66A12.5,12.5,0,0,0,627.86,100.45Z"/><polygon class="cls-6" points="618.26 156.19 681.98 203.09 681.91 136.46 618.26 156.19"/><polygon class="cls-3" points="593.27 137.83 645.88 176.55 640.27 129.07 593.27 137.83"/><polygon class="cls-6" points="509.7 158.69 625.45 206.54 657.37 129.09 541.62 81.24 509.7 158.69"/><polygon class="cls-5" points="516.5 155.85 622.64 199.73 650.57 131.92 544.43 88.04 516.5 155.85"/><path class="cls-4" d="M545.34,113.16a12.5,12.5,0,1,0,16.33-6.77A12.5,12.5,0,0,0,545.34,113.16Z"/><polygon class="cls-6" points="549.41 169.58 622.53 199.81 606.45 135.15 549.41 169.58"/><polygon class="cls-3" points="520.74 157.76 581.1 182.71 564.26 137.97 520.74 157.76"/><rect class="cls-7" x="675.74" y="337.55" width="135.68" height="511.6" transform="translate(1487.17 1186.69) rotate(180)"/><rect class="cls-6" x="426.05" y="337.55" width="249.7" height="511.6" transform="translate(1101.79 1186.69) rotate(180)"/><rect class="cls-6" x="441.65" y="782.79" width="215.37" height="49.74" transform="translate(1098.67 1615.32) rotate(180)"/><rect class="cls-6" x="525.36" y="791.01" width="122.59" height="4.2" transform="translate(1173.32 1586.21) rotate(180)"/><rect class="cls-6" x="525.36" y="798.28" width="122.59" height="4.2" transform="translate(1173.32 1600.77) rotate(180)"/><rect class="cls-6" x="525.36" y="805.56" width="122.59" height="4.2" transform="translate(1173.32 1615.32) rotate(180)"/><rect class="cls-6" x="525.36" y="812.84" width="122.59" height="4.2" transform="translate(1173.32 1629.87) rotate(180)"/><rect class="cls-6" x="525.36" y="820.12" width="122.59" height="4.2" transform="translate(1173.32 1644.43) rotate(180)"/><path class="cls-8" d="M503,795.17a4.16,4.16,0,1,0,4.16-4.16A4.16,4.16,0,0,0,503,795.17Z"/><path class="cls-8" d="M489.29,795.17a4.17,4.17,0,1,0,4.16-4.16A4.16,4.16,0,0,0,489.29,795.17Z"/><path class="cls-8" d="M475.56,795.17a4.17,4.17,0,1,0,4.17-4.16A4.17,4.17,0,0,0,475.56,795.17Z"/><path class="cls-3" d="M461.84,795.17A4.17,4.17,0,1,0,466,791,4.16,4.16,0,0,0,461.84,795.17Z"/><path class="cls-8" d="M448.12,795.17a4.16,4.16,0,1,0,4.16-4.16A4.16,4.16,0,0,0,448.12,795.17Z"/><path class="cls-3" d="M503,807.66a4.16,4.16,0,1,0,4.16-4.16A4.16,4.16,0,0,0,503,807.66Z"/><path class="cls-8" d="M489.29,807.66a4.17,4.17,0,1,0,4.16-4.16A4.16,4.16,0,0,0,489.29,807.66Z"/><path class="cls-8" d="M475.56,807.66a4.17,4.17,0,1,0,4.17-4.16A4.17,4.17,0,0,0,475.56,807.66Z"/><path class="cls-3" d="M461.84,807.66A4.17,4.17,0,1,0,466,803.5,4.16,4.16,0,0,0,461.84,807.66Z"/><path class="cls-3" d="M448.12,807.66a4.16,4.16,0,1,0,4.16-4.16A4.16,4.16,0,0,0,448.12,807.66Z"/><path class="cls-8" d="M503,820.15a4.16,4.16,0,1,0,4.16-4.16A4.16,4.16,0,0,0,503,820.15Z"/><path class="cls-3" d="M489.29,820.15a4.17,4.17,0,1,0,4.16-4.16A4.16,4.16,0,0,0,489.29,820.15Z"/><path class="cls-8" d="M475.56,820.15a4.17,4.17,0,1,0,4.17-4.16A4.17,4.17,0,0,0,475.56,820.15Z"/><path class="cls-8" d="M461.84,820.15A4.17,4.17,0,1,0,466,816,4.16,4.16,0,0,0,461.84,820.15Z"/><path class="cls-8" d="M448.12,820.15a4.16,4.16,0,1,0,4.16-4.16A4.16,4.16,0,0,0,448.12,820.15Z"/><rect class="cls-7" x="516.84" y="791.01" width="2.4" height="33.31" transform="translate(1036.08 1615.32) rotate(180)"/><rect class="cls-6" x="441.65" y="722.85" width="215.37" height="49.74" transform="translate(1098.67 1495.43) rotate(180)"/><rect class="cls-6" x="525.36" y="731.06" width="122.59" height="4.2" transform="translate(1173.32 1466.32) rotate(180)"/><rect class="cls-6" x="525.36" y="738.34" width="122.59" height="4.2" transform="translate(1173.32 1480.87) rotate(180)"/><rect class="cls-6" x="525.36" y="745.62" width="122.59" height="4.2" transform="translate(1173.32 1495.43) rotate(180)"/><rect class="cls-6" x="525.36" y="752.89" width="122.59" height="4.2" transform="translate(1173.32 1509.98) rotate(180)"/><rect class="cls-6" x="525.36" y="760.17" width="122.59" height="4.2" transform="translate(1173.32 1524.54) rotate(180)"/><path class="cls-3" d="M503,735.22a4.16,4.16,0,1,0,4.16-4.16A4.17,4.17,0,0,0,503,735.22Z"/><circle class="cls-8" cx="493.45" cy="735.22" r="4.16"/><circle class="cls-8" cx="479.73" cy="735.22" r="4.16"/><path class="cls-3" d="M461.84,735.22a4.17,4.17,0,1,0,4.16-4.16A4.17,4.17,0,0,0,461.84,735.22Z"/><path class="cls-8" d="M448.12,735.22a4.16,4.16,0,1,0,4.16-4.16A4.17,4.17,0,0,0,448.12,735.22Z"/><path class="cls-8" d="M503,747.71a4.16,4.16,0,1,0,4.16-4.16A4.17,4.17,0,0,0,503,747.71Z"/><circle class="cls-8" cx="493.45" cy="747.71" r="4.16"/><circle class="cls-3" cx="479.73" cy="747.71" r="4.16"/><path class="cls-3" d="M461.84,747.71a4.17,4.17,0,1,0,4.16-4.16A4.17,4.17,0,0,0,461.84,747.71Z"/><path class="cls-8" d="M448.12,747.71a4.16,4.16,0,1,0,4.16-4.16A4.17,4.17,0,0,0,448.12,747.71Z"/><path class="cls-8" d="M503,760.2a4.16,4.16,0,1,0,4.16-4.16A4.17,4.17,0,0,0,503,760.2Z"/><circle class="cls-3" cx="493.45" cy="760.2" r="4.16"/><circle class="cls-8" cx="479.73" cy="760.2" r="4.16"/><path class="cls-8" d="M461.84,760.2A4.17,4.17,0,1,0,466,756,4.17,4.17,0,0,0,461.84,760.2Z"/><path class="cls-3" d="M448.12,760.2a4.16,4.16,0,1,0,4.16-4.16A4.17,4.17,0,0,0,448.12,760.2Z"/><rect class="cls-7" x="516.84" y="731.06" width="2.4" height="33.31" transform="translate(1036.08 1495.43) rotate(180)"/><rect class="cls-6" x="441.65" y="662.9" width="215.37" height="49.74" transform="translate(1098.67 1375.54) rotate(180)"/><rect class="cls-6" x="525.36" y="671.12" width="122.59" height="4.2" transform="translate(1173.32 1346.43) rotate(180)"/><rect class="cls-6" x="525.36" y="678.39" width="122.59" height="4.2" transform="translate(1173.32 1360.98) rotate(180)"/><rect class="cls-6" x="525.36" y="685.67" width="122.59" height="4.2" transform="translate(1173.32 1375.54) rotate(180)"/><rect class="cls-6" x="525.36" y="692.95" width="122.59" height="4.2" transform="translate(1173.32 1390.09) rotate(180)"/><rect class="cls-6" x="525.36" y="700.22" width="122.59" height="4.2" transform="translate(1173.32 1404.65) rotate(180)"/><path class="cls-3" d="M503,675.28a4.16,4.16,0,1,0,4.16-4.16A4.16,4.16,0,0,0,503,675.28Z"/><path class="cls-8" d="M489.29,675.28a4.17,4.17,0,1,0,4.16-4.16A4.16,4.16,0,0,0,489.29,675.28Z"/><path class="cls-3" d="M475.56,675.28a4.17,4.17,0,1,0,4.17-4.16A4.17,4.17,0,0,0,475.56,675.28Z"/><path class="cls-8" d="M461.84,675.28a4.17,4.17,0,1,0,4.16-4.16A4.16,4.16,0,0,0,461.84,675.28Z"/><path class="cls-8" d="M448.12,675.28a4.16,4.16,0,1,0,4.16-4.16A4.16,4.16,0,0,0,448.12,675.28Z"/><path class="cls-8" d="M503,687.77a4.16,4.16,0,1,0,4.16-4.16A4.16,4.16,0,0,0,503,687.77Z"/><path class="cls-3" d="M489.29,687.77a4.17,4.17,0,1,0,4.16-4.16A4.16,4.16,0,0,0,489.29,687.77Z"/><path class="cls-3" d="M475.56,687.77a4.17,4.17,0,1,0,4.17-4.16A4.17,4.17,0,0,0,475.56,687.77Z"/><path class="cls-8" d="M461.84,687.77a4.17,4.17,0,1,0,4.16-4.16A4.16,4.16,0,0,0,461.84,687.77Z"/><path class="cls-3" d="M448.12,687.77a4.16,4.16,0,1,0,4.16-4.16A4.16,4.16,0,0,0,448.12,687.77Z"/><path class="cls-3" d="M503,700.26a4.16,4.16,0,1,0,4.16-4.16A4.16,4.16,0,0,0,503,700.26Z"/><path class="cls-8" d="M489.29,700.26a4.17,4.17,0,1,0,4.16-4.16A4.16,4.16,0,0,0,489.29,700.26Z"/><path class="cls-8" d="M475.56,700.26a4.17,4.17,0,1,0,4.17-4.16A4.17,4.17,0,0,0,475.56,700.26Z"/><path class="cls-3" d="M461.84,700.26A4.17,4.17,0,1,0,466,696.1,4.16,4.16,0,0,0,461.84,700.26Z"/><path class="cls-8" d="M448.12,700.26a4.16,4.16,0,1,0,4.16-4.16A4.16,4.16,0,0,0,448.12,700.26Z"/><rect class="cls-7" x="516.84" y="671.12" width="2.4" height="33.31" transform="translate(1036.08 1375.54) rotate(180)"/><rect class="cls-6" x="441.65" y="602.95" width="215.37" height="49.74" transform="translate(1098.67 1255.65) rotate(180)"/><rect class="cls-6" x="525.36" y="611.17" width="122.59" height="4.2" transform="translate(1173.32 1226.54) rotate(180)"/><rect class="cls-6" x="525.36" y="618.45" width="122.59" height="4.2" transform="translate(1173.32 1241.09) rotate(180)"/><rect class="cls-6" x="525.36" y="625.72" width="122.59" height="4.2" transform="translate(1173.32 1255.65) rotate(180)"/><rect class="cls-6" x="525.36" y="633" width="122.59" height="4.2" transform="translate(1173.32 1270.2) rotate(180)"/><rect class="cls-6" x="525.36" y="640.28" width="122.59" height="4.2" transform="translate(1173.32 1284.76) rotate(180)"/><path class="cls-8" d="M503,615.33a4.16,4.16,0,1,0,4.16-4.16A4.17,4.17,0,0,0,503,615.33Z"/><path class="cls-8" d="M489.29,615.33a4.17,4.17,0,1,0,4.16-4.16A4.17,4.17,0,0,0,489.29,615.33Z"/><path class="cls-8" d="M475.56,615.33a4.17,4.17,0,1,0,4.17-4.16A4.17,4.17,0,0,0,475.56,615.33Z"/><path class="cls-8" d="M461.84,615.33a4.17,4.17,0,1,0,4.16-4.16A4.17,4.17,0,0,0,461.84,615.33Z"/><path class="cls-3" d="M448.12,615.33a4.16,4.16,0,1,0,4.16-4.16A4.17,4.17,0,0,0,448.12,615.33Z"/><path class="cls-3" d="M503,627.82a4.16,4.16,0,1,0,4.16-4.16A4.17,4.17,0,0,0,503,627.82Z"/><path class="cls-3" d="M489.29,627.82a4.17,4.17,0,1,0,4.16-4.16A4.17,4.17,0,0,0,489.29,627.82Z"/><path class="cls-8" d="M475.56,627.82a4.17,4.17,0,1,0,4.17-4.16A4.17,4.17,0,0,0,475.56,627.82Z"/><path class="cls-3" d="M461.84,627.82a4.17,4.17,0,1,0,4.16-4.16A4.17,4.17,0,0,0,461.84,627.82Z"/><path class="cls-8" d="M448.12,627.82a4.16,4.16,0,1,0,4.16-4.16A4.17,4.17,0,0,0,448.12,627.82Z"/><path class="cls-8" d="M503,640.31a4.16,4.16,0,1,0,4.16-4.16A4.17,4.17,0,0,0,503,640.31Z"/><path class="cls-8" d="M489.29,640.31a4.17,4.17,0,1,0,4.16-4.16A4.17,4.17,0,0,0,489.29,640.31Z"/><path class="cls-3" d="M475.56,640.31a4.17,4.17,0,1,0,4.17-4.16A4.17,4.17,0,0,0,475.56,640.31Z"/><path class="cls-8" d="M461.84,640.31a4.17,4.17,0,1,0,4.16-4.16A4.17,4.17,0,0,0,461.84,640.31Z"/><path class="cls-3" d="M448.12,640.31a4.16,4.16,0,1,0,4.16-4.16A4.17,4.17,0,0,0,448.12,640.31Z"/><rect class="cls-7" x="516.84" y="611.17" width="2.4" height="33.31" transform="translate(1036.08 1255.65) rotate(180)"/><rect class="cls-6" x="441.65" y="543.01" width="215.37" height="49.74" transform="translate(1098.67 1135.76) rotate(180)"/><rect class="cls-6" x="525.36" y="551.22" width="122.59" height="4.2" transform="translate(1173.32 1106.65) rotate(180)"/><rect class="cls-6" x="525.36" y="558.5" width="122.59" height="4.2" transform="translate(1173.32 1121.2) rotate(180)"/><rect class="cls-6" x="525.36" y="565.78" width="122.59" height="4.2" transform="translate(1173.32 1135.75) rotate(180)"/><rect class="cls-6" x="525.36" y="573.06" width="122.59" height="4.2" transform="translate(1173.32 1150.31) rotate(180)"/><rect class="cls-6" x="525.36" y="580.33" width="122.59" height="4.2" transform="translate(1173.32 1164.86) rotate(180)"/><path class="cls-8" d="M503,555.39a4.16,4.16,0,1,0,4.16-4.17A4.16,4.16,0,0,0,503,555.39Z"/><path class="cls-8" d="M489.29,555.39a4.17,4.17,0,1,0,4.16-4.17A4.16,4.16,0,0,0,489.29,555.39Z"/><path class="cls-8" d="M475.56,555.39a4.17,4.17,0,1,0,4.17-4.17A4.17,4.17,0,0,0,475.56,555.39Z"/><path class="cls-8" d="M461.84,555.39a4.17,4.17,0,1,0,4.16-4.17A4.16,4.16,0,0,0,461.84,555.39Z"/><path class="cls-3" d="M448.12,555.39a4.16,4.16,0,1,0,4.16-4.17A4.16,4.16,0,0,0,448.12,555.39Z"/><path class="cls-3" d="M503,567.88a4.16,4.16,0,1,0,4.16-4.17A4.16,4.16,0,0,0,503,567.88Z"/><path class="cls-8" d="M489.29,567.88a4.17,4.17,0,1,0,4.16-4.17A4.16,4.16,0,0,0,489.29,567.88Z"/><path class="cls-8" d="M475.56,567.88a4.17,4.17,0,1,0,4.17-4.17A4.17,4.17,0,0,0,475.56,567.88Z"/><path class="cls-3" d="M461.84,567.88a4.17,4.17,0,1,0,4.16-4.17A4.16,4.16,0,0,0,461.84,567.88Z"/><path class="cls-8" d="M448.12,567.88a4.16,4.16,0,1,0,4.16-4.17A4.16,4.16,0,0,0,448.12,567.88Z"/><path class="cls-3" d="M503,580.37a4.16,4.16,0,1,0,4.16-4.17A4.16,4.16,0,0,0,503,580.37Z"/><path class="cls-3" d="M489.29,580.37a4.17,4.17,0,1,0,4.16-4.17A4.16,4.16,0,0,0,489.29,580.37Z"/><path class="cls-8" d="M475.56,580.37a4.17,4.17,0,1,0,4.17-4.17A4.17,4.17,0,0,0,475.56,580.37Z"/><path class="cls-8" d="M461.84,580.37A4.17,4.17,0,1,0,466,576.2,4.16,4.16,0,0,0,461.84,580.37Z"/><path class="cls-3" d="M448.12,580.37a4.16,4.16,0,1,0,4.16-4.17A4.16,4.16,0,0,0,448.12,580.37Z"/><rect class="cls-7" x="516.84" y="551.22" width="2.4" height="33.31" transform="translate(1036.08 1135.76) rotate(180)"/><rect class="cls-6" x="441.65" y="483.06" width="215.37" height="49.74" transform="translate(1098.67 1015.86) rotate(180)"/><rect class="cls-6" x="525.36" y="491.28" width="122.59" height="4.2" transform="translate(1173.32 986.76) rotate(180)"/><rect class="cls-6" x="525.36" y="498.56" width="122.59" height="4.2" transform="translate(1173.32 1001.31) rotate(180)"/><rect class="cls-6" x="525.36" y="505.83" width="122.59" height="4.2" transform="translate(1173.32 1015.86) rotate(180)"/><rect class="cls-6" x="525.36" y="513.11" width="122.59" height="4.2" transform="translate(1173.32 1030.42) rotate(180)"/><rect class="cls-6" x="525.36" y="520.39" width="122.59" height="4.2" transform="translate(1173.32 1044.97) rotate(180)"/><path class="cls-3" d="M503,495.44a4.16,4.16,0,1,0,4.16-4.16A4.17,4.17,0,0,0,503,495.44Z"/><path class="cls-8" d="M489.29,495.44a4.17,4.17,0,1,0,4.16-4.16A4.17,4.17,0,0,0,489.29,495.44Z"/><path class="cls-8" d="M475.56,495.44a4.17,4.17,0,1,0,4.17-4.16A4.17,4.17,0,0,0,475.56,495.44Z"/><path class="cls-3" d="M461.84,495.44a4.17,4.17,0,1,0,4.16-4.16A4.17,4.17,0,0,0,461.84,495.44Z"/><path class="cls-8" d="M448.12,495.44a4.16,4.16,0,1,0,4.16-4.16A4.17,4.17,0,0,0,448.12,495.44Z"/><path class="cls-8" d="M503,507.93a4.16,4.16,0,1,0,4.16-4.16A4.17,4.17,0,0,0,503,507.93Z"/><path class="cls-3" d="M489.29,507.93a4.17,4.17,0,1,0,4.16-4.16A4.17,4.17,0,0,0,489.29,507.93Z"/><path class="cls-8" d="M475.56,507.93a4.17,4.17,0,1,0,4.17-4.16A4.17,4.17,0,0,0,475.56,507.93Z"/><path class="cls-8" d="M461.84,507.93a4.17,4.17,0,1,0,4.16-4.16A4.17,4.17,0,0,0,461.84,507.93Z"/><path class="cls-3" d="M448.12,507.93a4.16,4.16,0,1,0,4.16-4.16A4.17,4.17,0,0,0,448.12,507.93Z"/><path class="cls-8" d="M503,520.42a4.16,4.16,0,1,0,4.16-4.16A4.17,4.17,0,0,0,503,520.42Z"/><path class="cls-8" d="M489.29,520.42a4.17,4.17,0,1,0,4.16-4.16A4.17,4.17,0,0,0,489.29,520.42Z"/><path class="cls-3" d="M475.56,520.42a4.17,4.17,0,1,0,4.17-4.16A4.17,4.17,0,0,0,475.56,520.42Z"/><path class="cls-3" d="M461.84,520.42a4.17,4.17,0,1,0,4.16-4.16A4.17,4.17,0,0,0,461.84,520.42Z"/><path class="cls-8" d="M448.12,520.42a4.16,4.16,0,1,0,4.16-4.16A4.17,4.17,0,0,0,448.12,520.42Z"/><rect class="cls-7" x="516.84" y="491.28" width="2.4" height="33.31" transform="translate(1036.08 1015.86) rotate(180)"/><rect class="cls-6" x="441.65" y="363.17" width="215.37" height="49.74" transform="translate(1098.67 776.08) rotate(180)"/><rect class="cls-6" x="525.36" y="371.39" width="122.59" height="4.2" transform="translate(1173.32 746.97) rotate(180)"/><rect class="cls-6" x="525.36" y="378.66" width="122.59" height="4.2" transform="translate(1173.32 761.53) rotate(180)"/><rect class="cls-6" x="525.36" y="385.94" width="122.59" height="4.2" transform="translate(1173.32 776.08) rotate(180)"/><rect class="cls-6" x="525.36" y="393.22" width="122.59" height="4.2" transform="translate(1173.32 790.64) rotate(180)"/><rect class="cls-6" x="525.36" y="400.5" width="122.59" height="4.2" transform="translate(1173.32 805.19) rotate(180)"/><path class="cls-8" d="M503,375.55a4.16,4.16,0,1,0,4.16-4.16A4.16,4.16,0,0,0,503,375.55Z"/><circle class="cls-3" cx="493.45" cy="375.55" r="4.16"/><circle class="cls-8" cx="479.73" cy="375.55" r="4.16"/><path class="cls-3" d="M461.84,375.55a4.17,4.17,0,1,0,4.16-4.16A4.16,4.16,0,0,0,461.84,375.55Z"/><path class="cls-8" d="M448.12,375.55a4.16,4.16,0,1,0,4.16-4.16A4.16,4.16,0,0,0,448.12,375.55Z"/><path class="cls-8" d="M503,388a4.16,4.16,0,1,0,4.16-4.16A4.16,4.16,0,0,0,503,388Z"/><path class="cls-8" d="M489.29,388a4.17,4.17,0,1,0,4.16-4.16A4.16,4.16,0,0,0,489.29,388Z"/><path class="cls-8" d="M475.56,388a4.17,4.17,0,1,0,4.17-4.16A4.17,4.17,0,0,0,475.56,388Z"/><path class="cls-8" d="M461.84,388a4.17,4.17,0,1,0,4.16-4.16A4.16,4.16,0,0,0,461.84,388Z"/><path class="cls-3" d="M448.12,388a4.16,4.16,0,1,0,4.16-4.16A4.16,4.16,0,0,0,448.12,388Z"/><path class="cls-8" d="M503,400.53a4.16,4.16,0,1,0,4.16-4.16A4.16,4.16,0,0,0,503,400.53Z"/><path class="cls-3" d="M489.29,400.53a4.17,4.17,0,1,0,4.16-4.16A4.16,4.16,0,0,0,489.29,400.53Z"/><path class="cls-8" d="M475.56,400.53a4.17,4.17,0,1,0,4.17-4.16A4.17,4.17,0,0,0,475.56,400.53Z"/><path class="cls-8" d="M461.84,400.53a4.17,4.17,0,1,0,4.16-4.16A4.16,4.16,0,0,0,461.84,400.53Z"/><path class="cls-8" d="M448.12,400.53a4.16,4.16,0,1,0,4.16-4.16A4.16,4.16,0,0,0,448.12,400.53Z"/><rect class="cls-7" x="516.84" y="371.39" width="2.4" height="33.31" transform="translate(1036.08 776.08) rotate(180)"/><rect class="cls-6" x="476.79" y="321.78" width="283.9" height="15.77" transform="translate(1237.47 659.33) rotate(180)"/><rect class="cls-7" x="168.21" y="528.41" width="205.5" height="308.02"/><rect class="cls-6" x="134.29" y="799.11" width="239.41" height="49.74" transform="translate(508 1647.95) rotate(180)"/><rect class="cls-6" x="218" y="807.32" width="146.63" height="4.2" transform="translate(582.64 1618.84) rotate(180)"/><rect class="cls-6" x="218" y="814.6" width="146.63" height="4.2" transform="translate(582.64 1633.4) rotate(180)"/><rect class="cls-6" x="218" y="821.88" width="146.63" height="4.2" transform="translate(582.64 1647.95) rotate(180)"/><rect class="cls-6" x="218" y="829.15" width="146.63" height="4.2" transform="translate(582.64 1662.5) rotate(180)"/><rect class="cls-6" x="218" y="836.43" width="146.63" height="4.2" transform="translate(582.64 1677.06) rotate(180)"/><path class="cls-5" d="M195.66,811.48a4.16,4.16,0,1,0,4.16-4.16A4.17,4.17,0,0,0,195.66,811.48Z"/><path class="cls-7" d="M181.93,811.48a4.17,4.17,0,1,0,4.16-4.16A4.17,4.17,0,0,0,181.93,811.48Z"/><path class="cls-5" d="M168.21,811.48a4.16,4.16,0,1,0,4.16-4.16A4.17,4.17,0,0,0,168.21,811.48Z"/><path class="cls-5" d="M154.48,811.48a4.17,4.17,0,1,0,4.17-4.16A4.17,4.17,0,0,0,154.48,811.48Z"/><path class="cls-7" d="M140.76,811.48a4.16,4.16,0,1,0,4.16-4.16A4.17,4.17,0,0,0,140.76,811.48Z"/><path class="cls-7" d="M195.66,824a4.16,4.16,0,1,0,4.16-4.16A4.17,4.17,0,0,0,195.66,824Z"/><path class="cls-5" d="M181.93,824a4.17,4.17,0,1,0,4.16-4.16A4.17,4.17,0,0,0,181.93,824Z"/><path class="cls-7" d="M168.21,824a4.16,4.16,0,1,0,4.16-4.16A4.17,4.17,0,0,0,168.21,824Z"/><path class="cls-5" d="M154.48,824a4.17,4.17,0,1,0,4.17-4.16A4.17,4.17,0,0,0,154.48,824Z"/><path class="cls-7" d="M140.76,824a4.16,4.16,0,1,0,4.16-4.16A4.17,4.17,0,0,0,140.76,824Z"/><path class="cls-7" d="M195.66,836.46a4.16,4.16,0,1,0,4.16-4.16A4.17,4.17,0,0,0,195.66,836.46Z"/><path class="cls-5" d="M181.93,836.46a4.17,4.17,0,1,0,4.16-4.16A4.17,4.17,0,0,0,181.93,836.46Z"/><path class="cls-5" d="M168.21,836.46a4.16,4.16,0,1,0,4.16-4.16A4.17,4.17,0,0,0,168.21,836.46Z"/><path class="cls-5" d="M154.48,836.46a4.17,4.17,0,1,0,4.17-4.16A4.17,4.17,0,0,0,154.48,836.46Z"/><path class="cls-5" d="M140.76,836.46a4.16,4.16,0,1,0,4.16-4.16A4.17,4.17,0,0,0,140.76,836.46Z"/><rect class="cls-7" x="209.48" y="807.32" width="2.4" height="33.31" transform="translate(421.36 1647.95) rotate(180)"/><rect class="cls-7" x="373.71" y="799.11" width="43.53" height="49.74"/><rect class="cls-6" x="134.29" y="741.56" width="239.41" height="49.74" transform="translate(508 1532.87) rotate(180)"/><rect class="cls-6" x="218" y="749.78" width="146.63" height="4.2" transform="translate(582.64 1503.76) rotate(180)"/><rect class="cls-6" x="218" y="757.06" width="146.63" height="4.2" transform="translate(582.64 1518.31) rotate(180)"/><rect class="cls-6" x="218" y="764.33" width="146.63" height="4.2" transform="translate(582.64 1532.87) rotate(180)"/><rect class="cls-6" x="218" y="771.61" width="146.63" height="4.2" transform="translate(582.64 1547.42) rotate(180)"/><rect class="cls-6" x="218" y="778.89" width="146.63" height="4.2" transform="translate(582.64 1561.98) rotate(180)"/><path class="cls-7" d="M195.66,753.94a4.16,4.16,0,1,0,4.16-4.16A4.17,4.17,0,0,0,195.66,753.94Z"/><circle class="cls-5" cx="186.09" cy="753.94" r="4.16"/><circle class="cls-5" cx="172.37" cy="753.94" r="4.16"/><path class="cls-5" d="M154.48,753.94a4.17,4.17,0,1,0,4.17-4.16A4.17,4.17,0,0,0,154.48,753.94Z"/><path class="cls-7" d="M140.76,753.94a4.16,4.16,0,1,0,4.16-4.16A4.17,4.17,0,0,0,140.76,753.94Z"/><path class="cls-5" d="M195.66,766.43a4.16,4.16,0,1,0,4.16-4.16A4.17,4.17,0,0,0,195.66,766.43Z"/><path class="cls-7" d="M181.93,766.43a4.17,4.17,0,1,0,4.16-4.16A4.17,4.17,0,0,0,181.93,766.43Z"/><path class="cls-7" d="M168.21,766.43a4.16,4.16,0,1,0,4.16-4.16A4.17,4.17,0,0,0,168.21,766.43Z"/><path class="cls-7" d="M154.48,766.43a4.17,4.17,0,1,0,4.17-4.16A4.17,4.17,0,0,0,154.48,766.43Z"/><path class="cls-5" d="M140.76,766.43a4.16,4.16,0,1,0,4.16-4.16A4.17,4.17,0,0,0,140.76,766.43Z"/><path class="cls-5" d="M195.66,778.92a4.16,4.16,0,1,0,4.16-4.16A4.17,4.17,0,0,0,195.66,778.92Z"/><circle class="cls-5" cx="186.09" cy="778.92" r="4.16"/><circle class="cls-7" cx="172.37" cy="778.92" r="4.16"/><path class="cls-5" d="M154.48,778.92a4.17,4.17,0,1,0,4.17-4.16A4.17,4.17,0,0,0,154.48,778.92Z"/><path class="cls-5" d="M140.76,778.92a4.16,4.16,0,1,0,4.16-4.16A4.17,4.17,0,0,0,140.76,778.92Z"/><rect class="cls-7" x="209.48" y="749.78" width="2.4" height="33.31" transform="translate(421.36 1532.87) rotate(180)"/><rect class="cls-7" x="373.71" y="741.56" width="43.53" height="49.74"/><rect class="cls-6" x="134.29" y="681.62" width="239.41" height="49.74" transform="translate(508 1412.98) rotate(180)"/><rect class="cls-6" x="218" y="689.83" width="146.63" height="4.2" transform="translate(582.64 1383.87) rotate(180)"/><rect class="cls-6" x="218" y="697.11" width="146.63" height="4.2" transform="translate(582.64 1398.42) rotate(180)"/><rect class="cls-6" x="218" y="704.39" width="146.63" height="4.2" transform="translate(582.64 1412.98) rotate(180)"/><rect class="cls-6" x="218" y="711.67" width="146.63" height="4.2" transform="translate(582.64 1427.53) rotate(180)"/><rect class="cls-6" x="218" y="718.94" width="146.63" height="4.2" transform="translate(582.64 1442.08) rotate(180)"/><path class="cls-7" d="M195.66,694a4.16,4.16,0,1,0,4.16-4.17A4.16,4.16,0,0,0,195.66,694Z"/><path class="cls-5" d="M181.93,694a4.17,4.17,0,1,0,4.16-4.17A4.16,4.16,0,0,0,181.93,694Z"/><path class="cls-5" d="M168.21,694a4.16,4.16,0,1,0,4.16-4.17A4.16,4.16,0,0,0,168.21,694Z"/><path class="cls-5" d="M154.48,694a4.17,4.17,0,1,0,4.17-4.17A4.17,4.17,0,0,0,154.48,694Z"/><path class="cls-7" d="M140.76,694a4.16,4.16,0,1,0,4.16-4.17A4.16,4.16,0,0,0,140.76,694Z"/><path class="cls-5" d="M195.66,706.49a4.16,4.16,0,1,0,4.16-4.17A4.16,4.16,0,0,0,195.66,706.49Z"/><path class="cls-5" d="M181.93,706.49a4.17,4.17,0,1,0,4.16-4.17A4.16,4.16,0,0,0,181.93,706.49Z"/><path class="cls-7" d="M168.21,706.49a4.16,4.16,0,1,0,4.16-4.17A4.16,4.16,0,0,0,168.21,706.49Z"/><path class="cls-7" d="M154.48,706.49a4.17,4.17,0,1,0,4.17-4.17A4.17,4.17,0,0,0,154.48,706.49Z"/><path class="cls-5" d="M140.76,706.49a4.16,4.16,0,1,0,4.16-4.17A4.16,4.16,0,0,0,140.76,706.49Z"/><path class="cls-7" d="M195.66,719a4.16,4.16,0,1,0,4.16-4.17A4.16,4.16,0,0,0,195.66,719Z"/><path class="cls-5" d="M181.93,719a4.17,4.17,0,1,0,4.16-4.17A4.16,4.16,0,0,0,181.93,719Z"/><path class="cls-5" d="M168.21,719a4.16,4.16,0,1,0,4.16-4.17A4.16,4.16,0,0,0,168.21,719Z"/><path class="cls-5" d="M154.48,719a4.17,4.17,0,1,0,4.17-4.17A4.17,4.17,0,0,0,154.48,719Z"/><path class="cls-7" d="M140.76,719a4.16,4.16,0,1,0,4.16-4.17A4.16,4.16,0,0,0,140.76,719Z"/><rect class="cls-7" x="209.48" y="689.83" width="2.4" height="33.31" transform="translate(421.36 1412.98) rotate(180)"/><rect class="cls-7" x="373.71" y="681.62" width="43.53" height="49.74"/><rect class="cls-6" x="134.29" y="621.67" width="239.41" height="49.74" transform="translate(508 1293.08) rotate(180)"/><rect class="cls-6" x="218" y="629.89" width="146.63" height="4.2" transform="translate(582.64 1263.98) rotate(180)"/><rect class="cls-6" x="218" y="637.17" width="146.63" height="4.2" transform="translate(582.64 1278.53) rotate(180)"/><rect class="cls-6" x="218" y="644.44" width="146.63" height="4.2" transform="translate(582.64 1293.09) rotate(180)"/><rect class="cls-6" x="218" y="651.72" width="146.63" height="4.2" transform="translate(582.64 1307.64) rotate(180)"/><rect class="cls-6" x="218" y="659" width="146.63" height="4.2" transform="translate(582.64 1322.19) rotate(180)"/><path class="cls-5" d="M195.66,634.05a4.16,4.16,0,1,0,4.16-4.16A4.17,4.17,0,0,0,195.66,634.05Z"/><path class="cls-7" d="M181.93,634.05a4.17,4.17,0,1,0,4.16-4.16A4.17,4.17,0,0,0,181.93,634.05Z"/><path class="cls-5" d="M168.21,634.05a4.16,4.16,0,1,0,4.16-4.16A4.17,4.17,0,0,0,168.21,634.05Z"/><path class="cls-5" d="M154.48,634.05a4.17,4.17,0,1,0,4.17-4.16A4.17,4.17,0,0,0,154.48,634.05Z"/><path class="cls-7" d="M140.76,634.05a4.16,4.16,0,1,0,4.16-4.16A4.17,4.17,0,0,0,140.76,634.05Z"/><path class="cls-5" d="M195.66,646.54a4.16,4.16,0,1,0,4.16-4.16A4.17,4.17,0,0,0,195.66,646.54Z"/><path class="cls-5" d="M181.93,646.54a4.17,4.17,0,1,0,4.16-4.16A4.17,4.17,0,0,0,181.93,646.54Z"/><path class="cls-7" d="M168.21,646.54a4.16,4.16,0,1,0,4.16-4.16A4.17,4.17,0,0,0,168.21,646.54Z"/><path class="cls-7" d="M154.48,646.54a4.17,4.17,0,1,0,4.17-4.16A4.17,4.17,0,0,0,154.48,646.54Z"/><path class="cls-5" d="M140.76,646.54a4.16,4.16,0,1,0,4.16-4.16A4.17,4.17,0,0,0,140.76,646.54Z"/><path class="cls-7" d="M195.66,659a4.16,4.16,0,1,0,4.16-4.16A4.17,4.17,0,0,0,195.66,659Z"/><path class="cls-5" d="M181.93,659a4.17,4.17,0,1,0,4.16-4.16A4.17,4.17,0,0,0,181.93,659Z"/><path class="cls-5" d="M168.21,659a4.16,4.16,0,1,0,4.16-4.16A4.17,4.17,0,0,0,168.21,659Z"/><path class="cls-7" d="M154.48,659a4.17,4.17,0,1,0,4.17-4.16A4.17,4.17,0,0,0,154.48,659Z"/><path class="cls-5" d="M140.76,659a4.16,4.16,0,1,0,4.16-4.16A4.17,4.17,0,0,0,140.76,659Z"/><rect class="cls-7" x="209.48" y="629.89" width="2.4" height="33.31" transform="translate(421.36 1293.08) rotate(180)"/><rect class="cls-7" x="373.71" y="621.67" width="43.53" height="49.74"/><rect class="cls-6" x="134.29" y="561.73" width="239.41" height="49.74" transform="translate(508 1173.19) rotate(180)"/><rect class="cls-6" x="218" y="569.94" width="146.63" height="4.2" transform="translate(582.64 1144.09) rotate(180)"/><rect class="cls-6" x="218" y="577.22" width="146.63" height="4.2" transform="translate(582.64 1158.64) rotate(180)"/><rect class="cls-6" x="218" y="584.5" width="146.63" height="4.2" transform="translate(582.64 1173.19) rotate(180)"/><rect class="cls-6" x="218" y="591.78" width="146.63" height="4.2" transform="translate(582.64 1187.75) rotate(180)"/><rect class="cls-6" x="218" y="599.05" width="146.63" height="4.2" transform="translate(582.64 1202.3) rotate(180)"/><path class="cls-5" d="M195.66,574.11a4.16,4.16,0,1,0,4.16-4.17A4.16,4.16,0,0,0,195.66,574.11Z"/><path class="cls-5" d="M181.93,574.11a4.17,4.17,0,1,0,4.16-4.17A4.16,4.16,0,0,0,181.93,574.11Z"/><path class="cls-5" d="M168.21,574.11a4.16,4.16,0,1,0,4.16-4.17A4.16,4.16,0,0,0,168.21,574.11Z"/><path class="cls-7" d="M154.48,574.11a4.17,4.17,0,1,0,4.17-4.17A4.17,4.17,0,0,0,154.48,574.11Z"/><path class="cls-5" d="M140.76,574.11a4.16,4.16,0,1,0,4.16-4.17A4.16,4.16,0,0,0,140.76,574.11Z"/><path class="cls-7" d="M195.66,586.6a4.16,4.16,0,1,0,4.16-4.17A4.16,4.16,0,0,0,195.66,586.6Z"/><path class="cls-5" d="M181.93,586.6a4.17,4.17,0,1,0,4.16-4.17A4.16,4.16,0,0,0,181.93,586.6Z"/><path class="cls-7" d="M168.21,586.6a4.16,4.16,0,1,0,4.16-4.17A4.16,4.16,0,0,0,168.21,586.6Z"/><path class="cls-5" d="M154.48,586.6a4.17,4.17,0,1,0,4.17-4.17A4.17,4.17,0,0,0,154.48,586.6Z"/><path class="cls-5" d="M140.76,586.6a4.16,4.16,0,1,0,4.16-4.17A4.16,4.16,0,0,0,140.76,586.6Z"/><path class="cls-5" d="M195.66,599.09a4.16,4.16,0,1,0,4.16-4.17A4.16,4.16,0,0,0,195.66,599.09Z"/><path class="cls-7" d="M181.93,599.09a4.17,4.17,0,1,0,4.16-4.17A4.16,4.16,0,0,0,181.93,599.09Z"/><path class="cls-5" d="M168.21,599.09a4.16,4.16,0,1,0,4.16-4.17A4.16,4.16,0,0,0,168.21,599.09Z"/><path class="cls-5" d="M154.48,599.09a4.17,4.17,0,1,0,4.17-4.17A4.17,4.17,0,0,0,154.48,599.09Z"/><path class="cls-7" d="M140.76,599.09a4.16,4.16,0,1,0,4.16-4.17A4.16,4.16,0,0,0,140.76,599.09Z"/><rect class="cls-7" x="209.48" y="569.94" width="2.4" height="33.31" transform="translate(421.36 1173.19) rotate(180)"/><rect class="cls-7" x="373.71" y="561.73" width="43.53" height="49.74"/><rect class="cls-6" x="134.29" y="501.78" width="239.41" height="49.74" transform="translate(508 1053.3) rotate(180)"/><rect class="cls-6" x="218" y="510" width="146.63" height="4.2" transform="translate(582.64 1024.19) rotate(180)"/><rect class="cls-6" x="218" y="517.28" width="146.63" height="4.2" transform="translate(582.64 1038.75) rotate(180)"/><rect class="cls-6" x="218" y="524.55" width="146.63" height="4.2" transform="translate(582.64 1053.3) rotate(180)"/><rect class="cls-6" x="218" y="531.83" width="146.63" height="4.2" transform="translate(582.64 1067.86) rotate(180)"/><rect class="cls-6" x="218" y="539.11" width="146.63" height="4.2" transform="translate(582.64 1082.41) rotate(180)"/><path class="cls-7" d="M195.66,514.16a4.16,4.16,0,1,0,4.16-4.16A4.16,4.16,0,0,0,195.66,514.16Z"/><path class="cls-7" d="M181.93,514.16a4.17,4.17,0,1,0,4.16-4.16A4.16,4.16,0,0,0,181.93,514.16Z"/><path class="cls-5" d="M168.21,514.16a4.16,4.16,0,1,0,4.16-4.16A4.16,4.16,0,0,0,168.21,514.16Z"/><path class="cls-7" d="M154.48,514.16a4.17,4.17,0,1,0,4.17-4.16A4.17,4.17,0,0,0,154.48,514.16Z"/><path class="cls-5" d="M140.76,514.16a4.16,4.16,0,1,0,4.16-4.16A4.16,4.16,0,0,0,140.76,514.16Z"/><path class="cls-5" d="M195.66,526.65a4.16,4.16,0,1,0,4.16-4.16A4.16,4.16,0,0,0,195.66,526.65Z"/><path class="cls-5" d="M181.93,526.65a4.17,4.17,0,1,0,4.16-4.16A4.16,4.16,0,0,0,181.93,526.65Z"/><path class="cls-7" d="M168.21,526.65a4.16,4.16,0,1,0,4.16-4.16A4.16,4.16,0,0,0,168.21,526.65Z"/><path class="cls-5" d="M154.48,526.65a4.17,4.17,0,1,0,4.17-4.16A4.17,4.17,0,0,0,154.48,526.65Z"/><path class="cls-7" d="M140.76,526.65a4.16,4.16,0,1,0,4.16-4.16A4.16,4.16,0,0,0,140.76,526.65Z"/><path class="cls-5" d="M195.66,539.14a4.16,4.16,0,1,0,4.16-4.16A4.16,4.16,0,0,0,195.66,539.14Z"/><path class="cls-7" d="M181.93,539.14a4.17,4.17,0,1,0,4.16-4.16A4.16,4.16,0,0,0,181.93,539.14Z"/><path class="cls-5" d="M168.21,539.14a4.16,4.16,0,1,0,4.16-4.16A4.16,4.16,0,0,0,168.21,539.14Z"/><path class="cls-5" d="M154.48,539.14a4.17,4.17,0,1,0,4.17-4.16A4.17,4.17,0,0,0,154.48,539.14Z"/><path class="cls-5" d="M140.76,539.14a4.16,4.16,0,1,0,4.16-4.16A4.16,4.16,0,0,0,140.76,539.14Z"/><rect class="cls-7" x="209.48" y="510" width="2.4" height="33.31" transform="translate(421.36 1053.3) rotate(180)"/><rect class="cls-7" x="373.71" y="501.78" width="43.53" height="49.74"/><path class="cls-8" d="M295.51,241.56a46.14,46.14,0,0,0,42.71,46v.13H599.61a54.24,54.24,0,0,0,5.07-108.25,91.4,91.4,0,0,0-177.13-28.58,53.53,53.53,0,0,0-24.25-5.74A54.23,54.23,0,0,0,349.16,196a45.1,45.1,0,0,0-7.5-.62A46.15,46.15,0,0,0,295.51,241.56Z"/><path class="cls-9" d="M295.51,241.56a46.14,46.14,0,0,0,42.71,46v.13H599.61a54.24,54.24,0,0,0,5.07-108.25,91.4,91.4,0,0,0-177.13-28.58,53.53,53.53,0,0,0-24.25-5.74A54.23,54.23,0,0,0,349.16,196a45.1,45.1,0,0,0-7.5-.62A46.15,46.15,0,0,0,295.51,241.56Z"/><path class="cls-8" d="M269.44,241.56a46.15,46.15,0,0,0,42.72,46v.13H573.54a54.24,54.24,0,0,0,5.07-108.25,91.39,91.39,0,0,0-177.12-28.58,53.53,53.53,0,0,0-24.25-5.74A54.22,54.22,0,0,0,323.1,196a45.31,45.31,0,0,0-7.51-.62A46.16,46.16,0,0,0,269.44,241.56Z"/><rect class="cls-5" x="425.03" y="208.79" width="47.18" height="40.5"/><polygon class="cls-5" points="408.83 208.79 488.39 208.79 448.61 169.1 408.83 208.79"/><rect class="cls-8" x="741.33" y="612.9" width="2.27" height="9.16"/><rect class="cls-8" x="741.33" y="628.93" width="2.27" height="9.16"/><rect class="cls-8" x="741.33" y="596.88" width="2.27" height="9.16"/><rect class="cls-8" x="741.33" y="580.85" width="2.27" height="9.16"/><rect class="cls-8" x="741.33" y="532.76" width="2.27" height="9.16"/><rect class="cls-8" x="741.33" y="564.82" width="2.27" height="9.16"/><rect class="cls-8" x="741.33" y="548.79" width="2.27" height="9.16"/><rect class="cls-8" x="741.33" y="516.74" width="2.27" height="9.16"/><path class="cls-8" d="M716.38,239.48a42.6,42.6,0,0,1,7.67,4.53l1.35-1.83a45.19,45.19,0,0,0-8.07-4.77Z"/><rect class="cls-8" x="741.33" y="644.96" width="2.27" height="9.16"/><rect class="cls-8" x="685.37" y="233.35" width="9.16" height="2.27"/><path class="cls-8" d="M701.33,235.7a43.44,43.44,0,0,1,8.78,1.48l.61-2.19a45.18,45.18,0,0,0-9.25-1.56Z"/><rect class="cls-8" x="741.33" y="660.99" width="2.27" height="9.16"/><path class="cls-8" d="M739.86,260.34l-2.08.91a42.77,42.77,0,0,1,2.69,8.49l2.23-.46A45.14,45.14,0,0,0,739.86,260.34Z"/><path class="cls-8" d="M729.09,248.4a43.09,43.09,0,0,1,5.54,7l1.92-1.22a45.26,45.26,0,0,0-5.84-7.34Z"/><rect class="cls-8" x="741.33" y="308.37" width="2.27" height="9.16"/><rect class="cls-8" x="741.33" y="356.46" width="2.27" height="9.16"/><rect class="cls-8" x="741.33" y="372.49" width="2.27" height="9.16"/><rect class="cls-8" x="741.33" y="500.71" width="2.27" height="9.16"/><path class="cls-8" d="M743.56,276.27l-2.27.1c0,.65,0,1.3,0,2v7.15h2.28v-7.14C743.61,277.64,743.59,277,743.56,276.27Z"/><rect class="cls-8" x="741.33" y="388.51" width="2.27" height="9.16"/><rect class="cls-8" x="741.33" y="324.4" width="2.27" height="9.16"/><rect class="cls-8" x="741.33" y="292.35" width="2.27" height="9.16"/><rect class="cls-8" x="741.33" y="340.43" width="2.27" height="9.16"/><rect class="cls-8" x="741.33" y="468.65" width="2.27" height="9.16"/><rect class="cls-8" x="741.33" y="484.68" width="2.27" height="9.16"/><rect class="cls-8" x="741.33" y="452.63" width="2.27" height="9.16"/><rect class="cls-8" x="741.33" y="436.6" width="2.27" height="9.16"/><rect class="cls-8" x="741.33" y="420.57" width="2.27" height="9.16"/><rect class="cls-8" x="741.33" y="404.54" width="2.27" height="9.16"/><rect class="cls-8" x="741.33" y="677.06" width="2.27" height="4.55"/><path class="cls-8" d="M677,238.76a4.28,4.28,0,1,1,4.28-4.28A4.28,4.28,0,0,1,677,238.76Z"/><circle class="cls-8" cx="742.47" cy="681.4" r="4.27"/><g id="u5Zjqx"><path class="cls-5" d="M717.11,618.22l-3.6,3.58-2,2.05c-9.68-9.39-21.2-14.4-34.69-14.4s-25,5-34.75,14.44c-.64-.67-1.29-1.36-1.95-2-1.18-1.2-2.37-2.39-3.55-3.58l-.11-.06v-.08c.09-.08.18-.14.26-.22,1.52-1.35,3-2.74,4.56-4a56.24,56.24,0,0,1,24.49-11.41c2.31-.42,4.65-.64,7-.92.79-.1,5.95-.12,6.1-.11,1.59.12,3.18.19,4.76.36a54.26,54.26,0,0,1,12.81,3.06,56.83,56.83,0,0,1,8.66,4,55.26,55.26,0,0,1,8.27,5.79c1.29,1.11,2.53,2.28,3.8,3.43Z"/><path class="cls-5" d="M653.45,635.17l-5.69-5.65a40.08,40.08,0,0,1,23.16-11.62c13.47-1.82,25,2.27,34.83,11.54L700,635.13a33,33,0,0,0-46.58,0Z"/><path class="cls-5" d="M694.35,640.85l-5.67,5.66a16.82,16.82,0,0,0-23.86,0l-5.65-5.65A24.73,24.73,0,0,1,694.35,640.85Z"/><path class="cls-5" d="M681.87,651.65a5.12,5.12,0,1,1-5.12-5.11A5.12,5.12,0,0,1,681.87,651.65Z"/></g><rect class="cls-6" x="351.57" y="423.12" width="215.37" height="49.74" transform="translate(918.5 895.97) rotate(180)"/><rect class="cls-6" x="435.28" y="431.33" width="122.59" height="4.2" transform="translate(993.15 866.86) rotate(180)"/><rect class="cls-6" x="435.28" y="438.61" width="122.59" height="4.2" transform="translate(993.15 881.42) rotate(180)"/><rect class="cls-6" x="435.28" y="445.89" width="122.59" height="4.2" transform="translate(993.15 895.97) rotate(180)"/><rect class="cls-6" x="435.28" y="453.16" width="122.59" height="4.2" transform="translate(993.15 910.53) rotate(180)"/><rect class="cls-6" x="435.28" y="460.44" width="122.59" height="4.2" transform="translate(993.15 925.08) rotate(180)"/><circle class="cls-8" cx="417.09" cy="435.5" r="4.16"/><circle class="cls-8" cx="403.37" cy="435.5" r="4.16"/><circle class="cls-8" cx="389.64" cy="435.5" r="4.16"/><path class="cls-8" d="M371.76,435.5a4.16,4.16,0,1,0,4.16-4.17A4.16,4.16,0,0,0,371.76,435.5Z"/><path class="cls-3" d="M358,435.5a4.17,4.17,0,1,0,4.16-4.17A4.16,4.16,0,0,0,358,435.5Z"/><circle class="cls-8" cx="417.09" cy="447.99" r="4.16"/><circle class="cls-3" cx="403.37" cy="447.99" r="4.16"/><circle class="cls-8" cx="389.64" cy="447.99" r="4.16"/><path class="cls-8" d="M371.76,448a4.16,4.16,0,1,0,4.16-4.17A4.16,4.16,0,0,0,371.76,448Z"/><path class="cls-3" d="M358,448a4.17,4.17,0,1,0,4.16-4.17A4.16,4.16,0,0,0,358,448Z"/><path class="cls-8" d="M412.93,460.48a4.17,4.17,0,1,0,4.16-4.17A4.16,4.16,0,0,0,412.93,460.48Z"/><path class="cls-8" d="M399.21,460.48a4.16,4.16,0,1,0,4.16-4.17A4.16,4.16,0,0,0,399.21,460.48Z"/><path class="cls-8" d="M385.48,460.48a4.17,4.17,0,1,0,4.16-4.17A4.16,4.16,0,0,0,385.48,460.48Z"/><path class="cls-3" d="M371.76,460.48a4.16,4.16,0,1,0,4.16-4.17A4.16,4.16,0,0,0,371.76,460.48Z"/><path class="cls-8" d="M358,460.48a4.17,4.17,0,1,0,4.16-4.17A4.16,4.16,0,0,0,358,460.48Z"/><rect class="cls-7" x="426.76" y="431.33" width="2.4" height="33.31" transform="translate(855.91 895.97) rotate(180)"/><rect class="cls-7" x="566.94" y="423.12" width="48.08" height="49.74" transform="translate(1181.96 895.97) rotate(180)"/><path class="cls-10" d="M335.21,926.72C341,929,510.33,932,517,928.25c.72-.43.52-7.9,3-27.23.13-.92,4-4.5,10-9.56,22.64-19,75.84-59,75.84-59l-84.48-73.4-81.87,80.47-21.29,20.92s-69.17,37.35-76,42.29S329.38,924.47,335.21,926.72Z"/><path class="cls-3" d="M335.21,926.71C341.05,929,510.34,932,517,928.25c.71-.42.51-7.89,3-27.23.12-.92,4-4.49,10-9.57,7.87-6.6,11.61-9.61,23.32-18.73L445.9,833.23l-6.43,6.33-21.29,20.93s-69.17,37.33-76,42.27S329.38,924.47,335.21,926.71Z"/><path class="cls-8" d="M323.55,929.05c5.88,2,186.25,4,192.74,0,1.53-.94,2.93-11.41,4.05-25.77.14-1.79,18.41-16.4,20.91-19.1L430.72,847l-14,13.13s-81.34,37.85-88,43S317.67,927,323.55,929.05Z"/><path class="cls-7" d="M326.05,922.32c28.34-.37,154,.84,182.08,2.63.23,0,.22.17,0,.18-28.08,1-153.77-1.16-182.09-2.35C325.45,922.76,325.45,922.33,326.05,922.32Z"/><path class="cls-7" d="M407.75,861.3c11.17-1.95,24.78-.08,33.21,8,.33.31-.12.77-.48.65a157.46,157.46,0,0,0-32.71-7.21A.71.71,0,0,1,407.75,861.3Z"/><path class="cls-7" d="M399.64,866.05c11.17-1.95,24.79-.08,33.22,8,.32.32-.13.77-.49.66a156.59,156.59,0,0,0-32.7-7.21A.71.71,0,0,1,399.64,866.05Z"/><path class="cls-7" d="M391.54,870.81c11.17-1.95,24.79-.08,33.21,8,.33.31-.12.77-.48.65a156.71,156.71,0,0,0-32.7-7.2A.71.71,0,0,1,391.54,870.81Z"/><path class="cls-7" d="M383.44,875.56c11.17-1.95,24.78-.08,33.21,8,.33.32-.12.78-.48.66A156.82,156.82,0,0,0,383.46,877,.71.71,0,0,1,383.44,875.56Z"/><path class="cls-7" d="M392.27,851.21c7.81,6.22,18.05,8.85,27.21,12.36.95.37,1.72-.52,1.77-1.37a.3.3,0,0,0,.26-.4,59.47,59.47,0,0,0-16.87-25.73c-4.61-4-12.73-6.78-17.18-.8C383.25,840.93,387.71,847.58,392.27,851.21Zm-2.74-9c-1.82-12.26,11.24-5.68,14.52-2.63a63.67,63.67,0,0,1,5.83,6.46c3.81,4.67,6.88,9.8,10.19,14.81-4.4-2-8.93-3.61-13.39-5.45C401.35,853.21,390.54,849,389.53,842.21Z"/><path class="cls-7" d="M458.93,845.25c-2.62-7-11.2-6.54-16.73-4a59.47,59.47,0,0,0-23.36,20,.3.3,0,0,0,.15.46,1.38,1.38,0,0,0,1.31,1.8c9.79-.83,20.35-.51,29.58-4.32C455.27,857,461.4,851.86,458.93,845.25Zm-24.05,14c-4.8.52-9.6.81-14.38,1.52,4.56-3.9,8.94-8,13.9-11.41a64.49,64.49,0,0,1,7.39-4.58c4-2,18.37-4.71,13.22,6.55C452.17,857.54,440.6,858.62,434.88,859.25Z"/><path class="cls-6" d="M438.3,835.06l104.44,54.12S651.53,790.69,661.49,790c9.68-.71,156.33,98.58,230,98.89,76.31.32,80.17-79.64,80.17-79.64L860.36,783.65c-80.25-39.55-163.84-110.58-218.52-104C582.47,686.89,438.3,835.06,438.3,835.06Z"/><path class="cls-7" d="M463.81,821.28c17.63,8.71,12.69,6,30.22,14.88,8.59,4.35,51.77,26.14,59.1,31.54a.19.19,0,0,1-.18.33c-8.63-2.88-51.33-25.6-59.83-30.11-17.37-9.22-12.29-6.75-29.56-16.16A.27.27,0,1,1,463.81,821.28Z"/><path class="cls-7" d="M561.23,864.23c20.42-18,87.31-76.61,90-78.79,2.18-1.75,4.39-4,7-5.22,2.19-1,4.35-.46,6.44.52,3.09,1.44,6.12,3,9.19,4.52L692,794.1c23.4,11.42,46.66,23.14,70.24,34.18,22.67,10.62,38.85,20.62,62.53,28.78s47.89,14.3,72.65,17.32c3,.37,6.11.69,9.17,1,.22,0,.22.36,0,.35-24.32-1.18-48.26-6.16-71.49-13.3-23.46-7.21-39.38-16.57-61.66-26.83-23.09-10.62-45.85-22-68.61-33.3-12-6-24-12-36.06-17.9-2.73-1.34-6.62-4.24-9.74-2.81a17.34,17.34,0,0,0-3.61,2.66l-4,3.33c-5.17,4.3-87.16,74.92-89.85,77C561.31,864.67,561,864.4,561.23,864.23Z"/><path class="cls-6" d="M971.9,809.22s12.49,72.2-23.62,100.56-300.59,25-340.72,12S566.18,844,610.05,829c41.72-14.27,219.25-21.21,223.63-22.95,1.09-.44-15.75-10.54-15.67-11.15l40.39-12.35Z"/><path class="cls-7" d="M917.1,807.4c0-.31.53-.21.53.08A35.69,35.69,0,0,0,926,830.42c6.14,7.09,15.21,11.07,23.42,15.22.79.4.19,1.63-.63,1.39a72.63,72.63,0,0,1-14.5-6.25,35.23,35.23,0,0,1-10.91-9.07A31.21,31.21,0,0,1,917.1,807.4Z"/><path class="cls-7" d="M836.58,798.45c1.84-2.34,3.83-4.57,5.74-6.84,4.53-5.38,9.07-10.78,13.81-16,.44-.49,1.32.2.91.74-3.19,4.17-6.57,8.21-9.89,12.28q-2.55,3.12-5.14,6.23c-1.6,1.93-3.59,3.85-4.79,6.08s.39,4.29,2.79,4.55c2.15.23,4.13-.87,5.77-2.13,3.74-2.86,6.69-7,9.8-10.47,1.9-2.14,3.8-4.28,5.74-6.39s4.24-4.39,6.29-6.63c.13-.15.39.05.27.22-1.79,2.45-3.44,5-5.24,7.48s-3.61,4.9-5.46,7.31-3.57,4.53-5.44,6.72a22.18,22.18,0,0,1-5.51,4.94c-3.43,2-9.39,2.45-11.22-2C834.11,802.4,835.24,800.17,836.58,798.45Z"/><path class="cls-7" d="M613.05,922c13.82.26,27.63,1.06,41.45,1.36s27.41.37,41.12.24q41.31-.39,82.53-3.21c27.76-1.92,57.7-4.69,85.27-8.51,13.2-1.82,26.57-3.35,39.61-6.15,11.76-2.53,22.43-7.42,31.24-16,17.86-17.32,24.8-42.79,27.65-67.12.39-3.26.7-6.53,1-9.81,0-.22.36-.21.34,0-1.61,24.95-5.49,51-21.18,71-6.79,8.67-15.43,15.78-25.56,19.84-12.35,4.95-26.05,6.11-39.09,7.88-27.69,3.75-57.74,6.65-85.59,8.81q-42,3.27-84.2,3.94c-28.1.42-56.22,0-84.29-1.36-3.43-.17-6.84-.37-10.26-.67A.16.16,0,0,1,613.05,922Z"/><path class="cls-7" d="M700.17,815.87c8.7-1.28,17.38-2.53,26.12-3.44S744,810.72,752.82,810c17.49-1.48,35-2.81,52.58-3.63,10-.47,19.93-.52,29.91-.39.32,0,.29.46,0,.49-17.54,1.59-35.09,2.69-52.66,3.86s-35,2.7-52.53,4.37c-9.93,1-19.85,1.68-29.79,2.49C699.58,817.22,699.44,816,700.17,815.87Z"/><path class="cls-7" d="M815.94,794a134.35,134.35,0,0,1,20.14,10.78,162.46,162.46,0,0,1,18.64,13c.16.14-.06.35-.22.27-6.84-3.16-13.4-7.11-19.91-10.9A189.54,189.54,0,0,1,815.52,795C815.1,794.64,815.36,793.79,815.94,794Z"/><path class="cls-10" d="M887.07,653.67c-10.51,46.29-32.38,101.8-41.75,110.82C833.48,775.9,755,797,751,797.39c-9.7,1-29.3-68.8-19-70.32,15.73-2.31,72.92-5.56,76.34-9.08C812,714.3,836,683.8,860.76,649.35,877.83,625.54,893.6,625,887.07,653.67Z"/><path class="cls-10" d="M758.82,793.61c-1.15.59-17.55,8.88-27.69,11.85-7.57,2.21-29.53,8-32.79-.09-2.23-5.52,10.28-10.44,19-14.12,4.62-1.94,10.3-6.79,8.93-9.76-2.39-5.19-14.28.06-22.1,4.62C689.1,795,669,810.83,659.71,803.17c-3.5-2.9.54-8.19,6.47-13.39-9.62,6.06-19.89,11-23.9,8-2.3-1.74-2.42-4.15-1.14-6.89-3,1-5.6.79-7.44-1.14-3.14-3.27-1.63-8.11,1.79-13.08a3.73,3.73,0,0,1-2.85-1.86c-6.66-10.1,26.47-39.21,37.94-41.95,33.76-8.11,69.35-6.7,69.35-6.7C753.23,736.71,758.85,793.59,758.82,793.61Z"/><path class="cls-7" d="M709.08,762.63a57.34,57.34,0,0,0-22.5,8.73c-8.55,5.67-14.22,12.3-21.39,19-.18.17.08.47.27.29,3.42-3.17,17.57-15.11,21.23-17.82a54.51,54.51,0,0,1,22.42-10A.07.07,0,0,0,709.08,762.63Z"/><path class="cls-7" d="M702.76,748.32c-8.87,2.44-18,4.92-26.19,9.14-9,4.61-16.05,12.12-23,19.35q-6.23,6.5-12.17,13.28c-.17.19.08.49.26.3q10.54-11.19,21.74-21.74a72,72,0,0,1,23.86-15.12c5.08-1.95,10.29-3.51,15.5-5.06C702.89,748.44,702.86,748.29,702.76,748.32Z"/><path class="cls-7" d="M693.24,735.81c-8.62,1.79-16.14,3.32-23.76,8-10.1,6.14-19.83,16.47-23.25,20.14-3.77,4-7.41,8.21-11,12.43-.15.18.15.43.3.26a287.61,287.61,0,0,1,26.25-26.12,57.36,57.36,0,0,1,14.69-9.6c5.36-2.32,11.11-3.64,16.77-5A0,0,0,1,0,693.24,735.81Z"/><path class="cls-8" d="M745.37,723.27l24.34,76.49S835.08,780.93,847,768s33.83-79.55,40.24-111.83-9.9-31.44-24.85-11.07S810.24,714.89,808.16,716,745.37,723.27,745.37,723.27Z"/><path class="cls-7" d="M775.9,765.74c-2.94-9-6-18-8.58-27.15-1.48-5.18-3-10.36-4.43-15.57,0-.19.27-.31.35-.12,3.31,8.94,6.62,17.9,9.53,27s5.86,18.05,8.63,27.13q2.37,7.74,4.26,15.6c0,.11-.14.17-.18.07C781.86,783.86,778.87,774.82,775.9,765.74Z"/><path class="cls-7" d="M802.68,789.16l2.89-1c5.45-2,11-4.06,16.23-6.21.67-.27,1.34-.54,2-.82,1.05-.44,2.1-.89,3.11-1.34l1.52-.67.55-.24,1.57-.73c2.07-1,4-1.92,5.87-2.89.43-.22.86-.45,1.27-.68a45.47,45.47,0,0,0,8.06-5.32c.23-.21.46-.41.66-.62a8.48,8.48,0,0,0,.6-.6c11.93-12.92,33.84-79.55,40.25-111.83.07-.38.14-.75.22-1.11l0-.25c.43-2.45.81-5.48,1.12-8.77v0c.87-16.06-6.74-18.66-16.11-11.58C849.13,684.74,813.48,767.82,802.68,789.16Z"/><path class="cls-8" d="M821.55,797.15l155.31,17.93c0-3.19-17.9-97.26-33.49-132.29-20-44.91-31-48.84-37.51-51.45-8.37-3.34-23.51-2.35-27.16-.78-4.13,1.75-17.84,23.9-23.05,40.31C845.19,703.82,819.54,795.05,821.55,797.15Z"/><path class="cls-10" d="M928.9,647.67c28.86,22.2,104.92,112,89,133.24-16,21.45-124.87,14.2-156.66,5-9.46-2.72,14.81-62.9,24.9-65.88,8.41-2.48,55.59,10.33,56.44,7.59,1-3.09-9.49-23-26.35-59.34C896.82,626.4,916.16,637.86,928.9,647.67Z"/><path class="cls-10" d="M839.69,709.64c-21.8.56-27.31,4.05-46-5.25-12.23-6.1-21.38-.91-13.07,10.63,13.6,18.87,41.88,24.05,52.2,23Z"/><path class="cls-10" d="M899.68,720.79s-26.14-9.34-49.43-11c-16.1-1.18-51.43.17-78.88,39.78-6.51,9.4-9.13,27.4,7.08,15.92,11.52-8.16,16.35-16.81,23.91-20.33,0,0-.61,23.3,9.06,29.45,4.32,2.75,16.29,10,26.41,14.29a44.51,44.51,0,0,0,3.12-4.7s9.57,4.89,25.38.71Z"/><path class="cls-10" d="M834.7,711.08c-6.76,5.09-20.92,16.1-29.37,29.15C796,754.71,781.79,785.15,792.55,792c7.89,5,14.32-6.14,14.32-6.14s-3.2,13.81,4.92,16.76c7.4,2.7,11.85-6.22,11.85-6.22s-.5,8.71,7.13,9.93c9.17,1.47,8.72-17,19.29-23.57C852.43,781.25,834.7,711.08,834.7,711.08Z"/><path class="cls-7" d="M822.29,747.59c-5.57,5.82-14.85,22.3-15.59,37.91,0,.35.25.56.33.24a169.21,169.21,0,0,1,15.4-38.07C822.48,747.59,822.36,747.52,822.29,747.59Z"/><path class="cls-7" d="M836.64,757.48c-4.29,5.52-13.09,22.94-13.3,38.78,0,.35.27.54.34.21a181.88,181.88,0,0,1,13.1-38.91C836.83,757.48,836.7,757.41,836.64,757.48Z"/><path class="cls-7" d="M802.34,745c-6.61,3.19-10.56,7.34-15.75,12.38a98.74,98.74,0,0,1-8,7.15c-2.57,2-6.36,5-9.77,3.1-1.9-1.06-2.28-3.49-2.22-5.46.06-2.22,1.53-6.54,2.51-8.53,0-.1-.12-.19-.18-.09a40.77,40.77,0,0,0-3,7.72,9.39,9.39,0,0,0,.27,5.53c1.66,3.66,6.26,3.41,9.28,1.83a30.86,30.86,0,0,0,5-3.55c1.52-1.24,3-2.56,4.41-3.91,2.93-2.78,5.7-5.72,8.6-8.53a91.25,91.25,0,0,1,9-7.43C802.6,745.1,802.47,744.91,802.34,745Z"/><path class="cls-7" d="M791.84,771.81c1.14-4.25,8.14-22.36,10.66-26.69a.1.1,0,0,0-.16-.12c-4.56,6-11,21.1-12.31,25.8s-2.69,10.54-1.89,15.35c1.2,7.26,6.24,7.83,8.08,7.89a9.43,9.43,0,0,0,6-2,19.24,19.24,0,0,0,4.73-6.18c.06-.12-.1-.23-.17-.12-2,3.28-5.75,6.79-9.78,6.92a6.69,6.69,0,0,1-4.88-1.67c-1.51-1.47-2-3.64-2.13-5.66C789.62,780.75,790.66,776.18,791.84,771.81Z"/><path class="cls-8" d="M899.68,720.79,877.79,797s136.24,7.77,143.79-17S963.31,674.22,936,652c-31.64-25.79-33.34-15-23,10.85,10.78,27,29.35,65.58,29.35,65.58Z"/><path class="cls-7" d="M900,720.52c.69.07,38.57,6,39.84,6.34-.24-.52-9.84-18.56-11.27-21.19l-.41-.8c-.86-1.14-1.73-2.27-2.54-3.44q-1.57-2.26-3.12-4.53s0-.1.07,0c1.1,1.45,2.21,2.91,3.3,4.38.51.67,1,1.37,1.47,2.06-1-1.87-1.89-3.75-2.83-5.64-1.49-3-2.88-6.06-4.27-9.13,0-.09.1-.15.15-.06,2.83,5.25,5.82,10.42,8.67,15.66s13.62,24.53,13.56,24.52-41.87-7.41-42.69-7.6A.26.26,0,0,1,900,720.52Z"/><path class="cls-7" d="M905.2,767c2.39-8.5,4.72-17,7.43-25.43,1.54-4.77,3-9.56,4.63-14.32.06-.18.38-.11.33.08-2.06,8.62-4.15,17.27-6.61,25.79s-4.82,17-7.37,25.45c-1.46,4.81-3.05,9.55-4.79,14.27,0,.09-.2,0-.18-.05C900.42,784.1,902.79,775.56,905.2,767Z"/><path class="cls-7" d="M876.28,798.38c1-2.4,2.1-5.81,3.15-8.16.28-.62.73-.57.53.06-.67,2.14-1.14,4.5-1.79,6.69,1.9.06,3.81.09,5.71.17l6.61.28q6.48.26,13,.38,13.13.24,26.24-.07a505.79,505.79,0,0,0,52.47-3.7c4.87-.62,9.72-1.34,14.55-2.21a140.46,140.46,0,0,0,14.18-3.05c.12,0,.19.18.06.23a80.68,80.68,0,0,1-12.16,3.67c-4.34.94-8.72,1.76-13.11,2.44-8.75,1.34-17.57,2.22-26.39,2.86-17.5,1.27-35.07,1.78-52.61,1.59q-7.38-.07-14.75-.33c-2.48-.09-5-.17-7.44-.31S876.12,798.78,876.28,798.38Z"/><path class="cls-10" d="M878.35,662.37c9.06,1.13,22.77-14,27.57-25.62.32-.79-1.68-8.58-3.68-18.15-1.19-5.82-2.37-12.32-3-18.33-.13-1.24-36.71,13.25-36.71,13.25s5.07,12.2,6.15,22.69a12.94,12.94,0,0,1,0,2.49c0,.12,0,.26,0,.42C868.4,643.89,869.59,661.27,878.35,662.37Z"/><path class="cls-7" d="M896.92,600.68c-.65,10.35-4.31,35.59-24.38,38.23a22,22,0,0,1-3.88.21,1.9,1.9,0,0,1,0-.42,15.79,15.79,0,0,0,0-2.48c-1.08-10.51-6.16-22.71-6.16-22.71S888.89,603.06,896.92,600.68Z"/><path class="cls-10" d="M890.25,549.94c8.21,11.41,14,50.48,7.7,61.76-9.09,16.35-30.2,24.78-45.66,12.43-15-12-21.6-63-14-73.91C849.45,534.18,878.12,533.08,890.25,549.94Z"/><path class="cls-7" d="M861.86,584.64c0-.1.22.1.23.21.22,2.65.92,5.66,3.41,6.26.07,0,.08.15,0,.15C862.53,591.18,861.64,587.19,861.86,584.64Z"/><path class="cls-7" d="M863.91,581.61c4.21-.81,5.52,7.68,1.61,8.43S860.38,582.29,863.91,581.61Z"/><path class="cls-7" d="M847.16,587c0-.09-.19.16-.17.27.49,2.61.61,5.69-1.64,6.93-.07,0,0,.17,0,.14C848.24,593.47,848,589.38,847.16,587Z"/><path class="cls-7" d="M844.39,584.6c-4.28.33-3.31,8.86.66,8.55S848,584.32,844.39,584.6Z"/><path class="cls-7" d="M866.79,574.3a32,32,0,0,1-3.53,0c-1.35,0-2.43.1-3.59-.71a1.82,1.82,0,0,1-.43-2.18c.85-1.49,2.51-1.87,4.14-1.91a6.62,6.62,0,0,1,4.53,1.48A1.94,1.94,0,0,1,866.79,574.3Z"/><path class="cls-7" d="M839.54,579a31.9,31.9,0,0,0,3.24-1.39c1.24-.55,2.28-.86,3-2.05a1.81,1.81,0,0,0-.44-2.18c-1.36-1-3-.75-4.56-.15a6.65,6.65,0,0,0-3.61,3.11A1.94,1.94,0,0,0,839.54,579Z"/><path class="cls-7" d="M870,608.4c-.54.71-1,1.65-2,1.88a6.93,6.93,0,0,1-2.93-.23.09.09,0,0,0-.1.15,3.58,3.58,0,0,0,3.56.92,2.82,2.82,0,0,0,1.71-2.64C870.3,608.32,870.09,608.29,870,608.4Z"/><path class="cls-7" d="M866,601a9.07,9.07,0,0,1-5.37,4.9,11.1,11.1,0,0,1-3.19.64,3.4,3.4,0,0,1-.63,0h-.59a.68.68,0,0,1-.62-.51v0a2.45,2.45,0,0,1,0-.27v0l0-.23c-.37-2-.64-5.13-.64-5.13-.69.49-4.2,2.76-4.3,1.7-.82-8.84-1.74-18.66-.7-27.63a.25.25,0,0,1,.5,0c1.12,8.46.76,17.07,1.75,25.58a16,16,0,0,1,4-1.93c.3,0,.43,6,.67,6.91a.19.19,0,0,0,0,.09c3.47-.09,5.87-1.51,8.82-4.3C865.93,600.57,866.16,600.72,866,601Z"/><path class="cls-7" d="M858.51,605.28a10.79,10.79,0,0,0,4.76,2.65,4.88,4.88,0,0,0,2.93-.27c2-.88,1.77-2.81,1.13-4.4a11.45,11.45,0,0,0-1.33-2.38A13.9,13.9,0,0,1,858.51,605.28Z"/><path class="cls-11" d="M863.27,607.93a4.88,4.88,0,0,0,2.93-.27c2-.88,1.77-2.81,1.13-4.4C865.12,603.84,863.13,605.71,863.27,607.93Z"/><path class="cls-7" d="M886,574.86c-5.09-6.56-5.13-20.48-10-22.53-10.53-4.44-22.19,15.09-33.45,19.07-10.92,3.85-17-1.92-18.11-11.49s4.38-18.14,16-24.22c12-6.29,25.4-5.18,33.09-3.32,0,0-4.29-3.48-3.74-5.21s7.39.67,9.66,1.92a17.44,17.44,0,0,1,4.5,4.35,18.5,18.5,0,0,1,4.82-2.25c2.81-.89,7.07.08,7.49.66s-3.38,2.48-6.12,3.58c0,0,7.59,5.12,9.53,11.07s2.45,37.25.34,38.32C897.36,586.18,888.1,577.52,886,574.86Z"/><path class="cls-7" d="M888.87,535.08c-.12,0-.21.16-.08.21a19.85,19.85,0,0,1,8.81,6.32,24.72,24.72,0,0,1,4.34,12.15c.95,8.37-.41,16.73-1.23,25,0,.24.39.29.43.05,1.43-8.75,2.71-18.17,1.34-27C901.31,544.34,896.85,536.76,888.87,535.08Z"/><path class="cls-7" d="M875.47,549.31a28.16,28.16,0,0,0-9.7,4.08c-2.82,1.85-4.8,4.69-7,7.16-5.05,5.52-11,10.5-18.3,12.54a.08.08,0,0,0,0,.15c6.85-1.45,12.6-5.62,17.43-10.54,2.43-2.49,4.48-5.54,7.2-7.72,3.09-2.47,6.9-3.73,10.56-5.07A.31.31,0,0,0,875.47,549.31Z"/><path class="cls-7" d="M865.77,531.59a55.38,55.38,0,0,0-15.64.22,43.33,43.33,0,0,0-14.33,4.41c-7.65,4.12-13.32,11.87-12.34,20.85a18.74,18.74,0,0,0,6,12.07.24.24,0,0,0,.33-.35c-5.86-6.14-7.61-15.43-3.28-22.94,4.65-8.07,13.83-11.75,22.59-13.29a78.47,78.47,0,0,1,16.63-.9A0,0,0,0,0,865.77,531.59Z"/><path class="cls-10" d="M892.56,582.59s4.58-14.63,11-13.37,5.59,20.62,0,25a6.81,6.81,0,0,1-9.8-.73Z"/><path class="cls-7" d="M903.16,574.76c.09,0,.16.1.08.16-3.89,3.23-4.93,8.13-5.22,13,.81-2.08,2.33-3.56,5.05-2.68.14,0,.09.27-.05.28a4.21,4.21,0,0,0-3.95,2.79,20.7,20.7,0,0,0-1,4.22c-.08.46-.87.48-.87,0,0,0,0-.08,0-.12C895.31,586.67,897.21,577.28,903.16,574.76Z"/><path class="cls-3" d="M868.71,638.49l12,20.86,23.51-31.87,9.06,7.88s-20.58,48.25-21,46.26l-11.81-17.76L869.17,679l-3.65-33.44Z"/><path class="cls-7" d="M866.43,662.55c-.42-5.54-1-11.11-1.15-16.66,0-.2.29-.33.37-.11,1.85,5.15,3.33,26.34,4.06,31.37l0-.06c.47-.65,10.54-13.39,10.68-13.23,2.41,2.74,11.06,15.67,11.69,16.87,3.25-7.66,17.35-38.05,21.44-45.43a.19.19,0,0,1,.36.14c-2.7,8-20.81,48-21.15,48-.21.21-10.94-15.71-12.38-18.8-1.63,2.7-11.61,16.88-11.77,16.07A175,175,0,0,1,866.43,662.55Z"/><path class="cls-3" d="M492.23,872.52a67.92,67.92,0,0,1-9.52-.7c-35-5-58.2-56.8-69.08-153.9-8.72-77.82-7.17-162.59-6.42-203.33.2-11.07.33-18.37.15-20.74-1.7-22.75-11.56-32-34-32v-2.27c23.65,0,34.5,10.21,36.29,34.14.19,2.47.06,9.82-.15,20.95C405.32,742.55,430.06,862,483,869.57c34.47,4.95,52.68-18.48,70.27-41.13,13-16.7,26.38-34,46.06-38.86,13.52-3.36,25.11-2.34,31.33-1.8,1.5.14,2.69.24,3.44.24v2.27c-.85,0-2.08-.1-3.64-.24-6.09-.54-17.43-1.53-30.58,1.74-18.92,4.71-31.5,20.9-44.81,38C538.78,850.85,521.94,872.52,492.23,872.52Z"/><rect class="cls-7" x="371.89" y="459.02" width="10.49" height="3.99"/><path class="cls-8" d="M493.72,866.48c-15.48,0-29-6.11-40.05-18.16C397.14,787,413.46,587.71,419.6,512.7c1.11-13.43,1.9-23.13,1.7-25.77C419.49,462.77,407.55,450,386.78,450v-2.27c21.83,0,34.9,13.86,36.79,39,.21,2.81-.55,12.09-1.7,26.12-6.12,74.75-22.38,273.29,33.47,333.9C466,858.34,478.9,864.2,493.72,864.2c30,0,45-17.17,62.25-37.06,10.86-12.49,22.08-25.4,38.2-35.21,8.89-5.42,22.58-4.78,34.66-4.21,3.3.15,6.42.3,9.18.3v2.27c-2.81,0-6-.14-9.28-.3-11.18-.53-25.08-1.17-33.38,3.88-15.81,9.63-26.92,22.41-37.66,34.77C540.77,848.1,524.79,866.48,493.72,866.48Z"/><rect class="cls-7" x="385.33" y="446.87" width="10.49" height="3.99"/><rect class="cls-2" x="692.21" y="816.92" width="160.89" height="7.21"/><polygon class="cls-12" points="692.21 816.92 692.21 824.13 801.57 824.13 796.06 816.92 692.21 816.92"/><polygon class="cls-2" points="789.12 824.13 632.32 824.13 619.26 717.64 776.06 717.64 789.12 824.13"/><path class="cls-5" d="M713.74,770.88a9.36,9.36,0,0,1-9.38,9.55,9.75,9.75,0,0,1-9.71-9.55,9.33,9.33,0,0,1,9.37-9.54A9.76,9.76,0,0,1,713.74,770.88Z"/><path class="cls-3" d="M874.61,518.87a6.88,6.88,0,0,1-4.81,11.79,7.29,7.29,0,0,1-5-2l-30.69-31.13c-.33-.11-.44-.33-.55-.66a1.86,1.86,0,0,0-.33-.21,3.13,3.13,0,0,1-.32-.88.59.59,0,0,1-.33-.43c-.11-.22-.11-.55-.22-.66,0-.33-.22-.44-.22-.55v-.76c0-.22-.1-.33-.1-.66,0-.11.1-.43.1-.54v-.77c0-.22.22-.32.22-.43.11-.33.11-.55.22-.88,0-.11.11-.11.11-.21a9.62,9.62,0,0,1,.54-1,.22.22,0,0,1,.22-.22,2,2,0,0,1,.66-.76l30.69-31.13a7.13,7.13,0,0,1,9.83,0,6.92,6.92,0,0,1,0,9.83l-25.89,26.1Z"/><path class="cls-3" d="M902.46,522.36l26.75-63.67a6.07,6.07,0,0,1,8-3.17,5.9,5.9,0,0,1,3.06,7.76l-26.76,63.78a6.06,6.06,0,0,1-5.57,3.6,5.27,5.27,0,0,1-2.18-.43A5.9,5.9,0,0,1,902.46,522.36Z"/><g class="cls-13"><path class="cls-8" d="M323,595.45c16.07-33,44.2-50,75.89-40.62s36.61,53.57,13,64.73S364.53,598.13,352,591.43,323,595.45,323,595.45Z"/><path class="cls-7" d="M307.46,683.38c.08-4,.23-8,.37-11.94.29-8,.55-15.9.85-23.85.54-14.54,2.11-28.82,8.13-42.22A65.42,65.42,0,0,1,342.3,576a53.61,53.61,0,0,1,13.4-5.79c3.92-4.39,10.05-7.23,15.64-8.59,7.33-1.78,14.87-1.39,22.3-.56.27,0,.26.46,0,.42a53.85,53.85,0,0,0-21.1,1.5,45.15,45.15,0,0,0-8.49,3.31,40.14,40.14,0,0,0-4.92,3.12,45.53,45.53,0,0,1,19.37.18,43.71,43.71,0,0,1,6.72,2.22,20.15,20.15,0,0,1,5.28-.45,31.28,31.28,0,0,1,6.87,1,51.66,51.66,0,0,1,13,5.7c.23.13,0,.48-.22.35a48.71,48.71,0,0,0-12.73-4.79,42.45,42.45,0,0,0-6.54-1,34,34,0,0,0-3.64,0,42,42,0,0,1,20.49,20.42c.12.25-.25.45-.36.2-4.76-10.74-14.89-18.07-26.12-20.93-.7-.18-1.41-.28-2.12-.41a29.56,29.56,0,0,1,.34,3.19q.31,2.42.81,4.8a81,81,0,0,0,2.57,9.67,77.09,77.09,0,0,0,3.84,9.37,45,45,0,0,0,5.36,9,.21.21,0,1,1-.33.25c-1.91-3-4.12-5.74-5.86-8.84a66.58,66.58,0,0,1-4.3-9.22,62.82,62.82,0,0,1-2.82-9.9q-.52-2.67-.84-5.37a12.9,12.9,0,0,1-.2-3.28,43.22,43.22,0,0,0-11.25-.23c1.41,7.88,2.92,16.09,7.33,22.93.15.23-.24.45-.37.21A92.72,92.72,0,0,1,368,583.3a42.76,42.76,0,0,1-2.72-11.74,51.94,51.94,0,0,0-18.61,6.24c-11,6.17-19.29,15.85-24.77,27.1-5.95,12.22-8.34,25.37-9.18,38.85-1.06,16.88-1.28,33.87-3,50.7-.11,1.1-1.86,1.47-2.07.23C307.05,691,307.38,687.14,307.46,683.38Z"/><path class="cls-7" d="M344.6,573.34a18.28,18.28,0,0,1,3.65-3.37c1.32-1.1,2.67-2.15,4.08-3.11a30.37,30.37,0,0,1,9.13-4.23.21.21,0,0,1,.1.41,24.24,24.24,0,0,0-9,4.42c-1.34,1-2.63,2-3.89,3.14a22.75,22.75,0,0,1-3.68,3.13C344.74,573.86,344.44,573.58,344.6,573.34Z"/><path class="cls-7" d="M395.89,585.31a98.12,98.12,0,0,1,7.37,9.75,59.22,59.22,0,0,1,5.48,10.87c.05.11-.13.18-.19.08-3.9-7-7.81-14.23-13-20.41C395.41,585.39,395.72,585.1,395.89,585.31Z"/><path class="cls-7" d="M361.32,582a23.73,23.73,0,0,0,1.81,6,40.37,40.37,0,0,0,3.06,5.29c.07.11-.1.23-.18.14a21.39,21.39,0,0,1-5.1-11.31C360.87,581.88,361.27,581.77,361.32,582Z"/><path class="cls-8" d="M309.7,596.26S286.94,567.67,243,577.8c-41.74,9.64-61,86.19-18.82,95.34s34.74-61.68,50.12-73.7C285.59,590.62,301.82,592.52,309.7,596.26Z"/><path class="cls-7" d="M209.1,619.61a85.77,85.77,0,0,1,9.05-6.94,39,39,0,0,1,9.65-4.81,58.13,58.13,0,0,1,5.72-7.37,57,57,0,0,1,13.28-10.57c-.44,0-.87-.07-1.31-.09-2.34-.07-4.65-.09-7,.07A39,39,0,0,0,225,593.28c-.24.11-.42-.28-.18-.38a61.63,61.63,0,0,1,13.54-4.08,38.44,38.44,0,0,1,6.86-.59c1.23,0,2.46.1,3.69.22l.7,0a58.94,58.94,0,0,1,12.66-4.65c-.41-.11-.81-.24-1.22-.34a60,60,0,0,0-6.51-1.06,50.7,50.7,0,0,0-13.14.2c-.27,0-.35-.38-.08-.42a84.25,84.25,0,0,1,13.29-.53,55.49,55.49,0,0,1,11,1.43,57.58,57.58,0,0,1,8-.91c15.32-.65,32,5.07,41.44,17.66s11.27,29.4,12.94,44.6c2.32,21.16,3.38,42.61,1.68,63.84-.1,1.26-1.86,1-1.9-.17-.58-18-1.21-36.1-2.94-54.08-.8-8.33-1.69-16.69-3.07-25-1.19-7-2.88-14.09-6.06-20.54a37.54,37.54,0,0,0-14.82-15.93,50,50,0,0,0-21-6.46,56.51,56.51,0,0,0-19.7,1.84,13,13,0,0,1,.11,3.89,21.87,21.87,0,0,1-1,4.8,25.43,25.43,0,0,1-1.83,4.26c-.81,1.51-1.84,2.85-2.74,4.3-.15.23-.51,0-.35-.25,1.9-2.38,2.87-5.7,3.41-8.65a33.78,33.78,0,0,0,.52-4.48c.06-1.13,0-2.27,0-3.4a58,58,0,0,0-19.18,10.13c-1.07.85-2.1,1.76-3.1,2.69a21.37,21.37,0,0,1,3.72,4.57,44.81,44.81,0,0,1,3.91,7,59.2,59.2,0,0,1,4.06,15.27c0,.27-.38.35-.42.08a44.25,44.25,0,0,0-5-14.48,60,60,0,0,0-3.89-6.43c-.75-1.06-1.51-2.1-2.31-3.12-.43-.54-.9-1.09-1.31-1.68A60.65,60.65,0,0,0,222.38,620s.06,0,.08,0c2.17,2,3.71,4.83,5.15,7.4a67.56,67.56,0,0,1,4.11,8.79,148,148,0,0,1,5.25,17.9.21.21,0,0,1-.42.08,74.82,74.82,0,0,0-6.23-17.64q-2-4.12-4.15-8.14a73.58,73.58,0,0,1-4.13-7.67,56.28,56.28,0,0,0-5,20.34.21.21,0,0,1-.42,0,71.13,71.13,0,0,1,9.86-31.22c-2.69,1.15-5.38,2.25-8,3.64a44.71,44.71,0,0,0-9.13,6.42C209.17,620.11,208.9,619.78,209.1,619.61Z"/><path class="cls-7" d="M241.31,621.23c1.32,4.33,3,8.54,4.17,12.93a50,50,0,0,1,1.94,12.91c0,.12-.19.12-.21,0a125.49,125.49,0,0,0-6.29-25.72A.21.21,0,1,1,241.31,621.23Z"/><path class="cls-7" d="M213.49,610.47a24.11,24.11,0,0,1,5.82-4.15,42.06,42.06,0,0,1,6.73-2.39c.25-.07.34.36.07.42a26.49,26.49,0,0,0-6.48,2.66,49.92,49.92,0,0,0-6,3.67A.14.14,0,0,1,213.49,610.47Z"/><path class="cls-8" d="M288.07,558.07s-4.2-51.38-42.4-68c-31.89-13.91-50.15,21.93-27.6,43.87C236.31,551.66,265.56,543.65,288.07,558.07Z"/><path class="cls-7" d="M225.13,500a159.67,159.67,0,0,1,17,8,128.25,128.25,0,0,1,13.19,8.75c-.64-1.29-1.19-2.65-1.83-3.92-1-2-2.06-3.93-3.24-5.81a54.55,54.55,0,0,0-8.42-10.65c-.19-.19.12-.48.31-.29A83.57,83.57,0,0,1,251,506.42a61.29,61.29,0,0,1,3.63,5.81,23.05,23.05,0,0,1,2.57,5.92c.14.11.29.2.42.31a125.19,125.19,0,0,1,18.25,17.85c-.11-.51-.22-1-.35-1.48-.71-2.5-1.49-5-2.31-7.46a64.29,64.29,0,0,0-6.9-15c-.15-.22.22-.43.36-.2a118.27,118.27,0,0,1,8,14.61,55.09,55.09,0,0,1,2.64,7.6,33,33,0,0,1,1.24,5.16c1.67,2.11,3.3,4.23,4.84,6.43,16.4,23.34,24.63,51.58,26.61,79.83a242.87,242.87,0,0,1,.42,25.31c-.28,8.45-.59,17.09-2.24,25.4-.1.53-.93.38-.92-.14.19-7.43,1-14.82,1.1-22.25a221.51,221.51,0,0,0-.71-22.31,207.68,207.68,0,0,0-8.33-43.71A156.52,156.52,0,0,0,279.87,547c-1.61-.32-3.2-.76-4.78-1.17-1.91-.49-3.82-1-5.72-1.51a57.3,57.3,0,0,1-10.65-3.9c-.24-.12,0-.5.22-.36a34.47,34.47,0,0,0,10.8,3.73c3,.59,6.1,1,9.09,1.67A144.16,144.16,0,0,0,270,533.79a66.21,66.21,0,0,1-21.73-1.62,87.81,87.81,0,0,1-11.12-3.46c-3.83-1.48-7.45-3.37-11.23-5-.28-.12-.09-.53.17-.38,6.48,3.94,14.62,6,22,7.21a137,137,0,0,0,20.61,1.71c-2.72-3.12-5.52-6.15-8.51-9-10-9.55-22-18.34-35.16-22.91C224.75,500.3,224.89,499.88,225.13,500Z"/><path class="cls-7" d="M256.21,500.14A58,58,0,0,1,260.9,507a38,38,0,0,1,3.37,8,.09.09,0,0,1-.16.06c-1.27-2.52-2.35-5.13-3.64-7.64a38.56,38.56,0,0,0-4.56-6.95C255.74,500.22,256.05,499.93,256.21,500.14Z"/><path class="cls-7" d="M220.7,517.25a39.86,39.86,0,0,0,7.83,3.27,73.17,73.17,0,0,0,8,2.14c.13,0,.1.24,0,.22a38.92,38.92,0,0,1-8.26-1.8,70.42,70.42,0,0,1-7.73-3.47C220.24,517.49,220.46,517.11,220.7,517.25Z"/><path class="cls-8" d="M317.76,548.82c.24,2.22,5.78-18.65,38.08-37.18,29.33-16.83,64.34-60.6,35.58-88.26C368.21,401.06,307.05,449.72,317.76,548.82Z"/><path class="cls-7" d="M295.53,668.49a573.76,573.76,0,0,1,5.13-64.94,292.65,292.65,0,0,1,13.64-58.12c2.41-6.79,5.15-13.48,8.13-20.06a46.76,46.76,0,0,1,.13-7.68c.16-3.29.46-6.57.76-9.85s.64-6.56,1-9.83,1.08-6.53,1.22-9.79a.21.21,0,1,1,.41.06,68.25,68.25,0,0,0-1.16,10.4q-.37,4.76-.53,9.51c-.09,3.18-.08,6.36-.08,9.54,0,1.15.06,2.36.1,3.59,3-6.42,6.3-12.74,9.82-18.89-2.19-13.4.65-27.39,3.39-40.48.05-.27.46-.15.4.12a114.64,114.64,0,0,0-2.13,20.75c-.12,5.5.13,11,.15,16.5.78-1.32,1.55-2.64,2.35-3.94q6.27-10.26,13.41-20.05a31.4,31.4,0,0,1,.32-9.53,73.23,73.23,0,0,1,2.34-10.44c1-3.42,2.21-6.77,3.57-10.08s3.27-6.61,4.61-10c.12-.28.54-.09.38.17a49.43,49.43,0,0,0-4,10.14,91.5,91.5,0,0,0-2.64,10c-.68,3.41-1.24,6.81-1.72,10.25-.32,2.27-.52,4.62-.91,6.92a248,248,0,0,1,22.62-26.32c.19-.19.46.11.28.31a297.65,297.65,0,0,0-32.83,44.66c-.36.6-.69,1.21-1,1.8,1.78-1.11,3.82-2,5.49-2.93q4.69-2.61,9.42-5.17t9.15-5c1.57-.86,3.11-1.77,4.71-2.58a38.35,38.35,0,0,0,5.47-3c.25-.18.51.19.25.34-3.11,1.71-5.86,4.25-8.86,6.16s-6.09,3.78-9.22,5.53c-5.74,3.2-12,5.51-17.63,8.82-3.93,6.86-7.53,13.91-10.87,21.08q5.15-3.3,10.49-6.28c2.29-1.29,4.58-2.55,6.91-3.77a34.09,34.09,0,0,0,6.5-3.93.21.21,0,0,1,.29.3c-3.65,3.58-8,6.07-12.41,8.64-4.15,2.42-8.34,4.76-12.65,6.88q-5.19,11.34-9.35,23.11c-13.59,38.49-18.59,79.35-21,119.94-.71,12.1-1.08,24.19-1.23,36.31s.49,24.18.47,36.28c0,.35-.59.44-.64.07-1.45-10.73-1.71-21.64-2.18-32.45C295.3,690.54,295.29,679.49,295.53,668.49Z"/><path class="cls-7" d="M354.21,494.23a153.8,153.8,0,0,0,17.16-8.87A180.76,180.76,0,0,0,387.67,475c.09-.06.19.09.11.15a135.4,135.4,0,0,1-15.65,10.94c-5.68,3.38-11.68,5.87-17.72,8.5C354.17,494.71,354,494.33,354.21,494.23Z"/><path class="cls-7" d="M344.86,450.72c.47-1.88,1.07-3.72,1.7-5.55a.17.17,0,0,1-.08-.22c.4-1,.83-2.07,1.26-3.1a3,3,0,0,1,.15-.38l.24-.59a.06.06,0,0,1,.11,0c-.12.36-.21.72-.32,1.07s-.09.39-.17.6A153.24,153.24,0,0,0,343,464.5c0,.24-.39.25-.38,0A73,73,0,0,1,344.86,450.72Z"/><polygon class="cls-6" points="261.41 676.3 263.71 703.61 270.77 786.92 346.34 786.92 353.39 703.61 355.7 676.3 261.41 676.3"/><polygon class="cls-7" points="261.41 676.3 263.71 703.61 353.39 703.61 355.7 676.3 261.41 676.3"/><rect class="cls-6" x="253.99" y="665.34" width="109.12" height="26.21" transform="translate(617.11 1356.88) rotate(-180)"/></g></svg>