<svg id="Слой_1" data-name="Слой 1" xmlns="http://www.w3.org/2000/svg" viewBox="0 0 923 1000"><defs><style>.cls-1{fill:#ececec;}.cls-2{fill:#306;}.cls-3{fill:#dcdcdc;}.cls-4,.cls-8{fill:#fff;}.cls-5{fill:#ffc800;}.cls-6{fill:#4a148c;}.cls-7{fill:#c8c8c8;}.cls-13,.cls-8{opacity:0.6;}.cls-9{opacity:0.2;}.cls-10{opacity:0.1;}.cls-11{fill:#a8a8a8;}.cls-12{opacity:0.3;}.cls-14{fill:#ed776a;}.cls-15{fill:#ff9bbe;}</style></defs><path class="cls-1" d="M352.5,305.36c-16.11.14-40.77.44-56.7.45h-.44v-.45l-.06-24v-.5h.5l28.35.07,28.35.16h.27v.27l-.27,24Zm0,0-.28-24,.28.28-28.35.16-28.35.06.5-.5-.05,24-.45-.45c15.81,0,40.71.28,56.7.45Z"/><path class="cls-1" d="M320.87,335.57c-16.11.14-40.77.44-56.69.44h-.45v-.45l-.05-24v-.5h.5l28.34.07,28.35.16h.28v.27l-.27,24Zm0,0-.27-24,.27.27-28.35.17-28.34.06.5-.5-.06,24-.44-.45c15.8,0,40.71.28,56.69.45Z"/><path class="cls-1" d="M384.12,335.57c-16.1.14-40.77.44-56.69.44H327v-.45l-.05-24v-.5h.5l28.35.07,28.34.16h.28v.27l-.28,24Zm0,0-.27-24,.27.27-28.34.17-28.35.06.5-.5-.06,24-.44-.45c15.8,0,40.71.28,56.69.45Z"/><path class="cls-1" d="M830.09,305.34c-16.11.14-40.77.44-56.7.45H773v-.45l-.06-23.95v-.5h.5l28.35.06,28.35.16h.27v.28l-.27,23.95Zm0,0-.28-23.95.28.27-28.35.16-28.35.07.5-.5,0,23.95-.45-.44c15.81,0,40.71.27,56.7.44Z"/><rect class="cls-1" x="242.21" y="229.69" width="902.77" height="603.89"/><rect class="cls-2" x="248.77" y="237.06" width="889.65" height="589.16"/><rect class="cls-3" x="124.63" y="878.86" width="1137.94" height="41.45"/><polygon class="cls-1" points="124.63 878.87 242.21 833.58 1144.99 833.58 1262.57 878.87 124.63 878.87"/><polygon class="cls-2" points="252.71 862.8 328.59 833.58 1058.61 833.58 1134.49 862.8 252.71 862.8"/><rect class="cls-4" x="299.05" y="281.82" width="789.1" height="499.63"/><rect class="cls-5" x="298.38" y="301.05" width="775.76" height="120.77"/><rect class="cls-6" x="298.38" y="281.82" width="789.77" height="19.23"/><path class="cls-7" d="M313.67,291.43a4.77,4.77,0,1,1-4.77-4.77A4.77,4.77,0,0,1,313.67,291.43Z"/><path class="cls-4" d="M333.14,291.43a4.77,4.77,0,1,1-4.77-4.77A4.77,4.77,0,0,1,333.14,291.43Z"/><path class="cls-5" d="M352.61,291.43a4.77,4.77,0,1,1-4.77-4.77A4.77,4.77,0,0,1,352.61,291.43Z"/><rect class="cls-4" x="845.11" y="324.48" width="188.6" height="25.17"/><path class="cls-7" d="M1034,349.91H844.85V324.23H1034Zm-188.6-.51h188.08V324.74H845.37Z"/><rect class="cls-7" x="850.37" y="329.43" width="1.35" height="15.28"/><rect class="cls-4" x="401.28" y="324.48" width="434.37" height="25.17"/><path class="cls-7" d="M835.91,349.91H401V324.23H835.91Zm-434.38-.51H835.39V324.74H401.53Z"/><rect class="cls-7" x="406.54" y="329.43" width="1.35" height="15.28"/><polygon class="cls-4" points="353.76 345.69 344.6 337.25 353.75 328.47 355.17 329.95 347.59 337.22 355.15 344.18 353.76 345.69"/><polygon class="cls-4" points="375.89 328.45 385.06 336.89 375.91 345.67 374.49 344.19 382.06 336.92 374.5 329.96 375.89 328.45"/><rect class="cls-5" x="668.84" y="629.59" width="140.82" height="108.04" transform="translate(1478.5 1367.22) rotate(180)"/><path class="cls-8" d="M682.86,653.22a12.79,12.79,0,1,0,10-10.05A12.8,12.8,0,0,0,682.86,653.22Z"/><polygon class="cls-5" points="715.3 714.35 809.66 714.35 762.48 656.2 715.3 714.35"/><polygon class="cls-9" points="715.3 714.35 809.66 714.35 762.48 656.2 715.3 714.35"/><polygon class="cls-5" points="668.84 714.4 752.52 714.4 710.68 676.54 668.84 714.4"/><polygon class="cls-10" points="668.84 714.4 752.52 714.4 710.68 676.54 668.84 714.4"/><rect class="cls-5" x="668.84" y="714.35" width="140.82" height="23.28"/><rect class="cls-10" x="668.84" y="714.35" width="140.82" height="23.28"/><rect class="cls-11" x="337.43" y="629.59" width="105.77" height="8.9"/><rect class="cls-1" x="337.43" y="650.24" width="306.1" height="8.9"/><rect class="cls-1" x="337.43" y="669.81" width="306.1" height="8.9"/><rect class="cls-1" x="337.43" y="689.39" width="306.1" height="8.9"/><rect class="cls-1" x="337.43" y="708.97" width="306.1" height="8.9"/><rect class="cls-1" x="337.43" y="728.55" width="306.1" height="8.9"/><rect class="cls-11" x="592.35" y="454.89" width="105.77" height="23.81"/><rect class="cls-1" x="592.35" y="495.12" width="217.31" height="8.9"/><rect class="cls-1" x="592.35" y="514.7" width="217.31" height="8.9"/><rect class="cls-1" x="592.35" y="534.28" width="217.31" height="8.9"/><rect class="cls-1" x="592.35" y="553.86" width="217.31" height="8.9"/><rect class="cls-1" x="592.35" y="579.9" width="217.31" height="8.9"/><rect class="cls-1" x="592.35" y="599.48" width="217.31" height="8.9"/><rect class="cls-5" x="840.51" y="454.89" width="193.43" height="24.24"/><rect class="cls-4" x="841.04" y="479.13" width="192.39" height="258.07"/><path class="cls-3" d="M1034,737.63H840.51V478.7H1034Zm-192.39-.86H1032.9V479.56H841.58Z"/><polygon class="cls-3" points="841.54 737.36 840.55 737.04 1032.94 478.97 1033.94 479.29 841.54 737.36"/><polygon class="cls-3" points="1032.94 737.36 840.55 479.29 841.54 478.97 1033.94 737.04 1032.94 737.36"/><rect class="cls-4" x="337.84" y="455.32" width="230.52" height="152.64"/><path class="cls-3" d="M337.47,608.38V608l0-153h.39l230.9-.07,0,153.42h-.39Zm.73-152.64.05,151.87L568,607.54l0-151.87Z"/><path class="cls-3" d="M338.2,455.74C357.6,468,376.86,480.5,396.1,493l57.59,37.74L511,568.9l28.56,19.22L568,607.54,539,589l-28.89-18.73-57.58-37.74L395.2,494.37C376.14,481.58,357.11,468.76,338.2,455.74Z"/><path class="cls-3" d="M568,455.74c-18.91,13-38,25.84-57,38.63l-57.31,38.16-57.58,37.74L367.22,589l-29,18.54,28.44-19.42L395.2,568.9l57.31-38.16L510.1,493C529.34,480.5,548.6,468,568,455.74Z"/><path class="cls-5" d="M649.7,343.73a21.61,21.61,0,1,0-19.51-23.52A21.62,21.62,0,0,0,649.7,343.73Zm-16.89-23.27a19,19,0,1,1,17.13,20.64A19,19,0,0,1,632.81,320.46Zm16.89,23.27a21.61,21.61,0,1,0-19.51-23.52A21.62,21.62,0,0,0,649.7,343.73Zm-16.89-23.27a19,19,0,1,1,17.13,20.64A19,19,0,0,1,632.81,320.46Zm16.89,23.27a21.61,21.61,0,1,0-19.51-23.52A21.62,21.62,0,0,0,649.7,343.73Zm-16.89-23.27a19,19,0,1,1,17.13,20.64A19,19,0,0,1,632.81,320.46Zm14.67,47.1A45.55,45.55,0,1,0,606.36,318,45.57,45.57,0,0,0,647.48,367.56ZM626.84,319.9a25,25,0,1,1,22.54,27.17A25,25,0,0,1,626.84,319.9Zm3.35.31a21.61,21.61,0,1,0,23.5-19.52A21.62,21.62,0,0,0,630.19,320.21Zm2.62.25a19,19,0,1,1,17.13,20.64A19,19,0,0,1,632.81,320.46Zm16.89,23.27a21.61,21.61,0,1,0-19.51-23.52A21.62,21.62,0,0,0,649.7,343.73Zm-16.89-23.27a19,19,0,1,1,17.13,20.64A19,19,0,0,1,632.81,320.46Zm16.89,23.27a21.61,21.61,0,1,0-19.51-23.52A21.62,21.62,0,0,0,649.7,343.73Zm-16.89-23.27a19,19,0,1,1,17.13,20.64A19,19,0,0,1,632.81,320.46Z"/><polygon class="cls-5" points="647.02 277.93 664.46 279.55 664.64 267.12 649.13 265.68 647.02 277.93"/><polygon class="cls-5" points="679.67 286.89 690.85 300.37 699.77 291.7 689.83 279.72 679.67 286.89"/><polygon class="cls-5" points="696.42 316.31 694.8 333.75 707.23 333.93 708.67 318.42 696.42 316.31"/><polygon class="cls-5" points="687.46 348.95 673.98 360.14 682.64 369.06 694.63 359.11 687.46 348.95"/><polygon class="cls-5" points="658.04 365.7 640.6 364.08 640.42 376.51 655.93 377.96 658.04 365.7"/><polygon class="cls-5" points="625.39 356.74 614.21 343.27 605.29 351.93 615.24 363.92 625.39 356.74"/><polygon class="cls-5" points="608.64 327.32 610.26 309.89 597.83 309.7 596.39 325.21 608.64 327.32"/><polygon class="cls-5" points="617.61 294.68 631.08 283.49 622.42 274.57 610.43 284.52 617.61 294.68"/><g class="cls-12"><path d="M649.7,343.73a21.61,21.61,0,1,0-19.51-23.52A21.62,21.62,0,0,0,649.7,343.73Zm-16.89-23.27a19,19,0,1,1,17.13,20.64A19,19,0,0,1,632.81,320.46Zm16.89,23.27a21.61,21.61,0,1,0-19.51-23.52A21.62,21.62,0,0,0,649.7,343.73Zm-16.89-23.27a19,19,0,1,1,17.13,20.64A19,19,0,0,1,632.81,320.46Zm16.89,23.27a21.61,21.61,0,1,0-19.51-23.52A21.62,21.62,0,0,0,649.7,343.73Zm-16.89-23.27a19,19,0,1,1,17.13,20.64A19,19,0,0,1,632.81,320.46Zm14.67,47.1A45.55,45.55,0,1,0,606.36,318,45.57,45.57,0,0,0,647.48,367.56ZM626.84,319.9a25,25,0,1,1,22.54,27.17A25,25,0,0,1,626.84,319.9Zm3.35.31a21.61,21.61,0,1,0,23.5-19.52A21.62,21.62,0,0,0,630.19,320.21Zm2.62.25a19,19,0,1,1,17.13,20.64A19,19,0,0,1,632.81,320.46Zm16.89,23.27a21.61,21.61,0,1,0-19.51-23.52A21.62,21.62,0,0,0,649.7,343.73Zm-16.89-23.27a19,19,0,1,1,17.13,20.64A19,19,0,0,1,632.81,320.46Zm16.89,23.27a21.61,21.61,0,1,0-19.51-23.52A21.62,21.62,0,0,0,649.7,343.73Zm-16.89-23.27a19,19,0,1,1,17.13,20.64A19,19,0,0,1,632.81,320.46Z"/><polygon points="647.02 277.93 664.46 279.55 664.64 267.12 649.13 265.68 647.02 277.93"/><polygon points="679.67 286.89 690.85 300.37 699.77 291.7 689.83 279.72 679.67 286.89"/><polygon points="696.42 316.31 694.8 333.75 707.23 333.93 708.67 318.42 696.42 316.31"/><polygon points="687.46 348.95 673.98 360.14 682.64 369.06 694.63 359.11 687.46 348.95"/><polygon points="658.04 365.7 640.6 364.08 640.42 376.51 655.93 377.96 658.04 365.7"/><polygon points="625.39 356.74 614.21 343.27 605.29 351.93 615.24 363.92 625.39 356.74"/><polygon points="608.64 327.32 610.26 309.89 597.83 309.7 596.39 325.21 608.64 327.32"/><polygon points="617.61 294.68 631.08 283.49 622.42 274.57 610.43 284.52 617.61 294.68"/></g><path class="cls-5" d="M859.06,383.78a13.86,13.86,0,1,0-12.5-15.08A13.87,13.87,0,0,0,859.06,383.78Zm-10.83-14.92a12.17,12.17,0,1,1,11,13.23A12.17,12.17,0,0,1,848.23,368.86Zm10.83,14.92a13.86,13.86,0,1,0-12.5-15.08A13.87,13.87,0,0,0,859.06,383.78Zm-10.83-14.92a12.17,12.17,0,1,1,11,13.23A12.17,12.17,0,0,1,848.23,368.86Zm10.83,14.92a13.86,13.86,0,1,0-12.5-15.08A13.87,13.87,0,0,0,859.06,383.78Zm-10.83-14.92a12.17,12.17,0,1,1,11,13.23A12.17,12.17,0,0,1,848.23,368.86Zm9.41,30.2a29.21,29.21,0,1,0-26.36-31.78A29.21,29.21,0,0,0,857.64,399.06ZM844.41,368.5a16,16,0,1,1,14.45,17.42A16,16,0,0,1,844.41,368.5Zm2.15.2a13.85,13.85,0,1,0,15.06-12.52A13.86,13.86,0,0,0,846.56,368.7Zm1.67.16a12.17,12.17,0,1,1,11,13.23A12.17,12.17,0,0,1,848.23,368.86Zm10.83,14.92a13.86,13.86,0,1,0-12.5-15.08A13.87,13.87,0,0,0,859.06,383.78Zm-10.83-14.92a12.17,12.17,0,1,1,11,13.23A12.17,12.17,0,0,1,848.23,368.86Zm10.83,14.92a13.86,13.86,0,1,0-12.5-15.08A13.87,13.87,0,0,0,859.06,383.78Zm-10.83-14.92a12.17,12.17,0,1,1,11,13.23A12.17,12.17,0,0,1,848.23,368.86Z"/><polygon class="cls-5" points="857.35 341.59 868.53 342.63 868.64 334.66 858.7 333.74 857.35 341.59"/><polygon class="cls-5" points="878.27 347.34 885.45 355.98 891.16 350.42 884.79 342.74 878.27 347.34"/><polygon class="cls-5" points="889.01 366.2 887.97 377.38 895.95 377.49 896.87 367.55 889.01 366.2"/><polygon class="cls-5" points="883.27 387.13 874.63 394.3 880.18 400.01 887.87 393.64 883.27 387.13"/><polygon class="cls-5" points="864.41 397.86 853.23 396.82 853.11 404.8 863.05 405.72 864.41 397.86"/><polygon class="cls-5" points="843.48 392.12 836.31 383.48 830.59 389.03 836.97 396.72 843.48 392.12"/><polygon class="cls-5" points="832.74 373.26 833.78 362.08 825.81 361.96 824.89 371.9 832.74 373.26"/><polygon class="cls-5" points="838.49 352.33 847.13 345.16 841.57 339.44 833.89 345.82 838.49 352.33"/><g class="cls-13"><path class="cls-4" d="M859.06,383.78a13.86,13.86,0,1,0-12.5-15.08A13.87,13.87,0,0,0,859.06,383.78Zm-10.83-14.92a12.17,12.17,0,1,1,11,13.23A12.17,12.17,0,0,1,848.23,368.86Zm10.83,14.92a13.86,13.86,0,1,0-12.5-15.08A13.87,13.87,0,0,0,859.06,383.78Zm-10.83-14.92a12.17,12.17,0,1,1,11,13.23A12.17,12.17,0,0,1,848.23,368.86Zm10.83,14.92a13.86,13.86,0,1,0-12.5-15.08A13.87,13.87,0,0,0,859.06,383.78Zm-10.83-14.92a12.17,12.17,0,1,1,11,13.23A12.17,12.17,0,0,1,848.23,368.86Zm9.41,30.2a29.21,29.21,0,1,0-26.36-31.78A29.21,29.21,0,0,0,857.64,399.06ZM844.41,368.5a16,16,0,1,1,14.45,17.42A16,16,0,0,1,844.41,368.5Zm2.15.2a13.85,13.85,0,1,0,15.06-12.52A13.86,13.86,0,0,0,846.56,368.7Zm1.67.16a12.17,12.17,0,1,1,11,13.23A12.17,12.17,0,0,1,848.23,368.86Zm10.83,14.92a13.86,13.86,0,1,0-12.5-15.08A13.87,13.87,0,0,0,859.06,383.78Zm-10.83-14.92a12.17,12.17,0,1,1,11,13.23A12.17,12.17,0,0,1,848.23,368.86Zm10.83,14.92a13.86,13.86,0,1,0-12.5-15.08A13.87,13.87,0,0,0,859.06,383.78Zm-10.83-14.92a12.17,12.17,0,1,1,11,13.23A12.17,12.17,0,0,1,848.23,368.86Z"/><polygon class="cls-4" points="857.35 341.59 868.53 342.63 868.64 334.66 858.7 333.74 857.35 341.59"/><polygon class="cls-4" points="878.27 347.34 885.45 355.98 891.16 350.42 884.79 342.74 878.27 347.34"/><polygon class="cls-4" points="889.01 366.2 887.97 377.38 895.95 377.49 896.87 367.55 889.01 366.2"/><polygon class="cls-4" points="883.27 387.13 874.63 394.3 880.18 400.01 887.87 393.64 883.27 387.13"/><polygon class="cls-4" points="864.41 397.86 853.23 396.82 853.11 404.8 863.05 405.72 864.41 397.86"/><polygon class="cls-4" points="843.48 392.12 836.31 383.48 830.59 389.03 836.97 396.72 843.48 392.12"/><polygon class="cls-4" points="832.74 373.26 833.78 362.08 825.81 361.96 824.89 371.9 832.74 373.26"/><polygon class="cls-4" points="838.49 352.33 847.13 345.16 841.57 339.44 833.89 345.82 838.49 352.33"/></g><path class="cls-2" d="M696.39,388.42a57.05,57.05,0,1,0,58.53-55.54A57.05,57.05,0,0,0,696.39,388.42Zm30.4.8a26.64,26.64,0,1,1,25.93,27.33A26.64,26.64,0,0,1,726.79,389.22Z"/><polygon class="cls-2" points="743.9 334.96 765.83 335.54 765.03 319.99 745.52 319.47 743.9 334.96"/><polygon class="cls-2" points="785.45 343.46 800.55 359.37 810.98 347.81 797.55 333.65 785.45 343.46"/><polygon class="cls-2" points="808.83 378.84 808.25 400.77 823.8 399.97 824.32 380.46 808.83 378.84"/><polygon class="cls-2" points="800.33 420.39 784.42 435.48 795.99 445.92 810.14 432.49 800.33 420.39"/><polygon class="cls-2" points="764.95 443.76 743.02 443.18 743.82 458.74 763.33 459.25 764.95 443.76"/><polygon class="cls-2" points="723.4 435.27 708.31 419.35 697.87 430.92 711.3 445.08 723.4 435.27"/><polygon class="cls-2" points="700.03 399.89 700.61 377.96 685.05 378.76 684.54 398.26 700.03 399.89"/><polygon class="cls-2" points="708.52 358.34 724.44 343.24 712.87 332.81 698.71 346.24 708.52 358.34"/><path class="cls-2" d="M768.58,375.94l-18.7-5.55-14.15,13.44,4.55,18.95L759,408.33l14.16-13.42Zm-14.31,19.6a6.18,6.18,0,1,1,6.34-6A6.17,6.17,0,0,1,754.27,395.54Z"/><path class="cls-2" d="M826.76,170.88c-10.65,12.6-29,17.28-45.12,18.1-16.38.84-34.78-.88-49.52-8.47-6.46-3.31-12.38-8.1-16.09-14.28-4-6.63-4.4-13.56,0-19.68,3.58-4.93,11.31-8.4,11.38-13s-3.71-8.21-4.72-12.61c-1.71-7.51,2.49-13.07,7.88-17.86,12.77-11.39,9.5-26.65,17.43-40.9,4.51-8.1,17.16-23,39.44-15.85,8.48,2.72,14.21,10.38,17.59,18.29,4,9.3.94,21.42,5.82,30.37,4.17,7.63,10.4,8.92,14.37,16.92,1.73,3.47,2.53,7.5-1.3,15.59-1.39,2.93-2.88,7.4-1.67,10.92,1.67,4.87,7.51,7.17,9.38,12.26C834.23,157.72,831.46,165.32,826.76,170.88Z"/><path class="cls-2" d="M721,168.21c-7.66-1.33-10.83-11.76-5.91-17,3.12-3.32,7.77-4.81,10.89-8.12,5.15-5.44.68-10.48-2-15.93-5.81-11.82,2.41-19.63,11.08-26.76,6.58-5.42,8-11.71,8.5-19.81,0-.12-.21-.14-.22,0-.68,6-1.6,11.82-5.9,16.43-3.5,3.74-8.13,6.27-11.52,10.17-5.69,6.52-6.46,13.68-2.6,21.28,1.1,2.18,3.23,4.68,3.66,7.05,1,5.59-3.3,8.41-7.4,11.1-3.14,2.06-6.61,4.35-7.83,8.06-1.85,5.6,3.19,13.32,9.14,14C721.19,168.71,721.31,168.27,721,168.21Z"/><path class="cls-2" d="M725.1,174c-4.67-2.87-9.74-5.49-12.45-10.42-4-7.3,1.19-12.68,6-17.73,2.09-2.18,3.83-4.35,3.77-7.45-.1-4.65-3.49-8.61-4-13.23-1.2-11,9.95-17.5,15.63-25.47,5.81-8.15,7.8-17.77,10-27.26a.17.17,0,0,0-.32-.08c-2.9,12.13-6.73,23.5-15.63,32.74-6.21,6.45-12.82,13.43-10.13,23,.67,2.33,2,4.47,2.64,6.81,1.21,4.63-.1,7.6-3.26,10.86s-6.54,6.31-7.17,10.81c-1.22,8.73,7.58,14.67,14.49,18.15A.39.39,0,0,0,725.1,174Z"/><path class="cls-2" d="M833.76,148c-3.7-5.4-9.69-8.18-7.93-15.73,1.22-5.2,4.21-9.31,3.28-14.88-.78-4.6-3.69-8.22-7.15-11.33-4.39-3.94-9.27-7.16-12.42-12.23-3.43-5.54-4.88-12-6.38-18.18,0-.12-.25-.08-.22,0,1.53,8.43,3.44,17.09,9.75,23.52,3.29,3.36,7.33,5.94,10.58,9.33,5.86,6.1,5.64,12.62,2.85,20-1.28,3.38-2.43,6.78-.93,10.29s4.81,5.76,7.09,8.73c9.68,12.62-6.11,27.86-18.88,29.77-.57.09-.52.95.07.88,9.53-1.14,19.81-9.32,22.17-18.44A14.29,14.29,0,0,0,833.76,148Z"/><path class="cls-2" d="M833.15,154.61c.06-5.53-3.37-8.69-6-13.11-4.08-6.94.55-13.54,1.3-20.73.51-5-1.44-9.32-4.49-13.07-4.11-5.06-9.45-8.74-12.77-14.5A35.19,35.19,0,0,1,806.74,73c0-.13-.19-.12-.2,0a33.64,33.64,0,0,0,8.3,26.45c4.14,4.6,9.79,8.42,12,14.51,2.34,6.45-1.12,12.16-2.19,18.48a13.85,13.85,0,0,0,2.42,10.77c1.65,2.42,3.68,4.64,4.56,7.53,1.18,3.91.19,8.19-1.54,11.82-5.45,11.47-18.15,18.38-30.09,19.9-.42,0-.4.72,0,.67A41.59,41.59,0,0,0,827.71,168C830.69,164.23,833.09,159.51,833.15,154.61Z"/><path class="cls-14" d="M771.52,120.36c-30.08,31.53-67.47,97.4-60.08,110.51,8.24,14.59,51.61-30.28,50.25-32.43-1.16-1.82,13.83-41.49,24.71-70.5S779,112.57,771.52,120.36Z"/><path class="cls-5" d="M734.67,158.16l43.18,7.77s10.78-30.6,12.92-47.59c1.2-9.52-4.4-9.91-11.44-4.85C754.69,131.2,734.67,158.16,734.67,158.16Z"/><path class="cls-4" d="M763.67,134.82a14.87,14.87,0,0,0-1.37,4.08,14.44,14.44,0,0,0-.26,4.31,17,17,0,0,0,1.63-8.39Zm-22.5,18.09a16.92,16.92,0,0,0-2.14-.28,7.16,7.16,0,0,0-.58.7A18.9,18.9,0,0,0,741,154a15,15,0,0,0,4.3.28A15.28,15.28,0,0,0,741.17,152.91Zm45.62-23.34a15.34,15.34,0,0,0-2.87-3.23,16.1,16.1,0,0,0,1.93,3.87,20.93,20.93,0,0,0,2.06,2.49c.06-.28.15-.56.21-.82v0A21.67,21.67,0,0,0,786.79,129.57Zm-17.79,30a15.48,15.48,0,0,0-3.23,2.85,16.86,16.86,0,0,0,7.11-4.8A15.35,15.35,0,0,0,769,159.61Z"/><path class="cls-2" d="M777.57,158.86c-6.55-1.75-24.44-6-36.42-7.2-.07,0-.13.27-.06.29,9.81,2.52,29.72,6.14,36.39,7.31C777.6,159.28,777.69,158.89,777.57,158.86Z"/><path class="cls-10" d="M790.78,118.35c-2.15,17-12.94,47.57-12.94,47.57L744.77,160l42.39-49.67C789.92,110.45,791.46,112.91,790.78,118.35Z"/><path class="cls-5" d="M754,229.57H863.42s-12.9-75-48.16-115.12c-9.51-10.83-23.81-9-32-1.67-2,1.83-25,32-28.6,47.6-2.36,10.12,7.18,21.28,7.18,21.28Z"/><path class="cls-4" d="M813.41,136.61a14.88,14.88,0,0,0-3.24,2.87,15.22,15.22,0,0,0,3.86-1.95,14.75,14.75,0,0,0,3.23-2.84A14.6,14.6,0,0,0,813.41,136.61Zm26.18,85a14.86,14.86,0,0,0-3.23,2.87,15,15,0,0,0,3.85-1.95,15.14,15.14,0,0,0,3.26-2.85A15.29,15.29,0,0,0,839.59,221.61ZM802.85,190.8a15.13,15.13,0,0,0-3.25,2.85,14.75,14.75,0,0,0,3.87-1.93,14.35,14.35,0,0,0,3.23-2.87A15,15,0,0,0,802.85,190.8ZM761,220.24a15,15,0,0,0-3.23,2.87,17,17,0,0,0,7.11-4.8A14.66,14.66,0,0,0,761,220.24Zm8-60.63a15.48,15.48,0,0,0-3.23,2.85,16.86,16.86,0,0,0,7.11-4.8A15.35,15.35,0,0,0,769,159.61Zm48.92,9.95a15.22,15.22,0,0,0-2.84-3.23,15.07,15.07,0,0,0,1.92,3.85,14.21,14.21,0,0,0,2.87,3.24A15.22,15.22,0,0,0,817.92,169.56Zm38.46,35.12a15,15,0,0,0-2.87-3.26,15,15,0,0,0,2,3.88,15.22,15.22,0,0,0,2.84,3.23A14,14,0,0,0,856.38,204.68ZM786,212.28a14.83,14.83,0,0,0-2.86-3.24,16.81,16.81,0,0,0,4.79,7.09A14.63,14.63,0,0,0,786,212.28Zm.75-82.71a15.34,15.34,0,0,0-2.87-3.23,16.43,16.43,0,0,0,4.8,7.1A15.4,15.4,0,0,0,786.79,129.57Zm13.28-61.4a15.06,15.06,0,0,0-4.31-.28,14.72,14.72,0,0,0,4.09,1.37,15.6,15.6,0,0,0,4.33.28A15.41,15.41,0,0,0,800.07,68.17Zm21.15,137.21a15.38,15.38,0,0,0-4.3-.28,15.16,15.16,0,0,0,4.09,1.37,14.48,14.48,0,0,0,4.32.26A15.48,15.48,0,0,0,821.22,205.38ZM785.51,177a15.2,15.2,0,0,0-4.33-.26,15.36,15.36,0,0,0,4.12,1.37,16.2,16.2,0,0,0,4.3.26A15,15,0,0,0,785.51,177Zm51.08-20.86a16.15,16.15,0,0,0-4.3-.25,15.53,15.53,0,0,0,4.11,1.37,16.17,16.17,0,0,0,4.3.25A15.3,15.3,0,0,0,836.59,156.18Zm-29.44-42.75a15.13,15.13,0,0,0-4.32-.28,15.53,15.53,0,0,0,4.11,1.37,14.33,14.33,0,0,0,4.3.26A15,15,0,0,0,807.15,113.43Zm32.91,68.89a15.18,15.18,0,0,0-1.37,4.11,16.25,16.25,0,0,0-.26,4.31,15,15,0,0,0,1.37-4.09A16,16,0,0,0,840.06,182.32Zm-69.71,5.61A15.72,15.72,0,0,0,769,192a15.5,15.5,0,0,0-.28,4.31,15,15,0,0,0,1.37-4.09A15.22,15.22,0,0,0,770.35,187.93ZM813,219.06a15.35,15.35,0,0,0-1.35,4.09,15.6,15.6,0,0,0-.28,4.33,15.41,15.41,0,0,0,1.37-4.11A15.13,15.13,0,0,0,813,219.06Zm-17.36-68.94a15.18,15.18,0,0,0-1.37,4.11,15.84,15.84,0,0,0-.26,4.31,15.18,15.18,0,0,0,1.37-4.11A15.84,15.84,0,0,0,795.66,150.12Z"/><path class="cls-2" d="M781,178.62a93.44,93.44,0,0,1,13.6,2.36c2.21.58,4.38,1.27,6.55,2,1.08.36,2.16.69,3.26,1a14.87,14.87,0,0,0,3.5.69.08.08,0,0,1,0,.16,25.4,25.4,0,0,1-3.38-.09,23.51,23.51,0,0,1-3.22-.64c-2.25-.57-4.47-1.25-6.71-1.85-4.53-1.2-9.06-2.41-13.66-3.28C780.72,179,780.77,178.59,781,178.62Z"/><path class="cls-2" d="M769.62,182.58a102.91,102.91,0,0,1,11.38-.45c1.9,0,3.78.19,5.68.39q1.35.15,2.7.33c1,.14,2,.41,3,.53.1,0,.1.17,0,.16-.94-.09-1.9,0-2.84,0l-2.84-.1c-1.89-.06-3.78-.1-5.68-.18-3.79-.16-7.56-.29-11.36-.32C769.41,182.89,769.42,182.6,769.62,182.58Z"/><path class="cls-14" d="M711.44,230.87c7,9.73,25.83,11.29,72.74,19.67,6.49,1.16,27-42.45,20.12-44-8.65-2-42.65-7.93-45.19-8.05C737.67,197.45,706.66,224.26,711.44,230.87Z"/><path class="cls-14" d="M794.92,204.52s19.85,2.66,29.85,7.29c13.39,6.2,22.4,17.06,25.9,21.84,7.31,10,18.08,39.16,10.22,43.73-7.12,4.13-16.62-26.25-16.62-26.25s14.8,29.38,5.31,32.78-18.51-32.49-18.51-32.49,14.53,30.52,4.19,32.49c-7.81,1.48-17.81-30.57-17.81-30.57s12.3,26.32,4.34,28.19c-8.81,2.07-19.9-26.94-19.9-26.94-21,1.35-31.63-6.62-38.48-13.19C761.76,239.81,794.92,204.52,794.92,204.52Z"/><path class="cls-2" d="M839.8,240.64c1.86,3.39,3.77,6.81,5.33,10.35s3,7.14,4.21,10.81a65.86,65.86,0,0,1,3.38,14.73c-1.65-8.84-7-21.61-8.58-25.15s-2.93-7.15-4.48-10.68C839.62,240.61,839.76,240.56,839.8,240.64Z"/><path class="cls-2" d="M826.91,246c2.19,4.42,4.53,8.74,6.53,13.27s3.47,8.95,5.15,13.58c.12.36-.11.31-.25,0-1.86-4.56-3.93-8.63-5.83-13.17s-3.65-9.15-5.71-13.6C826.77,246,826.88,246,826.91,246Z"/><path class="cls-2" d="M815,248.66c3.7,6.6,6.17,13.87,8.43,21.06.11.36-.18.26-.32-.1-2.67-7.05-4.71-12.61-8.34-20.83C814.73,248.66,814.93,248.52,815,248.66Z"/><path class="cls-2" d="M811.34,273.49a37,37,0,0,0,4.34,5,15.74,15.74,0,0,0,2.58,2,4.66,4.66,0,0,0,3,.86,2.84,2.84,0,0,0,2.15-2,9,9,0,0,0,.48-3.16,27.17,27.17,0,0,0-.87-6.47l-1-4.14,1.84,3.84a70.75,70.75,0,0,0,3.69,6.73,26.65,26.65,0,0,0,4.7,5.88c.92.76,2,1.41,2.95,1.13a4,4,0,0,0,2.65-1.87c1.06-2,.55-4.65.18-7.14l-.64-4.32,2,3.91a33,33,0,0,0,4.14,6.42,11.87,11.87,0,0,0,2.73,2.45,3.37,3.37,0,0,0,3.07.49,3.63,3.63,0,0,0,2-2.44,12,12,0,0,0,.48-3.63,33.88,33.88,0,0,0-1-7.55l-1.78-7.49,3.27,7a28.69,28.69,0,0,0,2.52,4.36,10.38,10.38,0,0,0,3.42,3.32,2.43,2.43,0,0,0,1.94.19,3.75,3.75,0,0,0,1.65-1.33,8.91,8.91,0,0,0,1.27-4.55,32.46,32.46,0,0,0-1.45-10c-.95-3.32-2-6.62-3.12-9.87-2.34-6.47-5-13-9-18.52A75.87,75.87,0,0,0,835,217.88,76,76,0,0,1,850,232.19c4.3,5.57,7,12.09,9.52,18.56,1.22,3.26,2.34,6.55,3.31,9.9a33.18,33.18,0,0,1,1.57,10.47,10.14,10.14,0,0,1-1.5,5.33,5.21,5.21,0,0,1-2.34,1.88,4,4,0,0,1-3.1-.22,11.77,11.77,0,0,1-4-3.79,30.72,30.72,0,0,1-2.7-4.61l1.48-.53a32.33,32.33,0,0,1,1.06,8,13.61,13.61,0,0,1-.58,4.11,5.12,5.12,0,0,1-2.88,3.37,4.87,4.87,0,0,1-4.41-.62,13.4,13.4,0,0,1-3.06-2.78,34.56,34.56,0,0,1-4.31-6.76l1.34-.41a32.87,32.87,0,0,1,.43,3.92,7.76,7.76,0,0,1-.84,4.11,5.32,5.32,0,0,1-3.51,2.42,3.43,3.43,0,0,1-2.29-.28,7.91,7.91,0,0,1-1.74-1.17,27.17,27.17,0,0,1-4.81-6.25,68.51,68.51,0,0,1-3.61-6.9l.83-.29a25.66,25.66,0,0,1,.72,6.71,9.55,9.55,0,0,1-.65,3.36,3.36,3.36,0,0,1-2.63,2.2,5,5,0,0,1-3.24-1,16.69,16.69,0,0,1-2.56-2.17A37,37,0,0,1,811.34,273.49Z"/><path class="cls-2" d="M738.41,203.71c3.12-2,12-6.61,20.63-5.33.1,0,.1.15,0,.15-7.16,0-17.38,3.64-20.56,5.31A.07.07,0,0,1,738.41,203.71Z"/><path class="cls-7" d="M906.83,190.7a40,40,0,0,1,41.27-8.45l-23.82,22.48,7.63,17.3,16.84,8.62,23.83-22.5a40,40,0,1,1-65.75-17.45Z"/><path class="cls-7" d="M794.56,406.72a40,40,0,0,1-41.27,8.45l23.81-22.48-7.63-17.3-16.83-8.62-23.83,22.5a40,40,0,1,1,65.75,17.45Z"/><rect class="cls-7" x="836.2" y="198.28" width="35.64" height="194.58" transform="translate(1225.3 1119.5) rotate(-133.35)"/><rect class="cls-1" x="846.68" y="255.51" width="14.68" height="80.13" transform="translate(1225.29 1119.5) rotate(-133.35)"/><path class="cls-14" d="M822.14,119c26.43,18.43,66.46,55.2,69.74,71.91,3.37,17.12-10.68,63-18.35,78.48-3.2,6.44-55.84-11.39-52.6-18.37,6.59-14.21,20.46-47.32,20-52-.46-4.44-21.21-40.46-32.43-61.14C790.5,104.72,803.47,106,822.14,119Z"/><path class="cls-14" d="M824.34,243.44s-8.73,19.08-13.85,31.82c-2.86,7.11-6.67,19.74-6.38,25.92.44,9.25,8.16,47.66,17.51,46,8.47-1.51-2.36-33.67-2.36-33.67s8.06,33.41,17.91,29.72-7.2-38.4-7.2-38.4,9,34.14,18.61,28.72c7.23-4.1-6.45-36.4-6.45-36.4s8,29.3,15.59,25.4c8.41-4.3-2.35-34.91-2.35-34.91,17.69-13.15,22.72-25,23.74-34.82C879.11,252.81,841,245.1,824.34,243.44Z"/><path class="cls-2" d="M815.74,302.12c.8,4,1.59,8,2.74,11.85s2.44,7.71,3.95,11.46c3.7,9.2,7.46,14.37,7.26,14-4.66-8.16-9-22-10.16-25.84s-2.49-7.68-3.65-11.54A.07.07,0,1,0,815.74,302.12Z"/><path class="cls-2" d="M829.65,297.71c0,5.63,4.28,21,8.84,29.29.19.35.29.17.16-.2-1.6-4.89-7.53-24.19-8.88-29.13C829.74,297.59,829.65,297.63,829.65,297.71Z"/><path class="cls-2" d="M840.91,291.77c.73,7.15,3.41,14.83,7.51,22.47.18.35.32.09.19-.29-2.64-7.42-4.76-13.23-7.43-22.24A.14.14,0,0,0,840.91,291.77Z"/><path class="cls-5" d="M860.91,145l-42.06,17s-15.18-26.27-20.44-42.56c-3-9.13,2.43-13.67,10.29-10C836.2,122.21,860.91,145,860.91,145Z"/><path class="cls-4" d="M836.49,127a15,15,0,0,0-1.37,4.09,16,16,0,0,0-.26,4.33,15.18,15.18,0,0,0,1.37-4.11A16.22,16.22,0,0,0,836.49,127Zm-29.34-13.61a15.13,15.13,0,0,0-4.32-.28,15.53,15.53,0,0,0,4.11,1.37,14.33,14.33,0,0,0,4.3.26A15,15,0,0,0,807.15,113.43Zm25.14,42.5c.24.12.45.23.68.32l.93-.37A9.7,9.7,0,0,0,832.29,155.93Zm-18.88-19.32a14.88,14.88,0,0,0-3.24,2.87,15.22,15.22,0,0,0,3.86-1.95,14.75,14.75,0,0,0,3.23-2.84A14.6,14.6,0,0,0,813.41,136.61Z"/><path class="cls-2" d="M818.18,153.82c6.1-2.93,22.89-10.42,34.43-13.86.07,0,.18.24.12.27-9.18,4.31-28.06,11.58-34.39,14C818.22,154.25,818.06,153.88,818.18,153.82Z"/><path class="cls-2" d="M821.24,161a10.64,10.64,0,0,1-2.2.8,32.53,32.53,0,0,1-2.57-4.41c-1.25-2.5-2.55-5-3.81-7.48-2.51-5-5.31-9.81-8-14.69-.07-.13-.3,0-.24.11q1.59,3.8,3.28,7.52a.71.71,0,0,0-.1-.14c-.73-1-1.47-2.07-2.21-3.1-.06-.08-.2,0-.14.09.68,1.06,1.38,2.12,2.08,3.18.38.58.78,1.15,1.18,1.72,1.2,2.59,2.46,5.15,3.81,7.68,1.49,2.77,5.41,10.4,6.32,10.51a29.71,29.71,0,0,0,2.72-1.47C821.53,161.22,821.44,160.9,821.24,161Z"/><path class="cls-2" d="M811.34,273.18c1.77-4.7,3.68-9.34,5.6-14l5.88-13.83L835,217.88c-1.37,4.83-3.13,9.54-4.94,14.22s-3.79,9.29-5.73,13.92-4.07,9.16-6.23,13.69S813.71,268.75,811.34,273.18Z"/><path class="cls-6" d="M794.53,104.4c8,.47,9.16,8.87,5.23,17.54s-11,11.94-14.87,11.62-7.66-4.28-4.94-14.37C783.43,106.35,789.71,104.12,794.53,104.4Z"/><path class="cls-14" d="M798.33,109.27c.24,1.85-3.76,15.93-11.68,18.47-2.58.82-7.69-13-7.69-13l-.61-.94-8.56-13.14,12.8-17.09,1.9-2.34s2.11,3.75,4.68,8.45l.37.66c.15.27.3.51.43.76.39.7.79,1.41,1.17,2.13.29.54.58,1.07.87,1.66s.58,1.14.89,1.72A101.54,101.54,0,0,1,798.33,109.27Z"/><path class="cls-2" d="M789.17,89.63a31.46,31.46,0,0,1-10.82,24.12l-8.56-13.14,12.8-17.09,1.9-2.34S786.6,84.93,789.17,89.63Z"/><path class="cls-14" d="M741.79,83.77c2.41,27.41,19.1,29.06,25,28.53,5.36-.48,23.57-2.79,24-30.3s-13.07-35-25.4-34.61S739.38,56.36,741.79,83.77Z"/><path class="cls-2" d="M746.68,79.24c.63-.17,1.18-.42,1.79-.65a3.06,3.06,0,0,0,1.69-1A1,1,0,0,0,750,76.4a2.44,2.44,0,0,0-2.45-.23,3.55,3.55,0,0,0-2,1.56A1,1,0,0,0,746.68,79.24Z"/><path class="cls-2" d="M764.24,76.92a17,17,0,0,1-1.89-.14,3,3,0,0,1-1.91-.5,1,1,0,0,1-.17-1.18,2.42,2.42,0,0,1,2.3-.89,3.58,3.58,0,0,1,2.39.93A1.05,1.05,0,0,1,764.24,76.92Z"/><path class="cls-2" d="M761.57,84.3c0-.08.16.07.16.15.16,1.86.65,4,2.41,4.4.05,0,.06.11,0,.1C762.05,88.9,761.42,86.09,761.57,84.3Z"/><path class="cls-2" d="M763,82.16c3-.57,3.9,5.4,1.15,5.93S760.52,82.64,763,82.16Z"/><path class="cls-2" d="M764.23,82.29c.58.26,1.18.78,1.82.74s1.19-.75,1.57-1.43c0-.07.1,0,.12.06.19,1.14-.07,2.38-1.27,2.74s-2.06-.55-2.52-1.66C763.86,82.53,764,82.19,764.23,82.29Z"/><path class="cls-2" d="M750.77,85.17c0-.07-.13.11-.11.18.36,1.84.46,4-1.11,4.9,0,0,0,.12,0,.1C751.58,89.73,751.41,86.85,750.77,85.17Z"/><path class="cls-2" d="M748.81,83.5c-3,.27-2.27,6.27.52,6S751.33,83.29,748.81,83.5Z"/><path class="cls-2" d="M747.61,84.05c-.44.38-.84,1-1.4,1.12s-1.22-.46-1.71-1c0-.06-.1,0-.09.08.11,1.15.64,2.3,1.77,2.38s1.65-1,1.78-2.18C748,84.21,747.78,83.9,747.61,84.05Z"/><path class="cls-2" d="M764.69,98.74c-.35.52-.67,1.2-1.33,1.39a5.17,5.17,0,0,1-2.07-.06c-.06,0-.1.06-.06.11a2.56,2.56,0,0,0,2.54.52,2,2,0,0,0,1.11-1.92C764.89,98.67,764.74,98.66,764.69,98.74Z"/><path class="cls-2" d="M755.08,93s0,2.83.21,4.15A7.17,7.17,0,0,0,761.86,94c.08-.13-.12-.25-.22-.15a9.59,9.59,0,0,1-5.47,2.45c-.14-.36.14-4.87-.07-4.85a11.56,11.56,0,0,0-2.89,1.1c-.2-5.91.55-11.81.26-17.69a.18.18,0,0,0-.36,0C751.89,81,752,87.77,752,93.88,752,94.64,754.59,93.26,755.08,93Z"/><path class="cls-2" d="M757.06,96.72a6.81,6.81,0,0,0,3,1.66,3.11,3.11,0,0,0,1.87-.19c1.28-.56,1.12-1.8.7-2.81a7.47,7.47,0,0,0-.86-1.51A8.88,8.88,0,0,1,757.06,96.72Z"/><path class="cls-15" d="M760.1,98.38a3.11,3.11,0,0,0,1.87-.19c1.28-.56,1.12-1.8.7-2.81A3.2,3.2,0,0,0,760.1,98.38Z"/><path class="cls-2" d="M789.57,84.49c-4.93,1.73-8.72-9.59-8.72-9.59s-22.35,1-28-16.19c0,0-1.29,12-11.5,19.48,0,0-3.32-21.16,11.14-28.18,0,0,18.1-10.51,32,2.23S792.87,83.33,789.57,84.49Z"/><path class="cls-2" d="M752.54,57.43a19.51,19.51,0,0,0,2.69,7.81,20.39,20.39,0,0,0,5.59,6.22,18.37,18.37,0,0,0,1.77,1.14l.9.55c.31.16.64.3,1,.44.64.27,1.27.58,1.93.83s1.34.4,2,.58c.33.09.67.2,1,.27l1,.17,2.06.32c1.38.08,2.76.09,4.13.08-1.36-.27-2.71-.4-4-.69l-2-.48-1-.24-1-.35c-.63-.24-1.25-.47-1.89-.68s-1.2-.59-1.8-.87l-.9-.44-.85-.53a18.45,18.45,0,0,1-1.66-1.11A23.49,23.49,0,0,1,756,64.73a25.2,25.2,0,0,1-2-3.5A23.57,23.57,0,0,1,752.54,57.43Z"/><path class="cls-14" d="M786.4,83.6s4.43-9.5,8.64-8.07,1.92,14.48-2.29,17a4.66,4.66,0,0,1-6.58-1.38Z"/><path class="cls-2" d="M794.29,79.26a.06.06,0,0,1,0,.11c-2.93,1.84-4.08,5.06-4.71,8.3.74-1.33,1.9-2.2,3.67-1.35.09,0,0,.18-.06.18A2.86,2.86,0,0,0,790.3,88a13.37,13.37,0,0,0-1,2.77c-.1.31-.64.25-.59-.1,0,0,0,0,0-.07C787.9,86.61,790,80.42,794.29,79.26Z"/><path class="cls-4" d="M789.9,91.74a1.11,1.11,0,1,0,.81-1.36A1.12,1.12,0,0,0,789.9,91.74Z"/><path class="cls-4" d="M792.11,89.29a.81.81,0,1,0,.58-1A.81.81,0,0,0,792.11,89.29Z"/><path class="cls-5" d="M795.88,78.55l1.57-.55a.58.58,0,0,0,.36-.75h0a.58.58,0,0,0-.75-.36l-1.56.54a.6.6,0,0,0-.37.75h0A.6.6,0,0,0,795.88,78.55Z"/><path class="cls-5" d="M796.24,80.22l1.65-.2a.58.58,0,0,0,.52-.65h0a.59.59,0,0,0-.66-.52l-1.65.21a.58.58,0,0,0-.51.65h0A.58.58,0,0,0,796.24,80.22Z"/><path class="cls-5" d="M779.48,78.61l4.68,4.61,6-9-2.13-2Zm2.62.24,5.5-4.61.49.48-4.31,5.73Z"/></svg>