<svg id="Слой_1" data-name="Слой 1" xmlns="http://www.w3.org/2000/svg" viewBox="0 0 1252 796"><defs><style>.cls-1{fill:#306;}.cls-2{fill:#ffc800;}.cls-3{opacity:0.1;}.cls-4{fill:#4a148c;}.cls-5{fill:#fff;}.cls-6{fill:#ffaba1;}.cls-7{fill:#a8a8a8;}.cls-8{fill:#ff9cbf;}.cls-9{opacity:0.2;}.cls-10{fill:#ececec;}.cls-11{fill:#c8c8c8;}</style></defs><path class="cls-1" d="M941.1,190.37a26.28,26.28,0,0,1,4.52,9.21q1.18,4.69-1.46,10.78-.76,1.84-2,4.41a34.24,34.24,0,0,0-2.09,5.47,17.85,17.85,0,0,0-.72,5.88,9.92,9.92,0,0,0,2,5.56,9.34,9.34,0,0,0,3.26,2.87,9.76,9.76,0,0,0,3.78,1.06,9.87,9.87,0,0,0,3.94-.56,13.38,13.38,0,0,0,3.65-1.91,11.89,11.89,0,0,0,3.18-3.41,15.68,15.68,0,0,0,1.71-4,17.89,17.89,0,0,0,.62-4.17,32.24,32.24,0,0,0-.07-3.87l12.12-.39a22.07,22.07,0,0,1,.56,7.43,24.36,24.36,0,0,1-1.76,7.08,26.49,26.49,0,0,1-3.79,6.36,29.71,29.71,0,0,1-5.51,5.28,30.12,30.12,0,0,1-7.68,4.09,21.78,21.78,0,0,1-8.52,1.3,20.91,20.91,0,0,1-8.62-2.4,23.06,23.06,0,0,1-7.81-7,22.16,22.16,0,0,1-3.15-5.72,17.93,17.93,0,0,1-1-5.58,21.51,21.51,0,0,1,.59-5.57,43.84,43.84,0,0,1,1.86-5.79c.69-1.65,1.39-3.26,2.13-4.85a28.11,28.11,0,0,0,1.7-4.74,14,14,0,0,0,.38-4.71,9.34,9.34,0,0,0-1.93-4.63ZM925.05,169l9.4,12.74L924.2,189.3l-9.4-12.74Z"/><path class="cls-1" d="M985.29,169.75a28.93,28.93,0,0,1,2-11.1q2-4.92,8.32-8.57,1.89-1.14,4.67-2.59a38.56,38.56,0,0,0,5.42-3.46,20.06,20.06,0,0,0,4.47-4.73,10.9,10.9,0,0,0,1.83-6.24,10.35,10.35,0,0,0-1-4.67,10.59,10.59,0,0,0-2.65-3.4,11,11,0,0,0-3.84-2.08,14.9,14.9,0,0,0-4.48-.69,13,13,0,0,0-5,.94,17.18,17.18,0,0,0-4.1,2.4,19.52,19.52,0,0,0-3.27,3.28,34.29,34.29,0,0,0-2.46,3.46l-11-7.56a24.39,24.39,0,0,1,4.35-6.94,26.35,26.35,0,0,1,6.18-5.1,28.64,28.64,0,0,1,7.5-3.15,32,32,0,0,1,8.32-1.08,33.16,33.16,0,0,1,9.45,1.39,24.21,24.21,0,0,1,8.39,4.41,23,23,0,0,1,6.05,7.76,25.31,25.31,0,0,1,2.33,11.28,24.32,24.32,0,0,1-.94,7.12,19.85,19.85,0,0,1-2.71,5.61,23.3,23.3,0,0,1-4.17,4.54,45.88,45.88,0,0,1-5.42,3.91q-2.52,1.51-5,2.9a31.29,31.29,0,0,0-4.6,3.09,15.22,15.22,0,0,0-3.41,3.91,10.27,10.27,0,0,0-1.32,5.36Zm.25,29.37v-17.4h14v17.4Z"/><path class="cls-1" d="M116.57,187.5a29,29,0,0,1-.32-11.27q.94-5.22,6.36-10.11c1.07-1,2.42-2.17,4-3.5a38.13,38.13,0,0,0,4.58-4.51,19.8,19.8,0,0,0,3.4-5.56,10.93,10.93,0,0,0,.49-6.48,10.23,10.23,0,0,0-2-4.35,10.69,10.69,0,0,0-3.3-2.79,11.16,11.16,0,0,0-4.19-1.23,14.54,14.54,0,0,0-4.52.25,13,13,0,0,0-4.74,2,17,17,0,0,0-3.51,3.19,20.28,20.28,0,0,0-2.53,3.89,38.1,38.1,0,0,0-1.69,3.9l-12.29-5.13a24.3,24.3,0,0,1,2.81-7.68,26.61,26.61,0,0,1,5-6.28,29.19,29.19,0,0,1,6.68-4.64,32.49,32.49,0,0,1,7.92-2.77,33.43,33.43,0,0,1,9.54-.61,24.12,24.12,0,0,1,9.11,2.58A22.77,22.77,0,0,1,145,132.7a25.11,25.11,0,0,1,4.62,10.56,24.29,24.29,0,0,1,.56,7.16,19.82,19.82,0,0,1-1.49,6.05,23.75,23.75,0,0,1-3.13,5.31,47.7,47.7,0,0,1-4.49,4.94c-1.44,1.34-2.88,2.63-4.33,3.89a30.1,30.1,0,0,0-3.87,4,15.13,15.13,0,0,0-2.52,4.53,10.29,10.29,0,0,0-.18,5.52Zm6.34,28.69-3.61-17,13.69-2.9,3.61,17Z"/><path class="cls-2" d="M218.66,656.91V341.19a29.35,29.35,0,0,1,29.43-29.43h175c15.52,0,29.44,13.38,29.44,29.43,0,16.59-13.92,30-29.44,30h-145v97.92H402.74c16.05,0,29.43,13.92,29.43,29.44,0,16.58-13.38,30-29.43,30H278.06V656.91c0,16.05-13.38,29.43-30,29.43A29.35,29.35,0,0,1,218.66,656.91Z"/><path class="cls-3" d="M218.66,656.91V341.19a29.35,29.35,0,0,1,29.43-29.43h175c15.52,0,29.44,13.38,29.44,29.43,0,16.59-13.92,30-29.44,30h-145v97.92H402.74c16.05,0,29.43,13.92,29.43,29.44,0,16.58-13.38,30-29.43,30H278.06V656.91c0,16.05-13.38,29.43-30,29.43A29.35,29.35,0,0,1,218.66,656.91Z"/><path class="cls-2" d="M196.32,656.91V341.19a29.34,29.34,0,0,1,29.43-29.43h175c15.52,0,29.43,13.38,29.43,29.43,0,16.59-13.91,30-29.43,30h-145v97.92H380.4c16.05,0,29.43,13.92,29.43,29.44,0,16.58-13.38,30-29.43,30H255.72V656.91c0,16.05-13.38,29.43-30,29.43A29.34,29.34,0,0,1,196.32,656.91Z"/><path class="cls-2" d="M646,598.05h-130L489.7,667.61a30,30,0,0,1-27.83,18.73,31.16,31.16,0,0,1-10.17-1.61c-15.52-5.88-23-23-17.66-38.53L552.3,331c4.82-11.78,16.59-19.27,28.36-18.73C593,311.76,604.21,319.25,609,331L727.28,646.2c5.35,15.52-2.14,32.65-17.66,38.53a29.93,29.93,0,0,1-37.45-17.12ZM624,539.18l-43.35-115-43.34,115Z"/><path class="cls-3" d="M646,598.05h-130L489.7,667.61a30,30,0,0,1-27.83,18.73,31.16,31.16,0,0,1-10.17-1.61c-15.52-5.88-23-23-17.66-38.53L552.3,331c4.82-11.78,16.59-19.27,28.36-18.73C593,311.76,604.21,319.25,609,331L727.28,646.2c5.35,15.52-2.14,32.65-17.66,38.53a29.93,29.93,0,0,1-37.45-17.12ZM624,539.18l-43.35-115-43.34,115Z"/><path class="cls-2" d="M623.6,598.05h-130l-26.22,69.56a30,30,0,0,1-27.82,18.73,31.16,31.16,0,0,1-10.17-1.61c-15.52-5.88-23-23-17.66-38.53L530,331c4.81-11.78,16.59-19.27,28.36-18.73,12.31-.54,23.54,6.95,28.36,18.73L704.94,646.2c5.35,15.52-2.14,32.65-17.66,38.53a29.94,29.94,0,0,1-37.46-17.12Zm-21.94-58.87-43.34-115L515,539.18Z"/><path class="cls-2" d="M1143,739.31c-29.43,22.48-59.93,33.72-88.29,33.72h-1.61c-37.46,0-69-15-97.92-32.11a66.88,66.88,0,0,0-32.64-8c-17.66,0-35.86,7.49-38,9.1-10.7,5.88-23,4.81-31-1.61-.54-.53-1.61-.53-3.21-1.07-.54-.53-.54-.53-1.08-.53-2.67-3.75-5.88-7-7.49-12.31-8-16.05-.53-33.71,14.45-41.2l1.61-1.07a234.33,234.33,0,0,1-59.4-40.67,209.43,209.43,0,0,1-53.51-139.66,205.3,205.3,0,0,1,53.51-138.06c34.25-36.92,81.34-59.4,133.78-59.4a176.41,176.41,0,0,1,132.7,59.4c34.25,35.85,54.58,84.55,54.58,138.06,0,54-20.33,103.27-54.58,139.66a206.47,206.47,0,0,1-59.39,42.27l-12.31,4.82c22.47,12.31,42.81,19.26,59.93,19.26,15.52,0,30.5-3.74,52.44-20.33,13.38-10.7,32.64-8,43.35,5.35S1157.45,727.54,1143,739.31ZM844.94,600.19a116.48,116.48,0,0,0,87.23,38.52c34.24,0,64.75-14.45,88.29-38.52,23-24.62,36.92-58.33,36.92-96.32s-13.91-71.71-36.92-95.25c-23.54-24.62-54.05-39.07-88.29-39.07a115,115,0,0,0-87.23,39.07c-23,23.54-36.92,57.25-36.92,95.25S821.93,575.57,844.94,600.19Z"/><path class="cls-3" d="M1143,739.31c-29.43,22.48-59.93,33.72-88.29,33.72h-1.61c-37.46,0-69-15-97.92-32.11a66.88,66.88,0,0,0-32.64-8c-17.66,0-35.86,7.49-38,9.1-10.7,5.88-23,4.81-31-1.61-.54-.53-1.61-.53-3.21-1.07-.54-.53-.54-.53-1.08-.53-2.67-3.75-5.88-7-7.49-12.31-8-16.05-.53-33.71,14.45-41.2l1.61-1.07a234.33,234.33,0,0,1-59.4-40.67,209.43,209.43,0,0,1-53.51-139.66,205.3,205.3,0,0,1,53.51-138.06c34.25-36.92,81.34-59.4,133.78-59.4a176.41,176.41,0,0,1,132.7,59.4c34.25,35.85,54.58,84.55,54.58,138.06,0,54-20.33,103.27-54.58,139.66a206.47,206.47,0,0,1-59.39,42.27l-12.31,4.82c22.47,12.31,42.81,19.26,59.93,19.26,15.52,0,30.5-3.74,52.44-20.33,13.38-10.7,32.64-8,43.35,5.35S1157.45,727.54,1143,739.31ZM844.94,600.19a116.48,116.48,0,0,0,87.23,38.52c34.24,0,64.75-14.45,88.29-38.52,23-24.62,36.92-58.33,36.92-96.32s-13.91-71.71-36.92-95.25c-23.54-24.62-54.05-39.07-88.29-39.07a115,115,0,0,0-87.23,39.07c-23,23.54-36.92,57.25-36.92,95.25S821.93,575.57,844.94,600.19Z"/><path class="cls-2" d="M1120.66,739.31c-29.44,22.48-59.94,33.72-88.3,33.72h-1.6c-37.46,0-69-15-97.93-32.11a66.86,66.86,0,0,0-32.64-8c-17.66,0-35.85,7.49-38,9.1-10.7,5.88-23,4.81-31-1.61-.53-.53-1.6-.53-3.21-1.07-.53-.53-.53-.53-1.07-.53-2.67-3.75-5.89-7-7.49-12.31-8-16.05-.54-33.71,14.45-41.2l1.6-1.07a234.27,234.27,0,0,1-59.39-40.67,209.43,209.43,0,0,1-53.51-139.66,205.3,205.3,0,0,1,53.51-138.06c34.24-36.92,81.33-59.4,133.77-59.4a176.43,176.43,0,0,1,132.71,59.4c34.25,35.85,54.58,84.55,54.58,138.06,0,54-20.33,103.27-54.58,139.66a206.52,206.52,0,0,1-59.4,42.27l-12.3,4.82c22.47,12.31,42.8,19.26,59.93,19.26,15.52,0,30.5-3.74,52.44-20.33,13.38-10.7,32.64-8,43.34,5.35S1135.1,727.54,1120.66,739.31ZM822.6,600.19a116.46,116.46,0,0,0,87.22,38.52c34.25,0,64.75-14.45,88.3-38.52,23-24.62,36.92-58.33,36.92-96.32s-13.91-71.71-36.92-95.25c-23.55-24.62-54-39.07-88.3-39.07a115,115,0,0,0-87.22,39.07c-23,23.54-36.92,57.25-36.92,95.25S799.59,575.57,822.6,600.19Z"/><polygon class="cls-4" points="467.58 252.24 847.4 252.24 847.4 132.98 467.58 132.98 467.58 132.98 467.58 252.24 467.58 252.24"/><polygon class="cls-4" points="847.4 296.2 847.4 252.18 801.56 252.18 847.4 296.2"/><rect class="cls-5" x="491.56" y="153.6" width="263.4" height="2.27"/><rect class="cls-5" x="491.56" y="165.84" width="208.73" height="2.27"/><rect class="cls-5" x="491.56" y="190.31" width="241.74" height="2.27"/><rect class="cls-5" x="491.56" y="202.55" width="263.4" height="2.27"/><rect class="cls-5" x="491.56" y="214.79" width="263.4" height="2.27"/><rect class="cls-5" x="491.56" y="227.03" width="190.45" height="2.27"/><path class="cls-5" d="M786.64,204.76a24.07,24.07,0,0,1,1.69-9.26q1.68-4.11,6.95-7.16,1.58-.94,3.89-2.16a31.91,31.91,0,0,0,4.53-2.89,16.88,16.88,0,0,0,3.74-3.95,9.16,9.16,0,0,0,1.52-5.21,8.64,8.64,0,0,0-.84-3.9,8.88,8.88,0,0,0-2.21-2.84,9.22,9.22,0,0,0-3.21-1.74,12.63,12.63,0,0,0-3.74-.58,11,11,0,0,0-4.21.79,14.83,14.83,0,0,0-3.42,2,16.91,16.91,0,0,0-2.74,2.74,28.68,28.68,0,0,0-2.05,2.9l-9.16-6.32a20.26,20.26,0,0,1,3.63-5.79,22,22,0,0,1,5.16-4.26,24.29,24.29,0,0,1,6.26-2.64,27.53,27.53,0,0,1,14.85.27,20.1,20.1,0,0,1,7,3.68,19.1,19.1,0,0,1,5.05,6.48,21.06,21.06,0,0,1,1.95,9.42,20.27,20.27,0,0,1-.79,5.95,16.64,16.64,0,0,1-2.26,4.68,19.84,19.84,0,0,1-3.48,3.79,39.59,39.59,0,0,1-4.52,3.26c-1.41.85-2.81,1.65-4.22,2.43a26,26,0,0,0-3.84,2.57,12.58,12.58,0,0,0-2.84,3.27,8.52,8.52,0,0,0-1.11,4.47Zm.21,24.53V214.76h11.69v14.53Z"/><path class="cls-6" d="M367.33,166.35c38.31,38.83,86.5,120.51,77.52,137.07-10,18.44-63.35-36-63.15-39.17.16-2.41-18.61-52-32.84-88.11S357.86,156.74,367.33,166.35Z"/><path class="cls-4" d="M381.35,264.31c-1.63-5.31-27.17-70.73-34.47-91.42s-.53-27.09,20.32-8.14,66.53,82.25,77,115.85c10,32.36-6.62,32.36-28.6,17.44C397.56,285.83,381.35,264.31,381.35,264.31Z"/><path class="cls-3" d="M363.58,166.89a15.25,15.25,0,0,1-1.3,4.19A15.61,15.61,0,0,1,360,174.8a15.36,15.36,0,0,1,1.29-4.19A15.77,15.77,0,0,1,363.58,166.89Zm63.17,90a15.25,15.25,0,0,0-1.3,4.19,15.1,15.1,0,0,0,2.33-3.71,16,16,0,0,0,1.3-4.19A15.28,15.28,0,0,0,426.75,256.85Zm-22.59-34.37a15.58,15.58,0,0,0-1.29,4.19,16.86,16.86,0,0,0,3.62-7.91A16,16,0,0,0,404.16,222.48Zm-23.45-8.63a15.6,15.6,0,0,0-4.19-1.3,16.91,16.91,0,0,0,7.9,3.63A15.72,15.72,0,0,0,380.71,213.85Zm21.14,34.76a15,15,0,0,0-4.19-1.3,15.34,15.34,0,0,0,3.72,2.33,15.6,15.6,0,0,0,4.19,1.3A15.15,15.15,0,0,0,401.85,248.61Zm-17.19-59.53a15.25,15.25,0,0,0-4.19-1.3,15.46,15.46,0,0,0,3.72,2.33,16,16,0,0,0,4.19,1.3A15.34,15.34,0,0,0,384.66,189.08Zm-13.11,46.4a15,15,0,0,0,2,3.88,15.27,15.27,0,0,0-1-4.27,15.51,15.51,0,0,0-2-3.88A15.19,15.19,0,0,0,371.55,235.48Zm44.24,41.42a15.61,15.61,0,0,0,2,3.89,16.87,16.87,0,0,0-3-8.16A15.54,15.54,0,0,0,415.79,276.9Zm-29.79-7-.09,0,.76.92a14.14,14.14,0,0,0,3.61-1.93A15,15,0,0,0,386,269.94Zm52.43,24.71a15.19,15.19,0,0,0,3.88-2,14.85,14.85,0,0,0-4.27,1,15.19,15.19,0,0,0-3.88,2A15.63,15.63,0,0,0,438.43,294.65Zm-78.67-95.86a16.6,16.6,0,0,0-2.77,1.29l.21.58a17.64,17.64,0,0,0,2.95-.81,15.59,15.59,0,0,0,3.89-2A14.92,14.92,0,0,0,359.76,198.79Z"/><path class="cls-4" d="M376.77,312.37H231.12s23.15-114.22,79-163.67c6.9-6.11,22.47-4.72,32.63.33,3.63,1.8,16.65,20,20.37,37.25S377.18,311.86,376.77,312.37Z"/><path class="cls-1" d="M364.4,193.4c1.14,3.85,2.08,7.84,2.86,11.85,0-.16,0-.32,0-.47.06-2.25.08-4.55.31-6.79,0-.11.21-.15.23,0a35.42,35.42,0,0,1,.18,6.83c-.06,1.08-.12,2.15-.22,3.23.31,1.8.58,3.6.81,5.38.43,3.4,1.57,16.05,1.67,18.57,0,.53-.59.61-.74.07-.69-2.55-2.5-15.59-3.08-18.95a183.18,183.18,0,0,1-2.3-19.69C364.13,193.27,364.36,193.27,364.4,193.4Z"/><path class="cls-3" d="M319.26,178.52a17,17,0,0,1-3.63,7.91,15.6,15.6,0,0,1,1.3-4.19A16,16,0,0,1,319.26,178.52Zm-19.73,58a15,15,0,0,0-1.3,4.19,15.65,15.65,0,0,0,2.33-3.72,16,16,0,0,0,1.3-4.19A15.15,15.15,0,0,0,299.53,236.53Zm-47.31,20.76a15.25,15.25,0,0,0-1.3,4.19,15.4,15.4,0,0,0,2.33-3.71,16,16,0,0,0,1.3-4.19A15.1,15.1,0,0,0,252.22,257.29ZM287,294.48a15.73,15.73,0,0,0-1.3,4.19,17,17,0,0,0,3.63-7.91A15.77,15.77,0,0,0,287,294.48Zm60.72-71.86a15.58,15.58,0,0,0-1.29,4.19,15.4,15.4,0,0,0,2.33-3.71,15.58,15.58,0,0,0,1.29-4.19A15.92,15.92,0,0,0,347.71,222.62Zm19.13,39.47a15.36,15.36,0,0,0-1.29,4.19,15.42,15.42,0,0,0,2.32-3.72,15.25,15.25,0,0,0,1.3-4.19A15.77,15.77,0,0,0,366.84,262.09Zm-46.29,28.43a15.25,15.25,0,0,0-1.3,4.19,15.1,15.1,0,0,0,2.33-3.71,15.6,15.6,0,0,0,1.3-4.19A15.28,15.28,0,0,0,320.55,290.52Zm-44.37-76.93a15.25,15.25,0,0,0-1.3,4.19,15.1,15.1,0,0,0,2.33-3.71,16,16,0,0,0,1.3-4.19A15.28,15.28,0,0,0,276.18,213.59Zm55.06-13a15.58,15.58,0,0,0-4.19-1.29,15.77,15.77,0,0,0,3.72,2.33,15.36,15.36,0,0,0,4.19,1.29A16,16,0,0,0,331.24,200.61Zm9.18,46.87a15,15,0,0,0-4.19-1.3,15.34,15.34,0,0,0,3.72,2.33,16,16,0,0,0,4.19,1.3A15.15,15.15,0,0,0,340.42,247.48Zm-85.64,49.66a15,15,0,0,0-4.19-1.3,16.86,16.86,0,0,0,7.91,3.62A15.42,15.42,0,0,0,254.78,297.14Zm87.15,9.49a15.27,15.27,0,0,0-4.19-1.31,15.6,15.6,0,0,0,3.71,2.33l.89.39c.79,0,1.55.11,2.33.15A15.94,15.94,0,0,0,341.93,306.63ZM287.52,259.2a15,15,0,0,0-4.19-1.3,16.86,16.86,0,0,0,7.91,3.62A15.42,15.42,0,0,0,287.52,259.2Zm43.72-100.08a15.58,15.58,0,0,0-4.19-1.29,15.77,15.77,0,0,0,3.72,2.33,15.36,15.36,0,0,0,4.19,1.29A16,16,0,0,0,331.24,159.12Zm9.43,21.74a14.76,14.76,0,0,0,2.05,3.88,17.15,17.15,0,0,0-3-8.15A15.54,15.54,0,0,0,340.67,180.86ZM363.8,289.27a15.39,15.39,0,0,0,2.05,3.88,16.87,16.87,0,0,0-3-8.16A15.7,15.7,0,0,0,363.8,289.27Zm-62.48-81.16a15.55,15.55,0,0,0,2.05,3.88,16.88,16.88,0,0,0-3-8.15A15.54,15.54,0,0,0,301.32,208.11Zm18,47.72a15.55,15.55,0,0,0,2.05,3.88,16.87,16.87,0,0,0-3-8.16A15.61,15.61,0,0,0,319.31,255.83Zm-83.46,55.95c0,.2,0,.4.05.6h.37Q236.08,312.08,235.85,311.78Zm41-.19a15.61,15.61,0,0,0-2.05-3.89,16,16,0,0,0,1,4.28c.05.13.11.27.15.4h1.18C277,312.12,277,311.85,276.85,311.59ZM268.48,278a15.36,15.36,0,0,0,2,3.88,14.92,14.92,0,0,0-1-4.28,15.36,15.36,0,0,0-2-3.88A15.26,15.26,0,0,0,268.48,278Zm35.27-112.29a15.19,15.19,0,0,0,2,3.88,14.85,14.85,0,0,0-1-4.27,15.25,15.25,0,0,0-2-3.89A15.61,15.61,0,0,0,303.75,165.67Zm39,110.06a15.72,15.72,0,0,0,3.88-2.05,16.87,16.87,0,0,0-8.16,3A15.7,15.7,0,0,0,342.73,275.73ZM304.6,310.8a15.19,15.19,0,0,0,3.88-2,15,15,0,0,0-4.28,1,15.36,15.36,0,0,0-3.88,2A15.61,15.61,0,0,0,304.6,310.8ZM239.75,279c-.09.33-.2.67-.29,1a11.74,11.74,0,0,0,2-1.22A11.85,11.85,0,0,0,239.75,279ZM273,238.64a15.19,15.19,0,0,0,3.88-2,15.19,15.19,0,0,0-4.27,1,15.91,15.91,0,0,0-3.89,2A15.26,15.26,0,0,0,273,238.64Zm30.57,38.6a15.08,15.08,0,0,0,3.88-2.05,17.14,17.14,0,0,0-8.16,3A15.7,15.7,0,0,0,303.57,277.24Zm18.15-55.36a14.76,14.76,0,0,0,3.88-2,17.15,17.15,0,0,0-8.15,3A15.54,15.54,0,0,0,321.72,221.88Zm38.43-22a15.55,15.55,0,0,0,3.88-2,16.88,16.88,0,0,0-8.15,3A15.54,15.54,0,0,0,360.15,199.85ZM291.44,187a15.36,15.36,0,0,0,3.88-2,14.92,14.92,0,0,0-4.28,1,15.36,15.36,0,0,0-3.88,2A15.7,15.7,0,0,0,291.44,187Z"/><path class="cls-6" d="M184,103.81c-.3-7,1.11-39.18,3.51-48.05S198.66,21.87,205.63,23s5,8.68,5,8.68,5.36-10,12.28-8.19,3.46,13.41,3.46,13.41,6.26-9.85,13-7.57,1.34,13.38,1.34,13.38,5.3-9.27,10.09-5c5.76,5.09-5.95,21.08-7.86,31.06-.44,2.27-5.53,46.61-5.53,46.61Z"/><path class="cls-1" d="M241.2,41.76C232.62,53.54,230.9,60.18,230,74.49c0,.28-.44.31-.45,0-.34-14.1.62-22.74,11.15-33.19C241.17,40.81,241.61,41.2,241.2,41.76Z"/><path class="cls-1" d="M227.08,36c-7.84,13-9.77,20.19-11.87,35.11a.19.19,0,0,1-.38,0c.84-14.8,2-23.4,11.53-35.37C226.79,35.15,227.44,35.39,227.08,36Z"/><path class="cls-1" d="M210.55,32.45c-6.68,13.15-9.13,20.93-9.32,35.67a.27.27,0,0,1-.54,0c-1.28-15.05,1.71-24.79,9.44-35.86C210.66,31.54,211,31.62,210.55,32.45Z"/><path class="cls-6" d="M237,124.5s13.3-12.51,17.92-19.3,12.57-38.42,5.84-40.52C252.08,62,243.9,79.32,241,88.35c0,0-20.11-6.3-28.68,4.89S237,124.5,237,124.5Z"/><path class="cls-1" d="M258.14,64.71C248.43,68,245.39,80.05,241.92,88.6a.84.84,0,0,1-1.33.37c-8.61-2.08-21.35-2.51-28.34,3.7a.22.22,0,0,1-.31-.3c6.59-7.67,19.15-8.27,28.43-5.39,3.41-8.82,7-20.82,17.75-22.36A0,0,0,1,1,258.14,64.71Z"/><path class="cls-6" d="M318.17,165.73c-8.74,15.14-59.29,61.79-103.34,69.87-6,1.1-28.74-3.71-33.5-18.81-8.48-26.9-1.7-82.42,2.63-115.82.85-6.52,61.44,6.88,59.87,16.85-1.74,11-8.23,51.59-7.23,52.05,3.63,1.67,42.36-15.05,67.78-20.53C322.4,145.45,324.9,154.08,318.17,165.73Z"/><path class="cls-4" d="M175.41,117.49l69,15s-6.27,35.28-5,35.07,49.67-17.87,68.36-19.72,18.68,6.36,9.2,21.77-71.53,67.05-102.1,67c-15.56,0-30.05-10-32.86-14.73C173.24,207.07,175.41,117.49,175.41,117.49Z"/><path class="cls-4" d="M175.41,117.49l69,15s-6.27,35.28-5,35.07,49.67-17.87,68.36-19.72,18.68,6.36,9.2,21.77-71.53,67.05-102.1,67c-15.56,0-30.05-10-32.86-14.73C173.24,207.07,175.41,117.49,175.41,117.49Z"/><path class="cls-3" d="M274.36,166.65a15.6,15.6,0,0,0-1.3,4.19,15,15,0,0,0,2.33-3.71,15.67,15.67,0,0,0,1.3-4.2A16.19,16.19,0,0,0,274.36,166.65Zm-54.87,61.63a15.47,15.47,0,0,0-1.29,4.19,15.77,15.77,0,0,0,2.33-3.72,15.58,15.58,0,0,0,1.29-4.19A15.86,15.86,0,0,0,219.49,228.28ZM178.83,186a14.82,14.82,0,0,0-1.3,4.19,15.46,15.46,0,0,0,2.33-3.72,16,16,0,0,0,1.3-4.19A15.53,15.53,0,0,0,178.83,186Zm60.11.17a15.25,15.25,0,0,0-1.3,4.19,15,15,0,0,0,2.33-3.72,15.49,15.49,0,0,0,1.3-4.19A15.53,15.53,0,0,0,238.94,186.19ZM208.69,203.6a15.6,15.6,0,0,0-1.3,4.19,17,17,0,0,0,3.63-7.9A15.21,15.21,0,0,0,208.69,203.6Zm2.67-42.44a15.58,15.58,0,0,0-1.29,4.19,15.77,15.77,0,0,0,2.33-3.72,15.58,15.58,0,0,0,1.29-4.19A15.77,15.77,0,0,0,211.36,161.16Zm-30.72-31.55a15.85,15.85,0,0,0-1.3,4.19,15.28,15.28,0,0,0,2.33-3.71,15.67,15.67,0,0,0,1.3-4.2A15.86,15.86,0,0,0,180.64,129.61Zm124.17,35.66a15.68,15.68,0,0,0-2-3.88,14.84,14.84,0,0,0,1,4.28,15.51,15.51,0,0,0,2,3.88A15.7,15.7,0,0,0,304.81,165.27Zm-40.89,28.22a15.88,15.88,0,0,0-2.05-3.88,15.7,15.7,0,0,0,1,4.28,15.36,15.36,0,0,0,2,3.88A15.32,15.32,0,0,0,263.92,193.49Zm-30.71-31.8a15.57,15.57,0,0,0-2.05-3.88,16,16,0,0,0,1,4.28,15.55,15.55,0,0,0,2.05,3.88A15.78,15.78,0,0,0,233.21,161.69Zm-4,46a15.23,15.23,0,0,0-2-3.88,15.54,15.54,0,0,0,1,4.27,15.88,15.88,0,0,0,2.05,3.88A15.54,15.54,0,0,0,229.23,207.72Zm-39.38-5a15.55,15.55,0,0,0-2-3.88,15.63,15.63,0,0,0,1,4.27,15.34,15.34,0,0,0,2,3.88A15.18,15.18,0,0,0,189.85,202.75Zm12.41-65.06a15.42,15.42,0,0,0-2-3.89,14.92,14.92,0,0,0,1,4.28,15.68,15.68,0,0,0,2,3.88A14.85,14.85,0,0,0,202.26,137.69Zm-4.64,36.91a16.13,16.13,0,0,0-2.05-3.89,17.08,17.08,0,0,0,3,8.17A15.25,15.25,0,0,0,197.62,174.6ZM291,185.89a16.07,16.07,0,0,0-3.88,2.05,15.7,15.7,0,0,0,4.28-1,15.51,15.51,0,0,0,3.88-2A15.32,15.32,0,0,0,291,185.89Zm-73-1.68a15.85,15.85,0,0,0-3.88,2,15.07,15.07,0,0,0,4.28-1,15.36,15.36,0,0,0,3.88-2A15.53,15.53,0,0,0,218,184.21Zm6.89-43.39a15.88,15.88,0,0,0-3.88,2.05,15.78,15.78,0,0,0,4.28-1,15.08,15.08,0,0,0,3.88-2A15.61,15.61,0,0,0,224.89,140.82Zm-39.2,13.62a15.17,15.17,0,0,0-3.87,2.05,15.54,15.54,0,0,0,4.27-1,15.23,15.23,0,0,0,3.88-2A15.78,15.78,0,0,0,185.69,154.44Zm65.19,58.85a15.88,15.88,0,0,0-3.88,2.05,15.78,15.78,0,0,0,4.28-1,15.45,15.45,0,0,0,3.87-2A15.18,15.18,0,0,0,250.88,213.29ZM198.4,224.77a15.51,15.51,0,0,0-3.88,2,16.73,16.73,0,0,0,8.15-3A15.54,15.54,0,0,0,198.4,224.77ZM255,166.35a15.55,15.55,0,0,0-3.88,2.05,15.63,15.63,0,0,0,4.27-1,14.92,14.92,0,0,0,3.88-2A15.54,15.54,0,0,0,255,166.35Z"/><path class="cls-1" d="M240,167.82a107.05,107.05,0,0,1-2.75,15.62c-1.16,5.22-2.79,10.28-4.34,15.38,0,.11-.21.05-.18-.07,1.33-5.13,2.29-10.36,3.43-15.54s1.92-10.41,3.24-15.52C239.43,167.36,240,167.49,240,167.82Z"/><path class="cls-1" d="M240.39,145.46c-8-2-16.09-3.55-24.19-5.09s-16.21-3.1-24.35-4.43c-4.6-.76-9.2-1.54-13.83-2.14-.12,0-.18.19-.06.22,8,2,16.08,3.58,24.16,5.17s16.21,3.1,24.34,4.54c4.59.81,9.2,1.53,13.83,2.13C240.52,145.89,240.63,145.52,240.39,145.46Z"/><path class="cls-1" d="M263.19,216c1.27-1.13,2.68-2.08,4-3.14s2.6-2,3.91-3c2.66-2,5.33-4.08,8-6.13,5.32-4.12,10.54-8.36,15.81-12.54q4.5-3.57,8.92-7.24c.12-.1.29.06.17.17-3.62,3.41-7.28,6.79-11.05,10l1.42-.69c1.45-.72,2.86-1.5,4.28-2.28.12-.07.21.11.1.18a37.27,37.27,0,0,1-4.13,2.55c-.7.38-1.41.73-2.13,1.06-.35.17-.7.32-1.05.46h0c-.85.72-1.7,1.45-2.57,2.16q-7.81,6.36-16,12.27c-1.5,1.09-3,2.16-4.57,3.18s-3.21,2.25-4.93,3.19A.14.14,0,0,1,263.19,216Z"/><polygon class="cls-2" points="331.73 183.58 339.79 171.31 347.38 181.63 344.28 190.74 335.67 190.93 331.73 183.58"/><polygon class="cls-2" points="335.67 190.93 321.38 285.97 335.9 319.46 348.99 284.92 344.28 190.74 335.67 190.93"/><path class="cls-6" d="M342.69,170.43c-8.4,2-22.91-10.72-28.67-21.09-.39-.71.66-8.24,1.49-17.45.49-5.59.9-11.83.87-17.55l35.91,8.49s-3.45,12-3.32,22a12.42,12.42,0,0,0,.26,2.34c0,.11,0,.24,0,.39C350,152,350.8,168.45,342.69,170.43Z"/><path class="cls-1" d="M318.9,115c1.09,7.57,6.23,32.47,26.69,32.8a20.57,20.57,0,0,0,3.7-.22c0-.15-.05-.26-.06-.37a12.63,12.63,0,0,1-.26-2.36c-.13-10,3.32-22,3.32-22Z"/><path class="cls-6" d="M308.1,74.25c-2.75,13,7.19,49,16.92,56.37,14.11,10.67,35.59,9.9,44.25-6.69,8.39-16.08-5.39-62.76-16.11-69.28C337.37,45,312.15,55,308.1,74.25Z"/><path class="cls-1" d="M340.16,95.6c-.05-.09-.16.17-.13.27.73,2.4,1.17,5.28-.81,6.68-.06,0,0,.17.06.13C341.85,101.58,341.24,97.76,340.16,95.6Z"/><path class="cls-1" d="M337.3,93.65c-4,.76-2.17,8.68,1.52,8S340.64,93,337.3,93.65Z"/><path class="cls-1" d="M354.77,92c0-.1.22.07.24.17.49,2.47,1.46,5.22,3.86,5.52.08,0,.1.14,0,.15C356.09,98,354.84,94.37,354.77,92Z"/><path class="cls-1" d="M356.38,88.89c3.87-1.21,6,6.63,2.4,7.75S353.13,89.9,356.38,88.89Z"/><path class="cls-7" d="M333.35,90.75c1-.52,1.86-1.17,2.82-1.78s2-1.14,2.52-2.37a1.7,1.7,0,0,0-.73-2c-1.43-.78-2.95-.26-4.28.53a6.24,6.24,0,0,0-2.91,3.44A1.83,1.83,0,0,0,333.35,90.75Z"/><path class="cls-7" d="M358.52,84.2c-1.13.07-2.2,0-3.33-.09s-2.3,0-3.38-.75a1.71,1.71,0,0,1-.37-2.06c.83-1.4,2.41-1.73,3.95-1.73a6.25,6.25,0,0,1,4.26,1.48A1.83,1.83,0,0,1,358.52,84.2Z"/><path class="cls-1" d="M343.88,118.21c.72.44,1.49,1.1,2.4,1a6.58,6.58,0,0,0,2.49-1.22.09.09,0,0,1,.14.1,3.42,3.42,0,0,1-2.81,2,2.7,2.7,0,0,1-2.43-1.73C343.6,118.25,343.78,118.15,343.88,118.21Z"/><path class="cls-1" d="M344.78,110.28a8.52,8.52,0,0,0,6.42,2.44,11,11,0,0,0,3-.55,3,3,0,0,0,.55-.2l.52-.2a.64.64,0,0,0,.37-.67h0a1.21,1.21,0,0,0-.08-.25v0l0-.21c-.38-1.9-1.23-4.73-1.23-4.73.77.19,4.65,1,4.37,0-2.36-8.05-5-17-9-24.52a.23.23,0,0,0-.43.16c2,7.83,5.28,15.26,7.38,23.1a15.24,15.24,0,0,0-4.22-.3c-.25.14,1.73,5.44,1.83,6.31a.21.21,0,0,1,0,.09c-3.08,1.13-5.69.72-9.25-.7C344.74,109.91,344.59,110.12,344.78,110.28Z"/><path class="cls-1" d="M352.92,111.78a10.19,10.19,0,0,1-3.44,3.83,4.5,4.5,0,0,1-2.7.67c-2.07-.15-2.45-2-2.37-3.58a10.83,10.83,0,0,1,.45-2.53A13.18,13.18,0,0,0,352.92,111.78Z"/><path class="cls-8" d="M349.48,115.61a4.5,4.5,0,0,1-2.7.67c-2.07-.15-2.45-2-2.37-3.58C346.57,112.53,348.93,113.59,349.48,115.61Z"/><g class="cls-9"><path d="M343.94,78.71a28.5,28.5,0,0,0,3.89-.57c1.29-.33,2.49-.91,3.79-1.22a21.4,21.4,0,0,1,7.49,0c.22,0,.21.17,0,.15a18.45,18.45,0,0,0-7.82.64A23.63,23.63,0,0,1,345,79.18c-5,.36-9.8,1.34-13.75,4.58,0,0-.06,0,0,0C334.73,80.68,339.36,79.24,343.94,78.71Z"/><path d="M343.11,75.3a25.51,25.51,0,0,0,3.68-.54c1.22-.31,2.37-.87,3.6-1.16a20.63,20.63,0,0,1,7.1,0c.21,0,.2.16,0,.14a17.67,17.67,0,0,0-7.41.61,22.2,22.2,0,0,1-6,1.44c-4.71.33-9.29,1.26-13,4.34a0,0,0,1,1,0,0C334.37,77.16,338.76,75.81,343.11,75.3Z"/></g><path class="cls-7" d="M311.67,105.28s-12.59-20.75-11.42-32.75c.52-5.43,7.91-9.09,7.91-9.09S306,56.85,312,51.11c6.41-6,21.94-4.7,21.94-4.7S344,31.86,358.28,37.62s5,21.91,5,21.91,5.23,7.42-7.53,13.23c-12.43,5.65-37.85.11-37.85.11a88.56,88.56,0,0,1-.38,26.33C316.6,104.13,311.67,105.28,311.67,105.28Z"/><path class="cls-7" d="M336.43,46.6a25,25,0,0,0-10-1.82,26.63,26.63,0,0,0-9,1.42c-5.12,1.84-9.67,5.62-10.53,11.25a10.43,10.43,0,0,0,2,7.88c.07.09.21,0,.13-.12-3.29-4.08-1.57-10.42,1.84-13.84,3.84-3.87,9.73-5.34,15-5.56a44.22,44.22,0,0,1,10.51,1.1A.16.16,0,0,0,336.43,46.6Z"/><path class="cls-7" d="M368.48,44.49c-1.19-4-4.61-6.55-8.45-7.77a20.8,20.8,0,0,0-13.49.47,26.21,26.21,0,0,0-11,8.19c-.07.08.07.19.14.11,5.35-6.34,13.73-10,22-8.2,3.7.78,7.41,2.68,9.12,6.22a12.52,12.52,0,0,1-.31,10.58C364.57,58,361,61,357.34,63.28a.07.07,0,1,0,.07.13,24.15,24.15,0,0,0,9.13-7.79A13.66,13.66,0,0,0,368.48,44.49Z"/><path class="cls-6" d="M318.56,103.38S309,92.47,304,96s3,20,9.58,21.63a6.44,6.44,0,0,0,8.2-4.38Z"/><path class="cls-1" d="M306.41,100.65a.09.09,0,0,0,0,.18c4.6,1.3,7.37,5.14,9.46,9.2-1.49-1.49-3.38-2.19-5.39-.39-.11.1,0,.27.14.23a3.93,3.93,0,0,1,4.48.9,18.86,18.86,0,0,1,2.46,3.28c.25.37.94.08.74-.36a.93.93,0,0,1-.05-.1C317.74,108,312.51,100.56,306.41,100.65Z"/><path class="cls-4" d="M339.45,108.4a11.09,11.09,0,1,1,8.83-15.12h0a11.08,11.08,0,0,1-8.83,15.12Zm-2.72-20.52a9.18,9.18,0,0,0-2.31.61,9.59,9.59,0,1,0,2.31-.61Z"/><path class="cls-4" d="M364.08,102c-4.2.56-8.59-3.24-10-8.85a13.18,13.18,0,0,1,.37-8.09,6.9,6.9,0,0,1,11.46-2.91,13.26,13.26,0,0,1,4.18,6.93c1.5,5.93-.86,11.66-5.27,12.78A6.1,6.1,0,0,1,364.08,102Zm-3.83-20.3a3.57,3.57,0,0,0-.55.11,5.9,5.9,0,0,0-3.9,3.8,11.81,11.81,0,0,0-.3,7.17c1.31,5.14,5.3,8.57,8.93,7.65s5.5-5.85,4.2-11a11.7,11.7,0,0,0-3.69-6.16A6.07,6.07,0,0,0,360.25,81.7Z"/><path class="cls-4" d="M348.24,94.61l-1.2-.86c1.28-1.79,4.58-4.58,7.92-2.44l-.8,1.25C351.17,90.63,348.36,94.45,348.24,94.61Z"/><path class="cls-4" d="M301.05,109.55l-1.44-.34c.16-.67,1.62-6.62,4.69-7.95,2.88-1.24,22.6-4.33,23.44-4.46l.23,1.46c-5.66.88-20.85,3.39-23.07,4.36C302.86,103.5,301.44,107.92,301.05,109.55Z"/><path class="cls-10" d="M349.26,146.76l-10,20.59-24.36-28.47-8,8s22.71,44.15,23,42.24l9.94-17.57,11.67,13.5,1.17-31.81Z"/><path class="cls-1" d="M352.93,169.4c0-5.26.18-10.55-.05-15.8,0-.19-.29-.29-.35-.08-1.4,5-1.36,25.09-1.71,29.89l-.05-.06c-.49-.58-10.86-11.92-11-11.76-2.08,2.75-9.37,15.55-9.89,16.72-3.59-7-17.44-32.55-21.8-39.24a.18.18,0,0,0-.32.16c3.09,7.35,21.38,41.72,21.7,41.65.2.18,9.25-15.57,10.4-18.59,1.72,2.44,12.11,15.14,12.2,14.37A165.81,165.81,0,0,0,352.93,169.4Z"/><path class="cls-6" d="M444.85,303.42c-8.62,12.33-32.1,14.68-90.64,26.15-8.1,1.59-34.68-52.57-26.12-54.71,10.79-2.7,53.24-10.82,56.41-11C411.32,262.14,450.7,295.05,444.85,303.42Z"/><path class="cls-6" d="M339.8,272.19s-24.8,3.75-37.22,9.75c-16.63,8-27.68,21.82-32,27.88-8.94,12.65-21.81,49.4-11.87,54.95,9,5,20.25-33.2,20.25-33.2s-17.91,37.08-6,41.14,22.49-41.06,22.49-41.06S278,370.17,291,372.41c9.81,1.69,21.66-38.64,21.66-38.64s-14.85,33.21-4.84,35.38c11.07,2.41,24.34-34.13,24.34-34.13,26.38,1.24,39.46-9,47.89-17.32C382.05,315.67,339.8,272.19,339.8,272.19Z"/><path class="cls-1" d="M284.37,318.34c-2.26,4.28-4.58,8.6-6.45,13.07s-3.59,9-5,13.62c-3.55,11.33-4,19-3.93,18.52,1.88-11.11,8.34-27.2,10.21-31.67s3.52-9,5.39-13.47C284.59,318.3,284.43,318.24,284.37,318.34Z"/><path class="cls-1" d="M300.63,324.81c-2.66,5.59-5.49,11.05-7.9,16.76s-4.16,11.28-6.16,17.11c-.15.45.14.38.31-.06,2.23-5.75,4.73-10.89,7-16.61s4.37-11.53,6.86-17.14A.07.07,0,0,0,300.63,324.81Z"/><path class="cls-1" d="M315.57,327.86c-4.49,8.34-7.43,17.49-10.11,26.54-.13.45.24.32.4-.13,3.19-8.88,5.64-15.88,10-26.25C315.93,327.85,315.67,327.68,315.57,327.86Z"/><path class="cls-4" d="M334.63,272.19l51.29,57.12s51.87-11.91,59.51-25.21c5-8.76-34-44.23-63.5-40.09Z"/><path class="cls-3" d="M380.18,307.83a16,16,0,0,1-1.3,4.19,15.65,15.65,0,0,1-2.33,3.72,16.89,16.89,0,0,1,3.63-7.91Zm35.63-3.2a15,15,0,0,0-1.3,4.19,15.15,15.15,0,0,0,2.33-3.72,15.6,15.6,0,0,0,1.3-4.19A15.15,15.15,0,0,0,415.81,304.63Zm-25.42-12a15.38,15.38,0,0,0-4.19-1.3,17,17,0,0,0,7.91,3.63A15.77,15.77,0,0,0,390.39,292.63Zm25.4-15.73a15.61,15.61,0,0,0,2,3.89,16.87,16.87,0,0,0-3-8.16A15.54,15.54,0,0,0,415.79,276.9Zm-52,12.37a15.39,15.39,0,0,0,2.05,3.88,16.87,16.87,0,0,0-3-8.16A15.7,15.7,0,0,0,363.8,289.27Zm-21.07-13.54a15.72,15.72,0,0,0,3.88-2.05,16.87,16.87,0,0,0-8.16,3A15.7,15.7,0,0,0,342.73,275.73ZM386.4,271a14.92,14.92,0,0,0,3.88-2.05,17.15,17.15,0,0,0-8.15,3A15.63,15.63,0,0,0,386.4,271Zm16.16,50.22a15.08,15.08,0,0,0,3.88-2.05,17.14,17.14,0,0,0-8.16,3A15.61,15.61,0,0,0,402.56,321.22Zm38.56-28.48a17.13,17.13,0,0,0-3.08.85,16,16,0,0,0-3.89,2.05,17.45,17.45,0,0,0,7.32-2.46C441.35,293,441.24,292.89,441.12,292.74Z"/><path class="cls-1" d="M417.1,273.3c-4.75-3.45-18.14-11.48-35.21-9.34-.15,0-.15.27,0,.26,12.87-.36,30.24,6.37,35.1,9.29C417.12,273.59,417.22,273.39,417.1,273.3Z"/><path class="cls-1" d="M400,319.74c-5.31-6.58-10.95-12.87-16.62-19.15S372,288,366.17,281.88c-3.29-3.47-6.57-7-10-10.32-.09-.09-.26,0-.18.14,5.3,6.58,10.93,12.9,16.54,19.2s11.33,12.59,17.09,18.8c3.25,3.5,6.57,6.95,10,10.31C399.79,320.18,400.1,319.94,400,319.74Z"/><path class="cls-1" d="M334.54,271.45a71.5,71.5,0,0,1,9.61-2.19c3.24-.61,6.49-1.16,9.74-1.68,6.46-1,20.05-4,32-3.94.13,0-.54.64-.68.63-5.68-.3-46.43,7.8-49.77,8a5.51,5.51,0,0,1,.36.68c.07.16-.1.38-.27.26-.42-.28-.72-.64-1.12-.94A.48.48,0,0,1,334.54,271.45Z"/><path class="cls-6" d="M943.18,458.44c-13,19.25-81.07,111.41-117.76,110C781,566.79,726.66,549,704.06,533.71c-12.67-8.59,31.18-70.06,43.53-63.77,19.46,9.91,64.73,24.22,72.56,25.93s64.57-40.66,98.68-59.25C949.55,419.88,952.35,444.87,943.18,458.44Z"/><path class="cls-6" d="M706.24,534.39c-8.39-3.51-52.71-25.23-61.8-33S610.77,469.58,616,462s13-1.08,13-1.08-8.76-11.83-2.82-19,17.67,3.35,17.67,3.35-8.11-12.8-1.68-19.5,16.47,5.83,16.47,5.83-8-11.36-.34-14.65c9.16-4,21.47,18.65,32.16,26.43,2.42,1.76,51.71,32.28,51.71,32.28Z"/><path class="cls-1" d="M657.71,430.58c9.09,16.61,15.94,22.3,32.23,31.34.32.18.13.69-.22.54C673,455.05,663.34,449.15,656.88,431,656.56,430.09,657.27,429.79,657.71,430.58Z"/><path class="cls-1" d="M643.1,444c10.95,16.42,18.33,22.66,34.7,33.39.23.15,0,.56-.25.43-16.94-9.18-26.4-15.29-35.19-33.13C642,443.86,642.6,443.23,643.1,444Z"/><path class="cls-1" d="M629.8,461.45c11.75,15.13,19.54,22.32,36.77,30.7a.35.35,0,0,1-.27.65c-18.4-6.83-28.19-15.73-36.92-30.94C628.78,460.82,629.06,460.5,629.8,461.45Z"/><path class="cls-6" d="M760.05,481.56s-8.46-22.16-14.33-31.07-40-34.09-45.8-27c-7.56,9.1,9.25,27.51,18.67,35.45,0,0-17.51,21.05-8.31,36.88S760.05,481.56,760.05,481.56Z"/><path class="cls-1" d="M698.66,426.63c-.9,13.28,12.13,22.91,20.68,31.29a1.1,1.1,0,0,1-.22,1.79c-6.75,9.31-13.56,24.41-9.56,35.88a.28.28,0,0,1-.51.22c-5.95-11.71-.47-27.09,7.57-36.82-8.91-8.46-21.55-18.69-18.09-32.37C698.55,426.54,698.67,426.55,698.66,426.63Z"/><path class="cls-4" d="M762.73,473.38l-39.21,78.54s85.92,33.25,119.36,14.56,85.15-82.89,95.91-97.54c23.55-32.06,5.06-48.86-21.2-32.51s-91.25,56.25-95.42,57.38S762.73,473.38,762.73,473.38Z"/><path class="cls-3" d="M850.27,561.81c33.19-22.9,78.52-79.27,88.51-92.88,21.38-29.1,8.14-45.62-14.15-36.17Z"/><path class="cls-4" d="M744.68,554c5-8.64,9.51-17.54,14-26.45s9-17.84,13.3-26.88c2.42-5.1,4.87-10.2,7.11-15.39.06-.14-.15-.27-.23-.14-5,8.63-9.55,17.52-14.1,26.39s-9,17.84-13.41,26.82c-2.48,5.08-4.87,10.2-7.11,15.39C744.14,554,744.54,554.28,744.68,554Z"/><path class="cls-4" d="M865.52,610.87a157.52,157.52,0,0,0,181.54-9.47c-8.61-44.75-29.76-121.12-73.57-171.43-12.23-14.06-45.56-10-49.45-4.31C897.89,463.65,874.69,562.76,865.52,610.87Z"/><polygon class="cls-7" points="901.21 643.44 804.97 666.01 754.83 534.08 851.07 511.5 901.21 643.44"/><polygon class="cls-11" points="896.48 644.54 800.24 667.12 750.11 535.19 846.34 512.61 896.48 644.54"/><path class="cls-5" d="M809.25,586.87a10.71,10.71,0,0,0,12.38,7A8.67,8.67,0,0,0,828,582.48a10.7,10.7,0,0,0-12.37-7A8.67,8.67,0,0,0,809.25,586.87Z"/><path class="cls-6" d="M990.83,448c27.83,38.75,87.7,127.23,70,147.68-29,33.61-99.93,63-122.14,69.7-9.59,2.87-43.9-66.79-34.86-72.51,10.84-6.87,80.29-34.16,80.64-37.52.37-3.7-12.63-51.35-16.91-89C962.29,419.72,979.22,431.85,990.83,448Z"/><path class="cls-6" d="M938.77,588s-29.21-8.57-48.57-13.27c-10.81-2.62-29.73-5.47-38.55-3.77-13.19,2.55-66.73,21.63-62.39,34.71,3.94,11.84,47.86-10.39,47.86-10.39s-46.3,18.51-39,31.9,53.64-18.33,53.64-18.33-47.14,20.09-37.37,32.7c7.39,9.52,50.92-16.84,50.92-16.84s-40.4,17.55-33.23,27.67c7.93,11.19,49.64-10.63,49.64-10.63,22.56,22.66,42.14,25.68,57,23.64C942.17,664.92,938.77,588,938.77,588Z"/><path class="cls-1" d="M850.56,588.79c-35.15,11-49,27.22-48.55,26.86,10.75-8.39,29.67-17.5,35-20s8.34-4.24,13.65-6.7C850.79,588.93,850.69,588.75,850.56,588.79Z"/><path class="cls-1" d="M862,606.91c-17,4.14-34.68,14.32-40.23,18.78-.44.36-.19.46.33.2,6.69-3.32,33.17-15.84,40-18.82C862.14,607,862.07,606.88,862,606.91Z"/><path class="cls-1" d="M872.83,621.84c-14.91,4.84-21.09,8.52-30.72,15.46-.46.33-.05.48.46.21,10.12-5.33,18-9.59,30.39-15.3C873.15,622.13,873.06,621.76,872.83,621.84Z"/><path class="cls-4" d="M925.22,582.1l39.1,83.38s93.21-50.22,100.25-73.84S1008.22,464.23,989,443.05s-25.51-12.49-25,11.67,19.53,99.47,19.07,100.87S925.22,582.1,925.22,582.1Z"/><path class="cls-1" d="M976.14,520q-1.89-8.46-3.69-17c-.62-2.94-1.23-5.89-1.89-8.82-.31-1.35-.6-2.71-.91-4.06-.15-.66-.37-1.34-.48-2-.41-2.48,0-.28-.68-2.68a.14.14,0,0,0-.28,0c.16,1.56-.16.93.14,2.11a24.2,24.2,0,0,1,.46,2.68c.21,1.37.43,2.73.65,4.1.44,2.8.95,5.59,1.48,8.37.07.37.15.74.22,1.1,0-.1-.06-.2-.1-.3-1-3-2.1-6-3.17-9a.11.11,0,1,0-.21.06c.71,3.13,1.54,6.19,2.54,9.23.59,1.76,1.27,3.48,2,5.19.73,3.72,1.45,7.44,2.23,11.15,2.43,11.49,4.93,23,8.27,34.3-4.88,2.23-9.86,4.23-14.74,6.48s-9.75,4.57-14.61,6.88-9.73,4.6-14.54,7c-2.3,1.15-4.58,2.33-6.87,3.5-2.48,1.26-4.84,2.82-7.35,4-.26.12,0,.49.23.37,2.61-1.2,5.4-2.07,8-3.22,2.32-1,4.66-2,7-3,4.91-2.2,9.79-4.49,14.68-6.77s9.76-4.55,14.61-6.88,9.56-4.91,14.38-7.25a.56.56,0,0,0,.31-.36.61.61,0,0,0,.26-.64C981.66,543,978.73,531.55,976.14,520Z"/><path class="cls-1" d="M964.09,615c-2.91-6-14.72-30.13-18.11-35.88-.06-.09-.23,0-.19.07,2.17,6.13,13.13,30.23,16,36.29,5.79,12.07,11.36,24.34,18.46,35.72.12.2.5.08.4-.16C976,638.67,969.83,626.9,964.09,615Z"/><path class="cls-6" d="M928.2,455.91c10.27,3.7,30.21-10.37,38.85-22.63.58-.84.28-10.44.47-22.12.14-7.09.46-15,1.27-22.16l-46.26,5.83s2.72,15.55,1.23,28.05a15.72,15.72,0,0,1-.65,2.91c0,.14-.09.3-.12.49C921.44,431.77,918.28,452.34,928.2,455.91Z"/><path class="cls-1" d="M923.76,422.88a16.7,16.7,0,0,1-.54,2.52c22.67-1.26,36.61-11.9,44.49-21,.19-5.13.51-10.44,1.08-15.39l-46.25,5.82S925.25,410.38,923.76,422.88Z"/><path class="cls-6" d="M984.38,339.56c2,16.67-14.45,60.88-27.51,69.07-18.94,11.87-45.89,8.54-55-13.3-8.79-21.16,13.7-78.4,27.91-85.42C950.76,299.56,981.4,314.93,984.38,339.56Z"/><path class="cls-1" d="M937.54,358.08c.07-.1.19.23.14.35-1.19,2.95-2.06,6.53.28,8.51.07.06,0,.2-.09.15C934.75,365.42,936,360.68,937.54,358.08Z"/><path class="cls-1" d="M941.35,355.94c4.93,1.4,1.78,11.16-2.79,9.87S937.22,354.77,941.35,355.94Z"/><path class="cls-1" d="M919.36,351.6c0-.12-.28.07-.32.19-.88,3.06-2.41,6.41-5.47,6.53-.09,0-.13.16,0,.18C917,359.11,919,354.64,919.36,351.6Z"/><path class="cls-1" d="M917.68,347.57c-4.74-1.94-8.28,7.69-3.88,9.49S921.66,349.2,917.68,347.57Z"/><path class="cls-1" d="M946.65,352.73a41.74,41.74,0,0,1-3.35-2.56c-1.28-1-2.39-1.65-2.92-3.25a2.17,2.17,0,0,1,1.14-2.39c1.88-.83,3.74,0,5.33,1.14a7.92,7.92,0,0,1,3.28,4.65C950.67,352.29,948.26,353.73,946.65,352.73Z"/><path class="cls-1" d="M915.49,341.44c1.43.21,2.78.18,4.21.25,1.61.07,2.89.3,4.34-.57a2.18,2.18,0,0,0,.69-2.56c-.89-1.85-2.84-2.43-4.78-2.61a7.93,7.93,0,0,0-5.52,1.39C912.73,338.49,913.62,341.15,915.49,341.44Z"/><path class="cls-1" d="M930.51,386.36c-1,.48-2,1.22-3.12,1a8.43,8.43,0,0,1-3-1.82.12.12,0,0,0-.19.12,4.29,4.29,0,0,0,3.31,2.88,3.37,3.37,0,0,0,3.24-1.91C930.86,386.43,930.65,386.3,930.51,386.36Z"/><path class="cls-1" d="M930.26,376.28a10.82,10.82,0,0,1-8.36,2.36,13.41,13.41,0,0,1-3.75-1,3.62,3.62,0,0,1-.69-.31,5.12,5.12,0,0,1-.62-.31.79.79,0,0,1-.39-.87v0a1.94,1.94,0,0,1,.13-.3v0l.09-.26c.69-2.35,2.06-5.82,2.06-5.82-1,.15-6,.7-5.49-.49,3.86-9.88,8.14-20.86,14.07-29.87a.3.3,0,0,1,.53.26c-3.34,9.63-8.34,18.62-11.84,28.25,1.55-.08,4.13-.33,5.34.09.3.2-2.77,6.66-3,7.74a.5.5,0,0,0,0,.11c3.74,1.77,7.07,1.54,11.72.14C930.34,375.82,930.52,376.1,930.26,376.28Z"/><path class="cls-1" d="M919.85,377.27a12.74,12.74,0,0,0,3.9,5.2,5.71,5.71,0,0,0,3.32,1.14c2.63,0,3.3-2.19,3.38-4.24a14.07,14.07,0,0,0-.28-3.24A16.66,16.66,0,0,1,919.85,377.27Z"/><path class="cls-8" d="M923.75,382.47a5.71,5.71,0,0,0,3.32,1.14c2.63,0,3.3-2.19,3.38-4.24C927.76,378.92,924.67,380,923.75,382.47Z"/><path class="cls-1" d="M968.8,374.29c-7.66-2.72-1.4-21.54-1.4-21.54S956.13,347.18,955,329.2c0,0-18.06,5.18-30.22-.86-19-9.46-10.95-35.41-1.9-38.56,12.84-4.46,28.66,12,28.66,12s31,.3,34,22.21c0,0,12.65,4.26,9.45,18.67S974.51,376.31,968.8,374.29Z"/><path class="cls-1" d="M969.54,355.8a27.64,27.64,0,0,1-12.65-12.54c-2.67-5.74-2.94-13.45.51-18.92.19-.29-.31-.57-.48-.26-3.35,6.23-4.93,13.17-2.32,20,2.39,6.26,8,11.33,14.73,12.29A.3.3,0,0,0,969.54,355.8Z"/><path class="cls-1" d="M998.43,334.67c-2.5-6.15-8.33-8.69-14.36-10.2-.34-.09-.47.47-.12.53,6.07,1,10.86,6.66,12.53,12.36s-.76,11.33-3.47,16.19a43.55,43.55,0,0,1-23.86,20.05.14.14,0,0,0,.08.26A43.5,43.5,0,0,0,995.81,352C998.41,346.86,1000.74,340.36,998.43,334.67Z"/><path class="cls-1" d="M952.08,303a20.43,20.43,0,0,0-8.59-11.65,24.49,24.49,0,0,0-17.17-3.12c-4.88.92-8.53,4.6-10.22,9.28-1.93,5.35-.86,11.2,1,16.36a.12.12,0,0,0,.23-.08c-1.32-4.75-1.91-9.87-.21-14.66a12.69,12.69,0,0,1,10.3-8.72c9.3-1.28,21.19,2.81,24.17,12.76A.27.27,0,0,0,952.08,303Z"/><path class="cls-6" d="M968,375.06s13.21-12.68,19.16-7.68-6,24.8-14.44,26.16a8.14,8.14,0,0,1-9.84-6.41Z"/><path class="cls-1" d="M983.59,373c.13,0,.12.2,0,.22-5.94,1.13-9.85,5.66-12.92,10.54,2-1.71,4.48-2.38,6.82.11.13.13-.06.32-.2.26a5,5,0,0,0-5.74.64,23.85,23.85,0,0,0-3.45,3.85c-.36.44-1.2,0-.9-.52a.75.75,0,0,0,.07-.12C968.53,380.91,975.92,372.18,983.59,373Z"/><path class="cls-5" d="M923.13,425.3,933,452.52,967.4,420l9,11.19s-34.46,52.4-34.58,50l-10.12-23.42-16.48,15.4L918,433Z"/><path class="cls-1" d="M915.47,453.25c.69-6.61,1.2-13.28,2.19-19.85,0-.23.41-.32.45,0,1.09,6.45-1.67,31.71-1.88,37.78l.08-.07c.68-.66,15.24-13.52,15.37-13.3,2.25,3.74,9.68,20.8,10.17,22.34,5.46-8.32,26.29-38.54,32.67-46.37a.23.23,0,0,1,.38.25c-4.87,8.82-32.46,49.53-32.86,49.4-.28.2-9.52-20.81-10.57-24.75C929,461.46,914.23,476,914.22,475A208.79,208.79,0,0,1,915.47,453.25Z"/></svg>