<svg id="Слой_1" data-name="Слой 1" xmlns="http://www.w3.org/2000/svg" viewBox="0 0 1252 796"><defs><style>.cls-1{fill:#ffc800;}.cls-2{fill:#306;}.cls-3{fill:#4a148c;}.cls-4{fill:#fff;}.cls-5{opacity:0.1;}.cls-6{fill:#ffaba1;}.cls-7{fill:#a8a8a8;}.cls-8{fill:#1a2e35;}.cls-9{fill:#c36358;}.cls-10{fill:#ececec;}.cls-11{fill:#c8c8c8;}</style></defs><path class="cls-1" d="M1034.26,85.44c-25.39,34.37-51.85,74.27-58.3,117.38-.08.66,1,.87,1.12.22a257.12,257.12,0,0,1,11.22-34.52c16.69-4.59,33.07-8.36,41.84-24.93,8.94-17,7.8-39.22,6.1-57.77C1036.12,84.82,1034.77,84.77,1034.26,85.44Z"/><path class="cls-2" d="M988.56,168.2c11.4-25.59,26-51.28,44.65-72.33.12-.14.32.07.2.21-12.18,15-21.44,31.31-30.48,47.91,8.41-8.53,17.62-16.17,25.58-25.22.15-.18.4.08.25.25-7.9,9.49-16.54,19.8-26.83,26.82-2.77,5.09-5.55,10.21-8.38,15.32.69-.39,1.41-.74,2.12-1.09.12-.06.23.13.11.19-.79.4-1.56.82-2.37,1.16-1.34,2.42-2.67,4.84-4,7.25C989.06,169.21,988.32,168.74,988.56,168.2Z"/><path class="cls-2" d="M997,159.27a149.44,149.44,0,0,0,19.48-13c.17-.13.41.1.24.24a102.83,102.83,0,0,1-19.44,13.25A.28.28,0,0,1,997,159.27Z"/><path class="cls-1" d="M973,196.42c.06.52.94.51.93,0,.13-14.19,0-28.46.23-42.72,3.63-7.34,11.44-11.4,16.87-17.28a76.52,76.52,0,0,0,10.13-14.1c6.71-12,10.34-25.52,11.74-39.17,1.5-15.18-4.26-65.3-10.66-63.56-3.32.91-14.07,25.73-16.92,33.93a236.86,236.86,0,0,0-10.1,41.61C970.05,128.49,970.48,162.79,973,196.42Z"/><path class="cls-2" d="M972.92,135.17l.07-.06c.77-18,4.82-36.1,8.61-53.52,4.08-18.77,8.85-36.45,18.51-53.19a.28.28,0,0,1,.48.28A197.75,197.75,0,0,0,985.72,69.5c.65-1,1.43-2,2.1-2.92.27-.38.89,0,.63.36a25.79,25.79,0,0,1-3,4.26.23.23,0,0,1-.12.06c-3.33,13.42-5.72,27.14-7.76,40.83.16-.18.3-.36.46-.53a.13.13,0,0,1,.2.16c-.25.45-.53.91-.81,1.36-1,7-2,13.88-2.94,20.75,12.37-10.57,22.94-23,28.89-38.39,0-.07.15,0,.12,0-5.84,15.93-15,30.09-29.21,39.76l-.78,5.54c-.05.39-.66.28-.66-.09,0-1.63.08-3.27.15-4.91A.38.38,0,0,1,972.92,135.17Z"/><path class="cls-2" d="M978.75,109.14C988.2,95,997,81.33,1004,65.73c.08-.17.38,0,.31.13-5.83,15.5-14,31.2-25,43.65C979,109.76,978.56,109.43,978.75,109.14Z"/><path class="cls-2" d="M991.31,62.25c3.92-6.93,8.05-13.68,11.74-20.74.1-.2.37,0,.29.17A108.52,108.52,0,0,1,991.92,62.6.35.35,0,0,1,991.31,62.25Z"/><path class="cls-2" d="M989.78,65.26a.06.06,0,0,1,0,.12C989.71,65.38,989.71,65.26,989.78,65.26Z"/><path class="cls-1" d="M963.41,155.36a144.4,144.4,0,0,1-3.31,28c.14,1,.29,2,.44,3.06a133.73,133.73,0,0,0,5-31.18.94.94,0,0,0,0-1v0A206.63,206.63,0,0,0,962.45,112c-4.4-26.09-14-51.13-32.2-70.69a1.3,1.3,0,0,0-2,.42c-7.34,18.67-4.78,41,1.47,59.57a109.11,109.11,0,0,0,14.43,28.3C950.39,138.35,958.34,145.77,963.41,155.36Z"/><path class="cls-2" d="M932.4,50c17.25,28,29.25,61.17,30.71,94.24,0,.58-1,.74-1,.14q-.62-4.46-1.34-8.85h0c-7.13-6.83-14.46-14-19.56-22.58-.09-.15.12-.33.24-.19,6.21,7.09,12,14.36,19,20.69-1.24-7.32-2.7-14.51-4.43-21.6l-1.37-1.6c-.3-.35.2-.86.51-.51l.42.46a248.23,248.23,0,0,0-9-28.63c-4.39-5.24-9.3-9.76-12.49-16.07a.13.13,0,0,1,.23-.13c2.57,3.6,5,7.23,8,10.58,1.16,1.33,2.44,2.58,3.64,3.88a221.78,221.78,0,0,0-14.11-29.43A.38.38,0,0,1,932.4,50Z"/><path class="cls-2" d="M935.89,84.55c5.57,7.5,11.92,14.66,17.11,22.41.14.22-.18.45-.36.28C946,101,940.34,92.46,935.51,84.77,935.36,84.52,935.73,84.33,935.89,84.55Z"/><path class="cls-2" d="M953.78,108.7l.23.24c.17.16-.09.42-.25.25l-.24-.24A.18.18,0,0,1,953.78,108.7Z"/><path class="cls-1" d="M905.38,103.83c1.39,14.4,9,31.6,18.2,42.69A45.32,45.32,0,0,0,938.34,158c6.39,3.16,13.08,6.8,19.69,9.4a129.47,129.47,0,0,1,7,24.77c.21-.72.42-1.47.63-2.2-4.24-36.45-27.83-67.61-58-87.62A1.47,1.47,0,0,0,905.38,103.83Z"/><path class="cls-2" d="M915.81,114.6c-.21-.19.07-.57.31-.4,16,11.85,30.4,29.12,38.45,47.39.22.5-.47.93-.75.44-1.41-2.46-2.84-4.85-4.29-7.2h0c-6.89-1.29-13.41-6.14-18.53-10.74-.13-.13.07-.33.21-.21A41.82,41.82,0,0,0,939.9,150c2.81,1.43,5.83,2.33,8.76,3.47-2.56-4.05-5.22-7.94-8-11.71-7.42-2.52-14.47-7.07-20.7-11.63-.2-.14,0-.47.19-.34a204.7,204.7,0,0,0,19.24,10.29,174.81,174.81,0,0,0-13.58-15.84c-2.34-1.23-4.72-2.48-7-3.8-.18-.11-.06-.42.15-.35a25.1,25.1,0,0,1,5.36,2.63C921.62,120,918.81,117.25,915.81,114.6Z"/><path class="cls-2" d="M916.45,127.19a8.65,8.65,0,0,1,1.16.82c.11.1,0,.24-.15.19a8.49,8.49,0,0,1-1.21-.68C916.05,127.39,916.24,127.05,916.45,127.19Z"/><polygon class="cls-3" points="1012.74 271.16 930.05 271.16 936.72 195.86 938.19 179.25 1004.6 179.25 1006.06 195.86 1012.74 271.16"/><polygon class="cls-2" points="1006.06 195.86 936.72 195.86 938.19 179.25 1004.6 179.25 1006.06 195.86"/><rect class="cls-3" x="934.23" y="167.64" width="74.32" height="16.44"/><polygon class="cls-1" points="447.08 129.62 628.92 129.62 628.92 34.19 447.08 34.19 447.08 34.19 447.08 129.62 447.08 129.62"/><polygon class="cls-1" points="657.07 129.62 628.92 129.62 628.92 100.31 657.07 129.62"/><rect class="cls-2" x="464.49" y="50.69" width="147.02" height="1.81"/><rect class="cls-2" x="464.49" y="60.48" width="91.17" height="1.81"/><rect class="cls-2" x="464.49" y="80.07" width="124.9" height="1.81"/><rect class="cls-2" x="464.49" y="89.86" width="147.02" height="1.81"/><rect class="cls-2" x="464.49" y="99.65" width="147.02" height="1.81"/><rect class="cls-2" x="464.49" y="109.44" width="72.49" height="1.81"/><rect class="cls-2" x="520.83" y="151.57" width="181.84" height="55.45"/><polygon class="cls-2" points="492.69 207.01 520.83 207.01 520.83 177.71 492.69 207.01"/><rect class="cls-4" x="538.59" y="166.8" width="132.06" height="1.81"/><rect class="cls-4" x="538.59" y="176.59" width="111.37" height="1.81"/><rect class="cls-4" x="538.59" y="186.38" width="119.66" height="1.81"/><path class="cls-1" d="M115.8,689.14V348.82a31.63,31.63,0,0,1,31.72-31.73H336.14c16.73,0,31.73,14.42,31.73,31.73,0,17.88-15,32.3-31.73,32.3H179.82V486.68h134.4c17.31,0,31.73,15,31.73,31.72,0,17.89-14.42,32.31-31.73,32.31H179.82V689.14c0,17.31-14.42,31.73-32.3,31.73A31.63,31.63,0,0,1,115.8,689.14Z"/><path class="cls-5" d="M115.8,689.14V348.82a31.63,31.63,0,0,1,31.72-31.73H336.14c16.73,0,31.73,14.42,31.73,31.73,0,17.88-15,32.3-31.73,32.3H179.82V486.68h134.4c17.31,0,31.73,15,31.73,31.72,0,17.89-14.42,32.31-31.73,32.31H179.82V689.14c0,17.31-14.42,31.73-32.3,31.73A31.63,31.63,0,0,1,115.8,689.14Z"/><path class="cls-1" d="M91.71,689.14V348.82a31.63,31.63,0,0,1,31.73-31.73H312.06c16.72,0,31.72,14.42,31.72,31.73,0,17.88-15,32.3-31.72,32.3H155.74V486.68h134.4c17.3,0,31.72,15,31.72,31.72,0,17.89-14.42,32.31-31.72,32.31H155.74V689.14c0,17.31-14.42,31.73-32.3,31.73A31.63,31.63,0,0,1,91.71,689.14Z"/><path class="cls-1" d="M576.39,625.69H436.22l-28.26,75a32.37,32.37,0,0,1-30,20.19,33.67,33.67,0,0,1-11-1.73c-16.73-6.35-24.8-24.81-19-41.53L475.44,337.86c5.2-12.69,17.89-20.77,30.58-20.19,13.26-.58,25.38,7.5,30.57,20.19L664.06,677.61c5.77,16.72-2.3,35.18-19,41.53a32.29,32.29,0,0,1-40.38-18.46Zm-23.65-63.45L506,438.22l-46.73,124Z"/><path class="cls-5" d="M576.39,625.69H436.22l-28.26,75a32.37,32.37,0,0,1-30,20.19,33.67,33.67,0,0,1-11-1.73c-16.73-6.35-24.8-24.81-19-41.53L475.44,337.86c5.2-12.69,17.89-20.77,30.58-20.19,13.26-.58,25.38,7.5,30.57,20.19L664.06,677.61c5.77,16.72-2.3,35.18-19,41.53a32.29,32.29,0,0,1-40.38-18.46Zm-23.65-63.45L506,438.22l-46.73,124Z"/><path class="cls-1" d="M552.3,625.69H412.14l-28.27,75a32.36,32.36,0,0,1-30,20.19,33.67,33.67,0,0,1-11-1.73c-16.73-6.35-24.81-24.81-19-41.53L451.36,337.86c5.19-12.69,17.88-20.77,30.57-20.19,13.27-.58,25.38,7.5,30.57,20.19L640,677.61c5.77,16.72-2.31,35.18-19,41.53a32.28,32.28,0,0,1-40.37-18.46Zm-23.65-63.45-46.72-124-46.72,124Z"/><path class="cls-1" d="M1178.69,728.52c-31.72,24.23-64.6,36.34-95.17,36.34h-1.73c-40.38,0-74.41-16.15-105.56-34.61A72.07,72.07,0,0,0,941,721.6c-19,0-38.65,8.07-40.95,9.8-11.54,6.35-24.81,5.19-33.46-1.73-.58-.57-1.73-.57-3.46-1.15-.58-.58-.58-.58-1.15-.58-2.89-4-6.35-7.5-8.08-13.27-8.65-17.3-.58-36.34,15.58-44.41l1.73-1.15a252.47,252.47,0,0,1-64-43.84,225.73,225.73,0,0,1-57.68-150.55A221.24,221.24,0,0,1,807.22,325.9c36.92-39.8,87.67-64,144.2-64a190.19,190.19,0,0,1,143.06,64c36.91,38.64,58.83,91.13,58.83,148.82,0,58.26-21.92,111.32-58.83,150.55a223.09,223.09,0,0,1-64,45.57L1017.18,676c24.23,13.27,46.15,20.76,64.61,20.76,16.72,0,32.88-4,56.52-21.92,14.42-11.53,35.19-8.65,46.73,5.77S1194.27,715.83,1178.69,728.52Zm-321.29-150a125.54,125.54,0,0,0,94,41.53c36.92,0,69.8-15.58,95.18-41.53,24.8-26.54,39.8-62.88,39.8-103.83s-15-77.3-39.8-102.68c-25.38-26.53-58.26-42.1-95.18-42.1a124,124,0,0,0-94,42.1c-24.8,25.38-39.8,61.72-39.8,102.68S832.6,552,857.4,578.55Z"/><path class="cls-5" d="M1178.69,728.52c-31.72,24.23-64.6,36.34-95.17,36.34h-1.73c-40.38,0-74.41-16.15-105.56-34.61A72.07,72.07,0,0,0,941,721.6c-19,0-38.65,8.07-40.95,9.8-11.54,6.35-24.81,5.19-33.46-1.73-.58-.57-1.73-.57-3.46-1.15-.58-.58-.58-.58-1.15-.58-2.89-4-6.35-7.5-8.08-13.27-8.65-17.3-.58-36.34,15.58-44.41l1.73-1.15a252.47,252.47,0,0,1-64-43.84,225.73,225.73,0,0,1-57.68-150.55A221.24,221.24,0,0,1,807.22,325.9c36.92-39.8,87.67-64,144.2-64a190.19,190.19,0,0,1,143.06,64c36.91,38.64,58.83,91.13,58.83,148.82,0,58.26-21.92,111.32-58.83,150.55a223.09,223.09,0,0,1-64,45.57L1017.18,676c24.23,13.27,46.15,20.76,64.61,20.76,16.72,0,32.88-4,56.52-21.92,14.42-11.53,35.19-8.65,46.73,5.77S1194.27,715.83,1178.69,728.52Zm-321.29-150a125.54,125.54,0,0,0,94,41.53c36.92,0,69.8-15.58,95.18-41.53,24.8-26.54,39.8-62.88,39.8-103.83s-15-77.3-39.8-102.68c-25.38-26.53-58.26-42.1-95.18-42.1a124,124,0,0,0-94,42.1c-24.8,25.38-39.8,61.72-39.8,102.68S832.6,552,857.4,578.55Z"/><path class="cls-1" d="M1154.61,728.52c-31.73,24.23-64.61,36.34-95.18,36.34h-1.73c-40.38,0-74.41-16.15-105.56-34.61A72.06,72.06,0,0,0,917,721.6c-19,0-38.65,8.07-41,9.8-11.54,6.35-24.8,5.19-33.45-1.73-.58-.57-1.73-.57-3.47-1.15-.57-.58-.57-.58-1.15-.58-2.88-4-6.34-7.5-8.08-13.27-8.65-17.3-.57-36.34,15.58-44.41l1.73-1.15a252.82,252.82,0,0,1-64-43.84,225.78,225.78,0,0,1-57.68-150.55A221.29,221.29,0,0,1,783.13,325.9c36.92-39.8,87.68-64,144.21-64a190.17,190.17,0,0,1,143.05,64c36.92,38.64,58.84,91.13,58.84,148.82,0,58.26-21.92,111.32-58.84,150.55a222.82,222.82,0,0,1-64,45.57L993.1,676c24.22,13.27,46.14,20.76,64.6,20.76,16.73,0,32.88-4,56.53-21.92,14.42-11.53,35.18-8.65,46.72,5.77S1170.18,715.83,1154.61,728.52Zm-321.29-150a125.54,125.54,0,0,0,94,41.53c36.91,0,69.79-15.58,95.17-41.53,24.81-26.54,39.81-62.88,39.81-103.83s-15-77.3-39.81-102.68c-25.38-26.53-58.26-42.1-95.17-42.1a124,124,0,0,0-94,42.1c-24.81,25.38-39.8,61.72-39.8,102.68S808.51,552,833.32,578.55Z"/><path class="cls-6" d="M596,766.2c4.09,1.29,120.31-.65,124.7-3.52,1.67-1.08,2.37-18,2.65-38.52.06-4.43.09-9,.1-13.64.09-30.14-.27-57.87-.27-57.87l-77.78,2,2.44,56.88.57,13.64s-44.17,20.64-48.64,24.31S592,764.9,596,766.2Z"/><path class="cls-1" d="M596,766.2c4.09,1.29,120.31-.65,124.7-3.52,2-1.33,2.65-26.06,2.75-52.16l-75.61,1,.57,13.64s-44.17,20.64-48.64,24.31S592,764.9,596,766.2Z"/><path class="cls-7" d="M596,766.2c4.09,1.29,120.31-.65,124.7-3.52,1.67-1.08,2.37-18,2.65-38.52l-74.94,1s-44.17,20.64-48.64,24.31S592,764.9,596,766.2Z"/><path class="cls-5" d="M663.66,765.88c28.24-.71,55-1.84,57.08-3.2,1.67-1.09,2.38-18,2.65-38.53l-15.34.21C696.24,735.5,674.92,755.39,663.66,765.88Z"/><path class="cls-2" d="M597.63,761.52c19.48-.8,98.1-2.2,117.42-1.52.15,0,.16.12,0,.13-19.29,1.21-97.92,2-117.41,1.71C597.23,761.83,597.22,761.54,597.63,761.52Z"/><path class="cls-2" d="M607.21,745.19A15.69,15.69,0,0,1,619,749.76c2.46,2.6,4.6,6.28,4.53,10.33,0,.11-.22.12-.24,0-1.24-7.61-8.29-14.19-16-14.65A.13.13,0,0,1,607.21,745.19Z"/><path class="cls-2" d="M640.92,727.25c7.8-.24,16.89,2.36,21.84,8.66.19.24-.16.51-.39.4a107.53,107.53,0,0,0-21.56-8.1A.49.49,0,0,1,640.92,727.25Z"/><path class="cls-2" d="M634.94,729.7c7.8-.24,16.89,2.36,21.84,8.66.19.24-.16.51-.39.39a108,108,0,0,0-21.57-8.09A.49.49,0,0,1,634.94,729.7Z"/><path class="cls-2" d="M629,732.14c7.8-.24,16.88,2.37,21.84,8.66.19.25-.16.52-.39.4a108,108,0,0,0-21.57-8.1A.49.49,0,0,1,629,732.14Z"/><path class="cls-2" d="M623,734.59c7.8-.24,16.88,2.36,21.84,8.66.19.25-.16.51-.4.4a107.91,107.91,0,0,0-21.56-8.1A.49.49,0,0,1,623,734.59Z"/><path class="cls-2" d="M709.78,741.58c8.75-.12,9,13.48.18,13.6S701,741.7,709.78,741.58Z"/><path class="cls-2" d="M633,718c4.3,5.36,10.77,8.67,16.39,12.42a1,1,0,0,0,1.39-.65.21.21,0,0,0,.24-.23,40.92,40.92,0,0,0-7.42-19.82c-2.49-3.36-7.52-6.48-11.41-3.14C628.47,709.74,630.45,714.87,633,718Zm-.47-6.45c.64-8.5,8.4-2.11,10.14.44a44.31,44.31,0,0,1,2.93,5.21,122,122,0,0,1,4.59,11.48c-2.64-2-5.44-3.77-8.16-5.68C638.75,720.72,632.14,716.23,632.49,711.55Z"/><path class="cls-2" d="M678.59,724.1c-.7-5.08-6.53-6.08-10.62-5.22a40.88,40.88,0,0,0-18.7,9.9.2.2,0,0,0,0,.33.94.94,0,0,0,.6,1.41c6.69.93,13.73,2.74,20.5,1.59C674.35,731.43,679.24,728.91,678.59,724.1Zm-18.26,5.75c-3.3-.37-6.56-.91-9.88-1.16,3.66-1.92,7.21-4,11-5.54a44,44,0,0,1,5.66-2c3-.75,13-.38,7.87,6.4C672.19,731.33,664.26,730.3,660.33,729.85Z"/><path class="cls-3" d="M644.8,705.6H730s-16-181.3-15.36-184.78c.85-4.45,5.87-24.58,12.57-50.87,2.09-8.23,4.35-17.06,6.71-26.21,6.34-24.74,13.34-51.78,19.44-75.31,9.15-35.25,16.29-62.64,16.29-62.64H697.45s-8.41,26.66-19,61.35c-17.27,56.38-40.35,134-42.63,152.83C632.12,550.43,644.8,705.6,644.8,705.6Z"/><path class="cls-2" d="M648.58,691.07c13-.27,9.26-.37,22.27-.5,6.37-.06,48.19-.42,54.14.56a.14.14,0,0,1,0,.26c-6,1-47.77.63-54.14.56-13-.12-9.27-.23-22.27-.5A.19.19,0,0,1,648.58,691.07Z"/><path class="cls-2" d="M698.57,508.67c2.8-12.31,7-24.37,10.6-36.46q11.07-36.82,22.27-73.6,5.59-18.41,11.23-36.78c1.91-6.19,3.81-12.37,5.75-18.55s4.05-12,5.76-18.13c.69-2.48,1.07-1.12.18,2-1.79,6.35-3.57,12.71-5.42,19q-5.49,18.82-11.07,37.62-11.07,37.43-22.34,74.79-5.62,18.74-11.27,37.47a152.79,152.79,0,0,0-4.6,18.13,83.3,83.3,0,0,0-.75,19.39c.81,13,2.32,26,3.52,39s2.42,26.05,3.62,39.08c2.4,25.92,3.69,34.26,6,60.19.29,3.28.58,6.57.83,9.86.09,1.1-1.57,1-1.69,0-2.8-25.63-3.84-33.77-6.25-59.44s-4.79-51.09-7.17-76.64c-.6-6.41-1.29-12.83-1.29-19.28A80,80,0,0,1,698.57,508.67Z"/><path class="cls-2" d="M705.64,305.79c5,38.76,14.56,111.43,21.53,164.16,16.27-63.89,42.44-164.16,42.44-164.16Z"/><path class="cls-6" d="M682.17,766.54c4,1.41,120.28,2.91,124.75.16,1.7-1,2.9-18,3.78-38.43.19-4.42.35-9,.5-13.63,1-30.12,1.44-57.85,1.44-57.85l-77.81-.27.76,56.93.17,13.64S691,746.42,686.42,750,678.13,765.13,682.17,766.54Z"/><path class="cls-1" d="M682.17,766.54c4,1.41,120.28,2.91,124.75.16,2.06-1.27,3.41-26,4.28-52.06l-75.61-1.19.17,13.64S691,746.42,686.42,750,678.13,765.13,682.17,766.54Z"/><path class="cls-7" d="M682.17,766.54c4,1.41,120.28,2.91,124.75.16,1.7-1,2.9-18,3.78-38.43l-74.94-1.18S691,746.42,686.42,750,678.13,765.13,682.17,766.54Z"/><path class="cls-2" d="M683.9,761.91c19.49-.23,98.12.69,117.4,2,.16,0,.16.12,0,.12-19.31.65-97.93-.91-117.41-1.75C683.48,762.21,683.49,761.92,683.9,761.91Z"/><path class="cls-2" d="M694,745.88a15.65,15.65,0,0,1,11.6,4.9c2.39,2.68,4.41,6.42,4.22,10.46,0,.12-.22.12-.24,0-1-7.64-7.86-14.43-15.58-15.12A.12.12,0,0,1,694,745.88Z"/><path class="cls-2" d="M728.18,728.93c7.8,0,16.8,2.86,21.57,9.3.18.25-.17.51-.4.39A108.19,108.19,0,0,0,728,729.89.49.49,0,0,1,728.18,728.93Z"/><path class="cls-2" d="M722.13,731.2c7.8,0,16.8,2.86,21.57,9.3.18.25-.18.51-.41.39A108.1,108.1,0,0,0,722,732.16.49.49,0,0,1,722.13,731.2Z"/><path class="cls-2" d="M716.08,733.47c7.8,0,16.8,2.86,21.57,9.3.18.25-.18.51-.41.39a107.5,107.5,0,0,0-21.31-8.73A.49.49,0,0,1,716.08,733.47Z"/><path class="cls-2" d="M710,735.74c7.8,0,16.8,2.86,21.57,9.3.18.25-.18.51-.41.39a107.5,107.5,0,0,0-21.31-8.73A.49.49,0,0,1,710,735.74Z"/><path class="cls-2" d="M796.58,745.29c8.75.14,8.55,13.74-.22,13.6S787.81,745.15,796.58,745.29Z"/><path class="cls-2" d="M720.49,719.45c4.14,5.49,10.51,9,16,12.9a1,1,0,0,0,1.41-.61.21.21,0,0,0,.25-.22,40.91,40.91,0,0,0-6.83-20c-2.39-3.43-7.32-6.7-11.31-3.47C716.24,711.06,718.08,716.25,720.49,719.45Zm-.28-6.46c.89-8.48,8.46-1.86,10.12.74a43.8,43.8,0,0,1,2.78,5.3,119.35,119.35,0,0,1,4.25,11.61c-2.59-2.09-5.33-3.94-8-5.93C726.2,722.34,719.73,717.66,720.21,713Z"/><path class="cls-2" d="M765.92,726.9c-.55-5.1-6.34-6.27-10.46-5.54a41,41,0,0,0-19,9.35.21.21,0,0,0,0,.33,1,1,0,0,0,.57,1.43c6.65,1.12,13.63,3.14,20.44,2.19C761.47,734.1,766.43,731.72,765.92,726.9Zm-18.42,5.21c-3.29-.48-6.53-1.11-9.84-1.46,3.71-1.81,7.32-3.77,11.21-5.21a42.85,42.85,0,0,1,5.71-1.78c3-.67,13,0,7.68,6.62C759.31,733.93,751.42,732.67,747.5,732.11Z"/><path class="cls-3" d="M699.78,305.79s1.67,34.53,9.57,61.88c.63,2.26,1.32,4.48,2.06,6.62,0,0,8.23,3,20.8,10.69,0,0,.83,27.78,1.67,58.76.92,34.63-4.45,73.27-4.65,81.46-.72,30.66,3,180.06,3,180.06l85.13.34s-14.56-169.08-14.45-180.31c.16-18-6.2-143.63-5.12-146.44,13.7-35.84-4.42-73.06-4.42-73.06Z"/><path class="cls-2" d="M735.16,690.11c13-.21,9.27-.33,22.27-.4,6.37,0,48.2-.22,54.14.79a.14.14,0,0,1,0,.26c-6,1-47.78.42-54.14.33-13-.18-9.27-.27-22.27-.6A.19.19,0,0,1,735.16,690.11Z"/><path class="cls-2" d="M707.87,372.23A157.47,157.47,0,0,1,732.21,385a.28.28,0,0,1-.25.5c-8.22-4-16.6-7.83-24.59-12.27A.55.55,0,0,1,707.87,372.23Z"/><path class="cls-2" d="M720.69,360.65q-.39-5.85-.9-11.68c-.78-8.86-1.71-17.77-3.26-26.54-.12-.68-1.09-.42-1,.23.6,6.89,1.38,13.77,2,20.66s1.47,13.74,1.59,20.59c0,2.07-.1,5.57-2.64,6.14-3.41.77-5-3.71-5.83-6.15a113.88,113.88,0,0,1-4.28-18.77c-1.12-7.23-1.71-14.56-2.41-21.83,0-.27-.46-.23-.46,0,0,14.45.16,29.55,5.56,43.19,1.05,2.66,2.9,5.36,6,5.72h.14a.75.75,0,0,0,0,.26c.06.4.17.8.25,1.2s.12.68.2,1c.14.7.24,1.41.42,2.11a.53.53,0,0,0,1-.12.45.45,0,0,0,.3-.42,11.61,11.61,0,0,0-.94-4.09,5.11,5.11,0,0,0,3.73-3.14C721.29,366.44,720.87,363.4,720.69,360.65Z"/><path class="cls-2" d="M789.17,378.85c.71-6,2.33-11.91,3.72-17.76,3.14-13.23,1-31.22-2.37-44.14-.09-.33.47-.46.58-.13,3.39,11,5.86,26.91,4.54,38.48-.62,5.49-5,22.18-4.91,28.15.28,11.76-.66,112,.13,152.91.53,26.85,6.09,116.91,6.94,143.75,0,.25-.4.24-.42,0-3.12-47.86-7.17-96.77-7.81-143.66C788.94,490.84,788.4,385.36,789.17,378.85Z"/><path class="cls-2" d="M747.15,319.9c.37,4.11.53,8.24,1.13,12.34.54,3.63,1.73,7.25,4.61,10a24.48,24.48,0,0,0,9.59,5.45c4.68,1.4,18.9,1.43,23.75.74,1.22-.17,1.1.76-1.2,1.26-2.57.57-13,1.15-15.7,1.15a34.41,34.41,0,0,1-7.65-.53,21.44,21.44,0,0,1-11.11-5.79A17.87,17.87,0,0,1,746,333.31a67.75,67.75,0,0,1,.51-13.43C746.55,319.56,747.12,319.57,747.15,319.9Z"/><path class="cls-2" d="M737.52,193.78c-2.95-4.48-5.23-9.17-4.85-14.67a26.67,26.67,0,0,1,5.3-13.55,26.8,26.8,0,0,0-3.29,8.47c-2.07,11.77,8.88,19.54,10.92,30.29a15.65,15.65,0,0,1-1.41,9.56c-1.36,3-3.15,5.89-3.93,9.14a19.53,19.53,0,0,0,3.22,15.66c3.72,5.17,9.6,7.47,15.74,8.3A41.32,41.32,0,0,0,779.67,245,27.3,27.3,0,0,0,793.21,234a23.25,23.25,0,0,0,3-8.45c.52-3.2.63-6.47,1.35-9.63a14.35,14.35,0,0,1,5.37-8.6c2.54-1.92,5.48-3.23,8.16-4.92l.06,0c.78-.26,1.56-.52,2.34-.8a18.19,18.19,0,0,0,8.38-5.63A22.24,22.24,0,0,0,826,186a20.37,20.37,0,0,0-1-11.74,58.32,58.32,0,0,0-4.2-7.62c-1.53-2.92-3.72-5.65-4.33-8.94-.69-3.75,3.84-14,1.45-21.48a13.67,13.67,0,0,0-10.22-9.57,23.46,23.46,0,0,0-3.84-6.06c-9-10.3-23.34-15.84-35.63-11.63-8,2.73-11.79,8.37-15.38,13-4.29,5.49-4.13,12.21-4.41,18.84a29.81,29.81,0,0,1-1.93,10.14,51.3,51.3,0,0,1-4.39,8l-.78,1.21a71.35,71.35,0,0,0-5.56,7.39,25,25,0,0,0-3.9,13.38c.28,10.72,11.05,17.11,12,27.61,0,.21.35.22.34,0C744,202.9,740.49,198.27,737.52,193.78Zm75.2,7.44a26.8,26.8,0,0,0,8.58-11,29.23,29.23,0,0,0,2.09-15.48,26.44,26.44,0,0,0-1.16-4.8l.09.18a27.49,27.49,0,0,1,3,6.91,24.19,24.19,0,0,1-2.06,15.24c-2.15,4.44-5.79,7.17-10.33,8.9Z"/><path class="cls-3" d="M675.21,125.22l10.5,54.12c.49,1.6-.37,2.83-1.91,2.75l-27.55-1.52a4.47,4.47,0,0,1-3.66-3l-10.51-54.13c-.48-1.6.37-2.83,1.91-2.74l27.55,1.52A4.47,4.47,0,0,1,675.21,125.22Z"/><path class="cls-3" d="M671.94,125l10.51,54.13c.48,1.59-.38,2.82-1.92,2.74L653,180.36a4.47,4.47,0,0,1-3.66-3.05l-10.51-54.13c-.48-1.6.38-2.83,1.91-2.74L668.27,122A4.47,4.47,0,0,1,671.94,125Z"/><path class="cls-2" d="M664.25,127a2.35,2.35,0,1,0,2.42-2.27A2.35,2.35,0,0,0,664.25,127Z"/><path class="cls-6" d="M759.55,211c-17.14,32.5-54.15,74-68.65,73.53-6.89-.23-19.28.85-28-7.49-18.94-18.2-33.9-52-36.39-71.1-.89-6.79,32.53-19.85,37.11-14.15,10.73,13.36,22.73,39.16,24.74,39.1,7.44-.22,37.56-23,58.58-39.1C772.51,172.24,766.38,198,759.55,211Z"/><path class="cls-6" d="M627.34,171.07c4.1-13.51,7.23-16.34,4.63-29.58-1.7-8.68,3.11-13.5,8.88-6.32,9.44,11.73,7.81,30.26,5.4,36.52Z"/><path class="cls-6" d="M627.87,211.83s-5.22-19.33-2.27-34.15c2-10.25,8.95-32.06,38.39-42.38,7-2.44,18.66-1,8.71,7.16-7.07,5.78-13.3,7.31-16.8,11.42,0,0,14.64,3.63,16.82,10.72a136.55,136.55,0,0,1,4.37,18.94,27.85,27.85,0,0,1-3.47,1.13s1.83,6.71-3.5,15.85Z"/><path class="cls-6" d="M629.1,168.2c4.34-3.34,13.65-10.28,23.24-13.31,10.65-3.36,32.08-7,34.48.93,1.76,5.78-6.3,7.88-6.3,7.88s9.17.37,9.61,6c.41,5.08-5.92,6.32-5.92,6.32s5.52,1.19,5,6.16c-.66,6-12.13,2.51-18,8C669.83,191.34,629.1,168.2,629.1,168.2Z"/><path class="cls-2" d="M654,166.74c4.6-2.48,16.48-5.43,26.34-3.2.22.05.31.24.09.24a110,110,0,0,0-26.4,3.06S654,166.77,654,166.74Z"/><path class="cls-2" d="M657.72,177.4c4.18-1.73,16.56-4.23,26.48-1.63.22.06.29.26.08.25a117.31,117.31,0,0,0-26.54,1.48C657.68,177.51,657.67,177.42,657.72,177.4Z"/><path class="cls-1" d="M625.59,219.74S650,274,665.33,280.81s24.71,5.9,30.55,5.3a15.62,15.62,0,0,0,6.27-2.69c16.25-10.5,46.21-48.92,58.66-70.71,9.34-16.38,9.08-31.61-4.14-27.32-3.29,1.05-7.38,3.34-12.34,7.12-24.81,18.93-53.42,36.73-54.71,36s-14-23.14-14-23.14Z"/><path class="cls-2" d="M631.79,229.69c1.82-.9,19-6.68,22.7-7.86s19-6.13,23-7a.14.14,0,0,1,.09.27c-3.72,1.61-19.11,6.65-22.91,7.93s-20.85,6.62-22.8,6.94C631.68,230,631.67,229.75,631.79,229.69Z"/><path class="cls-3" d="M702.2,221.66c7.93,8.37,19.59,19.78,32.09,28.92,4.14-5.16,8.19-10.47,11.92-15.66a217.74,217.74,0,0,1-27.58-24C712.51,215.09,706.87,218.75,702.2,221.66Z"/><path class="cls-5" d="M655.27,271.76c3.55,4.38,7,7.67,10.06,9,15.28,6.86,24.71,5.91,30.55,5.3a15.33,15.33,0,0,0,6.28-2.68c16.23-10.5,46.2-48.92,58.65-70.71,8.47-14.86,9-28.75-.76-28C733.7,206.45,683.54,248.2,655.27,271.76Z"/><path class="cls-1" d="M715.66,257,694,311.63s78.81,1.68,103.08,1.41c0,0,15.24-88.58-9.06-118.34-12.15-14.88-22.76-14-33.07-4.75-2.61,2.35-37.06,28.58-41,43.22A37.41,37.41,0,0,0,715.66,257Z"/><path class="cls-2" d="M732.88,254.32a101.36,101.36,0,0,1,14.67,2.54c2.38.63,4.72,1.37,7.06,2.17,1.17.39,2.34.75,3.52,1.1a15.72,15.72,0,0,0,3.78.74.09.09,0,0,1,0,.18,27.66,27.66,0,0,1-3.64-.1,25.63,25.63,0,0,1-3.47-.68c-2.43-.62-4.82-1.36-7.25-2-4.88-1.3-9.76-2.6-14.73-3.55C732.58,254.68,732.64,254.29,732.88,254.32Z"/><path class="cls-2" d="M720.61,258.59a107.1,107.1,0,0,1,12.28-.48c2.05,0,4.08.2,6.12.42,1,.1,2,.22,2.92.35s2.11.44,3.18.57c.11,0,.11.19,0,.18-1-.1-2.05,0-3.06-.05l-3.06-.11c-2-.07-4.09-.12-6.13-.2-4.09-.18-8.17-.31-12.26-.34C720.38,258.93,720.4,258.61,720.61,258.59Z"/><path class="cls-1" d="M789.25,191.52c35.18,24,72.83,72.76,68.44,86.8-4.9,15.63-55.52-18.41-54.65-20.74.73-2-8.42-20.63-21.48-47.36C768.26,183,780.55,185.59,789.25,191.52Z"/><path class="cls-3" d="M794.26,236.36c4,8.37,6.86,14.67,8.11,18.19a275.89,275.89,0,0,0,39.93-10.62c-3.85-5.27-8.28-10.74-13.07-16.19A222.57,222.57,0,0,1,794.26,236.36Z"/><path class="cls-6" d="M857.69,278.32c-4.75,10.74-22.38,16.07-65.51,33.66-6,2.43-34.47-35.07-28.23-38,7.86-3.69,39.15-16.29,41.56-16.92C825.79,251.73,860.91,271,857.69,278.32Z"/><path class="cls-6" d="M772.52,270.18s-18.44,6.6-27.06,13.07c-11.53,8.65-17.92,20.88-20.29,26.16-4.95,11-9.29,41.13-.84,43.89,7.65,2.49,10.53-28.49,10.53-28.49s-8.15,31.11,1.62,32.42,11-34.84,11-34.84-7.65,32.15,2.63,31.91c7.77-.17,10.79-32.85,10.79-32.85s-6.39,27.67,1.61,27.83c8.84.18,13.51-29.81,13.51-29.81,20.4-3,28.88-12.79,34.09-20.47C811.42,297.14,772.52,270.18,772.52,270.18Z"/><path class="cls-2" d="M737,313.87c-1.09,3.62-2.22,7.28-3,11s-1.4,7.44-1.82,11.2a64.2,64.2,0,0,0-.22,14.77c-.23-8.79,2.3-22.09,3.06-25.79s1.34-7.43,2.1-11.13C737.15,313.8,737,313.79,737,313.87Z"/><path class="cls-2" d="M750.41,316.39c-1.19,4.68-2.54,9.28-3.53,14s-1.49,9.27-2.15,14c-.05.36.17.27.23-.1.84-4.73,2-9.05,2.89-13.78s1.61-9.49,2.67-14.16C750.54,316.33,750.43,316.32,750.41,316.39Z"/><path class="cls-2" d="M762.32,316.47c-2.19,7.07-3.07,14.52-3.76,21.86,0,.36.23.21.29-.16,1.11-7.29,1.93-13,3.72-21.62C762.59,316.42,762.37,316.33,762.32,316.47Z"/><path class="cls-1" d="M763.77,270s41.71,41.23,42.23,41.11,49.41-20.92,51.69-32.81S823.5,252.58,805.55,257,763.77,270,763.77,270Z"/><path class="cls-2" d="M780.1,266.94c1.67,1.33,14.76,15,17.54,18s14.26,15.3,16.86,18.66a.15.15,0,0,1-.21.21c-3.18-2.81-14.8-15.16-17.69-18.19s-15.54-16.82-16.72-18.52C779.78,267,780,266.85,780.1,266.94Z"/><path class="cls-2" d="M826.36,257.86c-3.89-1.14-14.7-3.47-24.14-.16a.07.07,0,1,0,0,.14c8-1.74,20.15-.67,24,.16C826.41,258,826.46,257.89,826.36,257.86Z"/><path class="cls-8" d="M766.35,272.56l-2.62-2.5-.07-.06.09,0a328.91,328.91,0,0,1,39.14-13.28l-.25.49c-2.59-6.88-5.44-13.67-8.38-20.42s-6.06-13.41-9.48-19.93c3.65,6.4,7,13,10,19.7s6,13.76,8.7,20.78c-13.45,3.49-26.63,8-39.69,12.78l0-.1,2.54,2.58Z"/><path class="cls-8" d="M792.28,231.7a48.46,48.46,0,0,1-6.74-8.62,73.14,73.14,0,0,1,6.74,8.62Z"/><path class="cls-6" d="M779.34,194c-.84,1.78-12.42,12-20.89,9.74-2.76-.74.61-16,.61-16V186.6l-.11-16.54,21.11-7.87,3-1s-.27,4.53-.66,10.16c0,.27,0,.53,0,.81s0,.62-.05.91c0,.85-.1,1.71-.17,2.56,0,.65-.1,1.29-.18,2s-.13,1.35-.19,2A106.5,106.5,0,0,1,779.34,194Z"/><path class="cls-5" d="M759.05,186.82c11.4-.45,19.3-7,23.06-10.92,0-.1,0-.18,0-.27.08-.85.12-1.72.18-2.56,0-.29,0-.6,0-.91s0-.54.07-.81c.39-5.62.66-10.17.66-10.17l-3,1-21.12,7.88.11,16.53Z"/><path class="cls-6" d="M740.8,146.5c-2.21,28.94,14.88,33.54,21.12,34,5.67.43,25,1.16,30.21-27.4s-7.57-38.75-20.48-40.41S743,117.55,740.8,146.5Z"/><path class="cls-2" d="M747.09,139.61a19.27,19.27,0,0,0,2-.29,3.23,3.23,0,0,0,2-.68,1.05,1.05,0,0,0,.09-1.27,2.61,2.61,0,0,0-2.5-.77,3.8,3.8,0,0,0-2.47,1.18A1.11,1.11,0,0,0,747.09,139.61Z"/><path class="cls-2" d="M766.37,142.93a19.41,19.41,0,0,1-2-.5,3.25,3.25,0,0,1-1.9-.89,1,1,0,0,1,0-1.27,2.59,2.59,0,0,1,2.57-.5,3.74,3.74,0,0,1,2.32,1.44A1.11,1.11,0,0,1,766.37,142.93Z"/><path class="cls-2" d="M761.58,148.09c0-.07.15.11.14.19-.19,2-.07,4.29,1.69,5.06.05,0,0,.13,0,.11C761.21,153,761.08,149.94,761.58,148.09Z"/><path class="cls-2" d="M763.49,146.13c3.22,0,3.06,6.39.08,6.43S760.79,146.16,763.49,146.13Z"/><path class="cls-2" d="M764.74,146.5c.56.37,1.09,1,1.77,1.11s1.39-.56,1.92-1.19c.05-.07.11,0,.1.07,0,1.24-.51,2.49-1.84,2.64s-2.05-1-2.32-2.22C764.31,146.68,764.52,146.34,764.74,146.5Z"/><path class="cls-2" d="M750.06,146.67c0-.07-.16.09-.16.17,0,2-.38,4.28-2.21,4.86-.06,0-.06.12,0,.11C749.91,151.6,750.36,148.57,750.06,146.67Z"/><path class="cls-2" d="M748.38,144.52c-3.2-.39-3.73,6-.77,6.38S751.05,144.84,748.38,144.52Z"/><path class="cls-2" d="M747,144.83c-.53.29-1.08.87-1.69.86s-1.17-.75-1.56-1.45c0-.07-.1,0-.11.06-.13,1.22.17,2.53,1.33,2.87s1.93-.69,2.32-1.88C747.36,145.07,747.22,144.71,747,144.83Z"/><path class="cls-2" d="M761.73,163.63c-.47.47-.93,1.13-1.65,1.2a5.36,5.36,0,0,1-2.16-.45.07.07,0,0,0-.08.1,2.69,2.69,0,0,0,2.55,1,2.13,2.13,0,0,0,1.53-1.8C762,163.6,761.8,163.56,761.73,163.63Z"/><path class="cls-2" d="M752.76,155.77s-.52,3-.57,4.38a7.61,7.61,0,0,0,7.47-2c.11-.12-.07-.29-.21-.2a10.15,10.15,0,0,1-6.18,1.53c-.09-.4,1.06-5.07.84-5.09a12.18,12.18,0,0,0-3.23.61c.9-6.23,2.8-12.26,3.61-18.48a.19.19,0,0,0-.36-.1c-2.44,6.18-3.64,13.32-4.74,19.73C749.25,156.94,752.19,156,752.76,155.77Z"/><path class="cls-2" d="M790.38,156c-5.55.53-6.58-12.17-6.58-12.17s-23.42-4.71-24.83-23.93c0,0-4.41,12.09-16.9,17.24,0,0,1.46-21,18.24-24.56,0,0,20.91-6.89,32,9.87S794.1,155.69,790.38,156Z"/><path class="cls-2" d="M758.93,118.52a20.79,20.79,0,0,0,.79,8.78,21.64,21.64,0,0,0,4.2,7.87,18.33,18.33,0,0,0,1.54,1.64l.8.8c.28.24.58.47.87.7.6.45,1.18.93,1.79,1.35s1.29.76,1.94,1.12c.32.18.64.38,1,.54l1,.44,2,.85c1.41.44,2.84.81,4.26,1.15-1.34-.63-2.71-1.12-4-1.75l-1.92-1-1-.5c-.3-.19-.59-.4-.89-.6-.59-.41-1.19-.81-1.79-1.19s-1.1-.92-1.65-1.37l-.82-.68-.74-.77a17.75,17.75,0,0,1-1.43-1.57,24.79,24.79,0,0,1-4.27-7.35,26.41,26.41,0,0,1-1.19-4.13A25,25,0,0,1,758.93,118.52Z"/><path class="cls-6" d="M787.36,155s6.24-9.13,10.38-6.91-.5,15.4-5.31,17.25a4.91,4.91,0,0,1-6.6-2.58Z"/><path class="cls-2" d="M796.32,151.81a.07.07,0,0,1,0,.13c-3.37,1.41-5.12,4.57-6.33,7.83,1-1.26,2.35-2,4-.78.09.06,0,.2-.09.18a3,3,0,0,0-3.31,1.09,14.48,14.48,0,0,0-1.56,2.7c-.16.31-.7.15-.59-.2,0,0,0,0,0-.08C788.39,158.37,791.69,152.3,796.32,151.81Z"/><path class="cls-2" d="M203.59,112c-7.28-1.72-26.15,3.2-32.58,12.85s-6.15,25.43-2.94,27,17.14.62,26.77-4.5S207.17,112.88,203.59,112Z"/><path class="cls-2" d="M203.61,112.07c.24,0,.28-.45,0-.46-6.38-.26-13.27,1.79-19.38,3.45-4.94,1.35-10,3-14,6.24a17.14,17.14,0,0,0-6.43,12.84c-.29,5.64.4,12.46,3.1,17.5.08.15.36.11.31-.08-2.78-10.7-5.16-23.75,5.53-30.84C181.77,114.69,193.28,114.15,203.61,112.07Z"/><path class="cls-2" d="M169.17,149.14c-6.4.73-23.18,12.63-26.15,24.74s6.61,30.2,9.72,31.55,17.4-10.08,22.13-18.55c3.17-5.67.84-12.37-.45-19C172.51,158.05,170.17,149,169.17,149.14Z"/><path class="cls-2" d="M178.73,185.41c2.09-12.35-4.74-24.71-8.78-36a.12.12,0,0,0-.22.06c2.17,10.76,8.48,20.49,8.49,31.71,0,6.66-2.42,13.16-8,17.16-4.8,3.47-10.8,5-16.34,6.86-.37.12-.14.66.22.55C165.18,202.37,176.58,198.15,178.73,185.41Z"/><path class="cls-2" d="M167.78,150.27a.28.28,0,0,0-.22-.52c-9.15,4.16-20.18,10.27-25.18,19.4-5.42,9.88-.3,20.4,4.25,29.47.05.11.24,0,.18-.08-4.48-9.2-9.19-20.61-3.05-30.23C149,160,159.14,154.34,167.78,150.27Z"/><path class="cls-2" d="M153.47,205.12c4,2.62,9.47,10.51,10,19.18.94,14.83,6.73,12.52,22.26,18,13.13,4.64,14.46,20,6.53,26.71,0,0,5.11-8.87-3.5-14.34-10.29-6.53-36.24,2.34-47-14.23C127.75,219,153.47,205.12,153.47,205.12Z"/><path class="cls-2" d="M158.51,212.44c-.16-.21.21-.49.38-.28a21.59,21.59,0,0,1,3.74,6.79c1.05,3.23.77,6.57,1.59,9.83,2.09,8.29,11.78,9,18.73,10.2,9.32,1.62,16.29,8.12,15.86,18.06a.11.11,0,0,1-.22,0,16.82,16.82,0,0,0-8.52-15.18c-5.26-2.87-11.57-2.28-17.12-4.23-3.81-1.34-7.52-3.38-8.94-7.36-.78-2.18-.77-4.6-1.07-6.86A23.5,23.5,0,0,0,158.51,212.44Z"/><path class="cls-2" d="M150.82,206.64c.1-.06.21.09.12.16-5.85,4.71-12,9.41-14.32,16.93-2.48,8.09.94,16.79,6.92,22.44,6.7,6.32,14.77,4.45,23.05,3.68,6-.55,12-.63,17.61,2,.17.08,0,.36-.13.3-9.07-3.1-17.85-1.19-27.12-.64-7.57.44-13.17-2.74-17.37-9C130.29,228.63,138.25,214.71,150.82,206.64Z"/><path class="cls-1" d="M198.09,105.25c-2-2.6-6,.54-4,3.15S200.08,107.87,198.09,105.25Z"/><path class="cls-1" d="M200,109.59c-2-2.61-6,.53-4,3.15S202,112.2,200,109.59Z"/><path class="cls-1" d="M202.65,113.57c-2-2.6-6,.54-4,3.15S204.64,116.19,202.65,113.57Z"/><path class="cls-1" d="M205.72,117.07c-2-2.6-6,.54-4,3.15S207.71,119.69,205.72,117.07Z"/><path class="cls-1" d="M209.43,120.06c-2-2.61-6,.53-4,3.14S211.42,122.67,209.43,120.06Z"/><path class="cls-1" d="M213.45,122.25c-2-2.61-6,.53-4,3.14S215.44,124.86,213.45,122.25Z"/><path class="cls-9" d="M217.28,169.53c11,13.54,69.9,56.24,119.6,55.44,16.88-.27,63.8-72.34,72.47-99.75,6.23-19.67-35.57-29.61-47.37-26.77-14.73,3.55-43.46,65.37-49.14,65.77-16.87,1.17-45.86-9-81.45-12.6C213.11,149.77,208.8,159.1,217.28,169.53Z"/><path class="cls-9" d="M407.73,129.75c3.14-6.84,17.89-44.91,19.09-54.7s2.6-38.25-4.82-39.93-8.48,6.62-8.48,6.62-1.31-12.11-8.93-13.12-8.86,12-8.86,12-2.26-12.33-9.92-12.79-6.74,12.77-6.74,12.77-1.54-11.37-8-9.09c-7.79,2.73-2.6,23.38-4.73,34.1C365.85,68,353,114.2,353,114.2Z"/><path class="cls-2" d="M379,39.42c3.79,15.19,2.82,22.49-2,37.13-.09.29.31.49.44.2,6-13.9,8.58-22.88,2.31-37.55C379.43,38.48,378.83,38.69,379,39.42Z"/><path class="cls-2" d="M395.41,39.37C398,55.5,397,63.43,393,79.13c-.05.22.32.34.39.12,5.15-15.08,7.48-24.1,2.81-39.88C396,38.66,395.29,38.63,395.41,39.37Z"/><path class="cls-2" d="M413.29,42.53c1.35,15.79.64,24.53-5.13,39.29a.29.29,0,0,0,.53.24C416,67.59,417,56.69,413.78,42.54,413.56,41.58,413.21,41.54,413.29,42.53Z"/><path class="cls-9" d="M342.6,121.37s-2.18-19.5-1.25-28.28,16.45-40.21,23.43-37.24c9,3.83,3.63,23.74-.28,33.14,0,0,20.85,8.84,20.08,24S342.6,121.37,342.6,121.37Z"/><path class="cls-2" d="M366.91,57.71c5.7,9.42-.23,21.44-3.34,30.85a.91.91,0,0,0,.84,1.23c8.49,4.28,19.22,12.8,20.63,22.75a.23.23,0,0,0,.46,0c-.07-10.87-9.93-20.1-19.53-24.2,3.34-9.6,8.76-21.91,1-30.66C367,57.6,366.87,57.65,366.91,57.71Z"/><path class="cls-10" d="M287.69,159.43,267.18,206.9s-31-14.74-49.87-33.83,2.1-25.46,20.37-22.68S287.69,159.43,287.69,159.43Z"/><path class="cls-11" d="M217.31,173.08c18.86,19.07,49.87,33.83,49.87,33.83l6.24-14.43L211,156.26C208.65,160.06,209.92,165.6,217.31,173.08Z"/><path class="cls-2" d="M259.43,200.24c10.12-19,16.1-37.08,17.72-40.74.08-.17-.21-.28-.28-.1-1.4,3.68-11.15,23.83-17.75,40.74C259.05,200.33,259.33,200.43,259.43,200.24Z"/><path class="cls-10" d="M264.29,253.15l8.41,64.23H138.29S156.07,197,184.78,160c14.35-18.49,33.59-18,47.19-3.87,3,3.08,33,46,38.29,63.69C274.89,235.42,264.29,253.15,264.29,253.15Z"/><path class="cls-2" d="M225.17,162.51l8.48,22.77q4.22,11.39,8.07,22.87c2.39,7.69,5.28,15.38,4.13,23.23a59.24,59.24,0,0,1-7.63,22.38l-.18.33,0,.32c1.16,10.21,2.54,20.39,3.79,30.59s2.68,20.38,4.12,30.55q-1.29-15.36-2.79-30.7c-1-10.22-2-20.45-3.1-30.67l-.14.66a61.09,61.09,0,0,0,8.2-23.21,33.41,33.41,0,0,0-.88-12.44c-1-4-2.28-7.85-3.59-11.7-2.6-7.7-5.67-15.21-8.74-22.72S228.58,169.86,225.17,162.51Z"/><path class="cls-2" d="M243.92,192.17a2,2,0,0,1-1.48,2.32,1.83,1.83,0,0,1-2.09-1.62,2,2,0,0,1,1.48-2.32A1.83,1.83,0,0,1,243.92,192.17Z"/><path class="cls-2" d="M252.07,214.35a2,2,0,0,1-1.48,2.32,1.82,1.82,0,0,1-2.09-1.62,2,2,0,0,1,1.47-2.32A1.84,1.84,0,0,1,252.07,214.35Z"/><path class="cls-2" d="M253.09,237a2,2,0,0,1-1.47,2.31,1.82,1.82,0,0,1-2.1-1.62,2,2,0,0,1,1.48-2.32A1.83,1.83,0,0,1,253.09,237Z"/><path class="cls-2" d="M246.81,255.69a2,2,0,0,1-1.48,2.31,1.82,1.82,0,0,1-2.09-1.62,2,2,0,0,1,1.48-2.32A1.83,1.83,0,0,1,246.81,255.69Z"/><path class="cls-2" d="M249.25,276.12a2,2,0,0,1-1.47,2.32,1.84,1.84,0,0,1-2.1-1.63,2,2,0,0,1,1.48-2.31A1.82,1.82,0,0,1,249.25,276.12Z"/><path class="cls-2" d="M251.48,296.3a2,2,0,0,1-1.48,2.32,1.83,1.83,0,0,1-2.09-1.63,2,2,0,0,1,1.48-2.32A1.83,1.83,0,0,1,251.48,296.3Z"/><path class="cls-9" d="M224.54,387.74c-6.76,4.6-18.16-15.67-22-20s-5.54-4.21-5.32-.89l-8.82-35c4.57,3.55,14.27,11.18,19.42,16.18C214.7,354.72,231.33,383.14,224.54,387.74Z"/><path class="cls-9" d="M173.86,165.11c-28.71,23.15-64.9,63.87-72.28,90.2C95.89,275.62,124.46,346.2,133,362.67c3.71,7.18,52.88-14.67,55.05-23s-32.11-69.15-32.46-75.6,22.07-49.06,37.36-77.87C211.43,151.27,198.28,145.43,173.86,165.11Z"/><path class="cls-9" d="M219.72,407.83c-4.53,4.93-13.69-1-13.69-1s8.15,10.08,1.77,14-15.08-4.69-15.08-4.69,7,9.66.36,13.1-15.23-4.06-15.23-4.06.46,3.71-5.32,4c-8.3.48-20.14-13-24.67-21.47s-14.82-43-16.3-48.26l54.29-29.51s1,.72,2.51,1.92l8.82,35c.15,2.18,6.35,15.62,8.61,19.48C210.89,395,224.8,402.3,219.72,407.83Z"/><path class="cls-2" d="M205.75,406.3c-12.17-9.22-15.9-15.36-21.19-29.43-.1-.28-.53-.18-.45.11,3.92,14.25,7.49,22.63,21.22,29.93C206,407.27,206.33,406.74,205.75,406.3Z"/><path class="cls-2" d="M193.33,416.37c-11.81-10.68-15.91-17.31-22.53-31.64-.09-.2-.45-.06-.37.15,5.32,14.6,9.07,22.87,22.27,32C193.29,417.29,193.87,416.85,193.33,416.37Z"/><path class="cls-2" d="M177.81,424.91c-10.68-11.17-15.49-18.23-20.13-33a.28.28,0,0,0-.55.14c3.27,15.48,9.21,24.35,20.31,33.12C178.2,425.8,178.49,425.61,177.81,424.91Z"/><path class="cls-10" d="M179.25,228.47l-41.43-30.93s21.52-26.76,44.45-40.69,24.28,7.94,17.36,25.06S179.25,228.47,179.25,228.47Z"/><path class="cls-2" d="M146.09,191.54c16.18,14.25,32.35,24.24,35.54,26.66.15.12.31-.14.16-.24-3.25-2.22-20.61-16.37-35.53-26.69C146.09,191.15,145.93,191.4,146.09,191.54Z"/><path class="cls-2" d="M186.55,210.92c2.53-5.66,6-13.9,8.83-19.41,0-.07.15,0,.13.06-1.12,3.22-2.4,6.41-3.73,9.58.1-.16.2-.33.31-.49,1-1.48,2.1-2.93,3.25-4.33,0-.05.11,0,.09.06q-1.32,2.42-2.83,4.7c-.64.95-1.31,1.87-2,2.79-.72,1.67-2.4,5.81-3.13,7.46-1.21,2.78-7.18,18.5-7.44,18.33a51.88,51.88,0,0,1-4.17-3.13c-.2-.17.12-.54.32-.37.73.62,2.61,1.88,2.92,2.11,1.35-2.84,2.46-5.84,3.69-8.74S185.27,213.78,186.55,210.92Z"/><path class="cls-9" d="M204,151.06c.69,2.39,13,17.45,24.07,16.35,3.58-.37,2.46-20,2.46-20l.25-1.47,3.47-20.59-24.72-14.06L206,109.42s-.57,5.69-1.22,12.79c0,.33-.07.66-.09,1s-.1.78-.13,1.15c-.11,1.06-.22,2.14-.3,3.22-.07.82-.14,1.62-.18,2.49s-.11,1.71-.17,2.58C203.44,141.22,203.71,150.05,204,151.06Z"/><path class="cls-2" d="M204.74,122.21a41.88,41.88,0,0,0,26,23.7l3.47-20.59-24.72-14.06L206,109.42S205.39,115.11,204.74,122.21Z"/><path class="cls-9" d="M260,89.07c7.44,35.87-13.2,44.38-20.94,46-7,1.45-31.12,5.49-42.23-29.42s3.21-49.71,19.1-53.87S252.58,53.2,260,89.07Z"/><path class="cls-2" d="M247.92,80.63a23.79,23.79,0,0,1-2.53-.11,4.12,4.12,0,0,1-2.55-.59,1.31,1.31,0,0,1-.27-1.57,3.24,3.24,0,0,1,3-1.28,4.8,4.8,0,0,1,3.22,1.16A1.4,1.4,0,0,1,247.92,80.63Z"/><path class="cls-2" d="M223.26,86.12c.83-.25,1.55-.61,2.35-.93a4.11,4.11,0,0,0,2.22-1.4,1.31,1.31,0,0,0-.26-1.57A3.24,3.24,0,0,0,224.3,82a4.72,4.72,0,0,0-2.66,2.16A1.39,1.39,0,0,0,223.26,86.12Z"/><path class="cls-2" d="M229.61,93.88c0-.09-.17.16-.15.26.55,2.43.77,5.31-1.29,6.55-.06,0,0,.16.05.13C230.85,99.92,230.52,96.1,229.61,93.88Z"/><path class="cls-2" d="M226.93,91.75c-4,.46-2.78,8.42.92,8S230.28,91.36,226.93,91.75Z"/><path class="cls-2" d="M225.43,92.41c-.63.55-1.19,1.45-2,1.66s-1.82-.47-2.57-1.18c-.08-.07-.14,0-.13.11.21,1.53,1,3,2.71,3,1.52,0,2.39-1.54,2.53-3.13C226,92.56,225.68,92.18,225.43,92.41Z"/><path class="cls-2" d="M244.68,90.43c0-.09.21.09.22.19.28,2.48,1,5.28,3.37,5.77.07,0,.09.14,0,.14C245.49,96.55,244.55,92.83,244.68,90.43Z"/><path class="cls-2" d="M246.51,87.54c3.93-.88,5.39,7,1.76,7.85S243.22,88.27,246.51,87.54Z"/><path class="cls-2" d="M248.26,87.75c.7.31,1.46,1,2.22.86s1.36-1.07,1.76-2c0-.09.12,0,.14.07.32,1.5.11,3.17-1.29,3.73s-2.49-.61-3.13-2C247.84,88.09,248,87.63,248.26,87.75Z"/><path class="cls-2" d="M235.21,112.66c.65.52,1.33,1.26,2.24,1.24a6.63,6.63,0,0,0,2.6-.91.08.08,0,0,1,.12.11,3.34,3.34,0,0,1-3,1.69,2.66,2.66,0,0,1-2.19-2C234.93,112.66,235.11,112.59,235.21,112.66Z"/><path class="cls-2" d="M244,102.07s1.11,3.59,1.4,5.33c0,.16-.38.31-1,.44,0,0,0,0-.07,0a8.36,8.36,0,0,1-8.51-1.76c-.15-.15,0-.36.22-.28a12.61,12.61,0,0,0,7.88.92c0-.51-2.12-6.09-1.84-6.16a15.3,15.3,0,0,1,4.08.24c-2.1-7.55-5.4-14.7-7.38-22.25a.24.24,0,0,1,.43-.18c4,7.25,6.6,15.88,9,23.62C248.56,103,244.77,102.25,244,102.07Z"/><path class="cls-2" d="M232.72,56.29s2,5.32.45,9.44c-3.1,8.46-13.06,7.26-16.09,10.78-2.84,3.3-1.16,9.42-3.7,12.69-3.52,4.54-9,3.43-9.39,6.29s-1.39,12-4.85,13.43S173.65,52.69,220.47,50.1c0,0,6.15-3.23,16.56.83,11.48,4.47,18,22,18,22s-.26-.22-2-1.47c-2.44-1.77-3.48-3.53-5.26-4.66-2.78-1.77-4.13-.87-7-2.58C236.35,61.65,232.72,56.29,232.72,56.29Z"/><path class="cls-2" d="M231.77,53.78a32,32,0,0,1,2,7,13.16,13.16,0,0,1-.34,7,9.66,9.66,0,0,1-4.95,4.67c-2.14,1-4.57,1.5-6.86,2.68a7.3,7.3,0,0,0-2.9,2.65,9.62,9.62,0,0,0-1,3.71c-.27,2.44-.55,4.85-2,6.7a8.07,8.07,0,0,1-6,3.22c-2.35.23-5-.18-7.2,1.07,2.29-1.07,4.77-.46,7.24-.5a8.82,8.82,0,0,0,6.66-3.24c1.74-2,2-4.76,2.32-7.11a8.74,8.74,0,0,1,.94-3.3,6.27,6.27,0,0,1,2.5-2.18c2-1.11,4.5-1.63,6.76-2.75a12.91,12.91,0,0,0,3.16-2.13,7.72,7.72,0,0,0,2.18-3.17,13.8,13.8,0,0,0,.06-7.46A32.69,32.69,0,0,0,231.77,53.78Z"/><path class="cls-2" d="M232.86,55.82A25.53,25.53,0,0,0,235.73,62a12,12,0,0,0,5.17,4.7,17.47,17.47,0,0,0,3.35.94,5.61,5.61,0,0,1,2.68,1.45,16.91,16.91,0,0,0,2.29,2.56,7.66,7.66,0,0,0,3.12,1.44,8.34,8.34,0,0,1-2.74-1.87,16.66,16.66,0,0,1-2-2.7,6,6,0,0,0-3.08-1.93,19.08,19.08,0,0,1-3.17-.94,12.85,12.85,0,0,1-4.87-4.18A50.36,50.36,0,0,1,232.86,55.82Z"/><path class="cls-9" d="M206.46,103.79s-9.62-10.11-14.32-6.51,3.73,19.08,10.09,20.41a6.19,6.19,0,0,0,7.71-4.54Z"/><path class="cls-2" d="M194.67,101.66c-.1,0-.1.14,0,.16,4.48,1.07,7.3,4.65,9.47,8.47-1.49-1.37-3.33-2-5.2-.15-.09.09,0,.25.15.21a3.8,3.8,0,0,1,4.35.68,18.23,18.23,0,0,1,2.49,3c.26.35.91,0,.7-.37l-.05-.09C205.86,108.22,200.53,101.32,194.67,101.66Z"/><path class="cls-10" d="M230.79,149l-5.19,16.7-21.75-18.84-5.17,7S221,184.8,221,183.32l5.54-14.48,10.41,8.92-2.75-24.29Z"/><path class="cls-2" d="M236.25,165.68c-.59-4-1.07-8-1.85-12,0-.14-.25-.19-.27,0-.49,4,1.84,19.21,2.12,22.89l-.05,0c-.43-.39-9.61-7.82-9.68-7.68-1.27,2.33-5.34,12.88-5.6,13.83-3.52-4.91-17-22.73-21-27.31a.14.14,0,0,0-.23.16c3.19,5.23,21,29.24,21.25,29.15a158.67,158.67,0,0,0,5.77-15.31c1.59,1.65,10.93,10.12,10.91,9.52A126.89,126.89,0,0,0,236.25,165.68Z"/></svg>