<svg id="Слой_1" data-name="Слой 1" xmlns="http://www.w3.org/2000/svg" viewBox="0 0 1800 1000"><defs><style>.cls-1{fill:#ececec;}.cls-2{fill:#dcdcdc;}.cls-3{fill:#306;}.cls-4{fill:#ffc800;}.cls-5{opacity:0.1;}.cls-6{fill:#4a148c;}.cls-7{fill:#ed776a;}.cls-8{fill:#ff9cbf;}.cls-9{fill:#fff;}.cls-10{fill:#a8a8a8;}.cls-11{fill:#c36358;}.cls-12{fill:#c8c8c8;}.cls-13{fill:#1a2e35;}</style></defs><polygon class="cls-1" points="59.95 879.9 391.48 879.9 398.37 743.87 53.06 743.87 59.95 879.9"/><path class="cls-2" d="M375.77,806.14H237.16l-2.59-47.23H378.8Zm-137-1.68H374.2L377,760.58H236.33Z"/><path class="cls-2" d="M373.21,860.47H242.59l-2.12-42.63h135.4Zm-129-1.68H371.64l2.45-39.28H242.23Z"/><path class="cls-2" d="M319.81,787.64H296.52l-1.47-11.39h26.23ZM298,786h20.35l1-8H297Z"/><path class="cls-2" d="M319.81,844.85H296.52l-1.47-11.39h26.23ZM298,843.17h20.35l1-8H297Z"/><path class="cls-2" d="M212.74,806.14H74.14l-2.6-47.23H215.77Zm-137-1.68H211.17L214,760.58H73.3Z"/><path class="cls-2" d="M210.18,860.47H79.56l-2.12-42.63h135.4Zm-129-1.68H208.61l2.45-39.28H79.2Z"/><path class="cls-2" d="M156.78,787.64H133.49L132,776.25h26.23ZM135,786h20.35l1-8H133.93Z"/><path class="cls-2" d="M156.78,844.85H133.49L132,833.46h26.23ZM135,843.17h20.35l1-8H133.93Z"/><polygon class="cls-1" points="89.69 879.9 87.61 894.72 83.42 924.49 75.23 924.49 75.23 879.9 89.69 879.9"/><polygon class="cls-2" points="89.69 879.9 87.61 894.72 75.23 894.72 75.23 879.9 89.69 879.9"/><polygon class="cls-1" points="361.75 879.9 363.83 894.72 368.02 924.49 376.2 924.49 376.2 879.9 361.75 879.9"/><polygon class="cls-2" points="361.75 879.9 363.83 894.72 376.2 894.72 376.2 879.9 361.75 879.9"/><path class="cls-3" d="M143.78,273.8a31.44,31.44,0,0,1-.35-12.24c.69-3.79,3-7.44,6.9-11,1.17-1.09,2.63-2.35,4.38-3.8a41.76,41.76,0,0,0,5-4.9,21.84,21.84,0,0,0,3.69-6,11.89,11.89,0,0,0,.53-7,11.17,11.17,0,0,0-2.12-4.73,11.57,11.57,0,0,0-3.58-3,11.86,11.86,0,0,0-4.55-1.34,16.12,16.12,0,0,0-4.91.27,14,14,0,0,0-5.15,2.14,18.86,18.86,0,0,0-3.81,3.46,22,22,0,0,0-2.74,4.22,36.92,36.92,0,0,0-1.83,4.24l-13.36-5.56a26.37,26.37,0,0,1,3.06-8.35,29,29,0,0,1,5.41-6.82,31.23,31.23,0,0,1,7.26-5,35.11,35.11,0,0,1,8.6-3,36.24,36.24,0,0,1,10.36-.65,25.92,25.92,0,0,1,9.9,2.8,24.78,24.78,0,0,1,8.17,6.87,27.55,27.55,0,0,1,5,11.46,26.87,26.87,0,0,1,.6,7.78,21.69,21.69,0,0,1-1.62,6.57,25.34,25.34,0,0,1-3.39,5.76,51.56,51.56,0,0,1-4.88,5.37q-2.34,2.18-4.71,4.22a32.71,32.71,0,0,0-4.19,4.32,16.39,16.39,0,0,0-2.74,4.92,11.21,11.21,0,0,0-.2,6ZM150.66,305l-3.91-18.48,14.86-3.16,3.92,18.49Z"/><path class="cls-4" d="M186.23,884.51V541.68a31.86,31.86,0,0,1,32-32h190c16.85,0,31.95,14.52,31.95,32,0,18-15.1,32.54-31.95,32.54H250.73V680.55H386.12c17.43,0,31.95,15.11,31.95,32,0,18-14.52,32.54-31.95,32.54H250.73V884.51c0,17.43-14.53,32-32.54,32A31.86,31.86,0,0,1,186.23,884.51Z"/><path class="cls-5" d="M186.23,884.51V541.68a31.86,31.86,0,0,1,32-32h190c16.85,0,31.95,14.52,31.95,32,0,18-15.1,32.54-31.95,32.54H250.73V680.55H386.12c17.43,0,31.95,15.11,31.95,32,0,18-14.52,32.54-31.95,32.54H250.73V884.51c0,17.43-14.53,32-32.54,32A31.86,31.86,0,0,1,186.23,884.51Z"/><path class="cls-4" d="M162,884.51V541.68a31.86,31.86,0,0,1,31.95-32h190c16.85,0,32,14.52,32,32,0,18-15.11,32.54-32,32.54H226.46V680.55H361.85c17.44,0,32,15.11,32,32,0,18-14.52,32.54-32,32.54H226.46V884.51c0,17.43-14.52,32-32.54,32A31.85,31.85,0,0,1,162,884.51Z"/><path class="cls-4" d="M174.23,761.58c-33,44.67-67.37,96.52-75.75,152.54-.1.85,1.26,1.12,1.45.28a334.05,334.05,0,0,1,14.59-44.85c21.69-6,43-10.87,54.36-32.4,11.62-22.12,10.14-51,7.93-75.07C176.66,760.78,174.91,760.72,174.23,761.58Z"/><path class="cls-3" d="M114.85,869.13c14.82-33.26,33.84-66.64,58-94,.16-.18.42.08.27.27-15.84,19.47-27.86,40.68-39.61,62.26,10.92-11.09,22.89-21,33.23-32.78.21-.23.53.11.34.34-10.28,12.32-21.5,25.72-34.88,34.84Q126.84,850,121.34,860c.9-.51,1.83-1,2.75-1.41.16-.08.31.16.14.24-1,.52-2,1.06-3.08,1.51-1.74,3.14-3.46,6.29-5.25,9.42C115.51,870.44,114.53,869.83,114.85,869.13Z"/><path class="cls-3" d="M125.87,857.53a194.41,194.41,0,0,0,25.32-16.91c.22-.17.53.13.31.31a133.52,133.52,0,0,1-25.26,17.22C125.82,858.36,125.47,857.76,125.87,857.53Z"/><path class="cls-4" d="M94.66,905.79c.07.68,1.22.67,1.21,0,.17-18.45,0-37,.29-55.52,4.73-9.54,14.87-14.82,21.93-22.46a98,98,0,0,0,13.16-18.32c8.72-15.61,13.44-33.16,15.26-50.89,2-19.74-5.54-84.86-13.86-82.59-4.31,1.17-18.27,33.42-22,44.08a306.09,306.09,0,0,0-13.13,54.07C90.8,817.52,91.36,862.1,94.66,905.79Z"/><path class="cls-3" d="M94.53,826.21l.09-.08c1-23.34,6.27-46.91,11.19-69.55,5.3-24.4,11.5-47.36,24.05-69.12a.36.36,0,0,1,.62.37c-8.54,16.83-14.64,34.7-19.32,53,.84-1.32,1.86-2.57,2.74-3.81.34-.49,1.15,0,.81.48-1.23,1.83-2.34,4-3.92,5.53-.05.06-.11.06-.17.08-4.32,17.43-7.42,35.27-10.07,53.05.2-.22.39-.47.59-.68s.36,0,.27.21c-.33.59-.7,1.17-1.06,1.76-1.33,9-2.57,18-3.82,27,16.08-13.74,29.8-29.94,37.55-49.89,0-.09.18-.06.15,0-7.59,20.7-19.55,39.1-38,51.66q-.49,3.62-1,7.21c-.07.5-.86.36-.86-.12,0-2.12.11-4.26.19-6.39A.49.49,0,0,1,94.53,826.21Z"/><path class="cls-3" d="M102.1,792.38c12.29-18.33,23.77-36.14,32.76-56.41.09-.22.48-.06.4.17-7.58,20.14-18.19,40.54-32.54,56.72C102.43,793.19,101.86,792.75,102.1,792.38Z"/><path class="cls-3" d="M118.43,731.44c5.09-9,10.46-17.76,15.25-27,.13-.25.48,0,.38.23-4,9.38-8.83,18.91-14.84,27.18A.46.46,0,0,1,118.43,731.44Z"/><path class="cls-3" d="M116.44,735.36a.08.08,0,0,1,0,.16A.08.08,0,0,1,116.44,735.36Z"/><path class="cls-4" d="M82.18,852.44a188.79,188.79,0,0,1-4.31,36.35c.19,1.31.38,2.62.57,4a173.14,173.14,0,0,0,6.5-40.51A1.24,1.24,0,0,0,85,851v0a268.35,268.35,0,0,0-4.07-54.9c-5.71-33.9-18.19-66.44-41.84-91.85a1.68,1.68,0,0,0-2.61.53C26.93,729,30.26,758,38.38,782.16a142,142,0,0,0,18.75,36.77C65.25,830.33,75.59,840,82.18,852.44Z"/><path class="cls-3" d="M41.88,715.56c22.41,36.37,38,79.49,39.91,122.45,0,.76-1.25,1-1.36.19-.53-3.86-1.12-7.69-1.74-11.5h0c-9.27-8.88-18.78-18.25-25.42-29.35a.2.2,0,0,1,.32-.24c8.06,9.21,15.59,18.66,24.69,26.88q-2.4-14.25-5.75-28.06c-.6-.69-1.19-1.39-1.78-2.08-.38-.46.26-1.12.67-.67l.54.6a324.22,324.22,0,0,0-11.72-37.2c-5.7-6.81-12.08-12.69-16.24-20.88a.18.18,0,0,1,.3-.18c3.34,4.69,6.57,9.41,10.36,13.76,1.51,1.73,3.17,3.35,4.74,5A286.39,286.39,0,0,0,41,716.07.5.5,0,0,1,41.88,715.56Z"/><path class="cls-3" d="M46.41,760.43c7.24,9.74,15.5,19,22.23,29.12.19.29-.23.59-.47.36-8.65-8.12-16-19.2-22.25-29.2C45.72,760.4,46.2,760.14,46.41,760.43Z"/><path class="cls-3" d="M69.65,791.81l.31.31c.22.21-.12.54-.33.33l-.31-.31C69.11,791.93,69.44,791.59,69.65,791.81Z"/><path class="cls-4" d="M6.77,785.48c1.8,18.71,11.64,41.06,23.64,55.48a58.91,58.91,0,0,0,19.18,15c8.31,4.11,17,8.85,25.59,12.22a168.25,168.25,0,0,1,9.07,32.19c.27-.94.55-1.92.83-2.85C79.56,850.1,48.9,809.61,9.69,783.61A1.9,1.9,0,0,0,6.77,785.48Z"/><path class="cls-3" d="M20.32,799.47c-.28-.24.09-.74.39-.51,20.78,15.39,39.51,37.84,50,61.58.28.64-.61,1.21-1,.57-1.83-3.2-3.69-6.31-5.58-9.36h0c-9-1.69-17.43-8-24.07-14-.18-.16.08-.42.26-.26a54.77,54.77,0,0,0,11.33,8c3.64,1.86,7.57,3,11.37,4.51-3.32-5.27-6.77-10.32-10.38-15.21-9.64-3.28-18.81-9.2-26.9-15.12-.26-.19,0-.61.25-.44a268.46,268.46,0,0,0,25,13.37A222.33,222.33,0,0,0,33.32,812c-3-1.61-6.13-3.22-9.07-4.94-.24-.14-.09-.55.19-.46a32.3,32.3,0,0,1,7,3.42C27.86,806.45,24.22,802.92,20.32,799.47Z"/><path class="cls-3" d="M21.15,815.83a12.53,12.53,0,0,1,1.51,1.08c.14.13,0,.31-.19.25a10.14,10.14,0,0,1-1.57-.9C20.62,816.09,20.88,815.66,21.15,815.83Z"/><polygon class="cls-6" points="146.27 1002.92 38.82 1002.92 47.49 905.07 49.4 883.49 135.69 883.49 137.6 905.07 146.27 1002.92"/><polygon class="cls-3" points="137.6 905.07 47.49 905.07 49.4 883.49 135.69 883.49 137.6 905.07"/><rect class="cls-6" x="44.26" y="868.4" width="96.58" height="21.36"/><path class="cls-7" d="M47.5,533.39c1.32-4,71.82-97.13,76.63-98.93.55-.23,32.07,22.2,32.07,22.2,1.3,1.73,61.2-10.93,61.2-10.93L218,518l-109.12-2.32s-14.74,8.66-28.22,15.72c0,0,0,0,0,0-8.3,4.37-15.64,8.05-17.74,8.6C57.42,541.41,46.16,537.35,47.5,533.39Z"/><path class="cls-4" d="M62.87,540c2.11-.54,9.44-4.23,17.73-8.61,0,0,0,0,.06,0,13.47-7,28.21-15.73,28.21-15.73l24.29.52,38-61.35c-8.35,1.48-14.57,2.37-15,1.81,0,0-31.5-22.43-32-22.18-4.82,1.79-75.31,94.93-76.64,98.92S57.41,541.42,62.87,540Z"/><path class="cls-3" d="M46.86,533.51c1.38-4.08,72.2-97.17,77.15-99,1.87-.71,17.29,8.82,32.19,22.17l-45.73,60S68.28,539,62.64,540.41,45.47,537.59,46.86,533.51Z"/><path class="cls-3" d="M51.6,535c12.25-15.31,60.23-78.24,71.18-94.31.09-.13,0-.19-.09-.07-12.48,14.91-59.95,78.22-71.35,94.19C51.1,535.15,51.34,535.33,51.6,535Z"/><path class="cls-3" d="M70.54,537a15.79,15.79,0,0,0,3.3-12.24c-.65-3.55-2.36-7.47-5.68-9.82-.1-.07-.23.1-.15.19,5.43,5.53,6.57,15.17,2.34,21.72A.12.12,0,0,0,70.54,537Z"/><path class="cls-3" d="M105.18,520.33c4.84-6.18,8.14-15.1,6-22.87-.09-.3-.51-.18-.56.08a108.39,108.39,0,0,1-6.28,22.31A.49.49,0,0,0,105.18,520.33Z"/><path class="cls-3" d="M99.63,523.72c4.84-6.18,8.14-15.1,6-22.87-.08-.3-.51-.18-.56.08a107.77,107.77,0,0,1-6.28,22.31A.49.49,0,0,0,99.63,523.72Z"/><path class="cls-3" d="M94.08,527.11c4.84-6.18,8.15-15.1,6-22.87-.08-.3-.51-.17-.55.08a108.42,108.42,0,0,1-6.29,22.31A.49.49,0,0,0,94.08,527.11Z"/><path class="cls-3" d="M88.54,530.5c4.84-6.18,8.14-15.1,6-22.86-.08-.31-.51-.18-.55.08A108.93,108.93,0,0,1,87.69,530,.49.49,0,0,0,88.54,530.5Z"/><path class="cls-3" d="M134.58,456c5.31-7-5.59-15.28-10.91-8.25S129.26,463,134.58,456Z"/><path class="cls-3" d="M116.71,539.76c5-1.17,5.5-7.1,4.26-11.12a41.14,41.14,0,0,0-11.66-17.83.2.2,0,0,0-.32.06,1,1,0,0,0-1.36.74c-.31,6.79-1.48,14,.31,20.68C109,536.19,112,540.86,116.71,539.76ZM109.27,522c.07-3.34.3-6.66.25-10a123.23,123.23,0,0,1,6.57,10.56,42.91,42.91,0,0,1,2.48,5.49c1,2.92,1.59,13-5.68,8.48C108.88,534,109.18,526,109.27,522Z"/><path class="cls-3" d="M118.8,493.53c-5,4.8-7.69,11.59-10.92,17.56a1,1,0,0,0,.78,1.34.2.2,0,0,0,.25.22,41.07,41.07,0,0,0,19.17-9.27c3.14-2.81,5.8-8.13,2.09-11.72C126.66,488.26,121.71,490.73,118.8,493.53Zm6.43-1.07c8.57-.15,2.88,8.22.49,10.2a43.12,43.12,0,0,1-5,3.42,121.54,121.54,0,0,1-11.08,5.66c1.77-2.84,3.28-5.8,4.94-8.7C116.62,499.58,120.5,492.55,125.23,492.46Z"/><path class="cls-6" d="M220.7,423.57h49s51.23-24.62,92.5-14.7c47.31,11.37,53.36,70.8,18,91.81C335.37,527.3,136,522.14,136,522.14l43.1-73.05s66.3-13.95,126.42-11.93L220.7,448.72Z"/><path class="cls-3" d="M176.23,453.8a1.18,1.18,0,0,0,.09-.37c0-.1.05-.2.08-.3s.12-.48.19-.71a14.23,14.23,0,0,1,.5-1.43c.18-.47.39-.93.6-1.39a11.23,11.23,0,0,1,.81-1.29c0-.05.08-.06.11-.08l.08-.06s.07,0,.11,0a.37.37,0,0,1,.11-.05c7.29-1.35,56.83-8.44,64.2-9.28s14.87-1.54,22.32-2.17a444.82,444.82,0,0,1,44.71-1.6c1.4,0,2.79.07,4.19.12.3-.1.61-.15.92-.22.71-.17,1.43-.35,2.15-.49,1.34-.26,2.7-.46,4.05-.66,2.83-.43,5.66-.73,8.46-1.26.17,0,.24.23.07.27-2.82.62-5.6,1.44-8.42,2-.82.18-1.63.36-2.45.52,5.47.29,10.93.71,16.39,1.21.17,0,.17.28,0,.27-7.43-.44-14.91-.49-22.35-.37s-14.76.29-22.14.71c-14.91.86-29.82,2.19-44.68,3.75-8.34.87-58.85,8.24-67.22,8.59,0,0-.07,0-.11,0a4.53,4.53,0,0,1-.23.57c-.23.45-.46.9-.71,1.35s-.47.85-.74,1.26l-.41.61-.21.3a1.34,1.34,0,0,0-.22.31A.14.14,0,1,1,176.23,453.8Z"/><path class="cls-3" d="M151.55,517.7c2.67-4.27,4.94-8.82,7.38-13.23l7.37-13.24c4.9-8.8,22.5-38.39,24.24-40.46.11-.13.33,0,.28.17-.83,2.29-11.82,21.89-14.34,26.26-5.06,8.73-10.38,17.3-15.61,25.93-1.5,2.46-3.05,4.89-4.57,7.34s-3.13,4.86-4.52,7.37C151.7,518,151.46,517.85,151.55,517.7Z"/><path class="cls-3" d="M191,458.13c4.4-1.05,8.9-1.74,13.35-2.58L217.76,453q13.38-2.48,26.79-4.75c17.84-3,35.76-5.49,53.77-7.22,10.16-1,20.35-1.62,30.54-2.36.22,0,.21.32,0,.33-18.14.82-36.25,3.28-54.22,5.86q-26.69,3.83-53.25,8.35-7.5,1.26-15,2.57c-5.08.88-10.16,2-15.27,2.61C190.92,458.45,190.84,458.18,191,458.13Z"/><path class="cls-7" d="M121.27,769.68c4.39-.24,118-45.64,121.15-50,1.22-1.64-44.25-108.41-44.25-108.41L125.8,640l30.69,71.34s-34.76,35.87-37.71,41S116.9,769.94,121.27,769.68Z"/><path class="cls-3" d="M121.27,769.68c4.38-.24,118-45.65,121.14-50,.39-.5-3.75-11.19-9.64-25.69-19.47,11.27-90.49,50.88-97.54,49.65-4.91-.86-2.73-5.89-.37-9.62-7.69,8.27-14.83,16.12-16.08,18.33C115.86,757.47,116.9,770,121.27,769.68Z"/><path class="cls-6" d="M222.33,658.34l-83.65,38.45S70.07,536.92,67.56,480.66C65.43,432.78,87,392.27,194.79,423.24l26.4.33v18.22c-11.59,1.53-42.5,6.38-42.5,6.38-22.49,8.49-29.74,12-29.37,12.73C205.4,574.16,222.33,658.34,222.33,658.34Z"/><path class="cls-3" d="M136.13,440.69c3.25,4.33,6.26,8.84,9.13,13.43,17.29-7.68,36.1-12.14,54.82-14.44,5.3-.66,10.62-1.12,15.95-1.42.22,0,.21.32,0,.33a241,241,0,0,0-55.78,10.62c-5,1.54-9.93,3.34-14.86,5.09,3.45,5.54,6.71,11.2,9.83,16.9A337.59,337.59,0,0,1,171,504c2.58,6.21,5.1,12.47,7.32,18.82.06.18-.24.3-.31.12q-14.75-32.88-32.19-64.35c-3.29-5.92-6.71-11.76-9.92-17.73C135.76,440.73,136,440.53,136.13,440.69Z"/><path class="cls-3" d="M136.92,677.34c4.7-1.82,9.24-4.11,13.83-6.17L164.57,665c9.2-4.12,41-17.3,43.64-17.92a.17.17,0,0,1,.12.31c-2,1.34-22.56,10.47-27.2,12.45-9.28,4-18.66,7.66-28,11.44-2.67,1.08-5.37,2.1-8.05,3.16s-5.41,2-8,3.2C136.86,677.67,136.76,677.41,136.92,677.34Z"/><path class="cls-3" d="M136.53,449c6.35,12.06,11.75,24.68,17.27,37.14s10.83,24.9,16,37.44q15.48,37.49,28.85,75.78c5.05,14.44,7.24,24.38,11.85,39,.06.21-.27.28-.33.08-8.53-25.79-15.22-46.75-24.86-72.14s-19.84-50.45-30.65-75.3q-4.56-10.47-9.25-20.87c-3.14-6.94-6.4-13.84-9.33-20.87C136,449,136.38,448.71,136.53,449Z"/><path class="cls-3" d="M298.56,334.08a.87.87,0,0,1-.76.84l-3.5-.08c-2.41-8.37-5.22-15.11-4.56-12.52a42.16,42.16,0,0,1,1.13,12.44l-6.9-.25c-1.47-14.52-4-25.41-4.09-22.12-.27,13.26-1.41,17.43-2.72,21.88-16.63-.66-38.43-1.75-54.17-2.88-1.14-8.05-2-16.73-2.32-16.16-2.53,4.28-3.67,10.7-4.15,15.68-5-.39-9-.8-11.42-1.17,0,0-.6-6.74-.58-8.94a45.94,45.94,0,0,1,3.18-16.48c2.14-5.39,5.44-10,8.6-14.81a.44.44,0,0,1,.08-.1s0,0,0,0a46.68,46.68,0,0,0,5.07-9.94.15.15,0,0,0,0-.08,44.93,44.93,0,0,0,2-7.8c1.57-9.69,7.79-17.65,17.17-19.44,18.71-14.82,35.46-6.48,39.62,6.47.4,1.26.77,2.7,1.12,4.27v0c1.28,5.79,2.24,13.24,3.22,19a0,0,0,0,0,0,0s0,0,0,.06v0a53.39,53.39,0,0,0,1.5,6.7C289.63,299.27,299.13,305.9,298.56,334.08Z"/><path class="cls-3" d="M236.43,254.46c-6.28,2.62-10.37,6.88-11.91,13.92-.9,4.1-1.53,8.12-3.45,11.9s-4.88,7-7.84,10.08c-4.71,4.9-8.12,9.88-9.38,16.81s-1.66,15.43.16,22.26c0,0,.07,0,.06,0-1.36-6.87-.62-16.17,1.19-23.1,2-7.6,6.76-12.09,11.74-17.58a32.41,32.41,0,0,0,7.93-15.19c.75-3.48,1-7.15,2.71-10.34,2-3.81,5.62-6,9.15-8A.42.42,0,0,0,236.43,254.46Z"/><path class="cls-3" d="M295.28,300.49c-3.77-5.89-7.78-11-9.68-18.05-1.73-6.44-2.45-13.16-4.22-19.6a.08.08,0,0,0-.16,0c2.6,11.39,2.33,22.63,8.68,32.56,3.46,5.4,6.94,10.42,9,16.72a54.23,54.23,0,0,1,2.31,20.39c0,.24.3.26.34,0A45,45,0,0,0,295.28,300.49Z"/><path class="cls-3" d="M242.85,250.45c-.41,2.33-12.21,6.6-19.45-.35s-2.48-18.39,8.27-15.9C238.46,235.77,243.74,245.53,242.85,250.45Z"/><path class="cls-3" d="M220.65,239.05a13.88,13.88,0,0,1,6.88-6,8.33,8.33,0,0,1,8.28,1,16.81,16.81,0,0,1,5.33,7.24,26.22,26.22,0,0,1,1.39,4.46,12.61,12.61,0,0,1,.32,4.7,11.21,11.21,0,0,0,.53-4.82,20.48,20.48,0,0,0-.95-4.82,16.28,16.28,0,0,0-5.58-8.19,9.32,9.32,0,0,0-9.86-.84A12.27,12.27,0,0,0,220.65,239.05Z"/><path class="cls-7" d="M226,326.3c5.48,29,22.09,66.6,37.18,67.19,13.78.53,45.69-12.68,59-20s-12.91-40.85-20.87-36.69c-10.6,5.53-29.1,18.05-31.94,17-3.54-1.35-6.8-7.28-25.91-34.52C235.61,308.14,223.65,313.94,226,326.3Z"/><path class="cls-7" d="M316,325.74c6.27-1.48,13.34-3.68,20-2.82s11.3,10.31,11,12.85-4.52,18.07-11.23,17.34-1.34-12.43-1.44-13.85-.16-3.23-1.44-3.24-24.57,8.09-24.57,8.09Z"/><path class="cls-7" d="M316.28,326.71c.38,0,19.12-5.09,25.82-4.24s11.3,10.32,11,12.85-4.52,18.08-11.23,17.35-1.34-12.44-1.44-13.86-.16-3.23-1.44-3.23-24.57,8.09-24.57,8.09Z"/><path class="cls-3" d="M339.7,351.57a8,8,0,0,1-.68-4.08,13.69,13.69,0,0,1,.71-4.26,23.08,23.08,0,0,0,1.21-3.6,7.37,7.37,0,0,0-.55-3.65c-.41-1-1.43-.78-2.31-.57a32.31,32.31,0,0,0-3.83,1.25c-1.35.49-2.69,1-4,1.54a33.92,33.92,0,0,0-4.13,1.72c-.1.05,0,.22.06.19a37.16,37.16,0,0,0,3.57-1.16c1.34-.46,2.68-.91,4-1.34s2.5-.88,3.76-1.26a3.9,3.9,0,0,1,1.83-.34c.5.17.61,1.46.68,1.88a6.33,6.33,0,0,1-.62,3.6,19.46,19.46,0,0,0-1.1,3.6,9.92,9.92,0,0,0-.1,3.52,13.7,13.7,0,0,0,1.29,3.06C339.55,351.82,339.78,351.7,339.7,351.57Z"/><path class="cls-7" d="M293.09,342s20.43-14.92,24.67-17.86c8.49-5.91,42.63-15.71,47.24-15.7s5.24,9.53-18,16.83c-12.25,3.84-15.06,10.31-15.24,14.05s2.61,11,8.87,11.55,11.3-8.17,17.15-8.56.92,9.72-3.79,15.35-12.6,9.85-18.22,11.29-23.12,6.82-23.12,6.82Z"/><path class="cls-3" d="M348.86,347.32c-2.55,1.56-5.47,3.63-8.58,3.41s-5.06-2.53-6.26-5.29a11.9,11.9,0,0,1-.71-8.82,14.67,14.67,0,0,1,5-6.53,35.25,35.25,0,0,1,9.07-4.71c.15-.06.05-.27-.1-.22-3,1-12.35,3.66-15,11.36-1.08,3.14-.42,6.12.78,9,1.12,2.63,2.87,5.25,5.87,5.82,3.66.7,7.16-1.95,10-3.91C349.16,347.34,349,347.24,348.86,347.32Z"/><path class="cls-4" d="M224.14,332.16c2.22,16.92,6.54,28.54,8.84,33.84.93,2.16,1.54,3.27,1.54,3.27l28.11-19.79,3.88-2.72s-.45-.79-2-3c-2.19-3.08-6.59-8.91-15-19.1-5-6.05-9.33-10-12.94-12.2C226.38,306.37,221.83,314.63,224.14,332.16Z"/><path class="cls-4" d="M229.94,368.15l5.76,10.21,31.43-22.56,7.05-5.06c-.72-.77-7.66-8.37-7.66-8.37l-2,1.42-4,2.79L233,366Z"/><path class="cls-3" d="M224.14,332.16c2.22,16.92,6.54,28.54,8.84,33.84l-3,2.15,5.76,10.21,31.43-22.56-4.5-6.32-2.07-2.9c-9.27-13.08-18.49-26.13-24-34.09C226.38,306.37,221.83,314.63,224.14,332.16Z"/><path class="cls-7" d="M269.88,425.51,268.16,390s14.14-17.43,9-29.86c-2.6-6.29-21.15-38.39-31.37-46.46-9.59-7.57-24.33-.29-28.9,6-17.71,24.33-31.15,46.14-43.87,101,0,0,36,12.07,68.62,12.07C251.77,432.71,269.88,425.51,269.88,425.51Z"/><path class="cls-4" d="M274,416.59,268.16,390s14.14-17.43,9-29.86c-2.6-6.29-21.15-38.39-31.37-46.46-9.59-7.57-25.13-1.28-29.8,4.92-18.28,24.3-32.77,49.33-43.63,95.64Z"/><path class="cls-3" d="M237,388.19a85.22,85.22,0,0,1,12.68.48c2.09.26,4.15.62,6.22,1,1,.2,2.05.37,3.09.53a13.35,13.35,0,0,0,3.28.2.08.08,0,0,1,0,.15,22.8,22.8,0,0,1-3.09.33,23.12,23.12,0,0,1-3-.18c-2.12-.25-4.23-.59-6.35-.86-4.27-.55-8.54-1.09-12.85-1.32C236.82,388.53,236.82,388.19,237,388.19Z"/><path class="cls-3" d="M227.15,393.19a92.62,92.62,0,0,1,10.31-1.8c1.74-.2,3.48-.29,5.22-.34.84,0,1.67,0,2.51,0s1.83.13,2.75.12c.1,0,.11.14,0,.15-.87,0-1.73.22-2.59.3l-2.6.26c-1.73.18-3.46.37-5.2.53-3.47.32-6.93.67-10.39,1.11C227,393.5,227,393.23,227.15,393.19Z"/><path class="cls-7" d="M228.28,316.14c-.13,1.9,9.37,17.09,17.57,19.19,2.68.69,2.47-14.85,2.47-14.85l.57-1,7.91-13.88L242.74,289l-2.07-2.26s-1.92,3.94-4.25,8.87l-.33.7c-.14.28-.28.54-.4.8-.36.73-.72,1.48-1.06,2.23-.27.58-.53,1.13-.79,1.74s-.52,1.2-.8,1.81A104.66,104.66,0,0,0,228.28,316.14Z"/><path class="cls-3" d="M236.42,295.6a32,32,0,0,0,12.47,23.89l7.91-13.88L242.74,289l-2.07-2.26S238.75,290.67,236.42,295.6Z"/><path class="cls-7" d="M285.47,283.71c-.82,28-17.71,30.71-23.75,30.53-5.49-.17-24.15-1.44-26.23-29.41s11.21-36.45,23.78-36.73S286.29,255.67,285.47,283.71Z"/><path class="cls-3" d="M280.32,278.44a16.55,16.55,0,0,1-1.85-.58,3.14,3.14,0,0,1-1.78-.95,1,1,0,0,1,.12-1.21,2.47,2.47,0,0,1,2.49-.34,3.65,3.65,0,0,1,2.15,1.49A1.07,1.07,0,0,1,280.32,278.44Z"/><path class="cls-3" d="M262.31,276.58c.67,0,1.28-.14,1.93-.22a3.09,3.09,0,0,0,1.92-.6,1,1,0,0,0,.12-1.21,2.49,2.49,0,0,0-2.38-.81,3.63,3.63,0,0,0-2.39,1.06A1.07,1.07,0,0,0,262.31,276.58Z"/><path class="cls-3" d="M265.63,284c0-.07-.15.08-.16.16-.07,1.91-.48,4.08-2.25,4.59-.06,0-.06.11,0,.11C265.35,288.73,265.87,285.83,265.63,284Z"/><path class="cls-3" d="M264.08,281.9c-3.05-.45-3.74,5.68-.91,6.1S266.63,282.28,264.08,281.9Z"/><path class="cls-3" d="M262.84,282.09c-.58.29-1.17.84-1.82.83s-1.25-.71-1.67-1.38c0-.07-.1,0-.11.06-.15,1.17.17,2.42,1.41,2.74s2.07-.66,2.49-1.81C263.22,282.32,263.07,282,262.84,282.09Z"/><path class="cls-3" d="M276,285.05c0-.07.14.11.12.19-.28,1.88-.29,4.1,1.35,4.93.05,0,0,.12,0,.11C275.35,289.73,275.39,286.79,276,285.05Z"/><path class="cls-3" d="M277.9,283.27c3.08.13,2.59,6.28-.27,6.16S275.32,283.16,277.9,283.27Z"/><path class="cls-3" d="M279.15,283.78c.46.36.89,1,1.47,1.08s1.22-.53,1.7-1.13c.05-.06.09,0,.09.07-.06,1.18-.55,2.37-1.7,2.51s-1.72-.95-1.9-2.14C278.77,284,279,283.63,279.15,283.78Z"/><path class="cls-3" d="M264,299.34c.38.51.73,1.19,1.41,1.36a5.15,5.15,0,0,0,2.1-.15c.07,0,.12.05.07.1a2.57,2.57,0,0,1-2.56.65,2,2,0,0,1-1.22-1.9C263.79,299.28,263.94,299.27,264,299.34Z"/><path class="cls-3" d="M272.63,293.26s.11,2.88,0,4.22c0,.13-.34.15-.8.13,0,0,0,0-.05,0a6.39,6.39,0,0,1-5.94-3,.14.14,0,0,1,.21-.17,9.73,9.73,0,0,0,5.65,2.25c.13-.37-.35-4.93-.14-4.92a11.83,11.83,0,0,1,3,1c-.06-6-1.07-11.95-1-17.92a.18.18,0,0,1,.36-.05c1.51,6.15,1.72,13.06,1.93,19.25C275.8,294.82,273.14,293.54,272.63,293.26Z"/><path class="cls-3" d="M271,296.81a6.84,6.84,0,0,1-2.88,2,3,3,0,0,1-1.88,0c-1.34-.43-1.31-1.68-1-2.74a7.87,7.87,0,0,1,.71-1.6A8.91,8.91,0,0,0,271,296.81Z"/><path class="cls-8" d="M268.1,298.78a3,3,0,0,1-1.88,0c-1.34-.43-1.31-1.68-1-2.74A3.21,3.21,0,0,1,268.1,298.78Z"/><path class="cls-3" d="M269.85,254.29s.67,4.47-1.18,7.45c-3.79,6.11-11.38,3.56-14.32,5.82-2.75,2.11-2.43,7.17-4.95,9.31-3.49,3-7.59,1.22-8.36,3.39s-3,9.12-6,9.71-10.8-48.07,26.2-42.5c0,0,5.2-1.32,12.81,3.33,8.77,5.36,10.68,19.95,10.68,19.95s-.38,0-1.53-1.3c-1.62-1.78-2.15-3.32-3.35-4.48-1.89-1.84-3.09-1.36-5.07-3.16A24.72,24.72,0,0,1,269.85,254.29Z"/><path class="cls-3" d="M269.51,252.17A25.28,25.28,0,0,1,270,258a10.47,10.47,0,0,1-1.4,5.43,7.71,7.71,0,0,1-4.63,2.85c-1.84.46-3.81.43-5.79,1a5.78,5.78,0,0,0-2.7,1.6,7.91,7.91,0,0,0-1.41,2.73c-.6,1.87-1.21,3.7-2.62,4.92a6.45,6.45,0,0,1-5.21,1.54c-1.88-.2-3.89-.95-5.81-.33,2-.46,3.8.42,5.74.78a7,7,0,0,0,5.73-1.45c1.69-1.3,2.34-3.39,3-5.18a7,7,0,0,1,1.27-2.42,4.82,4.82,0,0,1,2.3-1.3c1.78-.54,3.78-.55,5.73-1.05a10.3,10.3,0,0,0,2.81-1.16,6.09,6.09,0,0,0,2.22-2.12,11.05,11.05,0,0,0,1.26-5.82A25.79,25.79,0,0,0,269.51,252.17Z"/><path class="cls-3" d="M270,253.94a20.37,20.37,0,0,0,1.23,5.32,9.54,9.54,0,0,0,3.28,4.51,14.5,14.5,0,0,0,2.46,1.28,4.42,4.42,0,0,1,1.86,1.57,14.12,14.12,0,0,0,1.38,2.37,6.05,6.05,0,0,0,2.2,1.63,6.92,6.92,0,0,1-1.84-1.9,14.67,14.67,0,0,1-1.11-2.43,4.71,4.71,0,0,0-2.09-2,14.43,14.43,0,0,1-2.32-1.25A10.11,10.11,0,0,1,272,259,39.88,39.88,0,0,1,270,253.94Z"/><path class="cls-7" d="M240,285.21s-5.07-9.41-9.27-7.7-1.09,14.85,3.34,17.11a4.74,4.74,0,0,0,6.61-1.8Z"/><path class="cls-3" d="M231.74,281.26c-.08,0-.11.08,0,.12,3.09,1.69,4.45,4.9,5.28,8.16-.82-1.31-2.06-2.12-3.8-1.16-.1.05,0,.19.06.18a2.93,2.93,0,0,1,3.08,1.39,14.39,14.39,0,0,1,1.22,2.75c.12.31.66.22.59-.13a.31.31,0,0,0,0-.08C238.68,288.36,236.13,282.19,231.74,281.26Z"/><path class="cls-7" d="M215.51,335.8c7.81,28.62,47.67,83.15,64.09,86.72,19,4.12,69.35-18.34,81-28.77,4.64-4.15-23.14-34.11-29.13-31.22C306.36,374.67,285.62,379,282,377.06c-5.5-3-29.14-28.64-44.63-46C217.94,309.29,212,323,215.51,335.8Z"/><path class="cls-7" d="M359.36,394.63c2.6-1.23,19.82-16.5,24.67-23.36a81.39,81.39,0,0,0,12.08-23.5c4.25-13.35,5.91-23,4.18-27-2-4.73-2.53-5.47-13.27,17C381,350.51,374.16,352.54,368.15,353a98.06,98.06,0,0,0-41.72,13S349.36,399.33,359.36,394.63Z"/><path class="cls-3" d="M408.52,314.76,372.14,352a4,4,0,0,1-4.16,1l-22-10c-1.22-.56-1.35-1.9-.28-3l36.37-37.22a4,4,0,0,1,4.17-1l22,10C409.46,312.32,409.59,313.66,408.52,314.76Z"/><path class="cls-6" d="M406.42,313.8,370.05,351a4,4,0,0,1-4.17,1l-22-10c-1.23-.56-1.36-1.9-.29-3L380,301.76a4,4,0,0,1,4.16-1l22,10C407.36,311.36,407.5,312.7,406.42,313.8Z"/><path class="cls-9" d="M403.21,315l-33.35,34.13a3.74,3.74,0,0,1-3.84,1l-19.68-9c-1.1-.5-1.17-1.76-.15-2.8l33.35-34.13c2.08-2.13,3.43-2.19,4.53-1.69l3.94,1.8c.23.1.2.41-.08.69l-.12.13c-.64.66-.23.85.28,1.08l9.11,4.15a1.12,1.12,0,0,0,1.57-.24l.12-.12a.93.93,0,0,1,.92-.32l3.94,1.79C404.85,312,405.11,313.09,403.21,315Z"/><path class="cls-9" d="M394.69,308.09,392.21,307c-.09,0-.1-.13,0-.2h0a.27.27,0,0,1,.28-.06l2.49,1.13a.12.12,0,0,1,0,.2h0A.27.27,0,0,1,394.69,308.09Z"/><polygon class="cls-4" points="380.09 333.56 363.37 325.95 377.67 311.31 394.39 318.92 380.09 333.56"/><polygon class="cls-10" points="370.78 332.79 361.02 328.35 361.86 327.49 371.62 331.93 370.78 332.79"/><polygon class="cls-10" points="371.19 335.02 359.64 329.76 360.06 329.33 371.61 334.59 371.19 335.02"/><polygon class="cls-10" points="370.42 335.81 358.87 330.55 359.29 330.12 370.84 335.38 370.42 335.81"/><polygon class="cls-10" points="369.65 336.6 358.1 331.34 358.52 330.91 370.07 336.17 369.65 336.6"/><polygon class="cls-10" points="384.11 307.8 382.02 306.85 382.37 306.5 384.45 307.45 384.11 307.8"/><polygon class="cls-10" points="383.47 308.45 381.39 307.5 381.74 307.15 383.82 308.1 383.47 308.45"/><polygon class="cls-10" points="382.84 309.1 380.76 308.15 381.1 307.8 383.19 308.75 382.84 309.1"/><path class="cls-4" d="M377.78,335.63a3.3,3.3,0,0,1-1,.19,1.13,1.13,0,0,1-.14-.69c0-.47.53-.92.94-.74s0,.58,0,.58.45-.36.77-.21S378.41,335.43,377.78,335.63Z"/><polygon class="cls-4" points="366.25 345.34 352.76 339.19 356.06 335.81 369.55 341.96 366.25 345.34"/><path class="cls-7" d="M371.14,352.62c-6.19.7,12.72-13.84,12.33-20.92s-7-4.19-12.06.32c-17.45,15.66-31.7,16.37-39.94,30.51S371.14,352.62,371.14,352.62Z"/><path class="cls-3" d="M271.68,368c1.72,1.4,3.38,2.89,5.05,4.35a33.51,33.51,0,0,0,4.83,3.9c2.09,1.22,4.45,1,6.75.71,2-.3,4.05-.74,6.05-1.23a181.07,181.07,0,0,0,24-7.92,123.69,123.69,0,0,0,12.93-5.52l-.48.52a29.68,29.68,0,0,1,3.8-5.41,34.81,34.81,0,0,1,5.65-5.2,60.41,60.41,0,0,1,6.88-4.41c1.24-.7,2.49-1.39,3.76-2,.64-.32,1.27-.65,1.9-1a7.71,7.71,0,0,0,2.23-1.21c-.15.2-.42-.09-.23-.21l.09-.06a.14.14,0,0,1,.2,0l.1.1a.12.12,0,0,1,0,.14c-.2.34-.64.48-1,.7l-1.77,1.17c-1.1.73-2.19,1.45-3.29,2.16-2.48,1.59-5,3.21-7.34,5a56.92,56.92,0,0,0-5.76,4.88c-.92.89-1.75,1.86-2.63,2.79a23.65,23.65,0,0,0-2.2,3c-.06.08-7.68,3.8-11.63,5.59s-8.05,3.36-12.19,4.77-8.29,2.68-12.51,3.75a50.08,50.08,0,0,1-6.52,1.28c-1.94.24-4.13.5-5.95-.4s-3.43-2.86-5-4.33c-2-1.88-4-3.74-5.91-5.69C271.46,368.11,271.59,368,271.68,368Z"/><path class="cls-4" d="M272.1,367l-29.94,25.15s-22.63-31.19-27.78-54.62,6.93-25.92,27-3.78C260.94,355.38,272.1,367,272.1,367Z"/><path class="cls-3" d="M251.06,344.2c3.51,3.44,6.87,7.09,10.18,10.71,1.62,1.77,3.22,3.53,4.79,5.34l2.5,2.85a24.23,24.23,0,0,0,2.84,3.06c.19.15-.09.42-.22.24a46,46,0,0,0-5.14-5.31c-1.79-1.8-3.53-3.62-5.26-5.48-3.37-3.65-6.74-7.39-9.82-11.29A.09.09,0,0,1,251.06,344.2Z"/><path class="cls-3" d="M220.64,359.21a26.83,26.83,0,0,0,2.92,3.29c.42.4.81.82,1.21,1.24-1.74-3.29-3.41-6.61-4.9-10a.06.06,0,0,1,.1-.05c3.88,6.46,7.42,13.14,11.29,19.6s7.49,13.42,11.71,19.82a.16.16,0,1,1-.27.17c-4.07-6.45-8.51-12.65-12.27-19.31q-2.25-4-4.46-8a11.39,11.39,0,0,1-1.35-1.34,19.66,19.66,0,0,1-1.46-1.69c-.89-1.2-1.81-2.36-2.77-3.51C220.26,359.25,220.51,359,220.64,359.21Z"/><path class="cls-4" d="M280.08,370.28l-8.34-7.69L237.5,391.41l6.61,9.68Z"/><path class="cls-3" d="M241.69,387.59c4.24-3.9,8.81-7.49,13.24-11.19s9.14-7.09,13.45-10.94a.16.16,0,0,1,.21.25c-4.37,3.78-8.45,7.88-12.92,11.57a167.38,167.38,0,0,1-13.76,10.57C241.73,388,241.52,387.74,241.69,387.59Z"/><path class="cls-3" d="M250,396c-2.15,1.48-4.21,3.08-6.23,4.72l.69.09c-2.13-3.28-4.36-6.49-6.76-9.58l-.05.37c.81-.78,1.61-1.56,2.39-2.38-.94.62-1.85,1.28-2.76,1.95l-.19.14.14.23c2,3.37,4.18,6.62,6.46,9.79l.31.44.38-.34C246.34,399.7,248.24,397.92,250,396Z"/><path class="cls-4" d="M1016.22,329.17h-130L860,398.74a30,30,0,0,1-27.82,18.72,31.16,31.16,0,0,1-10.17-1.6,30.36,30.36,0,0,1-17.66-38.53L922.58,62.15c4.81-11.77,16.59-19.26,28.36-18.72,12.31-.54,23.54,7,28.36,18.72l118.26,315.18a30.36,30.36,0,0,1-17.66,38.53,30,30,0,0,1-37.46-17.12Zm-21.94-58.86-43.34-115L907.6,270.31Z"/><path class="cls-5" d="M1016.22,329.17h-130L860,398.74a30,30,0,0,1-27.82,18.72,31.16,31.16,0,0,1-10.17-1.6,30.36,30.36,0,0,1-17.66-38.53L922.58,62.15c4.81-11.77,16.59-19.26,28.36-18.72,12.31-.54,23.54,7,28.36,18.72l118.26,315.18a30.36,30.36,0,0,1-17.66,38.53,30,30,0,0,1-37.46-17.12Zm-21.94-58.86-43.34-115L907.6,270.31Z"/><path class="cls-4" d="M993.88,329.17h-130l-26.22,69.57a30,30,0,0,1-27.83,18.72,31.2,31.2,0,0,1-10.17-1.6A30.36,30.36,0,0,1,782,377.33L900.23,62.15c4.82-11.77,16.59-19.26,28.37-18.72,12.3-.54,23.54,7,28.36,18.72l118.25,315.18a30.36,30.36,0,0,1-17.65,38.53,30,30,0,0,1-37.46-17.12Zm-21.94-58.86-43.34-115L885.25,270.31Z"/><polygon class="cls-4" points="576.67 204.09 810.97 204.09 810.97 81.14 576.67 81.14 576.67 81.14 576.67 204.09 576.67 204.09"/><polygon class="cls-4" points="847.24 204.09 810.97 204.09 810.97 166.33 847.24 204.09"/><rect class="cls-3" x="599.1" y="102.4" width="189.44" height="2.34"/><rect class="cls-3" x="599.1" y="115.01" width="117.48" height="2.34"/><rect class="cls-3" x="599.1" y="140.25" width="160.93" height="2.34"/><rect class="cls-3" x="599.1" y="152.86" width="189.44" height="2.34"/><rect class="cls-3" x="599.1" y="165.48" width="189.44" height="2.34"/><rect class="cls-3" x="599.1" y="178.1" width="93.41" height="2.34"/><rect class="cls-3" x="361.7" y="194.37" width="234.3" height="71.44"/><polygon class="cls-3" points="325.44 265.82 361.7 265.82 361.7 228.06 325.44 265.82"/><rect class="cls-9" x="384.58" y="214" width="170.16" height="2.34"/><rect class="cls-9" x="384.58" y="226.62" width="143.5" height="2.34"/><rect class="cls-9" x="384.58" y="239.23" width="154.18" height="2.34"/><path class="cls-4" d="M1781.63,892.44c-29.43,22.48-59.93,33.71-88.29,33.71h-1.61c-37.46,0-69-15-97.92-32.1a66.88,66.88,0,0,0-32.64-8c-17.66,0-35.86,7.49-38,9.1-10.7,5.88-23,4.81-31-1.61-.54-.53-1.61-.53-3.21-1.07-.54-.53-.54-.53-1.08-.53-2.67-3.75-5.88-7-7.49-12.31-8-16.05-.53-33.71,14.45-41.21l1.61-1.07a234.29,234.29,0,0,1-59.4-40.66A209.44,209.44,0,0,1,1383.51,657a205.27,205.27,0,0,1,53.51-138c34.25-36.93,81.34-59.4,133.78-59.4a176.38,176.38,0,0,1,132.7,59.4c34.25,35.85,54.58,84.54,54.58,138,0,54-20.33,103.28-54.58,139.67a206.47,206.47,0,0,1-59.39,42.27l-12.31,4.82c22.47,12.3,42.81,19.26,59.93,19.26,15.52,0,30.5-3.75,52.44-20.33,13.38-10.71,32.64-8,43.35,5.35S1796.08,880.67,1781.63,892.44ZM1483.57,753.31a116.46,116.46,0,0,0,87.23,38.53c34.24,0,64.75-14.45,88.29-38.53C1682.1,728.7,1696,695,1696,657s-13.91-71.7-36.92-95.25c-23.54-24.61-54-39.06-88.29-39.06a115.07,115.07,0,0,0-87.23,39.06c-23,23.55-36.92,57.26-36.92,95.25S1460.56,728.7,1483.57,753.31Z"/><path class="cls-5" d="M1781.63,892.44c-29.43,22.48-59.93,33.71-88.29,33.71h-1.61c-37.46,0-69-15-97.92-32.1a66.88,66.88,0,0,0-32.64-8c-17.66,0-35.86,7.49-38,9.1-10.7,5.88-23,4.81-31-1.61-.54-.53-1.61-.53-3.21-1.07-.54-.53-.54-.53-1.08-.53-2.67-3.75-5.88-7-7.49-12.31-8-16.05-.53-33.71,14.45-41.21l1.61-1.07a234.29,234.29,0,0,1-59.4-40.66A209.44,209.44,0,0,1,1383.51,657a205.27,205.27,0,0,1,53.51-138c34.25-36.93,81.34-59.4,133.78-59.4a176.38,176.38,0,0,1,132.7,59.4c34.25,35.85,54.58,84.54,54.58,138,0,54-20.33,103.28-54.58,139.67a206.47,206.47,0,0,1-59.39,42.27l-12.31,4.82c22.47,12.3,42.81,19.26,59.93,19.26,15.52,0,30.5-3.75,52.44-20.33,13.38-10.71,32.64-8,43.35,5.35S1796.08,880.67,1781.63,892.44ZM1483.57,753.31a116.46,116.46,0,0,0,87.23,38.53c34.24,0,64.75-14.45,88.29-38.53C1682.1,728.7,1696,695,1696,657s-13.91-71.7-36.92-95.25c-23.54-24.61-54-39.06-88.29-39.06a115.07,115.07,0,0,0-87.23,39.06c-23,23.55-36.92,57.26-36.92,95.25S1460.56,728.7,1483.57,753.31Z"/><path class="cls-4" d="M1759.29,892.44c-29.44,22.48-59.94,33.71-88.3,33.71h-1.6c-37.46,0-69-15-97.93-32.1a66.86,66.86,0,0,0-32.64-8c-17.66,0-35.85,7.49-38,9.1-10.7,5.88-23,4.81-31-1.61-.53-.53-1.6-.53-3.21-1.07-.53-.53-.53-.53-1.07-.53-2.67-3.75-5.89-7-7.49-12.31-8-16.05-.54-33.71,14.45-41.21l1.6-1.07a234.24,234.24,0,0,1-59.39-40.66A209.44,209.44,0,0,1,1361.17,657a205.27,205.27,0,0,1,53.51-138c34.24-36.93,81.33-59.4,133.77-59.4a176.4,176.4,0,0,1,132.71,59.4c34.25,35.85,54.58,84.54,54.58,138,0,54-20.33,103.28-54.58,139.67a206.52,206.52,0,0,1-59.4,42.27l-12.3,4.82c22.47,12.3,42.8,19.26,59.93,19.26,15.52,0,30.5-3.75,52.44-20.33,13.38-10.71,32.64-8,43.34,5.35S1773.73,880.67,1759.29,892.44ZM1461.23,753.31a116.44,116.44,0,0,0,87.22,38.53c34.25,0,64.75-14.45,88.3-38.53,23-24.61,36.92-58.32,36.92-96.32s-13.91-71.7-36.92-95.25c-23.55-24.61-54-39.06-88.3-39.06a115,115,0,0,0-87.22,39.06c-23,23.55-36.92,57.26-36.92,95.25S1438.22,728.7,1461.23,753.31Z"/><path class="cls-11" d="M1419.83,936.24c3.72-1.54,86.28-73.47,87.69-78.2.55-1.79-9.23-14.43-21.47-29.36-2.64-3.22-5.39-6.54-8.2-9.89-18.23-21.76-38.08-44.43-38.08-44.43l-55.36,47.95,39.6,43.12,8.68,9.47s-19.29,41.68-20.28,47S1416.11,937.79,1419.83,936.24Z"/><path class="cls-4" d="M1419.83,936.24c3.72-1.54,86.28-73.47,87.69-78.2.66-2.19-13.91-20.38-29.67-39.25L1424,865.43l8.68,9.47s-19.29,41.68-20.28,47S1416.11,937.79,1419.83,936.24Z"/><path class="cls-6" d="M1419.83,936.24c3.72-1.54,86.28-73.47,87.69-78.2.55-1.79-9.23-14.43-21.47-29.36l-53.36,46.22s-19.29,41.68-20.28,47S1416.11,937.79,1419.83,936.24Z"/><path class="cls-3" d="M1418.14,931.91c13.54-12.4,69.33-61.12,83.66-72.34.11-.1.18,0,.07.08-13.15,12.58-69.33,60.85-83.54,72.49C1418,932.38,1417.85,932.17,1418.14,931.91Z"/><path class="cls-3" d="M1415.13,914.34a14.75,14.75,0,0,1,11.22-3.84c3.36.38,7.13,1.74,9.53,4.7.07.08-.08.22-.16.14-5.51-4.72-14.58-5.19-20.44-.83A.11.11,0,0,1,1415.13,914.34Z"/><path class="cls-3" d="M1428.52,881c5.48-4.9,13.6-8.54,21-7,.29.06.2.47,0,.53a101.36,101.36,0,0,0-20.45,7.25A.47.47,0,0,1,1428.52,881Z"/><path class="cls-3" d="M1425.7,886.35c5.47-4.91,13.6-8.55,21-7,.28.06.19.47,0,.53a101.28,101.28,0,0,0-20.44,7.25A.46.46,0,0,1,1425.7,886.35Z"/><path class="cls-3" d="M1422.88,891.74c5.47-4.9,13.59-8.54,21-7,.29.06.2.46,0,.52a101.58,101.58,0,0,0-20.45,7.25A.46.46,0,0,1,1422.88,891.74Z"/><path class="cls-3" d="M1420.05,897.13c5.48-4.9,13.6-8.54,21-7,.28.06.2.46,0,.52a101.39,101.39,0,0,0-20.45,7.26A.47.47,0,0,1,1420.05,897.13Z"/><path class="cls-9" d="M1486.82,849.49c6.23-5.39,14.63,4.28,8.39,9.69S1480.58,854.9,1486.82,849.49Z"/><path class="cls-3" d="M1417.18,879.12c6.34,1.25,13-.29,19.33-1a.9.9,0,0,0,.61-1.32.19.19,0,0,0,0-.31,38.6,38.6,0,0,0-17.38-9.78c-3.83-.9-9.34-.1-10.12,4.67C1408.92,875.9,1413.47,878.39,1417.18,879.12Zm-4.26-4.36c-4.7-6.51,4.77-6.62,7.57-5.84a43,43,0,0,1,5.28,2,113.59,113.59,0,0,1,10.27,5.49c-3.13.15-6.21.58-9.33.85C1423,877.56,1415.51,878.34,1412.92,874.76Z"/><path class="cls-3" d="M1453.75,855.83c-3.59-3.24-8.4-.42-10.82,2.68a38.57,38.57,0,0,0-7.47,18.48.19.19,0,0,0,.22.22.9.9,0,0,0,1.3.65c5.38-3.39,11.55-6.35,15.73-11.29C1455.14,863.68,1457.14,858.89,1453.75,855.83Zm-9.67,15.22c-2.6,1.73-5.28,3.33-7.82,5.16a116,116,0,0,1,4.6-10.7,40.69,40.69,0,0,1,2.89-4.84c1.7-2.36,9.16-8.19,9.55-.17C1453.52,864.92,1447.19,869,1444.08,871.05Z"/><path class="cls-3" d="M1322.82,737.24c5.19,29.6,82.2,112.42,91.1,121.91l2,2.16,58.7-49.21-.74-.87-56.41-67.7,159.35-7.71-62.52-44.48s-4.78,3-15,2c-35.4-3.65-115.19-11.68-133.86-10.14C1341.33,685.2,1318.06,710.08,1322.82,737.24Z"/><path class="cls-6" d="M1397.2,718.34a70.28,70.28,0,0,1,5.81,6.83c2,2.39,4,4.77,6,7.16l.06.08c-.36-.72-.72-1.43-1.1-2.14-1.29-2.41-2.36-4.92-3.86-7.22a.13.13,0,1,1,.21-.14c1.55,2.28,3.32,4.43,4.66,6.84.64,1.14,1.24,2.29,1.8,3.46.31.64.63,1.28.91,1.93a9.77,9.77,0,0,1,.39.94c.89,1.11,1.78,2.24,2.64,3.38,1.91,2.53,3.61,5.21,5.54,7.72.11.14-.11.27-.21.15-2-2.36-4.11-4.53-6.09-6.87s-3.93-4.82-5.82-7.29-3.67-4.84-5.51-7.25a73.12,73.12,0,0,1-5.58-7.46A.09.09,0,0,1,1397.2,718.34Z"/><path class="cls-6" d="M1407.22,847.6c3.34-3.09,6.92-6,10.44-8.83s7.09-5.77,10.65-8.62c7.13-5.71,14.23-11.47,21.44-17.08,4-3.08,8-6.12,12.07-9,.19-.13.39.16.23.31-6.75,6.14-14,11.76-21.08,17.46s-14.3,11.39-21.52,17c-4,3.07-7.89,6.22-12,9C1407.26,848,1407.08,847.73,1407.22,847.6Z"/><path class="cls-11" d="M1532.09,602.91c-8.73,16.82-39.91,64-64.61,73.07-13.61,5-83.33,17.65-93.72,10.4-12.16-8.48-8.85-46.58-.24-48,26.26-4.47,75.84.14,87.69-4.14,5.37-1.94,32.17-24.61,61.46-43.78C1533.74,583.17,1537.72,592.06,1532.09,602.91Z"/><path class="cls-4" d="M1398.64,634.61s.36,57.56,3.07,56.73,61.94-8.51,76.81-17,38.35-42.74,51.92-65.28.63-27.37-13.72-16-54.59,38.35-57.19,38.6S1398.64,634.61,1398.64,634.61Z"/><path class="cls-3" d="M1409.72,685c.3-7.78.49-15.54.33-23.32q-.1-5.82-.4-11.64c-.2-3.87-.79-7.73-.93-11.6,0-.21-.35-.19-.33,0,.34,3.85.16,7.79.29,11.65s.25,7.76.33,11.64c.18,7.75.37,15.51.38,23.26C1409.39,685.23,1409.71,685.2,1409.72,685Z"/><path class="cls-4" d="M1482.69,671.46c14.83-11.67,35.4-41.89,47.74-62.41,9.68-16.09,5.88-23.15-2.31-21.75Z"/><rect class="cls-12" x="1401.17" y="688.25" width="102.6" height="4.6"/><polygon class="cls-10" points="1481.82 688.25 1485.33 692.85 1401.17 692.85 1401.17 688.25 1481.82 688.25"/><polygon class="cls-10" points="1477.43 692.84 1377.44 692.84 1369.12 624.93 1469.1 624.93 1477.43 692.84"/><path class="cls-3" d="M1429.36,658.89a6,6,0,0,1-6,6.09,6.21,6.21,0,0,1-6.19-6.09,6,6,0,0,1,6-6.09A6.22,6.22,0,0,1,1429.36,658.89Z"/><path class="cls-11" d="M1369.93,631.5c-3.77,5.82-13.07,12.62-14.35,17.61a5.9,5.9,0,0,0,2.43,6.62s-5.39,1.85-5.81,6.57c-.21,2.43,3.48,4.91,3.48,4.91s-4.25,1.67-4.36,5.89c-.09,3.36,3.62,5.34,3.62,5.34s-3.33,3.51-2.32,7c2.05,7,30.67,10.79,36.49.83,2.71-4.64-4.34-5.19-4.34-5.19s10.32-1.66,11.25-7.54-8.26-6-8.26-6,10-1.7,10.33-7.9c.36-6.45-8.86-5-8.86-5s6.94-3.47,6.12-8.27c-1.35-7.94-17.67.5-23.77-1.83Z"/><path class="cls-3" d="M1355.49,678.84a.07.07,0,1,0,0,.14c9.11,3.54,20.2,4.63,29.72,2.14.31-.08.31-.62-.05-.6C1374.81,681.22,1365.62,681,1355.49,678.84Z"/><path class="cls-3" d="M1355.54,667.25c-.11,0-.15.16,0,.2,9.41,3.59,21.94,4.48,32.56.32.37-.14.55-.64.12-.5C1380.9,669.5,1364.65,669.25,1355.54,667.25Z"/><path class="cls-3" d="M1389.91,654c-10.34,3.6-20.79,3.52-31.52,1.9-.14,0-.16.18,0,.23,5,2.22,12,2.54,17.4,2.33a28.79,28.79,0,0,0,14.29-4.1C1390.21,654.25,1390.13,653.92,1389.91,654Z"/><path class="cls-4" d="M1494.05,713.1s114.62,17.39,115.19,16.68-16.3-123.54-55.63-143.21c-6.23-3.12-21.09-4.61-27.22,2C1508.93,607.53,1492.51,711.47,1494.05,713.1Z"/><path class="cls-6" d="M1494.93,702.84l112.84,15.86c-.53-3.38-1.21-7.41-2-11.94l-109.06-15.32C1496,695.76,1495.38,699.62,1494.93,702.84Z"/><path class="cls-6" d="M1497.68,685.38l106.84,15q-.58-3-1.26-6.21L1498.73,679.5C1498.35,681.51,1498,683.48,1497.68,685.38Z"/><path class="cls-11" d="M1530.86,610.58c6.36.27,15-11,17.7-19.35.18-.57-1.65-5.86-3.58-12.4-1.15-4-2.34-8.42-3.14-12.56l-24.74,11.28s4.21,8.19,5.55,15.41a10.65,10.65,0,0,1,.15,1.73c0,.08,0,.18,0,.29C1522.91,598.31,1524.71,610.31,1530.86,610.58Z"/><path class="cls-3" d="M1517.09,577.55s4.22,8.18,5.56,15.42a8.65,8.65,0,0,1,.14,1.73,1.42,1.42,0,0,0,0,.28,14.52,14.52,0,0,0,2.7-.37c15-3.24,15.71-22.75,15.61-28Z"/><path class="cls-11" d="M1539.31,532.72c4.59,8.66,4.89,36.18-.51,43.37-7.82,10.43-23.19,14.26-32.7,4.27-9.21-9.68-9-45.55-2.7-52.35C1512.63,518,1532.53,519.94,1539.31,532.72Z"/><path class="cls-3" d="M1516,554.45c0-.07.14.09.14.16-.08,1.84.14,4,1.8,4.59,0,0,0,.11,0,.1C1515.85,559,1515.59,556.18,1516,554.45Z"/><path class="cls-3" d="M1517.62,552.54c3-.19,3.13,5.75.39,5.93S1515.14,552.71,1517.62,552.54Z"/><path class="cls-3" d="M1505.15,554.74c0-.07-.14.09-.14.17.11,1.84-.07,4-1.72,4.62,0,0,0,.11,0,.1C1505.33,559.29,1505.55,556.47,1505.15,554.74Z"/><path class="cls-3" d="M1503.45,552.87c-3-.14-3,5.8-.28,5.93S1505.94,553,1503.45,552.87Z"/><path class="cls-3" d="M1519.88,549.76a24,24,0,0,1-2.32-.74,3.93,3.93,0,0,1-2.22-1.21,1.25,1.25,0,0,1,.15-1.53,3.13,3.13,0,0,1,3.13-.41,4.61,4.61,0,0,1,2.7,1.9A1.34,1.34,0,0,1,1519.88,549.76Z"/><path class="cls-3" d="M1501.07,549.94a20.9,20.9,0,0,0,2.34-.68,3.91,3.91,0,0,0,2.26-1.15,1.27,1.27,0,0,0-.12-1.53,3.14,3.14,0,0,0-3.12-.49,4.52,4.52,0,0,0-2.74,1.83A1.34,1.34,0,0,0,1501.07,549.94Z"/><path class="cls-3" d="M1518.37,570.65c-.33.52-.63,1.19-1.27,1.4a4.79,4.79,0,0,1-2,0c-.06,0-.11.07-.06.11a2.47,2.47,0,0,0,2.5.46,2,2,0,0,0,1-1.91C1518.57,570.58,1518.42,570.57,1518.37,570.65Z"/><path class="cls-3" d="M1515.9,565.43a6.25,6.25,0,0,1-4.1,2.9,7.7,7.7,0,0,1-2.25.17,8,8,0,0,1-.84-.09.45.45,0,0,1-.38-.4h0c0-.07,0-3.94,0-3.94-.51.28-3.12,1.54-3.1.8.19-6.14.4-13,1.89-19a.17.17,0,0,1,.33,0c.06,5.9-.93,11.78-1,17.71a10.86,10.86,0,0,1,2.93-1c.11,0-.14,4.83-.12,4.87,2.39.23,4.16-.54,6.42-2.2C1515.86,565.16,1516,565.28,1515.9,565.43Z"/><path class="cls-3" d="M1510.12,568.18a7.86,7.86,0,0,0,3.31,2.17,3.48,3.48,0,0,0,2.14,0c1.51-.53,1.43-1.94,1.06-3.13a8.49,8.49,0,0,0-.84-1.79A10.08,10.08,0,0,1,1510.12,568.18Z"/><path class="cls-8" d="M1513.43,570.35a3.48,3.48,0,0,0,2.14,0c1.51-.53,1.43-1.94,1.06-3.13C1515,567.49,1513.44,568.74,1513.43,570.35Z"/><path class="cls-3" d="M1499.75,538.11c.93-2.45,2-4.94,3.45-5.48s2.54,3,5.85,3c4.47.09,6.44-4.1,12.65-4.82,8.91-1,13.2,6.26,14,18.95.71,11.33,7.61,12.08,7.61,12.08s3-25.2-4.43-33.15-23.76-10.87-34.26-2.47C1500.8,529.3,1499.75,538.11,1499.75,538.11Z"/><path class="cls-11" d="M1537.08,557.29s4.54-9.66,8.83-8.19,1.91,14.76-2.39,17.27a4.74,4.74,0,0,1-6.69-1.43Z"/><path class="cls-3" d="M1545.13,552.89a.07.07,0,0,1,0,.12c-3,1.86-4.18,5.14-4.83,8.45.75-1.36,2-2.24,3.74-1.38a.1.1,0,0,1-.06.19,2.92,2.92,0,0,0-3,1.55,14.12,14.12,0,0,0-1.07,2.82c-.1.32-.65.25-.59-.1,0,0,0,0,0-.08C1538.6,560.37,1540.79,554.07,1545.13,552.89Z"/><path class="cls-10" d="M1511.8,521.68a40,40,0,0,1,10.8-4.46c4.25-1,18-1.33,21.5,1.06s5.72,15.11,6,17,.61,13.28-3.22,16.44-6.19-16.06-13.32-21.77S1511.8,521.68,1511.8,521.68Z"/><path class="cls-5" d="M1511.8,521.69s14.62,2.52,21.75,8.24,9.51,24.92,13.34,21.77c1.68-1.39,2.38-3.27,2.81-6.36-1.44-5.53-4.61-14-9.92-19.59-5-5.21-12.82-7.3-21-7.38A45,45,0,0,0,1511.8,521.69Z"/><path class="cls-10" d="M1546.94,563.24c-.9-5.09-7.52-18.29-13.8-25.6s-22.84-10.25-25.08-9.89c-5.42.87-6.35,3.61-7.27,3.21s3.91-7.16,5.35-8.24a17.87,17.87,0,0,1,7.36-2.67c2.38-.19,17.16-.24,23.12,5.46s15.28,22.41,14.37,27c-.23,1.11-1.58,2-1.88,3.52-.4,2.06-.58,4.42-1,5.88C1547.7,563.11,1547,563.68,1546.94,563.24Z"/><path class="cls-3" d="M1531.52,534.24a26.34,26.34,0,0,0,3.28-3,19.45,19.45,0,0,0,2.7-3.55c0-.09.2,0,.15.07a14.29,14.29,0,0,1-2.38,3.92,12.25,12.25,0,0,1-3.61,2.78C1531.51,534.56,1531.39,534.34,1531.52,534.24Z"/><path class="cls-3" d="M1546.46,558.11c.11-.38.31-.74.45-1.11a6.13,6.13,0,0,0,.35-1.32,12.2,12.2,0,0,1,.33-2.55,9.43,9.43,0,0,1,1-1.83,3.41,3.41,0,0,0,.79-2.19.09.09,0,0,1,.17,0c.17,1.56-.76,2.77-1.31,4.15a16.69,16.69,0,0,0-.43,2.73,4.06,4.06,0,0,1-1.13,2.29C1546.61,558.33,1546.42,558.25,1546.46,558.11Z"/><path class="cls-3" d="M1544.12,552.75a21.4,21.4,0,0,0,1.26-1.89,16.77,16.77,0,0,0,.91-2c.26-.69.46-1.39.7-2.08s.67-1.6.92-2.42c0-.11.19,0,.16.06-.26.86-.37,1.76-.6,2.63a15.33,15.33,0,0,1-.76,2.19,11.14,11.14,0,0,1-1,2,5.73,5.73,0,0,1-1.5,1.64A.05.05,0,0,1,1544.12,552.75Z"/><path class="cls-3" d="M1541.74,547.93a14.44,14.44,0,0,0,2.47-3.44c.63-1.23,1.18-2.51,1.72-3.78,0-.09.19-.05.16,0a17.17,17.17,0,0,1-1.36,4.08,9.82,9.82,0,0,1-1.14,1.76,10,10,0,0,1-1.72,1.46C1541.79,548.11,1541.67,548,1541.74,547.93Z"/><path class="cls-3" d="M1539.22,543.33a5,5,0,0,0,1.22-1.51c.38-.62.75-1.25,1.1-1.89s.69-1.22,1-1.84a5,5,0,0,0,.72-2c0-.09.17-.09.17,0a5.2,5.2,0,0,1-.38,2.06,12.74,12.74,0,0,1-1,2.13,15.88,15.88,0,0,1-1.25,1.93,3.39,3.39,0,0,1-1.53,1.3A.12.12,0,0,1,1539.22,543.33Z"/><path class="cls-3" d="M1537.13,537.4c.43-.52.85-1,1.23-1.58s.75-1.11,1.09-1.68.75-1.19,1.08-1.81a.09.09,0,0,1,.16.07,13.7,13.7,0,0,1-.76,2,14,14,0,0,1-1.07,1.78,16.47,16.47,0,0,1-1.26,1.63,5.44,5.44,0,0,1-1.54,1.33c-.09,0-.21-.06-.16-.16A9.55,9.55,0,0,1,1537.13,537.4Z"/><path class="cls-3" d="M1527.28,531.73c.44-.68.87-1.35,1.38-2a24.91,24.91,0,0,1,5.35-4.94c.08,0,.2.05.12.12-2.21,2.33-4.52,4.56-6.71,6.91A.09.09,0,0,1,1527.28,531.73Z"/><path class="cls-3" d="M1523.73,527.66a11,11,0,0,1,1.57-1.83,23.33,23.33,0,0,1,4.14-2.9c.1,0,.2.06.11.14-1.24,1-2.5,2-3.68,3.11a20.61,20.61,0,0,0-1.68,1.69c-.52.6-.89,1.3-1.39,1.92a.07.07,0,0,1-.11,0A6.07,6.07,0,0,1,1523.73,527.66Z"/><path class="cls-3" d="M1519.25,526.08a11.92,11.92,0,0,1,1.44-1.81,12.94,12.94,0,0,1,3.52-2.58c.09-.05.16.09.09.14a25.25,25.25,0,0,0-3.27,2.93c-.51.53-1,1.09-1.46,1.65s-.87,1.22-1.4,1.72c-.05,0-.1,0-.09-.06A12.81,12.81,0,0,1,1519.25,526.08Z"/><path class="cls-3" d="M1515.9,523.84c.5-.49,1-1,1.54-1.42a6.15,6.15,0,0,1,1.68-1.18c.09,0,.15.08.08.14-1,1-1.91,1.91-2.85,2.87a17.5,17.5,0,0,0-2.11,3.08s-.11,0-.1,0A6.64,6.64,0,0,1,1515.9,523.84Z"/><path class="cls-3" d="M1512,523.41a10.6,10.6,0,0,1,3.2-2.48c.09,0,.17.09.09.15a12.72,12.72,0,0,0-2.87,2.66,17.91,17.91,0,0,0-2.15,3.29c0,.06-.13,0-.11,0A8.84,8.84,0,0,1,1512,523.41Z"/><path class="cls-3" d="M1507.16,526.23a8.67,8.67,0,0,1,.36-.83,9,9,0,0,1,1-1.51,18.4,18.4,0,0,1,2.68-2.54c.09-.07.19.07.11.14a14.83,14.83,0,0,0-2.49,2.58,12.09,12.09,0,0,0-1,1.48c-.14.25-.26.51-.38.77a4.89,4.89,0,0,1-.35.77.08.08,0,0,1-.15,0A2.32,2.32,0,0,1,1507.16,526.23Z"/><path class="cls-3" d="M1504.11,526.82a12.8,12.8,0,0,1,.82-1.25,11.46,11.46,0,0,1,1-1.13c.35-.37.72-.72,1.06-1.1.08-.1.21,0,.12.12a8.52,8.52,0,0,0-1,1.18c-.28.4-.56.78-.85,1.18l-.84,1.17c-.29.4-.53.85-.85,1.21a.07.07,0,0,1-.12-.07A6,6,0,0,1,1504.11,526.82Z"/><path class="cls-3" d="M1521.87,599.19c0-.06.09-.06.09,0,0,5.19.36,17.21,8.43,16,3.25-.5,6.1-2.73,8.46-4.89a45.08,45.08,0,0,0,6.44-7.42,65.82,65.82,0,0,0,5.85-9.37c.06-.14.28,0,.2.13-1.72,3.28-3.12,6.67-5.16,9.79a39.46,39.46,0,0,1-6.93,8.2c-2.54,2.22-5.58,4.46-9,4.83a6.57,6.57,0,0,1-7-4.51A29.1,29.1,0,0,1,1521.87,599.19Z"/><path class="cls-11" d="M1568.26,613.07c7.77,44.1.26,77.13-7.24,81.23-20.16,11-68.59-11.33-82.25-15.77-5.53-1.79,19.64-44,25.28-41.42,13.28,6.14,31.89,16.55,32.64,16.48,1.49-.16,3.24-11.41,11-44.22C1553.87,582.83,1565.08,595,1568.26,613.07Z"/><path class="cls-11" d="M1434.74,616.21c-1.39,5.54,12.56,7.79,12.56,7.79a10.58,10.58,0,0,0-5.52,4.56c-2,3.84,3.09,8.71,3.09,8.71a12.93,12.93,0,0,0-5.06,5.74c-1.58,3.86,2.9,9.51,2.9,9.51a11.38,11.38,0,0,0-1.28,7.85c1.71,7.11,12.61,9.92,19,13,6.87,3.29,18.22,4.49,23.38,6.81l22.32-40.89s-21.57-22.84-33.88-26.38C1465.44,610.93,1436.85,607.75,1434.74,616.21Z"/><path class="cls-3" d="M1447.46,623.87c7.76-.33,15.59,1.19,23.13,2.74.16,0,.11.29-.06.26-7.48-1.63-15.57-1.3-23.1-2.63C1447.22,624.21,1447.25,623.88,1447.46,623.87Z"/><path class="cls-3" d="M1445.21,636.75a20.65,20.65,0,0,1,5.21,1q2.71.71,5.42,1.5c3.61,1.06,7.19,2.2,10.74,3.45.16.05.11.31-.06.26-3.59-1-7.2-2-10.84-2.94-1.82-.45-3.65-.89-5.47-1.31a24.2,24.2,0,0,1-5.11-1.42A.27.27,0,0,1,1445.21,636.75Z"/><path class="cls-3" d="M1442.86,652.56c1.53-.08,3.2.67,4.64,1.12q2.45.78,4.91,1.53c3.27,1,6.55,2,9.86,2.87a.13.13,0,0,1-.06.26c-3.36-.88-6.74-1.71-10.1-2.62-1.65-.45-3.3-.9-4.94-1.37a13.18,13.18,0,0,1-4.37-1.63A.09.09,0,0,1,1442.86,652.56Z"/><path class="cls-13" d="M1536.69,653.59c-4.1-2-12.29-6.11-16.37-8.16-4.68-2.3-11.62-6-16.35-8-5.45-5.18-10.84-10.56-16.63-15.42a46.85,46.85,0,0,0-6-4.5,48.5,48.5,0,0,1,6.2,4.24,190.13,190.13,0,0,1,16.58,15c4.93,1.94,11.69,5.74,16.47,8.12,4,2.11,12.11,6.49,16.09,8.71Z"/><path class="cls-4" d="M1507.83,636.15l-24.3,49.67s65.71,26.83,78.3,12.27,12.14-63.29,6.25-90-18.88-13.74-21.78,1-8.3,42.85-9.61,42.52S1507.83,636.15,1507.83,636.15Z"/><path class="cls-3" d="M1514.8,645.19c-3.56,6.39-7,12.81-10.21,19.4-1.58,3.29-3.12,6.59-4.61,9.93s-2.63,6.82-4.16,10.12c-.08.18.22.3.29.12,1.35-3.38,3.18-6.6,4.72-9.9s3.09-6.61,4.67-9.9c3.15-6.57,6.29-13.16,9.59-19.65C1515.18,645.13,1514.89,645,1514.8,645.19Z"/><path class="cls-13" d="M1506.83,638.18l.91-2.08,0-.09.1,0c13.9,7,28.24,14.8,41.56,22.83-13.94-6.87-28.27-14.73-41.66-22.65l.14,0-1.09,2Z"/><path class="cls-13" d="M1544,620.64c-.6,5.3-1.53,10.55-2.63,15.76a113.86,113.86,0,0,1-3,11.61,13.75,13.75,0,0,1-1.67,3.63c1.12-2.39,1.46-5.09,2.08-7.65l1.66-7.8c1.13-5.2,2.24-10.4,3.6-15.55Z"/><path class="cls-13" d="M1541.1,622.78a42.9,42.9,0,0,0,.76,9,14,14,0,0,1-.76-9Z"/><path class="cls-13" d="M1571.24,629.88c1.45,16,3,63.39-13.57,71,15.27-7.83,13.78-55.11,13.57-71Z"/><path class="cls-13" d="M1572.63,633.82a11.67,11.67,0,0,1-1,6.38c.3-2.17.52-4.25,1-6.38Z"/><path class="cls-11" d="M1194.19,849.14c1.56,3.72,73.76,86,78.49,87.44,1.8.54,14.4-9.27,29.29-21.57,3.22-2.65,6.52-5.41,9.86-8.23,21.71-18.3,44.32-38.22,44.32-38.22L1308,813.35l-43,39.74-9.44,8.71s-41.74-19.15-47.1-20.13S1192.63,845.42,1194.19,849.14Z"/><path class="cls-4" d="M1194.19,849.14c1.56,3.72,73.76,86,78.49,87.44,2.19.65,20.34-14,39.15-29.8L1265,853.09l-9.44,8.71s-41.74-19.15-47.1-20.13S1192.63,845.42,1194.19,849.14Z"/><path class="cls-6" d="M1194.19,849.14c1.56,3.72,73.76,86,78.49,87.44,1.8.54,14.4-9.27,29.29-21.57l-46.39-53.21s-41.74-19.15-47.1-20.13S1192.63,845.42,1194.19,849.14Z"/><path class="cls-3" d="M1198.52,847.43c12.44,13.5,61.35,69.14,72.62,83.43.09.12,0,.18-.09.08-12.62-13.12-61.07-69.15-72.75-83.31C1198.05,847.33,1198.26,847.15,1198.52,847.43Z"/><path class="cls-3" d="M1216.09,844.37a14.78,14.78,0,0,1,3.87,11.21c-.37,3.36-1.72,7.13-4.67,9.55-.08.06-.22-.09-.14-.17,4.71-5.53,5.14-14.6.76-20.44A.12.12,0,0,1,1216.09,844.37Z"/><path class="cls-3" d="M1249.51,857.66c4.92,5.45,8.59,13.56,7.08,21-.06.28-.46.2-.52,0a101.72,101.72,0,0,0-7.32-20.42A.46.46,0,0,1,1249.51,857.66Z"/><path class="cls-3" d="M1244.11,854.85c4.92,5.46,8.59,13.57,7.08,21-.06.29-.46.2-.52,0a101.72,101.72,0,0,0-7.32-20.42A.46.46,0,0,1,1244.11,854.85Z"/><path class="cls-3" d="M1238.71,852c4.92,5.46,8.59,13.57,7.08,21-.06.28-.47.2-.52,0a102,102,0,0,0-7.32-20.43A.46.46,0,0,1,1238.71,852Z"/><path class="cls-3" d="M1233.31,849.24c4.92,5.45,8.59,13.57,7.08,21-.06.29-.47.2-.53,0a101.69,101.69,0,0,0-7.31-20.42A.46.46,0,0,1,1233.31,849.24Z"/><path class="cls-9" d="M1281.16,915.85c5.42,6.21-4.23,14.64-9.65,8.42S1275.73,909.63,1281.16,915.85Z"/><path class="cls-3" d="M1251.31,846.3c-1.23,6.36.33,13,1.06,19.34a.89.89,0,0,0,1.31.6.19.19,0,0,0,.31,0,38.51,38.51,0,0,0,9.72-17.4c.9-3.84.08-9.35-4.69-10.11C1254.51,838,1252,842.59,1251.31,846.3Zm4.35-4.27c6.49-4.72,6.63,4.75,5.86,7.55a41.44,41.44,0,0,1-2,5.29,116.14,116.14,0,0,1-5.45,10.29c-.17-3.13-.61-6.21-.89-9.33C1252.88,852.12,1252.08,844.64,1255.66,842Z"/><path class="cls-3" d="M1274.72,882.8c3.22-3.6.39-8.4-2.72-10.81a38.45,38.45,0,0,0-18.51-7.41.19.19,0,0,0-.21.22.9.9,0,0,0-.65,1.3c3.41,5.37,6.39,11.53,11.35,15.69C1266.87,884.22,1271.66,886.2,1274.72,882.8Zm-15.25-9.62c-1.75-2.6-3.35-5.27-5.19-7.8a113.4,113.4,0,0,1,10.72,4.56,41.55,41.55,0,0,1,4.85,2.88c2.36,1.69,8.21,9.13.2,9.55C1265.63,882.6,1261.54,876.28,1259.47,873.18Z"/><path class="cls-3" d="M1267,844.36l50.29,62.16L1473.1,788.33l15-11.41s4.5,2.77,11.25,6.14c9.38,4.67,23.08,10.51,35,11.76,20,2.1,50.09.51,65.92-22.66,13.34-19.51,7.84-44,7.84-44l-22.28-8.47s-53.6-40.93-87.19-40.81c-14.27,0-34.55,11.72-53.28,23.81S1267,844.36,1267,844.36Z"/><path class="cls-6" d="M1488.12,776.92s4.5,2.77,11.25,6.14c11.07-14.46,34.68-40.87,35.4-41.8Z"/><path class="cls-6" d="M1566.3,706.07c3.18,2,6.27,4.17,9.42,6.25s6.28,3.95,9.24,6.2,5.86,4.74,8.71,7.22c1.37,1.19,2.74,2.4,4.07,3.64a35.81,35.81,0,0,1,3.9,3.89c.1.13-.09.3-.22.23a43,43,0,0,1-4.29-3.2c-1.51-1.16-3-2.34-4.48-3.5-2.89-2.25-5.82-4.43-8.7-6.68s-5.52-4.71-8.35-7c-3-2.43-6.22-4.68-9.36-7A.06.06,0,0,1,1566.3,706.07Z"/><path class="cls-6" d="M1278.11,841.59c3.23,3.2,6.24,6.66,9.27,10.06s6.06,6.83,9.06,10.27c6,6.88,12.06,13.73,18,20.69,3.24,3.83,6.45,7.69,9.49,11.68.14.18-.15.4-.3.25-6.42-6.49-12.34-13.45-18.33-20.33s-12-13.8-17.9-20.78c-3.23-3.82-6.55-7.61-9.54-11.62C1277.72,841.64,1278,841.45,1278.11,841.59Z"/><path class="cls-6" d="M1400.25,843.41c7.72-6.63,25.35-19.69,33.38-25.94s16-12.47,24.09-18.52c2.33-1.74,4.68-3.44,7-5.15s4.8-3.3,7.09-5.06c.14-.11.27.12.14.22-2.11,1.65-4.08,3.48-6.15,5.19s-3.93,3.28-5.92,4.88c-3.88,3.14-7.81,6.23-11.72,9.32q-11.93,9.42-24.07,18.56c-4.6,3.45-18.78,13.68-23.49,17C1400.35,844.08,1400,843.64,1400.25,843.41Z"/><path class="cls-6" d="M1347.07,779.25c7.12-6.43,23.44-18.9,30.94-24.88s15.11-12.16,22.73-18.17l22.65-17.89c7.33-5.78,14.61-11.65,22.38-16.82,4.25-2.83,8.63-5.48,13.13-7.88a87.74,87.74,0,0,1,13.66-6.27.13.13,0,0,1,.1.24c-3.84,2.36-7.89,4.39-11.78,6.67s-7.62,4.64-11.33,7.11c-7.72,5.14-15,10.91-22.25,16.63-15.12,11.88-30.21,23.81-45.46,35.54-8.53,6.57-25.51,20.1-34.4,26.18C1347.16,779.9,1346.82,779.48,1347.07,779.25Z"/><polygon class="cls-6" points="1145.5 447.96 1501.03 447.96 1501.03 336.32 1145.5 336.32 1145.5 336.32 1145.5 447.96 1145.5 447.96"/><polygon class="cls-6" points="1501.03 489.11 1501.03 447.9 1458.12 447.9 1501.03 489.11"/><rect class="cls-9" x="1167.94" y="355.63" width="246.56" height="2.12"/><rect class="cls-9" x="1167.94" y="367.08" width="195.38" height="2.12"/><rect class="cls-9" x="1167.94" y="389.99" width="226.29" height="2.12"/><rect class="cls-9" x="1167.94" y="401.45" width="246.56" height="2.12"/><rect class="cls-9" x="1167.94" y="412.9" width="246.56" height="2.12"/><rect class="cls-9" x="1167.94" y="424.36" width="178.27" height="2.12"/><path class="cls-9" d="M1444.16,403.52a22.48,22.48,0,0,1,1.58-8.67q1.58-3.86,6.5-6.7c1-.6,2.2-1.27,3.65-2a29.65,29.65,0,0,0,4.23-2.72,15.51,15.51,0,0,0,3.5-3.69,8.54,8.54,0,0,0,1.43-4.88,8,8,0,0,0-.79-3.64,8.27,8.27,0,0,0-2.07-2.67,8.52,8.52,0,0,0-3-1.62,11.67,11.67,0,0,0-3.5-.54,10,10,0,0,0-3.94.74,13.24,13.24,0,0,0-3.21,1.87,15.89,15.89,0,0,0-2.56,2.56,30.17,30.17,0,0,0-1.92,2.71l-8.57-5.91a18.76,18.76,0,0,1,3.4-5.42,20.55,20.55,0,0,1,4.83-4,22.4,22.4,0,0,1,5.86-2.47,25.57,25.57,0,0,1,6.5-.83,25.87,25.87,0,0,1,7.39,1.08,18.7,18.7,0,0,1,6.56,3.45,18.08,18.08,0,0,1,4.73,6.06,19.8,19.8,0,0,1,1.82,8.82,19.17,19.17,0,0,1-.74,5.57,15.34,15.34,0,0,1-2.12,4.38,18.22,18.22,0,0,1-3.25,3.55,36.45,36.45,0,0,1-4.24,3c-1.31.79-2.63,1.55-3.94,2.27a23.82,23.82,0,0,0-3.6,2.42,11.67,11.67,0,0,0-2.66,3.05,8,8,0,0,0-1,4.19Zm.2,23v-13.6h10.93v13.6Z"/></svg>