<svg id="Слой_1" data-name="Слой 1" xmlns="http://www.w3.org/2000/svg" viewBox="0 0 1252 796"><defs><style>.cls-1{fill:#306;}.cls-2{fill:#ffc800;}.cls-3{opacity:0.1;}.cls-4{fill:#4a148c;}.cls-5{fill:#c36358;}.cls-6{fill:#fff;}.cls-7{fill:#c8c8c8;}.cls-8{fill:#a8a8a8;}.cls-9{fill:#ff9cbf;}.cls-10{fill:#1a2e35;}</style></defs><path class="cls-1" d="M451,93.94a29.18,29.18,0,0,1,4.22-10.46q3-4.41,9.89-6.71,2.07-.73,5.09-1.59a38,38,0,0,0,6-2.3,20,20,0,0,0,5.34-3.72,11,11,0,0,0,3.05-5.75,10.2,10.2,0,0,0-.05-4.77,10.61,10.61,0,0,0-1.9-3.87A11,11,0,0,0,479.31,52a14.91,14.91,0,0,0-4.24-1.59,13.09,13.09,0,0,0-5.13-.09,17.17,17.17,0,0,0-4.5,1.52,20.35,20.35,0,0,0-3.87,2.54,37.56,37.56,0,0,0-3.11,2.9l-9.21-9.62a24.37,24.37,0,0,1,5.66-5.92A26.74,26.74,0,0,1,462,38a29.2,29.2,0,0,1,8-1.57,33,33,0,0,1,17.34,3.91,24,24,0,0,1,7.32,6A23,23,0,0,1,499,55.12a25.11,25.11,0,0,1,0,11.52,24.35,24.35,0,0,1-2.36,6.79,19.84,19.84,0,0,1-3.79,4.94,24.15,24.15,0,0,1-5,3.61,48.76,48.76,0,0,1-6.1,2.73c-1.86.65-3.7,1.25-5.53,1.82a30.92,30.92,0,0,0-5.13,2.09A15,15,0,0,0,467,91.76a10.19,10.19,0,0,0-2.38,5Zm-5.69,28.82,3.52-17,13.7,2.83-3.51,17Z"/><path class="cls-2" d="M288.65,643.55V327.83a29.35,29.35,0,0,1,29.43-29.43h175c15.52,0,29.43,13.38,29.43,29.43,0,16.59-13.91,30-29.43,30h-145v97.92H472.73c16,0,29.43,13.92,29.43,29.44,0,16.58-13.38,30-29.43,30H348.05V643.55c0,16.05-13.38,29.43-30,29.43A29.35,29.35,0,0,1,288.65,643.55Z"/><path class="cls-3" d="M288.65,643.55V327.83a29.35,29.35,0,0,1,29.43-29.43h175c15.52,0,29.43,13.38,29.43,29.43,0,16.59-13.91,30-29.43,30h-145v97.92H472.73c16,0,29.43,13.92,29.43,29.44,0,16.58-13.38,30-29.43,30H348.05V643.55c0,16.05-13.38,29.43-30,29.43A29.35,29.35,0,0,1,288.65,643.55Z"/><path class="cls-2" d="M266.31,643.55V327.83a29.34,29.34,0,0,1,29.43-29.43h175c15.52,0,29.43,13.38,29.43,29.43,0,16.59-13.91,30-29.43,30h-145v97.92H450.39c16.05,0,29.43,13.92,29.43,29.44,0,16.58-13.38,30-29.43,30H325.71V643.55c0,16.05-13.38,29.43-30,29.43A29.34,29.34,0,0,1,266.31,643.55Z"/><path class="cls-2" d="M715.94,584.69h-130l-26.22,69.56A30,30,0,0,1,531.86,673a31.16,31.16,0,0,1-10.17-1.61c-15.52-5.88-23-23-17.66-38.53L622.29,317.67c4.82-11.78,16.59-19.27,28.36-18.73,12.31-.54,23.55,6.95,28.36,18.73L797.27,632.84c5.35,15.52-2.14,32.65-17.66,38.53a29.93,29.93,0,0,1-37.45-17.12ZM694,525.82,650.65,410.77,607.31,525.82Z"/><path class="cls-3" d="M715.94,584.69h-130l-26.22,69.56A30,30,0,0,1,531.86,673a31.16,31.16,0,0,1-10.17-1.61c-15.52-5.88-23-23-17.66-38.53L622.29,317.67c4.82-11.78,16.59-19.27,28.36-18.73,12.31-.54,23.55,6.95,28.36,18.73L797.27,632.84c5.35,15.52-2.14,32.65-17.66,38.53a29.93,29.93,0,0,1-37.45-17.12ZM694,525.82,650.65,410.77,607.31,525.82Z"/><path class="cls-2" d="M693.59,584.69h-130l-26.22,69.56A30,30,0,0,1,509.51,673a31.14,31.14,0,0,1-10.16-1.61c-15.52-5.88-23-23-17.66-38.53L600,317.67c4.81-11.78,16.59-19.27,28.36-18.73,12.31-.54,23.54,6.95,28.36,18.73L774.93,632.84c5.35,15.52-2.14,32.65-17.66,38.53a29.94,29.94,0,0,1-37.46-17.12Zm-21.94-58.87L628.31,410.77,585,525.82Z"/><path class="cls-2" d="M1213,726c-29.43,22.48-59.93,33.72-88.29,33.72h-1.61c-37.46,0-69-15-97.92-32.11a66.89,66.89,0,0,0-32.65-8c-17.65,0-35.85,7.49-38,9.1-10.7,5.88-23,4.82-31-1.61-.54-.53-1.61-.53-3.22-1.07-.53-.53-.53-.53-1.07-.53-2.67-3.75-5.88-7-7.49-12.31-8-16.05-.53-33.71,14.45-41.2l1.61-1.07a234.33,234.33,0,0,1-59.4-40.67,209.43,209.43,0,0,1-53.51-139.66,205.3,205.3,0,0,1,53.51-138.06c34.25-36.92,81.33-59.4,133.78-59.4a176.41,176.41,0,0,1,132.7,59.4c34.25,35.85,54.58,84.55,54.58,138.06,0,54-20.33,103.27-54.58,139.66a206.61,206.61,0,0,1-59.39,42.27l-12.31,4.82c22.47,12.31,42.81,19.26,59.93,19.26,15.52,0,30.5-3.74,52.44-20.33,13.38-10.7,32.64-8,43.35,5.35S1227.44,714.18,1213,726ZM914.93,586.83a116.47,116.47,0,0,0,87.23,38.52c34.24,0,64.74-14.45,88.29-38.52,23-24.62,36.92-58.33,36.92-96.32s-13.91-71.71-36.92-95.25c-23.55-24.62-54-39.07-88.29-39.07a115,115,0,0,0-87.23,39.07c-23,23.54-36.92,57.25-36.92,95.25S891.92,562.21,914.93,586.83Z"/><path class="cls-3" d="M1213,726c-29.43,22.48-59.93,33.72-88.29,33.72h-1.61c-37.46,0-69-15-97.92-32.11a66.89,66.89,0,0,0-32.65-8c-17.65,0-35.85,7.49-38,9.1-10.7,5.88-23,4.82-31-1.61-.54-.53-1.61-.53-3.22-1.07-.53-.53-.53-.53-1.07-.53-2.67-3.75-5.88-7-7.49-12.31-8-16.05-.53-33.71,14.45-41.2l1.61-1.07a234.33,234.33,0,0,1-59.4-40.67,209.43,209.43,0,0,1-53.51-139.66,205.3,205.3,0,0,1,53.51-138.06c34.25-36.92,81.33-59.4,133.78-59.4a176.41,176.41,0,0,1,132.7,59.4c34.25,35.85,54.58,84.55,54.58,138.06,0,54-20.33,103.27-54.58,139.66a206.61,206.61,0,0,1-59.39,42.27l-12.31,4.82c22.47,12.31,42.81,19.26,59.93,19.26,15.52,0,30.5-3.74,52.44-20.33,13.38-10.7,32.64-8,43.35,5.35S1227.44,714.18,1213,726ZM914.93,586.83a116.47,116.47,0,0,0,87.23,38.52c34.24,0,64.74-14.45,88.29-38.52,23-24.62,36.92-58.33,36.92-96.32s-13.91-71.71-36.92-95.25c-23.55-24.62-54-39.07-88.29-39.07a115,115,0,0,0-87.23,39.07c-23,23.54-36.92,57.25-36.92,95.25S891.92,562.21,914.93,586.83Z"/><path class="cls-2" d="M1190.65,726c-29.44,22.48-59.94,33.72-88.3,33.72h-1.6c-37.46,0-69-15-97.93-32.11a66.86,66.86,0,0,0-32.64-8c-17.66,0-35.85,7.49-38,9.1-10.71,5.88-23,4.82-31-1.61-.53-.53-1.6-.53-3.21-1.07-.53-.53-.53-.53-1.07-.53-2.67-3.75-5.89-7-7.49-12.31-8-16.05-.54-33.71,14.45-41.2l1.6-1.07A234.27,234.27,0,0,1,846,630.17a209.38,209.38,0,0,1-53.51-139.66A205.25,205.25,0,0,1,846,352.45c34.24-36.92,81.33-59.4,133.77-59.4a176.43,176.43,0,0,1,132.71,59.4c34.25,35.85,54.58,84.55,54.58,138.06,0,54-20.33,103.27-54.58,139.66a206.52,206.52,0,0,1-59.4,42.27l-12.31,4.82c22.48,12.31,42.81,19.26,59.94,19.26,15.52,0,30.5-3.74,52.44-20.33,13.37-10.7,32.64-8,43.34,5.35S1205.09,714.18,1190.65,726ZM892.59,586.83a116.46,116.46,0,0,0,87.22,38.52c34.25,0,64.75-14.45,88.29-38.52,23-24.62,36.93-58.33,36.93-96.32s-13.91-71.71-36.93-95.25c-23.54-24.62-54-39.07-88.29-39.07a115,115,0,0,0-87.22,39.07c-23,23.54-36.92,57.25-36.92,95.25S869.58,562.21,892.59,586.83Z"/><path class="cls-2" d="M280.59,510.09c-33,44.68-67.38,96.52-75.75,152.54-.1.85,1.26,1.13,1.45.29a333.73,333.73,0,0,1,14.59-44.86c21.69-6,43-10.87,54.36-32.39,11.62-22.13,10.14-51,7.93-75.08C283,509.3,281.26,509.23,280.59,510.09Z"/><path class="cls-1" d="M221.21,617.64c14.82-33.25,33.84-66.64,58-94,.16-.19.41.08.26.26-15.83,19.48-27.86,40.69-39.6,62.26,10.92-11.08,22.89-21,33.23-32.77.2-.23.53.1.33.33-10.27,12.33-21.49,25.72-34.87,34.84q-5.39,9.95-10.88,19.91c.9-.5,1.83-1,2.75-1.41.16-.08.3.16.14.25-1,.51-2,1.06-3.08,1.5-1.74,3.15-3.46,6.29-5.25,9.43C221.86,619,220.89,618.34,221.21,617.64Z"/><path class="cls-1" d="M232.23,606a195.35,195.35,0,0,0,25.32-16.9c.22-.18.53.12.31.31a133.7,133.7,0,0,1-25.27,17.21A.36.36,0,0,1,232.23,606Z"/><path class="cls-2" d="M201,654.31c.07.67,1.22.66,1.21-.06.17-18.45,0-37,.29-55.52,4.73-9.53,14.87-14.81,21.93-22.46A98.56,98.56,0,0,0,237.61,558c8.72-15.61,13.44-33.16,15.26-50.89,1.95-19.73-5.54-84.85-13.86-82.59-4.31,1.17-18.27,33.42-22,44.09a308,308,0,0,0-13.13,54.06C197.16,566,197.72,610.61,201,654.31Z"/><path class="cls-1" d="M200.89,574.72l.08-.07c1-23.35,6.28-46.92,11.2-69.56,5.3-24.39,11.5-47.36,24.05-69.11a.36.36,0,0,1,.62.36c-8.54,16.83-14.64,34.7-19.32,53.05.84-1.32,1.86-2.56,2.74-3.8.34-.49,1.15,0,.81.47a34.4,34.4,0,0,1-3.92,5.54.31.31,0,0,1-.17.07c-4.32,17.44-7.42,35.27-10.07,53.06.2-.23.39-.47.59-.69s.36,0,.27.21c-.33.59-.7,1.17-1.06,1.76-1.34,9-2.57,18-3.82,27,16.07-13.74,29.8-29.93,37.55-49.89,0-.09.18-.05.15,0-7.59,20.7-19.55,39.1-38,51.66-.33,2.41-.67,4.82-1,7.21-.07.5-.87.37-.86-.12,0-2.12.11-4.25.19-6.39A.49.49,0,0,1,200.89,574.72Z"/><path class="cls-1" d="M208.46,540.9c12.29-18.34,23.76-36.15,32.75-56.41.1-.23.49-.07.41.17-7.58,20.13-18.19,40.54-32.54,56.71A.39.39,0,0,1,208.46,540.9Z"/><path class="cls-1" d="M224.79,480c5.09-9,10.46-17.77,15.25-26.95.13-.26.48,0,.38.22-4,9.38-8.83,18.91-14.84,27.19C225.24,480.88,224.5,480.48,224.79,480Z"/><path class="cls-1" d="M222.8,483.87a.08.08,0,0,1,0,.16A.08.08,0,0,1,222.8,483.87Z"/><path class="cls-2" d="M188.54,601a188.7,188.7,0,0,1-4.31,36.35c.19,1.31.37,2.62.57,4a173.83,173.83,0,0,0,6.5-40.52,1.24,1.24,0,0,0,.06-1.25v0a268.3,268.3,0,0,0-4.07-54.89c-5.71-33.91-18.19-66.45-41.84-91.86a1.68,1.68,0,0,0-2.61.54c-9.54,24.26-6.22,53.21,1.91,77.41a142,142,0,0,0,18.75,36.77C171.61,578.85,182,588.5,188.54,601Z"/><path class="cls-1" d="M148.24,464.07c22.41,36.37,38,79.5,39.9,122.46,0,.76-1.24,1-1.35.18-.53-3.86-1.12-7.68-1.74-11.49,0,0,0,0,0,0-9.27-8.88-18.79-18.25-25.42-29.34-.12-.2.16-.43.32-.25,8.06,9.22,15.59,18.66,24.69,26.88q-2.4-14.25-5.75-28.06c-.6-.68-1.19-1.39-1.78-2.08-.39-.46.26-1.12.67-.67l.54.6a324.22,324.22,0,0,0-11.72-37.2c-5.7-6.8-12.08-12.68-16.24-20.88a.18.18,0,0,1,.3-.18c3.34,4.69,6.57,9.41,10.36,13.76,1.51,1.73,3.17,3.35,4.74,5a286.39,286.39,0,0,0-18.35-38.24A.5.5,0,0,1,148.24,464.07Z"/><path class="cls-1" d="M152.77,508.94C160,518.69,168.26,528,175,538.06c.19.29-.23.59-.47.36-8.65-8.11-16-19.2-22.25-29.2C152.08,508.91,152.56,508.65,152.77,508.94Z"/><path class="cls-1" d="M176,540.32l.31.31c.22.21-.12.55-.33.33l-.31-.31A.23.23,0,0,1,176,540.32Z"/><path class="cls-2" d="M113.13,534c1.8,18.71,11.64,41.06,23.64,55.48a58.94,58.94,0,0,0,19.18,15c8.3,4.11,17,8.84,25.59,12.21a167.92,167.92,0,0,1,9.06,32.19c.28-.94.56-1.91.83-2.85-5.51-47.38-36.17-87.87-75.38-113.86A1.9,1.9,0,0,0,113.13,534Z"/><path class="cls-1" d="M126.67,548c-.27-.25.1-.74.4-.52,20.78,15.39,39.51,37.84,50,61.58.28.65-.61,1.22-1,.57-1.82-3.2-3.68-6.3-5.57-9.35h0c-8.95-1.68-17.43-8-24.07-14-.18-.16.08-.43.26-.27A54.81,54.81,0,0,0,158,594c3.64,1.85,7.57,3,11.37,4.5-3.32-5.26-6.78-10.31-10.38-15.21-9.64-3.28-18.81-9.2-26.9-15.12-.26-.19,0-.6.25-.44a268.46,268.46,0,0,0,25,13.37,223.87,223.87,0,0,0-17.65-20.58c-3-1.61-6.13-3.22-9.08-4.94a.25.25,0,0,1,.2-.46,32.77,32.77,0,0,1,7,3.42C134.22,555,130.58,551.43,126.67,548Z"/><path class="cls-1" d="M127.51,564.35a11.44,11.44,0,0,1,1.51,1.07c.14.13,0,.31-.19.25a11.65,11.65,0,0,1-1.58-.89C127,564.6,127.23,564.17,127.51,564.35Z"/><polygon class="cls-4" points="252.63 751.43 145.18 751.43 153.85 653.58 155.76 632 242.05 632 243.96 653.58 252.63 751.43"/><polygon class="cls-1" points="243.96 653.58 153.85 653.58 155.76 632 242.05 632 243.96 653.58"/><rect class="cls-4" x="150.62" y="616.91" width="96.58" height="21.36"/><path class="cls-5" d="M252.19,456.76c3.72-1.55,86.28-73.48,87.69-78.21.55-1.79-9.23-14.42-21.47-29.36-2.64-3.22-5.39-6.53-8.21-9.88-18.22-21.77-38.07-44.44-38.07-44.44l-55.36,47.95,39.6,43.12,8.68,9.47s-19.29,41.68-20.28,47S248.46,458.31,252.19,456.76Z"/><path class="cls-2" d="M252.19,456.76c3.72-1.55,86.28-73.48,87.69-78.21.66-2.18-13.91-20.38-29.68-39.24l-53.83,46.63,8.68,9.47s-19.29,41.68-20.28,47S248.46,458.31,252.19,456.76Z"/><path class="cls-4" d="M252.19,456.76c3.72-1.55,86.28-73.48,87.69-78.21.55-1.79-9.23-14.42-21.47-29.36l-53.36,46.22s-19.29,41.68-20.28,47S248.46,458.31,252.19,456.76Z"/><path class="cls-1" d="M250.5,452.42C264,440,319.83,391.3,334.16,380.08c.11-.09.18,0,.07.09-13.15,12.58-69.34,60.85-83.54,72.48C250.39,452.9,250.21,452.69,250.5,452.42Z"/><path class="cls-1" d="M247.49,434.85A14.72,14.72,0,0,1,258.71,431c3.36.38,7.13,1.74,9.53,4.69.07.08-.08.22-.17.15-5.5-4.73-14.57-5.2-20.43-.84A.11.11,0,0,1,247.49,434.85Z"/><path class="cls-1" d="M260.88,401.47c5.47-4.91,13.6-8.55,21-7,.28.06.2.47,0,.53a101.36,101.36,0,0,0-20.45,7.25A.46.46,0,0,1,260.88,401.47Z"/><path class="cls-1" d="M258.06,406.86c5.47-4.9,13.6-8.54,21-7,.29.06.2.46,0,.52a101.89,101.89,0,0,0-20.44,7.25A.46.46,0,0,1,258.06,406.86Z"/><path class="cls-1" d="M255.24,412.25c5.47-4.9,13.59-8.54,21-7,.29.06.2.46,0,.52A101.39,101.39,0,0,0,255.73,413,.46.46,0,0,1,255.24,412.25Z"/><path class="cls-1" d="M252.41,417.64c5.47-4.9,13.6-8.54,21-7,.28.06.2.47,0,.53a101.36,101.36,0,0,0-20.45,7.25A.46.46,0,0,1,252.41,417.64Z"/><path class="cls-6" d="M319.18,370c6.23-5.4,14.63,4.27,8.39,9.68S312.94,375.41,319.18,370Z"/><path class="cls-1" d="M249.53,399.64c6.35,1.25,13-.29,19.34-1a.9.9,0,0,0,.61-1.32.18.18,0,0,0,0-.3,38.42,38.42,0,0,0-17.37-9.78c-3.83-.91-9.34-.11-10.12,4.66C241.28,396.41,245.83,398.9,249.53,399.64Zm-4.25-4.37c-4.7-6.51,4.77-6.61,7.57-5.83a41.35,41.35,0,0,1,5.28,2,116.15,116.15,0,0,1,10.27,5.49c-3.13.16-6.21.58-9.33.85C255.36,398.08,247.87,398.86,245.28,395.27Z"/><path class="cls-1" d="M286.11,376.35c-3.59-3.24-8.4-.43-10.82,2.67a38.57,38.57,0,0,0-7.47,18.49.2.2,0,0,0,.22.22.91.91,0,0,0,1.3.65c5.38-3.4,11.55-6.36,15.72-11.3C287.5,384.19,289.5,379.41,286.11,376.35Zm-9.67,15.21c-2.61,1.74-5.28,3.33-7.82,5.16a116,116,0,0,1,4.6-10.7,41.5,41.5,0,0,1,2.89-4.84c1.7-2.35,9.16-8.18,9.55-.17C285.88,385.43,279.55,389.5,276.44,391.56Z"/><path class="cls-1" d="M155.18,257.75c5.19,29.6,82.2,112.42,91.1,121.91l2,2.17L307,332.61l-.74-.87L249.86,264l159.35-7.71-62.52-44.48s-4.79,3-15.05,2c-35.4-3.65-115.2-11.68-133.86-10.13C173.69,205.72,150.42,230.59,155.18,257.75Z"/><path class="cls-4" d="M229.56,238.85a71.49,71.49,0,0,1,5.81,6.83c2,2.4,4,4.77,6,7.17l.06.07c-.36-.71-.72-1.43-1.1-2.13-1.3-2.42-2.36-4.93-3.87-7.22-.09-.14.13-.29.22-.15,1.55,2.28,3.32,4.43,4.66,6.85q1,1.69,1.8,3.45c.31.64.63,1.28.91,1.94a8.64,8.64,0,0,1,.39.93c.89,1.12,1.78,2.24,2.64,3.38,1.91,2.53,3.61,5.22,5.54,7.72.11.14-.11.28-.21.15-1.95-2.35-4.12-4.53-6.09-6.86s-3.93-4.83-5.82-7.3-3.67-4.84-5.51-7.25a74.12,74.12,0,0,1-5.58-7.45C229.36,238.89,229.48,238.77,229.56,238.85Z"/><path class="cls-4" d="M239.58,368.11c3.34-3.09,6.92-5.95,10.44-8.83s7.08-5.76,10.65-8.62c7.13-5.71,14.23-11.46,21.44-17.08,4-3.08,7.95-6.12,12.07-9,.19-.13.39.17.23.32-6.75,6.14-14,11.75-21.08,17.45s-14.3,11.39-21.52,17c-4,3.07-7.89,6.23-12,9C239.62,368.51,239.44,368.25,239.58,368.11Z"/><path class="cls-5" d="M364.45,123.43c-8.74,16.81-39.91,63.95-64.61,73.06-13.61,5-83.33,17.65-93.72,10.41-12.16-8.49-8.85-46.59-.24-48.05,26.26-4.47,75.84.13,87.69-4.15,5.36-1.94,32.17-24.61,61.45-43.77C366.1,103.68,370.08,112.58,364.45,123.43Z"/><path class="cls-2" d="M231,155.12s.36,57.56,3.07,56.73,61.94-8.5,76.81-17,38.35-42.75,51.92-65.29.63-27.37-13.72-16-54.59,38.36-57.19,38.6S231,155.12,231,155.12Z"/><path class="cls-1" d="M242.08,205.5c.3-7.78.49-15.54.33-23.32q-.1-5.82-.4-11.63c-.2-3.87-.79-7.74-.93-11.61,0-.21-.35-.18-.33,0,.34,3.85.16,7.79.29,11.65s.24,7.77.33,11.65c.18,7.75.37,15.5.37,23.26C241.74,205.74,242.07,205.71,242.08,205.5Z"/><path class="cls-2" d="M315.05,192c14.83-11.67,35.39-41.89,47.74-62.41,9.68-16.08,5.88-23.15-2.31-21.75Z"/><rect class="cls-7" x="233.53" y="208.76" width="102.6" height="4.6"/><polygon class="cls-8" points="314.18 208.76 317.69 213.36 233.53 213.36 233.53 208.76 314.18 208.76"/><polygon class="cls-8" points="309.79 213.36 209.8 213.36 201.47 145.45 301.46 145.45 309.79 213.36"/><path class="cls-1" d="M261.72,179.4a6,6,0,0,1-6,6.09,6.23,6.23,0,0,1-6.2-6.09,6,6,0,0,1,6-6.08A6.21,6.21,0,0,1,261.72,179.4Z"/><path class="cls-5" d="M202.29,152c-3.77,5.82-13.08,12.63-14.35,17.62a5.89,5.89,0,0,0,2.43,6.61s-5.39,1.86-5.81,6.58c-.21,2.43,3.48,4.9,3.48,4.9s-4.25,1.68-4.36,5.9c-.09,3.36,3.62,5.33,3.62,5.33s-3.33,3.51-2.32,7c2.05,7,30.67,10.78,36.48.82,2.71-4.64-4.33-5.18-4.33-5.18s10.32-1.66,11.25-7.55-8.26-6-8.26-6,10-1.7,10.33-7.89c.36-6.45-8.86-5-8.86-5s6.94-3.48,6.12-8.28c-1.35-7.93-17.67.5-23.77-1.83Z"/><path class="cls-1" d="M187.85,199.35c-.1,0-.15.11,0,.14,9.11,3.54,20.2,4.64,29.71,2.14.32-.08.32-.62,0-.6C207.17,201.73,198,201.53,187.85,199.35Z"/><path class="cls-1" d="M187.9,187.76c-.11,0-.15.16,0,.2,9.41,3.6,21.94,4.49,32.56.32.37-.14.55-.63.12-.5C213.26,190,197,189.77,187.9,187.76Z"/><path class="cls-1" d="M222.27,174.51c-10.34,3.6-20.79,3.52-31.52,1.9-.14,0-.16.18,0,.23,5,2.22,12,2.54,17.4,2.34a28.86,28.86,0,0,0,14.29-4.11C222.57,174.77,222.49,174.43,222.27,174.51Z"/><path class="cls-2" d="M326.41,233.61S441,251,441.6,250.29,425.3,126.75,386,107.08c-6.23-3.12-21.09-4.61-27.22,2C341.29,128.05,324.87,232,326.41,233.61Z"/><path class="cls-4" d="M327.29,223.35l112.84,15.86c-.53-3.38-1.21-7.41-2.05-11.93L329,212C328.32,216.27,327.74,220.13,327.29,223.35Z"/><path class="cls-4" d="M330,205.9l106.84,15q-.58-3-1.26-6.21L331.09,200C330.71,202,330.37,204,330,205.9Z"/><path class="cls-5" d="M363.22,131.1c6.36.27,15-11,17.7-19.35.18-.58-1.66-5.87-3.58-12.4-1.15-4-2.34-8.42-3.14-12.56L349.46,98.07s4.21,8.18,5.55,15.41a10.46,10.46,0,0,1,.15,1.73c0,.08,0,.18,0,.29C355.26,118.82,357.07,130.83,363.22,131.1Z"/><path class="cls-1" d="M349.45,98.06s4.22,8.19,5.56,15.42a8.65,8.65,0,0,1,.14,1.73,1.42,1.42,0,0,0,0,.28,13.72,13.72,0,0,0,2.7-.37c15-3.23,15.71-22.75,15.61-28Z"/><path class="cls-5" d="M371.67,53.24c4.59,8.65,4.89,36.17-.51,43.36-7.82,10.43-23.19,14.26-32.7,4.28-9.21-9.69-9-45.55-2.7-52.35C345,38.51,364.89,40.45,371.67,53.24Z"/><path class="cls-1" d="M348.31,75c0-.07.15.09.14.17-.07,1.84.15,4,1.81,4.58.05,0,0,.12,0,.11C348.21,79.51,348,76.69,348.31,75Z"/><path class="cls-1" d="M350,73.06c3-.2,3.13,5.74.39,5.92S347.49,73.22,350,73.06Z"/><path class="cls-1" d="M337.51,75.26c0-.07-.14.09-.14.16.11,1.84-.07,4-1.72,4.62,0,0,0,.12,0,.1C337.69,79.8,337.91,77,337.51,75.26Z"/><path class="cls-1" d="M335.81,73.38c-3-.14-3,5.8-.28,5.93S338.29,73.5,335.81,73.38Z"/><path class="cls-1" d="M352.24,70.27a24,24,0,0,1-2.32-.74,3.93,3.93,0,0,1-2.23-1.21,1.27,1.27,0,0,1,.16-1.53,3.13,3.13,0,0,1,3.13-.41,4.58,4.58,0,0,1,2.7,1.91A1.34,1.34,0,0,1,352.24,70.27Z"/><path class="cls-1" d="M333.43,70.46c.81-.16,1.54-.44,2.34-.68A4,4,0,0,0,338,68.63a1.26,1.26,0,0,0-.12-1.53,3.12,3.12,0,0,0-3.12-.5,4.61,4.61,0,0,0-2.74,1.83A1.34,1.34,0,0,0,333.43,70.46Z"/><path class="cls-1" d="M350.73,91.16c-.33.52-.63,1.2-1.27,1.4a5,5,0,0,1-2,0,.07.07,0,0,0-.06.11,2.47,2.47,0,0,0,2.5.45,2,2,0,0,0,1.05-1.91C350.93,91.09,350.78,91.09,350.73,91.16Z"/><path class="cls-1" d="M348.26,85.94a6.26,6.26,0,0,1-4.1,2.91,8.08,8.08,0,0,1-2.25.16,8,8,0,0,1-.84-.08.47.47,0,0,1-.38-.4v0c0-.06,0-3.93,0-3.93-.51.27-3.12,1.53-3.1.79.19-6.14.4-13,1.89-19a.17.17,0,0,1,.33,0c.06,5.91-.93,11.78-1,17.71a11.22,11.22,0,0,1,2.93-1c.11,0-.14,4.83-.12,4.87,2.39.23,4.16-.54,6.42-2.2C348.22,85.67,348.37,85.79,348.26,85.94Z"/><path class="cls-1" d="M342.48,88.69a7.83,7.83,0,0,0,3.31,2.18,3.56,3.56,0,0,0,2.14,0c1.5-.52,1.43-1.94,1.06-3.12a8.43,8.43,0,0,0-.84-1.8A10.08,10.08,0,0,1,342.48,88.69Z"/><path class="cls-9" d="M345.79,90.87a3.56,3.56,0,0,0,2.14,0c1.5-.52,1.43-1.94,1.06-3.12C347.35,88,345.8,89.25,345.79,90.87Z"/><path class="cls-1" d="M332.11,58.63c.93-2.46,2-4.94,3.45-5.49s2.54,3,5.85,3c4.47.1,6.44-4.09,12.65-4.81,8.91-1,13.2,6.25,14,18.94.71,11.33,7.61,12.08,7.61,12.08s3-25.19-4.43-33.15S347.48,38.36,337,46.75C333.16,49.82,332.11,58.63,332.11,58.63Z"/><path class="cls-5" d="M369.44,77.81s4.54-9.67,8.83-8.2,1.91,14.76-2.39,17.27a4.74,4.74,0,0,1-6.69-1.43Z"/><path class="cls-1" d="M377.49,73.4a.07.07,0,0,1,.05.12c-3,1.86-4.18,5.15-4.83,8.45.75-1.36,2-2.24,3.74-1.37.09,0,0,.19-.06.18a2.92,2.92,0,0,0-3,1.55,14.12,14.12,0,0,0-1.07,2.82c-.1.32-.65.26-.59-.1a.17.17,0,0,1,0-.07C371,80.88,373.15,74.58,377.49,73.4Z"/><path class="cls-8" d="M344.16,42.2A40.08,40.08,0,0,1,355,37.73c4.26-1,18-1.33,21.51,1.06s5.72,15.12,6,17,.61,13.28-3.22,16.44-6.19-16-13.32-21.77S344.16,42.2,344.16,42.2Z"/><path class="cls-3" d="M344.16,42.2s14.62,2.52,21.75,8.24,9.51,24.93,13.34,21.77c1.68-1.39,2.38-3.27,2.81-6.35-1.44-5.54-4.61-14-9.92-19.6-5-5.21-12.82-7.3-21-7.38A45.88,45.88,0,0,0,344.16,42.2Z"/><path class="cls-8" d="M379.3,83.75c-.9-5.09-7.52-18.28-13.8-25.59s-22.84-10.26-25.08-9.9c-5.42.88-6.35,3.61-7.27,3.21s3.91-7.16,5.35-8.24a17.82,17.82,0,0,1,7.36-2.67C348.24,40.38,363,40.33,369,46s15.28,22.41,14.36,27c-.22,1.11-1.57,2-1.87,3.52-.4,2.06-.58,4.42-1,5.88C380.06,83.63,379.37,84.2,379.3,83.75Z"/><path class="cls-1" d="M363.87,54.75a25.57,25.57,0,0,0,3.28-3,19.13,19.13,0,0,0,2.71-3.56c.05-.09.2,0,.15.07a14.29,14.29,0,0,1-2.38,3.92A12.08,12.08,0,0,1,364,55C363.87,55.08,363.75,54.85,363.87,54.75Z"/><path class="cls-1" d="M378.82,78.62c.1-.38.31-.73.45-1.11a5.89,5.89,0,0,0,.35-1.31,12,12,0,0,1,.33-2.55,9.15,9.15,0,0,1,1-1.83,3.45,3.45,0,0,0,.79-2.19.09.09,0,0,1,.17,0c.17,1.55-.76,2.77-1.31,4.14a16.81,16.81,0,0,0-.43,2.74,4.06,4.06,0,0,1-1.13,2.28C379,78.84,378.78,78.76,378.82,78.62Z"/><path class="cls-1" d="M376.48,73.26a20,20,0,0,0,1.26-1.89,16.77,16.77,0,0,0,.91-2c.25-.68.45-1.38.7-2.07s.67-1.61.92-2.43c0-.11.19,0,.16.07-.26.85-.37,1.76-.6,2.62a17.33,17.33,0,0,1-.76,2.2,11.88,11.88,0,0,1-1,2,5.7,5.7,0,0,1-1.5,1.63A.05.05,0,0,1,376.48,73.26Z"/><path class="cls-1" d="M374.1,68.44A14.44,14.44,0,0,0,376.57,65c.62-1.23,1.18-2.51,1.72-3.78,0-.08.19,0,.16.05a17.09,17.09,0,0,1-1.36,4.07,9.35,9.35,0,0,1-1.15,1.76,9.62,9.62,0,0,1-1.71,1.47C374.15,68.62,374,68.52,374.1,68.44Z"/><path class="cls-1" d="M371.58,63.85a5.11,5.11,0,0,0,1.21-1.52q.58-.93,1.11-1.89l1-1.83a5.09,5.09,0,0,0,.72-2c0-.1.17-.1.17,0a5.28,5.28,0,0,1-.38,2.07,13,13,0,0,1-1,2.12,17.69,17.69,0,0,1-1.25,1.93,3.33,3.33,0,0,1-1.53,1.3C371.57,64.09,371.46,63.93,371.58,63.85Z"/><path class="cls-1" d="M369.49,57.91c.42-.52.85-1,1.23-1.58s.75-1.11,1.09-1.68.75-1.19,1.08-1.8a.09.09,0,0,1,.16.06,13.82,13.82,0,0,1-.76,2,14,14,0,0,1-1.07,1.78A16.35,16.35,0,0,1,370,58.28a5.48,5.48,0,0,1-1.54,1.34c-.09,0-.21-.07-.16-.16A10.09,10.09,0,0,1,369.49,57.91Z"/><path class="cls-1" d="M359.64,52.24c.44-.68.87-1.35,1.38-2a24,24,0,0,1,1.65-1.85,22.81,22.81,0,0,1,3.7-3.09c.08,0,.2,0,.12.12-2.21,2.33-4.52,4.57-6.71,6.92A.09.09,0,0,1,359.64,52.24Z"/><path class="cls-1" d="M356.09,48.17a11,11,0,0,1,1.57-1.83,23,23,0,0,1,4.14-2.9c.1,0,.2.07.11.14-1.24,1-2.5,2-3.68,3.11a22.32,22.32,0,0,0-1.68,1.69c-.52.6-.89,1.3-1.39,1.92a.06.06,0,0,1-.11,0A5.9,5.9,0,0,1,356.09,48.17Z"/><path class="cls-1" d="M351.61,46.6a11.53,11.53,0,0,1,1.44-1.82,13.15,13.15,0,0,1,3.52-2.58c.09-.05.16.09.09.15a25.94,25.94,0,0,0-3.28,2.92c-.5.54-1,1.1-1.46,1.65a19.34,19.34,0,0,1-1.39,1.72.05.05,0,0,1-.09-.06A12.27,12.27,0,0,1,351.61,46.6Z"/><path class="cls-1" d="M348.26,44.36c.5-.5,1-1,1.54-1.43a6.61,6.61,0,0,1,1.68-1.18c.09,0,.15.08.08.15-1,.94-1.91,1.9-2.85,2.87a17.42,17.42,0,0,0-2.11,3.07s-.11,0-.1,0A6.54,6.54,0,0,1,348.26,44.36Z"/><path class="cls-1" d="M344.33,43.93a10.63,10.63,0,0,1,3.2-2.49c.09,0,.17.1.09.15a13,13,0,0,0-2.87,2.66,18,18,0,0,0-2.15,3.3c0,.05-.13,0-.11,0A8.62,8.62,0,0,1,344.33,43.93Z"/><path class="cls-1" d="M339.52,46.74a7.54,7.54,0,0,1,.36-.82,9.07,9.07,0,0,1,1-1.52,19,19,0,0,1,2.68-2.54c.09-.07.19.07.11.14a14.83,14.83,0,0,0-2.49,2.58,12.9,12.9,0,0,0-1,1.48,7.85,7.85,0,0,0-.38.77,4.89,4.89,0,0,1-.35.77.09.09,0,0,1-.16,0A2.64,2.64,0,0,1,339.52,46.74Z"/><path class="cls-1" d="M336.46,47.33c.26-.43.53-.84.83-1.25a11.46,11.46,0,0,1,1-1.13c.35-.37.72-.72,1.06-1.1a.09.09,0,1,1,.12.12,8.61,8.61,0,0,0-1,1.19l-.85,1.17-.84,1.17c-.29.4-.53.85-.85,1.22a.07.07,0,0,1-.12-.07A6.83,6.83,0,0,1,336.46,47.33Z"/><path class="cls-1" d="M354.23,119.7s.09,0,.09,0c0,5.2.36,17.22,8.43,16,3.25-.5,6.1-2.73,8.46-4.88a45.49,45.49,0,0,0,6.44-7.42A67.9,67.9,0,0,0,383.5,114c.06-.14.28,0,.2.12-1.72,3.29-3.12,6.68-5.16,9.8a39.66,39.66,0,0,1-6.93,8.19c-2.54,2.23-5.58,4.47-9,4.83a6.55,6.55,0,0,1-7-4.51A29.06,29.06,0,0,1,354.23,119.7Z"/><path class="cls-5" d="M400.62,133.58c7.77,44.1.26,77.14-7.24,81.23-20.17,11-68.59-11.33-82.25-15.76-5.53-1.8,19.64-44,25.28-41.43,13.28,6.14,31.89,16.56,32.64,16.48,1.49-.16,3.24-11.41,10.95-44.22C386.23,103.34,397.44,115.55,400.62,133.58Z"/><path class="cls-5" d="M267.1,136.73c-1.39,5.54,12.56,7.79,12.56,7.79a10.56,10.56,0,0,0-5.53,4.56c-2,3.83,3.1,8.7,3.1,8.7a12.93,12.93,0,0,0-5.06,5.74c-1.58,3.87,2.89,9.51,2.89,9.51a11.4,11.4,0,0,0-1.27,7.85c1.71,7.12,12.61,9.92,19,13,6.86,3.28,18.22,4.49,23.37,6.81l22.33-40.9S316.94,137,304.63,133.4C297.8,131.44,269.21,128.26,267.1,136.73Z"/><path class="cls-1" d="M279.81,144.39c7.77-.34,15.6,1.18,23.14,2.73a.13.13,0,0,1-.06.26c-7.48-1.63-15.58-1.3-23.1-2.62A.19.19,0,0,1,279.81,144.39Z"/><path class="cls-1" d="M277.57,157.27a19.66,19.66,0,0,1,5.2,1c1.82.46,3.63,1,5.43,1.49q5.42,1.59,10.74,3.45c.16.06.11.31-.06.26-3.59-1.05-7.21-2-10.84-2.94-1.82-.45-3.65-.88-5.47-1.3a24.83,24.83,0,0,1-5.11-1.43A.27.27,0,0,1,277.57,157.27Z"/><path class="cls-1" d="M275.22,173.07c1.53-.08,3.2.67,4.64,1.13l4.91,1.52c3.27,1,6.55,2,9.86,2.87.17,0,.11.31-.06.26-3.36-.88-6.74-1.71-10.1-2.62-1.65-.44-3.3-.9-4.94-1.36a13.4,13.4,0,0,1-4.37-1.63C275.09,173.19,275.14,173.08,275.22,173.07Z"/><path class="cls-10" d="M369.05,174.1c-4.1-2-12.29-6.1-16.37-8.16-4.68-2.3-11.62-6-16.35-8-5.45-5.19-10.84-10.57-16.63-15.43a49.57,49.57,0,0,0-6-4.5,47.57,47.57,0,0,1,6.2,4.25,188.48,188.48,0,0,1,16.58,15c4.93,1.94,11.69,5.75,16.47,8.12,4,2.12,12.11,6.49,16.09,8.71Z"/><path class="cls-2" d="M340.19,156.66l-24.3,49.68s65.71,26.82,78.3,12.26,12.14-63.29,6.25-89.95-18.88-13.74-21.78,1-8.3,42.85-9.61,42.52S340.19,156.66,340.19,156.66Z"/><path class="cls-1" d="M347.16,165.7c-3.57,6.39-7,12.81-10.21,19.4q-2.37,4.93-4.61,9.93c-1.48,3.33-2.63,6.82-4.16,10.12-.08.18.22.31.29.12,1.35-3.37,3.18-6.6,4.72-9.89s3.09-6.61,4.67-9.9c3.15-6.58,6.29-13.16,9.58-19.66C347.54,165.64,347.25,165.53,347.16,165.7Z"/><path class="cls-10" d="M339.19,158.69l.91-2.07,0-.1.1,0c13.9,7,28.24,14.8,41.56,22.83-13.95-6.87-28.27-14.73-41.66-22.65l.14-.05-1.09,2Z"/><path class="cls-10" d="M376.39,141.15c-.6,5.3-1.53,10.55-2.63,15.76a113.18,113.18,0,0,1-3,11.61,13.47,13.47,0,0,1-1.67,3.63c1.12-2.39,1.46-5.09,2.08-7.65l1.66-7.79c1.12-5.2,2.24-10.4,3.6-15.56Z"/><path class="cls-10" d="M373.46,143.29a42.13,42.13,0,0,0,.76,9,14,14,0,0,1-.76-9Z"/><path class="cls-10" d="M403.59,150.39c1.46,16,3,63.39-13.56,71,15.27-7.82,13.78-55.11,13.56-71Z"/><path class="cls-10" d="M405,154.33a11.64,11.64,0,0,1-1,6.38c.3-2.16.52-4.24,1-6.38Z"/><path class="cls-5" d="M26.55,369.65c1.56,3.72,73.76,86,78.49,87.44,1.8.54,14.4-9.27,29.29-21.56,3.22-2.66,6.52-5.42,9.86-8.24,21.71-18.3,44.32-38.22,44.32-38.22l-48.14-55.2-43,39.73-9.44,8.72s-41.74-19.16-47.1-20.14S25,365.93,26.55,369.65Z"/><path class="cls-2" d="M26.55,369.65c1.56,3.72,73.76,86,78.49,87.44,2.19.65,20.34-14,39.15-29.8L97.38,373.6l-9.44,8.72s-41.74-19.16-47.1-20.14S25,365.93,26.55,369.65Z"/><path class="cls-4" d="M26.55,369.65c1.56,3.72,73.76,86,78.49,87.44,1.8.54,14.4-9.27,29.29-21.56L87.94,382.32s-41.74-19.16-47.1-20.14S25,365.93,26.55,369.65Z"/><path class="cls-1" d="M30.88,368c12.44,13.5,61.34,69.13,72.62,83.42.09.12,0,.19-.09.08-12.62-13.11-61.07-69.14-72.76-83.31C30.41,367.84,30.62,367.66,30.88,368Z"/><path class="cls-1" d="M48.45,364.88a14.78,14.78,0,0,1,3.87,11.21c-.37,3.36-1.72,7.14-4.67,9.55-.08.07-.22-.08-.14-.17,4.71-5.52,5.14-14.59.76-20.44A.12.12,0,0,1,48.45,364.88Z"/><path class="cls-1" d="M81.87,378.17c4.92,5.45,8.59,13.57,7.08,21-.06.29-.46.2-.52,0a101.72,101.72,0,0,0-7.32-20.42A.46.46,0,0,1,81.87,378.17Z"/><path class="cls-1" d="M76.47,375.36c4.92,5.46,8.59,13.57,7.08,21-.06.28-.46.19-.52,0a102,102,0,0,0-7.32-20.43A.46.46,0,0,1,76.47,375.36Z"/><path class="cls-1" d="M71.07,372.56c4.92,5.45,8.59,13.57,7.08,21-.06.29-.47.2-.53,0a101.07,101.07,0,0,0-7.31-20.42A.46.46,0,0,1,71.07,372.56Z"/><path class="cls-1" d="M65.67,369.75c4.92,5.46,8.58,13.57,7.08,21-.06.29-.47.2-.53,0a101.32,101.32,0,0,0-7.32-20.42A.47.47,0,0,1,65.67,369.75Z"/><path class="cls-6" d="M113.52,436.36c5.42,6.22-4.23,14.65-9.66,8.42S108.09,430.14,113.52,436.36Z"/><path class="cls-1" d="M83.67,366.82c-1.23,6.35.33,13,1.06,19.33a.89.89,0,0,0,1.31.6.19.19,0,0,0,.31,0,38.6,38.6,0,0,0,9.72-17.41c.9-3.83.08-9.34-4.69-10.1C86.86,358.55,84.39,363.11,83.67,366.82ZM88,362.55c6.49-4.72,6.63,4.75,5.86,7.55a41.3,41.3,0,0,1-2,5.28,113.66,113.66,0,0,1-5.46,10.29c-.16-3.13-.6-6.21-.88-9.32C85.24,372.63,84.44,365.15,88,362.55Z"/><path class="cls-1" d="M107.07,403.31c3.23-3.59.4-8.39-2.71-10.81a38.48,38.48,0,0,0-18.51-7.4c-.15,0-.22.1-.22.22a.89.89,0,0,0-.64,1.29c3.41,5.37,6.39,11.53,11.35,15.69C99.23,404.73,104,406.71,107.07,403.31Zm-15.24-9.62c-1.75-2.6-3.35-5.26-5.19-7.8,3.61,1.46,7.26,2.75,10.72,4.56a41.55,41.55,0,0,1,4.85,2.88c2.36,1.69,8.21,9.13.2,9.55C98,403.11,93.9,396.79,91.83,393.69Z"/><path class="cls-1" d="M99.4,364.88,149.69,427,305.45,308.84l15-11.4s4.51,2.76,11.26,6.13c9.38,4.67,23.08,10.52,35,11.76,20.05,2.1,50.09.51,65.92-22.66,13.34-19.51,7.84-44,7.84-44l-22.28-8.46s-53.6-40.94-87.19-40.81c-14.27,0-34.55,11.71-53.28,23.81S99.4,364.88,99.4,364.88Z"/><path class="cls-4" d="M320.47,297.44s4.51,2.76,11.26,6.13c11.07-14.46,34.68-40.86,35.39-41.79Z"/><path class="cls-4" d="M398.66,226.58c3.18,2,6.27,4.18,9.42,6.25s6.28,3.95,9.24,6.2,5.86,4.74,8.71,7.22c1.37,1.2,2.73,2.4,4.07,3.65a36.54,36.54,0,0,1,3.89,3.88c.11.14-.08.31-.21.23a43.18,43.18,0,0,1-4.3-3.2c-1.5-1.16-3-2.33-4.48-3.5-2.88-2.25-5.81-4.42-8.69-6.68s-5.52-4.71-8.36-7c-3-2.43-6.21-4.68-9.35-7A.06.06,0,0,1,398.66,226.58Z"/><path class="cls-4" d="M110.47,362.1c3.23,3.2,6.24,6.67,9.27,10.06s6.06,6.83,9.06,10.27c6,6.88,12.06,13.73,18,20.7,3.24,3.82,6.45,7.68,9.49,11.68.14.18-.15.39-.3.24-6.42-6.49-12.34-13.45-18.33-20.32s-12-13.81-17.9-20.79c-3.23-3.82-6.55-7.61-9.54-11.62C110.08,362.16,110.33,362,110.47,362.1Z"/><path class="cls-4" d="M232.61,363.93C240.33,357.29,258,344.23,266,338s16-12.46,24.09-18.51c2.33-1.74,4.68-3.45,7-5.16s4.8-3.29,7.09-5.06c.14-.1.27.12.14.22-2.11,1.65-4.08,3.49-6.15,5.19s-3.93,3.28-5.92,4.89c-3.88,3.14-7.81,6.22-11.73,9.32-7.94,6.27-16,12.48-24.06,18.55-4.6,3.46-18.78,13.68-23.49,17C232.71,364.6,232.35,364.15,232.61,363.93Z"/><path class="cls-4" d="M179.43,299.76c7.12-6.43,23.44-18.9,30.94-24.88s15.11-12.15,22.73-18.17l22.65-17.89c7.32-5.78,14.61-11.65,22.38-16.82,4.25-2.83,8.62-5.47,13.13-7.88a88.63,88.63,0,0,1,13.66-6.26.13.13,0,0,1,.1.23c-3.84,2.36-7.89,4.39-11.78,6.68s-7.62,4.63-11.33,7.1c-7.72,5.14-15,10.91-22.25,16.63-15.12,11.89-30.22,23.81-45.46,35.55-8.53,6.56-25.51,20.1-34.4,26.18C179.52,300.42,179.18,300,179.43,299.76Z"/><polygon class="cls-4" points="537.57 238.88 917.39 238.88 917.39 119.62 537.57 119.62 537.57 119.62 537.57 238.88 537.57 238.88"/><polygon class="cls-4" points="917.39 282.85 917.39 238.82 871.55 238.82 917.39 282.85"/><rect class="cls-6" x="561.55" y="140.24" width="263.4" height="2.27"/><rect class="cls-6" x="561.55" y="152.48" width="208.73" height="2.27"/><rect class="cls-6" x="561.55" y="176.95" width="241.74" height="2.27"/><rect class="cls-6" x="561.55" y="189.19" width="263.4" height="2.27"/><rect class="cls-6" x="561.55" y="201.43" width="263.4" height="2.27"/><rect class="cls-6" x="561.55" y="213.67" width="190.45" height="2.27"/><path class="cls-6" d="M856.63,191.4a24.07,24.07,0,0,1,1.69-9.26Q860,178,865.27,175q1.58-.94,3.89-2.16a31.91,31.91,0,0,0,4.53-2.89,16.64,16.64,0,0,0,3.73-4,9.09,9.09,0,0,0,1.53-5.21,8.64,8.64,0,0,0-.84-3.9A8.88,8.88,0,0,0,875.9,154a9.31,9.31,0,0,0-3.21-1.74,12.63,12.63,0,0,0-3.74-.58,11,11,0,0,0-4.21.79,14.63,14.63,0,0,0-3.42,2,16.91,16.91,0,0,0-2.74,2.74,28.68,28.68,0,0,0-2.05,2.9l-9.16-6.32A20.26,20.26,0,0,1,851,148a22,22,0,0,1,5.16-4.26,24.29,24.29,0,0,1,6.26-2.64,27.25,27.25,0,0,1,7-.89,27.67,27.67,0,0,1,7.9,1.16,20.1,20.1,0,0,1,7,3.68,19.1,19.1,0,0,1,5.05,6.48,21.06,21.06,0,0,1,1.95,9.42,20.22,20.22,0,0,1-.79,6,16.64,16.64,0,0,1-2.26,4.68,19.84,19.84,0,0,1-3.48,3.79,38.88,38.88,0,0,1-4.53,3.26c-1.4.85-2.8,1.65-4.21,2.43a25.23,25.23,0,0,0-3.84,2.58,12.38,12.38,0,0,0-2.84,3.26,8.52,8.52,0,0,0-1.11,4.47Zm.21,24.53V201.4h11.69v14.53Z"/><path class="cls-5" d="M1040.42,419.94c-7.86,22.77-40.25,135-61.87,141.26-35.24,10.25-62.1,6.95-90.16,7.64-15.86.4-40.46-75.81-26.11-76.22,22.86-.64,74.8,3.36,83.1,3s39.19-64.27,68.35-92C1040,378.55,1046,403.9,1040.42,419.94Z"/><path class="cls-5" d="M897.49,566.8c-1.29.5-19.61,7.46-30.7,9.48-8.27,1.5-32.19,5.18-34.75-3.76-1.75-6.1,12.06-9.92,21.77-12.84,5.12-1.54,11.69-6,10.57-9.35-2-5.78-15.16-1.54-24,2.43-17,7.68-40.13,22.27-49.1,13.11-3.39-3.46,1.49-8.62,8.36-13.47-10.88,5.35-22.32,9.49-26.24,5.79-2.24-2.1-2.1-4.66-.44-7.43-3.26.7-6,.21-7.76-2-3-3.82-.82-8.78,3.36-13.67a4,4,0,0,1-2.81-2.29c-5.93-11.45,32.44-38.62,44.91-40.25,36.7-4.83,74.29.64,74.29.64C897.9,505.84,897.52,566.78,897.49,566.8Z"/><path class="cls-1" d="M848.2,528.4a61.34,61.34,0,0,0-24.84,6.74c-9.7,5.06-16.44,11.46-24.79,17.74-.22.16,0,.51.25.34,4-3,20.32-14.06,24.5-16.53a58.29,58.29,0,0,1,24.9-8.14C848.32,528.55,848.3,528.4,848.2,528.4Z"/><path class="cls-1" d="M843.09,512.52c-9.68,1.6-19.59,3.21-28.79,6.77-10.06,3.89-18.37,11.06-26.51,18q-7.34,6.21-14.4,12.73c-.19.18,0,.53.25.35q12.42-10.7,25.48-20.64a77,77,0,0,1,27-13.37c5.6-1.49,11.31-2.56,17-3.62C843.22,512.67,843.2,512.5,843.09,512.52Z"/><path class="cls-1" d="M834.4,498.19c-9.34.94-17.48,1.72-26.09,5.79-11.39,5.39-22.87,15.25-26.9,18.76-4.45,3.87-8.77,7.88-13,12-.17.17.11.47.29.31a305.9,305.9,0,0,1,30.75-24.77,60.92,60.92,0,0,1,16.65-8.54c5.94-1.86,12.18-2.62,18.34-3.45C834.45,498.25,834.44,498.19,834.4,498.19Z"/><path class="cls-2" d="M948.3,480.93l56.75,68.72s32.84-90.61,39.5-130.73c7-41.81-6.92-54.29-42.32-10.74C967.36,451.09,948.3,480.93,948.3,480.93Z"/><path class="cls-6" d="M1002,415.33a4.32,4.32,0,0,1-1.92-.67,3.8,3.8,0,0,1-1.48-1.92c-.44.53-.88,1.06-1.27,1.59a4.38,4.38,0,0,0,2.08,1.67,4.6,4.6,0,0,0,2.59.28c.81-.19,1.58-.28,2.34-.49A19.37,19.37,0,0,0,1002,415.33ZM988.6,523.12a4.64,4.64,0,0,1-1.92-.63,3.61,3.61,0,0,1-1.67-3.15,4.84,4.84,0,0,0-3.1-4.39,4.18,4.18,0,0,0-2.59-.19c-.81.19-1.58.28-2.39.46a16.9,16.9,0,0,0,2.39.49,4.43,4.43,0,0,1,2,.58,3.64,3.64,0,0,1,1.76,3.05,4.9,4.9,0,0,0,3,4.49,4.65,4.65,0,0,0,2.59.24,22.23,22.23,0,0,0,2.38-.47C990.17,523.39,989.41,523.3,988.6,523.12Zm53.3-116.47a4.54,4.54,0,0,0-.3,2.62c.19.76.3,1.52.49,2.33.23-.81.32-1.57.48-2.33a4.25,4.25,0,0,1,.65-1.95,3.7,3.7,0,0,1,2.89-1.69c.07-.67.1-1.32.12-1.94A4.82,4.82,0,0,0,1041.9,406.65Zm-48.12,57.47a19.79,19.79,0,0,0-.48-2.34c-.19.77-.28,1.53-.49,2.34a5,5,0,0,1-.55,2,3.63,3.63,0,0,1-3.06,1.76,4.9,4.9,0,0,0-4.49,3,4.76,4.76,0,0,0-.25,2.59,20.06,20.06,0,0,0,.48,2.38,20,20,0,0,0,.46-2.38,4.73,4.73,0,0,1,.68-1.92,3.6,3.6,0,0,1,3.17-1.67,4.64,4.64,0,0,0,4.53-5.69Zm23.45-26.92a4.12,4.12,0,0,1-1.83.9,3.5,3.5,0,0,1-3.38-1,4.85,4.85,0,0,0-5.3-.9,4.67,4.67,0,0,0-2,1.71c-.44.67-.94,1.3-1.34,2,.72-.44,1.34-.91,2-1.35a3.79,3.79,0,0,1,1.8-.94,3.58,3.58,0,0,1,3.45.85,4.72,4.72,0,0,0,5.21,1.09,4.79,4.79,0,0,0,2.06-1.67c.44-.67.9-1.29,1.29-2C1018.53,436.3,1017.9,436.79,1017.23,437.2Zm4.3,55.18a4.85,4.85,0,0,0-5.3-.9,4.64,4.64,0,0,0-2,1.71c-.42.67-.95,1.3-1.35,2,.72-.44,1.35-.92,2-1.34a4,4,0,0,1,1.8-.95,3.58,3.58,0,0,1,3.45.86,4.75,4.75,0,0,0,3.45,1.46l.56-1.74A3.46,3.46,0,0,1,1021.53,492.38ZM956.4,486a3.7,3.7,0,0,1-1.8.9,3.62,3.62,0,0,1-1.39,0l1.32,1.6a5.62,5.62,0,0,0,.53-.19,4.66,4.66,0,0,0,2.06-1.66c.44-.67.9-1.3,1.3-2C957.7,485,957.08,485.51,956.4,486Z"/><path class="cls-1" d="M1006.76,529.23c-1.24-1.87-2.76-3.59-4.17-5.34s-2.89-3.61-4.33-5.42c-2.92-3.67-5.91-7.28-8.92-10.88-6-7.18-12-14.39-18.1-21.48-1.69-1.95-3.38-3.89-5.11-5.8s-3.79-3.87-5.61-5.87c-.11-.12-.28.05-.18.18,1.43,1.82,2.72,3.77,4.14,5.6s2.95,3.75,4.46,5.59q4.45,5.43,9,10.79c6,7,11.9,14.1,18,21,1.7,1.93,3.43,3.84,5.13,5.77s3.5,4.17,5.47,6C1006.66,529.48,1006.84,529.36,1006.76,529.23Z"/><path class="cls-3" d="M1044.56,418.91c-6.67,40.12-39.5,130.75-39.5,130.75l-35.71-43.25L1036.75,381C1045.84,381.55,1048.41,395.73,1044.56,418.91Z"/><path class="cls-2" d="M1156,603.35A163.17,163.17,0,0,1,964.6,608c11.83-61.24,41-192.71,56.68-213.2,4.32-5.63,18.6-7.2,30.72-5.7a55.6,55.6,0,0,1,9.36,1.92,1.63,1.63,0,0,0,.31.07,22.37,22.37,0,0,1,6.86,3.37C1093.77,414.57,1136.64,540.44,1156,603.35Z"/><path class="cls-6" d="M1142.61,603.36a4.58,4.58,0,0,1-1.81.9,3.78,3.78,0,0,1-3.45-1,4.77,4.77,0,0,0-5.25-.9,4.33,4.33,0,0,0-2,1.71,22.8,22.8,0,0,0-1.34,2c.72-.44,1.34-.91,2-1.35a4.47,4.47,0,0,1,1.83-1,3.55,3.55,0,0,1,3.38.9,4.88,4.88,0,0,0,5.25,1.09,4.68,4.68,0,0,0,2-1.67c.44-.67,1-1.29,1.34-2C1143.9,602.46,1143.28,602.94,1142.61,603.36Zm-99.87,24.72a4.4,4.4,0,0,1-1.88.9,3.71,3.71,0,0,1-3.38-1,4.71,4.71,0,0,0-5.32-.92,4.92,4.92,0,0,0-2,1.73c-.44.63-.9,1.23-1.34,2a18.79,18.79,0,0,0,2-1.32,6.5,6.5,0,0,1,1.81-1,3.74,3.74,0,0,1,3.45.93,4.7,4.7,0,0,0,7.27-.58c.41-.67.9-1.29,1.27-2A22.53,22.53,0,0,0,1042.74,628.08Zm35.45-57.24a4.21,4.21,0,0,1-1.87.9,3.66,3.66,0,0,1-3.38-1,4.71,4.71,0,0,0-5.32-.92,4.92,4.92,0,0,0-1.95,1.73c-.44.63-.9,1.23-1.34,2a18.79,18.79,0,0,0,2-1.32,6,6,0,0,1,1.81-1,3.71,3.71,0,0,1,3.45.92,4.84,4.84,0,0,0,5.2,1.09,4.67,4.67,0,0,0,2.06-1.67c.42-.67.91-1.29,1.28-2C1079.47,569.89,1078.86,570.36,1078.19,570.84ZM983.83,577A3.48,3.48,0,0,1,982,578a3.63,3.63,0,0,1-3.42-1,4.72,4.72,0,0,0-5.26-1,5.18,5.18,0,0,0-2,1.74c-.35.46-.68.92-1,1.38a2.1,2.1,0,0,1-.09.42,20.63,20.63,0,0,0,1.74-1.13,4.15,4.15,0,0,1,1.8-1,3.58,3.58,0,0,1,3.4.92,4.93,4.93,0,0,0,5.26,1.09,4.71,4.71,0,0,0,2-1.67c.42-.67,1-1.29,1.34-2C985.13,576.14,984.5,576.61,983.83,577Zm42.91-84.52a3.79,3.79,0,0,1-1.83.9,3.5,3.5,0,0,1-3.38-1,4.85,4.85,0,0,0-5.3-.9,4.64,4.64,0,0,0-2,1.71c-.42.67-.95,1.3-1.35,2,.72-.44,1.35-.92,2-1.34a4,4,0,0,1,1.8-.95,3.58,3.58,0,0,1,3.45.86,4.73,4.73,0,0,0,5.21,1.09,4.81,4.81,0,0,0,2.06-1.67c.42-.67.9-1.3,1.3-2C1028,491.62,1027.41,492.08,1026.74,492.52Zm-9.51-55.32a4.12,4.12,0,0,1-1.83.9,3.5,3.5,0,0,1-3.38-1,4.85,4.85,0,0,0-5.3-.9,4.67,4.67,0,0,0-2,1.71c-.16.26-.34.51-.53.77s-.16.58-.25.88c.51-.33,1-.65,1.46-1a3.79,3.79,0,0,1,1.8-.94,3.58,3.58,0,0,1,3.45.85,4.72,4.72,0,0,0,5.21,1.09,4.79,4.79,0,0,0,2.06-1.67c.44-.67.9-1.29,1.29-2C1018.53,436.3,1017.9,436.79,1017.23,437.2Zm72.86-2.08a4.34,4.34,0,0,1-1.81.9,3.52,3.52,0,0,1-3.4-1,4.85,4.85,0,0,0-5.3-.9,4.58,4.58,0,0,0-2,1.71c-.42.67-.95,1.3-1.35,2,.72-.44,1.35-.9,2-1.34a3.87,3.87,0,0,1,1.82-.95,3.56,3.56,0,0,1,3.43.86,4.73,4.73,0,0,0,5.21,1.09,4.87,4.87,0,0,0,2.06-1.67c.44-.67.9-1.3,1.29-2C1091.39,434.22,1090.76,434.7,1090.09,435.12ZM995,618.94c-.19-.81-.28-1.58-.49-2.34a19.37,19.37,0,0,0-.46,2.34,4.28,4.28,0,0,1-.62,2,3.49,3.49,0,0,1-2.69,1.73c.81.37,1.62.74,2.43,1.07a4.76,4.76,0,0,0,1.64-2.18A4.94,4.94,0,0,0,995,618.94Zm100.38-139.43c-.18-.76-.28-1.53-.46-2.34a17.78,17.78,0,0,0-.49,2.34,4.5,4.5,0,0,1-.62,2,3.56,3.56,0,0,1-3.06,1.79,4.72,4.72,0,0,0-4.44,3,3.79,3.79,0,0,0-.23,2.57c.14.81.23,1.57.41,2.34a15.19,15.19,0,0,0,.49-2.34,4.58,4.58,0,0,1,.67-1.92,3.57,3.57,0,0,1,3.15-1.67,4.84,4.84,0,0,0,4.4-3.1A5.86,5.86,0,0,0,1095.39,479.51Zm-69.9,58.12a19.37,19.37,0,0,0-.46-2.34c-.21.76-.3,1.53-.49,2.34a4.52,4.52,0,0,1-.58,2,3.58,3.58,0,0,1-3.05,1.76,5,5,0,0,0-4.49,3,4.76,4.76,0,0,0-.23,2.57,23.53,23.53,0,0,0,.46,2.4,17.63,17.63,0,0,0,.49-2.4,3.87,3.87,0,0,1,.67-1.9,3.47,3.47,0,0,1,3.15-1.67,4.91,4.91,0,0,0,4.39-3.12A4.84,4.84,0,0,0,1025.49,537.63ZM1050.93,400c-.14-.83-.26-1.6-.44-2.36A17.29,17.29,0,0,0,1050,400a5.21,5.21,0,0,1-.63,2,3.56,3.56,0,0,1-3.05,1.78,4.83,4.83,0,0,0-4.45,3,4.54,4.54,0,0,0-.3,2.62c.19.76.3,1.52.49,2.33.23-.81.32-1.57.48-2.33a4.25,4.25,0,0,1,.65-1.95,3.7,3.7,0,0,1,3.17-1.69,4.8,4.8,0,0,0,4.4-3.1A4.94,4.94,0,0,0,1050.93,400Zm72.86,119.36a5.65,5.65,0,0,1-1.83,1,3.73,3.73,0,0,1-3.45-.93,4.83,4.83,0,0,0-5.21-1.08,4.27,4.27,0,0,0-2,1.66c-.44.67-.93,1.3-1.34,2,.71-.44,1.34-.91,2-1.35a4.36,4.36,0,0,1,1.8-.9,3.86,3.86,0,0,1,3.45,1,4.85,4.85,0,0,0,5.3.93,5.15,5.15,0,0,0,2-1.74c.42-.67.9-1.29,1.27-2C1125.06,518.42,1124.46,518.9,1123.79,519.32Zm9.65,49.28a4.47,4.47,0,0,1-1.92-.67,3.62,3.62,0,0,1-1.67-3.18,4.85,4.85,0,0,0-3.1-4.39,5.11,5.11,0,0,0-2.64-.14c-.76.14-1.52.25-2.33.44.81.23,1.57.32,2.33.46a5.28,5.28,0,0,1,2,.63,3.61,3.61,0,0,1,1.76,3,4.79,4.79,0,0,0,2.91,4.45,4.74,4.74,0,0,0,2.64.3c.81-.19,1.58-.3,2.34-.49A19.37,19.37,0,0,0,1133.44,568.6ZM988.6,523.12a4.64,4.64,0,0,1-1.92-.63,3.61,3.61,0,0,1-1.67-3.15,5,5,0,0,0-.88-2.68c-.32,1.32-.62,2.61-.92,3.93a4.82,4.82,0,0,0,2.8,3.24,4.65,4.65,0,0,0,2.59.24,22.23,22.23,0,0,0,2.38-.47C990.17,523.39,989.41,523.3,988.6,523.12Zm79.85,4.76a5,5,0,0,1-1.92-.62,3.66,3.66,0,0,1-1.67-3.15,4.84,4.84,0,0,0-3.1-4.4,4.24,4.24,0,0,0-2.59-.18c-.81.18-1.58.28-2.39.46a16.9,16.9,0,0,0,2.39.49,4.44,4.44,0,0,1,2,.58,3.59,3.59,0,0,1,1.75,3.05,4.9,4.9,0,0,0,3,4.49,4.58,4.58,0,0,0,2.59.23,18.24,18.24,0,0,0,2.38-.48C1070,528.16,1069.26,528.07,1068.45,527.88Zm-38.75,63.84a5.46,5.46,0,0,1-2-.67,3.71,3.71,0,0,1-1.67-3.17,4.75,4.75,0,0,0-3.1-4.38,5,5,0,0,0-2.59-.21c-.81.21-1.58.31-2.34.49.76.23,1.53.32,2.34.49a4.2,4.2,0,0,1,2,.6,3.68,3.68,0,0,1,1.81,3.08,4.76,4.76,0,0,0,2.92,4.44,4.7,4.7,0,0,0,2.63.23,19.09,19.09,0,0,0,2.34-.48C1031.23,592,1030.47,591.86,1029.7,591.72Zm57.77,24.42a4.55,4.55,0,0,1-2-.67,3.64,3.64,0,0,1-1.67-3.17,4.78,4.78,0,0,0-3.12-4.4,4.84,4.84,0,0,0-2.57-.14c-.77.14-1.58.25-2.34.44a21,21,0,0,0,2.34.46,5.2,5.2,0,0,1,2,.63,3.66,3.66,0,0,1,1.81,3.05,4.73,4.73,0,0,0,2.92,4.45,4.64,4.64,0,0,0,2.63.3c.77-.19,1.53-.3,2.34-.49A23.53,23.53,0,0,0,1087.47,616.14Zm-34.64-150.93a4.62,4.62,0,0,1-1.92-.67,3.6,3.6,0,0,1-1.67-3.17,4.64,4.64,0,0,0-5.69-4.54,20.27,20.27,0,0,0-2.39.49c.81.18,1.58.27,2.39.43a4.92,4.92,0,0,1,2,.61,3.68,3.68,0,0,1,1.76,3.07,4.85,4.85,0,0,0,3,4.45,4.62,4.62,0,0,0,2.6.28c.81-.19,1.57-.28,2.33-.49A19.21,19.21,0,0,0,1052.83,465.21Z"/><path class="cls-5" d="M1097.92,420.2c44.62,72.41,85.25,152.81,70.39,173.34-12,16.57-120.72,61-157,63.75-11.53.89-40.07-83.87-21-90.72,5.42-2,93.8-18.84,94.34-20.9,1.71-6.56-10.18-50.75-21.12-101.12C1049.47,379.75,1079.05,389.57,1097.92,420.2Z"/><path class="cls-5" d="M947.24,581.55c5.39-1.95,8.58-6.23-1.08-9.44s-50.68-7.72-47.89-21.88,59.67-4.35,76.22-.4a66.27,66.27,0,0,1,40.21,28.49C988.27,579.89,968.06,581.15,947.24,581.55Z"/><path class="cls-1" d="M916.58,542.8a134.92,134.92,0,0,1,16.46-.33c5.49.16,11,.68,16.41,1.36a129.28,129.28,0,0,1,31.9,8c-2.71-.51-5.33-1.27-8-1.72s-5.34-1.09-8-1.56c-5.38-.89-10.74-1.81-16.15-2.46s-10.81-1.3-16.23-1.88c-2.72-.28-5.43-.53-8.16-.74S919.32,543,916.58,542.8Z"/><rect class="cls-4" x="921.91" y="479.92" width="8.43" height="188.25" transform="translate(349.82 1498.77) rotate(-89.86)"/><polygon class="cls-1" points="832.01 569.6 831.99 578.03 959.95 578.35 953.52 569.9 832.01 569.6"/><polygon class="cls-4" points="945.38 578.31 761.91 577.86 746.94 453.22 930.41 453.67 945.38 578.31"/><path class="cls-6" d="M857.33,515.8a10.94,10.94,0,0,1-11,11.14A11.42,11.42,0,0,1,835,515.74a10.94,10.94,0,0,1,11-11.14A11.42,11.42,0,0,1,857.33,515.8Z"/><path class="cls-5" d="M1011.12,657.28c-32.35,1.84-78.83-2.93-109-23.82A18.17,18.17,0,0,1,894.8,624c-13.71-9.13-13.52-18.34-13.52-18.34-10.17-12.41-8.68-21.81-8.68-21.81s-16-10.88-11-21.63c5.55-12.08,26.9,5.58,44.58,8.1,40.51,5.79,100.51,8.58,112.36,9.09Z"/><path class="cls-1" d="M944.33,606.19c-11.89-2-23.62-3.54-35.18-7.08-12.69-3.89-24.24-9.76-36.16-15.44a.32.32,0,0,0-.32.56c19.94,13.69,47.44,21.89,71.58,22.5C944.83,606.74,944.93,606.28,944.33,606.19Z"/><path class="cls-1" d="M944.39,631.14c-11.47-2.53-31.58-7.1-63-25.86-.1-.06-.24.09-.13.18,18.75,14.88,39.44,23.07,63,26.23C945,631.79,945.15,631.31,944.39,631.14Z"/><path class="cls-1" d="M944.17,644.56c-19.33-5-30.88-10.68-49.31-20.64-.1,0-.23.11-.12.19,19.76,13.52,28.46,16.18,49.35,21.13C944.81,645.42,944.92,644.75,944.17,644.56Z"/><path class="cls-2" d="M1077.23,525.2l89.09,2.33s-46.77-84.27-72.64-115.64c-27-32.7-45.49-30.44-35.89,24.86C1067.24,491.23,1077.23,525.2,1077.23,525.2Z"/><path class="cls-6" d="M1143.65,488.12c-.4-.07-.79-.11-1.18-.21a4.83,4.83,0,0,1-2-.65,3.71,3.71,0,0,1-1.67-3.17,4.79,4.79,0,0,0-3.1-4.39,4.94,4.94,0,0,0-2.59-.19c-.81.19-1.57.28-2.34.49a19.76,19.76,0,0,0,2.34.46,4.1,4.1,0,0,1,2,.63,3.63,3.63,0,0,1,1.83,3.05,4.69,4.69,0,0,0,2.91,4.44,4.43,4.43,0,0,0,2.62.26c.46-.09,1-.16,1.43-.28a6.26,6.26,0,0,0,.91-.21C1144.41,488.26,1144,488.19,1143.65,488.12Zm-19.86,31.2a5.65,5.65,0,0,1-1.83,1,3.73,3.73,0,0,1-3.45-.93,4.83,4.83,0,0,0-5.21-1.08,4.27,4.27,0,0,0-2,1.66c-.44.67-.93,1.3-1.34,2,.71-.44,1.34-.91,2-1.35a4.36,4.36,0,0,1,1.8-.9,3.86,3.86,0,0,1,3.45,1,4.85,4.85,0,0,0,5.3.93,5.15,5.15,0,0,0,2-1.74c.42-.67.9-1.29,1.27-2C1125.06,518.42,1124.46,518.9,1123.79,519.32Zm-5.51-72.51a4.12,4.12,0,0,0-1,1.43,5,5,0,0,0-.23,2.59,22.36,22.36,0,0,0,.46,2.39,16.9,16.9,0,0,0,.49-2.39,4.09,4.09,0,0,1,.67-1.92,3.16,3.16,0,0,1,.53-.62C1118.93,447.8,1118.61,447.29,1118.28,446.81Zm-22.89,32.7c-.18-.76-.28-1.53-.46-2.34a17.78,17.78,0,0,0-.49,2.34,4.5,4.5,0,0,1-.62,2,3.56,3.56,0,0,1-3.06,1.79,4.72,4.72,0,0,0-4.44,3,3.79,3.79,0,0,0-.23,2.57c.14.81.23,1.57.41,2.34a15.19,15.19,0,0,0,.49-2.34,4.58,4.58,0,0,1,.67-1.92,3.57,3.57,0,0,1,3.15-1.67,4.84,4.84,0,0,0,4.4-3.1A5.86,5.86,0,0,0,1095.39,479.51Zm-5.3-44.39a4.34,4.34,0,0,1-1.81.9,3.52,3.52,0,0,1-3.4-1,4.85,4.85,0,0,0-5.3-.9,4.58,4.58,0,0,0-2,1.71c-.42.67-.95,1.3-1.35,2,.72-.44,1.35-.9,2-1.34a3.87,3.87,0,0,1,1.82-.95,3.56,3.56,0,0,1,3.43.86,4.73,4.73,0,0,0,5.21,1.09,4.87,4.87,0,0,0,2.06-1.67c.44-.67.9-1.3,1.29-2C1091.39,434.22,1090.76,434.7,1090.09,435.12Z"/><path class="cls-1" d="M1152,512.84c-2.23-.3-4.52-.28-6.76-.37l-6.94-.29c-4.68-.21-9.37-.33-14-.42-9.37-.2-18.73-.42-28.1-.46-2.57,0-5.15,0-7.72.05s-5.41.31-8.11.37c-.17,0-.15.25,0,.25,2.32.12,4.63.43,7,.56s4.76.24,7.13.31c4.69.13,9.37.24,14,.3,9.23.12,18.45.28,27.68.2l7.72-.08c2.69,0,5.44.1,8.12-.17C1152.16,513.08,1152.19,512.86,1152,512.84Z"/><path class="cls-1" d="M1136.78,479.69c-3.18-5.38-6.19-10.86-9.3-16.28-3.53-6.16-6.84-12.43-10.27-18.64-.09-.15.18-.31.27-.15,4.07,6.53,17.79,28.29,20,32q9.75,16.23,19.4,32.5c3.58,6.09,7.57,13.17,11.12,19.28.25.44-7-.08-10.78-.46-.2,0-.44-.65-.2-.64,3.55.11,8.34-.31,8.82-.26q-9.83-15.35-19.24-30.94Q1141.64,487.92,1136.78,479.69Z"/><path class="cls-1" d="M1066.28,483.6a26.81,26.81,0,0,1-3.72-9.62.06.06,0,0,1,.11,0,55.7,55.7,0,0,0,3.4,8.58c-.25-1.24-.5-2.48-.74-3.71-.89-4.48-1.79-8.94-2.45-13.45,0-.07.1-.11.12,0,2.06,7.69,3.78,15.47,5.67,23.2s3.79,15.69,5.66,23.54c1,4.28,2.05,8.56,3,12.86,1.44.15,2.58.13,3.85.28a.33.33,0,0,1,0,.65,25.33,25.33,0,0,1-4.84-.19C1072.18,511.87,1069.12,497.73,1066.28,483.6Z"/><path class="cls-5" d="M1028,426.2c11.17,1.77,28.75-16.42,35.16-30.58.44-1-1.73-10.68-3.8-22.61-1.23-7.25-2.43-15.34-3-22.81l-46,14.9s5.78,15.3,6.68,28.33a16.44,16.44,0,0,1-.09,3.08c0,.15,0,.32,0,.52C1016.41,402.92,1017.17,424.48,1028,426.2Z"/><path class="cls-1" d="M1053.1,351.26c-.62,10-4.67,43-31.34,45.65a26.6,26.6,0,0,1-4.84.11,4.62,4.62,0,0,0,0-.5,15.08,15.08,0,0,0,.1-3.1c-.89-13-6.67-28.33-6.67-28.33Z"/><path class="cls-5" d="M1049.09,289.32c8.8,15,11.39,63.85,2.35,77-13.1,19.1-40.1,27.06-57.73,10-17.09-16.49-19.34-80.19-8.73-92.73C1000.61,265.18,1036.09,267.14,1049.09,289.32Z"/><path class="cls-1" d="M1011.44,329.38c0-.12.27.14.27.28.09,3.29.74,7,3.78,8,.09,0,.09.19,0,.19C1011.81,337.51,1011,332.52,1011.44,329.38Z"/><path class="cls-1" d="M1014.18,325.78c5.27-.71,6.29,9.87,1.42,10.53S1009.77,326.37,1014.18,325.78Z"/><path class="cls-1" d="M991.92,330.61c0-.13-.24.18-.22.31.42,3.27.35,7.08-2.5,8.46-.09,0-.07.2,0,.18C992.81,338.7,992.85,333.63,991.92,330.61Z"/><path class="cls-1" d="M988.66,327.47c-5.31.11-4.69,10.72.23,10.62S993.11,327.37,988.66,327.47Z"/><path class="cls-1" d="M1017.89,320.54c-1.48-.23-2.8-.68-4.24-1.05-1.62-.42-3-.59-4.12-1.89a2.25,2.25,0,0,1,.09-2.74c1.46-1.56,3.57-1.54,5.54-1.12a8.16,8.16,0,0,1,5,3.07C1021.53,318.46,1019.83,320.83,1017.89,320.54Z"/><path class="cls-1" d="M984.05,322.54c1.45-.39,2.71-1,4.1-1.5,1.57-.6,2.88-.91,3.89-2.33a2.25,2.25,0,0,0-.39-2.72c-1.61-1.39-3.71-1.14-5.63-.5a8.14,8.14,0,0,0-4.67,3.6C980.21,320.87,982.15,323,984.05,322.54Z"/><path class="cls-1" d="M1016.87,359.05c-.71.84-1.39,2-2.57,2.19a8.52,8.52,0,0,1-3.6-.48c-.11,0-.21.09-.13.18a4.43,4.43,0,0,0,4.33,1.38c1.46-.41,2.07-1.76,2.3-3.15C1017.23,359,1017,358.93,1016.87,359.05Z"/><path class="cls-1" d="M1012.47,349.57a11.22,11.22,0,0,1-7,5.69,13.7,13.7,0,0,1-4,.57,3.38,3.38,0,0,1-.78,0,6.29,6.29,0,0,1-.73,0,.82.82,0,0,1-.73-.67v0a1.93,1.93,0,0,1,0-.34v0l0-.28c-.32-2.52-.45-6.38-.45-6.38-.87.55-5.37,3.12-5.42,1.79-.41-11-.87-23.18,1-34.2a.31.31,0,0,1,.61,0c.81,10.54-.24,21.14.41,31.74,1.44-.72,3.79-2,5.11-2.11.37.07.12,7.47.35,8.59a.34.34,0,0,0,0,.12c4.29.13,7.37-1.47,11.21-4.71C1012.36,349.1,1012.64,349.29,1012.47,349.57Z"/><path class="cls-1" d="M992.42,295.69a18.54,18.54,0,0,0,17.32,5.06c6.11-1.44,11.93-6.15,13.71-12.29a.15.15,0,0,1,.29.09c-1.91,6.56-6.72,12.2-13.63,13.66a19.08,19.08,0,0,1-18-6.2C991.9,295.79,992.21,295.48,992.42,295.69Z"/><path class="cls-1" d="M1007.18,254.55c7.49-2.76,16.24.18,21.35,6.08a27.31,27.31,0,0,1,5.83,12.39.14.14,0,0,1-.28.07c-2-7.12-7.16-14-14.19-16.73-6.77-2.58-14.11-1.26-19,4.25a16.94,16.94,0,0,0-4.26,10.45.34.34,0,0,1-.67,0A17.33,17.33,0,0,1,1007.18,254.55Z"/><path class="cls-1" d="M951.07,277.48a22.37,22.37,0,0,1,8.66-12.69c5.94-4.29,13-4.23,20-4a.15.15,0,0,1,0,.29c-6-.15-12,0-17.31,3.22a22,22,0,0,0-9.39,11.41,21.47,21.47,0,0,0,10.77,25.95,21.79,21.79,0,0,0,17.27.51c.22-.08.4.23.18.33-10,4.35-22.46.53-27.84-9.11A22.31,22.31,0,0,1,951.07,277.48Z"/><path class="cls-1" d="M1051.31,291.66s-2.19-14.8-6.45-19-12.9-4.5-12.9-4.5-6.1-12.15-18.19-11.91c-10.85.22-17.29,10.38-17.29,10.38s-16.24-13.48-32.56-3.54c-15.47,9.44-11.22,33.91,5.16,40.39,11.5,4.55,25.81-6.41,25.81-6.41,1.46.08,17,7.89,27.17-6.19,0,0,10.8,7,16.13.94C1038.19,291.81,1046.29,294.8,1051.31,291.66Z"/><path class="cls-1" d="M1057,330.71c-3-1.8-9.55-13.82-12.51-18.82-2.69-4.53-4.63-23.73-5.43-33.31a34.28,34.28,0,0,1,10,10.74C1053.7,297.18,1056.61,314.29,1057,330.71Z"/><path class="cls-5" d="M1048.17,329.84s7.33-17.51,15-15.22,4.51,26.07-2.94,30.84a8.42,8.42,0,0,1-12-2Z"/><path class="cls-1" d="M1062.13,321.42c.12,0,.19.13.09.2-5.18,3.53-7,9.45-7.94,15.36,1.24-2.47,3.28-4.12,6.54-2.72.17.08.07.34-.09.34-2.44,0-4,.77-5.19,3a24.33,24.33,0,0,0-1.69,5.09c-.16.56-1.14.49-1.07-.14,0,0,0-.09,0-.14C1051.08,335.18,1054.51,323.83,1062.13,321.42Z"/><path class="cls-4" d="M1016.87,396l15.29,25.81,28.77-39.75,11.31,9.65s-24.94,60-25.53,57.57l-14.84-21.88-13.8,18.87-4.9-41.39Z"/><path class="cls-1" d="M1014.49,426c-.58-6.86-1.35-13.76-1.62-20.64,0-.24.35-.41.46-.13,2.35,6.35,4.43,32.6,5.4,38.82l.06-.08c.57-.81,12.91-16.71,13.08-16.52,3,3.38,13.88,19.3,14.69,20.78,3.93-9.53,19.29-44.34,24.27-53.54a.24.24,0,0,1,.44.17c-3.25,9.93-23.46,56.73-23.89,56.67-.25.26-13.73-19.34-15.56-23.15-2,3.36-14.19,21.05-14.39,20.05A219.84,219.84,0,0,1,1014.49,426Z"/></svg>