<svg id="Слой_1" data-name="Слой 1" xmlns="http://www.w3.org/2000/svg" xmlns:xlink="http://www.w3.org/1999/xlink" viewBox="0 0 1800 1000"><defs><style>.cls-1{fill:none;}.cls-2{clip-path:url(#clip-path);}.cls-3{fill:#306;}.cls-17,.cls-18,.cls-19,.cls-20,.cls-4{fill:#ffc800;}.cls-13,.cls-5{fill:#fff;}.cls-6{fill:#4a148c;}.cls-7{fill:#c8c8c8;}.cls-8{opacity:0.7;}.cls-10,.cls-9{fill:#dcdcdc;}.cls-10,.cls-17,.cls-22{opacity:0.8;}.cls-11{fill:#c36358;}.cls-12{fill:#ff99bc;}.cls-13{opacity:0.3;}.cls-14{fill:#010000;}.cls-14,.cls-15,.cls-21{opacity:0.1;}.cls-16{fill:#ff9581;}.cls-18,.cls-23{opacity:0.6;}.cls-19,.cls-24{opacity:0.4;}.cls-20,.cls-25{opacity:0.2;}.cls-26{fill:#ff9bbe;}</style><clipPath id="clip-path"><rect class="cls-1" x="-30.5" y="-22.5" width="1875" height="1047"/></clipPath></defs><g class="cls-2"><path class="cls-3" d="M209.19,432.06s-.51,28.95-19.05,61.79H164C145.49,461,145,432.06,145,432.06c26.82-15,27.52-48.56,27.52-48.56h2.71v53.15a8.19,8.19,0,1,0,3.75,0V383.5h2.71S182.37,417.07,209.19,432.06Z"/><rect class="cls-4" x="157.79" y="490.67" width="38.58" height="16.24"/><path class="cls-3" d="M266.66,470.38h-2.6a87,87,0,1,0-173.95,0h-2.6a89.58,89.58,0,1,1,179.15,0Z"/><rect class="cls-3" x="86.79" y="379.72" width="178.57" height="2.6"/><rect class="cls-5" x="79.63" y="461.19" width="18.37" height="18.37"/><path class="cls-3" d="M99.29,480.86h-21v-21h21Zm-18.36-2.6H96.69V462.49H80.93Z"/><rect class="cls-5" x="79.63" y="371.84" width="18.37" height="18.37"/><path class="cls-3" d="M99.29,391.51h-21v-21h21Zm-18.36-2.6H96.69V373.14H80.93Z"/><rect class="cls-5" x="256.18" y="461.19" width="18.37" height="18.37"/><path class="cls-3" d="M275.85,480.86h-21v-21h21Zm-18.37-2.6h15.76V462.49H257.48Z"/><rect class="cls-5" x="256.18" y="371.84" width="18.37" height="18.37"/><path class="cls-3" d="M275.85,391.51h-21v-21h21Zm-18.37-2.6h15.76V373.14H257.48Z"/><path class="cls-3" d="M1605.12,768.53s-55.66-7.79-42.65-75C1562.47,693.54,1624.66,707.5,1605.12,768.53Z"/><path class="cls-4" d="M1605.12,768.53s-55.66-7.79-42.65-75C1562.47,693.54,1624.66,707.5,1605.12,768.53Z"/><path class="cls-6" d="M1602.31,754.5c-1.09-3.4-2.37-6.73-3.79-10,0-.43-.11-.86-.15-1.27-.08-.93-.15-1.85-.23-2.78q-.23-3-.4-6c-.23-4-.49-8-.55-12a.17.17,0,0,0-.34,0c0,4-.1,8,.06,12.06q.12,3,.32,6c0,.45.07.9.1,1.34a118.84,118.84,0,0,0-11.16-19.08c-1.91-2.68-3.93-5.25-6.09-7.72s-4.56-5-6.81-7.47c-.14-.17-.38.08-.23.24A100.16,100.16,0,0,1,1583.77,722q2.54,3.86,4.81,7.86l-.52-.2c-.66-.27-1.32-.55-2-.8-1.51-.58-3-1.16-4.54-1.72-3-1.11-6-2.2-9-3.33-.18-.07-.31.24-.13.31,3,1.18,5.89,2.43,8.82,3.69l4.31,1.86c.72.31,1.44.6,2.17.89a6.87,6.87,0,0,0,1.48.52c1.12,2,2.23,4,3.26,6.1a147.74,147.74,0,0,1,6.8,16c.13.39.27.77.4,1.16a32.3,32.3,0,0,0-4.56-2.2c-1.92-.89-3.85-1.75-5.76-2.63-3.91-1.79-7.79-3.61-11.53-5.73a.17.17,0,0,0-.16.3c3.82,2.09,7.57,4.31,11.4,6.39,1.92,1,3.84,2.06,5.81,3,1.61.77,3.42,1.86,5.22,2.09a65.29,65.29,0,0,1,3.65,15.79c.62,7.6.55,15.26.73,22.87a.1.1,0,1,0,.2,0c.56-6.91.87-13.88.9-20.82A60.52,60.52,0,0,0,1602.31,754.5Z"/><path class="cls-6" d="M1593.74,715a66.15,66.15,0,0,0-.56,11.85.09.09,0,0,0,.17,0c.23-3.93.26-7.85.72-11.76C1594.09,714.85,1593.76,714.77,1593.74,715Z"/><path class="cls-6" d="M1577.82,718.35a43.62,43.62,0,0,1-7.16-3.52c-.18-.12-.35.18-.16.3a27.5,27.5,0,0,0,7.23,3.46C1577.86,718.62,1578,718.41,1577.82,718.35Z"/><path class="cls-6" d="M1606.9,875.21c-.05-6.15-.16-12.3-.24-18.45-.11-20.43-.28-40.86-.65-61.28q-.43-24.33-1.13-48.65a.26.26,0,0,0-.14-.21q0-6.63-.07-13.28c0-.11-.13-.17-.26-.17s-.27.06-.27.18q0,6.64-.08,13.31c-.07.05-.13.1-.13.19-.82,28.86-1.55,57.73-1.72,86.59,0,5.87,0,11.74-.06,17.61q-.29,28.23-.21,56.47c0,3-.06,6-.07,9-.06,17.22.18,34.44.18,51.66,0,.93,1,1.39,2.13,1.43s2.58-.44,2.58-1.5c0-19,.13-38,.12-57C1606.94,899.15,1607,887.18,1606.9,875.21Z"/><path class="cls-4" d="M1583.65,856.53s-26.77-19.84-52.18-6.44-29.4,65.07-29.4,65.07,37.31,5.34,60.81-17C1585.53,876.58,1583.65,856.53,1583.65,856.53Z"/><path class="cls-6" d="M1591,857.75a32.06,32.06,0,0,0-15.51-2,24.12,24.12,0,0,0-3.28-.32l-3.77-.28c-2.61-.2-5.21-.36-7.81-.55-5.28-.4-10.58-.72-15.85-1.25-.19,0-.23.31,0,.34,5.22.66,10.41,1.41,15.64,1.93,2.69.28,5.39.55,8.08.75.64,0,1.3.11,2,.19-.8.18-1.59.36-2.37.59a63.11,63.11,0,0,0-12.13,4.93c-2.11.38-4.21,1-6.28,1.45-3.31.78-6.61,1.64-9.9,2.5-6.5,1.7-12.94,3.62-19.39,5.5-.21.06-.11.37.1.32,6.45-1.58,12.93-3,19.39-4.57,3.14-.74,6.28-1.48,9.41-2.25.81-.2,1.64-.38,2.46-.57a78.42,78.42,0,0,0-19,16.55,103.15,103.15,0,0,0-13.22,20.86c-.1.19.17.37.28.18a101.51,101.51,0,0,1,16-21c-.12.36-.24.71-.35,1.07l-1.49,4.73c-1,3.15-2,6.3-2.94,9.47-.06.21.26.28.33.08,1.13-3.05,2.2-6.13,3.28-9.2l1.59-4.52c.28-.78.54-1.57.8-2.35.08-.24.18-.48.26-.72a93.16,93.16,0,0,1,9.5-8.09,71.78,71.78,0,0,1,14.21-8.15c-.09.46-.18.93-.27,1.37-.26,1.22-.54,2.44-.79,3.66-.52,2.54-1,5.08-1.51,7.62-1,5.18-1.63,10.43-2.6,15.61,0,.21.28.3.33.08,1.2-5.21,2.74-10.34,3.91-15.56.58-2.61,1.17-5.22,1.71-7.84.25-1.22.49-2.45.74-3.67.14-.69.3-1.37.38-2.05.49-.2,1-.42,1.45-.6,7-2.6,14.79-4.49,22.28-3.06a21.91,21.91,0,0,1,16.11,12.92c.25.58,1.17.22,1-.38C1602.2,865,1596.83,860.22,1591,857.75Z"/><path class="cls-6" d="M1550,879.81q-1.14,5.09-2.26,10.18a76.06,76.06,0,0,0-1.87,9.9c0,.13.18.13.22,0a76.57,76.57,0,0,0,2.27-10q1-5,2-10C1550.33,879.68,1550,879.6,1550,879.81Z"/><path class="cls-6" d="M1524.07,888.44c-3.41,1.73-6.72,3.69-10.28,5.11a.17.17,0,1,0,.14.31,110.94,110.94,0,0,0,10.22-5.29A.08.08,0,0,0,1524.07,888.44Z"/><path class="cls-4" d="M1589.67,820.09s-32.72,2.09-47.94-19.49-11.81-52.39-11.81-52.39,34.37,4.18,48,19.67S1589.67,820.09,1589.67,820.09Z"/><path class="cls-6" d="M1605,852.38c-1.13-3.5-2.54-7-3.86-10.4s-2.63-6.57-4.07-9.8a202.94,202.94,0,0,0-9.81-19.28c-2.31-4-4.78-7.83-7.33-11.64,0-.58-.17-1.16-.26-1.74-.15-1-.29-2-.45-3-.33-2.07-.69-4.14-1-6.21-.75-4.51-1.68-9-2.4-13.53,0-.21-.37-.21-.34,0,.66,4.46,1.11,9,1.73,13.43.31,2.19.6,4.39.93,6.58.12.79.25,1.58.37,2.38a234,234,0,0,0-16.18-21c-.79-.9-1.59-1.79-2.39-2.67-.08-.25-.21-.5-.3-.75-.25-.62-.48-1.25-.72-1.88-.48-1.29-1-2.6-1.41-3.9-.92-2.56-1.75-5.15-2.44-7.78-.06-.21-.38-.11-.33.1.66,2.68,1.36,5.37,2.15,8,.38,1.28.8,2.54,1.25,3.8l.23.63c-4.18-4.56-8.54-9-12.95-13.29a.17.17,0,1,0-.23.24,235,235,0,0,1,23.18,28.41,21.49,21.49,0,0,0-2.42-.62c-2.52-.49-5.06-.84-7.6-1.17-5.34-.68-10.65-1.35-16-2.19-.22,0-.3.29-.09.33,5.08,1,10.1,2.14,15.14,3.3,2.37.55,4.76,1,7.15,1.48a46.54,46.54,0,0,1,5.74,1.64c.53.76,1.08,1.5,1.6,2.26,2.4,3.5,4.71,7.07,7,10.66l-3.33-.65q-3.79-.74-7.61-1.37c-5-.82-10-1.69-14.92-2.81a.17.17,0,0,0-.08.33c5,1.18,10,2.55,14.93,3.87,2.39.64,4.81,1.22,7.23,1.76,1.21.26,2.42.53,3.64.78a7.54,7.54,0,0,0,1.47.25q7.17,11.64,13.42,23.79c1.83,3.56,3.58,7.15,5.29,10.77s3.24,7.51,4.86,11.28C1604.1,853.52,1605.3,853.21,1605,852.38Z"/><path class="cls-6" d="M1571.54,777.18c-.63-3.13-1.29-6.24-2-9.35,0-.21-.37-.11-.32.1q.93,4.61,1.76,9.22c.56,3.05,1,6.18,1.86,9.17a.05.05,0,0,0,.1,0A63.82,63.82,0,0,0,1571.54,777.18Z"/><path class="cls-6" d="M1552.45,776.27c-1.52-.76-3.12-1.37-4.7-2l-2.49-1-1.26-.5a5.91,5.91,0,0,1-1.38-.61c-.25-.18-.41.25-.16.29a6.24,6.24,0,0,1,1.4.57l1.24.56,2.39,1.06a43.67,43.67,0,0,0,4.83,1.91C1552.51,776.66,1552.63,776.36,1552.45,776.27Z"/><path class="cls-4" d="M1623.17,794.36s19.8-37,49.93-42.72,48.57,25.27,48.57,25.27-22,28.07-49.62,33S1623.17,794.36,1623.17,794.36Z"/><path class="cls-6" d="M1693.29,768.22a81.74,81.74,0,0,0-23.63.28q.67-.37,1.35-.72,3.35-1.69,6.68-3.44c4.63-2.41,9.3-5,14.15-6.91a.17.17,0,1,0-.14-.31c-4.71,2.2-9.6,4-14.33,6.21-2.36,1.09-4.69,2.22-7,3.44-1.48.79-3.13,1.53-4.59,2.48a82.85,82.85,0,0,0-19.15,6.36c1.26-1.37,2.52-2.73,3.77-4.1,2.8-3.08,5.57-6.31,8.65-9.11.16-.14-.08-.38-.24-.23-3.16,2.86-6.49,5.51-9.54,8.49-1.49,1.45-2.91,2.94-4.29,4.48-.69.77-1.38,1.57-2,2.39a79.36,79.36,0,0,0-40.39,54.54c0,.21.26.32.32.11A91.08,91.08,0,0,1,1625,794.7a87.09,87.09,0,0,1,40.36-23.35,88.35,88.35,0,0,1,27.86-2.53A.3.3,0,0,0,1693.29,768.22Z"/><path class="cls-4" d="M1721.68,776.92s-22,28.07-49.64,33c-21.09,3.74-38.44-7.26-45.48-12.68l-1.53-2.5s14.27-12,41.25-19S1721.68,776.92,1721.68,776.92Z"/><path class="cls-6" d="M1675.79,755a78.1,78.1,0,0,0-6.69,4.42,43,43,0,0,0-5.81,5.32.18.18,0,0,0,.26.24c2-1.73,4-3.47,6.09-5.12a64.78,64.78,0,0,1,6.33-4.57C1676.16,755.21,1676,754.92,1675.79,755Z"/><path class="cls-6" d="M1692.33,761.29c-1.12.47-2.26.87-3.37,1.34L1685.6,764c-.24.1-.12.49.12.39l3.36-1.37c1.13-.45,2.22-1,3.35-1.42C1692.63,761.54,1692.53,761.21,1692.33,761.29Z"/><path class="cls-4" d="M1619.22,840.92s5.29,36.7,32.88,49.53,61.24,0,61.24,0S1700.11,811.06,1619.22,840.92Z"/><path class="cls-6" d="M1694.32,866.58c-2.54-.29-5.07-.72-7.59-1.18l-3.71-.7c-.63-.13-1.28-.28-1.94-.39-.74-.69-1.47-1.4-2.23-2.07A112,112,0,0,0,1662,850a93.61,93.61,0,0,0-10.11-5.2l.52,0,9.08.4c6.06.28,12.11.41,18.16.8.22,0,.21-.32,0-.34-6.08-.41-12.12-1.08-18.19-1.6l-8.82-.78-4.55-.4c-.39,0-.78-.08-1.16-.12-1.58-.59-3.16-1.14-4.77-1.64-7.54-2.34-15.64-3.27-23.37-1.29-6.94,1.78-13.87,6.32-15.67,13.64-.06.26.33.43.44.18,2.59-6.12,9.38-9.2,15.51-10.47a36.63,36.63,0,0,1,12.49-.24,30,30,0,0,0,1.39,5.54c.77,2.58,1.52,5.17,2.3,7.75,1.57,5.15,3.29,10.26,4.82,15.42.06.21.37.11.32-.1-1.28-5.15-2.36-10.35-3.6-15.5-.61-2.54-1.25-5.07-1.88-7.6a42.9,42.9,0,0,0-1.39-5.21,63.19,63.19,0,0,1,7.16,1.69,104.25,104.25,0,0,1,12.51,4.58c.4,2.61,1,5.21,1.59,7.78.75,3.24,1.59,6.45,2.62,9.62a.16.16,0,0,0,.31-.09l-.12-.6h0c-.62-3-1.28-6-1.91-9-.51-2.42-1-4.85-1.51-7.26a111.63,111.63,0,0,1,10.06,5.1c.07.74.25,1.51.36,2.19.2,1.26.43,2.51.66,3.77.52,2.83,1.08,5.65,1.76,8.45a132.12,132.12,0,0,0,4.74,16,.18.18,0,0,0,0,.22l.15.18c.12.14.32,0,.28-.17-1.28-5.44-2.73-10.83-3.93-16.29-.59-2.73-1.2-5.45-1.74-8.19-.28-1.36-.53-2.73-.79-4.1-.07-.39-.12-.81-.19-1.23a115.58,115.58,0,0,1,27.2,22.18c.19.22.58-.09.4-.33a100.83,100.83,0,0,0-6.58-8c-1.38-1.49-2.82-2.93-4.29-4.33l.45.08c1.3.21,2.59.41,3.89.58,2.55.34,5.11.59,7.67.88C1694.46,866.94,1694.54,866.61,1694.32,866.58Z"/><path class="cls-6" d="M1674.93,879h0c0-.32-.1-.63-.16-.95s-.27-.79-.33-1.2h0c-.57-2.45-1-4.92-1.49-7.4,0-.18-.31-.13-.3,0a30,30,0,0,0,2.1,9.58c0,.1.21.09.19,0Z"/><path class="cls-6" d="M1651.83,878.44a.15.15,0,0,0-.16-.16c-.77-3.25-1.52-6.5-2.19-9.77-.35-1.72-.71-3.44-1-5.17-.18-.92-.35-1.85-.51-2.78a8.39,8.39,0,0,0-.6-2.39.17.17,0,0,0-.31.05c-.23,1.54.41,3.41.69,4.92.34,1.79.69,3.58,1.08,5.36.8,3.62,1.71,7.23,2.73,10.79.06.2.39.16.37-.06Z"/><path class="cls-6" d="M1691.81,856c-5-.69-10.08-1.42-15.13-2-.21,0-.3.3-.08.33,5,.74,10.08,1.37,15.13,2C1691.94,856.37,1692,856,1691.81,856Z"/><path class="cls-4" d="M1605.08,754.86s-16.89-74.08,62.71-104.06C1667.79,650.8,1689.84,748.31,1605.08,754.86Z"/><path class="cls-6" d="M1622.26,712.84l.85-.52c1.51-.82,3-1.67,4.5-2.51l9.23-5.16c6.08-3.4,12.08-6.94,18.19-10.26.19-.11,0-.39-.18-.29-6.12,3.33-12.36,6.45-18.52,9.71l-9.13,4.82-3.72,2c2.65-5,5.49-10,8.6-14.73,4.16-6.34,8.72-12.39,13.47-18.3a.27.27,0,0,0-.4-.37,126.45,126.45,0,0,0-18.4,22.56c0-.26,0-.53,0-.77.09-1.85.13-3.69.16-5.53,0-3.62-.12-7.24,0-10.85,0-.22-.33-.21-.34,0-.15,3.55-.58,7.1-.78,10.66-.1,1.78-.18,3.55-.23,5.33,0,1-.12,2-.08,3.1-1.64,2.61-3.22,5.26-4.71,7.94a138,138,0,0,0-7.11,14.92c-.08-1.85-.19-3.69-.3-5.53-.24-4.06-.73-8.1-.9-12.16a.17.17,0,0,0-.34,0c.08,4.06-.11,8.12,0,12.18.06,2,.12,4,.26,6.08,0,.74.08,1.5.14,2.26a133.73,133.73,0,0,0-6,20.35c-1.56,7.42-2.19,14.86-3,22.37,0,.06.08.06.08,0a120.32,120.32,0,0,1,4.23-19.94q1.47-5.25,3.14-10.43c3.32-1.56,6.48-3.51,9.68-5.28s6.66-3.64,10-5.46c6.64-3.64,13.27-7.35,20.12-10.57.2-.09,0-.38-.18-.29-6.94,3.14-13.93,6.13-20.74,9.56-3.39,1.7-6.73,3.52-10,5.38-2.76,1.56-5.6,3.12-8.24,4.91.77-2.3,1.58-4.6,2.46-6.87A196.73,196.73,0,0,1,1622.26,712.84Z"/><path class="cls-6" d="M1615.55,695.91a.17.17,0,0,0-.34,0c.29,4.22.43,8.45.88,12.66a.19.19,0,0,0,.37,0C1616.31,704.33,1615.86,700.13,1615.55,695.91Z"/><path class="cls-6" d="M1653.71,710.05c-5,2-10,3.91-15,6-.14.06-.08.28.06.23,5-1.89,10-3.94,15-5.89C1654,710.3,1653.91,710,1653.71,710.05Z"/><path class="cls-6" d="M1661.27,675.89a130.81,130.81,0,0,0-14.15,7.59.21.21,0,0,0,.22.36c4.62-2.7,9.32-5.29,14.11-7.66C1661.65,676.08,1661.47,675.8,1661.27,675.89Z"/><rect class="cls-7" x="1545.29" y="915.05" width="114.79" height="120.99"/><rect class="cls-6" x="1537.39" y="957.86" width="5.87" height="207.24"/><rect class="cls-6" x="1661.48" y="957.86" width="5.87" height="207.24"/><rect class="cls-6" x="1602.56" y="957.86" width="5.87" height="207.24"/><g class="cls-8"><path class="cls-9" d="M186.58,671.26v493.83H679.7ZM277,895l179.8,179.8H277.26Z"/><path class="cls-10" d="M186.58,671.27V1165.1H679.69L204,688.68l-2.19-2.19ZM277,895l179.8,179.8H277.26Z"/><rect class="cls-3" x="186.58" y="692.12" width="16.95" height="2.36"/><rect class="cls-3" x="186.58" y="703.1" width="9.99" height="2.36"/><rect class="cls-3" x="186.58" y="714.05" width="9.99" height="2.36"/><rect class="cls-3" x="186.58" y="725.03" width="9.99" height="2.36"/><rect class="cls-3" x="186.58" y="736.01" width="9.99" height="2.36"/><rect class="cls-3" x="186.58" y="746.95" width="9.99" height="2.4"/><rect class="cls-3" x="186.58" y="757.93" width="9.99" height="2.36"/><rect class="cls-3" x="186.58" y="768.91" width="16.95" height="2.36"/><rect class="cls-3" x="186.58" y="779.89" width="9.99" height="2.36"/><rect class="cls-3" x="186.58" y="790.84" width="9.99" height="2.36"/><rect class="cls-3" x="186.58" y="801.82" width="9.99" height="2.36"/><rect class="cls-3" x="186.58" y="812.8" width="9.99" height="2.36"/><rect class="cls-3" x="186.58" y="823.74" width="9.99" height="2.36"/><rect class="cls-3" x="186.58" y="834.72" width="9.99" height="2.36"/><rect class="cls-3" x="186.58" y="845.7" width="16.95" height="2.36"/><rect class="cls-3" x="186.58" y="856.65" width="9.99" height="2.36"/><rect class="cls-3" x="186.58" y="867.63" width="9.99" height="2.36"/><rect class="cls-3" x="186.58" y="878.61" width="9.99" height="2.36"/><rect class="cls-3" x="186.58" y="889.55" width="9.99" height="2.4"/><rect class="cls-3" x="186.58" y="900.54" width="9.99" height="2.36"/><rect class="cls-3" x="186.58" y="911.52" width="9.99" height="2.36"/><rect class="cls-3" x="186.58" y="922.5" width="16.95" height="2.36"/><rect class="cls-3" x="186.58" y="933.44" width="9.99" height="2.36"/><rect class="cls-3" x="186.58" y="944.42" width="9.99" height="2.36"/><rect class="cls-3" x="186.58" y="955.4" width="9.99" height="2.36"/><rect class="cls-3" x="186.58" y="966.35" width="9.99" height="2.36"/><rect class="cls-3" x="186.58" y="977.33" width="9.99" height="2.36"/><rect class="cls-3" x="186.58" y="988.31" width="9.99" height="2.36"/><rect class="cls-3" x="186.58" y="999.25" width="16.95" height="2.4"/></g><rect class="cls-9" x="338.2" y="314.36" width="1192.84" height="797.93"/><rect class="cls-3" x="346.87" y="324.1" width="1175.51" height="778.46"/><rect class="cls-5" x="398.92" y="374.14" width="1071.4" height="678.38"/><path class="cls-4" d="M549.73,724.54V595.08A12,12,0,0,1,561.8,583H593a41.69,41.69,0,0,1,33.36,66.7,47,47,0,0,1-24.8,86.9H562.68a.22.22,0,0,1-.22-.22c-.44,0-.44.22-.66.22A12.18,12.18,0,0,1,549.73,724.54Zm24.36-82.07H593A17.61,17.61,0,0,0,610.3,624.7,17.23,17.23,0,0,0,593,607.36H574.09Zm0,69.78h27.43a22.71,22.71,0,0,0,0-45.42H574.09Z"/><path class="cls-3" d="M803.62,718.4a12.11,12.11,0,0,1-7.68,15.36,19.39,19.39,0,0,1-4.83.65h-.22a15.88,15.88,0,0,1-8.55-2.41,21.54,21.54,0,0,1-7-7.68c-3.07-6.36-4.6-14.26-4.6-26.33a18.52,18.52,0,0,0-2.64-9.44c-1.31-2.41-4-4.6-6.58-6.36a41.83,41.83,0,0,0-12.29-5.27H723.31v47.62A12.23,12.23,0,0,1,711,736.61,12,12,0,0,1,699,724.54V595.08A11.9,11.9,0,0,1,711,583H750.3a46.92,46.92,0,0,1,29.84,83.16,34.11,34.11,0,0,1,7.68,8.12,41.53,41.53,0,0,1,7.24,23.7,55.31,55.31,0,0,0,.88,13A11.81,11.81,0,0,1,803.62,718.4ZM772.9,630.18a22.62,22.62,0,0,0-22.6-22.82h-27v45.21h27A22.53,22.53,0,0,0,772.9,630.18Z"/><path class="cls-3" d="M939.45,700.4H886.13l-10.75,28.53A12.32,12.32,0,0,1,864,736.61a12.75,12.75,0,0,1-4.17-.66,12.45,12.45,0,0,1-7.24-15.8l48.49-129.24a12.27,12.27,0,0,1,11.63-7.68,12.06,12.06,0,0,1,11.63,7.68L972.8,720.15a12.44,12.44,0,0,1-7.23,15.8,12.29,12.29,0,0,1-15.37-7Zm-9-24.13-17.78-47.18-17.77,47.18Z"/><path class="cls-3" d="M1049,724.54a12,12,0,1,1-23.92,0V596.83a11.86,11.86,0,0,1,4.83-10.09c5.49-3.73,13-2.64,16.68,2.63l70.87,98.09V597.05a12,12,0,0,1,11.85-11.85,12.13,12.13,0,0,1,12.07,11.85V724.54a12.18,12.18,0,0,1-12.07,12.07,11.89,11.89,0,0,1-9-4.39,5.83,5.83,0,0,1-1.1-1.32L1049,633.48Z"/><path class="cls-3" d="M1205,724.54V595.08A11.9,11.9,0,0,1,1217,583h25.89a76.66,76.66,0,0,1,76.59,76.58c0,42.57-34.24,77-76.59,77H1217A12,12,0,0,1,1205,724.54Zm24.36-12.29h13.6a52.45,52.45,0,0,0,0-104.89h-13.6Z"/><path class="cls-3" d="M989.34,657.86h-2.23a74.43,74.43,0,0,0-148.86,0H836a76.66,76.66,0,0,1,153.32,0Z"/><rect class="cls-3" x="835.41" y="580.28" width="152.81" height="2.23"/><rect class="cls-5" x="829.28" y="650" width="15.72" height="15.72"/><path class="cls-3" d="M846.11,666.83H828.17V648.89h17.94Zm-15.72-2.23h13.49V651.11H830.39Z"/><rect class="cls-5" x="829.28" y="573.54" width="15.72" height="15.72"/><path class="cls-3" d="M846.11,590.37H828.17v-18h17.94Zm-15.72-2.23h13.49V574.65H830.39Z"/><rect class="cls-5" x="980.36" y="650" width="15.72" height="15.72"/><path class="cls-3" d="M997.2,666.83h-18V648.89h18Zm-15.72-2.23H995V651.11H981.48Z"/><rect class="cls-5" x="980.36" y="573.54" width="15.72" height="15.72"/><path class="cls-3" d="M997.2,590.37h-18v-18h18Zm-15.72-2.23H995V574.65H981.48Z"/><path class="cls-3" d="M667.79,754.64H530.42V565H667.79Zm-135-2.36H665.43V567.34H532.79Z"/><rect class="cls-5" x="523.74" y="558.3" width="15.72" height="15.72"/><path class="cls-3" d="M540.58,575.13h-18v-18h18Zm-15.72-2.23h13.49V559.41H524.86Z"/><rect class="cls-5" x="595.12" y="562.17" width="7.97" height="7.97"/><path class="cls-3" d="M603.66,570.71h-9.1V561.6h9.1Zm-8-1.13h6.84v-6.85h-6.84Z"/><rect class="cls-5" x="595.12" y="749.48" width="7.97" height="7.97"/><path class="cls-3" d="M603.66,758h-9.1v-9.1h9.1Zm-8-1.13h6.84V750h-6.84Z"/><rect class="cls-5" x="527.62" y="655.82" width="7.97" height="7.97"/><path class="cls-3" d="M536.15,664.36h-9.1v-9.1h9.1Zm-8-1.13H535v-6.84h-6.84Z"/><rect class="cls-5" x="662.62" y="655.82" width="7.97" height="7.97"/><path class="cls-3" d="M671.16,664.36h-9.1v-9.1h9.1Zm-8-1.13H670v-6.84h-6.84Z"/><rect class="cls-5" x="658.75" y="558.3" width="15.72" height="15.72"/><path class="cls-3" d="M675.58,575.13H657.64v-18h17.94Zm-15.71-2.23h13.49V559.41H659.87Z"/><rect class="cls-5" x="523.74" y="745.6" width="15.72" height="15.72"/><path class="cls-3" d="M540.58,762.43h-18V744.49h18Zm-15.72-2.22h13.49V746.72H524.86Z"/><rect class="cls-5" x="658.75" y="745.6" width="15.72" height="15.72"/><path class="cls-3" d="M675.58,762.43H657.64V744.49h17.94Zm-15.71-2.22h13.49V746.72H659.87Z"/><path class="cls-11" d="M1529.38,959.83l49.38,81.64c8,16.51,14.76,31.12,17.54,39a.21.21,0,0,1,0,.13c1.05,3,1.53,5,1.26,5.69a.53.53,0,0,1,0,.15c-3.29,5.72-133.35,73.7-138.68,74.55s-8.16-14.3-5.22-21,41.12-55,41.12-55l-48.51-81.93Z"/><path class="cls-11" d="M1453.66,1140c-2.93,6.65-.13,21.84,5.21,21s135.39-68.82,138.69-74.54c0,0,0-.1,0-.17.28-.72-.19-2.7-1.25-5.67,0-.07,0-.09,0-.14-2.78-7.88-9.52-22.51-17.54-39l-17.31-28.61c-14.22-23.53-32.07-53-32.07-53l-83.11,43.31,32.61,55.09,15.89,26.85S1456.65,1133.36,1453.66,1140Z"/><path class="cls-3" d="M1572.07,1016.32l-94.58,50.5S1358.1,896.67,1355.71,852c-3.3-61.74,50.47-257.94,50.47-257.94l83-.38s-34.18,201.58-31.4,236C1459.26,847.61,1572.07,1016.32,1572.07,1016.32Z"/><path class="cls-3" d="M1446.13,786.55c3.91-29.5,8.2-58.95,13.11-88.3s10.11-58.94,16.27-88.19q1.14-5.35,2.32-10.7a.44.44,0,0,1,.86.16c-5.18,29-10.51,58-15.28,87.11s-9.21,58.23-13.2,87.43q-1.49,10.85-2.88,21.71c-1,7.47-2.06,15-2.15,22.52a57.76,57.76,0,0,0,3.6,21.11c2.51,6.67,6.08,12.86,9.69,19,15.21,25.74,83.34,138.2,85.11,141.47.12.22-.18.44-.32.23-16.35-25.37-67.06-106.4-82.49-132.55-7-11.8-14.94-23.74-17.21-37.51C1441.2,815.71,1444.25,800.75,1446.13,786.55Z"/><path class="cls-3" d="M1406.18,594l0,.09c.55,1.74,30.77,84.54,33.62,85.86,3.22,1.49-66.76,119-70.9,173.64-2.65,34.93,2.55,232.58,2.55,232.58h102.3s-4.91-177.7-7.25-234c-.91-21.83,70.24-130.54,71.12-198.23.27-21.33-15.06-60.32-15.06-60.32Z"/><path class="cls-3" d="M1466,850.68c0-.91.71-1.19.78-.27,2.31,30.47,2.85,60.78,4.31,91.3s.62,37.77,2,68.2c.77,17.23,0,34.5.44,51.73a.21.21,0,0,1-.42,0C1469.85,1031.3,1466,867.93,1466,850.68Z"/><path class="cls-3" d="M1368.94,854.83a150.63,150.63,0,0,1,2.07-22.44,111.7,111.7,0,0,1,6.32-21.06c5.65-14.25,12.34-28.15,18.72-42.09q9.71-21.18,19.89-42.12,5.76-11.76,11.58-23.49c3.93-7.9,8.17-15.67,12.28-23.48a.27.27,0,0,1,.49.24c-6.55,14.08-13,28.19-19.58,42.27s-13,28.22-19.44,42.35c-6.34,13.9-12.68,27.81-18.66,41.87a139.22,139.22,0,0,0-7.3,20.69,121.18,121.18,0,0,0-3,22.29c-1,17.47-1.48,35-3.19,52.43,0,.22-.38.19-.39,0C1368.22,886.49,1368.47,870.6,1368.94,854.83Z"/><path class="cls-3" d="M1425.7,675.39c10.94,2.55,21.68,6.67,32,11.09a.34.34,0,0,1-.22.65c-10.74-3.36-21.66-6.51-32.2-10.46A.68.68,0,0,1,1425.7,675.39Z"/><path class="cls-3" d="M1415.38,605.25c0-.36.61-.5.64-.11a345.09,345.09,0,0,0,5.25,34.19c1,5.24,8.28,34.09,17.25,31,1.5-.51,2.13-2.11,2.14-4.45,0-2.82-1.4-6.13-2.14-8.86-1.65-6-3.1-12.09-4.26-18.22a169,169,0,0,1-3.18-34.68.3.3,0,0,1,.6,0c1.63,16,3.68,31.93,7.7,47.53,1.93,7.5,6.94,18.57-.91,20.56s-15.2-16.64-16.73-21.79C1417.47,636,1415.74,620.2,1415.38,605.25Z"/><path class="cls-3" d="M1438.36,671.15a50,50,0,0,1,2.69,5.86,14,14,0,0,1,1.37,4.9c0,.33-.43.4-.63.2-1.21-1.25-1.86-3.08-2.63-4.63-.89-1.81-1.82-3.6-2.66-5.43A1,1,0,0,1,1438.36,671.15Z"/><path class="cls-3" d="M1455.48,880.74c-.53-14.54-2.14-29.79,2.63-43.83,2.36-7,6-13.41,9.33-19.91q5.32-10.26,10.44-20.62c13.67-27.61,26.55-55.66,38.06-84.24,5.54-13.76,10.49-27.89,12.47-42.66,2.07-15.45.6-31.26-2.86-46.41-.86-3.78-1.78-7.55-2.81-11.29-.08-.28.33-.43.42-.16,4.6,14.35,7.77,29.27,8,44.39.2,14.56-3,28.7-7.7,42.41-4.9,14.28-11,28.17-17.1,42q-9.35,21.38-19.43,42.42c-6.7,13.95-13.83,27.67-20.9,41.43-3.42,6.66-6.53,13.48-7.85,20.91s-1.13,15.25-.84,22.89c1.2,32.18,4,139.26,4.38,171.36l.15,12.22c0,.36-.54.41-.56,0C1459.25,1019.66,1456.63,912.82,1455.48,880.74Z"/><path class="cls-3" d="M1478.43,614.87c0-.23.35-.18.38,0,1.21,8.85,1.9,18,6.17,26.07,3.93,7.37,10.77,12.12,18.23,15.45a135.33,135.33,0,0,0,13.28,4.9c.32.1.25.61-.11.53-8.46-1.76-17.06-3.73-24.41-8.48-7.88-5.09-11.93-13.23-13.22-22.34A77.94,77.94,0,0,1,1478.43,614.87Z"/><path class="cls-3" d="M1254,513.61c-5-4.66-9.23-9.88-7.15-12.32l.08-.08c2.27-2.28,7.81,1.48,12.85,6.14Z"/><path class="cls-6" d="M1263.7,570.15c-5.27-4.86-11.31-43.6-11.35-58,0-2.82,3-6.1,5.67-6.31,14.2-1.08,53.58,1.84,58.86,6.72,3.59,3.31,12.89,19.07,23.57,34.31,13.86,20,230.93,230.71,232.1,234.3s-4,10.51-7.18,14-9.8,9.25-13.47,8.37S1320.79,603.12,1299.79,590.9C1283.74,581.47,1267.29,573.46,1263.7,570.15Z"/><path class="cls-6" d="M1263.67,570.13a5,5,0,0,1-1.26-1.91,188.2,188.2,0,0,1,25.14-34.9c10.81-11.71,20.4-18.51,26.51-22.2a6.27,6.27,0,0,1,2.8,1.38,20.25,20.25,0,0,1,2.13,2.42c-9.34,5.23-31.89,20.69-52.42,57.28A17,17,0,0,1,1263.67,570.13Z"/><rect class="cls-4" x="1343.09" y="548.09" width="16.14" height="98.86" rx="0.73" transform="translate(2706.67 9.94) rotate(132.71)"/><rect class="cls-6" x="1336.39" y="556.86" width="9.43" height="62.76" rx="0.43" transform="translate(2682.93 1.63) rotate(132.7)"/><rect class="cls-4" x="1329.58" y="580.55" width="9.4" height="2.77" transform="translate(1.56 1167.44) rotate(-47.28)"/><path class="cls-4" d="M1525.11,596.2l-120.46,3.49-2.8-25.05s-11.82-7.65-12.5-20.48c-.58-10.93,22-59.4,23.29-62.42,5.36-12.28,20.94-14.27,29.47-8.89,28.37,17.89,47.21,60.07,62.31,87.61Z"/><path class="cls-3" d="M1430.3,563.92a63.75,63.75,0,0,0-13.13,4.73c-2.11,1.08-4.16,2.31-6.21,3.61-1,.64-2,1.24-3.09,1.82a10.15,10.15,0,0,1-3.37,1.35c-.1,0-.07.25,0,.25a16.15,16.15,0,0,0,3.32-.43A16.67,16.67,0,0,0,1411,574c2.15-1.07,4.25-2.29,6.39-3.38a139.23,139.23,0,0,1,13.06-6.15C1430.61,564.41,1430.51,563.87,1430.3,563.92Z"/><path class="cls-3" d="M1442,569a65.56,65.56,0,0,0-11.3.28,42.45,42.45,0,0,0-5.55,1.07c-.88.22-1.76.46-2.63.73s-1.89.77-2.85,1c-.1,0-.08.27,0,.25.92-.21,1.87-.19,2.8-.31l2.79-.39c1.86-.26,3.73-.48,5.59-.76,3.72-.57,7.43-1.07,11.18-1.43C1442.29,569.45,1442.23,569,1442,569Z"/><path class="cls-3" d="M1420.08,470.65c2.16,0,4.34-.23,5.94-1.86.47-.48.83-1.06,1.3-1.53A4.94,4.94,0,0,1,1430,466a18.81,18.81,0,0,0,3.28-.92c3.25-1.31,6.34-3.91,6.44-7.6a11.28,11.28,0,0,0,11.32-8.45,10.1,10.1,0,0,0,.27-2c0-1-.29-2.08.15-3s1.49-1.52,2.18-2.17a11.27,11.27,0,0,0,1.58-1.81c1.18-1.77,1.33-4.48-.41-5.79,2.46-1.45,3.16-4.68,2.74-7.42a12.44,12.44,0,0,0-5.78-8.59,8.53,8.53,0,0,0-3.76-11.37,7.59,7.59,0,0,0-6-9.68,11.16,11.16,0,0,0-6.16-8.52,4.85,4.85,0,0,1-1.69-1.34,8.47,8.47,0,0,0-3.37-6.42,6.41,6.41,0,0,0-7.48.09,12.51,12.51,0,0,0-5.24-3.13,8.57,8.57,0,0,0-8.39,1.58,12.17,12.17,0,0,0-18,3c-2.49-2.47-6.47-2.72-9.62-1.35-3.84,1.67-6.18,5.42-7.86,9.1a6.14,6.14,0,0,0-7.89,1,6.75,6.75,0,0,0-1.3,6.35c-2.16,1.23-4.2,2.95-4.87,5.41a5.69,5.69,0,0,0,1.67,5.88,8.42,8.42,0,0,0,.53,14.16,10,10,0,0,0-.42,18.41,9,9,0,0,0-1.86,9.63c1.52,3.9,5.35,6.36,9.27,7.38a9,9,0,0,0,3.24,9.38,11.59,11.59,0,0,0,9,1.92c-2.92,1.65-6.26,2.12-9.41,0-3.7-2.51-4.45-7.28-3-11.27a0,0,0,0,0-.06,0c-2.07,4.17-1.35,9.18,2.62,12s8.34,1.74,11.72-.91a10.47,10.47,0,0,0,17.66,7C1407.59,482.81,1419.43,480.5,1420.08,470.65Zm13.41-84.4-.15-.25a9,9,0,0,0-1.3-1.9,8.85,8.85,0,0,0-4.42-2.58,8.63,8.63,0,0,0-2.48-.23c-.45,0-1.37.2-1.37.2s-.08-.11-.22-.27a6.76,6.76,0,0,1,7.73,1.12A8.23,8.23,0,0,1,1433.49,386.25Zm-67.67,10.92,0,0a5.65,5.65,0,0,1,1-5.58c2.1-2.45,4.74-2.16,7.31-1.07l-.09.2a6.5,6.5,0,0,0-7,2.67A7.13,7.13,0,0,0,1365.82,397.17ZM1405,478a11.75,11.75,0,0,0,14.6-7.39h.09C1418.13,479,1411.26,480.5,1405,478Z"/><path class="cls-11" d="M1434.41,483.64c.37,2.38-4.32,20.74-14.48,24.3-3.31,1.15-10.41-16.63-10.41-16.63l-.82-1.2-11.53-16.71,16-22.56,2.38-3.09s2.85,4.78,6.34,10.77c.16.28.33.55.5.85s.4.65.58,1c.53.89,1.07,1.8,1.59,2.71.4.7.79,1.37,1.18,2.12s.8,1.46,1.21,2.2C1430.85,474.74,1434.24,482.63,1434.41,483.64Z"/><path class="cls-3" d="M1421.88,458.52a40.71,40.71,0,0,1-13.18,31.59l-11.53-16.71,16-22.56,2.38-3.09S1418.39,452.53,1421.88,458.52Z"/><path class="cls-11" d="M1359.52,451.5c5.43,35.21,27.13,35.94,34.72,34.76,6.89-1.07,30.22-5.59,28.46-41.18s-19.85-44.19-35.74-42.57S1354.09,416.29,1359.52,451.5Z"/><path class="cls-3" d="M1363,443.24a20.89,20.89,0,0,0,2.29-1,4,4,0,0,0,2.15-1.43,1.27,1.27,0,0,0-.29-1.53,3.19,3.19,0,0,0-3.22-.14,4.65,4.65,0,0,0-2.56,2.17A1.36,1.36,0,0,0,1363,443.24Z"/><path class="cls-3" d="M1386.73,441.66a23,23,0,0,1-2.49.06,4,4,0,0,1-2.54-.43,1.28,1.28,0,0,1-.36-1.52,3.16,3.16,0,0,1,2.88-1.44,4.68,4.68,0,0,1,3.23.93A1.37,1.37,0,0,1,1386.73,441.66Z"/><path class="cls-3" d="M1383.41,448.59c0-.1.2.09.21.19.26,2.44,1,5.19,3.26,5.7.07,0,.08.14,0,.14C1384.15,454.6,1383.26,450.94,1383.41,448.59Z"/><path class="cls-3" d="M1385.23,445.76c3.87-.83,5.24,7,1.65,7.73S1382,446.45,1385.23,445.76Z"/><path class="cls-3" d="M1386.84,445.9c.75.32,1.56,1,2.39.92s1.54-1,2-1.91c0-.09.13,0,.15.07.28,1.49,0,3.12-1.59,3.62s-2.7-.67-3.34-2.11C1386.36,446.22,1386.53,445.77,1386.84,445.9Z"/><path class="cls-3" d="M1369.59,450.9c0-.09-.16.15-.14.25.6,2.38.88,5.21-1.12,6.47-.06,0,0,.16.05.13C1370.94,456.81,1370.54,453.06,1369.59,450.9Z"/><path class="cls-3" d="M1366.91,448.86c-3.92.54-2.55,8.33,1.08,7.83S1370.2,448.41,1366.91,448.86Z"/><path class="cls-3" d="M1365.37,449.66c-.54.52-1,1.37-1.74,1.55s-1.63-.52-2.31-1.24c-.07-.07-.12,0-.11.11.22,1.5,1,3,2.47,3s2.09-1.42,2.18-3C1365.88,449.83,1365.59,449.45,1365.37,449.66Z"/><path class="cls-3" d="M1387.57,468c-.38.73-.7,1.66-1.52,2a6.46,6.46,0,0,1-2.7.22.09.09,0,0,0-.06.16,3.3,3.3,0,0,0,3.37.31,2.58,2.58,0,0,0,1.17-2.65C1387.83,467.86,1387.63,467.87,1387.57,468Z"/><path class="cls-3" d="M1375.5,462.36s.43,3.67.87,5.34c0,.16.46.13,1,0,0,0,0,0,.06,0a8.22,8.22,0,0,0,7-5c.08-.2-.18-.31-.31-.17a12.34,12.34,0,0,1-6.71,4c-.24-.43-.53-6.31-.8-6.26a15.39,15.39,0,0,0-3.57,1.84c-1.12-7.62-1-15.36-2.23-22.93a.24.24,0,0,0-.47,0c-.69,8.11.4,16.91,1.35,24.81C1371.79,465,1374.91,462.82,1375.5,462.36Z"/><path class="cls-3" d="M1378.32,466.48a8.71,8.71,0,0,0,3.9,2,3.92,3.92,0,0,0,2.37-.27c1.61-.74,1.38-2.3.84-3.58a9.89,9.89,0,0,0-1.12-1.9A11.32,11.32,0,0,1,1378.32,466.48Z"/><path class="cls-12" d="M1382.22,468.53a3.92,3.92,0,0,0,2.37-.27c1.61-.74,1.38-2.3.84-3.58C1383.64,465.19,1382.07,466.74,1382.22,468.53Z"/><path class="cls-3" d="M1421.81,449.61c-5.79,1.32-9-10.75-9-10.75s-11.89,1.79-18.34-14.73c0,0,1.43,7.92,7.36,13.36,0,0-21.3.89-32.73-15.36,0,0,4.84,8.42,8.62,11.11,0,0-9.16-1.15-14.51-7.66,0,0-2.38,11-4.79,14.23,0,0-9.9-39.63,30.21-38.29,0,0,21.5-1.74,31.64,14S1421.81,449.61,1421.81,449.61Z"/><path class="cls-11" d="M1414.88,446.85s4.92-12.65,10.48-11.15,3.7,18.54-1.53,22.09a6,6,0,0,1-8.61-1.23Z"/><path class="cls-3" d="M1424.7,440.57c.09,0,.14.1.07.15-3.63,2.62-4.85,6.88-5.39,11.12.84-1.78,2.27-3,4.62-2.06.13.05.07.24,0,.24a3.71,3.71,0,0,0-3.66,2.22,17.88,17.88,0,0,0-1.11,3.67c-.1.41-.8.38-.77-.07a.41.41,0,0,0,0-.11C1417.07,450.61,1419.31,442.44,1424.7,440.57Z"/><path class="cls-4" d="M1422.66,458.67c.11,1.68,4.44-4.47,4.59-5.34s3.23-3.67,3.93-5.41a41.51,41.51,0,0,0,1.89-7.92c0-1.18,1.85-4.3,1.63-6.35s-2.94-20.23-16.48-31.2-24.51-10.63-24.51-10.63a76.82,76.82,0,0,0-16.64,1c-8.88,1.55-19.56,23.89-19.54,24.35s.77,1.82.48,3.12-1.52,2.76-.7,3.89-.65,4.43-.49,5.73.54,1.58.41,2.49,1.67-22.28,28.23-33.06C1385.46,399.36,1420.41,422.6,1422.66,458.67Z"/><path class="cls-4" d="M1357.25,432.17a1.21,1.21,0,0,1,0,.25C1357.21,432.49,1357.22,432.4,1357.25,432.17Z"/><path class="cls-4" d="M1357.25,432.17a2.5,2.5,0,0,1,0,.25C1357.21,432.49,1357.22,432.4,1357.25,432.17Z"/><path class="cls-13" d="M1367.34,407.31a2.34,2.34,0,0,1-4.59.06s0,0,0,0c.54-.9,1.13-1.81,1.73-2.73h0a2.37,2.37,0,0,1,1,0A2.34,2.34,0,0,1,1367.34,407.31Zm9.52-5.74a2.33,2.33,0,0,0-2.72,1.89,2.31,2.31,0,0,0,.45,1.83c1.22-.87,2.52-1.72,3.91-2.53A2.29,2.29,0,0,0,1376.86,401.57Zm-14.2,13.75a2.34,2.34,0,0,0-1.1,4.54,41.61,41.61,0,0,1,2.38-3.85A2.3,2.3,0,0,0,1362.66,415.32ZM1408.43,396a2.29,2.29,0,0,0-.49,1.07,2.34,2.34,0,0,0,4.51,1.21C1411.06,397.44,1409.72,396.69,1408.43,396Zm3.71,19.29A2.34,2.34,0,1,0,1414,418,2.33,2.33,0,0,0,1412.14,415.32ZM1383,392.06h0c-1.4.13-2.89.3-4.43.53v0a2.34,2.34,0,1,0,4.43-.55Zm11.43,2.63a2.34,2.34,0,1,0,1.9,2.71A2.33,2.33,0,0,0,1394.42,394.69Zm7.82,10.54a2.34,2.34,0,1,0,1.9,2.72A2.35,2.35,0,0,0,1402.24,405.23ZM1420,406a2.35,2.35,0,1,0,1.89,2.72A2.35,2.35,0,0,0,1420,406Zm2,17.71a2.34,2.34,0,1,0,1.9,2.72A2.35,2.35,0,0,0,1422,423.72Zm.87,26.44a2.25,2.25,0,0,0-1.29.14c.31,1.47.56,3,.75,4.5a2.34,2.34,0,0,0,.54-4.64ZM1415.31,432a2,2,0,0,0-.54,0q1,1.88,1.92,3.84a2.31,2.31,0,0,0,.52-1.09A2.34,2.34,0,0,0,1415.31,432Zm13.78-15.88a2.34,2.34,0,0,0,.1,4.59,2.28,2.28,0,0,0,1.82-.44C1430.45,419,1429.82,417.56,1429.09,416.15Zm-2.77,20.66a2.34,2.34,0,1,0,1.89,2.72A2.35,2.35,0,0,0,1426.32,436.81Zm5,7.27a2.27,2.27,0,0,0,.46,1.85c.32-1.12.64-2.44.88-3.57A2.32,2.32,0,0,0,1431.35,444.08Zm2.29-15.83a2.34,2.34,0,0,0-.3,4.64,2.26,2.26,0,0,0,1.24-.11C1434.43,431.81,1434.15,430.23,1433.64,428.25Z"/><path class="cls-14" d="M1427.25,453.33a25,25,0,0,0-.42-4.95c-.23-1.64-.53-3.28-.83-4.91-.62-3.26-1.26-6.52-2-9.74-.19-.81-.37-1.62-.62-2.39a10.21,10.21,0,0,0-1.14-2.13c-.89-1.39-1.89-2.72-2.86-4.06s-2-2.65-3-4l-3.06-3.95q3.35,3.72,6.43,7.64c1,1.3,2,2.64,3,4a11.22,11.22,0,0,1,1.22,2.24c.27.81.46,1.62.66,2.43.74,3.25,1.39,6.52,1.92,9.8.25,1.65.5,3.3.68,4.95.08.83.16,1.66.2,2.49A12.28,12.28,0,0,1,1427.25,453.33Z"/><path class="cls-14" d="M1422.09,419.48a38.87,38.87,0,0,1,4.05,4.36,39.68,39.68,0,0,1,3.44,4.88,27.57,27.57,0,0,1,2.55,5.41,16.13,16.13,0,0,1,.94,5.87c-.06-.49-.12-1-.17-1.47a4.46,4.46,0,0,0-.13-.73l-.17-.72c-.06-.24-.1-.48-.17-.71l-.23-.7a12.68,12.68,0,0,0-.49-1.39l-.56-1.36-.65-1.32c-.2-.45-.45-.87-.69-1.31s-.46-.86-.73-1.27c-1-1.7-2.13-3.31-3.29-4.91-.58-.8-1.18-1.58-1.81-2.34S1422.74,420.23,1422.09,419.48Z"/><path class="cls-14" d="M1358.2,419.25a30.26,30.26,0,0,1,2.65-5c1-1.61,2-3.18,3.1-4.73a54.87,54.87,0,0,1,3.41-4.54,19.57,19.57,0,0,1,4.39-3.58,24.86,24.86,0,0,0-2.13,1.84,18.48,18.48,0,0,0-1.92,2c-.58.72-1.12,1.49-1.66,2.26l-1.61,2.31-3.21,4.64c-.53.77-1,1.56-1.57,2.34A23.82,23.82,0,0,0,1358.2,419.25Z"/><path class="cls-14" d="M1357.56,425a30.23,30.23,0,0,1,1.46-3.81,38.87,38.87,0,0,1,1.85-3.64,19.7,19.7,0,0,1,1.14-1.72c.43-.53.85-1.06,1.29-1.58l1.31-1.56c.46-.51.89-1,1.36-1.52-.36.58-.76,1.13-1.13,1.7l-1.18,1.65c-.39.56-.8,1.09-1.2,1.64a15.49,15.49,0,0,0-1.08,1.68c-.69,1.16-1.32,2.36-2,3.55-.32.59-.63,1.19-.94,1.8S1357.86,424.42,1357.56,425Z"/><path class="cls-14" d="M1415.42,400.32c-4.38,2.45-14.43,7.94-16.85,8a15.63,15.63,0,0,1-2.46-.22,90.85,90.85,0,0,0-10.65-8.75,52.8,52.8,0,0,0-8.86,4.57,50.07,50.07,0,0,1-7.87-5c2.71-3.17,5.61-5.61,8.34-6.09a76.82,76.82,0,0,1,16.64-1S1403.2,391.53,1415.42,400.32Z"/><path class="cls-4" d="M1386.53,394.15s-10.54-10.84-23.61-9.44c0,0,3.32,12.53,8.73,15.7,2.69,1.58,12.88.22,13.68-1.7A23.27,23.27,0,0,0,1386.53,394.15Z"/><path class="cls-13" d="M1374.66,386.46a2.34,2.34,0,0,1-4.16-1.28A27.22,27.22,0,0,1,1374.66,386.46Zm-7,6.43a2.3,2.3,0,0,0-1.56.26,26.39,26.39,0,0,0,2.34,4.05,2.33,2.33,0,0,0-.78-4.31Zm13.65-2.17a2.34,2.34,0,1,0,1.89,2.72A2.34,2.34,0,0,0,1381.28,390.72Z"/><path class="cls-14" d="M1386.54,394.16a24.26,24.26,0,0,1-1.21,4.53.6.6,0,0,1-.16.24.93.93,0,0,1-.24.25c-.08,0-.14.1-.24.15a14.31,14.31,0,0,1-5.46,1.52,31.09,31.09,0,0,1,.15-5.79c.23-1.49,1.61-3.05,3-4.32A31.57,31.57,0,0,1,1386.54,394.16Z"/><path class="cls-4" d="M1390,395.19s17.15-6.69,26.55-4.74c0,0-2.6,10.29-11,14.56-3.75,1.91-17-2.73-16.86-5A18.12,18.12,0,0,1,1390,395.19Z"/><path class="cls-13" d="M1412.55,397.93a2.34,2.34,0,1,1-1.89-2.72A2.34,2.34,0,0,1,1412.55,397.93Zm-18.13-3.24a2.34,2.34,0,1,0,1.9,2.71A2.33,2.33,0,0,0,1394.42,394.69Zm7.82,10.54a2.21,2.21,0,0,0-1.17.09,15.29,15.29,0,0,0,1.84.13A2.11,2.11,0,0,0,1402.24,405.23Z"/><path class="cls-14" d="M1394,393.8a10.64,10.64,0,0,1,1,5.95,9,9,0,0,1-1.68,3.44c-2.65-1.07-4.58-2.28-4.54-3.15a18.51,18.51,0,0,1,1.3-4.85S1391.56,394.58,1394,393.8Z"/><path class="cls-4" d="M1392.79,398.8a6,6,0,1,1-4.24-7.31A6,6,0,0,1,1392.79,398.8Z"/><path class="cls-11" d="M1457.2,495.66c15.69,14.56,67,83.68,64.22,97.08-7,33.55-44.48,64-59.58,75.79-3.5,2.72-44.2-37.45-37-45.3,11.75-12.78,42.08-36,42.9-39.45,1.44-6-16.31-45.71-26-74C1433.08,484.23,1448,487.08,1457.2,495.66Z"/><path class="cls-11" d="M1370,663.39c1.9,3.93,9,2,9,2a13.28,13.28,0,0,0-.07,9c2.06,5.06,10.9,4,10.9,4a16.44,16.44,0,0,0,1.44,9.53c2.46,4.65,11.53,4.89,11.53,4.89s1.56,5.52,6.54,7.57c7.16,2.94,19.18-2.74,26.65-8.4,7.14-5.4,26.39-24.37,30.1-27.89L1445.69,614s-40.33,3.48-57.17,18.38C1381.82,638.26,1366.48,656,1370,663.39Z"/><path class="cls-3" d="M1379.05,665.18c6-7.77,13.75-14.11,21.35-20.14.17-.14.37.13.2.26-7.62,5.91-13.85,14-21.22,20.21C1379.18,665.68,1378.89,665.39,1379.05,665.18Z"/><path class="cls-3" d="M1389.62,678.19a25.34,25.34,0,0,1,5.14-4.25c1.93-1.38,3.87-2.72,5.84-4q5.91-3.95,12-7.59c.18-.11.39.14.2.26-3.92,2.63-7.8,5.31-11.61,8.1-1.9,1.4-3.8,2.81-5.68,4.24a30.41,30.41,0,0,1-5.51,3.78A.33.33,0,0,1,1389.62,678.19Z"/><path class="cls-3" d="M1403,692.79c1.16-1.54,3.24-2.55,4.84-3.58q2.73-1.74,5.44-3.51c3.61-2.36,7.22-4.72,10.75-7.21.18-.12.38.14.2.27-3.57,2.54-7.1,5.13-10.7,7.64q-2.64,1.86-5.31,3.67c-1.51,1-3.29,2.5-5.11,2.91A.12.12,0,0,1,1403,692.79Z"/><path class="cls-4" d="M1462,579.21l56.62-13.62S1489,521,1460.11,496.36c-22.59-19.27-30.83-13.31-23.19,10.57S1462,579.21,1462,579.21Z"/><path class="cls-4" d="M1436.92,506.93c-7.64-23.88.6-29.84,23.19-10.57,28.93,24.66,58.51,69.23,58.51,69.23L1462,579.21S1444.56,530.8,1436.92,506.93Z"/><path class="cls-3" d="M1460.55,575c-8.07-17.24-15.25-35.13-18.91-53.85,6.79,17.8,13.87,35.43,18.91,53.85Z"/><path class="cls-3" d="M1440.5,524.24a25.73,25.73,0,0,1,4.11,7,9.77,9.77,0,0,1-4.11-7Z"/><polygon class="cls-4" points="1458.95 584.8 1522.94 570.8 1520.94 569.05 1523.42 565.49 1521.9 564.16 1520.59 558.74 1457.14 574.95 1459.24 576.8 1457.66 580.28 1459.79 581.73 1458.95 584.8"/><polygon class="cls-15" points="1458.95 584.8 1522.94 570.8 1520.94 569.05 1523.42 565.49 1521.9 564.16 1520.59 558.74 1457.14 574.95 1459.24 576.8 1457.66 580.28 1459.79 581.73 1458.95 584.8"/><path class="cls-6" d="M584.41,1104.41l103.94-15.75s-50-99.58-80.89-153.61c-17.2-30-64.24-31.52-87.12,4.48-30.56,48.09-54.28,93.15-67.87,118.13l-23.58,2L434,1098.2l78.35,17.55c30,3.59,51.08-49.84,51.57-48.94C567.7,1073.83,584.41,1104.41,584.41,1104.41Z"/><path class="cls-3" d="M564.45,1067c-3-6-5.26-12.47-7.89-18.68-2.54-6-5.1-12-7.62-18-5.1-12.14-10.38-24.23-15.32-36.43-2.78-6.85-5.33-13.79-7.92-20.71a.14.14,0,0,0-.27.08q3,9.81,6.29,19.54c-.58-1.12-1.16-2.24-1.77-3.33-1.67-3-3.39-5.93-5.12-8.88a.1.1,0,0,0-.17.11c1.59,3,3.18,5.92,4.84,8.84.82,1.46,1.73,2.9,2.6,4.35a456.26,456.26,0,0,0,21.55,53.26c3.31,6.79,7.18,13.28,10.49,20C564.24,1067.45,564.56,1067.26,564.45,1067Z"/><path class="cls-3" d="M586.73,1085.93c-5-7.73-16.94-31.13-21.22-39.23-8.64-16.36-16.56-33.06-24-50-4.22-9.56-8.18-19.21-12.09-28.91a.06.06,0,0,0-.11,0,551.2,551.2,0,0,0,20.51,51.34c7.62,16.8,32.21,62.05,36.64,67C586.58,1086.31,586.86,1086.13,586.73,1085.93Z"/><path class="cls-3" d="M522.21,980.73c-9,16-18.11,31.88-27.1,47.85q-6.83,12.11-13.59,24.24c-2.12,3.81-4.17,7.67-6.37,11.43a21.43,21.43,0,0,1-8.21,8.52c-4,2.21-8.66,3.27-13,4.55-5.06,1.48-10.08,3.07-15.16,4.47-.23.06-.12.41.11.35,4.53-1.21,9.1-2.25,13.65-3.37a118,118,0,0,0,12.39-3.35,20,20,0,0,0,9.18-6.34c2.6-3.26,4.44-7.1,6.44-10.74q13.47-24.63,26.7-49.41c5-9.39,10-18.8,15.07-28.15A0,0,0,0,0,522.21,980.73Z"/><path class="cls-16" d="M427.41,959.49C473,946.73,526.51,925.74,532.12,915,546.45,887.43,563,843.63,565,830.47c1.25-8.56-62-28.35-64.38-19.48-8,29.58-21.11,67.53-23.23,71.78-3.37,6.76-45.71,34.73-66.51,52.49S399,967.45,427.41,959.49Z"/><path class="cls-16" d="M503.05,791.76c4.79-8.71,9.59-19.08,17.49-25.86s23.5-2.27,26.12.67,16,23.88,8.24,30.81S539.28,786,537.55,784.69s-3.87-3.15-5.2-1.7S516.2,819.5,516.2,819.5Z"/><path class="cls-16" d="M504.5,792.39c.44-.39,14-27.17,21.85-33.95s23.5-2.27,26.12.67,16,23.88,8.24,30.81-15.62-11.34-17.35-12.69-3.87-3.15-5.2-1.69S522,812,522,812Z"/><path class="cls-3" d="M557.2,791.29c-2.05-.38-3.87-2.08-5.39-3.44a21.56,21.56,0,0,1-4.14-5.22c-1-1.67-1.62-3.62-2.86-5.11a11.56,11.56,0,0,0-4.75-3.15c-1.57-.55-2.38.84-3,2.06a50.47,50.47,0,0,0-2.53,5.67c-.83,2.06-1.61,4.14-2.41,6.22a55.74,55.74,0,0,0-2.3,6.5c0,.16.2.29.29.13.93-1.69,1.6-3.52,2.36-5.29.86-2,1.73-4,2.63-6s1.58-3.77,2.45-5.61c.31-.65.83-2.06,1.5-2.44s2.31.8,2.86,1.16a9.71,9.71,0,0,1,3.48,4.44,29,29,0,0,0,3,5,15.28,15.28,0,0,0,3.93,3.76,21.63,21.63,0,0,0,4.83,1.69C557.32,791.71,557.43,791.33,557.2,791.29Z"/><path class="cls-16" d="M498,834.76s4.05-38.83,5.06-46.72c2-15.84,26.12-65.08,30.9-70.34s16.34,3.86.64,38c-8.27,18-3.76,27.92.33,32s15.34,8.43,22.4,1.78,2.35-21.38,7.95-28.48,12.07,9,13.65,20.22-1.76,24.62-5.93,32.54-16.1,33.53-16.1,33.53Z"/><path class="cls-3" d="M561.8,776.41c-.85,4.53-1.5,10-5,13.35s-8.14,3.18-12.55,1.69-8.55-4.07-10.82-8.31a22.59,22.59,0,0,1-2.27-12.53,54.56,54.56,0,0,1,4-15.26c.09-.22-.26-.33-.35-.11-2,4.46-8.58,17.93-2.51,28.92,2.49,4.49,6.58,6.82,11.11,8.4,4.16,1.45,9,2.15,12.74-.69,4.58-3.47,5.16-10.22,5.92-15.55C562.13,776.08,561.84,776.17,561.8,776.41Z"/><path class="cls-4" d="M572,842.65l-76.47-30.17s-16.79,59.85-18.46,67.36-34.4,28.58-61.92,50.07c-33,25.78-12.4,38,11.09,32.22,37.87-9.33,93.33-26.9,103.81-40.6S572,842.65,572,842.65Z"/><path class="cls-4" d="M572,842.65l-76.47-30.17s-16.79,59.85-18.46,67.36-34.4,28.58-61.92,50.07c-33,25.78-12.4,38,11.09,32.22,37.87-9.33,93.33-26.9,103.81-40.6S572,842.65,572,842.65Z"/><path class="cls-3" d="M496.3,831.09c2.48,1.51,5.27,2.55,7.89,3.83s5.31,2.45,8,3.61q7.76,3.36,15.6,6.54t15.67,6.38c5.4,2.2,10.79,4.69,16.35,6.44a.21.21,0,0,0,.18-.37c-5.12-2.76-10.67-4.88-16-7.21s-10.51-4.61-15.78-6.9-10.56-4.54-15.87-6.72c-2.61-1.08-5.23-2.11-7.89-3.08s-5.27-2.19-8-2.89C496.18,830.66,496.13,831,496.3,831.09Z"/><path class="cls-15" d="M474.58,948.27c-16.3,5.39-33.63,10.25-48.31,13.85-23.48,5.8-44.12-6.42-11.1-32.2,27.52-21.51,60.28-42.59,61.94-50.09.5-2.19,2.25-8.79,4.51-17.07Z"/><rect class="cls-10" x="498.53" y="717.02" width="97.64" height="343.57" transform="translate(398.25 -144.32) rotate(23.41)"/><rect class="cls-4" x="565.16" y="739.2" width="73.36" height="47.52" transform="translate(352.73 -176.33) rotate(23.41)"/><rect class="cls-17" x="542.28" y="792.06" width="73.36" height="47.52" transform="translate(371.85 -162.88) rotate(23.41)"/><rect class="cls-18" x="519.39" y="844.92" width="73.36" height="47.52" transform="translate(390.97 -149.44) rotate(23.41)"/><rect class="cls-19" x="496.5" y="897.77" width="73.36" height="47.52" transform="translate(410.08 -135.99) rotate(23.41)"/><rect class="cls-20" x="473.61" y="950.63" width="73.36" height="47.52" transform="translate(429.21 -122.54) rotate(23.41)"/><g class="cls-21"><rect x="565.16" y="739.2" width="73.36" height="47.52" transform="translate(352.73 -176.33) rotate(23.41)"/><rect class="cls-22" x="542.28" y="792.06" width="73.36" height="47.52" transform="translate(371.85 -162.88) rotate(23.41)"/><rect class="cls-23" x="519.39" y="844.92" width="73.36" height="47.52" transform="translate(390.97 -149.44) rotate(23.41)"/><rect class="cls-24" x="496.5" y="897.77" width="73.36" height="47.52" transform="translate(410.08 -135.99) rotate(23.41)"/><rect class="cls-25" x="473.61" y="950.63" width="73.36" height="47.52" transform="translate(429.21 -122.54) rotate(23.41)"/></g><rect class="cls-10" x="544.18" y="747.93" width="97.64" height="343.57" transform="translate(820.48 -150.69) rotate(44.81)"/><rect class="cls-4" x="652.96" y="798.67" width="73.36" height="47.52" transform="translate(780 -247.07) rotate(44.81)"/><rect class="cls-17" x="612.37" y="839.53" width="73.36" height="47.52" transform="translate(797 -206.59) rotate(44.81)"/><rect class="cls-18" x="571.77" y="880.4" width="73.36" height="47.52" transform="translate(814.01 -166.1) rotate(44.81)"/><rect class="cls-19" x="531.18" y="921.26" width="73.36" height="47.52" transform="translate(831.01 -125.62) rotate(44.81)"/><rect class="cls-20" x="490.58" y="962.13" width="73.36" height="47.52" transform="translate(848.02 -85.13) rotate(44.81)"/><path class="cls-4" d="M344.26,1075.91c.37.38,143-9.43,144.31-11.06,1.86-2.3-25.2-128.29-35.7-151.92-6.78-15.25-32.56-16.93-43.37-4C367.41,959.05,342.93,1074.53,344.26,1075.91Z"/><path class="cls-16" d="M402.71,956.25c16.77,36.69,68.16,100,91,101.17,26.42,1.36,97.81-35,111.15-51.56,5.32-6.59-35.27-52.9-42.67-47.69-31,21.8-59.8,36.41-65,34.58-8-2.82-46.36-35.2-71-55.06C395.27,912.73,395.18,939.79,402.71,956.25Z"/><path class="cls-16" d="M592.67,952.8c-4,.68-4.36-1.4.45-6.73s28.39-22.33,21.77-30.05S575.34,932.76,568,942.25s-15.88,27.4-15.88,27.4C559.48,966.17,578.14,959.44,592.67,952.8Z"/><path class="cls-16" d="M583.52,1020.72c20.37-10.55,46.38-22.45,60.15-44.37a12.81,12.81,0,0,0,2.11-8.13c6.34-9.72,3.66-15.63,3.66-15.63,3.14-10.86-.43-16.54-.43-16.54s7.33-11.48,1.12-17.07c-7-6.28-15.88,11.09-26.63,17.63-24.64,15-63.84,29.42-71.38,33Z"/><path class="cls-3" d="M608.73,970.47c7.16-4.56,14.31-8.85,20.82-14.35,7.14-6,13-13,19.14-20a.23.23,0,0,1,.36.28c-9.12,14.4-24.66,27.34-40.12,34.44C608.56,971,608.37,970.7,608.73,970.47Z"/><path class="cls-3" d="M615.62,986.65c6.72-4.82,18.48-13.37,33.6-34.23,0-.07.18,0,.13.08-8,14.85-19.14,25.89-33.5,34.47C615.4,987.24,615.17,987,615.62,986.65Z"/><path class="cls-3" d="M619.48,995.28c11.12-8.63,17-15.48,26.21-27,0-.07.18,0,.13.08-9,14.24-13.94,18.39-26.1,27.39C619.31,996,619.05,995.62,619.48,995.28Z"/><path class="cls-4" d="M498.36,989.88c7.2,0,50.62-25.26,50.62-25.26l43.24,56.63s-76.5,40.67-97.29,39.15S427.3,1002.07,407.72,967c-18.41-32.94-12.53-59.19,22.43-29.3C430.15,937.74,494.59,989.86,498.36,989.88Z"/><path class="cls-3" d="M507.86,986.62c1.71-.78,3.54-1.65,5.45-2.58"/><path class="cls-3" d="M493.41,1058.71c-18.13-3.93-49.17-41.45-55.19-48.83-3.85-4.73-7.51-9.6-11.14-14.5-7.27-9.8-14.22-19.83-21-30a.16.16,0,0,0-.27.17c4.38,8.06,9.18,15.91,14.33,23.53a97.41,97.41,0,0,1-7.79-8.33c-.11-.14-.35.06-.25.2a55.48,55.48,0,0,0,9.06,9.63c5.23,7.63,10.82,15,16.74,22.11,1.7,2,38.38,48.36,57.5,48.48,6.65,0,27.45-7.12,31.68-9.35.18-.1.16-.35-.06-.3C520.87,1053,499.88,1060.11,493.41,1058.71Z"/><path class="cls-3" d="M572.56,1018.24q-2.07-3-4.16-5.94c-2.79-3.95-19.53-27.36-25.95-34.36-.17-.19-.46.06-.34.27,4.77,8.28,22,31.19,24.87,35,1.46,1.93,2.94,3.85,4.42,5.77s3.22,3.67,4.71,5.6c.15.18.46,0,.32-.2C575.06,1022.37,573.93,1020.22,572.56,1018.24Z"/><path class="cls-3" d="M549,964.72c-3.84,1.2-36.72,18.67-44,22.47-1.71.9-3.54,2.1-5.51,2.31s-3.86-1.1-5.51-2.21c-3.27-2.21-40.31-31.16-42.78-32.41-.93-.47-1.56-.44-.54.51,1.74,1.64,37.91,30.33,41.07,32.5,2.95,2,5.79,4.2,9.53,3,1.65-.51,46.1-23.68,48.16-25.27C549.88,965.32,549.62,964.53,549,964.72Z"/><path class="cls-4" d="M445.84,935.63s-22.64-20.91-36.89-20l-11.8,11.1s-3.94,1.42-5.24-1.07c-3.22-6.14-4.26-21.19,8.42-31.34,11.61-9.3,31.06-9.19,47.4-5.39,15.68,3.66,29.49,13.6,25,23.9S445.84,935.63,445.84,935.63Z"/><path class="cls-15" d="M447.26,930.81s17.49-13.26,19.12-20.88-13.72-14.41-23.58-17c-15.25-3.94-25.53-2.67-33.77,5.64S447.26,930.81,447.26,930.81Z"/><path class="cls-16" d="M446.09,929.64c-7.37.09-24.2-11.44-27-22.56-.18-.76,2.69-7.51,5.8-15.88,1.86-5.08,3.81-10.79,5.22-16.13.29-1.09,31.32,17,31.32,17s-6.24,10.31-8.64,19.63a12.32,12.32,0,0,0-.35,2.25,3.19,3.19,0,0,1-.05.37C452,918.63,454,929.55,446.09,929.64Z"/><path class="cls-3" d="M452.49,913.92c0,.11,0,.24-.06.37a22.88,22.88,0,0,1-3.47-.72c-19.58-5.64-18.27-31.66-17.63-38.17,5.73,2.42,30.14,16.64,30.14,16.64s-6.25,10.32-8.65,19.64A13,13,0,0,0,452.49,913.92Z"/><path class="cls-16" d="M410.93,851.36c.54,12.82,18.42,44.11,29.28,48.67,15.73,6.61,35.64.77,39.78-16.81,4-17-20-57.4-31.59-60.94C431.34,817.06,410.14,832.43,410.93,851.36Z"/><path class="cls-3" d="M451.39,860c-.06-.07-.11.19-.06.28,1.26,2.07,2.36,4.66.84,6.44-.05.06,0,.16.09.11C454.4,865.21,452.92,861.78,451.39,860Z"/><path class="cls-3" d="M448.26,858.88c-3.55,1.66,0,8.63,3.32,7.09S451.23,857.48,448.26,858.88Z"/><path class="cls-3" d="M463.28,853.83c0-.09.22,0,.26.11,1,2.19,2.6,4.53,4.93,4.24.07,0,.12.1,0,.13C466,859.2,463.91,856.08,463.28,853.83Z"/><path class="cls-3" d="M464,850.59c3.34-2.05,7.19,4.77,4.1,6.67S461.25,852.3,464,850.59Z"/><path class="cls-3" d="M443.87,857.11c.82-.73,1.46-1.54,2.21-2.34s1.6-1.54,1.8-2.82a1.68,1.68,0,0,0-1.16-1.66c-1.52-.39-2.82.47-3.88,1.52a6,6,0,0,0-1.89,3.91A1.77,1.77,0,0,0,443.87,857.11Z"/><path class="cls-3" d="M464.93,845.69a30.35,30.35,0,0,1-3.14.71,5.28,5.28,0,0,1-3.33.11,1.66,1.66,0,0,1-.84-1.85c.44-1.5,1.84-2.18,3.28-2.55a6.09,6.09,0,0,1,4.34.36A1.77,1.77,0,0,1,464.93,845.69Z"/><path class="cls-3" d="M458.91,881a3.68,3.68,0,0,0,2.47.33,6.42,6.42,0,0,0,2-1.74.09.09,0,0,1,.15.07,3.29,3.29,0,0,1-2.14,2.58,2.6,2.6,0,0,1-2.68-1C458.65,881.06,458.8,880.93,458.91,881Z"/><path class="cls-3" d="M457.85,873.34a8.26,8.26,0,0,0,6.59.74,10.22,10.22,0,0,0,2.71-1.24,3.19,3.19,0,0,0,.47-.31,5.36,5.36,0,0,0,.44-.32.61.61,0,0,0,.18-.71h0a.92.92,0,0,0-.13-.21v0l-.1-.18c-.81-1.69-2.27-4.13-2.27-4.13.76,0,4.58-.21,4.08-1.06-4.13-7-8.72-14.71-14.29-20.77a.23.23,0,0,0-.37.26c3.7,6.85,8.58,13,12.41,19.83a14.54,14.54,0,0,0-4,.73c-.2.19,2.91,4.67,3.21,5.46a.25.25,0,0,1,0,.09c-2.61,1.79-5.15,2-8.82,1.55C457.73,873,457.64,873.23,457.85,873.34Z"/><path class="cls-3" d="M465.73,872.51a9.81,9.81,0,0,1-2.1,4.5,4.39,4.39,0,0,1-2.3,1.37c-2,.44-2.82-1.12-3.2-2.64a10.87,10.87,0,0,1-.29-2.47A12.72,12.72,0,0,0,465.73,872.51Z"/><path class="cls-26" d="M463.63,877a4.39,4.39,0,0,1-2.3,1.37c-2,.44-2.82-1.12-3.2-2.64C460.08,875,462.55,875.29,463.63,877Z"/><path class="cls-3" d="M425.21,877.15c5.25-2.16,1-14.47,1-14.47s14.58-1.88,7.37-19.43c0,0,17.46-1.45,24.75-10.62,6.23-7.83,4.67-23.44-4.76-29.07-5.32-3.17-16.51-3.39-24.81,16.2,0,0-23.65-4.8-21.07,20.17,0,0-9,5.18-6.18,14.86C405.94,870.07,420.67,879,425.21,877.15Z"/><path class="cls-3" d="M433.08,842a.15.15,0,0,0-.24.19c2.62,3.91,5.43,8.18,3.53,13a11.1,11.1,0,0,1-11.32,7.35c-.29,0-.36.44-.06.46a12.11,12.11,0,0,0,11.7-6.56C439.36,851.27,436.77,846,433.08,842Z"/><path class="cls-3" d="M424.45,874.28c-8.77-.63-16.84-4.38-21-12.53-2-3.88-3.07-8.34-1.92-12.6,1.06-3.89,4-6.41,6.35-9.51a.1.1,0,0,0-.13-.14c-17,13-2.19,36.89,16.72,35.83A.53.53,0,0,0,424.45,874.28Z"/><path class="cls-3" d="M456.07,802.69c-12.8-7.9-25.3,6.45-27.46,18.17a0,0,0,0,0,.08,0c2.55-9.21,11.12-20.84,21.85-19,12.95,2.22,16.62,22.43,5.66,29.2-.33.21,0,.78.34.6C467,826.24,465.58,808.56,456.07,802.69Z"/><path class="cls-16" d="M429.11,876s-11.52-7.92-15.39-3.42,7.6,17.95,14.12,17.93a6.21,6.21,0,0,0,6.62-6Z"/><path class="cls-3" d="M417.1,876.37a.08.08,0,0,0,0,.16c4.62.13,8.12,3.05,11,6.36-1.75-1-3.67-1.25-5.13.92-.08.11.08.24.19.17a3.82,3.82,0,0,1,4.4-.23,18.39,18.39,0,0,1,3.08,2.48c.32.29.9-.14.61-.5l-.07-.08C429.44,880.5,422.78,874.83,417.1,876.37Z"/><path class="cls-4" d="M447.26,930.81s-18.51-29.37-40.64-31.7L409,915.62s13.15-.34,36.89,20Z"/><path class="cls-3" d="M403,916.1c4-.62,8.06.16,11.88,1.24a52.37,52.37,0,0,1,11,4.75,90.58,90.58,0,0,1,10.06,6.53l4.72,3.73,4.56,4,.51.44.54-.3a101.73,101.73,0,0,0,11.68-7.5,59.49,59.49,0,0,0,5.36-4.41,36.33,36.33,0,0,0,4.65-5.12,61.88,61.88,0,0,1-10.71,8.52c-1.91,1.26-3.87,2.44-5.85,3.57s-4,2.28-6,3.3l1.06.14-4.57-4.08c-1.57-1.31-3.18-2.57-4.79-3.83s-3.34-2.37-5.07-3.47-3.49-2.15-5.35-3a48.28,48.28,0,0,0-11.52-4.29c-1-.25-2-.39-3-.57s-2-.22-3.07-.24A18,18,0,0,0,403,916.1Z"/><path class="cls-3" d="M397.15,926.72a59.83,59.83,0,0,0,6.24-5.19,58.76,58.76,0,0,0,5.56-5.91,66.5,66.5,0,0,0-11.8,11.1Z"/><path class="cls-4" d="M436.47,926.75a122.11,122.11,0,0,0,.39,21c.47,4.87,4.41,22,9.73,20.78s-4.81-11.46-7.44-20.45-1-16-1.31-21.55Z"/><g class="cls-21"><path d="M436.47,926.75a122.11,122.11,0,0,0,.39,21c.47,4.87,4.41,22,9.73,20.78s-4.81-11.46-7.44-20.45-1-16-1.31-21.55Z"/></g><path class="cls-4" d="M455.72,925.43a177.42,177.42,0,0,1,6.42,19.71c1.11,4.29,3.11,20.15-1.81,20.73s.51-11.26-.05-19.74-4.36-15.66-5.81-20.48Z"/><g class="cls-21"><path d="M455.72,925.43a177.42,177.42,0,0,1,6.42,19.71c1.11,4.29,3.11,20.15-1.81,20.73s.51-11.26-.05-19.74-4.36-15.66-5.81-20.48Z"/></g></g></svg>