<svg id="Слой_1" data-name="Слой 1" xmlns="http://www.w3.org/2000/svg" xmlns:xlink="http://www.w3.org/1999/xlink" viewBox="0 0 141.72 255.12"><defs><style>.cls-1{fill:none;}.cls-2{clip-path:url(#clip-path);}.cls-11,.cls-3{fill:#fdfdfd;}.cls-12,.cls-13,.cls-4{fill:#4b158b;}.cls-5{fill:#f9f9f9;}.cls-6{fill:#3f3f3f;}.cls-7{fill:#aaa;}.cls-15,.cls-8{fill:#fec700;}.cls-9{fill:#fefefe;}.cls-10{fill:#fafafa;}.cls-11,.cls-13{font-size:12px;font-family:Roboto-BlackItalic, Roboto;font-weight:800;font-style:italic;}.cls-12{letter-spacing:-0.01em;}.cls-14{fill:#fff;}.cls-15{font-size:15.98px;font-family:Roboto-Light, Roboto;font-weight:300;}</style><clipPath id="clip-path"><rect class="cls-1" x="-0.7" y="-4.66" width="143" height="263"/></clipPath></defs><g class="cls-2"><rect class="cls-3" x="2.86" y="110.84" width="142" height="154" transform="translate(261.7 113.98) rotate(90)"/><rect class="cls-4" x="63.36" y="151.34" width="13" height="8" transform="translate(225.2 85.48) rotate(90)"/><rect class="cls-3" x="25.86" y="143.84" width="3" height="7" transform="translate(174.7 119.98) rotate(90)"/><rect class="cls-4" x="-5.14" y="-6.16" width="153" height="145" rx="7.55" transform="translate(137.7 -5.02) rotate(90)"/><path class="cls-5" d="M116.54,28.32c.46,0,.93,0,1.39,0a.81.81,0,0,1,.86.85.76.76,0,0,1-.53.72,1.49,1.49,0,0,1-.47.07h-2.58a1,1,0,0,1-.67-.21.78.78,0,0,1-.25-.86.8.8,0,0,1,.78-.57c.44,0,.87,0,1.31,0Z"/><path class="cls-4" d="M11.87,153.29V152A1.72,1.72,0,0,0,12,151c0-.35.05-.71.12-1.07a15.46,15.46,0,0,1,15.42-12.95h88.56a16,16,0,0,1,3.72.41,15.4,15.4,0,0,1,11.78,16.55,14.71,14.71,0,0,1-2.39,6.86,15.29,15.29,0,0,1-11.45,7l-.77,0-.47,0h-90c-.06,0-.11.05-.16.08h-.32a.6.6,0,0,0-.16-.08c-.66-.11-1.32-.18-2-.32A15.42,15.42,0,0,1,12.1,154.62C12,154.18,12,153.74,11.87,153.29Zm15.48,11.32a12.25,12.25,0,1,0-12.24-12.24A12.22,12.22,0,0,0,27.35,164.61Z"/><path class="cls-6" d="M26.41,167.84c.05,0,.1-.08.16-.08h90l.47,0s0,0,0,.05Z"/><path class="cls-6" d="M11.87,151l.15,0a1.72,1.72,0,0,1-.15,1.07Z"/><path class="cls-7" d="M117,167.84s0,0,0-.05l.77,0a.11.11,0,0,0,0,.08Z"/><path class="cls-8" d="M27.35,164.61a12.25,12.25,0,1,1,12.24-12.24A12.21,12.21,0,0,1,27.35,164.61Zm-5.84-12.35v3.56c0,1.39,0,2.79,0,4.19a1.71,1.71,0,0,0,1.74,1.75c2.54,0,5.09,0,7.63,0a1.72,1.72,0,0,0,1.7-1.4,3.44,3.44,0,0,0,0-.64V144.83c0-.11,0-.22,0-.32a1.77,1.77,0,0,0-.72-1.37,1.84,1.84,0,0,0-1.16-.36H23.37a2.19,2.19,0,0,0-.36,0A1.65,1.65,0,0,0,21.62,144a2.26,2.26,0,0,0-.1.78Q21.51,148.51,21.51,152.26Z"/><path class="cls-4" d="M21.51,152.26q0-3.75,0-7.51a2.26,2.26,0,0,1,.1-.78A1.65,1.65,0,0,1,23,142.81a2.19,2.19,0,0,1,.36,0h7.38a1.84,1.84,0,0,1,1.16.36,1.77,1.77,0,0,1,.72,1.37c0,.1,0,.21,0,.32v14.89a3.44,3.44,0,0,1,0,.64,1.72,1.72,0,0,1-1.7,1.4c-2.54,0-5.09,0-7.63,0A1.71,1.71,0,0,1,21.52,160c0-1.4,0-2.8,0-4.19ZM22.77,158h8.5V146.66c-2.85,0-5.68-.09-8.5-.08ZM27,145.45h.16c.43,0,.87,0,1.31,0a.8.8,0,0,0,.78-.57A.78.78,0,0,0,29,144a.92.92,0,0,0-.67-.21H25.77a1.53,1.53,0,0,0-.47.07.77.77,0,0,0-.52.72.81.81,0,0,0,.85.85C26.1,145.46,26.56,145.45,27,145.45Zm1.17,14.41a1.2,1.2,0,0,0-1.2-1.14,1.15,1.15,0,0,0-1.11,1.17A1.22,1.22,0,0,0,27.08,161,1.21,1.21,0,0,0,28.2,159.86Z"/><path class="cls-9" d="M22.77,158V146.58c2.82,0,5.65,0,8.5.08V158Z"/><path class="cls-10" d="M28.2,159.86A1.21,1.21,0,0,1,27.08,161a1.22,1.22,0,0,1-1.19-1.15A1.15,1.15,0,0,1,27,158.72,1.2,1.2,0,0,1,28.2,159.86Z"/><rect class="cls-8" x="4.71" y="3.99" width="133.84" height="133.84" rx="4.92"/><path class="cls-4" d="M126.33,77.12V75a2.06,2.06,0,0,1,2.09-2.09h0A2.06,2.06,0,0,1,130.51,75v2.09Z"/><path class="cls-4" d="M126.33,79.09V77h4.18v2.09a2.06,2.06,0,0,1-2.09,2.09h0A2.06,2.06,0,0,1,126.33,79.09Z"/><path class="cls-4" d="M126.33,93.34V91.26a2.05,2.05,0,0,1,2.09-2.09h0a2.05,2.05,0,0,1,2.09,2.09v2.08Z"/><path class="cls-4" d="M126.33,97.4V93.22h4.18v2.09a2.06,2.06,0,0,1-2.09,2.09Z"/><circle class="cls-4" cx="124.36" cy="54.75" r="2.09"/><path class="cls-4" d="M122.27,89.29V85.11h2.09a2.05,2.05,0,0,1,2.09,2.09h0a2.05,2.05,0,0,1-2.09,2.09Z"/><path class="cls-4" d="M122.27,95.31h0a2.06,2.06,0,0,1,2.09-2.09h2.09V97.4h-2.09A2.06,2.06,0,0,1,122.27,95.31Z"/><path class="cls-4" d="M118.22,48.73V44.55h2.09a2.06,2.06,0,0,1,2.09,2.09h0a2.06,2.06,0,0,1-2.09,2.09Z"/><circle class="cls-4" cx="120.31" cy="70.98" r="2.09"/><path class="cls-4" d="M118.22,81.18V77h2.09a2.05,2.05,0,0,1,2.09,2.09h0a2.06,2.06,0,0,1-2.09,2.09Z"/><path class="cls-4" d="M118.22,87.2h0a2.05,2.05,0,0,1,2.09-2.09h2.09v4.18h-2.09A2.05,2.05,0,0,1,118.22,87.2Z"/><rect class="cls-4" x="114.16" y="44.55" width="4.18" height="4.18"/><path class="cls-4" d="M114.16,50.7V48.61h4.18V50.7a2.06,2.06,0,0,1-2.09,2.09h0A2.06,2.06,0,0,1,114.16,50.7Z"/><path class="cls-4" d="M114.16,65V60.78h2.09a2,2,0,0,1,2.09,2.08h0A2.05,2.05,0,0,1,116.25,65Z"/><path class="cls-4" d="M114.16,81.18V79.09A2.05,2.05,0,0,1,116.25,77h2.09v4.18Z"/><path class="cls-4" d="M114.16,83.14V81.05h4.18v2.09a2.05,2.05,0,0,1-2.09,2.09h0A2.05,2.05,0,0,1,114.16,83.14Z"/><rect class="cls-4" x="110.11" y="44.55" width="4.18" height="4.18"/><circle class="cls-4" cx="112.2" cy="54.75" r="2.09"/><rect class="cls-4" x="110.11" y="60.78" width="4.18" height="4.18"/><rect class="cls-4" x="110.11" y="64.83" width="4.18" height="4.18"/><rect class="cls-4" x="110.11" y="68.89" width="4.18" height="4.18"/><path class="cls-4" d="M110.11,77.12V72.94h4.17V75a2,2,0,0,1-2.08,2.09Z"/><path class="cls-4" d="M110.11,93.34V91.26a2,2,0,0,1,2.09-2.09h0a2,2,0,0,1,2.08,2.09v2.08Z"/><path class="cls-4" d="M110.11,97.4V93.22h4.17v2.09a2,2,0,0,1-2.08,2.09Z"/><rect class="cls-4" x="106.05" y="44.55" width="4.18" height="4.18"/><path class="cls-4" d="M106.05,50.7V48.61h4.18V50.7a2.06,2.06,0,0,1-2.09,2.09h0A2.06,2.06,0,0,1,106.05,50.7Z"/><rect class="cls-4" x="106.05" y="60.78" width="4.18" height="4.18"/><rect class="cls-4" x="106.05" y="64.83" width="4.18" height="4.18"/><rect class="cls-4" x="106.05" y="68.89" width="4.18" height="4.18"/><rect class="cls-4" x="106.05" y="72.94" width="4.18" height="4.18"/><path class="cls-4" d="M106.05,81.18V77h4.18v2.09a2.06,2.06,0,0,1-2.09,2.09Z"/><path class="cls-4" d="M106.05,89.29V85.11h2.09a2.06,2.06,0,0,1,2.09,2.09h0a2.06,2.06,0,0,1-2.09,2.09Z"/><rect class="cls-4" x="106.05" y="93.22" width="4.18" height="4.18"/><rect class="cls-4" x="101.99" y="44.55" width="4.18" height="4.18"/><circle class="cls-4" cx="104.08" cy="54.75" r="2.09"/><rect class="cls-4" x="101.99" y="60.78" width="4.18" height="4.18"/><path class="cls-4" d="M102,71h0a2.05,2.05,0,0,1,2.09-2.09h2.09v4.17h-2.09A2,2,0,0,1,102,71Z"/><path class="cls-4" d="M102,79.09h0A2.05,2.05,0,0,1,104.08,77h2.09v4.18h-2.09A2.06,2.06,0,0,1,102,79.09Z"/><rect class="cls-4" x="101.99" y="85.11" width="4.18" height="4.18"/><rect class="cls-4" x="101.99" y="93.22" width="4.18" height="4.18"/><path class="cls-4" d="M97.94,46.64h0A2.05,2.05,0,0,1,100,44.55h2.09v4.18H100A2.05,2.05,0,0,1,97.94,46.64Z"/><path class="cls-4" d="M97.94,60.9V58.81A2,2,0,0,1,100,56.72h0a2.05,2.05,0,0,1,2.09,2.09V60.9Z"/><rect class="cls-4" x="97.94" y="60.78" width="4.18" height="4.18"/><path class="cls-4" d="M97.94,66.92V64.83h4.18v2.09A2.06,2.06,0,0,1,100,69h0A2.05,2.05,0,0,1,97.94,66.92Z"/><path class="cls-4" d="M97.94,77.12V72.94H100A2.06,2.06,0,0,1,102.12,75h0A2.05,2.05,0,0,1,100,77.12Z"/><rect class="cls-4" x="97.94" y="85.11" width="4.18" height="4.18"/><rect class="cls-4" x="97.94" y="93.22" width="4.18" height="4.18"/><path class="cls-4" d="M93.88,16.28V12.1H96a2.05,2.05,0,0,1,2.09,2.09h0A2,2,0,0,1,96,16.28Z"/><path class="cls-4" d="M93.88,24.39V22.31A2.05,2.05,0,0,1,96,20.22h0a2,2,0,0,1,2.09,2.09v2.08Z"/><rect class="cls-4" x="93.88" y="24.27" width="4.18" height="4.18"/><rect class="cls-4" x="93.88" y="28.33" width="4.18" height="4.18"/><rect class="cls-4" x="93.88" y="32.38" width="4.18" height="4.18"/><path class="cls-4" d="M93.88,38.53V36.44h4.18v2.09A2.05,2.05,0,0,1,96,40.62h0A2.06,2.06,0,0,1,93.88,38.53Z"/><path class="cls-4" d="M93.88,73.06V71A2.05,2.05,0,0,1,96,68.89h0A2,2,0,0,1,98.06,71v2.08Z"/><rect class="cls-4" x="93.88" y="72.94" width="4.18" height="4.18"/><path class="cls-4" d="M93.88,85.23V81.05H96a2.05,2.05,0,0,1,2.09,2.09v2.09Z"/><rect class="cls-4" x="93.88" y="85.11" width="4.18" height="4.18"/><rect class="cls-4" x="93.88" y="93.22" width="4.18" height="4.18"/><path class="cls-4" d="M93.88,105.51v-4.18H96a2.05,2.05,0,0,1,2.09,2.09v2.09Z"/><rect class="cls-4" x="93.88" y="105.39" width="4.18" height="4.18"/><rect class="cls-4" x="93.88" y="109.45" width="4.18" height="4.18"/><rect class="cls-4" x="93.88" y="113.5" width="4.18" height="4.18"/><path class="cls-4" d="M93.88,119.65v-2.09h4.18v2.09A2,2,0,0,1,96,121.73h0A2,2,0,0,1,93.88,119.65Z"/><path class="cls-4" d="M89.83,14.19h0a2.05,2.05,0,0,1,2.09-2.09H94v4.18H91.92A2,2,0,0,1,89.83,14.19Z"/><rect class="cls-4" x="89.83" y="24.27" width="4.18" height="4.18"/><path class="cls-4" d="M89.83,48.73V44.55h2.09A2,2,0,0,1,94,46.64v2.09Z"/><path class="cls-4" d="M89.83,50.7V48.61H94V50.7a2,2,0,0,1-2.08,2.09h0A2.05,2.05,0,0,1,89.83,50.7Z"/><path class="cls-4" d="M89.83,60.9V58.81a2,2,0,0,1,2.09-2.09h0A2,2,0,0,1,94,58.81V60.9Z"/><path class="cls-4" d="M89.83,62.86V60.78H94v2.08A2,2,0,0,1,91.92,65h0A2,2,0,0,1,89.83,62.86Z"/><path class="cls-4" d="M89.83,77.12V75a2.05,2.05,0,0,1,2.09-2.09H94v4.18Z"/><rect class="cls-4" x="89.83" y="77" width="4.18" height="4.18"/><rect class="cls-4" x="89.83" y="81.05" width="4.18" height="4.18"/><rect class="cls-4" x="89.83" y="85.11" width="4.18" height="4.18"/><rect class="cls-4" x="89.83" y="89.17" width="4.18" height="4.18"/><rect class="cls-4" x="89.83" y="93.22" width="4.18" height="4.18"/><rect class="cls-4" x="89.83" y="97.28" width="4.18" height="4.18"/><rect class="cls-4" x="89.83" y="101.33" width="4.18" height="4.18"/><rect class="cls-4" x="89.83" y="105.39" width="4.18" height="4.18"/><path class="cls-4" d="M89.83,111.53v-2.08H94v4.17H91.92A2,2,0,0,1,89.83,111.53Z"/><circle class="cls-4" cx="91.92" cy="127.76" r="2.09"/><rect class="cls-4" x="85.77" y="24.27" width="4.18" height="4.18"/><path class="cls-4" d="M85.77,36.56V32.38h2.09A2.06,2.06,0,0,1,90,34.47v2.09Z"/><rect class="cls-4" x="85.77" y="36.44" width="4.18" height="4.18"/><rect class="cls-4" x="85.77" y="40.5" width="4.18" height="4.18"/><path class="cls-4" d="M85.77,46.64V44.55H90v4.18H87.86A2.06,2.06,0,0,1,85.77,46.64Z"/><path class="cls-4" d="M85.77,95.31h0a2.06,2.06,0,0,1,2.09-2.09H90V97.4H87.86A2.06,2.06,0,0,1,85.77,95.31Z"/><path class="cls-4" d="M81.72,24.39V22.31a2,2,0,0,1,2.08-2.09h0a2,2,0,0,1,2.09,2.09v2.08Z"/><rect class="cls-4" x="81.72" y="24.27" width="4.18" height="4.18"/><rect class="cls-4" x="81.72" y="28.33" width="4.18" height="4.18"/><rect class="cls-4" x="81.72" y="32.38" width="4.18" height="4.18"/><path class="cls-4" d="M81.72,93.34V89.17H83.8a2,2,0,0,1,2.09,2.09h0a2,2,0,0,1-2.09,2.08Z"/><path class="cls-4" d="M81.72,105.51v-2.09a2,2,0,0,1,2.08-2.09h0a2.05,2.05,0,0,1,2.09,2.09v2.09Z"/><path class="cls-4" d="M81.72,107.48v-2.09h4.17v2.09a2.05,2.05,0,0,1-2.09,2.09h0A2,2,0,0,1,81.72,107.48Z"/><path class="cls-4" d="M81.72,117.68V113.5H83.8a2.05,2.05,0,0,1,2.09,2.09h0a2.05,2.05,0,0,1-2.09,2.09Z"/><circle class="cls-4" cx="83.8" cy="123.7" r="2.09"/><path class="cls-4" d="M77.66,16.28V12.1h2.09a2.06,2.06,0,0,1,2.09,2.09h0a2.05,2.05,0,0,1-2.09,2.09Z"/><rect class="cls-4" x="77.66" y="32.38" width="4.18" height="4.18"/><rect class="cls-4" x="77.66" y="36.44" width="4.18" height="4.18"/><path class="cls-4" d="M77.66,42.58V40.5h4.18v2.08a2.05,2.05,0,0,1-2.09,2.09h0A2,2,0,0,1,77.66,42.58Z"/><rect class="cls-4" x="77.66" y="89.17" width="4.18" height="4.18"/><path class="cls-4" d="M77.66,117.68v-2.09a2.05,2.05,0,0,1,2.09-2.09h2.09v4.18Z"/><path class="cls-4" d="M77.66,119.65v-2.09h4.18v2.09a2,2,0,0,1-2.09,2.08h0A2,2,0,0,1,77.66,119.65Z"/><path class="cls-4" d="M73.6,14.19h0a2.06,2.06,0,0,1,2.09-2.09h2.09v4.18H75.69A2.05,2.05,0,0,1,73.6,14.19Z"/><path class="cls-4" d="M73.6,28.45V26.36a2.06,2.06,0,0,1,2.09-2.09h0a2.05,2.05,0,0,1,2.09,2.09v2.09Z"/><rect class="cls-4" x="73.6" y="28.33" width="4.18" height="4.18"/><rect class="cls-4" x="73.6" y="32.38" width="4.18" height="4.18"/><path class="cls-4" d="M73.6,48.73V44.55h2.09a2.05,2.05,0,0,1,2.09,2.09h0a2.05,2.05,0,0,1-2.09,2.09Z"/><path class="cls-4" d="M73.6,93.34V91.26a2.05,2.05,0,0,1,2.09-2.09h2.09v4.17Z"/><rect class="cls-4" x="73.6" y="93.22" width="4.18" height="4.18"/><rect class="cls-4" x="73.6" y="97.28" width="4.18" height="4.18"/><rect class="cls-4" x="73.6" y="101.33" width="4.18" height="4.18"/><rect class="cls-4" x="73.6" y="105.39" width="4.18" height="4.18"/><path class="cls-4" d="M73.6,113.62v-4.17h4.18v2.08a2,2,0,0,1-2.09,2.09Z"/><circle class="cls-4" cx="75.69" cy="127.76" r="2.09"/><rect class="cls-4" x="69.55" y="28.33" width="4.18" height="4.18"/><rect class="cls-4" x="69.55" y="32.38" width="4.18" height="4.18"/><path class="cls-4" d="M69.55,38.53V36.44h4.18v2.09a2.06,2.06,0,0,1-2.09,2.09h0A2.05,2.05,0,0,1,69.55,38.53Z"/><rect class="cls-4" x="69.55" y="44.55" width="4.18" height="4.18"/><rect class="cls-4" x="69.55" y="93.22" width="4.18" height="4.18"/><rect class="cls-4" x="69.55" y="101.33" width="4.18" height="4.18"/><rect class="cls-4" x="69.55" y="105.39" width="4.18" height="4.18"/><rect class="cls-4" x="69.55" y="109.45" width="4.18" height="4.18"/><rect class="cls-4" x="69.55" y="113.5" width="4.18" height="4.18"/><path class="cls-4" d="M69.55,119.65v-2.09h4.18v2.09a2,2,0,0,1-2.09,2.08h0A2,2,0,0,1,69.55,119.65Z"/><path class="cls-4" d="M65.49,16.28V14.19a2.06,2.06,0,0,1,2.09-2.09h0a2.06,2.06,0,0,1,2.09,2.09v2.09Z"/><rect class="cls-4" x="65.49" y="16.16" width="4.18" height="4.18"/><rect class="cls-4" x="65.49" y="20.22" width="4.18" height="4.18"/><rect class="cls-4" x="65.49" y="24.27" width="4.18" height="4.18"/><rect class="cls-4" x="65.49" y="28.33" width="4.18" height="4.18"/><rect class="cls-4" x="65.49" y="44.55" width="4.18" height="4.18"/><path class="cls-4" d="M65.49,93.34V89.17h2.09a2.05,2.05,0,0,1,2.09,2.09v2.08Z"/><path class="cls-4" d="M65.49,95.31V93.22h4.18V97.4H67.58A2.06,2.06,0,0,1,65.49,95.31Z"/><path class="cls-4" d="M65.49,103.42h0a2.06,2.06,0,0,1,2.09-2.09h2.09v4.18H67.58A2.05,2.05,0,0,1,65.49,103.42Z"/><circle class="cls-4" cx="67.58" cy="123.7" r="2.09"/><rect class="cls-4" x="61.44" y="16.16" width="4.18" height="4.18"/><path class="cls-4" d="M61.44,28.45V26.36a2,2,0,0,1,2.08-2.09h2.09v4.18Z"/><path class="cls-4" d="M61.44,30.42V28.33h4.17v4.18H63.52A2,2,0,0,1,61.44,30.42Z"/><path class="cls-4" d="M61.44,40.62V38.53a2,2,0,0,1,2.08-2.09h0a2.05,2.05,0,0,1,2.09,2.09v2.09Z"/><rect class="cls-4" x="61.44" y="40.5" width="4.18" height="4.18"/><path class="cls-4" d="M61.44,46.64V44.55h4.17v4.18H63.52A2,2,0,0,1,61.44,46.64Z"/><rect class="cls-4" x="61.44" y="89.17" width="4.18" height="4.18"/><path class="cls-4" d="M61.44,101.46V97.28h2.08a2,2,0,0,1,2.09,2.09h0a2.05,2.05,0,0,1-2.09,2.09Z"/><path class="cls-4" d="M61.44,117.68v-2.09a2,2,0,0,1,2.08-2.09h0a2.05,2.05,0,0,1,2.09,2.09v2.09Z"/><path class="cls-4" d="M61.44,121.73v-4.17h4.17v2.09a2,2,0,0,1-2.09,2.08Z"/><path class="cls-4" d="M57.38,16.28V12.1h2.09a2.06,2.06,0,0,1,2.09,2.09v2.09Z"/><path class="cls-4" d="M57.38,18.25V16.16h4.18v4.18H59.47A2.06,2.06,0,0,1,57.38,18.25Z"/><path class="cls-4" d="M57.38,42.58h0a2,2,0,0,1,2.09-2.08h2.09v4.17H59.47A2.05,2.05,0,0,1,57.38,42.58Z"/><path class="cls-4" d="M57.38,52.79V48.61h2.09a2.05,2.05,0,0,1,2.09,2.09h0a2.06,2.06,0,0,1-2.09,2.09Z"/><path class="cls-4" d="M57.38,93.34V91.26a2.05,2.05,0,0,1,2.09-2.09h2.09v4.17Z"/><rect class="cls-4" x="57.38" y="93.22" width="4.18" height="4.18"/><rect class="cls-4" x="57.38" y="97.28" width="4.18" height="4.18"/><rect class="cls-4" x="57.38" y="101.33" width="4.18" height="4.18"/><rect class="cls-4" x="57.38" y="105.39" width="4.18" height="4.18"/><path class="cls-4" d="M57.38,113.62v-4.17h4.18v2.08a2.05,2.05,0,0,1-2.09,2.09Z"/><rect class="cls-4" x="57.38" y="117.56" width="4.18" height="4.18"/><circle class="cls-4" cx="59.47" cy="127.76" r="2.09"/><rect class="cls-4" x="53.32" y="12.1" width="4.18" height="4.18"/><path class="cls-4" d="M53.32,24.39V20.22h2.09a2,2,0,0,1,2.09,2.09v2.08Z"/><rect class="cls-4" x="53.32" y="24.27" width="4.18" height="4.18"/><path class="cls-4" d="M53.32,32.51V28.33H57.5v2.09a2.05,2.05,0,0,1-2.09,2.09Z"/><circle class="cls-4" cx="55.41" cy="38.53" r="2.09"/><path class="cls-4" d="M53.32,48.73V46.64a2.06,2.06,0,0,1,2.09-2.09h0a2.05,2.05,0,0,1,2.09,2.09v2.09Z"/><rect class="cls-4" x="53.32" y="48.61" width="4.18" height="4.18"/><rect class="cls-4" x="53.32" y="101.33" width="4.18" height="4.18"/><rect class="cls-4" x="53.32" y="109.45" width="4.18" height="4.18"/><path class="cls-4" d="M53.32,119.65h0a2.05,2.05,0,0,1,2.09-2.09H57.5v4.17H55.41A2,2,0,0,1,53.32,119.65Z"/><rect class="cls-4" x="49.27" y="12.1" width="4.18" height="4.18"/><rect class="cls-4" x="49.27" y="20.22" width="4.18" height="4.18"/><rect class="cls-4" x="49.27" y="28.33" width="4.18" height="4.18"/><path class="cls-4" d="M49.27,36.56V32.38h4.18v2.09a2.05,2.05,0,0,1-2.09,2.09Z"/><path class="cls-4" d="M49.27,44.67V40.5h2.09a2,2,0,0,1,2.09,2.08h0a2.05,2.05,0,0,1-2.09,2.09Z"/><path class="cls-4" d="M49.27,50.7h0a2,2,0,0,1,2.09-2.09h2.09v4.18H51.36A2.05,2.05,0,0,1,49.27,50.7Z"/><circle class="cls-4" cx="51.36" cy="70.98" r="2.09"/><path class="cls-4" d="M49.27,81.18V77h2.09a2.05,2.05,0,0,1,2.09,2.09h0a2.06,2.06,0,0,1-2.09,2.09Z"/><circle class="cls-4" cx="51.36" cy="91.26" r="2.09"/><path class="cls-4" d="M49.27,101.46V97.28h2.09a2.05,2.05,0,0,1,2.09,2.09v2.09Z"/><rect class="cls-4" x="49.27" y="101.33" width="4.18" height="4.18"/><rect class="cls-4" x="49.27" y="105.39" width="4.18" height="4.18"/><rect class="cls-4" x="49.27" y="109.45" width="4.18" height="4.18"/><path class="cls-4" d="M49.27,125.79v-4.18h2.09a2.06,2.06,0,0,1,2.09,2.09h0a2.05,2.05,0,0,1-2.09,2.09Z"/><path class="cls-4" d="M45.21,14.19h0A2.06,2.06,0,0,1,47.3,12.1h2.09v4.18H47.3A2.05,2.05,0,0,1,45.21,14.19Z"/><path class="cls-4" d="M45.21,22.31h0a2.05,2.05,0,0,1,2.09-2.09h2.09v4.17H47.3A2,2,0,0,1,45.21,22.31Z"/><path class="cls-4" d="M45.21,32.51V30.42a2.05,2.05,0,0,1,2.09-2.09h2.09v4.18Z"/><rect class="cls-4" x="45.21" y="32.38" width="4.18" height="4.18"/><rect class="cls-4" x="45.21" y="36.44" width="4.18" height="4.18"/><rect class="cls-4" x="45.21" y="40.5" width="4.18" height="4.18"/><path class="cls-4" d="M45.21,48.73V44.55h4.18v2.09a2.05,2.05,0,0,1-2.09,2.09Z"/><path class="cls-4" d="M45.21,56.84V52.66H47.3a2.05,2.05,0,0,1,2.09,2.09v2.09Z"/><path class="cls-4" d="M45.21,58.81V56.72h4.18v2.09A2.05,2.05,0,0,1,47.3,60.9h0A2.06,2.06,0,0,1,45.21,58.81Z"/><path class="cls-4" d="M45.21,81.18V79.09A2.05,2.05,0,0,1,47.3,77h2.09v4.18Z"/><path class="cls-4" d="M45.21,85.23V81.05h4.18v2.09a2,2,0,0,1-2.09,2.09Z"/><path class="cls-4" d="M45.21,97.4V93.22H47.3a2.05,2.05,0,0,1,2.09,2.09V97.4Z"/><rect class="cls-4" x="45.21" y="97.28" width="4.18" height="4.18"/><rect class="cls-4" x="45.21" y="101.33" width="4.18" height="4.18"/><rect class="cls-4" x="45.21" y="105.39" width="4.18" height="4.18"/><rect class="cls-4" x="45.21" y="109.45" width="4.18" height="4.18"/><path class="cls-4" d="M45.21,121.73v-4.17H47.3a2,2,0,0,1,2.09,2.09v2.08Z"/><rect class="cls-4" x="45.21" y="121.61" width="4.18" height="4.18"/><path class="cls-4" d="M45.21,129.85v-4.18h4.18v2.09a2.05,2.05,0,0,1-2.09,2.09Z"/><path class="cls-4" d="M41.16,48.73V46.64a2.05,2.05,0,0,1,2.09-2.09h2.08v4.18Z"/><rect class="cls-4" x="41.16" y="48.61" width="4.18" height="4.18"/><path class="cls-4" d="M41.16,54.75V52.66h4.17v4.18H43.25A2,2,0,0,1,41.16,54.75Z"/><path class="cls-4" d="M41.16,65V60.78h2.09a2,2,0,0,1,2.08,2.08V65Z"/><rect class="cls-4" x="41.16" y="64.83" width="4.18" height="4.18"/><rect class="cls-4" x="41.16" y="68.89" width="4.18" height="4.18"/><path class="cls-4" d="M41.16,77.12V72.94h4.17V75a2,2,0,0,1-2.08,2.09Z"/><path class="cls-4" d="M41.16,85.23V83.14a2.05,2.05,0,0,1,2.09-2.09h2.08v4.18Z"/><rect class="cls-4" x="41.16" y="85.11" width="4.18" height="4.18"/><rect class="cls-4" x="41.16" y="89.17" width="4.18" height="4.18"/><rect class="cls-4" x="41.16" y="93.22" width="4.18" height="4.18"/><rect class="cls-4" x="41.16" y="109.45" width="4.18" height="4.18"/><rect class="cls-4" x="41.16" y="113.5" width="4.18" height="4.18"/><rect class="cls-4" x="41.16" y="117.56" width="4.18" height="4.18"/><rect class="cls-4" x="41.16" y="121.61" width="4.18" height="4.18"/><path class="cls-4" d="M41.16,127.76v-2.09h4.17v4.18H43.25A2.05,2.05,0,0,1,41.16,127.76Z"/><path class="cls-4" d="M37.1,50.7h0a2.05,2.05,0,0,1,2.09-2.09h2.09v4.18H39.19A2.06,2.06,0,0,1,37.1,50.7Z"/><path class="cls-4" d="M37.1,60.9V58.81a2.05,2.05,0,0,1,2.09-2.09h0a2.05,2.05,0,0,1,2.09,2.09V60.9Z"/><rect class="cls-4" x="37.1" y="60.78" width="4.18" height="4.18"/><rect class="cls-4" x="37.1" y="64.83" width="4.18" height="4.18"/><rect class="cls-4" x="37.1" y="68.89" width="4.18" height="4.18"/><rect class="cls-4" x="37.1" y="72.94" width="4.18" height="4.18"/><path class="cls-4" d="M37.1,79.09V77h4.18v2.09a2.06,2.06,0,0,1-2.09,2.09h0A2.06,2.06,0,0,1,37.1,79.09Z"/><rect class="cls-4" x="37.1" y="89.17" width="4.18" height="4.18"/><rect class="cls-4" x="37.1" y="93.22" width="4.18" height="4.18"/><circle class="cls-4" cx="39.19" cy="103.42" r="2.09"/><rect class="cls-4" x="37.1" y="109.45" width="4.18" height="4.18"/><rect class="cls-4" x="37.1" y="113.5" width="4.18" height="4.18"/><path class="cls-4" d="M37.1,119.65v-2.09h4.18v4.17H39.19A2,2,0,0,1,37.1,119.65Z"/><path class="cls-4" d="M33.05,48.73V44.55h2.08a2.05,2.05,0,0,1,2.09,2.09h0a2.05,2.05,0,0,1-2.09,2.09Z"/><circle class="cls-4" cx="35.13" cy="54.75" r="2.09"/><path class="cls-4" d="M33.05,66.92h0a2,2,0,0,1,2.08-2.09h2.09V69H35.13A2,2,0,0,1,33.05,66.92Z"/><rect class="cls-4" x="33.05" y="72.94" width="4.18" height="4.18"/><path class="cls-4" d="M33.05,93.34V91.26a2,2,0,0,1,2.08-2.09h2.09v4.17Z"/><rect class="cls-4" x="33.05" y="93.22" width="4.18" height="4.18"/><rect class="cls-4" x="33.05" y="109.45" width="4.18" height="4.18"/><rect class="cls-4" x="28.99" y="44.55" width="4.18" height="4.18"/><path class="cls-4" d="M29,50.7V48.61h4.18V50.7a2.06,2.06,0,0,1-2.09,2.09h0A2.05,2.05,0,0,1,29,50.7Z"/><circle class="cls-4" cx="31.08" cy="58.81" r="2.09"/><path class="cls-4" d="M29,73.06V71a2,2,0,0,1,2.09-2.09h0A2.05,2.05,0,0,1,33.17,71v2.08Z"/><rect class="cls-4" x="28.99" y="72.94" width="4.18" height="4.18"/><path class="cls-4" d="M29,85.23V81.05h2.09a2.06,2.06,0,0,1,2.09,2.09v2.09Z"/><path class="cls-4" d="M29,89.29V85.11h4.18V87.2a2.06,2.06,0,0,1-2.09,2.09Z"/><path class="cls-4" d="M29,97.4V95.31a2.05,2.05,0,0,1,2.09-2.09h2.09V97.4Z"/><rect class="cls-4" x="28.99" y="97.28" width="4.18" height="4.18"/><rect class="cls-4" x="28.99" y="101.33" width="4.18" height="4.18"/><rect class="cls-4" x="28.99" y="105.39" width="4.18" height="4.18"/><path class="cls-4" d="M29,111.53v-2.08h4.18v4.17H31.08A2,2,0,0,1,29,111.53Z"/><path class="cls-4" d="M29,121.73v-4.17h2.09a2.05,2.05,0,0,1,2.09,2.09h0a2,2,0,0,1-2.09,2.08Z"/><circle class="cls-4" cx="31.08" cy="127.76" r="2.09"/><rect class="cls-4" x="24.93" y="44.55" width="4.18" height="4.18"/><path class="cls-4" d="M24.93,69V64.83H27a2.05,2.05,0,0,1,2.09,2.09h0A2.05,2.05,0,0,1,27,69Z"/><path class="cls-4" d="M24.93,77.12V75A2.06,2.06,0,0,1,27,72.94h2.09v4.18Z"/><rect class="cls-4" x="24.93" y="77" width="4.18" height="4.18"/><rect class="cls-4" x="24.93" y="81.05" width="4.18" height="4.18"/><rect class="cls-4" x="24.93" y="85.11" width="4.18" height="4.18"/><path class="cls-4" d="M24.93,93.34V89.17h4.18v2.09A2,2,0,0,1,27,93.34Z"/><rect class="cls-4" x="24.93" y="105.39" width="4.18" height="4.18"/><path class="cls-4" d="M24.93,117.68V113.5H27a2.05,2.05,0,0,1,2.09,2.09v2.09Z"/><rect class="cls-4" x="24.93" y="117.56" width="4.18" height="4.18"/><path class="cls-4" d="M20.88,46.64h0A2.05,2.05,0,0,1,23,44.55h2.09v4.18H23A2.05,2.05,0,0,1,20.88,46.64Z"/><path class="cls-4" d="M20.88,56.84V54.75A2.05,2.05,0,0,1,23,52.66h0a2.06,2.06,0,0,1,2.09,2.09v2.09Z"/><path class="cls-4" d="M20.88,58.81V56.72h4.18v2.09A2.06,2.06,0,0,1,23,60.9h0A2.05,2.05,0,0,1,20.88,58.81Z"/><rect class="cls-4" x="20.88" y="64.83" width="4.18" height="4.18"/><path class="cls-4" d="M20.88,71V68.89h4.18V71A2,2,0,0,1,23,73.06h0A2,2,0,0,1,20.88,71Z"/><path class="cls-4" d="M20.88,83.14h0A2.05,2.05,0,0,1,23,81.05h2.09v4.18H23A2,2,0,0,1,20.88,83.14Z"/><path class="cls-4" d="M20.88,91.26h0A2,2,0,0,1,23,89.17h2.09v4.17H23A2,2,0,0,1,20.88,91.26Z"/><path class="cls-4" d="M20.88,101.46V97.28H23a2.05,2.05,0,0,1,2.09,2.09v2.09Z"/><rect class="cls-4" x="20.88" y="101.33" width="4.18" height="4.18"/><rect class="cls-4" x="20.88" y="105.39" width="4.18" height="4.18"/><rect class="cls-4" x="20.88" y="109.45" width="4.18" height="4.18"/><rect class="cls-4" x="20.88" y="113.5" width="4.18" height="4.18"/><rect class="cls-4" x="20.88" y="117.56" width="4.18" height="4.18"/><path class="cls-4" d="M20.88,125.79v-4.18h4.18v2.09A2.05,2.05,0,0,1,23,125.79Z"/><path class="cls-4" d="M16.82,65V62.86a2,2,0,0,1,2.09-2.08h0A2,2,0,0,1,21,62.86V65Z"/><rect class="cls-4" x="16.82" y="64.83" width="4.18" height="4.18"/><circle class="cls-4" cx="18.91" cy="79.09" r="2.09"/><path class="cls-4" d="M16.82,97.4V95.31a2.06,2.06,0,0,1,2.09-2.09h0A2.06,2.06,0,0,1,21,95.31V97.4Z"/><rect class="cls-4" x="16.82" y="97.28" width="4.18" height="4.18"/><rect class="cls-4" x="16.82" y="101.33" width="4.18" height="4.18"/><rect class="cls-4" x="16.82" y="105.39" width="4.18" height="4.18"/><rect class="cls-4" x="16.82" y="109.45" width="4.18" height="4.18"/><path class="cls-4" d="M16.82,115.59V113.5H21v4.18H18.91A2.06,2.06,0,0,1,16.82,115.59Z"/><path class="cls-4" d="M16.82,123.7h0a2.06,2.06,0,0,1,2.09-2.09H21v4.18H18.91A2.05,2.05,0,0,1,16.82,123.7Z"/><path class="cls-4" d="M12.77,48.73V46.64a2,2,0,0,1,2.08-2.09h0a2.05,2.05,0,0,1,2.09,2.09v2.09Z"/><path class="cls-4" d="M12.77,50.7V48.61h4.17V50.7a2.05,2.05,0,0,1-2.09,2.09h0A2,2,0,0,1,12.77,50.7Z"/><path class="cls-4" d="M12.77,66.92h0a2,2,0,0,1,2.08-2.09h2.09V69H14.85A2,2,0,0,1,12.77,66.92Z"/><path class="cls-4" d="M12.77,89.29V87.2a2,2,0,0,1,2.08-2.09h0a2.05,2.05,0,0,1,2.09,2.09v2.09Z"/><path class="cls-4" d="M12.77,91.26V89.17h4.17v2.09a2,2,0,0,1-2.09,2.08h0A2,2,0,0,1,12.77,91.26Z"/><path class="cls-4" d="M12.77,99.37h0a2,2,0,0,1,2.08-2.09h2.09v4.18H14.85A2,2,0,0,1,12.77,99.37Z"/><circle class="cls-4" cx="14.85" cy="119.65" r="2.09"/><path class="cls-4" d="M130.51,12.1H102.12V40.5h28.39ZM106.17,36.44V16.16h20.28V36.44Z"/><path class="cls-4" d="M130.51,101.33H102.12v28.39h28.39Zm-24.34,24.34V105.39h20.28v20.28Z"/><path class="cls-4" d="M41.28,12.1H12.89V40.5H41.28ZM16.94,36.44V16.16H37.22V36.44Z"/><rect class="cls-4" x="110.23" y="20.22" width="12.17" height="12.17"/><rect class="cls-4" x="110.23" y="109.45" width="12.17" height="12.17"/><rect class="cls-4" x="21" y="20.22" width="12.17" height="12.17"/><path class="cls-8" d="M-13.7,253.34c-.62-23.55,10.16-49,31-65,20.45-15.68,42.56-16,50-16,4.37,0,47.55.71,71,36,4.06,6.11,13.93,22.9,13,45-1.55,36.43-32.3,82.5-82.5,82.5C20.08,335.84-12.68,292.48-13.7,253.34Z"/><text class="cls-11" transform="translate(39.06 237.71)">dom <tspan class="cls-12" x="26.24" y="0">I</tspan><tspan class="cls-4" x="29.64" y="0">T</tspan><tspan x="37.04" y="0"></tspan></text><text class="cls-13" transform="translate(37.61 247.78)">wolontariatu</text><path class="cls-4" d="M8.6,223.26a1.62,1.62,0,0,1-1.19-.45,14.31,14.31,0,0,1-1.5-1.26,6.87,6.87,0,0,1-1.16-1.43c-.29-.48-.32-.8-.11-1a71.7,71.7,0,0,1,6.81-2.93q3.75-1.4,7.6-2.45c-.74-.64-1.05-1.16-.95-1.59a89.08,89.08,0,0,1,5.36-8.76q2.77-4,5.78-7.6t6.31-7.29q3.3-3.65,6.94-7.92a49.21,49.21,0,0,0-11.29,5.68,111.63,111.63,0,0,0-11.67,9.11c-.25.14-.74.08-1.48-.19a13.84,13.84,0,0,1-2.27-1,13.62,13.62,0,0,1-2-1.35c-.55-.46-.73-.79-.55-1A93.3,93.3,0,0,1,24.78,183a68.66,68.66,0,0,1,12-6.18,62.26,62.26,0,0,1,12.83-3.51,68.76,68.76,0,0,1,14-.76c.25.07.46.38.63.95a8.51,8.51,0,0,1,.35,1.82,6.93,6.93,0,0,1-.08,1.79c-.11.55-.3.86-.58.93a70.64,70.64,0,0,0-11,.29,49.18,49.18,0,0,0-9.45,2,3.88,3.88,0,0,1,1,.6,7.24,7.24,0,0,1,1.06,1,7.58,7.58,0,0,1,.76,1,.87.87,0,0,1,.14.82q-3.33,3.91-6.21,7.34t-5.41,6.81q-2.53,3.38-4.8,6.89t-4.44,7.58c.49-.07,1-.13,1.43-.16l1.37-.11q.48,0,.9.9a10.07,10.07,0,0,1,.68,2,9.18,9.18,0,0,1,.27,2.11c0,.65-.16,1-.48,1.09a70.62,70.62,0,0,0-10.77,1.39A42.84,42.84,0,0,0,8.6,223.26Z"/><path class="cls-4" d="M71,176.59c.21-.17.52-.09.92.27a7.78,7.78,0,0,1,1.19,1.32q5.81-1.11,12.27-1.8a110.68,110.68,0,0,1,13.92-.53q.36.1,1,1.11a21.29,21.29,0,0,1,1.25,2.17,13.93,13.93,0,0,1,.87,2.16c.19.67.16,1-.08,1.06q-5.44-.16-9.82-.08t-8.11.37q-3.72.29-7,.79t-6.31,1.19q-4,4.49-8,9.26t-7.54,9.87a102.23,102.23,0,0,0-6.39,10.48,58.58,58.58,0,0,0-4.49,11c-.14.29-.51.26-1.11-.07a11,11,0,0,1-1.87-1.38A12.41,12.41,0,0,1,40,221.94c-.48-.63-.66-1.11-.56-1.42a56.83,56.83,0,0,1,3.86-8.79,85.28,85.28,0,0,1,5.2-8.42c1.91-2.75,4-5.45,6.12-8.11S59,190,61.29,187.41q-3.49,1.07-7.39,2.41c-2.61.89-5.51,1.85-8.72,2.87a1.71,1.71,0,0,1-1.26-.05,11.21,11.21,0,0,1-2-.84,20.73,20.73,0,0,1-2.19-1.38,14.55,14.55,0,0,1-1.93-1.61,5.34,5.34,0,0,1-1.16-1.58,1.1,1.1,0,0,1,.13-1.29,51,51,0,0,0,7.07-.85q3.64-.69,7.58-1.69t8.24-2.14q4.29-1.12,9.05-2.19Z"/><path class="cls-4" d="M67,197.55c.18-.21.47-.19.87,0a5.47,5.47,0,0,1,1.24,1.09,10.14,10.14,0,0,1,1.14,1.53,2.83,2.83,0,0,1,.5,1.4,3.85,3.85,0,0,1-.61,1.16c-.4.63-.9,1.39-1.48,2.27s-1.2,1.82-1.87,2.82-1.28,1.95-1.82,2.83-1,1.63-1.32,2.27-.45,1-.34,1.16.37,0,.81-.32a16.55,16.55,0,0,0,1.64-1.56q1-1,2.19-2.4T70.45,207l2.4-2.85c.77-.94,1.46-1.75,2.06-2.46a.91.91,0,0,1,1.19-.13c.33.26.37.66.13,1.19-.57.77-1.24,1.7-2,2.77s-1.64,2.18-2.56,3.32-1.87,2.28-2.87,3.41-2,2.12-2.91,3a16.78,16.78,0,0,1-2.64,2.06,3.45,3.45,0,0,1-2.13.66,3.23,3.23,0,0,1-1.11-.32,4.88,4.88,0,0,1-1.09-.66,3.58,3.58,0,0,1-.81-.89A1.76,1.76,0,0,1,57.8,215a11.49,11.49,0,0,1,.77-3.06,34.46,34.46,0,0,1,1.61-3.59c.63-1.23,1.32-2.46,2.06-3.69s1.43-2.34,2.08-3.33,1.23-1.82,1.74-2.51Zm5.07-8.82a1.1,1.1,0,0,1,1.21-.15,4.31,4.31,0,0,1,1.48.84,3.89,3.89,0,0,1,1,1.32A1,1,0,0,1,75.7,192l-1,1.35c-.37.51-.74,1-1.11,1.61s-.71,1.13-1,1.69a14.33,14.33,0,0,0-.79,1.64c-.07.17-.28.2-.63.08a3.07,3.07,0,0,1-1.08-.74,4.17,4.17,0,0,1-.9-1.45,3.64,3.64,0,0,1-.13-2q.15-.42.45-1.08c.19-.44.42-.91.68-1.4s.56-1,.87-1.51A9.89,9.89,0,0,1,72.11,188.73Z"/><path class="cls-4" d="M92.06,201a8.83,8.83,0,0,1-.84,3.25,23.47,23.47,0,0,1-1.74,3.06c-.67,1-1.38,2-2.14,3s-1.45,1.92-2.09,2.87a2.64,2.64,0,0,0-.47,1c.1.14.38,0,.82-.32a16.64,16.64,0,0,0,1.63-1.56q1-1,2.19-2.4T91.88,207q1.25-1.46,2.4-2.85l2.06-2.46a.93.93,0,0,1,1.21-.13c.36.26.41.66.16,1.19-.56.77-1.25,1.7-2.06,2.77S94,207.73,93,208.87s-1.89,2.28-2.88,3.41a37.68,37.68,0,0,1-2.87,3,17.75,17.75,0,0,1-2.64,2.06,3.47,3.47,0,0,1-2.14.66,3.3,3.3,0,0,1-1.16-.37,7.64,7.64,0,0,1-1.19-.74,4.13,4.13,0,0,1-.92-1,1.59,1.59,0,0,1-.32-1.11,6.31,6.31,0,0,1,.55-2.16,25.49,25.49,0,0,1,1.24-2.43,32.68,32.68,0,0,1,2.22-3.3A27.34,27.34,0,0,0,85,203.78c.35-.6.63-1.1.82-1.5s.26-.66.19-.77-.4,0-.87.29a16.43,16.43,0,0,0-1.77,1.51c-.71.66-1.49,1.45-2.35,2.34s-1.74,1.83-2.62,2.78l-2.56,2.79c-.82.92-1.54,1.73-2.13,2.43-.71,1.16-1.27,2.16-1.69,3a8.79,8.79,0,0,1-.9,1.5c-.18.21-.46.2-.85,0a4.64,4.64,0,0,1-1.16-1,8.46,8.46,0,0,1-1-1.5,3,3,0,0,1-.45-1.4,4.07,4.07,0,0,1,.51-1.32q.5-1,1.26-2.37c.51-.92,1.08-1.91,1.69-3s1.22-2.07,1.8-3,1.09-1.83,1.53-2.58l1-1.67.88-1.66c.19-.37.37-.69.55-1v.06q.27-.37.87,0A5.19,5.19,0,0,1,79,198.71a8.28,8.28,0,0,1,1,1.53,2.73,2.73,0,0,1,.4,1.43.77.77,0,0,1-.21.42l-.45.53-.48.53c-.16.17-.25.28-.29.31-.28.46-.52.87-.71,1.22s-.38.68-.56,1c.88-1.06,1.79-2.09,2.72-3.11s1.83-1.92,2.7-2.7a15.42,15.42,0,0,1,2.42-1.82,3.25,3.25,0,0,1,2-.55,7.47,7.47,0,0,1,1.32.42,8.68,8.68,0,0,1,1.51.79,6.5,6.5,0,0,1,1.24,1.08A1.6,1.6,0,0,1,92.06,201Z"/><path class="cls-4" d="M115.19,208.27a63.34,63.34,0,0,1-5.78,5.59c-1.89,1.59-3.81,3.1-5.78,4.54l-2,3.25q-1,1.77-2.27,3.93l-1.5,2.64q-.62,1.07-1.08,1.77a12.89,12.89,0,0,1-.93,1.24c-.3.35-.66.74-1.08,1.16a7.3,7.3,0,0,1-2.88,1.38,3.34,3.34,0,0,1-2.08-.21,2.91,2.91,0,0,1-1.32-1.38A5.53,5.53,0,0,1,88,230.1a7.38,7.38,0,0,1,.24-2.35,6.63,6.63,0,0,1,1-2.17,16.55,16.55,0,0,1,3.8-4,56.35,56.35,0,0,1,4.76-3.06c.35-.6.69-1.2,1-1.82s.66-1.22,1-1.82l-1.08,1c-.41.37-.82.71-1.24,1a10,10,0,0,1-1.27.81,3.2,3.2,0,0,1-1.11.4,2.51,2.51,0,0,1-1.18-.08,4,4,0,0,1-1.09-.5,8.35,8.35,0,0,1-2.27-1.82,3.76,3.76,0,0,1-1-2.56,9.59,9.59,0,0,1,.74-3.22,22.65,22.65,0,0,1,1.79-3.54A25.35,25.35,0,0,1,94.65,203,23.1,23.1,0,0,1,97.77,200a15,15,0,0,1,3.4-2,7.45,7.45,0,0,1,3.41-.64,4.86,4.86,0,0,1,2,.53,9.06,9.06,0,0,1,1.76,1.21,4.87,4.87,0,0,1,.85,1.27l1-1.16c.14-.21.42-.19.85,0a5.5,5.5,0,0,1,1.26,1.08,8.5,8.5,0,0,1,1.11,1.56,3.07,3.07,0,0,1,.48,1.43,6,6,0,0,1-.66,1l-1.35,1.77c-.53.69-1.08,1.42-1.66,2.22s-1.12,1.55-1.61,2.29a5.63,5.63,0,0,1-.48.72c-.17.23-.35.48-.52.76l-.16.27a64.09,64.09,0,0,0,6.38-5.6q2.28-2.26,4.6-5.07a.91.91,0,0,1,1.19-.13c.33.26.37.66.13,1.19-.5.7-1.15,1.54-2,2.5S116.1,207.25,115.19,208.27Zm-25.5,22.8c.21.14.53,0,1-.58s1-1.32,1.74-2.37L94,225.37l-1.27,1.06a16,16,0,0,0-1.43,1.13A11.57,11.57,0,0,0,90,228.91a3.51,3.51,0,0,0-.71,1.27A.72.72,0,0,0,89.69,231.07Zm5.7-16a2.86,2.86,0,0,0,1.16-.56c.56-.37,1.22-.84,2-1.42s1.56-1.23,2.4-2,1.66-1.43,2.43-2.13l1.53-2.59a3,3,0,0,1-1.13,0c-.27-.07-.26-.21,0-.42a7.94,7.94,0,0,0,1.14-1.14,19.54,19.54,0,0,0,1.29-1.66,5.6,5.6,0,0,0,.79-1.53c.14-.46,0-.72-.31-.79a3.92,3.92,0,0,0-2.35,1,24,24,0,0,0-3.2,2.7,38.24,38.24,0,0,0-3.08,3.4A15.74,15.74,0,0,0,96,211c-.17.36-.38.78-.6,1.27a9.29,9.29,0,0,0-.53,1.37,2.5,2.5,0,0,0-.13,1.06C94.79,215,95,215.11,95.39,215.08Z"/><path class="cls-4" d="M137.41,204.15l-1.32,1.48c-.81.91-1.65,1.81-2.53,2.69a15.63,15.63,0,0,1-3,2.32l-1.21.77a2.7,2.7,0,0,1-1.32.5,1.72,1.72,0,0,1-.5,0l-.5-.08c-.53.63-1.1,1.24-1.69,1.82a15.42,15.42,0,0,1-1.9,1.56l-1.17.79c-.45.31-1,.62-1.5.92a14.73,14.73,0,0,1-1.66.79,5.43,5.43,0,0,1-1.53.4,3.51,3.51,0,0,1-2.33-.58,8.35,8.35,0,0,1-2.27-1.82,3.57,3.57,0,0,1-1-2.56,11.82,11.82,0,0,1,1.48-5,25.75,25.75,0,0,1,3.59-5.23,20.89,20.89,0,0,1,4.8-4.06,9,9,0,0,1,5.13-1.51,4.75,4.75,0,0,1,2,.53,9.24,9.24,0,0,1,1.74,1.21,4.28,4.28,0,0,1,1.06,1.61,2.39,2.39,0,0,1,0,1.4,2.16,2.16,0,0,1,.29,1.59,4.89,4.89,0,0,1-1,2.21c-.49.64-.92,1.18-1.27,1.61s-.6.78-.76,1-.2.36-.11.39.33,0,.72-.26a9.52,9.52,0,0,0,1.42-.92c.53-.41,1.08-.87,1.66-1.4s1.16-1.09,1.72-1.67,1.09-1.13,1.58-1.66l1.16-1.32a1,1,0,0,1,1.22-.13c.35.26.4.66.16,1.19Zm-19.53,10.93a2.35,2.35,0,0,0,1.4,0,7.64,7.64,0,0,0,1.87-.77,16,16,0,0,0,2.11-1.4,26,26,0,0,0,2.12-1.79,3.66,3.66,0,0,1-1.19-2.38,4.61,4.61,0,0,1,.61-2.9,5,5,0,0,1,.79-1.11,11.13,11.13,0,0,1,1.16-1.11,11,11,0,0,1,1.32-1,6.54,6.54,0,0,1,1.32-.63c.28-.67.21-1.06-.21-1.16a3.92,3.92,0,0,0-2.35,1,24,24,0,0,0-3.2,2.7,38.24,38.24,0,0,0-3.08,3.4,15.74,15.74,0,0,0-2,3.06c-.17.36-.37.74-.58,1.16a8.51,8.51,0,0,0-.5,1.22,2.18,2.18,0,0,0-.1,1.05A.76.76,0,0,0,117.88,215.08Z"/><path class="cls-14" d="M79.41,80.1H73.12V70.64c0-1-.4-1.44-1.19-1.44s-1.18.47-1.18,1.44V80.1H64.46V70.75a7.64,7.64,0,0,1,2.17-5.52,7.54,7.54,0,0,1,11.06.38,8.58,8.58,0,0,1,1.7,5.67V80.1Z"/><path class="cls-14" d="M72.21,51.16a8.25,8.25,0,0,1,6.1,2.57,8.68,8.68,0,0,1,0,12.32,8.85,8.85,0,0,1-12.45,0,8.67,8.67,0,0,1,0-12.36A8.81,8.81,0,0,1,72.21,51.16ZM72,57.35a2.28,2.28,0,0,0-1.71.73,2.5,2.5,0,0,0-.71,1.79,2.53,2.53,0,0,0,.71,1.79,2.36,2.36,0,0,0,3.43,0,2.53,2.53,0,0,0,.71-1.79,2.5,2.5,0,0,0-.71-1.79A2.34,2.34,0,0,0,72,57.35Z"/><path class="cls-14" d="M82.81,66.81a3,3,0,0,1,.9-2.2A3,3,0,0,1,88,64.55a3.46,3.46,0,0,1,0,4.52,3,3,0,0,1-4.28,0A3.1,3.1,0,0,1,82.81,66.81Z"/><path class="cls-14" d="M54.89,66.81a3,3,0,0,1,.9-2.2,3,3,0,0,1,4.28-.06,3.46,3.46,0,0,1,0,4.52,3,3,0,0,1-4.28,0A3.1,3.1,0,0,1,54.89,66.81Z"/><path class="cls-14" d="M82.28,87.61H61.58V81.45h20.7Z"/></g><text class="cls-15" transform="translate(43.73 159.01)">ZESKANUJ </text></svg>