<svg id="Слой_1" data-name="Слой 1" xmlns="http://www.w3.org/2000/svg" viewBox="0 0 270 122"><defs><style>.cls-1{fill:#ffc800;}.cls-2{fill:#4a148c;}</style></defs><rect class="cls-1" x="-10" y="-3" width="290" height="131"/><path class="cls-2" d="M12,100.7a3.18,3.18,0,0,1-2.36-.89,27,27,0,0,1-3-2.51,13.58,13.58,0,0,1-2.3-2.82c-.56-.94-.63-1.59-.21-1.94a136,136,0,0,1,13.5-5.8Q25.07,84,32.71,81.87c-1.47-1.26-2.1-2.3-1.89-3.14A175.1,175.1,0,0,1,41.44,61.36q5.49-7.84,11.46-15.07T65.4,31.85q6.54-7.22,13.76-15.69A97.72,97.72,0,0,0,56.77,27.41,222.83,222.83,0,0,0,33.65,45.46c-.49.28-1.47.15-2.93-.37A28.12,28.12,0,0,1,26.22,43a25.78,25.78,0,0,1-3.93-2.67c-1.08-.91-1.44-1.57-1.1-2A185,185,0,0,1,44.06,20.87,136.2,136.2,0,0,1,67.86,8.62,124,124,0,0,1,93.29,1.67,135.81,135.81,0,0,1,121,.15c.48.14.9.77,1.25,1.88A16.27,16.27,0,0,1,123,5.64a12.92,12.92,0,0,1-.15,3.56c-.21,1.08-.6,1.69-1.15,1.83a141.44,141.44,0,0,0-21.77.58,97.5,97.5,0,0,0-18.73,3.92,7.3,7.3,0,0,1,2.09,1.2,14.67,14.67,0,0,1,2.1,2,15,15,0,0,1,1.51,2.09,1.75,1.75,0,0,1,.27,1.63Q80.52,30.18,74.82,37T64.1,50.48q-5,6.69-9.53,13.65t-8.79,15c1-.14,1.92-.24,2.83-.31l2.72-.21c.63,0,1.22.59,1.78,1.78a19.94,19.94,0,0,1,1.36,4A18.51,18.51,0,0,1,55,88.62c0,1.29-.31,2-.94,2.14a139.82,139.82,0,0,0-21.34,2.78A84,84,0,0,0,12,100.7Z"/><path class="cls-2" d="M135.56,8.21c.42-.35,1-.18,1.83.52a16.16,16.16,0,0,1,2.36,2.62q11.5-2.2,24.32-3.56a217.32,217.32,0,0,1,27.58-1c.48.14,1.16.87,2,2.2a40.77,40.77,0,0,1,2.45,4.29,24.84,24.84,0,0,1,1.73,4.29c.38,1.32.33,2-.16,2.09q-10.77-.32-19.46-.15t-16.06.73q-7.38.57-13.81,1.57t-12.51,2.35Q128,33,120.07,42.47T105.11,62A204.28,204.28,0,0,0,92.45,82.81a115.75,115.75,0,0,0-8.89,21.77c-.28.55-1,.5-2.2-.16a21.54,21.54,0,0,1-3.72-2.72,24.87,24.87,0,0,1-3.34-3.61c-1-1.26-1.31-2.2-1.1-2.83a114.19,114.19,0,0,1,7.64-17.42,169.78,169.78,0,0,1,10.3-16.69q5.7-8.16,12.14-16.06t13.13-15.43q-6.9,2.09-14.65,4.76T84.5,40.12A3.46,3.46,0,0,1,82,40a20.82,20.82,0,0,1-3.93-1.68,40.49,40.49,0,0,1-4.34-2.72,31,31,0,0,1-3.82-3.19,10.83,10.83,0,0,1-2.3-3.14,2.18,2.18,0,0,1,.26-2.56,100.52,100.52,0,0,0,14-1.68q7.23-1.35,15-3.35t16.32-4.23q8.53-2.25,17.95-4.35Z"/><path class="cls-2" d="M127.82,49.75c.35-.42.92-.39,1.72.1A10.89,10.89,0,0,1,132,52a20.87,20.87,0,0,1,2.25,3,5.64,5.64,0,0,1,1,2.77A7.85,7.85,0,0,1,134,60.11q-1.2,1.88-2.93,4.5L127.4,70.2q-2,3-3.61,5.6c-1.08,1.74-2,3.24-2.62,4.5s-.89,2-.68,2.3.75.07,1.62-.63a32.23,32.23,0,0,0,3.25-3.08c1.29-1.36,2.73-3,4.34-4.76s3.23-3.68,4.87-5.6,3.22-3.8,4.76-5.65,2.89-3.47,4.08-4.87c.9-.69,1.69-.78,2.35-.26s.75,1.31.26,2.36c-1.11,1.53-2.46,3.36-4,5.49s-3.27,4.32-5.08,6.59-3.71,4.52-5.7,6.75-3.91,4.2-5.76,5.91a34.62,34.62,0,0,1-5.23,4.08,5.9,5.9,0,0,1-6.43.68,10.06,10.06,0,0,1-2.15-1.31A7.12,7.12,0,0,1,110,86.53a3.36,3.36,0,0,1-.52-2.15A22.32,22.32,0,0,1,111,78.31a70,70,0,0,1,3.19-7.11q1.89-3.66,4.08-7.33t4.14-6.59q1.93-2.93,3.45-5C126.89,51,127.54,50.1,127.82,49.75Zm10-17.48a2.2,2.2,0,0,1,2.41-.31,9.09,9.09,0,0,1,2.93,1.67,7.8,7.8,0,0,1,2,2.62,2,2,0,0,1-.26,2.41L143,41.32c-.73,1-1.46,2.08-2.2,3.19s-1.41,2.24-2,3.35a29,29,0,0,0-1.57,3.25c-.14.35-.56.4-1.25.15a5.91,5.91,0,0,1-2.15-1.46,8.17,8.17,0,0,1-1.78-2.88,7.19,7.19,0,0,1-.26-4c.21-.56.51-1.28.89-2.15S133.52,39,134,38s1.1-2,1.73-3A19.32,19.32,0,0,1,137.86,32.27Z"/><path class="cls-2" d="M177.41,56.55A17.49,17.49,0,0,1,175.74,63a49.27,49.27,0,0,1-3.45,6.07q-2,3-4.24,5.86t-4.13,5.7a5.08,5.08,0,0,0-.95,2c.21.28.75.07,1.63-.63a33.42,33.42,0,0,0,3.24-3.08q1.93-2,4.34-4.76c1.61-1.82,3.23-3.68,4.87-5.6s3.22-3.8,4.76-5.65,2.89-3.47,4.08-4.87a1.85,1.85,0,0,1,2.4-.26c.7.52.81,1.31.32,2.36q-1.68,2.3-4.08,5.49c-1.61,2.13-3.33,4.32-5.18,6.59s-3.75,4.52-5.7,6.75a79.69,79.69,0,0,1-5.71,5.91,34.62,34.62,0,0,1-5.23,4.08,6.87,6.87,0,0,1-4.24,1.31,6.75,6.75,0,0,1-2.3-.73A14.5,14.5,0,0,1,153.82,88,8.14,8.14,0,0,1,152,86.16a3.23,3.23,0,0,1-.63-2.2,12.47,12.47,0,0,1,1.1-4.29,44,44,0,0,1,2.46-4.81,63.08,63.08,0,0,1,4.39-6.54,58,58,0,0,0,4.19-6.23c.69-1.18,1.23-2.18,1.62-3s.5-1.31.36-1.52-.78-.08-1.72.58a33.89,33.89,0,0,0-3.51,3q-2.08,2-4.65,4.66t-5.18,5.49c-1.75,1.89-3.44,3.73-5.08,5.55s-3.05,3.42-4.24,4.81c-1.39,2.3-2.51,4.27-3.34,5.91a15,15,0,0,1-1.78,3c-.35.42-.91.41-1.68,0a9.17,9.17,0,0,1-2.3-2,17.42,17.42,0,0,1-2-3,6,6,0,0,1-.89-2.77,8,8,0,0,1,1-2.62c.66-1.32,1.49-2.89,2.51-4.71s2.12-3.76,3.34-5.86,2.41-4.09,3.56-6,2.16-3.63,3-5.13,1.51-2.6,1.93-3.3c.77-1.46,1.34-2.56,1.73-3.29s.75-1.38,1.1-1.94V50c.35-.49.92-.49,1.72,0a10.49,10.49,0,0,1,2.41,2.09,15.82,15.82,0,0,1,2.09,3,5.24,5.24,0,0,1,.79,2.83,1.54,1.54,0,0,1-.42.84c-.28.35-.58.69-.89,1L152,60.84c-.31.35-.51.56-.58.63-.56.9-1,1.71-1.41,2.4s-.75,1.36-1.1,2c1.75-2.09,3.54-4.15,5.39-6.17s3.63-3.8,5.34-5.34a29.93,29.93,0,0,1,4.81-3.61,6.45,6.45,0,0,1,3.92-1.1,15.62,15.62,0,0,1,2.62.84,16,16,0,0,1,3,1.57,12.45,12.45,0,0,1,2.46,2.14A3.18,3.18,0,0,1,177.41,56.55Z"/><path class="cls-2" d="M223.24,71a124.68,124.68,0,0,1-11.46,11.09q-5.59,4.71-11.45,9-1.79,2.92-3.87,6.43t-4.5,7.8c-1.19,2.09-2.18,3.83-3,5.23s-1.51,2.56-2.14,3.5A25.4,25.4,0,0,1,185,116.5c-.6.7-1.31,1.47-2.15,2.31a14.67,14.67,0,0,1-5.7,2.72,6.66,6.66,0,0,1-4.13-.42,5.87,5.87,0,0,1-2.62-2.72,10.94,10.94,0,0,1-1.1-4.14,14.44,14.44,0,0,1,.47-4.65,12.81,12.81,0,0,1,2-4.29,32.17,32.17,0,0,1,7.54-7.85,108.5,108.5,0,0,1,9.41-6.07c.7-1.18,1.38-2.39,2-3.61s1.31-2.42,1.94-3.61l-2.15,1.94q-1.2,1.1-2.46,2a19,19,0,0,1-2.51,1.62,6.25,6.25,0,0,1-2.19.78A5,5,0,0,1,181,90.4a8.12,8.12,0,0,1-2.14-1,16.13,16.13,0,0,1-4.5-3.61,7.44,7.44,0,0,1-2-5.07,19.6,19.6,0,0,1,1.46-6.38,44.53,44.53,0,0,1,3.56-7,50.39,50.39,0,0,1,5.13-6.86,45.9,45.9,0,0,1,6.17-5.81,29.92,29.92,0,0,1,6.75-4,14.89,14.89,0,0,1,6.75-1.26,9.45,9.45,0,0,1,3.92,1,17.57,17.57,0,0,1,3.51,2.41,9.46,9.46,0,0,1,1.67,2.51l2-2.31c.28-.41.84-.38,1.68.11a10.81,10.81,0,0,1,2.51,2.14,18.17,18.17,0,0,1,2.19,3.09,6.1,6.1,0,0,1,.95,2.83,11.67,11.67,0,0,1-1.31,2q-1.09,1.47-2.67,3.51c-1.05,1.36-2.14,2.83-3.3,4.39s-2.21,3.09-3.19,4.56a11.92,11.92,0,0,1-.94,1.41,18.18,18.18,0,0,0-1.05,1.52l-.31.52a125,125,0,0,0,12.66-11.09q4.5-4.5,9.1-10.05c.91-.69,1.7-.78,2.36-.26s.75,1.31.26,2.36q-1.47,2.09-3.87,5C226.76,67,225.06,69,223.24,71Zm-50.54,45.2c.42.28,1.05-.1,1.89-1.15s2-2.62,3.45-4.71l3.24-5.44L178.77,107a28.87,28.87,0,0,0-2.82,2.25,22.84,22.84,0,0,0-2.57,2.67,7.18,7.18,0,0,0-1.41,2.51A1.46,1.46,0,0,0,172.7,116.19ZM184,84.49a5.7,5.7,0,0,0,2.31-1.1q1.66-1.11,3.92-2.83T195,76.69q2.52-2.14,4.81-4.24l3-5.12a5.94,5.94,0,0,1-2.25,0c-.52-.14-.51-.42,0-.84a16.57,16.57,0,0,0,2.25-2.25,34.9,34.9,0,0,0,2.56-3.3,11.29,11.29,0,0,0,1.57-3c.28-.91.07-1.43-.62-1.57-1.05-.14-2.6.51-4.66,1.93a49.36,49.36,0,0,0-6.33,5.34,81.69,81.69,0,0,0-6.12,6.75,30.33,30.33,0,0,0-4,6.07c-.35.7-.75,1.53-1.2,2.51A18.28,18.28,0,0,0,183,81.66a5.23,5.23,0,0,0-.26,2.09C182.82,84.31,183.24,84.56,184,84.49Z"/><path class="cls-2" d="M267.29,62.83l-2.61,2.93c-1.61,1.81-3.28,3.59-5,5.33a31.2,31.2,0,0,1-5.86,4.61l-2.4,1.51a5.21,5.21,0,0,1-2.62,1,3.05,3.05,0,0,1-1,.05,9.84,9.84,0,0,1-1-.16,45.46,45.46,0,0,1-3.34,3.61,29.6,29.6,0,0,1-3.77,3.09c-.63.42-1.4.94-2.3,1.57a33.54,33.54,0,0,1-6.28,3.4,10.4,10.4,0,0,1-3,.78,6.91,6.91,0,0,1-4.6-1.15,16.42,16.42,0,0,1-4.5-3.61,7.06,7.06,0,0,1-1.88-5.07A23.18,23.18,0,0,1,220,70.83a50.79,50.79,0,0,1,7.11-10.36,41.49,41.49,0,0,1,9.52-8,18,18,0,0,1,10.15-3,9.32,9.32,0,0,1,4,1,17.79,17.79,0,0,1,3.45,2.41,8.5,8.5,0,0,1,2.1,3.19,4.84,4.84,0,0,1,0,2.77,4.27,4.27,0,0,1,.57,3.14,9.73,9.73,0,0,1-2,4.39c-1,1.26-1.81,2.32-2.51,3.2s-1.2,1.53-1.52,2-.38.72-.21.79.65-.11,1.42-.52A18.21,18.21,0,0,0,254.84,70q1.57-1.2,3.3-2.77c1.15-1,2.28-2.14,3.4-3.3s2.16-2.25,3.14-3.29L267,58a1.87,1.87,0,0,1,2.41-.26c.69.52.8,1.31.31,2.36ZM228.58,84.49a4.6,4.6,0,0,0,2.77,0A15.45,15.45,0,0,0,235.07,83a35,35,0,0,0,4.18-2.77,53.15,53.15,0,0,0,4.19-3.56,7.32,7.32,0,0,1-2.36-4.71,9.29,9.29,0,0,1,1.21-5.76A10.09,10.09,0,0,1,243.85,64a23.06,23.06,0,0,1,2.31-2.2,22.35,22.35,0,0,1,2.61-1.88,12.7,12.7,0,0,1,2.62-1.26c.56-1.32.42-2.09-.42-2.3-1.05-.14-2.6.51-4.66,1.93A50.05,50.05,0,0,0,240,63.61a81.69,81.69,0,0,0-6.12,6.75,30.33,30.33,0,0,0-4,6.07l-1.15,2.3a16.18,16.18,0,0,0-1,2.41,4.32,4.32,0,0,0-.21,2.09A1.51,1.51,0,0,0,228.58,84.49Z"/></svg>