<svg id="Слой_1" data-name="Слой 1" xmlns="http://www.w3.org/2000/svg" viewBox="0 0 114 122"><defs><style>.cls-1{fill:#4a148c;}.cls-2{fill:#ffc800;}</style></defs><rect class="cls-1" x="-27" y="-4" width="153" height="131"/><path class="cls-2" d="M82.11,96.94H61.05V65.26c0-3.24-1.35-4.82-4-4.82s-4,1.58-4,4.82V96.94H32.05V65.62a25.65,25.65,0,0,1,7.26-18.49,23.88,23.88,0,0,1,17.77-7.45c8.06,0,14.47,2.93,19.29,8.73,3.78,4.52,5.68,10.87,5.68,19V96.94Z"/><path class="cls-2" d="M58,0A27.75,27.75,0,0,1,78.44,8.61,28.21,28.21,0,0,1,87,29.18a27.82,27.82,0,0,1-8.67,20.69,28.61,28.61,0,0,1-20.88,8.55,28.58,28.58,0,0,1-20.81-8.61A27.79,27.79,0,0,1,28,29.18,27.71,27.71,0,0,1,36.63,8.42,29.49,29.49,0,0,1,58,0Zm-.55,20.76a7.59,7.59,0,0,0-5.73,2.44,8.23,8.23,0,0,0-2.38,6,8.33,8.33,0,0,0,2.38,6,7.81,7.81,0,0,0,11.47,0,8.33,8.33,0,0,0,2.38-6,8.23,8.23,0,0,0-2.38-6A7.73,7.73,0,0,0,57.44,20.76Z"/><path class="cls-2" d="M93.52,52.44a10.21,10.21,0,0,1,3-7.39,10,10,0,0,1,14.35-.18,10.48,10.48,0,0,1,2.81,7.57A10.5,10.5,0,0,1,110.86,60a10,10,0,0,1-14.35-.19A10.42,10.42,0,0,1,93.52,52.44Z"/><path class="cls-2" d="M0,52.44a10.21,10.21,0,0,1,3-7.39,9.66,9.66,0,0,1,7.14-3.11,9.61,9.61,0,0,1,7.21,2.93,10.48,10.48,0,0,1,2.81,7.57A10.5,10.5,0,0,1,17.34,60a9.61,9.61,0,0,1-7.21,2.93A9.63,9.63,0,0,1,3,59.82,10.42,10.42,0,0,1,0,52.44Z"/><path class="cls-2" d="M91.75,122.09H22.4V101.46H91.75Z"/></svg>