<svg id="Слой_1" data-name="Слой 1" xmlns="http://www.w3.org/2000/svg" xmlns:xlink="http://www.w3.org/1999/xlink" viewBox="0 0 160 160"><defs><style>.cls-1{fill:none;}.cls-2{fill:#4a148c;}.cls-3{fill:#ffc800;}.cls-4,.cls-5,.cls-8{fill:#fff;}.cls-15,.cls-4{opacity:0.4;}.cls-12,.cls-5{opacity:0.3;}.cls-6{opacity:0.5;}.cls-7{opacity:0.7;}.cls-9{fill:#c8c8c8;}.cls-10{fill:#a8a8a8;}.cls-11{fill:#306;}.cls-13{opacity:0.2;}.cls-14{fill:#ececec;}.cls-16{clip-path:url(#clip-path);}.cls-17,.cls-18{opacity:0.1;}</style><clipPath id="clip-path"><rect class="cls-1" x="189.94" y="-4.72" width="174" height="169"/></clipPath></defs><rect class="cls-2" x="-491.56" y="-25.22" width="1537" height="226"/><path class="cls-3" d="M86.94,41.8l.11,115.47c.13.55.25,1,.36,1.35-.09,16.24,7.27,24,14.22,24.32l.67,0a13.43,13.43,0,0,0,8.33-2.94,14.6,14.6,0,0,0,4.09.55,18.37,18.37,0,0,0,13.84-6.3,30.66,30.66,0,0,0,16.17-8c7.28-6.75,8.66-17.94,8.93-22,8.32-10.62,5.71-20.51,2.09-25.95a16.23,16.23,0,0,0,.11-11.41,10.64,10.64,0,0,0,.74-7,14.72,14.72,0,0,0-5.27-7.67c1.61-8.1-1.49-13.54-4.57-16.77a21.84,21.84,0,0,0-4.82-3.78c1.26-8.82-3.64-13.82-7.46-16a16.31,16.31,0,0,0-9.28-12.06,22,22,0,0,0-6.4-1.91c-2.84-3-7.19-4.64-12.72-4.63a26.62,26.62,0,0,0-3,.16A12.12,12.12,0,0,0,86.94,41.8Z"/><path class="cls-3" d="M91.82,58.42S88,53.6,88.91,47.7s7.21-10.39,13.37-6.32c0,0,10.38-2,14.45,4.14,0,0,13.3.23,14.06,12.86,0,0,10.22,3.06,6.57,15.53,0,0,14.21,4.8,9.41,20,0,0,9.72,5.31,4.66,12.71,0,0,3.5,6.89-.49,12,0,0,10.31,10.55-1.22,24.1,0,0-.07,13.46-7.71,20.52s-15.44,7.16-15.44,7.16-3,4.08-7.4,5.41c-6.19,1.89-9.46-.57-9.46-.57a9.37,9.37,0,0,1-7.89,3.66c-5.24-.25-10.64-7.47-10.41-20.93,0,0-4.74-13.2,3.89-25.26,0,0-9.15-11.53-1.52-24.5,0,0-3.33-2.16-3.83-7.89s5-11.64,5-11.64-2.83-8.13,0-13C94.91,75.69,88.09,69.8,91.82,58.42Z"/><path class="cls-4" d="M91.82,58.42S88,53.6,88.91,47.7s7.21-10.39,13.37-6.32c0,0,10.38-2,14.45,4.14,0,0,13.3.23,14.06,12.86,0,0,10.22,3.06,6.57,15.53,0,0,14.21,4.8,9.41,20,0,0,9.72,5.31,4.66,12.71,0,0,3.5,6.89-.49,12,0,0,10.31,10.55-1.22,24.1,0,0-.07,13.46-7.71,20.52s-15.44,7.16-15.44,7.16-3,4.08-7.4,5.41c-6.19,1.89-9.46-.57-9.46-.57a9.37,9.37,0,0,1-7.89,3.66c-5.24-.25-10.64-7.47-10.41-20.93,0,0-4.74-13.2,3.89-25.26,0,0-9.15-11.53-1.52-24.5,0,0-3.33-2.16-3.83-7.89s5-11.64,5-11.64-2.83-8.13,0-13C94.91,75.69,88.09,69.8,91.82,58.42Z"/><path class="cls-5" d="M94.93,88.73s-5.48,5.91-5,11.64,3.83,7.89,3.83,7.89c-7.63,13,1.52,24.5,1.52,24.5C86.67,144.82,91.41,158,91.41,158c-.23,13.46,5.17,20.68,10.41,20.93a9.37,9.37,0,0,0,7.89-3.67s3.26,2.47,9.45.58c4.37-1.33,7.41-5.41,7.41-5.41s7.81-.09,15.44-7.15c4.06-3.76,6-9.32,6.89-13.7a21,21,0,0,1-4.92,8.18c-7.13,7-14.63,7.28-14.63,7.28a16,16,0,0,1-6.95,5.38c-5.89,2-9.09-.29-9.09-.29a9,9,0,0,1-7.47,3.73c-5-.1-10.41-6.88-10.55-19.8,0,0-4.91-12.54,3-24.34,0,0-9.09-10.82-2.12-23.47,0,0-3.25-2-3.88-7.47S96.8,87.51,96.8,87.51,93.86,79.77,96.43,75c0,0-6.7-5.47-3.43-16.49,0,0-3.8-4.52-3.09-10.2s6.65-10.16,12.66-6.43c0,0,9.91-2.21,14,3.58h.13c-4.1-6.07-14.41-4.07-14.41-4.07-6.16-4.07-12.46.42-13.38,6.32s2.92,10.71,2.92,10.71C88.1,69.8,94.91,75.69,94.91,75.69,92.09,80.59,94.93,88.73,94.93,88.73Z"/><path class="cls-3" d="M151.43,106.63c-3.12,1.68-6.77.81-9.57-1.06a19.33,19.33,0,0,1-2.7-2.28,8,8,0,0,0,5.25,5.18c2.37.78,5.6.38,7-1.84Z"/><path class="cls-3" d="M91.41,158c5.88,5.23,12.77,4.58,17.67-1.54-7.06,4.31-10,4.62-17.67,1.54Z"/><path class="cls-3" d="M126.57,170.45c4.07-2.42,5.23-8.16,3.78-12.43-.71,4.27-1.42,8.7-3.78,12.43Z"/><path class="cls-3" d="M150.94,118.67c-3.68,2.89-8.23,6.22-13.09,4.66a8.09,8.09,0,0,1-1.2-.53c-.17-.11-.51-.36-.68-.46,1.56,2.8,5.52,3.23,8.31,2.16a12.61,12.61,0,0,0,6.66-5.83Z"/><path class="cls-3" d="M130.79,58.38A11.52,11.52,0,0,1,129,62.44l.21.44a11.71,11.71,0,0,1,.55,9.67,7.41,7.41,0,0,0,1.76-7.81,9.26,9.26,0,0,0-1.24-2.55v.71a7,7,0,0,0,.56-4.52Z"/><path class="cls-3" d="M137.36,73.91a36.54,36.54,0,0,1-4.31,5.57,5.81,5.81,0,0,0,4.31-5.57Z"/><path class="cls-3" d="M116.73,45.52c.93,2.92,2.18,5.68,3.09,8.63a10.62,10.62,0,0,0-3.09-8.63Z"/><path class="cls-3" d="M105.48,53.34c2.2-4,1-9.9-3.2-12a22.5,22.5,0,0,1,1.57,2.79c1.35,2.88,1.55,6,1.63,9.17Z"/><path class="cls-3" d="M98,63a28.58,28.58,0,0,1-6.2-4.54A6.41,6.41,0,0,0,98,63Z"/><path class="cls-3" d="M94.91,75.69a6.22,6.22,0,0,0,4.57,2.78,8.74,8.74,0,0,0-4.57-2.78Z"/><path class="cls-3" d="M94.92,88.73a9.12,9.12,0,0,0,6.65,5c-.94-.81-2.32-1.77-3.32-2.51s-2.35-1.7-3.33-2.47Z"/><path class="cls-3" d="M93.78,108.26a14,14,0,0,0,8.56,3.81,49.29,49.29,0,0,0-8.56-3.81Z"/><path class="cls-3" d="M142.35,106.41a20.81,20.81,0,0,1-6.89,7.68c-5.66,3.62-13.62,3.37-18.68-1.26a25.78,25.78,0,0,1-6.12-8.42,20,20,0,0,0,5,9.54c3.89,4.22,10.21,5.54,15.65,4a16.4,16.4,0,0,0,11-11.5Z"/><path class="cls-3" d="M125.87,104.3c4.45-5.84,4.5-14.75-.45-20.32a18.83,18.83,0,0,0-5.58-4.49,32.94,32.94,0,0,1,4.65,5.2c4.2,5.72,4.08,13.22,1.38,19.61Z"/><path class="cls-3" d="M140.36,85.12a8.24,8.24,0,0,0-12.55,4.68c.67-.64,1.26-1.36,1.95-1.94,2.84-2.73,6.8-3.29,10.6-2.74Z"/><path class="cls-3" d="M116,60.05c-6.32,3.63-10.4,11.45-8.06,18.65a17.27,17.27,0,0,0,3.54,6.23,28.57,28.57,0,0,1-2.41-6.52c-1.59-6.93,2-13.61,6.93-18.36Z"/><path class="cls-3" d="M108.84,69.62A6.29,6.29,0,0,0,102.29,63,26.39,26.39,0,0,1,106,65.89a21.67,21.67,0,0,1,2.86,3.73Z"/><path class="cls-3" d="M106.86,146.05c-8.22-4-12-10.8-8.44-19.58a27.17,27.17,0,0,1,4.34-7,16.76,16.76,0,0,0-4.62,4.46c-6.41,9-2.3,20,8.72,22.12Z"/><path class="cls-3" d="M147.48,133.11c2.35,5.36,2.44,10.88-2.36,14.85a29,29,0,0,1-4.7,3.1c4.31-.78,8.76-3.66,9.74-8.23a11.24,11.24,0,0,0-2.68-9.72Z"/><path class="cls-3" d="M138.75,136.05c-6.66-3.36-15.54-2.27-20,4a17.39,17.39,0,0,0-3,6.62,27.73,27.73,0,0,1,3.86-5.87c4.76-5.51,12.36-6.31,19.15-4.78Z"/><path class="cls-3" d="M122.39,137.44c1.89-5.55-.65-13.07-6.67-14.75,4.72,3.64,6.25,9,6.67,14.75Z"/><path class="cls-3" d="M112.59,92.52c-7.49-3.55-15,1.22-15.37,9.41a26.52,26.52,0,0,1,2.36-4.49c2.85-4.44,8-5.58,13-4.92Z"/><path class="cls-3" d="M108.15,150.41c-2.11,8.54,4,14.51,12.38,11a23.54,23.54,0,0,1-5-.15c-5.51-.74-7-6-7.39-10.8Z"/><g class="cls-6"><path class="cls-3" d="M111.12,22.21A16.12,16.12,0,0,1,97,31.55a49.59,49.59,0,0,0-3.5,4.79L82.45,32a49.35,49.35,0,0,0,.7-5.89,16.09,16.09,0,0,1-4-16.47C81.35,2.52,90.27-5.73,101.82-1.18l.12.05C113.49,3.42,114.38,15.54,111.12,22.21Z"/></g><g class="cls-7"><path class="cls-3" d="M109.73,21.72A14.7,14.7,0,0,1,96.8,30.26,53.5,53.5,0,0,0,93,36.15l-10.09-4a54.42,54.42,0,0,0,1.24-6.9,14.72,14.72,0,0,1-3.63-15.06c2-6.5,10.14-14,20.7-9.89l.11,0C111.9,4.54,112.72,15.62,109.73,21.72Z"/></g><rect class="cls-8" x="77.22" y="24.06" width="18.98" height="1.33" transform="translate(46 105.18) rotate(-79.07)"/><rect class="cls-8" x="85.83" y="27.45" width="18.98" height="1.33" transform="translate(20.9 93.97) rotate(-57.94)"/><path class="cls-8" d="M92.84,23.71a1.9,1.9,0,0,1-.71-.13c-1-.4-1.55-1.65-1.73-3a1.42,1.42,0,0,1-1.11.1c-1.69-.66-1-4.35-1-4.5l.44.08c-.19,1-.42,3.57.7,4a1.16,1.16,0,0,0,.9-.16,8.39,8.39,0,0,1,.4-3.39c.39-1,1-1.4,1.66-1.14s1,1.07.55,2.12a6.09,6.09,0,0,1-2.14,2.64c.15,1.34.63,2.53,1.48,2.87a2.61,2.61,0,0,0,2.43-.74l.2-.16A4.9,4.9,0,0,1,95.1,19c.49-1.25,1.28-1.84,2.06-1.54a.91.91,0,0,1,.56.75c.16,1-.89,2.94-2.27,4.23a1.64,1.64,0,0,0,.86.8c1,.38,2.75-1.63,3.36-2.44L100,21c-.24.32-2.43,3.15-3.87,2.59a2.06,2.06,0,0,1-1-.92l-.11.09A3.65,3.65,0,0,1,92.84,23.71Zm3.92-5.93c-.53,0-1,.68-1.25,1.33a4.86,4.86,0,0,0-.23,2.83c1.19-1.17,2.13-2.86,2-3.71a.46.46,0,0,0-.29-.41A.62.62,0,0,0,96.76,17.78ZM92,15.91c-.4,0-.69.49-.86.94a7.32,7.32,0,0,0-.39,2.94,5.64,5.64,0,0,0,1.77-2.29c.22-.56.35-1.29-.3-1.54A.63.63,0,0,0,92,15.91Z"/><rect class="cls-9" x="79.04" y="33.89" width="14.85" height="8.17" transform="translate(19.94 -29.05) rotate(21.5)"/><path class="cls-9" d="M90.3,43.88c-1.38,1.12-3.44,1.8-6.41.63s-4-3.07-4.27-4.83Z"/><path class="cls-10" d="M90.3,43.88A5.35,5.35,0,0,1,89,44.7l-9.23-4.48c0-.18-.07-.36-.1-.54Z"/><polygon class="cls-10" points="94.7 38.51 79.54 34.1 79.8 33.44 94.96 37.84 94.7 38.51"/><polygon class="cls-10" points="93.91 40.52 78.75 36.11 79.01 35.44 94.17 39.85 93.91 40.52"/><polygon class="cls-10" points="93.12 42.52 77.96 38.11 78.22 37.45 93.38 41.86 93.12 42.52"/><g class="cls-6"><path class="cls-8" d="M83.58,8.68c.47.29,2.16-2.07,6.16-4,1.78-.85,7.18-.66,7.45-2.35S92.6.59,89.51,2.21C84.52,4.83,83.14,8.42,83.58,8.68Z"/><path class="cls-8" d="M108.28,19.05a.78.78,0,0,0,.58-1.45A.78.78,0,0,0,108.28,19.05Z"/><path class="cls-8" d="M99.44,28.14c.35.59,3.72-.72,5.91-3,1.82-1.9,3.1-4.69,2.54-5.1s-2.5,3.35-3.82,4.5C102.41,26,99.06,27.51,99.44,28.14Z"/></g><path class="cls-3" d="M27.78,59.45a3,3,0,0,0,1.68,3.88A3,3,0,0,0,32,63.17a1.38,1.38,0,0,1,1.25-.1,1.44,1.44,0,0,1,.82,1.86l-2.76,7L12.24,64.34l2.75-7a1.43,1.43,0,0,1,2.7.13A3,3,0,1,0,19.09,54a1.51,1.51,0,0,1-1.26.1,1.42,1.42,0,0,1-.8-1.85l2.76-7,7,2.76A1.44,1.44,0,0,0,28.51,46,3,3,0,1,1,32,47.34a1.48,1.48,0,0,0-.93.85A1.41,1.41,0,0,0,31.9,50l7,2.76-2.76,7a1.43,1.43,0,0,1-1.86.8,1.5,1.5,0,0,1-.85-.93,2.92,2.92,0,0,0-1.74-1.88A3,3,0,0,0,27.78,59.45Z"/><path class="cls-3" d="M25.07,23l2.75,17.38-6.34,1a1.21,1.21,0,0,1-1.4-1,1.25,1.25,0,0,1,.32-1A2.56,2.56,0,1,0,16,38a2.54,2.54,0,0,0,1.23,1.81,1.27,1.27,0,0,1,.62.89,1.22,1.22,0,0,1-1,1.4l-6.36,1-1-6.34a1.21,1.21,0,0,0-1.4-1,1.24,1.24,0,0,0-.89.62,2.56,2.56,0,0,1-4.73-.9,2.58,2.58,0,0,1,2.13-2.94,2.54,2.54,0,0,1,2.1.63,1.25,1.25,0,0,0,1,.32,1.23,1.23,0,0,0,1-1.4l-1-6.36,6.35-1a1.22,1.22,0,0,1,1.4,1,1.27,1.27,0,0,1-.31,1,2.51,2.51,0,0,0-.62,2.09,2.56,2.56,0,1,0,5.06-.8,2.59,2.59,0,0,0-1.24-1.8,1.24,1.24,0,0,1,.4-2.3Z"/><path class="cls-3" d="M23.8,110.82a3,3,0,0,0,5.32,1.85,1.44,1.44,0,0,1,2.58.84l.08,7.49-20.52.22-.08-7.49a1.41,1.41,0,0,1,1.41-1.44,1.43,1.43,0,0,1,1.13.54,3,3,0,0,0,2.33,1.07,3,3,0,1,0-2.37-4.85,1.46,1.46,0,0,1-1.12.56,1.42,1.42,0,0,1-1.44-1.41L11,100.7l7.48-.08a1.43,1.43,0,0,0,1.42-1.45,1.47,1.47,0,0,0-.57-1.12,3,3,0,1,1,4.86-2.37A3,3,0,0,1,23.15,98a1.52,1.52,0,0,0-.54,1.14,1.44,1.44,0,0,0,1.45,1.41l7.5-.08.08,7.5a1.44,1.44,0,0,1-1.43,1.44,1.46,1.46,0,0,1-1.13-.54,3,3,0,0,0-2.32-1.08A3,3,0,0,0,23.8,110.82Z"/><path class="cls-3" d="M7.5,78.06l9.12,15-5.49,3.33A1.22,1.22,0,0,1,9.45,96,1.25,1.25,0,0,1,9.35,95a2.57,2.57,0,0,0-3.75-3,2.57,2.57,0,0,0,1,4.73,1.27,1.27,0,0,1,.91.59,1.23,1.23,0,0,1-.41,1.68l-5.5,3.33-3.33-5.49a1.21,1.21,0,0,0-1.68-.41,1.21,1.21,0,0,0-.58.91,2.58,2.58,0,0,1-1.21,1.82,2.56,2.56,0,0,1-3.52-.87,2.56,2.56,0,0,1,.87-3.52,2.53,2.53,0,0,1,2.17-.21,1.28,1.28,0,0,0,1.08-.1,1.22,1.22,0,0,0,.41-1.68l-3.33-5.5L-2,83.85a1.24,1.24,0,0,1,1.69.42,1.28,1.28,0,0,1,.09,1.08A2.5,2.5,0,0,0,0,87.52a2.56,2.56,0,1,0,4.37-2.65,2.58,2.58,0,0,0-1.82-1.21A1.23,1.23,0,0,1,2,81.39Z"/><path class="cls-11" d="M20.41,144.38c.27,4,1.68,15.22,9,22a30.61,30.61,0,0,0,16.18,8,18.36,18.36,0,0,0,13.86,6.28,14.68,14.68,0,0,0,4.09-.56A13.42,13.42,0,0,0,71.84,183l.67,0c6.95-.34,14.29-8.11,14.17-24.35.11-.35.23-.81.36-1.36h0L86.94,41.8h0a12.11,12.11,0,0,0-16.15-4.54,26.76,26.76,0,0,0-3-.16c-5.54,0-9.88,1.61-12.71,4.66a22,22,0,0,0-6.41,1.92,16.32,16.32,0,0,0-9.25,12.08C35.61,58,30.72,63,32,71.77a22.29,22.29,0,0,0-4.82,3.79c-3.07,3.25-6.15,8.69-4.53,16.78A14.77,14.77,0,0,0,17.39,100a10.71,10.71,0,0,0,.75,7,16.24,16.24,0,0,0,.13,11.41C14.66,123.88,12.07,133.77,20.41,144.38Z"/><path class="cls-11" d="M82.09,58.42S85.91,53.6,85,47.7s-7.24-10.37-13.38-6.3c0,0-10.39-2-14.45,4.17,0,0-13.3.26-14,12.89,0,0-10.22,3.08-6.55,15.54,0,0-14.2,4.83-9.37,20,0,0-9.72,5.32-4.64,12.71,0,0-3.49,6.9.51,12.05,0,0-10.29,10.56,1.26,24.09,0,0,.1,13.46,7.75,20.51s15.46,7.13,15.46,7.13,3,4.07,7.41,5.4c6.19,1.87,9.46-.59,9.46-.59A9.33,9.33,0,0,0,72.31,179c5.24-.25,10.63-7.48,10.37-20.94,0,0,4.72-13.21-3.93-25.25,0,0,9.13-11.56,1.47-24.51,0,0,3.32-2.16,3.82-7.89s-5-11.63-5-11.63,2.82-8.14,0-13C79,75.71,85.84,69.8,82.09,58.42Z"/><path class="cls-4" d="M82.09,58.42S85.91,53.6,85,47.7s-7.24-10.37-13.38-6.3c0,0-10.39-2-14.45,4.17,0,0-13.3.26-14,12.89,0,0-10.22,3.08-6.55,15.54,0,0-14.2,4.83-9.37,20,0,0-9.72,5.32-4.64,12.71,0,0-3.49,6.9.51,12.05,0,0-10.29,10.56,1.26,24.09,0,0,.1,13.46,7.75,20.51s15.46,7.13,15.46,7.13,3,4.07,7.41,5.4c6.19,1.87,9.46-.59,9.46-.59A9.33,9.33,0,0,0,72.31,179c5.24-.25,10.63-7.48,10.37-20.94,0,0,4.72-13.21-3.93-25.25,0,0,9.13-11.56,1.47-24.51,0,0,3.32-2.16,3.82-7.89s-5-11.63-5-11.63,2.82-8.14,0-13C79,75.71,85.84,69.8,82.09,58.42Z"/><g class="cls-12"><path class="cls-8" d="M72.43,41.16a9.3,9.3,0,0,1,1.81-1,9.43,9.43,0,0,0-2.16,1Z"/><path class="cls-8" d="M24.34,142.88s.1,13.46,7.75,20.51,15.46,7.14,15.46,7.14,3,4.06,7.41,5.39c6.19,1.87,9.45-.59,9.45-.59a9.35,9.35,0,0,0,7.9,3.64c3.52-.17,7.12-3.5,9-9.77a7.9,7.9,0,0,1-5.57,3.47,8.93,8.93,0,0,1-7.63-3.33s-3.07,2.42-9,.74a16,16,0,0,1-7.18-5s-7.47.08-14.92-6.52-7.8-19.46-7.8-19.46c-11.31-12.72-1.67-23-1.67-23-3.92-4.85-.73-11.51-.73-11.51-5-7,4.2-12.25,4.2-12.25C26.08,77.89,39.56,73,39.56,73c-3.75-11.84,6-15,6-15C46,45.92,58.69,45.42,58.69,45.42c1.71-2.71,4.71-3.84,7.46-4.26-3.16.24-6.91,1.25-9,4.41,0,0-13.3.26-14,12.89,0,0-10.22,3.08-6.55,15.54,0,0-14.2,4.83-9.37,20,0,0-9.72,5.33-4.64,12.71,0,0-3.48,6.9.51,12.05C23.08,118.79,12.79,129.35,24.34,142.88Z"/><path class="cls-4" d="M72.43,41.16a9.3,9.3,0,0,1,1.81-1,9.43,9.43,0,0,0-2.16,1Z"/><path class="cls-5" d="M24.34,142.88s.1,13.46,7.75,20.51,15.46,7.14,15.46,7.14,3,4.06,7.41,5.39c6.19,1.87,9.45-.59,9.45-.59a9.35,9.35,0,0,0,7.9,3.64c3.52-.17,7.12-3.5,9-9.77a7.9,7.9,0,0,1-5.57,3.47,8.93,8.93,0,0,1-7.63-3.33s-3.07,2.42-9,.74a16,16,0,0,1-7.18-5s-7.47.08-14.92-6.52-7.8-19.46-7.8-19.46c-11.31-12.72-1.67-23-1.67-23-3.92-4.85-.73-11.51-.73-11.51-5-7,4.2-12.25,4.2-12.25C26.08,77.89,39.56,73,39.56,73c-3.75-11.84,6-15,6-15C46,45.92,58.69,45.42,58.69,45.42c1.71-2.71,4.71-3.84,7.46-4.26-3.16.24-6.91,1.25-9,4.41,0,0-13.3.26-14,12.89,0,0-10.22,3.08-6.55,15.54,0,0-14.2,4.83-9.37,20,0,0-9.72,5.33-4.64,12.71,0,0-3.48,6.9.51,12.05C23.08,118.79,12.79,129.35,24.34,142.88Z"/></g><path class="cls-11" d="M66.15,41.16a23,23,0,0,1,5.46.24l.47-.29A21.71,21.71,0,0,0,66.15,41.16Z"/><path class="cls-4" d="M66.15,41.16a23,23,0,0,1,5.46.24l.47-.29A21.71,21.71,0,0,0,66.15,41.16Z"/><path class="cls-11" d="M22.57,106.74c1.43,2.23,4.66,2.62,7,1.83a8,8,0,0,0,5.24-5.19,19.53,19.53,0,0,1-2.7,2.29c-2.79,1.87-6.44,2.75-9.56,1.07Z"/><path class="cls-11" d="M82.68,158c-7.68,3.1-10.62,2.79-17.67-1.51,4.91,6.12,11.8,6.74,17.67,1.51Z"/><path class="cls-11" d="M47.55,170.52c-2.37-3.72-3.09-8.16-3.81-12.43-1.45,4.28-.27,10,3.81,12.43Z"/><path class="cls-11" d="M23.08,118.79a12.59,12.59,0,0,0,6.67,5.81c2.79,1.07,6.75.63,8.31-2.17-.18.1-.52.35-.68.46a8.57,8.57,0,0,1-1.2.53c-4.86,1.57-9.41-1.75-13.1-4.63Z"/><path class="cls-11" d="M43.13,58.46A7,7,0,0,0,43.69,63l0-.71a9.48,9.48,0,0,0-1.22,2.55,7.37,7.37,0,0,0,1.77,7.8A11.69,11.69,0,0,1,44.75,63l.21-.44a11.35,11.35,0,0,1-1.83-4.06Z"/><path class="cls-11" d="M36.58,74a5.8,5.8,0,0,0,4.32,5.56A35.91,35.91,0,0,1,36.58,74Z"/><path class="cls-11" d="M57.16,45.57a10.64,10.64,0,0,0-3.07,8.64c.89-3,2.15-5.72,3.07-8.64Z"/><path class="cls-11" d="M68.42,53.37c0-4.3.66-8.39,3.19-12-4.23,2.08-5.39,8-3.19,12Z"/><path class="cls-11" d="M75.9,63a6.41,6.41,0,0,0,6.19-4.56A28.28,28.28,0,0,1,75.9,63Z"/><path class="cls-11" d="M79,75.71a8.78,8.78,0,0,0-4.57,2.78A6.19,6.19,0,0,0,79,75.71Z"/><path class="cls-11" d="M79,88.75c-1,.77-2.32,1.74-3.32,2.47s-2.37,1.7-3.32,2.52a9.13,9.13,0,0,0,6.64-5Z"/><path class="cls-11" d="M80.22,108.27a48.54,48.54,0,0,0-8.55,3.83,14.06,14.06,0,0,0,8.55-3.83Z"/><path class="cls-11" d="M31.65,106.51a16.38,16.38,0,0,0,11,11.48c5.44,1.57,11.76.24,15.64-4a19.9,19.9,0,0,0,5-9.54,25.83,25.83,0,0,1-6.1,8.43c-5.06,4.63-13,4.9-18.68,1.29a20.79,20.79,0,0,1-6.9-7.67Z"/><path class="cls-11" d="M48.13,104.37C45.41,98,45.28,90.49,49.46,84.76a33.5,33.5,0,0,1,4.65-5.21,19,19,0,0,0-5.58,4.5c-4.94,5.57-4.87,14.49-.4,20.32Z"/><path class="cls-11" d="M33.6,85.22c3.8-.56,7.76,0,10.61,2.71.69.59,1.28,1.3,1.95,1.94A8.24,8.24,0,0,0,33.6,85.22Z"/><path class="cls-11" d="M57.92,60.11c4.9,4.73,8.53,11.4,7,18.34A28,28,0,0,1,62.48,85,17.24,17.24,0,0,0,66,78.74c2.33-7.2-1.77-15-8.09-18.63Z"/><path class="cls-11" d="M65.09,69.65A21.56,21.56,0,0,1,68,65.92,25.73,25.73,0,0,1,71.63,63a6.29,6.29,0,0,0-6.54,6.66Z"/><path class="cls-11" d="M67.21,146.08C78.23,144,82.32,133,75.89,124a16.8,16.8,0,0,0-4.63-4.46,27.38,27.38,0,0,1,4.35,7c3.59,8.78-.19,15.63-8.4,19.59Z"/><path class="cls-11" d="M26.57,133.22A11.23,11.23,0,0,0,23.9,143c1,4.56,5.45,7.43,9.76,8.2A29.46,29.46,0,0,1,29,148.06c-4.8-3.95-4.72-9.48-2.38-14.84Z"/><path class="cls-11" d="M35.3,136.14c6.78-1.54,14.39-.75,19.16,4.74a28.29,28.29,0,0,1,3.87,5.87,17.3,17.3,0,0,0-3-6.61c-4.52-6.29-13.41-7.37-20.06-4Z"/><path class="cls-11" d="M51.66,137.51c.42-5.72,1.93-11.12,6.64-14.76-6,1.68-8.54,9.2-6.64,14.76Z"/><path class="cls-11" d="M61.39,92.57c5-.67,10.15.45,13,4.89A26.55,26.55,0,0,1,76.77,102c-.41-8.2-7.91-12.94-15.38-9.38Z"/><path class="cls-11" d="M65.93,150.44c-.38,4.86-1.86,10.07-7.38,10.82a22.87,22.87,0,0,1-5,.16c8.37,3.55,14.5-2.45,12.37-11Z"/><path class="cls-3" d="M176.89,41.28l-.09,1.38c-3.15,2.61-6.54,10.44-8.2,9.67-.3-.14-.44-.62-.49-1.3-.15-2.2.68-6.45.09-7.22A18.76,18.76,0,0,0,166,43l-.06,0-.07,0v0l-1.61,5.42c-7.38,12.13-16,36.54-13.21,44.75L151,95v0l.26.09.1,0,1.62.51c9.63,4.45,32.83-50.78,26.27-53.69l-.33-.1-1.39-.45-.66-.22ZM161.68,58.85c.89-2.37,2.39-4,3.36-3.63s1,2.57.15,5-2.4,4-3.37,3.64S160.79,61.23,161.68,58.85Z"/><path class="cls-3" d="M176.89,41.28c-3,0-6.45,7.38-8.78,9.75-.56.57-1.06.86-1.46.67-1.4-.64.44-8.2-.65-8.66l-.06,0a.08.08,0,0,0-.07,0c-.23,0-.56.25-1,.8C155.92,54.65,142.56,91.16,151,95h0l.26.11.1,0c10.25,3.06,33-50.75,26.23-53.71l-.06,0-.22-.08A1.73,1.73,0,0,0,176.89,41.28ZM161.82,63.81c-1-.37-1-2.58-.14-5s2.39-4,3.36-3.63,1,2.57.15,5S162.79,64.17,161.82,63.81Z"/><path class="cls-13" d="M176.89,41.28c-3,0-6.45,7.38-8.78,9.75-.56.57-1.06.86-1.46.67-1.4-.64.44-8.2-.65-8.66l-.06,0a.08.08,0,0,0-.07,0c-.23,0-.56.25-1,.8C155.92,54.65,142.56,91.16,151,95h0l.26.11.1,0c10.25,3.06,33-50.75,26.23-53.71l-.06,0-.22-.08A1.73,1.73,0,0,0,176.89,41.28ZM161.82,63.81c-1-.37-1-2.58-.14-5A7.21,7.21,0,0,1,164,55.44a1.16,1.16,0,0,1,1-.22c1,.36,1,2.57.15,5a9.73,9.73,0,0,1-1.2,2.28C163.24,63.48,162.43,64,161.82,63.81Z"/><path class="cls-3" d="M155.27,69.19c2.11-.6,2.3,2.31,1.89,3.62s-1.76,5-3.62,4c-1.11-.6-1-2-.48-3.22C153.2,71.76,153.83,69.59,155.27,69.19Z"/><path class="cls-4" d="M155.27,69.19c2.11-.6,2.3,2.31,1.89,3.62s-1.76,5-3.62,4c-1.11-.6-1-2-.48-3.22C153.2,71.76,153.83,69.59,155.27,69.19Z"/><path class="cls-14" d="M151.74,87.74c1.09,2.25,3.9,1.07,5-.49a18.39,18.39,0,0,0,1.87-4,2.14,2.14,0,0,0-.48-2.57c-1.67-1.19-3.17.32-4.16,1.88C152.34,84,150.86,86,151.74,87.74Z"/><path class="cls-3" d="M158.39,62.67s-4.19-7.15-8.86-14.35-8.24-19-7.84-19.55,7.5,9.76,11.22,17.37,7,15.54,7,15.54Z"/><polygon class="cls-9" points="158.4 62.87 155.29 58.08 158.03 56.66 160.23 61.84 158.4 62.87"/><path class="cls-3" d="M158.4,62.87a5.68,5.68,0,0,0,2.1,4.76,5.48,5.48,0,0,1,2.14,3.82s2.36-6.06-2.41-9.61Z"/><path class="cls-15" d="M158.4,62.87a5.68,5.68,0,0,0,2.1,4.76,5.48,5.48,0,0,1,2.14,3.82s2.36-6.06-2.41-9.61Z"/><g class="cls-16"><rect class="cls-3" x="112.41" y="144.88" width="72.45" height="16.01" transform="translate(297.28 305.76) rotate(180)"/><g class="cls-17"><path d="M159.38,146.34a40.18,40.18,0,0,1,0,12.81,39.9,39.9,0,0,1,0-12.81Z"/><path d="M155.46,146.34a39.9,39.9,0,0,1,0,12.81,40.18,40.18,0,0,1,0-12.81Z"/><path d="M139.28,146.34a40.18,40.18,0,0,1,0,12.81,39.9,39.9,0,0,1,0-12.81Z"/><path d="M135.54,146.34a40.18,40.18,0,0,1,0,12.81,39.9,39.9,0,0,1,0-12.81Z"/><path d="M128.67,146.34a39.9,39.9,0,0,1,0,12.81,40.18,40.18,0,0,1,0-12.81Z"/><path d="M142.4,146.34a39.61,39.61,0,0,1,0,12.81,40.18,40.18,0,0,1,0-12.81Z"/><path d="M150.31,146.34a39.9,39.9,0,0,1,0,12.81,40.18,40.18,0,0,1,0-12.81Z"/><path d="M147.62,146.34a40.18,40.18,0,0,1,0,12.81,39.9,39.9,0,0,1,0-12.81Z"/><path d="M119.72,146.34a40.18,40.18,0,0,1,0,12.81,39.9,39.9,0,0,1,0-12.81Z"/><path d="M115.67,146.34a39.9,39.9,0,0,1,0,12.81,40.18,40.18,0,0,1,0-12.81Z"/><path d="M125.48,146.34a39.9,39.9,0,0,1,0,12.81,40.18,40.18,0,0,1,0-12.81Z"/></g><polygon class="cls-18" points="112.42 144.88 112.42 148.28 184.87 150.56 184.87 144.88 112.42 144.88"/><rect class="cls-3" x="117.37" y="128.87" width="72.45" height="16.01" transform="translate(307.19 273.74) rotate(180)"/><g class="cls-17"><path d="M160.42,130.33a40.18,40.18,0,0,1,0,12.81,39.9,39.9,0,0,1,0-12.81Z"/><path d="M144.23,130.33a39.9,39.9,0,0,1,0,12.81,40.18,40.18,0,0,1,0-12.81Z"/><path d="M140.49,130.33a39.9,39.9,0,0,1,0,12.81,40.18,40.18,0,0,1,0-12.81Z"/><path d="M133.63,130.33a40.18,40.18,0,0,1,0,12.81,39.9,39.9,0,0,1,0-12.81Z"/><path d="M147.36,130.33a40.18,40.18,0,0,1,0,12.81,40.18,40.18,0,0,1,0-12.81Z"/><path d="M155.27,130.33a40.18,40.18,0,0,1,0,12.81,39.9,39.9,0,0,1,0-12.81Z"/><path d="M152.57,130.33a39.9,39.9,0,0,1,0,12.81,40.18,40.18,0,0,1,0-12.81Z"/><path d="M124.67,130.33a39.9,39.9,0,0,1,0,12.81,40.18,40.18,0,0,1,0-12.81Z"/><path d="M120.63,130.33a40.18,40.18,0,0,1,0,12.81,39.9,39.9,0,0,1,0-12.81Z"/><path d="M130.44,130.33a40.18,40.18,0,0,1,0,12.81,39.9,39.9,0,0,1,0-12.81Z"/></g><polygon class="cls-18" points="117.38 128.87 117.38 132.27 189.82 134.56 189.82 128.87 117.38 128.87"/><rect class="cls-3" x="100.97" y="96.98" width="72.45" height="16.01" transform="translate(274.38 209.97) rotate(180)"/><g class="cls-17"><path d="M147.93,98.45a40.18,40.18,0,0,1,0,12.81,39.9,39.9,0,0,1,0-12.81Z"/><path d="M144,98.45a39.61,39.61,0,0,1,0,12.81,40.18,40.18,0,0,1,0-12.81Z"/><path d="M127.83,98.45a40.18,40.18,0,0,1,0,12.81,39.9,39.9,0,0,1,0-12.81Z"/><path d="M124.09,98.45a40.18,40.18,0,0,1,0,12.81,39.9,39.9,0,0,1,0-12.81Z"/><path d="M117.22,98.45a39.9,39.9,0,0,1,0,12.81,40.18,40.18,0,0,1,0-12.81Z"/><path d="M131,98.45a40.18,40.18,0,0,1,0,12.81,39.61,39.61,0,0,1,0-12.81Z"/><path d="M157.62,98.45a40.18,40.18,0,0,1,0,12.81,39.9,39.9,0,0,1,0-12.81Z"/><path d="M138.86,98.45a39.9,39.9,0,0,1,0,12.81,40.18,40.18,0,0,1,0-12.81Z"/><path d="M136.17,98.45a40.18,40.18,0,0,1,0,12.81,39.9,39.9,0,0,1,0-12.81Z"/><path d="M108.27,98.45a40.18,40.18,0,0,1,0,12.81,39.9,39.9,0,0,1,0-12.81Z"/><path d="M104.22,98.45a39.9,39.9,0,0,1,0,12.81,40.18,40.18,0,0,1,0-12.81Z"/><path d="M114,98.45a39.9,39.9,0,0,1,0,12.81,40.18,40.18,0,0,1,0-12.81Z"/><path d="M151.06,98.45a40.18,40.18,0,0,1,0,12.81,39.9,39.9,0,0,1,0-12.81Z"/></g><polygon class="cls-18" points="100.97 96.98 100.97 100.38 173.42 102.67 173.42 96.98 100.97 96.98"/><rect class="cls-3" x="108.01" y="80.97" width="72.45" height="16.01" transform="translate(288.46 177.95) rotate(180)"/><g class="cls-17"><path d="M111.26,95.25a40.18,40.18,0,0,1,0-12.81,39.9,39.9,0,0,1,0,12.81Z"/><path d="M116.66,95.25a39.9,39.9,0,0,1,0-12.81,40.18,40.18,0,0,1,0,12.81Z"/><path d="M119.3,95.25a39.61,39.61,0,0,1,0-12.81,40.18,40.18,0,0,1,0,12.81Z"/><path d="M133.77,95.25a39.9,39.9,0,0,1,0-12.81,39.9,39.9,0,0,1,0,12.81Z"/><path d="M137.68,95.25a40.18,40.18,0,0,1,0-12.81,40.18,40.18,0,0,1,0,12.81Z"/><path d="M153.87,95.25a39.9,39.9,0,0,1,0-12.81,40.18,40.18,0,0,1,0,12.81Z"/><path d="M157.61,95.25a39.9,39.9,0,0,1,0-12.81,40.18,40.18,0,0,1,0,12.81Z"/><path d="M150.74,95.25a40.18,40.18,0,0,1,0-12.81,40.18,40.18,0,0,1,0,12.81Z"/><path d="M124.08,95.25a39.9,39.9,0,0,1,0-12.81,40.18,40.18,0,0,1,0,12.81Z"/><path d="M142.83,95.25a40.18,40.18,0,0,1,0-12.81,39.9,39.9,0,0,1,0,12.81Z"/><path d="M145.53,95.25a39.9,39.9,0,0,1,0-12.81,40.18,40.18,0,0,1,0,12.81Z"/><path d="M130.64,95.25a39.9,39.9,0,0,1,0-12.81,40.18,40.18,0,0,1,0,12.81Z"/></g><polygon class="cls-18" points="108.01 80.97 108.01 84.37 180.46 86.66 180.46 80.97 108.01 80.97"/><rect class="cls-3" x="118.71" y="64.96" width="72.45" height="16.01" transform="translate(309.87 145.93) rotate(180)"/><g class="cls-17"><path d="M145.57,66.43a39.9,39.9,0,0,1,0,12.81,40.18,40.18,0,0,1,0-12.81Z"/><path d="M141.83,66.43a39.9,39.9,0,0,1,0,12.81,40.18,40.18,0,0,1,0-12.81Z"/><path d="M135,66.43a39.9,39.9,0,0,1,0,12.81,40.18,40.18,0,0,1,0-12.81Z"/><path d="M148.7,66.43a40.18,40.18,0,0,1,0,12.81,39.9,39.9,0,0,1,0-12.81Z"/><path d="M156.61,66.43a40.18,40.18,0,0,1,0,12.81,39.9,39.9,0,0,1,0-12.81Z"/><path d="M153.91,66.43a40.18,40.18,0,0,1,0,12.81,39.9,39.9,0,0,1,0-12.81Z"/><path d="M126,66.43a39.9,39.9,0,0,1,0,12.81,40.18,40.18,0,0,1,0-12.81Z"/><path d="M122,66.43a40.18,40.18,0,0,1,0,12.81,39.9,39.9,0,0,1,0-12.81Z"/><path d="M131.78,66.43a40.18,40.18,0,0,1,0,12.81,39.9,39.9,0,0,1,0-12.81Z"/></g><polygon class="cls-18" points="118.71 64.96 118.71 68.36 191.16 70.65 191.16 64.96 118.71 64.96"/><rect class="cls-3" x="112.41" y="112.99" width="72.45" height="16.01" transform="translate(297.28 241.99) rotate(180)"/><g class="cls-17"><path d="M115.67,127.27a40.18,40.18,0,0,1,0-12.81,39.9,39.9,0,0,1,0,12.81Z"/><path d="M121.07,127.27a39.9,39.9,0,0,1,0-12.81,40.18,40.18,0,0,1,0,12.81Z"/><path d="M123.7,127.27a40.18,40.18,0,0,1,0-12.81,39.9,39.9,0,0,1,0,12.81Z"/><path d="M138.17,127.27a40.18,40.18,0,0,1,0-12.81,39.9,39.9,0,0,1,0,12.81Z"/><path d="M142.09,127.27a39.9,39.9,0,0,1,0-12.81,40.18,40.18,0,0,1,0,12.81Z"/><path d="M158.28,127.27a39.9,39.9,0,0,1,0-12.81,39.9,39.9,0,0,1,0,12.81Z"/><path d="M155.15,127.27a39.9,39.9,0,0,1,0-12.81,40.18,40.18,0,0,1,0,12.81Z"/><path d="M128.49,127.27a39.9,39.9,0,0,1,0-12.81,40.18,40.18,0,0,1,0,12.81Z"/><path d="M147.24,127.27a39.9,39.9,0,0,1,0-12.81,40.18,40.18,0,0,1,0,12.81Z"/><path d="M149.94,127.27a39.9,39.9,0,0,1,0-12.81,40.18,40.18,0,0,1,0,12.81Z"/><path d="M135.05,127.27a39.9,39.9,0,0,1,0-12.81,40.18,40.18,0,0,1,0,12.81Z"/></g><polygon class="cls-18" points="112.42 112.99 112.42 116.39 184.87 118.68 184.87 112.99 112.42 112.99"/><rect class="cls-3" x="43.02" y="116.65" width="72.45" height="16.01" transform="translate(225.67 105.27) rotate(114.9)"/><g class="cls-17"><path d="M71.05,157.2a40,40,0,0,1-11.62-5.39,40,40,0,0,1,11.62,5.39Z"/><path d="M73.32,152.31a40,40,0,0,1-11.62-5.4,40,40,0,0,1,11.62,5.4Z"/><path d="M74.43,149.92a40.24,40.24,0,0,1-11.62-5.4,40,40,0,0,1,11.62,5.4Z"/><path d="M80.52,136.79A40.07,40.07,0,0,1,68.9,131.4a40,40,0,0,1,11.62,5.39Z"/><path d="M82.17,133.24a40,40,0,0,1-11.62-5.39,40,40,0,0,1,11.62,5.39Z"/><path d="M89,118.56a40,40,0,0,1-11.62-5.4A40,40,0,0,1,89,118.56Z"/><path d="M90.56,115.17a40.24,40.24,0,0,1-11.62-5.4,40,40,0,0,1,11.62,5.4Z"/><path d="M93.45,108.94a40.36,40.36,0,0,1-11.62-5.4,40,40,0,0,1,11.62,5.4Z"/><path d="M87.67,121.39A40,40,0,0,1,76.05,116a40.21,40.21,0,0,1,11.62,5.39Z"/><path d="M76.44,145.58a39.92,39.92,0,0,1-11.61-5.4,40,40,0,0,1,11.61,5.4Z"/><path d="M84.34,128.57a40.21,40.21,0,0,1-11.62-5.39,39.69,39.69,0,0,1,11.62,5.39Z"/><path d="M85.48,126.12a39.83,39.83,0,0,1-11.62-5.39,40,40,0,0,1,11.62,5.39Z"/><path d="M97.22,100.82a40,40,0,0,1-11.62-5.4,40,40,0,0,1,11.62,5.4Z"/><path d="M98.93,97.15a39.85,39.85,0,0,1-11.62-5.4,40,40,0,0,1,11.62,5.4Z"/><path d="M94.79,106a39.89,39.89,0,0,1-11.61-5.39A40.15,40.15,0,0,1,94.79,106Z"/><path d="M79.21,139.63a40,40,0,0,1-11.62-5.4,40,40,0,0,1,11.62,5.4Z"/></g><polygon class="cls-18" points="56.73 154.14 59.82 155.57 92.39 90.82 87.23 88.43 56.73 154.14"/><polygon class="cls-8" points="119.79 82.25 121.35 79.4 122.91 82.25 125.77 83.82 122.91 85.38 121.35 88.23 119.79 85.38 116.93 83.82 119.79 82.25"/><polygon class="cls-8" points="69.98 133.45 71.54 130.59 73.11 133.45 75.96 135.01 73.11 136.57 71.54 139.43 69.98 136.57 67.12 135.01 69.98 133.45"/><polygon class="cls-8" points="150.29 141.47 151.28 139.66 152.27 141.47 154.07 142.46 152.27 143.44 151.28 145.25 150.29 143.44 148.48 142.46 150.29 141.47"/><polygon class="cls-8" points="157.57 70.99 158.56 69.18 159.55 70.99 161.36 71.98 159.55 72.97 158.56 74.77 157.57 72.97 155.76 71.98 157.57 70.99"/></g></svg>