<svg id="Слой_1" data-name="Слой 1" xmlns="http://www.w3.org/2000/svg" viewBox="0 0 160 160"><defs><style>.cls-1{fill:#4a148c;}.cls-2{fill:#ffc800;}.cls-3,.cls-7{fill:#fff;}.cls-3{opacity:0.5;}.cls-4{fill:#306;}.cls-14,.cls-5{opacity:0.2;}.cls-6{opacity:0.6;}.cls-8{fill:#ececec;}.cls-10,.cls-11,.cls-12,.cls-9{fill:none;stroke-miterlimit:10;}.cls-10,.cls-9{stroke:#1a2e35;stroke-width:0.75px;}.cls-10{stroke-dasharray:3.97 4.96;}.cls-11,.cls-12{stroke:#fff;}.cls-12{stroke-width:0.5px;}.cls-13{fill:#1a2e35;}.cls-15,.cls-16{opacity:0.1;}</style></defs><rect class="cls-1" x="-18.42" y="-25" width="1537" height="226"/><path class="cls-2" d="M57.27,194.29s1.76-16.71-7.88-30.63C40,150.13,9,154.54,4.62,134.62.51,115.76,18.7,111,18.06,95.88s-37.65-22.19-31.9-65.69c5.55-42,60.91-64.94,99.77-21.6,18.15,20.24,17.92,46.8,38.28,57s41-7.8,60.78,7.51,7.71,46.34-23.88,51.62c-25.66,4.28-36.58,4.69-43.4,15.58-8,12.7,1.25,21-6,30.19s-22.27,3.21-31.89,6.66C68.08,181.38,60.19,196,60.19,196Z"/><path class="cls-3" d="M57.27,194.29s1.76-16.71-7.88-30.63C40,150.13,9,154.54,4.62,134.62.51,115.76,18.7,111,18.06,95.88s-37.65-22.19-31.9-65.69c5.55-42,60.91-64.94,99.77-21.6,18.15,20.24,17.92,46.8,38.28,57s41-7.8,60.78,7.51,7.71,46.34-23.88,51.62c-25.66,4.28-36.58,4.69-43.4,15.58-8,12.7,1.25,21-6,30.19s-22.27,3.21-31.89,6.66C68.08,181.38,60.19,196,60.19,196Z"/><path class="cls-2" d="M68.31-13.73a25.41,25.41,0,0,1,7.91,1.22A34.59,34.59,0,0,1,80-11.09c.62.26,1.23.55,1.84.83s1.2.64,1.78,1A46.79,46.79,0,0,1,96.05,1.1a54.87,54.87,0,0,1,4.61,6.66l1,1.75a13.75,13.75,0,0,1,.92,1.79c.55,1.22,1.08,2.46,1.59,3.69a26.39,26.39,0,0,1,1.28,3.79c.37,1.28.71,2.56,1,3.84s.43,2.63.6,3.94.27,2.63.33,4c-1.52-2.23-2.71-4.51-4-6.73-.68-1.08-1.34-2.17-2-3.25-.33-.54-.63-1.09-.94-1.63s-.7-1-1-1.58c-.69-1-1.36-2.08-2-3.13-.31-.54-.7-1-1.05-1.52l-1.08-1.49a33.57,33.57,0,0,0-2.17-3L91,5.35A91.32,91.32,0,0,0,80.69-5,79.47,79.47,0,0,0,68.31-13.73Z"/><path class="cls-3" d="M68.31-13.73a25.41,25.41,0,0,1,7.91,1.22A34.59,34.59,0,0,1,80-11.09c.62.26,1.23.55,1.84.83s1.2.64,1.78,1A46.79,46.79,0,0,1,96.05,1.1a54.87,54.87,0,0,1,4.61,6.66l1,1.75a13.75,13.75,0,0,1,.92,1.79c.55,1.22,1.08,2.46,1.59,3.69a26.39,26.39,0,0,1,1.28,3.79c.37,1.28.71,2.56,1,3.84s.43,2.63.6,3.94.27,2.63.33,4c-1.52-2.23-2.71-4.51-4-6.73-.68-1.08-1.34-2.17-2-3.25-.33-.54-.63-1.09-.94-1.63s-.7-1-1-1.58c-.69-1-1.36-2.08-2-3.13-.31-.54-.7-1-1.05-1.52l-1.08-1.49a33.57,33.57,0,0,0-2.17-3L91,5.35A91.32,91.32,0,0,0,80.69-5,79.47,79.47,0,0,0,68.31-13.73Z"/><circle class="cls-1" cx="6.83" cy="37.31" r="14.95" transform="translate(-0.26 0.05) rotate(-0.39)"/><path class="cls-1" d="M18.86,46.19a17.68,17.68,0,0,0-3.43-4.3C13.08,39.67,6,35.62,3.07,32.6c-4-4.25-3.72-7.15-3.2-8.53a15.16,15.16,0,0,1,5.48-1.64C5.2,24,4.94,28.9,12.13,34.71a18,18,0,0,0,9.61,3.59A14.91,14.91,0,0,1,18.86,46.19Z"/><path class="cls-1" d="M10.38,51.83A15,15,0,0,1-3.5,48.12a15.1,15.1,0,0,1-3.15-4.34,12.08,12.08,0,0,1,2.88-.1c4.12.42,7.64,3.71,8.86,5.11A8.86,8.86,0,0,0,10.38,51.83Z"/><path class="cls-1" d="M17.27,48l-.3.28-.27.25c-.21.18-.42.36-.64.53l-.6.44a1.88,1.88,0,0,1-.23.16l-.25.17-.27.17-.31.19c-.11.06-.21.13-.32.18l-.28.15-.61.31h0A6.22,6.22,0,0,1,9.6,49c-2.2-1.91-4.1-5.31-8.42-8.84a18.6,18.6,0,0,0-9.25-4h0a15,15,0,0,1,3.39-8.39c.91.29,3.66,1.73,8,9A39,39,0,0,0,8,43.26c4.29,4.63,7.64,4.9,9.14,4.71h0Z"/><path class="cls-4" d="M8.37,28.78c-.46.48-1.4.32-2.1-.34s-.89-1.6-.43-2.08,1.4-.33,2.1.34S8.83,28.3,8.37,28.78Z"/><path class="cls-4" d="M4,28.32c-.26.27-.81.16-1.23-.24s-.54-.94-.29-1.21.81-.17,1.23.23S4.29,28.05,4,28.32Z"/><path class="cls-4" d="M8.59,49.54c-.39.41-1.2.27-1.81-.31s-.79-1.39-.4-1.8,1.21-.27,1.82.32S9,49.13,8.59,49.54Z"/><path class="cls-4" d="M5.83,49.08a.66.66,0,0,1-.9-.1.65.65,0,0,1-.14-.89.65.65,0,0,1,.9.1A.64.64,0,0,1,5.83,49.08Z"/><path class="cls-4" d="M5.89,47.63c-.12.13-.37.09-.56-.08s-.23-.43-.1-.56.37-.09.56.08S6,47.5,5.89,47.63Z"/><path class="cls-2" d="M16.06,49.07a120.29,120.29,0,0,1-12.14-7,121.07,121.07,0,0,1-11.56-8.5c-5.67-4.77-8.88-8.74-7.9-10.24s5.84-.23,12.32,2.91c-.26.24-.51.48-.76.74l-.27.3c-3.52-1.44-6-1.87-6.58-1s.84,3.07,3.65,5.76A82.79,82.79,0,0,0,4.41,41a83.16,83.16,0,0,0,12.86,7c3.59,1.48,6.11,1.93,6.72,1s-.8-3-3.51-5.62A14.36,14.36,0,0,0,21,42c5.63,4.75,8.87,8.84,7.9,10.34S22.86,52.44,16.06,49.07Z"/><g class="cls-5"><path d="M16.06,49.07a120.29,120.29,0,0,1-12.14-7,121.07,121.07,0,0,1-11.56-8.5c-5.67-4.77-8.88-8.74-7.9-10.24s5.84-.23,12.32,2.91c-.26.24-.51.48-.76.74l-.27.3c-3.52-1.44-6-1.87-6.58-1s.84,3.07,3.65,5.76A82.79,82.79,0,0,0,4.41,41a83.16,83.16,0,0,0,12.86,7c3.59,1.48,6.11,1.93,6.72,1s-.8-3-3.51-5.62A14.36,14.36,0,0,0,21,42c5.63,4.75,8.87,8.84,7.9,10.34S22.86,52.44,16.06,49.07Z"/></g><path class="cls-2" d="M15,49.84A132.93,132.93,0,0,1,3.12,43h0A132.13,132.13,0,0,1-7.95,35.06c-7.93-6.36-12.58-12-11.21-14.11s8.26-.24,17.21,4.26c-.19.13-.37.28-.56.42C-10,22-15.77,20.55-16.95,22.38s2.57,6.54,9.12,12A119.19,119.19,0,0,0,3.42,42.53a119.25,119.25,0,0,0,12.15,6.91c7.63,3.7,13.43,5.17,14.61,3.33S27.71,46.35,21.31,41c.06-.23.11-.45.16-.68,7.75,6.27,12.28,11.77,10.92,13.88S24,54.41,15,49.84Z"/><g class="cls-6"><path class="cls-7" d="M47.16,24.74c-.89.8-1.88,1.75-2.8,2.66s-1.87,1.87-2.77,2.84c-1.81,1.92-3.59,3.9-5.26,5.94a85.28,85.28,0,0,0-9,12.9c-4.93,9-7.71,19.6-6,29.81a36.66,36.66,0,0,0,5.76,14.35,49.13,49.13,0,0,0,11,11.5,78.13,78.13,0,0,0,13.86,8.4,122.89,122.89,0,0,0,15.22,6,124.17,124.17,0,0,1-15.68-5,79.58,79.58,0,0,1-14.73-7.59,52,52,0,0,1-12.4-11.36A40.77,40.77,0,0,1,16.86,79.8a45.89,45.89,0,0,1-.59-17.28,60.49,60.49,0,0,1,1.91-8.43A69.91,69.91,0,0,1,21.26,46,92.72,92.72,0,0,1,30,31.32c1.64-2.31,3.38-4.54,5.17-6.73.9-1.1,1.81-2.17,2.75-3.24s1.86-2.09,2.94-3.21Z"/><path class="cls-7" d="M31,49.76c-1.22,3.12-2.33,6.22-3.31,9.34-.47,1.57-.94,3.13-1.31,4.72s-.74,3.16-1,4.75a37.19,37.19,0,0,0-.44,9.59,26.49,26.49,0,0,0,.9,4.73,28.18,28.18,0,0,0,1.86,4.56,17.28,17.28,0,0,1-2.9-4.15,20.8,20.8,0,0,1-1.62-4.87,28.54,28.54,0,0,1-.05-10.22A42.33,42.33,0,0,1,26,58.49,40.1,40.1,0,0,1,31,49.76Z"/><path class="cls-7" d="M33.62,23c-2.31,2.88-4.43,5.83-6.41,8.86a93.77,93.77,0,0,0-5.4,9.36c-.88,1.58-1.55,3.25-2.33,4.87s-1.4,3.32-2,5c-1.3,3.38-2.17,6.89-3.17,10.45a42.21,42.21,0,0,1,1.47-11l.34-1.35c.11-.45.29-.88.43-1.32l.91-2.64c.73-1.71,1.42-3.44,2.29-5.09s1.78-3.26,2.75-4.84l1.57-2.31c.53-.76,1.11-1.49,1.67-2.22A42.74,42.74,0,0,1,33.62,23Z"/></g><path class="cls-2" d="M57.77-7.6c-.19-.23-11.57-5.48-21.85,2.4C26.46,2,23.2,15.62,24.46,16c1.54.39,5.74-6.1,13.83-9.67,2.87-1.27,7.44,0,7.44,0Z"/><path class="cls-2" d="M76.54,14.46c.2.23,3.57,12.3-5.85,21.19C62,43.83,48.1,44.88,48,43.58c-.14-1.58,6.94-4.69,11.76-12.11,1.71-2.63,1.2-7.34,1.2-7.34Z"/><path class="cls-8" d="M51.12,28.88,39.55,15.28S43.89.53,56.22-8.67a66.18,66.18,0,0,1,20.22-9.81c9.22-2.77,17.09-3.18,18.43-1.6s-.31,9.28-4.51,18A66.37,66.37,0,0,1,77.43,16.26C66.38,27,51.12,28.88,51.12,28.88Z"/><rect class="cls-2" x="36.02" y="21.27" width="15.12" height="4.59" transform="translate(33.28 -24.9) rotate(49.6)"/><path class="cls-2" d="M74.73,8.64a8.81,8.81,0,1,1,1-12.43A8.82,8.82,0,0,1,74.73,8.64Z"/><circle class="cls-1" cx="69.02" cy="1.92" r="6.11" transform="translate(20.82 51.36) rotate(-47.33)"/><path class="cls-9" d="M15.51,147.18c.07.65.17,1.31.31,2"/><path class="cls-10" d="M17.23,153.91c6.94,17.83,33,39,67.82,23.89,38.53-16.69,37.3-79.94,86.55-107.12"/><polygon class="cls-2" points="172.46 59.88 155.64 49.02 218.47 50.79 172.46 59.88"/><path class="cls-2" d="M89,122.59c1.37,16.21-8.21,21.2-9,25.77a73.83,73.83,0,0,0-.47,8.52l-16.54,3.37a72.38,72.38,0,0,0-3.77-7.66c-2.55-3.88-13.33-4.72-18.39-20.18-3.34-10.16,1.14-28.18,18.64-31.74S88.08,111.94,89,122.59Z"/><line class="cls-11" x1="67.36" y1="160.48" x2="57.09" y2="135.16"/><line class="cls-11" x1="75.49" y1="158.82" x2="75.04" y2="131.5"/><path class="cls-12" d="M57.71,136.08s2,4.95,4.36,4.48,3-8.6-.11-8,1.95,10.08,5.84,9.29,4.08-11.31,1.36-10.76-.23,8.41,3.51,7.64c2-.41,2.39-5.86,2.39-5.86"/><rect class="cls-1" x="61.05" y="157.82" width="20.83" height="4.07" transform="translate(-30.46 17.47) rotate(-11.51)"/><path class="cls-13" d="M58.56,97.89a9.4,9.4,0,0,1-1.34-6,9.4,9.4,0,0,1,1.34,6Z"/><path class="cls-13" d="M45.63,104.5A9.38,9.38,0,0,1,41.48,100a9.38,9.38,0,0,1,4.15,4.51Z"/><path class="cls-13" d="M37.73,116.69a9.35,9.35,0,0,1-5.84-1.83,9.35,9.35,0,0,1,5.84,1.83Z"/><path class="cls-13" d="M37,131.2a9.38,9.38,0,0,1-6,1.33,9.35,9.35,0,0,1,6-1.33Z"/><path class="cls-13" d="M43.61,144.13a9.31,9.31,0,0,1-4.51,4.14,9.36,9.36,0,0,1,4.51-4.14Z"/><path class="cls-13" d="M91.13,134A9.37,9.37,0,0,1,97,135.79,9.45,9.45,0,0,1,91.13,134Z"/><path class="cls-13" d="M91.87,119.44a9.37,9.37,0,0,1,6-1.33,9.31,9.31,0,0,1-6,1.33Z"/><path class="cls-13" d="M85.25,106.51a9.42,9.42,0,0,1,4.52-4.14,9.34,9.34,0,0,1-4.52,4.14Z"/><path class="cls-13" d="M73.06,98.62a9.36,9.36,0,0,1,1.84-5.84,9.36,9.36,0,0,1-1.84,5.84Z"/><polygon class="cls-7" points="107.27 115.4 103.66 116.07 102.86 119.87 102.05 116.07 98.44 115.4 102.03 114.52 102.86 110.93 103.68 114.52 107.27 115.4"/><polygon class="cls-7" points="32.95 107.41 29.34 108.08 28.54 111.88 27.73 108.08 24.12 107.41 27.71 106.53 28.54 102.94 29.36 106.53 32.95 107.41"/><polygon class="cls-7" points="23.17 1.38 19.56 2.05 18.75 5.85 17.95 2.05 14.34 1.38 17.93 0.5 18.75 -3.09 19.57 0.5 23.17 1.38"/><polygon class="cls-7" points="63.89 80.66 61.88 81.03 61.43 83.15 60.98 81.03 58.96 80.65 60.97 80.16 61.43 78.16 61.89 80.16 63.89 80.66"/><polygon class="cls-7" points="116.99 70.98 114.97 71.35 114.52 73.47 114.07 71.35 112.06 70.98 114.06 70.48 114.52 68.48 114.98 70.48 116.99 70.98"/><polygon class="cls-7" points="97.57 157.01 95.55 157.39 95.1 159.51 94.65 157.39 92.63 157.01 94.64 156.52 95.1 154.51 95.56 156.52 97.57 157.01"/><polygon class="cls-7" points="21.74 112.36 19.73 112.73 19.27 114.86 18.82 112.73 16.81 112.36 18.82 111.87 19.27 109.86 19.73 111.87 21.74 112.36"/><polygon class="cls-7" points="19.27 50.15 17.26 50.53 16.81 52.65 16.36 50.53 14.34 50.15 16.35 49.66 16.81 47.66 17.27 49.66 19.27 50.15"/><path class="cls-7" d="M125.87,121.1a.59.59,0,0,0,0,1.17A.59.59,0,0,0,125.87,121.1Z"/><path class="cls-7" d="M11.22,11.66a.59.59,0,0,0,0,1.17A.59.59,0,0,0,11.22,11.66Z"/><path class="cls-7" d="M84.93,33.12a.59.59,0,0,0,0,1.17A.59.59,0,0,0,84.93,33.12Z"/><path class="cls-7" d="M37.87,71.5a.59.59,0,0,0,0,1.17A.59.59,0,0,0,37.87,71.5Z"/><path class="cls-7" d="M8.8,61a.59.59,0,0,0,0,1.17A.59.59,0,0,0,8.8,61Z"/><path class="cls-7" d="M84.11,131.72a.42.42,0,0,0,0,.83A.42.42,0,0,0,84.11,131.72Z"/><path class="cls-7" d="M37.87,144.14a.42.42,0,0,0,0,.83A.42.42,0,0,0,37.87,144.14Z"/><path class="cls-7" d="M113.44,124.61a1.12,1.12,0,0,0,0,2.24A1.12,1.12,0,0,0,113.44,124.61Z"/><path class="cls-7" d="M25,136.54a1.12,1.12,0,0,0,0,2.24A1.12,1.12,0,0,0,25,136.54Z"/><path class="cls-1" d="M106.51,108a3,3,0,1,1-2.42-3.56A3,3,0,0,1,106.51,108Z"/><rect class="cls-1" x="105.64" y="92.58" width="2.32" height="15.28" transform="translate(20.6 -18.19) rotate(10.77)"/><path class="cls-1" d="M117,105.47a3,3,0,1,1-2.42-3.55A3.05,3.05,0,0,1,117,105.47Z"/><rect class="cls-1" x="116.13" y="90.07" width="2.32" height="15.28" transform="translate(20.32 -20.19) rotate(10.77)"/><polygon class="cls-1" points="119.86 90.46 106.7 94.5 107.09 92.5 120.24 88.45 119.86 90.46"/><polygon class="cls-1" points="119.14 94.24 105.99 98.29 106.37 96.28 119.52 92.23 119.14 94.24"/><path class="cls-1" d="M43,91a2.09,2.09,0,1,1-1.66-2.43A2.1,2.1,0,0,1,43,91Z"/><rect class="cls-1" x="42.42" y="80.44" width="1.59" height="10.47" transform="translate(16.77 -6.57) rotate(10.77)"/><rect class="cls-1" x="48.93" y="78.87" width="1.59" height="3.03" transform="translate(15.89 -7.87) rotate(10.77)"/><polygon class="cls-1" points="50.72 79.44 43.15 81.76 43.41 80.38 50.98 78.06 50.72 79.44"/><polygon class="cls-1" points="50.22 82.03 42.66 84.35 42.92 82.98 50.48 80.65 50.22 82.03"/><path class="cls-1" d="M99.54,145.64a2.09,2.09,0,1,1-1.66-2.43A2.1,2.1,0,0,1,99.54,145.64Z"/><rect class="cls-1" x="98.94" y="135.09" width="1.59" height="10.47" transform="translate(27.97 -16.16) rotate(10.77)"/><rect class="cls-1" x="105.45" y="133.52" width="1.59" height="3.03" transform="translate(27.1 -17.47) rotate(10.77)"/><polygon class="cls-1" points="107.24 134.09 99.67 136.41 99.94 135.03 107.5 132.71 107.24 134.09"/><polygon class="cls-1" points="106.74 136.68 99.18 139 99.44 137.63 107 135.3 106.74 136.68"/><path class="cls-2" d="M107.43,82.56l-1.7-.1c-3.27-3.89-13-8-12.06-10.12.17-.37.76-.54,1.6-.61,2.74-.2,8,.8,9,.07a27.71,27.71,0,0,0,.94-2.74l0-.08,0-.08h0l-6.74-2C83.37,57.86,53,47.32,42.84,50.85H40.56l-.11.32,0,.13-.62,2c-5.45,12,63.24,40.39,66.8,32.22l.13-.41.55-1.73.26-.82ZM85.53,63.8c2.94,1.09,5,3,4.53,4.15s-3.19,1.31-6.15.22-5-3-4.54-4.15S82.57,62.71,85.53,63.8Z"/><path class="cls-2" d="M107.43,82.56c-.06-3.68-9.2-8-12.16-10.83-.71-.69-1.06-1.31-.84-1.81.79-1.74,10.18.5,10.75-.86a.19.19,0,0,0,0-.08.14.14,0,0,0,0-.09c0-.28-.32-.69-1-1.24C90.7,56.63,45.31,40.3,40.59,50.8v0a3.05,3.05,0,0,0-.13.32l0,.13C36.7,64,103.63,91.88,107.25,83.46a.21.21,0,0,0,0-.07l.09-.28A1.69,1.69,0,0,0,107.43,82.56ZM79.37,64c.45-1.21,3.2-1.31,6.16-.22s5,3,4.53,4.15-3.19,1.31-6.15.22S78.93,65.22,79.37,64Z"/><path class="cls-14" d="M107.43,82.56c-.06-3.68-9.2-8-12.16-10.83-.71-.69-1.06-1.31-.84-1.81.79-1.74,10.18.5,10.75-.86a.19.19,0,0,0,0-.08.14.14,0,0,0,0-.09c0-.28-.32-.69-1-1.24C90.7,56.63,45.31,40.3,40.59,50.8v0a3.05,3.05,0,0,0-.13.32l0,.13C36.7,64,103.63,91.88,107.25,83.46a.21.21,0,0,0,0-.07l.09-.28A1.69,1.69,0,0,0,107.43,82.56ZM79.37,64c.45-1.21,3.2-1.31,6.16-.22a9,9,0,0,1,4.25,2.85,1.47,1.47,0,0,1,.28,1.3c-.44,1.22-3.19,1.31-6.15.22a12.37,12.37,0,0,1-2.84-1.47C79.79,65.78,79.09,64.77,79.37,64Z"/><path class="cls-2" d="M89.78,66.65a12.16,12.16,0,0,0-2.84-1.47c-3-1.09-5.7-1-6.15.21a1.45,1.45,0,0,0,.28,1.31c-1.28-.92-2-1.93-1.7-2.68.45-1.21,3.2-1.31,6.16-.22A9,9,0,0,1,89.78,66.65Z"/><path class="cls-1" d="M86.46,72.25a4.82,4.82,0,0,0-3,.16,1.75,1.75,0,0,0-.82,2.69c1.42,2.1,6.67,4.08,8.46,1.4C92.7,74.08,89.08,72.65,86.46,72.25Z"/><path class="cls-2" d="M72.69,70.82H73a3.72,3.72,0,0,0,1.06-.06,2.1,2.1,0,0,0,1-.45,1,1,0,0,0,.42-.55A1.68,1.68,0,0,0,75.11,68a9.43,9.43,0,0,0-2.64-1.73c-1.3-.81-1.93-2.07-3.43-2.57-1.66-.55-3.9-.5-4.85.81C61.67,67.94,70.21,70.69,72.69,70.82Z"/><path class="cls-4" d="M72.66,55.93c.75,2.6-2.85,2.87-4.49,2.37-1.49-.47-6.17-2.16-4.92-4.46.74-1.39,2.49-1.21,4-.63C69.45,53.38,72.15,54.14,72.66,55.93Z"/><path class="cls-8" d="M49.61,51.67c-2.78,1.37-1.3,4.85.65,6.16a22.86,22.86,0,0,0,5,2.28c1.1.38,2.42.45,3.18-.61,1.46-2.07-.41-3.93-2.37-5.15C54.27,52.4,51.83,50.57,49.61,51.67Z"/><path class="cls-1" d="M83.88,58.28S93.39,52.23,103,45.52s33-16.89,33.85-16.38S116.26,44.58,106.09,50,85.3,60.29,85.3,60.29Z"/><polygon class="cls-8" points="83.95 57.76 91.12 52.71 93.45 56.84 85.63 60.5 83.95 57.76"/><path class="cls-4" d="M84,57.75c-2.36,0-5,0-7.37,2.89-2.88,3.52-5.86,3.58-5.86,3.58s9.61,4,14.91-3.72Z"/><path class="cls-2" d="M70.28,64.27c.44-.47,3.23-.54,4.92-2.32s6.41,3.28,3.21,3.66C74.78,66,69.49,65.15,70.28,64.27Z"/><rect class="cls-2" x="143.47" y="74.76" width="13.34" height="44.38" transform="translate(-23.68 138.52) rotate(-46.3)"/><rect class="cls-15" x="143.47" y="74.76" width="13.34" height="44.38" transform="translate(-23.68 138.52) rotate(-46.3)"/><g class="cls-16"><path d="M138.26,80c9.68,8.81,20.1,18.75,29.33,28-9.69-8.8-20.1-18.75-29.33-28Z"/><path d="M136.43,81.94c9.69,8.8,20.1,18.75,29.33,28-9.69-8.81-20.1-18.76-29.33-28Z"/><path d="M134.6,83.85c9.69,8.8,20.1,18.75,29.34,28-9.69-8.8-20.1-18.75-29.34-28Z"/><path d="M132.77,85.76c9.69,8.81,20.11,18.75,29.34,28-9.69-8.8-20.1-18.75-29.34-28Z"/></g><rect class="cls-1" x="157.4" y="109.44" width="15.58" height="3.78" transform="translate(-29.42 153.84) rotate(-46.3)"/><rect class="cls-1" x="154.38" y="106.55" width="15.58" height="3.78" transform="translate(-28.27 150.77) rotate(-46.3)"/><path class="cls-7" d="M138.72,76.8l-10.41-3-3.43-1,1.14,3.4,3.47,10.26,2.33.36-.49-2.29,2.34.36s-.49-2.25-.49-2.29l2.31.38L135,80.66l2.32.38s-.47-2.27-.47-2.31l2.31.38S138.72,76.84,138.72,76.8Z"/><polygon class="cls-4" points="128.31 73.79 124.88 72.79 126.02 76.19 128.31 73.79"/></svg>