<svg id="Слой_1" data-name="Слой 1" xmlns="http://www.w3.org/2000/svg" xmlns:xlink="http://www.w3.org/1999/xlink" viewBox="0 0 160 160"><defs><style>.cls-1{fill:none;}.cls-2{fill:#4a148c;}.cls-3{clip-path:url(#clip-path);}.cls-4{fill:#fff;}.cls-5{fill:#dcdcdc;}.cls-6{fill:#ffc800;}.cls-7{fill:#306;}.cls-8{fill:#ff9581;}.cls-9{opacity:0.1;}.cls-10{fill:#1a2e35;}.cls-11{fill:#ff9bbe;}.cls-12{fill:#e55f4e;}.cls-13{clip-path:url(#clip-path-2);}.cls-14{opacity:0.3;}</style><clipPath id="clip-path"><rect class="cls-1" x="-3.06" y="-4.72" width="170" height="170"/></clipPath><clipPath id="clip-path-2"><rect class="cls-1" x="220.44" y="-7.22" width="176" height="176"/></clipPath></defs><rect class="cls-2" x="-916.56" y="-25.22" width="1537" height="226"/><g class="cls-3"><rect class="cls-4" x="157.08" y="153.95" width="46.12" height="46.12"/><path class="cls-5" d="M154.69,151.55v50.93h50.92V151.55Zm48.52,48.53H157.08V154h46.13Z"/><path class="cls-6" d="M-7.83,144.38s9,101.39,10.48,109.13c.34,1.76.55,11.34.69,23.66.31,26.88.13,75.36.13,75.36H45.76s-1.25-84-3.13-99.45-13.84-108.7-13.84-108.7Z"/><path class="cls-7" d="M11.5,297.14q-.06-9.19-.14-18.4c0-5.94,0-11.89-.31-17.83-.57-12-3-23.84-4.75-35.72s-3.18-23.82-4.49-35.77C.34,176-1,162.6-2.33,149.19c0-.09-.16-.09-.15,0,2,23.94,4.22,47.88,7.53,71.68q1.25,8.88,2.71,17.73c1,6,2,11.94,2.44,18s.53,11.84.59,17.76q.09,9.21.18,18.4c.14,13.62.27,34.58.4,48.2,0,.26.41.25.41,0C11.69,328.78,11.59,309.29,11.5,297.14Z"/><path class="cls-7" d="M-16.74,144.38S1.18,245.77,2.65,253.51c.34,1.76.55,11.34.69,23.66v0L23.51,144.38Z"/><path class="cls-6" d="M-44,348.61l-36.09-26s46.68-62.31,46.9-68c.31-8.47,4.38-43.44,7.79-71.76,0,0-6.47-15.33,5.64-38.48H28.83s-3.26,22-8.83,36a65.14,65.14,0,0,0-10.79,4.93s-4,69.11-5.22,76.89C.79,282.77-44,348.61-44,348.61Z"/><path class="cls-7" d="M23.2,150.18c0-.15-.27-.18-.27,0a142,142,0,0,1-.71,14.22c-.2,2.2-2,14.32-5.77,13.43-.64-.14-1-.77-1.06-1.73a15.34,15.34,0,0,1,.5-3.72c.43-2.54.77-5.08,1-7.64a69.42,69.42,0,0,0-.15-14.34.13.13,0,0,0-.25,0,131.07,131.07,0,0,1-1.15,19.8c-.48,3.15-2.07,7.89,1.23,8.38s5.53-7.46,5.94-9.63A72.76,72.76,0,0,0,23.2,150.18Z"/><path class="cls-7" d="M24.33,57.57c-2.41-4.52-7.87-6.77-13.66-7s-13,.82-15.79,9.46c-2.25,7-1.64,14.54-3.63,22.49s-16.17,25.1-3.37,38.19C-.63,132.43,28.82,131.21,34,113.91c4.08-13.71-10-30.67-10.49-36.6S27,62.53,24.33,57.57Z"/><path class="cls-7" d="M24.89,66a30.38,30.38,0,0,0-.45,12.32,11.44,11.44,0,0,0,1.06,3c.48,1,1,1.89,1.52,2.81,1.07,1.83,2.12,3.65,3.08,5.5a41.68,41.68,0,0,1,4.2,11.57,31,31,0,0,1-.18,12.13,26.79,26.79,0,0,0,1.28-6,29.44,29.44,0,0,0-.17-6.22,37,37,0,0,0-4-11.93c-1-1.88-2.07-3.71-3.15-5.53a20.8,20.8,0,0,1-2.67-5.52,25.39,25.39,0,0,1-.73-6A48.18,48.18,0,0,1,24.89,66Z"/><path class="cls-8" d="M21.77,97.55c17,1.7,36.35-1.11,41-6,5.37-5.69,14.31-28.92,16.34-45.2.44-3.55-26.66-4.85-26.71-2.33-.15,8.65-8.58,31.72-9.19,33-.69,1.42-13.51,6.4-22.25,8.79C7.16,89.51,9.73,96.36,21.77,97.55Z"/><path class="cls-6" d="M57.63,96.3,42,77.21S29.61,81.3,17.17,86.56,8.44,97,25.32,98.84A95.16,95.16,0,0,0,57.63,96.3Z"/><path class="cls-4" d="M23.64,95.21a1.42,1.42,0,1,0,1.42,1.42A1.42,1.42,0,0,0,23.64,95.21Zm0,2.56a1.14,1.14,0,1,1,1.14-1.14A1.13,1.13,0,0,1,23.64,97.77Zm12.82-2.41a1.42,1.42,0,1,0,0,2.84,1.42,1.42,0,0,0,0-2.84Zm0,2.57a1.15,1.15,0,1,1,1.14-1.14A1.14,1.14,0,0,1,36.46,97.93Zm-6.2-8.18a1.43,1.43,0,1,0,1.41,1.43A1.43,1.43,0,0,0,30.26,89.75Zm0,2.57a1.14,1.14,0,0,1-1.15-1.14,1.15,1.15,0,1,1,2.29,0A1.15,1.15,0,0,1,30.26,92.32Zm11.83-2.85a1.43,1.43,0,0,0-1.42,1.43,1.42,1.42,0,1,0,1.42-1.43Zm0,2.58a1.15,1.15,0,0,1,0-2.3,1.15,1.15,0,0,1,0,2.3Zm7.44,2.66a1.44,1.44,0,0,0-1.43,1.43,1.43,1.43,0,1,0,1.43-1.43Zm0,2.57a1.15,1.15,0,1,1,1.14-1.14A1.14,1.14,0,0,1,49.53,97.28Zm4.27-5.65a1,1,0,0,1-.86.42,1.16,1.16,0,0,1-1.15-1.15,1.15,1.15,0,0,1,.6-1l-.19-.21a1.42,1.42,0,0,0,.74,2.63A1.44,1.44,0,0,0,54,91.86Zm-17.91-8a1.43,1.43,0,1,0,1.41,1.43A1.43,1.43,0,0,0,35.89,83.65Zm0,2.57A1.15,1.15,0,1,1,37,85.08,1.14,1.14,0,0,1,35.89,86.22ZM49,85.76a1.13,1.13,0,0,1-.62.19,1.15,1.15,0,0,1-1.14-1.15,1.18,1.18,0,0,1,.31-.79l-.17-.23a1.43,1.43,0,0,0-.42,1,1.41,1.41,0,0,0,1.42,1.42,1.32,1.32,0,0,0,.78-.25Zm-5.94-7.22h0l-.4-.49a1.14,1.14,0,0,1-1,1.69,1.14,1.14,0,0,1-1.15-1.14,1.15,1.15,0,0,1,1.15-1.15,1.11,1.11,0,0,1,.75.29L42,77.22l-1.43.47a1.41,1.41,0,0,0-.33.9A1.42,1.42,0,0,0,41.66,80a1.4,1.4,0,0,0,1.41-1.42A.09.09,0,0,0,43.06,78.54ZM23.58,84.05a1.23,1.23,0,0,0-.55.11,1.42,1.42,0,0,0,.55,2.73,1.42,1.42,0,0,0,0-2.84Zm0,2.57a1.15,1.15,0,1,1,1.14-1.14A1.15,1.15,0,0,1,23.58,86.62ZM17,89.47a1.43,1.43,0,1,0,1.42,1.43A1.43,1.43,0,0,0,17,89.47Zm0,2.58a1.15,1.15,0,1,1,1.15-1.15A1.16,1.16,0,0,1,17,92.05Z"/><path class="cls-7" d="M49.74,95.49A176.6,176.6,0,0,1,37.68,80c0-.06.07-.12.11-.06.91,1.31,7.84,9.53,12.07,15.53C49.91,95.5,49.8,95.56,49.74,95.49Z"/><path class="cls-9" d="M47.9,84.43,57.63,96.3a95.16,95.16,0,0,1-32.31,2.54c-6.18-.67-10.59-1.8-13.08-3.2Z"/><path class="cls-8" d="M59.52,48.78C58.47,46.1,53.28,31,52.65,27.3c-1.18-6.84-.88-14.17,1.81-15.28,2.14-.88,4,2.85,4,2.85s.76-4.6,3.69-4.82,3.13,4.75,3.13,4.75,1.12-4.67,4.06-4.68,2.3,5,2.3,5,.83-4.31,3.25-3.31c2.92,1.21.5,9,1.09,13.12.09.63,3,10.1,3.81,16.55a11,11,0,0,1-1,5.9Z"/><path class="cls-7" d="M71.9,15c-1.77,5.72-1.55,8.52,0,14.21,0,.12-.13.19-.17.07-2-5.43-2.79-8.92-.09-14.38C71.76,14.6,72,14.69,71.9,15Z"/><path class="cls-7" d="M65.43,14.51c-.81,6.19-.36,9.21,1.31,15.17,0,.09-.12.13-.15.05-2.12-5.71-3.1-9.13-1.48-15.21C65.18,14.24,65.46,14.23,65.43,14.51Z"/><path class="cls-7" d="M58.48,15.07c-.19,6.05.25,9.38,2.76,14.89a.11.11,0,0,1-.2.11c-3.1-5.38-3.69-9.52-2.75-15C58.36,14.71,58.49,14.69,58.48,15.07Z"/><path class="cls-8" d="M56.89,50.23s-5.55-5-7.5-7.8S44,26.74,46.7,25.83c3.55-1.18,7,5.89,8.29,9.58,0,0,8.22-2.74,11.82,1.8S56.89,50.23,56.89,50.23Z"/><path class="cls-10" d="M54,32.81c.46.82.87,1.66,1.29,2.5l-.32-.17a16.82,16.82,0,0,1,11.88,1,12.87,12.87,0,0,1,3.26,2.34,22.57,22.57,0,0,0-3.55-1.69,24.09,24.09,0,0,0-11.46-1.12l-.26,0c-.3-1-.6-1.92-.84-2.9Z"/><path class="cls-6" d="M28.83,128.79l0,15.59-48.52,0S-13,104.94.45,91.38c6.71-6.78,14.28-6,18.94-.91,1.17,1.29,11.21,18,12.48,25.46C33,122.48,28.83,128.79,28.83,128.79Z"/><path class="cls-4" d="M1.61,112.48A1.42,1.42,0,1,0,3,113.91,1.43,1.43,0,0,0,1.61,112.48Zm0,2.57a1.15,1.15,0,1,1,1.14-1.14A1.13,1.13,0,0,1,1.61,115.05ZM17,89.47a1.43,1.43,0,1,0,1.42,1.43A1.43,1.43,0,0,0,17,89.47Zm0,2.58a1.15,1.15,0,1,1,1.15-1.15A1.16,1.16,0,0,1,17,92.05Zm-6,3.44a1.42,1.42,0,0,0,0,2.84,1.42,1.42,0,1,0,0-2.84Zm0,2.56a1.15,1.15,0,1,1,1.15-1.14A1.14,1.14,0,0,1,11,98.05ZM-15.4,134.1a1.42,1.42,0,0,0-1.42,1.42A1.43,1.43,0,0,0-15.4,137,1.43,1.43,0,0,0-14,135.52,1.42,1.42,0,0,0-15.4,134.1Zm0,2.57a1.14,1.14,0,0,1-1.14-1.15,1.13,1.13,0,0,1,1.14-1.14,1.14,1.14,0,0,1,1.15,1.14A1.14,1.14,0,0,1-15.4,136.67Zm14.08-2.18a1.42,1.42,0,0,0-1.42,1.41,1.43,1.43,0,0,0,1.42,1.43A1.42,1.42,0,0,0,.1,135.9,1.41,1.41,0,0,0-1.32,134.49Zm0,2.56a1.14,1.14,0,0,1-1.14-1.15,1.15,1.15,0,0,1,1.14-1.14A1.15,1.15,0,0,1-.17,135.9,1.15,1.15,0,0,1-1.32,137.05Zm-13.17-14.7a2,2,0,0,0-.08.26,1.13,1.13,0,0,1,.64,1,1.15,1.15,0,0,1-1.14,1.15.22.22,0,0,1-.11,0h0c0,.09-.05.18-.08.27a.71.71,0,0,0,.2,0,1.42,1.42,0,0,0,1.42-1.42A1.39,1.39,0,0,0-14.49,122.35Zm8-4a1.43,1.43,0,0,0-1.42,1.43,1.43,1.43,0,0,0,1.42,1.42A1.43,1.43,0,0,0-5,119.74,1.44,1.44,0,0,0-6.46,118.31Zm0,2.58a1.15,1.15,0,0,1-1.13-1.15,1.13,1.13,0,0,1,1.13-1.14,1.14,1.14,0,0,1,1.15,1.14A1.16,1.16,0,0,1-6.46,120.89Zm31.64,7.89a1.43,1.43,0,1,0,1.41,1.43A1.44,1.44,0,0,0,25.18,128.78Zm0,2.57a1.15,1.15,0,1,1,0-2.29,1.15,1.15,0,0,1,0,2.29Zm0,8.54a1.42,1.42,0,1,0,0,2.84,1.42,1.42,0,0,0,0-2.84Zm0,2.57a1.15,1.15,0,1,1,1.14-1.14A1.15,1.15,0,0,1,25.18,142.46Zm-7.94-18.6a1.43,1.43,0,1,0,1.43,1.43A1.43,1.43,0,0,0,17.24,123.86Zm0,2.58a1.15,1.15,0,0,1,0-2.3,1.15,1.15,0,0,1,0,2.3Zm6.64-28.69h0l-.23,0a1.14,1.14,0,0,1-.85-1.9l-.15-.26a1.45,1.45,0,0,0-.42,1,1.42,1.42,0,0,0,1.42,1.42A1.44,1.44,0,0,0,24,98,2,2,0,0,1,23.88,97.75Zm-6.14,3.76a1.43,1.43,0,1,0,1.42,1.42A1.42,1.42,0,0,0,17.74,101.51Zm0,2.57a1.14,1.14,0,0,1-1.14-1.15,1.14,1.14,0,1,1,2.28,0A1.14,1.14,0,0,1,17.74,104.08Zm7.44,3.37a1.43,1.43,0,1,0,1.41,1.43A1.43,1.43,0,0,0,25.18,107.45Zm0,2.57A1.14,1.14,0,0,1,24,108.88a1.15,1.15,0,1,1,2.29,0A1.15,1.15,0,0,1,25.18,110ZM9.91,107.45a1.43,1.43,0,1,0,1.42,1.43A1.43,1.43,0,0,0,9.91,107.45Zm0,2.57a1.14,1.14,0,0,1-1.15-1.14,1.15,1.15,0,1,1,2.29,0A1.13,1.13,0,0,1,9.91,110ZM4,89.47A1.43,1.43,0,1,0,5.47,90.9,1.43,1.43,0,0,0,4,89.47Zm0,2.58A1.15,1.15,0,1,1,5.18,90.9,1.16,1.16,0,0,1,4,92.05Zm-1.14,8.66a1.42,1.42,0,1,0,1.43,1.43A1.43,1.43,0,0,0,2.89,100.71Zm0,2.57a1.15,1.15,0,0,1,0-2.29,1.15,1.15,0,0,1,0,2.29Zm14.8,30.83a1.42,1.42,0,0,0,0,2.84,1.42,1.42,0,1,0,0-2.84Zm0,2.56a1.15,1.15,0,1,1,1.15-1.14A1.15,1.15,0,0,1,17.69,136.67ZM1.61,123.86a1.43,1.43,0,0,0,0,2.86,1.43,1.43,0,1,0,0-2.86Zm0,2.58a1.15,1.15,0,1,1,1.14-1.15A1.14,1.14,0,0,1,1.61,126.44Zm8-7.8a1.43,1.43,0,1,0,0,2.85,1.43,1.43,0,0,0,0-2.85Zm0,2.57a1.15,1.15,0,1,1,0-2.29,1.15,1.15,0,0,1,0,2.29Zm15.88-2.9A1.43,1.43,0,0,0,24,119.75a1.42,1.42,0,0,0,2.84,0A1.44,1.44,0,0,0,25.45,118.31Zm0,2.58a1.15,1.15,0,1,1,0-2.29,1.15,1.15,0,0,1,0,2.29ZM17,112.48a1.42,1.42,0,1,0,0,2.84,1.42,1.42,0,0,0,0-2.84Zm0,2.57a1.15,1.15,0,1,1,1.14-1.14A1.14,1.14,0,0,1,17,115.05ZM-5.3,106a1.43,1.43,0,0,0-1.43,1.42,1.43,1.43,0,0,0,1.43,1.43,1.43,1.43,0,0,0,1.42-1.43A1.43,1.43,0,0,0-5.3,106Zm0,2.56a1.14,1.14,0,0,1-1.15-1.14A1.16,1.16,0,0,1-5.3,106.3a1.17,1.17,0,0,1,1.14,1.15A1.15,1.15,0,0,1-5.3,108.59Zm2.5-13.25-.23.31a.37.37,0,0,1,0,.11,1.14,1.14,0,0,1-.8,1.08l-.2.32a1.4,1.4,0,0,0,1.28-1.4A1.42,1.42,0,0,0-2.8,95.34ZM7.52,139.89A1.42,1.42,0,1,0,9,141.31,1.42,1.42,0,0,0,7.52,139.89Zm0,2.57a1.16,1.16,0,0,1-1.15-1.15,1.15,1.15,0,0,1,1.15-1.14,1.13,1.13,0,0,1,1.14,1.14A1.14,1.14,0,0,1,7.52,142.46Zm1-13.37a1.43,1.43,0,0,0-1.43,1.41,1.44,1.44,0,0,0,1.43,1.44A1.43,1.43,0,0,0,10,130.5,1.41,1.41,0,0,0,8.56,129.09Zm0,2.57a1.15,1.15,0,1,1,0-2.3,1.15,1.15,0,0,1,0,2.3Zm-17.73,9.1a1.42,1.42,0,0,0-1.42,1.41,1.43,1.43,0,0,0,1.42,1.43,1.44,1.44,0,0,0,1.44-1.43A1.42,1.42,0,0,0-9.17,140.76Zm0,2.56a1.15,1.15,0,0,1-1.14-1.15A1.15,1.15,0,0,1-9.17,141,1.14,1.14,0,0,1-8,142.17,1.14,1.14,0,0,1-9.17,143.32Zm1.43-14.82a1.43,1.43,0,0,0-1.43,1.42,1.44,1.44,0,0,0,1.43,1.43,1.44,1.44,0,0,0,1.43-1.43A1.43,1.43,0,0,0-7.74,128.5Zm0,2.58a1.17,1.17,0,0,1-1.15-1.16,1.15,1.15,0,0,1,1.15-1.14,1.15,1.15,0,0,1,1.15,1.14A1.17,1.17,0,0,1-7.74,131.08Z"/><path class="cls-7" d="M10.07,126.84a58.39,58.39,0,0,1,8.57-.14c1.42.1,2.83.27,4.24.46.7.1,1.4.18,2.1.25a9.16,9.16,0,0,0,2.22,0,.05.05,0,0,1,0,.1,14.64,14.64,0,0,1-2.07.34,15.43,15.43,0,0,1-2,0c-1.44-.09-2.87-.25-4.31-.35-2.91-.21-5.81-.42-8.72-.42C10,127.08,9.94,126.85,10.07,126.84Z"/><path class="cls-7" d="M3.6,130.59a62,62,0,0,1,6.89-1.6c1.16-.2,2.33-.33,3.51-.42.56,0,1.12-.09,1.69-.12s1.24,0,1.86,0a.05.05,0,0,1,0,.1c-.58.05-1.15.21-1.73.3l-1.74.27c-1.17.18-2.33.38-3.49.55-2.33.34-4.65.7-7,1.13A.1.1,0,0,1,3.6,130.59Z"/><path class="cls-8" d="M-3.56,92.83c-5.79,3.5-36,23.38-39.39,33.6-5.06,15.19-1.55,33.79-.45,42,.48,3.58,25.25,2.47,25.31-1.39.12-8.26-1.61-29.49-.79-32.25S-3,111.41,4.83,101.48C15.28,88.15,10.5,84.33-3.56,92.83Z"/><path class="cls-6" d="M-28.72,108.34-6,116.1s7.42-8.22,15.33-19.17S8.2,85.37-.55,89.87A183.56,183.56,0,0,0-28.72,108.34Z"/><path class="cls-4" d="M-13.83,111a1.44,1.44,0,0,0-1.43,1.43,1.26,1.26,0,0,0,.11.51l.38.13a1.09,1.09,0,0,1-.21-.64,1.15,1.15,0,0,1,1.15-1.15,1.16,1.16,0,0,1,1.15,1.15,1.14,1.14,0,0,1-.81,1.08l.39.14a1.42,1.42,0,0,0,.7-1.22A1.44,1.44,0,0,0-13.83,111Zm1.14-11.46A1.42,1.42,0,0,0-14.11,101a1.42,1.42,0,0,0,1.42,1.42A1.43,1.43,0,0,0-11.26,101,1.44,1.44,0,0,0-12.69,99.56Zm0,2.57A1.14,1.14,0,0,1-13.83,101a1.15,1.15,0,0,1,1.14-1.15A1.16,1.16,0,0,1-11.54,101,1.15,1.15,0,0,1-12.69,102.13Zm22.4-5.7c.14-.19.27-.39.4-.58A1.32,1.32,0,0,0,9.71,96.43ZM4,89.47A1.43,1.43,0,1,0,5.47,90.9,1.43,1.43,0,0,0,4,89.47Zm0,2.58A1.15,1.15,0,1,1,5.18,90.9,1.16,1.16,0,0,1,4,92.05Zm-1.14,8.66a1.42,1.42,0,1,0,1.43,1.43A1.43,1.43,0,0,0,2.89,100.71Zm0,2.57a1.15,1.15,0,0,1,0-2.29,1.15,1.15,0,0,1,0,2.29Zm-23,1.6a1.44,1.44,0,0,0-1.43,1.43,1.41,1.41,0,0,0,1.43,1.41,1.4,1.4,0,0,0,1.41-1.41A1.43,1.43,0,0,0-20.12,104.88Zm0,2.57a1.14,1.14,0,0,1-1.15-1.14,1.15,1.15,0,0,1,1.15-1.15A1.15,1.15,0,0,1-19,106.31,1.15,1.15,0,0,1-20.12,107.45ZM-5.3,106a1.43,1.43,0,0,0-1.43,1.42,1.43,1.43,0,0,0,1.43,1.43,1.43,1.43,0,0,0,1.42-1.43A1.43,1.43,0,0,0-5.3,106Zm0,2.56a1.14,1.14,0,0,1-1.15-1.14A1.16,1.16,0,0,1-5.3,106.3a1.17,1.17,0,0,1,1.14,1.15A1.15,1.15,0,0,1-5.3,108.59Zm1.13-14.25a1.4,1.4,0,0,0-1.41,1.42,1.4,1.4,0,0,0,1.41,1.42,1.42,1.42,0,0,0,1.43-1.42A1.42,1.42,0,0,0-4.17,94.34Zm0,2.57a1.15,1.15,0,0,1-1.14-1.15,1.13,1.13,0,0,1,1.14-1.14A1.14,1.14,0,0,1-3,95.76,1.15,1.15,0,0,1-4.17,96.91Z"/><path class="cls-7" d="M5.49,104.38l-1.61,1.3-.35.3q1.9-2.49,3.66-5.07s0-.08-.06,0C5,103.42,2.76,106,.62,108.52s-4.39,4.94-6.35,7.57l-1.06-.32a.09.09,0,0,0-.06.16l1.11.55a.18.18,0,0,0,.19,0A73.29,73.29,0,0,0,1.11,109c.59-.7,1.16-1.42,1.72-2.14l.13-.1.54-.45c.72-.6,1.4-1.24,2.05-1.9C5.59,104.41,5.54,104.34,5.49,104.38Z"/><path class="cls-8" d="M8.36,90.59c.39.9,6,6.16,10.21,5.17,1.38-.32,0-7.93,0-7.93l0-.59L18.87,79,8.53,74.78,7,74.24s.06,2.25.17,5.05c0,.13,0,.26,0,.4s0,.31,0,.46c0,.42,0,.85,0,1.27s0,.64.06,1l.06,1A52.65,52.65,0,0,0,8.36,90.59Z"/><path class="cls-7" d="M7.21,79.29a16.44,16.44,0,0,0,11.34,7.95L18.87,79,8.53,74.78,7,74.24S7.1,76.49,7.21,79.29Z"/><path class="cls-8" d="M28.65,65.69c3.31,14-4.72,17.6-7.74,18.31C18.16,84.64,8.72,86.49,4,72.88s.74-19.59,7-21.4S25.35,51.66,28.65,65.69Z"/><path class="cls-7" d="M26,62.71a8.14,8.14,0,0,1-1,0,1.56,1.56,0,0,1-1-.17.51.51,0,0,1-.14-.61A1.28,1.28,0,0,1,25,61.37a1.86,1.86,0,0,1,1.29.38A.55.55,0,0,1,26,62.71Z"/><path class="cls-7" d="M16.79,64.94a9.3,9.3,0,0,0,.9-.43,1.56,1.56,0,0,0,.84-.6.51.51,0,0,0-.14-.61,1.25,1.25,0,0,0-1.29,0,1.88,1.88,0,0,0-1,.91A.55.55,0,0,0,16.79,64.94Z"/><path class="cls-7" d="M17.64,68.48a1.06,1.06,0,0,1-.2.29.66.66,0,0,1-.5.21c-.58,0-.88-.6-1-1.18,0,0,0-.07,0,0,.26.28.57.56.9.49a1.26,1.26,0,0,0,.55-.46A3,3,0,0,0,17.64,68.48Z"/><path class="cls-7" d="M17.38,68.36a1.51,1.51,0,0,1,.17-.79,1.06,1.06,0,0,1,.7-.51,1,1,0,0,1,.85.23,1.8,1.8,0,0,1,.43.65,4,4,0,0,1,.14.46,2.16,2.16,0,0,1,0,1,3.2,3.2,0,0,0-.19-.69,4.43,4.43,0,0,0-.27-.58c-.22-.38-.53-.67-.86-.58s-.54.4-.58.84a7,7,0,0,0,0,1.37A3.08,3.08,0,0,1,17.38,68.36Z"/><path class="cls-7" d="M26.76,66.3a1.12,1.12,0,0,0,.32.14.69.69,0,0,0,.54-.08c.49-.32.43-1,.2-1.52,0,0-.05,0-.06,0-.08.38-.19.78-.51.89a1.28,1.28,0,0,1-.71-.1A2.84,2.84,0,0,1,26.76,66.3Z"/><path class="cls-7" d="M26.91,66.06a1.52,1.52,0,0,0-.55-.58,1.1,1.1,0,0,0-.87-.08,1,1,0,0,0-.6.64,1.93,1.93,0,0,0,0,.79,3.47,3.47,0,0,0,.13.46,2.12,2.12,0,0,0,.52.83,3.34,3.34,0,0,1-.21-.68,4.78,4.78,0,0,1-.07-.65c0-.43.11-.85.43-.94a.85.85,0,0,1,.94.41,7.61,7.61,0,0,1,.7,1.19A3.13,3.13,0,0,0,26.91,66.06Z"/><path class="cls-7" d="M21.1,75.69c.27.18.55.45.91.42a2.67,2.67,0,0,0,1-.42s.06,0,0,0a1.33,1.33,0,0,1-1.14.74,1.05,1.05,0,0,1-.91-.72A.06.06,0,0,1,21.1,75.69Z"/><path class="cls-7" d="M24.29,71.3s.53,1.38.69,2.06c0,.06-.15.13-.37.19,0,0,0,0,0,0a3.28,3.28,0,0,1-3.38-.47.07.07,0,0,1,.07-.12,4.91,4.91,0,0,0,3.12.16c0-.2-1-2.34-.88-2.37a5.75,5.75,0,0,1,1.61,0c-1-2.91-2.49-5.63-3.46-8.55a.09.09,0,0,1,.16-.08A49.83,49.83,0,0,1,26,71.17C26.09,71.54,24.59,71.35,24.29,71.3Z"/><path class="cls-7" d="M24.49,73.1a4,4,0,0,1-1.1,1.7,1.84,1.84,0,0,1-1,.43c-.82.06-1.08-.62-1.15-1.25a4.56,4.56,0,0,1,0-1A5.17,5.17,0,0,0,24.49,73.1Z"/><path class="cls-11" d="M23.39,74.8a1.84,1.84,0,0,1-1,.43c-.82.06-1.08-.62-1.15-1.25A1.87,1.87,0,0,1,23.39,74.8Z"/><path class="cls-7" d="M19.24,54a6.4,6.4,0,0,1-.17,3.76c-1.54,3.25-5.46,2.41-6.79,3.69s-.81,3.7-1.94,4.91c-1.57,1.67-3.71,1-4,2.15s-1,4.7-2.42,5.16-8-23.29,10.65-22.59c0,0,2.57-1,6.55.94,4.4,2.2,6.33,9.42,6.33,9.42l-.74-.66c-.9-.79-1.25-1.52-1.91-2-1-.81-1.61-.5-2.7-1.28A12.47,12.47,0,0,1,19.24,54Z"/><path class="cls-7" d="M19,53a12.79,12.79,0,0,1,.55,2.86,5.33,5.33,0,0,1-.39,2.78A3.9,3.9,0,0,1,17,60.31c-.89.32-1.87.42-2.82.81a2.79,2.79,0,0,0-1.25.94,3.87,3.87,0,0,0-.55,1.44,5.28,5.28,0,0,1-1,2.59,3.25,3.25,0,0,1-2.5,1.06,6.8,6.8,0,0,0-2.91.16,6.77,6.77,0,0,1,2.9.06,3.54,3.54,0,0,0,2.77-1,5.25,5.25,0,0,0,1.18-2.74,3.41,3.41,0,0,1,.5-1.27,2.45,2.45,0,0,1,1.07-.78c.85-.36,1.85-.48,2.79-.84A5.22,5.22,0,0,0,18.45,60a3.15,3.15,0,0,0,1-1.18,5.57,5.57,0,0,0,.29-3A12.56,12.56,0,0,0,19,53Z"/><path class="cls-7" d="M19.31,53.84a10.32,10.32,0,0,0,.92,2.58,4.76,4.76,0,0,0,1.88,2,6.11,6.11,0,0,0,1.29.5,2.27,2.27,0,0,1,1,.68,7.47,7.47,0,0,0,.82,1.1,3,3,0,0,0,1.19.69,3.35,3.35,0,0,1-1-.84,7.15,7.15,0,0,1-.69-1.15,2.36,2.36,0,0,0-1.15-.88,7.69,7.69,0,0,1-1.23-.49,5.18,5.18,0,0,1-1.78-1.85A20.72,20.72,0,0,1,19.31,53.84Z"/><path class="cls-6" d="M18.31,73.61a4.33,4.33,0,1,1,3.4-5.93h0a4.31,4.31,0,0,1-2.36,5.63A4.36,4.36,0,0,1,18.31,73.61Zm-1.12-8a3.74,3.74,0,1,0,4,2.28A3.75,3.75,0,0,0,17.19,65.62Z"/><path class="cls-6" d="M27.69,71.07c-1.65.15-3.3-1.4-3.76-3.6a5.12,5.12,0,0,1,.27-3.15,2.69,2.69,0,0,1,4.51-.95,5.2,5.2,0,0,1,1.52,2.77c.49,2.33-.52,4.52-2.26,4.89Zm-1.17-8-.22,0a2.3,2.3,0,0,0-1.58,1.42,4.65,4.65,0,0,0-.23,2.79c.43,2,1.93,3.42,3.36,3.11s2.24-2.18,1.81-4.2a4.59,4.59,0,0,0-1.34-2.46A2.4,2.4,0,0,0,26.52,63.1Z"/><path class="cls-6" d="M21.7,68.21l-.47-.34c.49-.7,1.77-1.8,3.08-1l-.31.49C22.83,66.64,21.74,68.14,21.7,68.21Z"/><path class="cls-6" d="M3.35,74.17,2.79,74c0-.26.61-2.58,1.8-3.11s8.8-1.76,9.12-1.81l.1.57c-2.21.36-8.12,1.38-9,1.77S3.49,73.53,3.35,74.17Z"/><path class="cls-8" d="M7,72s-3.76-4-5.62-2.59,1.42,7.52,3.92,8A2.45,2.45,0,0,0,8.3,75.7Z"/><path class="cls-7" d="M2.31,71.15s0,0,0,.06A6.18,6.18,0,0,1,6,74.57a1.35,1.35,0,0,0-2-.08s0,.1.06.09a1.49,1.49,0,0,1,1.71.28,7.07,7.07,0,0,1,1,1.2c.1.14.36,0,.28-.14l0,0C6.7,73.75,4.62,71,2.31,71.15Z"/><polygon class="cls-7" points="160.01 288.07 160 288.51 159.13 357.59 116.92 356.75 125.59 146.15 161.24 146.15 160.01 288.07"/><path class="cls-7" d="M152,326.29q.12-9.48.3-18.94.36-18.93.7-37.87.71-37.67,1.22-75.34c.21-14.17.21-28.34.57-42.51,0,0,.06,0,.06,0,.23,12.63.09,25.26.07,37.88s-.08,25.26-.2,37.88c-.24,25.12-.59,50.24-1.19,75.35-.16,7.09-.34,14.17-.58,21.25s-.4,14.17-.9,21.24a.09.09,0,0,1-.17,0C151.73,338.92,151.88,332.6,152,326.29Z"/><polygon class="cls-7" points="161.24 146.57 160.3 254.11 131.72 146.15 161.23 146.15 161.24 146.57"/><path class="cls-7" d="M129.24,146.11v0c.15.73,2.65,12.3,5.23,22.23,1.88,7.26,3.81,13.63,4.92,14.29s7.38,3.46,9.43,4.31c0,0,13.76,68.72,21,90,6.71,19.66,34.46,72.22,34.46,72.22l40.26-20.34S213.14,275.55,209.83,266c-5.12-14.83-24.33-87.28-24.33-87.28s.15-22.68-7.49-32.58Z"/><path class="cls-7" d="M175.17,172.39a32.53,32.53,0,0,0-3.4-.55c-.91-.15-1.81-.31-2.71-.51a11.81,11.81,0,0,1-4.79-2,11.4,11.4,0,0,1-3.1-4.82c-.45-1.05-.91-2.09-1.37-3.13l-.69-1.51a16.49,16.49,0,0,1-.85-1.81c0-.09-.18-.05-.14,0a11.42,11.42,0,0,1,.38,1.3c.16.51.3,1,.46,1.52.28.9.55,1.81.85,2.7a21,21,0,0,0,1.91,4.74c1.67,2.65,4.64,3.72,7.61,4.09.85.11,1.71.17,2.57.22a18.45,18.45,0,0,0,3.24,0A.15.15,0,0,0,175.17,172.39Z"/><path class="cls-7" d="M134.86,151.94c0-.15.27-.18.27,0,0,5,.29,9.48.71,14.2.2,2.19,2,14.29,5.76,13.4.63-.14,1-.77,1.06-1.73a14.8,14.8,0,0,0-.51-3.71c-.42-2.53-.76-5.07-1-7.63a69.13,69.13,0,0,1,.15-14.31.13.13,0,0,1,.25,0,130.55,130.55,0,0,0,1.15,19.76c.48,3.15,2.06,7.88-1.23,8.37s-5.52-7.44-5.93-9.62A72.43,72.43,0,0,1,134.86,151.94Z"/><path class="cls-12" d="M160.12,91.44c2.65,7.66,1.26,45.42-2.66,49.93-6.77,7.8-40.46,13.36-49.22,12.74-6.33-.45-6.84-26.59-1.26-27.44,9.32-1.42,34.46-3.55,35-5.06,2.66-7.93,4.53-15.25,8.13-27.73C152.58,85.17,157.2,83,160.12,91.44Z"/><path class="cls-12" d="M112.47,153.47c2.83-1.94,1.39-25.05-1.77-26.61-.6-.3-4.13-1.75-5.48-2.48a46,46,0,0,1-12-9.29c-3.85-4.37-9.07-11.3-11.5-9.31-3.55,2.88,2,12.44,5.52,17.73-3.44.26-6.39.8-8,1.75-5.31,3.13,0,26.85,6.16,27.74C91.37,153.85,109.63,155.41,112.47,153.47Z"/><path class="cls-12" d="M92.69,125.59c1.88,2.59-2.26,3.32-2.26,3.32s6.21.39,7.11,3.81-4.17,4-4.53,4.07c.33,0,6,.52,6.57,4.06s-4.59,3.51-4.93,3.5c.31.12,4.28,1.76,4.09,4.54-.33,4.78-10.61.86-14.08,2.59a12.52,12.52,0,0,1,.47,1.29S77,152.17,75,149.55c-1.67-2.2,1.06-4.06,1.06-4.06s-3.31-.79-3.83-3.56C72,140.51,74,138.82,74,138.82a4.21,4.21,0,0,1-2.94-3.23c-.25-2,1.84-3.37,1.84-3.37s-2.19-1.88-1.79-4C71.93,124,88.66,120,92.69,125.59Z"/><path class="cls-7" d="M73.21,132a0,0,0,0,1,0-.09,29.77,29.77,0,0,1,17.47-3c.19,0,.23.35,0,.36A60.8,60.8,0,0,0,73.21,132Z"/><path class="cls-7" d="M73.92,138.81c-.06,0-.09-.09,0-.12a27.9,27.9,0,0,1,19.27-2.1c.22.06.36.34.1.29C88.82,136,79.21,137.08,73.92,138.81Z"/><path class="cls-7" d="M95.07,144.64c-6.34-1.53-12.53-.87-18.79.72-.08,0-.1-.09,0-.13,2.85-1.61,7-2.21,10.17-2.41a17.37,17.37,0,0,1,8.71,1.59C95.23,144.47,95.2,144.67,95.07,144.64Z"/><path class="cls-7" d="M90.51,128.83c.23,0-.08.33.15.38,1,.18,6.59,1.77,6.64,3.86,0,1.68-2.18,2.89-3.22,3l-2.61.33L94,137a10.69,10.69,0,0,1,3.23,1.3,3.86,3.86,0,0,1,1.93,2.48A2.22,2.22,0,0,1,98,143.29a6.7,6.7,0,0,1-3.29.54l-3.1-.17,2.87,1.17a10.58,10.58,0,0,1,2.24,1.27,4.14,4.14,0,0,1,1.5,1.88,2,2,0,0,1-.45,2,4.27,4.27,0,0,1-2.28.88,34.6,34.6,0,0,1-5.4.12c-.91,0-1.82,0-2.74,0a6.45,6.45,0,0,0-2.68.49,7.1,7.1,0,0,1,2.68-.24c.91,0,1.81.14,2.72.23a28.87,28.87,0,0,0,5.51.17,5.14,5.14,0,0,0,2.78-1,2.79,2.79,0,0,0,.77-3,5,5,0,0,0-1.8-2.37,10.61,10.61,0,0,0-2.48-1.45l-.24,1a7.62,7.62,0,0,0,3.89-.61,3.18,3.18,0,0,0,1.52-1.53,3.59,3.59,0,0,0,.22-2.11,4.85,4.85,0,0,0-2.44-3.15,11.59,11.59,0,0,0-3.57-1.37l0,.92c1.32-.21,4-1.29,4.22-3.9C98.23,129.68,91.71,128.89,90.51,128.83Z"/><path class="cls-7" d="M90.43,128.91a6.55,6.55,0,0,0,1.71-1,1.47,1.47,0,0,0,.57-1.39,3,3,0,0,0-.93-1.45c-.46-.45-1-.89-1.52-1.33a5.08,5.08,0,0,1,2,.79,3,3,0,0,1,1.37,1.83,2.17,2.17,0,0,1-.21,1.26,2.13,2.13,0,0,1-.85.86A3.45,3.45,0,0,1,90.43,128.91Z"/><path class="cls-6" d="M110.79,125.19,114,157.37S150.43,152,158.55,142c4.1-5,3.79-38,2.69-47.64s-7.59-12.06-11.4-1.38-7.35,26.7-8.15,27.63S110.79,125.19,110.79,125.19Z"/><path class="cls-7" d="M120.46,152.36c-.64-4.11-2.65-21-2.84-24.7,0-.26.14-.33.19-.06a182.93,182.93,0,0,1,2.82,24.72C120.63,152.43,120.48,152.46,120.46,152.36Z"/><path class="cls-6" d="M185.25,160.31c-.15.15-61.24-1.39-61.79-2.05-.76-.93,10.61-60.23,21.22-73.36,2.65-3.28,11.17-3.71,15.1-.52C179.25,100.17,185.79,159.74,185.25,160.31Z"/><path class="cls-12" d="M147.45,93.33c2.59.51,8.73-3.55,11.46-7.33.19-.26.12-3.25.22-6.89.07-2.2.19-4.66.47-6.89l-14.42,1.66a35.66,35.66,0,0,1,.29,8.74,4.23,4.23,0,0,1-.21.9,1.55,1.55,0,0,0,0,.15C144.72,85.37,143.4,92.53,147.45,93.33Z"/><path class="cls-7" d="M145.26,83.52a1.55,1.55,0,0,0,0,.15,9.37,9.37,0,0,0,1.43.26c8,.8,11.13-8.65,11.91-11.59l-13.38,1.54a36.55,36.55,0,0,1,.3,8.74A5.92,5.92,0,0,1,145.26,83.52Z"/><path class="cls-12" d="M162.2,53.34c1.51,5-1.16,19.44-4.73,22.65-5.17,4.66-13.61,5.08-17.56-1.12-3.83-6,0-24.78,4-27.69C149.74,42.88,160,46,162.2,53.34Z"/><path class="cls-7" d="M148.91,61.36s.06.06.06.1c-.22,1-.31,2.11.51,2.6,0,0,0,.06,0,0C148.41,63.75,148.55,62.24,148.91,61.36Z"/><path class="cls-7" d="M150,60.51c1.59.19,1.1,3.34-.37,3.17S148.64,60.36,150,60.51Z"/><path class="cls-7" d="M143.16,60.28s-.09,0-.09.07c-.12,1-.42,2.09-1.36,2.28a0,0,0,0,0,0,0C142.82,62.7,143.2,61.22,143.16,60.28Z"/><path class="cls-7" d="M142.44,59.12c-1.55-.36-2.16,2.78-.72,3.11S143.74,59.42,142.44,59.12Z"/><path class="cls-7" d="M151.44,59.26a9.91,9.91,0,0,1-1.16-.62,2.13,2.13,0,0,1-1.06-.85.67.67,0,0,1,.23-.79,1.68,1.68,0,0,1,1.7.08,2.44,2.44,0,0,1,1.24,1.27A.72.72,0,0,1,151.44,59.26Z"/><path class="cls-7" d="M141.53,57.72a11.22,11.22,0,0,0,1.3-.13,2.15,2.15,0,0,0,1.31-.39.68.68,0,0,0,.08-.82,1.64,1.64,0,0,0-1.6-.56,2.4,2.4,0,0,0-1.62.7A.72.72,0,0,0,141.53,57.72Z"/><path class="cls-7" d="M148.42,70.57c-.27.2-.55.48-.91.45a2.54,2.54,0,0,1-1-.41s-.07,0-.05,0a1.33,1.33,0,0,0,1.16.72,1.06,1.06,0,0,0,.9-.75S148.46,70.54,148.42,70.57Z"/><path class="cls-7" d="M147.84,67.49a3.38,3.38,0,0,1-2.45,1.14,4.06,4.06,0,0,1-1.2-.13.86.86,0,0,1-.23-.06l-.21-.07a.23.23,0,0,1-.16-.25h0a.29.29,0,0,1,0-.1h0v-.08c.1-.76.35-1.89.35-1.89-.3.09-1.8.51-1.72.12a51.32,51.32,0,0,1,2.84-9.88c0-.1.2-.05.17,0-.54,3.13-1.63,6.14-2.23,9.27a6,6,0,0,1,1.65-.23c.1,0-.52,2.18-.54,2.52a.1.1,0,0,0,0,0,4.67,4.67,0,0,0,3.6-.54C147.85,67.34,147.91,67.42,147.84,67.49Z"/><path class="cls-7" d="M144.69,68.19a4,4,0,0,0,1.39,1.46,1.79,1.79,0,0,0,1.07.24c.82-.09.94-.8.9-1.44a4.25,4.25,0,0,0-.21-1A5.21,5.21,0,0,1,144.69,68.19Z"/><path class="cls-11" d="M146.08,69.65a1.79,1.79,0,0,0,1.07.24c.82-.09.94-.8.9-1.44A1.88,1.88,0,0,0,146.08,69.65Z"/><path class="cls-7" d="M157.58,60.65c-.89-2.88.87-7.62-.52-8.94-3-2.85-9.47,2.3-13.81,2.21s-5.53-2.82-4.69-6.21,3.81-5.61,8.55-6.19a17.78,17.78,0,0,1,11.67,3.1s-1-1.73-.61-2.25,2.43,1.17,3,1.89a6.22,6.22,0,0,1,1,2.05,6.79,6.79,0,0,1,1.93-.15,4.06,4.06,0,0,1,2.46,1.18c.07.26-1.47.41-2.54.44,0,0,1.93,2.7,1.83,5s-3.93,13-4.78,13.07C160,65.94,157.94,61.82,157.58,60.65Z"/><path class="cls-7" d="M157.25,50.61a10.45,10.45,0,0,0-3.82.15,14.85,14.85,0,0,0-3.31,1.54,14.52,14.52,0,0,1-7.82,1.92,0,0,0,0,0,0,.06,12.77,12.77,0,0,0,7.27-1.36,32.15,32.15,0,0,1,3.43-1.7,13.14,13.14,0,0,1,4.24-.38A.12.12,0,0,0,157.25,50.61Z"/><path class="cls-7" d="M156.22,43.36a20,20,0,0,0-5.35-1.93,15.76,15.76,0,0,0-5.43-.33c-3.13.43-6,2.33-6.86,5.51a6.84,6.84,0,0,0,.51,4.87.09.09,0,0,0,.16-.07,7,7,0,0,1,1.81-8.22c2.61-2.15,6.2-2.22,9.38-1.63a28.65,28.65,0,0,1,5.77,1.82S156.23,43.36,156.22,43.36Z"/><path class="cls-12" d="M159.08,65.1s3.37-4.59,5.47-3.38-.52,7.93-3,8.8a2.53,2.53,0,0,1-3.36-1.44Z"/><path class="cls-7" d="M163.75,63.63s.05,0,0,.06a6.41,6.41,0,0,0-3.39,3.93,1.41,1.41,0,0,1,2.1-.34.06.06,0,0,1-.05.1,1.56,1.56,0,0,0-1.73.5,7.45,7.45,0,0,0-.85,1.37c-.09.15-.37.06-.3-.12v0C159.56,66.87,161.36,63.8,163.75,63.63Z"/><path class="cls-12" d="M153.3,105.66c-6.75-.39-42.74-3.87-50.52-11.31-11.57-11.07-17.15-29.16-20-36.92-1.25-3.39,21.18-14,23-10.59,4,7.24,12.36,26.82,14.38,28.88s24.48,10.82,36,16C171.64,98.59,169.71,106.6,153.3,105.66Z"/><path class="cls-12" d="M105.57,48.8s.72-9.9-.52-15.22a35,35,0,0,0-8-14.76C93,14.27,79.89,6.1,76.88,9.46c-2.72,3,11.06,10.7,11.06,10.7S75.18,10,72.57,14.28s13.9,12.25,13.9,12.25-13.34-10.12-15.34-5.3c-1.5,3.64,13,11.72,13,11.72s-11.53-8.62-13.24-5C69,32.07,82,40.37,82,40.37c-2.78,10.08.16,17.46,2.88,20.18C85.67,61.35,105.57,48.8,105.57,48.8Z"/><path class="cls-7" d="M92.58,23.39c-1.46-1.25-2.92-2.52-4.48-3.63s-3.17-2.17-4.83-3.13a32.89,32.89,0,0,0-6.8-3.13c4.12,1.69,9.77,5.59,11.34,6.7s3.17,2.14,4.73,3.25C92.58,23.48,92.61,23.42,92.58,23.39Z"/><path class="cls-7" d="M88.67,29.1c-1.93-1.51-3.79-3.08-5.78-4.51s-4-2.59-6.07-3.86c-.16-.1-.17,0,0,.12,2,1.36,3.79,2.77,5.8,4.16s4.07,2.69,6,4.14C88.66,29.17,88.7,29.12,88.67,29.1Z"/><path class="cls-7" d="M86.19,34.6a55.37,55.37,0,0,0-9.37-6.21c-.16-.09-.14.06,0,.17,3.15,2,5.64,3.55,9.26,6.14C86.16,34.74,86.25,34.66,86.19,34.6Z"/><path class="cls-6" d="M80.57,63.1l27.11-14.32s10.46,23.66,12.66,26S155.51,89.62,162.92,95s5.34,10.78-4.36,11.3-48.08-4.46-55-10.06S80.57,63.1,80.57,63.1Z"/><path class="cls-7" d="M108.42,56.41c-3.61,2.07-18.68,10-22,11.49-.24.1-.36,0-.13-.16a183,183,0,0,1,22.09-11.47C108.42,56.23,108.51,56.36,108.42,56.41Z"/><line class="cls-6" x1="83.67" y1="1.64" x2="89.27" y2="-19.2"/><line class="cls-6" x1="63.73" y1="4.25" x2="52.95" y2="-14.44"/><line class="cls-6" x1="51.47" y1="20.2" x2="30.64" y2="14.6"/><line class="cls-6" x1="48.52" y1="43.35" x2="35.4" y2="50.92"/><line class="cls-6" x1="108.99" y1="35.65" x2="123.08" y2="39.43"/><line class="cls-6" x1="99.62" y1="13.89" x2="118.32" y2="3.11"/><line class="cls-6" x1="41.96" y1="12.89" x2="50.32" y2="16.54"/><line class="cls-6" x1="96.75" y1="-17.76" x2="84.53" y2="6.51"/><line class="cls-6" x1="106.16" y1="18.48" x2="128.17" y2="16.54"/><line class="cls-6" x1="45.37" y1="40.65" x2="27.48" y2="46.18"/></g><g class="cls-13"><path class="cls-6" d="M193.15,70.72a17.06,17.06,0,1,0-15.4-18.57A17.07,17.07,0,0,0,193.15,70.72ZM179.81,52.35a15,15,0,1,1,13.52,16.3A15,15,0,0,1,179.81,52.35Zm13.34,18.37a17.06,17.06,0,1,0-15.4-18.57A17.07,17.07,0,0,0,193.15,70.72ZM179.81,52.35a15,15,0,1,1,13.52,16.3A15,15,0,0,1,179.81,52.35Zm13.34,18.37a17.06,17.06,0,1,0-15.4-18.57A17.07,17.07,0,0,0,193.15,70.72ZM179.81,52.35a15,15,0,1,1,13.52,16.3A15,15,0,0,1,179.81,52.35Zm11.58,37.19A36,36,0,1,0,158.93,50.4,36,36,0,0,0,191.39,89.54ZM175.1,51.91a19.71,19.71,0,1,1,17.8,21.45A19.73,19.73,0,0,1,175.1,51.91Zm2.65.24A17.06,17.06,0,1,0,196.3,36.74,17.05,17.05,0,0,0,177.75,52.15Zm2.06.2a15,15,0,1,1,13.52,16.3A15,15,0,0,1,179.81,52.35Zm13.34,18.37a17.06,17.06,0,1,0-15.4-18.57A17.07,17.07,0,0,0,193.15,70.72ZM179.81,52.35a15,15,0,1,1,13.52,16.3A15,15,0,0,1,179.81,52.35Zm13.34,18.37a17.06,17.06,0,1,0-15.4-18.57A17.07,17.07,0,0,0,193.15,70.72ZM179.81,52.35a15,15,0,1,1,13.52,16.3A15,15,0,0,1,179.81,52.35Z"/><polygon class="cls-6" points="173.96 81 165.13 70.36 158.08 77.19 165.94 86.66 173.96 81"/><polygon class="cls-6" points="160.73 57.77 162.01 44 152.19 43.86 151.06 56.1 160.73 57.77"/><g class="cls-14"><path d="M193.15,70.72a17.06,17.06,0,1,0-15.4-18.57A17.07,17.07,0,0,0,193.15,70.72ZM179.81,52.35a15,15,0,1,1,13.52,16.3A15,15,0,0,1,179.81,52.35Zm13.34,18.37a17.06,17.06,0,1,0-15.4-18.57A17.07,17.07,0,0,0,193.15,70.72ZM179.81,52.35a15,15,0,1,1,13.52,16.3A15,15,0,0,1,179.81,52.35Zm13.34,18.37a17.06,17.06,0,1,0-15.4-18.57A17.07,17.07,0,0,0,193.15,70.72ZM179.81,52.35a15,15,0,1,1,13.52,16.3A15,15,0,0,1,179.81,52.35Zm11.58,37.19A36,36,0,1,0,158.93,50.4,36,36,0,0,0,191.39,89.54ZM175.1,51.91a19.71,19.71,0,1,1,17.8,21.45A19.73,19.73,0,0,1,175.1,51.91Zm2.65.24A17.06,17.06,0,1,0,196.3,36.74,17.05,17.05,0,0,0,177.75,52.15Zm2.06.2a15,15,0,1,1,13.52,16.3A15,15,0,0,1,179.81,52.35Zm13.34,18.37a17.06,17.06,0,1,0-15.4-18.57A17.07,17.07,0,0,0,193.15,70.72ZM179.81,52.35a15,15,0,1,1,13.52,16.3A15,15,0,0,1,179.81,52.35Zm13.34,18.37a17.06,17.06,0,1,0-15.4-18.57A17.07,17.07,0,0,0,193.15,70.72ZM179.81,52.35a15,15,0,1,1,13.52,16.3A15,15,0,0,1,179.81,52.35Z"/><polygon points="173.96 81 165.13 70.36 158.08 77.19 165.94 86.66 173.96 81"/><polygon points="160.73 57.77 162.01 44 152.19 43.86 151.06 56.1 160.73 57.77"/></g></g></svg>