<svg id="Слой_1" data-name="Слой 1" xmlns="http://www.w3.org/2000/svg" xmlns:xlink="http://www.w3.org/1999/xlink" viewBox="0 0 160 160"><defs><style>.cls-1{fill:none;}.cls-2{fill:#4a148c;}.cls-3{clip-path:url(#clip-path);}.cls-4{fill:#ffc800;}.cls-5,.cls-6{opacity:0.2;}.cls-7,.cls-8{opacity:0.1;}.cls-9{fill:#fff;}.cls-10{clip-path:url(#clip-path-2);}.cls-11{fill:#ececec;}.cls-12{fill:#dcdcdc;}.cls-13{fill:#c8c8c8;}.cls-14{fill:#306;}</style><clipPath id="clip-path"><rect class="cls-1" x="-3.06" y="-4.72" width="174" height="169"/></clipPath><clipPath id="clip-path-2"><rect class="cls-1" x="228.94" y="-4.72" width="170" height="170"/></clipPath></defs><rect class="cls-2" x="-684.56" y="-25.22" width="1537" height="226"/><g class="cls-3"><path class="cls-4" d="M110.6,160.84H95.22l-109.67,0H-29.83l15.37-17.7,0-72.62A44.89,44.89,0,0,1,30.4,25.67l19.87,0A44.89,44.89,0,0,1,95.18,70.54l0,72.62Z"/><g class="cls-5"><path d="M110.6,160.84H95.22l-109.67,0H-29.83l15.37-17.7,0-72.62A44.89,44.89,0,0,1,30.4,25.67l19.87,0A44.89,44.89,0,0,1,95.18,70.54l0,72.62Z"/></g><rect class="cls-4" x="23.37" y="23.35" width="33.93" height="3.59"/><rect class="cls-4" x="23.37" y="17.42" width="33.93" height="3.59"/><polygon class="cls-4" points="66.13 -4.68 52.54 15.08 28.11 15.09 14.54 -4.66 66.13 -4.68"/><polygon class="cls-6" points="66.13 -4.68 52.54 15.08 28.11 15.09 14.54 -4.66 66.13 -4.68"/><path class="cls-4" d="M43.78,82.49V62.91A23.81,23.81,0,0,1,54.9,67.52a2.77,2.77,0,0,0,1.93.68,2.58,2.58,0,0,0,1.38-4.89A28.8,28.8,0,0,0,43.92,58V55.65a2.67,2.67,0,0,0-5.33,0v2.16c-10,.48-17.21,6.41-17.21,14.27s5.19,12.14,17.35,14.68v20A26.75,26.75,0,0,1,24,100.19a2.87,2.87,0,0,0-2-.69,2.76,2.76,0,0,0-2.75,2.58,2.58,2.58,0,0,0,1.17,2.12,32.8,32.8,0,0,0,18.19,7.38v5.26a2.67,2.67,0,0,0,5.33,0v-5.17c10.37-.54,17.53-6.45,17.53-14.55C61.47,89.49,56,85,43.78,82.49Zm-5.05-1C28.94,79.15,27,76.15,27,71.77c0-5,4.91-8.76,11.75-9.14Zm5.06,25.43V87.79C53.88,90,55.89,93,55.89,97.42,55.89,102.68,51,106.51,43.79,106.87Z"/><rect class="cls-4" x="109.63" y="144.88" width="72.45" height="16.01" transform="translate(291.72 305.76) rotate(180)"/><g class="cls-7"><path d="M156.6,146.34a40.18,40.18,0,0,1,0,12.81,39.9,39.9,0,0,1,0-12.81Z"/><path d="M152.68,146.34a39.9,39.9,0,0,1,0,12.81,40.18,40.18,0,0,1,0-12.81Z"/><path d="M136.5,146.34a40.18,40.18,0,0,1,0,12.81,39.9,39.9,0,0,1,0-12.81Z"/><path d="M132.76,146.34a40.18,40.18,0,0,1,0,12.81,39.9,39.9,0,0,1,0-12.81Z"/><path d="M125.89,146.34a40.18,40.18,0,0,1,0,12.81,39.9,39.9,0,0,1,0-12.81Z"/><path d="M139.62,146.34a39.9,39.9,0,0,1,0,12.81,40.18,40.18,0,0,1,0-12.81Z"/><path d="M147.53,146.34a39.9,39.9,0,0,1,0,12.81,40.18,40.18,0,0,1,0-12.81Z"/><path d="M144.83,146.34a39.9,39.9,0,0,1,0,12.81,40.18,40.18,0,0,1,0-12.81Z"/><path d="M116.94,146.34a40.18,40.18,0,0,1,0,12.81,39.9,39.9,0,0,1,0-12.81Z"/><path d="M112.89,146.34a40.18,40.18,0,0,1,0,12.81,40.18,40.18,0,0,1,0-12.81Z"/><path d="M122.7,146.34a39.9,39.9,0,0,1,0,12.81,40.18,40.18,0,0,1,0-12.81Z"/><path d="M159.72,146.34a39.9,39.9,0,0,1,0,12.81,40.18,40.18,0,0,1,0-12.81Z"/></g><polygon class="cls-8" points="109.64 144.88 109.64 148.28 182.09 150.56 182.09 144.88 109.64 144.88"/><rect class="cls-4" x="114.59" y="128.87" width="72.45" height="16.01" transform="translate(301.63 273.74) rotate(180)"/><g class="cls-7"><path d="M157.64,130.33a40.18,40.18,0,0,1,0,12.81,39.9,39.9,0,0,1,0-12.81Z"/><path d="M141.45,130.33a39.9,39.9,0,0,1,0,12.81,40.18,40.18,0,0,1,0-12.81Z"/><path d="M137.71,130.33a39.9,39.9,0,0,1,0,12.81,40.18,40.18,0,0,1,0-12.81Z"/><path d="M130.84,130.33a39.9,39.9,0,0,1,0,12.81,40.18,40.18,0,0,1,0-12.81Z"/><path d="M144.58,130.33a40.18,40.18,0,0,1,0,12.81,39.9,39.9,0,0,1,0-12.81Z"/><path d="M152.49,130.33a40.18,40.18,0,0,1,0,12.81,39.9,39.9,0,0,1,0-12.81Z"/><path d="M149.79,130.33a40.18,40.18,0,0,1,0,12.81,39.9,39.9,0,0,1,0-12.81Z"/><path d="M121.89,130.33a39.9,39.9,0,0,1,0,12.81,40.18,40.18,0,0,1,0-12.81Z"/><path d="M117.85,130.33a40.18,40.18,0,0,1,0,12.81,39.9,39.9,0,0,1,0-12.81Z"/><path d="M127.66,130.33a40.18,40.18,0,0,1,0,12.81,39.9,39.9,0,0,1,0-12.81Z"/></g><polygon class="cls-8" points="114.59 128.87 114.59 132.27 187.04 134.56 187.04 128.87 114.59 128.87"/><rect class="cls-4" x="114.05" y="80.97" width="72.45" height="16.01" transform="translate(300.55 177.95) rotate(180)"/><g class="cls-7"><path d="M157.1,82.44a40.18,40.18,0,0,1,0,12.81,39.9,39.9,0,0,1,0-12.81Z"/><path d="M140.91,82.44a39.9,39.9,0,0,1,0,12.81,40.18,40.18,0,0,1,0-12.81Z"/><path d="M137.17,82.44a39.9,39.9,0,0,1,0,12.81,40.18,40.18,0,0,1,0-12.81Z"/><path d="M130.3,82.44a39.9,39.9,0,0,1,0,12.81,40.18,40.18,0,0,1,0-12.81Z"/><path d="M144,82.44a40.18,40.18,0,0,1,0,12.81,39.9,39.9,0,0,1,0-12.81Z"/><path d="M152,82.44a40.18,40.18,0,0,1,0,12.81,39.9,39.9,0,0,1,0-12.81Z"/><path d="M149.25,82.44a40.18,40.18,0,0,1,0,12.81,39.9,39.9,0,0,1,0-12.81Z"/><path d="M121.35,82.44a39.9,39.9,0,0,1,0,12.81,40.18,40.18,0,0,1,0-12.81Z"/><path d="M117.31,82.44a40.18,40.18,0,0,1,0,12.81,39.61,39.61,0,0,1,0-12.81Z"/><path d="M127.12,82.44a40.18,40.18,0,0,1,0,12.81,39.9,39.9,0,0,1,0-12.81Z"/></g><polygon class="cls-8" points="114.05 80.97 114.05 84.37 186.5 86.66 186.5 80.97 114.05 80.97"/><rect class="cls-4" x="120.71" y="96.98" width="72.45" height="16.01" transform="translate(313.87 209.97) rotate(180)"/><g class="cls-7"><path d="M147.57,98.45a40.18,40.18,0,0,1,0,12.81,39.9,39.9,0,0,1,0-12.81Z"/><path d="M143.83,98.45a40.18,40.18,0,0,1,0,12.81,39.9,39.9,0,0,1,0-12.81Z"/><path d="M137,98.45a39.9,39.9,0,0,1,0,12.81,40.18,40.18,0,0,1,0-12.81Z"/><path d="M150.7,98.45a40.18,40.18,0,0,1,0,12.81,39.9,39.9,0,0,1,0-12.81Z"/><path d="M158.61,98.45a40.18,40.18,0,0,1,0,12.81,39.9,39.9,0,0,1,0-12.81Z"/><path d="M155.91,98.45a40.18,40.18,0,0,1,0,12.81,39.9,39.9,0,0,1,0-12.81Z"/><path d="M128,98.45a39.9,39.9,0,0,1,0,12.81,40.18,40.18,0,0,1,0-12.81Z"/><path d="M124,98.45a39.9,39.9,0,0,1,0,12.81,40.18,40.18,0,0,1,0-12.81Z"/><path d="M133.77,98.45a39.9,39.9,0,0,1,0,12.81,40.18,40.18,0,0,1,0-12.81Z"/></g><polygon class="cls-8" points="120.71 96.98 120.71 100.38 193.16 102.67 193.16 96.98 120.71 96.98"/><rect class="cls-4" x="109.63" y="112.99" width="72.45" height="16.01" transform="translate(291.72 241.99) rotate(180)"/><g class="cls-7"><path d="M112.89,127.27a39.9,39.9,0,0,1,0-12.81,40.18,40.18,0,0,1,0,12.81Z"/><path d="M118.29,127.27a39.9,39.9,0,0,1,0-12.81,40.18,40.18,0,0,1,0,12.81Z"/><path d="M120.92,127.27a40.18,40.18,0,0,1,0-12.81,39.9,39.9,0,0,1,0,12.81Z"/><path d="M135.39,127.27a40.18,40.18,0,0,1,0-12.81,39.9,39.9,0,0,1,0,12.81Z"/><path d="M139.31,127.27a39.9,39.9,0,0,1,0-12.81,40.18,40.18,0,0,1,0,12.81Z"/><path d="M155.49,127.27a40.18,40.18,0,0,1,0-12.81,39.9,39.9,0,0,1,0,12.81Z"/><path d="M159.23,127.27a40.18,40.18,0,0,1,0-12.81,39.9,39.9,0,0,1,0,12.81Z"/><path d="M152.37,127.27a39.9,39.9,0,0,1,0-12.81,40.18,40.18,0,0,1,0,12.81Z"/><path d="M125.7,127.27a40.18,40.18,0,0,1,0-12.81,39.9,39.9,0,0,1,0,12.81Z"/><path d="M144.46,127.27a39.9,39.9,0,0,1,0-12.81,40.18,40.18,0,0,1,0,12.81Z"/><path d="M147.15,127.27a40.18,40.18,0,0,1,0-12.81,39.9,39.9,0,0,1,0,12.81Z"/><path d="M132.26,127.27a40.18,40.18,0,0,1,0-12.81,39.9,39.9,0,0,1,0,12.81Z"/></g><polygon class="cls-8" points="109.64 112.99 109.64 116.39 182.09 118.68 182.09 112.99 109.64 112.99"/><path class="cls-4" d="M109.11,89.53c47.7,8.56,35.1,79.21-12.67,70.64S61.34,81,109.11,89.53Z"/><path class="cls-8" d="M109.11,89.53c47.7,8.56,35.1,79.21-12.67,70.64S61.34,81,109.11,89.53Z"/><path class="cls-4" d="M104.63,88.72c45.46,8.16,32.86,78.81-12.67,70.64S59.11,80.56,104.63,88.72Z"/><path class="cls-8" d="M69.47,125.71C69.71,138.29,77,150.49,93,153.36c37.78,6.78,48.24-51.86,10.52-58.63-.24,0-.49-.09-.74-.12,35.37,7.08,25.24,62.57-10.79,56.11C77.34,148.08,70.25,137.22,69.47,125.71Z"/><g class="cls-7"><path d="M101.12,101.94a1.21,1.21,0,0,1,.9,1.43l-.44,1.95a16.29,16.29,0,0,1,7.9,5.38,1.39,1.39,0,0,1,.43,1.27,1.28,1.28,0,0,1-1.55.93,1.21,1.21,0,0,1-.8-.54,14.2,14.2,0,0,0-6.59-4.82l-3.09,13.64c7.05,3.24,9.54,6.72,8.46,11.5-1.17,5.16-6.34,7.83-12.47,6.65l-.86,3.8a1.22,1.22,0,0,1-1.44.9,1.21,1.21,0,0,1-.9-1.43l.87-3.85a18.78,18.78,0,0,1-9.89-7.21,1.26,1.26,0,0,1,1.19-2.09,1.25,1.25,0,0,1,.8.54,16.13,16.13,0,0,0,8.49,6.59l3.15-13.89c-6.94-3.26-9.35-6.63-8.25-11.5s6.26-7.7,12.23-6.5l.42-1.85A1.22,1.22,0,0,1,101.12,101.94Zm-5.27,18.27,3-13.3c-4.75-1-8.5,1.14-9.3,4.65C88.81,114.87,89.9,117.27,95.85,120.21Zm1.47,3.46-3,13.44c4.89,1,8.7-1.1,9.54-4.8C104.57,129,103.33,126.52,97.32,123.67Z"/></g><polygon class="cls-9" points="53.77 33.46 55.33 30.6 56.89 33.46 59.74 35.02 56.89 36.58 55.33 39.44 53.77 36.58 50.91 35.02 53.77 33.46"/><polygon class="cls-9" points="140.41 88.84 141.97 85.98 143.53 88.84 146.39 90.4 143.53 91.96 141.97 94.82 140.41 91.96 137.55 90.4 140.41 88.84"/><polygon class="cls-9" points="92.77 130.03 93.75 128.22 94.74 130.03 96.55 131.02 94.74 132.01 93.75 133.82 92.77 132.01 90.96 131.02 92.77 130.03"/><polygon class="cls-9" points="97.34 150.91 98.33 149.1 99.32 150.91 101.13 151.9 99.32 152.89 98.33 154.69 97.34 152.89 95.53 151.9 97.34 150.91"/><polygon class="cls-9" points="26.82 56.05 27.8 54.25 28.79 56.05 30.6 57.04 28.79 58.03 27.8 59.84 26.82 58.03 25.01 57.04 26.82 56.05"/><polygon class="cls-9" points="151.5 99.52 152.49 97.71 153.48 99.52 155.29 100.51 153.48 101.5 152.49 103.31 151.5 101.5 149.7 100.51 151.5 99.52"/><polygon class="cls-9" points="75.86 102.58 77.42 99.73 78.98 102.58 81.84 104.15 78.98 105.71 77.42 111.77 75.86 105.71 73 104.15 75.86 102.58"/><polygon class="cls-9" points="83.06 132.84 84.62 129.99 86.18 132.84 89.04 134.41 86.18 135.97 84.62 142.03 83.06 135.97 80.2 134.41 83.06 132.84"/></g><g class="cls-10"><path class="cls-11" d="M159.37,12.09c-7.14.16-17.74.43-24.78.45l.45-.45.05,10.47-.5-.5c7.31,0,17.57.08,24.78.23l-.28.27c.07-3,.19-7.43.28-10.47Zm0,0c0,3.23.25,7.54.27,10.74-7.28.15-17.66.2-25,.23h-.5v-.5l.06-10.47v-.45c2.23,0,4.48,0,6.71.06,3.95.05,14.43.3,18.51.39Z"/><path class="cls-11" d="M145.55-1.11c-7.14.16-17.74.43-24.78.45l.45-.45,0,10.47-.5-.5c7.31,0,17.57.08,24.78.23l-.28.27c.07-3,.19-7.43.28-10.47Zm0,0c0,3.23.25,7.54.27,10.74-7.28.15-17.66.2-25,.23h-.5v-.5l.06-10.47v-.45c2.24,0,4.48,0,6.71.06,4,.05,14.43.3,18.51.39Z"/><path class="cls-11" d="M173.18-1.11c-7.13.16-17.73.43-24.77.45l.45-.45,0,10.47-.5-.5c7.31,0,17.57.08,24.77.23l-.27.27c.07-3,.19-7.43.27-10.47Zm0,0c.06,3.23.26,7.54.28,10.74-7.28.15-17.66.2-25.05.23h-.5v-.5L148-1.11v-.45c2.23,0,4.48,0,6.71.06,3.95.05,14.43.3,18.5.39Z"/><rect class="cls-11" x="140.21" y="54" width="6.21" height="20.54"/><rect class="cls-12" x="140.21" y="54" width="6.21" height="6.35"/><rect class="cls-13" x="139.72" y="25.6" width="46.18" height="6.97" transform="translate(299.06 -64.68) rotate(135.33)"/><rect class="cls-12" x="151.52" y="29.35" width="17.76" height="4.18" transform="translate(296.58 -58.95) rotate(135.33)"/><path class="cls-4" d="M155.19,172.56s-19.76-2.77-15.14-26.61C140.05,146,162.12,150.9,155.19,172.56Z"/><path class="cls-8" d="M155.19,172.56s-19.76-2.77-15.14-26.61C140.05,146,162.12,150.9,155.19,172.56Z"/><path class="cls-14" d="M154.19,167.58c-.39-1.21-.84-2.39-1.35-3.56,0-.15,0-.3-.05-.45,0-.32,0-.65-.08-1-.06-.71-.1-1.42-.14-2.14-.09-1.42-.18-2.85-.2-4.27a.06.06,0,0,0-.12,0c0,1.43,0,2.85,0,4.28,0,.71.07,1.42.12,2.14l0,.47a41.62,41.62,0,0,0-4-6.77c-.68-1-1.39-1.86-2.16-2.74s-1.62-1.76-2.41-2.65c-.06-.06-.14,0-.09.09a34.9,34.9,0,0,1,3.81,5.06q.9,1.37,1.71,2.79l-.19-.08-.7-.28-1.62-.61-3.17-1.18c-.07,0-.11.08,0,.11,1,.42,2.09.86,3.13,1.31l1.53.66.77.31a2.39,2.39,0,0,0,.53.19c.39.71.79,1.43,1.15,2.16a51.67,51.67,0,0,1,2.42,5.69c0,.14.09.28.14.41a12,12,0,0,0-1.62-.78l-2-.93c-1.39-.64-2.77-1.28-4.09-2-.07,0-.13.07-.06.11,1.36.74,2.69,1.53,4.05,2.26.67.37,1.36.73,2.05,1.07a6.64,6.64,0,0,0,1.86.74,23,23,0,0,1,1.29,5.6c.22,2.7.2,5.42.26,8.12,0,.05.07,0,.07,0,.2-2.45.31-4.93.32-7.39A21.44,21.44,0,0,0,154.19,167.58Z"/><path class="cls-14" d="M151.15,153.56a22.66,22.66,0,0,0-.2,4.2,0,0,0,1,0,.06,0c.08-1.4.09-2.79.25-4.17C151.27,153.51,151.15,153.48,151.15,153.56Z"/><path class="cls-14" d="M145.5,154.75A14.61,14.61,0,0,1,143,153.5c-.07,0-.13.07-.06.11a9.78,9.78,0,0,0,2.57,1.22S145.55,154.77,145.5,154.75Z"/><path class="cls-4" d="M155.17,167.7s-6-26.28,22.25-36.92C177.42,130.78,185.25,165.38,155.17,167.7Z"/><path class="cls-14" d="M161.27,152.8l.3-.19,1.6-.89,3.27-1.83c2.16-1.21,4.29-2.46,6.46-3.64.06,0,0-.14-.07-.11-2.17,1.19-4.38,2.29-6.57,3.45L163,151.3l-1.32.7c.94-1.79,2-3.54,3.05-5.23,1.48-2.25,3.1-4.39,4.78-6.49a.1.1,0,1,0-.14-.13,44.86,44.86,0,0,0-6.53,8c0-.09,0-.18,0-.27,0-.66,0-1.31.06-2,0-1.29,0-2.57,0-3.85,0-.08-.11-.08-.12,0-.05,1.26-.2,2.52-.27,3.78,0,.63-.07,1.26-.08,1.89,0,.34,0,.73,0,1.11-.59.92-1.14,1.86-1.67,2.81a48.66,48.66,0,0,0-2.53,5.3c0-.66-.07-1.31-.1-2-.09-1.44-.26-2.87-.32-4.31,0-.08-.13-.07-.12,0,0,1.44,0,2.88,0,4.32,0,.72,0,1.44.09,2.16,0,.26,0,.53,0,.8a47.81,47.81,0,0,0-2.13,7.23,78.58,78.58,0,0,0-1.05,7.93,0,0,0,1,0,0,0,42.76,42.76,0,0,1,1.5-7.07c.35-1.24.72-2.48,1.11-3.7,1.18-.56,2.3-1.25,3.44-1.88l3.54-1.94c2.36-1.29,4.71-2.6,7.14-3.75.07,0,0-.13-.06-.1-2.46,1.12-4.94,2.18-7.36,3.39-1.21.61-2.39,1.25-3.56,1.91-1,.56-2,1.11-2.93,1.75.28-.82.56-1.64.87-2.44A69.82,69.82,0,0,1,161.27,152.8Z"/><path class="cls-14" d="M158.89,146.79c0-.08-.13-.08-.12,0,.1,1.5.15,3,.31,4.49a.07.07,0,1,0,.13,0C159.16,149.78,159,148.28,158.89,146.79Z"/><path class="cls-4" d="M188,348.61l-36.09-26s46.68-62.31,46.9-68c.31-8.47,4.38-43.44,7.79-71.76,0,0-6.47-15.33,5.64-38.48h48.56s-3.26,22-8.83,36a65.14,65.14,0,0,0-10.79,4.93s-4,69.11-5.22,76.89C232.79,282.77,188,348.61,188,348.61Z"/></g></svg>