<svg id="Слой_1" data-name="Слой 1" xmlns="http://www.w3.org/2000/svg" xmlns:xlink="http://www.w3.org/1999/xlink" viewBox="0 0 160 160"><defs><style>.cls-1{fill:none;}.cls-2{fill:#4a148c;}.cls-3{clip-path:url(#clip-path);}.cls-4{fill:#ececec;}.cls-5{fill:#306;}.cls-6{clip-path:url(#clip-path-2);}.cls-7{fill:#ffc800;}.cls-8{opacity:0.3;}.cls-9{fill:#ed776a;}.cls-10{fill:#c8c8c8;}</style><clipPath id="clip-path"><rect class="cls-1" x="-228.06" y="-4.72" width="170" height="170"/></clipPath><clipPath id="clip-path-2"><rect class="cls-1" x="-4.56" y="-7.22" width="176" height="176"/></clipPath></defs><rect class="cls-2" x="-1141.56" y="-25.22" width="1537" height="226"/><g class="cls-3"><path class="cls-4" d="M26.12-1.11C19-.95,8.38-.68,1.35-.66l.44-.45L1.84,9.36l-.49-.5c7.3,0,17.57.08,24.77.23l-.27.27c.07-3,.18-7.43.27-10.47Zm0,0c.05,3.23.25,7.54.27,10.74-7.28.15-17.66.2-25,.23H.84v-.5L.9-1.11v-.45c2.24,0,4.48,0,6.71.06,4,.05,14.43.3,18.51.39Z"/><path class="cls-5" d="M-95.76,146.11v0c.15.73,2.65,12.3,5.23,22.23,1.88,7.26,3.81,13.63,4.92,14.29s7.38,3.46,9.43,4.31c0,0,13.76,68.72,21,90,6.71,19.66,34.46,72.22,34.46,72.22l40.26-20.34S-11.86,275.55-15.17,266c-5.12-14.83-24.33-87.28-24.33-87.28S-39.35,156-47,146.11Z"/><path class="cls-5" d="M8.71,322.21C3,311.42-2.93,300.73-8.86,290.05c-2.92-5.26-6-10.47-8.76-15.81A95.18,95.18,0,0,1-24,257.76Q-29.31,240.48-34.06,223T-43,188c-.7-2.93-1.47-5.86-2-8.83a27.1,27.1,0,0,1,0-9,29,29,0,0,0,.07-8.42,56.51,56.51,0,0,0-2-8.22c-.45-1.42-.93-2.82-1.42-4.23a.13.13,0,0,0-.24.08c1.73,5.68,3.51,11.42,3.13,17.44-.18,2.89-.94,5.73-.89,8.64a41.27,41.27,0,0,0,1.46,8.53q4.11,17.7,8.82,35.25t10,34.95c1.71,5.63,3.3,11.36,5.73,16.74s5.5,10.48,8.4,15.63q9,16,18.17,31.78l2.36,4A.08.08,0,0,0,8.71,322.21Z"/></g><g class="cls-6"><path class="cls-7" d="M-31.85,70.72A17.07,17.07,0,0,0-13.28,55.31,17.06,17.06,0,0,0-28.7,36.74,17,17,0,0,0-47.25,52.15,17.05,17.05,0,0,0-31.85,70.72ZM-45.19,52.35a15,15,0,0,1,16.3-13.54A15,15,0,0,1-15.36,55.12,15,15,0,0,1-31.67,68.65,15,15,0,0,1-45.19,52.35Zm13.34,18.37A17.07,17.07,0,0,0-13.28,55.31,17.06,17.06,0,0,0-28.7,36.74,17,17,0,0,0-47.25,52.15,17.05,17.05,0,0,0-31.85,70.72ZM-45.19,52.35a15,15,0,0,1,16.3-13.54A15,15,0,0,1-15.36,55.12,15,15,0,0,1-31.67,68.65,15,15,0,0,1-45.19,52.35Zm13.34,18.37A17.07,17.07,0,0,0-13.28,55.31,17.06,17.06,0,0,0-28.7,36.74,17,17,0,0,0-47.25,52.15,17.05,17.05,0,0,0-31.85,70.72ZM-45.19,52.35a15,15,0,0,1,16.3-13.54A15,15,0,0,1-15.36,55.12,15,15,0,0,1-31.67,68.65,15,15,0,0,1-45.19,52.35Zm11.58,37.19A36,36,0,0,0,5.54,57.06,36,36,0,0,0-26.95,17.92,36,36,0,0,0-66.07,50.4,36,36,0,0,0-33.61,89.54ZM-49.9,51.91A19.73,19.73,0,0,1-28.45,34.1a19.72,19.72,0,0,1,17.8,21.45A19.74,19.74,0,0,1-32.1,73.36,19.73,19.73,0,0,1-49.9,51.91Zm2.65.24a17.05,17.05,0,0,0,15.4,18.57A17.07,17.07,0,0,0-13.28,55.31,17.06,17.06,0,0,0-28.7,36.74,17,17,0,0,0-47.25,52.15Zm2.06.2a15,15,0,0,1,16.3-13.54A15,15,0,0,1-15.36,55.12,15,15,0,0,1-31.67,68.65,15,15,0,0,1-45.19,52.35Zm13.34,18.37A17.07,17.07,0,0,0-13.28,55.31,17.06,17.06,0,0,0-28.7,36.74,17,17,0,0,0-47.25,52.15,17.05,17.05,0,0,0-31.85,70.72ZM-45.19,52.35a15,15,0,0,1,16.3-13.54A15,15,0,0,1-15.36,55.12,15,15,0,0,1-31.67,68.65,15,15,0,0,1-45.19,52.35Zm13.34,18.37A17.07,17.07,0,0,0-13.28,55.31,17.06,17.06,0,0,0-28.7,36.74,17,17,0,0,0-47.25,52.15,17.05,17.05,0,0,0-31.85,70.72ZM-45.19,52.35a15,15,0,0,1,16.3-13.54A15,15,0,0,1-15.36,55.12,15,15,0,0,1-31.67,68.65,15,15,0,0,1-45.19,52.35Z"/><polygon class="cls-7" points="-8.19 25.84 0.64 36.48 7.68 29.64 -0.17 20.18 -8.19 25.84"/><polygon class="cls-7" points="5.03 49.07 3.75 62.84 13.57 62.98 14.71 50.74 5.03 49.07"/><polygon class="cls-7" points="-2.04 74.85 -12.68 83.68 -5.84 90.72 3.62 82.87 -2.04 74.85"/><g class="cls-8"><path d="M-31.85,70.72A17.07,17.07,0,0,0-13.28,55.31,17.06,17.06,0,0,0-28.7,36.74,17,17,0,0,0-47.25,52.15,17.05,17.05,0,0,0-31.85,70.72ZM-45.19,52.35a15,15,0,0,1,16.3-13.54A15,15,0,0,1-15.36,55.12,15,15,0,0,1-31.67,68.65,15,15,0,0,1-45.19,52.35Zm13.34,18.37A17.07,17.07,0,0,0-13.28,55.31,17.06,17.06,0,0,0-28.7,36.74,17,17,0,0,0-47.25,52.15,17.05,17.05,0,0,0-31.85,70.72ZM-45.19,52.35a15,15,0,0,1,16.3-13.54A15,15,0,0,1-15.36,55.12,15,15,0,0,1-31.67,68.65,15,15,0,0,1-45.19,52.35Zm13.34,18.37A17.07,17.07,0,0,0-13.28,55.31,17.06,17.06,0,0,0-28.7,36.74,17,17,0,0,0-47.25,52.15,17.05,17.05,0,0,0-31.85,70.72ZM-45.19,52.35a15,15,0,0,1,16.3-13.54A15,15,0,0,1-15.36,55.12,15,15,0,0,1-31.67,68.65,15,15,0,0,1-45.19,52.35Zm11.58,37.19A36,36,0,0,0,5.54,57.06,36,36,0,0,0-26.95,17.92,36,36,0,0,0-66.07,50.4,36,36,0,0,0-33.61,89.54ZM-49.9,51.91A19.73,19.73,0,0,1-28.45,34.1a19.72,19.72,0,0,1,17.8,21.45A19.74,19.74,0,0,1-32.1,73.36,19.73,19.73,0,0,1-49.9,51.91Zm2.65.24a17.05,17.05,0,0,0,15.4,18.57A17.07,17.07,0,0,0-13.28,55.31,17.06,17.06,0,0,0-28.7,36.74,17,17,0,0,0-47.25,52.15Zm2.06.2a15,15,0,0,1,16.3-13.54A15,15,0,0,1-15.36,55.12,15,15,0,0,1-31.67,68.65,15,15,0,0,1-45.19,52.35Zm13.34,18.37A17.07,17.07,0,0,0-13.28,55.31,17.06,17.06,0,0,0-28.7,36.74,17,17,0,0,0-47.25,52.15,17.05,17.05,0,0,0-31.85,70.72ZM-45.19,52.35a15,15,0,0,1,16.3-13.54A15,15,0,0,1-15.36,55.12,15,15,0,0,1-31.67,68.65,15,15,0,0,1-45.19,52.35Zm13.34,18.37A17.07,17.07,0,0,0-13.28,55.31,17.06,17.06,0,0,0-28.7,36.74,17,17,0,0,0-47.25,52.15,17.05,17.05,0,0,0-31.85,70.72ZM-45.19,52.35a15,15,0,0,1,16.3-13.54A15,15,0,0,1-15.36,55.12,15,15,0,0,1-31.67,68.65,15,15,0,0,1-45.19,52.35Z"/><polygon points="-8.19 25.84 0.64 36.48 7.68 29.64 -0.17 20.18 -8.19 25.84"/><polygon points="5.03 49.07 3.75 62.84 13.57 62.98 14.71 50.74 5.03 49.07"/><polygon points="-2.04 74.85 -12.68 83.68 -5.84 90.72 3.62 82.87 -2.04 74.85"/></g><path class="cls-7" d="M133.45,102.34a10.94,10.94,0,1,0-9.87-11.91A10.93,10.93,0,0,0,133.45,102.34ZM124.9,90.56A9.6,9.6,0,1,1,133.57,101,9.6,9.6,0,0,1,124.9,90.56Zm8.55,11.78a10.94,10.94,0,1,0-9.87-11.91A10.93,10.93,0,0,0,133.45,102.34ZM124.9,90.56A9.6,9.6,0,1,1,133.57,101,9.6,9.6,0,0,1,124.9,90.56Zm8.55,11.78a10.94,10.94,0,1,0-9.87-11.91A10.93,10.93,0,0,0,133.45,102.34ZM124.9,90.56A9.6,9.6,0,1,1,133.57,101,9.6,9.6,0,0,1,124.9,90.56Zm7.42,23.85a23.06,23.06,0,1,0-20.81-25.1A23.08,23.08,0,0,0,132.32,114.41ZM121.88,90.28A12.63,12.63,0,1,1,133.29,104,12.65,12.65,0,0,1,121.88,90.28Zm1.7.15a10.93,10.93,0,1,0,11.89-9.87A10.94,10.94,0,0,0,123.58,90.43Zm1.32.13A9.6,9.6,0,1,1,133.57,101,9.6,9.6,0,0,1,124.9,90.56Zm8.55,11.78a10.94,10.94,0,1,0-9.87-11.91A10.93,10.93,0,0,0,133.45,102.34ZM124.9,90.56A9.6,9.6,0,1,1,133.57,101,9.6,9.6,0,0,1,124.9,90.56Zm8.55,11.78a10.94,10.94,0,1,0-9.87-11.91A10.93,10.93,0,0,0,133.45,102.34ZM124.9,90.56A9.6,9.6,0,1,1,133.57,101,9.6,9.6,0,0,1,124.9,90.56Z"/><polygon class="cls-7" points="132.09 69.03 140.92 69.85 141.01 63.56 133.16 62.83 132.09 69.03"/><polygon class="cls-7" points="148.62 73.57 154.28 80.39 158.8 76.01 153.76 69.94 148.62 73.57"/><polygon class="cls-7" points="157.1 88.46 156.28 97.29 162.57 97.38 163.3 89.53 157.1 88.46"/><polygon class="cls-7" points="152.56 104.98 145.74 110.65 150.13 115.16 156.19 110.13 152.56 104.98"/><polygon class="cls-7" points="137.67 113.46 128.84 112.64 128.75 118.94 136.6 119.67 137.67 113.46"/><polygon class="cls-7" points="121.15 108.93 115.48 102.11 110.97 106.49 116 112.56 121.15 108.93"/><polygon class="cls-7" points="112.67 94.04 113.49 85.21 107.19 85.12 106.47 92.97 112.67 94.04"/><polygon class="cls-7" points="117.2 77.51 124.03 71.85 119.64 67.33 113.57 72.37 117.2 77.51"/><path class="cls-7" d="M133.45,102.34a10.94,10.94,0,1,0-9.87-11.91A10.93,10.93,0,0,0,133.45,102.34ZM124.9,90.56A9.6,9.6,0,1,1,133.57,101,9.6,9.6,0,0,1,124.9,90.56Zm8.55,11.78a10.94,10.94,0,1,0-9.87-11.91A10.93,10.93,0,0,0,133.45,102.34ZM124.9,90.56A9.6,9.6,0,1,1,133.57,101,9.6,9.6,0,0,1,124.9,90.56Zm8.55,11.78a10.94,10.94,0,1,0-9.87-11.91A10.93,10.93,0,0,0,133.45,102.34ZM124.9,90.56A9.6,9.6,0,1,1,133.57,101,9.6,9.6,0,0,1,124.9,90.56Zm7.42,23.85a23.06,23.06,0,1,0-20.81-25.1A23.08,23.08,0,0,0,132.32,114.41ZM121.88,90.28A12.63,12.63,0,1,1,133.29,104,12.65,12.65,0,0,1,121.88,90.28Zm1.7.15a10.93,10.93,0,1,0,11.89-9.87A10.94,10.94,0,0,0,123.58,90.43Zm1.32.13A9.6,9.6,0,1,1,133.57,101,9.6,9.6,0,0,1,124.9,90.56Zm8.55,11.78a10.94,10.94,0,1,0-9.87-11.91A10.93,10.93,0,0,0,133.45,102.34ZM124.9,90.56A9.6,9.6,0,1,1,133.57,101,9.6,9.6,0,0,1,124.9,90.56Zm8.55,11.78a10.94,10.94,0,1,0-9.87-11.91A10.93,10.93,0,0,0,133.45,102.34ZM124.9,90.56A9.6,9.6,0,1,1,133.57,101,9.6,9.6,0,0,1,124.9,90.56Z"/><polygon class="cls-7" points="132.09 69.03 140.92 69.85 141.01 63.56 133.16 62.83 132.09 69.03"/><polygon class="cls-7" points="148.62 73.57 154.28 80.39 158.8 76.01 153.76 69.94 148.62 73.57"/><polygon class="cls-7" points="157.1 88.46 156.28 97.29 162.57 97.38 163.3 89.53 157.1 88.46"/><polygon class="cls-7" points="152.56 104.98 145.74 110.65 150.13 115.16 156.19 110.13 152.56 104.98"/><polygon class="cls-7" points="137.67 113.46 128.84 112.64 128.75 118.94 136.6 119.67 137.67 113.46"/><polygon class="cls-7" points="121.15 108.93 115.48 102.11 110.97 106.49 116 112.56 121.15 108.93"/><polygon class="cls-7" points="112.67 94.04 113.49 85.21 107.19 85.12 106.47 92.97 112.67 94.04"/><polygon class="cls-7" points="117.2 77.51 124.03 71.85 119.64 67.33 113.57 72.37 117.2 77.51"/><path class="cls-7" d="M5,106A45,45,0,1,0,51.23,62.16,45.06,45.06,0,0,0,5,106Zm24,.63a21,21,0,1,1,20.46,21.58A21,21,0,0,1,29,106.64Z"/><polygon class="cls-7" points="42.53 63.8 59.84 64.26 59.21 51.98 43.81 51.57 42.53 63.8"/><polygon class="cls-7" points="75.33 70.5 87.25 83.07 95.49 73.94 84.88 62.76 75.33 70.5"/><polygon class="cls-7" points="93.78 98.44 93.33 115.76 105.61 115.12 106.02 99.72 93.78 98.44"/><polygon class="cls-7" points="87.08 131.25 74.51 143.17 83.65 151.4 94.83 140.8 87.08 131.25"/><polygon class="cls-7" points="59.15 149.7 41.83 149.24 42.46 161.53 57.86 161.93 59.15 149.7"/><polygon class="cls-7" points="26.34 143 14.42 130.43 6.18 139.56 16.79 150.74 26.34 143"/><polygon class="cls-7" points="7.88 115.06 8.34 97.75 -3.94 98.38 -4.35 113.78 7.88 115.06"/><polygon class="cls-7" points="14.59 82.26 27.16 70.34 18.02 62.1 6.85 72.7 14.59 82.26"/><path class="cls-7" d="M62,96.15,47.24,91.77,36.07,102.38l3.6,15,14.75,4.38L65.6,111.13Zm-11.3,15.48a4.88,4.88,0,1,1,5-4.75A4.88,4.88,0,0,1,50.71,111.63Z"/><path class="cls-9" d="M82.8-39.19s15.68,2.1,23.58,5.75C117-28.54,124.06-20,126.83-16.19c5.77,7.88,14.27,30.92,8.06,34.52-5.62,3.27-13.12-20.72-13.12-20.72S133.45,20.8,126,23.49,111.35-2.16,111.35-2.16s11.47,24.1,3.31,25.65C108.49,24.66,100.59-.65,100.59-.65s9.72,20.79,3.43,22.26C97.07,23.25,88.31.34,88.31.34c-16.62,1.07-25-5.23-30.38-10.41C56.62-11.33,82.8-39.19,82.8-39.19Z"/><path class="cls-5" d="M118.24-10.67c1.47,2.67,3,5.37,4.21,8.17s2.36,5.64,3.32,8.53a51.71,51.71,0,0,1,2.67,11.64c-1.3-7-5.54-17.07-6.77-19.86s-2.31-5.65-3.54-8.44C118.1-10.7,118.21-10.74,118.24-10.67Z"/><path class="cls-5" d="M108.06-6.42c1.73,3.5,3.58,6.9,5.16,10.48s2.74,7.07,4.06,10.72c.1.29-.08.25-.19,0-1.47-3.6-3.1-6.82-4.61-10.4S109.61-2.87,108-6.39C108-6.44,108-6.47,108.06-6.42Z"/><path class="cls-5" d="M98.67-4.34a87.12,87.12,0,0,1,6.65,16.62c.09.29-.14.21-.25-.07-2.1-5.57-3.72-10-6.58-16.45C98.44-4.34,98.61-4.45,98.67-4.34Z"/><path class="cls-5" d="M95.77,15.26a29.46,29.46,0,0,0,3.42,4,13.62,13.62,0,0,0,2,1.61,3.69,3.69,0,0,0,2.36.68,2.25,2.25,0,0,0,1.7-1.55,7.34,7.34,0,0,0,.39-2.49,22.06,22.06,0,0,0-.69-5.11l-.8-3.26,1.45,3a53.67,53.67,0,0,0,2.92,5.31,20.91,20.91,0,0,0,3.71,4.65,2.77,2.77,0,0,0,2.32.88,3.15,3.15,0,0,0,2.09-1.47c.84-1.56.44-3.68.15-5.64l-.51-3.41,1.56,3.09a25.81,25.81,0,0,0,3.28,5.06,9.12,9.12,0,0,0,2.15,1.94,2.64,2.64,0,0,0,2.42.39A2.87,2.87,0,0,0,127.29,21a9.66,9.66,0,0,0,.38-2.87,27.39,27.39,0,0,0-.8-6l-1.41-5.91L128,11.76a22.37,22.37,0,0,0,2,3.45,8.11,8.11,0,0,0,2.7,2.62,1.93,1.93,0,0,0,1.53.15,3,3,0,0,0,1.3-1.05,6.83,6.83,0,0,0,1-3.59,25.27,25.27,0,0,0-1.14-7.92C134.67,2.81,133.87.2,133-2.37c-1.85-5.11-3.91-10.23-7.1-14.62a60.45,60.45,0,0,0-11.44-11.66,60.4,60.4,0,0,1,11.9,11.3c3.4,4.41,5.55,9.55,7.52,14.66,1,2.57,1.85,5.17,2.62,7.82a26.34,26.34,0,0,1,1.24,8.26,7.94,7.94,0,0,1-1.19,4.21,4.07,4.07,0,0,1-1.85,1.48,3.07,3.07,0,0,1-2.44-.17,9.25,9.25,0,0,1-3.18-3,24.12,24.12,0,0,1-2.14-3.64l1.17-.42a25.62,25.62,0,0,1,.84,6.29,10.71,10.71,0,0,1-.46,3.24,4,4,0,0,1-2.28,2.66,3.84,3.84,0,0,1-3.47-.49,10.47,10.47,0,0,1-2.43-2.2A27,27,0,0,1,116.88,16l1.05-.33a26,26,0,0,1,.34,3.1,6.11,6.11,0,0,1-.66,3.25A4.22,4.22,0,0,1,114.84,24a2.77,2.77,0,0,1-1.81-.22,6.42,6.42,0,0,1-1.38-.93,21.55,21.55,0,0,1-3.79-4.93A54.29,54.29,0,0,1,105,12.43l.65-.23a20.52,20.52,0,0,1,.58,5.3,7.62,7.62,0,0,1-.52,2.65,2.66,2.66,0,0,1-2.08,1.74,3.93,3.93,0,0,1-2.56-.82,12.7,12.7,0,0,1-2-1.71A29.4,29.4,0,0,1,95.77,15.26Z"/><path class="cls-10" d="M82.52,120.46a31.57,31.57,0,0,1-32.58,6.67l18.8-17.75-6-13.66L49.42,88.91,30.61,106.68a31.59,31.59,0,1,1,51.91,13.78Z"/><rect class="cls-10" x="115.4" y="-44.12" width="28.14" height="153.63" transform="translate(194.55 149.29) rotate(-133.35)"/><rect class="cls-4" x="123.67" y="1.07" width="11.59" height="63.27" transform="translate(194.55 149.29) rotate(-133.35)"/><path class="cls-9" d="M104.3-106.73c20.87,14.55,52.47,43.58,55.06,56.78C162-36.43,150.93-.21,144.87,12c-2.52,5.08-44.08-9-41.53-14.5,5.2-11.22,16.16-37.37,15.77-41.06-.36-3.51-16.74-31.95-25.6-48.28C79.32-118,89.56-117,104.3-106.73Z"/><path class="cls-9" d="M106-8.46S99.14,6.6,95.1,16.66c-2.26,5.62-5.27,15.59-5,20.47.35,7.3,6.44,37.63,13.83,36.31,6.68-1.2-1.86-26.59-1.86-26.59s6.35,26.38,14.14,23.47S110.48,40,110.48,40s7.14,27,14.69,22.68c5.71-3.24-5.09-28.74-5.09-28.74s6.3,23.13,12.31,20.05c6.64-3.39-1.85-27.56-1.85-27.56,14-10.38,17.93-19.71,18.74-27.49C149.28-1.06,119.16-7.15,106-8.46Z"/><path class="cls-5" d="M99.24,37.87c.64,3.13,1.26,6.3,2.17,9.35s1.93,6.09,3.12,9.05a54.28,54.28,0,0,0,5.73,11.08c-3.68-6.45-7.11-17.34-8-20.4s-2-6.06-2.88-9.12C99.33,37.76,99.23,37.8,99.24,37.87Z"/><path class="cls-5" d="M110.23,34.38c0,4.45,3.38,16.61,7,23.13.15.28.24.14.14-.16-1.27-3.86-6-19.1-7-23C110.3,34.29,110.23,34.32,110.23,34.38Z"/><path class="cls-5" d="M119.12,29.69a48.68,48.68,0,0,0,5.93,17.75c.14.27.25.07.14-.23-2.08-5.86-3.75-10.45-5.86-17.56C119.3,29.54,119.1,29.56,119.12,29.69Z"/><path class="cls-5" d="M95.77,15c1.4-3.71,2.9-7.37,4.42-11l4.64-10.92,9.59-21.72c-1.08,3.82-2.47,7.54-3.9,11.24s-3,7.33-4.52,11S102.78.81,101.08,4.38,97.64,11.52,95.77,15Z"/></g></svg>