<svg id="Слой_1" data-name="Слой 1" xmlns="http://www.w3.org/2000/svg" viewBox="0 0 581.13 402.55"><defs><style>.cls-1{fill:#ececec;}.cls-2,.cls-3,.cls-5{fill:#ffc800;}.cls-3,.cls-6{opacity:0.8;}.cls-11,.cls-12,.cls-14,.cls-4{fill:#fff;}.cls-4,.cls-8{opacity:0.5;}.cls-5{opacity:0.4;}.cls-6{fill:#9b7313;}.cls-7{fill:#472681;}.cls-9{fill:#33245e;}.cls-10,.cls-11{opacity:0.2;}.cls-12,.cls-13{opacity:0.1;}</style></defs><path class="cls-1" d="M576.33,372.87c-11.36.1-40.07.35-51,.42l-17.12,0h-.45v-.46l-.05-21.42V351h.5l34.07.07,34.08.2h.23v.23l-.23,21.42Zm0,0-.24-21.42.24.23-34.08.2-34.07.07.5-.5,0,21.42-.46-.45,17,0c10.82.06,40,.32,51.19.41Z"/><path class="cls-1" d="M538.31,399.89c-11.35.1-40.06.35-51,.41l-17.12,0h-.45v-.46l0-21.43V378h.5l34.07.06,34.07.2h.24v.23l-.24,21.43Zm0,0-.23-21.43.23.24-34.07.2-34.07.06.5-.5,0,21.43-.46-.46,17,0c10.82.07,40,.32,51.18.42Z"/><path class="cls-1" d="M328.83,349.24c-17.08.14-43.24.47-60.13.45h-.45v-.45l0-18.91v-.5h.5l30.07.07c.32.07,29.92.14,30.3.2v.23l-.24,18.91Zm0,0-.23-18.91.23.23-30.06.2-30.07.07.5-.5,0,18.91-.46-.46,14.95,0c9.55.07,35.31.32,45.18.42Z"/><path class="cls-1" d="M59.73,325.53c-10,.1-35.34.35-45,.41L-.4,326H-.86v-.45l0-18.91v-.5h.5l30.06.07c.33.07,29.93.14,30.31.2v.23l-.23,18.91Zm0,0-.24-18.91.24.24-30.07.19-30.06.07.5-.5,0,18.91-.45-.46,15,0c9.55.07,35.31.32,45.18.42Z"/><rect class="cls-1" x="-33.94" y="330.46" width="60.13" height="18.9"/><path class="cls-1" d="M614.34,195.42c-11.35.1-40.06.35-51,.41l-17.11,0h-.46v-.46l0-21.42v-.5h.51l34.07.07,34.07.19h.23V174l-.23,21.42Zm0,0L614.1,174l.24.23-34.07.2-34.07.07.49-.5,0,21.42-.45-.46,16.95,0c10.82.06,40,.31,51.19.41Z"/><rect class="cls-2" x="421.03" y="22.54" width="175.17" height="393.03"/><rect class="cls-3" x="421.03" y="22.54" width="175.17" height="393.03"/><rect class="cls-2" x="420.61" y="363.07" width="23.75" height="10.76"/><rect class="cls-4" x="420.61" y="363.07" width="23.75" height="10.76"/><polygon class="cls-5" points="444.35 363.07 420.61 363.07 420.61 368.61 444.35 366.58 444.35 363.07"/><rect class="cls-6" x="431.75" y="32.57" width="153.74" height="36.25"/><rect class="cls-6" x="431.75" y="72.82" width="153.74" height="60.66"/><rect class="cls-6" x="431.75" y="137.47" width="153.74" height="32.54"/><rect class="cls-6" x="431.75" y="174" width="153.74" height="219.43"/><rect class="cls-2" x="438.49" y="37.91" width="8.99" height="5.86"/><rect class="cls-2" x="569.76" y="37.91" width="8.99" height="5.86"/><rect class="cls-2" x="473.62" y="37.91" width="8.99" height="5.86"/><rect class="cls-2" x="452.62" y="37.91" width="15.3" height="5.86"/><rect class="cls-3" x="-6.75" y="22.62" width="403.83" height="286.22"/><rect class="cls-7" x="12.68" y="41.23" width="364.98" height="225.83"/><g class="cls-8"><polygon class="cls-9" points="72.03 41.23 12.68 100.58 12.68 83.06 54.51 41.23 72.03 41.23"/><polygon class="cls-9" points="377.66 95.49 377.66 113.01 223.61 267.05 206.1 267.05 377.66 95.49"/><polygon class="cls-9" points="198.3 41.23 12.68 226.85 12.68 173.67 145.12 41.23 198.3 41.23"/><polygon class="cls-9" points="377.66 124.79 377.66 177.97 288.59 267.05 235.4 267.05 377.66 124.79"/><polygon class="cls-9" points="218.39 41.23 12.68 246.94 12.68 241.38 212.83 41.23 218.39 41.23"/><polygon class="cls-9" points="377.66 224.5 377.66 230.08 340.68 267.05 335.1 267.05 377.66 224.5"/></g><rect class="cls-2" x="-6.75" y="286.91" width="403.83" height="21.92"/><rect class="cls-3" x="-6.75" y="286.91" width="403.83" height="21.92"/><rect class="cls-2" x="113.15" y="360.43" width="164.04" height="13.71"/><rect class="cls-2" x="113.15" y="360.43" width="164.04" height="13.71"/><polygon class="cls-2" points="241.62 360.44 148.71 360.44 151.69 330.45 153.84 308.84 189.03 308.84 188.73 327.91 188.6 335.81 201.73 335.81 201.59 327.02 201.3 308.84 236.5 308.84 238.05 324.52 241.62 360.44"/><polygon class="cls-3" points="241.62 360.44 148.71 360.44 151.69 330.45 153.84 308.84 189.03 308.84 188.73 327.91 188.6 335.81 201.73 335.81 201.59 327.02 201.3 308.84 236.5 308.84 238.05 324.52 241.62 360.44"/><polygon class="cls-5" points="153.84 308.84 189.03 308.84 188.73 327.91 151.69 330.45 153.84 308.84"/><polygon class="cls-5" points="238.05 324.52 201.59 327.02 201.3 308.84 236.5 308.84 238.05 324.52"/><path class="cls-2" d="M33.68,245.14s-.91-15.43,5.86-14c2.35.51,1.61,6.78-1.92,10.61,4.34-2.88,10.65-2.62,10.78-.22C48.77,248.48,33.68,245.14,33.68,245.14Z"/><path class="cls-10" d="M33.68,245.14s-.91-15.43,5.86-14c2.35.51,1.61,6.78-1.92,10.61,4.34-2.88,10.65-2.62,10.78-.22C48.77,248.48,33.68,245.14,33.68,245.14Z"/><path class="cls-2" d="M33.68,245.14c-4.83-5.67-3.25-14.27.09-14.91,3.81-.72,2.12,9.51,2.12,9.51s6.89-9.16,10.25-5.22-6.78,9.29-6.78,9.29,10.37-.05,9,3.6C47.25,250.61,38.51,250.8,33.68,245.14Z"/><path class="cls-9" d="M49.45,283.43a96.71,96.71,0,0,1-2,12.71c-1.84,8.32-4.87,16.39-9.19,21.79a80.09,80.09,0,0,1-28,5.28,80,80,0,0,1-28-5.28C-27,306.4-30.31,282.65-29,270.44c2.38-22.05,15.55-30.48,27-33.5h0a48.55,48.55,0,0,1,12.25-1.56c11.21,0,35.89,4,39.25,35.07A69.7,69.7,0,0,1,49.45,283.43Z"/><path class="cls-11" d="M49.45,283.43a96.71,96.71,0,0,1-2,12.71c-1.84,8.32-4.87,16.39-9.19,21.79a80.09,80.09,0,0,1-28,5.28,80,80,0,0,1-28-5.28C-27,306.4-30.31,282.65-29,270.44c2.38-22.05,15.55-30.48,27-33.5h0a48.55,48.55,0,0,1,12.25-1.56c11.21,0,35.89,4,39.25,35.07A69.7,69.7,0,0,1,49.45,283.43Z"/><path class="cls-12" d="M39.15,264.88a49.23,49.23,0,0,1-1,6.35c-.92,4.15-2.44,8.19-4.6,10.89a40,40,0,0,1-14,2.64,40,40,0,0,1-14-2.64C.94,276.35-.71,264.49,0,258.39c1.19-11,7.77-15.24,13.49-16.75h0a24.11,24.11,0,0,1,6.13-.78c5.6,0,17.93,2,19.61,17.53A34.37,34.37,0,0,1,39.15,264.88Z"/><path class="cls-7" d="M11.07,235.37c.32,7.32.49,14.64.63,22s.17,14.65.2,22-.07,14.66-.28,22-.37,14.68-1.54,21.92l.29-2.73.15-2.74c.12-1.82.12-3.65.17-5.48q.15-5.49.16-11c.06-7.32.1-14.64.07-22l0-22C11,250,11,242.69,11.07,235.37Z"/><path class="cls-7" d="M6.31,235.52a90.59,90.59,0,0,0-2.62,10.63C3,249.73,2.43,253.34,2,257A207.18,207.18,0,0,0,.46,278.79L.4,284.27c0,1.82.07,3.64.1,5.47,0,3.65.32,7.29.5,10.94.06,1.83.25,3.64.41,5.46l.48,5.46,1.25,10.9q-.92-5.42-1.73-10.84L.79,306.2c-.21-1.82-.44-3.64-.55-5.46-.3-3.65-.57-7.31-.64-11,0-1.84-.16-3.67-.14-5.5v-5.5a189.15,189.15,0,0,1,1.75-21.91A106.65,106.65,0,0,1,6.31,235.52Z"/><path class="cls-7" d="M15.54,235.57a106.81,106.81,0,0,1,5.09,21.34,191.39,191.39,0,0,1,1.75,21.91v5.5c0,1.84-.1,3.67-.14,5.5-.07,3.66-.35,7.32-.64,11-.11,1.83-.34,3.64-.55,5.46l-.62,5.46c-.54,3.62-1.13,7.24-1.73,10.84L20,311.65l.49-5.46c.16-1.82.34-3.63.41-5.46.18-3.65.47-7.29.5-10.94,0-1.82.13-3.65.1-5.47l-.06-5.48A207.18,207.18,0,0,0,19.88,257c-.46-3.62-1-7.23-1.72-10.81A90.59,90.59,0,0,0,15.54,235.57Z"/><path class="cls-7" d="M21.89,236.48a42.82,42.82,0,0,1,6,9.47c.39.85.81,1.69,1.17,2.56l1,2.63.51,1.31c.15.45.27.9.41,1.35l.82,2.69a83.5,83.5,0,0,1,2.79,22.3l-.16,5.63-.59,5.6-.3,2.8c-.14.92-.33,1.84-.5,2.77l-1,5.52a26,26,0,0,1-.66,2.74l-.73,2.71L29.15,312c-1.26,3.53-2.49,7.06-3.78,10.57l3.31-10.71L30,306.41l.66-2.72a26,26,0,0,0,.58-2.73l1-5.51c.15-.92.34-1.83.47-2.75l.27-2.78.54-5.56.12-5.58a86.07,86.07,0,0,0-2.53-22.09L30.32,254c-.12-.44-.24-.9-.37-1.34l-.47-1.31-.94-2.63c-.33-.87-.74-1.71-1.1-2.57A45.32,45.32,0,0,0,21.89,236.48Z"/><path class="cls-7" d="M26.56,237.74a31.9,31.9,0,0,1,4.27,3.78,45.44,45.44,0,0,1,3.69,4.36,49.46,49.46,0,0,1,5.71,9.9,57.13,57.13,0,0,1,4.55,22.34c.06,1.92-.11,3.82-.19,5.73s-.33,3.81-.68,5.69l-.46,2.82-.6,2.8c-.35,1.88-.93,3.7-1.42,5.54a112,112,0,0,1-8.67,21.07l2.31-5.2,2.11-5.28,1.91-5.35c.53-1.82,1.13-3.62,1.61-5.45l.69-2.75c.25-.91.44-1.83.62-2.76l.58-2.77.43-2.8c.33-1.87.42-3.75.63-5.63s.21-3.77.14-5.65a57.85,57.85,0,0,0-4.26-22.05,49.4,49.4,0,0,0-5.4-9.92A41.23,41.23,0,0,0,26.56,237.74Z"/><path class="cls-7" d="M8.46,261.55a50.22,50.22,0,0,1,3.23,4.88H11.1c.55-1,1.13-2,1.74-2.92.3-.48.61-1,.93-1.43s.64-.93,1-1.38c-.21.53-.45,1-.68,1.56s-.5,1-.76,1.53c-.52,1-1.06,2-1.63,3l-.3.52-.29-.51A50.2,50.2,0,0,1,8.46,261.55Z"/><path class="cls-7" d="M11.15,259a18.8,18.8,0,0,1,.47,3.79,18.83,18.83,0,0,1-.22,3.81,18.19,18.19,0,0,1-.47-3.79A18.79,18.79,0,0,1,11.15,259Z"/><path class="cls-7" d="M33.83,235.6a49.84,49.84,0,0,1,.06,5.86l-.5-.32c1-.53,2-1,3-1.51q.78-.36,1.56-.69c.53-.21,1-.43,1.59-.62-.47.33-.95.63-1.43.94s-1,.59-1.46.87c-1,.56-2,1.1-3,1.61l-.52.27,0-.59A49.74,49.74,0,0,1,33.83,235.6Z"/><path class="cls-7" d="M37.47,234.93a18.73,18.73,0,0,1-1.66,3.43,18.74,18.74,0,0,1-2.26,3.08A18.15,18.15,0,0,1,35.22,238,19.12,19.12,0,0,1,37.47,234.93Z"/><path class="cls-7" d="M27.76,253.12a50.3,50.3,0,0,1,2.65,5.23l-.59-.06c.66-.92,1.35-1.82,2.06-2.7.36-.44.72-.88,1.09-1.31s.75-.85,1.15-1.26c-.27.5-.58,1-.86,1.47s-.61,1-.93,1.43c-.63.94-1.28,1.86-2,2.77l-.36.47-.23-.54A49.45,49.45,0,0,1,27.76,253.12Z"/><path class="cls-7" d="M30.73,250.92a21.64,21.64,0,0,1-.63,7.57,21,21,0,0,1,.63-7.57Z"/><path class="cls-7" d="M16.75,311A49.17,49.17,0,0,1,20,315.9h-.59c.56-1,1.14-2,1.74-2.92.3-.48.61-1,.93-1.42s.64-.94,1-1.39c-.21.53-.45,1-.68,1.56s-.5,1-.76,1.53c-.52,1-1.06,2-1.63,3l-.3.51-.29-.51A50.2,50.2,0,0,1,16.75,311Z"/><path class="cls-7" d="M19.44,308.47a18.8,18.8,0,0,1,.47,3.79,18.83,18.83,0,0,1-.22,3.81,18.11,18.11,0,0,1-.47-3.79A18.83,18.83,0,0,1,19.44,308.47Z"/><path class="cls-7" d="M51.17,265.34a49.05,49.05,0,0,1-.61,5.82l-.46-.37c1.06-.41,2.12-.79,3.2-1.15l1.62-.5c.55-.15,1.09-.31,1.65-.44-.5.28-1,.52-1.52.77l-1.55.7c-1,.44-2.1.87-3.16,1.26l-.55.2.1-.58A49,49,0,0,1,51.17,265.34Z"/><path class="cls-7" d="M54.87,265.1a19.44,19.44,0,0,1-2,3.21,19.1,19.1,0,0,1-2.6,2.8,19.12,19.12,0,0,1,2.05-3.22A18.5,18.5,0,0,1,54.87,265.1Z"/><path class="cls-7" d="M-2.7,286.89a51,51,0,0,1,3.29,4.85H0c.54-1,1.11-2,1.7-2.94.3-.48.6-1,.91-1.43s.64-.95,1-1.4c-.2.53-.44,1-.66,1.57s-.49,1-.74,1.53c-.51,1-1,2-1.6,3l-.29.51-.29-.5A48.39,48.39,0,0,1-2.7,286.89Z"/><path class="cls-7" d="M0,284.32a18.89,18.89,0,0,1,.52,3.78,19.47,19.47,0,0,1-.18,3.81,18,18,0,0,1-.51-3.78A18.78,18.78,0,0,1,0,284.32Z"/><path class="cls-7" d="M41.12,285.58a48.46,48.46,0,0,1,2.76,5.17l-.58-.05c.64-.93,1.31-1.84,2-2.74.34-.45.7-.89,1.06-1.33s.73-.87,1.12-1.29c-.26.51-.55,1-.83,1.49s-.59,1-.89,1.45c-.62,1-1.25,1.89-1.91,2.81l-.34.48-.24-.53A49.51,49.51,0,0,1,41.12,285.58Z"/><path class="cls-7" d="M44,283.31a21.07,21.07,0,0,1-.47,7.59,18.79,18.79,0,0,1-.1-3.82A19.53,19.53,0,0,1,44,283.31Z"/><path class="cls-2" d="M10.08,237.58s-15.83-12-8.76-17.36c2.45-1.87,8,4.08,8.76,10.71.81-6.63,6.31-12.58,8.77-10.71C25.91,225.62,10.08,237.58,10.08,237.58Z"/><path class="cls-10" d="M10.08,237.58s-15.83-12-8.76-17.36c2.45-1.87,8,4.08,8.76,10.71.81-6.63,6.31-12.58,8.77-10.71C25.91,225.62,10.08,237.58,10.08,237.58Z"/><path class="cls-2" d="M10.08,237.58c-9.56,0-16.65-8.71-14.49-12.51,2.47-4.32,11.06,5.86,11.06,5.86s-3.21-14.37,3.43-14.37,3.44,14.37,3.44,14.37,8.59-10.18,11.05-5.86C26.73,228.87,19.64,237.58,10.08,237.58Z"/><polygon class="cls-2" points="-22.68 318.48 43.88 318.48 37.18 374.14 -15.98 374.14 -22.68 318.48"/><polygon class="cls-13" points="-22.68 318.48 -21.17 331.03 42.74 327.96 43.88 318.48 -22.68 318.48"/><rect class="cls-2" x="-26.87" y="311.44" width="74.93" height="9.95"/><polygon class="cls-1" points="67.36 369.79 318.81 369.79 332.08 409.18 58.26 409.18 67.36 369.79"/><polygon class="cls-2" points="67.36 369.79 318.81 369.79 332.08 409.18 58.26 409.18 67.36 369.79"/><polygon class="cls-3" points="67.36 369.79 318.81 369.79 332.08 409.18 58.26 409.18 67.36 369.79"/><polygon class="cls-14" points="68.91 382.17 92.69 382.17 91.66 386.1 68 386.1 68.91 382.17"/><polygon class="cls-14" points="94.82 382.17 109.96 382.17 109.44 386.1 93.78 386.1 94.82 382.17"/><polygon class="cls-14" points="112.05 382.17 127.92 382.17 127.61 386.1 111.5 386.1 112.05 382.17"/><polygon class="cls-14" points="129.98 382.17 145.58 382.17 145.49 386.1 129.71 386.1 129.98 382.17"/><polygon class="cls-14" points="162.99 382.17 163.23 386.1 147.55 386.1 147.64 382.17 162.99 382.17"/><polygon class="cls-14" points="180.89 382.17 181.13 386.1 165.33 386.1 165.09 382.17 180.89 382.17"/><polygon class="cls-14" points="198.37 382.17 198.61 386.1 183.2 386.1 182.96 382.17 198.37 382.17"/><polygon class="cls-14" points="216.3 382.17 216.88 386.1 200.68 386.1 200.43 382.17 216.3 382.17"/><polygon class="cls-14" points="234.23 382.17 234.78 386.1 218.97 386.1 218.39 382.17 234.23 382.17"/><polygon class="cls-14" points="252.44 382.17 252.98 386.1 236.87 386.1 236.32 382.17 252.44 382.17"/><polygon class="cls-14" points="269.49 382.17 270.03 386.1 255.07 386.1 254.53 382.17 269.49 382.17"/><polygon class="cls-14" points="288.12 382.17 288.66 386.1 272.13 386.1 271.55 382.17 288.12 382.17"/><polygon class="cls-14" points="305.96 382.17 306.53 386.1 290.76 386.1 290.18 382.17 305.96 382.17"/><polygon class="cls-14" points="319.97 386.1 308.6 386.1 308.05 382.17 318.64 382.17 319.97 386.1"/><polygon class="cls-14" points="65.02 398.95 80.47 398.95 79.19 405.25 63.57 405.25 65.02 398.95"/><polygon class="cls-14" points="82.59 398.95 98.09 398.95 97.24 405.25 81.28 405.25 82.59 398.95"/><polygon class="cls-14" points="100.19 398.95 116.51 398.95 115.66 405.25 99.31 405.25 100.19 399.02 100.19 398.95"/><polygon class="cls-14" points="118.6 398.95 138.93 398.95 138.48 405.25 117.72 405.25 118.6 399.02 118.6 398.95"/><polygon class="cls-14" points="229.19 399.02 230.07 405.25 140.57 405.25 141.03 398.95 229.19 398.95 229.19 399.02"/><polygon class="cls-14" points="252.98 399.02 253.86 405.25 232.17 405.25 231.29 398.95 252.98 398.95 252.98 399.02"/><polygon class="cls-14" points="271.19 399.02 272.07 405.25 255.96 405.25 255.07 398.95 271.19 398.95 271.19 399.02"/><polygon class="cls-14" points="290.21 399.02 291.09 405.25 274.16 405.25 273.28 398.95 290.21 398.95 290.21 399.02"/><polygon class="cls-14" points="308.56 399.02 309.44 405.25 293.18 405.25 292.27 398.95 308.56 398.95 308.56 399.02"/><polygon class="cls-14" points="326.44 405.25 311.54 405.25 310.63 398.95 324.31 398.95 326.44 405.25"/><polygon class="cls-14" points="66.39 393.03 103.83 393.03 103.16 397.76 65.3 397.76 66.39 393.03"/><polygon class="cls-14" points="122.73 393.03 122.09 397.76 105.22 397.76 105.89 393.03 122.73 393.03"/><polygon class="cls-14" points="139.66 393.03 139.33 397.76 124.16 397.76 124.82 393.03 139.66 393.03"/><polygon class="cls-14" points="157.26 393.03 157.17 397.76 141.42 397.76 141.75 393.03 157.26 393.03"/><polygon class="cls-14" points="175.98 397.76 159.23 397.76 159.32 393.03 175.67 393.03 175.98 397.76"/><polygon class="cls-14" points="194.09 397.76 178.04 397.76 177.74 393.03 193.79 393.03 194.09 397.76"/><polygon class="cls-14" points="212.17 397.76 196.15 397.76 195.85 393.03 211.87 393.03 212.17 397.76"/><polygon class="cls-14" points="230.59 397.76 214.24 397.76 213.93 393.03 229.92 393.03 230.59 397.76"/><polygon class="cls-14" points="248.7 397.76 232.68 397.76 232.02 393.03 248.04 393.03 248.7 397.76"/><polygon class="cls-14" points="266.33 397.76 250.77 397.76 250.1 393.03 265.66 393.03 265.66 393.11 266.33 397.76"/><polygon class="cls-14" points="284.14 397.76 268.43 397.76 267.76 393.03 283.47 393.03 284.14 397.76"/><polygon class="cls-14" points="305.83 397.76 286.24 397.76 285.57 393.03 305.17 393.03 305.83 397.76"/><polygon class="cls-14" points="323.89 397.76 307.9 397.76 307.23 393.03 322.31 393.03 323.89 397.76"/><polygon class="cls-14" points="67.75 387.12 96.18 387.12 94.97 391.85 66.66 391.85 67.75 387.12"/><polygon class="cls-14" points="98.31 387.12 114.08 387.12 113.42 391.85 97.09 391.85 98.31 387.12"/><polygon class="cls-14" points="116.18 387.12 132.35 387.12 131.98 391.85 115.51 391.85 116.18 387.12"/><polygon class="cls-14" points="134.41 387.12 150.34 387.12 150.25 391.85 134.08 391.85 134.41 387.12"/><polygon class="cls-14" points="167.48 387.12 167.78 391.85 152.31 391.85 152.4 387.12 167.48 387.12"/><polygon class="cls-14" points="185.63 387.12 185.93 391.85 169.85 391.85 169.58 387.12 185.63 387.12"/><polygon class="cls-14" points="203.07 387.12 203.38 391.85 187.99 391.85 187.72 387.12 203.07 387.12"/><polygon class="cls-14" points="221.49 387.12 222.19 391.85 205.47 391.85 205.16 387.12 221.49 387.12"/><polygon class="cls-14" points="239.09 387.12 239.75 391.85 224.28 391.85 223.58 387.12 239.09 387.12"/><polygon class="cls-14" points="257.47 387.12 258.14 391.85 241.82 391.85 241.15 387.12 257.47 387.12"/><polygon class="cls-14" points="275.1 387.12 275.77 391.85 260.23 391.85 259.56 387.12 275.1 387.12"/><polygon class="cls-14" points="292.7 387.12 293.39 391.85 277.83 391.85 277.16 387.12 292.7 387.12"/><polygon class="cls-14" points="321.92 391.85 295.46 391.85 294.79 387.12 320.31 387.12 321.92 391.85"/><polygon class="cls-14" points="70.03 377.23 84.5 377.23 83.47 381.15 69.12 381.15 70.03 377.23"/><polygon class="cls-14" points="86.59 377.23 102.64 377.23 102.07 381.15 85.56 381.15 86.59 377.23"/><polygon class="cls-14" points="104.74 377.23 120.15 377.23 119.88 381.15 104.16 381.15 104.74 377.23"/><polygon class="cls-14" points="122.24 377.23 137.72 377.23 137.66 381.15 121.97 381.15 122.24 377.23"/><polygon class="cls-14" points="155.04 377.23 155.28 381.15 139.72 381.15 139.81 377.23 155.04 377.23"/><polygon class="cls-14" points="172.64 377.23 172.88 381.15 157.38 381.15 157.14 377.23 172.64 377.23"/><polygon class="cls-14" points="190.09 377.23 190.33 381.15 174.98 381.15 174.73 377.23 190.09 377.23"/><polygon class="cls-14" points="207.84 377.23 208.38 381.15 192.42 381.15 192.18 377.23 207.84 377.23"/><polygon class="cls-14" points="225.55 377.23 226.1 381.15 210.47 381.15 209.93 377.23 225.55 377.23"/><polygon class="cls-14" points="243.39 377.23 243.94 381.15 228.19 381.15 227.65 377.23 243.39 377.23"/><polygon class="cls-14" points="261.08 377.23 261.66 381.15 246.03 381.15 245.46 377.23 261.08 377.23"/><polygon class="cls-14" points="278.59 377.23 279.17 381.15 263.75 381.15 263.18 377.23 278.59 377.23"/><polygon class="cls-14" points="296.67 377.23 297.25 381.15 281.23 381.15 280.68 377.23 296.67 377.23"/><polygon class="cls-14" points="318.31 381.15 299.31 381.15 298.77 377.23 316.97 377.23 318.31 381.15"/><polygon class="cls-14" points="71.18 372.26 86.17 372.26 85.11 376.21 70.27 376.21 71.18 372.26"/><polygon class="cls-14" points="88.29 372.26 104.53 372.26 103.98 376.21 87.23 376.21 88.29 372.26"/><polygon class="cls-14" points="106.62 372.26 122.12 372.26 121.82 376.21 106.07 376.21 106.62 372.26"/><polygon class="cls-14" points="124.19 372.26 140.57 372.26 140.48 376.21 123.91 376.21 124.19 372.26"/><polygon class="cls-14" points="157.65 372.26 157.89 376.21 142.54 376.21 142.63 372.26 157.65 372.26"/><polygon class="cls-14" points="176.62 372.26 176.86 376.21 159.99 376.21 159.72 372.26 176.62 372.26"/><polygon class="cls-14" points="194.79 372.26 195.03 376.21 178.95 376.21 178.68 372.26 194.79 372.26"/><polygon class="cls-14" points="212.51 372.26 213.08 376.21 197.09 376.21 196.85 372.26 212.51 372.26"/><polygon class="cls-14" points="230.8 372.26 231.38 376.21 215.18 376.21 214.6 372.26 230.8 372.26"/><polygon class="cls-14" points="248.82 372.26 249.4 376.21 233.47 376.21 232.9 372.26 248.82 372.26"/><polygon class="cls-14" points="267.21 372.26 267.79 376.21 251.5 376.21 250.92 372.26 267.21 372.26"/><polygon class="cls-14" points="285.23 372.26 285.81 376.21 269.88 376.21 269.31 372.26 285.23 372.26"/><polygon class="cls-14" points="303.62 372.26 304.2 376.21 287.9 376.21 287.33 372.26 303.62 372.26"/><polygon class="cls-14" points="316.64 376.21 306.29 376.21 305.71 372.26 315.3 372.26 316.64 376.21"/><path class="cls-2" d="M.9,14.73A8.63,8.63,0,0,1,6.62,8.92,8.63,8.63,0,0,1,.9,14.73Z"/><path class="cls-2" d="M4.15,22.53a8.5,8.5,0,0,1,8.09,0,8.5,8.5,0,0,1-8.09,0Z"/><path class="cls-2" d="M1,30.38a8.64,8.64,0,0,1,5.73,5.81A8.64,8.64,0,0,1,1,30.38Z"/></svg>