<svg id="Слой_1" data-name="Слой 1" xmlns="http://www.w3.org/2000/svg" xmlns:xlink="http://www.w3.org/1999/xlink" viewBox="0 0 581.13 402.55"><defs><style>.cls-1,.cls-14{fill:none;}.cls-2{clip-path:url(#clip-path);}.cls-3{fill:#4a148c;}.cls-4{fill:#fff;}.cls-5{fill:#ffc800;}.cls-6{fill:#306;}.cls-7{fill:#dcdcdc;}.cls-8{fill:#a8a8a8;}.cls-9{fill:#ececec;}.cls-10{fill:#c8c8c8;}.cls-11{fill:#17153e;}.cls-11,.cls-13{opacity:0.1;}.cls-12{fill:#ffaba1;}.cls-14{stroke:#fcaba0;stroke-linecap:round;stroke-linejoin:round;stroke-width:0;}</style><clipPath id="clip-path"><rect class="cls-1" x="-16" y="-7.95" width="613" height="420"/></clipPath></defs><g class="cls-2"><path class="cls-3" d="M17.29,263.41a47,47,0,1,1,63.86,18.28A47,47,0,0,1,17.29,263.41Z"/><path class="cls-4" d="M83,240C80,255.64,65.92,268.28,65.92,268.28s-18.52-3.74-29.13-15.67c-8.85-10-8.64-23.39-.39-28.57,11.83-7.43,21.28,14.13,21.28,14.13s-2.83-23.37,11.15-23C78.57,215.43,85.58,226.89,83,240Z"/><path class="cls-5" d="M32.27,379.32H26.71a6.25,6.25,0,0,1-6.3-6.3,6.32,6.32,0,0,1,6.3-6.29h7.74l3.64-21.05h-7a6.3,6.3,0,0,1,0-12.59h9.23l2.39-14.4a6.17,6.17,0,0,1,6.3-5.2,6.46,6.46,0,0,1,6.29,7.39L53.1,333.09h19l2.42-14.4a6.23,6.23,0,0,1,6.42-5.2,6.4,6.4,0,0,1,6.18,7.39L85,333.09h5.58a6.32,6.32,0,0,1,6.27,6.3,6.4,6.4,0,0,1-6.27,6.29H82.87l-3.64,21.05h6.89a6.25,6.25,0,0,1,6.3,6.29,6.32,6.32,0,0,1-6.3,6.3H77.05L74.5,394.19a6.23,6.23,0,0,1-6.29,5.2,6.4,6.4,0,0,1-6.3-7.36l2.31-12.71h-19l-2.54,14.87a6.3,6.3,0,0,1-6.38,5.2A6.18,6.18,0,0,1,30.11,392Zm34-12.59,3.63-21.05H51L47.4,366.73Z"/><path class="cls-3" d="M526.14,38.12A40.67,40.67,0,1,0,509.8,117.8a38.48,38.48,0,0,0,9.95.75,3.26,3.26,0,0,0,3.42-3.66,2.79,2.79,0,0,0-.71-2.18,3.7,3.7,0,0,0-2.89-1.14,29.78,29.78,0,0,1-8.32-.81,33.47,33.47,0,1,1,39.47-26.14A31.65,31.65,0,0,1,544,98.84c-.53.82-3.71,4-6.91,4.11l-.8-.17c-1-.2-1.2-.57-1.23-.61a9.77,9.77,0,0,1-.25-2.34c.34-4,3.31-16.12,3.35-16.26l.3-1.46c2.45-11.92-4.77-23.5-16.09-25.82s-22.71,5.45-25.15,17.36,4.82,23.76,16.24,26.11A19.87,19.87,0,0,0,528.22,97l-.37,1.82a10.55,10.55,0,0,0,.74,6.23,8.51,8.51,0,0,0,6.3,4.76,9,9,0,0,0,2.49.25c4.22-.33,8.28-2.44,12-6.28l.23-.24.19-.17a40.94,40.94,0,0,0-23.7-65.27ZM515,92.38c-7.5-1.54-12-9.09-10.38-17.21s9-13.35,16.33-11.84,12.11,9.43,10.49,17.34S522.44,93.9,515,92.38Z"/><path class="cls-6" d="M428.58-94.13H154.72C139.42-94.13,127-81.5,127-65.9V497.89c0,15.57,12.41,28.22,27.71,28.22H428.58a28,28,0,0,0,27.74-28.22V-65.9A28,28,0,0,0,428.58-94.13ZM439,480.46c0,14.84-11.11,26.84-24.82,26.84h-245c-13.74,0-24.86-12-24.86-26.84v-525c0-30.23,11.12-31.7,24.86-31.7h49.07c2.85,0,5.18,3.24,5.18,7.26v1.73c0,9.41,5.15,9.45,11.49,9.45h113.5c6.38,0,11.48,0,11.48-9.45V-69c0-4,2.3-7.26,5.2-7.26h49.09c13.71,0,24.82,4,24.82,31.7Z"/><path class="cls-4" d="M439-44.54v525c0,14.84-11.11,26.84-24.82,26.84h-245c-13.74,0-24.86-12-24.86-26.84v-525c0-30.23,11.12-31.7,24.86-31.7h49.07c2.85,0,5.18,3.24,5.18,7.26v1.73c0,9.41,5.15,9.45,11.49,9.45h113.5c6.38,0,11.48,0,11.48-9.45V-69c0-4,2.3-7.26,5.2-7.26h49.09C427.89-76.24,439-72.22,439-44.54Z"/><path class="cls-7" d="M188.61.28a16,16,0,0,1-4.74,2,16.33,16.33,0,0,1-12.55-2A16.4,16.4,0,0,1,164-9.8a16.44,16.44,0,0,1,12.07-19.87A16.44,16.44,0,0,1,196-17.6,16.44,16.44,0,0,1,188.61.28Z"/><path class="cls-4" d="M188.61-1.78V.28a16,16,0,0,1-4.74,2,16.33,16.33,0,0,1-12.55-2v-2A8.65,8.65,0,0,1,180-10.43,8.64,8.64,0,0,1,188.61-1.78Z"/><path class="cls-5" d="M201.44-.63a7.54,7.54,0,0,1-7.54,7.54,7.55,7.55,0,0,1-7.54-7.54,7.55,7.55,0,0,1,7.54-7.55A7.54,7.54,0,0,1,201.44-.63Z"/><rect class="cls-4" x="192.86" y="-5.19" width="2.08" height="9.12"/><rect class="cls-4" x="192.86" y="-5.19" width="2.08" height="9.12" transform="translate(193.27 -194.54) rotate(90)"/><path d="M165.26,12.43l-1.53-2.08a.17.17,0,0,1,0-.22.14.14,0,0,1,.22,0l1.41,1.94,1.43-1.94a.14.14,0,0,1,.22,0,.16.16,0,0,1,0,.22l-1.51,2.07v2a.16.16,0,0,1-.16.15.15.15,0,0,1-.15-.15Z"/><path d="M168.5,11.43A1.59,1.59,0,1,1,167,13,1.56,1.56,0,0,1,168.5,11.43Zm0,2.86A1.28,1.28,0,1,0,167.3,13,1.24,1.24,0,0,0,168.5,14.29Z"/><path d="M171,11.58a.16.16,0,1,1,.32,0v1.73a1,1,0,1,0,1.95,0V11.58a.16.16,0,0,1,.16-.16.16.16,0,0,1,.16.16v1.73a1.3,1.3,0,0,1-2.59,0Z"/><path d="M175.06,11.59a.15.15,0,0,1,.16-.15.15.15,0,0,1,.15.15v.7l0-.08a1.54,1.54,0,0,1,1.27-.77.15.15,0,0,1,.15.15.16.16,0,0,1-.15.16,1.13,1.13,0,0,0-.92.52,2.81,2.81,0,0,0-.39.74.09.09,0,0,0,0,.05v1.39a.15.15,0,0,1-.15.15.15.15,0,0,1-.16-.15Z"/><path d="M179.71,13.76a.13.13,0,0,1,.2,0,2.48,2.48,0,0,0,1.49.58,1.72,1.72,0,0,0,1-.3.84.84,0,0,0,.39-.67.7.7,0,0,0-.37-.62,2.79,2.79,0,0,0-1-.37h0a3.06,3.06,0,0,1-1.07-.38,1,1,0,0,1-.47-.8,1,1,0,0,1,.48-.84,1.81,1.81,0,0,1,1.09-.33,2.53,2.53,0,0,1,1.4.52.16.16,0,0,1,0,.2.14.14,0,0,1-.2,0,2.24,2.24,0,0,0-1.24-.48,1.65,1.65,0,0,0-.93.27.8.8,0,0,0-.35.62.66.66,0,0,0,.34.56,2.72,2.72,0,0,0,1,.34h0a3.06,3.06,0,0,1,1.15.41,1,1,0,0,1,.5.86,1.13,1.13,0,0,1-.51.9,2,2,0,0,1-1.17.36,2.92,2.92,0,0,1-1.67-.65A.15.15,0,0,1,179.71,13.76Z"/><path d="M185.25,11.59a.17.17,0,0,1-.16.15h-.41v2.31a.26.26,0,0,0,.24.24.18.18,0,0,1,.16.16.17.17,0,0,1-.16.15.54.54,0,0,1-.56-.55V11.74H184c-.15,0-.15-.08-.15-.15s0-.16.15-.16h.4V10.25a.16.16,0,0,1,.15-.15.17.17,0,0,1,.17.15v1.18h.41A.17.17,0,0,1,185.25,11.59Z"/><path d="M188,11.43a1.59,1.59,0,1,1-1.5,1.59A1.56,1.56,0,0,1,188,11.43Zm0,2.86A1.28,1.28,0,1,0,186.8,13,1.24,1.24,0,0,0,188,14.29Z"/><path d="M190.56,11.59a.15.15,0,0,1,.16-.15.15.15,0,0,1,.15.15v.7a.59.59,0,0,1,0-.08,1.54,1.54,0,0,1,1.27-.77.15.15,0,0,1,.16.15.16.16,0,0,1-.16.16,1.14,1.14,0,0,0-.92.52,2.7,2.7,0,0,0-.38.74.09.09,0,0,0,0,.05v1.39a.15.15,0,0,1-.15.15.15.15,0,0,1-.16-.15Z"/><path d="M193.13,11.58a.16.16,0,0,1,.15-.15.17.17,0,0,1,.17.15V13.3a1,1,0,0,0,1,1,1,1,0,0,0,1-1V11.58a.11.11,0,0,1,0-.08v0h0a.09.09,0,0,1,.05,0h.08l.07,0s0,0,0,.06,0,0,0,.06v2.77a1.49,1.49,0,0,1-1.51,1.49,1.59,1.59,0,0,1-.65-.15.16.16,0,0,1-.07-.2.18.18,0,0,1,.21-.08,1.1,1.1,0,0,0,.51.12,1.19,1.19,0,0,0,1.2-1.18v-.2a1.32,1.32,0,0,1-1,.45,1.3,1.3,0,0,1-1.29-1.3Z"/><path class="cls-5" d="M241.48.28a16.13,16.13,0,0,1-4.74,2,16.33,16.33,0,0,1-12.55-2A16.4,16.4,0,0,1,216.87-9.8a16.44,16.44,0,0,1,12.07-19.87A16.43,16.43,0,0,1,248.81-17.6,16.42,16.42,0,0,1,241.48.28Z"/><path class="cls-5" d="M232.79,6.09a19.63,19.63,0,0,1-10.36-3A19.68,19.68,0,0,1,213.62-9a19.72,19.72,0,0,1,2.31-15,19.64,19.64,0,0,1,12.22-8.94,19.62,19.62,0,0,1,15,2.3,19.71,19.71,0,0,1,9,12.23,19.74,19.74,0,0,1-8.83,21.52,19.82,19.82,0,0,1-5.71,2.39A20.14,20.14,0,0,1,232.79,6.09Zm.09-38a18.43,18.43,0,0,0-4.35.53,18.08,18.08,0,0,0-11.22,8.21,18.11,18.11,0,0,0-2.12,13.75,18.05,18.05,0,0,0,8.1,11.13,17.94,17.94,0,0,0,13.86,2.2,18,18,0,0,0,5.24-2.19h0A18.11,18.11,0,0,0,250.49-18a18,18,0,0,0-8.22-11.22A18,18,0,0,0,232.88-31.88Z"/><path class="cls-4" d="M241.48-1.78V.28a16.13,16.13,0,0,1-4.74,2,16.33,16.33,0,0,1-12.55-2v-2a8.65,8.65,0,0,1,8.65-8.65A8.64,8.64,0,0,1,241.48-1.78Z"/><path d="M218.37,11.59a.15.15,0,0,1,.16-.15.15.15,0,0,1,.15.15v.7a.59.59,0,0,1,0-.08,1.54,1.54,0,0,1,1.27-.77.15.15,0,0,1,.16.15.16.16,0,0,1-.16.16,1.14,1.14,0,0,0-.92.52,3,3,0,0,0-.38.74.09.09,0,0,0,0,.05v1.39a.15.15,0,0,1-.15.15.15.15,0,0,1-.16-.15Z"/><path d="M223.71,11.59v2.86a.15.15,0,0,1-.15.15.16.16,0,0,1-.16-.15V14a1.48,1.48,0,0,1-1.19.62,1.59,1.59,0,0,1,0-3.17,1.48,1.48,0,0,1,1.19.62v-.46a.16.16,0,0,1,.16-.16A.16.16,0,0,1,223.71,11.59ZM223.4,13a1.19,1.19,0,1,0-1.19,1.27A1.23,1.23,0,0,0,223.4,13Z"/><path d="M229.6,12.73a1,1,0,1,0-2,0v1.73h0v0h0a.11.11,0,0,1-.07.08.13.13,0,0,1-.08,0h0l0,0h0l0,0s0,0,0,0h0s0,0,0,0v0h0V12.73a1,1,0,1,0-1.95,0v1.73a.14.14,0,0,1-.08.12l0,0h-.07a.15.15,0,0,1-.13-.11v-2.9a.15.15,0,0,1,.15-.15.15.15,0,0,1,.16.15v.3a1.25,1.25,0,0,1,1-.45,1.3,1.3,0,0,0,2.28,0,1.29,1.29,0,0,1,1.29,1.29v1.73a.16.16,0,0,1-.16.14.15.15,0,0,1-.15-.14Z"/><path d="M232.58,11.43a1.59,1.59,0,1,1-1.5,1.59A1.56,1.56,0,0,1,232.58,11.43Zm0,2.86A1.28,1.28,0,1,0,231.39,13,1.24,1.24,0,0,0,232.58,14.29Z"/><path d="M237.54,12.73a1,1,0,0,0-1-1,1,1,0,0,0-1,1v1.74s0,.06,0,.08a.18.18,0,0,1-.12,0h0a.16.16,0,0,1-.1-.08v0h0v-2.9a.16.16,0,0,1,.16-.15.15.15,0,0,1,.15.15v.31a1.28,1.28,0,0,1,2.27.83v1.72a.15.15,0,0,1-.15.15.15.15,0,0,1-.16-.15Z"/><path d="M239.5,14a.32.32,0,1,1,0,.64.32.32,0,1,1,0-.64Z"/><path d="M243.23,10.36l-1.17,1.2a1.55,1.55,0,0,1,.77.42,1.51,1.51,0,0,1,.45,1.08,1.54,1.54,0,0,1-1.54,1.54,1.48,1.48,0,0,1-1.08-.45.15.15,0,0,1,0-.23.17.17,0,0,1,.23,0,1.18,1.18,0,0,0,.85.35A1.21,1.21,0,0,0,243,13.06a1.23,1.23,0,0,0-1.21-1.21.15.15,0,0,1-.13-.06h0a.18.18,0,0,1,0-.24l1.13-1.16H241a.16.16,0,0,1,0-.32h2.12a.16.16,0,0,1,.16.16.08.08,0,0,1,0,.07S243.24,10.34,243.23,10.36Z"/><path d="M244.44,14.33l2.12-1.91a1.2,1.2,0,0,0,.38-.87,1.17,1.17,0,0,0-1.95-.86l-.22.2a.16.16,0,0,1-.22-.23l.22-.21a1.55,1.55,0,0,1,1-.38,1.5,1.5,0,0,1,1.48,1.48,1.51,1.51,0,0,1-.49,1.1L245,14.29h2.14a.16.16,0,1,1,0,.31h-2.55a.15.15,0,0,1-.11-.27Z"/><path class="cls-3" d="M294.55.28a16.13,16.13,0,0,1-4.74,2,16.33,16.33,0,0,1-12.55-2A16.4,16.4,0,0,1,269.94-9.8,16.44,16.44,0,0,1,282-29.67,16.43,16.43,0,0,1,301.88-17.6,16.42,16.42,0,0,1,294.55.28Z"/><path class="cls-5" d="M285.86,6.09a19.63,19.63,0,0,1-10.36-3A19.68,19.68,0,0,1,266.69-9,19.72,19.72,0,0,1,269-24a19.64,19.64,0,0,1,12.22-8.94,19.63,19.63,0,0,1,15,2.3,19.71,19.71,0,0,1,9,12.23,19.74,19.74,0,0,1-8.83,21.52,19.54,19.54,0,0,1-5.71,2.39A20.14,20.14,0,0,1,285.86,6.09Zm.09-38a18.43,18.43,0,0,0-4.35.53,18.19,18.19,0,0,0-13.34,22,18.07,18.07,0,0,0,8.09,11.13,18,18,0,0,0,13.87,2.2,18,18,0,0,0,5.24-2.19h0A18.11,18.11,0,0,0,303.56-18a18,18,0,0,0-8.22-11.22A18,18,0,0,0,286-31.88Z"/><path class="cls-4" d="M294.55-1.78V.28a16.13,16.13,0,0,1-4.74,2,16.33,16.33,0,0,1-12.55-2v-2a8.65,8.65,0,0,1,8.65-8.65A8.65,8.65,0,0,1,294.55-1.78Z"/><path d="M274,11.59a.16.16,0,0,1,.17-.15.15.15,0,0,1,.14.15v.7a.56.56,0,0,0,.05-.08,1.54,1.54,0,0,1,1.27-.77.15.15,0,0,1,.15.15.16.16,0,0,1-.15.16,1.13,1.13,0,0,0-.92.52,2.7,2.7,0,0,0-.38.74.06.06,0,0,0,0,.05v1.39a.15.15,0,0,1-.14.15.16.16,0,0,1-.17-.15Z"/><path d="M276.87,10.55a.16.16,0,1,1,.31,0v.15a.16.16,0,1,1-.31,0Zm0,1a.16.16,0,0,1,.15-.16.16.16,0,0,1,.16.16v2.86a.16.16,0,0,1-.16.15.15.15,0,0,1-.15-.15Z"/><path d="M278.68,11.59a.15.15,0,0,1,.16-.15.15.15,0,0,1,.15.15v.7l.05-.08a1.53,1.53,0,0,1,1.26-.77.15.15,0,0,1,.16.15.16.16,0,0,1-.16.16,1.12,1.12,0,0,0-.91.52A2.81,2.81,0,0,0,279,13a.09.09,0,0,0,0,.05v1.39a.15.15,0,0,1-.15.15.15.15,0,0,1-.16-.15Z"/><path d="M281.53,10.55a.16.16,0,0,1,.32,0v.15a.16.16,0,1,1-.32,0Zm0,1a.16.16,0,1,1,.32,0v2.86a.16.16,0,0,1-.32,0Z"/><path d="M282.59,15.5a.14.14,0,0,1,.14-.14h3.91a.14.14,0,1,1,0,.28h-3.91A.14.14,0,0,1,282.59,15.5Z"/><path d="M287.3,10.23a.16.16,0,0,1,.15-.16h2.35a.16.16,0,0,1,0,.32h-2.18v1.79h1.91a.16.16,0,0,1,0,.32h-1.91v1.95a.16.16,0,0,1-.16.15.16.16,0,0,1-.16-.15Z"/><path d="M290.83,13a1.54,1.54,0,0,1,3.07-.11h0v0a.15.15,0,0,1-.16.15h-2.6a1.24,1.24,0,0,0,1.23,1.21,1.19,1.19,0,0,0,1-.57.15.15,0,0,1,.21-.05.16.16,0,0,1,0,.22,1.5,1.5,0,0,1-1.28.71A1.56,1.56,0,0,1,290.83,13Zm.33-.25h2.4a1.21,1.21,0,0,0-2.4,0Z"/><path d="M294.94,11.58a.15.15,0,0,1,.15-.15.16.16,0,0,1,.16.15V13.3a1,1,0,1,0,1.95,0V11.58a.11.11,0,0,1,0-.08v0h0a.08.08,0,0,1,.06,0h.07l.08,0,0,.06s0,0,0,.06v2.77a1.49,1.49,0,0,1-1.5,1.49,1.6,1.6,0,0,1-.66-.15.15.15,0,0,1-.06-.2.16.16,0,0,1,.2-.08,1.11,1.11,0,0,0,.52.12,1.18,1.18,0,0,0,1.19-1.18v-.2a1.32,1.32,0,0,1-1,.45,1.29,1.29,0,0,1-1.28-1.3Z"/><path class="cls-8" d="M347.62.28a16.13,16.13,0,0,1-4.74,2,16.33,16.33,0,0,1-12.55-2A16.4,16.4,0,0,1,323-9.8a16.44,16.44,0,0,1,12.07-19.87A16.43,16.43,0,0,1,355-17.6,16.42,16.42,0,0,1,347.62.28Z"/><path class="cls-5" d="M338.93,6.09a19.63,19.63,0,0,1-10.36-3A19.68,19.68,0,0,1,319.76-9a19.72,19.72,0,0,1,2.31-15,19.64,19.64,0,0,1,12.22-8.94,19.62,19.62,0,0,1,15,2.3,19.66,19.66,0,0,1,8.95,12.23,19.72,19.72,0,0,1-8.82,21.52,19.54,19.54,0,0,1-5.71,2.39A20.14,20.14,0,0,1,338.93,6.09Zm.09-38a18.43,18.43,0,0,0-4.35.53,18.08,18.08,0,0,0-11.22,8.21,18.11,18.11,0,0,0-2.12,13.75,18.07,18.07,0,0,0,8.09,11.13,18,18,0,0,0,13.87,2.2,18,18,0,0,0,5.24-2.19h0A18.12,18.12,0,0,0,356.63-18a18,18,0,0,0-8.22-11.22A18,18,0,0,0,339-31.88Z"/><path class="cls-4" d="M347.62-1.78V.28a16.13,16.13,0,0,1-4.74,2,16.33,16.33,0,0,1-12.55-2v-2A8.65,8.65,0,0,1,339-10.43,8.65,8.65,0,0,1,347.62-1.78Z"/><path d="M321.57,13.07V11.59a.16.16,0,0,1,.16-.16.16.16,0,0,1,.16.16v.46a1.5,1.5,0,0,1,1.21-.62,1.58,1.58,0,0,1,0,3.15,1.47,1.47,0,0,1-1.21-.62v1.82a.16.16,0,0,1-.16.15.16.16,0,0,1-.16-.15Zm.32-.06a1.21,1.21,0,1,0,2.42,0,1.23,1.23,0,0,0-1.21-1.26,1.24,1.24,0,0,0-1.21,1.2Z"/><path d="M327.21,11.43A1.59,1.59,0,1,1,325.7,13,1.56,1.56,0,0,1,327.21,11.43Zm0,2.86A1.28,1.28,0,1,0,326,13,1.24,1.24,0,0,0,327.21,14.29Z"/><path d="M329.68,13.94a.17.17,0,0,1,.22,0,1.64,1.64,0,0,0,1,.37,1,1,0,0,0,.61-.19.5.5,0,0,0,.24-.39.53.53,0,0,0-.23-.39,1.61,1.61,0,0,0-.67-.23h0a1.85,1.85,0,0,1-.72-.24.67.67,0,0,1-.34-.57.79.79,0,0,1,.34-.63,1.47,1.47,0,0,1,.78-.21,1.77,1.77,0,0,1,.95.34.16.16,0,0,1,0,.22.14.14,0,0,1-.21,0,1.36,1.36,0,0,0-.78-.32.93.93,0,0,0-.6.18.5.5,0,0,0-.2.37.37.37,0,0,0,.18.31,1.49,1.49,0,0,0,.65.22h0a2.41,2.41,0,0,1,.77.26.75.75,0,0,1,0,1.29,1.28,1.28,0,0,1-.79.25,1.87,1.87,0,0,1-1.17-.45A.16.16,0,0,1,329.68,13.94Z"/><path d="M335.42,12.68a1,1,0,0,0-2,0v1.84a.16.16,0,0,1-.1.08h0a.21.21,0,0,1-.13,0s0,0,0-.05a.09.09,0,0,1,0-.05V10.23a.16.16,0,0,1,.32,0V11.9a1.29,1.29,0,0,1,1-.47,1.27,1.27,0,0,1,1.33,1.25v1.77a.16.16,0,0,1-.32,0Z"/><path d="M338.17,11.59a.17.17,0,0,1-.15.15h-.41v2.31a.25.25,0,0,0,.23.24.17.17,0,0,1,.16.16.16.16,0,0,1-.16.15.54.54,0,0,1-.56-.55V11.74h-.39c-.16,0-.16-.08-.16-.15s0-.16.16-.16h.39V10.25a.16.16,0,0,1,.16-.15.17.17,0,0,1,.17.15v1.18H338A.17.17,0,0,1,338.17,11.59Z"/><path d="M339.2,11.59a.15.15,0,0,1,.16-.15.15.15,0,0,1,.15.15v.7l.05-.08a1.54,1.54,0,0,1,1.27-.77.15.15,0,0,1,.15.15.16.16,0,0,1-.15.16,1.13,1.13,0,0,0-.92.52,2.81,2.81,0,0,0-.39.74.09.09,0,0,0,0,.05v1.39a.15.15,0,0,1-.15.15.15.15,0,0,1-.16-.15Z"/><path d="M341.5,13a1.54,1.54,0,0,1,3.07-.11h0v0a.16.16,0,0,1-.16.15h-2.6A1.24,1.24,0,0,0,343,14.29a1.19,1.19,0,0,0,1-.57.15.15,0,0,1,.21-.05.17.17,0,0,1,.05.22,1.5,1.5,0,0,1-1.28.71A1.56,1.56,0,0,1,341.5,13Zm.33-.25h2.4a1.21,1.21,0,0,0-2.4,0Z"/><path d="M347.94,12.73a1,1,0,0,0-1-1,1,1,0,0,0-1,1v1.74a.11.11,0,0,1,0,.08.17.17,0,0,1-.12,0h0a.15.15,0,0,1-.11-.08v0h0v-2.9a.15.15,0,1,1,.3,0v.31a1.29,1.29,0,0,1,2.28.83v1.72a.15.15,0,0,1-.16.15.15.15,0,0,1-.15-.15Z"/><path d="M352.05,14a1.52,1.52,0,0,1-1.22.61,1.59,1.59,0,0,1,0-3.17,1.53,1.53,0,0,1,1.22.62V10.23a.16.16,0,1,1,.32,0v4.22a.16.16,0,0,1-.32,0Zm0-.91V13a1.27,1.27,0,1,0,0,.11Z"/><path d="M353.52,11.58a.15.15,0,0,1,.15-.15.16.16,0,0,1,.16.15V13.3a1,1,0,0,0,1,1,1,1,0,0,0,1-1V11.58a.11.11,0,0,1,0-.08v0h0s0,0,.06,0H356l.08,0s0,0,0,.06a.11.11,0,0,1,0,.06v2.77a1.49,1.49,0,0,1-1.51,1.49,1.59,1.59,0,0,1-.65-.15.15.15,0,0,1-.07-.2.16.16,0,0,1,.2-.08,1.17,1.17,0,0,0,.52.12,1.19,1.19,0,0,0,1.2-1.18v-.2a1.32,1.32,0,0,1-1,.45,1.3,1.3,0,0,1-1.28-1.3Z"/><path class="cls-6" d="M400.69.28a16.13,16.13,0,0,1-4.74,2,16.33,16.33,0,0,1-12.55-2A16.4,16.4,0,0,1,376.08-9.8a16.44,16.44,0,0,1,12.07-19.87A16.43,16.43,0,0,1,408-17.6,16.42,16.42,0,0,1,400.69.28Z"/><path class="cls-5" d="M392,6.09a19.63,19.63,0,0,1-10.36-3A19.68,19.68,0,0,1,372.83-9a19.68,19.68,0,0,1,2.31-15,19.64,19.64,0,0,1,12.22-8.94,19.62,19.62,0,0,1,15,2.3,19.66,19.66,0,0,1,8.95,12.23,19.72,19.72,0,0,1-8.82,21.52,19.54,19.54,0,0,1-5.71,2.39A20.14,20.14,0,0,1,392,6.09Zm.09-38a18.43,18.43,0,0,0-4.35.53,18.08,18.08,0,0,0-11.22,8.21A18.07,18.07,0,0,0,374.4-9.39a18.07,18.07,0,0,0,8.09,11.13,18,18,0,0,0,13.87,2.2,18,18,0,0,0,5.24-2.19h0A18.11,18.11,0,0,0,409.7-18a18,18,0,0,0-8.22-11.22A18,18,0,0,0,392.09-31.88Z"/><path class="cls-4" d="M400.69-1.78V.28a16.13,16.13,0,0,1-4.74,2,16.33,16.33,0,0,1-12.55-2v-2a8.65,8.65,0,0,1,8.65-8.65A8.65,8.65,0,0,1,400.69-1.78Z"/><path d="M379.56,13.07V11.59a.16.16,0,0,1,.16-.16.16.16,0,0,1,.16.16v.46a1.5,1.5,0,0,1,1.21-.62,1.58,1.58,0,0,1,0,3.15,1.47,1.47,0,0,1-1.21-.62v1.82a.16.16,0,0,1-.16.15.16.16,0,0,1-.16-.15Zm.32-.06a1.21,1.21,0,1,0,2.42,0,1.23,1.23,0,0,0-1.21-1.26,1.24,1.24,0,0,0-1.21,1.2Z"/><path d="M383.55,13a1.54,1.54,0,0,1,3.07-.11h0v0a.15.15,0,0,1-.15.15h-2.61a1.24,1.24,0,0,0,1.23,1.21,1.22,1.22,0,0,0,1-.57.14.14,0,0,1,.2-.05.16.16,0,0,1,.05.22,1.5,1.5,0,0,1-1.28.71A1.56,1.56,0,0,1,383.55,13Zm.33-.25h2.4a1.23,1.23,0,0,0-1.19-1A1.25,1.25,0,0,0,383.88,12.77Z"/><path d="M388.57,11.59a.17.17,0,0,1-.15.15H388v2.31a.25.25,0,0,0,.23.24.17.17,0,0,1,.16.16.16.16,0,0,1-.16.15.54.54,0,0,1-.56-.55V11.74h-.39c-.16,0-.16-.08-.16-.15s0-.16.16-.16h.39V10.25a.16.16,0,0,1,.16-.15.17.17,0,0,1,.17.15v1.18h.41A.17.17,0,0,1,388.57,11.59Z"/><path d="M390.1,10.23a.16.16,0,1,1,.32,0v4.22a.16.16,0,0,1-.32,0Z"/><path d="M393,11.43a1.59,1.59,0,1,1-1.5,1.59A1.56,1.56,0,0,1,393,11.43Zm0,2.86A1.28,1.28,0,1,0,391.83,13,1.24,1.24,0,0,0,393,14.29Z"/><path d="M396.54,14.58a.18.18,0,0,1-.05-.07l-1.19-2.84a.16.16,0,0,1,.08-.2.16.16,0,0,1,.2.08l1.05,2.5,1.06-2.5a.16.16,0,0,1,.2-.08.15.15,0,0,1,.08.2l-1.19,2.81s0,0,0,.08a.13.13,0,0,1-.1,0h-.1Z"/><path d="M398.88,13a1.54,1.54,0,0,1,3.07-.11h0v0a.16.16,0,0,1-.16.15h-2.6a1.24,1.24,0,0,0,1.23,1.21,1.19,1.19,0,0,0,1-.57.15.15,0,0,1,.21-.05.17.17,0,0,1,.05.22,1.5,1.5,0,0,1-1.28.71A1.56,1.56,0,0,1,398.88,13Zm.33-.25h2.4a1.21,1.21,0,0,0-2.4,0Z"/><path d="M402.91,11.59a.16.16,0,0,1,.17-.15.15.15,0,0,1,.14.15v.7a.56.56,0,0,0,0-.08,1.54,1.54,0,0,1,1.27-.77.15.15,0,0,1,.15.15.16.16,0,0,1-.15.16,1.13,1.13,0,0,0-.92.52,2.7,2.7,0,0,0-.38.74.06.06,0,0,0,0,.05v1.39a.15.15,0,0,1-.14.15.16.16,0,0,1-.17-.15Z"/><path class="cls-3" d="M174.33,58.52a8.09,8.09,0,0,1-2.41,1,8.36,8.36,0,1,1,2.41-1Z"/><path class="cls-4" d="M172.48,50.46a2.55,2.55,0,1,1-2.54-2.54A2.54,2.54,0,0,1,172.48,50.46Z"/><path class="cls-4" d="M174.33,57.47v1.05a8.09,8.09,0,0,1-2.41,1,8.29,8.29,0,0,1-6.38-1V57.47a4.4,4.4,0,0,1,8.79,0Z"/><path d="M187.46,49.84a.37.37,0,0,1-.36.36h-.16V52a.35.35,0,0,1,.35.37.34.34,0,0,1-.35.35.72.72,0,0,1-.72-.72V50.2H186a.36.36,0,0,1-.36-.36.36.36,0,0,1,.36-.36h.19v-.94a.36.36,0,0,1,.72,0v.94h.16A.36.36,0,0,1,187.46,49.84Z"/><path d="M188.8,52.25a1.63,1.63,0,0,1-.45-1.14A1.66,1.66,0,0,1,188.8,50a1.48,1.48,0,0,1,1.11-.5A1.4,1.4,0,0,1,191,50a1.62,1.62,0,0,1,.46,1.13,1.59,1.59,0,0,1-.46,1.14,1.43,1.43,0,0,1-1.08.49A1.51,1.51,0,0,1,188.8,52.25Zm.26-1.14a1.06,1.06,0,0,0,.23.69.92.92,0,0,0,1.22,0,1,1,0,0,0,.25-.69,1,1,0,0,0-.25-.67.87.87,0,0,0-1.22,0A1,1,0,0,0,189.06,51.11Z"/><path d="M195.26,50.82v1.56a.35.35,0,0,1-.35.34.35.35,0,0,1-.35-.34V50.82a.66.66,0,0,0-1.32,0v1.6l0,0v0a.38.38,0,0,1-.33.21h-.06a.35.35,0,0,1-.28-.34V50.84h0v-1a.34.34,0,0,1,.34-.35.32.32,0,0,1,.31.2,1.35,1.35,0,0,1,1.71.25,1.34,1.34,0,0,1,1-.45,1.36,1.36,0,0,1,1.35,1.36v1.54a.35.35,0,0,1-.35.34.35.35,0,0,1-.35-.34V50.84a.65.65,0,0,0-.65-.66A.66.66,0,0,0,195.26,50.82Z"/><path d="M199.12,51.8a.49.49,0,0,1,0,1,.49.49,0,0,1,0-1Z"/><path d="M199.85,51.11a1.65,1.65,0,0,1,1.64-1.63,1.74,1.74,0,0,1,1,.36.35.35,0,0,1,.07.48.34.34,0,0,1-.48.06,1.07,1.07,0,0,0-.62-.2.93.93,0,1,0,0,1.85,1.09,1.09,0,0,0,.62-.2.34.34,0,0,1,.48.07.35.35,0,0,1-.07.48,1.79,1.79,0,0,1-1,.34A1.63,1.63,0,0,1,199.85,51.11Z"/><path d="M204,52.25a1.62,1.62,0,0,1-.44-1.14A1.65,1.65,0,0,1,204,50a1.5,1.5,0,0,1,1.12-.5,1.42,1.42,0,0,1,1.08.5,1.61,1.61,0,0,1,.45,1.13,1.58,1.58,0,0,1-.45,1.14,1.45,1.45,0,0,1-1.08.49A1.53,1.53,0,0,1,204,52.25Zm.26-1.14a1.07,1.07,0,0,0,.24.69.88.88,0,0,0,.62.23.86.86,0,0,0,.59-.23,1,1,0,0,0,.26-.69.92.92,0,0,0-.26-.67.88.88,0,0,0-.59-.25.89.89,0,0,0-.62.25A1,1,0,0,0,204.23,51.11Z"/><path d="M208,52.25a1.66,1.66,0,0,1-.44-1.14A1.7,1.7,0,0,1,208,50a1.5,1.5,0,0,1,1.12-.5,1.42,1.42,0,0,1,1.08.5,1.61,1.61,0,0,1,.45,1.13,1.58,1.58,0,0,1-.45,1.14,1.45,1.45,0,0,1-1.08.49A1.53,1.53,0,0,1,208,52.25Zm.26-1.14a1.07,1.07,0,0,0,.24.69.88.88,0,0,0,.62.23.86.86,0,0,0,.59-.23,1,1,0,0,0,.26-.69.92.92,0,0,0-.26-.67.88.88,0,0,0-.59-.25.89.89,0,0,0-.62.25A1,1,0,0,0,208.28,51.11Z"/><path d="M211.78,53.59V51.12h0V49.83a.35.35,0,0,1,.34-.35.37.37,0,0,1,.36.27,1.56,1.56,0,0,1,2.44,1.36,1.59,1.59,0,0,1-1.56,1.61,1.47,1.47,0,0,1-.87-.27v1.14a.37.37,0,0,1-.37.35A.35.35,0,0,1,211.78,53.59Zm.71-2.48a.87.87,0,0,0,.25.65.81.81,0,0,0,.62.27.84.84,0,0,0,.61-.27,1,1,0,0,0,.25-.65,1.07,1.07,0,0,0-.25-.66.87.87,0,0,0-.61-.26.84.84,0,0,0-.62.26A.92.92,0,0,0,212.49,51.11Z"/><path d="M215.76,51.1a1.6,1.6,0,0,1,1.58-1.62A1.55,1.55,0,0,1,218.9,51v.09a.32.32,0,0,1-.34.26H216.5a.82.82,0,0,0,.22.42,1,1,0,0,0,.62.29,1,1,0,0,0,.67-.16.38.38,0,0,1,.49,0,.3.3,0,0,1,0,.42,1.63,1.63,0,0,1-2.74-1.19Zm.71-.31h1.83a1.07,1.07,0,0,0-1-.69A.89.89,0,0,0,216.47,50.79Z"/><path d="M221.79,49.83a.34.34,0,0,1-.34.34.65.65,0,0,0-.39.12,1.11,1.11,0,0,0-.3.31,2.08,2.08,0,0,0-.26.55v1.23a.35.35,0,0,1-.36.34.34.34,0,0,1-.34-.34V49.83a.34.34,0,0,1,.34-.34.35.35,0,0,1,.36.34v0l.13-.13a1.45,1.45,0,0,1,.82-.25A.34.34,0,0,1,221.79,49.83Z"/><path d="M411.9,50.47a.8.8,0,0,1,.79.79.79.79,0,0,1-.79.78.77.77,0,0,1-.77-.78A.78.78,0,0,1,411.9,50.47Z"/><path d="M414.32,50.47a.8.8,0,0,1,.79.79.79.79,0,0,1-.79.78.78.78,0,0,1-.78-.78A.79.79,0,0,1,414.32,50.47Z"/><path d="M416.74,50.47a.8.8,0,0,1,.79.79.79.79,0,0,1-.79.78.78.78,0,0,1-.78-.78A.79.79,0,0,1,416.74,50.47Z"/><rect class="cls-9" x="144.31" y="70.32" width="294.69" height="294.69"/><path class="cls-9" d="M172,395.81h-.9c-.25-.17-6.07-4.12-8.57-8.74-1.75-3.21-2-6.8-.59-9.14a4.53,4.53,0,0,1,4-2.32c2.83,0,4.61,2,5.57,3.94,1-1.93,2.75-3.94,5.58-3.94a4.56,4.56,0,0,1,4,2.32c1.39,2.35,1.16,5.93-.59,9.15h0C178.11,391.69,172.29,395.64,172,395.81Zm-6-18.58a3,3,0,0,0-2.65,1.52c-1.1,1.86-.86,4.83.63,7.55,1.92,3.55,6.19,6.83,7.59,7.84,1.4-1,5.67-4.29,7.61-7.84h0c1.48-2.72,1.73-5.68.62-7.54a3,3,0,0,0-2.65-1.53c-3.7,0-4.74,4.69-4.79,4.88H170.8C170.76,381.91,169.72,377.23,166,377.23Zm13.89,9.46h0Z"/><path class="cls-9" d="M240.81,397l-1.43-.28-2.93-10.91-6.76-7.37.6-1.36h23.84l.65,1.29Zm-8.68-18.3,5.65,6.16.18.34,2.55,9.49,12-16Z"/><rect class="cls-9" x="235.57" y="380.81" width="20.16" height="1.62" transform="translate(-133.69 132.46) rotate(-23.93)"/><path class="cls-9" d="M204.81,395.94a10.2,10.2,0,1,1,9.75-7.27l1.54,6.27-1,1-5.35-1.26A10.21,10.21,0,0,1,204.81,395.94Zm0-18.71a8.55,8.55,0,1,0,4.41,15.88l.6-.1,4.39,1-1.27-5.2v-.44a8.44,8.44,0,0,0,.42-2.62A8.57,8.57,0,0,0,204.81,377.23Z"/><path class="cls-9" d="M403.66,395.79l-1.28-.65V377.86l.81-.81h14l.81.81v17.28l-1.28.65-6.54-5.94Zm.34-17.12v14.87l5.73-5.35h.95l5.73,5.35V378.67Z"/><rect class="cls-9" x="144.31" y="21.16" width="293.82" height="0.41"/><path class="cls-10" d="M243,226.19c-1.38,2.52-5,3.11-7.67,3.86l-11.87,3.36L200.33,240c-3.91,1.1-7.79,2.32-11.74,3.28-2.77.68-7.9-2.11-7.49-2-1.81-5.8-1.22-12.55,3.87-16.91.44-.38,1.59-.89,1.85-1.33.55-.94-.27-2.35-.6-3.24a60.83,60.83,0,0,0-2.51-5.76,24.05,24.05,0,0,0-1.39-2.6c-.76-1.17-1.91-1-3.23-.94a6.18,6.18,0,0,1-4.17-.81c-2.35-1.73-.69-3.85.88-5.44a28,28,0,0,1,7.39-5.34,27.45,27.45,0,0,1,18.22-2.31c6.66,1.5,11.39,5.76,15.52,10.46,1.17,1.33,2,2.53,4,2.85,1.73.28,3.48.43,5.2.74a31.75,31.75,0,0,1,9.84,3.3C240,216.21,245.61,221.49,243,226.19Z"/><path class="cls-7" d="M241.05,232.27c-3,2-6.74,2.64-10.38,3.26a32,32,0,0,0-6.4,1.57,38,38,0,0,0-5.44,2.86,51.15,51.15,0,0,1-10.7,4.9A48.73,48.73,0,0,1,196.41,247c-3.7.21-8,.28-11.36-1.31-2.69-1.26-4.58-3.73-4.05-6.53a6.58,6.58,0,0,1,2.07-3.55c1.18-1.06,3.75-1.83,3.78-3.56.05-2.17-9.63-5.67-13.56-12.88-1.68-3.09-2.65-6.92-.95-10.17s5.49-4.94,9.23-5.46a40.6,40.6,0,0,1,12.05.51,56,56,0,0,1,12.09,3.39c3.8,1.54,7.37,3.49,11.11,5.14A46.34,46.34,0,0,0,229.07,216c6.11.89,15,2.61,15.76,9.45C245.15,228.23,243.44,230.66,241.05,232.27Z"/><path class="cls-10" d="M186.18,236.71a1.65,1.65,0,0,0-1.26,1.1,1.36,1.36,0,0,0-.1.88.43.43,0,0,0,0,.05,1.91,1.91,0,0,0,.06.33,1.7,1.7,0,0,0,3.07.39A1.81,1.81,0,0,0,186.18,236.71Z"/><path class="cls-10" d="M234,230s0-.08,0-.13h0a.93.93,0,0,0-.27-.92,1.08,1.08,0,0,0-1.5.15c-.46.87.64,2,1.46,1.29a1.48,1.48,0,0,0,.22-.29l0,0S234,230.05,234,230Z"/><path class="cls-10" d="M179.76,207.67s0-.08,0-.13h0a.94.94,0,0,0-.26-.92.91.91,0,0,0-.22-.13.85.85,0,0,0-1.29.28c-.45.87.65,2,1.47,1.29a1,1,0,0,0,.21-.29l0,0Z"/><path class="cls-10" d="M192.62,236.22a.68.68,0,0,0-.85.27.45.45,0,0,0-.06.37.64.64,0,1,0,.91-.64Z"/><path class="cls-10" d="M212.32,220.47a.69.69,0,0,0-.85.27.39.39,0,0,0-.05.36.64.64,0,0,0,1.23.21A.65.65,0,0,0,212.32,220.47Z"/><path class="cls-10" d="M237.41,230.05a.68.68,0,0,0-.85.27.4.4,0,0,0-.06.36.64.64,0,1,0,.91-.63Z"/><path class="cls-10" d="M306.28,99.9c-.2,2.63-3.57,3.42-5.67,4-6.28,1.77-12.9,1.11-19.26.25-6.85-.92-14-2.19-20.84-.61-5.17,1.19-10.09,4-12.79,8.6,40.86-5,52.33,25.74,49.73,26.92-2.92,1.33-11.9,5.31-15.07,5.63-7,.72-14.06-.07-21-.36-7.33-.3-14.68-.46-22-.67-14.48-.42-29-1-43.35-2.95a177.24,177.24,0,0,1-21.43-4.23c-5.09-1.35-13.6-2.26-13.07-7.93.93-10.11,9.95-25.77,33.42-24a33.83,33.83,0,0,1,4-16.23A33.48,33.48,0,0,1,223,70.74a34.87,34.87,0,0,1,28.36,8.17,29.76,29.76,0,0,1,39.2,9.52,13.43,13.43,0,0,1,13.36,5.13C305.22,95.26,306.45,97.69,306.28,99.9Z"/><path class="cls-7" d="M311.75,102.55c-1.65,4.21-5.82,6.81-9.85,8.36-10.22,4-21.42,1.68-31.95.67a60.94,60.94,0,0,0-15.85.13c-4.8.81-11.18,2.78-14,7.11-2,3,.41,6.22,3.48,7.09,2.84.81,5.93.09,8.78-.28a152.42,152.42,0,0,1,19-1.32c9.42-.07,21.05,1.25,25.18,11.19a11.83,11.83,0,0,1-1.62,12,24.36,24.36,0,0,1-8.58,7.3c-2.87,2.84-7.3,4-11.42,3.94-7.48-.17-14.63-3.08-21.92-4.46a34.24,34.24,0,0,0-10.59-.56c-3.4.43-6.59,1.68-9.88,2.58a34.93,34.93,0,0,1-19.18-.21c-6.23-1.88-11.84-5.32-18.12-7.14-5.82-1.7-11.83-2.77-17.58-4.73-5.14-1.76-10.69-4.35-14.05-8.79a9.4,9.4,0,0,1,1.47-13.3c4.63-4,11.57-6,17.48-6,17.35,0,18.29-8.34,17.35-10.6-1.76-4.27-2-8.9.21-13.06a18.87,18.87,0,0,1,9.46-8.22c4.72-2,10-1.93,15-1,5.78,1.11,10.9,3.78,16.46,5.55,6.37,2,12.48,0,18.65-1.7a95.9,95.9,0,0,1,17.13-3.34,62.85,62.85,0,0,1,17.27.59c5,.92,10.36,2.43,14.2,6C311.53,93.32,313.46,98.19,311.75,102.55Z"/><path class="cls-10" d="M169.64,125.57a1.63,1.63,0,0,0-1.25,1.09,1.43,1.43,0,0,0-.11.88s0,0,0,.06a1.91,1.91,0,0,0,.06.33,1.7,1.7,0,0,0,3.07.38A1.8,1.8,0,0,0,169.64,125.57Z"/><path class="cls-10" d="M275.71,146.85a1.66,1.66,0,0,0-1.26,1.09,1.36,1.36,0,0,0-.1.88s0,0,0,.06a1.91,1.91,0,0,0,.06.33,1.7,1.7,0,0,0,3.07.38A1.8,1.8,0,0,0,275.71,146.85Z"/><path class="cls-10" d="M175.62,130.56a.61.61,0,0,0,0-.12h0a.94.94,0,0,0-.26-.92.69.69,0,0,0-.22-.14.86.86,0,0,0-1.29.28c-.45.87.65,2,1.47,1.29a.86.86,0,0,0,.21-.29l0,0S175.62,130.58,175.62,130.56Z"/><path class="cls-10" d="M296.13,93a.5.5,0,0,0,.05-.13h0a.94.94,0,0,0-.26-.92.8.8,0,0,0-.22-.13.84.84,0,0,0-1.29.28c-.45.87.64,2,1.46,1.28a1.18,1.18,0,0,0,.22-.28s0,0,0,0Z"/><path class="cls-10" d="M176.08,125.07a.7.7,0,0,0-.85.28.42.42,0,0,0-.06.36.65.65,0,0,0,1.24.2A.65.65,0,0,0,176.08,125.07Z"/><path class="cls-10" d="M237.2,93a.69.69,0,0,0-.85.27.39.39,0,0,0,0,.36.64.64,0,0,0,1.23.21A.65.65,0,0,0,237.2,93Z"/><path class="cls-10" d="M302.36,91.38a.67.67,0,0,0-.84.27.4.4,0,0,0-.06.36.64.64,0,1,0,.9-.63Z"/><path class="cls-10" d="M218.87,180.1c-2.75,5.73-10.17,4.16-14.91,2.64-7.08-2.27-14.11-4.67-21.33-6.42a75.23,75.23,0,0,0-22.3-2.47c-2.75.15-6.37,1.25-8.85-.46a3.6,3.6,0,0,1-1.33-4.71c-.44-5.26,4.14-9.16,9.06-10.8A4.5,4.5,0,0,0,162,156c.42-.68.75-1.39,1.18-2.06a23.44,23.44,0,0,1,2.85-3.67,25.7,25.7,0,0,1,7.35-5.39,24.85,24.85,0,0,1,30,6.94c1,1.21,1.7,2.58,2.63,3.82a14.51,14.51,0,0,0,4,3.18,21.17,21.17,0,0,1,5.85,5.74,21.48,21.48,0,0,1,3.34,7.93C219.7,174.89,220,177.8,218.87,180.1Z"/><path class="cls-7" d="M217.3,183.67a12.72,12.72,0,0,1-8.38,5.09c-6.91,1.07-12.83-2.75-18.42-6.2-3.36-2.07-6.53-3.06-10.48-2.37a71.19,71.19,0,0,1-9.06,1.45c-5.83.23-12.73-1-17.49-4.57-3.9-2.95-5.39-8.7-1-11.93,2.37-1.74,5.39-2.35,8.22-2.89a38.55,38.55,0,0,0,9.93-3.09c11.35-5.49,24.43-5.65,35.43.88,4.81,2.85,9.44,7,12.16,11.91C220.24,175.65,220.66,180.81,217.3,183.67Z"/><path class="cls-10" d="M206.94,172.57a1.67,1.67,0,0,0-1.26,1.1,1.36,1.36,0,0,0-.1.88s0,0,0,0a1.91,1.91,0,0,0,.06.33,1.7,1.7,0,0,0,3.07.39A1.81,1.81,0,0,0,206.94,172.57Z"/><path class="cls-10" d="M156,168.44a1.64,1.64,0,0,0-1.26,1.09,1.43,1.43,0,0,0-.11.88s0,0,0,.06a1.28,1.28,0,0,0,.06.33,1.7,1.7,0,0,0,3.06.38A1.8,1.8,0,0,0,156,168.44Z"/><path class="cls-10" d="M212.92,177.57a.5.5,0,0,0,.05-.13h0a.94.94,0,0,0-.26-.92.91.91,0,0,0-.22-.13.84.84,0,0,0-1.29.28c-.45.87.64,2,1.46,1.28a.83.83,0,0,0,.22-.28.05.05,0,0,0,0,0A.08.08,0,0,0,212.92,177.57Z"/><path class="cls-10" d="M177.49,177.72a.5.5,0,0,0,0-.13h0a.93.93,0,0,0-.26-.92.69.69,0,0,0-.22-.14.86.86,0,0,0-1.29.28c-.45.87.65,2,1.47,1.29a.86.86,0,0,0,.21-.29l0,0A.14.14,0,0,0,177.49,177.72Z"/><path class="cls-10" d="M213.38,172.08a.68.68,0,0,0-.85.27.43.43,0,0,0-.06.36.64.64,0,1,0,.91-.63Z"/><path class="cls-10" d="M182,158.66a.69.69,0,0,0-.85.27.39.39,0,0,0-.05.36.64.64,0,1,0,.9-.63Z"/><path class="cls-10" d="M158.32,175a.69.69,0,0,0-.85.27.39.39,0,0,0-.05.36.64.64,0,0,0,1.23.21A.65.65,0,0,0,158.32,175Z"/><path class="cls-4" d="M285.57,364.53H238s23.56-27.5,33.23-50.46a48.41,48.41,0,0,0,4-14.55c.55-7.23,1.29-15.25,1.12-23.36h0c-.34-16.72-4.58-33.79-22.56-44.86a60.29,60.29,0,0,0-5.78-3.12c-18.16-8.57-32.46,4-35.79,6.64-.77.62-1.93,1.56-3.38,2.58-4.76,3.4-12.54,7.8-19.22,5.19-1.7-.67,4.8.37,9.53-2s14.47-11.67,20.53-14c0,0-20.71,3-32.65-16.1.78,1,13.43,18,35.31,13.15,6.65-1.48,17.73-2.51,25.11.15,0,0,2.37-16.1-28.5-30.58S186.24,162,187,160.36c.64-1.35,4,7,9.35,13.64a30.46,30.46,0,0,0,3.54,3.79c4.69,4.21,13.14,8.08,21.75,12.47,10.47,5.34,21.14,11.45,25.52,19.89,0,0-.26-6.72,0-14.92v0c.08-2.6.22-5.37.43-8.11.58-7.39-4.29-24.16-16.55-34h0c-6.61-5.32-15.37-8.65-26.57-7.46-4.14.45-1.63-2.35,5.91-3s15.51,2.81,15.51,2.81a30.52,30.52,0,0,1-3.08-4.28v0a28.9,28.9,0,0,1-4.3-12.39,29.36,29.36,0,0,0-3.26-11c-1.47-2.92-2.81-4.82-2.5-5.57.59-1.48,5.32,1.77,7.38,11.52,0,0,3.26-10.34,5-13.73s-1.62-11.24,0-11.53,4.88,6.5,0,19.21-.29,21.27,5.32,26.15,17.24,18.35,20.2,31.5c0,0,.83-8.26,2.25-24.12,1-11.62,8.13-21,9.9-20.24s-6.79,10.93-7.24,21.86c-.14,3.53,0,7.15.14,10.74.33,7.54.82,14.94-.64,21.09a50.56,50.56,0,0,0-1.29,12.91,51.18,51.18,0,0,0,.92,8.41c1.32,6.9,4,13,7.52,17,4.18,4.8,13.18,11.53,19.87,22.51a55.91,55.91,0,0,1,8.2,28C291.19,302.78,278.19,352.41,285.57,364.53Z"/><path class="cls-9" d="M287.8,268.78c-1-7.36-5.34-15-9.13-21.36a.13.13,0,0,0-.23.13c6.88,12.29,7.65,26.87,6.34,40.61-1.44,15-6.83,29.68-7.84,44.78-.54,8.1,1.17,16.51,3.41,24.36a.38.38,0,0,0,.74-.2c-3.19-15.29-1.26-30.51,1.37-45.72C284.91,297.21,289.74,283.19,287.8,268.78Z"/><path class="cls-9" d="M273.51,318.73c-3.18,8.3-7.4,16.11-11.49,24-2.1,4-4.1,8.15-5.95,12.33-1.39,3.12-2.63,6.32-4,9.47h-5.38c2.93-8.57,8.56-15.94,13.65-23.36a129.66,129.66,0,0,0,8.47-14c2.61-5.09,4.56-10.38,6.69-15.67.09-.2.4-.13.35.09a62.59,62.59,0,0,1-2.41,7.15S273.52,318.71,273.51,318.73Z"/><path class="cls-9" d="M275.8,324.53q-1.16,4.59-2.47,9.1c-.06.25-.11.49-.17.75A75.59,75.59,0,0,0,271.83,345a72.34,72.34,0,0,0,.15,10.2c.24,3,.89,6.26.71,9.34H263c.49-6.83,3.23-13.29,5.7-19.62,1.23-3.17,2.43-6.35,3.48-9.59.29-.88.57-1.75.84-2.64.43-1.75.91-3.49,1.47-5.21a8.86,8.86,0,0,1,.82-2.4c.08-.21.15-.41.22-.62S275.85,324.34,275.8,324.53Z"/><path class="cls-9" d="M281.13,280.58a.22.22,0,0,1-.43,0,82.31,82.31,0,0,0-2.27-16.39,72.29,72.29,0,0,0-5.68-14.91c-4.46-8.54-11.19-16.92-19.45-22.06,0,0,0,0,0,0A46.58,46.58,0,0,1,263.75,235a35.67,35.67,0,0,1,14.57,22.06c.55,2.64,1,5.38,1.29,8.1A67.71,67.71,0,0,1,281.13,280.58Z"/><path class="cls-9" d="M278.24,301.17c-1.18,5-4.1,8.86-7,12.9a48.41,48.41,0,0,0,4-14.55c.55-7.23,1.29-15.25,1.12-23.36C278.15,284.45,280.23,292.74,278.24,301.17Z"/><path class="cls-9" d="M282.1,245.51a80.83,80.83,0,0,0-5.8-5.91c-4-3.63-8.68-6.42-12.45-10.29A32.26,32.26,0,0,1,254.71,206c1.32,6.9,4,13,7.52,17C266.41,227.8,275.41,234.53,282.1,245.51Z"/><path class="cls-9" d="M221.64,190.26c-4-1-8.09-1.93-11.83-3.74s-6.74-4.79-9.61-7.82a35.75,35.75,0,0,1-3.85-4.7,30.46,30.46,0,0,0,3.54,3.79C204.58,182,213,185.87,221.64,190.26Z"/><path class="cls-9" d="M247.6,187.1c.58-7.39-4.29-24.16-16.55-34a34.35,34.35,0,0,1,9.29,8.17,41.77,41.77,0,0,1,6.73,10.25c3.26,7.67,1.52,15.82.1,23.74C247.25,192.61,247.39,189.84,247.6,187.1Z"/><path class="cls-9" d="M253.79,231.29a60.29,60.29,0,0,0-5.78-3.12c-18.16-8.57-32.46,4-35.79,6.64-.77.62-1.93,1.56-3.38,2.58a39.31,39.31,0,0,1,22-13.56,21.64,21.64,0,0,1,13.53,1A27.68,27.68,0,0,1,253.79,231.29Z"/><path class="cls-9" d="M241,205c-4.54-6.36-12.17-10-19.27-12.67-.06,0-.09.06,0,.09,6.72,3.86,13.45,7.26,18.93,12.88C240.83,205.45,241.19,205.19,241,205Z"/><path class="cls-9" d="M260,228.25c-2.8-3.88-5.76-8.08-6.8-12.82-1.14-5.16-1-10.42-1.45-15.65a.17.17,0,0,0-.33,0,65.4,65.4,0,0,0-.14,8.63,37.83,37.83,0,0,0,.75,7.66c1.17,5,4.24,8.7,7.58,12.48C259.79,228.76,260.16,228.48,260,228.25Z"/><path class="cls-9" d="M255.08,184.65a50.56,50.56,0,0,0-1.29,12.91.24.24,0,0,1-.06-.08c-2.15-6.72-1.3-14.22-.06-21q1.17-6.43,2.05-12.91C256.05,171.1,256.54,178.5,255.08,184.65Z"/><path class="cls-9" d="M242.65,160.36a52.13,52.13,0,0,0-7.75-9.09c-3-3-6.17-5.9-8.2-9.64-.09-.18-.36,0-.27.15a39.11,39.11,0,0,0,7.14,9.75c2.93,3,6.12,5.81,8.73,9.1C242.46,160.82,242.79,160.57,242.65,160.36Z"/><path class="cls-9" d="M222.8,141.14a28.9,28.9,0,0,1-4.3-12.39,29.36,29.36,0,0,0-3.26-11,28.52,28.52,0,0,1,4.59,8.79,30.13,30.13,0,0,1,.8,6.77A22.8,22.8,0,0,0,222.8,141.14Z"/><path class="cls-10" d="M408,218.07c-1.14.58-2.55.26-3.76.17-1.63-.12-3.26-.19-4.89-.23a192.44,192.44,0,0,0-20.22.93c-6.73.57-13.47,1.22-20.23,1.37a83.59,83.59,0,0,1-10-.22c-2-.2-3.93-.89-4.77-2.74a.28.28,0,0,1-.33-.28,10,10,0,0,1,2.66-6.73,11.07,11.07,0,0,1,2.87-2.27,9.79,9.79,0,0,1,1.73-.74,10.06,10.06,0,0,0,1.8-.39c.67-.41,1.07-2.29,1.47-3.06a26,26,0,0,1,8-9.3c7.75-5.46,18.46-5.44,25.82.77a18.59,18.59,0,0,1,2.74,2.87c.29.39.52.84.84,1.2s.64.43,1.31.41a18,18,0,0,1,7.93,1.52,14.49,14.49,0,0,1,8.59,11.51C409.79,214.58,409.82,217.14,408,218.07Z"/><path class="cls-7" d="M405,222c-2.62.93-5.55.38-8.13-.43-1.86-.59-3.35-1.45-5.25-.54q-2,1-4.05,1.77a60.48,60.48,0,0,1-17.19,3.92,56.94,56.94,0,0,1-17.7-1.31c-3.92-1-8.33-3.48-8.8-7.61a3.75,3.75,0,0,1-.11-.67c-.23-2.5,2-4.27,4.05-5.19a20.35,20.35,0,0,1,4.32-1.32,23,23,0,0,1,2.49-.37c.64-.07,2,.11,2.56-.22s.74-1.14,1.07-1.62a15.92,15.92,0,0,1,1.1-1.46,17.1,17.1,0,0,1,3-2.74c9.13-6.64,20.8-4,30.06.86,2.89,1.52,5.68,3.93,9,4.2a10.22,10.22,0,0,1,6.79,3C411.43,215.64,409.06,220.51,405,222Z"/><path class="cls-10" d="M349.37,213.54a1.44,1.44,0,0,0-1.08.94,1.28,1.28,0,0,0-.09.76s0,0,0,0a1,1,0,0,0,0,.28,1.46,1.46,0,0,0,2.63.33A1.55,1.55,0,0,0,349.37,213.54Z"/><path class="cls-10" d="M380.57,216.42a1.42,1.42,0,0,0-1.07,1,1.17,1.17,0,0,0-.1.75l0,0a.92.92,0,0,0,.05.28,1.46,1.46,0,0,0,2.63.33A1.55,1.55,0,0,0,380.57,216.42Z"/><path class="cls-10" d="M407.06,217.84a.49.49,0,0,0,0-.11h0a.81.81,0,0,0-.22-.79.88.88,0,0,0-.19-.12.74.74,0,0,0-1.11.24c-.39.75.55,1.74,1.26,1.11a.92.92,0,0,0,.19-.25v0S407.05,217.85,407.06,217.84Z"/><path class="cls-10" d="M373,203s0-.07,0-.11h0a.79.79,0,0,0-.23-.79.57.57,0,0,0-.18-.12.74.74,0,0,0-1.11.24c-.39.75.55,1.74,1.25,1.11A.92.92,0,0,0,373,203l0,0S373,203,373,203Z"/><path class="cls-10" d="M355.67,213.57a.59.59,0,0,0-.73.23.35.35,0,0,0-.05.31.55.55,0,0,0,1.06.18A.56.56,0,0,0,355.67,213.57Z"/><path class="cls-10" d="M403.49,219a.59.59,0,0,0-.73.23.35.35,0,0,0,0,.31.55.55,0,1,0,.77-.54Z"/><path class="cls-10" d="M428.81,152.36c-4.92,2.18-10.73,2.15-16,2.54-23.75,1.76-47.58,1.93-71.35,3.32-11.9.7-23.79,1.71-35.6,3.39-5.56.78-11.43,2.38-17.05,1.38-3.94-.69-7.73-3-9.34-6.71-.06.19-.12.37-.17.56s-.24.09-.21,0c.08-.29.15-.58.22-.88a0,0,0,0,0,0,0,.36.36,0,0,1,.13-.43,92.86,92.86,0,0,1,4.17-13.37c2.93-7,7.63-13.71,14.61-17.18s15-3.1,22.37-1.34a62.57,62.57,0,0,1,1.93-6.61c3.37-9.36,9.45-18,18.37-22.74a30.16,30.16,0,0,1,13.72-3.69c21.78-.19,29.52,16.36,30.35,18.48.71,1.83,2.83.9,4.26.67s2.62-.36,3.94-.45a41.81,41.81,0,0,1,29.07,9.29,42.26,42.26,0,0,1,9.21,10.6c2.36,3.89,4.82,8.71,4.77,13.37S432.81,150.59,428.81,152.36Z"/><path class="cls-7" d="M437.52,144.72c-1,7.34-5.88,14.84-12.81,17.81a34.91,34.91,0,0,1-11.12,2.3,118.82,118.82,0,0,1-27.12-1.06c-4.48-.71-8.88-2-13.38-2.57s-9.12.62-13.58,1.8a44.84,44.84,0,0,0-11.28,4.21,2.56,2.56,0,0,0,2.66.11.4.4,0,0,1,.59.25c5.76-2,12.43-2.92,17.11,1.42a12.18,12.18,0,0,1,1.59,15.44c-3.38,4.77-9.7,5.58-15.1,5.1a46.85,46.85,0,0,1-5.14-.77c-1.68-.35-3.46-1-5.19-.85s-3.25,1.51-5,2.07a7.56,7.56,0,0,1-4.37.05c-3.39-.9-5.89-3.34-8.67-5.33a12.89,12.89,0,0,0-5.78-2.49,24.52,24.52,0,0,0-6.23.28,27.63,27.63,0,0,1-11.09-.47,44,44,0,0,1-10.83-5c-5.52-3.33-12-7.08-13.43-13.91a21.88,21.88,0,0,1,.78-10.43,25.32,25.32,0,0,1,4.54-9.18,24.55,24.55,0,0,1,16.34-8.38c7.57-.81,15.1,1.52,21.7,5.1a9.74,9.74,0,0,1,1.38-3.86c4-6.49,12.17-7,19-6,1.16.17,2.3.45,3.46.6,1,.13,1.41-.45,2.17-1a43.93,43.93,0,0,1,4.35-3.09,47.94,47.94,0,0,1,9.17-4.45,50.42,50.42,0,0,1,20.3-2.84,47.49,47.49,0,0,1,10.3,1.85c3.69,1.1,7,3,10.63,4.28a14,14,0,0,0,7.17.61,44.69,44.69,0,0,1,6.22-.71,24,24,0,0,1,11.82,2.64C434.69,131.47,438.51,137.82,437.52,144.72Z"/><path class="cls-10" d="M424.3,147a1.45,1.45,0,0,0,1.08-.95,1.24,1.24,0,0,0,.09-.75l0-.05a.92.92,0,0,0-.05-.28,1.46,1.46,0,0,0-2.63-.33A1.55,1.55,0,0,0,424.3,147Z"/><path class="cls-10" d="M301.88,150.5a1.46,1.46,0,0,0,1.08-.94,1.28,1.28,0,0,0,.09-.76s0,0,0-.05a.92.92,0,0,0,0-.28,1.46,1.46,0,0,0-2.63-.33A1.55,1.55,0,0,0,301.88,150.5Z"/><path class="cls-10" d="M375.35,157.92a1.42,1.42,0,0,0,1.08-.94,1.27,1.27,0,0,0,.09-.76s0,0,0-.05a1,1,0,0,0-.05-.28,1.46,1.46,0,0,0-2.63-.33A1.55,1.55,0,0,0,375.35,157.92Z"/><path class="cls-10" d="M419.16,142.68a.25.25,0,0,0,0,.11h0a.81.81,0,0,0,.23.79.88.88,0,0,0,.19.12.73.73,0,0,0,1.1-.24c.39-.75-.55-1.74-1.25-1.11a.92.92,0,0,0-.19.25l0,0S419.16,142.67,419.16,142.68Z"/><path class="cls-10" d="M315.63,175s0,.07,0,.12h0a.79.79,0,0,0,.23.79.57.57,0,0,0,.18.12.74.74,0,0,0,1.11-.24c.39-.75-.55-1.74-1.26-1.11a.88.88,0,0,0-.18.25l0,0S315.64,174.94,315.63,175Z"/><path class="cls-10" d="M418.77,147.4a.58.58,0,0,0,.73-.24.34.34,0,0,0,0-.31.55.55,0,1,0-.77.55Z"/><path class="cls-10" d="M366.26,174.94a.58.58,0,0,0,.73-.24.34.34,0,0,0,0-.31.55.55,0,1,0-.77.55Z"/><path class="cls-10" d="M360.36,128.56a.59.59,0,0,0,.73-.23.35.35,0,0,0,.05-.31.55.55,0,0,0-1.06-.18A.54.54,0,0,0,360.36,128.56Z"/><path class="cls-10" d="M310.28,176.35a.59.59,0,0,0,.73-.24.35.35,0,0,0,0-.31.55.55,0,0,0-1.06-.17A.56.56,0,0,0,310.28,176.35Z"/><path class="cls-4" d="M407.05,150.59c-1.38,4-7.78,19-28.19,20.77-9.86.83-20.05,2.67-28.86,6.58-9.41,4.18-17.25,10.71-21.45,20.89-2.57,6.24-3.62,13.9-4.06,22.09h0c-.17,3-.25,6.08-.29,9.18,6.77-5.66,19-11.61,29.2-13.39,12.79-2.26,17.29-9.52,18.85-10.9s4.15-1.73,4.32,0c.16,1.56-6.7,10.54-19.61,15h0a44,44,0,0,1-4.5,1.28c-11.53,2.65-22.61,12-28.3,17.49v2.52c0,8.7-.23,17.19-1.52,24.51a49.19,49.19,0,0,1-1.43,6.08c-.59,1.93-1.22,3.87-1.87,5.81-6.19,18.46-14.45,37.33-14.21,50.47.14,7.44,2.47,13.43,4.9,19.17,2.31,5.45,4.72,10.68,5.39,16.71h-45s14.18-3.81,15.91-12.11-3.46-21.09,2.42-38c2.46-7.08,6.42-14.7,10.27-22.73v0c5.38-11.2,10.56-23.22,11.16-35.7.53-10.82-1.06-23.56-.1-36.48a66.8,66.8,0,0,1,5.34-22.7,52,52,0,0,0-.25-6.68A49.19,49.19,0,0,0,307,167.46a12.5,12.5,0,0,0-1.49-1.8c-2.25-2.07-4.15-7.56.52-3.76,8.65,7,12.18,20.59,13.48,27.77a55.2,55.2,0,0,1,5.25-6.75c20.74-22.82,42.19-30.26,45.13-44.09s2.94-15.91,4-16.43,2.08,11.58-1.38,19.19c.32-.29,11.11-10.24,23-8.81,2.55.3-3.51,1.57-10.65,4.87-5,2.29-10.43,5.57-13.91,10.17-3.86,5.13-9.52,10.07-15,14.5-6.57,5.3-12.93,9.87-15.75,13.17A73,73,0,0,1,354,169.91h0A83,83,0,0,1,367.8,167c11.69-1.42,23.71-1.07,31.8-11.13h0a35.08,35.08,0,0,0,5.73-11C406.36,141.77,408.44,146.61,407.05,150.59Z"/><path class="cls-9" d="M291,343.14c-.76-7.28-2.26-14.3-1.27-21.63,0-.21-.32-.25-.37-.05-1.62,6.48-.42,13.48.35,20a61.43,61.43,0,0,1,.5,10.05c-.17,3.39-.6,7.72-3.07,10.28a.13.13,0,0,0,.19.19c2.37-2.12,3.27-5.41,3.71-8.45A41.92,41.92,0,0,0,291,343.14Z"/><path class="cls-9" d="M305.23,364.83H297.3a46.47,46.47,0,0,0-.78-13c-.95-4.39-2.25-8.66-2.9-13.12a68.65,68.65,0,0,1-.7-12.65c.33-8.17,2.05-17,6.11-24.23a.24.24,0,0,1,.44.06.23.23,0,0,1,0,.24A72.62,72.62,0,0,0,296,317.46a65.29,65.29,0,0,0-.13,13.55,44.82,44.82,0,0,0,3.7,13.66C302.28,351,305.78,357.82,305.23,364.83Z"/><path class="cls-9" d="M305.12,329c.14,7.44,2.47,13.43,4.9,19.17-3.23-4.71-6.26-9.68-7.57-15.28-2.72-11.62,2.41-23.45,6.94-33.91,3-6.94,6.31-13.79,9.94-20.45C313.14,296.94,304.88,315.81,305.12,329Z"/><path class="cls-9" d="M312.43,265.75c-1.73,5.37-4.57,10.31-7.27,15.22-2,3.67-4,7.33-6.1,11,5.38-11.2,10.56-23.22,11.16-35.7.53-10.82-1.06-23.56-.1-36.48.46,4,1.15,7.88,1.85,11.8C314,242.79,316,254.62,312.43,265.75Z"/><path class="cls-9" d="M317.05,273.89a47.88,47.88,0,0,1-8.58,11.58,36.71,36.71,0,0,0-3.81,7.72c0,.07-.14,0-.12,0,2-7.73,7.63-13.67,10.76-20.88a43.81,43.81,0,0,0,2.55-25.47c-.06-.31.44-.45.48-.13C320.53,262.78,319,269.79,317.05,273.89Z"/><path class="cls-9" d="M367.57,211.84a34,34,0,0,1-8.39,5.07A93.16,93.16,0,0,1,348.71,220c-.13,0-.07.2.05.18a47.34,47.34,0,0,0,11.53-2.65c2.8-1.15,5.86-2.82,7.66-5.33C368.11,212,367.79,211.67,367.57,211.84Z"/><path class="cls-9" d="M357,220.79a44,44,0,0,1-4.5,1.28c-11.53,2.65-22.61,12-28.3,17.49v.52a.39.39,0,0,1-.11-.32.17.17,0,0,1,0-.17c4.4-6.14,9.56-12.38,16.68-15.42,4.16-1.78,8.81-2.32,13.26-3Z"/><path class="cls-9" d="M350,177.94c-9.41,4.18-17.25,10.71-21.45,20.89-2.57,6.24-3.62,13.9-4.06,22.09a47.51,47.51,0,0,1-.5-14.33c1-7.82,4.36-15.47,10.29-20.79a32.31,32.31,0,0,1,10.47-6C346.45,179.13,348.21,178.48,350,177.94Z"/><path class="cls-9" d="M320.71,241.71a.14.14,0,0,1-.27,0c-1.4-7.27-3.66-14.35-4.39-21.75-.68-6.89.12-14.37,3.29-20.62a.19.19,0,0,1,.35.15c-.48,1.39-.94,2.77-1.34,4.15a39.91,39.91,0,0,0-.35,6.66c.14,2.72.54,5.43.92,8.13a59.21,59.21,0,0,1,.52,15.56c0-.18-.06-.36-.1-.54a5.25,5.25,0,0,1,0,.56.07.07,0,0,0,.13,0v0C319.93,236.58,320.39,239.13,320.71,241.71Z"/><path class="cls-9" d="M319.44,234v0a.07.07,0,0,1-.13,0,5.25,5.25,0,0,0,0-.56C319.38,233.67,319.41,233.85,319.44,234Z"/><path class="cls-9" d="M315.21,190.38A49.19,49.19,0,0,0,307,167.46a29.12,29.12,0,0,1,7.26,12.5A30.38,30.38,0,0,1,315.21,190.38Z"/><path class="cls-9" d="M345.52,177c-8.54,2.33-17.64,6.69-20.55,15.69,0,.11.13.14.17,0,1.62-3.94,5-7.08,8.46-9.4,3.79-2.5,8-4,12.09-5.94C345.91,177.25,345.75,176.89,345.52,177Z"/><path class="cls-9" d="M354.7,158.48c-3.34,2.79-6.24,6-9.77,8.57-3,2.16-6.1,3.86-8.28,6.91-.14.2.18.45.34.26,2.57-3,6.39-4.61,9.46-7a50.52,50.52,0,0,0,8.53-8.45A.2.2,0,0,0,354.7,158.48Z"/><path class="cls-9" d="M399.6,155.89c-.61.9-1.27,1.78-1.94,2.65a22.14,22.14,0,0,1-3.93,4.27,22.76,22.76,0,0,1-4.88,2.64,44,44,0,0,1-11.7,3.16c-7.7,1-15.45.42-23.15,1.3A83,83,0,0,1,367.8,167C379.49,165.6,391.51,166,399.6,155.89Z"/><path class="cls-9" d="M384.82,137.65c-5,2.29-10.43,5.57-13.91,10.17-3.86,5.13-9.52,10.07-15,14.5C364.2,153.28,372.05,140.06,384.82,137.65Z"/><path class="cls-6" d="M229,461.71h-.21V460.5H229c2,0,4.15-.05,6.23-.15l.06,1.21C233.18,461.66,231.06,461.71,229,461.71Zm-8.36-.26c-2.16-.13-4.35-.32-6.49-.56l.13-1.21c2.13.24,4.3.42,6.44.56Zm22.78-.51-.13-1.21c2.13-.23,4.28-.51,6.4-.84l.19,1.2C247.72,460.42,245.55,460.71,243.4,460.94Zm-37.34-1.2c-2.11-.37-4.26-.79-6.39-1.27l.27-1.19c2.11.48,4.24.9,6.33,1.26Zm51.81-1.15-.26-1.18c2.1-.46,4.21-1,6.29-1.51l.31,1.17C262.12,457.62,260,458.14,257.87,458.59Zm-66.09-2.14c-2.07-.59-4.17-1.25-6.22-1.94l.39-1.15c2,.69,4.11,1.34,6.16,1.93ZM272,454.77l-.38-1.16c2-.65,4.07-1.37,6.11-2.13l.42,1.14C276.12,453.39,274.05,454.11,272,454.77Zm-94.1-3.1c-2-.82-4-1.69-6-2.59l.51-1.11c2,.9,4,1.77,5.93,2.57Zm107.8-2.1-.48-1.11c2-.86,3.93-1.78,5.82-2.74l.55,1.08C289.7,447.78,287.71,448.71,285.72,449.57Zm-121.08-4.12c-1.92-1-3.83-2.1-5.68-3.2l.62-1c1.83,1.09,3.73,2.15,5.64,3.17Zm134.09-2.58-.63-1c1.84-1.11,3.67-2.28,5.44-3.5l.68,1C302.43,440.56,300.58,441.75,298.73,442.87Zm-146.65-5c-1.81-1.22-3.6-2.49-5.32-3.77l.73-1c1.7,1.27,3.48,2.53,5.27,3.74Zm158.69-3.39-.75-.95c1.68-1.33,3.34-2.72,5-4.14l.8.91C314.15,431.76,312.47,433.17,310.77,434.51Zm-170.4-5.44c-1.67-1.4-3.31-2.85-4.89-4.31l.82-.89c1.57,1.45,3.2,2.89,4.85,4.27Zm181.35-4.29-.86-.86c1.49-1.48,3-3.05,4.48-4.65l.89.82C324.74,421.71,323.22,423.29,321.72,424.78ZM331.59,414l-.93-.78c1.36-1.64,2.72-3.33,4-5.05l1,.75C334.33,410.61,333,412.32,331.59,414Zm8.92-11.61-1-.71c1.24-1.74,2.47-3.52,3.67-5.32l1,.68Q342.39,399.73,340.51,402.36Zm8.12-12.18-1-.65c1.14-1.81,2.27-3.66,3.38-5.52l1,.63C350.9,386.51,349.77,388.35,348.63,390.18Zm7.49-12.56-1.05-.6q1.59-2.81,3.17-5.66l1.06.59Q357.73,374.82,356.12,377.62Zm7.05-12.82-1.07-.57q1.51-2.85,3-5.74l1.08.56Q364.69,361.95,363.17,364.8Zm6.74-13-1.08-.55c1-1.92,1.95-3.85,2.93-5.79l1.08.55Q371.39,349,369.91,351.83Zm6.57-13.05-1.08-.54,2.9-5.81,1.08.54ZM383,325.72l-1.09-.55,2.92-5.8,1.09.55C385,321.85,384,323.79,383,325.72Zm6.6-13-1.08-.55,3-5.77,1.08.57Q391.11,309.81,389.62,312.69Zm6.79-12.92-1.07-.57q1.53-2.85,3.09-5.69l1.07.58C398.45,296,397.43,297.88,396.41,299.77Zm7-12.73-1.05-.6q1.61-2.81,3.25-5.6l1.05.61C405.59,283.31,404.51,285.18,403.44,287Zm7.41-12.51-1-.63q1.69-2.76,3.44-5.49l1,.65Q412.54,271.79,410.85,274.53Zm7.86-12.22-1-.68c1.21-1.79,2.43-3.58,3.68-5.36l1,.7Q420.51,259.63,418.71,262.31Zm8.41-11.9-1-.73c1.29-1.73,2.61-3.46,3.94-5.17l1,.75Q429,247.81,427.12,250.41Zm9-11.45-.93-.77q2.07-2.5,4.22-4.95l.91.8C438.89,235.66,437.49,237.31,436.11,239Zm9.64-10.91-.89-.83q2.22-2.35,4.52-4.67l.86.85Q448,225.71,445.75,228.05Zm10.3-10.27-.83-.89c1.58-1.48,3.18-2.93,4.82-4.37l.8.92C459.21,214.86,457.62,216.31,456.05,217.78Zm11-9.56-.77-.94c1.69-1.38,3.41-2.73,5.11-4l.74,1C470.4,205.51,468.69,206.85,467,208.22Zm11.6-8.76-.69-1c1.76-1.23,3.57-2.46,5.38-3.64l.67,1C482.17,197,480.36,198.23,478.61,199.46Zm12.2-7.91-.62-1.05c1.86-1.11,3.76-2.2,5.64-3.25l.59,1.06C494.55,189.35,492.66,190.44,490.81,191.55Z"/><path class="cls-6" d="M503.88,184.35l-.55-1.08,2.92-1.45.53,1.1C505.8,183.39,504.84,183.87,503.88,184.35Z"/><polygon class="cls-5" points="488.74 173.13 479.86 197.51 498.5 182.96 569.74 157.12 488.74 173.13"/><polygon class="cls-11" points="488.74 173.13 479.86 197.51 498.5 182.96 569.74 157.12 488.74 173.13"/><polygon class="cls-6" points="500.89 188.64 479.86 197.51 498.5 182.96 500.89 188.64"/><polygon class="cls-5" points="498.5 182.96 569.74 157.12 511.3 214.15 498.5 182.96"/><polygon class="cls-5" points="488.74 173.13 459.13 154.01 569.74 157.12 488.74 173.13"/><path class="cls-3" d="M301.32,333.57c-1.16,2-119,23.8-124.9,23a4.14,4.14,0,0,1-.83-.22c-7.43-2.3-43.9-27.5-46.67-29.65-6.84-5.31,11.92-52,18.82-60.2,4.58-5.47,14.06-8.69,14.06-8.69s16.45-83.09,31.07-102c3.67-4.75,77-16.61,91-12.44,6,1.78,21.61,13.86,22.33,16.31v0C307,163.24,302.48,331.55,301.32,333.57Z"/><path class="cls-6" d="M301.32,333.57c-1.16,2-119,23.8-124.9,23a4.14,4.14,0,0,1-.83-.22c7.09-32.31,40.46-183.92,41.85-185.06s71.73-10.49,88.73-11.62C307,163.24,302.48,331.55,301.32,333.57Z"/><path class="cls-3" d="M232.26,156.22c-1.35-1-4.37-17-2.64-20.47,1.95-3.94,30.4-6.08,32.49-3.25s5.12,18.83,4.35,19.53-5.39,1.91-6.17,1-2.59-14.26-3.19-14.9-20.52.83-21.06,1.94,3,14.35,2.28,15.05S233.56,157.14,232.26,156.22Z"/><path class="cls-12" d="M285.33,177c20.53,45.81,70.15,122,92.36,103.12,33.21-28.21,55.66-90.58,64.57-115.79,5-14.13-67-37.78-71.39-24.95-6.27,18.24-16.11,56.33-21.81,61.72-3,2.84-26.54-30.26-44.4-46C278.92,132.5,278.77,162.34,285.33,177Z"/><path class="cls-12" d="M460.24,143.07c-6.41,14.42-31.06,38.78-39.26,42.37s-51.49-35.55-50.58-44.7,26.73-57.41,41-64.81S466.89,128.13,460.24,143.07Z"/><path class="cls-12" d="M373.78,130.61s1-20.5-4.14-37.83c-4.34-14.57-12.45-35.72-4.7-38.35C380.85,49,401,101.77,401,101.77s5.17,24.7-10.12,31.45C381.34,137.45,373.78,130.61,373.78,130.61Z"/><path class="cls-12" d="M391.72,91.73c1,8.3,10.22,2.31,10.22,2.31s-11.13,11.8-6.75,19.94c4.25,7.83,15.08.21,15.87-.33-.59.63-10.53,11.74-5.28,19.46,5.46,8,15-1.5,15.63-2.11-.36.76-5,11,.31,15.95,9.15,8.51,21.76-17.3,31.46-20.18,0,0,6.77,15.88,7.06,16.3,0,0,12.5-24.31,7.88-37.18a8.72,8.72,0,0,0-9.24-5.85s4.9-7.4.95-13.61c-2-3.18-8.93-2.76-8.93-2.76s3.68-6.08-.17-11.39c-3.06-4.24-9.51-3.16-9.51-3.16s.82-7.48-3.71-10.8C428.38,51.6,389.49,74,391.72,91.73Z"/><path class="cls-6" d="M440.18,69.13a.12.12,0,0,0-.08-.22c-14.58,4.23-29.3,13.35-38.69,25.4-.31.4.2,1.07.63.7C414.08,84.44,425.62,76,440.18,69.13Z"/><path class="cls-6" d="M451.05,83.48c.16-.07,0-.34-.14-.28-15,4.44-31.3,15.17-40.48,30.33-.32.52-.08,1.31.33.74C417.63,104.64,437.91,89.61,451.05,83.48Z"/><path class="cls-6" d="M421.14,132.28c9.36-14.21,22.34-24,37.11-32.1.19-.11,0-.37-.16-.32-8.31,2-17.19,8.16-23.69,13.53A44.88,44.88,0,0,0,420.64,132C420.53,132.24,420.94,132.58,421.14,132.28Z"/><path class="cls-6" d="M401.66,94c-.37.48.73.49.38,1-1.49,2-9.39,15.13-5.77,19.21,2.91,3.26,9.31,1.61,11.52,0l5.55-4-3.82,5.71a28,28,0,0,0-3.84,8.23c-.77,2.88-.77,5.94.75,8.17a5.72,5.72,0,0,0,6.73,2.59,17.37,17.37,0,0,0,7.24-4.81l5.62-5.86-3.38,7.34a26.5,26.5,0,0,0-2,6.42,10.9,10.9,0,0,0,.48,6.25,5.16,5.16,0,0,0,4.48,3.08c2,0,4.06-1.12,5.93-2.39,3.79-2.63,7.07-6.11,10.49-9.39,1.7-1.67,3.4-3.34,5.19-4.93s3.68-3.18,6-3.85c-2.21.9-3.86,2.69-5.54,4.33s-3.2,3.49-4.77,5.27a75.51,75.51,0,0,1-10.22,10.16c-2,1.43-4.15,2.91-7,3.09a7.31,7.31,0,0,1-6.79-4.29,13.35,13.35,0,0,1-.8-7.74,28.81,28.81,0,0,1,2.14-7.18l2.24,1.49a20.07,20.07,0,0,1-8.49,5.77,8.35,8.35,0,0,1-5.61-.21,9.3,9.3,0,0,1-4.2-3.64c-2.08-3.22-1.87-7.15-1-10.34a30.24,30.24,0,0,1,4.37-9l1.73,1.69c-2.88,1.93-9.83,4.55-15,.07C388.45,109.39,399.47,96.29,401.66,94Z"/><path class="cls-6" d="M401.94,94a16.92,16.92,0,0,1-5,1.18,3.9,3.9,0,0,1-3.58-1.64,7.91,7.91,0,0,1-.82-4.42c.1-1.68.28-3.44.54-5.26a13.43,13.43,0,0,0-2.35,5,7.84,7.84,0,0,0,.67,6,5.55,5.55,0,0,0,2.63,2,5.76,5.76,0,0,0,3.15.12A9,9,0,0,0,401.94,94Z"/><path class="cls-5" d="M366.49,140.74l74.92,52.17S396.66,285.63,369,285.38s-67.59-69.7-81.43-99.71S282,130.22,309.89,157.6c28,27.54,37.85,38.6,38.75,38.24C350.4,195.12,366.49,140.74,366.49,140.74Z"/><path class="cls-5" d="M441.41,192.91s-31,64.3-57.39,85.66c-5.28,4.29-10.38,6.85-15,6.8-27.66-.24-67.61-69.69-81.44-99.7-8.57-18.58-8.65-35.41-.86-39,4.79-2.24,12.57.51,23.18,10.95,28,27.54,37.85,38.6,38.75,38.23,1.75-.71,17.86-55.08,17.86-55.08Z"/><path class="cls-6" d="M423.69,199.64c-2-1.63-4-3.23-6-4.82q-6.1-4.84-12.25-9.64c-8.14-6.35-16.44-12.47-24.82-18.5-4.75-3.42-9.42-7-14.32-10.25a.23.23,0,0,0-.27.36c3.9,3.43,8.06,6.57,12.1,9.83s8.05,6.56,12.16,9.75Q402.53,185.88,415,195c2.33,1.71,4.62,3.52,7,5.13,1.23.82,2.4,1.74,3.65,2.55s2.56,1.52,3.79,2.37a.13.13,0,0,0,.15-.2C427.62,203.16,425.73,201.33,423.69,199.64Z"/><path class="cls-6" d="M349.28,194.14a188.74,188.74,0,0,0-7,23.64c-1,4-1.74,8-2.5,12a89.88,89.88,0,0,0-1.59,12c0,.15.21.15.25,0,1.23-3.85,2.15-7.87,3.05-11.82s1.88-7.93,2.78-11.9c1.78-8,3.88-15.85,5.43-23.85A.2.2,0,0,0,349.28,194.14Z"/><path class="cls-13" d="M384,278.57c-5.28,4.29-10.38,6.85-15,6.8-27.66-.24-67.61-69.69-81.44-99.7-8.57-18.58-8.65-35.41-.86-39Z"/><path class="cls-5" d="M170.62,365l187.94,0c-1.25-8.78-38.91-184.67-54.89-211.49-7.6-12.76-38.78-21.14-59.73-.91C203.9,191.25,169.09,363.21,170.62,365Z"/><path class="cls-6" d="M335.2,255.24c-.5-2.41-1-4.81-1.56-7.2-1.08-4.72-2.26-9.41-3.51-14.08-1.77-6.59-3.67-13.16-5.64-19.7-.1-1-.3-2.1-.44-3.13-.2-1.41-.38-2.83-.6-4.24-.44-2.83-.9-5.67-1.32-8.51,0-.16-.27-.17-.27,0,.09,2.92.29,5.79.66,8.69.06.47.14.94.22,1.41-.25-.79-.47-1.59-.72-2.38-.82-2.59-1.74-5.14-2.61-7.72s-1.66-5.32-2.7-7.9a.12.12,0,0,0-.23.07c.52,2.4,1.28,4.74,1.9,7.11s1.21,4.61,1.79,6.93c1.18,4.68,2.56,9.32,3.82,14,2.51,9.34,4.85,18.73,7.47,28,.72,2.55,1.44,5.09,2.18,7.64s1.47,5.37,2.5,7.94c.05.13.26.12.25,0A67.59,67.59,0,0,0,335.2,255.24Z"/><path class="cls-6" d="M303.49,160c-1.17,3.59-3.12,7-6.29,8.93-3.4,2.12-7.67,2.08-11.49,1.7-8.13-.84-15.64-4.64-22.29-9.49-1.9-1.39-3.73-2.88-5.55-4.39a55,55,0,0,1-5.09-4.69c-.1-.12-.27.06-.16.18,1.54,1.66,3,3.39,4.54,5a51.94,51.94,0,0,0,4.78,4.49,49.71,49.71,0,0,0,11,7,39.79,39.79,0,0,0,12.28,3.46c4,.43,8.54.34,12.06-2A16.18,16.18,0,0,0,303.71,160,.11.11,0,1,0,303.49,160Z"/><path class="cls-12" d="M290.82,162.51c-7.25,2-26.86-4.43-34-16.29-.49-.81.44-9.62,1.07-20.38.35-6.53.59-13.81.32-20.47-.06-1.36,42.16,8.5,42.16,8.5s-3.56,14.12-3,25.73a15.35,15.35,0,0,0,.4,2.72c0,.12.06.27.08.45C298.9,147.92,299.61,160.13,290.82,162.51Z"/><path class="cls-6" d="M297.77,142.32c0,.12.05.27.08.45a26.47,26.47,0,0,1-4.29.39c-23.24.41-31.91-28-34.22-37.89,6.5.54,39.72,8.29,41,8.59h0s-3.55,14.12-3,25.72A14.6,14.6,0,0,0,297.77,142.32Z"/><path class="cls-14" d="M272.91,135.59s0,0,0,0"/><path class="cls-12" d="M252.78,57.23c-4.61,14.79,3,57.64,13.47,67.24,15.2,13.92,40.21,15.39,52.06-2.91,11.5-17.74.62-73.41-11.1-82.15C289.94,26.54,259.58,35.38,252.78,57.23Z"/><path class="cls-6" d="M295.76,83.47c0-.11-.2.17-.18.29.59,2.87.78,6.26-1.67,7.67-.07,0,0,.19,0,.16C297.08,90.59,296.78,86.09,295.76,83.47Z"/><path class="cls-6" d="M292.66,80.89c-4.7.45-3.47,9.83.89,9.42S296.61,80.52,292.66,80.89Z"/><path class="cls-6" d="M311.28,81.34c0-.12.24.11.25.23.3,2.91,1.12,6.21,3.88,6.82.08,0,.09.17,0,.17C312.14,88.53,311.09,84.15,311.28,81.34Z"/><path class="cls-6" d="M313.47,78c4.63-1,6.23,8.35,1.94,9.25S309.59,78.78,313.47,78Z"/><path class="cls-6" d="M288.39,77.09a36.41,36.41,0,0,0,3.47-1.76c1.32-.69,2.44-1.1,3.19-2.46a2,2,0,0,0-.64-2.36c-1.57-1.06-3.4-.62-5,.14a7.32,7.32,0,0,0-3.75,3.68A2.13,2.13,0,0,0,288.39,77.09Z"/><path class="cls-6" d="M316.47,72.76a35.83,35.83,0,0,1-3.85-.48c-1.48-.19-2.68-.2-3.84-1.23a2,2,0,0,1-.21-2.43c1.12-1.54,3-1.74,4.78-1.58a7.31,7.31,0,0,1,4.78,2.18C319.47,70.54,318.23,72.81,316.47,72.76Z"/><path class="cls-6" d="M295.27,110.41c.79.59,1.6,1.43,2.67,1.38a7.82,7.82,0,0,0,3-1.14.1.1,0,0,1,.14.13,3.94,3.94,0,0,1-3.48,2.07,3.13,3.13,0,0,1-2.62-2.27C294.94,110.42,295.15,110.32,295.27,110.41Z"/><path class="cls-4" d="M306.47,103.57a11.8,11.8,0,0,1-4.22,4.26,5.35,5.35,0,0,1-3.18.63c-2.4-.31-2.74-2.43-2.55-4.31a12.32,12.32,0,0,1,.67-2.92A15.33,15.33,0,0,0,306.47,103.57Z"/><path class="cls-6" d="M297.17,101.31a10,10,0,0,0,7.19,3.53,12.41,12.41,0,0,0,3.58-.31,3.65,3.65,0,0,0,.67-.17,5.34,5.34,0,0,0,.62-.18.72.72,0,0,0,.5-.73v0a1.37,1.37,0,0,0-.07-.29v0l0-.26c-.24-2.24-.9-5.62-.9-5.62.87.3,5.28,1.63,5.06.47-1.85-9.6-3.92-20.28-7.79-29.44a.27.27,0,0,0-.52.15c1.42,9.29,4.46,18.28,6,27.59-1.4-.33-3.69-1-4.86-.8-.31.14,1.4,6.5,1.43,7.52a.87.87,0,0,1,0,.11c-3.69,1-6.68.21-10.66-1.83C297.17,100.87,297,101.1,297.17,101.31Z"/><path class="cls-6" d="M259.34,91.59c8.38,0,6.7-35.66,6.7-35.66s8.55,4,15.59,4.53a73.9,73.9,0,0,0,16.43-.84c1.17-.33-13.42-6-13.42-6s19.28,1.17,24.64-2,4.83-4.53,4.51-6.54-14.15-18-39-13.34c-16.8,3.12-21.92,16.77-21.92,16.77S245.51,61.13,245.93,67C246.49,74.86,250.46,91.59,259.34,91.59Z"/><path class="cls-12" d="M263.41,92.66S253.53,79,247.3,82.5s1.34,23.5,8.75,26.14a7.5,7.5,0,0,0,10-4.18Z"/><path class="cls-6" d="M249.61,88.17c-.12,0-.14.16,0,.2,5.2,2,8,6.77,10,11.71-1.57-1.89-3.68-2.9-6.21-1-.14.1,0,.31.14.28a4.61,4.61,0,0,1,5.1,1.53,22.86,22.86,0,0,1,2.49,4.07c.25.46,1.08.2.9-.33l-.05-.12C262,97.88,256.7,88.73,249.61,88.17Z"/><path class="cls-5" d="M291.25,30.7a60,60,0,0,0-17-4.2c-6.52-.51-26.88,2-31.59,6.36S237.6,56.5,237.6,59.33s2.07,19.79,8.43,23.61,5.58-25.14,14.86-35.19S291.25,30.7,291.25,30.7Z"/><path class="cls-13" d="M291.25,30.7s-21.08,7-30.35,17.05S252.39,86.76,246,83c-2.8-1.69-4.25-4.32-5.58-8.79.89-8.51,3.69-21.79,10.31-31.2,6.2-8.82,17.35-13.66,29.43-15.61A69.08,69.08,0,0,1,291.25,30.7Z"/><path class="cls-5" d="M248.52,100c.19-7.73,7-28.74,14.71-40.95s31.51-20.27,34.9-20.24c8.23.09,11.13,2.44,12.39,1.65s-7.47-6.57-9.84-7.84-8.74-4.24-12.31-4-25.45,3.48-33,13.24-17.62,36.57-15.23,43.2c.58,1.59,2.78,2.53,3.57,4.79,1,3,1.83,6.41,2.84,8.46C247.36,100,248.51,100.7,248.52,100Z"/><path class="cls-6" d="M264.88,53.68A39.12,39.12,0,0,1,259.36,50a28.55,28.55,0,0,1-4.79-4.66c-.1-.12-.31,0-.22.14a21.89,21.89,0,0,0,4.41,5.27,18.37,18.37,0,0,0,6,3.31C265,54.16,265.09,53.79,264.88,53.68Z"/><path class="cls-6" d="M248.08,92.34c-.24-.55-.63-1-.92-1.55a9.7,9.7,0,0,1-.81-1.87,17.4,17.4,0,0,0-1-3.7,13.55,13.55,0,0,0-1.93-2.48,5.15,5.15,0,0,1-1.66-3.06c0-.16-.27-.16-.26,0,.1,2.34,1.75,3.93,2.87,5.84.71,1.22.75,2.65,1.24,4a6,6,0,0,0,2.19,3.12C247.91,92.7,248.17,92.53,248.08,92.34Z"/><path class="cls-6" d="M250.35,83.88a32.3,32.3,0,0,1-2.29-2.52,24.64,24.64,0,0,1-1.79-2.8c-.54-1-1-2-1.5-2.91-.61-1.15-1.36-2.23-1.91-3.39-.07-.15-.28,0-.21.13.57,1.21.93,2.53,1.46,3.76a25.7,25.7,0,0,0,1.62,3.07,17.24,17.24,0,0,0,2,2.69A8.15,8.15,0,0,0,250.27,84C250.34,84,250.4,83.94,250.35,83.88Z"/><path class="cls-6" d="M252.8,76.21a21.62,21.62,0,0,1-4.42-4.54c-1.2-1.68-2.31-3.44-3.39-5.21-.08-.12-.29,0-.24.11a26.3,26.3,0,0,0,2.94,5.73,13.57,13.57,0,0,0,2.08,2.34,14.38,14.38,0,0,0,2.87,1.79C252.77,76.49,252.92,76.31,252.8,76.21Z"/><path class="cls-6" d="M255.51,68.85a7.42,7.42,0,0,1-2.14-2c-.71-.84-1.4-1.69-2.06-2.56s-1.29-1.65-1.93-2.49a7.61,7.61,0,0,1-1.51-2.76c0-.14-.27-.11-.25,0a7.73,7.73,0,0,0,1,3A20.92,20.92,0,0,0,250.53,65a26.61,26.61,0,0,0,2.28,2.58,5,5,0,0,0,2.57,1.58C255.57,69.21,255.7,69,255.51,68.85Z"/><path class="cls-6" d="M257.28,59.6c-.75-.67-1.49-1.34-2.19-2.06s-1.34-1.48-2-2.24-1.37-1.6-2-2.43a.13.13,0,0,0-.22.13,18,18,0,0,0,3.54,5.13,22.19,22.19,0,0,0,2.22,2.12,8.13,8.13,0,0,0,2.59,1.64c.14,0,.29-.15.2-.27A15.3,15.3,0,0,0,257.28,59.6Z"/><path class="cls-6" d="M270.58,49c-.81-.91-1.59-1.81-2.48-2.64A34.24,34.24,0,0,0,265.24,44a33.16,33.16,0,0,0-6.17-3.74c-.12-.06-.27.11-.15.2,3.8,3,7.72,5.75,11.48,8.73A.13.13,0,0,0,270.58,49Z"/><path class="cls-6" d="M274.93,42.2a16.13,16.13,0,0,0-2.73-2.36,34.8,34.8,0,0,0-6.78-3.36c-.15-.06-.27.14-.13.22,2.06,1.24,4.15,2.44,6.14,3.79a31.09,31.09,0,0,1,2.86,2.12c.91.78,1.62,1.73,2.48,2.53.07.07.2,0,.16-.09A9,9,0,0,0,274.93,42.2Z"/><path class="cls-6" d="M281.2,38.87a17.14,17.14,0,0,0-2.53-2.36,19.57,19.57,0,0,0-5.79-3c-.14,0-.22.17-.09.24a38.25,38.25,0,0,1,5.5,3.6c.86.68,1.69,1.4,2.52,2.11s1.56,1.62,2.45,2.24c.08.05.15,0,.12-.12A17.91,17.91,0,0,0,281.2,38.87Z"/><path class="cls-6" d="M285.66,34.81c-.84-.62-1.71-1.19-2.59-1.76a9.73,9.73,0,0,0-2.75-1.38c-.15,0-.2.16-.09.24,1.64,1.17,3.25,2.39,4.86,3.61a26.32,26.32,0,0,1,3.81,4.08.09.09,0,0,0,.14-.09A9.91,9.91,0,0,0,285.66,34.81Z"/><path class="cls-6" d="M291.39,33.3a16,16,0,0,0-5.3-3,.12.12,0,0,0-.09.23,19.47,19.47,0,0,1,4.84,3.3,27.24,27.24,0,0,1,3.91,4.4c.06.07.2,0,.16-.07A13.11,13.11,0,0,0,291.39,33.3Z"/><path class="cls-6" d="M299.13,36.39a9.53,9.53,0,0,0-.72-1.14,13.4,13.4,0,0,0-1.82-2,28,28,0,0,0-4.53-3.16.13.13,0,0,0-.12.23,22.07,22.07,0,0,1,4.25,3.27,17.23,17.23,0,0,1,1.75,2,11.16,11.16,0,0,1,.74,1.06,6.89,6.89,0,0,0,.69,1.06.13.13,0,0,0,.22-.1A3.66,3.66,0,0,0,299.13,36.39Z"/><path class="cls-6" d="M303.78,36.58a21.26,21.26,0,0,0-1.49-1.66,15.55,15.55,0,0,0-1.68-1.46c-.6-.47-1.23-.91-1.81-1.4a.13.13,0,1,0-.15.21,13.06,13.06,0,0,1,1.7,1.54l1.53,1.54,1.51,1.55a21.09,21.09,0,0,0,1.52,1.61.1.1,0,0,0,.16-.13A9.87,9.87,0,0,0,303.78,36.58Z"/><path class="cls-3" d="M241.06,152.59c-3.61-.37,12.62-11,16.52-7.92s23.52,51.62,17.14,104.24S173.85,362.94,170,355.07c-1.61-3.3-.51-11.18,2-14.13,3.59-4.17,69.91-55.89,77.38-88.52C256.06,223.41,249.93,153.5,241.06,152.59Z"/><path class="cls-12" d="M208.13,180.17c-59.79,63-113.8,171.08-81.21,176.71,28.17,4.87,116.59-20.81,138.44-30.08,9.53-4-15.36-84.19-25.26-79.26-8.57,4.27-19.81,8.94-21.15,8.85-2.87-.2,9-38.74,19.38-71.58C253.66,136.3,230.58,156.51,208.13,180.17Z"/><path class="cls-12" d="M330.32,217.35c5.86,6.26,1.49,14,1.49,14s6.66,1.58,10.19,7.12c4,6.35-4.14,15.48-4.14,15.48s6.41,3,9.55,9.22c3.26,6.47-3.69,16.86-3.69,16.86s4.45,6.06,3.29,13.4c-2,12.54-19.8,20.14-31.08,25.09s-47.94,8.41-54.86,9.78l-32.38-72.17s44.3-36.59,58.4-40.52C299,212.27,323.76,210.32,330.32,217.35Z"/><path class="cls-6" d="M330.79,230.4c-13.47.49-26.06,4.94-38.88,8.67a.23.23,0,0,0,.13.44c12.71-3.85,26-5.14,38.85-8.48A.32.32,0,0,0,330.79,230.4Z"/><path class="cls-6" d="M337.2,253.09c-3,.2-6,1.41-8.87,2.4-3.08,1.06-6.13,2.18-9.18,3.35q-9.12,3.5-18.08,7.45c-.26.12-.15.55.13.44,6.08-2.31,12.18-4.54,18.35-6.59q4.62-1.54,9.28-3c2.88-.91,6-1.63,8.63-3.17A.47.47,0,0,0,337.2,253.09Z"/><path class="cls-6" d="M343.46,280.1c-2.65.07-5.44,1.6-7.87,2.58q-4.12,1.68-8.27,3.32c-5.53,2.18-11.06,4.35-16.66,6.34-.28.1-.15.54.13.44,5.7-2,11.43-3.9,17.11-5.93,2.8-1,5.58-2,8.36-3.05,2.36-.88,5.42-1.71,7.32-3.43A.16.16,0,0,0,343.46,280.1Z"/><path class="cls-5" d="M238.6,243.81l27.18,89.49s-124,38.91-144.69,23.91,23.22-118.14,103.09-193.64c28-26.48,23.36,4.21,13.9,34.82-11,35.47-15,54.66-15,54.66Z"/><path class="cls-6" d="M238.48,243.81c-2.84,1.23-37.17,21.24-39.56,22.81a13.26,13.26,0,0,0-3.58.95c-1.38.46-2.75.92-4.11,1.43-2.63,1-5.25,2-7.85,3-5.18,2.06-10.37,4.48-15.8,5.76-.3.07-.16.5.13.44a147.5,147.5,0,0,0,16.5-4.53c2.72-.86,5.42-1.78,8.12-2.72l-2.86,1.87c-11.14,7.4-22.11,15.08-33.19,22.57-6.31,4.25-12.57,8.57-18.94,12.74a.23.23,0,0,0,.24.39C160,293.9,236.35,247.22,239,244.72,239.43,244.36,239,243.59,238.48,243.81Z"/><path class="cls-6" d="M240.79,218.39c-2,2.56-4.42,4.78-6.46,7.33l-.33.41c2.88-7.76,5.56-15.6,8.22-23.45a.12.12,0,0,0-.22-.09c-4.25,9.6-8.54,19.2-12.32,29-1.91,4.92-8.62,22.44-8.24,23.09.22.38.6.53.88.16.08-.1,5.71-13.33,6.08-14.25q1.77-4.46,3.5-8.91a1.48,1.48,0,0,1,.16-.27c.4-.59.89-1.12,1.33-1.68.91-1.16,1.77-2.35,2.66-3.53,1.82-2.42,3.23-5.09,5.07-7.49C241.3,218.47,241,218.15,240.79,218.39Z"/><path class="cls-6" d="M266.44,333.54a9.3,9.3,0,0,0-.42-1.39c-.17-.55-.37-1.08-.57-1.61A12.31,12.31,0,0,1,265,329l-.36-1.67c-.06-.28-.52-.15-.44.14.14.52.29,1.05.43,1.58a11.64,11.64,0,0,1,.28,1.67c.06.53.13,1.07.22,1.6l.12.75a5.94,5.94,0,0,0,.14.71c-5.87,1.27-11.67,3.19-17.47,4.72-6.05,1.59-12.1,3.2-18.16,4.74-12.23,3.12-24.46,6.27-36.74,9.18-7,1.67-14,3.44-21.07,4.81-.29.05-.16.5.13.44,12.4-2.5,24.88-4.56,37.21-7.4s24.56-5.93,36.66-9.54c6.86-2,14-3.82,20.64-6.54A.32.32,0,0,0,266.44,333.54Z"/><path class="cls-6" d="M248.19,325.74c-.63-2.49-1.31-5-2-7.43q-2.08-7.51-4.22-15c-2.83-9.93-5.94-19.77-9.15-29.58-1.83-5.56-3.47-11.23-5.54-16.71a.22.22,0,0,0-.42.13c1.12,5.06,2.64,10.06,4,15.07s2.64,10,4.08,15c2.84,9.92,5.86,19.79,9,29.62.88,2.76,1.66,5.57,2.66,8.29.51,1.39.91,2.83,1.44,4.21s1.17,2.74,1.67,4.15a.13.13,0,0,0,.24-.07C249.3,330.9,248.85,328.3,248.19,325.74Z"/><rect class="cls-3" x="446.53" y="-39.53" width="109.64" height="45.3" transform="translate(1002.69 -33.77) rotate(180)"/><polygon class="cls-3" points="537.62 5.77 556.17 24.79 556.17 5.77 537.62 5.77"/><path class="cls-4" d="M316.34,221.12c-9.22,18.6-31.16,29.64-31.16,29.64s-21.94-11-31.15-29.64c-7.68-15.51-2.81-32.28,9.31-35.94,17.38-5.26,21.84,25,21.84,25s4.46-30.26,21.85-25C319.15,188.84,324,205.61,316.34,221.12Z"/><rect class="cls-3" x="16.51" y="59.37" width="83.96" height="83.96"/><path class="cls-4" d="M50.7,110.24H39.44V97.31H50.49c0-1,.1-1.75.12-2.51.08-3.4-.06-6.81.26-10.18C51.56,77.2,56.12,72,63.45,71c4.58-.63,9.31-.12,14.1-.12V82.59c-1.71,0-3.41,0-5.1,0a23.53,23.53,0,0,0-4.53.31A4.22,4.22,0,0,0,64.33,87c-.13,3.3,0,6.62,0,10.19H77.14c-.55,4.23-1,8.16-1.62,12.07-.06.38-1,.85-1.6.87-3.09.09-6.19,0-9.55,0v33.17H50.7Z"/><rect class="cls-5" x="430.18" y="267.93" width="83.96" height="83.96" rx="13.31"/><path class="cls-4" d="M503,292.85c0-8.4-5.28-13.84-13.62-13.92q-17.3-.17-34.59,0c-8.15.09-13.43,5.49-13.56,13.63-.08,5.75,0,11.51,0,17.26s0,11.27,0,16.9c.07,8.59,5.31,14.08,13.82,14.17q17.1.18,34.22,0C497.65,340.8,503,335.31,503,327Q503.14,309.93,503,292.85Zm-5.52,34.26c0,5.31-2.91,8.25-8.23,8.29q-17.12.11-34.22,0c-5.34,0-8.23-3-8.26-8.26q-.07-17.25,0-34.51c0-5.27,3-8.3,8.23-8.34q17.11-.12,34.22,0c5.27,0,8.21,3,8.26,8.31.07,5.75,0,11.5,0,17.26S497.59,321.35,497.52,327.11Z"/><path class="cls-4" d="M472.19,293.7a16.14,16.14,0,1,0,16,16.38A16.11,16.11,0,0,0,472.19,293.7Zm-.2,26.89A10.9,10.9,0,0,1,461.41,310a10.76,10.76,0,0,1,21.52,0A10.91,10.91,0,0,1,472,320.59Z"/><path class="cls-4" d="M493.13,293.32a3.34,3.34,0,0,1-3.84,3.34c-2.45-.12-3.7-1.62-3.52-4,.17-2.25,1.64-3.3,3.9-3.43C492,289.59,493.31,290.9,493.13,293.32Z"/><path class="cls-5" d="M113.9,44.94c1.84,12-4.92,24.62-4.92,24.62s-14.18,2.1-24.82-3.68C75.28,61.05,72,51.41,76.52,45.59c6.53-8.35,18.83,4.6,18.83,4.6s-8-15.94,2-19.28C104.39,28.59,112.35,35,113.9,44.94Z"/><path class="cls-5" d="M131,11C125.62,18.08,115.48,21,115.48,21s-8.39-6.38-10.82-15c-2-7.16,1.36-13.86,6.77-14.45,7.75-.85,7.25,12.28,7.25,12.28S123-8.55,129.88-5C134.71-2.46,135.44,5,131,11Z"/></g></svg>