<svg id="Слой_1" data-name="Слой 1" xmlns="http://www.w3.org/2000/svg" viewBox="0 0 581.13 402.55"><defs><style>.cls-1{fill:#c8c8c8;}.cls-2{fill:#ececec;}.cls-3{fill:#dcdcdc;}.cls-4{fill:#fff;}.cls-5{fill:#306;}.cls-6{fill:#4a148c;}.cls-7{fill:#ffc800;}.cls-8{fill:#c36358;}.cls-9{fill:#ff98bb;}.cls-10{fill:#a8a8a8;}</style></defs><rect class="cls-1" x="-3.5" y="59.26" width="89.29" height="343"/><rect class="cls-2" x="85.79" y="59.26" width="164.32" height="343"/><rect class="cls-3" x="98.11" y="358.59" width="141.73" height="32.73"/><rect class="cls-2" x="104.07" y="364" width="80.68" height="2.76"/><rect class="cls-2" x="104.07" y="368.79" width="80.68" height="2.76"/><rect class="cls-2" x="104.07" y="373.58" width="80.68" height="2.76"/><rect class="cls-2" x="104.07" y="378.37" width="80.68" height="2.76"/><rect class="cls-2" x="104.07" y="383.16" width="80.68" height="2.76"/><path class="cls-4" d="M199.46,366.74a2.74,2.74,0,1,1-2.74-2.74A2.74,2.74,0,0,1,199.46,366.74Z"/><path class="cls-4" d="M208.49,366.74a2.74,2.74,0,1,1-2.74-2.74A2.74,2.74,0,0,1,208.49,366.74Z"/><path class="cls-4" d="M217.52,366.74a2.74,2.74,0,1,1-2.74-2.74A2.74,2.74,0,0,1,217.52,366.74Z"/><path class="cls-4" d="M226.55,366.74a2.74,2.74,0,1,1-2.74-2.74A2.74,2.74,0,0,1,226.55,366.74Z"/><path class="cls-4" d="M235.59,366.74a2.74,2.74,0,1,1-2.74-2.74A2.74,2.74,0,0,1,235.59,366.74Z"/><path class="cls-4" d="M199.46,375a2.74,2.74,0,1,1-2.74-2.74A2.74,2.74,0,0,1,199.46,375Z"/><path class="cls-4" d="M208.49,375a2.74,2.74,0,1,1-2.74-2.74A2.74,2.74,0,0,1,208.49,375Z"/><path class="cls-4" d="M217.52,375a2.74,2.74,0,1,1-2.74-2.74A2.74,2.74,0,0,1,217.52,375Z"/><path class="cls-4" d="M226.55,375a2.74,2.74,0,1,1-2.74-2.74A2.74,2.74,0,0,1,226.55,375Z"/><path class="cls-4" d="M235.59,375a2.74,2.74,0,1,1-2.74-2.74A2.74,2.74,0,0,1,235.59,375Z"/><path class="cls-4" d="M199.46,383.18a2.74,2.74,0,1,1-2.74-2.74A2.74,2.74,0,0,1,199.46,383.18Z"/><path class="cls-4" d="M208.49,383.18a2.74,2.74,0,1,1-2.74-2.74A2.74,2.74,0,0,1,208.49,383.18Z"/><path class="cls-4" d="M217.52,383.18a2.74,2.74,0,1,1-2.74-2.74A2.74,2.74,0,0,1,217.52,383.18Z"/><path class="cls-4" d="M226.55,383.18a2.74,2.74,0,1,1-2.74-2.74A2.74,2.74,0,0,1,226.55,383.18Z"/><path class="cls-4" d="M235.59,383.18a2.74,2.74,0,1,1-2.74-2.74A2.74,2.74,0,0,1,235.59,383.18Z"/><rect class="cls-1" x="188.78" y="364" width="1.58" height="21.92"/><rect class="cls-3" x="98.11" y="319.14" width="141.73" height="32.73"/><rect class="cls-2" x="104.07" y="324.55" width="80.68" height="2.76"/><rect class="cls-2" x="104.07" y="329.34" width="80.68" height="2.76"/><rect class="cls-2" x="104.07" y="334.13" width="80.68" height="2.76"/><rect class="cls-2" x="104.07" y="338.92" width="80.68" height="2.76"/><rect class="cls-2" x="104.07" y="343.71" width="80.68" height="2.76"/><circle class="cls-4" cx="196.72" cy="327.29" r="2.74"/><path class="cls-4" d="M208.49,327.29a2.74,2.74,0,1,1-2.74-2.74A2.74,2.74,0,0,1,208.49,327.29Z"/><path class="cls-4" d="M217.52,327.29a2.74,2.74,0,1,1-2.74-2.74A2.74,2.74,0,0,1,217.52,327.29Z"/><path class="cls-4" d="M226.55,327.29a2.74,2.74,0,1,1-2.74-2.74A2.74,2.74,0,0,1,226.55,327.29Z"/><circle class="cls-4" cx="232.85" cy="327.29" r="2.74"/><circle class="cls-4" cx="196.72" cy="335.51" r="2.74"/><path class="cls-4" d="M208.49,335.51a2.74,2.74,0,1,1-2.74-2.74A2.74,2.74,0,0,1,208.49,335.51Z"/><path class="cls-4" d="M217.52,335.51a2.74,2.74,0,1,1-2.74-2.74A2.74,2.74,0,0,1,217.52,335.51Z"/><path class="cls-4" d="M226.55,335.51a2.74,2.74,0,1,1-2.74-2.74A2.74,2.74,0,0,1,226.55,335.51Z"/><circle class="cls-4" cx="232.85" cy="335.51" r="2.74"/><circle class="cls-4" cx="196.72" cy="343.73" r="2.74"/><path class="cls-4" d="M208.49,343.73a2.74,2.74,0,1,1-2.74-2.74A2.74,2.74,0,0,1,208.49,343.73Z"/><path class="cls-4" d="M217.52,343.73a2.74,2.74,0,1,1-2.74-2.74A2.74,2.74,0,0,1,217.52,343.73Z"/><path class="cls-4" d="M226.55,343.73a2.74,2.74,0,1,1-2.74-2.74A2.74,2.74,0,0,1,226.55,343.73Z"/><circle class="cls-4" cx="232.85" cy="343.73" r="2.74"/><rect class="cls-1" x="188.78" y="324.55" width="1.58" height="21.92"/><rect class="cls-3" x="98.11" y="279.69" width="141.73" height="32.73"/><rect class="cls-2" x="104.07" y="285.1" width="80.68" height="2.76"/><rect class="cls-2" x="104.07" y="289.89" width="80.68" height="2.76"/><rect class="cls-2" x="104.07" y="294.68" width="80.68" height="2.76"/><rect class="cls-2" x="104.07" y="299.47" width="80.68" height="2.76"/><rect class="cls-2" x="104.07" y="304.26" width="80.68" height="2.76"/><path class="cls-4" d="M199.46,287.84a2.74,2.74,0,1,1-2.74-2.74A2.74,2.74,0,0,1,199.46,287.84Z"/><path class="cls-4" d="M208.49,287.84a2.74,2.74,0,1,1-2.74-2.74A2.74,2.74,0,0,1,208.49,287.84Z"/><path class="cls-4" d="M217.52,287.84a2.74,2.74,0,1,1-2.74-2.74A2.74,2.74,0,0,1,217.52,287.84Z"/><path class="cls-4" d="M226.55,287.84a2.74,2.74,0,1,1-2.74-2.74A2.74,2.74,0,0,1,226.55,287.84Z"/><path class="cls-4" d="M235.59,287.84a2.74,2.74,0,1,1-2.74-2.74A2.74,2.74,0,0,1,235.59,287.84Z"/><path class="cls-4" d="M199.46,296.06a2.74,2.74,0,1,1-2.74-2.74A2.74,2.74,0,0,1,199.46,296.06Z"/><path class="cls-4" d="M208.49,296.06a2.74,2.74,0,1,1-2.74-2.74A2.74,2.74,0,0,1,208.49,296.06Z"/><path class="cls-4" d="M217.52,296.06a2.74,2.74,0,1,1-2.74-2.74A2.74,2.74,0,0,1,217.52,296.06Z"/><path class="cls-4" d="M226.55,296.06a2.74,2.74,0,1,1-2.74-2.74A2.74,2.74,0,0,1,226.55,296.06Z"/><path class="cls-4" d="M235.59,296.06a2.74,2.74,0,1,1-2.74-2.74A2.74,2.74,0,0,1,235.59,296.06Z"/><path class="cls-4" d="M199.46,304.28a2.74,2.74,0,1,1-2.74-2.74A2.74,2.74,0,0,1,199.46,304.28Z"/><path class="cls-4" d="M208.49,304.28a2.74,2.74,0,1,1-2.74-2.74A2.74,2.74,0,0,1,208.49,304.28Z"/><path class="cls-4" d="M217.52,304.28a2.74,2.74,0,1,1-2.74-2.74A2.74,2.74,0,0,1,217.52,304.28Z"/><path class="cls-4" d="M226.55,304.28a2.74,2.74,0,1,1-2.74-2.74A2.74,2.74,0,0,1,226.55,304.28Z"/><path class="cls-4" d="M235.59,304.28a2.74,2.74,0,1,1-2.74-2.74A2.74,2.74,0,0,1,235.59,304.28Z"/><rect class="cls-1" x="188.78" y="285.1" width="1.58" height="21.92"/><rect class="cls-3" x="98.11" y="240.25" width="141.73" height="32.73"/><rect class="cls-2" x="104.07" y="245.65" width="80.68" height="2.76"/><rect class="cls-2" x="104.07" y="250.44" width="80.68" height="2.76"/><rect class="cls-2" x="104.07" y="255.23" width="80.68" height="2.76"/><rect class="cls-2" x="104.07" y="260.02" width="80.68" height="2.76"/><rect class="cls-2" x="104.07" y="264.81" width="80.68" height="2.76"/><path class="cls-4" d="M199.46,248.39a2.74,2.74,0,1,1-2.74-2.74A2.74,2.74,0,0,1,199.46,248.39Z"/><path class="cls-4" d="M208.49,248.39a2.74,2.74,0,1,1-2.74-2.74A2.74,2.74,0,0,1,208.49,248.39Z"/><path class="cls-4" d="M217.52,248.39a2.74,2.74,0,1,1-2.74-2.74A2.74,2.74,0,0,1,217.52,248.39Z"/><path class="cls-4" d="M226.55,248.39a2.74,2.74,0,1,1-2.74-2.74A2.74,2.74,0,0,1,226.55,248.39Z"/><path class="cls-4" d="M235.59,248.39a2.74,2.74,0,1,1-2.74-2.74A2.74,2.74,0,0,1,235.59,248.39Z"/><path class="cls-4" d="M199.46,256.61a2.74,2.74,0,1,1-2.74-2.74A2.74,2.74,0,0,1,199.46,256.61Z"/><path class="cls-4" d="M208.49,256.61a2.74,2.74,0,1,1-2.74-2.74A2.74,2.74,0,0,1,208.49,256.61Z"/><path class="cls-4" d="M217.52,256.61a2.74,2.74,0,1,1-2.74-2.74A2.74,2.74,0,0,1,217.52,256.61Z"/><path class="cls-4" d="M226.55,256.61a2.74,2.74,0,1,1-2.74-2.74A2.74,2.74,0,0,1,226.55,256.61Z"/><path class="cls-4" d="M235.59,256.61a2.74,2.74,0,1,1-2.74-2.74A2.74,2.74,0,0,1,235.59,256.61Z"/><path class="cls-4" d="M199.46,264.83a2.74,2.74,0,1,1-2.74-2.74A2.74,2.74,0,0,1,199.46,264.83Z"/><path class="cls-4" d="M208.49,264.83a2.74,2.74,0,1,1-2.74-2.74A2.74,2.74,0,0,1,208.49,264.83Z"/><path class="cls-4" d="M217.52,264.83a2.74,2.74,0,1,1-2.74-2.74A2.74,2.74,0,0,1,217.52,264.83Z"/><path class="cls-4" d="M226.55,264.83a2.74,2.74,0,1,1-2.74-2.74A2.74,2.74,0,0,1,226.55,264.83Z"/><path class="cls-4" d="M235.59,264.83a2.74,2.74,0,1,1-2.74-2.74A2.74,2.74,0,0,1,235.59,264.83Z"/><rect class="cls-1" x="188.78" y="245.65" width="1.58" height="21.92"/><rect class="cls-3" x="98.11" y="200.8" width="141.73" height="32.73"/><rect class="cls-2" x="104.07" y="206.2" width="80.68" height="2.76"/><rect class="cls-2" x="104.07" y="210.99" width="80.68" height="2.76"/><rect class="cls-2" x="104.07" y="215.78" width="80.68" height="2.76"/><rect class="cls-2" x="104.07" y="220.57" width="80.68" height="2.76"/><rect class="cls-2" x="104.07" y="225.36" width="80.68" height="2.76"/><path class="cls-4" d="M199.46,208.94a2.74,2.74,0,1,1-2.74-2.74A2.74,2.74,0,0,1,199.46,208.94Z"/><path class="cls-4" d="M208.49,208.94a2.74,2.74,0,1,1-2.74-2.74A2.74,2.74,0,0,1,208.49,208.94Z"/><path class="cls-4" d="M217.52,208.94a2.74,2.74,0,1,1-2.74-2.74A2.74,2.74,0,0,1,217.52,208.94Z"/><path class="cls-4" d="M226.55,208.94a2.74,2.74,0,1,1-2.74-2.74A2.73,2.73,0,0,1,226.55,208.94Z"/><path class="cls-4" d="M235.59,208.94a2.74,2.74,0,1,1-2.74-2.74A2.74,2.74,0,0,1,235.59,208.94Z"/><path class="cls-4" d="M199.46,217.16a2.74,2.74,0,1,1-2.74-2.74A2.74,2.74,0,0,1,199.46,217.16Z"/><path class="cls-4" d="M208.49,217.16a2.74,2.74,0,1,1-2.74-2.74A2.74,2.74,0,0,1,208.49,217.16Z"/><path class="cls-4" d="M217.52,217.16a2.74,2.74,0,1,1-2.74-2.74A2.74,2.74,0,0,1,217.52,217.16Z"/><path class="cls-4" d="M226.55,217.16a2.74,2.74,0,1,1-2.74-2.74A2.74,2.74,0,0,1,226.55,217.16Z"/><path class="cls-4" d="M235.59,217.16a2.74,2.74,0,1,1-2.74-2.74A2.74,2.74,0,0,1,235.59,217.16Z"/><path class="cls-4" d="M199.46,225.38a2.74,2.74,0,1,1-2.74-2.74A2.74,2.74,0,0,1,199.46,225.38Z"/><path class="cls-4" d="M208.49,225.38a2.74,2.74,0,1,1-2.74-2.74A2.74,2.74,0,0,1,208.49,225.38Z"/><path class="cls-4" d="M217.52,225.38a2.74,2.74,0,1,1-2.74-2.74A2.74,2.74,0,0,1,217.52,225.38Z"/><path class="cls-4" d="M226.55,225.38a2.74,2.74,0,1,1-2.74-2.74A2.74,2.74,0,0,1,226.55,225.38Z"/><path class="cls-4" d="M235.59,225.38a2.74,2.74,0,1,1-2.74-2.74A2.74,2.74,0,0,1,235.59,225.38Z"/><rect class="cls-1" x="188.78" y="206.2" width="1.58" height="21.92"/><rect class="cls-3" x="98.11" y="161.35" width="141.73" height="32.73"/><rect class="cls-2" x="104.07" y="166.75" width="80.68" height="2.76"/><rect class="cls-2" x="104.07" y="171.54" width="80.68" height="2.76"/><rect class="cls-2" x="104.07" y="176.33" width="80.68" height="2.76"/><rect class="cls-2" x="104.07" y="181.12" width="80.68" height="2.76"/><rect class="cls-2" x="104.07" y="185.91" width="80.68" height="2.76"/><path class="cls-4" d="M199.46,169.49a2.74,2.74,0,1,1-2.74-2.74A2.74,2.74,0,0,1,199.46,169.49Z"/><path class="cls-4" d="M208.49,169.49a2.74,2.74,0,1,1-2.74-2.74A2.74,2.74,0,0,1,208.49,169.49Z"/><path class="cls-4" d="M217.52,169.49a2.74,2.74,0,1,1-2.74-2.74A2.74,2.74,0,0,1,217.52,169.49Z"/><path class="cls-4" d="M226.55,169.49a2.74,2.74,0,1,1-2.74-2.74A2.73,2.73,0,0,1,226.55,169.49Z"/><path class="cls-4" d="M235.59,169.49a2.74,2.74,0,1,1-2.74-2.74A2.74,2.74,0,0,1,235.59,169.49Z"/><path class="cls-4" d="M199.46,177.71a2.74,2.74,0,1,1-2.74-2.74A2.74,2.74,0,0,1,199.46,177.71Z"/><path class="cls-4" d="M208.49,177.71a2.74,2.74,0,1,1-2.74-2.74A2.74,2.74,0,0,1,208.49,177.71Z"/><path class="cls-4" d="M217.52,177.71a2.74,2.74,0,1,1-2.74-2.74A2.74,2.74,0,0,1,217.52,177.71Z"/><path class="cls-4" d="M226.55,177.71a2.74,2.74,0,1,1-2.74-2.74A2.73,2.73,0,0,1,226.55,177.71Z"/><path class="cls-4" d="M235.59,177.71a2.74,2.74,0,1,1-2.74-2.74A2.74,2.74,0,0,1,235.59,177.71Z"/><path class="cls-4" d="M199.46,185.93a2.74,2.74,0,1,1-2.74-2.74A2.74,2.74,0,0,1,199.46,185.93Z"/><path class="cls-4" d="M208.49,185.93a2.74,2.74,0,1,1-2.74-2.74A2.74,2.74,0,0,1,208.49,185.93Z"/><path class="cls-4" d="M217.52,185.93a2.74,2.74,0,1,1-2.74-2.74A2.74,2.74,0,0,1,217.52,185.93Z"/><path class="cls-4" d="M226.55,185.93a2.74,2.74,0,1,1-2.74-2.74A2.73,2.73,0,0,1,226.55,185.93Z"/><path class="cls-4" d="M235.59,185.93a2.74,2.74,0,1,1-2.74-2.74A2.74,2.74,0,0,1,235.59,185.93Z"/><rect class="cls-1" x="188.78" y="166.75" width="1.58" height="21.92"/><rect class="cls-3" x="98.11" y="121.9" width="141.73" height="32.73"/><rect class="cls-2" x="104.07" y="127.3" width="80.68" height="2.76"/><rect class="cls-2" x="104.07" y="132.09" width="80.68" height="2.76"/><rect class="cls-2" x="104.07" y="136.88" width="80.68" height="2.76"/><rect class="cls-2" x="104.07" y="141.67" width="80.68" height="2.76"/><rect class="cls-2" x="104.07" y="146.46" width="80.68" height="2.76"/><circle class="cls-4" cx="196.72" cy="130.04" r="2.74"/><path class="cls-4" d="M208.49,130a2.74,2.74,0,1,1-2.74-2.74A2.74,2.74,0,0,1,208.49,130Z"/><path class="cls-4" d="M217.52,130a2.74,2.74,0,1,1-2.74-2.74A2.74,2.74,0,0,1,217.52,130Z"/><path class="cls-4" d="M226.55,130a2.74,2.74,0,1,1-2.74-2.74A2.73,2.73,0,0,1,226.55,130Z"/><circle class="cls-4" cx="232.85" cy="130.04" r="2.74"/><circle class="cls-4" cx="196.72" cy="138.26" r="2.74"/><path class="cls-4" d="M208.49,138.26a2.74,2.74,0,1,1-2.74-2.74A2.74,2.74,0,0,1,208.49,138.26Z"/><path class="cls-4" d="M217.52,138.26a2.74,2.74,0,1,1-2.74-2.74A2.74,2.74,0,0,1,217.52,138.26Z"/><path class="cls-4" d="M226.55,138.26a2.74,2.74,0,1,1-2.74-2.74A2.73,2.73,0,0,1,226.55,138.26Z"/><circle class="cls-4" cx="232.85" cy="138.26" r="2.74"/><path class="cls-4" d="M199.46,146.48a2.74,2.74,0,1,1-2.74-2.74A2.74,2.74,0,0,1,199.46,146.48Z"/><path class="cls-4" d="M208.49,146.48a2.74,2.74,0,1,1-2.74-2.74A2.74,2.74,0,0,1,208.49,146.48Z"/><path class="cls-4" d="M217.52,146.48a2.74,2.74,0,1,1-2.74-2.74A2.74,2.74,0,0,1,217.52,146.48Z"/><path class="cls-4" d="M226.55,146.48a2.74,2.74,0,1,1-2.74-2.74A2.73,2.73,0,0,1,226.55,146.48Z"/><path class="cls-4" d="M235.59,146.48a2.74,2.74,0,1,1-2.74-2.74A2.74,2.74,0,0,1,235.59,146.48Z"/><rect class="cls-1" x="188.78" y="127.3" width="1.58" height="21.92"/><rect class="cls-3" x="98.11" y="82.45" width="141.73" height="32.73"/><rect class="cls-2" x="104.07" y="87.85" width="80.68" height="2.76"/><rect class="cls-2" x="104.07" y="92.64" width="80.68" height="2.76"/><rect class="cls-2" x="104.07" y="97.43" width="80.68" height="2.76"/><rect class="cls-2" x="104.07" y="102.22" width="80.68" height="2.76"/><rect class="cls-2" x="104.07" y="107.01" width="80.68" height="2.76"/><circle class="cls-4" cx="196.72" cy="90.59" r="2.74"/><path class="cls-4" d="M208.49,90.59a2.74,2.74,0,1,1-2.74-2.74A2.74,2.74,0,0,1,208.49,90.59Z"/><path class="cls-4" d="M217.52,90.59a2.74,2.74,0,1,1-2.74-2.74A2.74,2.74,0,0,1,217.52,90.59Z"/><path class="cls-4" d="M226.55,90.59a2.74,2.74,0,1,1-2.74-2.74A2.73,2.73,0,0,1,226.55,90.59Z"/><circle class="cls-4" cx="232.85" cy="90.59" r="2.74"/><path class="cls-4" d="M199.46,98.81a2.74,2.74,0,1,1-2.74-2.74A2.74,2.74,0,0,1,199.46,98.81Z"/><path class="cls-4" d="M208.49,98.81a2.74,2.74,0,1,1-2.74-2.74A2.74,2.74,0,0,1,208.49,98.81Z"/><path class="cls-4" d="M217.52,98.81a2.74,2.74,0,1,1-2.74-2.74A2.74,2.74,0,0,1,217.52,98.81Z"/><path class="cls-4" d="M226.55,98.81a2.74,2.74,0,1,1-2.74-2.74A2.73,2.73,0,0,1,226.55,98.81Z"/><path class="cls-4" d="M235.59,98.81a2.74,2.74,0,1,1-2.74-2.74A2.74,2.74,0,0,1,235.59,98.81Z"/><path class="cls-4" d="M199.46,107a2.74,2.74,0,1,1-2.74-2.74A2.74,2.74,0,0,1,199.46,107Z"/><path class="cls-4" d="M208.49,107a2.74,2.74,0,1,1-2.74-2.74A2.74,2.74,0,0,1,208.49,107Z"/><path class="cls-4" d="M217.52,107a2.74,2.74,0,1,1-2.74-2.74A2.74,2.74,0,0,1,217.52,107Z"/><path class="cls-4" d="M226.55,107a2.74,2.74,0,1,1-2.74-2.74A2.73,2.73,0,0,1,226.55,107Z"/><path class="cls-4" d="M235.59,107a2.74,2.74,0,1,1-2.74-2.74A2.74,2.74,0,0,1,235.59,107Z"/><rect class="cls-1" x="188.78" y="87.85" width="1.58" height="21.92"/><rect class="cls-3" x="29.89" y="48.88" width="186.83" height="10.38"/><rect class="cls-1" x="354.39" y="21.28" width="89.29" height="380.98"/><rect class="cls-2" x="443.68" y="21.28" width="164.32" height="380.98"/><rect class="cls-3" x="456" y="358.59" width="141.73" height="32.73"/><rect class="cls-2" x="461.97" y="364" width="80.68" height="2.76"/><rect class="cls-2" x="461.97" y="368.79" width="80.68" height="2.76"/><rect class="cls-2" x="461.97" y="373.58" width="80.68" height="2.76"/><rect class="cls-2" x="461.97" y="378.37" width="80.68" height="2.76"/><rect class="cls-2" x="461.97" y="383.16" width="80.68" height="2.76"/><path class="cls-4" d="M557.35,366.74a2.74,2.74,0,1,1-2.74-2.74A2.74,2.74,0,0,1,557.35,366.74Z"/><path class="cls-4" d="M566.38,366.74a2.74,2.74,0,1,1-2.74-2.74A2.74,2.74,0,0,1,566.38,366.74Z"/><path class="cls-4" d="M575.41,366.74a2.74,2.74,0,1,1-2.74-2.74A2.74,2.74,0,0,1,575.41,366.74Z"/><path class="cls-4" d="M584.45,366.74a2.74,2.74,0,1,1-2.74-2.74A2.74,2.74,0,0,1,584.45,366.74Z"/><path class="cls-4" d="M557.35,375a2.74,2.74,0,1,1-2.74-2.74A2.74,2.74,0,0,1,557.35,375Z"/><path class="cls-4" d="M566.38,375a2.74,2.74,0,1,1-2.74-2.74A2.74,2.74,0,0,1,566.38,375Z"/><path class="cls-4" d="M575.41,375a2.74,2.74,0,1,1-2.74-2.74A2.74,2.74,0,0,1,575.41,375Z"/><path class="cls-4" d="M584.45,375a2.74,2.74,0,1,1-2.74-2.74A2.74,2.74,0,0,1,584.45,375Z"/><path class="cls-4" d="M557.35,383.18a2.74,2.74,0,1,1-2.74-2.74A2.74,2.74,0,0,1,557.35,383.18Z"/><path class="cls-4" d="M566.38,383.18a2.74,2.74,0,1,1-2.74-2.74A2.74,2.74,0,0,1,566.38,383.18Z"/><path class="cls-4" d="M575.41,383.18a2.74,2.74,0,1,1-2.74-2.74A2.74,2.74,0,0,1,575.41,383.18Z"/><path class="cls-4" d="M584.45,383.18a2.74,2.74,0,1,1-2.74-2.74A2.74,2.74,0,0,1,584.45,383.18Z"/><rect class="cls-1" x="546.67" y="364" width="1.58" height="21.92"/><rect class="cls-3" x="456" y="319.14" width="141.73" height="32.73"/><rect class="cls-2" x="461.97" y="324.55" width="80.68" height="2.76"/><rect class="cls-2" x="461.97" y="329.34" width="80.68" height="2.76"/><rect class="cls-2" x="461.97" y="334.13" width="80.68" height="2.76"/><rect class="cls-2" x="461.97" y="338.92" width="80.68" height="2.76"/><rect class="cls-2" x="461.97" y="343.71" width="80.68" height="2.76"/><circle class="cls-4" cx="554.61" cy="327.29" r="2.74"/><circle class="cls-4" cx="563.64" cy="327.29" r="2.74"/><path class="cls-4" d="M575.41,327.29a2.74,2.74,0,1,1-2.74-2.74A2.74,2.74,0,0,1,575.41,327.29Z"/><path class="cls-4" d="M584.45,327.29a2.74,2.74,0,1,1-2.74-2.74A2.74,2.74,0,0,1,584.45,327.29Z"/><circle class="cls-4" cx="554.61" cy="335.51" r="2.74"/><circle class="cls-4" cx="563.64" cy="335.51" r="2.74"/><path class="cls-4" d="M575.41,335.51a2.74,2.74,0,1,1-2.74-2.74A2.74,2.74,0,0,1,575.41,335.51Z"/><path class="cls-4" d="M584.45,335.51a2.74,2.74,0,1,1-2.74-2.74A2.74,2.74,0,0,1,584.45,335.51Z"/><circle class="cls-4" cx="554.61" cy="343.73" r="2.74"/><circle class="cls-4" cx="563.64" cy="343.73" r="2.74"/><path class="cls-4" d="M575.41,343.73a2.74,2.74,0,1,1-2.74-2.74A2.74,2.74,0,0,1,575.41,343.73Z"/><path class="cls-4" d="M584.45,343.73a2.74,2.74,0,1,1-2.74-2.74A2.74,2.74,0,0,1,584.45,343.73Z"/><rect class="cls-1" x="546.67" y="324.55" width="1.58" height="21.92"/><rect class="cls-3" x="456" y="279.69" width="141.73" height="32.73"/><rect class="cls-2" x="461.97" y="285.1" width="80.68" height="2.76"/><rect class="cls-2" x="461.97" y="289.89" width="80.68" height="2.76"/><rect class="cls-2" x="461.97" y="294.68" width="80.68" height="2.76"/><rect class="cls-2" x="461.97" y="299.47" width="80.68" height="2.76"/><rect class="cls-2" x="461.97" y="304.26" width="80.68" height="2.76"/><path class="cls-4" d="M557.35,287.84a2.74,2.74,0,1,1-2.74-2.74A2.74,2.74,0,0,1,557.35,287.84Z"/><path class="cls-4" d="M566.38,287.84a2.74,2.74,0,1,1-2.74-2.74A2.74,2.74,0,0,1,566.38,287.84Z"/><path class="cls-4" d="M575.41,287.84a2.74,2.74,0,1,1-2.74-2.74A2.74,2.74,0,0,1,575.41,287.84Z"/><path class="cls-4" d="M584.45,287.84a2.74,2.74,0,1,1-2.74-2.74A2.74,2.74,0,0,1,584.45,287.84Z"/><path class="cls-4" d="M557.35,296.06a2.74,2.74,0,1,1-2.74-2.74A2.74,2.74,0,0,1,557.35,296.06Z"/><path class="cls-4" d="M566.38,296.06a2.74,2.74,0,1,1-2.74-2.74A2.74,2.74,0,0,1,566.38,296.06Z"/><path class="cls-4" d="M575.41,296.06a2.74,2.74,0,1,1-2.74-2.74A2.74,2.74,0,0,1,575.41,296.06Z"/><path class="cls-4" d="M584.45,296.06a2.74,2.74,0,1,1-2.74-2.74A2.74,2.74,0,0,1,584.45,296.06Z"/><path class="cls-4" d="M557.35,304.28a2.74,2.74,0,1,1-2.74-2.74A2.74,2.74,0,0,1,557.35,304.28Z"/><path class="cls-4" d="M566.38,304.28a2.74,2.74,0,1,1-2.74-2.74A2.74,2.74,0,0,1,566.38,304.28Z"/><path class="cls-4" d="M575.41,304.28a2.74,2.74,0,1,1-2.74-2.74A2.74,2.74,0,0,1,575.41,304.28Z"/><path class="cls-4" d="M584.45,304.28a2.74,2.74,0,1,1-2.74-2.74A2.74,2.74,0,0,1,584.45,304.28Z"/><rect class="cls-1" x="546.67" y="285.1" width="1.58" height="21.92"/><rect class="cls-3" x="456" y="240.25" width="141.73" height="32.73"/><rect class="cls-2" x="461.97" y="245.65" width="80.68" height="2.76"/><rect class="cls-2" x="461.97" y="250.44" width="80.68" height="2.76"/><rect class="cls-2" x="461.97" y="255.23" width="80.68" height="2.76"/><rect class="cls-2" x="461.97" y="260.02" width="80.68" height="2.76"/><rect class="cls-2" x="461.97" y="264.81" width="80.68" height="2.76"/><path class="cls-4" d="M557.35,248.39a2.74,2.74,0,1,1-2.74-2.74A2.74,2.74,0,0,1,557.35,248.39Z"/><path class="cls-4" d="M566.38,248.39a2.74,2.74,0,1,1-2.74-2.74A2.74,2.74,0,0,1,566.38,248.39Z"/><path class="cls-4" d="M575.41,248.39a2.74,2.74,0,1,1-2.74-2.74A2.74,2.74,0,0,1,575.41,248.39Z"/><path class="cls-4" d="M584.45,248.39a2.74,2.74,0,1,1-2.74-2.74A2.74,2.74,0,0,1,584.45,248.39Z"/><path class="cls-4" d="M557.35,256.61a2.74,2.74,0,1,1-2.74-2.74A2.74,2.74,0,0,1,557.35,256.61Z"/><path class="cls-4" d="M566.38,256.61a2.74,2.74,0,1,1-2.74-2.74A2.74,2.74,0,0,1,566.38,256.61Z"/><path class="cls-4" d="M575.41,256.61a2.74,2.74,0,1,1-2.74-2.74A2.74,2.74,0,0,1,575.41,256.61Z"/><path class="cls-4" d="M584.45,256.61a2.74,2.74,0,1,1-2.74-2.74A2.74,2.74,0,0,1,584.45,256.61Z"/><path class="cls-4" d="M557.35,264.83a2.74,2.74,0,1,1-2.74-2.74A2.74,2.74,0,0,1,557.35,264.83Z"/><path class="cls-4" d="M566.38,264.83a2.74,2.74,0,1,1-2.74-2.74A2.74,2.74,0,0,1,566.38,264.83Z"/><path class="cls-4" d="M575.41,264.83a2.74,2.74,0,1,1-2.74-2.74A2.74,2.74,0,0,1,575.41,264.83Z"/><path class="cls-4" d="M584.45,264.83a2.74,2.74,0,1,1-2.74-2.74A2.74,2.74,0,0,1,584.45,264.83Z"/><rect class="cls-1" x="546.67" y="245.65" width="1.58" height="21.92"/><rect class="cls-3" x="456" y="200.8" width="141.73" height="32.73"/><rect class="cls-2" x="461.97" y="206.2" width="80.68" height="2.76"/><rect class="cls-2" x="461.97" y="210.99" width="80.68" height="2.76"/><rect class="cls-2" x="461.97" y="215.78" width="80.68" height="2.76"/><rect class="cls-2" x="461.97" y="220.57" width="80.68" height="2.76"/><rect class="cls-2" x="461.97" y="225.36" width="80.68" height="2.76"/><path class="cls-4" d="M557.35,208.94a2.74,2.74,0,1,1-2.74-2.74A2.74,2.74,0,0,1,557.35,208.94Z"/><path class="cls-4" d="M566.38,208.94a2.74,2.74,0,1,1-2.74-2.74A2.74,2.74,0,0,1,566.38,208.94Z"/><path class="cls-4" d="M575.41,208.94a2.74,2.74,0,1,1-2.74-2.74A2.73,2.73,0,0,1,575.41,208.94Z"/><path class="cls-4" d="M584.45,208.94a2.74,2.74,0,1,1-2.74-2.74A2.74,2.74,0,0,1,584.45,208.94Z"/><path class="cls-4" d="M557.35,217.16a2.74,2.74,0,1,1-2.74-2.74A2.74,2.74,0,0,1,557.35,217.16Z"/><path class="cls-4" d="M566.38,217.16a2.74,2.74,0,1,1-2.74-2.74A2.74,2.74,0,0,1,566.38,217.16Z"/><path class="cls-4" d="M575.41,217.16a2.74,2.74,0,1,1-2.74-2.74A2.74,2.74,0,0,1,575.41,217.16Z"/><path class="cls-4" d="M584.45,217.16a2.74,2.74,0,1,1-2.74-2.74A2.74,2.74,0,0,1,584.45,217.16Z"/><path class="cls-4" d="M557.35,225.38a2.74,2.74,0,1,1-2.74-2.74A2.74,2.74,0,0,1,557.35,225.38Z"/><path class="cls-4" d="M566.38,225.38a2.74,2.74,0,1,1-2.74-2.74A2.74,2.74,0,0,1,566.38,225.38Z"/><path class="cls-4" d="M575.41,225.38a2.74,2.74,0,1,1-2.74-2.74A2.74,2.74,0,0,1,575.41,225.38Z"/><path class="cls-4" d="M584.45,225.38a2.74,2.74,0,1,1-2.74-2.74A2.74,2.74,0,0,1,584.45,225.38Z"/><rect class="cls-1" x="546.67" y="206.2" width="1.58" height="21.92"/><rect class="cls-3" x="456" y="161.35" width="141.73" height="32.73"/><rect class="cls-2" x="461.97" y="166.75" width="80.68" height="2.76"/><rect class="cls-2" x="461.97" y="171.54" width="80.68" height="2.76"/><rect class="cls-2" x="461.97" y="176.33" width="80.68" height="2.76"/><rect class="cls-2" x="461.97" y="181.12" width="80.68" height="2.76"/><rect class="cls-2" x="461.97" y="185.91" width="80.68" height="2.76"/><path class="cls-4" d="M557.35,169.49a2.74,2.74,0,1,1-2.74-2.74A2.74,2.74,0,0,1,557.35,169.49Z"/><path class="cls-4" d="M566.38,169.49a2.74,2.74,0,1,1-2.74-2.74A2.74,2.74,0,0,1,566.38,169.49Z"/><path class="cls-4" d="M575.41,169.49a2.74,2.74,0,1,1-2.74-2.74A2.73,2.73,0,0,1,575.41,169.49Z"/><path class="cls-4" d="M584.45,169.49a2.74,2.74,0,1,1-2.74-2.74A2.74,2.74,0,0,1,584.45,169.49Z"/><path class="cls-4" d="M557.35,177.71a2.74,2.74,0,1,1-2.74-2.74A2.74,2.74,0,0,1,557.35,177.71Z"/><path class="cls-4" d="M566.38,177.71a2.74,2.74,0,1,1-2.74-2.74A2.74,2.74,0,0,1,566.38,177.71Z"/><path class="cls-4" d="M575.41,177.71a2.74,2.74,0,1,1-2.74-2.74A2.73,2.73,0,0,1,575.41,177.71Z"/><path class="cls-4" d="M584.45,177.71a2.74,2.74,0,1,1-2.74-2.74A2.74,2.74,0,0,1,584.45,177.71Z"/><path class="cls-4" d="M557.35,185.93a2.74,2.74,0,1,1-2.74-2.74A2.74,2.74,0,0,1,557.35,185.93Z"/><path class="cls-4" d="M566.38,185.93a2.74,2.74,0,1,1-2.74-2.74A2.74,2.74,0,0,1,566.38,185.93Z"/><path class="cls-4" d="M575.41,185.93a2.74,2.74,0,1,1-2.74-2.74A2.73,2.73,0,0,1,575.41,185.93Z"/><path class="cls-4" d="M584.45,185.93a2.74,2.74,0,1,1-2.74-2.74A2.74,2.74,0,0,1,584.45,185.93Z"/><rect class="cls-1" x="546.67" y="166.75" width="1.58" height="21.92"/><rect class="cls-3" x="456" y="121.9" width="141.73" height="32.73"/><rect class="cls-2" x="461.97" y="127.3" width="80.68" height="2.76"/><rect class="cls-2" x="461.97" y="132.09" width="80.68" height="2.76"/><rect class="cls-2" x="461.97" y="136.88" width="80.68" height="2.76"/><rect class="cls-2" x="461.97" y="141.67" width="80.68" height="2.76"/><rect class="cls-2" x="461.97" y="146.46" width="80.68" height="2.76"/><circle class="cls-4" cx="554.61" cy="130.04" r="2.74"/><circle class="cls-4" cx="563.64" cy="130.04" r="2.74"/><path class="cls-4" d="M575.41,130a2.74,2.74,0,1,1-2.74-2.74A2.73,2.73,0,0,1,575.41,130Z"/><path class="cls-4" d="M584.45,130a2.74,2.74,0,1,1-2.74-2.74A2.74,2.74,0,0,1,584.45,130Z"/><circle class="cls-4" cx="554.61" cy="138.26" r="2.74"/><circle class="cls-4" cx="563.64" cy="138.26" r="2.74"/><path class="cls-4" d="M575.41,138.26a2.74,2.74,0,1,1-2.74-2.74A2.73,2.73,0,0,1,575.41,138.26Z"/><path class="cls-4" d="M584.45,138.26a2.74,2.74,0,1,1-2.74-2.74A2.74,2.74,0,0,1,584.45,138.26Z"/><path class="cls-4" d="M557.35,146.48a2.74,2.74,0,1,1-2.74-2.74A2.74,2.74,0,0,1,557.35,146.48Z"/><path class="cls-4" d="M566.38,146.48a2.74,2.74,0,1,1-2.74-2.74A2.74,2.74,0,0,1,566.38,146.48Z"/><path class="cls-4" d="M575.41,146.48a2.74,2.74,0,1,1-2.74-2.74A2.73,2.73,0,0,1,575.41,146.48Z"/><path class="cls-4" d="M584.45,146.48a2.74,2.74,0,1,1-2.74-2.74A2.74,2.74,0,0,1,584.45,146.48Z"/><rect class="cls-1" x="546.67" y="127.3" width="1.58" height="21.92"/><rect class="cls-3" x="456" y="82.45" width="141.73" height="32.73"/><rect class="cls-2" x="461.97" y="87.85" width="80.68" height="2.76"/><rect class="cls-2" x="461.97" y="92.64" width="80.68" height="2.76"/><rect class="cls-2" x="461.97" y="97.43" width="80.68" height="2.76"/><rect class="cls-2" x="461.97" y="102.22" width="80.68" height="2.76"/><rect class="cls-2" x="461.97" y="107.01" width="80.68" height="2.76"/><circle class="cls-4" cx="554.61" cy="90.59" r="2.74"/><circle class="cls-4" cx="563.64" cy="90.59" r="2.74"/><path class="cls-4" d="M575.41,90.59a2.74,2.74,0,1,1-2.74-2.74A2.73,2.73,0,0,1,575.41,90.59Z"/><path class="cls-4" d="M584.45,90.59a2.74,2.74,0,1,1-2.74-2.74A2.74,2.74,0,0,1,584.45,90.59Z"/><path class="cls-4" d="M557.35,98.81a2.74,2.74,0,1,1-2.74-2.74A2.74,2.74,0,0,1,557.35,98.81Z"/><path class="cls-4" d="M566.38,98.81a2.74,2.74,0,1,1-2.74-2.74A2.74,2.74,0,0,1,566.38,98.81Z"/><path class="cls-4" d="M575.41,98.81a2.74,2.74,0,1,1-2.74-2.74A2.73,2.73,0,0,1,575.41,98.81Z"/><path class="cls-4" d="M584.45,98.81a2.74,2.74,0,1,1-2.74-2.74A2.74,2.74,0,0,1,584.45,98.81Z"/><path class="cls-4" d="M557.35,107a2.74,2.74,0,1,1-2.74-2.74A2.74,2.74,0,0,1,557.35,107Z"/><path class="cls-4" d="M566.38,107a2.74,2.74,0,1,1-2.74-2.74A2.74,2.74,0,0,1,566.38,107Z"/><path class="cls-4" d="M575.41,107a2.74,2.74,0,1,1-2.74-2.74A2.73,2.73,0,0,1,575.41,107Z"/><path class="cls-4" d="M584.45,107a2.74,2.74,0,1,1-2.74-2.74A2.74,2.74,0,0,1,584.45,107Z"/><rect class="cls-1" x="546.67" y="87.85" width="1.58" height="21.92"/><rect class="cls-3" x="456" y="43" width="141.73" height="32.73"/><rect class="cls-2" x="461.97" y="48.4" width="80.68" height="2.76"/><rect class="cls-2" x="461.97" y="53.19" width="80.68" height="2.76"/><rect class="cls-2" x="461.97" y="57.98" width="80.68" height="2.76"/><rect class="cls-2" x="461.97" y="62.77" width="80.68" height="2.76"/><rect class="cls-2" x="461.97" y="67.56" width="80.68" height="2.76"/><path class="cls-4" d="M557.35,51.14a2.74,2.74,0,1,1-2.74-2.74A2.74,2.74,0,0,1,557.35,51.14Z"/><path class="cls-4" d="M566.38,51.14a2.74,2.74,0,1,1-2.74-2.74A2.74,2.74,0,0,1,566.38,51.14Z"/><path class="cls-4" d="M575.41,51.14a2.74,2.74,0,1,1-2.74-2.74A2.73,2.73,0,0,1,575.41,51.14Z"/><path class="cls-4" d="M584.45,51.14a2.74,2.74,0,1,1-2.74-2.74A2.74,2.74,0,0,1,584.45,51.14Z"/><path class="cls-4" d="M557.35,59.36a2.74,2.74,0,1,1-2.74-2.74A2.74,2.74,0,0,1,557.35,59.36Z"/><path class="cls-4" d="M566.38,59.36a2.74,2.74,0,1,1-2.74-2.74A2.74,2.74,0,0,1,566.38,59.36Z"/><path class="cls-4" d="M575.41,59.36a2.74,2.74,0,1,1-2.74-2.74A2.73,2.73,0,0,1,575.41,59.36Z"/><path class="cls-4" d="M584.45,59.36a2.74,2.74,0,1,1-2.74-2.74A2.74,2.74,0,0,1,584.45,59.36Z"/><path class="cls-4" d="M557.35,67.58a2.74,2.74,0,1,1-2.74-2.74A2.74,2.74,0,0,1,557.35,67.58Z"/><path class="cls-4" d="M566.38,67.58a2.74,2.74,0,1,1-2.74-2.74A2.74,2.74,0,0,1,566.38,67.58Z"/><path class="cls-4" d="M575.41,67.58a2.74,2.74,0,1,1-2.74-2.74A2.73,2.73,0,0,1,575.41,67.58Z"/><path class="cls-4" d="M584.45,67.58a2.74,2.74,0,1,1-2.74-2.74A2.74,2.74,0,0,1,584.45,67.58Z"/><rect class="cls-1" x="546.67" y="48.4" width="1.58" height="21.92"/><rect class="cls-3" x="387.78" y="10.9" width="186.83" height="10.38"/><polygon class="cls-2" points="399.38 402.18 397.88 402.18 397.88 214.39 357.88 159.79 357.88 57.29 359.38 57.29 359.38 159.3 399.38 213.9 399.38 402.18"/><path class="cls-2" d="M358.63,58.1a4.3,4.3,0,1,1,4.31-4.3A4.31,4.31,0,0,1,358.63,58.1Zm0-7.11a2.81,2.81,0,1,0,2.81,2.81A2.81,2.81,0,0,0,358.63,51Z"/><polygon class="cls-2" points="389.08 402.18 387.58 402.18 387.58 220.98 347.58 166.39 347.58 94.7 349.08 94.7 349.08 165.9 389.08 220.49 389.08 402.18"/><path class="cls-2" d="M348.33,95.51a4.31,4.31,0,1,1,4.3-4.3A4.31,4.31,0,0,1,348.33,95.51Zm0-7.11a2.81,2.81,0,1,0,2.81,2.81A2.81,2.81,0,0,0,348.33,88.4Z"/><rect class="cls-2" x="407.81" y="153.17" width="1.5" height="249.01"/><path class="cls-2" d="M408.56,153.92a4.31,4.31,0,1,1,4.3-4.31A4.31,4.31,0,0,1,408.56,153.92Zm0-7.11a2.81,2.81,0,1,0,2.8,2.8A2.81,2.81,0,0,0,408.56,146.81Z"/><polygon class="cls-2" points="418.86 402.18 417.36 402.18 417.36 275.44 444.52 224.22 444.52 132.58 446.02 132.58 446.02 224.59 418.86 275.81 418.86 402.18"/><path class="cls-2" d="M445.27,133.33a4.31,4.31,0,1,1,4.3-4.3A4.31,4.31,0,0,1,445.27,133.33Zm0-7.11a2.81,2.81,0,1,0,2.8,2.81A2.81,2.81,0,0,0,445.27,126.22Z"/><polygon class="cls-2" points="428.36 402.18 426.87 402.18 426.87 280.9 458.88 224.27 458.88 164 460.38 164 460.38 224.67 428.36 281.29 428.36 402.18"/><path class="cls-2" d="M459.63,164.74a4.3,4.3,0,1,1,4.3-4.3A4.31,4.31,0,0,1,459.63,164.74Zm0-7.1a2.81,2.81,0,1,0,2.8,2.8A2.8,2.8,0,0,0,459.63,157.64Z"/><rect class="cls-5" x="355.12" y="65.59" width="89.29" height="336.67" transform="translate(799.53 467.85) rotate(180)"/><rect class="cls-6" x="190.8" y="65.59" width="164.32" height="336.67" transform="translate(545.92 467.85) rotate(180)"/><rect class="cls-6" x="201.07" y="358.59" width="141.73" height="32.73" transform="translate(543.87 749.92) rotate(180)"/><rect class="cls-6" x="256.16" y="364" width="80.68" height="2.76" transform="translate(592.99 730.76) rotate(180)"/><rect class="cls-6" x="256.16" y="368.79" width="80.68" height="2.76" transform="translate(592.99 740.34) rotate(180)"/><rect class="cls-6" x="256.16" y="373.58" width="80.68" height="2.76" transform="translate(592.99 749.92) rotate(180)"/><rect class="cls-6" x="256.16" y="378.37" width="80.68" height="2.76" transform="translate(592.99 759.5) rotate(180)"/><rect class="cls-6" x="256.16" y="383.16" width="80.68" height="2.76" transform="translate(592.99 769.08) rotate(180)"/><path class="cls-7" d="M241.45,366.74a2.74,2.74,0,1,0,2.74-2.74A2.74,2.74,0,0,0,241.45,366.74Z"/><path class="cls-7" d="M232.42,366.74a2.74,2.74,0,1,0,2.74-2.74A2.74,2.74,0,0,0,232.42,366.74Z"/><path class="cls-7" d="M223.39,366.74a2.74,2.74,0,1,0,2.74-2.74A2.74,2.74,0,0,0,223.39,366.74Z"/><path class="cls-2" d="M214.36,366.74A2.74,2.74,0,1,0,217.1,364,2.74,2.74,0,0,0,214.36,366.74Z"/><path class="cls-7" d="M205.32,366.74a2.74,2.74,0,1,0,2.74-2.74A2.74,2.74,0,0,0,205.32,366.74Z"/><path class="cls-2" d="M241.45,375a2.74,2.74,0,1,0,2.74-2.74A2.74,2.74,0,0,0,241.45,375Z"/><path class="cls-7" d="M232.42,375a2.74,2.74,0,1,0,2.74-2.74A2.74,2.74,0,0,0,232.42,375Z"/><path class="cls-7" d="M223.39,375a2.74,2.74,0,1,0,2.74-2.74A2.74,2.74,0,0,0,223.39,375Z"/><path class="cls-2" d="M214.36,375a2.74,2.74,0,1,0,2.74-2.74A2.74,2.74,0,0,0,214.36,375Z"/><path class="cls-2" d="M205.32,375a2.74,2.74,0,1,0,2.74-2.74A2.74,2.74,0,0,0,205.32,375Z"/><path class="cls-7" d="M241.45,383.18a2.74,2.74,0,1,0,2.74-2.74A2.74,2.74,0,0,0,241.45,383.18Z"/><path class="cls-2" d="M232.42,383.18a2.74,2.74,0,1,0,2.74-2.74A2.74,2.74,0,0,0,232.42,383.18Z"/><path class="cls-7" d="M223.39,383.18a2.74,2.74,0,1,0,2.74-2.74A2.74,2.74,0,0,0,223.39,383.18Z"/><path class="cls-7" d="M214.36,383.18a2.74,2.74,0,1,0,2.74-2.74A2.74,2.74,0,0,0,214.36,383.18Z"/><path class="cls-7" d="M205.32,383.18a2.74,2.74,0,1,0,2.74-2.74A2.74,2.74,0,0,0,205.32,383.18Z"/><rect class="cls-5" x="250.55" y="364" width="1.58" height="21.92" transform="translate(502.68 749.92) rotate(180)"/><rect class="cls-6" x="201.07" y="319.14" width="141.73" height="32.73" transform="translate(543.87 671.02) rotate(180)"/><rect class="cls-6" x="256.16" y="324.55" width="80.68" height="2.76" transform="translate(592.99 651.86) rotate(180)"/><rect class="cls-6" x="256.16" y="329.34" width="80.68" height="2.76" transform="translate(592.99 661.44) rotate(180)"/><rect class="cls-6" x="256.16" y="334.13" width="80.68" height="2.76" transform="translate(592.99 671.02) rotate(180)"/><rect class="cls-6" x="256.16" y="338.92" width="80.68" height="2.76" transform="translate(592.99 680.6) rotate(180)"/><rect class="cls-6" x="256.16" y="343.71" width="80.68" height="2.76" transform="translate(592.99 690.18) rotate(180)"/><path class="cls-2" d="M241.45,327.29a2.74,2.74,0,1,0,2.74-2.74A2.74,2.74,0,0,0,241.45,327.29Z"/><circle class="cls-7" cx="235.16" cy="327.29" r="2.74"/><circle class="cls-7" cx="226.13" cy="327.29" r="2.74"/><path class="cls-2" d="M214.36,327.29a2.74,2.74,0,1,0,2.74-2.74A2.74,2.74,0,0,0,214.36,327.29Z"/><path class="cls-7" d="M205.32,327.29a2.74,2.74,0,1,0,2.74-2.74A2.74,2.74,0,0,0,205.32,327.29Z"/><path class="cls-7" d="M241.45,335.51a2.74,2.74,0,1,0,2.74-2.74A2.74,2.74,0,0,0,241.45,335.51Z"/><circle class="cls-7" cx="235.16" cy="335.51" r="2.74"/><circle class="cls-2" cx="226.13" cy="335.51" r="2.74"/><path class="cls-2" d="M214.36,335.51a2.74,2.74,0,1,0,2.74-2.74A2.74,2.74,0,0,0,214.36,335.51Z"/><path class="cls-7" d="M205.32,335.51a2.74,2.74,0,1,0,2.74-2.74A2.74,2.74,0,0,0,205.32,335.51Z"/><path class="cls-7" d="M241.45,343.73a2.74,2.74,0,1,0,2.74-2.74A2.74,2.74,0,0,0,241.45,343.73Z"/><circle class="cls-2" cx="235.16" cy="343.73" r="2.74"/><circle class="cls-7" cx="226.13" cy="343.73" r="2.74"/><path class="cls-7" d="M214.36,343.73A2.74,2.74,0,1,0,217.1,341,2.74,2.74,0,0,0,214.36,343.73Z"/><path class="cls-2" d="M205.32,343.73a2.74,2.74,0,1,0,2.74-2.74A2.74,2.74,0,0,0,205.32,343.73Z"/><rect class="cls-5" x="250.55" y="324.55" width="1.58" height="21.92" transform="translate(502.68 671.02) rotate(180)"/><rect class="cls-6" x="201.07" y="279.69" width="141.73" height="32.73" transform="translate(543.87 592.12) rotate(180)"/><rect class="cls-6" x="256.16" y="285.1" width="80.68" height="2.76" transform="translate(592.99 572.96) rotate(180)"/><rect class="cls-6" x="256.16" y="289.89" width="80.68" height="2.76" transform="translate(592.99 582.54) rotate(180)"/><rect class="cls-6" x="256.16" y="294.68" width="80.68" height="2.76" transform="translate(592.99 592.12) rotate(180)"/><rect class="cls-6" x="256.16" y="299.47" width="80.68" height="2.76" transform="translate(592.99 601.7) rotate(180)"/><rect class="cls-6" x="256.16" y="304.26" width="80.68" height="2.76" transform="translate(592.99 611.28) rotate(180)"/><path class="cls-2" d="M241.45,287.84a2.74,2.74,0,1,0,2.74-2.74A2.74,2.74,0,0,0,241.45,287.84Z"/><path class="cls-7" d="M232.42,287.84a2.74,2.74,0,1,0,2.74-2.74A2.74,2.74,0,0,0,232.42,287.84Z"/><path class="cls-2" d="M223.39,287.84a2.74,2.74,0,1,0,2.74-2.74A2.74,2.74,0,0,0,223.39,287.84Z"/><path class="cls-7" d="M214.36,287.84a2.74,2.74,0,1,0,2.74-2.74A2.74,2.74,0,0,0,214.36,287.84Z"/><path class="cls-7" d="M205.32,287.84a2.74,2.74,0,1,0,2.74-2.74A2.74,2.74,0,0,0,205.32,287.84Z"/><path class="cls-7" d="M241.45,296.06a2.74,2.74,0,1,0,2.74-2.74A2.74,2.74,0,0,0,241.45,296.06Z"/><path class="cls-2" d="M232.42,296.06a2.74,2.74,0,1,0,2.74-2.74A2.74,2.74,0,0,0,232.42,296.06Z"/><path class="cls-2" d="M223.39,296.06a2.74,2.74,0,1,0,2.74-2.74A2.74,2.74,0,0,0,223.39,296.06Z"/><path class="cls-7" d="M214.36,296.06a2.74,2.74,0,1,0,2.74-2.74A2.74,2.74,0,0,0,214.36,296.06Z"/><path class="cls-2" d="M205.32,296.06a2.74,2.74,0,1,0,2.74-2.74A2.74,2.74,0,0,0,205.32,296.06Z"/><path class="cls-2" d="M241.45,304.28a2.74,2.74,0,1,0,2.74-2.74A2.74,2.74,0,0,0,241.45,304.28Z"/><path class="cls-7" d="M232.42,304.28a2.74,2.74,0,1,0,2.74-2.74A2.74,2.74,0,0,0,232.42,304.28Z"/><path class="cls-7" d="M223.39,304.28a2.74,2.74,0,1,0,2.74-2.74A2.74,2.74,0,0,0,223.39,304.28Z"/><path class="cls-2" d="M214.36,304.28a2.74,2.74,0,1,0,2.74-2.74A2.74,2.74,0,0,0,214.36,304.28Z"/><path class="cls-7" d="M205.32,304.28a2.74,2.74,0,1,0,2.74-2.74A2.74,2.74,0,0,0,205.32,304.28Z"/><rect class="cls-5" x="250.55" y="285.1" width="1.58" height="21.92" transform="translate(502.68 592.12) rotate(180)"/><rect class="cls-6" x="201.07" y="240.25" width="141.73" height="32.73" transform="translate(543.87 513.22) rotate(180)"/><rect class="cls-6" x="256.16" y="245.65" width="80.68" height="2.76" transform="translate(592.99 494.07) rotate(180)"/><rect class="cls-6" x="256.16" y="250.44" width="80.68" height="2.76" transform="translate(592.99 503.64) rotate(180)"/><rect class="cls-6" x="256.16" y="255.23" width="80.68" height="2.76" transform="translate(592.99 513.22) rotate(180)"/><rect class="cls-6" x="256.16" y="260.02" width="80.68" height="2.76" transform="translate(592.99 522.8) rotate(180)"/><rect class="cls-6" x="256.16" y="264.81" width="80.68" height="2.76" transform="translate(592.99 532.38) rotate(180)"/><path class="cls-7" d="M241.45,248.39a2.74,2.74,0,1,0,2.74-2.74A2.74,2.74,0,0,0,241.45,248.39Z"/><path class="cls-7" d="M232.42,248.39a2.74,2.74,0,1,0,2.74-2.74A2.74,2.74,0,0,0,232.42,248.39Z"/><path class="cls-7" d="M223.39,248.39a2.74,2.74,0,1,0,2.74-2.74A2.74,2.74,0,0,0,223.39,248.39Z"/><path class="cls-7" d="M214.36,248.39a2.74,2.74,0,1,0,2.74-2.74A2.74,2.74,0,0,0,214.36,248.39Z"/><path class="cls-2" d="M205.32,248.39a2.74,2.74,0,1,0,2.74-2.74A2.74,2.74,0,0,0,205.32,248.39Z"/><path class="cls-2" d="M241.45,256.61a2.74,2.74,0,1,0,2.74-2.74A2.74,2.74,0,0,0,241.45,256.61Z"/><path class="cls-2" d="M232.42,256.61a2.74,2.74,0,1,0,2.74-2.74A2.74,2.74,0,0,0,232.42,256.61Z"/><path class="cls-7" d="M223.39,256.61a2.74,2.74,0,1,0,2.74-2.74A2.74,2.74,0,0,0,223.39,256.61Z"/><path class="cls-2" d="M214.36,256.61a2.74,2.74,0,1,0,2.74-2.74A2.74,2.74,0,0,0,214.36,256.61Z"/><path class="cls-7" d="M205.32,256.61a2.74,2.74,0,1,0,2.74-2.74A2.74,2.74,0,0,0,205.32,256.61Z"/><path class="cls-7" d="M241.45,264.83a2.74,2.74,0,1,0,2.74-2.74A2.74,2.74,0,0,0,241.45,264.83Z"/><path class="cls-7" d="M232.42,264.83a2.74,2.74,0,1,0,2.74-2.74A2.74,2.74,0,0,0,232.42,264.83Z"/><path class="cls-2" d="M223.39,264.83a2.74,2.74,0,1,0,2.74-2.74A2.74,2.74,0,0,0,223.39,264.83Z"/><path class="cls-7" d="M214.36,264.83a2.74,2.74,0,1,0,2.74-2.74A2.74,2.74,0,0,0,214.36,264.83Z"/><path class="cls-2" d="M205.32,264.83a2.74,2.74,0,1,0,2.74-2.74A2.74,2.74,0,0,0,205.32,264.83Z"/><rect class="cls-5" x="250.55" y="245.65" width="1.58" height="21.92" transform="translate(502.68 513.22) rotate(180)"/><rect class="cls-6" x="201.07" y="200.8" width="141.73" height="32.73" transform="translate(543.87 434.32) rotate(180)"/><rect class="cls-6" x="256.16" y="206.2" width="80.68" height="2.76" transform="translate(592.99 415.17) rotate(180)"/><rect class="cls-6" x="256.16" y="210.99" width="80.68" height="2.76" transform="translate(592.99 424.75) rotate(180)"/><rect class="cls-6" x="256.16" y="215.78" width="80.68" height="2.76" transform="translate(592.99 434.32) rotate(180)"/><rect class="cls-6" x="256.16" y="220.57" width="80.68" height="2.76" transform="translate(592.99 443.9) rotate(180)"/><rect class="cls-6" x="256.16" y="225.36" width="80.68" height="2.76" transform="translate(592.99 453.48) rotate(180)"/><path class="cls-7" d="M241.45,208.94a2.74,2.74,0,1,0,2.74-2.74A2.74,2.74,0,0,0,241.45,208.94Z"/><path class="cls-7" d="M232.42,208.94a2.74,2.74,0,1,0,2.74-2.74A2.74,2.74,0,0,0,232.42,208.94Z"/><path class="cls-7" d="M223.39,208.94a2.74,2.74,0,1,0,2.74-2.74A2.73,2.73,0,0,0,223.39,208.94Z"/><path class="cls-7" d="M214.36,208.94a2.74,2.74,0,1,0,2.74-2.74A2.73,2.73,0,0,0,214.36,208.94Z"/><path class="cls-2" d="M205.32,208.94a2.74,2.74,0,1,0,2.74-2.74A2.74,2.74,0,0,0,205.32,208.94Z"/><path class="cls-2" d="M241.45,217.16a2.74,2.74,0,1,0,2.74-2.74A2.74,2.74,0,0,0,241.45,217.16Z"/><path class="cls-7" d="M232.42,217.16a2.74,2.74,0,1,0,2.74-2.74A2.74,2.74,0,0,0,232.42,217.16Z"/><path class="cls-7" d="M223.39,217.16a2.74,2.74,0,1,0,2.74-2.74A2.74,2.74,0,0,0,223.39,217.16Z"/><path class="cls-2" d="M214.36,217.16a2.74,2.74,0,1,0,2.74-2.74A2.74,2.74,0,0,0,214.36,217.16Z"/><path class="cls-7" d="M205.32,217.16a2.74,2.74,0,1,0,2.74-2.74A2.74,2.74,0,0,0,205.32,217.16Z"/><path class="cls-2" d="M241.45,225.38a2.74,2.74,0,1,0,2.74-2.74A2.74,2.74,0,0,0,241.45,225.38Z"/><path class="cls-2" d="M232.42,225.38a2.74,2.74,0,1,0,2.74-2.74A2.74,2.74,0,0,0,232.42,225.38Z"/><path class="cls-7" d="M223.39,225.38a2.74,2.74,0,1,0,2.74-2.74A2.74,2.74,0,0,0,223.39,225.38Z"/><path class="cls-7" d="M214.36,225.38a2.74,2.74,0,1,0,2.74-2.74A2.74,2.74,0,0,0,214.36,225.38Z"/><path class="cls-2" d="M205.32,225.38a2.74,2.74,0,1,0,2.74-2.74A2.74,2.74,0,0,0,205.32,225.38Z"/><rect class="cls-5" x="250.55" y="206.2" width="1.58" height="21.92" transform="translate(502.68 434.32) rotate(180)"/><rect class="cls-6" x="201.07" y="161.35" width="141.73" height="32.73" transform="translate(543.87 355.42) rotate(180)"/><rect class="cls-6" x="256.16" y="166.75" width="80.68" height="2.76" transform="translate(592.99 336.27) rotate(180)"/><rect class="cls-6" x="256.16" y="171.54" width="80.68" height="2.76" transform="translate(592.99 345.85) rotate(180)"/><rect class="cls-6" x="256.16" y="176.33" width="80.68" height="2.76" transform="translate(592.99 355.42) rotate(180)"/><rect class="cls-6" x="256.16" y="181.12" width="80.68" height="2.76" transform="translate(592.99 365) rotate(180)"/><rect class="cls-6" x="256.16" y="185.91" width="80.68" height="2.76" transform="translate(592.99 374.58) rotate(180)"/><path class="cls-2" d="M241.45,169.49a2.74,2.74,0,1,0,2.74-2.74A2.74,2.74,0,0,0,241.45,169.49Z"/><path class="cls-7" d="M232.42,169.49a2.74,2.74,0,1,0,2.74-2.74A2.74,2.74,0,0,0,232.42,169.49Z"/><path class="cls-7" d="M223.39,169.49a2.74,2.74,0,1,0,2.74-2.74A2.73,2.73,0,0,0,223.39,169.49Z"/><path class="cls-2" d="M214.36,169.49a2.74,2.74,0,1,0,2.74-2.74A2.73,2.73,0,0,0,214.36,169.49Z"/><path class="cls-7" d="M205.32,169.49a2.74,2.74,0,1,0,2.74-2.74A2.74,2.74,0,0,0,205.32,169.49Z"/><path class="cls-7" d="M241.45,177.71a2.74,2.74,0,1,0,2.74-2.74A2.74,2.74,0,0,0,241.45,177.71Z"/><path class="cls-2" d="M232.42,177.71a2.74,2.74,0,1,0,2.74-2.74A2.74,2.74,0,0,0,232.42,177.71Z"/><path class="cls-7" d="M223.39,177.71a2.74,2.74,0,1,0,2.74-2.74A2.73,2.73,0,0,0,223.39,177.71Z"/><path class="cls-7" d="M214.36,177.71A2.74,2.74,0,1,0,217.1,175,2.73,2.73,0,0,0,214.36,177.71Z"/><path class="cls-2" d="M205.32,177.71a2.74,2.74,0,1,0,2.74-2.74A2.74,2.74,0,0,0,205.32,177.71Z"/><path class="cls-7" d="M241.45,185.93a2.74,2.74,0,1,0,2.74-2.74A2.74,2.74,0,0,0,241.45,185.93Z"/><path class="cls-7" d="M232.42,185.93a2.74,2.74,0,1,0,2.74-2.74A2.74,2.74,0,0,0,232.42,185.93Z"/><path class="cls-2" d="M223.39,185.93a2.74,2.74,0,1,0,2.74-2.74A2.73,2.73,0,0,0,223.39,185.93Z"/><path class="cls-2" d="M214.36,185.93a2.74,2.74,0,1,0,2.74-2.74A2.73,2.73,0,0,0,214.36,185.93Z"/><path class="cls-7" d="M205.32,185.93a2.74,2.74,0,1,0,2.74-2.74A2.74,2.74,0,0,0,205.32,185.93Z"/><rect class="cls-5" x="250.55" y="166.75" width="1.58" height="21.92" transform="translate(502.68 355.42) rotate(180)"/><rect class="cls-6" x="201.07" y="82.45" width="141.73" height="32.73" transform="translate(543.87 197.63) rotate(180)"/><rect class="cls-6" x="256.16" y="87.85" width="80.68" height="2.76" transform="translate(592.99 178.47) rotate(180)"/><rect class="cls-6" x="256.16" y="92.64" width="80.68" height="2.76" transform="translate(592.99 188.05) rotate(180)"/><rect class="cls-6" x="256.16" y="97.43" width="80.68" height="2.76" transform="translate(592.99 197.63) rotate(180)"/><rect class="cls-6" x="256.16" y="102.22" width="80.68" height="2.76" transform="translate(592.99 207.21) rotate(180)"/><rect class="cls-6" x="256.16" y="107.01" width="80.68" height="2.76" transform="translate(592.99 216.78) rotate(180)"/><path class="cls-7" d="M241.45,90.59a2.74,2.74,0,1,0,2.74-2.74A2.74,2.74,0,0,0,241.45,90.59Z"/><circle class="cls-2" cx="235.16" cy="90.59" r="2.74"/><circle class="cls-7" cx="226.13" cy="90.59" r="2.74"/><path class="cls-2" d="M214.36,90.59a2.74,2.74,0,1,0,2.74-2.74A2.73,2.73,0,0,0,214.36,90.59Z"/><path class="cls-7" d="M205.32,90.59a2.74,2.74,0,1,0,2.74-2.74A2.74,2.74,0,0,0,205.32,90.59Z"/><path class="cls-7" d="M241.45,98.81a2.74,2.74,0,1,0,2.74-2.74A2.74,2.74,0,0,0,241.45,98.81Z"/><path class="cls-7" d="M232.42,98.81a2.74,2.74,0,1,0,2.74-2.74A2.74,2.74,0,0,0,232.42,98.81Z"/><path class="cls-7" d="M223.39,98.81a2.74,2.74,0,1,0,2.74-2.74A2.73,2.73,0,0,0,223.39,98.81Z"/><path class="cls-7" d="M214.36,98.81a2.74,2.74,0,1,0,2.74-2.74A2.73,2.73,0,0,0,214.36,98.81Z"/><path class="cls-2" d="M205.32,98.81a2.74,2.74,0,1,0,2.74-2.74A2.74,2.74,0,0,0,205.32,98.81Z"/><path class="cls-7" d="M241.45,107a2.74,2.74,0,1,0,2.74-2.74A2.74,2.74,0,0,0,241.45,107Z"/><path class="cls-2" d="M232.42,107a2.74,2.74,0,1,0,2.74-2.74A2.74,2.74,0,0,0,232.42,107Z"/><path class="cls-7" d="M223.39,107a2.74,2.74,0,1,0,2.74-2.74A2.73,2.73,0,0,0,223.39,107Z"/><path class="cls-7" d="M214.36,107a2.74,2.74,0,1,0,2.74-2.74A2.73,2.73,0,0,0,214.36,107Z"/><path class="cls-7" d="M205.32,107a2.74,2.74,0,1,0,2.74-2.74A2.74,2.74,0,0,0,205.32,107Z"/><rect class="cls-5" x="250.55" y="87.85" width="1.58" height="21.92" transform="translate(502.68 197.63) rotate(180)"/><rect class="cls-6" x="224.19" y="55.21" width="186.83" height="10.38" transform="translate(635.21 120.79) rotate(180)"/><rect class="cls-5" x="21.12" y="191.19" width="135.24" height="202.7"/><rect class="cls-6" x="-1.2" y="369.33" width="157.55" height="32.73" transform="translate(155.16 771.39) rotate(180)"/><rect class="cls-6" x="53.89" y="374.74" width="96.5" height="2.76" transform="translate(204.28 752.24) rotate(180)"/><rect class="cls-6" x="53.89" y="379.53" width="96.5" height="2.76" transform="translate(204.28 761.81) rotate(180)"/><rect class="cls-6" x="53.89" y="384.31" width="96.5" height="2.76" transform="translate(204.28 771.39) rotate(180)"/><rect class="cls-6" x="53.89" y="389.1" width="96.5" height="2.76" transform="translate(204.28 780.97) rotate(180)"/><rect class="cls-6" x="53.89" y="393.89" width="96.5" height="2.76" transform="translate(204.28 790.55) rotate(180)"/><path class="cls-4" d="M39.18,377.48a2.74,2.74,0,1,0,2.74-2.74A2.74,2.74,0,0,0,39.18,377.48Z"/><path class="cls-5" d="M30.15,377.48a2.74,2.74,0,1,0,2.74-2.74A2.74,2.74,0,0,0,30.15,377.48Z"/><path class="cls-4" d="M21.12,377.48a2.74,2.74,0,1,0,2.74-2.74A2.74,2.74,0,0,0,21.12,377.48Z"/><path class="cls-4" d="M12.09,377.48a2.74,2.74,0,1,0,2.74-2.74A2.74,2.74,0,0,0,12.09,377.48Z"/><path class="cls-5" d="M3.05,377.48a2.74,2.74,0,1,0,2.74-2.74A2.74,2.74,0,0,0,3.05,377.48Z"/><path class="cls-5" d="M39.18,385.7A2.74,2.74,0,1,0,41.92,383,2.74,2.74,0,0,0,39.18,385.7Z"/><path class="cls-4" d="M30.15,385.7A2.74,2.74,0,1,0,32.89,383,2.74,2.74,0,0,0,30.15,385.7Z"/><path class="cls-5" d="M21.12,385.7A2.74,2.74,0,1,0,23.86,383,2.74,2.74,0,0,0,21.12,385.7Z"/><path class="cls-4" d="M12.09,385.7A2.74,2.74,0,1,0,14.83,383,2.74,2.74,0,0,0,12.09,385.7Z"/><path class="cls-5" d="M3.05,385.7A2.74,2.74,0,1,0,5.79,383,2.74,2.74,0,0,0,3.05,385.7Z"/><path class="cls-5" d="M39.18,393.92a2.74,2.74,0,1,0,2.74-2.74A2.74,2.74,0,0,0,39.18,393.92Z"/><path class="cls-4" d="M30.15,393.92a2.74,2.74,0,1,0,2.74-2.74A2.74,2.74,0,0,0,30.15,393.92Z"/><path class="cls-4" d="M21.12,393.92a2.74,2.74,0,1,0,2.74-2.74A2.74,2.74,0,0,0,21.12,393.92Z"/><path class="cls-4" d="M12.09,393.92a2.74,2.74,0,1,0,2.74-2.74A2.74,2.74,0,0,0,12.09,393.92Z"/><path class="cls-4" d="M3.05,393.92a2.74,2.74,0,1,0,2.74-2.74A2.74,2.74,0,0,0,3.05,393.92Z"/><rect class="cls-5" x="48.28" y="374.74" width="1.58" height="21.92" transform="translate(98.14 771.39) rotate(180)"/><rect class="cls-5" x="156.36" y="369.33" width="28.64" height="32.73"/><rect class="cls-6" x="-1.2" y="331.46" width="157.55" height="32.73" transform="translate(155.16 695.66) rotate(180)"/><rect class="cls-6" x="53.89" y="336.87" width="96.5" height="2.76" transform="translate(204.28 676.5) rotate(180)"/><rect class="cls-6" x="53.89" y="341.66" width="96.5" height="2.76" transform="translate(204.28 686.08) rotate(180)"/><rect class="cls-6" x="53.89" y="346.45" width="96.5" height="2.76" transform="translate(204.28 695.66) rotate(180)"/><rect class="cls-6" x="53.89" y="351.24" width="96.5" height="2.76" transform="translate(204.28 705.24) rotate(180)"/><rect class="cls-6" x="53.89" y="356.03" width="96.5" height="2.76" transform="translate(204.28 714.81) rotate(180)"/><path class="cls-5" d="M39.18,339.61a2.74,2.74,0,1,0,2.74-2.74A2.74,2.74,0,0,0,39.18,339.61Z"/><circle class="cls-4" cx="32.89" cy="339.61" r="2.74"/><circle class="cls-4" cx="23.86" cy="339.61" r="2.74"/><path class="cls-4" d="M12.09,339.61a2.74,2.74,0,1,0,2.74-2.74A2.74,2.74,0,0,0,12.09,339.61Z"/><path class="cls-5" d="M3.05,339.61a2.74,2.74,0,1,0,2.74-2.74A2.74,2.74,0,0,0,3.05,339.61Z"/><path class="cls-4" d="M39.18,347.83a2.74,2.74,0,1,0,2.74-2.74A2.74,2.74,0,0,0,39.18,347.83Z"/><path class="cls-5" d="M30.15,347.83a2.74,2.74,0,1,0,2.74-2.74A2.74,2.74,0,0,0,30.15,347.83Z"/><path class="cls-5" d="M21.12,347.83a2.74,2.74,0,1,0,2.74-2.74A2.74,2.74,0,0,0,21.12,347.83Z"/><path class="cls-5" d="M12.09,347.83a2.74,2.74,0,1,0,2.74-2.74A2.74,2.74,0,0,0,12.09,347.83Z"/><path class="cls-4" d="M3.05,347.83a2.74,2.74,0,1,0,2.74-2.74A2.74,2.74,0,0,0,3.05,347.83Z"/><path class="cls-4" d="M39.18,356.05a2.74,2.74,0,1,0,2.74-2.74A2.74,2.74,0,0,0,39.18,356.05Z"/><circle class="cls-4" cx="32.89" cy="356.05" r="2.74"/><circle class="cls-5" cx="23.86" cy="356.05" r="2.74"/><path class="cls-4" d="M12.09,356.05a2.74,2.74,0,1,0,2.74-2.74A2.74,2.74,0,0,0,12.09,356.05Z"/><path class="cls-4" d="M3.05,356.05a2.74,2.74,0,1,0,2.74-2.74A2.74,2.74,0,0,0,3.05,356.05Z"/><rect class="cls-5" x="48.28" y="336.87" width="1.58" height="21.92" transform="translate(98.14 695.66) rotate(180)"/><rect class="cls-5" x="156.36" y="331.46" width="28.64" height="32.73"/><rect class="cls-6" x="-1.2" y="292.01" width="157.55" height="32.73" transform="translate(155.16 616.76) rotate(180)"/><rect class="cls-6" x="53.89" y="297.42" width="96.5" height="2.76" transform="translate(204.28 597.6) rotate(180)"/><rect class="cls-6" x="53.89" y="302.21" width="96.5" height="2.76" transform="translate(204.28 607.18) rotate(180)"/><rect class="cls-6" x="53.89" y="307" width="96.5" height="2.76" transform="translate(204.28 616.76) rotate(180)"/><rect class="cls-6" x="53.89" y="311.79" width="96.5" height="2.76" transform="translate(204.28 626.34) rotate(180)"/><rect class="cls-6" x="53.89" y="316.58" width="96.5" height="2.76" transform="translate(204.28 635.92) rotate(180)"/><path class="cls-5" d="M39.18,300.16a2.74,2.74,0,1,0,2.74-2.74A2.74,2.74,0,0,0,39.18,300.16Z"/><path class="cls-4" d="M30.15,300.16a2.74,2.74,0,1,0,2.74-2.74A2.74,2.74,0,0,0,30.15,300.16Z"/><path class="cls-4" d="M21.12,300.16a2.74,2.74,0,1,0,2.74-2.74A2.74,2.74,0,0,0,21.12,300.16Z"/><path class="cls-4" d="M12.09,300.16a2.74,2.74,0,1,0,2.74-2.74A2.74,2.74,0,0,0,12.09,300.16Z"/><path class="cls-5" d="M3.05,300.16a2.74,2.74,0,1,0,2.74-2.74A2.74,2.74,0,0,0,3.05,300.16Z"/><path class="cls-4" d="M39.18,308.38a2.74,2.74,0,1,0,2.74-2.74A2.74,2.74,0,0,0,39.18,308.38Z"/><path class="cls-4" d="M30.15,308.38a2.74,2.74,0,1,0,2.74-2.74A2.74,2.74,0,0,0,30.15,308.38Z"/><path class="cls-5" d="M21.12,308.38a2.74,2.74,0,1,0,2.74-2.74A2.74,2.74,0,0,0,21.12,308.38Z"/><path class="cls-5" d="M12.09,308.38a2.74,2.74,0,1,0,2.74-2.74A2.74,2.74,0,0,0,12.09,308.38Z"/><path class="cls-4" d="M3.05,308.38a2.74,2.74,0,1,0,2.74-2.74A2.74,2.74,0,0,0,3.05,308.38Z"/><path class="cls-5" d="M39.18,316.6a2.74,2.74,0,1,0,2.74-2.74A2.74,2.74,0,0,0,39.18,316.6Z"/><path class="cls-4" d="M30.15,316.6a2.74,2.74,0,1,0,2.74-2.74A2.74,2.74,0,0,0,30.15,316.6Z"/><path class="cls-4" d="M21.12,316.6a2.74,2.74,0,1,0,2.74-2.74A2.74,2.74,0,0,0,21.12,316.6Z"/><path class="cls-4" d="M12.09,316.6a2.74,2.74,0,1,0,2.74-2.74A2.74,2.74,0,0,0,12.09,316.6Z"/><path class="cls-5" d="M3.05,316.6a2.74,2.74,0,1,0,2.74-2.74A2.74,2.74,0,0,0,3.05,316.6Z"/><rect class="cls-5" x="48.28" y="297.42" width="1.58" height="21.92" transform="translate(98.14 616.76) rotate(180)"/><rect class="cls-5" x="156.36" y="292.01" width="28.64" height="32.73"/><rect class="cls-6" x="-1.2" y="252.56" width="157.55" height="32.73" transform="translate(155.16 537.86) rotate(180)"/><rect class="cls-6" x="53.89" y="257.97" width="96.5" height="2.76" transform="translate(204.28 518.7) rotate(180)"/><rect class="cls-6" x="53.89" y="262.76" width="96.5" height="2.76" transform="translate(204.28 528.28) rotate(180)"/><rect class="cls-6" x="53.89" y="267.55" width="96.5" height="2.76" transform="translate(204.28 537.86) rotate(180)"/><rect class="cls-6" x="53.89" y="272.34" width="96.5" height="2.76" transform="translate(204.28 547.44) rotate(180)"/><rect class="cls-6" x="53.89" y="277.13" width="96.5" height="2.76" transform="translate(204.28 557.02) rotate(180)"/><path class="cls-4" d="M39.18,260.71A2.74,2.74,0,1,0,41.92,258,2.74,2.74,0,0,0,39.18,260.71Z"/><path class="cls-5" d="M30.15,260.71A2.74,2.74,0,1,0,32.89,258,2.74,2.74,0,0,0,30.15,260.71Z"/><path class="cls-4" d="M21.12,260.71A2.74,2.74,0,1,0,23.86,258,2.74,2.74,0,0,0,21.12,260.71Z"/><path class="cls-4" d="M12.09,260.71A2.74,2.74,0,1,0,14.83,258,2.74,2.74,0,0,0,12.09,260.71Z"/><path class="cls-5" d="M3.05,260.71A2.74,2.74,0,1,0,5.79,258,2.74,2.74,0,0,0,3.05,260.71Z"/><path class="cls-4" d="M39.18,268.93a2.74,2.74,0,1,0,2.74-2.74A2.74,2.74,0,0,0,39.18,268.93Z"/><path class="cls-4" d="M30.15,268.93a2.74,2.74,0,1,0,2.74-2.74A2.74,2.74,0,0,0,30.15,268.93Z"/><path class="cls-5" d="M21.12,268.93a2.74,2.74,0,1,0,2.74-2.74A2.74,2.74,0,0,0,21.12,268.93Z"/><path class="cls-5" d="M12.09,268.93a2.74,2.74,0,1,0,2.74-2.74A2.74,2.74,0,0,0,12.09,268.93Z"/><path class="cls-4" d="M3.05,268.93a2.74,2.74,0,1,0,2.74-2.74A2.74,2.74,0,0,0,3.05,268.93Z"/><path class="cls-5" d="M39.18,277.15a2.74,2.74,0,1,0,2.74-2.74A2.74,2.74,0,0,0,39.18,277.15Z"/><path class="cls-4" d="M30.15,277.15a2.74,2.74,0,1,0,2.74-2.74A2.74,2.74,0,0,0,30.15,277.15Z"/><path class="cls-4" d="M21.12,277.15a2.74,2.74,0,1,0,2.74-2.74A2.74,2.74,0,0,0,21.12,277.15Z"/><path class="cls-5" d="M12.09,277.15a2.74,2.74,0,1,0,2.74-2.74A2.74,2.74,0,0,0,12.09,277.15Z"/><path class="cls-4" d="M3.05,277.15a2.74,2.74,0,1,0,2.74-2.74A2.74,2.74,0,0,0,3.05,277.15Z"/><rect class="cls-5" x="48.28" y="257.97" width="1.58" height="21.92" transform="translate(98.14 537.86) rotate(180)"/><rect class="cls-5" x="156.36" y="252.56" width="28.64" height="32.73"/><rect class="cls-6" x="-1.2" y="213.11" width="157.55" height="32.73" transform="translate(155.16 458.96) rotate(180)"/><rect class="cls-6" x="53.89" y="218.52" width="96.5" height="2.76" transform="translate(204.28 439.81) rotate(180)"/><rect class="cls-6" x="53.89" y="223.31" width="96.5" height="2.76" transform="translate(204.28 449.38) rotate(180)"/><rect class="cls-6" x="53.89" y="228.1" width="96.5" height="2.76" transform="translate(204.28 458.96) rotate(180)"/><rect class="cls-6" x="53.89" y="232.89" width="96.5" height="2.76" transform="translate(204.28 468.54) rotate(180)"/><rect class="cls-6" x="53.89" y="237.68" width="96.5" height="2.76" transform="translate(204.28 478.12) rotate(180)"/><path class="cls-4" d="M39.18,221.26a2.74,2.74,0,1,0,2.74-2.74A2.74,2.74,0,0,0,39.18,221.26Z"/><path class="cls-4" d="M30.15,221.26a2.74,2.74,0,1,0,2.74-2.74A2.74,2.74,0,0,0,30.15,221.26Z"/><path class="cls-4" d="M21.12,221.26a2.74,2.74,0,1,0,2.74-2.74A2.74,2.74,0,0,0,21.12,221.26Z"/><path class="cls-5" d="M12.09,221.26a2.74,2.74,0,1,0,2.74-2.74A2.74,2.74,0,0,0,12.09,221.26Z"/><path class="cls-4" d="M3.05,221.26a2.74,2.74,0,1,0,2.74-2.74A2.74,2.74,0,0,0,3.05,221.26Z"/><path class="cls-5" d="M39.18,229.48a2.74,2.74,0,1,0,2.74-2.74A2.74,2.74,0,0,0,39.18,229.48Z"/><path class="cls-4" d="M30.15,229.48a2.74,2.74,0,1,0,2.74-2.74A2.74,2.74,0,0,0,30.15,229.48Z"/><path class="cls-5" d="M21.12,229.48a2.74,2.74,0,1,0,2.74-2.74A2.74,2.74,0,0,0,21.12,229.48Z"/><path class="cls-4" d="M12.09,229.48a2.74,2.74,0,1,0,2.74-2.74A2.74,2.74,0,0,0,12.09,229.48Z"/><path class="cls-4" d="M3.05,229.48a2.74,2.74,0,1,0,2.74-2.74A2.74,2.74,0,0,0,3.05,229.48Z"/><path class="cls-4" d="M39.18,237.7A2.74,2.74,0,1,0,41.92,235,2.74,2.74,0,0,0,39.18,237.7Z"/><path class="cls-5" d="M30.15,237.7A2.74,2.74,0,1,0,32.89,235,2.74,2.74,0,0,0,30.15,237.7Z"/><path class="cls-4" d="M21.12,237.7A2.74,2.74,0,1,0,23.86,235,2.74,2.74,0,0,0,21.12,237.7Z"/><path class="cls-4" d="M12.09,237.7A2.74,2.74,0,1,0,14.83,235,2.74,2.74,0,0,0,12.09,237.7Z"/><path class="cls-5" d="M3.05,237.7A2.74,2.74,0,1,0,5.79,235,2.74,2.74,0,0,0,3.05,237.7Z"/><rect class="cls-5" x="48.28" y="218.52" width="1.58" height="21.92" transform="translate(98.14 458.96) rotate(180)"/><rect class="cls-5" x="156.36" y="213.11" width="28.64" height="32.73"/><rect class="cls-6" x="-1.2" y="173.67" width="157.55" height="32.73" transform="translate(155.16 380.06) rotate(180)"/><rect class="cls-6" x="53.89" y="179.07" width="96.5" height="2.76" transform="translate(204.28 360.91) rotate(180)"/><rect class="cls-6" x="53.89" y="183.86" width="96.5" height="2.76" transform="translate(204.28 370.48) rotate(180)"/><rect class="cls-6" x="53.89" y="188.65" width="96.5" height="2.76" transform="translate(204.28 380.06) rotate(180)"/><rect class="cls-6" x="53.89" y="193.44" width="96.5" height="2.76" transform="translate(204.28 389.64) rotate(180)"/><rect class="cls-6" x="53.89" y="198.23" width="96.5" height="2.76" transform="translate(204.28 399.22) rotate(180)"/><path class="cls-5" d="M39.18,181.81a2.74,2.74,0,1,0,2.74-2.74A2.74,2.74,0,0,0,39.18,181.81Z"/><path class="cls-5" d="M30.15,181.81a2.74,2.74,0,1,0,2.74-2.74A2.74,2.74,0,0,0,30.15,181.81Z"/><path class="cls-4" d="M21.12,181.81a2.74,2.74,0,1,0,2.74-2.74A2.74,2.74,0,0,0,21.12,181.81Z"/><path class="cls-5" d="M12.09,181.81a2.74,2.74,0,1,0,2.74-2.74A2.74,2.74,0,0,0,12.09,181.81Z"/><path class="cls-4" d="M3.05,181.81a2.74,2.74,0,1,0,2.74-2.74A2.74,2.74,0,0,0,3.05,181.81Z"/><path class="cls-4" d="M39.18,190a2.74,2.74,0,1,0,2.74-2.74A2.74,2.74,0,0,0,39.18,190Z"/><path class="cls-4" d="M30.15,190a2.74,2.74,0,1,0,2.74-2.74A2.74,2.74,0,0,0,30.15,190Z"/><path class="cls-5" d="M21.12,190a2.74,2.74,0,1,0,2.74-2.74A2.74,2.74,0,0,0,21.12,190Z"/><path class="cls-4" d="M12.09,190a2.74,2.74,0,1,0,2.74-2.74A2.74,2.74,0,0,0,12.09,190Z"/><path class="cls-5" d="M3.05,190a2.74,2.74,0,1,0,2.74-2.74A2.74,2.74,0,0,0,3.05,190Z"/><path class="cls-4" d="M39.18,198.25a2.74,2.74,0,1,0,2.74-2.74A2.74,2.74,0,0,0,39.18,198.25Z"/><path class="cls-5" d="M30.15,198.25a2.74,2.74,0,1,0,2.74-2.74A2.74,2.74,0,0,0,30.15,198.25Z"/><path class="cls-4" d="M21.12,198.25a2.74,2.74,0,1,0,2.74-2.74A2.74,2.74,0,0,0,21.12,198.25Z"/><path class="cls-4" d="M12.09,198.25a2.74,2.74,0,1,0,2.74-2.74A2.74,2.74,0,0,0,12.09,198.25Z"/><path class="cls-4" d="M3.05,198.25a2.74,2.74,0,1,0,2.74-2.74A2.74,2.74,0,0,0,3.05,198.25Z"/><rect class="cls-5" x="48.28" y="179.07" width="1.58" height="21.92" transform="translate(98.14 380.06) rotate(180)"/><rect class="cls-5" x="156.36" y="173.67" width="28.64" height="32.73"/><rect class="cls-6" x="141.79" y="121.9" width="141.73" height="32.73" transform="translate(425.3 276.53) rotate(180)"/><rect class="cls-6" x="196.88" y="127.3" width="80.68" height="2.76" transform="translate(474.43 257.37) rotate(180)"/><rect class="cls-6" x="196.88" y="132.09" width="80.68" height="2.76" transform="translate(474.43 266.95) rotate(180)"/><rect class="cls-6" x="196.88" y="136.88" width="80.68" height="2.76" transform="translate(474.43 276.53) rotate(180)"/><rect class="cls-6" x="196.88" y="141.67" width="80.68" height="2.76" transform="translate(474.43 286.1) rotate(180)"/><rect class="cls-6" x="196.88" y="146.46" width="80.68" height="2.76" transform="translate(474.43 295.68) rotate(180)"/><circle class="cls-7" cx="184.91" cy="130.04" r="2.74"/><circle class="cls-7" cx="175.88" cy="130.04" r="2.74"/><circle class="cls-7" cx="166.84" cy="130.04" r="2.74"/><path class="cls-7" d="M155.07,130a2.74,2.74,0,1,0,2.74-2.74A2.74,2.74,0,0,0,155.07,130Z"/><path class="cls-2" d="M146,130a2.74,2.74,0,1,0,2.74-2.74A2.74,2.74,0,0,0,146,130Z"/><circle class="cls-7" cx="184.91" cy="138.26" r="2.74"/><circle class="cls-2" cx="175.88" cy="138.26" r="2.74"/><circle class="cls-7" cx="166.84" cy="138.26" r="2.74"/><path class="cls-7" d="M155.07,138.26a2.74,2.74,0,1,0,2.74-2.74A2.74,2.74,0,0,0,155.07,138.26Z"/><path class="cls-2" d="M146,138.26a2.74,2.74,0,1,0,2.74-2.74A2.74,2.74,0,0,0,146,138.26Z"/><path class="cls-7" d="M182.17,146.48a2.74,2.74,0,1,0,2.74-2.74A2.74,2.74,0,0,0,182.17,146.48Z"/><path class="cls-7" d="M173.14,146.48a2.74,2.74,0,1,0,2.74-2.74A2.73,2.73,0,0,0,173.14,146.48Z"/><path class="cls-7" d="M164.1,146.48a2.74,2.74,0,1,0,2.74-2.74A2.74,2.74,0,0,0,164.1,146.48Z"/><path class="cls-2" d="M155.07,146.48a2.74,2.74,0,1,0,2.74-2.74A2.74,2.74,0,0,0,155.07,146.48Z"/><path class="cls-7" d="M146,146.48a2.74,2.74,0,1,0,2.74-2.74A2.74,2.74,0,0,0,146,146.48Z"/><rect class="cls-5" x="191.27" y="127.3" width="1.58" height="21.92" transform="translate(384.11 276.53) rotate(180)"/><rect class="cls-5" x="283.52" y="121.9" width="31.64" height="32.73" transform="translate(598.68 276.53) rotate(180)"/><path class="cls-8" d="M131,453.31c3.84,1.47,115.25,3.5,119.61,1,.47-.28.34-5.2,2-17.92.08-.61,2.62-3,6.59-6.29,14.9-12.49,49.91-38.82,49.91-38.82L253.51,343l-53.88,53-14,13.77s-45.52,24.58-50,27.82S127.19,451.83,131,453.31Z"/><path class="cls-2" d="M131,453.3c3.84,1.49,115.25,3.51,119.61,1,.47-.28.33-5.2,2-17.92.08-.61,2.62-3,6.59-6.3,5.18-4.34,7.64-6.32,15.35-12.32l-70.68-26L199.63,396l-14,13.77s-45.52,24.57-50,27.83S127.18,451.83,131,453.3Z"/><path class="cls-7" d="M123.35,454.84c3.87,1.35,122.57,2.65,126.84,0,1-.62,1.93-7.51,2.66-17,.09-1.18,12.12-10.79,13.76-12.57l-72.73-24.5-9.19,8.64s-53.53,24.91-57.91,28.3S119.48,453.5,123.35,454.84Z"/><path class="cls-5" d="M168.57,403.62c5.14,4.1,11.88,5.82,17.91,8.14.62.24,1.13-.35,1.16-.91a.2.2,0,0,0,.18-.26,39.17,39.17,0,0,0-11.11-16.94c-3-2.61-8.38-4.46-11.3-.52C162.63,396.86,165.57,401.23,168.57,403.62Zm-1.8-5.93c-1.2-8.06,7.4-3.73,9.55-1.72a41.62,41.62,0,0,1,3.84,4.24c2.51,3.08,4.53,6.46,6.71,9.75-2.9-1.31-5.88-2.37-8.82-3.58C174.55,404.93,167.43,402.14,166.77,397.69Z"/><path class="cls-5" d="M212.44,399.7c-1.72-4.6-7.37-4.31-11-2.64a39.15,39.15,0,0,0-15.37,13.18.2.2,0,0,0,.1.31.91.91,0,0,0,.86,1.19c6.44-.55,13.39-.34,19.47-2.85C210,407.43,214.07,404,212.44,399.7Zm-15.83,9.21c-3.16.34-6.32.53-9.46,1a113.74,113.74,0,0,1,9.15-7.51,41.83,41.83,0,0,1,4.86-3c2.63-1.33,12.09-3.1,8.7,4.31C208,407.79,200.38,408.5,196.61,408.91Z"/><path class="cls-6" d="M198.87,393l68.72,35.61s71.6-64.81,78.15-65.28c6.37-.47,102.88,64.87,151.37,65.07,50.23.21,52.77-52.4,52.77-52.4l-73.27-16.83c-52.81-26-107.82-72.78-143.8-68.41C293.74,295.48,198.87,393,198.87,393Z"/><path class="cls-5" d="M215.66,383.92c11.6,5.74,8.34,3.94,19.88,9.79,5.65,2.87,34.07,17.21,38.89,20.76a.13.13,0,0,1-.12.22c-5.67-1.9-33.77-16.85-39.37-19.82-11.43-6.06-8.08-4.44-19.45-10.63A.18.18,0,0,1,215.66,383.92Z"/><path class="cls-5" d="M279.76,412.19c13.44-11.85,57.46-50.42,59.25-51.85a23.86,23.86,0,0,1,4.58-3.44,4.85,4.85,0,0,1,4.24.34c2,.95,4,2,6.05,3L365.79,366c15.39,7.51,30.7,15.22,46.22,22.49,14.92,7,25.57,13.57,41.16,18.94a234.35,234.35,0,0,0,47.8,11.4q3,.36,6,.64c.15,0,.15.24,0,.23A192.29,192.29,0,0,1,460,411c-15.44-4.75-25.91-10.91-40.58-17.65-15.19-7-30.17-14.48-45.15-21.92-7.9-3.93-15.79-7.9-23.73-11.78-1.79-.88-4.35-2.79-6.41-1.85a11.52,11.52,0,0,0-2.37,1.75l-2.64,2.19c-3.4,2.83-57.35,49.31-59.12,50.65C279.81,412.48,279.63,412.3,279.76,412.19Z"/><path class="cls-6" d="M550,376s8.22,47.51-15.54,66.18-197.82,16.41-224.23,7.88-27.23-51.16,1.64-61c27.46-9.39,144.28-14,147.17-15.11.72-.29-10.36-6.93-10.32-7.34l26.59-8.12Z"/><path class="cls-5" d="M514,374.79c0-.21.35-.14.35,0a23.44,23.44,0,0,0,5.49,15.1c4,4.66,10,7.28,15.41,10,.52.27.13,1.08-.41.92a48,48,0,0,1-9.54-4.11,23.14,23.14,0,0,1-7.18-6A20.52,20.52,0,0,1,514,374.79Z"/><path class="cls-5" d="M461,368.9c1.2-1.54,2.52-3,3.78-4.5,3-3.54,6-7.1,9.08-10.51.3-.33.87.13.6.48-2.1,2.75-4.32,5.41-6.51,8.08-1.12,1.38-2.24,2.75-3.38,4.11a25.79,25.79,0,0,0-3.15,4c-.81,1.52.26,2.82,1.83,3a5.47,5.47,0,0,0,3.8-1.4c2.47-1.88,4.4-4.58,6.45-6.89,1.25-1.41,2.5-2.82,3.78-4.21s2.79-2.88,4.14-4.36c.09-.1.25,0,.18.14-1.18,1.62-2.27,3.31-3.45,4.93s-2.38,3.22-3.6,4.81-2.35,3-3.57,4.42a14.78,14.78,0,0,1-3.63,3.25c-2.26,1.33-6.18,1.62-7.39-1.3C459.34,371.49,460.08,370,461,368.9Z"/><path class="cls-5" d="M313.87,450.2c9.09.17,18.18.7,27.27.9s18,.24,27.07.16q27.17-.27,54.31-2.12c18.26-1.26,38-3.08,56.11-5.59,8.68-1.21,17.49-2.21,26.07-4.05,7.74-1.67,14.76-4.88,20.56-10.5,11.75-11.4,16.32-28.16,18.19-44.17.26-2.15.46-4.3.64-6.46a.11.11,0,1,1,.22,0c-1.06,16.41-3.61,33.53-13.94,46.73a41,41,0,0,1-16.82,13.06c-8.13,3.26-17.15,4-25.73,5.18-18.22,2.47-38,4.38-56.32,5.8s-36.92,2.33-55.42,2.6-37,0-55.46-.9c-2.26-.11-4.51-.24-6.76-.44A.11.11,0,0,1,313.87,450.2Z"/><path class="cls-5" d="M371.2,380.36c5.72-.84,11.43-1.66,17.19-2.26S400,377,405.84,376.48c11.52-1,23.06-1.85,34.61-2.39,6.56-.31,13.11-.34,19.68-.26.21,0,.19.31,0,.32-11.54,1.05-23.09,1.78-34.66,2.55s-23.06,1.78-34.57,2.87c-6.53.63-13.06,1.11-19.6,1.64C370.81,381.25,370.72,380.43,371.2,380.36Z"/><path class="cls-5" d="M447.39,366a89.77,89.77,0,0,1,13.25,7.1,106.45,106.45,0,0,1,12.26,8.58c.11.09,0,.22-.14.17-4.5-2.08-8.82-4.68-13.1-7.17a123.9,123.9,0,0,1-12.55-8.06C446.83,366.39,447,365.83,447.39,366Z"/><path class="cls-8" d="M494.19,273.62c-6.92,30.46-21.31,67-27.47,72.93-7.79,7.51-59.47,21.37-62,21.65-6.39.66-19.29-45.28-12.49-46.28,10.35-1.52,48-3.65,50.23-6s18.17-22.5,34.46-45.18C488.12,255.11,498.49,254.72,494.19,273.62Z"/><path class="cls-8" d="M409.8,365.71c-.76.39-11.55,5.85-18.23,7.8-5,1.46-19.43,5.26-21.58-.06-1.47-3.63,6.77-6.87,12.54-9.29,3-1.27,6.78-4.47,5.88-6.42-1.58-3.42-9.4,0-14.55,3-9.95,5.81-23.19,16.26-29.29,11.22-2.3-1.9.36-5.39,4.26-8.81-6.33,4-13.09,7.27-15.73,5.25-1.52-1.14-1.59-2.72-.75-4.53-2,.64-3.69.52-4.9-.75-2.06-2.15-1.07-5.34,1.18-8.61a2.45,2.45,0,0,1-1.87-1.22c-4.38-6.65,17.42-25.81,25-27.61,22.21-5.34,45.64-4.41,45.64-4.41C406.11,328.27,409.81,365.7,409.8,365.71Z"/><path class="cls-5" d="M377.06,345.33a37.69,37.69,0,0,0-14.81,5.74c-5.62,3.73-9.35,8.09-14.07,12.49a.13.13,0,0,0,.18.19c2.24-2.08,11.56-9.94,14-11.73a35.94,35.94,0,0,1,14.75-6.6C377.14,345.41,377.12,345.32,377.06,345.33Z"/><path class="cls-5" d="M372.9,335.91c-5.84,1.61-11.82,3.24-17.24,6-5.92,3-10.55,8-15.11,12.73-2.73,2.86-5.41,5.77-8,8.75-.11.12.06.32.17.2q6.94-7.38,14.31-14.31a47.6,47.6,0,0,1,15.7-10c3.34-1.28,6.78-2.3,10.2-3.32C373,336,373,335.89,372.9,335.91Z"/><path class="cls-5" d="M366.64,327.67C361,328.85,356,329.86,351,332.91c-6.65,4-13.05,10.84-15.3,13.26-2.48,2.66-4.87,5.4-7.23,8.18-.09.11.1.28.2.17A188.16,188.16,0,0,1,346,337.33a37.17,37.17,0,0,1,9.66-6.31,68.11,68.11,0,0,1,11-3.31S366.66,327.67,366.64,327.67Z"/><path class="cls-7" d="M400.94,319.42l16,50.34s43-12.39,50.87-20.9,22.26-52.34,26.48-73.59S487.8,254.58,478,268s-34.33,45.92-35.7,46.62S400.94,319.42,400.94,319.42Z"/><path class="cls-5" d="M421,347.37c-1.94-5.93-3.93-11.86-5.65-17.86-1-3.42-2-6.83-2.92-10.25,0-.13.18-.21.23-.08,2.18,5.88,4.36,11.78,6.27,17.76s3.86,11.88,5.69,17.86q1.54,5.08,2.8,10.27c0,.06-.09.1-.12,0C425,359.3,423,353.35,421,347.37Z"/><path class="cls-5" d="M438.66,362.78l1.9-.67c3.58-1.29,7.24-2.67,10.68-4.09.44-.17.88-.36,1.31-.54l2.05-.88,1-.44L456,356l1-.48c1.37-.63,2.66-1.26,3.87-1.9l.83-.45a30,30,0,0,0,5.3-3.5c.15-.14.31-.27.44-.41a5,5,0,0,0,.4-.4c7.85-8.5,22.26-52.34,26.48-73.59.05-.25.1-.49.14-.73l0-.16c.28-1.61.53-3.61.73-5.77v0c.57-10.57-4.43-12.28-10.6-7.62C469.22,294.07,445.76,348.74,438.66,362.78Z"/><path class="cls-7" d="M451.08,368l102.2,11.8c0-2.1-11.77-64-22-87.06-13.16-29.55-20.38-32.14-24.69-33.86-5.51-2.19-15.47-1.54-17.87-.51-2.72,1.16-11.75,15.73-15.17,26.53C466.63,306.62,449.75,366.66,451.08,368Z"/><path class="cls-8" d="M521.72,269.67c19,14.61,69,73.67,58.59,87.69s-82.18,9.34-103.1,3.31c-6.23-1.79,9.75-41.39,16.39-43.35,5.53-1.63,36.58,6.79,37.13,5,.64-2-6.24-15.12-17.33-39.05C500.61,255.68,513.33,263.22,521.72,269.67Z"/><path class="cls-8" d="M463,310.45c-14.34.37-18,2.67-30.24-3.45-8-4-14.07-.6-8.6,7,8.95,12.42,27.56,15.83,34.35,15.16Z"/><path class="cls-8" d="M502.49,317.79s-17.2-6.14-32.53-7.26c-10.59-.78-33.84.11-51.91,26.17-4.28,6.19-6,18,4.66,10.48,7.58-5.37,10.76-11.06,15.74-13.38,0,0-.4,15.33,6,19.38a139.74,139.74,0,0,0,17.38,9.41,29,29,0,0,0,2-3.1s6.3,3.22,16.7.47Z"/><path class="cls-8" d="M459.73,311.4c-4.45,3.35-13.77,10.6-19.33,19.18-6.17,9.54-15.49,29.56-8.41,34.05,5.2,3.29,9.43-4.05,9.43-4.05s-2.11,9.09,3.23,11c4.87,1.77,7.8-4.1,7.8-4.1s-.33,5.73,4.69,6.54c6,1,5.74-11.21,12.7-15.52C471.4,357.58,459.73,311.4,459.73,311.4Z"/><path class="cls-5" d="M451.57,335.43c-3.68,3.83-9.78,14.68-10.26,24.95,0,.23.15.36.21.15a111.81,111.81,0,0,1,10.13-25C451.69,335.43,451.61,335.38,451.57,335.43Z"/><path class="cls-5" d="M461,341.94c-2.83,3.63-8.62,15.09-8.75,25.51,0,.24.17.36.22.15A119.5,119.5,0,0,1,461.1,342C461.13,341.93,461,341.89,461,341.94Z"/><path class="cls-5" d="M438.43,333.71c-4.35,2.1-6.95,4.83-10.36,8.15a63.39,63.39,0,0,1-5.27,4.7c-1.7,1.32-4.19,3.29-6.43,2-1.25-.69-1.5-2.29-1.46-3.59a18.42,18.42,0,0,1,1.65-5.62c0-.06-.08-.12-.12-.05a26.61,26.61,0,0,0-2,5.08,6.16,6.16,0,0,0,.18,3.63c1.09,2.41,4.11,2.25,6.1,1.21a20.13,20.13,0,0,0,3.31-2.33c1-.82,2-1.69,2.91-2.58,1.93-1.83,3.75-3.76,5.66-5.61a59,59,0,0,1,5.91-4.89C438.6,333.79,438.52,333.67,438.43,333.71Z"/><path class="cls-5" d="M431.52,351.37c.75-2.8,5.36-14.71,7-17.57a.07.07,0,0,0-.11-.07c-3,4-7.24,13.88-8.1,17s-1.76,6.94-1.24,10.1c.79,4.78,4.1,5.16,5.31,5.2a6.26,6.26,0,0,0,4-1.34,12.69,12.69,0,0,0,3.11-4.07c0-.07-.07-.15-.11-.07-1.34,2.15-3.79,4.46-6.44,4.55a4.37,4.37,0,0,1-3.21-1.1,5.69,5.69,0,0,1-1.4-3.72A26.52,26.52,0,0,1,431.52,351.37Z"/><path class="cls-7" d="M502.49,317.79l-14.4,50.15s89.66,5.11,94.62-11.17-38.34-69.62-56.31-84.27c-20.82-17-21.94-9.85-15.16,7.13,7.09,17.78,19.31,43.16,19.31,43.16Z"/><path class="cls-5" d="M558.88,330.82a102.49,102.49,0,0,0-13.83-5.32,101.38,101.38,0,0,0-14.3-3.16c-2.76-.43-5.53-.73-8.3-1-.08,0-.09.12,0,.13a126.31,126.31,0,0,1,14.41,3q7.1,1.85,14.09,4c2.65.8,5.25,1.71,7.87,2.6A.1.1,0,0,0,558.88,330.82Z"/><path class="cls-5" d="M502.7,317.62c.46,0,25.39,3.93,26.22,4.16-.15-.34-6.48-12.21-7.41-13.94-.1-.17-.18-.35-.28-.52-.56-.75-1.13-1.5-1.67-2.27-.69-1-1.37-2-2-3,0,0,0-.07,0,0,.73,1,1.46,1.92,2.18,2.89.33.44.65.9,1,1.36-.64-1.24-1.25-2.47-1.87-3.72-1-2-1.9-4-2.81-6a.06.06,0,0,1,.1-.05c1.87,3.46,3.83,6.86,5.71,10.31s9,16.14,8.92,16.14-27.55-4.88-28.09-5C502.45,317.9,502.48,317.59,502.7,317.62Z"/><path class="cls-5" d="M506.13,348.21c1.57-5.59,3.1-11.2,4.88-16.73,1-3.15,2-6.3,3-9.43,0-.12.25-.07.22.05-1.36,5.68-2.73,11.36-4.35,17s-3.17,11.18-4.85,16.74q-1.44,4.74-3.15,9.39c0,.06-.13,0-.12,0C503,359.46,504.54,353.84,506.13,348.21Z"/><path class="cls-5" d="M487.09,368.85c.63-1.57,1.38-3.82,2.08-5.37.18-.4.48-.37.34,0-.44,1.41-.74,3-1.17,4.41,1.25,0,2.5.05,3.76.1l4.35.19c2.84.11,5.68.2,8.52.25q8.63.16,17.26,0A335.12,335.12,0,0,0,556.77,366c3.2-.41,6.39-.88,9.57-1.45a93.6,93.6,0,0,0,9.33-2c.08,0,.13.12,0,.15a52.22,52.22,0,0,1-8,2.41q-4.29.93-8.63,1.61c-5.76.88-11.56,1.46-17.37,1.88q-17.26,1.26-34.62,1.05-4.86-.06-9.7-.22c-1.64-.06-3.27-.11-4.9-.2S487,369.12,487.09,368.85Z"/><path class="cls-8" d="M488.45,279.35c6,.74,15-9.23,18.15-16.86.21-.53-1.11-5.65-2.42-12-.78-3.83-1.56-8.11-2-12.06-.09-.82-24.16,8.72-24.16,8.72s3.34,8,4.05,14.93a9,9,0,0,1,0,1.64c0,.08,0,.17,0,.27C481.91,267.18,482.69,278.62,488.45,279.35Z"/><path class="cls-5" d="M500.67,238.75c-.42,6.81-2.83,23.42-16,25.16a15.41,15.41,0,0,1-2.56.14,1.3,1.3,0,0,1,0-.28,10,10,0,0,0,0-1.64c-.71-6.91-4.05-14.94-4.05-14.94S495.39,240.32,500.67,238.75Z"/><path class="cls-8" d="M496.29,205.36c5.4,7.51,9.19,33.22,5.06,40.64-6,10.76-19.87,16.31-30.05,8.18-9.86-7.88-14.21-41.47-9.22-48.64C469.43,195,488.3,194.26,496.29,205.36Z"/><path class="cls-5" d="M477.6,228.19c0-.06.15.07.16.14.14,1.75.6,3.72,2.24,4.12.05,0,.05.1,0,.1C478,232.5,477.46,229.87,477.6,228.19Z"/><path class="cls-5" d="M479,226.2c2.77-.53,3.63,5.05,1.06,5.55S476.63,226.65,479,226.2Z"/><path class="cls-5" d="M467.93,229.74c0-.07-.12.1-.11.17.32,1.72.4,3.75-1.08,4.56a.05.05,0,0,0,0,.1C468.64,234,468.51,231.31,467.93,229.74Z"/><path class="cls-5" d="M466.11,228.17c-2.82.21-2.18,5.83.43,5.63S468.46,228,466.11,228.17Z"/><path class="cls-5" d="M480.85,221.39c-.8.06-1.54,0-2.32,0a3.81,3.81,0,0,1-2.37-.48,1.2,1.2,0,0,1-.28-1.43,3,3,0,0,1,2.72-1.25,4.31,4.31,0,0,1,3,1A1.27,1.27,0,0,1,480.85,221.39Z"/><path class="cls-5" d="M462.92,224.48a21,21,0,0,0,2.13-.91,3.81,3.81,0,0,0,2-1.35,1.18,1.18,0,0,0-.29-1.43,3,3,0,0,0-3-.11,4.35,4.35,0,0,0-2.37,2A1.27,1.27,0,0,0,462.92,224.48Z"/><path class="cls-5" d="M483,243.83c-.36.46-.68,1.09-1.3,1.24a4.68,4.68,0,0,1-1.93-.15.06.06,0,0,0-.06.1,2.37,2.37,0,0,0,2.34.6,1.88,1.88,0,0,0,1.13-1.74C483.16,243.77,483,243.76,483,243.83Z"/><path class="cls-5" d="M480.35,238.93a5.93,5.93,0,0,1-3.53,3.22,7.06,7.06,0,0,1-2.1.42,1.91,1.91,0,0,1-.41,0h-.39a.44.44,0,0,1-.41-.33v0a.53.53,0,0,1,0-.18h0l0-.15c-.24-1.33-.43-3.37-.43-3.37-.45.32-2.76,1.81-2.82,1.11-.55-5.81-1.15-12.28-.46-18.18a.16.16,0,0,1,.32,0c.74,5.56.5,11.22,1.16,16.83A10.3,10.3,0,0,1,473.9,237c.2,0,.28,4,.44,4.54a.17.17,0,0,0,0,.07c2.28-.06,3.86-1,5.81-2.84C480.28,238.68,480.43,238.77,480.35,238.93Z"/><path class="cls-5" d="M475.4,241.78a7.13,7.13,0,0,0,3.13,1.74,3.23,3.23,0,0,0,1.93-.18c1.33-.57,1.17-1.85.75-2.89a8,8,0,0,0-.88-1.57A9.18,9.18,0,0,1,475.4,241.78Z"/><path class="cls-9" d="M478.53,243.52a3.23,3.23,0,0,0,1.93-.18c1.33-.57,1.17-1.85.75-2.89A3.3,3.3,0,0,0,478.53,243.52Z"/><path class="cls-5" d="M493.51,221.75c-3.35-4.31-3.38-13.47-6.58-14.82-6.93-2.93-14.6,9.93-22,12.55-7.18,2.53-11.19-1.27-11.91-7.56S455.88,200,463.55,196c7.93-4.14,16.71-3.41,21.77-2.18,0,0-2.82-2.29-2.46-3.44s4.87.45,6.36,1.27a11.61,11.61,0,0,1,3,2.86,12.57,12.57,0,0,1,3.17-1.48c1.85-.58,4.65.05,4.93.44s-2.22,1.63-4,2.35c0,0,5,3.37,6.27,7.29s1.62,24.51.23,25.21C501,229.21,494.87,223.51,493.51,221.75Z"/><path class="cls-5" d="M495.38,195.58c-.08,0-.14.1-.06.13a13,13,0,0,1,5.8,4.16,16.29,16.29,0,0,1,2.86,8c.63,5.51-.27,11-.81,16.48,0,.16.26.2.28,0,.95-5.76,1.79-12,.89-17.77C503.57,201.67,500.63,196.68,495.38,195.58Z"/><path class="cls-5" d="M486.56,204.94a18.63,18.63,0,0,0-6.38,2.69c-1.86,1.22-3.16,3.09-4.64,4.71-3.33,3.63-7.22,6.91-12.05,8.26-.06,0,0,.1,0,.09,4.51-.95,8.29-3.7,11.47-6.94,1.6-1.63,2.95-3.64,4.74-5.07a24,24,0,0,1,6.95-3.35A.2.2,0,0,0,486.56,204.94Z"/><path class="cls-5" d="M480.18,193.28a36.65,36.65,0,0,0-10.3.15,28.4,28.4,0,0,0-9.43,2.9c-5,2.71-8.76,7.81-8.12,13.72a12.37,12.37,0,0,0,4,7.94.16.16,0,0,0,.22-.23,12.72,12.72,0,0,1-2.16-15.1c3.06-5.31,9.1-7.72,14.86-8.74a52.13,52.13,0,0,1,10.95-.59S480.2,193.29,480.18,193.28Z"/><path class="cls-8" d="M497.81,226.84s3-9.62,7.21-8.79,3.68,13.56,0,16.46a4.48,4.48,0,0,1-6.45-.48Z"/><path class="cls-5" d="M504.78,221.69a.07.07,0,0,1,.06.11c-2.57,2.12-3.25,5.35-3.44,8.52.53-1.37,1.53-2.34,3.32-1.76.1,0,.06.17,0,.18a2.76,2.76,0,0,0-2.6,1.83,13.2,13.2,0,0,0-.64,2.78c-.05.31-.57.32-.57,0v-.07C499.62,229.53,500.87,223.35,504.78,221.69Z"/><path class="cls-2" d="M482.11,263.63l7.9,13.73,15.48-21,6,5.18S497.9,293.32,497.6,292l-7.77-11.7-7.42,9.95-2.4-22Z"/><path class="cls-5" d="M480.61,279.46c-.27-3.64-.65-7.31-.76-11,0-.13.19-.22.24-.07,1.22,3.39,2.2,17.34,2.68,20.64l0,0c.31-.43,6.94-8.81,7-8.71,1.58,1.81,7.28,10.32,7.7,11.11,2.14-5,11.41-25,14.1-29.9a.13.13,0,0,1,.24.09c-1.78,5.26-13.69,31.6-13.92,31.57a145.85,145.85,0,0,1-8.15-12.37c-1.07,1.77-7.64,11.1-7.74,10.57A116.3,116.3,0,0,1,480.61,279.46Z"/><path class="cls-2" d="M234.35,417.64a44.51,44.51,0,0,1-6.26-.46c-23-3.3-38.3-37.37-45.46-101.28-5.74-51.21-4.72-107-4.23-133.81.14-7.28.22-12.09.11-13.65-1.13-15-7.61-21.08-22.4-21.08v-1.49c15.57,0,22.71,6.72,23.89,22.46.12,1.63,0,6.47-.1,13.79-2.74,150,13.54,228.58,48.4,233.58C251,419,263,403.54,274.55,388.63c8.54-11,17.36-22.34,30.31-25.57a60.52,60.52,0,0,1,20.62-1.18c1,.09,1.77.15,2.26.15v1.5c-.56,0-1.37-.07-2.39-.16a59,59,0,0,0-20.12,1.15c-12.45,3.09-20.73,13.75-29.5,25C265,403.38,253.91,417.64,234.35,417.64Z"/><rect class="cls-5" x="155.16" y="145.53" width="6.9" height="2.62"/><path class="cls-7" d="M235.34,413.67c-10.19,0-19.06-4-26.36-11.95-37.2-40.37-26.46-171.51-22.42-220.87.73-8.84,1.25-15.22,1.12-17-1.19-15.9-9.05-24.3-22.72-24.3v-1.5c14.37,0,23,9.13,24.21,25.69.14,1.85-.36,7.95-1.12,17.19-4,49.19-14.73,179.84,22,219.73,7,7.61,15.51,11.47,25.26,11.47,19.76,0,29.58-11.3,41-24.39,7.15-8.22,14.53-16.71,25.14-23.17,5.85-3.57,14.86-3.15,22.81-2.77,2.17.1,4.23.19,6,.19v1.5c-1.85,0-3.92-.1-6.11-.2-7.35-.34-16.5-.77-22,2.55-10.41,6.34-17.72,14.75-24.79,22.88C266.3,401.57,255.78,413.67,235.34,413.67Z"/><rect class="cls-5" x="164.01" y="137.53" width="6.9" height="2.62"/><rect class="cls-1" x="365.96" y="381.05" width="105.88" height="4.74"/><polygon class="cls-10" points="365.96 381.05 365.96 385.8 437.93 385.8 434.3 381.05 365.96 381.05"/><polygon class="cls-1" points="429.73 385.8 326.55 385.8 317.95 315.72 421.14 315.72 429.73 385.8"/><path class="cls-4" d="M380.12,350.76A6.14,6.14,0,0,1,374,357a6.42,6.42,0,0,1-6.39-6.28,6.15,6.15,0,0,1,6.17-6.28A6.41,6.41,0,0,1,380.12,350.76Z"/></svg>