<svg id="Слой_1" data-name="Слой 1" xmlns="http://www.w3.org/2000/svg" xmlns:xlink="http://www.w3.org/1999/xlink" viewBox="0 0 581.13 402.55"><defs><style>.cls-1{fill:none;}.cls-2{clip-path:url(#clip-path);}.cls-3{fill:#ffc800;}.cls-4{fill:#306;}.cls-5{fill:#4a148c;}.cls-6{fill:#fff;}.cls-7{fill:#dcdcdc;}.cls-10,.cls-8{opacity:0.1;}.cls-9{opacity:0.3;}.cls-11{opacity:0.2;}.cls-12{fill:#ed776a;}.cls-13{fill:#ececec;}.cls-14{fill:#ffc400;}.cls-15{fill:#a8a8a8;}</style><clipPath id="clip-path"><rect class="cls-1" x="-709.07" y="-120.95" width="674.08" height="735.86"/></clipPath></defs><g class="cls-2"><path class="cls-3" d="M261.21,316.28c11-22.68,30.34-34.32,52.09-27.89s25.13,36.77,8.89,44.43-32.48-14.7-41.06-19.3S261.21,316.28,261.21,316.28Z"/><path class="cls-4" d="M250.53,376.64c.06-2.74.16-5.47.26-8.2q.28-8.19.58-16.37c.37-10,1.45-19.79,5.58-29a44.9,44.9,0,0,1,17.5-20.16,36.64,36.64,0,0,1,9.2-4c2.69-3,6.9-5,10.74-5.9,5-1.22,10.2-1,15.3-.38.18,0,.18.31,0,.28a36.86,36.86,0,0,0-14.48,1,30.62,30.62,0,0,0-5.83,2.27,28.31,28.31,0,0,0-3.37,2.14A29.66,29.66,0,0,1,303.91,300a13.43,13.43,0,0,1,3.62-.3,20.83,20.83,0,0,1,4.71.67,35.47,35.47,0,0,1,8.95,3.91c.16.09,0,.33-.15.24a33.26,33.26,0,0,0-8.73-3.29,29.65,29.65,0,0,0-4.49-.66c-.84-.05-1.67,0-2.5,0a28.89,28.89,0,0,1,14.07,14c.07.17-.18.31-.26.14-3.26-7.37-10.22-12.41-17.92-14.37-.48-.12-1-.19-1.46-.28a20.88,20.88,0,0,1,.23,2.19c.15,1.1.33,2.2.56,3.29a54.6,54.6,0,0,0,1.77,6.64,53.68,53.68,0,0,0,2.63,6.44,30.73,30.73,0,0,0,3.68,6.2c.13.16-.12.35-.23.17-1.31-2-2.83-3.93-4-6.06a45.52,45.52,0,0,1-2.95-6.33,42.21,42.21,0,0,1-1.94-6.8c-.24-1.22-.43-2.45-.57-3.68a9,9,0,0,1-.14-2.25,29.34,29.34,0,0,0-7.72-.16c1,5.41,2,11,5,15.74.1.16-.17.31-.25.14a61.28,61.28,0,0,1-3.74-7.74,29.3,29.3,0,0,1-1.87-8.05,35.66,35.66,0,0,0-12.77,4.28,42.22,42.22,0,0,0-17,18.6c-4.09,8.39-5.73,17.42-6.31,26.67-.72,11.59-.87,23.25-2,34.81-.08.75-1.27,1-1.42.15A40.93,40.93,0,0,1,250.53,376.64Z"/><path class="cls-4" d="M276,301.1a12.83,12.83,0,0,1,2.5-2.32c.91-.75,1.83-1.47,2.8-2.13a20.93,20.93,0,0,1,6.27-2.9.14.14,0,0,1,.07.28,16.4,16.4,0,0,0-6.18,3c-.93.67-1.81,1.4-2.67,2.15a16.09,16.09,0,0,1-2.53,2.15C276.12,301.46,275.91,301.26,276,301.1Z"/><path class="cls-4" d="M311.23,309.32a64.16,64.16,0,0,1,5.06,6.69,40.17,40.17,0,0,1,3.77,7.46c0,.08-.1.12-.14,0-2.67-4.81-5.36-9.76-8.89-14C310.91,309.37,311.12,309.17,311.23,309.32Z"/><path class="cls-4" d="M287.5,307.07a16.22,16.22,0,0,0,1.25,4.1,26.85,26.85,0,0,0,2.1,3.64c0,.08-.07.16-.13.09a14.79,14.79,0,0,1-3.5-7.76C287.19,307,287.47,306.89,287.5,307.07Z"/><path class="cls-3" d="M252.07,316.84s-15.62-19.64-45.77-12.68c-28.65,6.62-41.88,59.16-12.92,65.45s23.85-42.34,34.4-50.59C235.52,313,246.66,314.26,252.07,316.84Z"/><path class="cls-4" d="M183,332.86a58.38,58.38,0,0,1,6.21-4.76,27.35,27.35,0,0,1,6.62-3.31,39.76,39.76,0,0,1,3.93-5.05,39.09,39.09,0,0,1,9.11-7.26l-.9-.06a47.84,47.84,0,0,0-4.79.05,26.52,26.52,0,0,0-9.3,2.32c-.17.07-.3-.19-.13-.27a42.58,42.58,0,0,1,9.3-2.79,26.4,26.4,0,0,1,4.7-.41c.85,0,1.7.07,2.54.15l.48,0a40.44,40.44,0,0,1,8.69-3.2l-.84-.23a44.76,44.76,0,0,0-4.47-.73,34.93,34.93,0,0,0-9,.14c-.18,0-.23-.26-.05-.28a55.59,55.59,0,0,1,9.12-.37,37.67,37.67,0,0,1,7.58,1,40.26,40.26,0,0,1,5.5-.63c10.51-.44,22,3.49,28.44,12.13s7.74,20.18,8.89,30.61c1.59,14.53,2.32,29.25,1.15,43.83-.07.86-1.28.7-1.31-.12-.39-12.39-.83-24.78-2-37.13-.55-5.71-1.16-11.45-2.11-17.12a50.64,50.64,0,0,0-4.16-14.1A25.82,25.82,0,0,0,246,314.35a34.43,34.43,0,0,0-14.42-4.43,38.68,38.68,0,0,0-13.52,1.27,8.77,8.77,0,0,1,.07,2.66,14.86,14.86,0,0,1-.66,3.3,17.15,17.15,0,0,1-1.26,2.92c-.56,1-1.26,2-1.88,2.95-.1.16-.35,0-.24-.16a13.7,13.7,0,0,0,2.34-5.95,22.55,22.55,0,0,0,.36-3.07c0-.78,0-1.56,0-2.33a39.86,39.86,0,0,0-13.16,6.95c-.74.58-1.44,1.2-2.13,1.84a14.76,14.76,0,0,1,2.55,3.14,30.29,30.29,0,0,1,2.68,4.78,40,40,0,0,1,2.79,10.49c0,.18-.26.23-.28.05a30.58,30.58,0,0,0-3.43-9.94,42.18,42.18,0,0,0-2.67-4.42c-.51-.72-1-1.44-1.59-2.13-.29-.38-.62-.76-.9-1.16a41.58,41.58,0,0,0-8.55,12l.06,0a20.13,20.13,0,0,1,3.53,5.07,48.1,48.1,0,0,1,2.83,6,102.35,102.35,0,0,1,3.59,12.29c.05.18-.24.24-.28.05a51.36,51.36,0,0,0-4.28-12.11c-.9-1.89-1.85-3.74-2.85-5.58a51.38,51.38,0,0,1-2.83-5.27,38.68,38.68,0,0,0-3.44,14c0,.19-.3.16-.29,0a48.66,48.66,0,0,1,6.77-21.43c-1.84.78-3.69,1.54-5.47,2.5a30.38,30.38,0,0,0-6.27,4.4C183.07,333.2,182.88,333,183,332.86Z"/><path class="cls-4" d="M205.13,334c.9,3,2,5.87,2.86,8.88a34.48,34.48,0,0,1,1.33,8.86c0,.08-.13.08-.14,0a87.1,87.1,0,0,0-4.32-17.66A.14.14,0,1,1,205.13,334Z"/><path class="cls-4" d="M186,326.59a16.78,16.78,0,0,1,4-2.85,28.21,28.21,0,0,1,4.62-1.64c.18-.05.24.24.05.28a18.32,18.32,0,0,0-4.44,1.83,32.42,32.42,0,0,0-4.1,2.52A.09.09,0,0,1,186,326.59Z"/><path class="cls-3" d="M237.22,290.62s-2.88-35.27-29.1-46.7c-21.89-9.55-34.43,15.05-19,30.11C201.69,286.22,221.77,280.72,237.22,290.62Z"/><path class="cls-4" d="M194,250.75a108.89,108.89,0,0,1,11.66,5.52,85.54,85.54,0,0,1,9,6c-.43-.89-.81-1.83-1.25-2.7q-1-2-2.23-4a37.39,37.39,0,0,0-5.77-7.31c-.14-.12.08-.33.21-.19a57.68,57.68,0,0,1,6.08,7.07,45.79,45.79,0,0,1,2.49,4,16.06,16.06,0,0,1,1.76,4.06c.09.08.2.14.29.22a85.79,85.79,0,0,1,12.52,12.25c-.07-.35-.14-.69-.23-1-.49-1.72-1-3.43-1.59-5.13a43.59,43.59,0,0,0-4.74-10.28c-.1-.16.16-.3.25-.14a82,82,0,0,1,5.49,10,36.91,36.91,0,0,1,1.81,5.21,23.2,23.2,0,0,1,.86,3.54c1.14,1.45,2.26,2.91,3.32,4.42,11.25,16,16.91,35.41,18.26,54.8a165,165,0,0,1,.29,17.37A108.37,108.37,0,0,1,251,371.93c-.07.36-.65.25-.64-.1.13-5.1.66-10.17.76-15.27s-.08-10.23-.49-15.31a142.55,142.55,0,0,0-5.72-30A107.59,107.59,0,0,0,231.6,283c-1.11-.22-2.2-.52-3.29-.8-1.31-.33-2.62-.67-3.92-1a39.25,39.25,0,0,1-7.31-2.68c-.17-.09,0-.34.15-.25a23.72,23.72,0,0,0,7.41,2.56c2.05.41,4.19.68,6.24,1.15a99,99,0,0,0-6.1-8,45.35,45.35,0,0,1-14.91-1.11,60.3,60.3,0,0,1-7.64-2.38c-2.62-1-5.11-2.31-7.7-3.39a.14.14,0,1,1,.12-.26c4.44,2.7,10,4.08,15.12,4.95a95.76,95.76,0,0,0,14.14,1.17c-1.86-2.14-3.78-4.22-5.84-6.18-6.88-6.56-15.07-12.59-24.13-15.73C193.76,251,193.85,250.68,194,250.75Z"/><path class="cls-4" d="M215.36,250.86a38.59,38.59,0,0,1,3.21,4.7,25.81,25.81,0,0,1,2.31,5.47.05.05,0,0,1-.1,0c-.88-1.73-1.62-3.53-2.5-5.25a26.87,26.87,0,0,0-3.13-4.77C215,250.91,215.24,250.71,215.36,250.86Z"/><path class="cls-4" d="M191,262.6a27.45,27.45,0,0,0,5.37,2.24,49.18,49.18,0,0,0,5.48,1.47c.08,0,.06.17,0,.15a26.22,26.22,0,0,1-5.67-1.24,46.57,46.57,0,0,1-5.31-2.38C190.66,262.76,190.81,262.5,191,262.6Z"/><path class="cls-3" d="M257.61,284.27c.16,1.52,4-12.81,26.13-25.53,20.14-11.55,44.17-41.59,24.43-60.58C292.23,182.84,250.25,216.24,257.61,284.27Z"/><path class="cls-4" d="M242.35,366.41a393.4,393.4,0,0,1,3.51-44.57,200.75,200.75,0,0,1,9.37-39.9c1.65-4.66,3.53-9.25,5.58-13.77a31.88,31.88,0,0,1,.09-5.27c.11-2.26.31-4.51.52-6.76s.44-4.5.71-6.75.74-4.48.83-6.72a.14.14,0,1,1,.28,0,47.41,47.41,0,0,0-.79,7.14q-.26,3.26-.36,6.53c-.07,2.18-.06,4.36-.06,6.55,0,.78,0,1.62.07,2.46,2.09-4.41,4.32-8.74,6.74-13-1.5-9.19.45-18.8,2.33-27.78,0-.19.31-.1.27.08A78.26,78.26,0,0,0,270,239c-.08,3.78.09,7.55.11,11.33.53-.91,1.06-1.81,1.6-2.71,2.88-4.69,5.95-9.29,9.21-13.76a21.42,21.42,0,0,1,.22-6.54,48.46,48.46,0,0,1,1.61-7.16,72.82,72.82,0,0,1,2.45-6.92c1-2.34,2.24-4.54,3.17-6.88a.14.14,0,1,1,.26.12,33.74,33.74,0,0,0-2.78,6.95,60.86,60.86,0,0,0-1.81,6.9q-.7,3.5-1.18,7c-.22,1.56-.36,3.18-.63,4.75A169.32,169.32,0,0,1,297.74,214c.13-.14.32.07.19.21a204.46,204.46,0,0,0-22.54,30.66l-.71,1.23c1.22-.76,2.62-1.37,3.77-2,2.15-1.19,4.31-2.38,6.47-3.55s4.19-2.28,6.28-3.44c1.07-.59,2.13-1.21,3.23-1.77a26.51,26.51,0,0,0,3.76-2.09c.16-.12.34.14.16.23-2.13,1.18-4,2.92-6.08,4.23s-4.17,2.6-6.32,3.8c-3.95,2.2-8.23,3.78-12.11,6.05-2.69,4.71-5.17,9.55-7.46,14.47,2.36-1.51,4.76-2.94,7.2-4.31,1.58-.88,3.15-1.75,4.74-2.58a23.32,23.32,0,0,0,4.47-2.7.15.15,0,0,1,.2.21,42.27,42.27,0,0,1-8.52,5.92c-2.85,1.67-5.73,3.27-8.69,4.73q-3.55,7.79-6.41,15.86c-9.33,26.42-12.76,54.47-14.4,82.33-.49,8.31-.74,16.61-.85,24.92s.34,16.61.32,24.91c0,.24-.4.3-.44.05-1-7.37-1.17-14.86-1.49-22.28S242.18,374,242.35,366.41Z"/><path class="cls-4" d="M282.63,246.8a105.92,105.92,0,0,0,11.78-6.1,121.86,121.86,0,0,0,11.18-7.1c.06,0,.14.06.08.11a94.8,94.8,0,0,1-10.74,7.51,108.7,108.7,0,0,1-12.17,5.83C282.59,247.12,282.46,246.87,282.63,246.8Z"/><path class="cls-4" d="M276.2,216.93c.33-1.29.74-2.56,1.17-3.81a.11.11,0,0,1-.05-.15c.28-.71.57-1.42.86-2.13a2.26,2.26,0,0,1,.11-.26c0-.13.11-.27.16-.41s.09,0,.07,0c-.08.24-.14.49-.21.73s-.07.27-.12.41a106,106,0,0,0-3.29,15c0,.16-.27.17-.26,0A50.49,50.49,0,0,1,276.2,216.93Z"/><polygon class="cls-5" points="218.92 371.77 220.5 390.52 225.35 447.71 277.22 447.71 282.06 390.52 283.64 371.77 218.92 371.77"/><polygon class="cls-4" points="218.92 371.77 220.5 390.52 282.06 390.52 283.64 371.77 218.92 371.77"/><rect class="cls-5" x="213.83" y="364.25" width="74.9" height="17.99" transform="translate(502.57 746.49) rotate(-180)"/><rect class="cls-6" x="-471.07" y="121.78" width="509.67" height="77.25" transform="translate(-432.48 320.81) rotate(-180)"/><path class="cls-7" d="M-471.94,120.92H39.46v79h-511.4Zm509.67,1.72H-470.21v75.53H37.73Z"/><path class="cls-5" d="M-24.09,160.4a41.36,41.36,0,0,0,8.84,2A69.19,69.19,0,0,0-6.4,163a67.25,67.25,0,0,0,8.84-.55,41.61,41.61,0,0,0,8.85-2,42.2,42.2,0,0,0-8.85-2,67.25,67.25,0,0,0-8.84-.55,69.19,69.19,0,0,0-8.85.56A41.94,41.94,0,0,0-24.09,160.4Z"/><path class="cls-5" d="M-18.91,147.9a42,42,0,0,0,4.82,7.69,68.63,68.63,0,0,0,5.86,6.65,70,70,0,0,0,6.64,5.86,41.66,41.66,0,0,0,7.7,4.81,42.5,42.5,0,0,0-4.82-7.69,68.63,68.63,0,0,0-5.86-6.65,69.9,69.9,0,0,0-6.65-5.85A41.42,41.42,0,0,0-18.91,147.9Z"/><path class="cls-5" d="M-18.91,172.91a41.42,41.42,0,0,0,7.69-4.82,69.9,69.9,0,0,0,6.65-5.85,68.63,68.63,0,0,0,5.86-6.65,42.5,42.5,0,0,0,4.82-7.69,41.66,41.66,0,0,0-7.7,4.81,70,70,0,0,0-6.64,5.86,68.63,68.63,0,0,0-5.86,6.65A42,42,0,0,0-18.91,172.91Z"/></g><polygon class="cls-5" points="31.25 167.04 69.5 167.04 69.5 165.53 32.77 165.53 32.77 129 31.25 129 31.25 167.04"/><polygon class="cls-5" points="31.25 38.1 32.77 38.1 32.77 1.57 69.5 1.57 69.5 0.05 31.25 0.05 31.25 38.1"/><polygon class="cls-5" points="258.04 38.1 259.56 38.1 259.56 0.05 221.34 0.05 221.34 1.57 258.04 1.57 258.04 38.1"/><polygon class="cls-5" points="221.34 167.04 259.56 167.04 259.56 129 258.04 129 258.04 165.53 221.34 165.53 221.34 167.04"/><polygon class="cls-5" points="102.11 120.88 119.43 120.88 119.43 119.36 103.62 119.36 103.62 103.64 102.11 103.64 102.11 120.88"/><polygon class="cls-5" points="102.11 63.46 103.62 63.46 103.62 47.73 119.43 47.73 119.43 46.22 102.11 46.22 102.11 63.46"/><polygon class="cls-5" points="187.19 63.46 188.71 63.46 188.71 46.22 171.39 46.22 171.39 47.73 187.19 47.73 187.19 63.46"/><polygon class="cls-5" points="171.39 120.88 188.71 120.88 188.71 103.64 187.19 103.64 187.19 119.36 171.39 119.36 171.39 120.88"/><path class="cls-5" d="M40.35,7.71H57v7.55H40.35Zm16.09.56H40.92v6.42H56.44Z"/><rect class="cls-5" x="44.82" y="8.89" width="10.93" height="5.19" transform="translate(100.57 22.97) rotate(-180)"/><rect class="cls-5" x="38.31" y="9.38" width="1.51" height="4.2" transform="translate(78.13 22.97) rotate(-180)"/><circle class="cls-5" cx="250.57" cy="7.99" r="2.35"/><path class="cls-3" d="M112,164.64s33.71-4.71,25.83-45.4C137.85,119.24,100.19,127.69,112,164.64Z"/><path class="cls-8" d="M112,164.64s33.71-4.71,25.83-45.4C137.85,119.24,100.19,127.69,112,164.64Z"/><path class="cls-4" d="M113.73,156.15c.66-2.06,1.43-4.08,2.29-6.06,0-.26.07-.52.09-.77,0-.56.09-1.12.14-1.68.09-1.22.17-2.43.24-3.65.14-2.43.3-4.86.34-7.29a.1.1,0,1,1,.2,0c0,2.44.06,4.87,0,7.31,0,1.21-.12,2.43-.2,3.64l-.06.81a71.87,71.87,0,0,1,6.76-11.56c1.16-1.61,2.37-3.17,3.68-4.67s2.77-3,4.13-4.52c.08-.1.23.05.14.15a60.16,60.16,0,0,0-6.5,8.63q-1.53,2.32-2.91,4.76l.31-.12,1.21-.49,2.75-1c1.8-.67,3.62-1.33,5.42-2,.11,0,.18.15.07.19-1.79.72-3.56,1.47-5.33,2.24l-2.61,1.12q-.66.28-1.32.54a4.12,4.12,0,0,1-.89.32c-.68,1.22-1.36,2.44-2,3.69a88,88,0,0,0-4.11,9.71c-.09.23-.17.47-.25.7a19.94,19.94,0,0,1,2.76-1.33c1.16-.54,2.33-1.06,3.49-1.59,2.36-1.09,4.71-2.19,7-3.47.11-.06.21.12.1.18-2.32,1.27-4.59,2.61-6.91,3.87-1.16.63-2.32,1.25-3.51,1.82a11,11,0,0,1-3.17,1.27,40.11,40.11,0,0,0-2.2,9.56c-.38,4.6-.34,9.24-.44,13.85a.07.07,0,0,1-.13,0c-.33-4.18-.52-8.4-.54-12.6A36.61,36.61,0,0,1,113.73,156.15Z"/><path class="cls-4" d="M118.92,132.22a40.13,40.13,0,0,1,.33,7.18c0,.07-.1.06-.1,0-.14-2.38-.16-4.75-.43-7.13C118.7,132.14,118.9,132.09,118.92,132.22Z"/><path class="cls-4" d="M128.55,134.26a25.68,25.68,0,0,0,4.34-2.13c.11-.07.21.11.1.18a16.34,16.34,0,0,1-4.38,2.09A.08.08,0,0,1,128.55,134.26Z"/><path class="cls-4" d="M111,229.23c0-3.72.1-7.44.14-11.17.07-12.37.17-24.73.39-37.1q.27-14.73.69-29.45a.17.17,0,0,1,.08-.13c0-2.68,0-5.36,0-8,0-.07.08-.1.16-.1s.16,0,.16.1c0,2.69,0,5.37,0,8.06a.17.17,0,0,1,.08.12c.49,17.47.93,34.95,1,52.42,0,3.56,0,7.11,0,10.67q.18,17.08.13,34.18c0,1.82,0,3.63,0,5.44,0,10.43-.11,20.86-.11,31.28,0,.56-.62.84-1.28.87s-1.57-.27-1.57-.91c0-11.5-.08-23-.07-34.5C110.92,243.73,110.89,236.48,111,229.23Z"/><path class="cls-3" d="M125,217.92s16.21-12,31.6-3.9,17.8,39.4,17.8,39.4-22.6,3.23-36.82-10.31C123.89,230.06,125,217.92,125,217.92Z"/><path class="cls-4" d="M120.6,218.66a19.34,19.34,0,0,1,9.39-1.22,13.42,13.42,0,0,1,2-.2l2.29-.17c1.57-.12,3.15-.22,4.72-.33,3.2-.24,6.41-.44,9.6-.76.11,0,.14.19,0,.2-3.16.41-6.3.86-9.47,1.18-1.63.16-3.26.33-4.89.45-.39,0-.78.07-1.19.11.49.11,1,.22,1.44.36a38.91,38.91,0,0,1,7.35,3c1.27.23,2.54.59,3.79.88q3,.72,6,1.52c3.94,1,7.83,2.19,11.74,3.32a.1.1,0,0,1-.06.2c-3.9-1-7.83-1.83-11.74-2.76-1.9-.46-3.8-.9-5.7-1.37l-1.49-.34a47.26,47.26,0,0,1,11.52,10,62.42,62.42,0,0,1,8,12.63c.06.12-.11.23-.17.11a61.69,61.69,0,0,0-9.69-12.72l.21.65.9,2.87c.6,1.9,1.21,3.81,1.78,5.73a.1.1,0,0,1-.2,0c-.69-1.85-1.33-3.71-2-5.57l-1-2.74c-.17-.47-.33-.95-.49-1.42l-.15-.44a57.93,57.93,0,0,0-5.75-4.9A43.72,43.72,0,0,0,138.8,222c.06.28.11.56.17.83.16.74.32,1.48.47,2.22.32,1.53.62,3.07.92,4.61.61,3.13,1,6.31,1.58,9.45,0,.13-.17.18-.2,0-.73-3.16-1.67-6.26-2.37-9.42-.35-1.58-.71-3.16-1-4.75l-.45-2.22c-.08-.42-.18-.83-.23-1.25-.29-.11-.58-.25-.88-.36-4.25-1.57-9-2.72-13.48-1.85a13.28,13.28,0,0,0-9.76,7.82c-.15.35-.7.13-.62-.23C113.79,223.05,117,220.16,120.6,218.66Z"/><path class="cls-4" d="M145.42,232c.46,2,.91,4.11,1.37,6.16a45.46,45.46,0,0,1,1.13,6c0,.08-.11.09-.13,0a47.61,47.61,0,0,1-1.38-6c-.4-2-.8-4.05-1.19-6.08A.1.1,0,0,1,145.42,232Z"/><path class="cls-4" d="M161.1,237.24c2.06,1,4.06,2.24,6.22,3.09a.11.11,0,1,1-.09.19,65.69,65.69,0,0,1-6.18-3.2C161,237.29,161.05,237.21,161.1,237.24Z"/><path class="cls-3" d="M121.38,195.86s19.81,1.27,29-11.8,7.14-31.72,7.14-31.72-20.81,2.53-29.07,11.91S121.38,195.86,121.38,195.86Z"/><path class="cls-4" d="M112.08,215.41c.68-2.12,1.54-4.21,2.34-6.29s1.59-4,2.46-5.94a121.81,121.81,0,0,1,5.94-11.67c1.4-2.41,2.9-4.75,4.44-7,0-.35.1-.7.15-1.06.09-.61.18-1.22.28-1.83.2-1.26.42-2.51.62-3.76.46-2.74,1-5.46,1.46-8.19,0-.13.22-.13.21,0-.4,2.7-.68,5.42-1,8.13-.19,1.33-.36,2.66-.57,4-.07.48-.15.95-.22,1.43a142.8,142.8,0,0,1,9.8-12.71c.47-.55,1-1.08,1.45-1.62a4.22,4.22,0,0,1,.18-.45c.15-.38.29-.76.43-1.13.29-.79.58-1.58.86-2.37.55-1.55,1-3.12,1.47-4.71a.1.1,0,0,1,.2.06c-.4,1.63-.82,3.25-1.3,4.86-.23.77-.48,1.54-.76,2.3,0,.13-.09.25-.14.38,2.54-2.76,5.18-5.42,7.85-8.05.09-.09.23.06.14.15a140.49,140.49,0,0,0-14,17.2,12.69,12.69,0,0,1,1.47-.38c1.52-.29,3.06-.51,4.6-.7,3.23-.41,6.45-.82,9.66-1.33.13,0,.18.17.05.2-3.07.61-6.11,1.3-9.16,2-1.44.33-2.88.61-4.33.9a25.65,25.65,0,0,0-3.48,1l-1,1.37c-1.45,2.11-2.85,4.27-4.21,6.45l2-.4c1.53-.29,3.07-.57,4.6-.82,3-.5,6.05-1,9-1.7a.1.1,0,1,1,.05.19c-3,.72-6,1.55-9,2.35-1.45.38-2.92.74-4.38,1.06l-2.2.48a6.49,6.49,0,0,1-.9.15c-2.89,4.69-5.61,9.5-8.12,14.4-1.11,2.15-2.17,4.33-3.2,6.52s-2,4.55-2.94,6.83C112.64,216.1,111.92,215.91,112.08,215.41Z"/><path class="cls-4" d="M132.36,169.88c.38-1.89.77-3.78,1.19-5.66,0-.13.23-.07.2.06-.38,1.86-.73,3.72-1.07,5.58a55.07,55.07,0,0,1-1.12,5.55,0,0,0,0,1-.07,0A39.62,39.62,0,0,1,132.36,169.88Z"/><path class="cls-4" d="M143.91,169.33c.92-.46,1.89-.83,2.85-1.2l1.5-.59.77-.31a4.17,4.17,0,0,0,.84-.36c.15-.12.24.15.09.17a3.91,3.91,0,0,0-.85.35l-.74.33-1.45.65a30.75,30.75,0,0,1-2.93,1.16C143.88,169.56,143.81,169.38,143.91,169.33Z"/><path class="cls-3" d="M101.1,180.28s-12-22.39-30.24-25.86-29.4,15.3-29.4,15.3,13.3,17,30,20S101.1,180.28,101.1,180.28Z"/><path class="cls-4" d="M58.64,164.46a49,49,0,0,1,14.31.17l-.82-.44q-2-1-4-2.08c-2.8-1.46-5.64-3-8.57-4.19a.1.1,0,1,1,.09-.18c2.85,1.33,5.81,2.44,8.67,3.76q2.14,1,4.23,2.08c.9.48,1.9.93,2.78,1.5a50.18,50.18,0,0,1,11.6,3.85c-.76-.83-1.53-1.66-2.28-2.49-1.7-1.86-3.38-3.81-5.24-5.51-.1-.09,0-.23.14-.14,1.91,1.74,3.93,3.34,5.78,5.14.9.88,1.76,1.78,2.6,2.72.41.46.83.94,1.23,1.44a48.07,48.07,0,0,1,24.45,33c0,.13-.15.2-.19.07A55,55,0,0,0,100,180.49a52.52,52.52,0,0,0-41.3-15.67A.18.18,0,0,1,58.64,164.46Z"/><path class="cls-8" d="M41.46,169.72s13.3,17,30.05,20c12.77,2.26,23.27-4.4,27.54-7.68l.92-1.51S91.33,173.21,75,169,41.46,169.72,41.46,169.72Z"/><path class="cls-4" d="M69.23,156.47a48.15,48.15,0,0,1,4.06,2.67,26.14,26.14,0,0,1,3.51,3.22.11.11,0,0,1-.15.15c-1.21-1-2.43-2.1-3.69-3.1a38.31,38.31,0,0,0-3.83-2.76C69,156.58,69.12,156.4,69.23,156.47Z"/><path class="cls-4" d="M59.22,160.26c.68.28,1.37.53,2.05.81l2,.84c.14.06.07.3-.08.24l-2-.83c-.68-.27-1.34-.59-2-.86C59,160.41,59.1,160.21,59.22,160.26Z"/><path class="cls-3" d="M103.49,208.47s-3.2,22.22-19.91,30-37.08,0-37.08,0S54.51,190.39,103.49,208.47Z"/><path class="cls-4" d="M58,224c1.54-.18,3.07-.44,4.59-.72l2.25-.42c.38-.08.78-.17,1.17-.24.45-.42.89-.84,1.36-1.25A67.46,67.46,0,0,1,77.6,214a57.09,57.09,0,0,1,6.13-3.14h-.32l-5.5.24c-3.66.17-7.33.25-11,.49-.14,0-.13-.2,0-.21,3.68-.25,7.34-.65,11-1l5.34-.47,2.76-.24.7-.08c1-.35,1.91-.69,2.88-1a26.05,26.05,0,0,1,14.16-.78c4.2,1.07,8.39,3.83,9.48,8.26,0,.15-.2.26-.26.1-1.57-3.7-5.68-5.56-9.39-6.33a22.38,22.38,0,0,0-7.57-.15,17.77,17.77,0,0,1-.84,3.36c-.46,1.56-.92,3.13-1.39,4.69-1,3.12-2,6.21-2.92,9.34,0,.12-.22.06-.19-.06.77-3.12,1.43-6.27,2.18-9.39.37-1.54.75-3.07,1.13-4.6a26.56,26.56,0,0,1,.85-3.16,41.5,41.5,0,0,0-4.34,1,64.8,64.8,0,0,0-7.57,2.78c-.25,1.58-.6,3.15-1,4.71-.46,2-1,3.91-1.59,5.83,0,.12-.21.06-.19-.06s0-.24.08-.36h0c.38-1.82.78-3.63,1.16-5.44.31-1.47.59-2.94.91-4.4-2.08.94-4.12,2-6.09,3.09,0,.45-.15.91-.22,1.33q-.18,1.14-.39,2.28c-.32,1.71-.66,3.42-1.07,5.11a80.59,80.59,0,0,1-2.87,9.66.11.11,0,0,1,0,.13l-.09.11c-.07.09-.19,0-.17-.1.77-3.29,1.66-6.56,2.38-9.86.36-1.65.72-3.3,1.06-5,.16-.83.31-1.66.47-2.48q.06-.36.12-.75A70.29,70.29,0,0,0,59,231c-.12.14-.35,0-.24-.2,1.27-1.67,2.54-3.31,4-4.86.84-.9,1.71-1.77,2.6-2.62l-.28,0c-.78.13-1.56.25-2.35.35-1.55.21-3.1.36-4.64.54C57.94,224.22,57.89,224,58,224Z"/><path class="cls-4" d="M69.76,231.54h0c0-.19.06-.38.09-.57s.17-.49.21-.73h0c.34-1.48.64-3,.9-4.48,0-.11.19-.08.18,0a18.12,18.12,0,0,1-1.27,5.8.06.06,0,0,1-.12,0Z"/><path class="cls-4" d="M83.74,231.19a.09.09,0,0,1,.1-.1c.47-2,.92-3.93,1.33-5.92.21-1,.43-2.08.63-3.12.1-.56.21-1.13.31-1.69a4.69,4.69,0,0,1,.36-1.44.1.1,0,0,1,.18,0,9.84,9.84,0,0,1-.41,3c-.21,1.08-.42,2.16-.66,3.24-.48,2.19-1,4.38-1.65,6.53a.11.11,0,0,1-.22,0Z"/><path class="cls-4" d="M59.54,217.61c3.05-.42,6.1-.86,9.16-1.23.13,0,.18.18,0,.2-3,.45-6.11.83-9.16,1.23C59.46,217.83,59.41,217.63,59.54,217.61Z"/><path class="cls-3" d="M112.05,156.36s10.22-44.85-38-63C74.08,93.36,60.73,152.4,112.05,156.36Z"/><path class="cls-4" d="M101.65,130.93l-.52-.32-2.72-1.52L92.82,126c-3.68-2-7.31-4.19-11-6.21-.12-.06,0-.23.1-.17,3.71,2,7.49,3.9,11.22,5.88l5.52,2.92c.76.39,1.51.79,2.26,1.19-1.61-3-3.32-6-5.21-8.92-2.52-3.84-5.28-7.5-8.15-11.08a.17.17,0,0,1,.24-.23A76.64,76.64,0,0,1,98.93,123c0-.15,0-.31,0-.46,0-1.12-.08-2.23-.1-3.35,0-2.19.08-4.38,0-6.57,0-.13.2-.12.21,0,.09,2.15.35,4.3.47,6.45.06,1.08.11,2.15.14,3.23,0,.58.07,1.24,0,1.88q1.49,2.37,2.84,4.8a82.36,82.36,0,0,1,4.31,9c0-1.12.12-2.24.18-3.35.15-2.46.45-4.9.55-7.36,0-.13.21-.13.21,0,0,2.46.06,4.92,0,7.37,0,1.23-.07,2.46-.15,3.69l-.09,1.37a80.76,80.76,0,0,1,3.64,12.32,134.15,134.15,0,0,1,1.8,13.54s0,0,0,0a74.49,74.49,0,0,0-2.56-12.07c-.6-2.12-1.23-4.23-1.91-6.32-2-.94-3.92-2.12-5.86-3.19s-4-2.21-6-3.31c-4-2.2-8-4.45-12.19-6.4-.12,0,0-.23.11-.17,4.2,1.9,8.44,3.71,12.56,5.78,2.06,1,4.08,2.14,6.08,3.26,1.67.95,3.39,1.89,5,3-.47-1.39-1-2.78-1.49-4.16A119,119,0,0,0,101.65,130.93Z"/><path class="cls-4" d="M105.71,120.67a.11.11,0,0,1,.21,0c-.18,2.56-.26,5.11-.54,7.67a.11.11,0,0,1-.22,0C105.25,125.78,105.52,123.23,105.71,120.67Z"/><path class="cls-4" d="M82.61,129.24c3,1.21,6.06,2.37,9.06,3.62.08,0,0,.17,0,.14-3-1.14-6.05-2.38-9.07-3.56C82.42,129.39,82.48,129.19,82.61,129.24Z"/><path class="cls-4" d="M78,108.55a80.21,80.21,0,0,1,8.57,4.6c.14.09,0,.3-.14.22-2.79-1.64-5.64-3.2-8.54-4.64C77.8,108.67,77.91,108.5,78,108.55Z"/><rect class="cls-5" x="78.75" y="253.35" width="69.5" height="73.25" transform="translate(227 579.96) rotate(-180)"/><rect class="cls-4" x="149.48" y="279.27" width="3.56" height="125.47"/><rect class="cls-4" x="74.35" y="279.27" width="3.56" height="125.47"/><rect class="cls-4" x="110.02" y="279.27" width="3.56" height="125.47"/><rect class="cls-4" x="76.12" y="321.91" width="75.13" height="10.14" transform="translate(227.38 653.96) rotate(-180)"/><path class="cls-4" d="M132,92.69c-1.54,1.06,2,5,3,6.49s4.28,7.55,5.07,7-1.13-5.43-3.2-9C135.21,94.37,132.93,92,132,92.69Z"/><path class="cls-4" d="M132.83,87.15a3.52,3.52,0,0,0-.81,1.32A5,5,0,0,0,131.7,90a5.42,5.42,0,0,0,.18,1.56,4.89,4.89,0,0,0,.63,1.42c-.09-.51-.2-1-.25-1.49a9,9,0,0,1-.07-1.47,7.89,7.89,0,0,1,.19-1.45A8.45,8.45,0,0,1,132.83,87.15Z"/><path class="cls-4" d="M133.78,85.67c.33.06-.17,1.36-.58,1.59a3.47,3.47,0,0,1-.68.3S133.46,85.61,133.78,85.67Z"/><path class="cls-4" d="M127.48,88.81a4.26,4.26,0,0,1,1.29.83,13.88,13.88,0,0,1,1.08,1.09c.35.38.68.77,1,1.16s.67.8,1,1.19a9,9,0,0,0-.73-1.41,9.92,9.92,0,0,0-1-1.27A7.19,7.19,0,0,0,129,89.34,2.64,2.64,0,0,0,127.48,88.81Z"/><path class="cls-4" d="M126.81,88.13c-.27.2.74,1.15,1.21,1.18a4.42,4.42,0,0,0,.75,0S127.07,87.94,126.81,88.13Z"/><path class="cls-4" d="M143.21,88.65Z"/><path class="cls-3" d="M143.05,96.85c-.42,3.33,10.14,8.21,12.12,9.86.72.59,1.82,1.64,3.07,2.67h0c.13.12.28.23.42.35,1.83,1.46,3.89,2.76,5.42,2.48l.2,0a2.61,2.61,0,0,0,.54-.24c2.6-1.67,7.84-16,0-23.76-1.88-1.88-5.22-1.56-8.73-.28h0C149.94,90.15,143.24,95.39,143.05,96.85Z"/><path class="cls-9" d="M143.05,96.85c-.42,3.33,10.14,8.21,12.12,9.86.72.59,1.82,1.64,3.07,2.67h0c.13.12.28.23.42.35,1.83,1.46,3.89,2.76,5.42,2.48l.2,0a2.61,2.61,0,0,0,.54-.24c2.6-1.67,7.84-16,0-23.76-1.88-1.88-5.22-1.56-8.73-.28h0C149.94,90.15,143.24,95.39,143.05,96.85Z"/><path class="cls-4" d="M164.12,91.29c2.72,5,1.77,13.44.21,17-1.13,2.55-5.21,1.41-6.08,1.13.13.12.28.23.42.35,1.83,1.46,3.89,2.76,5.42,2.48l.2,0a2.61,2.61,0,0,0,.54-.24c2.6-1.67,7.84-16,0-23.76-1.88-1.88-5.22-1.56-8.73-.28h0C159.39,87.68,162.73,88.71,164.12,91.29Z"/><g class="cls-10"><path d="M163.26,110.93a39.07,39.07,0,0,0-4.4-4.42,14.29,14.29,0,0,0-2.69-1.63c-.93-.47-1.88-.91-2.82-1.35a34.26,34.26,0,0,1-5.5-2.8c-.87-.56-1.73-1.14-2.55-1.77a11.53,11.53,0,0,1-2.25-2.11,10.91,10.91,0,0,0,2.1,2.3c.8.67,1.64,1.29,2.49,1.89.43.3.85.59,1.3.87s.92.51,1.39.74c.94.46,1.88.89,2.82,1.33s1.89.84,2.82,1.3a16.25,16.25,0,0,1,2.66,1.53c.82.61,1.59,1.3,2.36,2S162.51,110.21,163.26,110.93Z"/><path d="M165.74,107.43a21.73,21.73,0,0,0-2.87-1.87,12.91,12.91,0,0,0-3.19-1.31,23.32,23.32,0,0,0-3.4-.53l-1.71-.12c-.57,0-1.14,0-1.71,0l3.37.52c1.12.18,2.24.36,3.33.62a17.51,17.51,0,0,1,3.14,1.17c.51.24,1,.49,1.52.75S165.23,107.17,165.74,107.43Z"/><path d="M166.3,103c-1,0-2.05-.09-3.07-.16s-2-.13-3.06-.22-2-.2-3-.38a6.63,6.63,0,0,1-.75-.15,5.86,5.86,0,0,1-.72-.19l-.34-.12-.32-.16a7.86,7.86,0,0,0-.71-.36,23.94,23.94,0,0,0-3-.85c-1-.24-2-.52-2.94-.83a11.94,11.94,0,0,1-5.16-3.14,9.42,9.42,0,0,0,2.26,2.1,13.81,13.81,0,0,0,2.77,1.39,28.81,28.81,0,0,0,3,.91,22.32,22.32,0,0,1,2.91.87c.24.08.41.21.66.32l.38.18a2.43,2.43,0,0,0,.38.13,7.1,7.1,0,0,0,.76.2c.26.06.51.1.77.14a26.77,26.77,0,0,0,3.08.31A57.53,57.53,0,0,0,166.3,103Z"/><path d="M166.16,99.36q-2.9-.3-5.81-.35a28.68,28.68,0,0,0-2.93.09c-.49,0-1,.17-1.42.17a8.52,8.52,0,0,1-1.4-.18A55.55,55.55,0,0,1,149,97.54l-2.79-.85q-.7-.19-1.41-.36a3.58,3.58,0,0,0-1.45-.15,1.71,1.71,0,0,1,.71.08c.24,0,.47.12.7.19.46.14.92.31,1.38.47l2.74,1c.91.34,1.84.63,2.77.92s1.86.56,2.83.76a7.24,7.24,0,0,0,1.49.16c.55,0,1-.16,1.46-.19.95-.1,1.92-.12,2.89-.15s1.93,0,2.9,0Z"/><path d="M165.92,95.68a20.93,20.93,0,0,0-3.7.39,11.28,11.28,0,0,0-1.81.5c-.57.21-1.15.4-1.74.58-1.17.37-2.35.68-3.55.95a17.84,17.84,0,0,1-3.65.42,8.91,8.91,0,0,0,1.86.12c.62,0,1.24-.09,1.86-.17a26.56,26.56,0,0,0,3.63-.85c.59-.19,1.18-.39,1.76-.62a12.83,12.83,0,0,1,1.72-.57c.59-.16,1.19-.29,1.8-.41S165.31,95.79,165.92,95.68Z"/><path d="M164,90.49c-.74.52-1.47,1.05-2.22,1.55s-1.5,1-2.27,1.45a13.84,13.84,0,0,1-2.39,1.16l-1.29.34c-.44.08-.87.19-1.31.24a26.55,26.55,0,0,1-5.35.24,17.54,17.54,0,0,0-5.41.26,10.54,10.54,0,0,1,2.69-.1c.9.05,1.79.15,2.7.22a22.52,22.52,0,0,0,5.44-.14,17.55,17.55,0,0,0,2.67-.63,12,12,0,0,0,2.44-1.27A36.47,36.47,0,0,0,164,90.49Z"/><path d="M161.61,88.74a16.47,16.47,0,0,0-2.51,1.19,8.28,8.28,0,0,0-1.17.79,3.93,3.93,0,0,0-1,1,23.41,23.41,0,0,1-1.61,2.2,8.71,8.71,0,0,1-.93,1,2.54,2.54,0,0,1-1.15.68,2.42,2.42,0,0,0,1.31-.49,6.61,6.61,0,0,0,1.06-.91A13.52,13.52,0,0,0,157.35,92a7,7,0,0,1,1.94-1.79C160,89.72,160.82,89.23,161.61,88.74Z"/><path d="M158.21,87.6a30,30,0,0,0-3.49,2.08A15,15,0,0,0,153.11,91c-.51.5-.92,1-1.43,1.42a9.91,9.91,0,0,1-1.6,1.14,10.88,10.88,0,0,1-1.82.79,33.55,33.55,0,0,1-3.94.83,19.74,19.74,0,0,0,4-.49,8.34,8.34,0,0,0,1.93-.73A9.58,9.58,0,0,0,152,92.74c.52-.44,1-1,1.44-1.44A19.23,19.23,0,0,1,155,90c.52-.42,1.06-.82,1.61-1.21Z"/><circle cx="163.31" cy="93.72" r="0.59" transform="translate(25.67 222.2) rotate(-72.88)"/><path d="M163.42,97.56a.58.58,0,0,0,.51.66.59.59,0,1,0,.14-1.17A.58.58,0,0,0,163.42,97.56Z"/><path d="M163.36,100.82a.59.59,0,1,0,.66-.51A.59.59,0,0,0,163.36,100.82Z"/><path d="M162.89,104.48a.59.59,0,0,0,1.17.15.59.59,0,0,0-.51-.66A.59.59,0,0,0,162.89,104.48Z"/><path d="M161.58,107.36a.58.58,0,0,0,.51.66.59.59,0,1,0,.14-1.17A.58.58,0,0,0,161.58,107.36Z"/><path d="M157.77,108.22a.57.57,0,0,0,.51.66.59.59,0,1,0,.14-1.17A.58.58,0,0,0,157.77,108.22Z"/><path d="M160.42,90.72a.58.58,0,0,0,.51.66.59.59,0,1,0-.51-.66Z"/><path d="M157.42,89.15a.58.58,0,0,0,.51.66.59.59,0,1,0-.51-.66Z"/></g><path class="cls-3" d="M141.62,95.07c1.28.9,5.92-.58,12-3.6a38.72,38.72,0,0,0,9.89-7.09c1.58-1.63,2.62-3.16,2.74-4.28.29-2.82-2.4-4.69-3.46-5.79s-.41-2.55-2.5-4.41c-1.88-1.68-4-.94-7.71,2.41q-.62.56-1.29,1.2C146.84,77.87,139.4,93.53,141.62,95.07Z"/><path class="cls-11" d="M141.62,95.07c1.28.9,5.92-.58,12-3.6a38.72,38.72,0,0,0,9.89-7.09c1.58-1.63,2.62-3.16,2.74-4.28.29-2.82-2.4-4.69-3.46-5.79s-.41-2.55-2.5-4.41c-1.88-1.68-4-.94-7.71,2.41q-.62.56-1.29,1.2C146.84,77.87,139.4,93.53,141.62,95.07Z"/><g class="cls-10"><path d="M158.34,70.44a14.43,14.43,0,0,0-6.06,4.45,44.74,44.74,0,0,0-4,6.46c-.6,1.1-1.22,2.19-1.9,3.24-.34.53-.69,1-1.06,1.55l-.54.78-.51.8a27.37,27.37,0,0,0-3,7,30.28,30.28,0,0,1,1.46-3.47,30.94,30.94,0,0,1,1.84-3.28c.34-.52.7-1,1.07-1.53s.74-1,1.09-1.55c.71-1.06,1.34-2.15,2-3.26a49.63,49.63,0,0,1,3.82-6.46,14.93,14.93,0,0,1,2.6-2.67A14.3,14.3,0,0,1,158.34,70.44Z"/><path d="M160.17,72.67,158.93,74c-.4.44-.82.88-1.24,1.31s-.85.85-1.31,1.24a5,5,0,0,1-1.44,1c-1.08.46-2.28.75-3.4,1.26a8.49,8.49,0,0,0-1.61.9,3.84,3.84,0,0,0-1.18,1.39,4.06,4.06,0,0,1,1.32-1.19,8.43,8.43,0,0,1,1.61-.75c1.13-.41,2.3-.68,3.46-1.16a5.43,5.43,0,0,0,1.55-1.07A14.48,14.48,0,0,0,158,75.57,27,27,0,0,0,160.17,72.67Z"/><path d="M162,75.63c-.69,1-1.4,1.93-2.14,2.86s-1.49,1.86-2.3,2.72a14.94,14.94,0,0,1-2.62,2.35,34.53,34.53,0,0,1-3.08,1.76c-1,.56-2.12,1.09-3.16,1.7a12.41,12.41,0,0,0-1.51,1,4.46,4.46,0,0,0-.68.63c-.21.25-.36.49-.54.74-.69,1-1.42,1.9-2.15,2.84l-2.19,2.83c1.61-1.77,3.17-3.56,4.64-5.45.19-.24.37-.49.55-.69a4.27,4.27,0,0,1,.63-.57,12.51,12.51,0,0,1,1.48-1c1-.58,2.09-1.1,3.15-1.65a30.49,30.49,0,0,0,3.11-1.83,13.47,13.47,0,0,0,2.65-2.46A41.74,41.74,0,0,0,162,75.63Z"/><path d="M165,79.68c-.82.83-1.62,1.66-2.45,2.47s-1.64,1.63-2.49,2.42-1.71,1.56-2.62,2.25a15,15,0,0,1-3,1.71c-1,.49-2.12.91-3.2,1.33-.54.21-1.08.42-1.62.65a6.65,6.65,0,0,0-1.55.88c-.9.71-1.87,1.35-2.83,2l-2.9,1.93a62,62,0,0,0,6-3.63,7.26,7.26,0,0,1,1.49-.78c.53-.22,1.07-.42,1.61-.63,1.09-.4,2.18-.81,3.24-1.3a15.23,15.23,0,0,0,3-1.8,30.54,30.54,0,0,0,2.61-2.33A69.14,69.14,0,0,0,165,79.68Z"/><path d="M163.68,77.05a21.28,21.28,0,0,0-2.51,2.23,15.46,15.46,0,0,0-2.08,2.66,12.46,12.46,0,0,0-.75,1.51c-.22.52-.45,1-.65,1.55a10.46,10.46,0,0,1-1.57,2.9,6.75,6.75,0,0,0,1.11-1.27,14.17,14.17,0,0,0,.81-1.48c.25-.5.47-1,.72-1.5a12.5,12.5,0,0,1,.75-1.46,21.49,21.49,0,0,1,1.94-2.66c.36-.42.72-.84,1.1-1.25S163.3,77.46,163.68,77.05Z"/><path d="M160.89,74.63c-1.15.87-2.27,1.79-3.38,2.73s-2.19,1.89-3.24,2.91a7.22,7.22,0,0,0-.73.83l-.66.87-1.29,1.74q-.63.89-1.29,1.74a14.68,14.68,0,0,1-1.36,1.68,22.87,22.87,0,0,0,2.95-3.19c.47-.55.91-1.12,1.36-1.69a15.86,15.86,0,0,1,1.37-1.64c1-1,2.09-2,3.14-3l1.58-1.49Z"/></g><path class="cls-4" d="M152.61,72.31s3.84-2.19,5.44-1.09,1.32,3.37,2.62,5,2.76,1.39,3.53,3,.1,3.7-.66,5.19c1.58-1.63,2.62-3.16,2.74-4.28.29-2.82-2.4-4.69-3.46-5.79s-.41-2.55-2.5-4.41C158.44,68.22,156.28,69,152.61,72.31Z"/><path class="cls-6" d="M159,69.58a.73.73,0,0,1,.72.56.92.92,0,0,1-.33.89.53.53,0,0,1-.74.06.61.61,0,0,1-.07-.1s-.06,0-.08-.08a1,1,0,0,1-.17-.75A.76.76,0,0,1,159,69.58Z"/><path class="cls-6" d="M155.91,70.2l.07-.06c.33-.22.7.27.37.5l-.08,0C156,70.92,155.58,70.42,155.91,70.2Z"/><path class="cls-6" d="M165.53,81a.33.33,0,0,1-.58.32A.33.33,0,0,1,165.53,81Z"/><path class="cls-6" d="M159.87,72.92a.76.76,0,0,1,.21-1A.71.71,0,0,1,161,72a.84.84,0,0,1,.16.87.46.46,0,0,1-.47.49A.9.9,0,0,1,159.87,72.92Z"/><path class="cls-6" d="M161.33,74.55c.44-.44,1.12.25.68.69A.48.48,0,0,1,161.33,74.55Z"/><path class="cls-6" d="M160.17,70.77a.22.22,0,0,1,.31.31A.22.22,0,0,1,160.17,70.77Z"/><path class="cls-6" d="M163,75.55a.22.22,0,0,1,.31.31A.22.22,0,0,1,163,75.55Z"/><path class="cls-6" d="M164.89,79.74c.19-.2.5.11.3.31S164.69,79.94,164.89,79.74Z"/><path class="cls-6" d="M164.8,77.16a.22.22,0,0,1,.31.31A.22.22,0,0,1,164.8,77.16Z"/><path class="cls-6" d="M160.38,74c.2-.19.51.11.31.31A.22.22,0,0,1,160.38,74Z"/><path class="cls-6" d="M157.23,69.74c.2-.19.51.11.31.31A.22.22,0,0,1,157.23,69.74Z"/><path class="cls-6" d="M163.08,77a.59.59,0,0,1,1.15-.11.42.42,0,0,1,0,.3A.6.6,0,0,1,163.08,77Z"/><path class="cls-6" d="M164.86,78.2a.48.48,0,0,1,.68.68A.48.48,0,0,1,164.86,78.2Z"/><path class="cls-3" d="M137.45,99.11c-.11,1.26,2.34,3.29,5.29,6.92,2,2.53,5.45,5.91,9,6.93a6.36,6.36,0,0,0,4.69-.29c5-2.43,1.95-12.3.41-17.79S151.29,84.62,149,84.3c-1.46-.21-3.39,1.43-5.24,3.8l-.08.09v0C140.7,92.07,137.71,96.13,137.45,99.11Z"/><path class="cls-8" d="M137.45,99.11c-.11,1.26,2.34,3.29,5.29,6.92,2,2.53,5.45,5.91,9,6.93a6.36,6.36,0,0,0,4.69-.29c5-2.43,1.95-12.3.41-17.79S151.29,84.62,149,84.3c-1.46-.21-3.39,1.43-5.24,3.8l-.08.09v0C140.7,92.07,137.71,96.13,137.45,99.11Z"/><path class="cls-4" d="M143.78,88.1c.3-.34,3-2.55,5.27-.23,5.83,5.94,7.4,18,7,20.06-.59,3-1.7,4.57-4.3,5a6.36,6.36,0,0,0,4.69-.29c5-2.43,1.95-12.3.41-17.79S151.29,84.62,149,84.3C147.56,84.09,145.63,85.73,143.78,88.1Z"/><g class="cls-10"><path d="M156.76,110.48a9.18,9.18,0,0,1-2.66.15,5.22,5.22,0,0,1-2.47-.79q-2.28-1.41-4.46-3c-.72-.52-1.43-1.06-2.1-1.63-.35-.29-.65-.59-1-.9a12.52,12.52,0,0,0-1.09-.83,31,31,0,0,0-4.7-2.64c.77.47,1.54.92,2.29,1.42s1.49,1,2.2,1.51c.35.27.69.56,1,.85s.64.63,1,.93c.67.6,1.39,1.15,2.12,1.69a45,45,0,0,0,4.55,2.91,5.48,5.48,0,0,0,2.64.7A8.37,8.37,0,0,0,156.76,110.48Z"/><path d="M157.1,107.82a12.68,12.68,0,0,0-2.85-1,7.83,7.83,0,0,0-1.54-.21c-.26,0-.54,0-.76,0a5.93,5.93,0,0,1-.73,0c-1,0-2-.2-3-.33l-3-.41a27.4,27.4,0,0,0,2.92.79,21.62,21.62,0,0,0,3,.44q.39,0,.78,0l.74,0a9.08,9.08,0,0,1,1.46.12A25.33,25.33,0,0,1,157.1,107.82Z"/><path d="M137.82,100.22c.8.19,1.6.37,2.39.58s1.59.4,2.38.62a42.08,42.08,0,0,1,4.64,1.55,19.49,19.49,0,0,0,4.88.93A35.28,35.28,0,0,0,157,104c-.82-.06-1.64-.1-2.46-.18s-1.63-.15-2.44-.26-1.61-.22-2.41-.38a15.07,15.07,0,0,1-2.33-.62,29,29,0,0,0-4.72-1.46A44.89,44.89,0,0,0,137.82,100.22Z"/><path d="M137.41,99.36c1.14-1,2.21-2.11,3.25-3.24a34.31,34.31,0,0,0,2.92-3.54c.23-.32.43-.65.63-1s.38-.69.54-1A8.47,8.47,0,0,1,146,88.77a18.44,18.44,0,0,1,3.64-2.69c-.69.33-1.37.67-2,1a9.71,9.71,0,0,0-1.87,1.38,8.34,8.34,0,0,0-1.42,1.86c-.18.35-.36.68-.54,1s-.4.63-.62.94c-.86,1.24-1.84,2.4-2.8,3.58l-1.48,1.74Z"/><path d="M151.13,88.23l-2.06,1.92c-.35.31-.69.63-1,.93a6.84,6.84,0,0,1-1.09.81,19.7,19.7,0,0,1-2.57,1,6.29,6.29,0,0,0-2.45,1.42,8.78,8.78,0,0,1,2.57-1.06,13.78,13.78,0,0,0,2.69-1,11.32,11.32,0,0,0,2.16-1.9A24.79,24.79,0,0,0,151.13,88.23Z"/><path d="M153.43,93.18c-.57.44-1.15.87-1.75,1.26a15.85,15.85,0,0,1-1.86,1.09,8.55,8.55,0,0,1-2,.74l-.51.09-.55.08c-.36.07-.73.14-1.08.23A39.34,39.34,0,0,0,141.57,98c-1.35.52-2.69,1.08-4,1.71l4.12-1.36c1.37-.43,2.74-.89,4.13-1.24.35-.1.7-.17,1-.24l.52-.09.56-.1a8.09,8.09,0,0,0,2.05-.86A15.7,15.7,0,0,0,153.43,93.18Z"/><path d="M154.59,96.35c-.52.25-1,.51-1.55.74s-1,.48-1.57.69a9.13,9.13,0,0,1-3.21.86c-1.11,0-2.25-.16-3.39-.26a13.74,13.74,0,0,0-3.45-.09,10.65,10.65,0,0,1,1.7.17l1.7.29a21.81,21.81,0,0,0,3.45.38,8.12,8.12,0,0,0,3.36-1A21.05,21.05,0,0,0,154.59,96.35Z"/><path d="M155.53,100.5c-1.16-.11-2.32-.16-3.48-.18s-2.32,0-3.48,0c-.59,0-1.17.06-1.75.11-.29,0-.59.07-.89.14l-.83.17a16.42,16.42,0,0,1-1.72.17c-.57,0-1.15,0-1.73.07a15.08,15.08,0,0,0,3.49.13A8.11,8.11,0,0,0,146,101c.27-.05.56-.07.84-.1.57,0,1.15-.07,1.72-.08l3.47-.14,1.74-.08C154.37,100.57,155,100.55,155.53,100.5Z"/><path d="M147.4,88.86a.59.59,0,1,0,.66-.51A.59.59,0,0,0,147.4,88.86Z"/><path d="M149.69,92.49a.59.59,0,1,0,.66-.51A.59.59,0,0,0,149.69,92.49Z"/><path d="M151.51,96a.59.59,0,1,0,.66-.51A.59.59,0,0,0,151.51,96Z"/><path d="M152.26,98.92a.59.59,0,1,0,.66-.51A.59.59,0,0,0,152.26,98.92Z"/><path d="M152.86,102.13a.59.59,0,1,0,.66-.51A.59.59,0,0,0,152.86,102.13Z"/><path d="M153.32,105.26a.59.59,0,0,0,.51.66.59.59,0,1,0,.15-1.17A.58.58,0,0,0,153.32,105.26Z"/><path d="M153,108.74a.59.59,0,1,0,.66-.51A.59.59,0,0,0,153,108.74Z"/><path d="M151,111.56a.59.59,0,1,0,.66-.51A.59.59,0,0,0,151,111.56Z"/></g><path class="cls-3" d="M129.19,69.87h0a67.25,67.25,0,0,0,.84,8.22c1.48,8.77,5.69,22.6,7.18,21.28,3.41-3.05,7.14-9,9.24-14.62h0c1.57-4.23,2.23-8.28,1.15-10.81-1.46-3.43-3.14-4.19-6.33-6.6s-4.74-8.28-8.69-9.37C129.79,57.2,128.93,63.19,129.19,69.87Z"/><path class="cls-4" d="M129.19,69.79c-.1-1.81,1-8.38,3.16-8.1s4.93,7.27,6.77,9,5.24,2.2,6.68,4.51.79,7.35.65,9.51h0c1.57-4.23,2.23-8.28,1.15-10.81-1.46-3.43-3.14-4.19-6.33-6.6s-4.74-8.28-8.69-9.37c-2.8-.77-3.66,5.22-3.4,11.9Z"/><path class="cls-6" d="M132.66,58.71a.71.71,0,0,1,.86.3.93.93,0,0,1,0,1,.54.54,0,0,1-.69.28.23.23,0,0,1-.1-.07.93.93,0,0,1-.1-.05,1,1,0,0,1-.39-.66A.72.72,0,0,1,132.66,58.71Z"/><path class="cls-6" d="M130.57,60.82l0-.14a.48.48,0,0,1,1,.19l0,.14A.48.48,0,0,1,130.57,60.82Z"/><path class="cls-6" d="M130,62.15a.35.35,0,0,1,.63.31A.35.35,0,0,1,130,62.15Z"/><path class="cls-6" d="M145.45,72.63a.35.35,0,0,1,.63.32A.35.35,0,0,1,145.45,72.63Z"/><path class="cls-6" d="M134.19,61.6a.76.76,0,0,1-.1-1,.72.72,0,0,1,.92-.23.87.87,0,0,1,.41.78.47.47,0,0,1-.29.62A.93.93,0,0,1,134.19,61.6Z"/><path class="cls-6" d="M141.17,71.1a.76.76,0,0,1-.11-1,.71.71,0,0,1,.92-.23.84.84,0,0,1,.42.78.46.46,0,0,1-.29.61A.9.9,0,0,1,141.17,71.1Z"/><path class="cls-6" d="M135.59,62.59a.48.48,0,0,1,.86.43A.48.48,0,0,1,135.59,62.59Z"/><path class="cls-6" d="M132.79,61.18a.29.29,0,0,1,.51.26C133.14,61.77,132.63,61.51,132.79,61.18Z"/><path class="cls-6" d="M134.17,59.45a.22.22,0,0,1,.4.2A.22.22,0,0,1,134.17,59.45Z"/><path class="cls-6" d="M138.53,68.68c.13-.25.52-.06.39.19S138.4,68.93,138.53,68.68Z"/><path class="cls-6" d="M137.15,63.68c.12-.26.51-.06.39.19S137,63.93,137.15,63.68Z"/><path class="cls-6" d="M143.05,69.9a.22.22,0,0,1,.39.19A.22.22,0,0,1,143.05,69.9Z"/><path class="cls-6" d="M146.26,74.24a.22.22,0,0,1,.39.2A.22.22,0,0,1,146.26,74.24Z"/><path class="cls-6" d="M144.22,72.69c.12-.25.51-.06.39.2A.22.22,0,0,1,144.22,72.69Z"/><path class="cls-6" d="M134.66,62.55a.22.22,0,0,1,.39.2C134.93,63,134.54,62.8,134.66,62.55Z"/><path class="cls-6" d="M131.06,59.4a.22.22,0,0,1,.39.2A.22.22,0,0,1,131.06,59.4Z"/><path class="cls-6" d="M136.64,65.57a.59.59,0,0,1,1.05-.48.43.43,0,0,1,.13.28A.6.6,0,0,1,136.64,65.57Z"/><path class="cls-6" d="M138.28,67.4a.57.57,0,0,1-.18-.33.65.65,0,0,1,.15-.57.49.49,0,0,1,.87.22l.07.25a1.08,1.08,0,0,1,.08.19.64.64,0,0,1-.22.58A.48.48,0,0,1,138.28,67.4Z"/><path class="cls-6" d="M140,68.78a.49.49,0,0,1,.87.44A.49.49,0,0,1,140,68.78Z"/><path class="cls-6" d="M143.76,71.23a.49.49,0,0,1,.87.44A.49.49,0,0,1,143.76,71.23Z"/><g class="cls-10"><path d="M146.18,72.2a4.49,4.49,0,0,1,0,.9c0,.31,0,.61-.05.91,0,.61-.09,1.21-.16,1.81-.11,1.21-.26,2.41-.44,3.61a15.12,15.12,0,0,1-.84,3.48,26.2,26.2,0,0,1-1.6,3.23c-1.16,2.13-2.47,4.19-3.45,6.44-.48,1.12-.91,2.26-1.33,3.4-.2.57-.4,1.14-.63,1.71a7.2,7.2,0,0,1-.84,1.6,6.49,6.49,0,0,0,1-1.55c.26-.55.5-1.11.74-1.67.46-1.13.92-2.25,1.44-3.34,1-2.18,2.33-4.23,3.53-6.35a27.3,27.3,0,0,0,1.6-3.31,14,14,0,0,0,.79-3.59c.14-1.21.25-2.42.31-3.64,0-.61,0-1.22.05-1.83A7.84,7.84,0,0,0,146.18,72.2Z"/><path d="M144.25,73.16c-.21.63-.38,1.27-.56,1.9L143.22,77a28.38,28.38,0,0,0-.66,3.92c-.06,1.32-.19,2.61-.3,3.92s-.25,2.62-.35,3.94c.28-1.29.51-2.59.7-3.89s.35-2.62.44-3.93.34-2.59.55-3.88l.33-2Z"/><path d="M143.3,71.06a68,68,0,0,0-3,6.68,15.15,15.15,0,0,0-.59,1.76,10.79,10.79,0,0,0-.28,1.84L139.09,85c-.09,1.22-.19,2.43-.31,3.64a23.65,23.65,0,0,1-.58,3.58,66.39,66.39,0,0,0-1.34,7.22c.27-1.19.52-2.39.8-3.58s.54-2.38.9-3.53a20.77,20.77,0,0,0,.66-3.64c.14-1.21.25-2.43.35-3.65l.27-3.65a11.39,11.39,0,0,1,.25-1.78c.14-.58.34-1.16.53-1.73.39-1.15.84-2.29,1.29-3.42S142.83,72.19,143.3,71.06Z"/><path d="M138.92,69.24a55.44,55.44,0,0,0-2.47,7.37,13.67,13.67,0,0,0-.35,1.93,5.65,5.65,0,0,0,0,1c0,.31,0,.63,0,1,0,1.29,0,2.58-.06,3.87l-.11,3.88c0,1.29-.1,2.58-.05,3.89.11,2.6.36,5.17.66,7.74L136.38,96c-.06-1.29-.12-2.58-.12-3.87,0-2.57.19-5.16.26-7.74,0-1.3,0-2.59,0-3.9,0-.32,0-.65,0-1a5.82,5.82,0,0,1,0-.93,15.46,15.46,0,0,1,.3-1.89c.26-1.26.6-2.5,1-3.74S138.53,70.47,138.92,69.24Z"/><path d="M141,70.35c-.42.83-.83,1.67-1.22,2.51s-.76,1.7-1.18,2.49c-.21.38-.49.77-.74,1.16s-.49.79-.72,1.2a9.83,9.83,0,0,0-.58,1.28,3.34,3.34,0,0,0-.23,1.39,3.67,3.67,0,0,1,.45-1.29,10.69,10.69,0,0,1,.69-1.18c.5-.78,1.06-1.49,1.56-2.32a22.2,22.2,0,0,0,1.1-2.58C140.45,72.14,140.74,71.25,141,70.35Z"/><path d="M135.33,63.2a73.38,73.38,0,0,0-1.53,8.87c-.08.75-.14,1.5-.15,2.26s0,1.5,0,2.25l0,4.5c0,1.5.08,3,.19,4.51.06.75.16,1.5.27,2.24s.22,1.49.35,2.23l.74,4.43.4,2.22.2,1.1.19,1c0,.08,0,0,0,0l0-.14,0-.28-.07-.56-.14-1.11-.29-2.23L134.87,90c-.18-1.49-.44-3-.54-4.45s-.13-3-.15-4.48l-.07-4.49c0-.75,0-1.51,0-2.25s0-1.49.09-2.23c.11-1.49.29-3,.49-4.46S135.09,64.68,135.33,63.2Z"/><path d="M132.37,61c-.33,2-.58,3.93-.79,5.91-.11,1-.18,2-.24,3a29.9,29.9,0,0,0-.07,3,21,21,0,0,0,.45,3c.2,1,.4,2,.66,2.91.49,1.93,1,3.85,1.66,5.74l-.65-2.91c-.22-1-.44-1.94-.64-2.91s-.42-1.94-.6-2.91a24.94,24.94,0,0,1-.4-2.92A59,59,0,0,1,132,66.9Z"/><path d="M130.14,78.71c.28,1.12.61,2.21,1,3.31s.71,2.18,1.1,3.26c.2.54.4,1.08.61,1.62s.44,1.06.68,1.58l.69,1.57c.25.52.49,1,.75,1.56-.16-.55-.35-1.1-.52-1.65l-.57-1.62-1.18-3.22c-.4-1.08-.79-2.16-1.21-3.22S130.61,79.76,130.14,78.71Z"/></g><path class="cls-12" d="M161,403.71c-4.08-1.36-.46-13.13,4.08-16.77,1.44-1.15,6.79-3.87,13.5-7.11,14.77-7.1,36-16.59,36-16.59l-18.1-76.65,73.73.4s20.13,72,20,76.46c0,.28,0,.56,0,.83-.63,20.32-1.63,37-3.3,38C282.46,405.1,165.12,405.08,161,403.71Z"/><path class="cls-13" d="M161,403.7c4.1,1.38,121.44,1.41,125.91-1.43,1.67-1,2.67-17.67,3.31-38,0-.27,0-.56,0-.83,0-1-.87-5-2.3-10.76H212.12l2.49,10.55s-21.24,9.49-36,16.58c-6.71,3.24-12.06,6-13.5,7.12C160.56,390.58,157,402.35,161,403.7Z"/><path class="cls-3" d="M159.7,404.36c4.17,1.41,123.65,1.27,128.19-1.63,1.75-1.07,2.74-18.48,3.34-39.55,0-.22,0-.44,0-.66l-77.08-.77,0,1.31s-45.71,20.5-50.37,24.22S155.52,403,159.7,404.36Z"/><path class="cls-4" d="M161.05,399.73c20.14-.52,101.41-.7,121.36.31.16,0,.16.12,0,.13-20,.95-101.23.48-121.36-.11C160.62,400.05,160.62,399.74,161.05,399.73Z"/><path class="cls-4" d="M205.58,362c7.92-1.49,17.62-.29,23.68,5.35.24.22-.08.55-.34.47A111.38,111.38,0,0,0,205.61,363,.51.51,0,0,1,205.58,362Z"/><path class="cls-4" d="M199.86,365.43c7.93-1.49,17.62-.28,23.68,5.36.24.22-.07.55-.33.47a111.53,111.53,0,0,0-23.31-4.83A.51.51,0,0,1,199.86,365.43Z"/><path class="cls-4" d="M194.15,368.89c7.92-1.49,17.62-.29,23.68,5.35.23.22-.08.55-.34.47a111.38,111.38,0,0,0-23.31-4.82A.51.51,0,0,1,194.15,368.89Z"/><path class="cls-4" d="M198.82,356c5.61,4.35,12.91,6.12,19.46,8.54.67.25,1.21-.39,1.24-1a.21.21,0,0,0,.18-.29,42.26,42.26,0,0,0-12.22-18.14c-3.31-2.78-9.12-4.7-12.23-.41C192.31,348.76,195.54,353.45,198.82,356Zm-2-6.38c-1.4-8.69,7.94-4.14,10.3-2a45.06,45.06,0,0,1,4.2,4.53,126.76,126.76,0,0,1,7.38,10.44c-3.15-1.39-6.38-2.49-9.57-3.76C205.3,357.32,197.57,354.41,196.79,349.61Z"/><path class="cls-4" d="M246.15,351.14c-1.92-4.94-8-4.54-11.93-2.7A42.37,42.37,0,0,0,217.8,362.9a.21.21,0,0,0,.11.32,1,1,0,0,0,1,1.28c6.95-.68,14.46-.55,21-3.34C243.66,359.53,248,355.82,246.15,351.14Zm-17,10.17c-3.41.42-6.82.67-10.21,1.21,3.21-2.81,6.29-5.74,9.78-8.23A45,45,0,0,1,234,351c2.83-1.48,13-3.52,9.46,4.53C241.45,359.94,233.24,360.81,229.18,361.31Z"/><path class="cls-5" d="M373,235.5s13.21,47.84-9.86,62c-15.4,9.45-83.48-3.63-86.37-12-5.48-15.89-5.49-21.72-5.49-21.72L288.75,348,203,349s-16.1-69.72-12-143.72c1.52-27.36,38.3-35.64,63.89-22,24.81,13.2,69.23,49.83,69.23,49.83Z"/><path class="cls-4" d="M281.52,298.64c-4.62-11.31-4.26-15.75-15.8-50.86-1.55-4.69-2.84-9.46-4.22-14.2-1.43-4.92-3.12-9.82-4.2-14.83-.05-.24-.45-.14-.38.1,1.34,4.34,2.2,8.82,3.35,13.21s2.26,8.59,3.46,12.87c.52,1.85,1.07,3.69,1.59,5.53l-.68-1.13c-1-1.74-2-3.46-3.07-5.17-2.16-3.51-4.78-6.82-6.68-10.48-.11-.23-.47,0-.33.19,2.18,3.5,3.73,7.4,5.77,11,1,1.74,2,3.45,3.09,5.15a33.05,33.05,0,0,0,3.08,4.55c1.57,5.42,5,18.48,6.64,23.86,5.31,17,3.57,11.45,7.52,20.56C280.87,299.46,281.72,299.13,281.52,298.64Z"/><path class="cls-4" d="M242.46,334.1c12.91-.14,25.8-.87,38.7-1.11.25,0,.28-.39,0-.39-12.86-.07-25.72-.58-38.58-.42s-25.8.79-38.7,1.22c-.33,0-.38.52,0,.52C216.73,334,229.59,334.24,242.46,334.1Z"/><path class="cls-4" d="M274.1,329.79c-1.18-5.7-2.83-11.31-4.34-16.93s-3-11.25-4.57-16.86c-3.11-11.23-6.35-22.42-9.58-33.62-1.84-6.36-3.82-12.68-5.76-19-.06-.18-.34-.12-.29.07q8.63,33.87,18.54,67.39c1.87,6.34,3.57,12.77,5.8,19A.1.1,0,0,0,274.1,329.79Z"/><path class="cls-4" d="M363.14,297.5c23.07-14.16,9.85-62,9.85-62l-41.15-2-56,49.23c.3.88.6,1.8.93,2.75C279.65,293.88,347.73,307,363.14,297.5Z"/><path class="cls-4" d="M202.57,347.09c.27,1.28.43,1.94.43,1.94l85.75-1-13.44-64.86Z"/><path class="cls-12" d="M548.63,412.55c.77,4.23-11.29,6.72-16.66,4.5-1.71-.71-6.67-4.09-12.74-8.41-13.34-9.52-31.88-23.56-31.88-23.56l-63,3.81-35.16-64.81s57.95-3.35,61.94-5.4l.73-.38c18.11-9.24,33.17-16.36,34.89-15.4C491.36,305.45,547.85,408.29,548.63,412.55Z"/><path class="cls-13" d="M440,320.35l33.16,65.59,14.15-.86s18.55,14,31.89,23.56c6.06,4.31,11,7.69,12.73,8.41,5.37,2.23,17.43-.28,16.66-4.51s-57.27-107.09-61.9-109.64c-1.71-1-16.79,6.16-34.89,15.4l-.73.37C450.13,319.18,445.89,319.76,440,320.35Z"/><path class="cls-3" d="M549.84,413.39c-.78-4.33-58.45-109-63.17-111.56-1.78-1-17.52,6.5-36.27,16.13l-.59.3,36.45,67.93,1.13-.66s40,30.18,45.49,32.48S550.64,417.72,549.84,413.39Z"/><path class="cls-4" d="M545.13,414.44C535,397,495.66,325.9,487,307.93c-.07-.15,0-.2.11-.06,10.44,17,49.17,88.48,58.36,106.41C545.61,414.66,545.34,414.81,545.13,414.44Z"/><path class="cls-4" d="M490.59,393.6c-5.12-6.23-8.73-15.31-6.71-23.34.08-.31.52-.19.57.07a111.9,111.9,0,0,0,7,22.75A.51.51,0,0,1,490.59,393.6Z"/><path class="cls-4" d="M496.37,396.94c-5.12-6.23-8.73-15.3-6.71-23.33.08-.31.52-.2.57.07a112.1,112.1,0,0,0,7,22.75A.51.51,0,0,1,496.37,396.94Z"/><path class="cls-4" d="M502.15,400.29C497,394.06,493.42,385,495.44,377c.08-.31.52-.19.58.07a110.94,110.94,0,0,0,7,22.76A.51.51,0,0,1,502.15,400.29Z"/><path class="cls-4" d="M488.6,402.41c1.11-7-.85-14.27-1.89-21.17a1,1,0,0,0-1.46-.61.21.21,0,0,0-.34,0,42.14,42.14,0,0,0-10,19.45c-.84,4.24.27,10.25,5.53,10.9C485.4,411.59,488,406.5,488.6,402.41ZM484,407.25c-6.94,5.42-7.45-5-6.71-8.06a46.94,46.94,0,0,1,2-5.87c1.56-4,3.65-7.69,5.59-11.49.31,3.42.9,6.79,1.32,10.2C486.65,396.09,487.81,404.26,484,407.25Z"/><path class="cls-4" d="M461.56,363.26c-3.4,4.06-.12,9.22,3.38,11.75a42.18,42.18,0,0,0,20.58,7.43.21.21,0,0,0,.23-.25,1,1,0,0,0,.66-1.45c-4-5.76-7.45-12.4-13-16.78C470.11,361.41,464.78,359.42,461.56,363.26Zm17.08,10c2,2.79,3.87,5.66,6,8.37A127.46,127.46,0,0,1,472.7,377a46.83,46.83,0,0,1-5.43-3c-2.65-1.77-9.35-9.71-.57-10.47C471.53,363.14,476.25,369.92,478.64,373.23Z"/><path class="cls-5" d="M318.73,223.79s-2.18,19.9-2,35.12c0,0-81.46,42.7-85.18,83.28-1.32,14.37.6,41.3,28.78,53.57C291.84,409.48,465.88,400,465.88,400l-21.74-80.12-76.76,0s54.16,8.61,60.05-27.48c5.46-33.55-15.14-68.67-15.14-68.67Z"/><path class="cls-4" d="M447.9,396.11c-1.92-9.23-3.77-18.51-5.91-27.69s-4.43-18.37-6.85-27.5c-.69-2.58-1.39-5.14-2.09-7.72-.33-1.23-.67-2.45-1-3.67s-.65-2.5-1.13-3.68c0-.13-.2-.06-.18.07A61,61,0,0,0,432.1,333c.48,2.23.94,4.46,1.43,6.69q1.52,6.87,3.08,13.72c2.1,9.16,4.43,18.24,6.82,27.32q2,7.72,4.08,15.46C447.59,396.48,448,396.42,447.9,396.11Z"/><path class="cls-4" d="M393.88,319.93c-6.22-.45-12.45-.65-18.68-.77s-12.47-.06-18.71,0-12.46.44-18.68,1a137.32,137.32,0,0,0-18.51,2.67l4.63-.6,4.65-.44c3.09-.26,6.19-.52,9.3-.66,6.21-.35,12.43-.61,18.65-.71s12.44-.26,18.66-.35Z"/><path class="cls-4" d="M395.24,230.36a227.16,227.16,0,0,1,7.24,21.8,141.61,141.61,0,0,1,4.43,22.46,63.69,63.69,0,0,1,.24,11.38,28.31,28.31,0,0,1-2.76,10.81,15.09,15.09,0,0,1-3.33,4.34,27.51,27.51,0,0,1-4.56,3.21A51.52,51.52,0,0,1,386,308.57a142.4,142.4,0,0,1-22.47,4.07c-7.59.88-15.23,1.5-22.86,2.28a165.85,165.85,0,0,0-22.83,3.55,44.33,44.33,0,0,0-11,4,51.21,51.21,0,0,0-9.54,6.76l-1.73,1.53,2.33,0,62.07-.84,31-.25c10.35,0,20.69-.06,31,.22-10.34-.6-20.69-.76-31-1s-20.7-.2-31.05-.23l-31,0-31,.29.6,1.51a49.72,49.72,0,0,1,9.21-6.47,42.85,42.85,0,0,1,10.56-3.83,184.44,184.44,0,0,1,22.58-3.49c7.61-.81,15.25-1.47,22.88-2.39a142.34,142.34,0,0,0,22.71-4.24,48.64,48.64,0,0,0,10.78-4.45,29.72,29.72,0,0,0,4.77-3.46,16.7,16.7,0,0,0,3.57-4.79,29.43,29.43,0,0,0,2.75-11.34,64.86,64.86,0,0,0-.4-11.58,132.43,132.43,0,0,0-4.9-22.51A204.42,204.42,0,0,0,395.24,230.36Z"/><path class="cls-4" d="M327.61,223c0-.17-.29-.19-.31,0-.32,2.78-1.29,18.63-1.77,24.6-.17,2.13-.06,5.92-3.16,5.92-2.45,0-3.68-2.68-3.95-4.76-.33-2.54,1-20.94,1.34-27.06,0-.18-.27-.18-.3,0-1.13,6.14-3.32,25.65-2.67,28.39.51,2.15,1.62,4.18,3.8,4.9a39.88,39.88,0,0,0,.1,7.24c0,.2.65.25.69.09h0c-.11-1.43.65-7,.63-7a4.39,4.39,0,0,0,4-1.8C328.13,250.54,327.66,230,327.61,223Z"/><path class="cls-4" d="M336.41,270c-2.22-1.53-4.52-2.93-6.83-4.29s-4.67-2.67-7-3.94-4.78-2.47-7.22-3.58-4.91-2.21-7.45-3.1c1.15.7,2.33,1.33,3.49,2l3.51,2c2.34,1.31,4.71,2.57,7.07,3.83s4.75,2.49,7.17,3.67l3.61,1.77C334,268.84,335.16,269.43,336.41,270Z"/><path class="cls-4" d="M394.22,257.22c-4.32,0-17.79.77-24.22-4.66-5.19-4.39-7.48-19.37-8.37-23.49-.05-.2-.34-.13-.35.06A47,47,0,0,0,363,242.88c1.05,3.8,2.45,8,5.52,10.7,3.23,2.8,7.61,3.78,11.74,4.29a53.84,53.84,0,0,0,14-.19A.23.23,0,0,0,394.22,257.22Z"/><path class="cls-4" d="M328.16,44.65c-7.39-2.1-23.37-.81-29.68,17.3-9,25.71,21.11,67,27.18,72.53,0,0,36.14-5.3,55.15-35.09,0,0-30.57-22.54-36.26-39.32A23.8,23.8,0,0,0,328.16,44.65Z"/><path class="cls-4" d="M356.12,75.5c.22.2.44.41.67.6a60.77,60.77,0,0,0,9.29,6.63,38,38,0,0,0,10,4.35c.1,0,.16-.12.06-.15a33.72,33.72,0,0,1-9.9-5.1,90.12,90.12,0,0,1-8.59-6.63A86.5,86.5,0,0,1,343,58.8c-.08-.12-.29,0-.22.14.51.89,1.05,1.77,1.59,2.63a.12.12,0,0,0-.08.2,96.92,96.92,0,0,0,12.5,16.15A74,74,0,0,0,373,90a93.66,93.66,0,0,0,10.29,5,0,0,0,0,0,0-.09A95.7,95.7,0,0,1,356.12,75.5Z"/><path class="cls-4" d="M302.69,56.49c-10.68,17.62-5.49,38.75,3.23,55.38a87.85,87.85,0,0,0,9.36,14.54.08.08,0,0,0,.13-.1,103,103,0,0,1-13.24-26.75c-2.87-8.93-5-18.59-4-28.13a36,36,0,0,1,4.72-14.76C303,56.5,302.79,56.32,302.69,56.49Z"/><path class="cls-12" d="M337.15,127.46c-17.47,46.48-33.71,73.37-46.37,74.62-13.93,1.37-54.3-30.21-74.45-47.37-2.81-2.39,29.21-36.56,32.6-34.16,13.37,9.49,35.42,32.33,40.29,33.34,3.18.65,12.07-12.38,31.3-33.45C337.68,101.63,344.93,106.76,337.15,127.46Z"/><path class="cls-12" d="M218.48,156.35c-5-3-22.63-16-31.78-28.28-4.45-6-15.38-24.49-11-28.25s8,1.37,8,1.37-3.45-8.51,1.25-11.9,10.15,4.78,10.15,4.78-2.91-9,2-12,9,6.09,9,6.09-3-8.11,2.08-8.91c6.15-1,10.07,14.62,15.31,21,1.19,1.44,26.21,27.55,26.21,27.55Z"/><path class="cls-4" d="M206.26,88.19c2.91,11.44,6.16,16,14.6,24,.16.15,0,.43-.22.29-9-7.09-13.87-12.15-14.94-24.13C205.65,87.71,206.12,87.64,206.26,88.19Z"/><path class="cls-4" d="M194.78,93.65c4.06,11.62,7.54,16.54,15.76,25.57.12.13-.08.34-.21.22-8.81-8.19-13.57-13.35-16.1-25.5C194.11,93.4,194.6,93.12,194.78,93.65Z"/><path class="cls-4" d="M184,102.13c4.74,11,8.33,16.53,17.43,24.27a.22.22,0,0,1-.26.35c-10.06-7-14.58-13.89-17.49-24.44C183.51,101.59,183.73,101.44,184,102.13Z"/><path class="cls-12" d="M249,127.94s.15-14.8-1.22-21.31-15.41-28.92-20.42-26.16c-6.47,3.56-.91,18.09,2.74,24.85,0,0-15,8.22-13.24,19.51S249,127.94,249,127.94Z"/><path class="cls-4" d="M225.92,82c-3.56,7.51,1.8,16.07,4.85,22.89a.68.68,0,0,1-.53,1c-6.05,3.86-13.45,11.08-13.75,18.64a.17.17,0,0,1-.34,0c-.78-8.16,5.91-15.84,12.8-19.65-3.24-7-8.24-15.77-3.1-22.92C225.87,82,225.94,82,225.92,82Z"/><path class="cls-3" d="M271.4,136.89l-34.2,40.86s44.47,30.15,57.24,24.53,32.49-43.77,43.49-72.82-4.59-24.54-16.6-11.42-27.9,35.81-31,35.42S271.4,136.89,271.4,136.89Z"/><path class="cls-8" d="M324,115.36l17.69-.21c0,.39-.07.8-.11,1.23l-18.86.23C323.1,116.18,323.52,115.76,324,115.36Zm-9.34,10.44,24.72-.3c.15-.42.28-.84.41-1.24l-24.09.29C315.31,125,315,125.37,314.61,125.8ZM307.17,135l28.75-.35c.16-.42.33-.84.49-1.24l-28.25.34C307.82,134.15,307.48,134.57,307.17,135ZM265,144.58l14.11-.17,20.69-.25,32.35-.39.54-1.25-31.87.39-23,.27-11.8.15Zm-7.68,9.18,32.75-.39h.83L328,152.9c.2-.41.4-.82.58-1.23l-35.94.43-4.68.06-29.64.35Zm-7.69,9.18,74-.89c.21-.41.42-.82.62-1.24l-73.57.9Zm-7.69,9.18,76.87-.93c.24-.41.46-.82.68-1.23l-76.5.93ZM240.63,180c.56.36,1.19.77,1.88,1.2l71-.86c.26-.4.5-.82.76-1.24Zm14.61,8.91,2.15,1.2,50-.6c.3-.41.59-.82.89-1.25Zm17.24,8.87c.95.42,1.9.82,2.83,1.2l24.24-.29c.43-.39.86-.81,1.3-1.25Z"/><polygon class="cls-3" points="276.2 139.1 242.59 183.75 232.69 176.89 268.56 130.4 276.2 139.1"/><polygon class="cls-8" points="276.2 139.1 242.59 183.75 232.69 176.89 268.56 130.4 276.2 139.1"/><path class="cls-8" d="M276.26,199.39c7.56,3,14.31,4.58,18.17,2.88,12.77-5.61,32.49-43.76,43.5-72.82,5.8-15.3,4.21-21.3-.34-21.6C328.41,121.53,291,177.16,276.26,199.39Z"/><path class="cls-3" d="M429.39,248.46s-115.07,1.67-115.06,1.68c.43,2.2-7-78.63,11.79-137.35,1.28-4,18.16-11.34,27.34-5.7C393.69,131.83,429.33,247.45,429.39,248.46Z"/><path class="cls-8" d="M337.61,106.1l13.38-.16a12,12,0,0,1,2.46,1.16.18.18,0,0,1,.08.05l-19.76.23A34.56,34.56,0,0,1,337.61,106.1ZM325,116.58l39.5-.47c-.41-.42-.82-.84-1.24-1.23l-37.89.47C325.2,115.75,325.08,116.17,325,116.58Zm-2.47,9.12,49.79-.61c-.32-.42-.64-.82-1-1.21l-48.51.59C322.68,124.87,322.59,125.29,322.48,125.7Zm-2.06,9.12,58.38-.71c-.28-.4-.55-.82-.84-1.22l-57.29.68Zm-1.73,9.11,65.84-.8c-.25-.41-.49-.82-.75-1.23l-64.87.79C318.84,143.1,318.76,143.51,318.69,143.93ZM317.25,153l72.47-.88-.68-1.23-71.6.87C317.38,152.22,317.32,152.63,317.25,153Zm-1.16,9.09,78.41-.94c-.2-.42-.41-.82-.62-1.24l-77.64,1Zm-.94,9.11,83.83-1-.59-1.21-83.12,1C315.22,170.42,315.18,170.84,315.15,171.24Zm-.73,9.1,88.77-1.08-.55-1.23-88.13,1.07C314.47,179.52,314.45,179.92,314.42,180.34Zm-.55,9.09,93.31-1.12c-.17-.42-.34-.83-.53-1.23l-92.72,1.13C313.91,188.61,313.9,189,313.87,189.43Zm-.37,9.1L411,197.35l-.5-1.24-96.94,1.18C313.53,197.71,313.52,198.11,313.5,198.53Zm-.2,9.09,101.31-1.23-.48-1.23-100.81,1.23C313.31,206.8,313.31,207.22,313.3,207.62Zm-.05,7.86v1.23l104.83-1.28-.46-1.22Zm.08,9.08c0,.42,0,.84,0,1.24l108.07-1.31c-.15-.4-.29-.82-.44-1.24Zm.23,9.1c0,.42,0,.82,0,1.23l111-1.35c-.14-.4-.29-.81-.42-1.23Zm.38,9.07c0,.43,0,.85.07,1.24l113.58-1.37c-.12-.4-.25-.81-.39-1.24Z"/><rect class="cls-4" x="367.96" y="225.3" width="60.66" height="36.85" transform="translate(831.74 417.37) rotate(170.37)"/><rect class="cls-4" x="407.66" y="220.94" width="10.68" height="1.59" transform="translate(857.27 371.24) rotate(170.37)"/><rect class="cls-4" x="409.36" y="219.41" width="6.74" height="1.59" transform="translate(856.49 368.23) rotate(170.37)"/><polygon class="cls-4" points="376.77 228.69 392.68 225.99 390.18 221.38 377.61 223.51 376.77 228.69"/><rect class="cls-6" x="380.4" y="224.39" width="8.15" height="2.98" transform="translate(801.32 384.23) rotate(170.37)"/><polygon class="cls-4" points="427.46 225.04 427.95 227.93 426.51 228.71 426.72 229.95 429.06 228.67 428.26 223.98 425.63 223.55 425.84 224.79 427.46 225.04"/><polygon class="cls-4" points="364.59 235.72 365.08 238.6 366.7 238.86 366.91 240.1 364.28 239.67 363.48 234.97 365.82 233.7 366.03 234.94 364.59 235.72"/><path class="cls-3" d="M408.85,229.21a91.88,91.88,0,0,0,1.38,13.17,90.51,90.51,0,0,0,3,12.88,90.47,90.47,0,0,0-1.38-13.17A91.89,91.89,0,0,0,408.85,229.21Z"/><path class="cls-5" d="M373.09,248.68A15,15,0,1,1,390.43,261,15.06,15.06,0,0,1,373.09,248.68Zm.83-.14a14.2,14.2,0,1,0,11.62-16.37A14.22,14.22,0,0,0,373.92,248.54Z"/><path class="cls-3" d="M376.51,248.1A11.57,11.57,0,1,0,386,234.75,11.57,11.57,0,0,0,376.51,248.1Z"/><path class="cls-14" d="M368.26,233.29a1.22,1.22,0,0,0,2.4-.41,1.22,1.22,0,1,0-2.4.41Z"/><path class="cls-15" d="M428.27,224a650.28,650.28,0,0,0-34.78-66,355.67,355.67,0,0,0-20.9-31.06,162.57,162.57,0,0,0-12.2-14.35l-1.66-1.69-.84-.84-.91-.84a28.21,28.21,0,0,0-4-3,24,24,0,0,0-4.57-2.19,21,21,0,0,0-5.05-1,19.06,19.06,0,0,0-10,2.16,20.57,20.57,0,0,0-7.52,6.83,17.44,17.44,0,0,0-3,9.82l.08,1.32.16,1.18.31,2.36c.26,1.56.5,3.13.82,4.67,1.23,6.17,2.86,12.23,4.65,18.21s3.8,11.9,5.92,17.76a647.17,647.17,0,0,0,29.79,68.44c-4.87-11.45-9.68-22.9-14.15-34.49s-8.88-23.18-12.84-34.92-7.58-23.61-9.84-35.67c-.28-1.51-.5-3-.75-4.53l-.28-2.26-.15-1.13-.05-1A13.77,13.77,0,0,1,329,114a16.88,16.88,0,0,1,6.17-5.55,15.5,15.5,0,0,1,8-1.71,17.36,17.36,0,0,1,4.07.8,21.22,21.22,0,0,1,3.83,1.81,34.35,34.35,0,0,1,6.69,5.75,176.38,176.38,0,0,1,12,14c7.61,9.72,14.54,20,21.23,30.43s13.05,21.09,19.23,31.86S422.41,213,428.27,224Z"/><path class="cls-12" d="M333.1,128.73c5.59-.15,14.92-9.27,16.67-17.79.12-.58-2.27-5.62-4.87-11.88-1.57-3.8-3.23-8.07-4.46-12.08-.25-.82-23.25,13.82-23.25,13.82s5,7.64,7.14,14.64a10,10,0,0,1,.34,1.7c0,.08,0,.17,0,.28C325.16,120.7,327.11,128.9,333.1,128.73Z"/><path class="cls-4" d="M324.66,117.14c0,.08,0,.18.06.28a17.52,17.52,0,0,0,2.61-.66c14.69-4.86,12.91-24.57,12.23-29.5-4.27,2-22.38,13.54-22.38,13.54s5.06,7.65,7.16,14.65A8.8,8.8,0,0,1,324.66,117.14Z"/><path class="cls-12" d="M335.53,54.36c5.2,8.24,7.53,35.52,2.71,43.05-7,10.92-21.95,15.86-32.12,6.66-9.86-8.92-12.27-44.51-6.56-51.72C308,41.73,327.86,42.18,335.53,54.36Z"/><path class="cls-4" d="M303.88,78.49c0-.07-.13.1-.12.18.3,1.82.33,4-1.24,4.78,0,0,0,.11,0,.1C304.53,83,304.45,80.17,303.88,78.49Z"/><path class="cls-4" d="M302,76.79c-3,.16-2.43,6.09.32,5.94S304.49,76.66,302,76.79Z"/><path class="cls-4" d="M317.86,74a23.37,23.37,0,0,1-2.36.62,3.94,3.94,0,0,1-2.53.18,1.26,1.26,0,0,1-.69-1.38,3.12,3.12,0,0,1,2.42-2,4.53,4.53,0,0,1,3.3.16A1.34,1.34,0,0,1,317.86,74Z"/><path class="cls-4" d="M299.28,73.19a23.36,23.36,0,0,0,2.27-.91,3.94,3.94,0,0,0,2.13-1.37,1.27,1.27,0,0,0-.27-1.52,3.11,3.11,0,0,0-3.15-.18,4.61,4.61,0,0,0-2.55,2.1A1.34,1.34,0,0,0,299.28,73.19Z"/><path class="cls-4" d="M318.32,93.56c-.38.49-.74,1.14-1.4,1.28a5,5,0,0,1-2-.21.07.07,0,0,0-.07.11,2.48,2.48,0,0,0,2.45.69,2,2,0,0,0,1.23-1.81C318.52,93.51,318.38,93.49,318.32,93.56Z"/><path class="cls-4" d="M315.69,88.34a6.29,6.29,0,0,1-3.8,3.31,7.84,7.84,0,0,1-2.22.39,2.17,2.17,0,0,1-.44,0h-.4a.45.45,0,0,1-.42-.36h0a1.2,1.2,0,0,1,0-.19V91.3c-.22-1.4-.37-3.56-.37-3.56-.48.32-2.95,1.84-3,1.1-.43-6.13-.9-13,0-19.15a.17.17,0,0,1,.34,0c.64,5.88.25,11.84.8,17.75a11.36,11.36,0,0,1,2.82-1.27c.21,0,.2,4.18.35,4.8l0,.07c2.41,0,4.1-1,6.19-2.84C315.62,88.08,315.78,88.18,315.69,88.34Z"/><path class="cls-4" d="M318.88,76.52a5.68,5.68,0,0,0-1.54,0,5.4,5.4,0,0,0-1.5.45,4.32,4.32,0,0,0-1.33,1,3.91,3.91,0,0,0-.81,1.5l-.27,1,1-.34a10.8,10.8,0,0,1,2.16-.51,4.66,4.66,0,0,1,2.26.23,3.37,3.37,0,0,0-2.26-1,6.31,6.31,0,0,0-2.54.29l.72.66a3.76,3.76,0,0,1,1.53-2A12.22,12.22,0,0,1,318.88,76.52Z"/><path class="cls-4" d="M316.93,81.23a9.55,9.55,0,0,1-2.39-.31c-.18-.07-.91-.37-.9-.51a4.54,4.54,0,0,1,.13-1.18,3.17,3.17,0,0,0-.37,1.21,1.58,1.58,0,0,0,1,.82A4.8,4.8,0,0,0,316.93,81.23Z"/><path class="cls-4" d="M338.07,78.9c-1.83-.81-6.3-8.6-6.3-8.6s-17.83-1.08-24.36-14.77c0,0-4.83,10.9-10.86,14.92,0,0-4.6-14.84,8.32-21.27,0,0,11.64-9.48,27.06-.53s10.3,29.23,10.3,29.23Z"/><path class="cls-4" d="M306.93,52.69a14.2,14.2,0,0,0,2.8,7,26.25,26.25,0,0,0,5.13,5.55,23.36,23.36,0,0,0,6.57,4,29.33,29.33,0,0,0,8.68,1.43c.09,0,.08.17,0,.17A34.31,34.31,0,0,1,321,69.8,24,24,0,0,1,314,66a19.18,19.18,0,0,1-5.48-5.9,16.3,16.3,0,0,1-1.85-7.38C306.62,52.53,306.92,52.5,306.93,52.69Z"/><path class="cls-3" d="M300.76,48.24c1.91-2.78,6.76-8.73,12.2-11.25s13.92-3,16.81-3.2c2.38-.19,9.68-2.44,16.28-1.77,4.35.45,8.1,4.91,8.69,7.66.89,4.13-7.9,5.23-7.64,6.86.18,1.08,3.6,5.4,2.18,8.7S347.8,58.14,347,60c-2,4.46-13.81-11.83-22.63-13.81S300.76,48.24,300.76,48.24Z"/><path class="cls-8" d="M301.44,48.28s14.08-4.1,22.9-2.11,19.25,18,21.29,13.56c.89-2,.69-3.94-.26-6.87-3.68-4.29-10.18-10.46-17.31-13.1-6.68-2.48-14.56-.93-21.86,2.55A45.5,45.5,0,0,0,301.44,48.28Z"/><path class="cls-3" d="M349.64,68.16c-6.12-3.91-13.58-11.18-22.33-15s-24.73.8-26.56,2.09c-4.45,3.13-4.09,6-5.07,6s.36-8.06,1.18-9.64a17.54,17.54,0,0,1,5.38-5.56c2-1.2,15.14-7.65,22.91-5.18S348.44,54.2,349.63,58.7c.28,1.08-.56,2.41-.14,3.94.54,2,1.4,4.17,1.63,5.67C351.3,69.52,350,68.4,349.64,68.16Z"/><path class="cls-4" d="M324.4,50.88A25.35,25.35,0,0,0,326,46.83a18.47,18.47,0,0,0,.86-4.33c0-.11.17-.12.17,0a14,14,0,0,1-.42,4.52,12,12,0,0,1-2,4C324.53,51.18,324.32,51,324.4,50.88Z"/><path class="cls-4" d="M348,65.61a11.69,11.69,0,0,1-.08-1.18,6.58,6.58,0,0,0-.27-1.32,11.79,11.79,0,0,1-.81-2.41,8.94,8.94,0,0,1,.12-2.07,3.45,3.45,0,0,0-.24-2.29.08.08,0,1,1,.14-.09c.82,1.31.52,2.79.63,4.25a16.08,16.08,0,0,0,.81,2.61,4,4,0,0,1,0,2.52C348.25,65.74,348.05,65.75,348,65.61Z"/><path class="cls-4" d="M343.62,61.86a20.76,20.76,0,0,0,.3-2.22,16.18,16.18,0,0,0-.07-2.2c-.07-.72-.2-1.43-.28-2.15s-.1-1.71-.24-2.55a.09.09,0,0,1,.17,0c.15.87.44,1.72.62,2.59a19.42,19.42,0,0,1,.27,2.28,11.45,11.45,0,0,1-.05,2.19,5.5,5.5,0,0,1-.63,2.1S343.62,61.92,343.62,61.86Z"/><path class="cls-4" d="M339.42,58.61a14.48,14.48,0,0,0,.7-4.13c0-1.36,0-2.74-.11-4.1,0-.09.14-.13.16,0a17.7,17.7,0,0,1,.56,4.21,8.94,8.94,0,0,1-.26,2.06,9.57,9.57,0,0,1-.89,2.05C339.54,58.75,339.38,58.71,339.42,58.61Z"/><path class="cls-4" d="M335.18,55.62a5,5,0,0,0,.43-1.87c.07-.72.13-1.44.16-2.16s.08-1.38.11-2.07a4.87,4.87,0,0,0-.21-2.08c0-.08.11-.15.15-.07a5.16,5.16,0,0,1,.56,2,13.69,13.69,0,0,1,.07,2.31,17.06,17.06,0,0,1-.27,2.25,3.42,3.42,0,0,1-.8,1.83A.12.12,0,0,1,335.18,55.62Z"/><path class="cls-4" d="M330.75,51.25c.16-.64.31-1.28.41-1.93s.18-1.31.25-2,.14-1.38.17-2.07a.09.09,0,0,1,.17,0,14.46,14.46,0,0,1,.18,2.07,15.61,15.61,0,0,1-.18,2,15,15,0,0,1-.42,2,5.47,5.47,0,0,1-.79,1.86.12.12,0,0,1-.21-.08A10.7,10.7,0,0,1,330.75,51.25Z"/><path class="cls-4" d="M319.55,50.49a23.15,23.15,0,0,1,.36-2.36,21.14,21.14,0,0,1,.66-2.36,21.59,21.59,0,0,1,1.95-4.36c.05-.07.19,0,.16.06-1,3-2,6-3,9.05A.08.08,0,1,1,319.55,50.49Z"/><path class="cls-4" d="M314.63,48.41a10.34,10.34,0,0,1,.6-2.31,22.49,22.49,0,0,1,2.42-4.37c.06-.08.2,0,.15.08-.65,1.44-1.34,2.88-1.91,4.36a19.52,19.52,0,0,0-.76,2.23c-.2.76-.24,1.54-.4,2.31a.07.07,0,0,1-.13,0A5.94,5.94,0,0,1,314.63,48.41Z"/><path class="cls-4" d="M310,49a10.66,10.66,0,0,1,.49-2.24,12.8,12.8,0,0,1,2-3.82c.06-.08.19,0,.14.09A25.44,25.44,0,0,0,311,47c-.22.69-.4,1.4-.59,2.1a19.5,19.5,0,0,1-.49,2.14s-.1,0-.1,0A11.49,11.49,0,0,1,310,49Z"/><path class="cls-4" d="M306,48.42c.22-.65.48-1.29.74-1.93a6.57,6.57,0,0,1,1-1.78c.07-.08.17,0,.14.09-.45,1.26-.87,2.53-1.29,3.79a17.21,17.21,0,0,0-.54,3.65s-.09,0-.11,0A6.54,6.54,0,0,1,306,48.42Z"/><path class="cls-4" d="M302.34,49.74a10.39,10.39,0,0,1,1.77-3.59c.05-.08.19,0,.14.09a12.59,12.59,0,0,0-1.4,3.61,17.89,17.89,0,0,0-.48,3.86c0,.06-.1.09-.11,0A8.68,8.68,0,0,1,302.34,49.74Z"/><path class="cls-4" d="M299.29,54.33a6.7,6.7,0,0,1,0-.89,8.19,8.19,0,0,1,.23-1.78,18.3,18.3,0,0,1,1.28-3.42c0-.1.2,0,.15.08a15.25,15.25,0,0,0-1.09,3.37,12.57,12.57,0,0,0-.21,1.73,8,8,0,0,0,0,.85,4.72,4.72,0,0,1,0,.84.08.08,0,0,1-.15,0A2.23,2.23,0,0,1,299.29,54.33Z"/><path class="cls-4" d="M296.83,56.18a10.37,10.37,0,0,1,.19-1.47,11.81,11.81,0,0,1,.36-1.42c.15-.48.33-.95.46-1.44,0-.12.2-.06.16.06a9.25,9.25,0,0,0-.35,1.47c-.08.47-.17.94-.25,1.41l-.24,1.41a13.69,13.69,0,0,1-.23,1.45.07.07,0,0,1-.13,0A6,6,0,0,1,296.83,56.18Z"/><path class="cls-12" d="M334.81,77.62s3.79-9.93,8.15-8.79,3,14.5-1.09,17.31a4.72,4.72,0,0,1-6.75-.92Z"/><path class="cls-4" d="M342.47,72.65c.07,0,.11.07,0,.12-2.83,2.06-3.76,5.41-4.16,8.73.65-1.4,1.76-2.36,3.61-1.64.09,0,0,.19-.05.19a2.92,2.92,0,0,0-2.85,1.76,14.24,14.24,0,0,0-.85,2.88c-.08.32-.62.3-.6-.06,0,0,0,0,0-.08C336.54,80.55,338.25,74.14,342.47,72.65Z"/><polygon class="cls-3" points="235.9 81.88 276.85 85.85 276.47 114.17 235.86 115.8 235.9 81.88"/><polygon class="cls-5" points="304.63 126.51 272.02 126.07 275.47 72.58 304.05 72.97 304.63 126.51"/><polygon class="cls-5" points="287.94 72.75 289.83 67.58 297.55 67.68 300.29 72.92 287.94 72.75"/><polygon class="cls-5" points="205.64 76.77 257.28 81.78 256.8 117.5 205.58 119.55 205.64 76.77"/><path class="cls-3" d="M207.33,79.42s5.82,9.08,6.13,19.17-6.22,18.24-6.22,18.24Z"/><path class="cls-12" d="M347.47,128.28c-6.27,7.73-49.59,65.23-52.57,67.28,0,0,10,37.82,30.62,26,19.42-11.14,33.3-60.61,38.7-87C367.13,120.37,359.4,113.59,347.47,128.28Z"/><path class="cls-3" d="M347.47,128.28c-6.27,7.73-49.59,65.23-52.57,67.28,0,0,10,37.82,30.62,26,19.42-11.14,33.3-60.61,38.7-87C367.13,120.37,359.4,113.59,347.47,128.28Z"/><path class="cls-1" d="M300,189.6l1-1.25c1.81-2.26,3.92-4.95,6.25-7.93.32-.4.64-.82.95-1.23,1.95-2.51,4-5.18,6.16-7.95.33-.4.65-.82,1-1.24,2-2.58,4.06-5.25,6.12-7.93l1-1.25c2-2.67,4.09-5.33,6.06-7.92.34-.41.65-.83,1-1.25l6.08-7.93,1-1.25c2.28-3,4.35-5.66,6.08-7.92.34-.42.66-.84,1-1.25,1.79-2.31,3.15-4.05,3.93-5s1.74-2.06,2.57-2.91c.45-.45.87-.87,1.29-1.25,6.31-5.82,11-5,12.74-.16a10.44,10.44,0,0,1,.37,1.23,20.66,20.66,0,0,1,.06,7.86c-.06.4-.14.81-.22,1.23,0,.09,0,.18,0,.27-.48,2.37-1,4.91-1.66,7.6-.08.41-.18.83-.28,1.25-.59,2.52-1.24,5.15-1.92,7.87l-.34,1.25c-.67,2.57-1.38,5.2-2.15,7.87-.11.42-.24.83-.36,1.24-.76,2.61-1.55,5.25-2.39,7.9-.13.4-.27.81-.4,1.22-.86,2.64-1.76,5.29-2.69,7.9-.14.41-.29.83-.45,1.23-1,2.68-2,5.32-3,7.9-.17.42-.34.83-.53,1.24-1.13,2.72-2.3,5.37-3.53,7.9-.21.42-.4.84-.61,1.24q-2.08,4.2-4.3,7.91l-.78,1.24a59.89,59.89,0,0,1-5.84,7.93c-.37.44-.76.85-1.14,1.25a28.29,28.29,0,0,1-6.3,5.08c-8.58,4.92-15.33,1.23-20.28-4.76-.33-.4-.65-.8-.95-1.22a48.32,48.32,0,0,1-4.7-7.81c-.21-.41-.4-.82-.6-1.22a77.53,77.53,0,0,1-3.11-7.81l-.41-1.24c-.38-1.22-.57-1.95-.57-1.95A56.92,56.92,0,0,0,300,189.6Z"/><path class="cls-8" d="M351.33,124.12l12.74-.16a10.44,10.44,0,0,1,.37,1.23l-14.4.18C350.49,124.92,350.91,124.5,351.33,124.12Zm-8.76,10.43,21.71-.27c.08-.42.16-.83.22-1.23l-21,.25C343.23,133.71,342.91,134.13,342.57,134.55Zm-7,9.17,26.76-.32c.1-.42.2-.84.28-1.25l-26.08.32Zm-7,9.18,31.54-.38.34-1.25-30.92.38C329.14,152.07,328.83,152.49,328.49,152.9Zm-7,9.17,36-.44c.12-.41.25-.82.36-1.24l-35.45.43Zm-7.07,9.17,40.33-.49c.13-.41.27-.82.4-1.22l-39.78.47C315.05,170.42,314.73,170.84,314.4,171.24Zm-7.11,9.18,44.3-.54c.16-.4.31-.82.45-1.23l-43.8.54C307.93,179.6,307.61,180,307.29,180.42ZM300,189.6l48-.58c.19-.41.36-.82.53-1.24l-47.51.57Zm-4.56,7.91.41,1.24,48-.59c.21-.4.4-.82.61-1.24Zm3.52,9.05c.2.4.39.81.6,1.22l39.21-.47.78-1.24Zm5.3,9c.3.42.62.82.95,1.22l26.58-.32c.38-.4.77-.81,1.14-1.25Z"/><path class="cls-12" d="M304.13,146.18c-4.81-4-41.39,16.51-36.71,24.44,22.12,37.5,38.49,49.21,46.37,52.56,7.69,3.27,20-8.13,21.75-15.26C338.13,197.6,308.89,150.14,304.13,146.18Z"/><path class="cls-12" d="M241.53,106.8c-2.63,4.5,9,10,9,10a9.64,9.64,0,0,0-6,2.58c-2.76,2.84.48,8.42.48,8.42a11.88,11.88,0,0,0-5.91,3.72c-2.37,3,.1,9.08.1,9.08s-3.21,2.64-3.12,6.55c.12,5.61,7.38,11.94,13.32,15.27,5.66,3.17,23.85,10.45,27.28,11.89l23.86-39s-18.39-18.31-25.24-21.85C269.53,110.55,245.56,99.93,241.53,106.8Z"/><path class="cls-4" d="M250.72,116.78c6.9,1.7,13.38,5,19.59,8.33.14.08,0,.29-.11.22-6.15-3.35-13.33-5.14-19.6-8.23A.17.17,0,0,1,250.72,116.78Z"/><path class="cls-4" d="M245.15,127.58a18.3,18.3,0,0,1,4.32,2.19c1.47.87,2.93,1.78,4.38,2.7q4.34,2.79,8.53,5.78c.12.09,0,.3-.12.21-2.88-1.84-5.8-3.64-8.76-5.36q-2.22-1.29-4.46-2.55a21.75,21.75,0,0,1-4.11-2.56A.24.24,0,0,1,245.15,127.58Z"/><path class="cls-4" d="M239.34,140.72a12.79,12.79,0,0,1,3.78,2.18c1.3.87,2.61,1.74,3.92,2.59,2.61,1.72,5.23,3.43,7.91,5,.13.08,0,.3-.12.22-2.72-1.64-5.47-3.24-8.19-4.89q-2-1.23-4-2.47a12,12,0,0,1-3.41-2.55C239.2,140.79,239.27,140.71,239.34,140.72Z"/><path class="cls-12" d="M284.74,121.82c2.79.47,6.37-6.15,7.71-10.63s6.88-10.3,10.56-9.53,2.29,9.57,1.05,15-1.23,26.58.07,29.49-12.45,3.49-12.45,3.49Z"/><path class="cls-4" d="M282.86,194.15q-3.92-5.85-7.76-11.75l-3.81-5.91c-1.24-2-2.52-4-3.56-6l-.07-.12-.12,0q-5.61-2.22-11.11-4.7c-1.82-.83-3.64-1.69-5.4-2.63a27.4,27.4,0,0,1-5-3.28c-3.1-2.5-6.17-5.18-8.2-8.54a8.36,8.36,0,0,1-1.26-5.48,6.17,6.17,0,0,1,2.93-4.56l.39-.22-.21-.39a8.94,8.94,0,0,1-.69-7.81,8,8,0,0,1,2.47-3.16,6.26,6.26,0,0,1,3.71-1.28h.65l-.32-.54a14.75,14.75,0,0,1-1.51-3.54,5.08,5.08,0,0,1,.12-3.65,6.29,6.29,0,0,1,2.91-2.34,18.45,18.45,0,0,1,3.71-1.19l.62-.14-.57-.26a28.65,28.65,0,0,1-6.17-3.71,11.07,11.07,0,0,1-2.44-2.63,4.28,4.28,0,0,1-.67-3.45,4.34,4.34,0,0,0,.58,3.5A11.39,11.39,0,0,0,244.5,113a29.69,29.69,0,0,0,6.14,3.93l.05-.39a16.71,16.71,0,0,0-3.85,1.14,6.67,6.67,0,0,0-3.2,2.52,5.61,5.61,0,0,0-.24,4.08,15.36,15.36,0,0,0,1.52,3.76l.34-.54A7,7,0,0,0,241,128.9a8.62,8.62,0,0,0-2.75,3.46,8.34,8.34,0,0,0-.65,4.38A11.18,11.18,0,0,0,239,141l.18-.61a7,7,0,0,0-3.45,5.2,8.68,8.68,0,0,0,.15,3.17,11.82,11.82,0,0,0,1.2,2.91,23.25,23.25,0,0,0,3.86,4.78,55.93,55.93,0,0,0,4.6,4,29.17,29.17,0,0,0,2.47,1.82c.86.54,1.75,1,2.65,1.52,1.79,1,3.62,1.8,5.46,2.63,3.68,1.66,7.43,3.16,11.21,4.57l-.19-.17c1.12,2.12,2.42,4.06,3.7,6s2.6,3.91,3.94,5.84Q278.77,188.43,282.86,194.15Z"/><path class="cls-3" d="M316.91,163.11l-38.32,30.38s26.08,29.07,37.43,30.27c9.52,1,20.65-10.55,20.14-17.83C335.35,194.66,316.91,163.11,316.91,163.11Z"/><path class="cls-8" d="M308.1,170.09l12.66-.15.67,1.22-14.91.18Zm-13.23,10.48,31.31-.38c-.21-.42-.42-.82-.63-1.23l-29.1.36Zm-11.64,9.24,47.3-.57c-.17-.41-.37-.82-.55-1.23l-45.17.54Zm-.76,7.86c.36.39.77.8,1.17,1.23l50.6-.62c-.13-.4-.28-.82-.44-1.23Zm9,9,1.3,1.21,43.38-.53a6.44,6.44,0,0,0,.05-1.24Zm10.13,9c.52.41,1,.82,1.55,1.21l28.18-.34c.38-.41.72-.82,1-1.24Z"/><path class="cls-4" d="M331.65,191.84c-3.23-12.43-12.18-23.71-12.75-24.35-.27-.31-.77-.17-.71-.05,1.1,2.23,9.62,15.9,13.06,24.52C331.28,192,331.68,191.93,331.65,191.84Z"/><polygon class="cls-3" points="319.13 167.01 281.65 199.35 273.46 190.52 313.56 156.86 319.13 167.01"/><polygon class="cls-8" points="319.13 167.01 281.65 199.35 273.46 190.52 313.56 156.86 319.13 167.01"/><path class="cls-4" d="M361.28,149.25c-1.28,3.89-2.54,7.77-3.89,11.64s-2.65,7.73-4.06,11.57c-2.8,7.67-5.67,15.33-9,22.76-1.68,3.72-3.4,7.42-5.4,10.95-1,1.77-2.07,3.49-3.24,5.14a34.07,34.07,0,0,1-4,4.54,29.9,29.9,0,0,1-9.87,6.86,12.78,12.78,0,0,1-5.9.86,16,16,0,0,1-5.73-2,15.07,15.07,0,0,0,5.68,2.32,13.08,13.08,0,0,0,6.17-.61A35.84,35.84,0,0,0,336.56,212c1.22-1.68,2.31-3.43,3.35-5.21a120.63,120.63,0,0,0,5.53-11c3.28-7.52,6.19-15.19,8.79-23S359.23,157.17,361.28,149.25Z"/><path class="cls-4" d="M361.6,153.61c-.6.9-1.13,1.79-1.69,2.68l-.81,1.34c-.26.45-.55.9-.79,1.38a8.29,8.29,0,0,0,2.14-2.39,8.51,8.51,0,0,0,.72-1.45A6,6,0,0,0,361.6,153.61Z"/><path class="cls-4" d="M335.67,142.56a142.08,142.08,0,0,0-9.21,11c-2.89,3.82-5.7,7.7-8.21,11.81,3.3-3.51,6.29-7.25,9.21-11S333.16,146.67,335.67,142.56Z"/><path class="cls-4" d="M332.66,143.25a11.85,11.85,0,0,0-2.34,3.47,9,9,0,0,0-.86,4.1c.21-.67.41-1.32.65-2s.5-1.26.79-1.88C331.44,145.73,332.06,144.52,332.66,143.25Z"/></svg>