<svg id="Слой_1" data-name="Слой 1" xmlns="http://www.w3.org/2000/svg" xmlns:xlink="http://www.w3.org/1999/xlink" viewBox="0 0 581.13 402.55"><defs><style>.cls-1{fill:none;}.cls-2{clip-path:url(#clip-path);}.cls-3{fill:#4a148c;}.cls-4{fill:#ffc800;}.cls-5{fill:#306;}.cls-6{fill:#fff;}.cls-7{fill:#dcdcdc;}.cls-8{fill:#a8a8a8;}.cls-9{clip-path:url(#clip-path-2);}.cls-10{fill:#ececec;}.cls-11{fill:#c8c8c8;}.cls-12{fill:#e55f4e;}.cls-13{fill:#ff98bb;}.cls-14{fill:#c36358;}.cls-15{opacity:0.2;}.cls-16{fill:#1a2e35;}.cls-17{clip-path:url(#clip-path-3);}.cls-18{fill:#ff9581;}.cls-19{opacity:0.1;}</style><clipPath id="clip-path"><rect class="cls-1" x="-16" y="-462.95" width="613" height="420"/></clipPath><clipPath id="clip-path-2"><rect class="cls-1" x="-10" y="-8.95" width="602" height="423"/></clipPath><clipPath id="clip-path-3"><rect class="cls-1" x="-662" y="-15.95" width="630" height="429"/></clipPath></defs><g class="cls-2"><path class="cls-3" d="M539.54,56.39a46.47,46.47,0,0,1-14,4.49,46.72,46.72,0,0,1-35.23-8.74,47,47,0,1,1,49.21,4.25Z"/><path class="cls-4" d="M533.05,10.34A14.29,14.29,0,1,1,520-5.12,14.28,14.28,0,0,1,533.05,10.34Z"/><path class="cls-4" d="M540.05,50.51l-.51,5.88a46.47,46.47,0,0,1-14,4.49,46.72,46.72,0,0,1-35.23-8.74l.51-5.85a24.7,24.7,0,1,1,49.21,4.22Z"/><path class="cls-5" d="M428.58-549.13H154.72c-15.3,0-27.71,12.63-27.71,28.23V42.89c0,15.57,12.41,28.22,27.71,28.22H428.58a28,28,0,0,0,27.74-28.22V-520.9A28,28,0,0,0,428.58-549.13ZM439,25.46c0,14.84-11.11,26.84-24.82,26.84h-245c-13.74,0-24.86-12-24.86-26.84v-525c0-30.23,11.12-31.7,24.86-31.7h49.07c2.85,0,5.18,3.24,5.18,7.26v1.73c0,9.41,5.15,9.45,11.49,9.45h113.5c6.38,0,11.48,0,11.48-9.45V-524c0-4,2.3-7.26,5.2-7.26h49.09c13.71,0,24.82,4,24.82,31.7Z"/><path class="cls-6" d="M439-499.54v525c0,14.84-11.11,26.84-24.82,26.84h-245c-13.74,0-24.86-12-24.86-26.84v-525c0-30.23,11.12-31.7,24.86-31.7h49.07c2.85,0,5.18,3.24,5.18,7.26v1.73c0,9.41,5.15,9.45,11.49,9.45h113.5c6.38,0,11.48,0,11.48-9.45V-524c0-4,2.3-7.26,5.2-7.26h49.09C427.89-531.24,439-527.22,439-499.54Z"/><path class="cls-7" d="M174.33,38.1a8.09,8.09,0,0,1-2.41,1,8.36,8.36,0,1,1,2.41-1Z"/><path class="cls-6" d="M172.48,30a2.55,2.55,0,1,1-2.54-2.55A2.54,2.54,0,0,1,172.48,30Z"/><path class="cls-6" d="M174.33,37.05V38.1a8.09,8.09,0,0,1-2.41,1,8.33,8.33,0,0,1-6.38-1V37.05a4.4,4.4,0,0,1,8.79,0Z"/><path d="M186,31.94V28.12a.36.36,0,1,1,.72,0v2.24L188.05,29a.36.36,0,0,1,.51,0,.35.35,0,0,1,0,.5l-1,1,1,1.2a.36.36,0,0,1-.05.51.38.38,0,0,1-.23.08.37.37,0,0,1-.27-.13L187.08,31l-.36.35v.57a.36.36,0,0,1-.72,0Z"/><path d="M189.24,30.68a1.61,1.61,0,0,1,1.58-1.62,1.56,1.56,0,0,1,1.57,1.5v0s0,0,0,0a.31.31,0,0,1-.34.26H190a.89.89,0,0,0,.22.43,1,1,0,0,0,.62.29,1.08,1.08,0,0,0,.68-.16.35.35,0,0,1,.48,0,.29.29,0,0,1,0,.42,1.63,1.63,0,0,1-2.74-1.19Zm.71-.32h1.83a1.05,1.05,0,0,0-1-.69A.91.91,0,0,0,190,30.36Z"/><path d="M196.12,30.41V32a.34.34,0,0,1-.34.34.35.35,0,0,1-.34-.34V30.41a.67.67,0,0,0-.68-.66.64.64,0,0,0-.64.66V32a.1.1,0,0,1,0,.06.35.35,0,0,1-.34.28.34.34,0,0,1-.34-.34V29.4a.34.34,0,0,1,.34-.34.36.36,0,0,1,.32.2,1.29,1.29,0,0,1,.68-.2A1.35,1.35,0,0,1,196.12,30.41Z"/><path d="M200.19,32a.35.35,0,0,1-.35.35.35.35,0,0,1-.34-.28,1.56,1.56,0,0,1-2.45-1.33,1.61,1.61,0,0,1,1.57-1.63,1.52,1.52,0,0,1,.87.27V28.11a.35.35,0,1,1,.7,0v2.57h0Zm-1.57-2.18A.83.83,0,0,0,198,30a.94.94,0,0,0,0,1.3.83.83,0,0,0,.61.26.82.82,0,0,0,.61-.26.94.94,0,0,0,0-1.3A.82.82,0,0,0,198.62,29.77Z"/><path d="M204.28,30.69V32a.35.35,0,0,1-.35.34.34.34,0,0,1-.33-.28,1.53,1.53,0,0,1-.87.28,1.51,1.51,0,0,1-1.1-.47,1.71,1.71,0,0,1,0-2.29,1.52,1.52,0,0,1,1.1-.48,1.47,1.47,0,0,1,.87.29.33.33,0,0,1,.33-.29.35.35,0,0,1,.35.35Zm-.69,0a1,1,0,0,0-.25-.67.8.8,0,0,0-.61-.27.77.77,0,0,0-.6.27,1,1,0,0,0-.24.67,1,1,0,0,0,.24.66.82.82,0,0,0,.6.25.86.86,0,0,0,.61-.25A1,1,0,0,0,203.59,30.69Z"/><path d="M206,27.76a.36.36,0,0,1,.36.36v3.82a.36.36,0,0,1-.36.36.36.36,0,0,1-.36-.36V28.12A.37.37,0,0,1,206,27.76Z"/><path d="M207.65,27.76a.37.37,0,0,1,.37.36v3.82a.37.37,0,0,1-.37.36.36.36,0,0,1-.35-.36V28.12A.36.36,0,0,1,207.65,27.76Z"/><path d="M208.11,33a.3.3,0,0,1,.3-.31h3.91a.31.31,0,0,1,0,.62h-3.91A.3.3,0,0,1,208.11,33Z"/><path d="M214.75,29.4a.35.35,0,0,1-.35.35.58.58,0,0,0-.38.12,1,1,0,0,0-.3.31,2.18,2.18,0,0,0-.27.54V32a.35.35,0,0,1-.7,0V29.4a.35.35,0,0,1,.7,0v.05a.57.57,0,0,1,.14-.13,1.39,1.39,0,0,1,.81-.25A.34.34,0,0,1,214.75,29.4Z"/><path d="M215.73,31.83a1.66,1.66,0,0,1-.44-1.14,1.72,1.72,0,0,1,.44-1.14,1.55,1.55,0,0,1,1.12-.49,1.45,1.45,0,0,1,1.08.49,1.64,1.64,0,0,1,.45,1.14,1.58,1.58,0,0,1-.45,1.14,1.45,1.45,0,0,1-1.08.49A1.55,1.55,0,0,1,215.73,31.83Zm.26-1.14a1,1,0,0,0,.24.68.84.84,0,0,0,.62.24.81.81,0,0,0,.59-.24,1,1,0,0,0,0-1.36.9.9,0,0,0-.59-.24.93.93,0,0,0-.62.24A1,1,0,0,0,216,30.69Z"/><path d="M219.33,31.37a.35.35,0,0,1,.49-.05,1.18,1.18,0,0,0,.71.28.82.82,0,0,0,.44-.12.26.26,0,0,0,.12-.19.14.14,0,0,0,0-.07.25.25,0,0,0-.09-.07,1.43,1.43,0,0,0-.51-.19h0a2.52,2.52,0,0,1-.57-.17,1,1,0,0,1-.44-.37.81.81,0,0,1-.11-.41.91.91,0,0,1,.38-.71,1.37,1.37,0,0,1,.8-.24,1.64,1.64,0,0,1,1,.36.36.36,0,0,1,.1.48.35.35,0,0,1-.48.09,1.09,1.09,0,0,0-.59-.24.7.7,0,0,0-.39.11c-.09.06-.11.12-.11.15s0,0,0,0,0,0,.07.07a1.11,1.11,0,0,0,.47.15h0a2.41,2.41,0,0,1,.61.19,1.05,1.05,0,0,1,.46.38.93.93,0,0,1,.12.43,1,1,0,0,1-.41.75,1.47,1.47,0,0,1-.84.26,1.87,1.87,0,0,1-1.15-.45A.35.35,0,0,1,219.33,31.37Z"/><path d="M222.45,31.37a.35.35,0,0,1,.49-.05,1.18,1.18,0,0,0,.71.28.79.79,0,0,0,.44-.12.26.26,0,0,0,.12-.19.14.14,0,0,0,0-.07.19.19,0,0,0-.08-.07,1.5,1.5,0,0,0-.52-.19h0a2.44,2.44,0,0,1-.56-.17,1,1,0,0,1-.45-.37.81.81,0,0,1-.11-.41.91.91,0,0,1,.38-.71,1.37,1.37,0,0,1,.8-.24,1.61,1.61,0,0,1,1,.36.35.35,0,0,1,.1.48.34.34,0,0,1-.47.09,1.09,1.09,0,0,0-.6-.24.7.7,0,0,0-.39.11.21.21,0,0,0-.1.15.07.07,0,0,0,0,0,.22.22,0,0,0,.07.07,1.17,1.17,0,0,0,.47.15h0a2.47,2.47,0,0,1,.6.19,1.05,1.05,0,0,1,.46.38.82.82,0,0,1,.12.43.93.93,0,0,1-.41.75,1.47,1.47,0,0,1-.84.26,1.89,1.89,0,0,1-1.15-.45A.36.36,0,0,1,222.45,31.37Z"/><path d="M411.9,30.05a.8.8,0,0,1,.79.79.78.78,0,0,1-.79.77.76.76,0,0,1-.77-.77A.78.78,0,0,1,411.9,30.05Z"/><path d="M414.32,30.05a.8.8,0,0,1,.79.79.78.78,0,0,1-.79.77.77.77,0,0,1-.78-.77A.79.79,0,0,1,414.32,30.05Z"/><path d="M416.74,30.05a.8.8,0,0,1,.79.79.78.78,0,0,1-.79.77.77.77,0,0,1-.78-.77A.79.79,0,0,1,416.74,30.05Z"/><path class="cls-7" d="M173.26.69a6.4,6.4,0,0,1-1.84.77,6.36,6.36,0,0,1-4.87-.77,6.4,6.4,0,0,1-2.84-3.91,6.39,6.39,0,0,1,4.68-7.71,6.38,6.38,0,0,1,7.71,4.69A6.38,6.38,0,0,1,173.26.69Z"/><path class="cls-6" d="M173.26-.11v.8a6.4,6.4,0,0,1-1.84.77,6.36,6.36,0,0,1-4.87-.77v-.8a3.35,3.35,0,0,1,3.35-3.35A3.35,3.35,0,0,1,173.26-.11Z"/><path class="cls-8" d="M166.93,9h-2.48a.14.14,0,0,1-.09,0,.14.14,0,0,1,0-.22L167,5.52h0a.15.15,0,0,1,.22,0,.56.56,0,0,1,.05.08V8.73h.31a.16.16,0,0,1,.16.15.16.16,0,0,1-.16.16h-.31v.78a.16.16,0,0,1-.16.15.15.15,0,0,1-.15-.15Zm0-.31V6.07l-2.15,2.66Z"/><path class="cls-8" d="M173.15,8.05a1,1,0,0,0-2,0V9.86s0,0,0,0a.16.16,0,0,1-.1.08h0a.21.21,0,0,1-.13-.05l0-.05a.09.09,0,0,1,0,0V5.6a.16.16,0,0,1,.32,0V7.27a1.29,1.29,0,0,1,1-.47,1.26,1.26,0,0,1,1.33,1.25V9.82a.16.16,0,0,1-.32,0Z"/><path class="cls-8" d="M176.15,6.8a1.59,1.59,0,1,1-1.51,1.59A1.56,1.56,0,0,1,176.15,6.8Zm0,2.86A1.28,1.28,0,1,0,175,8.39,1.24,1.24,0,0,0,176.15,9.66Z"/><path class="cls-8" d="M178.68,7a.16.16,0,0,1,.15-.16A.16.16,0,0,1,179,7V8.68a1,1,0,1,0,1.95,0V7a.16.16,0,0,1,.16-.16.16.16,0,0,1,.16.16V8.68a1.29,1.29,0,1,1-2.58,0Z"/><path class="cls-8" d="M182.71,7a.15.15,0,0,1,.16-.15A.15.15,0,0,1,183,7v.7l0-.08a1.54,1.54,0,0,1,1.27-.77.15.15,0,0,1,.15.15.16.16,0,0,1-.15.16,1.14,1.14,0,0,0-.92.51,2.85,2.85,0,0,0-.38.74s0,0,0,.05v1.4a.15.15,0,0,1-.15.15.15.15,0,0,1-.16-.15Z"/><path class="cls-8" d="M185.34,9.31a.16.16,0,0,1,.22,0,1.64,1.64,0,0,0,1,.37.92.92,0,0,0,.6-.19.48.48,0,0,0,.24-.39.5.5,0,0,0-.23-.39,1.56,1.56,0,0,0-.67-.23h0a1.75,1.75,0,0,1-.72-.24.68.68,0,0,1-.34-.58.79.79,0,0,1,.34-.62,1.36,1.36,0,0,1,.78-.21,1.73,1.73,0,0,1,.94.34.16.16,0,1,1-.17.27,1.33,1.33,0,0,0-.77-.32,1,1,0,0,0-.61.18.5.5,0,0,0-.2.36.4.4,0,0,0,.18.32,1.54,1.54,0,0,0,.65.22h0a2.39,2.39,0,0,1,.78.26.81.81,0,0,1,.35.65.82.82,0,0,1-.36.64,1.31,1.31,0,0,1-.79.25,1.87,1.87,0,0,1-1.17-.45A.15.15,0,0,1,185.34,9.31Z"/><path class="cls-8" d="M193.35,7V9.82a.15.15,0,0,1-.15.15.16.16,0,0,1-.16-.15V9.34a1.47,1.47,0,0,1-1.19.63,1.54,1.54,0,0,1-1.5-1.58,1.54,1.54,0,0,1,1.5-1.59,1.46,1.46,0,0,1,1.19.62V7a.15.15,0,0,1,.16-.16A.15.15,0,0,1,193.35,7ZM193,8.39a1.19,1.19,0,1,0-2.38,0,1.19,1.19,0,1,0,2.38,0Z"/><path class="cls-8" d="M197.7,9.72a1.5,1.5,0,0,1-1.5,1.49,1.67,1.67,0,0,1-.66-.15.17.17,0,0,1-.06-.21.15.15,0,0,1,.21-.07,1.1,1.1,0,0,0,.51.12,1.18,1.18,0,0,0,1.19-1.18V9.33a1.45,1.45,0,0,1-1.19.62,1.53,1.53,0,0,1-1.49-1.58A1.54,1.54,0,0,1,196.2,6.8a1.45,1.45,0,0,1,1.19.62V7a.16.16,0,0,1,.16-.16.16.16,0,0,1,.15.16Zm-.31-1.35a1.18,1.18,0,1,0-2.36,0,1.18,1.18,0,1,0,2.36,0Z"/><path class="cls-8" d="M200.56,6.8a1.59,1.59,0,1,1-1.5,1.59A1.56,1.56,0,0,1,200.56,6.8Zm0,2.86a1.28,1.28,0,1,0-1.19-1.27A1.24,1.24,0,0,0,200.56,9.66Z"/><path class="cls-5" d="M229,6.71h-.21V5.5H229c2,0,4.15,0,6.23-.15l.06,1.21C233.18,6.66,231.06,6.71,229,6.71Zm-8.36-.26c-2.16-.13-4.35-.32-6.49-.56l.13-1.21c2.13.24,4.3.42,6.44.56Zm22.78-.51-.13-1.21c2.13-.23,4.28-.51,6.4-.84l.19,1.2C247.72,5.42,245.55,5.71,243.4,5.94Zm-37.34-1.2C204,4.37,201.8,4,199.67,3.47l.27-1.19c2.11.48,4.24.9,6.33,1.26Zm51.81-1.15-.26-1.18c2.1-.46,4.21-1,6.29-1.51l.31,1.17C262.12,2.62,260,3.14,257.87,3.59ZM191.78,1.45C189.71.86,187.61.2,185.56-.49L186-1.64c2,.69,4.11,1.34,6.16,1.93ZM272-.23l-.38-1.16c2-.65,4.07-1.37,6.11-2.13l.42,1.14C276.12-1.61,274.05-.89,272-.23Zm-94.1-3.1c-2-.82-4-1.69-6-2.59L172.45-7c2,.9,4,1.77,5.93,2.57Zm107.8-2.1-.48-1.11c2-.86,3.93-1.78,5.82-2.74l.55,1.08C289.7-7.22,287.71-6.29,285.72-5.43ZM164.64-9.55c-1.92-1-3.83-2.1-5.68-3.2l.62-1c1.83,1.09,3.73,2.15,5.64,3.17Zm134.09-2.58-.63-1c1.84-1.11,3.67-2.28,5.44-3.5l.68,1C302.43-14.44,300.58-13.25,298.73-12.13Zm-146.65-5c-1.81-1.22-3.6-2.49-5.32-3.77l.73-1c1.7,1.27,3.48,2.53,5.27,3.74Zm158.69-3.39-.75-1c1.68-1.33,3.34-2.72,5-4.14l.8.91C314.15-23.24,312.47-21.83,310.77-20.49Zm-170.4-5.44c-1.67-1.4-3.31-2.85-4.89-4.31l.82-.89c1.57,1.45,3.2,2.89,4.85,4.27Zm181.35-4.29-.86-.86c1.49-1.48,3-3.05,4.48-4.65l.89.82C324.74-33.29,323.22-31.71,321.72-30.22ZM331.59-41l-.93-.78c1.36-1.64,2.72-3.33,4-5l1,.75C334.33-44.39,333-42.68,331.59-41Zm8.92-11.61-1-.71c1.24-1.74,2.47-3.52,3.67-5.32l1,.68Q342.39-55.27,340.51-52.64Zm8.12-12.18-1-.65c1.14-1.81,2.27-3.66,3.38-5.52l1,.63C350.9-68.49,349.77-66.65,348.63-64.82Zm7.49-12.56-1.05-.6q1.59-2.8,3.17-5.66l1.06.59Q357.73-80.18,356.12-77.38Zm7.05-12.82-1.07-.57q1.51-2.85,3-5.74l1.08.56Q364.69-93.05,363.17-90.2Zm6.74-13-1.08-.55c1-1.92,1.95-3.85,2.93-5.79l1.08.55Q371.39-106,369.91-103.17Zm6.57-13-1.08-.54,2.9-5.81,1.08.54ZM383-129.28l-1.09-.55,2.92-5.8,1.09.55C385-133.15,384-131.21,383-129.28Zm6.6-13-1.08-.55,3-5.77,1.08.57Q391.11-145.19,389.62-142.31Zm6.79-12.92-1.07-.57q1.53-2.85,3.09-5.69l1.07.58C398.45-159,397.43-157.12,396.41-155.23Zm7-12.73-1.05-.6q1.61-2.81,3.25-5.6l1.05.61C405.59-171.69,404.51-169.82,403.44-168Zm7.41-12.51-1-.63q1.69-2.76,3.44-5.49l1,.65Q412.54-183.21,410.85-180.47Zm7.86-12.22-1-.68c1.21-1.79,2.43-3.58,3.68-5.36l1,.7Q420.51-195.37,418.71-192.69Zm8.41-11.9-1-.73c1.29-1.73,2.61-3.46,3.94-5.17l1,.75Q429-207.19,427.12-204.59Zm9-11.45-.93-.77q2.07-2.5,4.22-4.95l.91.8C438.89-219.34,437.49-217.69,436.11-216Zm9.64-10.91-.89-.83q2.22-2.35,4.52-4.67l.86.85Q448-229.29,445.75-226.95Zm10.3-10.27-.83-.89c1.58-1.48,3.18-2.93,4.82-4.37l.8.92C459.21-240.14,457.62-238.69,456.05-237.22Zm11-9.56-.77-.94c1.69-1.38,3.41-2.73,5.11-4l.74,1C470.4-249.49,468.69-248.15,467-246.78Zm11.6-8.76-.69-1c1.76-1.23,3.57-2.46,5.38-3.64l.67,1C482.17-258,480.36-256.77,478.61-255.54Zm12.2-7.91-.62-1.05c1.86-1.11,3.76-2.2,5.64-3.25l.59,1.06C494.55-265.65,492.66-264.56,490.81-263.45Z"/></g><g class="cls-9"><polygon class="cls-3" points="163 721.41 150.21 721.41 239.84 362.31 271.7 362.31 163 721.41"/><polygon class="cls-5" points="271.7 362.32 255.63 415.42 226.58 415.42 239.82 362.36 239.84 362.32 271.7 362.32"/><polygon class="cls-3" points="287.06 702.35 274.27 702.35 283.81 362.31 315.66 362.31 287.06 702.35"/><polygon class="cls-5" points="315.66 362.32 311.19 415.42 282.32 415.42 283.81 362.36 283.81 362.32 315.66 362.32"/><polygon class="cls-3" points="411.68 721.41 424.46 721.41 353.9 362.31 322.05 362.31 411.68 721.41"/><polygon class="cls-5" points="364.34 415.42 335.3 415.42 322.05 362.32 353.91 362.32 353.93 362.36 364.34 415.42"/><rect class="cls-10" x="46.43" y="10.73" width="506.6" height="373.8"/><rect class="cls-3" x="27.88" y="-4.15" width="543.7" height="27.7"/><rect class="cls-6" x="62.87" y="41.49" width="54.86" height="65.01"/><path class="cls-3" d="M92.27,45.91a2,2,0,1,1-2-2A2,2,0,0,1,92.27,45.91Z"/><path class="cls-10" d="M73.31,54.51C78.86,54.08,84.4,54.06,90,54s11.09.09,16.64.52C101,54.94,95.5,55,90,55S78.86,54.94,73.31,54.51Z"/><path class="cls-10" d="M73.31,59.65a72.16,72.16,0,0,1,9-.52,70.27,70.27,0,0,1,9,.52,70.25,70.25,0,0,1-9,.51A72.15,72.15,0,0,1,73.31,59.65Z"/><path class="cls-10" d="M73.31,64.79a114.5,114.5,0,0,1,11.56-.52,114.77,114.77,0,0,1,11.56.52c-3.86.4-7.71.49-11.56.51S77.16,65.19,73.31,64.79Z"/><path class="cls-10" d="M73.31,69.92c4.82-.4,9.64-.49,14.46-.51s9.64.11,14.47.51c-4.83.41-9.65.5-14.47.52S78.13,70.33,73.31,69.92Z"/><path class="cls-10" d="M73.31,75.06c4.19-.4,8.37-.49,12.56-.52s8.38.12,12.57.52c-4.19.41-8.38.5-12.57.52S77.5,75.46,73.31,75.06Z"/><path class="cls-10" d="M73.31,80.2c5.36-.43,10.72-.46,16.08-.52s10.72.09,16.08.52c-5.36.43-10.72.45-16.08.51S78.67,80.62,73.31,80.2Z"/><path class="cls-10" d="M73.31,85.34a92.57,92.57,0,0,1,10.39-.52,92.51,92.51,0,0,1,10.38.52,94.93,94.93,0,0,1-10.38.51A95,95,0,0,1,73.31,85.34Z"/><path class="cls-10" d="M73.31,90.47C78.86,90.05,84.4,90,90,90s11.09.08,16.64.51C101,90.9,95.5,90.93,90,91S78.86,90.9,73.31,90.47Z"/><path class="cls-10" d="M73.31,95.61c5.55-.43,11.09-.45,16.64-.51s11.09.08,16.64.51C101,96,95.5,96.07,90,96.13S78.86,96,73.31,95.61Z"/><rect class="cls-6" x="485.26" y="210.12" width="51.09" height="60.53"/><path class="cls-3" d="M512.35,218.29a1.55,1.55,0,1,1-1.55-1.55A1.54,1.54,0,0,1,512.35,218.29Z"/><path class="cls-10" d="M492.41,225.23a35.93,35.93,0,0,1,5.66-.41,34.9,34.9,0,0,1,5.67.41,40.32,40.32,0,0,1-11.33,0Z"/><path class="cls-10" d="M492.41,229.79a65.82,65.82,0,0,1,14.67,0,65.82,65.82,0,0,1-14.67,0Z"/><path class="cls-10" d="M492.41,234.35a53.32,53.32,0,0,1,6.79-.4,51.7,51.7,0,0,1,6.8.4,50,50,0,0,1-6.8.41A51.56,51.56,0,0,1,492.41,234.35Z"/><path class="cls-10" d="M492.41,238.92a56.51,56.51,0,0,1,13.59,0,56.51,56.51,0,0,1-13.59,0Z"/><path class="cls-10" d="M492.41,243.48a43.71,43.71,0,0,1,11.8,0,37.68,37.68,0,0,1-5.9.41A39,39,0,0,1,492.41,243.48Z"/><path class="cls-10" d="M492.41,248.05a69.81,69.81,0,0,1,15.11,0,61.77,61.77,0,0,1-7.56.4A63.66,63.66,0,0,1,492.41,248.05Z"/><path class="cls-10" d="M492.41,252.61a43.54,43.54,0,0,1,6.23-.4,42.18,42.18,0,0,1,6.24.4,47.61,47.61,0,0,1-12.47,0Z"/><path class="cls-10" d="M492.41,257.18a68.16,68.16,0,0,1,7.82-.41,65.92,65.92,0,0,1,7.81.41,76.54,76.54,0,0,1-15.63,0Z"/><path class="cls-10" d="M492.41,261.74a74.69,74.69,0,0,1,15.63,0,74.69,74.69,0,0,1-15.63,0Z"/><path class="cls-10" d="M514.73,225.23a61.62,61.62,0,0,1,7.42-.41,59.69,59.69,0,0,1,7.43.41,69.11,69.11,0,0,1-14.85,0Z"/><path class="cls-10" d="M514.73,229.79a29.25,29.25,0,0,1,9.76,0,29.25,29.25,0,0,1-9.76,0Z"/><path class="cls-10" d="M514.73,234.35a56.49,56.49,0,0,1,7-.4,54.56,54.56,0,0,1,7,.4,52.82,52.82,0,0,1-7,.41A54.63,54.63,0,0,1,514.73,234.35Z"/><path class="cls-10" d="M514.73,238.92a56.51,56.51,0,0,1,13.59,0,56.51,56.51,0,0,1-13.59,0Z"/><path class="cls-10" d="M514.73,243.48a69.11,69.11,0,0,1,14.85,0,59.69,59.69,0,0,1-7.43.41A61.62,61.62,0,0,1,514.73,243.48Z"/><path class="cls-10" d="M514.73,248.05a42.73,42.73,0,0,1,11.81,0,37.83,37.83,0,0,1-5.9.4A39.13,39.13,0,0,1,514.73,248.05Z"/><path class="cls-10" d="M514.73,252.61a54.61,54.61,0,0,1,7-.4,52.8,52.8,0,0,1,7,.4,59.71,59.71,0,0,1-14,0Z"/><path class="cls-10" d="M514.73,257.18a32.74,32.74,0,0,1,5.4-.41,31.88,31.88,0,0,1,5.41.41,36.72,36.72,0,0,1-10.81,0Z"/><path class="cls-10" d="M514.73,261.74a33,33,0,0,1,10.37,0,33,33,0,0,1-10.37,0Z"/><rect class="cls-4" x="77.58" y="103.44" width="33.01" height="33.01"/><path class="cls-3" d="M96.05,106.79a2,2,0,1,1-2-2A2,2,0,0,1,96.05,106.79Z"/><polygon class="cls-11" points="122.81 231.4 210.96 231.17 299.1 231.4 210.96 231.62 122.81 231.4"/><polygon class="cls-11" points="122.81 238.59 210.96 238.36 299.1 238.59 210.96 238.81 122.81 238.59"/><polygon class="cls-11" points="122.81 245.77 210.96 245.55 299.1 245.77 210.96 246 122.81 245.77"/><polygon class="cls-11" points="122.81 252.96 210.96 252.74 299.1 252.96 210.96 253.19 122.81 252.96"/><polygon class="cls-11" points="122.81 260.15 210.96 259.93 299.1 260.15 210.96 260.37 122.81 260.15"/><polygon class="cls-11" points="122.81 267.34 210.96 267.12 299.1 267.34 210.96 267.56 122.81 267.34"/><polygon class="cls-11" points="122.81 274.53 210.96 274.3 299.1 274.53 210.96 274.75 122.81 274.53"/><polygon class="cls-11" points="122.81 281.71 210.96 281.49 299.1 281.71 210.96 281.94 122.81 281.71"/><polygon class="cls-11" points="122.81 288.9 210.96 288.68 299.1 288.9 210.96 289.13 122.81 288.9"/><polygon class="cls-11" points="122.81 296.09 210.96 295.87 299.1 296.09 210.96 296.31 122.81 296.09"/><polygon class="cls-11" points="122.81 303.28 210.96 303.06 299.1 303.28 210.96 303.5 122.81 303.28"/><polygon class="cls-11" points="122.81 310.47 210.96 310.25 299.1 310.47 210.96 310.69 122.81 310.47"/><polygon class="cls-11" points="122.81 317.66 210.96 317.43 299.1 317.66 210.96 317.88 122.81 317.66"/><polygon class="cls-11" points="122.81 324.85 210.96 324.62 299.1 324.85 210.96 325.07 122.81 324.85"/><polygon class="cls-11" points="122.81 332.03 210.96 331.81 299.1 332.03 210.96 332.26 122.81 332.03"/><rect class="cls-4" x="141.46" y="310.25" width="13.37" height="30.17"/><rect class="cls-4" x="166.25" y="294.15" width="13.37" height="46.26"/><rect class="cls-4" x="191.05" y="276.14" width="13.37" height="64.27"/><rect class="cls-4" x="215.85" y="268.4" width="13.37" height="72.01"/><rect class="cls-4" x="240.65" y="254.61" width="13.37" height="85.8"/><rect class="cls-4" x="265.45" y="240.99" width="13.37" height="99.42"/><path class="cls-11" d="M127.6,226.35l.35,28.52.23,28.51c.17,19,.22,38,.25,57l-.83-.82,42.87,0,42.88.1,42.87.27,42.87.49-42.87.49-42.87.28-42.88.1-42.87,0h-.83v-.83q0-28.52.24-57l.24-28.51Z"/><rect class="cls-11" x="141.46" y="346.44" width="13.37" height="1.21"/><rect class="cls-11" x="166.25" y="346.44" width="13.37" height="1.21"/><rect class="cls-11" x="191.05" y="346.44" width="13.37" height="1.21"/><rect class="cls-11" x="215.85" y="346.44" width="13.37" height="1.21"/><rect class="cls-11" x="240.65" y="346.44" width="13.37" height="1.21"/><rect class="cls-11" x="265.45" y="346.44" width="13.37" height="1.21"/><path class="cls-5" d="M143,314.05a163.44,163.44,0,0,0,19.53-1.48,186.63,186.63,0,0,0,19.23-3.47,166.3,166.3,0,0,0,36.73-12.93,130.94,130.94,0,0,0,32.09-21.85l1.81-1.64,1.71-1.74,3.41-3.49c2.11-2.47,4.37-4.83,6.28-7.46a135,135,0,0,0,10.95-16.21l.1.06a117.23,117.23,0,0,1-38.5,44,131.72,131.72,0,0,1-17,10A159.77,159.77,0,0,1,182,310.52,161.05,161.05,0,0,1,143,314.05Z"/><polygon class="cls-5" points="278.48 253.08 276.63 253.55 274.36 244.42 265.43 247.36 264.83 245.54 275.71 241.97 278.48 253.08"/><path class="cls-3" d="M219.59,162.61a82,82,0,0,0-19.85,2.61,72.78,72.78,0,0,0-18.52,7.38,47.34,47.34,0,0,0-14.85,13,38.65,38.65,0,0,0-7.13,18.2A33.65,33.65,0,0,0,162,222.93a37.06,37.06,0,0,0,13,14.41,61.41,61.41,0,0,0,18,8,86.62,86.62,0,0,0,19.62,2.91c13.2.42,26.76-1.55,38.6-7.48a43.06,43.06,0,0,0,15.19-12.28,31.42,31.42,0,0,0,.64-36.77A49.52,49.52,0,0,0,252.93,178a63.84,63.84,0,0,0-38-10.42,64.41,64.41,0,0,1,38.5,9.62A50.56,50.56,0,0,1,268.12,191a33,33,0,0,1,6.1,19.23,32.45,32.45,0,0,1-6.41,19.2,44.9,44.9,0,0,1-15.73,12.85c-12.19,6.15-26,8.19-39.46,7.83a87.16,87.16,0,0,1-20-3,63.07,63.07,0,0,1-18.51-8.31,38.72,38.72,0,0,1-13.53-15.13,34.49,34.49,0,0,1-2.73-20.06,40.08,40.08,0,0,1,7.61-18.71,47.76,47.76,0,0,1,15.36-13.06,73.09,73.09,0,0,1,18.86-7A81.78,81.78,0,0,1,219.59,162.61Z"/><rect class="cls-11" x="216.64" y="48.72" width="166.18" height="4.33"/><rect class="cls-11" x="245.06" y="57.76" width="109.35" height="4.33"/><rect class="cls-11" x="166" y="198.37" width="89.9" height="4.33"/><rect class="cls-11" x="194.42" y="207.4" width="33.07" height="4.33"/><polygon class="cls-11" points="337.99 182.17 358.22 181.98 378.44 181.91 418.9 181.77 459.36 181.91 479.58 181.97 499.81 182.17 479.58 182.37 459.36 182.44 418.9 182.57 378.44 182.44 358.22 182.37 337.99 182.17"/><polygon class="cls-11" points="337.99 170.98 358.22 170.79 378.44 170.72 418.9 170.58 459.36 170.72 479.58 170.79 499.81 170.98 479.58 171.18 459.36 171.25 418.9 171.38 378.44 171.25 358.22 171.18 337.99 170.98"/><polygon class="cls-11" points="337.99 159.79 358.22 159.6 378.44 159.53 418.9 159.39 459.36 159.53 479.58 159.6 499.81 159.79 479.58 159.99 459.36 160.06 418.9 160.19 378.44 160.06 358.22 159.99 337.99 159.79"/><polygon class="cls-11" points="337.99 148.6 358.22 148.41 378.44 148.34 418.9 148.2 459.36 148.34 479.58 148.41 499.81 148.6 479.58 148.8 459.36 148.87 418.9 149 378.44 148.87 358.22 148.8 337.99 148.6"/><polygon class="cls-11" points="337.99 137.41 358.22 137.22 378.44 137.15 418.9 137.01 459.36 137.15 479.58 137.22 499.81 137.41 479.58 137.61 459.36 137.68 418.9 137.81 378.44 137.68 358.22 137.61 337.99 137.41"/><polygon class="cls-11" points="337.99 126.22 358.22 126.03 378.44 125.96 418.9 125.82 459.36 125.96 479.58 126.03 499.81 126.22 479.58 126.42 459.36 126.49 418.9 126.63 378.44 126.49 358.22 126.42 337.99 126.22"/><polygon class="cls-11" points="337.99 115.03 358.22 114.84 378.44 114.77 418.9 114.63 459.36 114.77 479.58 114.84 499.81 115.03 479.58 115.23 459.36 115.3 418.9 115.44 378.44 115.3 358.22 115.23 337.99 115.03"/><polygon class="cls-11" points="337.99 103.84 358.22 103.65 378.44 103.58 418.9 103.44 459.36 103.58 479.58 103.65 499.81 103.84 479.58 104.04 459.36 104.11 418.9 104.25 378.44 104.11 358.22 104.04 337.99 103.84"/><polygon class="cls-11" points="337.99 92.66 358.22 92.46 378.44 92.39 418.9 92.25 459.36 92.39 479.58 92.46 499.81 92.66 479.58 92.85 459.36 92.92 418.9 93.06 378.44 92.92 358.22 92.85 337.99 92.66"/><polygon class="cls-3" points="343.92 177.91 343.57 176.35 364.48 171.59 384.67 151.79 392.75 157.17 408.76 141.17 417.59 146.44 423.35 141.63 439.29 158.44 460.26 133.23 477.76 151.85 497.8 142.69 498.47 144.15 477.38 153.79 460.34 135.66 439.36 160.87 423.22 143.84 417.74 148.41 409.02 143.19 392.95 159.24 384.86 153.85 365.29 173.06 343.92 177.91"/><path class="cls-3" d="M367,172.14a2.12,2.12,0,1,1-2.12-2.12A2.12,2.12,0,0,1,367,172.14Z"/><circle class="cls-3" cx="384.55" cy="152.99" r="2.12"/><path class="cls-3" d="M411.19,142.35a2.12,2.12,0,1,1-2.12-2.12A2.12,2.12,0,0,1,411.19,142.35Z"/><path class="cls-3" d="M419.8,147.52a2.12,2.12,0,1,1-2.12-2.12A2.12,2.12,0,0,1,419.8,147.52Z"/><path class="cls-3" d="M425.43,142.89a2.12,2.12,0,1,1-2.12-2.12A2.12,2.12,0,0,1,425.43,142.89Z"/><path class="cls-3" d="M462.23,134.44a2.12,2.12,0,1,1-2.12-2.12A2.12,2.12,0,0,1,462.23,134.44Z"/><circle class="cls-3" cx="477.89" cy="152.52" r="2.12"/><path class="cls-3" d="M500.26,143.72a2.12,2.12,0,1,1-2.12-2.12A2.12,2.12,0,0,1,500.26,143.72Z"/><path class="cls-3" d="M441.39,159.49a2.12,2.12,0,1,1-2.12-2.12A2.12,2.12,0,0,1,441.39,159.49Z"/><polygon class="cls-5" points="343.92 177.91 343.57 175.99 365.67 151.82 374.74 156.59 398.69 132.25 405.31 137.68 416.59 127.96 438.11 143.45 442.9 137.99 455.1 149.25 472.97 133.38 484.49 143.23 497.93 139.61 498.35 141.16 484.09 145 472.99 135.51 455.08 151.42 443.02 140.29 438.35 145.61 416.68 130.01 405.34 139.78 398.8 134.43 375.05 158.57 366.02 153.82 343.92 177.91"/><path class="cls-5" d="M367.8,153.23a2.12,2.12,0,1,1-2.12-2.13A2.12,2.12,0,0,1,367.8,153.23Z"/><path class="cls-5" d="M376.89,157.47a2.12,2.12,0,1,1-2.12-2.12A2.12,2.12,0,0,1,376.89,157.47Z"/><path class="cls-5" d="M400.58,133.48a2.12,2.12,0,1,1-2.12-2.12A2.11,2.11,0,0,1,400.58,133.48Z"/><path class="cls-5" d="M407.7,138.65a2.12,2.12,0,1,1-2.12-2.12A2.12,2.12,0,0,1,407.7,138.65Z"/><path class="cls-5" d="M418.77,129a2.12,2.12,0,1,1-2.12-2.12A2.11,2.11,0,0,1,418.77,129Z"/><path class="cls-5" d="M440.21,144.47a2.12,2.12,0,1,1-2.12-2.12A2.12,2.12,0,0,1,440.21,144.47Z"/><path class="cls-5" d="M444.82,139.21a2.12,2.12,0,1,1-2.12-2.12A2.12,2.12,0,0,1,444.82,139.21Z"/><path class="cls-5" d="M457,150.4a2.12,2.12,0,1,1-2.12-2.12A2.12,2.12,0,0,1,457,150.4Z"/><path class="cls-5" d="M475.24,135a2.12,2.12,0,1,1-2.12-2.12A2.12,2.12,0,0,1,475.24,135Z"/><path class="cls-5" d="M486.51,144.16a2.12,2.12,0,1,1-2.12-2.13A2.12,2.12,0,0,1,486.51,144.16Z"/><circle class="cls-5" cx="498.14" cy="140.23" r="2.12"/><polygon class="cls-4" points="343.72 177.75 343.57 175.99 371.15 160.15 385.76 166.73 393.77 164.03 402.13 169.2 419.5 156.44 426.48 162.09 433.8 159.9 445.8 166.68 464.78 157.63 476.76 166.59 497.67 151.56 498.61 152.87 476.74 168.59 464.59 159.5 445.74 168.5 433.61 161.64 426.13 163.88 419.45 158.47 402.21 171.14 393.57 165.8 385.68 168.46 371.24 161.95 343.72 177.75"/><path class="cls-4" d="M373.31,161.05a2.12,2.12,0,1,1-2.12-2.12A2.12,2.12,0,0,1,373.31,161.05Z"/><path class="cls-4" d="M387.84,167.52a2.12,2.12,0,1,1-2.12-2.12A2.12,2.12,0,0,1,387.84,167.52Z"/><path class="cls-4" d="M395.82,165.29a2.12,2.12,0,1,1-2.12-2.12A2.12,2.12,0,0,1,395.82,165.29Z"/><path class="cls-4" d="M404.41,170a2.12,2.12,0,1,1-2.12-2.12A2.12,2.12,0,0,1,404.41,170Z"/><path class="cls-4" d="M428.33,162.68a2.12,2.12,0,1,1-2.12-2.12A2.12,2.12,0,0,1,428.33,162.68Z"/><path class="cls-4" d="M447.8,167.41a2.12,2.12,0,1,1-2.12-2.12A2.12,2.12,0,0,1,447.8,167.41Z"/><circle class="cls-4" cx="477.06" cy="167.41" r="2.12"/><path class="cls-4" d="M421.46,157.37a2.12,2.12,0,1,1-2.12-2.12A2.11,2.11,0,0,1,421.46,157.37Z"/><path class="cls-4" d="M436,161.05a2.12,2.12,0,1,1-2.12-2.12A2.12,2.12,0,0,1,436,161.05Z"/><path class="cls-4" d="M466.63,158.44a2.12,2.12,0,1,1-2.12-2.12A2.12,2.12,0,0,1,466.63,158.44Z"/><path class="cls-4" d="M500.26,152.21a2.12,2.12,0,1,1-2.12-2.12A2.12,2.12,0,0,1,500.26,152.21Z"/><polygon class="cls-11" points="343.65 87.41 343.81 113.82 343.9 140.23 344 193.04 343.65 192.69 382.16 192.67 420.67 192.75 459.18 192.83 497.69 193.04 459.18 193.25 420.67 193.33 382.16 193.41 343.65 193.39 343.3 193.39 343.3 193.04 343.41 140.23 343.5 113.82 343.65 87.41"/><circle class="cls-3" cx="381.58" cy="280.03" r="43.59" transform="translate(24 590.12) rotate(-77.21)"/><path class="cls-7" d="M381.58,280,366,320.75A43.59,43.59,0,1,1,425.17,280Z"/><path class="cls-7" d="M381.58,280l35,26a43.58,43.58,0,1,1,8.58-26Z"/><path class="cls-4" d="M381.58,280l-38.7,20.06A43.59,43.59,0,1,1,425.17,280Z"/><polygon class="cls-11" points="399.28 260.98 398.62 260.32 419.51 239.43 446.06 239.43 446.06 240.37 419.9 240.37 399.28 260.98"/><rect class="cls-11" x="405.4" y="286.72" width="40.65" height="0.94"/><polygon class="cls-11" points="446.06 332.63 418.45 332.63 418.31 332.46 398.59 308.3 399.32 307.7 418.89 331.69 446.06 331.69 446.06 332.63"/><path class="cls-11" d="M448.07,239.9a2,2,0,1,1-2-2A2,2,0,0,1,448.07,239.9Z"/><path class="cls-11" d="M448.07,287.19a2,2,0,1,1-2-2A2,2,0,0,1,448.07,287.19Z"/><path class="cls-11" d="M448.07,332.16a2,2,0,1,1-2-2A2,2,0,0,1,448.07,332.16Z"/><rect class="cls-11" x="453.69" y="239.43" width="18.16" height="0.94"/><rect class="cls-11" x="453.69" y="242.43" width="25.36" height="0.94"/><rect class="cls-11" x="453.69" y="245.44" width="21.81" height="0.94"/><rect class="cls-11" x="453.69" y="248.44" width="27.75" height="0.94"/><rect class="cls-11" x="453.69" y="251.45" width="24.04" height="0.94"/><rect class="cls-11" x="453.69" y="254.45" width="20.59" height="0.94"/><rect class="cls-11" x="453.69" y="286.72" width="25.06" height="0.94"/><rect class="cls-11" x="453.69" y="289.72" width="16.94" height="0.94"/><rect class="cls-11" x="453.69" y="292.73" width="23.03" height="0.94"/><rect class="cls-11" x="453.69" y="295.73" width="25.06" height="0.94"/><rect class="cls-11" x="453.69" y="298.73" width="27.75" height="0.94"/><rect class="cls-11" x="453.69" y="301.74" width="20.59" height="0.94"/><rect class="cls-11" x="453.69" y="331.69" width="21" height="0.94"/><rect class="cls-11" x="453.69" y="334.7" width="27.75" height="0.94"/><rect class="cls-11" x="453.69" y="337.7" width="17.54" height="0.94"/><rect class="cls-11" x="453.69" y="340.7" width="27.75" height="0.94"/><rect class="cls-11" x="453.69" y="343.71" width="23.97" height="0.94"/><rect class="cls-11" x="453.69" y="346.71" width="14.77" height="0.94"/><rect class="cls-11" x="144.4" y="95.37" width="50.02" height="4.3"/><rect class="cls-11" x="144.4" y="104.35" width="67.58" height="4.3"/><rect class="cls-11" x="144.4" y="113.33" width="35.86" height="4.3"/><rect class="cls-4" x="122.81" y="95.37" width="10.43" height="10.43"/><rect class="cls-11" x="144.4" y="130.1" width="59.45" height="4.3"/><rect class="cls-11" x="144.4" y="139.08" width="47.04" height="4.3"/><rect class="cls-11" x="144.4" y="148.05" width="67.58" height="4.3"/><rect class="cls-6" x="122.81" y="130.1" width="10.43" height="10.43"/><path class="cls-3" d="M284.81,208.46a48.92,48.92,0,0,1,1.15-19.4,50,50,0,0,1,8.34-17.74l.7-1,.81-.93,1.63-1.86,1.63-1.85c.57-.59,1.21-1.11,1.81-1.67,1.23-1.09,2.45-2.2,3.71-3.25l4.05-2.78,2.05-1.36,2.18-1.12,4.35-2.24c1.45-.74,3-1.17,4.55-1.76l4.58-1.65.08.22c-2.93,1.4-5.89,2.67-8.75,4.12l-4.17,2.43-2.07,1.21-1.93,1.43-3.85,2.84c-1.2,1-2.34,2.17-3.52,3.24-.58.54-1.19,1.05-1.74,1.63l-1.56,1.8-1.55,1.81-.78.9-.68,1a54.79,54.79,0,0,0-8.49,17c-.51,1.51-.8,3.09-1.22,4.64s-.58,3.15-.81,4.74A53.49,53.49,0,0,0,284.81,208.46Z"/><polygon class="cls-3" points="323.33 159.57 321.61 158.73 325.74 150.28 317 146.79 317.72 145.02 328.35 149.28 323.33 159.57"/><path class="cls-3" d="M340.28,203.22a60.22,60.22,0,0,0-4.79,7.22c-.71,1.25-1.38,2.53-2.05,3.8s-1.25,2.59-1.8,3.91A65.52,65.52,0,0,0,327,234.62a61.84,61.84,0,0,0-.27,17.08,61.08,61.08,0,0,0,1.45,8.48c.64,2.81,1.6,5.54,2.39,8.33l-.25.1-1.65-4a28.44,28.44,0,0,1-1.5-4.11,62.36,62.36,0,0,1-2-8.55,54.8,54.8,0,0,1-.07-17.57,56.28,56.28,0,0,1,5.22-16.78A53,53,0,0,1,340.28,203.22Z"/><polygon class="cls-3" points="320.98 265.42 321.82 263.7 330.26 267.85 333.78 259.13 335.55 259.85 331.26 270.47 320.98 265.42"/><path class="cls-3" d="M126.7,151.81a61.12,61.12,0,0,0-.84,7.37,67,67,0,0,0-.13,7.36A60.67,60.67,0,0,0,128,181,42.91,42.91,0,0,0,134.2,194c.71,1,1.37,2,2.13,3l2.48,2.7a22.82,22.82,0,0,0,2.67,2.53l2.79,2.43-.17.26c-4.14-2.72-8.2-5.84-11.17-10l-1.18-1.49-1-1.63c-.62-1.1-1.37-2.13-1.88-3.29l-1.52-3.48c-.48-1.17-.81-2.39-1.19-3.6a49.67,49.67,0,0,1-1.87-14.93A51,51,0,0,1,126.7,151.81Z"/><polygon class="cls-3" points="134.54 207.25 134.32 205.35 143.66 204.27 141.9 195.03 143.78 194.68 145.92 205.93 134.54 207.25"/><path class="cls-4" d="M283.3,113.84c2.71,13.94-5.13,19.16-5.43,23.2a64.45,64.45,0,0,0,.39,7.45l-14,4.47a63.63,63.63,0,0,0-4-6.29c-2.58-3.13-12-2.84-17.85-15.78-3.85-8.5-1.66-24.55,13.2-29.29S281.51,104.69,283.3,113.84Z"/><rect class="cls-6" x="261.96" y="126.32" width="0.97" height="23.84" transform="translate(-34.17 140.69) rotate(-28.25)"/><rect class="cls-6" x="273.03" y="122.79" width="0.96" height="23.84" transform="translate(-14.57 34.89) rotate(-7.11)"/><path class="cls-6" d="M266.81,132.79h0c-1.31.42-2.82-.39-4.1-1.61a1.78,1.78,0,0,1-1,1h0c-2.15.68-4.39-3.42-4.49-3.6l.43-.23c.59,1.1,2.44,3.83,3.91,3.37h0a1.51,1.51,0,0,0,.78-.92,10.25,10.25,0,0,1-2.3-3.62c-.4-1.24-.15-2.11.68-2.37h0a1.37,1.37,0,0,1,1.42.3c1,.93,1.26,3.36.89,5.07,0,.18-.09.36-.14.52,1.21,1.19,2.63,2,3.77,1.62h0c1-.33,1.63-1.56,1.89-3a6.14,6.14,0,0,1-2.49-3.36c-.5-1.59-.21-2.77.76-3.08h0c.8-.25,1.5.38,1.93,1.74a11,11,0,0,1,.32,4.45,2.09,2.09,0,0,0,1.52.11h0c1.25-.41,1.4-3.8,1.35-5.08l.49,0c0,.51.13,5-1.69,5.56h0a2.54,2.54,0,0,1-1.74-.1C268.7,131.07,268,132.4,266.81,132.79Zm.16-9.46c-.83.26-.76,1.5-.45,2.48a6.12,6.12,0,0,0,2.1,3,10,10,0,0,0-.33-4.06c-.16-.5-.61-1.65-1.32-1.42Zm-6.11,2c-.69.22-.58,1.08-.36,1.77a9.56,9.56,0,0,0,2,3.26l.06-.23c.34-1.55.11-3.82-.75-4.61a.88.88,0,0,0-.94-.19Z"/><rect class="cls-5" x="262.51" y="146.04" width="18.18" height="3.55" transform="matrix(0.95, -0.3, 0.3, 0.95, -32.07, 89.49)"/><rect class="cls-5" x="263.76" y="149.97" width="18.18" height="3.55" transform="translate(-33.2 90.06) rotate(-17.68)"/><rect class="cls-5" x="265.01" y="153.9" width="18.18" height="3.55" transform="translate(-34.34 90.63) rotate(-17.69)"/><path class="cls-3" d="M262.3,86.89a15,15,0,0,1-1-5.53,14.73,14.73,0,0,1,1-5.53,16.57,16.57,0,0,1,0,11.06Z"/><path class="cls-3" d="M240.43,95.78A16.49,16.49,0,0,1,232.61,88a16.49,16.49,0,0,1,7.82,7.82Z"/><path class="cls-3" d="M231.26,117.53a14.88,14.88,0,0,1-5.53,1,14.47,14.47,0,0,1-5.52-1,16.54,16.54,0,0,1,11,0Z"/><path class="cls-3" d="M240.16,139.4a15,15,0,0,1-3.24,4.58,14.74,14.74,0,0,1-4.58,3.23,16.53,16.53,0,0,1,7.82-7.81Z"/><path class="cls-3" d="M292.94,117.92a14.92,14.92,0,0,1,5.53-1,14.55,14.55,0,0,1,5.53,1,14.75,14.75,0,0,1-5.53,1A14.92,14.92,0,0,1,292.94,117.92Z"/><path class="cls-3" d="M284.05,96.06a16.41,16.41,0,0,1,7.81-7.82,14.58,14.58,0,0,1-3.23,4.58A15.18,15.18,0,0,1,284.05,96.06Z"/><path class="cls-5" d="M517.82,704.88h83s-16.73-194-16.07-197.36c.83-4.34,5.73-24,12.26-49.62,2-8,4.25-16.64,6.54-25.56,6.19-24.13,13-50.51,19-73.46,8.92-34.38,15.89-61.09,15.89-61.09H568.07s-8.2,26-18.54,59.84c-16.84,55-39.35,130.66-41.57,149.06C504.36,536.4,517.82,704.88,517.82,704.88Z"/><path class="cls-3" d="M569.17,495.67c2.72-12,6.79-23.78,10.33-35.56q10.8-35.91,21.73-71.79,5.46-17.94,11-35.87,2.77-9.06,5.6-18.09c1.84-5.9,4-11.74,5.61-17.69.68-2.42,1.05-1.09.19,2-1.76,6.2-3.49,12.4-5.29,18.58q-5.37,18.34-10.8,36.69-10.8,36.49-21.79,72.94-5.48,18.27-11,36.55a149.59,149.59,0,0,0-4.49,17.68A81.42,81.42,0,0,0,569.5,520c.79,12.71,2.26,25.4,3.44,38.07s2.35,25.41,3.52,38.11q3.51,37.92,7,75.85c.29,3.21.57,6.41.82,9.62.08,1.07-1.54,1-1.66,0-2.73-25-4.83-50.08-7.18-75.12s-4.67-49.83-7-74.74c-.58-6.25-1.25-12.52-1.25-18.81A77.26,77.26,0,0,1,569.17,495.67Z"/><path class="cls-3" d="M576.07,297.79c4.88,37.81,14.2,108.69,21,160.11,15.87-62.31,41.4-160.11,41.4-160.11Z"/><path class="cls-5" d="M570.35,297.79s1.62,33.68,9.33,60.35c.62,2.21,1.29,4.38,2,6.46,0,0,8,2.91,20.29,10.42,0,0,.81,27.1,1.62,57.32.9,33.78,1.84,71.46,1.64,79.45-.7,29.9,3.74,194.31,3.74,194.31l83,.34s-15-183.61-14.91-194.56c.16-17.61-4-95.42-7.25-152.17-2-35-3.6-61.92-3.6-61.92Z"/><path class="cls-3" d="M578.24,362.59A155,155,0,0,1,602,375a.28.28,0,0,1-.25.49c-8-3.89-16.19-7.64-24-12A.54.54,0,0,1,578.24,362.59Z"/><path class="cls-3" d="M577.78,334c.54,3,1.26,5.87,1.9,8.81.59,2.75,1,5.56,1.76,8.28a14.09,14.09,0,0,0,3.86,6.94c1.08,1,2.27,1.89,3.42,2.81.62.5,1.29,1,1.94,1.47-.09-.39-.16-.78-.23-1.18l-.57-3.36c-.42-2.49-.81-5-1.2-7.47-.74-4.9-1.43-9.85-2.46-14.69a.16.16,0,0,1,.31-.08c1.22,4.8,2.57,9.56,3.63,14.4.52,2.38,2.38,14.11,2.46,14.94s.16,1.72.19,2.58a10.07,10.07,0,0,1,0,2.63c0,.22-.31.18-.4,0h0a10.69,10.69,0,0,1-.75-2.55c-.21-.84-.4-1.69-.55-2.54-.05-.31-.1-.62-.14-.94-1.16-.7-2.23-1.63-3.31-2.41s-2.35-1.66-3.45-2.59a13.27,13.27,0,0,1-4.22-6.58,49.2,49.2,0,0,1-1.38-8.44c-.37-3.33-.64-6.68-1.11-10C577.44,333.9,577.74,333.82,577.78,334Z"/><path class="cls-12" d="M592.56,215c-8.16,20.73-49.62,69.48-66.46,73.29-12.18,2.76-60.52-23.85-74-33.79-13-9.6,21.94-47.42,29.95-42.32,11.3,7.21,37,29.12,41.92,29.13,3.43,0,22.35-13,51.16-36.53C591.12,191.83,597.43,202.67,592.56,215Z"/><path class="cls-12" d="M464.73,196.73c-7.49-2.71-15.87-6.43-24.21-6.33s-15.36,11-15.39,14.21,3,22.85,11.32,22.92,3.42-15.09,3.75-16.82.66-4,2.24-3.77,29,13.46,29,13.46Z"/><path class="cls-12" d="M464.18,197.88c-.47,0-22.76-9-31.1-8.91S417.72,200,417.69,203.18s3,22.86,11.32,22.92,3.42-15.09,3.75-16.82.66-3.94,2.23-3.76S464,219,464,219Z"/><path class="cls-5" d="M431.85,225.07c1-1.31,1.23-3.3,1.43-4.92a17,17,0,0,0-.27-5.33,29.18,29.18,0,0,1-1-4.6,9.21,9.21,0,0,1,1.19-4.4c.66-1.17,1.88-.76,2.93-.38a41.13,41.13,0,0,1,4.52,2.09c1.59.8,3.16,1.64,4.74,2.47a42.11,42.11,0,0,1,4.82,2.7c.11.08,0,.28-.1.23a43.47,43.47,0,0,1-4.22-1.94c-1.58-.76-3.16-1.5-4.76-2.22s-2.94-1.44-4.44-2.09a4.86,4.86,0,0,0-2.19-.67c-.64.13-1,1.7-1.11,2.2a7.83,7.83,0,0,0,.25,4.52,23.67,23.67,0,0,1,.83,4.58,12.21,12.21,0,0,1-.38,4.34,17.32,17.32,0,0,1-2,3.58C432,225.39,431.73,225.22,431.85,225.07Z"/><path class="cls-12" d="M490.49,220s-23-21.26-27.75-25.48c-9.59-8.48-50.14-25.41-55.8-26s-7.8,11,19.71,23.25c14.5,6.47,17,14.82,16.71,19.44s-4.78,13.19-12.55,12.92-12.72-11.65-19.85-13-2.51,11.8,2.47,19.4S427.5,244.41,434.2,247s27.42,11.69,27.42,11.69Z"/><path class="cls-5" d="M421.21,218.53c2.91,2.29,6.2,5.25,10.05,5.43s6.58-2.39,8.46-5.61,3-7,2.12-10.73a18.06,18.06,0,0,0-5.26-8.75,43.8,43.8,0,0,0-10.47-7.09c-.16-.08,0-.33.16-.25,3.56,1.63,14.65,6.26,16.79,16.1.88,4-.35,7.59-2.25,10.93-1.74,3.08-4.27,6-8,6.32-4.59.33-8.51-3.43-11.79-6.24C420.84,218.52,421.06,218.41,421.21,218.53Z"/><path class="cls-4" d="M483,212.79,461.3,274.08s51.09,19.64,65.86,15.64,52.61-46.87,65.85-73c8-15.88-1.28-26.63-19.83-12.64-19.06,14.38-45.84,34.28-47.87,35S483,212.79,483,212.79Z"/><path class="cls-5" d="M485.94,249.57c1.42-4.57,6.95-22.89,8-27.55,0-.07-.1-.12-.13-.05-1.85,4.25-7.85,22.18-9.27,26.75-2.85,9.13-5.9,18.24-7.73,27.64,0,.17.22.29.29.11C480.63,267.72,483.15,258.59,485.94,249.57Z"/><path class="cls-5" d="M593,216.75c-10.74,21.16-37.62,53.32-55.28,66.87l46.83-85.51h0C595.14,195.42,599.18,204.57,593,216.75Z"/><path class="cls-4" d="M674.19,340.21c-.25.35-121.63,12.21-122.85,11.07-1.71-1.61,15.87-129.91,22.39-149.41,2.78-8.32,22-12.66,30.88-6.73,22.22,14.85,45.36,71,51.09,88.05C665.2,311.26,675.08,339,674.19,340.21Z"/><path class="cls-5" d="M573.32,203.94a0,0,0,0,1,.09,0c.2,5.54,1,18.35,9.58,16.73,3.44-.65,6.4-3.13,8.84-5.52a48.73,48.73,0,0,0,6.61-8.14,72.49,72.49,0,0,0,5.89-10.21c.07-.15.3,0,.23.13-1.72,3.56-3.09,7.23-5.15,10.63a42.67,42.67,0,0,1-7.11,9c-2.62,2.46-5.79,5-9.45,5.47a7,7,0,0,1-7.6-4.56A31,31,0,0,1,573.32,203.94Z"/><polygon class="cls-10" points="517.01 392.01 589.01 372.55 530.43 289.27 458.43 308.73 517.01 392.01"/><polygon class="cls-3" points="512.09 393.34 584.09 373.88 525.5 290.6 453.5 310.06 512.09 393.34"/><path class="cls-8" d="M517.85,292.68a6.63,6.63,0,0,0,4.11,2.93c.78.18.72-.77-.05-.93a4.93,4.93,0,0,1-2.73-1.81,3.38,3.38,0,0,1-.3-.47,3.48,3.48,0,0,1-.59-1.72,1.21,1.21,0,0,1,.23-.75l0-.05s.07,0,.07-.07l.14-.05a.85.85,0,0,1,.51-.1,2,2,0,0,1,1,.31,4.7,4.7,0,0,1,1,.77c.16.13.3.29.46.44l.08.11a.61.61,0,0,1,.13.16s.08.07.08.11l1-.27a7.39,7.39,0,0,0-1.45-1.52,4.06,4.06,0,0,0-3.24-1,1.63,1.63,0,0,0-1.21,1.91A4.33,4.33,0,0,0,517.85,292.68Z"/><path class="cls-8" d="M512.22,294.2a6.58,6.58,0,0,0,4.1,2.93c.79.18.73-.77-.05-.93a5,5,0,0,1-2.73-1.81,4.53,4.53,0,0,1-.3-.46,3.5,3.5,0,0,1-.58-1.73,1.13,1.13,0,0,1,.23-.74.1.1,0,0,0,0-.06s.07,0,.08-.06l.13-.06a.81.81,0,0,1,.52-.09,2.18,2.18,0,0,1,1,.3,4.39,4.39,0,0,1,1,.77,3.9,3.9,0,0,1,.46.45l.08.11a.7.7,0,0,1,.14.16s.07.06.08.11l1-.28a8,8,0,0,0-1.46-1.51,4,4,0,0,0-3.24-1,1.63,1.63,0,0,0-1.21,1.9A4.31,4.31,0,0,0,512.22,294.2Z"/><path class="cls-8" d="M506.58,295.73a6.62,6.62,0,0,0,4.11,2.92c.78.19.72-.76-.05-.93a4.92,4.92,0,0,1-2.73-1.8c-.11-.15-.22-.32-.31-.47a3.57,3.57,0,0,1-.58-1.73,1.21,1.21,0,0,1,.23-.74l0-.05s.07,0,.07-.07a.54.54,0,0,0,.13-.06,1,1,0,0,1,.52-.09,2,2,0,0,1,1,.31,4.66,4.66,0,0,1,1,.76c.16.13.3.29.46.45l.08.11a.65.65,0,0,1,.13.16s.08.07.08.11l1-.28a7.61,7.61,0,0,0-1.45-1.51,4.06,4.06,0,0,0-3.24-1,1.63,1.63,0,0,0-1.21,1.91A4.33,4.33,0,0,0,506.58,295.73Z"/><path class="cls-8" d="M501,297.25a6.61,6.61,0,0,0,4.1,2.93c.79.18.73-.77-.05-.93a5,5,0,0,1-2.73-1.81,4.66,4.66,0,0,1-.3-.47,3.46,3.46,0,0,1-.58-1.72,1.15,1.15,0,0,1,.23-.75s0,0,0-.05.07,0,.08-.07l.13-.05a.89.89,0,0,1,.52-.1,2.08,2.08,0,0,1,1,.31,4.39,4.39,0,0,1,1,.77,4.78,4.78,0,0,1,.46.44l.08.11a1,1,0,0,1,.14.16s.07.07.08.11l1-.27a7.72,7.72,0,0,0-1.46-1.52,4,4,0,0,0-3.24-1,1.64,1.64,0,0,0-1.21,1.91A4.24,4.24,0,0,0,501,297.25Z"/><path class="cls-8" d="M495.31,298.77a6.6,6.6,0,0,0,4.1,2.93c.79.18.73-.77,0-.93a4.88,4.88,0,0,1-2.73-1.81,4.63,4.63,0,0,1-.31-.46,3.6,3.6,0,0,1-.58-1.73A1.19,1.19,0,0,1,496,296a.19.19,0,0,0,0-.06s.07,0,.07-.06a.54.54,0,0,0,.13-.06.83.83,0,0,1,.52-.09,2.14,2.14,0,0,1,1,.3,4.7,4.7,0,0,1,1,.77c.16.13.3.29.46.45l.08.11a.65.65,0,0,1,.13.16s.08.06.08.11l1-.28a7.61,7.61,0,0,0-1.45-1.51,4.06,4.06,0,0,0-3.24-1,1.62,1.62,0,0,0-1.21,1.9A4.29,4.29,0,0,0,495.31,298.77Z"/><path class="cls-8" d="M489.68,300.3a6.6,6.6,0,0,0,4.1,2.92c.79.19.73-.76,0-.93a5,5,0,0,1-2.73-1.8c-.1-.15-.22-.32-.3-.47a3.46,3.46,0,0,1-.58-1.73,1.14,1.14,0,0,1,.23-.74s0,0,0-.05.07,0,.08-.07l.13-.06a1,1,0,0,1,.52-.09,2.08,2.08,0,0,1,1,.31,4.35,4.35,0,0,1,1,.76,3.9,3.9,0,0,1,.46.45l.08.11a.7.7,0,0,1,.14.16s.07.07.08.11l1-.28a8,8,0,0,0-1.46-1.51,4,4,0,0,0-3.24-1,1.64,1.64,0,0,0-1.21,1.91A4.24,4.24,0,0,0,489.68,300.3Z"/><path class="cls-8" d="M484,301.82a6.64,6.64,0,0,0,4.1,2.93c.79.18.73-.77,0-.93a4.93,4.93,0,0,1-2.73-1.81,4.76,4.76,0,0,1-.31-.47,3.56,3.56,0,0,1-.58-1.72,1.21,1.21,0,0,1,.23-.75l0-.05s.07,0,.07-.07l.13-.05a.9.9,0,0,1,.52-.1,2,2,0,0,1,1,.31,4.7,4.7,0,0,1,1,.77c.16.13.3.29.46.44l.08.11a.91.91,0,0,1,.13.16s.08.07.08.11l1-.27a7.39,7.39,0,0,0-1.45-1.52,4.06,4.06,0,0,0-3.24-1,1.64,1.64,0,0,0-1.22,1.91A4.46,4.46,0,0,0,484,301.82Z"/><path class="cls-8" d="M478.41,303.34a6.61,6.61,0,0,0,4.1,2.93c.78.18.73-.77-.05-.93a5,5,0,0,1-2.73-1.81,4.53,4.53,0,0,1-.3-.46,3.5,3.5,0,0,1-.58-1.73,1.11,1.11,0,0,1,.23-.74.1.1,0,0,0,0-.06s.07,0,.08-.06l.13-.06a.89.89,0,0,1,.52-.1,2.34,2.34,0,0,1,1,.31,4.39,4.39,0,0,1,1,.77,3.9,3.9,0,0,1,.46.45l.08.11a.7.7,0,0,1,.14.16s.07.06.08.11l1-.28a8,8,0,0,0-1.46-1.51,4,4,0,0,0-3.24-1,1.63,1.63,0,0,0-1.21,1.9A4.2,4.2,0,0,0,478.41,303.34Z"/><path class="cls-8" d="M472.77,304.87a6.63,6.63,0,0,0,4.1,2.92c.79.19.73-.76,0-.93a4.92,4.92,0,0,1-2.73-1.8c-.11-.15-.22-.32-.31-.47a3.57,3.57,0,0,1-.58-1.73,1.21,1.21,0,0,1,.23-.74l0-.05s.07-.05.07-.07l.13-.06a1,1,0,0,1,.52-.09,2,2,0,0,1,1,.31,4.66,4.66,0,0,1,1,.76c.16.13.3.29.46.45l.08.11a.65.65,0,0,1,.13.16s.08.07.08.11l1-.28a7.61,7.61,0,0,0-1.45-1.51,4.06,4.06,0,0,0-3.24-1,1.64,1.64,0,0,0-1.22,1.91A4.46,4.46,0,0,0,472.77,304.87Z"/><path class="cls-8" d="M467.14,306.39a6.61,6.61,0,0,0,4.1,2.93c.78.18.73-.77-.05-.93a5,5,0,0,1-2.73-1.81,4.66,4.66,0,0,1-.3-.47,3.46,3.46,0,0,1-.58-1.73,1.14,1.14,0,0,1,.23-.74s0,0,0-.05.07,0,.08-.07l.13,0a.89.89,0,0,1,.52-.1,2.08,2.08,0,0,1,1,.31,4.39,4.39,0,0,1,1,.77,4.78,4.78,0,0,1,.46.44l.08.11a1,1,0,0,1,.14.16s.07.07.08.11l1-.27a7.72,7.72,0,0,0-1.46-1.52,4,4,0,0,0-3.24-1,1.64,1.64,0,0,0-1.21,1.91A4.24,4.24,0,0,0,467.14,306.39Z"/><path class="cls-8" d="M461.5,307.91a6.64,6.64,0,0,0,4.1,2.93c.79.18.73-.77,0-.93a4.88,4.88,0,0,1-2.73-1.81,4.63,4.63,0,0,1-.31-.46,3.6,3.6,0,0,1-.58-1.73,1.17,1.17,0,0,1,.23-.74.19.19,0,0,0,0-.06s.07,0,.07-.06l.13-.06a.9.9,0,0,1,.52-.1,2.29,2.29,0,0,1,1,.31,4.7,4.7,0,0,1,1,.77c.16.13.3.29.46.45l.08.11a.65.65,0,0,1,.13.16s.08.06.08.11l1-.28A7.61,7.61,0,0,0,465.2,305a4,4,0,0,0-3.24-1,1.64,1.64,0,0,0-1.22,1.9A4.42,4.42,0,0,0,461.5,307.91Z"/><path class="cls-8" d="M455.87,309.44a6.6,6.6,0,0,0,4.1,2.92c.78.18.73-.76-.05-.93a5,5,0,0,1-2.73-1.8c-.1-.15-.22-.32-.3-.47a3.46,3.46,0,0,1-.58-1.73,1.14,1.14,0,0,1,.23-.74s0,0,0-.05.07-.05.08-.07l.13-.06a1,1,0,0,1,.52-.09,2.08,2.08,0,0,1,1,.31,4.35,4.35,0,0,1,1,.76,3.9,3.9,0,0,1,.46.45l.08.11a.7.7,0,0,1,.14.16s.07.07.08.11l1-.28a8,8,0,0,0-1.46-1.51,4,4,0,0,0-3.24-1,1.64,1.64,0,0,0-1.21,1.91A4.24,4.24,0,0,0,455.87,309.44Z"/><path class="cls-12" d="M621.55,208.3c24.15,24,76.71,79.24,66.68,95.71-16.48,27.08-62.92,56.15-77.77,63.45-6.41,3.15-38.77-41.85-33.08-46.94,6.83-6.12,52.5-33.5,52.35-35.91C629.56,282,614.79,250,607.36,224,598.13,191.75,611.47,198.29,621.55,208.3Z"/><path class="cls-12" d="M601.38,313s-21.57-2.59-35.75-3.62c-7.92-.57-21.57-.35-27.58,1.89-9,3.35-44.43,23.08-39.83,31.78,4.16,7.87,32.46-12.95,32.46-12.95s-30.41,18.48-23.65,27,35.6-19.22,35.6-19.22-30.82,19.7-22.46,27.42c6.32,5.83,33.86-17.85,33.86-17.85s-26.37,17.11-20.13,23.39c6.89,6.94,33.69-13.33,33.69-13.33,18.55,13.3,32.69,13.12,42.87,9.94C612.83,366.72,601.38,313,601.38,313Z"/><path class="cls-5" d="M539.38,323.92c-23.44,11.91-31.29,24.93-31,24.62,6.58-7.17,18.83-15.81,22.28-18.17s5.38-4,8.82-6.32C539.56,324,539.47,323.88,539.38,323.92Z"/><path class="cls-5" d="M549.54,335.33c-11.47,4.91-22.73,14.16-26.11,18-.27.3-.08.34.26.1,4.31-3.12,21.48-15.06,25.92-18C549.68,335.39,549.61,335.3,549.54,335.33Z"/><path class="cls-5" d="M559,344.56c-9.92,5.17-13.84,8.48-19.8,14.5-.29.29,0,.34.35.09,6.49-4.94,11.54-8.87,19.58-14.34C559.21,344.72,559.1,344.48,559,344.56Z"/><path class="cls-12" d="M582,214.86c6.28,0,15.47-12.55,17.76-20.86.16-.57-1.87-5.71-4-12.06-1.3-3.87-2.66-8.2-3.61-12.24l-23.91,12.13s4.49,7.89,6.11,14.95a9.44,9.44,0,0,1,.22,1.7c0,.08,0,.18,0,.28C574.74,202,575.89,214.85,582,214.86Z"/><path class="cls-5" d="M577.14,198.29a16.08,16.08,0,0,1-2.63.47c0-.11,0-.21,0-.28a8.67,8.67,0,0,0-.21-1.7c-1.62-7.06-6.1-14.95-6.1-14.95l23.13-11.75C591.6,176.09,591.33,194.61,577.14,198.29Z"/><path class="cls-12" d="M596.11,145.48c2.51,9.32-3.25,35.83-10,41.56-9.8,8.31-25.41,8.61-32.36-3.08-6.73-11.32,1.39-45.74,8.91-50.9C573.7,125.46,592.4,131.7,596.11,145.48Z"/><path class="cls-5" d="M568.58,161.63c0-.07.12.11.1.18-.43,1.78-.63,3.89.86,4.82,0,0,0,.12,0,.1C567.59,166,567.88,163.24,568.58,161.63Z"/><path class="cls-5" d="M570.57,160.1c2.92.39,1.92,6.2-.78,5.84S568.12,159.77,570.57,160.1Z"/><path class="cls-5" d="M558.6,159.8c0-.07-.15.06-.16.14-.25,1.81-.85,3.84-2.58,4.16-.05,0-.06.1,0,.1C557.89,164.26,558.66,161.56,558.6,159.8Z"/><path class="cls-5" d="M557.32,157.65c-2.86-.72-4.08,5-1.43,5.71S559.72,158.25,557.32,157.65Z"/><path class="cls-5" d="M573.32,157.83a20.69,20.69,0,0,1-2.11-1.18,3.88,3.88,0,0,1-1.93-1.61,1.24,1.24,0,0,1,.45-1.45,3.07,3.07,0,0,1,3.13.21,4.58,4.58,0,0,1,2.25,2.38A1.33,1.33,0,0,1,573.32,157.83Z"/><path class="cls-5" d="M555.57,154.33a21.73,21.73,0,0,0,2.42-.2,3.89,3.89,0,0,0,2.42-.68,1.25,1.25,0,0,0,.19-1.51,3.1,3.1,0,0,0-2.94-1.09,4.51,4.51,0,0,0-3,1.24A1.33,1.33,0,0,0,555.57,154.33Z"/><path class="cls-5" d="M568.37,178.33c-.51.35-1,.85-1.7.8a5,5,0,0,1-1.86-.79.06.06,0,0,0-.09.08,2.47,2.47,0,0,0,2.12,1.37,2,2,0,0,0,1.69-1.35C568.57,178.34,568.44,178.28,568.37,178.33Z"/><path class="cls-5" d="M567.4,172.61a6.22,6.22,0,0,1-4.56,2,8,8,0,0,1-2.22-.28,2.58,2.58,0,0,1-.42-.12l-.38-.13a.46.46,0,0,1-.29-.46v0a.61.61,0,0,1,.05-.18h0l0-.16c.2-1.39.7-3.48.7-3.48-.55.17-3.33.89-3.17.17,1.39-5.94,2.93-12.54,5.57-18.15a.17.17,0,0,1,.32.1c-1.11,5.76-3.22,11.28-4.43,17.05a10.92,10.92,0,0,1,3-.38c.18.09-1,4-1.07,4.64a.14.14,0,0,0,0,.07c2.27.7,4.15.3,6.68-.88C567.41,172.34,567.53,172.49,567.4,172.61Z"/><path class="cls-5" d="M561.56,173.8a7.3,7.3,0,0,0,2.52,2.75,3.3,3.3,0,0,0,2,.47c1.5-.13,1.76-1.44,1.69-2.62a8,8,0,0,0-.34-1.84A9.55,9.55,0,0,1,561.56,173.8Z"/><path class="cls-13" d="M564.08,176.55a3.3,3.3,0,0,0,2,.47c1.5-.13,1.76-1.44,1.69-2.62C566.17,174.29,564.47,175.08,564.08,176.55Z"/><path class="cls-5" d="M592.24,167.36c-4.81-.54-3.74-12.33-3.74-12.33s-7.31-1.7-10.4-12c0,0-9.79,5.47-17.67,3.62-12.36-2.9-11.19-19.08-6.36-22.15,6.85-4.34,18.29,3.08,18.29,3.08s18.08-4.06,22.77,8.27c0,0,7.94.76,8,9.57S595.84,167.76,592.24,167.36Z"/><path class="cls-5" d="M590.16,156.51A16.47,16.47,0,0,1,581.1,151c-2.33-3-3.54-7.41-2.28-11.06.07-.2-.26-.29-.32-.09-1.09,4.08-1.07,8.32,1.38,11.93a11.46,11.46,0,0,0,10.23,5.14A.18.18,0,0,0,590.16,156.51Z"/><path class="cls-5" d="M572.82,128.19a12.25,12.25,0,0,0-6.58-5.6,14.59,14.59,0,0,0-10.4.53,8.23,8.23,0,0,0-4.68,6.78c-.39,3.37,1,6.63,2.8,9.37a.07.07,0,1,0,.12-.07,14.52,14.52,0,0,1-2.12-8.49,7.59,7.59,0,0,1,4.8-6.47c5.23-2,12.7-1.26,15.78,4.12C572.64,128.54,572.92,128.37,572.82,128.19Z"/><path class="cls-4" d="M552,168.51c-2.86-.56-4.49-4.53-3.64-8.85s3.86-7.37,6.72-6.81,4.49,4.53,3.64,8.85S554.89,169.07,552,168.51Zm2.87-14.61c-2.28-.45-4.73,2.23-5.46,6s.52,7.14,2.79,7.59,4.73-2.23,5.47-6S557.19,154.35,554.91,153.9Z"/><path class="cls-4" d="M569.59,172a8,8,0,1,1,8.85-6.4A7.74,7.74,0,0,1,569.59,172Zm2.88-14.62a6.94,6.94,0,1,0,4.92,8A6.67,6.67,0,0,0,572.47,157.35Z"/><path class="cls-4" d="M564.31,162.06c-3.65-2.14-5.68-1.21-5.69-1.2l-.49-1c.1-.06,2.51-1.25,6.72,1.23Z"/><path class="cls-4" d="M578.05,164.79v-1.07c.71,0,17.27.2,19,.45s5.65,3.49,6.08,3.85l-.7.81c-1.07-.92-4.1-3.33-5.45-3.59h-.08C595.59,165,584,164.86,578.05,164.79Z"/><path class="cls-6" d="M574.33,198.34l8.78,14,15.37-22.49,6.42,5.18S592,228.74,591.6,227.39L583,215.48l-7.37,10.67-3.35-22.89Z"/><path class="cls-5" d="M573.37,214.93c-.42-3.8-1-7.61-1.21-11.42,0-.14.19-.24.25-.09,1.4,3.49,3,18,3.59,21.47l0,0c.3-.46,6.91-9.47,7-9.36,1.72,1.82,8,10.49,8.46,11.3,2-5.35,10-24.89,12.66-30.07a.13.13,0,0,1,.25.09c-1.66,5.56-12.17,31.83-12.4,31.8A147.58,147.58,0,0,1,583,216c-1,1.9-7.55,11.89-7.68,11.34A120.7,120.7,0,0,1,573.37,214.93Z"/><path class="cls-3" d="M-22.28,685.36c.76-.37,28-104.45,37.5-141,13.72-52.68,27-138.55,31-156.43,0,0,12.83-30.45,16.63-64.17,0-.06-86.53,0-86.53,0s-22.7,43.42-11,74.09c1.07,2.81-15.11,111.26-23.47,128.81-7.24,15.18-47.35,140.35-48.78,141.08Z"/><path class="cls-5" d="M23.59,384c-1.67,9-3.05,18.08-4.54,27.12-.76,4.61-1.77,9.17-2.53,13.78s-1.49,9.05-2.21,13.57q-4.39,27.32-8.73,54.63-2.16,13.56-4.35,27.1a250.45,250.45,0,0,1-5.46,26.44c-2.39,8.7-5.19,17.28-7.84,25.9q-4.08,13.25-8.15,26.5c-5.39,17.56-11,35.11-15.82,52.84-.6,2.21-1.2,4.41-1.81,6.62-.07.25.31.34.39.1,6-17.41,11.51-35,17.05-52.52s11.12-34.91,16.34-52.47a223.59,223.59,0,0,0,6.1-26c1.54-9,2.89-18.12,4.34-27.18q4.35-27.31,8.71-54.63c1.43-8.95,3-17.89,4.12-26.89,1.14-9.32,2.75-18.57,4.14-27.86q.51-3.4,1-6.82C24.38,383.7,23.68,383.49,23.59,384Z"/><path class="cls-3" d="M11.29,401.22S23.62,522.19,23.82,525c.09,1.12-5.3,161.88-5.3,161.88h81.56s-2.91-151.45-4.15-168.54c-.15-2-5.41-125-29.14-194.59H-23.79S-23,364.7-4.4,394.28C-4.4,394.28,5.9,398.18,11.29,401.22Z"/><path class="cls-5" d="M76.44,531.8c-2.14-43.58-6.72-87-12.49-130.19-3.16-23.67-6.85-47.31-13.25-70.35a.08.08,0,0,0-.15,0c5.18,21,8.54,42.47,11.26,63.95,2.7,21.28,5.26,42.61,7.43,64,4.39,43.33,6.35,86.83,6.62,130.37.15,24.49-.51,49-1.19,73.44,0,.24.35.22.37,0C78.62,619.45,78.58,575.44,76.44,531.8Z"/><path class="cls-5" d="M72.08,340.64a.14.14,0,0,0-.27.05c.35,5.15,1.21,10.78-1.08,15.64-2,4.29-5.86,6.7-9.4,9.6-.11.09,0,.27.14.23,4.71-1.43,9.4-4,11.25-8.86C74.8,351.9,73.67,346,72.08,340.64Z"/><path class="cls-5" d="M32.81,398.56c-3.77-.32-7.55.21-11.33.38a75.62,75.62,0,0,1-11.06-.2,44.57,44.57,0,0,1-5.49-.91c-1.87-.44-3.65-1.14-5.5-1.65a10,10,0,0,0-5.1.19c-2,.45-3.93.75-5.92,1a57.72,57.72,0,0,1-13.71.36c-.18,0-.25.23-.07.27a56.46,56.46,0,0,0,11.67,1.22,48.28,48.28,0,0,0,6-.54c1.79-.28,3.81-1,5.62-.74s3.66,1.32,5.48,1.83A41.84,41.84,0,0,0,9,400.92a57.3,57.3,0,0,0,11.34.34,49.78,49.78,0,0,0,12.63-1.94A.39.39,0,0,0,32.81,398.56Z"/><path class="cls-5" d="M21.87,497.55Q20.79,485.78,19.56,474c-1.64-15.68-3.2-31.36-4.82-47-.91-8.89-1.57-17.86-3-26.69,0-.23-.4-.24-.39,0,.13,7.85,1,15.72,1.63,23.54s1.36,15.7,2.1,23.54c1.47,15.68,2.87,31.38,4.71,47q.78,6.66,1.66,13.33c.58,4.44,1.36,8.87,1.93,13.32,0,.18.31.18.3,0C23,513.24,22.59,505.38,21.87,497.55Z"/><path class="cls-14" d="M20.16,220c.53,1.72,9.66,12.45,17.61,11.5,2.59-.31,1.52-14.51,1.52-14.51l.16-1.06L41.69,201l-18-9.84L21,189.9s-.34,4.12-.72,9.26c0,.24,0,.48-.05.73s-.06.57-.07.84c-.07.77-.13,1.55-.18,2.33,0,.6-.08,1.18-.1,1.8s-.05,1.24-.09,1.87A96.35,96.35,0,0,0,20.16,220Z"/><path class="cls-5" d="M20.32,199.16A30.3,30.3,0,0,0,39.45,216L41.69,201l-18-9.84L21,189.9S20.7,194,20.32,199.16Z"/><path class="cls-14" d="M62.55,176.11c5.59,25.89-9.17,32.41-14.87,33.36-5.12.85-22.47,4.15-30.71-21s2-36,13.5-39.06S57,150.21,62.55,176.11Z"/><path class="cls-5" d="M60.06,170.79c-.62,0-1.2-.08-1.82-.12a3,3,0,0,1-1.84-.48.94.94,0,0,1-.16-1.14,2.33,2.33,0,0,1,2.2-.87,3.47,3.47,0,0,1,2.3.9A1,1,0,0,1,60.06,170.79Z"/><path class="cls-5" d="M43.26,174.14a16.74,16.74,0,0,0,1.72-.62,2.93,2.93,0,0,0,1.63-1,.94.94,0,0,0-.16-1.14,2.34,2.34,0,0,0-2.36-.21,3.41,3.41,0,0,0-2,1.51A1,1,0,0,0,43.26,174.14Z"/><path class="cls-5" d="M48.06,180c0-.06-.13.11-.12.18.36,1.77.47,3.86-1,4.72,0,0,0,.11,0,.09C48.85,184.43,48.67,181.66,48.06,180Z"/><path class="cls-5" d="M46.16,178.45c-2.9.26-2.16,6,.52,5.8S48.58,178.23,46.16,178.45Z"/><path class="cls-5" d="M45.06,178.9c-.46.39-.88,1-1.48,1.17s-1.31-.38-1.84-.9c-.06-.06-.1,0-.09.08.12,1.11.69,2.19,1.9,2.2s1.76-1.07,1.89-2.21C45.46,179,45.25,178.74,45.06,178.9Z"/><path class="cls-5" d="M57.54,177.82c0-.07.15.07.16.14.16,1.8.64,3.83,2.33,4.23.06,0,.06.1,0,.1C58,182.25,57.4,179.55,57.54,177.82Z"/><path class="cls-5" d="M58.92,175.76c2.85-.57,3.77,5.18,1.13,5.7S56.53,176.23,58.92,175.76Z"/><path class="cls-5" d="M60.18,175.94c.5.24,1,.72,1.59.67s1-.76,1.31-1.42c0-.07.08,0,.09.05.21,1.09,0,2.3-1,2.68s-1.79-.49-2.23-1.54C59.87,176.18,60,175.85,60.18,175.94Z"/><path class="cls-5" d="M49.79,193.86c.46.38.94.93,1.6.93a4.72,4.72,0,0,0,1.89-.61.07.07,0,0,1,.09.09,2.44,2.44,0,0,1-2.2,1.16A1.93,1.93,0,0,1,49.62,194C49.59,193.85,49.72,193.8,49.79,193.86Z"/><path class="cls-5" d="M56.36,186.36s.74,2.62.91,3.87c0,.12-.28.22-.7.3,0,0,0,0,0,0a6,6,0,0,1-6.12-1.42c-.11-.11,0-.26.16-.2a9.09,9.09,0,0,0,5.68.8c0-.36-1.42-4.44-1.22-4.48a11.06,11.06,0,0,1,2.95.25c-1.39-5.5-3.64-10.72-4.94-16.22a.17.17,0,0,1,.32-.12c2.75,5.31,4.48,11.6,6.06,17.23C59.61,187.09,56.89,186.5,56.36,186.36Z"/><path class="cls-5" d="M56.33,189.58a7.38,7.38,0,0,1-2.29,3,3.27,3.27,0,0,1-1.92.63c-1.51,0-1.88-1.29-1.91-2.47a7.88,7.88,0,0,1,.19-1.87A9.59,9.59,0,0,0,56.33,189.58Z"/><path class="cls-13" d="M54,192.54a3.27,3.27,0,0,1-1.92.63c-1.51,0-1.88-1.29-1.91-2.47C51.76,190.46,53.53,191.1,54,192.54Z"/><path class="cls-5" d="M17.23,187.08c2.83-.64,9-9.74,6.94-23.59,0,0,1,12.56.34,14.53s3.44-5.11,1.94-16.31c0,0,6.91,3.44,12.41,4s8.72,0,9-.42-7.83-1.6-10.32-3.67c0,0,15.07,4.2,21.6,3.63.75-.07-.89-15.56-11.93-20.43S21.55,149.63,18,154.44c0,0-4.87,1.53-9.08,9.8S14.18,187.77,17.23,187.08Z"/><path class="cls-4" d="M68.88,299.69l8,42.67s-94.47,1.32-116.65-.24c0,0,23.2-90.35,47.05-116.25,11.93-13,25.94-12,34.87-2.93,2.25,2.29,29.21,37.92,32.05,51.53C76.64,286.47,68.88,299.69,68.88,299.69Z"/><path class="cls-15" d="M27.69,230.74a14.5,14.5,0,0,1-1.17,3.89,14.28,14.28,0,0,1-2.13,3.46,13.81,13.81,0,0,1,1.17-3.89A14.68,14.68,0,0,1,27.69,230.74ZM12,284.6a14.5,14.5,0,0,0-1.17,3.89A13.69,13.69,0,0,0,13,285a14.51,14.51,0,0,0,1.18-3.89A14.21,14.21,0,0,0,12,284.6ZM-.84,338.06A14.15,14.15,0,0,0-2,342a14,14,0,0,0,2.13-3.46,14.15,14.15,0,0,0,1.17-3.89A14.48,14.48,0,0,0-.84,338.06Zm55.21-65.81a14.25,14.25,0,0,0-1.17,3.89,15.69,15.69,0,0,0,3.3-7.35A14.68,14.68,0,0,0,54.37,272.25ZM27.21,331A14.15,14.15,0,0,0,26,334.88a15.69,15.69,0,0,0,3.3-7.35A14.48,14.48,0,0,0,27.21,331Zm-54.82-25.47a14.15,14.15,0,0,0-1.17,3.89A14,14,0,0,0-26.65,306a14.15,14.15,0,0,0,1.17-3.89A14.68,14.68,0,0,0-27.61,305.52Zm15.64-42a14.16,14.16,0,0,0-1.18,3.89A14,14,0,0,0-11,264a14.5,14.5,0,0,0,1.17-3.89A14.17,14.17,0,0,0-12,263.54Zm50.91-12.42A14,14,0,0,0,35.05,250a15.69,15.69,0,0,0,7.35,3.3A14.28,14.28,0,0,0,38.94,251.12Zm11.39,44.39a14,14,0,0,0-3.89-1.17,14.48,14.48,0,0,0,3.46,2.13,14.25,14.25,0,0,0,3.89,1.17A14.28,14.28,0,0,0,50.33,295.51Zm-51.28,8.1a14.06,14.06,0,0,0-3.89-1.18,14,14,0,0,0,3.46,2.13,14.27,14.27,0,0,0,3.89,1.18A14,14,0,0,0-.95,303.61Zm71.7-21.77a14.42,14.42,0,0,0,1.92,3.58,15.75,15.75,0,0,0-2.86-7.53A14.43,14.43,0,0,0,70.75,281.84Zm-1,51.18a14.13,14.13,0,0,0,1.93,3.58,14.59,14.59,0,0,0-.94-4,14.94,14.94,0,0,0-1.92-3.58A14.49,14.49,0,0,0,69.74,333ZM11.28,258.28a14.13,14.13,0,0,0,1.93,3.58,14.43,14.43,0,0,0-.94-3.95,14.46,14.46,0,0,0-1.93-3.58A14.81,14.81,0,0,0,11.28,258.28Zm18.09,45.83a14.42,14.42,0,0,0,1.92,3.58,14.08,14.08,0,0,0-.94-3.95,14.16,14.16,0,0,0-1.92-3.59A14.79,14.79,0,0,0,29.37,304.11Zm-48,19.11a14.13,14.13,0,0,0,1.93,3.58,14.08,14.08,0,0,0-.94-3.95,14.42,14.42,0,0,0-1.92-3.58A14.42,14.42,0,0,0-18.65,323.22ZM14.6,219.72l-.82.53a11.62,11.62,0,0,0,1.37,2.27A11.88,11.88,0,0,0,14.6,219.72ZM.45,240.88A14.42,14.42,0,0,0,4,239a14.15,14.15,0,0,0-4,.94,14.1,14.1,0,0,0-3.58,1.92A14.59,14.59,0,0,0,.45,240.88Zm49.67,79.74a14.1,14.1,0,0,0,3.58-1.92,14.08,14.08,0,0,0-4,.94,14.42,14.42,0,0,0-3.58,1.92A14.08,14.08,0,0,0,50.12,320.62Zm-64.86-33.85a14.1,14.1,0,0,0,3.58-1.92,14.08,14.08,0,0,0-3.95.94,14.1,14.1,0,0,0-3.58,1.92A14.08,14.08,0,0,0-14.74,286.77ZM59,246.06l-.32.11a14.34,14.34,0,0,0-3.59,1.93,15.2,15.2,0,0,0,3.95-.94l.55-.23ZM10.53,320.62a14.1,14.1,0,0,0,3.58-1.92,14.08,14.08,0,0,0-3.95.94,14.42,14.42,0,0,0-3.58,1.92A14.08,14.08,0,0,0,10.53,320.62Zm-42.89,16.47a14.1,14.1,0,0,0,3.58-1.92,14.23,14.23,0,0,0-4,.94A14.27,14.27,0,0,0-36.32,338,14.15,14.15,0,0,0-32.36,337.09Zm62.64-66.2A14.1,14.1,0,0,0,33.86,269a14.08,14.08,0,0,0-3.95.94,14.1,14.1,0,0,0-3.58,1.92A14.08,14.08,0,0,0,30.28,270.89Z"/><path class="cls-3" d="M123.79,159.1s-12.06-1.15-12.18,7.13,12,7.46,12,7.46Z"/><path class="cls-3" d="M208.23,174.86h0l10.58-5.35,3.5-1.74-3.44-1.88-10.42-5.63h0l-85.13-1.16-.21,14.6,85.14,1.16Z"/><polygon class="cls-3" points="218.82 169.52 222.32 167.77 218.88 165.89 218.82 169.52"/><polygon class="cls-3" points="126 174.95 126.26 157.91 122.87 157.86 122.61 174.91 126 174.95"/><polygon class="cls-3" points="129.74 175 130 157.96 126.61 157.91 126.36 174.96 129.74 175"/><polygon class="cls-3" points="130 157.96 129.91 163.46 160.76 160.85 160.67 158.82 130 157.96"/><path class="cls-14" d="M35.28,243.24c14.4,9.69,70.1,36.75,84.88,29.31,23.17-11.66,50.46-39.31,62.69-50.26,6.65-5.95-37.29-41.82-42.28-33.15-6.48,11.28-35.59,36.38-39,39.59s-36.64-3.1-60.88-6.36C20.49,219.65,17,231,35.28,243.24Z"/><path class="cls-14" d="M184,148.75c4.83,2,4.37,7.37,4.37,7.37a11.15,11.15,0,0,1,7.46,1.36c3.85,2.49,1.63,9.63,1.63,9.63a13.77,13.77,0,0,1,7.64,2.69c3.45,2.76,2.23,10.28,2.23,10.28a12.06,12.06,0,0,1,5.23,6.59c2.09,7.45-5.86,16.19-10.86,21.8s-24.43,16.83-27.92,19.35L136.9,199.49s3.27-24.25,22.64-40.74C165.26,153.88,178.52,146.52,184,148.75Z"/><path class="cls-5" d="M187.52,155.86c-7.34,3.7-13.19,9.36-19.35,14.68-.14.12.05.33.19.21,6.06-5.36,13.11-9.45,19.38-14.56A.2.2,0,0,0,187.52,155.86Z"/><path class="cls-5" d="M196.84,166.81a21.43,21.43,0,0,0-4.31,3.58c-1.44,1.38-2.85,2.77-4.24,4.19-2.78,2.84-5.5,5.74-8.13,8.72-.12.13.05.34.18.21,2.78-2.82,5.6-5.6,8.5-8.31q2.17-2,4.38-4a25.14,25.14,0,0,0,4-3.95A.28.28,0,0,0,196.84,166.81Z"/><path class="cls-5" d="M207.16,180.19c-1.45.71-2.61,2.27-3.7,3.43-1.25,1.32-2.49,2.64-3.75,3.94-2.51,2.61-5,5.22-7.62,7.75-.13.12,0,.33.18.21,2.66-2.55,5.35-5.06,8-7.64q1.94-1.89,3.86-3.81c1.09-1.09,2.57-2.32,3.19-3.76C207.33,180.23,207.23,180.16,207.16,180.19Z"/><path class="cls-4" d="M111.27,218.14,145.34,262s-20.13,14.33-29.22,14.19-55.39-13.69-79.48-30.59-14.92-25.77,5-23.56,57,6.26,58.33,5.83S111.27,218.14,111.27,218.14Z"/><path class="cls-15" d="M27.68,230.74a14.23,14.23,0,0,1-1.16,3.89c-.23.5-.48,1-.76,1.47a7.34,7.34,0,0,1-.63-.8c.13-.38.28-.74.43-1.11A15.26,15.26,0,0,1,27.68,230.74Zm54,5.76a14.06,14.06,0,0,0-1.18,3.89,13.87,13.87,0,0,0,2.13-3.46A14.27,14.27,0,0,0,83.78,233,14,14,0,0,0,81.65,236.5Zm30.91-10.36a14,14,0,0,0-1.17,3.89,15.69,15.69,0,0,0,3.3-7.35A14.28,14.28,0,0,0,112.56,226.14ZM81.81,256.41a14.27,14.27,0,0,0-3.89-1.18,14,14,0,0,0,3.46,2.14,14.39,14.39,0,0,0,3.89,1.17A14.36,14.36,0,0,0,81.81,256.41Zm46.58-2.28A14.5,14.5,0,0,0,124.5,253a13.87,13.87,0,0,0,3.46,2.13,14.51,14.51,0,0,0,3.89,1.18A14.21,14.21,0,0,0,128.39,254.13ZM55,224.77c-.19-.45-.38-.91-.59-1.37l-1-.11a16.81,16.81,0,0,0,.59,1.87,14.58,14.58,0,0,0,1.91,3.58A13.8,13.8,0,0,0,55,224.77Zm56.15,43a14.1,14.1,0,0,0,1.92,3.58,14.08,14.08,0,0,0-.94-3.95,14.48,14.48,0,0,0-1.92-3.59A14.06,14.06,0,0,0,111.12,267.75ZM62,245.32a14.83,14.83,0,0,0-3.27.85,14.3,14.3,0,0,0-3.59,1.92,14.15,14.15,0,0,0,4-.94,16,16,0,0,0,3-1.51A2.39,2.39,0,0,0,62,245.32Zm41.68-.49a14.1,14.1,0,0,0,3.58-1.92,14.08,14.08,0,0,0-4,.94,14.42,14.42,0,0,0-3.58,1.92A14.08,14.08,0,0,0,103.64,244.83Z"/><path class="cls-5" d="M134.79,263.93c-8.95-12.46-18-25-28.13-36.5-.09-.1-.25,0-.18.16,8.56,12.74,18.32,24.67,28.06,36.5C134.66,264.24,134.9,264.09,134.79,263.93Z"/><path class="cls-5" d="M68.82,262c-8.17-3.68-16.22-7.58-24.47-11.07a.07.07,0,1,0-.07.13,104.45,104.45,0,0,0,9.89,5.29c-1.38-.38-2.76-.77-4.16-1.08-.11,0-.19.15-.08.2a21.1,21.1,0,0,0,3.8,1.24c.7.16,1.41.29,2.12.43,4.19,1.91,8.49,3.59,12.86,5.14A.15.15,0,0,0,68.82,262Z"/><path class="cls-5" d="M18,154.44C7.84,159-2.73,169.1-5.7,205.93S-3,269.73,7.84,276.14s34.41,3,47-6.64c0,0-26-27.53-29.77-67.9-1.21-12.91,6.67-33.13,1.65-42.51Z"/><path class="cls-5" d="M56.38,267.58c-1.92-2.88-3.64-5.9-5.5-8.82S47.26,253,45.5,250.1A180,180,0,0,1,35.78,232c-5.65-12.39-9.52-25.78-10-39.45-.28-8.22.63-16.31,1.1-24.5,0-.15-.24-.18-.26,0-2.42,14.17-3.43,28.74-.21,42.86,3.06,13.42,9.05,25.94,16.17,37.66,2,3.28,4.11,6.49,6.31,9.64s4.84,6.37,7.24,9.57C56.24,267.89,56.49,267.75,56.38,267.58Z"/><path class="cls-5" d="M7.48,165.15c.1-.13-.14-.3-.24-.17-9.1,11.18-12.78,25.76-15.15,39.69-2.66,15.67-2.72,31.66,1,47.17A69.81,69.81,0,0,0-3,263.53a67.08,67.08,0,0,0,6,10.32.15.15,0,1,0,.23-.19A33.78,33.78,0,0,1-2,263.87,73.47,73.47,0,0,1-4.84,253.8a118.76,118.76,0,0,1-2.75-23,153.52,153.52,0,0,1,5.23-44.39A66.48,66.48,0,0,1,7.48,165.15Z"/><path class="cls-5" d="M-1.7,260.38a96.11,96.11,0,0,1-3.86-10.27,104.32,104.32,0,0,1-4.37-21.28,95.69,95.69,0,0,1,5.57-42.34A107.46,107.46,0,0,1,6.76,164.88c.08-.11-.11-.26-.2-.14a91.37,91.37,0,0,0-14.25,83.2,91.6,91.6,0,0,0,4.61,11.25c1.87,3.86,4.23,7.43,6.32,11.17.09.17.36,0,.25-.16A55.84,55.84,0,0,1-1.7,260.38Z"/><path class="cls-14" d="M26.78,185.62s-6.51-7.71-10.06-5.32,1.87,13.94,6.4,15.17a4.48,4.48,0,0,0,5.76-2.94Z"/><path class="cls-5" d="M18.35,183.57c-.07,0-.07.1,0,.12,3.19,1,5.07,3.67,6.47,6.53-1-1.06-2.32-1.57-3.74-.34-.08.06,0,.18.1.16a2.74,2.74,0,0,1,3.1.68A13.2,13.2,0,0,1,25.94,193c.17.26.65.07.52-.24l0-.07C26.15,188.79,22.6,183.58,18.35,183.57Z"/><path class="cls-6" d="M521,141.88a20.83,20.83,0,0,0,3.55-11.48c0-14.54-16-26.33-35.65-26.33s-35.63,11.79-35.63,26.33,16,26.33,35.63,26.33c9.55,0,18.2-2.77,24.59-7.29l12.28,3.12Z"/><path class="cls-16" d="M521,141.88A20.83,20.83,0,0,0,524.39,131a20.31,20.31,0,0,0-3-10.88c-4-6.52-10.78-11-18-13.26a47.52,47.52,0,0,0-22.56-1.46,37.37,37.37,0,0,0-20.08,9.87,23.39,23.39,0,0,0-5.85,9.44,19,19,0,0,0-.14,11,23,23,0,0,0,5.71,9.54,33.05,33.05,0,0,0,9.17,6.56,40.9,40.9,0,0,0,10.8,3.51,47.7,47.7,0,0,0,11.38.79,42,42,0,0,0,21.51-6.94l.13-.09.14,0,12.24,3.28-.18.22Zm0,0,4.91,10.62.14.29-.32-.07-12.32-3,.27,0a42.36,42.36,0,0,1-21.83,7.44A46,46,0,0,1,469.07,153a34.55,34.55,0,0,1-9.57-6.78,24.45,24.45,0,0,1-6.09-10.08,20.16,20.16,0,0,1,.11-11.79,24.7,24.7,0,0,1,6.24-10,38.64,38.64,0,0,1,20.83-10.13,46.86,46.86,0,0,1,23.1,1.74c7.34,2.46,14.27,7.08,18.22,13.9a20.39,20.39,0,0,1-.9,22Z"/><path class="cls-5" d="M476.09,130.4a3.7,3.7,0,1,1-3.69-3.7A3.69,3.69,0,0,1,476.09,130.4Z"/><path class="cls-5" d="M492.61,130.4a3.7,3.7,0,1,1-3.69-3.7A3.69,3.69,0,0,1,492.61,130.4Z"/><path class="cls-5" d="M509.13,130.4a3.7,3.7,0,1,1-3.7-3.7A3.7,3.7,0,0,1,509.13,130.4Z"/></g><g class="cls-17"><rect class="cls-4" x="-729.96" y="-3.07" width="789.24" height="82.76"/><rect class="cls-3" x="-729.96" y="-3.07" width="789.24" height="13.15"/><rect class="cls-6" x="-571.54" y="24.35" width="661.16" height="47.95"/><path class="cls-16" d="M89.62,72.3c-.18-.34-662,1-661.52,0l0-48V24c.16,0,661.44.24,661.59.37l0,47.95Zm0,0-.05-47.95c.27-.2-662.66,1-660.74,0V72.3c-2.14-1,661.22.36,660.8,0Z"/><rect class="cls-4" x="41.67" y="24.35" width="47.95" height="47.95"/><path class="cls-6" d="M77.81,59.09l-3.54,2.68L67.7,53.1l-2.4-3.17a5.69,5.69,0,0,0,1.37-.78,5.61,5.61,0,0,0,1.82-2.36l2.56,3.36Z"/><path class="cls-6" d="M70.83,38.67A9.67,9.67,0,1,0,67.7,53.1,10.13,10.13,0,0,0,69,52.24a9.92,9.92,0,0,0,2-2.09A9.67,9.67,0,0,0,70.83,38.67ZM66.67,49.15a5.69,5.69,0,0,1-1.37.78,5.79,5.79,0,1,1,3.19-3.14A5.61,5.61,0,0,1,66.67,49.15Z"/><path class="cls-18" d="M13.6,119.42C8.8,154.78,0,190.1-5.83,195.65c-9,8.6-58.86,20.77-75,21.57-5.27.27-9.86-35.4-5.62-39.13s57.82-13,60.78-14.79c1.58-1,14.61-28.17,24.64-46.39C8.31,100,15.06,108.69,13.6,119.42Z"/><path class="cls-4" d="M-62.64,216.24l-6.4-45s38-8.58,42.52-10c1.93-.61,18.23-34.22,26.07-48.62,5.16-9.47,15.75-12.54,15.26,8.29-.29,12.19-10.1,69.5-19.6,77.41C-12.35,204.57-62.64,216.24-62.64,216.24Z"/><path class="cls-19" d="M14.77,117.43c0,.51.05,1,0,1.61s0,1.21,0,1.83c-.05,2.09-.37,5.51-.94,9.8-.09.79-.2,1.59-.32,2.42-.07.51-.14,1-.23,1.55q-.24,1.67-.51,3.42c0,.2-.07.41-.11.62-.2,1.28-.4,2.61-.64,3.95q-.24,1.45-.51,3c-.18,1-.35,2-.55,3-.09.51-.19,1-.29,1.55C9.64,155.84,8.4,161.76,7,167.45,6.68,169,6.3,170.52,5.9,172c-.25,1-.52,2-.79,3s-.52,1.94-.79,2.89c-2.84,9.88-6,17.79-9.11,20.39-5.11,4.27-29.82,11-45.23,14.9L6.42,105.69a5.11,5.11,0,0,1,.66-.22,4.43,4.43,0,0,1,4,.69,5.68,5.68,0,0,1,1.37,1.49,10.8,10.8,0,0,1,.78,1.44,12.42,12.42,0,0,1,.65,1.79A28.57,28.57,0,0,1,14.77,117.43Z"/><path class="cls-4" d="M1.67,109.84s-43.3,150.35-40,167.31,49.21,49.14,51,46.21S33,211.92,17,134.72C9.48,98.63,1.67,109.84,1.67,109.84Z"/><path class="cls-3" d="M-48.84,559l68.59-1S6.16,393.73,6.72,390.58c.72-4.05,49.38-194.84,49.38-194.84H-9.35S-61,373.56-62.82,390.7C-65.82,418.37-48.84,559-48.84,559Z"/><path class="cls-5" d="M41.71,211.15c-5.86,20.74-11.21,41.66-16.46,62.56S14.77,315.54,9.57,336.47q-3.92,15.69-7.81,31.39C-.77,378-3.72,388.28-4.35,398.81-5,409.51-3.62,420.3-2.72,431S-.92,452.37,0,463.07C1.9,484.5,3.7,505.94,6,527.31c.29,2.68.57,5.35.85,8a.18.18,0,0,0,.36,0c-1.42-21.43-2.9-42.86-4.61-64.27Q1.34,455,0,438.93c-.88-10.69-2.13-21.41-2.46-32.13s1.63-21.19,4.24-31.64q3.84-15.36,7.7-30.71,7.86-31.38,15.67-62.76c5.81-23.43,11.61-46.91,16.74-70.5A.1.1,0,0,0,41.71,211.15Z"/><path class="cls-5" d="M56.11,195.74S35.23,277.59,20.62,335.21L-7.23,195.74Z"/><path class="cls-3" d="M-8.52,195.71s3.7,46.28,11.33,57.9c0,0,7.5,2.61,19,9.46,0,0,4.71,123.8,4.63,131.24-.31,27.81,6.8,163.27,6.8,163.27l69.15-.65s-7.16-153.19-7.19-163.38c0-9.85-4.71-72-8.88-125.91,0,0,6.15-17.21,5.47-25.91-1.65-21.08-11.1-46-11.1-46Z"/><path class="cls-5" d="M15.82,239.72c-.26-1.73-.52-3.46-.79-5.2-.48-3.17-1.13-6.32-1.69-9.48-1.26-7.17-2.57-14.37-4.16-21.48,0-.17-.33-.13-.31.05.28,2.87.61,5.74,1,8.59s.69,5.74,1.09,8.59c.8,5.67,1.59,11.34,2.56,17,.37,2.18,1.73,6.07-1.4,6.75-2.48.53-4.3-1.9-5-3.94a48.49,48.49,0,0,1-1.67-7.83c-.51-2.86-1-5.73-1.37-8.6-.88-6.27-1.85-12.51-2.87-18.75,0-.18-.31-.13-.31,0a189.61,189.61,0,0,0,1.39,19.19q.6,4.58,1.37,9.12c.49,2.83.85,5.88,2.1,8.5a6.9,6.9,0,0,0,5.17,4.15h.15a.21.21,0,0,0-.09.17c0,1,0,2,.12,3.06s.31,2,.5,3a20.37,20.37,0,0,0,.77,3c.17.47.34.93.55,1.37a13.54,13.54,0,0,0,.81,1.26c.11.18.32.07.33-.11h0a4.26,4.26,0,0,1,0-.5.27.27,0,0,1,0-.09h0c0-.29,0-.59-.06-.89-.08-.49-.18-1-.29-1.45-.21-1-.48-1.93-.74-2.88s-.46-1.92-.71-2.88-.57-2-.8-2.94a.18.18,0,0,0-.07-.1,4.51,4.51,0,0,0,4.37-2.73A7.85,7.85,0,0,0,15.82,239.72Z"/><path class="cls-5" d="M27.39,265.34a54,54,0,0,0-6.5-4.28,62.82,62.82,0,0,0-7.42-3.85c-5-2.17-10.16-3.65-15.32-5.36-.16,0-.26.21-.11.27,5,2,9.8,4.63,14.63,7,2.37,1.16,4.78,2.27,7.2,3.34s4.84,2.32,7.33,3.23C27.39,265.75,27.54,265.47,27.39,265.34Z"/><path class="cls-5" d="M66.43,225.94c-3.52,0-15.69-.89-19.29-4.92a24.86,24.86,0,0,1-4.5-8.12A77,77,0,0,1,39.91,203c0-.17-.28-.11-.29,0A38.57,38.57,0,0,0,41,214.28c.85,3.08,2,6.53,4.49,8.7s6.19,3.08,9.56,3.49a43.57,43.57,0,0,0,11.35-.16A.19.19,0,0,0,66.43,225.94Z"/><path class="cls-5" d="M90.89,534.52h0a.84.84,0,0,0,.8-.88L76.12,265.57c.2-1.17,4.6-16.15,5-23.8.42-8.08-7.94-39.6-8.3-40.93a.86.86,0,0,0-1-.6.84.84,0,0,0-.6,1c.09.33,8.65,32.59,8.25,40.42s-5,23.56-5,23.69S90.05,533.72,90.05,533.72A.84.84,0,0,0,90.89,534.52Z"/><path class="cls-5" d="M-23.64,144a4.07,4.07,0,0,0,2.12,3.65A30.06,30.06,0,0,0-18,149.46,122.24,122.24,0,0,1-18,137.05c.16-4.76.65-9.42,1.24-14.14,0-.07.11-.06.11,0-.25,4.77-.33,9.57-.45,14.34-.1,4.18.12,8.41,0,12.59,1.23.51,2.49,1,3.76,1.36-.07-1.46-.13-2.92-.17-4.38-.11-4.4.16-8.74.28-13.13a.08.08,0,1,1,.15,0c-.05,4.27.26,8.59.43,12.85.06,1.65.14,3.3.22,4.94.87.25,1.74.49,2.6.71.57.15,1.14.29,1.71.41-.05-2.88.07-5.79.1-8.61,0-4.57.39-9.12.51-13.68,0-.16.24-.17.24,0-.1,4.54.11,9.12.12,13.66,0,2.93.15,5.92.13,8.88a69,69,0,0,0,23.28.49,102.3,102.3,0,0,0,13.27-2.8c1-.29,3.74-1.11,6.39-2,0-1.38,0-2.75,0-4.09-.07-3,.05-6.1-.1-9.13a.06.06,0,1,1,.12,0c.25,3.05.68,6.06.83,9.12.06,1.22.15,2.49.2,3.77.95-.3,1.86-.61,2.66-.89-.47-5.74-.27-11.58-.4-17.3a.1.1,0,1,1,.19,0c.39,5.61,1.13,11.29,1.22,17a9.55,9.55,0,0,0,1.75-.75c1.29-1.08-.25-23.75-.49-29-.43-9.86-2.81-50-6-59.39A29.15,29.15,0,0,0,18.58,39.29c-4-1.56-8.54-1-12.72-.93-20.34.5-26.49,15-27.64,40.26-.44,9.76-1,47.79-1.5,57.55C-23.41,138.77-23.67,141.4-23.64,144Z"/><path class="cls-10" d="M-12.44,178.57l-.27,27L83,198.38l-8.83-21.16c-9.3-20.49-21.07-51.4-36.57-66.16-12.32-11.74-25.76-9.92-33.79-.63C1.76,112.78-18,146-19.93,159.31-21.56,171-12.44,178.57-12.44,178.57Z"/><path class="cls-5" d="M7.2,174.48a36.05,36.05,0,0,0-9,1.31,45,45,0,0,0-4.5,1.62c-.74.31-1.49.57-2.23.83a5.94,5.94,0,0,1-2.34.43c-.06,0-.09.17,0,.19a8.51,8.51,0,0,0,2.14.23,9.56,9.56,0,0,0,2.14-.39c1.52-.43,3.05-1,4.57-1.43a82.24,82.24,0,0,1,9.2-2.35C7.31,174.89,7.34,174.48,7.2,174.48Z"/><path class="cls-5" d="M21.18,177.64a90,90,0,0,0-11.49-.51c-1.92.05-3.83.22-5.74.45-.91.11-1.82.24-2.73.38s-2,.46-3,.6c-.1,0-.1.2,0,.19.94-.1,1.91,0,2.86-.06L4,178.58c1.91-.07,3.82-.12,5.73-.21,3.83-.19,7.65-.33,11.48-.37C21.4,178,21.38,177.67,21.18,177.64Z"/><path class="cls-4" d="M24.44,103.15S20.5,152,24.44,164,39.84,271.59,48.22,286.7s62,31.53,62.75,28.2S95.89,202.62,56.79,134.15C38.51,102.15,24.44,103.15,24.44,103.15Z"/><path class="cls-18" d="M23,106.58c-.19,1.74-6.94,13.73-14.73,14.32-2.54.18-4.17-13.63-4.17-13.63l-.36-1L-1.16,92.39,14.29,79.58l2.25-1.72S17.65,81.75,19,86.6c.06.23.12.45.19.69s.16.53.22.79c.21.72.42,1.46.61,2.2.15.57.3,1.11.43,1.71s.28,1.18.43,1.77A95.57,95.57,0,0,1,23,106.58Z"/><path class="cls-5" d="M19,86.6a29.56,29.56,0,0,1-15.2,19.68L-1.16,92.39,14.29,79.58l2.25-1.72S17.65,81.75,19,86.6Z"/><path class="cls-18" d="M-21,65.49C-26.81,90.7-12.36,97-6.93,98.27-2,99.4,15,102.62,23.34,78.15S21.84,43,10.69,39.82-15.19,40.28-21,65.49Z"/><path class="cls-5" d="M1.21,69.22a15.07,15.07,0,0,1-1.78,0,2.82,2.82,0,0,1-1.83-.31.91.91,0,0,1-.25-1.09,2.27,2.27,0,0,1,2.07-1,3.31,3.31,0,0,1,2.31.68A1,1,0,0,1,1.21,69.22Z"/><path class="cls-5" d="M1.49,71.18a5.39,5.39,0,0,0-1.42-.47,5.66,5.66,0,0,0-1.54,0,4.63,4.63,0,0,0-1.54.5,3.69,3.69,0,0,0-1.21,1.15l-.57.84h1a10,10,0,0,1,2.16.2,4.47,4.47,0,0,1,2,.91,3.24,3.24,0,0,0-1.78-1.67,6.13,6.13,0,0,0-2.44-.51l.46.83a3.67,3.67,0,0,1,2-1.35A11.26,11.26,0,0,1,1.49,71.18Z"/><path class="cls-5" d="M21.65,79.15C16.74,79.2,16.78,68,16.78,68S.11,64.64-2.81,47.25A32.14,32.14,0,0,1-19.37,59S-16.54,40.7-1.54,38.8c0,0,18.87-4.51,27.39,11S25,79.11,21.65,79.15Z"/><path class="cls-5" d="M-2.69,46A18.53,18.53,0,0,0-2,53.75a19.15,19.15,0,0,0,3.67,7A18.53,18.53,0,0,0,3,62.15l.7.71.77.62c.52.4,1,.82,1.57,1.2s1.13.67,1.7,1c.29.16.56.33.86.48l.9.39,1.8.76c1.24.39,2.49.72,3.74,1-1.17-.56-2.38-1-3.52-1.56l-1.69-.9L9,65.43c-.27-.17-.52-.36-.79-.53-.52-.37-1-.72-1.56-1.06s-1-.81-1.45-1.21L4.46,62l-.65-.68A14.93,14.93,0,0,1,2.55,60a22,22,0,0,1-3.73-6.5,22.71,22.71,0,0,1-1-3.65A21.93,21.93,0,0,1-2.69,46Z"/><path class="cls-18" d="M18.89,79.16S25.61,72,29,74.46,26.47,88,22,89a4.37,4.37,0,0,1-5.47-3.15Z"/><path class="cls-5" d="M27.2,77.57c.07,0,.07.1,0,.12-3.16.79-5.12,3.33-6.62,6,1-1,2.33-1.41,3.67-.15.07.07,0,.18-.11.15a2.67,2.67,0,0,0-3.06.52,13,13,0,0,0-1.74,2.17c-.18.25-.64,0-.49-.26l0-.06C19.35,82.29,23.06,77.38,27.2,77.57Z"/><path class="cls-10" d="M3.72,106.33l5.13,11.56,14-15.36,4.3,4.62s-13.41,24.08-13.54,23l-5.19-9.94-6.73,7.28-.06-17.67Z"/><path class="cls-5" d="M1.21,118.78c.08-2.92.09-5.86.31-8.78,0-.1.17-.15.2,0,.68,2.79.29,14,.4,16.62l0,0c.28-.32,6.24-6.42,6.31-6.33,1.1,1.57,4.91,8.8,5.18,9.46,2.12-3.82,11.16-18.92,13.7-22.56.08-.1.24,0,.18.1-1.85,4-13.52,23.94-13.7,23.9a118,118,0,0,1-5.43-10.51c-1,1.32-7,8.18-7,7.75A90.26,90.26,0,0,1,1.21,118.78Z"/><path class="cls-18" d="M43,120.94c13.92,25.8,29.57,69.69,25.17,77.88-11,20.52-37,41.94-49.11,49-7,4.1-30.51-32.05-24.43-36,9.6-6.23,34.84-27.73,37.88-30.62,1.62-1.55-3.25-32.56-4.58-53.09C26.44,105.76,36.17,108.36,43,120.94Z"/><polygon class="cls-5" points="-8.77 278.87 10.92 263.7 10.92 263.7 -29.98 210.63 -29.98 210.63 -49.67 225.8 -49.67 225.8 -8.77 278.87"/><path class="cls-18" d="M23,244.51C10.76,254.8-3.8,268.34-21.54,271.36a8.94,8.94,0,0,1-5.78-.81c-7.93,1.49-11-1.8-11-1.8-7.82-.87-10.51-4.68-10.51-4.68s-9.33,1.66-11.26-3.81c-2.19-6.13,11.34-7.26,18.4-12.42C-25.52,236-5.83,214.65-1.51,210.77Z"/><path class="cls-4" d="M28.21,249.76-2.74,206.51l33.16-26c-2-16.8-6.06-50.39-5.71-62.22.4-13.87,10.06-14.5,17.57-2.51,17.16,27.41,33.78,77.1,32.49,85.08C72.9,212.33,28.21,249.76,28.21,249.76Z"/><path class="cls-5" d="M31.44,239.37c-1.41-3-9.22-14.36-11.2-17.16S10,208.43,7.91,205.56c-.11-.16-.36,0-.25.12,2,2.87,9.43,14.51,11.38,17.33s9.88,14,12.25,16.45A.09.09,0,0,0,31.44,239.37Z"/><path class="cls-16" d="M37.15,242c12-11.28,24.32-22.45,34.37-35.52a17.66,17.66,0,0,0,2.88-5.3c.38-3.36-.56-6.75-1.31-10-5.82-21.21-14.84-41.4-23.17-61.72q7.17,14.9,13.33,30.23c4.08,10.23,8,20.56,10.66,31.29a41.32,41.32,0,0,1,1.24,8.23c.25,2.89-1.57,5.4-3.16,7.64-10.18,13-22.66,24.07-34.84,35.18Z"/><path class="cls-16" d="M53.23,136.7c-.51-1.65-.76-3.44-1.24-5.1a14.41,14.41,0,0,1,1.24,5.1Z"/><path class="cls-16" d="M26.28,140.42c1,9.44,2.72,21.19,3.74,30.69.24,2.49.8,6.56.89,9a1.47,1.47,0,0,1-.1.74c-5.22,5-11.2,9-16.9,13.43q-8.25,6.18-16.64,12.17v-.07l.77,1.21-.85-1.15,0,0,0,0c9.51-7.55,23.24-17.78,32.31-25.52.16-.14.38-.4.45-.46s0,.11,0,.09c0-.52-.05-1.06-.1-1.6-1.13-12.56-3-25.89-3.56-38.47Z"/><path class="cls-16" d="M25.21,142.72c.69,1.8,1.1,3.78,1.8,5.56a16.5,16.5,0,0,1-1.8-5.56Z"/></g></svg>