<svg id="Слой_1" data-name="Слой 1" xmlns="http://www.w3.org/2000/svg" xmlns:xlink="http://www.w3.org/1999/xlink" viewBox="0 0 581.13 402.55"><defs><style>.cls-1{fill:none;}.cls-2{clip-path:url(#clip-path);}.cls-3{clip-path:url(#clip-path-2);}.cls-4{fill:#4a148c;}.cls-5{clip-path:url(#clip-path-3);}.cls-6{fill:#fff;}.cls-7{fill:#c8c8c8;}.cls-8{fill:#ffc800;}.cls-9{isolation:isolate;}.cls-10{fill:#dcdcdc;}.cls-11{fill:#a8a8a8;}.cls-12{fill:#306;}.cls-13,.cls-14{opacity:0.1;}.cls-15{fill:#1a2e35;}.cls-16{fill:#ff9581;}.cls-17{opacity:0.2;}</style><clipPath id="clip-path"><rect class="cls-1" x="-709.07" y="-575.95" width="674.08" height="735.86"/></clipPath><clipPath id="clip-path-2"><rect class="cls-1" x="630" y="-8.95" width="602" height="423"/></clipPath><clipPath id="clip-path-3"><rect class="cls-1" x="-22" y="-15.95" width="630" height="429"/></clipPath></defs><g class="cls-3"><path class="cls-4" d="M617.72,685.36c.76-.37,28-104.45,37.5-141,13.72-52.68,27-138.55,31-156.43,0,0,12.83-30.45,16.63-64.17,0-.06-86.53,0-86.53,0s-22.7,43.42-11,74.09c1.07,2.81-15.11,111.26-23.47,128.81-7.24,15.18-47.35,140.35-48.78,141.08Z"/></g><g class="cls-5"><rect class="cls-6" x="-89.96" y="-3.07" width="716.44" height="507.95"/><path class="cls-7" d="M626.48,504.88c-.12.18-716.65.24-716.8.37-.17-.11,0-508.12-.13-508.32v-.5H-90c.1-.13,716.6.31,716.73.21.21.16-.44,508-.29,508.24Zm0,0c0,.08-.63-509.18,0-507.66L-90-2.58l.49-.49c.07-.08.26,509.48-.49,507.59l716.44.36Z"/><rect class="cls-8" x="-89.96" y="-3.07" width="789.24" height="82.76"/><rect class="cls-4" x="-89.96" y="-3.07" width="789.24" height="13.15"/><path class="cls-8" d="M25,322.54a13.19,13.19,0,0,1,18.46-1.77c11.12,9.1,30.33,19.72,48.28,19.47,12.64,0,24-3.79,31.61-9.35s10.87-11.89,10.87-18.21a14.43,14.43,0,0,0-2.28-8.09A24,24,0,0,0,124.4,297c-7.33-4.8-19.72-9.1-34.64-11.88h-.5c-11.89-2.28-23-5.31-32.62-9.86s-18-10.87-23.51-19.72a38.83,38.83,0,0,1-5.81-20.73c0-15.17,8.59-28.32,20.22-36.91,11.88-8.6,27.31-13.4,43.74-13.4,24.27,0,42.22,11.88,55.11,20.22,5.82,4.05,7.59,12.14,3.54,18a12.76,12.76,0,0,1-18,3.79c-12.89-8.59-25.28-16.18-40.7-16.18-11.38,0-21.49,3.54-28.32,8.6s-9.6,10.62-9.6,15.93a12.26,12.26,0,0,0,1.77,7.08A24.44,24.44,0,0,0,62,248.47c6.58,4.55,18,8.59,31.6,11.12h.51c12.89,2.53,24.78,5.82,34.89,10.62,10.36,5.06,19.46,11.63,25.28,21a41,41,0,0,1,6.07,21.49c0,16.18-9.1,30.09-21.75,39.19-12.38,9.1-28.82,14.41-46.77,14.41C64.48,366,41.47,352.38,27.06,341A13.46,13.46,0,0,1,25,322.54Z"/><path class="cls-8" d="M199.23,352.63V203.47a13.71,13.71,0,0,1,13.91-13.91h82.67a14,14,0,0,1,13.9,13.91,14.25,14.25,0,0,1-13.9,14.16H227.29v46.26H286.2a14,14,0,0,1,0,28.06H227.29v46.52h68.52a14,14,0,0,1,0,28.06H213.9c-.51,0-.51-.25-.51-.25l-.25.25A13.87,13.87,0,0,1,199.23,352.63Z"/><path class="cls-8" d="M488.7,211.56a92.86,92.86,0,0,1,0,127.92c-14.91,16.44-37.16,27-60.42,27a85.3,85.3,0,0,1-61.94-27c-15.67-16.43-25-38.93-25-64a92.43,92.43,0,0,1,25-64,84.35,84.35,0,0,1,61.94-27.05A81.84,81.84,0,0,1,488.7,211.56Zm-3.28,64a65.51,65.51,0,0,0-17.19-44.24c-10.62-11.38-24.78-17.95-40-17.95a55,55,0,0,0-40.95,17.95c-10.62,11.12-17.2,27-17.2,44.24s6.58,33.12,17.2,44c10.61,11.38,24.77,18.2,40.95,18.2,15.17,0,29.33-6.82,40-18.2A64.4,64.4,0,0,0,485.42,275.52Z"/><g class="cls-9"><path class="cls-7" d="M559.69,304l-.27-.09-.24-.09-4.82-1.68-.29-.09-2.75-1L551,301l-4.36-1.52-.36-.13-2.67-.93-.39-.13h0l-5-1.74-.42-.16-3-1.05-.48-.16-3.75-1.31-.5-.17-3.31-1.15-.53-.18-4.55-1.59-.47-.17-3.47-1.2-.46-.16-3.32-1.15-.39-.14-3.8-1.33-.38-.13-3.29-1.14-.32-.12-4.64-1.61-.33-.12-4.87-1.69-.26-.1-3.74-1.3-.24-.08-4.83-1.69-.21-.07-4.08-1.41-.18-.07-4.27-1.48,4.07-1.31.17,0L487,272.7l.21-.06,4-1.3.24-.07,5.13-1.65.28-.1,3.44-1.1.31-.1,7.55-2.43.37-.12,1.89-.61.4-.12,7.37-2.37.45-.15h0l1.62-.52.48-.15,7.58-2.43h0l.58-.18,1.7-.55.55-.18,8-2.56.58-.18.93-.3.54-.18,8.78-2.82.51-.16h0l.8-.25.47-.15,8.73-2.81c.07.24.15.49.22.74h0c.07.21.13.41.19.61v0l0,.18h0c.08.25.15.5.22.74a91.54,91.54,0,0,1,3.2,19h0c0,.25,0,.5,0,.77h0a81.09,81.09,0,0,1,0,8.82c0,.57-.06,1.12-.11,1.69v0A93,93,0,0,1,559.69,304Z"/><path class="cls-10" d="M482.33,274.22l.21,2.91-.18-.07-.2-2.79ZM487,272.7l-.4,5.84.21.07.4-6Zm4.46-1.43-.24.07.42,9,.24.08Zm5.13-1.65-1,12.06.26.1,1-12.26Zm4-1.3-.31.1.44,15.05.33.12Zm6.31,7.34-1.21,9.54.32.12,1.23-9.61,1.27-9.94-.37.12Zm3.9-10.62-.4.12-1.1,21.3.38.13Zm2.68,22.88.39.14,4.75-25.54-.45.15ZM520.29,262l-3,27.22.46.16,3.07-27.53Zm8.06-2.58-7.18,31.16.47.17,7.29-31.52-.58.18Zm2.28-.74-4.44,33.66.53.18,4.46-34Zm8.51-2.74L530,293.66l.5.17,9.19-38.08Zm1.51-.48-6.37,39.69.48.16,6.43-40Zm9.32-3-12.2,43.9.42.16,12.29-44.22Zm1.31-.42-8.06,46.22h0l.39.13,8.14-46.51Zm9.6-1.6c-.06-.2-.12-.4-.19-.61l-14.41,49.5.36.13,14.24-49Zm0,.21L551,301l.32.1,9.83-49.69C561.08,251.14,561,250.89,560.93,250.64Zm3.47,20.51c0-.27,0-.52,0-.77L554.07,302l.29.09,10-31Zm0,8.83-5.19,23.83.24.09,4.84-22.2v0C564.31,281.1,564.35,280.55,564.37,280Z"/><polygon class="cls-11" points="559.68 303.99 552.77 303.24 471.18 274.83 478.1 275.57 559.68 303.99"/><polygon class="cls-11" points="478.1 275.57 471.18 274.83 553.56 248.33 560.48 249.07 478.1 275.57"/></g><g class="cls-9"><path class="cls-4" d="M432.47,186.75l-.58,88.87,83.43-26.92C503.61,211.27,471.15,187,432.47,186.75Z"/><path class="cls-12" d="M435,186.8l-2.58,4.37v-.52l2.29-3.86Zm2.65.13-5.27,11.73v.69L438,187Zm9.62,1.13-15,24.56v.64l15.35-25.14Zm2.08.39L432.23,225v.89l17.51-37.41Zm8.17,10.44L462.2,192a4.09,4.09,0,0,0-.42-.16l-4.58,6.8-13.7,20.26-11.34,16.77v.74l11.69-17.28Zm5.26-6.66L432.1,246v1l31.14-54.52Zm10.45,4.71L432.07,251v.82l41.66-54.62Zm1,.51L432,262v1l42.69-65.35C474.53,197.63,474.37,197.55,474.22,197.45Zm9,5.75L432,264.72v.93l51.75-62.08C483.56,203.44,483.38,203.32,483.21,203.2Zm1.07.79-47.84,70.16,1-.32,47.32-69.46Zm7.84,6.69L438.79,273.4,440,273l52.59-61.9Zm.88.85-41.93,57.9.92-.29L493.43,212C493.28,211.83,493.14,211.67,493,211.53Zm6.88,7.71L455.45,268l1.07-.35,43.69-48Zm1.08,1.4-32,43,.8-.26,31.57-42.34Zm5.5,8.16-30.38,32.57.88-.29,29.72-31.9C506.61,229.05,506.54,228.92,506.46,228.8Zm.82,1.39-22,28.2.66-.21,21.55-27.6Zm4.61,9.22-15.19,15.3.74-.24L512,239.74A3.27,3.27,0,0,1,511.89,239.41Zm.78,1.89-9.08,11.19.56-.18,8.66-10.66A2.55,2.55,0,0,0,512.67,241.3Z"/><path class="cls-8" d="M431.89,275.62l-83.41,26.93a87.71,87.71,0,0,0,82.82,62,86.13,86.13,0,0,0,27.1-4.2C486,351.4,505.82,331.57,515,303.63Z"/><path class="cls-8" d="M348.48,302.55l-7-.05a87.7,87.7,0,0,0,82.82,62l6.95,0A87.71,87.71,0,0,1,348.48,302.55Z"/><g class="cls-13"><path d="M348.48,302.55l-7-.05a87.7,87.7,0,0,0,82.82,62l6.95,0A87.71,87.71,0,0,1,348.48,302.55Z"/></g><path class="cls-14" d="M352.29,301.31l-1,9a.47.47,0,0,1-.05-.1l1-8.9Zm9.43-3-7,19.35,0,.08,7-19.47Zm3.35-1.08-4.24,30.34.09.13,4.25-30.51Zm6-1.94-8.84,34.16.08.12,8.91-34.33Zm2.34-.75-4.67,42.64a.75.75,0,0,0,.15.16l4.67-42.85Zm7.05-2.28-10.33,46.35.15.16,10.39-46.58Zm1.72-.56L378,345.62l.23.17,4.2-54.19Zm-2.93,54.94a1.12,1.12,0,0,0,.22.16l9.73-57.37-.29.11Zm11.95-57.85-.76,65.12a2.27,2.27,0,0,0,.31.17l.73-65.38Zm.2,65.64a1.77,1.77,0,0,0,.31.15l7.58-68.41-.36.13Zm9.55-68.79-.36.13.58,73.1.4.16Zm1,73.52.39.15,6.07-76.08-.44.15Zm7.77-76.35-.44.14,2.41,79.18a3.72,3.72,0,0,0,.48.11Zm2.85,79.53a4.31,4.31,0,0,0,.49.11l5.6-82.52-.53.17ZM423.63,364l-3.74-84.48-.53.18,3.7,84.4.57.06h0l.57.05,2.94-87-.63.2Zm11.2-.06-6.33-87.2-.61.2,6.38,87.57a5.06,5.06,0,0,0,.55,0,.06.06,0,0,0,.06,0l.53,0,2.06-86.95-.57-.18Zm3.75-86-.57-.18,7.93,85.65a4.33,4.33,0,0,0,.5-.08Zm6.26,2.12,1.6,83.27a4.37,4.37,0,0,0,.5-.09l-1.63-83Zm1.52.5-.49-.17,12.27,80.08.26-.08.14-.05Zm11.45,64.35L456,321.5l-3-38.74-.39-.14,3,38.9,1.79,23.35.89,11.67.29,3.72.4-.14-.27-3.6Zm-3.37-61.62-.42-.14,17.12,72.09.31-.16Zm9.32,3.14,8.42,68.28.31-.15-8.43-68Zm1.69.57-.32-.11L481,349.44l.23-.15Zm20.72,7,5.74,46.86.16-.16L486.34,294Zm2,.68-.16-.06,12.08,37.26a1.27,1.27,0,0,0,.11-.13Zm-13.6-4.6,8,58.39a.83.83,0,0,0,.23-.15l-8-58.15Zm7.81,21.66-5.4-19-.58-2.05-.23-.08.61,2.19,5.4,19,8.58,30.1.16-.12Zm11.4-15.17L501,330.61l.09-.13-7.21-34Zm1.76.59-.13-.05,10.23,26.79s.06-.05.06-.09Zm5.4,1.82L506.73,322s0-.06,0-.1l-5.77-23Zm3,1-.07,0,7.38,13.4,0,0Zm5.41,1.83,3.15,8.62,0,0-3.13-8.57Zm5.05,1.71,0,0a7.12,7.12,0,0,1,.46.66,0,0,0,0,0,0,0C514.67,303.85,514.53,303.64,514.38,303.44Z"/><path class="cls-4" d="M432.47,186.75c-48.33-.31-87.77,39.22-88.09,88.3a85.75,85.75,0,0,0,4.1,27.5l83.41-26.93Z"/><path class="cls-4" d="M432,257.17v.67L355,233.25l.29-.57Zm-77.55-23L432,267.44v-.63l-77.21-33.14A4.58,4.58,0,0,0,354.46,234.21Zm7.15-11.52a3.08,3.08,0,0,0-.37.52l70.83,24.84v-.6Zm-1.06,1.47L432,255.68V255l-71.12-31.33C360.79,223.81,360.66,224,360.55,224.16Zm18.07-19-.37.3,54,21.13v-.41Zm-1.9,1.53,55.44,27.56v-.51l-55.08-27.35C377,206.43,376.84,206.54,376.72,206.64Zm-7,6.5a5,5,0,0,0-.4.4l62.87,23V236ZM368,214.93l64.12,30.94v-.62l-63.75-30.71Zm37-23.87-.33.09,27.74,13.71v-.25ZM401,192.43l31.28,19.17v-.33l-30.95-19Zm-11.32,5.32a2.08,2.08,0,0,0-.36.2l42.93,17.79v-.33Zm-2.76,1.6,45.28,24.27v-.4L387.3,199.15Zm32.83-11.76-.26,0,12.9,6.88v-.16Zm-5.83,1,18.43,12.64V201l-18.17-12.45A.71.71,0,0,0,414,188.64Zm14.4-1.81a1.47,1.47,0,0,0-.21,0l4.31,3.18v-.16Zm-83.65,97,34.86,8.72.44-.15-35.32-8.85C344.69,283.62,344.69,283.71,344.7,283.8Zm-.13-1.87c0,.1,0,.19,0,.29l47.27,6.32.66-.21Zm1.92,13.27,13.59,3.6.32-.1-14-3.7Zm-.23-1a.65.65,0,0,0,.05.2l20.76,2.17.49-.15Zm-1.8-22.35L399,286.24l.56-.18-55.07-14.58C344.46,271.58,344.46,271.7,344.46,271.82Zm.08-1.49c0,.12,0,.23,0,.36l70.08,10.51.83-.27ZM360,261.05l-11.66-3.67-2-.62a3.25,3.25,0,0,0-.08.43l1.93.61,11.66,3.65,23.33,7.35,35.34,11.13.65-.22-35.87-11.3Zm-13.5-4.9a3.2,3.2,0,0,0-.1.42l83.76,19.61.86-.28Zm3.2-11.09,81.4,30.81.73-.23-81.95-31.07A4.84,4.84,0,0,0,349.7,245.06Zm.46-1.24a4.4,4.4,0,0,0-.18.51l82,24.43v-.59Z"/><path class="cls-4" d="M432.47,186.75l-7,0c-48.33-.32-87.78,39.22-88.1,88.29a85.72,85.72,0,0,0,4.11,27.5l7,.05a85.75,85.75,0,0,1-4.1-27.5C344.7,226,384.14,186.44,432.47,186.75Z"/></g><path class="cls-8" d="M86.55,507.32s21.53-39.65,15.28-78.09-13-52.13-13-52.13S55,436.89,86.55,507.32Z"/><path class="cls-12" d="M77.71,445A187.7,187.7,0,0,0,86,477c.06-14.11.33-28.21.71-42.32a109,109,0,0,1-4.07-26.27c0-.26.38-.24.4,0A149.87,149.87,0,0,0,86.84,431q.48-17.46,1.13-34.91a.16.16,0,0,1,.31,0c0,18.17,0,36.35-.13,54.53a145,145,0,0,0,6.21-21.59.07.07,0,0,1,.13,0c-.65,8.48-3.23,16.69-6.36,24.57-.08,11.62-.21,23.24-.47,34.86,3.65-12.35,7.54-24.32,8.59-37.37,0-.18.28-.17.27,0-.28,14.4-4,29-8.74,42.55a.72.72,0,0,1-.24.34q-.17,6.38-.37,12.74a.48.48,0,0,1-1,0c-.17-8.69-.22-17.37-.21-26.06-4.84-11.17-7.41-23.62-8.49-35.69C77.51,444.9,77.69,444.88,77.71,445Z"/><rect class="cls-6" x="68.46" y="24.35" width="661.16" height="47.95"/><path class="cls-15" d="M729.62,72.3c-.18-.34-662,1-661.52,0l0-48V24c.16,0,661.44.24,661.59.37l0,47.95Zm0,0,0-47.95c.27-.2-662.66,1-660.74,0V72.3c-2.14-1,661.22.36,660.8,0Z"/><rect class="cls-12" x="80.28" y="33.78" width="1.29" height="29.1"/><path class="cls-16" d="M653.6,119.42c-4.8,35.36-13.64,70.68-19.43,76.23-9,8.6-58.86,20.77-75,21.57-5.27.27-9.86-35.4-5.62-39.13s57.82-13,60.78-14.79c1.58-1,14.61-28.17,24.64-46.39C648.31,100,655.06,108.69,653.6,119.42Z"/><path class="cls-8" d="M577.36,216.24l-6.4-45s37.95-8.58,42.52-10c1.93-.61,18.23-34.22,26.07-48.62,5.16-9.47,15.75-12.54,15.26,8.29-.29,12.19-10.1,69.5-19.6,77.41C627.65,204.57,577.36,216.24,577.36,216.24Z"/><path class="cls-12" d="M585.39,212.06c0-3.28-2-16.71-2.55-20.05s-3.19-16.65-3.76-20.08c0-.19-.31-.2-.28,0,.51,3.4,2.11,17,2.63,20.29s2.71,16.71,3.78,19.87A.09.09,0,0,0,585.39,212.06Z"/><path class="cls-4" d="M591.16,559l68.59-1s-13.59-164.26-13-167.41c.72-4.05,49.38-194.84,49.38-194.84H630.65S579,373.56,577.18,390.7C574.18,418.37,591.16,559,591.16,559Z"/><rect class="cls-7" x="575.04" y="144.6" width="16.44" height="103.33" transform="translate(1165.06 -4.31) rotate(142.38)"/><g class="cls-17"><path class="cls-6" d="M472,159.92a89.84,89.84,0,1,1,68.16-8.36A89.85,89.85,0,0,1,472,159.92Z"/></g><path class="cls-4" d="M467.91,174.51a104.89,104.89,0,1,1,129.15-73A105,105,0,0,1,467.91,174.51Zm3.22-11.58A92.87,92.87,0,1,0,406.52,48.58,93,93,0,0,0,471.13,162.93Z"/><path class="cls-12" d="M602.57,55.76A108,108,0,1,0,467.06,177.52a108.15,108.15,0,0,0,133-75.14A107.24,107.24,0,0,0,602.57,55.76ZM451.88-4.65A89.73,89.73,0,1,1,472,159.92,89.85,89.85,0,0,1,409.53,49.43,89.14,89.14,0,0,1,451.88-4.65Z"/><path class="cls-16" d="M663,244.51c-12.19,10.29-26.75,23.83-44.49,26.85a8.94,8.94,0,0,1-5.78-.81c-7.93,1.49-11-1.8-11-1.8-7.82-.87-10.51-4.68-10.51-4.68s-9.33,1.66-11.26-3.81c-2.19-6.13,11.34-7.26,18.4-12.42,16.18-11.84,35.87-33.19,40.19-37.07Z"/><path class="cls-16" d="M589.2,205.84c.16-5.47-6.38-2.54-6.38-2.54s8.39-6.49,6.38-12.2c-2-5.49-9.73-1.66-10.29-1.4.44-.35,8-6.52,5.39-12-2.72-5.74-9.87-.56-10.33-.22.32-.46,4.36-6.6,1.42-10.35-5.06-6.43-18.08,10.14-24.65,11L542,169.4a16.45,16.45,0,0,1,.28,9.32c-1,4.47-1.75,7.44-1,10.22a6,6,0,0,0,5.38,4.72s-3.91,4.29-2,8.7c1,2.26,5.49,2.69,5.49,2.69s-3,3.56-1,7.38c1.55,3.06,5.82,3,5.82,3s-1.28,4.76,1.31,7.36C561.43,228.07,588.84,217.55,589.2,205.84Z"/><path class="cls-16" d="M548.43,176.42l-6.27-6.82c-.29-.2-.59-.41-.88-.58-10.06-6.25-24.39-1.23-18.77,5.14,4.27,4.86,15.13,3.21,18.78,8.82v0Z"/><path class="cls-12" d="M555.57,215.54a.08.08,0,0,0,0,.15c9.86-1.26,20.3-5.66,27.59-12.51.24-.22,0-.71-.33-.51C574,208.29,565.69,212.56,555.57,215.54Z"/><path class="cls-12" d="M550,205.16c-.11,0,0,.21.07.2,10.15-1.35,21.78-6.64,29.25-15.52.25-.3.18-.83-.14-.5C573.75,194.86,559.11,202.53,550,205.16Z"/><path class="cls-12" d="M574.28,176.64c-7.49,8.23-16.87,13.24-27.25,17-.13.05,0,.24.08.23,5.57-.46,11.93-3.54,16.68-6.36a29.31,29.31,0,0,0,10.78-10.6C574.67,176.72,574.44,176.46,574.28,176.64Z"/></g></svg>