<svg id="Слой_1" data-name="Слой 1" xmlns="http://www.w3.org/2000/svg" viewBox="0 0 581.13 402.55"><defs><style>.cls-1{fill:#4a148c;}.cls-2,.cls-8{fill:#fff;}.cls-3{fill:#c8c8c8;}.cls-4{fill:#306;}.cls-11,.cls-12,.cls-14,.cls-15,.cls-5{fill:none;stroke-miterlimit:10;}.cls-5{stroke:#ffc800;}.cls-6{fill:#ffc800;}.cls-20,.cls-7{opacity:0.1;}.cls-8{opacity:0.5;}.cls-17,.cls-9{opacity:0.2;}.cls-10{opacity:0.6;}.cls-11,.cls-12{stroke:#1a2e35;stroke-width:0.75px;}.cls-12{stroke-dasharray:3.97 4.96;}.cls-13{opacity:0.3;}.cls-14,.cls-15{stroke:#fff;}.cls-15{stroke-width:0.5px;}.cls-16{fill:#1a2e35;}.cls-18{fill:#ececec;}.cls-19{fill:#ff9abd;}.cls-21{fill:#c26358;}.cls-22{fill:#e1574d;}</style></defs><rect class="cls-1" x="451.19" y="-51.12" width="73.33" height="88.94"/><rect class="cls-2" x="459.57" y="-43" width="56.57" height="72.71"/><rect class="cls-3" x="459.57" y="-43" width="2.21" height="72.71"/><rect class="cls-4" x="524.52" y="-51.12" width="2.21" height="88.94"/><rect class="cls-1" x="478.53" y="-26.19" width="13.34" height="39.74"/><rect class="cls-1" x="342.8" y="-51.12" width="73.33" height="88.94"/><rect class="cls-2" x="351.18" y="-43" width="56.57" height="72.71"/><rect class="cls-3" x="351.18" y="-43" width="2.21" height="72.71"/><rect class="cls-4" x="416.13" y="-51.12" width="2.21" height="88.94"/><rect class="cls-1" x="373.99" y="-24.21" width="11.43" height="28.89"/><rect class="cls-5" x="366.75" y="-6.65" width="30.7" height="19.92"/><path class="cls-6" d="M475.5,209.69c-1.33,15.26-3.15,30.9-7.17,45.7-.13.49-.89.27-.82-.21,2.49-17.41,5.34-34.61,6.42-52.2q.29-4.54.46-9.08c-.47-22.7-23.65-22.84-33.11-43.28s6.42-41,6.42-41S436.61,106,431.85,91.22,454.32,15.8,454.32,15.8c-.12-.55.72-.66.85-.13,4.39,17.41,8.57,34.83,11.8,52.5,5.74,31.39,9.49,63.2,10.07,95.13A435.26,435.26,0,0,1,475.5,209.69Z"/><path class="cls-4" d="M473.58,154.73a.53.53,0,0,0,0-.33C472.13,112.23,466.64,70,455.8,29c0-.12-.23-.09-.2,0q6,27.45,10.22,55.12c-3-3.4-7.06-5.47-11.32-7a.07.07,0,0,0-.05.12c4.41,2.16,8.62,4.62,11.63,8.58.54,3.61,1.07,7.23,1.56,10.85-5.16-6.34-12.56-9.71-20-12.93-.11,0-.17.11-.07.16C455.31,87.47,463,92,468,99q2.06,15.51,3.43,31.1a29.32,29.32,0,0,0-14.12-9c-.17,0-.27.19-.1.25a30.7,30.7,0,0,1,14.27,10.12.65.65,0,0,0,.09.08q.48,5.47.87,11a37.32,37.32,0,0,0-9.89-6.62.08.08,0,0,0-.06.15,35.11,35.11,0,0,1,9.87,7.23.24.24,0,0,0,.13,0c.24,3.48.48,7,.67,10.45a49.53,49.53,0,0,0-19.95-15.71c-.16-.07-.25.17-.1.24a54,54,0,0,1,19.61,16.61.43.43,0,0,0,.5.19q.42,8,.64,16c0,.08.12.09.12,0C473.89,165.68,473.76,160.2,473.58,154.73Z"/><path class="cls-4" d="M457.91,71.12c-4.09-3.1-9.39-4.59-14.41-5.24-.12,0-.14.16,0,.18,5.2,1,9.51,3.13,14.23,5.4C457.92,71.56,458.08,71.26,457.91,71.12Z"/><path class="cls-4" d="M457.79,136.68A31,31,0,0,0,447,132.41c-.13,0-.15.18,0,.21a40.93,40.93,0,0,1,10.68,4.32C457.79,137,457.93,136.77,457.79,136.68Z"/><path class="cls-6" d="M553.8,81.43s-5.67,40.68-10.87,47.34c-5.07,6.5-20.91,2.45-21.73,2.24.72.39,13.16,7.29,11,15-2.25,7.91-13.21,15.67-26.38,26.79a151.93,151.93,0,0,0-22.7,24.46l0-.21a253.66,253.66,0,0,0-3.78,63.51.43.43,0,0,1-.85.09,195.8,195.8,0,0,1-.53-45.33,250.77,250.77,0,0,1,21.44-78.72,101.2,101.2,0,0,1,22.53-31.75,162.65,162.65,0,0,1,28.13-21l0,0C552.43,82.24,553.8,81.43,553.8,81.43Z"/><path class="cls-7" d="M553.8,81.43s-5.67,40.68-10.87,47.34c-5.07,6.5-20.91,2.45-21.73,2.24.72.39,13.16,7.29,11,15-2.25,7.91-13.21,15.67-26.38,26.79a151.93,151.93,0,0,0-22.7,24.46l0-.21a253.66,253.66,0,0,0-3.78,63.51.43.43,0,0,1-.85.09,195.8,195.8,0,0,1-.53-45.33,250.77,250.77,0,0,1,21.44-78.72,101.2,101.2,0,0,1,22.53-31.75,162.65,162.65,0,0,1,28.13-21l0,0C552.43,82.24,553.8,81.43,553.8,81.43Z"/><path class="cls-4" d="M542.33,91c-13.94,11.55-28,23.93-37,39.89a168.27,168.27,0,0,0-8.24,17v0c-.49,1.18-1,2.35-1.46,3.53a.5.5,0,0,0-.08.2,349.92,349.92,0,0,0-11.88,37c0,.08.1.13.12.05,1.86-6.27,3.86-12.58,6-18.87a.32.32,0,0,0,.19,0,27.2,27.2,0,0,1,8.2-1.36c.18,0,.19-.32,0-.32a29.9,29.9,0,0,0-8.06.78c2-5.67,4.07-11.3,6.36-16.84a85.25,85.25,0,0,1,18.34-.84.05.05,0,0,0,0-.1,68.78,68.78,0,0,0-18,0c.4-1,.81-1.89,1.22-2.84a92.83,92.83,0,0,1,12.24-1c.07,0,.08-.13,0-.13a58.86,58.86,0,0,0-11.94.44c2.08-4.79,4.29-9.49,6.69-14a87.35,87.35,0,0,1,6.72-10.72,71.88,71.88,0,0,1,9.93-.92c.1,0,.1-.15,0-.17a26.75,26.75,0,0,0-9.23.13c1.83-2.46,3.73-4.86,5.75-7.17h0c7-.94,14.06-1.76,21,.15.12,0,.18-.17.07-.21-6.53-2.32-13.25-1.87-20-1.12q1.22-1.35,2.46-2.67a45.3,45.3,0,0,1,13-.93.08.08,0,0,0,0-.15,33.6,33.6,0,0,0-12,.06c6.27-6.57,13.09-12.66,19.83-18.68C542.87,90.93,542.66,90.74,542.33,91Z"/><path class="cls-4" d="M539.63,118.84a27.51,27.51,0,0,0-6.06-.73.22.22,0,0,0,0,.44c2,.23,4,.25,6,.52A.12.12,0,1,0,539.63,118.84Z"/><path class="cls-4" d="M514.27,156.62a27.49,27.49,0,0,0-9.58,1.1c-.08,0-.05.14,0,.13,3.18-.48,6.35-.51,9.54-.76C514.52,157.07,514.54,156.64,514.27,156.62Z"/><path class="cls-4" d="M508.83,142.37a20.1,20.1,0,0,0-4,0c-.13,0-.14.23,0,.24a20.14,20.14,0,0,0,4,.15A.21.21,0,0,0,508.83,142.37Z"/><path class="cls-6" d="M470.08,262.92a.36.36,0,0,1-.72,0A212.66,212.66,0,0,0,462.2,210a127.69,127.69,0,0,0-20.59-19.08c-11.76-8.5-21.46-14.32-23.85-20.81-2.34-6.3,7.68-12.89,8.24-13.25-.65.22-13.7,4.62-18.37-.51s-12.12-39.05-12.12-39.05,1.33.67,3.59,1.94l.06,0a135.13,135.13,0,0,1,24.58,15.63,84.83,84.83,0,0,1,20.92,25.23,210.56,210.56,0,0,1,23,64.69A163.67,163.67,0,0,1,470.08,262.92Z"/><path class="cls-7" d="M470.08,262.92a.36.36,0,0,1-.72,0A212.66,212.66,0,0,0,462.2,210a127.69,127.69,0,0,0-20.59-19.08c-11.76-8.5-21.46-14.32-23.85-20.81-2.34-6.3,7.68-12.89,8.24-13.25-.65.22-13.7,4.62-18.37-.51s-12.12-39.05-12.12-39.05,1.33.67,3.59,1.94l.06,0a135.13,135.13,0,0,1,24.58,15.63,84.83,84.83,0,0,1,20.92,25.23,210.56,210.56,0,0,1,23,64.69A163.67,163.67,0,0,1,470.08,262.92Z"/><path class="cls-4" d="M461.46,203.14c-11.54-29.65-28.35-57.22-53.52-77.1,0,0,0,0,0,0A138.69,138.69,0,0,1,426,144a31.86,31.86,0,0,0-16.37,1.47.1.1,0,0,0,.06.18c5.65-1.19,11-1.78,16.76-.82a.3.3,0,0,0,.19-.05c.86,1,1.7,2.07,2.53,3.12a50.21,50.21,0,0,0-8.67.12.06.06,0,0,0,0,.12,43.26,43.26,0,0,1,9.1.33A186.79,186.79,0,0,1,441.67,166a14.2,14.2,0,0,0-6-.28.12.12,0,0,0,0,.23,33.13,33.13,0,0,1,6.38.67c.69,1.13,1.39,2.26,2.06,3.4a58.06,58.06,0,0,0-18.23-.39c-.09,0-.08.15,0,.14a73.31,73.31,0,0,1,18.65,1c.64,1.1,1.24,2.22,1.86,3.32a39.64,39.64,0,0,0-10.88,0c-.14,0-.12.24,0,.22a41.72,41.72,0,0,1,11.21.46c2.67,4.78,5.19,9.65,7.59,14.55a10,10,0,0,0-4.74-.28c-.08,0-.08.13,0,.13a21.17,21.17,0,0,1,5.07.85q3.22,6.66,6.16,13.37C461,203.73,461.61,203.53,461.46,203.14Z"/><path class="cls-4" d="M441.11,177.27a23.2,23.2,0,0,0-8.75,0c-.09,0-.08.14,0,.14a66.31,66.31,0,0,1,8.69.14C441.24,177.58,441.31,177.31,441.11,177.27Z"/><path class="cls-4" d="M419.25,140.21a14.49,14.49,0,0,0-4-.24c-.16,0-.14.24,0,.24,1.33,0,2.61.22,3.93.33A.17.17,0,0,0,419.25,140.21Z"/><polygon class="cls-4" points="498.19 213.57 488.79 288.72 455.08 288.72 445.68 213.57 498.19 213.57"/><path class="cls-6" d="M162.12,257.77s2.78-26.36-12.44-48.32c-14.79-21.35-63.78-14.4-70.63-45.82-6.49-29.77,22.2-37.25,21.2-61.13S40.84,67.48,49.91-1.17C58.67-67.49,146-103.64,207.35-35.25c28.63,31.94,28.28,73.85,60.4,90s64.68-12.3,95.91,11.84S375.82,139.69,326,148c-40.48,6.76-57.71,7.4-68.48,24.59-12.55,20,2,33.13-9.47,47.63s-35.14,5.08-50.31,10.53c-18.53,6.65-31,29.72-31,29.72Z"/><path class="cls-8" d="M162.12,257.77s2.78-26.36-12.44-48.32c-14.79-21.35-63.78-14.4-70.63-45.82-6.49-29.77,22.2-37.25,21.2-61.13S40.84,67.48,49.91-1.17C58.67-67.49,146-103.64,207.35-35.25c28.63,31.94,28.28,73.85,60.4,90s64.68-12.3,95.91,11.84S375.82,139.69,326,148c-40.48,6.76-57.71,7.4-68.48,24.59-12.55,20,2,33.13-9.47,47.63s-35.14,5.08-50.31,10.53c-18.53,6.65-31,29.72-31,29.72Z"/><path class="cls-6" d="M80,123a112.14,112.14,0,0,0-8.5,19,44.82,44.82,0,0,0-2.27,18.46,35.18,35.18,0,0,0,2,8.89,49.3,49.3,0,0,0,4,8.66c3.23,5.75,7.53,11.21,12,17.14a44.86,44.86,0,0,1-18.59-12.26,38.42,38.42,0,0,1-6.56-9.73c-.42-.91-.85-1.82-1.18-2.77l-1-2.88a41.84,41.84,0,0,1-1.11-6,36.85,36.85,0,0,1,.82-12,39.88,39.88,0,0,1,4.4-10.87,44.87,44.87,0,0,1,7-9A35.59,35.59,0,0,1,80,123Z"/><path class="cls-8" d="M80,123a112.14,112.14,0,0,0-8.5,19,44.82,44.82,0,0,0-2.27,18.46,35.18,35.18,0,0,0,2,8.89,49.3,49.3,0,0,0,4,8.66c3.23,5.75,7.53,11.21,12,17.14a44.86,44.86,0,0,1-18.59-12.26,38.42,38.42,0,0,1-6.56-9.73c-.42-.91-.85-1.82-1.18-2.77l-1-2.88a41.84,41.84,0,0,1-1.11-6,36.85,36.85,0,0,1,.82-12,39.88,39.88,0,0,1,4.4-10.87,44.87,44.87,0,0,1,7-9A35.59,35.59,0,0,1,80,123Z"/><path class="cls-6" d="M232.35,238.33c4.7-1.91,8.92-3.43,12.75-5.22a36.89,36.89,0,0,0,9.72-6.11,24.25,24.25,0,0,0,6.1-8.89c1.57-3.69,2.59-8,4-13A23.33,23.33,0,0,1,269,219.78a21.72,21.72,0,0,1-7.1,14.94,25.47,25.47,0,0,1-14.76,6.33,28.78,28.78,0,0,1-7.6-.28A22.26,22.26,0,0,1,232.35,238.33Z"/><path class="cls-8" d="M232.35,238.33c4.7-1.91,8.92-3.43,12.75-5.22a36.89,36.89,0,0,0,9.72-6.11,24.25,24.25,0,0,0,6.1-8.89c1.57-3.69,2.59-8,4-13A23.33,23.33,0,0,1,269,219.78a21.72,21.72,0,0,1-7.1,14.94,25.47,25.47,0,0,1-14.76,6.33,28.78,28.78,0,0,1-7.6-.28A22.26,22.26,0,0,1,232.35,238.33Z"/><circle class="cls-1" cx="82.52" cy="10.06" r="23.59" transform="translate(-0.07 0.57) rotate(-0.39)"/><path class="cls-1" d="M101.5,24.08a27.65,27.65,0,0,0-5.4-6.79C92.38,13.78,81.15,7.41,76.6,2.64c-6.4-6.71-5.87-11.29-5-13.46a23.6,23.6,0,0,1,8.64-2.59C80-11,79.55-3.21,90.88,6c5.85,4.73,12.82,5.43,15.18,5.66A23.46,23.46,0,0,1,101.5,24.08Z"/><path class="cls-1" d="M88.13,33a23.6,23.6,0,0,1-26.87-12.7,19.42,19.42,0,0,1,4.55-.17c6.49.67,12,5.86,14,8.07A13.87,13.87,0,0,0,88.13,33Z"/><path class="cls-1" d="M99,26.94l-.47.45-.43.39c-.33.29-.67.57-1,.84s-.62.48-.94.71l-.36.24a4.81,4.81,0,0,1-.41.27l-.41.27-.5.3-.5.29-.44.23c-.32.18-.64.33-1,.49h0c-1.53-.07-3.32-.91-5.65-2.94-3.48-3-6.48-8.38-13.29-13.95A29.52,29.52,0,0,0,59,8.27h0A23.42,23.42,0,0,1,64.34-5C65.78-4.51,70.12-2.24,77,9.26a61.09,61.09,0,0,0,7.43,10.19c6.77,7.32,12,7.73,14.42,7.43h0Z"/><path class="cls-4" d="M85.31,29.37c-.62.65-1.9.43-2.86-.49s-1.25-2.2-.63-2.84,1.9-.43,2.87.49S85.93,28.73,85.31,29.37Z"/><path class="cls-4" d="M81,28.64a1.18,1.18,0,0,1-1.64-1.57A1.18,1.18,0,0,1,81,28.64Z"/><path class="cls-4" d="M81.05,26.35a.65.65,0,0,1-.88-.13c-.29-.28-.37-.67-.17-.87a.65.65,0,0,1,.88.12A.66.66,0,0,1,81.05,26.35Z"/><path class="cls-4" d="M67.25,21.22a1.75,1.75,0,0,1-2.4-.28,1.75,1.75,0,0,1-.39-2.39,1.74,1.74,0,0,1,2.39.29A1.75,1.75,0,0,1,67.25,21.22Z"/><path class="cls-4" d="M68.89,18.4a.94.94,0,0,1-1.35-1.28.9.9,0,0,1,1.25,0A.88.88,0,0,1,68.89,18.4Z"/><path class="cls-6" d="M97.09,28.62a189,189,0,0,1-19.15-11A190.16,190.16,0,0,1,59.69,4.16C50.75-3.36,45.68-9.63,47.22-12s9.22-.35,19.45,4.6q-.61.55-1.2,1.17L65-5.77C59.49-8,55.6-8.71,54.66-7.27S56-2.44,60.42,1.81A130.71,130.71,0,0,0,78.71,15.88,130.09,130.09,0,0,0,99,26.94c5.66,2.34,9.65,3.06,10.6,1.6s-1.25-4.72-5.53-8.86a20.27,20.27,0,0,0,.86-2.24c8.88,7.49,14,14,12.47,16.31S107.83,33.94,97.09,28.62Z"/><g class="cls-9"><path d="M97.09,28.62a189,189,0,0,1-19.15-11A190.16,190.16,0,0,1,59.69,4.16C50.75-3.36,45.68-9.63,47.22-12s9.22-.35,19.45,4.6q-.61.55-1.2,1.17L65-5.77C59.49-8,55.6-8.71,54.66-7.27S56-2.44,60.42,1.81A130.71,130.71,0,0,0,78.71,15.88,130.09,130.09,0,0,0,99,26.94c5.66,2.34,9.65,3.06,10.6,1.6s-1.25-4.72-5.53-8.86a20.27,20.27,0,0,0,.86-2.24c8.88,7.49,14,14,12.47,16.31S107.83,33.94,97.09,28.62Z"/></g><path class="cls-6" d="M95.39,29.84A210.75,210.75,0,0,1,76.67,19h0A210.14,210.14,0,0,1,59.2,6.52c-12.51-10-19.85-18.9-17.68-22.26s13-.38,27.15,6.71c-.3.22-.59.44-.87.67-11.91-5.75-20.93-8-22.79-5.13s4,10.32,14.39,18.9a187.17,187.17,0,0,0,17.75,12.9A185.77,185.77,0,0,0,96.32,29.2c12,5.85,21.18,8.16,23.05,5.26s-3.89-10.13-14-18.57c.09-.36.18-.71.25-1.08,12.24,9.9,19.38,18.58,17.24,21.9S109.65,37.05,95.39,29.84Z"/><g class="cls-10"><path class="cls-2" d="M146.16-9.76c-1.39,1.25-3,2.75-4.41,4.2s-2.94,2.95-4.37,4.47c-2.87,3-5.66,6.15-8.3,9.37A134.42,134.42,0,0,0,115,28.63c-7.8,14.28-12.18,30.93-9.54,47.05a58.1,58.1,0,0,0,9.08,22.64,77.64,77.64,0,0,0,17.29,18.14,122.08,122.08,0,0,0,21.87,13.26,195.27,195.27,0,0,0,24,9.52,196.91,196.91,0,0,1-24.74-7.87,125.92,125.92,0,0,1-23.24-12,82.4,82.4,0,0,1-19.57-17.92A64.4,64.4,0,0,1,98.36,77.12a72.34,72.34,0,0,1-.94-27.27,94.27,94.27,0,0,1,3-13.31,108.14,108.14,0,0,1,4.86-12.75A146.58,146.58,0,0,1,119.09.61C121.68-3,124.42-6.56,127.25-10q2.12-2.6,4.34-5.11c1.5-1.7,2.94-3.3,4.64-5.06Z"/><path class="cls-2" d="M120.62,29.72c-1.92,4.91-3.68,9.81-5.22,14.74-.74,2.47-1.49,4.93-2.08,7.43s-1.16,5-1.54,7.51a59.56,59.56,0,0,0-.7,15.13A42.52,42.52,0,0,0,112.51,82a44.13,44.13,0,0,0,2.93,7.19,27.45,27.45,0,0,1-4.58-6.54A32.76,32.76,0,0,1,108.31,75a44.85,44.85,0,0,1-.08-16.13,67.49,67.49,0,0,1,4.54-15.33A63.35,63.35,0,0,1,120.62,29.72Z"/><path class="cls-2" d="M124.79-12.46c-3.63,4.54-7,9.19-10.1,14a145.88,145.88,0,0,0-8.53,14.78c-1.38,2.48-2.45,5.12-3.66,7.69s-2.22,5.23-3.13,7.93c-2.05,5.33-3.42,10.87-5,16.49a66.9,66.9,0,0,1,2.31-17.32l.54-2.14c.18-.71.46-1.39.69-2.09l1.42-4.16c1.16-2.7,2.25-5.44,3.62-8s2.82-5.15,4.35-7.65l2.47-3.63c.84-1.2,1.75-2.35,2.64-3.51A67.17,67.17,0,0,1,124.79-12.46Z"/></g><path class="cls-6" d="M192.54-26c.31.36,5.62,19.42-9.24,33.44C169.63,20.35,147.65,22,147.47,20c-.23-2.49,10.94-7.41,18.54-19.11,2.7-4.14,1.9-11.58,1.9-11.58Z"/><path class="cls-11" d="M96.23,183.45q.1,1,.27,2"/><path class="cls-12" d="M97.63,190.25c8.54,28.8,50.93,66.37,108.32,41.51,61.4-26.6,58.83-128.08,138.86-170.27"/><path class="cls-11" d="M347,60.35l1.79-.89"/><polygon class="cls-6" points="343.89 45.68 335.93 67.53 352.63 54.49 416.49 31.33 343.89 45.68"/><polygon class="cls-7" points="343.89 45.68 335.93 67.53 352.63 54.49 416.49 31.33 343.89 45.68"/><polygon class="cls-6" points="354.77 59.58 335.93 67.53 352.63 54.49 354.77 59.58"/><polygon class="cls-13" points="354.77 59.58 335.93 67.53 352.63 54.49 354.77 59.58"/><polygon class="cls-6" points="352.63 54.49 416.49 31.33 364.11 82.45 352.63 54.49"/><polygon class="cls-6" points="343.89 45.68 317.35 28.55 416.49 31.33 343.89 45.68"/><path class="cls-6" d="M212.18,144.64c2.16,25.58-13,33.44-14.29,40.66-.7,3.9-.73,13.45-.73,13.45l-26.11,5.32s-3.76-8.79-5.94-12.1c-4-6.12-21-7.44-29-31.83-5.27-16,1.8-44.47,29.42-50.09S210.74,127.83,212.18,144.64Z"/><line class="cls-14" x1="178.04" y1="204.42" x2="161.83" y2="164.47"/><line class="cls-14" x1="190.87" y1="201.81" x2="190.16" y2="158.7"/><path class="cls-15" d="M162.82,165.92s3.19,7.82,6.87,7.07,4.67-13.57-.16-12.59,3.08,15.91,9.21,14.66,6.44-17.85,2.14-17-.36,13.26,5.55,12c3.17-.64,3.77-9.26,3.77-9.26"/><rect class="cls-1" x="168.09" y="200.23" width="32.87" height="6.42" transform="translate(-36.88 40.91) rotate(-11.51)"/><rect class="cls-1" x="169.58" y="207.54" width="32.87" height="6.42" transform="translate(-38.31 41.36) rotate(-11.51)"/><rect class="cls-1" x="171.06" y="214.85" width="32.87" height="6.42" transform="matrix(0.98, -0.2, 0.2, 0.98, -39.74, 41.8)"/><path class="cls-16" d="M164.15,105.65a22.76,22.76,0,0,1-2.1-9.43,22.91,22.91,0,0,1,2.1,9.43Z"/><path class="cls-16" d="M143.75,116.09a22.83,22.83,0,0,1-6.54-7.12,23,23,0,0,1,6.54,7.12Z"/><path class="cls-16" d="M131.29,135.33a22.79,22.79,0,0,1-9.22-2.9,23.1,23.1,0,0,1,9.22,2.9Z"/><path class="cls-16" d="M130.13,158.22a22.8,22.8,0,0,1-9.44,2.1,23,23,0,0,1,9.44-2.1Z"/><path class="cls-16" d="M140.57,178.63a23.06,23.06,0,0,1-7.12,6.54,22.83,22.83,0,0,1,7.12-6.54Z"/><path class="cls-16" d="M215.56,162.56a22.94,22.94,0,0,1,9.22,2.9,22.79,22.79,0,0,1-9.22-2.9Z"/><path class="cls-16" d="M216.72,139.67a23.12,23.12,0,0,1,9.44-2.1,23,23,0,0,1-9.44,2.1Z"/><path class="cls-16" d="M206.28,119.27a23.06,23.06,0,0,1,7.12-6.54,23,23,0,0,1-7.12,6.54Z"/><path class="cls-16" d="M187,106.82a22.94,22.94,0,0,1,2.9-9.23,23,23,0,0,1-2.9,9.23Z"/><polygon class="cls-2" points="241.02 133.3 235.33 134.35 234.06 140.35 232.78 134.35 227.09 133.29 232.76 131.91 234.06 126.24 235.35 131.91 241.02 133.3"/><polygon class="cls-2" points="364.43 117.75 358.74 118.8 357.47 124.8 356.2 118.8 350.51 117.75 356.17 116.36 357.47 110.7 358.77 116.36 364.43 117.75"/><polygon class="cls-2" points="123.74 120.68 118.05 121.74 116.78 127.73 115.51 121.74 109.81 120.68 115.48 119.3 116.78 113.63 118.07 119.3 123.74 120.68"/><polygon class="cls-2" points="354.25 90.77 351.07 91.35 350.36 94.71 349.65 91.35 346.46 90.76 349.63 89.99 350.36 86.82 351.08 89.99 354.25 90.77"/><polygon class="cls-2" points="172.57 78.46 169.39 79.05 168.68 82.41 167.97 79.05 164.79 78.46 167.96 77.69 168.68 74.52 169.41 77.69 172.57 78.46"/><polygon class="cls-2" points="256.36 63.19 253.18 63.78 252.47 67.13 251.76 63.78 248.58 63.19 251.74 62.42 252.47 59.25 253.19 62.42 256.36 63.19"/><polygon class="cls-2" points="225.71 198.96 222.53 199.55 221.82 202.9 221.11 199.55 217.93 198.96 221.09 198.18 221.82 195.01 222.54 198.18 225.71 198.96"/><polygon class="cls-2" points="106.06 128.49 102.88 129.08 102.17 132.43 101.45 129.08 98.27 128.49 101.44 127.72 102.17 124.55 102.89 127.72 106.06 128.49"/><polygon class="cls-2" points="102.17 30.33 98.98 30.92 98.27 34.27 97.56 30.92 94.38 30.33 97.55 29.56 98.27 26.39 99 29.56 102.17 30.33"/><path class="cls-2" d="M270.37,142.29a.92.92,0,0,0,0,1.84A.92.92,0,0,0,270.37,142.29Z"/><path class="cls-2" d="M345.35,111a.92.92,0,0,0,0,1.84A.92.92,0,0,0,345.35,111Z"/><path class="cls-2" d="M205.77,3.46a.92.92,0,0,0,0,1.84A.92.92,0,0,0,205.77,3.46Z"/><path class="cls-2" d="M131.51,64a.92.92,0,0,0,0,1.84A.92.92,0,0,0,131.51,64Z"/><path class="cls-2" d="M85.64,47.48a.92.92,0,0,0,0,1.84A.92.92,0,0,0,85.64,47.48Z"/><path class="cls-2" d="M64.13,37.43a.65.65,0,0,0,0,1.3A.65.65,0,0,0,64.13,37.43Z"/><path class="cls-2" d="M204.48,159.05a.65.65,0,0,0,0,1.3A.65.65,0,0,0,204.48,159.05Z"/><path class="cls-2" d="M131.51,178.65a.65.65,0,0,0,0,1.3A.65.65,0,0,0,131.51,178.65Z"/><path class="cls-2" d="M250.76,147.83a1.77,1.77,0,0,0,0,3.54A1.77,1.77,0,0,0,250.76,147.83Z"/><path class="cls-2" d="M111.12,166.65a1.77,1.77,0,0,0,0,3.54A1.77,1.77,0,0,0,111.12,166.65Z"/><path class="cls-1" d="M239.82,121.58A4.8,4.8,0,1,1,236,116,4.8,4.8,0,0,1,239.82,121.58Z"/><rect class="cls-1" x="238.45" y="97.28" width="3.66" height="24.11" transform="translate(24.66 -42.96) rotate(10.77)"/><path class="cls-1" d="M256.37,117.62a4.79,4.79,0,1,1-3.81-5.6A4.79,4.79,0,0,1,256.37,117.62Z"/><rect class="cls-1" x="255" y="93.33" width="3.66" height="24.11" transform="translate(24.2 -46.12) rotate(10.77)"/><polygon class="cls-1" points="260.88 93.93 240.13 100.32 240.73 97.15 261.48 90.77 260.88 93.93"/><polygon class="cls-1" points="259.75 99.9 239 106.29 239.6 103.12 260.35 96.73 259.75 99.9"/><path class="cls-1" d="M139.63,94.78A3.29,3.29,0,1,1,137,90.93,3.29,3.29,0,0,1,139.63,94.78Z"/><rect class="cls-1" x="138.69" y="78.12" width="2.51" height="16.53" transform="translate(18.6 -24.62) rotate(10.77)"/><rect class="cls-1" x="148.96" y="75.64" width="2.51" height="4.78" transform="translate(17.22 -26.69) rotate(10.77)"/><polygon class="cls-1" points="151.78 76.54 139.84 80.21 140.26 78.03 152.19 74.37 151.78 76.54"/><polygon class="cls-1" points="151 80.63 139.06 84.3 139.48 82.13 151.41 78.46 151 80.63"/><path class="cls-1" d="M228.82,181a3.29,3.29,0,1,1-2.62-3.84A3.29,3.29,0,0,1,228.82,181Z"/><rect class="cls-1" x="227.88" y="164.36" width="2.51" height="16.53" transform="translate(36.28 -39.77) rotate(10.77)"/><rect class="cls-1" x="238.15" y="161.88" width="2.51" height="4.78" transform="translate(34.9 -41.83) rotate(10.77)"/><polygon class="cls-1" points="240.97 162.78 229.03 166.44 229.45 164.27 241.38 160.61 240.97 162.78"/><polygon class="cls-1" points="240.19 166.87 228.25 170.53 228.67 168.36 240.6 164.7 240.19 166.87"/><path class="cls-6" d="M241.28,81.47l-2.69-.16c-5.16-6.13-20.52-12.7-19-16,.27-.59,1.21-.86,2.53-1,4.32-.32,12.64,1.26,14.14.11a37.56,37.56,0,0,0,1.49-4.32l0-.13,0-.13h0l-10.64-3.07c-23.82-14.34-71.73-31-87.76-25.4h-3.61l-.16.5a.73.73,0,0,0-.05.2l-1,3.19C126,54.21,234.35,99,240,86.16l.2-.65.87-2.73.41-1.29Zm-34.57-29.6c4.65,1.72,7.85,4.65,7.15,6.55s-5,2.06-9.7.34-7.86-4.65-7.16-6.55S202.05,50.15,206.71,51.87Z"/><path class="cls-6" d="M241.28,81.47c-.11-5.81-14.52-12.55-19.19-17.09-1.13-1.09-1.68-2.06-1.33-2.85,1.24-2.75,16.07.78,17-1.36a.4.4,0,0,0,0-.13.33.33,0,0,0,0-.14c0-.44-.51-1.08-1.59-2-21.3-17.38-92.93-43.15-100.37-26.58l0,.06a4.29,4.29,0,0,0-.19.5.73.73,0,0,0-.05.2C129.66,52.23,235.27,96.17,241,82.9c0,0,0-.08,0-.12l.14-.43A3.3,3.3,0,0,0,241.28,81.47ZM197,52.21c.71-1.91,5.05-2.06,9.71-.34s7.85,4.65,7.15,6.55-5,2.06-9.7.34S196.3,54.11,197,52.21Z"/><path class="cls-17" d="M241.28,81.47c-.11-5.81-14.52-12.55-19.19-17.09-1.13-1.09-1.68-2.06-1.33-2.85,1.24-2.75,16.07.78,17-1.36a.4.4,0,0,0,0-.13.33.33,0,0,0,0-.14c0-.44-.51-1.08-1.59-2-21.3-17.38-92.93-43.15-100.37-26.58l0,.06a4.29,4.29,0,0,0-.19.5.73.73,0,0,0-.05.2C129.66,52.23,235.27,96.17,241,82.9c0,0,0-.08,0-.12l.14-.43A3.3,3.3,0,0,0,241.28,81.47ZM197,52.21c.71-1.91,5.05-2.06,9.71-.34,3.17,1.18,5.66,2.9,6.71,4.5a2.27,2.27,0,0,1,.44,2.05c-.7,1.91-5,2.06-9.7.34a19.55,19.55,0,0,1-4.48-2.32C197.66,55,196.56,53.4,197,52.21Z"/><path class="cls-6" d="M213.42,56.37A18.53,18.53,0,0,0,209,54.05c-4.67-1.72-9-1.57-9.72.33a2.34,2.34,0,0,0,.45,2.06c-2-1.45-3.12-3-2.68-4.23.71-1.91,5.05-2.06,9.71-.34C209.88,53.05,212.37,54.77,213.42,56.37Z"/><path class="cls-1" d="M208.19,65.2a7.66,7.66,0,0,0-4.79.25,2.77,2.77,0,0,0-1.3,4.25c2.25,3.32,10.53,6.43,13.36,2.22C218,68.09,212.32,65.83,208.19,65.2Z"/><path class="cls-6" d="M186.46,63H187a6.24,6.24,0,0,0,1.68-.09,3.5,3.5,0,0,0,1.5-.72,1.61,1.61,0,0,0,.66-.85,2.66,2.66,0,0,0-.56-2.88c-1.06-1.31-2.76-1.86-4.16-2.74-2.05-1.28-3.05-3.26-5.42-4-2.62-.87-6.15-.8-7.65,1.27C169.07,58.4,182.54,62.73,186.46,63Z"/><path class="cls-4" d="M186.4,39.45c1.19,4.11-4.49,4.53-7.07,3.74-2.36-.74-9.74-3.4-7.77-7,1.16-2.2,3.92-1.91,6.3-1C181.34,35.42,185.59,36.63,186.4,39.45Z"/><path class="cls-18" d="M150,32.72c-4.39,2.17-2.05,7.65,1,9.72a36.35,36.35,0,0,0,7.89,3.61c1.74.6,3.83.7,5-1,2.31-3.28-.65-6.21-3.73-8.14C157.39,33.87,153.54,31,150,32.72Z"/><path class="cls-1" d="M204.11,43.16s15-9.55,30.11-20.13S286.34-3.63,287.64-2.82,255.2,21.53,239.16,30.11s-32.81,16.22-32.81,16.22Z"/><polygon class="cls-18" points="204.22 42.33 215.53 34.37 219.22 40.89 206.87 46.66 204.22 42.33"/><path class="cls-4" d="M204.22,42.33c-3.72,0-7.87,0-11.63,4.55-4.53,5.55-9.25,5.65-9.25,5.65s15.17,6.27,23.53-5.87Z"/><path class="cls-6" d="M182.66,52.62c.68-.75,5.08-.86,7.75-3.68,2.52-2.65,10.12,5.19,5.08,5.79C189.76,55.41,181.41,54,182.66,52.62Z"/><path class="cls-19" d="M326.11,135.39s8.46,10,16.71,1.41-2.17-16.63-2.17-16.63Z"/><rect class="cls-6" x="298.15" y="69.16" width="21.05" height="70.03" transform="translate(20.1 255.37) rotate(-46.3)"/><rect class="cls-7" x="298.15" y="69.16" width="21.05" height="70.03" transform="translate(20.1 255.37) rotate(-46.3)"/><g class="cls-20"><path d="M289.92,77.47c15.16,14,31.58,29.72,46.29,44.23-15.16-14-31.59-29.73-46.29-44.23Z"/><path d="M287,80.49c15.16,14,31.59,29.72,46.29,44.23C318.16,110.69,301.74,95,287,80.49Z"/><path d="M284.15,83.5c15.16,14,31.59,29.73,46.29,44.24-15.16-14-31.58-29.73-46.29-44.24Z"/><path d="M281.27,86.52c15.16,14,31.58,29.73,46.29,44.23C312.4,116.72,296,101,281.27,86.52Z"/></g><rect class="cls-1" x="320.12" y="123.88" width="24.58" height="5.97" transform="translate(11.04 279.55) rotate(-46.3)"/><rect class="cls-1" x="315.36" y="119.32" width="24.58" height="5.97" transform="translate(12.86 274.7) rotate(-46.3)"/><path class="cls-2" d="M290.64,72.37l-16.42-4.73-5.41-1.58,1.79,5.36,5.48,16.19,3.68.57s-.76-3.55-.77-3.62l3.69.57s-.77-3.55-.77-3.61l3.65.6s-.74-3.59-.74-3.65l3.65.6s-.74-3.58-.74-3.65l3.65.61S290.64,72.44,290.64,72.37Z"/><polygon class="cls-4" points="274.22 67.64 268.81 66.06 270.61 71.42 274.22 67.64"/><polygon class="cls-6" points="169.15 430.51 57.73 401.17 5.89 428.96 114.88 465.27 169.15 430.51"/><path class="cls-2" d="M162.24,430,112.55,462,10.41,428l50.12-26.61s30.56,4,32,4.46,14.9,6,14.9,6,18.91,3.29,20.2,3.72S162.24,430,162.24,430Z"/><path class="cls-21" d="M574.43,231.84c-3-2.15-98.41-31.76-102.75-30.59-.48.14-1.48,4.43-5.79,15.08-.21.5-45.61,55.54-45.61,55.54l62.14,32.79,35.46-50s44.36-8.41,49-10.2S577.41,234,574.43,231.84Z"/><path class="cls-6" d="M574.43,231.84c-3-2.15-98.41-31.76-102.75-30.59-.48.14-1.48,4.43-5.79,15.08-.21.5-6.42,7.71-9.47,11.64,4,3.39,42.08,30.31,52.55,39.25l8.91-12.56s44.36-8.41,49-10.2S577.41,234,574.43,231.84Z"/><path class="cls-2" d="M489.85,210.53a14.71,14.71,0,0,1-1.83,3,15.1,15.1,0,0,1-5.47,4.43,14.2,14.2,0,0,1-7,1.26,16.78,16.78,0,0,1-6.74-2.15c-.12-.06,0-.24.11-.17,3.91,2.16,9.29,1.8,13.18-.24a14.35,14.35,0,0,0,4.9-4.19,16.29,16.29,0,0,0,1.59-2.74,11.52,11.52,0,0,0,.56-1.48c.17-.51.21-.94.7-1.23a.52.52,0,0,1,.69.2C491.1,208.08,490.2,209.73,489.85,210.53Z"/><path class="cls-2" d="M554.34,247.33a10.88,10.88,0,0,1-5.16-4.05,28,28,0,0,1-3.45-6.1,27.19,27.19,0,0,1-1.87-6.62,29,29,0,0,1-.31-3.35,11.44,11.44,0,0,1,.2-3.41.2.2,0,0,1,.39,0,27.54,27.54,0,0,1,.27,3c.13,1.12.3,2.22.53,3.32a35.13,35.13,0,0,0,1.93,6.26,21.07,21.07,0,0,0,7.84,10.09A.47.47,0,0,1,554.34,247.33Z"/><path class="cls-2" d="M509,255.68c-11.6-8.37-23.14-16.83-34.83-25.08-3.31-2.34-6.6-4.72-9.95-7-.11-.07,0-.23.13-.16a397.63,397.63,0,0,1,35.56,24.09c3.22,2.48,6.35,5.08,9.46,7.7A.3.3,0,0,1,509,255.68Z"/><path class="cls-2" d="M465.31,225.45a.58.58,0,0,1-.18.23,2.4,2.4,0,0,1-.26.18c-.16.12-.33.23-.5.34-.35.23-.71.46-1.08.67-.72.41-1.46.78-2.2,1.14-.11.05-.2-.11-.1-.17.7-.43,1.38-.89,2.05-1.36l1-.67.52-.36a1.27,1.27,0,0,1,.54-.28A.21.21,0,0,1,465.31,225.45Z"/><path class="cls-2" d="M470.72,229.44a.66.66,0,0,1-.17.23l-.26.18-.5.34c-.36.23-.72.46-1.09.67-.72.41-1.45.78-2.2,1.15-.1.05-.2-.12-.1-.18.7-.43,1.38-.89,2.06-1.36l1-.67.52-.36a1.27,1.27,0,0,1,.54-.28A.21.21,0,0,1,470.72,229.44Z"/><path class="cls-2" d="M476.13,233.43a.66.66,0,0,1-.17.23c-.08.07-.18.12-.26.18l-.5.34c-.36.23-.71.46-1.08.67-.73.41-1.46.79-2.21,1.15-.1.05-.2-.12-.1-.18.7-.43,1.38-.89,2.06-1.36l1-.67.53-.36a1.18,1.18,0,0,1,.53-.28C476.06,233.13,476.21,233.3,476.13,233.43Z"/><path class="cls-2" d="M481.54,237.42a.66.66,0,0,1-.17.23,1.51,1.51,0,0,1-.26.18l-.5.34c-.35.24-.71.46-1.08.67-.72.41-1.46.79-2.21,1.15-.1,0-.2-.12-.1-.18.7-.43,1.39-.89,2.06-1.36l1-.67.53-.36a1.3,1.3,0,0,1,.53-.28C481.48,237.12,481.62,237.29,481.54,237.42Z"/><path class="cls-2" d="M487,241.41a.68.68,0,0,1-.18.23,2.48,2.48,0,0,1-.26.19l-.5.33c-.35.24-.71.46-1.08.67-.72.41-1.46.79-2.2,1.15-.11.05-.2-.12-.1-.18.7-.43,1.38-.89,2.05-1.36l1-.67.52-.36a1.27,1.27,0,0,1,.54-.28A.21.21,0,0,1,487,241.41Z"/><path class="cls-2" d="M492.37,245.4a.66.66,0,0,1-.17.23l-.27.19-.49.33c-.36.24-.72.46-1.09.67-.72.41-1.46.79-2.2,1.15-.11.05-.2-.12-.1-.18.7-.43,1.38-.89,2.06-1.36l1-.67.52-.36a1.27,1.27,0,0,1,.54-.28A.21.21,0,0,1,492.37,245.4Z"/><path class="cls-2" d="M497.78,249.39a.81.81,0,0,1-.17.24l-.26.18-.5.33c-.36.24-.72.46-1.09.67-.72.41-1.45.79-2.2,1.15-.1,0-.2-.12-.1-.18.7-.43,1.38-.89,2.06-1.35l1-.68.52-.36a1.4,1.4,0,0,1,.54-.28A.21.21,0,0,1,497.78,249.39Z"/><path class="cls-2" d="M503.19,253.39a.91.91,0,0,1-.17.23l-.26.18-.5.33c-.36.24-.71.46-1.08.67-.72.41-1.46.79-2.21,1.15-.1.05-.2-.12-.1-.18.7-.43,1.38-.89,2.06-1.35l1-.68.53-.36a1.22,1.22,0,0,1,.53-.27A.2.2,0,0,1,503.19,253.39Z"/><path class="cls-2" d="M508.6,257.38a.91.91,0,0,1-.17.23l-.26.18-.5.33c-.35.24-.71.47-1.08.68-.72.4-1.46.78-2.2,1.14-.11.05-.2-.12-.1-.18.69-.43,1.38-.89,2-1.35l1-.68.52-.36a1.25,1.25,0,0,1,.54-.27A.19.19,0,0,1,508.6,257.38Z"/><path class="cls-1" d="M500.71,280.27,445.9,237.14s-56.27,71.91-57.23,72.4c0,0-44.19.47-79.9,7.57-6.37,1.27-35.08-15.3-73,16.64l5.71,59.46c59.69,8.54,143-4.31,178.46-15.93C453.41,366.31,500.71,280.27,500.71,280.27Z"/><path class="cls-4" d="M493,285.9c-12.32-10.19-24.77-20.22-37.72-29.61-3.69-2.67-7.49-5.19-11.11-7.94-.13-.09-.26.1-.14.2,3.17,2.46,6.16,5.13,9.27,7.66s6.2,5.05,9.34,7.54c6.26,4.95,12.72,9.63,19.15,14.35,3.67,2.7,7.38,5.35,11.08,8C493,286.19,493.15,286,493,285.9Z"/><path class="cls-4" d="M451,261.12c-9.86,13.12-19.78,26.21-29.59,39.36q-7.37,9.87-14.76,19.72c-2.18,2.89-4.33,5.57-8,6.59a37.16,37.16,0,0,1-5.47.91l-6.1.75c-16.2,2-32.4,4-48.6,6a92.2,92.2,0,0,1-12.19.9,154.77,154.77,0,0,1-17.35-1.49,94.6,94.6,0,0,0-22-1.16c-14.55.93-23.55,5.16-36.69,11.39-1.66.79-3.32,1.61-5,2.45-.14.07,0,.26.12.2a127.81,127.81,0,0,1,43.13-12.34,55,55,0,0,1,16.94.44c3.92.57,7.8,1.44,11.76,1.82a124.77,124.77,0,0,0,17.4-.29c8.14-.86,16.26-2,24.39-3l24.41-3c4-.5,8.11-.92,12.14-1.52,3.35-.49,6.4-1.44,8.82-3.9s4.57-5.86,6.71-8.8c2.48-3.38,5-6.75,7.47-10.13q14.61-19.78,29.09-39.66l3.63-5C451.48,261.18,451.12,260.92,451,261.12Z"/><path class="cls-21" d="M419.45,128c-3.06,2-64.22,81-64.65,85.51,0,.5,3.63,2.94,12.09,10.71.4.37.82,3.45,1.21,8.07,1.45,17.36,2.64,56.58,2.64,56.58l64.07-15.76-10.95-66.79L421,189s7.66-44.49,7.61-49.46S422.51,126,419.45,128Z"/><path class="cls-6" d="M419.45,128c-3.06,2-64.22,81-64.65,85.51,0,.5,3.63,2.94,12.09,10.71.4.37.82,3.45,1.21,8.07,10.48-5.06,42.68-19.93,55.76-26L421,189s7.66-44.49,7.61-49.46S422.51,126,419.45,128Z"/><path class="cls-2" d="M369.86,199.74a14.54,14.54,0,0,1,2.2,2.79,15,15,0,0,1,2.23,6.67,14.12,14.12,0,0,1-1.25,7,17.16,17.16,0,0,1-4.38,5.56c-.1.09-.23-.08-.13-.16,3.4-2.91,4.94-8.08,4.4-12.44a14.47,14.47,0,0,0-2.21-6,15.69,15.69,0,0,0-2-2.45,11.91,11.91,0,0,0-1.19-1c-.42-.33-.81-.52-.91-1.08a.53.53,0,0,1,.43-.58C368,197.72,369.24,199.14,369.86,199.74Z"/><path class="cls-2" d="M426.93,152.24a10.94,10.94,0,0,1-5.61,3.41,28.47,28.47,0,0,1-6.92,1.1,27.71,27.71,0,0,1-6.86-.57,29.82,29.82,0,0,1-3.24-.89,11.57,11.57,0,0,1-3.13-1.38.2.2,0,0,1,.14-.36,27.45,27.45,0,0,1,2.92.8c1.09.27,2.19.5,3.3.67a35.8,35.8,0,0,0,6.54.39,21.24,21.24,0,0,0,12.2-3.81A.47.47,0,0,1,426.93,152.24Z"/><path class="cls-2" d="M419.61,199.69c-12.88,6.23-25.8,12.37-38.62,18.72-3.64,1.8-7.29,3.57-10.9,5.43-.12.06-.19-.13-.08-.19a396.63,396.63,0,0,1,38.1-19.84c3.72-1.65,7.49-3.17,11.27-4.66A.29.29,0,0,1,419.61,199.69Z"/><path class="cls-2" d="M372.24,223.76a.71.71,0,0,1,.13.26l0,.32.06.6c0,.42.07.84.07,1.27,0,.83,0,1.65,0,2.48,0,.12-.19.12-.2,0q-.07-1.23-.21-2.46c-.05-.4-.09-.79-.13-1.19l-.06-.63a1.26,1.26,0,0,1,0-.61A.2.2,0,0,1,372.24,223.76Z"/><path class="cls-2" d="M378.33,220.9a.77.77,0,0,1,.12.26c0,.1,0,.21,0,.31s0,.4.06.6c0,.43.07.85.08,1.28,0,.82,0,1.65,0,2.48,0,.11-.2.12-.21,0,0-.82-.12-1.64-.21-2.45-.05-.4-.08-.8-.12-1.2,0-.21-.05-.42-.07-.63a1.22,1.22,0,0,1,0-.6A.2.2,0,0,1,378.33,220.9Z"/><path class="cls-2" d="M384.41,218a.56.56,0,0,1,.12.26c0,.11,0,.22,0,.32l.06.6c0,.42.06.85.07,1.27,0,.83,0,1.66,0,2.48,0,.12-.2.13-.2,0,0-.82-.13-1.64-.22-2.46l-.12-1.19c0-.21,0-.42-.07-.63a1.39,1.39,0,0,1,0-.61A.2.2,0,0,1,384.41,218Z"/><path class="cls-2" d="M390.5,215.17a.77.77,0,0,1,.12.26,3.16,3.16,0,0,1,0,.32l.06.6c0,.42.07.84.08,1.27,0,.83,0,1.65,0,2.48a.11.11,0,0,1-.21,0c0-.82-.12-1.63-.21-2.45-.05-.4-.08-.8-.12-1.19,0-.22,0-.43-.07-.64a1.22,1.22,0,0,1,0-.6A.2.2,0,0,1,390.5,215.17Z"/><path class="cls-2" d="M396.58,212.31a.77.77,0,0,1,.12.26c0,.1,0,.21,0,.31s0,.4.05.6c0,.43.07.85.08,1.27,0,.83,0,1.66,0,2.49,0,.11-.2.12-.2,0-.05-.82-.13-1.64-.22-2.45l-.12-1.2c0-.21,0-.42-.07-.63a1.35,1.35,0,0,1,0-.6A.2.2,0,0,1,396.58,212.31Z"/><path class="cls-2" d="M402.66,209.44a.71.71,0,0,1,.13.26l0,.32.06.6c0,.42.07.84.07,1.27,0,.83,0,1.65,0,2.48,0,.12-.19.12-.2,0q-.07-1.23-.21-2.46c-.05-.4-.09-.79-.13-1.19l-.06-.64a1.22,1.22,0,0,1,0-.6A.2.2,0,0,1,402.66,209.44Z"/><path class="cls-2" d="M408.75,206.58a.77.77,0,0,1,.12.26c0,.1,0,.21,0,.31s0,.4.06.6c0,.43.07.85.08,1.28,0,.82,0,1.65,0,2.48,0,.11-.2.12-.21,0,0-.82-.12-1.64-.21-2.45-.05-.4-.08-.8-.12-1.2,0-.21,0-.42-.07-.63a1.22,1.22,0,0,1,0-.6A.2.2,0,0,1,408.75,206.58Z"/><path class="cls-2" d="M414.83,203.71a.56.56,0,0,1,.12.26c0,.11,0,.22,0,.32l.06.6c0,.42.06.85.07,1.27,0,.83,0,1.66,0,2.48,0,.12-.2.12-.2,0-.05-.82-.13-1.64-.22-2.46l-.12-1.19c0-.21,0-.42-.07-.63a1.39,1.39,0,0,1,0-.61A.2.2,0,0,1,414.83,203.71Z"/><path class="cls-2" d="M420.92,200.85a.77.77,0,0,1,.12.26,3.16,3.16,0,0,1,0,.32l.06.59c0,.43.07.85.08,1.28,0,.83,0,1.65,0,2.48a.11.11,0,0,1-.21,0c0-.82-.12-1.63-.21-2.45-.05-.4-.08-.8-.12-1.19,0-.22-.05-.43-.07-.64a1.22,1.22,0,0,1,0-.6A.2.2,0,0,1,420.92,200.85Z"/><path class="cls-1" d="M427.12,225l-64.63,13.73s7.75,90.52,7.47,91.56c0,0-38.24,4.32-64.67,2.87,0,0-39.22-19.32-69.56,14l-4.31,58.48C316,416,429.15,411.2,444.16,382.41,460.45,351.14,427.12,225,427.12,225Z"/><path class="cls-4" d="M369.8,329.92c-7.17,0-19.2,1.35-26.37,1.63s-19.45.69-26.55,1.06c-4.1.21-7.52,0-11.6.35a.12.12,0,0,0,0,.24,362.5,362.5,0,0,0,47.42-.83c4.09-.37,13.2-1.34,17.27-1.95C370.17,330.39,370.51,329.92,369.8,329.92Z"/><path class="cls-4" d="M301.25,327a51.27,51.27,0,0,0-8.89-7.81c-.11-.08-.23.1-.14.19a93.08,93.08,0,0,1,8,8.51,78.86,78.86,0,0,1,7.38,9.24.07.07,0,1,0,.11-.07A56.38,56.38,0,0,0,301.25,327Z"/><path class="cls-4" d="M448.65,338.87c-.08-3.2-.36-6.39-.61-9.58-.48-6.32-1.11-12.63-2-18.91-1.7-12.66-3.9-25.23-6.73-37.68-.79-3.48-1.6-7-2.49-10.42a96.22,96.22,0,0,0-3-10.46c-.1-.27-.59-.24-.54.08.46,3.07,1.28,6.11,2,9.13s1.37,6.14,2,9.21q2,9.4,3.64,18.88c2.2,12.55,4,25.16,5.48,37.82.42,3.55.77,7.11,1.15,10.67.19,1.78.91,16,.94,17.84,0,.16.26.15.24,0C448.62,353.86,448.76,343.62,448.65,338.87Z"/><path class="cls-4" d="M369.8,320.09c-.15-1.76-.73-8.51-1.42-9.82,0-.07-.14,0-.16,0-.48,1.49.17,8.44.35,10.2s1.09,9.24,1.43,9.83a.13.13,0,0,0,.22,0C370.47,329.56,370,321.84,369.8,320.09Z"/><path class="cls-4" d="M429.38,349c-.24-11.39-1-22.76-2.17-34.09-2.27-22.36-6-44.56-9.91-66.67-.49-2.71-1-5.43-1.46-8.14,0-.15-.26-.08-.23.07,3.69,22.12,7.49,44.24,10,66.54,1.25,11.07,2.2,22.17,2.68,33.3.22,5.4.36,10.81.33,16.22a61.86,61.86,0,0,1-1.25,13.51,24.88,24.88,0,0,1-5.95,11.83,28.81,28.81,0,0,1-11.48,6.88,103.51,103.51,0,0,1-14.3,3.59q-8,1.58-16.13,2.59c-21.63,2.71-43.5,2.73-65.27,2.3-22.31-.45-44.62-1.28-66.93-1.52-2.8,0-5.59-.07-8.39-.14-.15,0-.14.24,0,.24,11.51.36,23,.86,34.52,1.21s22.8.7,34.2,1c22,.6,44.13.9,66.07-1.43a211.67,211.67,0,0,0,31.53-5.44,42.89,42.89,0,0,0,12.39-5,22.9,22.9,0,0,0,8.45-9.53C430.05,367.89,429.57,358,429.38,349Z"/><path class="cls-4" d="M427.23,235.16c-15.81,2.45-31.57,5.09-47.19,8.54-4.45,1-8.86,2.15-13.32,3-.15,0-.09.26.06.23,3.94-.72,7.92-1.19,11.88-1.83s7.9-1.29,11.84-2c7.86-1.39,15.65-3.12,23.45-4.78q6.69-1.44,13.34-3C427.44,235.36,427.37,235.14,427.23,235.16Z"/><path class="cls-4" d="M162.91,263.5c1.82.21,9.75-.82,15.14,6.32,5.11,6.75,7.17,27.49,8.3,32s7.09,5.1,8.56,10.34c1.27,4.5-2,6.21-2.29,9.53-.23,2.57,2.42,6.39.13,10.23-2.08,3.49-5.85,2.81-8.1,3.93s-3.59,6.38-7.76,7.85-7.94-2.29-10.16-2.24-4.77,6.92-12,6.43-9.46-6.61-12.47-7.78-10.52,1-14-2.66-4.15-8.7-5.73-10.51-4.8-1.48-6.79-5.72,1.94-7,2.44-10.7c.36-2.58-2-4.91-.41-8.87,2.13-5.44,8.77-4.38,11.21-10,1.92-4.38,5.74-23.39,17.12-28.21C153.91,260.13,162.91,263.5,162.91,263.5Z"/><path class="cls-4" d="M186.12,300.74a6.46,6.46,0,0,0,2,2.4l2.39,2a19.66,19.66,0,0,1,4.24,4.36,6.25,6.25,0,0,1,.78,5.5,9.3,9.3,0,0,1-1.48,2.55,10.83,10.83,0,0,0-1.75,2.78,5.32,5.32,0,0,0,.34,3.41c.35,1,.74,1.95,1,2.92a7.42,7.42,0,0,1-.11,5.69,4.25,4.25,0,0,1-2,2,7.89,7.89,0,0,1-2.89.66c-1,.09-2.06.07-3.1.11a5.26,5.26,0,0,0-3,.73,5.52,5.52,0,0,1,3-.42c1,.06,2.08.17,3.14.17a8.34,8.34,0,0,0,3.17-.57,5.1,5.1,0,0,0,2.46-2.24c1.19-2,.94-4.43.33-6.43-.29-1-.67-2-1-3a4.3,4.3,0,0,1-.29-2.68c.59-1.66,2.45-3.17,3.12-5.34a7,7,0,0,0-1-6.37,20.18,20.18,0,0,0-4.65-4.31l-2.55-1.79A7.1,7.1,0,0,1,186.12,300.74Z"/><path class="cls-4" d="M135.62,274.3c-1.94,3.22-3.12,6.79-4.63,10.17-.75,1.7-1.45,3.42-2.32,5a12.18,12.18,0,0,1-1.46,2.22,1.67,1.67,0,0,1-.42.42,2.28,2.28,0,0,1-.5.33c-.39.21-.8.4-1.21.59A52.39,52.39,0,0,0,120,295.5a9.51,9.51,0,0,0-4,4.15,5.9,5.9,0,0,0-.54,2.93,7.48,7.48,0,0,0,.89,2.75,12.09,12.09,0,0,1,1.81,5.19c.21-1.89-.58-3.74-1.28-5.43a7,7,0,0,1-.67-2.56,5.17,5.17,0,0,1,.61-2.48,9.31,9.31,0,0,1,3.76-3.62c1.56-.89,3.29-1.53,5-2.3.43-.2.86-.41,1.28-.65a4,4,0,0,0,1.21-1,13.4,13.4,0,0,0,1.57-2.46,47,47,0,0,0,2.21-5.19l1.85-5.28A46.86,46.86,0,0,1,135.62,274.3Z"/><path class="cls-4" d="M120.69,325.7a9.65,9.65,0,0,1,1.25,3.72c.3,1.3.6,2.6,1,3.9a18.64,18.64,0,0,0,1.45,3.82,8.73,8.73,0,0,0,2.71,3.26c2.56,1.59,5.57,1.36,8.17.84,1.32-.26,2.61-.59,3.91-.82a8.21,8.21,0,0,1,3.91,0,7.75,7.75,0,0,0-4-.54c-1.35.12-2.67.35-4,.5-2.57.31-5.32.39-7.37-.93a7.84,7.84,0,0,1-2.37-2.8,23.87,23.87,0,0,1-1.58-3.57c-.46-1.23-.85-2.5-1.27-3.78-.22-.63-.45-1.26-.71-1.88A3.91,3.91,0,0,0,120.69,325.7Z"/><path class="cls-21" d="M77.68,374.08s-18.38,13.44-19.05,14.4.68,2,1.7,2.8a12.46,12.46,0,0,0,2.22.84c3.56,1.17,9.8,3.37,7.54,7.53-3,5.48-17,.54-19.06-.57A7.43,7.43,0,0,1,49,396.76c-2-3.18-4-8.76-1.91-12.8,2.87-5.54,8.25-9.75,12.67-13.73Z"/><path class="cls-4" d="M77.68,374.08s-18.38,13.44-19.05,14.4.68,2,1.7,2.8a12.46,12.46,0,0,0,2.22.84c-4.83,1.67-10.17,3.49-13.58,4.64-2-3.18-4-8.76-1.91-12.8,2.87-5.54,8.25-9.75,12.67-13.73Z"/><path class="cls-21" d="M103.5,392c-1.28.38-11.62,5.38-19.41,9.15-6-2.92-18.68-7.33-22-8.51-3.5-1.95-12.09-4.13-12.22-3.76-.24.7-1.1,3.15-2.38,6.05-1.69,3.83-4.1,8.44-6.78,10.79-1.46,1.28-3,1.88-4.5,1.35-2.75-.95-.92-7.05.61-14.47,2.07-10.1,5.16-22.41,10-25.06C54,363.66,66.34,365,70,365s18.85-3,18.85-3C105.34,373.36,105.2,391.51,103.5,392Z"/><path class="cls-22" d="M62.65,361s1.81-7.43-3.36-8.25-5.75,6.8-5.75,6.8Z"/><rect class="cls-6" x="49.31" y="359.66" width="9.22" height="53.77" transform="translate(46.46 776.75) rotate(-170.96)"/><rect class="cls-7" x="56.49" y="365.55" width="0.6" height="45.25" transform="matrix(-0.99, -0.16, 0.16, -0.99, 51.88, 780.45)"/><rect class="cls-7" x="54.45" y="365.23" width="0.6" height="45.25" transform="translate(47.96 779.49) rotate(-170.97)"/><rect class="cls-7" x="52.41" y="364.9" width="0.6" height="45.25" transform="translate(43.89 778.52) rotate(-170.96)"/><rect class="cls-7" x="50.37" y="364.58" width="0.6" height="45.25" transform="matrix(-0.99, -0.16, 0.16, -0.99, 39.96, 777.56)"/><rect class="cls-1" x="52.63" y="359.69" width="10.77" height="2.14" transform="translate(58.66 726.16) rotate(-170.96)"/><rect class="cls-1" x="52.26" y="362.03" width="10.77" height="2.14" transform="matrix(-0.99, -0.16, 0.16, -0.99, 57.56, 730.74)"/><path class="cls-21" d="M84.09,401.19c-2.65,1.3-5,2.48-6.58,3.32a21.09,21.09,0,0,1-15.44,2.3c-4.7-.9-17.42,5.82-15.62-1.85s17.46-8.93,17-11c-.08-.39-.62-.84-1.44-1.29C65.41,393.86,78.08,398.27,84.09,401.19Z"/><path class="cls-4" d="M59.74,391.61c-.18,0-.19.08,0,.17.6.28,3.25,1.55,3,2.19-.37,1.12-7.23,3.16-10,4.52-.15.07-.06.28.07.2.71-.4,3.72-1.32,4.44-1.56,1.4-.47,5.78-1.59,6.25-3C63.9,393.2,60.45,391.78,59.74,391.61Z"/><path class="cls-21" d="M170.34,335.73c-8.24,16.83-24.11,36.71-28.58,42.28-7.94,9.89-39.93,16.29-51.58,20.25-5,1.71-17.65-31.86-12.3-33.79,3.84-1.38,38-7,40.89-9,3-2,20.62-16.91,35.65-27.42C175.51,313.3,175.94,324.29,170.34,335.73Z"/><path class="cls-6" d="M128.46,344.78,161.21,355s8.9-14.76,12.67-23.63c5-11.73,1.8-16.33-12.27-9.53C152.2,326.34,128.46,344.78,128.46,344.78Z"/><path class="cls-2" d="M176,322s0,0,0,0a1.87,1.87,0,1,1-1.76-2.47,1.94,1.94,0,0,1,.73.14s0,0,0,0A4,4,0,0,1,176,322Zm-38,25.63a1.1,1.1,0,0,0-.26,0l1.52.47A1.84,1.84,0,0,0,138,347.65Zm18.11,0a1.87,1.87,0,1,0,1.88,1.87A1.87,1.87,0,0,0,156.13,347.64Zm-9-13.61A1.87,1.87,0,1,0,149,335.9,1.88,1.88,0,0,0,147.08,334Zm18.11,0a1.87,1.87,0,1,0,1.87,1.87A1.87,1.87,0,0,0,165.19,334Z"/><path class="cls-4" d="M132.75,342.71c4.87,1.15,9.71,2.37,14.5,3.8q3.58,1.08,7.14,2.25c2.36.79,4.66,1.82,7,2.57.13.05.05.25-.07.2-2.33-.87-4.8-1.44-7.17-2.18s-4.77-1.49-7.16-2.21c-4.77-1.44-9.54-2.9-14.34-4.23C132.54,342.87,132.62,342.68,132.75,342.71Z"/><path class="cls-7" d="M173.88,331.33c-3.77,8.86-12.67,23.62-12.67,23.62l-18.77-5.83,25.31-29.8C176.52,316.73,178,321.55,173.88,331.33Z"/><path class="cls-6" d="M231.42,405.7s12.7-16.16,10-76.67c0,0-15.22,2.42-19.22,1.64C210.06,328.31,201,321.6,187,316.41s-23.58-1.12-29.13,8.35c-1.38,2.37-6.85,34.84-1.88,47.09,3.91,9.64,21.6,12.07,21.6,12.07S214.11,406,231.42,405.7Z"/><path class="cls-4" d="M188.81,370.68a44.13,44.13,0,0,0-7.57,4.74c-1.18.95-2.3,2-3.41,3.05-.55.53-1.11,1-1.68,1.53a6.94,6.94,0,0,1-1.93,1.29c-.06,0,0,.16.05.14a11.14,11.14,0,0,0,2-.75,10.75,10.75,0,0,0,1.77-1.19c1.2-.94,2.36-2,3.55-2.93A90.28,90.28,0,0,1,189,371C189.08,370.92,188.94,370.62,188.81,370.68Z"/><path class="cls-4" d="M196.84,371.85a45.52,45.52,0,0,0-7,1.88,29.11,29.11,0,0,0-3.34,1.46c-.52.26-1,.54-1.54.82s-1.08.74-1.64,1c-.06,0,0,.18,0,.15.55-.26,1.15-.39,1.71-.61l1.69-.65c1.13-.43,2.27-.84,3.4-1.29,2.25-.89,4.51-1.75,6.8-2.53C197.05,372.08,197,371.83,196.84,371.85Z"/><path class="cls-2" d="M176.12,321.44a1.87,1.87,0,1,1-1.87-1.88A1.87,1.87,0,0,1,176.12,321.44Zm16.25-1.88a1.88,1.88,0,1,0,1.87,1.88A1.87,1.87,0,0,0,192.37,319.56Zm-36.24,28.08a1.87,1.87,0,1,0,1.88,1.87A1.87,1.87,0,0,0,156.13,347.64Zm18.12,0a1.87,1.87,0,1,0,1.87,1.87A1.87,1.87,0,0,0,174.25,347.64Zm18.12,0a1.87,1.87,0,1,0,1.87,1.87A1.87,1.87,0,0,0,192.37,347.64Zm18.12,0a1.87,1.87,0,1,0,1.87,1.87A1.88,1.88,0,0,0,210.49,347.64Zm18.11,0a1.87,1.87,0,1,0,1.87,1.87A1.87,1.87,0,0,0,228.6,347.64ZM165.19,334a1.87,1.87,0,1,0,1.87,1.87A1.87,1.87,0,0,0,165.19,334Zm18.12,0a1.87,1.87,0,1,0,1.87,1.87A1.87,1.87,0,0,0,183.31,334Zm18.12,0a1.87,1.87,0,1,0,1.87,1.87A1.87,1.87,0,0,0,201.43,334Zm18.11,0a1.87,1.87,0,1,0,1.88,1.87A1.87,1.87,0,0,0,219.54,334Zm18.12,0a1.87,1.87,0,1,0,1.87,1.87A1.87,1.87,0,0,0,237.66,334Zm-63.41,41.69a1.87,1.87,0,1,0,1.87,1.87A1.87,1.87,0,0,0,174.25,375.72Zm18.12,0a1.87,1.87,0,1,0,1.87,1.87A1.87,1.87,0,0,0,192.37,375.72Zm18.12,0a1.87,1.87,0,1,0,1.87,1.87A1.88,1.88,0,0,0,210.49,375.72Zm18.11,0a1.87,1.87,0,1,0,1.87,1.87A1.87,1.87,0,0,0,228.6,375.72Zm-63.41-13.61a1.87,1.87,0,1,0,1.87,1.87A1.87,1.87,0,0,0,165.19,362.11Zm18.12,0a1.87,1.87,0,1,0,1.87,1.87A1.87,1.87,0,0,0,183.31,362.11Zm18.12,0A1.87,1.87,0,1,0,203.3,364,1.86,1.86,0,0,0,201.43,362.11Zm18.11,0a1.87,1.87,0,1,0,1.88,1.87A1.87,1.87,0,0,0,219.54,362.11Zm18.12,0a1.87,1.87,0,1,0,1.87,1.87A1.87,1.87,0,0,0,237.66,362.11ZM228.6,403.8a1.86,1.86,0,0,0-1.83,1.52,29.69,29.69,0,0,0,3.7.37v0A1.87,1.87,0,0,0,228.6,403.8Zm-27.17-13.62a1.88,1.88,0,1,0,1.87,1.87A1.87,1.87,0,0,0,201.43,390.18Zm18.11,0a1.88,1.88,0,1,0,1.88,1.87A1.87,1.87,0,0,0,219.54,390.18Zm16.25,1.87a1.84,1.84,0,0,0,.72,1.48c.3-1,.58-2.13.89-3.32A1.84,1.84,0,0,0,235.79,392.05Z"/><path class="cls-21" d="M175.85,323.17c-.1,1.58-5.71,12.63-12.69,13.45-2.28.27-4.28-12.09-4.28-12.09l-.36-.88-5-12.3L167,299.23l2-1.63s1.14,3.46,2.51,7.77c.07.2.13.4.2.62s.17.47.23.69c.22.65.43,1.3.64,2,.15.5.3,1,.45,1.52s.3,1,.46,1.58A86.86,86.86,0,0,1,175.85,323.17Z"/><path class="cls-4" d="M171.42,305.37a26.6,26.6,0,0,1-12.9,18.28l-5-12.3L167,299.23l2-1.63S170.05,301.06,171.42,305.37Z"/><path class="cls-21" d="M131.47,297.69c5.21,22.69,19.39,22.14,24.28,21,4.45-1,19.44-5.07,16.61-28.19s-15-27.86-25.32-26.06S126.27,275,131.47,297.69Z"/><path class="cls-4" d="M135,295.13c.51-.21,1-.49,1.43-.74s1-.47,1.31-1a.83.83,0,0,0-.27-1,2,2,0,0,0-2.08.08,3,3,0,0,0-1.54,1.53A.89.89,0,0,0,135,295.13Z"/><path class="cls-4" d="M150.28,287.87a12.28,12.28,0,0,1-1.6.1,2.55,2.55,0,0,1-1.66-.2.84.84,0,0,1-.27-1,2,2,0,0,1,1.82-1,3,3,0,0,1,2.11.52A.88.88,0,0,1,150.28,287.87Z"/><path class="cls-4" d="M148.82,296.63c0-.06.14,0,.15.11.34,1.54,1,3.26,2.51,3.42.05,0,.07.08,0,.09C149.74,300.44,148.89,298.15,148.82,296.63Z"/><path class="cls-4" d="M149.78,294.68c2.43-.82,3.88,4.09,1.63,4.85S147.75,295.36,149.78,294.68Z"/><path class="cls-4" d="M150.82,294.65c.51.15,1.08.52,1.61.42s.92-.77,1.16-1.38c0-.06.08,0,.1,0a1.87,1.87,0,0,1-.75,2.45c-.88.4-1.79-.24-2.3-1.11C150.54,294.89,150.62,294.59,150.82,294.65Z"/><path class="cls-4" d="M139.58,298.76c0-.05-.1.11-.08.17.51,1.51.84,3.31-.38,4.23,0,0,0,.11,0,.08C140.76,302.5,140.3,300.11,139.58,298.76Z"/><path class="cls-4" d="M137.74,297.59c-2.49.56-1.2,5.51,1.12,5S139.83,297.13,137.74,297.59Z"/><path class="cls-4" d="M136.8,298.19c-.33.36-.59.94-1.05,1.09s-1.07-.25-1.55-.67c0,0-.08,0-.07.07.23,1,.8,1.86,1.75,1.8s1.27-1,1.25-2C137.13,298.27,136.92,298,136.8,298.19Z"/><path class="cls-4" d="M151.52,308.52c-.24.47-.43,1.08-1,1.31a4.08,4.08,0,0,1-1.74.18s-.08.07,0,.1a2.15,2.15,0,0,0,2.19.16,1.72,1.72,0,0,0,.72-1.74C151.68,308.44,151.55,308.45,151.52,308.52Z"/><path class="cls-4" d="M143.58,304.81s.33,2.36.63,3.44c0,.1.31.07.68,0,0,0,0,0,0,0a5.31,5.31,0,0,0,4.42-3.31c.05-.13-.12-.2-.2-.11a7.91,7.91,0,0,1-4.29,2.66c-.16-.27-.43-4.07-.6-4a10,10,0,0,0-2.29,1.25c-.83-4.92-.86-9.92-1.76-14.8a.15.15,0,0,0-.3,0c-.34,5.25.5,10.92,1.22,16C141.22,306.54,143.2,305.11,143.58,304.81Z"/><path class="cls-4" d="M172.58,292.59a9.59,9.59,0,0,1-7.58-5.67,24.85,24.85,0,0,1-12.28-4.49c.3.41,2.48,3.32,3.63,4.77-14.84,2.13-22.79-7.08-22.79-7.08-3,6.05-2.92,9.25-3.08,10.91,0,0-3-8.53-.56-15.76a14.58,14.58,0,0,1,10.81-10,20.84,20.84,0,0,1,21.29-.62C174.44,271.44,172.58,292.59,172.58,292.59Z"/><path class="cls-4" d="M145,288.49a27.17,27.17,0,0,0,8,.2,0,0,0,1,0,0,0,23.1,23.1,0,0,1-12.36-2.72,21.84,21.84,0,0,1-4.44-3.19,15.16,15.16,0,0,1-3.66-4.69c-.06-.13-.27,0-.21.09a17.77,17.77,0,0,0,3,5.13,16.35,16.35,0,0,0,4.68,3.57,18.37,18.37,0,0,0,5,1.64"/><path class="cls-6" d="M152.59,304.22a7.23,7.23,0,0,1-7.9-6.48h0a7.25,7.25,0,1,1,7.9,6.48Zm-6.94-6.57a6.25,6.25,0,1,0,4.1-6.5A6.27,6.27,0,0,0,145.65,297.65Z"/><path class="cls-6" d="M137.73,307.67c-2.89.68-6-1.93-6.89-5.8a8.59,8.59,0,0,1,.33-5.27,4.49,4.49,0,0,1,7.5-1.76,8.54,8.54,0,0,1,2.64,4.57c.86,3.67-.53,7.18-3.13,8.12A3.88,3.88,0,0,1,137.73,307.67ZM132.06,297a7.68,7.68,0,0,0-.28,4.68c.79,3.35,3.36,5.63,5.73,5.08s3.65-3.74,2.86-7.1a7.68,7.68,0,0,0-2.33-4.06,3.88,3.88,0,0,0-3.4-1l-.35.11A4,4,0,0,0,132.06,297Z"/><path class="cls-6" d="M145.12,298.5l.43-.86c-1.27-.65-4-1.27-5.31,1l.84.48C142.23,297.08,145,298.44,145.12,298.5Z"/><path class="cls-6" d="M176.88,293l.73-.63c-.29-.34-2.92-3.34-5.1-3.18s-14.37,4.29-14.89,4.46l.31.92c3.53-1.19,13.07-4.31,14.64-4.42S176.17,292.12,176.88,293Z"/><path class="cls-21" d="M169.15,293.08s2.61-8.47,6.3-7.76,3.29,11.91.05,14.47a3.94,3.94,0,0,1-5.67-.39Z"/><path class="cls-4" d="M175.26,288.53c.05,0,.09.05.05.09-2.25,1.88-2.84,4.71-3,7.5a2.17,2.17,0,0,1,2.91-1.56.08.08,0,0,1,0,.16,2.44,2.44,0,0,0-2.28,1.62,12.07,12.07,0,0,0-.55,2.45c0,.27-.5.28-.5,0v-.06C170.75,295.43,171.83,290,175.26,288.53Z"/><path class="cls-4" d="M159.17,264.12c-2-.32-5.95-10.49,0-16.91s15.94-2.47,14,6.92C171.85,260.06,163.46,264.81,159.17,264.12Z"/><path class="cls-4" d="M168.7,244.64a12.05,12.05,0,0,1,5.34,5.87,7.28,7.28,0,0,1-.74,7.22,14.65,14.65,0,0,1-6.2,4.75,22.4,22.4,0,0,1-3.86,1.28,10.94,10.94,0,0,1-4.07.36,9.71,9.71,0,0,0,4.19.38,17.56,17.56,0,0,0,4.17-.91,14.07,14.07,0,0,0,7-5,8.07,8.07,0,0,0,.56-8.58A10.6,10.6,0,0,0,168.7,244.64Z"/><path class="cls-21" d="M197.19,323.92c23,19.74,55.89,54.43,46.93,65.62-14.74,18.39-65,37.82-76.69,41.78-5,1.71-22.47-29.81-20-34.9s56.93-19.8,56.61-23.26c-.19-2-8.14-17.45-17.84-36.77C175.07,314.11,190.61,318.27,197.19,323.92Z"/><path class="cls-21" d="M155.91,391.74s-15.82,3.21-26.07,5.8c-5.72,1.45-15.31,4.8-19,7.79-5.56,4.46-26,26.67-20.68,31.73,4.78,4.59,19.88-16.72,19.88-16.72S92.88,440.49,99.65,445s20.63-21.89,20.63-21.89-17.15,21.11-9.44,24.6c5.83,2.64,19.72-20.51,19.72-20.51s-14.61,18.24-8.73,21.21c6.49,3.29,20.65-17.28,20.65-17.28,16.21,5,26,.82,32.58-3C176.66,427.14,155.91,391.74,155.91,391.74Z"/><path class="cls-6" d="M226.91,348.62l-33.59,6.92S185.91,340,183,330.78c-3.82-12.16-.2-16.43,13.13-8.29C205.09,327.94,226.91,348.62,226.91,348.62Z"/><path class="cls-2" d="M194.23,321.37v.06a1.87,1.87,0,1,1-2.91-1.55,32.28,32.28,0,0,1,2.9,1.49Zm-1.86,26.27a1.87,1.87,0,1,0,1.87,1.87A1.87,1.87,0,0,0,192.37,347.64Zm18.12,0a1.87,1.87,0,1,0,1.87,1.87A1.88,1.88,0,0,0,210.49,347.64Zm-26.28-13.37c.28.73.55,1.49.85,2.26a1.68,1.68,0,0,0,.12-.63A1.84,1.84,0,0,0,184.21,334.27Zm17.22-.24a1.87,1.87,0,1,0,1.87,1.87A1.87,1.87,0,0,0,201.43,334Z"/><path class="cls-4" d="M197.42,354.7c-.37,0-3.85.61-4.08.72-.83-1.85-4.8-10.46-5.24-11.35a.11.11,0,1,0-.2.08c.2.53,1,2.55,1.84,4.8a.27.27,0,0,1-.07-.08c-.32-.37-.65-.71-1-1.06s-.64-.77-.95-1.16c-.09-.12-.27.05-.17.16.31.37.64.72.93,1.11s.52.74.8,1.09l.84,1.05.05.05c1,2.54,2,5.12,2.48,6a41.5,41.5,0,0,0,4.78-1.33C197.51,354.8,197.48,354.7,197.42,354.7Z"/><path class="cls-4" d="M222.85,346.13c-5,.67-9.9,1.41-14.81,2.37-2.45.48-4.89,1-7.32,1.55s-4.81,1.35-7.25,1.87c-.13,0-.08.24.05.2,2.4-.64,4.92-1,7.35-1.47s4.89-1,7.34-1.5c4.89-1,9.78-1.95,14.69-2.81C223,346.32,223,346.12,222.85,346.13Z"/><path class="cls-4" d="M211.19,334.12a.05.05,0,0,0-.07.08c1,1.33,12,11.68,15.38,14.26a20.46,20.46,0,0,0-2.55.79,21.62,21.62,0,0,0,3.45-.62C227.46,348.6,212.66,335,211.19,334.12Z"/></svg>