<svg id="Слой_1" data-name="Слой 1" xmlns="http://www.w3.org/2000/svg" viewBox="0 0 581.13 402.55"><defs><style>.cls-1{fill:#ececec;}.cls-2{fill:#4a148c;}.cls-3{fill:#a8a8a8;}.cls-4{fill:#ffc800;}.cls-5{fill:#dcdcdc;}.cls-6{fill:#306;}.cls-7{fill:#e55f4e;}.cls-8{fill:#fff;}.cls-9{opacity:0.1;}</style></defs><path class="cls-1" d="M176.65,23.16c0-1.85.25-6.76.25-8.85,0-9-3.2-13-11.55-13.27-3.93-.25-6.27-2.58-6.27-5.9s2.34-5.65,6.27-5.9c8.35-.36,11.55-4.3,11.55-13.39,0-2.09-.25-7-.25-8.85,0-11.92,5-19.53,24.09-23.71,3.8-.86,6.75,1.47,6.75,5a5.15,5.15,0,0,1-3.44,5c-11.91,3.69-13.64,7.5-13.64,15.86,0,2.45.25,6.51.25,9.09,0,9.58-4.67,14.25-12.78,16.83,8.23,2.7,12.78,7.25,12.78,16.83,0,2.59-.25,6.64-.25,9.1,0,8.35,1.73,12.16,13.64,15.85a5.16,5.16,0,0,1,3.44,5c0,3.56-3,5.89-6.75,5C181.69,42.82,176.65,35.2,176.65,23.16Z"/><path class="cls-1" d="M248.66-33c0,1.85-.25,6.76-.25,8.85,0,9.09,3.32,13,11.67,13.39,3.81.25,6.15,2.58,6.15,5.9S263.89.79,260.08,1c-8.35.24-11.67,4.3-11.67,13.27,0,2.09.25,7,.25,8.85,0,12-5,19.66-24.09,23.84-3.8.85-6.75-1.48-6.75-5a5.1,5.1,0,0,1,3.56-5c11.8-3.69,13.52-7.5,13.52-15.85,0-2.46-.25-6.51-.25-9.1,0-9.58,4.67-14.25,12.78-16.83-8.24-2.7-12.78-7.25-12.78-16.83,0-2.58.25-6.64.25-9.09,0-8.36-1.72-12.17-13.52-15.86a5.09,5.09,0,0,1-3.56-5c0-3.57,3-5.9,6.75-5C243.62-52.53,248.66-44.92,248.66-33Z"/><rect class="cls-2" x="47.28" y="-96.86" width="330.24" height="208.35"/><rect class="cls-1" x="248.74" y="5.96" width="18.64" height="3.58"/><rect class="cls-3" x="216.38" y="5.96" width="27.94" height="3.58"/><rect class="cls-4" x="83.93" y="5.96" width="126.06" height="3.58"/><rect class="cls-1" x="93.5" y="15.55" width="57.99" height="3.58"/><rect class="cls-4" x="191.18" y="25.14" width="64.37" height="3.58"/><rect class="cls-4" x="156.19" y="15.55" width="74.56" height="3.58"/><rect class="cls-1" x="119.08" y="25.14" width="67.03" height="3.58"/><rect class="cls-3" x="93.5" y="25.14" width="21.8" height="3.58"/><rect class="cls-3" x="261.78" y="25.14" width="16.79" height="3.58"/><rect class="cls-1" x="66.97" y="5.96" width="9.81" height="3.58"/><rect class="cls-3" x="76.78" y="15.55" width="9.81" height="3.58"/><rect class="cls-3" x="236.33" y="15.55" width="47.69" height="3.58"/><rect class="cls-3" x="245.49" y="33.09" width="47.69" height="3.58"/><rect class="cls-1" x="76.78" y="25.14" width="9.81" height="3.58"/><rect class="cls-1" x="66.97" y="33.18" width="9.81" height="3.58"/><rect class="cls-1" x="83.93" y="33.18" width="115.05" height="3.58"/><rect class="cls-1" x="301.16" y="33.18" width="37.13" height="3.58"/><rect class="cls-4" x="205.12" y="33.18" width="32.44" height="3.58"/><rect class="cls-1" x="76.78" y="42.77" width="9.81" height="3.58"/><rect class="cls-3" x="93.5" y="42.77" width="73.86" height="3.58"/><rect class="cls-3" x="83.93" y="71.54" width="70.55" height="3.58"/><rect class="cls-4" x="93.5" y="52.36" width="49.49" height="3.58"/><rect class="cls-3" x="148.48" y="52.36" width="95.45" height="3.58"/><rect class="cls-4" x="83.93" y="81.14" width="126.06" height="3.58"/><rect class="cls-4" x="239.53" y="42.77" width="71.41" height="3.58"/><rect class="cls-1" x="171.99" y="42.77" width="63.48" height="3.58"/><rect class="cls-1" x="248.74" y="52.36" width="21.44" height="3.58"/><rect class="cls-1" x="76.78" y="52.36" width="9.81" height="3.58"/><rect class="cls-3" x="66.97" y="61.95" width="9.81" height="3.58"/><rect class="cls-1" x="83.93" y="61.95" width="57.99" height="3.58"/><rect class="cls-3" x="233.65" y="61.95" width="57.99" height="3.58"/><rect class="cls-1" x="158.47" y="71.54" width="108.59" height="3.58"/><rect class="cls-4" x="147.81" y="61.95" width="79.01" height="3.58"/><rect class="cls-1" x="66.97" y="71.54" width="9.81" height="3.58"/><polygon class="cls-5" points="-7.55 407.06 157.65 407.06 124.71 215.46 1.18 215.46 -7.55 407.06"/><polygon class="cls-3" points="-7.55 407.06 6.94 407.06 15.06 215.46 1.18 215.46 -7.55 407.06"/><path class="cls-6" d="M166.49,291.47c-1.48,0-8.38.07-18.48.19-3.34-6.13-7.15-17-4.89-32.18.39-2.52-6.37,11.91-4.49,32.28-19.51.21-46,.47-69.22.5-.19-8.57-.76-16.5-.76-16.5a92,92,0,0,1-4.29,16.52c-3.17,0-6.27,0-9.25,0,1.09-13.29-.58-36.49-.58-36.49a114.62,114.62,0,0,1-12.59,36.43c-14.71-.13-24.38-.47-23.74-1.12,23-23.89,7.14-38,14.13-59.2,8.39-25.39,31.73-29.16,31.63-48.32,0-15.58-1.2-43.87,19.77-49.66,0,0,17.45-17.32,43.7-7.35,32.48,12.31,18,60.2,19.92,70,2.75,14,9.62,19,14.36,35,4.85,16.18-3.23,26.78-4.46,37.69S170.18,291.48,166.49,291.47Z"/><path class="cls-6" d="M17.65,287.64a54.75,54.75,0,0,0,7.57-13.55c1.83-4.73,1.25-9.6.39-14.63A145.4,145.4,0,0,1,23.38,244a38.92,38.92,0,0,1,2.12-16,36.46,36.46,0,0,1,9.29-13.71,102.33,102.33,0,0,1,13-10c4.35-3.09,8.69-6.15,12-10.11a27.71,27.71,0,0,0,6.33-13.85,25.56,25.56,0,0,1-4.73,14.94c-3.13,4.5-7.42,8.09-11.64,11.41a126.55,126.55,0,0,0-12.07,10.18,34.45,34.45,0,0,0-8.07,12.43,38.22,38.22,0,0,0-2,14.49c.15,5,1,10,1.52,15.19a48.72,48.72,0,0,1,.28,7.95,22.26,22.26,0,0,1-2.1,7.89A45.27,45.27,0,0,1,17.65,287.64Z"/><path class="cls-6" d="M145.45,144.67c2.37,5.93,3.12,12.35,3.89,18.64s.95,12.68,1.19,19l.42,9.44a44.18,44.18,0,0,0,1.23,9c1.44,5.86,4.73,11,8.47,16.21a70,70,0,0,1,5.1,8.38,41.81,41.81,0,0,1,3.37,9.35,62,62,0,0,1,1.14,9.74,38.83,38.83,0,0,1-.87,9.83c-.7,3.24-1.77,6.3-2.67,9.3a46.49,46.49,0,0,0-1.82,9.12c-.68,6.06,2.52,12.15,7.57,16.18a19.2,19.2,0,0,1-9.65-16.21A45.59,45.59,0,0,1,164,263c.68-3.17,1.62-6.2,2.08-9.22a47.72,47.72,0,0,0-1-18.16,41.65,41.65,0,0,0-3.18-8.45,67.78,67.78,0,0,0-4.93-7.89,93.3,93.3,0,0,1-5.23-8.25,37.5,37.5,0,0,1-3.6-9.31,47.49,47.49,0,0,1-1-9.77c-.09-3.2,0-6.37,0-9.54.05-6.34.2-12.65.08-18.95A87.15,87.15,0,0,0,145.45,144.67Z"/><path class="cls-7" d="M103.58,259.52c10.51,45.79,31.8,103.78,48.25,115.47,13.26,9.44,82.85,26.06,86.73,26.48,9.61,1,28.58-66.9,18.62-69.66-12.54-3.47-72.18-5.33-75.58-8.81-3.52-3.64-25.22-33-49.79-67.08C114.85,232.39,97.05,231.1,103.58,259.52Z"/><path class="cls-7" d="M230.85,397.74c1.14.58,17.39,8.75,27.44,11.66,7.5,2.18,29.25,7.85,32.46-.16,2.2-5.47-10.2-10.31-18.89-13.93-4.58-1.91-10.22-6.7-8.87-9.64,2.36-5.15,14.14,0,21.89,4.52,15,8.71,34.95,24.38,44.1,16.78,3.46-2.87-.56-8.11-6.44-13.24,9.54,6,19.71,10.89,23.68,7.85,2.28-1.73,2.38-4.11,1.12-6.82,2.94.95,5.54.77,7.36-1.15,3.1-3.25,1.59-8-1.81-12.94a3.72,3.72,0,0,0,2.82-1.85c6.56-10-26.29-38.75-37.66-41.44-33.43-7.95-69-5.05-69-5.05C235.92,342.82,230.82,397.72,230.85,397.74Z"/><path class="cls-6" d="M280,367a56.74,56.74,0,0,1,22.3,8.59c8.48,5.59,14.1,12.14,21.21,18.73.19.18-.07.47-.26.3-3.39-3.14-17.43-14.92-21.06-17.6A54,54,0,0,0,280,367.1C279.9,367.08,279.93,367,280,367Z"/><path class="cls-6" d="M286.24,352.78c8.79,2.4,17.79,4.83,25.95,9,8.92,4.55,15.91,12,22.78,19.1q6.18,6.43,12.08,13.13c.16.19-.09.48-.27.29q-10.44-11.05-21.56-21.47a71.34,71.34,0,0,0-23.66-14.91c-5-1.92-10.19-3.45-15.35-5C286.11,352.9,286.14,352.75,286.24,352.78Z"/><path class="cls-6" d="M295.63,340.37c8.54,1.75,16,3.25,23.54,7.83,10,6.05,19.67,16.26,23.06,19.88,3.75,4,7.35,8.11,10.9,12.28.14.17-.15.43-.3.26a284.24,284.24,0,0,0-26-25.79,56.11,56.11,0,0,0-14.56-9.47c-5.32-2.29-11-3.59-16.61-4.93C295.58,340.42,295.59,340.36,295.63,340.37Z"/><path class="cls-4" d="M181.09,316.32l-64.15-2.72s-11.64-31.78-15.93-60,19.76-18.09,43.57,12.3S181.09,316.32,181.09,316.32Z"/><path class="cls-8" d="M118.42,257.13a2.78,2.78,0,0,1-1.22.62,2.48,2.48,0,0,1-2.29-.71,3.19,3.19,0,0,0-3.53-.6,3.08,3.08,0,0,0-1.31,1.15c-.29.44-.62.85-.88,1.32.47-.26.88-.59,1.32-.88a3,3,0,0,1,1.23-.65A2.44,2.44,0,0,1,114,258a3.1,3.1,0,0,0,4.84-.38c.29-.45.61-.86.88-1.35C119.28,256.52,118.87,256.85,118.42,257.13Zm3.51,29.67c-.1-.51-.16-1-.31-1.56-.14.52-.2,1.05-.32,1.56a2.9,2.9,0,0,1-.4,1.33,2.4,2.4,0,0,1-2,1.2,3.21,3.21,0,0,0-3,1.94,3.17,3.17,0,0,0-.17,1.76c.1.52.17,1.05.32,1.56.15-.51.21-1,.31-1.56a2.83,2.83,0,0,1,.44-1.3,2.49,2.49,0,0,1,2.1-1.12,3.2,3.2,0,0,0,2.94-2.07A3.08,3.08,0,0,0,121.93,286.8Zm45.58,23.86a.48.48,0,0,1,0,.14A2.42,2.42,0,0,1,165.4,312a3.27,3.27,0,0,0-3,2,2.82,2.82,0,0,0-.2,1.58l.69,0a2.77,2.77,0,0,1,.41-1.15,2.47,2.47,0,0,1,2.11-1.14A3.24,3.24,0,0,0,168,312h0Zm-26.6,2.73a2.81,2.81,0,0,1-1.22.65,2.4,2.4,0,0,1-2.28-.6,3.23,3.23,0,0,0-3.49-.73,3.13,3.13,0,0,0-1.36,1.13,3.91,3.91,0,0,1-.3.41l.74,0a3.08,3.08,0,0,1,1.23-.61,2.49,2.49,0,0,1,2.28.7.28.28,0,0,0,.09.07l4,.16a3.4,3.4,0,0,0,.72-.76c.3-.45.62-.86.89-1.33C141.77,312.77,141.35,313.1,140.91,313.39Zm11.75-33.24a2.78,2.78,0,0,1-1.29-.43,2.43,2.43,0,0,1-1.12-2.11,3.2,3.2,0,0,0-2.07-2.94,3.27,3.27,0,0,0-1.74-.11c-.53.11-1,.17-1.58.32.54.15,1,.21,1.58.31a3.21,3.21,0,0,1,1.32.4,2.44,2.44,0,0,1,1.19,2.05,3.2,3.2,0,0,0,2,3,3,3,0,0,0,1.75.16c.53-.1,1-.16,1.56-.31C153.7,280.33,153.19,280.27,152.66,280.15Z"/><path class="cls-6" d="M114.76,299.68c13.87-.36,27.79.26,41.66,1.15q5.88.38,11.75,1a.09.09,0,1,1,0,.17c-6.93,0-13.86-.22-20.79-.43s-13.91-.48-20.86-.89c-3.92-.23-7.84-.46-11.75-.77C114.6,299.93,114.58,299.68,114.76,299.68Z"/><path class="cls-6" d="M172.46,316,117,313.6s-11.66-31.78-15.94-60c-1.81-12,1.49-17.07,7.72-16.58h0Z"/><path class="cls-4" d="M157.74,413.19H.93S35,281.66,66.51,244.63c.71-.86,1.43-1.66,2.16-2.42.15-.17.28-.3.43-.45a33.78,33.78,0,0,1,8.42-6.51c.56-.3,1.11-.58,1.69-.83,12.14-5.58,25-.95,34.21,7,2.94,2.51,36.18,45.75,39.12,62.24,2.54,14.55-7.29,30.19-7.29,30.19Z"/><path class="cls-8" d="M87.7,274.56a2.9,2.9,0,0,1-1.28-.43A2.42,2.42,0,0,1,85.3,272a3.22,3.22,0,0,0-2.07-2.94,3.28,3.28,0,0,0-1.74-.12c-.53.11-1,.18-1.56.33.51.13,1,.2,1.56.31a2.85,2.85,0,0,1,1.31.4,2.4,2.4,0,0,1,1.2,2,3.23,3.23,0,0,0,2,3,3,3,0,0,0,1.74.16c.53-.1,1-.16,1.58-.31C88.75,274.73,88.23,274.66,87.7,274.56Zm28.94,103.51a3.08,3.08,0,0,1-1.29-.45,2.42,2.42,0,0,1-1.12-2.11,3.2,3.2,0,0,0-2.06-2.93,3.28,3.28,0,0,0-1.74-.11c-.54.11-1.05.17-1.57.31.52.15,1,.21,1.57.31a3.54,3.54,0,0,1,1.31.4,2.4,2.4,0,0,1,1.19,2.05,3.23,3.23,0,0,0,2,3,3.13,3.13,0,0,0,1.74.18c.53-.12,1-.18,1.58-.32C117.68,378.23,117.17,378.17,116.64,378.07Zm-70-60.21a2.89,2.89,0,0,1-1.29-.42,2.48,2.48,0,0,1-1.13-2.11,3.14,3.14,0,0,0-3.8-3.06c-.53.1-1,.18-1.58.31.54.15,1.05.22,1.58.33a2.93,2.93,0,0,1,1.32.39,2.45,2.45,0,0,1,1.19,2,3.22,3.22,0,0,0,2,3,3,3,0,0,0,1.75.16c.53-.11,1-.18,1.56-.31C47.71,318,47.2,318,46.67,317.86Zm61.81,94.84a2.9,2.9,0,0,1-1.3-.43,2.45,2.45,0,0,1-1.12-2.11,3.23,3.23,0,0,0-2.07-2.94,3.27,3.27,0,0,0-1.74-.11c-.52.1-1,.17-1.56.31.51.14,1,.22,1.56.32a2.94,2.94,0,0,1,1.33.4,2.42,2.42,0,0,1,1.19,2,3.22,3.22,0,0,0,2,3h2.54A5.4,5.4,0,0,0,110,413C109.52,412.88,109,412.8,108.48,412.7ZM78,361.75a3.13,3.13,0,0,1-1.29-.45,2.42,2.42,0,0,1-1.12-2.11,3.17,3.17,0,0,0-2.06-2.92,3.22,3.22,0,0,0-1.75-.12c-.53.11-1,.17-1.56.31.52.15,1,.21,1.56.31a3.54,3.54,0,0,1,1.32.4,2.4,2.4,0,0,1,1.19,2.05,3.23,3.23,0,0,0,2,3,3,3,0,0,0,1.74.18c.53-.12,1-.18,1.58-.32C79.08,361.91,78.57,361.85,78,361.75ZM2.15,409A.18.18,0,0,1,2,409H2c-.06.24-.12.48-.18.7a2.53,2.53,0,0,0,.3,0c.51-.12,1-.18,1.56-.33C3.18,409.19,2.66,409.11,2.15,409Zm19.59-38a2.78,2.78,0,0,1-1.28-.43,2.43,2.43,0,0,1-1.12-2.11,3.23,3.23,0,0,0-2.07-2.94,3.27,3.27,0,0,0-1.74-.11l-.93.17-.09.27,1,.19a2.85,2.85,0,0,1,1.31.4,2.43,2.43,0,0,1,1.2,2,3.2,3.2,0,0,0,2,3,2.94,2.94,0,0,0,1.74.16c.53-.1,1.05-.16,1.57-.31C22.79,371.18,22.27,371.1,21.74,371ZM104,319.12a3.27,3.27,0,0,1-1.3-.44,2.49,2.49,0,0,1-1.12-2.11,3.18,3.18,0,0,0-2.06-2.93,3.09,3.09,0,0,0-1.74-.11c-.52.1-1,.16-1.57.31.52.14,1,.2,1.57.31a3.36,3.36,0,0,1,1.32.39,2.42,2.42,0,0,1,1.18,2,3.25,3.25,0,0,0,2,3,3.15,3.15,0,0,0,1.75.17c.52-.12,1.05-.17,1.57-.32C105,319.28,104.48,319.22,104,319.12Zm43.25,27.15a3.36,3.36,0,0,1-1.14-.41,2.5,2.5,0,0,1-1.12-2.12,3.1,3.1,0,0,0-3.8-3c-.52.1-1,.16-1.57.31.53.14,1,.2,1.57.31a3.26,3.26,0,0,1,1.32.39,2.46,2.46,0,0,1,1.2,2,3.21,3.21,0,0,0,2,3,3.11,3.11,0,0,0,1.69.17Zm-6.3-32.88a2.81,2.81,0,0,1-1.22.65,2.4,2.4,0,0,1-2.28-.6,3.23,3.23,0,0,0-3.49-.73,3.13,3.13,0,0,0-1.36,1.13c-.3.44-.62.85-.89,1.32.48-.26.89-.59,1.33-.88a3.08,3.08,0,0,1,1.23-.61,2.49,2.49,0,0,1,2.28.7A3.2,3.2,0,0,0,140,315a3.29,3.29,0,0,0,1.31-1.15c.3-.45.62-.86.89-1.33C141.77,312.77,141.35,313.1,140.91,313.39ZM87.7,233.62c-.1-.48-.16-1-.28-1.47,0,0,0,0-.06,0-.12.49-.18,1-.28,1.47a3.16,3.16,0,0,1-.4,1.33,2.43,2.43,0,0,1-2.05,1.18,3.26,3.26,0,0,0-3,2,3.09,3.09,0,0,0-.16,1.76c.1.52.16,1.05.31,1.56.15-.51.21-1,.32-1.56a3,3,0,0,1,.43-1.3,2.49,2.49,0,0,1,2.11-1.12,3.2,3.2,0,0,0,2.94-2.07A3.26,3.26,0,0,0,87.7,233.62Zm-12.45,92c-.11-.52-.16-1-.31-1.57-.15.53-.21,1.05-.33,1.57a2.86,2.86,0,0,1-.4,1.32,2.4,2.4,0,0,1-2,1.2,3.22,3.22,0,0,0-3,2,3.1,3.1,0,0,0-.16,1.74c.1.52.18,1.05.33,1.57.14-.52.2-1.05.31-1.57a2.72,2.72,0,0,1,.44-1.3,2.49,2.49,0,0,1,2.09-1.12,3.14,3.14,0,0,0,3.06-3.8Zm64.82,68.45c-.1-.53-.18-1.05-.33-1.58-.13.53-.2,1-.31,1.58a2.89,2.89,0,0,1-.39,1.31,2.44,2.44,0,0,1-2,1.2,3.22,3.22,0,0,0-3,2,3,3,0,0,0-.16,1.74c.11.52.16,1.05.31,1.56.15-.51.22-1,.33-1.56a3,3,0,0,1,.42-1.3,2.49,2.49,0,0,1,2.11-1.12,3.13,3.13,0,0,0,3.06-3.79ZM49.37,275.66c-.11-.53-.18-1.05-.31-1.58-.15.53-.22,1.05-.33,1.58a2.93,2.93,0,0,1-.4,1.32,2.48,2.48,0,0,1-1.55,1.13c-.22.44-.42.9-.63,1.36h.16a3.22,3.22,0,0,0,2.94-2.07A3.38,3.38,0,0,0,49.37,275.66Zm72.56,11.14c-.1-.51-.16-1-.31-1.56-.14.52-.2,1.05-.32,1.56a2.9,2.9,0,0,1-.4,1.33,2.4,2.4,0,0,1-2,1.2,3.21,3.21,0,0,0-3,1.94,3.17,3.17,0,0,0-.17,1.76c.1.52.17,1.05.32,1.56.15-.51.21-1,.31-1.56a2.83,2.83,0,0,1,.44-1.3,2.49,2.49,0,0,1,2.1-1.12,3.2,3.2,0,0,0,2.94-2.07A3.08,3.08,0,0,0,121.93,286.8ZM54.87,379.94c-.12-.52-.18-1-.32-1.56-.15.53-.21,1-.31,1.56a3.21,3.21,0,0,1-.4,1.33,2.45,2.45,0,0,1-2.05,1.19,3.22,3.22,0,0,0-3,2,3,3,0,0,0-.17,1.76c.11.51.17,1.05.31,1.56.15-.51.21-1.05.33-1.56a2.9,2.9,0,0,1,.43-1.3,2.44,2.44,0,0,1,2.11-1.12,3.22,3.22,0,0,0,2.93-2.07A3.18,3.18,0,0,0,54.87,379.94Zm63.55-122.81a2.78,2.78,0,0,1-1.22.62,2.48,2.48,0,0,1-2.29-.71,3.19,3.19,0,0,0-3.53-.6,3.08,3.08,0,0,0-1.31,1.15c-.29.44-.62.85-.88,1.32.47-.26.88-.59,1.32-.88a3,3,0,0,1,1.23-.65A2.44,2.44,0,0,1,114,258a3.1,3.1,0,0,0,4.84-.38c.29-.45.61-.86.88-1.35C119.28,256.52,118.87,256.85,118.42,257.13ZM76.09,295.48a2.53,2.53,0,0,1-1.23.6,2.43,2.43,0,0,1-2.28-.69,3.2,3.2,0,0,0-3.53-.62,3.29,3.29,0,0,0-1.31,1.15c-.3.44-.62.86-.89,1.33.47-.27.89-.59,1.33-.89a3.27,3.27,0,0,1,1.22-.64,2.43,2.43,0,0,1,2.29.6,3.21,3.21,0,0,0,3.5.72,3,3,0,0,0,1.34-1.12c.3-.44.62-.85.89-1.33C76.94,294.86,76.53,295.18,76.09,295.48ZM47.4,352a2.8,2.8,0,0,1-1.21.62,2.44,2.44,0,0,1-2.28-.7,3.21,3.21,0,0,0-3.54-.61,3.12,3.12,0,0,0-1.32,1.15c-.29.44-.62.86-.88,1.33.47-.27.88-.59,1.34-.89a2.94,2.94,0,0,1,1.21-.65,2.44,2.44,0,0,1,2.29.59,3.25,3.25,0,0,0,3.49.74,3,3,0,0,0,1.36-1.12c.3-.44.62-.85.89-1.34C48.27,351.34,47.86,351.68,47.4,352Zm12.41,58.7a2.89,2.89,0,0,1-1.22.62,2.48,2.48,0,0,1-2.29-.71,3.21,3.21,0,0,0-3.54-.6,3.15,3.15,0,0,0-1.31,1.15c-.28.44-.61.85-.89,1.33.49-.27.9-.59,1.34-.89a3.07,3.07,0,0,1,1.21-.65,2.43,2.43,0,0,1,2.29.59,3.26,3.26,0,0,0,3.5.74,3.16,3.16,0,0,0,1.36-1.12c.29-.44.62-.86.88-1.34C60.67,410,60.26,410.38,59.81,410.66Zm55.5-64.5a3,3,0,0,1-1.23.61,2.46,2.46,0,0,1-2.28-.69,3.18,3.18,0,0,0-3.54-.62,3,3,0,0,0-1.3,1.15c-.3.44-.62.85-.9,1.33.48-.27.9-.59,1.34-.89a3.27,3.27,0,0,1,1.21-.65,2.4,2.4,0,0,1,2.29.61,3.2,3.2,0,0,0,3.49.72,3,3,0,0,0,1.36-1.12c.3-.45.62-.86.89-1.33C116.16,345.55,115.75,345.87,115.31,346.16Zm35.63,23.89a2.26,2.26,0,0,1-.94-.6,3.26,3.26,0,0,0-3.54-.62,3.48,3.48,0,0,0-1.32,1.15c-.29.46-.61.87-.88,1.34.47-.26.88-.59,1.33-.88a3.1,3.1,0,0,1,1.22-.67,2.47,2.47,0,0,1,2.29.61,3.26,3.26,0,0,0,2.05.94ZM89.25,387.29a3,3,0,0,1-1.22.6,2.44,2.44,0,0,1-2.29-.69,3.12,3.12,0,0,0-4.84.53c-.3.44-.62.86-.89,1.33.48-.27.89-.59,1.33-.89a3.27,3.27,0,0,1,1.21-.65,2.42,2.42,0,0,1,2.29.61,3.22,3.22,0,0,0,3.5.72,3,3,0,0,0,1.35-1.12c.3-.44.62-.85.89-1.33C90.11,386.67,89.69,387,89.25,387.29Zm-59.13,8.08a2.86,2.86,0,0,1-1.22.61,2.47,2.47,0,0,1-2.29-.69,3.15,3.15,0,0,0-3.52-.62,3,3,0,0,0-1.32,1.15c-.29.44-.62.85-.9,1.33.49-.27.9-.59,1.35-.89a3.2,3.2,0,0,1,1.21-.65,2.38,2.38,0,0,1,2.28.61,3.22,3.22,0,0,0,3.5.72,3,3,0,0,0,1.36-1.12c.29-.45.62-.86.88-1.33C31,394.76,30.57,395.08,30.12,395.37Z"/><path class="cls-6" d="M121.71,328.19a135.28,135.28,0,0,0-19.8,3.43c-3.23.86-6.39,1.86-9.55,2.93-1.57.53-3.15,1-4.75,1.48a21.06,21.06,0,0,1-5.1,1,.12.12,0,0,0,0,.24,36.71,36.71,0,0,0,4.92-.13,35.22,35.22,0,0,0,4.68-.93c3.28-.84,6.52-1.82,9.79-2.69,6.59-1.76,13.18-3.52,19.89-4.79A.28.28,0,0,0,121.71,328.19Z"/><path class="cls-6" d="M138.28,334a145.63,145.63,0,0,0-16.58-.65c-2.77.06-5.52.27-8.27.57-1.32.13-2.63.3-3.94.48s-2.86.58-4.3.76c-.15,0-.15.25,0,.24,1.36-.13,2.76,0,4.13-.07l4.13-.15c2.76-.09,5.52-.15,8.28-.27,5.52-.23,11-.41,16.55-.46C138.59,334.41,138.56,334,138.28,334Z"/><path class="cls-7" d="M63.43,248.17C37,276.48-25.88,382.73-5.5,402.32,15,422.05,128,395.54,159.82,380.4c9.45-4.5-26.48-63.45-37.59-64.82-9.25-1.15-56.54,20.49-57.91,17.76-1.55-3.07,9.19-22.81,20.57-63.89C98,222.07,75.11,235.66,63.43,248.17Z"/><path class="cls-7" d="M169.2,296.55c23-3.2,29.37-.49,47.33-13.49,11.78-8.53,22.28-4.67,15.56,8.89-11,22.17-39.77,32.52-50.78,33.24Z"/><path class="cls-7" d="M108.17,318.67s25.82-14.33,50-20.17c16.69-4,54-8.75,89.7,28.06,8.47,8.73,14.34,27.18-4.67,17.94-13.5-6.57-20.08-14.81-28.63-17.19,0,0,4.69,24.35-4.39,32.49-4.06,3.64-15.36,13.31-25.24,19.58a47.92,47.92,0,0,1-4.09-4.39s-9.2,6.8-26.51,5.15Z"/><path class="cls-7" d="M174.69,297.2c8,4.16,24.76,13.27,35.89,25.49,12.36,13.58,32.52,43.06,22.4,52.08-7.42,6.62-16.1-4-16.1-4s5.76,13.94-2.25,18.45c-7.3,4.11-13.52-4.47-13.52-4.47s2,9.06-5.75,11.66c-9.38,3.14-12.12-16.36-24.35-21.39C168.26,373.93,174.69,297.2,174.69,297.2Z"/><path class="cls-6" d="M194.05,333.36c6.87,5.15,19.47,20.84,22.95,37.09.08.37-.16.62-.3.3a180.28,180.28,0,0,0-22.78-37.27C193.86,333.4,194,333.3,194.05,333.36Z"/><path class="cls-6" d="M180.71,346.24c5.47,5.05,17.73,21.8,20.7,38.39.06.37-.19.61-.32.29a193.45,193.45,0,0,0-20.51-38.57C180.52,346.27,180.64,346.17,180.71,346.24Z"/><path class="cls-6" d="M214.55,327.16c7.49,2.2,12.36,5.87,18.68,10.26a101.72,101.72,0,0,0,9.64,6.11c3,1.65,7.55,4.14,10.8,1.56,1.81-1.44,1.78-4,1.38-6.12a16.56,16.56,0,0,0-2.71-6.46c-.07-.1.09-.23.17-.13a22.14,22.14,0,0,1,3.09,5.54,10,10,0,0,1,.68,5.84c-1.1,4.13-6,4.67-9.42,3.54a32.68,32.68,0,0,1-5.89-2.86c-1.82-1-3.58-2.17-5.31-3.34-3.56-2.4-7-5-10.51-7.46a97.62,97.62,0,0,0-10.71-6.23A.14.14,0,0,1,214.55,327.16Z"/><path class="cls-6" d="M230.23,353.5c-1.94-4.27-12.43-22.05-15.84-26.17a.11.11,0,0,1,.16-.14c5.84,5.53,15.22,20.22,17.4,24.93s4.65,10.6,4.65,15.79c0,7.82-5.19,9.3-7.11,9.69a10.23,10.23,0,0,1-6.66-1.09,20.63,20.63,0,0,1-6-5.67c-.08-.11.06-.26.15-.15,2.71,3.08,7.22,6.12,11.47,5.56a7.1,7.1,0,0,0,4.84-2.61c1.32-1.79,1.43-4.16,1.25-6.3C234.1,362.49,232.22,357.89,230.23,353.5Z"/><path class="cls-6" d="M201.41,384.63c1.08.93,3.33,4.18,6.89,4.87,2.61.51,5.34.26,7.34-1.64a10.17,10.17,0,0,0,2.82-7.11,65.4,65.4,0,0,0-1.64-9.85c0-.15.15-.22.2-.08,1.13,3.45,2.34,7.21,2.35,10.59a10.65,10.65,0,0,1-3,7.8,8,8,0,0,1-8.19,1.7c-1.39-.52-5.79-3.34-7.07-6.12C201.08,384.73,201.36,384.59,201.41,384.63Z"/><path class="cls-6" d="M171.75,373.65a19.25,19.25,0,0,1,3.31,2.8c1.1,1.06,2.16,2.16,3.2,3.28a45.23,45.23,0,0,1,5.41,7.41c1.58,2.66,3,5.61,5.61,7.46a7.33,7.33,0,0,0,8.57.21,7.14,7.14,0,0,0,2.67-4,13.75,13.75,0,0,0,.5-5.33.11.11,0,1,1,.21,0,24.68,24.68,0,0,1,.39,4.85,8.49,8.49,0,0,1-1.54,4.12,8.17,8.17,0,0,1-8,3c-3.26-.6-5.66-3.06-7.44-5.72-2-3-3.6-6.11-5.71-9-1.11-1.51-2.2-3-3.42-4.47s-2.79-2.82-4-4.38C171.48,373.75,171.6,373.57,171.75,373.65Z"/><path class="cls-6" d="M162.59,380.33a67.44,67.44,0,0,0,12.6-2.61c.13-.05.32.32.2.39a30.14,30.14,0,0,1-6.21,2.05,22.18,22.18,0,0,1-6.55.4C162.51,380.55,162.45,380.34,162.59,380.33Z"/><path class="cls-6" d="M21.53,354a166.45,166.45,0,0,1,20.8-11.89,161.49,161.49,0,0,1,22.08-8.55c4.3-1.36,8.65-2.52,13-3.7.13,0,.18.17,0,.21a206.11,206.11,0,0,0-22.29,8.37q-10.87,4.68-21.55,9.76c-4,1.92-8,4-11.93,6.08A.16.16,0,0,1,21.53,354Z"/><path class="cls-4" d="M9.29,315l64.17-2.13S85.4,281.15,90,253,71.42,233.4,47.32,263.56,9.29,315,9.29,315Z"/><path class="cls-8" d="M25.39,296.81a2.71,2.71,0,0,1-1.23.6,2.4,2.4,0,0,1-2.18-.6c-.25.35-.52.71-.75,1.06a3.17,3.17,0,0,0,3.24.5,3,3,0,0,0,1.36-1.11c.3-.45.62-.87.89-1.34C26.24,296.19,25.83,296.51,25.39,296.81Zm50.7-1.33a2.53,2.53,0,0,1-1.23.6,2.43,2.43,0,0,1-2.28-.69,3.2,3.2,0,0,0-3.53-.62,3.29,3.29,0,0,0-1.31,1.15c-.3.44-.62.86-.89,1.33.47-.27.89-.59,1.33-.89a3.27,3.27,0,0,1,1.22-.64,2.43,2.43,0,0,1,2.29.6,3.21,3.21,0,0,0,3.5.72,3,3,0,0,0,1.34-1.12c.3-.44.62-.85.89-1.33C76.94,294.86,76.53,295.18,76.09,295.48ZM49.37,275.66c-.11-.53-.18-1.05-.31-1.58-.15.53-.22,1.05-.33,1.58a2.93,2.93,0,0,1-.4,1.32,2.44,2.44,0,0,1-2,1.19,3.27,3.27,0,0,0-3,2,3,3,0,0,0-.16,1.74c.1.54.18,1.05.32,1.58.14-.53.21-1,.31-1.58a2.68,2.68,0,0,1,.45-1.28,2.39,2.39,0,0,1,2.09-1.12,3.22,3.22,0,0,0,2.94-2.07A3.38,3.38,0,0,0,49.37,275.66Zm35.76-39.59h0a1.65,1.65,0,0,1-.49.06,3.26,3.26,0,0,0-3,2,3.09,3.09,0,0,0-.16,1.76c.1.52.16,1.05.31,1.56.15-.51.21-1,.32-1.56a3,3,0,0,1,.43-1.3,2.49,2.49,0,0,1,2.11-1.12,3.19,3.19,0,0,0,2-.74A6.56,6.56,0,0,0,85.13,236.07Zm-29.6,18A3.06,3.06,0,0,0,56.76,253l.46-.65C56.66,252.88,56.09,253.47,55.53,254.06ZM42.19,312.39a3.18,3.18,0,0,0-1.74-.12c-.53.1-1,.18-1.58.31.54.15,1.05.22,1.58.33a2.93,2.93,0,0,1,1.32.39,2.57,2.57,0,0,1,.63.55l1.43,0v0A3.08,3.08,0,0,0,42.19,312.39ZM85.3,272a3.22,3.22,0,0,0-2.07-2.94,3.28,3.28,0,0,0-1.74-.12c-.53.11-1,.18-1.56.33.51.13,1,.2,1.56.31a2.85,2.85,0,0,1,1.31.4,2.4,2.4,0,0,1,1.2,2,3.22,3.22,0,0,0,1.34,2.64c.1-.44.22-.87.33-1.31A2.23,2.23,0,0,1,85.3,272Z"/><path class="cls-6" d="M70.82,312.61c.34,0,2.6-.4,2.61-.4.16-.84,3.82-14.08,4.79-17,2-5.87,4.26-11.64,6.48-17.42.07-.18.36-.1.3.09-1.45,5-2.81,10-4.29,14.93.44-.71.89-1.41,1.31-2.13.87-1.47,1.63-3,2.44-4.5.07-.13.28,0,.24.11a25,25,0,0,1-2.83,5.9,19.49,19.49,0,0,1-1.67,2.27c-.12.41-.24.82-.37,1.24C78.92,298.63,74.22,313,74,313l-3.1.06C70.71,313,70.64,312.61,70.82,312.61Z"/><path class="cls-6" d="M19.68,302.52c13.84-1,27.77-1.1,41.66-.89q5.89.09,11.79.45c.11,0,.13.17,0,.18-6.92.37-13.85.46-20.79.58s-13.91.2-20.87.14c-3.93,0-7.85-.08-11.78-.19A.14.14,0,0,1,19.68,302.52Z"/><path class="cls-7" d="M85.7,236.25c.24,2.8,10.66,22.27,23.15,23.47C112.91,260.1,116,238,116,238l.6-1.58L125,214.3l-24.37-21.07-3.55-2.83s-1.9,6.2-4.18,13.94c-.11.36-.22.72-.33,1.11s-.28.84-.39,1.25c-.35,1.16-.71,2.33-1,3.52-.26.89-.52,1.77-.75,2.72s-.49,1.88-.75,2.83C87.25,225.19,85.61,235.06,85.7,236.25Z"/><path class="cls-6" d="M92.88,204.34a47.47,47.47,0,0,0,23.71,32.08L125,214.3l-24.37-21.07-3.55-2.83S95.16,196.6,92.88,204.34Z"/><path class="cls-7" d="M154.83,168.54c11.32,39.94-11.32,51.23-19.94,53.66-7.82,2.2-34.73,8.72-50.11-29.83s-.39-56.45,17.23-62.44S143.52,128.6,154.83,168.54Z"/><path class="cls-6" d="M146.23,162.75a25,25,0,0,1-2.87.13,4.58,4.58,0,0,1-2.94-.42,1.47,1.47,0,0,1-.45-1.75,3.65,3.65,0,0,1,3.28-1.73,5.36,5.36,0,0,1,3.74,1A1.57,1.57,0,0,1,146.23,162.75Z"/><path class="cls-6" d="M121.59,175.06a27.89,27.89,0,0,0,2.69-1,4.74,4.74,0,0,0,2.55-1.54,1.49,1.49,0,0,0-.27-1.79,3.65,3.65,0,0,0-3.7-.31,5.41,5.41,0,0,0-3.06,2.37A1.58,1.58,0,0,0,121.59,175.06Z"/><path class="cls-6" d="M128.49,179.15c-.05-.1-.17.19-.14.3.86,2.69,1.39,5.92-.81,7.52-.07.05,0,.19.07.15C130.49,185.84,129.74,181.56,128.49,179.15Z"/><path class="cls-6" d="M125.26,177c-4.47.91-2.31,9.78,1.82,8.93S129,176.23,125.26,177Z"/><path class="cls-6" d="M123.63,177.89c-.65.69-1.2,1.76-2.11,2.08s-2.09-.36-3-1.08c-.1-.08-.16,0-.13.14.39,1.7,1.46,3.29,3.35,3.1,1.71-.18,2.54-2,2.55-3.78C124.28,178,123.89,177.61,123.63,177.89Z"/><path class="cls-6" d="M143.73,174.23c0-.11.24.08.26.19.56,2.77,1.67,5.85,4.37,6.18.09,0,.11.15,0,.16C145.24,181.05,143.81,176.94,143.73,174.23Z"/><path class="cls-6" d="M145.51,170.78c4.34-1.38,6.78,7.42,2.75,8.69S141.86,171.93,145.51,170.78Z"/><path class="cls-6" d="M147.5,170.85c.83.27,1.75.93,2.59.75s1.43-1.35,1.79-2.43c0-.11.13-.06.17.06.51,1.67.43,3.57-1.09,4.34s-2.87-.44-3.74-2C147.06,171.28,147.17,170.74,147.5,170.85Z"/><path class="cls-6" d="M133.86,199.67c.79.52,1.62,1.29,2.65,1.17a7.23,7.23,0,0,0,2.84-1.28.1.1,0,0,1,.15.12,3.81,3.81,0,0,1-3.23,2.2,3,3,0,0,1-2.66-2C133.54,199.7,133.74,199.6,133.86,199.67Z"/><path class="cls-6" d="M142.68,188.31s1.61,3.95,2.11,5.88c0,.18-6.62,3.42-10.91-.54a.21.21,0,0,1,.22-.34,14.27,14.27,0,0,0,9,.26c0-.57-3-6.66-2.68-6.76a17.13,17.13,0,0,1,4.63-.13c-3.11-8.32-7.54-16.07-10.52-24.39-.1-.3.32-.51.48-.26,5.21,7.8,9,17.29,12.44,25.79C147.88,188.88,143.54,188.45,142.68,188.31Z"/><path class="cls-6" d="M121.35,134.35s2.64,5.88,1.27,10.67c-2.83,9.85-14.23,9.3-17.38,13.54-2.95,4-.54,10.77-3.17,14.69-3.63,5.43-9.94,4.62-10.14,7.89s-.6,13.67-4.41,15.62S54.06,135.05,107,128.32c0,0,6.74-4.24,18.85-.4,14,4.45,22.82,24.28,22.82,24.28a18.59,18.59,0,0,0-3-2.26c-2.91-1.81-4.24-3.71-6.34-4.85-3.3-1.78-4.76-.65-8.17-2.36C125.89,140.14,121.35,134.35,121.35,134.35Z"/><path class="cls-6" d="M120.06,131.59a35.8,35.8,0,0,1,2.88,7.77,14.92,14.92,0,0,1,.19,8,11,11,0,0,1-5.24,5.7c-2.35,1.34-5.06,2.06-7.56,3.59a8.29,8.29,0,0,0-3.08,3.24,11.19,11.19,0,0,0-.87,4.29c-.1,2.79-.23,5.54-1.69,7.77a9.23,9.23,0,0,1-6.55,4.14c-2.64.44-5.69.19-8.08,1.79,2.51-1.4,5.37-.91,8.17-1.16a10,10,0,0,0,7.3-4.21c1.8-2.43,1.88-5.56,2-8.25a9.8,9.8,0,0,1,.8-3.82,7.09,7.09,0,0,1,2.65-2.68c2.23-1.42,5-2.21,7.45-3.66a14.22,14.22,0,0,0,3.4-2.68,8.64,8.64,0,0,0,2.22-3.77,15.65,15.65,0,0,0-.53-8.46A36.44,36.44,0,0,0,120.06,131.59Z"/><path class="cls-6" d="M121.46,133.81a28.93,28.93,0,0,0,3.77,6.81,13.68,13.68,0,0,0,6.24,4.91,20.53,20.53,0,0,0,3.87.8,6.33,6.33,0,0,1,3.16,1.42,19.06,19.06,0,0,0,2.8,2.72,8.71,8.71,0,0,0,3.66,1.38A9.62,9.62,0,0,1,141.7,150a20.29,20.29,0,0,1-2.46-2.9,6.73,6.73,0,0,0-3.66-1.94,21,21,0,0,1-3.66-.82,14.5,14.5,0,0,1-5.87-4.35A57.36,57.36,0,0,1,121.46,133.81Z"/><path class="cls-4" d="M80.87,185.3s-16-30.39,1.29-48C100.05,119,125,125.72,125,125.72s-27.13,1.7-38.37,16.4C73.56,159.23,80.87,185.3,80.87,185.3Z"/><path class="cls-5" d="M124.79,194.8a13.15,13.15,0,1,1,10-18.22h0a13.16,13.16,0,0,1-6.82,17.3A13.39,13.39,0,0,1,124.79,194.8Zm-3.92-24.23a11.19,11.19,0,0,0-2.71.8,11.36,11.36,0,1,0,2.71-.8Z"/><path class="cls-5" d="M153.77,186.39c-5,.8-10.29-3.56-12.17-10.16a15.67,15.67,0,0,1,.15-9.6,8.2,8.2,0,0,1,13.49-3.84,15.78,15.78,0,0,1,5.19,8.08c2,7-.63,13.85-5.82,15.33A8.45,8.45,0,0,1,153.77,186.39Zm-5.22-23.94-.66.15a7,7,0,0,0-4.49,4.64,13.91,13.91,0,0,0-.11,8.51c1.72,6,6.57,10,10.84,8.76s6.32-7.11,4.61-13.15a13.93,13.93,0,0,0-4.59-7.18A7.27,7.27,0,0,0,148.55,162.45Z"/><path class="cls-5" d="M134.74,178.16l-1.45-1c1.46-2.16,5.28-5.59,9.31-3.16l-.91,1.51C138.08,173.35,134.88,178,134.74,178.16Z"/><path class="cls-5" d="M77.05,197.94l-1.73-.35c.17-.8,1.7-7.9,5.3-9.58,3.37-1.57,28.91-6.38,29.9-6.57l.32,1.73c-6.67,1.24-26.88,5.21-29.47,6.43C79,190.71,77.44,196,77.05,197.94Z"/><path class="cls-7" d="M91.29,190.61s-11.34-11-16.51-6.74,5.07,21.45,12.33,22.67a7,7,0,0,0,8.53-5.48Z"/><path class="cls-6" d="M77.84,188.72c-.11,0-.1.17,0,.19,5.12,1,8.47,4.94,11.1,9.17-1.75-1.48-3.86-2.08-5.9.06-.1.11,0,.28.18.23a4.31,4.31,0,0,1,5,.58,21,21,0,0,1,3,3.35c.3.38,1,0,.77-.45l-.06-.11C90.8,195.66,84.46,188.08,77.84,188.72Z"/><path class="cls-7" d="M65.11,245s28.63,20.54,45,18.41,14.88-18,14.88-18S108.6,231.06,89.28,232C75.31,232.62,65.11,245,65.11,245Z"/><polygon class="cls-2" points="231.84 410.7 391.74 410.7 414.33 302.1 254.43 302.1 231.84 410.7"/><path class="cls-8" d="M310.69,358.83a9.42,9.42,0,0,0,9.54,10.66A12.13,12.13,0,0,0,332,358.83a9.41,9.41,0,0,0-9.53-10.66A12.13,12.13,0,0,0,310.69,358.83Z"/><path class="cls-4" d="M398.45,169.47c-14.28,0-25.47-30-25.47-68.22S384.17,33,398.45,33s25.46,30,25.46,68.23S412.73,169.47,398.45,169.47Zm0-132c-10.16,0-21,25.63-21,63.8s10.88,63.8,21,63.8,21-25.64,21-63.8S408.61,37.45,398.45,37.45Z"/><path class="cls-4" d="M355.73,142.12c-8.12,0-13.79-2.3-16.37-6.76-3.61-6.25-.5-15.65,8.76-26.45,8.76-10.22,22.11-20.78,37.59-29.72S417,64,430.24,61.49c14-2.61,23.68-.61,27.29,5.64s.5,15.65-8.76,26.46c-8.76,10.22-22.11,20.77-37.59,29.71s-31.3,15.23-44.53,17.7A59.93,59.93,0,0,1,355.73,142.12ZM441.3,64.78a56.61,56.61,0,0,0-10.24,1.06C418.3,68.23,403,74.33,387.93,83s-28,18.91-36.45,28.76c-7.83,9.13-10.85,16.92-8.29,21.36s10.82,5.71,22.64,3.5c12.76-2.39,28.08-8.49,43.14-17.18s28-18.91,36.44-28.76c7.83-9.14,10.85-16.92,8.29-21.36C452,66.34,447.61,64.78,441.3,64.78Z"/><path class="cls-4" d="M441.17,142.12A60,60,0,0,1,430.24,141c-13.23-2.47-29-8.76-44.53-17.7s-28.83-19.49-37.59-29.71c-9.26-10.81-12.37-20.2-8.76-26.46s13.31-8.25,27.29-5.64c13.23,2.48,29.05,8.77,44.53,17.7s28.83,19.5,37.59,29.72c9.26,10.8,12.37,20.2,8.76,26.45C455,139.82,449.29,142.12,441.17,142.12ZM355.59,64.78c-6.31,0-10.66,1.56-12.4,4.57-2.56,4.44.46,12.22,8.29,21.36,8.44,9.85,21.39,20.06,36.45,28.76s30.37,14.79,43.13,17.18c11.83,2.21,20.08.94,22.64-3.5s-.46-12.23-8.29-21.36C437,101.94,424,91.72,409,83s-30.38-14.8-43.14-17.19A56.52,56.52,0,0,0,355.59,64.78Z"/><circle class="cls-4" cx="398.45" cy="101.25" r="10.02"/><polygon class="cls-4" points="324.52 98.05 256.01 211.53 187.5 98.05 238.47 98.05 256.01 131.01 273.55 98.05 324.52 98.05"/><polygon class="cls-9" points="298.25 98.05 256.01 170.03 213.77 98.05 238.47 98.05 256.01 131.01 273.55 98.05 298.25 98.05"/><polygon class="cls-4" points="574.68 198.14 557.21 296.75 499.51 315.06 441.81 296.75 424.34 198.14 499.51 161.45 574.68 198.14"/><polygon class="cls-9" points="499.51 307.21 499.51 169.29 566.92 202.21 551.25 290.63 499.51 307.21"/><path class="cls-8" d="M492.91,198.77h13.31l29.48,77.5H520.2L513,257H485.92l-7.1,19.32h-15.5Zm17.35,47.59-10.7-30.46-11.13,30.46Z"/></svg>