<svg id="Слой_1" data-name="Слой 1" xmlns="http://www.w3.org/2000/svg" xmlns:xlink="http://www.w3.org/1999/xlink" viewBox="0 0 581.13 402.55"><defs><style>.cls-1{fill:none;}.cls-2{clip-path:url(#clip-path);}.cls-3{fill:#4a148c;}.cls-4{fill:#fff;}.cls-5{fill:#dcdcdc;}.cls-6{fill:#306;}.cls-7{fill:#ffc800;}.cls-8{opacity:0.1;}.cls-9{fill:#e55f4e;}.cls-10{fill:#ececec;}.cls-11{fill:#c8c8c8;}.cls-12{fill:#a8a8a8;}.cls-13{fill:#ff9bbe;}</style><clipPath id="clip-path"><rect class="cls-1" x="-76.07" y="-120.95" width="674.08" height="735.86"/></clipPath></defs><g class="cls-2"><path class="cls-3" d="M129.17,434a3.79,3.79,0,0,1,3.53-1.86c.39,0,.79,0,1.18,0s.8,0,1.19,0a3.78,3.78,0,0,1,3.52,1.85l2.46,4.26,13.87-8L152.47,426a3.8,3.8,0,0,1,.14-4,23.59,23.59,0,0,0,1.19-2.07,3.82,3.82,0,0,1,3.39-2.1h4.9v-16h-4.9a3.83,3.83,0,0,1-3.39-2.11,22,22,0,0,0-1.19-2.06,3.8,3.8,0,0,1-.14-4l2.45-4.26-13.87-8-2.47,4.28a3.79,3.79,0,0,1-3.52,1.85c-.39,0-.78,0-1.18,0s-.79,0-1.18,0a3.79,3.79,0,0,1-3.53-1.86l-2.46-4.27-13.87,8,2.46,4.24a3.82,3.82,0,0,1-.14,4,20.26,20.26,0,0,0-1.2,2.07,3.81,3.81,0,0,1-3.38,2.11h-4.91v16h4.91a3.79,3.79,0,0,1,3.38,2.11,21.39,21.39,0,0,0,1.2,2.07,3.8,3.8,0,0,1,.14,4l-2.46,4.25,13.87,8Zm-8.41-24.18a13.12,13.12,0,1,1,13.12,13.12A13.13,13.13,0,0,1,120.76,409.82Z"/><rect class="cls-4" x="161.93" y="121.78" width="509.67" height="77.25" transform="translate(833.52 320.81) rotate(-180)"/><path class="cls-5" d="M161.06,120.92h511.4v79H161.06Zm509.67,1.72H162.79v75.53H670.73Z"/><path class="cls-3" d="M557.63,142.71a42.83,42.83,0,0,0-2,8.85,71.05,71.05,0,0,0-.56,8.85,69.15,69.15,0,0,0,.56,8.84,42.2,42.2,0,0,0,2,8.85,41.61,41.61,0,0,0,2-8.85,67.36,67.36,0,0,0,.55-8.84,69.19,69.19,0,0,0-.56-8.85A41.58,41.58,0,0,0,557.63,142.71Z"/><path class="cls-3" d="M539.94,160.4a41.58,41.58,0,0,0,8.85,2,69.15,69.15,0,0,0,8.84.56,67.4,67.4,0,0,0,8.85-.55,41.39,41.39,0,0,0,8.84-2,42,42,0,0,0-8.84-2,67.4,67.4,0,0,0-8.85-.55,69.15,69.15,0,0,0-8.84.56A42.17,42.17,0,0,0,539.94,160.4Z"/><path class="cls-3" d="M545.13,147.9a41.91,41.91,0,0,0,4.81,7.69,70.32,70.32,0,0,0,12.51,12.51,41.91,41.91,0,0,0,7.69,4.81,41.91,41.91,0,0,0-4.81-7.69,71.43,71.43,0,0,0-5.86-6.65,68.81,68.81,0,0,0-6.66-5.85A41,41,0,0,0,545.13,147.9Z"/><path class="cls-3" d="M545.13,172.91a41,41,0,0,0,7.68-4.82,68.81,68.81,0,0,0,6.66-5.85,71.43,71.43,0,0,0,5.86-6.65,41.91,41.91,0,0,0,4.81-7.69,41.91,41.91,0,0,0-7.69,4.81,70.32,70.32,0,0,0-12.51,12.51A41.91,41.91,0,0,0,545.13,172.91Z"/><path class="cls-3" d="M488.67,142.71a42.2,42.2,0,0,0-2,8.85,70.76,70.76,0,0,0,0,17.69,41.61,41.61,0,0,0,2,8.85,41.61,41.61,0,0,0,2-8.85,70.76,70.76,0,0,0,0-17.69A42.2,42.2,0,0,0,488.67,142.71Z"/><path class="cls-3" d="M471,160.4a41.58,41.58,0,0,0,8.85,2,68.92,68.92,0,0,0,8.84.56,67.4,67.4,0,0,0,8.85-.55,41.66,41.66,0,0,0,8.84-2,42.25,42.25,0,0,0-8.84-2,67.4,67.4,0,0,0-8.85-.55,68.92,68.92,0,0,0-8.84.56A42.17,42.17,0,0,0,471,160.4Z"/><path class="cls-3" d="M476.16,147.9a42.5,42.5,0,0,0,4.82,7.69,71.43,71.43,0,0,0,5.86,6.65,69,69,0,0,0,6.65,5.86,41.25,41.25,0,0,0,7.69,4.81,41.91,41.91,0,0,0-4.81-7.69,70.1,70.1,0,0,0-5.87-6.65,67.52,67.52,0,0,0-6.65-5.85A41.42,41.42,0,0,0,476.16,147.9Z"/><path class="cls-3" d="M476.16,172.91a41.42,41.42,0,0,0,7.69-4.82,67.52,67.52,0,0,0,6.65-5.85,70.1,70.1,0,0,0,5.87-6.65,41.91,41.91,0,0,0,4.81-7.69,41.25,41.25,0,0,0-7.69,4.81,69,69,0,0,0-6.65,5.86,71.43,71.43,0,0,0-5.86,6.65A42.5,42.5,0,0,0,476.16,172.91Z"/><path class="cls-3" d="M419.71,142.71a42.2,42.2,0,0,0-2,8.85,69.19,69.19,0,0,0-.56,8.85,67.36,67.36,0,0,0,.55,8.84,41.61,41.61,0,0,0,2,8.85,41.61,41.61,0,0,0,2-8.85,70.76,70.76,0,0,0,0-17.69A42.2,42.2,0,0,0,419.71,142.71Z"/><path class="cls-3" d="M402,160.4a41.49,41.49,0,0,0,8.84,2,69.19,69.19,0,0,0,8.85.56,67.25,67.25,0,0,0,8.84-.55,41.61,41.61,0,0,0,8.85-2,42.2,42.2,0,0,0-8.85-2,67.25,67.25,0,0,0-8.84-.55,69.19,69.19,0,0,0-8.85.56A42.08,42.08,0,0,0,402,160.4Z"/><path class="cls-3" d="M407.2,147.9a42.5,42.5,0,0,0,4.82,7.69,68.63,68.63,0,0,0,5.86,6.65,70,70,0,0,0,6.64,5.86,41.66,41.66,0,0,0,7.7,4.81,41.42,41.42,0,0,0-4.82-7.69,68.63,68.63,0,0,0-5.86-6.65,69.9,69.9,0,0,0-6.65-5.85A41.42,41.42,0,0,0,407.2,147.9Z"/><path class="cls-3" d="M407.2,172.91a41.42,41.42,0,0,0,7.69-4.82,69.9,69.9,0,0,0,6.65-5.85,68.63,68.63,0,0,0,5.86-6.65,41.42,41.42,0,0,0,4.82-7.69,41.66,41.66,0,0,0-7.7,4.81,70,70,0,0,0-6.64,5.86,68.63,68.63,0,0,0-5.86,6.65A42.5,42.5,0,0,0,407.2,172.91Z"/><path class="cls-3" d="M350.75,142.71a41.58,41.58,0,0,0-2,8.85,69.19,69.19,0,0,0-.56,8.85,67.36,67.36,0,0,0,.55,8.84,41.61,41.61,0,0,0,2,8.85,42.2,42.2,0,0,0,2-8.85,67.36,67.36,0,0,0,.55-8.84,69.17,69.17,0,0,0-.55-8.85A42.83,42.83,0,0,0,350.75,142.71Z"/><path class="cls-3" d="M333.05,160.4a41.58,41.58,0,0,0,8.85,2,69.19,69.19,0,0,0,8.85.56,67.36,67.36,0,0,0,8.84-.55,41.61,41.61,0,0,0,8.85-2,42.2,42.2,0,0,0-8.85-2,67.36,67.36,0,0,0-8.84-.55,69.19,69.19,0,0,0-8.85.56A42.17,42.17,0,0,0,333.05,160.4Z"/><path class="cls-3" d="M338.24,147.9a41.42,41.42,0,0,0,4.82,7.69,69.9,69.9,0,0,0,5.85,6.65,71.43,71.43,0,0,0,6.65,5.86,41.91,41.91,0,0,0,7.69,4.81,41.91,41.91,0,0,0-4.81-7.69,71.43,71.43,0,0,0-5.86-6.65,69.9,69.9,0,0,0-6.65-5.85A41.42,41.42,0,0,0,338.24,147.9Z"/><path class="cls-3" d="M338.24,172.91a41.42,41.42,0,0,0,7.69-4.82,69.9,69.9,0,0,0,6.65-5.85,71.43,71.43,0,0,0,5.86-6.65,41.91,41.91,0,0,0,4.81-7.69,41.91,41.91,0,0,0-7.69,4.81,71.43,71.43,0,0,0-6.65,5.86,69.9,69.9,0,0,0-5.85,6.65A41.42,41.42,0,0,0,338.24,172.91Z"/><path class="cls-3" d="M281.78,142.71a42.2,42.2,0,0,0-2,8.85,71.05,71.05,0,0,0-.56,8.85,69.15,69.15,0,0,0,.56,8.84,41.58,41.58,0,0,0,2,8.85,41.61,41.61,0,0,0,2-8.85,67.36,67.36,0,0,0,.55-8.84,69.19,69.19,0,0,0-.56-8.85A42.2,42.2,0,0,0,281.78,142.71Z"/><path class="cls-3" d="M264.09,160.4a41.58,41.58,0,0,0,8.85,2,69,69,0,0,0,8.84.56,67.4,67.4,0,0,0,8.85-.55,41.52,41.52,0,0,0,8.84-2,42.11,42.11,0,0,0-8.84-2,67.4,67.4,0,0,0-8.85-.55,69,69,0,0,0-8.84.56A42.17,42.17,0,0,0,264.09,160.4Z"/><path class="cls-3" d="M269.27,147.9a42.5,42.5,0,0,0,4.82,7.69,71.43,71.43,0,0,0,5.86,6.65,69,69,0,0,0,6.65,5.86,41.25,41.25,0,0,0,7.69,4.81,41.91,41.91,0,0,0-4.81-7.69,70.1,70.1,0,0,0-5.87-6.65,67.52,67.52,0,0,0-6.65-5.85A41.09,41.09,0,0,0,269.27,147.9Z"/><path class="cls-3" d="M269.27,172.91a41.09,41.09,0,0,0,7.69-4.82,67.52,67.52,0,0,0,6.65-5.85,70.1,70.1,0,0,0,5.87-6.65,41.91,41.91,0,0,0,4.81-7.69,41.25,41.25,0,0,0-7.69,4.81,69,69,0,0,0-6.65,5.86,71.43,71.43,0,0,0-5.86,6.65A42.5,42.5,0,0,0,269.27,172.91Z"/><path class="cls-3" d="M329.61,144.79v94h26.58v-94C356.19,109,383.35,80,416.76,80s60.57,29.08,60.57,64.84v94h26.58v-94c0-51.22-39.09-92.87-87.15-92.87S329.61,93.57,329.61,144.79Z"/><polygon class="cls-6" points="503.91 169.24 477.33 170.31 477.33 238.83 503.91 238.83 503.91 169.24"/><polygon class="cls-6" points="329.61 176.34 329.61 238.83 356.19 238.83 356.19 175.25 329.61 176.34"/><rect class="cls-7" x="295.55" y="185.28" width="242.42" height="219.93" transform="translate(833.52 590.49) rotate(-180)"/><rect class="cls-8" x="295.55" y="185.28" width="121.21" height="219.93" transform="translate(712.31 590.49) rotate(-180)"/><path class="cls-6" d="M406.51,303.3l-10.15,48.13h43.07L429.28,303.3a21.54,21.54,0,1,0-22.77,0Z"/><path class="cls-9" d="M256.22,372l47,38c9,7.22,16.82,13.71,20.54,17.44a.34.34,0,0,1,.06.06c1.4,1.41,2.21,2.41,2.25,2.9a.44.44,0,0,1,0,.1c-.33,4.14-55.92,78-58.73,79.91s-8.5-5.93-8.63-10.51,8.52-42.39,8.52-42.39l-46.64-38.43Z"/><path class="cls-10" d="M293.62,402.24l9.65,7.8c9,7.22,16.82,13.71,20.54,17.44a.34.34,0,0,1,.06.06,15.49,15.49,0,0,1,2.25,2.9.44.44,0,0,1,0,.1c-.33,4.14-55.92,78-58.73,79.91s-8.5-5.93-8.63-10.51,8.52-42.39,8.52-42.39l-9.91-7.78Z"/><path class="cls-3" d="M230.79,326.73c3.33,16.45,71.59,82.1,71.59,82.1l-47.59,54.92S157.89,367,163,330.68c4.4-31.62,51.73-158.76,51.73-158.76h54.61S227.52,310.56,230.79,326.73Z"/><path class="cls-3" d="M230.79,326.73c3.33,16.45,71.59,82.1,71.59,82.1l-47.59,54.92S157.89,367,163,330.68c4.4-31.62,51.73-158.76,51.73-158.76h54.61S227.52,310.56,230.79,326.73Z"/><path class="cls-6" d="M224,318.71c.78-4.1,1.67-8.19,2.54-12.28q2.67-12.53,5.64-25,5.9-24.7,12.83-49.14c4.65-16.34,9.57-32.66,15.24-48.68.7-2,1.42-4,2.14-5.92.06-.15.29-.09.24.07-4.91,16-10,32.06-14.57,48.2s-8.82,32.24-12.82,48.47c-2,8.15-3.87,16.34-5.7,24.53q-1.35,6-2.63,12.09c-.87,4.09-2,8.27-2.29,12.46a19,19,0,0,0,3.21,11.22c2,3.35,4.46,6.5,6.79,9.66,4.66,6.33,49.11,55.86,50.54,57.2.11.11-.06.27-.17.17-6-5.36-43.68-46.18-48.47-52.5q-3.56-4.68-6.94-9.49c-2.12-3-4.25-6-5.43-9.56C222.9,326.45,223.28,322.55,224,318.71Z"/><path class="cls-6" d="M224.13,171.91,234,302c9.46-44.53,35.24-130.11,35.24-130.11Z"/><path class="cls-3" d="M219.94,171.92a220.64,220.64,0,0,1,4.7,27.25c1.13,11.43,2.56,21.54,4.09,22.79,1.72,1.42,10.35,7,13.26,8.74,0,0-26.91,81.57-33.85,108.75C198.07,378.87,174,497.13,174,497.13H238.2S257.73,384.54,266.27,347c7.32-32.17,35.36-128.68,35.36-128.68,10.21-25.09-2.27-46.41-2.27-46.41S219.94,171.88,219.94,171.92Z"/><path class="cls-6" d="M224.17,218.74a122.64,122.64,0,0,1,17.73,11.87.22.22,0,0,1-.24.36c-6-3.76-12.16-7.42-17.95-11.51A.43.43,0,0,1,224.17,218.74Z"/><path class="cls-6" d="M229.08,174.37c0-.22.45-.21.41,0-1.24,7.63-1.79,14.43-2.26,21.67-.21,3.36-.39,22.09,5.56,21.65,1-.08,1.64-.95,2-2.38.45-1.71.12-4,.11-5.73,0-3.94,0-7.86.31-11.79a106.37,106.37,0,0,1,3.6-21.63.18.18,0,0,1,.36.08,201.14,201.14,0,0,0-2.89,30.18c0,4.88,1.27,12.42-3.83,12.38s-6.61-12.56-6.72-15.94A111,111,0,0,1,229.08,174.37Z"/><path class="cls-6" d="M232.56,218.18a32.23,32.23,0,0,1,.71,4,8.67,8.67,0,0,1,0,3.21c0,.2-.32.17-.41,0a11.16,11.16,0,0,1-.86-3.24c-.26-1.25-.54-2.48-.76-3.73A.65.65,0,0,1,232.56,218.18Z"/><path class="cls-6" d="M292.53,217.87c-6.57-.68-9.93-1-16.28-3.08a38.46,38.46,0,0,1-15.78-9.74,31,31,0,0,1-6.06-8.47c0-.12-.25,0-.2.09a28.22,28.22,0,0,0,4.28,8.48,32.41,32.41,0,0,0,6.95,6.64,36.42,36.42,0,0,0,17.67,6.82,28.37,28.37,0,0,0,9.51-.15C293,218.4,292.83,217.9,292.53,217.87Z"/><path class="cls-6" d="M245.67,449.23c.17-1.48.37-3,.58-4.45.4-2.85.88-5.68,1.32-8.52.88-5.71,1.86-11.4,2.87-17.09,2-11.35,4.34-22.65,6.79-33.91,1.39-6.36,3-12.65,4.7-18.94.12-.43.74-.22.66.2-1,5.76-2,11.51-3.2,17.24s-2.35,11.42-3.48,17.14c-2.24,11.3-4.33,22.63-6.57,33.93-.63,3.19-1.2,6.39-1.83,9.59-.31,1.59-.63,3.18-1,4.77s-.84,3.13-1.1,4.73c0,.15-.25.08-.22-.07C245.46,452.33,245.49,450.77,245.67,449.23Z"/><path class="cls-6" d="M201.37,363.88c2.14-10.65,5-21.18,7.93-31.65,5.83-21.08,12.71-41.85,19.56-62.61q3-9,5.93-18c1-3,5.83-19.12,6.43-20.66a.13.13,0,0,1,.25.08c-1.39,5.49-3.29,13.51-4.89,18.95s-3.32,10.71-5,16.06c-3.28,10.52-6.62,21-9.8,31.56-6.3,20.84-12.55,41.68-17.66,62.85-1.44,5.93-2.86,11.86-4.17,17.82s-2.42,11.93-3.67,17.89c0,.17-.3.12-.29,0C197.08,385.32,199.23,374.58,201.37,363.88Z"/><path class="cls-6" d="M241.31,419.64c3.53-20.33,7.77-40.56,12.46-60.65s10-40.27,15.75-60.19,12.2-39.65,19.08-59.21c3.27-9.27,6.59-18.56,8.73-28.17s3.19-19.77,1-29.35a48.28,48.28,0,0,0-2.2-7.14c-.06-.16.17-.29.24-.13,7.73,18,2.71,37.69-3.17,55.44-3.22,9.72-6.66,19.37-9.84,29.11q-4.89,15-9.38,30.12c-5.92,20-11.43,40.07-16.36,60.32s-9.32,40.62-13.18,61.09S237.28,452.05,234,472.7c-.43,2.68-.77,5.38-1.12,8.08,0,.15-.25.14-.24,0C235.09,460.32,237.78,439.94,241.31,419.64Z"/><path class="cls-9" d="M242.61,86.63c-7.55,27.62-29.33,61-39.66,65.54-9,4-50.84-11.46-66.62-21.51-4.5-2.87,14.06-28.72,19.47-26.91,17.66,5.88,36.88,14.58,38.37,14.08,3-1,21.76-24,35.41-39.48C244.87,61,245.62,75.63,242.61,86.63Z"/><path class="cls-9" d="M106.46,107.31c-3.55-1.49-30.93-2.36-30.91-8.3s34.83-4.27,34.83-4.27Z"/><path class="cls-9" d="M159,108c-4.79-6-9-12.36-13.15-13.53-2.88-.82-33.87.52-38.71.23S85,94.85,84.58,99.09c-.56,6,19.88,6,22.06,9,7.54,10.59,36.18,26.25,36.18,26.25Z"/><path class="cls-6" d="M84.13,99.18a4.66,4.66,0,0,1,2-2.67C88.22,95,91,94.9,93.5,94.7a67.33,67.33,0,0,1,11.36-.09.07.07,0,0,1,0,.13c-2.83,0-5.66.07-8.49.31a34.79,34.79,0,0,0-7.67,1.17,6.35,6.35,0,0,0-3,1.78,2.45,2.45,0,0,0-.58,2.28c.83,2.61,6,3.39,8.36,3.92,3.12.7,6.34,1.31,9.47,2,.13,0,.07.23-.07.21-3.24-.65-6.67-.89-9.93-1.48-2.64-.48-5.47-1-7.6-2.77A3,3,0,0,1,84.13,99.18Z"/><path class="cls-7" d="M160.14,104.34l-24.51,35.9s38,19,52.52,18.69c13.84-.33,18.85-2.37,23.22-6.49,2.7-2.56,18.09-24.29,30.64-60.38,10.53-30.3-5-25.83-18.94-9.06-6.93,8.36-29.08,33.28-30.18,33.19S160.14,104.34,160.14,104.34Z"/><path class="cls-6" d="M167.69,110.18c-3.68,5.31-7.19,10.73-10.67,16.18C155.31,129,149,139.91,147.1,143c-.07.12.26.32.35.21,1.91-2.73,8.84-13.59,10.5-16.29,3.38-5.5,6.73-11,9.9-16.64A.09.09,0,0,0,167.69,110.18Z"/><path class="cls-8" d="M180.81,158a31.74,31.74,0,0,0,7.35.91c13.82-.32,18.84-2.37,23.2-6.5,2.71-2.54,18.1-24.27,30.64-60.38,2.42-7,3.47-12.1,3.47-15.66,0-.33,0-.67,0-1a9,9,0,0,0-.09-.92,7.27,7.27,0,0,0-.13-.75,5.27,5.27,0,0,0-1.51-2.95C235.22,82.23,195,136.52,180.81,158Z"/><rect class="cls-11" x="90.79" y="89.59" width="92.97" height="5"/><polygon class="cls-12" points="90.79 89.59 90.79 94.59 147.25 94.59 143.43 89.59 90.79 89.59"/><polygon class="cls-11" points="139.32 94.59 77.15 94.59 44.79 39.64 106.97 39.64 139.32 94.59"/><path class="cls-4" d="M94.38,67.08c1.16,2.55.31,5.22-1.91,6s-5-.69-6.11-3.23-.3-5.22,1.91-6S93.22,64.54,94.38,67.08Z"/><path class="cls-10" d="M305.34,190.84c-.23.25-97.34-.45-98.21-1.46C205.9,188,228.91,83,239,70.08c2.16-2.75,9.2-3.45,15.17-2.65a25.83,25.83,0,0,1,4.6,1l.15,0a11.25,11.25,0,0,1,3.37,1.69c16.5,13.45,30,60,33.14,74C300.63,167.16,306.15,189.93,305.34,190.84Z"/><path class="cls-7" d="M260,68.66s-6.34,43.23-7.83,54.41-.07,70.37-.07,70.37L313,198.58s-12.77-39.3-12.9-41.79c0,0-10.11-47.22-20.53-66.73A59.06,59.06,0,0,0,260,68.66Z"/><path class="cls-7" d="M239.68,69.41s-8.23,43.73-9,47.34-11.27,74.66-11.27,74.66l-15.26.32,8.29-32.45S230.17,76.13,239.68,69.41Z"/><path class="cls-9" d="M243.12,83.39c4.63.53,13.4-5.91,15.84-12.74.17-.47-1.21-4.91-2.63-10.38-.85-3.32-1.72-7-2.27-10.49-.1-.71-20.82,8.68-20.82,8.68a55.4,55.4,0,0,1,4.19,12.93,7.92,7.92,0,0,1,.08,1.44,1.91,1.91,0,0,0,0,.24C237.5,75.83,238.15,82.83,243.12,83.39Z"/><path class="cls-6" d="M237.5,72.83c0,.07,0,.15,0,.24a15.59,15.59,0,0,0,2.23-.24c12.7-2.3,13.54-18.78,13.55-22.93-3.76,1.16-20.06,8.56-20.06,8.56a55.91,55.91,0,0,1,4.2,12.93A7.89,7.89,0,0,1,237.5,72.83Z"/><path class="cls-9" d="M253.83,22.26c3.32,7.42,2.06,30.21-2.8,35.87-7.05,8.2-20,10.53-27.31,1.74-7.09-8.52-4.92-38.2.64-43.48C232.55,8.6,248.92,11.31,253.83,22.26Z"/><path class="cls-6" d="M237,38.4c0-.06.11.07.11.14-.13,1.53,0,3.31,1.35,3.89,0,0,0,.09,0,.08C236.8,42.19,236.67,39.83,237,38.4Z"/><path class="cls-6" d="M238.49,36.86c2.48-.06,2.42,4.9.12,5S236.41,36.91,238.49,36.86Z"/><path class="cls-6" d="M227.58,38.33c0-.06-.12.07-.12.13,0,1.54-.19,3.3-1.59,3.8,0,0,0,.09,0,.08C227.59,42.13,227.86,39.78,227.58,38.33Z"/><path class="cls-6" d="M226.23,36.7c-2.47-.21-2.72,4.74-.43,4.94S228.3,36.88,226.23,36.7Z"/><path class="cls-6" d="M240.48,34.61a18.27,18.27,0,0,1-1.92-.69,3.39,3.39,0,0,1-1.82-1.09,1.06,1.06,0,0,1,.19-1.27,2.63,2.63,0,0,1,2.63-.24A3.86,3.86,0,0,1,241.74,33,1.12,1.12,0,0,1,240.48,34.61Z"/><path class="cls-6" d="M224.34,32.53a16.83,16.83,0,0,0,2-.49,3.23,3.23,0,0,0,1.92-.88,1.05,1.05,0,0,0,0-1.28,2.6,2.6,0,0,0-2.59-.52,3.82,3.82,0,0,0-2.35,1.43A1.12,1.12,0,0,0,224.34,32.53Z"/><path class="cls-6" d="M237.55,52.62c-.37.36-.75.85-1.31.89a3.93,3.93,0,0,1-1.64-.41.06.06,0,0,0-.07.08,2.07,2.07,0,0,0,1.94.86,1.65,1.65,0,0,0,1.23-1.35C237.72,52.6,237.6,52.57,237.55,52.62Z"/><path class="cls-6" d="M236,48a5.26,5.26,0,0,1-3.53,2.29,6.57,6.57,0,0,1-1.88.06,2.09,2.09,0,0,1-.36,0l-.33-.06a.39.39,0,0,1-.31-.35h0a.47.47,0,0,1,0-.16h0v-.13c0-1.19.12-3,.12-3-.44.21-2.65,1.17-2.61.55.37-5.11.77-10.8,2.22-15.82,0-.16.29-.12.28.05-.16,4.93-1.18,9.8-1.42,14.75a9.14,9.14,0,0,1,2.48-.72c.17,0-.32,3.47-.27,4a.28.28,0,0,0,0,.06c2,.28,3.49-.31,5.43-1.62C236,47.77,236.08,47.88,236,48Z"/><path class="cls-6" d="M231.29,49.76a6.21,6.21,0,0,0,2.46,2,2.88,2.88,0,0,0,1.7.12c1.23-.31,1.27-1.43,1.06-2.4A7,7,0,0,0,236,48,8,8,0,0,1,231.29,49.76Z"/><path class="cls-13" d="M233.75,51.72a2.88,2.88,0,0,0,1.7.12c1.23-.31,1.27-1.43,1.06-2.4A2.89,2.89,0,0,0,233.75,51.72Z"/><path class="cls-6" d="M255.72,42s5.51-13.67,3.63-20.75c-.84-3.2-5.63-4.67-5.63-4.67a7.44,7.44,0,0,0-3.53-7c-4.43-3-13.61-.67-13.61-.67S229.12,1.12,221.15,6s-.84,13.63-.84,13.63-2.41,5,5.81,7.18c8,2.18,22.7-3.64,22.7-3.64a53.72,53.72,0,0,0,2.81,15.75A4.89,4.89,0,0,0,255.72,42Z"/><path class="cls-6" d="M235.13,9.22A15.06,15.06,0,0,1,241,7.14a16.42,16.42,0,0,1,5.55,0c3.25.6,6.35,2.42,7.42,5.71a6.34,6.34,0,0,1-.42,4.92c0,.06-.13,0-.09-.06,1.57-2.77-.08-6.4-2.46-8.12-2.68-1.94-6.36-2.24-9.55-1.86a27.17,27.17,0,0,0-6.19,1.69A.09.09,0,1,1,235.13,9.22Z"/><path class="cls-6" d="M215.71,11.09A7.4,7.4,0,0,1,220,5.6a12.68,12.68,0,0,1,8.13-1,15.88,15.88,0,0,1,7.41,3.82s0,.13-.07.09a14,14,0,0,0-14-2.76,7.63,7.63,0,0,0-4.86,4.62,7.6,7.6,0,0,0,1.22,6.31,14.21,14.21,0,0,0,6.39,4.61c.05,0,0,.11,0,.09A14.6,14.6,0,0,1,218,17.57,8.32,8.32,0,0,1,215.71,11.09Z"/><path class="cls-6" d="M224.34,27.49a26,26,0,0,0,11,.11,53.29,53.29,0,0,0,11.05-3.39c2.08-.87,4.12-1.82,6.14-2.81.06,0,.11.07.05.1a58,58,0,0,1-11,5.46,29.33,29.33,0,0,1-11.18,1.72,25.24,25.24,0,0,1-6.14-1.11C224.26,27.55,224.29,27.48,224.34,27.49Z"/><path class="cls-9" d="M250.51,41.38s4.29-7.75,7.76-6.3.77,12.33-2.93,14.16a3.93,3.93,0,0,1-5.46-1.55Z"/><path class="cls-6" d="M257.42,38.18a.05.05,0,0,1,0,.1c-2.58,1.38-3.74,4-4.46,6.73.7-1.09,1.73-1.75,3.17-.94a.09.09,0,0,1-.06.16,2.41,2.41,0,0,0-2.56,1.12,11.66,11.66,0,0,0-1,2.27c-.1.26-.55.17-.49-.11a.14.14,0,0,1,0-.07C251.59,44,253.76,38.91,257.42,38.18Z"/><path class="cls-9" d="M272.21,78.6c24.45,27.45,42.84,66.11,42.62,75.21-.24,10-13,45.28-25.13,61.85-1.56,2.13-11,1.24-19-3.17-8.44-4.64-15.36-12.93-13.7-15.4,6.22-9.27,21-45.19,20.86-50.8-.13-5.2-12.23-37-16.84-55.37C256.56,73.26,260.84,65.83,272.21,78.6Z"/><path class="cls-7" d="M304.55,213,259,190.72s17.91-39.95,17.94-44.27-11.78-38.1-16.22-53.71S258,59.59,277.46,83.2s36.43,58.69,38.37,68S304.55,213,304.55,213Z"/><path class="cls-6" d="M274.62,135q-1.41-4.44-2.91-8.86-1.68-5-3.49-9.85c-1.19-3.18-2.52-6.29-3.79-9.43-.09-.23-.49-.08-.41.15,1.51,4.2,2.93,8.45,4.34,12.69-1.06-1.93-2.14-3.86-3.28-5.75a.14.14,0,0,0-.25.14c1.27,2.34,2.61,4.65,4,6.94l1,3.07c1.91,5.7,3.75,11.44,5.39,17.22a20,20,0,0,1,.82,4,12.26,12.26,0,0,1-.68,4.53c-.83,2.67-1.75,5.31-2.7,7.95-1.89,5.28-4,10.51-6.13,15.69-2.47,5.89-5.28,11.73-8.08,17.47,0,0,1.7.45,1.75.49s.13-.05.09-.1-1.07-.56-1.1-.56c2.85-5,5.57-9.86,8-15.09s4.5-10.44,6.41-15.79c1-2.75,1.93-5.53,2.81-8.32a15.59,15.59,0,0,0,.76-8.14A86.43,86.43,0,0,0,274.62,135Z"/><path class="cls-6" d="M305.3,200.14a46,46,0,0,0-5-2.35c-1.49-.69-3-1.41-4.45-2.08-3.26-1.47-6.5-3-9.77-4.41s-6.5-2.91-9.77-4.33-6.47-2.93-9.79-4.16c-.13-.05-.21.15-.1.22,3,1.85,6.25,3.4,9.42,5s6.31,3,9.5,4.46,6.54,2.82,9.84,4.16c1.59.64,3.21,1.23,4.82,1.82a42.18,42.18,0,0,0,5.19,1.85C305.32,200.32,305.39,200.19,305.3,200.14Z"/></g></svg>