<svg id="Слой_1" data-name="Слой 1" xmlns="http://www.w3.org/2000/svg" viewBox="0 0 1800 1000"><defs><style>.cls-1{fill:#ececec;}.cls-2{fill:#dcdcdc;}.cls-3{fill:#a8a8a8;}.cls-4{fill:#306;}.cls-5{fill:#ff9581;}.cls-6{fill:#ffc800;}.cls-7{fill:#fff;}.cls-8{fill:#ff99bc;}.cls-9{fill:#4a148c;}.cls-10{fill:#c36358;}.cls-11{opacity:0.1;}.cls-12{fill:#1a2e35;}.cls-13{fill:#4c1b93;}</style></defs><path class="cls-1" d="M643.17,482.82c-17.44.14-44.14.44-61.38.45h-.44v-.45l-.06-25.93v-.5h.5l30.69.06,30.69.16h.28v.28l-.27,25.93Zm0,0-.27-25.93.27.27-30.69.16-30.69.06.5-.49,0,25.93-.45-.44c17.12,0,44.07.27,61.38.44Z"/><path class="cls-1" d="M608.93,515.53c-17.43.13-44.14.44-61.38.44h-.44v-.44l-.06-25.94v-.5h.5l30.69.06,30.69.17h.28v.27l-.27,25.94Zm0,0-.27-25.94.27.27-30.69.17-30.69.06.5-.5,0,25.94-.45-.45c17.12,0,44.07.28,61.38.45Z"/><path class="cls-1" d="M677.41,515.53c-17.44.13-44.14.44-61.38.44h-.44v-.44l-.05-25.94v-.5h.5l30.69.06,30.69.17h.27v.27l-.27,25.94Zm0,0-.27-25.94.27.27-30.69.17-30.69.06.5-.5,0,25.94-.45-.45c17.11,0,44.07.28,61.38.45Z"/><path class="cls-1" d="M105.34,667.57C87.91,667.7,61.2,668,44,668h-.45v-.44l-.05-25.94v-.5H44l30.68.06,30.69.17h.28v.27l-.28,25.94Zm0,0-.27-25.94.27.27-30.69.17L44,642.13l.5-.5-.06,25.94-.44-.45c17.11,0,44.07.28,61.37.45Z"/><path class="cls-2" d="M14,1007.49,297.9,993.23,241.22,663.47H28.61Q21.32,835.47,14,1007.49Z"/><path class="cls-3" d="M13,1002.44l25.26-1q7.13-169,14.24-338H28.61Z"/><path class="cls-4" d="M182.19,519.65c-26.39,26.26-34,69.47-34,69.47S122.91,632.67,130,656.24s27.41,29.14,27.41,29.14l-2.51-13.08s8.48,16.8,36.83,23.58,65.85-2,85.35-11.83a74.88,74.88,0,0,0,28.66-25.22l-7.31,19s27.51-1,43.85-30.23-30.59-71.35-34.57-80.41-9-75.1-78.51-63.71C229.18,503.48,200.36,501.57,182.19,519.65Z"/><path class="cls-4" d="M147.33,683.67C140.12,678.26,133,672,129,664.43a40.26,40.26,0,0,1-4.38-26c1.92-10.69,7.56-20.11,13-29.31,5.66-9.5,12-18.62,17.53-28.22.3-.52-.5-1-.87-.54-6.32,7-11.8,15-17.25,22.74-5.18,7.34-10.28,14.94-13.64,23.32-3,7.61-4.8,16.16-3.19,24.32A42.15,42.15,0,0,0,128.9,669c5.11,6.37,11.62,10.46,18.07,15.26C147.38,684.55,147.73,684,147.33,683.67Z"/><path class="cls-4" d="M348.13,617.48c-8.33-24.32-30.2-39.74-43.49-60.94-7.21-11.48-12.78-24.19-22.15-34.16-.26-.27-.72.17-.48.45,7.69,9,12.15,19.76,17.71,30,5.65,10.45,13.09,19.56,20.66,28.65,13.77,16.53,30.26,36.05,27.1,59.16-1.46,10.67-7.76,22.48-18.69,25.81-.43.13-.17.82.24.65A34.22,34.22,0,0,0,348.11,648C352.06,638.14,351.53,627.4,348.13,617.48Z"/><path class="cls-4" d="M349.14,624a44.88,44.88,0,0,0-6.08-26.38c-4.81-7.84-12.33-13.5-19.87-18.52-8.69-5.79-17.85-11.27-23.37-20.43-.23-.38-.78,0-.56.4,8.76,15.11,25.41,22.16,36.67,34.87,12.88,14.54,12.89,35.71,4,52.34-5.45,10.23-13.76,18.64-23.21,25.24a.15.15,0,0,0,.18.25C333.36,661,347.82,644.46,349.14,624Z"/><path class="cls-5" d="M244.08,734.8c70.34,38.6,154.55,87.08,206.16,75.66,22.86-5.05,125.6-139.7,130-155.23,3.75-13.38-89.27-67.25-99.72-56.69-17.53,17.7-65,117.27-71.79,118.93-7.09,1.69-66-10.31-127.56-21.42C222.05,685.39,195.24,708,244.08,734.8Z"/><path class="cls-5" d="M570.19,671.86c8-10.11,40.76-59.66,46.78-75.48s20-62.63,8.39-68.47-16.85,7.53-16.85,7.53,2.79-20.7-9.48-25.51-19.67,16.26-19.67,16.26,1.32-21.47-11.26-25.4-16.48,18.51-16.48,18.51,2.13-19.57-9.6-18.44c-14.1,1.36-13.93,37.88-21.89,54.85-1.8,3.86-42.19,75.52-42.19,75.52Z"/><path class="cls-4" d="M552,517.39c.06,26.86-4.56,38.62-18.63,61-.27.44.32.94.64.51,15.77-20.67,23.7-34.59,19.29-61.59C553.08,516,552,516.11,552,517.39Z"/><path class="cls-4" d="M579.32,524.05C576.94,552,572,564.76,559,589.29c-.19.35.38.7.6.36,14.77-23,22.36-37.07,21.07-65.26C580.65,523.12,579.43,522.78,579.32,524.05Z"/><path class="cls-4" d="M607.81,536.67c-4.25,26.84-9,41.11-24.7,63.31a.5.5,0,0,0,.78.62c18.19-21.08,24.27-38.84,24.72-63.72C608.64,535.18,608.07,535,607.81,536.67Z"/><path class="cls-5" d="M458.12,639.17s-2-33.6.43-48.55,31.82-67.38,43.51-61.67c15.08,7.38,4.06,41-3.5,56.75,0,0,34.92,17,32.23,42.87S458.12,639.17,458.12,639.17Z"/><path class="cls-4" d="M505.54,532.34C514.44,549,503.2,569,497,584.87a1.56,1.56,0,0,0,1.33,2.18c14.15,8.12,31.76,23.69,33.27,40.85a.4.4,0,0,0,.79,0c.88-18.62-15.17-35.33-31.25-43.22,6.6-16.14,17-36.74,4.54-52.42C505.62,532.16,505.48,532.23,505.54,532.34Z"/><path class="cls-6" d="M391.94,711.94l-84.69,71S255.56,756,217.38,725.12s4.12-45.91,69.65-34.91S391.94,711.94,391.94,711.94Z"/><path class="cls-7" d="M291.65,726.19a51.74,51.74,0,0,0-8.28-8.88,57.34,57.34,0,0,0,14.54,19.24A50.66,50.66,0,0,0,291.65,726.19Zm-74.22-1c.35.26.67.53,1,.79.67-.72,1.35-1.48,2-2.27C219.4,724.13,218.41,724.64,217.43,725.17Zm141.74.47a52.53,52.53,0,0,0-12.1-.38,52.54,52.54,0,0,0,11.73,3,51.4,51.4,0,0,0,12.1.39A52.43,52.43,0,0,0,359.17,725.64Zm-28.35-27.45a33.54,33.54,0,0,0,.16,4.59,36.19,36.19,0,0,0,1.44-4.26C331.89,698.4,331.35,698.31,330.82,698.19Z"/><path class="cls-4" d="M288.31,767.75c17.22-16.55,35.63-31.92,54.29-46.88q7.92-6.35,16.13-12.32c.15-.11.36.08.21.21-8.77,8.09-17.88,15.8-26.94,23.58s-18.24,15.52-27.54,23.06c-5.25,4.26-10.49,8.52-15.83,12.67C288.4,768.25,288.09,768,288.31,767.75Z"/><path class="cls-4" d="M343.24,752.75l-36,30.15S255.56,756,217.38,725.13c-13.55-11-16.95-19.92-12.82-26.43Z"/><path class="cls-6" d="M334.28,1001.43l-279.85,3c64.42-173.3,112.78-299.69,114.44-301.62,1.84-2.16,3.72-4.16,3.72-4.16.26-.3.47-.52.73-.78a58,58,0,0,1,14.5-11.2c1-.52,1.9-1,2.89-1.43,20.9-9.6,43-1.64,58.89,12,5.06,4.32,62.26,78.74,67.32,107.12,4.37,25-12.55,52-12.55,52Z"/><path class="cls-4" d="M263.87,846.65a232.8,232.8,0,0,0-34.09,5.91c-5.55,1.47-11,3.19-16.42,5-2.71.91-5.43,1.74-8.17,2.55a36.74,36.74,0,0,1-8.78,1.74.21.21,0,0,0,0,.41,63.07,63.07,0,0,0,8.47-.23,60.16,60.16,0,0,0,8.06-1.6c5.64-1.44,11.21-3.14,16.83-4.64,11.35-3,22.7-6,34.24-8.24C264.55,847.49,264.41,846.59,263.87,846.65Z"/><path class="cls-4" d="M292.38,856.58a254.08,254.08,0,0,0-28.53-1.12c-4.77.1-9.49.48-14.24,1-2.26.23-4.52.52-6.77.82-2.48.34-4.92,1-7.4,1.31-.26,0-.26.44,0,.42,2.35-.22,4.74,0,7.1-.12l7.12-.25c4.75-.16,9.49-.26,14.24-.47,9.51-.4,19-.71,28.49-.79C292.91,857.36,292.87,856.63,292.38,856.58Z"/><path class="cls-7" d="M143.24,756c-1.28-1.62-2.57-3.22-4-4.75-.32.7-.67,1.39-1,2.09.92,1.44,1.92,2.85,2.94,4.22a51.77,51.77,0,0,0,8.27,8.81A56,56,0,0,0,143.24,756Zm31.31-59.38a51,51,0,0,0-.23,10.92,50.4,50.4,0,0,0,2.9-11.8c.09-.6.16-1.23.23-1.83C176.48,694.81,175.5,695.71,174.55,696.66Zm81.89,75.42a52.87,52.87,0,0,0-3,11.78,54.48,54.48,0,0,0-.39,12.12A49.11,49.11,0,0,0,256,784.21,50.44,50.44,0,0,0,256.44,772.08ZM204.87,902.62A51.79,51.79,0,0,0,202,914.35a52.74,52.74,0,0,0-.37,12.12,57.63,57.63,0,0,0,3.29-23.85ZM117.23,804a54.17,54.17,0,0,0-2.92,11.8,52.8,52.8,0,0,0-.37,12.09A58,58,0,0,0,117.23,804Zm72.55-16.55a52.53,52.53,0,0,0-12.1-.37A52.65,52.65,0,0,0,189.41,790a51.44,51.44,0,0,0,12.1.4A52.46,52.46,0,0,0,189.78,787.43Zm97.07,111.3a52.69,52.69,0,0,0-12.12-.37,57.69,57.69,0,0,0,23.85,3.29A52.87,52.87,0,0,0,286.85,898.73ZM105.53,888.09a54.58,54.58,0,0,0-11.89-.42l-.23,0,.2.07A57.2,57.2,0,0,0,117.3,891,52.21,52.21,0,0,0,105.53,888.09Zm101.8,95.7a53.14,53.14,0,0,0-12.1-.37,51.82,51.82,0,0,0,11.77,2.9,52.36,52.36,0,0,0,12.1.37A54,54,0,0,0,207.33,983.79ZM97.83,972.07a52.14,52.14,0,0,0-12.12-.37,53.35,53.35,0,0,0,11.73,2.89,49.06,49.06,0,0,0,12.12.37A52.79,52.79,0,0,0,97.83,972.07ZM210.06,730a54,54,0,0,0-8.88,8.32A55,55,0,0,0,211.62,732a51,51,0,0,0,8.8-8.34A54.5,54.5,0,0,0,210.06,730ZM238.94,854a51,51,0,0,0-8.81,8.27A51.61,51.61,0,0,0,240.5,856a49.51,49.51,0,0,0,8.8-8.28A53,53,0,0,0,238.94,854ZM137.68,929.86a48.4,48.4,0,0,0-8.83,8.3,55.88,55.88,0,0,0,10.36-6.26,54.6,54.6,0,0,0,8.87-8.28A48.24,48.24,0,0,0,137.68,929.86Zm168.18-109.1a51.38,51.38,0,0,0-8.28-8.88,57.34,57.34,0,0,0,14.54,19.24A50.66,50.66,0,0,0,305.86,820.76ZM271.35,961.1a54.54,54.54,0,0,0-8.28-8.87,47.76,47.76,0,0,0,6.24,10.4,50.44,50.44,0,0,0,8.27,8.83A55.75,55.75,0,0,0,271.35,961.1ZM169.73,850.68a52.48,52.48,0,0,0-8.27-8.88,48.23,48.23,0,0,0,6.26,10.41A49.29,49.29,0,0,0,176,861,53.48,53.48,0,0,0,169.73,850.68Z"/><path class="cls-5" d="M163.36,704.6C111.46,746.43-21.45,912.21,8.54,950.53c30.2,38.6,229.16,20.83,287,2.74,17.2-5.38-29.71-114.52-48.31-119.56-15.49-4.2-101.32,21.2-103,16.23-1.89-5.61,21.2-36.64,50.55-103.89C228.61,668.51,186.29,686.12,163.36,704.6Z"/><path class="cls-5" d="M341,824.61c39.66,4.58,49.14,11.85,84.67-2.06,23.31-9.12,39.14,1.85,22.09,21.53-27.89,32.18-80.3,37-98.95,33.46Z"/><path class="cls-5" d="M229.75,835.12s49.2-12.75,91.95-12c29.56.49,93.76,8.72,137.34,85.46,10.34,18.2,12.16,51.47-15.52,27.87-19.66-16.76-27.06-33.33-40.28-41,0,0-2.7,42.59-21.34,52.24-8.33,4.31-31.34,15.54-50.5,21.73a82.1,82.1,0,0,1-4.92-9.08s-18.26,7.36-46.39-2.86Z"/><path class="cls-5" d="M349.84,828.05c11.5,10.38,35.52,32.79,48.79,58,14.73,28,35.59,85.78,14.84,96.44-15.21,7.83-25.12-13.55-25.12-13.55s3.59,25.72-11.7,29.77c-13.93,3.7-20.6-13.29-20.6-13.29s-.51,16-14.62,17c-17,1.18-13.11-32.49-31.33-46.15C306,953.11,349.84,828.05,349.84,828.05Z"/><path class="cls-4" d="M366.49,896.66c9.22,11.53,23.44,43.11,22.23,71.69,0,.65-.53,1-.63.38a310.63,310.63,0,0,0-21.86-71.93C366.16,896.64,366.39,896.53,366.49,896.66Z"/><path class="cls-4" d="M338.71,912.35c6.93,10.78,20.12,44,17.9,72.9-.05.64-.57.94-.65.34-4.22-33.41-12.81-61-17.53-73.11C338.37,912.32,338.62,912.21,338.71,912.35Z"/><path class="cls-4" d="M403.32,895.16c11.52,6.91,18.05,15.13,26.68,25.17a178.63,178.63,0,0,0,13.44,14.34c4.37,4.07,10.79,10.16,17.31,7.26,3.64-1.62,4.72-6,4.94-9.6A28.37,28.37,0,0,0,464,920.39c-.08-.2.26-.33.33-.14a37.94,37.94,0,0,1,2.77,10.56c.33,3.31.29,7.05-1.39,10-3.62,6.4-12,5.21-17.22,1.82a56.27,56.27,0,0,1-8.58-7.29c-2.58-2.52-5-5.16-7.42-7.86-4.89-5.54-9.46-11.36-14.28-17-5.31-6.15-9.21-9.5-15.16-15C402.82,895.34,403.09,895,403.32,895.16Z"/><path class="cls-4" d="M418.07,945.82c-1.38-8-11.19-42.1-15.08-50.43a.18.18,0,0,1,.32-.18c7.33,11.74,16.62,40.27,18.23,49.06s3.17,19.67.93,28.31c-3.38,13-12.66,13.26-16,13.07A17.5,17.5,0,0,1,395.82,981c-3.3-3-5.93-8-7.6-12.05-.09-.22.21-.4.32-.18,3.18,6.3,9.37,13.32,16.7,14.22a12.27,12.27,0,0,0,9.19-2.26c3-2.42,4.17-6.31,4.8-10C420.64,962.48,419.49,954,418.07,945.82Z"/><path class="cls-4" d="M356.61,985.25c1.42,2,3.76,8.39,9.4,11.09,4.12,2,8.77,2.73,12.93.43s6.42-6.31,7.76-10.64c.76-2.44,1.55-13.66,1.52-17.11,0-.27.35-.3.36,0,.4,6.24.8,13-.65,18.66-1.22,4.69-4,9.34-8.36,11.7a13.77,13.77,0,0,1-14.38-.7c-2.1-1.47-8.21-8.07-9.14-13.26C356,985.26,356.55,985.16,356.61,985.25Z"/><path class="cls-4" d="M311.94,954.16a32.6,32.6,0,0,1,4.32,6.09c1.37,2.24,2.66,4.53,3.9,6.84A75.91,75.91,0,0,1,326,981.78c1.49,5.1,2.64,10.66,6.13,14.84s9.08,6.08,14.18,4a12.3,12.3,0,0,0,6.17-5.45,24.24,24.24,0,0,0,3.14-8.68.18.18,0,1,1,.36.05c-.5,2.8-.42,5.55-1.46,8.25a14.68,14.68,0,0,1-4.33,6.2,14,14,0,0,1-14.6,1.52c-5.18-2.41-8.12-7.54-9.93-12.73-2-5.78-3.36-11.74-5.64-17.44-1.19-3-2.35-6-3.76-8.93s-3.42-5.9-4.69-9A.25.25,0,0,1,311.94,954.16Z"/><path class="cls-4" d="M293.81,961.33a116.05,116.05,0,0,0,22.12,1.08c.24,0,.38.68.16.74-3.18.81-9.4.83-11.24.74a38.22,38.22,0,0,1-11.09-2.17C293.57,961.65,293.57,961.29,293.81,961.33Z"/><path class="cls-4" d="M66.3,874.77a284.86,284.86,0,0,1,38.33-15.21,277.64,277.64,0,0,1,39.69-9.22c7.65-1.28,15.35-2.19,23.05-3.15.23,0,.27.33,0,.37a353.22,353.22,0,0,0-40,8.86q-19.65,5.34-39.08,11.41c-7.34,2.29-14.56,4.92-21.81,7.45A.27.27,0,0,1,66.3,874.77Z"/><path class="cls-6" d="M54.92,805.25l109.85,11.94s28-51.07,42.61-98-26.83-37.85-75.2,7.71S54.92,805.25,54.92,805.25Z"/><path class="cls-6" d="M54.92,805.25l109.85,11.94s28-51.07,42.61-98-26.83-37.85-75.2,7.71S54.92,805.25,54.92,805.25Z"/><path class="cls-7" d="M174.74,695.11a1.41,1.41,0,0,1-.05.35,53.26,53.26,0,0,0-.37,12.12,50.4,50.4,0,0,0,2.9-11.8c.09-.69.18-1.37.25-2.06C176.57,694.16,175.67,694.62,174.74,695.11ZM117.23,804a44.89,44.89,0,0,0-2.22,7.81l2.27.23A42.39,42.39,0,0,0,117.23,804ZM79.11,779.34h0c-.35.37-.72.74-1.06,1.11q1.8,0,3.63-.21C80.8,779.9,80,779.59,79.11,779.34Zm98.57,7.72c.65.25,1.32.51,2,.72a6.35,6.35,0,0,1,.41-.88C179.3,786.92,178.49,787,177.68,787.06Zm-34.44-31a54.11,54.11,0,0,0-8.28-8.87,48.45,48.45,0,0,0,6.24,10.43,51.77,51.77,0,0,0,8.27,8.81A56,56,0,0,0,143.24,756Z"/><path class="cls-4" d="M160.32,816.18c.59.08,4.54,0,4.55,0,.48-1.39,9.93-23.06,12.27-27.73,4.76-9.53,10.09-18.8,15.27-28.1a.27.27,0,0,1,.49.22c-3.68,8.11-7.2,16.3-10.94,24.39.93-1.09,1.86-2.19,2.76-3.31,1.83-2.29,3.5-4.71,5.24-7.07a.23.23,0,0,1,.39.24,43.62,43.62,0,0,1-6.25,9.37,36.91,36.91,0,0,1-3.39,3.46c-.32.67-.62,1.35-.94,2-2.26,4.71-13.74,28-14.15,28-.1,0-4.07-.48-5.29-.65C160,816.89,160,816.14,160.32,816.18Z"/><path class="cls-4" d="M75.63,786.6c23.83,1.59,47.58,4.85,71.21,8.58q10,1.58,20,3.63c.19,0,.19.32,0,.3-11.88-1.05-23.71-2.58-35.56-4s-23.76-3-35.6-4.84c-6.68-1-13.36-2-20-3.18C75.32,787,75.33,786.58,75.63,786.6Z"/><path class="cls-5" d="M201.88,688.42c.42,4.82,18.36,38.32,39.85,40.38,7,.66,12.3-37.37,12.3-37.37l1-2.72,14.43-38.07-41.94-36.26-6.11-4.88s-3.26,10.67-7.19,24c-.19.61-.38,1.23-.56,1.9s-.48,1.45-.68,2.16c-.61,2-1.23,4-1.8,6-.44,1.55-.88,3-1.28,4.69s-.85,3.23-1.3,4.86C204.56,669.38,201.73,686.37,201.88,688.42Z"/><path class="cls-4" d="M214.25,633.51c6.77,32.91,29.95,49.25,40.81,55.2l14.43-38.07-41.94-36.26-6.11-4.88S218.18,620.17,214.25,633.51Z"/><path class="cls-5" d="M320.87,571.88c19.48,68.74-19.49,88.17-34.32,92.35-13.46,3.8-59.77,15-86.25-51.34s-.67-97.14,29.66-107.45S301.4,503.14,320.87,571.88Z"/><path class="cls-4" d="M297,563.24a47.71,47.71,0,0,1-4.93.23c-1.89.06-3.39.31-5.07-.73a2.55,2.55,0,0,1-.77-3c1.07-2.15,3.36-2.81,5.64-3a9.26,9.26,0,0,1,6.45,1.71C300.24,559.82,299.17,562.93,297,563.24Z"/><path class="cls-4" d="M251.55,579.12a46.43,46.43,0,0,0,4.62-1.71c1.77-.68,3.25-1,4.39-2.65a2.55,2.55,0,0,0-.46-3.07c-1.83-1.57-4.2-1.28-6.36-.55a9.25,9.25,0,0,0-5.27,4.09C247.19,577.26,249.4,579.7,251.55,579.12Z"/><path class="cls-4" d="M265.51,591.35c-.08-.16-.3.33-.24.52,1.48,4.64,2.4,10.2-1.39,13-.12.09,0,.32.11.25C269,602.88,267.66,595.51,265.51,591.35Z"/><path class="cls-4" d="M259.94,587.66c-7.68,1.57-4,16.83,3.15,15.37S266.39,586.34,259.94,587.66Z"/><path class="cls-4" d="M257.14,589.19c-1.12,1.19-2,3-3.62,3.58-1.82.64-3.61-.62-5.2-1.86-.16-.13-.26,0-.22.24.67,2.93,2.53,5.66,5.76,5.33,3-.3,4.38-3.38,4.4-6.5C258.26,589.4,257.6,588.71,257.14,589.19Z"/><path class="cls-4" d="M292.65,583c0-.19.43.14.47.33,1,4.77,2.86,10.08,7.52,10.64.14,0,.18.26,0,.28C295.26,594.73,292.8,587.67,292.65,583Z"/><path class="cls-4" d="M295.72,577.05c7.48-2.36,11.67,12.77,4.74,15S289.45,579,295.72,577.05Z"/><path class="cls-4" d="M299.15,577.18c1.42.47,3,1.6,4.46,1.3,1.69-.35,2.46-2.33,3.08-4.19.07-.19.22-.1.28.1.88,2.87.76,6.15-1.87,7.47-2.39,1.21-4.94-.76-6.43-3.45C298.4,577.91,298.58,577,299.15,577.18Z"/><path class="cls-4" d="M276.25,629.47c1.36.9,2.8,2.21,4.56,2a12.91,12.91,0,0,0,4.9-2.2.17.17,0,0,1,.25.2,6.54,6.54,0,0,1-5.55,3.78c-2.23,0-3.67-1.62-4.58-3.49C275.7,629.52,276.05,629.34,276.25,629.47Z"/><path class="cls-4" d="M291.8,605.92s2.77,6.79,3.62,10.11c.08.31-11.39,5.89-18.76-.93a.35.35,0,0,1,.38-.58c5.19,2.09,10.24,1.69,15.46.45,0-1-5.13-11.48-4.61-11.65,1.77-.62,5.66-.3,8-.22-5.36-14.31-13-27.65-18.1-42a.47.47,0,0,1,.82-.44c9,13.42,15.5,29.75,21.41,44.39C300.75,606.89,293.28,606.14,291.8,605.92Z"/><path class="cls-4" d="M292.48,616.56s-1.94,5.13-5.8,7.88a8.72,8.72,0,0,1-5,1.75c-3.95.08-5-3.26-5.14-6.34A20.59,20.59,0,0,1,277,615,25,25,0,0,0,292.48,616.56Z"/><path class="cls-8" d="M286.68,624.44a8.72,8.72,0,0,1-5,1.75c-3.95.08-5-3.26-5.14-6.34C280.61,619.14,285.26,620.71,286.68,624.44Z"/><path class="cls-4" d="M203.62,610.6c13.3.86,14.84-29.57,14.84-29.57s55.65-13,57.62-59c0,0,11.42,28.59,41.67,40,0,0-5-50.08-45.41-57.4,0,0-50.48-15-75.85,25.92S194.69,610,203.62,610.6Z"/><path class="cls-4" d="M276.07,518.59a49.83,49.83,0,0,1-1.23,21,51.94,51.94,0,0,1-9.49,19.14,45.37,45.37,0,0,1-3.56,4l-1.84,2c-.66.6-1.36,1.17-2.05,1.73-1.39,1.12-2.74,2.31-4.17,3.37s-3,1.9-4.55,2.82c-.76.45-1.51.94-2.29,1.36l-2.42,1.11-4.82,2.2c-3.34,1.15-6.73,2.13-10.1,3,3.14-1.61,6.39-2.87,9.45-4.48l4.52-2.55,2.25-1.26c.72-.47,1.4-1,2.1-1.51,1.38-1,2.77-2,4.18-3s2.56-2.26,3.84-3.38l1.92-1.69,1.71-1.89a45,45,0,0,0,3.32-3.86,59.56,59.56,0,0,0,9.66-17.88,61.62,61.62,0,0,0,2.55-10A59.65,59.65,0,0,0,276.07,518.59Z"/><path class="cls-5" d="M213.54,609.87s-19.51-19-28.4-11.59,8.71,36.9,21.21,39S221,627.86,221,627.86Z"/><path class="cls-4" d="M190.4,606.62a.16.16,0,0,0,0,.32c8.82,1.75,14.58,8.51,19.11,15.79-3-2.56-6.65-3.58-10.15.09-.18.19.09.49.31.4,3.21-1.36,5.74-1.25,8.52,1a36.26,36.26,0,0,1,5.09,5.76c.52.66,1.77,0,1.33-.77l-.1-.18C212.7,618.56,201.8,605.52,190.4,606.62Z"/><path class="cls-1" d="M254.89,689l-12.76,32.17-40.08-40.46L190.8,693.75s39.32,64.38,39.55,61.46l13.11-27.74,19.19,19.18-1.76-48.34Z"/><path class="cls-4" d="M263.13,722.7c-.56-8-.9-16-1.83-24,0-.28-.47-.41-.54-.07-1.56,7.7.74,38.18.74,45.49l-.09-.09c-.8-.83-17.78-16.86-18-16.61-2.85,4.41-12.47,24.61-13.13,26.45-6.21-10.23-32.59-50.54-39.94-60.2a.28.28,0,0,0-.48.28c5.5,10.8,39.59,64,40.07,63.85.33.26,12.28-24.63,13.71-29.32,2.87,3.5,20,21.6,20.08,20.42A252.6,252.6,0,0,0,263.13,722.7Z"/><rect class="cls-4" x="351.57" y="987.57" width="15.51" height="10.12"/><rect class="cls-4" x="371.68" y="986.9" width="15.51" height="10.13"/><rect class="cls-4" x="391.79" y="986.23" width="15.51" height="10.12"/><rect class="cls-4" x="411.9" y="985.56" width="15.51" height="10.12"/><rect class="cls-4" x="432.01" y="984.89" width="15.51" height="10.12"/><rect class="cls-4" x="452.12" y="984.22" width="15.51" height="10.12"/><rect class="cls-4" x="472.24" y="983.55" width="15.51" height="10.12"/><rect class="cls-4" x="492.35" y="982.89" width="15.51" height="10.12"/><rect class="cls-4" x="512.46" y="982.22" width="15.51" height="10.12"/><polygon class="cls-9" points="531.76 1003.52 347.77 1003.52 347.77 991.2 531.76 986.07 531.76 1003.52"/><polygon class="cls-4" points="748.72 941.8 444.98 941.8 493.29 715.68 797.02 715.68 748.72 941.8"/><polygon class="cls-9" points="759.95 941.8 456.22 941.8 504.52 715.68 808.25 715.68 759.95 941.8"/><path class="cls-4" d="M658.49,815.64c-1.65,10.37-11.39,18.78-21.76,18.78s-17.45-8.41-15.8-18.78,11.38-18.78,21.75-18.78S660.13,805.27,658.49,815.64Z"/><polygon class="cls-4" points="674.05 1000.86 524.66 1000.86 524.66 989.25 674.05 984.42 674.05 1000.86"/><polygon class="cls-4" points="714.66 1000.84 634.46 1000.84 586.15 874.13 666.36 874.13 714.66 1000.84"/><polygon class="cls-4" points="727.87 1000.84 647.66 1000.84 599.36 874.13 679.56 874.13 727.87 1000.84"/><path class="cls-3" d="M1795.82,1000.68l-24.25,1q-7.12-166.76-14.26-333.5h23.39Z"/><path class="cls-1" d="M1033.2,806.3c17-.18,43.24-.41,60.06-.45l-.45.45,0-25.38.5.5-30-.07-30-.16.27-.27-.27,25.38Zm0,0-.28-25.38v-.28c.24-.06,30-.11,30.31-.16l30-.06h.5v.5l0,25.38v.44h-.45c-16.8,0-43.08-.29-60.06-.44Z"/><path class="cls-1" d="M1066.7,838.3c17-.18,43.25-.41,60.07-.44l-.45.44,0-25.38.5.5-30-.06-30-.17.27-.27-.27,25.38Zm0,0-.27-25.38v-.27c.23-.06,30-.12,30.3-.17l30-.06h.5v.5l-.06,25.38v.45h-.44c-16.8,0-43.08-.3-60.07-.45Z"/><path class="cls-1" d="M999.69,838.3c17-.18,43.25-.41,60.06-.44l-.44.44-.06-25.38.5.5-30-.06-30-.17.27-.27-.27,25.38Zm0,0-.27-25.38v-.27c.24-.06,30.05-.12,30.31-.17l30-.06h.5v.5l0,25.38v.45h-.45c-16.79,0-43.08-.3-60.06-.45Z"/><path class="cls-1" d="M1383.66,504.25c17-.18,43.25-.41,60.07-.45l-.45.45,0-25.38.5.49-30-.06-30-.16.27-.27-.27,25.38Zm0,0-.27-25.38v-.28c.23-.06,30-.11,30.3-.16l30-.06h.5v.51l-.06,25.38v.44h-.44c-16.8,0-43.08-.29-60.07-.44Z"/><rect class="cls-2" x="1067.9" y="437.64" width="262.5" height="146.88" transform="translate(2398.3 1022.17) rotate(-180)"/><polygon class="cls-2" points="1356.45 682.55 1307.34 682.55 1307.34 631.4 1356.45 682.55"/><rect class="cls-7" x="1123.78" y="514.33" width="175.63" height="3.16" transform="translate(2423.19 1031.83) rotate(-180)"/><rect class="cls-7" x="1159.89" y="531.42" width="139.52" height="3.16" transform="translate(2459.31 1066.01) rotate(-180)"/><rect class="cls-7" x="1149.37" y="480.16" width="150.04" height="3.16" transform="translate(2448.78 963.48) rotate(-180)"/><rect class="cls-7" x="1103.5" y="463.07" width="195.91" height="3.16" transform="translate(2402.92 929.3) rotate(-180)"/><rect class="cls-7" x="1145.43" y="548.51" width="153.99" height="3.16" transform="translate(2444.84 1100.19) rotate(-180)"/><path class="cls-2" d="M1773.59,1001.69,1494.48,990.9,1550,668.19h208Q1765.81,834.95,1773.59,1001.69Z"/><path class="cls-10" d="M1531,731.45c-31.48,70.25-107.55,187-141.6,158.1-50.93-43.24-85.35-138.86-99-177.52-7.66-21.67,102.69-57.92,109.45-38.26,9.62,28,24.7,86.36,33.44,94.63,4.61,4.35,40.7-46.39,68.08-70.46C1540.79,663.25,1541,709,1531,731.45Z"/><path class="cls-10" d="M1262.78,679.46c9.83,22.11,47.62,59.47,60.21,65s78.94-54.51,77.54-68.54-41-88-62.92-99.36S1252.6,656.55,1262.78,679.46Z"/><path class="cls-10" d="M1395.35,660.36s-1.59-31.43,6.34-58c6.67-22.34,19.09-54.77,7.21-58.8-24.39-8.29-55.34,72.58-55.34,72.58s-7.93,37.87,15.5,48.22C1383.76,670.85,1395.35,660.36,1395.35,660.36Z"/><path class="cls-10" d="M1367.84,600.75c-1.6,12.72-15.67,3.54-15.67,3.54s17.07,18.09,10.35,30.56c-6.52,12-23.13.33-24.33-.49.9,1,16.15,18,8.1,29.83-8.37,12.29-23-2.29-24-3.24.56,1.18,7.69,16.85-.47,24.45-14,13.06-33.36-26.51-48.24-30.94,0,0-10.37,24.36-10.82,25,0,0-19.16-37.28-12.07-57,3.73-10.4,14.16-9,14.16-9s-7.5-11.34-1.46-20.86c3.11-4.88,13.69-4.23,13.69-4.23s-5.63-9.33.27-17.46c4.69-6.51,14.57-4.85,14.57-4.85s-1.25-11.47,5.7-16.56C1311.64,539.23,1371.26,573.51,1367.84,600.75Z"/><path class="cls-4" d="M1293.55,566.1a.18.18,0,0,1,.11-.34c22.36,6.49,44.94,20.47,59.32,39,.47.61-.31,1.64-1,1.07C1333.56,589.56,1315.87,576.65,1293.55,566.1Z"/><path class="cls-4" d="M1276.87,588.1c-.24-.12,0-.52.22-.44,23,6.81,48,23.26,62.07,46.52.48.79.12,2-.51,1.12C1328.12,620.54,1297,597.49,1276.87,588.1Z"/><path class="cls-4" d="M1322.74,662.91c-14.36-21.77-34.25-36.76-56.9-49.21-.29-.16,0-.56.25-.49,12.74,3.07,26.34,12.51,36.31,20.75,9.54,7.9,16.57,16.94,21.1,28.45C1323.67,662.86,1323,663.38,1322.74,662.91Z"/><path class="cls-4" d="M1352.61,604.28c.56.73-1.13.75-.58,1.5,2.28,3.13,14.39,23.2,8.84,29.44-4.46,5-14.27,2.47-17.66,0l-8.52-6.16,5.86,8.75a43.06,43.06,0,0,1,5.89,12.63c1.17,4.4,1.18,9.11-1.15,12.52-2.36,3.62-6.28,5.3-10.33,4-4-1.14-8-4.16-11.09-7.38l-8.62-9,5.19,11.27a40.38,40.38,0,0,1,3.09,9.84c.55,3.34.56,6.82-.74,9.58a7.91,7.91,0,0,1-6.87,4.73c-3,0-6.21-1.73-9.08-3.67-5.81-4-10.84-9.37-16.08-14.41-2.61-2.54-5.23-5.1-8-7.54s-5.63-4.88-9.19-5.92c3.41,1.39,5.93,4.14,8.5,6.65s4.91,5.34,7.32,8.08c4.81,5.48,9.72,10.94,15.66,15.58,3,2.19,6.37,4.46,10.75,4.74,4.53.26,8.61-2.76,10.41-6.59s1.78-8.07,1.23-11.86a44.26,44.26,0,0,0-3.28-11l-3.44,2.28c3.62,3.83,7.64,7.14,13,8.85a12.78,12.78,0,0,0,8.61-.32,14.36,14.36,0,0,0,6.44-5.58c3.19-4.93,2.86-11,1.47-15.85a46.8,46.8,0,0,0-6.7-13.79l-2.65,2.59c4.41,3,15.06,7,23,.11C1372.85,627.83,1356,607.73,1352.61,604.28Z"/><path class="cls-4" d="M1352.17,604.29a25.4,25.4,0,0,0,7.66,1.8,6,6,0,0,0,5.49-2.51c1.11-1.65,1.31-4.22,1.24-6.77s-.41-5.28-.81-8.06a20.46,20.46,0,0,1,3.59,7.68c.62,2.78.83,6.07-1,9.12a8.55,8.55,0,0,1-4,3.13,9,9,0,0,1-4.83.18A13.8,13.8,0,0,1,1352.17,604.29Z"/><path class="cls-6" d="M1406.53,675.89l-114.87,80s68.61,142.16,111,141.77,103.64-106.86,124.85-152.88,8.52-85-34.21-43c-43,42.24-58,59.2-59.42,58.63C1431.2,759.26,1406.53,675.89,1406.53,675.89Z"/><path class="cls-6" d="M1291.66,755.88s47.57,98.59,88,131.33c8.1,6.58,15.92,10.5,23,10.43,42.4-.37,103.65-106.86,124.86-152.86,13.14-28.49,13.27-54.3,1.32-59.84-7.35-3.42-19.28.8-35.55,16.8-43,42.22-58,59.19-59.41,58.62-2.68-1.1-27.37-84.46-27.37-84.46Z"/><path class="cls-7" d="M1375.64,878.26l4,2c1.34.68,2.77,1.18,4.15,1.77l4.15,1.75,4.29,1.4a75.93,75.93,0,0,0,17.49,4,87.52,87.52,0,0,0,15,.39c-.88.56-1.74,1.11-2.6,1.63a89.41,89.41,0,0,1-12.57-.5A108.32,108.32,0,0,1,1367,875.2c-1.43-1.55-2.86-3.13-4.27-4.77A111.5,111.5,0,0,0,1375.64,878.26Zm73.06-131.85a22.93,22.93,0,0,1,2.29,1l4,2.05a122.44,122.44,0,0,1,29.06,21.16A183.37,183.37,0,0,1,1502.73,792c.31-.5.61-1,.88-1.52a185.63,185.63,0,0,0-18.39-21.07,122.81,122.81,0,0,0-35.32-24.21C1449.47,745.61,1449.08,746,1448.7,746.41ZM1303.64,779.2c.18.37.39.75.62,1.14,15.26-9.64,30.75-18.9,47-26.65a181,181,0,0,1,33.86-12.46c1.75-.43,3.5-.81,5.24-1.18l2.48-.45a96.24,96.24,0,0,1,28-1.16c1.7.21,3.4.46,5.08.75-.16-.5-.34-1-.5-1.56-1.47-.27-2.92-.5-4.4-.71a97.67,97.67,0,0,0-30.17,1.55c-.79.13-1.61.31-2.4.5-1.25.25-2.47.54-3.7.84a181.62,181.62,0,0,0-34.13,12.63C1334.35,760.24,1318.89,769.54,1303.64,779.2Zm33-54.61h.27a75.51,75.51,0,0,1,17.85,1.86l4.43.88,4.33,1.2c1.45.43,2.92.77,4.33,1.27l4.24,1.54a115.38,115.38,0,0,1,16.47,7.63c.64.34,1.27.7,1.88,1.08a127.09,127.09,0,0,1,13.07,8.74c19.23,14.58,34.72,33.45,49.49,52.51,7.42,9.57,14.7,19.23,22.41,28.6.64.79,1.29,1.56,2,2.34.3-.41.57-.82.86-1.25-.56-.68-1.13-1.34-1.67-2-7.67-9.35-14.93-19-22.32-28.6-14.77-19.12-30.29-38.13-49.72-52.92a129.43,129.43,0,0,0-11.59-7.85c-.64-.38-1.3-.77-2-1.13-15.85-9.14-33.77-14.81-52.14-15.38Zm141.88-8.17c17.44,7.8,36.77,11.68,55.87,10.07l.4-1.5a70.67,70.67,0,0,1-12.43.23l-4.51-.18-4.47-.52c-1.5-.21-3-.3-4.47-.57l-4.42-.86a120.32,120.32,0,0,1-24.7-7.92C1479.32,715.58,1478.89,716,1478.48,716.42Zm32.39-28.56a251.92,251.92,0,0,0,26.7,16c0-.63,0-1.24-.07-1.86a259.26,259.26,0,0,1-25-15C1511.93,687.25,1511.41,687.55,1510.87,687.86Z"/><path class="cls-4" d="M1318.83,769.21c3-2.5,6.1-5,9.18-7.39q9.36-7.43,18.78-14.77c12.48-9.75,25.21-19.13,38-28.37,7.3-5.25,14.44-10.78,22-15.71a.34.34,0,0,1,.41.54c-6,5.27-12.36,10.08-18.55,15.08s-12.34,10.06-18.64,14.95q-18.74,14.58-37.9,28.57c-3.58,2.62-7.08,5.4-10.78,7.86-1.89,1.27-3.68,2.68-5.6,3.91s-3.92,2.34-5.8,3.64a.2.2,0,0,1-.24-.31C1312.8,774.61,1315.7,771.8,1318.83,769.21Z"/><path class="cls-4" d="M1432.91,757.76c4.59,11.75,7.79,24,10.79,36.25,1.49,6.08,2.68,12.22,3.84,18.36A138,138,0,0,1,1450,830.8c0,.23-.32.24-.38,0-1.89-5.91-3.3-12.08-4.68-18.13s-2.89-12.15-4.26-18.25c-2.74-12.19-6-24.29-8.34-36.55A.3.3,0,0,1,1432.91,757.76Z"/><path class="cls-11" d="M1379.64,887.21c8.1,6.58,15.92,10.5,23,10.43,42.4-.37,103.65-106.86,124.86-152.86,13.14-28.49,13.27-54.3,1.32-59.84Z"/><path class="cls-6" d="M1446.26,1000.68l274.79-1c-.8-13-20.73-297-135-323.89-4.68-1.1-39.89-9.39-67.41,9.29-33.65,22.83-32,69.76-41,146.89A1310.35,1310.35,0,0,1,1446.26,1000.68Z"/><path class="cls-7" d="M1460,882.05a202.47,202.47,0,0,0,19.35-8.06c9-4.28,17.81-9,26.43-14.06l1.29-.77c9.32-5.47,18.46-11.25,27.56-17.08.43-.25.86-.54,1.29-.82l6-3.83c20.37-13,40.6-26.52,62.51-37,11-5.2,22.39-9.6,34.39-11.73a75.63,75.63,0,0,1,18.21-1c1.52.12,3,.34,4.54.52.82.19,1.66.32,2.47.48.18.36.32.7.48,1.07-1-.21-2.06-.34-3.09-.55-1.49-.2-3-.41-4.46-.52a74.65,74.65,0,0,0-18,1c-11.86,2.13-23.2,6.53-34.09,11.7-21.8,10.48-42,24-62.31,37l-6,3.9-1.27.82c-8.94,5.74-17.9,11.43-27,16.81-.43.27-.86.52-1.29.77-8.83,5.17-17.79,10.07-27,14.49a200.65,200.65,0,0,1-20.21,8.42Zm23.75-111.71.3.27c17.3,16.83,30.37,37.42,42.71,58.18,2.63,4.42,5.24,8.87,7.87,13.29.2.36.43.73.66,1.11,3.33,5.6,6.69,11.21,10.2,16.72,2.91,4.58,6,9.09,9.17,13.49.29.44.59.84.93,1.27a156.62,156.62,0,0,0,11.84,14.27,89.77,89.77,0,0,0,13.81,11.93l1.88,1.32c.62.45,1.3.79,2,1.18l4,2.31a65.69,65.69,0,0,0,8.43,3.56,114.09,114.09,0,0,0,35.89,5.76,166.16,166.16,0,0,0,36.13-4.17c11.3-2.43,22.41-5.69,33.48-8.94-.11-.34-.21-.7-.3-1.06-11.09,3.22-22.16,6.44-33.43,8.84a164.85,164.85,0,0,1-35.86,4.06,112.6,112.6,0,0,1-35.48-5.73,69.54,69.54,0,0,1-8.25-3.52l-3.88-2.27c-.64-.38-1.32-.72-1.93-1.16l-1.84-1.29A90.44,90.44,0,0,1,1568.46,888a149.31,149.31,0,0,1-11.11-13.32c-.32-.41-.62-.84-.93-1.27-3.41-4.63-6.61-9.41-9.67-14.27-3.49-5.51-6.85-11.11-10.18-16.74-.23-.36-.43-.72-.64-1.11q-3.95-6.63-7.85-13.27c-12.31-20.77-25.38-41.55-42.86-58.58-.3-.3-.62-.59-.93-.89C1484.13,769.11,1483.94,769.72,1483.76,770.34Zm-13,53.91q2.25,2.87,4.56,5.65A190.6,190.6,0,0,0,1500.68,856c1.68,1.34,3.38,2.65,5.11,3.9.38.3.79.57,1.18.84a67.2,67.2,0,0,0,8.89,5.42l2,1.09c.68.36,1.38.61,2.08.93l4.22,1.81a74,74,0,0,0,8.8,2.52,103,103,0,0,0,22.62,2.13c.59,0,1.16,0,1.75,0,4-.07,8-.36,12-.81a167.63,167.63,0,0,0,35.36-8.53c11.46-4,22.57-8.85,33.69-13.64s22.23-9.59,33.82-12.92c3.42-1,6.94-1.84,10.48-2.5-.12-.34-.23-.66-.35-1a105.38,105.38,0,0,0-10.43,2.47c-11.68,3.33-22.84,8.16-34,12.9s-22.2,9.6-33.64,13.52a164.43,164.43,0,0,1-35.08,8.42c-4.25.45-8.51.75-12.77.79-.59,0-1.18,0-1.75,0a102.83,102.83,0,0,1-21.39-2.17,66.26,66.26,0,0,1-8.62-2.48l-4.13-1.76c-.68-.32-1.4-.57-2.06-.93l-2-1.07a69.08,69.08,0,0,1-8.23-5c-.39-.27-.79-.55-1.18-.84-1.88-1.34-3.7-2.77-5.51-4.2a189.54,189.54,0,0,1-25.06-26c-1.8-2.18-3.57-4.38-5.31-6.58C1471.06,823,1470.93,823.64,1470.81,824.25Zm28.29-100.71a107.36,107.36,0,0,0,41.41,2.25,98.52,98.52,0,0,0,28.58-9.78c.73-.36,1.46-.75,2.18-1.13,1.11-.59,2.22-1.2,3.31-1.84a182.93,182.93,0,0,0,29.33-21.55c-.34-.34-.66-.68-1-1a178.46,178.46,0,0,1-29.07,21.28c-1.55.88-3.11,1.75-4.7,2.56-.75.39-1.47.75-2.22,1.11a94.91,94.91,0,0,1-26.68,8.83,76.7,76.7,0,0,1-17.92,1l-4.51-.18-4.47-.52c-1.5-.21-3-.3-4.47-.57l-4.42-.86c-1.59-.32-3.18-.68-4.76-1.07C1499.5,722.52,1499.3,723,1499.1,723.54Zm15.9-32.93c12.2,8,24.92,15.15,38.58,20.48a122.93,122.93,0,0,0,13.34,4.35c.72.21,1.45.39,2.17.57,18,4.49,37.11,5,55.17.21-.3-.46-.61-.89-.93-1.32a76.46,76.46,0,0,1-16.15,2.7l-4.49.36-4.49,0c-1.52,0-3,.1-4.52,0l-4.49-.29a123.42,123.42,0,0,1-17.92-2.79l-2.13-.55a128,128,0,0,1-15-4.78,209.07,209.07,0,0,1-38.35-20.3C1515.56,689.7,1515.27,690.15,1515,690.61Zm-67.12,277.54c2.18,0,4.38.16,6.58.23a4.87,4.87,0,0,0,.54,0l.84.07a93.57,93.57,0,0,1,33.66,9.82,148.29,148.29,0,0,1,20.23,12.61h1.43a153.7,153.7,0,0,0-21.25-13.43,94.68,94.68,0,0,0-33.27-9.89c-.46,0-.93-.09-1.39-.11a.55.55,0,0,0-.18,0c-2.36-.07-4.72-.28-7.08-.28C1448,967.51,1447.93,967.83,1447.88,968.15Zm-1.32,11.63c3-3.85,6.11-7.62,9.28-11.31.27-.3.52-.59.8-.89a5,5,0,0,1,.38-.45c8-9,16.74-17.51,26.83-24.09A72.62,72.62,0,0,1,1500,935.1c1.41-.48,2.86-.86,4.31-1.27s2.9-.73,4.4-.93c3-.57,6-.61,9-.93a93.12,93.12,0,0,1,35.45,5.6,163.35,163.35,0,0,1,32.21,16.4c17.92,11.43,34.41,24.93,52,36.93h.79c-17.67-12.2-34.25-25.95-52.35-37.63a165.13,165.13,0,0,0-32.32-16.56,93.93,93.93,0,0,0-35.81-5.69c-3,.29-6.08.34-9.08.9-1.52.21-3,.64-4.49.93s-3,.82-4.38,1.3a74.37,74.37,0,0,0-16.37,8c-10.23,6.65-19,15.2-27.11,24.23-.32.36-.63.73-.93,1.09s-.54.59-.79.91c-2.63,3-5.17,6.1-7.65,9.23C1446.72,978.38,1446.63,979.08,1446.56,979.78Z"/><path class="cls-10" d="M1622.64,705.37c56.11,65,131.8,179.64,100.88,205-50.82,41.69-199.28,65.71-233.35,69.82-14.7,1.77-44.14-94.32-34.33-106.74s166.78-21.21,167.89-30.85c.62-5.46-23.21-53-38.55-111.32C1567.5,664.05,1606.82,687.06,1622.64,705.37Z"/><path class="cls-10" d="M1481.56,865.53s-45-.35-74.51.81c-16.44.65-44.53,4.28-56.39,10.28-17.74,9-86.2,57.84-74.71,74.69,10.4,15.26,63.89-34.19,63.89-34.19s-58.38,45.12-42.48,61.19,68.9-47.84,68.9-47.84-59,47.71-39.93,61.69c14.38,10.56,65.64-44.62,65.64-44.62s-50.38,41.36-36.07,52.86c15.82,12.71,66.34-35.26,66.34-35.26,41.3,23.11,70.42,17.21,90.63,10.55C1517.76,974.08,1481.56,865.53,1481.56,865.53Z"/><path class="cls-4" d="M1359,900.22c-7,5-14.22,10.11-20.8,15.78s-13,11.55-19,17.8c-14.76,15.33-21.61,27.24-21.11,26.55,11.9-16.31,35.13-36.94,41.71-42.6s12.84-11.63,19.41-17.29C1359.42,900.31,1359.2,900.09,1359,900.22Z"/><path class="cls-4" d="M1379.91,923.59c-8.72,6.84-17.64,13.31-26.06,20.54s-19.79,17.68-27.65,25.43c-.61.59,0,1.72.63,1.14,8.17-7.43,20.29-17.58,28.55-24.92s16.22-15,24.71-22C1380.22,923.68,1380,923.49,1379.91,923.59Z"/><path class="cls-4" d="M1401.43,940.43c-13.86,9.77-25.91,22.09-37.44,34.46-.57.62.12.71.74.11,12.23-11.69,21.74-20.94,37-34.09C1402,940.71,1401.72,940.23,1401.43,940.43Z"/><path class="cls-4" d="M1487.9,864.11c-20.55-.14-80.92-.3-101.41,1.28-18.07,1.39-33.1,5.3-48.33,15.37-32.66,21.59-53.7,47-58.93,54.5-3.16,4.58-7.78,11.86-3.57,16.93,5.13,6.18,24.08.16,44.07-17.93.71-.65.26-1.06-.48-.46-28,22.74-39.23,20.11-42.15,16.22-1.9-2.52-.07-6.87,1.63-10.2,2.47-4.82,6.34-9.24,9.94-13.21,12.44-13.74,27.47-26.34,42.45-37.21,17.23-12.51,35.52-19.57,56.77-21.31,21-1.72,79.12-1.17,100.09-3.19C1488.42,864.85,1488.34,864.12,1487.9,864.11Z"/><path class="cls-4" d="M1294,969.29c1.16-5.62,5.2-10.73,8.4-15.36a104.2,104.2,0,0,1,13.3-16.17c.23-.21.6.06.39.32a163.1,163.1,0,0,0-11.77,15.55,94.42,94.42,0,0,0-5.21,9.25c-1.48,3.06-3.22,6.61-2.46,10.1,1.46,6.68,9.94,6.51,14.95,4.71a56.92,56.92,0,0,0,9.36-4.54,94.28,94.28,0,0,0,11.46-8.65c.32-.28,1.11-.17.8.13-7.48,7.13-21.65,22-33.22,16.51A10.45,10.45,0,0,1,1294,969.29Z"/><path class="cls-6" d="M1480.93,859.7l54,122.45s188.54-42.5,199.48-78.33-48.15-131.65-101.47-191.36c-52.45-58.73-60.2-18.89-47.16,26.55s34.43,97.81,32,101.72S1480.93,859.7,1480.93,859.7Z"/><path class="cls-7" d="M1638.82,788.71a75.63,75.63,0,0,1,18.21-1c1.52.12,3,.34,4.54.52s3,.5,4.49.91c3,.64,5.83,1.79,8.73,2.7a92.34,92.34,0,0,1,28.27,17.08c.47.84,1,1.66,1.43,2.47a92.59,92.59,0,0,0-30-18.64c-2.88-.89-5.67-2-8.62-2.66-1.45-.4-2.94-.56-4.4-.86s-3-.41-4.46-.52a74.65,74.65,0,0,0-18,1c-11.48,2.06-22.48,6.26-33,11.2-.14-.34-.25-.7-.39-1C1616.18,795,1627.25,790.77,1638.82,788.71Zm-153,82.11.54,1.25c7-3.52,13.84-7.33,20.6-11.3.43-.25.86-.5,1.29-.77,2.38-1.38,4.76-2.84,7.12-4.27-1.06.12-2.11.23-3.13.37q-2.55,1.53-5.17,3.06l-1.29.77C1499.23,863.74,1492.59,867.39,1485.83,870.82ZM1541,852.63c1.5,2.42,3,4.87,4.53,7.28,2.91,4.58,6,9.09,9.17,13.49.29.44.59.84.93,1.27a156.62,156.62,0,0,0,11.84,14.27,89.77,89.77,0,0,0,13.81,11.93l1.88,1.32c.62.45,1.3.79,2,1.18l4,2.31a65.69,65.69,0,0,0,8.43,3.56,114.09,114.09,0,0,0,35.89,5.76,166.16,166.16,0,0,0,36.13-4.17c11.86-2.54,23.5-6,35.11-9.41,10.28-3,20.55-6,31.05-8,0-.34,0-.7,0-1.06-10.62,2-21,5-31.33,8-11.63,3.38-23.22,6.81-35,9.32a164.85,164.85,0,0,1-35.86,4.06,112.6,112.6,0,0,1-35.48-5.73,69.54,69.54,0,0,1-8.25-3.52l-3.88-2.27c-.64-.38-1.32-.72-1.93-1.16l-1.84-1.29A90.44,90.44,0,0,1,1568.46,888a149.31,149.31,0,0,1-11.11-13.32c-.32-.41-.62-.84-.93-1.27-3.41-4.63-6.61-9.41-9.67-14.27-1.4-2.22-2.79-4.44-4.15-6.69Zm-38.72,4.62c1.18.91,2.36,1.82,3.54,2.68.38.3.79.57,1.18.84a67.2,67.2,0,0,0,8.89,5.42l2,1.09c.68.36,1.38.61,2.08.93l4.22,1.81a74,74,0,0,0,8.8,2.52,103,103,0,0,0,22.62,2.13c.59,0,1.16,0,1.75,0,4-.07,8-.36,12-.81a167.63,167.63,0,0,0,35.36-8.53c11.46-4,22.57-8.85,33.69-13.64s22.23-9.59,33.82-12.92,23.77-5.13,35.61-2.84a43.49,43.49,0,0,1,11.86,4.26c-.2-.45-.43-.93-.66-1.38a42.89,42.89,0,0,0-11-3.83c-12-2.36-24.45-.55-36.09,2.79s-22.84,8.16-34,12.9-22.2,9.6-33.64,13.52a164.43,164.43,0,0,1-35.08,8.42c-4.25.45-8.51.75-12.77.79-.59,0-1.18,0-1.75,0a102.83,102.83,0,0,1-21.39-2.17,66.26,66.26,0,0,1-8.62-2.48l-4.13-1.76c-.68-.32-1.4-.57-2.06-.93l-2-1.07a69.08,69.08,0,0,1-8.23-5c-.39-.27-.79-.55-1.18-.84-1-.68-1.93-1.41-2.86-2.13C1503.54,857.12,1502.88,857.19,1502.25,857.25Zm78-149.4c0,.54,0,1.11.09,1.67a190.86,190.86,0,0,0,23.59-18l3.18-2.83c-.43-.3-.84-.55-1.23-.8-.95.89-1.9,1.73-2.88,2.59A190.7,190.7,0,0,1,1580.23,707.85Zm.75,8.86c.09.57.16,1.12.25,1.68a108.15,108.15,0,0,0,44.07-2.45,76.36,76.36,0,0,0,8.1-2.88l-.52-.59-.55-.61c-2.45,1-4.94,1.86-7.46,2.61a78.06,78.06,0,0,1-17.69,3.13l-4.49.36-4.49,0c-1.52,0-3,.1-4.52,0l-4.49-.29C1586.45,717.46,1583.7,717.15,1581,716.71ZM1512.52,931.4l.44,1c1.56-.14,3.13-.23,4.69-.39a93.12,93.12,0,0,1,35.45,5.6,163.35,163.35,0,0,1,32.21,16.4c5.51,3.52,10.89,7.22,16.2,11h0c.3-.09.59-.18.88-.25-5.46-4-11-7.83-16.67-11.5a165.13,165.13,0,0,0-32.32-16.56,93.93,93.93,0,0,0-35.81-5.69C1515.93,931.18,1514.2,931.27,1512.52,931.4Z"/><path class="cls-4" d="M1556.48,961.93c-1.84-3.48-3.6-7-5.37-10.51q-5.34-10.68-10.62-21.4c-7-14.2-13.57-28.58-20-43-3.65-8.21-7.6-16.34-10.89-24.71a.34.34,0,0,1,.61-.29c3.94,6.92,7.35,14.16,11,21.24s7.32,14.14,10.83,21.3q10.44,21.32,20.22,42.94c1.84,4,3.84,8,5.5,12.16.85,2.11,1.86,4.15,2.68,6.28s1.49,4.32,2.37,6.43a.19.19,0,0,1-.35.16C1560.53,968.93,1558.37,965.51,1556.48,961.93Z"/><path class="cls-12" d="M1530.72,973.77l4.33,8.3c16.46-4.48,35.3-8.9,52.43-13.84,34.89-9.71,69.76-20,103.15-34.11,12.38-5.43,24.86-11.21,35.4-19.79,3.39-2.94,6.65-6.27,8.33-10.51-3.31,8.63-11.55,14.1-18.95,19-23.34,14.22-49.39,23.16-75.19,31.78a1071.84,1071.84,0,0,1-105.3,27.69l-.15,0-.06-.13-4-8.46Z"/><path class="cls-12" d="M1483,864.48l-2.2-4.74-.06-.13.15,0c33.33-4.27,80-9.6,112.67-14.55,7.73-1.34,15.76-2,23.17-4.61a1,1,0,0,0,.21-.13s0,0,0,0a.41.41,0,0,0-.07.15h0a1.36,1.36,0,0,0,0-.25c-.74-5.61-2.69-11-4.23-16.5-4-13.16-8.62-27.6-12.93-40.59l-8.84-27q10,26.61,19,53.56c3,9,6,18,8.28,27.26a13.26,13.26,0,0,1,.49,3.87,1.8,1.8,0,0,1-1.07,1.24c-3.07,1.38-6.45,1.85-9.69,2.56-4.67.9-9.35,1.66-14,2.39-18.75,2.77-37.57,5-56.4,7.17-16.51,1.74-40.2,4.28-56.55,5.64l.09-.15,2,4.82Z"/><path class="cls-12" d="M1588.85,767.81c4.05,5.28,8,11.41,11.91,16.8a76.26,76.26,0,0,1-11.91-16.8Z"/><path class="cls-10" d="M1533.9,725.92c16,4.56,44.86-18.89,56.73-38.42.8-1.34-2.41-56.51-1.92-67.51.12-2.25-69.73,13.64-69.73,13.64s5.74,23.36,4.75,42.53C1523.63,677.76,1518.44,721.51,1533.9,725.92Z"/><path class="cls-4" d="M1589.68,654.54c-32.65,23.05-64.45,14.2-65.88,13.79a191,191,0,0,0-4.83-34.7s69.86-15.9,69.74-13.64C1588.48,625.16,1589.06,640.05,1589.68,654.54Z"/><path class="cls-10" d="M1598.36,537.13c7.62,24.43-4.88,95.23-22.2,111.11-25.1,23-66.42,25.45-86-4.78-19-29.29-1.09-121.28,18.27-135.73C1536.93,486.45,1587.1,501,1598.36,537.13Z"/><path class="cls-4" d="M1539.51,581.58c.07-.17.33.3.29.49-1.07,4.73-1.49,10.32,2.52,12.72.12.08.06.31-.09.26C1537.12,593.31,1537.75,585.89,1539.51,581.58Z"/><path class="cls-4" d="M1544.71,577.43c7.76.88,5.42,16.34-1.77,15.52S1538.2,576.69,1544.71,577.43Z"/><path class="cls-4" d="M1512,577.86c0-.18-.41.17-.44.37-.57,4.81-2,10.22-6.61,11.16-.14,0-.16.27,0,.27C1510.34,589.72,1512.21,582.51,1512,577.86Z"/><path class="cls-4" d="M1508.47,572.22c-7.62-1.75-10.56,13.6-3.5,15.22S1514.85,573.68,1508.47,572.22Z"/><path class="cls-4" d="M1551.88,571.28a62.65,62.65,0,0,1-5.67-3c-2.16-1.18-4-1.9-5.19-4.18a3.31,3.31,0,0,1,1.12-3.88c2.63-1.7,5.64-.91,8.3.41a12.06,12.06,0,0,1,6.08,6.18C1557.81,569.64,1554.55,572.4,1551.88,571.28Z"/><path class="cls-4" d="M1503.67,563.53a62.14,62.14,0,0,0,6.38-.67c2.45-.28,4.43-.25,6.38-1.92a3.3,3.3,0,0,0,.42-4c-1.8-2.57-4.88-3-7.84-2.75a12.08,12.08,0,0,0-8,3.45C1498.78,559.77,1500.77,563.56,1503.67,563.53Z"/><path class="cls-4" d="M1536.89,626.47c-1.32.94-2.7,2.31-4.45,2.2a12.84,12.84,0,0,1-5-2,.17.17,0,0,0-.24.22,6.52,6.52,0,0,0,5.68,3.52c2.23,0,3.58-1.77,4.41-3.67C1537.43,626.48,1537.08,626.33,1536.89,626.47Z"/><path class="cls-4" d="M1534,611.37a16.5,16.5,0,0,1-12,5.61,21.12,21.12,0,0,1-5.91-.62,6.35,6.35,0,0,1-1.1-.3c-.34-.1-.65-.18-1-.32a1.2,1.2,0,0,1-.79-1.22v0a2.7,2.7,0,0,1,.12-.49v0l.07-.42c.46-3.7,1.66-9.25,1.66-9.25-1.45.47-8.78,2.52-8.38.61,3.36-15.8,7.1-33.37,13.79-48.39a.45.45,0,0,1,.85.26c-2.63,15.31-7.94,30.06-10.83,45.4,2.32-.5,6.13-1.5,8-1.17.5.23-2.52,10.69-2.59,12.37a.86.86,0,0,0,0,.18c6.08,1.72,11,.56,17.67-2.69C1534,610.65,1534.37,611,1534,611.37Z"/><path class="cls-4" d="M1518.6,614.82s2.6,4.9,6.83,7.17a8.79,8.79,0,0,0,5.24,1.13c4-.43,4.6-3.92,4.35-7a21,21,0,0,0-1-4.85A25.36,25.36,0,0,1,1518.6,614.82Z"/><path class="cls-8" d="M1525.43,622a8.79,8.79,0,0,0,5.24,1.13c4-.43,4.6-3.92,4.35-7C1530.86,615.89,1526.38,618.06,1525.43,622Z"/><path class="cls-4" d="M1586.74,562.28c2.78,7,8.52,23.52,11.79,24.69,3.11-23,3.22-43.78-2.48-56.56a47,47,0,0,0-9.74-14.2C1585.84,522.36,1583.76,554.92,1586.74,562.28Z"/><path class="cls-4" d="M1525.38,529.45a22.77,22.77,0,0,0,19.08,11.27c7.7.13,16-3.71,20-10.47a.18.18,0,0,1,.32.18c-4.27,7.24-11.69,12.49-20.36,12.14a23.45,23.45,0,0,1-19.56-12.83A.28.28,0,0,1,1525.38,529.45Z"/><path class="cls-4" d="M1478.07,492.94a29,29,0,0,1,15-13.19c8.85-3.5,17.72-1.16,26.49,1.35a.19.19,0,0,1-.11.37c-7.47-2.11-15.17-3.81-22.8-1.49a28.59,28.59,0,0,0-15.47,11.35c-7.47,11.31-5.22,27.41,5.24,36.09a28.31,28.31,0,0,0,21.56,6.18c.3,0,.44.41.13.46-14,2.27-28.43-6.51-32.11-20.37A28.92,28.92,0,0,1,1478.07,492.94Z"/><path class="cls-4" d="M1600.42,551.24s16.4-21.06,8.45-36.31c-4.51-8.64-24.06-11-24.06-11s-4.57-10-20-16.48c-15.57-6.55-36.25-2.69-36.25-2.69s-13.86-11.51-29.73-5.78c-22.13,8-25,39.07-6.44,52.46,13,9.4,34.52.19,34.52.19,1.81.58,18.82,15.36,36.16.91,0,0,9.87,12.43,21.63,7C1584.72,539.49,1588.19,551,1600.42,551.24Z"/><path class="cls-10" d="M1583.59,594.86s16.31-22.65,26.61-16.8-2.19,38.83-14.44,43.19-16.5-6.89-16.5-6.89Z"/><path class="cls-4" d="M1606.39,587.42a.17.17,0,0,1,.06.33c-8.59,3.34-13.2,11.2-16.47,19.37,2.59-3.13,6.07-4.81,10.26-1.73.22.16,0,.51-.23.45-3.49-.79-6-.22-8.43,2.55a36.86,36.86,0,0,0-4.11,6.72c-.41.76-1.78.33-1.48-.54,0-.06,0-.13.07-.2C1586,603.48,1594.68,588.36,1606.39,587.42Z"/><rect class="cls-4" x="1427.2" y="985.36" width="15.18" height="9.91" transform="translate(2869.59 1980.63) rotate(-180)"/><rect class="cls-4" x="1407.52" y="984.71" width="15.18" height="9.91" transform="translate(2830.22 1979.32) rotate(-180)"/><rect class="cls-4" x="1387.84" y="984.05" width="15.18" height="9.91" transform="translate(2790.86 1978.01) rotate(-180)"/><rect class="cls-4" x="1368.16" y="983.4" width="15.18" height="9.91" transform="translate(2751.5 1976.7) rotate(-180)"/><rect class="cls-4" x="1348.48" y="982.74" width="15.18" height="9.91" transform="translate(2712.14 1975.39) rotate(-180)"/><rect class="cls-4" x="1328.8" y="982.09" width="15.18" height="9.91" transform="translate(2672.78 1974.08) rotate(-180)"/><rect class="cls-4" x="1309.12" y="981.43" width="15.18" height="9.91" transform="translate(2633.42 1972.77) rotate(-180)"/><rect class="cls-4" x="1289.44" y="980.78" width="15.18" height="9.91" transform="translate(2594.06 1971.46) rotate(-180)"/><rect class="cls-4" x="1269.76" y="980.12" width="15.18" height="9.91" transform="translate(2554.7 1970.15) rotate(-180)"/><polygon class="cls-9" points="1266.05 1000.97 1446.1 1000.97 1446.1 988.91 1266.05 983.89 1266.05 1000.97"/><polygon class="cls-4" points="1090.31 953.42 1387.55 953.42 1340.28 732.14 1043.04 732.14 1090.31 953.42"/><polygon class="cls-9" points="1079.32 953.42 1376.55 953.42 1329.28 732.14 1032.05 732.14 1079.32 953.42"/><path class="cls-4" d="M1178.61,830c1.61,10.15,11.14,18.38,21.29,18.38s17.08-8.23,15.47-18.38-11.14-18.38-21.29-18.38S1177,819.81,1178.61,830Z"/><polygon class="cls-4" points="1163.38 1011.22 1309.57 1011.22 1309.57 999.86 1163.38 995.14 1163.38 1011.22"/><polygon class="cls-4" points="1123.64 1011.2 1202.13 1011.2 1249.4 887.2 1170.91 887.2 1123.64 1011.2"/><polygon class="cls-4" points="1110.72 1011.2 1189.21 1011.2 1236.48 887.2 1157.99 887.2 1110.72 1011.2"/><path class="cls-6" d="M901.65,825.66c-25.65-52.72-70.53-79.79-121.11-64.83s-58.41,85.49-20.66,103.3,75.52-34.2,95.46-44.88S901.65,825.66,901.65,825.66Z"/><path class="cls-4" d="M926.47,966c-.13-6.35-.37-12.7-.6-19.06-.45-12.68-.87-25.37-1.35-38.06-.86-23.2-3.36-46-13-67.38-8.62-19.19-22.6-36-40.68-46.89a85.43,85.43,0,0,0-21.39-9.22c-6.26-7-16-11.55-25-13.71-11.7-2.85-23.72-2.23-35.58-.9-.43,0-.41.72,0,.67a85.74,85.74,0,0,1,33.66,2.4,70.68,70.68,0,0,1,13.56,5.27,65.07,65.07,0,0,1,7.84,5,72.6,72.6,0,0,0-30.91.3,68.66,68.66,0,0,0-10.72,3.54,31.31,31.31,0,0,0-8.43-.72,50,50,0,0,0-11,1.56c-7.37,1.84-14.26,5.33-20.81,9.09-.38.22,0,.78.35.57a77.72,77.72,0,0,1,20.3-7.65,68.27,68.27,0,0,1,10.44-1.53,53.81,53.81,0,0,1,5.82,0c-14.23,6.72-26.2,18.13-32.71,32.59-.18.4.41.72.58.33,7.59-17.15,23.76-28.85,41.68-33.41,1.12-.29,2.25-.44,3.38-.66a50.49,50.49,0,0,0-.54,5.1c-.34,2.57-.76,5.12-1.28,7.65a128,128,0,0,1-4.12,15.43,120.26,120.26,0,0,1-6.13,15c-2.43,4.93-5,10.2-8.55,14.43a.34.34,0,1,0,.54.4c3-4.76,6.57-9.15,9.35-14.1a106.2,106.2,0,0,0,6.85-14.71,99.89,99.89,0,0,0,4.51-15.8q.84-4.26,1.33-8.58a19.52,19.52,0,0,0,.32-5.23,69.21,69.21,0,0,1,18-.37c-2.24,12.57-4.65,25.68-11.7,36.6-.23.36.38.71.59.33,3.14-5.92,6.36-11.68,8.69-18a68.14,68.14,0,0,0,4.33-18.73,83,83,0,0,1,29.7,10c17.51,9.85,30.79,25.29,39.53,43.25,9.5,19.5,13.32,40.49,14.66,62,1.68,26.95,2,54.06,4.73,80.92.17,1.76,3,2.35,3.29.37C927.12,978.08,926.6,972,926.47,966Z"/><path class="cls-4" d="M867.2,790.37c-1.42-2.1-3.89-3.78-5.83-5.38-2.1-1.74-4.25-3.42-6.51-5a48.26,48.26,0,0,0-14.57-6.76.33.33,0,0,0-.16.65c5.27,1.14,10.06,3.9,14.38,7.07,2.14,1.57,4.2,3.26,6.21,5s3.7,3.82,5.88,5A.45.45,0,0,0,867.2,790.37Z"/><path class="cls-4" d="M785.35,809.47A153.06,153.06,0,0,0,773.59,825a93.67,93.67,0,0,0-8.75,17.34c-.07.18.21.29.3.12,6.22-11.18,12.47-22.7,20.69-32.56C786.11,809.61,785.62,809.14,785.35,809.47Z"/><path class="cls-4" d="M840.52,804.26a37.76,37.76,0,0,1-2.89,9.53,63.33,63.33,0,0,1-4.89,8.45c-.11.18.16.37.3.22,4.56-4.85,7.1-11.53,8.13-18C841.24,804,840.6,803.83,840.52,804.26Z"/><path class="cls-6" d="M922.9,827s36.31-45.64,106.4-29.47c66.62,15.38,97.37,137.54,30,152.15s-55.45-98.43-80-117.61C961.36,818,935.48,821,922.9,827Z"/><path class="cls-4" d="M1083.44,864.21A136.75,136.75,0,0,0,1069,853.14a63,63,0,0,0-15.4-7.69,93,93,0,0,0-9.14-11.75,90.53,90.53,0,0,0-21.18-16.87c.7,0,1.39-.12,2.09-.14,3.72-.12,7.42-.14,11.14.11a62.31,62.31,0,0,1,21.63,5.39c.39.18.68-.44.29-.61a99.43,99.43,0,0,0-21.6-6.51,60.87,60.87,0,0,0-10.95-.93c-2,0-3.93.15-5.89.34l-1.12.09a94.17,94.17,0,0,0-20.21-7.43c.66-.18,1.3-.38,2-.53A96.55,96.55,0,0,1,1011,804.9a81.41,81.41,0,0,1,21,.32c.42.06.54-.6.12-.65a131.77,131.77,0,0,0-21.2-.86A89.09,89.09,0,0,0,993.27,806a95.21,95.21,0,0,0-12.78-1.46c-24.44-1-51.08,8.11-66.13,28.19s-18,46.93-20.65,71.19c-3.7,33.76-5.4,68-2.68,101.87.16,2,3,1.64,3-.26.92-28.81,1.94-57.62,4.69-86.32,1.28-13.29,2.7-26.63,4.91-39.81,1.88-11.25,4.58-22.49,9.66-32.77A60,60,0,0,1,937,821.18a79.91,79.91,0,0,1,33.51-10.31,90.42,90.42,0,0,1,31.45,3,20.76,20.76,0,0,0-.18,6.2,34.47,34.47,0,0,0,1.54,7.66,40.08,40.08,0,0,0,2.93,6.8c1.29,2.41,2.93,4.55,4.37,6.86.23.36.82-.05.55-.39-3-3.8-4.57-9.11-5.43-13.82a53.48,53.48,0,0,1-.84-7.14c-.1-1.81.06-3.62,0-5.42a92.75,92.75,0,0,1,30.6,16.15c1.7,1.37,3.35,2.81,5,4.3-2.39,2-4.32,4.92-5.94,7.3a71.52,71.52,0,0,0-6.23,11.1c-3.42,7.7-5.24,16.07-6.48,24.38-.07.43.6.55.66.12,1.13-8.21,4.14-15.8,8-23.11a93.91,93.91,0,0,1,6.21-10.26c1.18-1.69,2.41-3.36,3.68-5,.69-.87,1.44-1.75,2.09-2.69a96.62,96.62,0,0,1,19.88,28s-.09,0-.13.07c-3.46,3.22-5.92,7.7-8.21,11.8a110.58,110.58,0,0,0-6.57,14c-3.6,9.27-6,18.94-8.36,28.58-.1.41.57.54.66.12,1.93-9.83,5.65-19.13,9.94-28.15q3.14-6.6,6.63-13c2.2-4,4.88-8,6.59-12.25a90.14,90.14,0,0,1,8,32.46.33.33,0,0,0,.66,0,113.21,113.21,0,0,0-15.73-49.83c4.29,1.83,8.59,3.59,12.71,5.81A71.17,71.17,0,0,1,1083,864.72C1083.32,865,1083.76,864.49,1083.44,864.21Z"/><path class="cls-4" d="M1032,866.8c-2.1,6.91-4.75,13.63-6.64,20.63a79.45,79.45,0,0,0-3.1,20.6.17.17,0,0,0,.33,0c2.06-13.85,5.1-27.92,10-41A.33.33,0,1,0,1032,866.8Z"/><path class="cls-4" d="M1076.43,849.63a39,39,0,0,0-9.28-6.63,66.84,66.84,0,0,0-10.74-3.8c-.41-.13-.55.56-.12.65a42.55,42.55,0,0,1,10.34,4.26,77.38,77.38,0,0,1,9.52,5.85A.22.22,0,0,0,1076.43,849.63Z"/><path class="cls-6" d="M957.41,766s6.7-82,67.66-108.57c50.91-22.19,80,35,44.06,70C1040,755.77,993.34,743,957.41,766Z"/><path class="cls-4" d="M1057.86,673.31c-9.23,3.94-18.38,7.84-27.11,12.84a200.48,200.48,0,0,0-21,14c1-2.08,1.89-4.25,2.91-6.27,1.59-3.17,3.3-6.27,5.18-9.27a86.55,86.55,0,0,1,13.43-17c.31-.29-.19-.77-.49-.46a134.91,134.91,0,0,0-14.13,16.45,97.8,97.8,0,0,0-5.79,9.28c-1.59,2.92-3.39,6.15-4.1,9.44-.22.17-.46.32-.67.49a200.09,200.09,0,0,0-29.12,28.49c.17-.81.34-1.61.55-2.35,1.14-4,2.38-8,3.69-11.91,2.77-8.31,6.18-16.59,11-23.92.23-.36-.37-.69-.59-.32-4.61,7.6-9.23,15.13-12.76,23.32a88.2,88.2,0,0,0-4.21,12.12,50.42,50.42,0,0,0-2,8.24c-2.66,3.36-5.27,6.76-7.73,10.26C938.74,784,925.6,829,922.45,874.11a391.54,391.54,0,0,0-.68,40.39c.45,13.48,1,27.28,3.57,40.54.17.84,1.5.59,1.48-.24-.31-11.84-1.53-23.64-1.76-35.5a355.2,355.2,0,0,1,1.15-35.59,330.8,330.8,0,0,1,13.29-69.78,249.56,249.56,0,0,1,31-65.58c2.56-.51,5.11-1.21,7.63-1.86,3-.79,6.1-1.56,9.12-2.41a91.58,91.58,0,0,0,17-6.23c.38-.2,0-.79-.35-.57-5.32,3.11-11.23,4.74-17.24,5.94-4.77.95-9.72,1.57-14.5,2.67a231.28,231.28,0,0,1,14.17-18.63,105.7,105.7,0,0,0,34.68-2.59,137.62,137.62,0,0,0,17.75-5.53c6.11-2.35,11.89-5.37,17.91-7.89.45-.19.14-.85-.27-.6-10.34,6.27-23.33,9.49-35.16,11.5a216.93,216.93,0,0,1-32.88,2.72c4.33-5,8.8-9.81,13.58-14.36,16-15.24,35-29.26,56.11-36.56C1058.46,673.81,1058.25,673.14,1057.86,673.31Z"/><path class="cls-4" d="M1008.25,673.56a93.32,93.32,0,0,0-7.47,10.93,59.83,59.83,0,0,0-5.38,12.72.13.13,0,0,0,.25.09c2-4,3.75-8.19,5.81-12.19a60.78,60.78,0,0,1,7.28-11.09C1009,673.69,1008.52,673.22,1008.25,673.56Z"/><path class="cls-4" d="M1064.93,700.86a63.1,63.1,0,0,1-12.5,5.21,114.17,114.17,0,0,1-12.72,3.42c-.21,0-.15.38,0,.36a61.81,61.81,0,0,0,13.18-2.89,110.86,110.86,0,0,0,12.34-5.53C1065.66,701.24,1065.31,700.64,1064.93,700.86Z"/><path class="cls-6" d="M910,751.24c-.38,3.54-9.22-29.77-60.76-59.34C802.45,665,746.59,595.19,792.48,551.06,829.52,515.44,927.12,593.09,910,751.24Z"/><path class="cls-4" d="M945.5,942.22a914.43,914.43,0,0,0-8.17-103.63C933,807,926.2,775.91,915.55,745.83c-3.84-10.84-8.22-21.51-13-32,.49-4,0-8.4-.22-12.26-.25-5.25-.72-10.49-1.2-15.72s-1-10.47-1.64-15.68-1.73-10.43-1.95-15.64a.33.33,0,1,0-.65.11c1.25,5.35,1.42,11.12,1.85,16.59.39,5.06.68,10.11.84,15.18s.13,10.15.13,15.22c0,1.83-.1,3.78-.17,5.73-4.84-10.24-10-20.32-15.66-30.15,3.49-21.37-1-43.71-5.41-64.6-.09-.42-.73-.22-.64.2a182.14,182.14,0,0,1,3.4,33.12c.2,8.77-.21,17.55-.25,26.32-1.24-2.1-2.47-4.21-3.74-6.29-6.68-10.91-13.82-21.61-21.41-32,.83-5,.24-10.28-.49-15.22a119.82,119.82,0,0,0-3.74-16.64c-1.65-5.47-3.54-10.82-5.71-16.09-2.23-5.43-5.2-10.55-7.36-16-.18-.45-.85-.14-.6.27,2.92,4.89,4.71,10.77,6.45,16.17a147.78,147.78,0,0,1,4.22,16c1.09,5.42,2,10.86,2.74,16.34.5,3.63.82,7.39,1.45,11a397.26,397.26,0,0,0-36.09-42c-.31-.31-.74.17-.46.49a475.35,475.35,0,0,1,52.4,71.28c.56,1,1.1,1.92,1.66,2.87-2.84-1.78-6.1-3.19-8.77-4.68q-7.5-4.15-15-8.25-7.32-3.95-14.6-8c-2.5-1.38-5-2.83-7.51-4.13-2.89-1.48-6.14-2.89-8.74-4.84-.39-.3-.81.3-.39.53,5,2.73,9.35,6.78,14.14,9.84s9.71,6,14.71,8.83c9.17,5.11,19.12,8.78,28.14,14.07,6.26,11,12,22.19,17.34,33.63-5.47-3.51-11.06-6.83-16.74-10-3.65-2-7.31-4.06-11-6s-7.29-3.62-10.38-6.27a.33.33,0,0,0-.46.48c5.83,5.71,12.8,9.69,19.8,13.78,6.62,3.87,13.31,7.61,20.2,11q8.26,18.12,14.91,36.89c21.7,61.43,29.67,126.64,33.48,191.4,1.13,19.31,1.72,38.61,2,58s-.78,38.59-.74,57.9c0,.57.94.7,1,.11,2.32-17.12,2.72-34.54,3.47-51.78C945.88,977.41,945.89,959.77,945.5,942.22Z"/><path class="cls-4" d="M851.86,664.13c-9.47-3.89-18.49-9.13-27.39-14.17a287.3,287.3,0,0,1-26-16.51c-.14-.1-.31.14-.18.24a219.07,219.07,0,0,0,25,17.47c9.07,5.38,18.64,9.35,28.28,13.55C851.93,664.88,852.26,664.29,851.86,664.13Z"/><path class="cls-4" d="M866.79,594.69c-.76-3-1.71-5.94-2.72-8.87a.25.25,0,0,0,.13-.34c-.65-1.66-1.33-3.31-2-5a6,6,0,0,0-.24-.59c-.13-.32-.26-.63-.38-.95-.05-.1-.21-.06-.17,0,.18.57.32,1.15.5,1.71a8.53,8.53,0,0,0,.28,1,244.25,244.25,0,0,1,7.64,35c0,.37.62.38.6,0A117.68,117.68,0,0,0,866.79,594.69Z"/><polygon class="cls-9" points="999.96 954.68 996.29 998.27 985.03 1131.22 864.42 1131.22 853.16 998.27 849.49 954.68 999.96 954.68"/><polygon class="cls-4" points="999.96 954.68 996.29 998.27 853.16 998.27 849.49 954.68 999.96 954.68"/><rect class="cls-13" x="837.65" y="937.18" width="174.14" height="41.82"/></svg>