<?xml version="1.0" encoding="utf-8"?>
<!-- Generator: Adobe Illustrator 26.0.3, SVG Export Plug-In . SVG Version: 6.00 Build 0)  -->
<svg version="1.1" id="Слой_1" xmlns="http://www.w3.org/2000/svg" xmlns:xlink="http://www.w3.org/1999/xlink" x="0px" y="0px"
	 viewBox="0 0 200 200" style="enable-background:new 0 0 200 200;" xml:space="preserve">
<style type="text/css">
	.st0{fill:#482682;}
	.st1{fill:#FFFFFF;}
</style>
<rect x="0" y="0" class="st0" width="199.9" height="199.9"/>
<g>
	<g>
		<path class="st1" d="M143,158.8h-34.5v-51.9c0-5.3-2.2-7.9-6.5-7.9c-4.3,0-6.5,2.6-6.5,7.9v51.9H61v-51.3c0-12,4-22.1,11.9-30.3
			C80.8,69.1,90.5,65,102,65c13.2,0,23.7,4.8,31.6,14.3c6.2,7.4,9.3,17.8,9.3,31.1V158.8z"/>
		<path class="st1" d="M103.5,0c13,0,24.2,4.7,33.5,14.1c9.3,9.4,14,20.6,14,33.7c0,13.3-4.7,24.6-14.2,33.9
			c-9.4,9.3-20.8,14-34.2,14C89.4,95.7,78,91,68.5,81.6C59,72.3,54.3,61,54.3,47.8c0-13.5,4.7-24.8,14.2-34C78,4.6,89.6,0,103.5,0z
			 M102.6,34c-3.7,0-6.8,1.3-9.4,4c-2.6,2.7-3.9,5.9-3.9,9.8c0,3.8,1.3,7.1,3.9,9.8c2.6,2.7,5.7,4.1,9.4,4.1c3.7,0,6.8-1.4,9.4-4.1
			c2.6-2.7,3.9-6,3.9-9.8c0-3.9-1.3-7.1-3.9-9.8C109.5,35.4,106.3,34,102.6,34z"/>
		<path class="st1" d="M161.7,85.9c0-4.7,1.6-8.7,4.9-12.1c3.3-3.4,7.2-5.1,11.7-5.1c4.8,0,8.7,1.6,11.8,4.8
			c3.1,3.2,4.6,7.4,4.6,12.4c0,5-1.5,9.2-4.6,12.4c-3.1,3.2-7,4.8-11.8,4.8c-4.5,0-8.4-1.7-11.7-5.1
			C163.4,94.6,161.7,90.6,161.7,85.9z"/>
		<path class="st1" d="M8.5,85.9c0-4.7,1.6-8.7,4.9-12.1c3.3-3.4,7.2-5.1,11.7-5.1c4.8,0,8.7,1.6,11.8,4.8c3.1,3.2,4.6,7.4,4.6,12.4
			c0,5-1.5,9.2-4.6,12.4c-3.1,3.2-7,4.8-11.8,4.8c-4.5,0-8.4-1.7-11.7-5.1C10.2,94.6,8.5,90.6,8.5,85.9z"/>
		<g>
			<path class="st1" d="M158.8,200H45.2v-33.8h113.6V200z"/>
		</g>
	</g>
</g>
</svg>
