<svg id="Слой_1" data-name="Слой 1" xmlns="http://www.w3.org/2000/svg" viewBox="0 0 403 115"><defs><style>.cls-1{fill:#fff;}.cls-2{fill:#303031;}</style></defs><path class="cls-1" d="M120.83,65.55l8.5-40.38a6.22,6.22,0,0,1,5-4.85L176.54,13a10.16,10.16,0,0,1,10.8,5.42l16.3,32.12a15.55,15.55,0,0,1,1.66,8l-2.18,36.22A10.33,10.33,0,0,1,193,104.44l-38.44.83a14.77,14.77,0,0,1-11.77-5.44L123.35,75.91A12.37,12.37,0,0,1,120.83,65.55Z"/><ellipse class="cls-2" cx="141" cy="80.32" rx="2.77" ry="6.11" transform="translate(13.14 180.25) rotate(-67.68)"/><path class="cls-2" d="M203.46,97.5a11.29,11.29,0,0,1-2.9,4.66,11.17,11.17,0,0,1-7.51,3.12l-38.44.83a15.53,15.53,0,0,1-12.44-5.75L122.7,76.44A13.18,13.18,0,0,1,120,65.38L128.51,25a7,7,0,0,1,5.7-5.5l42.18-7.33A11,11,0,0,1,188.09,18l16.3,32.12a16.47,16.47,0,0,1,1.75,8.41L204,94.78A11.87,11.87,0,0,1,203.46,97.5ZM120.83,65.55l.83.17A11.45,11.45,0,0,0,124,75.38L143.48,99.3a13.84,13.84,0,0,0,11.09,5.13L193,103.6a9.56,9.56,0,0,0,9.28-8.92l2.17-36.22a14.73,14.73,0,0,0-1.56-7.55L186.59,18.79a9.26,9.26,0,0,0-9.91-5L134.5,21.15a5.36,5.36,0,0,0-4.35,4.2l-8.49,40.37Z"/><path class="cls-2" d="M196.08,102.93a2.24,2.24,0,0,1-.26.56,3.41,3.41,0,0,1-2.77,1.51l-37.62.81c-4.48,0-9.12-.56-12.66-5.23L123.9,76a3.53,3.53,0,0,1,2.52-5.68l43.77-3.5a8.38,8.38,0,0,1,7.89,4.05l17.66,29.35v0A3.53,3.53,0,0,1,196.08,102.93ZM124.39,73.15a2.39,2.39,0,0,0,.4,2.2L143.66,99.9c3.06,4,6.92,4.84,11.76,4.79l37.6-.81a2.31,2.31,0,0,0,1.84-1,2.2,2.2,0,0,0-.11-2.14l-17.63-29.3A7.27,7.27,0,0,0,170.28,68l-43.77,3.51a2.39,2.39,0,0,0-2,1.42C124.45,73,124.42,73.07,124.39,73.15Z"/><path class="cls-2" d="M203.31,97A3.08,3.08,0,0,1,201,99.07a3.12,3.12,0,0,1-3.48-1.48L180.7,68.73a11.53,11.53,0,0,1-1.47-7.2l5.3-42.69a1.76,1.76,0,0,1,1.53-1.42,1.61,1.61,0,0,1,1.78.73c4.16,7.94,15.66,30.87,16.69,33a16.32,16.32,0,0,1,1.32,5.33v.07l-2.39,39.67A3,3,0,0,1,203.31,97ZM185.64,19l-5.3,42.69a10.35,10.35,0,0,0,1.33,6.49L198.52,97a2.06,2.06,0,0,0,3.83-.91l2.38-39.63a15.72,15.72,0,0,0-1.2-4.88c-1-2.09-12.52-25-16.69-32.93-.08-.16-.35-.19-.58-.15s-.6.26-.62.46Z"/><path class="cls-2" d="M175.49,60.38a5,5,0,0,1-4.36,3.45L124.94,67.2a3.75,3.75,0,0,1-4-4.56l8.24-37.79a6.68,6.68,0,0,1,5.48-5.21l42.63-7a3.57,3.57,0,0,1,4.13,4l-5.8,42.95A4.36,4.36,0,0,1,175.49,60.38Zm-45-35.81a4.84,4.84,0,0,0-.14.51l-8.24,37.8a2.66,2.66,0,0,0,2.78,3.21l46.19-3.38a3.83,3.83,0,0,0,3.51-3.31l5.8-42.95a2.45,2.45,0,0,0-2.83-2.75l-42.64,7A5.57,5.57,0,0,0,130.46,24.57Z"/><ellipse class="cls-2" cx="139.81" cy="30.49" rx="5.68" ry="3.88" transform="matrix(0.57, -0.82, 0.82, 0.57, 34.52, 127.39)"/><path class="cls-2" d="M145,25.66a3.6,3.6,0,0,1,.89,1,4.91,4.91,0,0,1,.52,1.3,5.9,5.9,0,0,1,.2,1.39,7.27,7.27,0,0,1-.1,1.4c0,.23-.08.47-.14.69a1.89,1.89,0,0,1-.09.34c0,.12-.07.23-.1.34l-.12.33a3.05,3.05,0,0,1-.13.32l-.14.33-.16.31c0,.1-.1.21-.16.31l-.18.3c-.12.2-.25.4-.38.59a11.56,11.56,0,0,1-.9,1.09,10.47,10.47,0,0,1-1,.95,11,11,0,0,1-1.22.78,7,7,0,0,1-1.35.55l-.35.1-.37.08a6,6,0,0,1-.74.1h-.38l-.38,0a4.8,4.8,0,0,1-.76-.11,4.42,4.42,0,0,1-1.41-.6,3.54,3.54,0,0,1-1-1.06,3,3,0,0,1-.44-1.29,3.72,3.72,0,0,0,.74,1,3.34,3.34,0,0,0,1,.67,4.14,4.14,0,0,0,2.41.22,6.5,6.5,0,0,0,2.28-.89,8.61,8.61,0,0,0,1.91-1.54,11.86,11.86,0,0,0,.8-.93c.12-.17.24-.33.35-.51l.17-.25c.06-.09.11-.18.16-.27a9.56,9.56,0,0,0,1-2.25,5.84,5.84,0,0,0,.15-.6c.05-.2.08-.4.11-.6a7.24,7.24,0,0,0,.05-1.23,5.44,5.44,0,0,0-.18-1.21A4.52,4.52,0,0,0,145,25.66Z"/><ellipse class="cls-2" cx="167.01" cy="26.3" rx="5.68" ry="3.88" transform="translate(49.52 147.88) rotate(-54.93)"/><path class="cls-2" d="M163.48,22a7.48,7.48,0,0,1,3.74-3.07,5.78,5.78,0,0,1,2.67-.32,5.11,5.11,0,0,1,2.64,1.16,5.5,5.5,0,0,1,1,1.1,6.19,6.19,0,0,1,.66,1.31,7.44,7.44,0,0,1,.42,2.78,8.71,8.71,0,0,1-.15,1.36,10.93,10.93,0,0,1-.34,1.31,11.15,11.15,0,0,1-1.18,2.4,11.49,11.49,0,0,1-1.72,2A9.77,9.77,0,0,1,169,33.59a7.74,7.74,0,0,1-2.66.79,6.3,6.3,0,0,1-1.44,0,5.92,5.92,0,0,1-1.42-.36,5,5,0,0,1-2.27-1.8c-.07-.1-.14-.19-.2-.29l-.17-.31-.08-.16-.07-.16c-.05-.11-.09-.21-.13-.32s-.07-.22-.1-.33a1.87,1.87,0,0,1-.08-.32,5,5,0,0,1-.11-.66l0-.32c0-.11,0-.22,0-.33s0-.42,0-.63a6.36,6.36,0,0,1,.23-1.23c.06-.2.13-.39.19-.58l.23-.56.29-.53c.1-.17.21-.33.32-.5a8.57,8.57,0,0,0-.61,2.23,6.78,6.78,0,0,0,.08,2.29c0,.19.1.37.15.56s.07.18.1.27l.11.27.13.25.07.13.08.12.15.24.18.23a4.09,4.09,0,0,0,1.88,1.29,4.89,4.89,0,0,0,2.28.17,6.55,6.55,0,0,0,2.18-.74,9.25,9.25,0,0,0,3.35-3.11,9,9,0,0,0,1.5-4.31,6.49,6.49,0,0,0-.26-2.28,4.58,4.58,0,0,0-1.19-2,4.25,4.25,0,0,0-2-1,5.07,5.07,0,0,0-2.29.06A8.25,8.25,0,0,0,163.48,22Z"/><ellipse class="cls-2" cx="162.83" cy="52.08" rx="5.68" ry="3.88" transform="translate(26.64 155.42) rotate(-54.93)"/><path class="cls-2" d="M168.05,47.26a3.48,3.48,0,0,1,.89,1,5,5,0,0,1,.52,1.29,7.38,7.38,0,0,1,.2,1.4,8.24,8.24,0,0,1-.1,1.4c0,.23-.08.46-.14.69s-.06.23-.09.34-.07.22-.11.33l-.11.34c0,.11-.09.21-.13.32s-.09.22-.14.32l-.16.32c-.05.1-.1.21-.16.31l-.18.3c-.12.2-.25.39-.38.59a11.7,11.7,0,0,1-.9,1.08,9.58,9.58,0,0,1-1.06,1,8.06,8.06,0,0,1-1.21.78,7.67,7.67,0,0,1-1.35.56l-.36.1-.36.08q-.36.06-.75.09l-.37,0-.39,0a4.13,4.13,0,0,1-.76-.12,4,4,0,0,1-1.4-.6,3.51,3.51,0,0,1-1-1,3,3,0,0,1-.44-1.3,4,4,0,0,0,.73,1,3.73,3.73,0,0,0,1,.67,4.22,4.22,0,0,0,2.41.22,6.9,6.9,0,0,0,2.28-.89A9.42,9.42,0,0,0,166,56.24a12,12,0,0,0,.8-.94c.12-.16.24-.33.35-.5l.17-.26c.06-.08.1-.17.16-.26a10.2,10.2,0,0,0,1-2.25c.07-.2.1-.4.15-.6s.07-.4.11-.61a7.08,7.08,0,0,0,.05-1.22,5.62,5.62,0,0,0-.18-1.22A5,5,0,0,0,168.05,47.26Z"/><ellipse class="cls-2" cx="135.55" cy="55.27" rx="5.68" ry="3.88" transform="matrix(0.57, -0.82, 0.82, 0.57, 12.43, 134.45)"/><path class="cls-2" d="M140.77,50.44a3.51,3.51,0,0,1,.89,1,4.72,4.72,0,0,1,.52,1.29,7.17,7.17,0,0,1,.2,1.39,7.27,7.27,0,0,1-.1,1.4c0,.23-.08.47-.14.69a3.37,3.37,0,0,1-.09.34c0,.12-.07.23-.1.34l-.12.33-.13.33c0,.1-.09.21-.14.32l-.16.31c-.05.1-.1.21-.16.31l-.18.3c-.12.2-.25.4-.38.59a11.56,11.56,0,0,1-.9,1.09,9.58,9.58,0,0,1-1.06.95,10,10,0,0,1-1.21.78,7.67,7.67,0,0,1-1.35.56l-.36.09a2.09,2.09,0,0,1-.36.08,6,6,0,0,1-.74.1h-.38l-.39,0a5.16,5.16,0,0,1-.76-.11,4.36,4.36,0,0,1-1.4-.6,3.54,3.54,0,0,1-1-1.06,3,3,0,0,1-.44-1.29,3.91,3.91,0,0,0,.73,1,3.33,3.33,0,0,0,1,.67,4.22,4.22,0,0,0,2.41.23,6.9,6.9,0,0,0,2.28-.89,9.77,9.77,0,0,0,1.91-1.54,12,12,0,0,0,.8-.94c.12-.17.24-.33.35-.51l.17-.25c.06-.09.1-.18.16-.27a10,10,0,0,0,1-2.25c.07-.19.1-.4.15-.59s.07-.41.11-.61a7.24,7.24,0,0,0,.05-1.23,5.53,5.53,0,0,0-.18-1.21A5.12,5.12,0,0,0,140.77,50.44Z"/><ellipse class="cls-2" cx="150.74" cy="41.71" rx="5.68" ry="3.88" transform="translate(29.99 141.11) rotate(-54.93)"/><path class="cls-2" d="M152.88,34.68a3.39,3.39,0,0,1,.72-.13,4,4,0,0,1,.77,0,4.29,4.29,0,0,1,1.51.51,4.83,4.83,0,0,1,1.27,1.08,2.91,2.91,0,0,1,.26.33c.08.12.16.23.23.36s.14.24.2.37.12.25.18.38a8.1,8.1,0,0,1,.26.79c0,.14.07.27.1.41s.05.27.07.41a7.41,7.41,0,0,1,.05,1.63,8.48,8.48,0,0,1-.26,1.6,9.93,9.93,0,0,1-.54,1.5,11.53,11.53,0,0,1-.76,1.38l-.23.33-.24.31-.25.3-.12.16-.14.14a7.14,7.14,0,0,1-.55.55l-.29.27c-.1.09-.21.16-.31.24l-.32.24a3.62,3.62,0,0,1-.32.22l-.34.21-.34.18a8.45,8.45,0,0,1-1.46.6,6.69,6.69,0,0,1-1.54.25,5.08,5.08,0,0,1-.78,0l-.38-.05a2.57,2.57,0,0,1-.38-.08l-.36-.11-.35-.14-.17-.07-.17-.1-.3-.19a5.45,5.45,0,0,0,2.72,0,8,8,0,0,0,1.3-.45c.2-.1.41-.19.61-.31s.4-.22.58-.36a9.86,9.86,0,0,0,2-1.84,10.06,10.06,0,0,0,1.46-2.32,9.07,9.07,0,0,0,.76-2.64,7,7,0,0,0-.2-2.73,5.38,5.38,0,0,0-.56-1.25,4.9,4.9,0,0,0-.9-1,4.57,4.57,0,0,0-1.19-.69A4.65,4.65,0,0,0,152.88,34.68Z"/><path class="cls-2" d="M131.47,63.78l-6.74.49a.82.82,0,0,1-.87-1l1.91-8.75c-.1.56-1.2,7.52-.64,8.4S131.17,63.79,131.47,63.78Z"/><path class="cls-2" d="M145.51,20.83c-.32.08-10.66,2.71-11.79,4.86s-4.62,13.55-4.62,13.55l3-13.77a2.14,2.14,0,0,1,.09-.34,3.75,3.75,0,0,1,3-2.59Z"/><polygon class="cls-2" points="151.54 23.29 146.01 27.8 146.24 29.48 151.54 23.29"/><path class="cls-2" d="M137,37.4s-2.6,2.26-3.55,3a.83.83,0,0,0,.62,1.5l-4.49,4.24L128,53.31S139.91,42.09,141,41.12a1.17,1.17,0,0,0-.27-2l2.9-3-4.08,1.5Z"/><path class="cls-2" d="M158.05,39.49l6.13-6.09s-2.73-.9-3.15-2.73l-4.92,4.89A7.67,7.67,0,0,1,158.05,39.49Z"/><path class="cls-2" d="M175.14,41.51q-1.19,8.84-2.38,17.65a1.86,1.86,0,0,1-.07.34,2,2,0,0,1-1.77,1.4L151.3,62.33l9.91-1.75-5.29-.34,5.73-1s3.84-.52,5.32-2.65a21.13,21.13,0,0,0,2.36-5.88s.5.51.15,2.31a29.87,29.87,0,0,1-1.41,4.45s3-2.09,2.69-7.64l1.92-3.39Z"/><path class="cls-2" d="M178.37,15.67a.64.64,0,0,1,.19.54L176,35l-.13-4.11-6.9,8-.51-1.69-9,8.46L170.63,32.8l.45,1.3A11.75,11.75,0,0,0,174,25.66s.3-4.38-2.54-5.92-9.89.63-10.09.69l3.39-1.67-9.62.48,22.69-3.74A.6.6,0,0,1,178.37,15.67Z"/><polygon class="cls-2" points="140 63.16 144.38 61.74 155.56 50.53 146 61.95 148.74 62.52 140 63.16"/><path class="cls-2" d="M192.19,39.59A6.2,6.2,0,0,1,193.73,41a9.43,9.43,0,0,1,1.1,1.8A12.54,12.54,0,0,1,196,46.89a12.69,12.69,0,0,1-.23,4.21,8.65,8.65,0,0,1-.73,2,5.34,5.34,0,0,1-.6.89,4.59,4.59,0,0,1-.37.39,2.38,2.38,0,0,1-.43.3,4.55,4.55,0,0,0,1-1.72,10,10,0,0,0,.46-2,16,16,0,0,0,0-4,17.19,17.19,0,0,0-.92-3.92A10.9,10.9,0,0,0,192.19,39.59Z"/><path class="cls-2" d="M195.73,62.73a4,4,0,0,1,.56.34l.26.2.25.22.24.23.22.24c.16.16.29.34.43.51A11.58,11.58,0,0,1,199,66.76a15.53,15.53,0,0,1,1.22,5.11c0,.44,0,.89,0,1.33s0,.89-.1,1.33a9.86,9.86,0,0,1-.66,2.63,5.53,5.53,0,0,1-.68,1.23,4.88,4.88,0,0,1-.47.55,4,4,0,0,1-.61.45,2.11,2.11,0,0,1-1.47.22,2.28,2.28,0,0,1-.64-.27,2.63,2.63,0,0,1-.5-.43,2.38,2.38,0,0,0,1.16.45,1.71,1.71,0,0,0,.32,0l.31-.06a2,2,0,0,0,.56-.28,2.88,2.88,0,0,0,.83-.94,6,6,0,0,0,.52-1.15,11,11,0,0,0,.47-2.47,16.44,16.44,0,0,0,0-2.53,19.35,19.35,0,0,0-1-4.93,14,14,0,0,0-1-2.31A7.25,7.25,0,0,0,195.73,62.73Z"/><path class="cls-2" d="M200.65,78.23l-.87,14.6s0,.07,0,.09-.2.13-.21.13a.19.19,0,0,1-.21-.12l-7.63-13.06,7,9.65Z"/><path class="cls-2" d="M183.55,57.07c.31,2.13.79,5.5,1,6.77.24,1.9,4.91,12,5,12.12l-5.38-9.21A8.54,8.54,0,0,1,183,61.4Z"/><path class="cls-2" d="M188.41,27.6c1.42,2.77,3.09,6.06,4.78,9.39l-4.54-6-3,11.89,1.88-15.12A.48.48,0,0,1,188.41,27.6Z"/><path class="cls-2" d="M195.52,99.07c-1.23-1.51-2.33-3.09-3.4-4.69s-2.09-3.23-3.06-4.89-1.92-3.33-2.81-5S184.52,81,183.8,79.2c1.23,1.51,2.33,3.09,3.4,4.69s2.09,3.23,3.06,4.89,1.91,3.34,2.8,5S194.79,97.27,195.52,99.07Z"/><path class="cls-2" d="M196.41,98.6c-1.23-1.5-2.33-3.08-3.4-4.68S190.93,90.68,190,89s-1.92-3.34-2.8-5-1.74-3.44-2.46-5.24c1.23,1.51,2.33,3.09,3.4,4.69s2.09,3.23,3.06,4.89,1.91,3.33,2.8,5S195.68,96.8,196.41,98.6Z"/><path class="cls-2" d="M197.3,98.14c-1.22-1.51-2.33-3.09-3.4-4.69s-2.08-3.23-3.06-4.89-1.91-3.33-2.8-5-1.73-3.44-2.46-5.25c1.23,1.51,2.33,3.09,3.4,4.69s2.09,3.24,3.06,4.89,1.91,3.34,2.8,5S196.57,96.34,197.3,98.14Z"/><path class="cls-2" d="M147.46,71.61l-18.78,2.78a.39.39,0,0,0-.27.6l6.29,10.06.26.38-8.45-10.75a.94.94,0,0,1-.16-.89,1,1,0,0,1,.86-.68Z"/><path class="cls-2" d="M175.63,72.45l17.29,28.73a1.17,1.17,0,0,1,.15.7.84.84,0,0,1-.67.29l-22.33.51,8.83-1.37-5.33-.9,8.31-.51s6.89-.39,6.4-3.13A17,17,0,0,0,185.61,91l-3.3-2.49.36-2.18a118.63,118.63,0,0,0-7.2-12,7.86,7.86,0,0,0-3.12-2.91,10.32,10.32,0,0,0-2.76-.58c-1.63-.23-2.65-.25-6.5-.47l-1.42-.08,8.55-.68A5.73,5.73,0,0,1,175.63,72.45Z"/><path class="cls-2" d="M160.82,102.85l-5.34.11c-3,0-5.47-.26-7.58-1.53a12.7,12.7,0,0,1-2.84-2.62,61.31,61.31,0,0,1-5.7-7.42A48.15,48.15,0,0,0,146,97.15c3.13,2.24,6.19,4.61,10.74,5.31A41.13,41.13,0,0,0,160.82,102.85Z"/><polygon class="cls-2" points="165.33 70.53 163.67 77.29 164.22 70.35 165.33 70.53"/><path class="cls-2" d="M147.22,82.72A2.08,2.08,0,0,1,146.08,84c-1.38.65-3.72.48-6.12-.46-3.53-1.37-5.75-3.76-5.19-5.56h0a2.06,2.06,0,0,1,1.15-1.23c1.37-.66,3.71-.48,6.12.46h0c3.52,1.37,5.75,3.76,5.18,5.56Zm-11.38-4.45h0c-.32,1,1.46,3,4.52,4.18,2.38.93,4.34.91,5.23.49a1,1,0,0,0,.56-.56h0c.32-1-1.45-3-4.52-4.18h0c-2.38-.93-4.34-.91-5.23-.49A1,1,0,0,0,135.84,78.27Z"/><path class="cls-2" d="M136.57,75a6.2,6.2,0,0,1,1-.3,9,9,0,0,1,2.08-.18c.35,0,.7,0,1.06.07a14,14,0,0,1,4.06,1.17,12.69,12.69,0,0,1,1.89,1.07,10.53,10.53,0,0,1,1.7,1.46c.12.15.26.29.38.45l.18.24.16.25a5.84,5.84,0,0,1,.58,1.11,4.94,4.94,0,0,1,.27,2.63,4.51,4.51,0,0,1-1.28,2.4,4.7,4.7,0,0,1-1.08.78,6.11,6.11,0,0,1-.58.27,5.14,5.14,0,0,1-.59.2,7.83,7.83,0,0,1-2.33.24,10.4,10.4,0,0,1-1.11-.1l-.54-.1-.53-.12-.52-.15-.51-.16q-.51-.18-1-.39l-.48-.23-.47-.23c-.31-.17-.62-.35-.91-.54s-.58-.39-.86-.6a8.6,8.6,0,0,1-.8-.67c-.25-.24-.5-.48-.73-.74A7.05,7.05,0,0,1,135,82a12.22,12.22,0,0,0,3.28,2.28,15.63,15.63,0,0,0,1.85.76,13.53,13.53,0,0,0,1.94.51,11.2,11.2,0,0,0,2,.19,7.39,7.39,0,0,0,2-.27,7.05,7.05,0,0,0,.92-.39,4.29,4.29,0,0,0,.8-.6,3.21,3.21,0,0,0,.92-1.75,3.69,3.69,0,0,0-.2-2,5.52,5.52,0,0,0-1-1.7A9,9,0,0,0,146,77.72a13.14,13.14,0,0,0-1.69-1.09,15.54,15.54,0,0,0-3.74-1.43A10,10,0,0,0,136.57,75Z"/><ellipse class="cls-2" cx="160.91" cy="86.65" rx="2.77" ry="6.11" transform="translate(19.64 202.59) rotate(-67.68)"/><path class="cls-2" d="M167.13,89.05A2.06,2.06,0,0,1,166,90.27c-1.38.66-3.72.49-6.12-.45-3.53-1.38-5.75-3.77-5.19-5.56h0A2.06,2.06,0,0,1,155.83,83c1.37-.66,3.71-.48,6.12.45h0c3.52,1.38,5.75,3.77,5.18,5.56ZM155.75,84.6h0c-.32,1,1.46,3,4.52,4.18,2.38.92,4.34.91,5.23.48a1,1,0,0,0,.56-.55h0c.32-1-1.46-3-4.52-4.18h0c-2.38-.93-4.34-.92-5.23-.49A1,1,0,0,0,155.75,84.6Z"/><path class="cls-2" d="M156.47,81.34a6.66,6.66,0,0,1,1-.3,9.13,9.13,0,0,1,1-.15,7.37,7.37,0,0,1,1,0c.35,0,.7,0,1.05.07a13.92,13.92,0,0,1,4.07,1.16,12.69,12.69,0,0,1,1.89,1.07,10.12,10.12,0,0,1,1.7,1.47c.12.15.26.29.38.45l.18.24.16.25a5.84,5.84,0,0,1,.58,1.11,4.94,4.94,0,0,1,.27,2.63,4.46,4.46,0,0,1-1.29,2.4,5.32,5.32,0,0,1-1.07.78,6.11,6.11,0,0,1-.58.27c-.2.08-.4.13-.59.2a7.87,7.87,0,0,1-2.33.24,10.43,10.43,0,0,1-1.11-.11l-.54-.1c-.18,0-.35-.08-.53-.12l-.52-.14-.51-.17c-.34-.12-.67-.24-1-.39l-.48-.22c-.16-.08-.32-.15-.47-.24-.31-.17-.62-.34-.91-.53s-.58-.39-.86-.6-.55-.43-.8-.67-.5-.48-.73-.74a8,8,0,0,1-.62-.82,12.69,12.69,0,0,0,3.28,2.28,17.52,17.52,0,0,0,1.85.76,14.58,14.58,0,0,0,1.94.51,11.2,11.2,0,0,0,2,.19,7,7,0,0,0,2-.28,4.43,4.43,0,0,0,.47-.17,3.11,3.11,0,0,0,.45-.22,3.85,3.85,0,0,0,.8-.59,3.21,3.21,0,0,0,.92-1.75,3.68,3.68,0,0,0-.2-2,5.41,5.41,0,0,0-1-1.7A9.48,9.48,0,0,0,165.88,84,14.23,14.23,0,0,0,164.19,83a15.29,15.29,0,0,0-3.74-1.43A9.89,9.89,0,0,0,156.47,81.34Z"/><ellipse class="cls-2" cx="179.57" cy="94" rx="2.77" ry="6.11" transform="translate(24.41 224.41) rotate(-67.68)"/><path class="cls-2" d="M185.8,96.39a2.09,2.09,0,0,1-1.15,1.23c-1.37.66-3.72.49-6.12-.45-3.52-1.38-5.75-3.77-5.18-5.56h0a2,2,0,0,1,1.14-1.23c1.37-.66,3.72-.49,6.12.45h0c3.52,1.38,5.75,3.77,5.19,5.56Zm-11.39-4.45h0c-.32,1,1.46,3,4.53,4.17,2.38.93,4.34.92,5.23.49a1,1,0,0,0,.56-.55h0c.32-1-1.46-3-4.53-4.17h0c-2.37-.93-4.34-.92-5.23-.49A1,1,0,0,0,174.41,91.94Z"/><path class="cls-2" d="M175.14,88.69a8.13,8.13,0,0,1,1-.31c.34-.06.68-.11,1-.15a9.2,9.2,0,0,1,1.05,0c.35,0,.7,0,1,.07a14,14,0,0,1,4.07,1.16,12.11,12.11,0,0,1,1.88,1.07,9.39,9.39,0,0,1,1.7,1.47,4.11,4.11,0,0,1,.38.45l.18.24.17.25a6.34,6.34,0,0,1,.57,1.1,4.9,4.9,0,0,1,.28,2.64,4.53,4.53,0,0,1-1.29,2.4,5.38,5.38,0,0,1-1.08.78,4.29,4.29,0,0,1-.58.26,4.1,4.1,0,0,1-.59.2,7.47,7.47,0,0,1-2.32.25c-.38,0-.75-.06-1.11-.11l-.54-.1c-.18,0-.36-.08-.53-.12l-.52-.14c-.18,0-.34-.11-.51-.17-.34-.12-.67-.24-1-.39l-.48-.22-.47-.24c-.31-.17-.61-.34-.91-.53a10.13,10.13,0,0,1-.85-.61,8.5,8.5,0,0,1-.8-.66,10.18,10.18,0,0,1-.73-.74,8.13,8.13,0,0,1-.63-.82A12.46,12.46,0,0,0,176.84,98a15.69,15.69,0,0,0,1.85.77,14.19,14.19,0,0,0,1.94.51,11,11,0,0,0,2,.19,7,7,0,0,0,2-.28,3.75,3.75,0,0,0,.47-.17,3.13,3.13,0,0,0,.45-.22,3.41,3.41,0,0,0,.81-.6,3.32,3.32,0,0,0,.92-1.74,3.68,3.68,0,0,0-.2-2,5.6,5.6,0,0,0-1-1.7,9.08,9.08,0,0,0-1.47-1.37,14.11,14.11,0,0,0-1.68-1.08,15.29,15.29,0,0,0-3.74-1.43A9.72,9.72,0,0,0,175.14,88.69Z"/><polygon class="cls-2" points="151.62 101.93 153.25 88.87 153.29 102.03 151.62 101.93"/><path class="cls-2" d="M150.51,101.36l2-17.83a1.12,1.12,0,0,0-1.63-1.11l-1.5.33S149,85.64,147.13,86s-1.5,3.6-1,3.67c.89.13,2.65-2.19,2.65-2.19a8.36,8.36,0,0,1-1.24,2.44l-1,8.82Z"/><path class="cls-2" d="M146.9,77.18l.7-3.89,3.56-.38-1.52,10.36A14.65,14.65,0,0,0,146.9,77.18Z"/><path class="cls-2" d="M166.57,70.51l-2.64,11.57a9,9,0,0,1,4.5,3.36c1.43,2.37.69,2.42.69,2.42s1.92.21-1.32-5.13a11.41,11.41,0,0,1,2.28,2.11l3.23-14Z"/><polygon class="cls-2" points="174.81 72.59 172.32 84.42 176.62 81 177.52 76.06 174.81 72.59"/><polygon class="cls-2" points="167.66 92.07 165.2 101.44 162.26 101.61 164.59 92.84 167.66 92.07"/><path class="cls-2" d="M192.66,66.51a16.27,16.27,0,0,0,.14,4.87c.54,3.36,2,6.79,3.59,6.53.58-.09,1-.63,1.25-1.45a14.12,14.12,0,0,0,.1-5.89,16.33,16.33,0,0,0-1.42-4.66c-.68-1.34-1.44-2-2.18-1.87S192.89,65,192.66,66.51Zm1.6-1.78-.11,0,.1,0Z"/><path class="cls-2" d="M188.76,40.33c-.83,1.11-1,3.77-.52,6.78.59,3.4,2.13,6.92,3.82,6.74a1.31,1.31,0,0,0,.92-.56,3.06,3.06,0,0,0,.46-1,13.23,13.23,0,0,0,.06-5.82c-.58-3.41-2.12-6.93-3.82-6.75A1.34,1.34,0,0,0,188.76,40.33Z"/><path class="cls-1" d="M9.58,20.38H27.35l-5,23.85,12.27,8.18L29.74,75.56,2,56.2Zm35-1H62.48L45.31,100.21l-14.47-16Z"/><path class="cls-1" d="M67.27,20.38H85L80,44.23l12.27,8.18L87.42,75.56,59.68,56.2Zm35-1h17.87L103,100.21l-14.47-16Z"/></svg>