<?xml version="1.0" encoding="UTF-8" standalone="no"?>
<!-- Creator: CorelDRAW -->
<svg
   xmlns:dc="http://purl.org/dc/elements/1.1/"
   xmlns:cc="http://web.resource.org/cc/"
   xmlns:rdf="http://www.w3.org/1999/02/22-rdf-syntax-ns#"
   xmlns:svg="http://www.w3.org/2000/svg"
   xmlns="http://www.w3.org/2000/svg"
   xmlns:sodipodi="http://sodipodi.sourceforge.net/DTD/sodipodi-0.dtd"
   xmlns:inkscape="http://www.inkscape.org/namespaces/inkscape"
   xml:space="preserve"
   width="744"
   height="875.29297"
   style="shape-rendering:geometricPrecision; text-rendering:geometricPrecision; image-rendering:optimizeQuality; fill-rule:evenodd; clip-rule:evenodd"
   viewBox="0 0 210 297"
   id="svg2"
   sodipodi:version="0.32"
   inkscape:version="0.45.1"
   sodipodi:docname="POL województwo dolnośląskie COA.svg"
   inkscape:output_extension="org.inkscape.output.svg.inkscape"
   sodipodi:docbase="C:\Users\Mistrz\Desktop"
   version="1.0"><metadata
   id="metadata21"><rdf:RDF><cc:Work
       rdf:about=""><dc:format>image/svg+xml</dc:format><dc:type
         rdf:resource="http://purl.org/dc/dcmitype/StillImage" /></cc:Work></rdf:RDF></metadata><sodipodi:namedview
   inkscape:window-height="480"
   inkscape:window-width="640"
   inkscape:pageshadow="2"
   inkscape:pageopacity="0.0"
   guidetolerance="10.0"
   gridtolerance="10.0"
   objecttolerance="10.0"
   borderopacity="1.0"
   bordercolor="#666666"
   pagecolor="#ffffff"
   id="base" />
 <defs
   id="defs4">
  <style
   type="text/css"
   id="style6">
   
    .fil0 {fill:#0A0B0C}
    .fil1 {fill:#FACF00}
    .fil2 {fill:white}
   
  </style>
 </defs>
 <g
   id="Warstwa_x0020_1"
   transform="matrix(1.2021444,0,0,1.2021444,-21.279262,-30.010325)">
  <metadata
   id="CorelCorpID_0Corel-Layer" />
  <path
   class="fil0"
   d="M 210.045,172.201 L 210.045,172.2011 C 210.0449,227.1812 162.8771,272.0225 105.045,272.0225 C 47.2129,272.0225 0.045,227.1812 0.045,172.2011 L 0.045,172.201 L 0.045,24.964 L 210.045,24.9695 L 210.045,172.2005 L 210.045,172.201 z "
   id="path10"
   style="fill:#0a0b0c" />
  <path
   class="fil1"
   d="M 206.843,171.56 L 206.843,171.5601 C 206.8429,225.0077 161.1137,268.5991 105.045,268.5991 C 48.9766,268.5991 3.247,225.0077 3.247,171.5601 L 3.247,171.56 L 3.247,28.428 L 206.842,28.4334 L 206.842,171.5604 L 206.843,171.56 z "
   id="path12"
   style="fill:#facf00" />
  <path
   class="fil0"
   d="M 141.978,98.037 C 144.348,92.7455 148.8804,89.2454 153.943,88.0451 C 156.0257,83.7147 158.3286,80.8319 162.4379,78.3986 C 162.3662,78.37 162.2949,78.3414 162.2236,78.3125 C 162.2236,78.3125 162.2234,78.3125 162.2234,78.3125 C 162.1522,78.2837 162.081,78.2548 162.0097,78.2261 C 162.0097,78.2261 162.0092,78.2261 162.0092,78.2261 C 161.9382,78.197 161.8673,78.1682 161.7964,78.1391 C 161.7964,78.1391 161.7958,78.1391 161.7958,78.1391 C 151.9383,74.5994 141.0569,65.9728 143.2323,52.8321 C 144.6262,44.4121 153.6239,40.0789 161.588,40.0583 C 171.5254,40.0327 180.5488,46.0339 185.3381,54.6638 C 190.3864,63.7602 191.5668,75.1727 191.9555,85.3551 C 192.2657,93.482 191.7146,101.6128 191.3572,109.7268 C 191.0059,117.7023 190.5698,123.8942 197.5577,119.5427 C 197.8356,125.0543 193.3306,128.4142 189.2954,128.367 C 183.0591,128.2941 179.2776,116.6103 178.4973,111.5756 C 178.0835,117.283 181.171,150.2718 187.5518,149.3879 C 190.1694,149.0258 190.8391,147.9797 192.3212,147.0734 C 192.304,152.7941 189.8718,156.9349 183.8747,157.2968 C 174.9437,157.8366 166.7895,137.0932 164.8097,129.4921 C 167.4076,156.3267 174.6572,180.1907 180.9927,179.8778 C 183.747,179.7422 186.0436,177.9976 187.5304,176.2493 C 187.1984,183.1475 182.9322,187.8815 179.2811,188.4791 C 163.5574,191.0469 152.5761,155.1102 148.2662,144.1606 C 149.426,154.4914 151.3955,166.2954 151.1621,176.1024 C 148.135,175.7521 141.1841,163.0574 135.3854,152.5027 C 137.3769,169.2588 142.2955,179.5172 146.51,188.1789 C 145.2628,188.7993 139.6994,187.2392 138.2011,187.9699 C 141.0438,195.2003 145.002,199.5663 148.031,205.3846 C 149.7099,201.7538 152.2295,198.3572 154.4855,197.0994 C 154.8569,194.5222 157.0833,192.3192 159.5959,193.4159 C 162.5795,193.344 165.619,194.4906 165.3724,196.6151 C 164.3931,196.1856 163.2955,196.2317 162.4638,196.987 C 162.6863,198.9653 160.876,200.6508 159.0501,201.2187 C 155.1543,201.372 153.2782,204.4396 151.6494,208.055 C 155.2406,207.1327 160.2864,206.5963 163.185,207.4288 C 165.1337,205.8156 168.4823,206.1763 169.3882,208.5256 C 171.5193,210.6149 172.8163,213.5936 171.121,214.8977 C 170.7468,213.8957 169.9479,213.1407 168.827,213.0713 C 167.5794,214.188 165.0862,213.5984 163.4132,212.8192 C 158.682,211.315 156.3028,212.0661 153.6933,213.5397 C 156.1614,217.0947 158.1872,220.2136 159.0207,221.4055 C 161.0256,221.2755 161.9909,224.6458 160.668,227.2758 C 160.286,230.2341 158.5969,232.5574 156.5868,231.985 C 157.2945,230.8514 158.1115,230.2239 156.5424,228.3002 C 154.8461,228.0222 154.11,228.1494 153.8596,226.2813 C 152.9111,221.1636 148.9671,216.6296 147.0637,214.5782 C 142.0449,213.1721 139.2708,212.5501 136.1332,215.3307 C 134.8964,216.9646 133.0126,217.0413 131.1182,216.5358 C 129.8023,216.9213 129.0741,218.347 128.9063,219.5758 C 127.4208,218.6771 128.1243,215.1095 129.1932,212.6021 C 129.4179,209.8028 132.5597,208.5615 135.0619,209.7052 C 137.3228,208.5201 138.9077,209.0291 143.076,208.4758 C 141.1104,205.6004 133.2158,191.8079 131.7452,190.5036 C 130.4222,191.2769 128.1661,196.0856 127.5089,197.6281 C 124.2399,190.0233 121.6402,179.8291 118.8071,171.7429 C 116.7974,180.3684 115.0967,189.0258 113.2605,197.6905 C 117.2068,198.8438 119.8056,200.7812 119.8056,202.97 C 119.8056,205.5822 117.0359,207.8375 111.7574,208.8278 C 109.2442,228.889 125.9281,235.561 136.9583,226.4901 C 143.4866,230.3773 137.9605,244.154 126.434,242.1534 C 126.8121,243.925 127.4195,248.7211 125.9158,253.2672 C 120.9899,252.8439 116.8452,251.6983 114.2719,250.0418 C 113.0111,255.7278 110.0926,259.8356 104.9674,262.4819 C 104.9524,262.4896 104.9377,262.4958 104.9204,262.5018 C 104.9019,262.494 104.8935,262.4896 104.8786,262.4819 C 99.7531,259.8356 96.8343,255.7278 95.5737,250.0418 C 93.0006,251.6983 88.856,252.8439 83.9298,253.2672 C 82.4262,248.7211 83.0332,243.925 83.4116,242.1534 C 71.885,244.154 66.3595,230.3773 72.8874,226.4901 C 83.9178,235.561 100.6015,228.889 98.0884,208.8278 C 92.8098,207.8375 90.0403,205.5822 90.0403,202.97 C 90.0403,200.7812 92.6388,198.8438 96.5854,197.6905 C 94.7488,189.0266 93.049,180.3689 91.0385,171.7429 C 88.3117,179.2342 85.7732,188.9833 82.3365,197.6281 C 81.6795,196.0856 79.4238,191.2769 78.1005,190.5036 C 76.6299,191.8079 68.7353,205.6004 66.7694,208.4758 C 70.9382,209.0291 72.5228,208.5201 74.7841,209.7052 C 77.2862,208.5615 80.4277,209.8028 80.6522,212.6021 C 81.7216,215.1095 82.4251,218.6771 80.9392,219.5758 C 80.7719,218.347 80.0442,216.9215 78.7272,216.5358 C 76.8327,217.0413 74.9491,216.9646 73.7127,215.3307 C 70.5746,212.5501 67.8009,213.1721 62.7818,214.5782 C 60.8782,216.6296 56.9345,221.1636 55.986,226.2813 C 55.7355,228.1494 55,228.0222 53.3028,228.3002 C 51.7341,230.2239 52.5512,230.8514 53.259,231.985 C 51.2485,232.5574 49.5597,230.2341 49.1779,227.2758 C 47.8547,224.6458 48.82,221.2755 50.8248,221.4055 C 51.658,220.2136 53.6842,217.0947 56.1525,213.5397 C 53.5432,212.0661 51.1637,211.315 46.4322,212.8192 C 44.7597,213.5984 42.266,214.188 41.0184,213.0713 C 39.8996,213.1407 39.0992,213.895 38.7244,214.8977 C 37.0296,213.5936 38.3267,210.6149 40.4573,208.5256 C 41.3632,206.1763 44.7122,205.8156 46.6606,207.4288 C 49.5592,206.5963 54.6049,207.1327 58.1961,208.055 C 56.5672,204.4396 54.691,201.372 50.7956,201.2187 C 48.9697,200.6508 47.1596,198.9653 47.3816,196.987 C 46.5511,196.2322 45.4534,196.1851 44.473,196.6151 C 44.2267,194.4906 47.2661,193.344 50.2496,193.4159 C 52.762,192.3192 54.9888,194.5222 55.3601,197.0994 C 57.6164,198.3572 60.136,201.7538 61.8147,205.3846 C 64.8441,199.5663 68.8017,195.2003 71.6443,187.9699 C 70.1459,187.2392 64.5826,188.7993 63.3355,188.1789 C 67.5501,179.5172 72.4691,169.2588 74.4605,152.5027 C 68.6618,163.0574 61.7106,175.7521 58.6836,176.1024 C 58.4501,166.2954 60.4194,154.4914 61.5795,144.1606 C 57.27,155.1102 46.2883,191.0469 30.5646,188.4791 C 26.9137,187.8815 22.6475,183.1475 22.3151,176.2493 C 23.8018,177.9976 26.0989,179.7422 28.8529,179.8778 C 35.1887,180.1907 42.4376,156.3267 45.0358,129.4921 C 43.0564,137.0932 34.9017,157.8366 25.9712,157.2968 C 19.9737,156.9349 17.5415,152.7941 17.5246,147.0734 C 19.0066,147.9797 19.6762,149.0258 22.2936,149.3879 C 28.6749,150.2718 31.7624,117.283 31.3481,111.5756 C 30.5679,116.6103 26.7865,128.2941 20.5503,128.367 C 16.5149,128.4142 12.01,125.0543 12.2878,119.5427 C 19.6195,124.1083 18.7814,117.0679 18.4379,108.5381 C 17.9493,97.6112 17.3038,86.7873 18.7087,75.8709 C 19.611,68.8612 20.9243,61.4821 24.2876,55.1717 C 29.0141,46.3075 37.5775,40.5371 47.5896,40.0677 C 55.6717,39.8258 64.888,44.1789 66.6467,52.7181 C 69.3326,65.5064 57.87,74.1753 47.4642,78.3986 C 51.2578,80.5462 53.6579,83.2603 55.9589,88.0451 C 61.0215,89.2454 65.5539,92.7455 67.9239,98.037 C 71.0306,97.7814 74.283,98.0758 77.0721,99.4066 C 77.0726,99.4068 77.0734,99.4073 77.0742,99.4076 C 77.0756,99.4083 77.0767,99.4091 77.0784,99.4096 C 77.0804,99.4106 77.0828,99.4118 77.0848,99.4128 C 77.0848,99.4128 77.0851,99.4128 77.0851,99.4128 C 77.0874,99.4138 77.0891,99.415 77.0914,99.416 C 77.0918,99.4163 77.0924,99.4165 77.0931,99.4168 C 77.1033,99.4217 77.1135,99.4267 77.1239,99.4317 C 77.124,99.4317 77.124,99.4319 77.1242,99.4319 C 77.1451,99.4421 77.1663,99.4523 77.1876,99.4628 C 77.1886,99.4613 77.1896,99.4598 77.1906,99.4583 C 77.1912,99.4571 77.1919,99.4558 77.1926,99.4546 C 77.1929,99.4543 77.1933,99.4538 77.1936,99.4536 C 77.1974,99.4476 77.2014,99.4416 77.2055,99.4357 C 77.206,99.4344 77.2068,99.4332 77.2076,99.4319 C 77.2086,99.4304 77.2098,99.429 77.2106,99.4277 C 77.2115,99.4265 77.212,99.4252 77.2128,99.424 C 77.2168,99.4178 77.2212,99.4115 77.2252,99.4053 C 77.226,99.4041 77.2264,99.4028 77.2274,99.4016 C 78.8748,96.8723 80.8562,94.6009 84.3298,92.6694 C 93.7094,87.4551 97.548,75.3522 93.659,65.6632 C 91.0468,59.1564 85.3847,51.8129 81.4861,54.4661 C 81.3023,53.0118 82.0493,51.4135 83.2502,51.1097 C 87.1086,50.1192 93.5181,54.1096 94.8535,57.7751 C 96.9487,56.9061 95.4866,54.711 94.7462,53.459 C 92.6851,49.976 85.9882,45.3901 81.0636,48.0142 C 79.32,48.9382 79.6234,50.9071 78.978,50.9925 C 77.0587,49.0415 76.5597,44.7233 76.9621,41.775 C 77.6409,36.7956 82.8015,35.0042 87.3403,35.2466 C 91.2543,35.4505 95.1773,38.0446 98.6822,39.6588 C 100.9884,40.717 101.7911,40.993 104.5655,39.7126 C 105.4743,39.2933 109.3655,38.5101 111.1499,39.1086 C 125.2937,43.8543 130.41,50.9265 130.8753,64.2627 C 130.9278,65.7702 130.122,67.0912 130.8612,69.0313 C 129.2888,69.3634 128.3316,67.3353 127.6323,66.4334 C 125.2029,69.3833 122.4872,73.9488 124.1693,77.929 C 124.2783,78.6836 124.2109,79.2303 124.4756,80.0462 C 120.6656,80.4722 120.1915,76.6704 118.7752,74.2893 C 118.1698,75.3474 117.4655,75.9331 116.7711,76.3609 C 116.0459,82.3791 119.6025,88.8477 126.3491,92.6694 C 129.7159,94.5392 131.7641,97.0677 133.1503,99.2406 C 135.8949,98.0348 139.0184,97.7936 141.978,98.037 L 141.978,98.037 z "
   id="path14"
   style="fill:#0a0b0c" />
  <path
   class="fil2"
   d="M 176.658,79.9627 C 176.6185,119.8606 141.268,138.1687 105.0106,138.1687 C 68.7533,138.1687 33.4026,119.8606 33.3633,79.9627 C 43.1624,106.0716 63.4095,123.0742 100.4196,124.3622 C 102.6279,115.3146 102.6288,113.5099 102.7418,111.594 C 100.8181,111.7071 99.0077,111.7071 89.8643,113.9429 C 89.8643,110.8643 89.8643,107.7858 89.8643,104.7071 C 99.0077,106.9431 100.8181,106.9431 102.7418,107.0561 C 102.6286,105.1324 102.6286,103.322 100.3928,94.1788 C 103.4713,94.1788 106.5496,94.1788 109.6283,94.1788 C 107.3927,103.322 107.3927,105.1324 107.2793,107.0561 C 109.2033,106.9431 111.0136,106.9431 120.1568,104.7071 C 120.1568,107.7858 120.1568,110.8643 120.1568,113.9429 C 111.0136,111.7071 109.2033,111.7071 107.2793,111.594 C 107.3925,113.5099 107.3932,115.3146 109.6019,124.3622 C 146.6121,123.0742 166.8588,106.0716 176.658,79.9627 L 176.658,79.9627 z M 112.6113,49.7284 C 112.845,49.0539 112.7193,49.1035 113.3122,48.9505 C 114.217,49.0398 116.5373,51.8373 117.1311,51.24 C 116.037,48.2355 109.2235,42.6645 104.7759,44.5036 C 104.4566,44.6357 104.4767,45.2769 104.6283,45.4488 C 105.0212,45.8933 105.5021,46.4637 105.6417,47.0043 C 103.5484,52.2756 111.1696,53.8667 112.6113,49.7284 L 112.6113,49.7284 z "
   id="path16"
   style="fill:#ffffff" />
  <path
   class="fil0"
   d="M 111.517,48.2546 C 110.5964,53.4747 105.0075,49.6241 107.277,47.2482 C 107.277,47.0237 107.3334,46.5351 107.3513,46.3219 C 107.8559,46.3294 108.7276,46.6362 109.2182,46.9869 C 109.4678,47.3619 109.6469,48.1617 109.3526,48.2345 C 106.8683,48.8501 108.3459,49.5179 109.8874,49.1769 C 110.4677,49.0487 110.5509,48.0572 110.4931,47.5774 C 110.7983,47.7472 111.2885,48.0792 111.517,48.2546 z "
   id="path18"
   style="fill:#0a0b0c" />
 </g>
</svg>