<?xml version="1.0" encoding="UTF-8" standalone="no"?>
<!-- Created with Inkscape (http://www.inkscape.org/) -->
<svg
   xmlns:dc="http://purl.org/dc/elements/1.1/"
   xmlns:cc="http://web.resource.org/cc/"
   xmlns:rdf="http://www.w3.org/1999/02/22-rdf-syntax-ns#"
   xmlns:svg="http://www.w3.org/2000/svg"
   xmlns="http://www.w3.org/2000/svg"
   xmlns:sodipodi="http://sodipodi.sourceforge.net/DTD/sodipodi-0.dtd"
   xmlns:inkscape="http://www.inkscape.org/namespaces/inkscape"
   height="868.71454"
   width="741.24951"
   id="svg6919"
   sodipodi:version="0.32"
   inkscape:version="0.45.1"
   version="1.0"
   sodipodi:docbase="C:\Documents and Settings\Janusz\Pulpit"
   sodipodi:docname="POL_województwo_lubuskie_COA.svg"
   inkscape:output_extension="org.inkscape.output.svg.inkscape">
  <defs
     id="defs6921" />
  <sodipodi:namedview
     id="base"
     pagecolor="#ffffff"
     bordercolor="#666666"
     borderopacity="1.0"
     inkscape:pageopacity="0.0"
     inkscape:pageshadow="2"
     inkscape:cx="380"
     inkscape:cy="434.28571"
     inkscape:zoom="0.51195652"
     inkscape:document-units="px"
     inkscape:current-layer="layer1"
     inkscape:window-width="851"
     inkscape:window-height="670"
     inkscape:window-x="116"
     inkscape:window-y="32" />
  <metadata
     id="metadata6924">
    <rdf:RDF>
      <cc:Work
         rdf:about="">
        <dc:format>image/svg+xml</dc:format>
        <dc:type
           rdf:resource="http://purl.org/dc/dcmitype/StillImage" />
      </cc:Work>
    </rdf:RDF>
  </metadata>
  <g
     inkscape:groupmode="layer"
     inkscape:label="Warstwa 1"
     id="layer1"
     transform="translate(-186.5181,-80.862058)">
    <g
       id="g13398"
       transform="translate(181.5216,77.070909)">
      <path
         style="fill:#de2118;fill-opacity:1;fill-rule:evenodd;stroke:#000000;stroke-width:5.33227682;stroke-linecap:round;stroke-linejoin:miter;stroke-miterlimit:4;stroke-dasharray:none;stroke-dashoffset:0;stroke-opacity:1"
         d="M 374.62418,869.7702 C 220.39395,867.11107 14.310428,734.8188 7.6626395,556.65633 L 7.6626395,6.4572879 L 378.45182,6.4572879 L 374.62418,869.7702 z "
         id="path5851" />
      <g
         id="g3719">
        <path
           id="path4304"
           d="M 378.45182,6.4572879 L 743.57987,6.4572879 L 743.57987,556.65633 C 736.26733,756.75671 545.47396,873.09414 374.62418,869.7702 L 378.45182,6.4572879 z "
           style="fill:#009442;fill-opacity:1;fill-rule:evenodd;stroke:#000000;stroke-width:5.33227682;stroke-linecap:round;stroke-linejoin:miter;stroke-miterlimit:4;stroke-dasharray:none;stroke-dashoffset:0;stroke-opacity:1" />
        <path
           sodipodi:nodetypes="ccccccccccccc"
           id="path3824"
           d="M 563.56092,344.96854 L 533.44529,258.04644 L 438.73311,280.10389 L 505.26776,212.73834 L 443.31747,144.51264 L 536.2429,170.90223 L 561.69014,85.795547 L 588.06419,172.62243 L 679.03551,148.87652 L 611.69119,212.67486 L 681.0908,275.69239 L 587.10385,257.1705 L 563.56092,344.96854 z "
           style="fill:#fff700;fill-opacity:1;fill-rule:evenodd;stroke:none;stroke-width:3.54330707;stroke-linecap:butt;stroke-linejoin:miter;stroke-miterlimit:4;stroke-dasharray:none;stroke-opacity:1" />
        <path
           style="fill:#fff700;fill-opacity:1;fill-rule:evenodd;stroke:none;stroke-width:3.54330707;stroke-linecap:butt;stroke-linejoin:miter;stroke-miterlimit:4;stroke-dasharray:none;stroke-opacity:1"
           d="M 563.56092,684.96854 L 533.44529,598.04644 L 438.73311,620.10389 L 505.26776,552.73834 L 443.31747,484.51264 L 536.2429,510.90223 L 561.69014,425.79555 L 588.06419,512.62243 L 679.03551,488.87652 L 611.69119,552.67486 L 681.0908,615.69239 L 587.10385,597.1705 L 563.56092,684.96854 z "
           id="path7525"
           sodipodi:nodetypes="ccccccccccccc" />
      </g>
      <g
         transform="matrix(0.9999836,5.7328881e-3,-5.7328881e-3,0.9999836,764.65911,-14.569254)"
         id="g13263">
        <path
           id="path12909"
           style="fill:#000000;fill-rule:evenodd;stroke:#010000;stroke-width:0.5;stroke-linecap:butt;stroke-linejoin:miter;stroke-miterlimit:4;stroke-opacity:1"
           d="M -384.67789,47.103139 C -393.14927,50.974459 -401.7958,64.047529 -404.01203,72.968049 C -409.14106,70.568729 -414.48685,72.605549 -414.44361,76.919309 C -408.84909,84.512529 -401.72776,88.262269 -405.96874,101.35298 C -413.77404,99.065509 -425.02161,101.36774 -428.12799,92.815049 C -427.4882,86.923569 -422.69438,83.109099 -418.71258,78.888629 C -415.64714,66.460949 -429.57298,70.998059 -434.97648,71.316439 C -436.47474,69.656689 -436.35727,59.943509 -442.36543,61.725179 C -444.5539,52.617749 -451.47568,52.152309 -459.76569,48.534379 C -460.68239,58.722999 -454.48898,63.566269 -454.54644,71.833139 C -454.62228,82.897779 -449.15672,79.192169 -451.74653,84.338799 C -450.98415,87.216319 -450.57166,90.174369 -450.66235,93.340049 C -446.19096,100.81108 -449.04413,108.83353 -455.33868,109.52967 C -461.69235,109.0779 -465.80554,112.17354 -467.23293,119.52171 C -478.27756,117.08828 -486.42231,115.04897 -490.37834,116.04692 C -507.05915,124.3776 -496.67212,142.15021 -499.00223,153.66469 C -498.53154,156.27498 -496.31655,158.63014 -494.5632,155.59562 C -492.20647,148.4215 -492.02758,144.37254 -484.86278,144.20148 C -476.0433,145.77796 -469.18622,151.93339 -461.4586,156.05754 C -453.1897,159.74736 -442.83197,161.34835 -439.90211,170.37721 C -443.57056,172.44494 -447.61109,165.79246 -456.35452,163.21512 C -464.96191,160.67788 -476.10446,159.38021 -478.70378,169.91528 C -462.88149,171.70097 -451.27288,180.04127 -438.97826,187.31445 C -408.56335,199.22184 -417.85589,241.77023 -437.59249,250.29017 C -443.93686,253.70055 -451.78483,255.63794 -460.79494,257.23076 C -473.83793,259.53652 -495.90547,269.25338 -489.3744,280.84476 C -483.42154,274.71944 -475.78834,275.92745 -467.46362,276.92783 C -465.58876,277.16584 -465.30628,278.40531 -465.61592,279.69938 C -469.9471,283.7365 -468.6937,289.48934 -471.77491,290.78557 C -527.21309,275.52547 -529.17892,260.15387 -553.9975,231.96716 C -544.12646,225.53091 -537.14809,217.10594 -532.13307,207.33118 C -526.93475,195.52644 -525.93774,182.01306 -527.27343,171.91696 C -529.32509,161.90474 -536.27992,151.06318 -542.29541,143.12365 C -550.51836,132.88696 -561.77031,125.7209 -570.62679,122.18307 C -579.09541,119.58846 -588.24749,118.78947 -596.26047,119.2112 C -607.84077,120.6289 -617.70682,124.42966 -626.05775,128.95796 C -636.72865,136.13843 -646.47299,145.74015 -653.00964,159.29102 C -658.24532,169.89235 -661.00499,184.72555 -663.01801,198.40064 C -667.9444,218.07792 -667.65432,243.5843 -680.71884,262.14624 C -686.2488,276.50508 -695.30565,289.74173 -714.13139,299.87009 C -704.71947,303.70001 -694.47924,306.70162 -676.09959,301.56381 C -675.60412,307.59771 -697.20712,432.68882 -743.25162,450.97626 C -748.03552,453.89756 -748.38812,456.29066 -742.59782,458.94506 C -730.00882,468.66086 -712.50998,467.83826 -698.53055,465.55206 C -686.58943,461.98966 -681.14731,458.22486 -672.09624,450.61146 C -644.31147,424.2431 -640.15235,386.23004 -627.5975,350.83578 L -626.21173,350.83578 C -628.75158,357.13372 -636.51014,386.25601 -636.64415,399.47042 C -642.12653,416.69539 -637.75265,436.25489 -657.93055,497.57386 C -664.5335,521.04646 -680.46597,536.27436 -706.89457,542.22656 C -709.04578,542.28406 -712.03156,542.78886 -707.35649,546.69186 C -689.99625,561.90996 -669.87763,570.05976 -645.15064,566.40066 C -630.6815,559.97996 -620.75192,549.74696 -612.20001,535.45166 C -604.15063,518.00186 -595.92733,500.71136 -593.2611,478.32696 C -587.54637,450.16686 -582.91053,421.57527 -575.09206,394.25669 C -570.45508,377.14048 -570.93341,366.67416 -566.31549,361.76799 C -570.5023,373.05948 -569.58635,381.41148 -572.01257,395.64247 C -579.13381,428.02213 -577.63993,442.07315 -582.48286,460.61986 C -584.83558,471.41006 -587.29654,482.17856 -587.41005,493.41656 C -590.95269,523.69826 -601.16691,559.51316 -605.27363,580.28476 C -612.74597,603.50986 -641.64538,622.91676 -666.68819,625.10296 C -655.64724,639.37636 -632.44015,645.04256 -611.48695,642.37206 C -587.89362,637.76536 -563.03036,618.04776 -548.76236,591.49856 C -539.98799,570.34946 -532.92233,546.71496 -529.20755,518.20646 C -527.16974,502.35606 -524.61292,486.63546 -520.73893,471.24416 C -518.0275,446.81346 -513.70761,422.38277 -513.04018,397.95209 C -509.76232,396.75495 -514.45317,428.1391 -512.57826,441.21903 C -513.76231,462.21656 -511.67355,483.04176 -504.10964,503.57886 L -499.49039,499.57556 C -481.46541,472.74766 -477.24929,468.23736 -475.9133,440.41376 C -474.48177,438.8975 -472.59503,444.49879 -470.08119,446.14626 C -468.51878,440.80843 -463.15811,435.47064 -458.53307,430.13284 C -456.88042,433.53398 -451.84846,435.80868 -453.91383,440.44916 C -460.54744,443.48739 -463.86501,448.36786 -466.38579,453.69096 C -471.58417,462.76666 -475.15717,470.54196 -482.39918,481.25246 L -476.08621,481.86836 C -478.40348,486.91246 -481.47896,490.81916 -484.7088,494.49436 L -500.10629,509.12196 C -496.05162,512.01576 -491.99695,511.90656 -487.94228,512.66336 L -492.15889,517.64736 C -495.88078,525.86936 -500.70253,532.74896 -505.34144,537.76126 C -502.60546,540.89616 -498.60398,540.23456 -495.02512,540.84076 C -495.6057,547.31866 -499.24722,551.95996 -501.95399,557.16216 C -496.77017,557.18986 -491.58635,554.37266 -486.40253,552.23496 C -486.44131,558.32336 -489.74519,564.95606 -492.40755,571.48176 C -496.9885,579.52376 -499.43714,588.09876 -502.26194,596.57966 C -508.98762,608.55576 -511.76655,625.08566 -523.81843,630.91606 C -531.77215,632.60406 -538.81016,631.08706 -545.52889,628.45246 C -549.78902,623.57716 -554.80721,620.97596 -561.54227,623.52526 C -571.27929,628.53576 -593.27633,631.89946 -583.40671,652.78056 C -579.98158,647.03276 -576.50986,641.98386 -572.47449,645.38976 C -567.37911,651.25296 -561.99465,655.90206 -553.84353,648.93116 C -550.91801,647.44966 -547.99248,648.63356 -545.06696,649.54706 C -546.63149,652.42246 -549.3407,653.77156 -552.7657,654.16626 C -561.35033,654.37076 -568.95272,656.14676 -571.39667,666.17636 C -584.40706,669.14056 -585.24321,685.52666 -576.78579,691.89016 C -574.79456,687.57186 -575.54269,681.42736 -568.47114,680.49606 C -564.7217,685.61536 -560.05749,688.77446 -551.99583,684.65336 C -547.17248,682.18936 -545.10808,678.80566 -543.98914,675.10686 C -543.9352,671.94096 -531.46574,661.76476 -528.8996,660.63326 C -529.34476,671.97936 -545.94265,673.96856 -547.06487,690.79726 C -548.27533,697.47856 -548.87347,706.15746 -540.29374,714.06256 C -537.61117,707.97366 -538.1549,697.44866 -531.05525,697.43326 C -515.60997,699.80116 -511.38102,687.33446 -510.11466,670.94956 L -503.64772,658.01566 C -499.35393,651.89346 -493.13808,647.37286 -483.32303,645.85166 L -480.70546,646.77556 C -469.4343,652.99756 -463.69358,644.63936 -457.30127,637.99896 C -454.93537,638.65666 -454.59342,640.57936 -455.9155,643.54206 C -445.25746,642.60516 -441.49734,619.8606 -457.45525,622.44746 C -464.7409,616.88176 -471.41411,618.35906 -477.77993,623.37136 C -486.77222,633.20086 -491.1742,626.36226 -486.86445,615.98056 C -480.76635,595.89336 -474.01477,576.8949 -466.01056,557.8533 C -460.80937,562.8081 -456.76643,566.95218 -450.23176,567.46208 C -447.26508,562.07298 -450.641,559.00986 -450.9883,553.62066 C -443.05272,560.99586 -433.18216,558.26087 -422.5986,558.57467 C -422.30452,556.21377 -422.94914,555.18381 -424.92493,552.82291 C -426.02462,550.55601 -427.83186,549.79894 -429.72496,546.10634 C -431.97398,541.38444 -432.04381,535.5918 -430.46501,530.7748 C -424.83665,531.6219 -422.80411,532.94004 -414.82459,532.02374 C -417.15257,529.97074 -416.3777,530.07853 -416.05617,528.02553 C -413.04388,524.88253 -407.43767,523.44726 -404.17994,521.28596 C -402.98862,533.43466 -414.48775,544.42714 -417.6049,548.71724 C -418.68848,550.62384 -419.78878,556.87773 -419.35998,559.03643 C -413.75737,560.15511 -408.18039,556.80345 -402.59136,555.55242 C -403.37457,574.59082 -422.30366,599.20222 -445.90713,605.04836 C -436.66382,613.73036 -426.01374,612.13146 -413.26446,610.28346 C -423.66604,616.14306 -422.12268,628.21486 -414.34228,633.84166 C -420.56172,681.85626 -451.76059,711.43376 -507.34311,686.96296 C -505.35079,712.98256 -494.1767,740.69546 -460.8427,740.08426 C -440.0024,739.27286 -424.4184,715.31346 -417.42178,707.74956 C -420.63423,715.63736 -430.81096,728.09746 -442.98161,736.08096 C -459.23856,746.24806 -460.34175,761.92556 -456.22345,779.50186 C -441.13509,777.85686 -424.95204,778.64446 -420.65525,753.01816 L -409.56906,718.21986 C -410.13766,727.70006 -415.86472,744.26246 -418.34563,756.55956 C -423.65455,784.27186 -399.18006,810.2342 -385.6282,829.4646 L -384.67789,47.103139 z M -407.02863,474.39393 C -402.63368,479.11373 -403.90824,491.84876 -407.61956,502.64816 C -408.1409,515.36107 -411.3045,523.4262 -415.87057,528.1813 C -421.57486,521.6158 -419.98998,509.57546 -419.59597,501.60266 C -415.95235,499.03096 -414.21579,501.75905 -410.00187,500.37615 C -411.25206,492.77215 -411.98977,481.99803 -407.02863,474.39393 z "
           sodipodi:nodetypes="cccccccccsccccccccccscccsccccccccccccccccccccccccccccccccccccccccccccccccccccccccccccccccccccccccccccccccccccccccccccccccccccccccccccccccccccccc" />
        <path
           style="fill:#fff700;fill-opacity:1;fill-rule:evenodd;stroke:none;stroke-width:0.30000001;stroke-linecap:butt;stroke-linejoin:miter;stroke-miterlimit:4;stroke-dasharray:none;stroke-opacity:1"
           d="M -453.54158,130.2641 C -452.19656,138.8661 -445.37396,148.45046 -432.5296,152.46544 C -427.48867,162.70417 -409.61086,169.67167 -417.46441,183.88358 C -437.32494,195.6192 -450.50785,166.50412 -475.34647,166.73773 C -462.42113,151.41111 -444.34159,180.52473 -431.53847,173.08097 C -430.96811,164.31514 -450.39802,153.2258 -460.87595,150.87963 C -464.57001,149.18185 -468.09415,145.48908 -472.10493,142.90496 C -480.44397,137.53216 -485.88398,131.26486 -494.14315,147.72318 C -494.38126,148.19767 -495.00819,148.92019 -495.36731,148.89737 C -496.70582,138.19609 -499.94194,120.69314 -485.85246,117.53379 C -478.64867,116.14095 -462.77161,122.82335 -453.54158,130.2641 z "
           id="path4560"
           sodipodi:nodetypes="ccccccssccc" />
        <path
           style="fill:#fdfdfd;fill-opacity:1;fill-rule:evenodd;stroke:none;stroke-width:0.30000001;stroke-linecap:butt;stroke-linejoin:miter;stroke-miterlimit:4;stroke-dasharray:none;stroke-opacity:1"
           d="M -434.90462,128.21158 C -432.59006,126.24454 -434.76784,124.02532 -436.98385,124.91948 C -438.61883,126.99514 -437.73905,130.14534 -436.45093,131.88613 C -435.03757,131.68049 -436.75301,128.90174 -434.90462,128.21158 z "
           id="path5531"
           sodipodi:nodetypes="cccc" />
        <path
           style="fill:#fdfdfd;fill-opacity:1;fill-rule:evenodd;stroke:none;stroke-width:0.2;stroke-linecap:butt;stroke-linejoin:miter;stroke-miterlimit:4;stroke-dasharray:none;stroke-opacity:1"
           d="M -441.54544,122.19205 C -439.53013,120.47716 -437.91717,123.45359 -438.56329,124.92569 C -440.78041,124.94745 -439.86097,135.04215 -436.20241,134.24493 C -434.04264,134.82634 -431.23833,134.65365 -428.87128,132.44321 C -427.91865,132.11613 -425.97196,134.44736 -426.01338,134.86621 C -429.87518,136.48046 -433.15254,140.2655 -438.06626,137.97262 C -444.75186,134.48906 -442.40675,123.16758 -441.54544,122.19205 z "
           id="path5533"
           sodipodi:nodetypes="ccccccc" />
        <path
           style="fill:#fdfdfd;fill-opacity:1;fill-rule:evenodd;stroke:none;stroke-width:0.5;stroke-linecap:butt;stroke-linejoin:miter;stroke-miterlimit:4;stroke-dasharray:none;stroke-opacity:1"
           d="M -389.17133,122.50269 C -410.76687,124.4343 -445.62408,98.302374 -454.57955,117.23395 C -456.8419,117.26214 -453.95966,112.57753 -456.26984,110.57407 C -460.2387,110.63189 -460.73434,115.03318 -461.98497,118.9742 C -459.0487,122.58822 -455.52438,124.14407 -451.7966,124.98782 C -452.1262,120.35037 -448.36576,118.35021 -443.84419,118.52648 C -436.86583,121.24013 -430.34406,124.41037 -421.47802,125.23633 C -420.30891,126.37594 -421.1066,127.01552 -421.97504,126.97592 L -432.41259,124.73931 C -432.91621,129.03856 -429.32804,129.92798 -427.69084,132.44321 C -423.83385,132.4169 -419.76865,133.16329 -415.51371,134.33085 C -414.64779,135.41736 -415.64844,135.68754 -416.01073,135.67388 C -418.91005,134.68362 -421.80937,133.85378 -424.70869,134.43131 C -427.95429,140.36949 -435.27833,141.67292 -440.86203,137.91049 C -443.50809,134.79736 -446.33784,131.94446 -444.34121,122.25418 C -443.88619,120.39504 -445.93943,119.79777 -447.07486,121.26012 C -451.44895,132.16964 -442.24724,147.76328 -429.67895,146.85696 C -422.69001,156.61307 -412.79269,160.28801 -410.04642,178.91514 C -410.95729,184.16767 -414.2714,185.09436 -417.2533,186.61904 C -421.34573,187.18106 -420.11364,189.6447 -418.24735,192.33484 C -409.96904,203.26941 -405.49593,213.06991 -407.31278,225.13855 C -408.27541,219.24311 -407.9399,212.77072 -412.53155,208.48818 C -412.42691,212.79574 -410.80116,217.1033 -412.28304,221.41086 C -413.14512,218.88574 -414.79697,218.33502 -416.50776,217.93167 C -415.46711,221.87552 -412.06258,225.2284 -415.76222,230.35732 C -428.04498,268.70934 -475.06418,250.59973 -484.60032,273.35007 C -461.19314,265.04807 -458.36131,279.12651 -440.94853,274.0311 C -444.13201,285.79613 -443.44767,296.37934 -431.17002,303.42014 C -429.82398,285.05901 -418.91878,288.95932 -412.03452,281.551 C -411.68689,283.45301 -415.37358,286.61551 -416.01073,288.26085 C -405.89922,297.95504 -423.25482,310.66615 -389.17133,326.53185 L -389.17133,122.50269 z "
           id="path5535"
           sodipodi:nodetypes="cccccccccccccccccccccccccccccccc" />
        <path
           style="fill:#fff700;fill-opacity:1;fill-rule:evenodd;stroke:none;stroke-width:1px;stroke-linecap:butt;stroke-linejoin:miter;stroke-opacity:1"
           d="M -389.36773,120.97278 L -389.15473,56.220155 C -394.92466,60.3346 -398.61705,66.04715 -397.0358,75.816343 C -401.40422,74.798031 -406.96754,72.435464 -407.0469,76.242347 C -401.00635,84.982244 -396.2599,94.207431 -403.63887,107.97965 C -413.40904,104.37377 -422.79338,99.996226 -434.73717,100.73758 C -433.72415,79.640613 -423.86336,81.254767 -420.67903,74.112327 C -430.40796,71.48326 -435.57756,73.920118 -440.27522,76.881353 C -438.4886,69.558335 -444.33616,54.994627 -452.62934,56.220155 C -447.52265,67.830109 -443.90878,89.717861 -443.89625,107.55365 C -425.72008,106.24853 -406.05289,121.33381 -389.36773,120.97278 z "
           id="path5537"
           sodipodi:nodetypes="ccccccccccc" />
        <path
           style="fill:#fdfdfd;fill-opacity:1;fill-rule:evenodd;stroke:none;stroke-width:1px;stroke-linecap:butt;stroke-linejoin:miter;stroke-opacity:1"
           d="M -467.71175,309.49995 C -471.97382,287.85103 -462.10196,285.32969 -457.70065,275.97716 C -454.83513,276.60998 -452.74171,277.8838 -448.44525,277.37186 L -457.31538,290.7354 C -457.80527,291.91603 -459.07127,293.76189 -455.39836,291.37441 L -445.88923,277.9905 C -446.64779,282.32154 -445.96314,287.11932 -444.85943,291.45036 C -453.69306,310.483 -465.06498,304.20661 -467.71175,309.49995 z "
           id="path5539"
           sodipodi:nodetypes="cccccccc" />
        <path
           style="fill:#fdfdfd;fill-opacity:1;fill-rule:evenodd;stroke:none;stroke-width:1px;stroke-linecap:butt;stroke-linejoin:miter;stroke-opacity:1"
           d="M -443.28398,292.62823 C -440.10085,302.47159 -431.22308,302.25861 -430.33201,313.51474 C -424.93269,307.78731 -432.12762,291.05512 -415.62978,289.82781 C -413.74949,307.75504 -423.20694,323.84503 -433.71586,334.86798 C -448.7039,325.00962 -452.43647,304.54717 -443.28398,292.62823 z "
           id="path5541"
           sodipodi:nodetypes="ccccc" />
        <path
           style="fill:#fdfdfd;fill-opacity:1;fill-rule:evenodd;stroke:none;stroke-width:1px;stroke-linecap:butt;stroke-linejoin:miter;stroke-opacity:1"
           d="M -450.86846,303.12983 C -459.73346,306.48023 -457.28886,324.03933 -459.03637,323.66628 C -459.0266,319.90127 -460.64796,321.91938 -457.51947,307.0971 C -460.68975,308.02397 -465.59808,308.3715 -466.2708,310.13089 C -463.70873,311.72607 -467.61139,328.13322 -459.96985,338.36851 C -449.59813,329.41768 -448.21594,317.04227 -450.86846,303.12983 z "
           id="path5543"
           sodipodi:nodetypes="cccccc" />
        <path
           style="fill:#fdfdfd;fill-opacity:1;fill-rule:evenodd;stroke:none;stroke-width:1px;stroke-linecap:butt;stroke-linejoin:miter;stroke-opacity:1"
           d="M -401.03142,325.29681 C -401.63503,339.20724 -405.90789,348.71457 -412.50231,355.43602 C -422.1051,352.44389 -429.06515,345.1579 -432.07031,334.96835 C -426.78132,329.10447 -420.36362,325.12587 -416.77578,314.72559 C -415.15811,321.17328 -414.80177,327.62098 -414.97643,334.06867 C -412.77131,333.17353 -413.47696,319.97372 -412.72723,309.55245 C -410.0836,316.68303 -406.07311,321.76332 -401.03142,325.29681 z "
           id="path5545"
           sodipodi:nodetypes="ccccccc" />
        <path
           style="fill:#fcfbfc;fill-opacity:1;fill-rule:evenodd;stroke:none;stroke-width:1px;stroke-linecap:butt;stroke-linejoin:miter;stroke-opacity:1"
           d="M -442.59492,328.57741 C -440.13557,331.58815 -437.68437,334.87691 -434.04798,336.94602 C -436.88328,348.65551 -441.51121,359.65845 -448.26451,366.90691 C -453.50733,358.50899 -459.16788,348.88517 -459.01673,339.54917 C -454.12993,335.9333 -451.08515,330.77621 -447.59244,325.0692 C -446.34278,327.89878 -448.63102,338.65872 -446.24023,343.96513 C -445.84796,338.39724 -445.95625,331.63302 -442.59492,328.57741 z "
           id="path5547"
           sodipodi:nodetypes="ccccccc" />
        <path
           style="fill:#fcfbfc;fill-opacity:1;fill-rule:evenodd;stroke:none;stroke-width:1px;stroke-linecap:butt;stroke-linejoin:miter;stroke-opacity:1"
           d="M -431.89198,343.64253 C -432.56306,353.76653 -427.28079,361.29368 -429.26733,367.17395 C -430.41548,361.2718 -433.60933,356.51295 -434.69765,349.7969 C -437.82296,355.10691 -440.72505,360.97499 -444.29123,365.18283 C -446.10298,372.35797 -433.6449,380.05564 -431.16794,388.62374 C -425.29071,391.63703 -415.99304,368.2911 -415.32949,365.72586 C -413.13706,354.54407 -426.55216,354.80487 -431.89198,343.64253 z "
           id="path5549"
           sodipodi:nodetypes="ccccccc" />
        <path
           style="fill:#fcfbfc;fill-opacity:1;fill-rule:evenodd;stroke:none;stroke-width:1px;stroke-linecap:butt;stroke-linejoin:miter;stroke-opacity:1"
           d="M -456.41896,358.30442 C -454.55216,362.14886 -449.94532,364.48392 -449.90257,366.99294 C -450.39929,371.7388 -456.44726,373.54059 -459.85816,376.58652 C -470.31566,370.90456 -470.46443,362.12501 -469.54225,353.59813 L -461.12524,353.68864 C -455.67666,356.01757 -460.52947,363.54245 -458.50058,367.26445 C -458.84615,363.7256 -456.63342,361.16823 -456.41896,358.30442 z "
           id="path5551"
           sodipodi:nodetypes="ccccccc" />
        <path
           style="fill:#fdfdfd;fill-opacity:1;fill-rule:evenodd;stroke:none;stroke-width:1px;stroke-linecap:butt;stroke-linejoin:miter;stroke-opacity:1"
           d="M -389.29417,328.39136 L -388.85062,380.5831 C -396.97445,374.09835 -403.73377,366.11264 -407.92352,355.30041 C -403.20172,347.60683 -399.73645,337.90281 -396.98248,327.06069 L -394.61684,327.3564 C -393.73977,335.34133 -392.94302,343.72783 -392.84262,355.59612 C -390.55017,345.93745 -393.92583,334.24122 -391.95551,328.24351 L -389.29417,328.39136 z "
           id="path5553"
           sodipodi:nodetypes="cccccccc" />
        <path
           style="fill:#fcfbfc;fill-opacity:1;fill-rule:evenodd;stroke:none;stroke-width:1px;stroke-linecap:butt;stroke-linejoin:miter;stroke-opacity:1"
           d="M -409.25418,358.1096 C -404.64705,365.75046 -400.80653,374.92455 -394.76469,379.69598 C -396.8017,392.10108 -400.94045,401.67146 -410.437,408.37926 C -415.95681,400.37698 -422.36373,396.65007 -426.99642,389.89777 C -419.81807,382.53059 -416.77569,372.80001 -412.06337,364.02368 C -412.04735,371.85983 -407.87512,379.10458 -408.51492,386.64503 C -406.34051,381.36967 -410.03559,368.41011 -409.25418,358.1096 z "
           id="path5555"
           sodipodi:nodetypes="ccccccc" />
        <path
           style="fill:#f1f0f1;fill-opacity:1;fill-rule:evenodd;stroke:none;stroke-width:1px;stroke-linecap:butt;stroke-linejoin:miter;stroke-opacity:1"
           d="M -388.85062,383.09658 L -388.99847,431.00061 C -395.84345,425.76552 -401.61748,418.38853 -405.70574,407.64 C -398.2249,399.04977 -394.99112,390.15617 -392.99047,381.1745 L -391.80765,381.91376 C -390.79,390.53582 -390.75586,396.20732 -390.47699,402.61304 C -389.3608,398.40382 -390.11512,387.30396 -388.85062,383.09658 z "
           id="path5557"
           sodipodi:nodetypes="ccccccc" />
        <path
           style="fill:#fcfbfc;fill-opacity:1;fill-rule:evenodd;stroke:none;stroke-width:0.30000001;stroke-linecap:butt;stroke-linejoin:miter;stroke-miterlimit:4;stroke-dasharray:none;stroke-opacity:1"
           d="M -446.91065,369.58247 C -443.98588,378.90773 -439.7413,378.88836 -437.18583,389.47895 C -439.55392,397.61863 -443.81201,403.52467 -448.95979,408.37926 C -456.58827,400.14879 -461.69574,391.01333 -459.49439,379.2542 C -456.55316,375.94566 -452.66143,374.87111 -449.14989,370.84281 C -448.94143,377.31544 -451.44031,384.03552 -447.50934,392.88721 C -449.27293,384.46677 -446.93431,377.00285 -446.91065,369.58247 z "
           id="path5559"
           sodipodi:nodetypes="ccccccc" />
        <path
           style="fill:#fcfbfc;fill-opacity:1;fill-rule:evenodd;stroke:none;stroke-width:0.30000001;stroke-linecap:butt;stroke-linejoin:miter;stroke-miterlimit:4;stroke-dasharray:none;stroke-opacity:1"
           d="M -433.1579,387.61991 C -430.57308,395.43891 -432.09504,405.1781 -428.34857,412.31215 C -430.13865,405.27509 -428.66928,398.33309 -429.19662,391.29603 C -425.86074,398.99909 -419.87631,401.42151 -415.49695,407.75958 C -417.68554,416.42568 -424.186,421.13923 -429.12996,427.27957 C -443.24271,416.88291 -443.12467,399.56908 -433.1579,387.61991 z "
           id="path5561"
           sodipodi:nodetypes="cccccc" />
        <path
           style="fill:#fcfbfc;fill-opacity:1;fill-rule:evenodd;stroke:none;stroke-width:0.30000001;stroke-linecap:butt;stroke-linejoin:miter;stroke-miterlimit:4;stroke-dasharray:none;stroke-opacity:1"
           d="M -407.84597,408.64713 C -406.17359,413.82514 -403.14869,418.62295 -399.19511,423.80096 C -400.3539,433.0779 -405.47974,439.71014 -412.70838,444.94051 C -418.65409,439.67699 -423.70666,434.19019 -425.62666,427.92024 C -423.77722,423.82631 -416.02126,417.92484 -412.8775,411.10487 C -412.73807,415.75843 -409.48949,422.20549 -409.91981,429.13862 C -406.15101,425.60547 -410.24383,416.62968 -407.84597,408.64713 z "
           id="path5563"
           sodipodi:nodetypes="ccccccc" />
        <path
           style="fill:#fcfbfc;fill-opacity:1;fill-rule:evenodd;stroke:none;stroke-width:0.30000001;stroke-linecap:butt;stroke-linejoin:miter;stroke-miterlimit:4;stroke-dasharray:none;stroke-opacity:1"
           d="M -394.7376,428.82878 C -392.73536,430.66334 -390.73311,432.84043 -388.73087,433.4801 L -388.54077,465.08019 C -397.5317,459.73005 -404.9923,452.82979 -407.91633,443.94063 C -405.72266,439.49678 -400.28276,433.62797 -397.07561,428.90654 C -397.58818,436.0584 -394.06823,441.11914 -393.80807,446.17988 C -392.62095,441.06154 -396.70831,434.61248 -394.7376,428.82878 z "
           id="path5565"
           sodipodi:nodetypes="ccccccc" />
        <path
           style="fill:#fcfbfc;fill-opacity:1;fill-rule:evenodd;stroke:none;stroke-width:0.30000001;stroke-linecap:butt;stroke-linejoin:miter;stroke-miterlimit:4;stroke-dasharray:none;stroke-opacity:1"
           d="M -454.63198,405.09446 C -452.32193,406.98279 -450.86753,409.7713 -448.64995,411.47767 L -445.86138,408.06942 C -443.63461,412.09229 -447.23436,424.40669 -444.12208,428.94481 C -444.60925,421.82395 -442.27528,417.88157 -442.45313,412.71704 C -439.90771,419.46816 -435.99484,424.03135 -432.22837,428.82878 C -436.39633,432.8016 -440.80881,436.40762 -446.48106,438.12401 C -456.17646,428.2267 -457.61368,410.3807 -454.63198,405.09446 z "
           id="path5567"
           sodipodi:nodetypes="cccccccc" />
        <path
           style="fill:#fcfbfc;fill-opacity:1;fill-rule:evenodd;stroke:none;stroke-width:0.30000001;stroke-linecap:butt;stroke-linejoin:miter;stroke-miterlimit:4;stroke-dasharray:none;stroke-opacity:1"
           d="M -431.2038,430.45205 C -429.2884,435.96346 -434.05691,447.09046 -432.53821,449.58813 C -430.2401,443.74233 -428.26336,437.09471 -427.7005,429.26576 C -424.18498,436.03367 -419.3713,440.23909 -415.38092,444.87016 C -418.62034,450.87538 -426.15265,457.15932 -437.49567,462.9113 C -443.4079,455.74214 -445.29234,447.7984 -444.62202,439.36337 C -440.18096,438.01707 -435.64486,433.77012 -431.2038,430.45205 z "
           id="path5569"
           sodipodi:nodetypes="ccccccc" />
        <path
           style="fill:#f8f7f8;fill-opacity:1;fill-rule:evenodd;stroke:none;stroke-width:0.30000001;stroke-linecap:butt;stroke-linejoin:miter;stroke-miterlimit:4;stroke-dasharray:none;stroke-opacity:1"
           d="M -405.48328,456.00715 C -400.50113,460.96705 -393.80807,464.93238 -388.54077,466.91825 L -388.37537,491.7722 C -392.18678,487.27138 -397.13058,481.96085 -401.19489,478.97736 C -401.319,470.8852 -403.78448,463.87435 -405.48328,456.00715 z "
           id="path5571"
           sodipodi:nodetypes="ccccc" />
        <path
           style="fill:#f8f7f8;fill-opacity:1;fill-rule:evenodd;stroke:none;stroke-width:1px;stroke-linecap:butt;stroke-linejoin:miter;stroke-opacity:1"
           d="M -401.30475,486.62217 C -396.55761,489.04957 -392.58899,494.64517 -388.37783,496.60251 C -389.51226,507.96998 -398.95435,512.30788 -406.24739,518.46421 C -409.53003,513.28768 -405.58231,507.48242 -403.39587,501.83031 C -403.33976,495.94909 -404.86152,488.06922 -401.30475,486.62217 z "
           id="path5573"
           sodipodi:nodetypes="ccccc" />
        <path
           style="fill:#f8f7f8;fill-opacity:1;fill-rule:evenodd;stroke:none;stroke-width:1px;stroke-linecap:butt;stroke-linejoin:miter;stroke-opacity:1"
           d="M -388.75803,511.05024 C -390.58472,508.99698 -392.78764,511.08225 -394.84129,511.5255 C -397.0755,522.39973 -392.97757,528.20824 -389.04319,534.1476 L -388.75803,511.05024 z "
           id="path5575"
           sodipodi:nodetypes="cccc" />
        <path
           style="fill:#f8f7f8;fill-opacity:1;fill-rule:evenodd;stroke:none;stroke-width:1px;stroke-linecap:butt;stroke-linejoin:miter;stroke-opacity:1"
           d="M -397.84766,526.72166 C -395.88335,530.61279 -394.47456,533.51134 -390.30451,536.85104 C -389.47593,538.11858 -389.208,540.26278 -390.30451,542.45453 C -398.41518,547.31821 -406.24098,554.17599 -414.87365,555.38565 C -414.11707,546.53366 -403.52299,538.21599 -397.84766,526.72166 z "
           id="path5582"
           sodipodi:nodetypes="ccccc" />
        <path
           style="fill:#f8f7f8;fill-opacity:1;fill-rule:evenodd;stroke:none;stroke-width:1px;stroke-linecap:butt;stroke-linejoin:miter;stroke-opacity:1"
           d="M -390.30451,546.98042 C -390.48849,558.81742 -390.63207,570.66199 -399.78733,580.81687 C -394.93933,577.76157 -390.99499,573.0797 -389.01139,564.86848 L -388.79587,591.80833 C -402.2769,603.66307 -422.17335,612.23075 -439.44279,605.60153 C -410.16665,593.54917 -402.20055,574.03829 -395.47696,554.09254 C -394.94388,548.94267 -392.49027,548.27403 -390.30451,546.98042 z "
           id="path5584"
           sodipodi:nodetypes="ccccccc" />
        <path
           style="fill:#e5e3e4;fill-opacity:1;fill-rule:evenodd;stroke:none;stroke-width:1px;stroke-linecap:butt;stroke-linejoin:miter;stroke-opacity:1"
           d="M -408.6236,608.40327 C -400.36989,606.67693 -393.1723,601.43017 -386.64069,593.96351 L -387.07172,608.18775 L -408.6236,608.40327 z "
           id="path5586"
           sodipodi:nodetypes="cccc" />
        <path
           style="fill:#fff700;fill-opacity:1;fill-rule:evenodd;stroke:#000000;stroke-width:1px;stroke-linecap:butt;stroke-linejoin:miter;stroke-opacity:1"
           d="M -386.20965,610.77398 L -386.20965,631.89482 L -408.19256,631.89482 C -421.80973,628.66204 -420.5011,612.06709 -407.97704,610.55846 L -386.20965,610.77398 z "
           id="path5588"
           sodipodi:nodetypes="ccccc" />
        <path
           style="fill:#e5e3e4;fill-opacity:1;fill-rule:evenodd;stroke:none;stroke-width:1px;stroke-linecap:butt;stroke-linejoin:miter;stroke-opacity:1"
           d="M -386.26905,633.56046 L -386.26905,649.54814 L -393.87816,633.38948 L -386.26905,633.56046 z "
           id="path5590"
           sodipodi:nodetypes="cccc" />
        <path
           style="fill:#f8f7f8;fill-opacity:1;fill-rule:evenodd;stroke:none;stroke-width:1px;stroke-linecap:butt;stroke-linejoin:miter;stroke-opacity:1"
           d="M -412.08872,633.21849 L -402.51321,633.90245 C -404.54061,688.38363 -450.93003,724.2013 -483.22105,706.74469 L -489.03475,706.40271 C -448.72904,737.40134 -409.30834,687.12936 -402.17123,657.15725 C -403.46666,687.22459 -416.63057,702.7823 -428.64674,716.85971 C -455.79855,748.66911 -500.17728,740.81112 -503.39801,689.64557 C -449.67317,714.12888 -414.55428,677.23137 -412.08872,633.21849 z "
           id="path5592"
           sodipodi:nodetypes="cccccscc" />
        <path
           style="fill:#f8f7f8;fill-opacity:1;fill-rule:evenodd;stroke:none;stroke-width:1px;stroke-linecap:butt;stroke-linejoin:miter;stroke-opacity:1"
           d="M -395.67357,637.32227 L -387.12401,652.71148 L -386.78203,821.30877 C -402.38855,796.88413 -426.23813,777.01488 -409.01088,734.44526 C -397.61157,696.85578 -396.33501,666.85835 -395.67357,637.32227 z "
           id="path5594"
           sodipodi:nodetypes="ccccc" />
        <path
           style="fill:#f8f7f8;fill-opacity:1;fill-rule:evenodd;stroke:none;stroke-width:1px;stroke-linecap:butt;stroke-linejoin:miter;stroke-opacity:1"
           d="M -409.41417,708.64943 C -420.60149,731.47282 -431.78881,746.84594 -442.97613,759.72198 C -439.00077,749.15857 -415.92305,719.09096 -411.2903,701.56181 C -426.36887,728.28207 -448.7435,741.27787 -450.68912,746.17211 C -454.973,754.48215 -456.12937,764.89292 -453.19064,774.31413 C -443.28818,773.10158 -432.37038,777.37181 -425.04862,762.22349 C -419.97023,744.36547 -412.89127,726.50745 -409.41417,708.64943 z "
           id="path5596"
           sodipodi:nodetypes="ccccccc" />
        <path
           style="fill:#fcfbfc;fill-opacity:1;fill-rule:evenodd;stroke:none;stroke-width:1px;stroke-linecap:butt;stroke-linejoin:miter;stroke-opacity:1"
           d="M -446.51776,441.1818 C -446.14958,448.77946 -445.92215,456.81778 -438.94187,464.76799 C -451.63165,480.67777 -464.99153,476.14965 -478.17868,476.88993 C -467.86535,464.70302 -461.39188,437.04588 -446.51776,441.1818 z "
           id="path5608"
           sodipodi:nodetypes="cccc" />
        <path
           style="fill:#fcfbfc;fill-opacity:1;fill-rule:evenodd;stroke:none;stroke-width:1px;stroke-linecap:butt;stroke-linejoin:miter;stroke-opacity:1"
           d="M -443.76116,471.14542 C -445.93091,476.9692 -445.95583,481.72057 -446.05579,486.50945 C -444.78496,481.25508 -442.17157,476.00072 -437.97471,470.74635 C -437.28861,476.26127 -436.4975,481.70118 -433.98405,485.91085 C -439.15002,492.50817 -444.96808,498.27557 -453.03944,501.17512 C -457.84732,493.99601 -459.60385,486.6716 -458.8259,479.2265 C -453.66736,478.8611 -448.6537,476.03274 -443.76116,471.14542 z "
           id="path5610"
           sodipodi:nodetypes="ccccccc" />
        <path
           style="fill:#fcfbfc;fill-opacity:1;fill-rule:evenodd;stroke:none;stroke-width:1px;stroke-linecap:butt;stroke-linejoin:miter;stroke-opacity:1"
           d="M -459.62403,479.5258 C -459.87456,486.91817 -459.73238,494.35674 -455.5336,502.27255 C -467.73443,506.53531 -480.21313,508.01944 -492.94602,506.96157 C -493.61303,503.96885 -481.77343,499.3605 -470.89764,480.82276 C -467.13977,480.56707 -463.3819,480.53311 -459.62403,479.5258 z "
           id="path5612"
           sodipodi:nodetypes="ccccc" />
        <path
           style="fill:#fcfbfc;fill-opacity:1;fill-rule:evenodd;stroke:none;stroke-width:1px;stroke-linecap:butt;stroke-linejoin:miter;stroke-opacity:1"
           d="M -456.53127,503.86881 C -458.10454,508.85138 -458.87294,513.38332 -458.32707,517.83611 C -455.8599,515.03444 -454.00129,509.79854 -452.04178,504.96624 C -451.23617,509.5555 -448.33858,514.14475 -445.45719,518.73401 C -450.63956,526.01908 -456.66763,531.95105 -465.80955,532.90085 C -469.49603,525.00218 -471.03107,516.88838 -469.40114,508.45807 C -463.41077,506.92832 -460.25194,505.39856 -456.53127,503.86881 z "
           id="path5614"
           sodipodi:nodetypes="ccccccc" />
        <path
           style="fill:#fcfbfc;fill-opacity:1;fill-rule:evenodd;stroke:none;stroke-width:1px;stroke-linecap:butt;stroke-linejoin:miter;stroke-opacity:1"
           d="M -473.29203,509.2562 C -472.98826,517.79988 -472.14853,525.98625 -467.90464,531.90318 C -477.75681,533.38614 -485.89943,537.57591 -498.63271,534.49711 C -490.94592,525.30225 -489.49425,509.69908 -473.29203,509.2562 z "
           id="path5616"
           sodipodi:nodetypes="cccc" />
        <path
           style="fill:#fcfbfc;fill-opacity:1;fill-rule:evenodd;stroke:none;stroke-width:1px;stroke-linecap:butt;stroke-linejoin:miter;stroke-opacity:1"
           d="M -467.30604,532.80108 C -467.79462,535.3285 -467.98086,537.05778 -467.20628,539.5852 C -465.76931,538.9053 -464.1299,535.41886 -462.21795,532.60155 C -460.30054,534.03946 -459.28123,536.9742 -458.12753,539.68497 C -462.59175,545.99639 -467.85104,549.39259 -473.0925,552.85414 C -473.99757,547.30047 -476.53796,541.74681 -474.28969,536.19314 C -473.03963,534.52354 -471.19733,533.15006 -467.30604,532.80108 z "
           id="path5620"
           sodipodi:nodetypes="ccccccc" />
        <path
           style="fill:#fcfbfc;fill-opacity:1;fill-rule:evenodd;stroke:none;stroke-width:1px;stroke-linecap:butt;stroke-linejoin:miter;stroke-opacity:1"
           d="M -445.15789,521.02864 C -441.40002,524.44445 -437.09602,527.61052 -433.33815,529.70832 C -435.59685,539.52181 -433.45712,548.45929 -426.67128,555.61262 C -447.52835,558.83109 -452.31933,544.58585 -459.22496,533.59921 C -453.66885,529.84257 -448.6003,525.84214 -445.15789,521.02864 z "
           id="path5622"
           sodipodi:nodetypes="ccccc" />
        <path
           style="fill:#fcfbfc;fill-opacity:1;fill-rule:evenodd;stroke:none;stroke-width:1px;stroke-linecap:butt;stroke-linejoin:miter;stroke-opacity:1"
           d="M -432.98638,488.20548 C -430.02038,492.80592 -425.99749,495.92672 -421.71278,498.68096 C -423.64061,508.3583 -424.55876,518.03565 -421.21394,527.71299 C -436.36098,531.32362 -447.53495,513.40393 -450.24598,503.96858 C -444.02662,499.1221 -437.20328,494.80411 -432.98638,488.20548 z "
           id="path5624"
           sodipodi:nodetypes="ccccc" />
        <path
           style="fill:#fcfbfc;fill-opacity:1;fill-rule:evenodd;stroke:none;stroke-width:1px;stroke-linecap:butt;stroke-linejoin:miter;stroke-opacity:1"
           d="M -415.02842,448.79773 C -425.4595,461.76689 -433.928,460.36506 -437.07681,465.2592 C -438.03157,469.17751 -429.02994,496.73824 -413.23263,496.38633 C -414.65561,483.95824 -409.81412,476.24294 -408.59002,468.21522 C -407.71915,462.50402 -406.78362,453.84124 -415.02842,448.79773 z "
           id="path5626"
           sodipodi:nodetypes="cccsc" />
        <path
           style="fill:#fdfdfd;fill-opacity:1;stroke:none;stroke-width:0.30000001;stroke-linecap:round;stroke-linejoin:miter;stroke-miterlimit:4;stroke-dasharray:none;stroke-dashoffset:0;stroke-opacity:1"
           d="M -635.21253,195.91443 C -635.48322,187.76715 -634.24067,183.4945 -634.24067,175.33994 C -634.24066,155.82247 -617.83425,139.97083 -597.61455,139.97083 C -577.39485,139.97083 -560.98843,155.82247 -560.98843,175.33994 C -560.98844,194.85742 -577.39485,210.70906 -597.61455,210.70906 C -609.3863,210.70906 -619.43329,206.41684 -626.13499,198.07575 L -625.91789,197.85885 C -625.62008,188.30109 -615.3692,175.31274 -603.44018,179.05538 C -611.33484,184.50258 -608.15077,199.25556 -596.30783,200.02018 C -588.1099,200.84084 -580.91981,194.3307 -583.12378,185.75546 C -577.10271,189.22438 -566.1207,185.1085 -565.18484,175.38114 C -564.44401,163.05737 -575.30732,159.82928 -582.69152,162.62936 C -581.42308,151.19194 -590.8872,147.13851 -598.03688,148.79692 C -608.06341,151.96624 -611.03217,163.23675 -604.08858,170.62624 C -626.29929,169.5686 -632.71078,185.89584 -635.21253,195.91443 z "
           id="path5630"
           sodipodi:nodetypes="csssscccccccccc" />
        <path
           style="fill:#fff700;fill-opacity:1;stroke:none;stroke-width:0.3375608;stroke-linecap:round;stroke-linejoin:miter;stroke-miterlimit:4;stroke-dasharray:none;stroke-dashoffset:0;stroke-opacity:1"
           d="M -594.78125,151.625 C -600.61682,151.625 -605.37497,156.41728 -605.375,162.3125 C -605.375,165.74088 -603.76952,168.76423 -601.28125,170.71875 L -601.28125,171.34375 C -615.2995,172.18857 -629.7705,170.56854 -636.4375,210.375 C -643.55711,271.67021 -541.31151,339.75417 -458.6875,352.46875 L -462.03125,343.625 C -554.59858,324.95382 -633.05449,259.12708 -631.84375,212.375 C -630.6072,196.05718 -621.71745,173.92718 -601.28125,176.53125 L -601.28125,178.5 C -604.12575,180.41464 -606,183.66542 -606,187.375 C -606,193.27022 -601.2731,198.0625 -595.4375,198.0625 C -589.60193,198.0625 -584.875,193.27022 -584.875,187.375 C -584.875,185.85207 -585.18055,184.4051 -585.75,183.09375 C -583.92236,184.61768 -581.5843,185.53125 -579.03125,185.53125 C -573.19568,185.53125 -568.43751,180.73898 -568.4375,174.84375 C -568.4375,168.94853 -573.19566,164.15624 -579.03125,164.15625 C -581.19523,164.15625 -583.19884,164.84023 -584.875,165.96875 C -584.45981,164.82392 -584.21875,163.60208 -584.21875,162.3125 C -584.21875,156.41728 -588.94569,151.625 -594.78125,151.625 z "
           id="path5640"
           sodipodi:nodetypes="csccccccccssscssscsc" />
        <path
           id="path5649"
           style="fill:#fdfdfd;fill-opacity:1;fill-rule:evenodd;stroke:none;stroke-width:1px;stroke-linecap:butt;stroke-linejoin:miter;stroke-opacity:1"
           d="M -626.69816,201.82414 C -620.65974,208.14703 -612.01683,216.24972 -597.59022,215.04203 C -575.19073,213.1669 -556.89819,197.16993 -556.89817,175.14714 C -556.89817,153.12436 -575.11238,135.25224 -597.59022,135.25225 C -620.06806,135.25225 -638.3132,153.12436 -638.57372,174.65124 L -638.40625,194.34375 C -636.25176,247.26408 -629.89483,303.47439 -703.28125,296.90625 C -660.5446,254.01062 -662.55448,212.73964 -653.34375,174.9375 C -653.15818,174.77178 -652.96616,174.63324 -652.78125,174.46875 C -649.79887,145.28572 -624.26075,122.46875 -593.1875,122.46875 C -560.11255,122.46875 -533.25002,148.32445 -533.25,180.1875 C -533.24999,200.72655 -542.41672,218.73892 -559.20594,228.96875 C -534.52321,264.78211 -519.5885,279.91177 -472.96765,293.2489 C -473.11583,299.83869 -472.88205,308.91337 -469.51154,312.82504 C -469.5164,318.28475 -468.59377,321.79233 -466.96875,325.90625 C -482.67373,336.67292 -488.02235,318.63581 -491.125,311 C -507.09115,325.44792 -523.05731,314.45546 -524.53125,296.125 C -542.73736,308.94378 -556.59079,291.88153 -555.9375,277.1875 C -572.37979,288.6219 -586.39418,269.27054 -580.90625,253.03125 C -604.84716,261.8419 -613.45926,242.96666 -604.78125,226.71875 L -605.09375,226.40625 C -619.14883,224.58449 -630.86464,215.6682 -626.69816,201.82414 z "
           sodipodi:nodetypes="cssscccccssccccccccccc" />
        <path
           style="fill:#fdfdfd;fill-opacity:1;fill-rule:evenodd;stroke:none;stroke-width:1px;stroke-linecap:butt;stroke-linejoin:miter;stroke-opacity:1"
           d="M -629.42369,210.74075 C -625.82335,225.03161 -618.24241,229.16636 -610.19766,229.09685 C -615.90607,246.23937 -603.36867,262.91023 -585.93624,257.11977 C -587.76627,272.4923 -574.26797,286.92169 -559.07323,282.31951 C -557.98448,297.52849 -539.51484,309.02627 -526.71706,300.77501 C -528.25241,315.15744 -507.44873,327.60211 -492.21707,316.65171 C -489.31898,327.39593 -479.65669,335.60656 -466.46018,331.17793 L -463.7136,340.79095 C -548.40914,323.83704 -631.63047,259.04996 -629.42369,210.74075 z "
           id="path5689"
           sodipodi:nodetypes="ccccccccc" />
        <path
           style="fill:#fdfdfd;fill-opacity:1;fill-rule:evenodd;stroke:none;stroke-width:1px;stroke-linecap:butt;stroke-linejoin:miter;stroke-opacity:1"
           d="M -634.98239,241.56966 L -631.29627,249.32991 C -631.14524,258.0524 -633.15506,264.04553 -633.23634,268.34252 C -631.42561,266.86275 -630.77892,258.74613 -628.96819,253.59804 L -621.78996,263.68637 C -624.6359,278.98369 -633.56548,278.75608 -639.63854,284.83305 C -641.70685,281.54766 -643.24018,278.15527 -642.74264,274.35671 C -638.04773,263.81571 -636.52296,254.05072 -634.98239,241.56966 z "
           id="path5691"
           sodipodi:nodetypes="cccccccc" />
        <path
           style="fill:#f0efef;fill-opacity:1;fill-rule:evenodd;stroke:none;stroke-width:1px;stroke-linecap:butt;stroke-linejoin:miter;stroke-opacity:1"
           d="M -619.4619,266.59646 L -614.02972,273.77469 C -613.15422,277.70208 -613.6239,283.56311 -614.80574,288.51917 C -612.90392,287.34609 -611.55181,282.32506 -610.14959,277.65482 L -602.38934,285.60907 C -606.11323,292.72556 -610.73518,298.54485 -619.07388,298.9955 C -625.6618,288.89446 -623.63302,277.20983 -619.4619,266.59646 z "
           id="path5693"
           sodipodi:nodetypes="ccccccc" />
        <path
           style="fill:#fbfbfb;fill-opacity:1;fill-rule:evenodd;stroke:none;stroke-width:1px;stroke-linecap:butt;stroke-linejoin:miter;stroke-opacity:1"
           d="M -600.64329,286.3851 L -593.27105,293.36932 C -594.65054,297.56415 -595.98917,302.29402 -594.8231,305.97973 C -594.60364,302.55229 -592.77552,299.12484 -589.97294,295.6974 L -581.63068,302.0996 C -585.49655,309.91467 -592.28876,312.84167 -597.53919,317.4261 C -604.80241,310.07806 -607.05513,292.86587 -600.64329,286.3851 z "
           id="path5695"
           sodipodi:nodetypes="ccccccc" />
        <path
           style="fill:#fdfdfd;fill-opacity:1;fill-rule:evenodd;stroke:none;stroke-width:1px;stroke-linecap:butt;stroke-linejoin:miter;stroke-opacity:1"
           d="M -648.36882,281.92296 C -650.20881,287.37978 -651.0525,292.43807 -650.30888,296.86144 C -649.32255,291.29993 -647.91532,285.73841 -644.87671,280.1769 C -637.69538,289.84938 -648.0188,322.24265 -665.44137,320.33619 C -662.20159,309.26516 -659.44354,299.15756 -656.71109,289.10119 C -653.52085,287.9369 -651.09539,284.47826 -648.36882,281.92296 z "
           id="path5697"
           sodipodi:nodetypes="cccccc" />
        <path
           style="fill:#fdfdfd;fill-opacity:1;fill-rule:evenodd;stroke:none;stroke-width:1px;stroke-linecap:butt;stroke-linejoin:miter;stroke-opacity:1"
           d="M -629.55022,282.50497 C -630.97206,289.9847 -632.87993,297.62644 -632.84832,304.62168 C -630.97169,296.2234 -628.41268,292.60179 -626.0581,287.54914 C -617.46076,303.59753 -620.58907,323.64432 -641.5786,333.1406 C -644.85963,320.75743 -646.08984,309.45384 -642.96694,297.26496 C -640.54761,287.82215 -640.40971,284.04207 -629.55022,282.50497 z "
           id="path5699"
           sodipodi:nodetypes="ccccsc" />
        <path
           style="fill:#fdfdfd;fill-opacity:1;fill-rule:evenodd;stroke:none;stroke-width:1px;stroke-linecap:butt;stroke-linejoin:miter;stroke-opacity:1"
           d="M -620.23792,306.36774 C -615.79756,301.32495 -613.51684,299.1517 -608.01552,297.83147 C -610.12439,303.97024 -612.58438,309.87493 -611.70164,318.00811 C -610.9176,313.13163 -609.50356,308.72766 -606.65748,305.39771 C -604.97701,310.152 -603.36651,314.99377 -599.67326,317.23209 C -601.78981,320.29445 -603.69976,324.3898 -605.29944,330.0365 C -612.39641,338.2185 -619.57297,346.13522 -628.19217,349.24312 C -627.72567,342.47833 -631.2336,334.01463 -629.35621,330.23051 C -624.93564,322.67086 -621.07769,314.95047 -620.23792,306.36774 z "
           id="path5701"
           sodipodi:nodetypes="ccccccccc" />
        <path
           style="fill:#fdfdfd;fill-opacity:1;fill-rule:evenodd;stroke:none;stroke-width:1px;stroke-linecap:butt;stroke-linejoin:miter;stroke-opacity:1"
           d="M -580.85465,303.06963 C -572.12785,307.7852 -572.48022,314.15154 -575.03446,320.91821 C -571.27014,321.93364 -572.9462,309.34897 -566.30418,313.15796 C -563.89264,314.19266 -561.26751,316.3914 -564.94614,320.91821 C -569.76226,327.5995 -574.94119,329.9271 -580.27263,330.42451 C -587.53531,320.65698 -586.45084,308.63027 -580.85465,303.06963 z "
           id="path5703"
           sodipodi:nodetypes="cccccc" />
        <path
           style="fill:#fdfdfd;fill-opacity:1;fill-rule:evenodd;stroke:none;stroke-width:1px;stroke-linecap:butt;stroke-linejoin:miter;stroke-opacity:1"
           d="M -586.67484,319.75417 C -585.30228,324.37909 -583.57456,328.76723 -580.66065,332.36458 C -580.39009,342.992 -590.94878,355.97151 -602.19534,363.59958 C -604.6009,351.94409 -608.31023,319.30393 -589.19692,316.06805 C -590.28981,321.87369 -593.10055,328.02589 -592.30102,334.30464 C -589.24651,329.45448 -588.30832,324.60433 -586.67484,319.75417 z "
           id="path5705"
           sodipodi:nodetypes="cccccc" />
        <path
           style="fill:#fdfdfd;fill-opacity:1;fill-rule:evenodd;stroke:none;stroke-width:1px;stroke-linecap:butt;stroke-linejoin:miter;stroke-opacity:1"
           d="M -568.05024,328.09644 C -570.21682,335.32326 -571.44476,342.08076 -571.54235,348.27309 C -570.97676,339.78471 -567.21335,340.6333 -565.33415,333.33461 C -563.20008,337.10418 -561.06602,340.85873 -558.93195,343.61694 C -563.40798,359.59209 -571.77551,366.0547 -580.85465,370.77781 C -586.71548,363.81787 -585.56117,355.85576 -584.34676,347.88507 C -581.85511,345.32307 -579.60253,341.68522 -578.13856,334.49864 C -575.00906,331.7814 -572.15578,328.37358 -568.05024,328.09644 z "
           id="path5707"
           sodipodi:nodetypes="cccccccc" />
        <path
           style="fill:#fdfdfd;fill-opacity:1;fill-rule:evenodd;stroke:none;stroke-width:1px;stroke-linecap:butt;stroke-linejoin:miter;stroke-opacity:1"
           d="M -553.88779,320.7242 L -559.31996,317.03808 C -563.97639,325.31568 -564.59412,333.59328 -557.3799,341.87088 C -550.53574,340.0387 -545.54665,334.49639 -541.27738,327.51442 L -549.03763,323.05228 C -550.78369,326.49987 -552.52974,331.09338 -554.2758,332.17057 C -552.84842,327.92243 -553.93907,324.51364 -553.88779,320.7242 z "
           id="path5709"
           sodipodi:nodetypes="ccccccc" />
        <path
           style="fill:#fdfdfd;fill-opacity:1;fill-rule:evenodd;stroke:none;stroke-width:1px;stroke-linecap:butt;stroke-linejoin:miter;stroke-opacity:1"
           d="M -538.94931,329.26048 C -536.03435,328.65413 -533.82423,331.57201 -531.38306,333.33461 C -532.75005,337.01924 -535.73397,340.43438 -534.29316,344.58697 C -530.98286,342.07403 -530.46519,337.46662 -529.05499,333.52861 C -526.41663,334.3435 -524.06714,335.30282 -522.45878,336.63271 C -524.56531,348.05631 -531.81826,349.92228 -537.20325,355.25731 C -542.08948,346.75725 -547.17254,338.26475 -538.94931,329.26048 z "
           id="path5711"
           sodipodi:nodetypes="ccccccc" />
        <path
           style="fill:#fdfdfd;fill-opacity:1;fill-rule:evenodd;stroke:none;stroke-width:1px;stroke-linecap:butt;stroke-linejoin:miter;stroke-opacity:1"
           d="M -545.15751,344.97498 L -541.27738,350.79517 C -539.78501,353.6386 -539.60099,357.00536 -540.69536,360.88349 C -546.20326,370.00333 -551.50321,379.58067 -559.51397,383.19421 C -564.39097,375.17213 -563.86205,366.69956 -562.61807,358.1674 C -560.19926,354.63668 -558.37655,350.50987 -556.99189,345.94501 C -554.60712,343.27764 -552.41064,340.2337 -549.03763,339.54281 C -549.03716,348.36325 -552.78361,356.45631 -552.52974,363.21157 C -551.62438,356.87403 -549.16697,350.79517 -545.15751,344.97498 z "
           id="path5713"
           sodipodi:nodetypes="ccccccccc" />
        <path
           style="fill:#fdfdfd;fill-opacity:1;fill-rule:evenodd;stroke:none;stroke-width:1px;stroke-linecap:butt;stroke-linejoin:miter;stroke-opacity:1"
           d="M -519.35468,337.40874 C -517.01868,337.18009 -513.47642,339.06242 -509.07235,342.4529 C -508.41039,346.63084 -510.8115,351.20264 -508.87834,353.31725 C -507.72585,352.94542 -505.84405,347.46837 -504.22219,343.81094 C -501.07625,343.44959 -498.53416,345.50363 -495.87992,347.10905 C -500.35436,354.01015 -505.44642,359.98485 -511.98244,363.79358 C -518.3178,355.8604 -522.27933,347.3997 -519.35468,337.40874 z "
           id="path5715"
           sodipodi:nodetypes="ccccccc" />
        <path
           style="fill:#fdfdfd;fill-opacity:1;fill-rule:evenodd;stroke:none;stroke-width:1px;stroke-linecap:butt;stroke-linejoin:miter;stroke-opacity:1"
           d="M -525.56288,348.6611 L -537.00924,356.61535 C -543.25685,368.44973 -541.71822,380.28411 -536.62123,392.11849 C -526.45741,385.7553 -519.11089,377.00823 -515.66856,364.95762 C -518.46217,359.91346 -520.37546,354.8693 -521.10073,349.82514 C -524.46351,356.75425 -527.05026,369.49259 -530.02502,374.07591 C -530.87027,368.86999 -525.72762,355.63021 -525.56288,348.6611 z "
           id="path5717"
           sodipodi:nodetypes="ccccccc" />
        <path
           style="fill:#fdfdfd;fill-opacity:1;fill-rule:evenodd;stroke:none;stroke-width:1px;stroke-linecap:butt;stroke-linejoin:miter;stroke-opacity:1"
           d="M -494.32787,346.91504 C -490.83576,346.4755 -487.34365,348.39725 -483.85154,351.57119 C -482.83673,352.90435 -483.97416,358.15398 -482.29949,357.9734 C -480.67651,357.30377 -481.64645,353.42377 -479.97141,352.15321 C -476.8878,350.53007 -474.41643,352.5804 -471.82315,353.89927 C -473.23715,365.26584 -480.61772,366.86893 -487.53766,369.22576 C -492.58742,364.05277 -497.38159,358.67211 -494.32787,346.91504 z "
           id="path5719"
           sodipodi:nodetypes="ccccccc" />
        <path
           style="fill:#fdfdfd;fill-opacity:1;fill-rule:evenodd;stroke:none;stroke-width:1px;stroke-linecap:butt;stroke-linejoin:miter;stroke-opacity:1"
           d="M -501.11809,357.19737 C -504.88865,360.06525 -507.8753,363.32507 -512.56446,365.73365 C -519.47653,379.89423 -511.7847,390.40384 -504.6102,401.04278 C -495.65127,395.2423 -489.90563,386.01432 -488.70169,371.94185 C -492.63635,367.69189 -495.00662,362.92046 -497.43197,358.1674 C -500.76961,366.77177 -501.35356,378.58104 -503.83418,382.03017 C -504.61419,374.17391 -501.01156,364.54298 -501.11809,357.19737 z "
           id="path5721"
           sodipodi:nodetypes="ccccccc" />
        <path
           style="fill:#fdfdfd;fill-opacity:1;fill-rule:evenodd;stroke:none;stroke-width:1px;stroke-linecap:butt;stroke-linejoin:miter;stroke-opacity:1"
           d="M -474.73324,365.34563 C -479.57534,368.05769 -483.46124,368.15758 -487.14965,370.97182 C -487.63787,382.61015 -487.59621,396.56065 -478.80737,402.98284 C -468.83466,400.7368 -464.75863,389.16286 -461.73483,378.53806 C -465.34318,375.49779 -468.73188,371.35932 -471.82315,365.73365 C -474.15122,374.66416 -474.53924,384.54234 -475.89728,387.85036 C -475.72754,380.82899 -477.20588,377.43338 -474.73324,365.34563 z "
           id="path5723"
           sodipodi:nodetypes="ccccccc" />
        <path
           style="fill:#ede500;fill-opacity:1;fill-rule:evenodd;stroke:none;stroke-width:1px;stroke-linecap:butt;stroke-linejoin:miter;stroke-opacity:1"
           d="M -530.37531,694.122 C -527.28885,689.1257 -532.66359,683.71038 -539.63186,685.86616 C -547.3472,689.27773 -549.19447,704.52214 -540.38239,707.63156 C -537.16402,703.07771 -541.68506,695.18184 -530.37531,694.122 z "
           id="path5600"
           sodipodi:nodetypes="cccc" />
        <path
           style="fill:#ede500;fill-opacity:1;fill-rule:evenodd;stroke:none;stroke-width:1px;stroke-linecap:butt;stroke-linejoin:miter;stroke-opacity:1"
           d="M -455.69846,624.32261 C -455.4245,631.19644 -455.57452,631.97658 -456.34733,634.80563 C -454.3597,635.57041 -453.19155,637.17055 -453.37162,640.1346 C -446.43466,638.93578 -446.117,621.18007 -455.69846,624.32261 z "
           id="path5604"
           sodipodi:nodetypes="cccc" />
        <path
           style="fill:#ede500;fill-opacity:1;fill-rule:evenodd;stroke:none;stroke-width:1px;stroke-linecap:butt;stroke-linejoin:miter;stroke-opacity:1"
           d="M -564.0924,679.49412 C -561.94404,673.30507 -560.90456,667.60885 -565.89846,664.59414 C -566.72429,655.48668 -559.13265,654.579 -550.54696,654.2093 C -537.58838,651.2261 -530.92219,645.65191 -524.66011,639.91133 C -525.41264,638.76077 -526.16516,639.72964 -526.91769,640.06184 C -531.50431,646.63279 -541.5597,644.23119 -549.82787,644.5435 C -552.05168,644.34261 -550.40856,641.37411 -550.69746,639.91133 C -551.14853,641.27361 -551.59421,642.64283 -552.65403,643.22244 C -554.09754,643.63237 -553.9785,642.34955 -554.46008,641.71739 C -553.87762,643.87137 -554.06889,646.49832 -556.26614,647.58708 C -563.63799,649.06109 -567.41265,645.95686 -570.4136,641.8679 C -567.26063,637.18071 -567.97696,632.44436 -568.60755,628.17195 C -562.23635,626.28375 -554.01801,621.03023 -550.24595,628.77397 C -543.61413,626.37863 -543.49552,636.16988 -523.60658,633.89114 L -522.55304,635.09518 L -522.55304,632.08508 C -514.68151,628.71891 -510.56266,621.60006 -507.05104,613.87398 C -499.74229,595.36389 -492.91349,578.44616 -484.4753,560.74575 C -484.61045,553.58243 -481.22108,548.88628 -477.40157,544.49122 C -475.51582,547.71575 -474.63531,551.61045 -473.93996,555.62858 C -472.43852,554.59057 -470.736,553.61958 -466.86623,553.37101 C -468.44932,557.50596 -475.04334,571.97971 -481.65918,589.28919 C -489.23427,609.10842 -496.36596,629.36637 -487.78641,633.89114 C -488.78419,632.48643 -489.63272,631.08171 -487.93691,629.677 C -474.26934,632.32281 -474.69409,621.10895 -468.9733,620.94771 C -462.67384,617.81418 -455.30724,624.97919 -457.83593,633.74063 C -461.73033,641.05851 -470.79174,649.63221 -480.11066,643.37295 C -481.29253,642.06488 -480.40194,640.41139 -479.20763,638.70729 C -483.12416,643.37046 -491.64937,647.30739 -497.87024,646.38304 C -498.42745,648.0386 -499.05168,649.69415 -499.22478,651.34971 C -500.67449,650.59374 -503.65456,650.858 -501.78337,647.88809 C -506.04993,656.42798 -509.71751,663.21026 -513.58968,669.77818 C -509.69897,677.64772 -516.63041,692.77912 -525.86415,692.73856 C -525.05861,684.73521 -532.39636,684.78292 -541.66717,684.7618 C -541.55981,673.86655 -533.14989,670.4436 -525.26213,666.5507 C -526.93216,666.91307 -529.46802,668.65057 -529.77728,666.85171 C -529.7233,664.84502 -528.7414,663.13929 -526.41599,661.43357 C -522.22009,657.00573 -517.30718,653.31935 -515.78032,646.98506 C -518.82098,647.18075 -520.38385,653.19555 -523.75708,650.14567 C -523.12561,653.69162 -540.94402,672.01871 -547.08534,667.45373 C -542.0381,676.52825 -557.37292,689.13667 -564.0924,679.49412 z "
           id="path5606"
           sodipodi:nodetypes="cccccccccccccccccccccsccccccccccccccccccc" />
        <path
           style="fill:#fcfbfc;fill-opacity:1;fill-rule:evenodd;stroke:none;stroke-width:1px;stroke-linecap:butt;stroke-linejoin:miter;stroke-opacity:1"
           d="M -476.78386,536.29291 C -477.54892,547.86262 -490.6494,548.77913 -495.83925,552.15577 C -493.49964,547.15573 -492.0379,543.03355 -490.75116,539.08637 C -485.53863,538.71198 -480.9327,537.73099 -476.78386,536.29291 z "
           id="path5618"
           sodipodi:nodetypes="cccc" />
        <path
           style="fill:#fcfbfc;fill-opacity:1;fill-rule:evenodd;stroke:none;stroke-width:1px;stroke-linecap:butt;stroke-linejoin:miter;stroke-opacity:1"
           d="M -457.29442,540.76729 C -451.20071,546.77058 -454.03836,556.34641 -452.47026,564.15994 C -459.70702,561.6752 -461.28784,555.30201 -465.03129,550.41562 C -462.14127,547.71795 -458.8173,545.74354 -457.29442,540.76729 z "
           id="path5628"
           sodipodi:nodetypes="cccc" />
        <path
           style="fill:#e8e000;fill-opacity:1;fill-rule:evenodd;stroke:none;stroke-width:1px;stroke-linecap:butt;stroke-linejoin:miter;stroke-opacity:1"
           d="M -564.84167,675.98316 C -564.14506,670.1717 -564.95402,667.5814 -568.11929,666.49002 C -578.22961,666.61991 -584.81086,678.19309 -576.7081,689.20574 C -575.61695,679.68334 -571.95602,674.74985 -564.84167,675.98316 z "
           id="path13249"
           sodipodi:nodetypes="cccc" />
        <path
           style="fill:#e8e000;fill-opacity:1;fill-rule:evenodd;stroke:none;stroke-width:1px;stroke-linecap:butt;stroke-linejoin:miter;stroke-opacity:1"
           d="M -571.96153,641.06197 C -568.4491,637.54234 -568.22318,632.8928 -571.15445,629.05034 C -578.51972,630.50595 -585.62449,639.39404 -582.81083,648.18182 C -579.43817,645.36161 -577.64048,639.65398 -571.96153,641.06197 z "
           id="path13251"
           sodipodi:nodetypes="cccc" />
        <path
           style="fill:#fdfdfd;fill-opacity:1;fill-rule:evenodd;stroke:none;stroke-width:1px;stroke-linecap:butt;stroke-linejoin:miter;stroke-opacity:1"
           d="M -662.69313,294.78178 L -669.44546,296.22871 C -674.25631,318.78842 -693.66794,425.99766 -741.38942,456.23406 C -670.21388,491.56443 -646.33969,393.20524 -629.69529,354.54683 C -630.35705,347.4823 -630.21994,337.70912 -632.95136,331.67941 C -636.04602,333.54934 -639.34148,335.81847 -642.43614,336.14221 C -644.68019,330.49509 -645.19761,326.57461 -645.89301,322.47614 C -651.41103,347.40449 -669.37308,403.07501 -679.09165,412.46527 C -664.9105,380.95439 -656.40406,349.44351 -649.67078,317.93263 C -656.39807,321.00835 -663.2288,325.32528 -669.44546,322.27341 C -665.98102,313.36956 -662.53258,303.73495 -662.69313,294.78178 z "
           id="path13253"
           sodipodi:nodetypes="ccccccccccc" />
        <path
           style="fill:#fdfdfd;fill-opacity:1;fill-rule:evenodd;stroke:none;stroke-width:1px;stroke-linecap:butt;stroke-linejoin:miter;stroke-opacity:1"
           d="M -607.02482,337.65351 C -607.79342,348.14732 -606.79144,357.88231 -603.81199,366.76982 C -599.74117,367.35404 -596.33675,363.27351 -592.76787,360.34415 L -626.10103,496.6888 L -587.14541,356.93052 C -586.92539,362.69878 -586.7254,368.47204 -582.32616,373.19549 C -578.94922,373.43729 -574.45215,371.06544 -569.47483,367.57303 C -572.28606,378.18345 -575.09729,385.59319 -577.90852,393.0749 C -588.32437,437.4111 -596.56526,483.92225 -612.44648,522.79307 C -627.53509,566.83851 -669.54959,572.69464 -700.29923,545.18433 C -674.87829,538.98456 -654.80379,517.4772 -647.58685,485.04227 C -630.06417,416.81236 -638.51277,347.52889 -607.02482,337.65351 z "
           id="path13255"
           sodipodi:nodetypes="cccccccccccc" />
        <path
           style="fill:#fdfdfd;fill-opacity:1;fill-rule:evenodd;stroke:none;stroke-width:1px;stroke-linecap:butt;stroke-linejoin:miter;stroke-opacity:1"
           d="M -462.6401,392.9373 C -460.72968,398.91209 -458.81926,402.81022 -456.90884,405.35503 C -459.10448,417.68875 -459.32543,431.33893 -469.32657,438.46898 C -478.08753,429.46617 -478.30899,417.71853 -477.60505,405.67343 C -473.38904,403.29932 -469.84436,399.21464 -466.65058,395.47755 C -466.75671,401.95175 -469.3329,410.74358 -467.09774,415.54394 C -464.85374,412.17804 -465.5423,400.73036 -462.6401,392.9373 z "
           id="path13257"
           sodipodi:nodetypes="ccccccc" />
        <path
           style="fill:#fdfdfd;fill-opacity:1;fill-rule:evenodd;stroke:none;stroke-width:1px;stroke-linecap:butt;stroke-linejoin:miter;stroke-opacity:1"
           d="M -487.98805,392.54849 C -485.66256,397.75705 -483.26468,402.71228 -480.26264,405.55292 C -480.49153,441.14719 -476.23726,465.17014 -502.53756,496.84145 C -514.32342,473.05016 -509.60887,421.36329 -509.61918,398.4713 C -508.33631,400.18806 -506.69598,401.90481 -504.72643,403.62157 C -500.94956,401.48834 -497.1727,397.37994 -493.39583,392.16222 C -493.03712,411.8498 -493.90052,429.09316 -494.16837,447.52762 C -491.70719,430.93921 -489.42925,413.55681 -487.98805,392.54849 z "
           id="path13259"
           sodipodi:nodetypes="cccccccc" />
        <path
           style="fill:#fdfdfd;fill-opacity:1;fill-rule:evenodd;stroke:none;stroke-width:1px;stroke-linecap:butt;stroke-linejoin:miter;stroke-opacity:1"
           d="M -538.72231,393.06608 C -542.15408,387.73658 -543.09674,380.87723 -544.66974,373.68896 C -549.78581,378.66011 -554.90188,384.67273 -560.01795,385.77568 C -563.11073,383.49659 -564.49631,377.0162 -565.58168,372.7297 L -580.35434,473.64421 L -584.19139,499.73617 C -591.33707,524.00628 -590.50233,618.73914 -656.328,625.20782 C -634.61996,649.27508 -579.18998,637.73767 -557.7657,597.28923 C -546.18004,574.77852 -541.02493,548.5307 -533.92599,526.01999 C -524.58207,484.04946 -518.26586,440.15221 -514.54887,394.60091 C -516.83226,390.80896 -517.81005,385.71141 -518.57778,380.40381 C -523.8857,385.84472 -529.19363,392.49966 -534.50155,394.6009 C -544.38217,459.24565 -548.84438,519.19796 -574.21505,580.88985 C -551.83941,518.72958 -546.45787,455.0345 -538.72231,393.06608 z "
           id="path13261"
           sodipodi:nodetypes="cccccccccccccc" />
      </g>
    </g>
  </g>
</svg>
