<?xml version="1.0" encoding="UTF-8" standalone="no"?>
<!-- Creator: CorelDRAW -->
<svg
   xmlns:dc="http://purl.org/dc/elements/1.1/"
   xmlns:cc="http://web.resource.org/cc/"
   xmlns:rdf="http://www.w3.org/1999/02/22-rdf-syntax-ns#"
   xmlns:svg="http://www.w3.org/2000/svg"
   xmlns="http://www.w3.org/2000/svg"
   xmlns:sodipodi="http://sodipodi.sourceforge.net/DTD/sodipodi-0.dtd"
   xmlns:inkscape="http://www.inkscape.org/namespaces/inkscape"
   xml:space="preserve"
   width="744"
   height="882.89093"
   style="shape-rendering:geometricPrecision; text-rendering:geometricPrecision; image-rendering:optimizeQuality; fill-rule:evenodd; clip-rule:evenodd"
   viewBox="0 0 210 297"
   id="svg2"
   sodipodi:version="0.32"
   inkscape:version="0.45.1"
   sodipodi:docname="POL województwo mazowieckie COA.svg"
   inkscape:output_extension="org.inkscape.output.svg.inkscape"
   sodipodi:docbase="C:\Users\Mistrz\Desktop\Herby"
   version="1.0"><metadata
   id="metadata23"><rdf:RDF><cc:Work
       rdf:about=""><dc:format>image/svg+xml</dc:format><dc:type
         rdf:resource="http://purl.org/dc/dcmitype/StillImage" /></cc:Work></rdf:RDF></metadata><sodipodi:namedview
   inkscape:window-height="480"
   inkscape:window-width="640"
   inkscape:pageshadow="2"
   inkscape:pageopacity="0.0"
   guidetolerance="10.0"
   gridtolerance="10.0"
   objecttolerance="10.0"
   borderopacity="1.0"
   bordercolor="#666666"
   pagecolor="#ffffff"
   id="base" />
 <defs
   id="defs4">
  <style
   type="text/css"
   id="style6">
   
    .fil2 {fill:white}
    .fil1 {fill:#E60D2E}
    .fil4 {fill:#E6B012}
    .fil3 {fill:#1F1A17;fill-rule:nonzero}
    .fil0 {fill:black;fill-rule:nonzero}
   
  </style>
 </defs>
 <g
   id="Warstwa_x0020_1"
   transform="matrix(1.191799,0,0,1.191799,-20.1389,-28.481975)">
  <metadata
   id="CorelCorpID_0Corel-Layer" />
  <path
   class="fil0"
   d="M 210,23.8989 L 210,156.5509 C 209.9795,212.8693 186.823,241.9319 162.2964,256.9569 C 137.7841,271.9734 111.9157,272.9372 106.419,273.1014 L 106.3838,273.1014 C 100.7833,272.9561 74.2058,271.9257 49.0153,256.8743 C 23.8067,241.8121 7.1054274e-015,212.74 7.1054274e-015,156.5503 L 7.1054274e-015,23.8983 L 210,23.8983 L 210,23.8989 z "
   id="path10"
   style="fill:#000000;fill-rule:nonzero" />
  <path
   class="fil1"
   d="M 208.613,25.2859 L 1.387,25.2859 L 1.387,156.5509 C 1.387,212.1217 24.8648,240.8338 49.7248,255.6877 C 74.5766,270.5365 100.8225,271.5686 106.3976,271.7139 C 111.8634,271.5503 137.401,270.5855 161.5757,255.7758 C 185.7595,240.9607 208.5923,212.2577 208.6126,156.5509 L 208.6126,25.2859 L 208.613,25.2859 z "
   id="path12"
   style="fill:#e60d2e" />
  <path
   class="fil0"
   d="M 130.544,104.425 C 130.8215,104.6057 131.1511,104.7345 131.5198,104.8231 C 132.5447,105.0697 133.8808,105.0287 135.2944,104.9159 L 135.3134,104.9159 C 137.0751,104.822 138.4983,104.5124 139.5035,103.9378 C 140.4061,103.4217 140.9712,102.6743 141.136,101.6531 L 141.1985,95.5897 L 141.1985,95.5816 C 141.2269,94.2886 140.9757,93.357 140.5212,92.6887 C 140.0795,92.0394 139.4253,91.6163 138.6389,91.3353 L 138.6145,91.3267 L 138.5711,91.3056 C 137.5091,90.7915 136.6522,90.1318 136.0817,89.2699 C 135.5042,88.3972 135.2317,87.3422 135.3491,86.0551 L 135.3471,86.055 L 135.6617,78.8749 L 135.6698,78.8154 C 135.8089,77.7552 136.1521,76.8321 136.7196,76.0601 C 137.2771,75.3018 138.0431,74.6996 139.0358,74.2678 C 141.0819,72.8507 142.9979,71.3524 144.1145,69.3611 C 145.2211,67.3876 145.5643,64.8684 144.5,61.344 L 144.0322,59.7951 C 146.3227,60.955 148.3743,62.0565 149.8233,64.32 L 175.2827,40.5916 C 175.5053,40.2681 175.6665,39.9472 175.7656,39.6302 C 175.8631,39.3177 175.8985,39.0005 175.8714,38.6795 L 175.8714,38.6768 C 175.7312,36.9459 175.9509,35.8948 176.3374,35.3307 C 176.8332,34.6072 177.6519,34.5057 178.3799,34.9359 C 179.0155,35.3112 179.6225,36.1274 179.8828,36.9815 L 179.8812,36.9819 C 181.5999,42.1049 182.1411,46.1287 181.8249,49.3521 C 181.5011,52.6558 180.2874,55.1204 178.5178,57.0604 L 178.5172,57.0597 C 174.995,61.0857 171.5648,64.9735 168.1752,68.7017 C 164.9684,72.2289 161.7554,75.6617 158.4677,79.0124 C 158.8906,79.0091 159.32,79.0208 159.7566,79.0477 C 163.8613,76.612 167.9275,74.0065 171.922,71.2811 C 176.4965,68.1598 180.9625,64.8903 185.2737,61.5445 C 185.6735,61.1747 186.0146,60.7126 186.2826,60.1378 C 186.6152,59.4243 186.7735,58.6865 186.8845,57.9106 C 187.0669,56.9234 187.4501,56.3412 187.8804,56.0468 C 188.3716,55.7108 188.987,55.7006 189.4884,56.0212 C 189.88,56.2712 190.1687,56.7122 190.2243,57.2011 L 190.2243,57.2037 C 192.1237,74.6811 188.6144,77.2924 184.6651,80.2311 C 184.2013,80.5761 183.7399,80.9227 183.2914,81.286 L 183.2879,81.2883 C 175.7104,86.2709 168.1314,91.2867 160.2144,95.7201 C 167.8032,94.1714 175.3498,91.9538 182.8961,89.7365 C 184.2245,89.3463 185.5445,88.9581 187.2402,88.4657 L 187.2398,88.4645 C 188.6281,88.0308 189.702,87.3931 190.5573,86.6138 C 191.4107,85.8362 192.0565,84.9073 192.5852,83.8934 C 193.0921,82.6913 194.4999,81.1812 195.6903,82.4972 C 196.0182,82.8594 196.2328,83.4229 196.2531,84.1019 L 196.2531,84.1046 C 196.4044,89.851 195.4616,94.3203 193.5189,97.6213 C 191.5519,100.9634 188.5816,103.0907 184.7022,104.1159 C 178.3199,106.1966 171.9272,107.8861 165.5282,109.3052 C 163.2455,109.8115 160.9626,110.2832 158.68,110.7255 C 161.772,110.8131 164.871,110.8858 167.9833,110.9295 C 173.911,111.0126 179.9165,110.9909 186.0717,110.7664 L 186.0961,110.7664 C 189.5938,110.7574 191.0088,109.5324 192.4409,108.2928 C 193.161,107.6692 193.7302,106.7419 194.6353,106.4256 C 196.0102,105.9453 196.7225,107.1716 196.5637,108.3644 L 196.5583,108.4038 L 196.5501,108.4376 C 195.0534,114.5519 192.715,118.8036 189.6955,121.5459 C 186.6437,124.3174 182.9236,125.5399 178.6917,125.5753 L 178.6917,125.5755 C 171.8499,125.8664 165.0487,126.0478 158.3091,126.0656 C 156.4969,126.0704 154.6906,126.0629 152.891,126.0429 C 156.511,127.0953 160.1734,128.0818 163.8669,129.0192 C 170.8655,130.7954 177.977,132.3952 185.1248,133.9377 L 185.1245,133.9392 C 186.4672,134.1776 187.6193,134.0994 188.6484,133.8185 C 190.1562,133.407 191.7628,131.8003 193.043,131.6888 C 194.4819,131.5634 195.1102,133.0569 194.6011,134.2035 C 191.7172,139.154 189.1817,142.9315 185.616,145.1433 C 182.0245,147.3711 177.476,147.9634 170.6283,146.4925 L 170.6283,146.4923 C 163.4276,145.3296 156.8139,143.6534 150.6767,141.6052 C 147.5695,140.5684 144.5864,139.4371 141.7125,138.23 C 141.8379,138.4698 141.9567,138.7126 142.0696,138.9586 C 146.8042,142.0032 151.5324,144.912 156.2534,147.6762 C 162.5891,151.386 168.9335,154.8486 175.2868,158.0442 C 177.6458,159.2336 180.0915,159.519 182.616,158.6955 C 185.7102,157.3116 186.6873,159.9476 184.6655,161.8152 C 180.9,165.2922 177.0224,167.673 173.0156,168.7858 C 168.9766,169.9074 164.8255,169.7392 160.5486,168.1058 L 160.4997,168.0841 C 153.1885,164.6242 146.6222,161.0264 141.0003,157.2218 C 143.2243,161.7088 145.4198,165.9276 147.7253,169.3964 C 150.4603,173.5118 153.3477,176.5785 156.6214,177.7859 L 158.6128,178.5204 L 156.5726,179.1026 C 148.484,181.4109 142.8672,177.2663 138.8195,171.9903 C 142.4322,179.2623 146.43,185.3154 152.5616,185.619 L 156.8052,185.829 L 152.716,186.979 C 151.1417,187.4218 149.6516,187.6657 148.2365,187.7288 L 155.9429,198.1404 C 156.7976,199.0618 157.6996,199.581 158.648,199.6978 C 159.6137,199.8164 160.6624,199.5272 161.7935,198.8298 L 161.8307,198.8069 L 161.8694,198.7891 L 173.2521,193.5756 C 174.7851,192.8739 177.1806,193.5323 178.5182,194.7831 L 179.5488,195.4077 C 181.3089,196.4741 182.3736,197.6544 182.804,199.0348 C 183.4391,201.0724 182.5554,202.9163 181.7148,204.7149 C 180.6459,203.1376 179.6189,201.9438 177.601,201.4927 C 177.5857,201.5049 177.5706,201.5171 177.5552,201.5291 C 176.1061,202.6597 174.069,203.108 171.9165,201.9917 L 164.3005,204.3033 L 174.8504,206.7134 C 175.4311,206.8462 175.8654,207.1517 176.3607,207.4691 C 178.0157,208.5306 178.9088,209.6687 179.2492,210.7557 L 179.255,210.7448 L 179.2571,210.7814 C 179.422,211.3212 179.4602,211.8899 179.3515,212.4455 C 179.603,214.375 179.6133,216.6932 178.3047,218.5342 C 177.117,220.2292 175.2675,220.6817 173.4014,221.1589 C 173.8141,219.189 173.8396,217.6856 173.0769,215.7307 C 171.7513,215.3943 170.492,214.5313 169.6233,212.9671 L 161.4938,209.6942 L 166.4982,218.747 C 166.8695,219.4186 167.0358,219.7808 167.1783,220.5819 C 167.4749,222.2473 167.056,223.4734 166.2732,224.2676 L 165.7476,225.2535 C 164.6714,227.2725 163.2444,228.3751 161.5229,228.7053 C 159.0502,229.1795 156.7788,228.0134 154.6419,226.9503 C 156.5705,225.9303 158.7473,225.0881 159.4247,222.7675 C 158.9134,221.7822 158.7046,220.5233 159.0052,219.0073 L 155.5951,210.121 C 155.4327,209.7122 155.4906,209.6408 155.1982,209.8539 L 148.0095,217.37 C 148.1672,219.3822 147.4879,220.6876 146.4399,221.435 L 146.4584,221.5164 C 146.8505,223.2415 148.4876,224.5467 149.7207,225.6845 C 147.7857,226.4333 146.0744,227.0862 144.1298,225.7722 C 142.9148,224.9515 141.8223,223.4827 140.4842,221.4197 L 140.0284,220.6402 C 139.2927,219.8578 138.952,218.8401 139.3296,217.6991 C 140.3723,214.2304 143.1773,212.0361 147.0538,209.0033 C 147.5932,208.5816 148.9546,207.6054 149.8989,206.7775 C 150.6569,206.1128 151.0885,205.6256 151.0453,204.9787 C 151.0075,204.4109 150.4873,203.85 150.0909,203.4807 L 132.5457,187.1286 C 131.567,191.8989 128.7641,195.7046 125.8366,199.4465 L 125.8219,197.4602 C 125.768,190.2305 124.4033,184.4685 122.2471,179.5931 C 120.2443,175.0643 117.5552,171.2884 114.5973,167.8078 C 114.4288,168.6997 114.2357,169.5678 114.0186,170.4117 C 115.473,180.104 117.9044,188.3841 121.7616,194.6014 C 125.5762,200.7502 130.8,204.8853 137.8767,206.3714 L 139.3815,206.6873 C 132.837,211.5985 125.8994,211.9838 118.0994,211.809 C 118.5944,212.7054 119.1127,213.5887 119.6548,214.4562 C 125.3032,223.4944 133.5229,230.8521 144.517,234.2218 L 145.8031,234.616 C 143.5228,236.3578 141.2356,237.9334 138.6489,239.2118 C 136.5741,240.2375 134.4406,241.056 132.2268,241.739 L 132.2267,241.7388 C 126.8548,243.472 124.4799,240.9172 121.3703,237.5713 C 119.6067,235.6746 117.8725,233.7724 116.2504,231.7516 C 116.7188,233.5359 116.9766,235.4673 116.9245,237.6374 C 116.8329,241.4698 115.5432,246.5942 113.4042,251.1158 C 111.552,255.0309 109.0504,258.5159 106.1149,260.3683 L 105.6987,260.6309 L 105.3156,260.3249 C 101.9925,257.6708 99.3177,254.252 97.3731,250.4481 C 95.3487,246.4882 94.1125,242.1101 93.7579,237.7432 C 93.6188,236.0316 93.8026,234.2691 94.2117,232.4649 C 93.2159,233.9712 92.1754,235.468 91.0932,236.9558 C 89.853,238.6605 88.6262,240.0558 87.0992,240.9934 C 85.5419,241.9497 83.7166,242.41 81.3239,242.2078 L 81.3131,242.2023 C 77.4401,241.8169 74.2569,241.0227 71.5758,239.9314 C 68.8772,238.8329 66.6844,237.4339 64.8083,235.8474 L 63.9185,235.0948 L 65.0061,234.6743 C 76.6896,230.1569 85.1731,223.086 90.9152,214.1781 C 91.4136,213.4049 91.8915,212.6175 92.3491,211.8168 C 84.6231,211.8944 78.1292,211.4527 71.7159,206.6873 L 73.2207,206.3714 C 80.2973,204.8853 85.5212,200.7502 89.3357,194.6014 C 92.9985,188.6974 95.3757,180.9333 96.8515,171.8661 C 96.4577,170.5518 96.1648,169.2021 95.9686,167.8187 C 92.9729,171.3306 90.2472,175.1391 88.2226,179.7169 C 86.0665,184.5923 84.7019,190.3543 84.6479,197.584 L 84.6332,199.5703 L 83.4098,198.0067 C 80.3144,194.0499 78.6237,190.5902 77.9394,187.3285 L 61.1095,203.0174 C 60.077,203.9425 59.8808,204.7457 60.8438,205.8102 C 62.0756,206.8289 63.1759,207.69 64.1975,208.4892 C 68.0741,211.522 70.879,213.7163 71.9218,217.1849 C 72.2903,218.2983 71.9749,219.2945 71.2759,220.0691 L 70.4001,221.4193 C 69.0558,223.4918 68.0514,224.8344 66.911,225.5312 C 65.0864,226.646 63.3118,225.8595 61.5306,225.1703 C 62.7908,224.0074 64.3985,222.7371 64.7929,221.0022 L 64.8114,220.9209 C 63.7635,220.1734 63.0841,218.8678 63.2419,216.8558 L 56.0531,209.3397 C 55.8465,209.1508 55.847,209.1653 55.6562,209.6068 L 52.2461,218.4931 C 52.5467,220.0086 52.3373,221.2676 51.8265,222.2528 C 52.5047,224.5741 54.68,225.4158 56.6094,226.4361 C 54.4726,227.4992 52.2011,228.6654 49.7284,228.1911 C 48.0069,227.8609 46.58,226.7584 45.5037,224.7393 L 44.9784,223.7538 C 44.0359,222.7977 43.6205,221.2153 44.3465,218.9945 L 44.3674,218.9304 L 44.3979,218.8753 L 49.7575,209.1801 L 41.628,212.4529 C 40.7594,214.0169 39.5,214.88 38.1745,215.2165 C 37.4339,217.1715 37.5243,218.675 37.8499,220.6446 C 35.9159,220.1502 34.1191,219.6579 32.9358,217.8544 C 31.7682,216.0751 31.7715,213.9017 31.887,211.8621 C 31.8978,211.9332 31.8832,210.4652 32.1459,209.856 C 32.661,208.6621 33.8596,207.425 36.0105,206.3111 L 36.0883,206.2706 L 36.173,206.2513 L 46.9508,203.7891 L 39.3348,201.4775 C 37.1823,202.5938 35.1452,202.1455 33.6961,201.015 C 33.6807,201.003 33.6653,200.9908 33.6501,200.9787 C 31.7078,201.4565 30.6961,202.7459 29.5365,204.2008 L 29.0641,203.1901 C 28.244,201.4349 28.017,199.8534 28.4447,198.4185 C 28.8728,196.9826 29.9388,195.7419 31.7025,194.6734 C 33.0486,193.6227 35.701,192.4218 37.6646,192.9082 L 48.8359,198.0249 C 50.0716,198.6026 51.1492,199.3622 52.6033,199.1836 C 53.5517,199.0668 54.4538,198.5475 55.3084,197.6263 L 62.5345,187.8637 C 61.03,187.8237 59.4403,187.5771 57.7537,187.1028 L 53.6646,185.9528 L 57.9082,185.7428 C 64.3164,185.4256 68.3939,178.8282 72.137,171.123 C 68.2486,177.1602 63.2083,181.8836 53.8972,179.2264 L 51.8569,178.6442 L 53.8484,177.9097 C 57.1221,176.7023 60.0095,173.6356 62.7445,169.5202 C 65.5288,165.331 68.1523,160.0483 70.8597,154.5199 L 70.8608,154.5205 C 70.8917,154.4504 70.9232,154.381 70.9548,154.3121 C 69.8831,155.1289 68.768,155.9361 67.6115,156.7339 C 61.8343,160.7193 55.0209,164.4767 47.3977,168.0841 L 47.3489,168.1058 C 43.0719,169.7392 38.9209,169.9074 34.8818,168.7858 C 30.875,167.673 26.9974,165.2922 23.232,161.8152 C 22.6041,161.2352 22.2173,160.5139 22.148,159.9081 C 22.065,159.1829 22.42,158.5415 23.1453,158.3396 C 24.4577,157.974 26.9667,159.276 28.7551,159.156 C 29.9768,159.074 31.2551,158.7277 32.6106,158.0442 C 38.9639,154.8486 45.3083,151.386 51.6441,147.6762 C 56.5479,144.805 61.4596,141.7777 66.3779,138.6043 C 66.5304,138.3858 66.6892,138.1667 66.855,137.9461 C 63.7754,139.2601 60.5702,140.4875 57.2207,141.6052 C 51.0836,143.6534 44.4699,145.3296 37.2692,146.4923 L 37.2692,146.4925 C 30.4214,147.9634 25.873,147.3711 22.2815,145.1433 C 18.7157,142.9315 16.1803,139.154 13.2964,134.2035 C 13.0828,133.7224 13.0518,133.1212 13.2563,132.6297 C 13.5254,131.9818 14.1634,131.6285 14.8545,131.6888 C 15.3395,131.731 15.8959,131.9758 16.4518,132.4809 C 17.3123,133.0553 18.224,133.5387 19.249,133.8185 C 20.2781,134.0994 21.4303,134.1776 22.773,133.9392 L 22.7727,133.9377 C 29.9204,132.3952 37.0319,130.7954 44.0305,129.0192 C 47.724,128.0818 51.3865,127.0953 55.0066,126.0429 C 53.207,126.0628 51.4006,126.0704 49.5884,126.0656 C 42.8487,126.0478 36.0476,125.8664 29.2057,125.5755 L 29.2057,125.5753 C 24.9738,125.5399 21.2537,124.3174 18.2019,121.5459 C 15.1824,118.8036 12.8441,114.5519 11.3474,108.4376 L 11.3392,108.4038 L 11.3338,108.3644 C 11.1748,107.172 11.8872,105.9452 13.2622,106.4256 C 14.1673,106.742 14.7365,107.6691 15.4566,108.2928 C 16.8886,109.5324 18.3037,110.7574 21.8014,110.7664 L 21.8258,110.7664 C 27.981,110.9909 33.9865,111.0126 39.9141,110.9295 C 43.0266,110.8858 46.1257,110.8131 49.2178,110.7255 C 46.9351,110.2832 44.6521,109.8116 42.3693,109.3052 C 35.9703,107.8861 29.5776,106.1966 23.1952,104.1159 C 19.3159,103.0907 16.3456,100.9634 14.3785,97.6213 C 12.4358,94.3203 11.493,89.851 11.6444,84.1046 L 11.6444,84.1019 C 11.6647,83.4229 11.8793,82.8594 12.2071,82.4972 C 12.686,81.9678 13.3976,81.8647 14.0169,82.2118 C 14.4763,82.4693 14.9386,83.0076 15.3123,83.8934 C 15.841,84.9073 16.4868,85.8362 17.3401,86.6138 C 18.1955,87.3931 19.2694,88.0308 20.6576,88.4645 L 20.6573,88.4657 C 22.3529,88.9581 23.673,89.3463 25.0014,89.7365 C 32.5474,91.9537 40.0937,94.1713 47.6822,95.72 C 40.6039,91.7561 33.5332,87.1559 26.4785,82.5177 C 25.3501,81.7762 24.3137,81.0356 23.2324,80.2311 C 19.283,77.2924 15.7738,74.6811 17.6732,57.2037 L 17.6732,57.2011 C 17.7288,56.7122 18.0174,56.2712 18.409,56.0212 C 18.9105,55.7006 19.5259,55.7108 20.0171,56.0468 C 20.4473,56.3412 20.8305,56.9234 21.0129,57.9106 L 21.0184,57.9486 C 21.1885,59.2701 21.6204,60.6165 22.6238,61.5445 C 26.935,64.8903 31.401,68.1598 35.9754,71.2811 C 40.0312,74.0483 44.1606,76.6917 48.3292,79.1594 C 48.3481,78.7618 48.3783,78.3645 48.4094,77.9671 C 45.4757,74.9484 42.5965,71.8631 39.7222,68.7017 C 36.3327,64.9735 32.9025,61.0857 29.3803,57.0597 L 29.3796,57.0604 C 27.61,55.1204 26.3963,52.6558 26.0726,49.3521 C 25.7564,46.1287 26.2975,42.1049 28.0162,36.9819 L 28.0146,36.9815 C 28.275,36.1274 28.882,35.3112 29.5176,34.9359 C 30.2454,34.5057 31.0643,34.6072 31.5601,35.3307 C 31.9466,35.8948 32.1663,36.9459 32.026,38.6768 L 32.026,38.6795 C 31.9989,39.0005 32.0344,39.3177 32.1319,39.6302 C 32.231,39.9472 32.3922,40.2681 32.6147,40.5916 L 59.2757,65.4399 C 59.3228,65.3614 59.3708,65.283 59.4197,65.2049 C 60.6505,63.2392 62.4549,61.3922 64.9322,59.8322 L 66.4826,58.8558 L 65.9644,60.6125 C 65.3721,62.6212 65.1885,64.3874 65.429,65.9013 C 65.8339,68.4489 67.333,69.7623 69.3233,71.1037 C 71.1881,72.3608 72.8711,73.8009 73.6388,75.9922 C 74.0123,77.0579 73.9218,77.9638 73.9218,79.0401 L 73.9218,87.6228 C 73.9591,88.5538 73.8067,89.4063 73.4066,90.1647 C 72.9562,91.0182 72.1614,91.7435 71.2859,92.1416 C 69.344,93.032 67.4019,93.9227 67.6745,95.9256 L 67.6772,95.9419 L 68.2603,101.19 C 68.608,102.7996 69.0332,103.845 70.0901,104.4447 C 71.816,105.4239 74.8294,105.3287 76.6808,105.3287 C 79.0372,105.338 80.4832,105.1937 81.3886,104.8412 C 81.6316,104.7466 81.8339,104.6332 82.0055,104.4994 C 83.4146,100.4851 85.9043,96.5276 89.2883,92.6175 C 88.0504,92.3681 86.8515,91.6987 85.7075,91.1776 L 87.9668,90.814 C 91.2487,90.2858 93.6558,88.6036 95.3791,86.2339 C 97.401,83.4538 98.5025,79.722 98.9798,75.7738 C 93.6483,72.2 91.5794,72.0991 89.6336,72.0045 C 87.3989,71.896 82.6791,71.1275 83.1765,67.9419 C 81.153,67.9605 79.1509,67.8682 77.2176,67.3489 C 74.68,66.6674 73.2291,65.3607 71.6343,63.3941 C 69.5606,60.837 71.086,60.9204 73.443,62.1756 C 74.0286,62.4815 74.6465,62.7266 75.2931,62.9162 C 77.2136,63.4791 79.2167,63.4548 81.2361,63.4304 C 81.8343,63.4231 82.4343,63.416 83.0392,63.4233 C 85.8618,63.4588 88.0454,63.6298 89.76,63.9035 C 89.6448,63.4611 89.58,63.016 89.5151,62.5711 C 89.34,61.3703 89.1646,60.1691 87.7155,59.3835 C 87.2549,59.1337 86.5535,59.0264 85.8069,58.9888 C 85.005,58.9483 84.1522,58.9917 83.4599,59.0302 C 82.4978,59.0836 81.4451,59.9649 80.6875,60.5993 C 80.1196,61.0747 79.6755,61.4465 79.2357,61.472 C 78.6699,61.5048 78.343,61.2285 78.3019,60.5208 C 78.3019,59.9804 78.3716,59.4127 78.3958,58.8678 C 78.5416,55.6143 78.6876,52.3606 83.1937,51.8595 C 84.8785,51.6723 86.6076,51.7293 88.3084,51.7852 C 88.8045,51.8016 89.2988,51.8183 89.7798,51.8284 C 89.5204,48.1124 90.3076,45.6686 91.7982,44.0683 C 93.3977,42.3512 95.7458,41.6585 98.4535,41.4351 C 102.9117,41.0679 107.1693,42.0513 111.4391,43.038 C 116.7575,44.2666 122.096,45.5 127.7438,44.0028 L 128.3,43.8554 L 128.5457,44.3766 C 129.4154,46.2218 129.0141,47.7556 127.9573,49.1282 C 127.2417,50.0575 126.2263,50.8885 125.1204,51.6894 C 127.4797,52.2342 129.1949,51.5618 131.2282,50.6658 L 130.5951,52.2057 C 129.7714,54.209 128.4685,55.6775 126.8596,56.8036 C 125.3991,57.8256 123.6872,58.5611 121.8563,59.1591 C 121.0366,65.2448 121.3012,70.0835 122.3616,73.923 C 123.4325,77.8001 125.3178,80.6578 127.7146,82.7542 L 128.4505,83.398 C 126.969,84.2333 125.9799,84.5013 124.3267,84.2213 C 124.5137,86.0034 124.9213,87.5999 125.653,88.9228 C 126.9076,91.1904 128.7407,91.9705 130.9877,92.8232 C 129.606,93.6185 128.4124,94.3308 126.7621,94.487 C 128.6304,97.8979 129.8525,101.2042 130.544,104.425 L 130.544,104.425 z "
   id="path14"
   style="fill:#000000;fill-rule:nonzero" />
  <path
   class="fil2"
   d="M 49.8936,77.5082 C 52.2137,77.2339 54.5289,77.4644 56.757,78.1613 C 52.7049,73.574 46.6822,66.3095 43.2531,61.4082 C 47.3263,64.7767 56.1845,75.7431 57.5907,75.3779 C 57.3989,74.5036 57.2935,73.5955 57.2838,72.6701 C 57.2642,70.8058 57.6328,68.8679 58.4686,66.9896 L 58.2592,66.3845 L 32.2566,42.1497 C 31.5618,41.5022 31.1075,40.9958 30.8095,40.0416 C 30.6547,39.5456 30.5976,39.0533 30.6387,38.5655 L 30.6389,38.5655 C 30.6426,38.5191 30.7776,36.1089 30.3883,36.064 C 29.8222,36.2682 29.3988,37.2043 29.3339,37.401 C 27.6756,42.3375 27.1502,46.1783 27.4486,49.2216 C 27.7394,52.1887 28.8237,54.3961 30.4036,56.1282 L 30.4117,56.139 C 33.8881,60.1127 37.2971,63.9757 40.7462,67.7695 C 43.7828,71.1093 46.8146,74.3542 49.8936,77.5082 L 49.8936,77.5082 z M 48.2996,80.7457 C 43.8564,78.1382 39.4758,75.3446 35.1949,72.4241 C 30.5913,69.2829 26.0868,65.9838 21.73,62.6011 C 21.1621,62.1596 20.6576,61.3665 20.3574,60.7226 C 20.0252,60.01 19.7841,59.1615 19.6515,58.153 C 19.5459,57.5852 19.3923,57.2961 19.2366,57.1897 C 19.151,57.1312 19.0571,57.2818 19.0492,57.3525 L 19.049,57.3525 C 17.2354,74.0447 20.4444,76.4326 24.0559,79.1199 C 32.1913,84.9946 41.6043,90.6752 50.5307,95.7062 C 51.9857,95.3047 53.6564,95.0833 55.5756,95.0691 C 55.5634,95.0449 55.5511,95.0208 55.5389,94.9967 C 54.1376,94.0057 52.8875,92.8724 51.8359,91.5537 L 50.7051,90.8056 C 46.46,87.7051 43.2088,85.2267 38.5594,81.6359 C 42.4987,83.6993 46.7788,86.2507 49.4148,87.2506 C 48.7213,85.3688 48.3284,83.2196 48.2996,80.7457 L 48.2996,80.7457 z M 47.3335,97.0628 C 39.7246,95.5046 32.1675,93.2841 24.611,91.0638 C 21.8135,90.2419 18.6157,89.6489 16.408,87.6376 C 15.4903,86.8013 14.5601,85.5978 14.0491,84.4619 C 13.9397,84.1977 13.3192,82.812 13.0811,83.7533 C 13.053,83.8637 13.0356,83.9933 13.0312,84.1395 L 13.0311,84.1395 C 12.887,89.6256 13.7627,93.8507 15.5703,96.9221 C 17.347,99.941 20.0467,101.8621 23.5823,102.7881 L 23.623,102.799 C 29.9799,104.8714 36.3271,106.5496 42.6672,107.9558 C 45.4566,108.5744 48.2463,109.1409 51.0359,109.6657 C 50.7286,109.5741 50.4252,109.4733 50.1267,109.362 C 47.9949,108.5672 46.1237,107.2623 44.6705,105.1405 C 41.2554,101.764 33.7184,100.4742 27.8161,98.6562 C 34.5932,99.9781 39.555,100.9518 43.5261,100.9475 L 43.5589,100.9475 C 44.4754,99.3792 45.6988,98.0566 47.3335,97.0628 L 47.3335,97.0628 z M 49.3774,112.1087 C 46.2473,112.1975 43.1028,112.2719 39.9301,112.3164 C 33.9742,112.3998 27.9455,112.3783 21.7768,112.1532 L 21.7768,112.153 C 17.7851,112.1372 16.1778,110.7459 14.5516,109.3382 C 14.0531,108.9072 13.6364,108.3378 13.1652,107.948 C 12.7712,107.6222 12.6396,107.6262 12.7004,108.1498 C 14.1267,113.955 16.3198,117.966 19.1337,120.5213 C 21.9156,123.0478 25.3325,124.1596 29.2353,124.188 L 29.2597,124.188 C 36.1036,124.4791 42.8897,124.6605 49.5882,124.6781 C 50.305,124.68 51.0211,124.6798 51.7364,124.678 C 49.152,123.9619 46.6202,122.475 44.1621,119.9154 C 40.1523,119.3621 34.4459,119.1312 28.8558,118.6691 C 34.0602,118.3798 40.1316,118.2715 44.35,117.6256 C 45.5562,115.3829 47.2047,113.5205 49.3774,112.1087 L 49.3774,112.1087 z M 57.0874,126.8729 C 52.8925,128.1222 48.6472,129.2764 44.3663,130.3628 C 37.0986,132.2074 30.2246,134.1843 22.783,135.338 C 20.1314,135.7505 17.8567,135.0923 15.6335,133.5966 C 15.3635,133.3856 15.0977,133.1072 14.735,133.0755 C 14.4386,133.0496 14.4866,133.3803 14.5402,133.5889 C 17.3026,138.3252 19.72,141.9281 23.0074,143.9672 C 26.2874,146.0017 30.5217,146.5253 36.9818,145.1376 L 37.017,145.1322 C 44.1503,143.9824 50.702,142.3225 56.7817,140.2937 C 58.3511,139.7699 59.8897,139.221 61.3992,138.6499 C 59.0612,138.4755 56.5493,137.5336 53.5191,135.7748 C 51.1231,136.1293 45.5187,137.491 37.8605,138.4002 C 47.7738,135.9239 50.5755,134.8321 52.747,133.0708 L 53.1164,132.9089 C 54.0215,130.6823 55.3285,128.6618 57.0874,126.8729 L 57.0874,126.8729 z M 64.8378,141.2339 C 60.6781,143.8795 56.513,146.4262 52.3428,148.8679 C 45.9646,152.6026 39.5944,156.0798 33.2335,159.2794 C 31.6935,160.0559 30.2389,160.4495 28.847,160.5429 C 27.4489,160.6368 26.1138,160.4288 24.8188,160.0025 C 24.6425,159.9321 23.4862,159.4264 23.5241,159.7506 C 23.5583,160.0513 23.7881,160.4442 24.1692,160.7963 C 27.777,164.1277 31.4666,166.4018 35.2501,167.4525 C 38.9964,168.4928 42.8554,168.3348 46.8411,166.816 C 54.3895,163.2423 61.1268,159.5273 66.8257,155.5958 C 69.899,153.4756 72.6704,151.2926 75.1043,149.0353 C 74.5409,149.2884 73.9674,149.4989 73.3835,149.6668 C 71.0978,150.3243 68.6713,150.3254 66.1096,149.6945 L 65.8431,149.7167 C 62.5514,151.5513 59.0611,153.0096 51.7483,156.6589 C 58.2404,152.9354 61.294,150.5193 63.4362,148.5168 L 63.4325,148.3699 C 63.3661,145.7295 63.785,143.4662 64.8378,141.2339 L 64.8378,141.2339 z M 88.542,147.4505 C 85.4826,143.6081 83.2378,139.383 81.9802,134.6961 C 80.6355,129.685 80.4217,124.1523 81.5481,118.0027 C 80.3898,114.0466 80.4121,110.141 81.4528,106.2799 C 79.9715,106.7292 78.1453,106.7155 76.6753,106.7155 C 72.9924,106.7397 70.8128,106.4448 69.4071,105.6474 C 67.843,104.7599 67.1596,103.0725 66.8879,101.3782 L 66.3007,96.0933 L 66.3014,96.0932 C 65.9018,93.0899 68.3066,91.9868 70.7114,90.8841 C 71.2996,90.6193 71.8787,90.094 72.1817,89.5196 C 72.5022,88.9124 72.5344,88.3207 72.5344,87.6495 L 72.5344,78.6801 C 72.5752,76.8243 72.28,75.7863 71.0652,74.3353 C 69.7707,72.7885 67.8502,71.9896 66.3996,70.6098 C 65.1179,69.3906 64.345,67.8897 64.0634,66.1179 C 63.8669,64.8812 63.9131,63.5178 64.1954,62.0312 C 62.6518,63.2253 61.4655,64.5519 60.5953,65.9416 C 59.234,68.1156 58.6476,70.4462 58.6709,72.6593 C 58.6942,74.8677 59.3224,76.9568 60.3913,78.654 C 60.9718,79.5759 61.6838,80.3824 62.4995,81.0285 C 63.6657,81.8247 62.9493,83.1555 61.6429,82.1194 C 59.8703,80.917 58.0379,79.987 56.1272,79.4173 C 54.1001,78.813 51.9777,78.6141 49.7349,78.9258 C 49.4853,83.1612 50.2639,86.4342 51.7752,89.0212 C 53.3508,91.7183 55.7353,93.6983 58.5871,95.2638 C 58.8612,95.6041 58.6689,96.6183 58.1969,96.5642 C 54.2322,96.2368 51.2635,96.6847 49.045,97.7161 C 46.9753,98.6784 45.5449,100.1615 44.5539,102.0021 C 45.9246,105.3239 48.0575,107.1157 50.609,108.0668 C 53.1615,109.0185 56.1805,109.1547 59.2917,109.1289 C 60.4177,109.1196 59.9879,110.4947 59.2755,110.5445 C 55.5501,110.8057 52.591,111.7141 50.2829,113.1711 C 48.012,114.6047 46.3557,116.5812 45.2052,119.0036 C 48.4619,122.373 51.8323,123.7013 55.2703,123.8158 C 58.3126,123.9172 61.4345,123.081 64.5884,121.8626 C 67.0378,120.7836 67.5228,122.2079 65.1156,123.1404 C 62.3018,124.384 60.0323,125.9015 58.251,127.6645 C 56.2638,129.6313 54.8793,131.9111 54.018,134.4619 C 57.8335,136.7053 60.7153,137.5845 63.4148,137.2129 C 66.1513,136.8361 68.7909,135.1659 72.0938,132.3222 C 72.8714,131.6529 73.4134,133.0017 72.9566,133.4267 C 69.9354,136.2398 67.8737,138.5751 66.583,140.8721 C 65.3414,143.0815 64.8105,145.2773 64.8136,147.8677 C 67.7498,148.8905 70.4831,149.059 73.0041,148.3337 C 75.6528,147.5717 78.0941,145.8108 80.3173,143.0048 C 80.6422,142.6109 80.9672,142.2171 81.292,141.8232 C 81.7109,141.4531 82.3015,141.8003 82.1354,142.297 L 81.4553,143.7905 C 80.9683,144.6034 80.4853,145.4224 80.0193,146.2646 C 79.7934,146.6731 79.5755,147.0815 79.3678,147.4891 C 82.0965,146.881 85.2107,146.9695 88.542,147.4505 L 88.542,147.4505 z M 85.3294,163.889 C 85.3884,163.7603 85.4475,163.6323 85.5065,163.5031 C 85.447,163.6324 85.3876,163.7599 85.3281,163.8881 C 85.0608,163.6568 84.2097,164.6595 82.9346,167.3241 C 82.8089,167.5868 82.6847,167.8468 82.561,168.1055 C 79.8223,173.6369 76.9792,178.3774 73.6671,181.6605 C 70.2485,185.0491 66.3027,186.8781 61.3991,186.3982 C 67.7522,183.9148 71.6176,175.5951 75.5383,167.1545 C 76.7008,164.6517 77.8685,162.1379 79.1039,159.7746 C 79.8723,158.3035 79.1563,156.9869 78.044,158.5042 C 76.6478,160.4084 75.3903,162.6794 74.0985,165.0123 C 70.1146,172.2072 65.7874,180.0195 56.1802,178.3332 C 59.0004,176.703 61.5193,173.8637 63.8983,170.284 C 66.7378,166.0118 69.3807,160.6914 72.1058,155.1265 L 72.1166,155.0994 C 73.5991,151.7209 75.9689,149.8709 78.9235,149.0302 C 79.8049,148.7794 80.7406,148.6161 81.7217,148.5275 C 81.7215,148.5275 81.7213,148.5274 81.721,148.5274 C 83.0455,148.4077 84.4536,148.4237 85.925,148.5435 C 85.9247,148.5435 85.9244,148.5436 85.9242,148.5436 C 86.9831,148.6298 88.0748,148.7698 89.1923,148.9512 C 89.4402,151.9902 90.1217,154.928 91.1742,157.7792 C 92.104,160.2983 93.3247,162.7485 94.7924,165.1399 L 95.2662,166.5144 C 92.0544,170.2316 89.12,174.2622 86.9545,179.1586 C 84.9319,183.7322 83.5835,189.0509 83.3106,195.5578 C 76.071,185.287 79.179,178.3895 83.9547,168.4044 C 85.2239,165.8245 85.6153,164.1416 85.3294,163.889 L 85.3294,163.889 z M 97.7981,174.5044 C 96.2741,182.7096 93.9456,189.7918 90.5113,195.3272 C 86.7805,201.3412 81.7564,205.5267 75.0613,207.3497 C 80.3203,210.4804 87.1848,210.5089 93.1196,210.4192 C 95.848,205.293 97.7826,199.6449 98.9985,193.5922 C 97.4666,196.1701 95.5138,198.86 92.6452,200.6849 C 96.1942,196.1069 98.9111,189.8023 100.2031,184.2034 C 100.5487,182.7056 100.5055,181.0061 100.5492,179.4701 C 100.5492,179.4654 100.55,179.461 100.5502,179.4564 C 99.4594,177.9088 98.5322,176.2485 97.7981,174.5044 L 97.7981,174.5044 z M 120.5857,195.3272 C 117.0015,189.5501 114.6221,182.0888 113.1043,173.4239 C 112.2934,175.7189 111.2742,177.8081 110.0465,179.6915 C 110.038,181.2792 110.119,182.4709 110.4617,184.0113 C 111.6934,189.5458 114.589,195.8371 117.6881,200.6193 C 115.7026,199.1672 113.0627,195.507 111.31,192.864 C 112.4833,198.8661 114.483,204.867 117.351,210.4089 C 123.4614,210.5199 130.6087,210.5804 136.0358,207.3497 C 129.3406,205.5267 124.3165,201.3412 120.5857,195.3272 L 120.5857,195.3272 z M 101.8737,181.1861 C 101.2902,193.9074 98.2018,205.4282 92.0799,214.9254 C 86.3657,223.7902 78.0189,230.8793 66.6132,235.5234 C 68.1758,236.7191 69.9685,237.7808 72.0958,238.6468 C 74.6637,239.6921 77.7171,240.4535 81.4371,240.8246 L 81.4375,240.8203 C 83.5157,240.9961 85.074,240.6129 86.3784,239.812 C 87.7128,238.9926 88.8265,237.7161 89.9712,236.1427 C 92.1564,233.1387 94.1671,230.1015 95.9799,227.027 C 96.9051,224.7351 98.0232,222.394 99.1573,220.0194 C 101.3879,215.3488 103.6817,210.5458 104.6241,205.8295 L 105.6677,200.6076 L 105.9617,205.343 L 106.1235,206.4246 C 106.7455,210.5815 107.8673,214.3844 109.3773,217.9127 C 110.1613,219.4546 111.0093,220.8994 111.8413,222.3167 C 112.7506,223.8656 113.6413,225.3834 114.4172,226.96 C 116.7936,230.3912 119.5047,233.5309 122.3834,236.6283 C 125.1549,239.6104 127.2713,241.8872 131.8121,240.4193 L 131.8202,240.4166 C 133.9643,239.7549 136.0297,238.9627 138.0366,237.9707 C 139.6633,237.1667 141.2527,236.2301 142.8166,235.1241 C 132.1183,231.4811 124.0691,224.1325 118.4788,215.1873 C 112.1237,205.0181 108.95,192.7808 108.6775,181.5967 C 107.7209,182.8075 106.662,183.8772 105.5301,184.9186 C 104.2271,183.7459 102.993,182.539 101.8737,181.1861 L 101.8737,181.1861 z M 103.6842,213.4009 C 102.6951,215.8283 101.5439,218.2388 100.4089,220.6153 C 97.5153,226.6741 94.7284,232.5097 95.1448,237.6345 C 95.4855,241.828 96.6696,246.0268 98.6084,249.8192 C 100.3899,253.304 102.8065,256.4454 105.7884,258.9237 C 108.3078,257.161 110.4914,254.0358 112.1523,250.5248 C 114.2096,246.1758 115.4495,241.2643 115.5372,237.6044 C 115.6815,231.588 113.2427,227.4335 110.6493,223.0156 C 109.1024,220.3804 107.5023,217.6542 106.3287,214.3968 C 106.1092,220.7571 106.1263,225.2582 105.4724,232.6312 C 104.564,224.8793 105.0195,220.4289 103.6842,213.4009 L 103.6842,213.4009 z M 131.9103,160.7106 C 132.9465,162.7587 133.9408,164.8988 134.9311,167.0307 C 138.8517,175.4713 142.7172,183.791 149.0703,186.2743 C 144.1667,186.7543 140.2208,184.9253 136.8023,181.5367 C 133.4902,178.2536 130.6471,173.5131 127.9084,167.9817 C 127.7847,167.723 127.6605,167.463 127.5347,167.2003 C 126.1734,164.3551 125.3511,163.4122 125.1224,163.7235 C 125.0692,163.6088 125.0161,163.4949 124.9629,163.3793 C 125.0158,163.4949 125.0685,163.6095 125.1214,163.7247 C 124.8772,164.0627 125.3191,165.8493 126.5147,168.2806 C 131.2904,178.2657 134.3984,185.1632 127.1588,195.434 C 126.8858,188.9271 125.5375,183.6084 123.5148,179.0347 C 121.3494,174.1384 118.415,170.1078 115.2032,166.3906 L 115.7105,164.919 C 117.3323,162.7146 118.6258,160.1863 119.5907,157.3336 C 120.4636,154.7529 121.0679,151.911 121.4029,148.8073 C 125.1743,148.2045 128.6506,148.0825 131.5459,148.9064 C 134.5005,149.7471 136.8703,151.5971 138.3528,154.9756 L 138.3636,155.0027 C 141.0887,160.5676 143.7316,165.888 146.5711,170.1602 C 148.9414,173.7269 151.4506,176.5586 154.2586,178.1915 C 143.7556,179.7859 137.9578,168.7933 134.3754,161.9983 C 133.9143,161.1236 133.4883,160.3155 133.0896,159.604 C 132.2313,158.0719 131.6264,157.669 131.371,157.9465 C 130.9615,158.3916 131.6592,160.2139 131.9103,160.7106 L 131.9103,160.7106 z M 142.8842,141.1225 C 147.1021,143.8081 151.3256,146.3919 155.5543,148.8679 C 161.9324,152.6026 168.3027,156.0798 174.6636,159.2794 C 176.2036,160.0559 177.6581,160.4495 179.0501,160.5429 C 180.247,160.6232 182.0422,160.4728 183.146,159.9754 C 184.4163,159.3982 184.8764,159.7356 183.7277,160.7963 C 180.12,164.1277 176.4305,166.4018 172.647,167.4525 C 168.9007,168.4928 165.0416,168.3348 161.056,166.816 C 153.5075,163.2423 146.7703,159.5273 141.0714,155.5958 C 140.6206,155.2848 140.1761,154.9721 139.7384,154.6584 C 139.6955,154.5709 139.6528,154.4833 139.6099,154.3958 L 139.6088,154.3963 C 138.1981,151.1973 136.0747,149.2161 133.4426,148.1046 C 133.3711,147.9555 133.2984,147.8068 133.2251,147.6579 C 133.7328,148.0132 134.2663,148.3277 134.8267,148.5996 C 136.8853,149.5984 139.2909,150.012 142.1007,149.7426 C 145.3788,151.5651 148.8705,153.0268 156.1488,156.6589 C 148.8583,152.4775 145.9039,149.9448 143.707,147.7952 C 143.7615,145.4179 143.5045,143.1857 142.8842,141.1225 L 142.8842,141.1225 z M 151.4385,127.0593 C 155.4286,128.2374 159.4638,129.3306 163.5308,130.3628 C 170.5569,132.1461 177.6791,133.7485 184.8319,135.292 L 184.8563,135.2948 C 186.4381,135.5796 187.7963,135.4883 189.0112,135.1566 C 190.2165,134.8274 191.2729,134.2632 192.2636,133.5966 C 192.5335,133.3857 192.7995,133.1072 193.162,133.0755 C 193.4593,133.0497 193.4082,133.3891 193.3569,133.5889 C 190.5944,138.3252 188.177,141.9281 184.8897,143.9672 C 181.6097,146.0017 177.3754,146.5253 170.9152,145.1376 L 170.8801,145.1322 C 163.7467,143.9824 157.195,142.3225 151.1153,140.2937 C 149.2503,139.6713 147.4288,139.0134 145.6478,138.3247 C 148.4127,138.5728 151.5661,138.0731 155.2517,136.5487 C 157.7103,136.929 163.2574,138.2616 170.7925,139.1562 C 160.9179,136.6895 158.0995,135.5964 155.9314,133.8472 C 155.0267,131.283 153.5914,129.1464 151.7393,127.3454 C 151.6403,127.2491 151.5399,127.1537 151.4385,127.0593 L 151.4385,127.0593 z M 156.6871,112.0551 C 160.4224,112.1676 164.1746,112.2632 167.9669,112.3164 C 173.9229,112.3998 179.9516,112.3783 186.1203,112.1532 L 186.1203,112.153 C 190.112,112.1372 191.7193,110.7459 193.3455,109.3382 C 193.8545,108.8977 194.1987,108.4528 194.6606,107.9952 C 194.9701,107.6887 195.2686,107.5308 195.1967,108.1498 C 193.7703,113.955 191.5773,117.966 188.7634,120.5213 C 185.9815,123.0478 182.5645,124.1596 178.6618,124.188 L 178.6374,124.188 C 171.7934,124.4791 165.0074,124.6605 158.3089,124.6781 C 157.8473,124.6794 157.3858,124.6796 156.9248,124.6793 C 159.2013,123.9382 161.4964,122.6073 163.8156,120.4813 L 164.2009,120.128 L 164.0722,119.8703 C 168.061,119.3492 173.6059,119.1185 179.0413,118.6691 C 173.4771,118.3599 166.9217,118.2575 162.6995,117.4837 C 161.3587,115.5013 159.7679,114.0061 158.0053,112.8457 C 157.5755,112.5628 157.1355,112.2998 156.6871,112.0551 L 156.6871,112.0551 z M 160.3212,97.1121 C 168.0121,95.5517 175.6492,93.3076 183.286,91.0638 C 184.8568,90.6023 186.4366,90.138 187.6379,89.7891 L 187.6514,89.7864 C 189.248,89.2877 190.4914,88.5466 191.4891,87.6376 C 192.7462,86.4921 193.3064,85.2822 194.1336,83.8902 C 194.3799,83.4763 194.7025,83.1357 194.8349,83.8397 C 194.8517,83.9295 194.8625,84.0299 194.8658,84.1395 L 194.8659,84.1395 C 195.01,89.6256 194.1344,93.8507 192.3267,96.9221 C 190.5501,99.941 187.8504,101.8621 184.3148,102.7881 L 184.274,102.799 C 177.9172,104.8714 171.57,106.5496 165.2299,107.9558 C 163.7623,108.2812 162.2945,108.5922 160.8268,108.8904 C 163.1799,107.7204 165.2918,105.933 167.0355,103.2042 C 170.9014,101.0141 176.7886,99.884 181.593,98.4041 C 174.8158,99.726 169.854,100.6997 165.8829,100.6954 L 165.858,100.6954 C 164.1055,99.1195 162.2558,97.9424 160.3212,97.1121 L 160.3212,97.1121 z M 150.5037,65.5775 L 176.2779,41.5556 C 176.6381,41.1422 176.9244,40.5642 177.0876,40.0416 C 177.2424,39.5456 177.2994,39.0533 177.2584,38.5655 L 177.2582,38.5655 C 177.1883,37.7009 177.2064,37.0839 177.2836,36.6641 C 177.5268,35.3376 178.3816,36.8124 178.5551,37.382 L 178.5632,37.401 C 180.2215,42.3375 180.7468,46.1783 180.4484,49.2216 C 180.1577,52.1887 179.0734,54.3961 177.4935,56.1282 L 177.4854,56.139 C 174.009,60.1127 170.5999,63.9757 167.1509,67.7695 C 163.7586,71.5006 160.3725,75.1134 156.9197,78.6131 C 156.4008,78.8485 155.8768,79.0842 155.3496,79.3206 C 154.8261,79.4222 154.312,79.5482 153.8053,79.6976 C 151.9786,80.2359 150.2616,81.076 148.5886,82.1688 C 148.9444,81.3685 149.2806,80.5565 149.5892,79.7391 C 153.5543,75.3572 160.847,66.8354 164.644,61.4082 C 160.9996,64.4221 153.525,73.5174 150.9842,75.1378 C 151.4032,73.2385 151.5985,71.3711 151.4744,69.6116 C 151.3734,68.181 151.0657,66.8234 150.5037,65.5775 L 150.5037,65.5775 z M 162.0044,79.3116 C 165.6235,77.1226 169.1963,74.8158 172.7021,72.4241 C 176.7119,69.6881 180.6466,66.8323 184.4738,63.9059 C 185.743,62.9355 186.8357,62.2324 187.5397,60.7226 C 188.0241,59.7852 188.2889,57.89 188.4656,57.3987 C 188.5318,57.2146 188.7811,57.0484 188.8478,57.3525 L 188.8481,57.3525 C 188.8489,57.36 188.8497,57.3676 188.8505,57.3752 C 190.6587,74.0469 187.451,76.4338 183.8411,79.1199 C 183.407,79.443 182.9666,79.7708 182.5214,80.1297 L 182.374,80.2268 C 173.862,85.8278 165.3266,91.4438 156.8252,95.9976 C 156.0463,95.8291 155.2565,95.7082 154.457,95.6311 C 156.4935,93.8976 158.3674,92.0325 159.8559,89.8592 C 159.957,89.7118 160.0561,89.5628 160.1535,89.4125 L 161.4758,88.5377 C 165.7211,85.437 168.9722,82.9588 173.6216,79.368 C 169.465,81.5452 164.9285,84.2661 162.3449,85.1341 C 162.2995,85.1399 162.2567,85.1467 162.2166,85.1548 C 162.726,83.6296 163.0548,81.9686 163.1597,80.139 L 163.1939,79.5388 C 162.7975,79.4604 162.4019,79.3797 162.0044,79.3116 L 162.0044,79.3116 z M 131.1998,106.1721 C 131.082,106.1437 130.9668,106.1127 130.8542,106.0783 C 131.485,110.0078 131.3402,113.8058 130.6356,117.5083 L 130.5293,118.0667 L 129.9637,118.0744 C 129.734,118.0776 129.5153,118.0668 129.3088,118.0416 C 129.962,124.0209 129.6277,129.2784 128.3853,133.8727 C 127.0871,138.6735 124.8009,142.7505 121.619,146.1697 C 121.5973,146.5481 121.5722,146.9229 121.5432,147.2943 L 121.9919,147.317 C 125.4977,146.8157 128.7614,146.7521 131.5864,147.4815 C 131.3432,147.0095 131.0906,146.5365 130.8301,146.0624 C 130.4114,145.3002 129.974,144.5375 129.5268,143.775 C 128.8964,142.7004 130.2461,142.3448 130.8652,143.2506 C 132.1148,145.0791 133.6191,146.4756 135.4282,147.3532 C 137.3377,148.2796 139.6066,148.6386 142.2986,148.3297 C 142.4256,145.4561 142.0933,142.8196 141.2033,140.4718 C 140.4088,138.3759 139.1662,136.4981 137.4057,134.8725 C 137.1774,134.6913 136.9522,134.5044 136.7296,134.3126 C 136.177,133.8357 136.8035,132.5422 137.6839,133.2777 C 137.8864,133.4472 138.0834,133.6192 138.2747,133.7939 C 140.1836,135.3076 142.3063,136.407 144.7827,136.8199 C 147.6001,137.2895 150.9027,136.8782 154.9085,135.1911 C 154.1111,132.4386 152.6837,130.1933 150.7747,128.337 C 148.8926,126.5067 146.533,125.0439 143.8393,123.8389 C 142.5889,123.2794 143.0674,122.0438 144.3143,122.4877 C 147.2536,123.5353 150.201,124.2253 153.1677,124.0082 C 156.2182,123.785 159.3142,122.5896 162.484,119.8102 C 161.0839,117.194 159.2881,115.353 157.2412,114.0054 C 155.0527,112.5644 151.5946,111.4716 148.9919,110.8 C 147.8472,110.6561 147.4963,109.5865 149.0952,109.3833 C 152.2556,109.2989 156.3422,109.2405 159.0791,108.1531 C 161.6433,107.1343 163.9438,105.4219 165.8044,102.552 C 163.9099,100.6552 161.8932,99.2918 159.7729,98.3827 C 157.5149,97.4147 155.1291,96.9584 152.64,96.9182 C 151.3168,96.9783 151.434,96.2511 152.2174,95.6856 C 154.6888,93.7014 156.9894,91.5951 158.7126,89.079 C 160.319,86.7338 161.4326,84.0135 161.7279,80.6703 C 158.9341,80.1985 156.4733,80.3537 154.1956,81.025 C 151.7425,81.748 149.4805,83.0743 147.2303,84.8629 C 145.8324,85.7388 145.4828,85.4543 146.1818,84.0095 C 148.5124,79.3987 150.4004,74.1462 150.0872,69.7092 C 149.8875,66.8784 148.7687,64.3748 146.2466,62.5961 C 146.8783,65.7059 146.4182,68.0846 145.3227,70.0382 C 144.3171,71.8318 142.7905,73.2284 141.0931,74.495 C 140.0725,75.2567 138.5588,75.8945 137.8355,76.878 C 137.4193,77.4443 137.1616,78.1336 137.0486,78.9343 L 137.0487,78.9343 L 136.7341,86.1143 L 136.7286,86.1496 C 136.6354,87.114 136.8253,87.8854 137.2356,88.5055 C 137.6515,89.1338 138.305,89.6332 139.13,90.0386 C 140.1714,90.4149 141.0506,90.9977 141.6697,91.9082 C 142.2813,92.8073 142.6207,94.0038 142.5854,95.6083 L 142.5853,95.6083 L 142.5225,101.7096 L 142.522,101.7527 L 142.5144,101.8044 C 142.2922,103.3093 141.4871,104.3997 140.1916,105.1403 C 138.9884,105.8281 137.3656,106.1953 135.4025,106.3017 L 135.4026,106.3028 C 133.8761,106.4244 132.4123,106.4638 131.1998,106.1721 L 131.1998,106.1721 z M 92.8113,45.0108 C 91.5602,46.3539 90.9138,48.4988 91.1688,51.8542 C 91.5046,51.8762 91.8216,51.9135 92.1208,51.9662 C 93.4941,45.6623 99.0037,45.189 106.0403,46.5837 C 109.0277,47.1759 112.2837,48.1053 115.6079,49.0542 C 118.2289,49.8025 120.8931,50.563 123.4593,51.1694 C 124.8012,50.2386 126.0805,49.2983 126.8626,48.2827 C 127.5035,47.4503 127.8051,46.5405 127.4948,45.4909 C 121.7482,46.8399 116.4296,45.6112 111.1301,44.3868 C 106.9764,43.4272 102.8347,42.4703 98.567,42.8219 C 96.1724,43.0195 94.1268,43.5986 92.8113,45.0108 L 92.8113,45.0108 z M 112.268,67.1305 C 115.7008,71.3508 116.6053,74.8472 116.6062,78.8946 C 118.8225,81.0195 121.5885,82.7014 125.901,82.9484 C 123.7393,80.7783 122.0403,77.9546 121.0283,74.2911 C 119.9182,70.272 119.6378,65.2407 120.4879,58.9498 C 114.198,55.5573 108.8282,53.2063 104.5716,52.1142 C 104.8996,53.1557 104.6939,54.1293 104.1677,54.9406 C 103.549,55.8946 102.468,56.597 101.3117,56.8841 C 100.1324,57.1769 98.8559,57.0465 97.8738,56.3259 C 96.8816,55.598 96.214,54.2964 96.3006,52.2669 C 95.7934,52.578 95.3683,52.9775 95.0286,53.4685 C 95.1827,53.6427 95.3235,53.8308 95.4513,54.0323 C 96.2672,55.3195 96.5005,57.1182 96.3609,59.4156 C 100.4469,61.8435 102.3869,64.4648 102.8515,67.2185 C 103.3218,70.0061 102.2619,72.8574 100.3778,75.7424 C 99.8879,79.9774 98.7077,84.0118 96.5006,87.0464 C 95.1183,88.9472 93.3412,90.4535 91.0897,91.3735 C 91.4589,91.408 91.8267,91.4345 92.1978,91.4512 L 92.1905,91.4592 C 94.9875,91.6326 97.5177,91.4402 99.801,90.901 C 102.297,90.3114 104.4964,89.3059 106.4257,87.9101 C 106.3143,87.6309 106.2102,87.3488 106.1133,87.0634 C 105.2903,84.6392 104.9631,82.645 105.1036,79.8249 C 105.1535,78.821 104.9416,77.9345 105.9696,78.0275 C 106.9057,78.1123 106.5523,79.0969 106.5106,79.9782 C 106.386,82.6044 106.6643,84.3794 107.4246,86.619 C 108.2064,88.9225 109.5024,91.0101 111.3986,92.8452 C 113.4734,88.6022 115.0209,84.3593 115.1924,80.1185 C 115.3674,75.7928 114.6893,72.2012 111.0709,67.7999 C 110.6006,67.2278 110.1882,66.5579 110.705,66.1159 C 111.3227,65.5872 111.8408,66.6053 112.268,67.1305 L 112.268,67.1305 z M 91.0165,92.7557 C 87.3552,96.8351 84.6967,100.9438 83.2682,105.0874 C 81.9319,108.9637 81.6699,112.8814 82.6691,116.8476 C 87.0597,114.0699 90.6431,110.8221 93.1611,106.954 C 95.7656,102.9525 97.2377,98.2697 97.2923,92.7349 C 96.9376,92.7747 96.5781,92.8076 96.2137,92.8334 C 94.6325,94.0943 92.8186,95.8491 91.4949,97.8045 C 90.5177,99.2478 89.0134,100.8025 87.3455,104.6971 C 88.1869,100.5343 90.0989,98.1998 90.8153,97.1417 C 91.8965,95.5445 92.9535,94.102 94.1517,92.9044 C 93.1419,92.9043 92.0971,92.8553 91.0165,92.7557 L 91.0165,92.7557 z M 82.8921,118.3396 C 81.8233,124.241 82.0318,129.5433 83.3185,134.3385 C 84.5704,139.0041 86.846,143.1975 89.9603,147.004 C 91.6547,145.4977 93.1452,143.7382 94.3026,141.565 C 95.514,139.2903 96.3674,136.5437 96.7178,133.1352 C 94.3035,131.1614 92.3582,128.6078 90.9804,125.3523 C 89.8206,122.6114 89.0669,119.3783 88.7783,115.5812 C 87.9881,117.4986 87.4581,119.5847 87.2856,121.845 C 87.1568,123.5322 86.8648,125.3843 87.0579,130.7118 C 85.8249,125.1734 86.1431,123.2636 86.2504,121.8595 C 86.4325,119.475 86.7616,117.1774 87.5226,115.087 C 86.0919,116.2398 84.5443,117.3219 82.8921,118.3396 L 82.8921,118.3396 z M 90.5395,148.3356 C 90.7395,151.43 91.4081,154.4136 92.4746,157.3023 C 93.5168,160.126 94.9377,162.8617 96.6713,165.5243 C 98.6169,163.8141 100.2859,161.8731 101.6014,159.6384 C 102.9061,157.4218 103.8695,154.9104 104.4189,152.0422 C 102.3302,150.9729 100.6565,148.9582 99.398,145.9973 C 98.6034,144.1277 97.9714,141.8756 97.503,139.2424 C 96.8037,141.0985 96.2982,143.0724 96.17,145.1658 C 96.0682,146.8278 96,148.4728 96.3658,153.2486 C 94.8284,147.358 95.1137,146.0309 95.1933,144.7321 C 95.2426,143.9274 95.3071,143.1692 95.4005,142.4388 C 94.0961,144.8152 92.4265,146.717 90.5395,148.3356 L 90.5395,148.3356 z M 97.2401,166.8635 C 97.5918,169.9426 98.4362,172.852 99.8217,175.5737 C 101.1818,178.2457 103.0657,180.7386 105.5184,183.0358 C 109.7278,178.9453 112.3863,173.282 113.493,166.0467 C 111.0142,164.5273 108.9628,162.6357 107.4646,160.2636 C 106.8224,159.2467 106.2829,158.1438 105.8565,156.9473 L 105.5626,171.842 L 104.6574,156.3782 C 104.1431,157.789 103.5182,159.1058 102.7934,160.3372 C 101.3181,162.8434 99.4359,164.9919 97.2401,166.8635 z M 114.0738,164.7801 C 115.8569,162.5366 117.259,159.9062 118.2794,156.8893 C 119.3332,153.7737 119.9804,150.2392 120.2208,146.2866 C 118.0018,144.9874 116.2882,143.2591 115.0631,141.1128 C 115.0514,141.0924 115.0397,141.0718 115.0283,141.0513 C 115.1909,142.5612 115.2088,144.093 115.2114,145.4822 C 115.2139,146.8869 115.0084,148.9175 114.0691,152.4695 C 114.1013,149.4024 114.4277,146.9353 114.3522,145.541 C 114.3488,143.7214 113.9828,141.5971 113.4748,139.6676 C 113.0036,142.2827 112.2995,144.3741 111.4265,146.0864 C 110.0212,148.843 108.1933,150.6099 106.2013,151.9918 C 106.4799,154.9689 107.3248,157.4516 108.6351,159.5266 C 109.9843,161.6631 111.8344,163.3834 114.0738,164.7801 z M 120.7961,145.0206 C 123.7243,141.8107 125.8353,137.9957 127.0469,133.515 C 128.2909,128.9149 128.5911,123.6126 127.8612,117.5453 C 125.8613,116.4927 124.0707,115.2737 122.4631,113.9097 C 122.9191,116.3672 123.082,118.8771 123.3996,121.616 C 123.5607,123.0054 123.8119,125.6412 123.2947,130.668 C 122.8376,125.0907 122.6128,123.6094 122.4339,122.0668 C 122.2021,120.0674 121.8734,118.0611 121.5089,116.1496 C 121.1569,118.9226 120.5496,121.5845 119.666,124.0861 C 118.4258,127.5968 116.6418,130.7887 114.2566,133.5287 C 114.505,136.2054 115.1698,138.5096 116.266,140.43 C 117.3456,142.3216 118.8508,143.855 120.7961,145.0206 z M 112.7054,133.5176 C 110.5649,131.9568 108.821,129.7867 107.5339,126.9154 C 106.9593,125.6333 106.4756,124.2116 106.0891,122.643 L 105.1149,141.2685 L 104.9017,122.2501 C 104.5011,123.5676 104.021,124.7978 103.4735,125.9541 C 102.0831,128.891 100.2676,131.3349 98.2265,133.5168 L 98.1872,133.5589 C 98.5993,138.5634 99.4277,142.5294 100.6714,145.4555 C 101.8485,148.2246 103.3909,150.0488 105.2975,150.928 C 107.17,149.6469 108.8868,148.0158 110.191,145.4578 C 111.5708,142.7514 112.505,138.9969 112.7054,133.5176 z M 104.6533,116.4752 C 101.5458,113.1281 99.5503,109.465 98.4497,105.547 C 98.1488,104.476 97.915,103.3863 97.7439,102.2796 C 96.9916,104.7909 96.5425,107.3664 96.4762,109.9866 C 96.4322,111.732 96.2284,115.8371 96.7172,119.9582 C 94.976,114.5913 95.4611,111.4806 95.4996,109.954 C 95.5413,108.3038 95.6279,106.6681 95.8417,105.0508 C 95.3854,105.9662 94.8778,106.8514 94.3207,107.7072 C 93.1144,109.5604 91.6792,111.2743 90.0406,112.8645 C 90.1264,117.6756 90.8992,121.6151 92.2538,124.816 C 93.5465,127.8706 95.3742,130.2607 97.6422,132.1021 C 99.4233,130.131 101.0016,127.9406 102.2219,125.3634 C 103.4161,122.8408 104.2744,119.9322 104.6533,116.4752 z M 120.4546,112.037 C 119.1954,110.7478 118.065,109.3567 117.0459,107.877 C 116.2693,106.7492 115.5579,105.5703 114.9042,104.3469 C 115.0051,105.3292 115.0611,106.3697 115.1009,107.437 C 115.1602,109.0275 114.7983,115.1226 113.7459,119.382 C 113.6625,114.3835 114.0158,109.2963 113.9483,107.4858 C 113.8607,105.1392 113.3336,102.4225 112.6192,100.5881 C 112.5254,102.896 112.1645,105.0385 111.5847,107.0451 C 110.5296,110.6975 108.7552,113.8881 106.5566,116.8054 C 106.8927,120.6486 107.6553,123.8057 108.7965,126.3518 C 109.9649,128.9585 111.5318,130.9295 113.4458,132.3464 C 115.5964,129.803 117.2185,126.8576 118.3602,123.6255 C 119.6179,120.065 120.2942,116.1509 120.4546,112.037 L 120.4546,112.037 z M 129.3843,116.6522 C 129.9749,113.2307 130.0601,109.7261 129.4566,106.1099 C 128.8329,102.3717 127.4719,98.5064 125.1729,94.4802 C 123.6279,94.1963 121.981,93.4277 120.3562,92.383 C 120.983,93.3621 121.5692,94.3743 122.1175,95.4108 C 122.8383,96.7731 123.9502,98.4014 125.2452,104.088 C 123.5056,100.1346 121.9873,97.4003 121.2449,95.9969 C 119.9318,93.5148 117.9744,91.1292 116.1331,89.0679 C 115.7372,88.7041 115.3508,88.3342 114.9757,87.962 C 114.2555,90.0206 113.3372,92.0728 112.3105,94.1212 C 113.719,98.8901 115.5721,103.2988 118.1838,107.0915 C 120.3066,110.174 122.9366,112.8545 126.2449,114.9964 C 127.0622,115.5255 128.4471,116.5055 129.3843,116.6522 L 129.3843,116.6522 z M 107.0026,89.1955 C 106.6131,89.4689 106.2134,89.7273 105.8041,89.9713 L 105.1146,103.0909 L 104.4816,90.6908 C 102.778,91.5332 100.9577,92.1158 99.0928,92.4663 C 98.5194,96.9348 98.6651,101.1949 99.7827,105.1732 C 100.804,108.8087 102.6417,112.2164 105.49,115.3419 L 105.9337,115.3176 C 107.8169,112.7018 109.3326,109.8612 110.2573,106.6604 C 111.2927,103.0767 111.5914,98.9493 110.8475,94.2357 C 110.1242,93.7753 107.486,90.4913 107.0026,89.1955 L 107.0026,89.1955 z M 127.6849,92.9165 C 126.2476,92.0859 125.1943,90.9541 124.4391,89.589 C 123.5454,87.9732 123.0826,86.0459 122.9017,83.9163 C 121.4624,83.632 120.2201,83.1606 119.0332,82.4762 C 118.1954,81.9932 117.3852,81.4024 116.5514,80.6953 C 116.4253,82.6323 116.0366,84.5607 115.4578,86.483 C 117.1228,88.1911 118.9776,89.828 120.9736,91.132 C 123.0398,92.4819 125.1865,93.6127 127.6849,92.9165 L 127.6849,92.9165 z M 97.7384,51.6708 C 97.5022,53.5575 97.9551,54.6692 98.692,55.2098 C 99.3171,55.6683 100.1711,55.7413 100.9811,55.5402 C 101.8142,55.3333 102.5823,54.8439 103.0081,54.1873 C 103.4361,53.5275 103.4918,52.6644 102.844,51.7289 C 102.0778,51.5862 101.3576,51.4928 100.6851,51.4507 C 100.4218,51.8901 100.2739,52.3286 100.2384,52.7657 C 100.1984,53.2588 100.3015,53.7536 100.5431,54.2486 L 100.756,54.6846 L 100.2954,54.5306 C 99.7799,54.3584 99.3113,54.1161 99.0306,53.5951 C 98.7848,53.1386 98.6969,52.4775 98.8742,51.4728 C 98.4717,51.5131 98.093,51.579 97.7384,51.6708 L 97.7384,51.6708 z M 93.4556,52.351 C 93.6278,52.4242 93.7913,52.505 93.947,52.5934 C 95.7245,50.1066 99.0637,49.5023 103.7261,50.4933 C 108.3321,51.4724 114.3017,54.0256 121.3786,57.8577 C 123.1038,57.297 124.71,56.6121 126.063,55.6654 C 127.0573,54.9695 127.9154,54.1299 128.584,53.0886 C 128.0081,53.2075 127.4252,53.2669 126.835,53.2669 C 123.642,53.1898 118.5846,51.257 115.2285,50.3873 C 111.9301,49.4456 108.6995,48.5235 105.7749,47.9438 C 99.4769,46.6953 94.5705,47.0373 93.4556,52.351 L 93.4556,52.351 z "
   id="path16"
   style="fill:#ffffff" />
  <path
   class="fil3"
   d="M 104.04,195.873 C 104.2987,195.0511 104.4424,193.9011 105.5213,193.8952 C 105.8447,193.8935 106.1445,194.0161 106.4145,194.2609 L 106.4145,194.2636 C 107.7181,195.813 108.6125,202.0807 109.7698,204.5505 C 111.4178,209.4213 113.675,213.7603 116.0246,218.2968 C 110.9905,212.4321 109.8464,205.7652 106.607,199.7305 C 106.251,199.0671 105.1643,198.9481 104.6633,199.9156 C 101.3156,206.3797 99.4171,213.3595 93.7065,219.7413 C 98.2963,213.6016 101.0906,205.2404 104.04,195.873 L 104.04,195.873 z "
   id="path18"
   style="fill:#000000;fill-rule:nonzero" />
  <path
   class="fil4"
   d="M 65.8771,222.139 C 65.4881,223.0834 64.8436,223.8885 64.1358,224.6141 C 64.9602,224.7921 65.6025,224.7092 66.1901,224.3503 C 66.7645,223.9994 67.3319,223.3894 67.9795,222.5139 C 67.3495,222.6452 66.7687,222.5543 65.8771,222.139 z M 47.5309,225.3096 C 49.1553,227.2591 51.3478,227.1857 53.5593,226.3379 C 52.6591,225.7796 51.7109,225.0971 51.1158,224.2036 C 50.0419,224.9143 48.8229,225.3271 47.5309,225.3096 z M 33.294,214.6895 C 33.5297,216.5934 34.3501,217.9804 36.1841,218.7212 C 36.1286,217.8515 36.1907,216.9809 36.4033,216.1335 C 35.2243,215.968 34.1455,215.5268 33.294,214.6895 z M 31.0974,196.8323 C 29.6405,198.1581 29.3062,199.7296 29.9127,201.5938 C 30.5662,200.9252 31.3166,200.3714 32.1798,200.0033 C 31.4922,199.0671 31.0853,198 31.0974,196.8323 L 31.0974,196.8323 z M 145.3644,222.6312 C 144.4429,222.9964 143.7618,222.963 143.0634,222.7284 C 144.0712,224.0621 145.2456,225.3874 147.0891,225.1019 C 146.386,224.3773 145.748,223.5735 145.3644,222.6312 z M 163.7196,225.8238 C 162.4278,225.8412 161.2086,225.4285 160.1348,224.7178 C 159.5393,225.6115 158.5915,226.2938 157.6912,226.8521 C 159.9027,227.6998 162.0951,227.7733 163.7196,225.8238 z M 177.9652,215.3964 C 177.0971,216.1726 175.9923,216.5199 174.8496,216.6565 C 175.0614,217.5052 175.1222,218.3769 175.0656,219.2477 C 177.01,218.6047 177.8436,217.3636 177.9652,215.3964 L 177.9652,215.3964 z M 180.1538,197.5497 C 180.1595,198.6606 179.7441,199.643 179.0793,200.5212 C 179.9397,200.8897 180.6884,201.443 181.34,202.1102 C 182.0701,200.2777 181.6878,198.8252 180.1538,197.5497 L 180.1538,197.5497 z M 153.5249,197.1994 L 147.1578,188.5971 C 144.183,188.4955 141.3063,187.0983 138.7105,185.2022 C 136.6204,183.6756 134.7108,181.8223 133.0866,180.0754 C 133.1491,180.7734 133.2582,181.5539 133.367,182.3343 C 133.5693,183.7841 133.7714,185.2339 133.6977,186.311 L 151.0663,202.4985 L 151.0679,202.4967 C 151.0938,202.5199 151.156,202.5793 151.2517,202.6721 C 151.9873,203.3855 152.3808,204.1241 152.4319,204.8869 C 152.5811,207.1217 149.4217,208.9056 147.9041,210.0927 C 144.2307,212.9663 141.5733,215.0454 140.6565,218.0949 L 140.6484,218.1193 C 140.3898,218.8811 140.7826,219.575 141.4551,220.0594 C 142.5178,220.8251 144.2531,221.1104 145.4289,220.4385 C 146.2611,219.9627 146.8081,218.9494 146.6002,217.2039 L 146.5618,216.8813 L 146.7872,216.6458 L 154.2486,208.8446 C 154.7552,208.4102 155.5003,208.1311 156.1255,208.502 C 156.529,208.7412 156.7355,209.1606 156.889,209.6283 L 156.8897,209.6281 L 160.3717,218.7018 L 160.4453,218.8937 L 160.3987,219.1 C 159.9453,221.1061 160.6008,222.5039 161.6116,223.2572 C 162.6127,224.0034 164.3053,224.2726 165.2723,223.3124 C 165.8779,222.7109 166.1238,221.6247 165.6075,219.9991 L 159.3384,208.6588 L 158.7522,207.5986 L 159.2578,207.303 L 160.2026,207.6835 L 170.3723,211.7776 L 170.6141,211.875 L 170.7327,212.1082 C 171.6722,213.9586 173.2868,214.6075 174.7647,214.4946 C 176.2159,214.3838 178.1307,213.3699 178.0184,211.6695 C 177.9468,210.5877 177.0103,209.3176 174.683,208.0953 L 161.4488,205.0719 L 160.2107,204.789 L 160.0579,204.1416 L 161.4028,203.7336 L 171.7936,200.58 L 172.0814,200.4926 L 172.3408,200.6423 C 174.0198,201.6115 175.6018,201.3001 176.7038,200.4401 C 177.8547,199.542 178.7753,197.7193 177.9897,196.3062 C 177.4847,195.3981 176.2518,194.7315 174.022,194.7432 L 162.4796,200.0299 C 161.0829,200.8822 159.7494,201.2304 158.4793,201.0742 C 157.309,200.9302 156.2201,200.3644 155.2135,199.3768 C 154.5694,198.7448 154.0619,197.9249 153.5249,197.1994 L 153.5249,197.1994 z M 64.0921,188.0833 L 56.3925,198.4857 L 56.367,198.5202 L 56.3464,198.5425 C 55.2544,199.7286 54.0624,200.4011 52.7708,200.56 C 51.5007,200.7162 50.1672,200.368 48.7706,199.5158 L 37.2281,194.229 C 34.9983,194.2174 33.7655,194.8838 33.2605,195.7921 C 32.4748,197.205 33.3955,199.0279 34.5463,199.926 C 35.6484,200.7859 37.2303,201.0973 38.9093,200.128 L 39.1687,199.9784 L 39.4565,200.0657 L 49.8473,203.2194 L 50.8415,203.5211 L 50.9484,203.8442 L 51.0872,204.2639 L 49.8013,204.5578 L 36.5671,207.5811 C 34.2398,208.8035 33.3034,210.0736 33.2318,211.1553 C 33.1193,212.8556 35.0343,213.8696 36.4854,213.9805 C 37.9633,214.0933 39.5779,213.4445 40.5175,211.594 L 40.636,211.3607 L 40.8778,211.2634 L 51.0475,207.1693 L 52.0509,206.7652 L 52.4329,207.2021 L 51.9118,208.1447 L 45.6426,219.485 C 45.1264,221.1106 45.3722,222.1967 45.9779,222.7982 C 46.9448,223.7585 48.6374,223.4891 49.6385,222.743 C 50.6493,221.9897 51.3049,220.592 50.8515,218.5859 L 50.8048,218.3796 L 50.8784,218.1875 L 54.3604,209.114 L 54.3611,209.1142 C 54.5147,208.6465 54.7212,208.2271 55.1247,207.9878 C 55.5806,207.7173 56.1421,207.7287 56.8878,208.2329 L 56.9457,208.2719 L 57.0015,208.3304 L 64.463,216.1316 L 64.6884,216.3672 L 64.6499,216.6896 C 64.4421,218.4351 64.9891,219.4486 65.8212,219.9244 C 66.9962,220.5959 68.7318,220.3114 69.795,219.5452 C 70.8089,218.8149 70.7955,218.0427 70.4015,217.0199 C 69.3407,214.2684 66.7898,212.2725 63.3461,209.5785 C 62.2619,208.7305 61.0939,207.8165 59.9276,206.8513 L 59.9055,206.8329 L 59.8734,206.7999 C 59.7889,206.7126 59.7384,206.66 59.7268,206.6471 C 59.0688,205.9134 58.7659,205.1551 58.8182,204.3727 C 58.8693,203.6099 59.2629,202.8714 59.9985,202.1579 C 60.0942,202.0651 60.1563,202.0057 60.1822,201.9825 L 60.1838,201.9844 L 77.5477,185.8012 C 77.4494,184.7597 77.5152,183.4128 77.5814,182.0659 C 77.6191,181.2986 77.6571,180.5311 77.6641,179.8408 C 76.0671,181.5833 74.2514,183.394 72.2461,184.8716 C 69.7918,186.68 67.0576,187.9881 64.0921,188.0833 L 64.0921,188.0833 z M 94.6191,66.4213 C 95.2166,66.9046 95.8772,67.5694 96.0513,68.3445 C 92.8686,67.5726 88.6902,66.625 85.4836,66.7158 C 82.8339,66.7909 79.4672,66.7623 77.0568,66.1147 C 74.7941,65.5068 74.1046,64.5117 72.5856,62.9952 C 75.3299,64.2615 77.8276,64.7124 81.0445,64.611 C 81.6347,64.6038 82.4335,64.5966 83.0224,64.6039 C 88.6529,64.6749 92.6129,65.1134 94.6191,66.4213 z M 99.5399,74.4796 C 101.0423,72.048 101.8634,69.686 101.4858,67.4469 C 101.0757,65.0168 99.2347,62.656 95.2923,60.3976 L 94.9087,60.1778 L 94.9429,59.7419 C 95.1169,57.5241 94.9631,55.8526 94.2803,54.7756 C 93.6732,53.8178 92.5786,53.2937 90.8277,53.2258 C 88.4722,53.1368 85.6572,52.9798 83.3447,53.2363 C 80.0212,53.606 79.9016,56.2671 79.7823,58.928 C 79.7726,59.1455 79.7632,59.3632 79.7525,59.5764 C 80.7717,58.7191 81.9789,57.7216 83.3835,57.6436 C 84.1065,57.6035 84.9989,57.5582 85.8713,57.6022 C 86.7988,57.649 87.7022,57.7998 88.3758,58.1651 C 90.4337,59.2807 90.6597,60.8287 90.8854,62.3765 C 90.9298,62.6812 90.9748,62.9862 91.037,63.281 C 94.0235,64.034 96.7524,65.5451 97.7164,68.6468 C 98.1802,70.1397 97.8185,70.8316 96.3159,70.0356 C 94.8849,69.2782 93.1693,68.8176 91.2685,68.5511 C 89.2083,68.2623 86.9213,68.2015 84.5361,68.2392 C 84.4473,69.0973 85.1208,69.4681 85.8166,69.7773 C 87.4637,70.5092 88.5598,70.5627 89.698,70.618 C 91.8047,70.7202 94.044,70.8305 99.5399,74.4796 L 99.5399,74.4796 z "
   id="path20"
   style="fill:#e6b012" />
 </g>
</svg>