<?xml version="1.0" encoding="UTF-8" standalone="no"?>
<!-- Creator: CorelDRAW -->
<svg
   xmlns:dc="http://purl.org/dc/elements/1.1/"
   xmlns:cc="http://web.resource.org/cc/"
   xmlns:rdf="http://www.w3.org/1999/02/22-rdf-syntax-ns#"
   xmlns:svg="http://www.w3.org/2000/svg"
   xmlns="http://www.w3.org/2000/svg"
   xmlns:sodipodi="http://sodipodi.sourceforge.net/DTD/sodipodi-0.dtd"
   xmlns:inkscape="http://www.inkscape.org/namespaces/inkscape"
   xml:space="preserve"
   width="744"
   height="821.40277"
   style="shape-rendering:geometricPrecision; text-rendering:geometricPrecision; image-rendering:optimizeQuality; fill-rule:evenodd; clip-rule:evenodd"
   viewBox="0 0 210 297"
   id="svg2"
   sodipodi:version="0.32"
   inkscape:version="0.45.1"
   sodipodi:docname="POL województwo małopolskie COA.svg"
   inkscape:output_extension="org.inkscape.output.svg.inkscape"
   sodipodi:docbase="C:\Users\Mistrz\Desktop"
   version="1.0"><metadata
   id="metadata18"><rdf:RDF><cc:Work
       rdf:about=""><dc:format>image/svg+xml</dc:format><dc:type
         rdf:resource="http://purl.org/dc/dcmitype/StillImage" /></cc:Work></rdf:RDF></metadata><sodipodi:namedview
   inkscape:window-height="480"
   inkscape:window-width="640"
   inkscape:pageshadow="2"
   inkscape:pageopacity="0.0"
   guidetolerance="10.0"
   gridtolerance="10.0"
   objecttolerance="10.0"
   borderopacity="1.0"
   bordercolor="#666666"
   pagecolor="#ffffff"
   id="base" />
 <defs
   id="defs4">
  <style
   type="text/css"
   id="style6">
   
    .fil0 {fill:#0A0B0C}
    .fil2 {fill:white}
    .fil1 {fill:#DC2B19}
    .fil3 {fill:#E7AE03}
   
  </style>
 </defs>
 <g
   id="Warstwa_x0020_1"
   transform="matrix(1.2810117,0,0,1.2810117,-29.506486,-41.729341)">
  <metadata
   id="CorelCorpID_0Corel-Layer" />
  <g
   id="_68800864">
   <path
   id="_68821536"
   class="fil0"
   d="M 210,32.5763 L 210,156.8203 C 210,220.5749 160.2501,264.4233 104.701,264.4233 C 48.5696,264.4233 0,220.5749 0,157.1413 L 0.1044,32.5753 L 210.0004,32.5753 L 210,32.5763 z "
   style="fill:#0a0b0c" />
   <path
   id="_68821464"
   class="fil1"
   d="M 208.044,34.5073 L 208.044,156.6823 C 208.044,219.3749 159.2208,262.4933 104.706,262.4933 C 49.6201,262.4933 1.956,219.3753 1.956,156.9983 L 2.0585,34.5073 L 208.0445,34.5073 L 208.044,34.5073 z "
   style="fill:#e2042c;fill-opacity:1" />
   <path
   id="_68801080"
   class="fil0"
   d="M 121.65,65.2865 C 124.5804,57.9254 127.2108,50.2004 129.4306,42.663 C 127.1127,42.0233 122.7494,43.5969 122.3784,46.169 C 118.5265,43.3114 116.1353,50.6689 119.1846,53.4814 C 120.4294,51.9979 120.9282,53.49 120.4357,54.6536 C 119.8175,56.1071 117.0175,57.0195 115.6407,56.9723 C 114.2973,56.9272 111.1914,56.0406 110.7094,54.3573 C 110.4055,53.2968 110.9713,51.9184 113.4527,53.4191 C 114.6012,52.803 115.4814,51.5835 115.7853,50.0528 C 116.3239,47.3412 114.7877,43.9619 111.2396,45.5549 C 111.0971,44.2303 108.8526,42.0233 107.4442,40.3336 C 106.5137,41.654 103.7327,44.5888 103.8752,45.4497 C 97.7095,43.0173 97.5691,51.9829 102.0184,53.5093 C 103.4372,51.6909 104.2587,53.1186 103.8961,54.4454 C 103.412,56.2166 101.2995,56.6331 99.1137,56.7641 C 96.9446,56.895 95.1443,56.1822 94.3899,54.2414 C 93.912,53.0112 94.5407,51.109 96.0664,53.0349 C 98.8643,48.565 95.0417,42.9937 92.0112,45.7868 C 91.7576,43.5712 90.1187,42.1392 85.1036,42.1134 C 86.5087,46.0232 91.4549,61.075 92.5268,63.9066 C 88.9556,63.9827 82.4022,66.0526 82.4022,72.2734 C 82.2094,77.1813 85.768,79.9058 86.6713,79.7254 C 86.6713,79.7254 89.3496,74.3689 94.8782,74.3689 C 100.0106,74.6222 104.7575,78.2591 103.4728,82.8471 C 103.4682,82.8439 103.4632,82.8406 103.4586,82.8375 C 102.2526,78.5268 99.8696,77.4836 96.8922,77.4626 C 94.0315,77.4626 92.7279,78.6756 91.1079,79.9466 C 87.0317,82.905 83.6366,81.1489 79.9293,77.2221 C 76.6641,80.8547 81.4131,85.374 86.7341,85.5415 C 88.8411,85.5415 90.3147,84.8638 91.6839,83.9622 C 92.4992,83.9736 93.4104,83.8724 94.5149,83.9151 C 96.4123,85.6985 97.8039,88.0316 97.282,90.7842 C 96.3808,95.5375 92.248,99.9881 91.0598,101.4652 C 92.0133,102.2467 92.663,102.4893 93.6165,102.588 C 91.043,107.8609 84.7327,110.3384 84.7327,110.3384 C 85.5362,111.8603 86.5463,112.9023 87.6844,113.5069 C 87.1238,114.7535 86.6253,116.0257 86.1957,117.3177 C 82.5175,117.0408 69.2388,114.3764 69.4674,89.0667 C 69.4674,79.5386 69.7482,73.6153 68.9979,68.8341 C 67.4429,58.911 63.1361,56.6481 54.5205,56.6481 C 41.747,56.6481 19.5615,58.6362 16.4179,58.9281 C 13.2722,59.2202 9.2757,58.7843 11.4699,64.4479 C 13.4168,70.1158 15.3407,78.1346 28.919,78.1324 C 38.3561,78.1324 45.775,76.5995 45.775,76.5995 C 45.5801,76.6017 41.4159,78.3342 30.8534,80.8719 C 20.0771,83.6028 16.5269,84.7342 14.2069,85.2473 C 12.2076,85.7583 9.2715,86.806 10.8035,90.8551 C 12.0735,94.2193 14.2111,98.6892 16.8329,100.9779 C 18.9181,102.8006 21.8438,103.9728 26.358,103.9728 C 31.8951,103.9042 38.0724,101.5682 41.2482,100.1998 C 41.1777,100.3582 41.1079,100.5188 41.0385,100.6814 C 30.0194,106.5594 20.4344,111.1775 10.0846,116.659 C 6.4087,118.2756 6.3374,119.7227 9.8771,124.8817 C 13.5007,129.9592 17.7781,131.7197 22.7345,131.7197 C 27.9026,131.5136 33.6219,130.3392 41.3719,125.2252 C 46.7394,121.6464 49.2038,119.6916 50.2339,118.8042 C 50.5091,118.8254 50.7803,118.836 51.0473,118.8368 C 47.0191,122.4471 31.4918,136.3878 26.6137,141.1318 C 20.9887,146.6 17.2856,149.8333 12.9013,153.7386 C 9.4748,156.7893 7.7018,158.6185 10.3172,161.3666 C 17.1032,168.518 26.7771,169.3768 34.9149,164.0438 C 41.9168,159.4902 49.6123,153.35 55.0906,146.8598 C 58.1644,143.2168 60.6465,140.1536 62.0568,138.3927 C 62.1025,138.6952 62.1553,139.0045 62.213,139.3185 C 58.6295,145.0151 47.3696,162.8813 45.6116,165.2568 C 44.3017,167.0259 44.0796,167.6377 45.6283,168.3806 C 51.4859,171.1973 59.4853,170.5919 65.2612,167.0946 C 72.3616,162.7986 77.2907,152.9742 79.9712,145.2947 C 82.2913,143.5505 84.61,141.5644 86.2673,139.6246 C 86.7042,140.9895 87.2064,142.3379 87.7642,143.6688 C 79.6484,145.9697 81.2549,154.872 79.7658,158.5606 C 78.2066,162.4229 73.1097,164.0266 73.1097,164.0266 C 73.533,165.8906 74.4848,167.2205 76.1144,167.8849 C 71.9479,170.5796 57.7906,178.5664 53.8185,179.6541 C 51.4168,180.7383 45.8505,180.895 43.411,179.8731 C 40.2653,178.8189 35.923,176.3006 31.6959,176.262 C 26.8338,176.3113 25.5805,180.4098 27.1774,184.182 C 31.5596,182.3807 33.9152,183.2459 36.8807,184.0403 C 21.4414,187.7008 20.7917,188.5746 20.6576,193.1969 C 20.5235,196.8853 22.2902,199.7107 24.7422,200.8636 C 25.1383,198.474 25.8781,196.2541 27.934,194.7363 C 30.9582,192.4992 35.4305,190.4209 38.6181,189.457 C 41.5731,188.5617 41.4662,190.7237 39.383,191.5094 C 35.5897,192.9414 30.1681,195.799 27.9592,198.6651 C 26.2742,200.855 26.7206,202.8946 28.2023,204.7645 C 30.2561,207.358 32.9114,209.4341 34.282,209.2817 C 33.6826,206.92 33.6847,203.8585 35.6107,202.0938 C 39.8671,198.2035 45.7729,195.258 49.0444,193.6649 C 51.2428,192.5936 53.6634,191.9861 56.4486,191.9861 C 65.5127,191.9882 62.4089,195.9171 61.8095,199.1203 C 63.9786,199.2276 66.8037,196.428 68.0422,193.5919 C 69.4694,190.3286 68.5201,187.6342 65.4729,186.4126 C 62.2727,185.1288 56.4905,185.2146 56.4214,185.1438 C 66.9105,179.5691 77.143,174.9891 85.247,171.8831 C 86.5804,176.6579 89.9709,178.4594 91.4391,179.0508 C 90.9368,171.5365 96.3942,164.5123 98.8965,161.7116 C 99.0639,161.9223 99.2318,162.1323 99.4001,162.3413 C 99.3673,165.1618 99.2956,171.3763 99.2499,175.7166 C 99.1075,178.4902 98.9792,182.813 97.6932,185.3122 C 95.7922,188.5377 92.3142,190.6753 88.4338,190.2062 C 82.1843,189.4484 80.887,182.7714 82.5741,178.3123 C 82.4714,178.1169 74.713,179.3213 74.8282,188.7141 C 74.4929,199.8824 87.0527,204.5627 96.0518,198.0833 C 90.7118,209.5393 76.6327,212.0941 66.7764,206.978 C 63.5217,205.3099 57.2848,201.5978 51.9973,201.5978 C 46.3262,201.3166 37.872,206.1429 38.3456,216.081 C 38.8444,226.0234 47.6507,231.7213 56.6687,229.9544 C 51.8757,226.3003 49.6522,223.3763 48.8474,221.3324 C 46.7244,215.9286 52.0119,213.9062 56.0504,215.7074 C 58.9237,216.9892 61.6314,218.6509 64.5759,219.7458 C 68.7611,221.3023 73.8013,222.7214 78.2862,222.5905 C 86.0488,222.3629 93.7444,218.6144 98.5122,212.223 C 97.3197,227.7173 90.8397,237.3506 75.6624,226.7383 C 71.7077,235.8735 79.4158,243.2353 87.9098,242.8403 C 91.1939,242.6793 94.5072,241.6337 96.9299,238.8921 C 95.9575,242.0309 94.6518,244.7167 96.823,248.5017 C 98.8789,252.0871 103.1626,254.4251 104.4054,256.1298 C 106.8448,253.8068 110.5564,251.3078 112.1492,248.4352 C 114.159,244.8111 112.9665,241.6401 112.1072,238.9629 C 114.7877,243.5788 122.7997,243.5895 127.1714,241.9944 C 132.1823,240.1652 137.1052,232.9 133.3266,227.23 C 118.8723,237.4429 111.0426,227.8118 110.5836,212.4377 C 117.4388,219.6148 122.6174,223.1293 132.5994,222.8717 C 139.4901,222.6957 146.2237,219.6277 151.1655,217.1308 C 153.957,215.7203 157.0964,215.0891 158.9826,216.4546 C 160.6466,217.659 160.9023,220.2353 160.0787,222.0258 C 159.0078,224.351 156.4551,227.5499 152.2658,230.5599 C 161.1056,232.6338 170.3394,226.4442 170.5804,216.4717 C 170.7502,206.9759 162.3945,202.2913 156.9833,202.229 C 151.6936,202.229 145.046,206.0012 141.7913,207.6693 C 131.5368,212.0791 118.2205,209.535 113.1153,198.1864 C 120.8234,203.9723 134.0265,201.5313 134.2738,189.764 C 134.364,184.5255 132.0964,179.214 126.572,178.4948 C 128.3806,184.1347 126.5699,189.925 120.2932,190.4746 C 115.9515,190.856 112.5249,187.6231 110.6464,183.7359 C 110.5019,181.7362 109.9591,179.6602 109.8753,175.5019 C 109.8308,171.2794 109.8513,165.4326 109.8656,162.5934 C 110.024,162.4005 110.1821,162.206 110.3398,162.0102 C 113.0683,165.0832 118.0695,171.9882 117.4116,179.3299 C 119.5547,178.4041 122.4977,176.6616 123.6166,172.5569 C 131.2921,175.2828 141.7272,180.3537 152.1481,186.0777 C 152.0783,186.148 146.2684,185.9448 143.0859,187.2675 C 139.9539,188.567 138.7348,191.8499 140.4526,194.583 C 142.0897,197.193 145.0261,200.2953 147.1961,200.2069 C 146.8899,196.8678 143.1574,192.7645 152.0612,192.9195 C 154.8463,192.9438 157.2615,193.5746 159.4505,194.6629 C 162.7058,196.2844 168.5923,199.4811 172.8084,203.4083 C 174.6794,205.1487 174.9841,208.1786 174.4348,210.6064 C 176.6393,210.8704 180.1653,207.4166 181.0488,205.3653 C 181.8701,203.4767 181.8941,200.9606 180.5702,199.2078 C 178.3906,196.3247 172.9109,194.0547 169.1303,192.5918 C 167.0562,191.7879 166.966,189.6272 169.9131,190.5461 C 173.0901,191.5378 177.5472,193.7774 180.5496,196.0386 C 182.5902,197.5722 183.4324,199.7609 183.8077,202.1538 C 186.4905,201.1724 188.0464,198.2038 187.8402,194.4426 C 187.7895,191.8486 187.2425,190.4118 184.2926,189.0978 C 181.6662,187.9284 177.2925,186.222 171.6977,185.1448 C 176.3623,183.5387 178.1153,183.6721 181.3976,186.0496 C 183.2358,182.186 182.0285,177.3962 176.9502,177.412 C 172.7229,177.4137 167.5589,180.2929 164.4041,181.3196 C 161.9558,182.3202 157.4296,181.7547 155.0374,180.6495 C 151.1458,179.5137 136.4903,171.1538 132.4771,168.5352 C 135.0286,167.67 136.1296,165.8716 136.2229,164.7716 C 136.4534,165.0529 131.0737,163.4963 129.1288,159.166 C 127.713,155.1459 129.2497,146.4983 121.2743,144.0223 C 121.8647,142.6212 122.3947,141.2136 122.854,139.8082 C 124.4602,141.7996 126.6255,143.7809 128.9278,145.4644 C 131.5891,153.1303 136.7006,163.4647 143.7513,167.7531 C 149.3473,171.2442 157.1122,171.8485 163.2475,169.0368 C 164.7856,168.2953 164.565,167.6845 163.2644,165.9185 C 161.5187,163.5473 150.3529,145.4044 146.7948,139.7178 C 146.852,139.4045 146.9486,139.0957 146.994,138.7937 C 148.3944,140.5515 150.8003,143.9177 153.8525,147.5542 C 159.2923,154.0328 167.0862,160.4415 174.0391,164.9871 C 182.3859,170.3637 192.2466,169.3795 198.7199,162.1876 C 201.3173,159.4444 199.1759,157.5677 195.7734,154.5224 C 191.4198,150.624 187.5496,147.2949 181.9641,141.8364 C 177.1202,137.1009 162.1489,123.1848 158.1489,119.581 C 158.4141,119.5802 158.6834,119.5928 158.9566,119.5717 C 159.9796,120.4575 162.1472,122.3855 167.4772,125.958 C 175.173,131.063 181.2436,132.5146 186.3757,132.7203 C 191.2977,132.7203 195.4685,130.9978 199.0672,125.9294 C 202.2859,120.6805 201.9359,118.9335 198.5475,117.407 C 188.2701,111.9352 178.9094,107.4238 167.9673,101.5562 C 167.8984,101.3939 167.8291,101.2139 167.7591,101.0558 C 171.6917,102.1248 177.134,104.7931 182.4269,104.9374 C 186.9097,104.9374 190.0091,103.5732 192.08,101.7537 C 194.6837,99.4692 196.6903,95.046 197.9517,91.6877 C 199.4734,87.6458 196.6907,86.8355 194.7053,86.3255 C 192.426,85.8867 188.7549,84.7944 177.9255,81.6835 C 168.8265,79.2375 164.4429,77.5919 163.1951,77.3751 C 163.3365,77.3121 170.6011,79.0881 179.8307,79.1777 C 193.3145,79.1798 195.4459,70.9805 197.3796,65.3227 C 199.559,59.6692 195.7605,60.1383 192.6366,59.8468 C 189.6051,59.6457 167.728,57.47 154.952,57.3786 C 146.3963,57.3786 141.716,59.7305 140.1711,69.636 C 139.4258,74.4087 139.6732,80.3526 139.6726,89.8637 C 139.9024,115.6444 126.1492,117.4791 122.8249,117.5749 C 122.3867,116.5938 121.8702,115.6438 121.2679,114.7347 C 123.0044,114.201 124.6857,113.024 126.1654,111.0555 C 120.7815,109.7738 118.8136,105.3833 118.0969,102.0363 C 119.4821,102.1222 120.6055,101.9375 121.536,101.5554 C 117.2879,94.6294 118.3253,89.348 120.1947,84.9253 C 122.4811,80.8247 123.4095,79.0191 123.4095,72.4774 C 123.4095,69.1161 122.5176,66.7719 121.65,65.2865 L 121.65,65.2865 z "
   style="fill:#0a0b0c" />
   <path
   id="_68801008"
   class="fil2"
   d="M 108.61,164.086 C 108.5466,167.0571 108.4697,171.9216 108.5076,175.5234 C 108.5704,181.2986 109.6225,182.853 109.5617,186.4062 C 109.3836,196.6234 104.3077,199.5948 104.3077,199.5948 C 104.3308,199.5003 99.2214,197.2052 98.9803,187.2714 C 99.0118,183.7676 100.5605,181.202 100.5354,175.3817 C 100.5741,171.7041 100.5857,166.731 100.5889,163.7949 C 101.9081,165.3863 103.2425,166.9244 104.5655,168.4042 C 105.9069,167.0928 107.2651,165.644 108.61,164.086 z M 74.8039,164.8983 C 74.9045,164.6406 79.5382,162.8351 80.9905,159.2454 C 81.5249,157.9186 81.9755,155.9263 82.1725,153.921 C 82.4156,151.4521 82.7782,148.8586 84.8592,147.0015 C 85.701,146.2506 86.85,145.5409 88.3683,145.0547 C 90.8685,150.5868 94.3015,155.7974 98.0128,160.5853 C 95.0114,164.0565 90.5216,170.3374 90.3019,177.1551 C 85.8359,173.5182 86.1334,169.3166 86.5442,165.815 C 84.2641,165.888 76.3883,168.913 74.8039,164.8983 z M 127.2414,155.2586 C 126.8455,151.6552 126.4473,147.4341 120.5238,145.7339 C 118.0246,151.1962 114.6633,156.4991 111.0619,161.1017 C 113.4969,163.8278 118.9417,170.2308 118.5755,177.4793 C 122.725,175.356 123.1316,170.6284 122.725,166.4484 C 125.7848,167.3136 132.4178,169.2501 134.436,165.7849 C 129.203,162.9059 127.8219,160.5314 127.2414,155.2586 L 127.2414,155.2586 z M 85.7949,118.5996 C 82.4641,118.1082 67.6413,115.4226 68.3197,89.129 C 68.3197,81.9389 69.0134,73.407 67.4856,66.9662 C 66.0919,61.0923 62.4495,57.6035 54.4522,58.02 C 41.6787,58.02 20.6144,59.5658 17.4708,59.8578 C 14.3251,60.1497 10.8587,59.2266 13.053,64.8902 C 15.002,70.5516 17.0579,76.9623 31.0135,76.9602 C 37.8729,76.9602 43.5279,75.9282 46.1058,75.3644 C 46.315,72.588 49.1002,69.8425 52.2307,70.5022 C 51.9131,69.1787 51.7223,67.8915 51.9177,66.8376 C 43.5205,68.4187 33.5876,68.9887 29.1315,68.7675 C 27.6267,68.6924 23.3116,68.8233 22.1673,66.9255 L 22.8505,66.8761 C 24.2002,67.8851 28.9554,67.986 36.936,67.5266 C 42.6076,67.2018 47.9341,66.2414 52.5819,65.3637 C 53.3546,64.3903 54.7576,63.7257 56.9566,63.6728 C 58.9811,63.6235 60.161,64.6948 60.796,65.8649 C 61.6385,67.4171 61.5337,69.3858 61.2088,70.3326 C 64.5117,69.8109 66.8652,71.7002 66.6955,75.0001 C 66.5677,77.4797 65.4674,79.2037 62.3259,79.3454 C 61.695,79.3733 60.9951,79.2939 60.2469,79.1093 C 60.2469,79.1093 60.2469,84.717 60.6283,90.1852 C 61.0446,95.2535 59.7799,122.6381 84.4887,125.387 C 84.6958,123.0906 85.1424,120.819 85.7949,118.5996 L 85.7949,118.5996 z M 123.3972,118.9902 C 126.6926,118.5276 141.4731,115.9979 140.8005,89.7263 C 140.9934,82.4528 140.4199,73.9763 141.7987,67.6163 C 143.1831,61.7528 146.5522,58.3865 154.4939,58.8023 C 167.1786,58.8023 188.9598,60.7962 192.0815,61.0876 C 195.2053,61.3791 198.2667,60.3814 196.0873,66.0349 C 194.3236,71.8928 191.8696,78.1077 177.8446,77.9057 C 171.2152,77.784 166.0275,76.6974 163.3686,76.2004 C 162.8822,73.3892 160.076,70.5723 157.0251,71.2391 C 157.3406,69.9179 157.763,68.7261 157.569,67.6741 C 165.9077,69.2524 175.406,69.9718 179.8312,69.7509 C 181.284,69.7174 185.8293,70.039 186.9833,68.127 L 186.4122,67.8843 C 185.0719,68.8916 180.1993,69.0138 172.2743,68.5552 C 166.6422,68.2309 161.6647,67.1023 157.0493,66.2261 C 156.0079,64.9072 153.6643,64.1093 152.0533,64.1952 C 150.1563,64.297 149.0375,65.5238 148.4265,66.61 C 147.5898,68.1594 147.9732,69.985 148.2957,70.9301 C 145.1122,70.4111 142.5556,72.2136 142.5987,75.1643 C 142.6555,79.0488 145.435,80.633 149.1107,79.6445 C 149.1107,79.6445 148.9054,85.4938 148.5262,90.9523 C 148.009,96.221 149.3665,123.7547 124.7831,125.7171 C 124.6151,123.4151 124.177,121.1419 123.3972,118.9902 L 123.3972,118.9902 z M 104.5927,166.2637 C 94.3194,154.7347 85.3119,140.5586 85.9637,126.0389 C 86.146,121.9791 86.9424,117.9922 89.1346,114.0526 C 93.6153,114.6237 96.1427,112.8031 98.7058,111.0147 C 98.7435,115.695 100.8623,119.4758 104.5508,122.5738 C 108.671,118.6363 110.0458,114.701 109.5429,110.7592 C 112.0808,113.8487 115.4717,115.4417 120.0006,115.051 C 122.002,117.7067 123.3894,122.9688 123.3894,126.3416 C 124.2487,141.3851 113.9062,155.8125 104.5927,166.2637 z M 98.3448,68.4524 C 98.6345,68.9282 98.9432,69.2863 99.4889,69.6925 C 99.3832,69.0435 99.6791,68.6039 99.837,68.4108 C 99.3396,68.3897 98.8421,68.4036 98.3448,68.4524 z M 102.88,71.7379 C 101.8982,71.6488 101.0977,70.9509 101.0361,70.1005 C 100.9183,68.5008 101.6167,68.0145 103.267,68.1474 C 104.3314,68.232 105.19,68.7999 105.19,69.7304 C 105.0792,70.892 104.3666,71.8678 102.88,71.7379 L 102.88,71.7379 z M 86.2841,111.0001 C 87.986,110.1239 92.6707,107.6105 95.2657,101.9027 C 94.3121,101.804 93.6129,102.043 92.6593,101.2615 C 94.1739,99.1979 98.5891,94.4371 98.4702,89.3352 C 98.4702,86.6 96.376,84.2031 96.376,84.2031 C 99.9135,84.5416 102.448,87.296 103.9124,87.7648 C 104.7353,88.0283 105.8588,87.9754 106.4268,87.017 C 108.906,82.8334 108.9979,76.5897 104.2176,73.2782 C 106.1939,72.8725 106.7283,71.8247 106.6947,69.0123 C 108.1324,69.0896 109.2117,69.8474 110.0479,71.0712 L 110.7814,70.6504 C 110.8674,68.3188 108.2121,67.3634 105.3011,66.9963 C 103.0105,66.7086 101.074,66.5927 99.1878,66.8782 C 97.5783,67.1208 95.8262,66.9813 95.1954,65.9357 C 94.9152,65.4716 94.8232,64.9316 94.806,64.3799 C 104.8363,64.4524 115.3581,64.6399 119.5712,65.2016 C 120.8127,66.9272 121.9454,69.3117 121.9454,72.2692 C 122.1357,77.1796 121.9733,79.7956 119.2881,84.5066 C 116.9794,88.5892 116.2766,96.0012 119.8956,100.6832 C 119.4926,100.8276 118.2768,101.0088 116.8296,100.8147 C 117.2757,104.1867 118.8634,110.281 124.3422,111.4879 C 117.7989,116.8931 110.835,112.4426 108.5761,106.146 L 107.5636,106.4242 C 108.9537,112.7867 109.2987,115.1936 104.5525,120.8969 C 98.8034,114.9484 99.5547,111.806 101.3285,105.8946 L 100.3461,105.5998 C 96.2253,116.7605 86.4191,112.3575 86.2841,111.0001 L 86.2841,111.0001 z M 156.1713,81.1897 C 158.8994,81.2873 163.9213,82.1948 166.5481,88.1078 C 161.6471,93.3673 157.8568,92.6227 155.9057,92.0353 C 155.9656,90.4396 156.1747,88.8931 156.1712,87.3229 C 162.8073,88.3237 162.9515,87.9413 163.3046,87.6786 C 163.0784,87.0574 158.7056,86.6203 156.2992,86.0195 C 156.2788,84.38 156.2499,82.7477 156.1713,81.1897 L 156.1713,81.1897 z M 154.3421,104.3813 C 156.4045,105.0595 161.7662,106.032 166.7782,101.4601 C 165.4486,97.7579 161.7632,93.707 155.8165,93.0913 C 155.7329,94.8785 155.4914,96.3904 155.3149,98.1506 C 156.9665,98.6162 159.3597,99.4482 160.9615,99.7684 C 161.986,99.9356 162.5233,100.2233 162.6035,100.4586 C 162.3735,101.217 157.973,100.1144 155.1649,99.4525 C 154.9761,101.1089 154.6272,102.805 154.3421,104.3813 L 154.3421,104.3813 z M 150.9885,115.8231 C 153.2972,117.3425 158.311,119.6039 163.8976,116.4852 C 163.1999,108.9312 158.205,107.3133 154.2606,106.1629 C 153.9463,107.6755 153.7045,108.8153 153.298,110.1912 C 154.8818,111.1019 156.3716,112.2408 158.3025,113.081 C 159.4013,113.561 160.1771,114.0279 160.4642,114.6066 C 158.3941,114.6085 155.7764,112.8816 152.7963,111.3825 C 152.2869,112.9512 151.64,114.4297 150.9885,115.8231 L 150.9885,115.8231 z M 144.2613,125.1873 C 145.2578,126.7726 148.0724,130.1207 155.3265,130.2727 C 156.2143,123.3368 154.3618,119.0706 150.3967,117.1664 C 149.7311,118.4525 149.019,119.6855 148.208,120.8235 C 149.1077,122.0499 150.3359,123.9728 151.8508,125.7216 C 152.5937,126.5789 152.9762,127.2429 152.8493,127.528 C 152.5327,127.4861 151.3412,126.9327 147.2558,121.9086 C 146.3003,123.1078 145.4134,124.1521 144.2613,125.1873 z M 134.4339,131.1094 C 134.9436,133.6086 137.0147,139.0025 145.2511,139.3044 C 146.8588,134.6361 145.3199,128.5648 143.4505,125.8491 C 142.2577,126.8699 141.0737,127.6958 139.7642,128.5245 C 140.62,130.214 141.8515,132.8709 142.8017,134.8266 C 143.2449,135.7374 143.4914,136.2944 143.3748,136.6888 C 142.8328,136.7439 140.8254,133.7363 138.5047,129.2186 C 137.212,129.958 135.8225,130.5763 134.4339,131.1094 L 134.4339,131.1094 z M 123.2143,138.6593 C 124.3676,140.2928 126.3433,142.5437 129.6182,144.5419 C 133.9796,138.8534 134.7893,134.9428 132.799,131.4985 C 131.3635,131.9534 129.9952,132.3866 128.4754,132.6015 C 128.6108,134.5005 128.8745,137.2769 129.1065,139.0547 C 129.1398,139.3291 129.2876,140.5407 128.9068,140.6972 C 128.223,140.3774 127.7599,136.4116 127.3764,132.7862 C 126.3019,132.8192 125.332,132.7661 124.5317,132.7169 C 124.2617,134.6705 123.8125,136.66 123.2143,138.6593 L 123.2143,138.6593 z M 162.4659,78.8029 C 166.0015,79.9979 172.3285,81.9326 177.2756,83.211 C 181.7417,84.259 185.0972,85.4537 187.6903,86.0238 C 191.222,86.7996 193.1489,87.398 194.3435,87.8673 C 197.0593,88.9346 197.3737,89.6137 196.7118,91.4482 C 195.1923,95.6595 193.4766,99.3223 190.6939,101.4333 C 188.8604,102.8242 186.3494,103.5478 182.5825,103.5478 C 180.1372,103.4685 177.4941,102.701 175.0467,101.9402 C 171.7918,100.9284 168.9991,99.8134 167.0944,99.2718 C 165.7149,96.7311 163.8954,94.7759 160.9878,93.5451 C 162.4823,92.9404 164.6378,91.9452 167.0348,89.9225 C 170.0394,90.9213 173.6105,92.0947 177.4656,93.0848 C 182.1717,94.457 186.6836,95.1307 188.8366,93.6763 L 187.721,93.5429 C 183.8321,94.3184 176.6863,92.1912 167.9479,88.5189 C 166.4678,84.1256 163.3233,81.6234 160.3226,80.6024 C 161.169,80.2846 161.8486,79.816 162.4659,78.8029 L 162.4659,78.8029 z M 167.2694,102.7748 C 169.9962,104.2337 176.8128,107.8144 181.7697,110.3676 C 187.2805,113.205 193.1124,116.1664 198.542,119.1089 C 199.8343,119.8097 200.4008,120.0325 199.9616,121.2305 C 198.2296,126.8534 193.5279,131.3054 186.9088,131.5557 C 181.1439,131.5557 173.2364,128.5084 168.5416,125.3623 C 164.0373,122.3432 161.829,120.4061 160.5456,119.3022 C 162.039,118.961 163.6007,118.3286 165.239,117.1707 C 165.373,113.9087 164.1461,111.4162 162.372,109.5968 C 171.5397,114.8599 181.0206,122.8134 191.4117,123.4982 L 190.1223,122.6707 C 180.0566,119.6698 170.6563,112.9005 159.8231,106.1889 C 162.3014,105.8278 164.9899,105.0423 167.2694,102.7748 L 167.2694,102.7748 z M 156.4178,119.5345 C 158.5339,121.6249 174.3702,136.8744 179.9519,141.9884 C 185.4042,147.732 192.3869,153.1923 197.3335,157.7808 C 198.3033,158.6787 199.1673,159.7006 198.2931,160.9007 C 197.8102,161.565 196.755,162.6384 195.4438,163.4935 C 186.9897,169.222 180.807,167.4604 172.362,162.0833 C 168.6577,159.7238 163.5239,155.5502 160.315,152.3698 C 156.858,148.9405 149.9669,141.0741 147.2912,137.5788 C 147.5058,134.0376 147.0427,131.4311 146.3587,129.4986 C 148.3765,130.4396 151.4698,131.475 155.2853,131.9534 C 157.7712,134.4004 160.374,137.2017 163.1929,139.8699 C 168.1937,144.6035 173.167,149.4484 177.7265,152.9064 C 181.5702,155.8899 184.7089,158.5843 186.6922,158.5076 L 186.4966,158.0086 C 178.6394,152.9461 172.0626,146.8552 162.636,137.4771 C 160.6748,135.5261 158.6845,133.3562 156.5263,131.053 C 157.4049,125.3458 156.6804,121.6203 154.272,118.7773 C 154.9872,119.0687 155.7025,119.3236 156.4178,119.5345 L 156.4178,119.5345 z M 145.9304,140.6154 C 146.9683,142.443 148.9406,145.7991 151.2383,149.3452 C 155.6728,156.1882 160.8283,164.5298 162.1809,166.6515 C 162.545,167.2216 162.878,167.7188 162.0747,168.021 C 156.8154,170.0033 151.0256,169.7312 146.2328,167.5752 C 143.1148,166.0131 140.7772,163.7415 138.4659,160.8048 C 134.7401,155.6706 135.0279,156.4684 130.2142,145.8794 C 132.8576,142.5238 134.4805,139.6373 134.984,136.9251 C 143.3001,156.0559 152.0531,163.0653 151.8335,162.9053 L 151.9251,162.4253 C 143.2962,151.6519 138.8919,142.0996 136.8257,137.5164 C 138.8548,139.2501 141.8167,140.6056 145.9304,140.6154 L 145.9304,140.6154 z M 53.4299,80.3772 C 50.8753,80.4032 45.6493,81.2491 42.7035,87.2848 C 47.6384,92.5535 51.3862,91.8306 53.3509,91.2421 C 53.2907,89.6436 53.2647,88.0485 53.2683,86.4755 C 46.5857,87.4781 46.2792,87.1637 45.9236,86.9007 C 46.1514,86.2783 50.8545,85.7946 53.2778,85.1927 C 53.2984,83.5504 53.3507,81.9381 53.4299,80.3772 L 53.4299,80.3772 z M 54.6251,103.6789 C 52.5482,104.4237 47.4714,105.3831 42.4247,100.6837 C 43.7639,96.9749 47.4062,92.8939 53.3946,92.277 C 53.4787,94.0675 53.6065,95.8572 53.7841,97.6205 C 52.1209,98.087 49.6648,98.7141 48.0518,99.0349 C 47.1213,99.2195 46.5114,99.5416 46.4905,99.6575 C 47.0889,100.2804 51.2277,99.4196 53.9121,98.8101 C 54.1021,100.4695 54.3381,102.0998 54.6251,103.6789 L 54.6251,103.6789 z M 58.1424,115.2589 C 55.8175,116.781 50.8857,118.8364 45.2603,115.7122 C 45.9633,108.1447 50.9698,106.454 54.9419,105.3016 C 55.2583,106.8169 55.619,108.2619 56.0282,109.6403 C 54.3732,110.5525 52.6377,111.5535 50.7071,112.3952 C 49.6005,112.8761 48.9131,113.3205 48.6239,113.9002 C 50.7086,113.9021 53.3916,112.3122 56.3926,110.8104 C 56.9055,112.3819 57.4865,113.863 58.1424,115.2589 L 58.1424,115.2589 z M 65.0568,124.6631 C 63.9493,126.3103 60.6891,129.6631 53.7732,129.5942 C 52.8795,122.7202 54.7452,118.5549 58.7383,116.4646 C 59.4085,117.753 60.149,118.9648 60.9656,120.1049 C 60.0595,121.3335 58.7757,123.3531 57.25,125.105 C 56.5018,125.9638 56.0931,126.6057 56.221,126.8912 C 56.1194,126.9913 58.0441,126.3197 61.8775,121.3086 C 62.8395,122.5098 63.8967,123.626 65.0568,124.6631 L 65.0568,124.6631 z M 74.6712,130.5957 C 74.1757,133.2413 72.1427,138.7638 63.8013,138.6886 C 62.1826,134.012 63.7736,127.9065 65.6563,125.1859 C 66.8573,126.2086 68.1198,127.1408 69.4385,127.971 C 68.5765,129.6634 67.3424,132.1738 66.3853,134.1328 C 65.9389,135.0453 65.6204,135.7666 65.7377,136.1617 C 66.3814,136.022 68.4344,132.9001 70.619,128.6782 C 71.9207,129.4189 73.273,130.0616 74.6712,130.5957 z M 85.9067,138.4376 C 84.7374,140.0346 82.7593,142.1898 79.5151,144.159 C 75.1483,138.5578 74.5026,135.5955 76.2567,131.1483 C 77.7022,131.604 79.1925,131.9448 80.7229,132.16 C 80.5864,134.0624 80.2645,136.9184 80.0307,138.6993 C 79.9971,138.9742 79.8295,140.1507 80.213,140.3074 C 80.9337,140.0192 81.4237,135.939 81.7921,132.2892 C 82.7256,132.3836 83.6735,132.4314 84.6343,132.4302 C 84.9024,134.4628 85.3351,136.4666 85.9067,138.4376 L 85.9067,138.4376 z M 46.7555,78.0116 C 43.195,79.2087 36.5255,81.0532 31.5437,82.334 C 27.0462,83.3838 23.7014,84.41 21.0901,84.9811 C 17.5337,85.7583 15.4903,86.426 14.2874,86.8962 C 11.5524,87.9653 11.7159,88.6116 12.3823,90.4493 C 13.9122,94.668 15.331,98.0645 18.133,100.1792 C 19.9794,101.5725 22.3706,102.5022 26.1639,102.5022 C 28.6264,102.4227 31.288,101.9268 33.7526,101.1646 C 37.0304,100.1511 40.1856,98.9999 42.1038,98.4574 C 43.4931,95.9122 45.2575,94.0484 48.1856,92.8154 C 46.6807,92.2097 44.8158,91.0302 42.4022,89.0039 C 39.3764,90.0046 35.1995,91.3016 31.3173,92.2935 C 26.801,93.4464 22.4796,94.0003 20.2434,92.6113 L 21.4171,92.5276 C 25.597,93.1213 33.2793,91.0658 41.4828,87.537 C 42.7481,83.0799 46.0414,80.938 49.1695,79.9416 C 48.3172,79.6232 47.3771,79.0265 46.7555,78.0116 L 46.7555,78.0116 z M 41.8152,101.7085 C 39.0692,103.17 31.8998,106.9756 26.9079,109.5333 C 21.3584,112.3759 15.5595,115.0724 10.0917,118.0201 C 8.7902,118.7222 8.6393,119.1172 9.0815,120.3174 C 11.215,126.0926 15.8445,130.4809 22.1757,130.6119 C 27.9809,130.6119 35.5738,127.7801 40.3018,124.6284 C 44.8377,121.604 47.3195,119.6634 48.612,118.5576 C 47.1082,118.2158 45.5121,117.5355 43.8624,116.3756 C 43.7277,113.1077 44.9165,110.7042 46.7031,108.8816 C 38.0634,113.473 30.4473,120.7652 17.5211,122.2646 L 18.6381,121.6613 C 29.3443,118.3311 38.6816,112.0462 49.4182,105.4209 C 46.9568,105.1271 44.1913,104.141 41.8152,101.7085 L 41.8152,101.7085 z M 52.9711,118.6757 C 50.808,120.9612 33.9383,136.4737 28.3602,141.3401 C 22.8694,147.0938 16.1002,152.2593 11.1186,156.8559 C 10.142,157.7554 9.7522,158.8568 10.6324,160.0591 C 11.1186,160.7246 11.982,161.4696 13.3024,162.3263 C 21.8153,168.065 27.9788,166.7081 36.4833,161.3215 C 40.2137,158.9577 45.3525,154.87 48.5841,151.6839 C 52.0656,148.2486 59.1874,140.4834 61.8821,136.9819 C 61.5416,133.4964 62.0075,130.8477 62.7521,128.884 C 60.7202,129.8267 57.8898,130.6697 54.0475,131.1489 C 47.1281,137.5198 38.3923,146.6667 30.9757,152.1284 C 27.1049,154.9795 24.1876,157.339 22.1904,157.4227 L 22.0877,157.165 C 33.3979,149.3201 40.7976,142.572 52.567,130.431 C 51.6826,124.7137 52.4508,121.0324 54.8763,118.1844 C 54.283,118.3897 53.646,118.5604 52.9711,118.6757 L 52.9711,118.6757 z M 63.1198,140.0568 C 62.0745,141.8877 60.109,145.1365 57.7949,148.689 C 53.3289,155.5441 48.0665,163.8656 46.7042,165.9911 C 46.3375,166.5622 46.0022,167.0602 46.8111,167.363 C 52.1071,169.3489 57.9374,169.0762 62.7639,166.9164 C 66.1359,165.4093 68.437,163.2516 70.6208,160.2738 C 74.373,155.1305 74.0304,156.0344 78.8785,145.4266 C 76.1751,142.0651 74.6185,139.0511 74.1638,136.3341 C 65.8541,155.4989 56.9211,162.3985 57.1242,162.2382 L 57.032,161.7573 C 65.9049,150.9647 70.3689,141.5446 72.2577,136.9533 C 70.2142,138.69 67.2623,140.047 63.1198,140.0568 L 63.1198,140.0568 z M 110.5991,186.6536 C 112.6064,190.0755 116.2373,191.8104 120.6544,191.7499 C 126.3863,191.6726 129.314,185.8072 128.1593,180.4227 C 131.7241,181.7903 132.9837,185.8265 132.8747,189.3625 C 132.5771,197.7291 126.1977,199.8008 122.5071,199.8889 C 117.5793,200.0069 112.6597,197.4904 109.7348,193.4175 C 110.0044,192.5983 110.2272,191.7127 110.3825,190.7598 C 112.6573,193.7247 116.6798,196.5194 121.476,196.428 C 124.2675,196.3765 127.1114,195.4576 129.1548,193.0981 L 127.7925,193.3773 C 120.6881,198.0145 114.035,194.042 110.5596,189.3137 C 110.6293,188.4733 110.6464,187.5868 110.5991,186.6536 z M 109.6819,193.5766 C 113.7939,207.9208 125.3682,211.1038 130.934,211.274 C 134.5848,211.3857 138.5835,210.8618 141.8864,209.3504 C 145.0803,207.9012 148.2805,206.3189 151.4136,205.02 C 154.6243,203.6889 158.317,203.3132 162.3429,205.3485 C 170.7237,209.5865 170.9166,220.8858 164.3003,226.382 C 161.6052,228.6212 158.4071,230.1155 154.8548,229.9265 C 158.0529,227.8333 160.5636,225.2484 161.5444,222.773 C 164.2081,216.0552 158.2017,212.0834 152.4594,214.926 C 145.6818,218.2387 139.9855,221.5385 132.1999,221.6244 C 121.2999,221.7467 114.3505,216.6628 109.1174,208.2447 C 109.1866,218.857 111.1272,225.1303 113.749,228.692 C 118.827,235.5901 127.6605,233.0932 132.8307,228.9862 C 134.1112,235.2745 130.0643,240.0536 125.6507,241.2902 C 123.0289,242.0202 119.462,242.0373 116.922,241.0411 C 111.1775,238.789 108.5746,232.2538 108.9099,232.3139 C 108.6102,232.5436 109.1279,234.7915 110.0877,237.0994 C 110.662,238.4777 111.1398,239.7466 111.4626,241.0562 C 112.1646,243.9159 112.2694,245.8481 110.4126,248.2183 C 108.9749,250.0368 106.6675,252.3211 104.5131,254.292 C 103.0922,252.626 100.7764,250.99 98.5633,248.2205 C 96.4277,245.5475 96.6876,243.7613 97.5573,240.7835 C 98.0205,239.1948 98.5088,237.1939 99.0893,236.0453 C 100.1099,234.025 100.265,232.9193 100.0387,232.3633 C 99.9863,232.5973 96.5157,241.5736 88.5268,241.565 C 84.7209,241.6509 81.1645,240.7105 78.9199,238.1986 C 76.7928,235.8177 75.1476,232.3354 76.2458,228.6126 C 80.978,232.417 89.2435,235.1264 94.2251,229.7999 C 97.1319,226.6932 99.6971,220.4028 99.8731,208.2147 C 94.6233,216.4739 88.3822,221.268 78.0439,221.3066 C 68.6278,221.2615 62.7304,217.1373 55.2276,213.831 C 50.552,211.77 45.233,215.7976 47.2931,221.6909 C 48.0141,223.7519 49.9317,226.3605 54.2091,229.276 C 49.4958,229.5336 45.4594,227.376 42.1753,222.9104 C 40.1278,220.1258 39.3356,215.6258 40.3583,212.1993 C 42.2592,205.8552 48.1775,203.2338 52.5577,203.2338 C 57.5643,203.515 62.8582,207.1541 66.3685,208.5646 C 69.3172,210.0739 74.1018,211.0787 77.3942,211.0529 C 87.9583,210.9674 95.9212,203.7946 99.1034,194.2371 C 99.5811,195.4753 100.2128,196.6535 100.9737,197.738 C 100.1,199.6917 97.5754,205.1456 95.4281,207.9119 C 93.0997,210.8597 89.9205,215.8663 80.7935,216.6564 C 76.208,217.0514 71.4172,215.6172 67.0329,213.7237 C 64.0905,212.4505 61.3304,210.6557 58.9957,209.1765 C 57.074,207.957 55.0222,207.1562 53.1151,207.1562 C 50.0763,207.1562 48.6386,208.6483 47.9952,209.784 C 49.2464,208.9425 50.8559,207.8218 53.1423,207.8218 C 54.4815,207.8239 56.3132,208.6634 58.7401,210.0932 C 61.1627,211.5209 63.6252,213.2256 66.1799,214.5008 C 70.2142,216.5147 76.1619,218.142 80.4708,217.9832 C 82.9165,217.8952 88.8998,217.2103 93.894,212.2423 C 98.5313,207.4393 101.105,200.7918 101.7837,198.7983 C 102.5141,199.678 103.3348,200.479 104.2302,201.1792 C 104.525,201.0233 105.7734,200.1129 107.0899,198.412 C 107.4238,200.6092 109.7545,207.1488 114.7487,212.1693 C 118.6635,216.1046 123.9091,218.331 129.4167,218.331 C 134.7241,218.2622 139.3762,216.3898 144.0814,214.1709 C 147.4793,212.5685 152.7008,208.4641 155.5757,208.4572 C 157.8643,208.4572 159.4151,209.842 160.6663,210.6836 C 160.3938,209.5522 158.6816,207.7187 155.4835,207.7209 C 150.9316,207.9162 147.4338,211.697 143.1459,213.5025 C 138.8622,215.4158 133.9749,216.9368 129.3539,217.0063 C 122.7209,217.0063 117.5067,213.5584 113.4828,208.3778 C 110.4902,205.1971 108.4417,199.7276 107.8725,197.3095 C 108.5435,196.2764 109.1863,195.034 109.6819,193.5766 L 109.6819,193.5766 z M 98.9908,193.9353 C 96.7584,196.8989 92.1036,199.3868 87.4223,199.6033 C 81.2546,199.8867 76.1557,195.7002 76.1179,188.566 C 76.1033,185.0193 77.9035,181.5413 81.1393,179.9697 C 79.9364,184.7595 81.1624,191.0929 89.1723,191.6705 C 90.7898,191.709 95.398,191.1461 98.171,187.1145 C 98.0785,187.8817 98.051,188.6494 98.0837,189.4114 C 95.8048,192.3745 92.2497,195.531 87.3469,195.2215 C 85.5047,195.1055 83.7841,194.5752 80.9172,192.9264 L 80.0663,192.7246 C 82.7698,195.1678 85.4356,196.1446 87.9547,196.2434 C 92.2144,196.4109 95.4258,193.8754 98.2287,190.9318 C 98.3803,191.9568 98.6382,192.9634 98.9908,193.9353 L 98.9908,193.9353 z "
   style="fill:#ffffff" />
   <path
   id="_68800936"
   class="fil0"
   d="M 104.494,197.58 C 104.494,197.58 103.9574,193.8079 103.9574,190.4393 C 103.9574,187.0708 104.2068,178.758 104.2068,178.758 L 104.2068,178.758 L 104.8146,178.758 L 104.8146,178.758 C 104.8146,178.758 105.173,187.949 105.173,190.4393 C 105.173,192.9298 104.8502,196.3713 104.494,197.58 L 104.494,197.58 L 104.494,197.58 L 104.494,197.58 z M 81.2769,234.3227 C 81.2769,234.3227 83.6367,238.0175 88.8551,238.0175 C 94.0756,238.0175 100.0799,232.9293 100.4361,223.7018 C 98.1874,229.754 95.3435,236.6456 88.7839,236.8131 C 84.9948,236.8131 83.4942,235.4949 81.2769,234.3227 L 81.2769,234.3227 L 81.2769,234.3227 L 81.2769,234.3227 z M 104.4104,250.8886 C 104.4104,250.8886 103.6549,250.1646 103.6549,243.5747 C 103.6549,236.985 104.158,234.811 104.473,231.9874 C 104.8507,234.811 105.1014,241.0399 105.1014,243.647 C 105.1014,246.254 105.164,248.7167 104.4104,250.8886 L 104.4104,250.8886 L 104.4104,250.8886 L 104.4104,250.8886 z M 127.7604,234.6171 C 127.7604,234.6171 125.3608,238.2197 120.1403,238.2197 C 114.815,238.2498 108.1338,231.9185 108.599,223.9963 C 110.3951,229.5654 113.4905,236.5172 120.331,236.9487 C 124.1222,236.9487 125.5431,235.7894 127.7604,234.6171 L 127.7604,234.6171 L 127.7604,234.6171 L 127.7604,234.6171 z "
   style="fill:#0a0b0c" />
   <path
   id="_68800792"
   class="fil3"
   d="M 23.9631,198.908 C 22.7813,198.0672 22.2284,196.2562 21.8877,194.1274 C 22.8624,194.8175 24.1543,195.464 25.2947,195.7942 C 24.6695,196.6756 24.4504,197.8277 23.9631,198.908 z M 184.6101,200.2488 C 185.7992,199.4183 186.4609,197.8914 186.8202,195.7657 C 185.8395,196.4472 184.2317,196.617 183.0885,196.9373 C 183.7061,198.0209 184.1322,199.2989 184.6101,200.2488 L 184.6101,200.2488 z M 186.4126,194.3253 C 186.4967,192.3788 185.8141,191.3512 183.7345,190.3098 C 181.2653,189.0733 176.9978,187.6643 169.5478,185.8606 C 168.9037,185.7047 168.7351,184.853 169.4958,184.6127 C 171.6114,183.9446 174.4042,183.1208 176.7016,182.9919 C 177.9109,182.924 178.5876,182.1138 179.26,181.2179 C 179.8066,180.4896 180.085,179.6557 179.0897,179.0566 C 178.125,178.4759 177.0678,178.5273 175.4568,178.8985 C 171.9729,179.699 168.5897,181.5689 165.1363,182.477 C 161.1148,184.1188 157.3939,183.1027 153.4913,181.4476 C 148.4387,179.3979 133.1362,170.7912 130.4115,168.9721 C 128.7286,169.1424 126.6326,168.9622 124.0617,168.207 C 124.1025,169.3309 124.0398,170.3428 123.895,171.2556 C 134.5125,175.4623 144.5703,180.2403 153.8319,185.7857 C 154.9289,186.4029 154.1324,187.8516 153.076,187.6277 C 148.2993,186.6144 141.0389,187.9955 140.8077,191.816 C 140.7257,193.1715 141.6915,194.2718 142.9427,194.5676 C 144.5512,194.9478 144.5642,194.4143 145.508,193.3994 C 145.9776,192.8946 146.4081,192.557 147.5442,192.3049 C 148.613,192.0674 150.4315,191.9093 152.3113,191.9257 C 155.9053,191.9571 157.4647,192.1919 159.7822,193.4402 C 161.7201,194.4855 164.3859,195.7004 166.8658,197.3129 C 170.1189,199.4282 173.3283,201.7556 174.9416,203.9683 C 175.0896,204.1713 175.2591,204.5133 175.3655,204.7351 C 176.2201,205.0457 177.0523,204.9781 177.9203,204.8503 C 179.192,204.6632 179.8016,204.3981 180.1807,203.8718 C 180.2595,203.4278 180.2784,202.924 180.2476,202.3614 C 180.0424,199.9941 179.3879,199.4747 177.714,198.3932 C 174.9491,196.6067 170.7452,194.6652 167.8592,193.4195 C 165.1614,192.2551 165.8674,188.7455 169.2248,189.4905 C 173.3132,190.4068 178.0032,192.9181 181.7974,195.6564 C 183.4838,195.7019 185.2248,195.389 186.4126,194.3253 L 186.4126,194.3253 z M 143.111,195.8116 C 143.7078,196.7298 144.2362,197.587 145.4764,198.4792 C 145.429,197.5622 145.3939,196.6576 145.3658,195.8008 C 144.4648,195.9332 143.8745,195.9703 143.111,195.8116 L 143.111,195.8116 z M 175.7277,206.0009 C 175.8443,206.8817 176.0465,207.9817 175.7956,208.9306 C 177.4163,208.4074 178.7118,207.0139 179.6004,205.8108 C 178.3551,205.9572 176.755,206.0159 175.7277,206.0009 z M 179.1546,183.4197 C 179.8113,183.6011 180.5387,183.8154 181.0583,184.2445 C 181.3156,182.9287 181.1559,181.9514 180.8711,181.0984 C 180.4077,182.0187 179.7956,182.9168 179.1546,183.4197 L 179.1546,183.4197 z M 54.3516,71.6897 C 54.3516,71.6897 53.0711,70.6914 53.0711,68.0549 C 53.0711,66.0261 54.9258,65.0278 56.7407,65.0278 C 58.2832,64.929 59.9451,65.8629 60.2637,67.8188 C 60.3454,68.3963 60.3433,69.313 60.1149,69.8197 C 59.6391,70.8696 59.3143,70.8266 59.4484,71.3526 L 59.9598,72.2243 C 60.5592,71.7605 61.6175,71.1551 62.7702,71.3204 C 64.3734,71.548 65.7503,72.9435 65.6979,74.6546 C 65.5303,78.3559 61.7579,79.1911 59.0314,76.9067 L 58.65,77.1665 C 58.9056,78.3817 59.4589,84.7215 59.7334,89.6702 C 60.0081,95.3044 59.246,124.675 84.4158,126.3531 C 84.3184,127.9647 84.3407,129.5865 84.4941,131.2092 C 69.5593,130.5264 59.9318,120.9296 56.7261,107.9427 C 54.7351,99.9755 54.077,88.3863 54.9363,77.1751 L 54.6534,76.9539 C 53.8319,78.4267 52.5052,79.1546 50.8999,79.0128 C 49.7368,78.8969 47.8569,78.4267 47.6138,75.187 C 47.9512,71.8722 50.8999,70.9726 52.828,71.8421 C 53.2702,72.0418 53.8235,72.1921 54.075,72.1813 L 54.3516,71.6897 L 54.3516,71.6897 z M 155.1986,72.284 C 156.1415,71.2403 156.5349,70.0766 156.4975,69.0221 C 156.4186,66.7826 154.5727,65.6274 152.7599,65.6489 C 151.1054,65.6682 149.4737,66.6647 149.2238,68.7028 C 149.1447,69.35 149.2612,70.0251 149.5588,70.6702 C 149.9978,71.6196 150.1331,71.2596 150.2143,71.9946 L 149.7584,72.7083 C 149.5025,72.6654 149.1174,72.5776 148.7387,72.2904 C 148.3246,71.9775 147.6669,71.8189 147.028,71.8725 C 145.3776,72.0096 143.7875,73.3169 143.8644,75.2972 C 144.0057,78.9898 147.8745,79.712 150.5823,77.4317 L 150.9922,77.736 C 150.7383,78.9491 150.0177,85.5884 149.7448,90.5283 C 149.4706,96.1748 150.1379,125.2032 124.8369,126.6538 C 124.9043,128.2739 124.8431,129.9019 124.6777,131.5059 C 139.779,131.0395 149.246,121.8146 152.4657,108.7062 C 154.5766,100.6888 155.5409,88.9595 154.5697,77.826 L 154.9069,77.6053 C 155.6894,79.0069 156.6945,79.7742 158.2533,79.8063 C 160.4385,79.8513 161.7164,78.3383 161.8894,76.0087 C 161.7417,73.767 160.2517,72.5776 158.5722,72.3568 C 157.1737,72.1725 156.0831,72.9676 155.7293,72.9612 L 155.1986,72.284 L 155.1986,72.284 z M 87.3721,84.4939 C 90.0589,84.3544 91.551,83.2723 93.4267,81.9005 C 96.1847,79.2791 98.9616,79.4895 102.3001,82.289 C 101.772,79.8416 99.3661,78.4933 97.2389,78.3988 C 95.2647,78.313 93.1459,79.5109 91.2765,81.0374 C 87.4622,83.8778 83.1408,82.3342 80.1586,78.7638 C 79.5907,79.3671 79.8233,80.7454 80.4541,81.6879 C 81.7577,83.6266 85.1297,84.6099 87.3721,84.4939 L 87.3721,84.4939 z M 105.7245,85.9431 C 106.6823,84.1934 107.2314,82.2762 107.0951,80.2387 C 106.896,77.5529 105.1377,75.391 102.4636,73.6498 C 100.8498,72.6 99.693,71.8529 98.3685,70.4574 C 96.6626,68.6604 94.7973,66.9106 92.9929,65.5624 C 90.4256,65.5323 86.0162,65.9102 84.283,69.6158 C 82.992,72.3767 83.5746,76.8573 86.1839,78.5298 C 86.1839,78.5298 88.6065,74.1801 93.104,73.2934 C 95.8578,72.7631 98.6116,73.667 101.0154,75.0604 C 104.2009,76.911 106.0305,80.2838 103.5973,84.305 C 101.5037,82.3663 96.5515,79.1588 93.5944,83.0491 C 95.4994,83.3883 97.0859,81.5849 103.5135,86.3725 C 104.3204,86.9715 105.1377,87.0123 105.7245,85.9431 L 105.7245,85.9431 z M 121.0737,63.737 C 123.7136,57.2194 125.9253,50.4069 128.2304,43.6547 C 126.4489,44.0533 122.9912,43.4907 123.8962,49.3483 C 122.2932,44.8275 117.2996,46.4216 119.487,51.9347 C 120.8668,50.353 121.7697,51.4884 121.9219,52.96 C 122.3216,56.7876 118.8336,58.087 115.7169,58.0704 C 113.8866,58.087 112.1578,57.3937 111.0337,56.5219 C 109.7614,55.5318 109.453,54.5251 109.6275,52.9165 C 109.8507,51.0462 112.0178,49.8154 113.4605,52.2481 C 117.2935,47.2021 112.5028,43.8311 109.9704,48.1839 C 110.3418,45.0143 109.0026,44.4995 107.641,42.2349 C 105.5673,44.9084 104.8611,45.1201 105.198,48.0178 C 104.157,46.7558 103.2521,45.7117 101.4685,46.3718 C 99.4393,47.1253 99.8878,50.2554 101.7059,52.0364 C 102.9112,49.9108 105.6099,50.9611 105.5693,53.3918 C 105.5693,54.9963 104.0901,57.95 99.4759,57.95 C 95.9939,58.1949 92.8204,56.6216 93.1877,52.5594 C 93.3277,51.0047 94.9185,50.3654 95.5658,51.8869 C 97.5361,48.1465 93.9121,43.198 91.2499,49.3566 C 91.1667,47.0962 92.7595,44.0159 87.0192,43.3766 C 89.2066,50.5605 91.4041,57.6241 93.7193,63.1766 C 103.5037,62.9649 112.5231,63.2119 121.0737,63.737 L 121.0737,63.737 z M 21.7492,192.748 C 21.7316,189.1946 25.1766,188.0006 39.0256,184.7751 C 39.671,184.6248 39.8471,183.7747 39.0884,183.5278 C 36.9788,182.8412 34.1939,181.9168 31.8977,181.7679 C 30.7581,181.694 30.2562,181.2964 29.4758,180.4181 C 28.7449,179.5955 28.0025,178.5339 29.1883,177.8343 C 30.1581,177.262 31.5707,177.2749 33.1785,177.6602 C 36.6553,178.4911 40.021,180.492 43.4664,181.4302 C 47.116,182.9573 51.9652,182.2151 55.5169,180.7453 C 60.2773,178.7725 74.9323,170.3639 78.1136,168.3355 C 79.8154,168.4753 81.9837,168.1605 84.6959,167.3227 C 84.6831,168.5004 84.7729,169.5649 84.9415,170.5273 C 74.7241,174.6554 64.633,179.3592 54.7415,184.8374 C 53.6391,185.445 54.4229,186.9006 55.4813,186.6859 C 60.2666,185.7143 67.5148,187.1588 67.7126,190.9811 C 67.8046,192.7581 66.956,193.8813 65.2009,194.0324 C 63.6015,194.1701 63.7735,193.3714 62.9987,192.5234 C 62.5334,192.0146 62.1059,191.6732 60.9721,191.4113 C 59.9054,191.1644 58.0884,190.9905 56.2085,190.9905 C 52.6143,190.9905 51.053,191.2116 48.7246,192.4396 C 46.7777,193.468 44.1014,194.6596 41.6075,196.2504 C 38.3361,198.3372 35.1065,200.6366 33.474,202.835 C 33.3242,203.0368 33.1958,203.2488 33.0875,203.4697 C 32.2302,203.7728 31.3546,203.8264 30.4876,203.6911 C 29.2176,203.4929 28.6103,203.2225 28.2359,202.6929 C 28.161,202.2483 28.1464,201.7443 28.1822,201.1819 C 28.4213,197.5138 35.8944,194.3514 40.6481,192.3485 C 43.356,191.2077 42.6806,187.6921 39.3169,188.4077 C 35.1547,189.2657 30.3428,191.5978 26.7228,194.3709 C 25.0354,194.4808 22.9262,193.9962 21.7492,192.748 L 21.7492,192.748 z M 66.1673,194.8469 C 65.4971,195.6933 64.5956,196.6437 63.4053,197.5837 C 63.4607,196.6671 63.6436,195.7408 63.6792,194.8844 C 64.579,195.0246 65.4024,194.999 66.1673,194.8469 z M 32.6701,204.8607 C 32.5458,205.7405 32.6361,206.691 32.8787,207.642 C 31.3651,206.5217 30.1798,205.7025 29.2716,204.6625 C 30.5156,204.8197 31.6428,204.8668 32.6701,204.8607 z M 29.5182,182.0734 C 28.8599,182.2491 28.257,182.5343 27.7337,182.9588 C 27.5834,181.5942 27.6498,180.5163 27.8986,179.6871 C 28.354,180.6114 28.8816,181.565 29.5182,182.0734 L 29.5182,182.0734 z "
   style="fill:#ecbf07;fill-opacity:1" />
  </g>
 </g>
</svg>