<?xml version="1.0" encoding="UTF-8" standalone="no"?>
<!-- Creator: CorelDRAW -->
<svg
   xmlns:dc="http://purl.org/dc/elements/1.1/"
   xmlns:cc="http://web.resource.org/cc/"
   xmlns:rdf="http://www.w3.org/1999/02/22-rdf-syntax-ns#"
   xmlns:svg="http://www.w3.org/2000/svg"
   xmlns="http://www.w3.org/2000/svg"
   xmlns:sodipodi="http://sodipodi.sourceforge.net/DTD/sodipodi-0.dtd"
   xmlns:inkscape="http://www.inkscape.org/namespaces/inkscape"
   xml:space="preserve"
   width="744"
   height="865.00623"
   style="shape-rendering:geometricPrecision; text-rendering:geometricPrecision; image-rendering:optimizeQuality; fill-rule:evenodd; clip-rule:evenodd"
   viewBox="0 0 210 297"
   version="1.0"
   id="svg2"
   sodipodi:version="0.32"
   inkscape:version="0.45.1"
   sodipodi:docname="POL województwo opolskie COA.svg"
   inkscape:output_extension="org.inkscape.output.svg.inkscape"
   sodipodi:docbase="C:\Users\Mistrz\Desktop\Herby"><metadata
   id="metadata19"><rdf:RDF><cc:Work
       rdf:about=""><dc:format>image/svg+xml</dc:format><dc:type
         rdf:resource="http://purl.org/dc/dcmitype/StillImage" /></cc:Work></rdf:RDF></metadata><sodipodi:namedview
   inkscape:window-height="480"
   inkscape:window-width="640"
   inkscape:pageshadow="2"
   inkscape:pageopacity="0.0"
   guidetolerance="10.0"
   gridtolerance="10.0"
   objecttolerance="10.0"
   borderopacity="1.0"
   bordercolor="#666666"
   pagecolor="#ffffff"
   id="base" />
 <defs
   id="defs4">
  <style
   type="text/css"
   id="style6">
   
    .fil1 {fill:#0A0B0C;fill-rule:nonzero}
    .fil0 {fill:#46698D;fill-rule:nonzero}
    .fil2 {fill:#F8C100;fill-rule:nonzero}
   
  </style>
 </defs>
 <g
   id="Warstwa_x0020_1"
   transform="matrix(1.2164405,0,0,1.2164405,-22.726248,-32.140821)">
  <metadata
   id="CorelCorpID_0Corel-Layer" />
  <path
   class="fil0"
   d="M 209.963,155.844 L 209.963,26.422 L 0,26.422 L 0,161.59 C 2.4711,216.7038 46.254,252.9011 104.578,270.577 C 160.9794,252.9038 210,214.5012 210,156.609 C 210,156.3547 209.9632,156.098 209.9632,155.8436 L 209.963,155.844 z "
   id="path10"
   style="fill:#0f6eb2;fill-rule:nonzero;fill-opacity:1" />
  <path
   class="fil1"
   d="M 140.651,221.41 L 140.651,222.1379 C 140.5422,224.8648 139.6341,226.5006 139.6341,226.5006 C 139.6341,226.5006 137.6329,224.6104 136.5793,224.0649 C 134.1781,222.9003 129.3793,222.5011 125.2334,220.9733 C 123.9976,220.502 122.2154,218.9375 120.6508,216.7193 C 120.3972,217.4104 119.9972,218.1383 119.3437,218.8294 C 118.3615,219.8484 116.0323,220.3565 114.5413,220.1741 C 113.8134,220.0653 113.3054,219.8484 113.2341,219.4117 C 113.0885,218.7919 114.1421,218.1008 114.5413,216.8649 C 114.7244,216.2826 114.7956,215.5915 114.5413,214.7548 C 114.47,214.5747 114.3957,214.3556 114.3244,214.138 C 113.3797,212.0654 111.9232,210.684 110.2873,209.0474 C 109.8138,215.6658 111.3063,219.1206 112.9054,220.9733 C 113.4142,221.5931 113.959,222.1011 114.5413,222.5378 C 119.0526,225.9206 124.9791,224.1024 125.2702,225.0471 C 125.5959,225.9206 123.5233,232.939 115.5978,232.6103 C 115.1956,232.6103 114.8699,232.5758 114.5413,232.5022 C 113.1966,232.3191 112.3231,231.8111 111.4151,231.2656 C 111.3784,233.5558 111.0152,235.6284 110.616,237.4128 C 109.8138,240.9013 107.5957,244.2105 105.779,246.503 C 105.5224,246.8286 104.6857,246.3942 103.6696,245.3039 C 101.922,243.4106 99.7414,239.5199 99.5613,234.2837 C 99.487,233.047 99.5237,231.52 99.6326,229.8466 C 97.0857,232.028 93.4516,233.8469 89.0859,232.6478 C 84.9032,231.52 82.4682,227.0829 82.7961,224.756 C 83.0505,222.8658 88.7234,226.3205 94.5052,222.9378 C 96.7976,221.5931 99.9237,217.2649 100.5405,208.9738 C 96.6865,211.7375 94.1765,214.2468 94.3596,217.0472 C 94.4676,218.6463 96.2153,220.1741 95.4499,220.6851 C 94.4676,221.3755 90.7592,221.6644 89.1947,219.8484 C 88.469,219.0118 87.7787,218.2096 87.5588,217.3384 C 86.1053,219.2999 84.7606,220.7189 83.4872,221.1931 C 79.3421,222.7202 75.0851,223.0834 72.7236,224.2847 C 71.6303,224.8303 69.6319,226.7205 69.6319,226.7205 C 69.6319,226.7205 68.6865,225.0847 68.6122,222.3555 L 68.6122,221.6299 C 68.6122,221.1189 68.6497,220.5733 68.7577,219.994 C 69.2688,216.5362 72.1413,213.8101 75.813,212.1367 C 77.0489,211.5919 80.8691,210.7207 84.7951,209.4473 C 84.0327,209.1929 82.5049,208.7907 81.7403,208.3195 C 79.2303,206.8292 77.1945,203.1553 77.74,199.5204 C 78.2142,196.5001 80.8323,193.0108 82.9762,192.8998 C 83.7416,196.4656 87.7787,199.7748 90.8335,199.7005 C 93.6685,199.5917 95.6322,198.647 97.4879,196.6112 C 99.087,194.8643 100.9427,189.9559 101.6338,184.6829 C 99.7038,187.0811 96.3233,190.7927 95.5955,192.1741 C 94.3596,194.5011 96.6865,195.5546 96.2866,196.32 C 94.6875,197.8471 91.887,198.6095 89.4858,197.736 C 87.1589,196.8656 85.1943,195.229 84.9775,192.7197 C 84.6863,189.3736 86.1421,186.9356 88.9778,183.883 C 92.1039,180.537 94.6875,177.9909 95.5242,175.3353 C 96.2491,173.1915 96.5402,172.7547 96.5777,170.827 C 96.5402,169.6624 96.0697,168.392 96.0697,167.0818 C 95.0875,167.7354 94.6132,168.0265 94.5787,166.7186 C 94.5416,164.9724 94.1697,163.3562 93.6941,161.8795 C 92.1422,167.8005 87.1684,172.1848 82.4307,176.5374 C 80.9404,177.9189 79.5214,179.518 78.3598,181.1193 C 77.9944,181.6281 77.5944,180.2459 77.3408,178.4277 C 75.5586,180.1378 73.5948,181.9192 71.8502,183.372 C 69.7032,185.1542 61.1578,192.3542 61.1578,192.3542 C 61.1578,192.3542 56.684,195.6634 56.4304,196.0289 C 56.2128,196.3913 56.9751,196.0289 57.9949,196.209 C 59.522,196.4656 59.522,197.3023 59.522,197.3023 C 59.522,197.3023 60.541,196.72 61.5945,197.3368 C 62.468,197.8103 62.2856,198.9381 62.2856,198.9381 C 62.2856,198.9381 64.2126,199.9204 64.6126,201.4107 C 65.1949,203.52 63.7046,206.027 62.3569,206.6093 C 62.3569,205.6646 62.2489,204.8654 61.8857,203.9912 C 61.6666,203.4089 61.3777,203.0465 60.8667,202.8642 C 60.8667,202.8642 60.2131,203.9912 58.7941,203.6656 C 57.2325,203.3009 57.3038,201.8474 57.3038,201.8474 C 57.3038,201.8474 56.1047,202.7921 54.1402,200.9364 C 53.341,200.174 52.1757,200.2115 51.5934,200.574 C 51.0853,200.9364 50.1031,202.0642 49.7039,203.2634 C 49.3752,204.1743 49.0841,205.8102 48.7584,206.6093 C 48.4305,207.446 48.1393,207.6291 47.8137,207.8115 C 48.4672,208.5026 48.5761,209.6274 48.0673,210.6097 C 47.3769,211.9566 45.9204,211.6655 45.9204,211.6655 C 45.9204,211.6655 45.158,211.9198 44.8301,212.6477 C 44.0677,214.3211 44.5044,216.3569 44.2133,216.2481 C 42.5032,215.5915 41.704,213.9189 41.6665,212.7565 C 41.6665,211.8831 42.0289,210.5752 42.3576,210.0641 C 40.793,209.0474 41.7753,206.5748 43.4479,206.8292 C 43.5222,205.9558 44.0677,205.1566 44.7588,204.2824 C 45.6293,203.1921 46.1748,201.8474 45.9947,201.593 C 45.8124,201.3019 44.6845,200.574 42.2863,202.0275 C 40.3586,203.1921 39.4851,202.6098 39.4851,202.6098 C 39.4851,202.6098 38.866,203.9545 37.1927,204.3912 C 35.9568,204.7191 34.9745,203.8832 34.7201,203.1553 C 31.4484,203.3009 30.4662,206.1726 30.3206,205.5933 C 29.9927,204.2456 29.8494,202.7554 30.5405,201.4474 C 31.4484,199.7373 33.6666,199.2638 33.6666,199.2638 C 33.6666,199.2638 33.6298,198.1014 34.6489,197.5191 C 36.4303,196.5369 38.0661,197.8103 38.0661,197.8103 C 38.0661,197.8103 38.5028,197.5904 39.5571,197.3736 C 40.5386,197.1905 41.0842,197.3736 42.5744,197.3023 C 43.4854,197.228 44.0677,197.0449 44.6845,196.828 C 45.5212,196.5369 45.4124,195.6634 44.139,195.4466 C 42.9031,195.229 41.304,194.5731 40.5762,193.6644 C 39.0116,194.7187 36.867,193.1564 37.1927,191.4463 C 36.1391,190.6471 34.1378,190.1727 32.3564,190.3926 C 32.9387,189.2648 34.0298,188.1002 35.7024,187.809 C 37.5213,187.4834 38.6116,188.2458 38.6116,188.2458 C 39.9218,186.4276 42.1407,187.5922 42.3208,189.1537 C 43.7766,189.0824 44.7926,190.247 45.8124,191.4838 C 46.977,192.9365 47.6681,193.5188 49.8119,193.2652 C 50.503,193.1909 53.4866,190.536 54.9393,189.228 C 56.3958,187.9178 66.0683,176.8999 67.3763,175.3728 C 67.9218,174.756 68.7953,173.6995 69.8488,172.5004 C 68.1042,172.7915 66.6139,172.9003 66.905,172.5004 C 68.5041,170.0991 70.6135,166.9362 72.5413,163.1183 C 75.0594,157.9729 80.7996,150.2646 86.9547,145.1305 C 86.4721,143.6499 86.0032,142.0002 85.5598,139.9531 C 85.0863,140.281 84.5775,140.7523 84.5775,140.2443 C 84.5801,140.1749 84.581,140.1045 84.5811,140.0338 C 84.4944,140.3996 84.3966,140.7615 84.2864,141.1177 C 81.4146,150.2799 74.8307,150.9732 75.2675,149.6255 C 75.8873,147.7728 76.6497,145.954 76.9776,143.6991 C 77.0489,143.0822 77.1577,140.9722 77.5231,138.1342 C 76.7577,141.0434 76.1409,144.0615 74.6852,147.9184 C 70.2143,159.9179 63.9958,160.3546 64.6869,158.6077 C 65.6316,156.2094 67.5961,149.5542 67.8498,148.4984 C 66.8683,150.3542 66.0316,151.5188 65.6316,152.1723 C 62.7599,156.4263 57.2325,160.8258 52.83,162.0992 C 46.577,163.9182 41.4496,162.4992 43.3766,160.281 C 44.9389,158.4989 48.6496,154.7537 52.83,148.7176 C 52.25,149.3344 46.466,156.5351 37.8493,159.6267 C 30.9404,162.0992 24.9388,159.5532 26.7578,158.8621 C 28.9759,157.9909 35.6656,153.917 37.9581,151.8812 C 41.4128,148.8977 43.8846,146.1716 47.0115,142.9712 C 44.539,144.7526 43.1567,145.6261 40.8673,146.5707 C 25.5586,152.8259 8.1024,145.5548 13.2305,143.627 C 24.1397,139.5164 34.3577,133.4803 34.8657,133.0811 C 32.4307,134.5001 24.4308,138.3886 15.1208,137.6629 C 9.8845,137.2637 6.7209,132.7899 8.4656,132.6443 C 17.122,131.8444 23.811,130.3174 28.576,128.4985 C 11.5572,129.8807 7.3032,120.4986 8.828,120.2074 C 11.8115,119.6251 17.7389,118.3172 26.1379,115.0425 C 26.7578,114.8256 30.9404,112.9699 31.4852,112.6788 C 28.648,113.5897 26.4291,113.8809 23.4118,113.9154 C 10.4293,113.9522 9.5559,108.4248 10.7205,108.4616 C 12.8651,108.5336 16.3199,108.6072 20.3937,108.1337 C 24.8946,107.6384 31.8508,105.7937 32.1963,105.7017 C 31.8927,105.7782 26.8841,106.9582 17.2646,104.3163 C 7.0121,101.4784 5.7387,91.3346 7.7032,91.4427 C 9.9926,91.5883 16.7191,92.8249 25.0101,92.4625 C 25.8843,92.4249 28.0312,92.1706 28.7936,92.1338 C 23.7397,91.2603 17.5933,89.6988 13.9554,86.2785 C 8.4656,81.1879 9.4103,76.4597 10.5749,77.1876 C 14.0672,79.2234 20.7562,83.1892 24.3198,84.1684 C 25.9924,84.6419 27.6312,85.1162 29.6295,85.5506 C 25.0844,83.1892 21.6296,80.7136 19.2291,75.4429 C 16.3566,69.0053 16.3199,62.0958 18.2124,63.6603 C 19.557,64.7882 25.9579,69.6244 30.7949,72.0969 C 31.8852,72.6425 32.2476,73.0049 33.4467,73.5137 C 30.6493,70.7155 28.9016,67.9518 28.1025,64.9682 C 25.7012,56.3861 28.4679,53.4423 28.9759,54.5671 C 30.1383,56.9684 31.3029,59.0784 33.6666,62.97 C 34.8657,64.9337 36.2847,66.6784 36.5391,67.0063 C 36.1391,63.1868 36.7589,59.3321 38.4293,54.8958 C 41.8496,45.8424 50.831,43.6242 50.3942,45.5137 C 49.3752,50.2051 49.3752,55.2957 51.0141,58.7498 C 51.8845,60.4974 53.7777,63.4067 54.1769,65.5138 C 54.9026,69.4421 53.2667,71.8778 52.6844,74.096 C 54.8681,76.1685 58.9764,78.0242 62.1033,79.877 C 66.3227,82.3525 68.4666,86.2785 68.321,89.1878 C 68.1042,93.8784 63.7759,94.9688 61.7776,95.6599 C 60.6123,96.0598 58.0685,96.0253 57.9949,97.2987 C 57.9574,97.878 57.5574,98.5691 58.5029,99.2257 C 60.2844,100.4616 62.9767,103.4429 62.9767,104.7163 C 62.9055,108.5336 60.4667,109.3696 59.0485,111.4796 C 57.8486,113.2243 59.4132,113.4809 60.5042,113.4442 C 61.7033,113.3699 62.4312,113.5155 63.7391,113.4442 C 66.0316,113.2986 68.2872,114.061 70.1768,115.8079 C 71.3047,116.8614 72.5413,118.2061 73.7404,118.8627 C 75.3417,119.6994 77.1945,119.334 78.4311,118.8627 C 79.4646,118.4667 81.2062,117.3458 82.8584,116.4559 C 83.2609,115.8489 83.7452,115.2643 84.3239,114.7176 C 88.361,110.8973 90.1424,110.2438 93.5597,106.4977 C 95.1242,104.8244 96.0322,102.3151 96.5064,101.2615 C 96.141,101.4439 95.4154,101.3328 94.8331,101.2983 C 95.4499,99.9513 98.7959,95.1519 99.4502,90.9347 C 99.6693,89.5532 99.4502,87.152 99.7414,84.9338 C 98.579,84.7162 97.2688,83.6604 92.7605,84.4251 C 90.6879,84.7507 87.3044,86.241 86.7221,86.0984 C 86.1766,85.9874 86.9045,82.9693 88.1411,81.5503 C 89.0859,80.46 89.9593,79.7344 92.2863,79.4432 C 94.3963,79.2234 97.2688,79.7344 98.1423,79.9145 C 95.4154,78.061 92.7605,77.1133 91.0504,76.6428 C 88.6866,75.9884 85.9597,75.9884 83.0505,75.5517 C 78.251,74.7871 76.4666,73.1137 75.1219,70.0244 C 73.7029,66.6784 74.2852,62.7869 74.2852,62.7869 C 74.2852,62.7869 75.3417,64.9682 77.4488,67.6231 C 79.5589,70.2787 81.2691,70.2787 83.0872,70.1332 C 84.504,70.0244 85.4142,68.9686 88.2492,69.2222 C 90.0313,69.3678 88.7234,70.3868 88.7234,70.3868 C 88.7234,70.3868 87.6669,70.8956 86.9788,71.3691 C 86.2509,71.9146 85.7774,72.5682 85.7774,72.5682 C 85.7774,72.5682 86.5766,72.4601 88.6866,72.0969 C 90.8335,71.769 93.6685,72.3881 94.6875,72.8593 C 96.141,73.4791 97.6313,74.5327 98.7959,75.6605 C 99.3782,76.2053 99.7414,76.6796 100.2861,77.5162 C 100.106,75.9142 99.6693,75.0407 97.8879,73.4416 C 96.6145,72.3145 93.0141,70.861 91.6694,69.7332 C 89.0146,67.5518 87.5588,62.97 85.4855,61.9502 C 84.1408,61.2966 80.6147,61.659 79.1222,61.7333 C 77.9598,61.7678 80.5412,58.7873 82.6138,57.9506 C 84.1783,57.3308 87.2677,56.3861 90.4681,57.6962 C 91.4871,58.133 92.3238,58.7873 92.9061,59.5152 C 93.3398,59.1152 94.6132,58.1675 96.3946,58.133 C 94.9044,57.4051 94.722,54.6046 96.7976,54.4591 C 95.4154,53.5511 96.1065,52.5321 96.1778,51.1131 C 96.2866,49.6596 95.7043,49.3309 95.9241,47.6238 C 96.141,45.8769 95.6698,44.9689 95.3411,44.169 C 94.9419,43.2588 92.6862,41.2597 93.9229,40.9318 C 96.141,40.2775 97.7423,41.0061 98.3224,41.7685 C 99.1583,42.8588 98.6503,44.5689 98.6503,44.5689 C 98.6503,44.5689 99.1958,44.4234 100.6148,44.6778 C 101.9595,44.9314 103.0153,45.9879 103.6696,47.0047 C 103.7777,47.1503 103.852,47.2583 103.9233,47.4039 C 104.7975,46.7503 106.0334,46.0967 107.27,46.6047 C 107.8523,46.8591 108.7603,47.587 109.0514,48.2406 C 109.8138,46.6415 111.0872,45.4401 112.4687,45.2225 C 113.5252,46.8591 112.8686,48.5685 112.5062,50.0595 C 113.1223,49.8052 113.8877,49.7309 114.5413,49.9875 C 114.978,50.1331 115.3412,50.422 115.6323,50.8587 C 116.1058,51.6241 116.2514,52.3865 116.4345,53.1857 C 117.3049,52.7512 118.8695,52.3865 119.5606,52.5321 C 121.3419,52.7512 121.7051,53.9878 121.7051,53.9878 C 121.7051,53.9878 122.5411,52.3145 123.9976,51.9865 C 126.1782,51.5153 128.0684,53.8422 128.1427,54.5333 C 128.214,55.2237 126.1414,55.3325 125.0879,55.7325 C 124.1799,56.0949 123.3777,57.6595 122.7241,58.3506 C 121.9242,59.1865 121.4875,59.3696 120.3597,60.2776 C 119.8884,60.643 119.1239,61.0054 118.5784,61.8421 C 118.1791,62.4589 117.9961,62.8957 116.9057,62.7869 C 117.2337,64.6058 116.0691,66.7872 114.6501,66.2784 C 116.6146,68.5686 117.1594,72.3513 118.4328,73.4791 C 119.9229,74.7526 121.2339,73.3703 123.3777,73.7703 C 124.4343,73.9872 122.7609,79.5888 120.1428,79.9888 C 119.3062,80.0968 118.1416,79.9888 117.0881,79.4065 C 117.1594,80.6056 117.0138,82.2414 116.9057,83.914 C 116.6881,88.3879 119.1239,90.9347 119.4863,92.1338 C 118.7614,92.6418 117.5248,93.0418 116.8337,92.605 C 117.0138,94.535 116.5425,95.2974 117.6704,96.3877 C 119.0151,97.77 120.3597,98.0611 122.7241,98.5691 C 122.5065,100.6417 120.6141,102.135 119.7775,102.3518 C 118.4328,102.6805 117.8872,102.5349 117.0513,102.2438 C 117.0138,103.3341 117.4505,105.2243 118.0336,106.4264 C 118.7239,107.7712 119.743,108.8248 121.1251,109.9894 C 122.9065,111.4796 124.9423,113.2986 127.3781,115.9535 C 127.7151,116.3208 128.0168,116.7139 128.2867,117.1254 C 129.6381,117.9392 130.9124,118.7385 131.7055,119.0428 C 132.9422,119.5163 134.7979,119.8795 136.397,119.0428 C 137.5983,118.3892 138.835,117.0438 139.9599,115.988 C 141.8524,114.2433 144.1058,113.4809 146.3982,113.6265 C 147.7429,113.6978 148.434,113.5522 149.6354,113.6265 C 150.7602,113.661 152.288,113.4066 151.0889,111.6252 C 149.6699,109.5527 147.2342,108.716 147.1606,104.8986 C 147.1606,103.6252 149.8523,100.6417 151.6344,99.4058 C 152.5792,98.7522 152.1792,98.0611 152.1425,97.5156 C 152.1079,96.2422 149.5244,96.2422 148.362,95.843 C 146.3607,95.1519 142.0325,94.0608 141.8156,89.4069 C 141.67,86.4609 143.8169,82.5326 148.0341,80.0601 C 151.1977,78.2066 154.726,76.3884 156.9442,74.3158 C 156.3251,72.1314 155.2341,69.6244 155.9627,65.6961 C 156.3619,63.5868 158.2889,60.6775 159.1256,58.9329 C 160.7989,55.5149 160.7989,50.3875 159.7424,45.6968 C 159.3087,43.8035 168.2901,46.0224 171.7081,55.0781 C 173.4182,59.5152 173.9975,63.3692 173.5983,67.1864 C 173.8519,66.8607 175.2709,65.1506 176.47,63.1493 C 178.8345,59.2953 179.9991,57.1882 181.1637,54.7502 C 181.7092,53.6224 184.9067,56.714 182.0004,65.1506 C 181.1269,67.7319 178.7257,71.0779 175.962,73.8791 C 177.1266,73.3703 178.2545,72.8226 179.3448,72.277 C 184.1818,69.8045 190.5796,64.9682 191.9618,63.8404 C 193.8175,62.2789 193.78,69.2222 190.9083,75.623 C 188.507,80.8967 185.0522,83.3693 180.5071,85.733 C 182.5084,85.2963 184.1818,84.825 185.8176,84.3508 C 189.3805,83.406 196.0724,79.4065 199.5647,77.3707 C 200.7263,76.6428 201.6718,81.3702 196.218,86.4609 C 192.5441,89.8781 186.3999,91.4802 181.3806,92.3169 C 182.1085,92.3507 184.2898,92.605 185.1633,92.6418 C 193.4176,93.0072 200.144,91.7714 202.4365,91.6258 C 204.401,91.5515 203.1989,101.4439 192.9095,104.2796 C 183.0164,106.9713 177.9258,105.8809 177.9258,105.8809 C 177.9258,105.8809 185.1633,107.808 189.7459,108.316 C 193.8175,108.7873 197.2715,108.716 199.4192,108.6447 C 200.5808,108.6072 199.7073,114.1345 186.7256,114.0978 C 183.7451,114.0978 180.6895,113.5155 177.8177,112.6443 C 178.4,112.9354 182.9451,114.9344 183.5252,115.1888 C 191.9273,118.4628 198.3258,119.8075 201.3086,120.3905 C 202.8364,120.6787 197.6347,130.1343 180.6182,128.7528 C 182.0717,129.4064 183.9274,130.0975 185.3089,130.4997 C 191.3817,132.2076 199.5647,132.898 201.2719,133.0068 C 203.0188,133.1178 200.2551,137.335 195.0166,137.843 C 191.3075,138.2085 187.091,137.8806 181.8548,136.3895 C 178.908,135.5536 176.1819,134.0633 173.7806,132.6068 C 174.2887,133.0068 174.7997,133.4067 175.2709,133.7347 C 182.3628,138.5709 193.0896,142.3168 196.8011,143.9902 C 201.8174,146.2084 184.581,153.009 169.3068,146.7538 C 166.9799,145.8084 164.5449,144.4269 162.0723,142.6455 C 165.2352,145.8459 168.6157,149.0807 172.0705,152.0981 C 174.3629,154.0993 181.1637,158.1709 183.3819,159.0444 C 185.1978,159.7355 179.1624,162.4624 172.2904,159.8098 C 166.1432,157.4453 163.745,155.4816 158.5433,150.4622 C 157.9977,149.9542 157.4154,149.3344 156.8707,148.7176 C 161.0158,154.7904 165.1985,158.7165 166.763,160.4634 C 168.69,162.6815 163.5626,164.1005 157.3074,162.2823 C 152.9071,161.0089 146.2894,155.9896 143.4147,151.7356 C 142.7604,150.7534 142.2523,149.9542 141.4877,148.4984 C 141.7443,149.5175 141.9244,150.4254 142.0325,150.9365 C 142.7236,153.917 143.8169,156.755 144.7249,159.1532 C 145.416,160.9001 139.9253,160.1009 135.4515,148.0985 C 133.9987,144.2438 132.9789,140.8266 132.2143,137.9173 C 132.5422,140.4641 132.7966,142.8256 132.9422,143.7358 C 133.2701,145.9915 133.9244,147.9184 134.5435,149.7343 C 135.0523,151.2989 128.7595,150.6453 125.8503,141.2978 C 125.7057,140.8306 125.5811,140.3598 125.4728,139.8874 C 125.2022,141.3917 124.9486,142.1481 124.4688,143.4815 C 124.0965,144.495 123.7948,145.368 123.5472,146.1342 C 129.5091,151.2095 134.2875,158.0655 136.7962,163.1183 C 138.6894,166.9362 140.8334,170.0991 142.4354,172.5004 C 142.6891,172.9003 141.2333,172.7915 139.4886,172.5004 C 140.5077,173.6995 141.4157,174.756 141.9244,175.3728 C 143.2346,176.8999 152.9446,187.9178 154.3981,189.228 C 155.8539,190.536 158.8344,193.1909 159.4888,193.2652 C 161.6694,193.5188 162.326,192.9365 163.5251,191.4838 C 164.5449,190.247 165.5609,189.0824 167.0174,189.1537 C 167.1997,187.5922 169.3811,186.4276 170.7258,188.2458 C 170.7258,188.2458 171.7794,187.4834 173.5983,187.809 C 175.3084,188.1002 176.362,189.2648 176.9811,190.3926 C 175.1629,190.1727 173.1983,190.6471 172.1448,191.4463 C 172.436,193.1564 170.3259,194.7187 168.7245,193.6644 C 167.9989,194.5731 166.4343,195.229 165.1617,195.4466 C 163.9251,195.6634 163.7795,196.5369 164.6162,196.828 C 165.2352,197.0449 165.8175,197.228 166.763,197.3023 C 168.2533,197.3736 168.7988,197.1905 169.7811,197.3736 C 170.8346,197.5904 171.2713,197.8103 171.2713,197.8103 C 171.2713,197.8103 172.8727,196.5369 174.6541,197.5191 C 175.7076,198.1014 175.6709,199.2638 175.6709,199.2638 C 175.6709,199.2638 177.889,199.7373 178.7625,201.4474 C 179.4904,202.7554 179.308,204.2456 178.9801,205.5933 C 178.8713,206.1726 177.889,203.3009 174.6173,203.1553 C 174.3262,203.8832 173.3439,204.7191 172.1448,204.3912 C 170.4714,203.9545 169.8178,202.6098 169.8178,202.6098 C 169.8178,202.6098 168.9812,203.1921 167.0542,202.0275 C 164.6529,200.574 163.4883,201.3019 163.3427,201.593 C 163.1627,201.8474 163.6707,203.1921 164.5449,204.2824 C 165.2697,205.1566 165.7808,205.9558 165.852,206.8292 C 167.5622,206.5748 168.5077,209.0474 166.9431,210.0641 C 167.271,210.5752 167.671,211.8831 167.6342,212.7565 C 167.6342,213.9189 166.7975,215.5915 165.0897,216.2481 C 164.7985,216.3569 165.2352,214.3211 164.5074,212.6477 C 164.1794,211.9198 163.3795,211.6655 163.3795,211.6655 C 163.3795,211.6655 161.9605,211.9566 161.2702,210.6097 C 160.7246,209.6274 160.8702,208.5026 161.5268,207.8115 C 161.1981,207.6291 160.907,207.446 160.5791,206.6093 C 160.2534,205.8102 159.9255,204.1743 159.6343,203.2634 C 159.2344,202.0642 158.2153,200.9364 157.7066,200.574 C 157.1243,200.2115 155.9995,200.174 155.1973,200.9364 C 153.199,202.7921 152.0337,201.8474 152.0337,201.8474 C 152.0337,201.8474 152.1079,203.3009 150.5434,203.6656 C 149.0876,203.9912 148.4708,202.8642 148.4708,202.8642 C 147.9628,203.0465 147.6716,203.4089 147.4173,203.9912 C 147.0886,204.8654 146.9805,205.6646 146.9805,206.6093 C 145.6328,206.027 144.1426,203.52 144.6881,201.4107 C 145.0873,199.9204 147.0518,198.9381 147.0518,198.9381 C 147.0518,198.9381 146.835,197.8103 147.7429,197.3368 C 148.7987,196.72 149.8155,197.3023 149.8155,197.3023 C 149.8155,197.3023 149.7787,196.4656 151.3433,196.209 C 152.3248,196.0289 153.0902,196.3913 152.8703,196.0289 C 152.6535,195.6634 148.1421,192.3542 148.1421,192.3542 C 148.1421,192.3542 139.6341,185.1542 137.4873,183.372 C 135.7426,181.956 133.8156,180.1716 132.0687,178.499 C 131.7798,180.3914 131.3431,181.8104 130.9431,181.2994 C 129.7785,179.7379 128.4338,177.8446 126.9068,176.5374 C 122.7207,173.0358 119.2209,170.0668 117.1525,166.1687 C 117.1438,166.2298 117.1345,166.2912 117.1248,166.3532 C 116.9793,167.2987 116.9057,167.5553 115.886,166.7531 C 115.5978,168.2809 115.4155,169.5168 115.2324,170.5734 C 115.3067,173.3738 115.4522,176.9367 117.7049,179.3724 C 119.0871,180.9002 121.1251,182.6441 123.0153,183.883 C 124.6144,184.9365 126.398,187.4091 126.6157,189.4824 C 126.8325,191.5918 126.3613,193.4108 124.6879,195.5546 C 123.6321,196.9368 118.8695,199.3381 115.9978,196.6457 C 115.7434,196.32 117.9961,195.1554 117.7049,193.4821 C 117.3792,191.8462 116.0691,189.9904 114.5413,188.4288 C 113.7053,187.5546 112.8341,186.7923 112.032,186.1732 C 112.2518,189.5904 112.9797,194.5011 114.2501,196.209 C 114.3244,196.32 114.4332,196.4656 114.5413,196.5744 C 116.0323,198.2815 118.5416,199.6292 120.9427,199.4461 C 123.5976,199.2293 126.7612,197.8471 128.2515,193.9901 C 131.1608,195.5922 132.7966,200.6107 131.7431,204.1001 C 130.6865,207.5916 127.9971,208.9738 125.2702,209.4473 C 128.6507,211.0089 131.7431,211.4118 132.9422,211.9566 C 136.5793,213.5932 139.9967,216.3194 140.5077,219.7742 C 140.5797,220.3565 140.6165,220.902 140.651,221.41 L 140.651,221.41 z "
   id="path12"
   style="fill:#0a0b0c;fill-rule:nonzero" />
  <path
   class="fil0"
   d="M 103.67,50.3509 C 103.4157,49.6965 103.3046,48.9319 103.2701,48.2776 C 102.651,48.7143 101.7768,49.5855 100.652,49.5855 C 100.1064,49.5855 99.6697,48.8606 99.6697,48.8606 C 99.6697,48.8606 101.16,49.0775 101.5975,48.8944 C 102.3599,48.6408 103.0157,48.0584 103.4502,47.624 C 103.5245,47.8041 103.5958,47.9864 103.67,48.1695 C 104.1781,49.4054 104.6861,50.642 105.4515,51.0788 C 106.905,51.9154 107.7416,51.2956 107.7416,51.2956 C 107.7416,51.2956 107.524,52.1323 106.9793,52.3147 C 105.597,52.8234 105.1235,52.3522 104.2156,51.2956 C 103.9957,51.0045 103.8156,50.6788 103.67,50.3509 L 103.67,50.3509 z M 114.5417,54.388 C 115.124,54.3137 115.707,54.1336 116.2518,53.9137 C 116.2893,54.7872 116.5775,55.6951 116.8686,56.1694 C 117.5252,57.1884 118.1053,57.1141 118.1053,57.1141 C 118.1053,57.1141 117.9619,57.3685 117.2341,57.2597 C 116.8341,57.2229 116.4694,56.7142 116.3238,56.2775 C 116.1783,55.8407 116.1437,54.388 116.1437,54.388 C 116.1437,54.388 115.4159,54.8585 114.5417,55.0416 C 114.3248,55.1158 114.1425,55.1504 113.9248,55.1504 C 113.0889,55.1871 112.0691,54.7872 111.3788,53.8424 C 110.6509,52.8234 111.1957,51.6581 111.1957,51.6581 C 111.1957,51.6581 111.4868,53.3682 112.9433,54.2049 C 113.3425,54.4593 113.9248,54.496 114.5417,54.388 L 114.5417,54.388 z "
   id="path14"
   style="fill:#46698d;fill-rule:nonzero" />
  <path
   class="fil2"
   d="M 174.726,74.0249 C 180.071,69.5135 181.8554,63.8061 181.4532,56.0951 C 180.3276,58.5331 177.4897,63.4782 174.8716,66.8954 C 174.3635,67.552 173.818,68.2064 173.1989,68.8224 C 172.7622,71.298 171.891,73.5874 170.6176,75.732 C 171.5256,75.4063 173.8525,74.3873 174.726,74.0249 z M 174.0356,198.1379 C 172.6909,197.5556 172.0366,198.6835 172.0366,198.6835 C 172.0366,198.6835 171.4175,198.318 170.3265,198.1724 C 169.3817,198.0269 168.3995,198.1724 166.6893,198.0269 C 165.7814,197.9188 163.8168,197.5188 163.4544,196.9733 C 162.7978,196.0286 164.9079,194.1729 166.1438,193.956 C 167.4172,193.7361 168.8707,193.1193 168.8707,191.9915 C 170.0353,193.0105 172.1079,192.537 171.3087,190.8269 L 170.2522,188.791 C 169.2729,187.372 167.6003,188.1742 167.6348,189.5556 C 166.8717,189.4446 165.7814,190.0644 164.7623,191.3004 C 163.6,192.7194 161.8898,194.7184 159.743,194.464 C 159.0519,194.3552 155.6346,191.7003 154.1811,190.3923 C 152.5085,188.8653 142.7242,178.2443 141.5251,176.8628 C 140.834,175.9916 139.3811,174.2072 137.779,172.1714 C 136.6174,171.9178 135.5264,171.6266 134.9073,171.409 C 133.8875,171.0443 132.6516,170.3532 131.3437,169.482 C 131.8149,170.7532 132.1804,171.9545 132.326,173.0081 C 132.4715,173.8815 132.4348,175.1549 132.326,176.4629 C 134.5786,178.5354 137.2335,180.8999 139.3436,182.6813 C 141.4883,184.4627 149.3449,191.3717 149.3449,191.3717 L 155.3802,196.5366 C 155.3802,196.5366 153.0908,196.8277 152.0718,196.791 C 151.052,196.791 150.144,198.0269 150.144,198.0269 C 150.144,198.0269 149.3449,197.3365 148.2545,197.9188 C 147.6722,198.2812 148.0347,199.1179 148.2545,199.737 C 148.5082,200.3913 149.0537,201.5184 149.0537,201.5184 C 149.0537,201.5184 149.4904,202.2095 150.2896,202.3551 C 151.635,202.6095 151.6718,201.2648 151.4174,200.3193 C 151.8887,201.0449 153.6363,201.8471 154.9435,200.2112 C 155.6714,199.2635 158.1071,198.9378 158.6527,199.2635 C 159.8173,200.0281 160.5797,201.3361 161.2708,203.3741 C 161.5987,204.2821 161.1987,205.8099 161.5274,206.609 C 161.8531,207.4457 162.181,207.7369 162.5067,207.92 C 161.9987,208.2111 161.8156,209.0471 162.3611,210.0293 C 162.9089,211.0461 163.9257,210.3925 163.9257,210.3925 L 165.9982,209.5926 C 167.4172,208.9735 166.7981,207.2656 165.0167,207.1546 C 164.9822,206.2834 164.8366,205.1563 163.9999,204.3909 C 162.7265,203.2631 162.1067,200.2112 162.3986,199.5201 C 162.5442,199.229 166.0725,200.0281 168.2907,201.5184 C 169.0906,202.0639 170.6176,202.0272 171.1264,201.5184 C 171.0176,202.2095 171.0889,203.0462 172.3255,203.3741 C 173.5989,203.7373 173.8525,202.7918 174.1092,202.1015 C 174.1092,202.1015 174.6547,200.5737 174.8003,199.8458 C 174.8003,199.8826 175.0892,198.6092 174.0356,198.1379 L 174.0356,198.1379 z M 171.0543,188.8278 C 171.0543,188.8278 171.78,188.0631 173.2357,188.2455 C 174.2893,188.391 175.2002,189.1909 175.637,189.9901 C 174.3635,189.7732 172.8365,189.9901 171.8543,190.4637 L 171.0543,188.8278 L 171.0543,188.8278 z M 175.0892,202.1728 C 176.8361,202.4264 177.8183,202.6838 178.5462,203.6653 C 178.5094,202.8293 178.3639,202.1015 178.0727,201.5559 C 177.4184,200.3538 175.6002,200.1002 175.6002,200.1002 L 175.0892,202.1728 z M 166.3982,210.4638 C 167.0548,211.0086 167.1261,211.6997 167.1636,212.3908 C 167.2716,213.5929 166.7261,214.3553 165.9982,215.0832 C 166.1438,214.0642 165.8181,213.4098 165.527,212.793 C 165.3079,212.3195 164.691,211.4828 164.691,211.4828 L 166.3982,210.4638 L 166.3982,210.4638 z M 147.3803,200.2112 C 147.3803,200.2112 146.4356,200.3913 145.8533,201.4471 C 145.0166,203.0094 145.6334,203.9909 146.7268,204.9019 C 146.9436,203.7373 146.8356,203.9197 147.0892,203.3741 C 147.4179,202.5382 148.3258,202.2095 148.3258,202.2095 L 147.3803,200.2112 L 147.3803,200.2112 z M 69.9605,182.6813 C 72.1419,180.8999 74.7968,178.4641 77.1238,176.3916 C 77.0157,175.1182 77.0157,173.8815 77.1238,173.0081 C 77.3039,171.8465 77.6693,170.5731 78.2148,169.1541 C 76.7958,170.2076 75.4879,171.0098 74.4314,171.409 C 73.7778,171.6266 72.6875,171.9178 71.5221,172.1714 C 69.9237,174.2072 68.5047,175.9916 67.7768,176.8628 C 66.5777,178.2443 56.8302,188.8653 55.123,190.3923 C 53.6673,191.7003 50.2868,194.3552 49.5957,194.464 C 47.4488,194.7184 45.7409,192.7194 44.5396,191.3004 C 43.5228,190.0644 42.467,189.4446 41.6671,189.5556 C 41.7046,188.1742 40.068,187.372 39.0865,188.791 L 38.0299,190.8269 C 37.1933,192.537 39.3034,193.373 40.4312,192.3194 C 40.468,193.4818 42.0295,193.8817 43.2684,194.0641 C 44.5396,194.2809 46.5408,196.0286 45.8865,196.9733 C 45.5218,197.5188 43.5573,197.9188 42.6126,198.0269 C 40.9047,198.1724 39.9224,198.0269 39.0122,198.1724 C 37.9211,198.318 37.3043,198.6835 37.3043,198.6835 C 37.3043,198.6835 36.6485,197.5556 35.2663,198.1379 C 34.2127,198.6092 34.5039,199.8826 34.5039,199.8458 C 34.6495,200.5737 35.195,202.2095 35.195,202.2095 C 35.4861,202.9374 35.8118,203.6285 37.122,203.2631 C 38.3211,202.9374 38.3211,202.2095 38.1755,201.5184 C 38.7211,202.0272 40.2481,202.0639 41.0503,201.5184 C 43.2316,200.0281 46.7945,199.229 46.9033,199.5201 C 47.232,200.2112 46.5776,203.0094 45.3417,204.1365 C 44.505,204.9019 44.1396,206.0643 44.0683,206.9002 C 42.2869,207.009 42.0295,208.9735 43.4117,209.5926 L 45.3042,210.5381 C 45.3042,210.5381 46.5033,211.0461 47.0864,210.0293 C 47.5944,209.0471 47.3032,208.2111 46.832,207.92 C 47.1232,207.7369 47.4856,207.4457 47.8143,206.609 C 48.1399,205.8099 47.74,204.2821 48.0311,203.3741 C 48.7222,201.3361 49.4869,200.0281 50.686,199.2635 C 51.1948,198.9378 53.6328,199.2635 54.3576,200.2112 C 55.6686,201.8471 57.0868,201.1905 57.558,200.4281 C 57.2669,201.4104 57.7036,202.8293 59.0491,202.6095 C 59.8137,202.4639 60.285,201.5184 60.285,201.5184 C 60.285,201.5184 60.8327,200.3913 61.0504,199.737 C 61.304,199.1179 61.7782,198.5011 61.1584,198.1724 C 60.1049,197.5556 58.8315,197.7732 58.8315,197.7732 C 58.8315,197.7732 57.9235,196.791 56.9045,196.791 C 55.8854,196.8277 53.9584,196.5366 53.9584,196.5366 L 59.9593,191.3717 C 59.9593,191.3717 67.8136,184.4627 69.9605,182.6813 L 69.9605,182.6813 z M 38.2498,188.8278 C 38.2498,188.8278 37.5219,188.0631 36.0684,188.2455 C 35.0119,188.391 34.1039,189.1909 33.7047,189.9901 C 34.9406,189.7732 36.4684,189.9901 37.4844,190.4637 L 38.2498,188.8278 z M 34.2495,202.1728 C 32.4681,202.4264 31.5203,202.6838 30.7579,203.6653 C 30.8292,202.8293 30.9748,202.1015 31.2667,201.5559 C 31.8858,200.3538 33.7047,200.1002 33.7047,200.1002 L 34.2495,202.1728 L 34.2495,202.1728 z M 43.1949,210.4638 C 42.5038,211.0086 42.467,211.6997 42.395,212.3908 C 42.3214,213.5929 42.8662,214.3553 43.5941,215.0832 C 43.4485,214.0642 43.7397,213.4098 44.0683,212.793 C 44.2852,212.3195 44.905,211.4828 44.905,211.4828 L 43.1949,210.4638 L 43.1949,210.4638 z M 62.215,200.2112 C 62.215,200.2112 63.1597,200.3913 63.7397,201.4471 C 64.5764,203.0094 63.9596,203.9909 62.8318,204.9019 C 62.6487,203.7373 62.7605,203.9197 62.5031,203.3741 C 62.1774,202.5382 61.2672,202.2095 61.2672,202.2095 L 62.215,200.2112 L 62.215,200.2112 z M 87.4874,215.7735 C 87.3418,211.774 89.5232,209.7382 91.0134,208.0993 C 85.2325,210.6837 80.5043,211.9563 77.3781,212.6474 C 74.1065,213.4098 70.6862,215.9912 69.995,219.4459 C 69.4127,222.4287 70.3605,223.5911 70.5774,224.3932 C 71.7052,222.9 73.5609,222.1376 74.6858,221.7009 C 78.4685,220.1738 79.8507,220.9385 83.959,219.4114 C 85.4861,218.8659 86.3228,217.5182 87.4874,215.7735 L 87.4874,215.7735 z M 139.3436,219.6283 C 138.6525,216.1735 134.7617,213.5186 131.4893,212.7187 C 126.7618,211.5571 123.2695,211.0461 117.3055,207.52 C 119.6325,209.9183 121.3801,211.9195 121.1257,215.5567 C 122.288,217.2646 123.4151,218.3549 124.8716,218.9004 C 129.0167,220.4274 131.415,220.6848 134.9073,221.7384 C 136.0344,222.1008 138.2533,223.2654 139.2348,224.1021 C 139.4524,223.3022 139.9259,222.5743 139.3436,219.6283 L 139.3436,219.6283 z M 104.4694,220.973 C 104.4694,220.973 103.6702,225.7379 100.6154,228.7185 C 100.4698,230.3918 100.2867,232.5755 100.361,233.9202 C 100.7235,240.6467 103.2703,242.3568 105.1973,244.4301 C 106.542,243.3023 109.2344,238.5028 109.8887,235.3024 C 110.1799,233.8834 110.3254,232.3188 110.3967,230.7198 C 105.5605,227.6282 104.4694,220.973 104.4694,220.973 L 104.4694,220.973 z M 128.3977,195.9198 C 127.1243,198.4636 123.8151,200.0281 120.9801,200.2112 C 118.0342,200.3538 114.6162,198.718 112.5068,195.5543 C 111.1959,193.6273 110.7622,188.3197 110.2879,184.4995 C 109.7431,183.8827 109.3432,183.1548 108.9064,182.5725 C 107.9985,184.3172 106.1428,187.3375 105.8141,185.4818 C 105.5972,184.2827 105.0517,183.0092 104.4326,181.6278 C 103.9614,182.4269 103.4159,182.935 102.4681,184.2459 C 102.0344,189.3733 100.0331,195.3375 98.1429,197.2277 C 95.9247,199.4834 93.3404,200.756 90.5054,200.645 C 86.3603,200.5369 82.5768,197.3733 81.7409,194.3184 C 80.2131,195.1919 79.1963,196.4653 78.5773,199.4834 C 77.9604,202.247 80.2874,205.9187 82.8687,207.3002 C 84.2134,208.0656 86.3603,208.3567 89.0865,207.8112 C 93.3066,206.9745 99.9243,201.8471 103.0504,199.1915 C 100.3955,202.6095 92.1045,207.8457 90.651,209.847 C 88.6152,212.6819 87.9248,216.4646 89.5232,218.5372 C 90.7966,220.1738 92.9412,220.465 94.1426,220.2106 C 93.997,219.6651 92.578,217.5557 92.7956,215.9566 C 93.2691,212.5731 97.5231,209.447 101.3433,206.7179 C 101.2322,216.0654 97.7062,221.7751 95.3792,223.3367 C 90.1055,226.8658 85.2325,224.9388 83.5966,224.7557 C 83.6334,227.6649 86.8338,231.3021 90.0319,231.702 C 95.0881,232.3188 99.4508,228.6472 101.8888,223.5198 C 104.2525,218.6835 104.8694,211.8107 104.9437,208.6103 C 104.9437,211.8453 105.0149,218.8291 106.4707,223.4485 C 108.1411,228.8641 112.2892,230.9029 115.2705,231.2285 C 120.7977,231.8476 123.707,227.3025 123.6695,225.3012 C 122.6527,225.1924 116.3608,226.429 112.2149,221.6296 C 110.6166,219.7739 107.8874,214.5009 108.9432,206.5745 C 110.5055,208.1736 113.9596,211.5916 114.9786,213.7723 C 115.7785,215.4111 114.9786,217.6292 114.3618,218.8291 C 115.8866,219.157 118.1797,217.8093 119.0877,216.719 C 120.6514,214.792 119.0532,211.3372 117.0519,208.9015 C 115.1617,206.5745 109.7056,202.8639 107.5618,199.4091 C 111.0503,202.8293 116.9063,206.429 119.9978,207.1914 C 124.726,208.3567 129.3424,207.3002 130.7614,202.7551 C 131.5981,200.0281 130.1078,197.3365 128.3977,195.9198 L 128.3977,195.9198 z M 103.196,177.262 C 103.0504,176.6827 102.9048,175.7005 102.8336,175.0439 C 102.7248,175.227 102.5424,175.7718 102.4336,175.9173 C 101.269,177.5532 98.6141,179.6265 98.5421,177.9186 C 98.4686,175.5549 98.0686,174.3528 97.5606,172.0258 C 97.4518,173.919 96.8695,175.1894 96.3239,176.3173 C 95.1961,178.6442 92.578,181.1911 89.743,184.3172 C 86.9426,187.3375 85.6324,190.1012 85.8148,192.2084 C 86.0691,194.7552 87.8506,196.3197 90.2886,196.8653 C 91.9589,197.2277 93.6691,196.5741 94.7969,196.0653 C 93.1978,194.2809 93.486,192.2459 94.8682,189.9901 C 95.996,188.1742 98.9796,185.445 101.3058,183.1548 C 102.288,182.1726 103.4871,181.2646 104.0327,180.0257 C 103.7415,179.3008 103.3791,178.0274 103.196,177.262 L 103.196,177.262 z M 124.8716,188.899 C 124.3606,186.864 123.2328,185.4105 121.6712,184.3539 C 119.7781,183.1181 118.5422,181.6645 117.16,180.1375 C 115.3418,178.173 114.9073,176.4629 114.4338,174.2072 C 114.1427,176.2828 114.2162,176.7172 114.2162,177.8443 C 114.2162,178.7185 112.4325,178.0642 110.7246,176.3541 C 110.5423,177.8076 110.0343,179.1553 109.4145,181.0822 C 109.8512,182.2446 111.3069,184.3539 112.7237,185.4105 C 115.0874,187.0808 117.8878,190.1012 118.7245,192.7907 C 118.9789,193.556 118.579,195.0831 118.251,195.7374 C 120.0354,196.7197 123.2328,195.0463 124.2893,193.7016 C 125.3053,192.4282 125.234,190.2813 124.8716,188.899 L 124.8716,188.899 z M 103.5614,172.9368 C 103.8158,176.5371 105.3774,180.8279 106.6508,183.5915 C 107.7073,182.3557 109.6343,177.9906 109.6688,173.6279 C 108.9432,171.481 108.033,169.5165 108.0698,166.0272 C 107.4875,167.0095 106.034,168.8629 105.8516,168.1351 C 105.6685,167.4439 105.1973,166.4647 104.6863,164.7546 C 104.7606,167.8439 103.5614,172.9368 103.5614,172.9368 L 103.5614,172.9368 z M 135.3808,163.118 C 133.6858,159.3866 128.9434,152.5384 123.2676,147.0316 C 122.5565,149.4015 122.4228,150.6577 122.216,152.2088 C 122.1079,153.0455 121.5969,152.6801 121.0146,152.3176 C 120.4691,154.9725 119.6325,157.6994 118.2878,160.4631 C 117.5474,161.9667 117.4189,163.1411 117.3256,164.3571 C 119.6799,168.9225 123.2957,171.9893 125.2708,173.3735 C 126.5787,174.2447 129.3056,176.8283 130.2534,178.4274 C 130.7614,177.4076 130.8327,173.919 130.2879,171.409 C 129.8879,169.5165 128.6513,165.1538 126.2531,160.2807 C 128.1433,163.0444 129.9968,165.5905 131.1238,168.2461 C 131.998,168.6798 132.7259,168.9372 133.5964,169.2621 C 135.4896,169.9532 138.8356,171.409 140.1061,171.1899 C 138.5069,168.7909 137.1254,167.0095 135.3808,163.118 L 135.3808,163.118 z M 87.9893,148.0806 L 86.9794,146.1713 C 80.8697,151.8066 75.3056,159.4808 73.5234,163.4099 C 71.742,167.2984 70.7597,168.2461 69.1583,170.6443 C 70.4686,170.8642 73.4866,169.7364 75.4136,169.0453 C 76.579,168.6085 77.7781,168.063 78.9772,167.4439 C 79.9962,165.2626 81.3409,162.9724 82.8312,160.7175 C 80.7241,165.0082 79.2684,169.0828 78.6516,171.7009 C 78.1773,173.7735 78.3604,176.4261 78.6516,177.7363 C 79.6676,176.7172 80.8329,175.0806 82.2144,174.0991 C 84.6437,172.435 91.2391,167.4948 93.3888,160.9822 C 92.996,159.8869 92.5699,158.8761 92.2156,157.9538 C 91.67,156.4635 91.3053,154.8269 91.051,153.0455 C 90.651,153.6623 89.9974,154.0623 89.8518,153.5543 C 89.2364,151.4479 88.6084,149.7711 87.9893,148.0806 L 87.9893,148.0806 z M 179.9622,73.1134 C 177.1272,74.5692 173.707,75.7315 170.0728,76.5682 C 169.7074,77.1873 168.8707,77.9497 168.2539,78.4239 C 169.6729,78.1328 171.5999,77.624 172.5454,77.3704 C 174.4348,76.8593 171.8167,84.0593 168.3627,87.2597 C 167.926,87.6972 167.3092,88.1707 166.5805,88.6787 C 167.0893,88.7162 167.6348,88.7507 168.2171,88.8243 C 168.7251,88.8618 169.3442,88.9699 169.964,89.1154 C 172.8733,88.2795 176.3626,87.0061 179.2718,85.2247 C 182.509,83.2602 186.2174,81.0788 189.0186,75.8771 C 190.9456,72.2767 191.708,68.0228 191.5992,65.2223 C 190.2545,66.3869 184.7992,70.6409 179.9622,73.1134 L 179.9622,73.1134 z M 183.8912,85.4415 C 181.9267,85.9525 180.2166,86.2782 178.4006,86.4973 C 175.7458,87.6229 172.7622,88.5331 170.2184,89.1875 C 172.3623,89.6242 174.8716,90.3521 176.9074,90.5689 C 177.3441,90.6065 177.564,90.9689 177.564,91.588 C 183.6001,90.4976 190.0009,89.7698 194.9084,85.807 C 197.381,83.8057 198.4375,80.2796 199.2367,78.4952 C 195.6363,80.6053 187.6364,84.4593 183.8912,85.4415 L 183.8912,85.4415 z M 183.9993,93.5525 C 181.7098,93.3701 179.4174,93.1158 177.236,92.8246 C 176.5449,94.4237 174.7635,96.6418 171.4175,98.8232 C 170.472,99.4423 169.5618,99.9165 168.6538,100.3157 C 169.0163,100.4958 169.3817,100.6789 169.7074,100.8613 C 172.1822,102.2802 176.9074,103.4426 178.2183,103.6962 C 178.5094,103.7337 178.5094,104.1705 178.1808,104.8241 C 182.4347,104.9329 187.8165,104.6072 191.9992,103.0059 C 198.6911,100.4958 201.7092,95.2596 201.9261,92.3504 C 198.9087,93.079 191.2,94.0605 183.9993,93.5525 L 183.9993,93.5525 z M 186.763,108.5701 C 182.9457,107.9165 179.8166,107.2622 177.1272,106.4261 C 176.1082,107.5878 174.5804,108.8245 172.6534,109.7692 C 176.5449,111.297 181.1643,112.7528 185.855,112.644 C 192.3991,112.4984 197.7096,110.389 198.4,109.4068 C 196.3274,109.5148 190.9824,109.3355 186.763,108.5701 z M 177.7095,113.6607 C 175.9626,112.7895 173.9981,111.6249 171.9623,110.3147 C 171.1264,110.6802 170.2184,111.0059 169.2729,111.1882 C 168.1083,111.4426 166.9805,111.5506 165.8902,111.5882 C 166.618,112.0992 167.3092,112.716 167.8915,113.4439 C 169.853,115.7708 173.8525,118.4625 175.3458,119.4792 C 176.145,120.0615 171.9998,122.4628 167.4547,123.1164 C 170.6896,124.8265 175.2002,126.4623 179.3799,126.9711 C 192.9447,128.6437 199.4198,122.7509 200.1446,120.7894 C 197.1641,120.1703 187.7084,118.5713 177.7095,113.6607 L 177.7095,113.6607 z M 183.2369,130.6428 C 181.7444,130.134 179.9622,129.3348 177.9984,128.3158 C 173.5989,127.699 169.6361,125.7345 166.0725,123.2252 C 165.4902,123.2995 164.9447,123.2995 164.3624,123.2619 C 165.9615,125.0809 167.7084,126.9711 169.453,128.715 C 172.6534,130.8251 176.6162,133.2976 181.2356,134.7534 C 185.8182,136.2069 188.4731,136.498 192.4359,136.3892 C 194.1093,136.3525 199.4535,134.4998 200.4013,133.4432 C 198.0721,133.4432 188.9098,132.572 183.2369,130.6428 L 183.2369,130.6428 z M 175.0171,134.7879 C 171.38,132.5352 166.2526,127.0079 162.7633,122.6084 C 162.181,122.5341 160.5084,122.1341 159.8173,121.9172 C 160.0717,122.4253 160.2885,122.7172 160.5084,123.2619 C 161.8531,126.3168 164.1455,128.9349 165.1623,130.4627 C 165.9615,131.6618 159.4173,132.972 152.543,129.8428 C 152.2886,129.7348 152.0718,129.6973 151.4895,129.3348 C 151.635,130.2428 151.7431,131.0795 151.9975,131.9897 C 155.9633,136.2437 160.762,140.1727 165.2703,142.7533 C 175.9626,148.8628 189.8178,148.6092 195.9274,144.4266 C 191.5624,143.0819 182.0355,139.2249 175.0171,134.7879 L 175.0171,134.7879 z M 157.3815,138.5706 C 155.9633,137.2634 154.0355,135.7702 152.6166,134.2424 C 153.0533,136.0268 154.0355,137.6626 154.5443,138.7537 C 154.9067,139.5904 153.3789,139.6272 151.4174,139.2617 C 151.9262,140.3896 152.6886,142.0254 153.1253,142.8988 C 155.0178,145.2258 156.6536,147.2615 158.6527,149.0084 C 163.1265,152.8632 164.7991,155.1188 170.8352,157.5906 C 173.8525,158.8272 178.5462,158.9728 181.7444,158.9728 C 179.5255,158.0994 173.0534,154.499 170.7632,152.4977 C 165.6726,148.0982 161.1252,143.1532 157.3815,138.5706 L 157.3815,138.5706 z M 149.9984,138.9706 C 147.6347,138.4626 145.5622,137.6259 144.252,136.6811 C 142.9808,135.7702 141.8905,134.7166 140.9428,133.5175 C 140.9428,133.9887 140.9428,134.4622 140.9082,134.899 C 140.7972,136.6436 141.9986,140.752 142.2905,141.5887 C 142.5816,142.3541 141.0883,142.3541 138.8701,141.5174 C 140.6171,145.3346 142.2905,148.3181 143.8175,150.4251 C 146.5444,154.2078 150.1073,157.6626 154.6899,159.6639 C 158.6182,161.3365 164.691,161.3365 165.8526,160.4999 C 163.8889,158.2817 158.0359,153.5167 153.0533,144.6435 C 152.3629,143.4076 150.9807,141.263 149.9984,138.9706 L 149.9984,138.9706 z M 140.2892,146.0625 C 139.706,144.7523 139.0157,143.2275 138.3246,141.4431 C 136.6174,140.7175 134.7985,139.6617 133.4538,138.2795 C 133.2339,138.0994 133.0171,137.8427 132.834,137.6259 C 133.6707,140.2807 134.7242,143.262 135.9263,146.6079 C 138.6157,154.099 141.6339,157.0083 143.8888,158.4618 C 143.0529,155.6268 141.9618,154.3167 141.5251,151.4074 C 141.3082,150.0252 140.7259,148.1725 140.2892,146.0625 L 140.2892,146.0625 z M 35.9232,74.7523 C 30.5759,70.2409 28.0658,63.2608 28.5033,55.5146 C 29.5936,57.9871 31.8861,62.9697 34.5042,66.4237 C 35.0122,67.078 35.7033,67.8772 36.3231,68.497 C 36.7598,70.9695 37.8134,73.5869 39.0868,75.7315 C 38.1758,75.4058 36.7944,75.0779 35.9232,74.7523 L 35.9232,74.7523 z M 29.4135,72.4966 C 32.2485,73.9156 35.5232,75.7315 39.1581,76.5682 C 39.5235,77.1873 40.3595,77.9497 40.9763,78.4239 C 39.558,78.1328 37.6303,77.624 36.6856,77.3704 C 34.7953,76.8593 37.4134,84.0593 40.8682,87.2597 C 41.3049,87.6972 41.9218,88.1707 42.6496,88.6787 C 42.1416,88.7162 41.5961,88.7507 41.0138,88.8243 C 40.4683,88.8618 40.3595,88.6787 39.7404,88.7875 C 36.8311,87.9508 33.4851,87.0061 30.6127,85.2247 C 27.3755,83.2602 23.8119,81.0788 21.0114,75.8771 C 19.0845,72.2767 18.1022,67.7316 18.1765,64.8967 C 19.5579,66.0583 24.5773,70.0241 29.4135,72.4966 L 29.4135,72.4966 z M 25.3397,85.4415 C 27.3035,85.9525 29.0136,86.2782 30.8295,86.4973 C 33.4851,87.6229 36.4687,88.5331 39.0125,89.1875 C 36.8679,89.6242 34.3586,90.3521 32.3228,90.5689 C 31.8861,90.6065 31.6317,90.9689 31.6662,91.588 C 25.6308,90.4976 19.9579,89.5529 15.0496,85.5503 C 12.5403,83.5513 11.8837,80.2421 11.1213,78.4952 C 14.7217,80.6053 21.5937,84.4593 25.3397,85.4415 L 25.3397,85.4415 z M 25.2309,93.5525 C 27.5211,93.3701 29.8135,93.1158 31.9949,92.8246 C 32.6852,94.4237 34.4674,96.6418 37.8134,98.8232 C 38.7581,99.4423 39.6691,99.9165 40.5395,100.3157 C 40.2139,100.4958 39.8492,100.6789 39.486,100.8613 C 37.0135,102.2802 32.3228,103.4426 31.0126,103.6962 C 30.7215,103.7337 30.7215,104.1705 31.0494,104.8241 C 26.7954,104.9329 21.4849,104.2793 17.303,102.6802 C 10.6133,100.2077 8.5407,95.3339 8.3209,92.4246 C 11.3382,93.1525 18.0309,94.0605 25.2309,93.5525 L 25.2309,93.5525 z M 22.4672,108.5701 C 26.2844,107.9165 29.4135,107.2622 32.1029,106.4261 C 33.1227,107.5878 34.721,109.0781 36.6488,110.0258 C 32.7573,111.5506 28.1401,112.6072 23.4495,112.4984 C 16.9031,112.3528 12.5403,110.389 11.8492,109.4068 C 13.9225,109.5148 18.2478,109.3355 22.4672,108.5701 L 22.4672,108.5701 z M 31.5206,113.6607 C 33.2683,112.7895 35.2321,111.6249 37.2679,110.3147 C 38.1045,110.6802 39.0125,111.0059 39.9572,111.1882 C 41.1218,111.4426 42.2497,111.5506 43.3407,111.5882 C 42.6129,112.0992 41.9218,112.716 41.3395,113.4439 C 39.3779,115.7708 35.3776,118.4625 33.8851,119.4792 C 33.0852,120.0615 37.4502,122.4628 42.0298,123.1164 C 38.7581,124.8265 35.1578,126.0631 30.9413,126.5712 C 17.3766,128.2445 10.7589,122.4973 10.031,120.5358 C 13.0116,119.9535 21.5225,118.5713 31.5206,113.6607 L 31.5206,113.6607 z M 25.9933,130.6428 C 27.4865,130.134 29.2312,129.3348 31.2325,128.3158 C 35.632,127.699 39.558,125.7345 43.1576,123.2252 C 43.74,123.2995 44.2855,123.2995 44.8678,123.2619 C 43.2687,125.0809 41.5218,126.9711 39.7772,128.715 C 36.5767,130.8251 32.5772,132.972 27.9946,134.4255 C 23.4127,135.8812 20.1035,136.1356 16.1407,136.0268 C 14.4673,135.99 10.7934,134.2424 9.8479,133.1888 C 12.1749,133.1888 20.3203,132.572 25.9933,130.6428 L 25.9933,130.6428 z M 34.213,134.7879 C 37.8134,132.5352 42.9776,127.0079 46.4669,122.6084 C 47.0492,122.5341 48.7225,122.1341 49.4129,121.9172 C 49.1593,122.4253 48.9394,122.7172 48.685,123.2619 C 47.3778,126.3168 45.0854,128.9349 44.0311,130.4627 C 43.2687,131.6618 49.8128,132.972 56.6849,129.8428 C 56.9415,129.7348 57.1591,129.6973 57.7414,129.3348 C 57.5959,130.2428 57.4871,131.0795 57.1959,131.9897 C 53.2676,136.2437 48.6137,140.2807 44.1031,142.8253 C 33.4476,148.9349 20.6115,148.2062 14.5018,144.0267 C 18.8668,142.679 27.1954,139.2249 34.213,134.7879 L 34.213,134.7879 z M 51.9942,138.7162 C 53.45,137.4435 55.1946,135.7702 56.6136,134.2424 C 56.1769,136.0268 55.1601,137.6626 54.6866,138.7537 C 54.2867,139.5904 55.8512,139.6272 57.8127,139.2617 C 57.3047,140.3896 56.5423,142.0254 56.1056,142.8988 C 54.2124,145.2258 52.5765,147.4439 50.5407,149.1885 C 46.1044,153.0087 44.3943,155.3725 38.3957,157.845 C 35.3776,159.0441 31.5206,158.7905 28.3232,158.7905 C 30.5414,157.9538 36.3944,154.6813 38.7214,152.6801 C 43.7775,148.2438 48.2483,143.2988 51.9942,138.7162 L 51.9942,138.7162 z M 59.4516,138.9361 C 61.5954,138.3883 63.6688,137.6259 64.9789,136.6811 C 66.2493,135.7702 67.3404,134.7166 68.2881,133.5175 C 68.2881,133.9887 68.2881,134.4622 68.3219,134.899 C 68.4337,136.6436 67.2316,140.752 66.9404,141.5887 C 66.6493,142.3541 68.1418,142.3541 70.3608,141.5174 C 68.6131,145.3346 66.9404,148.3181 65.4127,150.4251 C 62.6865,154.2078 59.3405,157.5906 54.7579,159.5896 C 50.8319,161.2622 45.0134,161.6997 43.8855,160.863 C 45.8133,158.6449 51.5943,153.7711 56.5768,144.8979 C 57.2672,143.6612 58.4693,141.2262 59.4516,138.9361 L 59.4516,138.9361 z M 69.524,145.8081 C 70.0697,144.609 70.9401,142.6452 71.5967,141.0086 C 73.159,140.3183 74.578,139.5161 75.8139,138.2449 C 76.0338,138.0626 76.6873,137.8427 76.8704,137.6259 C 76.0683,140.0984 75.1228,144.1355 73.9949,147.227 C 71.4856,154.2078 67.8882,156.7547 65.8156,158.0994 C 66.8692,155.3725 67.5595,153.2631 68.1418,150.6075 C 68.3962,149.5539 69.1241,147.7725 69.524,145.8081 L 69.524,145.8081 z M 120.1437,126.3168 C 119.8159,129.5172 118.6535,132.0617 118.2881,131.1905 C 118.0712,130.6428 117.5257,129.5517 116.689,128.3526 C 116.9434,130.8251 117.0522,133.4432 117.0147,136.0613 C 116.9434,138.4993 116.6523,140.8976 117.0522,143.0444 C 117.5602,145.6625 119.1616,148.5349 121.126,150.6818 C 121.6715,148.5717 121.8516,146.0625 123.4154,142.8253 C 123.8896,141.8085 124.652,140.5719 124.8719,138.8993 C 122.9074,137.0436 121.0892,132.461 120.726,129.2981 C 120.615,128.2813 120.3606,127.2623 120.1437,126.3168 L 120.1437,126.3168 z M 94.6516,128.9724 C 94.0693,129.5892 93.5606,130.2796 93.0526,131.0795 C 92.5783,131.8074 91.6703,129.7716 91.3424,126.8623 C 90.9057,128.1357 90.4344,129.5172 89.9602,131.0795 C 88.9787,134.571 87.6678,137.8803 86.2863,139.1904 C 87.3796,145.3001 88.8699,147.2983 90.3234,151.1898 C 91.488,150.4251 92.7239,146.6447 93.415,142.4621 C 93.8149,139.7697 93.9605,134.971 94.7597,132.3529 C 94.5428,130.8251 94.6516,129.9517 94.6516,128.9724 z M 93.1238,117.4434 C 92.2159,118.6058 89.5235,120.7526 88.0707,121.9518 C 85.9606,123.7332 84.2137,123.9163 83.1602,125.9889 C 83.197,129.5172 84.724,134.8254 85.0872,138.3537 C 87.5597,136.8635 88.0332,132.461 89.6691,128.3526 C 90.3234,126.7535 90.9057,125.4066 91.4512,124.3155 C 91.996,119.6991 93.1238,117.4434 93.1238,117.4434 L 93.1238,117.4434 z M 101.4524,119.2249 C 101.0524,121.3695 100.3613,122.8627 98.3968,125.1154 C 97.3433,126.3168 96.4698,127.0079 95.6331,127.9159 C 95.6331,128.4269 95.5964,129.3716 95.6331,130.0259 C 95.8162,133.9542 96.9411,135.8069 97.3433,139.2249 C 99.5246,137.5546 100.2158,134.6078 102.4339,129.626 C 102.6883,129.0805 102.9051,128.607 103.0882,128.0982 C 102.2291,125.4259 101.1605,122.0545 101.4524,119.2249 z M 114.5797,126.0256 C 112.1072,123.2619 111.0161,121.5893 110.3595,119.1881 C 110.3595,121.4062 110.1059,122.0261 109.1236,124.9721 C 108.8692,125.772 108.47,126.7535 108.1414,127.807 C 108.3612,128.6437 108.7612,129.4804 108.9435,130.4251 C 109.5979,134.7166 111.1249,138.1339 112.9063,139.2249 C 113.1607,136.5356 115.5619,132.7896 115.7075,128.715 C 115.7443,128.2813 115.7443,127.8791 115.7788,127.4791 C 115.4164,127.0424 115.0532,126.5344 114.5797,126.0256 L 114.5797,126.0256 z M 123.7786,122.3172 C 121.2715,120.7159 119.5615,118.8969 119.5615,118.8969 C 119.5615,118.8969 120.215,121.0438 120.1782,123.8788 C 120.798,125.4808 121.7428,127.188 122.1427,129.1525 C 122.7618,132.3897 123.8154,136.0981 125.5968,137.6626 C 126.3254,134.4255 127.998,130.0259 128.1436,127.807 C 126.7621,125.88 124.8719,123.0083 123.7786,122.3172 z M 102.5795,78.7863 C 102.4339,77.0049 103.8874,76.7138 103.7786,75.4426 C 103.5963,72.859 99.9959,72.0231 98.5424,70.932 C 97.1242,69.9153 94.9428,68.6764 94.2149,65.9127 C 92.907,65.4047 92.1048,64.3856 91.8504,62.8609 C 91.6703,61.733 92.0703,60.7508 92.2872,60.1317 C 91.7424,59.5862 91.1601,59.0781 90.3234,58.7495 C 87.7421,57.8415 86.4319,57.879 84.796,58.3128 C 83.8138,58.5694 81.0869,59.8405 80.6156,60.714 C 81.9603,60.6427 85.2328,60.5309 86.6142,61.0764 C 90.1778,62.4586 89.7779,67.1861 92.5415,69.2219 C 93.8892,70.1696 96.9411,71.1151 99.0136,73.2245 C 102.1428,76.4594 101.1605,81.0788 100.7238,81.3332 C 100.287,81.6243 97.2322,80.2053 93.5981,80.4252 C 91.2681,80.5332 88.3964,81.3699 87.4141,84.4593 C 88.3619,84.2049 91.4137,82.6779 93.1981,82.5323 C 97.852,82.2066 100.5782,84.5703 102.4339,84.3137 C 103.9962,84.0968 104.7241,83.1146 104.2161,81.8412 C 103.7073,80.6053 102.7251,80.7876 102.5795,78.7863 z M 108.5436,123.3707 C 110.1059,118.5345 110.1802,113.5894 110.1802,113.5894 C 110.1802,113.5894 111.4528,120.8239 114.5054,124.0619 C 115.8531,125.5176 117.7426,127.7703 118.508,128.9724 C 119.3071,127.6615 119.5983,122.5341 118.6881,118.497 C 118.2168,116.8979 116.689,114.2063 116.1067,113.2983 C 117.2691,114.643 120.0357,118.3514 122.7618,119.7704 C 125.1601,121.007 127.8157,125.6264 128.8347,127.3335 C 128.9803,126.9336 129.0516,126.3513 129.0516,125.6977 L 129.0516,125.261 C 129.017,122.4253 127.9613,118.1713 126.6166,116.4612 C 124.1808,113.4439 121.4516,111.5882 119.6703,110.1347 C 118.4337,109.1524 117.089,107.7334 116.578,106.6431 C 115.7788,104.7873 115.0532,102.7883 115.4877,99.8422 C 116.4699,101.0068 117.3434,101.2612 118.9079,100.7157 C 119.8893,100.3878 120.615,99.5166 121.0149,98.86 C 118.2881,98.352 117.5602,97.8064 116.578,96.533 C 115.2333,94.8229 115.4164,92.4959 115.4164,90.3153 C 115.9611,91.1512 116.578,91.1145 117.1603,91.0799 C 116.7235,90.0234 115.3076,87.9141 115.8156,83.4425 C 115.9987,81.6956 116.1788,80.3509 116.1788,78.532 C 114.4255,76.8054 113.0405,74.5204 112.4328,72.1311 C 112.1903,70.8145 112.0155,69.8292 111.9997,69.7397 C 112.4233,71.7485 113.6493,74.6586 115.3504,76.4656 C 116.6324,77.8274 118.1707,78.5883 119.673,78.3034 C 120.3557,78.1739 121.0311,77.8283 121.6715,77.2248 C 122.3964,76.5337 122.4339,75.2235 122.8331,74.7147 C 121.3804,74.0957 119.2336,75.5514 117.8881,74.278 C 116.689,73.1134 115.8531,69.9873 114.8333,67.6603 C 114.5054,66.8604 113.8143,66.0958 112.7607,65.2591 C 110.5466,63.9151 108.3859,62.6348 106.0688,61.4786 C 103.1963,60.1317 100.9781,59.4406 98.18,58.8238 C 97.4153,58.8238 96.0331,58.8238 95.4163,59.0039 C 94.2149,59.4061 92.8695,60.1317 92.9415,62.1697 C 92.9783,64.2768 94.834,64.3511 96.433,64.2056 C 98.6512,63.9857 99.9246,63.7688 101.4524,64.4967 C 103.4162,65.4422 103.7418,66.5325 104.2528,68.7882 C 103.3419,67.1516 102.5427,66.2781 101.5605,65.6958 C 101.9229,66.0245 102.6515,69.3675 99.6702,68.5338 C 98.3233,68.1684 97.6322,66.8604 97.4153,65.7333 C 97.1977,65.7671 97.0521,65.7333 96.7985,65.7671 C 96.1419,65.9127 95.7419,65.987 95.2339,65.8789 C 95.8507,67.586 97.3778,69.1138 98.76,69.8785 C 100.7613,70.932 103.5963,71.843 104.3984,74.4956 C 105.5975,78.2408 102.106,78.0607 104.1786,80.0598 C 105.9975,81.7699 105.3432,85.5158 103.2338,85.7327 C 102.7251,85.7695 101.6693,85.5158 100.9069,85.296 C 100.9781,87.6597 100.8326,89.8778 100.6525,91.2233 C 100.0334,95.3714 97.7777,98.1689 96.8698,99.4798 C 97.5234,99.4798 98.0344,99.4798 98.8711,98.6799 C 98.5799,99.8422 97.8145,102.389 96.3955,104.6072 C 93.5981,109.0443 91.7049,110.2802 87.234,113.4439 C 81.8147,117.3354 82.0691,122.6084 82.4691,124.7897 C 84.1792,122.6796 86.6885,121.3695 89.0155,119.8792 C 92.507,117.6603 95.6707,113.224 95.6707,113.224 C 95.6707,113.224 93.5606,117.9522 93.1614,120.4983 C 92.7614,123.0796 92.1048,127.4446 92.7614,129.3716 C 94.2884,127.3335 96.433,125.1154 98.5056,122.8965 C 101.3061,119.8792 102.8706,113.4806 102.8706,113.4806 C 102.8706,113.4806 102.4684,120.3902 103.0882,123.4796 C 103.633,126.0631 104.3984,129.0805 105.7063,130.4627 C 106.8298,128.1365 107.6655,125.7832 108.5436,123.3707 L 108.5436,123.3707 z M 98.1432,65.479 C 98.2888,66.1701 98.6512,67.2604 99.6335,67.586 C 100.7613,67.986 101.4149,66.7869 101.1237,65.6591 C 100.287,65.2591 99.6335,65.2591 98.1432,65.479 z M 115.8156,62.3131 C 116.8691,62.4241 117.3801,61.5874 118.0345,60.5309 C 118.5793,59.6605 119.9238,59.0406 120.4694,58.787 C 121.4884,58.2782 121.8884,57.3305 122.5795,56.6769 C 123.2698,56.0601 123.3441,55.6601 124.2153,55.1499 C 125.0145,54.7124 126.5078,54.533 127.379,54.4242 C 127.3069,53.7331 125.7799,52.2774 124.3977,52.4597 C 122.9419,52.6773 121.8516,54.7124 121.8516,54.7124 C 121.8516,54.7124 121.2715,53.2221 119.4872,53.0053 C 118.7969,52.8597 117.3434,53.5508 116.7235,53.6964 C 116.578,54.533 117.2691,55.4035 117.6345,56.2402 C 118.18,57.2967 119.9238,57.0769 119.9238,57.0769 C 119.9238,57.0769 118.3624,58.0959 117.1978,57.9871 C 116.4354,57.9503 116.0332,57.9135 115.7075,57.2224 C 115.5244,56.7857 115.3421,55.6601 115.3421,55.6601 C 115.3421,55.6601 114.651,55.6234 113.4886,55.7689 C 112.2527,55.9145 111.1962,55.6601 110.7249,54.35 C 110.2514,53.1508 110.9426,50.9327 110.9426,50.9327 C 110.9426,50.9327 111.4873,52.4942 112.8695,53.442 C 113.5974,53.9132 114.8333,53.7331 115.9611,53.4052 C 115.9611,52.4942 115.8869,52.1686 115.2333,51.0783 C 114.5422,49.9504 112.9438,50.1673 111.8873,50.6415 C 112.2527,49.1513 112.835,47.5867 112.2152,45.731 C 110.7249,46.2045 109.9258,47.6235 109.1604,49.2226 C 108.8692,48.5682 108.47,47.6948 107.8877,47.4411 C 106.3254,46.7868 105.1976,47.15 104.2528,47.7323 C 104.8697,49.1513 105.052,50.1328 105.96,50.6783 C 107.379,51.515 109.306,50.3504 109.306,50.3504 C 109.306,50.3504 108.5781,52.1686 107.379,52.7854 C 105.5975,53.6588 104.1418,52.7854 103.4507,51.6951 C 103.0882,51.0783 102.9051,50.5327 102.6515,49.6225 C 101.9972,50.0592 101.6693,50.2416 100.5414,50.1673 C 98.9799,50.096 98.6887,47.6235 98.6887,47.6235 C 98.6887,47.6235 99.4166,48.6403 100.687,48.169 C 101.9229,47.7323 103.1963,46.9324 103.1963,46.9324 C 103.1963,46.9324 101.8516,45.6222 100.5414,45.1509 C 99.1967,44.6775 98.2512,45.1142 98.2512,45.1142 C 98.2512,45.1142 98.4343,43.1129 97.5977,42.0218 C 97.0154,41.294 95.342,41.1139 94.2884,41.3315 C 94.4685,41.9138 95.7419,42.8217 96.1074,43.7695 C 96.4698,44.5686 97.1242,45.5509 96.9065,47.258 C 96.6874,49.1513 96.9786,49.3681 97.2322,50.8239 C 97.4888,52.2399 96.3242,53.9132 97.6689,54.8242 C 95.7787,55.2234 96.3618,57.1512 97.4153,57.5136 C 99.5246,58.2047 102.1428,58.2782 106.2511,60.2397 C 110.3595,62.1697 112.0696,63.3321 113.4151,64.2768 C 114.8333,65.2959 116.0332,63.0777 115.8156,62.3131 L 115.8156,62.3131 z M 91.9592,75.2235 C 93.6694,75.697 95.6707,76.3881 97.4521,77.8416 C 97.9233,78.2408 99.1592,79.1863 100.1415,80.023 C 100.2158,79.7686 100.3613,79.4062 100.3613,78.9319 C 99.5622,77.6615 98.9056,77.0049 98.36,76.3881 C 97.2697,75.2603 95.6331,74.2037 94.6516,73.77 C 93.6694,73.2958 91.5968,72.751 89.161,72.859 C 87.0142,72.9333 84.9416,72.9678 84.9416,72.9678 C 84.9416,72.9678 85.5239,71.9886 86.215,71.2975 C 86.8686,70.6776 87.8876,69.8785 87.8876,69.8785 C 87.8876,69.8785 86.5062,69.9498 85.9606,70.0953 C 85.0159,70.3497 84.796,70.8607 83.6337,70.9695 C 81.8147,71.1151 79.343,70.7865 77.1241,68.2059 C 76.2506,67.2236 74.9059,64.9679 74.9059,64.9679 C 74.9059,64.9679 75.1603,67.8772 76.7961,70.932 C 78.1063,73.37 80.2134,74.0957 83.705,74.5324 C 86.9429,74.9323 89.561,74.5692 91.9592,75.2235 L 91.9592,75.2235 z M 113.9599,141.3343 C 113.9253,141.9541 111.9241,140.4638 110.7625,138.7537 C 110.6169,140.6439 110.2882,142.1342 109.9971,143.9156 C 110.6514,146.6447 112.9806,150.3539 114.762,151.8809 C 115.162,149.7708 115.4877,145.8801 116.0332,143.8443 C 115.4164,137.7347 115.9244,137.5546 115.7443,134.3167 C 115.1965,136.1356 113.9599,139.1904 113.9599,141.3343 L 113.9599,141.3343 z M 100.3958,137.8082 C 98.6887,140.1727 96.5411,142.171 96.433,141.6254 C 96.3242,141.0431 95.5964,137.0803 95.2339,134.8254 C 94.7597,138.2795 94.6884,140.3528 94.2884,143.0444 C 94.9428,145.0802 96.433,150.0995 97.3433,152.3176 C 99.3423,150.245 100.8693,147.5159 101.3061,144.4634 C 100.7238,142.679 100.4701,139.1529 100.3958,137.8082 z M 108.7237,134.3167 C 108.2524,132.6808 107.9988,130.9339 107.6701,129.226 C 107.2334,130.4994 106.8709,131.7361 106.6166,132.461 C 106.3967,133.1888 104.9064,131.6618 103.6705,129.2981 C 103.3051,130.4251 103.0882,131.045 102.6883,132.1353 C 102.0685,133.7719 101.8516,134.6078 101.2325,136.0613 C 101.2325,138.0258 101.3061,141.263 102.0685,143.4444 C 103.3419,146.8248 104.7609,148.8974 105.7431,152.0265 C 107.2709,150.062 108.1068,147.8438 109.1236,143.262 C 109.4148,141.8431 109.7802,138.7162 109.9258,137.3715 C 109.3435,136.4268 108.978,135.3702 108.7237,134.3167 L 108.7237,134.3167 z M 96.3955,153.8454 C 95.8875,151.8809 94.834,148.6437 93.7774,146.0625 C 93.2326,147.9181 92.5783,150.645 91.8504,151.8809 C 92.2872,154.0255 92.6503,156.1348 93.1238,157.4083 C 94.1061,160.0264 95.5596,163.118 95.8162,165.1538 C 97.9976,162.4621 99.271,158.3905 99.6702,156.2804 C 99.9614,154.7159 99.7423,152.9712 99.9614,151.153 C 98.9423,152.6433 96.6529,154.7534 96.3955,153.8454 L 96.3955,153.8454 z M 116.689,146.3903 C 116.07,148.3181 115.5244,151.5897 115.4164,153.2631 C 115.3788,154.2078 112.6895,152.0632 111.4528,149.8451 C 111.2337,152.8999 111.5249,156.0268 112.1439,158.0994 C 112.7607,160.1719 114.6877,163.9179 115.7443,164.9369 C 116.3243,162.4621 117.5257,158.4618 118.508,156.5003 C 119.5615,154.3902 119.5983,153.2999 120.1437,151.664 C 119.3071,150.8986 117.1603,148.3181 116.689,146.3903 L 116.689,146.3903 z M 97.0866,166.0992 C 97.3433,170.4275 99.4879,172.828 99.779,176.4629 C 101.3061,175.1182 102.2516,173.0081 103.125,170.3532 C 103.5617,169.0085 103.8529,164.7546 103.7418,162.9724 C 102.3258,160.3543 101.0149,157.5171 100.7981,154.3167 C 100.5782,157.4083 99.8878,161.6997 97.0866,166.0992 z M 109.0148,164.5002 C 109.0523,166.9727 109.5603,173.0081 113.0151,175.7718 C 113.3063,173.5536 113.4519,172.2802 114.0709,170.4275 C 114.9421,167.8439 114.9076,165.5905 114.9076,165.5905 C 113.1607,163.3356 111.1249,160.7542 110.9793,158.3162 C 110.6169,161.2255 110.0346,162.6812 109.0148,164.5002 z M 109.3802,146.2792 C 108.0333,151.0817 106.471,154.0623 105.5608,153.991 C 105.0895,153.991 103.5963,149.8451 101.8891,145.7346 C 101.706,146.716 101.5605,147.6982 101.3061,148.4261 C 101.4149,152.8632 101.6693,155.8092 102.7251,158.4618 C 103.5617,160.5719 105.5233,163.698 106.5055,165.7736 C 108.3612,163.9179 109.7802,158.6449 110.3257,154.3167 C 110.2169,152.2809 110.2882,150.4619 110.5794,148.5717 C 110.3595,148.0637 109.5603,146.716 109.3802,146.2792 L 109.3802,146.2792 z M 168.2174,109.9148 C 171.9258,108.8612 175.6005,105.6607 175.8916,104.316 C 174.5094,104.316 171.0546,103.297 168.5453,102.0236 C 166.2897,100.8613 162.9092,99.1511 160.1455,99.1886 C 162.1445,98.6431 164.7251,99.0055 167.2006,99.951 C 167.9998,99.5511 168.871,99.0431 169.7445,98.3887 C 172.6537,96.3162 174.8351,93.6238 175.1638,91.5512 C 173.1992,91.3688 169.9643,90.3153 167.455,89.9866 C 164.8369,89.6242 162.3614,90.0234 158.8728,91.4799 L 158.8728,91.4424 C 161.091,89.8778 162.7636,89.15 164.7251,88.9331 C 165.4905,88.242 166.1441,87.5141 166.6896,86.9686 C 169.8187,83.6226 170.6554,80.6053 170.9436,79.1143 C 169.1622,79.7686 166.0728,79.8767 163.8892,80.2421 C 160.6167,80.7509 157.8163,82.7521 155.3092,84.4593 C 155.3092,84.4593 158.8728,79.4062 167.0551,78.6408 C 171.0546,71.2975 173.8904,64.8591 170.3643,55.5491 C 168.3255,50.0592 163.2724,46.8956 160.58,46.242 C 162.2533,50.8584 162.5813,55.0035 160.18,58.9693 C 159.1978,60.6052 157.2362,63.7688 156.7995,65.8414 C 155.8173,70.2784 160.7623,75.2603 155.3805,81.1876 C 155.3805,81.1876 156.9451,77.696 156.834,75.4426 C 156.0716,76.1337 155.4893,76.5682 154.6181,77.1873 C 152.2889,78.8974 150.9442,79.3319 148.3261,80.8589 C 144.7971,82.9322 142.7988,86.4238 142.9444,89.333 C 143.1612,94.0237 149.3084,93.9149 151.3067,94.606 C 152.4713,95.006 154.327,95.4052 154.1079,97.8439 C 154.0358,98.4232 152.2889,99.8422 151.381,100.5701 C 149.9987,101.6979 148.4349,103.4051 148.2173,104.4984 C 147.7438,106.971 150.3619,107.7709 152.0346,110.2059 C 153.1999,111.8793 152.3632,114.7173 150.6156,114.7173 C 149.454,114.7173 147.4527,114.6055 146.2536,114.751 C 144.617,114.9709 142.9444,115.8076 140.4351,117.2611 C 138.9072,118.1713 138.108,119.3704 136.8714,120.0248 C 135.4156,120.7894 133.9621,120.7526 131.5241,120.1703 C 130.9272,120.0399 130.1488,119.6238 129.322,119.1484 C 131.2155,123.9845 130.0386,129.883 129.4515,129.4436 C 129.3802,129.3716 129.0891,129.0805 129.017,128.9724 C 128.9661,129.3223 128.9079,129.6723 128.8353,130.0263 C 130.2591,132.7036 131.7734,135.0875 132.9798,136.2812 C 135.9266,139.1161 138.5072,139.844 140.6174,140.1352 C 140.0719,137.8427 139.5608,136.0268 139.5608,134.6078 C 139.5608,131.7706 138.9439,127.8446 138.1448,125.4066 C 139.3439,127.4078 140.3262,130.134 140.6174,132.3529 C 141.343,132.8977 142.3245,133.6256 143.7435,134.6078 C 145.9992,136.2069 149.7076,137.8082 152.5433,137.4803 C 151.381,135.2989 150.873,133.4432 150.1818,130.4994 C 149.2709,126.68 148.3974,124.6809 146.5447,122.4253 C 148.5085,123.6987 149.9987,124.5699 151.0185,128.2813 C 151.3067,128.3901 151.5633,128.4614 151.7434,128.5357 C 155.235,130.0627 162.1445,130.2796 163.2724,129.6628 C 161.7078,128.2813 160.1087,126.4623 159.0184,124.5354 C 157.6362,122.0628 156.8716,119.0425 155.0181,117.1523 C 156.5084,117.8434 157.8163,119.2249 158.9441,121.0438 C 159.5264,121.1526 160.1087,121.2607 160.7255,121.3695 C 165.7074,122.2797 171.2002,120.3159 172.9081,119.0793 C 170.801,117.9147 168.4365,116.6068 166.4728,114.2798 C 164.3627,111.7337 161.7821,110.6059 158.4729,108.8988 C 158.4729,108.8988 161.3078,109.4068 164.2546,110.8603 C 165.6729,110.6059 167.0551,110.2802 168.2174,109.9148 L 168.2174,109.9148 z M 131.0904,135.0445 C 131.4528,137.3347 131.9983,142.2453 132.3263,144.1723 C 132.5806,145.7346 133.5621,148.3893 133.8541,149.5915 C 129.5472,147.6027 127.5589,143.5886 126.7021,139.1889 C 126.9207,137.518 127.3716,134.8322 128.506,131.2994 C 128.5092,131.2894 128.5125,131.2794 128.5156,131.2694 L 131.0904,135.0445 L 131.0904,135.0445 z M 41.0138,109.9148 C 37.3046,108.8612 33.4851,105.8063 33.1595,104.4616 C 34.5755,104.4616 38.1758,103.297 40.6851,102.0236 C 42.9408,100.8613 46.3213,99.1511 49.085,99.1886 C 47.0492,98.6431 44.5053,99.0055 42.0298,99.951 C 41.2307,99.5511 40.3595,99.0431 39.486,98.3887 C 36.5767,96.3162 34.3586,93.7693 34.0674,91.6968 C 36.032,91.5144 39.2661,90.3153 41.7762,89.9866 C 44.3943,89.6242 46.8323,90.0234 50.3584,91.4799 L 50.3584,91.4424 C 48.1402,89.8778 46.4323,89.15 44.5053,88.9331 C 43.74,88.242 43.0864,87.5141 42.5408,86.9686 C 39.4125,83.6226 38.2501,80.4252 37.959,78.9687 C 39.7404,79.5885 43.1576,79.8767 45.342,80.2421 C 48.577,80.7509 51.4142,82.7521 53.9212,84.4593 C 53.9212,84.4593 50.1783,79.0062 41.996,78.2408 C 38.0302,70.8953 35.9577,64.7136 39.4492,55.4035 C 41.5218,49.9504 46.758,46.2758 49.4504,45.659 C 47.777,50.2416 47.8858,55.3322 50.2871,59.295 C 51.3031,60.9309 52.7964,64.568 53.2309,66.6413 C 54.1778,71.0776 48.4681,75.2603 53.8499,81.1876 C 53.8499,81.1876 52.3964,77.2248 52.5398,74.9691 C 53.2676,75.6602 53.8499,76.0227 54.7234,76.6425 C 57.0503,78.3519 58.4325,78.8606 61.0507,80.3877 C 64.5767,82.461 67.2316,86.4238 67.086,89.333 C 66.8692,94.0237 60.0309,94.2781 58.0326,94.9339 C 56.868,95.3339 55.8857,95.4052 56.1056,97.8439 C 56.1769,98.4232 57.3415,99.371 58.2127,100.0966 C 59.6317,101.2237 61.7785,103.5169 61.9954,104.6072 C 62.4689,107.1166 59.4516,107.7709 57.7782,110.2059 C 56.6136,111.8793 57.3415,114.5342 59.0861,114.5342 C 60.2507,114.5342 61.7785,114.2798 62.9776,114.3886 C 64.6135,114.6055 66.2869,114.9341 68.7962,116.3899 C 70.3233,117.2979 71.1232,118.7168 72.3223,119.3337 C 73.8156,120.0991 75.2684,120.7526 77.7064,120.1703 C 78.8148,119.9282 80.5495,118.7028 82.0492,117.9378 C 80.4247,121.6029 81.1878,125.6296 81.8384,127.1291 C 80.0654,130.8787 77.8621,134.6673 76.2138,136.2812 C 73.3046,139.1161 70.6865,140.1727 68.6131,140.4263 C 69.1241,138.1339 69.6696,136.0268 69.6696,134.6078 C 69.6696,131.7706 70.2865,127.8446 71.0857,125.4066 C 69.8865,127.4078 68.9042,130.134 68.6131,132.3529 C 67.8882,132.8977 66.9059,133.6256 65.4869,134.6078 C 63.2313,136.2069 59.3773,137.9883 56.5423,137.6259 C 57.6672,135.4445 58.3583,133.4432 59.0494,130.4994 C 59.9596,126.68 60.833,124.6809 62.6865,122.4253 C 60.722,123.6987 59.1949,124.5699 58.2127,128.2813 C 57.9238,128.3901 57.6672,128.4614 57.4871,128.5357 C 53.9955,130.0627 47.0867,130.4251 45.9588,129.8083 C 47.5234,128.4614 48.6505,126.1344 49.7416,124.2074 C 51.123,121.7349 52.3597,119.0425 54.2124,117.1523 C 52.7221,117.8434 51.4142,119.2249 50.2871,121.0438 C 49.7048,121.1526 49.1217,121.2607 48.5049,121.3695 C 43.5231,122.2797 38.3214,120.6438 36.6143,119.408 C 38.7581,118.2433 40.3227,116.6068 42.2497,114.2798 C 44.3943,111.7337 47.4491,110.6059 50.7583,108.8988 C 50.7583,108.8988 47.8858,109.4068 44.9766,110.8603 C 43.5576,110.6059 42.1761,110.2802 41.0138,109.9148 L 41.0138,109.9148 z M 83.6227,135.1785 C 83.6454,140.7227 82.4709,146.321 76.0338,149.226 C 76.6131,147.5527 77.4873,145.7346 77.7409,144.1723 C 78.1776,141.5887 78.3975,137.5891 78.5776,134.9335 L 82.4082,129.2347 C 82.6563,131.4855 83.1613,133.4542 83.6227,135.1785 L 83.6227,135.1785 z "
   id="path16"
   style="fill:#ffc900;fill-rule:nonzero;fill-opacity:1" />
 </g>
</svg>