<?xml version="1.0" encoding="UTF-8" standalone="no"?>
<!-- Creator: CorelDRAW -->
<svg
   xmlns:dc="http://purl.org/dc/elements/1.1/"
   xmlns:cc="http://web.resource.org/cc/"
   xmlns:rdf="http://www.w3.org/1999/02/22-rdf-syntax-ns#"
   xmlns:svg="http://www.w3.org/2000/svg"
   xmlns="http://www.w3.org/2000/svg"
   xmlns:sodipodi="http://sodipodi.sourceforge.net/DTD/sodipodi-0.dtd"
   xmlns:inkscape="http://www.inkscape.org/namespaces/inkscape"
   xml:space="preserve"
   width="744"
   height="815.7984"
   style="shape-rendering:geometricPrecision; text-rendering:geometricPrecision; image-rendering:optimizeQuality; fill-rule:evenodd; clip-rule:evenodd"
   viewBox="0 0 210 297"
   id="svg2"
   sodipodi:version="0.32"
   inkscape:version="0.45.1"
   sodipodi:docname="POL województwo śląskie COA.svg"
   inkscape:output_extension="org.inkscape.output.svg.inkscape"
   sodipodi:docbase="C:\Users\Mistrz\Desktop\Herby"
   version="1.0"><metadata
   id="metadata21"><rdf:RDF><cc:Work
       rdf:about=""><dc:format>image/svg+xml</dc:format><dc:type
         rdf:resource="http://purl.org/dc/dcmitype/StillImage" /></cc:Work></rdf:RDF></metadata><sodipodi:namedview
   inkscape:window-height="480"
   inkscape:window-width="640"
   inkscape:pageshadow="2"
   inkscape:pageopacity="0.0"
   guidetolerance="10.0"
   gridtolerance="10.0"
   objecttolerance="10.0"
   borderopacity="1.0"
   bordercolor="#666666"
   pagecolor="#ffffff"
   id="base" />
 <defs
   id="defs4">
  <style
   type="text/css"
   id="style6">
   
    .fil2 {fill:white}
    .fil0 {fill:#0A0B0C;fill-rule:nonzero}
    .fil1 {fill:#3044B5;fill-rule:nonzero}
    .fil3 {fill:#FCD116;fill-rule:nonzero}
   
  </style>
 </defs>
 <g
   id="Warstwa_x0020_1"
   transform="matrix(1.2898126,0,0,1.2898126,-30.430518,-43.037165)">
  <metadata
   id="CorelCorpID_0Corel-Layer" />
  <path
   class="fil0"
   d="M 210,158.693 C 210,216.6792 163.0074,263.633 105.017,263.633 C 47.0306,263.633 0,216.6788 0,158.693 L 0,33.367 L 209.985,33.367 L 210.0003,158.693 L 210,158.693 z "
   id="path10"
   style="fill:#0a0b0c;fill-rule:nonzero" />
  <path
   class="fil1"
   d="M 207.941,158.493 C 207.941,215.3424 161.8698,261.376 105.017,261.376 C 48.1675,261.376 2.059,215.3422 2.059,158.493 L 2.059,35.624 L 207.927,35.624 L 207.9419,158.493 L 207.941,158.493 z "
   id="path12"
   style="fill:#3044b5;fill-rule:nonzero" />
  <path
   class="fil0"
   d="M 143.676,129.707 C 143.8331,135.6832 145.1009,151.701 145.2467,154.1918 C 145.6805,160.7365 146.6716,166.8998 148.9118,168.9043 C 145.9573,169.6448 135.6278,167.4645 132.6472,160.0783 C 130.1115,154.087 130.1115,137.3176 130.1115,133.7684 C 130.1115,129.1909 129.5319,127.2274 129.5319,127.2274 C 129.1616,136.1582 125.4405,144.0231 123.4883,147.1085 C 128.8587,147.7293 132.7369,164.222 134.9696,172.4385 C 133.6756,173.9195 132.8566,174.7235 132.8566,174.7235 C 133.728,175.7108 149.0726,197.5478 155.1274,199.3953 C 160.9055,199.0774 168.2692,197.5067 172.3307,198.1425 C 174.4288,198.4828 175.5657,198.8942 176.568,200.147 C 180.405,205.0425 176.6054,209.0778 174.3091,210.5962 C 174.5223,209.2498 174.4549,206.228 172.8206,205.3566 C 170.0344,205.4501 167.5437,205.1061 164.3611,205.1061 C 169.8661,206.4674 172.7421,208.9992 173.4938,210.6747 C 174.0323,211.9425 174.0473,212.3913 174.0473,213.8797 C 173.9276,217.0474 172.1998,218.3788 170.5094,219.4596 C 168.8339,220.3459 167.5699,220.2113 165.6813,220.3459 C 167.9513,218.6817 168.8489,216.808 168.5198,215.357 C 166.605,212.8101 160.8793,210.3045 158.4259,209.9492 C 160.7858,212.4436 164.032,216.5463 163.5047,220.1328 C 162.91,225.4658 157.5695,226.6663 155.4976,225.2676 C 156.9749,224.0521 157.7939,221.8755 157.0123,219.8822 C 153.624,213.7077 149.8766,207.7576 141.5106,207.6417 C 140.9197,208.0344 140.1269,208.4981 140.2989,209.5527 C 140.3887,211.3217 141.4844,212.6419 142.5017,213.8423 C 137.0639,214.6576 133.9112,211.0562 134.0459,207.4958 C 134.1094,205.7531 134.2964,205.3566 134.9023,203.9467 C 136.776,201.2428 142.3446,201.3849 143.2796,200.6594 C 143.5974,200.263 143.2534,200.1844 143.029,199.9862 C 139.8875,196.3586 130.6389,184.5107 127.3553,181.1336 C 126.2595,183.0073 123.3985,190.1205 123.133,190.8834 C 122.658,190.0532 113.6226,172.2552 111.446,167.2289 C 111.8274,172.1094 110.8513,189.0771 113.1326,196.6091 C 116.8014,208.9992 131.787,221.5203 144.02,216.8604 C 143.661,220.1328 142.8831,224.2354 140.1269,226.6925 C 136.5628,229.8564 129.5842,231.0195 125.0478,228.6709 C 122.2878,227.7733 125.074,228.9738 123.8323,228.1809 C 127.0785,233.7084 127.7779,242.9197 127.1571,247.0335 C 120.0214,246.839 114.4902,239.939 112.6315,233.6972 C 113.1999,239.3967 107.2872,252.763 104.9386,254.7264 C 102.3544,252.5909 96.4043,239.939 96.9989,234.1834 C 95.1365,240.4663 89.8745,246.839 82.7239,247.0335 C 82.1031,242.9197 83.1989,232.8782 85.8355,228.0089 C 84.6088,228.8017 86.1534,228.1174 84.8856,228.6185 C 80.0312,230.7278 74.2532,229.9761 69.6494,226.3858 C 66.837,223.8951 66.2424,220.1328 65.8609,216.8604 C 78.1052,221.5203 92.9225,208.8683 96.8119,196.6091 C 99.3737,188.4189 98.0386,171.425 98.263,168.4705 C 96.0864,173.4445 87.3389,189.9485 86.8639,190.846 C 86.5872,190.0382 83.4756,182.8502 82.3387,181.0289 C 79.0663,184.3275 69.9897,196.3586 66.837,199.9862 C 66.6538,200.1844 66.3097,200.263 66.6276,200.6594 C 67.4878,201.355 72.6749,201.254 74.788,203.64 C 76.0707,205.1472 76.067,208.5355 75.2255,210.3194 C 74.1073,212.698 71.3623,214.4407 67.3644,213.8423 C 68.4078,212.6419 69.7018,211.1497 69.8177,209.3695 C 69.9823,208.154 68.5835,207.623 67.6561,207.6679 C 59.75,208.1653 55.1612,215.1139 52.9435,219.4222 C 52.6294,221.5464 52.9173,224.0521 54.4095,225.2676 C 52.405,226.1502 47.0607,226.1091 46.7316,220.0542 C 46.597,216.6659 49.0802,212.4436 51.455,209.9492 C 49.0017,210.3045 43.2872,212.8101 41.3612,215.357 C 41.0321,216.808 41.9296,218.6817 44.211,220.3459 C 42.3223,220.2113 41.0583,220.3459 39.394,219.4596 C 37.64,218.3788 35.7813,216.995 35.6093,213.8423 C 35.7926,212.7728 35.8449,211.9425 36.3872,210.6747 C 37.1277,208.9992 40.0148,206.4674 45.5423,205.1061 C 42.3223,205.1061 39.8428,205.4501 37.0604,205.3566 C 35.4522,206.228 35.37,209.2498 35.5943,210.5962 C 33.2869,209.0778 29.2366,205.7418 33.3916,200.263 C 34.3938,199.0101 35.4522,198.4828 37.5465,198.1425 C 41.6791,197.5067 48.9606,199.0774 54.7386,199.3953 C 60.7934,197.5478 76.3512,175.5538 77.2338,174.5627 C 77.2338,174.5627 76.2054,173.9195 74.9002,172.4385 C 77.1291,164.222 81.1644,147.9275 86.2169,147.359 C 84.2909,144.2325 80.768,136.1582 80.3342,127.2274 C 80.3342,127.2274 79.7545,129.1909 79.7545,133.7684 C 79.7545,137.3176 79.7545,154.087 77.2488,160.0783 C 74.2532,167.4645 63.92,169.6448 60.9393,168.9043 C 63.2617,166.8998 64.1705,160.7365 64.6193,154.1918 C 64.7801,151.701 66.0592,135.9749 66.1788,130.0099 C 66.2162,129.1796 66.1788,128.4915 66.1639,128.125 C 65.2551,131.8162 63.92,132.6876 63.1159,132.9644 C 63.0261,134.3369 61.4292,156.3721 60.6102,161.477 C 59.2638,171.1482 57.4313,177.5845 55.2809,181.6348 C 53.0108,186.0029 49.2373,189.9073 42.2438,191.1228 C 36.7313,191.5977 31.0579,188.6545 30.7288,185.6327 C 38.3282,186.6237 42.6028,169.5102 44.671,158.3093 C 45.4114,153.283 47.3113,132.7549 47.244,129.0338 C 47.244,129.0338 45.5311,129.0487 44.5812,127.7136 C 44.4877,129.404 43.3919,143.032 42.457,149.8909 C 41.6791,154.5882 38.6573,169.2222 26.5589,168.6388 C 24.3299,168.4817 18.6304,165.976 16.8465,160.8711 C 20.6873,162.4643 25.1602,156.3571 26.873,150.7361 C 28.9972,143.7314 30.74,114.2838 30.5568,106.6059 C 30.0294,107.8849 29.5657,108.4796 29.0384,108.6105 C 28.8925,108.5843 29.0384,119.4822 27.879,122.1076 C 25.8333,127.2274 19.8683,130.6831 14.7484,128.585 C 12.9944,127.8483 9.8567,125.8811 9.4715,122.2011 C 10.6982,122.7134 15.1336,121.9243 15.5301,110.9329 C 15.9489,101.2205 16.0162,92.6451 16.1995,84.006 C 14.8943,85.0345 11.3601,84.5707 10.8852,82.3567 C 13.9855,80.7336 16.3341,75.2435 15.6722,62.9731 C 15.5562,60.8788 15.818,57.1165 16.2668,55.4822 C 16.6894,54.1882 19.5915,45.7847 29.3825,44.9246 C 32.666,44.9246 35.5682,45.3621 38.6573,46.7608 C 45.2282,49.7415 53.3811,62.7637 41.6267,73.1604 C 41.2041,98.1763 63.9873,100.8802 79.3992,101.6693 C 80.0312,101.6693 80.9811,101.6431 81.587,101.5646 L 80.4651,99.8368 C 85.1885,100.0874 97.2869,89.7841 94.583,73.3848 C 92.7505,69.7946 88.2103,69.8469 82.3799,71.0624 C 82.2864,70.2695 82.3799,68.8446 83.7374,67.6703 C 80.955,68.5155 76.0857,69.2149 72.8545,67.1954 C 70.4797,65.8116 69.3315,63.3321 70.704,60.9835 C 72.7871,63.0554 73.6997,64.4241 77.7088,64.3344 C 81.1382,64.1362 84.807,60.7441 90.8095,61.6679 C 93.764,61.9446 96.4679,63.6612 98.2256,65.1534 C 96.3519,62.4458 91.7183,58.3693 87.036,57.8682 C 82.3537,57.2474 78.842,61.3388 78.4194,61.1144 C 77.9444,60.0971 79.1748,52.3818 80.9138,49.648 C 82.3387,47.3555 84.2647,46.6673 86.5236,46.6673 C 90.7833,46.8917 94.6092,48.6345 97.2233,49.9659 C 97.6721,49.4236 98.5996,48.7766 99.2653,48.5223 C 102.6349,47.2208 108.7869,49.1917 111.891,50.8111 C 117.5793,53.7805 120.6909,55.0334 125.1375,60.9311 C 126.1136,62.2102 129.7563,62.7637 129.7563,62.7637 C 128.2117,66.9598 125.8257,68.2238 122.7627,67.618 C 122.6992,67.9882 122.7253,67.9097 122.6468,68.3173 C 123.2901,70.2172 127.3403,69.5178 128.1593,69.8731 C 126.7345,74.2151 122.2878,75.3894 120.3767,74.5591 C 119.913,75.4156 119.3483,76.444 118.6751,77.3827 C 114.9128,83.7816 115.9413,92.2374 125.1637,97.7649 C 126.1136,98.3595 128.3052,99.216 129.6515,99.7582 C 129.7563,99.7844 128.754,101.3402 128.4249,101.6693 C 128.8737,101.7366 129.861,101.7628 130.2724,101.7366 C 145.5235,101.3028 168.6769,98.1763 168.2281,73.1604 C 156.4737,62.7637 164.6117,49.7415 171.1826,46.7608 C 174.3091,45.3621 177.2,44.9246 180.4724,44.9246 C 190.2595,45.7847 193.1504,54.1882 193.5843,55.4822 C 194.033,57.1165 194.2574,60.8788 194.22,62.9731 C 193.5319,75.2435 195.9067,80.7336 198.9547,82.3567 C 198.4947,84.5707 194.9568,85.0345 193.7189,84.006 C 193.8498,92.6451 193.9022,101.2205 194.3397,110.9329 C 194.7212,121.9243 199.1679,122.7134 200.3534,122.2011 C 200.0243,125.8811 196.8566,127.8483 195.1026,128.585 C 189.9828,130.6831 184.0215,127.2274 181.9758,122.1076 C 180.8015,119.4822 180.9735,108.5843 180.8015,108.6105 C 180.2854,108.4796 179.8104,107.8849 179.2719,106.6059 C 179.0849,114.2838 180.88,143.7314 182.9668,150.7361 C 184.6946,156.3571 189.1525,162.4643 193.0457,160.8711 C 191.2244,165.976 185.5398,168.4817 183.2959,168.6388 C 171.1826,169.2222 168.1757,154.5882 167.4091,149.8909 C 166.4479,143.032 165.3671,129.404 165.2736,127.7136 C 164.3237,129.0487 162.5809,129.0338 162.5809,129.0338 C 162.5547,132.7549 164.4284,153.283 165.2212,158.3093 C 167.252,169.5102 171.5416,186.6237 179.141,185.6327 C 178.7819,188.6545 173.1609,191.5977 167.6335,191.1228 C 160.6175,189.9073 156.829,186.0029 154.5589,181.6348 C 152.4347,177.5845 150.6134,171.1482 149.2446,161.477 C 148.3994,156.3721 146.8287,134.3369 146.724,132.9644 C 145.9573,132.6876 144.5848,131.8162 143.7134,128.125 C 143.676,128.4541 143.676,128.9814 143.676,129.707 L 143.676,129.707 z "
   id="path14"
   style="fill:#0a0b0c;fill-rule:nonzero" />
  <path
   class="fil2"
   d="M 105.011,57.3502 C 104.5776,58.2697 104.6779,59.0196 105.0657,59.9396 C 105.3253,59.2391 105.6619,58.5728 106.1683,57.9824 L 105.011,57.3502 L 105.011,57.3502 z M 102.9035,56.5595 C 102.5595,58.1265 102.6642,59.8544 104.3284,60.9389 C 105.4878,61.6121 108.2702,60.5537 108.4834,59.0241 C 108.6293,59.2485 109.9868,59.4467 110.5029,60.1348 C 109.7886,61.096 107.0585,63.2352 104.0105,62.1244 C 100.9364,60.2919 101.531,57.2552 101.7292,55.8714 C 102.0696,56.0547 102.638,56.3052 102.9035,56.5595 L 102.9035,56.5595 z "
   id="path16"
   style="fill:#ffffff" />
  <path
   class="fil3"
   d="M 31.1547,97.0808 C 31.0351,103.9434 30.4554,108.3228 25.8629,108.2555 C 20.6645,107.7543 21.9996,101.0787 21.9996,94.231 C 21.8388,90.207 22.2614,82.4505 22.4484,79.324 C 24.3856,85.6705 27.4074,92.2377 31.1547,97.0808 z M 104.6016,118.8467 C 105.948,118.6635 115.0508,107.3018 111.741,100.2447 C 114.0335,105.1776 121.2514,106.2472 124.9464,105.0205 C 125.9076,107.7917 128.4955,114.3477 128.5479,121.6591 C 128.3646,133.3611 126.1058,138.4248 123.2971,144.3637 C 118.8243,153.1486 108.2704,168.295 104.7998,173.0334 C 101.3442,168.295 91.0933,153.7844 86.6204,144.9845 C 83.7969,139.0457 81.5268,133.3611 81.3286,121.6591 C 81.2874,114.0448 83.479,108.3191 84.7468,104.5979 C 89.8928,106.8269 94.721,103.7527 97.3314,100.0877 C 94.1263,107.9114 103.2815,118.6111 104.5755,118.7682 C 104.4446,118.7682 104.5343,118.7682 104.6016,118.8467 L 104.6016,118.8467 z M 98.1616,215.2152 C 96.6582,220.8474 95.8653,225.4661 96.46,231.9173 C 94.1375,238.0395 91.0896,244.7824 83.9502,245.6239 C 83.9502,245.6239 83.2247,236.9848 87.6713,227.4445 C 91.1008,225.0435 94.4928,222.9866 98.1616,215.2152 L 98.1616,215.2152 z M 98.3449,166.1222 C 93.2923,159.0913 89.3842,153.2085 86.9458,148.313 C 81.4707,148.7356 76.2199,172.1134 76.2199,172.1134 C 80.9546,176.2833 86.1156,183.8827 87.0243,187.918 C 87.8696,186.4146 96.733,168.7737 98.3449,166.1222 z M 111.7784,215.2152 C 113.3753,222.1676 113.8503,225.1632 113.2594,231.5995 C 115.608,237.7365 118.8243,244.7824 125.9225,245.6239 C 125.9225,245.6239 126.8463,237.1419 122.4407,227.6016 C 118.9701,225.2417 116.6626,224.5012 111.7784,215.2152 L 111.7784,215.2152 z M 112.0552,165.2695 C 117.3994,158.2236 120.2492,152.3782 122.9381,148.3167 C 128.402,148.7244 133.6004,172.1022 133.6004,172.1022 C 128.9144,176.2721 123.7721,183.8865 122.8745,187.9105 C 122.0032,186.4183 113.6521,167.8687 112.0552,165.2695 z M 104.9083,175.1427 C 105.7647,173.9422 109.5233,168.9682 110.5517,167.016 C 110.5517,167.016 109.2727,189.8665 112.1374,197.9932 C 115.6978,208.1394 128.5217,221.7823 142.5087,218.6932 C 142.1497,221.371 141.3083,224.0113 138.9858,225.8176 C 134.7373,228.7459 129.6175,228.9965 124.6584,227.336 C 118.1661,223.9702 113.6932,217.2683 110.5517,209.3922 C 109.9459,207.8215 109.2091,205.9366 108.521,203.1916 C 108.4163,202.5184 107.5599,202.7839 107.7431,203.3636 C 108.0199,206.0525 108.4425,206.5686 109.1156,209.6017 C 110.6191,216.1352 111.6737,221.2812 111.9766,225.1594 C 112.7433,234.999 109.8935,244.9881 104.9345,252.7857 C 99.9343,244.9881 97.1481,234.999 97.8998,225.1594 C 98.1766,221.2812 99.2873,216.1352 100.7496,209.6017 C 101.4377,206.5686 101.7668,206.1872 102.0698,203.4421 C 102.268,202.8737 101.3854,202.6493 101.2507,203.3374 C 100.5663,206.0525 99.9343,207.8215 99.3397,209.3922 C 96.1047,217.1898 91.7253,223.9702 85.2479,227.336 C 80.2627,228.9965 75.1279,228.7459 70.8682,225.8176 C 68.5869,224.0113 67.7679,221.371 67.3565,218.6932 C 81.3435,221.7823 93.4793,207.8888 97.754,197.9932 C 100.6037,191.3849 99.2088,167.3301 99.2088,167.3301 C 100.2111,169.2599 104.0107,173.9422 104.9083,175.1427 L 104.9083,175.1427 z M 40.3361,215.361 C 40.2837,216.6027 40.7475,218.409 41.8133,219.2654 C 40.8896,219.2804 38.885,218.1173 38.2792,217.3656 C 37.6845,217.0103 36.8543,215.0431 36.7496,213.6594 C 36.7162,213.5721 36.697,213.4544 36.6919,213.3115 C 37.66,214.3614 38.93,215.2202 40.3665,215.2866 C 40.3561,215.3114 40.3459,215.3361 40.3361,215.361 z M 36.8949,211.9673 C 36.961,211.7287 37.0431,211.4765 37.1422,211.2173 C 38.4512,208.2778 44.8875,206.5724 48.7806,205.1101 C 49.5473,204.7399 50.4711,204.6351 49.9026,204.3173 C 46.1665,203.8946 42.0527,204.2275 38.1595,204.4107 C 37.6912,204.4502 37.1635,204.4006 36.5937,204.5326 C 35.1563,203.2632 34.6751,201.5236 34.7607,200.2599 C 34.7977,200.2327 34.8358,200.205 34.8759,200.1772 C 36.2858,199.1189 38.2792,199.2909 40.467,199.2535 C 46.2862,199.2909 54.0202,201.1907 55.6545,200.4914 C 61.7504,197.9071 76.6837,177.7082 77.9515,175.7149 C 78.7032,176.4404 81.3286,179.2116 81.4595,179.9634 C 77.7533,184.3315 65.3631,199.8594 64.6264,201.0337 C 64.5067,202.1818 67.7641,202.1818 69.4396,202.5109 C 71.0776,202.7877 73.2542,203.2364 74.335,205.0428 C 74.619,205.548 74.8013,206.3733 74.8782,207.1385 C 73.3672,208.2345 71.6123,208.3494 70.4128,208.0208 C 70.3549,207.8852 70.3059,207.7749 70.2848,207.7093 C 68.0446,205.5963 65.0864,206.7706 62.6592,207.7617 C 58.1864,209.6765 55.0337,213.6444 52.8047,217.4965 C 52.5697,217.9692 52.1455,218.8711 51.8788,219.7908 C 50.1881,220.2461 48.6117,219.821 47.5812,219.1585 C 47.5986,218.8891 47.6391,218.5819 47.7111,218.2631 C 48.4104,214.4784 51.6155,211.322 54.1511,208.446 C 50.602,208.2217 46.1029,210.5329 43.2382,212.1934 C 42.4129,212.7517 41.5161,213.5048 40.8961,214.3624 C 38.9885,214.1716 37.5995,213.0615 36.8949,211.9673 L 36.8949,211.9673 z M 35.6563,205.0505 C 34.9213,205.8911 34.7805,207.4669 34.7674,208.5807 C 32.6543,207.7759 31.856,203.2519 33.8054,201.2677 C 34.0061,202.679 34.5522,204.1373 35.6563,205.0505 L 35.6563,205.0505 z M 51.6568,220.895 C 51.6741,222.2094 51.9525,223.9555 52.8833,224.8453 C 50.2167,225.1443 47.9904,223.3649 47.6266,220.3199 C 48.8702,220.9106 50.3257,221.2538 51.6568,220.895 z M 74.9014,208.3711 C 74.8734,208.6742 74.8133,208.8918 74.7202,208.9621 C 74.4547,210.4543 72.3567,212.7207 69.2189,213.0535 C 69.9616,212.5695 70.7916,209.9902 70.7105,209.1133 C 72.1102,209.2737 73.6908,209.138 74.9014,208.3711 z M 29.3895,46.4171 C 44.521,45.2577 52.3298,62.4872 40.3922,73.056 C 39.4535,104.0594 76.9118,102.6457 82.1738,102.5933 C 82.6113,103.2927 83.1648,103.8873 83.823,104.3623 C 82.7011,106.408 80.6703,113.0425 80.446,115.5257 L 80.4198,116.6327 C 80.0645,116.5916 79.4437,116.7113 78.7967,116.7113 C 52.8833,116.7375 30.4554,105.0766 22.8448,76.2199 C 22.6989,74.9147 22.5157,72.6446 21.4723,73.4786 C 21.1693,73.7292 21.3937,74.9933 21.6555,76.1825 C 21.2741,80.6816 20.4812,97.8587 20.8103,102.369 C 20.9711,104.7176 21.3937,106.3295 22.1978,107.4252 C 21.8425,114.8788 21.8687,117.0927 19.9689,119.8116 C 19.3742,120.668 20.4289,120.3913 20.4289,120.3913 C 22.7663,118.3493 22.9084,114.9573 23.1477,108.3864 C 24.3482,109.1269 25.8928,109.2952 27.8824,109.0446 C 27.8824,109.0446 28.2152,117.9118 26.6968,121.9508 C 25.257,125.3541 22.2651,127.5045 17.882,128.058 C 14.2693,128.3497 10.982,124.838 10.6005,123.3869 C 11.7337,123.2934 12.5266,122.9007 14.3591,120.9747 C 18.2672,117.5041 16.3786,86.527 17.1976,81.5791 C 14.1609,85.1806 12.5677,82.9479 12.3283,82.5029 C 14.0562,80.9172 17.4856,78.7817 17.0779,58.9231 C 17.0667,55.0337 21.1282,46.5629 29.3895,46.4171 L 29.3895,46.4171 z M 178.7035,97.0808 C 178.8232,103.9434 179.3879,108.3228 183.9804,108.2555 C 189.19,107.7543 187.8587,101.0787 187.8587,94.231 C 188.0569,90.207 187.623,82.4505 187.4099,79.324 C 185.4988,85.6705 182.4621,92.2377 178.7035,97.0808 z M 167.0688,107.9152 C 167.3044,111.1726 167.4653,112.6797 167.6747,115.2378 C 167.8355,117.6911 169.1669,121.4272 173.0339,121.4796 C 178.3894,120.5558 178.4417,114.8825 178.3482,109.815 C 178.3108,108.6407 177.8882,101.7668 177.6638,98.3636 C 174.4588,102.2418 170.8012,105.4207 167.0688,107.9152 L 167.0688,107.9152 z M 155.5875,113.7755 C 155.8268,117.0217 156.1298,120.1744 156.2345,122.1154 C 156.4738,124.8081 158.1231,128.5816 162.4763,128.0655 C 165.5766,127.4072 167.0688,124.1872 166.8033,118.4466 C 166.5266,113.237 166.2498,111.9692 166.2087,108.4986 C 162.6596,110.7836 159.0207,112.5488 155.5875,113.7755 z M 143.1338,116.8983 L 143.16,117.4518 C 143.5302,121.2664 143.7135,126.2666 144.4128,128.2824 C 145.101,129.6025 146.4062,132.7178 150.2844,132.5308 C 154.0168,131.8465 154.4805,129.6025 155.0078,126.8725 C 155.3107,124.2209 154.8881,118.7981 154.559,114.127 C 153.8447,114.3776 153.2015,114.5758 152.5545,114.7329 C 149.2933,115.709 146.1032,116.3971 143.1338,116.8983 L 143.1338,116.8983 z M 129.5021,117.8108 C 129.7526,121.5731 130.2799,126.5321 131.2186,129.251 C 131.9292,130.6759 133.0362,133.7613 136.533,133.7613 C 139.5286,133.5518 141.2302,131.2705 142.1427,128.0617 C 142.6962,126.1245 142.2736,121.5207 142.0866,117.0217 C 136.705,117.7846 132.1947,117.9043 129.5021,117.8108 L 129.5021,117.8108 z M 180.4687,46.4171 C 165.3635,45.2577 157.5247,62.4872 169.4661,73.056 C 170.3898,104.0594 133.9113,102.7916 127.7107,102.5933 C 127.2469,103.2927 126.6934,103.8873 126.0203,104.3623 C 127.1534,106.408 129.1729,113.0425 129.3973,115.5257 L 129.4385,116.6327 C 129.8199,116.5916 130.3884,116.7113 131.0616,116.7113 C 156.9712,116.7375 179.4141,105.0766 187.0247,76.2199 C 187.1705,74.9147 187.3575,72.6446 188.386,73.4786 C 188.6739,73.7292 188.4645,74.9933 188.199,76.1825 C 188.6104,80.6816 189.3883,97.8587 189.033,102.369 C 188.8871,104.7176 188.4645,106.3295 187.6604,107.4252 C 188.0569,114.8788 188.0045,117.0927 189.8894,119.8116 C 190.484,120.668 189.4144,120.3913 189.4144,120.3913 C 187.092,118.3493 186.9461,114.9573 186.6843,108.3864 C 185.5213,109.1269 183.9804,109.2952 181.9721,109.0446 C 181.9721,109.0446 181.6318,117.9118 183.1464,121.9508 C 184.5975,125.3541 187.5931,127.5045 191.9725,128.058 C 195.5889,128.3497 198.9137,124.838 199.3213,123.3869 C 198.1208,123.2934 197.3055,122.9007 195.4692,120.9747 C 191.591,117.5041 193.4909,86.527 192.6606,81.5791 C 195.6824,85.1806 197.3055,82.9479 197.5037,82.5029 C 195.7871,80.9172 192.3689,78.7817 192.7653,58.9231 C 192.7915,55.0337 188.7001,46.5629 180.4687,46.4171 L 180.4687,46.4171 z M 178.6063,116.5804 C 178.3146,120.2604 175.7415,122.2687 172.8394,122.4108 C 174.384,154.8016 177.2599,156.0695 180.0573,160.303 C 180.9138,161.2155 179.8068,160.9238 179.5824,160.6209 C 177.7723,158.8407 173.0376,156.3574 172.0092,122.3061 C 170.4534,122.0181 168.5124,120.9485 167.9327,119.101 C 167.9701,120.4586 167.6822,125.5111 166.3096,126.6219 C 167.0988,135.8294 167.4054,142.3479 167.8131,145.9083 C 168.9462,155.1831 171.9942,165.1835 180.9138,167.2815 C 184.1338,167.9809 190.2671,165.0152 191.045,161.8999 C 187.9709,161.2529 183.6438,158.721 181.3775,148.2831 C 179.9638,141.6486 178.883,122.2687 178.6063,116.5804 L 178.6063,116.5804 z M 147.7712,133.4845 C 147.7712,133.4845 149.2485,153.9602 150.3704,161.1519 C 152.2441,173.4485 153.9719,179.0284 157.6407,184.1333 C 162.4277,189.9114 170.861,193.0005 177.6937,186.6278 C 174.7654,186.4819 172.3906,183.5274 171.9157,182.5887 C 168.116,176.403 164.9483,166.0324 164.077,157.9169 C 163.4711,154.0275 161.388,132.6131 161.6498,129.1949 C 158.5756,128.9967 156.8216,127.3624 156.242,125.4513 C 156.1896,127.0856 155.9129,128.7199 155.2509,130.0663 C 157.0984,164.989 160.8569,176.3095 165.6888,182.5251 C 166.5864,183.4601 165.8459,183.6321 165.1204,183.1721 C 162.4426,180.2027 156.0812,172.8539 154.3272,131.637 C 152.9696,133.3013 150.8828,134.21 147.7712,133.4845 L 147.7712,133.4845 z M 142.6327,130.0251 C 141.7501,132.5047 139.9699,134.4157 137.4492,134.8122 C 138.1748,157.5317 140.5084,160.6994 140.5084,160.6994 C 140.5084,160.6994 140.299,161.2529 139.7979,160.7779 C 139.5323,160.1571 137.3557,161.3987 136.4993,134.9318 C 134.3601,134.973 132.105,133.5593 131.1812,131.6595 C 131.4318,133.9295 131.2074,153.7059 133.8066,159.4465 C 136.7761,166.6869 145.8938,167.9958 147.1055,167.9285 C 145.9574,166.7542 144.8878,163.7474 144.1249,155.7628 C 143.2535,144.3375 142.4232,131.3827 142.6327,130.0251 L 142.6327,130.0251 z M 169.5649,215.289 C 169.6485,216.5615 169.147,218.2797 168.1235,219.1345 C 168.9949,219.1719 171.0368,217.9864 171.6576,217.2347 C 172.1785,216.9042 173.0027,215.0902 173.1464,213.6947 C 172.167,214.6282 170.9357,215.3261 169.5649,215.289 z M 173.1188,212.2554 C 173.0388,211.9142 172.9145,211.5337 172.7422,211.1387 C 171.4856,208.1693 165.0344,206.4265 161.1038,204.9642 C 160.3782,204.6351 159.4695,204.5416 160.0342,204.2125 C 163.7292,203.7226 167.8318,204.0929 171.7511,204.3173 C 172.3197,204.3173 172.9547,204.2418 173.6618,204.4961 C 175.0267,203.2668 175.5107,201.6111 175.4602,200.3703 C 175.3484,200.265 175.2208,200.1556 175.0759,200.0426 C 173.651,198.973 171.6726,199.145 169.4698,199.145 C 163.5983,199.16 155.9054,201.0449 154.2823,200.3605 C 148.1751,197.7987 133.2531,177.5885 131.933,175.5802 C 131.2224,176.3469 128.5708,179.092 128.4773,179.8437 C 132.1461,184.223 144.5325,199.7247 145.273,200.8729 C 145.3777,202.021 142.1577,202.0472 140.4822,202.4024 C 138.8479,202.6792 136.6302,203.1429 135.5756,204.9119 C 135.3051,205.4061 135.1372,206.1897 135.0643,206.9278 C 136.4748,208.0892 138.1516,208.3277 139.4006,208.1102 C 139.4971,207.8799 139.6028,207.6871 139.6632,207.6008 C 141.8436,205.4504 144.8616,206.6247 147.2514,207.642 C 151.7093,209.553 154.8881,213.5135 157.0947,217.3656 C 157.391,217.844 157.814,218.7767 158.0688,219.7116 C 159.7114,220.2423 161.2687,219.9207 162.3523,219.3258 C 162.3644,219.0114 162.342,218.6171 162.2519,218.1697 C 161.5002,214.3176 158.2951,211.2173 155.8007,208.3152 C 159.3348,208.0758 163.7815,210.4244 166.6724,212.0737 C 167.5531,212.6503 168.533,213.4757 169.1324,214.3775 C 170.9655,214.2544 172.3409,213.2847 173.1188,212.2554 z M 174.4246,205.1566 C 174.9866,206.0453 175.1073,207.4626 175.1282,208.4722 C 177.1536,207.7345 177.9574,203.6067 176.3779,201.4728 C 176.1454,202.875 175.5634,204.2952 174.4246,205.1566 L 174.4246,205.1566 z M 158.2665,220.804 C 158.2054,222.165 157.949,223.8156 157.0685,224.7256 C 159.6075,225.0157 161.7945,223.359 162.2487,220.4725 C 160.9905,221.0061 159.5563,221.2609 158.2665,220.804 L 158.2665,220.804 z M 135.0381,208.1801 C 135.065,208.5174 135.1261,208.7589 135.2203,208.8275 C 135.497,210.3197 137.5951,212.6272 140.7216,212.9039 C 140.0298,212.4742 139.2142,210.1093 139.1831,209.1443 C 137.7562,209.2579 136.19,209.0489 135.0381,208.1801 L 135.0381,208.1801 z M 99.385,69.8431 C 95.6789,66.4099 91.0751,64.3679 85.4803,66.1855 C 83.8198,66.9784 77.7912,68.4444 73.6848,66.5558 C 71.2464,65.1458 70.7041,63.9566 71.1679,62.6364 C 72.8695,64.5512 73.883,65.3702 77.8697,65.2244 C 81.3253,65.0112 85.4429,62.2437 89.9793,62.7299 C 93.5958,63.074 96.3408,64.4839 98.2257,66.1855 C 98.8727,66.9933 99.6768,69.5402 99.385,69.8431 L 99.385,69.8431 z M 96.266,50.8895 C 96.4792,51.7347 96.6774,52.7632 96.8345,54.8089 C 97.2833,58.1336 97.9302,59.8203 99.4187,61.866 C 102.7434,65.6806 104.3815,70.1236 102.4143,73.0556 C 99.961,75.7446 97.9041,74.559 95.8696,72.5545 C 92.1896,68.3434 87.1221,69.1475 83.3224,70.1236 C 84.5117,67.1167 87.7691,65.9424 92.414,67.0793 C 93.9959,67.6179 96.4119,68.4369 99.1681,70.9052 C 99.6057,71.2343 100.3424,71.1146 100.4621,70.4826 C 100.6342,69.7945 100.3948,68.3434 100.1442,67.5393 C 98.7605,63.332 95.3684,59.8614 91.1873,57.9728 C 84.9193,55.0595 80.6447,58.0401 79.5227,59.0162 C 79.5638,58.1598 79.7359,51.0728 83.3224,48.6344 C 87.5858,45.837 95.7387,50.796 96.266,50.8895 L 96.266,50.8895 z M 120.6648,57.3632 C 123.1443,59.3939 124.1092,62.9281 128.3053,63.3507 C 126.8393,66.9784 123.1443,67.0719 122.0523,66.3351 C 121.9438,66.8213 121.8391,67.4832 121.6297,68.3397 C 122.5385,70.965 125.837,70.6098 126.8281,70.6098 C 124.6215,74.5777 120.5863,73.7475 119.8719,73.0481 C 119.2923,74.2225 118.2376,75.7932 117.1306,77.7977 C 114.0565,84.2116 115.6796,90.3711 118.7537,94.1334 C 121.0201,96.8111 126.0876,100.2256 127.6957,100.3864 C 126.2712,102.7572 125.3681,103.8153 122.565,104.1945 C 119.0558,104.6696 114.2129,103.6052 111.4685,97.7199 C 111.3114,97.1814 110.3727,97.1515 110.4662,97.8246 C 111.1544,100.5323 111.6293,104.6723 110.5859,107.3912 C 109.2919,111.52 104.9125,117.2195 104.5049,117.3803 C 104.0038,117.141 99.4224,110.6635 98.222,106.2692 C 97.5637,103.3933 98.3678,98.8157 99.3327,96.77 C 99.4224,96.2838 98.6595,96.0183 98.2893,96.6129 C 95.0693,102.7463 90.0579,105.5848 84.3696,103.2212 C 83.0382,102.5892 82.3762,100.8876 82.3388,100.5585 C 89.897,99.6871 98.222,84.3948 95.8995,74.013 C 97.9976,75.9129 99.5421,76.0961 101.4046,75.2397 C 103.0538,74.4356 104.2917,72.3376 104.3179,70.965 C 104.359,68.9343 104.1721,66.9933 102.4854,64.4353 C 102.3807,64.1024 99.673,61.017 98.9363,58.904 C 98.6857,58.0887 97.5226,54.88 97.8143,53.3242 C 98.9886,54.7752 100.0059,55.1343 100.4546,55.3699 C 100.0059,56.8471 100.1891,58.9863 100.7164,60.1606 C 101.8907,62.5616 103.0239,63.074 104.2394,63.3918 C 107.882,64.1436 110.3091,62.4157 111.5358,60.9497 C 111.8126,60.7515 112.9607,61.8735 113.9106,62.599 C 114.307,62.6401 115.0064,62.6514 114.9129,62.2437 C 114.4529,60.8974 111.4685,59.0237 110.5074,58.5226 C 108.4205,57.6923 100.1891,53.773 98.8315,52.6921 C 97.6462,51.5394 98.2668,50.2222 99.4883,49.5793 C 101.7643,48.3797 105.1294,49.7237 107.407,50.2762 C 111.3226,51.5851 117.9609,55.0408 120.6648,57.3632 L 120.6648,57.3632 z M 42.8161,107.9148 C 42.5543,111.1722 42.3673,112.6793 42.1728,115.2374 C 42.012,117.6907 40.6806,121.4268 36.8024,121.4792 C 31.4731,120.5554 31.417,114.8821 31.5105,109.8146 C 31.5517,108.6403 31.9743,101.7664 32.1987,98.3632 C 35.4149,102.2414 39.0314,105.4203 42.8161,107.9148 z M 54.2675,113.7751 C 54.0431,117.0213 53.714,120.174 53.6205,122.115 C 53.3849,124.8077 51.7356,128.5812 47.3824,128.0651 C 44.2821,127.4068 42.8161,124.1868 43.0667,118.4462 C 43.3584,113.2366 43.6463,111.9688 43.6725,108.4982 C 47.2366,110.7832 50.8119,112.5484 54.2675,113.7751 L 54.2675,113.7751 z M 66.7062,116.8979 L 66.6651,117.4514 C 66.3098,121.266 66.164,126.2662 65.4384,128.282 C 64.754,129.6021 63.4339,132.7174 59.5818,132.5304 C 55.8457,131.8461 55.3595,129.6021 54.8434,126.8721 C 54.5293,124.2205 54.9781,118.7977 55.3446,114.1266 C 56.0178,114.3772 56.6648,114.5754 57.3379,114.7325 C 60.5579,115.7086 63.763,116.3967 66.7062,116.8979 L 66.7062,116.8979 z M 80.3305,117.8104 C 80.1323,121.5727 79.5638,126.5317 78.6139,129.2506 C 77.9295,130.6755 76.8225,133.7609 73.3108,133.7609 C 70.3414,133.5514 68.6285,131.2701 67.7048,128.0613 C 67.1363,126.1241 67.5851,121.5203 67.7721,117.0213 C 73.1537,117.7842 77.664,117.9039 80.3305,117.8104 L 80.3305,117.8104 z M 31.2525,116.58 C 31.5554,120.26 34.0873,122.2683 37.0044,122.4104 C 35.486,154.8012 32.5726,156.0691 29.8014,160.3026 C 28.945,161.2151 30.0632,160.9234 30.2502,160.6205 C 32.0977,158.8403 36.8062,156.357 37.8608,122.3057 C 39.3941,122.0177 41.3463,120.9481 41.926,119.1006 C 41.8587,120.4582 42.1766,125.5107 43.5603,126.6215 C 42.7563,135.829 42.4533,142.3475 42.0457,145.9079 C 40.8714,155.1827 37.8608,165.1831 28.945,167.2811 C 25.6838,167.9805 19.5879,165.0148 18.825,161.8995 C 21.9103,161.2525 26.2261,158.7206 28.4812,148.2827 C 29.88,141.6482 30.9757,122.2683 31.2525,116.58 L 31.2525,116.58 z M 62.095,133.4841 C 62.095,133.4841 60.6402,153.9598 59.4958,161.1515 C 57.6483,173.4481 55.8644,179.028 52.2368,184.1329 C 47.4086,189.911 38.9902,193.0001 32.1575,186.6274 C 35.0858,186.4815 37.4494,183.527 37.9505,182.5883 C 41.7502,176.4026 44.9141,166.032 45.7743,157.9165 C 46.3802,154.0271 48.452,132.6127 48.2277,129.1945 C 51.2756,128.9963 53.0147,127.362 53.6243,125.4509 C 53.6355,127.0852 53.9534,128.7195 54.6004,130.0659 C 52.7903,164.9886 48.9906,176.3091 44.1774,182.5247 C 43.2798,183.4597 44.0315,183.6317 44.7159,183.1717 C 47.4086,180.2023 53.8075,172.8535 55.5353,131.6366 C 56.8555,133.3009 58.9648,134.2096 62.095,133.4841 L 62.095,133.4841 z M 67.256,130.0247 C 68.1236,132.5043 69.9188,134.4153 72.4245,134.8118 C 71.7401,157.5313 69.3802,160.699 69.3802,160.699 C 69.3802,160.699 69.6046,161.2525 70.0796,160.7775 C 70.3414,160.1567 72.5329,161.3983 73.3744,134.9314 C 75.5248,134.9726 77.7575,133.5589 78.7074,131.6591 C 78.4419,133.9291 78.6663,153.7055 76.082,159.4461 C 73.0976,166.6865 63.9687,167.9954 62.8093,167.9281 C 63.9313,166.7538 65.0121,163.747 65.7638,155.7624 C 66.6202,144.3371 67.4804,131.3823 67.256,130.0247 L 67.256,130.0247 z "
   id="path18"
   style="fill:#fcd116;fill-rule:nonzero" />
 </g>
</svg>