<?xml version="1.0" encoding="UTF-8" standalone="no"?>
<!-- Creator: CorelDRAW -->
<svg
   xmlns:dc="http://purl.org/dc/elements/1.1/"
   xmlns:cc="http://web.resource.org/cc/"
   xmlns:rdf="http://www.w3.org/1999/02/22-rdf-syntax-ns#"
   xmlns:svg="http://www.w3.org/2000/svg"
   xmlns="http://www.w3.org/2000/svg"
   xmlns:sodipodi="http://sodipodi.sourceforge.net/DTD/sodipodi-0.dtd"
   xmlns:inkscape="http://www.inkscape.org/namespaces/inkscape"
   xml:space="preserve"
   width="744"
   height="861.71143"
   style="shape-rendering:geometricPrecision; text-rendering:geometricPrecision; image-rendering:optimizeQuality; fill-rule:evenodd; clip-rule:evenodd"
   viewBox="0 0 210 297"
   id="svg2"
   sodipodi:version="0.32"
   inkscape:version="0.45.1"
   sodipodi:docname="POL województwo świętokrzyskie COA.svg"
   inkscape:output_extension="org.inkscape.output.svg.inkscape"
   sodipodi:docbase="C:\Users\Mistrz\Desktop"
   version="1.0"><metadata
   id="metadata57"><rdf:RDF><cc:Work
       rdf:about=""><dc:format>image/svg+xml</dc:format><dc:type
         rdf:resource="http://purl.org/dc/dcmitype/StillImage" /></cc:Work></rdf:RDF></metadata><sodipodi:namedview
   inkscape:window-height="480"
   inkscape:window-width="640"
   inkscape:pageshadow="2"
   inkscape:pageopacity="0.0"
   guidetolerance="10.0"
   gridtolerance="10.0"
   objecttolerance="10.0"
   borderopacity="1.0"
   bordercolor="#666666"
   pagecolor="#ffffff"
   id="base" />
 <defs
   id="defs4">
  <style
   type="text/css"
   id="style6">
   
    .fil4 {fill:#0093DD}
    .fil0 {fill:#0A0B0C}
    .fil1 {fill:#DB261B}
    .fil2 {fill:#FACF00}
    .fil3 {fill:white}
   
  </style>
 </defs>
 <g
   id="Warstwa_x0020_1"
   transform="matrix(1.2210916,0,0,1.2210916,-23.214617,-32.831494)">
  <metadata
   id="CorelCorpID_0Corel-Layer" />
  <g
   id="_65761448">
   <path
   id="_65835440"
   class="fil0"
   d="M 210,165.925 C 209.9999,223.3095 162.8321,270.112 105,270.112 C 47.255,270.112 0,223.2231 0,165.925 L 0,26.887 L 210,26.887 L 210,165.925 z "
   style="fill:#0a0b0c" />
   <path
   id="_65835368"
   class="fil1"
   d="M 105.416,148.252 L 105.416,31.34 L 205.4033,31.34 L 205.4033,148.252 L 105.416,148.252 z M 53.568,251.378 C 47.012,247.4369 40.9356,242.7709 35.4545,237.4902 L 104.5446,237.4902 L 104.5446,251.378 L 53.568,251.378 L 53.568,251.378 z M 22.1076,221.7234 C 19.1085,217.343 16.4452,212.7169 14.1589,207.8811 L 104.5446,207.8811 L 104.5446,221.7234 L 22.1076,221.7234 L 22.1076,221.7234 z M 8.2962,192.2051 C 7.0228,187.664 6.0583,182.9974 5.4369,178.2265 L 104.5446,178.2265 L 104.5446,192.2051 L 8.2962,192.2051 L 8.2962,192.2051 z M 4.5972,162.7775 L 4.5972,149.1233 L 104.5446,149.1233 L 104.5446,162.7775 L 4.5972,162.7775 L 4.5972,162.7775 z "
   style="fill:#db261b" />
   <g
   id="g13">
    <path
   id="_65835296"
   class="fil0"
   d="M 159.234,113.258 C 160.3482,113.651 161.1526,114.7167 161.1526,115.961 L 161.1526,115.961 C 161.1526,117.3446 160.1584,118.507 158.8492,118.7698 C 159.6251,124.6767 164.3899,126.6821 169.1976,123.6981 C 169.8782,123.2756 170.4803,122.4959 170.4091,124.0713 C 170.2434,127.7353 165.1928,130.9498 160.5983,128.4773 C 161.5415,129.8931 164.8836,131.8561 168.8623,130.697 C 169.6314,130.4733 170.2613,130.245 169.5304,131.5511 C 167.0952,135.9021 160.6348,135.1654 158.8163,132.4649 C 158.8187,134.4302 158.2015,136.3816 157.0624,137.9801 C 156.6795,138.5172 156.3463,138.5382 155.9449,137.9742 C 154.8083,136.3762 154.1933,134.4279 154.1957,132.4649 C 152.3772,135.1654 145.9167,135.9021 143.4816,131.5511 C 142.7507,130.245 143.3806,130.4733 144.1497,130.697 C 148.1284,131.8561 151.4705,129.8931 152.4136,128.4773 C 147.8192,130.9498 142.7686,127.7353 142.6029,124.0713 C 142.5316,122.4959 143.1338,123.2756 143.8144,123.6981 C 148.6206,126.6813 153.3841,124.6779 154.1621,118.7749 C 152.8397,118.5227 151.832,117.354 151.832,115.961 L 151.832,115.961 C 151.832,114.7084 152.6471,113.6367 153.7729,113.2502 C 153.5726,111.4754 153.2305,109.5415 152.8262,107.7204 C 152.1007,109.0522 151.082,110.7919 149.7086,112.6193 C 148.6675,114.0046 148.1471,115.3831 148.1396,116.7496 C 148.1353,117.5444 148.211,117.8217 147.2806,117.3979 C 146.7078,117.1369 146.1277,116.8425 145.7114,116.5369 L 135.6551,130.5395 C 135.0102,131.4375 134.8981,131.662 136.2269,131.776 C 137.4215,131.8785 138.602,131.8403 139.9926,132.0032 C 141.8396,132.2196 142.8178,134.3518 141.5512,136.386 C 141.1185,137.0807 141.1089,137.0098 140.6477,136.5462 C 139.4584,135.351 135.1604,134.7076 133.1696,134.3272 C 132.314,134.1637 131.6777,134.1555 131.1446,134.296 C 128.6159,134.9624 125.3879,136.4995 122.6656,137.7775 C 121.7814,138.1926 121.2156,138.8458 120.7416,139.6324 C 120.4641,140.0929 120.3701,140.2318 119.8885,139.7707 C 118.9055,138.8292 117.3568,136.6222 119.6053,135.0384 C 121.1228,133.9694 124.1905,133.5226 125.6701,132.9766 C 122.3339,132.8993 118.7725,133.0487 117.0301,134.8806 C 116.647,135.2834 116.6409,135.3644 116.2611,134.8244 C 114.9718,132.9914 115.2873,130.6455 117.8361,130.1187 C 119.9652,129.6787 122.3116,130.3101 124.7939,130.3837 C 122.1219,129.3217 118.9315,128.2134 116.3465,128.6042 C 115.5063,128.731 115.5413,128.6236 115.8171,127.8277 C 116.8033,124.9815 119.4239,124.1465 122.3348,125.5363 C 124.6516,126.6426 127.6882,128.6347 129.6308,129.5894 C 130.1107,129.8252 130.7606,129.9288 131.1058,129.3958 L 140.4398,114.9832 C 139.5746,114.9582 138.7134,114.6966 138.0636,114.25 C 137.5336,113.8858 137.9228,113.5629 138.2797,113.2671 C 139.5677,112.1997 140.9177,110.6498 142.0832,108.4909 C 143.7112,105.4748 144.0501,102.6644 144.5251,99.377 C 145.007,96.0429 145.8618,94.3556 148.3528,94.2322 C 147.6019,92.3122 146.6281,89.5823 145.8684,86.9293 L 142.5512,102.2736 C 141.854,105.4983 140.056,109.4875 135.7508,110.1238 C 134.8097,110.2629 134.6657,109.8518 135.0506,109.0727 C 136.2057,106.7348 137.1549,104.2763 137.2839,101.6396 L 137.9195,88.6563 L 133.2904,114.2318 C 132.6016,117.785 130.2244,120.058 127.1902,121.0075 C 126.1392,121.3361 125.8336,121.1068 126.1867,120.1079 C 126.8809,118.144 127.6175,115.3269 127.7525,113.5693 L 129.622,89.2449 L 125.6571,111.5007 C 124.94,115.4088 122.5471,116.7416 119.3911,117.4267 C 118.4379,117.6335 117.8427,117.7832 118.3837,116.5973 C 119.2933,114.6039 120.2729,112.5679 120.3994,110.3744 L 121.8124,85.8999 L 118.9421,103.093 C 118.613,106.3994 116.1486,107.9154 112.7004,108.3518 C 111.7292,108.4746 111.6507,108.0928 112.0386,107.3285 C 113.0739,105.2876 113.9226,103.2499 113.9504,101.3128 L 114.3573,73.0275 C 114.4079,69.5031 114.2798,63.7692 115.0029,58.4396 C 115.8168,52.4409 120.1111,43.5126 127.5355,43.7826 C 132.8416,43.9755 136.0571,48.4954 136.1902,52.9076 C 136.3259,57.4021 134.2412,61.2305 129.6907,62.5766 C 130.2302,67.843 135.4729,72.4262 147.2181,72.5748 C 148.7128,70.8442 150.3503,69.1928 151.645,67.3063 C 153.0063,65.3225 154.1447,63.2297 154.0478,60.5807 C 153.6176,60.215 153.21,59.8164 152.8053,59.0797 C 152.0806,57.7607 151.2028,56.4402 150.4349,55.2908 C 149.4295,53.7861 148.8404,52.3008 148.1185,51.4772 C 147.3632,50.6155 146.3394,50.547 145.3462,50.6685 C 145.3033,49.2074 145.1336,47.1799 145.8841,45.76 C 146.957,43.7301 149.3378,43.7902 151.0612,44.7397 C 152.6152,45.596 154.1974,46.9565 155.3821,47.4735 C 155.9627,45.4294 155.9163,41.7223 154.6311,39.2958 C 154.3629,38.7891 154.3771,38.5898 154.9581,38.5326 C 155.8625,38.4432 157.0698,38.4716 157.4147,39.4013 C 158.1663,38.6866 160.3717,38.0024 160.7542,41.0115 C 160.8306,41.6144 160.6463,41.6106 160.1428,41.5455 C 159.2096,41.4246 158.56,41.8244 158.5382,42.4352 C 158.4666,44.4416 160.7152,44.6213 161.7435,43.864 C 162.8167,43.0735 163.0177,41.9971 162.1622,41.4293 C 161.7955,41.1861 161.625,41.0883 161.9116,40.6143 C 162.4548,39.7162 163.7005,39.6891 163.9907,39.9554 C 164.5502,38.9456 165.4342,38.7092 166.0842,38.6535 C 166.6598,38.6042 166.9132,38.5686 167.1825,39.1717 C 167.5162,39.9191 167.4094,41.09 167.2717,41.6198 C 168.1745,41.8653 168.1198,43.0695 167.6149,43.8866 C 167.3383,44.3343 167.2584,44.2895 166.9071,44.0009 C 166.2533,43.4643 165.8318,43.758 165.5806,44.3518 C 165.2381,45.1614 165.1997,46.4976 165.8241,47.1721 C 166.3727,47.7648 167.1944,47.7085 167.8903,47.3489 C 168.7719,46.8932 168.7514,46.2463 168.1613,45.4492 C 167.8339,45.0067 167.785,44.8312 168.3275,44.6177 C 170.293,43.8433 171.7652,44.7405 171.3272,46.4771 C 172.2297,46.3267 173.4187,47.0605 173.8007,47.9361 C 174.0312,48.4645 173.6626,48.4805 173.2357,48.529 C 170.38,48.8535 166.8088,51.2744 165.3509,52.9778 C 165.4423,54.9738 164.882,56.9784 164.1154,58.2205 C 162.8059,60.3421 162.396,61.6218 163.0632,64.0284 C 163.8931,67.0217 165.4851,69.7398 166.7445,72.5498 C 177.7731,72.1551 182.7273,67.6878 183.2509,62.5766 C 178.7005,61.2305 176.6157,57.4021 176.7514,52.9076 C 176.8846,48.4954 180.1001,43.9755 185.4062,43.7826 C 192.8305,43.5126 197.1249,52.4409 197.9388,58.4396 C 198.6619,63.7692 198.5337,69.5031 198.5844,73.0275 L 198.9913,101.3128 C 199.019,103.2499 199.8677,105.2876 200.9031,107.3285 C 201.2909,108.0928 201.2125,108.4746 200.2412,108.3518 C 196.7931,107.9154 194.3287,106.3994 193.9995,103.093 L 191.1293,85.8999 L 192.5423,110.3744 C 192.6688,112.5679 193.6484,114.6039 194.558,116.5973 C 195.0989,117.7832 194.5037,117.6335 193.5506,117.4267 C 190.3945,116.7416 188.0017,115.4088 187.2846,111.5007 L 183.3196,89.2449 L 185.1892,113.5693 C 185.3242,115.3269 186.0608,118.144 186.755,120.1079 C 187.1081,121.1068 186.8025,121.3361 185.7515,121.0075 C 182.7173,120.058 180.3401,117.785 179.6513,114.2318 L 175.0222,88.6563 L 175.6578,101.6396 C 175.7867,104.2763 176.7359,106.7348 177.8911,109.0727 C 178.2759,109.8518 178.132,110.2629 177.1909,110.1238 C 172.8857,109.4875 171.0876,105.4983 170.3905,102.2736 L 167.2199,87.6078 C 166.477,89.745 165.5872,92.0848 164.862,94.2526 C 167.1434,94.4842 167.9527,96.1678 168.4166,99.377 C 168.8916,102.6644 169.2305,105.4748 170.8585,108.4909 C 172.0239,110.6498 173.374,112.1997 174.662,113.2671 C 175.0188,113.5629 175.4081,113.8858 174.878,114.25 C 174.2283,114.6966 173.3671,114.9582 172.5019,114.9832 L 181.8359,129.3958 C 182.1811,129.9288 182.8309,129.8252 183.3109,129.5894 C 185.2535,128.6347 188.2901,126.6426 190.6069,125.5363 C 193.5177,124.1465 196.1383,124.9815 197.1246,127.8277 C 197.4004,128.6236 197.4354,128.731 196.5951,128.6042 C 194.0102,128.2134 190.8197,129.3217 188.1477,130.3837 C 190.6301,130.3101 192.9764,129.6787 195.1056,130.1187 C 197.6544,130.6455 197.9699,132.9914 196.6806,134.8244 C 196.3008,135.3644 196.2946,135.2834 195.9116,134.8806 C 194.1692,133.0487 190.6078,132.8993 187.2715,132.9766 C 188.7512,133.5226 191.8189,133.9694 193.3363,135.0384 C 195.5849,136.6222 194.0362,138.8292 193.0532,139.7707 C 192.5716,140.2318 192.4776,140.0929 192.2,139.6324 C 191.7261,138.8458 191.1603,138.1926 190.276,137.7775 C 187.5538,136.4995 184.3258,134.9624 181.7971,134.296 C 181.264,134.1555 180.6276,134.1637 179.7721,134.3272 C 177.7812,134.7076 173.4832,135.351 172.294,136.5462 C 171.8328,137.0098 171.8232,137.0807 171.3905,136.386 C 170.1238,134.3518 171.1021,132.2196 172.9491,132.0032 C 174.3397,131.8403 175.5202,131.8785 176.7148,131.776 C 178.0436,131.662 177.9315,131.4375 177.2866,130.5395 L 167.2302,116.5369 C 166.814,116.8425 166.2339,117.1369 165.6611,117.3979 C 164.7306,117.8217 164.8063,117.5444 164.802,116.7496 C 164.7946,115.3831 164.2742,114.0046 163.2331,112.6193 C 161.9008,110.8466 160.9024,109.1566 160.1815,107.8411 C 159.7617,109.8715 159.4367,111.743 159.234,113.258 z "
   style="fill:#0a0b0c" />
    <path
   id="_65835224"
   class="fil2"
   d="M 126.837,51.6738 C 126.9364,50.7008 127.7625,49.9371 128.761,49.9371 C 129.826,49.9371 130.6949,50.806 130.6949,51.871 C 130.6949,52.8529 129.9565,53.6683 129.0067,53.7893 C 128.7866,53.8173 128.7679,53.8992 128.9549,54.0267 C 129.4659,54.3752 129.8028,54.9625 129.8028,55.6254 C 129.8028,56.6906 128.9339,57.5594 127.8689,57.5594 C 126.8037,57.5594 125.9349,56.6906 125.9349,55.6254 C 125.9349,55.3968 125.975,55.1771 126.0484,54.9732 C 126.2097,54.5257 126.1619,54.4995 125.7458,54.6826 C 125.508,54.7875 125.2452,54.8458 124.9695,54.8458 C 123.9043,54.8458 123.0354,53.977 123.0354,52.9118 C 123.0354,51.8468 123.9043,50.978 124.9695,50.978 C 125.6006,50.978 126.163,51.2833 126.5163,51.7537 C 126.7575,52.0748 126.8045,51.994 126.837,51.6738 L 126.837,51.6738 z M 145.8681,49.6536 C 145.8681,48.7067 145.9011,47.3304 146.3479,46.2777 C 147.0698,44.5768 149.0542,44.3998 150.5303,45.1587 C 152.1256,45.9788 153.5035,47.26 155.1033,48.1358 C 155.0329,49.3161 155.0624,50.573 155.0706,51.6668 C 155.0791,52.8178 155.1217,53.7188 155.6678,54.7973 C 156.1961,55.8407 156.2632,56.9335 155.7131,57.5943 C 155.1564,58.2631 154.974,58.5829 154.6049,59.3 C 154.2013,60.084 153.9747,59.6402 153.6955,59.1949 C 153.016,58.1116 152.2848,56.8194 151.4898,55.731 C 150.5945,54.5054 150.033,53.331 149.2828,52.1014 C 148.4913,50.8042 147.7402,49.8993 146.706,50.1949 C 146.9397,48.8177 148.9454,49.8144 149.3629,50.2556 C 150.7923,51.7663 152.5792,53.983 153.9516,56.2158 C 154.1175,56.4857 154.6,56.9685 155.0022,56.5915 C 155.3343,56.2803 155.0871,55.8434 154.8285,55.5388 L 150.347,50.2607 C 149.1628,48.8659 147.3644,48.0552 145.8681,49.6536 L 145.8681,49.6536 z M 186.1038,51.6738 C 186.0045,50.7008 185.1784,49.9371 184.1798,49.9371 C 183.1148,49.9371 182.246,50.806 182.246,51.871 C 182.246,52.8529 182.9844,53.6683 183.9341,53.7893 C 184.1543,53.8173 184.1729,53.8992 183.986,54.0267 C 183.475,54.3752 183.1381,54.9625 183.1381,55.6254 C 183.1381,56.6906 184.007,57.5594 185.072,57.5594 C 186.1372,57.5594 187.006,56.6906 187.006,55.6254 C 187.006,55.3968 186.9659,55.1771 186.8924,54.9732 C 186.7312,54.5257 186.7789,54.4995 187.1951,54.6826 C 187.4329,54.7875 187.6957,54.8458 187.9714,54.8458 C 189.0366,54.8458 189.9054,53.977 189.9054,52.9118 C 189.9054,51.8468 189.0366,50.978 187.9714,50.978 C 187.3403,50.978 186.7779,51.2833 186.4246,51.7537 C 186.1834,52.0748 186.1364,51.994 186.1038,51.6738 L 186.1038,51.6738 z M 171.5414,114.8408 L 181.3106,129.8885 C 181.804,130.6487 182.6936,130.5651 183.3951,130.2734 C 185.426,129.4293 188.23,127.391 190.4963,126.3074 C 193.1126,125.0565 195.062,125.0665 196.4069,127.9159 C 193.4334,127.3745 189.854,129.0291 187.2219,129.9209 C 186.0159,130.3295 186.4467,131.3125 187.557,131.235 C 189.7871,131.0792 192.4866,130.6383 194.6865,130.7576 C 196.1729,130.8383 197.3658,132.1374 196.2305,134.202 C 194.4568,132.2867 190.5916,132.3261 187.1198,132.2579 C 186.0283,132.2366 185.3313,132.7499 186.5881,133.3952 C 187.9183,134.0782 190.9236,134.4409 192.6088,135.4349 C 195.0512,136.8754 192.9703,138.6706 192.6924,139.0733 C 192.146,138.036 191.4817,137.6366 190.4078,137.0943 C 187.749,135.7515 184.5403,134.3301 182.0611,133.6128 C 181.5311,133.4595 180.6875,133.3851 179.8378,133.5779 C 177.6534,134.0735 172.8341,134.5651 171.9449,135.8881 C 170.9019,133.6556 172.101,132.8535 173.4996,132.6862 C 174.8511,132.5245 176.228,132.5808 177.5076,132.3929 C 178.8275,132.199 178.7461,131.3935 178.1015,130.4954 L 167.7366,116.052 C 168.6527,115.1226 168.8453,114.5595 168.8278,113.6885 C 169.7323,114.207 170.637,114.6532 171.5414,114.8408 L 171.5414,114.8408 z M 168.4167,77.2871 C 179.4505,75.6804 189.8578,70.63 197.5335,61.9216 C 197.7755,65.1007 197.8512,68.2796 197.8513,71.4583 C 188.9654,75.0732 179.7293,78.3373 168.6939,79.802 C 168.6461,78.9413 168.5485,78.1057 168.4167,77.2871 L 168.4167,77.2871 z M 188.5003,55.3187 C 191.6198,58.117 192.315,63.3827 192.0209,66.2788 C 190.3098,67.7334 188.2286,69.1266 186.0945,70.511 C 186.9122,69.9367 191.0972,63.0165 187.3596,56.5412 C 187.4738,56.2578 187.5365,55.9489 187.5365,55.6255 C 187.5365,55.5269 187.5307,55.4298 187.5193,55.3344 C 187.6661,55.3618 187.817,55.3764 187.9715,55.3764 C 188.1531,55.3764 188.3298,55.3562 188.5003,55.3187 L 188.5003,55.3187 z M 154.729,113.724 L 158.2546,113.724 C 159.4847,113.724 160.4911,114.7304 160.4911,115.9605 L 160.4911,115.9605 C 160.4911,117.1906 159.4847,118.197 158.2546,118.197 L 154.729,118.197 C 153.4989,118.197 152.4925,117.1906 152.4925,115.9605 L 152.4925,115.9605 C 152.4925,114.7304 153.4989,113.724 154.729,113.724 z M 155.2468,39.1595 C 156.3753,41.0129 156.6921,43.4808 156.2185,47.2482 C 159.788,45.2929 164.1861,48.083 165.1994,52.166 C 167.786,49.6208 170.3789,48.0914 173.0261,47.9636 C 172.6843,47.259 171.7109,46.9402 170.847,47.198 C 170.5194,47.2958 170.2692,47.1996 170.4502,46.7723 C 171.2781,44.8184 169.6712,44.7486 168.6349,45.1949 C 169.2556,45.5553 169.6241,46.7257 169.1798,47.2263 C 167.7992,48.7822 166.0219,48.6447 165.1229,47.4985 C 164.7434,47.0146 164.5679,46.3509 164.55,45.5587 C 164.5125,43.8938 165.7021,42.1688 167.024,43.3463 C 167.4393,42.706 167.1481,42.1243 166.774,41.9554 C 166.3518,41.7646 166.3149,42.0413 166.4773,41.4951 C 166.6013,41.0779 166.7789,40.1206 166.4456,39.4632 C 165.3396,39.2883 164.692,39.9178 164.2729,40.8063 C 164.0929,41.1881 164.0514,41.0154 163.9417,40.8482 C 163.5896,40.3117 162.7953,40.5237 162.4876,40.9884 C 163.8826,41.3344 163.5528,43.0392 162.8976,43.7567 C 162.2643,44.45 161.2761,44.9999 160.3214,45.0263 C 159.0029,45.0626 157.7862,43.8009 157.8004,42.4808 C 157.8113,41.4804 158.6214,40.7142 160.0438,40.9241 C 160.0361,39.443 158.4908,38.869 157.7458,40.143 C 157.5471,40.4828 157.1797,41.0931 157.0253,40.3413 C 156.9135,39.7973 156.8874,39.118 155.2468,39.1595 L 155.2468,39.1595 z M 141.3995,114.8408 L 131.6303,129.8885 C 131.1368,130.6487 130.2473,130.5651 129.5458,130.2734 C 127.5149,129.4293 124.7109,127.391 122.4445,126.3074 C 119.8283,125.0565 117.8789,125.0665 116.534,127.9159 C 119.5075,127.3745 123.0869,129.0291 125.719,129.9209 C 126.925,130.3295 126.4942,131.3125 125.3839,131.235 C 123.1538,131.0792 120.4542,130.6383 118.2544,130.7576 C 116.768,130.8383 115.5751,132.1374 116.7104,134.202 C 118.4841,132.2867 122.3493,132.3261 125.8211,132.2579 C 126.9125,132.2366 127.6096,132.7499 126.3528,133.3952 C 125.0226,134.0782 122.0173,134.4409 120.3321,135.4349 C 117.8897,136.8754 119.9706,138.6706 120.2485,139.0733 C 120.7949,138.036 121.4592,137.6366 122.533,137.0943 C 125.1919,135.7515 128.4006,134.3301 130.8798,133.6128 C 131.4098,133.4595 132.2533,133.3851 133.1031,133.5779 C 135.2875,134.0735 140.1068,134.5651 140.996,135.8881 C 142.039,133.6556 140.8399,132.8535 139.4413,132.6862 C 138.0897,132.5245 136.7129,132.5808 135.4332,132.3929 C 134.1134,132.199 134.1948,131.3935 134.8394,130.4954 L 145.2042,116.052 C 144.2882,115.1226 144.0956,114.5595 144.1131,113.6885 C 143.2086,114.207 142.3039,114.6532 141.3995,114.8408 L 141.3995,114.8408 z M 144.6586,77.3066 C 133.5748,75.7215 123.1143,70.6654 115.4074,61.9216 C 115.1654,65.1007 115.0897,68.2796 115.0895,71.4583 C 124.0317,75.096 133.3282,78.3786 144.4563,79.8296 C 144.4065,79.0522 144.4339,78.1976 144.6586,77.3066 L 144.6586,77.3066 z M 124.4405,55.3187 C 121.3211,58.117 120.6259,63.3827 120.9199,66.2788 C 122.6311,67.7334 124.7123,69.1266 126.8464,70.511 C 126.0287,69.9367 121.8437,63.0165 125.5812,56.5412 C 125.4671,56.2578 125.4043,55.9489 125.4043,55.6255 C 125.4043,55.5269 125.4102,55.4298 125.4215,55.3344 C 125.2748,55.3618 125.1239,55.3764 124.9694,55.3764 C 124.7878,55.3764 124.6111,55.3562 124.4405,55.3187 L 124.4405,55.3187 z "
   style="fill:#facf00" />
    <path
   id="_65808976"
   class="fil3"
   d="M 146.63,73.2404 C 140.6913,73.424 129.5872,71.0799 128.7474,62.042 C 132.9407,61.3933 135.381,57.463 135.4078,53.4548 C 135.4396,48.6622 132.3896,44.7963 127.6439,44.4554 C 124.1738,44.2062 121.2965,46.3797 119.2645,49.3819 C 117.1335,52.5307 115.505,56.8833 115.505,60.728 C 116.8605,62.6092 118.5152,64.3661 120.3377,65.7797 C 120.1326,59.8292 122.4652,56.3486 123.8599,55.1118 C 123.0572,54.7047 122.5045,53.8707 122.5045,52.9119 C 122.5045,51.5545 123.6116,50.4474 124.969,50.4474 C 125.5335,50.4474 126.0549,50.6393 126.4712,50.9607 C 126.8347,50.0518 127.7246,49.4066 128.7605,49.4066 C 130.1179,49.4066 131.225,50.5137 131.225,51.8711 C 131.225,52.8558 130.6424,53.7089 129.8042,54.103 C 130.1353,54.5228 130.3329,55.0516 130.3329,55.6255 C 130.3329,56.9828 129.2258,58.0899 127.8684,58.0899 C 127.0493,58.0899 126.3217,57.6867 125.8731,57.0686 C 123.6651,60.9147 124.2492,66.777 127.813,70.9335 C 133.8679,74.3875 139.49,76.0152 144.8436,76.5106 C 145.196,75.4204 145.7988,74.3301 146.63,73.2404 L 146.63,73.2404 z M 154.763,118.8254 C 154.0146,125.0814 149.0521,127.7547 143.3682,124.1969 C 143.3573,128.2604 150.1784,130.0612 152.8052,127.1695 C 153.6053,126.2886 153.7037,127.6798 153.4539,128.1894 C 151.7574,131.6513 146.7156,132.1816 144.2291,131.4407 C 146.8742,135.4748 152.9852,133.861 154.0641,131.4513 C 154.3545,130.8026 154.7936,131.0732 154.7971,131.6767 C 154.8091,133.7404 155.2261,135.9325 156.5049,137.6067 C 157.7831,135.9336 158.2012,133.7393 158.2133,131.6767 C 158.2168,131.0732 158.6559,130.8026 158.9463,131.4513 C 160.0252,133.861 166.1362,135.4748 168.7813,131.4407 C 166.2948,132.1816 161.253,131.6513 159.5565,128.1894 C 159.3067,127.6798 159.4051,126.2886 160.2052,127.1695 C 162.832,130.0612 169.6531,128.2604 169.6422,124.1969 C 163.9582,127.7546 158.9955,125.0815 158.247,118.8254 L 154.763,118.8254 L 154.763,118.8254 z M 167.0287,73.25 C 173.1006,73.2306 183.3857,70.7268 184.1927,62.042 C 179.9994,61.3933 177.5591,57.463 177.5323,53.4548 C 177.5004,48.6622 180.5504,44.7963 185.2961,44.4554 C 188.7663,44.2062 191.6436,46.3797 193.6756,49.3819 C 195.8066,52.5307 197.4351,56.8833 197.4351,60.728 C 196.0796,62.6092 194.4249,64.3661 192.6024,65.7797 C 192.8075,59.8292 190.4749,56.3486 189.0802,55.1118 C 189.8829,54.7047 190.4356,53.8707 190.4356,52.9119 C 190.4356,51.5545 189.3285,50.4474 187.9711,50.4474 C 187.4065,50.4474 186.8852,50.6393 186.4689,50.9607 C 186.1054,50.0518 185.2155,49.4066 184.1795,49.4066 C 182.8222,49.4066 181.7151,50.5137 181.7151,51.8711 C 181.7151,52.8558 182.2976,53.7089 183.1358,54.103 C 182.8048,54.5228 182.6072,55.0516 182.6072,55.6255 C 182.6072,56.9828 183.7143,58.0899 185.0717,58.0899 C 185.8908,58.0899 186.6184,57.6867 187.067,57.0686 C 189.275,60.9147 188.6909,66.777 185.1271,70.9335 C 179.1396,74.349 173.5753,75.9786 168.2754,76.4936 C 167.8869,75.2489 167.4714,74.1677 167.0287,73.25 L 167.0287,73.25 z M 155.6879,48.9429 C 156.5324,46.6258 159.6177,47.084 161.4097,48.0494 C 162.5602,48.6692 163.6883,49.937 164.2205,51.2067 C 164.6054,52.125 164.7212,53.0969 164.6751,54.0344 C 164.5937,55.6934 163.9103,57.2139 163.2272,58.3335 C 161.6132,60.9789 161.762,62.8246 162.8935,65.7051 C 164.1055,68.7901 165.9126,72.3068 166.9776,75.0915 C 168.2746,78.4832 168.3207,82.2877 166.9604,86.0486 C 166.2689,87.9602 165.6105,90.0154 164.8666,92.0923 C 163.4963,95.9183 161.5556,99.5482 160.4642,103.4624 C 159.5526,106.7313 158.8959,109.8931 158.5612,113.1096 C 158.471,113.101 158.3798,113.0964 158.2873,113.0964 L 154.6957,113.0964 C 154.6202,113.0964 154.5455,113.0993 154.4715,113.1051 C 153.9206,108.577 152.8523,104.0763 151.2289,99.7223 C 149.6582,95.5094 148.0103,91.4342 146.7405,87.1069 C 145.5405,83.0167 143.9172,78.5846 146.5154,74.6737 C 147.3452,73.4246 148.4223,72.2737 149.3806,71.1837 C 151.993,68.2123 154.8298,65.0404 154.8183,60.932 C 154.8169,60.4135 154.9465,59.7324 155.2927,59.243 C 155.5874,58.8265 155.9369,58.3978 156.3057,57.9972 C 157.1713,57.0571 156.9049,55.6607 156.3495,54.6532 C 155.741,53.5492 155.718,51.8364 155.7746,50.4707 C 156.021,50.5087 156.2674,50.5325 156.514,50.5355 C 156.9076,51.9013 157.7357,52.4121 158.6885,52.4304 C 159.6029,52.4478 160.3854,51.6522 161.0202,50.4236 C 161.339,50.3621 161.8584,50.4208 162.3839,50.5046 C 161.8766,49.0608 158.4408,48.6097 156.9398,49.5872 C 156.6619,49.6867 156.3304,49.7455 156.0347,49.6953 C 155.5469,49.6126 155.5422,49.3426 155.6879,48.9429 L 155.6879,48.9429 z M 157.1191,50.6378 C 157.4068,51.3886 158.0408,51.7882 158.7442,51.7636 C 159.478,51.738 160.3569,50.7633 160.519,50.1196 C 160.6194,49.721 160.3811,49.7471 160.127,49.6893 C 159.8198,49.6192 159.6664,49.6247 159.6121,49.9484 C 159.5187,50.5042 159.3726,50.9433 158.7159,51.0368 C 158.3271,51.0922 157.8853,50.9896 157.7493,50.5491 C 157.648,50.2207 157.0306,50.3604 157.1191,50.6378 z M 197.7876,72.2408 L 198.244,101.3637 C 198.2795,103.6322 198.9835,105.0344 200.2666,107.5992 C 196.3059,106.9653 194.936,105.4099 194.4983,102.1846 L 190.4927,77.4076 L 189.9179,77.4454 L 191.8836,110.3695 C 192.0002,112.324 193.0995,114.9436 193.9149,116.84 C 190.4312,115.9227 188.4542,114.8055 187.9196,111.0919 L 182.618,80.251 L 181.9486,80.2981 L 184.4498,113.4915 C 184.6064,115.5714 185.3165,118.2405 186.0379,120.2324 C 183.2848,119.7663 180.7166,116.4874 180.3114,113.7652 L 174.6309,81.567 L 173.8997,81.6648 L 174.9101,101.4942 C 175.0573,104.3834 175.9813,106.7682 177.3189,109.3188 C 173.2899,108.9348 171.668,104.7546 170.9581,101.3814 L 167.7361,86.0704 C 168.3617,84.3371 168.6911,82.3417 168.7753,80.4281 C 178.6279,79.2292 188.2146,76.2338 197.7876,72.2408 L 197.7876,72.2408 z M 164.5971,95.0558 C 166.2669,94.9366 167.0902,96.5055 167.4888,98.2417 C 167.8232,99.6981 167.9472,101.1818 168.1606,102.6552 C 168.6672,106.1524 170.1778,109.0704 172.2236,111.8773 C 172.7942,112.6601 173.4662,113.4178 174.2465,113.7517 C 172.9708,114.3866 171.4206,114.3975 169.0683,112.9135 C 168.5277,112.5726 168.2497,112.3714 168.2602,113.2424 C 168.287,115.4646 166.6493,115.9622 165.4792,116.6374 C 165.7015,115.4521 165.2111,114.0355 164.506,113.0387 C 164.1331,112.5115 163.4502,111.3819 162.6722,110.2068 C 162.0684,109.2948 160.474,107.2032 160.6024,106.0556 C 161.446,102.389 162.8721,98.7222 164.5971,95.0558 z M 115.1525,72.2408 L 114.6961,101.3637 C 114.6606,103.6322 113.9566,105.0344 112.6735,107.5992 C 116.6342,106.9653 118.0041,105.4099 118.4418,102.1846 L 122.4474,77.4076 L 123.0221,77.4454 L 121.0565,110.3695 C 120.9399,112.324 119.8406,114.9436 119.0252,116.84 C 122.5089,115.9227 124.4859,114.8055 125.0205,111.0919 L 130.3221,80.251 L 130.9915,80.2981 L 128.4903,113.4915 C 128.3336,115.5714 127.6236,118.2405 126.9022,120.2324 C 129.6553,119.7663 132.2235,116.4874 132.6287,113.7652 L 138.3092,81.567 L 139.0404,81.6648 L 138.03,101.4942 C 137.8828,104.3834 136.9588,106.7682 135.6212,109.3188 C 139.6501,108.9348 141.2729,104.7547 141.982,101.3814 L 145.3667,85.2783 C 144.7529,83.6386 144.5042,81.9893 144.4315,80.4562 C 134.4982,79.2763 124.8009,76.2653 115.1525,72.2408 L 115.1525,72.2408 z M 148.5956,95.0859 C 146.7551,94.7827 145.8698,96.4201 145.4512,98.2417 C 145.1171,99.6982 144.9929,101.1818 144.7795,102.6552 C 144.2728,106.1524 142.7623,109.0704 140.7165,111.8773 C 140.1459,112.6601 139.4739,113.4178 138.6936,113.7517 C 139.9693,114.3866 141.5195,114.3975 143.8718,112.9135 C 144.4124,112.5726 144.6903,112.3714 144.6799,113.2424 C 144.6531,115.4646 146.2908,115.9622 147.4609,116.6374 C 147.2386,115.4521 147.729,114.0355 148.4341,113.0387 C 148.807,112.5115 149.4898,111.3819 150.2679,110.2068 C 150.8717,109.2947 152.5101,107.2032 152.3818,106.0556 C 151.3365,102.1894 150.367,98.9514 148.5956,95.0859 L 148.5956,95.0859 z "
   style="fill:#ffffff" />
   </g>
   <path
   id="_65808880"
   class="fil4"
   d="M 4.5969,148.252 L 4.5969,31.34 L 104.5443,31.34 L 104.5443,148.252 L 4.5969,148.252 L 4.5969,148.252 z M 205.4029,165.2874 C 205.4029,220.4323 160.5255,265.4294 105.4156,265.6554 L 105.4156,149.1234 L 205.4029,149.1234 L 205.4029,165.2874 L 205.4029,165.2874 z "
   style="fill:#0093dd" />
   <g
   id="g19">
    <path
   id="_65808808"
   class="fil0"
   d="M 152.317,155.932 L 155.4367,164.1222 L 164.0794,162.7304 C 164.75,162.6224 164.9032,162.8627 164.4724,163.3919 L 158.9394,170.1888 L 164.4659,176.9776 C 164.8946,177.5043 164.7632,177.7573 164.0896,177.6487 L 155.4367,176.2554 L 152.3206,184.436 C 152.0789,185.0706 151.7941,185.0834 151.5513,184.4455 L 148.4316,176.2554 L 139.7889,177.647 C 139.1183,177.7551 138.9651,177.5148 139.3959,176.9856 L 144.9289,170.1888 L 139.4024,163.3999 C 138.9737,162.8732 139.1051,162.6202 139.7787,162.7288 L 148.4316,164.1222 L 151.5476,155.9414 C 151.7894,155.307 152.0741,155.2942 152.317,155.932 L 152.317,155.932 z "
   style="fill:#0a0b0c" />
    <polygon
   id="_65808736"
   class="fil2"
   points="151.934,156.918 154.98,164.914 163.427,163.553 158.025,170.189 163.427,176.825 154.98,175.464 151.934,183.46 148.888,175.464 140.441,176.825 145.842,170.189 140.441,163.553 148.888,164.914 151.934,156.918 "
   style="fill:#facf00" />
   </g>
   <g
   id="g23">
    <path
   id="_65808640"
   class="fil0"
   d="M 124.38,155.932 L 127.4997,164.1222 L 136.1425,162.7304 C 136.813,162.6224 136.9663,162.8627 136.5354,163.3919 L 131.0024,170.1888 L 136.529,176.9776 C 136.9577,177.5043 136.8263,177.7573 136.1526,177.6487 L 127.4997,176.2554 L 124.3837,184.436 C 124.1419,185.0706 123.8572,185.0834 123.6143,184.4455 L 120.4947,176.2554 L 111.8519,177.647 C 111.1814,177.7551 111.0281,177.5148 111.4589,176.9856 L 116.992,170.1888 L 111.4654,163.3999 C 111.0367,162.8732 111.1681,162.6202 111.8418,162.7288 L 120.4947,164.1222 L 123.6107,155.9414 C 123.8524,155.307 124.1372,155.2942 124.38,155.932 L 124.38,155.932 z "
   style="fill:#0a0b0c" />
    <polygon
   id="_65808568"
   class="fil2"
   points="123.997,156.918 127.043,164.914 135.49,163.553 130.089,170.189 135.49,176.825 127.043,175.464 123.997,183.46 120.951,175.464 112.504,176.825 117.906,170.189 112.504,163.553 120.951,164.914 123.997,156.918 "
   style="fill:#facf00" />
   </g>
   <g
   id="g27">
    <path
   id="_65808472"
   class="fil0"
   d="M 180.273,155.932 L 183.3927,164.1222 L 192.0355,162.7304 C 192.706,162.6224 192.8593,162.8627 192.4284,163.3919 L 186.8954,170.1888 L 192.422,176.9776 C 192.8507,177.5043 192.7193,177.7573 192.0456,177.6487 L 183.3927,176.2554 L 180.2767,184.436 C 180.035,185.0706 179.7502,185.0834 179.5074,184.4455 L 176.3877,176.2554 L 167.7449,177.647 C 167.0744,177.7551 166.9211,177.5148 167.352,176.9856 L 172.885,170.1888 L 167.3584,163.3999 C 166.9297,162.8732 167.0611,162.6202 167.7348,162.7288 L 176.3877,164.1222 L 179.5037,155.9414 C 179.7455,155.307 180.0302,155.2942 180.273,155.932 L 180.273,155.932 z "
   style="fill:#0a0b0c" />
    <polygon
   id="_65808400"
   class="fil2"
   points="179.89,156.918 182.935,164.914 191.383,163.553 185.981,170.189 191.383,176.825 182.935,175.464 179.89,183.46 176.844,175.464 168.397,176.825 173.798,170.189 168.397,163.553 176.844,164.914 179.89,156.918 "
   style="fill:#facf00" />
   </g>
   <g
   id="g31">
    <path
   id="_65808304"
   class="fil0"
   d="M 152.317,187.784 L 155.4367,195.9741 L 164.0794,194.5824 C 164.75,194.4744 164.9032,194.7147 164.4724,195.2439 L 158.9394,202.0407 L 164.4659,208.8296 C 164.8946,209.3563 164.7632,209.6093 164.0896,209.5007 L 155.4367,208.1073 L 152.3206,216.288 C 152.0789,216.9225 151.7941,216.9354 151.5513,216.2975 L 148.4316,208.1073 L 139.7889,209.499 C 139.1183,209.607 138.9651,209.3668 139.3959,208.8376 L 144.9289,202.0407 L 139.4024,195.2518 C 138.9737,194.7252 139.1051,194.4722 139.7787,194.5808 L 148.4316,195.9741 L 151.5476,187.7934 C 151.7894,187.159 152.0741,187.1461 152.317,187.784 L 152.317,187.784 z "
   style="fill:#0a0b0c" />
    <polygon
   id="_65808232"
   class="fil2"
   points="151.934,188.769 154.98,196.765 163.427,195.405 158.025,202.041 163.427,208.676 154.98,207.316 151.934,215.312 148.888,207.316 140.441,208.676 145.842,202.041 140.441,195.405 148.888,196.765 151.934,188.769 "
   style="fill:#facf00" />
   </g>
   <g
   id="g35">
    <path
   id="_65808136"
   class="fil0"
   d="M 124.38,187.784 L 127.4997,195.9741 L 136.1425,194.5824 C 136.813,194.4744 136.9663,194.7147 136.5354,195.2439 L 131.0024,202.0407 L 136.529,208.8296 C 136.9577,209.3563 136.8263,209.6093 136.1526,209.5007 L 127.4997,208.1073 L 124.3837,216.288 C 124.1419,216.9225 123.8572,216.9354 123.6143,216.2975 L 120.4947,208.1073 L 111.8519,209.499 C 111.1814,209.607 111.0281,209.3668 111.4589,208.8376 L 116.992,202.0407 L 111.4654,195.2518 C 111.0367,194.7252 111.1681,194.4722 111.8418,194.5808 L 120.4947,195.9741 L 123.6107,187.7934 C 123.8524,187.159 124.1372,187.1461 124.38,187.784 L 124.38,187.784 z "
   style="fill:#0a0b0c" />
    <polygon
   id="_65808064"
   class="fil2"
   points="123.997,188.769 127.043,196.765 135.49,195.405 130.089,202.041 135.49,208.676 127.043,207.316 123.997,215.312 120.951,207.316 112.504,208.676 117.906,202.041 112.504,195.405 120.951,196.765 123.997,188.769 "
   style="fill:#facf00" />
   </g>
   <g
   id="g39">
    <path
   id="_65762120"
   class="fil0"
   d="M 180.273,187.784 L 183.3927,195.9741 L 192.0355,194.5824 C 192.706,194.4744 192.8593,194.7147 192.4284,195.2439 L 186.8954,202.0407 L 192.422,208.8296 C 192.8507,209.3563 192.7193,209.6093 192.0456,209.5007 L 183.3927,208.1073 L 180.2767,216.288 C 180.035,216.9225 179.7502,216.9354 179.5074,216.2975 L 176.3877,208.1073 L 167.7449,209.499 C 167.0744,209.607 166.9211,209.3668 167.352,208.8376 L 172.885,202.0407 L 167.3584,195.2518 C 166.9297,194.7252 167.0611,194.4722 167.7348,194.5808 L 176.3877,195.9741 L 179.5037,187.7934 C 179.7455,187.159 180.0302,187.1461 180.273,187.784 z "
   style="fill:#0a0b0c" />
    <polygon
   id="_65762048"
   class="fil2"
   points="179.89,188.769 182.935,196.765 191.383,195.405 185.981,202.041 191.383,208.676 182.935,207.316 179.89,215.312 176.844,207.316 168.397,208.676 173.798,202.041 168.397,195.405 176.844,196.765 179.89,188.769 "
   style="fill:#facf00" />
   </g>
   <g
   id="g43">
    <path
   id="_65761952"
   class="fil0"
   d="M 152.317,219.636 L 155.4367,227.8261 L 164.0794,226.4344 C 164.75,226.3263 164.9032,226.5667 164.4724,227.0959 L 158.9394,233.8927 L 164.4659,240.6815 C 164.8946,241.2083 164.7632,241.4613 164.0896,241.3527 L 155.4367,239.9593 L 152.3206,248.14 C 152.0789,248.7745 151.7941,248.7873 151.5513,248.1495 L 148.4316,239.9593 L 139.7889,241.351 C 139.1183,241.459 138.9651,241.2188 139.3959,240.6896 L 144.9289,233.8927 L 139.4024,227.1038 C 138.9737,226.5771 139.1051,226.3242 139.7787,226.4328 L 148.4316,227.8261 L 151.5476,219.6454 C 151.7894,219.0109 152.0741,218.9981 152.317,219.636 L 152.317,219.636 z "
   style="fill:#0a0b0c" />
    <polygon
   id="_65761880"
   class="fil2"
   points="151.934,220.621 154.98,228.617 163.427,227.257 158.025,233.892 163.427,240.528 154.98,239.168 151.934,247.164 148.888,239.168 140.441,240.528 145.842,233.892 140.441,227.257 148.888,228.617 151.934,220.621 "
   style="fill:#facf00" />
   </g>
   <g
   id="g47">
    <path
   id="_65761784"
   class="fil0"
   d="M 124.38,219.636 L 127.4997,227.8261 L 136.1425,226.4344 C 136.813,226.3263 136.9663,226.5667 136.5354,227.0959 L 131.0024,233.8927 L 136.529,240.6815 C 136.9577,241.2083 136.8263,241.4613 136.1526,241.3527 L 127.4997,239.9593 L 124.3837,248.14 C 124.1419,248.7745 123.8572,248.7873 123.6143,248.1495 L 120.4947,239.9593 L 111.8519,241.351 C 111.1814,241.459 111.0281,241.2188 111.4589,240.6896 L 116.992,233.8927 L 111.4654,227.1038 C 111.0367,226.5771 111.1681,226.3242 111.8418,226.4328 L 120.4947,227.8261 L 123.6107,219.6454 C 123.8524,219.0109 124.1372,218.9981 124.38,219.636 L 124.38,219.636 z "
   style="fill:#0a0b0c" />
    <polygon
   id="_65761712"
   class="fil2"
   points="123.997,220.621 127.043,228.617 135.49,227.257 130.089,233.892 135.49,240.528 127.043,239.168 123.997,247.164 120.951,239.168 112.504,240.528 117.906,233.892 112.504,227.257 120.951,228.617 123.997,220.621 "
   style="fill:#facf00" />
   </g>
   <g
   id="g51">
    <path
   id="_65761616"
   class="fil0"
   d="M 46.8694,56.9514 L 40.6708,56.9532 C 37.6446,56.9231 30.0726,56.6486 28.1568,53.2332 L 26.6626,53.2332 L 26.6626,73.4077 L 28.1568,73.4077 C 30.0726,69.9922 37.6446,69.7178 40.6708,69.6877 L 46.8671,69.6895 L 46.8646,83.758 L 29.9585,83.7628 C 26.9324,83.7327 19.3603,83.4583 17.4446,80.0428 L 15.9503,80.0428 L 15.9503,100.2173 L 17.4446,100.2173 C 19.3603,96.8018 26.9324,96.5274 29.9585,96.4973 L 46.8648,96.5022 L 46.8702,127.5675 C 46.8401,130.5937 46.5657,138.1658 43.1502,140.0815 L 43.1502,141.5758 L 63.3247,141.5758 L 63.3247,140.0815 C 59.9093,138.1658 59.6348,130.5937 59.6047,127.5675 L 59.61,96.5022 L 76.4228,96.4973 C 79.449,96.5274 87.021,96.8018 88.9368,100.2173 L 90.431,100.2173 L 90.431,80.0428 L 88.9368,80.0428 C 87.021,83.4583 79.449,83.7327 76.4228,83.7628 L 59.6097,83.758 L 59.6075,69.6895 L 65.7638,69.6877 C 68.7899,69.7178 76.362,69.9922 78.2777,73.4077 L 79.772,73.4077 L 79.772,53.2332 L 78.2777,53.2332 C 76.362,56.6486 68.7899,56.9231 65.7638,56.9532 L 59.6054,56.9514 L 59.6047,52.2979 C 59.6348,49.2717 59.9093,41.6997 63.3247,39.7839 L 63.3247,38.2897 L 43.1502,38.2897 L 43.1502,39.7839 C 46.5657,41.6997 46.8401,49.2717 46.8702,52.2979 L 46.8694,56.9514 L 46.8694,56.9514 z "
   style="fill:#0a0b0c" />
    <path
   id="_65761544"
   class="fil2"
   d="M 58.8556,95.7482 L 58.8556,127.445 C 58.8353,130.2009 59.2106,138.2582 62.5766,140.542 L 62.5754,140.8621 L 43.8996,140.8621 L 43.8983,140.542 C 47.2643,138.2582 47.6396,130.2009 47.6193,127.445 L 47.6193,95.7482 L 30.0811,95.7482 C 27.3252,95.7279 19.2679,96.1032 16.9841,99.4692 L 16.664,99.4679 L 16.664,80.7922 L 16.9841,80.7909 C 19.2679,84.1569 27.3252,84.5322 30.0811,84.5119 L 47.5612,84.5119 L 47.5894,68.9386 L 40.7933,68.9386 C 38.0375,68.9183 29.9801,69.2936 27.6963,72.6596 L 27.3762,72.6583 L 27.3762,53.9825 L 27.6963,53.9813 C 29.9801,57.3473 38.0375,57.7226 40.7933,57.7023 L 47.6097,57.7023 L 47.6193,52.4204 C 47.6396,49.6646 47.2643,41.6072 43.8983,39.3234 L 43.8996,39.0033 L 62.5754,39.0033 L 62.5766,39.3234 C 59.2106,41.6072 58.8353,49.6646 58.8556,52.4204 L 58.8556,57.7023 L 65.6412,57.7023 C 68.3971,57.7226 76.4544,57.3473 78.7382,53.9813 L 79.0583,53.9825 L 79.0583,72.6583 L 78.7382,72.6596 C 76.4544,69.2936 68.3971,68.9183 65.6412,68.9386 L 58.8556,68.9386 L 58.8556,84.5119 L 76.3002,84.5119 C 79.0561,84.5322 87.1134,84.1569 89.3972,80.7909 L 89.7174,80.7922 L 89.7174,99.4679 L 89.3972,99.4692 C 87.1134,96.1032 79.0561,95.7279 76.3002,95.7482 L 58.8556,95.7482 L 58.8556,95.7482 z "
   style="fill:#facf00" />
   </g>
   <path
   id="_65761376"
   class="fil3"
   d="M 104.544,265.654 C 86.5584,265.5727 69.6527,260.6975 55.0423,252.249 L 104.544,252.249 L 104.544,265.654 z M 34.5611,236.6184 C 30.2036,232.3161 26.2329,227.6231 22.712,222.5944 L 104.544,222.5944 L 104.544,236.6184 L 34.5611,236.6184 L 34.5611,236.6184 z M 13.754,207.0092 C 11.6884,202.5293 9.9394,197.8765 8.5458,193.0761 L 104.544,193.0761 L 104.544,207.0092 L 13.754,207.0092 L 13.754,207.0092 z M 5.33,177.3547 C 4.8498,173.3958 4.5966,169.3697 4.5966,165.2868 L 4.5966,163.6486 L 104.544,163.6486 L 104.544,177.3547 L 5.33,177.3547 L 5.33,177.3547 z "
   style="fill:#ffffff" />
  </g>
 </g>
</svg>