<svg id="Слой_1" data-name="Слой 1" xmlns="http://www.w3.org/2000/svg" xmlns:xlink="http://www.w3.org/1999/xlink" viewBox="0 0 581.13 402.55"><defs><style>.cls-1{fill:none;}.cls-2{fill:#306;}.cls-3{fill:#fff;}.cls-4{fill:#ffc800;}.cls-5{clip-path:url(#clip-path);}.cls-6{fill:#4a148c;}.cls-7{fill:#c36358;}.cls-8{opacity:0.1;}.cls-9{fill:#ececec;}.cls-10{fill:#c8c8c8;}.cls-11{fill:#1a2e35;}.cls-12{fill:#dcdcdc;}.cls-13{opacity:0.6;}</style><clipPath id="clip-path"><path class="cls-1" d="M439.91,231C425,254.08,432.1,260.42,415,286.29c-7.11,10.75-31.2,46-78.65,62.3-13.9,4.76-56.79,17.12-102.79-2.34a143.17,143.17,0,0,1-44.39-30.37c-39.36-39.29-45.53-90-47.72-108C130.46,117.67,178.76-13,269.37-32.22,321.54-43.3,367.26-13.09,422,23.07c14.42,9.52,127.52,85.54,111.36,134.72C523.35,188.28,473.22,179.39,439.91,231Z"/></clipPath></defs><path class="cls-2" d="M69.55,276.13v13h-4a7.84,7.84,0,0,0-3.54.49,1.85,1.85,0,0,0-.77,1.66,2.13,2.13,0,0,0,1,1.91,6,6,0,0,0,3.12.64,8.94,8.94,0,0,0,4-.72c.91-.47,2-1.78,3.28-3.95q5.54-9.31,9.08-11.74T93.26,275q5.74,0,8.46,1.34a10.59,10.59,0,0,1,4.56,5.19,20.66,20.66,0,0,1,1.84,9A20.06,20.06,0,0,1,106,300a10.45,10.45,0,0,1-5.41,5.19,27.64,27.64,0,0,1-9.32,1.23H87.76v-13h6.53a8.7,8.7,0,0,0,3.88-.54A2.12,2.12,0,0,0,99,291a2.29,2.29,0,0,0-1.09-2.08,6.27,6.27,0,0,0-3.25-.68q-4.74,0-6.2,1.3a41.26,41.26,0,0,0-4.88,6.53,65,65,0,0,1-5,6.9,11.85,11.85,0,0,1-4.31,2.8,19,19,0,0,1-7,1.11c-4.12,0-7.12-.53-9-1.58a10.56,10.56,0,0,1-4.46-5.09,20.15,20.15,0,0,1-1.61-8.48,22,22,0,0,1,1.76-9.27q1.76-3.84,4.42-5.08c1.78-.82,4.81-1.24,9.07-1.24Z"/><path class="cls-2" d="M53.31,242.47H64.05v8.29H107v14H64.05V273H53.31Z"/><path class="cls-2" d="M53.31,217.88l53.68-8v14.27l-9.65.75v5l9.65.84v14.44l-53.68-7.13Zm34.51,7.4q-9.12,1-22.54,2.12,15.42,2.13,22.54,2.68Z"/><path class="cls-2" d="M53.31,207.52v-9.88q0-9.88.76-13.38a9.24,9.24,0,0,1,3.89-5.7q3.13-2.2,10-2.21,6.27,0,8.42,1.56T79,184.05c.69-2.77,1.6-4.62,2.75-5.57a8.25,8.25,0,0,1,3.17-1.78,50.18,50.18,0,0,1,7.94-.35H107v13H89.15q-4.31,0-5.34.68c-.68.45-1,1.64-1,3.56H107v14Zm9.18-14H74.43a6.15,6.15,0,0,0-.65-3.3c-.43-.63-1.83-.94-4.19-.94h-3c-1.71,0-2.82.3-3.35.91A5.19,5.19,0,0,0,62.49,193.56Z"/><path class="cls-2" d="M53.31,142.83H64.05v8.29H107v14H64.05v8.26H53.31Z"/><path class="cls-2" d="M53.31,118.23l53.68-8v14.27l-9.65.75v5l9.65.84v14.43l-53.68-7.12Zm34.51,7.4q-9.12,1.07-22.54,2.13,15.42,2.13,22.54,2.68Z"/><path class="cls-2" d="M53.31,107.88V93.82a32.9,32.9,0,0,1,.89-8.77,9.8,9.8,0,0,1,2.59-4.61,8.78,8.78,0,0,1,4.09-2.09,37.09,37.09,0,0,1,7.45-.55H73c3.43,0,5.93.36,7.5,1.06a7.27,7.27,0,0,1,3.61,3.9,18.43,18.43,0,0,1,1.26,7.41v3.75H107v14Zm9.18-14H76.15c0-.4,0-.74,0-1a3.24,3.24,0,0,0-1-2.67q-.94-.75-3.93-.75H66.9c-1.83,0-3,.29-3.58.87S62.49,92.11,62.49,93.92Z"/><path class="cls-2" d="M53.31,42.06H89.18a63.67,63.67,0,0,1,8.58.39,11.8,11.8,0,0,1,5.07,2.36,12.25,12.25,0,0,1,4,5.16,19.46,19.46,0,0,1,1.34,7.54A21.29,21.29,0,0,1,106.53,66a12.76,12.76,0,0,1-4.15,5.5A11.43,11.43,0,0,1,97,73.66Q94.16,74,85.07,74H53.31V60H93.56a16,16,0,0,0,4.49-.38,1.49,1.49,0,0,0,1-1.54A1.61,1.61,0,0,0,98,56.4,19.73,19.73,0,0,0,92.86,56H53.31Z"/><path class="cls-2" d="M105.88,335.07H51.71V324.5h54.17Z"/><path class="cls-2" d="M105.88,352.39H51.71V341.83h54.17Z"/><path class="cls-2" d="M85.89,363.12V315.07H96.45v48.05Z"/><path class="cls-2" d="M64.44,363.12V315.07H75v48.05Z"/><circle class="cls-3" cx="288.51" cy="209.88" r="165.87"/><circle class="cls-4" cx="289.42" cy="207.9" r="147.97" transform="translate(-62.24 265.54) rotate(-45)"/><path class="cls-4" d="M289.42,379.25c-94.48,0-171.35-76.87-171.35-171.35S194.94,36.56,289.42,36.56,460.76,113.43,460.76,207.9,383.89,379.25,289.42,379.25Zm0-334.29c-89.85,0-163,73.09-163,162.94s73.1,163,163,163,163-73.1,163-163S379.27,45,289.42,45Z"/><g class="cls-5"><polygon class="cls-6" points="425.29 75.7 432.84 45.72 438.32 49.15 425.29 75.7"/><polygon class="cls-6" points="432.95 82.47 457.74 74.89 459.54 81.75 432.95 82.47"/><polygon class="cls-6" points="429.99 76.84 459.94 44.5 466.54 52.57 429.99 76.84"/><path class="cls-7" d="M402.48,384.75l-84.77-17.18q-.94-7.56-1.7-14.76c-.61-5.93-1-11.61-1.06-16.94,0-1.27,0-2.52,0-3.74,0-2.41.09-4.75.22-7,.64-11.29,2.72-20.36,6.22-26.08,3.12-5.12,7.38-7.57,12.77-6.54.22,0,.44.08.65.13a13.43,13.43,0,0,1,1.3.37c8.44,2.74,19.37,13.37,32.81,34.52,3.22,5.07,6.59,10.74,10.1,17.06,1.16,2.09,2.37,4.25,3.63,6.45C388.5,361.4,395.28,372.89,402.48,384.75Z"/><path class="cls-2" d="M420.89,388.48l-112.2-22.74c-1-6-2-11.74-2.77-17.16q-.89-6.07-1.43-11.64c-.15-1.51-.28-3-.39-4.46h0c-.23-2.9-.38-5.7-.45-8.37-.06-1.7-.08-3.34-.07-4.95s0-3,.07-4.41c0-1,.08-1.89.13-2.81s.12-1.83.19-2.71c.12-1.4.25-2.75.43-4.07.09-.7.18-1.4.28-2.07,0-.11,0-.23.05-.35,1.45-9.27,4.18-16.19,7.95-20.68a16.24,16.24,0,0,1,10.06-6,5.37,5.37,0,0,1,.7-.11c4.51-.54,9.63.75,15.19,3.91h0c7.16,4.07,15,11.23,23.3,21.54C378.86,322.54,400.53,355.61,420.89,388.48Z"/><path class="cls-4" d="M398.3,353a58.26,58.26,0,0,0,2.95,19.86c1.52,4.47,4.85,10.84,10.61,8.53a7.52,7.52,0,0,0,3.07-2.37C409.43,370.19,403.83,361.41,398.3,353Zm-30.55,24.71,10.5,2.13C375.15,376.91,371.28,375.14,367.75,377.71Zm19.07-42c-4.95-7.31-9.82-14.27-14.44-20.57-1.92,1.77-2.87,4.72-3.14,8.05a32,32,0,0,0-.34,4.33,48.81,48.81,0,0,0,1.86,14.12c1.09,3.61,3.12,9.8,7.57,10.63a4.84,4.84,0,0,0,4.3-1.24,13.23,13.23,0,0,0,3.42-6.47A46.55,46.55,0,0,0,386.82,335.72Z"/><path class="cls-8" d="M343.75,372.85l-35-7.1c-1-6-2-11.74-2.77-17.17q-.9-6.07-1.44-11.64c-.15-1.51-.28-3-.4-4.46q-.33-4.35-.44-8.36h0c-.06-1.7-.08-3.34-.07-4.95s0-3,.07-4.41c0-1,.08-1.89.13-2.81s.12-1.83.19-2.71c1-12.59,4.12-21.67,8.74-27.14a19.42,19.42,0,0,1,2.7-2.67l1.63,5.37,4.33,14.26,5.69,18.77,2.06,6.8.54,1.74L337.75,353,342,367.1Z"/><path class="cls-2" d="M342.06,372.5,285.23,361c1.91-9.43,3.76-18.55,5.52-27.15q.51-2.52,1-5c.64-3.09,1.26-6.12,1.87-9.06,4.38-21.32,7.88-38.12,9.61-46.43h0l1.21-5.71-.13-2-.24-4A66.56,66.56,0,0,1,323.44,276q1.53,1.62,3,3.45a61.56,61.56,0,0,1,6.75,10.07c.2.38.39.74.58,1.12.34.67.67,1.35,1,2s.7,1.55,1,2.35h0a58.18,58.18,0,0,1,3.46,12c1.81,10.17,2.51,32.81,2.74,60.12C342,368.88,342,370.68,342.06,372.5Z"/><path class="cls-9" d="M337.42,371.56,155.66,334.73c29.22-31.76,56.23-58.26,69.57-67.18a47,47,0,0,1,5.57-3.19,59.41,59.41,0,0,1,12.31-4.43,78.55,78.55,0,0,1,12.8-2c2.37-.19,4.76-.28,7.17-.29a112.06,112.06,0,0,1,33.26,5.13h0c2.75.86,5.41,1.82,8,2.86a74.08,74.08,0,0,1,18.42,10.47,43.66,43.66,0,0,1,3.74,3.34,29.7,29.7,0,0,1,6.15,8.59c.21.45.41.95.6,1.48.12.35.24.71.36,1.09.19.61.37,1.26.55,1.94q.63,2.46,1.14,5.56h0c2,12.31,2.68,31.9,2.47,55C337.69,359,337.58,365.2,337.42,371.56Z"/><path class="cls-10" d="M246.16,273.48a211.77,211.77,0,0,0,15.49,27.07c5.82,8.48,12.5,16.4,20.51,22.44s17.5,10,27.4,9.77,19.37-5.89,25.15-14.66c-3.9,9.71-13.57,17.77-24.84,18.68-11.14,1.19-22.21-3.11-30.83-9.67a82.52,82.52,0,0,1-20.78-24.41A116.2,116.2,0,0,1,246.16,273.48Z"/><path class="cls-2" d="M240.1,351.84,144,332.37c25.68-32,47.58-58.37,55.31-64.78h0a13.57,13.57,0,0,1,1.24-.94c8.93-5.88,20.74-9,31.19-10.61a149.83,149.83,0,0,1,24.73-1.74s-.2,1.26-.59,3.61c-.79,4.77-2.31,14-4.34,26.14-.21,1.24-.42,2.5-.63,3.79C248,305.27,244.21,327.93,240.1,351.84Z"/><path class="cls-4" d="M242.5,300.54h0a3.59,3.59,0,0,0-.12-.47,4.75,4.75,0,0,0-.18-.57v0c-.08-.18-.16-.35-.25-.53h0c-.06-.11-.13-.22-.2-.33s-.22-.3-.33-.44h0a3.24,3.24,0,0,0-.36-.38,1.78,1.78,0,0,0-.26-.22,3.49,3.49,0,0,0-.85-.51l-.16-.08h0a6.44,6.44,0,0,0-3-.36,20.7,20.7,0,0,0-6.53,2,49.18,49.18,0,0,0-7.33,4.22c-.8.55-1.58,1.13-2.35,1.74-.51.4-1,.82-1.52,1.24s-1,.86-1.47,1.3a39.07,39.07,0,0,0-9.22,12.39c-.35.51-.69,1-1,1.51-.14.22-.28.44-.41.67l-.33.57c-.14.24-.26.48-.38.71-1.51,2.92-2.11,5.71-.95,7.8.06.12.13.22.2.34a7,7,0,0,0,.51.63h0a6.39,6.39,0,0,0,1.86,1.33,1.45,1.45,0,0,0,.29.11,1.78,1.78,0,0,0,.29.12,6.36,6.36,0,0,0,2.73.22c.27,0,.55-.08.83-.13h0a7.89,7.89,0,0,0,1-.24c.31-.09.63-.19.94-.3s.55-.2.83-.32a29.93,29.93,0,0,0,3.49-1.75c.16-.08.3-.17.45-.26a4.37,4.37,0,0,0,.4-.25c.29-.16.56-.33.84-.5l.38-.24,1.28-.81.95-.62c.55-.35,1.1-.71,1.65-1.09l1.24-.88c.48-.34.95-.7,1.42-1.05s.93-.73,1.39-1.1h0a47.65,47.65,0,0,0,9.32-10.08C239.65,310.79,243.32,304.86,242.5,300.54Z"/><path class="cls-7" d="M239.94,297h0c-4.44,9.72-12.45,20.84-24,32.32l-4,4h0c-3.32,3.38-6.78,6.95-10.34,10.68l-79.1-16c30.19-19.89,81.57-72,112.14-67.43C248.81,262.71,247.54,280.35,239.94,297Z"/><path class="cls-2" d="M249,282.82a73.69,73.69,0,0,1-6.53,17.71h0c-.66,1.31-1.35,2.64-2.1,4l-.88,1.59c-.46.8-.93,1.62-1.43,2.45-.36.6-.72,1.22-1.1,1.82s-.65,1.07-1,1.61-.67,1.08-1,1.63c-1.38,2.19-2.84,4.46-4.37,6.77-.37.58-.76,1.17-1.16,1.75s-.78,1.19-1.18,1.78h0c-4.71,7-10,14.52-15.67,22.32l-92.26-18.7c.19-.12,35.16-30.79,61.56-49.49,24.3-17.22,50.19-26.12,61.21-18.15,5.55,4,7.78,10.95,6.4,20.25h0C249.38,281,249.23,281.91,249,282.82Z"/><path class="cls-4" d="M242.38,300.06a4.75,4.75,0,0,0-.18-.57v0c-.08-.18-.16-.35-.25-.53h0c-.06-.11-.13-.22-.2-.33a3,3,0,0,0-.33-.44h0a3.24,3.24,0,0,0-.36-.38,1.78,1.78,0,0,0-.26-.22,3.49,3.49,0,0,0-.85-.51h0l-.17-.07h0a6.44,6.44,0,0,0-3-.36,20.7,20.7,0,0,0-6.53,2,49.18,49.18,0,0,0-7.33,4.22c-.8.55-1.58,1.13-2.35,1.74-.51.4-1,.82-1.52,1.24s-1,.86-1.47,1.3a39.07,39.07,0,0,0-9.22,12.39c-.35.51-.69,1-1,1.51-.14.22-.28.44-.41.67l-.33.57c-.14.24-.26.48-.38.71-1.51,2.92-2.11,5.71-.95,7.8.06.12.13.22.2.34a7,7,0,0,0,.51.63h0a6.61,6.61,0,0,0,1.87,1.32l.28.12a1.78,1.78,0,0,0,.29.12,6.36,6.36,0,0,0,2.73.22c.27,0,.55-.08.83-.13h0a7.89,7.89,0,0,0,1-.24c.31-.09.63-.19.94-.3s.55-.2.83-.32a29.93,29.93,0,0,0,3.49-1.75c.16-.08.3-.17.45-.26a4.37,4.37,0,0,0,.4-.25c.29-.16.56-.33.84-.5l.38-.24,1.28-.81.95-.62c.55-.35,1.1-.71,1.65-1.09l1.24-.88c.48-.34.95-.7,1.42-1.05s.93-.73,1.39-1.1h0c.4-.59.79-1.19,1.18-1.78s.79-1.17,1.16-1.75c1.53-2.31,3-4.58,4.37-6.77.35-.55.69-1.09,1-1.63s.68-1.08,1-1.61.74-1.22,1.1-1.82c.5-.83,1-1.65,1.43-2.45l.88-1.59c.75-1.36,1.44-2.69,2.1-4h0A3.59,3.59,0,0,0,242.38,300.06Z"/><path class="cls-2" d="M215.77,345l-1.34,1.65-.83-.17c.58-.61,1.17-1.21,1.75-1.83C215.59,344.4,216,344.71,215.77,345Z"/><path class="cls-2" d="M437.45,175.85c-.08,0-.18.05-.12.11,7.36,7.46,10.34,18.94,4.32,28.34-5.15,8-13.32,10.35-21.71,9.6,7.75-2,15-6.4,18.92-13.46,4.35-7.75,3.81-17.69-1.83-24.35,8-6.27,14.44-15.66,14.09-26-.28-8.67-5.59-16.81-13.85-19.75,6.61-7.61,8.5-18.86,3.83-27.77-4.36-8.36-13.56-13.29-23-13.15a20.36,20.36,0,0,0-12.8-32.32,13.67,13.67,0,0,0-2-14.91c-4-4.86-10.39-6.63-16.59-7.2a16.29,16.29,0,0,0-9.29-13,15.77,15.77,0,0,0-19.23,5.67C350.64,21.2,341.51,15.14,331,15.29c-8.63.12-17.56,4.7-20.87,12.79a31.16,31.16,0,0,0-44.38,11.5c-7.21-2.24-15.23-.13-20.94,5s-8.09,10-9,12.35a16.47,16.47,0,0,0-17.34,7.39c-3.59,5.69-3.29,11.89-1.43,17.82a12.15,12.15,0,0,1-2.55,4.74c-6.1,7.29-8.31,16.41-5.78,25.37-9.6,5.9-11.7,19.74-4.26,27.83-7.52,8.59-6.26,22.45,2.58,29.34a30.44,30.44,0,0,0-4.8,25.14c1.73,6.58,6.56,13.14,13.66,13.89-2.73,4.71.32,10.64,4.78,13.42a27,27,0,0,0,5.45,2.45c2.24.77,5.33,1.15,7.17,2.68s2.32,4.4,3.31,6.53a24.18,24.18,0,0,0,2.64,4.31c6.28,8.09,17.24,11.82,27.31,9.92a26.33,26.33,0,0,0,7.2-2.41c3.47,7.3,11.58,10.24,19.55,10.53.94,0,1.89,0,2.82,0a48.75,48.75,0,0,0,8.49-1.27,25.81,25.81,0,0,1,2.88-.48,10.09,10.09,0,0,1,4.62.56c1.56.6,3,1.53,4.52,2.13,5.31,2,10.56.36,15.53-1.85A24,24,0,0,0,343.69,266h0c13.45,6,31.51-1.76,37.78-17.3a28,28,0,0,0,25.57-4.56h0a24.92,24.92,0,0,0,2.18-1.95A26.39,26.39,0,0,0,415.82,217h0s0,0,0,0c-.15-.59-.32-1.17-.52-1.74.27.06.54.13.82.17,10.19,2.21,21.11-.37,27.13-10C449.65,195.08,446.36,183.09,437.45,175.85ZM235.34,58.44s-2.28.55-3.36.94A22.57,22.57,0,0,0,218.86,72.7a22.75,22.75,0,0,0-1.12,5.58c0,.26-.07.46-.1.71a20.05,20.05,0,0,1,1.23-11c3-6.77,9.39-10.49,16.72-10.37C235.43,58.1,235.34,58.44,235.34,58.44ZM376.85,23.37c5.09,2.36,7.24,6.7,7.83,11.51h-.11a17.26,17.26,0,0,0-6.54-7.2,16.61,16.61,0,0,0-18.71,1.06l-.41-.35C363.76,23.33,369.57,20,376.85,23.37Zm-32.46,241h0a27.37,27.37,0,0,1-11.16-9.91l.22-.09a28.74,28.74,0,0,0,12,7.61h0a30.34,30.34,0,0,0,29-5.84C365.78,264.68,354.44,268.93,344.39,264.38Z"/><path class="cls-7" d="M311.4,325.39c-19.66-.46-47.15-25.05-53.71-51.27-.44-1.8,22.55-63,25.85-75.59l74,39.87s-14.68,24.38-20.29,46.37a29.61,29.61,0,0,0-.81,5.32c0,.24,0,.55-.11.88C335.35,301.21,330.41,325.83,311.4,325.39Z"/><path class="cls-2" d="M336.42,290.1c-.05.22,0,.51-.11.85a52.23,52.23,0,0,1-8.23-1.64c-45.46-13-41.58-71.78-39.55-88.07L307,211.19l50.5,27.22s-14.69,24.38-20.26,46.38A26.84,26.84,0,0,0,336.42,290.1Z"/><path class="cls-7" d="M288.3,108.16c-12.82,28.13-8.55,114.86,9.8,136.51C324.71,276,373.85,285.2,401.92,252c27.2-32.24,19.63-145.18-1.39-165.42C369.57,56.72,307.25,66.6,288.3,108.16Z"/><path class="cls-2" d="M360.94,168.56c-.05-.22-.44.3-.42.54.44,5.83,0,12.59-5.23,14.77-.16.06-.13.36.06.32C361.76,183,362.3,174,360.94,168.56Z"/><path class="cls-2" d="M355.45,162.69c-9.43-.29-9.33,18.59-.59,18.86S363.36,162.94,355.45,162.69Z"/><path class="cls-2" d="M396,168.43c0-.22.46.28.45.52-.15,5.85.65,12.57,5.95,14.49.17.06.15.35,0,.32C395.87,182.89,394.88,174,396,168.43Z"/><path class="cls-2" d="M401.16,162.3c9.4-.77,10.24,18.1,1.53,18.8S393.28,162.94,401.16,162.3Z"/><path class="cls-2" d="M347.91,148.07a77,77,0,0,1,7.73-.53c3-.16,5.32-.6,8,1a4,4,0,0,1,1.32,4.7c-1.61,3.42-5.19,4.53-8.76,4.88A14.54,14.54,0,0,1,346,155.62C342.87,153.54,344.45,148.63,347.91,148.07Z"/><path class="cls-2" d="M408.65,149.09a74.45,74.45,0,0,1-7.49-2c-2.86-.8-5.23-1.14-7.25-3.5a4,4,0,0,1,.27-4.87c2.63-2.72,6.38-2.61,9.87-1.79a14.54,14.54,0,0,1,8.85,5.63C415.19,145.54,412.1,149.68,408.65,149.09Z"/><path class="cls-2" d="M367.1,225.6c.94,1.72,1.73,3.93,3.71,4.72s4.45.57,6.44.41a.21.21,0,0,1,.16.36,7.88,7.88,0,0,1-8,.89c-2.4-1.21-3-3.78-2.9-6.29C366.5,225.34,367,225.35,367.1,225.6Z"/><path class="cls-2" d="M361.73,205.28a19.49,19.49,0,0,0,12.8,9,24.46,24.46,0,0,0,7,.5,7.29,7.29,0,0,0,1.35-.12,12.56,12.56,0,0,0,1.26-.17,1.42,1.42,0,0,0,1.18-1.25v0a2.93,2.93,0,0,0,0-.59v-.54c.23-4.41,0-11.13,0-11.13,1.59.85,9.71,4.75,9.64,2.44-.67-19.09-1.41-40.33-6.1-59.19a.53.53,0,0,0-1.05.12c-.09,18.38,3.06,36.65,3.27,55.11-2.6-1.06-6.83-3-9.14-3-.63.16.74,13,.48,14.94a.65.65,0,0,1-.05.21c-7.43.76-12.95-1.62-20-6.77C361.86,204.44,361.4,204.82,361.73,205.28Z"/><path class="cls-2" d="M420.47,123.67c-2.1-7.76-5.55-9.61-5.55-9.61s.68-9-6.59-21c-7.62-12.59-16.68-14.81-16.68-14.81s-4.24-5.5-14.14-10.06a59.34,59.34,0,0,0-10.26-3.64c-4-1-16.16-2.07-20-.82-4.47,1.46-8.92-1.16-13.43-1.55a30,30,0,0,0-12.42,1.49,32.53,32.53,0,0,0-9.36,5,50.92,50.92,0,0,0-4.68,4.3c-2.52,2.51-4.82,3.29-8.06,4a25.91,25.91,0,0,0-16.83,12.92,33.21,33.21,0,0,0-4,13c-.62,5.7-6.82,8-9.39,12.74a19.14,19.14,0,0,0-1.39,3.19,21.58,21.58,0,0,0,3.79,20.52c-7.86,4.85-11.47,16.63-8.13,26.32a18.76,18.76,0,0,0,3,5.54c.13.17.27.33.4.49a20.05,20.05,0,0,0,2.55,2.5,30.61,30.61,0,0,0,9.3,4.94,17.64,17.64,0,0,0,3.66.85c.39.08.77.16,1.16.22a16.65,16.65,0,0,0,2.43.23,17.34,17.34,0,0,0,3.38-.29,19.83,19.83,0,0,0,8.64-3.95,22.39,22.39,0,0,0,4.49-4.67,23,23,0,0,0,1.9-3.18A22.63,22.63,0,0,0,306,153.08l0-.13s14.8,7,23.85-3.12c5.54-6.18,7.82-15,8.5-23.75,16.08,11.77,40.12,2.94,44.62-18.46,4.42,5.6,14.93,13.38,21.42,11.84,1.36,19.11,11.06,20.7,14.79,21.2l.26,0C420,140.71,422.9,132.58,420.47,123.67ZM302.2,168.25a22.28,22.28,0,0,1-6.11,6.62c-.25.19-.5.37-.77.54.24-.21.47-.43.69-.65a22.16,22.16,0,0,0,3-3.6,25.05,25.05,0,0,0,1.85-3.19,54,54,0,0,0,4.21-13.91A21.67,21.67,0,0,1,302.2,168.25Zm54.93-39.74c9.85-2,18.68-9.27,23.49-20.32C376.64,121.19,367.58,127.41,357.13,128.51Z"/><path class="cls-3" d="M273.92,141c9.72,12.58,28.79,15.87,45.19,9.82,10.75-4,18.42-16.32,29.79-26,18.71-16,54.78-13.28,51.31-44.57-3.08-27.82-46-39.74-88-25.32C275.08,67.6,252.08,112.67,273.92,141Z"/><path class="cls-4" d="M378.73,179.69a22,22,0,0,0-.25-2.26h0c-.09-.55-.19-1.11-.32-1.65A26.6,26.6,0,0,0,348,155.34c-.64.1-1.27.22-1.89.37a26.68,26.68,0,0,0-18.46,15.6,27.32,27.32,0,0,0-1.16,3.37,26.61,26.61,0,0,0,23.26,33.41,26.78,26.78,0,0,0,6.61-.22,25.41,25.41,0,0,0,5.93-1.67c.4-.16.8-.34,1.2-.52A26.66,26.66,0,0,0,378.73,179.69Zm-22.9,24.67a23,23,0,1,1-7.23-45.51,23.45,23.45,0,0,1,5.72-.2,23,23,0,0,1,1.51,45.71Z"/><path class="cls-4" d="M431.65,179.2a31.75,31.75,0,0,0-6.09-18.44,20.34,20.34,0,0,0-6.73-5.84,15.4,15.4,0,0,0-7.64-1.81c-5.4.13-10.37,3.1-14,8.36a28.71,28.71,0,0,0-4.12,9.32h0a34.9,34.9,0,0,0-.68,3.47,34.35,34.35,0,0,0-.33,4.09c0,.61,0,1.23,0,1.84A33.77,33.77,0,0,0,394.46,192c3.21,8,9.31,13.55,16.33,14.2a16.88,16.88,0,0,0,1.75.05,14.9,14.9,0,0,0,5.12-1.05C426,202,432,191.47,431.65,179.2Zm-13.51,21.9a12,12,0,0,1-5.7,1.63c-9,.23-16.5-9.92-16.82-22.62a33.59,33.59,0,0,1,.2-4.51h0c.05-.45.11-.91.18-1.36h0c.11-.75.26-1.49.44-2.22h0a25.41,25.41,0,0,1,3.68-8.51c.28-.41.57-.79.88-1.16,2.84-3.56,6.44-5.56,10.27-5.65a11.92,11.92,0,0,1,1.34,0,12.86,12.86,0,0,1,6.46,2.57,17.94,17.94,0,0,1,3.66,3.63,28.16,28.16,0,0,1,5.35,16.38C428.34,189.12,424.19,197.66,418.14,201.1Z"/><path class="cls-4" d="M377.67,180.53l-2.36-2.67c3.95-3.49,13.16-8.28,19.83-1.49l-2.54,2.49C386.64,172.77,378,180.21,377.67,180.53Z"/><path class="cls-4" d="M262.82,176.77l-2.88-2.08c1-1.34,9.7-13.14,17.74-13.25,7.52-.08,49,9.6,50.93,10.09l-.85,3.45c-13.33-3.29-44.22-10.07-50-10C272.42,165.07,265.17,173.52,262.82,176.77Z"/><path class="cls-7" d="M299.86,179.93s-16.13-29.6-29.35-24.15-3.24,46.86,10.77,53.94S302.1,204,302.1,204Z"/><path class="cls-2" d="M273.66,167.58c-.23-.05-.31.28-.12.38,9.79,5.3,14.13,15.42,16.8,25.7-2.62-4.14-6.54-6.68-12-3.62-.29.16-.08.61.22.58,4.3-.43,7.25.64,9.71,4.32,1.74,2.61,2.78,5.77,3.91,8.68.37,1,2.09.67,1.85-.43,0-.08,0-.16-.05-.24C295.67,189.9,287.55,170.47,273.66,167.58Z"/><path class="cls-2" d="M354,60.9l-1.76,8.68a1.69,1.69,0,0,1-2,1.32h0a1.74,1.74,0,0,1-1.18-.9,3.46,3.46,0,0,0-2.42-1.81,3.53,3.53,0,1,0,1.54,6.19,1.74,1.74,0,0,1,1.44-.38h0A1.71,1.71,0,0,1,351,76l-1.76,8.68-8.68-1.76a1.67,1.67,0,0,0-2,1.32h0a1.72,1.72,0,0,0,.37,1.44,3.53,3.53,0,1,1-4.38-.89,1.76,1.76,0,0,0,.91-1.18h0a1.69,1.69,0,0,0-1.32-2l-8.68-1.76,1.76-8.68a1.67,1.67,0,0,1,2-1.32h0a1.72,1.72,0,0,1,1.18.9,3.52,3.52,0,1,0,.89-4.38,1.76,1.76,0,0,1-1.44.38h0a1.69,1.69,0,0,1-1.32-2l1.75-8.68,8.68,1.76a1.69,1.69,0,0,0,2-1.32h0a1.76,1.76,0,0,0-.38-1.44,3.53,3.53,0,1,1,4.38.89,1.72,1.72,0,0,0-.9,1.18h0a1.68,1.68,0,0,0,1.32,2Z"/><path class="cls-3" d="M354,60.9l-8.68-1.76a1.68,1.68,0,0,1-1.32-2h0a1.7,1.7,0,0,1,.9-1.18,3.53,3.53,0,1,0-5.1-3.83,3.55,3.55,0,0,0,.72,2.94,1.75,1.75,0,0,1,.38,1.44h0a1.7,1.7,0,0,1-2,1.32l-8.68-1.76L332,47.4a1.68,1.68,0,0,0-1.32-2h0a1.72,1.72,0,0,0-1.44.38,3.53,3.53,0,1,1,.89-4.39,1.73,1.73,0,0,0,1.18.91h0a1.69,1.69,0,0,0,2-1.32l1.76-8.68,8.68,1.76a1.68,1.68,0,0,1,1.32,2h0a1.7,1.7,0,0,1-.9,1.18,3.48,3.48,0,0,0-1.81,2.42,3.53,3.53,0,1,0,6.19-1.53,1.76,1.76,0,0,1-.38-1.44h0a1.69,1.69,0,0,1,2-1.32l8.68,1.76-1.76,8.68a1.68,1.68,0,0,0,1.32,2h0a1.76,1.76,0,0,0,1.44-.38,3.53,3.53,0,1,1-.89,4.39,1.7,1.7,0,0,0-1.18-.91h0a1.68,1.68,0,0,0-2,1.32Z"/><path class="cls-3" d="M250.66,83.6l8.68,1.76a1.69,1.69,0,0,1,1.32,2h0a1.7,1.7,0,0,1-.9,1.17,3.53,3.53,0,1,0,5.1,3.83,3.55,3.55,0,0,0-.72-2.94,1.74,1.74,0,0,1-.38-1.44h0a1.71,1.71,0,0,1,2-1.32l8.68,1.76-1.76,8.68a1.68,1.68,0,0,0,1.32,2h0a1.72,1.72,0,0,0,1.44-.37,3.53,3.53,0,1,1-.89,4.38,1.76,1.76,0,0,0-1.18-.91h0a1.69,1.69,0,0,0-2,1.32l-1.76,8.68-8.68-1.76a1.67,1.67,0,0,1-1.32-2h0a1.72,1.72,0,0,1,.9-1.18,3.48,3.48,0,0,0,1.81-2.42,3.53,3.53,0,1,0-6.19,1.53,1.76,1.76,0,0,1,.38,1.44h0a1.69,1.69,0,0,1-2,1.32l-8.68-1.75,1.76-8.68a1.69,1.69,0,0,0-1.32-2h0a1.76,1.76,0,0,0-1.44.38,3.54,3.54,0,1,1,.89-4.38,1.72,1.72,0,0,0,1.18.9h0a1.68,1.68,0,0,0,2-1.32Z"/><path class="cls-11" d="M92,321.83c121.5,24,257.66,51.58,378.92,76.78C349.4,374.62,213.24,347,92,321.83Z"/><path class="cls-4" d="M322.11,59.34C327.59,77.56,317.84,85.57,318,91a88.06,88.06,0,0,0,1.53,9.87l-18.12,7.85a85.12,85.12,0,0,0-6.15-7.87c-3.86-3.82-16.39-2.17-25.92-18.64C263.05,71.4,263.82,49.7,283,41.4S318.5,47.38,322.11,59.34Z"/><rect class="cls-3" x="297.25" y="78.69" width="0.65" height="31.94" transform="translate(-2.08 182.52) rotate(-33.99)"/><rect class="cls-3" x="311.53" y="72.5" width="0.65" height="31.94" transform="translate(-11.86 71.49) rotate(-12.83)"/><path class="cls-3" d="M302.59,86.66c-1.92.83-4.23-.59-5.44-1.51l-.26-.2a2.37,2.37,0,0,1-1.18,1.59c-2.64,1.15-6.11-3.91-6.26-4.13l.27-.18s3.46,5,5.86,4h0a2.14,2.14,0,0,0,1-1.52A13.49,13.49,0,0,1,293,80.19c-.66-1.53-.48-2.62.51-3h0a1.69,1.69,0,0,1,1.77.2c1.41,1,2.07,4.19,1.8,6.49a5.76,5.76,0,0,1-.13.78c1.84,1.5,3.94,2.42,5.48,1.75,1.16-.5,1.92-1.9,2.16-3.94,0-.19,0-.39.05-.58a8,8,0,0,1-3.77-4.11c-.85-2-.65-3.49.52-4a1.28,1.28,0,0,1,1.35.2c1.4,1,2.39,4.56,2.24,7.71a3,3,0,0,0,2.27,0h0c2.06-.89,1.23-7.06,1.22-7.12l.32,0c0,.26.87,6.47-1.41,7.46A3.27,3.27,0,0,1,305,82c0,.17,0,.33-.05.49-.18,1.53-.73,3.51-2.35,4.21Zm-1-12.63c-1.17.51-1,2.18-.34,3.57a8,8,0,0,0,3.49,3.9c.11-3-.83-6.36-2.11-7.31A1,1,0,0,0,301.54,74Zm-7.87,3.41h0c-1.08.47-.68,1.84-.34,2.62a13,13,0,0,0,3.37,4.32,5.21,5.21,0,0,0,.09-.59c.25-2.16-.38-5.23-1.67-6.19A1.36,1.36,0,0,0,293.67,77.44Z"/><rect class="cls-12" x="298.88" y="103.82" width="24.35" height="4.76" transform="translate(-16.58 132.4) rotate(-23.42)"/><rect class="cls-12" x="301.08" y="108.89" width="24.35" height="4.76" transform="translate(-18.42 133.69) rotate(-23.42)"/><rect class="cls-12" x="303.27" y="113.97" width="24.35" height="4.76" transform="translate(-20.25 134.98) rotate(-23.42)"/><path class="cls-3" d="M271.32,74.76c-3.48-9-1.4-21.51,7.65-26.44-6.93,7-8.25,17-7.65,26.44Z"/><path class="cls-12" d="M355.45,110.66a11.7,11.7,0,0,0,1.08-4.31l2.92-.6-.51-3.94-3,.14a11.52,11.52,0,0,0-2.25-3.88l1.6-2.41-3.15-2.44-1.95,2.15a11.62,11.62,0,0,0-4.46-1.23l-.55-2.66-3.94.49.14,2.72a11.49,11.49,0,0,0-4.16,2.38l-2.13-1.4-2.43,3.14,1.9,1.73a11.61,11.61,0,0,0-1.2,4.72l-2.45.5.5,3.94,2.61-.13a11.36,11.36,0,0,0,2.5,4.14l-1.43,2.14,3.15,2.44,1.84-2a11.64,11.64,0,0,0,4.56,1.06l.55,2.7,3.95-.49-.15-2.92a11.51,11.51,0,0,0,3.86-2.38l2.44,1.6,2.43-3.13Zm-13,2.75a8.12,8.12,0,1,1,10.37-4.93A8.14,8.14,0,0,1,342.45,113.41Z"/><path class="cls-12" d="M349.31,111.23l-1.7.82-2-4.14-.73-1.52a2.66,2.66,0,0,0,.64-.21,2.45,2.45,0,0,0,1-.82l.77,1.6Z"/><path class="cls-12" d="M348.13,102.19a4.09,4.09,0,1,0-2.51,5.72,5.5,5.5,0,0,0,.63-.25,4,4,0,0,0,1-.7A4.07,4.07,0,0,0,348.13,102.19Zm-2.6,4a2.66,2.66,0,0,1-.64.21,2.46,2.46,0,1,1,.64-.21Z"/><path class="cls-12" d="M284.16,122.08a8,8,0,0,0,1.92-2.43l2,.46.81-2.65-2-.78a7.89,7.89,0,0,0-.32-3.11l1.71-1.07-1.3-2.45-1.85.81a8.19,8.19,0,0,0-2.48-2.07l.42-1.84-2.65-.82-.69,1.77a8,8,0,0,0-3.32.31l-1-1.5-2.45,1.3.71,1.64a8.25,8.25,0,0,0-2.11,2.65l-1.7-.38-.82,2.64,1.69.67a8.15,8.15,0,0,0,.4,3.34l-1.52,1L271,122l1.75-.76a8.14,8.14,0,0,0,2.59,2l-.42,1.88,2.64.82.75-1.9a8.19,8.19,0,0,0,3.13-.4l1.09,1.72L285,124Zm-9-2a5.66,5.66,0,1,1,8-.15A5.67,5.67,0,0,1,275.12,120.09Z"/><path class="cls-4" d="M322.14,142.5a8,8,0,0,0,2.89-1.09l1.51,1.43L328.6,141l-1.29-1.68a7.8,7.8,0,0,0,1.33-2.82l2-.05.15-2.77-2-.25a8,8,0,0,0-1.06-3l1.31-1.37-1.85-2.06-1.5,1.15a8.31,8.31,0,0,0-3-1.44l-.05-1.77-2.76-.15-.23,1.78a8.08,8.08,0,0,0-3.18,1.18l-1.27-1.2-2.05,1.85,1.1,1.44a8,8,0,0,0-1.37,3.07l-1.8,0-.15,2.77,1.89.25a8.2,8.2,0,0,0,1.2,3l-1.32,1.39,1.84,2.06,1.62-1.24a8,8,0,0,0,2.89,1.27l.05,2,2.76.15Zm-6.73-6.36a5.66,5.66,0,1,1,6.94,4A5.65,5.65,0,0,1,315.41,136.14Z"/><path class="cls-6" d="M306.64,137.33a11.7,11.7,0,0,0-.38-4.42l2.57-1.51-1.75-3.58-2.82,1.12a11.46,11.46,0,0,0-3.39-2.94l.73-2.81-3.76-1.29-1.14,2.68a11.79,11.79,0,0,0-4.63.27l-1.38-2.34-3.57,1.75,1,2.53a11.52,11.52,0,0,0-3.16,3.59l-2.47-.63-1.28,3.76,2.36,1a11.79,11.79,0,0,0,.39,4.85l-2.15,1.27,1.74,3.57,2.43-1a11.38,11.38,0,0,0,3.7,3.1l-.65,2.5,3.77,1.29,1.08-2.52a11.56,11.56,0,0,0,4.66-.47l1.4,2.38,3.57-1.75-1.08-2.71a11.67,11.67,0,0,0,2.88-3.5l2.83.72,1.28-3.75Zm-11.41,6.81a8.12,8.12,0,1,1,8.21-8A8.13,8.13,0,0,1,295.23,144.14Z"/><g class="cls-13"><path class="cls-6" d="M299.64,134.21a1.7,1.7,0,1,1-1.33-2A1.7,1.7,0,0,1,299.64,134.21Z"/><path class="cls-6" d="M299.92,139l-.13.61-5.74-1.17.12-.61a2.93,2.93,0,0,1,5.75,1.17Z"/></g><path class="cls-6" d="M295.18,134.35a1.7,1.7,0,1,1-1.33-2A1.7,1.7,0,0,1,295.18,134.35Z"/><path class="cls-6" d="M295.46,139.18l-.12.6-5.75-1.16.12-.61a2.93,2.93,0,0,1,5.75,1.17Z"/><path class="cls-4" d="M396.58,91.35l1.1-3.24L394,86.42a18.57,18.57,0,0,0,.36-5.49l3.88-1.18-.66-3.35-4.05.39a18.35,18.35,0,0,0-2.44-4.94l2.78-3-2.24-2.57-3.33,2.36a18,18,0,0,0-4.57-3.06l.92-4-3.23-1.1-1.69,3.7a18.62,18.62,0,0,0-5.5-.36L373,60l-3.35.66.38,4.05a18.59,18.59,0,0,0-4.93,2.44l-3-2.78-2.59,2.25L362,70a17.72,17.72,0,0,0-3.06,4.58l-4-.92-1.11,3.23,3.71,1.7a18.55,18.55,0,0,0-.36,5.49l-3.89,1.18.66,3.35,4.06-.38a18.87,18.87,0,0,0,2.43,4.93l-2.77,3,2.25,2.59,3.3-2.37a18.39,18.39,0,0,0,4.59,3.06l-.92,4,3.22,1.11,1.71-3.7a18.88,18.88,0,0,0,5.49.35l1.17,3.88,3.36-.65-.39-4.06a18.35,18.35,0,0,0,4.94-2.44l3,2.79,2.56-2.25L389.57,95a19,19,0,0,0,3.06-4.59Zm-23.2,2.91a12,12,0,1,1,14.17-9.4A12,12,0,0,1,373.38,94.26Z"/><path class="cls-4" d="M379.45,76.67a2.46,2.46,0,1,1-1.92-2.9A2.46,2.46,0,0,1,379.45,76.67Z"/><rect class="cls-4" x="373.94" y="78.22" width="5.22" height="0.75" transform="translate(23.11 -73.22) rotate(11.46)"/><rect class="cls-8" x="373.94" y="78.22" width="5.22" height="0.75" transform="translate(23.11 -73.22) rotate(11.46)"/><rect class="cls-4" x="369.21" y="88.37" width="10.57" height="0.75" transform="translate(25.09 -72.61) rotate(11.46)"/><rect class="cls-8" x="369.21" y="88.37" width="10.57" height="0.75" transform="translate(25.09 -72.61) rotate(11.46)"/><rect class="cls-4" x="368.79" y="90.43" width="10.57" height="0.75" transform="translate(25.49 -72.49) rotate(11.46)"/><rect class="cls-8" x="368.79" y="90.43" width="10.57" height="0.75" transform="translate(25.49 -72.49) rotate(11.46)"/><rect class="cls-4" x="369.39" y="89.1" width="9.78" height="1.36" transform="translate(25.29 -72.55) rotate(11.46)"/><rect class="cls-4" x="374.27" y="78.96" width="4.26" height="0.75" transform="translate(23.25 -73.18) rotate(11.46)"/><path class="cls-4" d="M378.8,89.23l-8.47-1.71a9.47,9.47,0,0,0,3.2-3.78c.73-1.88,1.4-4.32,1.4-4.32l2.79.57s-.33,2.5-.39,4.52A9.38,9.38,0,0,0,378.8,89.23Z"/></g><path class="cls-4" d="M213.87,264.8a13.21,13.21,0,0,0-2.16,7,4.85,4.85,0,0,0,2.17,3.91c3.73,2.56,9.54-.39,12.86-2.17a48.67,48.67,0,0,0,11.3-8.68,33.1,33.1,0,0,0,2.82-3.3c2.16-2.54,3.57-5.31,3.47-7.92-7.72,1.19-16.09,2.68-24.75,4.35A46.14,46.14,0,0,0,213.87,264.8Z"/></svg>