<svg id="Слой_1" data-name="Слой 1" xmlns="http://www.w3.org/2000/svg" xmlns:xlink="http://www.w3.org/1999/xlink" viewBox="0 0 240 240"><defs><style>.cls-1,.cls-9{fill:none;}.cls-2{clip-path:url(#clip-path);}.cls-3{fill:#fb6a55;}.cls-4{fill:#fff;}.cls-5{fill:#a8a8a8;}.cls-6{fill:#306;}.cls-7{fill:#4a148c;}.cls-8{fill:#ffc800;}.cls-9{stroke:#f5a79e;stroke-linecap:round;stroke-linejoin:round;stroke-width:0;}.cls-10{fill:#ff98b9;}</style><clipPath id="clip-path"><rect class="cls-1" x="-10" y="-6.22" width="260" height="260" transform="translate(240 247.55) rotate(-180)"/></clipPath></defs><g class="cls-2"><path class="cls-3" d="M14.6,228.92c.75-2.28,41.25-55.79,44-56.82C58.93,172,77,184.84,77,184.84c.75,1,35.16-6.27,35.16-6.27l.34,41.51-62.68-1.33s-8.46,5-16.21,9h0a93.66,93.66,0,0,1-10.18,4.95C20.29,233.53,13.83,231.2,14.6,228.92Z"/><path class="cls-4" d="M23.43,232.73a91.69,91.69,0,0,0,10.18-4.95h0c7.74-4.05,16.21-9,16.21-9l13.95.3L85.64,183.8c-4.79.85-8.37,1.36-8.61,1,0,0-18.09-12.88-18.41-12.74-2.77,1-43.26,54.53-44,56.82S20.29,233.53,23.43,232.73Z"/><path class="cls-5" d="M14.23,229c.79-2.34,41.47-55.82,44.31-56.88,1.08-.4,9.93,5.07,18.49,12.73L50.77,219.29S26.53,232.13,23.29,233,13.43,231.34,14.23,229Z"/><path class="cls-6" d="M17,229.85c7-8.79,34.6-44.94,40.89-54.17,0-.07,0-.11-.06,0-7.16,8.57-34.43,44.93-41,54.1C16.66,229.94,16.8,230,17,229.85Z"/><path class="cls-6" d="M27.83,231a9,9,0,0,0,1.89-7,8.74,8.74,0,0,0-3.26-5.64c-.05,0-.13.06-.08.11a10.44,10.44,0,0,1,1.34,12.47A.07.07,0,0,0,27.83,231Z"/><path class="cls-6" d="M47.73,221.42c2.78-3.55,4.68-8.67,3.44-13.14-.05-.17-.3-.1-.32.05a62.56,62.56,0,0,1-3.61,12.81A.29.29,0,0,0,47.73,221.42Z"/><path class="cls-6" d="M44.54,223.37c2.78-3.55,4.68-8.68,3.44-13.14,0-.17-.29-.1-.32.05a61.67,61.67,0,0,1-3.61,12.81A.29.29,0,0,0,44.54,223.37Z"/><path class="cls-6" d="M41.36,225.32c2.77-3.55,4.67-8.68,3.43-13.14,0-.17-.29-.1-.32,0A62.26,62.26,0,0,1,40.87,225,.29.29,0,0,0,41.36,225.32Z"/><path class="cls-6" d="M38.17,227.26c2.78-3.55,4.68-8.67,3.44-13.13,0-.17-.3-.1-.32,0A62.83,62.83,0,0,1,37.68,227,.28.28,0,0,0,38.17,227.26Z"/><path class="cls-6" d="M64.62,184.44c3-4-3.22-8.78-6.27-4.74S61.56,188.48,64.62,184.44Z"/><path class="cls-6" d="M54.35,232.58c2.89-.67,3.16-4.08,2.45-6.39A23.63,23.63,0,0,0,50.1,216a.11.11,0,0,0-.18,0,.56.56,0,0,0-.79.42c-.17,3.9-.84,8.05.18,11.88C49.91,230.53,51.62,233.21,54.35,232.58Zm-4.27-10.2c0-1.92.17-3.83.14-5.75,1.3,2,2.68,3.94,3.78,6.07a25.47,25.47,0,0,1,1.42,3.15c.59,1.68.91,7.48-3.26,4.87C49.86,229.28,50,224.66,50.08,222.38Z"/><path class="cls-6" d="M55.55,206c-2.85,2.75-4.41,6.65-6.27,10.09a.54.54,0,0,0,.45.76.12.12,0,0,0,.14.13,23.57,23.57,0,0,0,11-5.33c1.8-1.61,3.32-4.67,1.19-6.73S57.22,204.42,55.55,206Zm3.69-.62c4.93-.08,1.66,4.72.29,5.86a24.46,24.46,0,0,1-2.85,2,70.43,70.43,0,0,1-6.36,3.25c1-1.63,1.88-3.33,2.84-5C54.3,209.5,56.53,205.46,59.24,205.41Z"/><path class="cls-7" d="M114.09,165.84h28.13s29.43-14.15,53.14-8.45c27.17,6.54,30.65,40.67,10.33,52.74C180,225.42,65.43,222.46,65.43,222.46l24.76-42s38.09-8,72.62-6.85l-48.72,6.64Z"/><path class="cls-6" d="M88.54,183.21a1.8,1.8,0,0,0,.06-.22.85.85,0,0,1,0-.17c0-.14.07-.27.11-.41s.18-.55.28-.82.23-.54.35-.8a5.77,5.77,0,0,1,.47-.74s0,0,.06-.05l0,0,.06,0,.06,0c4.19-.78,32.65-4.85,36.88-5.33s8.54-.89,12.82-1.25a255.94,255.94,0,0,1,25.68-.92c.81,0,1.61.05,2.41.07l.53-.13c.41-.1.82-.2,1.23-.28.78-.15,1.55-.26,2.33-.38,1.62-.25,3.25-.42,4.86-.72.1,0,.14.13,0,.15-1.62.36-3.22.83-4.84,1.19l-1.4.29c3.14.17,6.27.41,9.41.69.1,0,.1.17,0,.16-4.27-.25-8.56-.28-12.84-.21s-8.48.17-12.71.41c-8.57.49-17.14,1.26-25.67,2.15-4.79.5-33.81,4.74-38.62,4.94h-.06a1.51,1.51,0,0,1-.13.33c-.13.26-.26.52-.41.77s-.27.49-.42.73l-.24.35-.12.17s-.11.12-.13.18S88.49,183.31,88.54,183.21Z"/><path class="cls-6" d="M74.36,219.91c1.54-2.45,2.84-5.07,4.25-7.6l4.22-7.6c2.82-5.06,12.93-22.06,13.93-23.25.06-.07.19,0,.16.1-.47,1.32-6.78,12.57-8.24,15.08-2.9,5-6,9.94-9,14.9-.86,1.41-1.75,2.81-2.62,4.22s-1.8,2.79-2.6,4.23A.08.08,0,0,1,74.36,219.91Z"/><path class="cls-6" d="M97.05,185.69c2.52-.6,5.11-1,7.67-1.48l7.68-1.44q7.68-1.43,15.39-2.73c10.25-1.72,20.54-3.16,30.88-4.15,5.84-.56,11.7-.93,17.55-1.36.12,0,.12.19,0,.2-10.42.47-20.82,1.88-31.14,3.36s-20.41,3.08-30.59,4.8c-2.88.48-5.75,1-8.62,1.47s-5.83,1.13-8.77,1.5A.09.09,0,0,1,97.05,185.69Z"/><path class="cls-7" d="M122,303,75.83,323.88S20.82,218.3,19.38,186c-1.23-27.51,17.92-38.12,79.82-20.33l15.17.19V176.3C107.71,177.18,90,180,90,180c-12.93,4.87-17.09,6.89-16.88,7.31C105.3,252.34,122,303,122,303Z"/><path class="cls-6" d="M65.51,175.68c1.87,2.48,3.59,5.07,5.24,7.71a111.51,111.51,0,0,1,31.49-8.3q4.58-.56,9.16-.81c.13,0,.12.18,0,.19a137.66,137.66,0,0,0-32,6.1c-2.88.88-5.7,1.91-8.54,2.92,2,3.18,3.85,6.43,5.65,9.71a194.16,194.16,0,0,1,9,18.86c1.48,3.57,2.93,7.16,4.2,10.81,0,.11-.13.17-.18.07Q81.07,204.06,71,186c-1.89-3.4-3.85-6.76-5.69-10.19C65.29,175.7,65.44,175.58,65.51,175.68Z"/><path class="cls-6" d="M65.74,180.45c3.64,6.93,6.75,14.17,9.92,21.33s6.22,14.3,9.2,21.51q8.9,21.53,16.57,43.53c2.9,8.29,5.62,16.65,8.27,25,0,.12-.15.16-.19,0-4.9-14.82-10.2-29.51-15.74-44.09s-11.4-29-17.61-43.25q-2.61-6-5.31-12c-1.8-4-3.68-7.94-5.36-12C65.42,180.42,65.65,180.28,65.74,180.45Z"/><path class="cls-8" d="M142,169.2c-1,1-65.31.42-65.62,0-.84-1.13,8.78-41.61,16-57,9.25-19.68,14.14-21.32,17.06-22.42,3.74-1.4,10.43-.82,12-.09,1.81.81,9.49,10,11.64,17.31C137.39,121.71,142.86,168.29,142,169.2Z"/><path class="cls-3" d="M98.58,94.87c-28.37,19.91-53.25,48-51.25,57.22,2.12,9.75,20.91,21.19,37.73,23.95,3.45.56,15-24.47,11.48-25.75-2.73-1-15.18-5-16.63-6.76-1-1.23,19.39-28,26.19-42.13C113.23,86.63,106.17,89.54,98.58,94.87Z"/><path class="cls-3" d="M89.43,149.28s10.53,1.41,17.37,2.65c3.82.7,10.26,2.47,12.83,4.26,3.85,2.68,18.22,16.36,15,19.91-2.93,3.22-7-2.16-7-2.16s5,5.46,1.13,7.76-8.57-5.21-8.57-5.21,5.74,5.43,1.35,7.49c-3.81,1.79-10.11-6.3-10.11-6.3s6.65,5,2.93,7.25c-4.11,2.44-15.08-8.5-15.08-8.5-9.07.72-14.62-.08-20.93-2.07C77.15,174,89.43,149.28,89.43,149.28Z"/><path class="cls-6" d="M121.68,178.31l-1.19-1.71a35.12,35.12,0,0,0-2.42-3.25c-.87-1-1.78-1.95-2.72-2.88s-2.09-1.87-3-2.87a.08.08,0,1,0-.11.11,36.69,36.69,0,0,1,2.72,3.11c.87,1,1.72,2.08,2.58,3.12s1.73,2,2.6,3c.43.5.83,1,1.24,1.53a11.9,11.9,0,0,0,1.2,1.44c0,.05.11,0,.09-.07A8.82,8.82,0,0,0,121.68,178.31Z"/><path class="cls-6" d="M128.61,175.1a53.49,53.49,0,0,0-4.36-6.14,38.42,38.42,0,0,0-5.41-5.26.08.08,0,0,0-.11.11c1.62,1.93,3.27,3.84,4.92,5.75.8.94,4.33,5.29,4.75,5.7C128.51,175.36,128.66,175.22,128.61,175.1Z"/><path class="cls-6" d="M115.24,181.51a51.91,51.91,0,0,0-4.21-5.7,48,48,0,0,0-5.52-4.69c-.08-.05-.18,0-.11.11,1.71,1.7,3.45,3.36,5.09,5.14.79.86,3.77,4.5,4.6,5.26A.1.1,0,0,0,115.24,181.51Z"/><path class="cls-8" d="M67,119.52,87.6,133.88s16.43-23.71,20.86-35-.3-11.52-11.64-3.57S67,119.52,67,119.52Z"/><path class="cls-6" d="M71.85,116.66A171.82,171.82,0,0,0,89,129.07c.08.05.15-.07.08-.12-1.57-1-10-7.63-17.16-12.43C71.84,116.47,71.77,116.59,71.85,116.66Z"/><path class="cls-6" d="M86.27,132.9a9.15,9.15,0,0,1,1.26.71c2.48-4,5.14-8,7.65-11.94,1.23-1.93,2.47-3.86,3.7-5.8s2.45-4.12,3.83-6.06c0-.06.12,0,.09.06-.88,1.93-2,3.78-3.06,5.63.22-.28.44-.57.68-.84.54-.6,1.07-1.2,1.56-1.85.08-.09.24,0,.17.11-.47.61-.89,1.25-1.32,1.9s-.87,1.26-1.34,1.88-.93,1.15-1.42,1.71l-.18.21c-.68,1.16-1.34,2.32-2,3.46-2.48,4-8.07,12-8.14,12A11.44,11.44,0,0,1,86.2,133S86.21,132.89,86.27,132.9Z"/><path class="cls-3" d="M133.29,95.21c22.09,12.41,42.73,27.3,46.37,37.29,2.29,6.29-1.15,17.43-3.88,24.12-1.33,3.26-32-10.58-29.32-13.23,6.61-6.54,7.71-9.22,7.07-10.61-.4-.89-24.3-23-30.89-32.89C113.47,86.17,123.62,89.78,133.29,95.21Z"/><path class="cls-3" d="M133.73,173.49c2.88,1.75,6.57-5.72,6.57-5.72a6.23,6.23,0,0,0,1.61,3.91c1.81,1.81,5.44-.24,5.44-.24a7.7,7.7,0,0,0,2.36,3.86c1.9,1.56,5.86,0,5.86,0a6.74,6.74,0,0,0,4.2,2.08c4.31.28,8.15-5.08,10.63-8.46s6.33-15.28,7.3-17.47l-21.55-16.08s-15.42,12-17.76,16.38C136.41,155.46,129.33,170.83,133.73,173.49Z"/><path class="cls-6" d="M140.26,167.66c1.16-4.43,3.38-8.58,5.56-12.56a.08.08,0,0,1,.14.08c-2.22,3.93-3.44,8.55-5.5,12.56A.11.11,0,0,1,140.26,167.66Z"/><path class="cls-6" d="M147.12,171.17a12.23,12.23,0,0,1,1.46-2.77c.58-.94,1.17-1.87,1.79-2.8q1.83-2.78,3.8-5.45c.06-.08.2,0,.14.08q-1.83,2.76-3.54,5.6c-.57.95-1.13,1.9-1.69,2.85a14.2,14.2,0,0,1-1.69,2.63A.16.16,0,0,1,147.12,171.17Z"/><path class="cls-6" d="M155.62,175.24a8.17,8.17,0,0,1,1.44-2.42c.58-.83,1.15-1.67,1.71-2.5,1.14-1.67,2.27-3.35,3.34-5.06,0-.08.19,0,.14.08-1.09,1.74-2.14,3.5-3.24,5.24-.54.85-1.08,1.7-1.63,2.54a7.62,7.62,0,0,1-1.68,2.18S155.61,175.28,155.62,175.24Z"/><path class="cls-8" d="M165.18,113.77l-17,15.59s-21-19.86-26.94-30.5-1.25-11.46,11-5.11S165.18,113.77,165.18,113.77Z"/><path class="cls-8" d="M165.18,113.77l-17,15.59s-21-19.86-26.94-30.5-1.25-11.46,11-5.11S165.18,113.77,165.18,113.77Z"/><path class="cls-6" d="M144.92,125a165.19,165.19,0,0,0,15-14c.06-.06,0-.15-.11-.09-1.26,1.3-9.11,8-15,14C144.74,125,144.84,125.1,144.92,125Z"/><path class="cls-6" d="M131.07,103.11c.77,1.79,1.54,3.57,2.17,5.41,0-.12,0-.24,0-.36a24.62,24.62,0,0,0-.4-3.33.1.1,0,0,1,.19,0c.21,1.11.4,2.22.54,3.34.07.54.1,1.08.12,1.62,0,.05,0,.13,0,.19a.25.25,0,0,1,0,.07c.72,2.44,1.15,4.94,1.75,7.41,0,.12-.16.16-.19,0-.59-2.42-1.48-4.77-2.25-7.13s-1.38-4.78-2.11-7.15A.08.08,0,0,1,131.07,103.11Z"/><path class="cls-3" d="M119.55,100.8c-3.64.88-9.93-4.67-12.42-9.18-.17-.31.29-3.57.66-7.57.22-2.43.4-5.13.39-7.62,0-.5,15.58,3.72,15.58,3.72a39.93,39.93,0,0,0-1.46,9.54,6.37,6.37,0,0,0,.11,1l0,.17C122.76,92.81,123.08,100,119.55,100.8Z"/><path class="cls-6" d="M109.14,76.5c.74,4.19,3.39,14.32,11.7,14.47a8.8,8.8,0,0,0,1.59-.1.44.44,0,0,0,0-.17,6.37,6.37,0,0,1-.11-1,39.27,39.27,0,0,1,1.46-9.54S112.52,77.1,109.14,76.5Z"/><path class="cls-3" d="M109,55.86c-2.74,5.08-3,21.29.14,25.54,4.57,6.18,13.6,8.49,19.24,2.64,5.47-5.67,5.46-26.79,1.79-30.82C124.78,47.28,113.05,48.35,109,55.86Z"/><path class="cls-9" d="M108.79,81.17h0"/><path class="cls-6" d="M121.31,70.34s-.08,0-.08.1c0,1.09-.16,2.34-1.16,2.69a0,0,0,0,0,0,.06C121.29,73,121.5,71.38,121.31,70.34Z"/><path class="cls-6" d="M120.36,69.18c-1.75-.17-2,3.35-.34,3.51S121.83,69.33,120.36,69.18Z"/><path class="cls-6" d="M127.41,70.75s.08.06.08.1c-.1,1.09,0,2.35.93,2.77,0,0,0,.07,0,.06C127.21,73.44,127.14,71.76,127.41,70.75Z"/><path class="cls-6" d="M128.45,69.67c1.77,0,1.69,3.5.06,3.52S127,69.69,128.45,69.67Z"/><path class="cls-6" d="M118.91,66.3a13.76,13.76,0,0,0,1.44-.14,2.42,2.42,0,0,0,1.44-.43.75.75,0,0,0,.1-.91,1.85,1.85,0,0,0-1.77-.62,2.66,2.66,0,0,0-1.79.77A.79.79,0,0,0,118.91,66.3Z"/><path class="cls-6" d="M130.23,67.2a13.08,13.08,0,0,1-1.38-.45,2.31,2.31,0,0,1-1.32-.72.76.76,0,0,1,.1-.91,1.85,1.85,0,0,1,1.86-.23A2.68,2.68,0,0,1,131.08,66,.79.79,0,0,1,130.23,67.2Z"/><path class="cls-6" d="M118.88,80.36c.24.27.48.64.87.7a2.85,2.85,0,0,0,1.19-.21,0,0,0,0,1,0,.06,1.47,1.47,0,0,1-1.42.51,1.17,1.17,0,0,1-.8-1C118.76,80.34,118.84,80.32,118.88,80.36Z"/><path class="cls-6" d="M120.22,77.17A3.73,3.73,0,0,0,122.6,79a4.53,4.53,0,0,0,1.33.14,1,1,0,0,0,.25,0l.25,0a.29.29,0,0,0,.23-.23h0v-.11h0v-.1c.07-.84.07-2.12.07-2.12.3.17,1.82,1,1.82.53a55.79,55.79,0,0,0-.75-11.31c0-.13-.21-.11-.2,0-.15,3.5.33,7,.24,10.52a6.62,6.62,0,0,0-1.72-.64c-.12,0,0,2.48,0,2.85a.1.1,0,0,1,0,0,5.13,5.13,0,0,1-3.77-1.42C120.25,77,120.16,77.08,120.22,77.17Z"/><path class="cls-6" d="M123.46,78.66a4.46,4.46,0,0,1-1.85,1.25,2,2,0,0,1-1.2,0c-.86-.29-.83-1.09-.63-1.76a4.7,4.7,0,0,1,.45-1A5.71,5.71,0,0,0,123.46,78.66Z"/><path class="cls-10" d="M121.61,79.91a2,2,0,0,1-1.2,0c-.86-.29-.83-1.09-.63-1.76A2,2,0,0,1,121.61,79.91Z"/><path class="cls-6" d="M131.34,60.47c-5.73,3-12.34-3.35-12.34-3.35a5.8,5.8,0,0,1-6.28,3s-2.11,8.86-4.47,8.56c-3.61-.45-3.27-12.82-1.85-15.09S111,51,111,51a5.91,5.91,0,0,1,2.87-3.28c2.69-1.59,10.89,2,10.89,2A8,8,0,0,1,127.24,47a2.25,2.25,0,0,1,3.18.68,5.32,5.32,0,0,0-1.13,2.11c-.74,2.58,1.41,2.83,1.67.44a3.74,3.74,0,0,0-.54-2.55c1.24-1.43,3-1.74,4-.78C136.13,48.64,136.11,58,131.34,60.47Z"/><path class="cls-8" d="M126.61,70.89c.18-2.47,1.65-4.38,3.28-4.27s2.82,2.22,2.65,4.69-1.65,4.39-3.29,4.27S126.44,73.36,126.61,70.89Zm.6,0c-.15,2.14.78,4,2.09,4s2.48-1.57,2.64-3.71-.79-4-2.09-4S127.36,68.79,127.21,70.93Z"/><path class="cls-8" d="M115.35,70.09a4.2,4.2,0,1,1,3.87,4.77A4.36,4.36,0,0,1,115.35,70.09Zm.6,0a3.6,3.6,0,1,0,3.86-3.62A3.75,3.75,0,0,0,116,70.13Z"/><path class="cls-8" d="M123.54,70.27c2.3-.63,3.26.17,3.27.18l.41-.44c0-.05-1.18-1.05-3.83-.33Z"/><path class="cls-8" d="M115.68,69.72l.16-.59c-.39-.1-9.41-2.44-10.4-2.56s-3.58,1.06-3.87,1.19l.26.55a11.45,11.45,0,0,1,3.49-1.15h.05C106.13,67.26,112.45,68.88,115.68,69.72Z"/><path class="cls-3" d="M109.8,69.27s-2.64-5.71-5.17-4.86S103.45,73.1,106,74.59a2.8,2.8,0,0,0,4-.82Z"/><path class="cls-6" d="M105.07,66.64s-.06,0,0,.07c1.75,1.11,2.43,3.05,2.81,5a1.55,1.55,0,0,0-2.2-.83c-.06,0,0,.12,0,.12a1.71,1.71,0,0,1,1.76.92,8.8,8.8,0,0,1,.62,1.67c.06.18.38.15.35-.06v0C108.89,71.07,107.62,67.35,105.07,66.64Z"/><path class="cls-6" d="M105.21,92.71a72.55,72.55,0,0,0,5.24,6.21c1.8,1.79,4,3.43,6.51,3.77s4.93-.07,6-3c.82-2.36.8-4.83.51-7.9,0-.14.17-.16.18,0,.4,4,.73,10.09-2.91,11.31-4.07,1.35-7.91-.87-10.62-3.76a37.11,37.11,0,0,1-5-6.5S105.17,92.67,105.21,92.71Z"/><rect class="cls-6" x="80.63" y="182.49" width="73.83" height="3.31"/><polygon class="cls-6" points="99.59 185.8 171.54 185.8 177.53 136.93 105.58 136.93 99.59 185.8"/><path class="cls-4" d="M134.18,161.37a4.29,4.29,0,0,0,4.3,4.38,4.47,4.47,0,0,0,4.46-4.38,4.29,4.29,0,0,0-4.3-4.38A4.47,4.47,0,0,0,134.18,161.37Z"/><path class="cls-4" d="M217.32,47.74a34.11,34.11,0,0,1-57,21.58l-17.06,2.5,8.54-14.75a34.11,34.11,0,1,1,65.51-9.33Z"/><path class="cls-6" d="M217.32,47.74A34.35,34.35,0,0,1,210.44,65a38.83,38.83,0,0,1-3.09,3.56,40,40,0,0,1-3.6,3,33.69,33.69,0,0,1-8.23,4.58A33.07,33.07,0,0,1,181.6,78.5a31.09,31.09,0,0,1-4.72-.49A34.38,34.38,0,0,1,160,69.68l.4.12-17,2.62-1.24.19.63-1.09,8.48-14.78,0,.58a34.51,34.51,0,0,1,2.1-30.4A35,35,0,0,1,164,15.54a34.45,34.45,0,0,1,53.34,32.2Zm0,0a33.75,33.75,0,0,0-38.68-36.91,33.54,33.54,0,0,0-14.09,5.56,35.13,35.13,0,0,0-10.2,11.13A33.55,33.55,0,0,0,150,42a34,34,0,0,0,2.4,14.86l.12.3-.16.28-8.59,14.72-.61-.9,17.08-2.39.24,0,.17.15A33.57,33.57,0,0,0,177,77.37a28.7,28.7,0,0,0,4.63.56,31.52,31.52,0,0,0,4.66,0,33.46,33.46,0,0,0,9.11-2,32,32,0,0,0,8.23-4.44,36.92,36.92,0,0,0,3.6-3A38.49,38.49,0,0,0,210.34,65,34.25,34.25,0,0,0,217.32,47.74Z"/><polygon class="cls-8" points="179.4 63.65 164.84 48.9 169.73 44.06 178.24 52.68 195.92 24.96 201.72 28.66 179.4 63.65"/></g></svg>