<svg id="Слой_1" data-name="Слой 1" xmlns="http://www.w3.org/2000/svg" xmlns:xlink="http://www.w3.org/1999/xlink" viewBox="0 0 240 240"><defs><style>.cls-1{fill:none;}.cls-2{clip-path:url(#clip-path);}.cls-3{fill:#263238;}.cls-4{clip-path:url(#clip-path-2);}.cls-5{fill:#c8c8c8;}.cls-6{fill:#dcdcdc;}.cls-7{fill:#ed776a;}.cls-8{fill:#ececec;}.cls-9{fill:#ffc800;}.cls-10{opacity:0.2;}.cls-11{fill:#306;}.cls-12,.cls-14{opacity:0.1;}.cls-13{fill:#4a148c;}.cls-15{fill:#a8a8a8;}.cls-16{fill:#fff;}.cls-17{fill:#1a2e35;}.cls-18{fill:#ffaba1;}.cls-19{fill:#ff9581;}.cls-20{fill:#ff9bbe;}.cls-21{opacity:0.3;}</style><clipPath id="clip-path"><rect class="cls-1" x="283" y="-313.22" width="260" height="260" transform="translate(826 -366.45) rotate(-180)"/></clipPath><clipPath id="clip-path-2"><rect class="cls-1" x="22.5" y="-332.22" width="251.27" height="276" rx="12.93"/></clipPath></defs><g class="cls-2"><path class="cls-3" d="M834.22,127.69c-206.87.61-438.93.61-645.8,0,206.87-.62,438.93-.61,645.8,0Z"/></g><g class="cls-4"><rect class="cls-5" x="118.97" y="-113.51" width="3.01" height="318.73" transform="translate(240.95 91.71) rotate(180)"/><rect class="cls-6" x="115.96" y="-113.51" width="3.01" height="318.73" transform="translate(234.93 91.71) rotate(180)"/><rect class="cls-5" x="138.25" y="-66.13" width="3.01" height="271.36" transform="translate(279.51 139.09) rotate(180)"/><rect class="cls-6" x="135.24" y="-66.13" width="3.01" height="271.36" transform="translate(273.49 139.09) rotate(180)"/><rect class="cls-5" x="158.39" y="-30.6" width="3.01" height="235.82" transform="translate(319.78 174.63) rotate(180)"/><rect class="cls-6" x="155.37" y="-30.6" width="3.01" height="235.82" transform="translate(313.76 174.63) rotate(180)"/><rect class="cls-5" x="60.29" y="-139.53" width="3.01" height="344.75" transform="translate(123.58 65.69) rotate(180)"/><rect class="cls-6" x="57.28" y="-139.53" width="3.01" height="344.75" transform="translate(117.56 65.69) rotate(180)"/><rect class="cls-5" x="1.6" y="-139.53" width="3.01" height="344.75" transform="translate(6.21 65.69) rotate(180)"/><rect class="cls-6" x="-1.41" y="-139.53" width="3.01" height="344.75" transform="translate(0.19 65.69) rotate(180)"/><rect class="cls-6" x="-1.41" y="133.22" width="162.8" height="14.17" transform="translate(159.99 280.62) rotate(180)"/><rect class="cls-6" x="93.22" y="198.8" width="12.03" height="6.43" transform="translate(198.46 404.02) rotate(180)"/><rect class="cls-6" x="86.22" y="192.37" width="12.03" height="6.43" transform="translate(184.46 391.17) rotate(180)"/><rect class="cls-6" x="79.21" y="185.95" width="12.03" height="6.43" transform="translate(170.46 378.32) rotate(180)"/><rect class="cls-6" x="72.21" y="179.52" width="12.03" height="6.43" transform="translate(156.45 365.47) rotate(180)"/><rect class="cls-6" x="65.21" y="173.1" width="12.03" height="6.43" transform="translate(142.45 352.62) rotate(180)"/><rect class="cls-6" x="58.21" y="166.67" width="12.03" height="6.43" transform="translate(128.45 339.77) rotate(180)"/><rect class="cls-6" x="51.21" y="160.24" width="12.03" height="6.43" transform="translate(114.44 326.92) rotate(180)"/><rect class="cls-6" x="44.2" y="153.82" width="12.03" height="6.43" transform="translate(100.44 314.06) rotate(180)"/><rect class="cls-6" x="37.2" y="147.39" width="12.03" height="6.43" transform="translate(86.43 301.21) rotate(180)"/><polygon class="cls-6" points="93.22 205.22 37.2 153.82 44.2 153.82 100.92 205.22 93.22 205.22"/><rect class="cls-6" x="-1.41" y="61.23" width="162.8" height="14.17" transform="translate(159.99 136.62) rotate(180)"/><rect class="cls-6" x="93.22" y="126.8" width="12.03" height="6.43" transform="translate(198.46 260.02) rotate(180)"/><rect class="cls-6" x="86.22" y="120.37" width="12.03" height="6.43" transform="translate(184.46 247.17) rotate(180)"/><rect class="cls-6" x="79.21" y="113.95" width="12.03" height="6.43" transform="translate(170.46 234.32) rotate(180)"/><rect class="cls-6" x="72.21" y="107.52" width="12.03" height="6.43" transform="translate(156.45 221.47) rotate(180)"/><rect class="cls-6" x="65.21" y="101.1" width="12.03" height="6.43" transform="translate(142.45 208.62) rotate(180)"/><rect class="cls-6" x="58.21" y="94.67" width="12.03" height="6.43" transform="translate(128.45 195.77) rotate(180)"/><rect class="cls-6" x="51.21" y="88.25" width="12.03" height="6.43" transform="translate(114.44 182.92) rotate(180)"/><rect class="cls-6" x="44.2" y="81.82" width="12.03" height="6.43" transform="translate(100.44 170.07) rotate(180)"/><rect class="cls-6" x="37.2" y="75.39" width="12.03" height="6.43" transform="translate(86.43 157.22) rotate(180)"/><polygon class="cls-6" points="93.22 133.22 37.2 81.82 44.2 81.82 100.92 133.22 93.22 133.22"/><rect class="cls-6" x="-1.41" y="-10.77" width="162.8" height="14.17" transform="translate(159.99 -7.38) rotate(180)"/><rect class="cls-6" x="93.22" y="54.8" width="12.03" height="6.43" transform="translate(198.46 116.03) rotate(180)"/><rect class="cls-6" x="86.22" y="48.37" width="12.03" height="6.43" transform="translate(184.46 103.17) rotate(180)"/><rect class="cls-6" x="79.21" y="41.95" width="12.03" height="6.43" transform="translate(170.46 90.32) rotate(180)"/><rect class="cls-6" x="72.21" y="35.52" width="12.03" height="6.43" transform="translate(156.45 77.47) rotate(180)"/><rect class="cls-6" x="65.21" y="29.1" width="12.03" height="6.43" transform="translate(142.45 64.62) rotate(180)"/><rect class="cls-6" x="58.21" y="22.67" width="12.03" height="6.43" transform="translate(128.45 51.77) rotate(180)"/><rect class="cls-6" x="51.21" y="16.25" width="12.03" height="6.43" transform="translate(114.44 38.92) rotate(180)"/><rect class="cls-6" x="44.2" y="9.82" width="12.03" height="6.43" transform="translate(100.44 26.07) rotate(180)"/><rect class="cls-6" x="37.2" y="3.4" width="12.03" height="6.43" transform="translate(86.43 13.22) rotate(180)"/><polygon class="cls-6" points="93.22 61.23 37.2 9.82 44.2 9.82 100.92 61.23 93.22 61.23"/><path class="cls-7" d="M233.21,199.86c-3.07,1-90.51-.92-93.81-3.09-1.25-.81-1.71-13.58-1.84-29,0-3.33,0-6.75,0-10.26,0-.73,5.2-44.4,5.2-44.4l56.08,1-4.41,44.4-.47,10.26s33.14,15.69,36.5,18.47S236.29,198.91,233.21,199.86Z"/><path class="cls-8" d="M233.21,199.86c-3.07,1-90.51-.92-93.81-3.09-1.25-.81-1.71-13.58-1.84-29,0-3.33,0-6.75,0-10.26,0-.73.27-3.63.54-6.23l56.95,1-.62,6.26-.47,10.26s33.14,15.69,36.5,18.47S236.29,198.91,233.21,199.86Z"/><path class="cls-9" d="M234.52,197.31V204a1.25,1.25,0,0,1-1.26,1.25h-.4a1.3,1.3,0,0,1-1.23-1,3.8,3.8,0,0,0-7.31,0,1.3,1.3,0,0,1-1.24,1h-1.91a1.29,1.29,0,0,1-1.23-1,3.79,3.79,0,0,0-7.3,0,1.3,1.3,0,0,1-1.24,1h-1.91a1.3,1.3,0,0,1-1.23-1,3.8,3.8,0,0,0-7.31,0,1.3,1.3,0,0,1-1.24,1H197.8a1.3,1.3,0,0,1-1.23-1,3.79,3.79,0,0,0-7.3,0,1.3,1.3,0,0,1-1.23,1h-1.91a1.3,1.3,0,0,1-1.24-1,3.8,3.8,0,0,0-7.31,0,1.3,1.3,0,0,1-1.23,1h-1.92a1.3,1.3,0,0,1-1.23-1,3.79,3.79,0,0,0-7.3,0,1.3,1.3,0,0,1-1.23,1h-1.91a1.3,1.3,0,0,1-1.24-1,3.8,3.8,0,0,0-7.31,0,1.3,1.3,0,0,1-1.23,1h-1.91a1.3,1.3,0,0,1-1.24-1,3.79,3.79,0,0,0-7.3,0,1.29,1.29,0,0,1-1.23,1h-1.36a1.25,1.25,0,0,1-1.26-1.25v-6.66a1.25,1.25,0,0,1,1.26-1.25h93.32A1.25,1.25,0,0,1,234.52,197.31Z"/><g class="cls-10"><path d="M234.52,197.31V204a1.25,1.25,0,0,1-1.26,1.25h-.4a1.3,1.3,0,0,1-1.23-1,3.8,3.8,0,0,0-7.31,0,1.3,1.3,0,0,1-1.24,1h-1.91a1.29,1.29,0,0,1-1.23-1,3.79,3.79,0,0,0-7.3,0,1.3,1.3,0,0,1-1.24,1h-1.91a1.3,1.3,0,0,1-1.23-1,3.8,3.8,0,0,0-7.31,0,1.3,1.3,0,0,1-1.24,1H197.8a1.3,1.3,0,0,1-1.23-1,3.79,3.79,0,0,0-7.3,0,1.3,1.3,0,0,1-1.23,1h-1.91a1.3,1.3,0,0,1-1.24-1,3.8,3.8,0,0,0-7.31,0,1.3,1.3,0,0,1-1.23,1h-1.92a1.3,1.3,0,0,1-1.23-1,3.79,3.79,0,0,0-7.3,0,1.3,1.3,0,0,1-1.23,1h-1.91a1.3,1.3,0,0,1-1.24-1,3.8,3.8,0,0,0-7.31,0,1.3,1.3,0,0,1-1.23,1h-1.91a1.3,1.3,0,0,1-1.24-1,3.79,3.79,0,0,0-7.3,0,1.29,1.29,0,0,1-1.23,1h-1.36a1.25,1.25,0,0,1-1.26-1.25v-6.66a1.25,1.25,0,0,1,1.26-1.25h93.32A1.25,1.25,0,0,1,234.52,197.31Z"/></g><path class="cls-9" d="M233.47,200c-2,.62-39.25.07-66.36-1-6.27-.25-12-.53-16.63-.81-6.38-.42-10.65-.84-11.34-1.3-1.52-1-1.91-19.73-1.89-39.47l57.21,1.06L194,168.78s33.34,15.78,36.71,18.57S236.56,199,233.47,200Z"/><path class="cls-9" d="M233.47,200c-2,.62-39.25.07-66.36-1-6.27-.25-12-.53-16.63-.81-6.38-.42-10.65-.84-11.34-1.3-1.52-1-1.91-19.73-1.89-39.47l57.21,1.06L194,168.78s33.34,15.78,36.71,18.57S236.56,199,233.47,200Z"/><path class="cls-11" d="M232.29,196.45c-14.73-.68-74.21-2-88.83-1.57-.12,0-.12.08,0,.09,14.59,1,74.08,1.85,88.82,1.72C232.59,196.69,232.6,196.46,232.29,196.45Z"/><path class="cls-11" d="M196.12,165.55c-5.77-1.21-12.89-.47-17.41,3.57-.17.15,0,.4.24.34a81.62,81.62,0,0,1,17.13-3.18A.37.37,0,0,0,196.12,165.55Z"/><path class="cls-11" d="M200.25,168.16c-5.77-1.21-12.89-.47-17.41,3.57-.17.16,0,.4.24.35a81.6,81.6,0,0,1,17.14-3.19A.37.37,0,0,0,200.25,168.16Z"/><path class="cls-11" d="M204.39,170.77c-5.78-1.2-12.89-.46-17.41,3.57-.18.16.05.41.24.35a81.62,81.62,0,0,1,17.13-3.18A.38.38,0,0,0,204.39,170.77Z"/><path class="cls-11" d="M208.52,173.39c-5.78-1.21-12.89-.47-17.41,3.57-.18.15,0,.4.24.34a81.62,81.62,0,0,1,17.13-3.18A.37.37,0,0,0,208.52,173.39Z"/><path class="cls-11" d="M207.12,152.36c-2.21-3.18-6.48-1.86-9,.12a31,31,0,0,0-9.22,13.1.16.16,0,0,0,.14.21.71.71,0,0,0,.89.74c4.83-1.67,10.19-2.86,14.37-6C206.78,158.76,209.21,155.38,207.12,152.36ZM196.78,162.5c-2.35.88-4.74,1.64-7.06,2.61a93,93,0,0,1,5.55-7.53,34.64,34.64,0,0,1,3.15-3.26c1.76-1.53,8.66-4.73,7.5,1.61C205.28,159.43,199.59,161.45,196.78,162.5Z"/><path class="cls-11" d="M174.24,163.75c4.74,2.13,10.24,2.15,15.31,2.75a.72.72,0,0,0,.72-.92.15.15,0,0,0,.08-.23,31,31,0,0,0-11.8-10.83c-2.83-1.41-7.29-1.78-8.77,1.8C168.38,159.72,171.48,162.5,174.24,163.75Zm-2.53-4.2c-2.48-5.94,4.94-4.3,7-3.18a35.26,35.26,0,0,1,3.77,2.51c2.52,1.87,4.72,4.07,7,6.17-2.47-.45-5-.68-7.45-1C179.08,163.59,173.09,162.83,171.71,159.55Z"/><path class="cls-12" d="M188.72,199.68c-7.36-.19-14.81-.43-21.61-.7-6.27-.23-12-.51-16.63-.81-6.37-.41-10.65-.83-11.34-1.29-1.33-.89-1.8-15.35-1.87-32.19C150.24,173.36,175.75,190.79,188.72,199.68Z"/><path class="cls-13" d="M197.63,150.65l-60.78-.77s13.22-120,12.77-122.51c-.58-3.24-39.57-156.13-39.57-156.13h52.44s41.37,142.5,42.85,156.23C207.75,49.64,197.63,150.65,197.63,150.65Z"/><path class="cls-11" d="M145.29,137.47c3.24-.23,6.53-.19,9.78-.24s6.52,0,9.78,0c6.52.07,13,.16,19.55.35,1.78.05,3.56.1,5.34.19s3.81.41,5.71.48a.12.12,0,0,1,0,.23c-1.59,0-3.2.25-4.8.3s-3.32.06-5,.06q-4.89,0-9.78,0c-6.51-.05-13-.14-19.55-.41-3.67-.15-7.39-.2-11.05-.57A.17.17,0,0,1,145.29,137.47Z"/><path class="cls-11" d="M121.58-116.41c4.69,16.62,9,33.38,13.19,50.13S143.16-32.76,147.34-16q3.12,12.57,6.25,25.15c2,8.16,4.39,16.37,4.89,24.8s-.57,17.22-1.3,25.76S155.74,76.88,155,85.46c-1.51,17.17-1.78,22.7-3.65,39.83-.23,2.14-.46,4.29-.68,6.43,0,.19-.3.18-.29,0,1.14-17.18,1.16-22.7,2.53-39.86q1-12.87,2.09-25.74c.71-8.57,1.71-17.16,2-25.75s-1.31-17-3.41-25.35Q150.48,2.7,147.4-9.59q-6.3-25.16-12.56-50.3c-4.66-18.77-9.31-37.58-13.42-56.48A.08.08,0,0,1,121.58-116.41Z"/><path class="cls-7" d="M166.56,199.86c-3.08,1-90.52-.92-93.81-3.09-1.25-.81-1.72-13.58-1.85-29,0-3.33,0-6.76,0-10.26,0-4.14,2.88-44.4,2.88-44.4l56.07,1-2.07,44.4-.48,10.26s33.15,15.69,36.5,18.47S169.63,198.91,166.56,199.86Z"/><path class="cls-8" d="M166.56,199.86c-3.08,1-90.52-.92-93.82-3.09-1.23-.81-1.71-13.58-1.84-29,0-3.33,0-6.75,0-10.26,0-.75.1-2.69.25-5.37h56.94l-.31,6.42-.48,10.26s33.16,15.69,36.5,18.47S169.63,198.91,166.56,199.86Z"/><path class="cls-9" d="M167.87,197.31V204a1.26,1.26,0,0,1-1.26,1.25h-.4a1.28,1.28,0,0,1-1.23-1,3.8,3.8,0,0,0-7.32,0,1.29,1.29,0,0,1-1.23,1h-1.91a1.28,1.28,0,0,1-1.23-1,3.8,3.8,0,0,0-7.31,0,1.29,1.29,0,0,1-1.23,1h-1.91a1.29,1.29,0,0,1-1.23-1,3.8,3.8,0,0,0-7.32,0,1.29,1.29,0,0,1-1.23,1h-1.91a1.29,1.29,0,0,1-1.23-1,3.8,3.8,0,0,0-7.31,0,1.29,1.29,0,0,1-1.23,1h-1.91a1.29,1.29,0,0,1-1.23-1,3.8,3.8,0,0,0-7.32,0,1.29,1.29,0,0,1-1.23,1h-1.91a1.29,1.29,0,0,1-1.23-1,3.8,3.8,0,0,0-7.31,0,1.28,1.28,0,0,1-1.23,1H96.1a1.29,1.29,0,0,1-1.23-1,3.8,3.8,0,0,0-7.32,0,1.29,1.29,0,0,1-1.23,1H84.41a1.29,1.29,0,0,1-1.23-1,3.79,3.79,0,0,0-7.3,0,1.3,1.3,0,0,1-1.24,1H73.28A1.26,1.26,0,0,1,72,204v-6.66a1.26,1.26,0,0,1,1.26-1.25h93.33A1.26,1.26,0,0,1,167.87,197.31Z"/><g class="cls-10"><path d="M167.87,197.31V204a1.26,1.26,0,0,1-1.26,1.25h-.4a1.28,1.28,0,0,1-1.23-1,3.8,3.8,0,0,0-7.32,0,1.29,1.29,0,0,1-1.23,1h-1.91a1.28,1.28,0,0,1-1.23-1,3.8,3.8,0,0,0-7.31,0,1.29,1.29,0,0,1-1.23,1h-1.91a1.29,1.29,0,0,1-1.23-1,3.8,3.8,0,0,0-7.32,0,1.29,1.29,0,0,1-1.23,1h-1.91a1.29,1.29,0,0,1-1.23-1,3.8,3.8,0,0,0-7.31,0,1.29,1.29,0,0,1-1.23,1h-1.91a1.29,1.29,0,0,1-1.23-1,3.8,3.8,0,0,0-7.32,0,1.29,1.29,0,0,1-1.23,1h-1.91a1.29,1.29,0,0,1-1.23-1,3.8,3.8,0,0,0-7.31,0,1.28,1.28,0,0,1-1.23,1H96.1a1.29,1.29,0,0,1-1.23-1,3.8,3.8,0,0,0-7.32,0,1.29,1.29,0,0,1-1.23,1H84.41a1.29,1.29,0,0,1-1.23-1,3.79,3.79,0,0,0-7.3,0,1.3,1.3,0,0,1-1.24,1H73.28A1.26,1.26,0,0,1,72,204v-6.66a1.26,1.26,0,0,1,1.26-1.25h93.33A1.26,1.26,0,0,1,167.87,197.31Z"/></g><path class="cls-9" d="M166.82,200c-2,.62-39.25.07-66.36-1-6.27-.25-12-.53-16.64-.81-6.37-.42-10.65-.84-11.33-1.3-1.52-1-1.91-19.73-1.9-39.47l57.21,1.06-.49,10.31s33.34,15.78,36.72,18.57S169.9,199,166.82,200Z"/><path class="cls-9" d="M166.82,200c-2,.62-39.25.07-66.36-1-6.27-.25-12-.53-16.64-.81-6.37-.42-10.65-.84-11.33-1.3-1.52-1-1.91-19.73-1.9-39.47l57.21,1.06-.49,10.31s33.34,15.78,36.72,18.57S169.9,199,166.82,200Z"/><path class="cls-11" d="M165.63,196.45c-14.73-.68-74.21-2-88.82-1.57-.12,0-.12.08,0,.09,14.58,1,74.07,1.85,88.82,1.72C165.94,196.69,165.94,196.46,165.63,196.45Z"/><path class="cls-11" d="M129.47,165.55c-5.78-1.21-12.89-.47-17.41,3.57-.18.15,0,.4.24.34a81.62,81.62,0,0,1,17.13-3.18A.37.37,0,0,0,129.47,165.55Z"/><path class="cls-11" d="M133.6,168.16c-5.78-1.21-12.89-.47-17.41,3.57-.18.16,0,.4.24.35a81.63,81.63,0,0,1,17.13-3.19A.37.37,0,0,0,133.6,168.16Z"/><path class="cls-11" d="M137.73,170.77c-5.77-1.2-12.89-.46-17.41,3.57-.17.16.05.41.24.35a81.62,81.62,0,0,1,17.13-3.18A.37.37,0,0,0,137.73,170.77Z"/><path class="cls-11" d="M141.86,173.39c-5.77-1.21-12.89-.47-17.41,3.57-.17.15,0,.4.24.34a81.59,81.59,0,0,1,17.14-3.18A.37.37,0,0,0,141.86,173.39Z"/><path class="cls-11" d="M140.47,152.36c-2.22-3.18-6.49-1.86-8.95.12a30.82,30.82,0,0,0-9.22,13.1.16.16,0,0,0,.13.21.72.72,0,0,0,.89.74c4.83-1.67,10.2-2.86,14.37-6C140.12,158.76,142.56,155.38,140.47,152.36ZM130.13,162.5c-2.36.88-4.74,1.64-7.06,2.61a90.64,90.64,0,0,1,5.55-7.53,33.33,33.33,0,0,1,3.14-3.26c1.76-1.53,8.66-4.73,7.51,1.61C138.63,159.43,132.93,161.45,130.13,162.5Z"/><path class="cls-11" d="M107.59,163.75c4.74,2.13,10.23,2.15,15.31,2.75a.72.72,0,0,0,.71-.92.16.16,0,0,0,.09-.23,31.07,31.07,0,0,0-11.81-10.83c-2.83-1.41-7.29-1.78-8.77,1.8C101.73,159.72,104.82,162.5,107.59,163.75Zm-2.53-4.2c-2.49-5.94,4.94-4.3,7-3.18a35.13,35.13,0,0,1,3.76,2.51,91.77,91.77,0,0,1,7,6.17c-2.47-.45-5-.68-7.45-1C112.43,163.59,106.43,162.83,105.06,159.55Z"/><path class="cls-13" d="M160.8-128.78s-1.53,25.08-7.52,44.88c-.48,1.64-1,3.25-1.56,4.79a93.71,93.71,0,0,0-15.21,7.58S133.89,24.4,134,30.36c.25,22.29-2,119.19-2,119.19L67.27,149S77.68,37.92,77.7,29.75c0-7.89,3.77-57.71,7.12-100.89,0,0-4.93-13.8-4.39-20.76,1.32-16.89,8.9-36.86,8.9-36.86Z"/><path class="cls-11" d="M74.38,138.28c3.25-.23,6.53-.19,9.79-.23s6.52-.06,9.78,0c6.51.06,13,.16,19.54.34,1.79,0,3.57.11,5.35.19s3.8.41,5.71.48a.12.12,0,0,1,0,.23c-1.6,0-3.2.26-4.8.3s-3.33.06-5,.06c-3.26,0-6.51,0-9.77,0-6.52-.06-13-.15-19.55-.42-3.68-.15-7.39-.19-11.06-.56A.17.17,0,0,1,74.38,138.28Z"/><path class="cls-11" d="M81.14,131.07h0a.68.68,0,0,1-.64-.71L93-72.8c-.16-.94-3.69-12.94-4-19.07-.33-6.48,6.37-31.73,6.65-32.8a.69.69,0,0,1,.83-.48.67.67,0,0,1,.48.82c-.07.26-6.93,26.12-6.61,32.39s4,18.88,4,19-12.5,203.38-12.5,203.38A.68.68,0,0,1,81.14,131.07Z"/></g><path class="cls-8" d="M169.74,16.93c28.75,0,28.8,40.89,0,40.89S140.94,16.93,169.74,16.93Z"/><path class="cls-6" d="M152.26,41.21c1.53,7,7.36,13.13,17.48,13.13,23.9,0,23.86-33.93,0-33.93h-.47c22.46.42,22.35,32.55-.44,32.55C159.54,53,154,47.58,152.26,41.21Z"/><path class="cls-6" d="M170.32,25.56v1.09c3.79.08,6.53,2.27,6.53,5.15s-1.93,4.41-6.6,5.35v8.11a10.48,10.48,0,0,0,6.07-2.59.79.79,0,0,1,.56-.2.78.78,0,0,1,.78.71.73.73,0,0,1-.35.6,12.24,12.24,0,0,1-7,2.76v2.25a.75.75,0,0,1-1.5,0V46.57c-3.89-.12-6.65-2.25-6.65-5.27,0-2.79,2-4.41,6.71-5.32V28a9.29,9.29,0,0,0-4.66,1.85.81.81,0,0,1-.56.2.76.76,0,0,1-.81-.71c0-.29.16-.46.44-.66a10.73,10.73,0,0,1,5.53-2V25.56a.75.75,0,0,1,1.5,0Zm4.94,6.12c0-2.05-2-3.7-5-3.75V35.7C174.27,34.81,175.26,33.62,175.26,31.68Zm-11.51,9.74c0,2.16,2,3.81,5.13,3.87V37.43C164.84,38.26,163.75,39.45,163.75,41.42Z"/><path class="cls-8" d="M24.43,66.16c23.21,0,23.25,33,0,33S1.18,66.16,24.43,66.16Z"/><path class="cls-6" d="M10.31,85.75c1.24,5.68,6,10.61,14.12,10.61,19.29,0,19.26-27.4,0-27.4h-.38c18.13.33,18,26.28-.35,26.28C16.19,95.25,11.72,90.9,10.31,85.75Z"/><path class="cls-6" d="M24.89,73.13V74c3.07.07,5.28,1.84,5.28,4.16s-1.56,3.56-5.33,4.32V89a8.54,8.54,0,0,0,4.9-2.09.68.68,0,0,1,.45-.17.63.63,0,0,1,.63.58.57.57,0,0,1-.28.48,9.88,9.88,0,0,1-5.65,2.23v1.82a.6.6,0,0,1-1.2,0v-1.8c-3.14-.09-5.38-1.81-5.38-4.25,0-2.25,1.61-3.56,5.43-4.29V75.1A7.52,7.52,0,0,0,20,76.6a.67.67,0,0,1-.45.16.62.62,0,0,1-.65-.58c0-.23.12-.37.35-.53A8.62,8.62,0,0,1,23.69,74v-.91a.6.6,0,0,1,1.2,0Zm4,4.94c0-1.66-1.61-3-4.05-3v6.28C28.08,80.59,28.89,79.63,28.89,78.07Zm-9.3,7.85c0,1.75,1.64,3.08,4.15,3.13V82.71C20.47,83.37,19.59,84.34,19.59,85.92Z"/><path class="cls-6" d="M86.22,98c25.89,4.64,19,43-6.88,38.34S60.29,93.32,86.22,98Z"/><path class="cls-8" d="M83.79,97.54c24.67,4.43,17.83,42.78-6.88,38.34S59.08,93.11,83.79,97.54Z"/><path class="cls-6" d="M64.7,117.62c.13,6.83,4.11,13.45,12.8,15,20.5,3.68,26.18-28.15,5.71-31.83-.14,0-.27,0-.41-.06,19.2,3.84,13.7,34-5.85,30.45A14.22,14.22,0,0,1,64.7,117.62Z"/><path class="cls-6" d="M79.59,105.52l.12,1c3.29-.31,5.91,1.49,6.23,4.21s-1.18,4.37-5.12,5.73l.9,7.68a8.76,8.76,0,0,0,5-3.07.69.69,0,0,1,.46-.25.69.69,0,0,1,.52,1.2,10.18,10.18,0,0,1-5.75,3.32l.25,2.13a.66.66,0,0,1-.57.72.65.65,0,0,1-.72-.57l-.25-2.1c-3.38.29-6-1.45-6.35-4.3-.31-2.64,1.23-4.38,5.23-5.72L78.62,108a7.72,7.72,0,0,0-3.83,2.22.65.65,0,0,1-.47.25.71.71,0,0,1-.78-.59.78.78,0,0,1,.31-.67,8.84,8.84,0,0,1,4.57-2.45l-.13-1.07a.65.65,0,1,1,1.3-.16Zm5,5.29c-.23-1.94-2.14-3.3-4.75-3l.86,7.35C84,113.88,84.77,112.64,84.55,110.81Zm-8.88,10.38c.24,2,2.17,3.41,4.87,3.14l-.87-7.43C76.26,118.09,75.45,119.34,75.67,121.19Z"/><path class="cls-11" d="M55.43,56.8c19.19,5.94,38.39-19.94,57.58-14a155.75,155.75,0,0,0-10.1-16.88C87.29,28.56,71.66,44.89,56,40.59Q55.74,48.71,55.43,56.8Z"/><path class="cls-9" d="M74.58,46.52c.61,2.84,4.61,3.5,9,1.21s6.89-6,5.72-8.48-5.17-2.9-8.94-1S74,43.7,74.58,46.52Z"/><path class="cls-9" d="M94,36.71c.31.57,1.45.66,2.55.26s1.7-1.16,1.36-1.75-1.49-.77-2.55-.35S93.65,36.14,94,36.71Z"/><path class="cls-9" d="M65.74,49c.07.69,1,1.1,2.11.82s1.91-1.11,1.81-1.78-1-1-2.1-.7S65.68,48.25,65.74,49Z"/><path class="cls-9" d="M101.49,26.19a162.45,162.45,0,0,1,9.78,16.15q.87.18,1.74.45a154.16,154.16,0,0,0-10.1-16.88C102.44,26,102,26.09,101.49,26.19Z"/><path class="cls-9" d="M55.43,56.8c.58.18,1.16.33,1.74.46q.15-8.16.29-16.33c-.47-.1-1-.21-1.42-.34Q55.74,48.71,55.43,56.8Z"/><path class="cls-9" d="M55.47,55.78c0,.34,0,.68,0,1,19.19,5.94,38.39-19.94,57.58-14l-.63-1.21C93.41,36.4,74.44,61.61,55.47,55.78Z"/><path class="cls-9" d="M56,40.59c0,.34,0,.68,0,1C71.85,46,87.7,29.14,103.55,26.84l-.64-.93C87.29,28.56,71.66,44.89,56,40.59Z"/><path class="cls-9" d="M106.84,40.87a20.42,20.42,0,0,1,3.81.32c-.45-.84-.9-1.66-1.36-2.47C107.24,38.52,106.14,39.65,106.84,40.87Z"/><path class="cls-9" d="M57.23,54c0,.76,0,1.51,0,2.27a19.77,19.77,0,0,0,3.81.43C61,55.39,59.28,54.39,57.23,54Z"/><path class="cls-9" d="M60.63,42.32A18.36,18.36,0,0,1,57.44,42c0,.76,0,1.52,0,2.27C59.22,44.59,60.66,43.58,60.63,42.32Z"/><path class="cls-9" d="M103.47,29.13l-1.36-2c-1.06.21-2.12.48-3.18.8C99.62,28.93,101.65,29.38,103.47,29.13Z"/><path class="cls-11" d="M81,39.5c0,.1.07.21.11.31,1.73-.85,3.21-.89,3.53-.09s-.42,1.7-2.52,3.11c.26.77.53,1.54.8,2.31a9.52,9.52,0,0,0,2.68-2.26.71.71,0,0,1,.25-.2c.19-.1.41-.1.46,0s0,.15-.1.25a11.56,11.56,0,0,1-3.14,2.55c.08.22.15.43.22.64s-.1.29-.3.39-.4.1-.44,0l-.21-.64c-1.93,1-3.46,1-3.71.1s.58-1.75,2.73-3.16c-.26-.76-.51-1.52-.77-2.29a8.24,8.24,0,0,0-2,1.6.94.94,0,0,1-.24.19c-.2.09-.4.08-.43,0s0-.17.14-.29a9.19,9.19,0,0,1,2.34-1.83c0-.11-.07-.22-.11-.33s.09-.27.27-.36S81,39.39,81,39.5Zm2.9.57c-.23-.58-1.31-.56-2.69.12L82,42.41C83.79,41.19,84.13,40.61,83.92,40.07Zm-4.5,5.57c.19.63,1.32.63,2.85-.14-.25-.75-.5-1.51-.76-2.26C79.67,44.46,79.25,45.06,79.42,45.64Z"/><path class="cls-11" d="M86,64c15.25-6.86,30.5,12.39,45.75,5.54q-1.78-5.43-3.56-11.3c-12.41,2.52-24.82-9.55-37.23-8.09C89.28,54.55,87.62,59.14,86,64Z"/><path class="cls-9" d="M103.37,58.59c-.36,2.2,2.14,5,5.59,6.41s6.15.49,6.06-1.89-2.59-5.13-5.59-6.37S103.72,56.37,103.37,58.59Z"/><path class="cls-9" d="M118.86,64c0,.55.8,1.17,1.68,1.33s1.51-.2,1.42-.75-.83-1.07-1.67-1.24S118.8,63.43,118.86,64Z"/><path class="cls-9" d="M96.44,56.46c-.14.51.45,1,1.32,1.21s1.68-.05,1.79-.55-.47-1.11-1.32-1.3S96.59,55.94,96.44,56.46Z"/><path class="cls-9" d="M127,58.47q1.65,6,3.3,11.66c.46-.16.93-.35,1.39-.55q-1.78-5.43-3.56-11.3C127.79,58.36,127.41,58.42,127,58.47Z"/><path class="cls-9" d="M86,64c.46-.21.92-.39,1.38-.55,1.57-4.71,3.14-9.15,4.71-13.4-.38,0-.75.06-1.13.1C89.28,54.55,87.62,59.14,86,64Z"/><path class="cls-9" d="M86.28,63.12c-.1.31-.21.61-.31.92,15.25-6.86,30.5,12.39,45.75,5.54-.08-.23-.15-.46-.23-.69C116.42,75.42,101.35,56.69,86.28,63.12Z"/><path class="cls-9" d="M90.93,50.19c-.1.27-.21.55-.31.83,12.59-1.72,25.18,10.74,37.76,8-.07-.25-.14-.49-.22-.74C115.75,60.8,103.34,48.73,90.93,50.19Z"/><path class="cls-9" d="M127.1,70.12a17.13,17.13,0,0,0,3-.7l-.45-1.59C128,68.32,126.89,69.18,127.1,70.12Z"/><path class="cls-9" d="M88.3,60.67c-.22.64-.43,1.28-.65,1.93a17.41,17.41,0,0,1,3-.69C91,60.93,89.93,60.22,88.3,60.67Z"/><path class="cls-9" d="M94.3,50.89a19.57,19.57,0,0,0-2.54,0c-.22.59-.43,1.19-.65,1.79C92.55,52.53,94,51.83,94.3,50.89Z"/><path class="cls-9" d="M127.7,60.88c-.15-.55-.31-1.1-.46-1.66a16.45,16.45,0,0,1-2.52.19C124.92,60.37,126.26,61.14,127.7,60.88Z"/><path class="cls-11" d="M109.57,58l0,.27c1.37.58,2.34,1.52,2.33,2.25s-.73.85-2.49.37c0,.68-.08,1.36-.11,2a4.72,4.72,0,0,0,2.37.29.32.32,0,0,1,.21,0c.16.06.3.2.3.29s0,.09-.13.11a5.89,5.89,0,0,1-2.75-.4l0,.57c0,.09-.14.11-.3.05s-.29-.2-.29-.29,0-.37,0-.56c-1.52-.64-2.55-1.6-2.47-2.34s.87-.79,2.66-.29c0-.66.08-1.32.13-2a4.23,4.23,0,0,0-1.74-.23.33.33,0,0,1-.2,0c-.16-.06-.29-.19-.28-.29s.07-.09.17-.1a4.75,4.75,0,0,1,2,.32,2.83,2.83,0,0,0,0-.29c0-.09.14-.12.28-.06S109.57,57.92,109.57,58Zm1.73,2.26c0-.52-.7-1.22-1.79-1.68l-.1,1.95C110.91,60.92,111.29,60.76,111.3,60.27Zm-4.46.69c0,.54.69,1.26,1.9,1.76,0-.65.09-1.3.13-2C107.32,60.35,106.88,60.48,106.84,61Z"/><rect class="cls-8" x="9.47" y="232.68" width="35.54" height="7.85" transform="translate(54.47 473.22) rotate(-180)"/><g class="cls-14"><path d="M43.54,233.4a9.85,9.85,0,0,1,0,6.28,9.78,9.78,0,0,1,0-6.28Z"/><path d="M40.89,233.4a9.78,9.78,0,0,1,0,6.28,9.85,9.85,0,0,1,0-6.28Z"/><path d="M39.6,233.4a9.85,9.85,0,0,1,0,6.28,9.85,9.85,0,0,1,0-6.28Z"/><path d="M32.5,233.4a9.78,9.78,0,0,1,0,6.28,9.85,9.85,0,0,1,0-6.28Z"/><path d="M30.58,233.4a9.78,9.78,0,0,1,0,6.28,9.85,9.85,0,0,1,0-6.28Z"/><path d="M22.64,233.4a9.78,9.78,0,0,1,0,6.28,9.85,9.85,0,0,1,0-6.28Z"/><path d="M20.81,233.4a9.85,9.85,0,0,1,0,6.28,9.78,9.78,0,0,1,0-6.28Z"/><path d="M17.44,233.4a9.85,9.85,0,0,1,0,6.28,9.85,9.85,0,0,1,0-6.28Z"/><path d="M24.18,233.4a9.85,9.85,0,0,1,0,6.28,9.78,9.78,0,0,1,0-6.28Z"/><path d="M37.25,233.4a9.78,9.78,0,0,1,0,6.28,9.85,9.85,0,0,1,0-6.28Z"/><path d="M28.06,233.4a9.85,9.85,0,0,1,0,6.28,9.78,9.78,0,0,1,0-6.28Z"/><path d="M26.73,233.4a9.78,9.78,0,0,1,0,6.28,9.85,9.85,0,0,1,0-6.28Z"/><path d="M13.05,233.4a9.85,9.85,0,0,1,0,6.28,9.85,9.85,0,0,1,0-6.28Z"/><path d="M11.06,233.4a9.78,9.78,0,0,1,0,6.28,9.85,9.85,0,0,1,0-6.28Z"/><path d="M15.88,233.4a9.85,9.85,0,0,1,0,6.28,9.78,9.78,0,0,1,0-6.28Z"/><path d="M34,233.4a9.85,9.85,0,0,1,0,6.28,9.78,9.78,0,0,1,0-6.28Z"/></g><polygon class="cls-12" points="9.47 232.68 9.47 234.35 45 235.47 45 232.68 9.47 232.68"/><rect class="cls-8" x="11.9" y="224.83" width="35.54" height="7.85" transform="translate(59.33 457.51) rotate(-180)"/><g class="cls-14"><path d="M46,225.55a9.85,9.85,0,0,1,0,6.28,9.85,9.85,0,0,1,0-6.28Z"/><path d="M43.32,225.55a9.78,9.78,0,0,1,0,6.28,9.85,9.85,0,0,1,0-6.28Z"/><path d="M42,225.55a9.85,9.85,0,0,1,0,6.28,9.85,9.85,0,0,1,0-6.28Z"/><path d="M34.93,225.55a9.78,9.78,0,0,1,0,6.28,9.85,9.85,0,0,1,0-6.28Z"/><path d="M33,225.55a9.78,9.78,0,0,1,0,6.28,9.85,9.85,0,0,1,0-6.28Z"/><path d="M25.07,225.55a9.78,9.78,0,0,1,0,6.28,9.85,9.85,0,0,1,0-6.28Z"/><path d="M23.24,225.55a9.85,9.85,0,0,1,0,6.28,9.78,9.78,0,0,1,0-6.28Z"/><path d="M19.87,225.55a9.85,9.85,0,0,1,0,6.28,9.85,9.85,0,0,1,0-6.28Z"/><path d="M26.61,225.55a9.85,9.85,0,0,1,0,6.28,9.78,9.78,0,0,1,0-6.28Z"/><path d="M39.68,225.55a9.78,9.78,0,0,1,0,6.28,9.85,9.85,0,0,1,0-6.28Z"/><path d="M30.49,225.55a9.85,9.85,0,0,1,0,6.28,9.78,9.78,0,0,1,0-6.28Z"/><path d="M29.16,225.55a9.78,9.78,0,0,1,0,6.28,9.85,9.85,0,0,1,0-6.28Z"/><path d="M15.48,225.55a9.85,9.85,0,0,1,0,6.28,9.85,9.85,0,0,1,0-6.28Z"/><path d="M13.49,225.55a9.85,9.85,0,0,1,0,6.28,9.85,9.85,0,0,1,0-6.28Z"/><path d="M18.31,225.55a9.85,9.85,0,0,1,0,6.28,9.78,9.78,0,0,1,0-6.28Z"/><path d="M36.47,225.55a9.85,9.85,0,0,1,0,6.28,9.78,9.78,0,0,1,0-6.28Z"/></g><polygon class="cls-12" points="11.9 224.83 11.9 226.5 47.44 227.62 47.44 224.83 11.9 224.83"/><rect class="cls-8" x="6.41" y="209.19" width="35.54" height="7.85" transform="translate(48.35 426.23) rotate(-180)"/><g class="cls-14"><path d="M40.48,209.91a9.85,9.85,0,0,1,0,6.28,9.85,9.85,0,0,1,0-6.28Z"/><path d="M37.83,209.91a9.78,9.78,0,0,1,0,6.28,9.85,9.85,0,0,1,0-6.28Z"/><path d="M36.54,209.91a9.85,9.85,0,0,1,0,6.28,9.85,9.85,0,0,1,0-6.28Z"/><path d="M29.44,209.91a9.78,9.78,0,0,1,0,6.28,9.85,9.85,0,0,1,0-6.28Z"/><path d="M27.52,209.91a9.78,9.78,0,0,1,0,6.28,9.85,9.85,0,0,1,0-6.28Z"/><path d="M19.58,209.91a9.78,9.78,0,0,1,0,6.28,9.85,9.85,0,0,1,0-6.28Z"/><path d="M17.75,209.91a9.85,9.85,0,0,1,0,6.28,9.78,9.78,0,0,1,0-6.28Z"/><path d="M14.38,209.91a9.85,9.85,0,0,1,0,6.28,9.85,9.85,0,0,1,0-6.28Z"/><path d="M21.12,209.91a9.85,9.85,0,0,1,0,6.28,9.78,9.78,0,0,1,0-6.28Z"/><path d="M34.19,209.91a9.78,9.78,0,0,1,0,6.28,9.85,9.85,0,0,1,0-6.28Z"/><path d="M25,209.91a9.85,9.85,0,0,1,0,6.28,9.78,9.78,0,0,1,0-6.28Z"/><path d="M23.67,209.91a9.78,9.78,0,0,1,0,6.28,9.85,9.85,0,0,1,0-6.28Z"/><path d="M10,209.91a9.85,9.85,0,0,1,0,6.28,9.85,9.85,0,0,1,0-6.28Z"/><path d="M8,209.91a9.78,9.78,0,0,1,0,6.28,9.92,9.92,0,0,1,0-6.28Z"/><path d="M12.82,209.91a9.85,9.85,0,0,1,0,6.28,9.78,9.78,0,0,1,0-6.28Z"/><path d="M31,209.91a9.85,9.85,0,0,1,0,6.28,9.78,9.78,0,0,1,0-6.28Z"/></g><polygon class="cls-12" points="6.41 209.19 6.41 210.86 41.95 211.98 41.95 209.19 6.41 209.19"/><rect class="cls-8" x="7.3" y="201.34" width="35.54" height="7.85" transform="translate(50.15 410.53) rotate(-180)"/><g class="cls-14"><path d="M8.9,208.34a9.85,9.85,0,0,1,0-6.28,9.78,9.78,0,0,1,0,6.28Z"/><path d="M11.55,208.34a9.78,9.78,0,0,1,0-6.28,9.85,9.85,0,0,1,0,6.28Z"/><path d="M12.84,208.34a9.85,9.85,0,0,1,0-6.28,9.78,9.78,0,0,1,0,6.28Z"/><path d="M19.94,208.34a9.78,9.78,0,0,1,0-6.28,9.85,9.85,0,0,1,0,6.28Z"/><path d="M21.86,208.34a9.78,9.78,0,0,1,0-6.28,9.85,9.85,0,0,1,0,6.28Z"/><path d="M29.8,208.34a9.78,9.78,0,0,1,0-6.28,9.85,9.85,0,0,1,0,6.28Z"/><path d="M31.63,208.34a9.85,9.85,0,0,1,0-6.28,9.78,9.78,0,0,1,0,6.28Z"/><path d="M35,208.34a9.85,9.85,0,0,1,0-6.28,9.78,9.78,0,0,1,0,6.28Z"/><path d="M28.26,208.34a9.85,9.85,0,0,1,0-6.28,9.78,9.78,0,0,1,0,6.28Z"/><path d="M15.19,208.34a9.78,9.78,0,0,1,0-6.28,9.85,9.85,0,0,1,0,6.28Z"/><path d="M24.39,208.34a9.78,9.78,0,0,1,0-6.28,9.85,9.85,0,0,1,0,6.28Z"/><path d="M25.71,208.34a9.78,9.78,0,0,1,0-6.28,9.85,9.85,0,0,1,0,6.28Z"/><path d="M39.39,208.34a9.85,9.85,0,0,1,0-6.28,9.78,9.78,0,0,1,0,6.28Z"/><path d="M41.38,208.34a9.78,9.78,0,0,1,0-6.28,9.85,9.85,0,0,1,0,6.28Z"/><path d="M36.56,208.34a9.92,9.92,0,0,1,0-6.28,9.78,9.78,0,0,1,0,6.28Z"/><path d="M18.41,208.34a9.85,9.85,0,0,1,0-6.28,9.85,9.85,0,0,1,0,6.28Z"/></g><polygon class="cls-12" points="7.31 201.34 7.31 203.01 42.84 204.13 42.84 201.34 7.31 201.34"/><rect class="cls-8" x="9.47" y="193.49" width="35.54" height="7.85" transform="translate(54.47 394.82) rotate(-180)"/><g class="cls-14"><path d="M43.54,194.2a9.88,9.88,0,0,1,0,6.29,9.82,9.82,0,0,1,0-6.29Z"/><path d="M40.89,194.2a9.82,9.82,0,0,1,0,6.29,9.88,9.88,0,0,1,0-6.29Z"/><path d="M39.6,194.2a9.88,9.88,0,0,1,0,6.29,9.82,9.82,0,0,1,0-6.29Z"/><path d="M32.5,194.2a9.82,9.82,0,0,1,0,6.29,9.88,9.88,0,0,1,0-6.29Z"/><path d="M30.58,194.2a9.82,9.82,0,0,1,0,6.29,9.88,9.88,0,0,1,0-6.29Z"/><path d="M22.64,194.2a9.82,9.82,0,0,1,0,6.29,9.88,9.88,0,0,1,0-6.29Z"/><path d="M20.81,194.2a9.88,9.88,0,0,1,0,6.29,9.82,9.82,0,0,1,0-6.29Z"/><path d="M17.44,194.2a9.88,9.88,0,0,1,0,6.29,9.82,9.82,0,0,1,0-6.29Z"/><path d="M24.18,194.2a9.88,9.88,0,0,1,0,6.29,9.82,9.82,0,0,1,0-6.29Z"/><path d="M37.25,194.2a9.82,9.82,0,0,1,0,6.29,9.88,9.88,0,0,1,0-6.29Z"/><path d="M28.05,194.2a9.88,9.88,0,0,1,0,6.29,9.88,9.88,0,0,1,0-6.29Z"/><path d="M26.73,194.2a9.82,9.82,0,0,1,0,6.29,9.88,9.88,0,0,1,0-6.29Z"/><path d="M13.05,194.2a9.88,9.88,0,0,1,0,6.29,9.82,9.82,0,0,1,0-6.29Z"/><path d="M11.06,194.2a9.82,9.82,0,0,1,0,6.29,9.88,9.88,0,0,1,0-6.29Z"/><path d="M15.88,194.2a9.88,9.88,0,0,1,0,6.29,9.82,9.82,0,0,1,0-6.29Z"/><path d="M34,194.2a9.88,9.88,0,0,1,0,6.29,9.82,9.82,0,0,1,0-6.29Z"/></g><polygon class="cls-12" points="9.47 193.49 9.47 195.15 45 196.28 45 193.49 9.47 193.49"/><rect class="cls-8" x="9.47" y="217.04" width="35.54" height="7.85" transform="translate(54.47 441.94) rotate(-180)"/><g class="cls-14"><path d="M11.06,224a9.85,9.85,0,0,1,0-6.28,9.78,9.78,0,0,1,0,6.28Z"/><path d="M13.71,224a9.85,9.85,0,0,1,0-6.28,9.85,9.85,0,0,1,0,6.28Z"/><path d="M15,224a9.85,9.85,0,0,1,0-6.28A9.78,9.78,0,0,1,15,224Z"/><path d="M22.1,224a9.85,9.85,0,0,1,0-6.28,9.78,9.78,0,0,1,0,6.28Z"/><path d="M24,224a9.85,9.85,0,0,1,0-6.28A9.78,9.78,0,0,1,24,224Z"/><path d="M32,224a9.85,9.85,0,0,1,0-6.28A9.85,9.85,0,0,1,32,224Z"/><path d="M33.79,224a9.92,9.92,0,0,1,0-6.28,9.78,9.78,0,0,1,0,6.28Z"/><path d="M37.16,224a9.85,9.85,0,0,1,0-6.28,9.78,9.78,0,0,1,0,6.28Z"/><path d="M30.43,224a9.78,9.78,0,0,1,0-6.28,9.85,9.85,0,0,1,0,6.28Z"/><path d="M17.35,224a9.78,9.78,0,0,1,0-6.28,9.85,9.85,0,0,1,0,6.28Z"/><path d="M26.55,224a9.78,9.78,0,0,1,0-6.28,9.85,9.85,0,0,1,0,6.28Z"/><path d="M27.87,224a9.85,9.85,0,0,1,0-6.28,9.78,9.78,0,0,1,0,6.28Z"/><path d="M41.55,224a9.85,9.85,0,0,1,0-6.28,9.78,9.78,0,0,1,0,6.28Z"/><path d="M43.54,224a9.78,9.78,0,0,1,0-6.28,9.85,9.85,0,0,1,0,6.28Z"/><path d="M38.73,224a9.78,9.78,0,0,1,0-6.28,9.85,9.85,0,0,1,0,6.28Z"/><path d="M20.57,224a9.78,9.78,0,0,1,0-6.28,9.85,9.85,0,0,1,0,6.28Z"/></g><polygon class="cls-12" points="9.47 217.04 9.47 218.71 45 219.83 45 217.04 9.47 217.04"/><path class="cls-8" d="M48,205.54c-23.39,4.19-17.22,38.85,6.22,34.64S71.4,201.33,48,205.54Z"/><path class="cls-12" d="M48,205.54c-23.39,4.19-17.22,38.85,6.22,34.64S71.4,201.33,48,205.54Z"/><path class="cls-8" d="M50.16,205.14c-22.29,4-16.11,38.65,6.22,34.65S72.49,201.13,50.16,205.14Z"/><path class="cls-12" d="M67.41,223.28c-.12,6.17-3.71,12.16-11.56,13.56-18.53,3.33-23.66-25.43-5.16-28.75.12,0,.24-.05.37-.06-17.35,3.47-12.38,30.69,5.29,27.52A12.86,12.86,0,0,0,67.41,223.28Z"/><g class="cls-14"><path d="M52.06,212.11l.22.9c2.92-.65,5.47.66,6.07,3.06s-.55,4.05-3.92,5.73l1.69,6.77a7.9,7.9,0,0,0,4.09-3.32.63.63,0,0,1,1.13.18.59.59,0,0,1-.14.56,9.12,9.12,0,0,1-4.77,3.64l.47,1.88a.59.59,0,1,1-1.14.28l-.46-1.85c-3,.65-5.56-.61-6.19-3.13-.58-2.33.6-4.06,4-5.73l-1.66-6.65a6.86,6.86,0,0,0-3.18,2.43.58.58,0,0,1-.39.27.62.62,0,0,1-.77-.44.69.69,0,0,1,.2-.63,8,8,0,0,1,3.82-2.72l-.24-1a.59.59,0,0,1,1.14-.28Zm5,4.17c-.42-1.71-2.29-2.71-4.61-2.19l1.62,6.49C57,219.08,57.52,217.89,57.11,216.28ZM50.35,226.6c.45,1.81,2.34,2.8,4.73,2.26l-1.64-6.56C50.52,223.76,49.94,225,50.35,226.6Z"/></g><rect class="cls-11" x="7.19" y="89.93" width="55.87" height="86.86" transform="translate(89.28 260.18) rotate(171.63)"/><rect class="cls-11" x="11.19" y="89.34" width="55.87" height="86.86" transform="translate(97.17 258.42) rotate(171.63)"/><rect class="cls-6" x="49.51" y="109.01" width="10.74" height="10.74" transform="translate(125.82 219.55) rotate(171.63)"/><rect class="cls-6" x="37.46" y="110.78" width="10.74" height="10.74" transform="translate(102.12 224.83) rotate(171.63)"/><rect class="cls-9" x="25.42" y="112.55" width="10.74" height="10.74" transform="translate(78.42 230.11) rotate(171.63)"/><rect class="cls-9" x="13.37" y="114.33" width="10.74" height="10.74" transform="matrix(-0.99, 0.15, -0.15, -0.99, 54.72, 235.39)"/><rect class="cls-15" x="51.3" y="121.2" width="10.74" height="10.74" transform="translate(131.17 243.54) rotate(171.63)"/><rect class="cls-15" x="39.26" y="122.97" width="10.74" height="10.74" transform="translate(107.47 248.82) rotate(171.63)"/><rect class="cls-15" x="27.21" y="124.74" width="10.74" height="10.74" transform="translate(83.76 254.1) rotate(171.63)"/><rect class="cls-6" x="15.18" y="126.59" width="10.74" height="10.74" transform="translate(60.1 259.53) rotate(171.63)"/><rect class="cls-15" x="53.09" y="133.39" width="10.74" height="10.74" transform="translate(136.51 267.53) rotate(171.63)"/><rect class="cls-15" x="41.05" y="135.16" width="10.74" height="10.74" transform="translate(112.81 272.81) rotate(171.63)"/><rect class="cls-15" x="29.01" y="136.93" width="10.74" height="10.74" transform="translate(89.11 278.09) rotate(171.63)"/><rect class="cls-6" x="16.96" y="138.71" width="10.74" height="10.74" transform="translate(65.41 283.37) rotate(171.63)"/><rect class="cls-15" x="54.89" y="145.58" width="10.74" height="10.74" transform="translate(141.85 291.52) rotate(171.63)"/><rect class="cls-15" x="42.84" y="147.35" width="10.74" height="10.74" transform="translate(118.15 296.8) rotate(171.63)"/><rect class="cls-15" x="30.8" y="149.12" width="10.74" height="10.74" transform="translate(94.45 302.08) rotate(171.63)"/><rect class="cls-6" x="18.76" y="150.9" width="10.74" height="10.74" transform="translate(70.75 307.36) rotate(171.63)"/><rect class="cls-15" x="56.68" y="157.77" width="10.74" height="10.74" transform="translate(147.2 315.51) rotate(171.63)"/><rect class="cls-15" x="44.64" y="159.54" width="10.74" height="10.74" transform="translate(123.5 320.79) rotate(171.63)"/><rect class="cls-6" x="32.59" y="161.32" width="10.74" height="10.74" transform="translate(99.8 326.07) rotate(171.63)"/><rect class="cls-6" x="20.55" y="163.09" width="10.74" height="10.74" transform="translate(76.1 331.35) rotate(171.63)"/><path class="cls-11" d="M55.69,114a.75.75,0,0,1-.85-.68h0a.74.74,0,1,1,1.46-.2h0A.73.73,0,0,1,55.69,114Zm-.06-.34c.2,0,.32-.24.28-.5h0c0-.23-.19-.42-.4-.39s-.31.25-.27.5h0C55.27,113.51,55.43,113.7,55.63,113.66Zm.53,1.7a.17.17,0,0,1-.15.2.22.22,0,0,1-.17,0L53.4,113a.19.19,0,0,1,0-.11.17.17,0,0,1,.15-.2.17.17,0,0,1,.16.06l2.44,2.48A.17.17,0,0,1,56.16,115.36Zm-2.1.5a.76.76,0,0,1-.86-.68h0a.74.74,0,1,1,1.46-.21h0A.75.75,0,0,1,54.06,115.86Zm-.06-.34c.2,0,.31-.25.27-.5h0c0-.24-.19-.42-.4-.39s-.31.25-.27.5h0C53.63,115.37,53.79,115.55,54,115.52Z"/><path class="cls-11" d="M32.05,119.07a1.68,1.68,0,0,1-1.07-.2.27.27,0,0,1-.1-.35.27.27,0,0,1,.35-.1,1.12,1.12,0,0,0,.75.14,1.19,1.19,0,0,0,.75-.43,1.09,1.09,0,0,0-.23-1.54,1.19,1.19,0,0,0-.84-.21,1.09,1.09,0,0,0-.68.35.25.25,0,0,1-.37-.35,1.69,1.69,0,0,1,1-.5,1.61,1.61,0,1,1,.47,3.19Z"/><path class="cls-11" d="M29.88,119.38h0a0,0,0,0,1,0,0l-1.43.21a.25.25,0,0,1-.28-.21.25.25,0,0,1,.2-.28l1.2-.18-.12-.81-1,.15a.25.25,0,0,1-.07-.49l1-.16-.12-.8-1.2.17a.25.25,0,0,1-.07-.49l1.43-.21h0a.25.25,0,0,1,.28.21l.38,2.61A.24.24,0,0,1,29.88,119.38Z"/><path class="cls-11" d="M18.69,121a1.69,1.69,0,0,1-1.07-.19.26.26,0,0,1-.09-.35.26.26,0,0,1,.34-.1,1.13,1.13,0,0,0,.75.14,1.18,1.18,0,0,0,.75-.44,1.11,1.11,0,0,0,.21-.82,1.1,1.1,0,0,0-.44-.72,1.21,1.21,0,0,0-.84-.2,1.12,1.12,0,0,0-.68.35.26.26,0,0,1-.36,0,.27.27,0,0,1,0-.36,1.64,1.64,0,0,1,1-.49,1.61,1.61,0,1,1,.46,3.18Z"/><path class="cls-16" d="M55.5,125.45a.31.31,0,0,1,0-.1v0l0,0v0s0,0,0,0,0,0,0,0a0,0,0,0,1,0,0v0l.09-.05h.05l1.51-.22a.24.24,0,0,1,.28.21.25.25,0,0,1-.2.28l-1.15.17,1.29,2.13a.26.26,0,0,1-.08.34l-.09,0A.26.26,0,0,1,57,128l-1.49-2.46S55.51,125.47,55.5,125.45Z"/><path class="cls-16" d="M44.08,128a.68.68,0,0,1-.21-.41.74.74,0,1,1,1.46-.22.79.79,0,0,1-.08.46,1.07,1.07,0,0,1-.31,2,1.07,1.07,0,0,1-1.21-.9A1.08,1.08,0,0,1,44.08,128Zm.79,1.37a.59.59,0,0,0,.5-.66.6.6,0,0,0-.67-.49.58.58,0,0,0-.48.66A.58.58,0,0,0,44.87,129.39Zm-.31-2.13a.24.24,0,0,0-.21.28.25.25,0,0,0,.28.21.26.26,0,0,0,.22-.29A.25.25,0,0,0,44.56,127.26Z"/><path class="cls-16" d="M32.72,130.69a.93.93,0,0,1-.44,0l.08.1a.81.81,0,0,0,.32.27.71.71,0,0,0,.44.06.26.26,0,0,1,.27.23.25.25,0,0,1-.22.27,1.31,1.31,0,0,1-.69-.11,1.57,1.57,0,0,1-.68-.67,2.45,2.45,0,0,1-.29-.89,2.13,2.13,0,0,1,0-.25h0a1.09,1.09,0,0,1,2.16-.21A1.07,1.07,0,0,1,32.72,130.69ZM32.48,129a.59.59,0,1,0,.67.5A.59.59,0,0,0,32.48,129Z"/><path class="cls-11" d="M21.28,132.13l-1.38.2a.27.27,0,0,1-.3-.22.27.27,0,0,1,.22-.31l1.38-.2a.27.27,0,0,1,.08.53Z"/><path class="cls-16" d="M57.59,139.3h0l-.26-1.79h0s0,0,0,0,0,0,0,0v-.05s0,0,0,0a0,0,0,0,0,0,0v0l0,0h0a0,0,0,0,1,0,0h0s0,0,0,0h.28l0,0h0l1.93,1.8a.23.23,0,0,1,0,.34.2.2,0,0,1-.14.08h0l-1.38.21.05.33a.25.25,0,1,1-.49.07l0-.33h0a.25.25,0,0,1-.29-.2A.25.25,0,0,1,57.59,139.3Zm.53-.08.88-.13-1-1Z"/><path class="cls-16" d="M46.51,139.77a1,1,0,0,1,.3,0l-.12-.43-1.09.16a.26.26,0,0,1-.29-.21.25.25,0,0,1,.22-.29l1.3-.2H47a.24.24,0,0,1,.13.16l.3,1.12a.11.11,0,0,1,0,.08s0,0,0,0v0s0,0,0,0,0,0,0,0l0,.06a.24.24,0,0,1-.35,0,.61.61,0,0,0-.45-.11.6.6,0,0,0-.51.69.58.58,0,0,0,.24.39.57.57,0,0,0,.45.12.55.55,0,0,0,.39-.24.26.26,0,0,1,.36,0,.24.24,0,0,1,.05.35,1.09,1.09,0,0,1-.72.44h0a1.07,1.07,0,0,1-.82-.21,1.09,1.09,0,0,1-.44-.73,1.07,1.07,0,0,1,.21-.82A1.09,1.09,0,0,1,46.51,139.77Z"/><path class="cls-16" d="M34.33,141.62a1.06,1.06,0,0,1,.44,0,.41.41,0,0,0-.07-.11.94.94,0,0,0-.33-.27.83.83,0,0,0-.43-.06.27.27,0,0,1-.28-.22.26.26,0,0,1,.23-.28,1.42,1.42,0,0,1,.69.11,1.54,1.54,0,0,1,.68.68,2.34,2.34,0,0,1,.29.88l0,.25s0,0,0,0a1.09,1.09,0,1,1-1.25-1Zm.25,1.65a.59.59,0,1,0-.67-.49A.58.58,0,0,0,34.58,143.27Z"/><path class="cls-11" d="M21.42,144.35a.23.23,0,0,1-.26-.19.24.24,0,0,1,.2-.27l1.78-.26a.23.23,0,1,1,.07.46Zm.68-1.59a.31.31,0,0,1,.35.25v0a.31.31,0,0,1-.26.35.32.32,0,0,1-.35-.26v0A.32.32,0,0,1,22.1,142.76Zm.27,1.85a.29.29,0,0,1,.35.25v0a.32.32,0,0,1-.27.34.3.3,0,0,1-.34-.25v0A.3.3,0,0,1,22.37,144.61Z"/><path class="cls-16" d="M59.59,149.62v-.11s0,0,0,0h0v0s0,0,0,0l0,0h0l0,0,0,0h0s0,0,0,0h.18l.6.24a.24.24,0,0,1,.12.32.21.21,0,0,1-.19.15.2.2,0,0,1-.13,0l-.19-.08.32,2.18a.24.24,0,0,1-.2.28.25.25,0,0,1-.29-.21l-.38-2.61Z"/><path class="cls-16" d="M47.62,153.81l.94-.14-1-.64a1.06,1.06,0,0,1-.46-.73,1,1,0,0,1,.17-.76,1.06,1.06,0,0,1,.73-.46,1,1,0,0,1,.76.17l.15.1a.25.25,0,0,1,.07.34.24.24,0,0,1-.34.07l-.16-.1a.58.58,0,0,0-.4-.09.55.55,0,0,0-.4.25.57.57,0,0,0-.09.4.53.53,0,0,0,.25.4l1.48,1a.25.25,0,0,1,.07.34.22.22,0,0,1-.17.1h0l-1.57.23a.25.25,0,0,1-.07-.49Z"/><path class="cls-16" d="M35.77,153.91l-.64-.5-.05,0a.17.17,0,0,1,0-.12.25.25,0,0,1,.21-.28l1.31-.19a.24.24,0,0,1,.28.21.25.25,0,0,1-.21.29l-.71.1.52.4a.25.25,0,0,1,0,.35h0a.18.18,0,0,1-.16.1.64.64,0,0,0-.4.24.57.57,0,0,0-.11.45.59.59,0,0,0,.24.4.65.65,0,0,0,.45.11.61.61,0,0,0,.39-.24.25.25,0,0,1,.35-.05.26.26,0,0,1,.06.36,1.11,1.11,0,0,1-.73.43,1.15,1.15,0,0,1-.83-.21,1.08,1.08,0,0,1-.43-.73,1.06,1.06,0,0,1,.2-.82A1.14,1.14,0,0,1,35.77,153.91Z"/><path class="cls-11" d="M23.32,155.7a.26.26,0,0,1,.35,0l.53.53.35-.66a.24.24,0,0,1,.32-.1.22.22,0,0,1,.09.31l-.42.8.64.66a.22.22,0,0,1,0,.32.27.27,0,0,1-.14.07.23.23,0,0,1-.19-.07l-.54-.54-.35.67a.28.28,0,0,1-.18.13.4.4,0,0,1-.15,0,.24.24,0,0,1-.09-.31l.42-.81-.63-.65A.23.23,0,0,1,23.32,155.7Z"/><path class="cls-16" d="M62.37,164.29a.32.32,0,0,1-.28.37.33.33,0,0,1-.38-.27.33.33,0,1,1,.66-.1Z"/><path class="cls-16" d="M51.13,165.74a1,1,0,0,1-.75.61,1,1,0,0,1-.89-.37,1.92,1.92,0,0,1-.45-1,1.89,1.89,0,0,1,.14-1.1,1,1,0,0,1,.75-.61,1,1,0,0,1,.89.37,1.82,1.82,0,0,1,.46,1A1.9,1.9,0,0,1,51.13,165.74Zm-1.27-.09a.46.46,0,0,0,.83-.12,1.42,1.42,0,0,0,.1-.82,1.49,1.49,0,0,0-.33-.75.51.51,0,0,0-.46-.21c-.14,0-.27.12-.37.33a1.51,1.51,0,0,0-.1.82A1.53,1.53,0,0,0,49.86,165.65Z"/><path class="cls-11" d="M38.62,166.43l-1.36.2a.25.25,0,0,1-.29-.22.25.25,0,0,1,.21-.29l1.36-.2a.26.26,0,0,1,.3.22A.26.26,0,0,1,38.62,166.43Zm.12.83-1.36.2a.27.27,0,0,1-.08-.53l1.36-.2a.26.26,0,0,1,.3.22A.27.27,0,0,1,38.74,167.26Z"/><path class="cls-11" d="M26.25,169.19a.25.25,0,0,1-.5.08l-.09-.62-.63.09a.24.24,0,1,1-.07-.48l.62-.1-.09-.61a.26.26,0,0,1,.22-.29.25.25,0,0,1,.29.22l.09.61.63-.09a.25.25,0,0,1,.28.21.24.24,0,0,1-.21.27l-.63.1Z"/><path class="cls-11" d="M41.09,114.87a.2.2,0,0,0,.22.17l.56-.09c.32.61,1.16,2.21,1.36,2.67a.26.26,0,0,0,.12.13.16.16,0,0,0,.13,0,.25.25,0,0,0,.17-.1s.5-.66.66-.89.08-.46,0-.47a.15.15,0,0,0-.11,0,.29.29,0,0,0-.16.09l-.16.22-.13.19-.13.17-.15.2c-.2-.43-1.09-2.1-1.32-2.52h0l-.06-.05a.17.17,0,0,0-.15,0l-.73.11A.19.19,0,0,0,41.09,114.87Z"/><rect class="cls-16" x="10.66" y="94.29" width="47.26" height="11.31" transform="translate(82.78 193.83) rotate(171.63)"/><path class="cls-17" d="M104.78,131.5c-.67,11.94-1.14,24.24,0,36.15.91,9.28,4.81,16.93,14.46,19.2,8.95,2.11,21.69,2,29.26-4,3.53-2.77,4.76-6.67,4.52-11-.32-6.08-5.14-39.38-6.58-49.77-.87-6.32-1.72-12.73-3.7-18.84-4.16-12.83-10.56-13.07-11.44-13.32-.77-.49-5.58-2.32-12.51-.11a13.51,13.51,0,0,0-8.23,7.33C105.62,107.41,105.4,120.32,104.78,131.5Z"/><path class="cls-17" d="M133.37,92c7.63,3.56,9.45,11.9,11.3,19.36,2.57,10.4,5,20.84,6.85,31.39.91,5.07,1.71,10.16,2.35,15.27.61,4.89,1.57,10.11,1.24,15.05-.55,8.17-8,11.89-15.27,13a.28.28,0,0,1-.1-.55c4.12-.81,8.33-2,11.4-5,3.94-3.92,3.48-9,3-14.15-.79-8.68-2.08-17.31-3.67-25.88S147,123.44,145,115c-1.93-8.08-3.34-18.71-11.63-22.81C133.25,92.11,133.29,92,133.37,92Z"/><path class="cls-17" d="M107.09,105.84c1.45-6.24,4.69-12.33,11.27-14.14,0,0,0,0,0,0-8.5,2.71-10.57,12-11.7,19.75q-1.78,12.24-2.66,24.59c-.57,7.92-1,15.89-.82,23.83.17,8.56,1.72,16.59,6.78,23.65.11.14-.09.32-.21.18-5-5.71-6.64-13.58-7-20.94a222.88,222.88,0,0,1,.87-29.23C104.3,124.36,105,114.84,107.09,105.84Z"/><path class="cls-18" d="M204.49,247.51c-.51-2-32.1-50.59-34.41-51.65-.27-.14-16.65,9.84-16.65,9.84-.71.82-29.89-7.56-29.89-7.56l-2.85,35.72,54.06,2.71s7,4.81,13.41,8.78c0,0,0,0,0,0a81.39,81.39,0,0,0,8.47,4.89C199.3,251.12,205,249.51,204.49,247.51Z"/><path class="cls-16" d="M196.65,250.24a79.48,79.48,0,0,1-8.47-4.89,0,0,0,0,1,0,0c-6.42-4-13.41-8.78-13.41-8.78l-12-.6-16.64-31.69c4.08,1,7.12,1.68,7.35,1.42,0,0,16.38-10,16.64-9.84,2.32,1.06,33.9,49.63,34.42,51.64S199.3,251.13,196.65,250.24Z"/><path class="cls-5" d="M204.8,247.59c-.54-2.07-32.28-50.63-34.66-51.71-.9-.42-8.87,3.75-16.71,9.82L173.93,237s20.08,12.55,22.82,13.46S205.34,249.66,204.8,247.59Z"/><path class="cls-17" d="M202.4,248.16c-5.52-8-27-40.83-31.88-49.17,0-.07,0-.09,0,0,5.65,7.82,26.89,40.82,32,49.12C202.64,248.25,202.52,248.33,202.4,248.16Z"/><path class="cls-17" d="M193,248.46a7.78,7.78,0,0,1-1.19-6.17,7.58,7.58,0,0,1,3.15-4.66c.05,0,.11.06.07.1a9,9,0,0,0-1.93,10.67A.06.06,0,1,1,193,248.46Z"/><path class="cls-17" d="M176.42,239c-2.18-3.22-3.5-7.75-2.16-11.52.05-.15.26-.07.27.06a54.16,54.16,0,0,0,2.32,11.26A.24.24,0,0,1,176.42,239Z"/><path class="cls-17" d="M179,240.88c-2.17-3.23-3.49-7.76-2.15-11.53.05-.14.26-.06.27.06a54.16,54.16,0,0,0,2.32,11.26A.25.25,0,0,1,179,240.88Z"/><path class="cls-17" d="M181.67,242.75c-2.18-3.23-3.5-7.75-2.16-11.52.05-.15.26-.07.27.06a54.16,54.16,0,0,0,2.32,11.26A.24.24,0,0,1,181.67,242.75Z"/><path class="cls-17" d="M184.29,244.63c-2.18-3.23-3.49-7.76-2.15-11.53.05-.14.26-.07.27.06a53.52,53.52,0,0,0,2.32,11.26A.25.25,0,0,1,184.29,244.63Z"/><path class="cls-17" d="M164.15,206.12c-2.38-3.66,3.31-7.37,5.69-3.7S166.53,209.79,164.15,206.12Z"/><path class="cls-17" d="M174.63,244.83c1.12-3.24.8-6.86.88-10.22a.47.47,0,0,0-.64-.42.11.11,0,0,0-.16,0,20.43,20.43,0,0,0-6.4,8.41c-.75,1.94-.73,4.89,1.71,5.65S174,246.72,174.63,244.83Zm-2.6,1.91c-3.76,2-3.13-3-2.51-4.39a20.2,20.2,0,0,1,1.42-2.63,57.21,57.21,0,0,1,3.63-5c-.15,1.65-.15,3.3-.23,5C174.24,241.66,174.1,245.64,172,246.74Z"/><path class="cls-17" d="M165.07,223.94c-2,1.64-.84,4.37.61,5.87a20.36,20.36,0,0,0,9.16,5.26.1.1,0,0,0,.13-.1.48.48,0,0,0,.44-.63c-1.39-3.07-2.5-6.52-4.79-9.07C169.29,223.78,166.92,222.38,165.07,223.94Zm7.28,6.18c.72,1.49,1.36,3,2.14,4.48a60.17,60.17,0,0,1-5.28-3.19,22.18,22.18,0,0,1-2.33-1.87c-1.12-1.06-3.63-5.41.6-5C169.82,224.72,171.49,228.34,172.35,230.12Z"/><path class="cls-17" d="M132.61,190.6s-45.33-21.12-65.62-21c-24.13.13-43.06,28.65-13.61,49.5,26,18.42,108.47,17.61,108.47,17.61l-19-34.71a175.72,175.72,0,0,0-52.53-10.1l41.56,8.72Z"/><path class="cls-11" d="M131.72,197.48c-3.56-.92-7.18-1.56-10.8-2.23s-7.3-1.29-11-1.86A220.3,220.3,0,0,0,87.89,191c-.69,0-1.38-.06-2.07-.08l-.45-.15-1.05-.32c-.65-.17-1.32-.32-2-.47-1.38-.31-2.77-.56-4.14-.92-.08,0-.12.11,0,.13,1.37.41,2.72.91,4.09,1.32l1.19.34c-2.71-.05-5.43,0-8.14,0-.09,0-.1.13,0,.13,3.68.05,7.39.28,11.06.61s7.3.66,10.93,1.13c7.35.95,14.68,2.14,22,3.44,4.1.72,8.19,1.53,12.32,2A.37.37,0,0,0,131.72,197.48Z"/><path class="cls-11" d="M153.48,235.08c-1.17-2.21-2.14-4.54-3.19-6.8s-2.11-4.55-3.17-6.81c-2.12-4.53-9.78-19.79-10.56-20.88-.05-.07-.17,0-.15.08.33,1.16,5.07,11.24,6.17,13.49,2.19,4.5,4.52,8.93,6.8,13.38.66,1.27,1.34,2.53,2,3.8s1.38,2.51,2,3.8A.07.07,0,0,0,153.48,235.08Z"/><path class="cls-18" d="M46.05,246.38c.6-2,34.47-49,36.83-49.94.28-.13,16.16,10.62,16.16,10.62.67.85,30.22-6.13,30.22-6.13l1.14,35.82-54.13.13s-7.21,4.47-13.81,8.13c0,0,0,0,0,0a81.27,81.27,0,0,1-8.69,4.48C51.06,250.24,45.43,248.36,46.05,246.38Z"/><path class="cls-16" d="M53.75,249.48A78.54,78.54,0,0,0,62.44,245s0,0,0,0c6.6-3.66,13.81-8.13,13.81-8.13l12,0L106.45,206c-4.12.83-7.2,1.34-7.41,1.07,0,0-15.88-10.75-16.15-10.62-2.37.94-36.23,47.95-36.84,49.94S51.06,250.25,53.75,249.48Z"/><path class="cls-5" d="M45.73,246.45c.64-2,34.66-49,37.09-50,.92-.37,8.68,4.17,16.22,10.61l-22,30.27s-20.65,11.58-23.43,12.36S45.09,248.49,45.73,246.45Z"/><path class="cls-17" d="M48.1,247.14c5.89-7.74,28.95-39.5,34.19-47.6,0-.06,0-.09-.05,0-6,7.54-28.81,39.49-34.27,47.54C47.85,247.21,48,247.3,48.1,247.14Z"/><path class="cls-17" d="M57.51,247.89A7.8,7.8,0,0,0,59,241.78a7.52,7.52,0,0,0-2.93-4.8s-.11.05-.07.09a9,9,0,0,1,1.42,10.75C57.38,247.88,57.47,248,57.51,247.89Z"/><path class="cls-17" d="M74.49,239.23c2.33-3.12,3.86-7.58,2.7-11.41,0-.15-.25-.08-.27.05A54.31,54.31,0,0,1,74.07,239,.24.24,0,0,0,74.49,239.23Z"/><path class="cls-17" d="M71.78,241c2.33-3.12,3.86-7.59,2.7-11.41,0-.15-.25-.08-.27.05a53.7,53.7,0,0,1-2.86,11.13A.25.25,0,0,0,71.78,241Z"/><path class="cls-17" d="M69.07,242.72c2.33-3.12,3.86-7.58,2.7-11.4,0-.15-.25-.09-.27,0a53.63,53.63,0,0,1-2.86,11.14A.24.24,0,0,0,69.07,242.72Z"/><path class="cls-17" d="M66.36,244.47c2.33-3.12,3.86-7.58,2.7-11.41,0-.15-.25-.08-.27.05a54.33,54.33,0,0,1-2.86,11.13A.25.25,0,0,0,66.36,244.47Z"/><path class="cls-17" d="M88.32,207c2.55-3.55-3-7.52-5.51-4S85.76,210.52,88.32,207Z"/><path class="cls-17" d="M87.67,243.83c1.59-2-.07-4.45-1.8-5.63a20.48,20.48,0,0,0-10-3.28.11.11,0,0,0-.11.12.48.48,0,0,0-.29.71c2,2.72,3.77,5.88,6.53,7.91C83.57,244.85,86.18,245.73,87.67,243.83Zm-8.39-4.57c-1-1.31-2-2.67-3-3.95,2,.65,3.93,1.21,5.82,2.05a20.82,20.82,0,0,1,2.66,1.36c1.3.81,4.65,4.55.43,5C82.86,244,80.49,240.83,79.28,239.26Z"/><path class="cls-17" d="M80.93,225.78c-2.41,2.44-3.67,5.84-5.21,8.84a.47.47,0,0,0,.4.65c0,.07,0,.13.13.11a20.44,20.44,0,0,0,9.4-4.82c1.52-1.43,2.78-4.1.9-5.84S82.34,224.36,80.93,225.78Zm3.18-.6c4.25-.18,1.52,4,.36,5A21.42,21.42,0,0,1,82.06,232c-1.74,1.13-3.6,2-5.43,2.94.84-1.43,1.56-2.91,2.35-4.37C79.92,228.81,81.76,225.28,84.11,225.18Z"/><path class="cls-17" d="M130.64,189.9s45.85-13.8,70.3-10.88c24,2.86,33.8,32.91,10.43,49.19C185.86,246,89.8,239.77,89.8,239.77L110.31,203s32.71-7.69,62.55-7.39l-41.93,6.72Z"/><path class="cls-11" d="M108.94,205.41a.53.53,0,0,0,0-.18l0-.15c0-.12,0-.24.08-.36s.15-.47.23-.71.19-.47.29-.7a5.26,5.26,0,0,1,.38-.65l.06,0,0,0,.05,0,0,0c3.6-.76,28.08-4.86,31.73-5.36s7.35-.94,11-1.33a218.5,218.5,0,0,1,22.15-1.33l2.08,0c.14-.05.3-.08.45-.12.35-.1.7-.19,1.06-.27.66-.14,1.33-.26,2-.38,1.4-.24,2.8-.42,4.18-.72.09,0,.12.11,0,.13-1.39.35-2.76.78-4.15,1.12l-1.21.29c2.72.08,5.43.22,8.14.4.08,0,.09.14,0,.14-3.68-.13-7.39-.07-11.08.08s-7.32.31-11,.61c-7.39.6-14.76,1.43-22.11,2.38-4.12.53-29.08,4.78-33.23,5h0c0,.1-.07.19-.11.29s-.22.45-.34.67-.22.43-.35.64l-.2.3-.1.16a.54.54,0,0,0-.1.16C109,205.56,108.9,205.5,108.94,205.41Z"/><path class="cls-11" d="M97.45,237.38c1.28-2.14,2.35-4.43,3.51-6.64l3.49-6.65c2.33-4.42,10.71-19.3,11.55-20.35,0-.06.17,0,.14.08-.38,1.15-5.6,11-6.8,13.19-2.41,4.39-4.94,8.7-7.44,13-.71,1.24-1.45,2.46-2.17,3.7s-1.5,2.44-2.16,3.7C97.53,237.53,97.41,237.46,97.45,237.38Z"/><path class="cls-19" d="M136.52,139.13C130,156,118.76,175.81,114.73,178.71c-5.09,3.67-32.27,6-33.77,6-3.72-.15-5.85-25.12-1.86-25.13,6.06,0,22.73.72,24.21-.43s12.29-11.41,23.51-23.07C134.56,128,140.55,128.64,136.52,139.13Z"/><path class="cls-19" d="M82.39,184.75a77.67,77.67,0,0,1-10.55,2.82c-2.83.4-11,1.34-11.76-1.73-.51-2.09,4.23-3.21,7.56-4.08,1.76-.45,4-1.9,3.71-3-.59-2-5.12-.72-8.16.52-5.88,2.39-13.92,7-16.85,3.82-1.1-1.22.62-2.91,3-4.47-3.76,1.68-7.7,2.93-9,1.63a1.84,1.84,0,0,1,0-2.53,2.45,2.45,0,0,1-2.61-.8c-1-1.33-.17-3,1.31-4.6a1.35,1.35,0,0,1-.92-.81c-1.87-4,11.52-12.7,15.78-13.09a105.6,105.6,0,0,1,25.22,1.18C83.32,164.05,82.4,184.74,82.39,184.75Z"/><path class="cls-17" d="M66.15,171.07a20.83,20.83,0,0,0-8.53,2c-3.36,1.6-5.73,3.68-8.65,5.71-.08,0,0,.17.08.12,1.39-1,7.09-4.52,8.54-5.3a19.66,19.66,0,0,1,8.56-2.44A0,0,0,0,0,66.15,171.07Z"/><path class="cls-17" d="M64.62,165.61a49.37,49.37,0,0,0-9.87,1.92c-3.47,1.19-6.38,3.52-9.24,5.75-1.71,1.35-3.4,2.72-5,4.14-.07.06,0,.18.08.12q4.35-3.47,8.92-6.67a26,26,0,0,1,9.34-4.19c1.92-.44,3.87-.73,5.82-1C64.66,165.66,64.65,165.6,64.62,165.61Z"/><path class="cls-17" d="M61.85,160.63c-3.18.19-6,.36-8.94,1.63a44.92,44.92,0,0,0-9.38,6c-1.56,1.25-3.08,2.56-4.58,3.89-.06.06,0,.16.1.11a102.46,102.46,0,0,1,10.76-8,20.94,20.94,0,0,1,5.77-2.69,37.79,37.79,0,0,1,6.27-.93S61.86,160.63,61.85,160.63Z"/><path class="cls-11" d="M79.22,157.71l5,30.2s25.71-3.55,30.91-7.78,17.11-28.2,21.28-40-2-12.41-8.78-5.53-23.49,23.51-24.34,23.8S79.22,157.71,79.22,157.71Z"/><path class="cls-17" d="M88.45,175.4c-.63-3.56-1.28-7.12-1.77-10.71-.28-2-.57-4.08-.82-6.12,0-.08.12-.11.13,0,.77,3.55,1.53,7.12,2.13,10.71s1.23,7.14,1.79,10.72c.31,2,.57,4.07.76,6.12a0,0,0,0,1-.07,0C89.71,182.57,89.07,179,88.45,175.4Z"/><path class="cls-12" d="M83.75,184.91l.5,3s25.72-3.55,30.92-7.78,17.11-28.2,21.29-40c3-8.66.55-11.29-3.65-9.39C120.48,144.07,97.2,169.45,83.75,184.91Z"/><path class="cls-11" d="M170.54,189.68l-59.63,1,3-19.07s-4.85-4.2-2-12.17c1.85-5.22,10.21-17.45,14.44-22.54,10.31-12.39,17.45-5.47,20.31-2.28C157.52,146.79,170.54,189.68,170.54,189.68Z"/><path class="cls-17" d="M131.9,171.44a52.21,52.21,0,0,0-7.81-.13c-1.29.09-2.57.24-3.85.42-.64.09-1.28.16-1.92.22a8.53,8.53,0,0,1-2,0c-.06,0-.07.08,0,.09a13.28,13.28,0,0,0,1.89.3,12.7,12.7,0,0,0,1.85,0c1.31-.08,2.62-.22,3.93-.31,2.64-.19,5.28-.38,7.93-.38C132,171.66,132,171.45,131.9,171.44Z"/><path class="cls-17" d="M137.8,174.85a56.58,56.58,0,0,0-6.28-1.46c-1.06-.18-2.12-.29-3.19-.38-.52,0-1-.08-1.54-.11s-1.13,0-1.7,0c-.06,0-.07.09,0,.09.53.06,1,.2,1.58.28l1.59.24c1.05.17,2.11.35,3.17.5,2.13.31,4.24.65,6.35,1C137.88,175,137.9,174.88,137.8,174.85Z"/><path class="cls-19" d="M139.39,131.87c0,1.12-3.18,9.37-8.09,10.45-1.6.35-3.89-8.3-3.89-8.3l-.31-.6-4.4-8.4,8.69-9.56,1.27-1.3s1.06,2.37,2.34,5.35c.06.14.12.27.18.42l.22.48.58,1.35c.15.35.29.68.43,1l.44,1.09A61.16,61.16,0,0,1,139.39,131.87Z"/><path class="cls-17" d="M135,119.51a19.07,19.07,0,0,1-7.9,13.91l-4.4-8.4,8.69-9.56,1.27-1.3S133.72,116.53,135,119.51Z"/><path class="cls-19" d="M106.41,113.84c1.87,16.54,12,17.29,15.56,16.88,3.23-.37,14.21-2,14.06-18.68s-8.43-21-15.88-20.56S104.55,97.3,106.41,113.84Z"/><path class="cls-17" d="M108.42,110.72a10.07,10.07,0,0,0,1.09-.39,1.87,1.87,0,0,0,1-.6.61.61,0,0,0-.1-.72,1.45,1.45,0,0,0-1.48-.14,2.12,2.12,0,0,0-1.24.93A.63.63,0,0,0,108.42,110.72Z"/><path class="cls-17" d="M119.73,108.65a11.11,11.11,0,0,1-1.15-.08,1.94,1.94,0,0,1-1.15-.31.59.59,0,0,1-.09-.72,1.43,1.43,0,0,1,1.38-.53,2.15,2.15,0,0,1,1.45.57A.63.63,0,0,1,119.73,108.65Z"/><path class="cls-17" d="M117.67,113.55s.09,0,.09.09c.09,1.13.39,2.41,1.45,2.67,0,0,0,.07,0,.07C117.94,116.34,117.57,114.64,117.67,113.55Z"/><path class="cls-17" d="M118.54,112.26c1.8-.34,2.34,3.28.68,3.6S117,112.55,118.54,112.26Z"/><path class="cls-17" d="M119.28,112.35c.35.16.71.47,1.1.45s.72-.45,1-.86c0,0,.06,0,.07,0a1.33,1.33,0,0,1-.77,1.66c-.66.2-1.24-.34-1.52-1C119.06,112.49,119.14,112.28,119.28,112.35Z"/><path class="cls-17" d="M111.4,114.26s-.08.07-.07.11c.21,1.12.27,2.43-.68,3,0,0,0,.07,0,.06C111.88,117,111.78,115.28,111.4,114.26Z"/><path class="cls-17" d="M110.21,113.25c-1.82.15-1.38,3.78.3,3.64S111.74,113.12,110.21,113.25Z"/><path class="cls-17" d="M109.49,113.58c-.27.23-.51.61-.85.67s-.74-.28-1-.63c0,0-.06,0-.06,0,.07.7.38,1.39,1.07,1.45s1-.6,1.08-1.32C109.71,113.67,109.59,113.49,109.49,113.58Z"/><path class="cls-17" d="M119.19,122.73c-.22.32-.41.73-.81.84a2.93,2.93,0,0,1-1.25,0s-.07,0,0,.06a1.54,1.54,0,0,0,1.53.33,1.2,1.2,0,0,0,.68-1.16C119.31,122.69,119.22,122.69,119.19,122.73Z"/><path class="cls-17" d="M113.93,119.33s0,1.71.11,2.5c0,.07.21.08.48.06,0,0,0,0,0,0A3.8,3.8,0,0,0,118,120c0-.08-.06-.15-.13-.09a5.68,5.68,0,0,1-3.3,1.46c-.08-.21.1-2.92,0-2.92a7.39,7.39,0,0,0-1.74.66c-.1-3.56.36-7.11.2-10.65a.11.11,0,0,0-.21,0,57.32,57.32,0,0,0-.7,11.46C112.08,120.33,113.63,119.51,113.93,119.33Z"/><path class="cls-17" d="M114.58,121.49a4.64,4.64,0,0,0,1.94,1.31,2,2,0,0,0,1.27,0c.89-.3.86-1.14.64-1.84a4.77,4.77,0,0,0-.48-1.07A6,6,0,0,1,114.58,121.49Z"/><path class="cls-20" d="M116.52,122.8a2,2,0,0,0,1.27,0c.89-.3.86-1.14.64-1.84A2.14,2.14,0,0,0,116.52,122.8Z"/><path class="cls-17" d="M136,114.06a6.9,6.9,0,0,1-4.78-4.87,18,18,0,0,1-8.24-4.56c.17.32,1.39,2.63,2.06,3.79-10.81-.13-15.45-7.57-15.45-7.57a18.28,18.28,0,0,0-3.4,7.43S105,101.87,107.53,97a10.5,10.5,0,0,1,8.81-5.93A15,15,0,0,1,131.56,93C139.65,99.21,136,114.06,136,114.06Z"/><path class="cls-17" d="M116.77,108.08a19.23,19.23,0,0,0,5.71,1s0,0,0,0a16.65,16.65,0,0,1-8.49-3.3,16,16,0,0,1-2.81-2.77,10.8,10.8,0,0,1-2.09-3.74.08.08,0,1,0-.16,0,13,13,0,0,0,1.55,4,11.84,11.84,0,0,0,2.93,3.06,13.68,13.68,0,0,0,3.36,1.72Z"/><path class="cls-19" d="M137,117.65a3.38,3.38,0,0,1-.72.35,2.23,2.23,0,0,1-.76.17,2.35,2.35,0,0,1-1-.11,2.61,2.61,0,0,1-.71-.35,3.22,3.22,0,0,1-.8-.79l0-4.54s2.54-5.82,5.1-5S139.53,116.1,137,117.65Z"/><path class="cls-17" d="M137.75,109.63s.06.05,0,.07c-1.75,1.15-2.39,3.12-2.73,5.09a1.56,1.56,0,0,1,2.2-.88c.06,0,0,.12,0,.12a1.72,1.72,0,0,0-1.75,1,8.05,8.05,0,0,0-.59,1.69c0,.18-.38.16-.35,0v0C134,114.17,135.2,110.4,137.75,109.63Z"/><path class="cls-19" d="M147.83,137.69c7,11.09,21.51,50.86,13.49,56.08S117.38,183,107.79,176c-2.86-2.1,12.82-19.4,16.6-19.15,3.15.21,17.49,10.4,18.12,9.58s-.35-8.94-1.52-23.31C139.64,126.52,144.75,132.8,147.83,137.69Z"/><path class="cls-19" d="M114.31,148.62c-6.93-3.69-9.27-3.57-13.46-9.79-2.76-4.07-6.54-4.07-6,1,.92,8.32,8.85,15,12.27,16.46Z"/><path class="cls-9" d="M81.24,136.72c-21.91,3.93-16.12,36.39,5.82,32.45S103.19,132.78,81.24,136.72Z"/><path class="cls-12" d="M81.24,136.72c-21.91,3.93-16.12,36.39,5.82,32.45S103.19,132.78,81.24,136.72Z"/><path class="cls-9" d="M83.3,136.35c-20.88,3.75-15.1,36.2,5.82,32.45S104.21,132.6,83.3,136.35Z"/><path class="cls-12" d="M99.45,153.34c-.11,5.78-3.48,11.38-10.83,12.7-17.35,3.12-22.16-23.82-4.83-26.93l.34-.06c-16.25,3.26-11.59,28.75,5,25.78A12,12,0,0,0,99.45,153.34Z"/><g class="cls-14"><path d="M89.05,142.62l-.13.86c2.76.49,4.49,2.54,4.15,4.83s-1.94,3.3-5.46,3.54l-1,6.47a7.45,7.45,0,0,0,4.74-1.4.57.57,0,0,1,.43-.1.61.61,0,0,1,.49.66.62.62,0,0,1-.33.43,8.59,8.59,0,0,1-5.43,1.43l-.28,1.8a.56.56,0,0,1-.62.46.55.55,0,0,1-.46-.63l.26-1.77c-2.82-.52-4.58-2.52-4.22-4.93.34-2.22,2-3.3,5.54-3.5l1-6.36a6.62,6.62,0,0,0-3.62,1,.55.55,0,0,1-.44.1.59.59,0,0,1-.5-.65c0-.23.17-.35.4-.48a7.48,7.48,0,0,1,4.27-1l.14-.91a.57.57,0,0,1,.63-.46A.56.56,0,0,1,89.05,142.62ZM91.92,148c.25-1.63-1-3.17-3.2-3.54l-.93,6.19C90.82,150.43,91.69,149.59,91.92,148Zm-9.57,6.5c-.26,1.72,1,3.26,3.28,3.65l1-6.27C83.53,152.14,82.59,153,82.35,154.54Z"/></g><path class="cls-19" d="M131.13,162.74s-6.53-7.55-13.53-12.21c-4.84-3.23-16.14-9.06-31.76-1.51-3.7,1.79-7.71,7-.6,6.24,5.05-.52,8.1-2.37,11.09-2.14,0,0-4.31,7.19-2.38,10.84a77,77,0,0,0,5.75,9.15,16.5,16.5,0,0,0,1.81-.92s2.13,3.23,7.82,4.72Z"/><path class="cls-19" d="M112.49,148.19c-3,.39-9.4,1.34-14.36,3.93C92.63,155,82.8,162,85,166.06c1.59,3,5.58.61,5.58.61s-3.45,3.76-1.43,6.13c1.84,2.15,4.81.15,4.81.15s-1.7,2.64.48,4.37c2.61,2.08,5.74-3.79,10.22-4C105.62,173.31,112.49,148.19,112.49,148.19Z"/><path class="cls-17" d="M102.14,157.43a24.75,24.75,0,0,0-11.6,9.11c-.07.11,0,.22.06.14a61,61,0,0,1,11.57-9.2S102.17,157.42,102.14,157.43Z"/><path class="cls-17" d="M104.88,163.07c-2.32,1-8.16,4.86-11,9.79-.07.11,0,.22.06.13a65.85,65.85,0,0,1,11-9.87S104.91,163.06,104.88,163.07Z"/><path class="cls-17" d="M96.35,153.07a20.88,20.88,0,0,0-7.13,1.1,37.22,37.22,0,0,1-3.77.82c-1.16.16-2.88.43-3.61-.76a2.08,2.08,0,0,1,.27-2.11,10.15,10.15,0,0,1,2.3-2.23s0-.08,0-.06a14.54,14.54,0,0,0-2.31,1.89,3.34,3.34,0,0,0-.9,1.78c-.13,1.44,1.36,2.18,2.58,2.22A11.66,11.66,0,0,0,86,155.5c.69-.12,1.39-.28,2.07-.45,1.41-.35,2.8-.78,4.21-1.15a31.86,31.86,0,0,1,4.13-.73S96.4,153.08,96.35,153.07Z"/><path class="cls-17" d="M88.31,159.62a78.77,78.77,0,0,1,8.07-6.47,0,0,0,0,0,0-.07,41.31,41.31,0,0,0-8.43,5.9,13.82,13.82,0,0,0-3.31,4.48c-.91,2.48.57,3.56,1.13,3.9a3.45,3.45,0,0,0,2.24.43,6.8,6.8,0,0,0,2.58-1.1s0-.09,0-.07a4.88,4.88,0,0,1-4.29.44A2.39,2.39,0,0,1,85,165.67a3.11,3.11,0,0,1,.34-2.15A14.46,14.46,0,0,1,88.31,159.62Z"/><path class="cls-11" d="M128.87,158.75l-16.87,23s45,19.57,50.67,12.15-6.52-43-13-53.89c-7.48-12.65-9.4-9.2-9.13.79.28,10.47,1.75,25.8,1.75,25.8Z"/><path class="cls-17" d="M155.34,176.1a55.16,55.16,0,0,0-6.09-5.34,53.61,53.61,0,0,0-6.74-4.33c-1.33-.74-2.7-1.42-4.06-2.1a0,0,0,1,0,0,.06,70.85,70.85,0,0,1,6.82,4.28q3.28,2.29,6.49,4.69c1.2.91,2.37,1.87,3.54,2.82A.05.05,0,1,0,155.34,176.1Z"/><path class="cls-17" d="M129,158.7c.22.11,12.28,6.82,12.67,7.1,0-.21-1-7.49-1.17-8.56,0-.11,0-.21,0-.32-.15-.49-.3-1-.43-1.48s-.33-1.28-.49-1.92c0,0,0,0,0,0l.57,1.89.24.89c-.09-.76-.18-1.51-.26-2.26-.13-1.21-.22-2.41-.3-3.62,0,0,0,0,.06,0,.3,2.13.67,4.24,1,6.37s1.55,10,1.53,10-13.22-7.72-13.47-7.88A.1.1,0,0,1,129,158.7Z"/><path class="cls-17" d="M125,175.05c1.87-2.57,3.71-5.16,5.67-7.66,1.12-1.43,2.22-2.85,3.35-4.27,0-.05.14,0,.1.07-1.77,2.66-3.55,5.32-5.44,7.89s-3.74,5.14-5.65,7.68q-1.64,2.16-3.4,4.22s-.07,0,0,0C121.24,180.23,123.11,177.64,125,175.05Z"/><path class="cls-17" d="M111.31,182.05c.62-.69,1.43-1.7,2.08-2.37.17-.17.32-.1.17.09-.49.64-.94,1.38-1.43,2l1.91.76,2.19.92c1.44.6,2.88,1.17,4.33,1.74q4.39,1.71,8.87,3.24a182.45,182.45,0,0,0,18.18,5.28c1.72.39,3.45.76,5.19,1.06a50.2,50.2,0,0,0,5.17.74s0,.08,0,.08a29.13,29.13,0,0,1-4.57-.27c-1.58-.23-3.16-.49-4.73-.81-3.12-.64-6.2-1.44-9.27-2.32-6.06-1.75-12.06-3.76-18-6q-2.48-.93-4.94-1.94l-2.47-1A18.08,18.08,0,0,1,111.31,182.05Z"/><path class="cls-9" d="M118.13,193.86c-.18-.94-.29-1.78-.38-2.67a26.62,26.62,0,0,1-.14-2.69,16,16,0,0,1,.25-2.8,6.66,6.66,0,0,1,1.25-2.94,3.82,3.82,0,0,1,1.52-1.15,3.86,3.86,0,0,1,.91-.25,4.36,4.36,0,0,1,.88,0,5.29,5.29,0,0,1,3,1.19,8.38,8.38,0,0,1,1.91,2.18,7.42,7.42,0,0,1,1,2.7,3.33,3.33,0,0,1-.13,1.71,2,2,0,0,1-.69.87,2,2,0,0,1-1,.33,1.94,1.94,0,0,1-1-.25,2.41,2.41,0,0,1-.68-.67,4,4,0,0,1-.53-1.44,8,8,0,0,1,0-2.72,6.51,6.51,0,0,1,1-2.54,3.1,3.1,0,0,1,1-1,2.17,2.17,0,0,1,1.43-.23,4.23,4.23,0,0,1,2.28,1.34,14.12,14.12,0,0,1,2.69,4.28,14.15,14.15,0,0,0-3-4,3.85,3.85,0,0,0-2.08-1,1.76,1.76,0,0,0-1.68,1.06,5.55,5.55,0,0,0-.6,2.22,6.61,6.61,0,0,0,.19,2.28,2.63,2.63,0,0,0,.42.89.56.56,0,0,0,.23.18.29.29,0,0,0,.16,0c.08,0,.17-.06.18-.09a.34.34,0,0,0,0-.13,1.83,1.83,0,0,0-.06-.77,6.37,6.37,0,0,0-2.5-3.36,3,3,0,0,0-1.68-.52,2,2,0,0,0-.37.06,1.6,1.6,0,0,0-.29.11,1.2,1.2,0,0,0-.42.42,4.13,4.13,0,0,0-.5,1.72,12.77,12.77,0,0,0,0,2.23c.06.77.17,1.55.31,2.33s.33,1.58.53,2.28Z"/><path class="cls-12" d="M118.13,193.86c-.18-.94-.29-1.78-.38-2.67a26.62,26.62,0,0,1-.14-2.69,16,16,0,0,1,.25-2.8,6.66,6.66,0,0,1,1.25-2.94,3.82,3.82,0,0,1,1.52-1.15,3.86,3.86,0,0,1,.91-.25,4.36,4.36,0,0,1,.88,0,5.29,5.29,0,0,1,3,1.19,8.38,8.38,0,0,1,1.91,2.18,7.42,7.42,0,0,1,1,2.7,3.33,3.33,0,0,1-.13,1.71,2,2,0,0,1-.69.87,2,2,0,0,1-1,.33,1.94,1.94,0,0,1-1-.25,2.41,2.41,0,0,1-.68-.67,4,4,0,0,1-.53-1.44,8,8,0,0,1,0-2.72,6.51,6.51,0,0,1,1-2.54,3.1,3.1,0,0,1,1-1,2.17,2.17,0,0,1,1.43-.23,4.23,4.23,0,0,1,2.28,1.34,14.12,14.12,0,0,1,2.69,4.28,14.15,14.15,0,0,0-3-4,3.85,3.85,0,0,0-2.08-1,1.76,1.76,0,0,0-1.68,1.06,5.55,5.55,0,0,0-.6,2.22,6.61,6.61,0,0,0,.19,2.28,2.63,2.63,0,0,0,.42.89.56.56,0,0,0,.23.18.29.29,0,0,0,.16,0c.08,0,.17-.06.18-.09a.34.34,0,0,0,0-.13,1.83,1.83,0,0,0-.06-.77,6.37,6.37,0,0,0-2.5-3.36,3,3,0,0,0-1.68-.52,2,2,0,0,0-.37.06,1.6,1.6,0,0,0-.29.11,1.2,1.2,0,0,0-.42.42,4.13,4.13,0,0,0-.5,1.72,12.77,12.77,0,0,0,0,2.23c.06.77.17,1.55.31,2.33s.33,1.58.53,2.28Z"/><path class="cls-9" d="M114.54,234.14c-2.43,3.43-1.94,13.93-3.41,15.4s-16.57,1.32-17.58.45-.54-4.57-1.68-5.18C91.42,244.57,114.54,234.14,114.54,234.14Z"/><path class="cls-12" d="M91.87,244.81a1.7,1.7,0,0,1,.65,1.12,71.69,71.69,0,0,0,20.22-5.44c.34-2.56.85-5,1.8-6.35C114.54,234.14,91.42,244.57,91.87,244.81Z"/><path class="cls-9" d="M42.18,234.3c3,4.39,1.4,13.77,2.87,15.24s16.57,1.32,17.59.45.55-4.77,1.15-5.52C64.11,244.08,42.18,234.3,42.18,234.3Z"/><path class="cls-12" d="M42.18,234.3A13.77,13.77,0,0,1,44,240.63,69,69,0,0,0,63.46,246a3.43,3.43,0,0,1,.33-1.53C64.11,244.08,42.18,234.3,42.18,234.3Z"/><path class="cls-9" d="M79.22,171.4c33.91,0,46.89,23.77,46.89,37.68,0,13.72-9.86,37-46.89,37s-49.31-19.76-49.31-37.37S45,171.4,79.22,171.4Z"/><path class="cls-9" d="M66.77,173.11s-13.87-10.63-28.89-9.37c-5.18.44,3.41,11.65,3.57,20.4Z"/><path class="cls-12" d="M47.24,179.86c.09.55-4.7,2.6-5.19,2.29s-1-7.21-4.9-14.56C36.57,166.51,46.32,173.93,47.24,179.86Z"/><path class="cls-21" d="M44.23,207.18a2.49,2.49,0,0,1-2-1.74,3.67,3.67,0,0,0,1.62,2.75c.06.05,0,.17-.06.14-2.65-1-2.36-4.74-1.43-7.13.05-.13.1-.26.16-.39.59-1.38,1.63-2.39,2.93-2.2C49.75,199.23,48.2,207.75,44.23,207.18Z"/><path class="cls-9" d="M34,195c-.66,2-6.68.37-8.2,1.63-2.39,2-1.73,26.59.46,28.57,1.22,1.11,8.05-.06,10,1.29S34,195,34,195Z"/><path class="cls-12" d="M25.49,210.36c0,6,.5,10.85,1.12,10.85s1.12-4.86,1.12-10.85-.5-10.85-1.12-10.85S25.49,204.37,25.49,210.36Z"/><path class="cls-21" d="M95.6,179.75c-.15,0-15.64-4.11-30.06-.93l-1.44-4.24c16.05-3.55,32.53.81,33.22,1l-1.72,4.17.86-2.09Z"/><path class="cls-16" d="M110.1,231.51c13.68-15.71,5.31-34,4.93-34.75a2.25,2.25,0,0,1,4-2,37.86,37.86,0,0,1,3.23,13.1c.66,10-2.65,19.18-10.47,25.43C109.47,235.19,108.35,233.53,110.1,231.51Z"/><path class="cls-16" d="M116.06,189.78a2.45,2.45,0,1,1-2.45-2.44A2.45,2.45,0,0,1,116.06,189.78Z"/><rect class="cls-9" x="189.75" y="80.78" width="60.54" height="13.38" transform="translate(440.04 174.93) rotate(180)"/><g class="cls-14"><path d="M229,92.93a28.11,28.11,0,0,1,0-10.7,27.72,27.72,0,0,1,0,10.7Z"/><path d="M225.72,92.93a28.11,28.11,0,0,1,0-10.7,27.91,27.91,0,0,1,0,10.7Z"/><path d="M212.2,92.93a27.91,27.91,0,0,1,0-10.7,28.11,28.11,0,0,1,0,10.7Z"/><path d="M209.07,92.93a28.11,28.11,0,0,1,0-10.7,27.91,27.91,0,0,1,0,10.7Z"/><path d="M203.33,92.93a28.11,28.11,0,0,1,0-10.7,27.91,27.91,0,0,1,0,10.7Z"/><path d="M214.81,92.93a28.11,28.11,0,0,1,0-10.7,28.11,28.11,0,0,1,0,10.7Z"/><path d="M237.09,92.93a28.11,28.11,0,0,1,0-10.7,28.11,28.11,0,0,1,0,10.7Z"/><path d="M221.42,92.93a28.11,28.11,0,0,1,0-10.7,28.11,28.11,0,0,1,0,10.7Z"/><path d="M219.17,92.93a27.91,27.91,0,0,1,0-10.7,28.11,28.11,0,0,1,0,10.7Z"/><path d="M195.85,92.93a28.11,28.11,0,0,1,0-10.7,27.91,27.91,0,0,1,0,10.7Z"/><path d="M192.47,92.93a28.11,28.11,0,0,1,0-10.7,27.91,27.91,0,0,1,0,10.7Z"/><path d="M200.67,92.93a27.91,27.91,0,0,1,0-10.7,28.11,28.11,0,0,1,0,10.7Z"/><path d="M231.61,92.93a27.91,27.91,0,0,1,0-10.7,28.11,28.11,0,0,1,0,10.7Z"/></g><polygon class="cls-12" points="189.75 94.15 189.75 91.31 250.29 89.4 250.29 94.15 189.75 94.15"/><rect class="cls-9" x="193.89" y="94.15" width="60.54" height="13.38" transform="translate(448.32 201.69) rotate(180)"/><g class="cls-14"><path d="M233.14,106.31a28,28,0,0,1,0-10.71,28.17,28.17,0,0,1,0,10.71Z"/><path d="M229.86,106.31a28.17,28.17,0,0,1,0-10.71,28,28,0,0,1,0,10.71Z"/><path d="M216.34,106.31a28,28,0,0,1,0-10.71,28.17,28.17,0,0,1,0,10.71Z"/><path d="M213.21,106.31a28.17,28.17,0,0,1,0-10.71,28,28,0,0,1,0,10.71Z"/><path d="M207.47,106.31a28.17,28.17,0,0,1,0-10.71,28,28,0,0,1,0,10.71Z"/><path d="M219,106.31a28.17,28.17,0,0,1,0-10.71,28,28,0,0,1,0,10.71Z"/><path d="M225.56,106.31a28.17,28.17,0,0,1,0-10.71,28,28,0,0,1,0,10.71Z"/><path d="M223.31,106.31a28,28,0,0,1,0-10.71,28.17,28.17,0,0,1,0,10.71Z"/><path d="M200,106.31a28.17,28.17,0,0,1,0-10.71,28,28,0,0,1,0,10.71Z"/><path d="M196.61,106.31a28.17,28.17,0,0,1,0-10.71,28,28,0,0,1,0,10.71Z"/><path d="M204.81,106.31a28.17,28.17,0,0,1,0-10.71,28.17,28.17,0,0,1,0,10.71Z"/><path d="M235.75,106.31a28,28,0,0,1,0-10.71,28.17,28.17,0,0,1,0,10.71Z"/></g><polygon class="cls-12" points="193.89 107.53 193.89 104.69 254.44 102.78 254.44 107.53 193.89 107.53"/><rect class="cls-9" x="192.82" y="160.93" width="60.54" height="13.38" transform="translate(446.19 335.25) rotate(180)"/><g class="cls-14"><path d="M232.07,173.09a28,28,0,0,1,0-10.71,28.17,28.17,0,0,1,0,10.71Z"/><path d="M228.8,173.09a28,28,0,0,1,0-10.71,28.17,28.17,0,0,1,0,10.71Z"/><path d="M215.27,173.09a28.17,28.17,0,0,1,0-10.71,28,28,0,0,1,0,10.71Z"/><path d="M212.15,173.09a28,28,0,0,1,0-10.71,28.17,28.17,0,0,1,0,10.71Z"/><path d="M206.41,173.09a28,28,0,0,1,0-10.71,28.17,28.17,0,0,1,0,10.71Z"/><path d="M217.89,173.09a28,28,0,0,1,0-10.71,28,28,0,0,1,0,10.71Z"/><path d="M240.16,173.09a28.17,28.17,0,0,1,0-10.71,28,28,0,0,1,0,10.71Z"/><path d="M224.49,173.09a28.17,28.17,0,0,1,0-10.71,28,28,0,0,1,0,10.71Z"/><path d="M222.24,173.09a28.17,28.17,0,0,1,0-10.71,28,28,0,0,1,0,10.71Z"/><path d="M198.93,173.09a28,28,0,0,1,0-10.71,28.17,28.17,0,0,1,0,10.71Z"/><path d="M195.55,173.09a28,28,0,0,1,0-10.71,28.17,28.17,0,0,1,0,10.71Z"/><path d="M203.74,173.09a28.17,28.17,0,0,1,0-10.71,28,28,0,0,1,0,10.71Z"/><path d="M234.68,173.09a28.17,28.17,0,0,1,0-10.71,28,28,0,0,1,0,10.71Z"/></g><polygon class="cls-12" points="192.83 174.31 192.83 171.47 253.37 169.56 253.37 174.31 192.83 174.31"/><rect class="cls-9" x="184.89" y="174.31" width="60.54" height="13.38" transform="translate(430.33 362) rotate(180)"/><g class="cls-14"><path d="M238.43,186.46a28.11,28.11,0,0,1,0-10.7,27.91,27.91,0,0,1,0,10.7Z"/><path d="M236.23,186.46a28.11,28.11,0,0,1,0-10.7,27.91,27.91,0,0,1,0,10.7Z"/><path d="M224.14,186.46a27.91,27.91,0,0,1,0-10.7,28.11,28.11,0,0,1,0,10.7Z"/><path d="M220.87,186.46a27.91,27.91,0,0,1,0-10.7,28.11,28.11,0,0,1,0,10.7Z"/><path d="M207.34,186.46a28.11,28.11,0,0,1,0-10.7,27.91,27.91,0,0,1,0,10.7Z"/><path d="M204.22,186.46a27.91,27.91,0,0,1,0-10.7,28.11,28.11,0,0,1,0,10.7Z"/><path d="M198.48,186.46a27.91,27.91,0,0,1,0-10.7,28.11,28.11,0,0,1,0,10.7Z"/><path d="M210,186.46a28.11,28.11,0,0,1,0-10.7,27.91,27.91,0,0,1,0,10.7Z"/><path d="M232.23,186.46a28.11,28.11,0,0,1,0-10.7,27.91,27.91,0,0,1,0,10.7Z"/><path d="M216.56,186.46a28.11,28.11,0,0,1,0-10.7,27.91,27.91,0,0,1,0,10.7Z"/><path d="M214.31,186.46a27.91,27.91,0,0,1,0-10.7,28.11,28.11,0,0,1,0,10.7Z"/><path d="M191,186.46a27.91,27.91,0,0,1,0-10.7,28.11,28.11,0,0,1,0,10.7Z"/><path d="M187.62,186.46a27.91,27.91,0,0,1,0-10.7,28.11,28.11,0,0,1,0,10.7Z"/><path d="M195.81,186.46a28.11,28.11,0,0,1,0-10.7,27.91,27.91,0,0,1,0,10.7Z"/><path d="M226.75,186.46a28.11,28.11,0,0,1,0-10.7,27.91,27.91,0,0,1,0,10.7Z"/></g><polygon class="cls-12" points="184.9 187.69 184.9 184.85 245.44 182.94 245.44 187.69 184.9 187.69"/><rect class="cls-9" x="187.15" y="187.69" width="60.54" height="13.38" transform="translate(434.84 388.76) rotate(180)"/><g class="cls-14"><path d="M238.48,199.84a28.11,28.11,0,0,1,0-10.7,27.72,27.72,0,0,1,0,10.7Z"/><path d="M226.39,199.84a28.11,28.11,0,0,1,0-10.7,27.91,27.91,0,0,1,0,10.7Z"/><path d="M223.12,199.84a28.11,28.11,0,0,1,0-10.7,27.91,27.91,0,0,1,0,10.7Z"/><path d="M209.6,199.84a27.91,27.91,0,0,1,0-10.7,28.11,28.11,0,0,1,0,10.7Z"/><path d="M206.47,199.84a28.11,28.11,0,0,1,0-10.7,27.91,27.91,0,0,1,0,10.7Z"/><path d="M200.73,199.84a28.11,28.11,0,0,1,0-10.7,27.91,27.91,0,0,1,0,10.7Z"/><path d="M212.21,199.84a27.91,27.91,0,0,1,0-10.7,28.11,28.11,0,0,1,0,10.7Z"/><path d="M234.49,199.84a27.91,27.91,0,0,1,0-10.7,28.11,28.11,0,0,1,0,10.7Z"/><path d="M218.82,199.84a27.91,27.91,0,0,1,0-10.7,28.11,28.11,0,0,1,0,10.7Z"/><path d="M216.56,199.84a28.11,28.11,0,0,1,0-10.7,27.91,27.91,0,0,1,0,10.7Z"/><path d="M193.25,199.84a28.11,28.11,0,0,1,0-10.7,27.91,27.91,0,0,1,0,10.7Z"/><path d="M189.87,199.84a28.11,28.11,0,0,1,0-10.7,28.11,28.11,0,0,1,0,10.7Z"/><path d="M198.07,199.84a27.91,27.91,0,0,1,0-10.7,28.11,28.11,0,0,1,0,10.7Z"/><path d="M229,199.84a27.91,27.91,0,0,1,0-10.7,28.11,28.11,0,0,1,0,10.7Z"/></g><polygon class="cls-12" points="187.15 201.07 187.15 198.22 247.69 196.31 247.69 201.07 187.15 201.07"/><rect class="cls-9" x="184.89" y="201.07" width="60.54" height="13.38" transform="translate(430.33 415.51) rotate(180)"/><g class="cls-14"><path d="M238.43,213.22a28.11,28.11,0,0,1,0-10.7,27.91,27.91,0,0,1,0,10.7Z"/><path d="M236.23,213.22a28.11,28.11,0,0,1,0-10.7,27.91,27.91,0,0,1,0,10.7Z"/><path d="M224.14,213.22a27.91,27.91,0,0,1,0-10.7,28.11,28.11,0,0,1,0,10.7Z"/><path d="M220.87,213.22a27.91,27.91,0,0,1,0-10.7,28.11,28.11,0,0,1,0,10.7Z"/><path d="M207.34,213.22a28.11,28.11,0,0,1,0-10.7,27.91,27.91,0,0,1,0,10.7Z"/><path d="M204.22,213.22a27.91,27.91,0,0,1,0-10.7,28.11,28.11,0,0,1,0,10.7Z"/><path d="M198.48,213.22a27.91,27.91,0,0,1,0-10.7,28.11,28.11,0,0,1,0,10.7Z"/><path d="M210,213.22a28.11,28.11,0,0,1,0-10.7,27.91,27.91,0,0,1,0,10.7Z"/><path d="M232.23,213.22a28.11,28.11,0,0,1,0-10.7,27.91,27.91,0,0,1,0,10.7Z"/><path d="M216.56,213.22a28.11,28.11,0,0,1,0-10.7,27.91,27.91,0,0,1,0,10.7Z"/><path d="M214.31,213.22a27.91,27.91,0,0,1,0-10.7,28.11,28.11,0,0,1,0,10.7Z"/><path d="M191,213.22a27.91,27.91,0,0,1,0-10.7,28.11,28.11,0,0,1,0,10.7Z"/><path d="M187.62,213.22a27.91,27.91,0,0,1,0-10.7,28.11,28.11,0,0,1,0,10.7Z"/><path d="M195.81,213.22a28.11,28.11,0,0,1,0-10.7,27.91,27.91,0,0,1,0,10.7Z"/><path d="M226.75,213.22a28.11,28.11,0,0,1,0-10.7,27.91,27.91,0,0,1,0,10.7Z"/></g><polygon class="cls-12" points="184.9 214.44 184.9 211.6 245.44 209.69 245.44 214.44 184.9 214.44"/><rect class="cls-9" x="180.61" y="214.45" width="60.54" height="13.38" transform="translate(421.76 442.27) rotate(180)"/><g class="cls-14"><path d="M238.66,226.6a28,28,0,0,1,0-10.71,28.17,28.17,0,0,1,0,10.71Z"/><path d="M234.15,226.6a28,28,0,0,1,0-10.71,28.17,28.17,0,0,1,0,10.71Z"/><path d="M232,226.6a28,28,0,0,1,0-10.71,28.17,28.17,0,0,1,0,10.71Z"/><path d="M219.85,226.6a28.17,28.17,0,0,1,0-10.71,28,28,0,0,1,0,10.71Z"/><path d="M216.58,226.6a28.17,28.17,0,0,1,0-10.71,28,28,0,0,1,0,10.71Z"/><path d="M203.06,226.6a28,28,0,0,1,0-10.71,28.17,28.17,0,0,1,0,10.71Z"/><path d="M199.93,226.6a28.17,28.17,0,0,1,0-10.71,28,28,0,0,1,0,10.71Z"/><path d="M194.19,226.6a28.17,28.17,0,0,1,0-10.71,28,28,0,0,1,0,10.71Z"/><path d="M205.67,226.6a28.17,28.17,0,0,1,0-10.71,28.17,28.17,0,0,1,0,10.71Z"/><path d="M228,226.6a28.17,28.17,0,0,1,0-10.71,28.17,28.17,0,0,1,0,10.71Z"/><path d="M212.28,226.6a28,28,0,0,1,0-10.71,28.17,28.17,0,0,1,0,10.71Z"/><path d="M210,226.6a27.77,27.77,0,0,1,0-10.71,28.17,28.17,0,0,1,0,10.71Z"/><path d="M186.71,226.6a28.17,28.17,0,0,1,0-10.71,28,28,0,0,1,0,10.71Z"/><path d="M183.33,226.6a28.17,28.17,0,0,1,0-10.71,28,28,0,0,1,0,10.71Z"/><path d="M191.53,226.6a28,28,0,0,1,0-10.71,28.17,28.17,0,0,1,0,10.71Z"/><path d="M222.47,226.6a28,28,0,0,1,0-10.71,28.17,28.17,0,0,1,0,10.71Z"/></g><polygon class="cls-12" points="180.61 227.82 180.61 224.98 241.15 223.07 241.15 227.82 180.61 227.82"/><rect class="cls-9" x="184.89" y="227.82" width="60.54" height="13.38" transform="translate(430.33 469.03) rotate(180)"/><g class="cls-14"><path d="M238.43,240a28.17,28.17,0,0,1,0-10.71,28,28,0,0,1,0,10.71Z"/><path d="M236.23,240a28.17,28.17,0,0,1,0-10.71,28,28,0,0,1,0,10.71Z"/><path d="M224.14,240a28,28,0,0,1,0-10.71,28.17,28.17,0,0,1,0,10.71Z"/><path d="M220.87,240a28,28,0,0,1,0-10.71,28.17,28.17,0,0,1,0,10.71Z"/><path d="M207.34,240a28.17,28.17,0,0,1,0-10.71,28,28,0,0,1,0,10.71Z"/><path d="M204.22,240a28,28,0,0,1,0-10.71,28.17,28.17,0,0,1,0,10.71Z"/><path d="M198.48,240a28,28,0,0,1,0-10.71,28.17,28.17,0,0,1,0,10.71Z"/><path d="M210,240a28.17,28.17,0,0,1,0-10.71A28,28,0,0,1,210,240Z"/><path d="M232.23,240a28.17,28.17,0,0,1,0-10.71,28,28,0,0,1,0,10.71Z"/><path d="M216.56,240a28.17,28.17,0,0,1,0-10.71,28,28,0,0,1,0,10.71Z"/><path d="M214.31,240a28,28,0,0,1,0-10.71,28.17,28.17,0,0,1,0,10.71Z"/><path d="M191,240a28,28,0,0,1,0-10.71A28.17,28.17,0,0,1,191,240Z"/><path d="M187.62,240a28,28,0,0,1,0-10.71,28.17,28.17,0,0,1,0,10.71Z"/><path d="M195.81,240a28.17,28.17,0,0,1,0-10.71,28,28,0,0,1,0,10.71Z"/><path d="M226.75,240a28.17,28.17,0,0,1,0-10.71,28,28,0,0,1,0,10.71Z"/></g><polygon class="cls-12" points="184.9 241.2 184.9 238.36 245.44 236.45 245.44 241.2 184.9 241.2"/><rect class="cls-9" x="184.54" y="120.8" width="60.54" height="13.38" transform="translate(429.62 254.98) rotate(-180)"/><g class="cls-14"><path d="M238.08,133a27.91,27.91,0,0,1,0-10.7,28.11,28.11,0,0,1,0,10.7Z"/><path d="M235.87,133a28.11,28.11,0,0,1,0-10.7,27.91,27.91,0,0,1,0,10.7Z"/><path d="M223.78,133a28.11,28.11,0,0,1,0-10.7,27.91,27.91,0,0,1,0,10.7Z"/><path d="M220.51,133a28.11,28.11,0,0,1,0-10.7,27.91,27.91,0,0,1,0,10.7Z"/><path d="M207,133a28.11,28.11,0,0,1,0-10.7,27.91,27.91,0,0,1,0,10.7Z"/><path d="M203.86,133a27.91,27.91,0,0,1,0-10.7,28.11,28.11,0,0,1,0,10.7Z"/><path d="M198.12,133a28.11,28.11,0,0,1,0-10.7,27.91,27.91,0,0,1,0,10.7Z"/><path d="M209.6,133a27.91,27.91,0,0,1,0-10.7,28.11,28.11,0,0,1,0,10.7Z"/><path d="M231.88,133a27.91,27.91,0,0,1,0-10.7,28.11,28.11,0,0,1,0,10.7Z"/><path d="M216.21,133a27.91,27.91,0,0,1,0-10.7,28.11,28.11,0,0,1,0,10.7Z"/><path d="M214,133a28.11,28.11,0,0,1,0-10.7,27.91,27.91,0,0,1,0,10.7Z"/><path d="M190.64,133a28.11,28.11,0,0,1,0-10.7,27.91,27.91,0,0,1,0,10.7Z"/><path d="M187.26,133a27.91,27.91,0,0,1,0-10.7,28.11,28.11,0,0,1,0,10.7Z"/><path d="M195.46,133a27.91,27.91,0,0,1,0-10.7,28.11,28.11,0,0,1,0,10.7Z"/><path d="M226.4,133a27.91,27.91,0,0,1,0-10.7,28.11,28.11,0,0,1,0,10.7Z"/></g><polygon class="cls-12" points="184.54 134.18 184.54 131.34 245.08 129.43 245.08 134.18 184.54 134.18"/><rect class="cls-9" x="186.07" y="134.18" width="60.54" height="13.38" transform="translate(432.67 281.73) rotate(180)"/><g class="cls-14"><path d="M188.79,135.63a28.11,28.11,0,0,1,0,10.7,27.91,27.91,0,0,1,0-10.7Z"/><path d="M193.3,135.63a28.11,28.11,0,0,1,0,10.7,27.91,27.91,0,0,1,0-10.7Z"/><path d="M195.5,135.63a28.11,28.11,0,0,1,0,10.7,27.91,27.91,0,0,1,0-10.7Z"/><path d="M207.59,135.63a27.91,27.91,0,0,1,0,10.7,28.11,28.11,0,0,1,0-10.7Z"/><path d="M210.86,135.63a27.91,27.91,0,0,1,0,10.7,28.11,28.11,0,0,1,0-10.7Z"/><path d="M224.39,135.63a28.11,28.11,0,0,1,0,10.7,27.91,27.91,0,0,1,0-10.7Z"/><path d="M227.51,135.63a27.91,27.91,0,0,1,0,10.7,28.11,28.11,0,0,1,0-10.7Z"/><path d="M233.25,135.63a27.91,27.91,0,0,1,0,10.7,28.11,28.11,0,0,1,0-10.7Z"/><path d="M221.78,135.63a28.11,28.11,0,0,1,0,10.7,27.91,27.91,0,0,1,0-10.7Z"/><path d="M199.5,135.63a28.11,28.11,0,0,1,0,10.7,27.91,27.91,0,0,1,0-10.7Z"/><path d="M215.17,135.63a28.11,28.11,0,0,1,0,10.7,27.91,27.91,0,0,1,0-10.7Z"/><path d="M217.42,135.63a27.91,27.91,0,0,1,0,10.7,28.11,28.11,0,0,1,0-10.7Z"/><path d="M235.92,135.63a28.11,28.11,0,0,1,0,10.7,27.91,27.91,0,0,1,0-10.7Z"/><path d="M205,135.63a28.11,28.11,0,0,1,0,10.7,27.91,27.91,0,0,1,0-10.7Z"/></g><polygon class="cls-12" points="186.07 147.56 186.07 144.71 246.61 142.8 246.61 147.56 186.07 147.56"/><rect class="cls-9" x="189.75" y="147.56" width="60.54" height="13.38" transform="translate(440.04 308.49) rotate(180)"/><g class="cls-14"><path d="M229,159.71A28.17,28.17,0,0,1,229,149a28,28,0,0,1,0,10.71Z"/><path d="M225.72,159.71a28.17,28.17,0,0,1,0-10.71,28,28,0,0,1,0,10.71Z"/><path d="M212.2,159.71a28,28,0,0,1,0-10.71,28.17,28.17,0,0,1,0,10.71Z"/><path d="M209.07,159.71a28.17,28.17,0,0,1,0-10.71,28,28,0,0,1,0,10.71Z"/><path d="M203.33,159.71a28.17,28.17,0,0,1,0-10.71,28,28,0,0,1,0,10.71Z"/><path d="M214.81,159.71a28,28,0,0,1,0-10.71,28.17,28.17,0,0,1,0,10.71Z"/><path d="M237.09,159.71a28,28,0,0,1,0-10.71,28.17,28.17,0,0,1,0,10.71Z"/><path d="M221.42,159.71a28,28,0,0,1,0-10.71,28.17,28.17,0,0,1,0,10.71Z"/><path d="M219.16,159.71a28.17,28.17,0,0,1,0-10.71,28,28,0,0,1,0,10.71Z"/><path d="M195.85,159.71a28.17,28.17,0,0,1,0-10.71,28,28,0,0,1,0,10.71Z"/><path d="M192.47,159.71a28.17,28.17,0,0,1,0-10.71,28,28,0,0,1,0,10.71Z"/><path d="M200.67,159.71a28,28,0,0,1,0-10.71,28.17,28.17,0,0,1,0,10.71Z"/><path d="M231.61,159.71a28,28,0,0,1,0-10.71,28.17,28.17,0,0,1,0,10.71Z"/></g><polygon class="cls-12" points="189.75 160.93 189.75 158.09 250.29 156.18 250.29 160.93 189.75 160.93"/><rect class="cls-9" x="189.75" y="107.42" width="60.54" height="13.38" transform="translate(440.04 228.22) rotate(180)"/><g class="cls-14"><path d="M192.47,108.87a27.91,27.91,0,0,1,0,10.7,28.11,28.11,0,0,1,0-10.7Z"/><path d="M197,108.87a28.11,28.11,0,0,1,0,10.7,28.11,28.11,0,0,1,0-10.7Z"/><path d="M199.18,108.87a27.91,27.91,0,0,1,0,10.7,28.11,28.11,0,0,1,0-10.7Z"/><path d="M211.27,108.87a27.91,27.91,0,0,1,0,10.7,28.11,28.11,0,0,1,0-10.7Z"/><path d="M214.55,108.87a28.11,28.11,0,0,1,0,10.7,27.91,27.91,0,0,1,0-10.7Z"/><path d="M228.07,108.87a27.91,27.91,0,0,1,0,10.7,28.11,28.11,0,0,1,0-10.7Z"/><path d="M231.2,108.87a28.11,28.11,0,0,1,0,10.7,27.91,27.91,0,0,1,0-10.7Z"/><path d="M236.94,108.87a28.11,28.11,0,0,1,0,10.7,27.91,27.91,0,0,1,0-10.7Z"/><path d="M225.46,108.87a28.11,28.11,0,0,1,0,10.7,27.91,27.91,0,0,1,0-10.7Z"/><path d="M203.18,108.87a28.11,28.11,0,0,1,0,10.7,27.91,27.91,0,0,1,0-10.7Z"/><path d="M218.85,108.87a28.11,28.11,0,0,1,0,10.7,27.91,27.91,0,0,1,0-10.7Z"/><path d="M221.1,108.87a27.91,27.91,0,0,1,0,10.7,28.11,28.11,0,0,1,0-10.7Z"/><path d="M239.6,108.87a28.11,28.11,0,0,1,0,10.7,28.11,28.11,0,0,1,0-10.7Z"/><path d="M208.66,108.87a27.91,27.91,0,0,1,0,10.7,28.11,28.11,0,0,1,0-10.7Z"/></g><polygon class="cls-12" points="189.75 120.8 189.75 117.96 250.29 116.05 250.29 120.8 189.75 120.8"/><path class="cls-9" d="M173,181.34c39.85,7.15,29.33,66.19-10.59,59S133.1,174.18,173,181.34Z"/><path class="cls-12" d="M173,181.34c39.85,7.15,29.33,66.19-10.59,59S133.1,174.18,173,181.34Z"/><path class="cls-9" d="M169.28,180.67c38,6.81,27.45,65.85-10.59,59S131.24,173.84,169.28,180.67Z"/><path class="cls-12" d="M139.89,211.57c.21,10.52,6.33,20.71,19.7,23.11,31.57,5.66,40.31-43.34,8.79-49a6.17,6.17,0,0,0-.62-.1c29.56,5.92,21.09,52.29-9,46.88C146.47,230.27,140.55,221.19,139.89,211.57Z"/><g class="cls-14"><path d="M167.27,191.81A1,1,0,0,1,168,193l-.41,1.62a13.55,13.55,0,0,1,6.5,4.64,1.15,1.15,0,0,1,.34,1.07,1.07,1.07,0,0,1-1.31.75,1,1,0,0,1-.66-.46,11.85,11.85,0,0,0-5.42-4.15l-2.82,11.34c5.83,2.83,7.85,5.79,6.86,9.76-1.08,4.29-5.44,6.43-10.54,5.33l-.79,3.16a1,1,0,1,1-1.94-.49l.79-3.2a15.71,15.71,0,0,1-8.13-6.2,1.1,1.1,0,0,1-.23-1,1.09,1.09,0,0,1,1.26-.76,1,1,0,0,1,.66.46,13.48,13.48,0,0,0,7,5.66L162,209c-5.74-2.85-7.7-5.7-6.69-9.75s5.36-6.32,10.34-5.21l.38-1.54A1,1,0,0,1,167.27,191.81ZM162.53,207l2.76-11.06c-3.95-.9-7.12.8-7.85,3.72C156.75,202.4,157.62,204.42,162.53,207Zm1.17,2.91-2.79,11.18c4.07.93,7.29-.76,8.06-3.84C169.67,214.44,168.67,212.38,163.7,209.89Z"/></g><path class="cls-11" d="M152.16,115.76c14.64,13.76,43.25-1.06,57.88,12.71a155.26,155.26,0,0,0-1.65-19.61c-15.2-4.48-36.41,3.33-48.56-7.4Z"/><path class="cls-9" d="M173.88,114.93c-.7,2.82,2.61,5.17,7.51,5s8.82-2.35,8.86-5.1-3.37-4.87-7.6-4.8S174.57,112.14,173.88,114.93Z"/><path class="cls-9" d="M195.6,114.63c0,.65,1,1.23,2.18,1.35s2-.29,2-1-1-1.35-2.14-1.43S195.57,114,195.6,114.63Z"/><path class="cls-9" d="M164.88,113.23c-.25.65.42,1.43,1.52,1.66s2.21-.16,2.42-.8-.52-1.32-1.58-1.55S165.13,112.58,164.88,113.23Z"/><path class="cls-9" d="M207,108.49a162.18,162.18,0,0,1,1.69,18.8c.46.37.92.76,1.36,1.18a155.43,155.43,0,0,0-1.65-19.61C207.93,108.73,207.46,108.6,207,108.49Z"/><path class="cls-9" d="M152.16,115.76c.44.41.9.81,1.37,1.17L161,102.39c-.38-.29-.76-.6-1.13-.93Z"/><path class="cls-9" d="M152.64,114.86l-.48.9c14.64,13.76,43.25-1.06,57.88,12.71l0-1.37C195.24,114.11,167.13,128.42,152.64,114.86Z"/><path class="cls-9" d="M159.83,101.46l-.48.9c12.3,10.91,34,2.72,49.2,7.62-.05-.38-.11-.75-.16-1.12C193.19,104.38,172,112.19,159.83,101.46Z"/><path class="cls-9" d="M205.34,124a20.7,20.7,0,0,1,3.29,2c0-.95-.09-1.89-.14-2.81C206.74,122.09,205.25,122.63,205.34,124Z"/><path class="cls-9" d="M155,114l-1,2a20.58,20.58,0,0,0,3.24,2.06C157.76,116.92,156.68,115.28,155,114Z"/><path class="cls-9" d="M163.19,105a21,21,0,0,1-2.7-1.74c-.34.68-.69,1.35-1,2C160.93,106.45,162.67,106.18,163.19,105Z"/><path class="cls-9" d="M207.47,112c-.1-.82-.21-1.63-.32-2.43-1.05-.28-2.12-.5-3.21-.68C204.11,110.13,205.73,111.43,207.47,112Z"/><path class="cls-11" d="M182.75,111.46c0,.1,0,.21,0,.32,1.93,0,3.28.61,3.22,1.47s-1.13,1.35-3.64,1.68l-.3,2.43a9.49,9.49,0,0,0,3.41-.85.78.78,0,0,1,.31-.07c.22,0,.42.1.41.21s-.08.13-.2.18a11.4,11.4,0,0,1-3.94.92c0,.22,0,.45-.08.67s-.22.21-.45.21-.4-.08-.39-.19l.09-.67c-2.15,0-3.55-.62-3.38-1.54s1.29-1.32,3.84-1.63c.11-.8.21-1.6.32-2.4a8.14,8.14,0,0,0-2.47.58.68.68,0,0,1-.29.06c-.23,0-.4-.1-.38-.22s.11-.14.26-.2a9.15,9.15,0,0,1,2.9-.61c0-.11,0-.23.05-.34s.2-.21.4-.21S182.77,111.35,182.75,111.46Zm2.35,1.78c.05-.62-.92-1.08-2.47-1.07-.09.77-.19,1.55-.28,2.33C184.5,114.19,185.05,113.81,185.1,113.24Zm-6.48,3c-.11.65.9,1.14,2.62,1.12.1-.79.21-1.57.31-2.36C179.36,115.32,178.72,115.67,178.62,116.27Z"/><path class="cls-11" d="M186.73,96.07c10.61-11.94,29.72-6.39,40.34-18.33-2.83-2.33-5.75-4.85-8.74-7.51-9.92,7.07-24.31,5-34,12.5C185.08,87.07,185.87,91.51,186.73,96.07Z"/><path class="cls-9" d="M198.51,83c.84,2,4.19,3,7.56,2.3s5-3,3.72-4.88-4.63-2.93-7.56-2.32S197.66,81,198.51,83Z"/><path class="cls-9" d="M213.28,79.17a1.9,1.9,0,0,0,2,.26c.79-.3,1.14-.91.8-1.32a2,2,0,0,0-2-.2C213.34,78.19,213,78.74,213.28,79.17Z"/><path class="cls-9" d="M192,85c.14.5.88.62,1.67.31s1.31-.93,1.14-1.41-.93-.66-1.69-.36S191.83,84.47,192,85Z"/><path class="cls-9" d="M217.42,70.85c3,2.77,5.84,5.43,8.66,7.93.34-.33.67-.68,1-1-2.83-2.33-5.75-4.85-8.74-7.51C218,70.44,217.73,70.65,217.42,70.85Z"/><path class="cls-9" d="M186.73,96.07c.32-.36.65-.71,1-1q-1.32-6.61-2.5-13c-.3.21-.6.43-.89.66C185.08,87.07,185.87,91.51,186.73,96.07Z"/><path class="cls-9" d="M186.57,95.21c.05.29.1.57.16.86,10.61-11.94,29.72-6.39,40.34-18.33l-.54-.44C215.93,88.87,197.14,83.59,186.57,95.21Z"/><path class="cls-9" d="M184.33,82.73c0,.27.09.55.14.82,9.77-7.78,24.43-5.5,34.43-12.82l-.57-.5C208.41,77.3,194,75.18,184.33,82.73Z"/><path class="cls-9" d="M223.22,80.23a21.1,21.1,0,0,0,2.33-1.93l-1.19-1.06C223.14,78.34,222.58,79.57,223.22,80.23Z"/><path class="cls-9" d="M187.19,92.37l.36,1.83a22,22,0,0,1,2.32-1.93C189.66,91.33,188.41,91.26,187.19,92.37Z"/><path class="cls-9" d="M187.45,81.54c-.71.41-1.4.85-2.08,1.33l.33,1.77C186.84,83.79,187.66,82.48,187.45,81.54Z"/><path class="cls-9" d="M219.2,72.51,218,71.37c-.69.45-1.4.86-2.12,1.24A2.74,2.74,0,0,0,219.2,72.51Z"/><path class="cls-11" d="M203,79.12l.12.24c1.35-.27,2.58,0,3,.61s-.14,1.11-1.74,1.68c.32.59.63,1.18.95,1.76a4.28,4.28,0,0,0,2-1,.29.29,0,0,1,.18-.09.42.42,0,0,1,.39.08c0,.06,0,.11-.06.16a5.24,5.24,0,0,1-2.31,1.18l.27.49c0,.08-.06.17-.21.21s-.33,0-.37-.09l-.25-.48c-1.5.29-2.77.06-3.09-.61s.27-1.14,1.89-1.71l-.91-1.74a3.75,3.75,0,0,0-1.45.77.4.4,0,0,1-.17.09c-.16,0-.32,0-.36-.1s0-.11.08-.18a4.38,4.38,0,0,1,1.73-.86,2,2,0,0,1-.13-.25c-.05-.08,0-.17.18-.2A.34.34,0,0,1,203,79.12Zm2.49.95c-.26-.44-1.17-.64-2.24-.43.31.56.61,1.13.91,1.69C205.5,80.83,205.71,80.49,205.47,80.07Zm-3.09,3c.24.48,1.18.67,2.36.43l-.9-1.71C202.45,82.32,202.17,82.67,202.38,83.1Z"/></svg>