<svg id="Слой_1" data-name="Слой 1" xmlns="http://www.w3.org/2000/svg" xmlns:xlink="http://www.w3.org/1999/xlink" viewBox="0 0 240 240"><defs><style>.cls-1{fill:none;}.cls-2{clip-path:url(#clip-path);}.cls-3{fill:#ececec;}.cls-4{fill:#dcdcdc;}.cls-5{fill:#a8a8a8;}.cls-6{fill:#c8c8c8;}.cls-7{fill:#fff;}.cls-8{fill:#306;}.cls-9{fill:#ffc800;}.cls-10{opacity:0.2;}.cls-11,.cls-12{opacity:0.3;}.cls-13{opacity:0.1;}</style><clipPath id="clip-path"><rect class="cls-1" x="-4.56" y="-5.22" width="261" height="251"/></clipPath></defs><g class="cls-2"><path class="cls-3" d="M99.25,19.62c4.64,0,82.64.52,87.54.36.36,0,.54-.53.19-.7-3.09-1.53-6.59-1.22-9.8-2.31a10.33,10.33,0,0,1-4.36-3.29A9.19,9.19,0,0,0,168.76,11a8.61,8.61,0,0,0-4.42-.13,36.91,36.91,0,0,0-4.47,1.85c-3.75,1.42-7.39.07-10.06-2.7-2.21-2.29-4.38-4.44-7.38-5.67a9.74,9.74,0,0,0-7.81-.11c-2.86,1.29-4.83,3.9-7.51,5.47-3.19,1.86-7,1.42-10.52,2s-6.22,3.53-9.31,5.23A6.52,6.52,0,0,1,103.92,18c-.69,0-1.37-.21-2-.29a2.8,2.8,0,0,0-2.78.78C98.91,18.71,99,19.62,99.25,19.62Z"/><path class="cls-3" d="M-15.62,67c3.39,0,60.34.38,63.92.26a.27.27,0,0,0,.13-.51c-2.25-1.12-4.81-.89-7.16-1.68a7.69,7.69,0,0,1-3.18-2.4,6.66,6.66,0,0,0-3-1.94,6.32,6.32,0,0,0-3.23-.1A29.83,29.83,0,0,0,28.64,62a6.68,6.68,0,0,1-7.35-2,16.12,16.12,0,0,0-5.38-4.14,7.18,7.18,0,0,0-5.71-.08c-2.09.95-3.52,2.85-5.48,4C2.39,61.12-.39,60.8-3,61.21S-7.5,63.79-9.75,65a4.71,4.71,0,0,1-2.46.76c-.5,0-1-.15-1.5-.21a2.05,2.05,0,0,0-2,.58C-15.87,66.31-15.84,67-15.62,67Z"/><path class="cls-3" d="M184.39,65.39c3.39,0,60.34.37,63.92.26.25,0,.39-.39.14-.51-2.26-1.12-4.82-.9-7.16-1.69a7.55,7.55,0,0,1-3.19-2.4,6.54,6.54,0,0,0-3-1.93,6.21,6.21,0,0,0-3.23-.1,26.34,26.34,0,0,0-3.26,1.35,6.73,6.73,0,0,1-7.35-2,16,16,0,0,0-5.38-4.14,7.13,7.13,0,0,0-5.71-.08c-2.09.94-3.52,2.85-5.48,4-2.33,1.36-5.11,1-7.68,1.45s-4.54,2.57-6.79,3.82a4.81,4.81,0,0,1-2.46.76,14.84,14.84,0,0,1-1.49-.21,2,2,0,0,0-2,.57C184.15,64.72,184.17,65.39,184.39,65.39Z"/><path class="cls-3" d="M-58.83,97.21c.07.19,89.76,0,88.63,0-.52,0,.78-.77.28-1-2.92-1.45-6.12-1.49-9.3-1.78a14.35,14.35,0,0,1-5.43-1.32c-1.69-.89-2.74-2.42-3.94-3.84A16.87,16.87,0,0,0-3.91,83.44c-6.37,1-11.4,5.86-17.79,6.75-3.84.54-7.47-.94-11.22-1.47a13.83,13.83,0,0,0-8.42,1.54,16,16,0,0,1-6.18,2c-1.76.12-3.52-.08-5.28-.1a11.86,11.86,0,0,0-7.77,3.11C-60.85,95.53-61.76,97.21-58.83,97.21Z"/><rect class="cls-4" x="133.38" y="47.01" width="37.06" height="194.27"/><rect class="cls-3" x="139.13" y="53.32" width="7.2" height="7.42"/><rect class="cls-3" x="148.35" y="53.32" width="7.2" height="7.42"/><rect class="cls-3" x="139.13" y="65.91" width="7.2" height="7.42"/><rect class="cls-3" x="148.35" y="65.91" width="7.2" height="7.42"/><rect class="cls-3" x="139.13" y="78.51" width="7.2" height="7.42"/><rect class="cls-3" x="148.35" y="78.51" width="7.2" height="7.42"/><rect class="cls-3" x="139.13" y="91.1" width="7.2" height="7.42"/><rect class="cls-3" x="148.35" y="91.1" width="7.2" height="7.42"/><rect class="cls-3" x="139.13" y="103.7" width="7.2" height="7.42"/><rect class="cls-3" x="148.35" y="103.7" width="7.2" height="7.42"/><rect class="cls-3" x="139.13" y="116.29" width="7.2" height="7.42"/><rect class="cls-3" x="148.35" y="116.29" width="7.2" height="7.42"/><rect class="cls-3" x="139.13" y="128.88" width="7.2" height="7.42"/><rect class="cls-3" x="148.35" y="128.88" width="7.2" height="7.42"/><rect class="cls-3" x="139.13" y="141.48" width="7.2" height="7.42"/><rect class="cls-3" x="148.35" y="141.48" width="7.2" height="7.42"/><rect class="cls-3" x="139.13" y="154.07" width="7.2" height="7.42"/><rect class="cls-3" x="148.35" y="154.07" width="7.2" height="7.42"/><rect class="cls-3" x="139.13" y="166.67" width="7.2" height="7.42"/><rect class="cls-3" x="148.35" y="166.67" width="7.2" height="7.42"/><rect class="cls-3" x="139.13" y="179.26" width="7.2" height="7.42"/><rect class="cls-3" x="148.35" y="179.26" width="7.2" height="7.42"/><rect class="cls-3" x="139.13" y="191.85" width="7.2" height="7.42"/><rect class="cls-3" x="148.35" y="191.85" width="7.2" height="7.42"/><rect class="cls-3" x="139.13" y="204.45" width="7.2" height="7.42"/><rect class="cls-3" x="148.35" y="204.45" width="7.2" height="7.42"/><rect class="cls-3" x="139.13" y="217.04" width="7.2" height="7.42"/><rect class="cls-3" x="157.48" y="217.04" width="7.2" height="7.42" transform="translate(322.17 441.5) rotate(180)"/><rect class="cls-3" x="157.48" y="204.45" width="7.2" height="7.42" transform="translate(322.17 416.31) rotate(180)"/><rect class="cls-3" x="157.48" y="191.85" width="7.2" height="7.42" transform="translate(322.17 391.12) rotate(180)"/><rect class="cls-3" x="157.48" y="179.26" width="7.2" height="7.42" transform="translate(322.17 365.94) rotate(180)"/><rect class="cls-3" x="157.48" y="166.67" width="7.2" height="7.42" transform="translate(322.17 340.75) rotate(180)"/><rect class="cls-3" x="157.48" y="154.07" width="7.2" height="7.42" transform="translate(322.17 315.56) rotate(180)"/><rect class="cls-3" x="157.48" y="141.48" width="7.2" height="7.42" transform="translate(322.17 290.37) rotate(180)"/><rect class="cls-3" x="157.48" y="128.88" width="7.2" height="7.42" transform="translate(322.17 265.18) rotate(180)"/><rect class="cls-3" x="157.48" y="116.29" width="7.2" height="7.42" transform="translate(322.17 240) rotate(180)"/><rect class="cls-3" x="157.48" y="103.7" width="7.2" height="7.42" transform="translate(322.17 214.81) rotate(180)"/><rect class="cls-3" x="157.48" y="91.1" width="7.2" height="7.42" transform="translate(322.17 189.62) rotate(180)"/><rect class="cls-3" x="157.48" y="78.51" width="7.2" height="7.42" transform="translate(322.17 164.43) rotate(180)"/><rect class="cls-3" x="157.48" y="65.91" width="7.2" height="7.42" transform="translate(322.17 139.25) rotate(180)"/><rect class="cls-3" x="157.48" y="53.32" width="7.2" height="7.42" transform="translate(322.17 114.06) rotate(180)"/><rect class="cls-3" x="148.35" y="217.04" width="7.2" height="7.42"/><rect class="cls-5" x="170.44" y="47.01" width="29.22" height="194.27"/><rect class="cls-6" x="190.7" y="217.04" width="5.95" height="7.42" transform="translate(387.34 441.5) rotate(180)"/><rect class="cls-6" x="183.09" y="217.04" width="5.95" height="7.42" transform="translate(372.12 441.5) rotate(180)"/><rect class="cls-6" x="190.7" y="204.45" width="5.95" height="7.42" transform="translate(387.34 416.31) rotate(180)"/><rect class="cls-6" x="183.09" y="204.45" width="5.95" height="7.42" transform="translate(372.12 416.31) rotate(180)"/><rect class="cls-6" x="190.7" y="191.85" width="5.95" height="7.42" transform="translate(387.34 391.12) rotate(180)"/><rect class="cls-6" x="183.09" y="191.85" width="5.95" height="7.42" transform="translate(372.12 391.12) rotate(180)"/><rect class="cls-6" x="190.7" y="179.26" width="5.95" height="7.42" transform="translate(387.34 365.94) rotate(180)"/><rect class="cls-6" x="183.09" y="179.26" width="5.95" height="7.42" transform="translate(372.12 365.94) rotate(180)"/><rect class="cls-6" x="190.7" y="166.67" width="5.95" height="7.42" transform="translate(387.34 340.75) rotate(180)"/><rect class="cls-6" x="183.09" y="166.67" width="5.95" height="7.42" transform="translate(372.12 340.75) rotate(180)"/><rect class="cls-6" x="190.7" y="154.07" width="5.95" height="7.42" transform="translate(387.34 315.56) rotate(180)"/><rect class="cls-6" x="183.09" y="154.07" width="5.95" height="7.42" transform="translate(372.12 315.56) rotate(180)"/><rect class="cls-6" x="190.7" y="141.48" width="5.95" height="7.42" transform="translate(387.34 290.37) rotate(180)"/><rect class="cls-6" x="183.09" y="141.48" width="5.95" height="7.42" transform="translate(372.12 290.37) rotate(180)"/><rect class="cls-6" x="190.7" y="128.88" width="5.95" height="7.42" transform="translate(387.34 265.18) rotate(180)"/><rect class="cls-6" x="183.09" y="128.88" width="5.95" height="7.42" transform="translate(372.12 265.18) rotate(180)"/><rect class="cls-6" x="190.7" y="116.29" width="5.95" height="7.42" transform="translate(387.34 240) rotate(180)"/><rect class="cls-6" x="183.09" y="116.29" width="5.95" height="7.42" transform="translate(372.12 240) rotate(180)"/><rect class="cls-6" x="190.7" y="103.7" width="5.95" height="7.42" transform="translate(387.34 214.81) rotate(180)"/><rect class="cls-6" x="183.09" y="103.7" width="5.95" height="7.42" transform="translate(372.12 214.81) rotate(180)"/><rect class="cls-6" x="190.7" y="91.1" width="5.95" height="7.42" transform="translate(387.34 189.62) rotate(180)"/><rect class="cls-6" x="183.09" y="91.1" width="5.95" height="7.42" transform="translate(372.12 189.62) rotate(180)"/><rect class="cls-6" x="190.7" y="78.51" width="5.95" height="7.42" transform="translate(387.34 164.43) rotate(180)"/><rect class="cls-6" x="183.09" y="78.51" width="5.95" height="7.42" transform="translate(372.12 164.43) rotate(180)"/><rect class="cls-6" x="190.7" y="65.91" width="5.95" height="7.42" transform="translate(387.34 139.25) rotate(180)"/><rect class="cls-6" x="183.09" y="65.91" width="5.95" height="7.42" transform="translate(372.12 139.25) rotate(180)"/><rect class="cls-6" x="190.7" y="53.32" width="5.95" height="7.42" transform="translate(387.34 114.06) rotate(180)"/><rect class="cls-6" x="175.54" y="53.32" width="5.95" height="7.42"/><rect class="cls-6" x="175.54" y="65.91" width="5.95" height="7.42"/><rect class="cls-6" x="175.54" y="78.51" width="5.95" height="7.42"/><rect class="cls-6" x="175.54" y="91.1" width="5.95" height="7.42"/><rect class="cls-6" x="175.54" y="103.7" width="5.95" height="7.42"/><rect class="cls-6" x="175.54" y="116.29" width="5.95" height="7.42"/><rect class="cls-6" x="175.54" y="128.88" width="5.95" height="7.42"/><rect class="cls-6" x="175.54" y="141.48" width="5.95" height="7.42"/><rect class="cls-6" x="175.54" y="154.07" width="5.95" height="7.42"/><rect class="cls-6" x="175.54" y="166.67" width="5.95" height="7.42"/><rect class="cls-6" x="175.54" y="179.26" width="5.95" height="7.42"/><rect class="cls-6" x="175.54" y="191.85" width="5.95" height="7.42"/><rect class="cls-6" x="175.54" y="204.45" width="5.95" height="7.42"/><rect class="cls-6" x="175.54" y="217.04" width="5.95" height="7.42"/><rect class="cls-6" x="183.09" y="53.32" width="5.95" height="7.42" transform="translate(372.12 114.06) rotate(180)"/><rect class="cls-3" x="14.34" y="31.94" width="44.61" height="209.34"/><rect class="cls-6" x="13.26" y="27.77" width="45.69" height="4.17"/><rect class="cls-7" x="18.37" y="38.09" width="4.52" height="203.2"/><rect class="cls-7" x="26.38" y="38.09" width="4.52" height="203.2"/><rect class="cls-7" x="34.38" y="38.09" width="4.52" height="203.2"/><rect class="cls-7" x="42.39" y="38.09" width="4.52" height="203.2"/><rect class="cls-7" x="50.4" y="38.09" width="4.52" height="203.2"/><rect class="cls-3" x="18.37" y="43.35" width="4.52" height="8.23"/><rect class="cls-3" x="26.38" y="43.35" width="4.52" height="8.23"/><rect class="cls-3" x="34.38" y="43.35" width="4.52" height="8.23"/><rect class="cls-3" x="42.39" y="43.35" width="4.52" height="8.23"/><rect class="cls-3" x="50.4" y="43.35" width="4.52" height="8.23"/><rect class="cls-3" x="18.37" y="56.73" width="4.52" height="8.23"/><rect class="cls-3" x="26.38" y="56.73" width="4.52" height="8.23"/><rect class="cls-3" x="34.38" y="56.73" width="4.52" height="8.23"/><rect class="cls-3" x="42.39" y="56.73" width="4.52" height="8.23"/><rect class="cls-3" x="50.4" y="56.73" width="4.52" height="8.23"/><rect class="cls-3" x="18.37" y="70.1" width="4.52" height="8.23"/><rect class="cls-3" x="26.38" y="70.1" width="4.52" height="8.23"/><rect class="cls-3" x="34.38" y="70.1" width="4.52" height="8.23"/><rect class="cls-3" x="42.39" y="70.1" width="4.52" height="8.23"/><rect class="cls-3" x="50.4" y="70.1" width="4.52" height="8.23"/><rect class="cls-3" x="18.37" y="83.47" width="4.52" height="8.23"/><rect class="cls-3" x="26.38" y="83.47" width="4.52" height="8.23"/><rect class="cls-3" x="34.38" y="83.47" width="4.52" height="8.23"/><rect class="cls-3" x="42.39" y="83.47" width="4.52" height="8.23"/><rect class="cls-3" x="50.4" y="83.47" width="4.52" height="8.23"/><rect class="cls-3" x="18.37" y="96.85" width="4.52" height="8.23"/><rect class="cls-3" x="26.38" y="96.85" width="4.52" height="8.23"/><rect class="cls-3" x="34.38" y="96.85" width="4.52" height="8.23"/><rect class="cls-3" x="42.39" y="96.85" width="4.52" height="8.23"/><rect class="cls-3" x="50.4" y="96.85" width="4.52" height="8.23"/><rect class="cls-3" x="18.37" y="110.22" width="4.52" height="8.23"/><rect class="cls-3" x="26.38" y="110.22" width="4.52" height="8.23"/><rect class="cls-3" x="34.38" y="110.22" width="4.52" height="8.23"/><rect class="cls-3" x="42.39" y="110.22" width="4.52" height="8.23"/><rect class="cls-3" x="50.4" y="110.22" width="4.52" height="8.23"/><rect class="cls-3" x="18.37" y="123.6" width="4.52" height="8.23"/><rect class="cls-3" x="26.38" y="123.6" width="4.52" height="8.23"/><rect class="cls-3" x="34.38" y="123.6" width="4.52" height="8.23"/><rect class="cls-3" x="42.39" y="123.6" width="4.52" height="8.23"/><rect class="cls-3" x="50.4" y="123.6" width="4.52" height="8.23"/><rect class="cls-3" x="18.37" y="136.97" width="4.52" height="8.23"/><rect class="cls-3" x="26.38" y="136.97" width="4.52" height="8.23"/><rect class="cls-3" x="34.38" y="136.97" width="4.52" height="8.23"/><rect class="cls-3" x="42.39" y="136.97" width="4.52" height="8.23"/><rect class="cls-3" x="50.4" y="136.97" width="4.52" height="8.23"/><rect class="cls-3" x="18.37" y="150.34" width="4.52" height="8.23"/><rect class="cls-3" x="26.38" y="150.34" width="4.52" height="8.23"/><rect class="cls-3" x="34.38" y="150.34" width="4.52" height="8.23"/><rect class="cls-3" x="42.39" y="150.34" width="4.52" height="8.23"/><rect class="cls-3" x="50.4" y="150.34" width="4.52" height="8.23"/><rect class="cls-3" x="18.37" y="163.72" width="4.52" height="8.23"/><rect class="cls-3" x="26.38" y="163.72" width="4.52" height="8.23"/><rect class="cls-3" x="34.38" y="163.72" width="4.52" height="8.23"/><rect class="cls-3" x="42.39" y="163.72" width="4.52" height="8.23"/><rect class="cls-3" x="50.4" y="163.72" width="4.52" height="8.23"/><rect class="cls-3" x="18.37" y="177.09" width="4.52" height="8.23"/><rect class="cls-3" x="26.38" y="177.09" width="4.52" height="8.23"/><rect class="cls-3" x="34.38" y="177.09" width="4.52" height="8.23"/><rect class="cls-3" x="42.39" y="177.09" width="4.52" height="8.23"/><rect class="cls-3" x="50.4" y="177.09" width="4.52" height="8.23"/><rect class="cls-3" x="18.37" y="190.46" width="4.52" height="8.23"/><rect class="cls-3" x="26.38" y="190.46" width="4.52" height="8.23"/><rect class="cls-3" x="34.38" y="190.46" width="4.52" height="8.23"/><rect class="cls-3" x="42.39" y="190.46" width="4.52" height="8.23"/><rect class="cls-3" x="50.4" y="190.46" width="4.52" height="8.23"/><rect class="cls-3" x="18.37" y="203.84" width="4.52" height="8.23"/><rect class="cls-3" x="26.38" y="203.84" width="4.52" height="8.23"/><rect class="cls-3" x="34.38" y="203.84" width="4.52" height="8.23"/><rect class="cls-3" x="42.39" y="203.84" width="4.52" height="8.23"/><rect class="cls-3" x="50.4" y="203.84" width="4.52" height="8.23"/><rect class="cls-3" x="18.37" y="217.21" width="4.52" height="24.07"/><rect class="cls-3" x="26.38" y="217.21" width="4.52" height="24.07"/><rect class="cls-3" x="34.38" y="217.21" width="4.52" height="24.07"/><rect class="cls-3" x="42.39" y="217.21" width="4.52" height="24.07"/><rect class="cls-3" x="50.4" y="217.21" width="4.52" height="24.07"/><rect class="cls-4" x="58.95" y="31.94" width="28.64" height="209.34"/><rect class="cls-6" x="58.95" y="27.77" width="29.88" height="4.17"/><rect class="cls-6" x="62.99" y="38.09" width="4.52" height="203.2"/><rect class="cls-6" x="70.99" y="38.09" width="4.52" height="203.2"/><rect class="cls-6" x="79" y="38.09" width="4.52" height="203.2"/><rect class="cls-4" x="62.99" y="43.35" width="4.52" height="8.23"/><rect class="cls-4" x="70.99" y="43.35" width="4.52" height="8.23"/><rect class="cls-4" x="79" y="43.35" width="4.52" height="8.23"/><rect class="cls-4" x="62.99" y="56.73" width="4.52" height="8.23"/><rect class="cls-4" x="70.99" y="56.73" width="4.52" height="8.23"/><rect class="cls-4" x="79" y="56.73" width="4.52" height="8.23"/><rect class="cls-4" x="62.99" y="70.1" width="4.52" height="8.23"/><rect class="cls-4" x="70.99" y="70.1" width="4.52" height="8.23"/><rect class="cls-4" x="79" y="70.1" width="4.52" height="8.23"/><rect class="cls-4" x="62.99" y="83.47" width="4.52" height="8.23"/><rect class="cls-4" x="70.99" y="83.47" width="4.52" height="8.23"/><rect class="cls-4" x="79" y="83.47" width="4.52" height="8.23"/><rect class="cls-4" x="62.99" y="96.85" width="4.52" height="8.23"/><rect class="cls-4" x="70.99" y="96.85" width="4.52" height="8.23"/><rect class="cls-4" x="79" y="96.85" width="4.52" height="8.23"/><rect class="cls-4" x="62.99" y="110.22" width="4.52" height="8.23"/><rect class="cls-4" x="70.99" y="110.22" width="4.52" height="8.23"/><rect class="cls-4" x="79" y="110.22" width="4.52" height="8.23"/><rect class="cls-4" x="62.99" y="123.6" width="4.52" height="8.23"/><rect class="cls-4" x="70.99" y="123.6" width="4.52" height="8.23"/><rect class="cls-4" x="79" y="123.6" width="4.52" height="8.23"/><rect class="cls-4" x="62.99" y="136.97" width="4.52" height="8.23"/><rect class="cls-4" x="70.99" y="136.97" width="4.52" height="8.23"/><rect class="cls-4" x="79" y="136.97" width="4.52" height="8.23"/><rect class="cls-4" x="62.99" y="150.34" width="4.52" height="8.23"/><rect class="cls-4" x="70.99" y="150.34" width="4.52" height="8.23"/><rect class="cls-4" x="79" y="150.34" width="4.52" height="8.23"/><rect class="cls-4" x="62.99" y="163.72" width="4.52" height="8.23"/><rect class="cls-4" x="70.99" y="163.72" width="4.52" height="8.23"/><rect class="cls-4" x="79" y="163.72" width="4.52" height="8.23"/><rect class="cls-4" x="62.99" y="177.09" width="4.52" height="8.23"/><rect class="cls-4" x="70.99" y="177.09" width="4.52" height="8.23"/><rect class="cls-4" x="79" y="177.09" width="4.52" height="8.23"/><rect class="cls-4" x="62.99" y="190.46" width="4.52" height="8.23"/><rect class="cls-4" x="70.99" y="190.46" width="4.52" height="8.23"/><rect class="cls-4" x="79" y="190.46" width="4.52" height="8.23"/><rect class="cls-4" x="62.99" y="203.84" width="4.52" height="8.23"/><rect class="cls-4" x="70.99" y="203.84" width="4.52" height="8.23"/><rect class="cls-4" x="79" y="203.84" width="4.52" height="8.23"/><rect class="cls-4" x="62.99" y="217.21" width="4.52" height="24.07"/><rect class="cls-4" x="70.99" y="217.21" width="4.52" height="24.07"/><rect class="cls-4" x="79" y="217.21" width="4.52" height="24.07"/><rect class="cls-4" x="201.79" y="104.57" width="19.58" height="23.13"/><rect class="cls-6" x="221.38" y="104.57" width="12.42" height="23.98"/><rect class="cls-4" x="222.3" y="114.78" width="12.32" height="13.77"/><rect class="cls-6" x="234.62" y="114.78" width="7.69" height="13.77"/><rect class="cls-3" x="194.28" y="126.2" width="31.67" height="115.08"/><rect class="cls-7" x="197.9" y="131.15" width="9.96" height="4.07"/><rect class="cls-7" x="210.64" y="131.15" width="9.96" height="4.07"/><rect class="cls-7" x="197.9" y="138.05" width="9.96" height="4.07"/><rect class="cls-7" x="210.64" y="138.05" width="9.96" height="4.07"/><rect class="cls-7" x="197.9" y="144.96" width="9.96" height="4.07"/><rect class="cls-7" x="210.64" y="144.96" width="9.96" height="4.07"/><rect class="cls-7" x="197.9" y="151.87" width="9.96" height="4.07"/><rect class="cls-7" x="210.64" y="151.87" width="9.96" height="4.07"/><rect class="cls-7" x="197.9" y="158.78" width="9.96" height="4.07"/><rect class="cls-7" x="210.64" y="158.78" width="9.96" height="4.07"/><rect class="cls-7" x="197.9" y="165.68" width="9.96" height="4.07"/><rect class="cls-7" x="210.64" y="165.68" width="9.96" height="4.07"/><rect class="cls-7" x="197.9" y="172.59" width="9.96" height="4.07"/><rect class="cls-7" x="210.64" y="172.59" width="9.96" height="4.07"/><rect class="cls-7" x="197.9" y="179.5" width="9.96" height="4.07"/><rect class="cls-7" x="210.64" y="179.5" width="9.96" height="4.07"/><rect class="cls-7" x="197.9" y="186.41" width="9.96" height="4.07"/><rect class="cls-7" x="210.64" y="186.41" width="9.96" height="4.07"/><rect class="cls-7" x="197.9" y="193.31" width="9.96" height="4.07"/><rect class="cls-7" x="210.64" y="193.31" width="9.96" height="4.07"/><rect class="cls-7" x="197.9" y="200.22" width="9.96" height="4.07"/><rect class="cls-7" x="210.64" y="200.22" width="9.96" height="4.07"/><rect class="cls-7" x="197.9" y="207.13" width="9.96" height="4.07"/><rect class="cls-7" x="210.64" y="207.13" width="9.96" height="4.07"/><rect class="cls-7" x="197.9" y="214.04" width="9.96" height="4.07"/><rect class="cls-7" x="210.64" y="214.04" width="9.96" height="4.07"/><rect class="cls-7" x="197.9" y="220.94" width="9.96" height="4.07"/><rect class="cls-7" x="210.64" y="220.94" width="9.96" height="4.07"/><rect class="cls-6" x="225.95" y="126.2" width="25.66" height="115.08"/><rect class="cls-3" x="230.4" y="220.94" width="8.18" height="4.07" transform="translate(468.98 445.96) rotate(180)"/><rect class="cls-3" x="230.4" y="214.04" width="8.18" height="4.07" transform="translate(468.98 432.14) rotate(180)"/><rect class="cls-3" x="230.4" y="207.13" width="8.18" height="4.07" transform="translate(468.98 418.33) rotate(180)"/><rect class="cls-3" x="230.4" y="200.22" width="8.18" height="4.07" transform="translate(468.98 404.51) rotate(180)"/><rect class="cls-3" x="230.4" y="193.31" width="8.18" height="4.07" transform="translate(468.98 390.7) rotate(180)"/><rect class="cls-3" x="230.4" y="186.41" width="8.18" height="4.07" transform="translate(468.98 376.88) rotate(180)"/><rect class="cls-3" x="230.4" y="179.5" width="8.18" height="4.07" transform="translate(468.98 363.07) rotate(180)"/><rect class="cls-3" x="230.4" y="172.59" width="8.18" height="4.07" transform="translate(468.98 349.25) rotate(180)"/><rect class="cls-3" x="230.4" y="165.68" width="8.18" height="4.07" transform="translate(468.98 335.44) rotate(180)"/><rect class="cls-3" x="230.4" y="158.78" width="8.18" height="4.07" transform="translate(468.98 321.62) rotate(180)"/><rect class="cls-3" x="230.4" y="151.87" width="8.18" height="4.07" transform="translate(468.98 307.81) rotate(180)"/><rect class="cls-3" x="230.4" y="144.96" width="8.18" height="4.07" transform="translate(468.98 293.99) rotate(180)"/><rect class="cls-3" x="230.4" y="138.05" width="8.18" height="4.07" transform="translate(468.98 280.17) rotate(180)"/><rect class="cls-3" x="230.4" y="131.15" width="8.18" height="4.07" transform="translate(468.98 266.36) rotate(180)"/><rect class="cls-5" x="-10.7" y="166.29" width="26.2" height="74.99"/><rect class="cls-6" x="7.44" y="230.93" width="5.38" height="4.59" transform="translate(20.26 466.45) rotate(180)"/><rect class="cls-6" x="7.44" y="221.12" width="5.38" height="4.59" transform="translate(20.26 446.83) rotate(180)"/><rect class="cls-6" x="7.44" y="211.3" width="5.38" height="4.59" transform="translate(20.26 427.2) rotate(180)"/><rect class="cls-6" x="7.44" y="201.49" width="5.38" height="4.59" transform="translate(20.26 407.57) rotate(180)"/><rect class="cls-6" x="7.44" y="191.68" width="5.38" height="4.59" transform="translate(20.26 387.95) rotate(180)"/><rect class="cls-6" x="7.44" y="181.86" width="5.38" height="4.59" transform="translate(20.26 368.32) rotate(180)"/><rect class="cls-6" x="7.44" y="172.05" width="5.38" height="4.59" transform="translate(20.26 348.69) rotate(180)"/><rect class="cls-6" x="-0.3" y="230.93" width="5.38" height="4.59" transform="translate(4.78 466.45) rotate(180)"/><rect class="cls-6" x="-0.3" y="221.12" width="5.38" height="4.59" transform="translate(4.78 446.83) rotate(180)"/><rect class="cls-6" x="-0.3" y="211.3" width="5.38" height="4.59" transform="translate(4.78 427.2) rotate(180)"/><rect class="cls-6" x="-0.3" y="201.49" width="5.38" height="4.59" transform="translate(4.78 407.57) rotate(180)"/><rect class="cls-6" x="-0.3" y="191.68" width="5.38" height="4.59" transform="translate(4.78 387.95) rotate(180)"/><rect class="cls-6" x="-0.3" y="181.86" width="5.38" height="4.59" transform="translate(4.78 368.32) rotate(180)"/><rect class="cls-6" x="-0.3" y="172.05" width="5.38" height="4.59" transform="translate(4.78 348.69) rotate(180)"/><rect class="cls-6" x="-10.7" y="158.48" width="22.23" height="7.81"/><rect class="cls-4" x="-10.7" y="153.64" width="12.05" height="4.84"/><rect class="cls-8" x="169.32" y="105.02" width="44.38" height="136.26"/><rect class="cls-8" x="180.33" y="91.31" width="33.21" height="13.71"/><rect class="cls-8" x="183.09" y="93.42" width="2.84" height="9.48"/><rect class="cls-8" x="188.06" y="93.42" width="2.84" height="9.48"/><rect class="cls-8" x="193.03" y="93.42" width="2.84" height="9.48"/><rect class="cls-8" x="198" y="93.42" width="2.84" height="9.48"/><rect class="cls-8" x="202.96" y="93.42" width="2.84" height="9.48"/><rect class="cls-8" x="207.93" y="93.42" width="2.84" height="9.48"/><rect class="cls-8" x="213.54" y="91.31" width="15.1" height="13.71"/><rect class="cls-8" x="215.65" y="93.42" width="2.41" height="9.48"/><rect class="cls-8" x="219.88" y="93.42" width="2.41" height="9.48"/><rect class="cls-8" x="224.1" y="93.42" width="2.41" height="9.48"/><rect class="cls-8" x="213.54" y="105.02" width="22.59" height="136.26"/><rect class="cls-7" x="178.41" y="114.4" width="8.19" height="12.54"/><rect class="cls-7" x="195.08" y="114.4" width="8.19" height="12.54"/><rect class="cls-7" x="178.41" y="134.17" width="8.19" height="12.54"/><rect class="cls-7" x="195.08" y="134.17" width="8.19" height="12.54"/><rect class="cls-7" x="178.41" y="153.93" width="8.19" height="12.54"/><rect class="cls-7" x="195.08" y="153.93" width="8.19" height="12.54"/><rect class="cls-7" x="178.41" y="173.7" width="8.19" height="12.54"/><rect class="cls-7" x="195.08" y="173.7" width="8.19" height="12.54"/><rect class="cls-7" x="178.41" y="193.47" width="8.19" height="12.54"/><rect class="cls-7" x="195.08" y="193.47" width="8.19" height="12.54"/><rect class="cls-7" x="178.41" y="213.23" width="8.19" height="12.54"/><rect class="cls-7" x="195.08" y="213.23" width="8.19" height="12.54"/><rect class="cls-7" x="217.68" y="114.4" width="4.71" height="12.54"/><rect class="cls-7" x="227.27" y="114.4" width="4.71" height="12.54"/><rect class="cls-7" x="217.68" y="134.17" width="4.71" height="12.54"/><rect class="cls-7" x="227.27" y="134.17" width="4.71" height="12.54"/><rect class="cls-7" x="217.68" y="153.93" width="4.71" height="12.54"/><rect class="cls-7" x="227.27" y="153.93" width="4.71" height="12.54"/><rect class="cls-7" x="217.68" y="173.7" width="4.71" height="12.54"/><rect class="cls-7" x="227.27" y="173.7" width="4.71" height="12.54"/><rect class="cls-7" x="217.68" y="193.47" width="4.71" height="12.54"/><rect class="cls-7" x="227.27" y="193.47" width="4.71" height="12.54"/><rect class="cls-7" x="217.68" y="213.23" width="4.71" height="12.54"/><rect class="cls-7" x="227.27" y="213.23" width="4.71" height="12.54"/><rect class="cls-9" x="129.63" y="93.4" width="29.25" height="147.88"/><rect class="cls-10" x="129.63" y="93.4" width="29.25" height="147.88"/><rect class="cls-9" x="129.63" y="88.56" width="31" height="4.85" transform="translate(290.26 181.96) rotate(180)"/><rect class="cls-9" x="129.63" y="80.99" width="26.28" height="7.57" transform="translate(285.55 169.55) rotate(180)"/><rect class="cls-10" x="129.63" y="80.99" width="26.28" height="7.57" transform="translate(285.55 169.55) rotate(180)"/><rect class="cls-9" x="129.63" y="64.3" width="20.11" height="16.69" transform="translate(279.37 145.29) rotate(180)"/><rect class="cls-11" x="129.63" y="64.3" width="20.11" height="16.69" transform="translate(279.37 145.29) rotate(180)"/><g class="cls-12"><rect x="132.44" y="99.01" width="3.97" height="15.55"/></g><g class="cls-12"><rect x="132.44" y="120.2" width="3.97" height="15.55"/></g><g class="cls-12"><rect x="132.44" y="141.39" width="3.97" height="15.55"/></g><g class="cls-12"><rect x="132.44" y="162.58" width="3.97" height="15.55"/></g><g class="cls-12"><rect x="132.44" y="183.77" width="3.97" height="15.55"/></g><g class="cls-12"><rect x="132.44" y="204.96" width="3.97" height="15.55"/></g><g class="cls-12"><rect x="139" y="99.01" width="3.97" height="15.55"/></g><g class="cls-12"><rect x="139" y="120.2" width="3.97" height="15.55"/></g><g class="cls-12"><rect x="139" y="141.39" width="3.97" height="15.55"/></g><g class="cls-12"><rect x="139" y="162.58" width="3.97" height="15.55"/></g><g class="cls-12"><rect x="139" y="183.77" width="3.97" height="15.55"/></g><g class="cls-12"><rect x="139" y="204.96" width="3.97" height="15.55"/></g><g class="cls-12"><rect x="145.55" y="99.01" width="3.97" height="15.55"/></g><g class="cls-12"><rect x="145.55" y="120.2" width="3.97" height="15.55"/></g><g class="cls-12"><rect x="145.55" y="141.39" width="3.97" height="15.55"/></g><g class="cls-12"><rect x="145.55" y="162.58" width="3.97" height="15.55"/></g><g class="cls-12"><rect x="145.55" y="183.77" width="3.97" height="15.55"/></g><g class="cls-12"><rect x="145.55" y="204.96" width="3.97" height="15.55"/></g><g class="cls-12"><rect x="152.11" y="99.01" width="3.97" height="15.55"/></g><g class="cls-12"><rect x="152.11" y="120.2" width="3.97" height="15.55"/></g><g class="cls-12"><rect x="152.11" y="141.39" width="3.97" height="15.55"/></g><g class="cls-12"><rect x="152.11" y="162.58" width="3.97" height="15.55"/></g><g class="cls-12"><rect x="152.11" y="183.77" width="3.97" height="15.55"/></g><g class="cls-12"><rect x="152.11" y="204.96" width="3.97" height="15.55"/></g><rect class="cls-9" x="69.68" y="93.4" width="59.96" height="147.88"/><rect class="cls-9" x="72.55" y="80.99" width="57.08" height="7.57"/><rect class="cls-9" x="86.68" y="64.3" width="42.96" height="16.69"/><rect class="cls-10" x="86.68" y="64.3" width="42.96" height="16.69"/><rect class="cls-9" x="67.88" y="88.56" width="61.75" height="4.85"/><rect class="cls-10" x="67.88" y="88.56" width="61.75" height="4.85"/><g class="cls-13"><rect x="75.41" y="99.01" width="8.14" height="15.55"/></g><g class="cls-13"><rect x="75.41" y="120.2" width="8.14" height="15.55"/></g><g class="cls-13"><rect x="75.41" y="141.39" width="8.14" height="15.55"/></g><g class="cls-13"><rect x="75.41" y="162.58" width="8.14" height="15.55"/></g><g class="cls-13"><rect x="75.41" y="183.77" width="8.14" height="15.55"/></g><g class="cls-13"><rect x="75.41" y="204.96" width="8.14" height="15.55"/></g><g class="cls-13"><rect x="88.86" y="99.01" width="8.14" height="15.55"/></g><g class="cls-13"><rect x="88.86" y="120.2" width="8.14" height="15.55"/></g><g class="cls-13"><rect x="88.86" y="141.39" width="8.14" height="15.55"/></g><g class="cls-13"><rect x="88.86" y="162.58" width="8.14" height="15.55"/></g><g class="cls-13"><rect x="88.86" y="183.77" width="8.14" height="15.55"/></g><g class="cls-13"><rect x="88.86" y="204.96" width="8.14" height="15.55"/></g><g class="cls-13"><rect x="102.31" y="99.01" width="8.14" height="15.55"/></g><g class="cls-13"><rect x="102.31" y="120.2" width="8.14" height="15.55"/></g><g class="cls-13"><rect x="102.31" y="141.39" width="8.14" height="15.55"/></g><g class="cls-13"><rect x="102.31" y="162.58" width="8.14" height="15.55"/></g><g class="cls-13"><rect x="102.31" y="183.77" width="8.14" height="15.55"/></g><g class="cls-13"><rect x="102.31" y="204.96" width="8.14" height="15.55"/></g><g class="cls-13"><rect x="115.76" y="99.01" width="8.14" height="15.55"/></g><g class="cls-13"><rect x="115.76" y="120.2" width="8.14" height="15.55"/></g><g class="cls-13"><rect x="115.76" y="141.39" width="8.14" height="15.55"/></g><g class="cls-13"><rect x="115.76" y="162.58" width="8.14" height="15.55"/></g><g class="cls-13"><rect x="115.76" y="183.77" width="8.14" height="15.55"/></g><g class="cls-13"><rect x="115.76" y="204.96" width="8.14" height="15.55"/></g><rect class="cls-11" x="88.86" y="226.62" width="21.59" height="14.66"/><rect class="cls-9" x="189.64" y="156.96" width="29.25" height="84.33"/><rect class="cls-10" x="189.64" y="156.96" width="29.25" height="84.33"/><rect class="cls-9" x="189.64" y="152.11" width="31" height="4.85" transform="translate(410.28 309.06) rotate(180)"/><rect class="cls-9" x="189.64" y="144.54" width="26.28" height="7.57" transform="translate(405.57 296.65) rotate(180)"/><rect class="cls-10" x="189.64" y="144.54" width="26.28" height="7.57" transform="translate(405.57 296.65) rotate(180)"/><g class="cls-12"><rect x="192.45" y="162.56" width="3.97" height="15.55"/></g><g class="cls-12"><rect x="192.45" y="183.75" width="3.97" height="15.55"/></g><g class="cls-12"><rect x="192.45" y="204.94" width="3.97" height="15.55"/></g><g class="cls-12"><rect x="199" y="162.56" width="3.97" height="15.55"/></g><g class="cls-12"><rect x="199" y="183.75" width="3.97" height="15.55"/></g><g class="cls-12"><rect x="199" y="204.94" width="3.97" height="15.55"/></g><g class="cls-12"><rect x="205.56" y="162.56" width="3.97" height="15.55"/></g><g class="cls-12"><rect x="205.56" y="183.75" width="3.97" height="15.55"/></g><g class="cls-12"><rect x="205.56" y="204.94" width="3.97" height="15.55"/></g><g class="cls-12"><rect x="212.12" y="162.56" width="3.97" height="15.55"/></g><g class="cls-12"><rect x="212.12" y="183.75" width="3.97" height="15.55"/></g><g class="cls-12"><rect x="212.12" y="204.94" width="3.97" height="15.55"/></g><rect class="cls-9" x="129.69" y="156.96" width="59.96" height="84.33"/><rect class="cls-9" x="132.56" y="144.54" width="57.08" height="7.57"/><rect class="cls-9" x="127.89" y="152.11" width="61.75" height="4.85"/><rect class="cls-10" x="127.89" y="152.11" width="61.75" height="4.85"/><g class="cls-13"><rect x="135.42" y="162.56" width="8.14" height="15.55"/></g><g class="cls-13"><rect x="135.42" y="183.75" width="8.14" height="15.55"/></g><g class="cls-13"><rect x="135.42" y="204.94" width="8.14" height="15.55"/></g><g class="cls-13"><rect x="148.87" y="162.56" width="8.14" height="15.55"/></g><g class="cls-13"><rect x="148.87" y="183.75" width="8.14" height="15.55"/></g><g class="cls-13"><rect x="148.87" y="204.94" width="8.14" height="15.55"/></g><g class="cls-13"><rect x="162.32" y="162.56" width="8.14" height="15.55"/></g><g class="cls-13"><rect x="162.32" y="183.75" width="8.14" height="15.55"/></g><g class="cls-13"><rect x="162.32" y="204.94" width="8.14" height="15.55"/></g><g class="cls-13"><rect x="175.77" y="162.56" width="8.14" height="15.55"/></g><g class="cls-13"><rect x="175.77" y="183.75" width="8.14" height="15.55"/></g><g class="cls-13"><rect x="175.77" y="204.94" width="8.14" height="15.55"/></g><polygon class="cls-9" points="33.45 241.28 36.31 241.28 35.59 164.2 34.16 164.2 33.45 241.28"/><polygon class="cls-10" points="33.45 241.28 36.31 241.28 35.59 164.2 34.16 164.2 33.45 241.28"/><polygon class="cls-9" points="34.16 164.26 51.27 154.74 51.27 155.21 35.42 164.74 34.16 164.26"/><polygon class="cls-10" points="34.16 164.26 51.27 154.74 51.27 155.21 35.42 164.74 34.16 164.26"/><polygon class="cls-9" points="49.68 154.32 49.88 156.01 57.53 156.01 57.53 153.22 49.68 154.32"/><polygon class="cls-9" points="35.48 164.26 18.37 154.74 18.37 155.21 34.22 164.74 35.48 164.26"/><polygon class="cls-10" points="35.48 164.26 18.37 154.74 18.37 155.21 34.22 164.74 35.48 164.26"/><polygon class="cls-9" points="19.95 154.32 19.76 156.01 12.11 156.01 12.11 153.22 19.95 154.32"/><polygon class="cls-9" points="36.87 241.28 32.89 241.28 33.27 220.5 36.47 220.5 36.87 241.28"/><polygon class="cls-9" points="227.17 241.28 230.03 241.28 229.31 164.2 227.88 164.2 227.17 241.28"/><polygon class="cls-10" points="227.17 241.28 230.03 241.28 229.31 164.2 227.88 164.2 227.17 241.28"/><polygon class="cls-9" points="227.88 164.26 244.99 154.74 244.99 155.21 229.14 164.74 227.88 164.26"/><polygon class="cls-10" points="227.88 164.26 244.99 154.74 244.99 155.21 229.14 164.74 227.88 164.26"/><polygon class="cls-9" points="229.19 164.26 212.09 154.74 212.09 155.21 227.93 164.74 229.19 164.26"/><polygon class="cls-10" points="229.19 164.26 212.09 154.74 212.09 155.21 227.93 164.74 229.19 164.26"/><polygon class="cls-9" points="213.67 154.32 213.48 156.01 205.82 156.01 205.82 153.22 213.67 154.32"/><polygon class="cls-9" points="230.59 241.28 226.61 241.28 226.99 220.5 230.19 220.5 230.59 241.28"/><path class="cls-8" d="M208.4,212.11s7.86,17.46-5,17.47-4.54-18.05-4.54-18.05-3-1.3.47-11.05,5-9.75,6.4-9.75c1.81,0,3.5,4.22,2.27,10.69C208,201.42,212.55,209.49,208.4,212.11Z"/><polygon class="cls-7" points="202.3 241.16 203.51 214.85 204.78 241.16 202.3 241.16"/><polygon class="cls-7" points="203.02 225.89 207.68 220.43 204.03 226.6 203.02 225.89"/><path class="cls-8" d="M159.14,212.11s7.86,17.46-5,17.47-4.53-18.05-4.53-18.05-3-1.3.46-11.05,5-9.75,6.4-9.75c1.81,0,3.5,4.22,2.27,10.69C158.77,201.42,163.3,209.49,159.14,212.11Z"/><polygon class="cls-7" points="153.04 241.16 154.25 214.85 155.52 241.16 153.04 241.16"/><polygon class="cls-7" points="153.76 225.89 158.42 220.43 154.77 226.6 153.76 225.89"/><path class="cls-8" d="M62.56,215.82s-6.85,15.3,4.39,15.29,3.93-15.82,3.93-15.82,2.6-1.15-.42-9.68-4.38-8.53-5.63-8.52c-1.59,0-3.06,3.69-2,9.36C62.86,206.45,58.91,213.53,62.56,215.82Z"/><polygon class="cls-7" points="67.95 241.25 66.85 218.21 65.79 241.26 67.95 241.25"/><polygon class="cls-7" points="67.3 227.87 63.21 223.11 66.42 228.51 67.3 227.87"/><path class="cls-8" d="M166.18,214s-3.66-1.45-6.56,3.61.76,8.6,3.72,6.56c0,0,2.33,4.88,7,3.71a7,7,0,0,0,5.39-4.89s4.12.29,4.24-2.79-2.91-5.8-2.91-5.8-.19-7.67-5.18-7.61S166.18,214,166.18,214Z"/><polygon class="cls-7" points="169.6 241.18 170.62 218.36 171.69 241.17 169.6 241.18"/><polygon class="cls-7" points="170.31 226.91 167.11 220.54 170.94 225.93 170.31 226.91"/></g></svg>