<svg id="Слой_1" data-name="Слой 1" xmlns="http://www.w3.org/2000/svg" viewBox="0 0 240 240"><defs><style>.cls-1{fill:#dcdcdc;}.cls-2{fill:#a8a8a8;}.cls-3{fill:#ffc800;}.cls-4{fill:#c8c8c8;}.cls-5{fill:#ececec;}.cls-6{fill:#306;}.cls-7{fill:#fff;}.cls-8{fill:#1a2e35;}.cls-9{fill:#fb6a55;}.cls-10{opacity:0.1;}</style></defs><polygon class="cls-1" points="166.82 198 17.11 198 24.84 10.17 174.56 10.17 166.82 198"/><path class="cls-1" d="M33.1-9.3H199a0,0,0,0,1,0,0v3a16.51,16.51,0,0,1-16.51,16.51H33.1a8.25,8.25,0,0,1-8.25-8.25V-1A8.25,8.25,0,0,1,33.1-9.3Z" transform="translate(223.81 0.87) rotate(180)"/><path class="cls-2" d="M40.56,10.17V6.82a5.41,5.41,0,0,0-5.41-5.41h0a5.42,5.42,0,0,0-5.42,5.41v3.35Z"/><polygon class="cls-3" points="172.88 221.95 23.16 221.95 29.73 10.17 179.45 10.17 172.88 221.95"/><polygon class="cls-4" points="47.96 221.95 37.13 221.95 29.73 10.17 40.56 10.17 47.96 221.95"/><polygon class="cls-5" points="197.67 221.95 47.96 221.95 40.56 10.17 190.28 10.17 197.67 221.95"/><polygon class="cls-6" points="48.95 63.2 65.91 63.04 82.87 62.95 116.8 62.87 150.74 62.95 167.7 63.04 184.68 63.2 167.72 63.36 150.75 63.45 116.82 63.52 82.89 63.45 65.92 63.35 48.95 63.2"/><polygon class="cls-6" points="49.33 73.59 66.29 73.43 83.25 73.34 117.18 73.27 151.12 73.34 168.09 73.43 185.06 73.59 168.1 73.75 151.14 73.84 117.21 73.92 83.27 73.84 66.3 73.75 49.33 73.59"/><polygon class="cls-6" points="49.72 83.98 66.67 83.83 83.64 83.74 117.57 83.66 151.5 83.73 168.47 83.83 185.44 83.98 168.49 84.14 151.52 84.24 117.59 84.31 83.66 84.23 66.69 84.14 49.72 83.98"/><polygon class="cls-6" points="50.1 94.38 67.06 94.22 84.02 94.13 117.95 94.05 151.89 94.13 168.86 94.22 185.83 94.38 168.87 94.54 151.91 94.63 117.98 94.7 84.04 94.63 67.07 94.54 50.1 94.38"/><polygon class="cls-6" points="50.48 104.77 67.44 104.62 84.41 104.53 118.34 104.45 152.27 104.52 169.24 104.61 186.21 104.77 169.25 104.93 152.29 105.02 118.36 105.1 84.42 105.02 67.45 104.93 50.48 104.77"/><polygon class="cls-6" points="50.87 115.17 67.83 115.01 84.79 114.92 118.72 114.84 152.66 114.92 169.63 115.01 186.6 115.17 169.64 115.33 152.68 115.42 118.75 115.49 84.81 115.42 67.84 115.33 50.87 115.17"/><polygon class="cls-6" points="51.25 125.56 68.21 125.4 85.17 125.31 119.11 125.24 153.04 125.31 170.01 125.4 186.98 125.56 170.02 125.72 153.06 125.81 119.13 125.89 85.19 125.81 68.22 125.72 51.25 125.56"/><polygon class="cls-6" points="51.64 135.96 68.6 135.8 85.56 135.71 119.49 135.63 153.43 135.71 170.4 135.8 187.37 135.96 170.41 136.12 153.44 136.21 119.51 136.28 85.58 136.21 68.61 136.12 51.64 135.96"/><polygon class="cls-6" points="52.02 146.35 68.98 146.19 85.94 146.1 119.87 146.03 153.81 146.1 170.78 146.19 187.75 146.35 170.79 146.51 153.83 146.6 119.9 146.68 85.96 146.6 68.99 146.51 52.02 146.35"/><polygon class="cls-6" points="52.41 156.75 69.36 156.59 86.33 156.5 120.26 156.42 154.19 156.5 171.16 156.59 188.13 156.75 171.18 156.91 154.21 157 120.28 157.07 86.35 157 69.38 156.9 52.41 156.75"/><polygon class="cls-6" points="52.79 167.14 69.75 166.98 86.71 166.89 120.64 166.81 154.58 166.89 171.55 166.98 188.52 167.14 171.56 167.3 154.6 167.39 120.67 167.47 86.73 167.39 69.76 167.3 52.79 167.14"/><polygon class="cls-6" points="53.17 177.53 70.13 177.38 87.1 177.28 121.03 177.21 154.96 177.28 171.93 177.38 188.9 177.53 171.94 177.69 154.98 177.78 121.05 177.86 87.11 177.78 70.15 177.69 53.17 177.53"/><polygon class="cls-6" points="53.56 187.93 70.52 187.77 87.48 187.68 121.41 187.6 155.35 187.68 172.32 187.77 189.29 187.93 172.33 188.09 155.37 188.18 121.44 188.25 87.5 188.18 70.53 188.09 53.56 187.93"/><polygon class="cls-6" points="53.94 198.32 70.9 198.16 87.87 198.07 121.8 198 155.73 198.07 172.7 198.16 189.67 198.32 172.71 198.48 155.75 198.57 121.82 198.65 87.88 198.57 70.91 198.48 53.94 198.32"/><polygon class="cls-6" points="54.33 208.72 71.29 208.56 88.25 208.47 122.18 208.39 156.12 208.47 173.09 208.56 190.06 208.72 173.1 208.88 156.13 208.97 122.2 209.04 88.27 208.97 71.3 208.88 54.33 208.72"/><polygon class="cls-3" points="165.24 10.17 166 36.65 166.86 63.13 168.59 116.08 170.56 169.02 171.54 195.49 172.64 221.95 171.89 195.47 171.02 169 169.29 116.05 167.32 63.11 166.34 36.64 165.24 10.17"/><polygon class="cls-2" points="37.9 10.17 38.44 29.24 39.05 48.31 40.3 86.45 41.72 124.58 42.43 143.64 43.22 162.7 42.69 143.63 42.07 124.56 40.82 86.43 39.4 48.3 38.69 29.23 37.9 10.17"/><polygon class="cls-2" points="35.91 10.17 36.64 34.95 37.46 59.73 39.1 109.29 40.92 158.84 41.84 183.62 42.83 208.39 42.09 183.61 41.27 158.83 39.63 109.27 37.81 59.72 36.9 34.95 35.91 10.17"/><polygon class="cls-2" points="33.92 10.17 34.55 31.97 35.26 53.77 36.7 97.36 38.31 140.95 39.12 162.74 40.01 184.53 39.37 162.74 38.66 140.94 37.23 97.34 35.62 53.76 34.81 31.96 33.92 10.17"/><polygon class="cls-2" points="31.93 10.17 32.5 30.37 33.16 50.56 34.48 90.95 35.98 131.33 36.73 151.52 37.57 171.71 36.99 151.51 36.33 131.32 35.01 90.93 33.51 50.55 32.76 30.36 31.93 10.17"/><path class="cls-6" d="M87.12,58.44a58.73,58.73,0,0,0-7.14.43c-1.18.09-2.37.23-3.53.21A33.42,33.42,0,0,1,73,58.62a44.58,44.58,0,0,0-7.14-.79,18.07,18.07,0,0,0-3.59.36,10.07,10.07,0,0,0-3.36,1.23,11.31,11.31,0,0,1,3.41-.94,19.92,19.92,0,0,1,3.53-.16,70.93,70.93,0,0,1,7,1,29.59,29.59,0,0,0,3.59.44,28.16,28.16,0,0,0,3.6-.33l3.54-.52C84.76,58.71,85.93,58.52,87.12,58.44Z"/><path class="cls-6" d="M160.12,59.15a60.82,60.82,0,0,1-7.14-.44c-1.18-.09-2.37-.23-3.53-.21A31,31,0,0,0,146,59a45.74,45.74,0,0,1-7.14.78,17.34,17.34,0,0,1-3.59-.35,10.31,10.31,0,0,1-3.36-1.24,11.31,11.31,0,0,0,3.41.94,19.92,19.92,0,0,0,3.53.16,70.89,70.89,0,0,0,7-1,27.72,27.72,0,0,1,3.59-.45,30.09,30.09,0,0,1,3.6.33l3.54.53C157.76,58.87,158.93,59.06,160.12,59.15Z"/><path class="cls-6" d="M161.67,70.21a56.15,56.15,0,0,1-5.66.28c-1.88,0-3.77.06-5.66,0s-3.77,0-5.64-.25-3.76-.38-5.65-.53-3.79-.22-5.7-.19a27.46,27.46,0,0,0-2.86.19c-1,.14-1.87.35-2.8.48-1.86.28-3.74.48-5.62.65s-3.77.34-5.65.5a107.7,107.7,0,0,0,11.34-.61c1-.1,1.9-.29,2.8-.41a26,26,0,0,1,2.8-.16c1.88,0,3.76.1,5.64.25s3.76.3,5.65.46a47,47,0,0,0,5.69.16c1.9,0,3.79-.12,5.68-.24.94-.07,1.89-.14,2.83-.23A20.42,20.42,0,0,0,161.67,70.21Z"/><path class="cls-6" d="M106.81,71.38c-3.8-.44-7.62-.76-11.45-.92-1.92-.09-3.84-.1-5.77,0-1,.05-1.94.2-2.87.3s-1.9.18-2.85.26c-3.8.34-7.63.54-11.44.68-1,0-1.91.07-2.86,0l-2.86-.15c-1.91-.08-3.82-.18-5.74-.24,1.9.22,3.81.39,5.72.58l2.86.26c1,.07,1.93.06,2.89.06,3.83,0,7.66-.23,11.49-.52.95-.09,1.91-.18,2.86-.3s1.9-.27,2.84-.32c1.89-.13,3.8-.11,5.71-.1s3.82.08,5.74.15Z"/><path class="cls-6" d="M161.67,81.15a46.28,46.28,0,0,1-5.76-.48L150.15,80c-1-.1-1.92-.21-2.91-.22s-2,.06-2.92.13c-1.94.16-3.86.37-5.78.59s-3.83.49-5.75.76a45.68,45.68,0,0,1-5.73.51c-3.85.18-7.71.1-11.57,0a91.46,91.46,0,0,0,11.59.61,46.89,46.89,0,0,0,5.8-.45l5.74-.74c1.92-.24,3.83-.47,5.75-.64,1-.08,1.92-.16,2.86-.16s1.91.09,2.87.16l5.78.47c1,.07,1.92.13,2.89.17A18.71,18.71,0,0,0,161.67,81.15Z"/><path class="cls-6" d="M161.11,99.81q-3.27.54-6.57.87c-2.19.23-4.4.41-6.6.5a88.13,88.13,0,0,1-13.2-.31l-3.29-.4a28.93,28.93,0,0,0-3.35-.12c-2.22,0-4.44.15-6.64.34s-4.41.41-6.61.62-4.4.46-6.6.61c4.42,0,8.84-.45,13.25-.69,2.2-.1,4.41-.24,6.6-.24a29.77,29.77,0,0,1,3.28.15l3.29.43a82.06,82.06,0,0,0,13.3.15A86.7,86.7,0,0,0,161.11,99.81Z"/><path class="cls-6" d="M97.22,102.46c-2.84-.46-5.69-.8-8.56-1.07a49.92,49.92,0,0,0-8.65-.22c-2.88.23-5.73.69-8.56,1-1.4.1-2.86.08-4.29.13s-2.87.1-4.3.18c2.88.13,5.72.25,8.63.23,1.45-.06,2.87-.27,4.3-.42s2.85-.3,4.27-.4a55.61,55.61,0,0,1,8.56.06Z"/><path class="cls-6" d="M161.67,110.56c-6.8.19-13.5-1.25-20.38-1-3.4.3-6.76.8-10.13,1.24l-2.52.33-1.26.14c-.41,0-.82,0-1.24,0-1.68,0-3.38-.16-5.07-.28-3.39-.23-6.77-.53-10.19-.65-1.72-.06-3.42.05-5.12.15s-3.4.26-5.09.42-3.38.36-5.07.46c-.83.07-1.67,0-2.53,0H90.52c-3.4,0-6.8.11-10.2.22l10.2.13,2.54,0,1.27,0c.44,0,.87,0,1.3,0,1.7-.07,3.4-.23,5.09-.36,3.38-.24,6.78-.56,10.14-.47s6.77.47,10.16.71c1.7.11,3.39.23,5.11.25a11.54,11.54,0,0,0,1.31,0l1.28-.15,2.53-.34c3.36-.47,6.73-1,10.09-1.34a29.36,29.36,0,0,1,5,0l5.09.3c1.7.1,3.4.19,5.1.26A32,32,0,0,0,161.67,110.56Z"/><path class="cls-6" d="M120.65,131.78a49.5,49.5,0,0,1-6.44-.3l-6.43-.62a55.48,55.48,0,0,0-12.94.45,21.16,21.16,0,0,1-3.17.19c-1.07,0-2.14-.09-3.22-.14-2.15-.11-4.3-.24-6.46-.28-1.08,0-2.16,0-3.24,0a23.59,23.59,0,0,0-3.24.2c-2.13.33-4.27.52-6.42.71,2.16,0,4.31-.16,6.46-.37a22.77,22.77,0,0,1,3.2-.09c1.07,0,2.15.07,3.22.12l6.45.38c1.07.06,2.14.13,3.23.18a22.18,22.18,0,0,0,3.27-.17c2.15-.28,4.26-.57,6.4-.67a57.3,57.3,0,0,1,6.42,0C112,131.63,116.35,132.17,120.65,131.78Z"/><path class="cls-6" d="M190.87,158.36c2.81-2.75,6.43-6.07,10.72-4.89,4,1.12,5.59,5.53,6.31,9.2.93,4.73,1.65,9.51,2.41,14.27s1.47,9.62,2.16,14.44q.59,4.08,1.16,8.17c.19,1.36.38,2.72.56,4.08s.41,2.67.49,4c0,.43-.65.49-.75.08-.52-2.26-.73-4.62-1.07-6.93s-.67-4.63-1-6.95q-1-6.9-2.06-13.8t-2.14-13.79c-.63-3.89-.92-8.73-4.37-11.3a6.68,6.68,0,0,0-6.46-.61,19.46,19.46,0,0,0-5.87,4.11C190.9,158.5,190.82,158.41,190.87,158.36Z"/><path class="cls-6" d="M194.71,155.55s5.74-2.06,8.57,2.12-.56,14.84-26.67,20.84a73.66,73.66,0,0,1,6.28-23.61C188.49,142.69,198.47,147.32,194.71,155.55Z"/><path class="cls-7" d="M178.11,176.77a20.15,20.15,0,0,1,1.31-2.12c.44-.67.88-1.34,1.33-2,.33-.5.67-1,1-1.49,0-.12,0-.25-.05-.38l-.09-.67c-.06-.49-.14-1-.21-1.47s-.15-1-.24-1.46a8.17,8.17,0,0,0-.35-1.54c0-.07.11-.11.12,0a5.2,5.2,0,0,0,.23.86l.18.66.36,1.5q.15.69.27,1.38c0,.23.07.45.1.67.46-.66.94-1.32,1.43-2,1.38-1.82,2.85-3.58,4.37-5.3l0,0a47.38,47.38,0,0,0-.67-8.16c0-.08.09-.12.11,0a27.81,27.81,0,0,1,1,7.8l1.65-1.81c1.28-1.36,2.57-2.71,3.9-4,.05,0,.13,0,.08.08-2.2,2.37-4.29,4.84-6.32,7.35a44.74,44.74,0,0,1,4.77.18c1.77.13,3.53.36,5.29.6.07,0,.05.13,0,.11a49.25,49.25,0,0,0-5.29-.47c-1.7-.07-3.39,0-5.1,0-1.1,1.37-2.18,2.74-3.26,4.13h1.45c.79,0,1.59.07,2.38.14a37.36,37.36,0,0,1,4.82.72c.07,0,0,.13,0,.12-1.61-.18-3.22-.33-4.83-.39-.77,0-1.54,0-2.31,0h-1.2a1.43,1.43,0,0,1-.66-.07c-.7.92-1.41,1.83-2.1,2.75-.56.73-1.1,1.46-1.64,2.2s-1.05,1.59-1.66,2.3C178.16,176.89,178.08,176.83,178.11,176.77Z"/><path class="cls-7" d="M192.21,161.48a17.45,17.45,0,0,1,2.8-.13c.93,0,1.86,0,2.79.06a.06.06,0,1,1,0,.11c-1-.06-1.89-.08-2.84-.07s-1.83.1-2.74.08A0,0,0,0,1,192.21,161.48Z"/><path class="cls-7" d="M184,163.59c-.11-.89-.22-1.79-.41-2.67a.06.06,0,1,1,.11,0c.13.88.31,1.75.44,2.63.06.44.12.88.17,1.32a5.78,5.78,0,0,1,.11,1.24.08.08,0,0,1-.15,0,7.24,7.24,0,0,1-.14-1.24C184.11,164.44,184.07,164,184,163.59Z"/><path class="cls-7" d="M185.73,153.71c.23.86.46,1.74.62,2.63q.12.66.21,1.35a5.3,5.3,0,0,1,.09,1.32,0,0,0,0,1-.07,0,7.53,7.53,0,0,1-.21-1.26c-.06-.43-.12-.86-.2-1.3-.16-.91-.32-1.81-.55-2.71A.06.06,0,1,1,185.73,153.71Z"/><path class="cls-6" d="M219.74,206.68c.15-1.65.31-3.29.48-4.93.34-3.26.74-6.5,1.18-9.74s.85-6.48,1.37-9.7a24.57,24.57,0,0,1,1-4.4,4.19,4.19,0,0,1,2.44-2.75c3.08-1.06,5.15,2.13,6.39,4.38a.06.06,0,0,1-.1.06c-.75-1.07-2.8-4.07-5.13-3.93-1.57.1-2.83,1.21-3.58,5.12-1.87,9.74-3.57,29.52-3.76,30.81-.11.69-.59.66-.6-.08C219.41,209.91,219.6,208.29,219.74,206.68Z"/><path class="cls-6" d="M231.76,178.33s-2.69-9.49,3.25-4.74c9.89,7.89,10.24,25.06,10.24,25.06s-17.57-10.2-19.76-16.93C222.24,171.69,231.76,178.33,231.76,178.33Z"/><path class="cls-7" d="M228.43,183c1.38.28,2.78.47,4.17.67l2,.28,1.35.15c-1.31-1.8-2.63-3.59-3.89-5.43,0-.08.06-.15.12-.09A41.53,41.53,0,0,1,235.1,182c.25-.74.52-1.47.77-2.2s.62-1.7.84-2.57a.06.06,0,1,1,.11,0c-.24.87-.41,1.76-.64,2.63s-.48,1.67-.78,2.49c.65.84,1.26,1.69,1.86,2.56.31-.86.68-1.69,1-2.56a.06.06,0,0,1,.11,0c-.32,1-.49,2-.78,2.94.4.58.8,1.17,1.19,1.77.71,1.1,1.38,2.21,2,3.34a.26.26,0,0,1,.16.26c1.11,1.92,2.16,3.87,3.2,5.84,0,.06-.06.12-.1.05-1-1.94-2.2-3.83-3.41-5.69h0a2.59,2.59,0,0,0-.58-.11l-.6-.13c-.46-.1-.91-.22-1.36-.33-.89-.22-1.77-.43-2.68-.59-.07,0,0-.12,0-.11,1.06.2,2.13.32,3.2.45.51.06,1,.12,1.52.2h.07q-.94-1.44-1.92-2.85c-.64-.93-1.29-1.84-1.95-2.75-.61-.09-1.21-.25-1.82-.37l-2-.39c-1.36-.27-2.71-.58-4.08-.8C228.33,183.08,228.36,183,228.43,183Z"/><path class="cls-7" d="M239,183.92c.09-.25.16-.5.24-.76a12.33,12.33,0,0,0,.4-1.59c0-.07.13,0,.12,0-.12.53-.24,1.07-.37,1.6a10.58,10.58,0,0,1-.45,1.58.11.11,0,0,1-.21-.06C238.8,184.45,238.91,184.19,239,183.92Z"/><path class="cls-7" d="M226.64,180.79c.8.12,1.61.18,2.41.25s1.61.18,2.42.3c0,0,0,.07,0,.07-.81-.06-1.62-.12-2.42-.22s-1.61-.23-2.42-.28C226.56,180.9,226.56,180.78,226.64,180.79Z"/><path class="cls-6" d="M206.81,194.67c.32-7,.76-13.95,1.46-20.91.35-3.46.74-6.92,1.23-10.37a74.31,74.31,0,0,1,2-10,19.31,19.31,0,0,1,3.34-7.08,7.59,7.59,0,0,1,6.75-2.94c3.06.37,5.52,2.3,7.65,4.39,2.39,2.35,4.57,4.91,6.78,7.42.56.64,1.12,1.27,1.67,1.92.05.05,0,.14-.09.08-2.16-2.49-4.4-4.9-6.76-7.21-2.17-2.13-4.41-4.46-7.41-5.34a7.65,7.65,0,0,0-4.32-.1,6.87,6.87,0,0,0-2.94,1.86,15.39,15.39,0,0,0-3.32,6.46c-1.88,6.42-2.55,13.15-3.25,19.78s-1.19,13.48-1.53,20.25-.6,13.6-1.26,20.38c-.08.84-.19,1.67-.29,2.5-.07.56-.94.56-.9,0C206.18,208.7,206.5,201.69,206.81,194.67Z"/><path class="cls-6" d="M229.62,148.48s-4-7.38.73-9.75,20.48,15.24,25.09,41c0,0-25.47-11.26-34.12-22.49S222.47,143.51,229.62,148.48Z"/><path class="cls-7" d="M225.88,154.48c2.86,0,5.72-.22,8.58-.2l-1.61-1.84a26.26,26.26,0,0,1-2.24-2.6.07.07,0,0,1,.1-.1,20.21,20.21,0,0,1,2.17,2.17l2.14,2.3c1.09,1.18,2.16,2.39,3.23,3.59,0-.12,0-.23,0-.35V156c0-1,0-1.94,0-2.91,0-2,0-3.95-.16-5.91,0-.08.12-.07.12,0,.14,2,.34,3.94.44,5.92.05,1,.07,1.94.08,2.91,0,.5,0,1,0,1.51,0,.27,0,.56,0,.84l.51.56c2.28,2.61,4.45,5.31,6.57,8.06a3.57,3.57,0,0,1,0-.46c0-.3.06-.6.1-.91.07-.65.16-1.31.26-2s.19-1.23.29-1.84.28-1.39.34-2.08c0-.09.13-.07.11,0a20.88,20.88,0,0,0-.24,2.09c-.06.63-.12,1.26-.17,1.89l-.18,1.89-.09.91-.06.46a.73.73,0,0,1-.12.36c.36.47.73.94,1.09,1.42,1.44,1.91,2.86,3.84,4.28,5.77,0,.06,0,.15-.09.09-1.34-1.76-2.72-3.48-4.12-5.18-1,0-2.12,0-3.17-.05s-2.2,0-3.31,0c-.08,0-.07-.12,0-.11l3.32,0c1,0,2-.05,3,0-1.23-1.49-2.48-3-3.72-4.46L242,163.17a6.85,6.85,0,0,1-1.28,0h-1.51l-2.82,0c-1.94,0-3.89-.1-5.83-.1a.06.06,0,0,1,0-.12c1.95,0,3.89-.11,5.84-.16l2.82-.06,1.51,0a8.42,8.42,0,0,1,.87,0l-3.21-3.81a.22.22,0,0,1-.06-.07q-1.56-1.84-3.14-3.68l-.44-.5c-3,.09-5.93-.1-8.89,0A.06.06,0,0,1,225.88,154.48Z"/><path class="cls-7" d="M227.34,159.54h.7c.06,0,.06.1,0,.1h-.69C227.26,159.66,227.27,159.54,227.34,159.54Z"/><path class="cls-7" d="M228.88,159.55c.92,0,1.84,0,2.75-.06l1.38,0a5,5,0,0,1,1.28,0s0,.07,0,.09a5,5,0,0,1-1.28.09l-1.38,0h-2.75C228.8,159.67,228.81,159.55,228.88,159.55Z"/><path class="cls-7" d="M236.89,168.14a38,38,0,0,1,5.63-.5s0,0,0,0c-1.87.17-3.74.28-5.6.58C236.84,168.27,236.82,168.15,236.89,168.14Z"/><path class="cls-6" d="M207.07,139c.91-1.7,2.07-3.94,4.34-3.8,1.88.12,2.73,2,3.13,3.62,1.24,4.9,1.33,10.07,1.57,15.1.51,10.61,1,21.24,1,31.87,0,3,0,5.89,0,8.84s0,6-.21,9a.23.23,0,0,1-.45,0c0-2.57.08-5.14.09-7.71s0-5-.05-7.52q-.12-7.62-.41-15.24c-.18-5-.41-10.09-.62-15.14-.11-2.52-.21-5-.33-7.56s-.21-4.89-.49-7.32c-.16-1.36-.36-2.72-.64-4.06a5.78,5.78,0,0,0-1.18-2.73,2.57,2.57,0,0,0-3.32-.24,7.13,7.13,0,0,0-2.35,2.94A.06.06,0,1,1,207.07,139Z"/><path class="cls-6" d="M207.68,138.19s1.87-6.61-2.26-3.3c-6.89,5.49-7.13,17.46-7.13,17.46s12.24-7.11,13.76-11.8C214.31,133.56,207.68,138.19,207.68,138.19Z"/><path class="cls-7" d="M200.86,147.44c.11-.18.23-.36.35-.54a3.49,3.49,0,0,1,0-.56v-.86l-.06-1.67c0-.08.11-.07.11,0,0,.55.05,1.1.07,1.65l0,.82c0,.1,0,.23,0,.35.48-.75,1-1.48,1.49-2.21.14-.21.3-.42.45-.62a13,13,0,0,0,0-2.16c0-.77,0-1.54-.05-2.3a.06.06,0,0,1,.12,0c0,.8.06,1.6.1,2.39a16.28,16.28,0,0,1,.05,1.71c1.18-1.6,2.43-3.15,3.7-4.7,0-.05.14,0,.09.08-.78,1-1.54,2-2.27,3.05,1.44-.34,2.9-.53,4.36-.75.08,0,.11.11,0,.12-1.55.23-3.07.62-4.6,1h0l-1.74,2.49-.69,1h.06l.48-.07,1-.09c.7-.06,1.41-.1,2.12-.13.07,0,.07.11,0,.11-.69,0-1.38.07-2.08.15l-1.09.13-.48.06-.14,0-1.18,1.73c-.69,1-1.3,2.12-2,3.1-.05.06-.13,0-.1-.05A33.29,33.29,0,0,1,200.86,147.44Z"/><path class="cls-7" d="M203.91,140c0-.26,0-.51,0-.77a10.92,10.92,0,0,0-.06-1.62.06.06,0,1,1,.12,0c0,.53,0,1.07.08,1.6,0,.27,0,.54,0,.8v.37a1,1,0,0,1,0,.39.05.05,0,0,1-.1,0,1.09,1.09,0,0,1,0-.36Z"/><path class="cls-7" d="M205.42,142.72a12.9,12.9,0,0,1,1.38-.14c.51-.05,1-.09,1.51-.16a.06.06,0,1,1,0,.12c-1,.06-1.93.23-2.9.27A0,0,0,0,1,205.42,142.72Z"/><path class="cls-7" d="M201.58,142.76c0,.05,0,.19,0,.25v1.14a.9.9,0,0,1,0,.4,0,0,0,0,1-.05,0,.4.4,0,0,1,0-.19V143a.75.75,0,0,0,0-.26C201.4,142.65,201.66,142.65,201.58,142.76Z"/><path class="cls-6" d="M206.78,174.25c2.57-1.93,4.89-4.71,8.35-4.84,2.86-.12,4.86,2,6,4.43a23.76,23.76,0,0,1,1.4,3.95q.78,2.7,1.46,5.45c.9,3.58,1.67,7.21,2.29,10.85.35,2,.68,4.08.93,6.12a51,51,0,0,1,.6,6.27.32.32,0,0,1-.63.07c-.35-1.71-.5-3.48-.75-5.21s-.52-3.48-.81-5.21q-.88-5.2-2.05-10.35c-.74-3.24-1.47-6.53-2.51-9.68-.75-2.26-1.95-4.9-4.39-5.71-3.72-1.24-7.09,1.91-9.81,4C206.8,174.38,206.72,174.3,206.78,174.25Z"/><path class="cls-6" d="M209.44,172.4s2.38-6.77-1.05-8.1c-5.15-2-18.61,13.17-16,36.4a132.3,132.3,0,0,0,18.08-12.18c7.68-6.44,9.64-14.86,6.26-17S209.44,172.4,209.44,172.4Z"/><path class="cls-7" d="M194,195.72a17.52,17.52,0,0,1,1.25-2.34c.44-.8.89-1.59,1.34-2.37.9-1.53,1.79-3.07,2.7-4.58l.45-.74c0-.09,0-.18-.05-.27l-.16-.67c-.11-.5-.2-1-.29-1.52-.19-1-.36-2-.63-3,0-.07.1-.09.12,0,.21,1,.52,2,.81,3,.15.47.3.95.43,1.43l.13.5c1.11-1.81,2.23-3.61,3.44-5.36a2.49,2.49,0,0,1-.12-.74c0-.34-.07-.68-.11-1-.1-.77-.18-1.53-.3-2.29a44.62,44.62,0,0,0-.81-4.45c0-.07.1-.09.12,0,.37,1.46.77,2.92,1.05,4.41.13.72.26,1.45.36,2.19.05.37.09.73.12,1.1,0,.11,0,.22.05.33.37-.52.74-1,1.13-1.56,1.19-1.56,2.42-3.09,3.67-4.61,0-.06.14,0,.09.07a82.06,82.06,0,0,0-5.85,8.54c-.34.54-.67,1.09-1,1.64l.34,0c.43-.06.87-.08,1.31-.12.87-.09,1.75-.16,2.62-.23,1.76-.14,3.51-.25,5.26-.44.08,0,.1.11,0,.12-1.77.2-3.53.49-5.3.74l-2.6.35a10.07,10.07,0,0,1-2,.2c-.69,1.12-1.38,2.24-2.06,3.36a3.54,3.54,0,0,1,.46,0h2.51l3.38,0c.08,0,.06.12,0,.12-1.14,0-2.28.07-3.43.13l-1.62.1-.81.05a1.74,1.74,0,0,1-.72,0l-1.75,2.85c-.54.88-1.09,1.75-1.64,2.62a21.44,21.44,0,0,1-1.77,2.65C194,195.83,193.94,195.79,194,195.72Z"/><path class="cls-7" d="M198.93,176.94a16.35,16.35,0,0,0,.46,2.21c.19.76.41,1.5.66,2.24a.07.07,0,1,1-.14,0c-.23-.73-.44-1.47-.62-2.21s-.3-1.51-.48-2.26C198.79,176.89,198.92,176.87,198.93,176.94Z"/><path class="cls-7" d="M206.57,181.48a.86.86,0,0,1,.56-.21l1-.13c.6-.09,1.21-.15,1.82-.23,1.27-.14,2.54-.27,3.81-.43.07,0,.09.11,0,.12-1.2.14-2.39.33-3.58.48l-1.76.23-.84.09a3.19,3.19,0,0,0-1,.17C206.57,181.6,206.53,181.52,206.57,181.48Z"/><path class="cls-7" d="M198.94,191.7c.6,0,1.21-.07,1.8-.09l.91,0h.44a2.73,2.73,0,0,0,.57,0c.08,0,.09.13,0,.12a2.35,2.35,0,0,0-.53,0l-.47,0-.91.05c-.6,0-1.2.07-1.8.08C198.88,191.83,198.87,191.7,198.94,191.7Z"/><path class="cls-7" d="M195.28,189.1c-.07-.34-.14-.68-.2-1-.12-.67-.24-1.34-.37-2a.06.06,0,1,1,.12,0c.15.65.29,1.3.44,1.95.07.33.15.66.21,1,0,.15.07.31.1.46a1.29,1.29,0,0,1,0,.48c0,.05-.09.1-.13,0A2.54,2.54,0,0,1,195.28,189.1Z"/><polygon class="cls-6" points="196.66 209.12 197.24 218.72 198.95 247.07 234 247.07 235.71 218.72 236.28 209.12 196.66 209.12"/><polygon class="cls-8" points="196.66 209.12 197.24 218.72 235.71 218.72 236.28 209.12 196.66 209.12"/><rect class="cls-6" x="193.98" y="202.33" width="44.99" height="9.61" transform="translate(432.95 414.26) rotate(-180)"/><path class="cls-9" d="M43.14,240.85S23.62,243.48,22.91,230s19-12.9,19-12.9Z"/><rect class="cls-3" x="98.99" y="156.13" width="23.75" height="138.46" transform="translate(-108.3 348.01) rotate(-93.04)"/><rect class="cls-6" x="29.87" y="226.17" width="27.74" height="5.5" transform="translate(-182.55 284.73) rotate(-93.04)"/><rect class="cls-6" x="35.94" y="225.85" width="27.74" height="5.5" transform="translate(-175.83 290.46) rotate(-93.04)"/><path class="cls-6" d="M179.36,209.82l17.54,8,5.79,2.62-5.48,3.27-16.59,9.83-3.57-2.21s3.27-2.48,3.32-2.54l-3.58-2.21s3.27-2.48,3.32-2.54l-3.57-2.16s3.27-2.53,3.32-2.58l-3.57-2.17s3.27-2.53,3.32-2.58L176,212.4S179.31,209.87,179.36,209.82Z"/><polygon class="cls-3" points="196.9 217.84 202.69 220.46 197.21 223.73 196.9 217.84"/><g class="cls-10"><path d="M171.21,216.81c-36.67,2.61-77.48,4.76-114.25,6.06,36.71-2.59,77.5-4.78,114.25-6.06Z"/></g><g class="cls-10"><path d="M171.6,227.48c-36.67,2.61-77.48,4.76-114.25,6.07,36.7-2.6,77.5-4.78,114.25-6.07Z"/></g><path class="cls-6" d="M86.43,31.65A22.35,22.35,0,1,0,108.77,9.54,22.23,22.23,0,0,0,86.43,31.65Zm11.9,0A10.44,10.44,0,1,1,108.77,42,10.39,10.39,0,0,1,98.33,31.65Z"/><polygon class="cls-6" points="104.48 10.45 113.07 10.45 112.59 4.43 104.95 4.43 104.48 10.45"/><polygon class="cls-6" points="120.83 13.32 126.91 19.33 130.88 14.74 125.47 9.39 120.83 13.32"/><polygon class="cls-6" points="130.35 26.79 130.35 35.3 136.44 34.83 136.44 27.26 130.35 26.79"/><polygon class="cls-6" points="127.46 42.98 121.38 48.99 126.02 52.92 131.42 47.57 127.46 42.98"/><polygon class="cls-6" points="113.84 52.4 105.25 52.4 105.72 58.42 113.37 58.42 113.84 52.4"/><polygon class="cls-6" points="97.49 49.53 91.41 43.52 87.44 48.11 92.85 53.46 97.49 49.53"/><polygon class="cls-6" points="87.97 36.06 87.97 27.56 81.89 28.03 81.89 35.59 87.97 36.06"/><polygon class="cls-6" points="90.86 19.87 96.94 13.86 92.3 9.94 86.9 15.29 90.86 19.87"/><path class="cls-6" d="M166.27,140.36a19.8,19.8,0,0,1-4.07,1.34,7.16,7.16,0,0,1-2.11.15c-.7-.07-1.41-.2-2.11-.34-2.81-.53-5.61-1.18-8.43-1.73a38.25,38.25,0,0,0-4.29-.65,14.85,14.85,0,0,0-4.36.36,39.91,39.91,0,0,0-4.15,1.26,4.07,4.07,0,0,1-1,.22,8.77,8.77,0,0,1-1,0c-.71,0-1.42-.09-2.13-.14l-4.29-.37a22,22,0,0,0-4.37,0c-2.91.51-5.53,1.72-8.31,2.28a10.55,10.55,0,0,1-2.09.24,15.49,15.49,0,0,1-2.1-.23l-4.26-.61c-1.43-.2-2.85-.39-4.27-.56a34.43,34.43,0,0,0-4.3-.33,40.77,40.77,0,0,1,4.27.51c1.42.22,2.83.45,4.25.7l4.24.71a15.32,15.32,0,0,0,2.17.28,11.43,11.43,0,0,0,2.19-.19,36.83,36.83,0,0,0,4.19-1.1,29.26,29.26,0,0,1,4.11-1.07,21.41,21.41,0,0,1,4.23.06l4.28.4c.72.06,1.44.12,2.17.13a8.32,8.32,0,0,0,1.11,0,4.37,4.37,0,0,0,1.12-.26,39.87,39.87,0,0,1,4.08-1.27,14.36,14.36,0,0,1,4.18-.38c1.4.11,2.82.35,4.23.58,2.82.48,5.63,1.06,8.47,1.54.71.1,1.42.21,2.15.26a7.85,7.85,0,0,0,2.17-.23A18.5,18.5,0,0,0,166.27,140.36Z"/></svg>