<svg id="Слой_1" data-name="Слой 1" xmlns="http://www.w3.org/2000/svg" xmlns:xlink="http://www.w3.org/1999/xlink" viewBox="0 0 240 240"><defs><style>.cls-1{fill:none;}.cls-2{clip-path:url(#clip-path);}.cls-3{clip-path:url(#clip-path-2);}.cls-4{fill:#c8c8c8;}.cls-5{fill:#dcdcdc;}.cls-18,.cls-19,.cls-20,.cls-6{fill:#fff;}.cls-7{fill:#306;}.cls-8{fill:#ffc800;}.cls-9{fill:#4a148c;}.cls-10,.cls-17{opacity:0.1;}.cls-11{fill:#ed776a;}.cls-12{fill:#ececec;}.cls-13{opacity:0.3;}.cls-14{fill:#1a2e35;}.cls-15,.cls-20{opacity:0.2;}.cls-16{fill:#ff9abd;}.cls-18{opacity:0.5;}.cls-19{opacity:0.7;}</style><clipPath id="clip-path"><rect class="cls-1" x="255.44" y="-6.22" width="260" height="260"/></clipPath><clipPath id="clip-path-2"><rect class="cls-1" x="-6.5" y="-25.22" width="251.27" height="276" rx="12.93"/></clipPath></defs><g class="cls-3"><rect class="cls-4" x="89.97" y="193.49" width="3.01" height="318.73" transform="translate(182.95 705.71) rotate(180)"/><rect class="cls-5" x="86.96" y="193.49" width="3.01" height="318.73" transform="translate(176.93 705.71) rotate(180)"/><rect class="cls-4" x="31.29" y="167.47" width="3.01" height="344.75" transform="translate(65.58 679.69) rotate(180)"/><rect class="cls-5" x="28.28" y="167.47" width="3.01" height="344.75" transform="translate(59.56 679.69) rotate(180)"/><rect class="cls-5" x="-30.41" y="224.23" width="117.37" height="14.17" transform="translate(56.55 462.62) rotate(180)"/><rect class="cls-5" x="8.2" y="238.4" width="12.03" height="6.43" transform="translate(28.43 483.22) rotate(180)"/><path class="cls-6" d="M198,26.68a32.71,32.71,0,0,1-54.66,20.69L127,49.77l8.19-14.15A32.72,32.72,0,1,1,198,26.68Z"/><path class="cls-7" d="M198,26.68a33,33,0,0,1-6.6,16.58,35.73,35.73,0,0,1-3,3.41A38.42,38.42,0,0,1,185,49.6a33.14,33.14,0,0,1-16.7,6.49,32.89,32.89,0,0,1-4.55.09,29.73,29.73,0,0,1-4.52-.47,33,33,0,0,1-16.19-8l.39.12-16.35,2.51-1.19.19.6-1.05,8.14-14.18,0,.56A33,33,0,0,1,160.82-9.45,32.68,32.68,0,0,1,188.23-.34,32.91,32.91,0,0,1,198,26.68Zm0,0A32.86,32.86,0,0,0,188.09-.2a33.12,33.12,0,0,0-12.62-7.44,32.61,32.61,0,0,0-14.55-1.09,32.09,32.09,0,0,0-13.51,5.34,33.74,33.74,0,0,0-9.79,10.67,32.29,32.29,0,0,0-1.85,28.1l.12.29-.16.27-8.24,14.12-.58-.86,16.38-2.3.23,0,.16.15a32.13,32.13,0,0,0,15.66,8.07,27.75,27.75,0,0,0,4.44.54,30.45,30.45,0,0,0,4.48,0A32,32,0,0,0,177,53.7a30.55,30.55,0,0,0,7.89-4.25,38,38,0,0,0,3.45-2.89,34.14,34.14,0,0,0,3-3.38A32.87,32.87,0,0,0,198,26.68Z"/><polygon class="cls-8" points="161.34 41.93 147.36 27.79 152.06 23.15 160.22 31.41 177.18 4.82 182.74 8.37 161.34 41.93"/><path class="cls-9" d="M168.63,457.65l-60.78-.77s13.22-120,12.77-122.51c-.58-3.24-39.57-156.13-39.57-156.13h52.44s41.37,142.5,42.85,156.23C178.75,356.64,168.63,457.65,168.63,457.65Z"/><path class="cls-7" d="M92.58,190.59c4.69,16.62,9,33.38,13.19,50.13s8.39,33.52,12.57,50.29q3.12,12.57,6.25,25.15c2,8.16,4.39,16.37,4.89,24.8.52,8.58-.57,17.22-1.3,25.76s-1.44,17.16-2.19,25.74c-1.51,17.17-1.78,22.7-3.65,39.83-.23,2.14-.46,4.29-.68,6.43,0,.19-.3.18-.29,0,1.14-17.18,1.16-22.7,2.53-39.86q1-12.87,2.09-25.74c.71-8.57,1.71-17.16,2-25.75s-1.31-17-3.41-25.35q-3.07-12.31-6.16-24.61-6.3-25.16-12.56-50.3c-4.66-18.77-9.31-37.58-13.42-56.48A.08.08,0,0,1,92.58,190.59Z"/><path class="cls-10" d="M81,178.24S97.77,243.83,109.48,290l22.31-111.76Z"/><path class="cls-9" d="M131.8,178.22s-1.53,25.08-7.52,44.88c-.48,1.64-1,3.25-1.56,4.79a93.71,93.71,0,0,0-15.21,7.58S104.89,331.4,105,337.36c.25,22.29-1.95,119.19-1.95,119.19L38.27,456S48.68,344.92,48.7,336.75c0-7.89,3.77-57.71,7.12-100.89,0,0-4.93-13.8-4.39-20.76,1.32-16.89,8.9-36.86,8.9-36.86Z"/><path class="cls-7" d="M119.7,211.9c.2-1.38.41-2.77.62-4.16.4-2.54.91-5.07,1.36-7.6,1-5.75,2.06-11.51,3.34-17.21,0-.14.26-.1.25,0-.23,2.3-.49,4.6-.82,6.88s-.55,4.6-.87,6.89c-.64,4.54-1.28,9.08-2,13.6-.3,1.74-1.38,4.87,1.12,5.41,2,.42,3.44-1.53,4-3.16a39,39,0,0,0,1.33-6.27c.41-2.29.77-4.59,1.1-6.9.7-5,1.48-10,2.3-15,0-.14.25-.1.25,0a152.28,152.28,0,0,1-1.11,15.38c-.33,2.44-.69,4.88-1.11,7.31a25.1,25.1,0,0,1-1.68,6.8,5.5,5.5,0,0,1-4.14,3.33h-.12a.15.15,0,0,1,.07.14c0,.82,0,1.64-.09,2.45s-.25,1.6-.4,2.4a16.45,16.45,0,0,1-.62,2.39,10.34,10.34,0,0,1-.44,1.09,9.65,9.65,0,0,1-.65,1,.15.15,0,0,1-.27-.08h0c0-.14,0-.27,0-.4s0-.05,0-.07h0a5.63,5.63,0,0,1,0-.71c.06-.4.15-.78.24-1.17.17-.77.38-1.54.58-2.31s.38-1.53.57-2.3.47-1.56.65-2.36a.13.13,0,0,1,0-.07,3.62,3.62,0,0,1-3.49-2.2A6.23,6.23,0,0,1,119.7,211.9Z"/><path class="cls-7" d="M103,237.38a43.44,43.44,0,0,1,5.21-3.44,50.6,50.6,0,0,1,5.94-3.08c4-1.74,8.14-2.92,12.28-4.29.12,0,.21.16.08.21-4,1.6-7.84,3.71-11.72,5.6-1.9.94-3.83,1.82-5.77,2.68s-3.88,1.86-5.87,2.59A.16.16,0,0,1,103,237.38Z"/><path class="cls-7" d="M71.74,202.44a34.07,34.07,0,0,0,8.35-1.12c1.26-.32,2.51-.73,3.74-1.13a9.81,9.81,0,0,0,3.37-1.69c1.9-1.64,2.78-4.22,3.61-6.51a63.76,63.76,0,0,0,2.19-7.9c0-.13.22-.09.22,0a30.93,30.93,0,0,1-1.13,9c-.68,2.47-1.6,5.23-3.6,7s-5,2.47-7.66,2.8a35.54,35.54,0,0,1-9.1-.13A.15.15,0,0,1,71.74,202.44Z"/><path class="cls-7" d="M52.14,438.07h0a.68.68,0,0,1-.64-.71L64,234.2c-.16-.94-3.69-12.94-4-19.07-.33-6.48,6.37-31.73,6.65-32.8a.69.69,0,0,1,.83-.48.67.67,0,0,1,.48.82c-.07.26-6.93,26.12-6.61,32.39s4,18.88,4,19-12.5,203.38-12.5,203.38A.68.68,0,0,1,52.14,438.07Z"/><path class="cls-11" d="M102.33,111.61c22.6,10.31,50.94,19.42,57,17.55,14.72-4.54,36.5-18.15,41.72-22.77,3.39-3-15.26-32.32-19.22-29.58-13.22,9.16-24,19.29-26.3,20.28-3.64,1.57-37.35-.89-51.69-.8S88.23,105.18,102.33,111.61Z"/><path class="cls-11" d="M216.26,95.4c-4.74,6-19.22,14.49-23.5,15.2s-19.53-23.45-18-27.63,19-23.16,26.63-24.92S221.16,89.18,216.26,95.4Z"/><path class="cls-11" d="M177.16,79.21s2.94-9.5,2.58-18.25c-.3-7.36-1.57-18.26,2.38-18.57,8.11-.63,11.28,26.54,11.28,26.54s-.52,12.22-8.5,13.56A8,8,0,0,1,177.16,79.21Z"/><path class="cls-11" d="M190.23,63.1c-.5,4,4.52,2.31,4.52,2.31s-6.63,4.21-5.55,8.55,7.06,1.91,7.49,1.75c-.35.22-6.35,4.25-4.81,8.5,1.61,4.42,7.23,1.1,7.6.88-.27.32-3.67,4.56-1.77,7.52C201,97.71,210,87.1,214.89,86.9c0,0,1.28,8.27,1.37,8.5,0,0,8.77-9.92,8.14-16.51A4.24,4.24,0,0,0,220.76,75s3.19-2.88,2.08-6.27C222.27,67,219,66.4,219,66.4S221.43,64,220.26,61c-.93-2.36-4.09-2.62-4.09-2.62s1.28-3.41-.45-5.51C212.24,48.65,191.31,54.5,190.23,63.1Z"/><path class="cls-7" d="M215.68,58.29c.07,0,.07-.12,0-.11a37.65,37.65,0,0,0-21.2,7.3c-.19.15,0,.52.21.4A77,77,0,0,1,215.68,58.29Z"/><path class="cls-7" d="M219.07,66.33a.08.08,0,0,0,0-.15c-7.58.29-16.51,3.37-22.63,9.4-.21.2-.2.6.06.38C200.85,72.26,212.17,67.63,219.07,66.33Z"/><path class="cls-7" d="M199.19,85.66c6.1-5.55,13.36-8.59,21.26-10.63.1,0,.06-.17,0-.17-4.14-.06-9,1.77-12.73,3.52A21.67,21.67,0,0,0,199,85.44C198.91,85.57,199.06,85.77,199.19,85.66Z"/><path class="cls-7" d="M194.62,65.37c-.23.18.29.32.06.51-.94.78-6.22,6-5,8.32,1,1.88,4.17,1.87,5.4,1.39l3.09-1.22-2.48,2.22a13.55,13.55,0,0,0-2.78,3.4,4.88,4.88,0,0,0-.63,3.93,2.78,2.78,0,0,0,2.85,2,8.47,8.47,0,0,0,4-1.39l3.35-2.08-2.47,3a12.31,12.31,0,0,0-1.71,2.77,5.28,5.28,0,0,0-.53,3,2.53,2.53,0,0,0,1.74,2,5.62,5.62,0,0,0,3.07-.42,43,43,0,0,0,6-3.16c1-.57,2-1.15,3-1.68a8.24,8.24,0,0,1,3.27-1.1,8.94,8.94,0,0,0-3.11,1.37c-1,.61-1.93,1.26-2.88,1.91a37.4,37.4,0,0,1-6,3.55,6.53,6.53,0,0,1-3.66.61,3.56,3.56,0,0,1-2.67-2.83,6.42,6.42,0,0,1,.55-3.73A13.64,13.64,0,0,1,199,84.67l.88,1a9.78,9.78,0,0,1-4.68,1.7,4,4,0,0,1-2.61-.77A4.56,4.56,0,0,1,191,84.35a6.13,6.13,0,0,1,.79-5,14.79,14.79,0,0,1,3.12-3.7l.62,1c-1.59.56-5.16,1-7-1.76C186.59,71,193.33,66.17,194.62,65.37Z"/><path class="cls-7" d="M194.75,65.41a8.16,8.16,0,0,1-2.48,0,1.92,1.92,0,0,1-1.49-1.2,3.85,3.85,0,0,1,.15-2.17c.24-.78.54-1.58.88-2.41a6.48,6.48,0,0,0-1.7,2.08,3.77,3.77,0,0,0-.4,2.87,2.71,2.71,0,0,0,1,1.27,2.78,2.78,0,0,0,1.47.43A4.28,4.28,0,0,0,194.75,65.41Z"/><path class="cls-12" d="M144,127.75l7.54-31.11S121.78,95,101.94,96c-16.81.86-17.11,10.91-5.54,15.63C111.61,117.78,144,127.75,144,127.75Z"/><polygon class="cls-5" points="145.74 130.55 154.96 95.98 153.65 96.46 152.66 94.42 151.66 94.78 148.85 94.01 140.77 128.89 142.15 128.39 143.35 130 144.54 129.39 145.74 130.55"/><path class="cls-7" d="M97.79,81.17c-.46-3.94-11.74-18.78-26.18-10.07C57.39,79.68,65,104.26,82.25,101.83,93.85,100.2,98.77,89.54,97.79,81.17Z"/><path class="cls-12" d="M134.3,178.88l-6.92-30.41s7.26-8.8,2.39-19c-2.45-5.17-16.56-27.68-25.49-34-8.37-5.93-18.66,0-22.47,5.25-11,15.2-18.33,45.58-23.15,79Z"/><path class="cls-9" d="M134.29,178.87l-6.92-30.41s7.26-8.79,2.4-19a151.58,151.58,0,0,0-10.55-16.9l-27,1.09s0,7.54-6.18,20.28c-2.67,5.49-16.29,11.19-21.47,13-2.3,10.24-4.24,21.32-5.9,32.77Z"/><path class="cls-7" d="M115.71,144.7a78.15,78.15,0,0,0-11.25,2.08c-1.83.51-3.62,1.1-5.41,1.73-.9.31-1.79.6-2.7.88a12.38,12.38,0,0,1-2.89.6.07.07,0,0,0,0,.14,21.78,21.78,0,0,0,2.8-.11,18.49,18.49,0,0,0,2.66-.56c1.86-.49,3.7-1.08,5.55-1.59,3.75-1.05,7.49-2.09,11.3-2.85C115.94,145,115.89,144.68,115.71,144.7Z"/><path class="cls-7" d="M125.18,147.88a85,85,0,0,0-9.44-.26c-1.58,0-3.14.19-4.71.37-.74.09-1.49.19-2.23.3s-1.63.35-2.45.46c-.08,0-.08.15,0,.14.77-.08,1.57,0,2.35-.07l2.35-.11c1.57-.07,3.14-.12,4.71-.2,3.14-.17,6.27-.31,9.41-.37C125.36,148.14,125.34,147.9,125.18,147.88Z"/><path class="cls-9" d="M119.22,112.58l-2.69.1L104.28,95.47S110.68,99.54,119.22,112.58Z"/><path class="cls-8" d="M55.31,182.67c-.41-.31.19-10.14,1.43-12.69,0,0,25.13,1,45.54.7,15.26-.25,33.44-1.69,33.56-1.27s1.77,10.66,1.49,11.55-24.17,2.27-37.29,2.78S56.66,183.7,55.31,182.67Z"/><path class="cls-13" d="M55.31,182.67c-.41-.31.19-10.14,1.43-12.69,0,0,25.13,1,45.54.7,15.26-.25,33.44-1.69,33.56-1.27s1.77,10.66,1.49,11.55-24.17,2.27-37.29,2.78S56.66,183.7,55.31,182.67Z"/><path class="cls-5" d="M123.66,169.08c-.94-.38-15.53,0-16.28.51-1.27.79-.66,13.56-.33,13.92s16.86-.48,17.32-.86S124.61,169.48,123.66,169.08Zm-1,12.06c-.37.3-13.78,1-14.05.71s-.72-10.14.3-10.75c.61-.36,12.45-.74,13.21-.43S123.06,180.86,122.68,181.14Z"/><rect class="cls-5" x="118.91" y="175.07" width="4.64" height="1.77" transform="translate(-7.11 5.11) rotate(-2.35)"/><path class="cls-7" d="M102.53,177.22a.68.68,0,0,1-1.34.17.69.69,0,0,1,.59-.76A.68.68,0,0,1,102.53,177.22Z"/><path class="cls-7" d="M95.48,177.4a.68.68,0,0,1-.59.76.68.68,0,0,1-.75-.59.68.68,0,1,1,1.34-.17Z"/><path class="cls-11" d="M79.92,99.66c-25.52,20-49.28,55.78-49.46,75.16C30.28,194,36.94,192.09,38.83,192c11.56-.76,37.44-55.08,45.73-76.78S86.23,94.7,79.92,99.66Z"/><path class="cls-12" d="M74.43,148.24,42.67,138S60.39,113.19,78,100.37c13.76-10,14.41.89,9,14.2S74.43,148.24,74.43,148.24Z"/><polygon class="cls-5" points="75.92 151.56 39.97 140.75 41.2 139.83 39.93 137.69 40.86 137 41.85 133.96 77.39 146.01 76.11 146.98 76.86 149.04 75.58 149.77 75.92 151.56"/><path class="cls-14" d="M75.45,145.35a185.05,185.05,0,0,1,9.22-25.83,183.33,183.33,0,0,1-9.22,25.83Z"/><path class="cls-14" d="M84.67,123.38a8.38,8.38,0,0,1-2.93,5,16.14,16.14,0,0,1,2.93-5Z"/><rect class="cls-8" x="99.71" y="140.49" width="68.32" height="52.48" transform="translate(-58.17 260.75) rotate(-77.32)"/><rect class="cls-15" x="99.71" y="140.49" width="68.32" height="52.48" transform="translate(-58.17 260.75) rotate(-77.32)"/><rect class="cls-5" x="128.66" y="129.84" width="24.87" height="7.54" transform="translate(249.62 294.8) rotate(-167.39)"/><polygon class="cls-5" points="135.3 128.45 138.29 129.12 139.05 125.73 146.31 127.35 145.55 130.74 148.54 131.41 149.92 125.23 136.64 122.26 135.3 128.45"/><path class="cls-5" d="M53.63,99.9s13.05-14.73,31.22-5c0,0,3.9,52.16,4.58,55.3s18.44,60.61,18.44,60.61-12.63,10.1-33.51,3.72c0,0-.3-60.05-.76-61.78S53.63,99.9,53.63,99.9Z"/><path class="cls-5" d="M107.87,210.78s-19.79-9.68-33.51,3.72C74.36,214.5,89.89,222.4,107.87,210.78Z"/><path class="cls-8" d="M89.43,150.17c.79-.66-1-.82-1.43-.88a32.87,32.87,0,0,0-11.38,1.08,7.3,7.3,0,0,0-3,1.39.67.67,0,0,0,0,1,.78.78,0,0,1-.24-1.11c2.87-3.39,12-4.19,15.87-2.35.38.17.83.67.2.91Z"/><path class="cls-8" d="M89.63,151c.74-.71-1.09-.74-1.5-.77a34,34,0,0,0-11.39,1.89,8.3,8.3,0,0,0-3,1.53.61.61,0,0,0,0,.95.73.73,0,0,1-.25-1.1c2.9-3.43,11.71-5,15.85-3.4.4.15.9.61.28.9Z"/><path class="cls-8" d="M89.82,151.59c1.07-.92-3.45.36-3.83.38l-4.47,1L77,154a14.79,14.79,0,0,0-3.23,1,.71.71,0,0,0-.32.37.57.57,0,0,0,.23.46.64.64,0,0,1-.38-.47c.78-2.45,14.1-5,16.61-4.26.33.13.08.37-.13.46Z"/><path class="cls-12" d="M112.25,215.26s-10.79,16.46-30.17,9.48c0,0-11.37-51.06-12.5-54.06s-27-57.33-27-57.33,11-11.81,32.62-8.51c0,0,9,59.38,9.66,61S112.25,215.26,112.25,215.26Z"/><path class="cls-5" d="M42.6,113.35s21,6.73,32.62-8.51C75.22,104.84,58.72,99.27,42.6,113.35Z"/><path class="cls-8" d="M69.58,170.68c-.68.76,1.13.66,1.54.66a32.87,32.87,0,0,0,11.11-2.71,7.18,7.18,0,0,0,2.8-1.81.66.66,0,0,0-.15-.95.77.77,0,0,1,.39,1.06c-2.35,3.77-11.22,5.88-15.36,4.62-.4-.12-.92-.54-.33-.87Z"/><path class="cls-8" d="M69.26,169.91c-.62.81,1.2.58,1.61.55a34.13,34.13,0,0,0,11-3.51A8.18,8.18,0,0,0,84.63,165a.62.62,0,0,0-.17-.94.73.73,0,0,1,.41,1.05c-2.38,3.82-10.87,6.61-15.2,5.65-.42-.09-1-.47-.41-.85Z"/><path class="cls-8" d="M69,169.32c-.92,1.07,3.37-.85,3.73-.93L77,166.73l4.29-1.65a14.47,14.47,0,0,0,3-1.47.65.65,0,0,0,.27-.41.54.54,0,0,0-.29-.42.62.62,0,0,1,.44.41c-.41,2.54-13.23,6.95-15.82,6.61-.34-.09-.14-.36.06-.48Z"/><path class="cls-11" d="M35.46,191.87c7.49,4.3,19.86,2.14,53.06-6.2,4.59-1.15,5.17-35.76.2-34.78-6.25,1.24-30.27,7.38-32,8.05C42.41,164.6,30.38,189,35.46,191.87Z"/><path class="cls-11" d="M75.91,156.24S87.35,149,94.55,147c9.63-2.64,19-.94,22.93,0,8.14,2,26.45,12.39,24.37,18.18-1.88,5.25-20-6.33-20-6.33s20.48,8.75,17,14.65-23.76-8.74-23.76-8.74,20.84,9.46,16.35,15c-3.4,4.17-22.57-8.06-22.57-8.06s17.86,8.26,14.55,12.71c-3.65,4.91-22-5.27-22-5.27-10.31,9.89-19.27,10.38-25.68,10C74.14,189,75.91,156.24,75.91,156.24Z"/><path class="cls-7" d="M114.91,155.36c2.44.94,4.92,1.87,7.27,3s4.66,2.39,6.9,3.76a45.61,45.61,0,0,1,8.18,6.15c-4.72-3.86-13.07-8.12-15.42-9.28s-4.64-2.42-7-3.58C114.8,155.42,114.85,155.33,114.91,155.36Z"/><path class="cls-7" d="M110.58,163.77c3.07,1.34,6.16,2.55,9.17,4s5.71,3.12,8.6,4.79c.22.13.08.2-.15.08-2.95-1.55-5.8-2.75-8.77-4.27s-5.88-3.15-8.89-4.55C110.5,163.82,110.53,163.75,110.58,163.77Z"/><path class="cls-7" d="M105.57,170.32a75,75,0,0,1,13.55,7.23c.22.14,0,.22-.2.09-4.46-2.49-7.94-4.47-13.41-7.15C105.42,170.45,105.47,170.29,105.57,170.32Z"/><path class="cls-14" d="M40.82,173.63c3.11-5.24,7.29-10.21,12.59-13.35,7.34-3.5,15.72-4.94,23.58-6.8,2-.41,4-.86,6-1.24-2,.6-3.93,1.14-5.88,1.72-7.69,2.24-16,3.85-23.29,7.13-5.19,3-9.47,7.69-13,12.54Z"/><path class="cls-9" d="M92.21,113.67l3.41-.14s-4.07-14.92-6.93-18.59l-1.42.53S91.3,107.85,92.21,113.67Z"/><path class="cls-11" d="M90.5,95.56c.34,1.42,10.5,12.57,16.66,10.13,2.28-.9-1.07-10.14-1.07-10.14l2.79-12.84L92.73,72.6S90.36,95,90.5,95.56Z"/><path class="cls-7" d="M91.88,81a25,25,0,0,0,14.37,13.89l2.63-12.12L92.73,72.6S92.35,76.37,91.88,81Z"/><path class="cls-11" d="M125,62.45c3.53,21.23-8.78,25.74-13.36,26.5-4.16.69-18.4,2.5-24.11-18.25s3-29.1,12.46-31.18S121.42,41.22,125,62.45Z"/><path class="cls-7" d="M120.89,57.42a14.83,14.83,0,0,1-1.49,0,2.41,2.41,0,0,1-1.51-.33.77.77,0,0,1-.16-.92,1.88,1.88,0,0,1,1.76-.77,2.74,2.74,0,0,1,1.9.65A.82.82,0,0,1,120.89,57.42Z"/><path class="cls-7" d="M107.16,60.12a13.64,13.64,0,0,0,1.37-.57,2.39,2.39,0,0,0,1.3-.84.78.78,0,0,0-.17-.92,1.91,1.91,0,0,0-1.92-.1A2.78,2.78,0,0,0,106.19,59,.82.82,0,0,0,107.16,60.12Z"/><path class="cls-7" d="M111.16,64.91s-.1.09-.08.15c.34,1.43.49,3.12-.71,3.87,0,0,0,.09,0,.07C111.94,68.45,111.71,66.21,111.16,64.91Z"/><path class="cls-7" d="M109.57,63.68c-2.35.3-1.57,5,.6,4.69S111.53,63.43,109.57,63.68Z"/><path class="cls-7" d="M108.69,64.08c-.36.33-.68.86-1.17,1s-1.07-.26-1.52-.67c0,0-.08,0-.07.07.14.89.64,1.75,1.62,1.73s1.39-.92,1.46-1.86C109,64.17,108.84,64,108.69,64.08Z"/><path class="cls-7" d="M119.06,63.21c0-.06.12,0,.13.11.18,1.45.64,3.09,2,3.36,0,0,0,.08,0,.09C119.58,66.79,119,64.62,119.06,63.21Z"/><path class="cls-7" d="M120.11,61.49c2.3-.54,3.23,4.1,1.09,4.6S118.18,62,120.11,61.49Z"/><path class="cls-7" d="M121.14,61.6c.42.18.87.55,1.31.49s.79-.64,1-1.19c0,0,.07,0,.08,0,.2.88.09,1.87-.72,2.21S121.36,62.81,121,62C120.9,61.81,121,61.54,121.14,61.6Z"/><path class="cls-7" d="M112.82,77.23c.37.32.75.76,1.29.77a4,4,0,0,0,1.54-.48.05.05,0,0,1,.07.07,2,2,0,0,1-1.8.93,1.56,1.56,0,0,1-1.24-1.21C112.65,77.22,112.76,77.18,112.82,77.23Z"/><path class="cls-7" d="M118.19,70.89s.58,2.13.72,3.16c0,.09-.23.17-.58.24h0a4.88,4.88,0,0,1-5-1.2.1.1,0,0,1,.13-.16,7.31,7.31,0,0,0,4.61.69c0-.29-1.12-3.61-1-3.65a9.36,9.36,0,0,1,2.4.22c-1.09-4.47-2.89-8.73-3.9-13.21,0-.16.19-.24.25-.1,2.2,4.34,3.57,9.46,4.81,14.05C120.83,71.5,118.62,71,118.19,70.89Z"/><path class="cls-7" d="M118,73.81a5.85,5.85,0,0,1-1.87,2.25,2.61,2.61,0,0,1-1.52.43c-1.18,0-1.43-1-1.43-2a6.62,6.62,0,0,1,.2-1.45A7.51,7.51,0,0,0,118,73.81Z"/><path class="cls-16" d="M116.13,76.06a2.61,2.61,0,0,1-1.52.43c-1.18,0-1.43-1-1.43-2A2.69,2.69,0,0,1,116.13,76.06Z"/><path class="cls-7" d="M109.07,42.79s1.19,3.16.32,5.63c-1.8,5-7.71,4.38-9.49,6.49s-.64,5.62-2.13,7.58c-2.06,2.71-5.32,2.08-5.53,3.79s-.76,7.12-2.81,8S74,40.9,101.77,39.15c0,0,3.63-1.94,9.82.43,6.84,2.62,10.78,13.05,10.78,13.05s-.15-.13-1.19-.87c-1.45-1-2.08-2.08-3.14-2.75-1.66-1-2.46-.5-4.17-1.51A18.28,18.28,0,0,1,109.07,42.79Z"/><path class="cls-7" d="M108.49,41.3a19.07,19.07,0,0,1,1.25,4.17,8,8,0,0,1-.16,4.19,5.78,5.78,0,0,1-2.92,2.8c-1.26.62-2.7.91-4,1.63a4.31,4.31,0,0,0-1.71,1.58,5.74,5.74,0,0,0-.59,2.22,7.82,7.82,0,0,1-1.13,4,4.78,4.78,0,0,1-3.55,2c-1.39.15-3-.09-4.26.67,1.35-.65,2.82-.3,4.29-.33a5.22,5.22,0,0,0,3.93-2A7.79,7.79,0,0,0,100.93,58a5.18,5.18,0,0,1,.54-2,3.68,3.68,0,0,1,1.47-1.31c1.21-.67,2.66-1,4-1.67a7.34,7.34,0,0,0,1.86-1.28,4.59,4.59,0,0,0,1.27-1.9,8.26,8.26,0,0,0,0-4.44A19.76,19.76,0,0,0,108.49,41.3Z"/><path class="cls-7" d="M109.15,42.51a14.81,14.81,0,0,0,1.74,3.69A7.13,7.13,0,0,0,114,49a10.42,10.42,0,0,0,2,.55,3.2,3.2,0,0,1,1.59.85,10.63,10.63,0,0,0,1.37,1.51,4.47,4.47,0,0,0,1.87.85,4.93,4.93,0,0,1-1.64-1.1A9.93,9.93,0,0,1,118,50a3.53,3.53,0,0,0-1.84-1.14,10.66,10.66,0,0,1-1.88-.55,7.61,7.61,0,0,1-2.92-2.47A30.83,30.83,0,0,1,109.15,42.51Z"/><path class="cls-11" d="M91.81,71.45s-5.53-6-8.33-4,2,11.25,5.69,12.11A3.64,3.64,0,0,0,93.75,77Z"/><path class="cls-7" d="M84.91,70.06c-.06,0-.06.09,0,.1,2.62.68,4.24,2.81,5.47,5.09a2,2,0,0,0-3.05-.16.08.08,0,0,0,.08.13,2.24,2.24,0,0,1,2.55.45,11,11,0,0,1,1.43,1.82c.14.21.53,0,.41-.21l0,0C91.41,74.05,88.36,69.93,84.91,70.06Z"/><path class="cls-8" d="M122.27,50.57l-6.35,2.51a105.3,105.3,0,0,0-11.72,3.61,93.72,93.72,0,0,0-12.92,6.14l-6.83,2.7a20.29,20.29,0,0,1-.65-2.1c-1.35-5.21-3.17-18.71,11.79-24.63S118.67,44,121.3,48.64C122,49.81,122.27,50.57,122.27,50.57Z"/><g class="cls-17"><path d="M114.21,51.9,111,53.17l-8.44-16a17.66,17.66,0,0,1,2.52,0A37.63,37.63,0,0,1,114.21,51.9Z"/></g><path class="cls-8" d="M103.94,55.57l9.28-3.14S109,41.11,102.15,36.35c-.57-.4-7.66,1.73-9.56,2.64a1.77,1.77,0,0,0-.82,1.7C95.36,38.81,102.82,52.25,103.94,55.57Z"/><path class="cls-18" d="M105.42,55.06l-1.48.51c-1.12-3.32-8.58-16.76-12.17-14.87a2,2,0,0,1,.35-1.32c.81-.54,3.63.31,6.16,3.59A50.79,50.79,0,0,1,105.42,55.06Z"/><path class="cls-8" d="M83,66.44a.91.91,0,0,0,1.39.43c2.8-1.86,24.93-13.66,38.95-15.12.61-.07.79-2.29-.45-2.3-3.88,0-12.1,2-20,5.11a93.87,93.87,0,0,0-19.09,9.81A1.67,1.67,0,0,0,83,66.44Z"/><path class="cls-8" d="M83.74,64.37c3.22-2.73,6.53-4.58,13.14-7.8a30.9,30.9,0,0,1,2.33-2.36c.8-.65,14.31-5.88,19.26-6,.28,0,1.32,1.4,1.32,1.4a9.88,9.88,0,0,1,3.08-.19s-2.45.09-9.91,2.15a146.1,146.1,0,0,0-23.42,9.47A47.63,47.63,0,0,0,83.74,64.37Z"/><path class="cls-19" d="M119.13,48.82a.81.81,0,0,0-.55-.2,35.26,35.26,0,0,0-7.45,1.64,104.21,104.21,0,0,0-11.39,4.2A28.34,28.34,0,0,0,97,57a99.4,99.4,0,0,0-12.51,6.79c3-2.41,6.29-4.21,12.4-7.18a30.18,30.18,0,0,1,2.32-2.36c.8-.65,14.31-5.87,19.26-6C118.59,48.24,118.87,48.52,119.13,48.82Z"/><path class="cls-20" d="M84.16,55.21s.66-9.1,7.52-13.25l2.69,3.65-3.74,2.11-1.79-.66L89.08,49l-1,.65-.78,1-.1.54A7.75,7.75,0,0,0,84.16,55.21Z"/><path class="cls-12" d="M106.3,94.68l-3.39,9.64L90.61,92.84l-3.17,4s12.35,18.55,12.38,17.68l3.55-8.33,5.89,5.43-1.08-14.24Z"/><path class="cls-7" d="M109.12,104.55c-.25-2.34-.45-4.71-.81-7,0-.08-.14-.11-.16,0-.37,2.29.65,11.26.74,13.42l0,0c-.25-.23-5.44-4.77-5.49-4.69-.79,1.33-3.4,7.4-3.57,8-2-3-9.41-13.64-11.69-16.41a.08.08,0,0,0-.14.09c1.75,3.12,11.63,17.53,11.77,17.49a90.18,90.18,0,0,0,3.71-8.82c.89,1,6.16,6.15,6.16,5.8A74.11,74.11,0,0,0,109.12,104.55Z"/></g></svg>