<svg id="Слой_1" data-name="Слой 1" xmlns="http://www.w3.org/2000/svg" xmlns:xlink="http://www.w3.org/1999/xlink" viewBox="0 0 240 240"><defs><style>.cls-1{fill:none;}.cls-2{fill:#fff;}.cls-3{fill:#306;}.cls-4{fill:#ffc800;}.cls-5{fill:#c36358;}.cls-6{opacity:0.1;}.cls-7{fill:#ececec;}.cls-8{fill:#c8c8c8;}.cls-9{fill:#dcdcdc;}.cls-10{fill:#4a148c;}.cls-11{opacity:0.6;}.cls-12{clip-path:url(#clip-path);}</style><clipPath id="clip-path"><rect class="cls-1" x="-275" y="-6.22" width="260" height="260" transform="translate(-290 247.55) rotate(-180)"/></clipPath></defs><path class="cls-2" d="M239.81,139.72c19.2,5.61,38.09,11.21,56.51,16.82,11-24.75,12.64-49.49,20.18-74.24-19.23-5.61-38.15-11.21-56.58-16.82C248.94,90.23,247.33,115,239.81,139.72Z"/><path class="cls-3" d="M248.4,102.62c2.69-12.4,5.81-24.8,11.3-37.21l.1-.22.22.06c18.44,5.58,37.35,11.16,56.57,16.73l.32.09-.09.33c-7.57,24.73-9.25,49.46-20.31,74.2l-.09.2-.19-.06q-13.82-4.25-28-8.5t-28.45-8.52C243.51,127.36,245.74,115,248.4,102.62ZM268.46,148q14.12,4.15,27.94,8.32l-.27.14c10.95-24.76,12.53-49.51,20.05-74.27l.22.41C297.17,77,278.25,71.34,259.82,65.71l.31-.17c-5.49,12.35-8.66,24.7-11.39,37s-5.11,24.76-8.93,37.14Q254.26,143.88,268.46,148Z"/><polygon class="cls-4" points="38.42 64.02 32.1 43.83 28.49 46.39 38.42 64.02"/><polygon class="cls-4" points="33.46 68.93 16.23 64.73 15.27 69.48 33.46 68.93"/><polygon class="cls-4" points="35.26 64.97 13.54 44.05 9.35 49.83 35.26 64.97"/><path class="cls-5" d="M33.71,247.78H92.88q1.66-5,3.15-9.67c1.21-3.89,2.22-7.65,3-11.22.19-.84.36-1.68.52-2.5.32-1.62.59-3.19.81-4.72,1.1-7.66.94-14-.63-18.33-1.39-3.86-3.92-6.08-7.67-6.12h-.46a7.26,7.26,0,0,0-.92.07c-6,.69-14.8,6.33-26.69,18.68-2.84,3-5.88,6.31-9.09,10.07-1.06,1.25-2.17,2.53-3.31,3.83C46.26,234,40.15,240.8,33.71,247.78Z"/><path class="cls-4" d="M20.86,247.78H99.18c1.51-3.88,2.92-7.6,4.19-11.13.95-2.64,1.79-5.17,2.54-7.62.3-1,.6-2,.86-2.93h0q.81-2.88,1.44-5.55c.26-1.13.51-2.23.72-3.31s.39-2,.55-3c.1-.64.2-1.28.29-1.9s.17-1.24.24-1.84c.11-1,.21-1.88.27-2.79,0-.48.07-1,.09-1.42,0-.08,0-.17,0-.25.29-6.41-.6-11.42-2.51-14.94a11.17,11.17,0,0,0-5.94-5.39l-.45-.16c-2.95-1-6.56-.81-10.72.55h0c-5.35,1.76-11.6,5.49-18.54,11.28C58,209.28,39,228.51,20.86,247.78Z"/><path class="cls-3" d="M26.14,242.25a5.25,5.25,0,0,0,1.74,2c3.55,2.33,6.65-1.49,8.27-4.28a39.83,39.83,0,0,0,4.68-12.91C36,232,31,237.08,26.14,242.25Zm24.48,5.53H58C55.94,245.58,53.1,246.23,50.62,247.78Zm-.43-24.71a9,9,0,0,0,1.41,4.8,3.31,3.31,0,0,0,2.72,1.42c3.09.05,5.29-3.83,6.51-6.1A33.23,33.23,0,0,0,64,214a21.63,21.63,0,0,0,.36-2.94,8.33,8.33,0,0,0-1-5.83c-4,3.6-8.16,7.6-12.47,11.83A31.59,31.59,0,0,0,50.19,223.07Z"/><path class="cls-6" d="M74.7,247.78H99.16c1.52-3.88,2.93-7.6,4.2-11.13.94-2.64,1.79-5.17,2.54-7.62.31-1,.6-2,.87-2.93.55-1.92,1-3.76,1.44-5.55h0c.26-1.13.51-2.23.72-3.31s.39-2,.55-3c.1-.64.2-1.28.29-1.9s.17-1.24.24-1.84c1-8.59.19-15.09-2.17-19.39A13.47,13.47,0,0,0,106.4,189l-1.82,3.38-4.84,9-6.37,11.81-2.3,4.28-.6,1.09-9,16.79-4.77,8.85Z"/><path class="cls-4" d="M75.89,247.78h39.67c0-6.58,0-12.95,0-19,0-1.17,0-2.33,0-3.48,0-2.16,0-4.27,0-6.33,0-14.89-.1-26.63-.14-32.44h0c0-2.58,0-4,0-4l.36-1.35.71-2.65a45.56,45.56,0,0,0-14.93,7c-.83.58-1.67,1.21-2.51,1.89a42.64,42.64,0,0,0-5.89,5.84c-.19.23-.37.44-.55.67l-.93,1.24c-.34.46-.68.94-1,1.44h0a40.48,40.48,0,0,0-4,7.56c-2.6,6.58-6.14,21.66-10,39.94C76.4,245.35,76.15,246.56,75.89,247.78Z"/><path class="cls-7" d="M79.13,247.78H206c-15.27-25.27-29.78-46.71-37.51-54.5a32.5,32.5,0,0,0-3.3-2.89,41.06,41.06,0,0,0-7.65-4.65,55.29,55.29,0,0,0-8.31-3.1c-1.56-.45-3.16-.83-4.77-1.17a76.84,76.84,0,0,0-23-1.08h0c-2,.21-3.88.49-5.74.84a50.73,50.73,0,0,0-13.77,4.51,31.1,31.1,0,0,0-3,1.73,20.31,20.31,0,0,0-5.29,4.93c-.2.28-.4.58-.6.91s-.26.44-.39.68-.42.79-.63,1.23c-.51,1-1,2.23-1.52,3.57h0c-3,8-6.14,21-9.13,36.52C80.65,239.32,79.88,243.49,79.13,247.78Z"/><path class="cls-8" d="M153.64,194.41a145.13,145.13,0,0,1-14.06,16.05,65.21,65.21,0,0,1-16.8,12.26c-6.11,3-13.1,4.34-19.7,2.83S90.89,219,88.2,212.3a20.69,20.69,0,0,0,14.13,15.9c7.3,2.31,15.31.93,22-2.3a56.35,56.35,0,0,0,17.25-13.54A80,80,0,0,0,153.64,194.41Z"/><path class="cls-4" d="M147.05,247.78h67.07c-12.88-24.93-24-45.61-28.28-51h0a7.66,7.66,0,0,0-.7-.8c-5.19-5.16-12.69-8.84-19.47-11.35a102,102,0,0,0-16.35-4.53s0,.87-.09,2.5c-.12,3.31-.35,9.7-.64,18.12,0,.86-.06,1.73-.09,2.62C148.07,215.47,147.55,231.18,147.05,247.78Z"/><path class="cls-3" d="M153.9,222.65a32.93,32.93,0,0,0,4.88,8h0q.38.47.78.93c.27.3.53.6.81.9s.47.5.71.75.64.65,1,1l.55.54.75.72.23.21.49.46.23.21.27.24a20.87,20.87,0,0,0,2.1,1.65l.51.33.59.32a4.6,4.6,0,0,0,.64.3h0l.54.2a4.45,4.45,0,0,0,1.86.22l.21,0,.21,0a4.23,4.23,0,0,0,1.42-.64h0a3.76,3.76,0,0,0,.42-.36l.19-.2c1.06-1.24,1-3.19.42-5.35-.05-.18-.1-.36-.16-.54l-.15-.42a5.17,5.17,0,0,0-.18-.51c-.14-.38-.3-.76-.47-1.14a26.61,26.61,0,0,0-4.5-9.56q-.39-.56-.81-1.08c-.28-.35-.56-.7-.85-1-.43-.51-.88-1-1.34-1.48a32,32,0,0,0-4.34-3.82,14,14,0,0,0-4.1-2.23,4.23,4.23,0,0,0-2-.16h0l-.12,0a2.59,2.59,0,0,0-.64.23l-.2.11-.29.2h0l-.28.26a1.62,1.62,0,0,0-.18.19h0l-.24.32h0a3.07,3.07,0,0,0-.2.36,2.09,2.09,0,0,0-.14.3h0C151.28,215.84,152.93,220.31,153.9,222.65Z"/><path class="cls-5" d="M154.61,211.05h0c1.66,7.12,5.52,15.67,11.67,24.93l2.12,3.21h0c1.77,2.71,3.6,5.58,5.48,8.57H229.1c-17.54-17.44-44.91-59.4-66-60.46C153.33,186.84,151.78,198.83,154.61,211.05Z"/><path class="cls-4" d="M150.45,200.28a50.58,50.58,0,0,0,2,12.77h0c.26,1,.54,1.95.86,3,.12.39.25.79.38,1.18.2.6.4,1.22.62,1.84.16.46.32.92.49,1.38l.44,1.2c.15.41.31.82.47,1.24.63,1.65,1.3,3.37,2,5.13.17.44.35.89.54,1.33l.55,1.36h0c2.2,5.34,4.72,11.09,7.47,17.1h64.4c-.11-.11-19.39-25.43-34.55-41.56-13.95-14.84-30.11-24.33-38.57-20.48-4.27,1.94-6.71,6.28-7.05,12.71h0C150.45,199,150.43,199.65,150.45,200.28Z"/><path class="cls-3" d="M152.42,213.05h0c.26,1,.54,1.95.86,3,.12.39.25.79.38,1.18.2.6.4,1.22.62,1.84.16.46.32.92.49,1.38l.44,1.2c.15.41.31.82.47,1.24.63,1.65,1.3,3.37,2,5.13.17.44.35.89.54,1.33l.55,1.36h0q.38.47.78.93c.27.3.53.6.81.9s.47.5.71.75.64.65,1,1l.55.54.75.72.23.21.49.46.23.21.27.24a20.87,20.87,0,0,0,2.1,1.65l.51.33.59.32a4.6,4.6,0,0,0,.64.3h0l.54.2a4.45,4.45,0,0,0,1.86.22l.21,0,.2,0a4.39,4.39,0,0,0,1.43-.63h0a3.76,3.76,0,0,0,.42-.36l.19-.2c1.06-1.24,1-3.19.42-5.35-.05-.18-.1-.36-.16-.54l-.15-.42a5.17,5.17,0,0,0-.18-.51c-.14-.38-.3-.76-.47-1.14a26.61,26.61,0,0,0-4.5-9.56q-.39-.56-.81-1.08c-.28-.35-.56-.7-.85-1-.43-.51-.88-1-1.34-1.48a32,32,0,0,0-4.34-3.82,14,14,0,0,0-4.1-2.23,4.23,4.23,0,0,0-2-.16h0l-.12,0h0a2.59,2.59,0,0,0-.64.23l-.2.11-.29.2h0a3.45,3.45,0,0,0-.28.26,1.62,1.62,0,0,0-.18.19h0l-.24.32h0a3.07,3.07,0,0,0-.2.36A2.09,2.09,0,0,0,152.42,213.05Z"/><path class="cls-3" d="M30.74,122c2.73,7.3,9.7,10.51,16.83,10.42h.57c-.21.36-.4.72-.58,1.1,0,0,0,0,0,0s0,0,0,0h0a18.07,18.07,0,0,0,1,17.8,15.8,15.8,0,0,0,1.19,1.6h0a19.18,19.18,0,0,0,16.52,6.54c2.1,11.26,13.15,18.9,23,16.72h0a16.37,16.37,0,0,0,9.21-5.88c3,2.16,6.33,4,10.16,3.35,1.13-.19,2.2-.63,3.33-.81a6.83,6.83,0,0,1,3.17.25,18.15,18.15,0,0,1,1.87.71,33.62,33.62,0,0,0,5.51,2c.62.14,1.26.27,1.9.38,5.38.89,11.21,0,14.53-4.41a18.11,18.11,0,0,0,4.5,2.6,19.38,19.38,0,0,0,19.66-3,15.7,15.7,0,0,0,2.36-2.53c.95-1.28,1.6-3.13,3.1-3.92s3.57-.61,5.17-.82a18.05,18.05,0,0,0,4-.91c3.37-1.25,6.22-4.82,5-8.35,4.86.46,9-3.28,11.05-7.45a20.81,20.81,0,0,0,.19-17.51,14.13,14.13,0,0,0,5.72-19.32c6.09-4.42,6.56-14,.93-19.24a18.72,18.72,0,0,0-.43-17.8A8.4,8.4,0,0,1,199.14,70c2.06-3.72,3.1-7.84,1.47-12.14A11.3,11.3,0,0,0,190,50.58a21.9,21.9,0,0,0-4.35-9.49,15.11,15.11,0,0,0-13.37-6.17,21.31,21.31,0,0,0-28.19-13.74C143,15.31,137.59,11,131.82,9.77c-7-1.53-14,1.29-19.9,4.67A10.79,10.79,0,0,0,99.8,8a11.13,11.13,0,0,0-8,7.42C87.58,15,83,15.3,79.71,18a9.36,9.36,0,0,0-3.35,9.73,13.93,13.93,0,0,0-13,19.94,17.44,17.44,0,0,0-17.24,5.68c-4.34,5.34-4.6,13.14-1.21,19.14A14.77,14.77,0,0,0,33,83.86c-1.63,6.86,1.39,14,5.92,19.32a14.83,14.83,0,0,0-4.54,16.08c1.7,5.27,5.94,9.18,10.86,11.59-5.73-.63-10.89-3.3-13.25-9.38-2.76-7.12.8-14.41,6.74-18.42,0,0,0-.11-.06-.09C31.69,106.61,27.86,114.2,30.74,122ZM190.06,51.11a11.86,11.86,0,0,1,9.8,9.22,13.64,13.64,0,0,1-.67,7.55c0-.16,0-.31,0-.48a15.43,15.43,0,0,0,0-3.9,15.39,15.39,0,0,0-7-10.71c-.67-.41-2.13-1.09-2.13-1.09S190.1,51.47,190.06,51.11ZM111.34,14.76l-.32.18a11.38,11.38,0,0,0-12.4-3.26,11.81,11.81,0,0,0-5.36,3.94h-.08C94.24,12.47,96.26,9.85,100,9,105.33,7.7,108.78,10.72,111.34,14.76ZM70,165.38a20.77,20.77,0,0,0,18.65,7.85h0a19.75,19.75,0,0,0,9.07-3.47l.14.09A18.76,18.76,0,0,1,89,175h0C81.66,176.65,74.63,172.26,70,165.38Z"/><path class="cls-5" d="M102.84,220.36c13.25,2.35,35-10.4,43-27.09.54-1.14-6.56-45.29-7.06-54.19l-55,16.68s6.52,18.34,7.3,33.85a19.89,19.89,0,0,1-.18,3.67c0,.17,0,.38,0,.61C90.07,200.89,90,218.07,102.84,220.36Z"/><path class="cls-3" d="M90.87,193.29c0,.16-.05.35-.05.59a35.37,35.37,0,0,0,5.74,0c32.25-2.53,37.64-42.47,38.49-53.67l-13.75,4.16L83.74,155.77s6.53,18.34,7.28,33.85A18.41,18.41,0,0,1,90.87,193.29Z"/><path class="cls-5" d="M147.85,77.84C152.62,98.44,138,156,122.73,168c-22.1,17.42-56.3,16.88-70.6-9.23-13.86-25.31,6.56-100,23.41-110.72C100.35,32.31,140.79,47.4,147.85,77.84Z"/><path class="cls-3" d="M90.93,108.47c.07-.14.26.26.22.42-1.09,3.85-1.69,8.45,1.5,10.61.1.07,0,.26-.09.21C88.42,118,89.28,112,90.93,108.47Z"/><path class="cls-3" d="M95.41,105.28c6.37,1.08,3.73,13.73-2.16,12.73S90.08,104.37,95.41,105.28Z"/><path class="cls-3" d="M67.47,103.63c0-.16-.35.12-.37.28-.7,3.94-2.15,8.34-6,8.91-.11,0-.14.21,0,.22C65.57,113.33,67.45,107.47,67.47,103.63Z"/><path class="cls-3" d="M64.82,98.81c-6.2-1.79-9.32,10.74-3.58,12.4S70,100.31,64.82,98.81Z"/><path class="cls-3" d="M102.46,96.5a50.31,50.31,0,0,0-5.12-1.4c-2-.52-3.48-1.13-5.49-.44a2.75,2.75,0,0,0-1.52,3c.62,2.52,2.87,3.75,5.21,4.47a10,10,0,0,0,7.17-.27C105.09,100.86,104.7,97.35,102.46,96.5Z"/><path class="cls-3" d="M61.59,88.93a49.43,49.43,0,0,0,5.3-.32c2-.15,3.66-.06,5.33-1.36A2.73,2.73,0,0,0,72.7,84c-1.39-2.18-3.92-2.62-6.37-2.54A9.87,9.87,0,0,0,59.64,84C57.69,85.66,59.2,88.86,61.59,88.93Z"/><path class="cls-3" d="M79.06,145.88c-.87,1-1.7,2.4-3.13,2.66a10.75,10.75,0,0,1-4.38-.6.14.14,0,0,0-.15.22,5.38,5.38,0,0,0,5.26,1.68c1.77-.48,2.52-2.12,2.8-3.82C79.5,145.79,79.19,145.73,79.06,145.88Z"/><path class="cls-3" d="M85.42,133a13.37,13.37,0,0,1-9.81,4.29,16.78,16.78,0,0,1-4.76-.62,4.74,4.74,0,0,1-.88-.26c-.28-.09-.53-.16-.83-.28a1,1,0,0,1-.62-1v0a2.79,2.79,0,0,1,.1-.39v0l.07-.34c.44-3,1.53-7.45,1.53-7.45-1.18.35-7.16,1.86-6.8.33,3-12.72,6.43-26.86,12.14-38.87a.36.36,0,0,1,.68.23c-2.43,12.33-7,24.16-9.67,36.51,1.88-.36,5-1.1,6.53-.79.4.2-2.26,8.6-2.35,10a.6.6,0,0,0,0,.15c4.88,1.52,8.91.68,14.35-1.81C85.45,132.41,85.71,132.72,85.42,133Z"/><path class="cls-3" d="M55.46,81.83l.18,0c2.57.16,9.3.42,12.81-12.21,4.14,1.92,12.24-1.88,16-5,.11,15,15,24.15,27.41,18.44-.73,6-.4,12.19,2.47,17.08,4.7,8,15.57,5.33,15.57,5.33v.09a15.57,15.57,0,0,0-.92,10.49,15.74,15.74,0,0,0,.85,2.39,15.22,15.22,0,0,0,2.37,3.74,13.49,13.49,0,0,0,5.26,3.82,11.41,11.41,0,0,0,2.23.65,10,10,0,0,0,1.66.18,7.09,7.09,0,0,0,.8,0,11.76,11.76,0,0,0,2.58-.07,21,21,0,0,0,6.9-2.05,13.55,13.55,0,0,0,2-1.33c.11-.08.22-.18.33-.27a13,13,0,0,0,2.78-3.3c3.56-6,2.74-14.44-1.87-18.75a14.8,14.8,0,0,0,5.33-13.25,14.44,14.44,0,0,0-.5-2.33c-1.08-3.55-4.92-5.91-4.56-9.81a22.8,22.8,0,0,0-.89-9.29,17.69,17.69,0,0,0-9.53-10.95,9.71,9.71,0,0,1-4.86-3.77,33.72,33.72,0,0,0-2.56-3.52,22.24,22.24,0,0,0-5.59-4.6,20.41,20.41,0,0,0-8.13-2.69c-3.07-.35-6.41.8-9.21-.79-2.43-1.36-10.74-2.32-13.54-2.17a40.4,40.4,0,0,0-7.38,1c-7.25,1.71-10.84,4.82-10.84,4.82s-6.38.26-13.2,7.66c-6.51,7.08-7.27,13.17-7.27,13.17s-2.56.78-5,5.69C54.28,75.93,55.14,81.78,55.46,81.83Zm74.92,24.51a36.5,36.5,0,0,0,.93,9.9,18.57,18.57,0,0,0,.8,2.39,15.66,15.66,0,0,0,1.52,2.82l.37.53c-.15-.15-.3-.31-.44-.47a15,15,0,0,1-2.11-2.88,15.64,15.64,0,0,1-1.09-2.39A14.8,14.8,0,0,1,130.38,106.34ZM86,65.32c1.72,8.06,6.66,14.12,13,16.82C92.08,80,86.85,74.58,86,65.32Z"/><path class="cls-2" d="M153,101.78c-8.22,7.11-21.46,6.73-31.63.44C114.73,98.1,111.27,88.78,105,80.74,94.58,67.49,70,64.39,76.61,43.89c5.85-18.24,36.26-20.4,62.46-5C162.22,52.45,171.52,85.79,153,101.78Z"/><path class="cls-4" d="M84.16,133c.24.18.48.36.73.52a18,18,0,0,0,8.15,3,18.21,18.21,0,0,0,20.14-19.24,17.82,17.82,0,0,0-.33-2.42,18.18,18.18,0,0,0-10.25-13,13.07,13.07,0,0,0-1.22-.51,18.19,18.19,0,0,0-23,9.6c-.16.35-.3.71-.44,1.07h0a15,15,0,0,0-.48,1.48A18.22,18.22,0,0,0,84.16,133Zm-3.91-20.12a15.76,15.76,0,1,1,9.25,20.29A15.79,15.79,0,0,1,80.25,112.88Z"/><path class="cls-4" d="M47.93,125.35a10.13,10.13,0,0,0,3.29,1.4,9.38,9.38,0,0,0,1.18.2c4.79.52,9.64-2.39,12.87-7.29a23.59,23.59,0,0,0,3.22-7.61c.09-.41.18-.83.24-1.24a24.14,24.14,0,0,0,.34-2.79,21.55,21.55,0,0,0,0-2.41h0a19.51,19.51,0,0,0-1.5-6.81c-1.7-4-4.63-6.68-8.23-7.51a10.52,10.52,0,0,0-5.37.18,14,14,0,0,0-5.31,3A21.64,21.64,0,0,0,42.09,106C40.21,114.18,42.77,122,47.93,125.35Zm-3.48-18.81a19.3,19.3,0,0,1,5.82-10.25,12.15,12.15,0,0,1,2.94-1.94,8.9,8.9,0,0,1,4.69-.85c.3,0,.6.09.9.16a10.89,10.89,0,0,1,6.55,6.08A17.26,17.26,0,0,1,66.66,106h0c0,.52,0,1,0,1.55h0c0,.31,0,.63-.07.94h0a21.66,21.66,0,0,1-.47,3c-1.94,8.47-8.36,14.26-14.36,12.89a8.27,8.27,0,0,1-3.59-1.87C44.58,119.39,43,113.1,44.45,106.54Z"/><path class="cls-4" d="M78.1,114.22,80,112.75c-2.18-2.87-7.7-7.33-13.09-3.69l1.36,2C73.14,107.8,77.89,114,78.1,114.22Z"/><path class="cls-4" d="M155.61,127.31l2.22-1c-.47-1-4.73-10.14-10.1-11.3-5-1.08-34.13-.21-35.52-.16l.1,2.43c9.38-.39,31-.74,34.9.11C150.76,118.15,154.48,124.81,155.61,127.31Z"/><path class="cls-5" d="M130.35,124.39s14.83-17.65,23-12.2-4.2,31.86-14.56,34.7-13.17-6.69-13.17-6.69Z"/><path class="cls-3" d="M149.59,119.67a.14.14,0,0,1,0,.27c-7.29,2.23-11.57,8.42-14.76,14.95,2.32-2.42,5.3-3.59,8.56-.79.17.15,0,.42-.22.36-2.83-.87-4.95-.56-7.1,1.57a30.65,30.65,0,0,0-3.8,5.3c-.39.6-1.49.16-1.19-.54,0-.06,0-.11.07-.16C131.8,131.65,139.88,119.72,149.59,119.67Z"/><path class="cls-3" d="M110.21,37.23v6.06a1.16,1.16,0,0,0,1.16,1.16h0a1.19,1.19,0,0,0,.91-.45,2.41,2.41,0,1,1,0,3.06,1.16,1.16,0,0,0-.91-.45h0a1.16,1.16,0,0,0-1.16,1.16v6h6.06A1.16,1.16,0,0,1,117.43,55h0a1.19,1.19,0,0,1-.45.92,2.41,2.41,0,1,0,3.06,0,1.19,1.19,0,0,1-.45-.92h0a1.16,1.16,0,0,1,1.16-1.16h6.06v-6a1.16,1.16,0,0,0-1.16-1.16h0a1.16,1.16,0,0,0-.91.45,2.42,2.42,0,1,1,0-3.06,1.19,1.19,0,0,0,.91.45h0a1.16,1.16,0,0,0,1.16-1.16V37.23h-6.06a1.16,1.16,0,0,1-1.16-1.16h0a1.17,1.17,0,0,1,.45-.91,2.41,2.41,0,1,0-3.06,0,1.17,1.17,0,0,1,.45.91h0a1.16,1.16,0,0,1-1.16,1.16Z"/><path class="cls-2" d="M110.21,37.23h6.06a1.16,1.16,0,0,0,1.16-1.16h0a1.16,1.16,0,0,0-.45-.91,2.41,2.41,0,1,1,3.06,0,1.16,1.16,0,0,0-.45.91h0a1.16,1.16,0,0,0,1.16,1.16h6.06V31.17A1.16,1.16,0,0,1,128,30h0a1.19,1.19,0,0,1,.92.45,2.41,2.41,0,1,0,0-3.06,1.19,1.19,0,0,1-.92.45h0a1.16,1.16,0,0,1-1.15-1.16V20.63h-6.06a1.16,1.16,0,0,0-1.16,1.16h0a1.19,1.19,0,0,0,.45.92,2.41,2.41,0,1,1-3.06,0,1.19,1.19,0,0,0,.45-.92h0a1.16,1.16,0,0,0-1.16-1.16h-6.06v6.06a1.16,1.16,0,0,1-1.15,1.16h0a1.19,1.19,0,0,1-.92-.45,2.42,2.42,0,1,0,0,3.06,1.19,1.19,0,0,1,.92-.45h0a1.16,1.16,0,0,1,1.15,1.16Z"/><path class="cls-2" d="M176.42,66.49h-6.06a1.16,1.16,0,0,0-1.16,1.16h0a1.19,1.19,0,0,0,.45.91,2.41,2.41,0,1,1-3.06,0,1.16,1.16,0,0,0,.45-.91h0a1.16,1.16,0,0,0-1.16-1.16h-6v6.06a1.16,1.16,0,0,1-1.16,1.16h0a1.19,1.19,0,0,1-.92-.45,2.41,2.41,0,1,0,0,3.06,1.19,1.19,0,0,1,.92-.45h0A1.16,1.16,0,0,1,159.83,77v6.06h6A1.16,1.16,0,0,0,167,81.93h0a1.19,1.19,0,0,0-.45-.92,2.42,2.42,0,1,1,3.06,0,1.22,1.22,0,0,0-.45.92h0a1.16,1.16,0,0,0,1.16,1.16h6.06V77a1.16,1.16,0,0,1,1.16-1.16h0a1.16,1.16,0,0,1,.91.45,2.42,2.42,0,1,0,0-3.06,1.16,1.16,0,0,1-.91.45h0a1.16,1.16,0,0,1-1.16-1.16Z"/><path class="cls-4" d="M131.81,40.52c-6.15,11.47-.7,18.16-1.53,21.79a59,59,0,0,1-2.36,6.41L139,76.44A56.93,56.93,0,0,1,144.2,72c3.1-2,11.28.77,19.9-9,5.67-6.4,8.1-21.05-3.62-29.23S135.86,33,131.81,40.52Z"/><rect class="cls-2" x="132.54" y="67.31" width="21.85" height="0.44" transform="translate(-6.14 120.07) rotate(-44.56)"/><rect class="cls-2" x="123.8" y="61.22" width="21.85" height="0.44" transform="translate(23.3 158.97) rotate(-65.71)"/><path class="cls-2" d="M141.19,61.49a3.41,3.41,0,0,1-1-3.14c0-.11,0-.23,0-.34a2.21,2.21,0,0,1-1.62-.36c-1.4-1,0-5,.07-5.19l.21.07s-1.41,4.06-.15,4.94h0a2,2,0,0,0,1.52.32c.33-2.13,1.47-4.36,2.54-4.87a.9.9,0,0,1,.94.06c.72.49.64,1.55-.2,2.75A5.43,5.43,0,0,1,140.45,58c0,.13,0,.26,0,.4a3.12,3.12,0,0,0,.91,2.93c.94.66,2.48.33,3.92-.43a5,5,0,0,1,0-.54c.14-1.57,1-3.6,2.1-4.11a1.18,1.18,0,0,1,1.21.11h0c.61.43.58,1.18-.08,2.12a9.27,9.27,0,0,1-3,2.55,1.47,1.47,0,0,0,.48,1.16h0c1.47,1,4.45-1.87,4.48-1.9l.15.16c-.12.13-3.14,3-4.76,1.92a1.63,1.63,0,0,1-.57-1.23l-.2.1c-.93.46-2.68,1.09-3.85.28Zm1.7-8.36c-1,.46-2.07,2.59-2.41,4.61a5.43,5.43,0,0,0,2.87-2.14c.6-.85,1-1.94.26-2.44A.67.67,0,0,0,142.89,53.13Zm4.54,3.29c-1,.47-1.84,2.45-2,3.93a2.82,2.82,0,0,0,0,.4,8.84,8.84,0,0,0,2.84-2.43c.33-.47.79-1.34.13-1.8h0A.94.94,0,0,0,147.43,56.42Z"/><rect class="cls-9" x="124.53" y="71.81" width="16.66" height="3.26" transform="translate(199.86 209.65) rotate(-145.12)"/><rect class="cls-9" x="122.36" y="74.91" width="16.66" height="3.26" transform="translate(194.14 214.07) rotate(-145.12)"/><rect class="cls-9" x="120.2" y="78.01" width="16.66" height="3.26" transform="matrix(-0.82, -0.57, 0.57, -0.82, 188.43, 218.48)"/><path class="cls-2" d="M163.77,57.76c3.56-5.59,3.86-14.23-1.54-18.77,3.7,5.62,3.22,12.53,1.54,18.77Z"/><path class="cls-9" d="M100.7,71.47l1.2,2.43,1.86-.75A7.72,7.72,0,0,0,106,75.27l-.49,1.94,2.57.87.74-1.74a8.09,8.09,0,0,0,3.21-.09l1,1.61,2.44-1.21L114.78,75A7.86,7.86,0,0,0,117,72.58l1.73.44.87-2.57L118,69.78a8,8,0,0,0-.16-3.33l1.51-.9-1.2-2.44-1.62.65a8,8,0,0,0-2.47-2.16l.46-1.8L112,58.93l-.73,1.71a8.07,8.07,0,0,0-3.16.22l-1-1.71-2.44,1.21.74,1.84a7.89,7.89,0,0,0-2,2.29l-2-.51-.87,2.58,1.88.8a8,8,0,0,0,.13,3Zm3.84-2.18A5.56,5.56,0,1,1,110.83,74,5.56,5.56,0,0,1,104.54,69.29Z"/><path class="cls-9" d="M106.53,71.62l1,.77,1.9-2.51.7-.91a1.6,1.6,0,0,1-.4-.23,1.66,1.66,0,0,1-.53-.68l-.74,1Z"/><path class="cls-9" d="M108.48,69a2.74,2.74,0,0,0,.58.6,2.84,2.84,0,0,0,.39.25,2.79,2.79,0,1,0-1-.85Zm.74-1a1.67,1.67,0,1,1,.93.91,1.6,1.6,0,0,1-.4-.23A1.66,1.66,0,0,1,109.22,68.06Z"/><path class="cls-9" d="M147.9,88.93l1.46,1.2,1-1a5.69,5.69,0,0,0,2,.7l.25,1.37L154.5,91l0-1.31a5.78,5.78,0,0,0,2-1l1.07.74,1.2-1.46-.89-.85a5.34,5.34,0,0,0,.72-2.19l1.23-.21-.19-1.89-1.19,0a5.74,5.74,0,0,0-1.06-2.07l.7-1-1.46-1.2-.84.87a5.56,5.56,0,0,0-2.19-.66l-.22-1.28-1.88.19,0,1.3a5.54,5.54,0,0,0-1.94,1l-1.13-.79-1.21,1.47,1,1a5.38,5.38,0,0,0-.63,2l-1.42.25.18,1.89,1.42,0a5.83,5.83,0,0,0,1,1.89Zm1.82-2.49a3.87,3.87,0,1,1,5.34,1.19A3.87,3.87,0,0,1,149.72,86.44Z"/><path class="cls-4" d="M120.4,97.72l1.87.27.31-1.35a5.83,5.83,0,0,0,2.11-.46l.91,1,1.52-1.13-.7-1.11a5.53,5.53,0,0,0,1.21-1.88l1.31.09.27-1.87-1.2-.27a5.52,5.52,0,0,0-.5-2.25l.94-.81-1.13-1.52-1,.63a5.63,5.63,0,0,0-2-1.22l.08-1.23-1.87-.27-.27,1.18a5.31,5.31,0,0,0-2.21.56l-.86-1-1.51,1.13.69,1.09a5.71,5.71,0,0,0-1.13,1.9l-1.38-.1-.28,1.88,1.35.3a5.4,5.4,0,0,0,.51,2.08l-1.09.95,1.13,1.52,1.2-.76a5.39,5.39,0,0,0,1.79,1.13Zm.28-3.07a3.87,3.87,0,1,1,5.19-1.73A3.87,3.87,0,0,1,120.68,94.65Z"/><path class="cls-10" d="M129.55,95.34,129.9,98l2-.1a8,8,0,0,0,1.45,2.74l-1.09,1.67,2.16,1.66,1.26-1.41a7.88,7.88,0,0,0,3.06,1l.38,1.83,2.7-.35-.1-1.76a7.82,7.82,0,0,0,2.91-1.57l1.5,1,1.65-2.15-1.27-1.15a7.91,7.91,0,0,0,.92-3.2l1.72-.36-.34-2.69-1.75.09a7.79,7.79,0,0,0-1.63-2.84l1-1.56-2.15-1.66-1.25,1.38a8,8,0,0,0-3.06-.81l-.4-1.95-2.71.36.11,2a7.91,7.91,0,0,0-2.67,1.51l-1.73-1.14-1.66,2.16L132.44,92a8,8,0,0,0-.85,2.91Zm4.35-.81a5.55,5.55,0,1,1,4.42,6.5A5.55,5.55,0,0,1,133.9,94.53Z"/><g class="cls-11"><path class="cls-10" d="M136.71,93.77a1.16,1.16,0,1,0,1.16-1.16A1.16,1.16,0,0,0,136.71,93.77Z"/><path class="cls-10" d="M135.86,97v.42h4V97a2,2,0,0,0-4,0Z"/></g><path class="cls-10" d="M139.68,94.47a1.16,1.16,0,1,0,1.16-1.16A1.16,1.16,0,0,0,139.68,94.47Z"/><path class="cls-10" d="M138.83,97.67v.42h4v-.42a2,2,0,0,0-4,0Z"/><path class="cls-4" d="M80.31,51.78a12.57,12.57,0,0,0,1.43,3.48l-2,1.91L81.12,59l2.37-1.46a12.37,12.37,0,0,0,3,2.3l-.82,2.67,2.16.89L89.13,61a12.83,12.83,0,0,0,3.73.51l.64,2.71,2.31-.3-.08-2.77a12.63,12.63,0,0,0,3.49-1.43l1.9,2L103,60.3,101.52,58a12.83,12.83,0,0,0,2.3-3l2.66.81.91-2.16-2.45-1.31a12.94,12.94,0,0,0,.5-3.74l2.72-.63-.31-2.32-2.77.08a12.58,12.58,0,0,0-1.43-3.49l2-1.89-1.43-1.86-2.36,1.46a12.57,12.57,0,0,0-3-2.3L99.73,35l-2.16-.9L96.26,36.5A12.56,12.56,0,0,0,92.52,36l-.63-2.71-2.32.3.09,2.78a12,12,0,0,0-3.48,1.43l-1.91-2-1.86,1.42,1.47,2.37a12.16,12.16,0,0,0-2.31,3l-2.66-.82L78,43.86l2.44,1.32a12.78,12.78,0,0,0-.5,3.73l-2.72.63.31,2.32Zm4.16-3A8.23,8.23,0,1,1,92.7,57,8.23,8.23,0,0,1,84.47,48.74Z"/><path class="cls-4" d="M91,44.35a1.69,1.69,0,1,0,1.69-1.69A1.69,1.69,0,0,0,91,44.35Z"/><rect class="cls-4" x="90.91" y="45.77" width="3.57" height="0.51" transform="translate(185.39 92.06) rotate(-180)"/><rect class="cls-6" x="90.91" y="45.77" width="3.57" height="0.51" transform="translate(185.39 92.06) rotate(-180)"/><rect class="cls-4" x="89.08" y="52.86" width="7.23" height="0.51" transform="translate(185.39 106.23) rotate(-180)"/><rect class="cls-6" x="89.08" y="52.86" width="7.23" height="0.51" transform="translate(185.39 106.23) rotate(-180)"/><rect class="cls-4" x="89.08" y="54.3" width="7.23" height="0.51" transform="translate(185.39 109.11) rotate(-180)"/><rect class="cls-6" x="89.08" y="54.3" width="7.23" height="0.51" transform="translate(185.39 109.11) rotate(-180)"/><rect class="cls-4" x="89.35" y="53.37" width="6.69" height="0.93" transform="translate(185.39 107.67) rotate(-180)"/><rect class="cls-4" x="91.24" y="46.29" width="2.91" height="0.51" transform="translate(185.39 93.09) rotate(-180)"/><path class="cls-4" d="M89.74,52.86h5.91a6.44,6.44,0,0,1-1.63-3c-.23-1.36-.35-3.09-.35-3.09h-2s-.12,1.73-.35,3.09A6.44,6.44,0,0,1,89.74,52.86Z"/></svg>