<svg id="Слой_1" data-name="Слой 1" xmlns="http://www.w3.org/2000/svg" viewBox="0 0 240 240"><defs><style>.cls-1{fill:#306;}.cls-2,.cls-5{fill:#ffc800;}.cls-3{fill:#1a2e35;}.cls-4{fill:#fff;}.cls-5{opacity:0.3;}.cls-6{fill:#dcdcdc;}.cls-7{fill:#a8a8a8;}.cls-8{fill:#c8c8c8;}.cls-9{fill:#ed776a;}.cls-10{fill:#ff9abd;}.cls-11{opacity:0.1;}</style></defs><path class="cls-1" d="M8.09,113.65a1.41,1.41,0,0,1,1.47,0c.12.08.25.15.38.22l.39.2a1.39,1.39,0,0,1,.82,1.21l0,1.81,5.9-.18-.05-1.81a1.38,1.38,0,0,1,.74-1.27c.25-.14.5-.3.75-.46a1.38,1.38,0,0,1,1.46-.1l1.59.86,2.79-5.21-1.59-.85a1.39,1.39,0,0,1-.73-1.27,8.53,8.53,0,0,0,0-.88,1.4,1.4,0,0,1,.65-1.32l1.54-1-3.11-5-1.55,1a1.4,1.4,0,0,1-1.46,0l-.38-.21-.39-.2A1.38,1.38,0,0,1,16.51,98l-.06-1.81-5.9.18.06,1.81a1.38,1.38,0,0,1-.74,1.27,7.25,7.25,0,0,0-.75.47,1.4,1.4,0,0,1-1.46.09l-1.6-.85-2.79,5.2,1.6.85a1.43,1.43,0,0,1,.73,1.28,6.47,6.47,0,0,0,0,.88A1.4,1.4,0,0,1,5,108.64l-1.53,1,3.11,5Zm1.47-9.31a4.84,4.84,0,1,1,2,6.54A4.85,4.85,0,0,1,9.56,104.34Z"/><path class="cls-1" d="M208,65.77a1,1,0,0,1,.48.91v.61a1,1,0,0,1-.47.91l-1.1.63L209,72.42l1.1-.64a1,1,0,0,1,1,0c.17.11.35.21.54.31a1,1,0,0,1,.54.87v1.27h4.13V73a1,1,0,0,1,.55-.87c.18-.1.36-.2.53-.31a1,1,0,0,1,1,0l1.1.64,2.07-3.59-1.11-.63a1,1,0,0,1-.48-.91c0-.1,0-.2,0-.31s0-.2,0-.3a1,1,0,0,1,.48-.91l1.11-.64-2.07-3.58-1.1.64a1,1,0,0,1-1,0c-.17-.11-.35-.21-.53-.31a1,1,0,0,1-.55-.87V59.7h-4.13V61a1,1,0,0,1-.55.87c-.18.1-.36.2-.53.31a1,1,0,0,1-1,0l-1.1-.64-2.06,3.58Zm6.24-2.17A3.39,3.39,0,1,1,210.87,67,3.38,3.38,0,0,1,214.25,63.6Z"/><path class="cls-1" d="M18.21,21.7A16.1,16.1,0,1,0,34.31,5.6,16.1,16.1,0,0,0,18.21,21.7Zm8.58,0a7.52,7.52,0,1,1,7.52,7.52A7.52,7.52,0,0,1,26.79,21.7Z"/><polygon class="cls-1" points="31.21 6.26 37.41 6.26 37.06 1.88 31.56 1.88 31.21 6.26"/><polygon class="cls-1" points="43 8.35 47.38 12.73 50.24 9.39 46.34 5.49 43 8.35"/><polygon class="cls-1" points="49.86 18.16 49.86 24.35 54.24 24.01 54.24 18.5 49.86 18.16"/><polygon class="cls-1" points="47.77 29.95 43.4 34.33 46.74 37.18 50.63 33.29 47.77 29.95"/><polygon class="cls-1" points="37.96 36.8 31.77 36.8 32.11 41.19 37.62 41.19 37.96 36.8"/><polygon class="cls-1" points="26.18 34.72 21.8 30.34 18.94 33.68 22.84 37.58 26.18 34.72"/><polygon class="cls-1" points="19.32 24.91 19.32 18.72 14.94 19.06 14.94 24.57 19.32 24.91"/><polygon class="cls-1" points="21.41 13.12 25.78 8.74 22.44 5.89 18.55 9.78 21.41 13.12"/><path class="cls-1" d="M200.69,104.18a16.11,16.11,0,1,0,16.1-16.1A16.1,16.1,0,0,0,200.69,104.18Zm8.58,0a7.53,7.53,0,1,1,7.52,7.52A7.52,7.52,0,0,1,209.27,104.18Z"/><polygon class="cls-1" points="213.7 88.75 219.89 88.75 219.55 84.36 214.04 84.36 213.7 88.75"/><polygon class="cls-1" points="225.49 90.83 229.86 95.21 232.72 91.87 228.83 87.97 225.49 90.83"/><polygon class="cls-1" points="232.34 100.64 232.34 106.83 236.73 106.49 236.73 100.98 232.34 100.64"/><polygon class="cls-1" points="230.26 112.43 225.88 116.81 229.22 119.66 233.12 115.77 230.26 112.43"/><polygon class="cls-1" points="220.45 119.28 214.26 119.28 214.6 123.67 220.11 123.67 220.45 119.28"/><polygon class="cls-1" points="208.66 117.2 204.28 112.82 201.43 116.16 205.32 120.06 208.66 117.2"/><polygon class="cls-1" points="201.8 107.39 201.8 101.2 197.42 101.54 197.42 107.05 201.8 107.39"/><polygon class="cls-1" points="203.89 95.6 208.27 91.22 204.93 88.37 201.03 92.26 203.89 95.6"/><path class="cls-2" d="M4.7,183.27c7.49,10.16,15.31,21.94,17.21,34.67,0,.19-.29.25-.33.06a76.22,76.22,0,0,0-3.31-10.19c-4.93-1.36-9.77-2.47-12.36-7.36s-2.3-11.59-1.8-17.06C4.14,183.09,4.54,183.08,4.7,183.27Z"/><path class="cls-3" d="M18.19,207.71A84.15,84.15,0,0,0,5,186.36c0-.05-.1,0-.06.06a90.39,90.39,0,0,1,9,14.15c-2.49-2.52-5.21-4.78-7.56-7.45,0-.05-.12,0-.07.07,2.33,2.8,4.88,5.85,7.92,7.92.82,1.51,1.64,3,2.48,4.52l-.63-.31s-.07,0,0,.05c.23.12.46.24.7.34.39.72.78,1.43,1.19,2.14C18,208,18.26,207.87,18.19,207.71Z"/><path class="cls-3" d="M15.69,205.08a44.37,44.37,0,0,1-5.76-3.84s-.12,0-.07.07a30.61,30.61,0,0,0,5.74,3.91C15.7,205.27,15.78,205.13,15.69,205.08Z"/><path class="cls-2" d="M22.78,216.05c0,.15-.28.15-.28,0,0-4.19,0-8.4-.06-12.61-1.08-2.17-3.38-3.37-5-5.11a22.53,22.53,0,0,1-3-4.16A29.87,29.87,0,0,1,11,182.59c-.45-4.49,1.25-19.29,3.14-18.77,1,.26,4.16,7.59,5,10a68.94,68.94,0,0,1,3,12.28C23.66,196,23.53,206.12,22.78,216.05Z"/><path class="cls-3" d="M22.81,198l0,0a95.63,95.63,0,0,0-2.54-15.8c-1.21-5.55-2.62-10.76-5.47-15.71a.08.08,0,0,0-.14.08A58.39,58.39,0,0,1,19,178.57c-.19-.3-.42-.58-.62-.86-.08-.12-.26,0-.19.1a7.52,7.52,0,0,0,.89,1.26l0,0c1,4,1.69,8,2.29,12l-.13-.15s-.09,0-.07,0l.24.4c.31,2.05.59,4.1.87,6.13a29,29,0,0,1-8.53-11.34s0,0,0,0A23.59,23.59,0,0,0,22.41,198c.08.54.15,1.09.23,1.64,0,.11.2.08.2,0,0-.48,0-1-.05-1.45A.11.11,0,0,0,22.81,198Z"/><path class="cls-3" d="M21.09,190.27a84.35,84.35,0,0,1-7.45-12.81c0-.06-.11,0-.09,0A41.51,41.51,0,0,0,21,190.38C21,190.46,21.14,190.36,21.09,190.27Z"/><path class="cls-3" d="M17.38,176.43c-1.16-2.05-2.38-4-3.47-6.13,0-.06-.11,0-.08,0a31.36,31.36,0,0,0,3.37,6.18A.1.1,0,0,0,17.38,176.43Z"/><path class="cls-3" d="M17.83,177.32a0,0,0,1,0,0,0A0,0,0,0,0,17.83,177.32Z"/><path class="cls-2" d="M25.62,203.92a43.14,43.14,0,0,0,1,8.26l-.12.91A39,39,0,0,1,25,203.88a.3.3,0,0,1,0-.29h0a60.76,60.76,0,0,1,.92-12.48c1.3-7.7,4.14-15.1,9.51-20.87a.38.38,0,0,1,.59.12c2.17,5.51,1.41,12.09-.43,17.59a32.49,32.49,0,0,1-4.26,8.36C29.46,198.9,27.11,201.09,25.62,203.92Z"/><path class="cls-3" d="M34.77,172.82c-5.09,8.26-8.63,18.06-9.07,27.82,0,.18.29.22.31.05.12-.88.26-1.75.4-2.62h0a33.35,33.35,0,0,0,5.77-6.67s0-.09-.07-.05a69,69,0,0,1-5.61,6.1c.36-2.15.8-4.28,1.31-6.37l.4-.48c.09-.1-.06-.25-.15-.15l-.12.14a72.66,72.66,0,0,1,2.66-8.45,25.93,25.93,0,0,0,3.69-4.75,0,0,0,0,0-.07,0c-.76,1.07-1.49,2.14-2.35,3.13-.35.39-.72.76-1.08,1.14A65.14,65.14,0,0,1,35,172.93.11.11,0,0,0,34.77,172.82Z"/><path class="cls-3" d="M33.74,183c-1.64,2.22-3.52,4.33-5.05,6.62,0,.07,0,.13.11.08a33.68,33.68,0,0,0,5.05-6.63C33.9,183,33.79,183,33.74,183Z"/><path class="cls-3" d="M28.46,190.14l-.07.07c-.05,0,0,.13.08.08l.07-.07C28.59,190.17,28.51,190.1,28.46,190.14Z"/><path class="cls-2" d="M42.75,188.71a25.3,25.3,0,0,1-5.37,12.6,13.38,13.38,0,0,1-4.36,3.4c-1.89.94-3.86,2-5.82,2.78a37.82,37.82,0,0,0-2.05,7.31c-.07-.21-.13-.43-.19-.64,1.25-10.77,8.22-20,17.13-25.88A.43.43,0,0,1,42.75,188.71Z"/><path class="cls-3" d="M39.67,191.89a.08.08,0,0,0-.09-.12,36.53,36.53,0,0,0-11.35,14c-.07.15.14.28.22.13.41-.72.84-1.43,1.27-2.12h0a12.28,12.28,0,0,0,5.47-3.18s0-.09-.06-.06a12.42,12.42,0,0,1-2.57,1.81c-.83.42-1.72.69-2.59,1,.76-1.2,1.54-2.35,2.36-3.46a23.79,23.79,0,0,0,6.12-3.44s0-.14-.06-.1a61,61,0,0,1-5.68,3,50.36,50.36,0,0,1,4-4.68c.69-.36,1.39-.73,2.06-1.12,0,0,0-.12,0-.1a7.1,7.1,0,0,0-1.59.78C38,193.47,38.79,192.67,39.67,191.89Z"/><path class="cls-3" d="M39.48,195.6a2.7,2.7,0,0,0-.34.25,0,0,0,0,0,0,.05,1.82,1.82,0,0,0,.36-.2A.06.06,0,0,0,39.48,195.6Z"/><polygon class="cls-1" points="11.05 238.12 35.47 238.12 33.5 215.88 33.06 210.98 13.45 210.98 13.02 215.88 11.05 238.12"/><polygon class="cls-3" points="13.02 215.88 33.5 215.88 33.06 210.98 13.45 210.98 13.02 215.88"/><rect class="cls-1" x="12.29" y="207.55" width="21.95" height="4.85" transform="translate(46.52 419.95) rotate(-180)"/><rect class="cls-1" x="45.96" y="24.5" width="162.33" height="213.54"/><polygon class="cls-1" points="29.15 107.57 29.15 24.6 45.96 24.58 45.96 112.32 29.15 107.57"/><rect class="cls-4" x="36.04" y="19.59" width="162.4" height="211.88" transform="translate(239.5 246.19) rotate(177.66)"/><path class="cls-3" d="M31.71,23v-.07h.08l162.26-6.67h.14v.14l8.56,211.71v.06h-.06L40.43,234.7Zm171,205-.05.06-8.72-211.7.14.13L31.79,23.07l.08-.08L40.43,234.7Z"/><rect class="cls-2" x="40.26" y="226.34" width="162.4" height="5.05" transform="translate(252.14 452.59) rotate(177.66)"/><rect class="cls-5" x="178.83" y="21.85" width="11.76" height="103.85" transform="translate(372.28 139.97) rotate(177.66)"/><rect class="cls-5" x="43.9" y="125.42" width="11.76" height="103.85" transform="translate(106.74 352.5) rotate(177.66)"/><rect class="cls-2" x="31.83" y="19.68" width="162.4" height="5.05" transform="translate(226.87 39.79) rotate(177.66)"/><rect class="cls-6" x="122.95" y="35.92" width="61.61" height="77.3" transform="matrix(-1, 0.04, -0.04, -1, 310.41, 142.82)"/><rect class="cls-1" x="86.94" y="37.74" width="27.17" height="1.84" transform="translate(202.54 73.18) rotate(177.66)"/><rect class="cls-1" x="159.57" y="119.46" width="27.17" height="1.96" transform="translate(351.06 233.73) rotate(177.66)"/><rect class="cls-1" x="162.64" y="194.84" width="27.17" height="1.84" transform="translate(360.27 384.18) rotate(177.66)"/><rect class="cls-1" x="161.43" y="165.2" width="27.17" height="1.84" transform="translate(356.65 324.97) rotate(177.66)"/><path class="cls-7" d="M114.33,43.77c-4.21.09-8.41.22-12.62.36L89.1,44.6l-12.61.56c-4.2.2-8.4.41-12.6.67,4.2-.09,8.41-.22,12.61-.36L89.12,45l12.61-.56C105.93,44.24,110.13,44,114.33,43.77Z"/><path class="cls-7" d="M114.43,46.28c-4.21.09-8.41.22-12.62.36L89.2,47.1l-12.61.57c-4.2.2-8.4.41-12.6.67,4.21-.09,8.41-.22,12.62-.36l12.61-.47L101.83,47C106,46.74,110.23,46.53,114.43,46.28Z"/><path class="cls-7" d="M114.53,48.79c-4.2.09-8.41.22-12.61.36l-12.62.46-12.6.56c-4.21.21-8.41.42-12.61.68,4.21-.09,8.41-.22,12.62-.36L89.32,50l12.61-.56C106.13,49.25,110.33,49,114.53,48.79Z"/><path class="cls-7" d="M114.64,51.3c-4.21.08-8.42.22-12.62.36l-12.61.46-12.61.56c-4.2.21-8.41.42-12.61.67,4.21-.08,8.42-.22,12.62-.35l12.61-.47L102,52C106.23,51.76,110.44,51.55,114.64,51.3Z"/><path class="cls-7" d="M114.74,53.81c-2.11,0-4.21,0-6.31.1s-4.21.14-6.31.21-4.2.18-6.3.3-4.2.24-6.3.41c2.1,0,4.21,0,6.31-.1s4.2-.14,6.31-.21,4.2-.18,6.3-.3S112.64,54,114.74,53.81Z"/><path class="cls-7" d="M114.94,58.82c-4.2.09-8.41.22-12.61.36l-12.62.47-12.6.56c-4.21.2-8.41.41-12.61.67,4.21-.09,8.41-.22,12.62-.36l12.61-.46,12.61-.57C106.54,59.29,110.74,59.08,114.94,58.82Z"/><path class="cls-7" d="M115.05,61.33c-4.21.09-8.42.22-12.62.36l-12.61.47-12.61.56c-4.2.2-8.41.41-12.61.67,4.21-.09,8.42-.22,12.62-.36l12.61-.47L102.44,62C106.64,61.8,110.85,61.59,115.05,61.33Z"/><path class="cls-7" d="M115.15,63.84c-4.21.09-8.41.22-12.62.36l-12.61.47-12.61.56c-4.2.2-8.4.41-12.6.67,4.2-.09,8.41-.22,12.61-.36l12.62-.47,12.6-.56C106.75,64.31,111,64.1,115.15,63.84Z"/><path class="cls-7" d="M115.25,66.35c-4.21.09-8.41.22-12.62.36L90,67.18l-12.61.56c-4.2.2-8.4.41-12.6.67,4.21-.09,8.41-.22,12.62-.36L90,67.58,102.65,67C106.85,66.82,111.05,66.61,115.25,66.35Z"/><path class="cls-7" d="M115.35,68.86c-2.1,0-4.21,0-6.31.1s-4.2.14-6.31.21-4.2.19-6.3.3-4.2.25-6.3.42c2.11,0,4.21,0,6.31-.1s4.21-.14,6.31-.21,4.2-.19,6.3-.31S113.25,69,115.35,68.86Z"/><path class="cls-7" d="M115.56,73.88c-4.21.08-8.41.22-12.62.36l-12.61.46-12.61.56c-4.2.21-8.4.42-12.6.67,4.2-.08,8.41-.22,12.61-.35l12.61-.47L103,74.55C107.16,74.34,111.36,74.13,115.56,73.88Z"/><path class="cls-7" d="M115.66,76.39c-4.21.08-8.41.22-12.62.35l-12.61.47-12.61.56c-4.2.21-8.4.42-12.6.67,4.2-.08,8.41-.22,12.61-.36l12.62-.46,12.61-.56C107.26,76.85,111.46,76.64,115.66,76.39Z"/><path class="cls-7" d="M115.76,78.89c-4.2.09-8.41.22-12.61.36l-12.62.47-12.61.56c-4.2.21-8.4.42-12.6.67,4.21-.09,8.41-.22,12.62-.36l12.61-.46,12.61-.57C107.36,79.36,111.56,79.15,115.76,78.89Z"/><path class="cls-7" d="M115.86,81.4c-2.1,0-4.2,0-6.31.1s-4.2.15-6.3.21S99,81.9,96.94,82s-4.2.24-6.3.41c2.11,0,4.21-.05,6.32-.1s4.2-.14,6.3-.21,4.21-.18,6.31-.3S113.77,81.57,115.86,81.4Z"/><path class="cls-7" d="M116.07,86.42c-4.21.09-8.41.22-12.62.36l-12.61.47-12.61.56c-4.2.2-8.4.41-12.6.67,4.2-.09,8.41-.22,12.61-.36l12.62-.47,12.6-.56C107.67,86.89,111.87,86.68,116.07,86.42Z"/><path class="cls-7" d="M116.17,88.93c-4.21.09-8.41.22-12.62.36l-12.61.47-12.61.56c-4.2.2-8.4.41-12.6.67,4.21-.09,8.41-.22,12.62-.36L91,90.16l12.61-.56C107.77,89.4,112,89.19,116.17,88.93Z"/><path class="cls-7" d="M116.27,91.44c-4.2.09-8.41.22-12.61.36L91,92.26l-12.6.57c-4.21.2-8.41.41-12.61.67,4.21-.09,8.41-.22,12.62-.36l12.61-.47,12.61-.56C107.87,91.9,112.07,91.69,116.27,91.44Z"/><path class="cls-7" d="M116.38,94c-4.21.09-8.42.22-12.62.36l-12.61.46-12.61.56c-4.2.21-8.41.42-12.61.67,4.21-.08,8.42-.21,12.62-.35l12.61-.47,12.61-.56C108,94.41,112.18,94.2,116.38,94Z"/><path class="cls-7" d="M116.48,96.46c-2.11,0-4.21,0-6.31.1s-4.21.14-6.31.21-4.2.18-6.3.3-4.2.24-6.3.42c2.1,0,4.21,0,6.31-.11s4.2-.14,6.31-.21,4.2-.18,6.3-.3S114.38,96.63,116.48,96.46Z"/><rect class="cls-1" x="124.36" y="130.29" width="54.71" height="2.54" transform="translate(308.66 256.82) rotate(177.66)"/><rect class="cls-2" x="139.51" y="129.98" width="39.55" height="2.54" transform="translate(323.78 255.9) rotate(177.66)"/><rect class="cls-1" x="124.62" y="136.85" width="54.71" height="2.54" transform="translate(309.46 269.94) rotate(177.66)"/><rect class="cls-2" x="129.16" y="136.76" width="50.17" height="2.54" transform="translate(313.99 269.66) rotate(177.66)"/><rect class="cls-1" x="124.89" y="143.42" width="54.71" height="2.54" transform="translate(310.26 283.05) rotate(177.66)"/><rect class="cls-2" x="136.96" y="143.17" width="42.63" height="2.54" transform="translate(322.31 282.31) rotate(177.66)"/><rect class="cls-1" x="125.16" y="149.98" width="54.71" height="2.54" transform="translate(311.06 296.17) rotate(177.66)"/><rect class="cls-2" x="132.85" y="149.83" width="47.01" height="2.54" transform="translate(318.74 295.7) rotate(177.66)"/><rect class="cls-1" x="125.43" y="156.55" width="54.71" height="2.54" transform="translate(311.87 309.28) rotate(177.66)"/><rect class="cls-2" x="128.68" y="156.48" width="51.45" height="2.54" transform="translate(315.12 309.08) rotate(177.66)"/><rect class="cls-2" x="183.04" y="128.14" width="4.1" height="4.1" transform="translate(375.33 252.74) rotate(177.66)"/><rect class="cls-1" x="183.31" y="134.71" width="4.1" height="4.1" transform="translate(376.13 265.85) rotate(177.66)"/><rect class="cls-8" x="183.57" y="141.28" width="4.1" height="4.1" transform="translate(376.94 278.97) rotate(177.66)"/><rect class="cls-2" x="183.84" y="147.84" width="4.1" height="4.1" transform="translate(377.74 292.09) rotate(177.66)"/><rect class="cls-3" x="184.11" y="154.41" width="4.1" height="4.1" transform="translate(378.54 305.2) rotate(177.66)"/><rect class="cls-1" x="74.37" y="122.9" width="34.86" height="1.84" transform="matrix(-1, 0.04, -0.04, -1, 188.56, 243.8)"/><rect class="cls-8" x="96.33" y="131.39" width="13.25" height="1.84" transform="translate(211.22 260.31) rotate(177.66)"/><rect class="cls-8" x="96.97" y="147.02" width="13.25" height="1.84" transform="translate(213.13 291.54) rotate(177.66)"/><rect class="cls-8" x="97.6" y="162.66" width="13.25" height="1.84" transform="translate(215.04 322.77) rotate(177.66)"/><rect class="cls-8" x="98.24" y="178.29" width="13.25" height="1.84" transform="translate(216.95 354) rotate(177.66)"/><path class="cls-7" d="M82.83,133.13c-2.9,0-5.81.11-8.71.2l-8.72.31-8.71.4c-2.9.15-5.8.31-8.7.51,2.91,0,5.81-.11,8.72-.2l8.71-.31,8.71-.4C77,133.49,79.93,133.33,82.83,133.13Z"/><path class="cls-7" d="M82.94,135.64c-2.91,0-5.82.11-8.72.2l-8.71.31-8.71.4c-2.91.15-5.81.31-8.71.51,2.91,0,5.81-.11,8.72-.2l8.71-.31,8.71-.4C77.13,136,80,135.84,82.94,135.64Z"/><path class="cls-7" d="M83,138.15c-2.91,0-5.81.11-8.72.2l-8.71.31-8.71.4c-2.9.15-5.81.31-8.71.51,2.91,0,5.82-.11,8.72-.2l8.71-.31,8.71-.4C77.24,138.51,80.14,138.35,83,138.15Z"/><path class="cls-7" d="M83.14,140.66c-1.23,0-2.46,0-3.69,0s-2.45.07-3.68.1-2.45.12-3.68.2-2.45.17-3.67.31c1.23,0,2.46,0,3.69,0s2.45-.06,3.68-.1,2.45-.11,3.68-.2S81.92,140.79,83.14,140.66Z"/><path class="cls-7" d="M83.47,148.81c-2.9,0-5.81.11-8.71.2l-8.72.31-8.71.4c-2.9.15-5.8.31-8.7.51,2.9,0,5.81-.11,8.72-.2l8.71-.31,8.71-.4C77.67,149.17,80.57,149,83.47,148.81Z"/><path class="cls-7" d="M83.58,151.32c-2.91,0-5.82.11-8.72.2l-8.72.3-8.71.41c-2.9.15-5.8.31-8.7.51,2.91,0,5.81-.11,8.72-.2l8.71-.31,8.71-.4C77.77,151.68,80.68,151.52,83.58,151.32Z"/><path class="cls-7" d="M83.68,153.83c-2.91,0-5.81.11-8.72.2l-8.71.3-8.71.41c-2.91.15-5.81.3-8.71.51,2.91,0,5.81-.12,8.72-.2l8.71-.31,8.71-.4C77.88,154.19,80.78,154,83.68,153.83Z"/><path class="cls-7" d="M83.78,156.34c-1.23,0-2.46,0-3.69,0s-2.45.07-3.68.1-2.45.12-3.68.2-2.45.17-3.67.31c1.23,0,2.46,0,3.69,0s2.45-.07,3.68-.1,2.45-.12,3.68-.2S82.56,156.47,83.78,156.34Z"/><path class="cls-7" d="M84.11,164.49c-2.9,0-5.81.11-8.71.2l-8.72.3L58,165.4c-2.9.15-5.8.3-8.7.51,2.9,0,5.81-.12,8.71-.2l8.72-.31,8.71-.4C78.31,164.85,81.21,164.69,84.11,164.49Z"/><path class="cls-7" d="M84.22,167c-2.91,0-5.82.11-8.72.19l-8.72.31-8.71.4c-2.9.16-5.8.31-8.7.52,2.91,0,5.81-.12,8.72-.2l8.71-.31,8.71-.4C78.41,167.36,81.32,167.2,84.22,167Z"/><path class="cls-7" d="M84.32,169.5c-2.91,0-5.81.12-8.72.2l-8.71.31-8.71.4c-2.91.15-5.81.31-8.71.52,2.91,0,5.81-.12,8.72-.2l8.71-.31,8.71-.4C78.52,169.86,81.42,169.71,84.32,169.5Z"/><path class="cls-7" d="M84.42,172c-1.23,0-2.46,0-3.69,0s-2.45.07-3.68.1-2.45.11-3.68.2-2.45.17-3.67.3c1.23,0,2.46,0,3.69,0s2.45-.07,3.68-.1,2.45-.12,3.68-.2S83.2,172.15,84.42,172Z"/><path class="cls-7" d="M84.75,180.16c-2.9,0-5.81.12-8.72.2l-8.71.31-8.71.4c-2.9.15-5.8.31-8.7.52,2.9,0,5.81-.12,8.71-.2l8.72-.31,8.71-.41C79,180.52,81.85,180.37,84.75,180.16Z"/><path class="cls-7" d="M84.86,182.67c-2.91,0-5.82.12-8.72.2l-8.72.31-8.71.4c-2.9.15-5.8.31-8.7.51,2.91,0,5.81-.11,8.72-.19l8.71-.31,8.71-.41C79.05,183,82,182.88,84.86,182.67Z"/><path class="cls-7" d="M85,185.18c-2.91,0-5.82.12-8.72.2l-8.71.31-8.71.4c-2.91.15-5.81.31-8.71.51,2.91,0,5.81-.11,8.72-.2l8.71-.3,8.71-.41C79.15,185.54,82.06,185.38,85,185.18Z"/><path class="cls-7" d="M85.06,187.69c-1.23,0-2.46,0-3.69,0s-2.45.06-3.68.1-2.45.11-3.68.19-2.45.18-3.67.31c1.23,0,2.46,0,3.69,0s2.45-.07,3.68-.11,2.45-.11,3.68-.19S83.84,187.82,85.06,187.69Z"/><polygon class="cls-2" points="89.79 132.22 90.01 140.14 90.27 148.06 90.87 163.9 90.95 164.87 91.34 172.78 91.77 180.7 91.55 172.77 91.28 164.85 91.29 163.88 90.6 148.05 90.22 140.13 89.79 132.22"/><path class="cls-2" d="M89,132.88a.82.82,0,1,0,.78-.85A.82.82,0,0,0,89,132.88Z"/><path class="cls-2" d="M89.64,148.56a.82.82,0,1,0,.78-.85A.82.82,0,0,0,89.64,148.56Z"/><path class="cls-2" d="M90.28,164.23a.82.82,0,1,0,.78-.84A.8.8,0,0,0,90.28,164.23Z"/><path class="cls-2" d="M90.92,179.91a.82.82,0,1,0,.78-.85A.82.82,0,0,0,90.92,179.91Z"/><path class="cls-1" d="M177,177.89a6,6,0,1,0,.67-3A6,6,0,0,0,177,177.89Z"/><path class="cls-2" d="M177.65,174.85l5.37,2.79-.24-6A6,6,0,0,0,177.65,174.85Z"/><path class="cls-4" d="M178.84,177.81a4.18,4.18,0,1,0,4-4.35A4.19,4.19,0,0,0,178.84,177.81Z"/><rect class="cls-3" x="181.25" y="176.71" width="3.48" height="0.49" transform="translate(373.05 346.31) rotate(177.66)"/><rect class="cls-7" x="180.45" y="178.08" width="5.21" height="0.49" transform="matrix(-1, 0.04, -0.04, -1, 373.22, 349.04)"/><path class="cls-1" d="M160.06,178.58a6.41,6.41,0,0,0,.11.88,5.87,5.87,0,1,0-.11-.88Z"/><path class="cls-2" d="M160.06,178.58a6.41,6.41,0,0,0,.11.88l5.94-1.13-.25-6a6.05,6.05,0,0,0-5.8,6.29Z"/><path class="cls-4" d="M161.93,178.5a4.18,4.18,0,1,0,4-4.35A4.18,4.18,0,0,0,161.93,178.5Z"/><rect class="cls-3" x="164.34" y="177.4" width="3.48" height="0.49" transform="translate(339.26 348.38) rotate(177.66)"/><rect class="cls-7" x="163.53" y="178.77" width="5.21" height="0.49" transform="translate(339.43 351.1) rotate(177.66)"/><path class="cls-1" d="M143,179.27a6.05,6.05,0,1,0,.68-3A6.08,6.08,0,0,0,143,179.27Z"/><path class="cls-2" d="M143,179.27a6.08,6.08,0,0,0,4.11,5.49l1.94-5.74-.25-6a6,6,0,0,0-5.12,3.25A6.12,6.12,0,0,0,143,179.27Z"/><path class="cls-4" d="M144.9,179.2a4.18,4.18,0,1,0,4-4.36A4.19,4.19,0,0,0,144.9,179.2Z"/><rect class="cls-3" x="147.31" y="178.1" width="3.48" height="0.49" transform="translate(305.24 350.46) rotate(177.66)"/><rect class="cls-7" x="146.5" y="179.46" width="5.21" height="0.49" transform="translate(305.41 353.19) rotate(177.66)"/><path class="cls-1" d="M126.09,180a6.06,6.06,0,0,0,6.3,5.8,6.05,6.05,0,1,0-5.62-8.84A6.12,6.12,0,0,0,126.09,180Z"/><path class="cls-2" d="M126.09,180a6.06,6.06,0,0,0,6.3,5.8,6,6,0,0,0,3.86-1.61l-4.11-4.43-.25-6.05a6,6,0,0,0-5.12,3.25A6.12,6.12,0,0,0,126.09,180Z"/><path class="cls-4" d="M128,179.89a4.18,4.18,0,1,0,4-4.36A4.19,4.19,0,0,0,128,179.89Z"/><rect class="cls-3" x="130.37" y="178.79" width="3.48" height="0.49" transform="translate(271.41 352.53) rotate(177.66)"/><rect class="cls-7" x="129.56" y="180.15" width="5.21" height="0.49" transform="translate(271.58 355.26) rotate(177.66)"/><polygon class="cls-1" points="118.38 123.49 118.61 131.76 118.89 140.03 119.52 156.56 120.24 173.1 120.64 181.36 121.07 189.62 120.84 181.35 120.56 173.08 119.93 156.55 119.21 140.01 118.81 131.75 118.38 123.49"/><g id="IaQ7Yo"><path class="cls-2" d="M186.44,204.63a.55.55,0,0,0,.27.12l.13,0h.23l.23,0a2.2,2.2,0,0,0,.81-.4,5.43,5.43,0,0,0,1.43-1.55,2.29,2.29,0,0,0,.33-.83l0-.24v-.22l-.06-.21a1.86,1.86,0,0,0-.11-.19l0,0-.9,1a.07.07,0,0,0,0,.06.45.45,0,0,1-.08.46,8.55,8.55,0,0,1-.81.89.47.47,0,0,1-.45.12,0,0,0,0,0-.06,0l-.91,1Z"/><path class="cls-2" d="M185.87,204.1l.34.32,0,0,.92-1-.07-.06-.3-.27a.15.15,0,0,0-.24,0l-.69.74A.15.15,0,0,0,185.87,204.1Z"/><path class="cls-2" d="M188.21,201.54l.39.34.91-1,0,0-.35-.32a.16.16,0,0,0-.24,0l-.69.75A.15.15,0,0,0,188.21,201.54Z"/></g><g id="TEfYE6"><path class="cls-2" d="M186.22,209.52l.11.1,1.67,1.46a.24.24,0,0,0,.37,0l1.58-1.63.06-.06a.23.23,0,0,0-.14,0l-1.12,0-2.33.08A.39.39,0,0,0,186.22,209.52Z"/><path class="cls-2" d="M186.34,212.37l.14,0,1.34,0,2.14-.08a.31.31,0,0,0,.18,0L188.75,211l-.25.25-.1.11a.29.29,0,0,1-.41,0l-.37-.32c-.43.43-.85.87-1.28,1.31Z"/><path class="cls-2" d="M188.91,210.84c.45.4.9.79,1.35,1.2V212c0-.78,0-1.57-.08-2.35,0,0,0-.05,0-.07Z"/><path class="cls-2" d="M186.19,212.19c.16-.16.32-.32.47-.49s.51-.51.76-.77l0,0c-.45-.4-.91-.79-1.35-1.2C186.09,209.75,186.17,212.13,186.19,212.19Z"/></g><g id="aiZGp2"><path class="cls-2" d="M121.71,204.27a3,3,0,0,1,.24.92h0l.8,0h0v-.08a1.91,1.91,0,0,0-.06-.33,2.41,2.41,0,0,0-.21-.5h0l-.75,0Z"/><path class="cls-2" d="M121.82,206.35h0l.75,0h0a2.41,2.41,0,0,0,.17-.58c0-.1,0-.2,0-.29h0v0h0l-.8,0v0a1.34,1.34,0,0,1,0,.2,1.65,1.65,0,0,1,0,.31,2.34,2.34,0,0,1-.09.38Z"/><path class="cls-2" d="M118.64,206.72h0a1.49,1.49,0,0,0,.23.27,1.43,1.43,0,0,0,.32.28,2.71,2.71,0,0,0,.37.21,2.43,2.43,0,0,0,.38.13l.32,0h0l0,0h0a2.21,2.21,0,0,1-.62-.56,2,2,0,0,1-.26-.39h0l-.76,0Z"/><path class="cls-2" d="M119.34,205.3l1.07,0,0-.93h0l-.82,0h0a2.12,2.12,0,0,0-.14.55,1.53,1.53,0,0,0,0,.3Z"/><path class="cls-2" d="M119.36,205.55a.13.13,0,0,0,0,.06.78.78,0,0,0,0,.16,1.55,1.55,0,0,0,0,.21,2.69,2.69,0,0,0,.16.45h0l.84,0h0l0-.9Z"/><path class="cls-2" d="M120.61,204.32l0,.93,1,0a.15.15,0,0,1,0-.07s0-.1,0-.15l-.06-.24a2.75,2.75,0,0,0-.17-.45,0,0,0,0,0,0,0l-.8,0Z"/><path class="cls-2" d="M120.66,205.51l0,.87v0h0l.81,0s0,0,0,0a1.88,1.88,0,0,0,.12-.48,1.9,1.9,0,0,0,0-.25.86.86,0,0,0,0-.16h0l-1,0S120.66,205.5,120.66,205.51Z"/><path class="cls-2" d="M118.22,205.35l.87,0a3.05,3.05,0,0,1,.16-.95h0l-.8,0h0a2.88,2.88,0,0,0-.18.59c0,.11,0,.22,0,.33Z"/><path class="cls-2" d="M118.22,205.59a.13.13,0,0,1,0,.06,1.57,1.57,0,0,0,0,.23,2.47,2.47,0,0,0,.18.52s0,0,0,.08h0l.8,0h0l0-.08a3.31,3.31,0,0,1-.12-.42,1.67,1.67,0,0,1,0-.31.22.22,0,0,1,0-.08h0Z"/><path class="cls-2" d="M118.56,204.16h0l.76,0,0,0a2.57,2.57,0,0,1,.35-.57,1.85,1.85,0,0,1,.28-.28l.16-.13h0v0a2.23,2.23,0,0,0-.76.27A2.3,2.3,0,0,0,118.56,204.16Z"/><path class="cls-2" d="M120.89,207.64s0,0,0,0l.24,0a2.44,2.44,0,0,0,.44-.19,2.19,2.19,0,0,0,.44-.31,3.45,3.45,0,0,0,.26-.28l.16-.24h0l-.71,0h0a3.75,3.75,0,0,1-.24.44,3.27,3.27,0,0,1-.3.35,2.26,2.26,0,0,1-.28.25Z"/><path class="cls-2" d="M120.72,203.11l.11.08a2.6,2.6,0,0,1,.36.3,2.71,2.71,0,0,1,.38.51l0,0h0l.69,0a2.26,2.26,0,0,0-1.6-.91h0Z"/><path class="cls-2" d="M119.72,206.68a2.33,2.33,0,0,0,.37.46,2.15,2.15,0,0,0,.41.32l0-.81Z"/><path class="cls-2" d="M120.7,206.64l0,.8a2.52,2.52,0,0,0,.69-.83Z"/><path class="cls-2" d="M119.64,204.12l.72,0,0-.77a2.25,2.25,0,0,0-.39.36A1.9,1.9,0,0,0,119.64,204.12Z"/><path class="cls-2" d="M120.57,203.34l0,.74.69,0A2.13,2.13,0,0,0,120.57,203.34Z"/></g><g id="uGJA8C"><path class="cls-2" d="M119.07,213.75a5.54,5.54,0,0,0,1.08,1.58c.24.26.49.49.74.74l.06.05c.18-.21.36-.4.52-.6a6.21,6.21,0,0,0,1-1.64,2.28,2.28,0,0,0,.22-.85,1.81,1.81,0,0,0-1.49-1.87,1.94,1.94,0,0,0-2.21,1.12A1.88,1.88,0,0,0,119.07,213.75Zm1.63-2a1.18,1.18,0,1,1-1.07,1.25A1.18,1.18,0,0,1,120.7,211.72Z"/></g><path class="cls-7" d="M181.48,201.51c-2.91,0-5.81.11-8.72.2l-8.71.31-8.71.4c-2.91.15-5.81.31-8.71.51,2.91,0,5.82-.11,8.72-.2l8.71-.31,8.71-.4C175.68,201.87,178.58,201.71,181.48,201.51Z"/><path class="cls-7" d="M181.58,204c-1.45,0-2.91,0-4.36,0s-2.91.09-4.36.13-2.9.13-4.35.23-2.9.19-4.35.33c1.45,0,2.91,0,4.36,0s2.91-.09,4.36-.13,2.9-.14,4.35-.23S180.13,204.16,181.58,204Z"/><path class="cls-7" d="M181.82,209.87c-2.91,0-5.81.11-8.72.2l-8.71.3-8.71.41c-2.9.15-5.81.3-8.71.51,2.91,0,5.82-.12,8.72-.2l8.71-.31,8.71-.4C176,210.23,178.92,210.07,181.82,209.87Z"/><path class="cls-7" d="M181.92,212.37c-1.45,0-2.91,0-4.36,0s-2.91.08-4.36.13-2.9.13-4.35.22-2.9.19-4.35.34c1.45,0,2.91,0,4.36,0s2.91-.08,4.36-.13,2.9-.13,4.35-.22S180.47,212.52,181.92,212.37Z"/><path class="cls-7" d="M112,204.34c-2.9,0-5.81.12-8.72.2l-8.71.31-8.71.4c-2.9.16-5.8.31-8.7.52,2.9,0,5.81-.12,8.71-.2l8.72-.31,8.71-.4C106.18,204.7,109.08,204.55,112,204.34Z"/><path class="cls-7" d="M112.08,206.85c-1.45,0-2.9,0-4.36,0s-2.9.08-4.36.13-2.9.13-4.35.22-2.9.19-4.35.33c1.46,0,2.91,0,4.36,0s2.91-.08,4.36-.13,2.9-.13,4.36-.22S110.64,207,112.08,206.85Z"/><path class="cls-7" d="M112.32,212.7c-2.9,0-5.81.11-8.71.2l-8.72.31-8.71.4c-2.9.15-5.8.31-8.7.51,2.9,0,5.81-.11,8.71-.2l8.72-.31,8.71-.4C106.52,213.06,109.42,212.9,112.32,212.7Z"/><path class="cls-7" d="M112.43,215.21c-1.46,0-2.91,0-4.37,0s-2.9.09-4.35.13-2.91.13-4.36.23-2.9.19-4.35.33c1.46,0,2.91,0,4.36,0s2.91-.09,4.36-.13,2.91-.13,4.36-.23S111,215.35,112.43,215.21Z"/><polygon class="cls-1" points="208.29 237.96 208.29 24.42 53.83 17.32 53.83 230.86 208.29 237.96"/><polygon class="cls-1" points="38.41 99.56 38.41 16.59 53.83 17.32 53.83 105.06 38.41 99.56"/><polygon class="cls-4" points="32.65 224.61 198.56 229.23 198.62 229.23 198.62 229.17 198.76 224.07 204.51 17.86 204.65 12.83 204.65 12.69 204.51 12.69 71.37 8.98 71.18 9.06 60.48 13.85 38.32 23.74 32.8 219.45 32.79 219.45 32.65 224.61"/><path class="cls-3" d="M32.65,224.61s166.44,4.41,165.86,4.62L204.4,12.68l.24.26S71.12,9.14,71.44,9.12L38.37,23.86c.22-.66-5.63,195.76-5.58,195.59l-.14,5.16Zm0,0,.14-5.16s5.3-195.91,5.47-195.83L71.31,8.84c0-.09,133.29,3.65,133.35,3.61h.24v.25c.06.06-6.21,216.59-6.17,216.65s-166-4.78-166.08-4.74Z"/><path class="cls-3" d="M204.51,12.69l.13.14v-.14Zm-5.95,216.54h.06v-.06Zm0-.06h.06l.14-5.1,5.75-206.21.13-5h-.13l-.14,5L198.7,224.07ZM71.18,9.06l133.33,3.77v-.14L71.37,9ZM32.65,224.61l.15-5.16h0Zm0,0,165.91,4.62v-.06Z"/><polygon class="cls-2" points="32.65 224.61 198.56 229.23 198.62 229.23 198.62 229.17 198.76 224.07 198.7 224.07 50.73 219.94 38.72 219.61 32.8 219.45 32.79 219.45 32.65 224.61"/><rect class="cls-5" x="185.08" y="17.51" width="12.02" height="106.17" transform="translate(380.15 146.48) rotate(-178.4)"/><rect class="cls-5" x="40.19" y="113.68" width="12.02" height="106.17" transform="translate(87.75 334.74) rotate(-178.4)"/><polygon class="cls-2" points="71.18 9.06 60.48 13.85 186.57 17.36 198.58 17.69 204.37 17.85 204.51 17.86 204.65 12.83 204.65 12.69 204.51 12.69 71.37 8.98 71.18 9.06"/><rect class="cls-6" x="127.96" y="29.72" width="62.99" height="79.03" transform="translate(316.93 142.88) rotate(-178.4)"/><rect class="cls-1" x="93.8" y="27.93" width="27.78" height="1.88" transform="translate(214.53 60.72) rotate(-178.4)"/><rect class="cls-1" x="162.14" y="116.37" width="27.78" height="2.01" transform="translate(348.72 239.61) rotate(-178.4)"/><rect class="cls-1" x="159.99" y="193.48" width="27.78" height="1.88" transform="translate(342.28 393.6) rotate(-178.4)"/><rect class="cls-1" x="160.84" y="163.16" width="27.78" height="1.88" transform="translate(344.82 333) rotate(-178.4)"/><path class="cls-7" d="M121.41,35.05c-4.3-.2-8.6-.36-12.9-.52l-12.89-.41-12.9-.31c-4.3-.08-8.6-.16-12.9-.2,4.29.21,8.59.37,12.89.52l12.9.41,12.9.31C112.81,34.94,117.11,35,121.41,35.05Z"/><path class="cls-7" d="M121.34,37.62c-4.3-.21-8.6-.37-12.9-.52l-12.89-.41-12.9-.31c-4.3-.09-8.6-.17-12.91-.2,4.3.21,8.6.37,12.9.52l12.89.41,12.9.31C112.73,37.5,117,37.58,121.34,37.62Z"/><path class="cls-7" d="M121.27,40.18c-4.3-.2-8.6-.36-12.9-.52l-12.9-.4L82.58,39c-4.3-.09-8.61-.17-12.91-.2,4.3.2,8.6.36,12.9.52l12.89.4,12.9.31C112.66,40.07,117,40.15,121.27,40.18Z"/><path class="cls-7" d="M121.19,42.75c-4.29-.21-8.59-.37-12.89-.52l-12.9-.41-12.9-.31c-4.3-.08-8.6-.16-12.9-.2,4.3.21,8.6.37,12.9.52l12.89.41,12.9.31C112.59,42.64,116.89,42.72,121.19,42.75Z"/><path class="cls-7" d="M121.12,45.32c-2.14-.15-4.29-.25-6.44-.34s-4.3-.15-6.45-.23-4.3-.11-6.45-.13-4.3,0-6.45,0c2.14.14,4.29.24,6.44.34s4.3.15,6.45.22,4.3.11,6.45.13S119,45.34,121.12,45.32Z"/><path class="cls-7" d="M121,50.45c-4.3-.21-8.6-.37-12.89-.52l-12.9-.41-12.9-.31c-4.3-.09-8.6-.17-12.9-.2,4.29.21,8.59.37,12.89.52l12.9.41,12.9.31C112.38,50.33,116.68,50.41,121,50.45Z"/><path class="cls-7" d="M120.91,53c-4.3-.2-8.6-.36-12.9-.51l-12.89-.41-12.9-.31c-4.3-.09-8.6-.17-12.9-.2,4.29.2,8.59.36,12.89.52l12.9.4,12.9.31C112.31,52.9,116.61,53,120.91,53Z"/><path class="cls-7" d="M120.84,55.58c-4.3-.21-8.6-.37-12.9-.52l-12.89-.41-12.9-.31c-4.3-.08-8.6-.16-12.91-.2,4.3.21,8.6.37,12.9.52L95,55.07l12.9.31C112.23,55.47,116.53,55.55,120.84,55.58Z"/><path class="cls-7" d="M120.77,58.15c-4.3-.21-8.6-.37-12.9-.52L95,57.22l-12.89-.31c-4.31-.09-8.61-.17-12.91-.2,4.3.21,8.6.36,12.9.52L95,57.64l12.9.31C112.16,58,116.46,58.11,120.77,58.15Z"/><path class="cls-7" d="M120.69,60.71c-2.14-.14-4.29-.24-6.44-.34s-4.3-.15-6.45-.22-4.3-.11-6.45-.14-4.3,0-6.45,0c2.14.15,4.29.25,6.44.34s4.3.15,6.45.23,4.3.11,6.45.13S118.54,60.74,120.69,60.71Z"/><path class="cls-7" d="M120.55,65.84c-4.3-.2-8.59-.36-12.89-.51l-12.9-.41-12.9-.31c-4.3-.09-8.6-.17-12.9-.2,4.29.2,8.59.36,12.89.52l12.9.4,12.9.31C112,65.73,116.25,65.81,120.55,65.84Z"/><path class="cls-7" d="M120.48,68.41c-4.3-.2-8.6-.36-12.89-.52l-12.9-.41-12.9-.31c-4.3-.08-8.6-.16-12.9-.2,4.29.21,8.59.37,12.89.52l12.9.41,12.9.31C111.88,68.3,116.18,68.38,120.48,68.41Z"/><path class="cls-7" d="M120.41,71c-4.3-.21-8.6-.37-12.9-.52l-12.89-.41-12.9-.31c-4.3-.09-8.6-.17-12.91-.2,4.3.21,8.6.37,12.9.52l12.9.41,12.9.31C111.81,70.86,116.11,70.94,120.41,71Z"/><path class="cls-7" d="M120.34,73.54c-2.15-.14-4.3-.24-6.45-.34s-4.3-.15-6.45-.22-4.3-.11-6.45-.14-4.3,0-6.45,0c2.15.15,4.3.25,6.44.34s4.3.16,6.45.23,4.3.11,6.45.13S118.18,73.57,120.34,73.54Z"/><path class="cls-7" d="M120.19,78.68c-4.29-.21-8.59-.37-12.89-.52l-12.9-.41-12.9-.31c-4.3-.09-8.6-.17-12.9-.2,4.3.2,8.6.36,12.89.52l12.9.4,12.9.32C111.59,78.56,115.89,78.64,120.19,78.68Z"/><path class="cls-7" d="M120.12,81.24c-4.3-.2-8.59-.36-12.89-.52l-12.9-.41L81.43,80c-4.3-.08-8.6-.16-12.9-.2,4.3.21,8.59.37,12.89.52l12.9.41,12.9.31C111.52,81.13,115.82,81.21,120.12,81.24Z"/><path class="cls-7" d="M120.05,83.81c-4.3-.21-8.59-.37-12.89-.52l-12.9-.41-12.9-.31c-4.3-.09-8.6-.17-12.9-.2,4.29.21,8.59.37,12.89.52l12.9.41,12.9.31C111.45,83.69,115.75,83.77,120.05,83.81Z"/><path class="cls-7" d="M120,86.37c-4.3-.2-8.6-.36-12.89-.51l-12.9-.41-12.9-.31c-4.3-.09-8.6-.17-12.9-.2,4.29.2,8.59.36,12.89.52l12.9.4,12.9.31C111.38,86.26,115.68,86.34,120,86.37Z"/><path class="cls-7" d="M119.91,88.94c-2.15-.15-4.3-.25-6.45-.34s-4.3-.15-6.44-.23-4.3-.1-6.46-.13-4.3,0-6.45,0c2.15.15,4.3.25,6.45.34s4.29.15,6.44.23,4.3.1,6.45.13S117.76,89,119.91,88.94Z"/><rect class="cls-1" x="125.42" y="125.91" width="55.93" height="2.6" transform="translate(303.16 258.64) rotate(-178.4)"/><rect class="cls-2" x="140.91" y="126.13" width="40.44" height="2.6" transform="translate(318.64 259.29) rotate(-178.4)"/><rect class="cls-1" x="125.23" y="132.63" width="55.93" height="2.6" transform="translate(302.6 272.07) rotate(-178.4)"/><rect class="cls-2" x="129.87" y="132.69" width="51.29" height="2.6" transform="translate(307.24 272.26) rotate(-178.4)"/><rect class="cls-1" x="125.04" y="139.34" width="55.93" height="2.6" transform="translate(302.04 285.49) rotate(-178.4)"/><rect class="cls-2" x="137.38" y="139.52" width="43.59" height="2.6" transform="translate(314.37 286) rotate(-178.4)"/><rect class="cls-1" x="124.86" y="146.06" width="55.93" height="2.6" transform="translate(301.48 298.91) rotate(-178.4)"/><rect class="cls-2" x="132.72" y="146.17" width="48.06" height="2.6" transform="translate(309.34 299.24) rotate(-178.4)"/><rect class="cls-1" x="124.67" y="152.77" width="55.93" height="2.6" transform="translate(300.92 312.34) rotate(-178.4)"/><rect class="cls-2" x="128" y="152.82" width="52.6" height="2.6" transform="translate(304.24 312.48) rotate(-178.4)"/><rect class="cls-2" x="185.43" y="126.06" width="4.19" height="4.19" transform="translate(371.41 261.49) rotate(-178.4)"/><rect class="cls-1" x="185.24" y="132.78" width="4.19" height="4.19" transform="translate(370.85 274.92) rotate(-178.4)"/><rect class="cls-8" x="185.05" y="139.5" width="4.19" height="4.19" transform="translate(370.29 288.34) rotate(-178.4)"/><rect class="cls-2" x="184.87" y="146.21" width="4.19" height="4.19" transform="translate(369.72 301.77) rotate(-178.4)"/><rect class="cls-3" x="184.68" y="152.93" width="4.19" height="4.19" transform="translate(369.16 315.19) rotate(-178.4)"/><rect class="cls-1" x="75" y="114.18" width="35.64" height="1.88" transform="translate(182.39 232.78) rotate(-178.4)"/><rect class="cls-8" x="96.83" y="123.62" width="13.55" height="1.88" transform="translate(203.69 251.96) rotate(-178.4)"/><rect class="cls-8" x="96.38" y="139.61" width="13.55" height="1.88" transform="translate(202.36 283.92) rotate(-178.4)"/><rect class="cls-8" x="95.94" y="155.6" width="13.55" height="1.88" transform="translate(201.02 315.88) rotate(-178.4)"/><rect class="cls-8" x="95.49" y="171.59" width="13.55" height="1.88" transform="translate(199.68 347.85) rotate(-178.4)"/><path class="cls-7" d="M83,124c-3-.17-5.94-.29-8.9-.41l-8.91-.3-8.92-.2c-3,0-5.94-.09-8.91-.08q4.45.24,8.91.4l8.9.3,8.92.2C77.08,124,80.05,124,83,124Z"/><path class="cls-7" d="M83,126.55q-4.45-.24-8.91-.4l-8.91-.3-8.91-.2c-3-.05-5.94-.09-8.91-.09,3,.17,5.93.29,8.9.41l8.91.3,8.91.2C77,126.51,80,126.56,83,126.55Z"/><path class="cls-7" d="M82.88,129.12c-3-.17-5.94-.29-8.91-.41l-8.91-.29-8.91-.2c-3-.05-5.94-.1-8.91-.09,3,.17,5.93.29,8.9.41l8.91.29L74,129C76.93,129.08,79.91,129.12,82.88,129.12Z"/><path class="cls-7" d="M82.81,131.69c-1.26-.12-2.51-.2-3.76-.27s-2.51-.1-3.77-.15-2.51-.06-3.76-.06-2.51,0-3.77.06c1.25.12,2.51.19,3.76.26s2.51.1,3.76.15,2.51.06,3.77.06S81.55,131.74,82.81,131.69Z"/><path class="cls-7" d="M82.57,140q-4.44-.24-8.9-.4l-8.91-.3-8.91-.2c-3-.05-5.94-.09-8.92-.09,3,.17,5.94.29,8.91.41l8.91.3,8.91.19C76.63,140,79.6,140,82.57,140Z"/><path class="cls-7" d="M82.5,142.59c-3-.17-5.93-.29-8.9-.41l-8.91-.29-8.91-.2c-3-.05-6-.1-8.92-.09,3,.17,5.94.29,8.91.41l8.91.29,8.91.2C76.56,142.55,79.53,142.59,82.5,142.59Z"/><path class="cls-7" d="M82.43,145.16c-3-.17-5.94-.3-8.9-.41l-8.91-.3-8.92-.2c-3-.05-5.94-.09-8.91-.09,3,.17,5.94.3,8.91.41l8.9.3,8.92.2C76.49,145.12,79.46,145.16,82.43,145.16Z"/><path class="cls-7" d="M82.36,147.72c-1.25-.12-2.51-.19-3.76-.26s-2.51-.1-3.76-.16-2.51-.05-3.77-.05-2.51,0-3.77.05c1.26.12,2.51.2,3.76.27s2.51.1,3.77.15,2.51.06,3.76.06S81.1,147.77,82.36,147.72Z"/><path class="cls-7" d="M82.13,156.06c-3-.17-5.94-.29-8.91-.41l-8.91-.29-8.91-.21c-3,0-5.94-.09-8.91-.08,3,.17,5.93.29,8.9.4l8.91.3,8.91.2C76.18,156,79.16,156.06,82.13,156.06Z"/><path class="cls-7" d="M82.06,158.63c-3-.17-5.94-.3-8.91-.41l-8.91-.3-8.91-.2c-3-.05-5.94-.09-8.92-.09,3,.17,5.94.29,8.91.41l8.91.3,8.91.2C76.11,158.59,79.08,158.63,82.06,158.63Z"/><path class="cls-7" d="M82,161.19c-3-.17-5.93-.29-8.9-.41l-8.91-.29-8.91-.2c-3,0-5.94-.09-8.92-.09,3,.17,5.94.29,8.91.41l8.91.29,8.91.2C76,161.15,79,161.19,82,161.19Z"/><path class="cls-7" d="M81.91,163.76c-1.25-.12-2.5-.2-3.76-.27s-2.5-.1-3.76-.15l-3.76-.06c-1.26,0-2.52,0-3.77.06,1.25.12,2.5.19,3.76.26s2.51.1,3.76.16,2.51.05,3.76.05S80.66,163.81,81.91,163.76Z"/><path class="cls-7" d="M81.68,172.09q-4.46-.24-8.9-.4l-8.91-.3-8.92-.2c-3-.05-5.94-.09-8.91-.09,3,.17,5.94.29,8.91.41l8.9.3,8.92.2C75.74,172.06,78.71,172.1,81.68,172.09Z"/><path class="cls-7" d="M81.61,174.66c-3-.17-5.94-.29-8.91-.41L63.79,174l-8.91-.2c-3,0-5.94-.1-8.91-.09,3,.17,5.93.29,8.9.41l8.91.29,8.91.2C75.67,174.62,78.64,174.66,81.61,174.66Z"/><path class="cls-7" d="M81.54,177.23c-3-.17-5.94-.29-8.91-.41l-8.91-.3-8.91-.2c-3,0-5.94-.09-8.91-.09,3,.17,5.93.3,8.9.41l8.91.3,8.91.2C75.59,177.19,78.57,177.23,81.54,177.23Z"/><path class="cls-7" d="M81.47,179.79c-1.26-.12-2.51-.19-3.76-.26s-2.51-.1-3.77-.15-2.51-.06-3.76-.06-2.51,0-3.77.05c1.25.13,2.51.2,3.76.27s2.51.1,3.76.15,2.51.06,3.77.06S80.21,179.84,81.47,179.79Z"/><polygon class="cls-2" points="90.18 123.55 89.85 131.64 89.56 139.74 89.06 155.93 89.08 156.93 88.92 165.03 88.8 173.13 89.13 165.03 89.42 156.94 89.49 155.94 89.89 139.75 90.06 131.65 90.18 123.55"/><path class="cls-2" d="M89.33,124.16a.83.83,0,1,0,1.66,0,.84.84,0,0,0-.81-.86A.83.83,0,0,0,89.33,124.16Z"/><path class="cls-2" d="M88.88,140.2a.84.84,0,1,0,1.67.05.84.84,0,0,0-1.67-.05Z"/><path class="cls-2" d="M88.43,156.23a.84.84,0,0,0,1.67.05.84.84,0,1,0-1.67-.05Z"/><path class="cls-2" d="M88,172.27a.83.83,0,1,0,.85-.81A.83.83,0,0,0,88,172.27Z"/><path class="cls-1" d="M175.91,176.24a6.18,6.18,0,1,0,.9-3.05A6.17,6.17,0,0,0,175.91,176.24Z"/><path class="cls-2" d="M176.81,173.19l5.28,3.22.17-6.18A6.17,6.17,0,0,0,176.81,173.19Z"/><path class="cls-4" d="M177.81,176.29a4.28,4.28,0,1,0,4.4-4.16A4.28,4.28,0,0,0,177.81,176.29Z"/><rect class="cls-3" x="180.33" y="175.46" width="3.56" height="0.5" transform="translate(359.26 356.42) rotate(-178.4)"/><rect class="cls-7" x="179.41" y="176.86" width="5.33" height="0.5" transform="translate(359.14 359.21) rotate(-178.4)"/><path class="cls-1" d="M158.61,175.75a5.45,5.45,0,0,0,0,.91,6.18,6.18,0,1,0,.86-4A6.11,6.11,0,0,0,158.61,175.75Z"/><path class="cls-2" d="M158.61,175.75a5.45,5.45,0,0,0,0,.91l6.14-.73.17-6.19a6.19,6.19,0,0,0-5.45,3A6.11,6.11,0,0,0,158.61,175.75Z"/><path class="cls-4" d="M160.51,175.81a4.28,4.28,0,1,0,4.4-4.16A4.28,4.28,0,0,0,160.51,175.81Z"/><rect class="cls-3" x="163.03" y="174.98" width="3.56" height="0.5" transform="translate(324.67 354.98) rotate(-178.4)"/><rect class="cls-7" x="162.11" y="176.37" width="5.33" height="0.5" transform="translate(324.56 357.77) rotate(-178.4)"/><path class="cls-1" d="M141.19,175.27a6.17,6.17,0,0,0,3.8,5.88,6.07,6.07,0,0,0,2.21.47,6.19,6.19,0,1,0-6-6.35Z"/><path class="cls-2" d="M141.19,175.27a6.17,6.17,0,0,0,3.8,5.88l2.38-5.71.17-6.18a6.18,6.18,0,0,0-6.35,6Z"/><path class="cls-4" d="M143.09,175.32a4.28,4.28,0,1,0,4.4-4.15A4.29,4.29,0,0,0,143.09,175.32Z"/><rect class="cls-3" x="145.61" y="174.49" width="3.56" height="0.5" transform="matrix(-1, -0.03, 0.03, -1, 289.86, 353.52)"/><rect class="cls-7" x="144.69" y="175.89" width="5.33" height="0.5" transform="translate(289.74 356.31) rotate(-178.4)"/><path class="cls-1" d="M123.86,174.79a6.2,6.2,0,1,0,.91-3A6.09,6.09,0,0,0,123.86,174.79Z"/><path class="cls-2" d="M123.86,174.79a6.19,6.19,0,0,0,10.07,5L130.05,175l.17-6.18a6.16,6.16,0,0,0-5.45,3A6.09,6.09,0,0,0,123.86,174.79Z"/><path class="cls-4" d="M125.77,174.84a4.28,4.28,0,1,0,4.39-4.16A4.27,4.27,0,0,0,125.77,174.84Z"/><rect class="cls-3" x="128.28" y="174.01" width="3.56" height="0.5" transform="translate(255.23 352.08) rotate(-178.4)"/><rect class="cls-7" x="127.36" y="175.41" width="5.33" height="0.5" transform="translate(255.11 354.87) rotate(-178.4)"/><polygon class="cls-1" points="119.95 116.64 119.61 125.1 119.32 133.55 118.8 150.46 118.38 167.37 118.2 175.83 118.06 184.29 118.4 175.84 118.69 167.38 119.21 150.47 119.64 133.56 119.81 125.1 119.95 116.64"/><g id="IaQ7Yo-2" data-name="IaQ7Yo"><path class="cls-2" d="M183.69,204.18a.6.6,0,0,0,.26.14l.14,0h.23a1.6,1.6,0,0,0,.23,0,2.17,2.17,0,0,0,.86-.35,5.68,5.68,0,0,0,1.57-1.48,2.53,2.53,0,0,0,.39-.83,2,2,0,0,0,0-.24v-.23a1,1,0,0,0,0-.22,1.07,1.07,0,0,0-.09-.19l0,0-1,.93s0,0,0,.06a.48.48,0,0,1-.12.47,8.84,8.84,0,0,1-.89.84.45.45,0,0,1-.47.09s0,0,0,0l-1,.95Z"/><path class="cls-2" d="M183.14,203.6l.33.35,0,0,1-1-.08-.07-.28-.29a.15.15,0,0,0-.25,0l-.75.71A.15.15,0,0,0,183.14,203.6Z"/><path class="cls-2" d="M185.71,201.15l.37.38,1-.95s0,0,0,0l-.34-.36a.15.15,0,0,0-.24,0l-.76.72A.15.15,0,0,0,185.71,201.15Z"/></g><g id="TEfYE6-2" data-name="TEfYE6"><path class="cls-2" d="M183.12,209.15l.1.11,1.6,1.61a.25.25,0,0,0,.38,0l1.73-1.55.07-.06a.28.28,0,0,0-.15,0l-1.14,0-2.38-.08A.39.39,0,0,0,183.12,209.15Z"/><path class="cls-2" d="M183,212.07l.14,0,1.37,0,2.19.07a.39.39,0,0,0,.18,0l-1.33-1.34-.26.24-.12.11a.3.3,0,0,1-.42,0l-.35-.36-1.4,1.24Z"/><path class="cls-2" d="M185.77,210.68l1.29,1.32s0,0,0-.07c0-.8.05-1.6.08-2.4,0,0,0-.06,0-.08Z"/><path class="cls-2" d="M182.9,211.87l.51-.46.83-.74,0,0-1.3-1.31S182.89,211.8,182.9,211.87Z"/></g><g id="aiZGp2-2" data-name="aiZGp2"><path class="cls-2" d="M117.69,199.28a3.08,3.08,0,0,1,.18.95h0l.82,0h0v-.09c0-.11,0-.23,0-.34a3.16,3.16,0,0,0-.17-.52h0l-.77,0Z"/><path class="cls-2" d="M117.65,201.4h0l.76,0h0a2.34,2.34,0,0,0,.2-.58,1.47,1.47,0,0,0,0-.29h0v0h0l-.82,0s0,0,0,0,0,.14,0,.21l-.06.31-.12.38Z"/><path class="cls-2" d="M114.39,201.56h0a3.06,3.06,0,0,0,.21.29,3.14,3.14,0,0,0,.32.31,2.21,2.21,0,0,0,.36.23,1.8,1.8,0,0,0,.38.16,1.87,1.87,0,0,0,.32.08h.07l0,0a2.44,2.44,0,0,1-.59-.61,1.76,1.76,0,0,1-.24-.42h0l-.78,0Z"/><path class="cls-2" d="M115.2,200.16l1.09,0,0-.95h0l-.83,0h0a2.84,2.84,0,0,0-.19.56c0,.1,0,.2-.05.3Z"/><path class="cls-2" d="M115.2,200.41v.07a.86.86,0,0,1,0,.16l0,.22a2.75,2.75,0,0,0,.13.47h0l.86,0h0l0-.92Z"/><path class="cls-2" d="M116.56,199.25l0,.95,1.07,0a.17.17,0,0,0,0-.07.86.86,0,0,0,0-.16,2,2,0,0,0,0-.24,2.9,2.9,0,0,0-.14-.48h0l-.82,0Z"/><path class="cls-2" d="M116.53,200.46l0,.9h0l.83,0h0a2.6,2.6,0,0,0,.16-.47,2.34,2.34,0,0,0,0-.26c0-.05,0-.11,0-.17h0l-1,0S116.53,200.45,116.53,200.46Z"/><path class="cls-2" d="M114.05,200.13l.89,0a3.07,3.07,0,0,1,.23-.95h0l-.82,0h0a2.63,2.63,0,0,0-.22.59,1.86,1.86,0,0,0,0,.34Z"/><path class="cls-2" d="M114,200.37v.06a2,2,0,0,0,0,.25,2.72,2.72,0,0,0,.15.54l0,.08h0l.82,0h0l0-.08c0-.15-.07-.29-.1-.44l0-.33v-.07h0Z"/><path class="cls-2" d="M114.48,198.94h0l.78,0h0a2.28,2.28,0,0,1,.4-.56,1.93,1.93,0,0,1,.3-.27l.17-.11h0v0a2.45,2.45,0,0,0-.79.22A2.39,2.39,0,0,0,114.48,198.94Z"/><path class="cls-2" d="M116.62,202.65h0l.26,0a2.41,2.41,0,0,0,.45-.16,2.05,2.05,0,0,0,.47-.29,1.86,1.86,0,0,0,.29-.27l.18-.23h0l-.73,0h0a2.87,2.87,0,0,1-.28.43,2,2,0,0,1-.32.33,1.83,1.83,0,0,1-.31.24Z"/><path class="cls-2" d="M116.76,198l.1.09a2.24,2.24,0,0,1,.35.34,2.32,2.32,0,0,1,.35.53l0,0h0l.71,0a2.31,2.31,0,0,0-1.58-1h0Z"/><path class="cls-2" d="M115.49,201.59a2.38,2.38,0,0,0,.34.49,2,2,0,0,0,.4.36l0-.83Z"/><path class="cls-2" d="M116.5,201.62l0,.82a2.42,2.42,0,0,0,.76-.8Z"/><path class="cls-2" d="M115.58,199l.74,0,0-.78a2.58,2.58,0,0,0-.76.76Z"/><path class="cls-2" d="M116.59,198.24l0,.76.71,0A2.34,2.34,0,0,0,116.59,198.24Z"/></g><g id="uGJA8C-2" data-name="uGJA8C"><path class="cls-2" d="M114.33,208.75a5.92,5.92,0,0,0,1,1.7c.22.27.47.53.7.8l.06.05.58-.57a7,7,0,0,0,1.16-1.59,2.65,2.65,0,0,0,.29-.86,1.87,1.87,0,0,0-1.39-2,2,2,0,0,0-2.34,1A1.84,1.84,0,0,0,114.33,208.75ZM115,208a1.22,1.22,0,0,1,1.18-1.2,1.21,1.21,0,1,1,.06,2.41A1.22,1.22,0,0,1,115,208Z"/></g><path class="cls-7" d="M178.84,200.65c-3-.17-5.93-.29-8.9-.41l-8.91-.3-8.91-.2c-3-.05-6-.09-8.92-.09,3,.17,5.94.3,8.91.41l8.91.3,8.91.2C172.9,200.61,175.87,200.65,178.84,200.65Z"/><path class="cls-7" d="M178.77,203.21c-1.48-.12-3-.21-4.45-.28s-3-.11-4.45-.17-3-.07-4.46-.08-3,0-4.46,0c1.48.12,3,.21,4.45.28s3,.11,4.45.17,3,.07,4.46.08S177.28,203.26,178.77,203.21Z"/><path class="cls-7" d="M178.6,209.19c-3-.17-5.93-.29-8.9-.4l-8.91-.3-8.91-.2c-3,0-5.95-.09-8.92-.09,3,.17,5.94.29,8.91.41l8.91.29,8.91.2C172.66,209.15,175.63,209.2,178.6,209.19Z"/><path class="cls-7" d="M178.53,211.76c-1.48-.13-3-.21-4.45-.28s-3-.12-4.45-.18-3-.06-4.46-.07-3,0-4.46,0c1.48.13,3,.21,4.45.29s3,.11,4.46.17,3,.07,4.45.07S177.05,211.8,178.53,211.76Z"/><path class="cls-7" d="M107.76,198.67c-3-.17-5.94-.29-8.91-.41l-8.91-.3-8.91-.2c-3,0-5.94-.09-8.91-.09,3,.17,5.93.3,8.9.41l8.91.3,8.91.2C101.82,198.63,104.79,198.67,107.76,198.67Z"/><path class="cls-7" d="M107.69,201.23c-1.48-.12-3-.21-4.45-.28s-3-.11-4.46-.17-3-.07-4.45-.08-3,0-4.46,0c1.48.12,3,.21,4.45.28s3,.11,4.45.17,3,.07,4.46.08S106.2,201.28,107.69,201.23Z"/><path class="cls-7" d="M107.52,207.21c-3-.17-5.94-.29-8.9-.4l-8.91-.3-8.92-.2c-3-.05-5.94-.09-8.91-.09,3,.17,5.94.29,8.91.41l8.9.29,8.92.2C101.58,207.17,104.55,207.22,107.52,207.21Z"/><path class="cls-7" d="M107.45,209.78c-1.48-.13-3-.21-4.45-.28s-3-.12-4.45-.18-3-.06-4.46-.07-3,0-4.46,0c1.48.13,3,.21,4.45.29s3,.11,4.45.17,3,.07,4.46.07S106,209.82,107.45,209.78Z"/><polygon class="cls-6" points="71.37 8.98 38.3 23.75 54.84 28.08 71.37 8.98"/><path class="cls-3" d="M136.93,108.14l7.26.2,16.37.46c.44-1.43.86-2.8,1.25-4.09.14-.43.26-.85.39-1.26a.35.35,0,0,0,0-.11c.07-.22.14-.42.2-.63s0-.18.08-.27c.19-.65.38-1.26.56-1.85.07-.19.12-.39.18-.58,0,0,0,0,0-.05l.32-1.06c.31-1,.58-1.92.82-2.68.37-1.19.62-2,.76-2.48a.26.26,0,0,0,0-.11l0-.09a.35.35,0,0,1,0-.11h-.07l-17.12-.81h0l-5-.23h0l-.74,0L141.39,95C140.44,97.77,138.84,102.48,136.93,108.14Z"/><path class="cls-1" d="M156.7,108.69h.52q1.41-4.92,2.75-9.85l.06-.25s-.06-.06-.07,0,0,0,0,.08C158.83,102,157.75,105.34,156.7,108.69Z"/><path class="cls-1" d="M143,92.37h0l.52,3.41,1.9,12.58,15.11.43c.43-1.43.85-2.8,1.24-4.09.14-.43.26-.85.39-1.26a.35.35,0,0,0,0-.11c.07-.22.14-.42.2-.63a2.76,2.76,0,0,0,.08-.27c.2-.65.39-1.26.56-1.85.07-.19.12-.39.18-.58,0,0,0,0,0-.05l.32-1.06c.32-1,.6-1.92.83-2.68.36-1.19.62-2,.75-2.48a.26.26,0,0,0,0-.11l0-.08a.63.63,0,0,0,0-.12h-.07l-17.12-.82h0Z"/><path class="cls-3" d="M143,92.35h0c0,.18,0,1.4.13,3.27,0,.11,0,.22,0,.34v0a106,106,0,0,0,1.39,12.34l29.17.82,3.69.1c-.06-.93-.15-1.87-.27-2.81-.15-1.18-.33-2.35-.55-3.48,0-.18-.07-.37-.1-.55-.27-1.38-.57-2.69-.85-3.86-.06-.2-.11-.4-.15-.59-.24-.91-.46-1.71-.64-2.35s-.32-1.09-.42-1.4-.12-.38-.12-.38l-.42,0h0l-8.65-.41h-.07l-17.12-.82h0Z"/><path class="cls-1" d="M145.86,95.5c0,.7.09,1.4.16,2.1.1,1,.14,2,.24,3,.18,2,.37,4,.62,6a4.49,4.49,0,0,1,.07,1.79l.7,0a3.56,3.56,0,0,0,0-1.08c-.07-.61-.13-1.23-.19-1.84-.12-1.12-.29-2.24-.44-3.36-.29-2.28-.6-4.57-1-6.85,0-.25-.08-.5-.13-.75,0-.06-.1,0-.11,0C145.82,94.88,145.84,95.2,145.86,95.5Z"/><path class="cls-1" d="M143,95.08c0,.17,0,.33,0,.5a62.39,62.39,0,0,0,.17,6.26c.09,1.07.2,2.15.33,3.22a11.48,11.48,0,0,0,.6,3,1.51,1.51,0,0,0,.12.26l.8,0a3.06,3.06,0,0,1-.42-.85,17,17,0,0,1-.45-2.77c-.13-1-.24-2-.34-3-.18-1.9-.37-3.8-.59-5.69v0l0-.35c0-.19,0-.38-.07-.57S143,95,143,95.08Z"/><path class="cls-1" d="M168.84,104.21a15,15,0,0,1-3.63-.66c-.55-.17-1.08-.37-1.61-.58a4.23,4.23,0,0,1-1.45-.81,6.58,6.58,0,0,1-1.44-2.92,29.74,29.74,0,0,1-.8-3.51c0-.06-.09,0-.09,0a13.1,13.1,0,0,0,.31,4,6,6,0,0,0,1.43,3.13,6.11,6.11,0,0,0,3.29,1.39,15.25,15.25,0,0,0,4,.13A.07.07,0,0,0,168.84,104.21Z"/><path class="cls-1" d="M170.92,95.63s0,.09,0,.22c.11.51.39,1.82.71,3.46a2,2,0,0,0,.05.24c.25,1.32.53,2.84.78,4.31a46.8,46.8,0,0,1,.66,5.29l.59,0c0-.84-.15-2-.32-3.21-.08-.5-.16-1-.24-1.56,0-.2-.06-.39-.1-.6-.24-1.48-.53-3-.78-4.33l-.06-.3c-.31-1.54-.57-2.79-.68-3.35,0-.16-.06-.28-.07-.31a.28.28,0,0,0-.24-.22.14.14,0,0,0-.11,0l-.1,0A.3.3,0,0,0,170.92,95.63Z"/><path class="cls-3" d="M147.71,60.26c-.14,1.77-.3,3.56-.37,5.33a31.53,31.53,0,0,0,.07,3.23,6.93,6.93,0,0,0,1.37,1l-.06-.81a35,35,0,0,1,0-3.83c0-.05.06,0,.06,0,0,1.32.11,2.65.23,4,0,.28.06.57.1.86a11.38,11.38,0,0,0,1.47.63c0-.31-.07-.63-.1-.93-.07-.73-.13-1.45-.17-2.18a36.44,36.44,0,0,1,.05-4.31,0,0,0,0,1,.09,0c0,1.48.05,3,.15,4.43,0,.7.1,1.4.18,2.09,0,.33.08.67.13,1a17.07,17.07,0,0,0,2.86.66,19.81,19.81,0,0,0,8.43-.82,16,16,0,0,0,6.35-3.44,13.34,13.34,0,0,1-1.83-3.4,0,0,0,0,1,.06,0c.41.76.85,1.49,1.32,2.21l.7,1a.3.3,0,0,0,.08-.08c.18-.16.36-.34.54-.53a20.51,20.51,0,0,1-1.25-2.11A18.17,18.17,0,0,1,166.8,61a.06.06,0,0,1,.11,0c.52,1,1,2,1.55,3,.37.7.8,1.37,1.2,2.06a2.83,2.83,0,0,0,.82-2.12,5.1,5.1,0,0,0-.79-1.82c-.36-.64-.65-1.32-1-2-1.35-2.76.76-24.82-7.27-25.85,0,0-6.68-3.67-10.55-1-7.61,5.24-5.42,30.89-5.21,32.32A5.38,5.38,0,0,0,147,68.43c-.06-.9,0-1.82,0-2.7a53.06,53.06,0,0,1,.6-5.48C147.63,60.19,147.72,60.2,147.71,60.26Z"/><path class="cls-3" d="M163.4,35a8.83,8.83,0,0,1,2.2,2.91,17.5,17.5,0,0,1,1.23,3.45,40.41,40.41,0,0,1,1,7.28c.16,2.45.2,4.92.42,7.4a19.32,19.32,0,0,0,.7,3.67A7.87,7.87,0,0,0,170.82,63a8.45,8.45,0,0,1-1.55-3.29,20.23,20.23,0,0,1-.52-3.63c-.17-2.45-.14-4.93-.32-7.4a35.91,35.91,0,0,0-1.2-7.35,16,16,0,0,0-1.4-3.46A8.18,8.18,0,0,0,163.4,35Z"/><path class="cls-3" d="M150.9,33.27A10.7,10.7,0,0,0,148,36.36a17,17,0,0,0-1.76,3.91,39,39,0,0,0-1.55,8.42,84,84,0,0,0-.2,8.54c.06,1.43.18,2.85.34,4.26.08.71.18,1.42.29,2.12a11.41,11.41,0,0,0,.48,2.08,13.66,13.66,0,0,1-.32-2.1c-.07-.71-.12-1.42-.16-2.12-.1-1.42-.17-2.83-.18-4.25,0-2.82.06-5.67.33-8.48a41.17,41.17,0,0,1,1.39-8.34A13.57,13.57,0,0,1,150.9,33.27Z"/><path class="cls-2" d="M127.51,85.09l-.18,6.44,0,1.6a6.51,6.51,0,0,0,5,4.24l.23,0a2.86,2.86,0,0,0,1-.12h0a10.79,10.79,0,0,0,4.13-3.07l.35-.37v0l.05,0,0,0c.9-1,1.83-2.17,2.78-3.45.54-.74,1.09-1.53,1.64-2.34,1.38-2,2.77-4.26,4.12-6.54l.19-.32c1-1.77,2-3.56,3-5.31l.09-.17.92-1.69c.51-1,1-1.89,1.47-2.8,1.36-2.62,2.53-5,3.39-6.77.38-.8.68-1.5.92-2.12,1.74-4.51.06-4.82-1.95-3.91h0a3.18,3.18,0,0,0-.32.16l-.1,0h0a10.43,10.43,0,0,0-1.06.62,12.31,12.31,0,0,0-1.05.76l-1.63,1.32-.1.08-.06,0c-.3.24-.6.48-.89.73l-.26.21h0l-1.55,1.28-.16.15-.3.25-.5.41-.11.1-.06,0-.83.7-.16.14,0,0c-1.19,1-2.37,2-3.5,3.08-.34.29-.66.59-1,.88l-.42.39-.95.87c-2,1.87-3.86,3.7-5.49,5.45l-.55.59c-.85.92-1.63,1.81-2.33,2.68l-.2.24A24.42,24.42,0,0,0,127.51,85.09Z"/><path class="cls-1" d="M173.59,93.15l-32.43-.93,3.38-10.82s-3.09-2.84-1.33-8.3c1-3.18,5.57-9.16,8.26-12.11,6.58-7.18,11.82-3.54,13.46-1.54C171.16,67.11,173.59,93.15,173.59,93.15Z"/><path class="cls-2" d="M162.2,57.22s-4,9.36-5.55,11.47a49.27,49.27,0,0,1-5.82,5.81,50.57,50.57,0,0,1,.42-8.83c.63-3.19,3.58-7.65,3.58-7.65a6.9,6.9,0,0,0-2,1.43c-3.25,3-9.07,10.3-10.09,14.52-1.22,5.1,1.4,7.33,1.4,7.33l-4.75,13,5.69,2.06,3-3.24L150.85,97l27-1.52-4.44-9.41s-3.59-19.6-6.17-23.69C164.26,57.68,162.2,57.22,162.2,57.22Z"/><path class="cls-3" d="M154.37,81.21a33.66,33.66,0,0,0-4.71-.3c-.78,0-1.55.08-2.33.15l-1.17.07a4.89,4.89,0,0,1-1.21,0,0,0,0,1,0,0,0,8.73,8.73,0,0,0,1.13.24,8.39,8.39,0,0,0,1.12,0c.79,0,1.59,0,2.38-.07,1.6,0,3.2-.08,4.8,0C154.43,81.35,154.44,81.22,154.37,81.21Z"/><path class="cls-3" d="M157.83,83.44a34.16,34.16,0,0,0-3.75-1.06c-.63-.14-1.27-.24-1.91-.32l-.93-.11c-.34,0-.68,0-1-.06,0,0-.05,0,0,0,.32,0,.63.15.94.22l1,.19c.63.13,1.26.27,1.9.39,1.27.25,2.53.51,3.8.8C157.87,83.56,157.89,83.46,157.83,83.44Z"/><path class="cls-9" d="M161.2,57.79c-.12.63-2.25,4.86-5.69,4.49-2-.22-1.12-4.18-1.12-4.18l-1.48-5.56,6.86-4.74S161.25,57.52,161.2,57.79Z"/><path class="cls-3" d="M160.3,51.44a10.94,10.94,0,0,1-6,6.35l-1.39-5.24,6.86-4.75Z"/><path class="cls-9" d="M146.35,44c-1.17,9.34,4.29,11.09,6.31,11.34,1.82.23,8.08.77,10.2-8.4s-1.85-12.66-6-13.4S147.51,34.66,146.35,44Z"/><path class="cls-3" d="M149.1,42.39c.22,0,.42,0,.64,0a1.06,1.06,0,0,0,.65-.19.32.32,0,0,0,.05-.4.82.82,0,0,0-.79-.3,1.23,1.23,0,0,0-.81.34A.36.36,0,0,0,149.1,42.39Z"/><path class="cls-3" d="M155.42,43.11a4.44,4.44,0,0,1-.62-.19,1.07,1.07,0,0,1-.59-.32.33.33,0,0,1,0-.41.82.82,0,0,1,.83-.11,1.24,1.24,0,0,1,.72.5A.35.35,0,0,1,155.42,43.11Z"/><path class="cls-3" d="M153.85,45.35s0,0,0,.06c-.1.63-.11,1.38.44,1.66,0,0,0,0,0,0C153.63,46.92,153.65,45.93,153.85,45.35Z"/><path class="cls-3" d="M154.5,44.75c1,0,.86,2.11-.1,2.07S153.63,44.71,154.5,44.75Z"/><path class="cls-3" d="M154.89,44.9c.17.13.33.35.55.39s.45-.16.64-.35c0,0,0,0,0,0,0,.39-.21.78-.64.81s-.64-.35-.71-.76C154.75,45,154.82,44.84,154.89,44.9Z"/><path class="cls-3" d="M150,44.82s-.05,0-.05,0c0,.65-.13,1.38-.72,1.56,0,0,0,0,0,0C150,46.4,150.11,45.43,150,44.82Z"/><path class="cls-3" d="M149.48,44.12c-1-.13-1.21,1.93-.26,2.05S150.34,44.23,149.48,44.12Z"/><path class="cls-3" d="M149,44.22c-.17.09-.35.28-.55.27s-.37-.24-.49-.47c0,0,0,0,0,0,0,.4,0,.82.42.93s.62-.22.75-.6C149.16,44.3,149.11,44.18,149,44.22Z"/><path class="cls-3" d="M153.17,50.65c-.15.16-.3.37-.53.39a1.53,1.53,0,0,1-.69-.14s0,0,0,0a.88.88,0,0,0,.83.32.69.69,0,0,0,.48-.58S153.19,50.63,153.17,50.65Z"/><path class="cls-3" d="M150.55,48.27s-.16.95-.17,1.4c0,0,.11.07.26.08h0a2.13,2.13,0,0,0,2.1-.75s0-.09-.06-.06a3.24,3.24,0,0,1-2,.51c0-.13.33-1.62.26-1.63a4.22,4.22,0,0,0-1,.2c.27-2,.86-3.93,1.1-5.92,0-.07-.1-.09-.12,0a32.25,32.25,0,0,0-1.45,6.33C149.43,48.65,150.37,48.34,150.55,48.27Z"/><path class="cls-3" d="M151,49.52a2.23,2.23,0,0,0,.88.77,1,1,0,0,0,.62.09c.47-.09.51-.51.45-.87a2.68,2.68,0,0,0-.17-.57A3,3,0,0,1,151,49.52Z"/><path class="cls-10" d="M151.83,50.29a1,1,0,0,0,.62.09c.47-.09.51-.51.45-.87A1.06,1.06,0,0,0,151.83,50.29Z"/><path class="cls-3" d="M162.92,47.11c-1-.11-3.6-3.11-3.43-8.14a37.68,37.68,0,0,0,.46,5.2c.31.68-1.43-1.68-1.35-5.74a16.45,16.45,0,0,1-4.27,2c-1.94.44-3.11.36-3.24.22s2.73-.9,3.54-1.74c0,0-5.21,2.12-7.57,2.18-.27,0-.32-5.59,3.43-7.78s9.37.66,10.84,2.23c0,0,.83.08,2.66,2.86S164,47.23,162.92,47.11Z"/><path class="cls-3" d="M158.52,37.9c0-.11.2-.1.18,0a13.15,13.15,0,0,0,.47,5.43s0,0,0,0A9.36,9.36,0,0,1,158.52,37.9Z"/><path class="cls-3" d="M151.8,40.94a10.07,10.07,0,0,0,7.07-3s.11,0,.07.06c-1.61,2.25-4.47,3.06-7.13,3C151.75,41,151.75,40.94,151.8,40.94Z"/><path class="cls-9" d="M160.8,47.28s2.16-2.86,3.47-2.08-.4,5-2,5.5a1.58,1.58,0,0,1-2.1-.93Z"/><path class="cls-3" d="M163.75,46.39s0,0,0,0a4,4,0,0,0-2.17,2.43.88.88,0,0,1,1.32-.19s0,.07,0,.06a1,1,0,0,0-1.09.3,5.37,5.37,0,0,0-.55.85c0,.1-.23,0-.18-.07v0C161.08,48.39,162.24,46.48,163.75,46.39Z"/><path class="cls-2" d="M162.57,63.33c.14.25.27.49.43.73a2.59,2.59,0,0,0,.19.31c.59.91,1.79,2.51,3.24,4.37,1.26,1.64,2.72,3.48,4.09,5.25l.46.58,1.51,1.94a31.81,31.81,0,0,1,3.35,4.77c0,.19-.12.49-.39.84-.73,1-2.24,2.36-2.25,2.75h0a3.82,3.82,0,0,0,0,.4l0,.14,0,.15c0,.19.08.4.14.64.4,1.59,1.22,4.2,2.18,6.86.06.17.12.34.19.51.24.66.49,1.32.75,2s.45,1.12.68,1.64q.12.3.24.57a21.72,21.72,0,0,0,1.79,3.37,5,5,0,0,0,.36.45c.37.4.69.55.94.37a13.93,13.93,0,0,0,2.54-3c.12-.15.22-.31.33-.47.24-.33.48-.69.72-1l.11-.17v0l.42-.65a49.46,49.46,0,0,0,5.84-12.31l.14-4.83C188.8,75,177.41,66.46,170,61.58l-.26-.18-.52-.33a39,39,0,0,0-5.29-3,3.49,3.49,0,0,0-.49-.16,2.21,2.21,0,0,0-.42-.08,1.46,1.46,0,0,0-1,.18h0l-.14.11a0,0,0,0,1,0,0,1.51,1.51,0,0,0-.4.91A8.18,8.18,0,0,0,162.57,63.33Z"/><path class="cls-3" d="M166.41,69.52c2.41,2.26,4.57,4.66,6.83,7.08a16.37,16.37,0,0,1,2.9,4.15,1.16,1.16,0,0,1,0,.84,11.24,11.24,0,0,1-2.93,3.29,18,18,0,0,0,2.25-3.53.39.39,0,0,0,0-.35,23.83,23.83,0,0,0-2.91-3.74,59.87,59.87,0,0,1-6.08-7.74Z"/><path class="cls-3" d="M166.76,71.26a2.7,2.7,0,0,1,2,1.06,2.67,2.67,0,0,1-2-1.06Z"/><path class="cls-3" d="M182.24,96.17c-.88-2.11-4.8-10.61-5.77-12.39-.07-.12-.17-.11-.11,0a125.64,125.64,0,0,0,5.8,12.4A0,0,0,1,0,182.24,96.17Z"/><path class="cls-9" d="M173.5,106c-1.64-1.16.66-2.42.66-2.42s-3.75,1-5-.82,1.65-3.21,1.85-3.32c-.2.06-3.66.91-4.7-1.07s2-3,2.2-3.07c-.2,0-2.88-.17-3.33-1.86-.77-2.89,6.95-3.06,8.65-4.79,0,0-.67-3.81-.73-3.91a4.38,4.38,0,0,0,2.16,1.9c1.65.51,3.15.81,3.81,1.62a2.18,2.18,0,0,1,.2,2.61s2.11-.2,3,1.33c.44.79-.42,2.2-.42,2.2a2.61,2.61,0,0,1,2.38,1.32,2.49,2.49,0,0,1-.4,2.36s1.67.67,1.86,2C186.1,102.79,177,108.48,173.5,106Z"/><path class="cls-3" d="M183.72,98.32s.07,0,0,0a18.61,18.61,0,0,1-9.72,5.32c-.12,0-.2-.17-.08-.21A38.33,38.33,0,0,0,183.72,98.32Z"/><path class="cls-3" d="M181.91,94.41s.08,0,.05.06a17.44,17.44,0,0,1-11,5.14c-.14,0-.28-.13-.11-.15C173.68,99.09,179.14,96.5,181.91,94.41Z"/><path class="cls-3" d="M168.24,95.24a24,24,0,0,0,11-4.23s.08,0,.05.07a15.73,15.73,0,0,1-5.53,3.48,10.71,10.71,0,0,1-5.47.82C168.18,95.37,168.15,95.25,168.24,95.24Z"/><path class="cls-3" d="M184,98.09a2.56,2.56,0,0,0,.65-2.62,2,2,0,0,0-.92-1,3.38,3.38,0,0,0-1.58-.17,2.52,2.52,0,0,0,.1-2.86,1.92,1.92,0,0,0-1.21-.68,6.1,6.1,0,0,0-1.65,0,2.24,2.24,0,0,0,.52-1.94,2.43,2.43,0,0,0-1.46-1.66,11.15,11.15,0,0,0-2.6-.66,6.09,6.09,0,0,1-1.32-.4,2.48,2.48,0,0,1-1.09-1c0-.08,0,0,0,.07A3.16,3.16,0,0,0,174,86a4.53,4.53,0,0,0,.89.61,17.67,17.67,0,0,0,2.47.77,3.5,3.5,0,0,1,1.84,1.27,2.08,2.08,0,0,1,0,2.19s0,.08.06.08a5.83,5.83,0,0,1,1.47.19,2.06,2.06,0,0,1,1,.66,2.66,2.66,0,0,1,.08,2.66,4.57,4.57,0,0,1,1.53.43,2,2,0,0,1,.72.82,2.32,2.32,0,0,1-.29,2.4,0,0,0,0,0,0,0h0v0l0,0h0a5.89,5.89,0,0,0,.56.24s0,0,0,0A3.86,3.86,0,0,0,184,98.09Z"/><path class="cls-3" d="M162,57.79c.25,2.53.56,5,.88,7.56l.13-.2c-1.49.32-3,.68-4.45,1l-.25.06.09.24c.4,1,.79,2,1.2,3l.07-.27c-1.61,1.29-3.24,2.55-4.84,3.87s-3.19,2.61-4.76,4c1.68-1.21,3.33-2.44,5-3.69s3.28-2.51,4.91-3.77l.14-.1-.07-.16c-.39-1-.8-2-1.21-3l-.15.3c1.48-.37,3-.71,4.44-1.1l.16,0,0-.16C162.8,62.79,162.4,60.29,162,57.79Z"/><path class="cls-3" d="M153.74,58.93c-.86.81-1.45,1.39-2.28,2.23s-1.68,1.66-2.49,2.52l-.16.17.2.14,1.49,1,0-.34c-.66.6-1.32,1.2-2,1.81l-.09.09,0,.11c.24,1.72.46,3.44.73,5.16s.53,3.43.85,5.14c-.14-1.74-.32-3.46-.51-5.19s-.42-3.44-.62-5.17l-.07.2c.66-.6,1.3-1.22,2-1.83l.2-.19-.23-.15-1.5-1,0,.31c.81-.85,1.59-1.74,2.38-2.61S153,59.82,153.74,58.93Z"/><path class="cls-3" d="M150,77c-.25.82-.51,1.63-.74,2.46s-.46,1.64-.68,2.47h0v0c-.14,1.85-.23,3.71-.34,5.57s-.17,3.72-.22,5.58c.19-1.85.35-3.71.49-5.56s.27-3.72.36-5.57v0q.31-1.25.6-2.49C149.68,78.65,149.84,77.81,150,77Z"/><path class="cls-3" d="M150.57,79.54a.49.49,0,0,1-.16-.32.62.62,0,0,0,.47.61.57.57,0,0,0,.48-.1.63.63,0,0,0,.26-.47.66.66,0,0,0-.21-.5.61.61,0,0,0-1,.45.38.38,0,0,1,.19-.31.35.35,0,0,1,.31,0,.37.37,0,0,1,.24.38.38.38,0,0,1-.27.36A.39.39,0,0,1,150.57,79.54Z"/><path class="cls-3" d="M149.61,84.89a.44.44,0,0,1-.15-.32.61.61,0,0,0,.46.61.63.63,0,0,0,.49-.09.65.65,0,0,0,.26-.48.67.67,0,0,0-.22-.5A.62.62,0,0,0,150,84a.61.61,0,0,0-.51.59.42.42,0,0,1,.18-.32.4.4,0,0,1,.32,0,.4.4,0,0,1,0,.74A.42.42,0,0,1,149.61,84.89Z"/><path class="cls-3" d="M149.15,89.8a.39.39,0,0,1-.15-.31.59.59,0,0,0,.45.6A.64.64,0,0,0,150,90a.63.63,0,0,0,.25-.47A.61.61,0,0,0,150,89a.62.62,0,0,0-.48-.14.61.61,0,0,0-.51.58.39.39,0,0,1,.17-.31.43.43,0,0,1,.33,0,.39.39,0,0,1,.23.38.37.37,0,0,1-.26.36A.42.42,0,0,1,149.15,89.8Z"/><path class="cls-9" d="M131,74.83c.69-3.87,2-9.25,3.42-10.33s6.95-4.92,8.49-5.39,8.46-2.81,9.69-2c1,.62-.31,3.21-3.6,4.35a47,47,0,0,0-5.22,2.3c-.85.33-3,3-2.45,4.16A3.46,3.46,0,0,0,145,69c1.29-.53,1.7-3,3.2-4.16s4-.89,4.17-.2-.74,1-2.14,3.29c-.9,1.48-1.09,5.1-3.1,7.63a44.58,44.58,0,0,0-2.81,4.68Z"/><path class="cls-3" d="M149.54,63.79a2.63,2.63,0,0,0,1.29-.53,1,1,0,0,0,.31-.51,1.15,1.15,0,0,0,0-.32.52.52,0,0,0-.11-.32s0,0,0,0a1,1,0,0,0,.12.16.94.94,0,0,1,.06.15.86.86,0,0,1,.05.32,1,1,0,0,1-.28.63,1.78,1.78,0,0,1-1.48.48S149.52,63.79,149.54,63.79Z"/><path class="cls-9" d="M134.44,64.5c1.31-1.89,4.6-5.27,7.77-6.36,2.15-.73,9.3,3.09,9,4.47s-1.5,1.34-3.34,1c-.66-.1-4.17-1.51-4.8-.78-.91,1-2.15,4.65-2.15,4.65Z"/><path class="cls-3" d="M151.08,62.06c-.84-1.52-2.79-2.39-4.73-3.09,0,0,0,0,0,0a17.13,17.13,0,0,1,4.73,3.07S151.09,62.07,151.08,62.06Z"/><path class="cls-9" d="M134.44,64.5c1.31-1.89,4.6-5.27,7.77-6.36,2.15-.73,7.74,4,7.48,5.4s-2.06,1.43-4,.67c-.63-.24-2.71-1.83-3.34-1.11-.91,1-3.13,3.62-3.13,3.62Z"/><path class="cls-3" d="M140.49,65.12c.21-.3.28-.41.5-.7s.43-.59.67-.86a2.71,2.71,0,0,1,.68-.67,1.4,1.4,0,0,1,.88-.14,4.93,4.93,0,0,1,1.85.91,5.86,5.86,0,0,0,3,1,1.77,1.77,0,0,0,.82-.19,1.13,1.13,0,0,0,.5-.37c.48-.74,0-1.62-.6-2.26A13.15,13.15,0,0,0,145,59c-.33-.18-.67-.35-1-.52a3,3,0,0,0-1.24-.41,5.89,5.89,0,0,0-2.29.86s0,0,0-.05a4.89,4.89,0,0,1,2.73-1,3.5,3.5,0,0,1,1.19.44c.39.19.78.4,1.17.61a16,16,0,0,1,2.15,1.38,6.81,6.81,0,0,1,1.74,1.77,2,2,0,0,1,.05,2.06,1.75,1.75,0,0,1-1.32.65,3.17,3.17,0,0,1-.92,0,13,13,0,0,1-1.95-.65c-.62-.27-1.17-.71-1.81-.93a1.2,1.2,0,0,0-.93,0,3.29,3.29,0,0,0-.73.61,10.24,10.24,0,0,0-1.21,1.34C140.5,65.29,140.4,65.24,140.49,65.12Z"/><path class="cls-9" d="M133.46,66.16c.49-.91,1.4-4.68,2.17-5.82s4.28-5.05,5.84-4.82c2,.3-.22,3.76-1.31,5.19a7.22,7.22,0,0,0-1,3.9Z"/><path class="cls-3" d="M141.69,58.34a16,16,0,0,0-1.06,1.43,11.26,11.26,0,0,0-.94,1.42,5,5,0,0,0-.44,1.6,7.56,7.56,0,0,0-.07.82c0,.3,0,.6,0,.9,0,0,0,0,.05,0a12.73,12.73,0,0,1,.27-1.62,7,7,0,0,1,.55-1.61c.5-1,1.21-1.91,1.71-2.91A0,0,0,0,0,141.69,58.34Z"/><path class="cls-3" d="M139.17,65a5.64,5.64,0,0,0,.4,2.78,10.09,10.09,0,0,0,.58,1.3,12.8,12.8,0,0,0,.77,1.19,11.26,11.26,0,0,1,1.35,2.35,11.77,11.77,0,0,1,.66,2.66,7.4,7.4,0,0,0-.25-2.8A8.58,8.58,0,0,0,141.39,70,13.49,13.49,0,0,1,140,67.63,8.41,8.41,0,0,1,139.17,65Z"/><path class="cls-9" d="M127.56,83.3l0,1.79-.18,6.44h0c.93,3.62,3.25,6,6.18,5.74h0c1.49-.16,2.8-1.2,4.12-3.07.21-.3.43-.63.65-1a49.1,49.1,0,0,0,2.88-5.6s0,0,0,0l1-2.14c.58-1.33,1.18-2.77,1.83-4.31,0-.09.08-.18.11-.27.22-.5.43-1,.65-1.53h0c.25-.63-.55-2.31-1.8-4.24l-.05-.07c0-.06-.07-.1-.1-.15l-.18-.28a47.93,47.93,0,0,0-3-4c-2.26-2.67-4.53-4.69-5.16-3.9a35.78,35.78,0,0,0-3,6.11L130.94,74A99,99,0,0,0,127.56,83.3Z"/><path class="cls-2" d="M127.61,81.59l-.1,3.5-.18,6.44v.55c.74,2.51,2.22,4.63,5,5.29a6.87,6.87,0,0,0,1.16.18c1.47.12,3.1-1.57,4.55-3.72v0a1,1,0,0,0,.08-.11,52.82,52.82,0,0,0,4.17-8.09v0a0,0,0,0,0,0,0l-.11-.12-8.58-8.78-1.31-1.35-1.12-1.15-.2-.21-.72-.73S128.67,77.43,127.61,81.59Z"/><path class="cls-3" d="M138,93.78c.46-.62.88-1.27,1.29-1.92s.78-1.33,1.14-2,.71-1.37,1-2.08a13,13,0,0,0,.78-2.19q-.52,1-1.08,2l-1.09,2c-.35.68-.72,1.36-1.05,2S138.35,93.07,138,93.78Z"/><path class="cls-3" d="M139.54,87.6c-.58-.67-1.22-1.3-1.84-1.94s-1.25-1.27-1.89-1.9Q133.9,81.89,132,80c-.35-.33-.71-.67-1.07-1s-.81-.66-1.2-1c0,0-.07,0,0,0,.31.31.57.67.87,1s.63.65.95,1c.63.64,1.26,1.26,1.9,1.89,1.27,1.25,2.54,2.5,3.85,3.71.74.68,1.47,1.39,2.25,2C139.52,87.71,139.58,87.65,139.54,87.6Z"/><rect class="cls-2" x="125.32" y="220.79" width="92.35" height="17.33" transform="translate(342.99 458.9) rotate(-180)"/><path class="cls-9" d="M230,220.79h3.67a0,0,0,0,1,0,0v17.33a0,0,0,0,1,0,0H230a8.67,8.67,0,0,1-8.67-8.67v0A8.67,8.67,0,0,1,230,220.79Z" transform="translate(455.02 458.9) rotate(-180)"/><rect class="cls-8" x="217.67" y="220.79" width="3.67" height="17.33"/><path class="cls-4" d="M125.55,238.12l-10.19-6.54L112,229.44l3.31-2.17,10-6.48,2.06,1.75s-2,1.67-2,1.71l2.07,1.76s-2,1.67-2,1.71l2.06,1.72s-2,1.71-2,1.75l2.06,1.72s-2,1.7-2,1.74l2.06,1.72S125.58,238.08,125.55,238.12Z"/><polygon class="cls-3" points="115.36 231.58 111.99 229.44 115.3 227.27 115.36 231.58"/><g class="cls-11"><path d="M213.63,223.22c-25.9.49-55,.5-80.85,0,25.89-.49,54.95-.48,80.85,0Z"/><path d="M213.63,227.36c-25.9.49-55,.49-80.85,0,25.89-.49,54.95-.49,80.85,0Z"/><path d="M213.63,231.49c-25.9.49-55,.5-80.85,0,25.89-.49,54.95-.48,80.85,0Z"/><path d="M213.63,235.63c-25.9.49-55,.49-80.85,0,25.89-.49,54.95-.49,80.85,0Z"/></g></svg>