<svg id="Слой_1" data-name="Слой 1" xmlns="http://www.w3.org/2000/svg" xmlns:xlink="http://www.w3.org/1999/xlink" viewBox="0 0 240 240"><defs><style>.cls-1{fill:none;}.cls-2,.cls-5{fill:#ececec;}.cls-3{fill:#dcdcdc;}.cls-4{fill:#fff;}.cls-5{opacity:0.5;}.cls-6{fill:#c8c8c8;}.cls-7{fill:#a8a8a8;}.cls-8{fill:#306;}.cls-9{fill:#4a148c;}.cls-10{fill:#ffc800;}.cls-11,.cls-13{opacity:0.1;}.cls-12{fill:#c36358;}.cls-14{clip-path:url(#clip-path);}</style><clipPath id="clip-path"><rect class="cls-1" x="-548" y="-6.22" width="260" height="260" transform="translate(-836 247.55) rotate(-180)"/></clipPath></defs><circle class="cls-2" cx="184.9" cy="27.68" r="28.87" transform="translate(18.34 112.6) rotate(-35.53)"/><circle class="cls-3" cx="183.58" cy="28.32" r="27.55" transform="translate(19.73 115.82) rotate(-36.87)"/><circle class="cls-4" cx="183.58" cy="28.32" r="25.81" transform="translate(54.03 161.45) rotate(-54.55)"/><path class="cls-5" d="M158.35,22.85c11.75,7.12,31.07,18.8,41.87,25.21a25.8,25.8,0,0,0,7.05-9.49L171.56,5.47A25.87,25.87,0,0,0,158.35,22.85Z"/><path class="cls-5" d="M157.78,29.23a25.64,25.64,0,0,0,1.71,8.38l32.19,15.23a25,25,0,0,0,4.07-1.75C186,45.47,168.25,35.25,157.78,29.23Z"/><rect class="cls-6" x="183.33" y="4.39" width="0.5" height="3.91"/><rect class="cls-6" x="192.61" y="9.04" width="3.91" height="0.5" transform="translate(89.25 173.15) rotate(-60)"/><rect class="cls-6" x="200.66" y="17.08" width="3.91" height="0.5" transform="matrix(0.87, -0.5, 0.5, 0.87, 18.48, 103.64)"/><rect class="cls-6" x="203.6" y="28.07" width="3.91" height="0.5"/><rect class="cls-6" x="202.37" y="37.36" width="0.5" height="3.91" transform="translate(67.23 195.1) rotate(-59.99)"/><rect class="cls-6" x="194.32" y="45.41" width="0.5" height="3.91" transform="translate(2.36 103.55) rotate(-29.98)"/><rect class="cls-6" x="183.33" y="48.35" width="0.5" height="3.91"/><rect class="cls-6" x="170.63" y="47.11" width="3.91" height="0.5" transform="translate(45.28 173.15) rotate(-60)"/><rect class="cls-6" x="162.58" y="39.07" width="3.91" height="0.5" transform="translate(2.39 87.55) rotate(-30.01)"/><rect class="cls-6" x="159.64" y="28.07" width="3.91" height="0.5"/><rect class="cls-6" x="164.29" y="15.38" width="0.5" height="3.91" transform="translate(67.22 151.13) rotate(-59.98)"/><rect class="cls-6" x="172.34" y="7.33" width="0.5" height="3.91" transform="translate(18.44 87.46) rotate(-29.97)"/><polygon class="cls-6" points="183.2 6.16 182.35 30.07 184.8 30.04 183.87 6.15 183.2 6.16"/><polygon class="cls-7" points="168.31 19.99 184.4 30.25 185.56 28.1 168.63 19.4 168.31 19.99"/><path class="cls-6" d="M182.74,28.32a.84.84,0,0,0,.84.84.84.84,0,1,0-.84-.84Z"/><path class="cls-8" d="M-6.63,62.25A49.76,49.76,0,0,0-1.44,59a48.72,48.72,0,0,0,4.8-3.82,48.81,48.81,0,0,0-5.19,3.28A50.14,50.14,0,0,0-6.63,62.25Z"/><path class="cls-8" d="M-5.44,65.73a50,50,0,0,0,6.13-.24,49.92,49.92,0,0,0,6.07-.9,48.19,48.19,0,0,0-6.13.23A52.3,52.3,0,0,0-5.44,65.73Z"/><path class="cls-9" d="M135.76,211.31c.74.94,63.17,3.74,66.15,2.88a1.79,1.79,0,0,0,.41-.17c3.67-1.72,19.46-13.64,22-18.66,2-4-9.89-26-14-29.74-2.76-2.5-7.88-3.48-7.88-3.48S187.9,120.42,179,111.68c-2.24-2.19-41-3.05-47.87.11-3,1.35-10.16,8.71-10.36,10h0C120.58,123.76,135,210.35,135.76,211.31Z"/><path class="cls-8" d="M135.31,211.31c.75.94,63.18,3.74,66.15,2.88a1.63,1.63,0,0,0,.41-.17c-6-16.17-34.1-92.07-34.9-92.56s-37.79-.27-46.65.37C120.13,123.76,134.57,210.35,135.31,211.31Z"/><path class="cls-9" d="M158.24,114.76c.63-.59,1-9.07-.11-10.76-1.28-1.89-16.13-1-17,.66s-1.29,10.09-.84,10.39,2.92.6,3.25.06.32-7.55.58-7.92,10.66-1,11-.52-.52,7.63-.1,7.94S157.63,115.33,158.24,114.76Z"/><rect class="cls-3" x="189.9" y="151.94" width="5.06" height="5.82" transform="translate(432.4 213.4) rotate(154.89)"/><rect class="cls-6" x="190.15" y="155.47" width="8.25" height="6.65" transform="translate(437.59 220.12) rotate(154.89)"/><path class="cls-10" d="M190.3,173.41c2.56,5.45,12.91,27.55,12.91,27.55L221,192.63s-10.36-22.09-12.91-27.54-8-8.06-13.41-5.5S187.75,168,190.3,173.41Z"/><path class="cls-11" d="M190.3,173.41c2.56,5.45,12.91,27.55,12.91,27.55L221,192.63s-10.36-22.09-12.91-27.54-8-8.06-13.41-5.5S187.75,168,190.3,173.41Z"/><path class="cls-4" d="M196.58,161.2a.78.78,0,0,0,1,.37.77.77,0,0,0,.36-1,.76.76,0,0,0-1-.37A.77.77,0,0,0,196.58,161.2Z"/><path class="cls-4" d="M190.68,171.56a.76.76,0,1,0,.37-1A.76.76,0,0,0,190.68,171.56Z"/><path class="cls-4" d="M198.86,168.57a.77.77,0,0,0,1,.36.76.76,0,0,0,.37-1,.77.77,0,1,0-1.39.65Z"/><path class="cls-4" d="M201.27,175.51a.77.77,0,0,0,1,.36.76.76,0,0,0,.37-1,.77.77,0,1,0-1.39.65Z"/><path class="cls-4" d="M211.66,179.06a.77.77,0,1,0,.37-1A.76.76,0,0,0,211.66,179.06Z"/><path class="cls-4" d="M209.47,172.59a.77.77,0,1,0,.37-1A.76.76,0,0,0,209.47,172.59Z"/><path class="cls-4" d="M206.24,166.15a.77.77,0,1,0,.37-1A.77.77,0,0,0,206.24,166.15Z"/><path class="cls-4" d="M201.37,163.57a.77.77,0,1,0,1.39-.65.77.77,0,0,0-1.39.65Z"/><path class="cls-4" d="M203.9,170.76a.78.78,0,0,0,1,.37.77.77,0,1,0-1-.37Z"/><path class="cls-4" d="M193.63,166.46a.76.76,0,0,0,1.38-.64.76.76,0,1,0-1.38.64Z"/><path class="cls-4" d="M195.94,173.58a.76.76,0,1,0,.37-1A.76.76,0,0,0,195.94,173.58Z"/><path class="cls-4" d="M206.55,177.37a.76.76,0,0,0,1,.37.77.77,0,0,0,.37-1,.78.78,0,0,0-1-.37A.77.77,0,0,0,206.55,177.37Z"/><path class="cls-4" d="M201.65,186.33a.77.77,0,0,0,1,.37.77.77,0,1,0-.65-1.39A.77.77,0,0,0,201.65,186.33Z"/><path class="cls-4" d="M204.2,191.49a.76.76,0,1,0,.36-1A.77.77,0,0,0,204.2,191.49Z"/><path class="cls-4" d="M208.75,183.15a.76.76,0,1,0,.37-1A.75.75,0,0,0,208.75,183.15Z"/><path class="cls-4" d="M215.92,189.68a.77.77,0,1,0,.37-1A.76.76,0,0,0,215.92,189.68Z"/><path class="cls-4" d="M203.71,181.72a.76.76,0,0,0,1,.36.76.76,0,0,0-.65-1.38A.76.76,0,0,0,203.71,181.72Z"/><path class="cls-4" d="M206.26,187.38a.76.76,0,1,0,1.38-.65.76.76,0,1,0-1.38.65Z"/><path class="cls-4" d="M208.88,193a.77.77,0,1,0,.37-1A.76.76,0,0,0,208.88,193Z"/><path class="cls-4" d="M206.58,197.23a.78.78,0,0,0,1,.37.77.77,0,1,0-1-.37Z"/><path class="cls-4" d="M213.54,184.37a.76.76,0,1,0,1.38-.65.76.76,0,1,0-1.38.65Z"/><path class="cls-4" d="M211.25,188.48a.76.76,0,0,0,1,.37.77.77,0,1,0-1-.37Z"/><path class="cls-4" d="M202.07,196.18a.78.78,0,0,0,1,.37.77.77,0,1,0-1-.37Z"/><path class="cls-4" d="M213.64,194a.76.76,0,1,0,1.38-.65.76.76,0,1,0-1.38.65Z"/><path class="cls-4" d="M196.79,185.19a.77.77,0,0,0,1.39-.65.78.78,0,0,0-1-.37A.77.77,0,0,0,196.79,185.19Z"/><path class="cls-4" d="M199.34,190.62a.76.76,0,1,0,.37-1A.75.75,0,0,0,199.34,190.62Z"/><path class="cls-4" d="M198.85,180.73a.76.76,0,0,0,1.38-.65.76.76,0,1,0-1.38.65Z"/><path class="cls-4" d="M193.48,179a.77.77,0,1,0,.37-1A.76.76,0,0,0,193.48,179Z"/><path class="cls-9" d="M223.06,193c-1.51,7.36-17.85,15.29-19,15.26s-12-26.89-12-26.89,13.23-4.34,19.2-12.06C211.33,169.33,223.53,190.72,223.06,193Z"/><path class="cls-9" d="M96.9,254h63.25c3.85-14.7,7.39-27.69,9.65-35.89,1.41-5.16,2.32-8.43,2.49-9a.38.38,0,0,0,0-.11H106.55l-2,9.22c-.79,3.73-1.81,8.44-3,13.82-.1.47-.21,1-.31,1.44C100,239.58,98.46,246.57,96.9,254Z"/><path class="cls-8" d="M150.56,254h1.19q4.86-17.89,9.47-35.84l.26-1a.22.22,0,0,0-.43-.13c-.11.38-.23.76-.33,1.14C157.23,230.05,153.87,242,150.56,254Z"/><path class="cls-9" d="M111.68,209.05a62.43,62.43,0,0,0,2.25,9.22c.74,2.39,1.62,5,2.63,7.65.21.6.45,1.19.69,1.8,3.19,8.12,7.38,16.4,11.66,20.33h0a10.93,10.93,0,0,0,1.65,1.29l3.66,2.26a.12.12,0,0,0,0,.06h0c0,.22.17,1,.38,2.31h61.68c1.58-14.3-1.71-27.68-4.58-36.06a72.86,72.86,0,0,0-3.58-8.87Z"/><path class="cls-8" d="M182.2,212.89c.83,1.67,1.59,3.36,2.29,5.1a68.46,68.46,0,0,1,4.66,33.07c-.12,1-.25,1.95-.4,2.92h1.09a67.86,67.86,0,0,0,.73-8.53A65.12,65.12,0,0,0,185.18,218c-.79-1.8-1.67-3.56-2.62-5.28C182.43,212.45,182.08,212.66,182.2,212.89Z"/><path class="cls-8" d="M135.8,234.5c-.06-2.38-.23-4.75-.34-7.12-.28-5.61-.5-11.24-1-16.83a.18.18,0,0,0-.35,0c-.07,4.33.1,8.68.19,13,0,2.17.11,4.34.17,6.51s.19,4.16,0,6.22c-.12,1.56-.46,4.6-2.5,4.79s-3.45-1.9-3.93-3.42a59.79,59.79,0,0,1-2-12c-.23-2.38-.51-12-.38-14.46,0-.15-.23-.14-.24,0-.13,2.45-.47,4.88-.55,7.34s-.09,4.9.07,7.34.35,4.69.7,7a25.42,25.42,0,0,0,1.51,6.2,5.47,5.47,0,0,0,3.76,3.51,3.3,3.3,0,0,0,.69.07c0,.51.09,1,.12,1.51.06.79.16,1.57.26,2.35a17.62,17.62,0,0,0,.48,2.27,8.46,8.46,0,0,0,.8,2.17.12.12,0,0,0,.22-.07,10,10,0,0,0-.19-2.24c-.1-.76-.21-1.53-.36-2.28s-.3-1.49-.45-2.23c-.1-.5-.17-1-.26-1.52a3.65,3.65,0,0,0,2.72-2.14A13.34,13.34,0,0,0,135.8,234.5Z"/><path class="cls-12" d="M136.94,127c-8,10-39.26,45.48-56.64,48.78C68.59,178,31,158.87,22.73,151.94c-3.37-2.84,15.46-30.9,20-29.77,5,1.23,32,19.22,35.56,19s31.25-15.79,48.07-22.71C136.48,114.33,141.43,121.37,136.94,127Z"/><path class="cls-12" d="M33.06,158.62C25.83,155.83,3.89,140.44.25,136.45S-13,120.2-10.28,117.1s5.89.26,5.89.26S-8,111-4.57,108.67c2.78-1.88,7.41,2.61,7.41,2.61s-3.64-7.13.11-9c3.41-1.74,7.18,4.38,7.18,4.38s-2.44-6.28,1.17-7.32c4.35-1.25,8.58,9.61,12.93,13.72,1,.93,30.2,15.26,30.2,15.26Z"/><path class="cls-8" d="M10.29,106.29c4,7.82,5.88,10.94,12.68,15.94a.13.13,0,0,1-.13.23c-7.1-4.29-9.6-7.83-12.95-16C9.73,106,10.1,105.93,10.29,106.29Z"/><path class="cls-8" d="M2.92,111.28c4,8,7,11,13.76,16.8.09.08,0,.25-.14.17-7.08-5.1-11-8.38-13.91-16.91C2.5,111,2.74,110.91,2.92,111.28Z"/><path class="cls-8" d="M-4,117.65c4.41,7.47,7.5,11.15,14.76,15.9a.16.16,0,0,1-.16.28c-7.88-4.13-11.77-8.69-14.82-16C-4.47,117.31-4.33,117.18-4,117.65Z"/><path class="cls-4" d="M-33.19,139.72c19.2,5.61,38.09,11.21,56.51,16.82C34.33,131.79,36,107.05,43.5,82.3,24.27,76.69,5.35,71.09-13.08,65.48-24.06,90.23-25.67,115-33.19,139.72Z"/><path class="cls-8" d="M-24.6,102.62c2.69-12.4,5.81-24.8,11.3-37.21l.1-.22.22.06C5.46,70.83,24.37,76.41,43.59,82l.32.09-.09.33c-7.57,24.73-9.25,49.46-20.31,74.2l-.09.2-.19-.06q-13.82-4.25-28-8.5t-28.45-8.52C-29.49,127.36-27.26,115-24.6,102.62ZM-4.54,148q14.11,4.15,27.94,8.32l-.27.14c11-24.76,12.53-49.51,20.05-74.27l.22.41C24.17,77,5.25,71.34-13.18,65.71l.31-.17c-5.49,12.35-8.66,24.7-11.39,37s-5.11,24.76-8.93,37.14Q-18.74,143.88-4.54,148Z"/><path class="cls-3" d="M34.41,93.12Q18.13,88.44,2.06,83.77l-.55,1.9Q17.62,90.35,34,95C34.1,94.39,34.25,93.75,34.41,93.12Z"/><path class="cls-3" d="M33.26,97.93Q16.91,93.25.71,88.58c-.17.63-.34,1.27-.5,1.91q16.21,4.67,32.61,9.35C33,99.2,33.11,98.56,33.26,97.93Z"/><path class="cls-3" d="M32.18,102.74Q15.77,98.06-.53,93.39C-.69,94-.84,94.66-1,95.3l32.75,9.35Z"/><path class="cls-3" d="M31.13,107.55q-24.07-6.84-48-13.7c-.16.64-.31,1.27-.47,1.91q23.92,6.85,48.06,13.7C30.86,108.82,31,108.19,31.13,107.55Z"/><path class="cls-3" d="M30.11,112.36Q6,105.52-18,98.66c-.15.64-.29,1.28-.44,1.91q24,6.86,48.14,13.7C29.84,113.63,30,113,30.11,112.36Z"/><path class="cls-3" d="M29.08,117.18l-48.16-13.7c-.14.63-.28,1.27-.41,1.9l48.15,13.7Z"/><path class="cls-3" d="M28,122q-24-6.85-48.14-13.7c-.13.63-.27,1.27-.4,1.9,16.06,4.57,32.13,9.14,48.1,13.7C27.73,123.26,27.87,122.62,28,122Z"/><path class="cls-3" d="M26.9,126.8q-23.91-6.85-48-13.7c-.14.63-.27,1.27-.41,1.91q24.09,6.84,48,13.7C26.59,128.07,26.74,127.43,26.9,126.8Z"/><path class="cls-3" d="M25.7,131.61q-23.77-6.86-47.87-13.7l-.42,1.91q24,6.84,47.78,13.7Z"/><path class="cls-3" d="M24.39,136.42Q.8,129.58-23.24,122.72c-.15.64-.3,1.27-.44,1.91q23.94,6.85,47.51,13.7C24,137.69,24.21,137.06,24.39,136.42Z"/><path class="cls-3" d="M23,141.23q-23.4-6.84-47.32-13.7l-.48,1.91q23.84,6.85,47.18,13.7C22.54,142.5,22.75,141.87,23,141.23Z"/><path class="cls-3" d="M21.35,146.05q-23.15-6.86-46.94-13.7l-.51,1.9Q-2.43,141.1,20.67,148C20.9,147.32,21.13,146.68,21.35,146.05Z"/><path class="cls-10" d="M54.43,128.28s-7.11-7.28-10.31-10.9-10.84-15.1-15-14.82c-4.65.31-1.29,12.4,4.37,18.9,0,0-7.53,12-2.38,18.5,1.11,1.41,9.22,5.86,11.23,5.45Z"/><path class="cls-8" d="M33.85,122.33c-3.1,4.56-5.25,11.51-3,16.54a.13.13,0,0,1-.22.12c-3.11-5.07-.7-13.13,2.31-17.05C33.49,121.19,34.65,121.15,33.85,122.33Z"/><path class="cls-10" d="M54.43,128.28,33.06,158.62a9.45,9.45,0,0,0,5.87,9c6.37,2.79,32.73,12.3,43.17,8.78s40.22-29.18,53.06-46.25-6.14-13.66-9.75-12-46.09,21.64-47.6,21.6-11.39-7.52-16-9.85S54.43,128.28,54.43,128.28Z"/><path class="cls-11" d="M66.88,176.21c6,1.1,11.58,1.46,15.21.23,10.45-3.53,40.23-29.18,53.07-46.25.82-1.08,1.5-2.08,2.07-3Z"/><g class="cls-13"><path d="M48.23,171.17l2.42.8a18.72,18.72,0,0,0,.18-2.67c0-1.69-.14-3.33-.12-5a24.11,24.11,0,0,1,.47-4.8,17,17,0,0,1,1.61-4.44c.18-.35.39-.69.58-1s.42-.62.64-.92c.47-.61,1-1.24,1.48-1.86l3.08-3.73c1-1.26,2.07-2.52,3.09-3.82s2-2.62,2.92-4A28.68,28.68,0,0,0,67,135.23a14.82,14.82,0,0,0,.61-1.77c-.87-.57-1.72-1.11-2.52-1.62a20,20,0,0,1-.91,2.11,41.87,41.87,0,0,1-2.44,3.92c-1.8,2.61-3.68,5.24-5.57,7.89-1,1.33-1.92,2.65-2.8,4.06-.44.7-.88,1.41-1.28,2.18-.19.39-.38.77-.56,1.2s-.3.81-.42,1.23a55.59,55.59,0,0,0-1.52,9.85A39.28,39.28,0,0,1,48.23,171.17Z"/><path d="M56.67,173.79l2,.54a31.28,31.28,0,0,0,.91-8.19l0-4.18q0-1,.06-2a12.17,12.17,0,0,1,.19-2,2.58,2.58,0,0,1,.11-.42l.17-.46.2-.44c.07-.15.16-.29.24-.43a8.36,8.36,0,0,1,1.2-1.6,15.05,15.05,0,0,1,3.24-2.5c.6-.36,1.21-.67,1.83-1l1.88-1a11.72,11.72,0,0,0,3.58-2.58,6.32,6.32,0,0,0,.7-1c.1-.17.18-.36.27-.54l.21-.54a13.93,13.93,0,0,0,.54-2.16,21.64,21.64,0,0,0,.25-4.31c0-.42,0-.84-.07-1.26l-1.36-.89c0,.72,0,1.43-.06,2.14a29,29,0,0,1-.45,4,15,15,0,0,1-.52,1.87l-.18.45c-.06.12-.11.26-.19.39a6.26,6.26,0,0,1-.47.76,14.44,14.44,0,0,1-2.84,2.71c-1.09.84-2.27,1.59-3.44,2.36a27.48,27.48,0,0,0-3.44,2.48,10.77,10.77,0,0,0-1.52,1.57,8.68,8.68,0,0,0-.64.91l-.27.49a4.41,4.41,0,0,0-.23.56,11,11,0,0,0-.49,2.16c-.12.71-.18,1.42-.24,2.12-.11,1.41-.18,2.8-.27,4.18s-.19,2.75-.33,4.1A27.79,27.79,0,0,1,56.67,173.79Z"/></g><path class="cls-10" d="M195,222.32c-.07.08-91.33-4.18-91.92-4.74-.27-.26-1.46-5.46-.06-12.67,4.2-21.64,16.76-65.82,27.84-84.52,2.77-4.67,15.24-11.56,24.3-2.72,18.36,17.92,32.77,63.53,38.44,88.57C196.33,218.49,195.33,221.8,195,222.32Z"/><g class="cls-13"><path d="M103.38,202.84l.81,0a65.21,65.21,0,0,1,7.72,1.22c5.25,1.07,10.59,2.27,16,3.47,2.69.59,5.39,1.22,8.16,1.68,1.39.22,2.79.44,4.24.54.74.05,1.46.1,2.25.09s1.45-.07,2.18-.16c5.79-.62,11.05-2.58,16.37-4.12A56.77,56.77,0,0,1,176.77,203c1.2,0,2.5.1,3.8.22s2.61.32,3.93.51c2.63.42,5.28.95,7.93,1.53.32.06.63.14.95.21-.32-1.4-.67-2.87-1-4.39a64.77,64.77,0,0,0-7-1.89c-1.39-.31-2.8-.55-4.24-.73-.72-.08-1.44-.16-2.17-.2a19.19,19.19,0,0,0-2.28,0,24.86,24.86,0,0,0-8.54,2.16c-2.64,1.09-5.1,2.39-7.64,3.44a39.36,39.36,0,0,1-7.8,2.43,27.94,27.94,0,0,1-8,.43c-.65-.05-1.32-.15-1.94-.24s-1.23-.25-1.85-.39c-1.28-.34-2.57-.7-3.86-1.09l-7.87-2.33q-4-1.2-8-2.3t-8.2-1.89a48.34,48.34,0,0,0-8.47-.85C104.09,199.46,103.72,201.2,103.38,202.84Z"/><path d="M107.36,185.88a46.05,46.05,0,0,1,5.68-1.62,21.92,21.92,0,0,1,3.26-.43l.8,0,.74,0a13.18,13.18,0,0,1,1.49.24,24.73,24.73,0,0,1,6.1,2.63c2,1.15,4,2.49,5.95,3.82a47.34,47.34,0,0,0,6.14,3.73,19,19,0,0,0,3.44,1.32,16.25,16.25,0,0,0,1.84.39l.95.1a7.08,7.08,0,0,0,1,0,18.7,18.7,0,0,0,3.69-.66c1.18-.29,2.33-.66,3.46-1,2.26-.74,4.48-1.55,6.69-2.32s4.42-1.52,6.61-2.2a44.72,44.72,0,0,1,6.53-1.61,12.08,12.08,0,0,1,3.12-.06,22.41,22.41,0,0,1,3.24.6,54.35,54.35,0,0,1,6.52,2.2c1.91.77,3.82,1.6,5.71,2.49-.21-.77-.42-1.55-.64-2.34q-2-1.22-4.08-2.31a45.59,45.59,0,0,0-6.66-2.9,25,25,0,0,0-3.65-.92,14.82,14.82,0,0,0-3.93-.15c-5.08.51-9.55,2.3-13.95,4.06l-6.53,2.7c-1.08.44-2.16.87-3.23,1.27a22.39,22.39,0,0,1-3.16,1,5,5,0,0,1-.75.1l-.82,0-.82,0-.83-.08a15.15,15.15,0,0,1-3.28-.82,25.81,25.81,0,0,1-6-3.41c-.94-.69-1.84-1.45-2.76-2.19l-2.73-2.31a19.75,19.75,0,0,0-6.38-3.87,10.63,10.63,0,0,0-2-.44c-.34,0-.69-.05-1-.07l-1,0a20.87,20.87,0,0,0-3.73.59,30.23,30.23,0,0,0-4.24,1.32C107.9,183.8,107.62,184.85,107.36,185.88Z"/></g><path class="cls-10" d="M164.69,119.82c29.79,12.64,52.92,23.63,49.56,35.08-1.31,4.49-9.09,16.62-19.08,16.6-7.85,0-21.85-12.59-37.79-34.63C149.14,125.49,145.88,111.85,164.69,119.82Z"/><path class="cls-8" d="M159.41,142.93c1.27,1,2.53,2.13,3.77,3.22-.26-.31-.53-.61-.8-.92-2.13-2.53-4.23-5.07-6.34-7.62,0-.05,0-.12.09-.07,4,4.27,8.06,8.49,12.09,12.75s14.64,15,17.21,17.14c.06,0,0,.13-.06.09-2.33-1.82-8.87-7.29-11-9.33q-4.72-4.62-9.08-9.55a74.75,74.75,0,0,1-6.07-5.57C159.19,143,159.32,142.86,159.41,142.93Z"/><path class="cls-12" d="M203.6,164.59c13-5.34,21.47-44.86,24.66-71.45.61-5.07-39.4-9.94-39.43-4.49C188.65,119.75,189.33,170.44,203.6,164.59Z"/><path class="cls-12" d="M233.29,72.41c-.23,8.48-7.5,29.73-10.85,33.19s-28.73-8.66-30.15-13.4-2.61-32.5,3-39.11S233.54,63.62,233.29,72.41Z"/><path class="cls-12" d="M188.71,65c2.22,3.91,5.56-.94,5.56-.94s-3.13,8.15.72,11.29,7.55-3,7.83-3.4c-.17.43-2.84,8,1.35,10.75,4.36,2.87,7.17-3.81,7.35-4.25,0,.46-.25,6.5,3.41,7.87,6.3,2.37,7.29-13,11.52-16.47,0,0,6.61,3.07,6.85,3.22,0,0,1.24-11.21-3.69-16.66a4.7,4.7,0,0,0-5.8-1s.93-4.68-2.31-7c-1.66-1.17-5,.45-5,.45s.58-3.78-2.42-5.63c-2.39-1.48-5.38.37-5.38.37s-1.12-3.88-4-4.61C198.73,37.52,184,56.6,188.71,65Z"/><path class="cls-8" d="M208.19,43.82a.06.06,0,0,0-.09-.09c-6.38,5.09-11.84,12.64-14,20.55-.07.26.32.49.45.22A85.87,85.87,0,0,1,208.19,43.82Z"/><path class="cls-8" d="M216.53,48.73c.07-.06-.05-.17-.13-.11-6.55,5.28-12.46,14-13.92,23.38,0,.32.23.66.31.29C204.24,66.1,211.25,54.47,216.53,48.73Z"/><path class="cls-8" d="M211.64,79.13c1.75-9,6.2-16.5,11.89-23.56.07-.09-.07-.19-.15-.13-3.72,2.7-6.87,7.58-9,11.58a24.14,24.14,0,0,0-3,12C211.33,79.23,211.6,79.32,211.64,79.13Z"/><path class="cls-8" d="M194.27,64a27.16,27.16,0,0,0-.91,4.94,9.16,9.16,0,0,0,.63,4.77,3,3,0,0,0,1.59,1.48,4.21,4.21,0,0,0,2.21.26,5.35,5.35,0,0,0,3.52-2.61l1.94-3.13-.74,3.62a15.11,15.11,0,0,0-.22,4.88,5.38,5.38,0,0,0,2.05,3.91,3.07,3.07,0,0,0,3.87-.09,9.22,9.22,0,0,0,2.62-3.88l1.59-4.06-.17,4.34a14.15,14.15,0,0,0,.31,3.61,5.75,5.75,0,0,0,1.51,3,2.76,2.76,0,0,0,2.86.61,6,6,0,0,0,2.46-2.4,46.67,46.67,0,0,0,3.29-6.82c.51-1.17,1-2.35,1.58-3.51a9.22,9.22,0,0,1,2.19-3.14,9.76,9.76,0,0,0-1.87,3.29c-.47,1.18-.88,2.39-1.29,3.6a41.76,41.76,0,0,1-3,7.14,7.15,7.15,0,0,1-2.86,3,3.92,3.92,0,0,1-4.25-.74,7.15,7.15,0,0,1-2-3.69,15.39,15.39,0,0,1-.4-4l1.42.28a10.83,10.83,0,0,1-3,4.61,4.44,4.44,0,0,1-2.84,1,5,5,0,0,1-2.83-.94,6.84,6.84,0,0,1-2.6-4.95,16.69,16.69,0,0,1,.33-5.37l1.21.49a6.41,6.41,0,0,1-4.51,3,5.44,5.44,0,0,1-2.73-.47,4,4,0,0,1-1.94-2,9.54,9.54,0,0,1-.35-5.17A22.89,22.89,0,0,1,194.27,64Z"/><path class="cls-12" d="M191.5,94s-20.64-37.78-1.37-38.28c4.66-.12,23.27,7.42,21.93,11.19-1.74,4.87-10.06,3.37-15.14,1.61,0,0,6.11,10.75-.11,17.24A24.58,24.58,0,0,0,191.5,94Z"/><path class="cls-8" d="M188.83,55.72a18.61,18.61,0,0,1,5.45.59,40.63,40.63,0,0,1,5.28,1.6,62.17,62.17,0,0,1,10,4.64,10.35,10.35,0,0,1,2.3,1.8,3.84,3.84,0,0,1,.86,1.44,3,3,0,0,1,.15.91,2.82,2.82,0,0,1-.18.9,4.61,4.61,0,0,1-2.1,2.42,8.72,8.72,0,0,1-2.86.93,16.83,16.83,0,0,1-5.68-.29,37.72,37.72,0,0,1-5.36-1.52l.76-.93a22.69,22.69,0,0,1,1.59,3.92,21.23,21.23,0,0,1,.82,4.11,14.56,14.56,0,0,1-.26,4.17,10.63,10.63,0,0,1-1.6,3.81,12,12,0,0,0,1.16-3.88,14.55,14.55,0,0,0-.11-4,19.15,19.15,0,0,0-1-3.87,20.85,20.85,0,0,0-1.7-3.6l-.84-1.4,1.6.48a41.13,41.13,0,0,0,5.2,1.29,16.26,16.26,0,0,0,5.19.21c1.62-.25,3.29-1,3.75-2.34.51-1.13-1-2.41-2.47-3.34s-3.09-1.79-4.7-2.62-3.24-1.63-4.9-2.34C195.87,57.43,192.47,56,188.83,55.72Z"/><path class="cls-10" d="M187.22,96.33l41.61,9.1a29.22,29.22,0,0,1,.32,16.08c-4.59,15.54-18.29,48.9-29.35,48.13-12-.84-14.87-42.55-14.67-63C185.2,99.79,187.22,96.33,187.22,96.33Z"/><g class="cls-13"><path d="M185.15,112.56c0,.88,0,1.78.06,2.69,1,.51,2,1,3.09,1.39.78.31,1.59.59,2.4.83.42.12.83.24,1.25.33s.88.18,1.32.24a15,15,0,0,0,5.2-.43c1.63-.38,3.2-.9,4.78-1.27a24.32,24.32,0,0,1,4.78-.65,16.39,16.39,0,0,1,4.7.53c.37.09.76.21,1.11.33s.69.26,1,.4c.7.32,1.43.66,2.15,1l4.35,2.13c1.46.72,2.94,1.43,4.43,2.11.9.43,1.82.83,2.76,1.21.21-.67.4-1.29.58-1.9s.26-.93.36-1.39c-2.28-.89-4.59-1.83-6.9-2.77-1.52-.6-3-1.24-4.6-1.77-.79-.26-1.58-.53-2.42-.73-.42-.1-.84-.2-1.3-.27s-.86-.1-1.29-.12c-3.43-.2-6.69.43-9.93.81a34,34,0,0,1-9.4,0c-.7-.12-1.44-.3-2.19-.5s-1.49-.44-2.24-.69C187.87,113.61,186.52,113.1,185.15,112.56Z"/><path d="M185.38,119.86c0,.48,0,1,.07,1.45.55.46,1.1.91,1.68,1.35a30.32,30.32,0,0,0,3.59,2.34,17,17,0,0,0,2,.89,9.44,9.44,0,0,0,2.28.47,30.64,30.64,0,0,0,8.53-1l4.06-.94,2-.43a13.68,13.68,0,0,1,1.94-.27,3.17,3.17,0,0,1,.44,0l.48.06.48.09c.16,0,.32.09.48.13a9.2,9.2,0,0,1,1.83.79,14.75,14.75,0,0,1,3.18,2.58c.49.49.94,1,1.4,1.54l1.37,1.61a11.31,11.31,0,0,0,3.34,2.88,2.68,2.68,0,0,0,.42.19c.21-.54.41-1.07.61-1.61-.1,0-.21-.07-.31-.12a14.84,14.84,0,0,1-3.3-2.12c-1.07-.87-2.08-1.84-3.09-2.81a27.62,27.62,0,0,0-3.22-2.77,11.24,11.24,0,0,0-1.87-1.11,10.12,10.12,0,0,0-1-.4l-.55-.16a5.58,5.58,0,0,0-.59-.1,11.69,11.69,0,0,0-2.22,0c-.72.06-1.42.16-2.11.27-1.39.22-2.77.47-4.13.71s-2.72.45-4.07.63a25.66,25.66,0,0,1-4,.3,7.12,7.12,0,0,1-1.84-.27,13.8,13.8,0,0,1-1.82-.66,31,31,0,0,1-3.59-1.92C187.06,121,186.22,120.43,185.38,119.86Z"/></g><path class="cls-8" d="M187.75,107.53a383.73,383.73,0,0,0,38.33,8.91.06.06,0,0,0,0-.12c-14.3-4.39-36.93-8.92-38.32-9A.13.13,0,0,0,187.75,107.53Z"/><path class="cls-8" d="M185.72,132.27c.49,3.9,1.6,10.09,2.5,13.91.05.24.11.49.17.73a23.07,23.07,0,0,0-.38,4.16c0,1.62.14,3.24.31,4.85,0,.07.11.06.1,0a31.17,31.17,0,0,1,.05-4.83c.07-1,.14-1.92.23-2.88.87,3.66,1.8,7.3,2.93,10.88,0,.07.12,0,.11,0-.86-3.88-1.78-7.76-2.5-11.68s-2.35-13.09-3-17C185.67,127.31,185.57,131.05,185.72,132.27Z"/><path class="cls-12" d="M147.79,116c-.48,1.43-8.37,10.22-15,9.25-2.16-.31-.95-12.19-.95-12.19l-.11-.89-1.55-12.56,17.54-8.87S148,115.42,147.79,116Z"/><path class="cls-8" d="M130.17,99.65l1.55,12.54.11.91s-.22,2.15-.3,4.64c9.22-.47,14-6.89,16.32-11.42,0-7.12-.14-15.55-.14-15.55Z"/><path class="cls-12" d="M110.6,78.24c-6.4,26.34,8.65,33.14,14.33,34.52,5.16,1.24,22.88,4.84,32-20.7s-1.14-36.83-12.78-40.31S117,51.9,110.6,78.24Z"/><path class="cls-8" d="M118.17,79c.64,0,1.23,0,1.87-.07a3,3,0,0,0,1.89-.44,1,1,0,0,0,.2-1.16,2.4,2.4,0,0,0-2.23-1,3.51,3.51,0,0,0-2.38.86A1,1,0,0,0,118.17,79Z"/><path class="cls-8" d="M136.9,83a18.51,18.51,0,0,1-1.74-.69,3,3,0,0,1-1.64-1,1,1,0,0,1,.2-1.16,2.38,2.38,0,0,1,2.42-.15,3.52,3.52,0,0,1,2,1.59A1,1,0,0,1,136.9,83Z"/><path class="cls-8" d="M129,101.2c-.49.38-1,.92-1.66.91a5,5,0,0,1-1.93-.68.07.07,0,0,0-.09.09,2.53,2.53,0,0,0,2.23,1.25,2,2,0,0,0,1.61-1.47C129.18,101.2,129.05,101.14,129,101.2Z"/><path class="cls-4" d="M122.33,96.82a7.61,7.61,0,0,0,2.27,3.09,3.34,3.34,0,0,0,2,.69c1.54,0,2-1.27,2-2.48a8.22,8.22,0,0,0-.15-1.91A9.84,9.84,0,0,1,122.33,96.82Z"/><path class="cls-3" d="M123.25,98.52l.24.32a6,6,0,0,0,1.47,0Q124.09,98.69,123.25,98.52Z"/><path class="cls-3" d="M126.51,98.71a4.74,4.74,0,0,0,1.12-.12,5,5,0,0,0,.92-.33s0-.09,0-.13a1.48,1.48,0,0,0,0-.21A16.89,16.89,0,0,1,126.51,98.71Z"/><path class="cls-8" d="M122.46,93.35s-.83,2.66-1,3.94c0,.12.28.23.71.33,0,0,0,0,.05,0a6.18,6.18,0,0,0,6.3-1.3.13.13,0,0,0-.16-.2,9.32,9.32,0,0,1-5.83.67c0-.37,1.57-4.56,1.36-4.56-.87,0-2.44.14-3,.18.5-1.74,2.16-6.6,3.06-9.77.06-.2-.24-.31-.32-.14a86.51,86.51,0,0,0-4.23,10.79C119.24,93.59,121.91,93.49,122.46,93.35Z"/><path class="cls-8" d="M135.44,87.94a2.68,2.68,0,0,0-.39-1.32,1.9,1.9,0,0,0-1.27-.78,1.66,1.66,0,0,0-1.42.52,2.9,2.9,0,0,0-.66,1.18,5.39,5.39,0,0,0-.16.8,3.67,3.67,0,0,0,.15,1.68,5.28,5.28,0,0,1,.22-1.21,8,8,0,0,1,.38-1c.33-.68.82-1.22,1.39-1.11s1,.61,1.12,1.36a11.24,11.24,0,0,1,.15,2.35A5.27,5.27,0,0,0,135.44,87.94Z"/><path class="cls-8" d="M117.23,84.42a2.5,2.5,0,0,1,.86-1.07,1.85,1.85,0,0,1,1.47-.25,1.71,1.71,0,0,1,1.12,1,2.9,2.9,0,0,1,.16,1.35,4.34,4.34,0,0,1-.15.8,3.64,3.64,0,0,1-.77,1.5,5.83,5.83,0,0,0,.25-1.2,8.42,8.42,0,0,0,0-1.11c0-.76-.3-1.45-.87-1.56a1.46,1.46,0,0,0-1.55.84,12.75,12.75,0,0,0-1,2.13A5.34,5.34,0,0,1,117.23,84.42Z"/><path class="cls-8" d="M159.5,94.44c-8.06.09-11.68-9.73-9.35-17.32,0,0-21.5,1.57-21.51-15.62a16.84,16.84,0,0,1-14.33,6.87l-2.75,6.18c-2.15-.77-4.12-7.12,1.53-11.69,0,0,.87-8.51,7.47-13.26a11.67,11.67,0,0,1,12.65-1,17.68,17.68,0,0,1,13-2.41c7.8,1.47,10.61,8.83,10.61,8.83s10.45,2.64,11.81,10.26a15.59,15.59,0,0,1-2.82,12.42s2.48,3.1.75,9.43C165.5,91.18,161.92,94.41,159.5,94.44Z"/><path class="cls-8" d="M129.2,60a20.28,20.28,0,0,0-.29,4.18,16.44,16.44,0,0,0,.53,4.09A10.8,10.8,0,0,0,134,74.72c2.21,1.62,5,2,7.75,2.44,1.38,0,2.78.18,4.17.14s2.8-.15,4.21-.18c-1.38.25-2.78.44-4.18.67s-2.83.08-4.26.13c-2.81-.28-5.77-.69-8.23-2.37a11.3,11.3,0,0,1-4.78-7.09A17.13,17.13,0,0,1,129.2,60Z"/><path class="cls-8" d="M156.87,55a19.8,19.8,0,0,1,7.77,2.17,11.89,11.89,0,0,1,5.63,5.9,13.1,13.1,0,0,1,.78,4.07,12.37,12.37,0,0,1-.45,4.1,11.08,11.08,0,0,1-4.74,6.44,12.15,12.15,0,0,0,4-6.63,13.44,13.44,0,0,0-.51-7.62,10.15,10.15,0,0,0-2-3.21,15.54,15.54,0,0,0-3.06-2.39A25,25,0,0,0,156.87,55Z"/><path class="cls-8" d="M133.21,48.58A20.3,20.3,0,0,0,127,47a12.18,12.18,0,0,0-6.1,1,12.34,12.34,0,0,0-4.7,4,22,22,0,0,0-2.89,5.72,16,16,0,0,1,2.26-6.14,11,11,0,0,1,11.52-5.32A15.26,15.26,0,0,1,133.21,48.58Z"/><path class="cls-8" d="M117.62,69.26a22.32,22.32,0,0,0,6.68-3.1A13.73,13.73,0,0,0,127,63.7a16.62,16.62,0,0,0,2-3.13,9,9,0,0,1-1.37,3.58A9.86,9.86,0,0,1,124.87,67a12.23,12.23,0,0,1-3.47,1.72A11.35,11.35,0,0,1,117.62,69.26Z"/><path class="cls-10" d="M132.26,97.5a9.49,9.49,0,0,1-6-12h0a9.45,9.45,0,1,1,6,12Zm-4.81-11.56a8.16,8.16,0,1,0,8.36-5.61A8.21,8.21,0,0,0,127.45,85.94Z"/><path class="cls-10" d="M113.45,93.78c-3.82-.72-6.13-5.48-5.16-10.61A11.31,11.31,0,0,1,111.48,77a5.9,5.9,0,0,1,9.92,1.88,11.22,11.22,0,0,1,.73,6.87c-.91,4.86-4.45,8.33-8.06,8.07A4.38,4.38,0,0,1,113.45,93.78ZM112.35,78a10,10,0,0,0-2.82,5.45c-.84,4.44,1,8.54,4.16,9.13s6.36-2.54,7.2-7a10,10,0,0,0-.64-6.1,5,5,0,0,0-3.52-3l-.47-.07A5.24,5.24,0,0,0,112.35,78Z"/><path class="cls-10" d="M126.26,86.66l.83-.68c-1-1.22-3.5-3.09-5.8-1.4l.63.86C124,83.93,126.17,86.54,126.26,86.66Z"/><path class="cls-10" d="M163.72,95.84l1-.3c-.14-.48-1.45-4.68-3.72-5.51s-16.43-2.1-17-2.15l-.1,1.06c4.1.38,15.13,1.5,16.76,2.1S163.37,94.69,163.72,95.84Z"/><path class="cls-12" d="M151.3,93.28s7.13-7.47,10.6-4.8-2.77,14.11-7.48,15.09a4.59,4.59,0,0,1-5.7-3.37Z"/><path class="cls-8" d="M160,91.71a.07.07,0,0,1,0,.13c-3.32.78-5.41,3.43-7,6.25,1.11-1,2.47-1.45,3.85-.11.07.07,0,.19-.11.16a2.83,2.83,0,0,0-3.22.5,13.93,13.93,0,0,0-1.85,2.26c-.19.25-.67,0-.51-.28l0-.07C151.74,96.56,155.69,91.46,160,91.71Z"/><path class="cls-9" d="M158.74,117.85c1.09-1.36-6-5.36-7.8-3.85s-11.1,25-8.09,50.57,52.43,53,54.24,49.19c.77-1.6-.21-6.08-1.41-7.51-1.7-2-37.37-24.15-40.89-40C151.66,152.2,156,121.3,158.74,117.85Z"/><path class="cls-9" d="M130.92,117.3c1.48-2.82-6.15-.55-7,1s-11.06,25.91-12.82,41.85c-.7,6.38-3.18,23.58-3.18,23.58s7.47-23.09,13.62-42.38A202.85,202.85,0,0,1,130.92,117.3Z"/><path class="cls-8" d="M48.62,201.58s-8.77-31.65-15.78-42.4-20.07-22.57-20.07-22.57S13.08,185.42,48.62,201.58Z"/><path class="cls-4" d="M48,201a152.74,152.74,0,0,1-8-15.34,108.28,108.28,0,0,0-4.35-16.64.08.08,0,0,0-.16.05c1.17,5,2.52,10,3.75,14.95-3.54-7.71-6.91-15.51-11.13-22.79A48.63,48.63,0,0,0,24,151.14c-.05-.1-.2,0-.16.05a64.51,64.51,0,0,1,2.74,7.6A76.66,76.66,0,0,0,20,149.53c-.15-.18-.46,0-.31.22,5.64,7.23,9.54,15.47,13.24,23.8a127.44,127.44,0,0,1-11-13.83c0-.05-.1,0-.07.05a113.49,113.49,0,0,0,11.79,15.37c2.7,6.1,5.35,12.23,8.57,18-6.43-5.46-11.38-12.53-16.28-19.36a.15.15,0,0,0-.24.17c4.9,7.49,10,14.54,17,20.08a79.68,79.68,0,0,0,4.71,7.4A.38.38,0,0,0,48,201Z"/><path class="cls-8" d="M51.34,204.44s-15.77-29.19-11.19-57.5,9.49-38.37,9.49-38.37S74.43,152.58,51.34,204.44Z"/><path class="cls-4" d="M57.81,158.54a138.11,138.11,0,0,1-6.08,23.58q-.07-15.59-.52-31.16a80.66,80.66,0,0,0,3-19.34.15.15,0,0,0-.3,0,110,110,0,0,1-2.76,16.65q-.36-12.86-.83-25.7a.12.12,0,0,0-.23,0c0,13.38,0,26.77.09,40.15a107.52,107.52,0,0,1-4.54-15.9,0,0,0,0,0-.09,0,62.38,62.38,0,0,0,4.65,18.09c.06,8.56.15,17.11.34,25.66-2.66-9.09-5.51-17.9-6.29-27.51a.1.1,0,0,0-.2,0c.21,10.6,2.93,21.36,6.41,31.33a.52.52,0,0,0,.18.25c.07,3.13.16,6.25.27,9.38a.35.35,0,0,0,.69,0q.18-9.6.16-19.19A86.48,86.48,0,0,0,58,158.56C58,158.48,57.83,158.47,57.81,158.54Z"/><path class="cls-8" d="M56.73,154a55.91,55.91,0,0,0-1.1,7.71.08.08,0,0,0,.15,0,55.37,55.37,0,0,0,1.3-7.69C57.1,153.87,56.77,153.84,56.73,154Z"/><path class="cls-8" d="M47.51,132.69c0-.08-.15-.06-.15,0a19.9,19.9,0,0,0,.79,5.31c0,.15.24.08.22-.06C48,136.22,47.81,134.45,47.51,132.69Z"/><path class="cls-8" d="M57.09,206.67s-.64-30.47,8-45.62,23.12-22.86,23.12-22.86S82.45,191.9,57.09,206.67Z"/><path class="cls-4" d="M72.94,180.61a114,114,0,0,1-11.77,15q2.61-9.35,6-18.38c4.88-4.3,9.71-8.75,12.7-14.63a.08.08,0,0,0-.14-.08c-3.22,5.2-7.52,9.37-12,13.38a236.47,236.47,0,0,1,12.1-26.5.19.19,0,0,0-.33-.2,147.4,147.4,0,0,0-7.59,13.91c.82-3.26,1.47-6.59,2.3-9.82,0-.09-.1-.12-.14,0a55.89,55.89,0,0,0-3.57,12.93A155.26,155.26,0,0,0,62.83,187c.22-4.57.51-9.12,1-13.67a.08.08,0,0,0-.16,0,74.47,74.47,0,0,0-1.31,15.34q-1.89,6.82-3.16,13.77c0,.12.16.18.19.05.47-1.94,1-3.86,1.51-5.78,0,0,.07,0,.1,0,4.67-4.7,9.09-10.05,12-16C73,180.61,73,180.58,72.94,180.61Z"/><path class="cls-8" d="M83,155.82c-1,1.05-1.85,2.16-2.79,3.24a24,24,0,0,0-2.5,2.94s0,.09.07.07a14.82,14.82,0,0,0,2.89-2.87,24.39,24.39,0,0,0,2.47-3.27A.09.09,0,0,0,83,155.82Z"/><path class="cls-9" d="M31.26,203l1.09,9.77,3.31,29.53h28.8l3.31-29.53L68.86,203H31.26Z"/><path class="cls-9" d="M31.26,203l1.09,9.77H67.77L68.86,203H31.26Z"/><rect class="cls-9" x="28.7" y="195.87" width="42.72" height="11.07"/><path class="cls-4" d="M55.55,34A23.88,23.88,0,0,0,93.68,53.19l11.7,3-4.87-10.9A23.89,23.89,0,1,0,55.55,34Z"/><path class="cls-8" d="M64.73,15.15A23.8,23.8,0,0,1,85.3,10.68,24.07,24.07,0,0,1,95,15.55a24.18,24.18,0,0,1,8.65,19.37,23.67,23.67,0,0,1-2.85,10.52l0-.29,4.84,10.91.25.56-.59-.15-11.69-3,.2,0A24.41,24.41,0,0,1,88,56.54,23.88,23.88,0,0,1,81.52,58a20.45,20.45,0,0,1-3.32,0,22.74,22.74,0,0,1-3.29-.4c-.54-.08-1.07-.26-1.61-.39a12.5,12.5,0,0,1-1.58-.48l-1.55-.58c-.5-.23-1-.48-1.49-.72L67.94,55l-.7-.44c-.46-.29-.95-.55-1.39-.88l-1.32-1a16.26,16.26,0,0,1-1.25-1.09A27,27,0,0,1,61,49.25a25.23,25.23,0,0,1-1.9-2.7,23.95,23.95,0,0,1,5.63-31.4ZM59.15,46.52a26.57,26.57,0,0,0,1.91,2.68,25.52,25.52,0,0,0,2.29,2.36,14.1,14.1,0,0,0,1.24,1.08l1.32,1c.44.32.94.57,1.4.87l.7.42c.24.13.5.24.74.36l1.49.7,1.55.55a10.49,10.49,0,0,0,1.57.46c.53.12,1.06.3,1.6.37a22.26,22.26,0,0,0,3.26.35,19.84,19.84,0,0,0,3.27,0A23.62,23.62,0,0,0,93.54,53l.09-.06.11,0,11.72,2.94-.34.4-4.9-10.89-.07-.14.08-.14A23.62,23.62,0,0,0,101,24.47a24.55,24.55,0,0,0-6.34-8.53A23.67,23.67,0,0,0,85.21,11a23.92,23.92,0,0,0-10.68-.29,24.29,24.29,0,0,0-9.74,4.48,23.64,23.64,0,0,0-5.64,31.29Z"/><polygon class="cls-10" points="83.32 48.23 94.02 37.39 90.43 33.84 84.17 40.17 71.18 19.8 66.91 22.52 83.32 48.23"/></svg>