<svg id="Слой_1" data-name="Слой 1" xmlns="http://www.w3.org/2000/svg" viewBox="0 0 160 160"><defs><style>.cls-1{fill:#4a148c;}.cls-2{fill:#ffc800;}.cls-3{fill:#a8a8a8;}.cls-4{fill:#ececec;}.cls-5{fill:#fff;}</style></defs><rect class="cls-1" x="-4.45" y="-6.22" width="272.62" height="172"/><rect class="cls-2" x="-4.45" y="-6.22" width="272.62" height="15.15"/><path class="cls-3" d="M9.77,1.46A3.81,3.81,0,1,1,6-2.35,3.81,3.81,0,0,1,9.77,1.46Z"/><circle class="cls-4" cx="21.53" cy="1.46" r="3.81"/><path class="cls-5" d="M40.91,1.46A3.82,3.82,0,1,1,37.1-2.35,3.81,3.81,0,0,1,40.91,1.46Z"/><rect class="cls-4" x="11.8" y="39.06" width="8.1" height="2.96"/><rect class="cls-4" x="25.8" y="39.06" width="106.46" height="2.96"/><rect class="cls-2" x="137.24" y="39.06" width="15.38" height="2.96"/><rect class="cls-3" x="157.18" y="39.06" width="43.34" height="2.96"/><rect class="cls-4" x="19.9" y="46.98" width="8.1" height="2.96"/><rect class="cls-3" x="33.7" y="46.98" width="60.97" height="2.96"/><rect class="cls-3" x="135.14" y="78.66" width="23.06" height="2.96"/><rect class="cls-3" x="25.8" y="70.74" width="58.24" height="2.96"/><rect class="cls-2" x="33.7" y="54.9" width="40.86" height="2.96"/><rect class="cls-3" x="147.53" y="62.82" width="40.86" height="2.96"/><rect class="cls-3" x="79.09" y="54.9" width="78.79" height="2.96"/><rect class="cls-2" x="25.8" y="78.66" width="104.07" height="2.96"/><rect class="cls-2" x="154.25" y="46.98" width="58.95" height="2.96"/><rect class="cls-4" x="98.5" y="46.98" width="52.41" height="2.96"/><rect class="cls-4" x="19.9" y="54.9" width="8.1" height="2.96"/><rect class="cls-3" x="11.8" y="62.82" width="8.1" height="2.96"/><rect class="cls-4" x="25.8" y="62.82" width="47.87" height="2.96"/><rect class="cls-4" x="33.7" y="86.57" width="47.87" height="2.96"/><rect class="cls-2" x="114.34" y="94.49" width="53.14" height="2.96"/><rect class="cls-2" x="85.46" y="86.57" width="61.55" height="2.96"/><rect class="cls-4" x="54.82" y="94.49" width="55.33" height="2.96"/><rect class="cls-3" x="33.7" y="94.49" width="18" height="2.96"/><rect class="cls-4" x="87.34" y="70.74" width="65.29" height="2.96"/><rect class="cls-2" x="155.97" y="70.74" width="49.67" height="2.96"/><rect class="cls-2" x="78.54" y="62.82" width="65.22" height="2.96"/><rect class="cls-4" x="11.8" y="70.74" width="8.1" height="2.96"/><rect class="cls-4" x="11.8" y="78.66" width="8.1" height="2.96"/><rect class="cls-3" x="19.9" y="86.57" width="8.1" height="2.96"/><rect class="cls-3" x="151.61" y="86.57" width="39.37" height="2.96"/><rect class="cls-3" x="159.17" y="101.05" width="39.37" height="2.96"/><rect class="cls-4" x="19.9" y="94.49" width="8.1" height="2.96"/><rect class="cls-4" x="11.8" y="101.12" width="8.1" height="2.96"/><rect class="cls-4" x="25.8" y="101.12" width="94.97" height="2.96"/><rect class="cls-2" x="125.85" y="101.12" width="26.78" height="2.96"/><rect class="cls-4" x="19.9" y="109.04" width="8.1" height="2.96"/><rect class="cls-3" x="33.7" y="109.04" width="60.97" height="2.96"/><rect class="cls-3" x="25.8" y="132.8" width="58.24" height="2.96"/><rect class="cls-2" x="33.7" y="116.96" width="40.86" height="2.96"/><rect class="cls-3" x="79.09" y="116.96" width="78.79" height="2.96"/><rect class="cls-2" x="25.8" y="140.71" width="104.07" height="2.96"/><rect class="cls-2" x="154.25" y="109.04" width="58.95" height="2.96"/><rect class="cls-4" x="98.5" y="109.04" width="52.41" height="2.96"/><rect class="cls-4" x="19.9" y="116.96" width="8.1" height="2.96"/><rect class="cls-3" x="11.8" y="124.88" width="8.1" height="2.96"/><rect class="cls-4" x="25.8" y="124.88" width="47.87" height="2.96"/><rect class="cls-3" x="149.4" y="124.88" width="47.87" height="2.96"/><rect class="cls-4" x="87.34" y="132.8" width="89.65" height="2.96"/><rect class="cls-2" x="78.54" y="124.88" width="65.22" height="2.96"/><rect class="cls-4" x="11.8" y="132.8" width="8.1" height="2.96"/><path class="cls-2" d="M16.81,31.27a.72.72,0,0,1,0,1,.69.69,0,0,1-.49.2.7.7,0,0,1-.51-.2L12.68,29.1s0,0,0-.06l0,0a.47.47,0,0,1,0-.09.09.09,0,0,1,0-.05s0-.05,0-.06,0-.05,0-.06v-.08s0,0,0-.06,0-.05,0-.06v-.08s0,0,0,0,0-.06,0-.09,0,0,0,0a.46.46,0,0,1,.05-.1s0,0,0,0l.07-.07L15.81,25a.71.71,0,0,1,1,1l-2.64,2.66Z"/><path class="cls-2" d="M19.64,31.63l2.72-6.48a.62.62,0,0,1,.81-.33.6.6,0,0,1,.31.79l-2.72,6.5a.61.61,0,0,1-.57.36.6.6,0,0,1-.22,0A.59.59,0,0,1,19.64,31.63Z"/><path class="cls-2" d="M28.86,29a0,0,0,0,1,0,0,.29.29,0,0,1-.08.07l-3.12,3.17a.73.73,0,0,1-1,0,.7.7,0,0,1,0-1l2.63-2.65L24.65,26a.7.7,0,0,1,0-1,.72.72,0,0,1,1,0l3.12,3.17a.29.29,0,0,1,.08.07s0,0,0,0,.05.06.06.1,0,0,0,0a.93.93,0,0,0,0,.1s0,0,0,0v.08s0,0,0,.06,0,0,0,.05v.09s0,0,0,0,0,.08,0,.1,0,0,0,0A.64.64,0,0,0,28.86,29Z"/></svg>