<svg id="Слой_1" data-name="Слой 1" xmlns="http://www.w3.org/2000/svg" viewBox="0 0 581.13 402.55"><defs><style>.cls-1{fill:#fff;}.cls-2{fill:#ffc800;}.cls-3{fill:#1a2e35;}.cls-4{fill:#ed776a;}.cls-5{fill:#306;}.cls-6{fill:#ececec;}.cls-7{fill:#c8c8c8;}.cls-8{fill:#ff9cbf;}.cls-9{fill:#dcdcdc;}</style></defs><circle class="cls-1" cx="228.8" cy="195.05" r="164"/><path class="cls-2" d="M378.15,370c-92.08,0-167-74.92-167-167s74.92-167,167-167,167,74.92,167,167S470.23,370,378.15,370Zm0-325.82c-87.57,0-158.81,71.25-158.81,158.82s71.24,158.82,158.81,158.82S537,290.53,537,203,465.72,44.14,378.15,44.14Z"/><circle class="cls-2" cx="378.15" cy="202.96" r="144.22" transform="translate(-32.76 326.84) rotate(-45)"/><path class="cls-3" d="M333.51,199.29c1.56.1,8.86.6,19.53,1.36,4-6.64,9-18.48,7.87-35.61-.2-2.84,5.73,13.68,2,36.31,20.62,1.44,48.66,3.38,73.17,4.84.91-9.55,2.19-18.37,2.19-18.37a107,107,0,0,0,3.14,18.71c3.35.23,6.64.39,9.79.57,0-14.9,3.68-40.69,3.68-40.69a130.48,130.48,0,0,0,10.26,41.44c15.56.77,25.82,1,25.2.22-22.33-28.08-4.37-42.85-10-66.94-6.73-28.88-31.1-34.53-29.39-55.9,1.34-17.39,5-48.9-16.74-56.66,0,0-17-20.42-45.6-10.91-35.38,11.73-24.08,66.07-26.95,76.89C357.63,110,350,115.17,343.59,132.71c-6.48,17.76,1.18,30.09,1.55,42.35S329.6,199.08,333.51,199.29Z"/><path class="cls-3" d="M491.25,204.25a61.18,61.18,0,0,1-6.87-15.6c-1.53-5.39-.51-10.79.82-16.35a171.41,171.41,0,0,0,3.65-17.08c.72-5.88.79-12.09-.9-18a40,40,0,0,0-8.67-15.89,106.84,106.84,0,0,0-12.85-12c-4.35-3.72-8.68-7.39-11.85-12a31.22,31.22,0,0,1-5.53-15.85,29.32,29.32,0,0,0,3.74,17c2.94,5.21,7.16,9.48,11.35,13.45s8.42,7.81,11.91,12.12a37.85,37.85,0,0,1,7.49,14.36,44.77,44.77,0,0,1,.89,16.31c-.57,5.56-1.87,11.11-2.88,16.86a58.17,58.17,0,0,0-1,8.85,25.68,25.68,0,0,0,1.56,8.94A49.68,49.68,0,0,0,491.25,204.25Z"/><path class="cls-3" d="M368.09,36.74c-3,6.48-4.34,13.59-5.68,20.56s-2.07,14.1-2.85,21.14L358.32,89a53,53,0,0,1-2.05,10c-2,6.44-5.94,12-10.33,17.56a81.15,81.15,0,0,0-6.1,9,49.87,49.87,0,0,0-4.35,10.23,73.41,73.41,0,0,0-2,10.79,44.74,44.74,0,0,0,.1,11c.46,3.66,1.33,7.14,2,10.55a54.34,54.34,0,0,1,1.16,10.29c.21,6.8-3.68,13.41-9.37,17.59A22.11,22.11,0,0,0,339,178.54a53.32,53.32,0,0,0-.42-10.87c-.45-3.58-1.19-7-1.42-10.42a56.58,56.58,0,0,1,2.54-20.2,49.5,49.5,0,0,1,4.09-9.24,76.78,76.78,0,0,1,5.87-8.5,104.65,104.65,0,0,0,6.22-8.89,44.09,44.09,0,0,0,4.59-10.16,56.92,56.92,0,0,0,1.9-10.85c.36-3.57.59-7.11.81-10.65.47-7.07.84-14.13,1.51-21.16A102.43,102.43,0,0,1,368.09,36.74Z"/><path class="cls-2" d="M538.34,335.82c-.06-.42-.14-.83-.22-1.25.1.53.2,1,.26,1.56C538.36,336,538.36,335.93,538.34,335.82Z"/><path class="cls-2" d="M468.5,348.18a7.15,7.15,0,0,0,.73.38l.1-.18,0,0-.75-.16A.18.18,0,0,1,468.5,348.18Z"/><path class="cls-4" d="M368.74,153c-43.83,49.31-96.91,151-85,170.44C297,345.06,360.21,274.84,358,271.66c-1.84-2.71,18.72-63.54,33.64-108S379.58,140.77,368.74,153Z"/><path class="cls-5" d="M368.74,153c-43.83,49.31-96.91,151-85,170.44C297,345.06,360.21,274.84,358,271.66c-1.84-2.71,18.72-63.54,33.64-108S379.58,140.77,368.74,153Z"/><path class="cls-6" d="M374.64,214.67c-4.28,13-8.2,25.15-11.18,34.87-6.78.31-26.59-.79-47.18-20.57,6.19-11,12.89-22,19.8-32.53C341.26,201.89,353.82,212.53,374.64,214.67Z"/><path class="cls-5" d="M326.45,345.89l11-74.59s-17.65-30.8-7.41-52.91c5.17-11.2,40.6-65.93,59.69-79.78,17.9-13,42.43-1.15,50.77,10.16,24,32.5,35.68,91,49.07,197.12Z"/><path class="cls-3" d="M358.56,173q-5.43,7.45-10.59,15.1c.94-2,1.89-4,2.82-5.94.06-.14-.15-.26-.22-.12-1.29,2.49-2.47,5-3.62,7.55q-6.93,10.26-13.43,20.8a53.66,53.66,0,0,0-4.76,9.3,41.54,41.54,0,0,0-2.34,9.89,52.26,52.26,0,0,0-.16,10.16,70.8,70.8,0,0,0,1.47,10.36,66.4,66.4,0,0,0,3.65,11.32c.76,1.78,1.58,3.55,2.46,5.28s2.45,4.81,2.42,4.94c-.33,1.78-.66,3-.89,4.54l-.69,4.59c-.46,3.06-4.43,32.85-4.88,35.92-.89,6.08-1.66,12.17-2.42,18.27-.43,3.5-.66,7-1.15,10.52,0,.14.19.2.22,0,.5-3,1.25-6,1.81-9.07s1.11-6.08,1.68-9.11c1.15-6.13,5.58-39.05,6.54-45.21.27-1.71.53-3.41.8-5.12a34.08,34.08,0,0,0,.65-5.69s-5.46-11.22-7.59-19.09a67.66,67.66,0,0,1-2.17-10.15,53.87,53.87,0,0,1-.12-10.08,44.52,44.52,0,0,1,1.94-9.89,50.83,50.83,0,0,1,4.28-9.41c3.57-6.34,7.36-12.56,11.2-18.73q6.54-10.5,13.28-20.88C358.82,173,358.64,172.89,358.56,173Z"/><path class="cls-4" d="M283.72,323.41c11.19,14.35,39.69,15.72,111.13,25.89,9.89,1.41,38.59-65.68,28.11-67.73-13.2-2.57-65-9.71-68.83-9.76C321.63,271.44,276.13,313.67,283.72,323.41Z"/><path class="cls-4" d="M408.65,279.08s30.19,3,45.57,9.44c20.6,8.66,34.81,24.62,40.36,31.67,11.6,14.71,29.45,58.3,17.8,65.63C501.83,392.46,485.82,347,485.82,347s24,43.67,9.8,49.32-29.75-48.18-29.75-48.18,23.62,45.42,8.08,48.94c-11.74,2.66-28.6-45.31-28.6-45.31s20,39.18,8.07,42.44c-13.21,3.6-31.54-39.71-31.54-39.71-31.79,3.16-48.22-8.34-58.94-17.91C360.35,334.26,408.65,279.08,408.65,279.08Z"/><path class="cls-3" d="M478.5,331.35c3,5,6.08,10.1,8.62,15.37s4.9,10.65,6.94,16.14c5,13.47,6,22.69,5.91,22.12-3-13.3-11.78-32.33-14.32-37.61s-4.82-10.66-7.35-15.93C478.24,331.31,478.43,331.23,478.5,331.35Z"/><path class="cls-3" d="M459.28,340.19c3.55,6.58,7.32,13,10.59,19.74s5.74,13.36,8.52,20.28c.21.53-.15.47-.38,0-3.05-6.81-6.4-12.86-9.53-19.62s-6-13.66-9.36-20.28C459.06,340.16,459.23,340.09,459.28,340.19Z"/><path class="cls-3" d="M441.42,344.81c5.94,9.78,10.08,20.66,13.88,31.42.19.53-.27.41-.49-.13-4.42-10.53-7.81-18.83-13.73-31.09C441,344.82,441.29,344.6,441.42,344.81Z"/><path class="cls-5" d="M431.46,279.6l-58.81,69.21s-80.34-5.59-89.59-26.75,51.92-52,71-50.35S431.46,279.6,431.46,279.6Z"/><path class="cls-3" d="M323.08,280.87c4.62-3.15,17.73-10.65,30.95-9.16a.12.12,0,0,1,0,.23c-10.83.33-26.11,6.43-30.83,9.12A.11.11,0,0,1,323.08,280.87Z"/><path class="cls-3" d="M360.21,336.85c23.11-24.48,43.69-53.72,47.64-58.56.19-.23-.2-.51-.38-.27-3.62,5-30.77,35.82-47.68,58.54C359.6,336.82,360,337.08,360.21,336.85Z"/><rect class="cls-7" x="270.06" y="209.56" width="130.3" height="100.1" transform="translate(13.8 536.12) rotate(-78.46)"/><rect class="cls-6" x="324.83" y="189.16" width="47.44" height="14.38" transform="matrix(0.98, 0.2, -0.2, 0.98, 46.61, -66.09)"/><polygon class="cls-6" points="362.68 191.91 356.96 190.74 358.29 184.25 344.38 181.39 343.05 187.88 337.33 186.71 339.76 174.88 365.19 180.1 362.68 191.91"/><path class="cls-4" d="M452.26,164.22c47.24,60.11,65.06,168.09,38.84,176.51-24,7.69-122.49-17-151.84-26.94-8.62-2.92,18-70,27.23-66.83,11.15,3.77,72.09,18.21,73.27,18.24,2.53.06-11-66.42-16.82-96.55C414.84,126.68,434.52,141.65,452.26,164.22Z"/><path class="cls-4" d="M287.72,221.78c-5,5.66-1,12.35-1,12.35s-5.82,1.55-8.78,6.52c-3.4,5.69,4,13.51,4,13.51a19.8,19.8,0,0,0-8.17,8.36c-2.7,5.77,3.68,14.73,3.68,14.73s-3.76,5.45-2.56,11.87c2,11,17.94,17.22,28,21.28s42.39,6.18,48.51,7.21l26.65-64.33s-39.91-31.05-52.42-34.15C315.18,216.51,293.32,215.43,287.72,221.78Z"/><path class="cls-3" d="M287.64,233.28c11.87.09,23.06,3.68,34.43,6.63a.2.2,0,0,1-.1.39c-11.28-3.06-23-3.85-34.4-6.46A.29.29,0,0,1,287.64,233.28Z"/><path class="cls-3" d="M282.58,253.4c2.68.1,5.33,1.09,7.87,1.89,2.73.85,5.45,1.76,8.16,2.71q8.13,2.83,16.1,6.09c.24.1.15.48-.11.39-5.4-1.88-10.83-3.68-16.3-5.33-2.74-.82-5.49-1.63-8.25-2.41-2.56-.73-5.32-1.29-7.67-2.58A.41.41,0,0,1,282.58,253.4Z"/><path class="cls-3" d="M277.77,277.33c2.33,0,4.83,1.26,7,2.07,2.45.91,4.9,1.82,7.36,2.7,4.92,1.78,9.84,3.55,14.82,5.16.25.08.14.47-.11.39-5.06-1.6-10.15-3.14-15.2-4.79q-3.72-1.22-7.43-2.47c-2.1-.71-4.81-1.36-6.53-2.82A.14.14,0,0,1,277.77,277.33Z"/><path class="cls-5" d="M438.87,262.48c.76-.46-13.39-64.63-18.14-98.11s10.21-30.27,31.73-1.64c23.05,30.66,64.09,113.66,49.87,175.12-4.6,19.9-147.19-8-147.19-8l19.22-82S437.69,263.18,438.87,262.48Z"/><path class="cls-3" d="M373.81,321.45c8.67-28.54,13.45-59.84,14.67-65.24.06-.25-.36-.32-.4-.06-.92,5.36-10.27,40.54-14.72,65.23C373.31,321.67,373.72,321.72,373.81,321.45Z"/><path class="cls-3" d="M465.68,272c-2.75-.47-75.55-21-91.46-23.44-.25,0,0-.88.23-.83,48.92,8.63,89.1,21.71,92.18,22.93C470.28,272.08,470.81,272.84,465.68,272Z"/><path class="cls-3" d="M438.17,263.13c.05-.14-4.8-24.71-5.66-26.24s-2.79-5.12-3.57-6.77c-1.58-3.32-2.94-6.71-4.39-10.07-.12-.28.3-.5.42-.22,1.56,3.26,3.41,6.37,5.27,9.45.93,1.52,1.86,3,2.79,4.54.07.1-4.48-24-5.12-28.24-.05-.31.29-.4.39-.14,1.37,4.27,10.91,52.56,12.21,57.91A22.49,22.49,0,0,1,438.17,263.13Z"/><path class="cls-3" d="M384.5,335c-4.75-1.31-23.8-4.39-28.43-5.06.45-1.68,1.81-8.49,1.68-10.41a.22.22,0,0,0-.39-.13c-1.09,1.59-2.94,10-3.5,11.95-.1.38,25.67,3.61,30.6,3.87A.11.11,0,1,0,384.5,335Z"/><path class="cls-4" d="M378.13,144.57s1.91,18.86,17.54,21.79,44.84-17.59,44.84-17.59S428.78,133,407.59,132.93C387.2,132.88,378.13,144.57,378.13,144.57Z"/><path class="cls-4" d="M423,139.3c-.84,2.83-15.6,20.68-28.69,19.32-4.26-.45-2.83-23.82-2.83-23.82l-.29-1.75-4-24.49L416.62,92l4.24-2.18s.66,6.77,1.4,15.22c0,.39.07.78.1,1.2s.11.92.14,1.37c.13,1.26.25,2.55.35,3.83.08,1,.16,1.93.2,3s.12,2,.19,3.06C423.71,127.6,423.35,138.1,423,139.3Z"/><path class="cls-3" d="M422.26,105a49.81,49.81,0,0,1-31.06,28.05l-4-24.49L416.62,92l4.24-2.18S421.52,96.55,422.26,105Z"/><path class="cls-4" d="M358.87,62.85c-11.46,42,12.42,53.63,21.48,56.09,8.23,2.24,36.53,8.8,52.27-31.81S432.44,27.9,413.9,21.8,370.33,20.83,358.87,62.85Z"/><path class="cls-3" d="M374,54.63a27.33,27.33,0,0,0,3,.09,4.9,4.9,0,0,0,3.09-.5,1.55,1.55,0,0,0,.44-1.84,3.86,3.86,0,0,0-3.48-1.76,5.64,5.64,0,0,0-3.91,1.11A1.65,1.65,0,0,0,374,54.63Z"/><path class="cls-3" d="M404,58.83a29.3,29.3,0,0,1-2.73-1.25,4.84,4.84,0,0,1-2.55-1.8,1.54,1.54,0,0,1,.41-1.85,3.84,3.84,0,0,1,3.89,0,5.65,5.65,0,0,1,3,2.72A1.66,1.66,0,0,1,404,58.83Z"/><path class="cls-3" d="M394.35,72.26c0-.1.19.19.16.31-.8,2.86-1.24,6.26,1.13,7.86.07,0,0,.19-.07.16C392.5,79.35,393.13,74.84,394.35,72.26Z"/><path class="cls-3" d="M397.67,69.89c4.71.79,2.78,10.17-1.59,9.43S393.71,69.22,397.67,69.89Z"/><path class="cls-3" d="M399.4,70.76c.71.7,1.32,1.81,2.29,2.11,1.12.35,2.18-.46,3.13-1.25.09-.08.16,0,.13.14-.34,1.81-1.41,3.51-3.39,3.38-1.81-.12-2.74-2-2.82-3.87C398.73,70.92,399.12,70.48,399.4,70.76Z"/><path class="cls-3" d="M377.05,66.53c0-.11-.26.09-.28.21-.53,2.92-1.63,6.17-4.47,6.57-.08,0-.11.16,0,.16C375.59,73.71,377,69.38,377.05,66.53Z"/><path class="cls-3" d="M375.12,63c-4.59-1.36-7,7.91-2.73,9.17S379,64.09,375.12,63Z"/><path class="cls-3" d="M373,63.06c-.86.3-1.82,1-2.71.84s-1.52-1.39-1.92-2.52c0-.12-.14-.06-.17.07-.51,1.76-.4,3.75,1.22,4.53s3-.52,3.88-2.17C373.49,63.5,373.37,62.94,373,63.06Z"/><path class="cls-3" d="M386.93,94.23c-.81.57-1.66,1.4-2.74,1.32a7.77,7.77,0,0,1-3-1.23.1.1,0,0,0-.15.13,4,4,0,0,0,3.46,2.18,3.16,3.16,0,0,0,2.72-2.22C387.26,94.24,387.05,94.14,386.93,94.23Z"/><path class="cls-3" d="M377.11,81.11s-1.55,4.19-2,6.24c0,.19.44.38,1.12.58,0,0,0,0,.08,0a9.93,9.93,0,0,0,10.22-1.57c.18-.17,0-.43-.24-.35-3.13,1.39-6.21,1.25-9.42.61,0-.6,2.88-7.1,2.57-7.2-1.1-.34-3.46-.06-4.87,0,3-8.84,7.32-17.12,10.14-26a.29.29,0,0,0-.51-.25c-5.18,8.36-8.81,18.45-12.1,27.5C371.68,81.89,376.21,81.28,377.11,81.11Z"/><path class="cls-3" d="M377,87.28A11.79,11.79,0,0,0,380.65,92a5.38,5.38,0,0,0,3.06,1c2.41,0,3-2,3.07-3.92a12.43,12.43,0,0,0-.28-3A15.3,15.3,0,0,1,377,87.28Z"/><path class="cls-8" d="M380.65,92a5.38,5.38,0,0,0,3.06,1c2.41,0,3-2,3.07-3.92C384.31,88.74,381.48,89.74,380.65,92Z"/><path class="cls-3" d="M430.27,86.42c-4.48-1.58-12.75-17.52-6.8-39.64,0,0-4,20.23-3.32,23.55s-4.61-9-.06-26.86c0,0-11.87,4.27-20.92,4.22s-14.17-1.6-14.59-2.38,13-1.13,17.46-4c0,0-25.27,4-35.77,1.81-1.22-.25,4.37-25.11,23.24-30.93s40.83,12.6,45.72,21.08c0,0,7.63,3.41,12.89,17.65S435.1,88.12,430.27,86.42Z"/><path class="cls-4" d="M423.77,87.34S435.55,75.67,441,80.1s-5.1,22.55-12.7,23.91a7.37,7.37,0,0,1-9-5.66Z"/><path class="cls-3" d="M437.86,85.22c.12,0,.11.18,0,.2-5.36,1.11-8.83,5.27-11.55,9.74,1.83-1.58,4-2.23,6.19,0,.11.12-.05.3-.19.24a4.52,4.52,0,0,0-5.18.67,21.62,21.62,0,0,0-3.07,3.54c-.32.4-1.08,0-.82-.46l.06-.11C424.33,92.63,430.9,84.62,437.86,85.22Z"/><path class="cls-4" d="M468.6,348.2l.73.18,0,0Z"/><path class="cls-2" d="M538.12,334.57c.1.53.2,1,.26,1.56,0-.1,0-.2,0-.31C538.28,335.4,538.2,335,538.12,334.57Z"/><path class="cls-2" d="M538.12,334.57c.1.53.2,1,.26,1.56,0-.1,0-.2,0-.31C538.28,335.4,538.2,335,538.12,334.57Z"/><path class="cls-2" d="M465.3,355.77v0c.77.18,1.52.36,2.27.52Z"/><path class="cls-9" d="M538.12,334.57c.1.53.2,1,.26,1.56,0-.1,0-.2,0-.31C538.28,335.4,538.2,335,538.12,334.57Z"/><path class="cls-5" d="M118.07,360.86H45.4V346.69h72.67Z"/><path class="cls-5" d="M118.07,384.1H45.4V369.92h72.67Z"/><path class="cls-5" d="M91.25,398.49V334h14.17v64.45Z"/><path class="cls-5" d="M62.48,398.49V334H76.65v64.45Z"/><path class="cls-5" d="M45.3,308.9h56.28V297.78h14.08V327.2H45.3Z"/><path class="cls-5" d="M78.24,254.15H92.37a59.73,59.73,0,0,1,11.4.78,16,16,0,0,1,6.78,3.35,15.11,15.11,0,0,1,4.65,6.58,26.32,26.32,0,0,1,1.5,9.23,33.12,33.12,0,0,1-1.28,9.87,13.37,13.37,0,0,1-3.87,6.28,15.18,15.18,0,0,1-6.26,3.19,46.79,46.79,0,0,1-11,1H79.5q-8,0-12.56-1.74a14.4,14.4,0,0,1-7.25-6.26q-2.74-4.51-2.74-11.56a26.4,26.4,0,0,1,1.76-10.14A15.87,15.87,0,0,1,69.12,255,35.92,35.92,0,0,1,78.24,254.15ZM73.9,271.7a19.12,19.12,0,0,0-5.59.48,2,2,0,0,0-1.15,2,2.06,2.06,0,0,0,1.15,2.09q1.16.53,5.59.52h26a16.77,16.77,0,0,0,5.32-.52,2,2,0,0,0,1.24-2,2,2,0,0,0-1.13-2.07,14.83,14.83,0,0,0-4.87-.5Z"/><path class="cls-5" d="M79.76,209.56v16.56H73.11a13.24,13.24,0,0,0-4.71.56,2.09,2.09,0,0,0-1.24,2.09,2,2,0,0,0,1.09,2,13.81,13.81,0,0,0,4.86.52h27.21a10.64,10.64,0,0,0,4.63-.78,2.47,2.47,0,0,0,1.54-2.3,2.37,2.37,0,0,0-1.61-2.41,19.34,19.34,0,0,0-6.08-.63H91.93V209.56a91.94,91.94,0,0,1,10.37.5,16.65,16.65,0,0,1,7.08,2.91,15.68,15.68,0,0,1,5.48,6.41,23.1,23.1,0,0,1,1.84,9.78q0,7.43-2.54,11.78a14.08,14.08,0,0,1-7.13,6.15q-4.57,1.8-13,1.8H77.63q-7.34,0-11.08-1.48t-6.67-6.3A22.24,22.24,0,0,1,57,229.38a22.49,22.49,0,0,1,2.91-11.74,14.3,14.3,0,0,1,7.34-6.47Q71.64,209.57,79.76,209.56Z"/><path class="cls-5" d="M80.33,188.66v16.47H76.46c-4.46,0-7.9-.52-10.32-1.54s-4.56-3.1-6.41-6.2S57,190.27,57,185.31q0-8.91,3.15-13.43a12.3,12.3,0,0,1,7.73-5.43q4.59-.91,18.89-.91h28.94v17.08h-5.14a10.69,10.69,0,0,1,6.18,10.21,14.84,14.84,0,0,1-2.58,8.45q-2.59,3.85-11.32,3.85H98.06q-6.48,0-8.82-2T83.76,193q-3.39-8.64-4.56-9.26a12.29,12.29,0,0,0-4.78-.6c-3,0-5,.22-5.89.67A2.31,2.31,0,0,0,67.16,186c0,1.19.38,1.92,1.15,2.21a23.31,23.31,0,0,0,6,.44Zm7.91-5.56c2.05,2.81,3.78,4.44,5.17,4.88a20.47,20.47,0,0,0,6,.68q4.47,0,5.78-.59a2.3,2.3,0,0,0,1.3-2.32,2.17,2.17,0,0,0-1-2.16c-.68-.33-2.47-.49-5.37-.49Z"/><path class="cls-5" d="M45.3,141.42h70.36V159.5H45.3Z"/><path class="cls-5" d="M129,309.86l5.1.3a16.25,16.25,0,0,1-4.62-5.17,12.84,12.84,0,0,1-1.52-6.17,11.58,11.58,0,0,1,2.19-7.06,9.27,9.27,0,0,1,5.07-3.72,44.36,44.36,0,0,1,9.73-.73h24.29q7.88,0,11.19.93a9.26,9.26,0,0,1,5.3,3.82,12.07,12.07,0,0,1,2,7,12.42,12.42,0,0,1-1.52,6,16.5,16.5,0,0,1-4.53,5.08h13.22v17.56H129Zm16.78-5a29.42,29.42,0,0,0-6.48.39c-.75.26-1.13,1-1.13,2.18a2.12,2.12,0,0,0,1.3,2.23c.87.34,3,.5,6.31.5h23.9c3.47,0,5.65-.17,6.52-.52a2.18,2.18,0,0,0,1.3-2.26q0-1.69-1.2-2.1a23.34,23.34,0,0,0-5.8-.42Z"/><path class="cls-5" d="M151.33,265.84v16.47h-3.87q-6.69,0-10.32-1.55t-6.41-6.19Q128,269.92,128,262.49q0-8.91,3.15-13.43a12.3,12.3,0,0,1,7.73-5.43q4.59-.91,18.89-.91h28.94V259.8h-5.14A10.69,10.69,0,0,1,187.7,270a14.84,14.84,0,0,1-2.58,8.45q-2.6,3.85-11.32,3.85h-4.74q-6.48,0-8.82-2t-5.48-10.13q-3.39-8.64-4.56-9.26a12.29,12.29,0,0,0-4.78-.6c-3,0-5,.22-5.89.67a2.31,2.31,0,0,0-1.37,2.24c0,1.19.38,1.92,1.15,2.21a23.31,23.31,0,0,0,6,.44Zm7.91-5.56c2,2.81,3.78,4.44,5.17,4.88a20.47,20.47,0,0,0,6,.68q4.47,0,5.78-.59a2.3,2.3,0,0,0,1.3-2.32,2.17,2.17,0,0,0-1-2.16c-.68-.33-2.47-.49-5.37-.49Z"/><path class="cls-5" d="M129,219.12l7.59.7Q128.42,216,128,208.74h20.29q0,4.81,1.31,7.08a5.47,5.47,0,0,0,3.63,2.78q2.32.53,10.71.52h22.77v17.56H129Z"/><path class="cls-5" d="M121.3,184.7h9.08V180h9.13v4.73h30.85c3.8,0,5.91-.19,6.35-.58s.65-2,.65-4.89h9.3v7.08a51,51,0,0,1-.5,8.56,9.1,9.1,0,0,1-2.3,4.52,7.67,7.67,0,0,1-4.13,2.44,75,75,0,0,1-10.93.47H139.51v3.78h-9.13V202.3H121.3Z"/><path class="cls-5" d="M129,158.24l5.31.3a13.17,13.17,0,0,1-4.76-4.67A12.52,12.52,0,0,1,128,147.5a12,12,0,0,1,2.13-7.38,9.44,9.44,0,0,1,5.37-3.7,49,49,0,0,1,10.79-.82h40.42v17.55H146.72a37.29,37.29,0,0,0-7.26.39c-.86.27-1.3,1-1.3,2.18a2.16,2.16,0,0,0,1.5,2.34q1.5.48,8,.48h39V176.1H129Z"/><path class="cls-5" d="M158.85,89.79v22.73h12.47c2.61,0,4.29-.19,5-.56a2.21,2.21,0,0,0,1.13-2.18,2.63,2.63,0,0,0-1.5-2.67q-1.5-.67-5.8-.67h-7.61V89.79h4.26a38.08,38.08,0,0,1,8.22.68,16.72,16.72,0,0,1,6.12,3.15,15.19,15.19,0,0,1,4.89,6.28,24.21,24.21,0,0,1,1.63,9.54,27.55,27.55,0,0,1-1.61,9.82,15.6,15.6,0,0,1-4.41,6.62,15.94,15.94,0,0,1-6.17,3.29,40.24,40.24,0,0,1-9.8.91H148.89q-7.56,0-11.92-2a14.06,14.06,0,0,1-6.7-6.7A23.58,23.58,0,0,1,128,110.65q0-7.38,2.8-12.19a15.44,15.44,0,0,1,7.43-6.73q4.63-1.94,13-1.94Zm-9.39,17.6h-4.22a21.19,21.19,0,0,0-5.78.48,1.9,1.9,0,0,0-1.3,2c0,1.21.37,2,1.11,2.26s2.73.43,6,.43h4.22Z"/><path class="cls-5" d="M129,66.5l7.59.7q-8.16-3.82-8.63-11.09h20.29q0,4.83,1.31,7.09A5.5,5.5,0,0,0,153.18,66q2.32.52,10.71.52h22.77V84.06H129Z"/><path class="cls-5" d="M147.42,16.35V31.91h-3.13a16.84,16.84,0,0,0-5.06.45c-.71.31-1.07,1.07-1.07,2.29a2.6,2.6,0,0,0,1,2.21,4.78,4.78,0,0,0,2.93.74,14.62,14.62,0,0,0,3.89-.37A6.11,6.11,0,0,0,148.68,35a48.73,48.73,0,0,0,4.3-7.59q3.74-7.65,7-10t9.6-2.39q7,0,10.63,1.83a12.15,12.15,0,0,1,5.52,6.1,25,25,0,0,1,1.93,10.33,28.46,28.46,0,0,1-2.08,11.45A12.55,12.55,0,0,1,180,51.25Q176.4,53,169.19,53h-2.78V37.47h3.65c3.1,0,5.11-.19,6-.59a2.26,2.26,0,0,0,1.39-2.32,3.17,3.17,0,0,0-.93-2.61c-.63-.49-1.94-.74-3.94-.74q-4.12,0-5.17,1t-6.17,10.21q-4.35,7.74-7.89,9.43a19.29,19.29,0,0,1-8.41,1.7q-6.9,0-10.19-1.83a11.9,11.9,0,0,1-5.06-6.19A26.67,26.67,0,0,1,128,35.34a28.79,28.79,0,0,1,1.45-9.75,15.2,15.2,0,0,1,3.85-6.18,10.28,10.28,0,0,1,4.43-2.6,31.65,31.65,0,0,1,6.39-.46Z"/></svg>