<svg id="Слой_1" data-name="Слой 1" xmlns="http://www.w3.org/2000/svg" viewBox="0 0 1800 1000"><defs><style>.cls-1{fill:#4a148c;}.cls-2{fill:#ececec;}.cls-3{fill:#306;}.cls-4{fill:#ffc800;}.cls-5{opacity:0.1;}.cls-6{fill:#dcdcdc;}.cls-7{fill:#ff9581;}.cls-8{fill:#fff;}.cls-9{fill:#ff99bc;}.cls-10{fill:#c36358;}.cls-11{fill:#1a2e35;}</style></defs><path class="cls-1" d="M1002.35,892.29s22.83-81.93,41.06-109.76,52.2-58.38,52.2-58.38S1094.82,850.46,1002.35,892.29Z"/><path class="cls-2" d="M1004,890.88c7.82-12.71,14.46-26.12,20.8-39.69,2.81-14.54,6.23-29.18,11.34-43.08a.21.21,0,0,1,.4.14c-3,12.94-6.55,25.77-9.75,38.68,9.22-19.94,18-40.13,29-59,2.21-9.14,6.41-17.93,10.58-26.22.12-.24.52-.11.4.14a167,167,0,0,0-7.12,19.67,197.26,197.26,0,0,1,17.34-24c.4-.47,1.2,0,.81.56-14.68,18.72-24.8,40-34.45,61.6a328.1,328.1,0,0,0,28.64-35.8.12.12,0,0,1,.2.14c-9,14.33-19.4,27.19-30.67,39.76-7,15.8-13.93,31.67-22.31,46.7,16.74-14.14,29.61-32.45,42.36-50.11a.38.38,0,0,1,.62.43c-12.74,19.38-25.94,37.63-44.28,52A201.62,201.62,0,0,1,1005.6,892,1,1,0,0,1,1004,890.88Z"/><path class="cls-1" d="M995.28,899.66s41-75.54,29.11-148.78-24.68-99.32-24.68-99.32S935.21,765.47,995.28,899.66Z"/><path class="cls-2" d="M978.44,780.9c3.27,21.15,9,41,15.83,61,.12-26.88.63-53.76,1.35-80.63a207.31,207.31,0,0,1-7.74-50.06c0-.5.72-.47.76,0a285.42,285.42,0,0,0,7.18,43.08q.95-33.27,2.17-66.51a.29.29,0,0,1,.58,0c0,34.63,0,69.27-.23,103.91,5.29-13.34,8.61-27.07,11.82-41.15a.12.12,0,0,1,.24,0c-1.23,16.18-6.15,31.82-12.11,46.83-.16,22.14-.4,44.28-.89,66.41,6.94-23.53,14.35-46.33,16.36-71.2a.26.26,0,0,1,.52,0c-.54,27.43-7.61,55.27-16.66,81.06a1.45,1.45,0,0,1-.46.65q-.3,12.15-.7,24.28a.91.91,0,0,1-1.81,0q-.48-24.83-.4-49.66c-9.22-21.27-14.12-45-16.18-68C978.06,780.74,978.4,780.7,978.44,780.9Z"/><path class="cls-2" d="M981.25,769.22a140.08,140.08,0,0,1,2.86,20c0,.22-.33.25-.39,0a140.65,140.65,0,0,1-3.37-19.9C980.29,768.81,981.15,768.72,981.25,769.22Z"/><path class="cls-2" d="M1005.24,714c0-.23.38-.16.39.06a51.33,51.33,0,0,1-2.06,13.76c-.1.37-.63.2-.56-.16C1003.91,723.12,1004.46,718.55,1005.24,714Z"/><path class="cls-1" d="M980.32,905.45s1.67-78.86-21-118.06-60.15-59.16-60.15-59.16S914.35,867.23,980.32,905.45Z"/><path class="cls-2" d="M939.09,838c9.51,13.69,19,26.89,30.61,38.8q-6.76-24.18-15.66-47.56c-12.68-11.12-25.26-22.64-33-37.85-.12-.25.23-.46.37-.22,8.37,13.47,19.56,24.26,31.33,34.63a612.37,612.37,0,0,0-31.49-68.58.5.5,0,0,1,.86-.5,373.91,373.91,0,0,1,19.75,36c-2.12-8.43-3.82-17.05-6-25.42-.06-.23.27-.31.36-.1,4,10.54,8,22.19,9.29,33.45a401.59,401.59,0,0,1,19.91,54c-.58-11.82-1.32-23.59-2.54-35.38,0-.22.35-.27.39-.05a191.19,191.19,0,0,1,3.43,39.72q4.89,17.63,8.21,35.62c0,.32-.42.47-.5.14-1.23-5-2.56-10-3.92-15-.09,0-.18,0-.26-.1-12.14-12.16-23.66-26-31.23-41.51A.07.07,0,0,1,939.09,838Z"/><path class="cls-2" d="M912.88,773.84c2.52,2.73,4.83,5.59,7.27,8.39,2.15,2.48,4.78,4.82,6.51,7.61a.13.13,0,0,1-.18.18c-2.92-1.86-5.25-4.85-7.52-7.43a62.81,62.81,0,0,1-6.44-8.47A.23.23,0,0,1,912.88,773.84Z"/><path class="cls-1" d="M1047.52,895.82l-2.85,37.35-8.59,112.92H961.14l-8.6-112.92-2.85-37.35h97.83Z"/><path class="cls-3" d="M1047.52,895.82l-2.85,37.35H952.54l-2.85-37.35h97.83Z"/><rect class="cls-1" x="943.03" y="877.49" width="111.14" height="28.64" transform="translate(1997.21 1783.62) rotate(180)"/><path class="cls-4" d="M944.35,921.29s22.83-81.93,41.06-109.76,52.2-58.38,52.2-58.38S1036.82,879.46,944.35,921.29Z"/><path class="cls-1" d="M946,919.88c7.82-12.71,14.46-26.12,20.8-39.69,2.81-14.54,6.23-29.18,11.34-43.08a.21.21,0,0,1,.4.14c-3,12.94-6.55,25.77-9.75,38.68,9.22-19.94,18-40.13,29-59,2.21-9.14,6.41-17.93,10.58-26.22.12-.24.52-.11.4.14a167,167,0,0,0-7.12,19.67,197.26,197.26,0,0,1,17.34-24c.4-.47,1.2,0,.81.56-14.68,18.72-24.8,40-34.45,61.6a328.1,328.1,0,0,0,28.64-35.8.12.12,0,0,1,.2.14c-9,14.33-19.4,27.19-30.67,39.76-7,15.8-13.93,31.67-22.31,46.7,16.74-14.14,29.61-32.45,42.36-50.11a.38.38,0,0,1,.62.43c-12.74,19.38-25.94,37.63-44.28,52A201.62,201.62,0,0,1,947.6,921,1,1,0,0,1,946,919.88Z"/><path class="cls-4" d="M937.28,928.66s41-75.54,29.11-148.78-24.68-99.32-24.68-99.32S877.21,794.47,937.28,928.66Z"/><path class="cls-1" d="M920.44,809.9c3.27,21.15,9,41,15.83,61,.12-26.88.63-53.76,1.35-80.63a207.31,207.31,0,0,1-7.74-50.06c0-.5.72-.47.76,0a285.42,285.42,0,0,0,7.18,43.08q.95-33.27,2.17-66.51a.29.29,0,0,1,.58,0c0,34.63,0,69.27-.23,103.91,5.29-13.34,8.61-27.07,11.82-41.15a.12.12,0,0,1,.24,0c-1.23,16.18-6.15,31.82-12.11,46.83-.16,22.14-.4,44.28-.89,66.41,6.94-23.53,14.35-46.33,16.36-71.2a.26.26,0,0,1,.52,0c-.54,27.43-7.61,55.27-16.66,81.06a1.45,1.45,0,0,1-.46.65q-.3,12.15-.7,24.28a.91.91,0,0,1-1.81,0q-.48-24.83-.4-49.66c-9.22-21.27-14.12-45-16.18-68C920.06,809.74,920.4,809.7,920.44,809.9Z"/><path class="cls-2" d="M923.25,798.22a140.08,140.08,0,0,1,2.86,20c0,.22-.33.25-.39,0a140.65,140.65,0,0,1-3.37-19.9C922.29,797.81,923.15,797.72,923.25,798.22Z"/><path class="cls-2" d="M947.24,743c0-.23.38-.16.39.06a51.33,51.33,0,0,1-2.06,13.76c-.1.37-.63.2-.56-.16C945.91,752.12,946.46,747.55,947.24,743Z"/><path class="cls-4" d="M922.32,934.45s1.67-78.86-21-118.06-60.15-59.16-60.15-59.16S856.35,896.23,922.32,934.45Z"/><path class="cls-1" d="M881.09,867c9.51,13.69,19,26.89,30.61,38.8q-6.76-24.18-15.66-47.56c-12.68-11.12-25.26-22.64-33-37.85-.12-.25.23-.46.37-.22,8.37,13.47,19.56,24.26,31.33,34.63a612.37,612.37,0,0,0-31.49-68.58.5.5,0,0,1,.86-.5,373.91,373.91,0,0,1,19.75,36c-2.12-8.43-3.82-17.05-6-25.42-.06-.23.27-.31.36-.1,4,10.54,8,22.19,9.29,33.45a401.59,401.59,0,0,1,19.91,54c-.58-11.82-1.32-23.59-2.54-35.38,0-.22.35-.27.39-.05a191.19,191.19,0,0,1,3.43,39.72q4.89,17.63,8.21,35.62c0,.32-.42.47-.5.14-1.23-5-2.56-10-3.92-15-.09,0-.18,0-.26-.1-12.14-12.16-23.66-26-31.23-41.51A.07.07,0,0,1,881.09,867Z"/><path class="cls-2" d="M854.88,802.84c2.52,2.73,4.83,5.59,7.27,8.39,2.15,2.48,4.78,4.82,6.51,7.61a.13.13,0,0,1-.18.18c-2.92-1.86-5.25-4.85-7.52-7.43a62.81,62.81,0,0,1-6.44-8.47A.23.23,0,0,1,854.88,802.84Z"/><path class="cls-4" d="M989.52,924.82l-2.85,37.35-8.59,112.92H903.14l-8.6-112.92-2.85-37.35h97.83Z"/><path class="cls-5" d="M989.52,924.82l-2.85,37.35H894.54l-2.85-37.35h97.83Z"/><rect class="cls-4" x="885.03" y="906.49" width="111.14" height="28.64" transform="translate(1881.21 1841.62) rotate(180)"/><path class="cls-2" d="M606.12,371c-21.17.13-53.59.44-74.51.44h-.45V371l0-31.48V339h.5l37.25.06,37.26.17h.27v.27L606.12,371Zm0,0-.28-31.49.28.27-37.26.17-37.25.06.5-.5L532.05,371l-.44-.44c20.78,0,53.49.27,74.51.45Z"/><path class="cls-2" d="M564.55,410.69c-21.16.13-53.59.44-74.51.44h-.44v-.44l-.06-31.49v-.5h.5l37.26.06,37.25.17h.28v.27l-.28,31.49Zm0,0-.27-31.49.27.27-37.25.17L490,379.7l.5-.5-.05,31.49-.45-.45c20.78,0,53.5.27,74.51.45Z"/><path class="cls-2" d="M647.68,410.69c-21.16.13-53.59.44-74.51.44h-.44v-.44l-.05-31.49v-.5h.5l37.26.06,37.25.17H648v.27l-.27,31.49Zm0,0-.27-31.49.27.27-37.25.17-37.26.06.5-.5,0,31.49-.45-.45c20.78,0,53.49.27,74.51.45Z"/><path class="cls-6" d="M-157.64,1007.91,187,990.6,118.16,590.28H-139.93Q-148.78,799.1-157.64,1007.91Z"/><path class="cls-3" d="M46.51,415.69C14.47,447.57,5.28,500,5.28,500s-30.74,52.86-22.15,81.48S16.4,616.88,16.4,616.88l-3-15.87s10.3,20.39,44.71,28.62,79.94-2.38,103.61-14.36,34.8-30.62,34.8-30.62l-8.88,23.07s33.4-1.17,53.24-36.7-37.15-86.62-42-97.61-11-91.18-95.31-77.35C103.55,396.06,68.57,393.74,46.51,415.69Z"/><path class="cls-3" d="M4.19,614.81c-8.76-6.57-17.44-14.19-22.28-23.36a48.93,48.93,0,0,1-5.32-31.58c2.34-13,9.18-24.42,15.84-35.59C-.7,512.74,7,501.68,13.7,490c.37-.64-.6-1.17-1-.67C5,497.9-1.68,507.61-8.29,517c-6.3,8.92-12.48,18.14-16.56,28.32-3.7,9.23-5.83,19.61-3.88,29.52A51.4,51.4,0,0,0-18.19,597c6.2,7.73,14.11,12.69,21.94,18.52C4.24,615.88,4.68,615.17,4.19,614.81Z"/><path class="cls-3" d="M247.94,534.45c-10.11-29.51-36.65-48.24-52.79-74-8.74-13.93-15.51-29.36-26.89-41.46-.31-.32-.87.2-.58.54,9.34,10.89,14.75,24,21.5,36.47,6.87,12.69,15.89,23.75,25.08,34.79,16.72,20.06,36.73,43.75,32.9,71.81-1.77,13-9.41,27.29-22.69,31.33-.52.16-.21,1,.3.78a41.54,41.54,0,0,0,23.16-23.25C252.73,559.53,252.07,546.5,247.94,534.45Z"/><path class="cls-3" d="M249.17,542.4c.72-11.13-1.51-22.45-7.38-32s-15-16.38-24.12-22.48c-10.54-7-21.66-13.68-28.36-24.8-.28-.47-.95,0-.68.49,10.63,18.34,30.84,26.89,44.52,42.33,15.63,17.64,15.64,43.35,4.89,63.53-6.61,12.42-16.7,22.64-28.17,30.64-.2.14,0,.44.22.31C230,587.3,247.57,567.21,249.17,542.4Z"/><path class="cls-7" d="M121.64,676.87C207,723.73,309.26,782.58,371.91,768.73c27.75-6.14,152.47-169.59,157.75-188.45,4.55-16.24-108.37-81.64-121.06-68.82-21.27,21.5-78.9,142.37-87.15,144.38-8.6,2-80.13-12.52-154.85-26C94.9,616.9,62.35,644.34,121.64,676.87Z"/><path class="cls-7" d="M517.53,600.47c9.75-12.27,49.47-72.42,56.78-91.64s24.33-76,10.19-83.11S564,434.86,564,434.86s3.39-25.13-11.5-31-23.88,19.74-23.88,19.74,1.59-26.06-13.67-30.83-20,22.47-20,22.47,2.58-23.76-11.65-22.39c-17.12,1.65-16.92,46-26.58,66.59-2.19,4.68-51.21,91.68-51.21,91.68Z"/><path class="cls-3" d="M495.44,413c.07,32.6-5.54,46.88-22.61,74.06-.34.53.38,1.15.78.63,19.14-25.1,28.76-42,23.41-74.78C496.75,411.26,495.43,411.4,495.44,413Z"/><path class="cls-3" d="M528.6,421c-2.88,33.87-8.83,49.41-24.62,79.19-.22.43.47.85.73.44,17.93-27.92,27.14-45,25.58-79.22C530.22,419.9,528.74,419.49,528.6,421Z"/><path class="cls-3" d="M563.18,436.35c-5.15,32.59-10.94,49.91-30,76.86a.61.61,0,0,0,.95.76c22.08-25.59,29.47-47.15,30-77.36C564.2,434.55,563.51,434.3,563.18,436.35Z"/><path class="cls-7" d="M381.47,560.78s-2.38-40.78.52-58.93,38.64-81.8,52.82-74.86c18.31,8.95,4.93,49.76-4.24,68.89,0,0,42.39,20.67,39.12,52S381.47,560.78,381.47,560.78Z"/><path class="cls-3" d="M439,431.1c10.81,20.21-2.85,44.54-10.35,63.77a1.89,1.89,0,0,0,1.61,2.65c17.18,9.85,38.56,28.75,40.39,49.58a.48.48,0,0,0,1,0c1.06-22.61-18.42-42.89-37.94-52.48,8-19.59,20.63-44.6,5.52-63.64C439.14,430.88,439,431,439,431.1Z"/><path class="cls-4" d="M301.13,649.13,198.32,735.28s-62.74-32.65-109.1-70.15,5-55.74,84.55-42.38S301.13,649.13,301.13,649.13Z"/><path class="cls-8" d="M179.38,666.43a62.26,62.26,0,0,0-10-10.78,62.77,62.77,0,0,0,7.6,12.63A62,62,0,0,0,187,679,61,61,0,0,0,179.38,666.43Zm-90.09-1.24c.42.31.81.65,1.24.95.81-.87,1.63-1.8,2.39-2.75C91.68,663.92,90.47,664.54,89.29,665.19Zm172.06.56a64.28,64.28,0,0,0-14.69-.45,63.78,63.78,0,0,0,14.24,3.57,62.08,62.08,0,0,0,14.69.48A64.13,64.13,0,0,0,261.35,665.75Zm-34.41-33.31a41.54,41.54,0,0,0,.19,5.57,44.47,44.47,0,0,0,1.75-5.18C228.23,632.69,227.58,632.58,226.94,632.44Z"/><path class="cls-3" d="M175.33,716.87c20.91-20.08,43.25-38.74,65.9-56.9q9.61-7.71,19.59-15c.19-.14.43.1.25.26-10.65,9.81-21.7,19.18-32.7,28.62s-22.14,18.85-33.43,28c-6.38,5.17-12.74,10.34-19.23,15.38C175.44,717.48,175.07,717.12,175.33,716.87Z"/><path class="cls-3" d="M242,698.66l-43.7,36.6s-62.75-32.62-109.1-70.12C72.78,651.84,68.64,641,73.66,633.05Z"/><path class="cls-4" d="M231.14,1000.55l-339.73,3.68C-30.38,793.86,28.32,640.42,30.33,638.07c2.25-2.61,4.52-5,4.52-5,.31-.37.58-.63.89-.94a70.34,70.34,0,0,1,17.6-13.61c1.15-.63,2.31-1.2,3.51-1.73,25.37-11.66,52.16-2,71.49,14.55,6.14,5.25,75.58,95.59,81.72,130,5.31,30.42-15.23,63.08-15.23,63.08Q213,912.49,231.14,1000.55Z"/><path class="cls-3" d="M145.66,812.65c-13.9,1.56-27.84,3.59-41.38,7.18-6.74,1.79-13.34,3.88-19.94,6.12-3.29,1.11-6.59,2.11-9.92,3.1a45.07,45.07,0,0,1-10.66,2.11.25.25,0,0,0,0,.5,76.71,76.71,0,0,0,10.28-.29,72.57,72.57,0,0,0,9.78-1.93c6.85-1.75,13.61-3.81,20.44-5.63,13.78-3.67,27.55-7.34,41.57-10C146.49,813.68,146.32,812.58,145.66,812.65Z"/><path class="cls-3" d="M180.27,824.72a305.73,305.73,0,0,0-34.64-1.36c-5.78.12-11.52.57-17.27,1.18-2.75.29-5.49.63-8.23,1-3,.41-6,1.23-9,1.59-.31,0-.31.53,0,.5,2.85-.26,5.76,0,8.63-.14s5.75-.21,8.63-.3c5.77-.2,11.53-.32,17.29-.57,11.54-.49,23-.86,34.58-1C180.92,825.66,180.86,824.77,180.27,824.72Z"/><path class="cls-8" d="M-.78,702.67c-1.55-2-3.12-3.91-4.84-5.77-.39.84-.81,1.69-1.21,2.53,1.13,1.75,2.34,3.46,3.57,5.12A62.33,62.33,0,0,0,6.79,715.24,68.56,68.56,0,0,0-.78,702.67Zm38-72.09A61.63,61.63,0,0,0,37,643.83a60.46,60.46,0,0,0,3.52-14.32c.11-.73.2-1.49.28-2.22C39.57,628.33,38.39,629.43,37.23,630.58Zm99.41,91.56a63.59,63.59,0,0,0-3.6,14.29,66.35,66.35,0,0,0-.48,14.72,59.77,59.77,0,0,0,3.55-14.3A60.49,60.49,0,0,0,136.64,722.14ZM74,880.61a62.39,62.39,0,0,0-3.55,14.24A64.49,64.49,0,0,0,70,909.56a63.92,63.92,0,0,0,3.52-14.24A64.43,64.43,0,0,0,74,880.61ZM-32.35,760.86a65.21,65.21,0,0,0-3.54,14.32,62.9,62.9,0,0,0-.45,14.69,64,64,0,0,0,3.51-14.3A62.27,62.27,0,0,0-32.35,760.86Zm88.07-20.09A63.16,63.16,0,0,0,41,740.32a64.46,64.46,0,0,0,14.24,3.57,62.62,62.62,0,0,0,14.69.48A63.45,63.45,0,0,0,55.72,740.77ZM173.56,875.88a64.54,64.54,0,0,0-14.72-.45,70.21,70.21,0,0,0,29,4A64.13,64.13,0,0,0,173.56,875.88ZM-46.56,863A66.49,66.49,0,0,0-61,862.46l-.28,0,.25.08A64.42,64.42,0,0,0-46.95,866a63.7,63.7,0,0,0,14.69.45A64,64,0,0,0-46.56,863ZM77,979.15a63.21,63.21,0,0,0-14.69-.45,63.6,63.6,0,0,0,14.3,3.51,63.44,63.44,0,0,0,14.68.45A65.28,65.28,0,0,0,77,979.15ZM-55.9,964.91a64,64,0,0,0-14.72-.45A64.58,64.58,0,0,0-56.38,968a59.79,59.79,0,0,0,14.72.46A64.05,64.05,0,0,0-55.9,964.91ZM80.34,671a65.43,65.43,0,0,0-10.78,10.11,66.17,66.17,0,0,0,12.67-7.57,61.64,61.64,0,0,0,10.69-10.13A66.78,66.78,0,0,0,80.34,671ZM115.4,821.6a61.53,61.53,0,0,0-10.69,10,62.69,62.69,0,0,0,12.58-7.6A60.33,60.33,0,0,0,128,814,63.77,63.77,0,0,0,115.4,821.6ZM-7.53,913.67a58.94,58.94,0,0,0-10.72,10.07,66.57,66.57,0,0,0,12.58-7.59,66.37,66.37,0,0,0,10.77-10A58,58,0,0,0-7.53,913.67ZM196.63,781.23a62.26,62.26,0,0,0-10-10.78,62.77,62.77,0,0,0,7.6,12.63,62,62,0,0,0,10,10.72A61,61,0,0,0,196.63,781.23ZM154.74,951.6a65.93,65.93,0,0,0-10.05-10.78,57.64,57.64,0,0,0,7.57,12.64,61.38,61.38,0,0,0,10.05,10.72A66.7,66.7,0,0,0,154.74,951.6ZM31.38,817.55a63.76,63.76,0,0,0-10-10.77,59.25,59.25,0,0,0,7.59,12.63,60.58,60.58,0,0,0,10,10.72A65.27,65.27,0,0,0,31.38,817.55Z"/><path class="cls-7" d="M23.65,640.21c-63,50.78-224.35,252-188,298.56,36.66,46.85,278.19,25.28,348.39,3.32C205,935.56,148,803.07,125.43,797c-18.79-5.09-123,25.73-125,19.7-2.29-6.81,25.74-44.47,61.37-126.11C102.86,596.4,51.49,617.78,23.65,640.21Z"/><path class="cls-7" d="M239.27,785.9c48.15,5.56,59.65,14.38,102.78-2.5,28.3-11.07,47.52,2.24,26.83,26.13-33.86,39.08-97.49,44.94-120.13,40.62Z"/><path class="cls-7" d="M104.24,798.66S164,783.19,215.86,784c35.89.59,113.83,10.59,166.74,103.75,12.55,22.09,14.76,62.48-18.85,33.83-23.87-20.34-32.86-40.46-48.89-49.77,0,0-3.29,51.71-25.91,63.42-10.12,5.23-38,18.86-61.31,26.38a99.4,99.4,0,0,1-6-11s-22.17,8.94-56.32-3.47Z"/><path class="cls-7" d="M250,790.08c14,12.6,43.12,39.81,59.23,70.36,17.89,33.94,43.21,104.13,18,117.08-18.47,9.49-30.49-16.46-30.49-16.46s4.35,31.22-14.21,36.15c-16.91,4.49-25-16.14-25-16.14s-.62,19.39-17.74,20.58c-20.6,1.43-15.92-39.45-38-56C196.82,941.9,250,790.08,250,790.08Z"/><path class="cls-3" d="M270.24,873.37c11.19,14,28.45,52.33,27,87,0,.78-.64,1.18-.77.46-6.49-38.55-19.94-73-26.53-87.33C269.83,873.34,270.12,873.21,270.24,873.37Z"/><path class="cls-3" d="M236.51,892.42c8.41,13.08,24.43,53.38,21.74,88.49-.06.78-.7,1.14-.79.41-5.13-40.55-15.56-74.09-21.28-88.75C236.1,892.37,236.4,892.25,236.51,892.42Z"/><path class="cls-3" d="M315,871.55c14,8.38,21.91,18.37,32.39,30.55a214.74,214.74,0,0,0,16.31,17.41c5.31,4.94,13.1,12.33,21,8.81,4.41-2,5.73-7.26,6-11.65a34.58,34.58,0,0,0-2.1-14.5c-.09-.23.32-.4.41-.16a46.24,46.24,0,0,1,3.36,12.81c.4,4,.35,8.56-1.69,12.18-4.39,7.77-14.52,6.32-20.9,2.22a68.85,68.85,0,0,1-10.43-8.86c-3.12-3.06-6.1-6.27-9-9.54-5.94-6.73-11.49-13.8-17.35-20.59-6.44-7.47-11.17-11.53-18.39-18.23C314.34,871.77,314.67,871.38,315,871.55Z"/><path class="cls-3" d="M332.86,933.05c-1.69-9.65-13.59-51.11-18.32-61.22a.22.22,0,0,1,.39-.22c8.91,14.25,20.18,48.89,22.13,59.56s3.85,23.87,1.13,34.36c-4.09,15.82-15.37,16.1-19.45,15.87a21.21,21.21,0,0,1-12.89-5.69c-4-3.6-7.2-9.73-9.24-14.64-.1-.25.26-.47.39-.21,3.87,7.65,11.39,16.16,20.28,17.26a14.84,14.84,0,0,0,11.15-2.74c3.62-2.94,5.07-7.67,5.83-12.09C336,953.27,334.58,943,332.86,933.05Z"/><path class="cls-3" d="M258.25,980.91c1.71,2.45,4.55,10.19,11.4,13.46,5,2.39,10.65,3.32,15.7.53s7.8-7.66,9.42-12.91c.92-3,1.89-16.59,1.85-20.78,0-.33.42-.37.44-.05.47,7.58,1,15.81-.8,22.66-1.47,5.69-4.85,11.33-10.15,14.2a16.7,16.7,0,0,1-17.45-.85c-2.54-1.79-10-9.8-11.1-16.1C257.54,980.93,258.18,980.8,258.25,980.91Z"/><path class="cls-3" d="M204,943.17a39.55,39.55,0,0,1,5.24,7.39c1.67,2.72,3.24,5.5,4.74,8.3a92.19,92.19,0,0,1,7.06,17.83c1.81,6.2,3.2,12.95,7.45,18s11,7.37,17.21,4.92a15,15,0,0,0,7.49-6.63,29.12,29.12,0,0,0,3.8-10.53.22.22,0,1,1,.44.06c-.6,3.4-.5,6.73-1.76,10a17.92,17.92,0,0,1-5.26,7.53,17,17,0,0,1-17.72,1.85c-6.3-2.92-9.86-9.15-12.06-15.46-2.44-7-4.08-14.25-6.84-21.17-1.46-3.65-2.86-7.31-4.58-10.84s-4.15-7.17-5.69-10.94A.3.3,0,0,1,204,943.17Z"/><path class="cls-3" d="M182,951.87a140.42,140.42,0,0,0,26.85,1.32c.29,0,.47.82.19.89-3.86,1-11.4,1-13.64.9A46.58,46.58,0,0,1,182,952.35C181.71,952.26,181.71,951.82,182,951.87Z"/><path class="cls-3" d="M-94.17,846.79a345.81,345.81,0,0,1,46.52-18.46c15.72-5.09,31.91-8.46,48.18-11.19,9.29-1.55,18.63-2.66,28-3.82.29,0,.33.4,0,.44A433.61,433.61,0,0,0-20,824.51q-23.87,6.5-47.45,13.86c-8.9,2.77-17.67,6-26.47,9A.34.34,0,0,1-94.17,846.79Z"/><path class="cls-4" d="M-108,762.4,25.36,776.89s34-62,51.73-118.94S44.52,612-14.2,667.31-108,762.4-108,762.4Z"/><path class="cls-4" d="M-108,762.4,25.36,776.89s34-62,51.73-118.94S44.52,612-14.2,667.31-108,762.4-108,762.4Z"/><path class="cls-8" d="M37.46,628.69a2.12,2.12,0,0,1-.06.43A64.44,64.44,0,0,0,37,643.83a60.46,60.46,0,0,0,3.52-14.32c.11-.84.23-1.66.31-2.5C39.68,627.54,38.59,628.1,37.46,628.69ZM-32.35,760.86a54.81,54.81,0,0,0-2.7,9.48l2.76.28A51.38,51.38,0,0,0-32.35,760.86ZM-78.64,731h0c-.43.45-.88.9-1.3,1.35,1.47,0,2.93-.12,4.42-.26A30.91,30.91,0,0,0-78.64,731ZM41,740.32c.79.3,1.61.61,2.42.87a8,8,0,0,1,.51-1.07C43,740.15,42,740.2,41,740.32ZM-.78,702.67a65.87,65.87,0,0,0-10-10.78,58.61,58.61,0,0,0,7.56,12.66A62.33,62.33,0,0,0,6.79,715.24,68.56,68.56,0,0,0-.78,702.67Z"/><path class="cls-3" d="M20,775.67c.72.09,5.5-.06,5.52-.06.58-1.69,12.05-28,14.89-33.67,5.78-11.56,12.25-22.82,18.55-34.11a.32.32,0,0,1,.58.27C55,718,50.76,727.89,46.23,737.71c1.13-1.32,2.25-2.66,3.34-4,2.23-2.78,4.25-5.72,6.37-8.59.19-.25.6,0,.47.3a52.89,52.89,0,0,1-7.59,11.38A44,44,0,0,1,44.7,741c-.38.82-.75,1.64-1.14,2.45-2.73,5.73-16.67,34-17.17,34-.13,0-4.94-.59-6.42-.79C19.6,776.53,19.59,775.62,20,775.67Z"/><path class="cls-3" d="M-82.85,739.76c28.92,1.93,57.76,5.89,86.44,10.41q12.17,1.92,24.25,4.41c.22,0,.22.39,0,.37C13.39,753.67-1,751.81-15.36,750s-28.84-3.69-43.21-5.87c-8.12-1.24-16.23-2.46-24.32-3.86C-83.23,740.25-83.22,739.73-82.85,739.76Z"/><path class="cls-7" d="M70.41,620.57c.51,5.86,22.29,46.53,48.37,49,8.5.8,14.93-45.38,14.93-45.38l1.26-3.3,17.52-46.21-50.92-44-7.42-5.92s-4,13-8.73,29.14c-.22.75-.45,1.5-.68,2.31s-.58,1.76-.82,2.62c-.74,2.41-1.49,4.87-2.18,7.34-.54,1.87-1.07,3.7-1.56,5.69s-1,3.92-1.58,5.9C73.66,597.46,70.23,618.09,70.41,620.57Z"/><path class="cls-3" d="M85.42,553.91c8.23,40,36.36,59.8,49.55,67l17.52-46.21-50.92-44-7.42-5.92S90.19,537.73,85.42,553.91Z"/><path class="cls-7" d="M214.86,479.1c23.64,83.45-23.67,107-41.67,112.11-16.33,4.61-72.56,18.23-104.69-62.33s-.82-117.92,36-130.44S191.22,395.66,214.86,479.1Z"/><path class="cls-3" d="M185.83,468.61a56.85,56.85,0,0,1-6,.27c-2.3.09-4.12.39-6.16-.88a3.09,3.09,0,0,1-.94-3.65c1.3-2.61,4.09-3.41,6.85-3.62a11.24,11.24,0,0,1,7.83,2.07C189.82,464.46,188.51,468.23,185.83,468.61Z"/><path class="cls-3" d="M130.7,487.89a58.16,58.16,0,0,0,5.62-2.08c2.15-.83,3.94-1.26,5.32-3.22a3.07,3.07,0,0,0-.56-3.72c-2.21-1.91-5.09-1.55-7.72-.67a11.25,11.25,0,0,0-6.39,5C125.42,485.63,128.09,488.59,130.7,487.89Z"/><path class="cls-3" d="M147.66,502.74c-.11-.2-.37.4-.3.63,1.8,5.62,2.91,12.37-1.69,15.72-.14.11,0,.39.14.3C151.83,516.73,150.26,507.78,147.66,502.74Z"/><path class="cls-3" d="M140.9,498.25c-9.34,1.91-4.83,20.43,3.81,18.67S148.72,496.65,140.9,498.25Z"/><path class="cls-3" d="M137.5,500.11c-1.37,1.45-2.5,3.68-4.4,4.35-2.21.77-4.38-.76-6.31-2.26-.2-.16-.32,0-.27.29.81,3.56,3.06,6.87,7,6.47,3.58-.36,5.31-4.1,5.33-7.89C138.86,500.37,138.05,499.53,137.5,500.11Z"/><path class="cls-3" d="M180.6,492.59c0-.23.52.16.57.4,1.16,5.79,3.48,12.23,9.12,12.92.18,0,.23.31,0,.33C183.77,506.84,180.78,498.26,180.6,492.59Z"/><path class="cls-3" d="M184.33,485.38c9.08-2.88,14.16,15.5,5.75,18.16S176.72,487.79,184.33,485.38Z"/><path class="cls-3" d="M188.49,485.53c1.72.57,3.65,1.94,5.42,1.58,2-.43,3-2.82,3.74-5.08.08-.24.26-.13.34.12,1.07,3.48.91,7.46-2.27,9.07-2.91,1.46-6-.93-7.81-4.19C187.58,486.42,187.8,485.3,188.49,485.53Z"/><path class="cls-3" d="M160.69,549c1.65,1.09,3.4,2.69,5.54,2.45s4.24-1.59,6-2.67a.2.2,0,0,1,.3.25,7.93,7.93,0,0,1-6.74,4.58c-2.71.06-4.45-2-5.56-4.23C160,549.07,160.45,548.86,160.69,549Z"/><path class="cls-3" d="M179.57,520.42s3.36,8.24,4.4,12.27c.09.38-13.83,7.16-22.78-1.12a.43.43,0,0,1,.46-.71c6.31,2.54,12.43,2,18.77.54,0-1.19-6.23-13.92-5.6-14.13,2.15-.76,6.88-.37,9.68-.27-6.51-17.37-15.75-33.56-22-51a.56.56,0,0,1,1-.53c10.89,16.28,18.82,36.11,26,53.88C190.43,521.6,181.36,520.69,179.57,520.42Z"/><path class="cls-3" d="M180.39,533.34s-2.35,6.22-7,9.56a10.5,10.5,0,0,1-6,2.13c-4.78.1-6.06-4-6.23-7.69a24.8,24.8,0,0,1,.48-5.93A30.27,30.27,0,0,0,180.39,533.34Z"/><path class="cls-9" d="M173.35,542.9a10.5,10.5,0,0,1-6,2.13c-4.78.1-6.06-4-6.23-7.69C166,536.47,171.63,538.37,173.35,542.9Z"/><path class="cls-3" d="M72.52,526.11c16.14,1,18-35.91,18-35.91s67.56-15.73,70-71.67c0,0,13.86,34.72,50.59,48.57,0,0-6.11-60.79-55.14-69.68,0,0-61.28-18.16-92.08,31.46S61.68,525.4,72.52,526.11Z"/><path class="cls-3" d="M160.47,414.41A60.76,60.76,0,0,1,159,440a63.39,63.39,0,0,1-11.52,23.23,54.24,54.24,0,0,1-4.33,4.89l-2.23,2.39c-.8.72-1.64,1.41-2.48,2.1-1.7,1.37-3.33,2.8-5.07,4.09s-3.67,2.31-5.52,3.42c-.93.55-1.83,1.14-2.78,1.65l-2.94,1.35-5.85,2.67c-4.06,1.4-8.18,2.59-12.26,3.71,3.81-2,7.75-3.48,11.48-5.44l5.48-3.09,2.73-1.54c.87-.57,1.7-1.22,2.55-1.82,1.68-1.24,3.36-2.46,5.08-3.63s3.1-2.74,4.66-4.1l2.32-2.06,2.08-2.29a52.39,52.39,0,0,0,4-4.68c5.25-6.39,8.93-13.91,11.73-21.71A74.51,74.51,0,0,0,159.23,427,72.19,72.19,0,0,0,160.47,414.41Z"/><path class="cls-7" d="M84.57,525.22s-23.69-23-34.48-14.08S60.67,556,75.84,558.5s17.82-11.44,17.82-11.44Z"/><path class="cls-3" d="M56.47,521.27a.2.2,0,0,0,0,.39c10.7,2.12,17.69,10.33,23.19,19.17-3.66-3.11-8.07-4.35-12.32.11-.22.23.1.59.37.48,3.9-1.65,7-1.51,10.35,1.22,2.38,1.93,4.27,4.6,6.18,7,.63.8,2.15,0,1.61-.94l-.12-.21C83.55,535.77,70.31,519.94,56.47,521.27Z"/><path class="cls-2" d="M134.75,621.21l-15.48,39.06L70.61,611.16,57,627s47.74,78.16,48,74.62L120.89,668l23.29,23.28L142,632.57Z"/><path class="cls-3" d="M144.76,662.19c-.67-9.68-1.09-19.44-2.21-29.08,0-.34-.58-.49-.66-.09-1.9,9.36.89,46.35.89,55.23l-.1-.11c-1-1-21.59-20.47-21.79-20.16-3.46,5.35-15.14,29.87-15.94,32.1C97.4,687.67,65.38,638.74,56.46,627a.34.34,0,0,0-.58.34c6.67,13.11,48.05,77.69,48.64,77.51.4.31,14.91-29.9,16.64-35.6,3.49,4.25,24.31,26.23,24.37,24.79A302.38,302.38,0,0,0,144.76,662.19Z"/><rect class="cls-3" x="252.13" y="983.73" width="18.83" height="12.29"/><rect class="cls-3" x="276.54" y="982.92" width="18.83" height="12.29"/><rect class="cls-3" x="300.96" y="982.1" width="18.83" height="12.29"/><rect class="cls-3" x="325.37" y="981.29" width="18.83" height="12.29"/><rect class="cls-3" x="349.78" y="980.48" width="18.83" height="12.29"/><rect class="cls-3" x="374.2" y="979.67" width="18.83" height="12.29"/><rect class="cls-3" x="398.61" y="978.85" width="18.83" height="12.29"/><rect class="cls-3" x="423.02" y="978.04" width="18.83" height="12.29"/><rect class="cls-3" x="447.44" y="977.23" width="18.83" height="12.29"/><polygon class="cls-1" points="470.87 1003.09 247.52 1003.09 247.52 988.13 470.87 981.9 470.87 1003.09"/><polygon class="cls-3" points="734.25 928.17 365.53 928.17 424.17 653.66 792.88 653.66 734.25 928.17"/><polygon class="cls-1" points="747.88 928.17 379.17 928.17 437.8 653.66 806.52 653.66 747.88 928.17"/><path class="cls-3" d="M624.71,775c-2,12.59-13.82,22.8-26.41,22.8S577.12,787.6,579.11,775s13.82-22.8,26.41-22.8S626.7,762.42,624.71,775Z"/><polygon class="cls-3" points="643.6 999.86 462.26 999.86 462.26 985.77 643.6 979.91 643.6 999.86"/><polygon class="cls-3" points="692.91 999.84 595.54 999.84 536.9 846.02 634.27 846.02 692.91 999.84"/><polygon class="cls-3" points="708.93 999.84 611.57 999.84 552.93 846.02 650.29 846.02 708.93 999.84"/><path class="cls-2" d="M1078.38,774.6c20.66-.19,52.49-.41,72.91-.45l-.44.45-.06-30.81.5.49-36.45-.06-36.46-.16.27-.27-.27,30.81Zm0,0-.28-30.81v-.28h.28l36.46-.16,36.45-.06h.5v.5l0,30.81V775h-.45c-20.38,0-52.3-.3-72.91-.44Z"/><path class="cls-2" d="M1119.05,813.45c20.67-.19,52.5-.41,72.92-.45l-.45.45,0-30.81.5.5-36.46-.07-36.46-.16.28-.27-.28,30.81Zm0,0-.27-30.81v-.27h.27l36.46-.16,36.46-.06h.5v.5l-.06,30.81v.45H1192c-20.39,0-52.3-.29-72.92-.44Z"/><path class="cls-2" d="M1037.7,813.45c20.67-.19,52.5-.41,72.92-.45l-.45.45-.05-30.81.5.5-36.46-.07-36.46-.16.28-.27-.28,30.81Zm0,0-.27-30.81v-.27h.27l36.46-.16,36.46-.06h.5v.5l-.06,30.81v.45h-.44c-20.39,0-52.3-.29-72.92-.44Z"/><path class="cls-2" d="M1503.83,407.92c20.66-.19,52.49-.4,72.91-.45l-.44.45-.06-30.81.5.5-36.45-.07-36.46-.16.27-.27-.27,30.81Zm0,0-.27-30.81v-.27h.28l36.46-.17,36.45-.06h.5v.5l0,30.81v.45h-.45c-20.38,0-52.3-.3-72.91-.45Z"/><rect class="cls-6" x="1120.5" y="327.07" width="318.67" height="178.3" transform="translate(2559.67 832.44) rotate(-180)"/><polygon class="cls-6" points="1470.8 624.37 1411.17 624.37 1411.17 562.28 1470.8 624.37"/><rect class="cls-8" x="1188.35" y="420.17" width="213.2" height="3.84" transform="translate(2589.9 844.17) rotate(-180)"/><rect class="cls-8" x="1232.18" y="440.91" width="169.37" height="3.84" transform="translate(2633.74 885.67) rotate(-180)"/><rect class="cls-8" x="1219.4" y="378.67" width="182.15" height="3.84" transform="translate(2620.96 761.19) rotate(-180)"/><rect class="cls-8" x="1163.73" y="357.93" width="237.82" height="3.84" transform="translate(2565.28 719.7) rotate(-180)"/><rect class="cls-8" x="1214.62" y="461.66" width="186.93" height="3.84" transform="translate(2616.17 927.16) rotate(-180)"/><path class="cls-6" d="M1977.19,1011.79,1638.36,998.7,1705.71,607h252.57Q1967.73,809.36,1977.19,1011.79Z"/><path class="cls-10" d="M1682.65,683.74c-38.22,85.27-130.57,227-171.9,191.93-61.83-52.49-103.61-168.58-120.19-215.51-9.29-26.31,124.66-70.32,132.87-46.44,11.68,33.94,30,104.83,40.6,114.87,5.59,5.28,49.4-56.32,82.64-85.53C1694.58,600.94,1694.86,656.5,1682.65,683.74Z"/><path class="cls-10" d="M1357.08,620.62c11.94,26.84,57.82,72.19,73.09,78.87s95.84-66.17,94.14-83.2-49.76-106.86-76.38-120.62S1344.72,592.81,1357.08,620.62Z"/><path class="cls-10" d="M1518,597.44s-1.92-38.16,7.7-70.42c8.1-27.12,23.18-66.48,8.76-71.38-29.61-10.05-67.19,88.12-67.19,88.12s-9.62,46,18.83,58.53C1504,610.17,1518,597.44,1518,597.44Z"/><path class="cls-10" d="M1484.63,525.07c-2,15.44-19,4.3-19,4.3s20.72,22,12.56,37.1c-7.91,14.57-28.07.4-29.53-.6,1.09,1.17,19.61,21.84,9.83,36.21-10.16,14.93-28-2.78-29.1-3.93.67,1.43,9.33,20.46-.58,29.69-17,15.85-40.5-32.19-58.56-37.56,0,0-12.59,29.56-13.14,30.34,0,0-23.26-45.25-14.65-69.2,4.53-12.63,17.19-10.89,17.19-10.89s-9.11-13.77-1.77-25.32c3.78-5.93,16.62-5.15,16.62-5.15s-6.84-11.32.33-21.19c5.69-7.9,17.69-5.89,17.69-5.89s-1.52-13.92,6.92-20.1C1416.4,450.38,1488.77,492,1484.63,525.07Z"/><path class="cls-3" d="M1394.43,483a.22.22,0,0,1,.14-.42c27.14,7.88,54.55,24.85,72,47.29.58.73-.37,2-1.15,1.29C1443,511.49,1421.53,495.81,1394.43,483Z"/><path class="cls-3" d="M1374.19,509.71c-.29-.14-.07-.63.27-.53,27.92,8.27,58.26,28.24,75.35,56.47.58,1,.14,2.42-.62,1.36C1436.41,549.1,1398.65,521.11,1374.19,509.71Z"/><path class="cls-3" d="M1429.87,600.53c-17.43-26.43-41.58-44.62-69.07-59.74-.36-.19,0-.68.3-.6,15.46,3.73,32,15.2,44.08,25.2,11.59,9.59,20.12,20.56,25.61,34.53C1431,600.47,1430.24,601.1,1429.87,600.53Z"/><path class="cls-3" d="M1466.13,529.35c.68.89-1.36.92-.7,1.82,2.77,3.81,17.47,28.17,10.73,35.75-5.42,6.07-17.33,3-21.44,0l-10.34-7.47,7.11,10.62a52.06,52.06,0,0,1,7.15,15.33c1.43,5.34,1.43,11.05-1.4,15.2-2.86,4.39-7.61,6.43-12.53,4.82-4.92-1.39-9.72-5.05-13.46-9l-10.46-10.91,6.29,13.67a49.58,49.58,0,0,1,3.75,12c.67,4.06.68,8.28-.89,11.63s-4.88,5.78-8.34,5.74c-3.66,0-7.55-2.1-11-4.45-7.06-4.9-13.16-11.37-19.52-17.49-3.17-3.09-6.34-6.2-9.67-9.16s-6.84-5.93-11.16-7.18c4.13,1.68,7.19,5,10.31,8.07s6,6.48,8.89,9.81c5.85,6.65,11.8,13.28,19,18.91,3.67,2.66,7.74,5.41,13.06,5.75,5.49.31,10.44-3.34,12.63-8s2.16-9.8,1.5-14.4a53.87,53.87,0,0,0-4-13.37l-4.17,2.77c4.39,4.64,9.27,8.67,15.8,10.73a15.46,15.46,0,0,0,10.46-.38,17.56,17.56,0,0,0,7.82-6.77c3.86-6,3.46-13.31,1.77-19.25a56.61,56.61,0,0,0-8.12-16.74l-3.23,3.15c5.36,3.6,18.29,8.48,27.88.13C1490.7,557.94,1470.19,533.55,1466.13,529.35Z"/><path class="cls-3" d="M1465.6,529.37a31.1,31.1,0,0,0,9.3,2.18,7.21,7.21,0,0,0,6.66-3c1.35-2,1.59-5.12,1.51-8.22s-.5-6.41-1-9.79a24.77,24.77,0,0,1,4.36,9.33c.76,3.38,1,7.36-1.24,11.07a10.32,10.32,0,0,1-4.89,3.8,10.68,10.68,0,0,1-5.86.21A16.66,16.66,0,0,1,1465.6,529.37Z"/><path class="cls-4" d="M1531.59,616.29l-139.44,97.1S1475.44,886,1526.91,885.5s125.81-129.73,151.56-185.59,10.34-103.21-41.53-52.25c-52.18,51.27-70.45,71.86-72.13,71.17C1561.54,717.5,1531.59,616.29,1531.59,616.29Z"/><path class="cls-4" d="M1392.14,713.4S1449.89,833.08,1499,872.82c9.83,8,19.33,12.75,28,12.66,51.47-.45,125.83-129.72,151.58-185.56,16-34.59,16.1-65.92,1.6-72.64-8.93-4.16-23.4,1-43.15,20.38-52.17,51.26-70.44,71.86-72.13,71.17-3.25-1.33-33.23-102.53-33.23-102.53Z"/><path class="cls-8" d="M1494.09,862l4.87,2.47c1.62.83,3.36,1.44,5,2.15l5,2.12,5.2,1.71a92.55,92.55,0,0,0,21.23,4.9,105.75,105.75,0,0,0,18.23.47c-1.07.69-2.12,1.35-3.17,2a107.94,107.94,0,0,1-15.25-.61,131.42,131.42,0,0,1-51.66-18.91c-1.73-1.87-3.47-3.8-5.17-5.78A135.47,135.47,0,0,0,1494.09,862Zm88.69-160.07a28.17,28.17,0,0,1,2.78,1.21l4.87,2.48a149.3,149.3,0,0,1,35.28,25.69,223.75,223.75,0,0,1,22.66,26c.38-.61.74-1.24,1.07-1.85a226.65,226.65,0,0,0-22.33-25.58,149.08,149.08,0,0,0-42.87-29.38C1583.71,700.93,1583.25,701.42,1582.78,701.89Zm-176.09,39.82c.22.44.47.91.74,1.37,18.53-11.7,37.34-22.93,57.11-32.35a220.14,220.14,0,0,1,41.11-15.12c2.12-.52,4.24-1,6.36-1.43,1-.19,2-.38,3-.55a116.45,116.45,0,0,1,34-1.4c2.06.24,4.13.55,6.17.91-.2-.61-.42-1.27-.61-1.9-1.79-.34-3.55-.61-5.34-.86a118.8,118.8,0,0,0-36.62,1.87c-1,.17-2,.39-2.92.61-1.52.3-3,.66-4.49,1a221,221,0,0,0-41.44,15.34C1444,718.69,1425.19,730,1406.69,741.71Zm40-66.31h.33a93,93,0,0,1,21.67,2.26l5.37,1.07,5.26,1.46c1.76.53,3.55.94,5.26,1.55l5.15,1.87a141.32,141.32,0,0,1,20,9.25c.77.41,1.54.85,2.28,1.32a153.6,153.6,0,0,1,15.86,10.6c23.35,17.71,42.16,40.62,60.08,63.75,9,11.62,17.85,23.35,27.21,34.72.77,1,1.57,1.9,2.37,2.84.36-.5.69-1,1-1.52-.68-.82-1.37-1.62-2-2.45-9.31-11.34-18.12-23.07-27.1-34.72-17.92-23.21-36.76-46.29-60.36-64.24a150.93,150.93,0,0,0-14.07-9.53c-.77-.47-1.57-.94-2.36-1.38-19.25-11.09-41-18-63.31-18.67Zm172.23-9.91c21.18,9.47,44.64,14.18,67.82,12.23l.5-1.82a86.41,86.41,0,0,1-15.09.27l-5.48-.22-5.43-.63c-1.81-.25-3.63-.36-5.42-.69l-5.37-1a145.58,145.58,0,0,1-30-9.61C1620,664.47,1619.43,665,1618.93,665.49Zm39.32-34.67a307.82,307.82,0,0,0,32.41,19.41c0-.77,0-1.51-.08-2.25a319.61,319.61,0,0,1-30.4-18.2C1659.55,630.08,1658.91,630.44,1658.25,630.82Z"/><path class="cls-3" d="M1425.12,729.58c3.68-3,7.41-6,11.15-9q11.37-9,22.8-17.93c15.14-11.83,30.6-23.22,46.19-34.44,8.86-6.37,17.53-13.09,26.66-19.07a.41.41,0,0,1,.5.66c-7.25,6.39-15,12.24-22.52,18.3s-15,12.21-22.63,18.15q-22.74,17.7-46,34.68c-4.35,3.19-8.6,6.56-13.08,9.55-2.3,1.54-4.48,3.25-6.8,4.75s-4.77,2.84-7.05,4.41a.23.23,0,0,1-.28-.37C1417.81,736.13,1421.33,732.72,1425.12,729.58Z"/><path class="cls-3" d="M1563.61,715.68c5.57,14.26,9.46,29.16,13.11,44,1.81,7.37,3.24,14.83,4.65,22.28a167.1,167.1,0,0,1,3,22.37c0,.28-.39.29-.47,0-2.29-7.17-4-14.66-5.67-22s-3.51-14.76-5.18-22.16c-3.32-14.8-7.22-29.49-10.12-44.38A.37.37,0,0,1,1563.61,715.68Z"/><path class="cls-5" d="M1499,872.82c9.83,8,19.33,12.75,28,12.66,51.47-.45,125.83-129.72,151.58-185.56,16-34.59,16.1-65.92,1.6-72.64Z"/><path class="cls-4" d="M1579.82,1010.56l333.59-1.22c-1-15.78-25.17-360.5-163.94-393.18-5.68-1.34-48.42-11.41-81.84,11.27-40.84,27.72-38.79,84.69-49.79,178.32A1589.71,1589.71,0,0,1,1579.82,1010.56Z"/><path class="cls-8" d="M1596.52,866.55a248.58,248.58,0,0,0,23.49-9.77c11-5.21,21.61-11,32.08-17.07.52-.31,1-.64,1.56-.94,11.32-6.64,22.42-13.66,33.46-20.73.52-.31,1.05-.66,1.57-1l7.27-4.65c24.73-15.83,49.29-32.19,75.89-44.91,13.3-6.3,27.17-11.65,41.74-14.23a91.55,91.55,0,0,1,22.11-1.19c1.85.14,3.69.41,5.51.63,1,.22,2,.39,3,.58.22.44.39.86.58,1.3-1.27-.25-2.51-.42-3.75-.66-1.81-.25-3.6-.5-5.42-.64a91.12,91.12,0,0,0-21.81,1.21c-14.4,2.59-28.17,7.93-41.38,14.21-26.47,12.72-51,29.08-75.64,45-2.46,1.57-4.88,3.14-7.33,4.73-.52.33-1,.66-1.54,1-10.85,7-21.73,13.87-32.82,20.4-.53.33-1,.63-1.57.94-10.71,6.27-21.59,12.22-32.8,17.59a244.79,244.79,0,0,1-24.53,10.22Zm28.83-135.61.36.33c21,20.43,36.87,45.44,51.85,70.63,3.19,5.37,6.36,10.77,9.55,16.14.25.44.52.88.8,1.35,4,6.8,8.12,13.6,12.39,20.29,3.52,5.56,7.21,11,11.12,16.38.36.53.72,1,1.13,1.54a191.64,191.64,0,0,0,14.38,17.32,108.8,108.8,0,0,0,16.77,14.49L1746,891a23.74,23.74,0,0,0,2.37,1.44l4.82,2.81c3.38,1.48,6.66,3.3,10.24,4.32,14,4.82,28.83,6.83,43.56,7a202.12,202.12,0,0,0,43.87-5.06c13.71-3,27.2-6.92,40.64-10.85-.14-.42-.25-.86-.36-1.3-13.46,3.91-26.9,7.82-40.59,10.74A199.68,199.68,0,0,1,1807,905c-14.59-.16-29.3-2.2-43.07-7-3.49-1-6.69-2.8-10-4.26L1749.2,891c-.77-.47-1.59-.88-2.34-1.4l-2.23-1.57a108.8,108.8,0,0,1-16.46-14.32,181.93,181.93,0,0,1-13.5-16.16c-.38-.5-.74-1-1.13-1.55-4.13-5.61-8-11.42-11.73-17.31-4.24-6.7-8.31-13.5-12.36-20.33-.27-.44-.52-.88-.77-1.35q-4.79-8-9.53-16.1c-15-25.23-30.81-50.45-52-71.13-.36-.36-.74-.71-1.13-1.07C1625.79,729.45,1625.57,730.2,1625.35,730.94Zm-15.72,65.45q2.71,3.48,5.53,6.86c9.33,11.37,19.36,22.3,30.73,31.72,2,1.62,4.1,3.22,6.2,4.74.46.35,1,.68,1.43,1a83.13,83.13,0,0,0,10.79,6.58l2.45,1.32c.83.44,1.68.74,2.53,1.13l5.13,2.2c3.55,1,7,2.45,10.68,3.06a126.06,126.06,0,0,0,27.45,2.58c.72,0,1.41,0,2.12,0,4.85-.09,9.7-.44,14.54-1a203.51,203.51,0,0,0,42.93-10.36c13.91-4.84,27.4-10.74,40.89-16.55S1840,818,1854.09,814c4.15-1.21,8.42-2.23,12.72-3-.14-.41-.28-.8-.42-1.18a128.71,128.71,0,0,0-12.66,3c-14.18,4-27.73,9.91-41.25,15.66s-27,11.65-40.84,16.42a199.69,199.69,0,0,1-42.59,10.21c-5.15.55-10.33.91-15.51,1-.71,0-1.43,0-2.12,0a124,124,0,0,1-26-2.64c-3.61-.58-7-2-10.47-3l-5-2.15c-.82-.39-1.7-.69-2.5-1.13l-2.4-1.29a84.61,84.61,0,0,1-10-6.06c-.47-.33-1-.66-1.44-1-2.28-1.62-4.48-3.36-6.69-5.09-11.23-9.37-21.14-20.21-30.42-31.56-2.18-2.64-4.33-5.31-6.45-8C1609.93,794.88,1609.76,795.65,1609.63,796.39ZM1644,674.14a130.61,130.61,0,0,0,50.28,2.72,119.93,119.93,0,0,0,34.7-11.87c.88-.44,1.76-.9,2.64-1.37,1.35-.72,2.7-1.46,4-2.23a222.75,222.75,0,0,0,35.6-26.16c-.41-.42-.8-.83-1.21-1.21a216.93,216.93,0,0,1-35.3,25.82q-2.81,1.62-5.7,3.12l-2.7,1.35A115.75,115.75,0,0,1,1693.91,675a92.52,92.52,0,0,1-21.75,1.15l-5.48-.22-5.43-.63c-1.81-.25-3.63-.36-5.42-.69l-5.37-1c-1.93-.38-3.85-.82-5.78-1.29C1644.46,672.9,1644.21,673.5,1644,674.14Zm19.3-40c14.82,9.7,30.27,18.4,46.84,24.87a152.27,152.27,0,0,0,16.19,5.29c.88.24,1.77.46,2.65.68,21.89,5.46,45,6,67,.25-.36-.55-.74-1.07-1.13-1.6a91.88,91.88,0,0,1-19.6,3.28l-5.45.44-5.46,0c-1.84,0-3.66.11-5.47,0l-5.46-.36a148.13,148.13,0,0,1-21.75-3.38L1729,663a155,155,0,0,1-18.14-5.81c-16.44-6.39-31.81-15-46.57-24.65C1664,633.05,1663.59,633.6,1663.26,634.15Zm-81.47,336.93c2.64,0,5.31.19,8,.27a4.86,4.86,0,0,0,.66,0l1,.08a114,114,0,0,1,40.86,11.93,180.31,180.31,0,0,1,24.57,15.31h1.73a185.31,185.31,0,0,0-25.8-16.3,114.69,114.69,0,0,0-40.39-12c-.56-.06-1.13-.11-1.68-.14a.58.58,0,0,0-.22,0c-2.87-.08-5.73-.33-8.6-.33C1581.87,970.31,1581.84,970.69,1581.79,971.08Zm-1.6,14.12c3.63-4.68,7.41-9.25,11.26-13.74.33-.35.64-.71,1-1.07.13-.19.3-.36.46-.55,9.72-11,20.32-21.26,32.58-29.24A87.57,87.57,0,0,1,1645,931c1.7-.58,3.47-1.05,5.23-1.54s3.52-.88,5.34-1.13c3.58-.69,7.27-.75,10.88-1.13a112.91,112.91,0,0,1,43,6.8,197.74,197.74,0,0,1,39.1,19.91c21.76,13.88,41.78,30.26,63.12,44.83h1c-21.45-14.82-41.58-31.5-63.55-45.69a201.51,201.51,0,0,0-39.24-20.1c-13.88-4.92-28.69-7.62-43.48-6.91-3.66.36-7.38.42-11,1.1-1.85.25-3.64.78-5.46,1.13s-3.57,1-5.31,1.57a90.25,90.25,0,0,0-19.88,9.72c-12.42,8.07-23.1,18.45-32.91,29.41-.38.44-.77.88-1.12,1.32s-.66.72-1,1.1q-4.79,5.5-9.28,11.21C1580.38,983.5,1580.27,984.35,1580.19,985.2Z"/><path class="cls-10" d="M1793.93,652.08c68.13,78.84,160,218.07,122.47,248.85-61.7,50.61-241.92,79.78-283.27,84.76-17.85,2.15-53.59-114.49-41.68-129.58s202.47-25.75,203.81-37.44c.75-6.63-28.18-64.35-46.8-135.14C1727,601.91,1774.73,629.85,1793.93,652.08Z"/><path class="cls-10" d="M1622.67,846.5s-54.68-.42-90.45,1c-20,.79-54,5.19-68.45,12.47-21.54,10.9-104.65,70.22-90.7,90.68,12.63,18.52,77.56-41.51,77.56-41.51s-70.88,54.78-51.57,74.28,83.64-58.07,83.64-58.07-71.55,57.92-48.47,74.89c17.45,12.82,79.69-54.17,79.69-54.17s-61.16,50.21-43.79,64.17c19.2,15.43,80.53-42.8,80.53-42.8,50.14,28.05,85.49,20.89,110,12.8C1666.62,978.28,1622.67,846.5,1622.67,846.5Z"/><path class="cls-3" d="M1473.93,888.61c-8.56,6.13-17.26,12.28-25.25,19.16s-15.73,14-23,21.61c-17.92,18.61-26.24,33.06-25.63,32.23,14.45-19.79,42.65-44.84,50.63-51.72s15.6-14.12,23.56-21C1474.4,888.73,1474.13,888.46,1473.93,888.61Z"/><path class="cls-3" d="M1499.27,917c-10.59,8.3-21.4,16.16-31.63,24.93s-24,21.46-33.57,30.87c-.74.72,0,2.09.77,1.39,9.91-9,24.63-21.35,34.65-30.25s19.7-18.21,30-26.71C1499.65,917.09,1499.43,916.86,1499.27,917Z"/><path class="cls-3" d="M1525.4,937.43c-16.83,11.86-31.46,26.82-45.45,41.83-.69.75.14.86.9.14,14.85-14.19,26.39-25.43,45-41.38C1526.11,937.77,1525.76,937.18,1525.4,937.43Z"/><path class="cls-3" d="M1630.37,844.78c-24.95-.17-98.23-.36-123.11,1.55-21.94,1.69-40.18,6.44-58.67,18.66-39.64,26.21-65.19,57-71.53,66.17-3.84,5.55-9.46,14.39-4.34,20.55,6.23,7.5,29.23.18,53.49-21.77.87-.79.33-1.28-.57-.56-34.06,27.6-47.63,24.42-51.18,19.69-2.3-3.05-.08-8.34,2-12.38,3-5.85,7.69-11.21,12.06-16,15.11-16.68,33.35-32,51.53-45.17,20.92-15.18,43.13-23.75,68.92-25.87,25.49-2.09,96-1.42,121.5-3.88C1631,845.68,1630.91,844.79,1630.37,844.78Z"/><path class="cls-3" d="M1395,972.46c1.42-6.82,6.32-13,10.2-18.65a127.21,127.21,0,0,1,16.15-19.62c.27-.26.73.07.47.38a198.6,198.6,0,0,0-14.28,18.89,109.41,109.41,0,0,0-6.33,11.22c-1.8,3.72-3.9,8-3,12.26,1.77,8.11,12.06,7.91,18.15,5.72a69.62,69.62,0,0,0,11.36-5.51,114.19,114.19,0,0,0,13.91-10.5c.38-.34,1.35-.21,1,.15-9.08,8.66-26.28,26.65-40.32,20A12.68,12.68,0,0,1,1395,972.46Z"/><path class="cls-4" d="M1621.91,839.42l65.49,148.65s228.89-51.59,242.16-95.09-58.45-159.81-123.18-232.29c-63.68-71.3-73.08-22.94-57.25,32.23s41.8,118.73,38.9,123.48S1621.91,839.42,1621.91,839.42Z"/><path class="cls-8" d="M1813.58,753.25a91.55,91.55,0,0,1,22.11-1.19c1.85.14,3.69.41,5.51.63,1.82.39,3.66.61,5.45,1.11,3.64.77,7.08,2.17,10.6,3.27a112.12,112.12,0,0,1,34.31,20.74c.58,1,1.16,2,1.74,3a112.46,112.46,0,0,0-36.46-22.64c-3.5-1.07-6.89-2.45-10.46-3.22-1.77-.49-3.58-.69-5.35-1s-3.6-.5-5.42-.64a91.12,91.12,0,0,0-21.81,1.21c-13.93,2.51-27.29,7.6-40.09,13.61-.17-.42-.3-.86-.47-1.27C1786.1,760.82,1799.54,755.75,1813.58,753.25Zm-185.73,99.67.66,1.52c8.49-4.27,16.8-8.9,25-13.71.52-.31,1-.61,1.57-.94,2.89-1.68,5.78-3.44,8.64-5.18-1.29.14-2.56.28-3.8.44-2.06,1.24-4.16,2.48-6.28,3.72-.52.3-1,.63-1.56.94C1644.13,844.33,1636.06,848.77,1627.85,852.92Zm66.94-22.08c1.82,2.95,3.64,5.92,5.51,8.84,3.52,5.56,7.21,11,11.12,16.38.36.53.72,1,1.13,1.54a191.64,191.64,0,0,0,14.38,17.32,108.8,108.8,0,0,0,16.77,14.49L1746,891a23.74,23.74,0,0,0,2.37,1.44l4.82,2.81c3.38,1.48,6.66,3.3,10.24,4.32,14,4.82,28.83,6.83,43.56,7a202.12,202.12,0,0,0,43.87-5.06c14.4-3.09,28.52-7.3,42.62-11.43,12.47-3.61,25-7.3,37.7-9.69,0-.42,0-.86-.06-1.3-12.88,2.4-25.5,6.06-38,9.69-14.13,4.11-28.2,8.27-42.55,11.32A199.68,199.68,0,0,1,1807,905c-14.59-.16-29.3-2.2-43.07-7-3.49-1-6.69-2.8-10-4.26L1749.2,891c-.77-.47-1.59-.88-2.34-1.4l-2.23-1.57a108.8,108.8,0,0,1-16.46-14.32,181.93,181.93,0,0,1-13.5-16.16c-.38-.5-.74-1-1.13-1.55-4.13-5.61-8-11.42-11.73-17.31-1.7-2.7-3.38-5.4-5-8.13Zm-47,5.62c1.43,1.1,2.86,2.2,4.3,3.25.46.35,1,.68,1.43,1a83.13,83.13,0,0,0,10.79,6.58l2.45,1.32c.83.44,1.68.74,2.53,1.13l5.13,2.2c3.55,1,7,2.45,10.68,3.06a126.06,126.06,0,0,0,27.45,2.58c.72,0,1.41,0,2.12,0,4.85-.09,9.7-.44,14.54-1a203.51,203.51,0,0,0,42.93-10.36c13.91-4.84,27.4-10.74,40.89-16.55S1840,818,1854.09,814s28.85-6.22,43.23-3.44a52.91,52.91,0,0,1,14.4,5.17c-.25-.55-.53-1.13-.8-1.68a52.19,52.19,0,0,0-13.38-4.65c-14.63-2.86-29.69-.66-43.81,3.39s-27.73,9.91-41.25,15.66-27,11.65-40.84,16.42a199.69,199.69,0,0,1-42.59,10.21c-5.15.55-10.33.91-15.51,1-.71,0-1.43,0-2.12,0a124,124,0,0,1-26-2.64c-3.61-.58-7-2-10.47-3l-5-2.15c-.82-.39-1.7-.69-2.5-1.13l-2.4-1.29a84.61,84.61,0,0,1-10-6.06c-.47-.33-1-.66-1.44-1-1.18-.83-2.34-1.71-3.46-2.59C1649.36,836.29,1648.56,836.37,1647.79,836.46Zm94.67-181.38c0,.66,0,1.35.11,2a231.87,231.87,0,0,0,28.63-21.89c1.3-1.16,2.59-2.32,3.86-3.44-.52-.36-1-.66-1.49-1-1.15,1.08-2.31,2.09-3.5,3.14A230.26,230.26,0,0,1,1742.46,655.08Zm.91,10.77c.11.69.19,1.35.3,2a131.42,131.42,0,0,0,53.5-3,94.07,94.07,0,0,0,9.83-3.5l-.63-.71-.66-.75c-3,1.22-6,2.26-9.06,3.17a94.34,94.34,0,0,1-21.48,3.8l-5.45.44-5.46,0c-1.84,0-3.66.11-5.47,0l-5.46-.36C1750,666.76,1746.67,666.37,1743.37,665.85Zm-83.11,260.62.53,1.16c1.9-.17,3.8-.28,5.7-.47a112.91,112.91,0,0,1,43,6.8,197.74,197.74,0,0,1,39.1,19.91c6.7,4.27,13.22,8.75,19.66,13.41h0c.36-.11.72-.22,1.08-.3-6.64-4.82-13.36-9.5-20.24-14a201.51,201.51,0,0,0-39.24-20.1c-13.88-4.92-28.69-7.62-43.48-6.91C1664.39,926.2,1662.3,926.31,1660.26,926.47Z"/><path class="cls-3" d="M1713.62,963.53c-2.23-4.23-4.37-8.48-6.51-12.75q-6.49-13-12.89-26c-8.49-17.25-16.48-34.7-24.28-52.26-4.43-10-9.23-19.84-13.22-30a.41.41,0,0,1,.75-.35c4.78,8.39,8.91,17.18,13.32,25.78s8.88,17.16,13.14,25.86q12.67,25.88,24.54,52.13c2.23,4.9,4.67,9.75,6.68,14.75,1,2.57,2.26,5,3.25,7.63s1.81,5.24,2.89,7.8a.24.24,0,0,1-.43.2C1718.54,972,1715.92,967.88,1713.62,963.53Z"/><path class="cls-11" d="M1682.35,977.91l5.22,10.08c20.24-5.33,42.86-10.69,63.74-16.65,42.37-11.74,84.71-24.26,125.23-41.42,15-6.62,30.18-13.67,43-24.13,4.1-3.58,8-7.65,10.07-12.81-1.83,5.26-5.69,9.5-9.74,13.19-12.53,10.91-27.69,18.23-42.67,25.11-40.39,17.78-82.89,30.21-125.41,41.67-21.38,5.56-42.83,10.8-64.44,15.34l-.07-.13-4.88-10.25Z"/><path class="cls-11" d="M1624.46,845.22l-2.65-5.75-.06-.14h.15c44.39-5.53,92.73-10.92,136.81-17.49,5.68-.85,11.35-1.74,17-2.79,3.71-.72,8.58-1.61,11.46-2.93a17.23,17.23,0,0,0-.56-3.88c-1.27-5.55-2.93-11.06-4.58-16.55-4.92-16-10.51-33.5-15.77-49.25l-10.83-32.75q12,32.34,22.93,65.07c3.61,11,7.27,21.84,10,33.08a15.75,15.75,0,0,1,.6,4.63,1.54,1.54,0,0,1-.59,1,12.2,12.2,0,0,1-3.83,1.57c-2.82.78-5.65,1.35-8.49,1.9-5.66,1.09-11.35,2-17,2.9-22.77,3.37-45.6,6.13-68.46,8.74-20,2.15-48.78,5.27-68.63,7l.09-.15,2.45,5.84Z"/><path class="cls-11" d="M1752.91,727.87c4.91,6.59,9.56,13.82,14.46,20.4-5.76-6-10.32-13.17-14.46-20.4Z"/><path class="cls-10" d="M1686.21,677c19.42,5.52,54.46-22.94,68.87-46.65,1-1.63-2.93-68.6-2.33-82,.14-2.74-84.65,16.56-84.65,16.56s7,28.36,5.77,51.63C1673.75,618.56,1667.45,671.67,1686.21,677Z"/><path class="cls-3" d="M1753.92,590.37c-39.63,28-78.23,17.24-80,16.74-.62-20.83-5.86-42.13-5.86-42.13s84.8-19.3,84.66-16.55C1752.47,554.7,1753.17,572.78,1753.92,590.37Z"/><path class="cls-10" d="M1764.46,447.83c9.25,29.67-5.92,115.62-26.94,134.89-30.48,27.94-80.63,30.9-104.43-5.8-23.08-35.56-1.32-147.23,22.18-164.77C1689.9,386.32,1750.8,404,1764.46,447.83Z"/><path class="cls-3" d="M1693,501.8c.09-.21.4.36.35.6-1.29,5.73-1.8,12.52,3.06,15.44.15.09.08.38-.11.31C1690.12,516,1690.88,507,1693,501.8Z"/><path class="cls-3" d="M1699.33,496.76c9.43,1.07,6.59,19.84-2.14,18.84S1691.44,495.86,1699.33,496.76Z"/><path class="cls-3" d="M1659.61,497.29c0-.23-.5.2-.53.44-.69,5.84-2.47,12.41-8,13.55-.17,0-.2.33,0,.33C1657.61,511.68,1659.89,502.93,1659.61,497.29Z"/><path class="cls-3" d="M1655.34,490.43c-9.25-2.12-12.81,16.52-4.25,18.48S1663.08,492.21,1655.34,490.43Z"/><path class="cls-3" d="M1708,489.3a73,73,0,0,1-6.88-3.66c-2.63-1.43-4.87-2.3-6.31-5.07a4,4,0,0,1,1.37-4.71c3.19-2.06,6.84-1.11,10.07.49a14.61,14.61,0,0,1,7.38,7.51C1715.24,487.3,1711.28,490.66,1708,489.3Z"/><path class="cls-3" d="M1649.51,479.89a77.38,77.38,0,0,0,7.75-.81c3-.34,5.37-.31,7.75-2.33a4,4,0,0,0,.5-4.88c-2.18-3.11-5.92-3.59-9.52-3.33a14.63,14.63,0,0,0-9.66,4.19C1643.58,475.33,1646,479.93,1649.51,479.89Z"/><path class="cls-3" d="M1689.84,556.29c-1.6,1.15-3.27,2.81-5.41,2.67s-4.28-1.41-6-2.41a.21.21,0,0,0-.3.26,7.92,7.92,0,0,0,6.9,4.28c2.7-.07,4.35-2.14,5.35-4.45C1690.5,556.31,1690.07,556.12,1689.84,556.29Z"/><path class="cls-3" d="M1686.36,538a20,20,0,0,1-14.54,6.81,25.26,25.26,0,0,1-7.17-.75,7.61,7.61,0,0,1-1.33-.36c-.42-.12-.8-.23-1.25-.39a1.47,1.47,0,0,1-1-1.48v0a3.16,3.16,0,0,1,.14-.59v0l.09-.51c.55-4.49,2-11.23,2-11.23-1.76.57-10.67,3.06-10.18.74,4.08-19.18,8.62-40.51,16.74-58.74a.55.55,0,0,1,1,.31c-3.2,18.59-9.64,36.49-13.15,55.12,2.82-.61,7.44-1.83,9.77-1.43.61.28-3.06,13-3.15,15a.92.92,0,0,0,0,.22c7.37,2.1,13.39.68,21.45-3.26C1686.38,537.09,1686.78,537.55,1686.36,538Z"/><path class="cls-3" d="M1667.64,542.15s3.15,6,8.29,8.71a10.73,10.73,0,0,0,6.36,1.37c4.83-.52,5.59-4.76,5.29-8.54a25.6,25.6,0,0,0-1.24-5.89A30.76,30.76,0,0,1,1667.64,542.15Z"/><path class="cls-9" d="M1675.93,550.86a10.73,10.73,0,0,0,6.36,1.37c4.83-.52,5.59-4.76,5.29-8.54C1682.52,543.45,1677.09,546.08,1675.93,550.86Z"/><path class="cls-3" d="M1750.36,478.37c3.37,8.51,10.35,28.56,14.31,30,3.78-27.86,3.91-53.14-3-68.66a57.12,57.12,0,0,0-11.82-17.23C1749.27,429.91,1746.74,469.43,1750.36,478.37Z"/><path class="cls-3" d="M1675.86,438.52A27.65,27.65,0,0,0,1699,452.19c9.34.16,19.48-4.49,24.32-12.71a.22.22,0,0,1,.38.23c-5.17,8.78-14.19,15.16-24.71,14.73a28.46,28.46,0,0,1-23.75-15.58A.34.34,0,0,1,1675.86,438.52Z"/><path class="cls-3" d="M1618.44,394.2a35.24,35.24,0,0,1,18.15-16c10.74-4.24,21.51-1.4,32.15,1.65a.23.23,0,0,1-.13.45c-9.07-2.57-18.41-4.64-27.68-1.82a34.69,34.69,0,0,0-18.78,13.78c-9.06,13.73-6.34,33.27,6.37,43.81a34.35,34.35,0,0,0,26.17,7.5c.36-.05.53.5.15.56-17,2.76-34.5-7.9-39-24.72A35.13,35.13,0,0,1,1618.44,394.2Z"/><path class="cls-3" d="M1767,465s19.91-25.57,10.25-44.08C1771.75,410.4,1748,407.5,1748,407.5s-5.54-12.14-24.25-20c-18.9-7.95-44-3.26-44-3.26s-16.83-14-36.1-7c-26.87,9.68-30.32,47.42-7.82,63.68,15.79,11.42,41.91.24,41.91.24,2.2.7,22.85,18.65,43.9,1.1,0,0,12,15.08,26.25,8.47C1747.9,450.7,1752.11,464.62,1767,465Z"/><path class="cls-10" d="M1746.54,517.92s19.8-27.49,32.3-20.39-2.66,47.13-17.53,52.43-20-8.37-20-8.37Z"/><path class="cls-3" d="M1774.21,508.89a.21.21,0,0,1,.07.4c-10.43,4.06-16,13.6-20,23.51,3.13-3.79,7.36-5.84,12.45-2.09.27.19,0,.61-.29.55-4.23-1-7.31-.28-10.22,3.08-2.07,2.38-3.5,5.41-5,8.17-.49.92-2.16.4-1.79-.66l.09-.24C1749.46,528.38,1760,510,1774.21,508.89Z"/><rect class="cls-3" x="1556.69" y="991.97" width="18.42" height="12.03" transform="translate(3131.8 1995.98) rotate(-180)"/><rect class="cls-3" x="1532.8" y="991.18" width="18.42" height="12.03" transform="translate(3084.02 1994.39) rotate(-180)"/><rect class="cls-3" x="1508.91" y="990.38" width="18.42" height="12.03" transform="translate(3036.23 1992.8) rotate(-180)"/><rect class="cls-3" x="1485.01" y="989.59" width="18.42" height="12.03" transform="translate(2988.45 1991.21) rotate(-180)"/><rect class="cls-3" x="1461.12" y="988.79" width="18.42" height="12.03" transform="translate(2940.67 1989.62) rotate(-180)"/><rect class="cls-3" x="1437.23" y="988" width="18.42" height="12.03" transform="translate(2892.89 1988.03) rotate(-180)"/><rect class="cls-3" x="1413.34" y="987.2" width="18.42" height="12.03" transform="translate(2845.11 1986.44) rotate(-180)"/><rect class="cls-3" x="1389.45" y="986.41" width="18.42" height="12.03" transform="translate(2797.32 1984.85) rotate(-180)"/><rect class="cls-3" x="1365.56" y="985.61" width="18.42" height="12.03" transform="translate(2749.54 1983.26) rotate(-180)"/><polygon class="cls-1" points="1361.05 1010.92 1579.62 1010.92 1579.62 996.28 1361.05 990.19 1361.05 1010.92"/><polygon class="cls-3" points="1147.71 953.2 1508.55 953.2 1451.16 684.57 1090.33 684.57 1147.71 953.2"/><polygon class="cls-1" points="1134.37 953.2 1495.2 953.2 1437.82 684.57 1076.98 684.57 1134.37 953.2"/><path class="cls-3" d="M1254.91,803.32c1.95,12.32,13.52,22.31,25.84,22.31s20.73-10,18.78-22.31S1286,781,1273.69,781,1253,791,1254.91,803.32Z"/><polygon class="cls-3" points="1188.17 1023.34 1283.45 1023.34 1340.84 872.82 1245.55 872.82 1188.17 1023.34"/><polygon class="cls-3" points="1172.49 1023.34 1267.77 1023.34 1325.15 872.82 1229.87 872.82 1172.49 1023.34"/></svg>