<svg id="Слой_1" data-name="Слой 1" xmlns="http://www.w3.org/2000/svg" viewBox="0 0 1800 600"><defs><style>.cls-1{fill:#dcdcdc;}.cls-2{fill:#a8a8a8;}.cls-3{fill:#306;}.cls-4{fill:#e55f4e;}.cls-5{fill:#ffc800;}.cls-6{fill:#fff;}.cls-7{fill:#4a148c;}.cls-8{fill:#ececec;}.cls-9{opacity:0.1;}.cls-10{opacity:0.3;}.cls-11{opacity:0.6;}.cls-12{fill:#ed776a;}.cls-13{fill:#c8c8c8;}.cls-14{fill:#ff9bbe;}</style></defs><polygon class="cls-1" points="-10.16 538.83 225.62 538.83 178.61 265.36 2.3 265.36 -10.16 538.83"/><polygon class="cls-2" points="-10.16 538.83 10.52 538.83 22.12 265.36 2.3 265.36 -10.16 538.83"/><path class="cls-3" d="M238.24,373.85c-2.11,0-12,.1-26.37.27-4.77-8.75-10.21-24.19-7-45.92.56-3.6-9.08,17-6.41,46.07-27.84.3-65.72.67-98.79.71-.26-12.23-1.09-23.55-1.09-23.55A129.88,129.88,0,0,1,92.48,375c-4.52,0-9,0-13.21,0,1.56-19-.83-52.07-.83-52.07a163,163,0,0,1-18,52c-21-.18-34.79-.67-33.88-1.6,32.84-34.09,10.2-54.23,20.17-84.48,12-36.25,45.28-41.63,45.15-69,0-22.24-1.72-62.62,28.21-70.88,0,0,24.91-24.73,62.37-10.49,46.36,17.57,25.67,85.92,28.43,99.9,3.93,20,13.73,27.13,20.5,49.94,6.92,23.08-4.62,38.22-6.36,53.79S243.51,373.87,238.24,373.85Z"/><path class="cls-3" d="M25.81,368.39c4.42-6.11,8.4-12.55,10.8-19.34,2.61-6.75,1.78-13.71.56-20.89s-2.72-14.44-3.18-22,.16-15.45,3-22.86a51.89,51.89,0,0,1,13.25-19.58c5.72-5.51,12.21-9.92,18.48-14.28S81.16,240.67,85.89,235a39.5,39.5,0,0,0,9-19.77,36.4,36.4,0,0,1-6.75,21.33c-4.46,6.41-10.58,11.54-16.61,16.28s-12.1,9.31-17.22,14.54a49.25,49.25,0,0,0-11.52,17.73A54.35,54.35,0,0,0,40,305.81c.21,7.12,1.39,14.28,2.17,21.68a69.74,69.74,0,0,1,.4,11.33,31.62,31.62,0,0,1-3,11.27A64.83,64.83,0,0,1,25.81,368.39Z"/><path class="cls-3" d="M208.21,164.32c3.39,8.48,4.46,17.63,5.55,26.61.92,9,1.36,18.1,1.7,27.12l.61,13.48a63.67,63.67,0,0,0,1.74,12.89c2.07,8.35,6.76,15.67,12.09,23.13a100,100,0,0,1,7.29,12,60.15,60.15,0,0,1,4.8,13.35,87.53,87.53,0,0,1,1.63,13.89,54.49,54.49,0,0,1-1.25,14c-1,4.62-2.51,9-3.8,13.27a66.16,66.16,0,0,0-2.6,13c-1,8.64,3.59,17.34,10.81,23.09C238.72,365.46,233,356.63,233,347a64.7,64.7,0,0,1,1.66-13.81c1-4.53,2.31-8.85,3-13.17,1.42-8.54.54-17.48-1.37-25.9a59.63,59.63,0,0,0-4.55-12.07,95.39,95.39,0,0,0-7-11.26A134.11,134.11,0,0,1,217.2,259a53.82,53.82,0,0,1-5.13-13.28,68.18,68.18,0,0,1-1.46-13.95c-.12-4.57-.07-9.09,0-13.62.07-9,.29-18.05.11-27.05S210.23,173.15,208.21,164.32Z"/><path class="cls-4" d="M148.45,328.25c15,65.36,45.39,148.12,68.86,164.81,18.94,13.47,118.26,37.19,123.8,37.79,13.71,1.38,40.79-95.48,26.58-99.42-17.91-4.95-103-7.6-107.88-12.57-5-5.2-36-47.15-71.07-95.75C164.53,289.53,139.14,287.7,148.45,328.25Z"/><path class="cls-4" d="M330.1,525.53c1.63.83,24.83,12.49,39.17,16.65,10.7,3.1,41.74,11.2,46.32-.24,3.14-7.8-14.56-14.71-27-19.88-6.53-2.72-14.58-9.56-12.65-13.76,3.36-7.34,20.18,0,31.24,6.46,21.39,12.43,49.88,34.8,62.94,24,4.93-4.11-.8-11.58-9.19-18.9,13.61,8.54,28.13,15.54,33.79,11.2,3.25-2.47,3.4-5.87,1.6-9.74,4.2,1.37,7.91,1.1,10.5-1.64,4.43-4.63,2.27-11.46-2.57-18.47a5.27,5.27,0,0,0,4-2.64c9.37-14.29-37.53-55.3-53.75-59.14-47.71-11.35-98.48-7.21-98.48-7.21C337.34,447.15,330.06,525.5,330.1,525.53Z"/><path class="cls-3" d="M400.27,481.6a81,81,0,0,1,31.83,12.25c12.09,8,20.12,17.33,30.27,26.74.26.25-.11.67-.38.43-4.84-4.48-24.88-21.3-30.05-25.12a77.17,77.17,0,0,0-31.71-14.1A.1.1,0,0,1,400.27,481.6Z"/><path class="cls-3" d="M409.16,461.36c12.54,3.42,25.39,6.89,37,12.82,12.74,6.49,22.71,17.08,32.51,27.26q8.83,9.18,17.25,18.74c.23.26-.13.69-.38.42Q480.65,504.82,464.8,490A102.17,102.17,0,0,0,431,468.66c-7.17-2.73-14.55-4.91-21.91-7.08C409,461.54,409,461.32,409.16,461.36Z"/><path class="cls-3" d="M422.56,443.65c12.18,2.5,22.81,4.64,33.6,11.17,14.29,8.64,28.08,23.21,32.91,28.37,5.35,5.71,10.5,11.58,15.56,17.54.2.24-.21.61-.43.37A403.66,403.66,0,0,0,467,464.28a80.46,80.46,0,0,0-20.78-13.51c-7.59-3.27-15.71-5.12-23.71-7A0,0,0,1,1,422.56,443.65Z"/><path class="cls-5" d="M259.08,409.33l-91.55-3.89s-16.63-45.36-22.74-85.63S173,294,207,337.36,259.08,409.33,259.08,409.33Z"/><path class="cls-6" d="M169.64,324.84a4.05,4.05,0,0,1-1.75.89,3.54,3.54,0,0,1-3.27-1,4.56,4.56,0,0,0-5-.86,4.5,4.5,0,0,0-1.87,1.64c-.43.64-.89,1.23-1.27,1.9.68-.38,1.27-.84,1.9-1.26a4.1,4.1,0,0,1,1.75-.93,3.44,3.44,0,0,1,3.26.84,4.61,4.61,0,0,0,5,1,4.48,4.48,0,0,0,1.92-1.6c.42-.63.88-1.22,1.26-1.91C170.86,324,170.27,324.44,169.64,324.84Zm5,42.35c-.15-.73-.23-1.49-.44-2.23-.21.74-.3,1.5-.47,2.23a4.13,4.13,0,0,1-.57,1.9,3.43,3.43,0,0,1-2.9,1.7,4.46,4.46,0,0,0-4.51,5.29c.15.74.25,1.5.46,2.23.22-.73.3-1.49.45-2.23a3.84,3.84,0,0,1,.63-1.85,3.5,3.5,0,0,1,3-1.6,4.57,4.57,0,0,0,4.19-2.95A4.39,4.39,0,0,0,174.65,367.19Zm65,34.06a2.05,2.05,0,0,1-.08.19,3.43,3.43,0,0,1-2.93,1.7,4.63,4.63,0,0,0-4.25,2.8,4.05,4.05,0,0,0-.3,2.26l1,0a4.16,4.16,0,0,1,.59-1.64,3.48,3.48,0,0,1,3-1.63,4.61,4.61,0,0,0,3.61-1.83v0C240.12,402.51,239.91,401.88,239.7,401.25Zm-38,3.89a4.1,4.1,0,0,1-1.75.93,3.42,3.42,0,0,1-3.24-.86,4.6,4.6,0,0,0-5-1,4.44,4.44,0,0,0-1.94,1.61,4.09,4.09,0,0,1-.42.58l1.05.05a4.35,4.35,0,0,1,1.75-.87,3.6,3.6,0,0,1,3.27,1,.4.4,0,0,0,.12.11l5.75.23a5.22,5.22,0,0,0,1-1.09c.42-.64.89-1.23,1.27-1.9C203,404.26,202.36,404.72,201.73,405.14Zm16.77-47.45a4,4,0,0,1-1.84-.61,3.47,3.47,0,0,1-1.6-3,4.58,4.58,0,0,0-2.95-4.19,4.64,4.64,0,0,0-2.48-.17c-.76.17-1.5.26-2.25.47.75.21,1.49.29,2.25.44a4.29,4.29,0,0,1,1.87.57,3.46,3.46,0,0,1,1.71,2.92,4.58,4.58,0,0,0,2.8,4.26,4.24,4.24,0,0,0,2.49.23c.75-.15,1.49-.23,2.23-.44C220,358,219.25,357.86,218.5,357.69Z"/><path class="cls-3" d="M164.4,385.57c19.8-.51,39.67.37,59.46,1.64q8.4.54,16.77,1.47c.16,0,.18.25,0,.25-9.89.05-19.78-.31-29.68-.62s-19.85-.69-29.76-1.27c-5.6-.33-11.19-.65-16.78-1.09C164.18,385.93,164.16,385.58,164.4,385.57Z"/><path class="cls-3" d="M246.76,408.81l-79.23-3.37s-16.64-45.37-22.74-85.63c-2.6-17.15,2.12-24.37,11-23.67h0Z"/><path class="cls-5" d="M225.75,547.58H1.94S50.55,359.85,95.55,307c1-1.22,2-2.37,3.08-3.45.22-.25.4-.43.61-.64a48.09,48.09,0,0,1,12-9.3c.79-.43,1.58-.82,2.4-1.18,17.33-8,35.63-1.36,48.84,9.94,4.19,3.59,51.63,65.3,55.83,88.84C222,412,207.92,434.3,207.92,434.3Z"/><path class="cls-6" d="M125.79,349.71a3.89,3.89,0,0,1-1.83-.61,3.42,3.42,0,0,1-1.6-3,4.49,4.49,0,0,0-5.44-4.36c-.76.15-1.49.25-2.23.46.74.19,1.47.3,2.23.45a4.12,4.12,0,0,1,1.88.57,3.41,3.41,0,0,1,1.7,2.9,4.65,4.65,0,0,0,2.8,4.28,4.34,4.34,0,0,0,2.49.23c.76-.15,1.49-.23,2.25-.44C127.28,350,126.55,349.86,125.79,349.71Zm41.3,147.74a4.27,4.27,0,0,1-1.83-.63,3.44,3.44,0,0,1-1.6-3,4.45,4.45,0,0,0-5.44-4.34c-.76.15-1.49.23-2.23.44.74.21,1.47.3,2.23.44a5,5,0,0,1,1.88.57,3.46,3.46,0,0,1,1.7,2.93,4.61,4.61,0,0,0,2.8,4.25,4.54,4.54,0,0,0,2.49.26c.76-.17,1.49-.26,2.25-.47C168.58,497.68,167.85,497.6,167.09,497.45ZM67.22,411.52a3.89,3.89,0,0,1-1.83-.61,3.53,3.53,0,0,1-1.62-3,4.54,4.54,0,0,0-2.93-4.19,4.67,4.67,0,0,0-2.49-.17c-.75.15-1.49.26-2.25.45.76.21,1.5.31,2.25.46a4.12,4.12,0,0,1,1.88.57,3.47,3.47,0,0,1,1.7,2.9,4.59,4.59,0,0,0,2.81,4.28,4.19,4.19,0,0,0,2.48.23c.76-.15,1.5-.25,2.23-.44C68.72,411.78,68,411.67,67.22,411.52Zm88.22,135.36a4.35,4.35,0,0,1-1.85-.61,3.53,3.53,0,0,1-1.6-3,4.49,4.49,0,0,0-5.44-4.36c-.73.14-1.49.25-2.23.44.74.21,1.5.31,2.23.46a4.26,4.26,0,0,1,1.9.57,3.48,3.48,0,0,1,1.71,2.91,4.56,4.56,0,0,0,2.78,4.27l.06,0h3.56a8.76,8.76,0,0,0,1.11-.23C156.94,547.13,156.18,547,155.44,546.88ZM112,474.16a4.61,4.61,0,0,1-1.83-.63,3.49,3.49,0,0,1-1.6-3,4.53,4.53,0,0,0-3-4.17,4.44,4.44,0,0,0-2.48-.16c-.76.14-1.5.23-2.23.44.73.21,1.47.29,2.23.44a4.74,4.74,0,0,1,1.87.57,3.45,3.45,0,0,1,1.71,2.93,4.61,4.61,0,0,0,2.8,4.25,4.41,4.41,0,0,0,2.48.25c.76-.17,1.5-.25,2.26-.46C113.49,474.39,112.75,474.31,112,474.16ZM3.68,541.63a.37.37,0,0,1-.15,0h0c-.08.34-.17.68-.25,1a2.61,2.61,0,0,0,.42,0c.74-.17,1.48-.25,2.23-.46A22.58,22.58,0,0,0,3.68,541.63Zm28-54.27a3.89,3.89,0,0,1-1.83-.61,3.45,3.45,0,0,1-1.6-3,4.49,4.49,0,0,0-5.44-4.36l-1.32.25-.13.38c.48.11,1,.17,1.45.28a4.25,4.25,0,0,1,1.88.56,3.48,3.48,0,0,1,1.7,2.91,4.6,4.6,0,0,0,2.8,4.28,4.33,4.33,0,0,0,2.49.23c.76-.15,1.5-.23,2.23-.44C33.15,487.62,32.41,487.51,31.65,487.36ZM149,413.31a4.31,4.31,0,0,1-1.86-.63,3.51,3.51,0,0,1-1.6-3,4.53,4.53,0,0,0-2.95-4.17,4.45,4.45,0,0,0-2.48-.17c-.74.15-1.5.23-2.23.45.73.21,1.49.29,2.23.44a4.77,4.77,0,0,1,1.9.57,3.48,3.48,0,0,1,1.68,2.92,4.63,4.63,0,0,0,2.8,4.26,4.49,4.49,0,0,0,2.51.25c.73-.17,1.49-.25,2.23-.46C150.49,413.55,149.73,413.46,149,413.31Zm61.72,38.76a4.6,4.6,0,0,1-1.62-.59,3.53,3.53,0,0,1-1.6-3,4.55,4.55,0,0,0-2.95-4.19,4.62,4.62,0,0,0-2.48-.14c-.74.14-1.48.23-2.23.44.75.21,1.49.29,2.23.44a4.73,4.73,0,0,1,1.89.57,3.49,3.49,0,0,1,1.71,2.93,4.56,4.56,0,0,0,2.78,4.25,4.37,4.37,0,0,0,2.42.25Zm-9-46.93a4.1,4.1,0,0,1-1.75.93,3.42,3.42,0,0,1-3.24-.86,4.6,4.6,0,0,0-5-1,4.44,4.44,0,0,0-1.94,1.61c-.42.63-.88,1.22-1.26,1.89.67-.38,1.26-.84,1.89-1.26a4.35,4.35,0,0,1,1.75-.87,3.6,3.6,0,0,1,3.27,1,4.52,4.52,0,0,0,5,.89,4.72,4.72,0,0,0,1.87-1.64c.42-.64.89-1.23,1.27-1.9C203,404.26,202.36,404.72,201.73,405.14ZM125.79,291.29c-.15-.69-.23-1.41-.4-2.1,0,0-.06,0-.09,0-.16.69-.25,1.41-.4,2.1a4.53,4.53,0,0,1-.56,1.9,3.5,3.5,0,0,1-2.93,1.68,4.66,4.66,0,0,0-4.26,2.8,4.48,4.48,0,0,0-.23,2.51c.15.74.23,1.49.44,2.23.22-.74.3-1.49.47-2.23a4,4,0,0,1,.61-1.85,3.47,3.47,0,0,1,3-1.6,4.61,4.61,0,0,0,4.19-3A4.56,4.56,0,0,0,125.79,291.29ZM108,422.56c-.14-.74-.23-1.47-.44-2.23-.21.76-.29,1.49-.46,2.23a4.26,4.26,0,0,1-.57,1.9,3.44,3.44,0,0,1-2.91,1.7,4.6,4.6,0,0,0-4.27,2.8,4.39,4.39,0,0,0-.23,2.49c.14.73.25,1.49.46,2.23.21-.74.29-1.5.44-2.23a4.15,4.15,0,0,1,.63-1.86,3.54,3.54,0,0,1,3-1.6,4.53,4.53,0,0,0,4.2-2.94A4.67,4.67,0,0,0,108,422.56Zm92.52,97.7c-.15-.76-.25-1.5-.46-2.26-.19.76-.3,1.5-.44,2.26a4.29,4.29,0,0,1-.57,1.87,3.46,3.46,0,0,1-2.91,1.71,4.56,4.56,0,0,0-4.27,2.8,4.29,4.29,0,0,0-.24,2.48c.15.74.24,1.5.45,2.24.21-.74.31-1.5.46-2.24a4.14,4.14,0,0,1,.61-1.85,3.57,3.57,0,0,1,3-1.6,4.46,4.46,0,0,0,4.36-5.41Zm-129.46-169c-.14-.76-.25-1.49-.44-2.25-.21.76-.31,1.49-.46,2.25a4.25,4.25,0,0,1-.57,1.88,3.58,3.58,0,0,1-2.21,1.62c-.32.63-.61,1.28-.91,1.94h.24a4.61,4.61,0,0,0,4.19-3A4.66,4.66,0,0,0,71.07,351.29Zm103.58,15.9c-.15-.73-.23-1.49-.44-2.23-.21.74-.3,1.5-.47,2.23a4.13,4.13,0,0,1-.57,1.9,3.43,3.43,0,0,1-2.9,1.7,4.46,4.46,0,0,0-4.51,5.29c.15.74.25,1.5.46,2.23.22-.73.3-1.49.45-2.23a3.84,3.84,0,0,1,.63-1.85,3.5,3.5,0,0,1,3-1.6,4.57,4.57,0,0,0,4.19-2.95A4.39,4.39,0,0,0,174.65,367.19ZM78.93,500.12c-.17-.73-.25-1.47-.46-2.23-.21.76-.3,1.5-.45,2.23a4.48,4.48,0,0,1-.56,1.9,3.53,3.53,0,0,1-2.93,1.71,4.58,4.58,0,0,0-4.26,2.78A4.45,4.45,0,0,0,70,509c.15.74.23,1.5.44,2.23.22-.73.3-1.49.47-2.23a4.1,4.1,0,0,1,.61-1.85,3.51,3.51,0,0,1,3-1.6,4.49,4.49,0,0,0,4.36-5.44Zm90.71-175.28a4.05,4.05,0,0,1-1.75.89,3.54,3.54,0,0,1-3.27-1,4.56,4.56,0,0,0-5-.86,4.5,4.5,0,0,0-1.87,1.64c-.43.64-.89,1.23-1.27,1.9.68-.38,1.27-.84,1.9-1.26a4.1,4.1,0,0,1,1.75-.93,3.44,3.44,0,0,1,3.26.84,4.61,4.61,0,0,0,5,1,4.48,4.48,0,0,0,1.92-1.6c.42-.63.88-1.22,1.26-1.91C170.86,324,170.27,324.44,169.64,324.84Zm-60.43,54.74a3.84,3.84,0,0,1-1.74.86,3.54,3.54,0,0,1-3.27-1,4.51,4.51,0,0,0-5-.88,4.6,4.6,0,0,0-1.88,1.64c-.42.63-.88,1.22-1.26,1.89.67-.38,1.26-.84,1.9-1.26a4.78,4.78,0,0,1,1.74-.93,3.54,3.54,0,0,1,3.27.87,4.58,4.58,0,0,0,5,1,4.41,4.41,0,0,0,1.92-1.6c.42-.63.88-1.22,1.26-1.9C110.44,378.69,109.85,379.16,109.21,379.58ZM68.27,460.19a4.06,4.06,0,0,1-1.72.89,3.55,3.55,0,0,1-3.27-1,4.6,4.6,0,0,0-5.05-.87,4.55,4.55,0,0,0-1.88,1.65c-.42.63-.88,1.22-1.26,1.89.67-.38,1.26-.84,1.92-1.26a4,4,0,0,1,1.72-.93,3.43,3.43,0,0,1,3.27.85,4.66,4.66,0,0,0,5,1.05,4.49,4.49,0,0,0,1.94-1.6c.42-.63.88-1.22,1.26-1.92C69.52,459.31,68.93,459.79,68.27,460.19ZM86,544a4.34,4.34,0,0,1-1.75.89,3.56,3.56,0,0,1-3.27-1,4.48,4.48,0,0,0-6.93.78c-.4.63-.86,1.22-1.26,1.89.7-.38,1.29-.84,1.92-1.26a4.07,4.07,0,0,1,1.72-.93,3.45,3.45,0,0,1,3.27.84,4.64,4.64,0,0,0,5,1.06,4.49,4.49,0,0,0,1.94-1.6c.42-.64.88-1.23,1.26-1.92C87.21,543.09,86.62,543.57,86,544Zm79.2-92.05a4.14,4.14,0,0,1-1.75.86,3.49,3.49,0,0,1-3.26-1,4.57,4.57,0,0,0-5.05-.88,4.42,4.42,0,0,0-1.86,1.64c-.42.63-.88,1.22-1.28,1.9.69-.38,1.28-.85,1.91-1.27a4.64,4.64,0,0,1,1.73-.92,3.44,3.44,0,0,1,3.27.86,4.6,4.6,0,0,0,5,1,4.46,4.46,0,0,0,1.93-1.6c.43-.63.89-1.22,1.27-1.9C166.41,451,165.82,451.5,165.19,451.92ZM216.05,486a3.16,3.16,0,0,1-1.34-.86,4.66,4.66,0,0,0-5.06-.88,4.72,4.72,0,0,0-1.87,1.64c-.42.65-.89,1.24-1.27,1.92.68-.38,1.27-.85,1.9-1.27a4.52,4.52,0,0,1,1.75-.95,3.53,3.53,0,0,1,3.26.87,4.66,4.66,0,0,0,2.93,1.35ZM128,510.61a4.23,4.23,0,0,1-1.75.87,3.52,3.52,0,0,1-3.26-1,4.46,4.46,0,0,0-6.91.75c-.42.64-.88,1.23-1.26,1.9.67-.38,1.26-.84,1.89-1.26a4.6,4.6,0,0,1,1.73-.93,3.42,3.42,0,0,1,3.26.86,4.6,4.6,0,0,0,5,1,4.26,4.26,0,0,0,1.94-1.61c.42-.63.89-1.22,1.27-1.89C129.22,509.73,128.63,510.19,128,510.61ZM43.61,522.15a4.23,4.23,0,0,1-1.75.87,3.52,3.52,0,0,1-3.26-1,4.53,4.53,0,0,0-5-.89,4.38,4.38,0,0,0-1.88,1.65c-.42.63-.88,1.22-1.28,1.89.69-.38,1.28-.84,1.91-1.26a4.6,4.6,0,0,1,1.73-.93,3.47,3.47,0,0,1,3.27.86,4.6,4.6,0,0,0,5,1,4.33,4.33,0,0,0,1.93-1.6c.43-.64.89-1.23,1.27-1.9C44.83,521.27,44.24,521.73,43.61,522.15Z"/><path class="cls-3" d="M174.33,426.26a194.8,194.8,0,0,0-28.27,4.9c-4.6,1.22-9.11,2.65-13.62,4.18-2.24.76-4.5,1.45-6.77,2.12a30.78,30.78,0,0,1-7.29,1.44.17.17,0,0,0,0,.34,53.21,53.21,0,0,0,7-.19,50.9,50.9,0,0,0,6.68-1.32c4.68-1.2,9.3-2.61,14-3.85,9.42-2.51,18.82-5,28.4-6.84C174.9,427,174.78,426.21,174.33,426.26Z"/><path class="cls-3" d="M198,434.5a209.94,209.94,0,0,0-23.66-.93c-3.95.08-7.87.39-11.8.81q-2.82.3-5.62.68c-2.06.28-4.08.84-6.14,1.09-.21,0-.21.36,0,.34,2-.18,3.94,0,5.9-.09l5.89-.21c3.94-.13,7.88-.22,11.82-.39,7.88-.33,15.73-.59,23.62-.65C198.42,435.14,198.38,434.54,198,434.5Z"/><path class="cls-4" d="M91.15,312.05c-37.73,40.41-127.47,192.06-98.38,220,29.31,28.16,190.59-9.68,236-31.29,13.49-6.43-37.79-90.55-53.64-92.52-13.21-1.63-80.71,29.24-82.66,25.36-2.21-4.39,13.12-32.56,29.36-91.2C140.51,274.8,107.82,294.2,91.15,312.05Z"/><path class="cls-4" d="M242.11,381.11c32.8-4.57,41.92-.71,67.55-19.26,16.82-12.17,31.81-6.66,22.21,12.68C316.18,406.18,275.1,421,259.39,422Z"/><path class="cls-4" d="M155,412.68s36.85-20.46,71.32-28.79c23.83-5.75,77.08-12.5,128,40,12.09,12.47,20.47,38.79-6.66,25.61C328.42,440.17,319,428.41,306.83,425c0,0,6.68,34.76-6.27,46.38-5.8,5.19-21.93,19-36,27.95a68.28,68.28,0,0,1-5.83-6.28s-13.13,9.71-37.85,7.36Z"/><path class="cls-4" d="M249.94,382c11.4,5.94,35.34,18.94,51.22,36.39,17.65,19.37,46.42,61.45,32,74.33-10.59,9.44-23-5.66-23-5.66s8.22,19.9-3.21,26.34c-10.41,5.87-19.3-6.39-19.3-6.39s2.91,12.93-8.21,16.65c-13.37,4.47-17.29-23.36-34.75-30.53C240.77,491.55,249.94,382,249.94,382Z"/><path class="cls-3" d="M277.58,433.65c9.8,7.34,27.78,29.73,32.75,52.93.12.52-.22.89-.43.43a257.71,257.71,0,0,0-32.5-53.2C277.31,433.7,277.47,433.56,277.58,433.65Z"/><path class="cls-3" d="M258.54,452c7.8,7.2,25.3,31.11,29.53,54.79.1.53-.26.87-.45.41-10.34-25.94-23-46.33-29.27-55.05C258.26,452.06,258.44,451.93,258.54,452Z"/><path class="cls-3" d="M306.83,424.79c10.69,3.14,17.64,8.39,26.66,14.65a145.89,145.89,0,0,0,13.77,8.72c4.35,2.35,10.77,5.91,15.41,2.22,2.58-2.05,2.54-5.78,2-8.73a23.77,23.77,0,0,0-3.87-9.23c-.1-.14.14-.32.24-.18a31.8,31.8,0,0,1,4.42,7.9c.95,2.59,1.7,5.6,1,8.34-1.58,5.9-8.52,6.67-13.45,5a46.57,46.57,0,0,1-8.41-4.07c-2.59-1.49-5.11-3.1-7.58-4.77-5.08-3.43-10-7.15-15-10.64-5.54-3.84-9.36-5.71-15.29-8.91C306.47,425,306.62,424.72,306.83,424.79Z"/><path class="cls-3" d="M329.21,462.39c-2.76-6.1-17.74-31.48-22.6-37.35a.15.15,0,0,1,.22-.21c8.33,7.9,21.72,28.87,24.84,35.59s6.64,15.13,6.64,22.53c0,11.17-7.41,13.28-10.15,13.83a14.49,14.49,0,0,1-9.5-1.56c-3.27-1.69-6.43-5.2-8.61-8.09-.12-.15.08-.36.22-.21,3.87,4.4,10.29,8.74,16.36,7.94a10.13,10.13,0,0,0,6.91-3.72c1.89-2.57,2-5.94,1.78-9C334.74,475.22,332.05,468.65,329.21,462.39Z"/><path class="cls-3" d="M288.07,506.82c1.56,1.33,4.76,6,9.85,6.95,3.72.72,7.61.37,10.47-2.34s3.85-6.4,4-10.16c.1-2.12-1.59-11.28-2.34-14-.05-.22.22-.31.29-.11,1.61,4.93,3.35,10.29,3.35,15.12,0,4-1.27,8.33-4.28,11.13a11.41,11.41,0,0,1-11.68,2.43c-2-.75-8.28-4.77-10.1-8.75C287.61,507,288,506.76,288.07,506.82Z"/><path class="cls-3" d="M245.75,491.15a27.71,27.71,0,0,1,4.73,4c1.57,1.51,3.08,3.08,4.56,4.68a63.14,63.14,0,0,1,7.72,10.58c2.26,3.79,4.33,8,8,10.65a10.45,10.45,0,0,0,12.23.3,10.21,10.21,0,0,0,3.81-5.66,19.87,19.87,0,0,0,.72-7.62.15.15,0,1,1,.3,0c.18,2.35.82,4.53.54,6.92a12.25,12.25,0,0,1-2.18,5.88,11.68,11.68,0,0,1-11.41,4.26c-4.66-.86-8.08-4.37-10.61-8.16-2.83-4.22-5.15-8.73-8.16-12.83-1.59-2.16-3.14-4.34-4.88-6.38s-4-4-5.64-6.26A.21.21,0,0,1,245.75,491.15Z"/><path class="cls-3" d="M232.68,500.68a96.31,96.31,0,0,0,18-3.73c.19-.06.45.46.28.56a42.76,42.76,0,0,1-8.87,2.93,31.83,31.83,0,0,1-9.34.57C232.55,501,232.48,500.7,232.68,500.68Z"/><path class="cls-3" d="M31.35,463.11a236,236,0,0,1,29.69-17,228.71,228.71,0,0,1,31.5-12.21c6.14-1.95,12.35-3.59,18.56-5.28.19-.05.26.24.08.3a294.45,294.45,0,0,0-31.83,12Q63.84,447.6,48.6,454.84c-5.75,2.74-11.37,5.74-17,8.67A.23.23,0,0,1,31.35,463.11Z"/><path class="cls-5" d="M13.88,407.36l91.58-3s17.05-45.21,23.54-85.42S102.55,291,68.16,334,13.88,407.36,13.88,407.36Z"/><path class="cls-6" d="M36.85,381.47a3.89,3.89,0,0,1-1.75.87,3.42,3.42,0,0,1-3.11-.87c-.36.51-.74,1-1.08,1.52a4.54,4.54,0,0,0,4.64.71,4.17,4.17,0,0,0,1.93-1.58c.42-.65.89-1.24,1.27-1.91C38.07,380.59,37.48,381.05,36.85,381.47Zm72.36-1.89a3.84,3.84,0,0,1-1.74.86,3.54,3.54,0,0,1-3.27-1,4.51,4.51,0,0,0-5-.88,4.6,4.6,0,0,0-1.88,1.64c-.42.63-.88,1.22-1.26,1.89.67-.38,1.26-.84,1.9-1.26a4.78,4.78,0,0,1,1.74-.93,3.54,3.54,0,0,1,3.27.87,4.58,4.58,0,0,0,5,1,4.41,4.41,0,0,0,1.92-1.6c.42-.63.88-1.22,1.26-1.9C110.44,378.69,109.85,379.16,109.21,379.58ZM71.07,351.29c-.14-.76-.25-1.49-.44-2.25-.21.76-.31,1.49-.46,2.25a4.25,4.25,0,0,1-.57,1.88,3.47,3.47,0,0,1-2.91,1.7,4.64,4.64,0,0,0-4.27,2.8,4.25,4.25,0,0,0-.23,2.49c.14.76.25,1.49.46,2.25.19-.76.3-1.49.44-2.25a3.9,3.9,0,0,1,.63-1.83,3.39,3.39,0,0,1,3-1.6,4.61,4.61,0,0,0,4.19-3A4.66,4.66,0,0,0,71.07,351.29Zm51.05-56.5h0a2.71,2.71,0,0,1-.69.08,4.66,4.66,0,0,0-4.26,2.8,4.48,4.48,0,0,0-.23,2.51c.15.74.23,1.49.44,2.23.22-.74.3-1.49.47-2.23a4,4,0,0,1,.61-1.85,3.47,3.47,0,0,1,3-1.6,4.59,4.59,0,0,0,2.82-1.06A8.74,8.74,0,0,0,122.12,294.79ZM79.88,320.46a4.39,4.39,0,0,0,1.75-1.56c.21-.31.44-.63.65-.92C81.48,318.78,80.68,319.62,79.88,320.46Zm-19,83.25a4.67,4.67,0,0,0-2.49-.17c-.75.15-1.49.26-2.25.45.76.21,1.5.31,2.25.46a4.12,4.12,0,0,1,1.88.57,3.4,3.4,0,0,1,.9.78l2-.07v0A4.48,4.48,0,0,0,60.84,403.71Zm61.52-57.62a4.49,4.49,0,0,0-5.44-4.36c-.76.15-1.49.25-2.23.46.74.19,1.47.3,2.23.45a4.12,4.12,0,0,1,1.88.57,3.41,3.41,0,0,1,1.7,2.9,4.66,4.66,0,0,0,1.92,3.77c.15-.63.32-1.24.46-1.87A3.32,3.32,0,0,1,122.36,346.09Z"/><path class="cls-3" d="M101.69,404c.5,0,3.72-.57,3.73-.57.23-1.2,5.46-20.09,6.83-24.2,2.8-8.38,6.09-16.62,9.26-24.86a.22.22,0,0,1,.42.13c-2.07,7.09-4,14.23-6.13,21.3.64-1,1.28-2,1.88-3,1.24-2.1,2.32-4.28,3.48-6.42a.2.2,0,0,1,.35.16,36.26,36.26,0,0,1-4,8.42,32.46,32.46,0,0,1-2.38,3.24c-.18.58-.35,1.18-.54,1.76-1.3,4.14-8,24.59-8.35,24.61-.08,0-3.39.08-4.41.09C101.53,404.64,101.44,404,101.69,404Z"/><path class="cls-3" d="M28.7,389.63c19.75-1.48,39.63-1.57,59.47-1.28q8.42.13,16.82.65c.16,0,.19.24,0,.25-9.88.53-19.77.65-29.67.84s-19.86.28-29.79.19c-5.61-.06-11.21-.11-16.82-.28A.19.19,0,0,1,28.7,389.63Z"/><path class="cls-4" d="M122.93,295c.35,4,15.22,31.78,33,33.49,5.8.55,10.2-31,10.2-31l.86-2.25,12-31.57-34.78-30.07-5.07-4s-2.7,8.86-6,19.91c-.15.51-.31,1-.47,1.58s-.39,1.2-.55,1.79c-.51,1.64-1,3.33-1.5,5-.36,1.28-.73,2.53-1.06,3.89s-.71,2.68-1.08,4C125.14,279.25,122.8,293.34,122.93,295Z"/><path class="cls-3" d="M133.18,249.5A67.71,67.71,0,0,0,167,295.28l12-31.57-34.78-30.07-5.07-4S136.44,238.45,133.18,249.5Z"/><path class="cls-4" d="M221.6,198.4c16.16,57-16.16,73.11-28.46,76.58-11.16,3.15-49.57,12.46-71.52-42.57s-.56-80.56,24.59-89.12S205.45,141.39,221.6,198.4Z"/><path class="cls-3" d="M209.32,190.14a39.66,39.66,0,0,1-4.08.19c-1.57,0-2.82.26-4.21-.61a2.09,2.09,0,0,1-.64-2.49c.88-1.79,2.79-2.33,4.68-2.48a7.7,7.7,0,0,1,5.34,1.42C212,187.31,211.15,189.88,209.32,190.14Z"/><path class="cls-3" d="M174.16,207.71c1.35-.37,2.53-.93,3.83-1.42,1.47-.57,2.7-.86,3.64-2.2a2.1,2.1,0,0,0-.38-2.54c-1.52-1.3-3.48-1.06-5.28-.46a7.75,7.75,0,0,0-4.37,3.39C170.55,206.16,172.37,208.19,174.16,207.71Z"/><path class="cls-3" d="M184,213.54c-.07-.14-.25.27-.2.43,1.23,3.84,2,8.45-1.16,10.74-.09.07,0,.26.1.21C186.86,223.09,185.79,217,184,213.54Z"/><path class="cls-3" d="M179.39,210.47c-6.37,1.31-3.3,14,2.61,12.75S184.74,209.38,179.39,210.47Z"/><path class="cls-3" d="M177.07,211.75c-.93,1-1.71,2.51-3,3-1.5.53-3-.51-4.31-1.54-.13-.11-.21,0-.18.2.56,2.43,2.09,4.69,4.78,4.42,2.45-.24,3.63-2.8,3.65-5.39C178,211.92,177.44,211.35,177.07,211.75Z"/><path class="cls-3" d="M205.75,206.52c0-.16.35.11.38.27.8,4,2.38,8.36,6.24,8.83.12,0,.16.21,0,.22C207.91,216.25,205.87,210.39,205.75,206.52Z"/><path class="cls-3" d="M208.29,201.59c6.21-2,9.68,10.59,3.93,12.41S203.09,203.24,208.29,201.59Z"/><path class="cls-3" d="M211.14,201.7c1.18.39,2.49,1.32,3.7,1.07,1.4-.28,2-1.92,2.55-3.47.06-.16.19-.08.24.09.72,2.38.62,5.09-1.56,6.19-2,1-4.1-.63-5.33-2.86C210.51,202.31,210.67,201.54,211.14,201.7Z"/><path class="cls-3" d="M191.66,242.83c1.13.74,2.33,1.84,3.79,1.68a10.88,10.88,0,0,0,4.06-1.83.14.14,0,0,1,.21.17,5.44,5.44,0,0,1-4.6,3.13c-1.86,0-3.05-1.34-3.8-2.89C191.21,242.87,191.5,242.72,191.66,242.83Z"/><path class="cls-3" d="M204.26,226.62s2.3,5.64,3,8.39c.07.26-9.44,4.89-15.56-.77a.29.29,0,0,1,.32-.48c4.31,1.73,8.49,1.4,12.82.37,0-.82-4.25-9.52-3.83-9.66,1.48-.51,4.7-.25,6.62-.18-4.45-11.87-10.76-22.93-15-34.82a.39.39,0,0,1,.67-.36c7.44,11.13,12.86,24.67,17.76,36.81C211.68,227.43,205.48,226.81,204.26,226.62Z"/><path class="cls-3" d="M173.81,149.61s3.78,8.38,1.82,15.22c-4,14.06-20.31,13.27-24.8,19.32-4.22,5.67-.79,15.38-4.53,21-5.18,7.75-14.19,6.59-14.47,11.27s-.87,19.51-6.3,22.29S77.77,150.6,153.26,141c0,0,9.63-6.05,26.9-.57,20,6.34,32.58,34.64,32.58,34.64a26.62,26.62,0,0,0-4.33-3.21c-4.16-2.58-6-5.3-9-6.92-4.71-2.55-6.79-.94-11.65-3.37C180.3,157.86,173.81,149.61,173.81,149.61Z"/><path class="cls-3" d="M172,145.66a50.72,50.72,0,0,1,4.11,11.09c.94,3.78,1.42,7.82.28,11.42s-4.2,6.27-7.48,8.14-7.22,2.94-10.8,5.12a11.85,11.85,0,0,0-4.39,4.62,15.87,15.87,0,0,0-1.24,6.13c-.15,4-.32,7.91-2.41,11.08a13.19,13.19,0,0,1-9.35,5.91c-3.77.64-8.13.28-11.54,2.56,3.59-2,7.67-1.29,11.66-1.65a14.33,14.33,0,0,0,10.42-6c2.57-3.47,2.7-7.94,2.92-11.78a14.25,14.25,0,0,1,1.15-5.45,10.06,10.06,0,0,1,3.79-3.82c3.18-2,7.09-3.16,10.63-5.23a20.6,20.6,0,0,0,4.86-3.82,12.45,12.45,0,0,0,3.17-5.38c1.08-4.1.36-8.26-.77-12.08A51.42,51.42,0,0,0,172,145.66Z"/><path class="cls-3" d="M174,148.83a41.27,41.27,0,0,0,5.37,9.72,19.38,19.38,0,0,0,8.91,7,27.7,27.7,0,0,0,5.52,1.14,9.08,9.08,0,0,1,4.51,2,27.86,27.86,0,0,0,4,3.88,12.38,12.38,0,0,0,5.23,2,13.68,13.68,0,0,1-4.66-2.7,28.38,28.38,0,0,1-3.52-4.14,9.62,9.62,0,0,0-5.21-2.77,30.53,30.53,0,0,1-5.23-1.17,20.74,20.74,0,0,1-8.38-6.2A81.88,81.88,0,0,1,174,148.83Z"/><path class="cls-5" d="M116,222.32S93.25,179,117.88,153.79c25.54-26.09,61.16-16.5,61.16-16.5s-38.72,2.42-54.77,23.4C105.6,185.12,116,222.32,116,222.32Z"/><path class="cls-1" d="M178.73,235.88a18.77,18.77,0,1,1,14.21-26h0a18.8,18.8,0,0,1-14.21,26Zm-5.6-34.58a16.26,16.26,0,1,0,17.51,9.57A16.14,16.14,0,0,0,173.13,201.3Z"/><path class="cls-1" d="M220.09,223.87c-7.09,1.15-14.7-5.07-17.38-14.49a22.39,22.39,0,0,1,.23-13.7c1.54-4.23,4.41-7.13,8.07-8.17s7.63-.09,11.17,2.69a22.34,22.34,0,0,1,7.41,11.53c2.83,10-.9,19.76-8.3,21.87A8.63,8.63,0,0,1,220.09,223.87Zm-7.46-34.16a7.77,7.77,0,0,0-.93.21c-2.87.82-5.15,3.17-6.41,6.62a20,20,0,0,0-.17,12.15c2.46,8.62,9.38,14.24,15.48,12.5s9-10.15,6.57-18.77a19.83,19.83,0,0,0-6.54-10.25A10.33,10.33,0,0,0,212.63,189.71Z"/><path class="cls-1" d="M192.93,212.14l-2.08-1.41c2.09-3.08,7.54-8,13.29-4.51l-1.3,2.15C197.7,205.26,193.13,211.86,192.93,212.14Z"/><path class="cls-1" d="M110.58,240.36l-2.46-.5c.24-1.14,2.42-11.27,7.56-13.68,4.81-2.23,41.27-9.1,42.68-9.36l.45,2.47c-9.52,1.76-38.36,7.43-42.06,9.16C113.35,230,111.15,237.59,110.58,240.36Z"/><path class="cls-4" d="M130.91,229.9s-16.19-15.72-23.56-9.61,7.23,30.6,17.6,32.35,12.17-7.82,12.17-7.82Z"/><path class="cls-3" d="M111.71,227.2a.14.14,0,0,0,0,.27c7.31,1.45,12.09,7.05,15.84,13.1-2.5-2.13-5.51-3-8.41.07-.15.16.07.41.25.33,2.67-1.13,4.76-1,7.07.83a29.6,29.6,0,0,1,4.22,4.78c.44.55,1.47,0,1.1-.64a1.09,1.09,0,0,0-.08-.15C130.21,237.11,121.17,226.29,111.71,227.2Z"/><path class="cls-4" d="M93.55,307.46s40.86,29.31,64.2,26.27S179,308.1,179,308.1s-23.38-20.46-51-19.17C108.11,289.86,93.55,307.46,93.55,307.46Z"/><rect class="cls-7" x="216.38" y="533.54" width="234.18" height="10.5"/><rect class="cls-3" x="216.38" y="533.54" width="117.86" height="10.5"/><polygon class="cls-7" points="331.51 544.03 559.73 544.03 591.98 389.03 363.75 389.03 331.51 544.03"/><path class="cls-6" d="M444.05,470a13.44,13.44,0,0,0,13.61,15.21A17.31,17.31,0,0,0,474.47,470a13.44,13.44,0,0,0-13.61-15.21A17.31,17.31,0,0,0,444.05,470Z"/><path class="cls-8" d="M903.47,314.57c0-3.41.45-12.48.45-16.34,0-16.57-5.9-24.07-21.34-24.52C875.32,273.26,871,269,871,262.82s4.31-10.44,11.57-10.9c15.44-.68,21.34-7.94,21.34-24.74,0-3.86-.45-12.94-.45-16.34,0-22,9.3-36.1,44.48-43.81,7-1.59,12.49,2.72,12.49,9.31a9.55,9.55,0,0,1-6.36,9.3c-22,6.81-25.19,13.85-25.19,29.28,0,4.54.45,12,.45,16.8,0,17.7-8.62,26.33-23.61,31.1,15.21,5,23.61,13.39,23.61,31.09,0,4.77-.45,12.26-.45,16.8,0,15.44,3.18,22.47,25.19,29.28a9.55,9.55,0,0,1,6.36,9.31c0,6.58-5.45,10.89-12.49,9.31C912.77,350.89,903.47,336.81,903.47,314.57Z"/><path class="cls-8" d="M1036.48,210.84c0,3.4-.46,12.48-.46,16.34,0,16.8,6.13,24.06,21.57,24.74,7,.46,11.35,4.77,11.35,10.9s-4.31,10.44-11.35,10.89c-15.44.45-21.57,8-21.57,24.52,0,3.86.46,12.93.46,16.34,0,22.24-9.31,36.32-44.49,44-7,1.58-12.48-2.73-12.48-9.31a9.44,9.44,0,0,1,6.58-9.31c21.79-6.81,25-13.84,25-29.28,0-4.54-.46-12-.46-16.8,0-17.7,8.63-26.33,23.61-31.09-15.21-5-23.61-13.4-23.61-31.1,0-4.77.46-12.26.46-16.8,0-15.43-3.18-22.47-25-29.28a9.43,9.43,0,0,1-6.58-9.3c0-6.59,5.44-10.9,12.48-9.31C1027.17,174.74,1036.48,188.82,1036.48,210.84Z"/><rect class="cls-7" x="664.47" y="92.86" width="610.06" height="384.9"/><rect class="cls-5" x="664.47" y="92.86" width="610.06" height="33.9"/><path class="cls-2" d="M696.3,110.06a8.54,8.54,0,1,1-8.53-8.53A8.53,8.53,0,0,1,696.3,110.06Z"/><circle class="cls-8" cx="722.61" cy="110.06" r="8.53"/><path class="cls-6" d="M766,110.06a8.53,8.53,0,1,1-8.53-8.53A8.53,8.53,0,0,1,766,110.06Z"/><rect class="cls-8" x="700.84" y="194.21" width="18.13" height="6.62"/><rect class="cls-8" x="732.18" y="194.21" width="238.23" height="6.62"/><rect class="cls-8" x="1132.07" y="194.21" width="71.41" height="6.62"/><rect class="cls-5" x="981.54" y="194.21" width="34.43" height="6.62"/><rect class="cls-8" x="1036.64" y="282.8" width="34.43" height="6.62"/><rect class="cls-2" x="1026.18" y="194.21" width="96.99" height="6.62"/><rect class="cls-8" x="718.97" y="211.93" width="18.12" height="6.62"/><rect class="cls-2" x="749.85" y="211.93" width="136.45" height="6.62"/><rect class="cls-2" x="976.85" y="282.8" width="51.61" height="6.62"/><rect class="cls-2" x="732.18" y="265.08" width="130.33" height="6.62"/><rect class="cls-5" x="749.85" y="229.65" width="91.43" height="6.62"/><rect class="cls-2" x="1004.57" y="247.36" width="91.43" height="6.62"/><rect class="cls-2" x="851.42" y="229.65" width="176.32" height="6.62"/><rect class="cls-5" x="732.18" y="282.8" width="232.88" height="6.62"/><rect class="cls-5" x="1019.62" y="211.93" width="131.92" height="6.62"/><rect class="cls-8" x="894.86" y="211.93" width="117.27" height="6.62"/><rect class="cls-8" x="1042.51" y="229.65" width="39.6" height="6.62"/><rect class="cls-8" x="718.97" y="229.65" width="18.12" height="6.62"/><rect class="cls-2" x="700.84" y="247.36" width="18.13" height="6.62"/><rect class="cls-8" x="732.18" y="247.36" width="107.12" height="6.62"/><rect class="cls-8" x="749.85" y="300.52" width="107.12" height="6.62"/><rect class="cls-5" x="930.3" y="318.24" width="118.91" height="6.62"/><rect class="cls-5" x="865.66" y="300.52" width="137.74" height="6.62"/><rect class="cls-8" x="797.11" y="318.24" width="123.82" height="6.62"/><rect class="cls-2" x="749.85" y="318.24" width="40.27" height="6.62"/><rect class="cls-2" x="1060.73" y="318.24" width="31.02" height="6.62"/><rect class="cls-8" x="869.88" y="265.08" width="146.09" height="6.62"/><rect class="cls-5" x="1023.46" y="265.08" width="111.14" height="6.62"/><rect class="cls-5" x="850.19" y="247.36" width="145.95" height="6.62"/><rect class="cls-8" x="700.84" y="265.08" width="18.13" height="6.62"/><rect class="cls-8" x="700.84" y="282.8" width="18.13" height="6.62"/><rect class="cls-2" x="718.97" y="300.52" width="18.12" height="6.62"/><rect class="cls-2" x="1013.7" y="300.52" width="88.09" height="6.62"/><rect class="cls-2" x="1030.62" y="332.93" width="88.09" height="6.62"/><rect class="cls-8" x="718.97" y="318.24" width="18.12" height="6.62"/><rect class="cls-8" x="700.84" y="333.08" width="18.13" height="6.62"/><rect class="cls-8" x="732.18" y="333.08" width="212.53" height="6.62"/><rect class="cls-8" x="1133.48" y="333.08" width="68.58" height="6.62"/><rect class="cls-5" x="956.05" y="333.08" width="59.93" height="6.62"/><rect class="cls-8" x="718.97" y="350.8" width="18.12" height="6.62"/><rect class="cls-2" x="749.85" y="350.8" width="136.45" height="6.62"/><rect class="cls-2" x="732.18" y="403.96" width="130.33" height="6.62"/><rect class="cls-5" x="749.85" y="368.52" width="91.43" height="6.62"/><rect class="cls-2" x="851.42" y="368.52" width="176.32" height="6.62"/><rect class="cls-5" x="732.18" y="421.68" width="232.88" height="6.62"/><rect class="cls-5" x="1019.62" y="350.8" width="131.92" height="6.62"/><rect class="cls-8" x="894.86" y="350.8" width="117.27" height="6.62"/><rect class="cls-8" x="1036.64" y="368.52" width="39.6" height="6.62"/><rect class="cls-8" x="718.97" y="368.52" width="18.12" height="6.62"/><rect class="cls-2" x="700.84" y="386.24" width="18.13" height="6.62"/><rect class="cls-8" x="732.18" y="386.24" width="107.12" height="6.62"/><rect class="cls-2" x="1008.75" y="386.24" width="107.12" height="6.62"/><rect class="cls-8" x="869.88" y="403.96" width="200.61" height="6.62"/><rect class="cls-5" x="850.19" y="386.24" width="145.95" height="6.62"/><rect class="cls-8" x="700.84" y="403.96" width="18.13" height="6.62"/><path class="cls-5" d="M712,176.77a1.58,1.58,0,0,1,0,2.24,1.56,1.56,0,0,1-1.09.45,1.65,1.65,0,0,1-1.15-.45l-7-7.09c-.07,0-.1-.07-.12-.15a.28.28,0,0,0-.08-.05.48.48,0,0,1-.07-.2.13.13,0,0,1-.08-.1s0-.12-.05-.15,0-.1,0-.12V171c0-.05,0-.07,0-.14s0-.11,0-.13v-.17c0-.05,0-.08,0-.1a1.94,1.94,0,0,0,.05-.2s0,0,0,0a1.61,1.61,0,0,1,.12-.23,0,0,0,0,1,0,0,.57.57,0,0,1,.15-.17l7-7.09a1.62,1.62,0,0,1,2.24,0,1.58,1.58,0,0,1,0,2.24l-5.89,6Z"/><path class="cls-5" d="M718.38,177.57l6.09-14.51a1.39,1.39,0,0,1,1.82-.72,1.34,1.34,0,0,1,.69,1.77l-6.09,14.53a1.39,1.39,0,0,1-1.27.82,1.27,1.27,0,0,1-.5-.1A1.34,1.34,0,0,1,718.38,177.57Z"/><path class="cls-5" d="M739,171.72a0,0,0,0,1,0,0c-.06,0-.1.13-.18.18l-7,7.09a1.62,1.62,0,0,1-2.24,0,1.58,1.58,0,0,1,0-2.24l5.9-5.94-5.9-6a1.58,1.58,0,0,1,0-2.24,1.62,1.62,0,0,1,2.24,0l7,7.09a1.49,1.49,0,0,1,.18.17s0,0,0,0,.1.15.13.23,0,0,0,0a.9.9,0,0,0,.07.22s0,0,0,.08v.17s0,.1,0,.13,0,.09,0,.12v.2s0,0,0,0a1.28,1.28,0,0,0-.07.22s0,0,0,.08S739.07,171.62,739,171.72Z"/><path class="cls-5" d="M548.48,354.31c-27.31,0-48.7-57.32-48.7-130.49s21.39-130.5,48.7-130.5,48.71,57.32,48.71,130.5S575.8,354.31,548.48,354.31Zm0-252.52c-19.43,0-40.23,49-40.23,122s20.8,122,40.23,122,40.24-49,40.24-122S567.92,101.79,548.48,101.79Z"/><path class="cls-5" d="M466.78,302c-15.53,0-26.38-4.39-31.3-12.93-6.91-12-1-29.93,16.75-50.59,16.76-19.55,42.29-39.74,71.9-56.83S584,152.52,609.3,147.78c26.75-5,45.29-1.17,52.19,10.79s1,29.93-16.75,50.59C628,228.72,602.45,248.9,572.84,266S513,295.11,487.67,299.85A115,115,0,0,1,466.78,302ZM630.44,154.07a108.06,108.06,0,0,0-19.58,2c-24.4,4.57-53.69,16.24-82.49,32.87s-53.56,36.16-69.71,55c-15,17.47-20.75,32.36-15.85,40.85s20.68,10.93,43.3,6.7c24.39-4.57,53.69-16.24,82.49-32.87s53.56-36.16,69.71-55c15-17.47,20.75-32.36,15.85-40.85C650.84,157.05,642.51,154.07,630.44,154.07Z"/><path class="cls-5" d="M630.19,302a115,115,0,0,1-20.89-2.14C584,295.11,553.74,283.09,524.13,266s-55.14-37.27-71.9-56.83c-17.71-20.66-23.66-38.63-16.75-50.59s25.44-15.79,52.19-10.79c25.31,4.74,55.56,16.76,85.17,33.86s55.14,37.28,71.9,56.83c17.71,20.66,23.66,38.63,16.75,50.59C656.57,297.6,645.72,302,630.19,302ZM466.53,154.07c-12.07,0-20.4,3-23.72,8.73-4.9,8.49.87,23.38,15.85,40.85,16.15,18.85,40.9,38.38,69.71,55s58.09,28.3,82.49,32.87c22.62,4.23,38.4,1.79,43.3-6.7s-.87-23.38-15.85-40.85c-16.15-18.85-40.9-38.38-69.71-55s-58.1-28.3-82.49-32.87A108.06,108.06,0,0,0,466.53,154.07Z"/><circle class="cls-5" cx="548.48" cy="223.82" r="19.16"/><polygon class="cls-5" points="1340.95 351.2 1242.55 514.18 1144.15 351.2 1217.36 351.2 1242.55 398.54 1267.74 351.2 1340.95 351.2"/><polygon class="cls-9" points="1303.22 351.2 1242.55 454.57 1181.88 351.2 1217.36 351.2 1242.55 398.54 1267.74 351.2 1303.22 351.2"/><polygon class="cls-5" points="1411.23 116.78 1384.7 266.56 1297.05 294.38 1209.41 266.56 1182.87 116.78 1297.05 61.04 1411.23 116.78"/><polygon class="cls-9" points="1297.05 282.46 1297.05 72.96 1399.44 122.95 1375.65 257.27 1297.05 282.46"/><path class="cls-6" d="M1287,117.73h20.23L1352,235.46h-23.55l-11-29.35h-41.12l-10.78,29.35h-23.55ZM1313.39,190l-16.26-46.26L1280.22,190Z"/><path class="cls-5" d="M1476.28,431.47a26,26,0,1,0-23.48-28.31A26,26,0,0,0,1476.28,431.47Zm-20.33-28a22.83,22.83,0,1,1,20.61,24.84A22.84,22.84,0,0,1,1456,403.46Zm20.33,28a26,26,0,1,0-23.48-28.31A26,26,0,0,0,1476.28,431.47Zm-20.33-28a22.83,22.83,0,1,1,20.61,24.84A22.84,22.84,0,0,1,1456,403.46Zm20.33,28a26,26,0,1,0-23.48-28.31A26,26,0,0,0,1476.28,431.47Zm-20.33-28a22.83,22.83,0,1,1,20.61,24.84A22.84,22.84,0,0,1,1456,403.46Zm17.65,56.69a54.82,54.82,0,1,0-49.48-59.65A54.83,54.83,0,0,0,1473.6,460.15Zm-24.83-57.36a30,30,0,1,1,27.13,32.69A30.08,30.08,0,0,1,1448.77,402.79Zm4,.37a26,26,0,1,0,28.28-23.49A26,26,0,0,0,1452.8,403.16Zm3.15.3a22.83,22.83,0,1,1,20.61,24.84A22.84,22.84,0,0,1,1456,403.46Zm20.33,28a26,26,0,1,0-23.48-28.31A26,26,0,0,0,1476.28,431.47Zm-20.33-28a22.83,22.83,0,1,1,20.61,24.84A22.84,22.84,0,0,1,1456,403.46Zm20.33,28a26,26,0,1,0-23.48-28.31A26,26,0,0,0,1476.28,431.47Zm-20.33-28a22.83,22.83,0,1,1,20.61,24.84A22.84,22.84,0,0,1,1456,403.46Z"/><polygon class="cls-5" points="1473.06 352.28 1494.05 354.23 1494.27 339.26 1475.6 337.53 1473.06 352.28"/><polygon class="cls-5" points="1512.35 363.06 1525.81 379.28 1536.54 368.85 1524.57 354.43 1512.35 363.06"/><polygon class="cls-5" points="1532.5 398.47 1530.55 419.45 1545.52 419.67 1547.25 401.01 1532.5 398.47"/><polygon class="cls-5" points="1521.72 437.75 1505.5 451.22 1515.93 461.95 1530.35 449.98 1521.72 437.75"/><polygon class="cls-5" points="1486.32 457.91 1465.33 455.96 1465.11 470.93 1483.77 472.66 1486.32 457.91"/><polygon class="cls-5" points="1447.03 447.13 1433.57 430.91 1422.83 441.33 1434.8 455.76 1447.03 447.13"/><polygon class="cls-5" points="1426.87 411.72 1428.82 390.74 1413.86 390.52 1412.12 409.18 1426.87 411.72"/><polygon class="cls-5" points="1437.65 372.43 1453.87 358.97 1443.45 348.24 1429.02 360.21 1437.65 372.43"/><g class="cls-10"><path d="M1476.28,431.47a26,26,0,1,0-23.48-28.31A26,26,0,0,0,1476.28,431.47Zm-20.33-28a22.83,22.83,0,1,1,20.61,24.84A22.84,22.84,0,0,1,1456,403.46Zm20.33,28a26,26,0,1,0-23.48-28.31A26,26,0,0,0,1476.28,431.47Zm-20.33-28a22.83,22.83,0,1,1,20.61,24.84A22.84,22.84,0,0,1,1456,403.46Zm20.33,28a26,26,0,1,0-23.48-28.31A26,26,0,0,0,1476.28,431.47Zm-20.33-28a22.83,22.83,0,1,1,20.61,24.84A22.84,22.84,0,0,1,1456,403.46Zm17.65,56.69a54.82,54.82,0,1,0-49.48-59.65A54.83,54.83,0,0,0,1473.6,460.15Zm-24.83-57.36a30,30,0,1,1,27.13,32.69A30.08,30.08,0,0,1,1448.77,402.79Zm4,.37a26,26,0,1,0,28.28-23.49A26,26,0,0,0,1452.8,403.16Zm3.15.3a22.83,22.83,0,1,1,20.61,24.84A22.84,22.84,0,0,1,1456,403.46Zm20.33,28a26,26,0,1,0-23.48-28.31A26,26,0,0,0,1476.28,431.47Zm-20.33-28a22.83,22.83,0,1,1,20.61,24.84A22.84,22.84,0,0,1,1456,403.46Zm20.33,28a26,26,0,1,0-23.48-28.31A26,26,0,0,0,1476.28,431.47Zm-20.33-28a22.83,22.83,0,1,1,20.61,24.84A22.84,22.84,0,0,1,1456,403.46Z"/><polygon points="1473.06 352.28 1494.05 354.23 1494.27 339.26 1475.6 337.53 1473.06 352.28"/><polygon points="1512.35 363.06 1525.81 379.28 1536.54 368.85 1524.57 354.43 1512.35 363.06"/><polygon points="1532.5 398.47 1530.55 419.45 1545.52 419.67 1547.25 401.01 1532.5 398.47"/><polygon points="1521.72 437.75 1505.5 451.22 1515.93 461.95 1530.35 449.98 1521.72 437.75"/><polygon points="1486.32 457.91 1465.33 455.96 1465.11 470.93 1483.77 472.66 1486.32 457.91"/><polygon points="1447.03 447.13 1433.57 430.91 1422.83 441.33 1434.8 455.76 1447.03 447.13"/><polygon points="1426.87 411.72 1428.82 390.74 1413.86 390.52 1412.12 409.18 1426.87 411.72"/><polygon points="1437.65 372.43 1453.87 358.97 1443.45 348.24 1429.02 360.21 1437.65 372.43"/></g><path class="cls-5" d="M1728.25,479.66a16.67,16.67,0,1,0-15-18.15A16.66,16.66,0,0,0,1728.25,479.66Zm-13-18a14.64,14.64,0,1,1,13.21,15.92A14.63,14.63,0,0,1,1715.22,461.71Zm13,18a16.67,16.67,0,1,0-15-18.15A16.66,16.66,0,0,0,1728.25,479.66Zm-13-18a14.64,14.64,0,1,1,13.21,15.92A14.63,14.63,0,0,1,1715.22,461.71Zm13,18a16.67,16.67,0,1,0-15-18.15A16.66,16.66,0,0,0,1728.25,479.66Zm-13-18a14.64,14.64,0,1,1,13.21,15.92A14.63,14.63,0,0,1,1715.22,461.71Zm11.31,36.34a35.14,35.14,0,1,0-31.72-38.24A35.15,35.15,0,0,0,1726.53,498.05Zm-15.92-36.77a19.26,19.26,0,1,1,17.39,21A19.3,19.3,0,0,1,1710.61,461.28Zm2.59.23a16.67,16.67,0,1,0,18.13-15.05A16.66,16.66,0,0,0,1713.2,461.51Zm2,.2a14.64,14.64,0,1,1,13.21,15.92A14.63,14.63,0,0,1,1715.22,461.71Zm13,18a16.67,16.67,0,1,0-15-18.15A16.66,16.66,0,0,0,1728.25,479.66Zm-13-18a14.64,14.64,0,1,1,13.21,15.92A14.63,14.63,0,0,1,1715.22,461.71Zm13,18a16.67,16.67,0,1,0-15-18.15A16.66,16.66,0,0,0,1728.25,479.66Zm-13-18a14.64,14.64,0,1,1,13.21,15.92A14.63,14.63,0,0,1,1715.22,461.71Z"/><polygon class="cls-5" points="1726.18 428.89 1739.64 430.14 1739.78 420.55 1727.81 419.44 1726.18 428.89"/><polygon class="cls-5" points="1751.37 435.81 1760 446.21 1766.88 439.52 1759.21 430.27 1751.37 435.81"/><polygon class="cls-5" points="1764.29 458.51 1763.04 471.96 1772.64 472.1 1773.75 460.13 1764.29 458.51"/><polygon class="cls-5" points="1757.38 483.69 1746.98 492.32 1753.66 499.21 1762.91 491.53 1757.38 483.69"/><polygon class="cls-5" points="1734.68 496.62 1721.23 495.37 1721.09 504.96 1733.05 506.07 1734.68 496.62"/><polygon class="cls-5" points="1709.49 489.7 1700.86 479.31 1693.98 485.99 1701.66 495.24 1709.49 489.7"/><polygon class="cls-5" points="1696.57 467 1697.82 453.55 1688.23 453.41 1687.12 465.38 1696.57 467"/><polygon class="cls-5" points="1703.48 441.82 1713.88 433.19 1707.2 426.3 1697.95 433.98 1703.48 441.82"/><g class="cls-11"><path class="cls-6" d="M1728.25,479.66a16.67,16.67,0,1,0-15-18.15A16.66,16.66,0,0,0,1728.25,479.66Zm-13-18a14.64,14.64,0,1,1,13.21,15.92A14.63,14.63,0,0,1,1715.22,461.71Zm13,18a16.67,16.67,0,1,0-15-18.15A16.66,16.66,0,0,0,1728.25,479.66Zm-13-18a14.64,14.64,0,1,1,13.21,15.92A14.63,14.63,0,0,1,1715.22,461.71Zm13,18a16.67,16.67,0,1,0-15-18.15A16.66,16.66,0,0,0,1728.25,479.66Zm-13-18a14.64,14.64,0,1,1,13.21,15.92A14.63,14.63,0,0,1,1715.22,461.71Zm11.31,36.34a35.14,35.14,0,1,0-31.72-38.24A35.15,35.15,0,0,0,1726.53,498.05Zm-15.92-36.77a19.26,19.26,0,1,1,17.39,21A19.3,19.3,0,0,1,1710.61,461.28Zm2.59.23a16.67,16.67,0,1,0,18.13-15.05A16.66,16.66,0,0,0,1713.2,461.51Zm2,.2a14.64,14.64,0,1,1,13.21,15.92A14.63,14.63,0,0,1,1715.22,461.71Zm13,18a16.67,16.67,0,1,0-15-18.15A16.66,16.66,0,0,0,1728.25,479.66Zm-13-18a14.64,14.64,0,1,1,13.21,15.92A14.63,14.63,0,0,1,1715.22,461.71Zm13,18a16.67,16.67,0,1,0-15-18.15A16.66,16.66,0,0,0,1728.25,479.66Zm-13-18a14.64,14.64,0,1,1,13.21,15.92A14.63,14.63,0,0,1,1715.22,461.71Z"/><polygon class="cls-6" points="1726.18 428.89 1739.64 430.14 1739.78 420.55 1727.81 419.44 1726.18 428.89"/><polygon class="cls-6" points="1751.37 435.81 1760 446.21 1766.88 439.52 1759.21 430.27 1751.37 435.81"/><polygon class="cls-6" points="1764.29 458.51 1763.04 471.96 1772.64 472.1 1773.75 460.13 1764.29 458.51"/><polygon class="cls-6" points="1757.38 483.69 1746.98 492.32 1753.66 499.21 1762.91 491.53 1757.38 483.69"/><polygon class="cls-6" points="1734.68 496.62 1721.23 495.37 1721.09 504.96 1733.05 506.07 1734.68 496.62"/><polygon class="cls-6" points="1709.49 489.7 1700.86 479.31 1693.98 485.99 1701.66 495.24 1709.49 489.7"/><polygon class="cls-6" points="1696.57 467 1697.82 453.55 1688.23 453.41 1687.12 465.38 1696.57 467"/><polygon class="cls-6" points="1703.48 441.82 1713.88 433.19 1707.2 426.3 1697.95 433.98 1703.48 441.82"/></g><path class="cls-3" d="M1532.47,485.25a68.66,68.66,0,1,0,70.45-66.83A68.66,68.66,0,0,0,1532.47,485.25Zm36.59,1a32.07,32.07,0,1,1,31.2,32.89A32.06,32.06,0,0,1,1569.06,486.22Z"/><polygon class="cls-3" points="1589.65 420.92 1616.05 421.62 1615.08 402.89 1591.61 402.27 1589.65 420.92"/><polygon class="cls-3" points="1639.66 431.14 1657.83 450.29 1670.38 436.37 1654.22 419.33 1639.66 431.14"/><polygon class="cls-3" points="1667.79 473.72 1667.09 500.12 1685.81 499.15 1686.43 475.67 1667.79 473.72"/><polygon class="cls-3" points="1657.57 523.72 1638.41 541.89 1652.33 554.45 1669.37 538.29 1657.57 523.72"/><polygon class="cls-3" points="1614.98 551.86 1588.59 551.16 1589.56 569.88 1613.03 570.5 1614.98 551.86"/><polygon class="cls-3" points="1564.98 541.64 1546.81 522.48 1534.26 536.4 1550.42 553.44 1564.98 541.64"/><polygon class="cls-3" points="1536.85 499.05 1537.55 472.66 1518.83 473.63 1518.21 497.1 1536.85 499.05"/><polygon class="cls-3" points="1547.07 449.05 1566.23 430.88 1552.31 418.32 1535.27 434.49 1547.07 449.05"/><path class="cls-3" d="M1619.35,470.23l-22.51-6.67-17,16.16,5.48,22.81,22.49,6.68,17-16.15Zm-17.22,23.59a7.44,7.44,0,1,1,7.63-7.24A7.43,7.43,0,0,1,1602.13,493.82Z"/><path class="cls-3" d="M1689.38,223.44c-12.83,15.17-35,20.8-54.31,21.79-19.71,1-41.86-1.06-59.59-10.19-7.78-4-14.91-9.75-19.37-17.19-4.81-8-5.3-16.32,0-23.69,4.3-5.93,13.61-10.1,13.69-15.59s-4.46-9.88-5.68-15.17c-2.06-9,3-15.73,9.49-21.5,15.36-13.7,11.43-32.07,21-49.21,5.42-9.76,20.65-27.67,47.47-19.08,10.2,3.27,17.1,12.49,21.17,22,4.77,11.2,1.12,25.78,7,36.56,5,9.18,12.51,10.73,17.3,20.36,2.07,4.18,3,9-1.58,18.77-1.67,3.52-3.46,8.9-2,13.14,2,5.86,9,8.63,11.29,14.75C1698.36,207.61,1695,216.76,1689.38,223.44Z"/><path class="cls-3" d="M1562.08,220.23c-9.21-1.6-13-14.16-7.1-20.47,3.75-4,9.34-5.79,13.11-9.78,6.19-6.55.81-12.61-2.42-19.17-7-14.22,2.9-23.62,13.34-32.2,7.91-6.52,9.6-14.09,10.23-23.84,0-.15-.25-.17-.27,0-.82,7.18-1.92,14.22-7.1,19.77-4.21,4.51-9.78,7.56-13.86,12.24-6.85,7.86-7.78,16.47-3.13,25.62,1.32,2.62,3.89,5.62,4.4,8.48,1.22,6.73-4,10.12-8.89,13.35-3.78,2.49-8,5.24-9.44,9.7-2.22,6.75,3.85,16,11,16.88C1562.31,220.83,1562.46,220.3,1562.08,220.23Z"/><path class="cls-3" d="M1567,227.16c-5.61-3.45-11.72-6.6-15-12.54-4.82-8.79,1.42-15.26,7.26-21.34,2.51-2.62,4.61-5.23,4.53-9-.11-5.59-4.2-10.35-4.81-15.91-1.44-13.27,12-21.06,18.82-30.66,7-9.81,9.38-21.38,12-32.81.06-.24-.33-.33-.39-.09-3.49,14.6-8.1,28.28-18.81,39.4-7.47,7.76-15.43,16.16-12.18,27.62.79,2.81,2.44,5.38,3.17,8.19,1.46,5.58-.13,9.16-3.92,13.07s-7.87,7.6-8.63,13c-1.47,10.5,9.12,17.66,17.44,21.84A.47.47,0,0,0,1567,227.16Z"/><path class="cls-3" d="M1697.79,195.93c-4.44-6.5-11.66-9.85-9.53-18.93,1.46-6.26,5.06-11.21,3.94-17.91-.94-5.54-4.44-9.9-8.6-13.63-5.29-4.75-11.17-8.62-14.95-14.73-4.13-6.67-5.88-14.4-7.68-21.87,0-.15-.3-.1-.27,0,1.84,10.15,4.14,20.56,11.73,28.3,4,4,8.83,7.15,12.75,11.23,7,7.34,6.78,15.19,3.42,24.05-1.54,4.06-2.92,8.15-1.12,12.39s5.79,6.92,8.53,10.5c11.65,15.18-7.35,33.53-22.71,35.83-.69.1-.64,1.14.07,1.06,11.48-1.38,23.85-11.22,26.69-22.2A17.22,17.22,0,0,0,1697.79,195.93Z"/><path class="cls-3" d="M1697.06,203.87c.07-6.67-4-10.47-7.18-15.78-4.91-8.36.66-16.3,1.56-25,.62-6-1.73-11.22-5.4-15.74-5-6.09-11.38-10.51-15.38-17.44a42.45,42.45,0,0,1-5.38-24.33c0-.16-.23-.14-.25,0a40.48,40.48,0,0,0,10,31.82c5,5.54,11.77,10.14,14.43,17.47,2.81,7.76-1.36,14.64-2.64,22.24a16.68,16.68,0,0,0,2.91,13c2,2.91,4.44,5.59,5.49,9.07,1.42,4.7.23,9.85-1.85,14.22-6.56,13.8-21.85,22.12-36.21,23.95-.51.06-.49.87,0,.81A50,50,0,0,0,1690.51,220C1694.1,215.43,1697,209.76,1697.06,203.87Z"/><path class="cls-12" d="M1622.88,162.64c-36.19,37.94-81.19,117.22-72.29,133,9.91,17.56,62.11-36.44,60.47-39-1.39-2.19,16.64-49.93,29.74-84.85S1631.83,153.26,1622.88,162.64Z"/><path class="cls-5" d="M1578.54,208.13l52,9.36s13-36.83,15.54-57.28c1.45-11.45-5.29-11.92-13.76-5.84C1602.64,175.69,1578.54,208.13,1578.54,208.13Z"/><path class="cls-6" d="M1613.44,180a18.41,18.41,0,0,0-1.65,4.92,17.56,17.56,0,0,0-.3,5.18,20.43,20.43,0,0,0,2-10.1Zm-27.08,21.77a22,22,0,0,0-2.57-.33,9,9,0,0,0-.7.85,24.79,24.79,0,0,0,3,.8,18.52,18.52,0,0,0,5.17.33A18.29,18.29,0,0,0,1586.36,201.81Zm54.91-28.08a18.94,18.94,0,0,0-3.45-3.9,19,19,0,0,0,2.32,4.67,24.8,24.8,0,0,0,2.47,3c.08-.34.18-.67.26-1v0A25,25,0,0,0,1641.27,173.73Zm-21.41,36.15a18.73,18.73,0,0,0-3.89,3.42,20.11,20.11,0,0,0,8.55-5.77A18.21,18.21,0,0,0,1619.86,209.88Z"/><path class="cls-3" d="M1630.17,209c-7.88-2.11-29.41-7.19-43.83-8.66-.09,0-.16.31-.08.34,11.82,3,35.77,7.39,43.8,8.8C1630.21,209.49,1630.31,209,1630.17,209Z"/><path class="cls-9" d="M1646.06,160.22c-2.57,20.44-15.56,57.26-15.56,57.26l-39.81-7.17,51-59.77C1645,150.72,1646.89,153.68,1646.06,160.22Z"/><path class="cls-5" d="M1601.78,294.08h131.71s-15.52-90.24-58-138.55c-11.45-13-28.67-10.83-38.49-2-2.45,2.2-30,38.57-34.41,57.29-2.84,12.18,8.64,25.6,8.64,25.6Z"/><path class="cls-6" d="M1673.3,182.2a17.42,17.42,0,0,0-3.89,3.46,19.28,19.28,0,0,0,4.64-2.35,17.56,17.56,0,0,0,3.89-3.43A18,18,0,0,0,1673.3,182.2Zm31.51,102.3a18.64,18.64,0,0,0-3.89,3.45,17.89,17.89,0,0,0,4.64-2.34,18.44,18.44,0,0,0,3.92-3.43A18.19,18.19,0,0,0,1704.81,284.5Zm-44.21-37.08a17.93,17.93,0,0,0-3.92,3.43,19.81,19.81,0,0,0,8.56-5.78A18.07,18.07,0,0,0,1660.6,247.42Zm-50.43,35.43a18.05,18.05,0,0,0-3.89,3.45,18.34,18.34,0,0,0,4.66-2.34,18.84,18.84,0,0,0,3.9-3.43A17.13,17.13,0,0,0,1610.17,282.85Zm9.69-73a18.73,18.73,0,0,0-3.89,3.42,20.11,20.11,0,0,0,8.55-5.77A18.21,18.21,0,0,0,1619.86,209.88Zm58.88,12a18,18,0,0,0-3.43-3.89,18.84,18.84,0,0,0,2.32,4.64,17.16,17.16,0,0,0,3.45,3.89A18.72,18.72,0,0,0,1678.74,221.86ZM1725,264.12a17.27,17.27,0,0,0-3.45-3.92,20.52,20.52,0,0,0,5.77,8.55A16.62,16.62,0,0,0,1725,264.12Zm-84.64,9.14a18.08,18.08,0,0,0-3.45-3.89,18.72,18.72,0,0,0,2.34,4.64,18,18,0,0,0,3.43,3.89A18.16,18.16,0,0,0,1640.37,273.26Zm.9-99.53a18.94,18.94,0,0,0-3.45-3.9,19,19,0,0,0,2.32,4.67,19.49,19.49,0,0,0,3.45,3.89A18,18,0,0,0,1641.27,173.73Zm16-73.9a18.22,18.22,0,0,0-5.18-.34,17.2,17.2,0,0,0,4.92,1.65,18.36,18.36,0,0,0,5.2.34A18.19,18.19,0,0,0,1657.25,99.83ZM1682.71,265a18.24,18.24,0,0,0-5.18-.34,18.29,18.29,0,0,0,4.92,1.65,17.36,17.36,0,0,0,5.2.31A17.89,17.89,0,0,0,1682.71,265Zm-43-34.12a18.81,18.81,0,0,0-5.21-.31,18.6,18.6,0,0,0,5,1.65,19.43,19.43,0,0,0,5.18.31A18.18,18.18,0,0,0,1639.73,230.85Zm61.48-25.1a19.41,19.41,0,0,0-5.18-.31,18.19,18.19,0,0,0,4.94,1.65,19,19,0,0,0,5.18.31A18.19,18.19,0,0,0,1701.21,205.75Zm-35.43-51.45a18.41,18.41,0,0,0-5.21-.34,18.37,18.37,0,0,0,5,1.65,17.17,17.17,0,0,0,5.18.31A18.44,18.44,0,0,0,1665.78,154.3Zm39.6,82.92a18.19,18.19,0,0,0-1.65,4.94,19.38,19.38,0,0,0-.31,5.18,18.18,18.18,0,0,0,1.65-4.92A19.53,19.53,0,0,0,1705.38,237.22Zm-83.9,6.75a18.46,18.46,0,0,0-1.62,4.94,18.27,18.27,0,0,0-.34,5.18,17.73,17.73,0,0,0,1.65-4.92A18,18,0,0,0,1621.48,244Zm51.36,37.46a18.12,18.12,0,0,0-1.63,4.92,18.41,18.41,0,0,0-.33,5.21,19.92,19.92,0,0,0,2-10.13Zm-20.9-83a18.37,18.37,0,0,0-1.65,4.95,19.36,19.36,0,0,0-.31,5.18,18.37,18.37,0,0,0,1.65-5A19.36,19.36,0,0,0,1651.94,198.46Z"/><path class="cls-3" d="M1634.29,232.76a111.94,111.94,0,0,1,16.36,2.83c2.66.71,5.28,1.54,7.89,2.42,1.3.44,2.6.84,3.92,1.23a17.85,17.85,0,0,0,4.21.83.1.1,0,0,1,0,.2,29.09,29.09,0,0,1-4.07-.11,28.49,28.49,0,0,1-3.87-.77c-2.71-.69-5.38-1.5-8.08-2.22-5.45-1.46-10.89-2.9-16.44-4C1634,233.16,1634,232.73,1634.29,232.76Z"/><path class="cls-3" d="M1620.6,237.53a118.24,118.24,0,0,1,13.7-.54c2.29,0,4.55.22,6.83.46,1.09.12,2.17.25,3.25.4s2.37.49,3.56.63c.12,0,.12.21,0,.2-1.13-.1-2.28,0-3.41-.06l-3.42-.12c-2.28-.07-4.55-.12-6.83-.22-4.57-.2-9.11-.34-13.68-.38C1620.35,237.9,1620.37,237.55,1620.6,237.53Z"/><path class="cls-12" d="M1550.59,295.64c8.48,11.71,31.08,13.59,87.53,23.67,7.82,1.4,32.49-51.08,24.22-53-10.41-2.42-51.33-9.54-54.39-9.68C1582.15,255.42,1544.83,287.69,1550.59,295.64Z"/><path class="cls-12" d="M1651.05,263.93s23.9,3.2,35.93,8.77c16.12,7.46,27,20.53,31.17,26.29,8.8,12,21.76,47.12,12.29,52.62-8.56,5-20-31.59-20-31.59s17.81,35.36,6.4,39.46-22.28-39.11-22.28-39.11,17.49,36.74,5,39.1c-9.4,1.78-21.44-36.79-21.44-36.79s14.81,31.68,5.22,33.93c-10.6,2.49-24-32.42-24-32.42-25.34,1.62-38.06-8-46.3-15.87C1611.14,306.4,1651.05,263.93,1651.05,263.93Z"/><path class="cls-3" d="M1705.07,307.4c2.24,4.08,4.54,8.19,6.41,12.45s3.6,8.6,5.06,13c3.6,10.84,4.16,18.19,4.08,17.74-2-10.65-8.46-26-10.33-30.28s-3.52-8.6-5.39-12.85C1704.85,307.36,1705,307.3,1705.07,307.4Z"/><path class="cls-3" d="M1689.55,313.88c2.64,5.33,5.45,10.53,7.86,16s4.18,10.77,6.19,16.34c.16.43-.12.37-.3-.05-2.23-5.49-4.72-10.39-7-15.85s-4.39-11-6.87-16.37C1689.38,313.85,1689.51,313.8,1689.55,313.88Z"/><path class="cls-3" d="M1675.23,317.05c4.45,7.94,7.43,16.69,10.15,25.34.13.43-.22.32-.39-.11-3.21-8.49-5.67-15.17-10-25.08C1674.89,317.05,1675.14,316.88,1675.23,317.05Z"/><path class="cls-3" d="M1670.81,346.93A45,45,0,0,0,1676,353a19.72,19.72,0,0,0,3.11,2.45,5.6,5.6,0,0,0,3.6,1,3.41,3.41,0,0,0,2.58-2.36,10.7,10.7,0,0,0,.59-3.8,33.58,33.58,0,0,0-1.05-7.78l-1.22-5,2.22,4.62a85.93,85.93,0,0,0,4.44,8.1,32.28,32.28,0,0,0,5.66,7.08c1.1.91,2.43,1.69,3.55,1.35a4.82,4.82,0,0,0,3.18-2.24c1.28-2.38.67-5.61.22-8.6l-.77-5.19,2.38,4.7a39.82,39.82,0,0,0,5,7.72,14.27,14.27,0,0,0,3.29,3,4,4,0,0,0,3.68.59,4.34,4.34,0,0,0,2.38-2.94,14.56,14.56,0,0,0,.57-4.37,40.49,40.49,0,0,0-1.22-9.08l-2.15-9,3.94,8.38a35.59,35.59,0,0,0,3,5.25,12.63,12.63,0,0,0,4.12,4,2.92,2.92,0,0,0,2.33.22,4.48,4.48,0,0,0,2-1.6A10.55,10.55,0,0,0,1733,344a38.72,38.72,0,0,0-1.74-12.07c-1.14-4-2.36-8-3.75-11.88-2.81-7.78-6-15.6-10.83-22.28A91.39,91.39,0,0,0,1699.24,280a91.72,91.72,0,0,1,18.14,17.23c5.18,6.71,8.45,14.55,11.47,22.33,1.46,3.93,2.82,7.89,4,11.92a39.8,39.8,0,0,1,1.89,12.6,12.09,12.09,0,0,1-1.81,6.41,6.18,6.18,0,0,1-2.82,2.27,4.74,4.74,0,0,1-3.72-.27,14.19,14.19,0,0,1-4.85-4.56,36.58,36.58,0,0,1-3.26-5.54l1.79-.64a39.06,39.06,0,0,1,1.28,9.58,16.57,16.57,0,0,1-.7,4.94,6.19,6.19,0,0,1-3.47,4.06,5.83,5.83,0,0,1-5.3-.75,16.3,16.3,0,0,1-3.7-3.35,41.73,41.73,0,0,1-5.17-8.13l1.6-.5a40.25,40.25,0,0,1,.52,4.73,9.4,9.4,0,0,1-1,4.94,6.45,6.45,0,0,1-4.24,2.92,4.09,4.09,0,0,1-2.75-.34,9.41,9.41,0,0,1-2.1-1.41,33.31,33.31,0,0,1-5.78-7.52,83,83,0,0,1-4.35-8.31l1-.35a31.38,31.38,0,0,1,.87,8.08,11.59,11.59,0,0,1-.78,4,4,4,0,0,1-3.16,2.65,6.11,6.11,0,0,1-3.91-1.24,19.78,19.78,0,0,1-3.08-2.61A44.92,44.92,0,0,1,1670.81,346.93Z"/><path class="cls-3" d="M1583,263c3.76-2.37,14.38-8,24.83-6.41.12,0,.12.18,0,.18-8.61,0-20.92,4.38-24.75,6.39A.09.09,0,0,1,1583,263Z"/><path class="cls-13" d="M1785.74,247.29a48.11,48.11,0,0,1,49.66-10.16l-28.66,27.05,9.19,20.83,20.25,10.36,28.68-27.07a48.15,48.15,0,1,1-79.12-21Z"/><path class="cls-13" d="M1650.61,507.28A48.13,48.13,0,0,1,1601,517.45l28.66-27.06-9.18-20.82-20.26-10.37-28.68,27.07a48.15,48.15,0,1,1,79.12,21Z"/><rect class="cls-13" x="1700.73" y="256.42" width="42.89" height="234.18" transform="translate(2632.71 1882.26) rotate(-133.35)"/><rect class="cls-8" x="1713.34" y="325.29" width="17.66" height="96.44" transform="translate(2632.7 1882.27) rotate(-133.35)"/><path class="cls-12" d="M1683.81,161c31.81,22.18,80,66.43,83.94,86.54,4,20.61-12.86,75.83-22.1,94.45-3.84,7.75-67.19-13.71-63.3-22.1,7.93-17.1,24.63-57,24.05-62.59-.55-5.35-25.53-48.69-39-73.58C1645.74,143.82,1661.34,145.31,1683.81,161Z"/><path class="cls-12" d="M1686.46,310.77s-10.5,23-16.67,38.3c-3.44,8.55-8,23.75-7.68,31.19.53,11.14,9.82,57.36,21.08,55.35,10.18-1.82-2.84-40.52-2.84-40.52s9.69,40.21,21.56,35.76-8.67-46.21-8.67-46.21,10.88,41.09,22.39,34.56c8.7-4.93-7.76-43.8-7.76-43.8s9.6,35.25,18.76,30.57c10.13-5.18-2.82-42-2.82-42,21.29-15.83,27.34-30,28.57-41.92C1752.38,322,1706.46,312.77,1686.46,310.77Z"/><path class="cls-3" d="M1676.1,381.4c1,4.76,1.92,9.59,3.31,14.25s2.94,9.28,4.75,13.79c4.46,11.07,9,17.3,8.74,16.89-5.61-9.83-10.84-26.44-12.23-31.1s-3-9.24-4.39-13.89C1676.24,381.22,1676.08,381.28,1676.1,381.4Z"/><path class="cls-3" d="M1692.85,376.08c-.06,6.78,5.15,25.31,10.63,35.25.23.42.36.21.21-.24-1.93-5.88-9.07-29.11-10.7-35.06C1693,375.94,1692.85,376,1692.85,376.08Z"/><path class="cls-3" d="M1706.4,368.93c.88,8.61,4.11,17.86,9,27.05.22.42.39.11.22-.35-3.17-8.94-5.72-15.92-8.94-26.76A.16.16,0,0,0,1706.4,368.93Z"/><path class="cls-5" d="M1730.47,192.24l-50.62,20.48s-18.26-31.61-24.6-51.22c-3.55-11,2.92-16.45,12.38-12.05C1700.74,164.86,1730.47,192.24,1730.47,192.24Z"/><path class="cls-6" d="M1701.08,170.68a18.24,18.24,0,0,0-1.65,4.93,19.13,19.13,0,0,0-.31,5.2,18.37,18.37,0,0,0,1.65-4.95A19.36,19.36,0,0,0,1701.08,170.68Zm-35.3-16.38a18.41,18.41,0,0,0-5.21-.34,18.37,18.37,0,0,0,5,1.65,17.17,17.17,0,0,0,5.18.31A18.44,18.44,0,0,0,1665.78,154.3ZM1696,205.44a5.08,5.08,0,0,0,.82.39l1.11-.44A13.94,13.94,0,0,0,1696,205.44ZM1673.3,182.2a17.42,17.42,0,0,0-3.89,3.46,19.28,19.28,0,0,0,4.64-2.35,17.56,17.56,0,0,0,3.89-3.43A18,18,0,0,0,1673.3,182.2Z"/><path class="cls-3" d="M1679,202.91c7.35-3.53,27.55-12.54,41.45-16.67.08,0,.21.28.13.31-11,5.19-33.76,13.94-41.38,16.82C1679.09,203.42,1678.9,203,1679,202.91Z"/><path class="cls-3" d="M1682.73,211.54a13.45,13.45,0,0,1-2.65,1,41.72,41.72,0,0,1-3.1-5.31c-1.5-3-3.06-6-4.58-9-3-6-6.38-11.8-9.65-17.68-.09-.16-.36,0-.29.13q1.92,4.58,4,9.06l-.12-.18c-.88-1.24-1.77-2.49-2.66-3.72-.08-.11-.25,0-.18.1q1.24,1.92,2.51,3.83c.46.7.94,1.39,1.42,2.08,1.45,3.11,3,6.19,4.59,9.24,1.79,3.33,6.5,12.51,7.61,12.65.34,0,2.3-1.34,3.27-1.78C1683.08,211.82,1683,211.43,1682.73,211.54Z"/><path class="cls-3" d="M1670.81,346.56c2.13-5.66,4.43-11.24,6.74-16.81l7.08-16.65,14.61-33.1c-1.65,5.82-3.77,11.49-5.94,17.12s-4.56,11.19-6.9,16.75-4.9,11-7.5,16.48S1673.67,341.23,1670.81,346.56Z"/><path class="cls-7" d="M1650.59,143.44c9.59.56,11,10.67,6.28,21.11s-13.23,14.36-17.88,14-9.23-5.16-6-17.29C1637.22,145.78,1644.79,143.1,1650.59,143.44Z"/><path class="cls-12" d="M1655.16,149.3c.28,2.22-4.53,19.17-14.06,22.22-3.1,1-9.26-15.71-9.26-15.71l-.74-1.13-10.29-15.81,15.41-20.56,2.28-2.82s2.54,4.51,5.63,10.16c.15.26.29.53.44.81s.36.61.52.91c.48.84,1,1.7,1.41,2.56.36.66.7,1.29,1,2s.7,1.38,1.07,2.08C1652.06,140.94,1655,148.36,1655.16,149.3Z"/><path class="cls-3" d="M1644.13,125.65a37.78,37.78,0,0,1-13,29l-10.29-15.81,15.41-20.56,2.28-2.82S1641,120,1644.13,125.65Z"/><path class="cls-12" d="M1587.11,118.6c2.9,33,23,35,30.1,34.34,6.45-.57,28.36-3.35,28.89-36.46s-15.74-42.19-30.57-41.66S1584.2,85.62,1587.11,118.6Z"/><path class="cls-3" d="M1593,113.15a19.64,19.64,0,0,0,2.15-.78,3.63,3.63,0,0,0,2-1.21,1.18,1.18,0,0,0-.2-1.42,2.93,2.93,0,0,0-3-.28,4.29,4.29,0,0,0-2.46,1.88A1.26,1.26,0,0,0,1593,113.15Z"/><path class="cls-3" d="M1614.13,110.36c-.78,0-1.51-.1-2.28-.16a3.7,3.7,0,0,1-2.3-.61,1.16,1.16,0,0,1-.19-1.42,2.9,2.9,0,0,1,2.75-1.08,4.35,4.35,0,0,1,2.88,1.13A1.26,1.26,0,0,1,1614.13,110.36Z"/><path class="cls-3" d="M1610.92,119.24c0-.09.19.09.19.18.19,2.25.79,4.79,2.9,5.3.06,0,.07.13,0,.12C1611.49,124.78,1610.74,121.4,1610.92,119.24Z"/><path class="cls-3" d="M1612.65,116.67c3.57-.69,4.69,6.5,1.38,7.14S1609.65,117.25,1612.65,116.67Z"/><path class="cls-3" d="M1614.12,116.83c.69.31,1.42.93,2.19.89s1.43-.91,1.89-1.72c0-.09.12,0,.14.06.23,1.38-.08,2.87-1.52,3.31s-2.48-.67-3-2C1613.68,117.12,1613.84,116.71,1614.12,116.83Z"/><path class="cls-3" d="M1597.92,120.28c0-.08-.15.14-.14.23.44,2.21.56,4.82-1.33,5.89-.06,0,0,.14,0,.12C1598.89,125.77,1598.69,122.31,1597.92,120.28Z"/><path class="cls-3" d="M1595.56,118.29c-3.63.31-2.73,7.53.62,7.24S1598.59,118,1595.56,118.29Z"/><path class="cls-3" d="M1594.11,119c-.52.45-1,1.22-1.68,1.35s-1.46-.56-2.06-1.25c-.06-.07-.11,0-.1.09.13,1.39.76,2.77,2.12,2.87s2-1.2,2.14-2.62C1594.56,119.13,1594.32,118.77,1594.11,119Z"/><path class="cls-3" d="M1614.67,136.62c-.43.62-.81,1.44-1.6,1.67a6,6,0,0,1-2.49-.07.08.08,0,0,0-.07.13,3,3,0,0,0,3,.63,2.41,2.41,0,0,0,1.34-2.3C1614.91,136.54,1614.73,136.53,1614.67,136.62Z"/><path class="cls-3" d="M1603.11,129.67s0,3.42.24,5a8.59,8.59,0,0,0,7.91-3.74c.11-.16-.14-.31-.27-.19a11.35,11.35,0,0,1-6.57,2.95c-.18-.42.16-5.85-.09-5.83a13.81,13.81,0,0,0-3.47,1.33c-.24-7.12.65-14.21.31-21.29a.22.22,0,0,0-.43-.05c-1.47,7.37-1.37,15.57-1.31,22.92C1599.43,131.69,1602.51,130,1603.11,129.67Z"/><path class="cls-3" d="M1605.48,134.19a8.32,8.32,0,0,0,3.67,2,3.81,3.81,0,0,0,2.25-.22c1.54-.69,1.34-2.17.84-3.39a8.71,8.71,0,0,0-1-1.81A10.65,10.65,0,0,1,1605.48,134.19Z"/><path class="cls-14" d="M1609.15,136.19a3.81,3.81,0,0,0,2.25-.22c1.54-.69,1.34-2.17.84-3.39C1610.54,133,1609,134.49,1609.15,136.19Z"/><path class="cls-3" d="M1644.61,119.47c-5.93,2.08-10.49-11.54-10.49-11.54s-26.9,1.18-33.64-19.48c0,0-1.56,14.43-13.84,23.45,0,0-4-25.47,13.41-33.92,0,0,21.79-12.66,38.49,2.68S1648.59,118.08,1644.61,119.47Z"/><path class="cls-3" d="M1600.05,86.91a23.73,23.73,0,0,0,3.23,9.4,24.59,24.59,0,0,0,6.74,7.48,19.66,19.66,0,0,0,2.12,1.37l1.09.66c.37.19.76.36,1.15.53.77.33,1.54.7,2.32,1s1.61.48,2.42.7c.4.11.8.24,1.21.33l1.24.2,2.47.38c1.66.1,3.33.12,5,.11-1.63-.33-3.26-.49-4.86-.84l-2.37-.58-1.18-.29c-.39-.12-.77-.28-1.15-.42-.75-.28-1.51-.56-2.27-.82s-1.45-.7-2.18-1.05l-1.08-.52-1-.64a19.14,19.14,0,0,1-2-1.33,28.14,28.14,0,0,1-6.66-6.89,29.66,29.66,0,0,1-2.42-4.21A28.1,28.1,0,0,1,1600.05,86.91Z"/><path class="cls-12" d="M1640.8,118.4s5.33-11.43,10.39-9.71,2.32,17.43-2.75,20.4a5.6,5.6,0,0,1-7.91-1.66Z"/><path class="cls-3" d="M1650.29,113.17a.08.08,0,0,1,.06.14c-3.53,2.21-4.92,6.09-5.67,10,.88-1.6,2.28-2.64,4.41-1.63.11,0,0,.22-.07.22a3.46,3.46,0,0,0-3.53,1.84,16.36,16.36,0,0,0-1.25,3.34c-.12.37-.77.29-.71-.12a.29.29,0,0,0,0-.09C1642.6,122,1645.17,114.58,1650.29,113.17Z"/><path class="cls-6" d="M1645,128.2a1.34,1.34,0,1,0,1-1.64A1.34,1.34,0,0,0,1645,128.2Z"/><path class="cls-6" d="M1647.67,125.25a1,1,0,1,0,.7-1.18A1,1,0,0,0,1647.67,125.25Z"/><path class="cls-5" d="M1652.21,112.32l1.89-.66a.7.7,0,0,0,.43-.9h0a.71.71,0,0,0-.9-.44l-1.89.66a.71.71,0,0,0-.43.9h0A.7.7,0,0,0,1652.21,112.32Z"/><path class="cls-5" d="M1652.65,114.34l2-.25a.71.71,0,0,0,.62-.78h0a.71.71,0,0,0-.79-.61l-2,.24a.7.7,0,0,0-.61.79h0A.71.71,0,0,0,1652.65,114.34Z"/><path class="cls-5" d="M1632.47,112.39l5.63,5.55,7.18-10.8-2.57-2.44Zm3.16.3,6.62-5.56.58.58-5.18,6.9Z"/></svg>