<svg id="Слой_1" data-name="Слой 1" xmlns="http://www.w3.org/2000/svg" viewBox="0 0 1800 600"><defs><style>.cls-1{fill:#ececec;}.cls-2{fill:#dcdcdc;}.cls-3{fill:#a8a8a8;}.cls-4{fill:#306;}.cls-5{fill:#ff9581;}.cls-6{fill:#ffc800;}.cls-7{fill:#fff;}.cls-8{fill:#ff99bc;}.cls-9{fill:#4a148c;}.cls-10{fill:#c36358;}.cls-11{opacity:0.1;}.cls-12{fill:#1a2e35;}</style></defs><path class="cls-1" d="M505.92,160.55c-14.83.14-37.52.44-52.18.45h-.45v-.45l-.05-22.05V138h.5c15.38.05,37,.06,52.18.23h.28v.27l-.27,22.05Zm0,0-.27-22.05.27.27c-8.7,0-17.39.16-26.09.17l-26.09.06.5-.5-.06,22.05-.44-.45c14.54,0,37.47.28,52.18.45Z"/><path class="cls-1" d="M476.81,188.35c-14.83.15-37.52.44-52.18.45h-.45v-.45l-.05-22v-.5h.5c15.38,0,37,.06,52.18.22h.28v.27l-.27,22Zm0,0-.27-22,.27.28c-8.7,0-17.39.16-26.09.16l-26.09.06.5-.5-.06,22-.44-.44c14.54,0,37.47.28,52.18.44Z"/><path class="cls-1" d="M535,188.35c-14.83.15-37.52.44-52.18.45h-.45v-.45l0-22v-.5h.5c15.38,0,37,.06,52.18.22h.28v.27l-.27,22Zm0,0-.27-22,.27.28c-8.7,0-17.4.16-26.09.16l-26.09.06.5-.5-.06,22-.44-.44c14.54,0,37.47.28,52.18.44Z"/><path class="cls-1" d="M48.67,317.62c-14.83.14-37.53.44-52.18.44H-4v-.44l0-22.05v-.5h.5c15.38.05,37,.06,52.18.22h.27v.27l-.27,22.05Zm0,0-.27-22.05.27.27c-8.7.05-17.4.16-26.09.16l-26.09.07.5-.5-.06,22.05-.44-.45c14.54,0,37.47.28,52.18.45Z"/><path class="cls-2" d="M-29,606.62l241.35-12.13-48.2-280.36H-16.57Q-22.76,460.38-29,606.62Z"/><path class="cls-3" d="M-29.83,602.32l21.47-.86Q-2.3,457.8,3.75,314.13H-16.57Z"/><path class="cls-4" d="M114,191.86c-22.44,22.33-28.88,59.06-28.88,59.06S63.6,288,69.62,308s23.3,24.77,23.3,24.77l-2.14-11.12S98,335.93,122.1,341.69s56-1.67,72.56-10.06A63.67,63.67,0,0,0,219,310.19l-6.22,16.15s23.39-.82,37.29-25.7-26-60.66-29.4-68.36S213,168.43,154,178.11C154,178.11,129.45,176.49,114,191.86Z"/><path class="cls-4" d="M84.37,331.31c-6.14-4.6-12.22-9.94-15.61-16.36A34.24,34.24,0,0,1,65,292.83c1.64-9.09,6.43-17.1,11.09-24.92,4.81-8.08,10.23-15.83,14.9-24,.25-.45-.42-.82-.74-.46-5.37,6-10,12.77-14.66,19.33-4.41,6.24-8.74,12.7-11.6,19.83-2.6,6.47-4.08,13.74-2.72,20.68a36.05,36.05,0,0,0,7.38,15.53c4.35,5.41,9.89,8.89,15.37,13C84.4,332.06,84.71,331.56,84.37,331.31Z"/><path class="cls-4" d="M255.08,275c-7.08-20.67-25.67-33.78-37-51.81-6.12-9.76-10.86-20.56-18.83-29-.21-.23-.61.13-.4.37,6.54,7.63,10.32,16.8,15,25.55s11.13,16.63,17.57,24.36c11.7,14,25.72,30.64,23,50.29-1.24,9.07-6.59,19.11-15.89,21.94-.36.11-.15.7.21.55A29.11,29.11,0,0,0,255.07,301C258.43,292.6,258,283.47,255.08,275Z"/><path class="cls-4" d="M255.94,280.6a38.17,38.17,0,0,0-5.17-22.43c-4.09-6.66-10.49-11.47-16.89-15.74-7.39-4.92-15.17-9.58-19.87-17.37-.2-.32-.66,0-.48.34,7.45,12.85,21.61,18.84,31.18,29.65,10.95,12.36,11,30.36,3.43,44.49-4.63,8.7-11.7,15.86-19.73,21.46-.14.1,0,.31.16.22C242.52,312,254.82,298,255.94,280.6Z"/><path class="cls-5" d="M166.62,374.78c59.81,32.81,131.4,74,175.27,64.32,19.44-4.29,106.78-118.77,110.48-132,3.19-11.38-75.89-57.18-84.78-48.2-14.9,15.05-55.25,99.71-61,101.11-6,1.44-56.12-8.76-108.45-18.21C147.89,332.77,125.1,352,166.62,374.78Z"/><path class="cls-5" d="M443.88,321.27c6.83-8.59,34.64-50.72,39.76-64.18s17.05-53.24,7.14-58.21-14.33,6.4-14.33,6.4,2.37-17.59-8.05-21.69-16.73,13.83-16.73,13.83,1.12-18.25-9.57-21.59-14,15.74-14,15.74,1.8-16.64-8.16-15.68c-12,1.15-11.85,32.2-18.61,46.63-1.54,3.28-35.87,64.21-35.87,64.21Z"/><path class="cls-4" d="M428.41,189.94c0,22.83-3.88,32.83-15.84,51.87-.23.37.27.8.55.44,13.4-17.58,20.14-29.41,16.39-52.37C429.33,188.76,428.4,188.85,428.41,189.94Z"/><path class="cls-4" d="M451.63,195.6c-2,23.73-6.18,34.61-17.24,55.47-.15.29.33.59.51.3,12.56-19.55,19-31.51,17.92-55.48C452.77,194.81,451.73,194.52,451.63,195.6Z"/><path class="cls-4" d="M475.85,206.33c-3.61,22.82-7.66,34.95-21,53.82a.43.43,0,0,0,.67.53c15.47-17.92,20.64-33,21-54.17C476.56,205.07,476.08,204.89,475.85,206.33Z"/><path class="cls-5" d="M348.59,293.47s-1.67-28.56.37-41.27,27.05-57.29,37-52.43c12.82,6.27,3.45,34.85-3,48.25,0,0,29.68,14.47,27.39,36.44S348.59,293.47,348.59,293.47Z"/><path class="cls-4" d="M388.91,202.65c7.57,14.16-2,31.2-7.25,44.66a1.33,1.33,0,0,0,1.13,1.86c12,6.9,27,20.13,28.29,34.72a.34.34,0,0,0,.67,0c.74-15.83-12.9-30-26.57-36.75,5.61-13.72,14.44-31.23,3.86-44.57A.08.08,0,0,0,388.91,202.65Z"/><path class="cls-6" d="M292.33,355.34l-72,60.34s-43.94-22.86-76.4-49.13,3.5-39,59.21-29.68S292.33,355.34,292.33,355.34Z"/><path class="cls-7" d="M207.06,367.46a43.91,43.91,0,0,0-7-7.55,48.9,48.9,0,0,0,12.35,16.36A42.85,42.85,0,0,0,207.06,367.46ZM144,366.59c.29.22.57.46.86.67.57-.61,1.15-1.26,1.68-1.93C145.64,365.71,144.79,366.14,144,366.59Zm120.5.4a44.71,44.71,0,0,0-10.29-.32,44.69,44.69,0,0,0,10,2.5,43.62,43.62,0,0,0,10.29.34A44.47,44.47,0,0,0,264.47,367Zm-24.1-23.33a29.91,29.91,0,0,0,.13,3.9,31.67,31.67,0,0,0,1.23-3.63Z"/><path class="cls-4" d="M204.22,402.79c14.65-14.07,30.29-27.13,46.16-39.85q6.74-5.4,13.71-10.48c.13-.1.31.07.18.18-7.46,6.87-15.2,13.44-22.9,20.05S225.86,385.89,218,392.3c-4.47,3.62-8.93,7.24-13.47,10.76C204.3,403.22,204,403,204.22,402.79Z"/><path class="cls-4" d="M250.93,390l-30.6,25.63s-44-22.85-76.41-49.11c-11.52-9.32-14.41-16.94-10.9-22.48Z"/><path class="cls-6" d="M243.31,601.46,5.38,604c54.78-147.34,95.89-254.8,97.29-256.44,1.58-1.83,3.17-3.53,3.17-3.53.22-.25.4-.44.62-.66a49.38,49.38,0,0,1,12.33-9.53c.8-.44,1.61-.84,2.46-1.21,17.77-8.17,36.53-1.4,50.06,10.19,4.31,3.68,52.93,66.95,57.24,91.08,3.71,21.29-10.67,44.17-10.67,44.17Q230.6,539.79,243.31,601.46Z"/><path class="cls-4" d="M183.45,469.87a198.82,198.82,0,0,0-29,5c-4.71,1.25-9.34,2.71-14,4.28-2.3.78-4.62,1.48-6.95,2.17a31.73,31.73,0,0,1-7.46,1.48.18.18,0,0,0,0,.35,54.08,54.08,0,0,0,7.2-.2,53.17,53.17,0,0,0,6.85-1.35c4.8-1.23,9.53-2.68,14.32-3.95,9.64-2.57,19.29-5.14,29.1-7C184,470.59,183.91,469.82,183.45,469.87Z"/><path class="cls-4" d="M207.68,478.32a215.8,215.8,0,0,0-24.25-1c-4.06.09-8.07.41-12.1.83-1.93.2-3.85.44-5.77.7-2.1.29-4.18.86-6.29,1.12-.22,0-.22.37,0,.35,2-.18,4,0,6-.1s4-.15,6.05-.21c4-.14,8.07-.23,12.11-.4,8.08-.34,16.13-.6,24.22-.67C208.14,479,208.1,478.36,207.68,478.32Z"/><path class="cls-7" d="M80.89,392.84c-1.09-1.38-2.19-2.74-3.39-4l-.85,1.77c.79,1.23,1.64,2.43,2.5,3.59a43.72,43.72,0,0,0,7,7.49A47.91,47.91,0,0,0,80.89,392.84Zm26.62-50.49a43,43,0,0,0-.2,9.29,43.27,43.27,0,0,0,2.47-10c.07-.52.13-1.05.19-1.56C109.14,340.78,108.32,341.55,107.51,342.35Zm69.62,64.13a44.27,44.27,0,0,0-2.52,10,46,46,0,0,0-.34,10.3,42.17,42.17,0,0,0,2.49-10A43,43,0,0,0,177.13,406.48Zm-43.85,111a43.83,43.83,0,0,0-2.48,10,44.92,44.92,0,0,0-.31,10.31,49.12,49.12,0,0,0,2.79-20.28Zm-74.5-83.87a46.3,46.3,0,0,0-2.49,10A44.54,44.54,0,0,0,56,453.91a44.39,44.39,0,0,0,2.46-10A43.79,43.79,0,0,0,58.78,433.59Zm61.68-14.07a44.71,44.71,0,0,0-10.29-.31,44.69,44.69,0,0,0,10,2.5,43.62,43.62,0,0,0,10.29.33A44.47,44.47,0,0,0,120.46,419.52ZM203,514.15a45.37,45.37,0,0,0-10.3-.32,48.89,48.89,0,0,0,20.27,2.8A44.91,44.91,0,0,0,203,514.15Zm-154.15-9a46.54,46.54,0,0,0-10.11-.35l-.2,0,.18.06a45.14,45.14,0,0,0,9.85,2.42,44.71,44.71,0,0,0,10.29.32A45.23,45.23,0,0,0,48.83,505.1Zm86.54,81.37a45.25,45.25,0,0,0-10.28-.32,48.72,48.72,0,0,0,20.29,2.78A45.46,45.46,0,0,0,135.37,586.47Zm-93.09-10a44.82,44.82,0,0,0-10.3-.32,45.44,45.44,0,0,0,10,2.47,41.69,41.69,0,0,0,10.3.31A44.86,44.86,0,0,0,42.28,576.5ZM137.7,370.65a45.81,45.81,0,0,0-7.55,7.08,46.48,46.48,0,0,0,8.87-5.3,43.31,43.31,0,0,0,7.49-7.1A46.92,46.92,0,0,0,137.7,370.65Zm24.55,105.49a42.89,42.89,0,0,0-7.49,7,43.67,43.67,0,0,0,8.81-5.32,42.15,42.15,0,0,0,7.49-7A44.89,44.89,0,0,0,162.25,476.14ZM76.16,540.61a41.72,41.72,0,0,0-7.51,7.06,46.92,46.92,0,0,0,8.81-5.32,46.47,46.47,0,0,0,7.55-7A40.64,40.64,0,0,0,76.16,540.61Zm143-92.75a43.91,43.91,0,0,0-7-7.55,48.9,48.9,0,0,0,12.35,16.36A42.85,42.85,0,0,0,219.14,447.86ZM189.8,567.18a46.79,46.79,0,0,0-7-7.55,40.41,40.41,0,0,0,5.3,8.85,43.06,43.06,0,0,0,7,7.51A46.51,46.51,0,0,0,189.8,567.18ZM103.41,473.3a45.13,45.13,0,0,0-7-7.55,41.44,41.44,0,0,0,5.32,8.85,41.9,41.9,0,0,0,7,7.51A45.67,45.67,0,0,0,103.41,473.3Z"/><path class="cls-5" d="M98,349.1C53.87,384.66-59.13,525.61-33.63,558.19-8,591,161.2,575.9,210.36,560.52c14.62-4.58-25.27-97.37-41.08-101.65-13.17-3.57-86.14,18-87.56,13.8-1.6-4.77,18-31.15,43-88.33C153.47,318.42,117.49,333.39,98,349.1Z"/><path class="cls-5" d="M249,451.13c33.72,3.9,41.78,10.08,72-1.75,19.82-7.75,33.28,1.57,18.78,18.3-23.71,27.37-68.27,31.48-84.13,28.45Z"/><path class="cls-5" d="M154.43,460.07s41.83-10.84,78.18-10.24c25.13.42,79.72,7.42,116.77,72.66,8.79,15.47,10.34,43.76-13.2,23.69-16.71-14.25-23-28.33-34.24-34.85,0,0-2.3,36.21-18.15,44.41-7.08,3.66-26.64,13.21-42.93,18.48a69.24,69.24,0,0,1-4.18-7.73s-15.53,6.26-39.45-2.43Z"/><path class="cls-5" d="M256.54,454.06c9.78,8.83,30.19,27.88,41.47,49.28,12.53,23.76,30.26,72.92,12.62,82-12.93,6.65-21.35-11.52-21.35-11.52s3.05,21.86-9.95,25.31c-11.85,3.15-17.52-11.3-17.52-11.3s-.43,13.58-12.42,14.41c-14.43,1-11.15-27.63-26.64-39.24C219.28,560.39,256.54,454.06,256.54,454.06Z"/><path class="cls-4" d="M270.69,512.39c7.84,9.81,19.93,36.65,18.9,61,0,.55-.45.83-.54.32a263.76,263.76,0,0,0-18.58-61.15C270.41,512.37,270.61,512.28,270.69,512.39Z"/><path class="cls-4" d="M247.07,525.73c5.89,9.16,17.11,37.39,15.23,62-.05.55-.5.8-.56.29-3.59-28.4-10.89-51.88-14.9-62.15A.13.13,0,0,1,247.07,525.73Z"/><path class="cls-4" d="M302,511.12c9.8,5.87,15.35,12.86,22.69,21.39a149.55,149.55,0,0,0,11.42,12.19c3.72,3.46,9.17,8.64,14.72,6.18,3.09-1.38,4-5.09,4.2-8.16a24.23,24.23,0,0,0-1.47-10.16c-.06-.16.22-.28.29-.11a32.47,32.47,0,0,1,2.36,9c.28,2.82.24,6-1.19,8.53-3.07,5.44-10.17,4.43-14.64,1.55a48.47,48.47,0,0,1-7.3-6.2c-2.19-2.14-4.27-4.39-6.3-6.68-4.16-4.72-8-9.66-12.15-14.42-4.51-5.23-7.82-8.08-12.88-12.77C301.58,511.27,301.81,511,302,511.12Z"/><path class="cls-4" d="M314.54,554.19c-1.17-6.76-9.51-35.8-12.82-42.88a.15.15,0,0,1,.27-.15c6.24,10,14.13,34.24,15.5,41.71s2.7,16.72.79,24.06c-2.87,11.09-10.76,11.28-13.62,11.12a14.9,14.9,0,0,1-9-4c-2.81-2.52-5-6.81-6.47-10.25-.07-.18.18-.33.28-.15,2.7,5.36,8,11.32,14.19,12.09a10.41,10.41,0,0,0,7.82-1.92c2.53-2.06,3.55-5.37,4.08-8.47C316.73,568.35,315.75,561.13,314.54,554.19Z"/><path class="cls-4" d="M262.3,587.7c1.2,1.72,3.19,7.14,8,9.43,3.5,1.68,7.46,2.33,11,.37s5.47-5.36,6.6-9c.65-2.08,1.32-11.61,1.3-14.55,0-.23.29-.26.3,0,.34,5.31.68,11.08-.55,15.87-1,4-3.4,7.94-7.11,10a11.69,11.69,0,0,1-12.22-.6c-1.79-1.25-7-6.86-7.78-11.27C261.8,587.72,262.24,587.63,262.3,587.7Z"/><path class="cls-4" d="M224.31,561.27a27.79,27.79,0,0,1,3.68,5.18c1.16,1.9,2.26,3.85,3.32,5.81a65.2,65.2,0,0,1,4.94,12.49c1.27,4.34,2.24,9.07,5.22,12.63a10.72,10.72,0,0,0,12.05,3.44,10.46,10.46,0,0,0,5.24-4.64,20.42,20.42,0,0,0,2.67-7.38.15.15,0,1,1,.3.05c-.42,2.38-.35,4.71-1.23,7a12.53,12.53,0,0,1-3.68,5.27,12,12,0,0,1-12.41,1.3c-4.41-2-6.91-6.41-8.45-10.83-1.71-4.91-2.86-10-4.79-14.83-1-2.55-2-5.11-3.2-7.59s-2.91-5-4-7.66C223.89,561.31,224.13,561.09,224.31,561.27Z"/><path class="cls-4" d="M208.9,567.37a98.69,98.69,0,0,0,18.81.92c.2,0,.32.58.13.63a43.14,43.14,0,0,1-9.56.62,32.65,32.65,0,0,1-9.42-1.83C208.69,567.64,208.69,567.33,208.9,567.37Z"/><path class="cls-4" d="M15.48,493.78a242.41,242.41,0,0,1,32.58-12.93A235.18,235.18,0,0,1,81.8,473c6.51-1.09,13-1.86,19.6-2.68a.16.16,0,0,1,0,.31,304.57,304.57,0,0,0-34,7.53q-16.71,4.56-33.23,9.71c-6.23,1.94-12.37,4.18-18.54,6.34A.23.23,0,0,1,15.48,493.78Z"/><path class="cls-6" d="M5.8,434.67l93.39,10.15s23.83-43.42,36.23-83.3-22.81-32.17-63.93,6.56S5.8,434.67,5.8,434.67Z"/><path class="cls-6" d="M5.8,434.67l93.39,10.15s23.83-43.42,36.23-83.3-22.81-32.17-63.93,6.56S5.8,434.67,5.8,434.67Z"/><path class="cls-7" d="M107.67,341a1.54,1.54,0,0,1,0,.3,44.89,44.89,0,0,0-.32,10.31,43.27,43.27,0,0,0,2.47-10c.07-.6.15-1.17.21-1.76C109.22,340.23,108.46,340.62,107.67,341ZM58.78,433.59a38.12,38.12,0,0,0-1.89,6.64l1.93.2A37.25,37.25,0,0,0,58.78,433.59ZM26.36,412.65h0c-.29.31-.61.63-.91.94,1,0,2.05-.08,3.1-.18C27.8,413.12,27.09,412.86,26.36,412.65Zm83.81,6.56c.55.21,1.12.43,1.69.61a6.4,6.4,0,0,1,.36-.75C111.55,419.09,110.86,419.13,110.17,419.21ZM80.89,392.84a46.41,46.41,0,0,0-7-7.55,41,41,0,0,0,5.3,8.87,43.72,43.72,0,0,0,7,7.49A47.91,47.91,0,0,0,80.89,392.84Z"/><path class="cls-4" d="M95.41,444c.5.07,3.86,0,3.87,0,.4-1.19,8.44-19.61,10.42-23.59,4-8.09,8.58-16,13-23.88.14-.25.54-.08.41.19-3.12,6.89-6.12,13.86-9.29,20.73.79-.93,1.58-1.86,2.34-2.81,1.56-1.95,3-4,4.46-6,.13-.18.42,0,.33.21a36.7,36.7,0,0,1-5.32,8,29.6,29.6,0,0,1-2.88,2.94c-.27.57-.53,1.15-.8,1.71-1.91,4-11.68,23.81-12,23.78-.08,0-3.45-.41-4.49-.55C95.16,444.57,95.15,443.93,95.41,444Z"/><path class="cls-4" d="M23.41,418.82C43.67,420.17,63.86,423,84,426.11q8.52,1.35,17,3.09c.16,0,.15.27,0,.25-10.1-.89-20.16-2.19-30.24-3.43s-20.2-2.58-30.26-4.12c-5.68-.86-11.36-1.72-17-2.7A.19.19,0,0,1,23.41,418.82Z"/><path class="cls-5" d="M130.74,335.34c.36,4.11,15.62,32.59,33.88,34.34,5.95.56,10.46-31.78,10.46-31.78l.88-2.31,12.27-32.36L152.57,272.4l-5.2-4.15s-2.77,9.08-6.11,20.41c-.16.53-.32,1-.48,1.61s-.41,1.24-.57,1.84c-.52,1.69-1.05,3.41-1.53,5.14-.38,1.32-.75,2.59-1.1,4s-.72,2.74-1.1,4.13C133,319.16,130.62,333.6,130.74,335.34Z"/><path class="cls-4" d="M141.26,288.66A69.4,69.4,0,0,0,176,335.59l12.27-32.36L152.57,272.4l-5.2-4.15S144.6,277.33,141.26,288.66Z"/><path class="cls-5" d="M231.91,236.27c16.56,58.44-16.58,75-29.18,78.51-11.45,3.23-50.82,12.77-73.33-43.65s-.57-82.59,25.21-91.35S215.35,177.83,231.91,236.27Z"/><path class="cls-4" d="M211.58,228.92a39.16,39.16,0,0,1-4.19.19c-1.61.06-2.89.27-4.31-.61a2.17,2.17,0,0,1-.66-2.56c.91-1.83,2.86-2.39,4.8-2.54a7.93,7.93,0,0,1,5.48,1.45C214.37,226,213.45,228.66,211.58,228.92Z"/><path class="cls-4" d="M173,242.42A39.44,39.44,0,0,0,176.9,241c1.51-.57,2.76-.88,3.73-2.25a2.16,2.16,0,0,0-.39-2.61c-1.55-1.33-3.57-1.08-5.41-.46a7.87,7.87,0,0,0-4.48,3.48C169.27,240.84,171.14,242.91,173,242.42Z"/><path class="cls-4" d="M184.84,252.82c-.07-.14-.25.28-.2.44,1.26,3.94,2,8.67-1.19,11-.1.07,0,.26.1.21C187.76,262.62,186.67,256.36,184.84,252.82Z"/><path class="cls-4" d="M180.11,249.68c-6.54,1.34-3.39,14.31,2.67,13.07S185.59,248.56,180.11,249.68Z"/><path class="cls-4" d="M177.73,251c-1,1-1.75,2.57-3.09,3-1.54.54-3.06-.53-4.41-1.59-.14-.11-.23,0-.19.21.57,2.49,2.14,4.81,4.9,4.53,2.51-.25,3.72-2.87,3.74-5.52C178.68,251.16,178.11,250.58,177.73,251Z"/><path class="cls-4" d="M207.92,245.71c0-.16.36.12.39.29.82,4.05,2.44,8.56,6.39,9,.13,0,.16.22,0,.23C210.13,255.69,208,249.69,207.92,245.71Z"/><path class="cls-4" d="M210.52,240.66c6.37-2,9.92,10.86,4,12.72S205.19,242.35,210.52,240.66Z"/><path class="cls-4" d="M213.44,240.77c1.21.4,2.56,1.36,3.79,1.11,1.44-.3,2.09-2,2.62-3.56.06-.17.19-.09.24.08.75,2.44.64,5.23-1.59,6.35-2,1-4.2-.64-5.46-2.93C212.8,241.4,213,240.61,213.44,240.77Z"/><path class="cls-4" d="M194,285.23c1.16.76,2.38,1.88,3.88,1.72a10.81,10.81,0,0,0,4.16-1.88.15.15,0,0,1,.22.18,5.59,5.59,0,0,1-4.72,3.21c-1.9,0-3.12-1.37-3.89-3C193.51,285.27,193.8,285.12,194,285.23Z"/><path class="cls-4" d="M207.19,265.2s2.36,5.78,3.08,8.6c.07.27-9.68,5-16-.78a.3.3,0,0,1,.32-.5c4.42,1.78,8.71,1.43,13.15.38,0-.83-4.36-9.76-3.93-9.9,1.51-.53,4.82-.26,6.79-.19-4.56-12.17-11-23.51-15.39-35.69a.4.4,0,0,1,.69-.37c7.62,11.4,13.18,25.29,18.21,37.74C214.8,266,208.45,265.4,207.19,265.2Z"/><path class="cls-4" d="M207.77,274.26a16.48,16.48,0,0,1-4.93,6.69,7.37,7.37,0,0,1-4.24,1.49c-3.35.07-4.24-2.77-4.36-5.39a17.6,17.6,0,0,1,.33-4.14A21.27,21.27,0,0,0,207.77,274.26Z"/><path class="cls-8" d="M202.84,281a7.37,7.37,0,0,1-4.24,1.49c-3.35.07-4.24-2.77-4.36-5.39C197.68,276.45,201.63,277.78,202.84,281Z"/><path class="cls-4" d="M132.22,269.19c11.31.73,12.62-25.15,12.62-25.15s47.31-11,49-50.19c0,0,9.7,24.31,35.43,34,0,0-4.28-42.57-38.61-48.79,0,0-42.92-12.73-64.49,22S124.63,268.7,132.22,269.19Z"/><path class="cls-4" d="M193.82,191a42.53,42.53,0,0,1-1,17.9,44.21,44.21,0,0,1-8.07,16.27,35.06,35.06,0,0,1-3,3.43l-1.56,1.67c-.56.51-1.15,1-1.74,1.47-1.19,1-2.33,2-3.55,2.86s-2.57,1.62-3.86,2.4c-.65.39-1.28.8-2,1.16l-2.06.94-4.1,1.87c-2.84,1-5.72,1.82-8.58,2.6,2.67-1.37,5.43-2.44,8-3.81l3.84-2.17,1.92-1.07c.61-.4,1.19-.86,1.78-1.28,1.18-.87,2.36-1.72,3.56-2.54s2.17-1.92,3.26-2.87l1.63-1.44,1.45-1.61a36.77,36.77,0,0,0,2.83-3.28,50.74,50.74,0,0,0,8.21-15.2,52.21,52.21,0,0,0,2.17-8.48A50.8,50.8,0,0,0,193.82,191Z"/><path class="cls-5" d="M140.66,268.57s-16.59-16.12-24.15-9.86,7.41,31.38,18,33.16,12.47-8,12.47-8Z"/><path class="cls-4" d="M121,265.8a.14.14,0,0,0,0,.28c7.49,1.48,12.39,7.23,16.24,13.42-2.56-2.18-5.65-3.05-8.63.08-.15.16.08.41.26.33,2.74-1.15,4.89-1.05,7.25.86a31.05,31.05,0,0,1,4.33,4.89c.44.56,1.5,0,1.13-.66l-.09-.14C139.94,276,130.67,264.87,121,265.8Z"/><path class="cls-1" d="M175.81,335.79,165,363.15l-34.08-34.4-9.56,11.13s33.43,54.73,33.63,52.25l11.15-23.58,16.31,16.3-1.5-41.1Z"/><path class="cls-4" d="M182.82,364.49c-.48-6.77-.77-13.61-1.56-20.36,0-.24-.4-.35-.46-.06-1.33,6.55.63,32.46.63,38.67l-.07-.07c-.69-.71-15.12-14.34-15.26-14.12-2.43,3.75-10.61,20.92-11.17,22.48-5.28-8.69-27.71-43-34-51.18a.23.23,0,0,0-.4.24c4.67,9.19,33.65,54.41,34.06,54.29.28.21,10.45-20.94,11.65-24.93,2.45,3,17,18.36,17.08,17.35A215.74,215.74,0,0,0,182.82,364.49Z"/><rect class="cls-4" x="258.01" y="589.68" width="13.18" height="8.61"/><rect class="cls-4" x="275.11" y="589.11" width="13.18" height="8.61"/><rect class="cls-4" x="292.2" y="588.54" width="13.18" height="8.61"/><rect class="cls-4" x="309.3" y="587.97" width="13.18" height="8.61"/><rect class="cls-4" x="326.4" y="587.4" width="13.18" height="8.61"/><rect class="cls-4" x="343.5" y="586.83" width="13.18" height="8.61"/><rect class="cls-4" x="360.59" y="586.27" width="13.18" height="8.61"/><rect class="cls-4" x="377.69" y="585.7" width="13.18" height="8.61"/><rect class="cls-4" x="394.79" y="585.13" width="13.19" height="8.61"/><polygon class="cls-9" points="411.2 603.24 254.78 603.24 254.78 592.76 411.2 588.4 411.2 603.24"/><polygon class="cls-4" points="595.65 554.77 337.43 554.77 378.49 362.52 636.72 362.52 595.65 554.77"/><polygon class="cls-9" points="605.21 554.77 346.98 554.77 388.04 362.52 646.27 362.52 605.21 554.77"/><path class="cls-4" d="M518.94,447.5c-1.4,8.82-9.68,16-18.49,16s-14.84-7.15-13.44-16,9.68-16,18.49-16S520.34,438.69,518.94,447.5Z"/><polygon class="cls-4" points="532.17 604.98 405.17 604.98 405.17 595.11 532.17 591.01 532.17 604.98"/><polygon class="cls-4" points="566.7 604.96 498.51 604.96 457.45 497.24 525.64 497.24 566.7 604.96"/><polygon class="cls-4" points="577.93 604.96 509.74 604.96 468.67 497.24 536.86 497.24 577.93 604.96"/><path class="cls-1" d="M1189,439.71c14.46-.17,36.77-.41,51.06-.44l-.44.44-.06-21.57.5.5-25.53-.07c-8.51,0-17-.11-25.53-.16l.27-.27-.27,21.57Zm0,0-.27-21.57v-.28h.28c14.76-.16,36.09-.18,51.06-.22h.5v.51l0,21.57v.45H1240c-14.28,0-36.62-.29-51.06-.45Z"/><path class="cls-1" d="M1217.45,466.92c14.47-.17,36.77-.41,51.07-.44l-.45.44,0-21.57.5.49-25.53-.06c-8.51,0-17-.11-25.54-.16l.28-.27-.28,21.57Zm0,0-.27-21.57v-.28h.27c14.76-.16,36.09-.19,51.07-.22h.5v.51l0,21.57v.45h-.44c-14.29,0-36.62-.29-51.07-.45Z"/><path class="cls-1" d="M1160.48,466.92c14.47-.17,36.77-.41,51.07-.44l-.45.44,0-21.57.5.49-25.54-.06c-8.51,0-17-.11-25.53-.16l.27-.27-.27,21.57Zm0,0-.27-21.57v-.28h.27c14.76-.16,36.09-.19,51.07-.22h.5v.51l-.06,21.57v.45h-.44c-14.29,0-36.63-.29-51.07-.45Z"/><path class="cls-1" d="M1486.93,182.92c14.46-.18,36.77-.41,51.06-.45l-.44.45-.06-21.58.5.5-25.53-.07c-8.51,0-17-.11-25.53-.16l.27-.27-.27,21.58Zm0,0-.27-21.58v-.27h.28c14.76-.16,36.09-.18,51.06-.22h.5v.5l0,21.58v.44H1538c-14.28,0-36.62-.29-51.06-.44Z"/><rect class="cls-2" x="1198.86" y="209.63" width="223.18" height="124.87" transform="translate(2620.9 544.14) rotate(-180)"/><polygon class="cls-2" points="1463.8 334.5 1422.04 334.5 1422.04 291.02 1463.8 334.5"/><rect class="cls-7" x="1246.37" y="274.83" width="149.32" height="2.69" transform="translate(2642.06 552.36) rotate(-180)"/><rect class="cls-7" x="1277.08" y="289.36" width="118.62" height="2.69" transform="translate(2672.77 581.41) rotate(-180)"/><rect class="cls-7" x="1268.12" y="245.77" width="127.57" height="2.69" transform="translate(2663.82 494.24) rotate(-180)"/><rect class="cls-7" x="1229.13" y="231.25" width="166.56" height="2.69" transform="translate(2624.82 465.18) rotate(-180)"/><rect class="cls-7" x="1264.77" y="303.89" width="130.92" height="2.69" transform="translate(2660.46 610.47) rotate(-180)"/><path class="cls-2" d="M1818.44,605.83l-237.29-9.17,47.16-274.36H1805.2Q1811.81,464.07,1818.44,605.83Z"/><path class="cls-10" d="M1612.16,376.08c-26.76,59.72-91.44,159-120.39,134.42-43.3-36.76-72.56-118.06-84.17-150.93-6.5-18.42,87.31-49.25,93.06-32.53,8.18,23.77,21,73.43,28.43,80.45,3.92,3.7,34.6-39.44,57.87-59.9C1620.52,318.1,1620.71,357,1612.16,376.08Z"/><path class="cls-10" d="M1384.16,331.88c8.36,18.8,40.49,50.56,51.18,55.24s67.12-46.35,65.93-58.27-34.84-74.84-53.49-84.48S1375.5,312.4,1384.16,331.88Z"/><path class="cls-10" d="M1496.86,315.64s-1.35-26.72,5.4-49.31c5.66-19,16.23-46.56,6.13-50-20.74-7.05-47.06,61.71-47.06,61.71s-6.74,32.19,13.19,41C1487,324.56,1496.86,315.64,1496.86,315.64Z"/><path class="cls-10" d="M1473.48,265c-1.36,10.81-13.33,3-13.33,3s14.52,15.37,8.8,26c-5.54,10.2-19.66.27-20.68-.43.76.82,13.73,15.3,6.89,25.37-7.12,10.45-19.59-1.95-20.39-2.76.48,1,6.54,14.33-.4,20.79-11.93,11.11-28.36-22.54-41-26.3,0,0-8.82,20.7-9.2,21.25,0,0-16.29-31.69-10.27-48.47,3.18-8.84,12-7.63,12-7.63s-6.39-9.63-1.25-17.73c2.65-4.15,11.64-3.6,11.64-3.6s-4.79-7.93.23-14.84c4-5.54,12.39-4.13,12.39-4.13s-1.06-9.75,4.85-14.07C1425.7,212.65,1476.38,241.8,1473.48,265Z"/><path class="cls-4" d="M1410.31,235.5a.15.15,0,0,1,.1-.29c19,5.52,38.2,17.41,50.43,33.12.41.51-.26,1.39-.81.91C1444.33,255.45,1429.29,244.47,1410.31,235.5Z"/><path class="cls-4" d="M1396.14,254.2c-.21-.09-.05-.44.18-.37,19.56,5.79,40.81,19.78,52.77,39.55.42.68.1,1.7-.43.95C1439.71,281.79,1413.27,262.19,1396.14,254.2Z"/><path class="cls-4" d="M1435.13,317.81c-12.21-18.51-29.12-31.25-48.37-41.84-.25-.14,0-.48.21-.42,10.83,2.61,22.4,10.64,30.87,17.65a58.45,58.45,0,0,1,17.94,24.18C1435.93,317.76,1435.39,318.21,1435.13,317.81Z"/><path class="cls-4" d="M1460.52,268c.49.62-1,.64-.49,1.28,1.94,2.66,12.24,19.72,7.52,25-3.79,4.25-12.13,2.1-15,0l-7.24-5.24,5,7.44a36.59,36.59,0,0,1,5,10.73c1,3.75,1,7.75-1,10.65a7.47,7.47,0,0,1-8.77,3.38c-3.45-1-6.81-3.54-9.43-6.28l-7.33-7.64,4.41,9.58a34.61,34.61,0,0,1,2.63,8.36c.47,2.85.47,5.8-.63,8.15a6.73,6.73,0,0,1-5.84,4c-2.56,0-5.29-1.47-7.72-3.12-4.95-3.43-9.22-8-13.68-12.25-2.21-2.16-4.44-4.34-6.77-6.41s-4.79-4.15-7.81-5c2.89,1.18,5,3.52,7.22,5.65s4.18,4.54,6.23,6.87a99.15,99.15,0,0,0,13.31,13.24c2.57,1.87,5.42,3.8,9.14,4a9.56,9.56,0,0,0,8.85-5.6,17.36,17.36,0,0,0,1.05-10.09,37.63,37.63,0,0,0-2.79-9.36l-2.92,1.93c3.07,3.26,6.48,6.08,11.06,7.53a10.81,10.81,0,0,0,7.32-.28,12.21,12.21,0,0,0,5.48-4.73c2.71-4.2,2.43-9.32,1.24-13.49a39.44,39.44,0,0,0-5.69-11.72l-2.26,2.2c3.75,2.53,12.81,5.95,19.53.1C1477.74,288,1463.37,270.9,1460.52,268Z"/><path class="cls-4" d="M1460.15,268a22.14,22.14,0,0,0,6.52,1.52,5.06,5.06,0,0,0,4.66-2.13c1-1.41,1.12-3.59,1.06-5.76s-.35-4.49-.69-6.85a17.27,17.27,0,0,1,3,6.53,10.15,10.15,0,0,1-.87,7.75,7.26,7.26,0,0,1-3.42,2.66,7.42,7.42,0,0,1-4.11.15A11.71,11.71,0,0,1,1460.15,268Z"/><path class="cls-6" d="M1506.37,328.85l-97.66,68s58.33,120.86,94.38,120.53,88.11-90.85,106.15-130,7.24-72.29-29.09-36.6c-36.54,35.91-49.34,50.33-50.51,49.85C1527.35,399.72,1506.37,328.85,1506.37,328.85Z"/><path class="cls-6" d="M1408.71,396.85s40.44,83.82,74.8,111.65c6.88,5.6,13.54,8.94,19.58,8.87,36-.31,88.12-90.85,106.15-130,11.18-24.22,11.28-46.16,1.12-50.87-6.25-2.91-16.38.68-30.22,14.28-36.53,35.9-49.33,50.32-50.51,49.84-2.28-.93-23.27-71.8-23.27-71.8Z"/><path class="cls-7" d="M1480.11,500.89l3.41,1.74c1.14.58,2.35,1,3.53,1.5l3.53,1.49,3.64,1.19a64.61,64.61,0,0,0,14.87,3.44,74.59,74.59,0,0,0,12.77.33c-.76.48-1.49.94-2.22,1.38a76.33,76.33,0,0,1-10.69-.42,92,92,0,0,1-36.17-13.25q-1.83-2-3.63-4.05A93.52,93.52,0,0,0,1480.11,500.89Zm62.11-112.09a20.83,20.83,0,0,1,2,.84l3.41,1.74a104.42,104.42,0,0,1,24.7,18,155.92,155.92,0,0,1,15.88,18.19c.27-.43.52-.87.75-1.3a159.09,159.09,0,0,0-15.64-17.91,104.29,104.29,0,0,0-30-20.58C1542.88,388.12,1542.55,388.47,1542.22,388.8ZM1418.9,416.68c.15.31.33.64.52,1,13-8.19,26.15-16.06,40-22.65a153.78,153.78,0,0,1,28.8-10.59c1.48-.37,3-.7,4.45-1,.69-.14,1.41-.27,2.1-.39a81.52,81.52,0,0,1,23.84-1c1.44.17,2.89.38,4.32.63-.14-.42-.29-.88-.43-1.33-1.25-.23-2.49-.42-3.74-.6a83.07,83.07,0,0,0-25.65,1.32c-.67.11-1.37.27-2,.42-1.06.21-2.1.46-3.14.71a155.2,155.2,0,0,0-29,10.75C1445,400.56,1431.86,408.47,1418.9,416.68Zm28-46.44h.23a65.21,65.21,0,0,1,15.18,1.59l3.76.75,3.68,1c1.23.37,2.49.66,3.68,1.08l3.61,1.31a98.07,98.07,0,0,1,14,6.48c.54.29,1.08.6,1.6.93a105.78,105.78,0,0,1,11.11,7.42c16.35,12.4,29.52,28.44,42.08,44.64,6.3,8.14,12.49,16.36,19.05,24.32.54.68,1.1,1.33,1.66,2,.25-.35.48-.7.73-1.06-.48-.58-1-1.14-1.43-1.72-6.52-7.94-12.69-16.16-19-24.32-12.56-16.25-25.75-32.41-42.27-45a108.53,108.53,0,0,0-9.86-6.67c-.54-.33-1.1-.66-1.66-1A95,95,0,0,0,1448.77,369Zm120.62-6.94c14.83,6.64,31.26,9.93,47.5,8.56l.34-1.27a60.06,60.06,0,0,1-10.56.19l-3.84-.15-3.8-.44c-1.27-.18-2.55-.25-3.8-.49l-3.76-.73a101.78,101.78,0,0,1-21-6.73C1568.25,362.59,1567.89,362.94,1567.54,363.3ZM1595.08,339a215.22,215.22,0,0,0,22.7,13.6c0-.54,0-1.06-.06-1.58a221.83,221.83,0,0,1-21.29-12.75C1596,338.5,1595.54,338.75,1595.08,339Z"/><path class="cls-4" d="M1431.81,408.19q3.86-3.19,7.81-6.29,8-6.31,16-12.56c10.61-8.29,21.43-16.26,32.35-24.12,6.2-4.46,12.28-9.16,18.67-13.35a.29.29,0,0,1,.35.46c-5.07,4.47-10.51,8.57-15.77,12.82s-10.5,8.55-15.85,12.71q-15.93,12.39-32.22,24.29c-3,2.23-6,4.59-9.16,6.68-1.61,1.08-3.14,2.28-4.76,3.33s-3.34,2-4.94,3.09a.16.16,0,0,1-.2-.26C1426.68,412.77,1429.15,410.38,1431.81,408.19Z"/><path class="cls-4" d="M1528.8,398.45c3.9,10,6.62,20.42,9.17,30.82,1.27,5.16,2.28,10.39,3.27,15.61a118.13,118.13,0,0,1,2.07,15.67c0,.19-.27.2-.32,0-1.61-5-2.81-10.27-4-15.41s-2.46-10.34-3.62-15.52c-2.33-10.36-5.06-20.65-7.09-31.08A.26.26,0,0,1,1528.8,398.45Z"/><path class="cls-11" d="M1483.51,508.5c6.88,5.6,13.54,8.94,19.58,8.87,36-.31,88.12-90.85,106.15-130,11.18-24.22,11.28-46.16,1.12-50.87Z"/><path class="cls-6" d="M1540.15,605l233.63-.86c-.69-11.05-17.63-252.47-114.82-275.36-4-.93-33.91-8-57.31,7.9-28.61,19.41-27.17,59.31-34.88,124.88A1113.65,1113.65,0,0,1,1540.15,605Z"/><path class="cls-7" d="M1551.84,504.12a173.41,173.41,0,0,0,16.45-6.85c7.68-3.65,15.14-7.7,22.47-12l1.1-.65c7.92-4.65,15.69-9.57,23.43-14.52l1.1-.7,5.09-3.26c17.32-11.09,34.52-22.54,53.15-31.45,9.31-4.42,19-8.16,29.23-10a64.33,64.33,0,0,1,15.49-.83c1.29.1,2.58.29,3.85.44.7.16,1.41.27,2.1.41.16.31.27.6.41.91-.89-.18-1.76-.29-2.62-.47-1.28-.17-2.53-.34-3.8-.44a63.15,63.15,0,0,0-15.28.85c-10.08,1.81-19.72,5.55-29,9.95-18.53,8.91-35.69,20.36-53,31.49-1.72,1.1-3.42,2.2-5.13,3.32-.37.23-.74.46-1.08.69-7.6,4.88-15.22,9.72-23,14.29l-1.1.66c-7.5,4.39-15.12,8.56-23,12.32a170.84,170.84,0,0,1-17.18,7.15Zm20.19-95c.08.08.18.15.25.23,14.72,14.31,25.83,31.82,36.32,49.47,2.23,3.76,4.45,7.54,6.69,11.3.17.3.36.61.56.94,2.83,4.76,5.69,9.53,8.68,14.21,2.46,3.9,5,7.74,7.79,11.48.25.36.5.71.79,1.08A135.37,135.37,0,0,0,1643.17,510a76.75,76.75,0,0,0,11.75,10.14l1.6,1.12a17.39,17.39,0,0,0,1.66,1l3.37,2a58.54,58.54,0,0,0,7.17,3,97.46,97.46,0,0,0,30.51,4.9,142.12,142.12,0,0,0,30.72-3.55c9.61-2.07,19-4.84,28.47-7.6-.1-.29-.18-.6-.26-.91-9.43,2.74-18.84,5.48-28.42,7.52a140.57,140.57,0,0,1-30.49,3.46,96,96,0,0,1-30.16-4.88,60.14,60.14,0,0,1-7-3l-3.3-1.93c-.54-.33-1.11-.62-1.64-1l-1.56-1.1a76.88,76.88,0,0,1-11.53-10,128.18,128.18,0,0,1-9.45-11.32c-.27-.35-.52-.71-.79-1.08-2.89-3.94-5.61-8-8.21-12.13-3-4.69-5.83-9.45-8.66-14.23-.2-.31-.37-.62-.54-.95q-3.36-5.64-6.68-11.28c-10.47-17.66-21.57-35.33-36.44-49.81-.25-.25-.52-.5-.79-.75C1572.34,408.1,1572.19,408.62,1572,409.14ZM1561,455c1.27,1.62,2.57,3.22,3.88,4.8A162,162,0,0,0,1586.42,482c1.43,1.13,2.87,2.25,4.34,3.31.33.25.67.49,1,.72a60.07,60.07,0,0,0,7.56,4.61l1.72.92c.58.31,1.17.52,1.77.79l3.59,1.54a63.7,63.7,0,0,0,7.48,2.15,88.83,88.83,0,0,0,19.23,1.81c.5,0,1,0,1.48,0,3.4-.06,6.79-.31,10.18-.7a141.82,141.82,0,0,0,30.07-7.25c9.74-3.39,19.19-7.52,28.63-11.59s18.9-8.15,28.76-11c2.91-.85,5.9-1.56,8.91-2.12-.1-.29-.2-.56-.29-.83a90.79,90.79,0,0,0-8.87,2.1c-9.93,2.84-19.42,6.95-28.89,11s-18.88,8.15-28.6,11.49a139.46,139.46,0,0,1-29.83,7.15c-3.61.39-7.23.64-10.86.68-.5,0-1,0-1.48,0a87.18,87.18,0,0,1-18.19-1.85,56.31,56.31,0,0,1-7.33-2.11l-3.51-1.5c-.58-.27-1.19-.48-1.75-.79l-1.68-.91a58.72,58.72,0,0,1-7-4.24c-.33-.23-.67-.46-1-.71-1.6-1.14-3.15-2.36-4.69-3.57a161.4,161.4,0,0,1-21.31-22.1c-1.52-1.85-3-3.72-4.51-5.59C1561.23,453.92,1561.12,454.46,1561,455Zm24-85.62a91.57,91.57,0,0,0,35.21,1.91,83.87,83.87,0,0,0,24.3-8.32c.62-.3,1.23-.63,1.85-1q1.42-.75,2.82-1.56a156,156,0,0,0,24.93-18.32c-.29-.29-.56-.58-.85-.85a151.89,151.89,0,0,1-24.72,18.09q-2,1.13-4,2.18c-.64.33-1.25.63-1.89.94a80.64,80.64,0,0,1-22.68,7.5,64.64,64.64,0,0,1-15.23.81l-3.84-.15-3.8-.44c-1.27-.18-2.55-.25-3.8-.49l-3.76-.73c-1.35-.27-2.7-.58-4-.9C1585.42,368.49,1585.24,368.91,1585.07,369.36Zm13.52-28a179.42,179.42,0,0,0,32.8,17.41,103.55,103.55,0,0,0,11.34,3.7c.62.18,1.23.33,1.85.48a94.87,94.87,0,0,0,46.9.18c-.25-.39-.52-.75-.79-1.12A64.8,64.8,0,0,1,1677,364.3l-3.82.31-3.82,0c-1.29,0-2.56.08-3.84,0l-3.81-.25a103.4,103.4,0,0,1-15.24-2.37l-1.81-.46a108.62,108.62,0,0,1-12.71-4.07,178.18,178.18,0,0,1-32.61-17.26C1599.07,340.59,1598.82,341,1598.59,341.36Zm-57.06,236c1.85,0,3.72.13,5.59.19a3.54,3.54,0,0,0,.46,0l.71.06a79.68,79.68,0,0,1,28.62,8.35,125.73,125.73,0,0,1,17.2,10.72h1.22a131,131,0,0,0-18.07-11.42,80.4,80.4,0,0,0-28.29-8.4c-.39,0-.79-.08-1.18-.1a.36.36,0,0,0-.15,0c-2-.06-4-.23-6-.23C1541.58,576.78,1541.56,577.05,1541.53,577.32Zm-1.12,9.89c2.54-3.28,5.18-6.48,7.88-9.62.24-.25.45-.5.68-.75s.21-.25.33-.39c6.8-7.67,14.23-14.89,22.81-20.48a61.53,61.53,0,0,1,13.71-6.75c1.2-.4,2.43-.73,3.67-1.08s2.46-.62,3.74-.79c2.5-.48,5.09-.52,7.61-.79a79.28,79.28,0,0,1,30.15,4.76,138.44,138.44,0,0,1,27.38,13.95c15.23,9.71,29.25,21.19,44.2,31.39h.67c-15-10.37-29.12-22.06-44.5-32a140.84,140.84,0,0,0-27.48-14.08,80,80,0,0,0-30.45-4.84c-2.57.25-5.17.29-7.72.77-1.29.17-2.54.54-3.82.79s-2.5.7-3.72,1.1a62.83,62.83,0,0,0-13.92,6.81c-8.7,5.65-16.18,12.92-23.05,20.59-.27.31-.54.62-.79.93s-.46.5-.67.77q-3.36,3.86-6.5,7.85C1540.54,586,1540.47,586.61,1540.41,587.21Z"/><path class="cls-10" d="M1690.1,353.91c47.71,55.22,112.06,152.72,85.77,174.28-43.21,35.45-169.43,55.87-198.39,59.36-12.5,1.51-37.53-80.18-29.19-90.75s141.8-18,142.74-26.22c.53-4.64-19.73-45.07-32.77-94.64C1643.22,318.78,1676.65,338.34,1690.1,353.91Z"/><path class="cls-10" d="M1570.16,490.07s-38.3-.29-63.35.69c-14,.55-37.85,3.64-47.94,8.74-15.08,7.63-73.28,49.17-63.52,63.5,8.85,13,54.32-29.07,54.32-29.07s-49.64,38.37-36.12,52,58.58-40.67,58.58-40.67-50.11,40.56-33.94,52.44c12.22,9,55.81-37.93,55.81-37.93s-42.84,35.16-30.67,44.94c13.45,10.8,56.4-30,56.4-30,35.11,19.64,59.87,14.63,77,9C1600.94,582.36,1570.16,490.07,1570.16,490.07Z"/><path class="cls-4" d="M1466,519.56c-6,4.3-12.09,8.61-17.68,13.42s-11,9.83-16.14,15.14c-12.55,13-18.38,23.15-18,22.57,10.12-13.87,29.87-31.41,35.46-36.22s10.92-9.89,16.5-14.7C1466.32,519.65,1466.13,519.46,1466,519.56Z"/><path class="cls-4" d="M1483.74,539.43c-7.42,5.82-15,11.32-22.16,17.47s-16.82,15-23.51,21.62c-.51.5,0,1.46.54,1,6.94-6.32,17.25-15,24.27-21.19s13.8-12.75,21-18.7C1484,539.51,1483.85,539.35,1483.74,539.43Z"/><path class="cls-4" d="M1502,553.75c-11.79,8.31-22,18.79-31.83,29.3-.49.52.1.6.63.1,10.39-9.94,18.48-17.81,31.49-29C1502.53,554,1502.29,553.58,1502,553.75Z"/><path class="cls-4" d="M1575.55,488.87c-17.47-.12-68.79-.26-86.22,1.08-15.36,1.18-28.14,4.51-41.09,13.07-27.76,18.36-45.65,39.92-50.09,46.34-2.69,3.89-6.62,10.08-3,14.39,4.36,5.26,20.47.13,37.46-15.24.61-.55.23-.9-.4-.39-23.85,19.33-33.36,17.09-35.84,13.79-1.61-2.14-.06-5.84,1.39-8.67,2.09-4.1,5.39-7.86,8.45-11.24,10.58-11.68,23.35-22.39,36.09-31.63,14.64-10.64,30.2-16.64,48.26-18.12,17.85-1.46,67.27-1,85.09-2.72C1576,489.5,1575.93,488.87,1575.55,488.87Z"/><path class="cls-4" d="M1410.71,578.29c1-4.78,4.43-9.12,7.15-13.06a87.76,87.76,0,0,1,11.31-13.74c.19-.19.5,0,.33.26a138.29,138.29,0,0,0-10,13.23,75.77,75.77,0,0,0-4.43,7.86c-1.26,2.6-2.73,5.62-2.09,8.58,1.24,5.68,8.45,5.54,12.71,4a47.91,47.91,0,0,0,8-3.86,78,78,0,0,0,9.74-7.36c.27-.23.95-.14.68.11-6.36,6.07-18.41,18.66-28.24,14A8.9,8.9,0,0,1,1410.71,578.29Z"/><path class="cls-6" d="M1569.62,485.12l45.87,104.1s160.3-36.13,169.6-66.6-40.94-111.92-86.27-162.68c-44.6-49.93-51.18-16.07-40.1,22.57S1688,465.66,1686,469,1569.62,485.12,1569.62,485.12Z"/><path class="cls-7" d="M1703.86,424.76a64.33,64.33,0,0,1,15.49-.83c1.29.1,2.58.29,3.85.44s2.57.43,3.82.78c2.55.54,5,1.52,7.43,2.29a78.48,78.48,0,0,1,24,14.52c.41.72.81,1.41,1.22,2.1a78.9,78.9,0,0,0-25.53-15.85c-2.45-.75-4.83-1.71-7.33-2.25-1.24-.35-2.51-.49-3.74-.74s-2.53-.34-3.8-.44a63.15,63.15,0,0,0-15.28.85c-9.75,1.75-19.11,5.32-28.07,9.52-.12-.28-.22-.59-.33-.88C1684.61,430.06,1694,426.52,1703.86,424.76Zm-130.07,69.81.46,1.06c5.94-3,11.76-6.23,17.51-9.6l1.1-.66c2-1.18,4.05-2.41,6.06-3.62q-1.37.13-2.67.3c-1.44.87-2.91,1.74-4.39,2.61l-1.1.65C1585.19,488.55,1579.54,491.66,1573.79,494.57Zm46.88-15.47c1.27,2.07,2.54,4.15,3.86,6.19,2.46,3.9,5,7.74,7.79,11.48.25.36.5.71.79,1.08A135.37,135.37,0,0,0,1643.17,510a76.75,76.75,0,0,0,11.75,10.14l1.6,1.12a17.39,17.39,0,0,0,1.66,1l3.37,2a58.54,58.54,0,0,0,7.17,3,97.46,97.46,0,0,0,30.51,4.9,142.12,142.12,0,0,0,30.72-3.55c10.09-2.16,20-5.11,29.85-8,8.74-2.52,17.48-5.11,26.4-6.78,0-.29,0-.6,0-.91-9,1.68-17.86,4.24-26.64,6.79-9.89,2.87-19.74,5.78-29.79,7.92a140.57,140.57,0,0,1-30.49,3.46,96,96,0,0,1-30.16-4.88,60.14,60.14,0,0,1-7-3l-3.3-1.93c-.54-.33-1.11-.62-1.64-1l-1.56-1.1a76.88,76.88,0,0,1-11.53-10,128.18,128.18,0,0,1-9.45-11.32c-.27-.35-.52-.71-.79-1.08-2.89-3.94-5.61-8-8.21-12.13-1.2-1.89-2.38-3.78-3.53-5.69ZM1587.75,483c1,.77,2,1.54,3,2.27.33.25.67.49,1,.72a60.07,60.07,0,0,0,7.56,4.61l1.72.92c.58.31,1.17.52,1.77.79l3.59,1.54a63.7,63.7,0,0,0,7.48,2.15,88.83,88.83,0,0,0,19.23,1.81c.5,0,1,0,1.48,0,3.4-.06,6.79-.31,10.18-.7a141.82,141.82,0,0,0,30.07-7.25c9.74-3.39,19.19-7.52,28.63-11.59s18.9-8.15,28.76-11,20.21-4.36,30.27-2.41a37.27,37.27,0,0,1,10.09,3.63c-.17-.39-.37-.79-.56-1.18a36.82,36.82,0,0,0-9.37-3.26c-10.24-2-20.79-.46-30.68,2.37s-19.42,6.95-28.89,11-18.88,8.15-28.6,11.49a139.46,139.46,0,0,1-29.83,7.15c-3.61.39-7.23.64-10.86.68-.5,0-1,0-1.48,0a87.18,87.18,0,0,1-18.19-1.85,56.31,56.31,0,0,1-7.33-2.11l-3.51-1.5c-.58-.27-1.19-.48-1.75-.79l-1.68-.91a58.72,58.72,0,0,1-7-4.24c-.33-.23-.67-.46-1-.71-.83-.58-1.64-1.2-2.43-1.82C1588.85,482.92,1588.29,483,1587.75,483Zm66.3-127c0,.47,0,.95.08,1.43a162.83,162.83,0,0,0,20-15.33l2.7-2.41c-.36-.25-.71-.46-1-.68-.81.76-1.62,1.47-2.45,2.2A161.14,161.14,0,0,1,1654.05,356Zm.64,7.54c.07.48.13.95.21,1.43a92.18,92.18,0,0,0,37.47-2.08,69.42,69.42,0,0,0,6.88-2.45l-.44-.5-.46-.52q-3.13,1.26-6.35,2.21a66.18,66.18,0,0,1-15,2.66l-3.82.31-3.82,0c-1.29,0-2.56.08-3.84,0l-3.81-.25Q1658.16,364.11,1654.69,363.55Zm-58.2,182.53.36.81c1.33-.12,2.66-.2,4-.33a79.28,79.28,0,0,1,30.15,4.76,138.44,138.44,0,0,1,27.38,13.95c4.68,3,9.26,6.13,13.77,9.39h0c.25-.08.5-.16.75-.22-4.65-3.37-9.35-6.65-14.17-9.77a140.84,140.84,0,0,0-27.48-14.08,80,80,0,0,0-30.45-4.84C1599.38,545.88,1597.91,546,1596.49,546.08Z"/><path class="cls-4" d="M1633.85,572c-1.56-3-3.06-5.94-4.56-8.93q-4.55-9.08-9-18.2c-5.94-12.07-11.53-24.3-17-36.59-3.1-7-6.46-13.9-9.25-21a.29.29,0,0,1,.52-.24c3.34,5.88,6.24,12,9.33,18.05s6.22,12,9.2,18.11c5.92,12.09,11.62,24.26,17.19,36.51,1.56,3.43,3.27,6.84,4.67,10.34.73,1.79,1.59,3.53,2.28,5.34s1.27,3.67,2,5.46a.17.17,0,0,1-.3.14C1637.3,578,1635.46,575.08,1633.85,572Z"/><path class="cls-12" d="M1612,582.1l3.7,7c13.81-3.88,30-7.64,44.52-11.88,29.65-8.27,59.29-17,87.69-29,10.53-4.6,21.13-9.49,30.11-16.75,2.89-2.49,5.66-5.31,7.11-8.92-2.79,7.36-9.8,12-16.08,16.25-19.83,12.14-42,19.77-63.91,27.11a884.31,884.31,0,0,1-89.57,23.42l-.14,0-.06-.13-3.37-7.2Z"/><path class="cls-12" d="M1571.41,489.18l-1.89-4-.06-.13.15,0c28.33-3.71,68-8.31,95.78-12.51,4-.59,7.94-1.21,11.88-1.94,2.67-.58,5.47-.89,7.93-2,0,0,0,0,0,.05a.28.28,0,0,0-.08.15c0,.06,0,0,0,0-.54-4.76-2.29-9.49-3.58-14.16-3.42-11.18-7.28-23.47-10.93-34.52l-7.45-23q8.57,22.59,16.27,45.5c2.57,7.68,5.13,15.29,7.07,23.18a10.86,10.86,0,0,1,.4,3.38,1.59,1.59,0,0,1-1,1.12c-6.47,2.43-13.46,3-20.22,4.24-15.94,2.34-31.94,4.27-48,6.06-14,1.47-34.18,3.58-48.1,4.69l.09-.15,1.69,4.11Z"/><path class="cls-12" d="M1661.37,407c3.57,4.52,6.82,9.58,10.13,14.29A59.57,59.57,0,0,1,1661.37,407Z"/><path class="cls-10" d="M1614.66,371.38c13.6,3.87,38.14-16.06,48.23-32.67.68-1.14-2.05-48-1.63-57.39.1-1.92-59.29,11.6-59.29,11.6s4.88,19.86,4,36.15C1605.93,330.44,1601.52,367.63,1614.66,371.38Z"/><path class="cls-4" d="M1662.08,310.69c-27.76,19.6-54.79,12.08-56,11.72a162.46,162.46,0,0,0-4.1-29.5s59.39-13.51,59.29-11.59C1661.06,285.71,1661.56,298.37,1662.08,310.69Z"/><path class="cls-10" d="M1669.46,210.87c6.48,20.77-4.15,81-18.87,94.47-21.34,19.56-56.47,21.63-73.14-4.06-16.16-24.91-.92-103.12,15.54-115.4C1617.24,167.79,1659.89,180.18,1669.46,210.87Z"/><path class="cls-4" d="M1619.43,248.66c.06-.14.28.26.24.42-.9,4-1.26,8.78,2.14,10.82.11.06.06.26-.07.22C1617.39,258.63,1617.93,252.33,1619.43,248.66Z"/><path class="cls-4" d="M1623.85,245.13c6.6.75,4.61,13.9-1.5,13.2S1618.32,244.5,1623.85,245.13Z"/><path class="cls-4" d="M1596,245.5c0-.16-.35.15-.37.32-.49,4.09-1.73,8.69-5.62,9.48-.12,0-.14.23,0,.23C1594.63,255.58,1596.22,249.46,1596,245.5Z"/><path class="cls-4" d="M1593,240.7c-6.48-1.49-9,11.57-3,13S1598.46,242,1593,240.7Z"/><path class="cls-4" d="M1629.94,239.91a54.14,54.14,0,0,1-4.82-2.56c-1.83-1-3.4-1.62-4.41-3.55a2.82,2.82,0,0,1,1-3.3c2.23-1.45,4.79-.78,7,.34a10.24,10.24,0,0,1,5.17,5.26C1635,238.51,1632.21,240.86,1629.94,239.91Z"/><path class="cls-4" d="M1589,233.32a54.59,54.59,0,0,0,5.43-.57c2.08-.24,3.76-.21,5.43-1.63a2.82,2.82,0,0,0,.35-3.42c-1.53-2.18-4.15-2.51-6.66-2.33a10.22,10.22,0,0,0-6.77,2.94C1584.8,230.12,1586.49,233.34,1589,233.32Z"/><path class="cls-4" d="M1617.2,286.82c-1.12.81-2.29,2-3.79,1.88a11,11,0,0,1-4.22-1.69.15.15,0,0,0-.21.18,5.56,5.56,0,0,0,4.84,3c1.89,0,3-1.49,3.74-3.11C1617.66,286.84,1617.36,286.71,1617.2,286.82Z"/><path class="cls-4" d="M1614.76,274a14,14,0,0,1-10.18,4.77,17.41,17.41,0,0,1-5-.53,5.39,5.39,0,0,1-.94-.25c-.29-.08-.55-.16-.87-.27a1.06,1.06,0,0,1-.68-1v0a1.45,1.45,0,0,1,.1-.41v0l.07-.36c.38-3.14,1.41-7.86,1.41-7.86-1.23.4-7.47,2.14-7.13.52,2.86-13.44,6-28.38,11.73-41.14a.38.38,0,0,1,.72.22c-2.24,13-6.75,25.55-9.2,38.6,2-.43,5.2-1.28,6.84-1,.42.2-2.14,9.09-2.21,10.52a.43.43,0,0,0,0,.15c5.16,1.47,9.37.48,15-2.28C1614.78,273.38,1615.06,273.7,1614.76,274Z"/><path class="cls-4" d="M1601.65,276.92s2.21,4.17,5.81,6.1a7.48,7.48,0,0,0,4.45,1c3.38-.36,3.92-3.33,3.7-6a17.62,17.62,0,0,0-.86-4.12A21.56,21.56,0,0,1,1601.65,276.92Z"/><path class="cls-8" d="M1607.46,283a7.48,7.48,0,0,0,4.45,1c3.38-.36,3.92-3.33,3.7-6C1612.08,277.83,1608.27,279.68,1607.46,283Z"/><path class="cls-4" d="M1659.58,232.25c2.37,6,7.25,20,10,21,2.64-19.51,2.73-37.21-2.11-48.08a40,40,0,0,0-8.28-12.07C1658.82,198.32,1657.05,226,1659.58,232.25Z"/><path class="cls-4" d="M1607.41,204.35a19.37,19.37,0,0,0,16.23,9.57c6.54.11,13.64-3.15,17-8.9a.15.15,0,0,1,.26.16c-3.62,6.15-9.93,10.62-17.3,10.31a19.91,19.91,0,0,1-16.63-10.9A.24.24,0,0,1,1607.41,204.35Z"/><path class="cls-4" d="M1567.19,173.3a24.73,24.73,0,0,1,12.72-11.21c7.52-3,15.06-1,22.51,1.15a.17.17,0,0,1-.09.32c-6.35-1.8-12.89-3.25-19.38-1.28a24.33,24.33,0,0,0-13.15,9.65c-6.35,9.62-4.44,23.31,4.45,30.68a24,24,0,0,0,18.33,5.26c.26,0,.37.35.11.39-11.9,1.94-24.17-5.53-27.3-17.31A24.64,24.64,0,0,1,1567.19,173.3Z"/><path class="cls-4" d="M1671.22,222.87S1685.16,205,1678.4,192c-3.84-7.35-20.46-9.38-20.46-9.38s-3.88-8.5-17-14-30.82-2.28-30.82-2.28-11.79-9.79-25.28-4.92c-18.82,6.78-21.23,33.21-5.48,44.6,11.06,8,29.35.16,29.35.16,1.54.49,16,13.06,30.75.77,0,0,8.39,10.57,18.38,5.94C1657.86,212.88,1660.81,222.62,1671.22,222.87Z"/><path class="cls-10" d="M1656.91,260s13.87-19.25,22.62-14.28-1.86,33-12.27,36.72-14-5.86-14-5.86Z"/><path class="cls-4" d="M1676.29,253.63c.16,0,.19.22,0,.28-7.31,2.84-11.22,9.52-14,16.47,2.2-2.66,5.16-4.09,8.72-1.47.19.14,0,.43-.2.38-3-.68-5.12-.19-7.16,2.16a31.52,31.52,0,0,0-3.5,5.72c-.34.65-1.51.28-1.25-.46a1.77,1.77,0,0,1,.06-.17C1659,267.28,1666.33,254.42,1676.29,253.63Z"/><rect class="cls-4" x="1523.95" y="591.95" width="12.9" height="8.42" transform="translate(3060.8 1192.33) rotate(-180)"/><rect class="cls-4" x="1507.22" y="591.39" width="12.9" height="8.42" transform="translate(3027.33 1191.21) rotate(-180)"/><rect class="cls-4" x="1490.48" y="590.84" width="12.9" height="8.42" transform="translate(2993.87 1190.1) rotate(-180)"/><rect class="cls-4" x="1473.75" y="590.28" width="12.9" height="8.42" transform="translate(2960.41 1188.99) rotate(-180)"/><rect class="cls-4" x="1457.02" y="589.72" width="12.9" height="8.42" transform="translate(2926.94 1187.87) rotate(-180)"/><rect class="cls-4" x="1440.29" y="589.17" width="12.9" height="8.42" transform="translate(2893.48 1186.76) rotate(-180)"/><rect class="cls-4" x="1423.56" y="588.61" width="12.9" height="8.42" transform="translate(2860.02 1185.65) rotate(-180)"/><rect class="cls-4" x="1406.82" y="588.06" width="12.9" height="8.42" transform="translate(2826.55 1184.53) rotate(-180)"/><rect class="cls-4" x="1390.09" y="587.5" width="12.9" height="8.42" transform="translate(2793.09 1183.42) rotate(-180)"/><polygon class="cls-9" points="1386.93 605.22 1540.01 605.22 1540.01 594.97 1386.93 590.7 1386.93 605.22"/><polygon class="cls-4" points="1237.53 564.8 1490.23 564.8 1450.04 376.67 1197.34 376.67 1237.53 564.8"/><polygon class="cls-9" points="1228.18 564.8 1480.88 564.8 1440.7 376.67 1187.99 376.67 1228.18 564.8"/><path class="cls-4" d="M1312.6,459.83c1.37,8.63,9.47,15.63,18.1,15.63s14.52-7,13.15-15.63-9.47-15.62-18.1-15.62S1311.23,451.2,1312.6,459.83Z"/><polygon class="cls-4" points="1265.86 613.92 1332.59 613.92 1372.78 508.5 1306.05 508.5 1265.86 613.92"/><polygon class="cls-4" points="1254.88 613.92 1321.61 613.92 1361.8 508.5 1295.07 508.5 1254.88 613.92"/><path class="cls-6" d="M670.74,222.5c-20.83,0-37.14-43.71-37.14-99.5s16.31-99.5,37.14-99.5,37.13,43.7,37.13,99.5S691.56,222.5,670.74,222.5Zm0-192.54c-14.82,0-30.68,37.38-30.68,93s15.86,93,30.68,93,30.68-37.38,30.68-93S685.56,30,670.74,30Z"/><path class="cls-6" d="M608.44,182.61c-11.85,0-20.11-3.35-23.87-9.86-5.27-9.12-.73-22.82,12.77-38.58,12.78-14.91,32.25-30.29,54.83-43.33S697.81,68.64,717.11,65c20.4-3.82,34.53-.9,39.8,8.22s.73,22.82-12.78,38.58c-12.77,14.91-32.25,30.3-54.82,43.33S643.66,177.37,624.36,181A87.62,87.62,0,0,1,608.44,182.61ZM733.23,69.82a82.13,82.13,0,0,0-14.93,1.55c-18.6,3.48-40.94,12.38-62.9,25.06S614.56,124,602.25,138.37c-11.42,13.33-15.83,24.68-12.09,31.15s15.77,8.33,33,5.11c18.6-3.48,40.94-12.38,62.9-25.06s40.84-27.58,53.15-41.94C750.65,94.3,755.05,83,751.32,76.48,748.78,72.09,742.43,69.82,733.23,69.82Z"/><path class="cls-6" d="M733,182.61A87.63,87.63,0,0,1,717.11,181c-19.3-3.61-42.36-12.78-64.94-25.82s-42-28.42-54.83-43.33c-13.5-15.76-18-29.46-12.77-38.58s19.4-12,39.79-8.22c19.3,3.61,42.37,12.77,64.95,25.81s42.05,28.42,54.82,43.33c13.51,15.76,18,29.46,12.78,38.58C753.15,179.26,744.88,182.61,733,182.61ZM608.24,69.82c-9.2,0-15.55,2.27-18.08,6.66-3.74,6.47.67,17.82,12.09,31.15,12.31,14.36,31.18,29.26,53.15,41.94s44.3,21.58,62.9,25.06c17.25,3.23,29.28,1.37,33-5.11s-.67-17.82-12.09-31.15C726.92,124,708,109.11,686.08,96.43s-44.3-21.58-62.9-25.06A82.23,82.23,0,0,0,608.24,69.82Z"/><circle class="cls-6" cx="670.74" cy="123" r="14.61"/><polygon class="cls-6" points="1002.64 128.5 898.8 300.5 794.96 128.5 872.22 128.5 898.8 178.46 925.38 128.5 1002.64 128.5"/><polygon class="cls-11" points="962.83 128.5 898.8 237.6 834.78 128.5 872.22 128.5 898.8 178.46 925.38 128.5 962.83 128.5"/><polygon class="cls-6" points="1217.57 70.49 1195.2 196.77 1121.31 220.23 1047.41 196.77 1025.04 70.49 1121.31 23.5 1217.57 70.49"/><polygon class="cls-11" points="1121.31 210.17 1121.31 33.55 1207.63 75.7 1187.57 188.94 1121.31 210.17"/><path class="cls-7" d="M1112.85,71.29h17.05l37.75,99.26H1147.8l-9.23-24.75H1103.9l-9.09,24.75H1075Zm22.23,61-13.71-39-14.26,39Z"/></svg>