<svg id="Слой_1" data-name="Слой 1" xmlns="http://www.w3.org/2000/svg" viewBox="0 0 1800 600"><defs><style>.cls-1{fill:#ffc800;}.cls-2,.cls-7{opacity:0.1;}.cls-3{fill:#306;}.cls-4{fill:#4a148c;}.cls-5{fill:#dcdcdc;}.cls-6{opacity:0.3;}.cls-8{opacity:0.2;}.cls-9{fill:#fff;}.cls-10{fill:#ed776a;}.cls-11{fill:#ffc400;}.cls-12{fill:#a8a8a8;}.cls-13,.cls-15,.cls-16,.cls-17{fill:none;}.cls-14{fill:#472681;}.cls-15,.cls-16,.cls-17{stroke:#ffc800;stroke-miterlimit:10;}.cls-16{stroke-dasharray:4.02 4.02;}.cls-17{stroke-dasharray:4.01 4.01;}.cls-18{fill:#774442;}.cls-19{fill:#c8c8c8;}.cls-20{fill:#f196b9;}.cls-21{fill:#33245e;}</style></defs><path class="cls-1" d="M62.53,346.26s53.6-7.51,41.07-72.21C103.6,274.05,43.71,287.49,62.53,346.26Z"/><path class="cls-2" d="M62.53,346.26s53.6-7.51,41.07-72.21C103.6,274.05,43.71,287.49,62.53,346.26Z"/><path class="cls-3" d="M65.24,332.75c1.05-3.27,2.28-6.49,3.65-9.64,0-.42.1-.83.14-1.23.08-.89.15-1.78.22-2.67.15-1.93.27-3.86.39-5.79.22-3.87.47-7.74.53-11.61,0-.21.32-.2.33,0,0,3.87.09,7.74-.06,11.62q-.12,2.9-.32,5.79c0,.43-.06.86-.09,1.29a114.85,114.85,0,0,1,10.75-18.38c1.84-2.57,3.78-5.05,5.86-7.43s4.39-4.77,6.55-7.19c.14-.16.38.08.23.23a96.76,96.76,0,0,0-10.33,13.74c-1.63,2.46-3.16,5-4.63,7.56l.5-.19c.63-.26,1.27-.53,1.91-.77,1.45-.56,2.91-1.12,4.37-1.66,2.88-1.07,5.76-2.12,8.63-3.21.17-.06.29.24.12.3-2.85,1.14-5.67,2.34-8.49,3.56l-4.15,1.78-2.09.87a6.75,6.75,0,0,1-1.43.5c-1.08,1.94-2.15,3.89-3.13,5.87a140.41,140.41,0,0,0-6.55,15.44l-.39,1.12a30.49,30.49,0,0,1,4.39-2.12L77.7,328c3.76-1.73,7.49-3.48,11.1-5.51.18-.11.34.18.15.28-3.68,2-7.29,4.16-11,6.16-1.84,1-3.7,2-5.58,2.89a17.55,17.55,0,0,1-5,2,63.43,63.43,0,0,0-3.51,15.21c-.6,7.31-.53,14.69-.7,22a.1.1,0,0,1-.2,0c-.53-6.65-.83-13.37-.86-20.05A58.08,58.08,0,0,1,65.24,332.75Z"/><path class="cls-3" d="M73.49,294.7A64.07,64.07,0,0,1,74,306.11a.09.09,0,0,1-.17,0c-.21-3.79-.25-7.56-.69-11.33C73.15,294.57,73.47,294.49,73.49,294.7Z"/><path class="cls-3" d="M88.82,297.94a41.16,41.16,0,0,0,6.89-3.39c.17-.11.34.18.16.29a26.38,26.38,0,0,1-7,3.33C88.77,298.2,88.69,298,88.82,297.94Z"/><path class="cls-3" d="M60.82,449c0-5.92.15-11.85.22-17.77.11-19.67.28-39.34.63-59q.42-23.42,1.09-46.84a.24.24,0,0,1,.14-.2L63,312.37c0-.11.13-.16.26-.16s.26.06.26.17q0,6.4.08,12.81a.26.26,0,0,1,.12.19c.79,27.79,1.49,55.58,1.65,83.38,0,5.65,0,11.3.06,16.95q.28,27.19.21,54.37c0,2.89.05,5.77.06,8.66.06,16.58-.17,33.16-.18,49.74,0,.89-1,1.34-2,1.38S61,539.43,61,538.41c0-18.29-.13-36.57-.13-54.86C60.77,472,60.73,460.5,60.82,449Z"/><path class="cls-1" d="M83.2,431s25.78-19.11,50.25-6.2,28.31,62.66,28.31,62.66-35.93,5.14-58.56-16.4C81.4,450.3,83.2,431,83.2,431Z"/><path class="cls-3" d="M76.17,432.16a31,31,0,0,1,14.94-2,22.38,22.38,0,0,1,3.16-.3l3.63-.28c2.51-.19,5-.34,7.52-.53,5.09-.38,10.19-.69,15.26-1.2.18,0,.22.3,0,.32-5,.65-10,1.36-15.07,1.87-2.59.26-5.18.53-7.78.71-.61.05-1.24.12-1.88.19.77.17,1.53.35,2.29.56A61.81,61.81,0,0,1,110,436.3c2,.37,4.05.93,6,1.4,3.19.75,6.37,1.58,9.54,2.41,6.26,1.64,12.45,3.48,18.66,5.29a.16.16,0,0,1-.09.31c-6.21-1.52-12.45-2.91-18.67-4.39-3-.72-6-1.43-9.07-2.17-.78-.2-1.57-.37-2.37-.55a75.48,75.48,0,0,1,18.33,15.93,99.5,99.5,0,0,1,12.73,20.08c.09.19-.17.37-.27.18a97.82,97.82,0,0,0-15.41-20.23l.33,1,1.44,4.56c.95,3,1.92,6.06,2.82,9.11.06.21-.24.28-.31.08-1.09-2.94-2.12-5.9-3.16-8.86L129,456.13c-.27-.75-.52-1.51-.77-2.26-.08-.24-.17-.47-.25-.7a91.2,91.2,0,0,0-9.15-7.79,68.68,68.68,0,0,0-13.68-7.84c.09.44.17.89.26,1.32.25,1.17.52,2.35.76,3.52q.75,3.66,1.45,7.34c1,5,1.57,10,2.51,15a.17.17,0,0,1-.32.08c-1.15-5-2.64-10-3.76-15-.56-2.51-1.13-5-1.65-7.55l-.72-3.53c-.13-.66-.28-1.32-.36-2-.47-.18-.93-.4-1.4-.57-6.76-2.51-14.24-4.33-21.45-2.94A21,21,0,0,0,64.93,445.7c-.24.56-1.12.21-1-.36C65.34,439.15,70.51,434.54,76.17,432.16Z"/><path class="cls-3" d="M115.64,453.41c.73,3.26,1.45,6.53,2.18,9.8a72.07,72.07,0,0,1,1.8,9.53c0,.13-.17.13-.21,0a74.56,74.56,0,0,1-2.19-9.6c-.64-3.22-1.27-6.45-1.9-9.67C115.28,453.28,115.6,453.2,115.64,453.41Z"/><path class="cls-3" d="M140.58,461.71c3.28,1.67,6.46,3.56,9.89,4.92a.16.16,0,1,1-.13.3,105.17,105.17,0,0,1-9.84-5.09C140.42,461.79,140.49,461.67,140.58,461.71Z"/><path class="cls-1" d="M77.41,395.91s31.5,2,46.16-18.77,11.37-50.45,11.37-50.45-33.1,4-46.24,18.94S77.41,395.91,77.41,395.91Z"/><path class="cls-3" d="M62.62,427c1.09-3.38,2.44-6.7,3.72-10s2.53-6.32,3.91-9.44A197.26,197.26,0,0,1,79.7,389c2.22-3.83,4.6-7.54,7.06-11.21,0-.56.16-1.11.24-1.68.15-1,.29-1.95.44-2.92.32-2,.67-4,1-6,.72-4.35,1.62-8.67,2.31-13,0-.21.36-.21.33,0-.64,4.3-1.07,8.63-1.67,12.93-.3,2.11-.57,4.23-.89,6.34l-.36,2.29a225.08,225.08,0,0,1,15.58-20.22c.76-.87,1.54-1.72,2.3-2.58.08-.23.2-.47.3-.72.23-.59.46-1.2.68-1.8.46-1.25.92-2.5,1.37-3.76.88-2.46,1.67-4.95,2.34-7.49a.17.17,0,0,1,.32.1c-.64,2.58-1.31,5.16-2.07,7.72-.36,1.23-.77,2.45-1.2,3.66-.08.2-.15.4-.23.61,4-4.39,8.23-8.62,12.48-12.8.15-.15.37.08.22.23A226.37,226.37,0,0,0,97.92,366a19.55,19.55,0,0,1,2.34-.59c2.42-.47,4.87-.82,7.32-1.13,5.13-.65,10.25-1.3,15.37-2.1.2,0,.28.27.07.31-4.88,1-9.72,2.06-14.57,3.18-2.28.52-4.58,1-6.88,1.43A43.17,43.17,0,0,0,96,368.7c-.51.73-1,1.45-1.54,2.18-2.32,3.37-4.54,6.8-6.71,10.26l3.22-.63q3.64-.7,7.32-1.31c4.81-.79,9.61-1.63,14.36-2.71a.16.16,0,0,1,.08.32c-4.81,1.13-9.59,2.45-14.37,3.72-2.31.62-4.63,1.18-7,1.7l-3.51.75a7.72,7.72,0,0,1-1.42.25q-6.9,11.19-12.92,22.89c-1.76,3.43-3.44,6.9-5.09,10.38s-3.12,7.23-4.68,10.86C63.51,428.09,62.36,427.79,62.62,427Z"/><path class="cls-3" d="M94.87,354.58q.9-4.5,1.9-9c0-.21.35-.11.31.09-.6,2.95-1.16,5.91-1.7,8.88a87.74,87.74,0,0,1-1.79,8.82c0,.06-.1,0-.09,0A62.26,62.26,0,0,1,94.87,354.58Z"/><path class="cls-3" d="M113.25,353.71c1.46-.73,3-1.32,4.53-1.91l2.39-.94,1.21-.48a6.12,6.12,0,0,0,1.33-.59c.24-.18.39.24.16.28a6.08,6.08,0,0,0-1.35.55l-1.19.53-2.3,1a43.36,43.36,0,0,1-4.66,1.84A.17.17,0,0,1,113.25,353.71Z"/><path class="cls-1" d="M45.15,371.13S26.08,335.51-2.93,330s-46.76,24.33-46.76,24.33,21.16,27,47.78,31.74S45.15,371.13,45.15,371.13Z"/><path class="cls-3" d="M-22.37,346a78.5,78.5,0,0,1,22.75.27c-.43-.24-.86-.48-1.29-.69l-6.44-3.32c-4.45-2.32-9-4.78-13.62-6.65a.17.17,0,1,1,.14-.3c4.53,2.12,9.24,3.89,13.79,6,2.28,1.05,4.52,2.14,6.73,3.31,1.43.76,3,1.48,4.42,2.39a79.72,79.72,0,0,1,18.44,6.12l-3.63-3.95c-2.7-3-5.36-6.07-8.33-8.76-.15-.14.08-.37.24-.23,3,2.76,6.24,5.31,9.18,8.18,1.43,1.39,2.8,2.83,4.13,4.31.66.74,1.33,1.51,2,2.3a77.7,77.7,0,0,1,30.43,29.72A78.08,78.08,0,0,1,65,407.44c0,.2-.25.31-.31.1a87.87,87.87,0,0,0-21.33-36.09A83.9,83.9,0,0,0,4.49,349a85.28,85.28,0,0,0-26.82-2.44A.29.29,0,0,1-22.37,346Z"/><path class="cls-2" d="M-49.7,354.33s21.17,27,47.8,31.74c20.3,3.6,37-7,43.79-12.21l1.47-2.4S29.62,359.88,3.64,353.2-49.7,354.33-49.7,354.33Z"/><path class="cls-3" d="M-5.52,333.26a72.33,72.33,0,0,1,6.44,4.25,41.2,41.2,0,0,1,5.6,5.12c.15.17-.09.38-.25.24-1.93-1.67-3.86-3.35-5.86-4.93a59.7,59.7,0,0,0-6.1-4.4A.16.16,0,0,1-5.52,333.26Z"/><path class="cls-1" d="M49,416s-5.1,35.33-31.67,47.69-59,0-59,0S-28.93,387.21,49,416Z"/><path class="cls-3" d="M-23.36,440.67c2.45-.28,4.89-.7,7.31-1.14,1.19-.22,2.38-.44,3.57-.68.61-.11,1.24-.26,1.87-.37.71-.67,1.42-1.34,2.15-2A107.48,107.48,0,0,1,7.79,424.71a93.21,93.21,0,0,1,9.74-5l-.5,0c-2.92.12-5.83.24-8.75.38-5.83.27-11.66.4-17.49.77-.21,0-.2-.31,0-.32,5.85-.4,11.67-1,17.51-1.55l8.5-.75,4.38-.38,1.12-.12q2.27-.86,4.58-1.58C34.16,413.92,42,413,49.4,414.94c6.68,1.71,13.35,6.09,15.08,13.14.06.24-.32.41-.42.16-2.49-5.89-9-8.85-14.93-10.08a35.73,35.73,0,0,0-12-.23,28.59,28.59,0,0,1-1.34,5.34c-.74,2.49-1.46,5-2.21,7.46-1.51,5-3.17,9.88-4.64,14.85a.16.16,0,0,1-.31-.1c1.23-5,2.27-10,3.47-14.93.58-2.44,1.2-4.87,1.8-7.31a43.55,43.55,0,0,1,1.34-5,61.61,61.61,0,0,0-6.89,1.63,100,100,0,0,0-12,4.41c-.39,2.52-.95,5-1.53,7.5C14,434.88,13.21,438,12.22,441a.16.16,0,0,1-.3-.09l.12-.57h0c.59-2.89,1.23-5.77,1.84-8.66.49-2.32.94-4.66,1.45-7-3.3,1.49-6.55,3.11-9.69,4.91-.06.72-.24,1.46-.34,2.11-.19,1.21-.41,2.42-.63,3.63-.5,2.72-1,5.44-1.7,8.13a128,128,0,0,1-4.57,15.37.17.17,0,0,1,0,.21l-.15.17c-.12.14-.31,0-.27-.16,1.23-5.24,2.63-10.43,3.78-15.69.58-2.62,1.15-5.25,1.68-7.88.26-1.32.51-2.64.76-4,.07-.36.12-.77.18-1.18a111.43,111.43,0,0,0-26.18,21.36c-.19.21-.57-.09-.39-.32a99.06,99.06,0,0,1,6.33-7.72q2-2.15,4.14-4.17l-.44.08c-1.25.21-2.5.39-3.75.56-2.45.33-4.92.57-7.38.85C-23.49,441-23.57,440.69-23.36,440.67Z"/><path class="cls-3" d="M17.55,452.08a.16.16,0,0,1,.16-.15c.74-3.12,1.46-6.26,2.11-9.41.34-1.65.68-3.31,1-5,.17-.89.33-1.79.49-2.68a7.78,7.78,0,0,1,.58-2.3.16.16,0,0,1,.29.05c.23,1.48-.39,3.28-.66,4.74-.33,1.72-.66,3.45-1,5.16-.77,3.48-1.65,7-2.63,10.39a.18.18,0,0,1-.35-.06C17.51,452.6,17.53,452.34,17.55,452.08Z"/><path class="cls-1" d="M62.57,333.09S78.83,261.76,2.19,232.9C2.19,232.9-19,326.79,62.57,333.09Z"/><path class="cls-3" d="M46,292.64c-.29-.19-.57-.36-.82-.5l-4.34-2.42-8.89-5c-5.84-3.27-11.62-6.67-17.51-9.87-.18-.1,0-.38.17-.28,5.9,3.21,11.91,6.21,17.84,9.35l8.79,4.64,3.59,1.9c-2.56-4.85-5.29-9.61-8.29-14.18-4-6.11-8.4-11.93-13-17.63a.26.26,0,0,1,.38-.36A121.89,121.89,0,0,1,41.7,280c0-.25,0-.51,0-.75-.09-1.77-.13-3.54-.16-5.32-.05-3.48.12-7,0-10.45,0-.21.32-.2.33,0,.14,3.43.55,6.84.75,10.27.1,1.71.17,3.42.22,5.13,0,.92.12,2,.08,3,1.58,2.51,3.1,5.06,4.53,7.64a132.51,132.51,0,0,1,6.85,14.37c.08-1.78.18-3.56.29-5.33.23-3.91.7-7.79.87-11.7a.16.16,0,1,1,.32,0c-.08,3.9.11,7.81,0,11.72-.06,1.95-.12,3.9-.24,5.85,0,.72-.09,1.45-.14,2.18a129.59,129.59,0,0,1,5.79,19.6A211.25,211.25,0,0,1,64,347.8c0,.05-.07.05-.08,0a116,116,0,0,0-4.07-19.21q-1.41-5-3-10c-3.19-1.5-6.24-3.37-9.32-5.08s-6.42-3.5-9.62-5.26c-6.39-3.51-12.78-7.08-19.38-10.17-.19-.09,0-.37.18-.28,6.68,3,13.41,5.9,20,9.2,3.27,1.64,6.48,3.39,9.67,5.19,2.66,1.49,5.39,3,7.93,4.72-.74-2.22-1.51-4.43-2.36-6.62A192.55,192.55,0,0,0,46,292.64Z"/><path class="cls-3" d="M52.49,276.33a.17.17,0,0,1,.33,0c-.28,4.07-.42,8.13-.85,12.19a.18.18,0,0,1-.36,0C51.75,284.44,52.19,280.4,52.49,276.33Z"/><path class="cls-3" d="M15.74,290c4.8,1.93,9.64,3.77,14.41,5.76.14.06.08.28-.06.22-4.85-1.81-9.62-3.79-14.44-5.67C15.45,290.19,15.55,289.87,15.74,290Z"/><path class="cls-3" d="M8.46,257.05a127.4,127.4,0,0,1,13.63,7.31c.22.14,0,.49-.21.35-4.45-2.6-9-5.09-13.59-7.38C8.1,257.24,8.27,257,8.46,257.05Z"/><rect class="cls-4" x="9.62" y="487.33" width="110.52" height="116.5" transform="translate(129.76 1091.17) rotate(-180)"/><rect class="cls-3" x="122.09" y="528.56" width="5.65" height="199.55"/><rect class="cls-3" x="2.61" y="528.56" width="5.65" height="199.55"/><rect class="cls-3" x="59.34" y="528.56" width="5.66" height="199.55"/><rect class="cls-3" x="5.44" y="596.37" width="119.49" height="16.13" transform="translate(130.36 1208.86) rotate(-180)"/><polygon class="cls-5" points="1209.08 313.07 1269.89 313.07 1269.89 310.66 1211.49 310.66 1211.49 252.57 1209.08 252.57 1209.08 313.07"/><polygon class="cls-5" points="1209.08 108 1211.49 108 1211.49 49.91 1269.89 49.91 1269.89 47.5 1209.08 47.5 1209.08 108"/><polygon class="cls-5" points="1569.75 108 1572.16 108 1572.16 47.5 1511.39 47.5 1511.39 49.91 1569.75 49.91 1569.75 108"/><polygon class="cls-5" points="1511.39 313.07 1572.16 313.07 1572.16 252.57 1569.75 252.57 1569.75 310.66 1511.39 310.66 1511.39 313.07"/><polygon class="cls-5" points="1321.76 239.65 1349.31 239.65 1349.31 237.24 1324.17 237.24 1324.17 212.24 1321.76 212.24 1321.76 239.65"/><polygon class="cls-5" points="1321.76 148.34 1324.17 148.34 1324.17 123.33 1349.31 123.33 1349.31 120.92 1321.76 120.92 1321.76 148.34"/><polygon class="cls-5" points="1457.08 148.34 1459.49 148.34 1459.49 120.92 1431.95 120.92 1431.95 123.33 1457.08 123.33 1457.08 148.34"/><polygon class="cls-5" points="1431.95 239.65 1459.49 239.65 1459.49 212.24 1457.08 212.24 1457.08 237.24 1431.95 237.24 1431.95 239.65"/><path class="cls-5" d="M1223.54,59.67H1250v12h-26.49Zm25.59.9h-24.69V70.78h24.69Z"/><rect class="cls-5" x="1230.65" y="61.56" width="17.38" height="8.25" transform="translate(2478.68 131.36) rotate(-180)"/><rect class="cls-5" x="1220.3" y="62.34" width="2.4" height="6.68" transform="translate(2443 131.36) rotate(-180)"/><circle class="cls-5" cx="1557.86" cy="60.12" r="3.73"/><path class="cls-1" d="M1337.53,309.26s53.6-7.51,41.07-72.21C1378.6,237.05,1318.71,250.49,1337.53,309.26Z"/><path class="cls-2" d="M1337.53,309.26s53.6-7.51,41.07-72.21C1378.6,237.05,1318.71,250.49,1337.53,309.26Z"/><path class="cls-3" d="M1340.24,295.75c1-3.27,2.28-6.49,3.65-9.64,0-.42.1-.83.14-1.23.08-.89.15-1.78.22-2.67.15-1.93.27-3.86.39-5.79.22-3.87.47-7.74.53-11.61,0-.21.32-.2.33,0,0,3.87.09,7.74-.06,11.62q-.12,2.9-.32,5.79c0,.43-.06.86-.09,1.29a114.85,114.85,0,0,1,10.75-18.38c1.84-2.57,3.78-5.05,5.86-7.43s4.39-4.77,6.55-7.19c.14-.16.38.08.23.23a96.76,96.76,0,0,0-10.33,13.74c-1.63,2.46-3.16,5-4.63,7.56l.5-.19c.63-.26,1.27-.53,1.91-.77,1.45-.56,2.91-1.12,4.37-1.66,2.88-1.07,5.76-2.12,8.63-3.21.17-.06.29.24.12.3-2.85,1.14-5.67,2.34-8.49,3.56l-4.15,1.78-2.09.87a6.75,6.75,0,0,1-1.43.5c-1.08,1.94-2.15,3.89-3.13,5.87a140.41,140.41,0,0,0-6.55,15.44l-.39,1.12a30.49,30.49,0,0,1,4.39-2.12l5.55-2.53c3.76-1.73,7.49-3.48,11.1-5.51.18-.11.34.18.15.28-3.68,2-7.29,4.16-11,6.16-1.84,1-3.7,2-5.58,2.89a17.55,17.55,0,0,1-5,2,63.43,63.43,0,0,0-3.51,15.21c-.6,7.31-.53,14.69-.7,22a.1.1,0,0,1-.2,0c-.53-6.65-.83-13.37-.86-20.05A58.08,58.08,0,0,1,1340.24,295.75Z"/><path class="cls-3" d="M1348.49,257.7a64.07,64.07,0,0,1,.54,11.41.09.09,0,0,1-.17,0c-.21-3.79-.25-7.56-.69-11.33C1348.15,257.57,1348.47,257.49,1348.49,257.7Z"/><path class="cls-3" d="M1363.82,260.94a41.16,41.16,0,0,0,6.89-3.39c.17-.11.34.18.16.29a26.38,26.38,0,0,1-7,3.33C1363.77,261.2,1363.69,261,1363.82,260.94Z"/><path class="cls-3" d="M1335.82,412c0-5.92.15-11.85.22-17.77.11-19.67.28-39.34.63-59q.42-23.42,1.09-46.84a.24.24,0,0,1,.14-.2l.06-12.79c0-.11.13-.16.26-.16s.26.06.26.17q0,6.4.08,12.81a.26.26,0,0,1,.12.19c.79,27.79,1.49,55.58,1.65,83.38,0,5.65,0,11.3.06,16.95q.28,27.19.21,54.37c0,2.89.05,5.77.06,8.66.06,16.58-.17,33.16-.18,49.74,0,.89-1,1.34-2,1.38-1.2.05-2.48-.43-2.48-1.45,0-18.29-.13-36.57-.13-54.86C1335.77,435,1335.73,423.5,1335.82,412Z"/><path class="cls-1" d="M1358.2,394s25.78-19.11,50.25-6.2,28.31,62.66,28.31,62.66-35.93,5.14-58.56-16.4C1356.4,413.3,1358.2,394,1358.2,394Z"/><path class="cls-3" d="M1351.17,395.16a31,31,0,0,1,14.94-2,22.38,22.38,0,0,1,3.16-.3l3.63-.28c2.51-.19,5-.34,7.52-.53,5.09-.38,10.19-.69,15.26-1.2.18,0,.22.3,0,.32-5,.65-10,1.36-15.07,1.87-2.59.26-5.18.53-7.78.71-.61.05-1.24.12-1.88.19.77.17,1.53.35,2.29.56A61.81,61.81,0,0,1,1385,399.3c2,.37,4,.93,6,1.4,3.19.75,6.37,1.58,9.54,2.41,6.26,1.64,12.45,3.48,18.66,5.29a.16.16,0,0,1-.09.31c-6.21-1.52-12.45-2.91-18.67-4.39-3-.72-6-1.43-9.07-2.17-.78-.2-1.57-.37-2.37-.55a75.48,75.48,0,0,1,18.33,15.93,99.5,99.5,0,0,1,12.73,20.08c.09.19-.17.37-.27.18a97.82,97.82,0,0,0-15.41-20.23l.33,1,1.44,4.56c.95,3,1.92,6.06,2.82,9.11.06.21-.24.28-.31.08-1.09-2.94-2.12-5.9-3.16-8.86l-1.53-4.35c-.27-.75-.52-1.51-.77-2.26-.08-.24-.17-.47-.25-.7a91.2,91.2,0,0,0-9.15-7.79,68.68,68.68,0,0,0-13.68-7.84c.09.44.17.89.26,1.32.25,1.17.52,2.35.76,3.52q.75,3.66,1.45,7.34c1,5,1.57,10,2.51,15a.17.17,0,0,1-.32.08c-1.15-5-2.64-10-3.76-15-.56-2.51-1.13-5-1.65-7.55l-.72-3.53c-.13-.66-.28-1.32-.36-2-.47-.18-.93-.4-1.4-.57-6.76-2.51-14.24-4.33-21.45-2.94a21,21,0,0,0-15.51,12.43c-.24.56-1.12.21-1-.36C1340.34,402.15,1345.51,397.54,1351.17,395.16Z"/><path class="cls-3" d="M1390.64,416.41c.73,3.26,1.45,6.53,2.18,9.8a72.07,72.07,0,0,1,1.8,9.53c0,.13-.17.13-.21,0a74.56,74.56,0,0,1-2.19-9.6c-.64-3.22-1.27-6.45-1.9-9.67C1390.28,416.28,1390.6,416.2,1390.64,416.41Z"/><path class="cls-3" d="M1415.58,424.71c3.28,1.67,6.46,3.56,9.89,4.92a.16.16,0,1,1-.13.3,105.17,105.17,0,0,1-9.84-5.09C1415.42,424.79,1415.49,424.67,1415.58,424.71Z"/><path class="cls-1" d="M1352.41,358.91s31.5,2,46.16-18.77,11.37-50.45,11.37-50.45-33.1,4-46.24,18.94S1352.41,358.91,1352.41,358.91Z"/><path class="cls-3" d="M1337.62,390c1.09-3.38,2.44-6.7,3.72-10s2.53-6.32,3.91-9.44A197.26,197.26,0,0,1,1354.7,352c2.22-3.83,4.6-7.54,7.06-11.21,0-.56.16-1.11.24-1.68.15-1,.29-1.95.44-2.92.32-2,.67-4,1-6,.72-4.35,1.62-8.67,2.31-13,0-.21.36-.21.33,0-.64,4.3-1.07,8.63-1.67,12.93-.3,2.11-.57,4.23-.89,6.34l-.36,2.29a225.08,225.08,0,0,1,15.58-20.22c.76-.87,1.54-1.72,2.3-2.58.08-.23.2-.47.3-.72.23-.59.46-1.2.68-1.8.46-1.25.92-2.5,1.37-3.76.88-2.46,1.67-4.95,2.34-7.49a.17.17,0,0,1,.32.1c-.64,2.58-1.31,5.16-2.07,7.72-.36,1.23-.77,2.45-1.2,3.66-.08.2-.15.4-.23.61,4-4.39,8.23-8.62,12.48-12.8.15-.15.37.08.22.23A226.37,226.37,0,0,0,1372.92,329a19.55,19.55,0,0,1,2.34-.59c2.42-.47,4.87-.82,7.32-1.13,5.13-.65,10.25-1.3,15.37-2.1.2,0,.28.27.07.31-4.88,1-9.72,2.06-14.57,3.18-2.28.52-4.58,1-6.88,1.43a43.17,43.17,0,0,0-5.53,1.57c-.51.73-1,1.45-1.54,2.18-2.32,3.37-4.54,6.8-6.71,10.26l3.22-.63q3.65-.7,7.32-1.31c4.81-.79,9.61-1.63,14.36-2.71a.16.16,0,0,1,.08.32c-4.81,1.13-9.59,2.45-14.37,3.72-2.31.62-4.63,1.18-7,1.7l-3.51.75a7.72,7.72,0,0,1-1.42.25q-6.9,11.19-12.92,22.89c-1.76,3.43-3.44,6.9-5.09,10.38s-3.12,7.23-4.68,10.86C1338.51,391.09,1337.36,390.79,1337.62,390Z"/><path class="cls-3" d="M1369.87,317.58q.9-4.5,1.9-9c0-.21.35-.11.31.09-.6,2.95-1.16,5.91-1.7,8.88a87.74,87.74,0,0,1-1.79,8.82c0,.06-.1,0-.09,0A62.26,62.26,0,0,1,1369.87,317.58Z"/><path class="cls-3" d="M1388.25,316.71c1.46-.73,3-1.32,4.53-1.91l2.39-.94,1.21-.48a6.12,6.12,0,0,0,1.33-.59c.24-.18.39.24.16.28a6.08,6.08,0,0,0-1.35.55l-1.19.53-2.3,1a43.36,43.36,0,0,1-4.66,1.84A.17.17,0,0,1,1388.25,316.71Z"/><path class="cls-1" d="M1320.15,334.13s-19.07-35.62-48.08-41.13-46.76,24.33-46.76,24.33,21.16,27,47.78,31.74S1320.15,334.13,1320.15,334.13Z"/><path class="cls-3" d="M1252.63,309a78.5,78.5,0,0,1,22.75.27c-.43-.24-.86-.48-1.29-.69l-6.44-3.32c-4.45-2.32-9-4.78-13.62-6.65a.17.17,0,1,1,.14-.3c4.53,2.12,9.24,3.89,13.79,6,2.28,1.05,4.52,2.14,6.73,3.31,1.43.76,3,1.48,4.42,2.39a79.72,79.72,0,0,1,18.44,6.12l-3.63-3.95c-2.7-3-5.36-6.07-8.33-8.76-.15-.14.08-.37.24-.23,3,2.76,6.24,5.31,9.18,8.18,1.43,1.39,2.8,2.83,4.13,4.31.66.74,1.33,1.51,2,2.3a76.48,76.48,0,0,1,38.9,52.52c0,.2-.25.31-.31.1a87.87,87.87,0,0,0-21.33-36.09A83.9,83.9,0,0,0,1279.49,312a85.28,85.28,0,0,0-26.82-2.44A.29.29,0,0,1,1252.63,309Z"/><path class="cls-2" d="M1225.3,317.33s21.17,27,47.8,31.74c20.3,3.6,37-7,43.79-12.21l1.47-2.4s-13.74-11.58-39.72-18.26S1225.3,317.33,1225.3,317.33Z"/><path class="cls-3" d="M1269.48,296.26a72.33,72.33,0,0,1,6.44,4.25,41.2,41.2,0,0,1,5.6,5.12c.15.17-.09.38-.25.24-1.93-1.67-3.86-3.35-5.86-4.93a59.7,59.7,0,0,0-6.1-4.4A.16.16,0,0,1,1269.48,296.26Z"/><path class="cls-3" d="M1253.56,302.29c1.08.45,2.17.83,3.25,1.28l3.23,1.34c.23.1.12.47-.12.38l-3.23-1.32c-1.09-.43-2.14-.93-3.22-1.37C1253.27,302.52,1253.37,302.21,1253.56,302.29Z"/><path class="cls-1" d="M1324,379s-5.1,35.33-31.67,47.69-59,0-59,0S1246.07,350.21,1324,379Z"/><path class="cls-3" d="M1251.64,403.67c2.45-.28,4.89-.7,7.31-1.14,1.19-.22,2.38-.44,3.57-.68.61-.11,1.24-.26,1.87-.37.71-.67,1.42-1.34,2.15-2a107.48,107.48,0,0,1,16.25-11.78,93.21,93.21,0,0,1,9.74-5l-.5,0c-2.92.12-5.83.24-8.75.38-5.83.27-11.66.4-17.49.77-.21,0-.2-.31,0-.32,5.85-.4,11.67-1,17.51-1.55l8.5-.75,4.38-.38,1.12-.12q2.26-.86,4.58-1.58c7.27-2.26,15.06-3.15,22.51-1.24,6.68,1.71,13.35,6.09,15.08,13.14.06.24-.32.41-.42.16-2.49-5.89-9-8.85-14.93-10.08a35.73,35.73,0,0,0-12-.23,28.59,28.59,0,0,1-1.34,5.34c-.74,2.49-1.46,5-2.21,7.46-1.51,5-3.17,9.88-4.64,14.85a.16.16,0,0,1-.31-.1c1.23-5,2.27-10,3.47-14.93.58-2.44,1.2-4.87,1.8-7.31a43.55,43.55,0,0,1,1.34-5,61.61,61.61,0,0,0-6.89,1.63,100,100,0,0,0-12,4.41c-.39,2.52-1,5-1.53,7.5-.72,3.12-1.53,6.21-2.52,9.25a.16.16,0,0,1-.3-.09l.12-.57h0c.59-2.89,1.23-5.77,1.84-8.66.49-2.32.94-4.66,1.45-7-3.3,1.49-6.55,3.11-9.69,4.91-.06.72-.24,1.46-.34,2.11-.19,1.21-.41,2.42-.63,3.63-.5,2.72-1,5.44-1.7,8.13a128,128,0,0,1-4.57,15.37.17.17,0,0,1,0,.21l-.15.17c-.12.14-.31,0-.27-.16,1.23-5.24,2.63-10.43,3.78-15.69.58-2.62,1.15-5.25,1.68-7.88.26-1.32.51-2.64.76-4,.07-.36.12-.77.18-1.18a111.43,111.43,0,0,0-26.18,21.36c-.19.21-.57-.09-.39-.32a99.06,99.06,0,0,1,6.33-7.72q2-2.15,4.14-4.17l-.44.08c-1.25.21-2.5.39-3.75.56-2.45.33-4.92.57-7.38.85C1251.51,404,1251.43,403.69,1251.64,403.67Z"/><path class="cls-3" d="M1270.31,415.65h0c0-.31.09-.61.15-.92s.27-.76.33-1.15v0c.55-2.36,1-4.73,1.44-7.12,0-.17.29-.12.29,0a29.25,29.25,0,0,1-2,9.23c0,.09-.21.08-.19,0Z"/><path class="cls-3" d="M1292.55,415.08a.16.16,0,0,1,.16-.15c.74-3.12,1.46-6.26,2.11-9.41.34-1.65.68-3.31,1-5,.17-.89.33-1.79.49-2.68a7.78,7.78,0,0,1,.58-2.3.16.16,0,0,1,.29.05c.23,1.48-.39,3.28-.66,4.74-.33,1.72-.66,3.45-1,5.16-.77,3.48-1.65,7-2.63,10.39a.18.18,0,0,1-.35-.06C1292.51,415.6,1292.53,415.34,1292.55,415.08Z"/><path class="cls-3" d="M1254.06,393.49c4.85-.66,9.7-1.37,14.57-1.95.2,0,.28.28.08.31-4.85.72-9.71,1.32-14.57,2C1253.93,393.84,1253.85,393.52,1254.06,393.49Z"/><path class="cls-1" d="M1337.57,296.09s16.26-71.33-60.38-100.19C1277.19,195.9,1256,289.79,1337.57,296.09Z"/><path class="cls-3" d="M1321,255.64c-.29-.19-.57-.36-.82-.5l-4.34-2.42-8.89-5c-5.84-3.27-11.62-6.67-17.51-9.87-.18-.1,0-.38.17-.28,5.9,3.21,11.91,6.21,17.84,9.35l8.79,4.64,3.59,1.9c-2.56-4.85-5.29-9.61-8.29-14.18-4-6.11-8.4-11.93-13-17.63a.26.26,0,0,1,.38-.36A121.89,121.89,0,0,1,1316.7,243c0-.25,0-.51,0-.75-.09-1.77-.13-3.54-.16-5.32,0-3.48.12-7,0-10.45,0-.21.32-.2.33,0,.14,3.43.55,6.84.75,10.27.1,1.71.17,3.42.22,5.13,0,.92.12,2,.08,3,1.58,2.51,3.1,5.06,4.53,7.64a132.51,132.51,0,0,1,6.85,14.37c.08-1.78.18-3.56.29-5.33.23-3.91.7-7.79.87-11.7a.16.16,0,1,1,.32,0c-.08,3.9.11,7.81,0,11.72-.06,1.95-.12,3.9-.24,5.85,0,.72-.09,1.45-.14,2.18a129.59,129.59,0,0,1,5.79,19.6A211.25,211.25,0,0,1,1339,310.8c0,.05-.07.05-.08,0a116,116,0,0,0-4.07-19.21q-1.41-5-3-10c-3.19-1.5-6.24-3.37-9.32-5.08s-6.42-3.5-9.62-5.26c-6.39-3.51-12.78-7.08-19.38-10.17-.19-.09,0-.37.18-.28,6.68,3,13.41,5.9,20,9.2,3.27,1.64,6.48,3.39,9.67,5.19,2.66,1.49,5.39,3,7.93,4.72-.74-2.22-1.51-4.43-2.36-6.62A192.55,192.55,0,0,0,1321,255.64Z"/><path class="cls-3" d="M1327.49,239.33a.17.17,0,0,1,.33,0c-.28,4.07-.42,8.13-.85,12.19a.18.18,0,0,1-.36,0C1326.75,247.44,1327.19,243.4,1327.49,239.33Z"/><path class="cls-3" d="M1290.74,253c4.8,1.93,9.64,3.77,14.41,5.76.14.06.08.28-.06.22-4.85-1.81-9.62-3.79-14.44-5.67C1290.45,253.19,1290.55,252.87,1290.74,253Z"/><path class="cls-3" d="M1283.46,220.05a127.4,127.4,0,0,1,13.63,7.31c.22.14,0,.49-.21.35-4.45-2.6-9-5.09-13.59-7.38C1283.1,220.24,1283.27,220,1283.46,220.05Z"/><rect class="cls-4" x="1284.62" y="450.33" width="110.52" height="116.5" transform="translate(2679.76 1017.17) rotate(-180)"/><rect class="cls-3" x="1397.09" y="491.56" width="5.65" height="199.55"/><rect class="cls-3" x="1277.61" y="491.56" width="5.65" height="199.55"/><rect class="cls-3" x="1334.34" y="491.56" width="5.66" height="199.55"/><rect class="cls-3" x="1280.44" y="559.37" width="119.49" height="16.13" transform="translate(2680.36 1134.86) rotate(-180)"/><path class="cls-3" d="M1369.24,194.82c-2.46,1.68,3.25,8,4.84,10.33s6.8,12,8.06,11.18-1.81-8.65-5.1-14.3C1374.41,197.49,1370.78,193.76,1369.24,194.82Z"/><path class="cls-3" d="M1370.63,186a5.79,5.79,0,0,0-1.3,2.1,7.92,7.92,0,0,0-.5,2.46,8.29,8.29,0,0,0,.28,2.48,7.68,7.68,0,0,0,1,2.25c-.14-.81-.31-1.59-.39-2.37a14,14,0,0,1-.1-2.33,11.25,11.25,0,0,1,.3-2.31A13.07,13.07,0,0,1,1370.63,186Z"/><path class="cls-3" d="M1372.12,183.65c.53.1-.26,2.17-.92,2.54a5.72,5.72,0,0,1-1.07.48S1371.63,183.56,1372.12,183.65Z"/><path class="cls-3" d="M1362.12,188.66a6.57,6.57,0,0,1,2,1.32c.6.54,1.17,1.12,1.72,1.72s1.08,1.23,1.62,1.86,1.07,1.27,1.66,1.88a13.63,13.63,0,0,0-1.17-2.24,15.62,15.62,0,0,0-1.54-2,10.68,10.68,0,0,0-1.93-1.68A4.13,4.13,0,0,0,1362.12,188.66Z"/><path class="cls-3" d="M1361.05,187.57c-.43.32,1.18,1.83,1.93,1.88a5.52,5.52,0,0,0,1.18,0S1361.45,187.27,1361.05,187.57Z"/><path class="cls-3" d="M1387.13,188.4h0a0,0,0,0,1,0,0S1387.13,188.39,1387.13,188.4Z"/><path class="cls-1" d="M1386.88,201.44c-.68,5.29,16.12,13.06,19.27,15.68,1.14.94,2.9,2.61,4.89,4.25h0l.67.55c2.91,2.33,6.18,4.4,8.63,4a1.73,1.73,0,0,0,.31-.07,3.14,3.14,0,0,0,.86-.38c4.14-2.65,12.47-25.36,0-37.78-3-3-8.31-2.48-13.88-.44h0C1397.83,190.78,1387.17,199.11,1386.88,201.44Z"/><path class="cls-6" d="M1386.88,201.44c-.68,5.29,16.12,13.06,19.27,15.68,1.14.94,2.9,2.61,4.89,4.25h0l.67.55c2.91,2.33,6.18,4.4,8.63,4a1.73,1.73,0,0,0,.31-.07,3.14,3.14,0,0,0,.86-.38c4.14-2.65,12.47-25.36,0-37.78-3-3-8.31-2.48-13.88-.44h0C1397.83,190.78,1387.17,199.11,1386.88,201.44Z"/><path class="cls-3" d="M1420.38,192.6c4.33,8,2.81,21.37.33,27-1.79,4.05-8.28,2.25-9.67,1.8l.67.55c2.91,2.33,6.18,4.4,8.63,4a1.73,1.73,0,0,0,.31-.07,3.14,3.14,0,0,0,.86-.38c4.14-2.65,12.47-25.36,0-37.78-3-3-8.31-2.48-13.88-.44h0C1412.86,186.86,1418.17,188.5,1420.38,192.6Z"/><g class="cls-7"><path d="M1419,223.83a62,62,0,0,0-7-7,22.89,22.89,0,0,0-4.27-2.6c-1.48-.75-3-1.44-4.48-2.14a54.23,54.23,0,0,1-8.76-4.46c-1.38-.89-2.74-1.81-4-2.81a18.12,18.12,0,0,1-3.58-3.36,16.8,16.8,0,0,0,3.34,3.66c1.27,1.07,2.6,2.05,4,3,.68.47,1.35.94,2.07,1.37s1.47.82,2.21,1.19c1.49.73,3,1.42,4.49,2.11s3,1.34,4.48,2.06a27.49,27.49,0,0,1,4.23,2.43c1.3,1,2.53,2.08,3.75,3.19S1417.82,222.7,1419,223.83Z"/><path d="M1423,218.27a33.71,33.71,0,0,0-4.56-3,20.73,20.73,0,0,0-5.08-2.08,38.34,38.34,0,0,0-5.4-.84c-.9-.07-1.8-.14-2.71-.19s-1.81-.06-2.72,0l5.36.83c1.78.29,3.56.57,5.29,1a27.81,27.81,0,0,1,5,1.86q1.23.57,2.43,1.2C1421.36,217.41,1422.15,217.85,1423,218.27Z"/><path d="M1423.85,211.22c-1.63-.08-3.26-.14-4.89-.25s-3.25-.2-4.87-.35-3.23-.32-4.82-.6c-.39-.07-.79-.14-1.18-.24a10,10,0,0,1-1.14-.31c-.18-.07-.38-.12-.55-.19l-.5-.25a12.16,12.16,0,0,0-1.14-.58,38,38,0,0,0-4.75-1.35q-2.37-.57-4.68-1.32a19,19,0,0,1-8.2-5,15.47,15.47,0,0,0,3.59,3.35,22.15,22.15,0,0,0,4.41,2.2,43.85,43.85,0,0,0,4.7,1.44,38.94,38.94,0,0,1,4.63,1.39,10.11,10.11,0,0,1,1,.51l.6.29c.2.08.41.13.61.2a10.81,10.81,0,0,0,1.21.32c.41.1.82.16,1.23.22a44.76,44.76,0,0,0,4.89.5A94.22,94.22,0,0,0,1423.85,211.22Z"/><path d="M1423.63,205.43c-3.07-.32-6.16-.5-9.25-.55a45.42,45.42,0,0,0-4.66.14c-.77,0-1.59.27-2.26.26a11.53,11.53,0,0,1-2.22-.28,85.18,85.18,0,0,1-8.86-2.47l-4.43-1.34c-.75-.21-1.5-.41-2.25-.58a6,6,0,0,0-2.3-.24,2.9,2.9,0,0,1,1.13.13c.38.09.75.19,1.11.31.74.23,1.46.48,2.19.74l4.36,1.55c1.45.53,2.92,1,4.4,1.46s3,.89,4.51,1.21a12.29,12.29,0,0,0,2.37.25c.88,0,1.56-.25,2.32-.3,1.52-.16,3.06-.19,4.59-.25s3.08-.05,4.62,0Z"/><path d="M1423.24,199.58a33.33,33.33,0,0,0-5.88.61,17.72,17.72,0,0,0-2.87.81c-.92.33-1.84.64-2.77.92-1.86.59-3.75,1.08-5.65,1.5a26.81,26.81,0,0,1-5.8.68,15.4,15.4,0,0,0,3,.19,29.42,29.42,0,0,0,3-.28,39.29,39.29,0,0,0,5.77-1.35c.94-.3,1.87-.62,2.8-1a23.77,23.77,0,0,1,2.74-.91c.94-.25,1.9-.46,2.86-.64S1422.27,199.76,1423.24,199.58Z"/><path d="M1420.16,191.33c-1.17.83-2.34,1.67-3.53,2.46s-2.39,1.59-3.62,2.31a21.35,21.35,0,0,1-3.79,1.84c-.67.19-1.36.37-2,.54s-1.39.3-2.09.39a43.14,43.14,0,0,1-8.51.38c-2.84-.06-5.8-.42-8.6.41a17,17,0,0,1,4.28-.16c1.42.08,2.85.23,4.29.35a35.89,35.89,0,0,0,8.66-.21,29.38,29.38,0,0,0,4.24-1,18.82,18.82,0,0,0,3.88-2A56.54,56.54,0,0,0,1420.16,191.33Z"/><path d="M1416.39,188.55a24.32,24.32,0,0,0-4,1.89,15,15,0,0,0-1.85,1.25,6.81,6.81,0,0,0-1.57,1.68,38,38,0,0,1-2.55,3.49,14.6,14.6,0,0,1-1.47,1.57,4.06,4.06,0,0,1-1.84,1.08,3.71,3.71,0,0,0,2.08-.77,10.75,10.75,0,0,0,1.7-1.46,22.54,22.54,0,0,0,2.73-3.5,11,11,0,0,1,3.09-2.85C1413.9,190.1,1415.13,189.32,1416.39,188.55Z"/><path d="M1411,186.73a49.54,49.54,0,0,0-5.55,3.31,24.4,24.4,0,0,0-2.56,2c-.81.8-1.47,1.56-2.27,2.26a17.09,17.09,0,0,1-2.55,1.82,17.59,17.59,0,0,1-2.89,1.24,53.64,53.64,0,0,1-6.27,1.33,32.66,32.66,0,0,0,6.43-.78,13.78,13.78,0,0,0,3.07-1.17,14.8,14.8,0,0,0,2.71-1.86c.84-.7,1.57-1.59,2.29-2.29s1.58-1.4,2.42-2.06,1.69-1.31,2.56-1.93Z"/><circle cx="1419.09" cy="196.46" r="0.94" transform="translate(813.55 1494.82) rotate(-72.88)"/><path d="M1419.26,202.57a1,1,0,0,0,.81,1.05.94.94,0,1,0-.81-1.05Z"/><path d="M1419.17,207.76a1,1,0,0,0,.81,1.05.94.94,0,0,0,.24-1.87A1,1,0,0,0,1419.17,207.76Z"/><path d="M1418.43,213.58a.93.93,0,0,0,.81,1,.92.92,0,0,0,1-.81.94.94,0,1,0-1.86-.23Z"/><path d="M1416.34,218.16a.93.93,0,0,0,.81,1.05,1,1,0,0,0,1-.82.93.93,0,0,0-.82-1A.92.92,0,0,0,1416.34,218.16Z"/><path d="M1410.28,219.53a.93.93,0,0,0,.81,1.05,1,1,0,0,0,1.05-.81.94.94,0,0,0-.82-1.05A.93.93,0,0,0,1410.28,219.53Z"/><path d="M1414.49,191.7a.93.93,0,0,0,.81,1,.92.92,0,0,0,1-.81.93.93,0,0,0-.81-1.05A1,1,0,0,0,1414.49,191.7Z"/><path d="M1409.72,189.2a1,1,0,0,0,.81,1.05.94.94,0,0,0,1-.82.94.94,0,0,0-1.86-.23Z"/></g><path class="cls-1" d="M1384.59,198.61c2,1.42,9.43-.92,19.14-5.72a61.12,61.12,0,0,0,15.72-11.28c2.52-2.59,4.17-5,4.36-6.8.46-4.5-3.81-7.47-5.5-9.22s-.65-4.05-4-7c-3-2.66-6.42-1.48-12.27,3.84-.65.59-1.33,1.22-2,1.92C1392.91,171.25,1381.08,196.16,1384.59,198.61Z"/><path class="cls-8" d="M1384.59,198.61c2,1.42,9.43-.92,19.14-5.72a61.12,61.12,0,0,0,15.72-11.28c2.52-2.59,4.17-5,4.36-6.8.46-4.5-3.81-7.47-5.5-9.22s-.65-4.05-4-7c-3-2.66-6.42-1.48-12.27,3.84-.65.59-1.33,1.22-2,1.92C1392.91,171.25,1381.08,196.16,1384.59,198.61Z"/><g class="cls-7"><path d="M1411.18,159.45a22.85,22.85,0,0,0-9.63,7.07,71.41,71.41,0,0,0-6.3,10.27c-1,1.76-1.93,3.49-3,5.16-.54.83-1.11,1.65-1.69,2.45l-.87,1.25-.8,1.28a43.12,43.12,0,0,0-4.74,11,47,47,0,0,1,2.32-5.52,49.21,49.21,0,0,1,2.92-5.21c.55-.83,1.12-1.64,1.71-2.44s1.18-1.63,1.74-2.47c1.11-1.67,2.13-3.41,3.1-5.17a78.65,78.65,0,0,1,6.09-10.27,24.9,24.9,0,0,1,9.16-7.44Z"/><path d="M1414.1,163l-2,2.12c-.66.71-1.31,1.41-2,2.09s-1.35,1.35-2.07,2a8.24,8.24,0,0,1-2.3,1.53c-1.71.73-3.62,1.2-5.4,2a14,14,0,0,0-2.56,1.43,6.12,6.12,0,0,0-1.89,2.22,6.68,6.68,0,0,1,2.1-1.9,13.37,13.37,0,0,1,2.57-1.2c1.79-.65,3.66-1.08,5.5-1.84a8.67,8.67,0,0,0,2.47-1.69,28.8,28.8,0,0,0,2-2.12A42.44,42.44,0,0,0,1414.1,163Z"/><path d="M1417,167.7c-1.11,1.54-2.23,3.07-3.41,4.55s-2.37,2.95-3.65,4.32a24.17,24.17,0,0,1-4.18,3.73,50.09,50.09,0,0,1-4.9,2.8c-1.66.89-3.36,1.74-5,2.71a21,21,0,0,0-2.41,1.6,7.31,7.31,0,0,0-1.08,1,13.74,13.74,0,0,0-.85,1.17c-1.1,1.53-2.27,3-3.43,4.52l-3.49,4.5c2.56-2.81,5.05-5.66,7.4-8.67.29-.37.57-.78.86-1.1a7.29,7.29,0,0,1,1-.9,19.55,19.55,0,0,1,2.34-1.52c1.63-.93,3.34-1.76,5-2.64a47.24,47.24,0,0,0,4.94-2.9,21.5,21.5,0,0,0,4.22-3.91A66.8,66.8,0,0,0,1417,167.7Z"/><path d="M1421.79,174.13c-1.29,1.32-2.57,2.65-3.89,3.94s-2.61,2.59-4,3.84-2.71,2.48-4.16,3.58a24.24,24.24,0,0,1-4.71,2.72c-1.66.78-3.37,1.44-5.09,2.11-.86.33-1.72.67-2.58,1a10.62,10.62,0,0,0-2.47,1.39c-1.43,1.13-3,2.15-4.5,3.18l-4.61,3.06a96.48,96.48,0,0,0,9.47-5.77,12.2,12.2,0,0,1,2.38-1.24c.84-.35,1.7-.68,2.56-1,1.73-.64,3.47-1.29,5.16-2.06a25,25,0,0,0,4.82-2.87,48.67,48.67,0,0,0,4.14-3.71A109.08,109.08,0,0,0,1421.79,174.13Z"/><path d="M1419.67,170a33.35,33.35,0,0,0-4,3.55,24.31,24.31,0,0,0-3.32,4.22,21.76,21.76,0,0,0-1.2,2.42c-.35.81-.7,1.63-1,2.45a16.49,16.49,0,0,1-2.5,4.61,10,10,0,0,0,1.76-2,25.68,25.68,0,0,0,1.29-2.35c.4-.8.75-1.6,1.14-2.4a22.05,22.05,0,0,1,1.2-2.32,34.8,34.8,0,0,1,3.09-4.22c.56-.68,1.14-1.34,1.74-2S1419.07,170.6,1419.67,170Z"/><path d="M1415.25,166.1c-1.84,1.39-3.62,2.85-5.38,4.34s-3.48,3-5.15,4.63a12.37,12.37,0,0,0-1.17,1.33l-1,1.38-2,2.77c-.68.93-1.36,1.85-2.06,2.77a25.2,25.2,0,0,1-2.16,2.67,38.14,38.14,0,0,0,4.69-5.07c.74-.89,1.45-1.8,2.16-2.7a25.4,25.4,0,0,1,2.18-2.6c1.62-1.61,3.34-3.15,5-4.74l2.51-2.37C1413.6,167.71,1414.44,166.92,1415.25,166.1Z"/></g><path class="cls-3" d="M1402.07,162.41s6.11-3.48,8.66-1.72,2.1,5.34,4.16,7.9,4.4,2.23,5.61,4.77.17,5.89-1,8.25c2.52-2.59,4.17-5,4.36-6.8.46-4.5-3.81-7.47-5.5-9.22s-.65-4.05-4-7C1411.34,155.91,1407.92,157.09,1402.07,162.41Z"/><path class="cls-9" d="M1412.18,158.08a1.13,1.13,0,0,1,1.15.89,1.44,1.44,0,0,1-.52,1.41.85.85,0,0,1-1.17.09.67.67,0,0,1-.12-.16.68.68,0,0,1-.12-.12,1.52,1.52,0,0,1-.27-1.2A1.17,1.17,0,0,1,1412.18,158.08Z"/><path class="cls-9" d="M1407.32,159.05l.12-.08c.52-.36,1.1.42.59.78l-.13.09A.49.49,0,0,1,1407.32,159.05Z"/><path class="cls-9" d="M1422.63,176.21a.53.53,0,0,1-.93.5A.53.53,0,0,1,1422.63,176.21Z"/><path class="cls-9" d="M1413.62,163.39a1.21,1.21,0,0,1,.33-1.53,1.13,1.13,0,0,1,1.51.11,1.37,1.37,0,0,1,.24,1.39.73.73,0,0,1-.74.78A1.44,1.44,0,0,1,1413.62,163.39Z"/><path class="cls-9" d="M1415.94,166a.77.77,0,0,1,1.09,1.09A.77.77,0,0,1,1415.94,166Z"/><path class="cls-9" d="M1414.1,160c.32-.31.81.18.5.49A.35.35,0,0,1,1414.1,160Z"/><path class="cls-9" d="M1418.61,167.57c.32-.31.81.18.49.49S1418.29,167.89,1418.61,167.57Z"/><path class="cls-9" d="M1421.6,174.23c.31-.32.81.17.49.49S1421.28,174.54,1421.6,174.23Z"/><path class="cls-9" d="M1421.47,170.13c.31-.31.8.18.49.49A.35.35,0,0,1,1421.47,170.13Z"/><path class="cls-9" d="M1414.43,165.06c.32-.32.81.18.5.49A.35.35,0,0,1,1414.43,165.06Z"/><path class="cls-9" d="M1409.43,158.33c.31-.31.81.18.49.5A.35.35,0,0,1,1409.43,158.33Z"/><path class="cls-9" d="M1418.73,169.85a1,1,0,0,1,1.83-.19.7.7,0,0,1,0,.48A1,1,0,0,1,1418.73,169.85Z"/><path class="cls-9" d="M1421.55,171.78c.7-.7,1.8.39,1.09,1.09A.77.77,0,0,1,1421.55,171.78Z"/><path class="cls-1" d="M1378,205c-.18,2,3.73,5.23,8.42,11,3.25,4,8.65,9.39,14.3,11a10.15,10.15,0,0,0,7.46-.46c7.93-3.86,3.1-19.55.65-28.3S1400,182,1396.36,181.48c-2.31-.33-5.39,2.27-8.33,6.05a.53.53,0,0,0-.12.15h0C1383.13,193.85,1378.38,200.3,1378,205Z"/><path class="cls-2" d="M1378,205c-.18,2,3.73,5.23,8.42,11,3.25,4,8.65,9.39,14.3,11a10.15,10.15,0,0,0,7.46-.46c7.93-3.86,3.1-19.55.65-28.3S1400,182,1396.36,181.48c-2.31-.33-5.39,2.27-8.33,6.05a.53.53,0,0,0-.12.15h0C1383.13,193.85,1378.38,200.3,1378,205Z"/><path class="cls-3" d="M1388,187.53c.48-.55,4.77-4.06,8.39-.37,9.26,9.45,11.76,28.58,11.11,31.9-.94,4.74-2.7,7.27-6.84,8a10.15,10.15,0,0,0,7.46-.46c7.93-3.86,3.1-19.55.65-28.3S1400,182,1396.36,181.48C1394.05,181.15,1391,183.75,1388,187.53Z"/><g class="cls-7"><path d="M1408.67,223.13a15.05,15.05,0,0,1-4.23.23,8.18,8.18,0,0,1-3.92-1.26c-2.42-1.49-4.79-3.07-7.09-4.73-1.15-.83-2.27-1.7-3.35-2.61-.55-.45-1-.93-1.59-1.42a16.7,16.7,0,0,0-1.72-1.32,48.71,48.71,0,0,0-7.49-4.19c1.23.73,2.45,1.46,3.64,2.24s2.38,1.56,3.51,2.42c.56.42,1.1.88,1.61,1.34s1,1,1.56,1.48c1.08,1,2.22,1.83,3.38,2.68a69.26,69.26,0,0,0,7.23,4.63,8.82,8.82,0,0,0,4.21,1.13A13.8,13.8,0,0,0,1408.67,223.13Z"/><path d="M1409.21,218.88a20.66,20.66,0,0,0-4.53-1.66,11.66,11.66,0,0,0-2.44-.33c-.42,0-.86,0-1.22,0a9.07,9.07,0,0,1-1.16,0c-1.56-.08-3.14-.31-4.72-.52l-4.75-.64A46.13,46.13,0,0,0,1395,217a33.17,33.17,0,0,0,4.78.7c.41,0,.82,0,1.24,0s.8-.06,1.18-.07a14.14,14.14,0,0,1,2.32.19A42.75,42.75,0,0,1,1409.21,218.88Z"/><path d="M1378.56,206.8c1.27.31,2.54.6,3.8.93s2.53.63,3.78,1a66.56,66.56,0,0,1,7.38,2.47,30.85,30.85,0,0,0,7.75,1.47,55.61,55.61,0,0,0,7.85.09c-1.31-.08-2.61-.16-3.9-.28s-2.6-.24-3.88-.41-2.57-.35-3.84-.61a23,23,0,0,1-3.71-1,47.64,47.64,0,0,0-7.51-2.32A72,72,0,0,0,1378.56,206.8Z"/><path d="M1377.91,205.43c1.8-1.63,3.51-3.36,5.16-5.14a56.29,56.29,0,0,0,4.65-5.65c.36-.49.68-1,1-1.55s.6-1.09.85-1.62a13.58,13.58,0,0,1,2-2.88c1.6-1.77,3.76-2.94,5.78-4.28-1.09.53-2.18,1.06-3.25,1.66a15.37,15.37,0,0,0-3,2.2,13,13,0,0,0-2.26,3c-.29.55-.58,1.08-.86,1.59s-.63,1-1,1.49c-1.37,2-2.92,3.83-4.46,5.7-.77.93-1.55,1.85-2.35,2.76Z"/><path d="M1399.73,187.73l-3.28,3.05c-.56.5-1.1,1-1.66,1.48a11.5,11.5,0,0,1-1.73,1.3,34.21,34.21,0,0,1-4.09,1.65,9.77,9.77,0,0,0-3.89,2.26,13.61,13.61,0,0,1,4.09-1.69,21.3,21.3,0,0,0,4.27-1.55,17.52,17.52,0,0,0,3.43-3A36.45,36.45,0,0,0,1399.73,187.73Z"/><path d="M1403.38,195.6a33.94,33.94,0,0,1-2.79,2,27.34,27.34,0,0,1-2.94,1.74,14.09,14.09,0,0,1-3.15,1.17l-.81.14-.87.13c-.58.11-1.15.23-1.71.37a61.94,61.94,0,0,0-6.59,2.17c-2.15.83-4.28,1.72-6.35,2.73l6.55-2.16c2.19-.7,4.37-1.43,6.58-2,.55-.16,1.1-.27,1.65-.39l.83-.13.89-.16a12.87,12.87,0,0,0,3.26-1.37A24.9,24.9,0,0,0,1403.38,195.6Z"/><path d="M1405.23,200.65c-.83.39-1.64.8-2.47,1.17s-1.65.77-2.49,1.11a14.6,14.6,0,0,1-5.11,1.36c-1.77,0-3.58-.25-5.4-.42a22.33,22.33,0,0,0-5.48-.14,16.39,16.39,0,0,1,2.71.28c.9.13,1.79.29,2.69.45a32.14,32.14,0,0,0,5.49.6,13,13,0,0,0,5.34-1.59A34,34,0,0,0,1405.23,200.65Z"/><path d="M1406.72,207.24c-1.84-.17-3.69-.24-5.53-.29s-3.7,0-5.55,0c-.92,0-1.85.1-2.77.18a14.19,14.19,0,0,0-1.41.22c-.46.09-.88.19-1.33.26a22.53,22.53,0,0,1-2.73.27c-.91.08-1.83.09-2.76.12a24,24,0,0,0,5.56.2,12.75,12.75,0,0,0,1.4-.19c.43-.07.88-.11,1.33-.14.91-.07,1.83-.12,2.75-.15l5.51-.21,2.77-.13C1404.88,207.36,1405.8,207.32,1406.72,207.24Z"/><path d="M1393.79,188.73a.93.93,0,0,0,.81,1.05.94.94,0,1,0-.81-1.05Z"/><path d="M1397.43,194.51a1,1,0,0,0,.81,1.05.94.94,0,1,0-.81-1.05Z"/><path d="M1400.33,200a.93.93,0,0,0,.81,1.05.94.94,0,0,0,.23-1.87A.93.93,0,0,0,1400.33,200Z"/><path d="M1401.52,204.73a.93.93,0,0,0,.81,1.05.94.94,0,0,0,1.05-.81.94.94,0,0,0-1.86-.24Z"/><path d="M1402.47,209.84a1,1,0,0,0,.82,1,.93.93,0,0,0,1-.81.92.92,0,0,0-.81-1.05A.94.94,0,0,0,1402.47,209.84Z"/><path d="M1403.2,214.81a.94.94,0,1,0,1.86.24.94.94,0,0,0-1.86-.24Z"/><path d="M1402.73,220.35a.94.94,0,1,0,1-.81A.92.92,0,0,0,1402.73,220.35Z"/><path d="M1399.52,224.84a.93.93,0,0,0,.81,1,.94.94,0,1,0,.24-1.86A.93.93,0,0,0,1399.52,224.84Z"/></g><path class="cls-1" d="M1364.83,158.53h0a104.91,104.91,0,0,0,1.34,13.07c2.35,13.95,9,35.94,11.41,33.83,5.42-4.84,11.36-14.28,14.7-23.24h0c2.5-6.72,3.56-13.17,1.84-17.2-2.32-5.45-5-6.66-10.08-10.48s-7.53-13.18-13.82-14.92C1365.78,138.38,1364.42,147.91,1364.83,158.53Z"/><path class="cls-3" d="M1364.83,158.4c-.15-2.87,1.58-13.32,5-12.88s7.84,11.57,10.77,14.38,8.34,3.49,10.62,7.17,1.27,11.7,1,15.13h0c2.5-6.72,3.56-13.17,1.84-17.2-2.32-5.45-5-6.66-10.08-10.48s-7.53-13.18-13.82-14.92c-4.45-1.22-5.81,8.31-5.4,18.93Z"/><path class="cls-9" d="M1370.34,140.78a1.14,1.14,0,0,1,1.37.48,1.44,1.44,0,0,1,0,1.51.85.85,0,0,1-1.09.45.57.57,0,0,1-.16-.11,1.09,1.09,0,0,1-.15-.08,1.53,1.53,0,0,1-.63-1.06A1.18,1.18,0,0,1,1370.34,140.78Z"/><path class="cls-9" d="M1367,144.14l0-.23a.77.77,0,0,1,1.51.31c0,.07,0,.15,0,.23A.77.77,0,0,1,1367,144.14Z"/><path class="cls-9" d="M1366.12,146.25a.56.56,0,0,1,1,.5A.56.56,0,0,1,1366.12,146.25Z"/><path class="cls-9" d="M1390.69,162.93a.56.56,0,0,1,1,.5A.56.56,0,0,1,1390.69,162.93Z"/><path class="cls-9" d="M1372.78,145.38a1.19,1.19,0,0,1-.16-1.55,1.12,1.12,0,0,1,1.46-.37,1.35,1.35,0,0,1,.66,1.24.73.73,0,0,1-.46,1A1.45,1.45,0,0,1,1372.78,145.38Z"/><path class="cls-9" d="M1383.88,160.49a1.22,1.22,0,0,1-.17-1.56,1.15,1.15,0,0,1,1.47-.37,1.35,1.35,0,0,1,.66,1.24.73.73,0,0,1-.46,1A1.47,1.47,0,0,1,1383.88,160.49Z"/><path class="cls-9" d="M1375,147a.77.77,0,0,1,1.38.69A.77.77,0,0,1,1375,147Z"/><path class="cls-9" d="M1370.56,144.72a.45.45,0,0,1,.81.4A.45.45,0,0,1,1370.56,144.72Z"/><path class="cls-9" d="M1372.76,142a.35.35,0,0,1,.62.31A.35.35,0,0,1,1372.76,142Z"/><path class="cls-9" d="M1379.68,156.64a.35.35,0,0,1,.62.31A.35.35,0,0,1,1379.68,156.64Z"/><path class="cls-9" d="M1377.48,148.68a.35.35,0,0,1,.62.31A.35.35,0,0,1,1377.48,148.68Z"/><path class="cls-9" d="M1386.88,158.57a.35.35,0,0,1,.62.32A.35.35,0,0,1,1386.88,158.57Z"/><path class="cls-9" d="M1392,165.49a.35.35,0,0,1,.62.31A.35.35,0,0,1,1392,165.49Z"/><path class="cls-9" d="M1388.73,163a.35.35,0,0,1,.62.31A.35.35,0,0,1,1388.73,163Z"/><path class="cls-9" d="M1373.53,146.9a.35.35,0,0,1,.63.31A.35.35,0,0,1,1373.53,146.9Z"/><path class="cls-9" d="M1367.81,141.88a.35.35,0,0,1,.62.32A.35.35,0,0,1,1367.81,141.88Z"/><path class="cls-9" d="M1376.67,151.69a1,1,0,0,1,1.68-.75.7.7,0,0,1,.2.44A1,1,0,0,1,1376.67,151.69Z"/><path class="cls-9" d="M1379.29,154.6a1,1,0,0,1-.29-.52,1,1,0,0,1,.24-.91.78.78,0,0,1,1.38.35c0,.13.07.27.11.4a.79.79,0,0,1,.13.31.94.94,0,0,1-.35.91A.76.76,0,0,1,1379.29,154.6Z"/><path class="cls-9" d="M1382,156.8a.77.77,0,0,1,1.38.69A.77.77,0,0,1,1382,156.8Z"/><path class="cls-9" d="M1388,160.7a.77.77,0,0,1,1.38.69A.77.77,0,0,1,1388,160.7Z"/><g class="cls-7"><path d="M1391.85,162.23a7,7,0,0,1,.06,1.44c0,.49,0,1-.07,1.45-.07,1-.15,1.92-.25,2.88q-.27,2.88-.71,5.73a24.44,24.44,0,0,1-1.33,5.55,43.16,43.16,0,0,1-2.56,5.14c-1.84,3.37-3.92,6.66-5.48,10.23-.77,1.78-1.44,3.6-2.11,5.41-.32.91-.64,1.82-1,2.71a11.71,11.71,0,0,1-1.32,2.56,10.49,10.49,0,0,0,1.51-2.48c.42-.87.8-1.76,1.18-2.65.73-1.79,1.47-3.57,2.3-5.3,1.64-3.47,3.7-6.74,5.61-10.11a42.49,42.49,0,0,0,2.54-5.26,22.64,22.64,0,0,0,1.26-5.71c.22-1.93.39-3.86.49-5.79,0-1,.07-1.94.08-2.91A12.74,12.74,0,0,0,1391.85,162.23Z"/><path d="M1388.78,163.77c-.33,1-.61,2-.89,3l-.75,3.05a44.75,44.75,0,0,0-1,6.23c-.11,2.1-.31,4.16-.49,6.25s-.39,4.16-.55,6.25c.45-2,.81-4.11,1.12-6.19s.56-4.16.69-6.25.54-4.11.88-6.17l.52-3.09Z"/><path d="M1387.27,160.43a110.38,110.38,0,0,0-4.83,10.62c-.34.92-.68,1.83-.93,2.79a17.75,17.75,0,0,0-.44,2.93l-.5,5.81c-.14,1.94-.3,3.87-.5,5.79a35.72,35.72,0,0,1-.92,5.69,105.26,105.26,0,0,0-2.12,11.48c.43-1.89.82-3.8,1.27-5.68s.87-3.79,1.43-5.63a31.9,31.9,0,0,0,1-5.78c.22-1.93.4-3.87.56-5.81l.43-5.8a17.23,17.23,0,0,1,.39-2.83c.24-.92.54-1.84.84-2.76.63-1.82,1.34-3.63,2.07-5.43S1386.53,162.23,1387.27,160.43Z"/><path d="M1380.31,157.53a89.09,89.09,0,0,0-3.93,11.72,22.45,22.45,0,0,0-.57,3.07,10.66,10.66,0,0,0,0,1.6c0,.51,0,1,0,1.53,0,2,0,4.09-.09,6.15l-.17,6.16c0,2.06-.15,4.11-.08,6.19.18,4.13.58,8.22,1.06,12.31l-.27-6.16c-.09-2.06-.18-4.11-.19-6.16,0-4.09.3-8.21.42-12.32,0-2.06.08-4.12,0-6.19,0-.52,0-1-.08-1.56a10.5,10.5,0,0,1,0-1.48,28.53,28.53,0,0,1,.48-3c.42-2,1-4,1.54-5.95S1379.68,159.49,1380.31,157.53Z"/><path d="M1383.6,159.3c-.68,1.32-1.32,2.65-1.94,4s-1.21,2.7-1.88,4c-.33.6-.78,1.22-1.17,1.84s-.79,1.25-1.14,1.91a15.19,15.19,0,0,0-.94,2.05,5.54,5.54,0,0,0-.37,2.2,6.19,6.19,0,0,1,.72-2.05,21.21,21.21,0,0,1,1.11-1.89c.79-1.24,1.67-2.37,2.47-3.68a37.62,37.62,0,0,0,1.76-4.11C1382.74,162.14,1383.2,160.73,1383.6,159.3Z"/><path d="M1374.6,147.92a117.87,117.87,0,0,0-2.44,14.11c-.12,1.19-.22,2.39-.23,3.59s0,2.39,0,3.58l0,7.16c0,2.39.12,4.77.31,7.17.09,1.19.25,2.39.42,3.57s.35,2.36.55,3.54l1.18,7.05.64,3.52.32,1.76.3,1.6c0,.14,0,0,0-.06l0-.22,0-.45-.11-.89-.23-1.77-.46-3.55-1-7.08c-.28-2.37-.7-4.73-.86-7.08s-.2-4.74-.23-7.12l-.12-7.15c0-1.19-.05-2.4-.05-3.57s.07-2.37.15-3.55c.18-2.37.46-4.73.79-7.09S1374.22,150.27,1374.6,147.92Z"/><path d="M1369.88,144.36c-.52,3.12-.91,6.26-1.24,9.4-.18,1.58-.29,3.16-.4,4.74s-.17,3.17-.11,4.78a35.26,35.26,0,0,0,.72,4.73c.32,1.56.65,3.11,1.06,4.64.78,3.06,1.64,6.11,2.63,9.11l-1-4.63c-.35-1.53-.7-3.08-1-4.62s-.66-3.08-1-4.63a35.54,35.54,0,0,1-.63-4.65,93.15,93.15,0,0,1,.32-9.42Z"/><path d="M1366.34,172.59c.44,1.78,1,3.52,1.51,5.27s1.14,3.46,1.75,5.18c.32.86.63,1.72,1,2.57s.69,1.69,1.07,2.52l1.11,2.5c.39.83.76,1.66,1.18,2.48-.25-.88-.55-1.75-.83-2.62l-.91-2.59-1.87-5.12c-.63-1.71-1.25-3.42-1.92-5.12S1367.08,174.26,1366.34,172.59Z"/></g><path class="cls-10" d="M1415.45,689.46c-6.48-2.17-.72-20.88,6.49-26.67,2.3-1.83,10.81-6.16,21.48-11.31,23.49-11.29,57.26-26.39,57.26-26.39L1471.89,503.2l117.26.63s32,114.49,31.83,121.61l0,1.32c-1,32.31-2.6,58.75-5.26,60.41C1608.58,691.68,1422,691.64,1415.45,689.46Z"/><path class="cls-3" d="M1475.57,613.56c8.92,6.93,20.53,9.74,30.94,13.58a1.55,1.55,0,0,0,2-1.57.34.34,0,0,0,.3-.46,67.32,67.32,0,0,0-19.44-28.85c-5.27-4.41-14.5-7.47-19.44-.64C1465.22,602.07,1470.36,609.52,1475.57,613.56Zm-3.22-10.14c-2.24-13.82,12.61-6.58,16.37-3.17a71.21,71.21,0,0,1,6.68,7.21c4.38,5.23,7.92,11,11.73,16.6-5-2.2-10.14-4-15.22-6C1485.87,615.69,1473.58,611.05,1472.35,603.42Z"/><path class="cls-3" d="M1550.84,605.86c-3.06-7.86-12.76-7.23-19-4.29a67.15,67.15,0,0,0-26.11,23,.33.33,0,0,0,.17.51,1.56,1.56,0,0,0,1.51,2c11-1.09,23-.87,33.37-5.32C1546.87,619.19,1553.73,613.29,1550.84,605.86Zm-27,16.17c-5.42.66-10.84,1.06-16.23,1.92,5.1-4.47,10-9.13,15.54-13.09a73.23,73.23,0,0,1,8.3-5.28c4.49-2.35,20.69-5.6,15,7.21C1543.37,619.85,1530.31,621.24,1523.85,622Z"/><path class="cls-4" d="M1752.55,422s21,76.09-15.67,98.61c-24.5,15-132.76-5.76-137.37-19.14-8.7-25.28-8.71-34.55-8.71-34.55l27.79,134-136.38,1.6s-25.6-110.88-19-228.57c2.43-43.51,60.92-56.68,101.61-35,39.45,21,110.1,79.24,110.1,79.24Z"/><path class="cls-3" d="M1607.09,522.36c-7.35-18-6.78-25.05-25.13-80.88-2.46-7.46-4.51-15.05-6.7-22.59-2.28-7.82-5-15.61-6.69-23.58-.08-.39-.71-.23-.6.15,2.12,6.91,3.5,14,5.32,21s3.6,13.67,5.51,20.47c.83,2.94,1.69,5.87,2.53,8.8-.37-.61-.74-1.21-1.08-1.81-1.61-2.75-3.22-5.49-4.89-8.21-3.43-5.59-7.6-10.84-10.61-16.68-.19-.35-.75,0-.54.31,3.47,5.57,5.93,11.77,9.18,17.48,1.57,2.77,3.22,5.49,4.91,8.19a54.13,54.13,0,0,0,4.9,7.24c2.51,8.62,7.89,29.38,10.56,37.95,8.44,27,5.68,18.2,12,32.69C1606.06,523.66,1607.4,523.14,1607.09,522.36Z"/><path class="cls-3" d="M1545,578.76c20.54-.22,41-1.38,61.56-1.78.39,0,.45-.61,0-.61-20.46-.12-40.9-.92-61.37-.67s-41,1.25-61.54,1.94c-.52,0-.6.83-.06.83C1504.06,578.51,1524.5,579,1545,578.76Z"/><path class="cls-3" d="M1595.29,571.9c-1.88-9.07-4.5-18-6.9-26.92s-4.8-17.89-7.27-26.82c-4.94-17.86-10.1-35.66-15.24-53.47-2.91-10.11-6.07-20.16-9.16-30.22-.09-.28-.54-.18-.46.11q13.73,53.87,29.49,107.19c3,10.08,5.67,20.3,9.22,30.21A.17.17,0,0,0,1595.29,571.9Z"/><path class="cls-3" d="M1736.89,520.55c36.69-22.52,15.67-98.61,15.67-98.61l-65.44-3.19L1598,497c.47,1.4,1,2.86,1.48,4.38C1604.11,514.79,1712.38,535.6,1736.89,520.55Z"/><path class="cls-3" d="M1481.53,599.42c.43,2,.68,3.08.68,3.08l136.39-1.6-21.39-103.14Z"/><path class="cls-10" d="M2031.89,703.51c1.22,6.73-18,10.7-26.5,7.16-2.71-1.13-10.61-6.5-20.25-13.37-21.22-15.15-50.71-37.47-50.71-37.47l-100.22,6.06-55.92-103.07s92.17-5.33,98.5-8.59l1.17-.61c28.8-14.68,52.75-26,55.48-24.49C1940.81,533.19,2030.66,696.74,2031.89,703.51Z"/><path class="cls-4" d="M1666.27,403.32s-3.47,31.65-3.16,55.86c0,0-129.55,67.9-135.46,132.43-2.1,22.87,1,65.69,45.78,85.21,50.08,21.81,326.85,6.79,326.85,6.79l-34.57-127.43-122.07.05s86.13,13.7,95.49-43.7c8.7-53.35-24.07-109.21-24.07-109.21Z"/><path class="cls-3" d="M1785.78,556.21c-9.89-.7-19.8-1-29.71-1.22s-19.83-.1-29.74.08-19.83.71-29.72,1.6a214.81,214.81,0,0,0-29.44,4.25l7.37-1,7.39-.7c4.92-.42,9.85-.83,14.79-1,9.88-.57,19.76-1,29.66-1.13,9.89-.35,19.79-.42,29.68-.55Z"/><path class="cls-3" d="M1787.94,413.78a356.16,356.16,0,0,1,11.51,34.66,224.12,224.12,0,0,1,7.06,35.72,102.29,102.29,0,0,1,.38,18.09c-.49,6-1.67,12-4.4,17.2a24.15,24.15,0,0,1-5.28,6.9,43.45,43.45,0,0,1-7.26,5.1,81,81,0,0,1-16.66,6.7c-11.6,3.33-23.66,5.05-35.72,6.48s-24.22,2.39-36.37,3.62-24.32,2.7-36.3,5.65a71.19,71.19,0,0,0-17.45,6.43,81.91,81.91,0,0,0-15.17,10.75l-2.74,2.44,3.7,0,98.71-1.33,49.35-.4c16.45-.06,32.91-.09,49.36.35-16.43-1-32.9-1.21-49.35-1.5s-32.92-.33-49.37-.38l-49.37,0-49.37.46,1,2.39a79.64,79.64,0,0,1,14.64-10.28,68.14,68.14,0,0,1,16.8-6.1c11.72-2.81,23.83-4.2,35.91-5.54s24.25-2.33,36.39-3.8,24.28-3.29,36.12-6.74a77.72,77.72,0,0,0,17.13-7.09,45.28,45.28,0,0,0,7.59-5.5,26.53,26.53,0,0,0,5.68-7.61c2.84-5.66,4-11.91,4.38-18.05a102.87,102.87,0,0,0-.64-18.41,210.8,210.8,0,0,0-7.8-35.8A321.23,321.23,0,0,0,1787.94,413.78Z"/><path class="cls-3" d="M1680.38,402a.24.24,0,0,0-.48,0c-.51,4.41-2.05,29.62-2.82,39.12-.27,3.38-.09,9.42-5,9.41-3.91,0-5.85-4.26-6.28-7.57-.53-4,1.63-33.29,2.13-43,0-.28-.43-.29-.48,0-1.8,9.76-5.27,40.79-4.24,45.14.81,3.42,2.56,6.66,6,7.8a63.21,63.21,0,0,0,.17,11.51c0,.31,1,.4,1.1.14h0c-.17-2.28,1-11.12,1-11.17,2.56,0,4.56-.58,6.28-2.86C1681.22,445.86,1680.47,413.21,1680.38,402Z"/><path class="cls-3" d="M1694.38,476.75c-3.53-2.44-7.18-4.66-10.86-6.83s-7.42-4.24-11.19-6.25-7.58-3.93-11.48-5.7-7.8-3.52-11.84-4.94c1.83,1.11,3.71,2.12,5.55,3.21l5.59,3.11c3.72,2.09,7.49,4.09,11.25,6.09s7.55,4,11.39,5.83l5.75,2.82C1690.49,475,1692.4,475.91,1694.38,476.75Z"/><path class="cls-3" d="M1786.33,456.48c-6.88,0-28.3,1.23-38.52-7.4-8.26-7-11.9-30.82-13.32-37.36-.07-.32-.54-.21-.55.09a74.89,74.89,0,0,0,2.77,21.88c1.66,6,3.9,12.77,8.77,17,5.14,4.45,12.1,6,18.67,6.83a85.49,85.49,0,0,0,22.2-.31A.37.37,0,0,0,1786.33,456.48Z"/><path class="cls-3" d="M1681.27,118.42c-11.76-3.33-37.17-1.28-47.21,27.52-14.26,40.89,33.57,106.6,43.24,115.34,0,0,57.46-8.42,87.7-55.8,0,0-48.63-35.85-57.66-62.53C1702.1,127.5,1689.88,120.87,1681.27,118.42Z"/><path class="cls-3" d="M1725.73,167.49c.36.32.7.65,1.06,1A98.64,98.64,0,0,0,1741.57,179a60.14,60.14,0,0,0,15.92,6.91c.15,0,.25-.19.09-.24-5.77-1.58-10.86-4.78-15.73-8.1A145.7,145.7,0,0,1,1728.18,167a137.69,137.69,0,0,1-23.37-26.09c-.13-.19-.47,0-.36.22q1.23,2.13,2.54,4.18a.2.2,0,0,0-.14.32c6,9.14,12.13,17.95,19.88,25.69a117.32,117.32,0,0,0,25.9,19.15A146.82,146.82,0,0,0,1769,198.4c.08,0,.13-.1,0-.13C1752.76,190.82,1738.38,180,1725.73,167.49Z"/><path class="cls-3" d="M1640.76,137.25c-17,28-8.74,61.63,5.13,88.07a139.48,139.48,0,0,0,14.89,23.14.13.13,0,0,0,.21-.16,164.8,164.8,0,0,1-21.07-42.55c-4.55-14.2-8-29.57-6.3-44.73a57.13,57.13,0,0,1,7.51-23.49C1641.29,137.27,1640.92,137,1640.76,137.25Z"/><path class="cls-10" d="M1695.56,250.12c-27.78,73.93-53.6,116.69-73.74,118.67-22.16,2.18-86.36-48-118.41-75.33-4.47-3.81,46.46-58.15,51.86-54.32,21.26,15.08,56.32,51.41,64.07,53,5.05,1,19.2-19.68,49.77-53.19C1696.41,209.05,1707.93,217.2,1695.56,250.12Z"/><path class="cls-10" d="M1506.83,296.07c-7.91-4.78-36-25.4-50.54-45-7.07-9.51-24.46-38.94-17.58-44.92s12.73,2.17,12.73,2.17-5.49-13.53,2-18.92,16.15,7.6,16.15,7.6-4.62-14.32,3.22-19.16,14.37,9.68,14.37,9.68-4.83-12.89,3.3-14.16c9.79-1.53,16,23.24,24.35,33.35,1.9,2.3,41.69,43.83,41.69,43.83Z"/><path class="cls-3" d="M1487.4,187.66c4.63,18.21,9.8,25.37,23.21,38.09.26.25,0,.7-.34.46-14.27-11.26-22.06-19.31-23.76-38.37C1486.43,186.91,1487.18,186.8,1487.4,187.66Z"/><path class="cls-3" d="M1469.15,196.35c6.45,18.49,12,26.31,25.06,40.67.19.2-.14.53-.34.34-14-13-21.58-21.22-25.61-40.54C1468.08,196,1468.85,195.5,1469.15,196.35Z"/><path class="cls-3" d="M1452,209.84c7.54,17.45,13.25,26.28,27.73,38.59a.35.35,0,0,1-.42.56c-16-11.12-23.19-22.09-27.81-38.86C1451.22,209,1451.57,208.74,1452,209.84Z"/><path class="cls-10" d="M1555.38,250.89s.24-23.54-1.94-33.9-24.5-46-32.46-41.6c-10.29,5.66-1.46,28.77,4.35,39.52,0,0-23.81,13.07-21.06,31S1555.38,250.89,1555.38,250.89Z"/><path class="cls-3" d="M1518.66,177.88c-5.66,11.93,2.87,25.55,7.73,36.4a1.09,1.09,0,0,1-.85,1.57c-9.62,6.15-21.39,17.61-21.87,29.65a.28.28,0,0,1-.55,0c-1.24-13,9.41-25.18,20.37-31.24-5.15-11.05-13.11-25.09-4.94-36.46A.06.06,0,1,1,1518.66,177.88Z"/><path class="cls-1" d="M1591,265.13l-54.38,65s70.72,47.94,91,39,51.67-69.61,69.17-115.81-7.29-39-26.4-18.17-44.37,57-49.26,56.34S1591,265.13,1591,265.13Z"/><path class="cls-2" d="M1674.56,230.88l28.14-.34c0,.63-.1,1.27-.18,2l-30,.37C1673.22,232.18,1673.88,231.52,1674.56,230.88Zm-14.85,16.61L1699,247c.23-.66.45-1.33.64-2l-38.3.47C1660.82,246.14,1660.26,246.8,1659.71,247.49Zm-11.83,14.6,45.73-.57c.25-.66.53-1.32.78-2l-44.93.55C1648.91,260.76,1648.38,261.42,1647.88,262.09Zm-67.12,15.26,22.44-.27,32.9-.39,51.45-.63c.29-.66.56-1.32.86-2l-50.69.62-36.55.43-18.76.23ZM1568.53,292l52.09-.62,1.33,0,59.07-.72c.31-.66.62-1.31.91-2l-57.15.68-7.45.1-47.14.56Zm-12.22,14.6L1674,305.13c.33-.64.66-1.31,1-2l-117,1.43Zm-12.22,14.61,122.25-1.49c.37-.66.72-1.3,1.07-2l-121.67,1.48Zm-2,12.53c.9.59,1.89,1.23,3,1.91l112.88-1.36c.41-.65.8-1.31,1.21-2Zm23.24,14.17,3.41,1.91,79.58-.95c.46-.65.93-1.31,1.4-2ZM1592.71,362q2.28,1,4.5,1.91l38.56-.47c.68-.62,1.37-1.29,2.07-2Z"/><polygon class="cls-1" points="1598.63 268.64 1545.18 339.64 1529.44 328.74 1586.48 254.8 1598.63 268.64"/><polygon class="cls-2" points="1598.63 268.64 1545.18 339.64 1529.44 328.74 1586.48 254.8 1598.63 268.64"/><path class="cls-2" d="M1598.73,364.51c12,4.81,22.75,7.3,28.9,4.59,20.29-8.93,51.67-69.6,69.17-115.81,9.23-24.34,6.7-33.88-.54-34.35C1681.66,240.7,1622.13,329.16,1598.73,364.51Z"/><path class="cls-1" d="M1842.25,442.55s-183,2.66-183,2.68c.7,3.49-11.06-125.06,18.76-218.44,2-6.36,28.87-18,43.48-9.06C1785.48,257.08,1842.16,441,1842.25,442.55Z"/><path class="cls-2" d="M1696.3,216.16l21.27-.26a19.22,19.22,0,0,1,3.92,1.84.42.42,0,0,1,.12.08l-31.43.37A52.88,52.88,0,0,1,1696.3,216.16Zm-20.14,16.67,62.81-.76c-.64-.67-1.3-1.33-2-1.95l-60.26.74C1676.55,231.5,1676.36,232.16,1676.16,232.83Zm-3.93,14.5,79.18-1c-.5-.67-1-1.31-1.52-1.93l-77.16.93C1672.56,246,1672.4,246.67,1672.23,247.33Zm-3.28,14.5,92.85-1.13c-.45-.64-.87-1.3-1.34-1.95l-91.1,1.1Zm-2.75,14.49,104.71-1.27c-.39-.66-.78-1.31-1.19-2l-103.17,1.27C1666.44,275,1666.32,275.66,1666.2,276.32Zm-2.28,14.48,115.25-1.4c-.37-.64-.72-1.31-1.09-1.95l-113.87,1.38C1664.12,289.5,1664,290.16,1663.92,290.8Zm-1.85,14.47,124.71-1.5-1-2-123.48,1.5C1662.22,303.94,1662.15,304.6,1662.07,305.27Zm-1.5,14.48,133.32-1.64-.93-1.93-132.2,1.6C1660.68,318.45,1660.63,319.11,1660.57,319.75Zm-1.15,14.47,141.18-1.72c-.3-.64-.59-1.29-.88-1.95l-140.17,1.7C1659.5,332.91,1659.46,333.55,1659.42,334.22Zm-.88,14.46,148.39-1.79c-.27-.66-.54-1.31-.84-1.95l-147.45,1.79C1658.6,347.38,1658.58,348,1658.54,348.68Zm-.58,14.47,155-1.87-.8-2L1658,361.18C1658,361.84,1658,362.48,1658,363.15Zm-.34,14.46,161.13-2c-.26-.64-.51-1.28-.76-1.95l-160.33,1.95C1657.64,376.31,1657.64,377,1657.62,377.61Zm-.07,12.5v1.95l166.71-2c-.23-.64-.48-1.31-.72-1.95Zm.13,14.44c0,.67,0,1.33,0,2l171.87-2.08c-.24-.65-.47-1.31-.71-2Zm.37,14.47.06,2,176.51-2.15c-.22-.62-.45-1.28-.67-1.95Zm.61,14.42c0,.69.06,1.35.09,2l180.64-2.18c-.19-.62-.39-1.29-.62-2Z"/><rect class="cls-3" x="1744.56" y="405.72" width="96.47" height="58.6" transform="translate(3633.1 563.94) rotate(170.37)"/><polygon class="cls-3" points="1758.57 411.11 1783.87 406.82 1779.9 399.48 1759.9 402.88 1758.57 411.11"/><rect class="cls-9" x="1764.34" y="404.27" width="12.96" height="4.73" transform="translate(3584.73 511.22) rotate(170.37)"/><polygon class="cls-3" points="1739.2 422.29 1739.98 426.88 1742.56 427.29 1742.89 429.26 1738.7 428.57 1737.44 421.11 1741.16 419.08 1741.5 421.05 1739.2 422.29"/><path class="cls-4" d="M1752.72,442.9a23.92,23.92,0,1,1,27.58,19.58A23.95,23.95,0,0,1,1752.72,442.9Zm1.32-.22a22.58,22.58,0,1,0,18.48-26A22.62,22.62,0,0,0,1754,442.68Z"/><path class="cls-1" d="M1758.16,442a18.4,18.4,0,1,0,15.06-21.22A18.4,18.4,0,0,0,1758.16,442Z"/><path class="cls-11" d="M1745,418.43a1.94,1.94,0,1,0,1.58-2.24A1.94,1.94,0,0,0,1745,418.43Z"/><path class="cls-12" d="M1840.47,403.62a1033.38,1033.38,0,0,0-55.31-105,561.7,561.7,0,0,0-33.24-49.39,255.91,255.91,0,0,0-19.39-22.83l-2.65-2.68-1.33-1.34L1727.1,221a44.51,44.51,0,0,0-6.33-4.78,37.65,37.65,0,0,0-7.27-3.47,33.09,33.09,0,0,0-8-1.61,30.26,30.26,0,0,0-15.89,3.44,32.65,32.65,0,0,0-12,10.85,27.7,27.7,0,0,0-4.79,15.62l.13,2.1.24,1.88.49,3.75c.42,2.48.81,5,1.31,7.42,2,9.83,4.55,19.45,7.4,29s6,18.93,9.42,28.25c13.52,37.28,29.7,73.45,47.37,108.83-7.74-18.2-15.39-36.41-22.5-54.84s-14.12-36.87-20.42-55.55-12.06-37.54-15.65-56.73c-.45-2.39-.79-4.8-1.2-7.19l-.45-3.6-.22-1.8-.09-1.59a21.85,21.85,0,0,1,3.89-12.26,26.64,26.64,0,0,1,9.8-8.82,24.6,24.6,0,0,1,12.74-2.72,27.34,27.34,0,0,1,6.48,1.27,33,33,0,0,1,6.08,2.87c3.92,2.34,7.19,5.64,10.65,9.15a280.45,280.45,0,0,1,19.13,22.21c12.1,15.45,23.12,31.8,33.77,48.38s20.75,33.55,30.57,50.68S1831.16,386.18,1840.47,403.62Z"/><path class="cls-10" d="M1689.12,252.14c8.9-.24,23.72-14.74,26.51-28.29.19-.93-3.6-8.94-7.75-18.89-2.49-6-5.13-12.84-7.08-19.21-.4-1.31-37,22-37,22s8,12.16,11.37,23.29a15.14,15.14,0,0,1,.53,2.7c0,.12,0,.28.07.45C1676.5,239.37,1679.6,252.41,1689.12,252.14Z"/><path class="cls-3" d="M1675.7,233.71c0,.13,0,.29.09.44a27.66,27.66,0,0,0,4.15-1c23.37-7.74,20.54-39.08,19.45-46.91-6.79,3.19-35.58,21.52-35.58,21.52s8,12.16,11.38,23.29A15.21,15.21,0,0,1,1675.7,233.71Z"/><path class="cls-10" d="M1693,133.87c8.26,13.11,12,56.48,4.3,68.46-11.1,17.38-34.9,25.23-51.07,10.6-15.68-14.19-19.51-70.8-10.43-82.27C1649.16,113.78,1680.79,114.5,1693,133.87Z"/><path class="cls-3" d="M1642.66,172.24c0-.11-.21.17-.2.29.47,2.89.53,6.29-2,7.59-.08,0,0,.19,0,.16C1643.68,179.41,1643.56,174.91,1642.66,172.24Z"/><path class="cls-3" d="M1639.66,169.54c-4.72.25-3.87,9.68.51,9.45S1643.62,169.33,1639.66,169.54Z"/><path class="cls-3" d="M1664.89,165a35.26,35.26,0,0,1-3.76,1c-1.45.37-2.56.81-4,.28a2,2,0,0,1-1.1-2.18c.47-1.84,2.13-2.73,3.85-3.24a7.32,7.32,0,0,1,5.25.25C1666.85,161.86,1666.53,164.43,1664.89,165Z"/><path class="cls-3" d="M1635.34,163.82a38.65,38.65,0,0,0,3.6-1.45c1.38-.58,2.54-.89,3.4-2.19a2,2,0,0,0-.43-2.4c-1.47-1.2-3.33-.91-5-.29a7.26,7.26,0,0,0-4.06,3.34C1631.87,162.45,1633.66,164.32,1635.34,163.82Z"/><path class="cls-3" d="M1665.62,196.22c-.61.77-1.18,1.8-2.23,2a7.84,7.84,0,0,1-3.22-.32.1.1,0,0,0-.1.16,3.94,3.94,0,0,0,3.89,1.1,3.11,3.11,0,0,0,2-2.87C1665.94,196.14,1665.71,196.1,1665.62,196.22Z"/><path class="cls-3" d="M1661.43,187.91a10,10,0,0,1-6,5.26,12.84,12.84,0,0,1-3.54.63,4,4,0,0,1-.69,0c-.22,0-.42,0-.65,0a.72.72,0,0,1-.67-.57v0a1.08,1.08,0,0,1,0-.31v0l0-.25c-.35-2.23-.57-5.67-.57-5.67-.77.52-4.69,2.94-4.78,1.76-.68-9.76-1.44-20.61,0-30.46a.27.27,0,0,1,.54,0c1,9.35.4,18.82,1.27,28.23,1.27-.68,3.32-1.89,4.49-2,.33,0,.32,6.64.56,7.63a.25.25,0,0,0,0,.1c3.83,0,6.51-1.51,9.84-4.51C1661.32,187.49,1661.58,187.65,1661.43,187.91Z"/><path class="cls-3" d="M1666.5,169.12a8.67,8.67,0,0,0-2.44,0,9.18,9.18,0,0,0-2.4.72,6.85,6.85,0,0,0-2.1,1.56,5.92,5.92,0,0,0-1.29,2.39l-.44,1.59,1.58-.54a16.91,16.91,0,0,1,3.44-.81,7.21,7.21,0,0,1,3.59.37,5.26,5.26,0,0,0-3.6-1.67,10.1,10.1,0,0,0-4,.47l1.14,1.05a6,6,0,0,1,2.44-3.13A18,18,0,0,1,1666.5,169.12Z"/><path class="cls-3" d="M1663.4,176.6a14.78,14.78,0,0,1-3.8-.49c-.29-.11-1.44-.59-1.43-.81a6.6,6.6,0,0,1,.22-1.88,4.7,4.7,0,0,0-.6,1.92,2.44,2.44,0,0,0,1.65,1.31A7.56,7.56,0,0,0,1663.4,176.6Z"/><path class="cls-3" d="M1697,172.89c-2.91-1.28-10-13.67-10-13.67s-28.35-1.72-38.74-23.49c0,0-7.68,17.34-17.27,23.72,0,0-7.31-23.59,13.24-33.82,0,0,18.51-15.08,43-.85s16.39,46.49,16.39,46.49Z"/><path class="cls-3" d="M1647.5,131.22c.16,4,2.25,7.91,4.45,11.17a42,42,0,0,0,8.16,8.83,37.58,37.58,0,0,0,10.45,6.4c4.39,1.63,9.16,2,13.8,2.27.15,0,.13.26,0,.26-4.86-.13-9.75-.31-14.43-1.73a37.74,37.74,0,0,1-11.24-6A30.57,30.57,0,0,1,1650,143c-2.11-3.7-2.68-7.56-3-11.74C1647,131,1647.49,130.91,1647.5,131.22Z"/><path class="cls-1" d="M1637.69,124.14c3-4.43,10.75-13.89,19.4-17.89,8.81-4.08,22.14-4.72,26.73-5.1,3.78-.3,15.4-3.88,25.9-2.81,6.92.71,12.88,7.81,13.82,12.19,1.41,6.56-12.57,8.31-12.15,10.9.28,1.72,5.72,8.59,3.46,13.84s-2.35,4.61-3.68,7.53c-3.22,7.09-22-18.8-36-22S1637.69,124.14,1637.69,124.14Z"/><path class="cls-2" d="M1638.76,124.2s22.41-6.52,36.43-3.35,30.62,28.65,33.85,21.56c1.42-3.13,1.1-6.27-.41-10.92-5.85-6.84-16.19-16.65-27.53-20.85-10.62-3.93-23.15-1.46-34.76,4.06A72,72,0,0,0,1638.76,124.2Z"/><path class="cls-1" d="M1715.43,155.81c-9.75-6.21-21.6-17.78-35.51-23.78s-39.34,1.26-42.25,3.31c-7.07,5-6.5,9.49-8.06,9.55s.58-12.81,1.87-15.33a27.92,27.92,0,0,1,8.56-8.84c3.23-1.91,24.08-12.17,36.43-8.24s37,21.13,38.94,28.29c.45,1.72-.89,3.84-.23,6.26.87,3.19,2.24,6.64,2.59,9C1718.06,158,1716,156.19,1715.43,155.81Z"/><path class="cls-3" d="M1675.28,128.34a41.77,41.77,0,0,0,2.59-6.45,30,30,0,0,0,1.36-6.89c0-.17.27-.19.27,0a22.63,22.63,0,0,1-.67,7.19,19.06,19.06,0,0,1-3.18,6.41C1675.49,128.8,1675.17,128.57,1675.28,128.34Z"/><path class="cls-3" d="M1712.86,151.76c-.12-.62-.07-1.26-.13-1.88a10.69,10.69,0,0,0-.41-2.1c-.42-1.31-1.17-2.44-1.3-3.83a14,14,0,0,1,.19-3.3,5.43,5.43,0,0,0-.39-3.64.13.13,0,0,1,.23-.14c1.31,2.08.83,4.44,1,6.76.12,1.48.93,2.74,1.29,4.16a6.39,6.39,0,0,1,0,4C1713.22,152,1712.9,152,1712.86,151.76Z"/><path class="cls-3" d="M1705.86,145.8a35,35,0,0,0,.47-3.54,25.6,25.6,0,0,0-.12-3.5c-.11-1.14-.31-2.27-.44-3.41-.16-1.35-.15-2.73-.37-4.07,0-.17.24-.18.27,0,.22,1.39.69,2.74,1,4.12a27.52,27.52,0,0,1,.44,3.62,18.49,18.49,0,0,1-.09,3.49,8.73,8.73,0,0,1-1,3.35A.07.07,0,0,1,1705.86,145.8Z"/><path class="cls-3" d="M1699.17,140.63a23.32,23.32,0,0,0,1.11-6.57c0-2.17-.06-4.35-.17-6.52,0-.15.23-.2.26-.05a27.56,27.56,0,0,1,.88,6.7,14.41,14.41,0,0,1-.4,3.27,15,15,0,0,1-1.42,3.26C1699.36,140.85,1699.12,140.79,1699.17,140.63Z"/><path class="cls-3" d="M1692.43,135.88a7.86,7.86,0,0,0,.68-3c.12-1.14.21-2.29.26-3.44s.13-2.2.18-3.3a7.79,7.79,0,0,0-.34-3.29c0-.14.17-.25.24-.12a8.23,8.23,0,0,1,.89,3.18,21.45,21.45,0,0,1,.11,3.67,26.91,26.91,0,0,1-.43,3.58,5.32,5.32,0,0,1-1.28,2.91C1692.6,136.23,1692.33,136.08,1692.43,135.88Z"/><path class="cls-3" d="M1685.38,128.93c.25-1,.49-2,.66-3.08s.28-2.09.39-3.13.23-2.2.27-3.29a.14.14,0,0,1,.27,0,22.6,22.6,0,0,1,.29,3.29A23.64,23.64,0,0,1,1687,126a24.29,24.29,0,0,1-.66,3.16,8.29,8.29,0,0,1-1.26,3,.19.19,0,0,1-.33-.12A15.92,15.92,0,0,1,1685.38,128.93Z"/><path class="cls-3" d="M1667.57,127.71c.15-1.27.3-2.51.57-3.76a35.45,35.45,0,0,1,1.06-3.75,34.36,34.36,0,0,1,3.1-6.92c.07-.12.3-.07.25.09-1.52,4.81-3.24,9.57-4.72,14.4A.13.13,0,0,1,1667.57,127.71Z"/><path class="cls-3" d="M1659.74,124.41a16,16,0,0,1,1-3.67,36.28,36.28,0,0,1,3.85-6.95c.1-.14.32,0,.24.12-1,2.29-2.13,4.57-3,6.93a34.34,34.34,0,0,0-1.21,3.54c-.32,1.22-.37,2.46-.64,3.68a.11.11,0,0,1-.2,0A9.59,9.59,0,0,1,1659.74,124.41Z"/><path class="cls-3" d="M1652.33,125.27a17.32,17.32,0,0,1,.78-3.55,20.57,20.57,0,0,1,3.19-6.08.13.13,0,0,1,.22.15,40.36,40.36,0,0,0-2.6,6.39c-.34,1.1-.63,2.22-.93,3.34a32.06,32.06,0,0,1-.78,3.39.09.09,0,0,1-.17,0A19,19,0,0,1,1652.33,125.27Z"/><path class="cls-3" d="M1646.05,124.42c.36-1,.77-2.06,1.19-3.07a10.39,10.39,0,0,1,1.55-2.83c.11-.13.27,0,.22.15-.71,2-1.38,4-2,6a28.41,28.41,0,0,0-.86,5.8.09.09,0,0,1-.17,0A10.41,10.41,0,0,1,1646.05,124.42Z"/><path class="cls-3" d="M1640.2,126.52a16.69,16.69,0,0,1,2.81-5.72c.09-.12.3,0,.22.15a20.66,20.66,0,0,0-2.22,5.74,28.27,28.27,0,0,0-.76,6.14c0,.1-.16.14-.18,0A13.73,13.73,0,0,1,1640.2,126.52Z"/><path class="cls-3" d="M1635.35,133.81a11,11,0,0,1-.07-1.41,14.25,14.25,0,0,1,.37-2.83,29.65,29.65,0,0,1,2-5.43c.07-.16.31,0,.24.12a24,24,0,0,0-1.73,5.36,18.29,18.29,0,0,0-.34,2.75c0,.45,0,.9,0,1.36a6.58,6.58,0,0,1,0,1.33.13.13,0,0,1-.24,0A3.48,3.48,0,0,1,1635.35,133.81Z"/><path class="cls-3" d="M1631.43,136.76a22.48,22.48,0,0,1,.3-2.33,19.87,19.87,0,0,1,.58-2.27c.25-.76.53-1.51.74-2.28a.13.13,0,1,1,.25.08,14.61,14.61,0,0,0-.56,2.35c-.12.75-.26,1.5-.39,2.25l-.39,2.24a19.65,19.65,0,0,1-.36,2.3.11.11,0,0,1-.21,0A10.59,10.59,0,0,1,1631.43,136.76Z"/><path class="cls-10" d="M1691.84,170.85s6-15.79,13-14,4.76,23.06-1.73,27.52a7.5,7.5,0,0,1-10.73-1.46Z"/><path class="cls-3" d="M1704,163a.1.1,0,0,1,.09.18c-4.51,3.29-6,8.6-6.62,13.89,1-2.23,2.8-3.76,5.73-2.61.16.07.08.3-.06.31a4.61,4.61,0,0,0-4.54,2.8,22.48,22.48,0,0,0-1.36,4.57c-.12.51-1,.47-1-.09,0,0,0-.08,0-.12C1694.59,175.52,1697.32,165.32,1704,163Z"/><polygon class="cls-1" points="1534.55 177.63 1599.67 183.95 1599.06 228.99 1534.47 231.58 1534.55 177.63"/><polygon class="cls-4" points="1643.84 248.61 1591.98 247.91 1597.47 162.85 1642.93 163.46 1643.84 248.61"/><polygon class="cls-4" points="1617.31 163.12 1620.31 154.89 1632.59 155.06 1636.93 163.38 1617.31 163.12"/><polygon class="cls-4" points="1486.42 169.51 1568.54 177.48 1567.77 234.28 1486.32 237.54 1486.42 169.51"/><path class="cls-1" d="M1489.1,173.72s9.26,14.44,9.75,30.48-9.9,29-9.9,29Z"/><path class="cls-10" d="M1712,251.43c-10,12.29-78.86,103.73-83.61,107,0,0,16,60.15,48.69,41.37,30.89-17.71,53-96.38,61.56-138.39C1743.24,238.84,1731,228.06,1712,251.43Z"/><path class="cls-1" d="M1712,251.43c-10,12.29-78.86,103.73-83.61,107,0,0,16,60.15,48.69,41.37,30.89-17.71,53-96.38,61.56-138.39C1743.24,238.84,1731,228.06,1712,251.43Z"/><path class="cls-13" d="M1636.53,349c.53-.64,1-1.3,1.6-2,2.88-3.61,6.24-7.88,9.94-12.62.51-.64,1-1.3,1.52-2,3.1-4,6.4-8.22,9.79-12.63.53-.64,1-1.3,1.52-2,3.2-4.11,6.45-8.36,9.73-12.61l1.52-2c3.25-4.25,6.51-8.48,9.65-12.59.52-.66,1-1.33,1.52-2,3.39-4.41,6.63-8.66,9.67-12.61l1.52-2c3.62-4.74,6.92-9,9.67-12.6.54-.68,1-1.34,1.54-2,2.84-3.69,5-6.46,6.25-8,1.41-1.73,2.77-3.27,4.1-4.62.7-.72,1.38-1.38,2-2,10-9.25,17.44-7.87,20.25-.25a15.86,15.86,0,0,1,.59,1.95,33,33,0,0,1,.09,12.5c-.09.64-.21,1.28-.35,2a3.83,3.83,0,0,1-.08.42q-1.14,5.66-2.63,12.09c-.13.64-.29,1.31-.45,2-.93,4-2,8.19-3.06,12.52l-.52,2c-1.08,4.08-2.21,8.27-3.43,12.52-.18.66-.37,1.31-.57,2q-1.82,6.22-3.8,12.55c-.22.65-.43,1.29-.64,2-1.37,4.19-2.79,8.4-4.27,12.56-.24.66-.47,1.32-.72,2-1.54,4.25-3.16,8.46-4.84,12.55-.27.66-.55,1.33-.84,2-1.79,4.33-3.66,8.54-5.61,12.57-.33.67-.65,1.33-1,2-2.2,4.45-4.48,8.66-6.84,12.58-.41.66-.82,1.32-1.23,2a94,94,0,0,1-9.3,12.62c-.58.7-1.21,1.36-1.81,2a45.42,45.42,0,0,1-10,8.09c-13.65,7.81-24.37,1.95-32.24-7.59-.53-.62-1-1.26-1.52-1.93a76.7,76.7,0,0,1-7.47-12.41c-.33-.67-.64-1.31-1-1.95a129,129,0,0,1-4.95-12.42c-.23-.72-.45-1.39-.64-2-.61-1.95-.92-3.1-.92-3.1C1629.22,357.84,1632.18,354.35,1636.53,349Z"/><path class="cls-2" d="M1718.12,244.81l20.25-.25a15.86,15.86,0,0,1,.59,1.95l-22.89.29C1716.77,246.08,1717.45,245.42,1718.12,244.81Zm-13.94,16.59,34.52-.42c.14-.69.26-1.33.35-2l-33.33.41C1705.23,260.06,1704.72,260.72,1704.18,261.4ZM1693,276l42.55-.51c.16-.68.32-1.35.45-2l-41.48.51Zm-11.19,14.6L1732,290l.52-2-49.16.6C1682.83,289.26,1682.32,289.93,1681.8,290.59Zm-11.17,14.58,57.33-.7c.2-.66.39-1.31.57-2l-56.38.68Zm-11.25,14.58,64.14-.78c.21-.66.42-1.3.64-2l-63.26.76C1660.41,318.45,1659.91,319.11,1659.38,319.75Zm-11.31,14.6,70.46-.85c.25-.65.48-1.31.72-2l-69.66.85C1649.09,333.05,1648.58,333.71,1648.07,334.35ZM1636.53,349l76.32-.93c.29-.64.57-1.31.84-2l-75.56.92C1637.58,347.65,1637.06,348.31,1636.53,349Zm-7.25,12.58c.19.58.41,1.25.64,2l76.34-.94c.33-.64.65-1.3,1-2Zm5.59,14.39c.32.64.63,1.28,1,1.95l62.36-.77c.41-.64.82-1.3,1.23-2Zm8.43,14.36c.48.67,1,1.31,1.52,1.93l42.26-.5c.6-.63,1.23-1.29,1.81-2Z"/><path class="cls-10" d="M1643,279.89c-7.64-6.36-65.81,26.26-58.38,38.87,35.19,59.65,61.22,78.27,73.75,83.59,12.24,5.2,31.75-12.94,34.59-24.26C1697.12,361.67,1650.62,286.19,1643,279.89Z"/><path class="cls-10" d="M1543.5,217.27c-4.19,7.16,14.35,16,14.35,16s-5.73.15-9.57,4.09c-4.4,4.52.77,13.39.77,13.39a18.82,18.82,0,0,0-9.4,5.92c-3.77,4.75.16,14.44.16,14.44s-5.11,4.2-5,10.41c.2,8.93,11.75,19,21.19,24.29,9,5,37.94,16.62,43.38,18.92l37.95-62s-29.25-29.13-40.14-34.75C1588,223.23,1549.9,206.34,1543.5,217.27Z"/><path class="cls-3" d="M1558.11,233.14c11,2.7,21.27,8,31.16,13.25.22.11,0,.46-.19.34-9.77-5.33-21.2-8.17-31.16-13.09A.27.27,0,0,1,1558.11,233.14Z"/><path class="cls-3" d="M1549.25,250.31a29.6,29.6,0,0,1,6.87,3.48c2.34,1.39,4.66,2.83,7,4.3,4.6,3,9.13,6,13.57,9.19.19.14,0,.47-.19.34-4.59-2.93-9.22-5.79-13.93-8.53-2.35-1.37-4.72-2.71-7.1-4a35.25,35.25,0,0,1-6.54-4.07A.39.39,0,0,1,1549.25,250.31Z"/><path class="cls-3" d="M1540,271.22c2.16.51,4.19,2.23,6,3.46,2.07,1.38,4.15,2.76,6.23,4.12,4.16,2.73,8.33,5.45,12.58,8,.22.13,0,.47-.18.34-4.34-2.6-8.71-5.14-13-7.78q-3.18-1.93-6.33-3.92c-1.79-1.12-4.16-2.32-5.43-4.05A.14.14,0,0,1,1540,271.22Z"/><path class="cls-10" d="M1612.21,241.16c4.44.74,10.13-9.79,12.26-16.91s10.94-16.39,16.8-15.16,3.63,15.23,1.67,23.9-2,42.28.1,46.9-19.8,5.55-19.8,5.55Z"/><path class="cls-3" d="M1609.23,356.18q-6.24-9.3-12.35-18.68l-6.06-9.4c-2-3.15-4-6.32-5.67-9.58l-.1-.19-.2-.08q-8.91-3.53-17.66-7.46c-2.9-1.33-5.79-2.7-8.59-4.2a43.18,43.18,0,0,1-7.9-5.21c-4.93-4-9.82-8.24-13-13.59a13.19,13.19,0,0,1-2-8.71,9.79,9.79,0,0,1,4.66-7.24l.63-.37-.35-.61c-2.07-3.71-2.86-8.49-1.1-12.42a12.83,12.83,0,0,1,3.93-5,10,10,0,0,1,5.91-2h1l-.5-.87a23.45,23.45,0,0,1-2.41-5.64c-.5-1.94-.74-4.1.19-5.8a9.9,9.9,0,0,1,4.63-3.71,28.84,28.84,0,0,1,5.9-1.91l1-.21-.91-.41a45.61,45.61,0,0,1-9.82-5.91,18.14,18.14,0,0,1-3.88-4.18,6.8,6.8,0,0,1-1-5.48,6.89,6.89,0,0,0,.91,5.56,18.22,18.22,0,0,0,3.81,4.36,46.18,46.18,0,0,0,9.76,6.25l.08-.63a27.12,27.12,0,0,0-6.12,1.82,10.69,10.69,0,0,0-5.1,4c-1.14,2.06-.87,4.43-.38,6.5a25,25,0,0,0,2.43,6l.53-.86a11.13,11.13,0,0,0-6.73,2.16,13.69,13.69,0,0,0-4.39,5.5,13.46,13.46,0,0,0-1,7,17.86,17.86,0,0,0,2.15,6.7l.28-1a11.19,11.19,0,0,0-5.47,8.28,13.58,13.58,0,0,0,.23,5,18.08,18.08,0,0,0,1.91,4.62,36.53,36.53,0,0,0,6.14,7.61,89.84,89.84,0,0,0,7.31,6.35,46.59,46.59,0,0,0,3.92,2.88c1.38.87,2.79,1.66,4.22,2.42,2.85,1.51,5.76,2.86,8.69,4.19,5.85,2.64,11.81,5,17.82,7.27l-.3-.27c1.79,3.37,3.86,6.45,5.89,9.59s4.13,6.23,6.27,9.29Q1602.71,347.08,1609.23,356.18Z"/><path class="cls-1" d="M1663.37,306.81l-60.95,48.32s41.49,46.23,59.54,48.15c15.14,1.61,32.85-16.78,32-28.37C1692.7,357,1663.37,306.81,1663.37,306.81Z"/><path class="cls-2" d="M1649.36,317.92l20.14-.23c.35.62.7,1.26,1.07,1.93l-23.73.29Zm-21,16.67,49.79-.61c-.33-.66-.66-1.3-1-2l-46.28.57Zm-18.52,14.7,75.23-.92c-.27-.64-.58-1.31-.87-1.95l-71.84.86Zm-1.2,12.49c.58.63,1.22,1.27,1.87,2l80.47-1c-.21-.65-.45-1.31-.7-2Zm14.25,14.29c.68.64,1.36,1.29,2.06,1.93l69-.84a9.32,9.32,0,0,0,.08-2ZM1639,390.32c.82.66,1.64,1.31,2.45,1.93l44.82-.54c.61-.65,1.15-1.31,1.68-2Z"/><path class="cls-3" d="M1686.82,352.52c-5.15-19.79-19.38-37.72-20.28-38.74-.44-.49-1.22-.27-1.12-.08,1.73,3.55,15.28,25.29,20.75,39C1686.22,352.83,1686.86,352.65,1686.82,352.52Z"/><polygon class="cls-1" points="1666.91 313.03 1607.29 364.46 1594.28 350.41 1658.04 296.88 1666.91 313.03"/><polygon class="cls-2" points="1666.91 313.03 1607.29 364.46 1594.28 350.41 1658.04 296.88 1666.91 313.03"/><path class="cls-3" d="M1733.94,284.77c-2,6.19-4,12.37-6.19,18.51s-4.22,12.3-6.45,18.41c-4.47,12.2-9,24.38-14.37,36.2-2.66,5.91-5.4,11.79-8.59,17.41a92.85,92.85,0,0,1-5.15,8.17,53.27,53.27,0,0,1-6.3,7.22c-4.6,4.47-9.71,8.63-15.7,10.91a20.36,20.36,0,0,1-9.39,1.37,25.32,25.32,0,0,1-9.11-3.13,24,24,0,0,0,9,3.68,20.81,20.81,0,0,0,9.8-.95c6.3-2.19,11.65-6.3,16.47-10.71a49.26,49.26,0,0,0,6.62-7.35,95.5,95.5,0,0,0,5.32-8.29,191.23,191.23,0,0,0,8.81-17.52c5.22-12,9.84-24.16,14-36.51S1730.67,297.38,1733.94,284.77Z"/><path class="cls-3" d="M1734.44,291.71c-1,1.44-1.8,2.85-2.67,4.26l-1.3,2.13c-.42.73-.87,1.43-1.26,2.21a13.38,13.38,0,0,0,3.41-3.82,14.86,14.86,0,0,0,1.15-2.29A10.07,10.07,0,0,0,1734.44,291.71Z"/><path class="cls-3" d="M1693.2,274.14c-5.24,5.57-10,11.52-14.65,17.55a228.38,228.38,0,0,0-13,18.78c5.24-5.57,10-11.52,14.64-17.56S1689.21,280.67,1693.2,274.14Z"/><path class="cls-3" d="M1688.43,275.24a18.36,18.36,0,0,0-3.73,5.52,14.17,14.17,0,0,0-1.37,6.52c.34-1.07.65-2.1,1-3.12s.79-2,1.25-3C1686.49,279.18,1687.47,277.25,1688.43,275.24Z"/><path class="cls-14" d="M635.46-29.12,224.62,26.79c-22.94,3.12-39,24.59-35.8,48l115.1,845.76c3.18,23.36,24.37,39.8,47.32,36.68l410.83-55.91c23-3.12,39-24.64,35.85-48L682.82,7.56C679.64-15.85,658.42-32.24,635.46-29.12ZM768.38,830.7c3,22.26-11.19,42.54-31.75,45.34l-367.55,50c-20.61,2.81-39.74-12.93-42.77-35.19L219.14,103.3C213,58,229.34,53.48,250,50.67l73.61-10c4.28-.58,8.44,3.81,9.26,9.83l.35,2.6c1.93,14.12,9.66,13.12,19.16,11.83L522.6,41.74c9.57-1.31,17.22-2.4,15.3-16.52l-.35-2.6c-.82-6,2-11.35,6.32-12L617.5.65c20.56-2.8,38,1,43.71,42.5Z"/><path class="cls-3" d="M458.29,32.52l-46.44,6.32a2.88,2.88,0,0,1-3.26-2.47h0a2.88,2.88,0,0,1,2.47-3.26l46.45-6.32a2.89,2.89,0,0,1,3.26,2.48h0A2.89,2.89,0,0,1,458.29,32.52Z"/><path class="cls-9" d="M661.21,43.15,768.39,830.7c3,22.26-11.19,42.54-31.75,45.34l-367.56,50c-20.61,2.81-39.73-12.93-42.76-35.19L219.15,103.3C213,58,229.35,53.47,250,50.67l73.62-10c4.27-.58,8.44,3.81,9.26,9.83l.35,2.6c1.92,14.12,9.66,13.12,19.16,11.83L522.6,41.74c9.58-1.31,17.23-2.4,15.31-16.52l-.36-2.6c-.82-6,2-11.36,6.32-12l73.64-10C638.07-2.15,655.56,1.61,661.21,43.15Z"/><path class="cls-1" d="M661.2,43.15l13.4,98.46L232.53,201.77l-13.4-98.46C213,58,229.33,53.48,249.94,50.67l73.64-10c4.28-.58,8.44,3.8,9.26,9.83l.35,2.6c1.92,14.12,9.66,13.12,19.14,11.83L522.59,41.74c9.58-1.31,17.25-2.4,15.33-16.52l-.36-2.6c-.82-6,2-11.36,6.32-12L617.5.65C638.06-2.14,655.55,1.61,661.2,43.15Z"/><polygon class="cls-9" points="271.38 152.27 256.65 141.81 268.05 127.8 270.37 129.68 260.99 141.22 273.11 149.84 271.38 152.27"/><path class="cls-9" d="M631.77,83a2.59,2.59,0,1,1-2.92-2.22A2.59,2.59,0,0,1,631.77,83Z"/><path class="cls-9" d="M633,92.14a2.59,2.59,0,1,1-2.92-2.22A2.59,2.59,0,0,1,633,92.14Z"/><path class="cls-9" d="M634.25,101.28a2.59,2.59,0,1,1-2.92-2.22A2.59,2.59,0,0,1,634.25,101.28Z"/><g id="u5Zjqx"><path class="cls-9" d="M313.27,60.07l-.61.8-.35.46a9.76,9.76,0,0,0-13.71,1.88l-.44-.35-.8-.61h0v0l.05,0c.26-.31.52-.62.79-.92a11.25,11.25,0,0,1,1.9-1.61,10.74,10.74,0,0,1,2.63-1.3c.45-.14.9-.25,1.35-.37.16,0,1.18-.18,1.21-.18.31,0,.63,0,.95-.06a10.91,10.91,0,0,1,2.61.26,11.63,11.63,0,0,1,1.82.57,11.21,11.21,0,0,1,1.79.92l.84.57Z"/><path class="cls-9" d="M301.15,65.13l-1.27-1a7.92,7.92,0,0,1,4.26-2.92,8.1,8.1,0,0,1,7.19,1.34l-1,1.28a6.56,6.56,0,0,0-9.2,1.26Z"/><path class="cls-9" d="M309.38,65.15l-1,1.27a3.36,3.36,0,0,0-2.49-.66,3.3,3.3,0,0,0-2.22,1.31l-1.27-1A4.92,4.92,0,0,1,309.38,65.15Z"/><path class="cls-9" d="M307.21,67.62a1,1,0,0,1-.87,1.15,1,1,0,0,1-1.15-.88,1,1,0,0,1,2-.27Z"/></g><path class="cls-9" d="M244.2,71.66a3,3,0,1,1,3.32,2.53A3,3,0,0,1,244.2,71.66Z"/><path class="cls-9" d="M253.42,70.4a3,3,0,1,1,3.33,2.53A3,3,0,0,1,253.42,70.4Z"/><path class="cls-9" d="M262.65,69.15A3,3,0,1,1,266,71.68,3,3,0,0,1,262.65,69.15Z"/><path class="cls-9" d="M271.88,67.89a3,3,0,1,1,3.33,2.53A3,3,0,0,1,271.88,67.89Z"/><path class="cls-9" d="M281.11,66.64a3,3,0,1,1,3.33,2.53A3,3,0,0,1,281.11,66.64Z"/><path class="cls-9" d="M625.16,26.35,601.28,29.6l-1.51-11.09,23.88-3.25Zm-22.8,1.83,21.38-2.91-1.17-8.59-21.38,2.91Z"/><rect class="cls-9" x="602.45" y="19.06" width="15.52" height="7.36" transform="translate(2.51 82.49) rotate(-7.75)"/><rect class="cls-9" x="624.4" y="17.68" width="2.14" height="5.96" transform="translate(2.93 84.53) rotate(-7.75)"/><polyline class="cls-15" points="687.15 576.71 687.42 578.69 685.44 578.96"/><line class="cls-16" x1="681.46" y1="579.5" x2="340.97" y2="625.84"/><line class="cls-17" x1="336.19" y1="620.42" x2="299.66" y2="351.99"/><polyline class="cls-15" points="299.39 350 299.12 348.02 301.1 347.75"/><line class="cls-16" x1="305.08" y1="347.21" x2="645.57" y2="300.87"/><polyline class="cls-15" points="647.56 300.6 649.54 300.33 649.81 302.31"/><line class="cls-17" x1="650.35" y1="306.29" x2="686.88" y2="574.72"/><path class="cls-14" d="M258,927.69l115.44-10.9s-16.5-161-28.23-228.09c-12.74-72.87-73.86-286.52-73.86-286.52L176.4,415.1s54,215.48,64.53,288.69C250.65,771.65,258,927.69,258,927.69Z"/><path class="cls-3" d="M252.68,404.72l-30.17,205c-19.46-92.44-46.1-194.66-46.1-194.66Z"/><path class="cls-3" d="M195.89,423.39l14.88,64.23L225.21,552c9.48,42.92,18.78,85.88,27.29,129,2.11,10.79,4,21.66,5.31,32.61s2.3,21.89,3.23,32.85q2.76,32.87,4.68,65.79c1.3,21.94,3.94,86.72,3.94,86.72s-4.32-64.68-5.86-86.6-3.07-43.84-5-65.71c-1-10.94-2-21.87-3.32-32.76s-3.26-21.65-5.4-32.43c-8.29-43.14-17.63-86.1-26.71-129.1Z"/><path class="cls-14" d="M261.61,403.41a.42.42,0,0,1,0,.1c-.14,2-2.59,33.71-5.87,61.1-2.37,20-5.21,37.69-7.93,39.85-3.07,2.43-18.39,11.87-23.54,14.89,0,0-11.76,188-23.39,247.37-10.73,54.8-47.58,161.69-47.58,161.69L41.21,885S85.08,778.52,90.42,751.83c8.27-41.37,33.15-241.25,33.15-241.25s-8.61-60.35,8.14-89.49Z"/><path class="cls-3" d="M148.79,490c2.84-1.15,5.94-1.82,8.87-2.7,2.37-.71,4.72-1.47,7-2.32,4.37-1.6,8.72-3.73,12-7.1,3.71-3.79,5.15-9,6.52-14,.81-3,1.66-5.91,2.53-8.85.42-1.42.84-2.85,1.29-4.27a46.81,46.81,0,0,0,1.6-5.13c0-.25.45-.17.38.06a33.42,33.42,0,0,0-.54,3.61c-.23,1.41-.43,2.81-.66,4.21-.42,2.5-.82,5-1.29,7.5-.84,4.48-1.49,9.14-3.39,13.33-3.46,7.65-11,11.56-18.77,13.64-2.23.59-4.49,1.07-6.76,1.51a50.42,50.42,0,0,1-8.63,1.24A.41.41,0,0,1,148.79,490Z"/><path class="cls-3" d="M255.88,499c-11.09,5.59-21.55,12.8-31.47,20.22-.39.29,0,.91.4.65,10.66-6.4,21.57-12.62,31.87-19.6A.75.75,0,0,0,255.88,499Z"/><path class="cls-3" d="M248.74,421c-.09-.38-.78-.38-.72,0a379.29,379.29,0,0,1,3.24,38.08c.27,5.91,0,38.77-10.46,37.8-1.75-.17-2.84-1.72-3.45-4.23-.74-3-.1-6.95,0-10.07.21-6.9.19-13.79-.16-20.68a186.63,186.63,0,0,0-5.6-38.06.33.33,0,0,0-.65.12c2.42,17.61,4.35,35.25,4.09,53-.13,8.56-2.63,21.75,6.31,21.85,9.11.1,12-21.83,12.31-27.76C254.48,454.55,252.23,437.11,248.74,421Z"/><path class="cls-3" d="M241.18,497.71a55.16,55.16,0,0,0-1.36,7c-.25,1.83-.65,3.82-.2,5.62a.4.4,0,0,0,.72.06c1-1.67,1.2-3.79,1.62-5.67.49-2.16,1-4.33,1.45-6.51A1.14,1.14,0,0,0,241.18,497.71Z"/><path class="cls-3" d="M65.22,867.1C76.57,836.3,94.45,788.18,100,773c5.43-15,8.4-30.47,11-46.2q7.89-48,14.23-96.15T136.25,534c.8-8.06,1.78-16.15,2.21-24.24.45-8.41-1.06-16-3.31-24.07a77.81,77.81,0,0,1-3.23-22.38,151.8,151.8,0,0,1,2.26-22.61c.67-3.94,1.45-7.85,2.24-11.77a.34.34,0,0,1,.68.11c-2.56,15.76-5.21,31.69-2,47.58,1.52,7.63,4.59,14.92,5.51,22.68s-.08,15.57-.8,23.27q-4.5,48.63-10.71,97.07t-13.88,96.67C112.68,732,110.51,747.8,106,763s-23,62.48-35.58,92.76c-1.6,3.84-3.22,7.67-4.83,11.5C65.49,867.52,65.13,867.35,65.22,867.1Z"/><path class="cls-18" d="M188.29,250c35.17,13.49,95.45,39.07,118.45,38.64,17.74-.34,92.52-66,114.38-90.74,6.7-7.57-42.35-48.6-50.17-41.18-21.56,20.47-80.75,69.86-83.57,70.76-10.45,3.35-54.91-2.61-94-4.75C149.79,220.38,171.25,243.49,188.29,250Z"/><path class="cls-19" d="M252.85,279.2l19.34-51.63s-66.74-11.11-95.29-4.72-8.58,19.32,7.43,27.42S252.85,279.2,252.85,279.2Z"/><path class="cls-1" d="M252.85,279.2l19.34-51.63s-66.74-11.11-95.29-4.72-8.58,19.32,7.43,27.42S252.85,279.2,252.85,279.2Z"/><path class="cls-9" d="M272.14,227.67l-.17.43c-.63-.19-1.27-.36-1.92-.5a29.37,29.37,0,0,0-2.92-.67l-2.94-.52c-1-.14-2-.18-3-.28l-1.5-.15c-.48,0-1,0-1.5,0A53.07,53.07,0,0,0,235,230.92a94.93,94.93,0,0,0-20.13,12.92c-4.88,3.92-9.5,8.11-14.12,12.33-.23.21-.47.44-.7.63a6,6,0,0,1-.48.42l-1.06-.47c.19-.12.34-.3.53-.45s.47-.42.7-.63c4.73-4.28,9.49-8.59,14.52-12.59a93.94,93.94,0,0,1,20.41-12.88,54.54,54.54,0,0,1,22.86-4.79c6.87.93,11.86,1.7,13.79,2A6.86,6.86,0,0,1,272.14,227.67ZM259,259.43c-6.74,3.23-13.18,7-19.65,10.64-1.3.71-2.58,1.44-3.88,2.15l1.29.52c1-.58,2.08-1.15,3.12-1.75,6.47-3.68,12.88-7.45,19.54-10.7L260,260l.47-1.26C260,259,259.51,259.19,259,259.43Zm-58.31-3.26c-.33-.19-.66-.34-1-.5a29,29,0,0,0-8.5-2.79c-.59-.07-1.21-.14-1.83-.18.84.39,1.76.8,2.69,1.24A30.08,30.08,0,0,1,199,256.3c.35.16.68.34,1,.5.71.36,1.42.75,2.11,1.16s1.33.79,2,1.23c1.21.53,2.43,1.05,3.67,1.56a52.91,52.91,0,0,0-5.21-3.53C202,256.84,201.36,256.49,200.73,256.17Z"/><path class="cls-3" d="M242.31,272.8c2.05-7.43,5.05-14.69,7.76-21.9,2.78-7.4,6.06-14.58,9-21.92.09-.21.45-.08.38.13-2.57,7.32-4.83,14.73-7.67,21.95s-5.63,14.85-9.27,21.81C242.45,273,242.28,272.91,242.31,272.8Z"/><path class="cls-2" d="M262.78,252.71l-9.93,26.49s-52.51-20.84-68.52-28.94c-9.76-4.93-21-11.68-21.79-17.62Z"/><path class="cls-1" d="M118.66,442.13c.45.38,155.81-23.58,157.06-25.49,1.73-2.69-39.8-144.92-67-180.67-13-17.09-43.13-23-56,7.94C122,318,117.08,440.79,118.66,442.13Z"/><path class="cls-9" d="M274.85,411.38c-.71.14-1.46.3-2.18.39-.5.1-1,.19-1.49.26l-1.51.13c-1,.08-2,.22-3,.26l-3,0c-1,0-2-.11-3-.18a52.55,52.55,0,0,1-6-.73c-2-.45-3.93-.82-5.88-1.44s-3.81-1.27-5.73-1.92-3.71-1.51-5.51-2.41-3.61-1.79-5.39-2.72-3.52-1.94-5.24-3q-3-1.82-5.94-3.78a6.91,6.91,0,0,1-.7-.49c-4.5-3-8.88-6.17-13.26-9.36-6.49-4.72-12.95-9.54-19.86-13.59a67.34,67.34,0,0,0-10.76-5.17c-.75-.28-1.52-.53-2.28-.73a5.89,5.89,0,0,0-1.09-.31,29.55,29.55,0,0,0-8.26-1.07c-1,.08-2,.12-2.95.22l-3,.51a28.4,28.4,0,0,0-2.95.53l-2.91.7-1.45.37-1.42.45-2.84.95c-1.83.81-3.72,1.47-5.47,2.45-.79.38-1.6.83-2.35,1.26a8.25,8.25,0,0,0-1,.6c-2.33,1.36-4.59,2.89-6.82,4.44-3.1,2.12-6.22,4.25-9.53,6.1,0-.2,0-.43.07-.64,3.13-1.8,6.11-3.89,9.11-6,2.06-1.46,4.13-2.88,6.3-4.17.33-.22.65-.42,1-.62,1-.59,2-1.13,3-1.62,1.78-1,3.67-1.7,5.51-2.53l2.87-1,1.44-.47,1.47-.38,2.93-.76c1-.23,2-.37,3-.55l3-.51c1-.12,2-.18,3.07-.27a30.86,30.86,0,0,1,8.88,1.16c.35.13.69.21,1,.34.69.19,1.36.43,2,.67a67.43,67.43,0,0,1,10.85,5.34c7,4.14,13.37,9,19.82,13.79,4.5,3.33,9,6.64,13.61,9.75.23.18.48.34.71.49,1.79,1.21,3.6,2.39,5.44,3.51a95.35,95.35,0,0,0,10.55,5.77c1.8.87,3.68,1.58,5.52,2.38,1.89.63,3.77,1.36,5.72,1.86s3.87.95,5.84,1.37a56.5,56.5,0,0,0,5.95.72c1,0,2,.16,3,.13l3-.06c1,0,2-.16,3-.25l1.48-.15c.5-.07,1-.16,1.49-.26.72-.12,1.42-.24,2.14-.41A4.15,4.15,0,0,1,274.85,411.38Zm-9.42-33.94-.37.28a104,104,0,0,1-19,11.42,79.45,79.45,0,0,1-21.28,6.15q-1.91.27-3.84.42a4.26,4.26,0,0,1-.7.07,80.07,80.07,0,0,1-17.64-.42,92.75,92.75,0,0,1-10.92-2.13A110.89,110.89,0,0,1,181,389.92c-6.45-2.28-12.68-5.07-18.93-7.86l-1-.44-.65-.3c-6.8-3-13.6-6.11-20.77-8.27l-.26-.06a5.82,5.82,0,0,0-.93-.26,54.35,54.35,0,0,0-14.91-2.27,8,8,0,0,0-.11.91,46.27,46.27,0,0,1,5.13.27,57.88,57.88,0,0,1,8.91,1.71c.29.06.58.15.87.24s.71.18,1.06.29a177.83,177.83,0,0,1,20.78,8c.16.08.32.13.48.21.35.13.68.29,1,.42,6.33,2.75,12.66,5.51,19.17,7.77,3.51,1.26,7.09,2.37,10.68,3.31a92.83,92.83,0,0,0,11,2.2,80.22,80.22,0,0,0,18.39.52,5.69,5.69,0,0,0,.71-.07c1.08-.09,2.13-.19,3.21-.33a81,81,0,0,0,21.52-6,99.33,99.33,0,0,0,19.27-11.35s.07,0,.1-.06C265.62,378.1,265.52,377.78,265.43,377.44ZM249,326.93c-1.8-.55-3.61-.91-5.44-1.3a58.06,58.06,0,0,0-6-.76c-1,0-2-.18-3-.15l-3,0c-1,0-2,.18-3,.24l-1.5.15c-.51,0-1,.16-1.5.23a53.8,53.8,0,0,0-22.28,9.06,93.38,93.38,0,0,0-17.72,16.38c-4.2,4.85-8.08,10-11.93,15l-.6.8-2.4,3.15c-3.06,4-6.15,8-9.48,11.85a3.37,3.37,0,0,0-.4.43c-1.83,2.06-3.72,4.05-5.73,5.92a46.32,46.32,0,0,1-9.58,7,30.38,30.38,0,0,1-11.25,3.49,47.78,47.78,0,0,1-11.89,0c-.52-.09-1.07-.17-1.59-.27,0,.28,0,.56-.06.85.5.11,1,.19,1.51.27a49.25,49.25,0,0,0,12.13.16l1.53-.18,1.49-.28,1.51-.28,1.47-.46,1.46-.45c.49-.17.94-.38,1.43-.58l1.39-.59c.48-.22.9-.48,1.35-.72a47.42,47.42,0,0,0,9.82-7.19,85.07,85.07,0,0,0,6-6.27l.38-.41,1.84-2.15c2.58-3.1,5-6.29,7.49-9.5.88-1.16,1.74-2.32,2.63-3.48.19-.26.38-.52.55-.77,3.78-5,7.55-10,11.61-14.71a96,96,0,0,1,17.44-16.39,53.3,53.3,0,0,1,21.91-9.14c.5-.07,1-.19,1.5-.25l1.48-.13c1-.09,2-.24,3-.26l3,0c1-.05,2,.09,3,.13a59.21,59.21,0,0,1,5.95.69c1.94.43,3.85.78,5.73,1.36Zm-35.3-83.42c-4.84,3.89-9.41,8-14,12.16-.23.21-.48.42-.7.63-1,.9-2,1.77-3,2.67-6,5.36-11.95,10.73-18.67,15-1.19.77-2.44,1.48-3.67,2.15l-.76.41a38.43,38.43,0,0,1-6.29,2.61,30.75,30.75,0,0,1-11.7,1.34,46.82,46.82,0,0,1-11.67-2.2c-.69-.24-1.39-.5-2.07-.79-.09.27-.15.53-.22.79.65.3,1.32.56,2,.8a47.51,47.51,0,0,0,11.9,2.38l1.52.12h3.08l1.53-.16,1.5-.18c.52-.09,1-.21,1.51-.33l1.5-.33c.5-.12,1-.31,1.44-.45a42.22,42.22,0,0,0,7.1-3c.26-.14.53-.28.78-.44,1-.57,2.08-1.17,3.09-1.82a93.47,93.47,0,0,0,9.73-7.18c3.12-2.56,6.14-5.23,9.1-7.95,1.09-1,2.15-1.95,3.24-3,.23-.19.47-.42.7-.63,4.42-4,8.83-8.05,13.48-11.81Zm15.7,31.91c-1.36.7-2.75,1.34-4.14,2a3.62,3.62,0,0,1-.6.26c-1.73.77-3.49,1.5-5.26,2.12a48,48,0,0,1-21.71,2.93,58.36,58.36,0,0,1-21.38-5.26,14,14,0,0,1-1.45-.72,12,12,0,0,1-1.14-.56c-5.72-3-11.11-6.65-17.25-8.92a53.7,53.7,0,0,0-10.86-3l-.34-.06a.87.87,0,0,0-.05.19.25.25,0,0,0,0,.13l.45.07c1.81.41,3.62.8,5.42,1.32a52.15,52.15,0,0,1,5.23,1.81c5.91,2.25,11.11,5.87,16.68,8.87.38.2.74.41,1.12.59.64.34,1.26.64,1.91,1a59.82,59.82,0,0,0,21.63,5.56,48.45,48.45,0,0,0,22.14-2.92c1.92-.69,3.83-1.43,5.67-2.27l.61-.26c1.27-.58,2.53-1.18,3.77-1.81C229.7,276.07,229.55,275.73,229.41,275.42Zm4.7,11.42c-1.63-1.73-3.27-3.47-4.88-5.21-1.07-1.13-2.12-2.28-3.18-3.41-.25-.27-.51-.57-.78-.84-4.17-4.47-8.38-8.88-13-12.94a66.45,66.45,0,0,0-9.71-7.22c-.61-.38-1.22-.73-1.85-1.05-.33-.19-.66-.34-1-.5a29,29,0,0,0-8.5-2.79c-1-.11-2-.23-3-.32l-3,0c-1,0-2-.06-3,0l-3,.19-1.51.1-1.5.23-3,.41c-2,.47-4,.82-5.88,1.48A85.78,85.78,0,0,0,156,259.36c-3.45,1.59-6.93,3.11-10.53,4.39,0,.13-.09.26-.14.42a.87.87,0,0,0-.05.19l.39-.13c3.6-1.23,7.1-2.75,10.58-4.29a83.22,83.22,0,0,1,11.2-4.32,59.19,59.19,0,0,1,5.81-1.41l4.45-.6,1.51-.08,3-.18c1,0,2,0,3,0l3,.05c1,.09,2,.22,3,.31A30.76,30.76,0,0,1,199,256.3c.35.16.68.34,1,.5.71.36,1.42.75,2.11,1.16a65.47,65.47,0,0,1,9.64,7.06c4.53,3.94,8.73,8.25,12.89,12.62.24.28.51.57.77.84,1.13,1.17,2.24,2.37,3.36,3.54,1.93,2.05,3.89,4.1,5.85,6.15C234.49,287.71,234.3,287.27,234.11,286.84Z"/><path class="cls-18" d="M199.88,249.67c-6.8,1.75-23.76-8.07-31.61-17.71-.53-.66-.83-8.62-1.65-18.27-.52-5.85-1.24-12.35-2.32-18.24l38.58,2.17s-1.36,13,.59,23.27a14.49,14.49,0,0,0,.7,2.36,3.79,3.79,0,0,1,.13.4C205.89,228.1,210.53,246.93,199.88,249.67Z"/><path class="cls-3" d="M166.46,212c9.5,9.76,23,18.54,38.56,13.89-.28-1-.51-1.73-.71-2.27a2.45,2.45,0,0,1-.13-.38,10.81,10.81,0,0,1-.69-2.38c-2-10.25-.62-23.26-.62-23.26l-38.58-2.16C165.29,200.77,166,206.62,166.46,212Z"/><path class="cls-18" d="M148.61,154.52c-1.56,13.83,12.39,50.36,23.27,57.06,15.78,9.7,38.09,6.76,45.46-11.4,7.14-17.6-11.89-64.88-23.72-70.61C176.2,121.14,150.91,134.08,148.61,154.52Z"/><path class="cls-3" d="M188.54,168.73c0-.09-.14.19-.09.29,1.11,2.39,2,5.31.13,7-.06.06,0,.18.08.13C191.17,174.68,190,170.81,188.54,168.73Z"/><path class="cls-3" d="M185.3,167.12c-4,1.37-1,9.31,2.74,8S188.67,166,185.3,167.12Z"/><path class="cls-3" d="M202.9,162.67c0-.1.24,0,.28.15.86,2.49,2.26,5.19,4.8,5.16.08,0,.12.13,0,.15C205.15,168.78,203.32,165.17,202.9,162.67Z"/><path class="cls-3" d="M204.12,159.26c3.84-1.81,7.18,6,3.62,7.69S200.9,160.78,204.12,159.26Z"/><path class="cls-3" d="M180.78,164.68a31.92,31.92,0,0,0,2.66-2.25c1-.88,1.91-1.48,2.28-2.82a1.78,1.78,0,0,0-1.05-1.93c-1.59-.6-3.1.16-4.36,1.17a6.52,6.52,0,0,0-2.51,4A1.91,1.91,0,0,0,180.78,164.68Z"/><path class="cls-3" d="M205.7,155.11a33.29,33.29,0,0,1-3.46.39c-1.34.13-2.39.37-3.62-.28a1.79,1.79,0,0,1-.68-2.09c.65-1.57,2.25-2.14,3.84-2.36a6.48,6.48,0,0,1,4.63.91A1.91,1.91,0,0,1,205.7,155.11Z"/><path class="cls-3" d="M195,192.43c.81.35,1.7.92,2.62.66a7,7,0,0,0,2.41-1.63.09.09,0,0,1,.16.08,3.54,3.54,0,0,1-2.62,2.53,2.81,2.81,0,0,1-2.76-1.43C194.7,192.51,194.87,192.38,195,192.43Z"/><path class="cls-3" d="M194.76,184.08a9,9,0,0,0,7,1.59,10.85,10.85,0,0,0,3.07-1,3.53,3.53,0,0,0,.55-.28l.51-.29a.65.65,0,0,0,.28-.74v0a.77.77,0,0,0-.12-.24v0l-.09-.22c-.67-1.91-2-4.72-2-4.72.82.08,5,.32,4.52-.65-3.61-8-7.63-16.91-12.92-24.11a.25.25,0,0,0-.43.23c3.17,7.83,7.7,15.06,11,22.88a15.92,15.92,0,0,0-4.41.3c-.24.18,2.57,5.39,2.81,6.28a.31.31,0,0,1,0,.09c-3,1.62-5.79,1.58-9.7.62C194.67,183.7,194.54,183.94,194.76,184.08Z"/><path class="cls-3" d="M203.36,184.13a10.69,10.69,0,0,1-2.81,4.6,4.78,4.78,0,0,1-2.65,1.21c-2.16.23-2.9-1.55-3.13-3.24a11.48,11.48,0,0,1,0-2.69A13.81,13.81,0,0,0,203.36,184.13Z"/><path class="cls-20" d="M200.55,188.73a4.78,4.78,0,0,1-2.65,1.21c-2.16.23-2.9-1.55-3.13-3.24C197,186.12,199.59,186.75,200.55,188.73Z"/><path class="cls-3" d="M155.22,186.24c-1.93-3.07-21.23-36.6-21.44-40.82-.19-3.83,4.16-3.52,4.16-3.75s-.85-3.52.82-5.34c1.46-1.6,4.4-1.21,4.4-1.21s-.41-3.62,1.48-5.19,4.5-.34,4.5-.34-.26-3.53,2.25-5.13a3.92,3.92,0,0,1,4.65.36s-.06-3.55,2-4.86,4.73.55,4.73.55.37-3.35,3.09-4.2,4.68,1.83,4.68,1.83.77-3.37,3.33-4.2,4.39,2.11,4.39,2.11.21-3.18,2.69-3.7S185,115,185,115a2.51,2.51,0,0,1,2.9-2.68c4.8.13,13.47,22.44,17.16,31.24,0,0-3.81-6.33-5.71-5.95s-2.42,3.76-5.66,5.55c-4.61,2.55-14.54-.82-20.91,2.65-6.19,3.36-9,11.75-8.36,22.84C165.21,181.18,159.79,193.53,155.22,186.24Z"/><path class="cls-18" d="M162.43,183.83s-11-10.42-15.94-6.24,5.16,20.52,12.15,21.59a6.74,6.74,0,0,0,8.11-5.38Z"/><path class="cls-3" d="M149.49,182.2a.09.09,0,0,0,0,.18c4.93.9,8.2,4.63,10.79,8.65-1.71-1.4-3.74-1.94-5.66.14-.1.11,0,.27.17.21a4.14,4.14,0,0,1,4.76.5,19.79,19.79,0,0,1,2.89,3.17c.3.36,1,0,.73-.45a.41.41,0,0,0,0-.09C162,188.68,155.84,181.5,149.49,182.2Z"/><path class="cls-3" d="M207.33,228.52a.06.06,0,0,0-.12,0c2.61,7,8.17,23.34-3.3,25.72-4.62,1-9.58-.6-13.84-2.31a66.16,66.16,0,0,1-12.4-6.74,96.65,96.65,0,0,1-12.57-9.66c-.16-.16-.38.12-.21.28,4,3.54,7.55,7.4,11.86,10.57A57,57,0,0,0,190.21,254c4.52,1.72,9.74,3.2,14.57,2,4.59-1.18,7-5,7.1-9.57C212,240.3,209.91,233.89,207.33,228.52Z"/><rect class="cls-21" x="235.97" y="160.33" width="355" height="283.2" transform="translate(-57.6 101.39) rotate(-13.08)"/><polygon class="cls-9" points="380.36 365.03 357.64 267.25 469.48 292.8 380.36 365.03"/><rect class="cls-9" x="228.65" y="211.95" width="21" height="14.77" transform="translate(-43.43 59.8) rotate(-13.08)"/><rect class="cls-9" x="235.43" y="241.14" width="21" height="14.77" transform="translate(-49.86 62.1) rotate(-13.08)"/><rect class="cls-9" x="242.21" y="270.34" width="21" height="14.77" transform="translate(-56.29 64.39) rotate(-13.08)"/><rect class="cls-9" x="249" y="299.54" width="21" height="14.77" transform="translate(-62.72 66.68) rotate(-13.08)"/><rect class="cls-9" x="255.78" y="328.73" width="21" height="14.77" transform="matrix(0.97, -0.23, 0.23, 0.97, -69.15, 68.97)"/><rect class="cls-9" x="262.56" y="357.93" width="21" height="14.77" transform="translate(-75.58 71.27) rotate(-13.08)"/><rect class="cls-9" x="269.34" y="387.13" width="21" height="14.77" transform="translate(-82.01 73.56) rotate(-13.08)"/><rect class="cls-9" x="276.13" y="416.32" width="21" height="14.77" transform="translate(-88.44 75.85) rotate(-13.08)"/><rect class="cls-9" x="282.91" y="445.52" width="21" height="14.77" transform="translate(-94.87 78.14) rotate(-13.08)"/><rect class="cls-9" x="523.03" y="143.56" width="21" height="14.77" transform="translate(-20.32 124.64) rotate(-13.08)"/><rect class="cls-9" x="529.81" y="172.76" width="21" height="14.77" transform="translate(-26.75 126.94) rotate(-13.08)"/><rect class="cls-9" x="536.59" y="201.95" width="21" height="14.77" transform="translate(-33.18 129.23) rotate(-13.08)"/><rect class="cls-9" x="543.38" y="231.15" width="21" height="14.77" transform="translate(-39.61 131.52) rotate(-13.08)"/><rect class="cls-9" x="550.16" y="260.35" width="21" height="14.77" transform="translate(-46.04 133.81) rotate(-13.08)"/><rect class="cls-9" x="556.94" y="289.54" width="21" height="14.77" transform="translate(-52.47 136.1) rotate(-13.08)"/><rect class="cls-9" x="563.72" y="318.74" width="21" height="14.77" transform="translate(-58.9 138.4) rotate(-13.08)"/><rect class="cls-9" x="570.51" y="347.94" width="21" height="14.77" transform="translate(-65.33 140.69) rotate(-13.08)"/><rect class="cls-9" x="577.29" y="377.13" width="21" height="14.77" transform="translate(-71.76 142.97) rotate(-13.08)"/><path class="cls-18" d="M185.92,269.42c9.43,18.68,46.58,94.5,51,97.56,17.8,12.44,61.09,32.59,66.68,37.22,7.62,6.33-16.21,54.92-26.81,55.09-4.38.07-62.44-27.73-81.28-42.67-15.18-12-34.17-99.73-40.17-140.89C150.16,240.42,167.66,233.25,185.92,269.42Z"/><path class="cls-1" d="M165.24,342.46l54-11s-26-62.44-46.62-83.24-20.93,3-19.28,20.86S165.24,342.46,165.24,342.46Z"/><path class="cls-9" d="M217.77,327.9a52,52,0,0,0-13.14,6.52l-1.93.39c.16-.15.35-.25.51-.38a55.45,55.45,0,0,1,14.3-7.13C217.59,327.51,217.69,327.7,217.77,327.9Zm-31-60.83A100.92,100.92,0,0,1,177.4,274c-1.19.77-2.44,1.48-3.67,2.15l-.76.41a38.43,38.43,0,0,1-6.29,2.61,30.75,30.75,0,0,1-11.7,1.34l-.2,0,.13,1,1.52.12h3.08l1.53-.16,1.5-.18c.52-.09,1-.21,1.51-.33l1.5-.33c.5-.12,1-.31,1.44-.45a42.22,42.22,0,0,0,7.1-3c.26-.14.53-.28.78-.44,1-.57,2.08-1.17,3.09-1.82a92.63,92.63,0,0,0,9.41-6.93C187.18,267.66,187,267.35,186.82,267.07Zm9,15.47a56.8,56.8,0,0,1-19.5-5.11,14,14,0,0,1-1.45-.72,12,12,0,0,1-1.14-.56c-5.72-3-11.11-6.65-17.25-8.92-1.1-.44-2.22-.84-3.37-1.2,0,.16,0,.33,0,.51a27.77,27.77,0,0,1,3.16,1.15c5.91,2.25,11.11,5.87,16.68,8.87.38.2.74.41,1.12.59.64.34,1.26.64,1.91,1a57.87,57.87,0,0,0,20.36,5.42C196.19,283.2,196,282.87,195.82,282.54Zm-19-29.61-.77.13-3,.41c-2,.47-4,.82-5.88,1.48A85.78,85.78,0,0,0,156,259.36l-3.14,1.42a4.36,4.36,0,0,0,0,.63c1.13-.48,2.26-1,3.36-1.47a83.22,83.22,0,0,1,11.2-4.32,59.19,59.19,0,0,1,5.81-1.41l4.2-.57C177.22,253.39,177,253.16,176.85,252.93Z"/><path class="cls-3" d="M165.06,330.13c7.38-2.21,15.12-3.52,22.67-5.06,7.75-1.57,15.58-2.61,23.35-4,.22,0,.31.34.09.39-7.57,1.71-15,3.73-22.67,5.16s-15.57,3.12-23.4,3.73A.1.1,0,0,1,165.06,330.13Z"/><path class="cls-3" d="M154.79,297q1.49,4.82,3.07,9.6c-1-6.82-2-13.65-2.66-20.5a.16.16,0,0,1,.31,0c2,9.38,3.74,18.87,5.37,28.32,1.57,9.1,3.42,18.3,4.35,27.49.69,0,1.38-.07,2.07-.13.31,0,.38.47.08.55-.83.2-1.65.43-2.48.66a.54.54,0,0,1-.66-.37c-2.39-9.26-3.76-18.95-5.25-28.39-.25-1.55-.46-3.1-.69-4.65a114.84,114.84,0,0,1-4-12.4A.26.26,0,0,1,154.79,297Z"/><path class="cls-3" d="M217.27,331.83l1.95-.57-.12.23c-2.09-3.81-4-7.7-6-11.57s-3.77-7.82-5.57-11.77-3.57-7.91-5.22-11.93-3.32-8-4.78-12.12c2.15,3.78,4.13,7.65,6.07,11.53s3.8,7.8,5.63,11.74,3.58,7.9,5.29,11.89,3.34,8,4.86,12.09l.08.21-.19,0Z"/><path class="cls-3" d="M202.91,288.06a28.27,28.27,0,0,1,1.79,6,27.74,27.74,0,0,1,.55,6.26,31.25,31.25,0,0,1-2.34-12.28Z"/><path class="cls-18" d="M333.15,425.41c-2.87-3-1.32-4.51,6-3.49s35.23,11.19,38,1.14-36.92-23.85-49.17-24.61-32.33,2.31-32.33,2.31C302.75,405,319.18,416.92,333.15,425.41Z"/><path class="cls-18" d="M270.38,456.71c21.07,14.14,45.69,26.37,72.17,25.42a13.16,13.16,0,0,0,8.09-2.9c11.87-.21,15.34-5.88,15.34-5.88,11-3.59,13.75-9.88,13.75-9.88s9.5-1.34,9-8.06c-.44-6.51-16.28-9.67-28-15-26.87-12.23-57.82-35.34-65.21-39.64Z"/><path class="cls-3" d="M327.43,449.16c8,3.44,15.72,7,24.12,9.38,9.22,2.57,18.52,3.5,28,4.68a.23.23,0,0,1,0,.46c-17.43.57-37.33-5.15-52.23-14.16C326.9,449.3,327,449,327.43,449.16Z"/><path class="cls-3" d="M317.69,464.3c7.94,2.92,21.94,8,48.3,8.77.08,0,.11.15,0,.15-17.18,1.76-32.93-1.31-48.45-8.54C317.07,464.45,317.16,464.11,317.69,464.3Z"/><path class="cls-3" d="M312.6,472.53c13.71,4.45,22.91,5.52,38,6.64.09,0,.1.16,0,.16-17.26.53-23.58-1.23-38.19-6.35C311.88,472.81,312.07,472.36,312.6,472.53Z"/><path class="cls-18" d="M364.09,156c8.77-5.79,18.87-18.66,26.42-20.66A9,9,0,0,1,400.58,139s2.74-8.2,9.89-8.88c3.68-.35,7.48,5.22,7.48,5.22s2.49-6.48,8.88-6.7c5.1-.17,8.14,5.44,8.14,5.44s5.28-5.1,10.53-3.61c10.65,3,16.73,46.37,1.7,55.31-7,4.16-7.92-6.51-7.92-6.51s-2.39,15.66-11.3,17.15-9.25-12.46-9.25-12.46-2.46,15.16-11.84,15.76c-9.78.63-7.74-13.36-7.74-13.36s-5.18,10.55-12.47,9.37c-12-2-.09-22.24-3.69-31.45l-16.45-3Z"/><path class="cls-18" d="M376.52,145.42c-8.78,4.75-21.84-5.13-30.9-1.79-12.25,4.51,2.13,17,20.92,17.58l14.67-2.11Z"/><path class="cls-3" d="M435.58,134.87a.12.12,0,0,1,.22-.07c5.47,13.77,7.27,30.58,3.6,45-.12.48-.94.49-.91-.06C439.42,164.15,439,150.22,435.58,134.87Z"/><path class="cls-3" d="M418,135.09c0-.16.24-.23.31-.06,5.56,14.22,7.06,33.21.87,49.37-.21.55-1,.84-.76.18C421.73,173.53,421.16,148.89,418,135.09Z"/><path class="cls-3" d="M398.33,187.37c5.34-15.72,5.09-31.57,2.5-47.82,0-.21.27-.23.35-.06,3.43,7.6,4,18.12,3.75,26.35a43.65,43.65,0,0,1-6.05,21.72C398.73,187.82,398.22,187.71,398.33,187.37Z"/><polygon class="cls-21" points="481.28 564.81 474.23 513.05 530.95 531.69 481.28 564.81"/><polygon class="cls-21" points="632.82 530.7 629.38 505.42 657.07 514.53 632.82 530.7"/><polygon class="cls-21" points="612.05 533.53 608.61 508.25 636.3 517.35 612.05 533.53"/><polygon class="cls-21" points="375.89 539.92 379.33 565.2 351.64 556.09 375.89 539.92"/><polygon class="cls-21" points="396.66 537.09 400.1 562.37 372.4 553.27 396.66 537.09"/><rect class="cls-21" x="346.42" y="534.67" width="5.24" height="43.55" transform="translate(-71.84 52.15) rotate(-7.75)"/><rect class="cls-21" x="657.1" y="492.39" width="5.24" height="43.55" transform="matrix(0.99, -0.13, 0.13, 0.99, -63.31, 93.65)"/><path class="cls-9" d="M360.14,129.63a3.11,3.11,0,0,0-.55-.28c0-.07-.08-.06-.1-.2a2.19,2.19,0,0,1-.41-.38.07.07,0,0,1-.08-.06,2.57,2.57,0,0,0-.43-.53l-23-39.08A3.81,3.81,0,0,1,337,83.77a3.86,3.86,0,0,1,5.32,1.37l18.31,31L370,81.37a4,4,0,0,1,7.65,2l-11.9,43.84a2.18,2.18,0,0,1-.2.61c0,.07,0,.07-.06.08s-.25.32-.3.47a.54.54,0,0,1-.11.23c-.12.17-.26.25-.38.42l-.13.09a5,5,0,0,1-.52.43c-.07,0-.07,0-.13.09a1.63,1.63,0,0,0-.55.22l-.15,0a2.62,2.62,0,0,1-.7.17,2.79,2.79,0,0,1-.71,0l-.15,0a2,2,0,0,0-.58-.07c0-.06-.09,0-.09,0h-.07c-.14-.06-.46-.23-.69-.35Z"/><path class="cls-9" d="M388,79.93a3.9,3.9,0,0,1,3.38-4.44,4,4,0,0,1,4.5,3.36l5.7,41.89a4,4,0,0,1-3.44,4.44,3.89,3.89,0,0,1-4.44-3.37Z"/><path class="cls-9" d="M414.9,118.93,409.2,77a3.89,3.89,0,0,1,3.38-4.43L421,71.47a25.07,25.07,0,0,1,6.77,49.69l-8.38,1.14A3.93,3.93,0,0,1,414.9,118.93Zm7.34-5.05,4.4-.6A17.12,17.12,0,0,0,422,79.35l-4.41.6Z"/><path class="cls-9" d="M462.42,112.46l-5.7-41.88a3.89,3.89,0,0,1,3.38-4.44h.07l.14,0,23-3.13a4,4,0,0,1,4.43,3.38,4,4,0,0,1-3.36,4.5l-19.24,2.62,1.77,13,16.54-2.25a4,4,0,0,1,1.07,7.88L468,94.35l1.78,13.07L489,104.8a4,4,0,0,1,1.07,7.88l-23,3.13c-.14,0-.15-.06-.15-.06l-.06.08A3.93,3.93,0,0,1,462.42,112.46Z"/><path class="cls-9" d="M538.33,61.79a26.3,26.3,0,0,1,4.89,35.92,23.48,23.48,0,0,1-15.93,9.9,24.16,24.16,0,0,1-18.43-5.23A26.71,26.71,0,0,1,504,66.46a24,24,0,0,1,16.36-10A23.17,23.17,0,0,1,538.33,61.79Zm1.52,18.08a18.5,18.5,0,0,0-6.51-11.76,15.45,15.45,0,0,0-22.72,3.09,18.19,18.19,0,0,0-3.13,13.08A17.83,17.83,0,0,0,514,96a15.31,15.31,0,0,0,22.72-3.09A18.25,18.25,0,0,0,539.85,79.87Z"/></svg>